<?xml version="1.0" encoding="UTF-8"?>
<svg xmlns="http://www.w3.org/2000/svg" xmlns:xlink="http://www.w3.org/1999/xlink" width="975" height="1300" viewBox="0 0 975 1300">
<path fill-rule="nonzero" fill="rgb(98.823529%, 78.823529%, 9.019608%)" fill-opacity="1" d="M 50 50 L 925 50 L 925 170 L 50 170 Z M 50 50 "/>
<path fill-rule="nonzero" fill="rgb(34.901961%, 14.901961%, 14.901961%)" fill-opacity="1" d="M 154.402344 77.28125 L 142.972656 77.460938 L 142.429688 78 C 142.792969 89.699219 143.0625 97.53125 143.0625 107.878906 C 143.0625 118.859375 142.792969 129.75 142.519531 140.730469 L 143.0625 141.269531 C 149.722656 141 151.160156 140.910156 158.363281 141 L 158.8125 140.460938 C 158.453125 130.648438 158.453125 128.398438 158.453125 119.21875 C 168.53125 119.308594 179.332031 119.308594 185.8125 111.390625 C 188.332031 108.328125 190.492188 103.199219 190.492188 96.898438 C 190.492188 93.03125 189.589844 84.480469 182.121094 80.25 C 176.722656 77.101562 169.070312 77.101562 162.320312 77.101562 L 154.402344 77.28125 M 158.453125 88.171875 C 160.429688 88.078125 162.320312 88.078125 164.300781 88.078125 C 172.222656 88.261719 174.382812 92.308594 174.382812 97.53125 C 174.382812 98.789062 174.382812 104.011719 169.613281 106.621094 C 167.179688 107.96875 163.851562 108.148438 158.453125 108.148438 Z M 222.710938 107.609375 L 225.230469 92.941406 L 224.691406 92.308594 C 224.0625 92.308594 223.429688 92.21875 222.800781 92.21875 C 219.109375 92.21875 214.972656 94.289062 212.089844 100.949219 L 212.359375 92.671875 L 211.640625 91.949219 C 204.980469 93.390625 203.269531 93.660156 196.699219 94.648438 L 196.160156 95.191406 C 196.699219 101.941406 196.972656 105.988281 196.972656 118.5 C 196.972656 125.878906 196.878906 133.261719 196.699219 140.730469 L 197.242188 141.269531 C 203.902344 141 205.339844 140.910156 212.539062 141 L 212.992188 140.371094 C 212.628906 133.078125 212.089844 122.910156 212.089844 116.699219 C 212.089844 112.648438 212.089844 106.710938 218.210938 106.710938 C 219.742188 106.710938 220.640625 107.25 221.902344 107.96875 Z M 270.5 114.179688 C 270.589844 106.078125 270.589844 102.570312 268.25 98.789062 C 266.449219 95.910156 262.851562 92.308594 251.332031 92.308594 C 243.589844 92.308594 238.820312 93.75 233.691406 95.28125 L 233.152344 96 L 232.699219 105.808594 L 233.421875 106.171875 C 236.570312 104.910156 242.421875 102.570312 248.449219 102.570312 C 251.78125 102.570312 253.128906 103.109375 254.300781 104.28125 C 255.199219 105.179688 255.472656 106.800781 255.472656 108.148438 C 244.671875 109.589844 239.628906 110.578125 234.230469 113.910156 C 229.191406 117.058594 227.480469 122.191406 227.480469 126.238281 C 227.480469 135.871094 234.410156 142.078125 243.230469 142.078125 C 249.980469 142.078125 253.851562 138.839844 255.742188 137.308594 L 255.742188 140.640625 L 256.28125 141.269531 C 262.761719 141 264.742188 140.910156 270.589844 141 L 271.039062 140.371094 C 270.410156 131.550781 270.410156 129.300781 270.410156 120.839844 L 270.5 114.179688 M 255.652344 128.488281 C 253.761719 129.570312 251.332031 130.828125 248.359375 130.828125 C 245.121094 130.828125 242.421875 129.121094 242.421875 125.339844 C 242.421875 119.398438 249.53125 118.410156 255.652344 117.601562 Z M 297.324219 140.371094 C 296.871094 133.441406 296.511719 128.128906 296.511719 115.710938 C 296.511719 108.058594 296.691406 100.320312 296.78125 92.671875 L 296.152344 91.949219 L 280.671875 94.648438 L 280.132812 95.191406 C 280.851562 102.03125 281.121094 105.179688 281.121094 117.960938 C 281.121094 127.769531 280.851562 133.261719 280.582031 140.640625 L 281.121094 141.269531 C 287.601562 141 289.402344 140.910156 296.691406 141 L 297.324219 140.371094 M 295.882812 83.308594 L 296.152344 71.070312 L 295.613281 70.53125 L 280.941406 72.328125 L 280.402344 72.960938 C 280.582031 76.199219 280.671875 78.089844 280.671875 80.25 C 280.671875 81.960938 280.671875 83.761719 280.582031 85.46875 L 281.210938 86.011719 C 287.332031 84.929688 289.042969 84.75 295.433594 83.941406 Z M 333.320312 107.609375 L 335.839844 92.941406 L 335.300781 92.308594 C 334.671875 92.308594 334.039062 92.21875 333.410156 92.21875 C 329.71875 92.21875 325.582031 94.289062 322.699219 100.949219 L 322.96875 92.671875 L 322.25 91.949219 C 315.589844 93.390625 313.878906 93.660156 307.308594 94.648438 L 306.769531 95.191406 C 307.308594 101.941406 307.582031 105.988281 307.582031 118.5 C 307.582031 125.878906 307.488281 133.261719 307.308594 140.730469 L 307.851562 141.269531 C 314.511719 141 315.949219 140.910156 323.148438 141 L 323.601562 140.371094 C 323.238281 133.078125 322.699219 122.910156 322.699219 116.699219 C 322.699219 112.648438 322.699219 106.710938 328.820312 106.710938 C 330.351562 106.710938 331.25 107.25 332.511719 107.96875 Z M 357.351562 140.371094 C 356.898438 133.441406 356.539062 128.128906 356.539062 115.710938 C 356.539062 108.058594 356.71875 100.320312 356.808594 92.671875 L 356.179688 91.949219 L 340.699219 94.648438 L 340.160156 95.191406 C 340.878906 102.03125 341.148438 105.179688 341.148438 117.960938 C 341.148438 127.769531 340.878906 133.261719 340.609375 140.640625 L 341.148438 141.269531 C 347.628906 141 349.429688 140.910156 356.71875 141 L 357.351562 140.371094 M 355.910156 83.308594 L 356.179688 71.070312 L 355.640625 70.53125 L 340.96875 72.328125 L 340.429688 72.960938 C 340.609375 76.199219 340.699219 78.089844 340.699219 80.25 C 340.699219 81.960938 340.699219 83.761719 340.609375 85.46875 L 341.238281 86.011719 C 347.359375 84.929688 349.070312 84.75 355.460938 83.941406 Z M 407.300781 127.679688 C 403.882812 129.480469 399.832031 131.550781 393.261719 131.550781 C 387.863281 131.550781 384.171875 129.839844 382.011719 126.601562 C 380.660156 124.710938 380.390625 122.910156 380.03125 121.109375 L 409.101562 120.570312 L 409.640625 119.941406 C 409.550781 115.53125 409.460938 111.03125 408.203125 106.53125 C 405.050781 95.910156 398.121094 93.75 395.0625 93.03125 C 392.8125 92.398438 390.742188 92.21875 388.671875 92.21875 C 374.542969 92.21875 365.179688 101.488281 365.179688 117.058594 C 365.179688 121.289062 365.902344 125.699219 367.339844 128.851562 C 372.5625 141 384.800781 142.078125 391.28125 142.078125 C 398.75 142.078125 401.992188 140.730469 406.761719 138.839844 L 407.300781 138.121094 L 407.929688 127.949219 L 407.300781 127.679688 M 380.03125 111.570312 C 380.300781 108.78125 380.929688 105 384.351562 102.839844 C 385.429688 102.121094 386.691406 101.851562 387.953125 101.851562 C 390.921875 101.851562 392.722656 103.378906 393.710938 105 C 394.972656 106.980469 395.0625 109.140625 395.0625 111.210938 Z M 490.910156 124.890625 C 488.839844 126.511719 484.25 129.929688 476.78125 129.929688 C 466.519531 129.929688 459.320312 122.28125 459.320312 109.5 C 459.320312 101.761719 462.019531 88.171875 476.691406 88.171875 C 483.441406 88.171875 487.128906 90.78125 489.378906 92.488281 L 490.191406 92.308594 L 491 79.890625 L 490.640625 79.441406 C 487.402344 78.179688 481.910156 76.109375 473.992188 76.109375 C 450.679688 76.109375 442.582031 94.109375 442.582031 109.859375 C 442.582031 127.140625 453.109375 142.351562 475.070312 142.351562 C 482.628906 142.351562 487.582031 140.371094 490.460938 139.199219 L 490.910156 138.660156 L 491.539062 125.25 Z M 514.851562 140.371094 C 514.398438 133.441406 514.039062 128.128906 514.039062 115.710938 C 514.039062 108.058594 514.21875 100.320312 514.308594 92.671875 L 513.679688 91.949219 L 498.199219 94.648438 L 497.660156 95.191406 C 498.378906 102.03125 498.648438 105.179688 498.648438 117.960938 C 498.648438 127.769531 498.378906 133.261719 498.109375 140.640625 L 498.648438 141.269531 C 505.128906 141 506.929688 140.910156 514.21875 141 L 514.851562 140.371094 M 513.410156 83.308594 L 513.679688 71.070312 L 513.140625 70.53125 L 498.46875 72.328125 L 497.929688 72.960938 C 498.109375 76.199219 498.199219 78.089844 498.199219 80.25 C 498.199219 81.960938 498.199219 83.761719 498.109375 85.46875 L 498.738281 86.011719 C 504.859375 84.929688 506.570312 84.75 512.960938 83.941406 Z M 550.042969 130.648438 C 548.511719 131.101562 547.429688 131.460938 545.902344 131.460938 C 541.3125 131.460938 540.953125 128.578125 540.769531 127.230469 C 540.5 124.890625 540.5 119.941406 540.589844 116.339844 L 540.769531 103.648438 L 548.871094 104.011719 L 549.410156 103.46875 L 550.3125 93.839844 L 549.769531 93.300781 L 540.769531 93.300781 L 541.042969 78.179688 L 540.410156 77.640625 C 534.292969 79.441406 532.671875 79.890625 526.28125 81.511719 L 525.921875 82.140625 L 526.011719 93.390625 L 521.152344 93.210938 L 520.613281 93.660156 L 519.800781 103.289062 L 520.339844 103.828125 L 526.011719 103.648438 L 525.742188 117.960938 C 525.652344 120.210938 525.5625 122.460938 525.5625 124.800781 C 525.5625 133.078125 525.742188 141.988281 539.78125 141.988281 C 543.292969 141.988281 546.082031 141.449219 549.230469 140.910156 L 549.863281 140.28125 L 550.761719 131.011719 Z M 596.929688 93.03125 L 584.421875 93.300781 L 583.699219 93.929688 C 582.171875 100.140625 581.8125 101.488281 579.652344 108.511719 L 577.3125 116.25 L 575.332031 123 L 573.621094 116.609375 L 571.011719 107.070312 L 567.410156 93.390625 L 566.691406 92.851562 C 559.671875 93.390625 558.140625 93.480469 550.761719 93.660156 L 550.3125 94.289062 C 553.550781 102.839844 561.921875 125.429688 567.5 142.710938 C 563.8125 152.070312 563.089844 153.691406 559.039062 162.601562 L 559.492188 163.320312 C 561.742188 163.230469 564.261719 163.140625 566.601562 163.140625 C 568.851562 163.140625 571.191406 163.230469 573.441406 163.230469 L 574.070312 162.691406 C 579.019531 143.25 581.449219 135.691406 593.332031 104.371094 C 594.679688 100.769531 596.03125 97.261719 597.289062 93.75 Z M 653.992188 102.300781 C 646.433594 99.148438 642.472656 97.53125 642.472656 93.480469 C 642.472656 90.691406 645.082031 87.179688 651.023438 87.179688 C 657.863281 87.179688 661.910156 89.96875 665.242188 92.21875 L 666.050781 91.859375 L 666.773438 80.070312 L 666.320312 79.441406 C 662.453125 77.820312 658.402344 76.109375 649.671875 76.109375 C 632.753906 76.109375 626.902344 85.648438 626.902344 95.28125 C 626.902344 106.171875 635.363281 110.128906 640.402344 112.558594 L 643.371094 113.910156 C 649.582031 116.519531 654.351562 118.769531 654.351562 123.539062 C 654.351562 126.960938 651.382812 131.011719 643.550781 131.011719 C 635.363281 131.011719 630.773438 127.410156 628.160156 125.339844 L 627.261719 125.609375 L 626.632812 138.300781 L 627.171875 139.019531 C 628.160156 139.378906 629.152344 139.828125 630.140625 140.101562 C 632.210938 140.820312 637.523438 142.351562 644.273438 142.351562 C 646.972656 142.351562 653.8125 142.078125 659.210938 139.558594 C 666.773438 135.871094 670.011719 129.03125 670.011719 121.378906 C 670.011719 116.25 668.03125 110.761719 663.261719 107.070312 C 660.832031 105.269531 658.492188 104.191406 656.332031 103.199219 Z M 709.429688 140.371094 C 713.300781 124.078125 714.648438 119.398438 726.890625 77.640625 L 726.441406 77.191406 C 719.691406 77.460938 717.890625 77.460938 712.488281 77.460938 L 711.949219 78 C 710.238281 86.820312 709.789062 89.160156 707.269531 99.148438 L 704.390625 110.941406 L 700.519531 127.589844 L 695.75 106.351562 L 693.859375 98.25 C 691.609375 88.980469 690.980469 85.921875 689.089844 77.191406 L 688.550781 76.738281 C 681.082031 77.28125 679.460938 77.371094 672.441406 77.371094 L 671.988281 77.910156 C 678.019531 98.699219 683.421875 117.78125 686.480469 129.660156 C 687.378906 133.351562 688.28125 137.039062 689.179688 140.730469 L 689.71875 141.269531 C 697.550781 141 699.53125 140.910156 708.890625 141 Z M 751.371094 116.25 C 757.402344 126.511719 758.753906 129.210938 764.511719 141 L 765.234375 141.449219 C 768.023438 141.269531 770.722656 141.089844 773.511719 141 C 776.304688 140.910156 779.183594 140.820312 781.972656 140.820312 L 782.511719 139.738281 C 779.09375 135.328125 778.101562 133.980469 771.621094 123.628906 C 768.742188 119.039062 767.304688 116.609375 765.054688 112.648438 C 769.101562 110.851562 777.292969 107.070312 777.292969 95.640625 C 777.292969 91.679688 776.210938 83.488281 768.832031 79.621094 C 764.152344 77.191406 759.292969 77.101562 748.761719 77.28125 L 742.460938 77.371094 L 731.484375 77.371094 L 731.03125 77.910156 C 731.394531 87 731.753906 96.359375 731.753906 120.839844 C 731.753906 129.210938 731.664062 133.261719 731.394531 140.730469 L 731.933594 141.269531 C 738.503906 141 739.941406 140.910156 747.324219 141 L 747.863281 140.460938 C 747.144531 130.019531 747.054688 127.140625 746.960938 116.429688 L 751.371094 116.25 M 747.144531 88.261719 C 748.402344 88.171875 749.664062 88.171875 750.921875 88.171875 C 754.433594 88.171875 761.363281 88.171875 761.363281 96.089844 C 761.363281 98.609375 760.734375 101.941406 757.402344 104.011719 C 754.882812 105.539062 751.644531 105.71875 747.144531 105.808594 Z M 823.644531 77.191406 C 815.003906 77.460938 813.203125 77.460938 803.574219 77.460938 L 802.941406 78 C 798.171875 93.300781 795.292969 102.390625 782.0625 140.371094 L 782.421875 141 L 796.460938 141 L 797.09375 140.460938 L 801.503906 124.078125 L 820.941406 124.078125 L 824.8125 140.730469 L 825.441406 141.269531 C 832.011719 141 833.8125 140.910156 841.101562 141 L 841.554688 140.28125 C 830.664062 101.761719 829.402344 97.53125 824.273438 77.730469 L 823.644531 77.191406 M 804.652344 113.191406 L 809.152344 97.980469 L 812.304688 87.449219 L 815.003906 99.148438 L 818.332031 113.191406 Z M 841.910156 141 "/>
</svg>
