<?xml version="1.0" encoding="UTF-8"?>
<svg xmlns="http://www.w3.org/2000/svg" xmlns:xlink="http://www.w3.org/1999/xlink" width="975" height="1300" viewBox="0 0 975 1300">
<path fill-rule="nonzero" fill="rgb(98.823529%, 78.823529%, 9.019608%)" fill-opacity="1" d="M 50 50 L 925 50 L 925 410 L 50 410 Z M 50 50 "/>
<path fill-rule="nonzero" fill="rgb(34.901961%, 14.901961%, 14.901961%)" fill-opacity="1" d="M 184.191406 141.179688 C 186.441406 141.359375 188.152344 141.539062 190.222656 141.539062 C 210.5625 141.539062 210.5625 129.300781 210.5625 120.300781 C 210.5625 118.050781 210.472656 115.800781 210.382812 113.550781 L 210.382812 77.730469 L 209.933594 77.191406 C 203 77.460938 201.5625 77.460938 194.09375 77.460938 L 193.640625 78 C 194.09375 90.78125 194.453125 101.851562 194.453125 114.898438 C 194.453125 123.179688 194.453125 129.570312 187.523438 129.570312 C 186.171875 129.570312 185.453125 129.300781 184.28125 128.941406 L 183.742188 129.480469 L 183.742188 140.550781 Z M 266.992188 117.058594 C 266.992188 113.550781 266.992188 98.96875 254.390625 94.019531 C 250.429688 92.488281 245.75 92.308594 243.410156 92.308594 C 227.75 92.308594 218.929688 100.679688 218.929688 117.238281 C 218.929688 123 219.832031 128.851562 223.160156 133.710938 C 225.5 137.21875 229.910156 142.078125 242.78125 142.078125 C 261.859375 142.078125 266.992188 130.558594 266.992188 117.058594 M 251.421875 116.96875 C 251.421875 124.351562 250.429688 132.539062 242.960938 132.539062 C 240.621094 132.539062 239 131.460938 237.921875 130.46875 C 236.390625 128.941406 234.679688 125.878906 234.679688 117.148438 C 234.679688 114.539062 234.679688 108.78125 236.480469 105.628906 C 237.832031 103.199219 240.171875 101.578125 243.050781 101.578125 C 245.570312 101.578125 247.640625 102.929688 248.8125 104.371094 C 250.972656 106.980469 251.421875 112.109375 251.421875 116.96875 Z M 319.640625 140.371094 C 319.28125 132.988281 319.191406 130.46875 319.011719 121.109375 L 319.011719 114.359375 C 318.921875 105.808594 318.832031 100.859375 316.21875 97.078125 C 313.609375 93.390625 309.832031 92.21875 305.871094 92.21875 C 299.300781 92.21875 294.171875 95.371094 290.570312 97.53125 L 290.839844 69.808594 L 290.300781 69.179688 L 274.910156 71.609375 L 274.460938 72.148438 C 275.269531 80.878906 275.449219 84.121094 275.628906 95.730469 C 275.8125 103.019531 275.902344 110.308594 275.902344 117.601562 C 275.902344 126.511719 275.71875 131.820312 275.539062 140.640625 L 275.992188 141.269531 C 282.652344 140.910156 284 140.910156 291.289062 140.910156 L 291.832031 140.371094 C 291.199219 126.871094 291.109375 122.820312 291.019531 106.890625 C 292.730469 105.71875 294.890625 104.191406 297.949219 104.191406 C 302.902344 104.191406 303.261719 109.320312 303.621094 112.921875 C 303.800781 115.710938 303.890625 128.488281 303.890625 131.820312 C 303.890625 134.789062 303.800781 137.671875 303.800781 140.640625 L 304.25 141.269531 C 310.730469 140.910156 312.171875 140.910156 319.101562 140.910156 Z M 374 140.371094 C 373.550781 132.449219 373.550781 129.929688 373.371094 121.109375 L 373.371094 114.089844 C 373.28125 105.449219 373.191406 101.308594 370.941406 97.621094 C 368.148438 92.941406 363.019531 92.21875 359.78125 92.21875 C 354.289062 92.21875 349.519531 95.101562 345.378906 97.53125 L 345.558594 92.578125 L 344.660156 91.949219 C 337.730469 93.390625 336.199219 93.660156 329.449219 94.558594 L 328.910156 95.191406 C 329.628906 103.019531 330.171875 108.691406 330.171875 123.359375 C 330.171875 129.121094 330.078125 134.878906 329.988281 140.640625 L 330.53125 141.179688 C 337.011719 140.910156 338.359375 140.910156 345.558594 140.910156 L 346.101562 140.371094 C 345.558594 126.511719 345.46875 123 345.378906 106.890625 C 347.269531 105.628906 349.429688 104.101562 352.308594 104.101562 C 357.261719 104.101562 357.710938 109.410156 357.980469 112.648438 C 358.160156 115.621094 358.25 127.949219 358.25 131.371094 C 358.25 134.429688 358.160156 137.578125 358.160156 140.640625 L 358.699219 141.179688 C 364.640625 141 366.171875 140.910156 373.371094 140.910156 Z M 427.28125 141 C 435.652344 141.179688 446 141.359375 452.75 136.679688 C 458.691406 132.449219 460.3125 126.511719 460.3125 121.46875 C 460.3125 115.710938 457.878906 110.398438 452.75 107.878906 C 451.039062 106.980469 449.0625 106.621094 447.171875 106.261719 C 450.230469 105 453.832031 103.378906 456.171875 98.609375 C 457.160156 96.539062 457.609375 94.378906 457.609375 92.308594 C 457.609375 89.429688 456.890625 85.46875 454.011719 82.230469 C 450.230469 78.179688 444.378906 77.101562 435.5625 77.101562 C 432.5 77.101562 427.011719 77.191406 423.949219 77.28125 L 411.351562 77.460938 L 410.8125 78 C 411.171875 86.640625 411.261719 89.96875 411.261719 102.390625 C 411.261719 115.171875 411.171875 127.859375 410.992188 140.640625 L 411.621094 141 L 427.28125 141 M 426.652344 113.640625 C 433.492188 113.460938 437.449219 113.460938 440.0625 114.988281 C 442.671875 116.609375 443.660156 119.488281 443.660156 122.371094 C 443.660156 126.421875 441.410156 128.941406 438.082031 130.109375 C 435.378906 131.011719 430.519531 131.011719 426.652344 130.921875 L 426.652344 113.640625 M 426.652344 87.179688 C 428.539062 87.179688 431.0625 87.089844 432.589844 87.089844 C 437.449219 87.089844 441.859375 88.800781 441.859375 94.648438 C 441.859375 99.421875 438.351562 101.398438 437.269531 101.941406 C 435.019531 102.929688 430.25 102.929688 426.652344 102.929688 Z M 481.640625 127.140625 L 467.242188 127.410156 L 466.792969 128.128906 L 466.972656 140.640625 L 467.421875 141.269531 L 481.820312 140.910156 L 482.269531 140.371094 L 482.089844 127.679688 Z M 528.984375 141 C 531.324219 141.089844 533.753906 141.089844 536.09375 141.089844 C 546.171875 141.089844 562.460938 140.730469 569.03125 124.710938 C 571.460938 118.769531 572.003906 111.570312 572.003906 107.519531 C 572.003906 99.058594 570.113281 92.578125 567.863281 88.53125 C 561.742188 77.371094 550.132812 77.011719 539.871094 77.011719 C 535.734375 77.011719 531.59375 77.191406 527.453125 77.371094 L 517.914062 77.460938 L 517.371094 78 C 517.734375 86.640625 518.09375 94.199219 518.09375 119.128906 C 518.09375 127.949219 518.003906 133.261719 517.824219 140.640625 L 518.363281 141 L 528.984375 141 M 533.933594 129.390625 C 533.753906 120.570312 533.664062 112.199219 533.664062 103.558594 C 533.664062 98.699219 533.664062 93.839844 533.753906 88.980469 C 535.550781 88.890625 537.441406 88.800781 539.242188 88.800781 C 544.734375 88.800781 555.441406 88.800781 555.441406 107.96875 C 555.441406 119.21875 551.210938 124.261719 549.050781 126.058594 C 545.003906 129.390625 538.792969 129.390625 533.933594 129.390625 Z M 621.140625 127.679688 C 617.722656 129.480469 613.671875 131.550781 607.101562 131.550781 C 601.703125 131.550781 598.011719 129.839844 595.851562 126.601562 C 594.5 124.710938 594.230469 122.910156 593.871094 121.109375 L 622.941406 120.570312 L 623.480469 119.941406 C 623.390625 115.53125 623.300781 111.03125 622.042969 106.53125 C 618.890625 95.910156 611.960938 93.75 608.902344 93.03125 C 606.652344 92.398438 604.582031 92.21875 602.511719 92.21875 C 588.382812 92.21875 579.019531 101.488281 579.019531 117.058594 C 579.019531 121.289062 579.742188 125.699219 581.179688 128.851562 C 586.402344 141 598.640625 142.078125 605.121094 142.078125 C 612.589844 142.078125 615.832031 140.730469 620.601562 138.839844 L 621.140625 138.121094 L 621.769531 127.949219 L 621.140625 127.679688 M 593.871094 111.570312 C 594.140625 108.78125 594.769531 105 598.191406 102.839844 C 599.269531 102.121094 600.53125 101.851562 601.792969 101.851562 C 604.761719 101.851562 606.5625 103.378906 607.550781 105 C 608.8125 106.980469 608.902344 109.140625 608.902344 111.210938 Z M 687.382812 140.371094 C 690.984375 126.421875 691.613281 124.261719 697.011719 104.910156 C 698.09375 101.21875 699.082031 97.441406 700.074219 93.75 L 699.535156 93.03125 L 687.832031 93.300781 L 687.203125 93.929688 L 684.59375 107.429688 L 682.074219 118.320312 L 680.363281 126.601562 L 678.832031 118.589844 L 676.851562 109.230469 L 673.703125 93.660156 L 673.164062 93.03125 L 655.882812 93.300781 L 655.253906 93.929688 L 652.285156 108.691406 L 650.125 118.589844 L 648.414062 126.871094 L 646.703125 117.960938 L 644.542969 108.238281 L 641.484375 93.300781 L 640.941406 92.851562 L 626.363281 93.929688 L 625.824219 94.648438 C 634.285156 124.351562 635.632812 129.660156 638.152344 140.730469 L 638.785156 141.269531 C 644.992188 141 647.242188 140.910156 655.523438 141 L 656.0625 140.371094 L 658.402344 129.390625 L 660.921875 118.5 L 663.171875 107.609375 L 664.523438 114.449219 L 665.875 121.109375 L 669.652344 140.640625 L 670.285156 141.269531 C 676.941406 141 679.644531 140.910156 686.84375 141 Z M 721.132812 140.371094 C 720.679688 133.441406 720.320312 128.128906 720.320312 115.710938 C 720.320312 108.058594 720.5 100.320312 720.589844 92.671875 L 719.960938 91.949219 L 704.480469 94.648438 L 703.941406 95.191406 C 704.660156 102.03125 704.929688 105.179688 704.929688 117.960938 C 704.929688 127.769531 704.660156 133.261719 704.390625 140.640625 L 704.929688 141.269531 C 711.410156 141 713.210938 140.910156 720.5 141 L 721.132812 140.371094 M 719.691406 83.308594 L 719.960938 71.070312 L 719.421875 70.53125 L 704.75 72.328125 L 704.210938 72.960938 C 704.390625 76.199219 704.480469 78.089844 704.480469 80.25 C 704.480469 81.960938 704.480469 83.761719 704.390625 85.46875 L 705.019531 86.011719 C 711.140625 84.929688 712.851562 84.75 719.242188 83.941406 Z M 756.324219 130.648438 C 754.792969 131.101562 753.710938 131.460938 752.183594 131.460938 C 747.59375 131.460938 747.234375 128.578125 747.050781 127.230469 C 746.78125 124.890625 746.78125 119.941406 746.871094 116.339844 L 747.050781 103.648438 L 755.152344 104.011719 L 755.691406 103.46875 L 756.59375 93.839844 L 756.050781 93.300781 L 747.050781 93.300781 L 747.324219 78.179688 L 746.691406 77.640625 C 740.574219 79.441406 738.953125 79.890625 732.5625 81.511719 L 732.203125 82.140625 L 732.292969 93.390625 L 727.433594 93.210938 L 726.894531 93.660156 L 726.082031 103.289062 L 726.621094 103.828125 L 732.292969 103.648438 L 732.023438 117.960938 C 731.933594 120.210938 731.84375 122.460938 731.84375 124.800781 C 731.84375 133.078125 732.023438 141.988281 746.0625 141.988281 C 749.574219 141.988281 752.363281 141.449219 755.511719 140.910156 L 756.144531 140.28125 L 757.042969 131.011719 Z M 788.183594 130.648438 C 786.652344 131.101562 785.570312 131.460938 784.042969 131.460938 C 779.453125 131.460938 779.09375 128.578125 778.910156 127.230469 C 778.640625 124.890625 778.640625 119.941406 778.730469 116.339844 L 778.910156 103.648438 L 787.011719 104.011719 L 787.550781 103.46875 L 788.453125 93.839844 L 787.910156 93.300781 L 778.910156 93.300781 L 779.183594 78.179688 L 778.550781 77.640625 C 772.433594 79.441406 770.8125 79.890625 764.421875 81.511719 L 764.0625 82.140625 L 764.152344 93.390625 L 759.292969 93.210938 L 758.753906 93.660156 L 757.941406 103.289062 L 758.480469 103.828125 L 764.152344 103.648438 L 763.882812 117.960938 C 763.792969 120.210938 763.703125 122.460938 763.703125 124.800781 C 763.703125 133.078125 763.882812 141.988281 777.921875 141.988281 C 781.433594 141.988281 784.222656 141.449219 787.371094 140.910156 L 788.003906 140.28125 L 788.902344 131.011719 Z M 789.441406 141 "/>
<path fill-rule="nonzero" fill="rgb(34.901961%, 14.901961%, 14.901961%)" fill-opacity="1" d="M 175.277344 236.25 C 181.308594 246.511719 182.660156 249.210938 188.417969 261 L 189.140625 261.449219 C 191.929688 261.269531 194.628906 261.089844 197.417969 261 C 200.210938 260.910156 203.089844 260.820312 205.878906 260.820312 L 206.417969 259.738281 C 203 255.328125 202.007812 253.980469 195.527344 243.628906 C 192.648438 239.039062 191.210938 236.609375 188.960938 232.648438 C 193.007812 230.851562 201.199219 227.070312 201.199219 215.640625 C 201.199219 211.679688 200.117188 203.488281 192.738281 199.621094 C 188.058594 197.191406 183.199219 197.101562 172.667969 197.28125 L 166.367188 197.371094 L 155.390625 197.371094 L 154.9375 197.910156 C 155.300781 207 155.660156 216.359375 155.660156 240.839844 C 155.660156 249.210938 155.570312 253.261719 155.300781 260.730469 L 155.839844 261.269531 C 162.410156 261 163.847656 260.910156 171.230469 261 L 171.769531 260.460938 C 171.050781 250.019531 170.960938 247.140625 170.867188 236.429688 L 175.277344 236.25 M 171.050781 208.261719 C 172.308594 208.171875 173.570312 208.171875 174.828125 208.171875 C 178.339844 208.171875 185.269531 208.171875 185.269531 216.089844 C 185.269531 218.609375 184.640625 221.941406 181.308594 224.011719 C 178.789062 225.539062 175.550781 225.71875 171.050781 225.808594 Z M 251.148438 247.679688 C 247.730469 249.480469 243.679688 251.550781 237.109375 251.550781 C 231.710938 251.550781 228.019531 249.839844 225.859375 246.601562 C 224.507812 244.710938 224.238281 242.910156 223.878906 241.109375 L 252.949219 240.570312 L 253.488281 239.941406 C 253.398438 235.53125 253.308594 231.03125 252.050781 226.53125 C 248.898438 215.910156 241.96875 213.75 238.910156 213.03125 C 236.660156 212.398438 234.589844 212.21875 232.519531 212.21875 C 218.390625 212.21875 209.027344 221.488281 209.027344 237.058594 C 209.027344 241.289062 209.75 245.699219 211.1875 248.851562 C 216.410156 261 228.648438 262.078125 235.128906 262.078125 C 242.597656 262.078125 245.839844 260.730469 250.609375 258.839844 L 251.148438 258.121094 L 251.777344 247.949219 L 251.148438 247.679688 M 223.878906 231.570312 C 224.148438 228.78125 224.777344 225 228.199219 222.839844 C 229.277344 222.121094 230.539062 221.851562 231.800781 221.851562 C 234.769531 221.851562 236.570312 223.378906 237.558594 225 C 238.820312 226.980469 238.910156 229.140625 238.910156 231.210938 Z M 305.867188 260.460938 C 305.507812 252.359375 305.238281 246.960938 305.238281 235.171875 C 305.238281 211.410156 305.597656 201.601562 305.957031 189.71875 L 305.328125 189.179688 L 290.476562 191.519531 L 290.027344 192.058594 C 290.566406 200.519531 290.65625 202.769531 290.566406 213.03125 C 283.816406 212.851562 275.355469 212.671875 268.515625 218.070312 C 262.21875 222.929688 259.605469 230.398438 259.605469 239.671875 C 259.605469 246.691406 261.496094 253.710938 266.808594 258.121094 C 270.765625 261.359375 275.628906 262.078125 278.597656 262.078125 C 284.988281 262.078125 288.316406 259.109375 290.476562 257.21875 L 290.296875 260.730469 L 290.746094 261.269531 C 296.957031 261 298.667969 261 305.417969 261 L 305.867188 260.460938 M 290.566406 223.828125 C 290.65625 235.800781 290.566406 238.140625 290.296875 249.03125 C 288.496094 250.109375 286.695312 251.191406 284.175781 251.191406 C 275.445312 251.191406 275.445312 240.03125 275.445312 238.230469 C 275.445312 231.300781 277.425781 223.558594 287.507812 223.558594 C 288.496094 223.558594 289.308594 223.648438 290.566406 223.828125 Z M 371.75 260.371094 C 375.351562 246.421875 375.980469 244.261719 381.378906 224.910156 C 382.460938 221.21875 383.449219 217.441406 384.441406 213.75 L 383.902344 213.03125 L 372.199219 213.300781 L 371.570312 213.929688 L 368.960938 227.429688 L 366.441406 238.320312 L 364.730469 246.601562 L 363.199219 238.589844 L 361.21875 229.230469 L 358.070312 213.660156 L 357.53125 213.03125 L 340.25 213.300781 L 339.621094 213.929688 L 336.652344 228.691406 L 334.492188 238.589844 L 332.78125 246.871094 L 331.070312 237.960938 L 328.910156 228.238281 L 325.851562 213.300781 L 325.308594 212.851562 L 310.730469 213.929688 L 310.191406 214.648438 C 318.652344 244.351562 320 249.660156 322.519531 260.730469 L 323.152344 261.269531 C 329.359375 261 331.609375 260.910156 339.890625 261 L 340.429688 260.371094 L 342.769531 249.390625 L 345.289062 238.5 L 347.539062 227.609375 L 348.890625 234.449219 L 350.242188 241.109375 L 354.019531 260.640625 L 354.652344 261.269531 C 361.308594 261 364.011719 260.910156 371.210938 261 Z M 435.019531 237.058594 C 435.019531 233.550781 435.019531 218.96875 422.417969 214.019531 C 418.457031 212.488281 413.777344 212.308594 411.4375 212.308594 C 395.777344 212.308594 386.957031 220.679688 386.957031 237.238281 C 386.957031 243 387.859375 248.851562 391.1875 253.710938 C 393.527344 257.21875 397.9375 262.078125 410.808594 262.078125 C 429.886719 262.078125 435.019531 250.558594 435.019531 237.058594 M 419.449219 236.96875 C 419.449219 244.351562 418.457031 252.539062 410.988281 252.539062 C 408.648438 252.539062 407.027344 251.460938 405.949219 250.46875 C 404.417969 248.941406 402.707031 245.878906 402.707031 237.148438 C 402.707031 234.539062 402.707031 228.78125 404.507812 225.628906 C 405.859375 223.199219 408.199219 221.578125 411.078125 221.578125 C 413.597656 221.578125 415.667969 222.929688 416.839844 224.371094 C 419 226.980469 419.449219 232.109375 419.449219 236.96875 Z M 489.378906 237.058594 C 489.378906 233.550781 489.378906 218.96875 476.777344 214.019531 C 472.816406 212.488281 468.136719 212.308594 465.796875 212.308594 C 450.136719 212.308594 441.316406 220.679688 441.316406 237.238281 C 441.316406 243 442.21875 248.851562 445.546875 253.710938 C 447.886719 257.21875 452.296875 262.078125 465.167969 262.078125 C 484.246094 262.078125 489.378906 250.558594 489.378906 237.058594 M 473.808594 236.96875 C 473.808594 244.351562 472.816406 252.539062 465.347656 252.539062 C 463.007812 252.539062 461.386719 251.460938 460.308594 250.46875 C 458.777344 248.941406 457.066406 245.878906 457.066406 237.148438 C 457.066406 234.539062 457.066406 228.78125 458.867188 225.628906 C 460.21875 223.199219 462.558594 221.578125 465.4375 221.578125 C 467.957031 221.578125 470.027344 222.929688 471.199219 224.371094 C 473.359375 226.980469 473.808594 232.109375 473.808594 236.96875 Z M 542.027344 260.460938 C 541.667969 252.359375 541.398438 246.960938 541.398438 235.171875 C 541.398438 211.410156 541.757812 201.601562 542.117188 189.71875 L 541.488281 189.179688 L 526.636719 191.519531 L 526.1875 192.058594 C 526.726562 200.519531 526.816406 202.769531 526.726562 213.03125 C 519.976562 212.851562 511.515625 212.671875 504.675781 218.070312 C 498.378906 222.929688 495.765625 230.398438 495.765625 239.671875 C 495.765625 246.691406 497.65625 253.710938 502.96875 258.121094 C 506.925781 261.359375 511.789062 262.078125 514.757812 262.078125 C 521.148438 262.078125 524.476562 259.109375 526.636719 257.21875 L 526.457031 260.730469 L 526.90625 261.269531 C 533.117188 261 534.828125 261 541.578125 261 L 542.027344 260.460938 M 526.726562 223.828125 C 526.816406 235.800781 526.726562 238.140625 526.457031 249.03125 C 524.65625 250.109375 522.855469 251.191406 520.335938 251.191406 C 511.605469 251.191406 511.605469 240.03125 511.605469 238.230469 C 511.605469 231.300781 513.585938 223.558594 523.667969 223.558594 C 524.65625 223.558594 525.46875 223.648438 526.726562 223.828125 Z M 571.191406 229.949219 C 568.128906 228.871094 565.699219 227.878906 565.699219 225.359375 C 565.699219 224.28125 566.421875 221.308594 572 221.308594 C 577.492188 221.308594 581 223.648438 583.25 225.089844 L 584.0625 224.820312 L 584.960938 215.011719 L 584.511719 214.46875 C 580.28125 213.300781 576.589844 212.21875 570.742188 212.21875 C 566.332031 212.21875 557.511719 212.578125 552.832031 219.328125 C 551.660156 220.949219 550.402344 223.648438 550.402344 227.25 C 550.402344 236.878906 557.871094 239.761719 562.101562 241.378906 L 565.519531 242.640625 C 567.949219 243.449219 571.910156 244.800781 571.910156 248.039062 C 571.910156 250.289062 569.839844 252.71875 564.800781 252.71875 C 562.28125 252.71875 558.589844 251.910156 555.261719 250.199219 C 553.730469 249.390625 553.011719 248.761719 551.660156 247.679688 L 550.851562 248.039062 C 550.671875 252.71875 550.582031 253.710938 550.21875 258.210938 L 550.671875 259.019531 C 555.082031 260.640625 558.859375 262.078125 565.429688 262.078125 C 572.269531 262.078125 585.769531 260.820312 587.390625 247.949219 C 587.480469 247.230469 587.480469 246.601562 587.480469 245.96875 C 587.480469 236.070312 580.550781 233.460938 575.601562 231.570312 Z M 647.6875 222.300781 C 640.128906 219.148438 636.167969 217.53125 636.167969 213.480469 C 636.167969 210.691406 638.777344 207.179688 644.71875 207.179688 C 651.558594 207.179688 655.605469 209.96875 658.9375 212.21875 L 659.746094 211.859375 L 660.46875 200.070312 L 660.015625 199.441406 C 656.148438 197.820312 652.097656 196.109375 643.367188 196.109375 C 626.449219 196.109375 620.597656 205.648438 620.597656 215.28125 C 620.597656 226.171875 629.058594 230.128906 634.097656 232.558594 L 637.066406 233.910156 C 643.277344 236.519531 648.046875 238.769531 648.046875 243.539062 C 648.046875 246.960938 645.078125 251.011719 637.246094 251.011719 C 629.058594 251.011719 624.46875 247.410156 621.855469 245.339844 L 620.957031 245.609375 L 620.328125 258.300781 L 620.867188 259.019531 C 621.855469 259.378906 622.847656 259.828125 623.835938 260.101562 C 625.90625 260.820312 631.21875 262.351562 637.96875 262.351562 C 640.667969 262.351562 647.507812 262.078125 652.90625 259.558594 C 660.46875 255.871094 663.707031 249.03125 663.707031 241.378906 C 663.707031 236.25 661.726562 230.761719 656.957031 227.070312 C 654.527344 225.269531 652.1875 224.191406 650.027344 223.199219 Z M 697.460938 250.648438 C 695.929688 251.101562 694.847656 251.460938 693.320312 251.460938 C 688.730469 251.460938 688.371094 248.578125 688.1875 247.230469 C 687.917969 244.890625 687.917969 239.941406 688.007812 236.339844 L 688.1875 223.648438 L 696.289062 224.011719 L 696.828125 223.46875 L 697.730469 213.839844 L 697.1875 213.300781 L 688.1875 213.300781 L 688.460938 198.179688 L 687.828125 197.640625 C 681.710938 199.441406 680.089844 199.890625 673.699219 201.511719 L 673.339844 202.140625 L 673.429688 213.390625 L 668.570312 213.210938 L 668.03125 213.660156 L 667.21875 223.289062 L 667.757812 223.828125 L 673.429688 223.648438 L 673.160156 237.960938 C 673.070312 240.210938 672.980469 242.460938 672.980469 244.800781 C 672.980469 253.078125 673.160156 261.988281 687.199219 261.988281 C 690.710938 261.988281 693.5 261.449219 696.648438 260.910156 L 697.28125 260.28125 L 698.179688 251.011719 Z M 744.167969 234.179688 C 744.257812 226.078125 744.257812 222.570312 741.917969 218.789062 C 740.117188 215.910156 736.519531 212.308594 725 212.308594 C 717.257812 212.308594 712.488281 213.75 707.359375 215.28125 L 706.820312 216 L 706.367188 225.808594 L 707.089844 226.171875 C 710.238281 224.910156 716.089844 222.570312 722.117188 222.570312 C 725.449219 222.570312 726.796875 223.109375 727.96875 224.28125 C 728.867188 225.179688 729.140625 226.800781 729.140625 228.148438 C 718.339844 229.589844 713.296875 230.578125 707.898438 233.910156 C 702.859375 237.058594 701.148438 242.191406 701.148438 246.238281 C 701.148438 255.871094 708.078125 262.078125 716.898438 262.078125 C 723.648438 262.078125 727.519531 258.839844 729.410156 257.308594 L 729.410156 260.640625 L 729.949219 261.269531 C 736.429688 261 738.410156 260.910156 744.257812 261 L 744.707031 260.371094 C 744.078125 251.550781 744.078125 249.300781 744.078125 240.839844 L 744.167969 234.179688 M 729.320312 248.488281 C 727.429688 249.570312 725 250.828125 722.027344 250.828125 C 718.789062 250.828125 716.089844 249.121094 716.089844 245.339844 C 716.089844 239.398438 723.199219 238.410156 729.320312 237.601562 Z M 779.902344 250.648438 C 778.371094 251.101562 777.289062 251.460938 775.761719 251.460938 C 771.171875 251.460938 770.8125 248.578125 770.628906 247.230469 C 770.359375 244.890625 770.359375 239.941406 770.449219 236.339844 L 770.628906 223.648438 L 778.730469 224.011719 L 779.269531 223.46875 L 780.171875 213.839844 L 779.628906 213.300781 L 770.628906 213.300781 L 770.902344 198.179688 L 770.269531 197.640625 C 764.152344 199.441406 762.53125 199.890625 756.140625 201.511719 L 755.78125 202.140625 L 755.871094 213.390625 L 751.011719 213.210938 L 750.472656 213.660156 L 749.660156 223.289062 L 750.199219 223.828125 L 755.871094 223.648438 L 755.601562 237.960938 C 755.511719 240.210938 755.421875 242.460938 755.421875 244.800781 C 755.421875 253.078125 755.601562 261.988281 769.640625 261.988281 C 773.152344 261.988281 775.941406 261.449219 779.089844 260.910156 L 779.722656 260.28125 L 780.621094 251.011719 Z M 826.519531 247.679688 C 823.101562 249.480469 819.050781 251.550781 812.480469 251.550781 C 807.082031 251.550781 803.390625 249.839844 801.230469 246.601562 C 799.878906 244.710938 799.609375 242.910156 799.25 241.109375 L 828.320312 240.570312 L 828.859375 239.941406 C 828.769531 235.53125 828.679688 231.03125 827.421875 226.53125 C 824.269531 215.910156 817.339844 213.75 814.28125 213.03125 C 812.03125 212.398438 809.960938 212.21875 807.890625 212.21875 C 793.761719 212.21875 784.398438 221.488281 784.398438 237.058594 C 784.398438 241.289062 785.121094 245.699219 786.558594 248.851562 C 791.78125 261 804.019531 262.078125 810.5 262.078125 C 817.96875 262.078125 821.210938 260.730469 825.980469 258.839844 L 826.519531 258.121094 L 827.148438 247.949219 L 826.519531 247.679688 M 799.25 231.570312 C 799.519531 228.78125 800.148438 225 803.570312 222.839844 C 804.648438 222.121094 805.910156 221.851562 807.171875 221.851562 C 810.140625 221.851562 811.941406 223.378906 812.929688 225 C 814.191406 226.980469 814.28125 229.140625 814.28125 231.210938 Z M 831.738281 261 "/>
<path fill-rule="nonzero" fill="rgb(34.901961%, 14.901961%, 14.901961%)" fill-opacity="1" d="M 215.597656 317.191406 C 209.929688 317.460938 208.398438 317.550781 202.820312 317.460938 L 202.371094 318 L 203 330.148438 L 203.359375 342.570312 L 203.71875 357.421875 C 201.109375 353.011719 200.660156 352.289062 196.070312 345.449219 L 187.878906 333.480469 C 181.128906 323.21875 179.78125 321.238281 177.53125 317.640625 L 176.898438 317.191406 C 169.789062 317.550781 168.621094 317.550781 162.050781 317.460938 L 161.597656 318 C 162.050781 331.949219 162.320312 342.300781 162.320312 354.359375 C 162.320312 363.179688 162.140625 372 162.050781 380.730469 L 162.5 381.269531 C 168.53125 381 170.417969 381 175.640625 381 L 176.089844 380.460938 L 175.1875 360.75 L 174.917969 349.679688 L 174.378906 337.621094 C 178.609375 344.640625 180.050781 346.980469 186.167969 355.890625 L 195.167969 369.121094 L 203.179688 380.820312 L 203.808594 381.269531 C 209.300781 381 210.917969 381 215.6875 381 L 216.140625 380.550781 C 216.050781 367.5 215.960938 358.679688 215.960938 347.878906 C 215.960938 337.800781 216.050781 327.808594 216.140625 317.730469 Z M 267.167969 354.179688 C 267.257812 346.078125 267.257812 342.570312 264.917969 338.789062 C 263.117188 335.910156 259.519531 332.308594 248 332.308594 C 240.257812 332.308594 235.488281 333.75 230.359375 335.28125 L 229.820312 336 L 229.367188 345.808594 L 230.089844 346.171875 C 233.238281 344.910156 239.089844 342.570312 245.117188 342.570312 C 248.449219 342.570312 249.796875 343.109375 250.96875 344.28125 C 251.867188 345.179688 252.140625 346.800781 252.140625 348.148438 C 241.339844 349.589844 236.296875 350.578125 230.898438 353.910156 C 225.859375 357.058594 224.148438 362.191406 224.148438 366.238281 C 224.148438 375.871094 231.078125 382.078125 239.898438 382.078125 C 246.648438 382.078125 250.519531 378.839844 252.410156 377.308594 L 252.410156 380.640625 L 252.949219 381.269531 C 259.429688 381 261.410156 380.910156 267.257812 381 L 267.707031 380.371094 C 267.078125 371.550781 267.078125 369.300781 267.078125 360.839844 L 267.167969 354.179688 M 252.320312 368.488281 C 250.429688 369.570312 248 370.828125 245.027344 370.828125 C 241.789062 370.828125 239.089844 369.121094 239.089844 365.339844 C 239.089844 359.398438 246.199219 358.410156 252.320312 357.601562 Z M 302.902344 370.648438 C 301.371094 371.101562 300.289062 371.460938 298.761719 371.460938 C 294.171875 371.460938 293.8125 368.578125 293.628906 367.230469 C 293.359375 364.890625 293.359375 359.941406 293.449219 356.339844 L 293.628906 343.648438 L 301.730469 344.011719 L 302.269531 343.46875 L 303.171875 333.839844 L 302.628906 333.300781 L 293.628906 333.300781 L 293.902344 318.179688 L 293.269531 317.640625 C 287.152344 319.441406 285.53125 319.890625 279.140625 321.511719 L 278.78125 322.140625 L 278.871094 333.390625 L 274.011719 333.210938 L 273.472656 333.660156 L 272.660156 343.289062 L 273.199219 343.828125 L 278.871094 343.648438 L 278.601562 357.960938 C 278.511719 360.210938 278.421875 362.460938 278.421875 364.800781 C 278.421875 373.078125 278.601562 381.988281 292.640625 381.988281 C 296.152344 381.988281 298.941406 381.449219 302.089844 380.910156 L 302.722656 380.28125 L 303.621094 371.011719 Z M 352.761719 332.851562 L 338.089844 333.570312 L 337.460938 334.109375 C 338.089844 344.28125 338.089844 358.679688 338.089844 360.121094 C 338.089844 362.730469 338.089844 364.171875 338 367.769531 C 335.570312 369.390625 333.679688 370.738281 331.25 370.738281 C 324.769531 370.738281 324.769531 363.898438 324.769531 358.589844 C 324.769531 356.339844 324.769531 354 324.859375 351.75 L 325.039062 333.570312 L 324.410156 332.851562 L 309.558594 333.570312 L 308.929688 334.109375 C 309.46875 341.671875 309.558594 344.191406 309.558594 353.28125 L 309.558594 359.578125 C 309.46875 369.390625 309.921875 373.53125 313.160156 377.308594 C 316.128906 380.640625 320.449219 382.078125 324.949219 382.078125 C 331.339844 382.078125 335.03125 379.199219 338.269531 376.679688 L 338.179688 380.730469 L 338.808594 381.269531 C 345.378906 381 347.359375 381 353.210938 381 L 353.75 380.460938 C 353.300781 374.070312 353.121094 370.648438 353.121094 358.949219 C 353.121094 350.488281 353.210938 342.03125 353.390625 333.570312 Z M 389.929688 347.609375 L 392.449219 332.941406 L 391.910156 332.308594 C 391.28125 332.308594 390.648438 332.21875 390.019531 332.21875 C 386.328125 332.21875 382.191406 334.289062 379.308594 340.949219 L 379.578125 332.671875 L 378.859375 331.949219 C 372.199219 333.390625 370.488281 333.660156 363.917969 334.648438 L 363.378906 335.191406 C 363.917969 341.941406 364.191406 345.988281 364.191406 358.5 C 364.191406 365.878906 364.097656 373.261719 363.917969 380.730469 L 364.460938 381.269531 C 371.121094 381 372.558594 380.910156 379.757812 381 L 380.210938 380.371094 C 379.847656 373.078125 379.308594 362.910156 379.308594 356.699219 C 379.308594 352.648438 379.308594 346.710938 385.429688 346.710938 C 386.960938 346.710938 387.859375 347.25 389.121094 347.96875 Z M 437.71875 354.179688 C 437.808594 346.078125 437.808594 342.570312 435.46875 338.789062 C 433.667969 335.910156 430.070312 332.308594 418.550781 332.308594 C 410.808594 332.308594 406.039062 333.75 400.910156 335.28125 L 400.371094 336 L 399.917969 345.808594 L 400.640625 346.171875 C 403.789062 344.910156 409.640625 342.570312 415.667969 342.570312 C 419 342.570312 420.347656 343.109375 421.519531 344.28125 C 422.417969 345.179688 422.691406 346.800781 422.691406 348.148438 C 411.890625 349.589844 406.847656 350.578125 401.449219 353.910156 C 396.410156 357.058594 394.699219 362.191406 394.699219 366.238281 C 394.699219 375.871094 401.628906 382.078125 410.449219 382.078125 C 417.199219 382.078125 421.070312 378.839844 422.960938 377.308594 L 422.960938 380.640625 L 423.5 381.269531 C 429.980469 381 431.960938 380.910156 437.808594 381 L 438.257812 380.371094 C 437.628906 371.550781 437.628906 369.300781 437.628906 360.839844 L 437.71875 354.179688 M 422.871094 368.488281 C 420.980469 369.570312 418.550781 370.828125 415.578125 370.828125 C 412.339844 370.828125 409.640625 369.121094 409.640625 365.339844 C 409.640625 359.398438 416.75 358.410156 422.871094 357.601562 Z M 464.085938 380.371094 C 463.636719 370.019531 463.1875 360.570312 463.1875 332.128906 C 463.1875 323.578125 463.277344 319.53125 463.636719 309.808594 L 463.007812 309.179688 L 447.617188 311.609375 L 447.257812 312.148438 C 448.15625 323.128906 448.246094 326.101562 448.425781 340.679688 C 448.519531 345.988281 448.519531 351.300781 448.519531 356.609375 C 448.519531 366.328125 448.335938 371.730469 447.976562 380.640625 L 448.519531 381.269531 C 454.546875 381 456.976562 380.910156 463.546875 381 Z M 521.148438 356.25 C 527.179688 366.511719 528.53125 369.210938 534.289062 381 L 535.011719 381.449219 C 537.800781 381.269531 540.5 381.089844 543.289062 381 C 546.082031 380.910156 548.960938 380.820312 551.75 380.820312 L 552.289062 379.738281 C 548.871094 375.328125 547.878906 373.980469 541.398438 363.628906 C 538.519531 359.039062 537.082031 356.609375 534.832031 352.648438 C 538.878906 350.851562 547.070312 347.070312 547.070312 335.640625 C 547.070312 331.679688 545.988281 323.488281 538.609375 319.621094 C 533.929688 317.191406 529.070312 317.101562 518.539062 317.28125 L 512.238281 317.371094 L 501.261719 317.371094 L 500.808594 317.910156 C 501.171875 327 501.53125 336.359375 501.53125 360.839844 C 501.53125 369.210938 501.441406 373.261719 501.171875 380.730469 L 501.710938 381.269531 C 508.28125 381 509.71875 380.910156 517.101562 381 L 517.640625 380.460938 C 516.921875 370.019531 516.832031 367.140625 516.738281 356.429688 L 521.148438 356.25 M 516.921875 328.261719 C 518.179688 328.171875 519.441406 328.171875 520.699219 328.171875 C 524.210938 328.171875 531.140625 328.171875 531.140625 336.089844 C 531.140625 338.609375 530.511719 341.941406 527.179688 344.011719 C 524.660156 345.539062 521.421875 345.71875 516.921875 345.808594 Z M 597.019531 367.679688 C 593.601562 369.480469 589.550781 371.550781 582.980469 371.550781 C 577.582031 371.550781 573.890625 369.839844 571.730469 366.601562 C 570.378906 364.710938 570.109375 362.910156 569.75 361.109375 L 598.820312 360.570312 L 599.359375 359.941406 C 599.269531 355.53125 599.179688 351.03125 597.921875 346.53125 C 594.769531 335.910156 587.839844 333.75 584.78125 333.03125 C 582.53125 332.398438 580.460938 332.21875 578.390625 332.21875 C 564.261719 332.21875 554.898438 341.488281 554.898438 357.058594 C 554.898438 361.289062 555.621094 365.699219 557.058594 368.851562 C 562.28125 381 574.519531 382.078125 581 382.078125 C 588.46875 382.078125 591.710938 380.730469 596.480469 378.839844 L 597.019531 378.121094 L 597.648438 367.949219 L 597.019531 367.679688 M 569.75 351.570312 C 570.019531 348.78125 570.648438 345 574.070312 342.839844 C 575.148438 342.121094 576.410156 341.851562 577.671875 341.851562 C 580.640625 341.851562 582.441406 343.378906 583.429688 345 C 584.691406 346.980469 584.78125 349.140625 584.78125 351.210938 Z M 626.539062 349.949219 C 623.476562 348.871094 621.046875 347.878906 621.046875 345.359375 C 621.046875 344.28125 621.769531 341.308594 627.347656 341.308594 C 632.839844 341.308594 636.347656 343.648438 638.597656 345.089844 L 639.410156 344.820312 L 640.308594 335.011719 L 639.859375 334.46875 C 635.628906 333.300781 631.9375 332.21875 626.089844 332.21875 C 621.679688 332.21875 612.859375 332.578125 608.179688 339.328125 C 607.007812 340.949219 605.75 343.648438 605.75 347.25 C 605.75 356.878906 613.21875 359.761719 617.449219 361.378906 L 620.867188 362.640625 C 623.296875 363.449219 627.257812 364.800781 627.257812 368.039062 C 627.257812 370.289062 625.1875 372.71875 620.148438 372.71875 C 617.628906 372.71875 613.9375 371.910156 610.609375 370.199219 C 609.078125 369.390625 608.359375 368.761719 607.007812 367.679688 L 606.199219 368.039062 C 606.019531 372.71875 605.929688 373.710938 605.566406 378.210938 L 606.019531 379.019531 C 610.429688 380.640625 614.207031 382.078125 620.777344 382.078125 C 627.617188 382.078125 641.117188 380.820312 642.738281 367.949219 C 642.828125 367.230469 642.828125 366.601562 642.828125 365.96875 C 642.828125 356.070312 635.898438 353.460938 630.949219 351.570312 Z M 690.707031 367.679688 C 687.289062 369.480469 683.238281 371.550781 676.667969 371.550781 C 671.269531 371.550781 667.578125 369.839844 665.417969 366.601562 C 664.066406 364.710938 663.796875 362.910156 663.4375 361.109375 L 692.507812 360.570312 L 693.046875 359.941406 C 692.957031 355.53125 692.867188 351.03125 691.609375 346.53125 C 688.457031 335.910156 681.527344 333.75 678.46875 333.03125 C 676.21875 332.398438 674.148438 332.21875 672.078125 332.21875 C 657.949219 332.21875 648.585938 341.488281 648.585938 357.058594 C 648.585938 361.289062 649.308594 365.699219 650.746094 368.851562 C 655.96875 381 668.207031 382.078125 674.6875 382.078125 C 682.15625 382.078125 685.398438 380.730469 690.167969 378.839844 L 690.707031 378.121094 L 691.335938 367.949219 L 690.707031 367.679688 M 663.4375 351.570312 C 663.707031 348.78125 664.335938 345 667.757812 342.839844 C 668.835938 342.121094 670.097656 341.851562 671.359375 341.851562 C 674.328125 341.851562 676.128906 343.378906 677.117188 345 C 678.378906 346.980469 678.46875 349.140625 678.46875 351.210938 Z M 727.339844 347.609375 L 729.859375 332.941406 L 729.320312 332.308594 C 728.691406 332.308594 728.058594 332.21875 727.429688 332.21875 C 723.738281 332.21875 719.601562 334.289062 716.71875 340.949219 L 716.988281 332.671875 L 716.269531 331.949219 C 709.609375 333.390625 707.898438 333.660156 701.328125 334.648438 L 700.789062 335.191406 C 701.328125 341.941406 701.601562 345.988281 701.601562 358.5 C 701.601562 365.878906 701.507812 373.261719 701.328125 380.730469 L 701.871094 381.269531 C 708.53125 381 709.96875 380.910156 717.167969 381 L 717.621094 380.371094 C 717.257812 373.078125 716.71875 362.910156 716.71875 356.699219 C 716.71875 352.648438 716.71875 346.710938 722.839844 346.710938 C 724.371094 346.710938 725.269531 347.25 726.53125 347.96875 Z M 759.917969 380.28125 C 762.800781 371.28125 764.507812 365.699219 766.398438 360.03125 C 768.828125 352.738281 772.789062 341.039062 775.308594 333.660156 L 774.859375 333.03125 L 762.257812 333.300781 L 761.628906 333.929688 C 760.371094 339.960938 760.101562 341.21875 758.300781 348.238281 L 753.710938 365.96875 L 751.460938 356.25 L 749.75 349.320312 C 747.5 340.949219 747.140625 339.238281 745.878906 333.300781 L 745.25 332.761719 C 738.140625 333.570312 736.339844 333.660156 729.5 333.75 L 729.140625 334.46875 C 741.109375 369.929688 742.101562 373.261719 744.078125 380.640625 L 744.710938 381.269531 C 750.558594 381 752.898438 380.910156 759.378906 381 Z M 820.039062 367.679688 C 816.621094 369.480469 812.570312 371.550781 806 371.550781 C 800.601562 371.550781 796.910156 369.839844 794.75 366.601562 C 793.398438 364.710938 793.128906 362.910156 792.769531 361.109375 L 821.839844 360.570312 L 822.378906 359.941406 C 822.289062 355.53125 822.199219 351.03125 820.941406 346.53125 C 817.789062 335.910156 810.859375 333.75 807.800781 333.03125 C 805.550781 332.398438 803.480469 332.21875 801.410156 332.21875 C 787.28125 332.21875 777.917969 341.488281 777.917969 357.058594 C 777.917969 361.289062 778.640625 365.699219 780.078125 368.851562 C 785.300781 381 797.539062 382.078125 804.019531 382.078125 C 811.488281 382.078125 814.730469 380.730469 819.5 378.839844 L 820.039062 378.121094 L 820.667969 367.949219 L 820.039062 367.679688 M 792.769531 351.570312 C 793.039062 348.78125 793.667969 345 797.089844 342.839844 C 798.167969 342.121094 799.429688 341.851562 800.691406 341.851562 C 803.660156 341.851562 805.460938 343.378906 806.449219 345 C 807.710938 346.980469 807.800781 349.140625 807.800781 351.210938 Z M 825.257812 381 "/>
</svg>
