<?xml version="1.0" encoding="UTF-8"?>
<svg xmlns="http://www.w3.org/2000/svg" xmlns:xlink="http://www.w3.org/1999/xlink" width="975" height="1300" viewBox="0 0 975 1300">
<path fill-rule="nonzero" fill="rgb(98.823529%, 78.823529%, 9.019608%)" fill-opacity="1" d="M 50 50 L 925 50 L 925 410 L 50 410 Z M 50 50 "/>
<path fill-rule="nonzero" fill="rgb(34.901961%, 14.901961%, 14.901961%)" fill-opacity="1" d="M 107.554688 116.25 C 113.585938 126.511719 114.9375 129.210938 120.695312 141 L 121.417969 141.449219 C 124.207031 141.269531 126.90625 141.089844 129.695312 141 C 132.488281 140.910156 135.367188 140.820312 138.15625 140.820312 L 138.695312 139.738281 C 135.277344 135.328125 134.285156 133.980469 127.804688 123.628906 C 124.925781 119.039062 123.488281 116.609375 121.238281 112.648438 C 125.285156 110.851562 133.476562 107.070312 133.476562 95.640625 C 133.476562 91.679688 132.394531 83.488281 125.015625 79.621094 C 120.335938 77.191406 115.476562 77.101562 104.945312 77.28125 L 98.644531 77.371094 L 87.667969 77.371094 L 87.214844 77.910156 C 87.578125 87 87.9375 96.359375 87.9375 120.839844 C 87.9375 129.210938 87.847656 133.261719 87.578125 140.730469 L 88.117188 141.269531 C 94.6875 141 96.125 140.910156 103.507812 141 L 104.046875 140.460938 C 103.328125 130.019531 103.238281 127.140625 103.144531 116.429688 L 107.554688 116.25 M 103.328125 88.261719 C 104.585938 88.171875 105.847656 88.171875 107.105469 88.171875 C 110.617188 88.171875 117.546875 88.171875 117.546875 96.089844 C 117.546875 98.609375 116.917969 101.941406 113.585938 104.011719 C 111.066406 105.539062 107.828125 105.71875 103.328125 105.808594 Z M 183.515625 114.179688 C 183.605469 106.078125 183.605469 102.570312 181.265625 98.789062 C 179.464844 95.910156 175.867188 92.308594 164.347656 92.308594 C 156.605469 92.308594 151.835938 93.75 146.707031 95.28125 L 146.167969 96 L 145.714844 105.808594 L 146.4375 106.171875 C 149.585938 104.910156 155.4375 102.570312 161.464844 102.570312 C 164.796875 102.570312 166.144531 103.109375 167.316406 104.28125 C 168.214844 105.179688 168.488281 106.800781 168.488281 108.148438 C 157.6875 109.589844 152.644531 110.578125 147.246094 113.910156 C 142.207031 117.058594 140.496094 122.191406 140.496094 126.238281 C 140.496094 135.871094 147.425781 142.078125 156.246094 142.078125 C 162.996094 142.078125 166.867188 138.839844 168.757812 137.308594 L 168.757812 140.640625 L 169.296875 141.269531 C 175.777344 141 177.757812 140.910156 183.605469 141 L 184.054688 140.371094 C 183.425781 131.550781 183.425781 129.300781 183.425781 120.839844 L 183.515625 114.179688 M 168.667969 128.488281 C 166.777344 129.570312 164.347656 130.828125 161.375 130.828125 C 158.136719 130.828125 155.4375 129.121094 155.4375 125.339844 C 155.4375 119.398438 162.546875 118.410156 168.667969 117.601562 Z M 238.144531 140.371094 C 237.695312 132.449219 237.695312 129.929688 237.515625 121.109375 L 237.515625 114.089844 C 237.425781 105.449219 237.335938 101.308594 235.085938 97.621094 C 232.292969 92.941406 227.164062 92.21875 223.925781 92.21875 C 218.433594 92.21875 213.664062 95.101562 209.523438 97.53125 L 209.703125 92.578125 L 208.804688 91.949219 C 201.875 93.390625 200.34375 93.660156 193.59375 94.558594 L 193.054688 95.191406 C 193.773438 103.019531 194.316406 108.691406 194.316406 123.359375 C 194.316406 129.121094 194.222656 134.878906 194.132812 140.640625 L 194.675781 141.179688 C 201.15625 140.910156 202.503906 140.910156 209.703125 140.910156 L 210.246094 140.371094 C 209.703125 126.511719 209.613281 123 209.523438 106.890625 C 211.414062 105.628906 213.574219 104.101562 216.453125 104.101562 C 221.40625 104.101562 221.855469 109.410156 222.125 112.648438 C 222.304688 115.621094 222.394531 127.949219 222.394531 131.371094 C 222.394531 134.429688 222.304688 137.578125 222.304688 140.640625 L 222.84375 141.179688 C 228.785156 141 230.316406 140.910156 237.515625 140.910156 Z M 283.597656 128.039062 C 281.167969 129.480469 278.828125 130.921875 274.238281 130.921875 C 264.066406 130.921875 261.996094 122.460938 261.996094 117.058594 C 261.996094 110.488281 264.878906 102.929688 273.609375 102.929688 C 277.566406 102.929688 279.726562 104.371094 282.429688 106.171875 L 283.328125 105.898438 C 283.6875 101.128906 283.777344 99.871094 284.496094 95.101562 L 284.046875 94.558594 C 280.085938 93.300781 276.667969 92.21875 271.449219 92.21875 C 250.296875 92.21875 246.15625 108.238281 246.15625 117.421875 C 246.15625 127.769531 251.558594 141.808594 271.808594 141.808594 C 276.578125 141.808594 279.636719 140.910156 283.417969 139.828125 L 283.957031 139.289062 L 284.316406 128.488281 Z M 335.617188 140.371094 C 335.257812 132.988281 335.167969 130.46875 334.988281 121.109375 L 334.988281 114.359375 C 334.898438 105.808594 334.808594 100.859375 332.195312 97.078125 C 329.585938 93.390625 325.808594 92.21875 321.847656 92.21875 C 315.277344 92.21875 310.148438 95.371094 306.546875 97.53125 L 306.816406 69.808594 L 306.277344 69.179688 L 290.886719 71.609375 L 290.4375 72.148438 C 291.246094 80.878906 291.425781 84.121094 291.605469 95.730469 C 291.789062 103.019531 291.878906 110.308594 291.878906 117.601562 C 291.878906 126.511719 291.695312 131.820312 291.515625 140.640625 L 291.96875 141.269531 C 298.628906 140.910156 299.976562 140.910156 307.265625 140.910156 L 307.808594 140.371094 C 307.175781 126.871094 307.085938 122.820312 306.996094 106.890625 C 308.707031 105.71875 310.867188 104.191406 313.925781 104.191406 C 318.878906 104.191406 319.238281 109.320312 319.597656 112.921875 C 319.777344 115.710938 319.867188 128.488281 319.867188 131.820312 C 319.867188 134.789062 319.777344 137.671875 319.777344 140.640625 L 320.226562 141.269531 C 326.707031 140.910156 328.148438 140.910156 335.078125 140.910156 Z M 391.6875 117.058594 C 391.6875 113.550781 391.6875 98.96875 379.085938 94.019531 C 375.125 92.488281 370.445312 92.308594 368.105469 92.308594 C 352.445312 92.308594 343.625 100.679688 343.625 117.238281 C 343.625 123 344.527344 128.851562 347.855469 133.710938 C 350.195312 137.21875 354.605469 142.078125 367.476562 142.078125 C 386.554688 142.078125 391.6875 130.558594 391.6875 117.058594 M 376.117188 116.96875 C 376.117188 124.351562 375.125 132.539062 367.65625 132.539062 C 365.316406 132.539062 363.695312 131.460938 362.617188 130.46875 C 361.085938 128.941406 359.375 125.878906 359.375 117.148438 C 359.375 114.539062 359.375 108.78125 361.175781 105.628906 C 362.527344 103.199219 364.867188 101.578125 367.746094 101.578125 C 370.265625 101.578125 372.335938 102.929688 373.507812 104.371094 C 375.667969 106.980469 376.117188 112.109375 376.117188 116.96875 Z M 452.527344 102.300781 C 444.96875 99.148438 441.007812 97.53125 441.007812 93.480469 C 441.007812 90.691406 443.617188 87.179688 449.558594 87.179688 C 456.398438 87.179688 460.445312 89.96875 463.777344 92.21875 L 464.585938 91.859375 L 465.308594 80.070312 L 464.855469 79.441406 C 460.988281 77.820312 456.9375 76.109375 448.207031 76.109375 C 431.289062 76.109375 425.4375 85.648438 425.4375 95.28125 C 425.4375 106.171875 433.898438 110.128906 438.9375 112.558594 L 441.90625 113.910156 C 448.117188 116.519531 452.886719 118.769531 452.886719 123.539062 C 452.886719 126.960938 449.917969 131.011719 442.085938 131.011719 C 433.898438 131.011719 429.308594 127.410156 426.695312 125.339844 L 425.796875 125.609375 L 425.167969 138.300781 L 425.707031 139.019531 C 426.695312 139.378906 427.6875 139.828125 428.675781 140.101562 C 430.746094 140.820312 436.058594 142.351562 442.808594 142.351562 C 445.507812 142.351562 452.347656 142.078125 457.746094 139.558594 C 465.308594 135.871094 468.546875 129.03125 468.546875 121.378906 C 468.546875 116.25 466.566406 110.761719 461.796875 107.070312 C 459.367188 105.269531 457.027344 104.191406 454.867188 103.199219 Z M 517.144531 114.179688 C 517.234375 106.078125 517.234375 102.570312 514.894531 98.789062 C 513.09375 95.910156 509.496094 92.308594 497.976562 92.308594 C 490.234375 92.308594 485.464844 93.75 480.335938 95.28125 L 479.796875 96 L 479.34375 105.808594 L 480.066406 106.171875 C 483.214844 104.910156 489.066406 102.570312 495.09375 102.570312 C 498.425781 102.570312 499.773438 103.109375 500.945312 104.28125 C 501.84375 105.179688 502.117188 106.800781 502.117188 108.148438 C 491.316406 109.589844 486.273438 110.578125 480.875 113.910156 C 475.835938 117.058594 474.125 122.191406 474.125 126.238281 C 474.125 135.871094 481.054688 142.078125 489.875 142.078125 C 496.625 142.078125 500.496094 138.839844 502.386719 137.308594 L 502.386719 140.640625 L 502.925781 141.269531 C 509.40625 141 511.386719 140.910156 517.234375 141 L 517.683594 140.371094 C 517.054688 131.550781 517.054688 129.300781 517.054688 120.839844 L 517.144531 114.179688 M 502.296875 128.488281 C 500.40625 129.570312 497.976562 130.828125 495.003906 130.828125 C 491.765625 130.828125 489.066406 129.121094 489.066406 125.339844 C 489.066406 119.398438 496.175781 118.410156 502.296875 117.601562 Z M 571.777344 140.371094 C 571.328125 132.449219 571.328125 129.929688 571.148438 121.109375 L 571.148438 114.089844 C 571.058594 105.449219 570.96875 101.308594 568.71875 97.621094 C 565.925781 92.941406 560.796875 92.21875 557.558594 92.21875 C 552.066406 92.21875 547.296875 95.101562 543.15625 97.53125 L 543.335938 92.578125 L 542.4375 91.949219 C 535.507812 93.390625 533.976562 93.660156 527.226562 94.558594 L 526.6875 95.191406 C 527.40625 103.019531 527.949219 108.691406 527.949219 123.359375 C 527.949219 129.121094 527.855469 134.878906 527.765625 140.640625 L 528.308594 141.179688 C 534.789062 140.910156 536.136719 140.910156 543.335938 140.910156 L 543.878906 140.371094 C 543.335938 126.511719 543.246094 123 543.15625 106.890625 C 545.046875 105.628906 547.207031 104.101562 550.085938 104.101562 C 555.039062 104.101562 555.488281 109.410156 555.757812 112.648438 C 555.9375 115.621094 556.027344 127.949219 556.027344 131.371094 C 556.027344 134.429688 555.9375 137.578125 555.9375 140.640625 L 556.476562 141.179688 C 562.417969 141 563.949219 140.910156 571.148438 140.910156 Z M 644.679688 77.191406 C 636.039062 77.460938 634.238281 77.460938 624.609375 77.460938 L 623.976562 78 C 619.207031 93.300781 616.328125 102.390625 603.097656 140.371094 L 603.457031 141 L 617.496094 141 L 618.128906 140.460938 L 622.539062 124.078125 L 641.976562 124.078125 L 645.847656 140.730469 L 646.476562 141.269531 C 653.046875 141 654.847656 140.910156 662.136719 141 L 662.589844 140.28125 C 651.699219 101.761719 650.4375 97.53125 645.308594 77.730469 L 644.679688 77.191406 M 625.6875 113.191406 L 630.1875 97.980469 L 633.339844 87.449219 L 636.039062 99.148438 L 639.367188 113.191406 Z M 712.445312 140.371094 C 711.996094 132.449219 711.996094 129.929688 711.816406 121.109375 L 711.816406 114.089844 C 711.726562 105.449219 711.636719 101.308594 709.386719 97.621094 C 706.59375 92.941406 701.464844 92.21875 698.226562 92.21875 C 692.734375 92.21875 687.964844 95.101562 683.824219 97.53125 L 684.003906 92.578125 L 683.105469 91.949219 C 676.175781 93.390625 674.644531 93.660156 667.894531 94.558594 L 667.355469 95.191406 C 668.074219 103.019531 668.617188 108.691406 668.617188 123.359375 C 668.617188 129.121094 668.523438 134.878906 668.433594 140.640625 L 668.976562 141.179688 C 675.457031 140.910156 676.804688 140.910156 684.003906 140.910156 L 684.546875 140.371094 C 684.003906 126.511719 683.914062 123 683.824219 106.890625 C 685.714844 105.628906 687.875 104.101562 690.753906 104.101562 C 695.707031 104.101562 696.15625 109.410156 696.425781 112.648438 C 696.605469 115.621094 696.695312 127.949219 696.695312 131.371094 C 696.695312 134.429688 696.605469 137.578125 696.605469 140.640625 L 697.144531 141.179688 C 703.085938 141 704.617188 140.910156 711.816406 140.910156 Z M 766.804688 140.460938 C 766.445312 132.359375 766.175781 126.960938 766.175781 115.171875 C 766.175781 91.410156 766.535156 81.601562 766.894531 69.71875 L 766.265625 69.179688 L 751.414062 71.519531 L 750.964844 72.058594 C 751.503906 80.519531 751.59375 82.769531 751.503906 93.03125 C 744.753906 92.851562 736.292969 92.671875 729.453125 98.070312 C 723.15625 102.929688 720.542969 110.398438 720.542969 119.671875 C 720.542969 126.691406 722.433594 133.710938 727.746094 138.121094 C 731.703125 141.359375 736.566406 142.078125 739.535156 142.078125 C 745.925781 142.078125 749.253906 139.109375 751.414062 137.21875 L 751.234375 140.730469 L 751.683594 141.269531 C 757.894531 141 759.605469 141 766.355469 141 L 766.804688 140.460938 M 751.503906 103.828125 C 751.59375 115.800781 751.503906 118.140625 751.234375 129.03125 C 749.433594 130.109375 747.632812 131.191406 745.113281 131.191406 C 736.382812 131.191406 736.382812 120.03125 736.382812 118.230469 C 736.382812 111.300781 738.363281 103.558594 748.445312 103.558594 C 749.433594 103.558594 750.246094 103.648438 751.503906 103.828125 Z M 803.078125 107.609375 L 805.597656 92.941406 L 805.058594 92.308594 C 804.429688 92.308594 803.796875 92.21875 803.167969 92.21875 C 799.476562 92.21875 795.339844 94.289062 792.457031 100.949219 L 792.726562 92.671875 L 792.007812 91.949219 C 785.347656 93.390625 783.636719 93.660156 777.066406 94.648438 L 776.527344 95.191406 C 777.066406 101.941406 777.339844 105.988281 777.339844 118.5 C 777.339844 125.878906 777.246094 133.261719 777.066406 140.730469 L 777.609375 141.269531 C 784.269531 141 785.707031 140.910156 792.90625 141 L 793.359375 140.371094 C 792.996094 133.078125 792.457031 122.910156 792.457031 116.699219 C 792.457031 112.648438 792.457031 106.710938 798.578125 106.710938 C 800.109375 106.710938 801.007812 107.25 802.269531 107.96875 Z M 850.777344 127.679688 C 847.359375 129.480469 843.308594 131.550781 836.738281 131.550781 C 831.339844 131.550781 827.648438 129.839844 825.488281 126.601562 C 824.136719 124.710938 823.867188 122.910156 823.507812 121.109375 L 852.578125 120.570312 L 853.117188 119.941406 C 853.027344 115.53125 852.9375 111.03125 851.679688 106.53125 C 848.527344 95.910156 841.597656 93.75 838.539062 93.03125 C 836.289062 92.398438 834.21875 92.21875 832.148438 92.21875 C 818.019531 92.21875 808.65625 101.488281 808.65625 117.058594 C 808.65625 121.289062 809.378906 125.699219 810.816406 128.851562 C 816.039062 141 828.277344 142.078125 834.757812 142.078125 C 842.226562 142.078125 845.46875 140.730469 850.238281 138.839844 L 850.777344 138.121094 L 851.40625 127.949219 L 850.777344 127.679688 M 823.507812 111.570312 C 823.777344 108.78125 824.40625 105 827.828125 102.839844 C 828.90625 102.121094 830.167969 101.851562 831.429688 101.851562 C 834.398438 101.851562 836.199219 103.378906 837.1875 105 C 838.449219 106.980469 838.539062 109.140625 838.539062 111.210938 L 823.507812 111.570312 M 844.476562 71.519531 L 830.257812 71.699219 L 829.808594 72.148438 C 827.738281 79.171875 827.019531 80.96875 824.316406 87.179688 L 824.679688 87.71875 L 834.398438 87.71875 L 835.027344 87.359375 C 837.816406 82.769531 841.867188 76.558594 844.746094 72.148438 Z M 880.296875 109.949219 C 877.234375 108.871094 874.804688 107.878906 874.804688 105.359375 C 874.804688 104.28125 875.527344 101.308594 881.105469 101.308594 C 886.597656 101.308594 890.105469 103.648438 892.355469 105.089844 L 893.167969 104.820312 L 894.066406 95.011719 L 893.617188 94.46875 C 889.386719 93.300781 885.695312 92.21875 879.847656 92.21875 C 875.4375 92.21875 866.617188 92.578125 861.9375 99.328125 C 860.765625 100.949219 859.507812 103.648438 859.507812 107.25 C 859.507812 116.878906 866.976562 119.761719 871.207031 121.378906 L 874.625 122.640625 C 877.054688 123.449219 881.015625 124.800781 881.015625 128.039062 C 881.015625 130.289062 878.945312 132.71875 873.90625 132.71875 C 871.386719 132.71875 867.695312 131.910156 864.367188 130.199219 C 862.835938 129.390625 862.117188 128.761719 860.765625 127.679688 L 859.957031 128.039062 C 859.777344 132.71875 859.6875 133.710938 859.324219 138.210938 L 859.777344 139.019531 C 864.1875 140.640625 867.964844 142.078125 874.535156 142.078125 C 881.375 142.078125 894.875 140.820312 896.496094 127.949219 C 896.585938 127.230469 896.585938 126.601562 896.585938 125.96875 C 896.585938 116.070312 889.65625 113.460938 884.707031 111.570312 Z M 899.105469 141 "/>
<path fill-rule="nonzero" fill="rgb(34.901961%, 14.901961%, 14.901961%)" fill-opacity="1" d="M 148.1875 244.890625 C 146.117188 246.511719 141.527344 249.929688 134.058594 249.929688 C 123.796875 249.929688 116.597656 242.28125 116.597656 229.5 C 116.597656 221.761719 119.296875 208.171875 133.96875 208.171875 C 140.71875 208.171875 144.40625 210.78125 146.65625 212.488281 L 147.46875 212.308594 L 148.277344 199.890625 L 147.917969 199.441406 C 144.679688 198.179688 139.1875 196.109375 131.269531 196.109375 C 107.957031 196.109375 99.859375 214.109375 99.859375 229.859375 C 99.859375 247.140625 110.386719 262.351562 132.347656 262.351562 C 139.90625 262.351562 144.859375 260.371094 147.738281 259.199219 L 148.1875 258.660156 L 148.816406 245.25 Z M 195.886719 234.179688 C 195.976562 226.078125 195.976562 222.570312 193.636719 218.789062 C 191.835938 215.910156 188.238281 212.308594 176.71875 212.308594 C 168.976562 212.308594 164.207031 213.75 159.078125 215.28125 L 158.539062 216 L 158.085938 225.808594 L 158.808594 226.171875 C 161.957031 224.910156 167.808594 222.570312 173.835938 222.570312 C 177.167969 222.570312 178.515625 223.109375 179.6875 224.28125 C 180.585938 225.179688 180.859375 226.800781 180.859375 228.148438 C 170.058594 229.589844 165.015625 230.578125 159.617188 233.910156 C 154.578125 237.058594 152.867188 242.191406 152.867188 246.238281 C 152.867188 255.871094 159.796875 262.078125 168.617188 262.078125 C 175.367188 262.078125 179.238281 258.839844 181.128906 257.308594 L 181.128906 260.640625 L 181.667969 261.269531 C 188.148438 261 190.128906 260.910156 195.976562 261 L 196.425781 260.371094 C 195.796875 251.550781 195.796875 249.300781 195.796875 240.839844 L 195.886719 234.179688 M 181.039062 248.488281 C 179.148438 249.570312 176.71875 250.828125 173.746094 250.828125 C 170.507812 250.828125 167.808594 249.121094 167.808594 245.339844 C 167.808594 239.398438 174.917969 238.410156 181.039062 237.601562 Z M 225.320312 229.949219 C 222.257812 228.871094 219.828125 227.878906 219.828125 225.359375 C 219.828125 224.28125 220.550781 221.308594 226.128906 221.308594 C 231.621094 221.308594 235.128906 223.648438 237.378906 225.089844 L 238.191406 224.820312 L 239.089844 215.011719 L 238.640625 214.46875 C 234.410156 213.300781 230.71875 212.21875 224.871094 212.21875 C 220.460938 212.21875 211.640625 212.578125 206.960938 219.328125 C 205.789062 220.949219 204.53125 223.648438 204.53125 227.25 C 204.53125 236.878906 212 239.761719 216.230469 241.378906 L 219.648438 242.640625 C 222.078125 243.449219 226.039062 244.800781 226.039062 248.039062 C 226.039062 250.289062 223.96875 252.71875 218.929688 252.71875 C 216.410156 252.71875 212.71875 251.910156 209.390625 250.199219 C 207.859375 249.390625 207.140625 248.761719 205.789062 247.679688 L 204.980469 248.039062 C 204.800781 252.71875 204.710938 253.710938 204.347656 258.210938 L 204.800781 259.019531 C 209.210938 260.640625 212.988281 262.078125 219.558594 262.078125 C 226.398438 262.078125 239.898438 260.820312 241.519531 247.949219 C 241.609375 247.230469 241.609375 246.601562 241.609375 245.96875 C 241.609375 236.070312 234.679688 233.460938 229.730469 231.570312 Z M 274.730469 250.648438 C 273.199219 251.101562 272.117188 251.460938 270.589844 251.460938 C 266 251.460938 265.640625 248.578125 265.457031 247.230469 C 265.1875 244.890625 265.1875 239.941406 265.277344 236.339844 L 265.457031 223.648438 L 273.558594 224.011719 L 274.097656 223.46875 L 275 213.839844 L 274.457031 213.300781 L 265.457031 213.300781 L 265.730469 198.179688 L 265.097656 197.640625 C 258.980469 199.441406 257.359375 199.890625 250.96875 201.511719 L 250.609375 202.140625 L 250.699219 213.390625 L 245.839844 213.210938 L 245.300781 213.660156 L 244.488281 223.289062 L 245.027344 223.828125 L 250.699219 223.648438 L 250.429688 237.960938 C 250.339844 240.210938 250.25 242.460938 250.25 244.800781 C 250.25 253.078125 250.429688 261.988281 264.46875 261.988281 C 267.980469 261.988281 270.769531 261.449219 273.917969 260.910156 L 274.550781 260.28125 L 275.449219 251.011719 Z M 307.398438 227.609375 L 309.917969 212.941406 L 309.378906 212.308594 C 308.75 212.308594 308.117188 212.21875 307.488281 212.21875 C 303.796875 212.21875 299.660156 214.289062 296.777344 220.949219 L 297.046875 212.671875 L 296.328125 211.949219 C 289.667969 213.390625 287.957031 213.660156 281.386719 214.648438 L 280.847656 215.191406 C 281.386719 221.941406 281.660156 225.988281 281.660156 238.5 C 281.660156 245.878906 281.566406 253.261719 281.386719 260.730469 L 281.929688 261.269531 C 288.589844 261 290.027344 260.910156 297.226562 261 L 297.679688 260.371094 C 297.316406 253.078125 296.777344 242.910156 296.777344 236.699219 C 296.777344 232.648438 296.777344 226.710938 302.898438 226.710938 C 304.429688 226.710938 305.328125 227.25 306.589844 227.96875 Z M 360.949219 237.058594 C 360.949219 233.550781 360.949219 218.96875 348.347656 214.019531 C 344.386719 212.488281 339.707031 212.308594 337.367188 212.308594 C 321.707031 212.308594 312.886719 220.679688 312.886719 237.238281 C 312.886719 243 313.789062 248.851562 317.117188 253.710938 C 319.457031 257.21875 323.867188 262.078125 336.738281 262.078125 C 355.816406 262.078125 360.949219 250.558594 360.949219 237.058594 M 345.378906 236.96875 C 345.378906 244.351562 344.386719 252.539062 336.917969 252.539062 C 334.578125 252.539062 332.957031 251.460938 331.878906 250.46875 C 330.347656 248.941406 328.636719 245.878906 328.636719 237.148438 C 328.636719 234.539062 328.636719 228.78125 330.4375 225.628906 C 331.789062 223.199219 334.128906 221.578125 337.007812 221.578125 C 339.527344 221.578125 341.597656 222.929688 342.769531 224.371094 C 344.929688 226.980469 345.378906 232.109375 345.378906 236.96875 Z M 432.140625 197.191406 C 423.5 197.460938 421.699219 197.460938 412.070312 197.460938 L 411.4375 198 C 406.667969 213.300781 403.789062 222.390625 390.558594 260.371094 L 390.917969 261 L 404.957031 261 L 405.589844 260.460938 L 410 244.078125 L 429.4375 244.078125 L 433.308594 260.730469 L 433.9375 261.269531 C 440.507812 261 442.308594 260.910156 449.597656 261 L 450.050781 260.28125 C 439.160156 221.761719 437.898438 217.53125 432.769531 197.730469 L 432.140625 197.191406 M 413.148438 233.191406 L 417.648438 217.980469 L 420.800781 207.449219 L 423.5 219.148438 L 426.828125 233.191406 Z M 499.90625 260.460938 C 499.546875 252.359375 499.277344 246.960938 499.277344 235.171875 C 499.277344 211.410156 499.636719 201.601562 499.996094 189.71875 L 499.367188 189.179688 L 484.515625 191.519531 L 484.066406 192.058594 C 484.605469 200.519531 484.695312 202.769531 484.605469 213.03125 C 477.855469 212.851562 469.394531 212.671875 462.554688 218.070312 C 456.257812 222.929688 453.644531 230.398438 453.644531 239.671875 C 453.644531 246.691406 455.535156 253.710938 460.847656 258.121094 C 464.804688 261.359375 469.667969 262.078125 472.636719 262.078125 C 479.027344 262.078125 482.355469 259.109375 484.515625 257.21875 L 484.335938 260.730469 L 484.785156 261.269531 C 490.996094 261 492.707031 261 499.457031 261 L 499.90625 260.460938 M 484.605469 223.828125 C 484.695312 235.800781 484.605469 238.140625 484.335938 249.03125 C 482.535156 250.109375 480.734375 251.191406 478.214844 251.191406 C 469.484375 251.191406 469.484375 240.03125 469.484375 238.230469 C 469.484375 231.300781 471.464844 223.558594 481.546875 223.558594 C 482.535156 223.558594 483.347656 223.648438 484.605469 223.828125 Z M 555.980469 237.058594 C 555.980469 233.550781 555.980469 218.96875 543.378906 214.019531 C 539.417969 212.488281 534.738281 212.308594 532.398438 212.308594 C 516.738281 212.308594 507.917969 220.679688 507.917969 237.238281 C 507.917969 243 508.820312 248.851562 512.148438 253.710938 C 514.488281 257.21875 518.898438 262.078125 531.769531 262.078125 C 550.847656 262.078125 555.980469 250.558594 555.980469 237.058594 M 540.410156 236.96875 C 540.410156 244.351562 539.417969 252.539062 531.949219 252.539062 C 529.609375 252.539062 527.988281 251.460938 526.910156 250.46875 C 525.378906 248.941406 523.667969 245.878906 523.667969 237.148438 C 523.667969 234.539062 523.667969 228.78125 525.46875 225.628906 C 526.820312 223.199219 529.160156 221.578125 532.039062 221.578125 C 534.558594 221.578125 536.628906 222.929688 537.800781 224.371094 C 539.960938 226.980469 540.410156 232.109375 540.410156 236.96875 Z M 571.007812 261.179688 L 572.808594 261.179688 C 587.207031 261.179688 596.480469 260.460938 603.320312 253.171875 C 609.707031 246.328125 610.339844 238.230469 610.339844 234.449219 C 610.339844 221.941406 603.140625 212.21875 590.898438 212.21875 C 584.957031 212.21875 581.808594 214.199219 579.289062 215.820312 L 579.828125 189.71875 L 579.109375 189.179688 L 564.167969 191.519531 L 563.628906 192.148438 C 564.347656 199.710938 564.617188 202.769531 564.617188 220.859375 C 564.617188 228.601562 564.527344 243.898438 564.4375 260.640625 L 565.070312 261.269531 L 571.007812 261.179688 M 579.648438 224.730469 C 581.449219 223.828125 583.160156 222.929688 585.5 222.929688 C 591.4375 222.929688 594.859375 228.238281 594.859375 236.519531 C 594.859375 243 591.980469 247.230469 589.550781 248.941406 C 586.578125 251.011719 582.707031 251.101562 579.648438 251.191406 Z M 658.847656 247.679688 C 655.429688 249.480469 651.378906 251.550781 644.808594 251.550781 C 639.410156 251.550781 635.71875 249.839844 633.558594 246.601562 C 632.207031 244.710938 631.9375 242.910156 631.578125 241.109375 L 660.648438 240.570312 L 661.1875 239.941406 C 661.097656 235.53125 661.007812 231.03125 659.75 226.53125 C 656.597656 215.910156 649.667969 213.75 646.609375 213.03125 C 644.359375 212.398438 642.289062 212.21875 640.21875 212.21875 C 626.089844 212.21875 616.726562 221.488281 616.726562 237.058594 C 616.726562 241.289062 617.449219 245.699219 618.886719 248.851562 C 624.109375 261 636.347656 262.078125 642.828125 262.078125 C 650.296875 262.078125 653.539062 260.730469 658.308594 258.839844 L 658.847656 258.121094 L 659.476562 247.949219 L 658.847656 247.679688 M 631.578125 231.570312 C 631.847656 228.78125 632.476562 225 635.898438 222.839844 C 636.976562 222.121094 638.238281 221.851562 639.5 221.851562 C 642.46875 221.851562 644.269531 223.378906 645.257812 225 C 646.519531 226.980469 646.609375 229.140625 646.609375 231.210938 Z M 707.808594 197.28125 L 696.378906 197.460938 L 695.835938 198 C 696.199219 209.699219 696.46875 217.53125 696.46875 227.878906 C 696.46875 238.859375 696.199219 249.75 695.925781 260.730469 L 696.46875 261.269531 C 703.128906 261 704.566406 260.910156 711.769531 261 L 712.21875 260.460938 C 711.859375 250.648438 711.859375 248.398438 711.859375 239.21875 C 721.9375 239.308594 732.738281 239.308594 739.21875 231.390625 C 741.738281 228.328125 743.898438 223.199219 743.898438 216.898438 C 743.898438 213.03125 742.996094 204.480469 735.527344 200.25 C 730.128906 197.101562 722.476562 197.101562 715.726562 197.101562 L 707.808594 197.28125 M 711.859375 208.171875 C 713.835938 208.078125 715.726562 208.078125 717.707031 208.078125 C 725.628906 208.261719 727.789062 212.308594 727.789062 217.53125 C 727.789062 218.789062 727.789062 224.011719 723.019531 226.621094 C 720.585938 227.96875 717.257812 228.148438 711.859375 228.148438 Z M 790.15625 234.179688 C 790.246094 226.078125 790.246094 222.570312 787.90625 218.789062 C 786.105469 215.910156 782.507812 212.308594 770.988281 212.308594 C 763.246094 212.308594 758.476562 213.75 753.347656 215.28125 L 752.808594 216 L 752.355469 225.808594 L 753.078125 226.171875 C 756.226562 224.910156 762.078125 222.570312 768.105469 222.570312 C 771.4375 222.570312 772.785156 223.109375 773.957031 224.28125 C 774.855469 225.179688 775.128906 226.800781 775.128906 228.148438 C 764.328125 229.589844 759.285156 230.578125 753.886719 233.910156 C 748.847656 237.058594 747.136719 242.191406 747.136719 246.238281 C 747.136719 255.871094 754.066406 262.078125 762.886719 262.078125 C 769.636719 262.078125 773.507812 258.839844 775.398438 257.308594 L 775.398438 260.640625 L 775.9375 261.269531 C 782.417969 261 784.398438 260.910156 790.246094 261 L 790.695312 260.371094 C 790.066406 251.550781 790.066406 249.300781 790.066406 240.839844 L 790.15625 234.179688 M 775.308594 248.488281 C 773.417969 249.570312 770.988281 250.828125 768.015625 250.828125 C 764.777344 250.828125 762.078125 249.121094 762.078125 245.339844 C 762.078125 239.398438 769.1875 238.410156 775.308594 237.601562 Z M 826.699219 227.609375 L 829.21875 212.941406 L 828.679688 212.308594 C 828.050781 212.308594 827.417969 212.21875 826.789062 212.21875 C 823.097656 212.21875 818.960938 214.289062 816.078125 220.949219 L 816.347656 212.671875 L 815.628906 211.949219 C 808.96875 213.390625 807.257812 213.660156 800.6875 214.648438 L 800.148438 215.191406 C 800.6875 221.941406 800.960938 225.988281 800.960938 238.5 C 800.960938 245.878906 800.867188 253.261719 800.6875 260.730469 L 801.230469 261.269531 C 807.890625 261 809.328125 260.910156 816.527344 261 L 816.980469 260.371094 C 816.617188 253.078125 816.078125 242.910156 816.078125 236.699219 C 816.078125 232.648438 816.078125 226.710938 822.199219 226.710938 C 823.730469 226.710938 824.628906 227.25 825.890625 227.96875 Z M 880.699219 259.828125 C 872.238281 245.519531 871.339844 243.898438 864.5 231.570312 C 870.710938 223.109375 871.339844 222.210938 877.730469 214.019531 L 877.277344 213.121094 L 862.609375 213.300781 L 861.710938 213.929688 C 854.6875 226.078125 853.789062 227.519531 849.648438 233.730469 L 849.648438 223.738281 C 849.738281 206.910156 849.828125 203.308594 850.277344 189.71875 L 849.558594 189.179688 L 833.898438 191.519531 L 833.359375 192.148438 C 833.988281 200.878906 834.257812 205.109375 834.4375 216.898438 C 834.617188 231.480469 834.617188 246.058594 834.527344 260.640625 L 835.160156 261.269531 C 841.1875 261 842.898438 261 849.738281 261 L 850.277344 260.371094 L 849.738281 245.160156 L 849.648438 234.808594 C 857.480469 249.210938 858.46875 251.191406 863.058594 260.730469 L 863.867188 261.269531 L 880.070312 260.640625 Z M 879.617188 261 "/>
<path fill-rule="nonzero" fill="rgb(34.901961%, 14.901961%, 14.901961%)" fill-opacity="1" d="M 327.199219 317.28125 L 315.769531 317.460938 L 315.226562 318 C 315.589844 329.699219 315.859375 337.53125 315.859375 347.878906 C 315.859375 358.859375 315.589844 369.75 315.316406 380.730469 L 315.859375 381.269531 C 322.519531 381 323.957031 380.910156 331.160156 381 L 331.609375 380.460938 C 331.25 370.648438 331.25 368.398438 331.25 359.21875 C 341.328125 359.308594 352.128906 359.308594 358.609375 351.390625 C 361.128906 348.328125 363.289062 343.199219 363.289062 336.898438 C 363.289062 333.03125 362.386719 324.480469 354.917969 320.25 C 349.519531 317.101562 341.867188 317.101562 335.117188 317.101562 L 327.199219 317.28125 M 331.25 328.171875 C 333.226562 328.078125 335.117188 328.078125 337.097656 328.078125 C 345.019531 328.261719 347.179688 332.308594 347.179688 337.53125 C 347.179688 338.789062 347.179688 344.011719 342.410156 346.621094 C 339.976562 347.96875 336.648438 348.148438 331.25 348.148438 Z M 395.507812 347.609375 L 398.027344 332.941406 L 397.488281 332.308594 C 396.859375 332.308594 396.226562 332.21875 395.597656 332.21875 C 391.90625 332.21875 387.769531 334.289062 384.886719 340.949219 L 385.15625 332.671875 L 384.4375 331.949219 C 377.777344 333.390625 376.066406 333.660156 369.496094 334.648438 L 368.957031 335.191406 C 369.496094 341.941406 369.769531 345.988281 369.769531 358.5 C 369.769531 365.878906 369.675781 373.261719 369.496094 380.730469 L 370.039062 381.269531 C 376.699219 381 378.136719 380.910156 385.335938 381 L 385.789062 380.371094 C 385.425781 373.078125 384.886719 362.910156 384.886719 356.699219 C 384.886719 352.648438 384.886719 346.710938 391.007812 346.710938 C 392.539062 346.710938 393.4375 347.25 394.699219 347.96875 Z M 449.058594 357.058594 C 449.058594 353.550781 449.058594 338.96875 436.457031 334.019531 C 432.496094 332.488281 427.816406 332.308594 425.476562 332.308594 C 409.816406 332.308594 400.996094 340.679688 400.996094 357.238281 C 400.996094 363 401.898438 368.851562 405.226562 373.710938 C 407.566406 377.21875 411.976562 382.078125 424.847656 382.078125 C 443.925781 382.078125 449.058594 370.558594 449.058594 357.058594 M 433.488281 356.96875 C 433.488281 364.351562 432.496094 372.539062 425.027344 372.539062 C 422.6875 372.539062 421.066406 371.460938 419.988281 370.46875 C 418.457031 368.941406 416.746094 365.878906 416.746094 357.148438 C 416.746094 354.539062 416.746094 348.78125 418.546875 345.628906 C 419.898438 343.199219 422.238281 341.578125 425.117188 341.578125 C 427.636719 341.578125 429.707031 342.929688 430.878906 344.371094 C 433.039062 346.980469 433.488281 352.109375 433.488281 356.96875 Z M 472.546875 332.851562 L 471.828125 332.039062 C 465.257812 333.480469 463.367188 333.839844 456.886719 334.648438 L 456.347656 335.28125 C 457.335938 345.988281 457.695312 350.128906 457.695312 376.050781 C 457.695312 386.761719 457.515625 392.878906 457.246094 403.050781 L 457.785156 403.5 C 464.175781 403.230469 466.066406 403.140625 472.90625 403.230469 L 473.445312 402.78125 L 472.816406 381.359375 C 479.386719 381.269531 488.476562 381.179688 495.765625 374.339844 C 501.527344 368.941406 503.417969 361.289062 503.417969 355.171875 C 503.417969 340.859375 494.6875 332.21875 484.605469 332.21875 C 478.398438 332.21875 474.886719 334.738281 472.367188 336.449219 L 472.546875 332.851562 M 472.726562 345.089844 C 474.707031 343.921875 475.878906 343.289062 478.128906 343.289062 C 479.476562 343.289062 482.175781 343.46875 484.425781 345.988281 C 487.21875 349.050781 487.667969 353.640625 487.667969 356.699219 C 487.667969 361.921875 485.957031 366.601562 482.355469 369.121094 C 479.476562 371.101562 475.878906 371.28125 472.726562 371.371094 Z M 551.925781 367.679688 C 548.507812 369.480469 544.457031 371.550781 537.886719 371.550781 C 532.488281 371.550781 528.796875 369.839844 526.636719 366.601562 C 525.285156 364.710938 525.015625 362.910156 524.65625 361.109375 L 553.726562 360.570312 L 554.265625 359.941406 C 554.175781 355.53125 554.085938 351.03125 552.828125 346.53125 C 549.675781 335.910156 542.746094 333.75 539.6875 333.03125 C 537.4375 332.398438 535.367188 332.21875 533.296875 332.21875 C 519.167969 332.21875 509.804688 341.488281 509.804688 357.058594 C 509.804688 361.289062 510.527344 365.699219 511.964844 368.851562 C 517.1875 381 529.425781 382.078125 535.90625 382.078125 C 543.375 382.078125 546.617188 380.730469 551.386719 378.839844 L 551.925781 378.121094 L 552.554688 367.949219 L 551.925781 367.679688 M 524.65625 351.570312 C 524.925781 348.78125 525.554688 345 528.976562 342.839844 C 530.054688 342.121094 531.316406 341.851562 532.578125 341.851562 C 535.546875 341.851562 537.347656 343.378906 538.335938 345 C 539.597656 346.980469 539.6875 349.140625 539.6875 351.210938 Z M 588.558594 347.609375 L 591.078125 332.941406 L 590.539062 332.308594 C 589.910156 332.308594 589.277344 332.21875 588.648438 332.21875 C 584.957031 332.21875 580.820312 334.289062 577.9375 340.949219 L 578.207031 332.671875 L 577.488281 331.949219 C 570.828125 333.390625 569.117188 333.660156 562.546875 334.648438 L 562.007812 335.191406 C 562.546875 341.941406 562.820312 345.988281 562.820312 358.5 C 562.820312 365.878906 562.726562 373.261719 562.546875 380.730469 L 563.089844 381.269531 C 569.75 381 571.1875 380.910156 578.386719 381 L 578.839844 380.371094 C 578.476562 373.078125 577.9375 362.910156 577.9375 356.699219 C 577.9375 352.648438 577.9375 346.710938 584.058594 346.710938 C 585.589844 346.710938 586.488281 347.25 587.75 347.96875 Z M 621.5 370.648438 C 619.96875 371.101562 618.886719 371.460938 617.359375 371.460938 C 612.769531 371.460938 612.410156 368.578125 612.226562 367.230469 C 611.957031 364.890625 611.957031 359.941406 612.046875 356.339844 L 612.226562 343.648438 L 620.328125 344.011719 L 620.867188 343.46875 L 621.769531 333.839844 L 621.226562 333.300781 L 612.226562 333.300781 L 612.5 318.179688 L 611.867188 317.640625 C 605.75 319.441406 604.128906 319.890625 597.738281 321.511719 L 597.378906 322.140625 L 597.46875 333.390625 L 592.609375 333.210938 L 592.070312 333.660156 L 591.257812 343.289062 L 591.796875 343.828125 L 597.46875 343.648438 L 597.199219 357.960938 C 597.109375 360.210938 597.019531 362.460938 597.019531 364.800781 C 597.019531 373.078125 597.199219 381.988281 611.238281 381.988281 C 614.75 381.988281 617.539062 381.449219 620.6875 380.910156 L 621.320312 380.28125 L 622.21875 371.011719 Z M 668.386719 333.03125 L 655.878906 333.300781 L 655.15625 333.929688 C 653.628906 340.140625 653.269531 341.488281 651.109375 348.511719 L 648.769531 356.25 L 646.789062 363 L 645.078125 356.609375 L 642.46875 347.070312 L 638.867188 333.390625 L 638.148438 332.851562 C 631.128906 333.390625 629.597656 333.480469 622.21875 333.660156 L 621.769531 334.289062 C 625.007812 342.839844 633.378906 365.429688 638.957031 382.710938 C 635.269531 392.070312 634.546875 393.691406 630.496094 402.601562 L 630.949219 403.320312 C 633.199219 403.230469 635.71875 403.140625 638.058594 403.140625 C 640.308594 403.140625 642.648438 403.230469 644.898438 403.230469 L 645.527344 402.691406 C 650.476562 383.25 652.90625 375.691406 664.789062 344.371094 C 666.136719 340.769531 667.488281 337.261719 668.746094 333.75 Z M 667.757812 381 "/>
</svg>
