<?xml version="1.0" encoding="UTF-8"?>
<svg xmlns="http://www.w3.org/2000/svg" xmlns:xlink="http://www.w3.org/1999/xlink" width="975" height="1300" viewBox="0 0 975 1300">
<path fill-rule="nonzero" fill="rgb(98.823529%, 78.823529%, 9.019608%)" fill-opacity="1" d="M 50 50 L 925 50 L 925 290 L 50 290 Z M 50 50 "/>
<path fill-rule="nonzero" fill="rgb(34.901961%, 14.901961%, 14.901961%)" fill-opacity="1" d="M 116.824219 116.25 C 122.855469 126.511719 124.207031 129.210938 129.964844 141 L 130.6875 141.449219 C 133.476562 141.269531 136.175781 141.089844 138.964844 141 C 141.757812 140.910156 144.636719 140.820312 147.425781 140.820312 L 147.964844 139.738281 C 144.546875 135.328125 143.554688 133.980469 137.074219 123.628906 C 134.195312 119.039062 132.757812 116.609375 130.507812 112.648438 C 134.554688 110.851562 142.746094 107.070312 142.746094 95.640625 C 142.746094 91.679688 141.664062 83.488281 134.285156 79.621094 C 129.605469 77.191406 124.746094 77.101562 114.214844 77.28125 L 107.914062 77.371094 L 96.9375 77.371094 L 96.484375 77.910156 C 96.847656 87 97.207031 96.359375 97.207031 120.839844 C 97.207031 129.210938 97.117188 133.261719 96.847656 140.730469 L 97.386719 141.269531 C 103.957031 141 105.394531 140.910156 112.777344 141 L 113.316406 140.460938 C 112.597656 130.019531 112.507812 127.140625 112.414062 116.429688 L 116.824219 116.25 M 112.597656 88.261719 C 113.855469 88.171875 115.117188 88.171875 116.375 88.171875 C 119.886719 88.171875 126.816406 88.171875 126.816406 96.089844 C 126.816406 98.609375 126.1875 101.941406 122.855469 104.011719 C 120.335938 105.539062 117.097656 105.71875 112.597656 105.808594 Z M 169.027344 140.371094 C 168.574219 133.441406 168.214844 128.128906 168.214844 115.710938 C 168.214844 108.058594 168.394531 100.320312 168.484375 92.671875 L 167.855469 91.949219 L 152.375 94.648438 L 151.835938 95.191406 C 152.554688 102.03125 152.824219 105.179688 152.824219 117.960938 C 152.824219 127.769531 152.554688 133.261719 152.285156 140.640625 L 152.824219 141.269531 C 159.304688 141 161.105469 140.910156 168.394531 141 L 169.027344 140.371094 M 167.585938 83.308594 L 167.855469 71.070312 L 167.316406 70.53125 L 152.644531 72.328125 L 152.105469 72.960938 C 152.285156 76.199219 152.375 78.089844 152.375 80.25 C 152.375 81.960938 152.375 83.761719 152.285156 85.46875 L 152.914062 86.011719 C 159.035156 84.929688 160.746094 84.75 167.136719 83.941406 Z M 224.828125 117.058594 C 224.828125 113.550781 224.828125 98.96875 212.226562 94.019531 C 208.265625 92.488281 203.585938 92.308594 201.246094 92.308594 C 185.585938 92.308594 176.765625 100.679688 176.765625 117.238281 C 176.765625 123 177.667969 128.851562 180.996094 133.710938 C 183.335938 137.21875 187.746094 142.078125 200.617188 142.078125 C 219.695312 142.078125 224.828125 130.558594 224.828125 117.058594 M 209.257812 116.96875 C 209.257812 124.351562 208.265625 132.539062 200.796875 132.539062 C 198.457031 132.539062 196.835938 131.460938 195.757812 130.46875 C 194.226562 128.941406 192.515625 125.878906 192.515625 117.148438 C 192.515625 114.539062 192.515625 108.78125 194.316406 105.628906 C 195.667969 103.199219 198.007812 101.578125 200.886719 101.578125 C 203.40625 101.578125 205.476562 102.929688 206.648438 104.371094 C 208.808594 106.980469 209.257812 112.109375 209.257812 116.96875 Z M 303.757812 140.460938 C 303.398438 132.359375 303.128906 126.960938 303.128906 115.171875 C 303.128906 91.410156 303.488281 81.601562 303.847656 69.71875 L 303.21875 69.179688 L 288.367188 71.519531 L 287.917969 72.058594 C 288.457031 80.519531 288.546875 82.769531 288.457031 93.03125 C 281.707031 92.851562 273.246094 92.671875 266.40625 98.070312 C 260.109375 102.929688 257.496094 110.398438 257.496094 119.671875 C 257.496094 126.691406 259.386719 133.710938 264.699219 138.121094 C 268.65625 141.359375 273.519531 142.078125 276.488281 142.078125 C 282.878906 142.078125 286.207031 139.109375 288.367188 137.21875 L 288.1875 140.730469 L 288.636719 141.269531 C 294.847656 141 296.558594 141 303.308594 141 L 303.757812 140.460938 M 288.457031 103.828125 C 288.546875 115.800781 288.457031 118.140625 288.1875 129.03125 C 286.386719 130.109375 284.585938 131.191406 282.066406 131.191406 C 273.335938 131.191406 273.335938 120.03125 273.335938 118.230469 C 273.335938 111.300781 275.316406 103.558594 285.398438 103.558594 C 286.386719 103.558594 287.199219 103.648438 288.457031 103.828125 Z M 353.976562 127.679688 C 350.558594 129.480469 346.507812 131.550781 339.9375 131.550781 C 334.539062 131.550781 330.847656 129.839844 328.6875 126.601562 C 327.335938 124.710938 327.066406 122.910156 326.707031 121.109375 L 355.777344 120.570312 L 356.316406 119.941406 C 356.226562 115.53125 356.136719 111.03125 354.878906 106.53125 C 351.726562 95.910156 344.796875 93.75 341.738281 93.03125 C 339.488281 92.398438 337.417969 92.21875 335.347656 92.21875 C 321.21875 92.21875 311.855469 101.488281 311.855469 117.058594 C 311.855469 121.289062 312.578125 125.699219 314.015625 128.851562 C 319.238281 141 331.476562 142.078125 337.957031 142.078125 C 345.425781 142.078125 348.667969 140.730469 353.4375 138.839844 L 353.976562 138.121094 L 354.605469 127.949219 L 353.976562 127.679688 M 326.707031 111.570312 C 326.976562 108.78125 327.605469 105 331.027344 102.839844 C 332.105469 102.121094 333.367188 101.851562 334.628906 101.851562 C 337.597656 101.851562 339.398438 103.378906 340.386719 105 C 341.648438 106.980469 341.738281 109.140625 341.738281 111.210938 Z M 429.578125 128.671875 C 419.765625 129.210938 411.9375 129.390625 409.238281 129.390625 L 407.4375 129.390625 C 407.257812 105.359375 407.347656 99.238281 408.066406 77.730469 L 407.527344 77.191406 C 399.785156 77.550781 397.714844 77.550781 391.507812 77.460938 L 390.964844 78 C 391.328125 85.199219 391.417969 87.359375 391.417969 98.070312 C 391.417969 112.289062 391.328125 126.511719 391.328125 140.730469 L 391.777344 141.269531 C 409.417969 141 412.65625 141 428.855469 141 L 429.304688 140.460938 L 430.027344 129.121094 Z M 483.578125 117.058594 C 483.578125 113.550781 483.578125 98.96875 470.976562 94.019531 C 467.015625 92.488281 462.335938 92.308594 459.996094 92.308594 C 444.335938 92.308594 435.515625 100.679688 435.515625 117.238281 C 435.515625 123 436.417969 128.851562 439.746094 133.710938 C 442.085938 137.21875 446.496094 142.078125 459.367188 142.078125 C 478.445312 142.078125 483.578125 130.558594 483.578125 117.058594 M 468.007812 116.96875 C 468.007812 124.351562 467.015625 132.539062 459.546875 132.539062 C 457.207031 132.539062 455.585938 131.460938 454.507812 130.46875 C 452.976562 128.941406 451.265625 125.878906 451.265625 117.148438 C 451.265625 114.539062 451.265625 108.78125 453.066406 105.628906 C 454.417969 103.199219 456.757812 101.578125 459.636719 101.578125 C 462.15625 101.578125 464.226562 102.929688 465.398438 104.371094 C 467.558594 106.980469 468.007812 112.109375 468.007812 116.96875 Z M 511.027344 109.949219 C 507.964844 108.871094 505.535156 107.878906 505.535156 105.359375 C 505.535156 104.28125 506.257812 101.308594 511.835938 101.308594 C 517.328125 101.308594 520.835938 103.648438 523.085938 105.089844 L 523.898438 104.820312 L 524.796875 95.011719 L 524.347656 94.46875 C 520.117188 93.300781 516.425781 92.21875 510.578125 92.21875 C 506.167969 92.21875 497.347656 92.578125 492.667969 99.328125 C 491.496094 100.949219 490.238281 103.648438 490.238281 107.25 C 490.238281 116.878906 497.707031 119.761719 501.9375 121.378906 L 505.355469 122.640625 C 507.785156 123.449219 511.746094 124.800781 511.746094 128.039062 C 511.746094 130.289062 509.675781 132.71875 504.636719 132.71875 C 502.117188 132.71875 498.425781 131.910156 495.097656 130.199219 C 493.566406 129.390625 492.847656 128.761719 491.496094 127.679688 L 490.6875 128.039062 C 490.507812 132.71875 490.417969 133.710938 490.054688 138.210938 L 490.507812 139.019531 C 494.917969 140.640625 498.695312 142.078125 505.265625 142.078125 C 512.105469 142.078125 525.605469 140.820312 527.226562 127.949219 C 527.316406 127.230469 527.316406 126.601562 527.316406 125.96875 C 527.316406 116.070312 520.386719 113.460938 515.4375 111.570312 Z M 597.878906 77.191406 C 589.238281 77.460938 587.4375 77.460938 577.808594 77.460938 L 577.175781 78 C 572.40625 93.300781 569.527344 102.390625 556.296875 140.371094 L 556.65625 141 L 570.695312 141 L 571.328125 140.460938 L 575.738281 124.078125 L 595.175781 124.078125 L 599.046875 140.730469 L 599.675781 141.269531 C 606.246094 141 608.046875 140.910156 615.335938 141 L 615.789062 140.28125 C 604.898438 101.761719 603.636719 97.53125 598.507812 77.730469 L 597.878906 77.191406 M 578.886719 113.191406 L 583.386719 97.980469 L 586.539062 87.449219 L 589.238281 99.148438 L 592.566406 113.191406 Z M 665.644531 140.371094 C 665.195312 132.449219 665.195312 129.929688 665.015625 121.109375 L 665.015625 114.089844 C 664.925781 105.449219 664.835938 101.308594 662.585938 97.621094 C 659.792969 92.941406 654.664062 92.21875 651.425781 92.21875 C 645.933594 92.21875 641.164062 95.101562 637.023438 97.53125 L 637.203125 92.578125 L 636.304688 91.949219 C 629.375 93.390625 627.84375 93.660156 621.09375 94.558594 L 620.554688 95.191406 C 621.273438 103.019531 621.816406 108.691406 621.816406 123.359375 C 621.816406 129.121094 621.722656 134.878906 621.632812 140.640625 L 622.175781 141.179688 C 628.65625 140.910156 630.003906 140.910156 637.203125 140.910156 L 637.746094 140.371094 C 637.203125 126.511719 637.113281 123 637.023438 106.890625 C 638.914062 105.628906 641.074219 104.101562 643.953125 104.101562 C 648.90625 104.101562 649.355469 109.410156 649.625 112.648438 C 649.804688 115.621094 649.894531 127.949219 649.894531 131.371094 C 649.894531 134.429688 649.804688 137.578125 649.804688 140.640625 L 650.34375 141.179688 C 656.285156 141 657.816406 140.910156 665.015625 140.910156 Z M 692.46875 125.789062 C 695.347656 125.878906 698.226562 126.058594 702.546875 124.621094 C 707.226562 123 714.066406 119.128906 714.066406 110.398438 C 714.066406 106.078125 712.808594 104.28125 711.636719 102.570312 L 717.847656 102.929688 L 718.386719 102.480469 L 719.019531 93.480469 L 718.476562 93.03125 C 711.546875 93.300781 709.65625 93.390625 703.988281 93.300781 L 699.847656 93.210938 C 693.457031 93.03125 684.90625 92.851562 679.058594 97.710938 C 677.078125 99.238281 673.296875 103.109375 673.296875 109.859375 C 673.296875 113.460938 674.289062 116.339844 675.90625 118.589844 C 677.886719 121.378906 679.6875 122.371094 681.9375 123.628906 C 679.417969 128.488281 678.066406 130.921875 675.996094 134.609375 L 675.996094 135.421875 L 679.777344 138.121094 C 677.078125 140.191406 672.847656 143.609375 672.847656 149.460938 C 672.847656 153.601562 675.097656 157.199219 678.429688 159.628906 C 683.46875 163.230469 690.308594 163.410156 693.816406 163.410156 C 710.289062 163.410156 717.847656 155.128906 717.847656 146.398438 C 717.847656 135.058594 707.949219 132.898438 702.097656 131.550781 L 699.9375 131.191406 C 695.527344 130.46875 694.539062 130.199219 691.027344 128.941406 L 692.46875 125.789062 M 699.847656 109.589844 C 699.757812 116.878906 695.347656 117.511719 694.085938 117.511719 C 693.367188 117.511719 690.21875 117.328125 688.6875 113.730469 C 687.878906 111.839844 687.878906 109.679688 687.878906 109.050781 C 687.878906 104.550781 690.578125 101.671875 693.90625 101.671875 C 698.046875 101.671875 699.9375 105.628906 699.847656 109.589844 M 692.199219 143.160156 C 700.207031 145.230469 700.296875 145.230469 701.378906 146.128906 C 702.277344 146.761719 703.179688 147.75 703.179688 149.640625 C 703.179688 152.339844 700.929688 155.128906 694.988281 155.128906 C 688.328125 155.128906 686.078125 151.351562 686.078125 148.199219 C 686.078125 145.230469 687.609375 143.519531 688.6875 142.261719 Z M 764.644531 127.679688 C 761.226562 129.480469 757.175781 131.550781 750.605469 131.550781 C 745.207031 131.550781 741.515625 129.839844 739.355469 126.601562 C 738.003906 124.710938 737.734375 122.910156 737.375 121.109375 L 766.445312 120.570312 L 766.984375 119.941406 C 766.894531 115.53125 766.804688 111.03125 765.546875 106.53125 C 762.394531 95.910156 755.464844 93.75 752.40625 93.03125 C 750.15625 92.398438 748.085938 92.21875 746.015625 92.21875 C 731.886719 92.21875 722.523438 101.488281 722.523438 117.058594 C 722.523438 121.289062 723.246094 125.699219 724.683594 128.851562 C 729.90625 141 742.144531 142.078125 748.625 142.078125 C 756.09375 142.078125 759.335938 140.730469 764.105469 138.839844 L 764.644531 138.121094 L 765.273438 127.949219 L 764.644531 127.679688 M 737.375 111.570312 C 737.644531 108.78125 738.273438 105 741.695312 102.839844 C 742.773438 102.121094 744.035156 101.851562 745.296875 101.851562 C 748.265625 101.851562 750.066406 103.378906 751.054688 105 C 752.316406 106.980469 752.40625 109.140625 752.40625 111.210938 Z M 791.105469 140.371094 C 790.65625 130.019531 790.207031 120.570312 790.207031 92.128906 C 790.207031 83.578125 790.296875 79.53125 790.65625 69.808594 L 790.027344 69.179688 L 774.636719 71.609375 L 774.277344 72.148438 C 775.175781 83.128906 775.265625 86.101562 775.445312 100.679688 C 775.539062 105.988281 775.539062 111.300781 775.539062 116.609375 C 775.539062 126.328125 775.355469 131.730469 774.996094 140.640625 L 775.539062 141.269531 C 781.566406 141 783.996094 140.910156 790.566406 141 Z M 841.503906 127.679688 C 838.085938 129.480469 834.035156 131.550781 827.464844 131.550781 C 822.066406 131.550781 818.375 129.839844 816.214844 126.601562 C 814.863281 124.710938 814.59375 122.910156 814.234375 121.109375 L 843.304688 120.570312 L 843.84375 119.941406 C 843.753906 115.53125 843.664062 111.03125 842.40625 106.53125 C 839.253906 95.910156 832.324219 93.75 829.265625 93.03125 C 827.015625 92.398438 824.945312 92.21875 822.875 92.21875 C 808.746094 92.21875 799.382812 101.488281 799.382812 117.058594 C 799.382812 121.289062 800.105469 125.699219 801.542969 128.851562 C 806.765625 141 819.003906 142.078125 825.484375 142.078125 C 832.953125 142.078125 836.195312 140.730469 840.964844 138.839844 L 841.503906 138.121094 L 842.132812 127.949219 L 841.503906 127.679688 M 814.234375 111.570312 C 814.503906 108.78125 815.132812 105 818.554688 102.839844 C 819.632812 102.121094 820.894531 101.851562 822.15625 101.851562 C 825.125 101.851562 826.925781 103.378906 827.914062 105 C 829.175781 106.980469 829.265625 109.140625 829.265625 111.210938 Z M 871.027344 109.949219 C 867.964844 108.871094 865.535156 107.878906 865.535156 105.359375 C 865.535156 104.28125 866.257812 101.308594 871.835938 101.308594 C 877.328125 101.308594 880.835938 103.648438 883.085938 105.089844 L 883.898438 104.820312 L 884.796875 95.011719 L 884.347656 94.46875 C 880.117188 93.300781 876.425781 92.21875 870.578125 92.21875 C 866.167969 92.21875 857.347656 92.578125 852.667969 99.328125 C 851.496094 100.949219 850.238281 103.648438 850.238281 107.25 C 850.238281 116.878906 857.707031 119.761719 861.9375 121.378906 L 865.355469 122.640625 C 867.785156 123.449219 871.746094 124.800781 871.746094 128.039062 C 871.746094 130.289062 869.675781 132.71875 864.636719 132.71875 C 862.117188 132.71875 858.425781 131.910156 855.097656 130.199219 C 853.566406 129.390625 852.847656 128.761719 851.496094 127.679688 L 850.6875 128.039062 C 850.507812 132.71875 850.417969 133.710938 850.054688 138.210938 L 850.507812 139.019531 C 854.917969 140.640625 858.695312 142.078125 865.265625 142.078125 C 872.105469 142.078125 885.605469 140.820312 887.226562 127.949219 C 887.316406 127.230469 887.316406 126.601562 887.316406 125.96875 C 887.316406 116.070312 880.386719 113.460938 875.4375 111.570312 Z M 889.835938 141 "/>
<path fill-rule="nonzero" fill="rgb(34.901961%, 14.901961%, 14.901961%)" fill-opacity="1" d="M 303.890625 222.300781 C 296.332031 219.148438 292.371094 217.53125 292.371094 213.480469 C 292.371094 210.691406 294.980469 207.179688 300.921875 207.179688 C 307.761719 207.179688 311.808594 209.96875 315.140625 212.21875 L 315.949219 211.859375 L 316.671875 200.070312 L 316.21875 199.441406 C 312.351562 197.820312 308.300781 196.109375 299.570312 196.109375 C 282.652344 196.109375 276.800781 205.648438 276.800781 215.28125 C 276.800781 226.171875 285.261719 230.128906 290.300781 232.558594 L 293.269531 233.910156 C 299.480469 236.519531 304.25 238.769531 304.25 243.539062 C 304.25 246.960938 301.28125 251.011719 293.449219 251.011719 C 285.261719 251.011719 280.671875 247.410156 278.058594 245.339844 L 277.160156 245.609375 L 276.53125 258.300781 L 277.070312 259.019531 C 278.058594 259.378906 279.050781 259.828125 280.039062 260.101562 C 282.109375 260.820312 287.421875 262.351562 294.171875 262.351562 C 296.871094 262.351562 303.710938 262.078125 309.109375 259.558594 C 316.671875 255.871094 319.910156 249.03125 319.910156 241.378906 C 319.910156 236.25 317.929688 230.761719 313.160156 227.070312 C 310.730469 225.269531 308.390625 224.191406 306.230469 223.199219 Z M 353.660156 250.648438 C 352.128906 251.101562 351.046875 251.460938 349.519531 251.460938 C 344.929688 251.460938 344.570312 248.578125 344.386719 247.230469 C 344.117188 244.890625 344.117188 239.941406 344.207031 236.339844 L 344.386719 223.648438 L 352.488281 224.011719 L 353.027344 223.46875 L 353.929688 213.839844 L 353.386719 213.300781 L 344.386719 213.300781 L 344.660156 198.179688 L 344.027344 197.640625 C 337.910156 199.441406 336.289062 199.890625 329.898438 201.511719 L 329.539062 202.140625 L 329.628906 213.390625 L 324.769531 213.210938 L 324.230469 213.660156 L 323.417969 223.289062 L 323.957031 223.828125 L 329.628906 223.648438 L 329.359375 237.960938 C 329.269531 240.210938 329.179688 242.460938 329.179688 244.800781 C 329.179688 253.078125 329.359375 261.988281 343.398438 261.988281 C 346.910156 261.988281 349.699219 261.449219 352.847656 260.910156 L 353.480469 260.28125 L 354.378906 251.011719 Z M 400.371094 234.179688 C 400.460938 226.078125 400.460938 222.570312 398.121094 218.789062 C 396.320312 215.910156 392.722656 212.308594 381.203125 212.308594 C 373.460938 212.308594 368.691406 213.75 363.5625 215.28125 L 363.023438 216 L 362.570312 225.808594 L 363.292969 226.171875 C 366.441406 224.910156 372.292969 222.570312 378.320312 222.570312 C 381.652344 222.570312 383 223.109375 384.171875 224.28125 C 385.070312 225.179688 385.34375 226.800781 385.34375 228.148438 C 374.542969 229.589844 369.5 230.578125 364.101562 233.910156 C 359.0625 237.058594 357.351562 242.191406 357.351562 246.238281 C 357.351562 255.871094 364.28125 262.078125 373.101562 262.078125 C 379.851562 262.078125 383.722656 258.839844 385.613281 257.308594 L 385.613281 260.640625 L 386.152344 261.269531 C 392.632812 261 394.613281 260.910156 400.460938 261 L 400.910156 260.371094 C 400.28125 251.550781 400.28125 249.300781 400.28125 240.839844 L 400.371094 234.179688 M 385.523438 248.488281 C 383.632812 249.570312 381.203125 250.828125 378.230469 250.828125 C 374.992188 250.828125 372.292969 249.121094 372.292969 245.339844 C 372.292969 239.398438 379.402344 238.410156 385.523438 237.601562 Z M 436.101562 250.648438 C 434.570312 251.101562 433.488281 251.460938 431.960938 251.460938 C 427.371094 251.460938 427.011719 248.578125 426.828125 247.230469 C 426.558594 244.890625 426.558594 239.941406 426.648438 236.339844 L 426.828125 223.648438 L 434.929688 224.011719 L 435.46875 223.46875 L 436.371094 213.839844 L 435.828125 213.300781 L 426.828125 213.300781 L 427.101562 198.179688 L 426.46875 197.640625 C 420.351562 199.441406 418.730469 199.890625 412.339844 201.511719 L 411.980469 202.140625 L 412.070312 213.390625 L 407.210938 213.210938 L 406.671875 213.660156 L 405.859375 223.289062 L 406.398438 223.828125 L 412.070312 223.648438 L 411.800781 237.960938 C 411.710938 240.210938 411.621094 242.460938 411.621094 244.800781 C 411.621094 253.078125 411.800781 261.988281 425.839844 261.988281 C 429.351562 261.988281 432.140625 261.449219 435.289062 260.910156 L 435.921875 260.28125 L 436.820312 251.011719 Z M 482.71875 247.679688 C 479.300781 249.480469 475.25 251.550781 468.679688 251.550781 C 463.28125 251.550781 459.589844 249.839844 457.429688 246.601562 C 456.078125 244.710938 455.808594 242.910156 455.449219 241.109375 L 484.519531 240.570312 L 485.058594 239.941406 C 484.96875 235.53125 484.878906 231.03125 483.621094 226.53125 C 480.46875 215.910156 473.539062 213.75 470.480469 213.03125 C 468.230469 212.398438 466.160156 212.21875 464.089844 212.21875 C 449.960938 212.21875 440.597656 221.488281 440.597656 237.058594 C 440.597656 241.289062 441.320312 245.699219 442.757812 248.851562 C 447.980469 261 460.21875 262.078125 466.699219 262.078125 C 474.167969 262.078125 477.410156 260.730469 482.179688 258.839844 L 482.71875 258.121094 L 483.347656 247.949219 L 482.71875 247.679688 M 455.449219 231.570312 C 455.71875 228.78125 456.347656 225 459.769531 222.839844 C 460.847656 222.121094 462.109375 221.851562 463.371094 221.851562 C 466.339844 221.851562 468.140625 223.378906 469.128906 225 C 470.390625 226.980469 470.480469 229.140625 470.480469 231.210938 Z M 531.679688 197.28125 L 520.25 197.460938 L 519.707031 198 C 520.070312 209.699219 520.339844 217.53125 520.339844 227.878906 C 520.339844 238.859375 520.070312 249.75 519.796875 260.730469 L 520.339844 261.269531 C 527 261 528.4375 260.910156 535.640625 261 L 536.089844 260.460938 C 535.730469 250.648438 535.730469 248.398438 535.730469 239.21875 C 545.808594 239.308594 556.609375 239.308594 563.089844 231.390625 C 565.609375 228.328125 567.769531 223.199219 567.769531 216.898438 C 567.769531 213.03125 566.867188 204.480469 559.398438 200.25 C 554 197.101562 546.347656 197.101562 539.597656 197.101562 L 531.679688 197.28125 M 535.730469 208.171875 C 537.707031 208.078125 539.597656 208.078125 541.578125 208.078125 C 549.5 208.261719 551.660156 212.308594 551.660156 217.53125 C 551.660156 218.789062 551.660156 224.011719 546.890625 226.621094 C 544.457031 227.96875 541.128906 228.148438 535.730469 228.148438 Z M 614.03125 234.179688 C 614.121094 226.078125 614.121094 222.570312 611.78125 218.789062 C 609.980469 215.910156 606.382812 212.308594 594.863281 212.308594 C 587.121094 212.308594 582.351562 213.75 577.222656 215.28125 L 576.683594 216 L 576.230469 225.808594 L 576.953125 226.171875 C 580.101562 224.910156 585.953125 222.570312 591.980469 222.570312 C 595.3125 222.570312 596.660156 223.109375 597.832031 224.28125 C 598.730469 225.179688 599.003906 226.800781 599.003906 228.148438 C 588.203125 229.589844 583.160156 230.578125 577.761719 233.910156 C 572.722656 237.058594 571.011719 242.191406 571.011719 246.238281 C 571.011719 255.871094 577.941406 262.078125 586.761719 262.078125 C 593.511719 262.078125 597.382812 258.839844 599.273438 257.308594 L 599.273438 260.640625 L 599.8125 261.269531 C 606.292969 261 608.273438 260.910156 614.121094 261 L 614.570312 260.371094 C 613.941406 251.550781 613.941406 249.300781 613.941406 240.839844 L 614.03125 234.179688 M 599.183594 248.488281 C 597.292969 249.570312 594.863281 250.828125 591.890625 250.828125 C 588.652344 250.828125 585.953125 249.121094 585.953125 245.339844 C 585.953125 239.398438 593.0625 238.410156 599.183594 237.601562 Z M 650.570312 227.609375 L 653.089844 212.941406 L 652.550781 212.308594 C 651.921875 212.308594 651.289062 212.21875 650.660156 212.21875 C 646.96875 212.21875 642.832031 214.289062 639.949219 220.949219 L 640.21875 212.671875 L 639.5 211.949219 C 632.839844 213.390625 631.128906 213.660156 624.558594 214.648438 L 624.019531 215.191406 C 624.558594 221.941406 624.832031 225.988281 624.832031 238.5 C 624.832031 245.878906 624.738281 253.261719 624.558594 260.730469 L 625.101562 261.269531 C 631.761719 261 633.199219 260.910156 640.398438 261 L 640.851562 260.371094 C 640.488281 253.078125 639.949219 242.910156 639.949219 236.699219 C 639.949219 232.648438 639.949219 226.710938 646.070312 226.710938 C 647.601562 226.710938 648.5 227.25 649.761719 227.96875 Z M 704.570312 259.828125 C 696.109375 245.519531 695.210938 243.898438 688.371094 231.570312 C 694.582031 223.109375 695.210938 222.210938 701.601562 214.019531 L 701.148438 213.121094 L 686.480469 213.300781 L 685.582031 213.929688 C 678.558594 226.078125 677.660156 227.519531 673.519531 233.730469 L 673.519531 223.738281 C 673.609375 206.910156 673.699219 203.308594 674.148438 189.71875 L 673.429688 189.179688 L 657.769531 191.519531 L 657.230469 192.148438 C 657.859375 200.878906 658.128906 205.109375 658.308594 216.898438 C 658.488281 231.480469 658.488281 246.058594 658.398438 260.640625 L 659.03125 261.269531 C 665.058594 261 666.769531 261 673.609375 261 L 674.148438 260.371094 L 673.609375 245.160156 L 673.519531 234.808594 C 681.351562 249.210938 682.339844 251.191406 686.929688 260.730469 L 687.738281 261.269531 L 703.941406 260.640625 Z M 703.492188 261 "/>
</svg>
