<?xml version="1.0" encoding="UTF-8"?>
<svg xmlns="http://www.w3.org/2000/svg" xmlns:xlink="http://www.w3.org/1999/xlink" width="975" height="1300" viewBox="0 0 975 1300">
<path fill-rule="nonzero" fill="rgb(98.823529%, 78.823529%, 9.019608%)" fill-opacity="1" d="M 50 50 L 925 50 L 925 410 L 50 410 Z M 50 50 "/>
<path fill-rule="nonzero" fill="rgb(34.901961%, 14.901961%, 14.901961%)" fill-opacity="1" d="M 166.144531 77.191406 C 156.785156 77.460938 155.253906 77.460938 145.265625 77.460938 L 144.726562 78 L 140.585938 92.578125 L 136.984375 105.628906 L 132.753906 121.289062 L 128.792969 105.179688 L 126.273438 95.011719 L 121.773438 77.730469 L 121.324219 77.191406 C 111.695312 77.460938 110.074219 77.460938 99.996094 77.460938 L 99.453125 78 C 98.554688 104.910156 98.195312 111.839844 96.214844 140.730469 L 96.664062 141.269531 C 102.425781 141 104.136719 140.910156 109.355469 141 L 109.894531 140.460938 L 110.164062 123.269531 L 110.703125 105.808594 L 111.066406 88.800781 L 115.023438 104.730469 L 118.445312 117.511719 L 124.476562 140.730469 L 125.015625 141.269531 C 130.59375 141 132.125 140.910156 138.425781 141 L 138.964844 140.460938 L 144.183594 121.289062 L 147.785156 108.148438 L 152.824219 89.25 L 152.824219 105.359375 L 153.003906 119.128906 L 153.003906 140.730469 L 153.453125 141.269531 C 159.664062 141 162.09375 140.910156 169.023438 141 L 169.476562 140.460938 C 168.933594 130.199219 168.304688 119.851562 167.945312 109.5 C 167.675781 103.828125 167.496094 98.160156 167.226562 92.488281 C 166.773438 84.121094 166.683594 83.039062 166.683594 77.730469 Z M 219.695312 114.179688 C 219.785156 106.078125 219.785156 102.570312 217.445312 98.789062 C 215.644531 95.910156 212.046875 92.308594 200.527344 92.308594 C 192.785156 92.308594 188.015625 93.75 182.886719 95.28125 L 182.347656 96 L 181.894531 105.808594 L 182.617188 106.171875 C 185.765625 104.910156 191.617188 102.570312 197.644531 102.570312 C 200.976562 102.570312 202.324219 103.109375 203.496094 104.28125 C 204.394531 105.179688 204.667969 106.800781 204.667969 108.148438 C 193.867188 109.589844 188.824219 110.578125 183.425781 113.910156 C 178.386719 117.058594 176.675781 122.191406 176.675781 126.238281 C 176.675781 135.871094 183.605469 142.078125 192.425781 142.078125 C 199.175781 142.078125 203.046875 138.839844 204.9375 137.308594 L 204.9375 140.640625 L 205.476562 141.269531 C 211.957031 141 213.9375 140.910156 219.785156 141 L 220.234375 140.371094 C 219.605469 131.550781 219.605469 129.300781 219.605469 120.839844 L 219.695312 114.179688 M 204.847656 128.488281 C 202.957031 129.570312 200.527344 130.828125 197.554688 130.828125 C 194.316406 130.828125 191.617188 129.121094 191.617188 125.339844 C 191.617188 119.398438 198.726562 118.410156 204.847656 117.601562 Z M 256.234375 107.609375 L 258.753906 92.941406 L 258.214844 92.308594 C 257.585938 92.308594 256.953125 92.21875 256.324219 92.21875 C 252.632812 92.21875 248.496094 94.289062 245.613281 100.949219 L 245.882812 92.671875 L 245.164062 91.949219 C 238.503906 93.390625 236.792969 93.660156 230.222656 94.648438 L 229.683594 95.191406 C 230.222656 101.941406 230.496094 105.988281 230.496094 118.5 C 230.496094 125.878906 230.402344 133.261719 230.222656 140.730469 L 230.765625 141.269531 C 237.425781 141 238.863281 140.910156 246.0625 141 L 246.515625 140.371094 C 246.152344 133.078125 245.613281 122.910156 245.613281 116.699219 C 245.613281 112.648438 245.613281 106.710938 251.734375 106.710938 C 253.265625 106.710938 254.164062 107.25 255.425781 107.96875 Z M 289.175781 130.648438 C 287.644531 131.101562 286.5625 131.460938 285.035156 131.460938 C 280.445312 131.460938 280.085938 128.578125 279.902344 127.230469 C 279.632812 124.890625 279.632812 119.941406 279.722656 116.339844 L 279.902344 103.648438 L 288.003906 104.011719 L 288.542969 103.46875 L 289.445312 93.839844 L 288.902344 93.300781 L 279.902344 93.300781 L 280.175781 78.179688 L 279.542969 77.640625 C 273.425781 79.441406 271.804688 79.890625 265.414062 81.511719 L 265.054688 82.140625 L 265.144531 93.390625 L 260.285156 93.210938 L 259.746094 93.660156 L 258.933594 103.289062 L 259.472656 103.828125 L 265.144531 103.648438 L 264.875 117.960938 C 264.785156 120.210938 264.695312 122.460938 264.695312 124.800781 C 264.695312 133.078125 264.875 141.988281 278.914062 141.988281 C 282.425781 141.988281 285.214844 141.449219 288.363281 140.910156 L 288.996094 140.28125 L 289.894531 131.011719 Z M 312.125 140.371094 C 311.671875 133.441406 311.3125 128.128906 311.3125 115.710938 C 311.3125 108.058594 311.492188 100.320312 311.582031 92.671875 L 310.953125 91.949219 L 295.472656 94.648438 L 294.933594 95.191406 C 295.652344 102.03125 295.921875 105.179688 295.921875 117.960938 C 295.921875 127.769531 295.652344 133.261719 295.382812 140.640625 L 295.921875 141.269531 C 302.402344 141 304.203125 140.910156 311.492188 141 L 312.125 140.371094 M 310.683594 83.308594 L 310.953125 71.070312 L 310.414062 70.53125 L 295.742188 72.328125 L 295.203125 72.960938 C 295.382812 76.199219 295.472656 78.089844 295.472656 80.25 C 295.472656 81.960938 295.472656 83.761719 295.382812 85.46875 L 296.011719 86.011719 C 302.132812 84.929688 303.84375 84.75 310.234375 83.941406 Z M 362.164062 114.179688 C 362.253906 106.078125 362.253906 102.570312 359.914062 98.789062 C 358.113281 95.910156 354.515625 92.308594 342.996094 92.308594 C 335.253906 92.308594 330.484375 93.75 325.355469 95.28125 L 324.816406 96 L 324.363281 105.808594 L 325.085938 106.171875 C 328.234375 104.910156 334.085938 102.570312 340.113281 102.570312 C 343.445312 102.570312 344.792969 103.109375 345.964844 104.28125 C 346.863281 105.179688 347.136719 106.800781 347.136719 108.148438 C 336.335938 109.589844 331.292969 110.578125 325.894531 113.910156 C 320.855469 117.058594 319.144531 122.191406 319.144531 126.238281 C 319.144531 135.871094 326.074219 142.078125 334.894531 142.078125 C 341.644531 142.078125 345.515625 138.839844 347.40625 137.308594 L 347.40625 140.640625 L 347.945312 141.269531 C 354.425781 141 356.40625 140.910156 362.253906 141 L 362.703125 140.371094 C 362.074219 131.550781 362.074219 129.300781 362.074219 120.839844 L 362.164062 114.179688 M 347.316406 128.488281 C 345.425781 129.570312 342.996094 130.828125 340.023438 130.828125 C 336.785156 130.828125 334.085938 129.121094 334.085938 125.339844 C 334.085938 119.398438 341.195312 118.410156 347.316406 117.601562 Z M 388.53125 140.371094 C 388.082031 130.019531 387.632812 120.570312 387.632812 92.128906 C 387.632812 83.578125 387.722656 79.53125 388.082031 69.808594 L 387.453125 69.179688 L 372.0625 71.609375 L 371.703125 72.148438 C 372.601562 83.128906 372.691406 86.101562 372.871094 100.679688 C 372.964844 105.988281 372.964844 111.300781 372.964844 116.609375 C 372.964844 126.328125 372.78125 131.730469 372.421875 140.640625 L 372.964844 141.269531 C 378.992188 141 381.421875 140.910156 387.992188 141 Z M 471.964844 124.890625 C 469.894531 126.511719 465.304688 129.929688 457.835938 129.929688 C 447.574219 129.929688 440.375 122.28125 440.375 109.5 C 440.375 101.761719 443.074219 88.171875 457.746094 88.171875 C 464.496094 88.171875 468.183594 90.78125 470.433594 92.488281 L 471.246094 92.308594 L 472.054688 79.890625 L 471.695312 79.441406 C 468.457031 78.179688 462.964844 76.109375 455.046875 76.109375 C 431.734375 76.109375 423.636719 94.109375 423.636719 109.859375 C 423.636719 127.140625 434.164062 142.351562 456.125 142.351562 C 463.683594 142.351562 468.636719 140.371094 471.515625 139.199219 L 471.964844 138.660156 L 472.59375 125.25 Z M 525.425781 117.058594 C 525.425781 113.550781 525.425781 98.96875 512.824219 94.019531 C 508.863281 92.488281 504.183594 92.308594 501.84375 92.308594 C 486.183594 92.308594 477.363281 100.679688 477.363281 117.238281 C 477.363281 123 478.265625 128.851562 481.59375 133.710938 C 483.933594 137.21875 488.34375 142.078125 501.214844 142.078125 C 520.292969 142.078125 525.425781 130.558594 525.425781 117.058594 M 509.855469 116.96875 C 509.855469 124.351562 508.863281 132.539062 501.394531 132.539062 C 499.054688 132.539062 497.433594 131.460938 496.355469 130.46875 C 494.824219 128.941406 493.113281 125.878906 493.113281 117.148438 C 493.113281 114.539062 493.113281 108.78125 494.914062 105.628906 C 496.265625 103.199219 498.605469 101.578125 501.484375 101.578125 C 504.003906 101.578125 506.074219 102.929688 507.246094 104.371094 C 509.40625 106.980469 509.855469 112.109375 509.855469 116.96875 Z M 559.175781 130.648438 C 557.644531 131.101562 556.5625 131.460938 555.035156 131.460938 C 550.445312 131.460938 550.085938 128.578125 549.902344 127.230469 C 549.632812 124.890625 549.632812 119.941406 549.722656 116.339844 L 549.902344 103.648438 L 558.003906 104.011719 L 558.542969 103.46875 L 559.445312 93.839844 L 558.902344 93.300781 L 549.902344 93.300781 L 550.175781 78.179688 L 549.542969 77.640625 C 543.425781 79.441406 541.804688 79.890625 535.414062 81.511719 L 535.054688 82.140625 L 535.144531 93.390625 L 530.285156 93.210938 L 529.746094 93.660156 L 528.933594 103.289062 L 529.472656 103.828125 L 535.144531 103.648438 L 534.875 117.960938 C 534.785156 120.210938 534.695312 122.460938 534.695312 124.800781 C 534.695312 133.078125 534.875 141.988281 548.914062 141.988281 C 552.425781 141.988281 555.214844 141.449219 558.363281 140.910156 L 558.996094 140.28125 L 559.894531 131.011719 Z M 591.035156 130.648438 C 589.503906 131.101562 588.421875 131.460938 586.894531 131.460938 C 582.304688 131.460938 581.945312 128.578125 581.761719 127.230469 C 581.492188 124.890625 581.492188 119.941406 581.582031 116.339844 L 581.761719 103.648438 L 589.863281 104.011719 L 590.402344 103.46875 L 591.304688 93.839844 L 590.761719 93.300781 L 581.761719 93.300781 L 582.035156 78.179688 L 581.402344 77.640625 C 575.285156 79.441406 573.664062 79.890625 567.273438 81.511719 L 566.914062 82.140625 L 567.003906 93.390625 L 562.144531 93.210938 L 561.605469 93.660156 L 560.792969 103.289062 L 561.332031 103.828125 L 567.003906 103.648438 L 566.734375 117.960938 C 566.644531 120.210938 566.554688 122.460938 566.554688 124.800781 C 566.554688 133.078125 566.734375 141.988281 580.773438 141.988281 C 584.285156 141.988281 587.074219 141.449219 590.222656 140.910156 L 590.855469 140.28125 L 591.753906 131.011719 Z M 613.53125 140.371094 C 613.082031 130.019531 612.632812 120.570312 612.632812 92.128906 C 612.632812 83.578125 612.722656 79.53125 613.082031 69.808594 L 612.453125 69.179688 L 597.0625 71.609375 L 596.703125 72.148438 C 597.601562 83.128906 597.691406 86.101562 597.871094 100.679688 C 597.964844 105.988281 597.964844 111.300781 597.964844 116.609375 C 597.964844 126.328125 597.78125 131.730469 597.421875 140.640625 L 597.964844 141.269531 C 603.992188 141 606.421875 140.910156 612.992188 141 Z M 663.933594 127.679688 C 660.515625 129.480469 656.464844 131.550781 649.894531 131.550781 C 644.496094 131.550781 640.804688 129.839844 638.644531 126.601562 C 637.292969 124.710938 637.023438 122.910156 636.664062 121.109375 L 665.734375 120.570312 L 666.273438 119.941406 C 666.183594 115.53125 666.09375 111.03125 664.835938 106.53125 C 661.683594 95.910156 654.753906 93.75 651.695312 93.03125 C 649.445312 92.398438 647.375 92.21875 645.304688 92.21875 C 631.175781 92.21875 621.8125 101.488281 621.8125 117.058594 C 621.8125 121.289062 622.535156 125.699219 623.972656 128.851562 C 629.195312 141 641.433594 142.078125 647.914062 142.078125 C 655.382812 142.078125 658.625 140.730469 663.394531 138.839844 L 663.933594 138.121094 L 664.5625 127.949219 L 663.933594 127.679688 M 636.664062 111.570312 C 636.933594 108.78125 637.5625 105 640.984375 102.839844 C 642.0625 102.121094 643.324219 101.851562 644.585938 101.851562 C 647.554688 101.851562 649.355469 103.378906 650.34375 105 C 651.605469 106.980469 651.695312 109.140625 651.695312 111.210938 Z M 712.894531 77.28125 L 701.464844 77.460938 L 700.921875 78 C 701.285156 89.699219 701.554688 97.53125 701.554688 107.878906 C 701.554688 118.859375 701.285156 129.75 701.011719 140.730469 L 701.554688 141.269531 C 708.214844 141 709.652344 140.910156 716.855469 141 L 717.304688 140.460938 C 716.945312 130.648438 716.945312 128.398438 716.945312 119.21875 C 727.023438 119.308594 737.824219 119.308594 744.304688 111.390625 C 746.824219 108.328125 748.984375 103.199219 748.984375 96.898438 C 748.984375 93.03125 748.082031 84.480469 740.613281 80.25 C 735.214844 77.101562 727.5625 77.101562 720.8125 77.101562 L 712.894531 77.28125 M 716.945312 88.171875 C 718.921875 88.078125 720.8125 88.078125 722.792969 88.078125 C 730.714844 88.261719 732.875 92.308594 732.875 97.53125 C 732.875 98.789062 732.875 104.011719 728.105469 106.621094 C 725.671875 107.96875 722.34375 108.148438 716.945312 108.148438 Z M 795.242188 114.179688 C 795.332031 106.078125 795.332031 102.570312 792.992188 98.789062 C 791.191406 95.910156 787.59375 92.308594 776.074219 92.308594 C 768.332031 92.308594 763.5625 93.75 758.433594 95.28125 L 757.894531 96 L 757.441406 105.808594 L 758.164062 106.171875 C 761.3125 104.910156 767.164062 102.570312 773.191406 102.570312 C 776.523438 102.570312 777.871094 103.109375 779.042969 104.28125 C 779.941406 105.179688 780.214844 106.800781 780.214844 108.148438 C 769.414062 109.589844 764.371094 110.578125 758.972656 113.910156 C 753.933594 117.058594 752.222656 122.191406 752.222656 126.238281 C 752.222656 135.871094 759.152344 142.078125 767.972656 142.078125 C 774.722656 142.078125 778.59375 138.839844 780.484375 137.308594 L 780.484375 140.640625 L 781.023438 141.269531 C 787.503906 141 789.484375 140.910156 795.332031 141 L 795.78125 140.371094 C 795.152344 131.550781 795.152344 129.300781 795.152344 120.839844 L 795.242188 114.179688 M 780.394531 128.488281 C 778.503906 129.570312 776.074219 130.828125 773.101562 130.828125 C 769.863281 130.828125 767.164062 129.121094 767.164062 125.339844 C 767.164062 119.398438 774.273438 118.410156 780.394531 117.601562 Z M 831.785156 107.609375 L 834.304688 92.941406 L 833.765625 92.308594 C 833.136719 92.308594 832.503906 92.21875 831.875 92.21875 C 828.183594 92.21875 824.046875 94.289062 821.164062 100.949219 L 821.433594 92.671875 L 820.714844 91.949219 C 814.054688 93.390625 812.34375 93.660156 805.773438 94.648438 L 805.234375 95.191406 C 805.773438 101.941406 806.046875 105.988281 806.046875 118.5 C 806.046875 125.878906 805.953125 133.261719 805.773438 140.730469 L 806.316406 141.269531 C 812.976562 141 814.414062 140.910156 821.613281 141 L 822.066406 140.371094 C 821.703125 133.078125 821.164062 122.910156 821.164062 116.699219 C 821.164062 112.648438 821.164062 106.710938 827.285156 106.710938 C 828.816406 106.710938 829.714844 107.25 830.976562 107.96875 Z M 885.785156 139.828125 C 877.324219 125.519531 876.425781 123.898438 869.585938 111.570312 C 875.796875 103.109375 876.425781 102.210938 882.816406 94.019531 L 882.363281 93.121094 L 867.695312 93.300781 L 866.796875 93.929688 C 859.773438 106.078125 858.875 107.519531 854.734375 113.730469 L 854.734375 103.738281 C 854.824219 86.910156 854.914062 83.308594 855.363281 69.71875 L 854.644531 69.179688 L 838.984375 71.519531 L 838.445312 72.148438 C 839.074219 80.878906 839.34375 85.109375 839.523438 96.898438 C 839.703125 111.480469 839.703125 126.058594 839.613281 140.640625 L 840.246094 141.269531 C 846.273438 141 847.984375 141 854.824219 141 L 855.363281 140.371094 L 854.824219 125.160156 L 854.734375 114.808594 C 862.566406 129.210938 863.554688 131.191406 868.144531 140.730469 L 868.953125 141.269531 L 885.15625 140.640625 Z M 884.703125 141 "/>
<path fill-rule="nonzero" fill="rgb(34.901961%, 14.901961%, 14.901961%)" fill-opacity="1" d="M 175.640625 222.300781 C 168.082031 219.148438 164.121094 217.53125 164.121094 213.480469 C 164.121094 210.691406 166.730469 207.179688 172.671875 207.179688 C 179.511719 207.179688 183.558594 209.96875 186.890625 212.21875 L 187.699219 211.859375 L 188.421875 200.070312 L 187.96875 199.441406 C 184.101562 197.820312 180.050781 196.109375 171.320312 196.109375 C 154.402344 196.109375 148.550781 205.648438 148.550781 215.28125 C 148.550781 226.171875 157.011719 230.128906 162.050781 232.558594 L 165.019531 233.910156 C 171.230469 236.519531 176 238.769531 176 243.539062 C 176 246.960938 173.03125 251.011719 165.199219 251.011719 C 157.011719 251.011719 152.421875 247.410156 149.808594 245.339844 L 148.910156 245.609375 L 148.28125 258.300781 L 148.820312 259.019531 C 149.808594 259.378906 150.800781 259.828125 151.789062 260.101562 C 153.859375 260.820312 159.171875 262.351562 165.921875 262.351562 C 168.621094 262.351562 175.460938 262.078125 180.859375 259.558594 C 188.421875 255.871094 191.660156 249.03125 191.660156 241.378906 C 191.660156 236.25 189.679688 230.761719 184.910156 227.070312 C 182.480469 225.269531 180.140625 224.191406 177.980469 223.199219 Z M 225.410156 250.648438 C 223.878906 251.101562 222.796875 251.460938 221.269531 251.460938 C 216.679688 251.460938 216.320312 248.578125 216.136719 247.230469 C 215.867188 244.890625 215.867188 239.941406 215.957031 236.339844 L 216.136719 223.648438 L 224.238281 224.011719 L 224.777344 223.46875 L 225.679688 213.839844 L 225.136719 213.300781 L 216.136719 213.300781 L 216.410156 198.179688 L 215.777344 197.640625 C 209.660156 199.441406 208.039062 199.890625 201.648438 201.511719 L 201.289062 202.140625 L 201.378906 213.390625 L 196.519531 213.210938 L 195.980469 213.660156 L 195.167969 223.289062 L 195.707031 223.828125 L 201.378906 223.648438 L 201.109375 237.960938 C 201.019531 240.210938 200.929688 242.460938 200.929688 244.800781 C 200.929688 253.078125 201.109375 261.988281 215.148438 261.988281 C 218.660156 261.988281 221.449219 261.449219 224.597656 260.910156 L 225.230469 260.28125 L 226.128906 251.011719 Z M 272.121094 234.179688 C 272.210938 226.078125 272.210938 222.570312 269.871094 218.789062 C 268.070312 215.910156 264.472656 212.308594 252.953125 212.308594 C 245.210938 212.308594 240.441406 213.75 235.3125 215.28125 L 234.773438 216 L 234.320312 225.808594 L 235.042969 226.171875 C 238.191406 224.910156 244.042969 222.570312 250.070312 222.570312 C 253.402344 222.570312 254.75 223.109375 255.921875 224.28125 C 256.820312 225.179688 257.09375 226.800781 257.09375 228.148438 C 246.292969 229.589844 241.25 230.578125 235.851562 233.910156 C 230.8125 237.058594 229.101562 242.191406 229.101562 246.238281 C 229.101562 255.871094 236.03125 262.078125 244.851562 262.078125 C 251.601562 262.078125 255.472656 258.839844 257.363281 257.308594 L 257.363281 260.640625 L 257.902344 261.269531 C 264.382812 261 266.363281 260.910156 272.210938 261 L 272.660156 260.371094 C 272.03125 251.550781 272.03125 249.300781 272.03125 240.839844 L 272.121094 234.179688 M 257.273438 248.488281 C 255.382812 249.570312 252.953125 250.828125 249.980469 250.828125 C 246.742188 250.828125 244.042969 249.121094 244.042969 245.339844 C 244.042969 239.398438 251.152344 238.410156 257.273438 237.601562 Z M 307.851562 250.648438 C 306.320312 251.101562 305.238281 251.460938 303.710938 251.460938 C 299.121094 251.460938 298.761719 248.578125 298.578125 247.230469 C 298.308594 244.890625 298.308594 239.941406 298.398438 236.339844 L 298.578125 223.648438 L 306.679688 224.011719 L 307.21875 223.46875 L 308.121094 213.839844 L 307.578125 213.300781 L 298.578125 213.300781 L 298.851562 198.179688 L 298.21875 197.640625 C 292.101562 199.441406 290.480469 199.890625 284.089844 201.511719 L 283.730469 202.140625 L 283.820312 213.390625 L 278.960938 213.210938 L 278.421875 213.660156 L 277.609375 223.289062 L 278.148438 223.828125 L 283.820312 223.648438 L 283.550781 237.960938 C 283.460938 240.210938 283.371094 242.460938 283.371094 244.800781 C 283.371094 253.078125 283.550781 261.988281 297.589844 261.988281 C 301.101562 261.988281 303.890625 261.449219 307.039062 260.910156 L 307.671875 260.28125 L 308.570312 251.011719 Z M 354.46875 247.679688 C 351.050781 249.480469 347 251.550781 340.429688 251.550781 C 335.03125 251.550781 331.339844 249.839844 329.179688 246.601562 C 327.828125 244.710938 327.558594 242.910156 327.199219 241.109375 L 356.269531 240.570312 L 356.808594 239.941406 C 356.71875 235.53125 356.628906 231.03125 355.371094 226.53125 C 352.21875 215.910156 345.289062 213.75 342.230469 213.03125 C 339.980469 212.398438 337.910156 212.21875 335.839844 212.21875 C 321.710938 212.21875 312.347656 221.488281 312.347656 237.058594 C 312.347656 241.289062 313.070312 245.699219 314.507812 248.851562 C 319.730469 261 331.96875 262.078125 338.449219 262.078125 C 345.917969 262.078125 349.160156 260.730469 353.929688 258.839844 L 354.46875 258.121094 L 355.097656 247.949219 L 354.46875 247.679688 M 327.199219 231.570312 C 327.46875 228.78125 328.097656 225 331.519531 222.839844 C 332.597656 222.121094 333.859375 221.851562 335.121094 221.851562 C 338.089844 221.851562 339.890625 223.378906 340.878906 225 C 342.140625 226.980469 342.230469 229.140625 342.230469 231.210938 Z M 411.707031 236.25 C 417.738281 246.511719 419.089844 249.210938 424.847656 261 L 425.570312 261.449219 C 428.359375 261.269531 431.058594 261.089844 433.847656 261 C 436.640625 260.910156 439.519531 260.820312 442.308594 260.820312 L 442.847656 259.738281 C 439.429688 255.328125 438.4375 253.980469 431.957031 243.628906 C 429.078125 239.039062 427.640625 236.609375 425.390625 232.648438 C 429.4375 230.851562 437.628906 227.070312 437.628906 215.640625 C 437.628906 211.679688 436.546875 203.488281 429.167969 199.621094 C 424.488281 197.191406 419.628906 197.101562 409.097656 197.28125 L 402.796875 197.371094 L 391.820312 197.371094 L 391.367188 197.910156 C 391.730469 207 392.089844 216.359375 392.089844 240.839844 C 392.089844 249.210938 392 253.261719 391.730469 260.730469 L 392.269531 261.269531 C 398.839844 261 400.277344 260.910156 407.660156 261 L 408.199219 260.460938 C 407.480469 250.019531 407.390625 247.140625 407.296875 236.429688 L 411.707031 236.25 M 407.480469 208.261719 C 408.738281 208.171875 410 208.171875 411.257812 208.171875 C 414.769531 208.171875 421.699219 208.171875 421.699219 216.089844 C 421.699219 218.609375 421.070312 221.941406 417.738281 224.011719 C 415.21875 225.539062 411.980469 225.71875 407.480469 225.808594 Z M 487.578125 247.679688 C 484.160156 249.480469 480.109375 251.550781 473.539062 251.550781 C 468.140625 251.550781 464.449219 249.839844 462.289062 246.601562 C 460.9375 244.710938 460.667969 242.910156 460.308594 241.109375 L 489.378906 240.570312 L 489.917969 239.941406 C 489.828125 235.53125 489.738281 231.03125 488.480469 226.53125 C 485.328125 215.910156 478.398438 213.75 475.339844 213.03125 C 473.089844 212.398438 471.019531 212.21875 468.949219 212.21875 C 454.820312 212.21875 445.457031 221.488281 445.457031 237.058594 C 445.457031 241.289062 446.179688 245.699219 447.617188 248.851562 C 452.839844 261 465.078125 262.078125 471.558594 262.078125 C 479.027344 262.078125 482.269531 260.730469 487.039062 258.839844 L 487.578125 258.121094 L 488.207031 247.949219 L 487.578125 247.679688 M 460.308594 231.570312 C 460.578125 228.78125 461.207031 225 464.628906 222.839844 C 465.707031 222.121094 466.96875 221.851562 468.230469 221.851562 C 471.199219 221.851562 473 223.378906 473.988281 225 C 475.25 226.980469 475.339844 229.140625 475.339844 231.210938 Z M 533.390625 248.039062 C 530.960938 249.480469 528.621094 250.921875 524.03125 250.921875 C 513.859375 250.921875 511.789062 242.460938 511.789062 237.058594 C 511.789062 230.488281 514.671875 222.929688 523.402344 222.929688 C 527.359375 222.929688 529.519531 224.371094 532.222656 226.171875 L 533.121094 225.898438 C 533.480469 221.128906 533.570312 219.871094 534.289062 215.101562 L 533.839844 214.558594 C 529.878906 213.300781 526.460938 212.21875 521.242188 212.21875 C 500.089844 212.21875 495.949219 228.238281 495.949219 237.421875 C 495.949219 247.769531 501.351562 261.808594 521.601562 261.808594 C 526.371094 261.808594 529.429688 260.910156 533.210938 259.828125 L 533.75 259.289062 L 534.109375 248.488281 Z M 567.320312 227.609375 L 569.839844 212.941406 L 569.300781 212.308594 C 568.671875 212.308594 568.039062 212.21875 567.410156 212.21875 C 563.71875 212.21875 559.582031 214.289062 556.699219 220.949219 L 556.96875 212.671875 L 556.25 211.949219 C 549.589844 213.390625 547.878906 213.660156 541.308594 214.648438 L 540.769531 215.191406 C 541.308594 221.941406 541.582031 225.988281 541.582031 238.5 C 541.582031 245.878906 541.488281 253.261719 541.308594 260.730469 L 541.851562 261.269531 C 548.511719 261 549.949219 260.910156 557.148438 261 L 557.601562 260.371094 C 557.238281 253.078125 556.699219 242.910156 556.699219 236.699219 C 556.699219 232.648438 556.699219 226.710938 562.820312 226.710938 C 564.351562 226.710938 565.25 227.25 566.511719 227.96875 Z M 615.019531 247.679688 C 611.601562 249.480469 607.550781 251.550781 600.980469 251.550781 C 595.582031 251.550781 591.890625 249.839844 589.730469 246.601562 C 588.378906 244.710938 588.109375 242.910156 587.75 241.109375 L 616.820312 240.570312 L 617.359375 239.941406 C 617.269531 235.53125 617.179688 231.03125 615.921875 226.53125 C 612.769531 215.910156 605.839844 213.75 602.78125 213.03125 C 600.53125 212.398438 598.460938 212.21875 596.390625 212.21875 C 582.261719 212.21875 572.898438 221.488281 572.898438 237.058594 C 572.898438 241.289062 573.621094 245.699219 575.058594 248.851562 C 580.28125 261 592.519531 262.078125 599 262.078125 C 606.46875 262.078125 609.710938 260.730469 614.480469 258.839844 L 615.019531 258.121094 L 615.648438 247.949219 L 615.019531 247.679688 M 587.75 231.570312 C 588.019531 228.78125 588.648438 225 592.070312 222.839844 C 593.148438 222.121094 594.410156 221.851562 595.671875 221.851562 C 598.640625 221.851562 600.441406 223.378906 601.429688 225 C 602.691406 226.980469 602.78125 229.140625 602.78125 231.210938 Z M 665.691406 234.179688 C 665.78125 226.078125 665.78125 222.570312 663.441406 218.789062 C 661.640625 215.910156 658.042969 212.308594 646.523438 212.308594 C 638.78125 212.308594 634.011719 213.75 628.882812 215.28125 L 628.34375 216 L 627.890625 225.808594 L 628.613281 226.171875 C 631.761719 224.910156 637.613281 222.570312 643.640625 222.570312 C 646.972656 222.570312 648.320312 223.109375 649.492188 224.28125 C 650.390625 225.179688 650.664062 226.800781 650.664062 228.148438 C 639.863281 229.589844 634.820312 230.578125 629.421875 233.910156 C 624.382812 237.058594 622.671875 242.191406 622.671875 246.238281 C 622.671875 255.871094 629.601562 262.078125 638.421875 262.078125 C 645.171875 262.078125 649.042969 258.839844 650.933594 257.308594 L 650.933594 260.640625 L 651.472656 261.269531 C 657.953125 261 659.933594 260.910156 665.78125 261 L 666.230469 260.371094 C 665.601562 251.550781 665.601562 249.300781 665.601562 240.839844 L 665.691406 234.179688 M 650.84375 248.488281 C 648.953125 249.570312 646.523438 250.828125 643.550781 250.828125 C 640.3125 250.828125 637.613281 249.121094 637.613281 245.339844 C 637.613281 239.398438 644.722656 238.410156 650.84375 237.601562 Z M 701.421875 250.648438 C 699.890625 251.101562 698.808594 251.460938 697.28125 251.460938 C 692.691406 251.460938 692.332031 248.578125 692.148438 247.230469 C 691.878906 244.890625 691.878906 239.941406 691.96875 236.339844 L 692.148438 223.648438 L 700.25 224.011719 L 700.789062 223.46875 L 701.691406 213.839844 L 701.148438 213.300781 L 692.148438 213.300781 L 692.421875 198.179688 L 691.789062 197.640625 C 685.671875 199.441406 684.050781 199.890625 677.660156 201.511719 L 677.300781 202.140625 L 677.390625 213.390625 L 672.53125 213.210938 L 671.992188 213.660156 L 671.179688 223.289062 L 671.71875 223.828125 L 677.390625 223.648438 L 677.121094 237.960938 C 677.03125 240.210938 676.941406 242.460938 676.941406 244.800781 C 676.941406 253.078125 677.121094 261.988281 691.160156 261.988281 C 694.671875 261.988281 697.460938 261.449219 700.609375 260.910156 L 701.242188 260.28125 L 702.140625 251.011719 Z M 724.371094 260.371094 C 723.917969 253.441406 723.558594 248.128906 723.558594 235.710938 C 723.558594 228.058594 723.738281 220.320312 723.828125 212.671875 L 723.199219 211.949219 L 707.71875 214.648438 L 707.179688 215.191406 C 707.898438 222.03125 708.167969 225.179688 708.167969 237.960938 C 708.167969 247.769531 707.898438 253.261719 707.628906 260.640625 L 708.167969 261.269531 C 714.648438 261 716.449219 260.910156 723.738281 261 L 724.371094 260.371094 M 722.929688 203.308594 L 723.199219 191.070312 L 722.660156 190.53125 L 707.988281 192.328125 L 707.449219 192.960938 C 707.628906 196.199219 707.71875 198.089844 707.71875 200.25 C 707.71875 201.960938 707.71875 203.761719 707.628906 205.46875 L 708.257812 206.011719 C 714.378906 204.929688 716.089844 204.75 722.480469 203.941406 Z M 780.171875 237.058594 C 780.171875 233.550781 780.171875 218.96875 767.570312 214.019531 C 763.609375 212.488281 758.929688 212.308594 756.589844 212.308594 C 740.929688 212.308594 732.109375 220.679688 732.109375 237.238281 C 732.109375 243 733.011719 248.851562 736.339844 253.710938 C 738.679688 257.21875 743.089844 262.078125 755.960938 262.078125 C 775.039062 262.078125 780.171875 250.558594 780.171875 237.058594 M 764.601562 236.96875 C 764.601562 244.351562 763.609375 252.539062 756.140625 252.539062 C 753.800781 252.539062 752.179688 251.460938 751.101562 250.46875 C 749.570312 248.941406 747.859375 245.878906 747.859375 237.148438 C 747.859375 234.539062 747.859375 228.78125 749.660156 225.628906 C 751.011719 223.199219 753.351562 221.578125 756.230469 221.578125 C 758.75 221.578125 760.820312 222.929688 761.992188 224.371094 C 764.152344 226.980469 764.601562 232.109375 764.601562 236.96875 Z M 832.820312 260.371094 C 832.371094 252.449219 832.371094 249.929688 832.191406 241.109375 L 832.191406 234.089844 C 832.101562 225.449219 832.011719 221.308594 829.761719 217.621094 C 826.96875 212.941406 821.839844 212.21875 818.601562 212.21875 C 813.109375 212.21875 808.339844 215.101562 804.199219 217.53125 L 804.378906 212.578125 L 803.480469 211.949219 C 796.550781 213.390625 795.019531 213.660156 788.269531 214.558594 L 787.730469 215.191406 C 788.449219 223.019531 788.992188 228.691406 788.992188 243.359375 C 788.992188 249.121094 788.898438 254.878906 788.808594 260.640625 L 789.351562 261.179688 C 795.832031 260.910156 797.179688 260.910156 804.378906 260.910156 L 804.921875 260.371094 C 804.378906 246.511719 804.289062 243 804.199219 226.890625 C 806.089844 225.628906 808.25 224.101562 811.128906 224.101562 C 816.082031 224.101562 816.53125 229.410156 816.800781 232.648438 C 816.980469 235.621094 817.070312 247.949219 817.070312 251.371094 C 817.070312 254.429688 816.980469 257.578125 816.980469 260.640625 L 817.519531 261.179688 C 823.460938 261 824.992188 260.910156 832.191406 260.910156 Z M 837.679688 261 "/>
<path fill-rule="nonzero" fill="rgb(34.901961%, 14.901961%, 14.901961%)" fill-opacity="1" d="M 433.175781 317.191406 C 424.535156 317.460938 422.734375 317.460938 413.105469 317.460938 L 412.472656 318 C 407.703125 333.300781 404.824219 342.390625 391.59375 380.371094 L 391.953125 381 L 405.992188 381 L 406.625 380.460938 L 411.035156 364.078125 L 430.472656 364.078125 L 434.34375 380.730469 L 434.972656 381.269531 C 441.542969 381 443.34375 380.910156 450.632812 381 L 451.085938 380.28125 C 440.195312 341.761719 438.933594 337.53125 433.804688 317.730469 L 433.175781 317.191406 M 414.183594 353.191406 L 418.683594 337.980469 L 421.835938 327.449219 L 424.535156 339.148438 L 427.863281 353.191406 Z M 482.855469 347.609375 L 485.375 332.941406 L 484.835938 332.308594 C 484.207031 332.308594 483.574219 332.21875 482.945312 332.21875 C 479.253906 332.21875 475.117188 334.289062 472.234375 340.949219 L 472.503906 332.671875 L 471.785156 331.949219 C 465.125 333.390625 463.414062 333.660156 456.84375 334.648438 L 456.304688 335.191406 C 456.84375 341.941406 457.117188 345.988281 457.117188 358.5 C 457.117188 365.878906 457.023438 373.261719 456.84375 380.730469 L 457.386719 381.269531 C 464.046875 381 465.484375 380.910156 472.683594 381 L 473.136719 380.371094 C 472.773438 373.078125 472.234375 362.910156 472.234375 356.699219 C 472.234375 352.648438 472.234375 346.710938 478.355469 346.710938 C 479.886719 346.710938 480.785156 347.25 482.046875 347.96875 Z M 530.554688 367.679688 C 527.136719 369.480469 523.085938 371.550781 516.515625 371.550781 C 511.117188 371.550781 507.425781 369.839844 505.265625 366.601562 C 503.914062 364.710938 503.644531 362.910156 503.285156 361.109375 L 532.355469 360.570312 L 532.894531 359.941406 C 532.804688 355.53125 532.714844 351.03125 531.457031 346.53125 C 528.304688 335.910156 521.375 333.75 518.316406 333.03125 C 516.066406 332.398438 513.996094 332.21875 511.925781 332.21875 C 497.796875 332.21875 488.433594 341.488281 488.433594 357.058594 C 488.433594 361.289062 489.15625 365.699219 490.59375 368.851562 C 495.816406 381 508.054688 382.078125 514.535156 382.078125 C 522.003906 382.078125 525.246094 380.730469 530.015625 378.839844 L 530.554688 378.121094 L 531.183594 367.949219 L 530.554688 367.679688 M 503.285156 351.570312 C 503.554688 348.78125 504.183594 345 507.605469 342.839844 C 508.683594 342.121094 509.945312 341.851562 511.207031 341.851562 C 514.175781 341.851562 515.976562 343.378906 516.964844 345 C 518.226562 346.980469 518.316406 349.140625 518.316406 351.210938 Z M 581.222656 354.179688 C 581.3125 346.078125 581.3125 342.570312 578.972656 338.789062 C 577.171875 335.910156 573.574219 332.308594 562.054688 332.308594 C 554.3125 332.308594 549.542969 333.75 544.414062 335.28125 L 543.875 336 L 543.421875 345.808594 L 544.144531 346.171875 C 547.292969 344.910156 553.144531 342.570312 559.171875 342.570312 C 562.503906 342.570312 563.851562 343.109375 565.023438 344.28125 C 565.921875 345.179688 566.195312 346.800781 566.195312 348.148438 C 555.394531 349.589844 550.351562 350.578125 544.953125 353.910156 C 539.914062 357.058594 538.203125 362.191406 538.203125 366.238281 C 538.203125 375.871094 545.132812 382.078125 553.953125 382.078125 C 560.703125 382.078125 564.574219 378.839844 566.464844 377.308594 L 566.464844 380.640625 L 567.003906 381.269531 C 573.484375 381 575.464844 380.910156 581.3125 381 L 581.761719 380.371094 C 581.132812 371.550781 581.132812 369.300781 581.132812 360.839844 L 581.222656 354.179688 M 566.375 368.488281 C 564.484375 369.570312 562.054688 370.828125 559.082031 370.828125 C 555.84375 370.828125 553.144531 369.121094 553.144531 365.339844 C 553.144531 359.398438 560.253906 358.410156 566.375 357.601562 Z M 586.355469 381 "/>
</svg>
