<?xml version="1.0" encoding="UTF-8"?>
<svg xmlns="http://www.w3.org/2000/svg" xmlns:xlink="http://www.w3.org/1999/xlink" width="975" height="1300" viewBox="0 0 975 1300">
<path fill-rule="nonzero" fill="rgb(98.823529%, 78.823529%, 9.019608%)" fill-opacity="1" d="M 50 50 L 925 50 L 925 410 L 50 410 Z M 50 50 "/>
<path fill-rule="nonzero" fill="rgb(34.901961%, 14.901961%, 14.901961%)" fill-opacity="1" d="M 167.628906 141.179688 C 169.878906 141.359375 171.589844 141.539062 173.660156 141.539062 C 194 141.539062 194 129.300781 194 120.300781 C 194 118.050781 193.910156 115.800781 193.820312 113.550781 L 193.820312 77.730469 L 193.371094 77.191406 C 186.4375 77.460938 185 77.460938 177.53125 77.460938 L 177.078125 78 C 177.53125 90.78125 177.890625 101.851562 177.890625 114.898438 C 177.890625 123.179688 177.890625 129.570312 170.960938 129.570312 C 169.609375 129.570312 168.890625 129.300781 167.71875 128.941406 L 167.179688 129.480469 L 167.179688 140.550781 Z M 244.578125 127.679688 C 241.160156 129.480469 237.109375 131.550781 230.539062 131.550781 C 225.140625 131.550781 221.449219 129.839844 219.289062 126.601562 C 217.9375 124.710938 217.667969 122.910156 217.308594 121.109375 L 246.378906 120.570312 L 246.917969 119.941406 C 246.828125 115.53125 246.738281 111.03125 245.480469 106.53125 C 242.328125 95.910156 235.398438 93.75 232.339844 93.03125 C 230.089844 92.398438 228.019531 92.21875 225.949219 92.21875 C 211.820312 92.21875 202.457031 101.488281 202.457031 117.058594 C 202.457031 121.289062 203.179688 125.699219 204.617188 128.851562 C 209.839844 141 222.078125 142.078125 228.558594 142.078125 C 236.027344 142.078125 239.269531 140.730469 244.039062 138.839844 L 244.578125 138.121094 L 245.207031 127.949219 L 244.578125 127.679688 M 217.308594 111.570312 C 217.578125 108.78125 218.207031 105 221.628906 102.839844 C 222.707031 102.121094 223.96875 101.851562 225.230469 101.851562 C 228.199219 101.851562 230 103.378906 230.988281 105 C 232.25 106.980469 232.339844 109.140625 232.339844 111.210938 Z M 299.300781 140.460938 C 298.941406 132.359375 298.671875 126.960938 298.671875 115.171875 C 298.671875 91.410156 299.03125 81.601562 299.390625 69.71875 L 298.761719 69.179688 L 283.910156 71.519531 L 283.460938 72.058594 C 284 80.519531 284.089844 82.769531 284 93.03125 C 277.25 92.851562 268.789062 92.671875 261.949219 98.070312 C 255.652344 102.929688 253.039062 110.398438 253.039062 119.671875 C 253.039062 126.691406 254.929688 133.710938 260.242188 138.121094 C 264.199219 141.359375 269.0625 142.078125 272.03125 142.078125 C 278.421875 142.078125 281.75 139.109375 283.910156 137.21875 L 283.730469 140.730469 L 284.179688 141.269531 C 290.390625 141 292.101562 141 298.851562 141 L 299.300781 140.460938 M 284 103.828125 C 284.089844 115.800781 284 118.140625 283.730469 129.03125 C 281.929688 130.109375 280.128906 131.191406 277.609375 131.191406 C 268.878906 131.191406 268.878906 120.03125 268.878906 118.230469 C 268.878906 111.300781 270.859375 103.558594 280.941406 103.558594 C 281.929688 103.558594 282.742188 103.648438 284 103.828125 Z M 349.519531 127.679688 C 346.101562 129.480469 342.050781 131.550781 335.480469 131.550781 C 330.082031 131.550781 326.390625 129.839844 324.230469 126.601562 C 322.878906 124.710938 322.609375 122.910156 322.25 121.109375 L 351.320312 120.570312 L 351.859375 119.941406 C 351.769531 115.53125 351.679688 111.03125 350.421875 106.53125 C 347.269531 95.910156 340.339844 93.75 337.28125 93.03125 C 335.03125 92.398438 332.960938 92.21875 330.890625 92.21875 C 316.761719 92.21875 307.398438 101.488281 307.398438 117.058594 C 307.398438 121.289062 308.121094 125.699219 309.558594 128.851562 C 314.78125 141 327.019531 142.078125 333.5 142.078125 C 340.96875 142.078125 344.210938 140.730469 348.980469 138.839844 L 349.519531 138.121094 L 350.148438 127.949219 L 349.519531 127.679688 M 322.25 111.570312 C 322.519531 108.78125 323.148438 105 326.570312 102.839844 C 327.648438 102.121094 328.910156 101.851562 330.171875 101.851562 C 333.140625 101.851562 334.941406 103.378906 335.929688 105 C 337.191406 106.980469 337.28125 109.140625 337.28125 111.210938 Z M 404.238281 140.460938 C 403.878906 132.359375 403.609375 126.960938 403.609375 115.171875 C 403.609375 91.410156 403.96875 81.601562 404.328125 69.71875 L 403.699219 69.179688 L 388.847656 71.519531 L 388.398438 72.058594 C 388.9375 80.519531 389.027344 82.769531 388.9375 93.03125 C 382.1875 92.851562 373.726562 92.671875 366.886719 98.070312 C 360.589844 102.929688 357.976562 110.398438 357.976562 119.671875 C 357.976562 126.691406 359.867188 133.710938 365.179688 138.121094 C 369.136719 141.359375 374 142.078125 376.96875 142.078125 C 383.359375 142.078125 386.6875 139.109375 388.847656 137.21875 L 388.667969 140.730469 L 389.117188 141.269531 C 395.328125 141 397.039062 141 403.789062 141 L 404.238281 140.460938 M 388.9375 103.828125 C 389.027344 115.800781 388.9375 118.140625 388.667969 129.03125 C 386.867188 130.109375 385.066406 131.191406 382.546875 131.191406 C 373.816406 131.191406 373.816406 120.03125 373.816406 118.230469 C 373.816406 111.300781 375.796875 103.558594 385.878906 103.558594 C 386.867188 103.558594 387.679688 103.648438 388.9375 103.828125 Z M 430.789062 140.371094 C 430.335938 133.441406 429.976562 128.128906 429.976562 115.710938 C 429.976562 108.058594 430.15625 100.320312 430.246094 92.671875 L 429.617188 91.949219 L 414.136719 94.648438 L 413.597656 95.191406 C 414.316406 102.03125 414.585938 105.179688 414.585938 117.960938 C 414.585938 127.769531 414.316406 133.261719 414.046875 140.640625 L 414.585938 141.269531 C 421.066406 141 422.867188 140.910156 430.15625 141 L 430.789062 140.371094 M 429.347656 83.308594 L 429.617188 71.070312 L 429.078125 70.53125 L 414.40625 72.328125 L 413.867188 72.960938 C 414.046875 76.199219 414.136719 78.089844 414.136719 80.25 C 414.136719 81.960938 414.136719 83.761719 414.046875 85.46875 L 414.675781 86.011719 C 420.796875 84.929688 422.507812 84.75 428.898438 83.941406 Z M 480.828125 114.179688 C 480.917969 106.078125 480.917969 102.570312 478.578125 98.789062 C 476.777344 95.910156 473.179688 92.308594 461.660156 92.308594 C 453.917969 92.308594 449.148438 93.75 444.019531 95.28125 L 443.480469 96 L 443.027344 105.808594 L 443.75 106.171875 C 446.898438 104.910156 452.75 102.570312 458.777344 102.570312 C 462.109375 102.570312 463.457031 103.109375 464.628906 104.28125 C 465.527344 105.179688 465.800781 106.800781 465.800781 108.148438 C 455 109.589844 449.957031 110.578125 444.558594 113.910156 C 439.519531 117.058594 437.808594 122.191406 437.808594 126.238281 C 437.808594 135.871094 444.738281 142.078125 453.558594 142.078125 C 460.308594 142.078125 464.179688 138.839844 466.070312 137.308594 L 466.070312 140.640625 L 466.609375 141.269531 C 473.089844 141 475.070312 140.910156 480.917969 141 L 481.367188 140.371094 C 480.738281 131.550781 480.738281 129.300781 480.738281 120.839844 L 480.828125 114.179688 M 465.980469 128.488281 C 464.089844 129.570312 461.660156 130.828125 458.6875 130.828125 C 455.449219 130.828125 452.75 129.121094 452.75 125.339844 C 452.75 119.398438 459.859375 118.410156 465.980469 117.601562 Z M 535.460938 140.371094 C 535.101562 132.988281 535.011719 130.46875 534.832031 121.109375 L 534.832031 114.359375 C 534.742188 105.808594 534.652344 100.859375 532.039062 97.078125 C 529.429688 93.390625 525.652344 92.21875 521.691406 92.21875 C 515.121094 92.21875 509.992188 95.371094 506.390625 97.53125 L 506.660156 69.808594 L 506.121094 69.179688 L 490.730469 71.609375 L 490.28125 72.148438 C 491.089844 80.878906 491.269531 84.121094 491.449219 95.730469 C 491.632812 103.019531 491.722656 110.308594 491.722656 117.601562 C 491.722656 126.511719 491.539062 131.820312 491.359375 140.640625 L 491.8125 141.269531 C 498.472656 140.910156 499.820312 140.910156 507.109375 140.910156 L 507.652344 140.371094 C 507.019531 126.871094 506.929688 122.820312 506.839844 106.890625 C 508.550781 105.71875 510.710938 104.191406 513.769531 104.191406 C 518.722656 104.191406 519.082031 109.320312 519.441406 112.921875 C 519.621094 115.710938 519.710938 128.488281 519.710938 131.820312 C 519.710938 134.789062 519.621094 137.671875 519.621094 140.640625 L 520.070312 141.269531 C 526.550781 140.910156 527.992188 140.910156 534.921875 140.910156 Z M 598.007812 102.300781 C 590.449219 99.148438 586.488281 97.53125 586.488281 93.480469 C 586.488281 90.691406 589.097656 87.179688 595.039062 87.179688 C 601.878906 87.179688 605.925781 89.96875 609.257812 92.21875 L 610.066406 91.859375 L 610.789062 80.070312 L 610.335938 79.441406 C 606.46875 77.820312 602.417969 76.109375 593.6875 76.109375 C 576.769531 76.109375 570.917969 85.648438 570.917969 95.28125 C 570.917969 106.171875 579.378906 110.128906 584.417969 112.558594 L 587.386719 113.910156 C 593.597656 116.519531 598.367188 118.769531 598.367188 123.539062 C 598.367188 126.960938 595.398438 131.011719 587.566406 131.011719 C 579.378906 131.011719 574.789062 127.410156 572.175781 125.339844 L 571.277344 125.609375 L 570.648438 138.300781 L 571.1875 139.019531 C 572.175781 139.378906 573.167969 139.828125 574.15625 140.101562 C 576.226562 140.820312 581.539062 142.351562 588.289062 142.351562 C 590.988281 142.351562 597.828125 142.078125 603.226562 139.558594 C 610.789062 135.871094 614.027344 129.03125 614.027344 121.378906 C 614.027344 116.25 612.046875 110.761719 607.277344 107.070312 C 604.847656 105.269531 602.507812 104.191406 600.347656 103.199219 Z M 692.871094 140.371094 C 692.417969 132 692.328125 129.660156 692.328125 119.488281 L 692.328125 112.738281 C 692.417969 106.710938 692.507812 101.128906 689.898438 97.351562 C 686.390625 92.21875 680.179688 92.21875 678.738281 92.21875 C 671.359375 92.21875 666.410156 95.550781 662.808594 98.070312 C 661.550781 96 659.300781 92.21875 652.101562 92.21875 C 646.160156 92.21875 642.289062 94.921875 638.148438 97.800781 L 638.148438 92.761719 L 637.339844 91.949219 C 630.320312 93.300781 628.339844 93.660156 622.039062 94.558594 L 621.5 95.191406 C 622.21875 102.390625 622.757812 107.339844 622.757812 125.160156 C 622.757812 130.289062 622.667969 135.511719 622.667969 140.640625 L 623.121094 141.179688 C 628.878906 141 630.859375 140.910156 638.328125 140.910156 L 638.871094 140.371094 C 638.238281 126.511719 638.148438 122.371094 638.058594 106.710938 C 639.949219 105.359375 642.019531 104.191406 644.269531 104.191406 C 649.851562 104.191406 650.03125 110.578125 650.03125 118.320312 C 650.03125 131.371094 649.941406 133.351562 649.757812 140.640625 L 650.300781 141.269531 C 657.140625 140.910156 659.03125 140.910156 665.238281 140.910156 L 665.78125 140.371094 C 665.238281 131.820312 665.148438 129.300781 665.058594 118.410156 L 665.058594 115.078125 L 664.96875 105.988281 C 666.5 105 668.480469 103.738281 671.179688 103.738281 C 676.308594 103.738281 677.121094 108.601562 677.121094 116.339844 C 677.121094 118.050781 677.03125 119.761719 677.03125 121.46875 C 676.941406 124.53125 676.851562 137.941406 676.757812 140.640625 L 677.300781 141.179688 C 684.050781 140.910156 686.03125 140.910156 692.328125 140.910156 Z M 719.511719 140.371094 C 719.058594 133.441406 718.699219 128.128906 718.699219 115.710938 C 718.699219 108.058594 718.878906 100.320312 718.96875 92.671875 L 718.339844 91.949219 L 702.859375 94.648438 L 702.320312 95.191406 C 703.039062 102.03125 703.308594 105.179688 703.308594 117.960938 C 703.308594 127.769531 703.039062 133.261719 702.769531 140.640625 L 703.308594 141.269531 C 709.789062 141 711.589844 140.910156 718.878906 141 L 719.511719 140.371094 M 718.070312 83.308594 L 718.339844 71.070312 L 717.800781 70.53125 L 703.128906 72.328125 L 702.589844 72.960938 C 702.769531 76.199219 702.859375 78.089844 702.859375 80.25 C 702.859375 81.960938 702.859375 83.761719 702.769531 85.46875 L 703.398438 86.011719 C 709.519531 84.929688 711.230469 84.75 717.621094 83.941406 Z M 754.699219 130.648438 C 753.167969 131.101562 752.085938 131.460938 750.558594 131.460938 C 745.96875 131.460938 745.609375 128.578125 745.425781 127.230469 C 745.15625 124.890625 745.15625 119.941406 745.246094 116.339844 L 745.425781 103.648438 L 753.527344 104.011719 L 754.066406 103.46875 L 754.96875 93.839844 L 754.425781 93.300781 L 745.425781 93.300781 L 745.699219 78.179688 L 745.066406 77.640625 C 738.949219 79.441406 737.328125 79.890625 730.9375 81.511719 L 730.578125 82.140625 L 730.667969 93.390625 L 725.808594 93.210938 L 725.269531 93.660156 L 724.457031 103.289062 L 724.996094 103.828125 L 730.667969 103.648438 L 730.398438 117.960938 C 730.308594 120.210938 730.21875 122.460938 730.21875 124.800781 C 730.21875 133.078125 730.398438 141.988281 744.4375 141.988281 C 747.949219 141.988281 750.738281 141.449219 753.886719 140.910156 L 754.519531 140.28125 L 755.417969 131.011719 Z M 805.460938 140.371094 C 805.101562 132.988281 805.011719 130.46875 804.832031 121.109375 L 804.832031 114.359375 C 804.742188 105.808594 804.652344 100.859375 802.039062 97.078125 C 799.429688 93.390625 795.652344 92.21875 791.691406 92.21875 C 785.121094 92.21875 779.992188 95.371094 776.390625 97.53125 L 776.660156 69.808594 L 776.121094 69.179688 L 760.730469 71.609375 L 760.28125 72.148438 C 761.089844 80.878906 761.269531 84.121094 761.449219 95.730469 C 761.632812 103.019531 761.722656 110.308594 761.722656 117.601562 C 761.722656 126.511719 761.539062 131.820312 761.359375 140.640625 L 761.8125 141.269531 C 768.472656 140.910156 769.820312 140.910156 777.109375 140.910156 L 777.652344 140.371094 C 777.019531 126.871094 776.929688 122.820312 776.839844 106.890625 C 778.550781 105.71875 780.710938 104.191406 783.769531 104.191406 C 788.722656 104.191406 789.082031 109.320312 789.441406 112.921875 C 789.621094 115.710938 789.710938 128.488281 789.710938 131.820312 C 789.710938 134.789062 789.621094 137.671875 789.621094 140.640625 L 790.070312 141.269531 C 796.550781 140.910156 797.992188 140.910156 804.921875 140.910156 Z M 810.320312 141 "/>
<path fill-rule="nonzero" fill="rgb(34.901961%, 14.901961%, 14.901961%)" fill-opacity="1" d="M 175.277344 236.25 C 181.308594 246.511719 182.660156 249.210938 188.417969 261 L 189.140625 261.449219 C 191.929688 261.269531 194.628906 261.089844 197.417969 261 C 200.210938 260.910156 203.089844 260.820312 205.878906 260.820312 L 206.417969 259.738281 C 203 255.328125 202.007812 253.980469 195.527344 243.628906 C 192.648438 239.039062 191.210938 236.609375 188.960938 232.648438 C 193.007812 230.851562 201.199219 227.070312 201.199219 215.640625 C 201.199219 211.679688 200.117188 203.488281 192.738281 199.621094 C 188.058594 197.191406 183.199219 197.101562 172.667969 197.28125 L 166.367188 197.371094 L 155.390625 197.371094 L 154.9375 197.910156 C 155.300781 207 155.660156 216.359375 155.660156 240.839844 C 155.660156 249.210938 155.570312 253.261719 155.300781 260.730469 L 155.839844 261.269531 C 162.410156 261 163.847656 260.910156 171.230469 261 L 171.769531 260.460938 C 171.050781 250.019531 170.960938 247.140625 170.867188 236.429688 L 175.277344 236.25 M 171.050781 208.261719 C 172.308594 208.171875 173.570312 208.171875 174.828125 208.171875 C 178.339844 208.171875 185.269531 208.171875 185.269531 216.089844 C 185.269531 218.609375 184.640625 221.941406 181.308594 224.011719 C 178.789062 225.539062 175.550781 225.71875 171.050781 225.808594 Z M 251.148438 247.679688 C 247.730469 249.480469 243.679688 251.550781 237.109375 251.550781 C 231.710938 251.550781 228.019531 249.839844 225.859375 246.601562 C 224.507812 244.710938 224.238281 242.910156 223.878906 241.109375 L 252.949219 240.570312 L 253.488281 239.941406 C 253.398438 235.53125 253.308594 231.03125 252.050781 226.53125 C 248.898438 215.910156 241.96875 213.75 238.910156 213.03125 C 236.660156 212.398438 234.589844 212.21875 232.519531 212.21875 C 218.390625 212.21875 209.027344 221.488281 209.027344 237.058594 C 209.027344 241.289062 209.75 245.699219 211.1875 248.851562 C 216.410156 261 228.648438 262.078125 235.128906 262.078125 C 242.597656 262.078125 245.839844 260.730469 250.609375 258.839844 L 251.148438 258.121094 L 251.777344 247.949219 L 251.148438 247.679688 M 223.878906 231.570312 C 224.148438 228.78125 224.777344 225 228.199219 222.839844 C 229.277344 222.121094 230.539062 221.851562 231.800781 221.851562 C 234.769531 221.851562 236.570312 223.378906 237.558594 225 C 238.820312 226.980469 238.910156 229.140625 238.910156 231.210938 Z M 305.867188 260.460938 C 305.507812 252.359375 305.238281 246.960938 305.238281 235.171875 C 305.238281 211.410156 305.597656 201.601562 305.957031 189.71875 L 305.328125 189.179688 L 290.476562 191.519531 L 290.027344 192.058594 C 290.566406 200.519531 290.65625 202.769531 290.566406 213.03125 C 283.816406 212.851562 275.355469 212.671875 268.515625 218.070312 C 262.21875 222.929688 259.605469 230.398438 259.605469 239.671875 C 259.605469 246.691406 261.496094 253.710938 266.808594 258.121094 C 270.765625 261.359375 275.628906 262.078125 278.597656 262.078125 C 284.988281 262.078125 288.316406 259.109375 290.476562 257.21875 L 290.296875 260.730469 L 290.746094 261.269531 C 296.957031 261 298.667969 261 305.417969 261 L 305.867188 260.460938 M 290.566406 223.828125 C 290.65625 235.800781 290.566406 238.140625 290.296875 249.03125 C 288.496094 250.109375 286.695312 251.191406 284.175781 251.191406 C 275.445312 251.191406 275.445312 240.03125 275.445312 238.230469 C 275.445312 231.300781 277.425781 223.558594 287.507812 223.558594 C 288.496094 223.558594 289.308594 223.648438 290.566406 223.828125 Z M 371.75 260.371094 C 375.351562 246.421875 375.980469 244.261719 381.378906 224.910156 C 382.460938 221.21875 383.449219 217.441406 384.441406 213.75 L 383.902344 213.03125 L 372.199219 213.300781 L 371.570312 213.929688 L 368.960938 227.429688 L 366.441406 238.320312 L 364.730469 246.601562 L 363.199219 238.589844 L 361.21875 229.230469 L 358.070312 213.660156 L 357.53125 213.03125 L 340.25 213.300781 L 339.621094 213.929688 L 336.652344 228.691406 L 334.492188 238.589844 L 332.78125 246.871094 L 331.070312 237.960938 L 328.910156 228.238281 L 325.851562 213.300781 L 325.308594 212.851562 L 310.730469 213.929688 L 310.191406 214.648438 C 318.652344 244.351562 320 249.660156 322.519531 260.730469 L 323.152344 261.269531 C 329.359375 261 331.609375 260.910156 339.890625 261 L 340.429688 260.371094 L 342.769531 249.390625 L 345.289062 238.5 L 347.539062 227.609375 L 348.890625 234.449219 L 350.242188 241.109375 L 354.019531 260.640625 L 354.652344 261.269531 C 361.308594 261 364.011719 260.910156 371.210938 261 Z M 435.019531 237.058594 C 435.019531 233.550781 435.019531 218.96875 422.417969 214.019531 C 418.457031 212.488281 413.777344 212.308594 411.4375 212.308594 C 395.777344 212.308594 386.957031 220.679688 386.957031 237.238281 C 386.957031 243 387.859375 248.851562 391.1875 253.710938 C 393.527344 257.21875 397.9375 262.078125 410.808594 262.078125 C 429.886719 262.078125 435.019531 250.558594 435.019531 237.058594 M 419.449219 236.96875 C 419.449219 244.351562 418.457031 252.539062 410.988281 252.539062 C 408.648438 252.539062 407.027344 251.460938 405.949219 250.46875 C 404.417969 248.941406 402.707031 245.878906 402.707031 237.148438 C 402.707031 234.539062 402.707031 228.78125 404.507812 225.628906 C 405.859375 223.199219 408.199219 221.578125 411.078125 221.578125 C 413.597656 221.578125 415.667969 222.929688 416.839844 224.371094 C 419 226.980469 419.449219 232.109375 419.449219 236.96875 Z M 489.378906 237.058594 C 489.378906 233.550781 489.378906 218.96875 476.777344 214.019531 C 472.816406 212.488281 468.136719 212.308594 465.796875 212.308594 C 450.136719 212.308594 441.316406 220.679688 441.316406 237.238281 C 441.316406 243 442.21875 248.851562 445.546875 253.710938 C 447.886719 257.21875 452.296875 262.078125 465.167969 262.078125 C 484.246094 262.078125 489.378906 250.558594 489.378906 237.058594 M 473.808594 236.96875 C 473.808594 244.351562 472.816406 252.539062 465.347656 252.539062 C 463.007812 252.539062 461.386719 251.460938 460.308594 250.46875 C 458.777344 248.941406 457.066406 245.878906 457.066406 237.148438 C 457.066406 234.539062 457.066406 228.78125 458.867188 225.628906 C 460.21875 223.199219 462.558594 221.578125 465.4375 221.578125 C 467.957031 221.578125 470.027344 222.929688 471.199219 224.371094 C 473.359375 226.980469 473.808594 232.109375 473.808594 236.96875 Z M 542.027344 260.460938 C 541.667969 252.359375 541.398438 246.960938 541.398438 235.171875 C 541.398438 211.410156 541.757812 201.601562 542.117188 189.71875 L 541.488281 189.179688 L 526.636719 191.519531 L 526.1875 192.058594 C 526.726562 200.519531 526.816406 202.769531 526.726562 213.03125 C 519.976562 212.851562 511.515625 212.671875 504.675781 218.070312 C 498.378906 222.929688 495.765625 230.398438 495.765625 239.671875 C 495.765625 246.691406 497.65625 253.710938 502.96875 258.121094 C 506.925781 261.359375 511.789062 262.078125 514.757812 262.078125 C 521.148438 262.078125 524.476562 259.109375 526.636719 257.21875 L 526.457031 260.730469 L 526.90625 261.269531 C 533.117188 261 534.828125 261 541.578125 261 L 542.027344 260.460938 M 526.726562 223.828125 C 526.816406 235.800781 526.726562 238.140625 526.457031 249.03125 C 524.65625 250.109375 522.855469 251.191406 520.335938 251.191406 C 511.605469 251.191406 511.605469 240.03125 511.605469 238.230469 C 511.605469 231.300781 513.585938 223.558594 523.667969 223.558594 C 524.65625 223.558594 525.46875 223.648438 526.726562 223.828125 Z M 571.191406 229.949219 C 568.128906 228.871094 565.699219 227.878906 565.699219 225.359375 C 565.699219 224.28125 566.421875 221.308594 572 221.308594 C 577.492188 221.308594 581 223.648438 583.25 225.089844 L 584.0625 224.820312 L 584.960938 215.011719 L 584.511719 214.46875 C 580.28125 213.300781 576.589844 212.21875 570.742188 212.21875 C 566.332031 212.21875 557.511719 212.578125 552.832031 219.328125 C 551.660156 220.949219 550.402344 223.648438 550.402344 227.25 C 550.402344 236.878906 557.871094 239.761719 562.101562 241.378906 L 565.519531 242.640625 C 567.949219 243.449219 571.910156 244.800781 571.910156 248.039062 C 571.910156 250.289062 569.839844 252.71875 564.800781 252.71875 C 562.28125 252.71875 558.589844 251.910156 555.261719 250.199219 C 553.730469 249.390625 553.011719 248.761719 551.660156 247.679688 L 550.851562 248.039062 C 550.671875 252.71875 550.582031 253.710938 550.21875 258.210938 L 550.671875 259.019531 C 555.082031 260.640625 558.859375 262.078125 565.429688 262.078125 C 572.269531 262.078125 585.769531 260.820312 587.390625 247.949219 C 587.480469 247.230469 587.480469 246.601562 587.480469 245.96875 C 587.480469 236.070312 580.550781 233.460938 575.601562 231.570312 Z M 647.6875 222.300781 C 640.128906 219.148438 636.167969 217.53125 636.167969 213.480469 C 636.167969 210.691406 638.777344 207.179688 644.71875 207.179688 C 651.558594 207.179688 655.605469 209.96875 658.9375 212.21875 L 659.746094 211.859375 L 660.46875 200.070312 L 660.015625 199.441406 C 656.148438 197.820312 652.097656 196.109375 643.367188 196.109375 C 626.449219 196.109375 620.597656 205.648438 620.597656 215.28125 C 620.597656 226.171875 629.058594 230.128906 634.097656 232.558594 L 637.066406 233.910156 C 643.277344 236.519531 648.046875 238.769531 648.046875 243.539062 C 648.046875 246.960938 645.078125 251.011719 637.246094 251.011719 C 629.058594 251.011719 624.46875 247.410156 621.855469 245.339844 L 620.957031 245.609375 L 620.328125 258.300781 L 620.867188 259.019531 C 621.855469 259.378906 622.847656 259.828125 623.835938 260.101562 C 625.90625 260.820312 631.21875 262.351562 637.96875 262.351562 C 640.667969 262.351562 647.507812 262.078125 652.90625 259.558594 C 660.46875 255.871094 663.707031 249.03125 663.707031 241.378906 C 663.707031 236.25 661.726562 230.761719 656.957031 227.070312 C 654.527344 225.269531 652.1875 224.191406 650.027344 223.199219 Z M 697.460938 250.648438 C 695.929688 251.101562 694.847656 251.460938 693.320312 251.460938 C 688.730469 251.460938 688.371094 248.578125 688.1875 247.230469 C 687.917969 244.890625 687.917969 239.941406 688.007812 236.339844 L 688.1875 223.648438 L 696.289062 224.011719 L 696.828125 223.46875 L 697.730469 213.839844 L 697.1875 213.300781 L 688.1875 213.300781 L 688.460938 198.179688 L 687.828125 197.640625 C 681.710938 199.441406 680.089844 199.890625 673.699219 201.511719 L 673.339844 202.140625 L 673.429688 213.390625 L 668.570312 213.210938 L 668.03125 213.660156 L 667.21875 223.289062 L 667.757812 223.828125 L 673.429688 223.648438 L 673.160156 237.960938 C 673.070312 240.210938 672.980469 242.460938 672.980469 244.800781 C 672.980469 253.078125 673.160156 261.988281 687.199219 261.988281 C 690.710938 261.988281 693.5 261.449219 696.648438 260.910156 L 697.28125 260.28125 L 698.179688 251.011719 Z M 744.167969 234.179688 C 744.257812 226.078125 744.257812 222.570312 741.917969 218.789062 C 740.117188 215.910156 736.519531 212.308594 725 212.308594 C 717.257812 212.308594 712.488281 213.75 707.359375 215.28125 L 706.820312 216 L 706.367188 225.808594 L 707.089844 226.171875 C 710.238281 224.910156 716.089844 222.570312 722.117188 222.570312 C 725.449219 222.570312 726.796875 223.109375 727.96875 224.28125 C 728.867188 225.179688 729.140625 226.800781 729.140625 228.148438 C 718.339844 229.589844 713.296875 230.578125 707.898438 233.910156 C 702.859375 237.058594 701.148438 242.191406 701.148438 246.238281 C 701.148438 255.871094 708.078125 262.078125 716.898438 262.078125 C 723.648438 262.078125 727.519531 258.839844 729.410156 257.308594 L 729.410156 260.640625 L 729.949219 261.269531 C 736.429688 261 738.410156 260.910156 744.257812 261 L 744.707031 260.371094 C 744.078125 251.550781 744.078125 249.300781 744.078125 240.839844 L 744.167969 234.179688 M 729.320312 248.488281 C 727.429688 249.570312 725 250.828125 722.027344 250.828125 C 718.789062 250.828125 716.089844 249.121094 716.089844 245.339844 C 716.089844 239.398438 723.199219 238.410156 729.320312 237.601562 Z M 779.902344 250.648438 C 778.371094 251.101562 777.289062 251.460938 775.761719 251.460938 C 771.171875 251.460938 770.8125 248.578125 770.628906 247.230469 C 770.359375 244.890625 770.359375 239.941406 770.449219 236.339844 L 770.628906 223.648438 L 778.730469 224.011719 L 779.269531 223.46875 L 780.171875 213.839844 L 779.628906 213.300781 L 770.628906 213.300781 L 770.902344 198.179688 L 770.269531 197.640625 C 764.152344 199.441406 762.53125 199.890625 756.140625 201.511719 L 755.78125 202.140625 L 755.871094 213.390625 L 751.011719 213.210938 L 750.472656 213.660156 L 749.660156 223.289062 L 750.199219 223.828125 L 755.871094 223.648438 L 755.601562 237.960938 C 755.511719 240.210938 755.421875 242.460938 755.421875 244.800781 C 755.421875 253.078125 755.601562 261.988281 769.640625 261.988281 C 773.152344 261.988281 775.941406 261.449219 779.089844 260.910156 L 779.722656 260.28125 L 780.621094 251.011719 Z M 826.519531 247.679688 C 823.101562 249.480469 819.050781 251.550781 812.480469 251.550781 C 807.082031 251.550781 803.390625 249.839844 801.230469 246.601562 C 799.878906 244.710938 799.609375 242.910156 799.25 241.109375 L 828.320312 240.570312 L 828.859375 239.941406 C 828.769531 235.53125 828.679688 231.03125 827.421875 226.53125 C 824.269531 215.910156 817.339844 213.75 814.28125 213.03125 C 812.03125 212.398438 809.960938 212.21875 807.890625 212.21875 C 793.761719 212.21875 784.398438 221.488281 784.398438 237.058594 C 784.398438 241.289062 785.121094 245.699219 786.558594 248.851562 C 791.78125 261 804.019531 262.078125 810.5 262.078125 C 817.96875 262.078125 821.210938 260.730469 825.980469 258.839844 L 826.519531 258.121094 L 827.148438 247.949219 L 826.519531 247.679688 M 799.25 231.570312 C 799.519531 228.78125 800.148438 225 803.570312 222.839844 C 804.648438 222.121094 805.910156 221.851562 807.171875 221.851562 C 810.140625 221.851562 811.941406 223.378906 812.929688 225 C 814.191406 226.980469 814.28125 229.140625 814.28125 231.210938 Z M 831.738281 261 "/>
<path fill-rule="nonzero" fill="rgb(34.901961%, 14.901961%, 14.901961%)" fill-opacity="1" d="M 411.53125 317.28125 L 400.101562 317.460938 L 399.558594 318 C 399.921875 329.699219 400.191406 337.53125 400.191406 347.878906 C 400.191406 358.859375 399.921875 369.75 399.648438 380.730469 L 400.191406 381.269531 C 406.851562 381 408.289062 380.910156 415.492188 381 L 415.941406 380.460938 C 415.582031 370.648438 415.582031 368.398438 415.582031 359.21875 C 425.660156 359.308594 436.460938 359.308594 442.941406 351.390625 C 445.460938 348.328125 447.621094 343.199219 447.621094 336.898438 C 447.621094 333.03125 446.71875 324.480469 439.25 320.25 C 433.851562 317.101562 426.199219 317.101562 419.449219 317.101562 L 411.53125 317.28125 M 415.582031 328.171875 C 417.558594 328.078125 419.449219 328.078125 421.429688 328.078125 C 429.351562 328.261719 431.511719 332.308594 431.511719 337.53125 C 431.511719 338.789062 431.511719 344.011719 426.742188 346.621094 C 424.308594 347.96875 420.980469 348.148438 415.582031 348.148438 Z M 493.878906 354.179688 C 493.96875 346.078125 493.96875 342.570312 491.628906 338.789062 C 489.828125 335.910156 486.230469 332.308594 474.710938 332.308594 C 466.96875 332.308594 462.199219 333.75 457.070312 335.28125 L 456.53125 336 L 456.078125 345.808594 L 456.800781 346.171875 C 459.949219 344.910156 465.800781 342.570312 471.828125 342.570312 C 475.160156 342.570312 476.507812 343.109375 477.679688 344.28125 C 478.578125 345.179688 478.851562 346.800781 478.851562 348.148438 C 468.050781 349.589844 463.007812 350.578125 457.609375 353.910156 C 452.570312 357.058594 450.859375 362.191406 450.859375 366.238281 C 450.859375 375.871094 457.789062 382.078125 466.609375 382.078125 C 473.359375 382.078125 477.230469 378.839844 479.121094 377.308594 L 479.121094 380.640625 L 479.660156 381.269531 C 486.140625 381 488.121094 380.910156 493.96875 381 L 494.417969 380.371094 C 493.789062 371.550781 493.789062 369.300781 493.789062 360.839844 L 493.878906 354.179688 M 479.03125 368.488281 C 477.140625 369.570312 474.710938 370.828125 471.738281 370.828125 C 468.5 370.828125 465.800781 369.121094 465.800781 365.339844 C 465.800781 359.398438 472.910156 358.410156 479.03125 357.601562 Z M 530.421875 347.609375 L 532.941406 332.941406 L 532.402344 332.308594 C 531.773438 332.308594 531.140625 332.21875 530.511719 332.21875 C 526.820312 332.21875 522.683594 334.289062 519.800781 340.949219 L 520.070312 332.671875 L 519.351562 331.949219 C 512.691406 333.390625 510.980469 333.660156 504.410156 334.648438 L 503.871094 335.191406 C 504.410156 341.941406 504.683594 345.988281 504.683594 358.5 C 504.683594 365.878906 504.589844 373.261719 504.410156 380.730469 L 504.953125 381.269531 C 511.613281 381 513.050781 380.910156 520.25 381 L 520.703125 380.371094 C 520.339844 373.078125 519.800781 362.910156 519.800781 356.699219 C 519.800781 352.648438 519.800781 346.710938 525.921875 346.710938 C 527.453125 346.710938 528.351562 347.25 529.613281 347.96875 Z M 584.421875 379.828125 C 575.960938 365.519531 575.0625 363.898438 568.222656 351.570312 C 574.433594 343.109375 575.0625 342.210938 581.453125 334.019531 L 581 333.121094 L 566.332031 333.300781 L 565.433594 333.929688 C 558.410156 346.078125 557.511719 347.519531 553.371094 353.730469 L 553.371094 343.738281 C 553.460938 326.910156 553.550781 323.308594 554 309.71875 L 553.28125 309.179688 L 537.621094 311.519531 L 537.082031 312.148438 C 537.710938 320.878906 537.980469 325.109375 538.160156 336.898438 C 538.339844 351.480469 538.339844 366.058594 538.25 380.640625 L 538.882812 381.269531 C 544.910156 381 546.621094 381 553.460938 381 L 554 380.371094 L 553.460938 365.160156 L 553.371094 354.808594 C 561.203125 369.210938 562.191406 371.191406 566.78125 380.730469 L 567.589844 381.269531 L 583.792969 380.640625 Z M 583.339844 381 "/>
</svg>
