<?xml version="1.0" encoding="UTF-8"?>
<svg xmlns="http://www.w3.org/2000/svg" xmlns:xlink="http://www.w3.org/1999/xlink" width="975" height="1300" viewBox="0 0 975 1300">
<path fill-rule="nonzero" fill="rgb(98.823529%, 78.823529%, 9.019608%)" fill-opacity="1" d="M 50 50 L 925 50 L 925 410 L 50 410 Z M 50 50 "/>
<path fill-rule="nonzero" fill="rgb(34.901961%, 14.901961%, 14.901961%)" fill-opacity="1" d="M 235.3125 77.28125 L 223.882812 77.460938 L 223.339844 78 C 223.703125 89.699219 223.972656 97.53125 223.972656 107.878906 C 223.972656 118.859375 223.703125 129.75 223.429688 140.730469 L 223.972656 141.269531 C 230.632812 141 232.070312 140.910156 239.273438 141 L 239.722656 140.460938 C 239.363281 130.648438 239.363281 128.398438 239.363281 119.21875 C 249.441406 119.308594 260.242188 119.308594 266.722656 111.390625 C 269.242188 108.328125 271.402344 103.199219 271.402344 96.898438 C 271.402344 93.03125 270.5 84.480469 263.03125 80.25 C 257.632812 77.101562 249.980469 77.101562 243.230469 77.101562 L 235.3125 77.28125 M 239.363281 88.171875 C 241.339844 88.078125 243.230469 88.078125 245.210938 88.078125 C 253.132812 88.261719 255.292969 92.308594 255.292969 97.53125 C 255.292969 98.789062 255.292969 104.011719 250.523438 106.621094 C 248.089844 107.96875 244.761719 108.148438 239.363281 108.148438 Z M 303.621094 107.609375 L 306.140625 92.941406 L 305.601562 92.308594 C 304.972656 92.308594 304.339844 92.21875 303.710938 92.21875 C 300.019531 92.21875 295.882812 94.289062 293 100.949219 L 293.269531 92.671875 L 292.550781 91.949219 C 285.890625 93.390625 284.179688 93.660156 277.609375 94.648438 L 277.070312 95.191406 C 277.609375 101.941406 277.882812 105.988281 277.882812 118.5 C 277.882812 125.878906 277.789062 133.261719 277.609375 140.730469 L 278.152344 141.269531 C 284.8125 141 286.25 140.910156 293.449219 141 L 293.902344 140.371094 C 293.539062 133.078125 293 122.910156 293 116.699219 C 293 112.648438 293 106.710938 299.121094 106.710938 C 300.652344 106.710938 301.550781 107.25 302.8125 107.96875 Z M 351.410156 114.179688 C 351.5 106.078125 351.5 102.570312 349.160156 98.789062 C 347.359375 95.910156 343.761719 92.308594 332.242188 92.308594 C 324.5 92.308594 319.730469 93.75 314.601562 95.28125 L 314.0625 96 L 313.609375 105.808594 L 314.332031 106.171875 C 317.480469 104.910156 323.332031 102.570312 329.359375 102.570312 C 332.691406 102.570312 334.039062 103.109375 335.210938 104.28125 C 336.109375 105.179688 336.382812 106.800781 336.382812 108.148438 C 325.582031 109.589844 320.539062 110.578125 315.140625 113.910156 C 310.101562 117.058594 308.390625 122.191406 308.390625 126.238281 C 308.390625 135.871094 315.320312 142.078125 324.140625 142.078125 C 330.890625 142.078125 334.761719 138.839844 336.652344 137.308594 L 336.652344 140.640625 L 337.191406 141.269531 C 343.671875 141 345.652344 140.910156 351.5 141 L 351.949219 140.371094 C 351.320312 131.550781 351.320312 129.300781 351.320312 120.839844 L 351.410156 114.179688 M 336.5625 128.488281 C 334.671875 129.570312 332.242188 130.828125 329.269531 130.828125 C 326.03125 130.828125 323.332031 129.121094 323.332031 125.339844 C 323.332031 119.398438 330.441406 118.410156 336.5625 117.601562 Z M 378.234375 140.371094 C 377.78125 133.441406 377.421875 128.128906 377.421875 115.710938 C 377.421875 108.058594 377.601562 100.320312 377.691406 92.671875 L 377.0625 91.949219 L 361.582031 94.648438 L 361.042969 95.191406 C 361.761719 102.03125 362.03125 105.179688 362.03125 117.960938 C 362.03125 127.769531 361.761719 133.261719 361.492188 140.640625 L 362.03125 141.269531 C 368.511719 141 370.3125 140.910156 377.601562 141 L 378.234375 140.371094 M 376.792969 83.308594 L 377.0625 71.070312 L 376.523438 70.53125 L 361.851562 72.328125 L 361.3125 72.960938 C 361.492188 76.199219 361.582031 78.089844 361.582031 80.25 C 361.582031 81.960938 361.582031 83.761719 361.492188 85.46875 L 362.121094 86.011719 C 368.242188 84.929688 369.953125 84.75 376.34375 83.941406 Z M 414.230469 107.609375 L 416.75 92.941406 L 416.210938 92.308594 C 415.582031 92.308594 414.949219 92.21875 414.320312 92.21875 C 410.628906 92.21875 406.492188 94.289062 403.609375 100.949219 L 403.878906 92.671875 L 403.160156 91.949219 C 396.5 93.390625 394.789062 93.660156 388.21875 94.648438 L 387.679688 95.191406 C 388.21875 101.941406 388.492188 105.988281 388.492188 118.5 C 388.492188 125.878906 388.398438 133.261719 388.21875 140.730469 L 388.761719 141.269531 C 395.421875 141 396.859375 140.910156 404.058594 141 L 404.511719 140.371094 C 404.148438 133.078125 403.609375 122.910156 403.609375 116.699219 C 403.609375 112.648438 403.609375 106.710938 409.730469 106.710938 C 411.261719 106.710938 412.160156 107.25 413.421875 107.96875 Z M 438.261719 140.371094 C 437.808594 133.441406 437.449219 128.128906 437.449219 115.710938 C 437.449219 108.058594 437.628906 100.320312 437.71875 92.671875 L 437.089844 91.949219 L 421.609375 94.648438 L 421.070312 95.191406 C 421.789062 102.03125 422.058594 105.179688 422.058594 117.960938 C 422.058594 127.769531 421.789062 133.261719 421.519531 140.640625 L 422.058594 141.269531 C 428.539062 141 430.339844 140.910156 437.628906 141 L 438.261719 140.371094 M 436.820312 83.308594 L 437.089844 71.070312 L 436.550781 70.53125 L 421.878906 72.328125 L 421.339844 72.960938 C 421.519531 76.199219 421.609375 78.089844 421.609375 80.25 C 421.609375 81.960938 421.609375 83.761719 421.519531 85.46875 L 422.148438 86.011719 C 428.269531 84.929688 429.980469 84.75 436.371094 83.941406 Z M 488.210938 127.679688 C 484.792969 129.480469 480.742188 131.550781 474.171875 131.550781 C 468.773438 131.550781 465.082031 129.839844 462.921875 126.601562 C 461.570312 124.710938 461.300781 122.910156 460.941406 121.109375 L 490.011719 120.570312 L 490.550781 119.941406 C 490.460938 115.53125 490.371094 111.03125 489.113281 106.53125 C 485.960938 95.910156 479.03125 93.75 475.972656 93.03125 C 473.722656 92.398438 471.652344 92.21875 469.582031 92.21875 C 455.453125 92.21875 446.089844 101.488281 446.089844 117.058594 C 446.089844 121.289062 446.8125 125.699219 448.25 128.851562 C 453.472656 141 465.710938 142.078125 472.191406 142.078125 C 479.660156 142.078125 482.902344 140.730469 487.671875 138.839844 L 488.210938 138.121094 L 488.839844 127.949219 L 488.210938 127.679688 M 460.941406 111.570312 C 461.210938 108.78125 461.839844 105 465.261719 102.839844 C 466.339844 102.121094 467.601562 101.851562 468.863281 101.851562 C 471.832031 101.851562 473.632812 103.378906 474.621094 105 C 475.882812 106.980469 475.972656 109.140625 475.972656 111.210938 Z M 571.820312 124.890625 C 569.75 126.511719 565.160156 129.929688 557.691406 129.929688 C 547.429688 129.929688 540.230469 122.28125 540.230469 109.5 C 540.230469 101.761719 542.929688 88.171875 557.601562 88.171875 C 564.351562 88.171875 568.039062 90.78125 570.289062 92.488281 L 571.101562 92.308594 L 571.910156 79.890625 L 571.550781 79.441406 C 568.3125 78.179688 562.820312 76.109375 554.902344 76.109375 C 531.589844 76.109375 523.492188 94.109375 523.492188 109.859375 C 523.492188 127.140625 534.019531 142.351562 555.980469 142.351562 C 563.539062 142.351562 568.492188 140.371094 571.371094 139.199219 L 571.820312 138.660156 L 572.449219 125.25 Z M 605.480469 107.609375 L 608 92.941406 L 607.460938 92.308594 C 606.832031 92.308594 606.199219 92.21875 605.570312 92.21875 C 601.878906 92.21875 597.742188 94.289062 594.859375 100.949219 L 595.128906 92.671875 L 594.410156 91.949219 C 587.75 93.390625 586.039062 93.660156 579.46875 94.648438 L 578.929688 95.191406 C 579.46875 101.941406 579.742188 105.988281 579.742188 118.5 C 579.742188 125.878906 579.648438 133.261719 579.46875 140.730469 L 580.011719 141.269531 C 586.671875 141 588.109375 140.910156 595.308594 141 L 595.761719 140.371094 C 595.398438 133.078125 594.859375 122.910156 594.859375 116.699219 C 594.859375 112.648438 594.859375 106.710938 600.980469 106.710938 C 602.511719 106.710938 603.410156 107.25 604.671875 107.96875 Z M 653.179688 127.679688 C 649.761719 129.480469 645.710938 131.550781 639.140625 131.550781 C 633.742188 131.550781 630.050781 129.839844 627.890625 126.601562 C 626.539062 124.710938 626.269531 122.910156 625.910156 121.109375 L 654.980469 120.570312 L 655.519531 119.941406 C 655.429688 115.53125 655.339844 111.03125 654.082031 106.53125 C 650.929688 95.910156 644 93.75 640.941406 93.03125 C 638.691406 92.398438 636.621094 92.21875 634.550781 92.21875 C 620.421875 92.21875 611.058594 101.488281 611.058594 117.058594 C 611.058594 121.289062 611.78125 125.699219 613.21875 128.851562 C 618.441406 141 630.679688 142.078125 637.160156 142.078125 C 644.628906 142.078125 647.871094 140.730469 652.640625 138.839844 L 653.179688 138.121094 L 653.808594 127.949219 L 653.179688 127.679688 M 625.910156 111.570312 C 626.179688 108.78125 626.808594 105 630.230469 102.839844 C 631.308594 102.121094 632.570312 101.851562 633.832031 101.851562 C 636.800781 101.851562 638.601562 103.378906 639.589844 105 C 640.851562 106.980469 640.941406 109.140625 640.941406 111.210938 Z M 703.761719 127.679688 C 700.34375 129.480469 696.292969 131.550781 689.722656 131.550781 C 684.324219 131.550781 680.632812 129.839844 678.472656 126.601562 C 677.121094 124.710938 676.851562 122.910156 676.492188 121.109375 L 705.5625 120.570312 L 706.101562 119.941406 C 706.011719 115.53125 705.921875 111.03125 704.664062 106.53125 C 701.511719 95.910156 694.582031 93.75 691.523438 93.03125 C 689.273438 92.398438 687.203125 92.21875 685.132812 92.21875 C 671.003906 92.21875 661.640625 101.488281 661.640625 117.058594 C 661.640625 121.289062 662.363281 125.699219 663.800781 128.851562 C 669.023438 141 681.261719 142.078125 687.742188 142.078125 C 695.210938 142.078125 698.453125 140.730469 703.222656 138.839844 L 703.761719 138.121094 L 704.390625 127.949219 L 703.761719 127.679688 M 676.492188 111.570312 C 676.761719 108.78125 677.390625 105 680.8125 102.839844 C 681.890625 102.121094 683.152344 101.851562 684.414062 101.851562 C 687.382812 101.851562 689.183594 103.378906 690.171875 105 C 691.433594 106.980469 691.523438 109.140625 691.523438 111.210938 Z M 760.640625 139.828125 C 752.179688 125.519531 751.28125 123.898438 744.441406 111.570312 C 750.652344 103.109375 751.28125 102.210938 757.671875 94.019531 L 757.21875 93.121094 L 742.550781 93.300781 L 741.652344 93.929688 C 734.628906 106.078125 733.730469 107.519531 729.589844 113.730469 L 729.589844 103.738281 C 729.679688 86.910156 729.769531 83.308594 730.21875 69.71875 L 729.5 69.179688 L 713.839844 71.519531 L 713.300781 72.148438 C 713.929688 80.878906 714.199219 85.109375 714.378906 96.898438 C 714.558594 111.480469 714.558594 126.058594 714.46875 140.640625 L 715.101562 141.269531 C 721.128906 141 722.839844 141 729.679688 141 L 730.21875 140.371094 L 729.679688 125.160156 L 729.589844 114.808594 C 737.421875 129.210938 738.410156 131.191406 743 140.730469 L 743.808594 141.269531 L 760.011719 140.640625 Z M 759.5625 141 "/>
<path fill-rule="nonzero" fill="rgb(34.901961%, 14.901961%, 14.901961%)" fill-opacity="1" d="M 175.277344 236.25 C 181.308594 246.511719 182.660156 249.210938 188.417969 261 L 189.140625 261.449219 C 191.929688 261.269531 194.628906 261.089844 197.417969 261 C 200.210938 260.910156 203.089844 260.820312 205.878906 260.820312 L 206.417969 259.738281 C 203 255.328125 202.007812 253.980469 195.527344 243.628906 C 192.648438 239.039062 191.210938 236.609375 188.960938 232.648438 C 193.007812 230.851562 201.199219 227.070312 201.199219 215.640625 C 201.199219 211.679688 200.117188 203.488281 192.738281 199.621094 C 188.058594 197.191406 183.199219 197.101562 172.667969 197.28125 L 166.367188 197.371094 L 155.390625 197.371094 L 154.9375 197.910156 C 155.300781 207 155.660156 216.359375 155.660156 240.839844 C 155.660156 249.210938 155.570312 253.261719 155.300781 260.730469 L 155.839844 261.269531 C 162.410156 261 163.847656 260.910156 171.230469 261 L 171.769531 260.460938 C 171.050781 250.019531 170.960938 247.140625 170.867188 236.429688 L 175.277344 236.25 M 171.050781 208.261719 C 172.308594 208.171875 173.570312 208.171875 174.828125 208.171875 C 178.339844 208.171875 185.269531 208.171875 185.269531 216.089844 C 185.269531 218.609375 184.640625 221.941406 181.308594 224.011719 C 178.789062 225.539062 175.550781 225.71875 171.050781 225.808594 Z M 251.148438 247.679688 C 247.730469 249.480469 243.679688 251.550781 237.109375 251.550781 C 231.710938 251.550781 228.019531 249.839844 225.859375 246.601562 C 224.507812 244.710938 224.238281 242.910156 223.878906 241.109375 L 252.949219 240.570312 L 253.488281 239.941406 C 253.398438 235.53125 253.308594 231.03125 252.050781 226.53125 C 248.898438 215.910156 241.96875 213.75 238.910156 213.03125 C 236.660156 212.398438 234.589844 212.21875 232.519531 212.21875 C 218.390625 212.21875 209.027344 221.488281 209.027344 237.058594 C 209.027344 241.289062 209.75 245.699219 211.1875 248.851562 C 216.410156 261 228.648438 262.078125 235.128906 262.078125 C 242.597656 262.078125 245.839844 260.730469 250.609375 258.839844 L 251.148438 258.121094 L 251.777344 247.949219 L 251.148438 247.679688 M 223.878906 231.570312 C 224.148438 228.78125 224.777344 225 228.199219 222.839844 C 229.277344 222.121094 230.539062 221.851562 231.800781 221.851562 C 234.769531 221.851562 236.570312 223.378906 237.558594 225 C 238.820312 226.980469 238.910156 229.140625 238.910156 231.210938 Z M 305.867188 260.460938 C 305.507812 252.359375 305.238281 246.960938 305.238281 235.171875 C 305.238281 211.410156 305.597656 201.601562 305.957031 189.71875 L 305.328125 189.179688 L 290.476562 191.519531 L 290.027344 192.058594 C 290.566406 200.519531 290.65625 202.769531 290.566406 213.03125 C 283.816406 212.851562 275.355469 212.671875 268.515625 218.070312 C 262.21875 222.929688 259.605469 230.398438 259.605469 239.671875 C 259.605469 246.691406 261.496094 253.710938 266.808594 258.121094 C 270.765625 261.359375 275.628906 262.078125 278.597656 262.078125 C 284.988281 262.078125 288.316406 259.109375 290.476562 257.21875 L 290.296875 260.730469 L 290.746094 261.269531 C 296.957031 261 298.667969 261 305.417969 261 L 305.867188 260.460938 M 290.566406 223.828125 C 290.65625 235.800781 290.566406 238.140625 290.296875 249.03125 C 288.496094 250.109375 286.695312 251.191406 284.175781 251.191406 C 275.445312 251.191406 275.445312 240.03125 275.445312 238.230469 C 275.445312 231.300781 277.425781 223.558594 287.507812 223.558594 C 288.496094 223.558594 289.308594 223.648438 290.566406 223.828125 Z M 371.75 260.371094 C 375.351562 246.421875 375.980469 244.261719 381.378906 224.910156 C 382.460938 221.21875 383.449219 217.441406 384.441406 213.75 L 383.902344 213.03125 L 372.199219 213.300781 L 371.570312 213.929688 L 368.960938 227.429688 L 366.441406 238.320312 L 364.730469 246.601562 L 363.199219 238.589844 L 361.21875 229.230469 L 358.070312 213.660156 L 357.53125 213.03125 L 340.25 213.300781 L 339.621094 213.929688 L 336.652344 228.691406 L 334.492188 238.589844 L 332.78125 246.871094 L 331.070312 237.960938 L 328.910156 228.238281 L 325.851562 213.300781 L 325.308594 212.851562 L 310.730469 213.929688 L 310.191406 214.648438 C 318.652344 244.351562 320 249.660156 322.519531 260.730469 L 323.152344 261.269531 C 329.359375 261 331.609375 260.910156 339.890625 261 L 340.429688 260.371094 L 342.769531 249.390625 L 345.289062 238.5 L 347.539062 227.609375 L 348.890625 234.449219 L 350.242188 241.109375 L 354.019531 260.640625 L 354.652344 261.269531 C 361.308594 261 364.011719 260.910156 371.210938 261 Z M 435.019531 237.058594 C 435.019531 233.550781 435.019531 218.96875 422.417969 214.019531 C 418.457031 212.488281 413.777344 212.308594 411.4375 212.308594 C 395.777344 212.308594 386.957031 220.679688 386.957031 237.238281 C 386.957031 243 387.859375 248.851562 391.1875 253.710938 C 393.527344 257.21875 397.9375 262.078125 410.808594 262.078125 C 429.886719 262.078125 435.019531 250.558594 435.019531 237.058594 M 419.449219 236.96875 C 419.449219 244.351562 418.457031 252.539062 410.988281 252.539062 C 408.648438 252.539062 407.027344 251.460938 405.949219 250.46875 C 404.417969 248.941406 402.707031 245.878906 402.707031 237.148438 C 402.707031 234.539062 402.707031 228.78125 404.507812 225.628906 C 405.859375 223.199219 408.199219 221.578125 411.078125 221.578125 C 413.597656 221.578125 415.667969 222.929688 416.839844 224.371094 C 419 226.980469 419.449219 232.109375 419.449219 236.96875 Z M 489.378906 237.058594 C 489.378906 233.550781 489.378906 218.96875 476.777344 214.019531 C 472.816406 212.488281 468.136719 212.308594 465.796875 212.308594 C 450.136719 212.308594 441.316406 220.679688 441.316406 237.238281 C 441.316406 243 442.21875 248.851562 445.546875 253.710938 C 447.886719 257.21875 452.296875 262.078125 465.167969 262.078125 C 484.246094 262.078125 489.378906 250.558594 489.378906 237.058594 M 473.808594 236.96875 C 473.808594 244.351562 472.816406 252.539062 465.347656 252.539062 C 463.007812 252.539062 461.386719 251.460938 460.308594 250.46875 C 458.777344 248.941406 457.066406 245.878906 457.066406 237.148438 C 457.066406 234.539062 457.066406 228.78125 458.867188 225.628906 C 460.21875 223.199219 462.558594 221.578125 465.4375 221.578125 C 467.957031 221.578125 470.027344 222.929688 471.199219 224.371094 C 473.359375 226.980469 473.808594 232.109375 473.808594 236.96875 Z M 542.027344 260.460938 C 541.667969 252.359375 541.398438 246.960938 541.398438 235.171875 C 541.398438 211.410156 541.757812 201.601562 542.117188 189.71875 L 541.488281 189.179688 L 526.636719 191.519531 L 526.1875 192.058594 C 526.726562 200.519531 526.816406 202.769531 526.726562 213.03125 C 519.976562 212.851562 511.515625 212.671875 504.675781 218.070312 C 498.378906 222.929688 495.765625 230.398438 495.765625 239.671875 C 495.765625 246.691406 497.65625 253.710938 502.96875 258.121094 C 506.925781 261.359375 511.789062 262.078125 514.757812 262.078125 C 521.148438 262.078125 524.476562 259.109375 526.636719 257.21875 L 526.457031 260.730469 L 526.90625 261.269531 C 533.117188 261 534.828125 261 541.578125 261 L 542.027344 260.460938 M 526.726562 223.828125 C 526.816406 235.800781 526.726562 238.140625 526.457031 249.03125 C 524.65625 250.109375 522.855469 251.191406 520.335938 251.191406 C 511.605469 251.191406 511.605469 240.03125 511.605469 238.230469 C 511.605469 231.300781 513.585938 223.558594 523.667969 223.558594 C 524.65625 223.558594 525.46875 223.648438 526.726562 223.828125 Z M 571.191406 229.949219 C 568.128906 228.871094 565.699219 227.878906 565.699219 225.359375 C 565.699219 224.28125 566.421875 221.308594 572 221.308594 C 577.492188 221.308594 581 223.648438 583.25 225.089844 L 584.0625 224.820312 L 584.960938 215.011719 L 584.511719 214.46875 C 580.28125 213.300781 576.589844 212.21875 570.742188 212.21875 C 566.332031 212.21875 557.511719 212.578125 552.832031 219.328125 C 551.660156 220.949219 550.402344 223.648438 550.402344 227.25 C 550.402344 236.878906 557.871094 239.761719 562.101562 241.378906 L 565.519531 242.640625 C 567.949219 243.449219 571.910156 244.800781 571.910156 248.039062 C 571.910156 250.289062 569.839844 252.71875 564.800781 252.71875 C 562.28125 252.71875 558.589844 251.910156 555.261719 250.199219 C 553.730469 249.390625 553.011719 248.761719 551.660156 247.679688 L 550.851562 248.039062 C 550.671875 252.71875 550.582031 253.710938 550.21875 258.210938 L 550.671875 259.019531 C 555.082031 260.640625 558.859375 262.078125 565.429688 262.078125 C 572.269531 262.078125 585.769531 260.820312 587.390625 247.949219 C 587.480469 247.230469 587.480469 246.601562 587.480469 245.96875 C 587.480469 236.070312 580.550781 233.460938 575.601562 231.570312 Z M 647.6875 222.300781 C 640.128906 219.148438 636.167969 217.53125 636.167969 213.480469 C 636.167969 210.691406 638.777344 207.179688 644.71875 207.179688 C 651.558594 207.179688 655.605469 209.96875 658.9375 212.21875 L 659.746094 211.859375 L 660.46875 200.070312 L 660.015625 199.441406 C 656.148438 197.820312 652.097656 196.109375 643.367188 196.109375 C 626.449219 196.109375 620.597656 205.648438 620.597656 215.28125 C 620.597656 226.171875 629.058594 230.128906 634.097656 232.558594 L 637.066406 233.910156 C 643.277344 236.519531 648.046875 238.769531 648.046875 243.539062 C 648.046875 246.960938 645.078125 251.011719 637.246094 251.011719 C 629.058594 251.011719 624.46875 247.410156 621.855469 245.339844 L 620.957031 245.609375 L 620.328125 258.300781 L 620.867188 259.019531 C 621.855469 259.378906 622.847656 259.828125 623.835938 260.101562 C 625.90625 260.820312 631.21875 262.351562 637.96875 262.351562 C 640.667969 262.351562 647.507812 262.078125 652.90625 259.558594 C 660.46875 255.871094 663.707031 249.03125 663.707031 241.378906 C 663.707031 236.25 661.726562 230.761719 656.957031 227.070312 C 654.527344 225.269531 652.1875 224.191406 650.027344 223.199219 Z M 697.460938 250.648438 C 695.929688 251.101562 694.847656 251.460938 693.320312 251.460938 C 688.730469 251.460938 688.371094 248.578125 688.1875 247.230469 C 687.917969 244.890625 687.917969 239.941406 688.007812 236.339844 L 688.1875 223.648438 L 696.289062 224.011719 L 696.828125 223.46875 L 697.730469 213.839844 L 697.1875 213.300781 L 688.1875 213.300781 L 688.460938 198.179688 L 687.828125 197.640625 C 681.710938 199.441406 680.089844 199.890625 673.699219 201.511719 L 673.339844 202.140625 L 673.429688 213.390625 L 668.570312 213.210938 L 668.03125 213.660156 L 667.21875 223.289062 L 667.757812 223.828125 L 673.429688 223.648438 L 673.160156 237.960938 C 673.070312 240.210938 672.980469 242.460938 672.980469 244.800781 C 672.980469 253.078125 673.160156 261.988281 687.199219 261.988281 C 690.710938 261.988281 693.5 261.449219 696.648438 260.910156 L 697.28125 260.28125 L 698.179688 251.011719 Z M 744.167969 234.179688 C 744.257812 226.078125 744.257812 222.570312 741.917969 218.789062 C 740.117188 215.910156 736.519531 212.308594 725 212.308594 C 717.257812 212.308594 712.488281 213.75 707.359375 215.28125 L 706.820312 216 L 706.367188 225.808594 L 707.089844 226.171875 C 710.238281 224.910156 716.089844 222.570312 722.117188 222.570312 C 725.449219 222.570312 726.796875 223.109375 727.96875 224.28125 C 728.867188 225.179688 729.140625 226.800781 729.140625 228.148438 C 718.339844 229.589844 713.296875 230.578125 707.898438 233.910156 C 702.859375 237.058594 701.148438 242.191406 701.148438 246.238281 C 701.148438 255.871094 708.078125 262.078125 716.898438 262.078125 C 723.648438 262.078125 727.519531 258.839844 729.410156 257.308594 L 729.410156 260.640625 L 729.949219 261.269531 C 736.429688 261 738.410156 260.910156 744.257812 261 L 744.707031 260.371094 C 744.078125 251.550781 744.078125 249.300781 744.078125 240.839844 L 744.167969 234.179688 M 729.320312 248.488281 C 727.429688 249.570312 725 250.828125 722.027344 250.828125 C 718.789062 250.828125 716.089844 249.121094 716.089844 245.339844 C 716.089844 239.398438 723.199219 238.410156 729.320312 237.601562 Z M 779.902344 250.648438 C 778.371094 251.101562 777.289062 251.460938 775.761719 251.460938 C 771.171875 251.460938 770.8125 248.578125 770.628906 247.230469 C 770.359375 244.890625 770.359375 239.941406 770.449219 236.339844 L 770.628906 223.648438 L 778.730469 224.011719 L 779.269531 223.46875 L 780.171875 213.839844 L 779.628906 213.300781 L 770.628906 213.300781 L 770.902344 198.179688 L 770.269531 197.640625 C 764.152344 199.441406 762.53125 199.890625 756.140625 201.511719 L 755.78125 202.140625 L 755.871094 213.390625 L 751.011719 213.210938 L 750.472656 213.660156 L 749.660156 223.289062 L 750.199219 223.828125 L 755.871094 223.648438 L 755.601562 237.960938 C 755.511719 240.210938 755.421875 242.460938 755.421875 244.800781 C 755.421875 253.078125 755.601562 261.988281 769.640625 261.988281 C 773.152344 261.988281 775.941406 261.449219 779.089844 260.910156 L 779.722656 260.28125 L 780.621094 251.011719 Z M 826.519531 247.679688 C 823.101562 249.480469 819.050781 251.550781 812.480469 251.550781 C 807.082031 251.550781 803.390625 249.839844 801.230469 246.601562 C 799.878906 244.710938 799.609375 242.910156 799.25 241.109375 L 828.320312 240.570312 L 828.859375 239.941406 C 828.769531 235.53125 828.679688 231.03125 827.421875 226.53125 C 824.269531 215.910156 817.339844 213.75 814.28125 213.03125 C 812.03125 212.398438 809.960938 212.21875 807.890625 212.21875 C 793.761719 212.21875 784.398438 221.488281 784.398438 237.058594 C 784.398438 241.289062 785.121094 245.699219 786.558594 248.851562 C 791.78125 261 804.019531 262.078125 810.5 262.078125 C 817.96875 262.078125 821.210938 260.730469 825.980469 258.839844 L 826.519531 258.121094 L 827.148438 247.949219 L 826.519531 247.679688 M 799.25 231.570312 C 799.519531 228.78125 800.148438 225 803.570312 222.839844 C 804.648438 222.121094 805.910156 221.851562 807.171875 221.851562 C 810.140625 221.851562 811.941406 223.378906 812.929688 225 C 814.191406 226.980469 814.28125 229.140625 814.28125 231.210938 Z M 831.738281 261 "/>
<path fill-rule="nonzero" fill="rgb(34.901961%, 14.901961%, 14.901961%)" fill-opacity="1" d="M 411.53125 317.28125 L 400.101562 317.460938 L 399.558594 318 C 399.921875 329.699219 400.191406 337.53125 400.191406 347.878906 C 400.191406 358.859375 399.921875 369.75 399.648438 380.730469 L 400.191406 381.269531 C 406.851562 381 408.289062 380.910156 415.492188 381 L 415.941406 380.460938 C 415.582031 370.648438 415.582031 368.398438 415.582031 359.21875 C 425.660156 359.308594 436.460938 359.308594 442.941406 351.390625 C 445.460938 348.328125 447.621094 343.199219 447.621094 336.898438 C 447.621094 333.03125 446.71875 324.480469 439.25 320.25 C 433.851562 317.101562 426.199219 317.101562 419.449219 317.101562 L 411.53125 317.28125 M 415.582031 328.171875 C 417.558594 328.078125 419.449219 328.078125 421.429688 328.078125 C 429.351562 328.261719 431.511719 332.308594 431.511719 337.53125 C 431.511719 338.789062 431.511719 344.011719 426.742188 346.621094 C 424.308594 347.96875 420.980469 348.148438 415.582031 348.148438 Z M 493.878906 354.179688 C 493.96875 346.078125 493.96875 342.570312 491.628906 338.789062 C 489.828125 335.910156 486.230469 332.308594 474.710938 332.308594 C 466.96875 332.308594 462.199219 333.75 457.070312 335.28125 L 456.53125 336 L 456.078125 345.808594 L 456.800781 346.171875 C 459.949219 344.910156 465.800781 342.570312 471.828125 342.570312 C 475.160156 342.570312 476.507812 343.109375 477.679688 344.28125 C 478.578125 345.179688 478.851562 346.800781 478.851562 348.148438 C 468.050781 349.589844 463.007812 350.578125 457.609375 353.910156 C 452.570312 357.058594 450.859375 362.191406 450.859375 366.238281 C 450.859375 375.871094 457.789062 382.078125 466.609375 382.078125 C 473.359375 382.078125 477.230469 378.839844 479.121094 377.308594 L 479.121094 380.640625 L 479.660156 381.269531 C 486.140625 381 488.121094 380.910156 493.96875 381 L 494.417969 380.371094 C 493.789062 371.550781 493.789062 369.300781 493.789062 360.839844 L 493.878906 354.179688 M 479.03125 368.488281 C 477.140625 369.570312 474.710938 370.828125 471.738281 370.828125 C 468.5 370.828125 465.800781 369.121094 465.800781 365.339844 C 465.800781 359.398438 472.910156 358.410156 479.03125 357.601562 Z M 530.421875 347.609375 L 532.941406 332.941406 L 532.402344 332.308594 C 531.773438 332.308594 531.140625 332.21875 530.511719 332.21875 C 526.820312 332.21875 522.683594 334.289062 519.800781 340.949219 L 520.070312 332.671875 L 519.351562 331.949219 C 512.691406 333.390625 510.980469 333.660156 504.410156 334.648438 L 503.871094 335.191406 C 504.410156 341.941406 504.683594 345.988281 504.683594 358.5 C 504.683594 365.878906 504.589844 373.261719 504.410156 380.730469 L 504.953125 381.269531 C 511.613281 381 513.050781 380.910156 520.25 381 L 520.703125 380.371094 C 520.339844 373.078125 519.800781 362.910156 519.800781 356.699219 C 519.800781 352.648438 519.800781 346.710938 525.921875 346.710938 C 527.453125 346.710938 528.351562 347.25 529.613281 347.96875 Z M 584.421875 379.828125 C 575.960938 365.519531 575.0625 363.898438 568.222656 351.570312 C 574.433594 343.109375 575.0625 342.210938 581.453125 334.019531 L 581 333.121094 L 566.332031 333.300781 L 565.433594 333.929688 C 558.410156 346.078125 557.511719 347.519531 553.371094 353.730469 L 553.371094 343.738281 C 553.460938 326.910156 553.550781 323.308594 554 309.71875 L 553.28125 309.179688 L 537.621094 311.519531 L 537.082031 312.148438 C 537.710938 320.878906 537.980469 325.109375 538.160156 336.898438 C 538.339844 351.480469 538.339844 366.058594 538.25 380.640625 L 538.882812 381.269531 C 544.910156 381 546.621094 381 553.460938 381 L 554 380.371094 L 553.460938 365.160156 L 553.371094 354.808594 C 561.203125 369.210938 562.191406 371.191406 566.78125 380.730469 L 567.589844 381.269531 L 583.792969 380.640625 Z M 583.339844 381 "/>
</svg>
