<?xml version="1.0" encoding="UTF-8"?>
<svg xmlns="http://www.w3.org/2000/svg" xmlns:xlink="http://www.w3.org/1999/xlink" width="975" height="1300" viewBox="0 0 975 1300">
<path fill-rule="nonzero" fill="rgb(98.823529%, 78.823529%, 9.019608%)" fill-opacity="1" d="M 50 50 L 925 50 L 925 290 L 50 290 Z M 50 50 "/>
<path fill-rule="nonzero" fill="rgb(34.901961%, 14.901961%, 14.901961%)" fill-opacity="1" d="M 219.605469 141 C 227.976562 141.179688 238.324219 141.359375 245.074219 136.679688 C 251.015625 132.449219 252.636719 126.511719 252.636719 121.46875 C 252.636719 115.710938 250.203125 110.398438 245.074219 107.878906 C 243.363281 106.980469 241.386719 106.621094 239.496094 106.261719 C 242.554688 105 246.15625 103.378906 248.496094 98.609375 C 249.484375 96.539062 249.933594 94.378906 249.933594 92.308594 C 249.933594 89.429688 249.214844 85.46875 246.335938 82.230469 C 242.554688 78.179688 236.703125 77.101562 227.886719 77.101562 C 224.824219 77.101562 219.335938 77.191406 216.273438 77.28125 L 203.675781 77.460938 L 203.136719 78 C 203.496094 86.640625 203.585938 89.96875 203.585938 102.390625 C 203.585938 115.171875 203.496094 127.859375 203.316406 140.640625 L 203.945312 141 L 219.605469 141 M 218.976562 113.640625 C 225.816406 113.460938 229.773438 113.460938 232.386719 114.988281 C 234.996094 116.609375 235.984375 119.488281 235.984375 122.371094 C 235.984375 126.421875 233.734375 128.941406 230.40625 130.109375 C 227.703125 131.011719 222.84375 131.011719 218.976562 130.921875 L 218.976562 113.640625 M 218.976562 87.179688 C 220.863281 87.179688 223.386719 87.089844 224.914062 87.089844 C 229.773438 87.089844 234.183594 88.800781 234.183594 94.648438 C 234.183594 99.421875 230.675781 101.398438 229.59375 101.941406 C 227.34375 102.929688 222.574219 102.929688 218.976562 102.929688 Z M 300.964844 127.679688 C 297.546875 129.480469 293.496094 131.550781 286.925781 131.550781 C 281.527344 131.550781 277.835938 129.839844 275.675781 126.601562 C 274.324219 124.710938 274.054688 122.910156 273.695312 121.109375 L 302.765625 120.570312 L 303.304688 119.941406 C 303.214844 115.53125 303.125 111.03125 301.867188 106.53125 C 298.714844 95.910156 291.785156 93.75 288.726562 93.03125 C 286.476562 92.398438 284.40625 92.21875 282.335938 92.21875 C 268.207031 92.21875 258.84375 101.488281 258.84375 117.058594 C 258.84375 121.289062 259.566406 125.699219 261.003906 128.851562 C 266.226562 141 278.464844 142.078125 284.945312 142.078125 C 292.414062 142.078125 295.65625 140.730469 300.425781 138.839844 L 300.964844 138.121094 L 301.59375 127.949219 L 300.964844 127.679688 M 273.695312 111.570312 C 273.964844 108.78125 274.59375 105 278.015625 102.839844 C 279.09375 102.121094 280.355469 101.851562 281.617188 101.851562 C 284.585938 101.851562 286.386719 103.378906 287.375 105 C 288.636719 106.980469 288.726562 109.140625 288.726562 111.210938 Z M 355.683594 140.371094 C 355.234375 132.449219 355.234375 129.929688 355.054688 121.109375 L 355.054688 114.089844 C 354.964844 105.449219 354.875 101.308594 352.625 97.621094 C 349.832031 92.941406 344.703125 92.21875 341.464844 92.21875 C 335.972656 92.21875 331.203125 95.101562 327.0625 97.53125 L 327.242188 92.578125 L 326.34375 91.949219 C 319.414062 93.390625 317.882812 93.660156 311.132812 94.558594 L 310.59375 95.191406 C 311.3125 103.019531 311.855469 108.691406 311.855469 123.359375 C 311.855469 129.121094 311.761719 134.878906 311.671875 140.640625 L 312.214844 141.179688 C 318.695312 140.910156 320.042969 140.910156 327.242188 140.910156 L 327.785156 140.371094 C 327.242188 126.511719 327.152344 123 327.0625 106.890625 C 328.953125 105.628906 331.113281 104.101562 333.992188 104.101562 C 338.945312 104.101562 339.394531 109.410156 339.664062 112.648438 C 339.84375 115.621094 339.933594 127.949219 339.933594 131.371094 C 339.933594 134.429688 339.84375 137.578125 339.84375 140.640625 L 340.382812 141.179688 C 346.324219 141 347.855469 140.910156 355.054688 140.910156 Z M 372.421875 141.179688 L 374.222656 141.179688 C 388.621094 141.179688 397.894531 140.460938 404.734375 133.171875 C 411.121094 126.328125 411.753906 118.230469 411.753906 114.449219 C 411.753906 101.941406 404.554688 92.21875 392.3125 92.21875 C 386.371094 92.21875 383.222656 94.199219 380.703125 95.820312 L 381.242188 69.71875 L 380.523438 69.179688 L 365.582031 71.519531 L 365.042969 72.148438 C 365.761719 79.710938 366.03125 82.769531 366.03125 100.859375 C 366.03125 108.601562 365.941406 123.898438 365.851562 140.640625 L 366.484375 141.269531 L 372.421875 141.179688 M 381.0625 104.730469 C 382.863281 103.828125 384.574219 102.929688 386.914062 102.929688 C 392.851562 102.929688 396.273438 108.238281 396.273438 116.519531 C 396.273438 123 393.394531 127.230469 390.964844 128.941406 C 387.992188 131.011719 384.121094 131.101562 381.0625 131.191406 Z M 466.117188 117.058594 C 466.117188 113.550781 466.117188 98.96875 453.515625 94.019531 C 449.554688 92.488281 444.875 92.308594 442.535156 92.308594 C 426.875 92.308594 418.054688 100.679688 418.054688 117.238281 C 418.054688 123 418.957031 128.851562 422.285156 133.710938 C 424.625 137.21875 429.035156 142.078125 441.90625 142.078125 C 460.984375 142.078125 466.117188 130.558594 466.117188 117.058594 M 450.546875 116.96875 C 450.546875 124.351562 449.554688 132.539062 442.085938 132.539062 C 439.746094 132.539062 438.125 131.460938 437.046875 130.46875 C 435.515625 128.941406 433.804688 125.878906 433.804688 117.148438 C 433.804688 114.539062 433.804688 108.78125 435.605469 105.628906 C 436.957031 103.199219 439.296875 101.578125 442.175781 101.578125 C 444.695312 101.578125 446.765625 102.929688 447.9375 104.371094 C 450.097656 106.980469 450.546875 112.109375 450.546875 116.96875 Z M 530.285156 140.371094 C 533.886719 126.421875 534.515625 124.261719 539.914062 104.910156 C 540.996094 101.21875 541.984375 97.441406 542.976562 93.75 L 542.4375 93.03125 L 530.734375 93.300781 L 530.105469 93.929688 L 527.496094 107.429688 L 524.976562 118.320312 L 523.265625 126.601562 L 521.734375 118.589844 L 519.753906 109.230469 L 516.605469 93.660156 L 516.066406 93.03125 L 498.785156 93.300781 L 498.15625 93.929688 L 495.1875 108.691406 L 493.027344 118.589844 L 491.316406 126.871094 L 489.605469 117.960938 L 487.445312 108.238281 L 484.386719 93.300781 L 483.84375 92.851562 L 469.265625 93.929688 L 468.726562 94.648438 C 477.1875 124.351562 478.535156 129.660156 481.054688 140.730469 L 481.6875 141.269531 C 487.894531 141 490.144531 140.910156 498.425781 141 L 498.964844 140.371094 L 501.304688 129.390625 L 503.824219 118.5 L 506.074219 107.609375 L 507.425781 114.449219 L 508.777344 121.109375 L 512.554688 140.640625 L 513.1875 141.269531 C 519.84375 141 522.546875 140.910156 529.746094 141 Z M 600.035156 102.300781 C 592.476562 99.148438 588.515625 97.53125 588.515625 93.480469 C 588.515625 90.691406 591.125 87.179688 597.066406 87.179688 C 603.90625 87.179688 607.953125 89.96875 611.285156 92.21875 L 612.09375 91.859375 L 612.816406 80.070312 L 612.363281 79.441406 C 608.496094 77.820312 604.445312 76.109375 595.714844 76.109375 C 578.796875 76.109375 572.945312 85.648438 572.945312 95.28125 C 572.945312 106.171875 581.40625 110.128906 586.445312 112.558594 L 589.414062 113.910156 C 595.625 116.519531 600.394531 118.769531 600.394531 123.539062 C 600.394531 126.960938 597.425781 131.011719 589.59375 131.011719 C 581.40625 131.011719 576.816406 127.410156 574.203125 125.339844 L 573.304688 125.609375 L 572.675781 138.300781 L 573.214844 139.019531 C 574.203125 139.378906 575.195312 139.828125 576.183594 140.101562 C 578.253906 140.820312 583.566406 142.351562 590.316406 142.351562 C 593.015625 142.351562 599.855469 142.078125 605.253906 139.558594 C 612.816406 135.871094 616.054688 129.03125 616.054688 121.378906 C 616.054688 116.25 614.074219 110.761719 609.304688 107.070312 C 606.875 105.269531 604.535156 104.191406 602.375 103.199219 Z M 649.804688 130.648438 C 648.273438 131.101562 647.191406 131.460938 645.664062 131.460938 C 641.074219 131.460938 640.714844 128.578125 640.53125 127.230469 C 640.261719 124.890625 640.261719 119.941406 640.351562 116.339844 L 640.53125 103.648438 L 648.632812 104.011719 L 649.171875 103.46875 L 650.074219 93.839844 L 649.53125 93.300781 L 640.53125 93.300781 L 640.804688 78.179688 L 640.171875 77.640625 C 634.054688 79.441406 632.433594 79.890625 626.042969 81.511719 L 625.683594 82.140625 L 625.773438 93.390625 L 620.914062 93.210938 L 620.375 93.660156 L 619.5625 103.289062 L 620.101562 103.828125 L 625.773438 103.648438 L 625.503906 117.960938 C 625.414062 120.210938 625.324219 122.460938 625.324219 124.800781 C 625.324219 133.078125 625.503906 141.988281 639.542969 141.988281 C 643.054688 141.988281 645.84375 141.449219 648.992188 140.910156 L 649.625 140.28125 L 650.523438 131.011719 Z M 696.515625 114.179688 C 696.605469 106.078125 696.605469 102.570312 694.265625 98.789062 C 692.464844 95.910156 688.867188 92.308594 677.347656 92.308594 C 669.605469 92.308594 664.835938 93.75 659.707031 95.28125 L 659.167969 96 L 658.714844 105.808594 L 659.4375 106.171875 C 662.585938 104.910156 668.4375 102.570312 674.464844 102.570312 C 677.796875 102.570312 679.144531 103.109375 680.316406 104.28125 C 681.214844 105.179688 681.488281 106.800781 681.488281 108.148438 C 670.6875 109.589844 665.644531 110.578125 660.246094 113.910156 C 655.207031 117.058594 653.496094 122.191406 653.496094 126.238281 C 653.496094 135.871094 660.425781 142.078125 669.246094 142.078125 C 675.996094 142.078125 679.867188 138.839844 681.757812 137.308594 L 681.757812 140.640625 L 682.296875 141.269531 C 688.777344 141 690.757812 140.910156 696.605469 141 L 697.054688 140.371094 C 696.425781 131.550781 696.425781 129.300781 696.425781 120.839844 L 696.515625 114.179688 M 681.667969 128.488281 C 679.777344 129.570312 677.347656 130.828125 674.375 130.828125 C 671.136719 130.828125 668.4375 129.121094 668.4375 125.339844 C 668.4375 119.398438 675.546875 118.410156 681.667969 117.601562 Z M 732.246094 130.648438 C 730.714844 131.101562 729.632812 131.460938 728.105469 131.460938 C 723.515625 131.460938 723.15625 128.578125 722.972656 127.230469 C 722.703125 124.890625 722.703125 119.941406 722.792969 116.339844 L 722.972656 103.648438 L 731.074219 104.011719 L 731.613281 103.46875 L 732.515625 93.839844 L 731.972656 93.300781 L 722.972656 93.300781 L 723.246094 78.179688 L 722.613281 77.640625 C 716.496094 79.441406 714.875 79.890625 708.484375 81.511719 L 708.125 82.140625 L 708.214844 93.390625 L 703.355469 93.210938 L 702.816406 93.660156 L 702.003906 103.289062 L 702.542969 103.828125 L 708.214844 103.648438 L 707.945312 117.960938 C 707.855469 120.210938 707.765625 122.460938 707.765625 124.800781 C 707.765625 133.078125 707.945312 141.988281 721.984375 141.988281 C 725.496094 141.988281 728.285156 141.449219 731.433594 140.910156 L 732.066406 140.28125 L 732.964844 131.011719 Z M 778.863281 127.679688 C 775.445312 129.480469 771.394531 131.550781 764.824219 131.550781 C 759.425781 131.550781 755.734375 129.839844 753.574219 126.601562 C 752.222656 124.710938 751.953125 122.910156 751.59375 121.109375 L 780.664062 120.570312 L 781.203125 119.941406 C 781.113281 115.53125 781.023438 111.03125 779.765625 106.53125 C 776.613281 95.910156 769.683594 93.75 766.625 93.03125 C 764.375 92.398438 762.304688 92.21875 760.234375 92.21875 C 746.105469 92.21875 736.742188 101.488281 736.742188 117.058594 C 736.742188 121.289062 737.464844 125.699219 738.902344 128.851562 C 744.125 141 756.363281 142.078125 762.84375 142.078125 C 770.3125 142.078125 773.554688 140.730469 778.324219 138.839844 L 778.863281 138.121094 L 779.492188 127.949219 L 778.863281 127.679688 M 751.59375 111.570312 C 751.863281 108.78125 752.492188 105 755.914062 102.839844 C 756.992188 102.121094 758.253906 101.851562 759.515625 101.851562 C 762.484375 101.851562 764.285156 103.378906 765.273438 105 C 766.535156 106.980469 766.625 109.140625 766.625 111.210938 Z M 784.085938 141 "/>
<path fill-rule="nonzero" fill="rgb(34.901961%, 14.901961%, 14.901961%)" fill-opacity="1" d="M 180.769531 236.25 C 186.800781 246.511719 188.152344 249.210938 193.910156 261 L 194.632812 261.449219 C 197.421875 261.269531 200.121094 261.089844 202.910156 261 C 205.703125 260.910156 208.582031 260.820312 211.371094 260.820312 L 211.910156 259.738281 C 208.492188 255.328125 207.5 253.980469 201.019531 243.628906 C 198.140625 239.039062 196.703125 236.609375 194.453125 232.648438 C 198.5 230.851562 206.691406 227.070312 206.691406 215.640625 C 206.691406 211.679688 205.609375 203.488281 198.230469 199.621094 C 193.550781 197.191406 188.691406 197.101562 178.160156 197.28125 L 171.859375 197.371094 L 160.882812 197.371094 L 160.429688 197.910156 C 160.792969 207 161.152344 216.359375 161.152344 240.839844 C 161.152344 249.210938 161.0625 253.261719 160.792969 260.730469 L 161.332031 261.269531 C 167.902344 261 169.339844 260.910156 176.722656 261 L 177.261719 260.460938 C 176.542969 250.019531 176.453125 247.140625 176.359375 236.429688 L 180.769531 236.25 M 176.542969 208.261719 C 177.800781 208.171875 179.0625 208.171875 180.320312 208.171875 C 183.832031 208.171875 190.761719 208.171875 190.761719 216.089844 C 190.761719 218.609375 190.132812 221.941406 186.800781 224.011719 C 184.28125 225.539062 181.042969 225.71875 176.542969 225.808594 Z M 256.640625 247.679688 C 253.222656 249.480469 249.171875 251.550781 242.601562 251.550781 C 237.203125 251.550781 233.511719 249.839844 231.351562 246.601562 C 230 244.710938 229.730469 242.910156 229.371094 241.109375 L 258.441406 240.570312 L 258.980469 239.941406 C 258.890625 235.53125 258.800781 231.03125 257.542969 226.53125 C 254.390625 215.910156 247.460938 213.75 244.402344 213.03125 C 242.152344 212.398438 240.082031 212.21875 238.011719 212.21875 C 223.882812 212.21875 214.519531 221.488281 214.519531 237.058594 C 214.519531 241.289062 215.242188 245.699219 216.679688 248.851562 C 221.902344 261 234.140625 262.078125 240.621094 262.078125 C 248.089844 262.078125 251.332031 260.730469 256.101562 258.839844 L 256.640625 258.121094 L 257.269531 247.949219 L 256.640625 247.679688 M 229.371094 231.570312 C 229.640625 228.78125 230.269531 225 233.691406 222.839844 C 234.769531 222.121094 236.03125 221.851562 237.292969 221.851562 C 240.261719 221.851562 242.0625 223.378906 243.050781 225 C 244.3125 226.980469 244.402344 229.140625 244.402344 231.210938 Z M 302.449219 248.039062 C 300.019531 249.480469 297.679688 250.921875 293.089844 250.921875 C 282.917969 250.921875 280.847656 242.460938 280.847656 237.058594 C 280.847656 230.488281 283.730469 222.929688 292.460938 222.929688 C 296.417969 222.929688 298.578125 224.371094 301.28125 226.171875 L 302.179688 225.898438 C 302.539062 221.128906 302.628906 219.871094 303.347656 215.101562 L 302.898438 214.558594 C 298.9375 213.300781 295.519531 212.21875 290.300781 212.21875 C 269.148438 212.21875 265.007812 228.238281 265.007812 237.421875 C 265.007812 247.769531 270.410156 261.808594 290.660156 261.808594 C 295.429688 261.808594 298.488281 260.910156 302.269531 259.828125 L 302.808594 259.289062 L 303.167969 248.488281 Z M 336.382812 227.609375 L 338.902344 212.941406 L 338.363281 212.308594 C 337.734375 212.308594 337.101562 212.21875 336.472656 212.21875 C 332.78125 212.21875 328.644531 214.289062 325.761719 220.949219 L 326.03125 212.671875 L 325.3125 211.949219 C 318.652344 213.390625 316.941406 213.660156 310.371094 214.648438 L 309.832031 215.191406 C 310.371094 221.941406 310.644531 225.988281 310.644531 238.5 C 310.644531 245.878906 310.550781 253.261719 310.371094 260.730469 L 310.914062 261.269531 C 317.574219 261 319.011719 260.910156 326.210938 261 L 326.664062 260.371094 C 326.300781 253.078125 325.761719 242.910156 325.761719 236.699219 C 325.761719 232.648438 325.761719 226.710938 331.882812 226.710938 C 333.414062 226.710938 334.3125 227.25 335.574219 227.96875 Z M 384.082031 247.679688 C 380.664062 249.480469 376.613281 251.550781 370.042969 251.550781 C 364.644531 251.550781 360.953125 249.839844 358.792969 246.601562 C 357.441406 244.710938 357.171875 242.910156 356.8125 241.109375 L 385.882812 240.570312 L 386.421875 239.941406 C 386.332031 235.53125 386.242188 231.03125 384.984375 226.53125 C 381.832031 215.910156 374.902344 213.75 371.84375 213.03125 C 369.59375 212.398438 367.523438 212.21875 365.453125 212.21875 C 351.324219 212.21875 341.960938 221.488281 341.960938 237.058594 C 341.960938 241.289062 342.683594 245.699219 344.121094 248.851562 C 349.34375 261 361.582031 262.078125 368.0625 262.078125 C 375.53125 262.078125 378.773438 260.730469 383.542969 258.839844 L 384.082031 258.121094 L 384.710938 247.949219 L 384.082031 247.679688 M 356.8125 231.570312 C 357.082031 228.78125 357.710938 225 361.132812 222.839844 C 362.210938 222.121094 363.472656 221.851562 364.734375 221.851562 C 367.703125 221.851562 369.503906 223.378906 370.492188 225 C 371.753906 226.980469 371.84375 229.140625 371.84375 231.210938 Z M 434.75 234.179688 C 434.839844 226.078125 434.839844 222.570312 432.5 218.789062 C 430.699219 215.910156 427.101562 212.308594 415.582031 212.308594 C 407.839844 212.308594 403.070312 213.75 397.941406 215.28125 L 397.402344 216 L 396.949219 225.808594 L 397.671875 226.171875 C 400.820312 224.910156 406.671875 222.570312 412.699219 222.570312 C 416.03125 222.570312 417.378906 223.109375 418.550781 224.28125 C 419.449219 225.179688 419.722656 226.800781 419.722656 228.148438 C 408.921875 229.589844 403.878906 230.578125 398.480469 233.910156 C 393.441406 237.058594 391.730469 242.191406 391.730469 246.238281 C 391.730469 255.871094 398.660156 262.078125 407.480469 262.078125 C 414.230469 262.078125 418.101562 258.839844 419.992188 257.308594 L 419.992188 260.640625 L 420.53125 261.269531 C 427.011719 261 428.992188 260.910156 434.839844 261 L 435.289062 260.371094 C 434.660156 251.550781 434.660156 249.300781 434.660156 240.839844 L 434.75 234.179688 M 419.902344 248.488281 C 418.011719 249.570312 415.582031 250.828125 412.609375 250.828125 C 409.371094 250.828125 406.671875 249.121094 406.671875 245.339844 C 406.671875 239.398438 413.78125 238.410156 419.902344 237.601562 Z M 470.484375 250.648438 C 468.953125 251.101562 467.871094 251.460938 466.34375 251.460938 C 461.753906 251.460938 461.394531 248.578125 461.210938 247.230469 C 460.941406 244.890625 460.941406 239.941406 461.03125 236.339844 L 461.210938 223.648438 L 469.3125 224.011719 L 469.851562 223.46875 L 470.753906 213.839844 L 470.210938 213.300781 L 461.210938 213.300781 L 461.484375 198.179688 L 460.851562 197.640625 C 454.734375 199.441406 453.113281 199.890625 446.722656 201.511719 L 446.363281 202.140625 L 446.453125 213.390625 L 441.59375 213.210938 L 441.054688 213.660156 L 440.242188 223.289062 L 440.78125 223.828125 L 446.453125 223.648438 L 446.183594 237.960938 C 446.09375 240.210938 446.003906 242.460938 446.003906 244.800781 C 446.003906 253.078125 446.183594 261.988281 460.222656 261.988281 C 463.734375 261.988281 466.523438 261.449219 469.671875 260.910156 L 470.304688 260.28125 L 471.203125 251.011719 Z M 493.433594 260.371094 C 492.980469 253.441406 492.621094 248.128906 492.621094 235.710938 C 492.621094 228.058594 492.800781 220.320312 492.890625 212.671875 L 492.261719 211.949219 L 476.78125 214.648438 L 476.242188 215.191406 C 476.960938 222.03125 477.230469 225.179688 477.230469 237.960938 C 477.230469 247.769531 476.960938 253.261719 476.691406 260.640625 L 477.230469 261.269531 C 483.710938 261 485.511719 260.910156 492.800781 261 L 493.433594 260.371094 M 491.992188 203.308594 L 492.261719 191.070312 L 491.722656 190.53125 L 477.050781 192.328125 L 476.511719 192.960938 C 476.691406 196.199219 476.78125 198.089844 476.78125 200.25 C 476.78125 201.960938 476.78125 203.761719 476.691406 205.46875 L 477.320312 206.011719 C 483.441406 204.929688 485.152344 204.75 491.542969 203.941406 Z M 549.230469 237.058594 C 549.230469 233.550781 549.230469 218.96875 536.628906 214.019531 C 532.667969 212.488281 527.988281 212.308594 525.648438 212.308594 C 509.988281 212.308594 501.167969 220.679688 501.167969 237.238281 C 501.167969 243 502.070312 248.851562 505.398438 253.710938 C 507.738281 257.21875 512.148438 262.078125 525.019531 262.078125 C 544.097656 262.078125 549.230469 250.558594 549.230469 237.058594 M 533.660156 236.96875 C 533.660156 244.351562 532.667969 252.539062 525.199219 252.539062 C 522.859375 252.539062 521.238281 251.460938 520.160156 250.46875 C 518.628906 248.941406 516.917969 245.878906 516.917969 237.148438 C 516.917969 234.539062 516.917969 228.78125 518.71875 225.628906 C 520.070312 223.199219 522.410156 221.578125 525.289062 221.578125 C 527.808594 221.578125 529.878906 222.929688 531.050781 224.371094 C 533.210938 226.980469 533.660156 232.109375 533.660156 236.96875 Z M 601.882812 260.371094 C 601.433594 252.449219 601.433594 249.929688 601.253906 241.109375 L 601.253906 234.089844 C 601.164062 225.449219 601.074219 221.308594 598.824219 217.621094 C 596.03125 212.941406 590.902344 212.21875 587.664062 212.21875 C 582.171875 212.21875 577.402344 215.101562 573.261719 217.53125 L 573.441406 212.578125 L 572.542969 211.949219 C 565.613281 213.390625 564.082031 213.660156 557.332031 214.558594 L 556.792969 215.191406 C 557.511719 223.019531 558.054688 228.691406 558.054688 243.359375 C 558.054688 249.121094 557.960938 254.878906 557.871094 260.640625 L 558.414062 261.179688 C 564.894531 260.910156 566.242188 260.910156 573.441406 260.910156 L 573.984375 260.371094 C 573.441406 246.511719 573.351562 243 573.261719 226.890625 C 575.152344 225.628906 577.3125 224.101562 580.191406 224.101562 C 585.144531 224.101562 585.59375 229.410156 585.863281 232.648438 C 586.042969 235.621094 586.132812 247.949219 586.132812 251.371094 C 586.132812 254.429688 586.042969 257.578125 586.042969 260.640625 L 586.582031 261.179688 C 592.523438 261 594.054688 260.910156 601.253906 260.910156 Z M 674.78125 197.191406 C 666.140625 197.460938 664.339844 197.460938 654.710938 197.460938 L 654.078125 198 C 649.308594 213.300781 646.429688 222.390625 633.199219 260.371094 L 633.558594 261 L 647.597656 261 L 648.230469 260.460938 L 652.640625 244.078125 L 672.078125 244.078125 L 675.949219 260.730469 L 676.578125 261.269531 C 683.148438 261 684.949219 260.910156 692.238281 261 L 692.691406 260.28125 C 681.800781 221.761719 680.539062 217.53125 675.410156 197.730469 L 674.78125 197.191406 M 655.789062 233.191406 L 660.289062 217.980469 L 663.441406 207.449219 L 666.140625 219.148438 L 669.46875 233.191406 Z M 724.460938 227.609375 L 726.980469 212.941406 L 726.441406 212.308594 C 725.8125 212.308594 725.179688 212.21875 724.550781 212.21875 C 720.859375 212.21875 716.722656 214.289062 713.839844 220.949219 L 714.109375 212.671875 L 713.390625 211.949219 C 706.730469 213.390625 705.019531 213.660156 698.449219 214.648438 L 697.910156 215.191406 C 698.449219 221.941406 698.722656 225.988281 698.722656 238.5 C 698.722656 245.878906 698.628906 253.261719 698.449219 260.730469 L 698.992188 261.269531 C 705.652344 261 707.089844 260.910156 714.289062 261 L 714.742188 260.371094 C 714.378906 253.078125 713.839844 242.910156 713.839844 236.699219 C 713.839844 232.648438 713.839844 226.710938 719.960938 226.710938 C 721.492188 226.710938 722.390625 227.25 723.652344 227.96875 Z M 772.160156 247.679688 C 768.742188 249.480469 764.691406 251.550781 758.121094 251.550781 C 752.722656 251.550781 749.03125 249.839844 746.871094 246.601562 C 745.519531 244.710938 745.25 242.910156 744.890625 241.109375 L 773.960938 240.570312 L 774.5 239.941406 C 774.410156 235.53125 774.320312 231.03125 773.0625 226.53125 C 769.910156 215.910156 762.980469 213.75 759.921875 213.03125 C 757.671875 212.398438 755.601562 212.21875 753.53125 212.21875 C 739.402344 212.21875 730.039062 221.488281 730.039062 237.058594 C 730.039062 241.289062 730.761719 245.699219 732.199219 248.851562 C 737.421875 261 749.660156 262.078125 756.140625 262.078125 C 763.609375 262.078125 766.851562 260.730469 771.621094 258.839844 L 772.160156 258.121094 L 772.789062 247.949219 L 772.160156 247.679688 M 744.890625 231.570312 C 745.160156 228.78125 745.789062 225 749.210938 222.839844 C 750.289062 222.121094 751.550781 221.851562 752.8125 221.851562 C 755.78125 221.851562 757.582031 223.378906 758.570312 225 C 759.832031 226.980469 759.921875 229.140625 759.921875 231.210938 Z M 822.832031 234.179688 C 822.921875 226.078125 822.921875 222.570312 820.582031 218.789062 C 818.78125 215.910156 815.183594 212.308594 803.664062 212.308594 C 795.921875 212.308594 791.152344 213.75 786.023438 215.28125 L 785.484375 216 L 785.03125 225.808594 L 785.753906 226.171875 C 788.902344 224.910156 794.753906 222.570312 800.78125 222.570312 C 804.113281 222.570312 805.460938 223.109375 806.632812 224.28125 C 807.53125 225.179688 807.804688 226.800781 807.804688 228.148438 C 797.003906 229.589844 791.960938 230.578125 786.5625 233.910156 C 781.523438 237.058594 779.8125 242.191406 779.8125 246.238281 C 779.8125 255.871094 786.742188 262.078125 795.5625 262.078125 C 802.3125 262.078125 806.183594 258.839844 808.074219 257.308594 L 808.074219 260.640625 L 808.613281 261.269531 C 815.09375 261 817.074219 260.910156 822.921875 261 L 823.371094 260.371094 C 822.742188 251.550781 822.742188 249.300781 822.742188 240.839844 L 822.832031 234.179688 M 807.984375 248.488281 C 806.09375 249.570312 803.664062 250.828125 800.691406 250.828125 C 797.453125 250.828125 794.753906 249.121094 794.753906 245.339844 C 794.753906 239.398438 801.863281 238.410156 807.984375 237.601562 Z M 827.960938 261 "/>
</svg>
