<?xml version="1.0" encoding="UTF-8"?>
<svg xmlns="http://www.w3.org/2000/svg" xmlns:xlink="http://www.w3.org/1999/xlink" width="975" height="1300" viewBox="0 0 975 1300">
<path fill-rule="nonzero" fill="rgb(98.823529%, 78.823529%, 9.019608%)" fill-opacity="1" d="M 50 50 L 925 50 L 925 290 L 50 290 Z M 50 50 "/>
<path fill-rule="nonzero" fill="rgb(34.901961%, 14.901961%, 14.901961%)" fill-opacity="1" d="M 196.339844 77.191406 C 186.980469 77.460938 185.449219 77.460938 175.460938 77.460938 L 174.921875 78 L 170.78125 92.578125 L 167.179688 105.628906 L 162.949219 121.289062 L 158.988281 105.179688 L 156.46875 95.011719 L 151.96875 77.730469 L 151.519531 77.191406 C 141.890625 77.460938 140.269531 77.460938 130.191406 77.460938 L 129.648438 78 C 128.75 104.910156 128.390625 111.839844 126.410156 140.730469 L 126.859375 141.269531 C 132.621094 141 134.332031 140.910156 139.550781 141 L 140.089844 140.460938 L 140.359375 123.269531 L 140.898438 105.808594 L 141.261719 88.800781 L 145.21875 104.730469 L 148.640625 117.511719 L 154.671875 140.730469 L 155.210938 141.269531 C 160.789062 141 162.320312 140.910156 168.621094 141 L 169.160156 140.460938 L 174.378906 121.289062 L 177.980469 108.148438 L 183.019531 89.25 L 183.019531 105.359375 L 183.199219 119.128906 L 183.199219 140.730469 L 183.648438 141.269531 C 189.859375 141 192.289062 140.910156 199.21875 141 L 199.671875 140.460938 C 199.128906 130.199219 198.5 119.851562 198.140625 109.5 C 197.871094 103.828125 197.691406 98.160156 197.421875 92.488281 C 196.96875 84.121094 196.878906 83.039062 196.878906 77.730469 Z M 249.890625 114.179688 C 249.980469 106.078125 249.980469 102.570312 247.640625 98.789062 C 245.839844 95.910156 242.242188 92.308594 230.722656 92.308594 C 222.980469 92.308594 218.210938 93.75 213.082031 95.28125 L 212.542969 96 L 212.089844 105.808594 L 212.8125 106.171875 C 215.960938 104.910156 221.8125 102.570312 227.839844 102.570312 C 231.171875 102.570312 232.519531 103.109375 233.691406 104.28125 C 234.589844 105.179688 234.863281 106.800781 234.863281 108.148438 C 224.0625 109.589844 219.019531 110.578125 213.621094 113.910156 C 208.582031 117.058594 206.871094 122.191406 206.871094 126.238281 C 206.871094 135.871094 213.800781 142.078125 222.621094 142.078125 C 229.371094 142.078125 233.242188 138.839844 235.132812 137.308594 L 235.132812 140.640625 L 235.671875 141.269531 C 242.152344 141 244.132812 140.910156 249.980469 141 L 250.429688 140.371094 C 249.800781 131.550781 249.800781 129.300781 249.800781 120.839844 L 249.890625 114.179688 M 235.042969 128.488281 C 233.152344 129.570312 230.722656 130.828125 227.75 130.828125 C 224.511719 130.828125 221.8125 129.121094 221.8125 125.339844 C 221.8125 119.398438 228.921875 118.410156 235.042969 117.601562 Z M 304.519531 140.371094 C 304.070312 132.449219 304.070312 129.929688 303.890625 121.109375 L 303.890625 114.089844 C 303.800781 105.449219 303.710938 101.308594 301.460938 97.621094 C 298.667969 92.941406 293.539062 92.21875 290.300781 92.21875 C 284.808594 92.21875 280.039062 95.101562 275.898438 97.53125 L 276.078125 92.578125 L 275.179688 91.949219 C 268.25 93.390625 266.71875 93.660156 259.96875 94.558594 L 259.429688 95.191406 C 260.148438 103.019531 260.691406 108.691406 260.691406 123.359375 C 260.691406 129.121094 260.597656 134.878906 260.507812 140.640625 L 261.050781 141.179688 C 267.53125 140.910156 268.878906 140.910156 276.078125 140.910156 L 276.621094 140.371094 C 276.078125 126.511719 275.988281 123 275.898438 106.890625 C 277.789062 105.628906 279.949219 104.101562 282.828125 104.101562 C 287.78125 104.101562 288.230469 109.410156 288.5 112.648438 C 288.679688 115.621094 288.769531 127.949219 288.769531 131.371094 C 288.769531 134.429688 288.679688 137.578125 288.679688 140.640625 L 289.21875 141.179688 C 295.160156 141 296.691406 140.910156 303.890625 140.910156 Z M 349.96875 128.039062 C 347.539062 129.480469 345.199219 130.921875 340.609375 130.921875 C 330.4375 130.921875 328.367188 122.460938 328.367188 117.058594 C 328.367188 110.488281 331.25 102.929688 339.980469 102.929688 C 343.9375 102.929688 346.097656 104.371094 348.800781 106.171875 L 349.699219 105.898438 C 350.058594 101.128906 350.148438 99.871094 350.867188 95.101562 L 350.417969 94.558594 C 346.457031 93.300781 343.039062 92.21875 337.820312 92.21875 C 316.667969 92.21875 312.527344 108.238281 312.527344 117.421875 C 312.527344 127.769531 317.929688 141.808594 338.179688 141.808594 C 342.949219 141.808594 346.007812 140.910156 349.789062 139.828125 L 350.328125 139.289062 L 350.6875 128.488281 Z M 401.988281 140.371094 C 401.628906 132.988281 401.539062 130.46875 401.359375 121.109375 L 401.359375 114.359375 C 401.269531 105.808594 401.179688 100.859375 398.566406 97.078125 C 395.957031 93.390625 392.179688 92.21875 388.21875 92.21875 C 381.648438 92.21875 376.519531 95.371094 372.917969 97.53125 L 373.1875 69.808594 L 372.648438 69.179688 L 357.257812 71.609375 L 356.808594 72.148438 C 357.617188 80.878906 357.796875 84.121094 357.976562 95.730469 C 358.160156 103.019531 358.25 110.308594 358.25 117.601562 C 358.25 126.511719 358.066406 131.820312 357.886719 140.640625 L 358.339844 141.269531 C 365 140.910156 366.347656 140.910156 373.636719 140.910156 L 374.179688 140.371094 C 373.546875 126.871094 373.457031 122.820312 373.367188 106.890625 C 375.078125 105.71875 377.238281 104.191406 380.296875 104.191406 C 385.25 104.191406 385.609375 109.320312 385.96875 112.921875 C 386.148438 115.710938 386.238281 128.488281 386.238281 131.820312 C 386.238281 134.789062 386.148438 137.671875 386.148438 140.640625 L 386.597656 141.269531 C 393.078125 140.910156 394.519531 140.910156 401.449219 140.910156 Z M 452.210938 127.679688 C 448.792969 129.480469 444.742188 131.550781 438.171875 131.550781 C 432.773438 131.550781 429.082031 129.839844 426.921875 126.601562 C 425.570312 124.710938 425.300781 122.910156 424.941406 121.109375 L 454.011719 120.570312 L 454.550781 119.941406 C 454.460938 115.53125 454.371094 111.03125 453.113281 106.53125 C 449.960938 95.910156 443.03125 93.75 439.972656 93.03125 C 437.722656 92.398438 435.652344 92.21875 433.582031 92.21875 C 419.453125 92.21875 410.089844 101.488281 410.089844 117.058594 C 410.089844 121.289062 410.8125 125.699219 412.25 128.851562 C 417.472656 141 429.710938 142.078125 436.191406 142.078125 C 443.660156 142.078125 446.902344 140.730469 451.671875 138.839844 L 452.210938 138.121094 L 452.839844 127.949219 L 452.210938 127.679688 M 424.941406 111.570312 C 425.210938 108.78125 425.839844 105 429.261719 102.839844 C 430.339844 102.121094 431.601562 101.851562 432.863281 101.851562 C 435.832031 101.851562 437.632812 103.378906 438.621094 105 C 439.882812 106.980469 439.972656 109.140625 439.972656 111.210938 Z M 481.730469 109.949219 C 478.667969 108.871094 476.238281 107.878906 476.238281 105.359375 C 476.238281 104.28125 476.960938 101.308594 482.539062 101.308594 C 488.03125 101.308594 491.539062 103.648438 493.789062 105.089844 L 494.601562 104.820312 L 495.5 95.011719 L 495.050781 94.46875 C 490.820312 93.300781 487.128906 92.21875 481.28125 92.21875 C 476.871094 92.21875 468.050781 92.578125 463.371094 99.328125 C 462.199219 100.949219 460.941406 103.648438 460.941406 107.25 C 460.941406 116.878906 468.410156 119.761719 472.640625 121.378906 L 476.058594 122.640625 C 478.488281 123.449219 482.449219 124.800781 482.449219 128.039062 C 482.449219 130.289062 480.378906 132.71875 475.339844 132.71875 C 472.820312 132.71875 469.128906 131.910156 465.800781 130.199219 C 464.269531 129.390625 463.550781 128.761719 462.199219 127.679688 L 461.390625 128.039062 C 461.210938 132.71875 461.121094 133.710938 460.757812 138.210938 L 461.210938 139.019531 C 465.621094 140.640625 469.398438 142.078125 475.96875 142.078125 C 482.808594 142.078125 496.308594 140.820312 497.929688 127.949219 C 498.019531 127.230469 498.019531 126.601562 498.019531 125.96875 C 498.019531 116.070312 491.089844 113.460938 486.140625 111.570312 Z M 531.140625 130.648438 C 529.609375 131.101562 528.527344 131.460938 527 131.460938 C 522.410156 131.460938 522.050781 128.578125 521.867188 127.230469 C 521.597656 124.890625 521.597656 119.941406 521.6875 116.339844 L 521.867188 103.648438 L 529.96875 104.011719 L 530.507812 103.46875 L 531.410156 93.839844 L 530.867188 93.300781 L 521.867188 93.300781 L 522.140625 78.179688 L 521.507812 77.640625 C 515.390625 79.441406 513.769531 79.890625 507.378906 81.511719 L 507.019531 82.140625 L 507.109375 93.390625 L 502.25 93.210938 L 501.710938 93.660156 L 500.898438 103.289062 L 501.4375 103.828125 L 507.109375 103.648438 L 506.839844 117.960938 C 506.75 120.210938 506.660156 122.460938 506.660156 124.800781 C 506.660156 133.078125 506.839844 141.988281 520.878906 141.988281 C 524.390625 141.988281 527.179688 141.449219 530.328125 140.910156 L 530.960938 140.28125 L 531.859375 131.011719 Z M 577.757812 127.679688 C 574.339844 129.480469 570.289062 131.550781 563.71875 131.550781 C 558.320312 131.550781 554.628906 129.839844 552.46875 126.601562 C 551.117188 124.710938 550.847656 122.910156 550.488281 121.109375 L 579.558594 120.570312 L 580.097656 119.941406 C 580.007812 115.53125 579.917969 111.03125 578.660156 106.53125 C 575.507812 95.910156 568.578125 93.75 565.519531 93.03125 C 563.269531 92.398438 561.199219 92.21875 559.128906 92.21875 C 545 92.21875 535.636719 101.488281 535.636719 117.058594 C 535.636719 121.289062 536.359375 125.699219 537.796875 128.851562 C 543.019531 141 555.257812 142.078125 561.738281 142.078125 C 569.207031 142.078125 572.449219 140.730469 577.21875 138.839844 L 577.757812 138.121094 L 578.386719 127.949219 L 577.757812 127.679688 M 550.488281 111.570312 C 550.757812 108.78125 551.386719 105 554.808594 102.839844 C 555.886719 102.121094 557.148438 101.851562 558.410156 101.851562 C 561.378906 101.851562 563.179688 103.378906 564.167969 105 C 565.429688 106.980469 565.519531 109.140625 565.519531 111.210938 Z M 614.390625 107.609375 L 616.910156 92.941406 L 616.371094 92.308594 C 615.742188 92.308594 615.109375 92.21875 614.480469 92.21875 C 610.789062 92.21875 606.652344 94.289062 603.769531 100.949219 L 604.039062 92.671875 L 603.320312 91.949219 C 596.660156 93.390625 594.949219 93.660156 588.378906 94.648438 L 587.839844 95.191406 C 588.378906 101.941406 588.652344 105.988281 588.652344 118.5 C 588.652344 125.878906 588.558594 133.261719 588.378906 140.730469 L 588.921875 141.269531 C 595.582031 141 597.019531 140.910156 604.21875 141 L 604.671875 140.371094 C 604.308594 133.078125 603.769531 122.910156 603.769531 116.699219 C 603.769531 112.648438 603.769531 106.710938 609.890625 106.710938 C 611.421875 106.710938 612.320312 107.25 613.582031 107.96875 Z M 674.421875 102.300781 C 666.863281 99.148438 662.902344 97.53125 662.902344 93.480469 C 662.902344 90.691406 665.511719 87.179688 671.453125 87.179688 C 678.292969 87.179688 682.339844 89.96875 685.671875 92.21875 L 686.480469 91.859375 L 687.203125 80.070312 L 686.75 79.441406 C 682.882812 77.820312 678.832031 76.109375 670.101562 76.109375 C 653.183594 76.109375 647.332031 85.648438 647.332031 95.28125 C 647.332031 106.171875 655.792969 110.128906 660.832031 112.558594 L 663.800781 113.910156 C 670.011719 116.519531 674.78125 118.769531 674.78125 123.539062 C 674.78125 126.960938 671.8125 131.011719 663.980469 131.011719 C 655.792969 131.011719 651.203125 127.410156 648.589844 125.339844 L 647.691406 125.609375 L 647.0625 138.300781 L 647.601562 139.019531 C 648.589844 139.378906 649.582031 139.828125 650.570312 140.101562 C 652.640625 140.820312 657.953125 142.351562 664.703125 142.351562 C 667.402344 142.351562 674.242188 142.078125 679.640625 139.558594 C 687.203125 135.871094 690.441406 129.03125 690.441406 121.378906 C 690.441406 116.25 688.460938 110.761719 683.691406 107.070312 C 681.261719 105.269531 678.921875 104.191406 676.761719 103.199219 Z M 724.191406 130.648438 C 722.660156 131.101562 721.578125 131.460938 720.050781 131.460938 C 715.460938 131.460938 715.101562 128.578125 714.917969 127.230469 C 714.648438 124.890625 714.648438 119.941406 714.738281 116.339844 L 714.917969 103.648438 L 723.019531 104.011719 L 723.558594 103.46875 L 724.460938 93.839844 L 723.917969 93.300781 L 714.917969 93.300781 L 715.191406 78.179688 L 714.558594 77.640625 C 708.441406 79.441406 706.820312 79.890625 700.429688 81.511719 L 700.070312 82.140625 L 700.160156 93.390625 L 695.300781 93.210938 L 694.761719 93.660156 L 693.949219 103.289062 L 694.488281 103.828125 L 700.160156 103.648438 L 699.890625 117.960938 C 699.800781 120.210938 699.710938 122.460938 699.710938 124.800781 C 699.710938 133.078125 699.890625 141.988281 713.929688 141.988281 C 717.441406 141.988281 720.230469 141.449219 723.378906 140.910156 L 724.011719 140.28125 L 724.910156 131.011719 Z M 770.898438 114.179688 C 770.988281 106.078125 770.988281 102.570312 768.648438 98.789062 C 766.847656 95.910156 763.25 92.308594 751.730469 92.308594 C 743.988281 92.308594 739.21875 93.75 734.089844 95.28125 L 733.550781 96 L 733.097656 105.808594 L 733.820312 106.171875 C 736.96875 104.910156 742.820312 102.570312 748.847656 102.570312 C 752.179688 102.570312 753.527344 103.109375 754.699219 104.28125 C 755.597656 105.179688 755.871094 106.800781 755.871094 108.148438 C 745.070312 109.589844 740.027344 110.578125 734.628906 113.910156 C 729.589844 117.058594 727.878906 122.191406 727.878906 126.238281 C 727.878906 135.871094 734.808594 142.078125 743.628906 142.078125 C 750.378906 142.078125 754.25 138.839844 756.140625 137.308594 L 756.140625 140.640625 L 756.679688 141.269531 C 763.160156 141 765.140625 140.910156 770.988281 141 L 771.4375 140.371094 C 770.808594 131.550781 770.808594 129.300781 770.808594 120.839844 L 770.898438 114.179688 M 756.050781 128.488281 C 754.160156 129.570312 751.730469 130.828125 748.757812 130.828125 C 745.519531 130.828125 742.820312 129.121094 742.820312 125.339844 C 742.820312 119.398438 749.929688 118.410156 756.050781 117.601562 Z M 806.632812 130.648438 C 805.101562 131.101562 804.019531 131.460938 802.492188 131.460938 C 797.902344 131.460938 797.542969 128.578125 797.359375 127.230469 C 797.089844 124.890625 797.089844 119.941406 797.179688 116.339844 L 797.359375 103.648438 L 805.460938 104.011719 L 806 103.46875 L 806.902344 93.839844 L 806.359375 93.300781 L 797.359375 93.300781 L 797.632812 78.179688 L 797 77.640625 C 790.882812 79.441406 789.261719 79.890625 782.871094 81.511719 L 782.511719 82.140625 L 782.601562 93.390625 L 777.742188 93.210938 L 777.203125 93.660156 L 776.390625 103.289062 L 776.929688 103.828125 L 782.601562 103.648438 L 782.332031 117.960938 C 782.242188 120.210938 782.152344 122.460938 782.152344 124.800781 C 782.152344 133.078125 782.332031 141.988281 796.371094 141.988281 C 799.882812 141.988281 802.671875 141.449219 805.820312 140.910156 L 806.453125 140.28125 L 807.351562 131.011719 Z M 853.25 127.679688 C 849.832031 129.480469 845.78125 131.550781 839.210938 131.550781 C 833.8125 131.550781 830.121094 129.839844 827.960938 126.601562 C 826.609375 124.710938 826.339844 122.910156 825.980469 121.109375 L 855.050781 120.570312 L 855.589844 119.941406 C 855.5 115.53125 855.410156 111.03125 854.152344 106.53125 C 851 95.910156 844.070312 93.75 841.011719 93.03125 C 838.761719 92.398438 836.691406 92.21875 834.621094 92.21875 C 820.492188 92.21875 811.128906 101.488281 811.128906 117.058594 C 811.128906 121.289062 811.851562 125.699219 813.289062 128.851562 C 818.511719 141 830.75 142.078125 837.230469 142.078125 C 844.699219 142.078125 847.941406 140.730469 852.710938 138.839844 L 853.25 138.121094 L 853.878906 127.949219 L 853.25 127.679688 M 825.980469 111.570312 C 826.25 108.78125 826.878906 105 830.300781 102.839844 C 831.378906 102.121094 832.640625 101.851562 833.902344 101.851562 C 836.871094 101.851562 838.671875 103.378906 839.660156 105 C 840.921875 106.980469 841.011719 109.140625 841.011719 111.210938 Z M 858.46875 141 "/>
<path fill-rule="nonzero" fill="rgb(34.901961%, 14.901961%, 14.901961%)" fill-opacity="1" d="M 411.53125 197.28125 L 400.101562 197.460938 L 399.558594 198 C 399.921875 209.699219 400.191406 217.53125 400.191406 227.878906 C 400.191406 238.859375 399.921875 249.75 399.648438 260.730469 L 400.191406 261.269531 C 406.851562 261 408.289062 260.910156 415.492188 261 L 415.941406 260.460938 C 415.582031 250.648438 415.582031 248.398438 415.582031 239.21875 C 425.660156 239.308594 436.460938 239.308594 442.941406 231.390625 C 445.460938 228.328125 447.621094 223.199219 447.621094 216.898438 C 447.621094 213.03125 446.71875 204.480469 439.25 200.25 C 433.851562 197.101562 426.199219 197.101562 419.449219 197.101562 L 411.53125 197.28125 M 415.582031 208.171875 C 417.558594 208.078125 419.449219 208.078125 421.429688 208.078125 C 429.351562 208.261719 431.511719 212.308594 431.511719 217.53125 C 431.511719 218.789062 431.511719 224.011719 426.742188 226.621094 C 424.308594 227.96875 420.980469 228.148438 415.582031 228.148438 Z M 493.878906 234.179688 C 493.96875 226.078125 493.96875 222.570312 491.628906 218.789062 C 489.828125 215.910156 486.230469 212.308594 474.710938 212.308594 C 466.96875 212.308594 462.199219 213.75 457.070312 215.28125 L 456.53125 216 L 456.078125 225.808594 L 456.800781 226.171875 C 459.949219 224.910156 465.800781 222.570312 471.828125 222.570312 C 475.160156 222.570312 476.507812 223.109375 477.679688 224.28125 C 478.578125 225.179688 478.851562 226.800781 478.851562 228.148438 C 468.050781 229.589844 463.007812 230.578125 457.609375 233.910156 C 452.570312 237.058594 450.859375 242.191406 450.859375 246.238281 C 450.859375 255.871094 457.789062 262.078125 466.609375 262.078125 C 473.359375 262.078125 477.230469 258.839844 479.121094 257.308594 L 479.121094 260.640625 L 479.660156 261.269531 C 486.140625 261 488.121094 260.910156 493.96875 261 L 494.417969 260.371094 C 493.789062 251.550781 493.789062 249.300781 493.789062 240.839844 L 493.878906 234.179688 M 479.03125 248.488281 C 477.140625 249.570312 474.710938 250.828125 471.738281 250.828125 C 468.5 250.828125 465.800781 249.121094 465.800781 245.339844 C 465.800781 239.398438 472.910156 238.410156 479.03125 237.601562 Z M 530.421875 227.609375 L 532.941406 212.941406 L 532.402344 212.308594 C 531.773438 212.308594 531.140625 212.21875 530.511719 212.21875 C 526.820312 212.21875 522.683594 214.289062 519.800781 220.949219 L 520.070312 212.671875 L 519.351562 211.949219 C 512.691406 213.390625 510.980469 213.660156 504.410156 214.648438 L 503.871094 215.191406 C 504.410156 221.941406 504.683594 225.988281 504.683594 238.5 C 504.683594 245.878906 504.589844 253.261719 504.410156 260.730469 L 504.953125 261.269531 C 511.613281 261 513.050781 260.910156 520.25 261 L 520.703125 260.371094 C 520.339844 253.078125 519.800781 242.910156 519.800781 236.699219 C 519.800781 232.648438 519.800781 226.710938 525.921875 226.710938 C 527.453125 226.710938 528.351562 227.25 529.613281 227.96875 Z M 584.421875 259.828125 C 575.960938 245.519531 575.0625 243.898438 568.222656 231.570312 C 574.433594 223.109375 575.0625 222.210938 581.453125 214.019531 L 581 213.121094 L 566.332031 213.300781 L 565.433594 213.929688 C 558.410156 226.078125 557.511719 227.519531 553.371094 233.730469 L 553.371094 223.738281 C 553.460938 206.910156 553.550781 203.308594 554 189.71875 L 553.28125 189.179688 L 537.621094 191.519531 L 537.082031 192.148438 C 537.710938 200.878906 537.980469 205.109375 538.160156 216.898438 C 538.339844 231.480469 538.339844 246.058594 538.25 260.640625 L 538.882812 261.269531 C 544.910156 261 546.621094 261 553.460938 261 L 554 260.371094 L 553.460938 245.160156 L 553.371094 234.808594 C 561.203125 249.210938 562.191406 251.191406 566.78125 260.730469 L 567.589844 261.269531 L 583.792969 260.640625 Z M 583.339844 261 "/>
</svg>
