<?xml version="1.0" encoding="UTF-8"?>
<svg xmlns="http://www.w3.org/2000/svg" xmlns:xlink="http://www.w3.org/1999/xlink" width="975" height="1300" viewBox="0 0 975 1300">
<path fill-rule="nonzero" fill="rgb(98.823529%, 78.823529%, 9.019608%)" fill-opacity="1" d="M 50 50 L 925 50 L 925 410 L 50 410 Z M 50 50 "/>
<path fill-rule="nonzero" fill="rgb(34.901961%, 14.901961%, 14.901961%)" fill-opacity="1" d="M 200.839844 77.191406 C 191.480469 77.460938 189.949219 77.460938 179.960938 77.460938 L 179.421875 78 L 175.28125 92.578125 L 171.679688 105.628906 L 167.449219 121.289062 L 163.488281 105.179688 L 160.96875 95.011719 L 156.46875 77.730469 L 156.019531 77.191406 C 146.390625 77.460938 144.769531 77.460938 134.691406 77.460938 L 134.148438 78 C 133.25 104.910156 132.890625 111.839844 130.910156 140.730469 L 131.359375 141.269531 C 137.121094 141 138.832031 140.910156 144.050781 141 L 144.589844 140.460938 L 144.859375 123.269531 L 145.398438 105.808594 L 145.761719 88.800781 L 149.71875 104.730469 L 153.140625 117.511719 L 159.171875 140.730469 L 159.710938 141.269531 C 165.289062 141 166.820312 140.910156 173.121094 141 L 173.660156 140.460938 L 178.878906 121.289062 L 182.480469 108.148438 L 187.519531 89.25 L 187.519531 105.359375 L 187.699219 119.128906 L 187.699219 140.730469 L 188.148438 141.269531 C 194.359375 141 196.789062 140.910156 203.71875 141 L 204.171875 140.460938 C 203.628906 130.199219 203 119.851562 202.640625 109.5 C 202.371094 103.828125 202.191406 98.160156 201.921875 92.488281 C 201.46875 84.121094 201.378906 83.039062 201.378906 77.730469 Z M 249.53125 128.039062 C 247.101562 129.480469 244.761719 130.921875 240.171875 130.921875 C 230 130.921875 227.929688 122.460938 227.929688 117.058594 C 227.929688 110.488281 230.8125 102.929688 239.542969 102.929688 C 243.5 102.929688 245.660156 104.371094 248.363281 106.171875 L 249.261719 105.898438 C 249.621094 101.128906 249.710938 99.871094 250.429688 95.101562 L 249.980469 94.558594 C 246.019531 93.300781 242.601562 92.21875 237.382812 92.21875 C 216.230469 92.21875 212.089844 108.238281 212.089844 117.421875 C 212.089844 127.769531 217.492188 141.808594 237.742188 141.808594 C 242.511719 141.808594 245.570312 140.910156 249.351562 139.828125 L 249.890625 139.289062 L 250.25 128.488281 Z M 293.8125 77.191406 C 285.171875 77.460938 283.371094 77.460938 273.742188 77.460938 L 273.109375 78 C 268.339844 93.300781 265.460938 102.390625 252.230469 140.371094 L 252.589844 141 L 266.628906 141 L 267.261719 140.460938 L 271.671875 124.078125 L 291.109375 124.078125 L 294.980469 140.730469 L 295.609375 141.269531 C 302.179688 141 303.980469 140.910156 311.269531 141 L 311.722656 140.28125 C 300.832031 101.761719 299.570312 97.53125 294.441406 77.730469 L 293.8125 77.191406 M 274.820312 113.191406 L 279.320312 97.980469 L 282.472656 87.449219 L 285.171875 99.148438 L 288.5 113.191406 Z M 343.492188 107.609375 L 346.011719 92.941406 L 345.472656 92.308594 C 344.84375 92.308594 344.210938 92.21875 343.582031 92.21875 C 339.890625 92.21875 335.753906 94.289062 332.871094 100.949219 L 333.140625 92.671875 L 332.421875 91.949219 C 325.761719 93.390625 324.050781 93.660156 317.480469 94.648438 L 316.941406 95.191406 C 317.480469 101.941406 317.753906 105.988281 317.753906 118.5 C 317.753906 125.878906 317.660156 133.261719 317.480469 140.730469 L 318.023438 141.269531 C 324.683594 141 326.121094 140.910156 333.320312 141 L 333.773438 140.371094 C 333.410156 133.078125 332.871094 122.910156 332.871094 116.699219 C 332.871094 112.648438 332.871094 106.710938 338.992188 106.710938 C 340.523438 106.710938 341.421875 107.25 342.683594 107.96875 Z M 376.433594 130.648438 C 374.902344 131.101562 373.820312 131.460938 372.292969 131.460938 C 367.703125 131.460938 367.34375 128.578125 367.160156 127.230469 C 366.890625 124.890625 366.890625 119.941406 366.980469 116.339844 L 367.160156 103.648438 L 375.261719 104.011719 L 375.800781 103.46875 L 376.703125 93.839844 L 376.160156 93.300781 L 367.160156 93.300781 L 367.433594 78.179688 L 366.800781 77.640625 C 360.683594 79.441406 359.0625 79.890625 352.671875 81.511719 L 352.3125 82.140625 L 352.402344 93.390625 L 347.542969 93.210938 L 347.003906 93.660156 L 346.191406 103.289062 L 346.730469 103.828125 L 352.402344 103.648438 L 352.132812 117.960938 C 352.042969 120.210938 351.953125 122.460938 351.953125 124.800781 C 351.953125 133.078125 352.132812 141.988281 366.171875 141.988281 C 369.683594 141.988281 372.472656 141.449219 375.621094 140.910156 L 376.253906 140.28125 L 377.152344 131.011719 Z M 427.191406 140.371094 C 426.832031 132.988281 426.742188 130.46875 426.5625 121.109375 L 426.5625 114.359375 C 426.472656 105.808594 426.382812 100.859375 423.769531 97.078125 C 421.160156 93.390625 417.382812 92.21875 413.421875 92.21875 C 406.851562 92.21875 401.722656 95.371094 398.121094 97.53125 L 398.390625 69.808594 L 397.851562 69.179688 L 382.460938 71.609375 L 382.011719 72.148438 C 382.820312 80.878906 383 84.121094 383.179688 95.730469 C 383.363281 103.019531 383.453125 110.308594 383.453125 117.601562 C 383.453125 126.511719 383.269531 131.820312 383.089844 140.640625 L 383.542969 141.269531 C 390.203125 140.910156 391.550781 140.910156 398.839844 140.910156 L 399.382812 140.371094 C 398.75 126.871094 398.660156 122.820312 398.570312 106.890625 C 400.28125 105.71875 402.441406 104.191406 405.5 104.191406 C 410.453125 104.191406 410.8125 109.320312 411.171875 112.921875 C 411.351562 115.710938 411.441406 128.488281 411.441406 131.820312 C 411.441406 134.789062 411.351562 137.671875 411.351562 140.640625 L 411.800781 141.269531 C 418.28125 140.910156 419.722656 140.910156 426.652344 140.910156 Z M 480.652344 92.851562 L 465.980469 93.570312 L 465.351562 94.109375 C 465.980469 104.28125 465.980469 118.679688 465.980469 120.121094 C 465.980469 122.730469 465.980469 124.171875 465.890625 127.769531 C 463.460938 129.390625 461.570312 130.738281 459.140625 130.738281 C 452.660156 130.738281 452.660156 123.898438 452.660156 118.589844 C 452.660156 116.339844 452.660156 114 452.75 111.75 L 452.929688 93.570312 L 452.300781 92.851562 L 437.449219 93.570312 L 436.820312 94.109375 C 437.359375 101.671875 437.449219 104.191406 437.449219 113.28125 L 437.449219 119.578125 C 437.359375 129.390625 437.8125 133.53125 441.050781 137.308594 C 444.019531 140.640625 448.339844 142.078125 452.839844 142.078125 C 459.230469 142.078125 462.921875 139.199219 466.160156 136.679688 L 466.070312 140.730469 L 466.699219 141.269531 C 473.269531 141 475.25 141 481.101562 141 L 481.640625 140.460938 C 481.191406 134.070312 481.011719 130.648438 481.011719 118.949219 C 481.011719 110.488281 481.101562 102.03125 481.28125 93.570312 Z M 517.820312 107.609375 L 520.339844 92.941406 L 519.800781 92.308594 C 519.171875 92.308594 518.539062 92.21875 517.910156 92.21875 C 514.21875 92.21875 510.082031 94.289062 507.199219 100.949219 L 507.46875 92.671875 L 506.75 91.949219 C 500.089844 93.390625 498.378906 93.660156 491.808594 94.648438 L 491.269531 95.191406 C 491.808594 101.941406 492.082031 105.988281 492.082031 118.5 C 492.082031 125.878906 491.988281 133.261719 491.808594 140.730469 L 492.351562 141.269531 C 499.011719 141 500.449219 140.910156 507.648438 141 L 508.101562 140.371094 C 507.738281 133.078125 507.199219 122.910156 507.199219 116.699219 C 507.199219 112.648438 507.199219 106.710938 513.320312 106.710938 C 514.851562 106.710938 515.75 107.25 517.011719 107.96875 Z M 550.398438 109.769531 C 546.082031 109.859375 542.570312 109.949219 537.261719 109.949219 C 532.941406 109.949219 528.621094 109.859375 524.390625 109.859375 L 523.761719 110.398438 L 523.21875 120.75 L 523.671875 121.289062 C 528.710938 121.199219 531.679688 121.109375 536.449219 121.109375 C 540.859375 121.109375 545.269531 121.199219 549.679688 121.199219 L 550.21875 120.660156 L 550.851562 110.21875 Z M 576.050781 141 C 584.421875 141.179688 594.769531 141.359375 601.519531 136.679688 C 607.460938 132.449219 609.082031 126.511719 609.082031 121.46875 C 609.082031 115.710938 606.648438 110.398438 601.519531 107.878906 C 599.808594 106.980469 597.832031 106.621094 595.941406 106.261719 C 599 105 602.601562 103.378906 604.941406 98.609375 C 605.929688 96.539062 606.378906 94.378906 606.378906 92.308594 C 606.378906 89.429688 605.660156 85.46875 602.78125 82.230469 C 599 78.179688 593.148438 77.101562 584.332031 77.101562 C 581.269531 77.101562 575.78125 77.191406 572.71875 77.28125 L 560.121094 77.460938 L 559.582031 78 C 559.941406 86.640625 560.03125 89.96875 560.03125 102.390625 C 560.03125 115.171875 559.941406 127.859375 559.761719 140.640625 L 560.390625 141 L 576.050781 141 M 575.421875 113.640625 C 582.261719 113.460938 586.21875 113.460938 588.832031 114.988281 C 591.441406 116.609375 592.429688 119.488281 592.429688 122.371094 C 592.429688 126.421875 590.179688 128.941406 586.851562 130.109375 C 584.148438 131.011719 579.289062 131.011719 575.421875 130.921875 L 575.421875 113.640625 M 575.421875 87.179688 C 577.308594 87.179688 579.832031 87.089844 581.359375 87.089844 C 586.21875 87.089844 590.628906 88.800781 590.628906 94.648438 C 590.628906 99.421875 587.121094 101.398438 586.039062 101.941406 C 583.789062 102.929688 579.019531 102.929688 575.421875 102.929688 Z M 660.652344 92.851562 L 645.980469 93.570312 L 645.351562 94.109375 C 645.980469 104.28125 645.980469 118.679688 645.980469 120.121094 C 645.980469 122.730469 645.980469 124.171875 645.890625 127.769531 C 643.460938 129.390625 641.570312 130.738281 639.140625 130.738281 C 632.660156 130.738281 632.660156 123.898438 632.660156 118.589844 C 632.660156 116.339844 632.660156 114 632.75 111.75 L 632.929688 93.570312 L 632.300781 92.851562 L 617.449219 93.570312 L 616.820312 94.109375 C 617.359375 101.671875 617.449219 104.191406 617.449219 113.28125 L 617.449219 119.578125 C 617.359375 129.390625 617.8125 133.53125 621.050781 137.308594 C 624.019531 140.640625 628.339844 142.078125 632.839844 142.078125 C 639.230469 142.078125 642.921875 139.199219 646.160156 136.679688 L 646.070312 140.730469 L 646.699219 141.269531 C 653.269531 141 655.25 141 661.101562 141 L 661.640625 140.460938 C 661.191406 134.070312 661.011719 130.648438 661.011719 118.949219 C 661.011719 110.488281 661.101562 102.03125 661.28125 93.570312 Z M 697.820312 107.609375 L 700.339844 92.941406 L 699.800781 92.308594 C 699.171875 92.308594 698.539062 92.21875 697.910156 92.21875 C 694.21875 92.21875 690.082031 94.289062 687.199219 100.949219 L 687.46875 92.671875 L 686.75 91.949219 C 680.089844 93.390625 678.378906 93.660156 671.808594 94.648438 L 671.269531 95.191406 C 671.808594 101.941406 672.082031 105.988281 672.082031 118.5 C 672.082031 125.878906 671.988281 133.261719 671.808594 140.730469 L 672.351562 141.269531 C 679.011719 141 680.449219 140.910156 687.648438 141 L 688.101562 140.371094 C 687.738281 133.078125 687.199219 122.910156 687.199219 116.699219 C 687.199219 112.648438 687.199219 106.710938 693.320312 106.710938 C 694.851562 106.710938 695.75 107.25 697.011719 107.96875 Z M 749.660156 140.371094 C 749.210938 132.449219 749.210938 129.929688 749.03125 121.109375 L 749.03125 114.089844 C 748.941406 105.449219 748.851562 101.308594 746.601562 97.621094 C 743.808594 92.941406 738.679688 92.21875 735.441406 92.21875 C 729.949219 92.21875 725.179688 95.101562 721.039062 97.53125 L 721.21875 92.578125 L 720.320312 91.949219 C 713.390625 93.390625 711.859375 93.660156 705.109375 94.558594 L 704.570312 95.191406 C 705.289062 103.019531 705.832031 108.691406 705.832031 123.359375 C 705.832031 129.121094 705.738281 134.878906 705.648438 140.640625 L 706.191406 141.179688 C 712.671875 140.910156 714.019531 140.910156 721.21875 140.910156 L 721.761719 140.371094 C 721.21875 126.511719 721.128906 123 721.039062 106.890625 C 722.929688 105.628906 725.089844 104.101562 727.96875 104.101562 C 732.921875 104.101562 733.371094 109.410156 733.640625 112.648438 C 733.820312 115.621094 733.910156 127.949219 733.910156 131.371094 C 733.910156 134.429688 733.820312 137.578125 733.820312 140.640625 L 734.359375 141.179688 C 740.300781 141 741.832031 140.910156 749.03125 140.910156 Z M 799.878906 127.679688 C 796.460938 129.480469 792.410156 131.550781 785.839844 131.550781 C 780.441406 131.550781 776.75 129.839844 774.589844 126.601562 C 773.238281 124.710938 772.96875 122.910156 772.609375 121.109375 L 801.679688 120.570312 L 802.21875 119.941406 C 802.128906 115.53125 802.039062 111.03125 800.78125 106.53125 C 797.628906 95.910156 790.699219 93.75 787.640625 93.03125 C 785.390625 92.398438 783.320312 92.21875 781.25 92.21875 C 767.121094 92.21875 757.757812 101.488281 757.757812 117.058594 C 757.757812 121.289062 758.480469 125.699219 759.917969 128.851562 C 765.140625 141 777.378906 142.078125 783.859375 142.078125 C 791.328125 142.078125 794.570312 140.730469 799.339844 138.839844 L 799.878906 138.121094 L 800.507812 127.949219 L 799.878906 127.679688 M 772.609375 111.570312 C 772.878906 108.78125 773.507812 105 776.929688 102.839844 C 778.007812 102.121094 779.269531 101.851562 780.53125 101.851562 C 783.5 101.851562 785.300781 103.378906 786.289062 105 C 787.550781 106.980469 787.640625 109.140625 787.640625 111.210938 Z M 850.730469 93.03125 L 838.222656 93.300781 L 837.5 93.929688 C 835.972656 100.140625 835.613281 101.488281 833.453125 108.511719 L 831.113281 116.25 L 829.132812 123 L 827.421875 116.609375 L 824.8125 107.070312 L 821.210938 93.390625 L 820.492188 92.851562 C 813.472656 93.390625 811.941406 93.480469 804.5625 93.660156 L 804.113281 94.289062 C 807.351562 102.839844 815.722656 125.429688 821.300781 142.710938 C 817.613281 152.070312 816.890625 153.691406 812.839844 162.601562 L 813.292969 163.320312 C 815.542969 163.230469 818.0625 163.140625 820.402344 163.140625 C 822.652344 163.140625 824.992188 163.230469 827.242188 163.230469 L 827.871094 162.691406 C 832.820312 143.25 835.25 135.691406 847.132812 104.371094 C 848.480469 100.769531 849.832031 97.261719 851.089844 93.75 Z M 850.101562 141 "/>
<path fill-rule="nonzero" fill="rgb(34.901961%, 14.901961%, 14.901961%)" fill-opacity="1" d="M 99.003906 235.078125 L 99.636719 234.539062 L 100.355469 224.011719 L 99.90625 223.46875 L 79.386719 224.191406 L 79.386719 209.160156 L 101.4375 209.429688 L 101.976562 208.800781 L 102.964844 197.640625 L 102.425781 197.191406 C 87.574219 197.460938 82.804688 197.460938 63.367188 197.371094 L 62.824219 197.910156 C 63.367188 206.730469 63.726562 213.839844 63.726562 229.769531 C 63.726562 240.121094 63.546875 250.46875 63.367188 260.820312 L 63.816406 261.269531 C 70.386719 261 71.914062 261 79.835938 261 L 80.285156 260.460938 C 79.65625 250.109375 79.566406 246.960938 79.296875 235.078125 Z M 149.855469 234.179688 C 149.945312 226.078125 149.945312 222.570312 147.605469 218.789062 C 145.804688 215.910156 142.207031 212.308594 130.6875 212.308594 C 122.945312 212.308594 118.175781 213.75 113.046875 215.28125 L 112.507812 216 L 112.054688 225.808594 L 112.777344 226.171875 C 115.925781 224.910156 121.777344 222.570312 127.804688 222.570312 C 131.136719 222.570312 132.484375 223.109375 133.65625 224.28125 C 134.554688 225.179688 134.828125 226.800781 134.828125 228.148438 C 124.027344 229.589844 118.984375 230.578125 113.585938 233.910156 C 108.546875 237.058594 106.835938 242.191406 106.835938 246.238281 C 106.835938 255.871094 113.765625 262.078125 122.585938 262.078125 C 129.335938 262.078125 133.207031 258.839844 135.097656 257.308594 L 135.097656 260.640625 L 135.636719 261.269531 C 142.117188 261 144.097656 260.910156 149.945312 261 L 150.394531 260.371094 C 149.765625 251.550781 149.765625 249.300781 149.765625 240.839844 L 149.855469 234.179688 M 135.007812 248.488281 C 133.117188 249.570312 130.6875 250.828125 127.714844 250.828125 C 124.476562 250.828125 121.777344 249.121094 121.777344 245.339844 C 121.777344 239.398438 128.886719 238.410156 135.007812 237.601562 Z M 176.222656 260.371094 C 175.773438 250.019531 175.324219 240.570312 175.324219 212.128906 C 175.324219 203.578125 175.414062 199.53125 175.773438 189.808594 L 175.144531 189.179688 L 159.753906 191.609375 L 159.394531 192.148438 C 160.292969 203.128906 160.382812 206.101562 160.5625 220.679688 C 160.65625 225.988281 160.65625 231.300781 160.65625 236.609375 C 160.65625 246.328125 160.472656 251.730469 160.113281 260.640625 L 160.65625 261.269531 C 166.683594 261 169.113281 260.910156 175.683594 261 Z M 202.503906 260.371094 C 202.054688 250.019531 201.605469 240.570312 201.605469 212.128906 C 201.605469 203.578125 201.695312 199.53125 202.054688 189.808594 L 201.425781 189.179688 L 186.035156 191.609375 L 185.675781 192.148438 C 186.574219 203.128906 186.664062 206.101562 186.84375 220.679688 C 186.9375 225.988281 186.9375 231.300781 186.9375 236.609375 C 186.9375 246.328125 186.753906 251.730469 186.394531 260.640625 L 186.9375 261.269531 C 192.964844 261 195.394531 260.910156 201.964844 261 Z M 231.847656 229.949219 C 228.785156 228.871094 226.355469 227.878906 226.355469 225.359375 C 226.355469 224.28125 227.078125 221.308594 232.65625 221.308594 C 238.148438 221.308594 241.65625 223.648438 243.90625 225.089844 L 244.71875 224.820312 L 245.617188 215.011719 L 245.167969 214.46875 C 240.9375 213.300781 237.246094 212.21875 231.398438 212.21875 C 226.988281 212.21875 218.167969 212.578125 213.488281 219.328125 C 212.316406 220.949219 211.058594 223.648438 211.058594 227.25 C 211.058594 236.878906 218.527344 239.761719 222.757812 241.378906 L 226.175781 242.640625 C 228.605469 243.449219 232.566406 244.800781 232.566406 248.039062 C 232.566406 250.289062 230.496094 252.71875 225.457031 252.71875 C 222.9375 252.71875 219.246094 251.910156 215.917969 250.199219 C 214.386719 249.390625 213.667969 248.761719 212.316406 247.679688 L 211.507812 248.039062 C 211.328125 252.71875 211.238281 253.710938 210.875 258.210938 L 211.328125 259.019531 C 215.738281 260.640625 219.515625 262.078125 226.085938 262.078125 C 232.925781 262.078125 246.425781 260.820312 248.046875 247.949219 C 248.136719 247.230469 248.136719 246.601562 248.136719 245.96875 C 248.136719 236.070312 241.207031 233.460938 236.257812 231.570312 Z M 351.367188 197.191406 C 342.007812 197.460938 340.476562 197.460938 330.488281 197.460938 L 329.949219 198 L 325.808594 212.578125 L 322.207031 225.628906 L 317.976562 241.289062 L 314.015625 225.179688 L 311.496094 215.011719 L 306.996094 197.730469 L 306.546875 197.191406 C 296.917969 197.460938 295.296875 197.460938 285.21875 197.460938 L 284.675781 198 C 283.777344 224.910156 283.417969 231.839844 281.4375 260.730469 L 281.886719 261.269531 C 287.648438 261 289.359375 260.910156 294.578125 261 L 295.117188 260.460938 L 295.386719 243.269531 L 295.925781 225.808594 L 296.289062 208.800781 L 300.246094 224.730469 L 303.667969 237.511719 L 309.699219 260.730469 L 310.238281 261.269531 C 315.816406 261 317.347656 260.910156 323.648438 261 L 324.1875 260.460938 L 329.40625 241.289062 L 333.007812 228.148438 L 338.046875 209.25 L 338.046875 225.359375 L 338.226562 239.128906 L 338.226562 260.730469 L 338.675781 261.269531 C 344.886719 261 347.316406 260.910156 354.246094 261 L 354.699219 260.460938 C 354.15625 250.199219 353.527344 239.851562 353.167969 229.5 C 352.898438 223.828125 352.71875 218.160156 352.449219 212.488281 C 351.996094 204.121094 351.90625 203.039062 351.90625 197.730469 Z M 404.824219 247.679688 C 401.40625 249.480469 397.355469 251.550781 390.785156 251.550781 C 385.386719 251.550781 381.695312 249.839844 379.535156 246.601562 C 378.183594 244.710938 377.914062 242.910156 377.554688 241.109375 L 406.625 240.570312 L 407.164062 239.941406 C 407.074219 235.53125 406.984375 231.03125 405.726562 226.53125 C 402.574219 215.910156 395.644531 213.75 392.585938 213.03125 C 390.335938 212.398438 388.265625 212.21875 386.195312 212.21875 C 372.066406 212.21875 362.703125 221.488281 362.703125 237.058594 C 362.703125 241.289062 363.425781 245.699219 364.863281 248.851562 C 370.085938 261 382.324219 262.078125 388.804688 262.078125 C 396.273438 262.078125 399.515625 260.730469 404.285156 258.839844 L 404.824219 258.121094 L 405.453125 247.949219 L 404.824219 247.679688 M 377.554688 231.570312 C 377.824219 228.78125 378.453125 225 381.875 222.839844 C 382.953125 222.121094 384.214844 221.851562 385.476562 221.851562 C 388.445312 221.851562 390.246094 223.378906 391.234375 225 C 392.496094 226.980469 392.585938 229.140625 392.585938 231.210938 Z M 485.738281 260.371094 C 485.285156 252 485.195312 249.660156 485.195312 239.488281 L 485.195312 232.738281 C 485.285156 226.710938 485.375 221.128906 482.765625 217.351562 C 479.257812 212.21875 473.046875 212.21875 471.605469 212.21875 C 464.226562 212.21875 459.277344 215.550781 455.675781 218.070312 C 454.417969 216 452.167969 212.21875 444.96875 212.21875 C 439.027344 212.21875 435.15625 214.921875 431.015625 217.800781 L 431.015625 212.761719 L 430.207031 211.949219 C 423.1875 213.300781 421.207031 213.660156 414.90625 214.558594 L 414.367188 215.191406 C 415.085938 222.390625 415.625 227.339844 415.625 245.160156 C 415.625 250.289062 415.535156 255.511719 415.535156 260.640625 L 415.988281 261.179688 C 421.746094 261 423.726562 260.910156 431.195312 260.910156 L 431.738281 260.371094 C 431.105469 246.511719 431.015625 242.371094 430.925781 226.710938 C 432.816406 225.359375 434.886719 224.191406 437.136719 224.191406 C 442.71875 224.191406 442.898438 230.578125 442.898438 238.320312 C 442.898438 251.371094 442.808594 253.351562 442.625 260.640625 L 443.167969 261.269531 C 450.007812 260.910156 451.898438 260.910156 458.105469 260.910156 L 458.648438 260.371094 C 458.105469 251.820312 458.015625 249.300781 457.925781 238.410156 L 457.925781 235.078125 L 457.835938 225.988281 C 459.367188 225 461.347656 223.738281 464.046875 223.738281 C 469.175781 223.738281 469.988281 228.601562 469.988281 236.339844 C 469.988281 238.050781 469.898438 239.761719 469.898438 241.46875 C 469.808594 244.53125 469.71875 257.941406 469.625 260.640625 L 470.167969 261.179688 C 476.917969 260.910156 478.898438 260.910156 485.195312 260.910156 Z M 541.898438 237.058594 C 541.898438 233.550781 541.898438 218.96875 529.296875 214.019531 C 525.335938 212.488281 520.65625 212.308594 518.316406 212.308594 C 502.65625 212.308594 493.835938 220.679688 493.835938 237.238281 C 493.835938 243 494.738281 248.851562 498.066406 253.710938 C 500.40625 257.21875 504.816406 262.078125 517.6875 262.078125 C 536.765625 262.078125 541.898438 250.558594 541.898438 237.058594 M 526.328125 236.96875 C 526.328125 244.351562 525.335938 252.539062 517.867188 252.539062 C 515.527344 252.539062 513.90625 251.460938 512.828125 250.46875 C 511.296875 248.941406 509.585938 245.878906 509.585938 237.148438 C 509.585938 234.539062 509.585938 228.78125 511.386719 225.628906 C 512.738281 223.199219 515.078125 221.578125 517.957031 221.578125 C 520.476562 221.578125 522.546875 222.929688 523.71875 224.371094 C 525.878906 226.980469 526.328125 232.109375 526.328125 236.96875 Z M 576.457031 227.609375 L 578.976562 212.941406 L 578.4375 212.308594 C 577.808594 212.308594 577.175781 212.21875 576.546875 212.21875 C 572.855469 212.21875 568.71875 214.289062 565.835938 220.949219 L 566.105469 212.671875 L 565.386719 211.949219 C 558.726562 213.390625 557.015625 213.660156 550.445312 214.648438 L 549.90625 215.191406 C 550.445312 221.941406 550.71875 225.988281 550.71875 238.5 C 550.71875 245.878906 550.625 253.261719 550.445312 260.730469 L 550.988281 261.269531 C 557.648438 261 559.085938 260.910156 566.285156 261 L 566.738281 260.371094 C 566.375 253.078125 565.835938 242.910156 565.835938 236.699219 C 565.835938 232.648438 565.835938 226.710938 571.957031 226.710938 C 573.488281 226.710938 574.386719 227.25 575.648438 227.96875 Z M 600.488281 260.371094 C 600.035156 253.441406 599.675781 248.128906 599.675781 235.710938 C 599.675781 228.058594 599.855469 220.320312 599.945312 212.671875 L 599.316406 211.949219 L 583.835938 214.648438 L 583.296875 215.191406 C 584.015625 222.03125 584.285156 225.179688 584.285156 237.960938 C 584.285156 247.769531 584.015625 253.261719 583.746094 260.640625 L 584.285156 261.269531 C 590.765625 261 592.566406 260.910156 599.855469 261 L 600.488281 260.371094 M 599.046875 203.308594 L 599.316406 191.070312 L 598.777344 190.53125 L 584.105469 192.328125 L 583.566406 192.960938 C 583.746094 196.199219 583.835938 198.089844 583.835938 200.25 C 583.835938 201.960938 583.835938 203.761719 583.746094 205.46875 L 584.375 206.011719 C 590.496094 204.929688 592.207031 204.75 598.597656 203.941406 Z M 650.523438 234.179688 C 650.613281 226.078125 650.613281 222.570312 648.273438 218.789062 C 646.472656 215.910156 642.875 212.308594 631.355469 212.308594 C 623.613281 212.308594 618.84375 213.75 613.714844 215.28125 L 613.175781 216 L 612.722656 225.808594 L 613.445312 226.171875 C 616.59375 224.910156 622.445312 222.570312 628.472656 222.570312 C 631.804688 222.570312 633.152344 223.109375 634.324219 224.28125 C 635.222656 225.179688 635.496094 226.800781 635.496094 228.148438 C 624.695312 229.589844 619.652344 230.578125 614.253906 233.910156 C 609.214844 237.058594 607.503906 242.191406 607.503906 246.238281 C 607.503906 255.871094 614.433594 262.078125 623.253906 262.078125 C 630.003906 262.078125 633.875 258.839844 635.765625 257.308594 L 635.765625 260.640625 L 636.304688 261.269531 C 642.785156 261 644.765625 260.910156 650.613281 261 L 651.0625 260.371094 C 650.433594 251.550781 650.433594 249.300781 650.433594 240.839844 L 650.523438 234.179688 M 635.675781 248.488281 C 633.785156 249.570312 631.355469 250.828125 628.382812 250.828125 C 625.144531 250.828125 622.445312 249.121094 622.445312 245.339844 C 622.445312 239.398438 629.554688 238.410156 635.675781 237.601562 Z M 676.894531 260.371094 C 676.445312 250.019531 675.996094 240.570312 675.996094 212.128906 C 675.996094 203.578125 676.085938 199.53125 676.445312 189.808594 L 675.816406 189.179688 L 660.425781 191.609375 L 660.066406 192.148438 C 660.964844 203.128906 661.054688 206.101562 661.234375 220.679688 C 661.328125 225.988281 661.328125 231.300781 661.328125 236.609375 C 661.328125 246.328125 661.144531 251.730469 660.785156 260.640625 L 661.328125 261.269531 C 667.355469 261 669.785156 260.910156 676.355469 261 Z M 739.625 222.300781 C 732.066406 219.148438 728.105469 217.53125 728.105469 213.480469 C 728.105469 210.691406 730.714844 207.179688 736.65625 207.179688 C 743.496094 207.179688 747.542969 209.96875 750.875 212.21875 L 751.683594 211.859375 L 752.40625 200.070312 L 751.953125 199.441406 C 748.085938 197.820312 744.035156 196.109375 735.304688 196.109375 C 718.386719 196.109375 712.535156 205.648438 712.535156 215.28125 C 712.535156 226.171875 720.996094 230.128906 726.035156 232.558594 L 729.003906 233.910156 C 735.214844 236.519531 739.984375 238.769531 739.984375 243.539062 C 739.984375 246.960938 737.015625 251.011719 729.183594 251.011719 C 720.996094 251.011719 716.40625 247.410156 713.792969 245.339844 L 712.894531 245.609375 L 712.265625 258.300781 L 712.804688 259.019531 C 713.792969 259.378906 714.785156 259.828125 715.773438 260.101562 C 717.84375 260.820312 723.15625 262.351562 729.90625 262.351562 C 732.605469 262.351562 739.445312 262.078125 744.84375 259.558594 C 752.40625 255.871094 755.644531 249.03125 755.644531 241.378906 C 755.644531 236.25 753.664062 230.761719 748.894531 227.070312 C 746.464844 225.269531 744.125 224.191406 741.964844 223.199219 Z M 789.398438 250.648438 C 787.867188 251.101562 786.785156 251.460938 785.257812 251.460938 C 780.667969 251.460938 780.308594 248.578125 780.125 247.230469 C 779.855469 244.890625 779.855469 239.941406 779.945312 236.339844 L 780.125 223.648438 L 788.226562 224.011719 L 788.765625 223.46875 L 789.667969 213.839844 L 789.125 213.300781 L 780.125 213.300781 L 780.398438 198.179688 L 779.765625 197.640625 C 773.648438 199.441406 772.027344 199.890625 765.636719 201.511719 L 765.277344 202.140625 L 765.367188 213.390625 L 760.507812 213.210938 L 759.96875 213.660156 L 759.15625 223.289062 L 759.695312 223.828125 L 765.367188 223.648438 L 765.097656 237.960938 C 765.007812 240.210938 764.917969 242.460938 764.917969 244.800781 C 764.917969 253.078125 765.097656 261.988281 779.136719 261.988281 C 782.648438 261.988281 785.4375 261.449219 788.585938 260.910156 L 789.21875 260.28125 L 790.117188 251.011719 Z M 836.105469 234.179688 C 836.195312 226.078125 836.195312 222.570312 833.855469 218.789062 C 832.054688 215.910156 828.457031 212.308594 816.9375 212.308594 C 809.195312 212.308594 804.425781 213.75 799.296875 215.28125 L 798.757812 216 L 798.304688 225.808594 L 799.027344 226.171875 C 802.175781 224.910156 808.027344 222.570312 814.054688 222.570312 C 817.386719 222.570312 818.734375 223.109375 819.90625 224.28125 C 820.804688 225.179688 821.078125 226.800781 821.078125 228.148438 C 810.277344 229.589844 805.234375 230.578125 799.835938 233.910156 C 794.796875 237.058594 793.085938 242.191406 793.085938 246.238281 C 793.085938 255.871094 800.015625 262.078125 808.835938 262.078125 C 815.585938 262.078125 819.457031 258.839844 821.347656 257.308594 L 821.347656 260.640625 L 821.886719 261.269531 C 828.367188 261 830.347656 260.910156 836.195312 261 L 836.644531 260.371094 C 836.015625 251.550781 836.015625 249.300781 836.015625 240.839844 L 836.105469 234.179688 M 821.257812 248.488281 C 819.367188 249.570312 816.9375 250.828125 813.964844 250.828125 C 810.726562 250.828125 808.027344 249.121094 808.027344 245.339844 C 808.027344 239.398438 815.136719 238.410156 821.257812 237.601562 Z M 871.835938 250.648438 C 870.304688 251.101562 869.222656 251.460938 867.695312 251.460938 C 863.105469 251.460938 862.746094 248.578125 862.5625 247.230469 C 862.292969 244.890625 862.292969 239.941406 862.382812 236.339844 L 862.5625 223.648438 L 870.664062 224.011719 L 871.203125 223.46875 L 872.105469 213.839844 L 871.5625 213.300781 L 862.5625 213.300781 L 862.835938 198.179688 L 862.203125 197.640625 C 856.085938 199.441406 854.464844 199.890625 848.074219 201.511719 L 847.714844 202.140625 L 847.804688 213.390625 L 842.945312 213.210938 L 842.40625 213.660156 L 841.59375 223.289062 L 842.132812 223.828125 L 847.804688 223.648438 L 847.535156 237.960938 C 847.445312 240.210938 847.355469 242.460938 847.355469 244.800781 C 847.355469 253.078125 847.535156 261.988281 861.574219 261.988281 C 865.085938 261.988281 867.875 261.449219 871.023438 260.910156 L 871.65625 260.28125 L 872.554688 251.011719 Z M 918.453125 247.679688 C 915.035156 249.480469 910.984375 251.550781 904.414062 251.550781 C 899.015625 251.550781 895.324219 249.839844 893.164062 246.601562 C 891.8125 244.710938 891.542969 242.910156 891.183594 241.109375 L 920.253906 240.570312 L 920.792969 239.941406 C 920.703125 235.53125 920.613281 231.03125 919.355469 226.53125 C 916.203125 215.910156 909.273438 213.75 906.214844 213.03125 C 903.964844 212.398438 901.894531 212.21875 899.824219 212.21875 C 885.695312 212.21875 876.332031 221.488281 876.332031 237.058594 C 876.332031 241.289062 877.054688 245.699219 878.492188 248.851562 C 883.714844 261 895.953125 262.078125 902.433594 262.078125 C 909.902344 262.078125 913.144531 260.730469 917.914062 258.839844 L 918.453125 258.121094 L 919.082031 247.949219 L 918.453125 247.679688 M 891.183594 231.570312 C 891.453125 228.78125 892.082031 225 895.503906 222.839844 C 896.582031 222.121094 897.84375 221.851562 899.105469 221.851562 C 902.074219 221.851562 903.875 223.378906 904.863281 225 C 906.125 226.980469 906.214844 229.140625 906.214844 231.210938 Z M 923.675781 261 "/>
<path fill-rule="nonzero" fill="rgb(34.901961%, 14.901961%, 14.901961%)" fill-opacity="1" d="M 411.53125 317.28125 L 400.101562 317.460938 L 399.558594 318 C 399.921875 329.699219 400.191406 337.53125 400.191406 347.878906 C 400.191406 358.859375 399.921875 369.75 399.648438 380.730469 L 400.191406 381.269531 C 406.851562 381 408.289062 380.910156 415.492188 381 L 415.941406 380.460938 C 415.582031 370.648438 415.582031 368.398438 415.582031 359.21875 C 425.660156 359.308594 436.460938 359.308594 442.941406 351.390625 C 445.460938 348.328125 447.621094 343.199219 447.621094 336.898438 C 447.621094 333.03125 446.71875 324.480469 439.25 320.25 C 433.851562 317.101562 426.199219 317.101562 419.449219 317.101562 L 411.53125 317.28125 M 415.582031 328.171875 C 417.558594 328.078125 419.449219 328.078125 421.429688 328.078125 C 429.351562 328.261719 431.511719 332.308594 431.511719 337.53125 C 431.511719 338.789062 431.511719 344.011719 426.742188 346.621094 C 424.308594 347.96875 420.980469 348.148438 415.582031 348.148438 Z M 493.878906 354.179688 C 493.96875 346.078125 493.96875 342.570312 491.628906 338.789062 C 489.828125 335.910156 486.230469 332.308594 474.710938 332.308594 C 466.96875 332.308594 462.199219 333.75 457.070312 335.28125 L 456.53125 336 L 456.078125 345.808594 L 456.800781 346.171875 C 459.949219 344.910156 465.800781 342.570312 471.828125 342.570312 C 475.160156 342.570312 476.507812 343.109375 477.679688 344.28125 C 478.578125 345.179688 478.851562 346.800781 478.851562 348.148438 C 468.050781 349.589844 463.007812 350.578125 457.609375 353.910156 C 452.570312 357.058594 450.859375 362.191406 450.859375 366.238281 C 450.859375 375.871094 457.789062 382.078125 466.609375 382.078125 C 473.359375 382.078125 477.230469 378.839844 479.121094 377.308594 L 479.121094 380.640625 L 479.660156 381.269531 C 486.140625 381 488.121094 380.910156 493.96875 381 L 494.417969 380.371094 C 493.789062 371.550781 493.789062 369.300781 493.789062 360.839844 L 493.878906 354.179688 M 479.03125 368.488281 C 477.140625 369.570312 474.710938 370.828125 471.738281 370.828125 C 468.5 370.828125 465.800781 369.121094 465.800781 365.339844 C 465.800781 359.398438 472.910156 358.410156 479.03125 357.601562 Z M 530.421875 347.609375 L 532.941406 332.941406 L 532.402344 332.308594 C 531.773438 332.308594 531.140625 332.21875 530.511719 332.21875 C 526.820312 332.21875 522.683594 334.289062 519.800781 340.949219 L 520.070312 332.671875 L 519.351562 331.949219 C 512.691406 333.390625 510.980469 333.660156 504.410156 334.648438 L 503.871094 335.191406 C 504.410156 341.941406 504.683594 345.988281 504.683594 358.5 C 504.683594 365.878906 504.589844 373.261719 504.410156 380.730469 L 504.953125 381.269531 C 511.613281 381 513.050781 380.910156 520.25 381 L 520.703125 380.371094 C 520.339844 373.078125 519.800781 362.910156 519.800781 356.699219 C 519.800781 352.648438 519.800781 346.710938 525.921875 346.710938 C 527.453125 346.710938 528.351562 347.25 529.613281 347.96875 Z M 584.421875 379.828125 C 575.960938 365.519531 575.0625 363.898438 568.222656 351.570312 C 574.433594 343.109375 575.0625 342.210938 581.453125 334.019531 L 581 333.121094 L 566.332031 333.300781 L 565.433594 333.929688 C 558.410156 346.078125 557.511719 347.519531 553.371094 353.730469 L 553.371094 343.738281 C 553.460938 326.910156 553.550781 323.308594 554 309.71875 L 553.28125 309.179688 L 537.621094 311.519531 L 537.082031 312.148438 C 537.710938 320.878906 537.980469 325.109375 538.160156 336.898438 C 538.339844 351.480469 538.339844 366.058594 538.25 380.640625 L 538.882812 381.269531 C 544.910156 381 546.621094 381 553.460938 381 L 554 380.371094 L 553.460938 365.160156 L 553.371094 354.808594 C 561.203125 369.210938 562.191406 371.191406 566.78125 380.730469 L 567.589844 381.269531 L 583.792969 380.640625 Z M 583.339844 381 "/>
</svg>
