<?xml version="1.0" encoding="UTF-8"?>
<svg xmlns="http://www.w3.org/2000/svg" xmlns:xlink="http://www.w3.org/1999/xlink" width="975" height="1300" viewBox="0 0 975 1300">
<path fill-rule="nonzero" fill="rgb(98.823529%, 78.823529%, 9.019608%)" fill-opacity="1" d="M 50 50 L 925 50 L 925 410 L 50 410 Z M 50 50 "/>
<path fill-rule="nonzero" fill="rgb(34.901961%, 14.901961%, 14.901961%)" fill-opacity="1" d="M 264.828125 140.460938 C 268.160156 124.078125 269.601562 117.238281 279.140625 77.730469 L 278.691406 77.191406 C 272.300781 77.460938 271.039062 77.460938 265.011719 77.460938 L 264.46875 78 C 263.03125 87.269531 262.578125 90.421875 260.601562 100.769531 L 257.988281 114.539062 L 255.109375 130.019531 C 253.761719 119.941406 253.308594 116.878906 251.511719 106.441406 L 248.898438 91.320312 L 246.648438 77.460938 L 246.109375 76.828125 L 228.289062 77.28125 L 227.75 77.820312 L 224.148438 98.519531 L 220.640625 116.96875 L 218.390625 129.390625 C 217.308594 121.558594 216.949219 118.949219 215.058594 108.058594 L 212.71875 94.921875 L 209.75 77.101562 L 209.210938 76.648438 C 201.46875 77.191406 200.210938 77.191406 193.640625 77.371094 L 193.191406 78 C 199.761719 107.789062 201.199219 114.628906 206.058594 140.730469 L 206.601562 141.269531 C 215.691406 140.910156 218.121094 140.910156 226.941406 141 L 227.570312 140.460938 L 229.460938 129.300781 L 232.429688 112.828125 L 235.671875 93.570312 C 236.75 102.390625 237.019531 104.640625 238.640625 114.359375 L 240.890625 128.398438 L 242.78125 140.730469 L 243.230469 141.269531 C 251.871094 141 254.839844 140.910156 264.378906 141 Z M 300.113281 140.371094 C 299.660156 133.441406 299.300781 128.128906 299.300781 115.710938 C 299.300781 108.058594 299.480469 100.320312 299.570312 92.671875 L 298.941406 91.949219 L 283.460938 94.648438 L 282.921875 95.191406 C 283.640625 102.03125 283.910156 105.179688 283.910156 117.960938 C 283.910156 127.769531 283.640625 133.261719 283.371094 140.640625 L 283.910156 141.269531 C 290.390625 141 292.191406 140.910156 299.480469 141 L 300.113281 140.371094 M 298.671875 83.308594 L 298.941406 71.070312 L 298.402344 70.53125 L 283.730469 72.328125 L 283.191406 72.960938 C 283.371094 76.199219 283.460938 78.089844 283.460938 80.25 C 283.460938 81.960938 283.460938 83.761719 283.371094 85.46875 L 284 86.011719 C 290.121094 84.929688 291.832031 84.75 298.222656 83.941406 Z M 325.9375 140.371094 C 325.488281 130.019531 325.039062 120.570312 325.039062 92.128906 C 325.039062 83.578125 325.128906 79.53125 325.488281 69.808594 L 324.859375 69.179688 L 309.46875 71.609375 L 309.109375 72.148438 C 310.007812 83.128906 310.097656 86.101562 310.277344 100.679688 C 310.371094 105.988281 310.371094 111.300781 310.371094 116.609375 C 310.371094 126.328125 310.1875 131.730469 309.828125 140.640625 L 310.371094 141.269531 C 316.398438 141 318.828125 140.910156 325.398438 141 Z M 352.21875 140.371094 C 351.769531 130.019531 351.320312 120.570312 351.320312 92.128906 C 351.320312 83.578125 351.410156 79.53125 351.769531 69.808594 L 351.140625 69.179688 L 335.75 71.609375 L 335.390625 72.148438 C 336.289062 83.128906 336.378906 86.101562 336.558594 100.679688 C 336.652344 105.988281 336.652344 111.300781 336.652344 116.609375 C 336.652344 126.328125 336.46875 131.730469 336.109375 140.640625 L 336.652344 141.269531 C 342.679688 141 345.109375 140.910156 351.679688 141 Z M 378.953125 140.371094 C 378.5 133.441406 378.140625 128.128906 378.140625 115.710938 C 378.140625 108.058594 378.320312 100.320312 378.410156 92.671875 L 377.78125 91.949219 L 362.300781 94.648438 L 361.761719 95.191406 C 362.480469 102.03125 362.75 105.179688 362.75 117.960938 C 362.75 127.769531 362.480469 133.261719 362.210938 140.640625 L 362.75 141.269531 C 369.230469 141 371.03125 140.910156 378.320312 141 L 378.953125 140.371094 M 377.511719 83.308594 L 377.78125 71.070312 L 377.242188 70.53125 L 362.570312 72.328125 L 362.03125 72.960938 C 362.210938 76.199219 362.300781 78.089844 362.300781 80.25 C 362.300781 81.960938 362.300781 83.761719 362.210938 85.46875 L 362.839844 86.011719 C 368.960938 84.929688 370.671875 84.75 377.0625 83.941406 Z M 428.988281 114.179688 C 429.078125 106.078125 429.078125 102.570312 426.738281 98.789062 C 424.9375 95.910156 421.339844 92.308594 409.820312 92.308594 C 402.078125 92.308594 397.308594 93.75 392.179688 95.28125 L 391.640625 96 L 391.1875 105.808594 L 391.910156 106.171875 C 395.058594 104.910156 400.910156 102.570312 406.9375 102.570312 C 410.269531 102.570312 411.617188 103.109375 412.789062 104.28125 C 413.6875 105.179688 413.960938 106.800781 413.960938 108.148438 C 403.160156 109.589844 398.117188 110.578125 392.71875 113.910156 C 387.679688 117.058594 385.96875 122.191406 385.96875 126.238281 C 385.96875 135.871094 392.898438 142.078125 401.71875 142.078125 C 408.46875 142.078125 412.339844 138.839844 414.230469 137.308594 L 414.230469 140.640625 L 414.769531 141.269531 C 421.25 141 423.230469 140.910156 429.078125 141 L 429.527344 140.371094 C 428.898438 131.550781 428.898438 129.300781 428.898438 120.839844 L 428.988281 114.179688 M 414.140625 128.488281 C 412.25 129.570312 409.820312 130.828125 406.847656 130.828125 C 403.609375 130.828125 400.910156 129.121094 400.910156 125.339844 C 400.910156 119.398438 408.019531 118.410156 414.140625 117.601562 Z M 509.8125 140.371094 C 509.359375 132 509.269531 129.660156 509.269531 119.488281 L 509.269531 112.738281 C 509.359375 106.710938 509.449219 101.128906 506.839844 97.351562 C 503.332031 92.21875 497.121094 92.21875 495.679688 92.21875 C 488.300781 92.21875 483.351562 95.550781 479.75 98.070312 C 478.492188 96 476.242188 92.21875 469.042969 92.21875 C 463.101562 92.21875 459.230469 94.921875 455.089844 97.800781 L 455.089844 92.761719 L 454.28125 91.949219 C 447.261719 93.300781 445.28125 93.660156 438.980469 94.558594 L 438.441406 95.191406 C 439.160156 102.390625 439.699219 107.339844 439.699219 125.160156 C 439.699219 130.289062 439.609375 135.511719 439.609375 140.640625 L 440.0625 141.179688 C 445.820312 141 447.800781 140.910156 455.269531 140.910156 L 455.8125 140.371094 C 455.179688 126.511719 455.089844 122.371094 455 106.710938 C 456.890625 105.359375 458.960938 104.191406 461.210938 104.191406 C 466.792969 104.191406 466.972656 110.578125 466.972656 118.320312 C 466.972656 131.371094 466.882812 133.351562 466.699219 140.640625 L 467.242188 141.269531 C 474.082031 140.910156 475.972656 140.910156 482.179688 140.910156 L 482.722656 140.371094 C 482.179688 131.820312 482.089844 129.300781 482 118.410156 L 482 115.078125 L 481.910156 105.988281 C 483.441406 105 485.421875 103.738281 488.121094 103.738281 C 493.25 103.738281 494.0625 108.601562 494.0625 116.339844 C 494.0625 118.050781 493.972656 119.761719 493.972656 121.46875 C 493.882812 124.53125 493.792969 137.941406 493.699219 140.640625 L 494.242188 141.179688 C 500.992188 140.910156 502.972656 140.910156 509.269531 140.910156 Z M 563.179688 141 C 571.550781 141.179688 581.898438 141.359375 588.648438 136.679688 C 594.589844 132.449219 596.210938 126.511719 596.210938 121.46875 C 596.210938 115.710938 593.777344 110.398438 588.648438 107.878906 C 586.9375 106.980469 584.960938 106.621094 583.070312 106.261719 C 586.128906 105 589.730469 103.378906 592.070312 98.609375 C 593.058594 96.539062 593.507812 94.378906 593.507812 92.308594 C 593.507812 89.429688 592.789062 85.46875 589.910156 82.230469 C 586.128906 78.179688 580.277344 77.101562 571.460938 77.101562 C 568.398438 77.101562 562.910156 77.191406 559.847656 77.28125 L 547.25 77.460938 L 546.710938 78 C 547.070312 86.640625 547.160156 89.96875 547.160156 102.390625 C 547.160156 115.171875 547.070312 127.859375 546.890625 140.640625 L 547.519531 141 L 563.179688 141 M 562.550781 113.640625 C 569.390625 113.460938 573.347656 113.460938 575.960938 114.988281 C 578.570312 116.609375 579.558594 119.488281 579.558594 122.371094 C 579.558594 126.421875 577.308594 128.941406 573.980469 130.109375 C 571.277344 131.011719 566.417969 131.011719 562.550781 130.921875 L 562.550781 113.640625 M 562.550781 87.179688 C 564.4375 87.179688 566.960938 87.089844 568.488281 87.089844 C 573.347656 87.089844 577.757812 88.800781 577.757812 94.648438 C 577.757812 99.421875 574.25 101.398438 573.167969 101.941406 C 570.917969 102.929688 566.148438 102.929688 562.550781 102.929688 Z M 617.539062 127.140625 L 603.140625 127.410156 L 602.691406 128.128906 L 602.871094 140.640625 L 603.320312 141.269531 L 617.71875 140.910156 L 618.167969 140.371094 L 617.988281 127.679688 Z M 670.011719 77.191406 C 662.269531 77.550781 660.199219 77.550781 653.722656 77.460938 L 653.359375 78 C 653.902344 87.71875 654.171875 92.308594 654.171875 115.261719 C 654.171875 125.878906 653.992188 131.371094 653.632812 140.730469 L 654.082031 141.269531 C 660.832031 141 662.632812 141 670.101562 141 L 670.640625 140.460938 C 670.191406 132.179688 670.011719 128.039062 670.011719 114.988281 C 670.011719 102.570312 670.191406 90.148438 670.460938 77.730469 Z M 725.628906 140.460938 C 725.269531 132.359375 725 126.960938 725 115.171875 C 725 91.410156 725.359375 81.601562 725.71875 69.71875 L 725.089844 69.179688 L 710.238281 71.519531 L 709.789062 72.058594 C 710.328125 80.519531 710.417969 82.769531 710.328125 93.03125 C 703.578125 92.851562 695.117188 92.671875 688.277344 98.070312 C 681.980469 102.929688 679.367188 110.398438 679.367188 119.671875 C 679.367188 126.691406 681.257812 133.710938 686.570312 138.121094 C 690.527344 141.359375 695.390625 142.078125 698.359375 142.078125 C 704.75 142.078125 708.078125 139.109375 710.238281 137.21875 L 710.058594 140.730469 L 710.507812 141.269531 C 716.71875 141 718.429688 141 725.179688 141 L 725.628906 140.460938 M 710.328125 103.828125 C 710.417969 115.800781 710.328125 118.140625 710.058594 129.03125 C 708.257812 130.109375 706.457031 131.191406 703.9375 131.191406 C 695.207031 131.191406 695.207031 120.03125 695.207031 118.230469 C 695.207031 111.300781 697.1875 103.558594 707.269531 103.558594 C 708.257812 103.558594 709.070312 103.648438 710.328125 103.828125 Z M 775.847656 127.679688 C 772.429688 129.480469 768.378906 131.550781 761.808594 131.550781 C 756.410156 131.550781 752.71875 129.839844 750.558594 126.601562 C 749.207031 124.710938 748.9375 122.910156 748.578125 121.109375 L 777.648438 120.570312 L 778.1875 119.941406 C 778.097656 115.53125 778.007812 111.03125 776.75 106.53125 C 773.597656 95.910156 766.667969 93.75 763.609375 93.03125 C 761.359375 92.398438 759.289062 92.21875 757.21875 92.21875 C 743.089844 92.21875 733.726562 101.488281 733.726562 117.058594 C 733.726562 121.289062 734.449219 125.699219 735.886719 128.851562 C 741.109375 141 753.347656 142.078125 759.828125 142.078125 C 767.296875 142.078125 770.539062 140.730469 775.308594 138.839844 L 775.847656 138.121094 L 776.476562 127.949219 L 775.847656 127.679688 M 748.578125 111.570312 C 748.847656 108.78125 749.476562 105 752.898438 102.839844 C 753.976562 102.121094 755.238281 101.851562 756.5 101.851562 C 759.46875 101.851562 761.269531 103.378906 762.257812 105 C 763.519531 106.980469 763.609375 109.140625 763.609375 111.210938 Z M 781.070312 141 "/>
<path fill-rule="nonzero" fill="rgb(34.901961%, 14.901961%, 14.901961%)" fill-opacity="1" d="M 96.125 197.191406 C 87.484375 197.460938 85.683594 197.460938 76.054688 197.460938 L 75.421875 198 C 70.652344 213.300781 67.773438 222.390625 54.542969 260.371094 L 54.902344 261 L 68.941406 261 L 69.574219 260.460938 L 73.984375 244.078125 L 93.421875 244.078125 L 97.292969 260.730469 L 97.921875 261.269531 C 104.492188 261 106.292969 260.910156 113.582031 261 L 114.035156 260.28125 C 103.144531 221.761719 101.882812 217.53125 96.753906 197.730469 L 96.125 197.191406 M 77.132812 233.191406 L 81.632812 217.980469 L 84.785156 207.449219 L 87.484375 219.148438 L 90.8125 233.191406 Z M 163.894531 260.460938 C 163.535156 252.359375 163.265625 246.960938 163.265625 235.171875 C 163.265625 211.410156 163.625 201.601562 163.984375 189.71875 L 163.355469 189.179688 L 148.503906 191.519531 L 148.054688 192.058594 C 148.59375 200.519531 148.683594 202.769531 148.59375 213.03125 C 141.84375 212.851562 133.382812 212.671875 126.542969 218.070312 C 120.246094 222.929688 117.632812 230.398438 117.632812 239.671875 C 117.632812 246.691406 119.523438 253.710938 124.835938 258.121094 C 128.792969 261.359375 133.65625 262.078125 136.625 262.078125 C 143.015625 262.078125 146.34375 259.109375 148.503906 257.21875 L 148.324219 260.730469 L 148.773438 261.269531 C 154.984375 261 156.695312 261 163.445312 261 L 163.894531 260.460938 M 148.59375 223.828125 C 148.683594 235.800781 148.59375 238.140625 148.324219 249.03125 C 146.523438 250.109375 144.722656 251.191406 142.203125 251.191406 C 133.472656 251.191406 133.472656 240.03125 133.472656 238.230469 C 133.472656 231.300781 135.453125 223.558594 145.535156 223.558594 C 146.523438 223.558594 147.335938 223.648438 148.59375 223.828125 Z M 219.964844 237.058594 C 219.964844 233.550781 219.964844 218.96875 207.363281 214.019531 C 203.402344 212.488281 198.722656 212.308594 196.382812 212.308594 C 180.722656 212.308594 171.902344 220.679688 171.902344 237.238281 C 171.902344 243 172.804688 248.851562 176.132812 253.710938 C 178.472656 257.21875 182.882812 262.078125 195.753906 262.078125 C 214.832031 262.078125 219.964844 250.558594 219.964844 237.058594 M 204.394531 236.96875 C 204.394531 244.351562 203.402344 252.539062 195.933594 252.539062 C 193.59375 252.539062 191.972656 251.460938 190.894531 250.46875 C 189.363281 248.941406 187.652344 245.878906 187.652344 237.148438 C 187.652344 234.539062 187.652344 228.78125 189.453125 225.628906 C 190.804688 223.199219 193.144531 221.578125 196.023438 221.578125 C 198.542969 221.578125 200.613281 222.929688 201.785156 224.371094 C 203.945312 226.980469 204.394531 232.109375 204.394531 236.96875 Z M 234.992188 261.179688 L 236.792969 261.179688 C 251.191406 261.179688 260.464844 260.460938 267.304688 253.171875 C 273.691406 246.328125 274.324219 238.230469 274.324219 234.449219 C 274.324219 221.941406 267.125 212.21875 254.882812 212.21875 C 248.941406 212.21875 245.792969 214.199219 243.273438 215.820312 L 243.8125 189.71875 L 243.09375 189.179688 L 228.152344 191.519531 L 227.613281 192.148438 C 228.332031 199.710938 228.601562 202.769531 228.601562 220.859375 C 228.601562 228.601562 228.511719 243.898438 228.421875 260.640625 L 229.054688 261.269531 L 234.992188 261.179688 M 243.632812 224.730469 C 245.433594 223.828125 247.144531 222.929688 249.484375 222.929688 C 255.421875 222.929688 258.84375 228.238281 258.84375 236.519531 C 258.84375 243 255.964844 247.230469 253.535156 248.941406 C 250.5625 251.011719 246.691406 251.101562 243.632812 251.191406 Z M 322.832031 247.679688 C 319.414062 249.480469 315.363281 251.550781 308.792969 251.550781 C 303.394531 251.550781 299.703125 249.839844 297.542969 246.601562 C 296.191406 244.710938 295.921875 242.910156 295.5625 241.109375 L 324.632812 240.570312 L 325.171875 239.941406 C 325.082031 235.53125 324.992188 231.03125 323.734375 226.53125 C 320.582031 215.910156 313.652344 213.75 310.59375 213.03125 C 308.34375 212.398438 306.273438 212.21875 304.203125 212.21875 C 290.074219 212.21875 280.710938 221.488281 280.710938 237.058594 C 280.710938 241.289062 281.433594 245.699219 282.871094 248.851562 C 288.09375 261 300.332031 262.078125 306.8125 262.078125 C 314.28125 262.078125 317.523438 260.730469 322.292969 258.839844 L 322.832031 258.121094 L 323.460938 247.949219 L 322.832031 247.679688 M 295.5625 231.570312 C 295.832031 228.78125 296.460938 225 299.882812 222.839844 C 300.960938 222.121094 302.222656 221.851562 303.484375 221.851562 C 306.453125 221.851562 308.253906 223.378906 309.242188 225 C 310.503906 226.980469 310.59375 229.140625 310.59375 231.210938 Z M 385.742188 222.300781 C 378.183594 219.148438 374.222656 217.53125 374.222656 213.480469 C 374.222656 210.691406 376.832031 207.179688 382.773438 207.179688 C 389.613281 207.179688 393.660156 209.96875 396.992188 212.21875 L 397.800781 211.859375 L 398.523438 200.070312 L 398.070312 199.441406 C 394.203125 197.820312 390.152344 196.109375 381.421875 196.109375 C 364.503906 196.109375 358.652344 205.648438 358.652344 215.28125 C 358.652344 226.171875 367.113281 230.128906 372.152344 232.558594 L 375.121094 233.910156 C 381.332031 236.519531 386.101562 238.769531 386.101562 243.539062 C 386.101562 246.960938 383.132812 251.011719 375.300781 251.011719 C 367.113281 251.011719 362.523438 247.410156 359.910156 245.339844 L 359.011719 245.609375 L 358.382812 258.300781 L 358.921875 259.019531 C 359.910156 259.378906 360.902344 259.828125 361.890625 260.101562 C 363.960938 260.820312 369.273438 262.351562 376.023438 262.351562 C 378.722656 262.351562 385.5625 262.078125 390.960938 259.558594 C 398.523438 255.871094 401.761719 249.03125 401.761719 241.378906 C 401.761719 236.25 399.78125 230.761719 395.011719 227.070312 C 392.582031 225.269531 390.242188 224.191406 388.082031 223.199219 Z M 435.515625 250.648438 C 433.984375 251.101562 432.902344 251.460938 431.375 251.460938 C 426.785156 251.460938 426.425781 248.578125 426.242188 247.230469 C 425.972656 244.890625 425.972656 239.941406 426.0625 236.339844 L 426.242188 223.648438 L 434.34375 224.011719 L 434.882812 223.46875 L 435.785156 213.839844 L 435.242188 213.300781 L 426.242188 213.300781 L 426.515625 198.179688 L 425.882812 197.640625 C 419.765625 199.441406 418.144531 199.890625 411.753906 201.511719 L 411.394531 202.140625 L 411.484375 213.390625 L 406.625 213.210938 L 406.085938 213.660156 L 405.273438 223.289062 L 405.8125 223.828125 L 411.484375 223.648438 L 411.214844 237.960938 C 411.125 240.210938 411.035156 242.460938 411.035156 244.800781 C 411.035156 253.078125 411.214844 261.988281 425.253906 261.988281 C 428.765625 261.988281 431.554688 261.449219 434.703125 260.910156 L 435.335938 260.28125 L 436.234375 251.011719 Z M 482.222656 234.179688 C 482.3125 226.078125 482.3125 222.570312 479.972656 218.789062 C 478.171875 215.910156 474.574219 212.308594 463.054688 212.308594 C 455.3125 212.308594 450.542969 213.75 445.414062 215.28125 L 444.875 216 L 444.421875 225.808594 L 445.144531 226.171875 C 448.292969 224.910156 454.144531 222.570312 460.171875 222.570312 C 463.503906 222.570312 464.851562 223.109375 466.023438 224.28125 C 466.921875 225.179688 467.195312 226.800781 467.195312 228.148438 C 456.394531 229.589844 451.351562 230.578125 445.953125 233.910156 C 440.914062 237.058594 439.203125 242.191406 439.203125 246.238281 C 439.203125 255.871094 446.132812 262.078125 454.953125 262.078125 C 461.703125 262.078125 465.574219 258.839844 467.464844 257.308594 L 467.464844 260.640625 L 468.003906 261.269531 C 474.484375 261 476.464844 260.910156 482.3125 261 L 482.761719 260.371094 C 482.132812 251.550781 482.132812 249.300781 482.132812 240.839844 L 482.222656 234.179688 M 467.375 248.488281 C 465.484375 249.570312 463.054688 250.828125 460.082031 250.828125 C 456.84375 250.828125 454.144531 249.121094 454.144531 245.339844 C 454.144531 239.398438 461.253906 238.410156 467.375 237.601562 Z M 517.953125 250.648438 C 516.421875 251.101562 515.339844 251.460938 513.8125 251.460938 C 509.222656 251.460938 508.863281 248.578125 508.679688 247.230469 C 508.410156 244.890625 508.410156 239.941406 508.5 236.339844 L 508.679688 223.648438 L 516.78125 224.011719 L 517.320312 223.46875 L 518.222656 213.839844 L 517.679688 213.300781 L 508.679688 213.300781 L 508.953125 198.179688 L 508.320312 197.640625 C 502.203125 199.441406 500.582031 199.890625 494.191406 201.511719 L 493.832031 202.140625 L 493.921875 213.390625 L 489.0625 213.210938 L 488.523438 213.660156 L 487.710938 223.289062 L 488.25 223.828125 L 493.921875 223.648438 L 493.652344 237.960938 C 493.5625 240.210938 493.472656 242.460938 493.472656 244.800781 C 493.472656 253.078125 493.652344 261.988281 507.691406 261.988281 C 511.203125 261.988281 513.992188 261.449219 517.140625 260.910156 L 517.773438 260.28125 L 518.671875 251.011719 Z M 564.574219 247.679688 C 561.15625 249.480469 557.105469 251.550781 550.535156 251.550781 C 545.136719 251.550781 541.445312 249.839844 539.285156 246.601562 C 537.933594 244.710938 537.664062 242.910156 537.304688 241.109375 L 566.375 240.570312 L 566.914062 239.941406 C 566.824219 235.53125 566.734375 231.03125 565.476562 226.53125 C 562.324219 215.910156 555.394531 213.75 552.335938 213.03125 C 550.085938 212.398438 548.015625 212.21875 545.945312 212.21875 C 531.816406 212.21875 522.453125 221.488281 522.453125 237.058594 C 522.453125 241.289062 523.175781 245.699219 524.613281 248.851562 C 529.835938 261 542.074219 262.078125 548.554688 262.078125 C 556.023438 262.078125 559.265625 260.730469 564.035156 258.839844 L 564.574219 258.121094 L 565.203125 247.949219 L 564.574219 247.679688 M 537.304688 231.570312 C 537.574219 228.78125 538.203125 225 541.625 222.839844 C 542.703125 222.121094 543.964844 221.851562 545.226562 221.851562 C 548.195312 221.851562 549.996094 223.378906 550.984375 225 C 552.246094 226.980469 552.335938 229.140625 552.335938 231.210938 Z M 655.382812 197.191406 C 648.183594 197.460938 647.015625 197.460938 639.453125 197.460938 L 639.003906 198 C 639.632812 208.171875 639.632812 210.78125 639.722656 221.398438 C 635.765625 221.488281 631.804688 221.578125 627.753906 221.578125 C 624.605469 221.578125 621.363281 221.488281 618.214844 221.488281 L 618.394531 197.730469 L 617.945312 197.191406 C 611.015625 197.460938 609.664062 197.460938 601.835938 197.460938 L 601.292969 198 C 601.746094 207.269531 602.285156 218.339844 602.285156 240.660156 C 602.285156 248.761719 602.105469 253.171875 601.925781 260.730469 L 602.375 261.269531 C 608.945312 261 610.5625 260.910156 618.484375 261 L 618.933594 260.460938 C 618.394531 249.300781 618.304688 246.058594 618.214844 233.011719 C 622.175781 232.828125 625.503906 232.738281 629.015625 232.738281 C 632.613281 232.738281 636.214844 232.828125 639.8125 232.921875 C 639.996094 245.070312 639.996094 248.039062 639.542969 260.730469 L 639.996094 261.269531 C 646.746094 261 648.542969 260.910156 656.195312 261 L 656.644531 260.460938 C 655.925781 245.339844 655.652344 230.308594 655.652344 215.191406 C 655.652344 208.890625 655.746094 204.660156 655.835938 197.730469 Z M 683.375 260.371094 C 682.921875 253.441406 682.5625 248.128906 682.5625 235.710938 C 682.5625 228.058594 682.742188 220.320312 682.832031 212.671875 L 682.203125 211.949219 L 666.722656 214.648438 L 666.183594 215.191406 C 666.902344 222.03125 667.171875 225.179688 667.171875 237.960938 C 667.171875 247.769531 666.902344 253.261719 666.632812 260.640625 L 667.171875 261.269531 C 673.652344 261 675.453125 260.910156 682.742188 261 L 683.375 260.371094 M 681.933594 203.308594 L 682.203125 191.070312 L 681.664062 190.53125 L 666.992188 192.328125 L 666.453125 192.960938 C 666.632812 196.199219 666.722656 198.089844 666.722656 200.25 C 666.722656 201.960938 666.722656 203.761719 666.632812 205.46875 L 667.261719 206.011719 C 673.382812 204.929688 675.09375 204.75 681.484375 203.941406 Z M 712.265625 229.949219 C 709.203125 228.871094 706.773438 227.878906 706.773438 225.359375 C 706.773438 224.28125 707.496094 221.308594 713.074219 221.308594 C 718.566406 221.308594 722.074219 223.648438 724.324219 225.089844 L 725.136719 224.820312 L 726.035156 215.011719 L 725.585938 214.46875 C 721.355469 213.300781 717.664062 212.21875 711.816406 212.21875 C 707.40625 212.21875 698.585938 212.578125 693.90625 219.328125 C 692.734375 220.949219 691.476562 223.648438 691.476562 227.25 C 691.476562 236.878906 698.945312 239.761719 703.175781 241.378906 L 706.59375 242.640625 C 709.023438 243.449219 712.984375 244.800781 712.984375 248.039062 C 712.984375 250.289062 710.914062 252.71875 705.875 252.71875 C 703.355469 252.71875 699.664062 251.910156 696.335938 250.199219 C 694.804688 249.390625 694.085938 248.761719 692.734375 247.679688 L 691.925781 248.039062 C 691.746094 252.71875 691.65625 253.710938 691.292969 258.210938 L 691.746094 259.019531 C 696.15625 260.640625 699.933594 262.078125 706.503906 262.078125 C 713.34375 262.078125 726.84375 260.820312 728.464844 247.949219 C 728.554688 247.230469 728.554688 246.601562 728.554688 245.96875 C 728.554688 236.070312 721.625 233.460938 716.675781 231.570312 Z M 761.675781 250.648438 C 760.144531 251.101562 759.0625 251.460938 757.535156 251.460938 C 752.945312 251.460938 752.585938 248.578125 752.402344 247.230469 C 752.132812 244.890625 752.132812 239.941406 752.222656 236.339844 L 752.402344 223.648438 L 760.503906 224.011719 L 761.042969 223.46875 L 761.945312 213.839844 L 761.402344 213.300781 L 752.402344 213.300781 L 752.675781 198.179688 L 752.042969 197.640625 C 745.925781 199.441406 744.304688 199.890625 737.914062 201.511719 L 737.554688 202.140625 L 737.644531 213.390625 L 732.785156 213.210938 L 732.246094 213.660156 L 731.433594 223.289062 L 731.972656 223.828125 L 737.644531 223.648438 L 737.375 237.960938 C 737.285156 240.210938 737.195312 242.460938 737.195312 244.800781 C 737.195312 253.078125 737.375 261.988281 751.414062 261.988281 C 754.925781 261.988281 757.714844 261.449219 760.863281 260.910156 L 761.496094 260.28125 L 762.394531 251.011719 Z M 814.144531 237.058594 C 814.144531 233.550781 814.144531 218.96875 801.542969 214.019531 C 797.582031 212.488281 792.902344 212.308594 790.5625 212.308594 C 774.902344 212.308594 766.082031 220.679688 766.082031 237.238281 C 766.082031 243 766.984375 248.851562 770.3125 253.710938 C 772.652344 257.21875 777.0625 262.078125 789.933594 262.078125 C 809.011719 262.078125 814.144531 250.558594 814.144531 237.058594 M 798.574219 236.96875 C 798.574219 244.351562 797.582031 252.539062 790.113281 252.539062 C 787.773438 252.539062 786.152344 251.460938 785.074219 250.46875 C 783.542969 248.941406 781.832031 245.878906 781.832031 237.148438 C 781.832031 234.539062 781.832031 228.78125 783.632812 225.628906 C 784.984375 223.199219 787.324219 221.578125 790.203125 221.578125 C 792.722656 221.578125 794.792969 222.929688 795.964844 224.371094 C 798.125 226.980469 798.574219 232.109375 798.574219 236.96875 Z M 848.703125 227.609375 L 851.222656 212.941406 L 850.683594 212.308594 C 850.054688 212.308594 849.421875 212.21875 848.792969 212.21875 C 845.101562 212.21875 840.964844 214.289062 838.082031 220.949219 L 838.351562 212.671875 L 837.632812 211.949219 C 830.972656 213.390625 829.261719 213.660156 822.691406 214.648438 L 822.152344 215.191406 C 822.691406 221.941406 822.964844 225.988281 822.964844 238.5 C 822.964844 245.878906 822.871094 253.261719 822.691406 260.730469 L 823.234375 261.269531 C 829.894531 261 831.332031 260.910156 838.53125 261 L 838.984375 260.371094 C 838.621094 253.078125 838.082031 242.910156 838.082031 236.699219 C 838.082031 232.648438 838.082031 226.710938 844.203125 226.710938 C 845.734375 226.710938 846.632812 227.25 847.894531 227.96875 Z M 872.734375 260.371094 C 872.28125 253.441406 871.921875 248.128906 871.921875 235.710938 C 871.921875 228.058594 872.101562 220.320312 872.191406 212.671875 L 871.5625 211.949219 L 856.082031 214.648438 L 855.542969 215.191406 C 856.261719 222.03125 856.53125 225.179688 856.53125 237.960938 C 856.53125 247.769531 856.261719 253.261719 855.992188 260.640625 L 856.53125 261.269531 C 863.011719 261 864.8125 260.910156 872.101562 261 L 872.734375 260.371094 M 871.292969 203.308594 L 871.5625 191.070312 L 871.023438 190.53125 L 856.351562 192.328125 L 855.8125 192.960938 C 855.992188 196.199219 856.082031 198.089844 856.082031 200.25 C 856.082031 201.960938 856.082031 203.761719 855.992188 205.46875 L 856.621094 206.011719 C 862.742188 204.929688 864.453125 204.75 870.84375 203.941406 Z M 917.914062 248.039062 C 915.484375 249.480469 913.144531 250.921875 908.554688 250.921875 C 898.382812 250.921875 896.3125 242.460938 896.3125 237.058594 C 896.3125 230.488281 899.195312 222.929688 907.925781 222.929688 C 911.882812 222.929688 914.042969 224.371094 916.746094 226.171875 L 917.644531 225.898438 C 918.003906 221.128906 918.09375 219.871094 918.8125 215.101562 L 918.363281 214.558594 C 914.402344 213.300781 910.984375 212.21875 905.765625 212.21875 C 884.613281 212.21875 880.472656 228.238281 880.472656 237.421875 C 880.472656 247.769531 885.875 261.808594 906.125 261.808594 C 910.894531 261.808594 913.953125 260.910156 917.734375 259.828125 L 918.273438 259.289062 L 918.632812 248.488281 Z M 920.433594 261 "/>
<path fill-rule="nonzero" fill="rgb(34.901961%, 14.901961%, 14.901961%)" fill-opacity="1" d="M 411.53125 317.28125 L 400.101562 317.460938 L 399.558594 318 C 399.921875 329.699219 400.191406 337.53125 400.191406 347.878906 C 400.191406 358.859375 399.921875 369.75 399.648438 380.730469 L 400.191406 381.269531 C 406.851562 381 408.289062 380.910156 415.492188 381 L 415.941406 380.460938 C 415.582031 370.648438 415.582031 368.398438 415.582031 359.21875 C 425.660156 359.308594 436.460938 359.308594 442.941406 351.390625 C 445.460938 348.328125 447.621094 343.199219 447.621094 336.898438 C 447.621094 333.03125 446.71875 324.480469 439.25 320.25 C 433.851562 317.101562 426.199219 317.101562 419.449219 317.101562 L 411.53125 317.28125 M 415.582031 328.171875 C 417.558594 328.078125 419.449219 328.078125 421.429688 328.078125 C 429.351562 328.261719 431.511719 332.308594 431.511719 337.53125 C 431.511719 338.789062 431.511719 344.011719 426.742188 346.621094 C 424.308594 347.96875 420.980469 348.148438 415.582031 348.148438 Z M 493.878906 354.179688 C 493.96875 346.078125 493.96875 342.570312 491.628906 338.789062 C 489.828125 335.910156 486.230469 332.308594 474.710938 332.308594 C 466.96875 332.308594 462.199219 333.75 457.070312 335.28125 L 456.53125 336 L 456.078125 345.808594 L 456.800781 346.171875 C 459.949219 344.910156 465.800781 342.570312 471.828125 342.570312 C 475.160156 342.570312 476.507812 343.109375 477.679688 344.28125 C 478.578125 345.179688 478.851562 346.800781 478.851562 348.148438 C 468.050781 349.589844 463.007812 350.578125 457.609375 353.910156 C 452.570312 357.058594 450.859375 362.191406 450.859375 366.238281 C 450.859375 375.871094 457.789062 382.078125 466.609375 382.078125 C 473.359375 382.078125 477.230469 378.839844 479.121094 377.308594 L 479.121094 380.640625 L 479.660156 381.269531 C 486.140625 381 488.121094 380.910156 493.96875 381 L 494.417969 380.371094 C 493.789062 371.550781 493.789062 369.300781 493.789062 360.839844 L 493.878906 354.179688 M 479.03125 368.488281 C 477.140625 369.570312 474.710938 370.828125 471.738281 370.828125 C 468.5 370.828125 465.800781 369.121094 465.800781 365.339844 C 465.800781 359.398438 472.910156 358.410156 479.03125 357.601562 Z M 530.421875 347.609375 L 532.941406 332.941406 L 532.402344 332.308594 C 531.773438 332.308594 531.140625 332.21875 530.511719 332.21875 C 526.820312 332.21875 522.683594 334.289062 519.800781 340.949219 L 520.070312 332.671875 L 519.351562 331.949219 C 512.691406 333.390625 510.980469 333.660156 504.410156 334.648438 L 503.871094 335.191406 C 504.410156 341.941406 504.683594 345.988281 504.683594 358.5 C 504.683594 365.878906 504.589844 373.261719 504.410156 380.730469 L 504.953125 381.269531 C 511.613281 381 513.050781 380.910156 520.25 381 L 520.703125 380.371094 C 520.339844 373.078125 519.800781 362.910156 519.800781 356.699219 C 519.800781 352.648438 519.800781 346.710938 525.921875 346.710938 C 527.453125 346.710938 528.351562 347.25 529.613281 347.96875 Z M 584.421875 379.828125 C 575.960938 365.519531 575.0625 363.898438 568.222656 351.570312 C 574.433594 343.109375 575.0625 342.210938 581.453125 334.019531 L 581 333.121094 L 566.332031 333.300781 L 565.433594 333.929688 C 558.410156 346.078125 557.511719 347.519531 553.371094 353.730469 L 553.371094 343.738281 C 553.460938 326.910156 553.550781 323.308594 554 309.71875 L 553.28125 309.179688 L 537.621094 311.519531 L 537.082031 312.148438 C 537.710938 320.878906 537.980469 325.109375 538.160156 336.898438 C 538.339844 351.480469 538.339844 366.058594 538.25 380.640625 L 538.882812 381.269531 C 544.910156 381 546.621094 381 553.460938 381 L 554 380.371094 L 553.460938 365.160156 L 553.371094 354.808594 C 561.203125 369.210938 562.191406 371.191406 566.78125 380.730469 L 567.589844 381.269531 L 583.792969 380.640625 Z M 583.339844 381 "/>
</svg>
