<?xml version="1.0" encoding="UTF-8"?>
<svg xmlns="http://www.w3.org/2000/svg" xmlns:xlink="http://www.w3.org/1999/xlink" width="975" height="1300" viewBox="0 0 975 1300">
<path fill-rule="nonzero" fill="rgb(98.823529%, 78.823529%, 9.019608%)" fill-opacity="1" d="M 50 50 L 925 50 L 925 410 L 50 410 Z M 50 50 "/>
<path fill-rule="nonzero" fill="rgb(34.901961%, 14.901961%, 14.901961%)" fill-opacity="1" d="M 133.472656 124.890625 C 131.402344 126.511719 126.8125 129.929688 119.34375 129.929688 C 109.082031 129.929688 101.882812 122.28125 101.882812 109.5 C 101.882812 101.761719 104.582031 88.171875 119.253906 88.171875 C 126.003906 88.171875 129.691406 90.78125 131.941406 92.488281 L 132.753906 92.308594 L 133.5625 79.890625 L 133.203125 79.441406 C 129.964844 78.179688 124.472656 76.109375 116.554688 76.109375 C 93.242188 76.109375 85.144531 94.109375 85.144531 109.859375 C 85.144531 127.140625 95.671875 142.351562 117.632812 142.351562 C 125.191406 142.351562 130.144531 140.371094 133.023438 139.199219 L 133.472656 138.660156 L 134.101562 125.25 Z M 186.933594 117.058594 C 186.933594 113.550781 186.933594 98.96875 174.332031 94.019531 C 170.371094 92.488281 165.691406 92.308594 163.351562 92.308594 C 147.691406 92.308594 138.871094 100.679688 138.871094 117.238281 C 138.871094 123 139.773438 128.851562 143.101562 133.710938 C 145.441406 137.21875 149.851562 142.078125 162.722656 142.078125 C 181.800781 142.078125 186.933594 130.558594 186.933594 117.058594 M 171.363281 116.96875 C 171.363281 124.351562 170.371094 132.539062 162.902344 132.539062 C 160.5625 132.539062 158.941406 131.460938 157.863281 130.46875 C 156.332031 128.941406 154.621094 125.878906 154.621094 117.148438 C 154.621094 114.539062 154.621094 108.78125 156.421875 105.628906 C 157.773438 103.199219 160.113281 101.578125 162.992188 101.578125 C 165.511719 101.578125 167.582031 102.929688 168.753906 104.371094 C 170.914062 106.980469 171.363281 112.109375 171.363281 116.96875 Z M 211.320312 140.371094 C 210.871094 130.019531 210.421875 120.570312 210.421875 92.128906 C 210.421875 83.578125 210.511719 79.53125 210.871094 69.808594 L 210.242188 69.179688 L 194.851562 71.609375 L 194.492188 72.148438 C 195.390625 83.128906 195.480469 86.101562 195.660156 100.679688 C 195.753906 105.988281 195.753906 111.300781 195.753906 116.609375 C 195.753906 126.328125 195.570312 131.730469 195.210938 140.640625 L 195.753906 141.269531 C 201.78125 141 204.210938 140.910156 210.78125 141 Z M 264.964844 92.851562 L 250.292969 93.570312 L 249.664062 94.109375 C 250.292969 104.28125 250.292969 118.679688 250.292969 120.121094 C 250.292969 122.730469 250.292969 124.171875 250.203125 127.769531 C 247.773438 129.390625 245.882812 130.738281 243.453125 130.738281 C 236.972656 130.738281 236.972656 123.898438 236.972656 118.589844 C 236.972656 116.339844 236.972656 114 237.0625 111.75 L 237.242188 93.570312 L 236.613281 92.851562 L 221.761719 93.570312 L 221.132812 94.109375 C 221.671875 101.671875 221.761719 104.191406 221.761719 113.28125 L 221.761719 119.578125 C 221.671875 129.390625 222.125 133.53125 225.363281 137.308594 C 228.332031 140.640625 232.652344 142.078125 237.152344 142.078125 C 243.542969 142.078125 247.234375 139.199219 250.472656 136.679688 L 250.382812 140.730469 L 251.011719 141.269531 C 257.582031 141 259.5625 141 265.414062 141 L 265.953125 140.460938 C 265.503906 134.070312 265.324219 130.648438 265.324219 118.949219 C 265.324219 110.488281 265.414062 102.03125 265.59375 93.570312 Z M 295.023438 109.949219 C 291.960938 108.871094 289.53125 107.878906 289.53125 105.359375 C 289.53125 104.28125 290.253906 101.308594 295.832031 101.308594 C 301.324219 101.308594 304.832031 103.648438 307.082031 105.089844 L 307.894531 104.820312 L 308.792969 95.011719 L 308.34375 94.46875 C 304.113281 93.300781 300.421875 92.21875 294.574219 92.21875 C 290.164062 92.21875 281.34375 92.578125 276.664062 99.328125 C 275.492188 100.949219 274.234375 103.648438 274.234375 107.25 C 274.234375 116.878906 281.703125 119.761719 285.933594 121.378906 L 289.351562 122.640625 C 291.78125 123.449219 295.742188 124.800781 295.742188 128.039062 C 295.742188 130.289062 293.671875 132.71875 288.632812 132.71875 C 286.113281 132.71875 282.421875 131.910156 279.09375 130.199219 C 277.5625 129.390625 276.84375 128.761719 275.492188 127.679688 L 274.683594 128.039062 C 274.503906 132.71875 274.414062 133.710938 274.050781 138.210938 L 274.503906 139.019531 C 278.914062 140.640625 282.691406 142.078125 289.261719 142.078125 C 296.101562 142.078125 309.601562 140.820312 311.222656 127.949219 C 311.3125 127.230469 311.3125 126.601562 311.3125 125.96875 C 311.3125 116.070312 304.382812 113.460938 299.433594 111.570312 Z M 359.28125 114.179688 C 359.371094 106.078125 359.371094 102.570312 357.03125 98.789062 C 355.230469 95.910156 351.632812 92.308594 340.113281 92.308594 C 332.371094 92.308594 327.601562 93.75 322.472656 95.28125 L 321.933594 96 L 321.480469 105.808594 L 322.203125 106.171875 C 325.351562 104.910156 331.203125 102.570312 337.230469 102.570312 C 340.5625 102.570312 341.910156 103.109375 343.082031 104.28125 C 343.980469 105.179688 344.253906 106.800781 344.253906 108.148438 C 333.453125 109.589844 328.410156 110.578125 323.011719 113.910156 C 317.972656 117.058594 316.261719 122.191406 316.261719 126.238281 C 316.261719 135.871094 323.191406 142.078125 332.011719 142.078125 C 338.761719 142.078125 342.632812 138.839844 344.523438 137.308594 L 344.523438 140.640625 L 345.0625 141.269531 C 351.542969 141 353.523438 140.910156 359.371094 141 L 359.820312 140.371094 C 359.191406 131.550781 359.191406 129.300781 359.191406 120.839844 L 359.28125 114.179688 M 344.433594 128.488281 C 342.542969 129.570312 340.113281 130.828125 337.140625 130.828125 C 333.902344 130.828125 331.203125 129.121094 331.203125 125.339844 C 331.203125 119.398438 338.3125 118.410156 344.433594 117.601562 Z M 394.652344 109.769531 C 390.335938 109.859375 386.824219 109.949219 381.515625 109.949219 C 377.195312 109.949219 372.875 109.859375 368.644531 109.859375 L 368.015625 110.398438 L 367.472656 120.75 L 367.925781 121.289062 C 372.964844 121.199219 375.933594 121.109375 380.703125 121.109375 C 385.113281 121.109375 389.523438 121.199219 393.933594 121.199219 L 394.472656 120.660156 L 395.105469 110.21875 Z M 429.574219 102.300781 C 422.015625 99.148438 418.054688 97.53125 418.054688 93.480469 C 418.054688 90.691406 420.664062 87.179688 426.605469 87.179688 C 433.445312 87.179688 437.492188 89.96875 440.824219 92.21875 L 441.632812 91.859375 L 442.355469 80.070312 L 441.902344 79.441406 C 438.035156 77.820312 433.984375 76.109375 425.253906 76.109375 C 408.335938 76.109375 402.484375 85.648438 402.484375 95.28125 C 402.484375 106.171875 410.945312 110.128906 415.984375 112.558594 L 418.953125 113.910156 C 425.164062 116.519531 429.933594 118.769531 429.933594 123.539062 C 429.933594 126.960938 426.964844 131.011719 419.132812 131.011719 C 410.945312 131.011719 406.355469 127.410156 403.742188 125.339844 L 402.84375 125.609375 L 402.214844 138.300781 L 402.753906 139.019531 C 403.742188 139.378906 404.734375 139.828125 405.722656 140.101562 C 407.792969 140.820312 413.105469 142.351562 419.855469 142.351562 C 422.554688 142.351562 429.394531 142.078125 434.792969 139.558594 C 442.355469 135.871094 445.59375 129.03125 445.59375 121.378906 C 445.59375 116.25 443.613281 110.761719 438.84375 107.070312 C 436.414062 105.269531 434.074219 104.191406 431.914062 103.199219 Z M 494.191406 114.179688 C 494.28125 106.078125 494.28125 102.570312 491.941406 98.789062 C 490.140625 95.910156 486.542969 92.308594 475.023438 92.308594 C 467.28125 92.308594 462.511719 93.75 457.382812 95.28125 L 456.84375 96 L 456.390625 105.808594 L 457.113281 106.171875 C 460.261719 104.910156 466.113281 102.570312 472.140625 102.570312 C 475.472656 102.570312 476.820312 103.109375 477.992188 104.28125 C 478.890625 105.179688 479.164062 106.800781 479.164062 108.148438 C 468.363281 109.589844 463.320312 110.578125 457.921875 113.910156 C 452.882812 117.058594 451.171875 122.191406 451.171875 126.238281 C 451.171875 135.871094 458.101562 142.078125 466.921875 142.078125 C 473.671875 142.078125 477.542969 138.839844 479.433594 137.308594 L 479.433594 140.640625 L 479.972656 141.269531 C 486.453125 141 488.433594 140.910156 494.28125 141 L 494.730469 140.371094 C 494.101562 131.550781 494.101562 129.300781 494.101562 120.839844 L 494.191406 114.179688 M 479.34375 128.488281 C 477.453125 129.570312 475.023438 130.828125 472.050781 130.828125 C 468.8125 130.828125 466.113281 129.121094 466.113281 125.339844 C 466.113281 119.398438 473.222656 118.410156 479.34375 117.601562 Z M 539.914062 128.039062 C 537.484375 129.480469 535.144531 130.921875 530.554688 130.921875 C 520.382812 130.921875 518.3125 122.460938 518.3125 117.058594 C 518.3125 110.488281 521.195312 102.929688 529.925781 102.929688 C 533.882812 102.929688 536.042969 104.371094 538.746094 106.171875 L 539.644531 105.898438 C 540.003906 101.128906 540.09375 99.871094 540.8125 95.101562 L 540.363281 94.558594 C 536.402344 93.300781 532.984375 92.21875 527.765625 92.21875 C 506.613281 92.21875 502.472656 108.238281 502.472656 117.421875 C 502.472656 127.769531 507.875 141.808594 528.125 141.808594 C 532.894531 141.808594 535.953125 140.910156 539.734375 139.828125 L 540.273438 139.289062 L 540.632812 128.488281 Z M 573.84375 107.609375 L 576.363281 92.941406 L 575.824219 92.308594 C 575.195312 92.308594 574.5625 92.21875 573.933594 92.21875 C 570.242188 92.21875 566.105469 94.289062 563.222656 100.949219 L 563.492188 92.671875 L 562.773438 91.949219 C 556.113281 93.390625 554.402344 93.660156 547.832031 94.648438 L 547.292969 95.191406 C 547.832031 101.941406 548.105469 105.988281 548.105469 118.5 C 548.105469 125.878906 548.011719 133.261719 547.832031 140.730469 L 548.375 141.269531 C 555.035156 141 556.472656 140.910156 563.671875 141 L 564.125 140.371094 C 563.761719 133.078125 563.222656 122.910156 563.222656 116.699219 C 563.222656 112.648438 563.222656 106.710938 569.34375 106.710938 C 570.875 106.710938 571.773438 107.25 573.035156 107.96875 Z M 621.632812 114.179688 C 621.722656 106.078125 621.722656 102.570312 619.382812 98.789062 C 617.582031 95.910156 613.984375 92.308594 602.464844 92.308594 C 594.722656 92.308594 589.953125 93.75 584.824219 95.28125 L 584.285156 96 L 583.832031 105.808594 L 584.554688 106.171875 C 587.703125 104.910156 593.554688 102.570312 599.582031 102.570312 C 602.914062 102.570312 604.261719 103.109375 605.433594 104.28125 C 606.332031 105.179688 606.605469 106.800781 606.605469 108.148438 C 595.804688 109.589844 590.761719 110.578125 585.363281 113.910156 C 580.324219 117.058594 578.613281 122.191406 578.613281 126.238281 C 578.613281 135.871094 585.542969 142.078125 594.363281 142.078125 C 601.113281 142.078125 604.984375 138.839844 606.875 137.308594 L 606.875 140.640625 L 607.414062 141.269531 C 613.894531 141 615.875 140.910156 621.722656 141 L 622.171875 140.371094 C 621.542969 131.550781 621.542969 129.300781 621.542969 120.839844 L 621.632812 114.179688 M 606.785156 128.488281 C 604.894531 129.570312 602.464844 130.828125 599.492188 130.828125 C 596.253906 130.828125 593.554688 129.121094 593.554688 125.339844 C 593.554688 119.398438 600.664062 118.410156 606.785156 117.601562 Z M 702.453125 140.371094 C 702 132 701.910156 129.660156 701.910156 119.488281 L 701.910156 112.738281 C 702 106.710938 702.089844 101.128906 699.480469 97.351562 C 695.972656 92.21875 689.761719 92.21875 688.320312 92.21875 C 680.941406 92.21875 675.992188 95.550781 672.390625 98.070312 C 671.132812 96 668.882812 92.21875 661.683594 92.21875 C 655.742188 92.21875 651.871094 94.921875 647.730469 97.800781 L 647.730469 92.761719 L 646.921875 91.949219 C 639.902344 93.300781 637.921875 93.660156 631.621094 94.558594 L 631.082031 95.191406 C 631.800781 102.390625 632.339844 107.339844 632.339844 125.160156 C 632.339844 130.289062 632.25 135.511719 632.25 140.640625 L 632.703125 141.179688 C 638.460938 141 640.441406 140.910156 647.910156 140.910156 L 648.453125 140.371094 C 647.820312 126.511719 647.730469 122.371094 647.640625 106.710938 C 649.53125 105.359375 651.601562 104.191406 653.851562 104.191406 C 659.433594 104.191406 659.613281 110.578125 659.613281 118.320312 C 659.613281 131.371094 659.523438 133.351562 659.339844 140.640625 L 659.882812 141.269531 C 666.722656 140.910156 668.613281 140.910156 674.820312 140.910156 L 675.363281 140.371094 C 674.820312 131.820312 674.730469 129.300781 674.640625 118.410156 L 674.640625 115.078125 L 674.550781 105.988281 C 676.082031 105 678.0625 103.738281 680.761719 103.738281 C 685.890625 103.738281 686.703125 108.601562 686.703125 116.339844 C 686.703125 118.050781 686.613281 119.761719 686.613281 121.46875 C 686.523438 124.53125 686.433594 137.941406 686.339844 140.640625 L 686.882812 141.179688 C 693.632812 140.910156 695.613281 140.910156 701.910156 140.910156 Z M 752.761719 127.679688 C 749.34375 129.480469 745.292969 131.550781 738.722656 131.550781 C 733.324219 131.550781 729.632812 129.839844 727.472656 126.601562 C 726.121094 124.710938 725.851562 122.910156 725.492188 121.109375 L 754.5625 120.570312 L 755.101562 119.941406 C 755.011719 115.53125 754.921875 111.03125 753.664062 106.53125 C 750.511719 95.910156 743.582031 93.75 740.523438 93.03125 C 738.273438 92.398438 736.203125 92.21875 734.132812 92.21875 C 720.003906 92.21875 710.640625 101.488281 710.640625 117.058594 C 710.640625 121.289062 711.363281 125.699219 712.800781 128.851562 C 718.023438 141 730.261719 142.078125 736.742188 142.078125 C 744.210938 142.078125 747.453125 140.730469 752.222656 138.839844 L 752.761719 138.121094 L 753.390625 127.949219 L 752.761719 127.679688 M 725.492188 111.570312 C 725.761719 108.78125 726.390625 105 729.8125 102.839844 C 730.890625 102.121094 732.152344 101.851562 733.414062 101.851562 C 736.382812 101.851562 738.183594 103.378906 739.171875 105 C 740.433594 106.980469 740.523438 109.140625 740.523438 111.210938 Z M 807.484375 140.371094 C 807.035156 132.449219 807.035156 129.929688 806.855469 121.109375 L 806.855469 114.089844 C 806.765625 105.449219 806.675781 101.308594 804.425781 97.621094 C 801.632812 92.941406 796.503906 92.21875 793.265625 92.21875 C 787.773438 92.21875 783.003906 95.101562 778.863281 97.53125 L 779.042969 92.578125 L 778.144531 91.949219 C 771.214844 93.390625 769.683594 93.660156 762.933594 94.558594 L 762.394531 95.191406 C 763.113281 103.019531 763.65625 108.691406 763.65625 123.359375 C 763.65625 129.121094 763.5625 134.878906 763.472656 140.640625 L 764.015625 141.179688 C 770.496094 140.910156 771.84375 140.910156 779.042969 140.910156 L 779.585938 140.371094 C 779.042969 126.511719 778.953125 123 778.863281 106.890625 C 780.753906 105.628906 782.914062 104.101562 785.792969 104.101562 C 790.746094 104.101562 791.195312 109.410156 791.464844 112.648438 C 791.644531 115.621094 791.734375 127.949219 791.734375 131.371094 C 791.734375 134.429688 791.644531 137.578125 791.644531 140.640625 L 792.183594 141.179688 C 798.125 141 799.65625 140.910156 806.855469 140.910156 Z M 842.945312 130.648438 C 841.414062 131.101562 840.332031 131.460938 838.804688 131.460938 C 834.214844 131.460938 833.855469 128.578125 833.671875 127.230469 C 833.402344 124.890625 833.402344 119.941406 833.492188 116.339844 L 833.671875 103.648438 L 841.773438 104.011719 L 842.3125 103.46875 L 843.214844 93.839844 L 842.671875 93.300781 L 833.671875 93.300781 L 833.945312 78.179688 L 833.3125 77.640625 C 827.195312 79.441406 825.574219 79.890625 819.183594 81.511719 L 818.824219 82.140625 L 818.914062 93.390625 L 814.054688 93.210938 L 813.515625 93.660156 L 812.703125 103.289062 L 813.242188 103.828125 L 818.914062 103.648438 L 818.644531 117.960938 C 818.554688 120.210938 818.464844 122.460938 818.464844 124.800781 C 818.464844 133.078125 818.644531 141.988281 832.683594 141.988281 C 836.195312 141.988281 838.984375 141.449219 842.132812 140.910156 L 842.765625 140.28125 L 843.664062 131.011719 Z M 895.414062 117.058594 C 895.414062 113.550781 895.414062 98.96875 882.8125 94.019531 C 878.851562 92.488281 874.171875 92.308594 871.832031 92.308594 C 856.171875 92.308594 847.351562 100.679688 847.351562 117.238281 C 847.351562 123 848.253906 128.851562 851.582031 133.710938 C 853.921875 137.21875 858.332031 142.078125 871.203125 142.078125 C 890.28125 142.078125 895.414062 130.558594 895.414062 117.058594 M 879.84375 116.96875 C 879.84375 124.351562 878.851562 132.539062 871.382812 132.539062 C 869.042969 132.539062 867.421875 131.460938 866.34375 130.46875 C 864.8125 128.941406 863.101562 125.878906 863.101562 117.148438 C 863.101562 114.539062 863.101562 108.78125 864.902344 105.628906 C 866.253906 103.199219 868.59375 101.578125 871.472656 101.578125 C 873.992188 101.578125 876.0625 102.929688 877.234375 104.371094 C 879.394531 106.980469 879.84375 112.109375 879.84375 116.96875 Z M 898.5625 141 "/>
<path fill-rule="nonzero" fill="rgb(34.901961%, 14.901961%, 14.901961%)" fill-opacity="1" d="M 289.578125 236.25 C 295.609375 246.511719 296.960938 249.210938 302.71875 261 L 303.441406 261.449219 C 306.230469 261.269531 308.929688 261.089844 311.71875 261 C 314.511719 260.910156 317.390625 260.820312 320.179688 260.820312 L 320.71875 259.738281 C 317.300781 255.328125 316.308594 253.980469 309.828125 243.628906 C 306.949219 239.039062 305.511719 236.609375 303.261719 232.648438 C 307.308594 230.851562 315.5 227.070312 315.5 215.640625 C 315.5 211.679688 314.417969 203.488281 307.039062 199.621094 C 302.359375 197.191406 297.5 197.101562 286.96875 197.28125 L 280.667969 197.371094 L 269.691406 197.371094 L 269.238281 197.910156 C 269.601562 207 269.960938 216.359375 269.960938 240.839844 C 269.960938 249.210938 269.871094 253.261719 269.601562 260.730469 L 270.140625 261.269531 C 276.710938 261 278.148438 260.910156 285.53125 261 L 286.070312 260.460938 C 285.351562 250.019531 285.261719 247.140625 285.167969 236.429688 L 289.578125 236.25 M 285.351562 208.261719 C 286.609375 208.171875 287.871094 208.171875 289.128906 208.171875 C 292.640625 208.171875 299.570312 208.171875 299.570312 216.089844 C 299.570312 218.609375 298.941406 221.941406 295.609375 224.011719 C 293.089844 225.539062 289.851562 225.71875 285.351562 225.808594 Z M 341.78125 260.371094 C 341.328125 253.441406 340.96875 248.128906 340.96875 235.710938 C 340.96875 228.058594 341.148438 220.320312 341.238281 212.671875 L 340.609375 211.949219 L 325.128906 214.648438 L 324.589844 215.191406 C 325.308594 222.03125 325.578125 225.179688 325.578125 237.960938 C 325.578125 247.769531 325.308594 253.261719 325.039062 260.640625 L 325.578125 261.269531 C 332.058594 261 333.859375 260.910156 341.148438 261 L 341.78125 260.371094 M 340.339844 203.308594 L 340.609375 191.070312 L 340.070312 190.53125 L 325.398438 192.328125 L 324.859375 192.960938 C 325.039062 196.199219 325.128906 198.089844 325.128906 200.25 C 325.128906 201.960938 325.128906 203.761719 325.039062 205.46875 L 325.667969 206.011719 C 331.789062 204.929688 333.5 204.75 339.890625 203.941406 Z M 376.609375 260.28125 C 379.492188 251.28125 381.199219 245.699219 383.089844 240.03125 C 385.519531 232.738281 389.480469 221.039062 392 213.660156 L 391.550781 213.03125 L 378.949219 213.300781 L 378.320312 213.929688 C 377.0625 219.960938 376.792969 221.21875 374.992188 228.238281 L 370.402344 245.96875 L 368.152344 236.25 L 366.441406 229.320312 C 364.191406 220.949219 363.832031 219.238281 362.570312 213.300781 L 361.941406 212.761719 C 354.832031 213.570312 353.03125 213.660156 346.191406 213.75 L 345.832031 214.46875 C 357.800781 249.929688 358.792969 253.261719 360.769531 260.640625 L 361.402344 261.269531 C 367.25 261 369.589844 260.910156 376.070312 261 Z M 436.730469 247.679688 C 433.3125 249.480469 429.261719 251.550781 422.691406 251.550781 C 417.292969 251.550781 413.601562 249.839844 411.441406 246.601562 C 410.089844 244.710938 409.820312 242.910156 409.460938 241.109375 L 438.53125 240.570312 L 439.070312 239.941406 C 438.980469 235.53125 438.890625 231.03125 437.632812 226.53125 C 434.480469 215.910156 427.550781 213.75 424.492188 213.03125 C 422.242188 212.398438 420.171875 212.21875 418.101562 212.21875 C 403.972656 212.21875 394.609375 221.488281 394.609375 237.058594 C 394.609375 241.289062 395.332031 245.699219 396.769531 248.851562 C 401.992188 261 414.230469 262.078125 420.710938 262.078125 C 428.179688 262.078125 431.421875 260.730469 436.191406 258.839844 L 436.730469 258.121094 L 437.359375 247.949219 L 436.730469 247.679688 M 409.460938 231.570312 C 409.730469 228.78125 410.359375 225 413.78125 222.839844 C 414.859375 222.121094 416.121094 221.851562 417.382812 221.851562 C 420.351562 221.851562 422.152344 223.378906 423.140625 225 C 424.402344 226.980469 424.492188 229.140625 424.492188 231.210938 Z M 473.359375 227.609375 L 475.878906 212.941406 L 475.339844 212.308594 C 474.710938 212.308594 474.078125 212.21875 473.449219 212.21875 C 469.757812 212.21875 465.621094 214.289062 462.738281 220.949219 L 463.007812 212.671875 L 462.289062 211.949219 C 455.628906 213.390625 453.917969 213.660156 447.347656 214.648438 L 446.808594 215.191406 C 447.347656 221.941406 447.621094 225.988281 447.621094 238.5 C 447.621094 245.878906 447.527344 253.261719 447.347656 260.730469 L 447.890625 261.269531 C 454.550781 261 455.988281 260.910156 463.1875 261 L 463.640625 260.371094 C 463.277344 253.078125 462.738281 242.910156 462.738281 236.699219 C 462.738281 232.648438 462.738281 226.710938 468.859375 226.710938 C 470.390625 226.710938 471.289062 227.25 472.550781 227.96875 Z M 533.390625 222.300781 C 525.832031 219.148438 521.871094 217.53125 521.871094 213.480469 C 521.871094 210.691406 524.480469 207.179688 530.421875 207.179688 C 537.261719 207.179688 541.308594 209.96875 544.640625 212.21875 L 545.449219 211.859375 L 546.171875 200.070312 L 545.71875 199.441406 C 541.851562 197.820312 537.800781 196.109375 529.070312 196.109375 C 512.152344 196.109375 506.300781 205.648438 506.300781 215.28125 C 506.300781 226.171875 514.761719 230.128906 519.800781 232.558594 L 522.769531 233.910156 C 528.980469 236.519531 533.75 238.769531 533.75 243.539062 C 533.75 246.960938 530.78125 251.011719 522.949219 251.011719 C 514.761719 251.011719 510.171875 247.410156 507.558594 245.339844 L 506.660156 245.609375 L 506.03125 258.300781 L 506.570312 259.019531 C 507.558594 259.378906 508.550781 259.828125 509.539062 260.101562 C 511.609375 260.820312 516.921875 262.351562 523.671875 262.351562 C 526.371094 262.351562 533.210938 262.078125 538.609375 259.558594 C 546.171875 255.871094 549.410156 249.03125 549.410156 241.378906 C 549.410156 236.25 547.429688 230.761719 542.660156 227.070312 C 540.230469 225.269531 537.890625 224.191406 535.730469 223.199219 Z M 583.160156 250.648438 C 581.628906 251.101562 580.546875 251.460938 579.019531 251.460938 C 574.429688 251.460938 574.070312 248.578125 573.886719 247.230469 C 573.617188 244.890625 573.617188 239.941406 573.707031 236.339844 L 573.886719 223.648438 L 581.988281 224.011719 L 582.527344 223.46875 L 583.429688 213.839844 L 582.886719 213.300781 L 573.886719 213.300781 L 574.160156 198.179688 L 573.527344 197.640625 C 567.410156 199.441406 565.789062 199.890625 559.398438 201.511719 L 559.039062 202.140625 L 559.128906 213.390625 L 554.269531 213.210938 L 553.730469 213.660156 L 552.917969 223.289062 L 553.457031 223.828125 L 559.128906 223.648438 L 558.859375 237.960938 C 558.769531 240.210938 558.679688 242.460938 558.679688 244.800781 C 558.679688 253.078125 558.859375 261.988281 572.898438 261.988281 C 576.410156 261.988281 579.199219 261.449219 582.347656 260.910156 L 582.980469 260.28125 L 583.878906 251.011719 Z M 629.867188 234.179688 C 629.957031 226.078125 629.957031 222.570312 627.617188 218.789062 C 625.816406 215.910156 622.21875 212.308594 610.699219 212.308594 C 602.957031 212.308594 598.1875 213.75 593.058594 215.28125 L 592.519531 216 L 592.066406 225.808594 L 592.789062 226.171875 C 595.9375 224.910156 601.789062 222.570312 607.816406 222.570312 C 611.148438 222.570312 612.496094 223.109375 613.667969 224.28125 C 614.566406 225.179688 614.839844 226.800781 614.839844 228.148438 C 604.039062 229.589844 598.996094 230.578125 593.597656 233.910156 C 588.558594 237.058594 586.847656 242.191406 586.847656 246.238281 C 586.847656 255.871094 593.777344 262.078125 602.597656 262.078125 C 609.347656 262.078125 613.21875 258.839844 615.109375 257.308594 L 615.109375 260.640625 L 615.648438 261.269531 C 622.128906 261 624.109375 260.910156 629.957031 261 L 630.40625 260.371094 C 629.777344 251.550781 629.777344 249.300781 629.777344 240.839844 L 629.867188 234.179688 M 615.019531 248.488281 C 613.128906 249.570312 610.699219 250.828125 607.726562 250.828125 C 604.488281 250.828125 601.789062 249.121094 601.789062 245.339844 C 601.789062 239.398438 608.898438 238.410156 615.019531 237.601562 Z M 665.601562 250.648438 C 664.070312 251.101562 662.988281 251.460938 661.460938 251.460938 C 656.871094 251.460938 656.511719 248.578125 656.328125 247.230469 C 656.058594 244.890625 656.058594 239.941406 656.148438 236.339844 L 656.328125 223.648438 L 664.429688 224.011719 L 664.96875 223.46875 L 665.871094 213.839844 L 665.328125 213.300781 L 656.328125 213.300781 L 656.601562 198.179688 L 655.96875 197.640625 C 649.851562 199.441406 648.230469 199.890625 641.839844 201.511719 L 641.480469 202.140625 L 641.570312 213.390625 L 636.710938 213.210938 L 636.171875 213.660156 L 635.359375 223.289062 L 635.898438 223.828125 L 641.570312 223.648438 L 641.300781 237.960938 C 641.210938 240.210938 641.121094 242.460938 641.121094 244.800781 C 641.121094 253.078125 641.300781 261.988281 655.339844 261.988281 C 658.851562 261.988281 661.640625 261.449219 664.789062 260.910156 L 665.421875 260.28125 L 666.320312 251.011719 Z M 712.21875 247.679688 C 708.800781 249.480469 704.75 251.550781 698.179688 251.550781 C 692.78125 251.550781 689.089844 249.839844 686.929688 246.601562 C 685.578125 244.710938 685.308594 242.910156 684.949219 241.109375 L 714.019531 240.570312 L 714.558594 239.941406 C 714.46875 235.53125 714.378906 231.03125 713.121094 226.53125 C 709.96875 215.910156 703.039062 213.75 699.980469 213.03125 C 697.730469 212.398438 695.660156 212.21875 693.589844 212.21875 C 679.460938 212.21875 670.097656 221.488281 670.097656 237.058594 C 670.097656 241.289062 670.820312 245.699219 672.257812 248.851562 C 677.480469 261 689.71875 262.078125 696.199219 262.078125 C 703.667969 262.078125 706.910156 260.730469 711.679688 258.839844 L 712.21875 258.121094 L 712.847656 247.949219 L 712.21875 247.679688 M 684.949219 231.570312 C 685.21875 228.78125 685.847656 225 689.269531 222.839844 C 690.347656 222.121094 691.609375 221.851562 692.871094 221.851562 C 695.839844 221.851562 697.640625 223.378906 698.628906 225 C 699.890625 226.980469 699.980469 229.140625 699.980469 231.210938 Z M 717.441406 261 "/>
<path fill-rule="nonzero" fill="rgb(34.901961%, 14.901961%, 14.901961%)" fill-opacity="1" d="M 180.769531 356.25 C 186.800781 366.511719 188.152344 369.210938 193.910156 381 L 194.632812 381.449219 C 197.421875 381.269531 200.121094 381.089844 202.910156 381 C 205.703125 380.910156 208.582031 380.820312 211.371094 380.820312 L 211.910156 379.738281 C 208.492188 375.328125 207.5 373.980469 201.019531 363.628906 C 198.140625 359.039062 196.703125 356.609375 194.453125 352.648438 C 198.5 350.851562 206.691406 347.070312 206.691406 335.640625 C 206.691406 331.679688 205.609375 323.488281 198.230469 319.621094 C 193.550781 317.191406 188.691406 317.101562 178.160156 317.28125 L 171.859375 317.371094 L 160.882812 317.371094 L 160.429688 317.910156 C 160.792969 327 161.152344 336.359375 161.152344 360.839844 C 161.152344 369.210938 161.0625 373.261719 160.792969 380.730469 L 161.332031 381.269531 C 167.902344 381 169.339844 380.910156 176.722656 381 L 177.261719 380.460938 C 176.542969 370.019531 176.453125 367.140625 176.359375 356.429688 L 180.769531 356.25 M 176.542969 328.261719 C 177.800781 328.171875 179.0625 328.171875 180.320312 328.171875 C 183.832031 328.171875 190.761719 328.171875 190.761719 336.089844 C 190.761719 338.609375 190.132812 341.941406 186.800781 344.011719 C 184.28125 345.539062 181.042969 345.71875 176.542969 345.808594 Z M 256.640625 367.679688 C 253.222656 369.480469 249.171875 371.550781 242.601562 371.550781 C 237.203125 371.550781 233.511719 369.839844 231.351562 366.601562 C 230 364.710938 229.730469 362.910156 229.371094 361.109375 L 258.441406 360.570312 L 258.980469 359.941406 C 258.890625 355.53125 258.800781 351.03125 257.542969 346.53125 C 254.390625 335.910156 247.460938 333.75 244.402344 333.03125 C 242.152344 332.398438 240.082031 332.21875 238.011719 332.21875 C 223.882812 332.21875 214.519531 341.488281 214.519531 357.058594 C 214.519531 361.289062 215.242188 365.699219 216.679688 368.851562 C 221.902344 381 234.140625 382.078125 240.621094 382.078125 C 248.089844 382.078125 251.332031 380.730469 256.101562 378.839844 L 256.640625 378.121094 L 257.269531 367.949219 L 256.640625 367.679688 M 229.371094 351.570312 C 229.640625 348.78125 230.269531 345 233.691406 342.839844 C 234.769531 342.121094 236.03125 341.851562 237.292969 341.851562 C 240.261719 341.851562 242.0625 343.378906 243.050781 345 C 244.3125 346.980469 244.402344 349.140625 244.402344 351.210938 Z M 302.449219 368.039062 C 300.019531 369.480469 297.679688 370.921875 293.089844 370.921875 C 282.917969 370.921875 280.847656 362.460938 280.847656 357.058594 C 280.847656 350.488281 283.730469 342.929688 292.460938 342.929688 C 296.417969 342.929688 298.578125 344.371094 301.28125 346.171875 L 302.179688 345.898438 C 302.539062 341.128906 302.628906 339.871094 303.347656 335.101562 L 302.898438 334.558594 C 298.9375 333.300781 295.519531 332.21875 290.300781 332.21875 C 269.148438 332.21875 265.007812 348.238281 265.007812 357.421875 C 265.007812 367.769531 270.410156 381.808594 290.660156 381.808594 C 295.429688 381.808594 298.488281 380.910156 302.269531 379.828125 L 302.808594 379.289062 L 303.167969 368.488281 Z M 336.382812 347.609375 L 338.902344 332.941406 L 338.363281 332.308594 C 337.734375 332.308594 337.101562 332.21875 336.472656 332.21875 C 332.78125 332.21875 328.644531 334.289062 325.761719 340.949219 L 326.03125 332.671875 L 325.3125 331.949219 C 318.652344 333.390625 316.941406 333.660156 310.371094 334.648438 L 309.832031 335.191406 C 310.371094 341.941406 310.644531 345.988281 310.644531 358.5 C 310.644531 365.878906 310.550781 373.261719 310.371094 380.730469 L 310.914062 381.269531 C 317.574219 381 319.011719 380.910156 326.210938 381 L 326.664062 380.371094 C 326.300781 373.078125 325.761719 362.910156 325.761719 356.699219 C 325.761719 352.648438 325.761719 346.710938 331.882812 346.710938 C 333.414062 346.710938 334.3125 347.25 335.574219 347.96875 Z M 384.082031 367.679688 C 380.664062 369.480469 376.613281 371.550781 370.042969 371.550781 C 364.644531 371.550781 360.953125 369.839844 358.792969 366.601562 C 357.441406 364.710938 357.171875 362.910156 356.8125 361.109375 L 385.882812 360.570312 L 386.421875 359.941406 C 386.332031 355.53125 386.242188 351.03125 384.984375 346.53125 C 381.832031 335.910156 374.902344 333.75 371.84375 333.03125 C 369.59375 332.398438 367.523438 332.21875 365.453125 332.21875 C 351.324219 332.21875 341.960938 341.488281 341.960938 357.058594 C 341.960938 361.289062 342.683594 365.699219 344.121094 368.851562 C 349.34375 381 361.582031 382.078125 368.0625 382.078125 C 375.53125 382.078125 378.773438 380.730469 383.542969 378.839844 L 384.082031 378.121094 L 384.710938 367.949219 L 384.082031 367.679688 M 356.8125 351.570312 C 357.082031 348.78125 357.710938 345 361.132812 342.839844 C 362.210938 342.121094 363.472656 341.851562 364.734375 341.851562 C 367.703125 341.851562 369.503906 343.378906 370.492188 345 C 371.753906 346.980469 371.84375 349.140625 371.84375 351.210938 Z M 434.75 354.179688 C 434.839844 346.078125 434.839844 342.570312 432.5 338.789062 C 430.699219 335.910156 427.101562 332.308594 415.582031 332.308594 C 407.839844 332.308594 403.070312 333.75 397.941406 335.28125 L 397.402344 336 L 396.949219 345.808594 L 397.671875 346.171875 C 400.820312 344.910156 406.671875 342.570312 412.699219 342.570312 C 416.03125 342.570312 417.378906 343.109375 418.550781 344.28125 C 419.449219 345.179688 419.722656 346.800781 419.722656 348.148438 C 408.921875 349.589844 403.878906 350.578125 398.480469 353.910156 C 393.441406 357.058594 391.730469 362.191406 391.730469 366.238281 C 391.730469 375.871094 398.660156 382.078125 407.480469 382.078125 C 414.230469 382.078125 418.101562 378.839844 419.992188 377.308594 L 419.992188 380.640625 L 420.53125 381.269531 C 427.011719 381 428.992188 380.910156 434.839844 381 L 435.289062 380.371094 C 434.660156 371.550781 434.660156 369.300781 434.660156 360.839844 L 434.75 354.179688 M 419.902344 368.488281 C 418.011719 369.570312 415.582031 370.828125 412.609375 370.828125 C 409.371094 370.828125 406.671875 369.121094 406.671875 365.339844 C 406.671875 359.398438 413.78125 358.410156 419.902344 357.601562 Z M 470.484375 370.648438 C 468.953125 371.101562 467.871094 371.460938 466.34375 371.460938 C 461.753906 371.460938 461.394531 368.578125 461.210938 367.230469 C 460.941406 364.890625 460.941406 359.941406 461.03125 356.339844 L 461.210938 343.648438 L 469.3125 344.011719 L 469.851562 343.46875 L 470.753906 333.839844 L 470.210938 333.300781 L 461.210938 333.300781 L 461.484375 318.179688 L 460.851562 317.640625 C 454.734375 319.441406 453.113281 319.890625 446.722656 321.511719 L 446.363281 322.140625 L 446.453125 333.390625 L 441.59375 333.210938 L 441.054688 333.660156 L 440.242188 343.289062 L 440.78125 343.828125 L 446.453125 343.648438 L 446.183594 357.960938 C 446.09375 360.210938 446.003906 362.460938 446.003906 364.800781 C 446.003906 373.078125 446.183594 381.988281 460.222656 381.988281 C 463.734375 381.988281 466.523438 381.449219 469.671875 380.910156 L 470.304688 380.28125 L 471.203125 371.011719 Z M 493.433594 380.371094 C 492.980469 373.441406 492.621094 368.128906 492.621094 355.710938 C 492.621094 348.058594 492.800781 340.320312 492.890625 332.671875 L 492.261719 331.949219 L 476.78125 334.648438 L 476.242188 335.191406 C 476.960938 342.03125 477.230469 345.179688 477.230469 357.960938 C 477.230469 367.769531 476.960938 373.261719 476.691406 380.640625 L 477.230469 381.269531 C 483.710938 381 485.511719 380.910156 492.800781 381 L 493.433594 380.371094 M 491.992188 323.308594 L 492.261719 311.070312 L 491.722656 310.53125 L 477.050781 312.328125 L 476.511719 312.960938 C 476.691406 316.199219 476.78125 318.089844 476.78125 320.25 C 476.78125 321.960938 476.78125 323.761719 476.691406 325.46875 L 477.320312 326.011719 C 483.441406 324.929688 485.152344 324.75 491.542969 323.941406 Z M 549.230469 357.058594 C 549.230469 353.550781 549.230469 338.96875 536.628906 334.019531 C 532.667969 332.488281 527.988281 332.308594 525.648438 332.308594 C 509.988281 332.308594 501.167969 340.679688 501.167969 357.238281 C 501.167969 363 502.070312 368.851562 505.398438 373.710938 C 507.738281 377.21875 512.148438 382.078125 525.019531 382.078125 C 544.097656 382.078125 549.230469 370.558594 549.230469 357.058594 M 533.660156 356.96875 C 533.660156 364.351562 532.667969 372.539062 525.199219 372.539062 C 522.859375 372.539062 521.238281 371.460938 520.160156 370.46875 C 518.628906 368.941406 516.917969 365.878906 516.917969 357.148438 C 516.917969 354.539062 516.917969 348.78125 518.71875 345.628906 C 520.070312 343.199219 522.410156 341.578125 525.289062 341.578125 C 527.808594 341.578125 529.878906 342.929688 531.050781 344.371094 C 533.210938 346.980469 533.660156 352.109375 533.660156 356.96875 Z M 601.882812 380.371094 C 601.433594 372.449219 601.433594 369.929688 601.253906 361.109375 L 601.253906 354.089844 C 601.164062 345.449219 601.074219 341.308594 598.824219 337.621094 C 596.03125 332.941406 590.902344 332.21875 587.664062 332.21875 C 582.171875 332.21875 577.402344 335.101562 573.261719 337.53125 L 573.441406 332.578125 L 572.542969 331.949219 C 565.613281 333.390625 564.082031 333.660156 557.332031 334.558594 L 556.792969 335.191406 C 557.511719 343.019531 558.054688 348.691406 558.054688 363.359375 C 558.054688 369.121094 557.960938 374.878906 557.871094 380.640625 L 558.414062 381.179688 C 564.894531 380.910156 566.242188 380.910156 573.441406 380.910156 L 573.984375 380.371094 C 573.441406 366.511719 573.351562 363 573.261719 346.890625 C 575.152344 345.628906 577.3125 344.101562 580.191406 344.101562 C 585.144531 344.101562 585.59375 349.410156 585.863281 352.648438 C 586.042969 355.621094 586.132812 367.949219 586.132812 371.371094 C 586.132812 374.429688 586.042969 377.578125 586.042969 380.640625 L 586.582031 381.179688 C 592.523438 381 594.054688 380.910156 601.253906 380.910156 Z M 674.78125 317.191406 C 666.140625 317.460938 664.339844 317.460938 654.710938 317.460938 L 654.078125 318 C 649.308594 333.300781 646.429688 342.390625 633.199219 380.371094 L 633.558594 381 L 647.597656 381 L 648.230469 380.460938 L 652.640625 364.078125 L 672.078125 364.078125 L 675.949219 380.730469 L 676.578125 381.269531 C 683.148438 381 684.949219 380.910156 692.238281 381 L 692.691406 380.28125 C 681.800781 341.761719 680.539062 337.53125 675.410156 317.730469 L 674.78125 317.191406 M 655.789062 353.191406 L 660.289062 337.980469 L 663.441406 327.449219 L 666.140625 339.148438 L 669.46875 353.191406 Z M 724.460938 347.609375 L 726.980469 332.941406 L 726.441406 332.308594 C 725.8125 332.308594 725.179688 332.21875 724.550781 332.21875 C 720.859375 332.21875 716.722656 334.289062 713.839844 340.949219 L 714.109375 332.671875 L 713.390625 331.949219 C 706.730469 333.390625 705.019531 333.660156 698.449219 334.648438 L 697.910156 335.191406 C 698.449219 341.941406 698.722656 345.988281 698.722656 358.5 C 698.722656 365.878906 698.628906 373.261719 698.449219 380.730469 L 698.992188 381.269531 C 705.652344 381 707.089844 380.910156 714.289062 381 L 714.742188 380.371094 C 714.378906 373.078125 713.839844 362.910156 713.839844 356.699219 C 713.839844 352.648438 713.839844 346.710938 719.960938 346.710938 C 721.492188 346.710938 722.390625 347.25 723.652344 347.96875 Z M 772.160156 367.679688 C 768.742188 369.480469 764.691406 371.550781 758.121094 371.550781 C 752.722656 371.550781 749.03125 369.839844 746.871094 366.601562 C 745.519531 364.710938 745.25 362.910156 744.890625 361.109375 L 773.960938 360.570312 L 774.5 359.941406 C 774.410156 355.53125 774.320312 351.03125 773.0625 346.53125 C 769.910156 335.910156 762.980469 333.75 759.921875 333.03125 C 757.671875 332.398438 755.601562 332.21875 753.53125 332.21875 C 739.402344 332.21875 730.039062 341.488281 730.039062 357.058594 C 730.039062 361.289062 730.761719 365.699219 732.199219 368.851562 C 737.421875 381 749.660156 382.078125 756.140625 382.078125 C 763.609375 382.078125 766.851562 380.730469 771.621094 378.839844 L 772.160156 378.121094 L 772.789062 367.949219 L 772.160156 367.679688 M 744.890625 351.570312 C 745.160156 348.78125 745.789062 345 749.210938 342.839844 C 750.289062 342.121094 751.550781 341.851562 752.8125 341.851562 C 755.78125 341.851562 757.582031 343.378906 758.570312 345 C 759.832031 346.980469 759.921875 349.140625 759.921875 351.210938 Z M 822.832031 354.179688 C 822.921875 346.078125 822.921875 342.570312 820.582031 338.789062 C 818.78125 335.910156 815.183594 332.308594 803.664062 332.308594 C 795.921875 332.308594 791.152344 333.75 786.023438 335.28125 L 785.484375 336 L 785.03125 345.808594 L 785.753906 346.171875 C 788.902344 344.910156 794.753906 342.570312 800.78125 342.570312 C 804.113281 342.570312 805.460938 343.109375 806.632812 344.28125 C 807.53125 345.179688 807.804688 346.800781 807.804688 348.148438 C 797.003906 349.589844 791.960938 350.578125 786.5625 353.910156 C 781.523438 357.058594 779.8125 362.191406 779.8125 366.238281 C 779.8125 375.871094 786.742188 382.078125 795.5625 382.078125 C 802.3125 382.078125 806.183594 378.839844 808.074219 377.308594 L 808.074219 380.640625 L 808.613281 381.269531 C 815.09375 381 817.074219 380.910156 822.921875 381 L 823.371094 380.371094 C 822.742188 371.550781 822.742188 369.300781 822.742188 360.839844 L 822.832031 354.179688 M 807.984375 368.488281 C 806.09375 369.570312 803.664062 370.828125 800.691406 370.828125 C 797.453125 370.828125 794.753906 369.121094 794.753906 365.339844 C 794.753906 359.398438 801.863281 358.410156 807.984375 357.601562 Z M 827.960938 381 "/>
</svg>
