<?xml version="1.0" encoding="UTF-8"?>
<svg xmlns="http://www.w3.org/2000/svg" xmlns:xlink="http://www.w3.org/1999/xlink" width="975" height="1300" viewBox="0 0 975 1300">
<path fill-rule="nonzero" fill="rgb(98.823529%, 78.823529%, 9.019608%)" fill-opacity="1" d="M 50 50 L 925 50 L 925 290 L 50 290 Z M 50 50 "/>
<path fill-rule="nonzero" fill="rgb(34.901961%, 14.901961%, 14.901961%)" fill-opacity="1" d="M 200.839844 124.890625 C 198.769531 126.511719 194.179688 129.929688 186.710938 129.929688 C 176.449219 129.929688 169.25 122.28125 169.25 109.5 C 169.25 101.761719 171.949219 88.171875 186.621094 88.171875 C 193.371094 88.171875 197.058594 90.78125 199.308594 92.488281 L 200.121094 92.308594 L 200.929688 79.890625 L 200.570312 79.441406 C 197.332031 78.179688 191.839844 76.109375 183.921875 76.109375 C 160.609375 76.109375 152.511719 94.109375 152.511719 109.859375 C 152.511719 127.140625 163.039062 142.351562 185 142.351562 C 192.558594 142.351562 197.511719 140.371094 200.390625 139.199219 L 200.839844 138.660156 L 201.46875 125.25 Z M 224.328125 140.371094 C 223.878906 130.019531 223.429688 120.570312 223.429688 92.128906 C 223.429688 83.578125 223.519531 79.53125 223.878906 69.808594 L 223.25 69.179688 L 207.859375 71.609375 L 207.5 72.148438 C 208.398438 83.128906 208.488281 86.101562 208.667969 100.679688 C 208.761719 105.988281 208.761719 111.300781 208.761719 116.609375 C 208.761719 126.328125 208.578125 131.730469 208.21875 140.640625 L 208.761719 141.269531 C 214.789062 141 217.21875 140.910156 223.789062 141 Z M 274.730469 127.679688 C 271.3125 129.480469 267.261719 131.550781 260.691406 131.550781 C 255.292969 131.550781 251.601562 129.839844 249.441406 126.601562 C 248.089844 124.710938 247.820312 122.910156 247.460938 121.109375 L 276.53125 120.570312 L 277.070312 119.941406 C 276.980469 115.53125 276.890625 111.03125 275.632812 106.53125 C 272.480469 95.910156 265.550781 93.75 262.492188 93.03125 C 260.242188 92.398438 258.171875 92.21875 256.101562 92.21875 C 241.972656 92.21875 232.609375 101.488281 232.609375 117.058594 C 232.609375 121.289062 233.332031 125.699219 234.769531 128.851562 C 239.992188 141 252.230469 142.078125 258.710938 142.078125 C 266.179688 142.078125 269.421875 140.730469 274.191406 138.839844 L 274.730469 138.121094 L 275.359375 127.949219 L 274.730469 127.679688 M 247.460938 111.570312 C 247.730469 108.78125 248.359375 105 251.78125 102.839844 C 252.859375 102.121094 254.121094 101.851562 255.382812 101.851562 C 258.351562 101.851562 260.152344 103.378906 261.140625 105 C 262.402344 106.980469 262.492188 109.140625 262.492188 111.210938 Z M 325.398438 114.179688 C 325.488281 106.078125 325.488281 102.570312 323.148438 98.789062 C 321.347656 95.910156 317.75 92.308594 306.230469 92.308594 C 298.488281 92.308594 293.71875 93.75 288.589844 95.28125 L 288.050781 96 L 287.597656 105.808594 L 288.320312 106.171875 C 291.46875 104.910156 297.320312 102.570312 303.347656 102.570312 C 306.679688 102.570312 308.027344 103.109375 309.199219 104.28125 C 310.097656 105.179688 310.371094 106.800781 310.371094 108.148438 C 299.570312 109.589844 294.527344 110.578125 289.128906 113.910156 C 284.089844 117.058594 282.378906 122.191406 282.378906 126.238281 C 282.378906 135.871094 289.308594 142.078125 298.128906 142.078125 C 304.878906 142.078125 308.75 138.839844 310.640625 137.308594 L 310.640625 140.640625 L 311.179688 141.269531 C 317.660156 141 319.640625 140.910156 325.488281 141 L 325.9375 140.371094 C 325.308594 131.550781 325.308594 129.300781 325.308594 120.839844 L 325.398438 114.179688 M 310.550781 128.488281 C 308.660156 129.570312 306.230469 130.828125 303.257812 130.828125 C 300.019531 130.828125 297.320312 129.121094 297.320312 125.339844 C 297.320312 119.398438 304.429688 118.410156 310.550781 117.601562 Z M 361.941406 107.609375 L 364.460938 92.941406 L 363.921875 92.308594 C 363.292969 92.308594 362.660156 92.21875 362.03125 92.21875 C 358.339844 92.21875 354.203125 94.289062 351.320312 100.949219 L 351.589844 92.671875 L 350.871094 91.949219 C 344.210938 93.390625 342.5 93.660156 335.929688 94.648438 L 335.390625 95.191406 C 335.929688 101.941406 336.203125 105.988281 336.203125 118.5 C 336.203125 125.878906 336.109375 133.261719 335.929688 140.730469 L 336.472656 141.269531 C 343.132812 141 344.570312 140.910156 351.769531 141 L 352.222656 140.371094 C 351.859375 133.078125 351.320312 122.910156 351.320312 116.699219 C 351.320312 112.648438 351.320312 106.710938 357.441406 106.710938 C 358.972656 106.710938 359.871094 107.25 361.132812 107.96875 Z M 434.660156 128.671875 C 424.847656 129.210938 417.019531 129.390625 414.320312 129.390625 L 412.519531 129.390625 C 412.339844 105.359375 412.429688 99.238281 413.148438 77.730469 L 412.609375 77.191406 C 404.867188 77.550781 402.796875 77.550781 396.589844 77.460938 L 396.046875 78 C 396.410156 85.199219 396.5 87.359375 396.5 98.070312 C 396.5 112.289062 396.410156 126.511719 396.410156 140.730469 L 396.859375 141.269531 C 414.5 141 417.738281 141 433.9375 141 L 434.386719 140.460938 L 435.109375 129.121094 Z M 482.898438 114.179688 C 482.988281 106.078125 482.988281 102.570312 480.648438 98.789062 C 478.847656 95.910156 475.25 92.308594 463.730469 92.308594 C 455.988281 92.308594 451.21875 93.75 446.089844 95.28125 L 445.550781 96 L 445.097656 105.808594 L 445.820312 106.171875 C 448.96875 104.910156 454.820312 102.570312 460.847656 102.570312 C 464.179688 102.570312 465.527344 103.109375 466.699219 104.28125 C 467.597656 105.179688 467.871094 106.800781 467.871094 108.148438 C 457.070312 109.589844 452.027344 110.578125 446.628906 113.910156 C 441.589844 117.058594 439.878906 122.191406 439.878906 126.238281 C 439.878906 135.871094 446.808594 142.078125 455.628906 142.078125 C 462.378906 142.078125 466.25 138.839844 468.140625 137.308594 L 468.140625 140.640625 L 468.679688 141.269531 C 475.160156 141 477.140625 140.910156 482.988281 141 L 483.4375 140.371094 C 482.808594 131.550781 482.808594 129.300781 482.808594 120.839844 L 482.898438 114.179688 M 468.050781 128.488281 C 466.160156 129.570312 463.730469 130.828125 460.757812 130.828125 C 457.519531 130.828125 454.820312 129.121094 454.820312 125.339844 C 454.820312 119.398438 461.929688 118.410156 468.050781 117.601562 Z M 539.691406 139.828125 C 531.230469 125.519531 530.332031 123.898438 523.492188 111.570312 C 529.703125 103.109375 530.332031 102.210938 536.722656 94.019531 L 536.269531 93.121094 L 521.601562 93.300781 L 520.703125 93.929688 C 513.679688 106.078125 512.78125 107.519531 508.640625 113.730469 L 508.640625 103.738281 C 508.730469 86.910156 508.820312 83.308594 509.269531 69.71875 L 508.550781 69.179688 L 492.890625 71.519531 L 492.351562 72.148438 C 492.980469 80.878906 493.25 85.109375 493.429688 96.898438 C 493.609375 111.480469 493.609375 126.058594 493.519531 140.640625 L 494.152344 141.269531 C 500.179688 141 501.890625 141 508.730469 141 L 509.269531 140.371094 L 508.730469 125.160156 L 508.640625 114.808594 C 516.472656 129.210938 517.460938 131.191406 522.050781 140.730469 L 522.859375 141.269531 L 539.0625 140.640625 Z M 583.96875 127.679688 C 580.550781 129.480469 576.5 131.550781 569.929688 131.550781 C 564.53125 131.550781 560.839844 129.839844 558.679688 126.601562 C 557.328125 124.710938 557.058594 122.910156 556.699219 121.109375 L 585.769531 120.570312 L 586.308594 119.941406 C 586.21875 115.53125 586.128906 111.03125 584.871094 106.53125 C 581.71875 95.910156 574.789062 93.75 571.730469 93.03125 C 569.480469 92.398438 567.410156 92.21875 565.339844 92.21875 C 551.210938 92.21875 541.847656 101.488281 541.847656 117.058594 C 541.847656 121.289062 542.570312 125.699219 544.007812 128.851562 C 549.230469 141 561.46875 142.078125 567.949219 142.078125 C 575.417969 142.078125 578.660156 140.730469 583.429688 138.839844 L 583.96875 138.121094 L 584.597656 127.949219 L 583.96875 127.679688 M 556.699219 111.570312 C 556.96875 108.78125 557.597656 105 561.019531 102.839844 C 562.097656 102.121094 563.359375 101.851562 564.621094 101.851562 C 567.589844 101.851562 569.390625 103.378906 570.378906 105 C 571.640625 106.980469 571.730469 109.140625 571.730469 111.210938 Z M 646.878906 102.300781 C 639.320312 99.148438 635.359375 97.53125 635.359375 93.480469 C 635.359375 90.691406 637.96875 87.179688 643.910156 87.179688 C 650.75 87.179688 654.796875 89.96875 658.128906 92.21875 L 658.9375 91.859375 L 659.660156 80.070312 L 659.207031 79.441406 C 655.339844 77.820312 651.289062 76.109375 642.558594 76.109375 C 625.640625 76.109375 619.789062 85.648438 619.789062 95.28125 C 619.789062 106.171875 628.25 110.128906 633.289062 112.558594 L 636.257812 113.910156 C 642.46875 116.519531 647.238281 118.769531 647.238281 123.539062 C 647.238281 126.960938 644.269531 131.011719 636.4375 131.011719 C 628.25 131.011719 623.660156 127.410156 621.046875 125.339844 L 620.148438 125.609375 L 619.519531 138.300781 L 620.058594 139.019531 C 621.046875 139.378906 622.039062 139.828125 623.027344 140.101562 C 625.097656 140.820312 630.410156 142.351562 637.160156 142.351562 C 639.859375 142.351562 646.699219 142.078125 652.097656 139.558594 C 659.660156 135.871094 662.898438 129.03125 662.898438 121.378906 C 662.898438 116.25 660.917969 110.761719 656.148438 107.070312 C 653.71875 105.269531 651.378906 104.191406 649.21875 103.199219 Z M 696.652344 130.648438 C 695.121094 131.101562 694.039062 131.460938 692.511719 131.460938 C 687.921875 131.460938 687.5625 128.578125 687.378906 127.230469 C 687.109375 124.890625 687.109375 119.941406 687.199219 116.339844 L 687.378906 103.648438 L 695.480469 104.011719 L 696.019531 103.46875 L 696.921875 93.839844 L 696.378906 93.300781 L 687.378906 93.300781 L 687.652344 78.179688 L 687.019531 77.640625 C 680.902344 79.441406 679.28125 79.890625 672.890625 81.511719 L 672.53125 82.140625 L 672.621094 93.390625 L 667.761719 93.210938 L 667.222656 93.660156 L 666.410156 103.289062 L 666.949219 103.828125 L 672.621094 103.648438 L 672.351562 117.960938 C 672.261719 120.210938 672.171875 122.460938 672.171875 124.800781 C 672.171875 133.078125 672.351562 141.988281 686.390625 141.988281 C 689.902344 141.988281 692.691406 141.449219 695.839844 140.910156 L 696.472656 140.28125 L 697.371094 131.011719 Z M 743.359375 114.179688 C 743.449219 106.078125 743.449219 102.570312 741.109375 98.789062 C 739.308594 95.910156 735.710938 92.308594 724.191406 92.308594 C 716.449219 92.308594 711.679688 93.75 706.550781 95.28125 L 706.011719 96 L 705.558594 105.808594 L 706.28125 106.171875 C 709.429688 104.910156 715.28125 102.570312 721.308594 102.570312 C 724.640625 102.570312 725.988281 103.109375 727.160156 104.28125 C 728.058594 105.179688 728.332031 106.800781 728.332031 108.148438 C 717.53125 109.589844 712.488281 110.578125 707.089844 113.910156 C 702.050781 117.058594 700.339844 122.191406 700.339844 126.238281 C 700.339844 135.871094 707.269531 142.078125 716.089844 142.078125 C 722.839844 142.078125 726.710938 138.839844 728.601562 137.308594 L 728.601562 140.640625 L 729.140625 141.269531 C 735.621094 141 737.601562 140.910156 743.449219 141 L 743.898438 140.371094 C 743.269531 131.550781 743.269531 129.300781 743.269531 120.839844 L 743.359375 114.179688 M 728.511719 128.488281 C 726.621094 129.570312 724.191406 130.828125 721.21875 130.828125 C 717.980469 130.828125 715.28125 129.121094 715.28125 125.339844 C 715.28125 119.398438 722.390625 118.410156 728.511719 117.601562 Z M 779.09375 130.648438 C 777.5625 131.101562 776.480469 131.460938 774.953125 131.460938 C 770.363281 131.460938 770.003906 128.578125 769.820312 127.230469 C 769.550781 124.890625 769.550781 119.941406 769.640625 116.339844 L 769.820312 103.648438 L 777.921875 104.011719 L 778.460938 103.46875 L 779.363281 93.839844 L 778.820312 93.300781 L 769.820312 93.300781 L 770.09375 78.179688 L 769.460938 77.640625 C 763.34375 79.441406 761.722656 79.890625 755.332031 81.511719 L 754.972656 82.140625 L 755.0625 93.390625 L 750.203125 93.210938 L 749.664062 93.660156 L 748.851562 103.289062 L 749.390625 103.828125 L 755.0625 103.648438 L 754.792969 117.960938 C 754.703125 120.210938 754.613281 122.460938 754.613281 124.800781 C 754.613281 133.078125 754.792969 141.988281 768.832031 141.988281 C 772.34375 141.988281 775.132812 141.449219 778.28125 140.910156 L 778.914062 140.28125 L 779.8125 131.011719 Z M 825.710938 127.679688 C 822.292969 129.480469 818.242188 131.550781 811.671875 131.550781 C 806.273438 131.550781 802.582031 129.839844 800.421875 126.601562 C 799.070312 124.710938 798.800781 122.910156 798.441406 121.109375 L 827.511719 120.570312 L 828.050781 119.941406 C 827.960938 115.53125 827.871094 111.03125 826.613281 106.53125 C 823.460938 95.910156 816.53125 93.75 813.472656 93.03125 C 811.222656 92.398438 809.152344 92.21875 807.082031 92.21875 C 792.953125 92.21875 783.589844 101.488281 783.589844 117.058594 C 783.589844 121.289062 784.3125 125.699219 785.75 128.851562 C 790.972656 141 803.210938 142.078125 809.691406 142.078125 C 817.160156 142.078125 820.402344 140.730469 825.171875 138.839844 L 825.710938 138.121094 L 826.339844 127.949219 L 825.710938 127.679688 M 798.441406 111.570312 C 798.710938 108.78125 799.339844 105 802.761719 102.839844 C 803.839844 102.121094 805.101562 101.851562 806.363281 101.851562 C 809.332031 101.851562 811.132812 103.378906 812.121094 105 C 813.382812 106.980469 813.472656 109.140625 813.472656 111.210938 Z M 830.929688 141 "/>
<path fill-rule="nonzero" fill="rgb(34.901961%, 14.901961%, 14.901961%)" fill-opacity="1" d="M 411.53125 197.28125 L 400.101562 197.460938 L 399.558594 198 C 399.921875 209.699219 400.191406 217.53125 400.191406 227.878906 C 400.191406 238.859375 399.921875 249.75 399.648438 260.730469 L 400.191406 261.269531 C 406.851562 261 408.289062 260.910156 415.492188 261 L 415.941406 260.460938 C 415.582031 250.648438 415.582031 248.398438 415.582031 239.21875 C 425.660156 239.308594 436.460938 239.308594 442.941406 231.390625 C 445.460938 228.328125 447.621094 223.199219 447.621094 216.898438 C 447.621094 213.03125 446.71875 204.480469 439.25 200.25 C 433.851562 197.101562 426.199219 197.101562 419.449219 197.101562 L 411.53125 197.28125 M 415.582031 208.171875 C 417.558594 208.078125 419.449219 208.078125 421.429688 208.078125 C 429.351562 208.261719 431.511719 212.308594 431.511719 217.53125 C 431.511719 218.789062 431.511719 224.011719 426.742188 226.621094 C 424.308594 227.96875 420.980469 228.148438 415.582031 228.148438 Z M 493.878906 234.179688 C 493.96875 226.078125 493.96875 222.570312 491.628906 218.789062 C 489.828125 215.910156 486.230469 212.308594 474.710938 212.308594 C 466.96875 212.308594 462.199219 213.75 457.070312 215.28125 L 456.53125 216 L 456.078125 225.808594 L 456.800781 226.171875 C 459.949219 224.910156 465.800781 222.570312 471.828125 222.570312 C 475.160156 222.570312 476.507812 223.109375 477.679688 224.28125 C 478.578125 225.179688 478.851562 226.800781 478.851562 228.148438 C 468.050781 229.589844 463.007812 230.578125 457.609375 233.910156 C 452.570312 237.058594 450.859375 242.191406 450.859375 246.238281 C 450.859375 255.871094 457.789062 262.078125 466.609375 262.078125 C 473.359375 262.078125 477.230469 258.839844 479.121094 257.308594 L 479.121094 260.640625 L 479.660156 261.269531 C 486.140625 261 488.121094 260.910156 493.96875 261 L 494.417969 260.371094 C 493.789062 251.550781 493.789062 249.300781 493.789062 240.839844 L 493.878906 234.179688 M 479.03125 248.488281 C 477.140625 249.570312 474.710938 250.828125 471.738281 250.828125 C 468.5 250.828125 465.800781 249.121094 465.800781 245.339844 C 465.800781 239.398438 472.910156 238.410156 479.03125 237.601562 Z M 530.421875 227.609375 L 532.941406 212.941406 L 532.402344 212.308594 C 531.773438 212.308594 531.140625 212.21875 530.511719 212.21875 C 526.820312 212.21875 522.683594 214.289062 519.800781 220.949219 L 520.070312 212.671875 L 519.351562 211.949219 C 512.691406 213.390625 510.980469 213.660156 504.410156 214.648438 L 503.871094 215.191406 C 504.410156 221.941406 504.683594 225.988281 504.683594 238.5 C 504.683594 245.878906 504.589844 253.261719 504.410156 260.730469 L 504.953125 261.269531 C 511.613281 261 513.050781 260.910156 520.25 261 L 520.703125 260.371094 C 520.339844 253.078125 519.800781 242.910156 519.800781 236.699219 C 519.800781 232.648438 519.800781 226.710938 525.921875 226.710938 C 527.453125 226.710938 528.351562 227.25 529.613281 227.96875 Z M 584.421875 259.828125 C 575.960938 245.519531 575.0625 243.898438 568.222656 231.570312 C 574.433594 223.109375 575.0625 222.210938 581.453125 214.019531 L 581 213.121094 L 566.332031 213.300781 L 565.433594 213.929688 C 558.410156 226.078125 557.511719 227.519531 553.371094 233.730469 L 553.371094 223.738281 C 553.460938 206.910156 553.550781 203.308594 554 189.71875 L 553.28125 189.179688 L 537.621094 191.519531 L 537.082031 192.148438 C 537.710938 200.878906 537.980469 205.109375 538.160156 216.898438 C 538.339844 231.480469 538.339844 246.058594 538.25 260.640625 L 538.882812 261.269531 C 544.910156 261 546.621094 261 553.460938 261 L 554 260.371094 L 553.460938 245.160156 L 553.371094 234.808594 C 561.203125 249.210938 562.191406 251.191406 566.78125 260.730469 L 567.589844 261.269531 L 583.792969 260.640625 Z M 583.339844 261 "/>
</svg>
