<?xml version="1.0" encoding="UTF-8"?>
<svg xmlns="http://www.w3.org/2000/svg" xmlns:xlink="http://www.w3.org/1999/xlink" width="975" height="1300" viewBox="0 0 975 1300">
<path fill-rule="nonzero" fill="rgb(98.823529%, 78.823529%, 9.019608%)" fill-opacity="1" d="M 50 50 L 925 50 L 925 290 L 50 290 Z M 50 50 "/>
<path fill-rule="nonzero" fill="rgb(34.901961%, 14.901961%, 14.901961%)" fill-opacity="1" d="M 158.539062 77.28125 L 147.109375 77.460938 L 146.566406 78 C 146.929688 89.699219 147.199219 97.53125 147.199219 107.878906 C 147.199219 118.859375 146.929688 129.75 146.65625 140.730469 L 147.199219 141.269531 C 153.859375 141 155.296875 140.910156 162.5 141 L 162.949219 140.460938 C 162.589844 130.648438 162.589844 128.398438 162.589844 119.21875 C 172.667969 119.308594 183.46875 119.308594 189.949219 111.390625 C 192.46875 108.328125 194.628906 103.199219 194.628906 96.898438 C 194.628906 93.03125 193.726562 84.480469 186.257812 80.25 C 180.859375 77.101562 173.207031 77.101562 166.457031 77.101562 L 158.539062 77.28125 M 162.589844 88.171875 C 164.566406 88.078125 166.457031 88.078125 168.4375 88.078125 C 176.359375 88.261719 178.519531 92.308594 178.519531 97.53125 C 178.519531 98.789062 178.519531 104.011719 173.75 106.621094 C 171.316406 107.96875 167.988281 108.148438 162.589844 108.148438 Z M 240.796875 127.679688 C 237.378906 129.480469 233.328125 131.550781 226.757812 131.550781 C 221.359375 131.550781 217.667969 129.839844 215.507812 126.601562 C 214.15625 124.710938 213.886719 122.910156 213.527344 121.109375 L 242.597656 120.570312 L 243.136719 119.941406 C 243.046875 115.53125 242.957031 111.03125 241.699219 106.53125 C 238.546875 95.910156 231.617188 93.75 228.558594 93.03125 C 226.308594 92.398438 224.238281 92.21875 222.167969 92.21875 C 208.039062 92.21875 198.675781 101.488281 198.675781 117.058594 C 198.675781 121.289062 199.398438 125.699219 200.835938 128.851562 C 206.058594 141 218.296875 142.078125 224.777344 142.078125 C 232.246094 142.078125 235.488281 140.730469 240.257812 138.839844 L 240.796875 138.121094 L 241.425781 127.949219 L 240.796875 127.679688 M 213.527344 111.570312 C 213.796875 108.78125 214.425781 105 217.847656 102.839844 C 218.925781 102.121094 220.1875 101.851562 221.449219 101.851562 C 224.417969 101.851562 226.21875 103.378906 227.207031 105 C 228.46875 106.980469 228.558594 109.140625 228.558594 111.210938 Z M 276.621094 130.648438 C 275.089844 131.101562 274.007812 131.460938 272.480469 131.460938 C 267.890625 131.460938 267.53125 128.578125 267.347656 127.230469 C 267.078125 124.890625 267.078125 119.941406 267.167969 116.339844 L 267.347656 103.648438 L 275.449219 104.011719 L 275.988281 103.46875 L 276.890625 93.839844 L 276.347656 93.300781 L 267.347656 93.300781 L 267.621094 78.179688 L 266.988281 77.640625 C 260.871094 79.441406 259.25 79.890625 252.859375 81.511719 L 252.5 82.140625 L 252.589844 93.390625 L 247.730469 93.210938 L 247.191406 93.660156 L 246.378906 103.289062 L 246.917969 103.828125 L 252.589844 103.648438 L 252.320312 117.960938 C 252.230469 120.210938 252.140625 122.460938 252.140625 124.800781 C 252.140625 133.078125 252.320312 141.988281 266.359375 141.988281 C 269.871094 141.988281 272.660156 141.449219 275.808594 140.910156 L 276.441406 140.28125 L 277.339844 131.011719 Z M 323.328125 114.179688 C 323.417969 106.078125 323.417969 102.570312 321.078125 98.789062 C 319.277344 95.910156 315.679688 92.308594 304.160156 92.308594 C 296.417969 92.308594 291.648438 93.75 286.519531 95.28125 L 285.980469 96 L 285.527344 105.808594 L 286.25 106.171875 C 289.398438 104.910156 295.25 102.570312 301.277344 102.570312 C 304.609375 102.570312 305.957031 103.109375 307.128906 104.28125 C 308.027344 105.179688 308.300781 106.800781 308.300781 108.148438 C 297.5 109.589844 292.457031 110.578125 287.058594 113.910156 C 282.019531 117.058594 280.308594 122.191406 280.308594 126.238281 C 280.308594 135.871094 287.238281 142.078125 296.058594 142.078125 C 302.808594 142.078125 306.679688 138.839844 308.570312 137.308594 L 308.570312 140.640625 L 309.109375 141.269531 C 315.589844 141 317.570312 140.910156 323.417969 141 L 323.867188 140.371094 C 323.238281 131.550781 323.238281 129.300781 323.238281 120.839844 L 323.328125 114.179688 M 308.480469 128.488281 C 306.589844 129.570312 304.160156 130.828125 301.1875 130.828125 C 297.949219 130.828125 295.25 129.121094 295.25 125.339844 C 295.25 119.398438 302.359375 118.410156 308.480469 117.601562 Z M 349.695312 140.371094 C 349.246094 130.019531 348.796875 120.570312 348.796875 92.128906 C 348.796875 83.578125 348.886719 79.53125 349.246094 69.808594 L 348.617188 69.179688 L 333.226562 71.609375 L 332.867188 72.148438 C 333.765625 83.128906 333.855469 86.101562 334.035156 100.679688 C 334.128906 105.988281 334.128906 111.300781 334.128906 116.609375 C 334.128906 126.328125 333.945312 131.730469 333.585938 140.640625 L 334.128906 141.269531 C 340.15625 141 342.585938 140.910156 349.15625 141 Z M 403.339844 92.851562 L 388.667969 93.570312 L 388.039062 94.109375 C 388.667969 104.28125 388.667969 118.679688 388.667969 120.121094 C 388.667969 122.730469 388.667969 124.171875 388.578125 127.769531 C 386.148438 129.390625 384.257812 130.738281 381.828125 130.738281 C 375.347656 130.738281 375.347656 123.898438 375.347656 118.589844 C 375.347656 116.339844 375.347656 114 375.4375 111.75 L 375.617188 93.570312 L 374.988281 92.851562 L 360.136719 93.570312 L 359.507812 94.109375 C 360.046875 101.671875 360.136719 104.191406 360.136719 113.28125 L 360.136719 119.578125 C 360.046875 129.390625 360.5 133.53125 363.738281 137.308594 C 366.707031 140.640625 371.027344 142.078125 375.527344 142.078125 C 381.917969 142.078125 385.609375 139.199219 388.847656 136.679688 L 388.757812 140.730469 L 389.386719 141.269531 C 395.957031 141 397.9375 141 403.789062 141 L 404.328125 140.460938 C 403.878906 134.070312 403.699219 130.648438 403.699219 118.949219 C 403.699219 110.488281 403.789062 102.03125 403.96875 93.570312 Z M 484.789062 140.371094 C 484.335938 132 484.246094 129.660156 484.246094 119.488281 L 484.246094 112.738281 C 484.335938 106.710938 484.425781 101.128906 481.816406 97.351562 C 478.308594 92.21875 472.097656 92.21875 470.65625 92.21875 C 463.277344 92.21875 458.328125 95.550781 454.726562 98.070312 C 453.46875 96 451.21875 92.21875 444.019531 92.21875 C 438.078125 92.21875 434.207031 94.921875 430.066406 97.800781 L 430.066406 92.761719 L 429.257812 91.949219 C 422.238281 93.300781 420.257812 93.660156 413.957031 94.558594 L 413.417969 95.191406 C 414.136719 102.390625 414.675781 107.339844 414.675781 125.160156 C 414.675781 130.289062 414.585938 135.511719 414.585938 140.640625 L 415.039062 141.179688 C 420.796875 141 422.777344 140.910156 430.246094 140.910156 L 430.789062 140.371094 C 430.15625 126.511719 430.066406 122.371094 429.976562 106.710938 C 431.867188 105.359375 433.9375 104.191406 436.1875 104.191406 C 441.769531 104.191406 441.949219 110.578125 441.949219 118.320312 C 441.949219 131.371094 441.859375 133.351562 441.675781 140.640625 L 442.21875 141.269531 C 449.058594 140.910156 450.949219 140.910156 457.15625 140.910156 L 457.699219 140.371094 C 457.15625 131.820312 457.066406 129.300781 456.976562 118.410156 L 456.976562 115.078125 L 456.886719 105.988281 C 458.417969 105 460.398438 103.738281 463.097656 103.738281 C 468.226562 103.738281 469.039062 108.601562 469.039062 116.339844 C 469.039062 118.050781 468.949219 119.761719 468.949219 121.46875 C 468.859375 124.53125 468.769531 137.941406 468.675781 140.640625 L 469.21875 141.179688 C 475.96875 140.910156 477.949219 140.910156 484.246094 140.910156 Z M 535.1875 114.179688 C 535.277344 106.078125 535.277344 102.570312 532.9375 98.789062 C 531.136719 95.910156 527.539062 92.308594 516.019531 92.308594 C 508.277344 92.308594 503.507812 93.75 498.378906 95.28125 L 497.839844 96 L 497.386719 105.808594 L 498.109375 106.171875 C 501.257812 104.910156 507.109375 102.570312 513.136719 102.570312 C 516.46875 102.570312 517.816406 103.109375 518.988281 104.28125 C 519.886719 105.179688 520.160156 106.800781 520.160156 108.148438 C 509.359375 109.589844 504.316406 110.578125 498.917969 113.910156 C 493.878906 117.058594 492.167969 122.191406 492.167969 126.238281 C 492.167969 135.871094 499.097656 142.078125 507.917969 142.078125 C 514.667969 142.078125 518.539062 138.839844 520.429688 137.308594 L 520.429688 140.640625 L 520.96875 141.269531 C 527.449219 141 529.429688 140.910156 535.277344 141 L 535.726562 140.371094 C 535.097656 131.550781 535.097656 129.300781 535.097656 120.839844 L 535.1875 114.179688 M 520.339844 128.488281 C 518.449219 129.570312 516.019531 130.828125 513.046875 130.828125 C 509.808594 130.828125 507.109375 129.121094 507.109375 125.339844 C 507.109375 119.398438 514.21875 118.410156 520.339844 117.601562 Z M 608.359375 77.191406 C 599.71875 77.460938 597.917969 77.460938 588.289062 77.460938 L 587.65625 78 C 582.886719 93.300781 580.007812 102.390625 566.777344 140.371094 L 567.136719 141 L 581.175781 141 L 581.808594 140.460938 L 586.21875 124.078125 L 605.65625 124.078125 L 609.527344 140.730469 L 610.15625 141.269531 C 616.726562 141 618.527344 140.910156 625.816406 141 L 626.269531 140.28125 C 615.378906 101.761719 614.117188 97.53125 608.988281 77.730469 L 608.359375 77.191406 M 589.367188 113.191406 L 593.867188 97.980469 L 597.019531 87.449219 L 599.71875 99.148438 L 603.046875 113.191406 Z M 676.128906 140.460938 C 675.769531 132.359375 675.5 126.960938 675.5 115.171875 C 675.5 91.410156 675.859375 81.601562 676.21875 69.71875 L 675.589844 69.179688 L 660.738281 71.519531 L 660.289062 72.058594 C 660.828125 80.519531 660.917969 82.769531 660.828125 93.03125 C 654.078125 92.851562 645.617188 92.671875 638.777344 98.070312 C 632.480469 102.929688 629.867188 110.398438 629.867188 119.671875 C 629.867188 126.691406 631.757812 133.710938 637.070312 138.121094 C 641.027344 141.359375 645.890625 142.078125 648.859375 142.078125 C 655.25 142.078125 658.578125 139.109375 660.738281 137.21875 L 660.558594 140.730469 L 661.007812 141.269531 C 667.21875 141 668.929688 141 675.679688 141 L 676.128906 140.460938 M 660.828125 103.828125 C 660.917969 115.800781 660.828125 118.140625 660.558594 129.03125 C 658.757812 130.109375 656.957031 131.191406 654.4375 131.191406 C 645.707031 131.191406 645.707031 120.03125 645.707031 118.230469 C 645.707031 111.300781 647.6875 103.558594 657.769531 103.558594 C 658.757812 103.558594 659.570312 103.648438 660.828125 103.828125 Z M 732.199219 117.058594 C 732.199219 113.550781 732.199219 98.96875 719.597656 94.019531 C 715.636719 92.488281 710.957031 92.308594 708.617188 92.308594 C 692.957031 92.308594 684.136719 100.679688 684.136719 117.238281 C 684.136719 123 685.039062 128.851562 688.367188 133.710938 C 690.707031 137.21875 695.117188 142.078125 707.988281 142.078125 C 727.066406 142.078125 732.199219 130.558594 732.199219 117.058594 M 716.628906 116.96875 C 716.628906 124.351562 715.636719 132.539062 708.167969 132.539062 C 705.828125 132.539062 704.207031 131.460938 703.128906 130.46875 C 701.597656 128.941406 699.886719 125.878906 699.886719 117.148438 C 699.886719 114.539062 699.886719 108.78125 701.6875 105.628906 C 703.039062 103.199219 705.378906 101.578125 708.257812 101.578125 C 710.777344 101.578125 712.847656 102.929688 714.019531 104.371094 C 716.179688 106.980469 716.628906 112.109375 716.628906 116.96875 Z M 747.226562 141.179688 L 749.027344 141.179688 C 763.425781 141.179688 772.699219 140.460938 779.539062 133.171875 C 785.925781 126.328125 786.558594 118.230469 786.558594 114.449219 C 786.558594 101.941406 779.359375 92.21875 767.117188 92.21875 C 761.175781 92.21875 758.027344 94.199219 755.507812 95.820312 L 756.046875 69.71875 L 755.328125 69.179688 L 740.386719 71.519531 L 739.847656 72.148438 C 740.566406 79.710938 740.835938 82.769531 740.835938 100.859375 C 740.835938 108.601562 740.746094 123.898438 740.65625 140.640625 L 741.289062 141.269531 L 747.226562 141.179688 M 755.867188 104.730469 C 757.667969 103.828125 759.378906 102.929688 761.71875 102.929688 C 767.65625 102.929688 771.078125 108.238281 771.078125 116.519531 C 771.078125 123 768.199219 127.230469 765.769531 128.941406 C 762.796875 131.011719 758.925781 131.101562 755.867188 131.191406 Z M 835.066406 127.679688 C 831.648438 129.480469 827.597656 131.550781 821.027344 131.550781 C 815.628906 131.550781 811.9375 129.839844 809.777344 126.601562 C 808.425781 124.710938 808.15625 122.910156 807.796875 121.109375 L 836.867188 120.570312 L 837.40625 119.941406 C 837.316406 115.53125 837.226562 111.03125 835.96875 106.53125 C 832.816406 95.910156 825.886719 93.75 822.828125 93.03125 C 820.578125 92.398438 818.507812 92.21875 816.4375 92.21875 C 802.308594 92.21875 792.945312 101.488281 792.945312 117.058594 C 792.945312 121.289062 793.667969 125.699219 795.105469 128.851562 C 800.328125 141 812.566406 142.078125 819.046875 142.078125 C 826.515625 142.078125 829.757812 140.730469 834.527344 138.839844 L 835.066406 138.121094 L 835.695312 127.949219 L 835.066406 127.679688 M 807.796875 111.570312 C 808.066406 108.78125 808.695312 105 812.117188 102.839844 C 813.195312 102.121094 814.457031 101.851562 815.71875 101.851562 C 818.6875 101.851562 820.488281 103.378906 821.476562 105 C 822.738281 106.980469 822.828125 109.140625 822.828125 111.210938 Z M 840.289062 141 "/>
<path fill-rule="nonzero" fill="rgb(34.901961%, 14.901961%, 14.901961%)" fill-opacity="1" d="M 128.570312 222.300781 C 121.011719 219.148438 117.050781 217.53125 117.050781 213.480469 C 117.050781 210.691406 119.660156 207.179688 125.601562 207.179688 C 132.441406 207.179688 136.488281 209.96875 139.820312 212.21875 L 140.628906 211.859375 L 141.351562 200.070312 L 140.898438 199.441406 C 137.03125 197.820312 132.980469 196.109375 124.25 196.109375 C 107.332031 196.109375 101.480469 205.648438 101.480469 215.28125 C 101.480469 226.171875 109.941406 230.128906 114.980469 232.558594 L 117.949219 233.910156 C 124.160156 236.519531 128.929688 238.769531 128.929688 243.539062 C 128.929688 246.960938 125.960938 251.011719 118.128906 251.011719 C 109.941406 251.011719 105.351562 247.410156 102.738281 245.339844 L 101.839844 245.609375 L 101.210938 258.300781 L 101.75 259.019531 C 102.738281 259.378906 103.730469 259.828125 104.71875 260.101562 C 106.789062 260.820312 112.101562 262.351562 118.851562 262.351562 C 121.550781 262.351562 128.390625 262.078125 133.789062 259.558594 C 141.351562 255.871094 144.589844 249.03125 144.589844 241.378906 C 144.589844 236.25 142.609375 230.761719 137.839844 227.070312 C 135.410156 225.269531 133.070312 224.191406 130.910156 223.199219 Z M 178.339844 250.648438 C 176.808594 251.101562 175.726562 251.460938 174.199219 251.460938 C 169.609375 251.460938 169.25 248.578125 169.066406 247.230469 C 168.796875 244.890625 168.796875 239.941406 168.886719 236.339844 L 169.066406 223.648438 L 177.167969 224.011719 L 177.707031 223.46875 L 178.609375 213.839844 L 178.066406 213.300781 L 169.066406 213.300781 L 169.339844 198.179688 L 168.707031 197.640625 C 162.589844 199.441406 160.96875 199.890625 154.578125 201.511719 L 154.21875 202.140625 L 154.308594 213.390625 L 149.449219 213.210938 L 148.910156 213.660156 L 148.097656 223.289062 L 148.636719 223.828125 L 154.308594 223.648438 L 154.039062 237.960938 C 153.949219 240.210938 153.859375 242.460938 153.859375 244.800781 C 153.859375 253.078125 154.039062 261.988281 168.078125 261.988281 C 171.589844 261.988281 174.378906 261.449219 177.527344 260.910156 L 178.160156 260.28125 L 179.058594 251.011719 Z M 225.050781 234.179688 C 225.140625 226.078125 225.140625 222.570312 222.800781 218.789062 C 221 215.910156 217.402344 212.308594 205.882812 212.308594 C 198.140625 212.308594 193.371094 213.75 188.242188 215.28125 L 187.703125 216 L 187.25 225.808594 L 187.972656 226.171875 C 191.121094 224.910156 196.972656 222.570312 203 222.570312 C 206.332031 222.570312 207.679688 223.109375 208.851562 224.28125 C 209.75 225.179688 210.023438 226.800781 210.023438 228.148438 C 199.222656 229.589844 194.179688 230.578125 188.78125 233.910156 C 183.742188 237.058594 182.03125 242.191406 182.03125 246.238281 C 182.03125 255.871094 188.960938 262.078125 197.78125 262.078125 C 204.53125 262.078125 208.402344 258.839844 210.292969 257.308594 L 210.292969 260.640625 L 210.832031 261.269531 C 217.3125 261 219.292969 260.910156 225.140625 261 L 225.589844 260.371094 C 224.960938 251.550781 224.960938 249.300781 224.960938 240.839844 L 225.050781 234.179688 M 210.203125 248.488281 C 208.3125 249.570312 205.882812 250.828125 202.910156 250.828125 C 199.671875 250.828125 196.972656 249.121094 196.972656 245.339844 C 196.972656 239.398438 204.082031 238.410156 210.203125 237.601562 Z M 260.78125 250.648438 C 259.25 251.101562 258.167969 251.460938 256.640625 251.460938 C 252.050781 251.460938 251.691406 248.578125 251.507812 247.230469 C 251.238281 244.890625 251.238281 239.941406 251.328125 236.339844 L 251.507812 223.648438 L 259.609375 224.011719 L 260.148438 223.46875 L 261.050781 213.839844 L 260.507812 213.300781 L 251.507812 213.300781 L 251.78125 198.179688 L 251.148438 197.640625 C 245.03125 199.441406 243.410156 199.890625 237.019531 201.511719 L 236.660156 202.140625 L 236.75 213.390625 L 231.890625 213.210938 L 231.351562 213.660156 L 230.539062 223.289062 L 231.078125 223.828125 L 236.75 223.648438 L 236.480469 237.960938 C 236.390625 240.210938 236.300781 242.460938 236.300781 244.800781 C 236.300781 253.078125 236.480469 261.988281 250.519531 261.988281 C 254.03125 261.988281 256.820312 261.449219 259.96875 260.910156 L 260.601562 260.28125 L 261.5 251.011719 Z M 307.398438 247.679688 C 303.980469 249.480469 299.929688 251.550781 293.359375 251.550781 C 287.960938 251.550781 284.269531 249.839844 282.109375 246.601562 C 280.757812 244.710938 280.488281 242.910156 280.128906 241.109375 L 309.199219 240.570312 L 309.738281 239.941406 C 309.648438 235.53125 309.558594 231.03125 308.300781 226.53125 C 305.148438 215.910156 298.21875 213.75 295.160156 213.03125 C 292.910156 212.398438 290.839844 212.21875 288.769531 212.21875 C 274.640625 212.21875 265.277344 221.488281 265.277344 237.058594 C 265.277344 241.289062 266 245.699219 267.4375 248.851562 C 272.660156 261 284.898438 262.078125 291.378906 262.078125 C 298.847656 262.078125 302.089844 260.730469 306.859375 258.839844 L 307.398438 258.121094 L 308.027344 247.949219 L 307.398438 247.679688 M 280.128906 231.570312 C 280.398438 228.78125 281.027344 225 284.449219 222.839844 C 285.527344 222.121094 286.789062 221.851562 288.050781 221.851562 C 291.019531 221.851562 292.820312 223.378906 293.808594 225 C 295.070312 226.980469 295.160156 229.140625 295.160156 231.210938 Z M 398.207031 197.191406 C 391.007812 197.460938 389.839844 197.460938 382.277344 197.460938 L 381.828125 198 C 382.457031 208.171875 382.457031 210.78125 382.546875 221.398438 C 378.589844 221.488281 374.628906 221.578125 370.578125 221.578125 C 367.429688 221.578125 364.1875 221.488281 361.039062 221.488281 L 361.21875 197.730469 L 360.769531 197.191406 C 353.839844 197.460938 352.488281 197.460938 344.660156 197.460938 L 344.117188 198 C 344.570312 207.269531 345.109375 218.339844 345.109375 240.660156 C 345.109375 248.761719 344.929688 253.171875 344.75 260.730469 L 345.199219 261.269531 C 351.769531 261 353.386719 260.910156 361.308594 261 L 361.757812 260.460938 C 361.21875 249.300781 361.128906 246.058594 361.039062 233.011719 C 365 232.828125 368.328125 232.738281 371.839844 232.738281 C 375.4375 232.738281 379.039062 232.828125 382.636719 232.921875 C 382.820312 245.070312 382.820312 248.039062 382.367188 260.730469 L 382.820312 261.269531 C 389.570312 261 391.367188 260.910156 399.019531 261 L 399.46875 260.460938 C 398.75 245.339844 398.476562 230.308594 398.476562 215.191406 C 398.476562 208.890625 398.570312 204.660156 398.660156 197.730469 Z M 426.203125 260.371094 C 425.75 253.441406 425.390625 248.128906 425.390625 235.710938 C 425.390625 228.058594 425.570312 220.320312 425.660156 212.671875 L 425.03125 211.949219 L 409.550781 214.648438 L 409.011719 215.191406 C 409.730469 222.03125 410 225.179688 410 237.960938 C 410 247.769531 409.730469 253.261719 409.460938 260.640625 L 410 261.269531 C 416.480469 261 418.28125 260.910156 425.570312 261 L 426.203125 260.371094 M 424.761719 203.308594 L 425.03125 191.070312 L 424.492188 190.53125 L 409.820312 192.328125 L 409.28125 192.960938 C 409.460938 196.199219 409.550781 198.089844 409.550781 200.25 C 409.550781 201.960938 409.550781 203.761719 409.460938 205.46875 L 410.089844 206.011719 C 416.210938 204.929688 417.921875 204.75 424.3125 203.941406 Z M 455.089844 229.949219 C 452.027344 228.871094 449.597656 227.878906 449.597656 225.359375 C 449.597656 224.28125 450.320312 221.308594 455.898438 221.308594 C 461.390625 221.308594 464.898438 223.648438 467.148438 225.089844 L 467.960938 224.820312 L 468.859375 215.011719 L 468.410156 214.46875 C 464.179688 213.300781 460.488281 212.21875 454.640625 212.21875 C 450.230469 212.21875 441.410156 212.578125 436.730469 219.328125 C 435.558594 220.949219 434.300781 223.648438 434.300781 227.25 C 434.300781 236.878906 441.769531 239.761719 446 241.378906 L 449.417969 242.640625 C 451.847656 243.449219 455.808594 244.800781 455.808594 248.039062 C 455.808594 250.289062 453.738281 252.71875 448.699219 252.71875 C 446.179688 252.71875 442.488281 251.910156 439.160156 250.199219 C 437.628906 249.390625 436.910156 248.761719 435.558594 247.679688 L 434.75 248.039062 C 434.570312 252.71875 434.480469 253.710938 434.117188 258.210938 L 434.570312 259.019531 C 438.980469 260.640625 442.757812 262.078125 449.328125 262.078125 C 456.167969 262.078125 469.667969 260.820312 471.289062 247.949219 C 471.378906 247.230469 471.378906 246.601562 471.378906 245.96875 C 471.378906 236.070312 464.449219 233.460938 459.5 231.570312 Z M 504.5 250.648438 C 502.96875 251.101562 501.886719 251.460938 500.359375 251.460938 C 495.769531 251.460938 495.410156 248.578125 495.226562 247.230469 C 494.957031 244.890625 494.957031 239.941406 495.046875 236.339844 L 495.226562 223.648438 L 503.328125 224.011719 L 503.867188 223.46875 L 504.769531 213.839844 L 504.226562 213.300781 L 495.226562 213.300781 L 495.5 198.179688 L 494.867188 197.640625 C 488.75 199.441406 487.128906 199.890625 480.738281 201.511719 L 480.378906 202.140625 L 480.46875 213.390625 L 475.609375 213.210938 L 475.070312 213.660156 L 474.257812 223.289062 L 474.796875 223.828125 L 480.46875 223.648438 L 480.199219 237.960938 C 480.109375 240.210938 480.019531 242.460938 480.019531 244.800781 C 480.019531 253.078125 480.199219 261.988281 494.238281 261.988281 C 497.75 261.988281 500.539062 261.449219 503.6875 260.910156 L 504.320312 260.28125 L 505.21875 251.011719 Z M 556.972656 237.058594 C 556.972656 233.550781 556.972656 218.96875 544.371094 214.019531 C 540.410156 212.488281 535.730469 212.308594 533.390625 212.308594 C 517.730469 212.308594 508.910156 220.679688 508.910156 237.238281 C 508.910156 243 509.8125 248.851562 513.140625 253.710938 C 515.480469 257.21875 519.890625 262.078125 532.761719 262.078125 C 551.839844 262.078125 556.972656 250.558594 556.972656 237.058594 M 541.402344 236.96875 C 541.402344 244.351562 540.410156 252.539062 532.941406 252.539062 C 530.601562 252.539062 528.980469 251.460938 527.902344 250.46875 C 526.371094 248.941406 524.660156 245.878906 524.660156 237.148438 C 524.660156 234.539062 524.660156 228.78125 526.460938 225.628906 C 527.8125 223.199219 530.152344 221.578125 533.03125 221.578125 C 535.550781 221.578125 537.621094 222.929688 538.792969 224.371094 C 540.953125 226.980469 541.402344 232.109375 541.402344 236.96875 Z M 591.53125 227.609375 L 594.050781 212.941406 L 593.511719 212.308594 C 592.882812 212.308594 592.25 212.21875 591.621094 212.21875 C 587.929688 212.21875 583.792969 214.289062 580.910156 220.949219 L 581.179688 212.671875 L 580.460938 211.949219 C 573.800781 213.390625 572.089844 213.660156 565.519531 214.648438 L 564.980469 215.191406 C 565.519531 221.941406 565.792969 225.988281 565.792969 238.5 C 565.792969 245.878906 565.699219 253.261719 565.519531 260.730469 L 566.0625 261.269531 C 572.722656 261 574.160156 260.910156 581.359375 261 L 581.8125 260.371094 C 581.449219 253.078125 580.910156 242.910156 580.910156 236.699219 C 580.910156 232.648438 580.910156 226.710938 587.03125 226.710938 C 588.5625 226.710938 589.460938 227.25 590.722656 227.96875 Z M 615.5625 260.371094 C 615.109375 253.441406 614.75 248.128906 614.75 235.710938 C 614.75 228.058594 614.929688 220.320312 615.019531 212.671875 L 614.390625 211.949219 L 598.910156 214.648438 L 598.371094 215.191406 C 599.089844 222.03125 599.359375 225.179688 599.359375 237.960938 C 599.359375 247.769531 599.089844 253.261719 598.820312 260.640625 L 599.359375 261.269531 C 605.839844 261 607.640625 260.910156 614.929688 261 L 615.5625 260.371094 M 614.121094 203.308594 L 614.390625 191.070312 L 613.851562 190.53125 L 599.179688 192.328125 L 598.640625 192.960938 C 598.820312 196.199219 598.910156 198.089844 598.910156 200.25 C 598.910156 201.960938 598.910156 203.761719 598.820312 205.46875 L 599.449219 206.011719 C 605.570312 204.929688 607.28125 204.75 613.671875 203.941406 Z M 660.738281 248.039062 C 658.308594 249.480469 655.96875 250.921875 651.378906 250.921875 C 641.207031 250.921875 639.136719 242.460938 639.136719 237.058594 C 639.136719 230.488281 642.019531 222.929688 650.75 222.929688 C 654.707031 222.929688 656.867188 224.371094 659.570312 226.171875 L 660.46875 225.898438 C 660.828125 221.128906 660.917969 219.871094 661.636719 215.101562 L 661.1875 214.558594 C 657.226562 213.300781 653.808594 212.21875 648.589844 212.21875 C 627.4375 212.21875 623.296875 228.238281 623.296875 237.421875 C 623.296875 247.769531 628.699219 261.808594 648.949219 261.808594 C 653.71875 261.808594 656.777344 260.910156 660.558594 259.828125 L 661.097656 259.289062 L 661.457031 248.488281 Z M 707 197.28125 L 695.570312 197.460938 L 695.027344 198 C 695.390625 209.699219 695.660156 217.53125 695.660156 227.878906 C 695.660156 238.859375 695.390625 249.75 695.117188 260.730469 L 695.660156 261.269531 C 702.320312 261 703.757812 260.910156 710.960938 261 L 711.410156 260.460938 C 711.050781 250.648438 711.050781 248.398438 711.050781 239.21875 C 721.128906 239.308594 731.929688 239.308594 738.410156 231.390625 C 740.929688 228.328125 743.089844 223.199219 743.089844 216.898438 C 743.089844 213.03125 742.1875 204.480469 734.71875 200.25 C 729.320312 197.101562 721.667969 197.101562 714.917969 197.101562 L 707 197.28125 M 711.050781 208.171875 C 713.027344 208.078125 714.917969 208.078125 716.898438 208.078125 C 724.820312 208.261719 726.980469 212.308594 726.980469 217.53125 C 726.980469 218.789062 726.980469 224.011719 722.210938 226.621094 C 719.777344 227.96875 716.449219 228.148438 711.050781 228.148438 Z M 789.347656 234.179688 C 789.4375 226.078125 789.4375 222.570312 787.097656 218.789062 C 785.296875 215.910156 781.699219 212.308594 770.179688 212.308594 C 762.4375 212.308594 757.667969 213.75 752.539062 215.28125 L 752 216 L 751.546875 225.808594 L 752.269531 226.171875 C 755.417969 224.910156 761.269531 222.570312 767.296875 222.570312 C 770.628906 222.570312 771.976562 223.109375 773.148438 224.28125 C 774.046875 225.179688 774.320312 226.800781 774.320312 228.148438 C 763.519531 229.589844 758.476562 230.578125 753.078125 233.910156 C 748.039062 237.058594 746.328125 242.191406 746.328125 246.238281 C 746.328125 255.871094 753.257812 262.078125 762.078125 262.078125 C 768.828125 262.078125 772.699219 258.839844 774.589844 257.308594 L 774.589844 260.640625 L 775.128906 261.269531 C 781.609375 261 783.589844 260.910156 789.4375 261 L 789.886719 260.371094 C 789.257812 251.550781 789.257812 249.300781 789.257812 240.839844 L 789.347656 234.179688 M 774.5 248.488281 C 772.609375 249.570312 770.179688 250.828125 767.207031 250.828125 C 763.96875 250.828125 761.269531 249.121094 761.269531 245.339844 C 761.269531 239.398438 768.378906 238.410156 774.5 237.601562 Z M 825.890625 227.609375 L 828.410156 212.941406 L 827.871094 212.308594 C 827.242188 212.308594 826.609375 212.21875 825.980469 212.21875 C 822.289062 212.21875 818.152344 214.289062 815.269531 220.949219 L 815.539062 212.671875 L 814.820312 211.949219 C 808.160156 213.390625 806.449219 213.660156 799.878906 214.648438 L 799.339844 215.191406 C 799.878906 221.941406 800.152344 225.988281 800.152344 238.5 C 800.152344 245.878906 800.058594 253.261719 799.878906 260.730469 L 800.421875 261.269531 C 807.082031 261 808.519531 260.910156 815.71875 261 L 816.171875 260.371094 C 815.808594 253.078125 815.269531 242.910156 815.269531 236.699219 C 815.269531 232.648438 815.269531 226.710938 821.390625 226.710938 C 822.921875 226.710938 823.820312 227.25 825.082031 227.96875 Z M 879.890625 259.828125 C 871.429688 245.519531 870.53125 243.898438 863.691406 231.570312 C 869.902344 223.109375 870.53125 222.210938 876.921875 214.019531 L 876.46875 213.121094 L 861.800781 213.300781 L 860.902344 213.929688 C 853.878906 226.078125 852.980469 227.519531 848.839844 233.730469 L 848.839844 223.738281 C 848.929688 206.910156 849.019531 203.308594 849.46875 189.71875 L 848.75 189.179688 L 833.089844 191.519531 L 832.550781 192.148438 C 833.179688 200.878906 833.449219 205.109375 833.628906 216.898438 C 833.808594 231.480469 833.808594 246.058594 833.71875 260.640625 L 834.351562 261.269531 C 840.378906 261 842.089844 261 848.929688 261 L 849.46875 260.371094 L 848.929688 245.160156 L 848.839844 234.808594 C 856.671875 249.210938 857.660156 251.191406 862.25 260.730469 L 863.058594 261.269531 L 879.261719 260.640625 Z M 878.808594 261 "/>
</svg>
