<?xml version="1.0" encoding="UTF-8"?>
<svg xmlns="http://www.w3.org/2000/svg" xmlns:xlink="http://www.w3.org/1999/xlink" width="975" height="1300" viewBox="0 0 975 1300">
<path fill-rule="nonzero" fill="rgb(98.823529%, 78.823529%, 9.019608%)" fill-opacity="1" d="M 50 50 L 925 50 L 925 290 L 50 290 Z M 50 50 "/>
<path fill-rule="nonzero" fill="rgb(34.901961%, 14.901961%, 14.901961%)" fill-opacity="1" d="M 75.199219 141 C 83.570312 141.179688 93.917969 141.359375 100.667969 136.679688 C 106.609375 132.449219 108.230469 126.511719 108.230469 121.46875 C 108.230469 115.710938 105.796875 110.398438 100.667969 107.878906 C 98.957031 106.980469 96.980469 106.621094 95.089844 106.261719 C 98.148438 105 101.75 103.378906 104.089844 98.609375 C 105.078125 96.539062 105.527344 94.378906 105.527344 92.308594 C 105.527344 89.429688 104.808594 85.46875 101.929688 82.230469 C 98.148438 78.179688 92.296875 77.101562 83.480469 77.101562 C 80.417969 77.101562 74.929688 77.191406 71.867188 77.28125 L 59.269531 77.460938 L 58.730469 78 C 59.089844 86.640625 59.179688 89.96875 59.179688 102.390625 C 59.179688 115.171875 59.089844 127.859375 58.910156 140.640625 L 59.539062 141 L 75.199219 141 M 74.570312 113.640625 C 81.410156 113.460938 85.367188 113.460938 87.980469 114.988281 C 90.589844 116.609375 91.578125 119.488281 91.578125 122.371094 C 91.578125 126.421875 89.328125 128.941406 86 130.109375 C 83.296875 131.011719 78.4375 131.011719 74.570312 130.921875 L 74.570312 113.640625 M 74.570312 87.179688 C 76.457031 87.179688 78.980469 87.089844 80.507812 87.089844 C 85.367188 87.089844 89.777344 88.800781 89.777344 94.648438 C 89.777344 99.421875 86.269531 101.398438 85.1875 101.941406 C 82.9375 102.929688 78.167969 102.929688 74.570312 102.929688 Z M 156.558594 127.679688 C 153.140625 129.480469 149.089844 131.550781 142.519531 131.550781 C 137.121094 131.550781 133.429688 129.839844 131.269531 126.601562 C 129.917969 124.710938 129.648438 122.910156 129.289062 121.109375 L 158.359375 120.570312 L 158.898438 119.941406 C 158.808594 115.53125 158.71875 111.03125 157.460938 106.53125 C 154.308594 95.910156 147.378906 93.75 144.320312 93.03125 C 142.070312 92.398438 140 92.21875 137.929688 92.21875 C 123.800781 92.21875 114.4375 101.488281 114.4375 117.058594 C 114.4375 121.289062 115.160156 125.699219 116.597656 128.851562 C 121.820312 141 134.058594 142.078125 140.539062 142.078125 C 148.007812 142.078125 151.25 140.730469 156.019531 138.839844 L 156.558594 138.121094 L 157.1875 127.949219 L 156.558594 127.679688 M 129.289062 111.570312 C 129.558594 108.78125 130.1875 105 133.609375 102.839844 C 134.6875 102.121094 135.949219 101.851562 137.210938 101.851562 C 140.179688 101.851562 141.980469 103.378906 142.96875 105 C 144.230469 106.980469 144.320312 109.140625 144.320312 111.210938 Z M 211.277344 140.371094 C 210.828125 132.449219 210.828125 129.929688 210.648438 121.109375 L 210.648438 114.089844 C 210.558594 105.449219 210.46875 101.308594 208.21875 97.621094 C 205.425781 92.941406 200.296875 92.21875 197.058594 92.21875 C 191.566406 92.21875 186.796875 95.101562 182.65625 97.53125 L 182.835938 92.578125 L 181.9375 91.949219 C 175.007812 93.390625 173.476562 93.660156 166.726562 94.558594 L 166.1875 95.191406 C 166.90625 103.019531 167.449219 108.691406 167.449219 123.359375 C 167.449219 129.121094 167.355469 134.878906 167.265625 140.640625 L 167.808594 141.179688 C 174.289062 140.910156 175.636719 140.910156 182.835938 140.910156 L 183.378906 140.371094 C 182.835938 126.511719 182.746094 123 182.65625 106.890625 C 184.546875 105.628906 186.707031 104.101562 189.585938 104.101562 C 194.539062 104.101562 194.988281 109.410156 195.257812 112.648438 C 195.4375 115.621094 195.527344 127.949219 195.527344 131.371094 C 195.527344 134.429688 195.4375 137.578125 195.4375 140.640625 L 195.976562 141.179688 C 201.917969 141 203.449219 140.910156 210.648438 140.910156 Z M 237.828125 140.371094 C 237.375 133.441406 237.015625 128.128906 237.015625 115.710938 C 237.015625 108.058594 237.195312 100.320312 237.285156 92.671875 L 236.65625 91.949219 L 221.175781 94.648438 L 220.636719 95.191406 C 221.355469 102.03125 221.625 105.179688 221.625 117.960938 C 221.625 127.769531 221.355469 133.261719 221.085938 140.640625 L 221.625 141.269531 C 228.105469 141 229.90625 140.910156 237.195312 141 L 237.828125 140.371094 M 236.386719 83.308594 L 236.65625 71.070312 L 236.117188 70.53125 L 221.445312 72.328125 L 220.90625 72.960938 C 221.085938 76.199219 221.175781 78.089844 221.175781 80.25 C 221.175781 81.960938 221.175781 83.761719 221.085938 85.46875 L 221.714844 86.011719 C 227.835938 84.929688 229.546875 84.75 235.9375 83.941406 Z M 283.007812 128.039062 C 280.578125 129.480469 278.238281 130.921875 273.648438 130.921875 C 263.476562 130.921875 261.40625 122.460938 261.40625 117.058594 C 261.40625 110.488281 264.289062 102.929688 273.019531 102.929688 C 276.976562 102.929688 279.136719 104.371094 281.839844 106.171875 L 282.738281 105.898438 C 283.097656 101.128906 283.1875 99.871094 283.90625 95.101562 L 283.457031 94.558594 C 279.496094 93.300781 276.078125 92.21875 270.859375 92.21875 C 249.707031 92.21875 245.566406 108.238281 245.566406 117.421875 C 245.566406 127.769531 250.96875 141.808594 271.21875 141.808594 C 275.988281 141.808594 279.046875 140.910156 282.828125 139.828125 L 283.367188 139.289062 L 283.726562 128.488281 Z M 307.21875 140.371094 C 306.765625 133.441406 306.40625 128.128906 306.40625 115.710938 C 306.40625 108.058594 306.585938 100.320312 306.675781 92.671875 L 306.046875 91.949219 L 290.566406 94.648438 L 290.027344 95.191406 C 290.746094 102.03125 291.015625 105.179688 291.015625 117.960938 C 291.015625 127.769531 290.746094 133.261719 290.476562 140.640625 L 291.015625 141.269531 C 297.496094 141 299.296875 140.910156 306.585938 141 L 307.21875 140.371094 M 305.777344 83.308594 L 306.046875 71.070312 L 305.507812 70.53125 L 290.835938 72.328125 L 290.296875 72.960938 C 290.476562 76.199219 290.566406 78.089844 290.566406 80.25 C 290.566406 81.960938 290.566406 83.761719 290.476562 85.46875 L 291.105469 86.011719 C 297.226562 84.929688 298.9375 84.75 305.328125 83.941406 Z M 357.257812 114.179688 C 357.347656 106.078125 357.347656 102.570312 355.007812 98.789062 C 353.207031 95.910156 349.609375 92.308594 338.089844 92.308594 C 330.347656 92.308594 325.578125 93.75 320.449219 95.28125 L 319.910156 96 L 319.457031 105.808594 L 320.179688 106.171875 C 323.328125 104.910156 329.179688 102.570312 335.207031 102.570312 C 338.539062 102.570312 339.886719 103.109375 341.058594 104.28125 C 341.957031 105.179688 342.230469 106.800781 342.230469 108.148438 C 331.429688 109.589844 326.386719 110.578125 320.988281 113.910156 C 315.949219 117.058594 314.238281 122.191406 314.238281 126.238281 C 314.238281 135.871094 321.167969 142.078125 329.988281 142.078125 C 336.738281 142.078125 340.609375 138.839844 342.5 137.308594 L 342.5 140.640625 L 343.039062 141.269531 C 349.519531 141 351.5 140.910156 357.347656 141 L 357.796875 140.371094 C 357.167969 131.550781 357.167969 129.300781 357.167969 120.839844 L 357.257812 114.179688 M 342.410156 128.488281 C 340.519531 129.570312 338.089844 130.828125 335.117188 130.828125 C 331.878906 130.828125 329.179688 129.121094 329.179688 125.339844 C 329.179688 119.398438 336.289062 118.410156 342.410156 117.601562 Z M 440.777344 124.890625 C 438.707031 126.511719 434.117188 129.929688 426.648438 129.929688 C 416.386719 129.929688 409.1875 122.28125 409.1875 109.5 C 409.1875 101.761719 411.886719 88.171875 426.558594 88.171875 C 433.308594 88.171875 436.996094 90.78125 439.246094 92.488281 L 440.058594 92.308594 L 440.867188 79.890625 L 440.507812 79.441406 C 437.269531 78.179688 431.777344 76.109375 423.859375 76.109375 C 400.546875 76.109375 392.449219 94.109375 392.449219 109.859375 C 392.449219 127.140625 402.976562 142.351562 424.9375 142.351562 C 432.496094 142.351562 437.449219 140.371094 440.328125 139.199219 L 440.777344 138.660156 L 441.40625 125.25 Z M 488.476562 114.179688 C 488.566406 106.078125 488.566406 102.570312 486.226562 98.789062 C 484.425781 95.910156 480.828125 92.308594 469.308594 92.308594 C 461.566406 92.308594 456.796875 93.75 451.667969 95.28125 L 451.128906 96 L 450.675781 105.808594 L 451.398438 106.171875 C 454.546875 104.910156 460.398438 102.570312 466.425781 102.570312 C 469.757812 102.570312 471.105469 103.109375 472.277344 104.28125 C 473.175781 105.179688 473.449219 106.800781 473.449219 108.148438 C 462.648438 109.589844 457.605469 110.578125 452.207031 113.910156 C 447.167969 117.058594 445.457031 122.191406 445.457031 126.238281 C 445.457031 135.871094 452.386719 142.078125 461.207031 142.078125 C 467.957031 142.078125 471.828125 138.839844 473.71875 137.308594 L 473.71875 140.640625 L 474.257812 141.269531 C 480.738281 141 482.71875 140.910156 488.566406 141 L 489.015625 140.371094 C 488.386719 131.550781 488.386719 129.300781 488.386719 120.839844 L 488.476562 114.179688 M 473.628906 128.488281 C 471.738281 129.570312 469.308594 130.828125 466.335938 130.828125 C 463.097656 130.828125 460.398438 129.121094 460.398438 125.339844 C 460.398438 119.398438 467.507812 118.410156 473.628906 117.601562 Z M 513.949219 92.851562 L 513.230469 92.039062 C 506.660156 93.480469 504.769531 93.839844 498.289062 94.648438 L 497.75 95.28125 C 498.738281 105.988281 499.097656 110.128906 499.097656 136.050781 C 499.097656 146.761719 498.917969 152.878906 498.648438 163.050781 L 499.1875 163.5 C 505.578125 163.230469 507.46875 163.140625 514.308594 163.230469 L 514.847656 162.78125 L 514.21875 141.359375 C 520.789062 141.269531 529.878906 141.179688 537.167969 134.339844 C 542.929688 128.941406 544.820312 121.289062 544.820312 115.171875 C 544.820312 100.859375 536.089844 92.21875 526.007812 92.21875 C 519.800781 92.21875 516.289062 94.738281 513.769531 96.449219 L 513.949219 92.851562 M 514.128906 105.089844 C 516.109375 103.921875 517.28125 103.289062 519.53125 103.289062 C 520.878906 103.289062 523.578125 103.46875 525.828125 105.988281 C 528.621094 109.050781 529.070312 113.640625 529.070312 116.699219 C 529.070312 121.921875 527.359375 126.601562 523.757812 129.121094 C 520.878906 131.101562 517.28125 131.28125 514.128906 131.371094 Z M 569.660156 140.371094 C 569.207031 133.441406 568.847656 128.128906 568.847656 115.710938 C 568.847656 108.058594 569.027344 100.320312 569.117188 92.671875 L 568.488281 91.949219 L 553.007812 94.648438 L 552.46875 95.191406 C 553.1875 102.03125 553.457031 105.179688 553.457031 117.960938 C 553.457031 127.769531 553.1875 133.261719 552.917969 140.640625 L 553.457031 141.269531 C 559.9375 141 561.738281 140.910156 569.027344 141 L 569.660156 140.371094 M 568.21875 83.308594 L 568.488281 71.070312 L 567.949219 70.53125 L 553.277344 72.328125 L 552.738281 72.960938 C 552.917969 76.199219 553.007812 78.089844 553.007812 80.25 C 553.007812 81.960938 553.007812 83.761719 552.917969 85.46875 L 553.546875 86.011719 C 559.667969 84.929688 561.378906 84.75 567.769531 83.941406 Z M 604.851562 130.648438 C 603.320312 131.101562 602.238281 131.460938 600.710938 131.460938 C 596.121094 131.460938 595.761719 128.578125 595.578125 127.230469 C 595.308594 124.890625 595.308594 119.941406 595.398438 116.339844 L 595.578125 103.648438 L 603.679688 104.011719 L 604.21875 103.46875 L 605.121094 93.839844 L 604.578125 93.300781 L 595.578125 93.300781 L 595.851562 78.179688 L 595.21875 77.640625 C 589.101562 79.441406 587.480469 79.890625 581.089844 81.511719 L 580.730469 82.140625 L 580.820312 93.390625 L 575.960938 93.210938 L 575.421875 93.660156 L 574.609375 103.289062 L 575.148438 103.828125 L 580.820312 103.648438 L 580.550781 117.960938 C 580.460938 120.210938 580.371094 122.460938 580.371094 124.800781 C 580.371094 133.078125 580.550781 141.988281 594.589844 141.988281 C 598.101562 141.988281 600.890625 141.449219 604.039062 140.910156 L 604.671875 140.28125 L 605.570312 131.011719 Z M 657.320312 117.058594 C 657.320312 113.550781 657.320312 98.96875 644.71875 94.019531 C 640.757812 92.488281 636.078125 92.308594 633.738281 92.308594 C 618.078125 92.308594 609.257812 100.679688 609.257812 117.238281 C 609.257812 123 610.160156 128.851562 613.488281 133.710938 C 615.828125 137.21875 620.238281 142.078125 633.109375 142.078125 C 652.1875 142.078125 657.320312 130.558594 657.320312 117.058594 M 641.75 116.96875 C 641.75 124.351562 640.757812 132.539062 633.289062 132.539062 C 630.949219 132.539062 629.328125 131.460938 628.25 130.46875 C 626.71875 128.941406 625.007812 125.878906 625.007812 117.148438 C 625.007812 114.539062 625.007812 108.78125 626.808594 105.628906 C 628.160156 103.199219 630.5 101.578125 633.378906 101.578125 C 635.898438 101.578125 637.96875 102.929688 639.140625 104.371094 C 641.300781 106.980469 641.75 112.109375 641.75 116.96875 Z M 681.707031 140.371094 C 681.257812 130.019531 680.808594 120.570312 680.808594 92.128906 C 680.808594 83.578125 680.898438 79.53125 681.257812 69.808594 L 680.628906 69.179688 L 665.238281 71.609375 L 664.878906 72.148438 C 665.777344 83.128906 665.867188 86.101562 666.046875 100.679688 C 666.140625 105.988281 666.140625 111.300781 666.140625 116.609375 C 666.140625 126.328125 665.957031 131.730469 665.597656 140.640625 L 666.140625 141.269531 C 672.167969 141 674.597656 140.910156 681.167969 141 Z M 744.4375 102.300781 C 736.878906 99.148438 732.917969 97.53125 732.917969 93.480469 C 732.917969 90.691406 735.527344 87.179688 741.46875 87.179688 C 748.308594 87.179688 752.355469 89.96875 755.6875 92.21875 L 756.496094 91.859375 L 757.21875 80.070312 L 756.765625 79.441406 C 752.898438 77.820312 748.847656 76.109375 740.117188 76.109375 C 723.199219 76.109375 717.347656 85.648438 717.347656 95.28125 C 717.347656 106.171875 725.808594 110.128906 730.847656 112.558594 L 733.816406 113.910156 C 740.027344 116.519531 744.796875 118.769531 744.796875 123.539062 C 744.796875 126.960938 741.828125 131.011719 733.996094 131.011719 C 725.808594 131.011719 721.21875 127.410156 718.605469 125.339844 L 717.707031 125.609375 L 717.078125 138.300781 L 717.617188 139.019531 C 718.605469 139.378906 719.597656 139.828125 720.585938 140.101562 C 722.65625 140.820312 727.96875 142.351562 734.71875 142.351562 C 737.417969 142.351562 744.257812 142.078125 749.65625 139.558594 C 757.21875 135.871094 760.457031 129.03125 760.457031 121.378906 C 760.457031 116.25 758.476562 110.761719 753.707031 107.070312 C 751.277344 105.269531 748.9375 104.191406 746.777344 103.199219 Z M 794.210938 130.648438 C 792.679688 131.101562 791.597656 131.460938 790.070312 131.460938 C 785.480469 131.460938 785.121094 128.578125 784.9375 127.230469 C 784.667969 124.890625 784.667969 119.941406 784.757812 116.339844 L 784.9375 103.648438 L 793.039062 104.011719 L 793.578125 103.46875 L 794.480469 93.839844 L 793.9375 93.300781 L 784.9375 93.300781 L 785.210938 78.179688 L 784.578125 77.640625 C 778.460938 79.441406 776.839844 79.890625 770.449219 81.511719 L 770.089844 82.140625 L 770.179688 93.390625 L 765.320312 93.210938 L 764.78125 93.660156 L 763.96875 103.289062 L 764.507812 103.828125 L 770.179688 103.648438 L 769.910156 117.960938 C 769.820312 120.210938 769.730469 122.460938 769.730469 124.800781 C 769.730469 133.078125 769.910156 141.988281 783.949219 141.988281 C 787.460938 141.988281 790.25 141.449219 793.398438 140.910156 L 794.03125 140.28125 L 794.929688 131.011719 Z M 840.917969 114.179688 C 841.007812 106.078125 841.007812 102.570312 838.667969 98.789062 C 836.867188 95.910156 833.269531 92.308594 821.75 92.308594 C 814.007812 92.308594 809.238281 93.75 804.109375 95.28125 L 803.570312 96 L 803.117188 105.808594 L 803.839844 106.171875 C 806.988281 104.910156 812.839844 102.570312 818.867188 102.570312 C 822.199219 102.570312 823.546875 103.109375 824.71875 104.28125 C 825.617188 105.179688 825.890625 106.800781 825.890625 108.148438 C 815.089844 109.589844 810.046875 110.578125 804.648438 113.910156 C 799.609375 117.058594 797.898438 122.191406 797.898438 126.238281 C 797.898438 135.871094 804.828125 142.078125 813.648438 142.078125 C 820.398438 142.078125 824.269531 138.839844 826.160156 137.308594 L 826.160156 140.640625 L 826.699219 141.269531 C 833.179688 141 835.160156 140.910156 841.007812 141 L 841.457031 140.371094 C 840.828125 131.550781 840.828125 129.300781 840.828125 120.839844 L 840.917969 114.179688 M 826.070312 128.488281 C 824.179688 129.570312 821.75 130.828125 818.777344 130.828125 C 815.539062 130.828125 812.839844 129.121094 812.839844 125.339844 C 812.839844 119.398438 819.949219 118.410156 826.070312 117.601562 Z M 876.648438 130.648438 C 875.117188 131.101562 874.035156 131.460938 872.507812 131.460938 C 867.917969 131.460938 867.558594 128.578125 867.375 127.230469 C 867.105469 124.890625 867.105469 119.941406 867.195312 116.339844 L 867.375 103.648438 L 875.476562 104.011719 L 876.015625 103.46875 L 876.917969 93.839844 L 876.375 93.300781 L 867.375 93.300781 L 867.648438 78.179688 L 867.015625 77.640625 C 860.898438 79.441406 859.277344 79.890625 852.886719 81.511719 L 852.527344 82.140625 L 852.617188 93.390625 L 847.757812 93.210938 L 847.21875 93.660156 L 846.40625 103.289062 L 846.945312 103.828125 L 852.617188 103.648438 L 852.347656 117.960938 C 852.257812 120.210938 852.167969 122.460938 852.167969 124.800781 C 852.167969 133.078125 852.347656 141.988281 866.386719 141.988281 C 869.898438 141.988281 872.6875 141.449219 875.835938 140.910156 L 876.46875 140.28125 L 877.367188 131.011719 Z M 923.269531 127.679688 C 919.851562 129.480469 915.800781 131.550781 909.230469 131.550781 C 903.832031 131.550781 900.140625 129.839844 897.980469 126.601562 C 896.628906 124.710938 896.359375 122.910156 896 121.109375 L 925.070312 120.570312 L 925.609375 119.941406 C 925.519531 115.53125 925.429688 111.03125 924.171875 106.53125 C 921.019531 95.910156 914.089844 93.75 911.03125 93.03125 C 908.78125 92.398438 906.710938 92.21875 904.640625 92.21875 C 890.511719 92.21875 881.148438 101.488281 881.148438 117.058594 C 881.148438 121.289062 881.871094 125.699219 883.308594 128.851562 C 888.53125 141 900.769531 142.078125 907.25 142.078125 C 914.71875 142.078125 917.960938 140.730469 922.730469 138.839844 L 923.269531 138.121094 L 923.898438 127.949219 L 923.269531 127.679688 M 896 111.570312 C 896.269531 108.78125 896.898438 105 900.320312 102.839844 C 901.398438 102.121094 902.660156 101.851562 903.921875 101.851562 C 906.890625 101.851562 908.691406 103.378906 909.679688 105 C 910.941406 106.980469 911.03125 109.140625 911.03125 111.210938 Z M 928.488281 141 "/>
<path fill-rule="nonzero" fill="rgb(34.901961%, 14.901961%, 14.901961%)" fill-opacity="1" d="M 277.921875 197.191406 C 270.722656 197.460938 269.554688 197.460938 261.992188 197.460938 L 261.542969 198 C 262.171875 208.171875 262.171875 210.78125 262.261719 221.398438 C 258.304688 221.488281 254.34375 221.578125 250.292969 221.578125 C 247.144531 221.578125 243.902344 221.488281 240.753906 221.488281 L 240.933594 197.730469 L 240.484375 197.191406 C 233.554688 197.460938 232.203125 197.460938 224.375 197.460938 L 223.832031 198 C 224.285156 207.269531 224.824219 218.339844 224.824219 240.660156 C 224.824219 248.761719 224.644531 253.171875 224.464844 260.730469 L 224.914062 261.269531 C 231.484375 261 233.101562 260.910156 241.023438 261 L 241.472656 260.460938 C 240.933594 249.300781 240.84375 246.058594 240.753906 233.011719 C 244.714844 232.828125 248.042969 232.738281 251.554688 232.738281 C 255.152344 232.738281 258.753906 232.828125 262.351562 232.921875 C 262.535156 245.070312 262.535156 248.039062 262.082031 260.730469 L 262.535156 261.269531 C 269.285156 261 271.082031 260.910156 278.734375 261 L 279.183594 260.460938 C 278.464844 245.339844 278.191406 230.308594 278.191406 215.191406 C 278.191406 208.890625 278.285156 204.660156 278.375 197.730469 Z M 305.914062 260.371094 C 305.460938 253.441406 305.101562 248.128906 305.101562 235.710938 C 305.101562 228.058594 305.28125 220.320312 305.371094 212.671875 L 304.742188 211.949219 L 289.261719 214.648438 L 288.722656 215.191406 C 289.441406 222.03125 289.710938 225.179688 289.710938 237.960938 C 289.710938 247.769531 289.441406 253.261719 289.171875 260.640625 L 289.710938 261.269531 C 296.191406 261 297.992188 260.910156 305.28125 261 L 305.914062 260.371094 M 304.472656 203.308594 L 304.742188 191.070312 L 304.203125 190.53125 L 289.53125 192.328125 L 288.992188 192.960938 C 289.171875 196.199219 289.261719 198.089844 289.261719 200.25 C 289.261719 201.960938 289.261719 203.761719 289.171875 205.46875 L 289.800781 206.011719 C 295.921875 204.929688 297.632812 204.75 304.023438 203.941406 Z M 334.804688 229.949219 C 331.742188 228.871094 329.3125 227.878906 329.3125 225.359375 C 329.3125 224.28125 330.035156 221.308594 335.613281 221.308594 C 341.105469 221.308594 344.613281 223.648438 346.863281 225.089844 L 347.675781 224.820312 L 348.574219 215.011719 L 348.125 214.46875 C 343.894531 213.300781 340.203125 212.21875 334.355469 212.21875 C 329.945312 212.21875 321.125 212.578125 316.445312 219.328125 C 315.273438 220.949219 314.015625 223.648438 314.015625 227.25 C 314.015625 236.878906 321.484375 239.761719 325.714844 241.378906 L 329.132812 242.640625 C 331.5625 243.449219 335.523438 244.800781 335.523438 248.039062 C 335.523438 250.289062 333.453125 252.71875 328.414062 252.71875 C 325.894531 252.71875 322.203125 251.910156 318.875 250.199219 C 317.34375 249.390625 316.625 248.761719 315.273438 247.679688 L 314.464844 248.039062 C 314.285156 252.71875 314.195312 253.710938 313.832031 258.210938 L 314.285156 259.019531 C 318.695312 260.640625 322.472656 262.078125 329.042969 262.078125 C 335.882812 262.078125 349.382812 260.820312 351.003906 247.949219 C 351.09375 247.230469 351.09375 246.601562 351.09375 245.96875 C 351.09375 236.070312 344.164062 233.460938 339.214844 231.570312 Z M 384.214844 250.648438 C 382.683594 251.101562 381.601562 251.460938 380.074219 251.460938 C 375.484375 251.460938 375.125 248.578125 374.941406 247.230469 C 374.671875 244.890625 374.671875 239.941406 374.761719 236.339844 L 374.941406 223.648438 L 383.042969 224.011719 L 383.582031 223.46875 L 384.484375 213.839844 L 383.941406 213.300781 L 374.941406 213.300781 L 375.214844 198.179688 L 374.582031 197.640625 C 368.464844 199.441406 366.84375 199.890625 360.453125 201.511719 L 360.09375 202.140625 L 360.183594 213.390625 L 355.324219 213.210938 L 354.785156 213.660156 L 353.972656 223.289062 L 354.511719 223.828125 L 360.183594 223.648438 L 359.914062 237.960938 C 359.824219 240.210938 359.734375 242.460938 359.734375 244.800781 C 359.734375 253.078125 359.914062 261.988281 373.953125 261.988281 C 377.464844 261.988281 380.253906 261.449219 383.402344 260.910156 L 384.035156 260.28125 L 384.933594 251.011719 Z M 436.683594 237.058594 C 436.683594 233.550781 436.683594 218.96875 424.082031 214.019531 C 420.121094 212.488281 415.441406 212.308594 413.101562 212.308594 C 397.441406 212.308594 388.621094 220.679688 388.621094 237.238281 C 388.621094 243 389.523438 248.851562 392.851562 253.710938 C 395.191406 257.21875 399.601562 262.078125 412.472656 262.078125 C 431.550781 262.078125 436.683594 250.558594 436.683594 237.058594 M 421.113281 236.96875 C 421.113281 244.351562 420.121094 252.539062 412.652344 252.539062 C 410.3125 252.539062 408.691406 251.460938 407.613281 250.46875 C 406.082031 248.941406 404.371094 245.878906 404.371094 237.148438 C 404.371094 234.539062 404.371094 228.78125 406.171875 225.628906 C 407.523438 223.199219 409.863281 221.578125 412.742188 221.578125 C 415.261719 221.578125 417.332031 222.929688 418.503906 224.371094 C 420.664062 226.980469 421.113281 232.109375 421.113281 236.96875 Z M 471.242188 227.609375 L 473.761719 212.941406 L 473.222656 212.308594 C 472.59375 212.308594 471.960938 212.21875 471.332031 212.21875 C 467.640625 212.21875 463.503906 214.289062 460.621094 220.949219 L 460.890625 212.671875 L 460.171875 211.949219 C 453.511719 213.390625 451.800781 213.660156 445.230469 214.648438 L 444.691406 215.191406 C 445.230469 221.941406 445.503906 225.988281 445.503906 238.5 C 445.503906 245.878906 445.410156 253.261719 445.230469 260.730469 L 445.773438 261.269531 C 452.433594 261 453.871094 260.910156 461.070312 261 L 461.523438 260.371094 C 461.160156 253.078125 460.621094 242.910156 460.621094 236.699219 C 460.621094 232.648438 460.621094 226.710938 466.742188 226.710938 C 468.273438 226.710938 469.171875 227.25 470.433594 227.96875 Z M 495.273438 260.371094 C 494.820312 253.441406 494.460938 248.128906 494.460938 235.710938 C 494.460938 228.058594 494.640625 220.320312 494.730469 212.671875 L 494.101562 211.949219 L 478.621094 214.648438 L 478.082031 215.191406 C 478.800781 222.03125 479.070312 225.179688 479.070312 237.960938 C 479.070312 247.769531 478.800781 253.261719 478.53125 260.640625 L 479.070312 261.269531 C 485.550781 261 487.351562 260.910156 494.640625 261 L 495.273438 260.371094 M 493.832031 203.308594 L 494.101562 191.070312 L 493.5625 190.53125 L 478.890625 192.328125 L 478.351562 192.960938 C 478.53125 196.199219 478.621094 198.089844 478.621094 200.25 C 478.621094 201.960938 478.621094 203.761719 478.53125 205.46875 L 479.160156 206.011719 C 485.28125 204.929688 486.992188 204.75 493.382812 203.941406 Z M 540.453125 248.039062 C 538.023438 249.480469 535.683594 250.921875 531.09375 250.921875 C 520.921875 250.921875 518.851562 242.460938 518.851562 237.058594 C 518.851562 230.488281 521.734375 222.929688 530.464844 222.929688 C 534.421875 222.929688 536.582031 224.371094 539.285156 226.171875 L 540.183594 225.898438 C 540.542969 221.128906 540.632812 219.871094 541.351562 215.101562 L 540.902344 214.558594 C 536.941406 213.300781 533.523438 212.21875 528.304688 212.21875 C 507.152344 212.21875 503.011719 228.238281 503.011719 237.421875 C 503.011719 247.769531 508.414062 261.808594 528.664062 261.808594 C 533.433594 261.808594 536.492188 260.910156 540.273438 259.828125 L 540.8125 259.289062 L 541.171875 248.488281 Z M 586.714844 197.28125 L 575.285156 197.460938 L 574.742188 198 C 575.105469 209.699219 575.375 217.53125 575.375 227.878906 C 575.375 238.859375 575.105469 249.75 574.832031 260.730469 L 575.375 261.269531 C 582.035156 261 583.472656 260.910156 590.675781 261 L 591.125 260.460938 C 590.765625 250.648438 590.765625 248.398438 590.765625 239.21875 C 600.84375 239.308594 611.644531 239.308594 618.125 231.390625 C 620.644531 228.328125 622.804688 223.199219 622.804688 216.898438 C 622.804688 213.03125 621.902344 204.480469 614.433594 200.25 C 609.035156 197.101562 601.382812 197.101562 594.632812 197.101562 L 586.714844 197.28125 M 590.765625 208.171875 C 592.742188 208.078125 594.632812 208.078125 596.613281 208.078125 C 604.535156 208.261719 606.695312 212.308594 606.695312 217.53125 C 606.695312 218.789062 606.695312 224.011719 601.925781 226.621094 C 599.492188 227.96875 596.164062 228.148438 590.765625 228.148438 Z M 669.0625 234.179688 C 669.152344 226.078125 669.152344 222.570312 666.8125 218.789062 C 665.011719 215.910156 661.414062 212.308594 649.894531 212.308594 C 642.152344 212.308594 637.382812 213.75 632.253906 215.28125 L 631.714844 216 L 631.261719 225.808594 L 631.984375 226.171875 C 635.132812 224.910156 640.984375 222.570312 647.011719 222.570312 C 650.34375 222.570312 651.691406 223.109375 652.863281 224.28125 C 653.761719 225.179688 654.035156 226.800781 654.035156 228.148438 C 643.234375 229.589844 638.191406 230.578125 632.792969 233.910156 C 627.753906 237.058594 626.042969 242.191406 626.042969 246.238281 C 626.042969 255.871094 632.972656 262.078125 641.792969 262.078125 C 648.542969 262.078125 652.414062 258.839844 654.304688 257.308594 L 654.304688 260.640625 L 654.84375 261.269531 C 661.324219 261 663.304688 260.910156 669.152344 261 L 669.601562 260.371094 C 668.972656 251.550781 668.972656 249.300781 668.972656 240.839844 L 669.0625 234.179688 M 654.214844 248.488281 C 652.324219 249.570312 649.894531 250.828125 646.921875 250.828125 C 643.683594 250.828125 640.984375 249.121094 640.984375 245.339844 C 640.984375 239.398438 648.09375 238.410156 654.214844 237.601562 Z M 705.601562 227.609375 L 708.121094 212.941406 L 707.582031 212.308594 C 706.953125 212.308594 706.320312 212.21875 705.691406 212.21875 C 702 212.21875 697.863281 214.289062 694.980469 220.949219 L 695.25 212.671875 L 694.53125 211.949219 C 687.871094 213.390625 686.160156 213.660156 679.589844 214.648438 L 679.050781 215.191406 C 679.589844 221.941406 679.863281 225.988281 679.863281 238.5 C 679.863281 245.878906 679.769531 253.261719 679.589844 260.730469 L 680.132812 261.269531 C 686.792969 261 688.230469 260.910156 695.429688 261 L 695.882812 260.371094 C 695.519531 253.078125 694.980469 242.910156 694.980469 236.699219 C 694.980469 232.648438 694.980469 226.710938 701.101562 226.710938 C 702.632812 226.710938 703.53125 227.25 704.792969 227.96875 Z M 759.601562 259.828125 C 751.140625 245.519531 750.242188 243.898438 743.402344 231.570312 C 749.613281 223.109375 750.242188 222.210938 756.632812 214.019531 L 756.179688 213.121094 L 741.511719 213.300781 L 740.613281 213.929688 C 733.589844 226.078125 732.691406 227.519531 728.550781 233.730469 L 728.550781 223.738281 C 728.640625 206.910156 728.730469 203.308594 729.179688 189.71875 L 728.460938 189.179688 L 712.800781 191.519531 L 712.261719 192.148438 C 712.890625 200.878906 713.160156 205.109375 713.339844 216.898438 C 713.519531 231.480469 713.519531 246.058594 713.429688 260.640625 L 714.0625 261.269531 C 720.089844 261 721.800781 261 728.640625 261 L 729.179688 260.371094 L 728.640625 245.160156 L 728.550781 234.808594 C 736.382812 249.210938 737.371094 251.191406 741.960938 260.730469 L 742.769531 261.269531 L 758.972656 260.640625 Z M 758.523438 261 "/>
</svg>
