<?xml version="1.0" encoding="UTF-8"?>
<svg xmlns="http://www.w3.org/2000/svg" xmlns:xlink="http://www.w3.org/1999/xlink" width="975" height="1300" viewBox="0 0 975 1300">
<path fill-rule="nonzero" fill="rgb(98.823529%, 78.823529%, 9.019608%)" fill-opacity="1" d="M 50 50 L 925 50 L 925 290 L 50 290 Z M 50 50 "/>
<path fill-rule="nonzero" fill="rgb(34.901961%, 14.901961%, 14.901961%)" fill-opacity="1" d="M 209.253906 89.339844 L 209.792969 88.890625 L 210.425781 77.640625 L 209.972656 77.371094 L 165.425781 77.371094 L 164.792969 77.910156 L 164.164062 88.980469 L 164.613281 89.519531 L 179.285156 89.160156 C 179.375 112.738281 179.375 118.410156 178.65625 140.730469 L 179.195312 141.269531 C 185.855469 141 187.65625 140.910156 195.125 140.910156 L 195.664062 140.371094 C 195.214844 127.769531 195.035156 115.171875 195.035156 102.480469 C 195.035156 97.53125 195.125 94.738281 195.304688 88.980469 Z M 242.195312 107.609375 L 244.714844 92.941406 L 244.175781 92.308594 C 243.546875 92.308594 242.914062 92.21875 242.285156 92.21875 C 238.59375 92.21875 234.457031 94.289062 231.574219 100.949219 L 231.84375 92.671875 L 231.125 91.949219 C 224.464844 93.390625 222.753906 93.660156 216.183594 94.648438 L 215.644531 95.191406 C 216.183594 101.941406 216.457031 105.988281 216.457031 118.5 C 216.457031 125.878906 216.363281 133.261719 216.183594 140.730469 L 216.726562 141.269531 C 223.386719 141 224.824219 140.910156 232.023438 141 L 232.476562 140.371094 C 232.113281 133.078125 231.574219 122.910156 231.574219 116.699219 C 231.574219 112.648438 231.574219 106.710938 237.695312 106.710938 C 239.226562 106.710938 240.125 107.25 241.386719 107.96875 Z M 266.226562 140.371094 C 265.773438 133.441406 265.414062 128.128906 265.414062 115.710938 C 265.414062 108.058594 265.59375 100.320312 265.683594 92.671875 L 265.054688 91.949219 L 249.574219 94.648438 L 249.035156 95.191406 C 249.753906 102.03125 250.023438 105.179688 250.023438 117.960938 C 250.023438 127.769531 249.753906 133.261719 249.484375 140.640625 L 250.023438 141.269531 C 256.503906 141 258.304688 140.910156 265.59375 141 L 266.226562 140.371094 M 264.785156 83.308594 L 265.054688 71.070312 L 264.515625 70.53125 L 249.84375 72.328125 L 249.304688 72.960938 C 249.484375 76.199219 249.574219 78.089844 249.574219 80.25 C 249.574219 81.960938 249.574219 83.761719 249.484375 85.46875 L 250.113281 86.011719 C 256.234375 84.929688 257.945312 84.75 264.335938 83.941406 Z M 322.027344 117.058594 C 322.027344 113.550781 322.027344 98.96875 309.425781 94.019531 C 305.464844 92.488281 300.785156 92.308594 298.445312 92.308594 C 282.785156 92.308594 273.964844 100.679688 273.964844 117.238281 C 273.964844 123 274.867188 128.851562 278.195312 133.710938 C 280.535156 137.21875 284.945312 142.078125 297.816406 142.078125 C 316.894531 142.078125 322.027344 130.558594 322.027344 117.058594 M 306.457031 116.96875 C 306.457031 124.351562 305.464844 132.539062 297.996094 132.539062 C 295.65625 132.539062 294.035156 131.460938 292.957031 130.46875 C 291.425781 128.941406 289.714844 125.878906 289.714844 117.148438 C 289.714844 114.539062 289.714844 108.78125 291.515625 105.628906 C 292.867188 103.199219 295.207031 101.578125 298.085938 101.578125 C 300.605469 101.578125 302.675781 102.929688 303.847656 104.371094 C 306.007812 106.980469 306.457031 112.109375 306.457031 116.96875 Z M 374.675781 140.371094 C 374.226562 132.449219 374.226562 129.929688 374.046875 121.109375 L 374.046875 114.089844 C 373.957031 105.449219 373.867188 101.308594 371.617188 97.621094 C 368.824219 92.941406 363.695312 92.21875 360.457031 92.21875 C 354.964844 92.21875 350.195312 95.101562 346.054688 97.53125 L 346.234375 92.578125 L 345.335938 91.949219 C 338.40625 93.390625 336.875 93.660156 330.125 94.558594 L 329.585938 95.191406 C 330.304688 103.019531 330.847656 108.691406 330.847656 123.359375 C 330.847656 129.121094 330.753906 134.878906 330.664062 140.640625 L 331.207031 141.179688 C 337.6875 140.910156 339.035156 140.910156 346.234375 140.910156 L 346.777344 140.371094 C 346.234375 126.511719 346.144531 123 346.054688 106.890625 C 347.945312 105.628906 350.105469 104.101562 352.984375 104.101562 C 357.9375 104.101562 358.386719 109.410156 358.65625 112.648438 C 358.835938 115.621094 358.925781 127.949219 358.925781 131.371094 C 358.925781 134.429688 358.835938 137.578125 358.835938 140.640625 L 359.375 141.179688 C 365.316406 141 366.847656 140.910156 374.046875 140.910156 Z M 424.894531 127.679688 C 421.476562 129.480469 417.425781 131.550781 410.855469 131.550781 C 405.457031 131.550781 401.765625 129.839844 399.605469 126.601562 C 398.253906 124.710938 397.984375 122.910156 397.625 121.109375 L 426.695312 120.570312 L 427.234375 119.941406 C 427.144531 115.53125 427.054688 111.03125 425.796875 106.53125 C 422.644531 95.910156 415.714844 93.75 412.65625 93.03125 C 410.40625 92.398438 408.335938 92.21875 406.265625 92.21875 C 392.136719 92.21875 382.773438 101.488281 382.773438 117.058594 C 382.773438 121.289062 383.496094 125.699219 384.933594 128.851562 C 390.15625 141 402.394531 142.078125 408.875 142.078125 C 416.34375 142.078125 419.585938 140.730469 424.355469 138.839844 L 424.894531 138.121094 L 425.523438 127.949219 L 424.894531 127.679688 M 397.625 111.570312 C 397.894531 108.78125 398.523438 105 401.945312 102.839844 C 403.023438 102.121094 404.285156 101.851562 405.546875 101.851562 C 408.515625 101.851562 410.316406 103.378906 411.304688 105 C 412.566406 106.980469 412.65625 109.140625 412.65625 111.210938 Z M 460.351562 109.769531 C 456.035156 109.859375 452.523438 109.949219 447.214844 109.949219 C 442.894531 109.949219 438.574219 109.859375 434.34375 109.859375 L 433.714844 110.398438 L 433.171875 120.75 L 433.625 121.289062 C 438.664062 121.199219 441.632812 121.109375 446.402344 121.109375 C 450.8125 121.109375 455.222656 121.199219 459.632812 121.199219 L 460.171875 120.660156 L 460.804688 110.21875 Z M 505.625 77.191406 C 496.984375 77.460938 495.183594 77.460938 485.554688 77.460938 L 484.921875 78 C 480.152344 93.300781 477.273438 102.390625 464.042969 140.371094 L 464.402344 141 L 478.441406 141 L 479.074219 140.460938 L 483.484375 124.078125 L 502.921875 124.078125 L 506.792969 140.730469 L 507.421875 141.269531 C 513.992188 141 515.792969 140.910156 523.082031 141 L 523.535156 140.28125 C 512.644531 101.761719 511.382812 97.53125 506.253906 77.730469 L 505.625 77.191406 M 486.632812 113.191406 L 491.132812 97.980469 L 494.285156 87.449219 L 496.984375 99.148438 L 500.3125 113.191406 Z M 573.394531 140.371094 C 572.945312 132.449219 572.945312 129.929688 572.765625 121.109375 L 572.765625 114.089844 C 572.675781 105.449219 572.585938 101.308594 570.335938 97.621094 C 567.542969 92.941406 562.414062 92.21875 559.175781 92.21875 C 553.683594 92.21875 548.914062 95.101562 544.773438 97.53125 L 544.953125 92.578125 L 544.054688 91.949219 C 537.125 93.390625 535.59375 93.660156 528.84375 94.558594 L 528.304688 95.191406 C 529.023438 103.019531 529.566406 108.691406 529.566406 123.359375 C 529.566406 129.121094 529.472656 134.878906 529.382812 140.640625 L 529.925781 141.179688 C 536.40625 140.910156 537.753906 140.910156 544.953125 140.910156 L 545.496094 140.371094 C 544.953125 126.511719 544.863281 123 544.773438 106.890625 C 546.664062 105.628906 548.824219 104.101562 551.703125 104.101562 C 556.65625 104.101562 557.105469 109.410156 557.375 112.648438 C 557.554688 115.621094 557.644531 127.949219 557.644531 131.371094 C 557.644531 134.429688 557.554688 137.578125 557.554688 140.640625 L 558.09375 141.179688 C 564.035156 141 565.566406 140.910156 572.765625 140.910156 Z M 627.753906 140.371094 C 627.304688 132.449219 627.304688 129.929688 627.125 121.109375 L 627.125 114.089844 C 627.035156 105.449219 626.945312 101.308594 624.695312 97.621094 C 621.902344 92.941406 616.773438 92.21875 613.535156 92.21875 C 608.042969 92.21875 603.273438 95.101562 599.132812 97.53125 L 599.3125 92.578125 L 598.414062 91.949219 C 591.484375 93.390625 589.953125 93.660156 583.203125 94.558594 L 582.664062 95.191406 C 583.382812 103.019531 583.925781 108.691406 583.925781 123.359375 C 583.925781 129.121094 583.832031 134.878906 583.742188 140.640625 L 584.285156 141.179688 C 590.765625 140.910156 592.113281 140.910156 599.3125 140.910156 L 599.855469 140.371094 C 599.3125 126.511719 599.222656 123 599.132812 106.890625 C 601.023438 105.628906 603.183594 104.101562 606.0625 104.101562 C 611.015625 104.101562 611.464844 109.410156 611.734375 112.648438 C 611.914062 115.621094 612.003906 127.949219 612.003906 131.371094 C 612.003906 134.429688 611.914062 137.578125 611.914062 140.640625 L 612.453125 141.179688 C 618.394531 141 619.925781 140.910156 627.125 140.910156 Z M 678.0625 114.179688 C 678.152344 106.078125 678.152344 102.570312 675.8125 98.789062 C 674.011719 95.910156 670.414062 92.308594 658.894531 92.308594 C 651.152344 92.308594 646.382812 93.75 641.253906 95.28125 L 640.714844 96 L 640.261719 105.808594 L 640.984375 106.171875 C 644.132812 104.910156 649.984375 102.570312 656.011719 102.570312 C 659.34375 102.570312 660.691406 103.109375 661.863281 104.28125 C 662.761719 105.179688 663.035156 106.800781 663.035156 108.148438 C 652.234375 109.589844 647.191406 110.578125 641.792969 113.910156 C 636.753906 117.058594 635.042969 122.191406 635.042969 126.238281 C 635.042969 135.871094 641.972656 142.078125 650.792969 142.078125 C 657.542969 142.078125 661.414062 138.839844 663.304688 137.308594 L 663.304688 140.640625 L 663.84375 141.269531 C 670.324219 141 672.304688 140.910156 678.152344 141 L 678.601562 140.371094 C 677.972656 131.550781 677.972656 129.300781 677.972656 120.839844 L 678.0625 114.179688 M 663.214844 128.488281 C 661.324219 129.570312 658.894531 130.828125 655.921875 130.828125 C 652.683594 130.828125 649.984375 129.121094 649.984375 125.339844 C 649.984375 119.398438 657.09375 118.410156 663.214844 117.601562 Z M 732.695312 140.460938 C 732.335938 132.359375 732.066406 126.960938 732.066406 115.171875 C 732.066406 91.410156 732.425781 81.601562 732.785156 69.71875 L 732.15625 69.179688 L 717.304688 71.519531 L 716.855469 72.058594 C 717.394531 80.519531 717.484375 82.769531 717.394531 93.03125 C 710.644531 92.851562 702.183594 92.671875 695.34375 98.070312 C 689.046875 102.929688 686.433594 110.398438 686.433594 119.671875 C 686.433594 126.691406 688.324219 133.710938 693.636719 138.121094 C 697.59375 141.359375 702.457031 142.078125 705.425781 142.078125 C 711.816406 142.078125 715.144531 139.109375 717.304688 137.21875 L 717.125 140.730469 L 717.574219 141.269531 C 723.785156 141 725.496094 141 732.246094 141 L 732.695312 140.460938 M 717.394531 103.828125 C 717.484375 115.800781 717.394531 118.140625 717.125 129.03125 C 715.324219 130.109375 713.523438 131.191406 711.003906 131.191406 C 702.273438 131.191406 702.273438 120.03125 702.273438 118.230469 C 702.273438 111.300781 704.253906 103.558594 714.335938 103.558594 C 715.324219 103.558594 716.136719 103.648438 717.394531 103.828125 Z M 782.914062 127.679688 C 779.496094 129.480469 775.445312 131.550781 768.875 131.550781 C 763.476562 131.550781 759.785156 129.839844 757.625 126.601562 C 756.273438 124.710938 756.003906 122.910156 755.644531 121.109375 L 784.714844 120.570312 L 785.253906 119.941406 C 785.164062 115.53125 785.074219 111.03125 783.816406 106.53125 C 780.664062 95.910156 773.734375 93.75 770.675781 93.03125 C 768.425781 92.398438 766.355469 92.21875 764.285156 92.21875 C 750.15625 92.21875 740.792969 101.488281 740.792969 117.058594 C 740.792969 121.289062 741.515625 125.699219 742.953125 128.851562 C 748.175781 141 760.414062 142.078125 766.894531 142.078125 C 774.363281 142.078125 777.605469 140.730469 782.375 138.839844 L 782.914062 138.121094 L 783.542969 127.949219 L 782.914062 127.679688 M 755.644531 111.570312 C 755.914062 108.78125 756.542969 105 759.964844 102.839844 C 761.042969 102.121094 762.304688 101.851562 763.566406 101.851562 C 766.535156 101.851562 768.335938 103.378906 769.324219 105 C 770.585938 106.980469 770.675781 109.140625 770.675781 111.210938 Z M 809.371094 140.371094 C 808.921875 130.019531 808.472656 120.570312 808.472656 92.128906 C 808.472656 83.578125 808.5625 79.53125 808.921875 69.808594 L 808.292969 69.179688 L 792.902344 71.609375 L 792.542969 72.148438 C 793.441406 83.128906 793.53125 86.101562 793.710938 100.679688 C 793.804688 105.988281 793.804688 111.300781 793.804688 116.609375 C 793.804688 126.328125 793.621094 131.730469 793.261719 140.640625 L 793.804688 141.269531 C 799.832031 141 802.261719 140.910156 808.832031 141 Z M 814.414062 141 "/>
<path fill-rule="nonzero" fill="rgb(34.901961%, 14.901961%, 14.901961%)" fill-opacity="1" d="M 303.890625 222.300781 C 296.332031 219.148438 292.371094 217.53125 292.371094 213.480469 C 292.371094 210.691406 294.980469 207.179688 300.921875 207.179688 C 307.761719 207.179688 311.808594 209.96875 315.140625 212.21875 L 315.949219 211.859375 L 316.671875 200.070312 L 316.21875 199.441406 C 312.351562 197.820312 308.300781 196.109375 299.570312 196.109375 C 282.652344 196.109375 276.800781 205.648438 276.800781 215.28125 C 276.800781 226.171875 285.261719 230.128906 290.300781 232.558594 L 293.269531 233.910156 C 299.480469 236.519531 304.25 238.769531 304.25 243.539062 C 304.25 246.960938 301.28125 251.011719 293.449219 251.011719 C 285.261719 251.011719 280.671875 247.410156 278.058594 245.339844 L 277.160156 245.609375 L 276.53125 258.300781 L 277.070312 259.019531 C 278.058594 259.378906 279.050781 259.828125 280.039062 260.101562 C 282.109375 260.820312 287.421875 262.351562 294.171875 262.351562 C 296.871094 262.351562 303.710938 262.078125 309.109375 259.558594 C 316.671875 255.871094 319.910156 249.03125 319.910156 241.378906 C 319.910156 236.25 317.929688 230.761719 313.160156 227.070312 C 310.730469 225.269531 308.390625 224.191406 306.230469 223.199219 Z M 353.660156 250.648438 C 352.128906 251.101562 351.046875 251.460938 349.519531 251.460938 C 344.929688 251.460938 344.570312 248.578125 344.386719 247.230469 C 344.117188 244.890625 344.117188 239.941406 344.207031 236.339844 L 344.386719 223.648438 L 352.488281 224.011719 L 353.027344 223.46875 L 353.929688 213.839844 L 353.386719 213.300781 L 344.386719 213.300781 L 344.660156 198.179688 L 344.027344 197.640625 C 337.910156 199.441406 336.289062 199.890625 329.898438 201.511719 L 329.539062 202.140625 L 329.628906 213.390625 L 324.769531 213.210938 L 324.230469 213.660156 L 323.417969 223.289062 L 323.957031 223.828125 L 329.628906 223.648438 L 329.359375 237.960938 C 329.269531 240.210938 329.179688 242.460938 329.179688 244.800781 C 329.179688 253.078125 329.359375 261.988281 343.398438 261.988281 C 346.910156 261.988281 349.699219 261.449219 352.847656 260.910156 L 353.480469 260.28125 L 354.378906 251.011719 Z M 400.371094 234.179688 C 400.460938 226.078125 400.460938 222.570312 398.121094 218.789062 C 396.320312 215.910156 392.722656 212.308594 381.203125 212.308594 C 373.460938 212.308594 368.691406 213.75 363.5625 215.28125 L 363.023438 216 L 362.570312 225.808594 L 363.292969 226.171875 C 366.441406 224.910156 372.292969 222.570312 378.320312 222.570312 C 381.652344 222.570312 383 223.109375 384.171875 224.28125 C 385.070312 225.179688 385.34375 226.800781 385.34375 228.148438 C 374.542969 229.589844 369.5 230.578125 364.101562 233.910156 C 359.0625 237.058594 357.351562 242.191406 357.351562 246.238281 C 357.351562 255.871094 364.28125 262.078125 373.101562 262.078125 C 379.851562 262.078125 383.722656 258.839844 385.613281 257.308594 L 385.613281 260.640625 L 386.152344 261.269531 C 392.632812 261 394.613281 260.910156 400.460938 261 L 400.910156 260.371094 C 400.28125 251.550781 400.28125 249.300781 400.28125 240.839844 L 400.371094 234.179688 M 385.523438 248.488281 C 383.632812 249.570312 381.203125 250.828125 378.230469 250.828125 C 374.992188 250.828125 372.292969 249.121094 372.292969 245.339844 C 372.292969 239.398438 379.402344 238.410156 385.523438 237.601562 Z M 436.101562 250.648438 C 434.570312 251.101562 433.488281 251.460938 431.960938 251.460938 C 427.371094 251.460938 427.011719 248.578125 426.828125 247.230469 C 426.558594 244.890625 426.558594 239.941406 426.648438 236.339844 L 426.828125 223.648438 L 434.929688 224.011719 L 435.46875 223.46875 L 436.371094 213.839844 L 435.828125 213.300781 L 426.828125 213.300781 L 427.101562 198.179688 L 426.46875 197.640625 C 420.351562 199.441406 418.730469 199.890625 412.339844 201.511719 L 411.980469 202.140625 L 412.070312 213.390625 L 407.210938 213.210938 L 406.671875 213.660156 L 405.859375 223.289062 L 406.398438 223.828125 L 412.070312 223.648438 L 411.800781 237.960938 C 411.710938 240.210938 411.621094 242.460938 411.621094 244.800781 C 411.621094 253.078125 411.800781 261.988281 425.839844 261.988281 C 429.351562 261.988281 432.140625 261.449219 435.289062 260.910156 L 435.921875 260.28125 L 436.820312 251.011719 Z M 482.71875 247.679688 C 479.300781 249.480469 475.25 251.550781 468.679688 251.550781 C 463.28125 251.550781 459.589844 249.839844 457.429688 246.601562 C 456.078125 244.710938 455.808594 242.910156 455.449219 241.109375 L 484.519531 240.570312 L 485.058594 239.941406 C 484.96875 235.53125 484.878906 231.03125 483.621094 226.53125 C 480.46875 215.910156 473.539062 213.75 470.480469 213.03125 C 468.230469 212.398438 466.160156 212.21875 464.089844 212.21875 C 449.960938 212.21875 440.597656 221.488281 440.597656 237.058594 C 440.597656 241.289062 441.320312 245.699219 442.757812 248.851562 C 447.980469 261 460.21875 262.078125 466.699219 262.078125 C 474.167969 262.078125 477.410156 260.730469 482.179688 258.839844 L 482.71875 258.121094 L 483.347656 247.949219 L 482.71875 247.679688 M 455.449219 231.570312 C 455.71875 228.78125 456.347656 225 459.769531 222.839844 C 460.847656 222.121094 462.109375 221.851562 463.371094 221.851562 C 466.339844 221.851562 468.140625 223.378906 469.128906 225 C 470.390625 226.980469 470.480469 229.140625 470.480469 231.210938 Z M 531.679688 197.28125 L 520.25 197.460938 L 519.707031 198 C 520.070312 209.699219 520.339844 217.53125 520.339844 227.878906 C 520.339844 238.859375 520.070312 249.75 519.796875 260.730469 L 520.339844 261.269531 C 527 261 528.4375 260.910156 535.640625 261 L 536.089844 260.460938 C 535.730469 250.648438 535.730469 248.398438 535.730469 239.21875 C 545.808594 239.308594 556.609375 239.308594 563.089844 231.390625 C 565.609375 228.328125 567.769531 223.199219 567.769531 216.898438 C 567.769531 213.03125 566.867188 204.480469 559.398438 200.25 C 554 197.101562 546.347656 197.101562 539.597656 197.101562 L 531.679688 197.28125 M 535.730469 208.171875 C 537.707031 208.078125 539.597656 208.078125 541.578125 208.078125 C 549.5 208.261719 551.660156 212.308594 551.660156 217.53125 C 551.660156 218.789062 551.660156 224.011719 546.890625 226.621094 C 544.457031 227.96875 541.128906 228.148438 535.730469 228.148438 Z M 614.03125 234.179688 C 614.121094 226.078125 614.121094 222.570312 611.78125 218.789062 C 609.980469 215.910156 606.382812 212.308594 594.863281 212.308594 C 587.121094 212.308594 582.351562 213.75 577.222656 215.28125 L 576.683594 216 L 576.230469 225.808594 L 576.953125 226.171875 C 580.101562 224.910156 585.953125 222.570312 591.980469 222.570312 C 595.3125 222.570312 596.660156 223.109375 597.832031 224.28125 C 598.730469 225.179688 599.003906 226.800781 599.003906 228.148438 C 588.203125 229.589844 583.160156 230.578125 577.761719 233.910156 C 572.722656 237.058594 571.011719 242.191406 571.011719 246.238281 C 571.011719 255.871094 577.941406 262.078125 586.761719 262.078125 C 593.511719 262.078125 597.382812 258.839844 599.273438 257.308594 L 599.273438 260.640625 L 599.8125 261.269531 C 606.292969 261 608.273438 260.910156 614.121094 261 L 614.570312 260.371094 C 613.941406 251.550781 613.941406 249.300781 613.941406 240.839844 L 614.03125 234.179688 M 599.183594 248.488281 C 597.292969 249.570312 594.863281 250.828125 591.890625 250.828125 C 588.652344 250.828125 585.953125 249.121094 585.953125 245.339844 C 585.953125 239.398438 593.0625 238.410156 599.183594 237.601562 Z M 650.570312 227.609375 L 653.089844 212.941406 L 652.550781 212.308594 C 651.921875 212.308594 651.289062 212.21875 650.660156 212.21875 C 646.96875 212.21875 642.832031 214.289062 639.949219 220.949219 L 640.21875 212.671875 L 639.5 211.949219 C 632.839844 213.390625 631.128906 213.660156 624.558594 214.648438 L 624.019531 215.191406 C 624.558594 221.941406 624.832031 225.988281 624.832031 238.5 C 624.832031 245.878906 624.738281 253.261719 624.558594 260.730469 L 625.101562 261.269531 C 631.761719 261 633.199219 260.910156 640.398438 261 L 640.851562 260.371094 C 640.488281 253.078125 639.949219 242.910156 639.949219 236.699219 C 639.949219 232.648438 639.949219 226.710938 646.070312 226.710938 C 647.601562 226.710938 648.5 227.25 649.761719 227.96875 Z M 704.570312 259.828125 C 696.109375 245.519531 695.210938 243.898438 688.371094 231.570312 C 694.582031 223.109375 695.210938 222.210938 701.601562 214.019531 L 701.148438 213.121094 L 686.480469 213.300781 L 685.582031 213.929688 C 678.558594 226.078125 677.660156 227.519531 673.519531 233.730469 L 673.519531 223.738281 C 673.609375 206.910156 673.699219 203.308594 674.148438 189.71875 L 673.429688 189.179688 L 657.769531 191.519531 L 657.230469 192.148438 C 657.859375 200.878906 658.128906 205.109375 658.308594 216.898438 C 658.488281 231.480469 658.488281 246.058594 658.398438 260.640625 L 659.03125 261.269531 C 665.058594 261 666.769531 261 673.609375 261 L 674.148438 260.371094 L 673.609375 245.160156 L 673.519531 234.808594 C 681.351562 249.210938 682.339844 251.191406 686.929688 260.730469 L 687.738281 261.269531 L 703.941406 260.640625 Z M 703.492188 261 "/>
</svg>
