<?xml version="1.0" encoding="UTF-8"?>
<svg xmlns="http://www.w3.org/2000/svg" xmlns:xlink="http://www.w3.org/1999/xlink" width="975" height="1300" viewBox="0 0 975 1300">
<path fill-rule="nonzero" fill="rgb(98.823529%, 78.823529%, 9.019608%)" fill-opacity="1" d="M 50 50 L 925 50 L 925 290 L 50 290 Z M 50 50 "/>
<path fill-rule="nonzero" fill="rgb(34.901961%, 14.901961%, 14.901961%)" fill-opacity="1" d="M 92.929688 141 C 101.300781 141.179688 111.648438 141.359375 118.398438 136.679688 C 124.339844 132.449219 125.960938 126.511719 125.960938 121.46875 C 125.960938 115.710938 123.527344 110.398438 118.398438 107.878906 C 116.6875 106.980469 114.710938 106.621094 112.820312 106.261719 C 115.878906 105 119.480469 103.378906 121.820312 98.609375 C 122.808594 96.539062 123.257812 94.378906 123.257812 92.308594 C 123.257812 89.429688 122.539062 85.46875 119.660156 82.230469 C 115.878906 78.179688 110.027344 77.101562 101.210938 77.101562 C 98.148438 77.101562 92.660156 77.191406 89.597656 77.28125 L 77 77.460938 L 76.460938 78 C 76.820312 86.640625 76.910156 89.96875 76.910156 102.390625 C 76.910156 115.171875 76.820312 127.859375 76.640625 140.640625 L 77.269531 141 L 92.929688 141 M 92.300781 113.640625 C 99.140625 113.460938 103.097656 113.460938 105.710938 114.988281 C 108.320312 116.609375 109.308594 119.488281 109.308594 122.371094 C 109.308594 126.421875 107.058594 128.941406 103.730469 130.109375 C 101.027344 131.011719 96.167969 131.011719 92.300781 130.921875 L 92.300781 113.640625 M 92.300781 87.179688 C 94.1875 87.179688 96.710938 87.089844 98.238281 87.089844 C 103.097656 87.089844 107.507812 88.800781 107.507812 94.648438 C 107.507812 99.421875 104 101.398438 102.917969 101.941406 C 100.667969 102.929688 95.898438 102.929688 92.300781 102.929688 Z M 174.378906 114.179688 C 174.46875 106.078125 174.46875 102.570312 172.128906 98.789062 C 170.328125 95.910156 166.730469 92.308594 155.210938 92.308594 C 147.46875 92.308594 142.699219 93.75 137.570312 95.28125 L 137.03125 96 L 136.578125 105.808594 L 137.300781 106.171875 C 140.449219 104.910156 146.300781 102.570312 152.328125 102.570312 C 155.660156 102.570312 157.007812 103.109375 158.179688 104.28125 C 159.078125 105.179688 159.351562 106.800781 159.351562 108.148438 C 148.550781 109.589844 143.507812 110.578125 138.109375 113.910156 C 133.070312 117.058594 131.359375 122.191406 131.359375 126.238281 C 131.359375 135.871094 138.289062 142.078125 147.109375 142.078125 C 153.859375 142.078125 157.730469 138.839844 159.621094 137.308594 L 159.621094 140.640625 L 160.160156 141.269531 C 166.640625 141 168.621094 140.910156 174.46875 141 L 174.917969 140.371094 C 174.289062 131.550781 174.289062 129.300781 174.289062 120.839844 L 174.378906 114.179688 M 159.53125 128.488281 C 157.640625 129.570312 155.210938 130.828125 152.238281 130.828125 C 149 130.828125 146.300781 129.121094 146.300781 125.339844 C 146.300781 119.398438 153.410156 118.410156 159.53125 117.601562 Z M 200.746094 140.371094 C 200.296875 130.019531 199.847656 120.570312 199.847656 92.128906 C 199.847656 83.578125 199.9375 79.53125 200.296875 69.808594 L 199.667969 69.179688 L 184.277344 71.609375 L 183.917969 72.148438 C 184.816406 83.128906 184.90625 86.101562 185.085938 100.679688 C 185.179688 105.988281 185.179688 111.300781 185.179688 116.609375 C 185.179688 126.328125 184.996094 131.730469 184.636719 140.640625 L 185.179688 141.269531 C 191.207031 141 193.636719 140.910156 200.207031 141 Z M 251.148438 127.679688 C 247.730469 129.480469 243.679688 131.550781 237.109375 131.550781 C 231.710938 131.550781 228.019531 129.839844 225.859375 126.601562 C 224.507812 124.710938 224.238281 122.910156 223.878906 121.109375 L 252.949219 120.570312 L 253.488281 119.941406 C 253.398438 115.53125 253.308594 111.03125 252.050781 106.53125 C 248.898438 95.910156 241.96875 93.75 238.910156 93.03125 C 236.660156 92.398438 234.589844 92.21875 232.519531 92.21875 C 218.390625 92.21875 209.027344 101.488281 209.027344 117.058594 C 209.027344 121.289062 209.75 125.699219 211.1875 128.851562 C 216.410156 141 228.648438 142.078125 235.128906 142.078125 C 242.597656 142.078125 245.839844 140.730469 250.609375 138.839844 L 251.148438 138.121094 L 251.777344 127.949219 L 251.148438 127.679688 M 223.878906 111.570312 C 224.148438 108.78125 224.777344 105 228.199219 102.839844 C 229.277344 102.121094 230.539062 101.851562 231.800781 101.851562 C 234.769531 101.851562 236.570312 103.378906 237.558594 105 C 238.820312 106.980469 238.910156 109.140625 238.910156 111.210938 Z M 341.597656 123.179688 C 341.597656 118.679688 341.6875 114.179688 341.777344 109.589844 L 341.328125 109.050781 L 326.027344 109.320312 L 325.578125 109.859375 C 326.386719 118.679688 326.476562 120.839844 326.296875 129.03125 C 323.867188 129.570312 322.070312 130.019531 319.546875 130.019531 C 305.597656 130.019531 303.078125 116.699219 303.078125 109.949219 C 303.078125 95.730469 310.726562 87.988281 322.070312 87.988281 C 328.910156 87.988281 332.957031 90.691406 337.1875 93.480469 L 337.910156 93.210938 C 338.359375 87.628906 338.539062 86.191406 339.257812 80.789062 L 338.808594 80.25 C 335.027344 78.628906 329 76.109375 319.636719 76.109375 C 309.378906 76.109375 298.128906 78.988281 291.019531 91.050781 C 287.777344 96.71875 286.429688 104.011719 286.429688 110.039062 C 286.429688 118.5 288.679688 125.609375 292.726562 130.828125 C 298.039062 137.671875 304.609375 139.828125 308.117188 140.820312 C 310.726562 141.539062 314.597656 142.351562 320.179688 142.351562 C 329.449219 142.351562 335.117188 140.460938 341.417969 138.390625 L 341.867188 137.671875 C 341.777344 133.53125 341.597656 129.390625 341.597656 125.25 Z M 377.777344 107.609375 L 380.296875 92.941406 L 379.757812 92.308594 C 379.128906 92.308594 378.496094 92.21875 377.867188 92.21875 C 374.175781 92.21875 370.039062 94.289062 367.15625 100.949219 L 367.425781 92.671875 L 366.707031 91.949219 C 360.046875 93.390625 358.335938 93.660156 351.765625 94.648438 L 351.226562 95.191406 C 351.765625 101.941406 352.039062 105.988281 352.039062 118.5 C 352.039062 125.878906 351.945312 133.261719 351.765625 140.730469 L 352.308594 141.269531 C 358.96875 141 360.40625 140.910156 367.605469 141 L 368.058594 140.371094 C 367.695312 133.078125 367.15625 122.910156 367.15625 116.699219 C 367.15625 112.648438 367.15625 106.710938 373.277344 106.710938 C 374.808594 106.710938 375.707031 107.25 376.96875 107.96875 Z M 401.808594 140.371094 C 401.355469 133.441406 400.996094 128.128906 400.996094 115.710938 C 400.996094 108.058594 401.175781 100.320312 401.265625 92.671875 L 400.636719 91.949219 L 385.15625 94.648438 L 384.617188 95.191406 C 385.335938 102.03125 385.605469 105.179688 385.605469 117.960938 C 385.605469 127.769531 385.335938 133.261719 385.066406 140.640625 L 385.605469 141.269531 C 392.085938 141 393.886719 140.910156 401.175781 141 L 401.808594 140.371094 M 400.367188 83.308594 L 400.636719 71.070312 L 400.097656 70.53125 L 385.425781 72.328125 L 384.886719 72.960938 C 385.066406 76.199219 385.15625 78.089844 385.15625 80.25 C 385.15625 81.960938 385.15625 83.761719 385.066406 85.46875 L 385.695312 86.011719 C 391.816406 84.929688 393.527344 84.75 399.917969 83.941406 Z M 430.699219 109.949219 C 427.636719 108.871094 425.207031 107.878906 425.207031 105.359375 C 425.207031 104.28125 425.929688 101.308594 431.507812 101.308594 C 437 101.308594 440.507812 103.648438 442.757812 105.089844 L 443.570312 104.820312 L 444.46875 95.011719 L 444.019531 94.46875 C 439.789062 93.300781 436.097656 92.21875 430.25 92.21875 C 425.839844 92.21875 417.019531 92.578125 412.339844 99.328125 C 411.167969 100.949219 409.910156 103.648438 409.910156 107.25 C 409.910156 116.878906 417.378906 119.761719 421.609375 121.378906 L 425.027344 122.640625 C 427.457031 123.449219 431.417969 124.800781 431.417969 128.039062 C 431.417969 130.289062 429.347656 132.71875 424.308594 132.71875 C 421.789062 132.71875 418.097656 131.910156 414.769531 130.199219 C 413.238281 129.390625 412.519531 128.761719 411.167969 127.679688 L 410.359375 128.039062 C 410.179688 132.71875 410.089844 133.710938 409.726562 138.210938 L 410.179688 139.019531 C 414.589844 140.640625 418.367188 142.078125 424.9375 142.078125 C 431.777344 142.078125 445.277344 140.820312 446.898438 127.949219 C 446.988281 127.230469 446.988281 126.601562 446.988281 125.96875 C 446.988281 116.070312 440.058594 113.460938 435.109375 111.570312 Z M 480.109375 130.648438 C 478.578125 131.101562 477.496094 131.460938 475.96875 131.460938 C 471.378906 131.460938 471.019531 128.578125 470.835938 127.230469 C 470.566406 124.890625 470.566406 119.941406 470.65625 116.339844 L 470.835938 103.648438 L 478.9375 104.011719 L 479.476562 103.46875 L 480.378906 93.839844 L 479.835938 93.300781 L 470.835938 93.300781 L 471.109375 78.179688 L 470.476562 77.640625 C 464.359375 79.441406 462.738281 79.890625 456.347656 81.511719 L 455.988281 82.140625 L 456.078125 93.390625 L 451.21875 93.210938 L 450.679688 93.660156 L 449.867188 103.289062 L 450.40625 103.828125 L 456.078125 103.648438 L 455.808594 117.960938 C 455.71875 120.210938 455.628906 122.460938 455.628906 124.800781 C 455.628906 133.078125 455.808594 141.988281 469.847656 141.988281 C 473.359375 141.988281 476.148438 141.449219 479.296875 140.910156 L 479.929688 140.28125 L 480.828125 131.011719 Z M 582.078125 77.191406 C 572.71875 77.460938 571.1875 77.460938 561.199219 77.460938 L 560.660156 78 L 556.519531 92.578125 L 552.917969 105.628906 L 548.6875 121.289062 L 544.726562 105.179688 L 542.207031 95.011719 L 537.707031 77.730469 L 537.257812 77.191406 C 527.628906 77.460938 526.007812 77.460938 515.929688 77.460938 L 515.386719 78 C 514.488281 104.910156 514.128906 111.839844 512.148438 140.730469 L 512.597656 141.269531 C 518.359375 141 520.070312 140.910156 525.289062 141 L 525.828125 140.460938 L 526.097656 123.269531 L 526.636719 105.808594 L 527 88.800781 L 530.957031 104.730469 L 534.378906 117.511719 L 540.410156 140.730469 L 540.949219 141.269531 C 546.527344 141 548.058594 140.910156 554.359375 141 L 554.898438 140.460938 L 560.117188 121.289062 L 563.71875 108.148438 L 568.757812 89.25 L 568.757812 105.359375 L 568.9375 119.128906 L 568.9375 140.730469 L 569.386719 141.269531 C 575.597656 141 578.027344 140.910156 584.957031 141 L 585.410156 140.460938 C 584.867188 130.199219 584.238281 119.851562 583.878906 109.5 C 583.609375 103.828125 583.429688 98.160156 583.160156 92.488281 C 582.707031 84.121094 582.617188 83.039062 582.617188 77.730469 Z M 611.871094 140.371094 C 611.417969 133.441406 611.058594 128.128906 611.058594 115.710938 C 611.058594 108.058594 611.238281 100.320312 611.328125 92.671875 L 610.699219 91.949219 L 595.21875 94.648438 L 594.679688 95.191406 C 595.398438 102.03125 595.667969 105.179688 595.667969 117.960938 C 595.667969 127.769531 595.398438 133.261719 595.128906 140.640625 L 595.667969 141.269531 C 602.148438 141 603.949219 140.910156 611.238281 141 L 611.871094 140.371094 M 610.429688 83.308594 L 610.699219 71.070312 L 610.160156 70.53125 L 595.488281 72.328125 L 594.949219 72.960938 C 595.128906 76.199219 595.21875 78.089844 595.21875 80.25 C 595.21875 81.960938 595.21875 83.761719 595.128906 85.46875 L 595.757812 86.011719 C 601.878906 84.929688 603.589844 84.75 609.980469 83.941406 Z M 637.699219 140.371094 C 637.25 130.019531 636.800781 120.570312 636.800781 92.128906 C 636.800781 83.578125 636.890625 79.53125 637.25 69.808594 L 636.621094 69.179688 L 621.230469 71.609375 L 620.871094 72.148438 C 621.769531 83.128906 621.859375 86.101562 622.039062 100.679688 C 622.132812 105.988281 622.132812 111.300781 622.132812 116.609375 C 622.132812 126.328125 621.949219 131.730469 621.589844 140.640625 L 622.132812 141.269531 C 628.160156 141 630.589844 140.910156 637.160156 141 Z M 663.976562 140.371094 C 663.527344 130.019531 663.078125 120.570312 663.078125 92.128906 C 663.078125 83.578125 663.167969 79.53125 663.527344 69.808594 L 662.898438 69.179688 L 647.507812 71.609375 L 647.148438 72.148438 C 648.046875 83.128906 648.136719 86.101562 648.316406 100.679688 C 648.410156 105.988281 648.410156 111.300781 648.410156 116.609375 C 648.410156 126.328125 648.226562 131.730469 647.867188 140.640625 L 648.410156 141.269531 C 654.4375 141 656.867188 140.910156 663.4375 141 Z M 726.710938 102.300781 C 719.152344 99.148438 715.191406 97.53125 715.191406 93.480469 C 715.191406 90.691406 717.800781 87.179688 723.742188 87.179688 C 730.582031 87.179688 734.628906 89.96875 737.960938 92.21875 L 738.769531 91.859375 L 739.492188 80.070312 L 739.039062 79.441406 C 735.171875 77.820312 731.121094 76.109375 722.390625 76.109375 C 705.472656 76.109375 699.621094 85.648438 699.621094 95.28125 C 699.621094 106.171875 708.082031 110.128906 713.121094 112.558594 L 716.089844 113.910156 C 722.300781 116.519531 727.070312 118.769531 727.070312 123.539062 C 727.070312 126.960938 724.101562 131.011719 716.269531 131.011719 C 708.082031 131.011719 703.492188 127.410156 700.878906 125.339844 L 699.980469 125.609375 L 699.351562 138.300781 L 699.890625 139.019531 C 700.878906 139.378906 701.871094 139.828125 702.859375 140.101562 C 704.929688 140.820312 710.242188 142.351562 716.992188 142.351562 C 719.691406 142.351562 726.53125 142.078125 731.929688 139.558594 C 739.492188 135.871094 742.730469 129.03125 742.730469 121.378906 C 742.730469 116.25 740.75 110.761719 735.980469 107.070312 C 733.550781 105.269531 731.210938 104.191406 729.050781 103.199219 Z M 776.480469 130.648438 C 774.949219 131.101562 773.867188 131.460938 772.339844 131.460938 C 767.75 131.460938 767.390625 128.578125 767.207031 127.230469 C 766.9375 124.890625 766.9375 119.941406 767.027344 116.339844 L 767.207031 103.648438 L 775.308594 104.011719 L 775.847656 103.46875 L 776.75 93.839844 L 776.207031 93.300781 L 767.207031 93.300781 L 767.480469 78.179688 L 766.847656 77.640625 C 760.730469 79.441406 759.109375 79.890625 752.71875 81.511719 L 752.359375 82.140625 L 752.449219 93.390625 L 747.589844 93.210938 L 747.050781 93.660156 L 746.238281 103.289062 L 746.777344 103.828125 L 752.449219 103.648438 L 752.179688 117.960938 C 752.089844 120.210938 752 122.460938 752 124.800781 C 752 133.078125 752.179688 141.988281 766.21875 141.988281 C 769.730469 141.988281 772.519531 141.449219 775.667969 140.910156 L 776.300781 140.28125 L 777.199219 131.011719 Z M 823.1875 114.179688 C 823.277344 106.078125 823.277344 102.570312 820.9375 98.789062 C 819.136719 95.910156 815.539062 92.308594 804.019531 92.308594 C 796.277344 92.308594 791.507812 93.75 786.378906 95.28125 L 785.839844 96 L 785.386719 105.808594 L 786.109375 106.171875 C 789.257812 104.910156 795.109375 102.570312 801.136719 102.570312 C 804.46875 102.570312 805.816406 103.109375 806.988281 104.28125 C 807.886719 105.179688 808.160156 106.800781 808.160156 108.148438 C 797.359375 109.589844 792.316406 110.578125 786.917969 113.910156 C 781.878906 117.058594 780.167969 122.191406 780.167969 126.238281 C 780.167969 135.871094 787.097656 142.078125 795.917969 142.078125 C 802.667969 142.078125 806.539062 138.839844 808.429688 137.308594 L 808.429688 140.640625 L 808.96875 141.269531 C 815.449219 141 817.429688 140.910156 823.277344 141 L 823.726562 140.371094 C 823.097656 131.550781 823.097656 129.300781 823.097656 120.839844 L 823.1875 114.179688 M 808.339844 128.488281 C 806.449219 129.570312 804.019531 130.828125 801.046875 130.828125 C 797.808594 130.828125 795.109375 129.121094 795.109375 125.339844 C 795.109375 119.398438 802.21875 118.410156 808.339844 117.601562 Z M 858.921875 130.648438 C 857.390625 131.101562 856.308594 131.460938 854.78125 131.460938 C 850.191406 131.460938 849.832031 128.578125 849.648438 127.230469 C 849.378906 124.890625 849.378906 119.941406 849.46875 116.339844 L 849.648438 103.648438 L 857.75 104.011719 L 858.289062 103.46875 L 859.191406 93.839844 L 858.648438 93.300781 L 849.648438 93.300781 L 849.921875 78.179688 L 849.289062 77.640625 C 843.171875 79.441406 841.550781 79.890625 835.160156 81.511719 L 834.800781 82.140625 L 834.890625 93.390625 L 830.03125 93.210938 L 829.492188 93.660156 L 828.679688 103.289062 L 829.21875 103.828125 L 834.890625 103.648438 L 834.621094 117.960938 C 834.53125 120.210938 834.441406 122.460938 834.441406 124.800781 C 834.441406 133.078125 834.621094 141.988281 848.660156 141.988281 C 852.171875 141.988281 854.960938 141.449219 858.109375 140.910156 L 858.742188 140.28125 L 859.640625 131.011719 Z M 905.539062 127.679688 C 902.121094 129.480469 898.070312 131.550781 891.5 131.550781 C 886.101562 131.550781 882.410156 129.839844 880.25 126.601562 C 878.898438 124.710938 878.628906 122.910156 878.269531 121.109375 L 907.339844 120.570312 L 907.878906 119.941406 C 907.789062 115.53125 907.699219 111.03125 906.441406 106.53125 C 903.289062 95.910156 896.359375 93.75 893.300781 93.03125 C 891.050781 92.398438 888.980469 92.21875 886.910156 92.21875 C 872.78125 92.21875 863.417969 101.488281 863.417969 117.058594 C 863.417969 121.289062 864.140625 125.699219 865.578125 128.851562 C 870.800781 141 883.039062 142.078125 889.519531 142.078125 C 896.988281 142.078125 900.230469 140.730469 905 138.839844 L 905.539062 138.121094 L 906.167969 127.949219 L 905.539062 127.679688 M 878.269531 111.570312 C 878.539062 108.78125 879.167969 105 882.589844 102.839844 C 883.667969 102.121094 884.929688 101.851562 886.191406 101.851562 C 889.160156 101.851562 890.960938 103.378906 891.949219 105 C 893.210938 106.980469 893.300781 109.140625 893.300781 111.210938 Z M 910.757812 141 "/>
<path fill-rule="nonzero" fill="rgb(34.901961%, 14.901961%, 14.901961%)" fill-opacity="1" d="M 277.921875 197.191406 C 270.722656 197.460938 269.554688 197.460938 261.992188 197.460938 L 261.542969 198 C 262.171875 208.171875 262.171875 210.78125 262.261719 221.398438 C 258.304688 221.488281 254.34375 221.578125 250.292969 221.578125 C 247.144531 221.578125 243.902344 221.488281 240.753906 221.488281 L 240.933594 197.730469 L 240.484375 197.191406 C 233.554688 197.460938 232.203125 197.460938 224.375 197.460938 L 223.832031 198 C 224.285156 207.269531 224.824219 218.339844 224.824219 240.660156 C 224.824219 248.761719 224.644531 253.171875 224.464844 260.730469 L 224.914062 261.269531 C 231.484375 261 233.101562 260.910156 241.023438 261 L 241.472656 260.460938 C 240.933594 249.300781 240.84375 246.058594 240.753906 233.011719 C 244.714844 232.828125 248.042969 232.738281 251.554688 232.738281 C 255.152344 232.738281 258.753906 232.828125 262.351562 232.921875 C 262.535156 245.070312 262.535156 248.039062 262.082031 260.730469 L 262.535156 261.269531 C 269.285156 261 271.082031 260.910156 278.734375 261 L 279.183594 260.460938 C 278.464844 245.339844 278.191406 230.308594 278.191406 215.191406 C 278.191406 208.890625 278.285156 204.660156 278.375 197.730469 Z M 305.914062 260.371094 C 305.460938 253.441406 305.101562 248.128906 305.101562 235.710938 C 305.101562 228.058594 305.28125 220.320312 305.371094 212.671875 L 304.742188 211.949219 L 289.261719 214.648438 L 288.722656 215.191406 C 289.441406 222.03125 289.710938 225.179688 289.710938 237.960938 C 289.710938 247.769531 289.441406 253.261719 289.171875 260.640625 L 289.710938 261.269531 C 296.191406 261 297.992188 260.910156 305.28125 261 L 305.914062 260.371094 M 304.472656 203.308594 L 304.742188 191.070312 L 304.203125 190.53125 L 289.53125 192.328125 L 288.992188 192.960938 C 289.171875 196.199219 289.261719 198.089844 289.261719 200.25 C 289.261719 201.960938 289.261719 203.761719 289.171875 205.46875 L 289.800781 206.011719 C 295.921875 204.929688 297.632812 204.75 304.023438 203.941406 Z M 334.804688 229.949219 C 331.742188 228.871094 329.3125 227.878906 329.3125 225.359375 C 329.3125 224.28125 330.035156 221.308594 335.613281 221.308594 C 341.105469 221.308594 344.613281 223.648438 346.863281 225.089844 L 347.675781 224.820312 L 348.574219 215.011719 L 348.125 214.46875 C 343.894531 213.300781 340.203125 212.21875 334.355469 212.21875 C 329.945312 212.21875 321.125 212.578125 316.445312 219.328125 C 315.273438 220.949219 314.015625 223.648438 314.015625 227.25 C 314.015625 236.878906 321.484375 239.761719 325.714844 241.378906 L 329.132812 242.640625 C 331.5625 243.449219 335.523438 244.800781 335.523438 248.039062 C 335.523438 250.289062 333.453125 252.71875 328.414062 252.71875 C 325.894531 252.71875 322.203125 251.910156 318.875 250.199219 C 317.34375 249.390625 316.625 248.761719 315.273438 247.679688 L 314.464844 248.039062 C 314.285156 252.71875 314.195312 253.710938 313.832031 258.210938 L 314.285156 259.019531 C 318.695312 260.640625 322.472656 262.078125 329.042969 262.078125 C 335.882812 262.078125 349.382812 260.820312 351.003906 247.949219 C 351.09375 247.230469 351.09375 246.601562 351.09375 245.96875 C 351.09375 236.070312 344.164062 233.460938 339.214844 231.570312 Z M 384.214844 250.648438 C 382.683594 251.101562 381.601562 251.460938 380.074219 251.460938 C 375.484375 251.460938 375.125 248.578125 374.941406 247.230469 C 374.671875 244.890625 374.671875 239.941406 374.761719 236.339844 L 374.941406 223.648438 L 383.042969 224.011719 L 383.582031 223.46875 L 384.484375 213.839844 L 383.941406 213.300781 L 374.941406 213.300781 L 375.214844 198.179688 L 374.582031 197.640625 C 368.464844 199.441406 366.84375 199.890625 360.453125 201.511719 L 360.09375 202.140625 L 360.183594 213.390625 L 355.324219 213.210938 L 354.785156 213.660156 L 353.972656 223.289062 L 354.511719 223.828125 L 360.183594 223.648438 L 359.914062 237.960938 C 359.824219 240.210938 359.734375 242.460938 359.734375 244.800781 C 359.734375 253.078125 359.914062 261.988281 373.953125 261.988281 C 377.464844 261.988281 380.253906 261.449219 383.402344 260.910156 L 384.035156 260.28125 L 384.933594 251.011719 Z M 436.683594 237.058594 C 436.683594 233.550781 436.683594 218.96875 424.082031 214.019531 C 420.121094 212.488281 415.441406 212.308594 413.101562 212.308594 C 397.441406 212.308594 388.621094 220.679688 388.621094 237.238281 C 388.621094 243 389.523438 248.851562 392.851562 253.710938 C 395.191406 257.21875 399.601562 262.078125 412.472656 262.078125 C 431.550781 262.078125 436.683594 250.558594 436.683594 237.058594 M 421.113281 236.96875 C 421.113281 244.351562 420.121094 252.539062 412.652344 252.539062 C 410.3125 252.539062 408.691406 251.460938 407.613281 250.46875 C 406.082031 248.941406 404.371094 245.878906 404.371094 237.148438 C 404.371094 234.539062 404.371094 228.78125 406.171875 225.628906 C 407.523438 223.199219 409.863281 221.578125 412.742188 221.578125 C 415.261719 221.578125 417.332031 222.929688 418.503906 224.371094 C 420.664062 226.980469 421.113281 232.109375 421.113281 236.96875 Z M 471.242188 227.609375 L 473.761719 212.941406 L 473.222656 212.308594 C 472.59375 212.308594 471.960938 212.21875 471.332031 212.21875 C 467.640625 212.21875 463.503906 214.289062 460.621094 220.949219 L 460.890625 212.671875 L 460.171875 211.949219 C 453.511719 213.390625 451.800781 213.660156 445.230469 214.648438 L 444.691406 215.191406 C 445.230469 221.941406 445.503906 225.988281 445.503906 238.5 C 445.503906 245.878906 445.410156 253.261719 445.230469 260.730469 L 445.773438 261.269531 C 452.433594 261 453.871094 260.910156 461.070312 261 L 461.523438 260.371094 C 461.160156 253.078125 460.621094 242.910156 460.621094 236.699219 C 460.621094 232.648438 460.621094 226.710938 466.742188 226.710938 C 468.273438 226.710938 469.171875 227.25 470.433594 227.96875 Z M 495.273438 260.371094 C 494.820312 253.441406 494.460938 248.128906 494.460938 235.710938 C 494.460938 228.058594 494.640625 220.320312 494.730469 212.671875 L 494.101562 211.949219 L 478.621094 214.648438 L 478.082031 215.191406 C 478.800781 222.03125 479.070312 225.179688 479.070312 237.960938 C 479.070312 247.769531 478.800781 253.261719 478.53125 260.640625 L 479.070312 261.269531 C 485.550781 261 487.351562 260.910156 494.640625 261 L 495.273438 260.371094 M 493.832031 203.308594 L 494.101562 191.070312 L 493.5625 190.53125 L 478.890625 192.328125 L 478.351562 192.960938 C 478.53125 196.199219 478.621094 198.089844 478.621094 200.25 C 478.621094 201.960938 478.621094 203.761719 478.53125 205.46875 L 479.160156 206.011719 C 485.28125 204.929688 486.992188 204.75 493.382812 203.941406 Z M 540.453125 248.039062 C 538.023438 249.480469 535.683594 250.921875 531.09375 250.921875 C 520.921875 250.921875 518.851562 242.460938 518.851562 237.058594 C 518.851562 230.488281 521.734375 222.929688 530.464844 222.929688 C 534.421875 222.929688 536.582031 224.371094 539.285156 226.171875 L 540.183594 225.898438 C 540.542969 221.128906 540.632812 219.871094 541.351562 215.101562 L 540.902344 214.558594 C 536.941406 213.300781 533.523438 212.21875 528.304688 212.21875 C 507.152344 212.21875 503.011719 228.238281 503.011719 237.421875 C 503.011719 247.769531 508.414062 261.808594 528.664062 261.808594 C 533.433594 261.808594 536.492188 260.910156 540.273438 259.828125 L 540.8125 259.289062 L 541.171875 248.488281 Z M 586.714844 197.28125 L 575.285156 197.460938 L 574.742188 198 C 575.105469 209.699219 575.375 217.53125 575.375 227.878906 C 575.375 238.859375 575.105469 249.75 574.832031 260.730469 L 575.375 261.269531 C 582.035156 261 583.472656 260.910156 590.675781 261 L 591.125 260.460938 C 590.765625 250.648438 590.765625 248.398438 590.765625 239.21875 C 600.84375 239.308594 611.644531 239.308594 618.125 231.390625 C 620.644531 228.328125 622.804688 223.199219 622.804688 216.898438 C 622.804688 213.03125 621.902344 204.480469 614.433594 200.25 C 609.035156 197.101562 601.382812 197.101562 594.632812 197.101562 L 586.714844 197.28125 M 590.765625 208.171875 C 592.742188 208.078125 594.632812 208.078125 596.613281 208.078125 C 604.535156 208.261719 606.695312 212.308594 606.695312 217.53125 C 606.695312 218.789062 606.695312 224.011719 601.925781 226.621094 C 599.492188 227.96875 596.164062 228.148438 590.765625 228.148438 Z M 669.0625 234.179688 C 669.152344 226.078125 669.152344 222.570312 666.8125 218.789062 C 665.011719 215.910156 661.414062 212.308594 649.894531 212.308594 C 642.152344 212.308594 637.382812 213.75 632.253906 215.28125 L 631.714844 216 L 631.261719 225.808594 L 631.984375 226.171875 C 635.132812 224.910156 640.984375 222.570312 647.011719 222.570312 C 650.34375 222.570312 651.691406 223.109375 652.863281 224.28125 C 653.761719 225.179688 654.035156 226.800781 654.035156 228.148438 C 643.234375 229.589844 638.191406 230.578125 632.792969 233.910156 C 627.753906 237.058594 626.042969 242.191406 626.042969 246.238281 C 626.042969 255.871094 632.972656 262.078125 641.792969 262.078125 C 648.542969 262.078125 652.414062 258.839844 654.304688 257.308594 L 654.304688 260.640625 L 654.84375 261.269531 C 661.324219 261 663.304688 260.910156 669.152344 261 L 669.601562 260.371094 C 668.972656 251.550781 668.972656 249.300781 668.972656 240.839844 L 669.0625 234.179688 M 654.214844 248.488281 C 652.324219 249.570312 649.894531 250.828125 646.921875 250.828125 C 643.683594 250.828125 640.984375 249.121094 640.984375 245.339844 C 640.984375 239.398438 648.09375 238.410156 654.214844 237.601562 Z M 705.601562 227.609375 L 708.121094 212.941406 L 707.582031 212.308594 C 706.953125 212.308594 706.320312 212.21875 705.691406 212.21875 C 702 212.21875 697.863281 214.289062 694.980469 220.949219 L 695.25 212.671875 L 694.53125 211.949219 C 687.871094 213.390625 686.160156 213.660156 679.589844 214.648438 L 679.050781 215.191406 C 679.589844 221.941406 679.863281 225.988281 679.863281 238.5 C 679.863281 245.878906 679.769531 253.261719 679.589844 260.730469 L 680.132812 261.269531 C 686.792969 261 688.230469 260.910156 695.429688 261 L 695.882812 260.371094 C 695.519531 253.078125 694.980469 242.910156 694.980469 236.699219 C 694.980469 232.648438 694.980469 226.710938 701.101562 226.710938 C 702.632812 226.710938 703.53125 227.25 704.792969 227.96875 Z M 759.601562 259.828125 C 751.140625 245.519531 750.242188 243.898438 743.402344 231.570312 C 749.613281 223.109375 750.242188 222.210938 756.632812 214.019531 L 756.179688 213.121094 L 741.511719 213.300781 L 740.613281 213.929688 C 733.589844 226.078125 732.691406 227.519531 728.550781 233.730469 L 728.550781 223.738281 C 728.640625 206.910156 728.730469 203.308594 729.179688 189.71875 L 728.460938 189.179688 L 712.800781 191.519531 L 712.261719 192.148438 C 712.890625 200.878906 713.160156 205.109375 713.339844 216.898438 C 713.519531 231.480469 713.519531 246.058594 713.429688 260.640625 L 714.0625 261.269531 C 720.089844 261 721.800781 261 728.640625 261 L 729.179688 260.371094 L 728.640625 245.160156 L 728.550781 234.808594 C 736.382812 249.210938 737.371094 251.191406 741.960938 260.730469 L 742.769531 261.269531 L 758.972656 260.640625 Z M 758.523438 261 "/>
</svg>
