<?xml version="1.0" encoding="UTF-8"?>
<svg xmlns="http://www.w3.org/2000/svg" xmlns:xlink="http://www.w3.org/1999/xlink" width="975" height="1300" viewBox="0 0 975 1300">
<path fill-rule="nonzero" fill="rgb(98.823529%, 78.823529%, 9.019608%)" fill-opacity="1" d="M 50 50 L 925 50 L 925 290 L 50 290 Z M 50 50 "/>
<path fill-rule="nonzero" fill="rgb(34.901961%, 14.901961%, 14.901961%)" fill-opacity="1" d="M 183.023438 77.191406 C 174.382812 77.460938 172.582031 77.460938 162.953125 77.460938 L 162.320312 78 C 157.550781 93.300781 154.671875 102.390625 141.441406 140.371094 L 141.800781 141 L 155.839844 141 L 156.472656 140.460938 L 160.882812 124.078125 L 180.320312 124.078125 L 184.191406 140.730469 L 184.820312 141.269531 C 191.390625 141 193.191406 140.910156 200.480469 141 L 200.933594 140.28125 C 190.042969 101.761719 188.78125 97.53125 183.652344 77.730469 L 183.023438 77.191406 M 164.03125 113.191406 L 168.53125 97.980469 L 171.683594 87.449219 L 174.382812 99.148438 L 177.710938 113.191406 Z M 250.792969 140.371094 C 250.34375 132.449219 250.34375 129.929688 250.164062 121.109375 L 250.164062 114.089844 C 250.074219 105.449219 249.984375 101.308594 247.734375 97.621094 C 244.941406 92.941406 239.8125 92.21875 236.574219 92.21875 C 231.082031 92.21875 226.3125 95.101562 222.171875 97.53125 L 222.351562 92.578125 L 221.453125 91.949219 C 214.523438 93.390625 212.992188 93.660156 206.242188 94.558594 L 205.703125 95.191406 C 206.421875 103.019531 206.964844 108.691406 206.964844 123.359375 C 206.964844 129.121094 206.871094 134.878906 206.78125 140.640625 L 207.324219 141.179688 C 213.804688 140.910156 215.152344 140.910156 222.351562 140.910156 L 222.894531 140.371094 C 222.351562 126.511719 222.261719 123 222.171875 106.890625 C 224.0625 105.628906 226.222656 104.101562 229.101562 104.101562 C 234.054688 104.101562 234.503906 109.410156 234.773438 112.648438 C 234.953125 115.621094 235.042969 127.949219 235.042969 131.371094 C 235.042969 134.429688 234.953125 137.578125 234.953125 140.640625 L 235.492188 141.179688 C 241.433594 141 242.964844 140.910156 250.164062 140.910156 Z M 305.152344 140.460938 C 304.792969 132.359375 304.523438 126.960938 304.523438 115.171875 C 304.523438 91.410156 304.882812 81.601562 305.242188 69.71875 L 304.613281 69.179688 L 289.761719 71.519531 L 289.3125 72.058594 C 289.851562 80.519531 289.941406 82.769531 289.851562 93.03125 C 283.101562 92.851562 274.640625 92.671875 267.800781 98.070312 C 261.503906 102.929688 258.890625 110.398438 258.890625 119.671875 C 258.890625 126.691406 260.78125 133.710938 266.09375 138.121094 C 270.050781 141.359375 274.914062 142.078125 277.882812 142.078125 C 284.273438 142.078125 287.601562 139.109375 289.761719 137.21875 L 289.582031 140.730469 L 290.03125 141.269531 C 296.242188 141 297.953125 141 304.703125 141 L 305.152344 140.460938 M 289.851562 103.828125 C 289.941406 115.800781 289.851562 118.140625 289.582031 129.03125 C 287.78125 130.109375 285.980469 131.191406 283.460938 131.191406 C 274.730469 131.191406 274.730469 120.03125 274.730469 118.230469 C 274.730469 111.300781 276.710938 103.558594 286.792969 103.558594 C 287.78125 103.558594 288.59375 103.648438 289.851562 103.828125 Z M 355.371094 127.679688 C 351.953125 129.480469 347.902344 131.550781 341.332031 131.550781 C 335.933594 131.550781 332.242188 129.839844 330.082031 126.601562 C 328.730469 124.710938 328.460938 122.910156 328.101562 121.109375 L 357.171875 120.570312 L 357.710938 119.941406 C 357.621094 115.53125 357.53125 111.03125 356.273438 106.53125 C 353.121094 95.910156 346.191406 93.75 343.132812 93.03125 C 340.882812 92.398438 338.8125 92.21875 336.742188 92.21875 C 322.613281 92.21875 313.25 101.488281 313.25 117.058594 C 313.25 121.289062 313.972656 125.699219 315.410156 128.851562 C 320.632812 141 332.871094 142.078125 339.351562 142.078125 C 346.820312 142.078125 350.0625 140.730469 354.832031 138.839844 L 355.371094 138.121094 L 356 127.949219 L 355.371094 127.679688 M 328.101562 111.570312 C 328.371094 108.78125 329 105 332.421875 102.839844 C 333.5 102.121094 334.761719 101.851562 336.023438 101.851562 C 338.992188 101.851562 340.792969 103.378906 341.78125 105 C 343.042969 106.980469 343.132812 109.140625 343.132812 111.210938 Z M 392 107.609375 L 394.519531 92.941406 L 393.980469 92.308594 C 393.351562 92.308594 392.71875 92.21875 392.089844 92.21875 C 388.398438 92.21875 384.261719 94.289062 381.378906 100.949219 L 381.648438 92.671875 L 380.929688 91.949219 C 374.269531 93.390625 372.558594 93.660156 365.988281 94.648438 L 365.449219 95.191406 C 365.988281 101.941406 366.261719 105.988281 366.261719 118.5 C 366.261719 125.878906 366.167969 133.261719 365.988281 140.730469 L 366.53125 141.269531 C 373.191406 141 374.628906 140.910156 381.828125 141 L 382.28125 140.371094 C 381.917969 133.078125 381.378906 122.910156 381.378906 116.699219 C 381.378906 112.648438 381.378906 106.710938 387.5 106.710938 C 389.03125 106.710938 389.929688 107.25 391.191406 107.96875 Z M 418.640625 109.949219 C 415.578125 108.871094 413.148438 107.878906 413.148438 105.359375 C 413.148438 104.28125 413.871094 101.308594 419.449219 101.308594 C 424.941406 101.308594 428.449219 103.648438 430.699219 105.089844 L 431.511719 104.820312 L 432.410156 95.011719 L 431.960938 94.46875 C 427.730469 93.300781 424.039062 92.21875 418.191406 92.21875 C 413.78125 92.21875 404.960938 92.578125 400.28125 99.328125 C 399.109375 100.949219 397.851562 103.648438 397.851562 107.25 C 397.851562 116.878906 405.320312 119.761719 409.550781 121.378906 L 412.96875 122.640625 C 415.398438 123.449219 419.359375 124.800781 419.359375 128.039062 C 419.359375 130.289062 417.289062 132.71875 412.25 132.71875 C 409.730469 132.71875 406.039062 131.910156 402.710938 130.199219 C 401.179688 129.390625 400.460938 128.761719 399.109375 127.679688 L 398.300781 128.039062 C 398.121094 132.71875 398.03125 133.710938 397.667969 138.210938 L 398.121094 139.019531 C 402.53125 140.640625 406.308594 142.078125 412.878906 142.078125 C 419.71875 142.078125 433.21875 140.820312 434.839844 127.949219 C 434.929688 127.230469 434.929688 126.601562 434.929688 125.96875 C 434.929688 116.070312 428 113.460938 423.050781 111.570312 Z M 488.664062 117.058594 C 488.664062 113.550781 488.664062 98.96875 476.0625 94.019531 C 472.101562 92.488281 467.421875 92.308594 465.082031 92.308594 C 449.421875 92.308594 440.601562 100.679688 440.601562 117.238281 C 440.601562 123 441.503906 128.851562 444.832031 133.710938 C 447.171875 137.21875 451.582031 142.078125 464.453125 142.078125 C 483.53125 142.078125 488.664062 130.558594 488.664062 117.058594 M 473.09375 116.96875 C 473.09375 124.351562 472.101562 132.539062 464.632812 132.539062 C 462.292969 132.539062 460.671875 131.460938 459.59375 130.46875 C 458.0625 128.941406 456.351562 125.878906 456.351562 117.148438 C 456.351562 114.539062 456.351562 108.78125 458.152344 105.628906 C 459.503906 103.199219 461.84375 101.578125 464.722656 101.578125 C 467.242188 101.578125 469.3125 102.929688 470.484375 104.371094 C 472.644531 106.980469 473.09375 112.109375 473.09375 116.96875 Z M 541.3125 140.371094 C 540.863281 132.449219 540.863281 129.929688 540.683594 121.109375 L 540.683594 114.089844 C 540.59375 105.449219 540.503906 101.308594 538.253906 97.621094 C 535.460938 92.941406 530.332031 92.21875 527.09375 92.21875 C 521.601562 92.21875 516.832031 95.101562 512.691406 97.53125 L 512.871094 92.578125 L 511.972656 91.949219 C 505.042969 93.390625 503.511719 93.660156 496.761719 94.558594 L 496.222656 95.191406 C 496.941406 103.019531 497.484375 108.691406 497.484375 123.359375 C 497.484375 129.121094 497.390625 134.878906 497.300781 140.640625 L 497.84375 141.179688 C 504.324219 140.910156 505.671875 140.910156 512.871094 140.910156 L 513.414062 140.371094 C 512.871094 126.511719 512.78125 123 512.691406 106.890625 C 514.582031 105.628906 516.742188 104.101562 519.621094 104.101562 C 524.574219 104.101562 525.023438 109.410156 525.292969 112.648438 C 525.472656 115.621094 525.5625 127.949219 525.5625 131.371094 C 525.5625 134.429688 525.472656 137.578125 525.472656 140.640625 L 526.011719 141.179688 C 531.953125 141 533.484375 140.910156 540.683594 140.910156 Z M 646.882812 77.191406 C 637.523438 77.460938 635.992188 77.460938 626.003906 77.460938 L 625.464844 78 L 621.324219 92.578125 L 617.722656 105.628906 L 613.492188 121.289062 L 609.53125 105.179688 L 607.011719 95.011719 L 602.511719 77.730469 L 602.0625 77.191406 C 592.433594 77.460938 590.8125 77.460938 580.734375 77.460938 L 580.191406 78 C 579.292969 104.910156 578.933594 111.839844 576.953125 140.730469 L 577.402344 141.269531 C 583.164062 141 584.875 140.910156 590.09375 141 L 590.632812 140.460938 L 590.902344 123.269531 L 591.441406 105.808594 L 591.804688 88.800781 L 595.761719 104.730469 L 599.183594 117.511719 L 605.214844 140.730469 L 605.753906 141.269531 C 611.332031 141 612.863281 140.910156 619.164062 141 L 619.703125 140.460938 L 624.921875 121.289062 L 628.523438 108.148438 L 633.5625 89.25 L 633.5625 105.359375 L 633.742188 119.128906 L 633.742188 140.730469 L 634.191406 141.269531 C 640.402344 141 642.832031 140.910156 649.761719 141 L 650.214844 140.460938 C 649.671875 130.199219 649.042969 119.851562 648.683594 109.5 C 648.414062 103.828125 648.234375 98.160156 647.964844 92.488281 C 647.511719 84.121094 647.421875 83.039062 647.421875 77.730469 Z M 700.429688 114.179688 C 700.519531 106.078125 700.519531 102.570312 698.179688 98.789062 C 696.378906 95.910156 692.78125 92.308594 681.261719 92.308594 C 673.519531 92.308594 668.75 93.75 663.621094 95.28125 L 663.082031 96 L 662.628906 105.808594 L 663.351562 106.171875 C 666.5 104.910156 672.351562 102.570312 678.378906 102.570312 C 681.710938 102.570312 683.058594 103.109375 684.230469 104.28125 C 685.128906 105.179688 685.402344 106.800781 685.402344 108.148438 C 674.601562 109.589844 669.558594 110.578125 664.160156 113.910156 C 659.121094 117.058594 657.410156 122.191406 657.410156 126.238281 C 657.410156 135.871094 664.339844 142.078125 673.160156 142.078125 C 679.910156 142.078125 683.78125 138.839844 685.671875 137.308594 L 685.671875 140.640625 L 686.210938 141.269531 C 692.691406 141 694.671875 140.910156 700.519531 141 L 700.96875 140.371094 C 700.339844 131.550781 700.339844 129.300781 700.339844 120.839844 L 700.429688 114.179688 M 685.582031 128.488281 C 683.691406 129.570312 681.261719 130.828125 678.289062 130.828125 C 675.050781 130.828125 672.351562 129.121094 672.351562 125.339844 C 672.351562 119.398438 679.460938 118.410156 685.582031 117.601562 Z M 736.972656 107.609375 L 739.492188 92.941406 L 738.953125 92.308594 C 738.324219 92.308594 737.691406 92.21875 737.0625 92.21875 C 733.371094 92.21875 729.234375 94.289062 726.351562 100.949219 L 726.621094 92.671875 L 725.902344 91.949219 C 719.242188 93.390625 717.53125 93.660156 710.960938 94.648438 L 710.421875 95.191406 C 710.960938 101.941406 711.234375 105.988281 711.234375 118.5 C 711.234375 125.878906 711.140625 133.261719 710.960938 140.730469 L 711.503906 141.269531 C 718.164062 141 719.601562 140.910156 726.800781 141 L 727.253906 140.371094 C 726.890625 133.078125 726.351562 122.910156 726.351562 116.699219 C 726.351562 112.648438 726.351562 106.710938 732.472656 106.710938 C 734.003906 106.710938 734.902344 107.25 736.164062 107.96875 Z M 763.613281 109.949219 C 760.550781 108.871094 758.121094 107.878906 758.121094 105.359375 C 758.121094 104.28125 758.84375 101.308594 764.421875 101.308594 C 769.914062 101.308594 773.421875 103.648438 775.671875 105.089844 L 776.484375 104.820312 L 777.382812 95.011719 L 776.933594 94.46875 C 772.703125 93.300781 769.011719 92.21875 763.164062 92.21875 C 758.753906 92.21875 749.933594 92.578125 745.253906 99.328125 C 744.082031 100.949219 742.824219 103.648438 742.824219 107.25 C 742.824219 116.878906 750.292969 119.761719 754.523438 121.378906 L 757.941406 122.640625 C 760.371094 123.449219 764.332031 124.800781 764.332031 128.039062 C 764.332031 130.289062 762.261719 132.71875 757.222656 132.71875 C 754.703125 132.71875 751.011719 131.910156 747.683594 130.199219 C 746.152344 129.390625 745.433594 128.761719 744.082031 127.679688 L 743.273438 128.039062 C 743.09375 132.71875 743.003906 133.710938 742.640625 138.210938 L 743.09375 139.019531 C 747.503906 140.640625 751.28125 142.078125 757.851562 142.078125 C 764.691406 142.078125 778.191406 140.820312 779.8125 127.949219 C 779.902344 127.230469 779.902344 126.601562 779.902344 125.96875 C 779.902344 116.070312 772.972656 113.460938 768.023438 111.570312 Z M 831.921875 140.371094 C 831.5625 132.988281 831.472656 130.46875 831.292969 121.109375 L 831.292969 114.359375 C 831.203125 105.808594 831.113281 100.859375 828.5 97.078125 C 825.890625 93.390625 822.113281 92.21875 818.152344 92.21875 C 811.582031 92.21875 806.453125 95.371094 802.851562 97.53125 L 803.121094 69.808594 L 802.582031 69.179688 L 787.191406 71.609375 L 786.742188 72.148438 C 787.550781 80.878906 787.730469 84.121094 787.910156 95.730469 C 788.09375 103.019531 788.183594 110.308594 788.183594 117.601562 C 788.183594 126.511719 788 131.820312 787.820312 140.640625 L 788.273438 141.269531 C 794.933594 140.910156 796.28125 140.910156 803.570312 140.910156 L 804.113281 140.371094 C 803.480469 126.871094 803.390625 122.820312 803.300781 106.890625 C 805.011719 105.71875 807.171875 104.191406 810.230469 104.191406 C 815.183594 104.191406 815.542969 109.320312 815.902344 112.921875 C 816.082031 115.710938 816.171875 128.488281 816.171875 131.820312 C 816.171875 134.789062 816.082031 137.671875 816.082031 140.640625 L 816.53125 141.269531 C 823.011719 140.910156 824.453125 140.910156 831.382812 140.910156 Z M 836.78125 141 "/>
<path fill-rule="nonzero" fill="rgb(34.901961%, 14.901961%, 14.901961%)" fill-opacity="1" d="M 128.570312 222.300781 C 121.011719 219.148438 117.050781 217.53125 117.050781 213.480469 C 117.050781 210.691406 119.660156 207.179688 125.601562 207.179688 C 132.441406 207.179688 136.488281 209.96875 139.820312 212.21875 L 140.628906 211.859375 L 141.351562 200.070312 L 140.898438 199.441406 C 137.03125 197.820312 132.980469 196.109375 124.25 196.109375 C 107.332031 196.109375 101.480469 205.648438 101.480469 215.28125 C 101.480469 226.171875 109.941406 230.128906 114.980469 232.558594 L 117.949219 233.910156 C 124.160156 236.519531 128.929688 238.769531 128.929688 243.539062 C 128.929688 246.960938 125.960938 251.011719 118.128906 251.011719 C 109.941406 251.011719 105.351562 247.410156 102.738281 245.339844 L 101.839844 245.609375 L 101.210938 258.300781 L 101.75 259.019531 C 102.738281 259.378906 103.730469 259.828125 104.71875 260.101562 C 106.789062 260.820312 112.101562 262.351562 118.851562 262.351562 C 121.550781 262.351562 128.390625 262.078125 133.789062 259.558594 C 141.351562 255.871094 144.589844 249.03125 144.589844 241.378906 C 144.589844 236.25 142.609375 230.761719 137.839844 227.070312 C 135.410156 225.269531 133.070312 224.191406 130.910156 223.199219 Z M 178.339844 250.648438 C 176.808594 251.101562 175.726562 251.460938 174.199219 251.460938 C 169.609375 251.460938 169.25 248.578125 169.066406 247.230469 C 168.796875 244.890625 168.796875 239.941406 168.886719 236.339844 L 169.066406 223.648438 L 177.167969 224.011719 L 177.707031 223.46875 L 178.609375 213.839844 L 178.066406 213.300781 L 169.066406 213.300781 L 169.339844 198.179688 L 168.707031 197.640625 C 162.589844 199.441406 160.96875 199.890625 154.578125 201.511719 L 154.21875 202.140625 L 154.308594 213.390625 L 149.449219 213.210938 L 148.910156 213.660156 L 148.097656 223.289062 L 148.636719 223.828125 L 154.308594 223.648438 L 154.039062 237.960938 C 153.949219 240.210938 153.859375 242.460938 153.859375 244.800781 C 153.859375 253.078125 154.039062 261.988281 168.078125 261.988281 C 171.589844 261.988281 174.378906 261.449219 177.527344 260.910156 L 178.160156 260.28125 L 179.058594 251.011719 Z M 225.050781 234.179688 C 225.140625 226.078125 225.140625 222.570312 222.800781 218.789062 C 221 215.910156 217.402344 212.308594 205.882812 212.308594 C 198.140625 212.308594 193.371094 213.75 188.242188 215.28125 L 187.703125 216 L 187.25 225.808594 L 187.972656 226.171875 C 191.121094 224.910156 196.972656 222.570312 203 222.570312 C 206.332031 222.570312 207.679688 223.109375 208.851562 224.28125 C 209.75 225.179688 210.023438 226.800781 210.023438 228.148438 C 199.222656 229.589844 194.179688 230.578125 188.78125 233.910156 C 183.742188 237.058594 182.03125 242.191406 182.03125 246.238281 C 182.03125 255.871094 188.960938 262.078125 197.78125 262.078125 C 204.53125 262.078125 208.402344 258.839844 210.292969 257.308594 L 210.292969 260.640625 L 210.832031 261.269531 C 217.3125 261 219.292969 260.910156 225.140625 261 L 225.589844 260.371094 C 224.960938 251.550781 224.960938 249.300781 224.960938 240.839844 L 225.050781 234.179688 M 210.203125 248.488281 C 208.3125 249.570312 205.882812 250.828125 202.910156 250.828125 C 199.671875 250.828125 196.972656 249.121094 196.972656 245.339844 C 196.972656 239.398438 204.082031 238.410156 210.203125 237.601562 Z M 260.78125 250.648438 C 259.25 251.101562 258.167969 251.460938 256.640625 251.460938 C 252.050781 251.460938 251.691406 248.578125 251.507812 247.230469 C 251.238281 244.890625 251.238281 239.941406 251.328125 236.339844 L 251.507812 223.648438 L 259.609375 224.011719 L 260.148438 223.46875 L 261.050781 213.839844 L 260.507812 213.300781 L 251.507812 213.300781 L 251.78125 198.179688 L 251.148438 197.640625 C 245.03125 199.441406 243.410156 199.890625 237.019531 201.511719 L 236.660156 202.140625 L 236.75 213.390625 L 231.890625 213.210938 L 231.351562 213.660156 L 230.539062 223.289062 L 231.078125 223.828125 L 236.75 223.648438 L 236.480469 237.960938 C 236.390625 240.210938 236.300781 242.460938 236.300781 244.800781 C 236.300781 253.078125 236.480469 261.988281 250.519531 261.988281 C 254.03125 261.988281 256.820312 261.449219 259.96875 260.910156 L 260.601562 260.28125 L 261.5 251.011719 Z M 307.398438 247.679688 C 303.980469 249.480469 299.929688 251.550781 293.359375 251.550781 C 287.960938 251.550781 284.269531 249.839844 282.109375 246.601562 C 280.757812 244.710938 280.488281 242.910156 280.128906 241.109375 L 309.199219 240.570312 L 309.738281 239.941406 C 309.648438 235.53125 309.558594 231.03125 308.300781 226.53125 C 305.148438 215.910156 298.21875 213.75 295.160156 213.03125 C 292.910156 212.398438 290.839844 212.21875 288.769531 212.21875 C 274.640625 212.21875 265.277344 221.488281 265.277344 237.058594 C 265.277344 241.289062 266 245.699219 267.4375 248.851562 C 272.660156 261 284.898438 262.078125 291.378906 262.078125 C 298.847656 262.078125 302.089844 260.730469 306.859375 258.839844 L 307.398438 258.121094 L 308.027344 247.949219 L 307.398438 247.679688 M 280.128906 231.570312 C 280.398438 228.78125 281.027344 225 284.449219 222.839844 C 285.527344 222.121094 286.789062 221.851562 288.050781 221.851562 C 291.019531 221.851562 292.820312 223.378906 293.808594 225 C 295.070312 226.980469 295.160156 229.140625 295.160156 231.210938 Z M 398.207031 197.191406 C 391.007812 197.460938 389.839844 197.460938 382.277344 197.460938 L 381.828125 198 C 382.457031 208.171875 382.457031 210.78125 382.546875 221.398438 C 378.589844 221.488281 374.628906 221.578125 370.578125 221.578125 C 367.429688 221.578125 364.1875 221.488281 361.039062 221.488281 L 361.21875 197.730469 L 360.769531 197.191406 C 353.839844 197.460938 352.488281 197.460938 344.660156 197.460938 L 344.117188 198 C 344.570312 207.269531 345.109375 218.339844 345.109375 240.660156 C 345.109375 248.761719 344.929688 253.171875 344.75 260.730469 L 345.199219 261.269531 C 351.769531 261 353.386719 260.910156 361.308594 261 L 361.757812 260.460938 C 361.21875 249.300781 361.128906 246.058594 361.039062 233.011719 C 365 232.828125 368.328125 232.738281 371.839844 232.738281 C 375.4375 232.738281 379.039062 232.828125 382.636719 232.921875 C 382.820312 245.070312 382.820312 248.039062 382.367188 260.730469 L 382.820312 261.269531 C 389.570312 261 391.367188 260.910156 399.019531 261 L 399.46875 260.460938 C 398.75 245.339844 398.476562 230.308594 398.476562 215.191406 C 398.476562 208.890625 398.570312 204.660156 398.660156 197.730469 Z M 426.203125 260.371094 C 425.75 253.441406 425.390625 248.128906 425.390625 235.710938 C 425.390625 228.058594 425.570312 220.320312 425.660156 212.671875 L 425.03125 211.949219 L 409.550781 214.648438 L 409.011719 215.191406 C 409.730469 222.03125 410 225.179688 410 237.960938 C 410 247.769531 409.730469 253.261719 409.460938 260.640625 L 410 261.269531 C 416.480469 261 418.28125 260.910156 425.570312 261 L 426.203125 260.371094 M 424.761719 203.308594 L 425.03125 191.070312 L 424.492188 190.53125 L 409.820312 192.328125 L 409.28125 192.960938 C 409.460938 196.199219 409.550781 198.089844 409.550781 200.25 C 409.550781 201.960938 409.550781 203.761719 409.460938 205.46875 L 410.089844 206.011719 C 416.210938 204.929688 417.921875 204.75 424.3125 203.941406 Z M 455.089844 229.949219 C 452.027344 228.871094 449.597656 227.878906 449.597656 225.359375 C 449.597656 224.28125 450.320312 221.308594 455.898438 221.308594 C 461.390625 221.308594 464.898438 223.648438 467.148438 225.089844 L 467.960938 224.820312 L 468.859375 215.011719 L 468.410156 214.46875 C 464.179688 213.300781 460.488281 212.21875 454.640625 212.21875 C 450.230469 212.21875 441.410156 212.578125 436.730469 219.328125 C 435.558594 220.949219 434.300781 223.648438 434.300781 227.25 C 434.300781 236.878906 441.769531 239.761719 446 241.378906 L 449.417969 242.640625 C 451.847656 243.449219 455.808594 244.800781 455.808594 248.039062 C 455.808594 250.289062 453.738281 252.71875 448.699219 252.71875 C 446.179688 252.71875 442.488281 251.910156 439.160156 250.199219 C 437.628906 249.390625 436.910156 248.761719 435.558594 247.679688 L 434.75 248.039062 C 434.570312 252.71875 434.480469 253.710938 434.117188 258.210938 L 434.570312 259.019531 C 438.980469 260.640625 442.757812 262.078125 449.328125 262.078125 C 456.167969 262.078125 469.667969 260.820312 471.289062 247.949219 C 471.378906 247.230469 471.378906 246.601562 471.378906 245.96875 C 471.378906 236.070312 464.449219 233.460938 459.5 231.570312 Z M 504.5 250.648438 C 502.96875 251.101562 501.886719 251.460938 500.359375 251.460938 C 495.769531 251.460938 495.410156 248.578125 495.226562 247.230469 C 494.957031 244.890625 494.957031 239.941406 495.046875 236.339844 L 495.226562 223.648438 L 503.328125 224.011719 L 503.867188 223.46875 L 504.769531 213.839844 L 504.226562 213.300781 L 495.226562 213.300781 L 495.5 198.179688 L 494.867188 197.640625 C 488.75 199.441406 487.128906 199.890625 480.738281 201.511719 L 480.378906 202.140625 L 480.46875 213.390625 L 475.609375 213.210938 L 475.070312 213.660156 L 474.257812 223.289062 L 474.796875 223.828125 L 480.46875 223.648438 L 480.199219 237.960938 C 480.109375 240.210938 480.019531 242.460938 480.019531 244.800781 C 480.019531 253.078125 480.199219 261.988281 494.238281 261.988281 C 497.75 261.988281 500.539062 261.449219 503.6875 260.910156 L 504.320312 260.28125 L 505.21875 251.011719 Z M 556.972656 237.058594 C 556.972656 233.550781 556.972656 218.96875 544.371094 214.019531 C 540.410156 212.488281 535.730469 212.308594 533.390625 212.308594 C 517.730469 212.308594 508.910156 220.679688 508.910156 237.238281 C 508.910156 243 509.8125 248.851562 513.140625 253.710938 C 515.480469 257.21875 519.890625 262.078125 532.761719 262.078125 C 551.839844 262.078125 556.972656 250.558594 556.972656 237.058594 M 541.402344 236.96875 C 541.402344 244.351562 540.410156 252.539062 532.941406 252.539062 C 530.601562 252.539062 528.980469 251.460938 527.902344 250.46875 C 526.371094 248.941406 524.660156 245.878906 524.660156 237.148438 C 524.660156 234.539062 524.660156 228.78125 526.460938 225.628906 C 527.8125 223.199219 530.152344 221.578125 533.03125 221.578125 C 535.550781 221.578125 537.621094 222.929688 538.792969 224.371094 C 540.953125 226.980469 541.402344 232.109375 541.402344 236.96875 Z M 591.53125 227.609375 L 594.050781 212.941406 L 593.511719 212.308594 C 592.882812 212.308594 592.25 212.21875 591.621094 212.21875 C 587.929688 212.21875 583.792969 214.289062 580.910156 220.949219 L 581.179688 212.671875 L 580.460938 211.949219 C 573.800781 213.390625 572.089844 213.660156 565.519531 214.648438 L 564.980469 215.191406 C 565.519531 221.941406 565.792969 225.988281 565.792969 238.5 C 565.792969 245.878906 565.699219 253.261719 565.519531 260.730469 L 566.0625 261.269531 C 572.722656 261 574.160156 260.910156 581.359375 261 L 581.8125 260.371094 C 581.449219 253.078125 580.910156 242.910156 580.910156 236.699219 C 580.910156 232.648438 580.910156 226.710938 587.03125 226.710938 C 588.5625 226.710938 589.460938 227.25 590.722656 227.96875 Z M 615.5625 260.371094 C 615.109375 253.441406 614.75 248.128906 614.75 235.710938 C 614.75 228.058594 614.929688 220.320312 615.019531 212.671875 L 614.390625 211.949219 L 598.910156 214.648438 L 598.371094 215.191406 C 599.089844 222.03125 599.359375 225.179688 599.359375 237.960938 C 599.359375 247.769531 599.089844 253.261719 598.820312 260.640625 L 599.359375 261.269531 C 605.839844 261 607.640625 260.910156 614.929688 261 L 615.5625 260.371094 M 614.121094 203.308594 L 614.390625 191.070312 L 613.851562 190.53125 L 599.179688 192.328125 L 598.640625 192.960938 C 598.820312 196.199219 598.910156 198.089844 598.910156 200.25 C 598.910156 201.960938 598.910156 203.761719 598.820312 205.46875 L 599.449219 206.011719 C 605.570312 204.929688 607.28125 204.75 613.671875 203.941406 Z M 660.738281 248.039062 C 658.308594 249.480469 655.96875 250.921875 651.378906 250.921875 C 641.207031 250.921875 639.136719 242.460938 639.136719 237.058594 C 639.136719 230.488281 642.019531 222.929688 650.75 222.929688 C 654.707031 222.929688 656.867188 224.371094 659.570312 226.171875 L 660.46875 225.898438 C 660.828125 221.128906 660.917969 219.871094 661.636719 215.101562 L 661.1875 214.558594 C 657.226562 213.300781 653.808594 212.21875 648.589844 212.21875 C 627.4375 212.21875 623.296875 228.238281 623.296875 237.421875 C 623.296875 247.769531 628.699219 261.808594 648.949219 261.808594 C 653.71875 261.808594 656.777344 260.910156 660.558594 259.828125 L 661.097656 259.289062 L 661.457031 248.488281 Z M 707 197.28125 L 695.570312 197.460938 L 695.027344 198 C 695.390625 209.699219 695.660156 217.53125 695.660156 227.878906 C 695.660156 238.859375 695.390625 249.75 695.117188 260.730469 L 695.660156 261.269531 C 702.320312 261 703.757812 260.910156 710.960938 261 L 711.410156 260.460938 C 711.050781 250.648438 711.050781 248.398438 711.050781 239.21875 C 721.128906 239.308594 731.929688 239.308594 738.410156 231.390625 C 740.929688 228.328125 743.089844 223.199219 743.089844 216.898438 C 743.089844 213.03125 742.1875 204.480469 734.71875 200.25 C 729.320312 197.101562 721.667969 197.101562 714.917969 197.101562 L 707 197.28125 M 711.050781 208.171875 C 713.027344 208.078125 714.917969 208.078125 716.898438 208.078125 C 724.820312 208.261719 726.980469 212.308594 726.980469 217.53125 C 726.980469 218.789062 726.980469 224.011719 722.210938 226.621094 C 719.777344 227.96875 716.449219 228.148438 711.050781 228.148438 Z M 789.347656 234.179688 C 789.4375 226.078125 789.4375 222.570312 787.097656 218.789062 C 785.296875 215.910156 781.699219 212.308594 770.179688 212.308594 C 762.4375 212.308594 757.667969 213.75 752.539062 215.28125 L 752 216 L 751.546875 225.808594 L 752.269531 226.171875 C 755.417969 224.910156 761.269531 222.570312 767.296875 222.570312 C 770.628906 222.570312 771.976562 223.109375 773.148438 224.28125 C 774.046875 225.179688 774.320312 226.800781 774.320312 228.148438 C 763.519531 229.589844 758.476562 230.578125 753.078125 233.910156 C 748.039062 237.058594 746.328125 242.191406 746.328125 246.238281 C 746.328125 255.871094 753.257812 262.078125 762.078125 262.078125 C 768.828125 262.078125 772.699219 258.839844 774.589844 257.308594 L 774.589844 260.640625 L 775.128906 261.269531 C 781.609375 261 783.589844 260.910156 789.4375 261 L 789.886719 260.371094 C 789.257812 251.550781 789.257812 249.300781 789.257812 240.839844 L 789.347656 234.179688 M 774.5 248.488281 C 772.609375 249.570312 770.179688 250.828125 767.207031 250.828125 C 763.96875 250.828125 761.269531 249.121094 761.269531 245.339844 C 761.269531 239.398438 768.378906 238.410156 774.5 237.601562 Z M 825.890625 227.609375 L 828.410156 212.941406 L 827.871094 212.308594 C 827.242188 212.308594 826.609375 212.21875 825.980469 212.21875 C 822.289062 212.21875 818.152344 214.289062 815.269531 220.949219 L 815.539062 212.671875 L 814.820312 211.949219 C 808.160156 213.390625 806.449219 213.660156 799.878906 214.648438 L 799.339844 215.191406 C 799.878906 221.941406 800.152344 225.988281 800.152344 238.5 C 800.152344 245.878906 800.058594 253.261719 799.878906 260.730469 L 800.421875 261.269531 C 807.082031 261 808.519531 260.910156 815.71875 261 L 816.171875 260.371094 C 815.808594 253.078125 815.269531 242.910156 815.269531 236.699219 C 815.269531 232.648438 815.269531 226.710938 821.390625 226.710938 C 822.921875 226.710938 823.820312 227.25 825.082031 227.96875 Z M 879.890625 259.828125 C 871.429688 245.519531 870.53125 243.898438 863.691406 231.570312 C 869.902344 223.109375 870.53125 222.210938 876.921875 214.019531 L 876.46875 213.121094 L 861.800781 213.300781 L 860.902344 213.929688 C 853.878906 226.078125 852.980469 227.519531 848.839844 233.730469 L 848.839844 223.738281 C 848.929688 206.910156 849.019531 203.308594 849.46875 189.71875 L 848.75 189.179688 L 833.089844 191.519531 L 832.550781 192.148438 C 833.179688 200.878906 833.449219 205.109375 833.628906 216.898438 C 833.808594 231.480469 833.808594 246.058594 833.71875 260.640625 L 834.351562 261.269531 C 840.378906 261 842.089844 261 848.929688 261 L 849.46875 260.371094 L 848.929688 245.160156 L 848.839844 234.808594 C 856.671875 249.210938 857.660156 251.191406 862.25 260.730469 L 863.058594 261.269531 L 879.261719 260.640625 Z M 878.808594 261 "/>
</svg>
