<?xml version="1.0" encoding="UTF-8"?>
<svg xmlns="http://www.w3.org/2000/svg" xmlns:xlink="http://www.w3.org/1999/xlink" width="975" height="1300" viewBox="0 0 975 1300">
<path fill-rule="nonzero" fill="rgb(98.823529%, 78.823529%, 9.019608%)" fill-opacity="1" d="M 50 50 L 925 50 L 925 290 L 50 290 Z M 50 50 "/>
<path fill-rule="nonzero" fill="rgb(34.901961%, 14.901961%, 14.901961%)" fill-opacity="1" d="M 72.410156 141 C 80.78125 141.179688 91.128906 141.359375 97.878906 136.679688 C 103.820312 132.449219 105.441406 126.511719 105.441406 121.46875 C 105.441406 115.710938 103.007812 110.398438 97.878906 107.878906 C 96.167969 106.980469 94.191406 106.621094 92.300781 106.261719 C 95.359375 105 98.960938 103.378906 101.300781 98.609375 C 102.289062 96.539062 102.738281 94.378906 102.738281 92.308594 C 102.738281 89.429688 102.019531 85.46875 99.140625 82.230469 C 95.359375 78.179688 89.507812 77.101562 80.691406 77.101562 C 77.628906 77.101562 72.140625 77.191406 69.078125 77.28125 L 56.480469 77.460938 L 55.941406 78 C 56.300781 86.640625 56.390625 89.96875 56.390625 102.390625 C 56.390625 115.171875 56.300781 127.859375 56.121094 140.640625 L 56.75 141 L 72.410156 141 M 71.78125 113.640625 C 78.621094 113.460938 82.578125 113.460938 85.191406 114.988281 C 87.800781 116.609375 88.789062 119.488281 88.789062 122.371094 C 88.789062 126.421875 86.539062 128.941406 83.210938 130.109375 C 80.507812 131.011719 75.648438 131.011719 71.78125 130.921875 L 71.78125 113.640625 M 71.78125 87.179688 C 73.667969 87.179688 76.191406 87.089844 77.71875 87.089844 C 82.578125 87.089844 86.988281 88.800781 86.988281 94.648438 C 86.988281 99.421875 83.480469 101.398438 82.398438 101.941406 C 80.148438 102.929688 75.378906 102.929688 71.78125 102.929688 Z M 139.820312 107.609375 L 142.339844 92.941406 L 141.800781 92.308594 C 141.171875 92.308594 140.539062 92.21875 139.910156 92.21875 C 136.21875 92.21875 132.082031 94.289062 129.199219 100.949219 L 129.46875 92.671875 L 128.75 91.949219 C 122.089844 93.390625 120.378906 93.660156 113.808594 94.648438 L 113.269531 95.191406 C 113.808594 101.941406 114.082031 105.988281 114.082031 118.5 C 114.082031 125.878906 113.988281 133.261719 113.808594 140.730469 L 114.351562 141.269531 C 121.011719 141 122.449219 140.910156 129.648438 141 L 130.101562 140.371094 C 129.738281 133.078125 129.199219 122.910156 129.199219 116.699219 C 129.199219 112.648438 129.199219 106.710938 135.320312 106.710938 C 136.851562 106.710938 137.75 107.25 139.011719 107.96875 Z M 187.609375 114.179688 C 187.699219 106.078125 187.699219 102.570312 185.359375 98.789062 C 183.558594 95.910156 179.960938 92.308594 168.441406 92.308594 C 160.699219 92.308594 155.929688 93.75 150.800781 95.28125 L 150.261719 96 L 149.808594 105.808594 L 150.53125 106.171875 C 153.679688 104.910156 159.53125 102.570312 165.558594 102.570312 C 168.890625 102.570312 170.238281 103.109375 171.410156 104.28125 C 172.308594 105.179688 172.582031 106.800781 172.582031 108.148438 C 161.78125 109.589844 156.738281 110.578125 151.339844 113.910156 C 146.300781 117.058594 144.589844 122.191406 144.589844 126.238281 C 144.589844 135.871094 151.519531 142.078125 160.339844 142.078125 C 167.089844 142.078125 170.960938 138.839844 172.851562 137.308594 L 172.851562 140.640625 L 173.390625 141.269531 C 179.871094 141 181.851562 140.910156 187.699219 141 L 188.148438 140.371094 C 187.519531 131.550781 187.519531 129.300781 187.519531 120.839844 L 187.609375 114.179688 M 172.761719 128.488281 C 170.871094 129.570312 168.441406 130.828125 165.46875 130.828125 C 162.230469 130.828125 159.53125 129.121094 159.53125 125.339844 C 159.53125 119.398438 166.640625 118.410156 172.761719 117.601562 Z M 242.238281 140.371094 C 241.789062 132.449219 241.789062 129.929688 241.609375 121.109375 L 241.609375 114.089844 C 241.519531 105.449219 241.429688 101.308594 239.179688 97.621094 C 236.386719 92.941406 231.257812 92.21875 228.019531 92.21875 C 222.527344 92.21875 217.757812 95.101562 213.617188 97.53125 L 213.796875 92.578125 L 212.898438 91.949219 C 205.96875 93.390625 204.4375 93.660156 197.6875 94.558594 L 197.148438 95.191406 C 197.867188 103.019531 198.410156 108.691406 198.410156 123.359375 C 198.410156 129.121094 198.316406 134.878906 198.226562 140.640625 L 198.769531 141.179688 C 205.25 140.910156 206.597656 140.910156 213.796875 140.910156 L 214.339844 140.371094 C 213.796875 126.511719 213.707031 123 213.617188 106.890625 C 215.507812 105.628906 217.667969 104.101562 220.546875 104.101562 C 225.5 104.101562 225.949219 109.410156 226.21875 112.648438 C 226.398438 115.621094 226.488281 127.949219 226.488281 131.371094 C 226.488281 134.429688 226.398438 137.578125 226.398438 140.640625 L 226.9375 141.179688 C 232.878906 141 234.410156 140.910156 241.609375 140.910156 Z M 296.597656 140.371094 C 296.148438 132.449219 296.148438 129.929688 295.96875 121.109375 L 295.96875 114.089844 C 295.878906 105.449219 295.789062 101.308594 293.539062 97.621094 C 290.746094 92.941406 285.617188 92.21875 282.378906 92.21875 C 276.886719 92.21875 272.117188 95.101562 267.976562 97.53125 L 268.15625 92.578125 L 267.257812 91.949219 C 260.328125 93.390625 258.796875 93.660156 252.046875 94.558594 L 251.507812 95.191406 C 252.226562 103.019531 252.769531 108.691406 252.769531 123.359375 C 252.769531 129.121094 252.675781 134.878906 252.585938 140.640625 L 253.128906 141.179688 C 259.609375 140.910156 260.957031 140.910156 268.15625 140.910156 L 268.699219 140.371094 C 268.15625 126.511719 268.066406 123 267.976562 106.890625 C 269.867188 105.628906 272.027344 104.101562 274.90625 104.101562 C 279.859375 104.101562 280.308594 109.410156 280.578125 112.648438 C 280.757812 115.621094 280.847656 127.949219 280.847656 131.371094 C 280.847656 134.429688 280.757812 137.578125 280.757812 140.640625 L 281.296875 141.179688 C 287.238281 141 288.769531 140.910156 295.96875 140.910156 Z M 346.910156 114.179688 C 347 106.078125 347 102.570312 344.660156 98.789062 C 342.859375 95.910156 339.261719 92.308594 327.742188 92.308594 C 320 92.308594 315.230469 93.75 310.101562 95.28125 L 309.5625 96 L 309.109375 105.808594 L 309.832031 106.171875 C 312.980469 104.910156 318.832031 102.570312 324.859375 102.570312 C 328.191406 102.570312 329.539062 103.109375 330.710938 104.28125 C 331.609375 105.179688 331.882812 106.800781 331.882812 108.148438 C 321.082031 109.589844 316.039062 110.578125 310.640625 113.910156 C 305.601562 117.058594 303.890625 122.191406 303.890625 126.238281 C 303.890625 135.871094 310.820312 142.078125 319.640625 142.078125 C 326.390625 142.078125 330.261719 138.839844 332.152344 137.308594 L 332.152344 140.640625 L 332.691406 141.269531 C 339.171875 141 341.152344 140.910156 347 141 L 347.449219 140.371094 C 346.820312 131.550781 346.820312 129.300781 346.820312 120.839844 L 346.910156 114.179688 M 332.0625 128.488281 C 330.171875 129.570312 327.742188 130.828125 324.769531 130.828125 C 321.53125 130.828125 318.832031 129.121094 318.832031 125.339844 C 318.832031 119.398438 325.941406 118.410156 332.0625 117.601562 Z M 401.539062 140.371094 C 401.089844 132.449219 401.089844 129.929688 400.910156 121.109375 L 400.910156 114.089844 C 400.820312 105.449219 400.730469 101.308594 398.480469 97.621094 C 395.6875 92.941406 390.558594 92.21875 387.320312 92.21875 C 381.828125 92.21875 377.058594 95.101562 372.917969 97.53125 L 373.097656 92.578125 L 372.199219 91.949219 C 365.269531 93.390625 363.738281 93.660156 356.988281 94.558594 L 356.449219 95.191406 C 357.167969 103.019531 357.710938 108.691406 357.710938 123.359375 C 357.710938 129.121094 357.617188 134.878906 357.527344 140.640625 L 358.070312 141.179688 C 364.550781 140.910156 365.898438 140.910156 373.097656 140.910156 L 373.640625 140.371094 C 373.097656 126.511719 373.007812 123 372.917969 106.890625 C 374.808594 105.628906 376.96875 104.101562 379.847656 104.101562 C 384.800781 104.101562 385.25 109.410156 385.519531 112.648438 C 385.699219 115.621094 385.789062 127.949219 385.789062 131.371094 C 385.789062 134.429688 385.699219 137.578125 385.699219 140.640625 L 386.238281 141.179688 C 392.179688 141 393.710938 140.910156 400.910156 140.910156 Z M 454.730469 77.191406 C 446.988281 77.550781 444.917969 77.550781 438.441406 77.460938 L 438.078125 78 C 438.621094 87.71875 438.890625 92.308594 438.890625 115.261719 C 438.890625 125.878906 438.710938 131.371094 438.351562 140.730469 L 438.800781 141.269531 C 445.550781 141 447.351562 141 454.820312 141 L 455.359375 140.460938 C 454.910156 132.179688 454.730469 128.039062 454.730469 114.988281 C 454.730469 102.570312 454.910156 90.148438 455.179688 77.730469 Z M 485.148438 109.949219 C 482.085938 108.871094 479.65625 107.878906 479.65625 105.359375 C 479.65625 104.28125 480.378906 101.308594 485.957031 101.308594 C 491.449219 101.308594 494.957031 103.648438 497.207031 105.089844 L 498.019531 104.820312 L 498.917969 95.011719 L 498.46875 94.46875 C 494.238281 93.300781 490.546875 92.21875 484.699219 92.21875 C 480.289062 92.21875 471.46875 92.578125 466.789062 99.328125 C 465.617188 100.949219 464.359375 103.648438 464.359375 107.25 C 464.359375 116.878906 471.828125 119.761719 476.058594 121.378906 L 479.476562 122.640625 C 481.90625 123.449219 485.867188 124.800781 485.867188 128.039062 C 485.867188 130.289062 483.796875 132.71875 478.757812 132.71875 C 476.238281 132.71875 472.546875 131.910156 469.21875 130.199219 C 467.6875 129.390625 466.96875 128.761719 465.617188 127.679688 L 464.808594 128.039062 C 464.628906 132.71875 464.539062 133.710938 464.175781 138.210938 L 464.628906 139.019531 C 469.039062 140.640625 472.816406 142.078125 479.386719 142.078125 C 486.226562 142.078125 499.726562 140.820312 501.347656 127.949219 C 501.4375 127.230469 501.4375 126.601562 501.4375 125.96875 C 501.4375 116.070312 494.507812 113.460938 489.558594 111.570312 Z M 525.199219 140.371094 C 524.75 130.019531 524.300781 120.570312 524.300781 92.128906 C 524.300781 83.578125 524.390625 79.53125 524.75 69.808594 L 524.121094 69.179688 L 508.730469 71.609375 L 508.371094 72.148438 C 509.269531 83.128906 509.359375 86.101562 509.539062 100.679688 C 509.632812 105.988281 509.632812 111.300781 509.632812 116.609375 C 509.632812 126.328125 509.449219 131.730469 509.089844 140.640625 L 509.632812 141.269531 C 515.660156 141 518.089844 140.910156 524.660156 141 Z M 575.6875 114.179688 C 575.777344 106.078125 575.777344 102.570312 573.4375 98.789062 C 571.636719 95.910156 568.039062 92.308594 556.519531 92.308594 C 548.777344 92.308594 544.007812 93.75 538.878906 95.28125 L 538.339844 96 L 537.886719 105.808594 L 538.609375 106.171875 C 541.757812 104.910156 547.609375 102.570312 553.636719 102.570312 C 556.96875 102.570312 558.316406 103.109375 559.488281 104.28125 C 560.386719 105.179688 560.660156 106.800781 560.660156 108.148438 C 549.859375 109.589844 544.816406 110.578125 539.417969 113.910156 C 534.378906 117.058594 532.667969 122.191406 532.667969 126.238281 C 532.667969 135.871094 539.597656 142.078125 548.417969 142.078125 C 555.167969 142.078125 559.039062 138.839844 560.929688 137.308594 L 560.929688 140.640625 L 561.46875 141.269531 C 567.949219 141 569.929688 140.910156 575.777344 141 L 576.226562 140.371094 C 575.597656 131.550781 575.597656 129.300781 575.597656 120.839844 L 575.6875 114.179688 M 560.839844 128.488281 C 558.949219 129.570312 556.519531 130.828125 553.546875 130.828125 C 550.308594 130.828125 547.609375 129.121094 547.609375 125.339844 C 547.609375 119.398438 554.71875 118.410156 560.839844 117.601562 Z M 630.320312 140.371094 C 629.871094 132.449219 629.871094 129.929688 629.691406 121.109375 L 629.691406 114.089844 C 629.601562 105.449219 629.511719 101.308594 627.261719 97.621094 C 624.46875 92.941406 619.339844 92.21875 616.101562 92.21875 C 610.609375 92.21875 605.839844 95.101562 601.699219 97.53125 L 601.878906 92.578125 L 600.980469 91.949219 C 594.050781 93.390625 592.519531 93.660156 585.769531 94.558594 L 585.230469 95.191406 C 585.949219 103.019531 586.492188 108.691406 586.492188 123.359375 C 586.492188 129.121094 586.398438 134.878906 586.308594 140.640625 L 586.851562 141.179688 C 593.332031 140.910156 594.679688 140.910156 601.878906 140.910156 L 602.421875 140.371094 C 601.878906 126.511719 601.789062 123 601.699219 106.890625 C 603.589844 105.628906 605.75 104.101562 608.628906 104.101562 C 613.582031 104.101562 614.03125 109.410156 614.300781 112.648438 C 614.480469 115.621094 614.570312 127.949219 614.570312 131.371094 C 614.570312 134.429688 614.480469 137.578125 614.480469 140.640625 L 615.019531 141.179688 C 620.960938 141 622.492188 140.910156 629.691406 140.910156 Z M 684.679688 140.460938 C 684.320312 132.359375 684.050781 126.960938 684.050781 115.171875 C 684.050781 91.410156 684.410156 81.601562 684.769531 69.71875 L 684.140625 69.179688 L 669.289062 71.519531 L 668.839844 72.058594 C 669.378906 80.519531 669.46875 82.769531 669.378906 93.03125 C 662.628906 92.851562 654.167969 92.671875 647.328125 98.070312 C 641.03125 102.929688 638.417969 110.398438 638.417969 119.671875 C 638.417969 126.691406 640.308594 133.710938 645.621094 138.121094 C 649.578125 141.359375 654.441406 142.078125 657.410156 142.078125 C 663.800781 142.078125 667.128906 139.109375 669.289062 137.21875 L 669.109375 140.730469 L 669.558594 141.269531 C 675.769531 141 677.480469 141 684.230469 141 L 684.679688 140.460938 M 669.378906 103.828125 C 669.46875 115.800781 669.378906 118.140625 669.109375 129.03125 C 667.308594 130.109375 665.507812 131.191406 662.988281 131.191406 C 654.257812 131.191406 654.257812 120.03125 654.257812 118.230469 C 654.257812 111.300781 656.238281 103.558594 666.320312 103.558594 C 667.308594 103.558594 668.121094 103.648438 669.378906 103.828125 Z M 747.230469 102.300781 C 739.671875 99.148438 735.710938 97.53125 735.710938 93.480469 C 735.710938 90.691406 738.320312 87.179688 744.261719 87.179688 C 751.101562 87.179688 755.148438 89.96875 758.480469 92.21875 L 759.289062 91.859375 L 760.011719 80.070312 L 759.558594 79.441406 C 755.691406 77.820312 751.640625 76.109375 742.910156 76.109375 C 725.992188 76.109375 720.140625 85.648438 720.140625 95.28125 C 720.140625 106.171875 728.601562 110.128906 733.640625 112.558594 L 736.609375 113.910156 C 742.820312 116.519531 747.589844 118.769531 747.589844 123.539062 C 747.589844 126.960938 744.621094 131.011719 736.789062 131.011719 C 728.601562 131.011719 724.011719 127.410156 721.398438 125.339844 L 720.5 125.609375 L 719.871094 138.300781 L 720.410156 139.019531 C 721.398438 139.378906 722.390625 139.828125 723.378906 140.101562 C 725.449219 140.820312 730.761719 142.351562 737.511719 142.351562 C 740.210938 142.351562 747.050781 142.078125 752.449219 139.558594 C 760.011719 135.871094 763.25 129.03125 763.25 121.378906 C 763.25 116.25 761.269531 110.761719 756.5 107.070312 C 754.070312 105.269531 751.730469 104.191406 749.570312 103.199219 Z M 797 130.648438 C 795.46875 131.101562 794.386719 131.460938 792.859375 131.460938 C 788.269531 131.460938 787.910156 128.578125 787.726562 127.230469 C 787.457031 124.890625 787.457031 119.941406 787.546875 116.339844 L 787.726562 103.648438 L 795.828125 104.011719 L 796.367188 103.46875 L 797.269531 93.839844 L 796.726562 93.300781 L 787.726562 93.300781 L 788 78.179688 L 787.367188 77.640625 C 781.25 79.441406 779.628906 79.890625 773.238281 81.511719 L 772.878906 82.140625 L 772.96875 93.390625 L 768.109375 93.210938 L 767.570312 93.660156 L 766.757812 103.289062 L 767.296875 103.828125 L 772.96875 103.648438 L 772.699219 117.960938 C 772.609375 120.210938 772.519531 122.460938 772.519531 124.800781 C 772.519531 133.078125 772.699219 141.988281 786.738281 141.988281 C 790.25 141.988281 793.039062 141.449219 796.1875 140.910156 L 796.820312 140.28125 L 797.71875 131.011719 Z M 843.707031 114.179688 C 843.796875 106.078125 843.796875 102.570312 841.457031 98.789062 C 839.65625 95.910156 836.058594 92.308594 824.539062 92.308594 C 816.796875 92.308594 812.027344 93.75 806.898438 95.28125 L 806.359375 96 L 805.90625 105.808594 L 806.628906 106.171875 C 809.777344 104.910156 815.628906 102.570312 821.65625 102.570312 C 824.988281 102.570312 826.335938 103.109375 827.507812 104.28125 C 828.40625 105.179688 828.679688 106.800781 828.679688 108.148438 C 817.878906 109.589844 812.835938 110.578125 807.4375 113.910156 C 802.398438 117.058594 800.6875 122.191406 800.6875 126.238281 C 800.6875 135.871094 807.617188 142.078125 816.4375 142.078125 C 823.1875 142.078125 827.058594 138.839844 828.949219 137.308594 L 828.949219 140.640625 L 829.488281 141.269531 C 835.96875 141 837.949219 140.910156 843.796875 141 L 844.246094 140.371094 C 843.617188 131.550781 843.617188 129.300781 843.617188 120.839844 L 843.707031 114.179688 M 828.859375 128.488281 C 826.96875 129.570312 824.539062 130.828125 821.566406 130.828125 C 818.328125 130.828125 815.628906 129.121094 815.628906 125.339844 C 815.628906 119.398438 822.738281 118.410156 828.859375 117.601562 Z M 879.441406 130.648438 C 877.910156 131.101562 876.828125 131.460938 875.300781 131.460938 C 870.710938 131.460938 870.351562 128.578125 870.167969 127.230469 C 869.898438 124.890625 869.898438 119.941406 869.988281 116.339844 L 870.167969 103.648438 L 878.269531 104.011719 L 878.808594 103.46875 L 879.710938 93.839844 L 879.167969 93.300781 L 870.167969 93.300781 L 870.441406 78.179688 L 869.808594 77.640625 C 863.691406 79.441406 862.070312 79.890625 855.679688 81.511719 L 855.320312 82.140625 L 855.410156 93.390625 L 850.550781 93.210938 L 850.011719 93.660156 L 849.199219 103.289062 L 849.738281 103.828125 L 855.410156 103.648438 L 855.140625 117.960938 C 855.050781 120.210938 854.960938 122.460938 854.960938 124.800781 C 854.960938 133.078125 855.140625 141.988281 869.179688 141.988281 C 872.691406 141.988281 875.480469 141.449219 878.628906 140.910156 L 879.261719 140.28125 L 880.160156 131.011719 Z M 926.058594 127.679688 C 922.640625 129.480469 918.589844 131.550781 912.019531 131.550781 C 906.621094 131.550781 902.929688 129.839844 900.769531 126.601562 C 899.417969 124.710938 899.148438 122.910156 898.789062 121.109375 L 927.859375 120.570312 L 928.398438 119.941406 C 928.308594 115.53125 928.21875 111.03125 926.960938 106.53125 C 923.808594 95.910156 916.878906 93.75 913.820312 93.03125 C 911.570312 92.398438 909.5 92.21875 907.429688 92.21875 C 893.300781 92.21875 883.9375 101.488281 883.9375 117.058594 C 883.9375 121.289062 884.660156 125.699219 886.097656 128.851562 C 891.320312 141 903.558594 142.078125 910.039062 142.078125 C 917.507812 142.078125 920.75 140.730469 925.519531 138.839844 L 926.058594 138.121094 L 926.6875 127.949219 L 926.058594 127.679688 M 898.789062 111.570312 C 899.058594 108.78125 899.6875 105 903.109375 102.839844 C 904.1875 102.121094 905.449219 101.851562 906.710938 101.851562 C 909.679688 101.851562 911.480469 103.378906 912.46875 105 C 913.730469 106.980469 913.820312 109.140625 913.820312 111.210938 Z M 931.28125 141 "/>
<path fill-rule="nonzero" fill="rgb(34.901961%, 14.901961%, 14.901961%)" fill-opacity="1" d="M 180.769531 236.25 C 186.800781 246.511719 188.152344 249.210938 193.910156 261 L 194.632812 261.449219 C 197.421875 261.269531 200.121094 261.089844 202.910156 261 C 205.703125 260.910156 208.582031 260.820312 211.371094 260.820312 L 211.910156 259.738281 C 208.492188 255.328125 207.5 253.980469 201.019531 243.628906 C 198.140625 239.039062 196.703125 236.609375 194.453125 232.648438 C 198.5 230.851562 206.691406 227.070312 206.691406 215.640625 C 206.691406 211.679688 205.609375 203.488281 198.230469 199.621094 C 193.550781 197.191406 188.691406 197.101562 178.160156 197.28125 L 171.859375 197.371094 L 160.882812 197.371094 L 160.429688 197.910156 C 160.792969 207 161.152344 216.359375 161.152344 240.839844 C 161.152344 249.210938 161.0625 253.261719 160.792969 260.730469 L 161.332031 261.269531 C 167.902344 261 169.339844 260.910156 176.722656 261 L 177.261719 260.460938 C 176.542969 250.019531 176.453125 247.140625 176.359375 236.429688 L 180.769531 236.25 M 176.542969 208.261719 C 177.800781 208.171875 179.0625 208.171875 180.320312 208.171875 C 183.832031 208.171875 190.761719 208.171875 190.761719 216.089844 C 190.761719 218.609375 190.132812 221.941406 186.800781 224.011719 C 184.28125 225.539062 181.042969 225.71875 176.542969 225.808594 Z M 256.640625 247.679688 C 253.222656 249.480469 249.171875 251.550781 242.601562 251.550781 C 237.203125 251.550781 233.511719 249.839844 231.351562 246.601562 C 230 244.710938 229.730469 242.910156 229.371094 241.109375 L 258.441406 240.570312 L 258.980469 239.941406 C 258.890625 235.53125 258.800781 231.03125 257.542969 226.53125 C 254.390625 215.910156 247.460938 213.75 244.402344 213.03125 C 242.152344 212.398438 240.082031 212.21875 238.011719 212.21875 C 223.882812 212.21875 214.519531 221.488281 214.519531 237.058594 C 214.519531 241.289062 215.242188 245.699219 216.679688 248.851562 C 221.902344 261 234.140625 262.078125 240.621094 262.078125 C 248.089844 262.078125 251.332031 260.730469 256.101562 258.839844 L 256.640625 258.121094 L 257.269531 247.949219 L 256.640625 247.679688 M 229.371094 231.570312 C 229.640625 228.78125 230.269531 225 233.691406 222.839844 C 234.769531 222.121094 236.03125 221.851562 237.292969 221.851562 C 240.261719 221.851562 242.0625 223.378906 243.050781 225 C 244.3125 226.980469 244.402344 229.140625 244.402344 231.210938 Z M 302.449219 248.039062 C 300.019531 249.480469 297.679688 250.921875 293.089844 250.921875 C 282.917969 250.921875 280.847656 242.460938 280.847656 237.058594 C 280.847656 230.488281 283.730469 222.929688 292.460938 222.929688 C 296.417969 222.929688 298.578125 224.371094 301.28125 226.171875 L 302.179688 225.898438 C 302.539062 221.128906 302.628906 219.871094 303.347656 215.101562 L 302.898438 214.558594 C 298.9375 213.300781 295.519531 212.21875 290.300781 212.21875 C 269.148438 212.21875 265.007812 228.238281 265.007812 237.421875 C 265.007812 247.769531 270.410156 261.808594 290.660156 261.808594 C 295.429688 261.808594 298.488281 260.910156 302.269531 259.828125 L 302.808594 259.289062 L 303.167969 248.488281 Z M 336.382812 227.609375 L 338.902344 212.941406 L 338.363281 212.308594 C 337.734375 212.308594 337.101562 212.21875 336.472656 212.21875 C 332.78125 212.21875 328.644531 214.289062 325.761719 220.949219 L 326.03125 212.671875 L 325.3125 211.949219 C 318.652344 213.390625 316.941406 213.660156 310.371094 214.648438 L 309.832031 215.191406 C 310.371094 221.941406 310.644531 225.988281 310.644531 238.5 C 310.644531 245.878906 310.550781 253.261719 310.371094 260.730469 L 310.914062 261.269531 C 317.574219 261 319.011719 260.910156 326.210938 261 L 326.664062 260.371094 C 326.300781 253.078125 325.761719 242.910156 325.761719 236.699219 C 325.761719 232.648438 325.761719 226.710938 331.882812 226.710938 C 333.414062 226.710938 334.3125 227.25 335.574219 227.96875 Z M 384.082031 247.679688 C 380.664062 249.480469 376.613281 251.550781 370.042969 251.550781 C 364.644531 251.550781 360.953125 249.839844 358.792969 246.601562 C 357.441406 244.710938 357.171875 242.910156 356.8125 241.109375 L 385.882812 240.570312 L 386.421875 239.941406 C 386.332031 235.53125 386.242188 231.03125 384.984375 226.53125 C 381.832031 215.910156 374.902344 213.75 371.84375 213.03125 C 369.59375 212.398438 367.523438 212.21875 365.453125 212.21875 C 351.324219 212.21875 341.960938 221.488281 341.960938 237.058594 C 341.960938 241.289062 342.683594 245.699219 344.121094 248.851562 C 349.34375 261 361.582031 262.078125 368.0625 262.078125 C 375.53125 262.078125 378.773438 260.730469 383.542969 258.839844 L 384.082031 258.121094 L 384.710938 247.949219 L 384.082031 247.679688 M 356.8125 231.570312 C 357.082031 228.78125 357.710938 225 361.132812 222.839844 C 362.210938 222.121094 363.472656 221.851562 364.734375 221.851562 C 367.703125 221.851562 369.503906 223.378906 370.492188 225 C 371.753906 226.980469 371.84375 229.140625 371.84375 231.210938 Z M 434.75 234.179688 C 434.839844 226.078125 434.839844 222.570312 432.5 218.789062 C 430.699219 215.910156 427.101562 212.308594 415.582031 212.308594 C 407.839844 212.308594 403.070312 213.75 397.941406 215.28125 L 397.402344 216 L 396.949219 225.808594 L 397.671875 226.171875 C 400.820312 224.910156 406.671875 222.570312 412.699219 222.570312 C 416.03125 222.570312 417.378906 223.109375 418.550781 224.28125 C 419.449219 225.179688 419.722656 226.800781 419.722656 228.148438 C 408.921875 229.589844 403.878906 230.578125 398.480469 233.910156 C 393.441406 237.058594 391.730469 242.191406 391.730469 246.238281 C 391.730469 255.871094 398.660156 262.078125 407.480469 262.078125 C 414.230469 262.078125 418.101562 258.839844 419.992188 257.308594 L 419.992188 260.640625 L 420.53125 261.269531 C 427.011719 261 428.992188 260.910156 434.839844 261 L 435.289062 260.371094 C 434.660156 251.550781 434.660156 249.300781 434.660156 240.839844 L 434.75 234.179688 M 419.902344 248.488281 C 418.011719 249.570312 415.582031 250.828125 412.609375 250.828125 C 409.371094 250.828125 406.671875 249.121094 406.671875 245.339844 C 406.671875 239.398438 413.78125 238.410156 419.902344 237.601562 Z M 470.484375 250.648438 C 468.953125 251.101562 467.871094 251.460938 466.34375 251.460938 C 461.753906 251.460938 461.394531 248.578125 461.210938 247.230469 C 460.941406 244.890625 460.941406 239.941406 461.03125 236.339844 L 461.210938 223.648438 L 469.3125 224.011719 L 469.851562 223.46875 L 470.753906 213.839844 L 470.210938 213.300781 L 461.210938 213.300781 L 461.484375 198.179688 L 460.851562 197.640625 C 454.734375 199.441406 453.113281 199.890625 446.722656 201.511719 L 446.363281 202.140625 L 446.453125 213.390625 L 441.59375 213.210938 L 441.054688 213.660156 L 440.242188 223.289062 L 440.78125 223.828125 L 446.453125 223.648438 L 446.183594 237.960938 C 446.09375 240.210938 446.003906 242.460938 446.003906 244.800781 C 446.003906 253.078125 446.183594 261.988281 460.222656 261.988281 C 463.734375 261.988281 466.523438 261.449219 469.671875 260.910156 L 470.304688 260.28125 L 471.203125 251.011719 Z M 493.433594 260.371094 C 492.980469 253.441406 492.621094 248.128906 492.621094 235.710938 C 492.621094 228.058594 492.800781 220.320312 492.890625 212.671875 L 492.261719 211.949219 L 476.78125 214.648438 L 476.242188 215.191406 C 476.960938 222.03125 477.230469 225.179688 477.230469 237.960938 C 477.230469 247.769531 476.960938 253.261719 476.691406 260.640625 L 477.230469 261.269531 C 483.710938 261 485.511719 260.910156 492.800781 261 L 493.433594 260.371094 M 491.992188 203.308594 L 492.261719 191.070312 L 491.722656 190.53125 L 477.050781 192.328125 L 476.511719 192.960938 C 476.691406 196.199219 476.78125 198.089844 476.78125 200.25 C 476.78125 201.960938 476.78125 203.761719 476.691406 205.46875 L 477.320312 206.011719 C 483.441406 204.929688 485.152344 204.75 491.542969 203.941406 Z M 549.230469 237.058594 C 549.230469 233.550781 549.230469 218.96875 536.628906 214.019531 C 532.667969 212.488281 527.988281 212.308594 525.648438 212.308594 C 509.988281 212.308594 501.167969 220.679688 501.167969 237.238281 C 501.167969 243 502.070312 248.851562 505.398438 253.710938 C 507.738281 257.21875 512.148438 262.078125 525.019531 262.078125 C 544.097656 262.078125 549.230469 250.558594 549.230469 237.058594 M 533.660156 236.96875 C 533.660156 244.351562 532.667969 252.539062 525.199219 252.539062 C 522.859375 252.539062 521.238281 251.460938 520.160156 250.46875 C 518.628906 248.941406 516.917969 245.878906 516.917969 237.148438 C 516.917969 234.539062 516.917969 228.78125 518.71875 225.628906 C 520.070312 223.199219 522.410156 221.578125 525.289062 221.578125 C 527.808594 221.578125 529.878906 222.929688 531.050781 224.371094 C 533.210938 226.980469 533.660156 232.109375 533.660156 236.96875 Z M 601.882812 260.371094 C 601.433594 252.449219 601.433594 249.929688 601.253906 241.109375 L 601.253906 234.089844 C 601.164062 225.449219 601.074219 221.308594 598.824219 217.621094 C 596.03125 212.941406 590.902344 212.21875 587.664062 212.21875 C 582.171875 212.21875 577.402344 215.101562 573.261719 217.53125 L 573.441406 212.578125 L 572.542969 211.949219 C 565.613281 213.390625 564.082031 213.660156 557.332031 214.558594 L 556.792969 215.191406 C 557.511719 223.019531 558.054688 228.691406 558.054688 243.359375 C 558.054688 249.121094 557.960938 254.878906 557.871094 260.640625 L 558.414062 261.179688 C 564.894531 260.910156 566.242188 260.910156 573.441406 260.910156 L 573.984375 260.371094 C 573.441406 246.511719 573.351562 243 573.261719 226.890625 C 575.152344 225.628906 577.3125 224.101562 580.191406 224.101562 C 585.144531 224.101562 585.59375 229.410156 585.863281 232.648438 C 586.042969 235.621094 586.132812 247.949219 586.132812 251.371094 C 586.132812 254.429688 586.042969 257.578125 586.042969 260.640625 L 586.582031 261.179688 C 592.523438 261 594.054688 260.910156 601.253906 260.910156 Z M 674.78125 197.191406 C 666.140625 197.460938 664.339844 197.460938 654.710938 197.460938 L 654.078125 198 C 649.308594 213.300781 646.429688 222.390625 633.199219 260.371094 L 633.558594 261 L 647.597656 261 L 648.230469 260.460938 L 652.640625 244.078125 L 672.078125 244.078125 L 675.949219 260.730469 L 676.578125 261.269531 C 683.148438 261 684.949219 260.910156 692.238281 261 L 692.691406 260.28125 C 681.800781 221.761719 680.539062 217.53125 675.410156 197.730469 L 674.78125 197.191406 M 655.789062 233.191406 L 660.289062 217.980469 L 663.441406 207.449219 L 666.140625 219.148438 L 669.46875 233.191406 Z M 724.460938 227.609375 L 726.980469 212.941406 L 726.441406 212.308594 C 725.8125 212.308594 725.179688 212.21875 724.550781 212.21875 C 720.859375 212.21875 716.722656 214.289062 713.839844 220.949219 L 714.109375 212.671875 L 713.390625 211.949219 C 706.730469 213.390625 705.019531 213.660156 698.449219 214.648438 L 697.910156 215.191406 C 698.449219 221.941406 698.722656 225.988281 698.722656 238.5 C 698.722656 245.878906 698.628906 253.261719 698.449219 260.730469 L 698.992188 261.269531 C 705.652344 261 707.089844 260.910156 714.289062 261 L 714.742188 260.371094 C 714.378906 253.078125 713.839844 242.910156 713.839844 236.699219 C 713.839844 232.648438 713.839844 226.710938 719.960938 226.710938 C 721.492188 226.710938 722.390625 227.25 723.652344 227.96875 Z M 772.160156 247.679688 C 768.742188 249.480469 764.691406 251.550781 758.121094 251.550781 C 752.722656 251.550781 749.03125 249.839844 746.871094 246.601562 C 745.519531 244.710938 745.25 242.910156 744.890625 241.109375 L 773.960938 240.570312 L 774.5 239.941406 C 774.410156 235.53125 774.320312 231.03125 773.0625 226.53125 C 769.910156 215.910156 762.980469 213.75 759.921875 213.03125 C 757.671875 212.398438 755.601562 212.21875 753.53125 212.21875 C 739.402344 212.21875 730.039062 221.488281 730.039062 237.058594 C 730.039062 241.289062 730.761719 245.699219 732.199219 248.851562 C 737.421875 261 749.660156 262.078125 756.140625 262.078125 C 763.609375 262.078125 766.851562 260.730469 771.621094 258.839844 L 772.160156 258.121094 L 772.789062 247.949219 L 772.160156 247.679688 M 744.890625 231.570312 C 745.160156 228.78125 745.789062 225 749.210938 222.839844 C 750.289062 222.121094 751.550781 221.851562 752.8125 221.851562 C 755.78125 221.851562 757.582031 223.378906 758.570312 225 C 759.832031 226.980469 759.921875 229.140625 759.921875 231.210938 Z M 822.832031 234.179688 C 822.921875 226.078125 822.921875 222.570312 820.582031 218.789062 C 818.78125 215.910156 815.183594 212.308594 803.664062 212.308594 C 795.921875 212.308594 791.152344 213.75 786.023438 215.28125 L 785.484375 216 L 785.03125 225.808594 L 785.753906 226.171875 C 788.902344 224.910156 794.753906 222.570312 800.78125 222.570312 C 804.113281 222.570312 805.460938 223.109375 806.632812 224.28125 C 807.53125 225.179688 807.804688 226.800781 807.804688 228.148438 C 797.003906 229.589844 791.960938 230.578125 786.5625 233.910156 C 781.523438 237.058594 779.8125 242.191406 779.8125 246.238281 C 779.8125 255.871094 786.742188 262.078125 795.5625 262.078125 C 802.3125 262.078125 806.183594 258.839844 808.074219 257.308594 L 808.074219 260.640625 L 808.613281 261.269531 C 815.09375 261 817.074219 260.910156 822.921875 261 L 823.371094 260.371094 C 822.742188 251.550781 822.742188 249.300781 822.742188 240.839844 L 822.832031 234.179688 M 807.984375 248.488281 C 806.09375 249.570312 803.664062 250.828125 800.691406 250.828125 C 797.453125 250.828125 794.753906 249.121094 794.753906 245.339844 C 794.753906 239.398438 801.863281 238.410156 807.984375 237.601562 Z M 827.960938 261 "/>
</svg>
