<?xml version="1.0" encoding="UTF-8"?>
<svg xmlns="http://www.w3.org/2000/svg" xmlns:xlink="http://www.w3.org/1999/xlink" width="975" height="1300" viewBox="0 0 975 1300">
<path fill-rule="nonzero" fill="rgb(98.823529%, 78.823529%, 9.019608%)" fill-opacity="1" d="M 50 50 L 925 50 L 925 410 L 50 410 Z M 50 50 "/>
<path fill-rule="nonzero" fill="rgb(34.901961%, 14.901961%, 14.901961%)" fill-opacity="1" d="M 201.152344 140.460938 C 204.484375 124.078125 205.925781 117.238281 215.464844 77.730469 L 215.015625 77.191406 C 208.625 77.460938 207.363281 77.460938 201.335938 77.460938 L 200.792969 78 C 199.355469 87.269531 198.902344 90.421875 196.925781 100.769531 L 194.3125 114.539062 L 191.433594 130.019531 C 190.085938 119.941406 189.632812 116.878906 187.835938 106.441406 L 185.222656 91.320312 L 182.972656 77.460938 L 182.433594 76.828125 L 164.613281 77.28125 L 164.074219 77.820312 L 160.472656 98.519531 L 156.964844 116.96875 L 154.714844 129.390625 C 153.632812 121.558594 153.273438 118.949219 151.382812 108.058594 L 149.042969 94.921875 L 146.074219 77.101562 L 145.535156 76.648438 C 137.792969 77.191406 136.535156 77.191406 129.964844 77.371094 L 129.515625 78 C 136.085938 107.789062 137.523438 114.628906 142.382812 140.730469 L 142.925781 141.269531 C 152.015625 140.910156 154.445312 140.910156 163.265625 141 L 163.894531 140.460938 L 165.785156 129.300781 L 168.753906 112.828125 L 171.996094 93.570312 C 173.074219 102.390625 173.34375 104.640625 174.964844 114.359375 L 177.214844 128.398438 L 179.105469 140.730469 L 179.554688 141.269531 C 188.195312 141 191.164062 140.910156 200.703125 141 Z M 265.957031 117.058594 C 265.957031 113.550781 265.957031 98.96875 253.355469 94.019531 C 249.394531 92.488281 244.714844 92.308594 242.375 92.308594 C 226.714844 92.308594 217.894531 100.679688 217.894531 117.238281 C 217.894531 123 218.796875 128.851562 222.125 133.710938 C 224.464844 137.21875 228.875 142.078125 241.746094 142.078125 C 260.824219 142.078125 265.957031 130.558594 265.957031 117.058594 M 250.386719 116.96875 C 250.386719 124.351562 249.394531 132.539062 241.925781 132.539062 C 239.585938 132.539062 237.964844 131.460938 236.886719 130.46875 C 235.355469 128.941406 233.644531 125.878906 233.644531 117.148438 C 233.644531 114.539062 233.644531 108.78125 235.445312 105.628906 C 236.796875 103.199219 239.136719 101.578125 242.015625 101.578125 C 244.535156 101.578125 246.605469 102.929688 247.777344 104.371094 C 249.9375 106.980469 250.386719 112.109375 250.386719 116.96875 Z M 320.316406 117.058594 C 320.316406 113.550781 320.316406 98.96875 307.714844 94.019531 C 303.753906 92.488281 299.074219 92.308594 296.734375 92.308594 C 281.074219 92.308594 272.253906 100.679688 272.253906 117.238281 C 272.253906 123 273.15625 128.851562 276.484375 133.710938 C 278.824219 137.21875 283.234375 142.078125 296.105469 142.078125 C 315.183594 142.078125 320.316406 130.558594 320.316406 117.058594 M 304.746094 116.96875 C 304.746094 124.351562 303.753906 132.539062 296.285156 132.539062 C 293.945312 132.539062 292.324219 131.460938 291.246094 130.46875 C 289.714844 128.941406 288.003906 125.878906 288.003906 117.148438 C 288.003906 114.539062 288.003906 108.78125 289.804688 105.628906 C 291.15625 103.199219 293.496094 101.578125 296.375 101.578125 C 298.894531 101.578125 300.964844 102.929688 302.136719 104.371094 C 304.296875 106.980469 304.746094 112.109375 304.746094 116.96875 Z M 372.964844 140.460938 C 372.605469 132.359375 372.335938 126.960938 372.335938 115.171875 C 372.335938 91.410156 372.695312 81.601562 373.054688 69.71875 L 372.425781 69.179688 L 357.574219 71.519531 L 357.125 72.058594 C 357.664062 80.519531 357.753906 82.769531 357.664062 93.03125 C 350.914062 92.851562 342.453125 92.671875 335.613281 98.070312 C 329.316406 102.929688 326.703125 110.398438 326.703125 119.671875 C 326.703125 126.691406 328.59375 133.710938 333.90625 138.121094 C 337.863281 141.359375 342.726562 142.078125 345.695312 142.078125 C 352.085938 142.078125 355.414062 139.109375 357.574219 137.21875 L 357.394531 140.730469 L 357.84375 141.269531 C 364.054688 141 365.765625 141 372.515625 141 L 372.964844 140.460938 M 357.664062 103.828125 C 357.753906 115.800781 357.664062 118.140625 357.394531 129.03125 C 355.59375 130.109375 353.792969 131.191406 351.273438 131.191406 C 342.542969 131.191406 342.542969 120.03125 342.542969 118.230469 C 342.542969 111.300781 344.523438 103.558594 354.605469 103.558594 C 355.59375 103.558594 356.40625 103.648438 357.664062 103.828125 Z M 399.0625 140.371094 C 398.613281 130.019531 398.164062 120.570312 398.164062 92.128906 C 398.164062 83.578125 398.253906 79.53125 398.613281 69.808594 L 397.984375 69.179688 L 382.59375 71.609375 L 382.234375 72.148438 C 383.132812 83.128906 383.222656 86.101562 383.402344 100.679688 C 383.496094 105.988281 383.496094 111.300781 383.496094 116.609375 C 383.496094 126.328125 383.3125 131.730469 382.953125 140.640625 L 383.496094 141.269531 C 389.523438 141 391.953125 140.910156 398.523438 141 Z M 449.554688 114.179688 C 449.644531 106.078125 449.644531 102.570312 447.304688 98.789062 C 445.503906 95.910156 441.90625 92.308594 430.386719 92.308594 C 422.644531 92.308594 417.875 93.75 412.746094 95.28125 L 412.207031 96 L 411.753906 105.808594 L 412.476562 106.171875 C 415.625 104.910156 421.476562 102.570312 427.503906 102.570312 C 430.835938 102.570312 432.183594 103.109375 433.355469 104.28125 C 434.253906 105.179688 434.527344 106.800781 434.527344 108.148438 C 423.726562 109.589844 418.683594 110.578125 413.285156 113.910156 C 408.246094 117.058594 406.535156 122.191406 406.535156 126.238281 C 406.535156 135.871094 413.464844 142.078125 422.285156 142.078125 C 429.035156 142.078125 432.90625 138.839844 434.796875 137.308594 L 434.796875 140.640625 L 435.335938 141.269531 C 441.816406 141 443.796875 140.910156 449.644531 141 L 450.09375 140.371094 C 449.464844 131.550781 449.464844 129.300781 449.464844 120.839844 L 449.554688 114.179688 M 434.707031 128.488281 C 432.816406 129.570312 430.386719 130.828125 427.414062 130.828125 C 424.175781 130.828125 421.476562 129.121094 421.476562 125.339844 C 421.476562 119.398438 428.585938 118.410156 434.707031 117.601562 Z M 504.183594 140.371094 C 503.734375 132.449219 503.734375 129.929688 503.554688 121.109375 L 503.554688 114.089844 C 503.464844 105.449219 503.375 101.308594 501.125 97.621094 C 498.332031 92.941406 493.203125 92.21875 489.964844 92.21875 C 484.472656 92.21875 479.703125 95.101562 475.5625 97.53125 L 475.742188 92.578125 L 474.84375 91.949219 C 467.914062 93.390625 466.382812 93.660156 459.632812 94.558594 L 459.09375 95.191406 C 459.8125 103.019531 460.355469 108.691406 460.355469 123.359375 C 460.355469 129.121094 460.261719 134.878906 460.171875 140.640625 L 460.714844 141.179688 C 467.195312 140.910156 468.542969 140.910156 475.742188 140.910156 L 476.285156 140.371094 C 475.742188 126.511719 475.652344 123 475.5625 106.890625 C 477.453125 105.628906 479.613281 104.101562 482.492188 104.101562 C 487.445312 104.101562 487.894531 109.410156 488.164062 112.648438 C 488.34375 115.621094 488.433594 127.949219 488.433594 131.371094 C 488.433594 134.429688 488.34375 137.578125 488.34375 140.640625 L 488.882812 141.179688 C 494.824219 141 496.355469 140.910156 503.554688 140.910156 Z M 558.542969 140.460938 C 558.183594 132.359375 557.914062 126.960938 557.914062 115.171875 C 557.914062 91.410156 558.273438 81.601562 558.632812 69.71875 L 558.003906 69.179688 L 543.152344 71.519531 L 542.703125 72.058594 C 543.242188 80.519531 543.332031 82.769531 543.242188 93.03125 C 536.492188 92.851562 528.03125 92.671875 521.191406 98.070312 C 514.894531 102.929688 512.28125 110.398438 512.28125 119.671875 C 512.28125 126.691406 514.171875 133.710938 519.484375 138.121094 C 523.441406 141.359375 528.304688 142.078125 531.273438 142.078125 C 537.664062 142.078125 540.992188 139.109375 543.152344 137.21875 L 542.972656 140.730469 L 543.421875 141.269531 C 549.632812 141 551.34375 141 558.09375 141 L 558.542969 140.460938 M 543.242188 103.828125 C 543.332031 115.800781 543.242188 118.140625 542.972656 129.03125 C 541.171875 130.109375 539.371094 131.191406 536.851562 131.191406 C 528.121094 131.191406 528.121094 120.03125 528.121094 118.230469 C 528.121094 111.300781 530.101562 103.558594 540.183594 103.558594 C 541.171875 103.558594 541.984375 103.648438 543.242188 103.828125 Z M 646.652344 85.738281 C 645.125 83.761719 643.324219 82.050781 641.253906 80.699219 C 636.664062 77.640625 630.363281 76.109375 624.0625 76.109375 C 618.484375 76.109375 612.8125 77.101562 607.953125 79.890625 C 596.972656 86.191406 594.992188 96.628906 594.273438 100.410156 C 593.734375 103.46875 593.464844 106.53125 593.464844 109.589844 C 593.464844 115.710938 594.183594 127.230469 602.644531 135.058594 C 609.484375 141.449219 618.84375 142.351562 623.433594 142.351562 C 630.363281 142.351562 637.382812 140.730469 642.695312 136.320312 C 651.605469 128.941406 653.402344 116.699219 653.402344 109.050781 C 653.402344 94.921875 648.902344 88.53125 646.652344 85.738281 M 632.433594 91.5 C 634.234375 93.570312 635.042969 96.179688 635.582031 98.789062 C 636.304688 102.210938 636.484375 105.449219 636.574219 107.699219 C 636.933594 121.199219 634.054688 130.921875 623.613281 130.921875 C 611.105469 130.921875 610.292969 116.339844 610.292969 108.238281 C 610.292969 97.441406 612.902344 91.859375 617.132812 89.160156 C 619.5625 87.71875 621.992188 87.359375 623.703125 87.359375 C 627.125 87.359375 630.273438 88.890625 632.433594 91.5 Z M 677.523438 92.851562 L 676.804688 92.039062 C 670.234375 93.480469 668.34375 93.839844 661.863281 94.648438 L 661.324219 95.28125 C 662.3125 105.988281 662.671875 110.128906 662.671875 136.050781 C 662.671875 146.761719 662.492188 152.878906 662.222656 163.050781 L 662.761719 163.5 C 669.152344 163.230469 671.042969 163.140625 677.882812 163.230469 L 678.421875 162.78125 L 677.792969 141.359375 C 684.363281 141.269531 693.453125 141.179688 700.742188 134.339844 C 706.503906 128.941406 708.394531 121.289062 708.394531 115.171875 C 708.394531 100.859375 699.664062 92.21875 689.582031 92.21875 C 683.375 92.21875 679.863281 94.738281 677.34375 96.449219 L 677.523438 92.851562 M 677.703125 105.089844 C 679.683594 103.921875 680.855469 103.289062 683.105469 103.289062 C 684.453125 103.289062 687.152344 103.46875 689.402344 105.988281 C 692.195312 109.050781 692.644531 113.640625 692.644531 116.699219 C 692.644531 121.921875 690.933594 126.601562 687.332031 129.121094 C 684.453125 131.101562 680.855469 131.28125 677.703125 131.371094 Z M 756.902344 127.679688 C 753.484375 129.480469 749.433594 131.550781 742.863281 131.550781 C 737.464844 131.550781 733.773438 129.839844 731.613281 126.601562 C 730.261719 124.710938 729.992188 122.910156 729.632812 121.109375 L 758.703125 120.570312 L 759.242188 119.941406 C 759.152344 115.53125 759.0625 111.03125 757.804688 106.53125 C 754.652344 95.910156 747.722656 93.75 744.664062 93.03125 C 742.414062 92.398438 740.34375 92.21875 738.273438 92.21875 C 724.144531 92.21875 714.78125 101.488281 714.78125 117.058594 C 714.78125 121.289062 715.503906 125.699219 716.941406 128.851562 C 722.164062 141 734.402344 142.078125 740.882812 142.078125 C 748.351562 142.078125 751.59375 140.730469 756.363281 138.839844 L 756.902344 138.121094 L 757.53125 127.949219 L 756.902344 127.679688 M 729.632812 111.570312 C 729.902344 108.78125 730.53125 105 733.953125 102.839844 C 735.03125 102.121094 736.292969 101.851562 737.554688 101.851562 C 740.523438 101.851562 742.324219 103.378906 743.3125 105 C 744.574219 106.980469 744.664062 109.140625 744.664062 111.210938 Z M 793.535156 107.609375 L 796.054688 92.941406 L 795.515625 92.308594 C 794.886719 92.308594 794.253906 92.21875 793.625 92.21875 C 789.933594 92.21875 785.796875 94.289062 782.914062 100.949219 L 783.183594 92.671875 L 782.464844 91.949219 C 775.804688 93.390625 774.09375 93.660156 767.523438 94.648438 L 766.984375 95.191406 C 767.523438 101.941406 767.796875 105.988281 767.796875 118.5 C 767.796875 125.878906 767.703125 133.261719 767.523438 140.730469 L 768.066406 141.269531 C 774.726562 141 776.164062 140.910156 783.363281 141 L 783.816406 140.371094 C 783.453125 133.078125 782.914062 122.910156 782.914062 116.699219 C 782.914062 112.648438 782.914062 106.710938 789.035156 106.710938 C 790.566406 106.710938 791.464844 107.25 792.726562 107.96875 Z M 841.324219 114.179688 C 841.414062 106.078125 841.414062 102.570312 839.074219 98.789062 C 837.273438 95.910156 833.675781 92.308594 822.15625 92.308594 C 814.414062 92.308594 809.644531 93.75 804.515625 95.28125 L 803.976562 96 L 803.523438 105.808594 L 804.246094 106.171875 C 807.394531 104.910156 813.246094 102.570312 819.273438 102.570312 C 822.605469 102.570312 823.953125 103.109375 825.125 104.28125 C 826.023438 105.179688 826.296875 106.800781 826.296875 108.148438 C 815.496094 109.589844 810.453125 110.578125 805.054688 113.910156 C 800.015625 117.058594 798.304688 122.191406 798.304688 126.238281 C 798.304688 135.871094 805.234375 142.078125 814.054688 142.078125 C 820.804688 142.078125 824.675781 138.839844 826.566406 137.308594 L 826.566406 140.640625 L 827.105469 141.269531 C 833.585938 141 835.566406 140.910156 841.414062 141 L 841.863281 140.371094 C 841.234375 131.550781 841.234375 129.300781 841.234375 120.839844 L 841.324219 114.179688 M 826.476562 128.488281 C 824.585938 129.570312 822.15625 130.828125 819.183594 130.828125 C 815.945312 130.828125 813.246094 129.121094 813.246094 125.339844 C 813.246094 119.398438 820.355469 118.410156 826.476562 117.601562 Z M 846.453125 141 "/>
<path fill-rule="nonzero" fill="rgb(34.901961%, 14.901961%, 14.901961%)" fill-opacity="1" d="M 119.027344 197.191406 C 111.828125 197.460938 110.660156 197.460938 103.097656 197.460938 L 102.648438 198 C 103.277344 208.171875 103.277344 210.78125 103.367188 221.398438 C 99.410156 221.488281 95.449219 221.578125 91.398438 221.578125 C 88.25 221.578125 85.007812 221.488281 81.859375 221.488281 L 82.039062 197.730469 L 81.589844 197.191406 C 74.660156 197.460938 73.308594 197.460938 65.480469 197.460938 L 64.9375 198 C 65.390625 207.269531 65.929688 218.339844 65.929688 240.660156 C 65.929688 248.761719 65.75 253.171875 65.570312 260.730469 L 66.019531 261.269531 C 72.589844 261 74.207031 260.910156 82.128906 261 L 82.578125 260.460938 C 82.039062 249.300781 81.949219 246.058594 81.859375 233.011719 C 85.820312 232.828125 89.148438 232.738281 92.660156 232.738281 C 96.257812 232.738281 99.859375 232.828125 103.457031 232.921875 C 103.640625 245.070312 103.640625 248.039062 103.1875 260.730469 L 103.640625 261.269531 C 110.390625 261 112.1875 260.910156 119.839844 261 L 120.289062 260.460938 C 119.570312 245.339844 119.296875 230.308594 119.296875 215.191406 C 119.296875 208.890625 119.390625 204.660156 119.480469 197.730469 Z M 176.539062 237.058594 C 176.539062 233.550781 176.539062 218.96875 163.9375 214.019531 C 159.976562 212.488281 155.296875 212.308594 152.957031 212.308594 C 137.296875 212.308594 128.476562 220.679688 128.476562 237.238281 C 128.476562 243 129.378906 248.851562 132.707031 253.710938 C 135.046875 257.21875 139.457031 262.078125 152.328125 262.078125 C 171.40625 262.078125 176.539062 250.558594 176.539062 237.058594 M 160.96875 236.96875 C 160.96875 244.351562 159.976562 252.539062 152.507812 252.539062 C 150.167969 252.539062 148.546875 251.460938 147.46875 250.46875 C 145.9375 248.941406 144.226562 245.878906 144.226562 237.148438 C 144.226562 234.539062 144.226562 228.78125 146.027344 225.628906 C 147.378906 223.199219 149.71875 221.578125 152.597656 221.578125 C 155.117188 221.578125 157.1875 222.929688 158.359375 224.371094 C 160.519531 226.980469 160.96875 232.109375 160.96875 236.96875 Z M 228.289062 212.851562 L 213.617188 213.570312 L 212.988281 214.109375 C 213.617188 224.28125 213.617188 238.679688 213.617188 240.121094 C 213.617188 242.730469 213.617188 244.171875 213.527344 247.769531 C 211.097656 249.390625 209.207031 250.738281 206.777344 250.738281 C 200.296875 250.738281 200.296875 243.898438 200.296875 238.589844 C 200.296875 236.339844 200.296875 234 200.386719 231.75 L 200.566406 213.570312 L 199.9375 212.851562 L 185.085938 213.570312 L 184.457031 214.109375 C 184.996094 221.671875 185.085938 224.191406 185.085938 233.28125 L 185.085938 239.578125 C 184.996094 249.390625 185.449219 253.53125 188.6875 257.308594 C 191.65625 260.640625 195.976562 262.078125 200.476562 262.078125 C 206.867188 262.078125 210.558594 259.199219 213.796875 256.679688 L 213.707031 260.730469 L 214.335938 261.269531 C 220.90625 261 222.886719 261 228.738281 261 L 229.277344 260.460938 C 228.828125 254.070312 228.648438 250.648438 228.648438 238.949219 C 228.648438 230.488281 228.738281 222.03125 228.917969 213.570312 Z M 258.347656 229.949219 C 255.285156 228.871094 252.855469 227.878906 252.855469 225.359375 C 252.855469 224.28125 253.578125 221.308594 259.15625 221.308594 C 264.648438 221.308594 268.15625 223.648438 270.40625 225.089844 L 271.21875 224.820312 L 272.117188 215.011719 L 271.667969 214.46875 C 267.4375 213.300781 263.746094 212.21875 257.898438 212.21875 C 253.488281 212.21875 244.667969 212.578125 239.988281 219.328125 C 238.816406 220.949219 237.558594 223.648438 237.558594 227.25 C 237.558594 236.878906 245.027344 239.761719 249.257812 241.378906 L 252.675781 242.640625 C 255.105469 243.449219 259.066406 244.800781 259.066406 248.039062 C 259.066406 250.289062 256.996094 252.71875 251.957031 252.71875 C 249.4375 252.71875 245.746094 251.910156 242.417969 250.199219 C 240.886719 249.390625 240.167969 248.761719 238.816406 247.679688 L 238.007812 248.039062 C 237.828125 252.71875 237.738281 253.710938 237.375 258.210938 L 237.828125 259.019531 C 242.238281 260.640625 246.015625 262.078125 252.585938 262.078125 C 259.425781 262.078125 272.925781 260.820312 274.546875 247.949219 C 274.636719 247.230469 274.636719 246.601562 274.636719 245.96875 C 274.636719 236.070312 267.707031 233.460938 262.757812 231.570312 Z M 322.519531 247.679688 C 319.101562 249.480469 315.050781 251.550781 308.480469 251.550781 C 303.082031 251.550781 299.390625 249.839844 297.230469 246.601562 C 295.878906 244.710938 295.609375 242.910156 295.25 241.109375 L 324.320312 240.570312 L 324.859375 239.941406 C 324.769531 235.53125 324.679688 231.03125 323.421875 226.53125 C 320.269531 215.910156 313.339844 213.75 310.28125 213.03125 C 308.03125 212.398438 305.960938 212.21875 303.890625 212.21875 C 289.761719 212.21875 280.398438 221.488281 280.398438 237.058594 C 280.398438 241.289062 281.121094 245.699219 282.558594 248.851562 C 287.78125 261 300.019531 262.078125 306.5 262.078125 C 313.96875 262.078125 317.210938 260.730469 321.980469 258.839844 L 322.519531 258.121094 L 323.148438 247.949219 L 322.519531 247.679688 M 295.25 231.570312 C 295.519531 228.78125 296.148438 225 299.570312 222.839844 C 300.648438 222.121094 301.910156 221.851562 303.171875 221.851562 C 306.140625 221.851562 307.941406 223.378906 308.929688 225 C 310.191406 226.980469 310.28125 229.140625 310.28125 231.210938 Z M 385.429688 222.300781 C 377.871094 219.148438 373.910156 217.53125 373.910156 213.480469 C 373.910156 210.691406 376.519531 207.179688 382.460938 207.179688 C 389.300781 207.179688 393.347656 209.96875 396.679688 212.21875 L 397.488281 211.859375 L 398.210938 200.070312 L 397.757812 199.441406 C 393.890625 197.820312 389.839844 196.109375 381.109375 196.109375 C 364.191406 196.109375 358.339844 205.648438 358.339844 215.28125 C 358.339844 226.171875 366.800781 230.128906 371.839844 232.558594 L 374.808594 233.910156 C 381.019531 236.519531 385.789062 238.769531 385.789062 243.539062 C 385.789062 246.960938 382.820312 251.011719 374.988281 251.011719 C 366.800781 251.011719 362.210938 247.410156 359.597656 245.339844 L 358.699219 245.609375 L 358.070312 258.300781 L 358.609375 259.019531 C 359.597656 259.378906 360.589844 259.828125 361.578125 260.101562 C 363.648438 260.820312 368.960938 262.351562 375.710938 262.351562 C 378.410156 262.351562 385.25 262.078125 390.648438 259.558594 C 398.210938 255.871094 401.449219 249.03125 401.449219 241.378906 C 401.449219 236.25 399.46875 230.761719 394.699219 227.070312 C 392.269531 225.269531 389.929688 224.191406 387.769531 223.199219 Z M 435.199219 250.648438 C 433.667969 251.101562 432.585938 251.460938 431.058594 251.460938 C 426.46875 251.460938 426.109375 248.578125 425.925781 247.230469 C 425.65625 244.890625 425.65625 239.941406 425.746094 236.339844 L 425.925781 223.648438 L 434.027344 224.011719 L 434.566406 223.46875 L 435.46875 213.839844 L 434.925781 213.300781 L 425.925781 213.300781 L 426.199219 198.179688 L 425.566406 197.640625 C 419.449219 199.441406 417.828125 199.890625 411.4375 201.511719 L 411.078125 202.140625 L 411.167969 213.390625 L 406.308594 213.210938 L 405.769531 213.660156 L 404.957031 223.289062 L 405.496094 223.828125 L 411.167969 223.648438 L 410.898438 237.960938 C 410.808594 240.210938 410.71875 242.460938 410.71875 244.800781 C 410.71875 253.078125 410.898438 261.988281 424.9375 261.988281 C 428.449219 261.988281 431.238281 261.449219 434.386719 260.910156 L 435.019531 260.28125 L 435.917969 251.011719 Z M 481.90625 234.179688 C 481.996094 226.078125 481.996094 222.570312 479.65625 218.789062 C 477.855469 215.910156 474.257812 212.308594 462.738281 212.308594 C 454.996094 212.308594 450.226562 213.75 445.097656 215.28125 L 444.558594 216 L 444.105469 225.808594 L 444.828125 226.171875 C 447.976562 224.910156 453.828125 222.570312 459.855469 222.570312 C 463.1875 222.570312 464.535156 223.109375 465.707031 224.28125 C 466.605469 225.179688 466.878906 226.800781 466.878906 228.148438 C 456.078125 229.589844 451.035156 230.578125 445.636719 233.910156 C 440.597656 237.058594 438.886719 242.191406 438.886719 246.238281 C 438.886719 255.871094 445.816406 262.078125 454.636719 262.078125 C 461.386719 262.078125 465.257812 258.839844 467.148438 257.308594 L 467.148438 260.640625 L 467.6875 261.269531 C 474.167969 261 476.148438 260.910156 481.996094 261 L 482.445312 260.371094 C 481.816406 251.550781 481.816406 249.300781 481.816406 240.839844 L 481.90625 234.179688 M 467.058594 248.488281 C 465.167969 249.570312 462.738281 250.828125 459.765625 250.828125 C 456.527344 250.828125 453.828125 249.121094 453.828125 245.339844 C 453.828125 239.398438 460.9375 238.410156 467.058594 237.601562 Z M 517.640625 250.648438 C 516.109375 251.101562 515.027344 251.460938 513.5 251.460938 C 508.910156 251.460938 508.550781 248.578125 508.367188 247.230469 C 508.097656 244.890625 508.097656 239.941406 508.1875 236.339844 L 508.367188 223.648438 L 516.46875 224.011719 L 517.007812 223.46875 L 517.910156 213.839844 L 517.367188 213.300781 L 508.367188 213.300781 L 508.640625 198.179688 L 508.007812 197.640625 C 501.890625 199.441406 500.269531 199.890625 493.878906 201.511719 L 493.519531 202.140625 L 493.609375 213.390625 L 488.75 213.210938 L 488.210938 213.660156 L 487.398438 223.289062 L 487.9375 223.828125 L 493.609375 223.648438 L 493.339844 237.960938 C 493.25 240.210938 493.160156 242.460938 493.160156 244.800781 C 493.160156 253.078125 493.339844 261.988281 507.378906 261.988281 C 510.890625 261.988281 513.679688 261.449219 516.828125 260.910156 L 517.460938 260.28125 L 518.359375 251.011719 Z M 564.257812 247.679688 C 560.839844 249.480469 556.789062 251.550781 550.21875 251.550781 C 544.820312 251.550781 541.128906 249.839844 538.96875 246.601562 C 537.617188 244.710938 537.347656 242.910156 536.988281 241.109375 L 566.058594 240.570312 L 566.597656 239.941406 C 566.507812 235.53125 566.417969 231.03125 565.160156 226.53125 C 562.007812 215.910156 555.078125 213.75 552.019531 213.03125 C 549.769531 212.398438 547.699219 212.21875 545.628906 212.21875 C 531.5 212.21875 522.136719 221.488281 522.136719 237.058594 C 522.136719 241.289062 522.859375 245.699219 524.296875 248.851562 C 529.519531 261 541.757812 262.078125 548.238281 262.078125 C 555.707031 262.078125 558.949219 260.730469 563.71875 258.839844 L 564.257812 258.121094 L 564.886719 247.949219 L 564.257812 247.679688 M 536.988281 231.570312 C 537.257812 228.78125 537.886719 225 541.308594 222.839844 C 542.386719 222.121094 543.648438 221.851562 544.910156 221.851562 C 547.878906 221.851562 549.679688 223.378906 550.667969 225 C 551.929688 226.980469 552.019531 229.140625 552.019531 231.210938 Z M 655.066406 197.191406 C 647.867188 197.460938 646.699219 197.460938 639.136719 197.460938 L 638.6875 198 C 639.316406 208.171875 639.316406 210.78125 639.40625 221.398438 C 635.449219 221.488281 631.488281 221.578125 627.4375 221.578125 C 624.289062 221.578125 621.046875 221.488281 617.898438 221.488281 L 618.078125 197.730469 L 617.628906 197.191406 C 610.699219 197.460938 609.347656 197.460938 601.519531 197.460938 L 600.976562 198 C 601.429688 207.269531 601.96875 218.339844 601.96875 240.660156 C 601.96875 248.761719 601.789062 253.171875 601.609375 260.730469 L 602.058594 261.269531 C 608.628906 261 610.246094 260.910156 618.167969 261 L 618.617188 260.460938 C 618.078125 249.300781 617.988281 246.058594 617.898438 233.011719 C 621.859375 232.828125 625.1875 232.738281 628.699219 232.738281 C 632.296875 232.738281 635.898438 232.828125 639.496094 232.921875 C 639.679688 245.070312 639.679688 248.039062 639.226562 260.730469 L 639.679688 261.269531 C 646.429688 261 648.226562 260.910156 655.878906 261 L 656.328125 260.460938 C 655.609375 245.339844 655.335938 230.308594 655.335938 215.191406 C 655.335938 208.890625 655.429688 204.660156 655.519531 197.730469 Z M 683.058594 260.371094 C 682.605469 253.441406 682.246094 248.128906 682.246094 235.710938 C 682.246094 228.058594 682.425781 220.320312 682.515625 212.671875 L 681.886719 211.949219 L 666.40625 214.648438 L 665.867188 215.191406 C 666.585938 222.03125 666.855469 225.179688 666.855469 237.960938 C 666.855469 247.769531 666.585938 253.261719 666.316406 260.640625 L 666.855469 261.269531 C 673.335938 261 675.136719 260.910156 682.425781 261 L 683.058594 260.371094 M 681.617188 203.308594 L 681.886719 191.070312 L 681.347656 190.53125 L 666.675781 192.328125 L 666.136719 192.960938 C 666.316406 196.199219 666.40625 198.089844 666.40625 200.25 C 666.40625 201.960938 666.40625 203.761719 666.316406 205.46875 L 666.945312 206.011719 C 673.066406 204.929688 674.777344 204.75 681.167969 203.941406 Z M 711.949219 229.949219 C 708.886719 228.871094 706.457031 227.878906 706.457031 225.359375 C 706.457031 224.28125 707.179688 221.308594 712.757812 221.308594 C 718.25 221.308594 721.757812 223.648438 724.007812 225.089844 L 724.820312 224.820312 L 725.71875 215.011719 L 725.269531 214.46875 C 721.039062 213.300781 717.347656 212.21875 711.5 212.21875 C 707.089844 212.21875 698.269531 212.578125 693.589844 219.328125 C 692.417969 220.949219 691.160156 223.648438 691.160156 227.25 C 691.160156 236.878906 698.628906 239.761719 702.859375 241.378906 L 706.277344 242.640625 C 708.707031 243.449219 712.667969 244.800781 712.667969 248.039062 C 712.667969 250.289062 710.597656 252.71875 705.558594 252.71875 C 703.039062 252.71875 699.347656 251.910156 696.019531 250.199219 C 694.488281 249.390625 693.769531 248.761719 692.417969 247.679688 L 691.609375 248.039062 C 691.429688 252.71875 691.339844 253.710938 690.976562 258.210938 L 691.429688 259.019531 C 695.839844 260.640625 699.617188 262.078125 706.1875 262.078125 C 713.027344 262.078125 726.527344 260.820312 728.148438 247.949219 C 728.238281 247.230469 728.238281 246.601562 728.238281 245.96875 C 728.238281 236.070312 721.308594 233.460938 716.359375 231.570312 Z M 761.359375 250.648438 C 759.828125 251.101562 758.746094 251.460938 757.21875 251.460938 C 752.628906 251.460938 752.269531 248.578125 752.085938 247.230469 C 751.816406 244.890625 751.816406 239.941406 751.90625 236.339844 L 752.085938 223.648438 L 760.1875 224.011719 L 760.726562 223.46875 L 761.628906 213.839844 L 761.085938 213.300781 L 752.085938 213.300781 L 752.359375 198.179688 L 751.726562 197.640625 C 745.609375 199.441406 743.988281 199.890625 737.597656 201.511719 L 737.238281 202.140625 L 737.328125 213.390625 L 732.46875 213.210938 L 731.929688 213.660156 L 731.117188 223.289062 L 731.65625 223.828125 L 737.328125 223.648438 L 737.058594 237.960938 C 736.96875 240.210938 736.878906 242.460938 736.878906 244.800781 C 736.878906 253.078125 737.058594 261.988281 751.097656 261.988281 C 754.609375 261.988281 757.398438 261.449219 760.546875 260.910156 L 761.179688 260.28125 L 762.078125 251.011719 Z M 813.828125 237.058594 C 813.828125 233.550781 813.828125 218.96875 801.226562 214.019531 C 797.265625 212.488281 792.585938 212.308594 790.246094 212.308594 C 774.585938 212.308594 765.765625 220.679688 765.765625 237.238281 C 765.765625 243 766.667969 248.851562 769.996094 253.710938 C 772.335938 257.21875 776.746094 262.078125 789.617188 262.078125 C 808.695312 262.078125 813.828125 250.558594 813.828125 237.058594 M 798.257812 236.96875 C 798.257812 244.351562 797.265625 252.539062 789.796875 252.539062 C 787.457031 252.539062 785.835938 251.460938 784.757812 250.46875 C 783.226562 248.941406 781.515625 245.878906 781.515625 237.148438 C 781.515625 234.539062 781.515625 228.78125 783.316406 225.628906 C 784.667969 223.199219 787.007812 221.578125 789.886719 221.578125 C 792.40625 221.578125 794.476562 222.929688 795.648438 224.371094 C 797.808594 226.980469 798.257812 232.109375 798.257812 236.96875 Z M 848.390625 227.609375 L 850.910156 212.941406 L 850.371094 212.308594 C 849.742188 212.308594 849.109375 212.21875 848.480469 212.21875 C 844.789062 212.21875 840.652344 214.289062 837.769531 220.949219 L 838.039062 212.671875 L 837.320312 211.949219 C 830.660156 213.390625 828.949219 213.660156 822.378906 214.648438 L 821.839844 215.191406 C 822.378906 221.941406 822.652344 225.988281 822.652344 238.5 C 822.652344 245.878906 822.558594 253.261719 822.378906 260.730469 L 822.921875 261.269531 C 829.582031 261 831.019531 260.910156 838.21875 261 L 838.671875 260.371094 C 838.308594 253.078125 837.769531 242.910156 837.769531 236.699219 C 837.769531 232.648438 837.769531 226.710938 843.890625 226.710938 C 845.421875 226.710938 846.320312 227.25 847.582031 227.96875 Z M 872.421875 260.371094 C 871.96875 253.441406 871.609375 248.128906 871.609375 235.710938 C 871.609375 228.058594 871.789062 220.320312 871.878906 212.671875 L 871.25 211.949219 L 855.769531 214.648438 L 855.230469 215.191406 C 855.949219 222.03125 856.21875 225.179688 856.21875 237.960938 C 856.21875 247.769531 855.949219 253.261719 855.679688 260.640625 L 856.21875 261.269531 C 862.699219 261 864.5 260.910156 871.789062 261 L 872.421875 260.371094 M 870.980469 203.308594 L 871.25 191.070312 L 870.710938 190.53125 L 856.039062 192.328125 L 855.5 192.960938 C 855.679688 196.199219 855.769531 198.089844 855.769531 200.25 C 855.769531 201.960938 855.769531 203.761719 855.679688 205.46875 L 856.308594 206.011719 C 862.429688 204.929688 864.140625 204.75 870.53125 203.941406 Z M 917.597656 248.039062 C 915.167969 249.480469 912.828125 250.921875 908.238281 250.921875 C 898.066406 250.921875 895.996094 242.460938 895.996094 237.058594 C 895.996094 230.488281 898.878906 222.929688 907.609375 222.929688 C 911.566406 222.929688 913.726562 224.371094 916.429688 226.171875 L 917.328125 225.898438 C 917.6875 221.128906 917.777344 219.871094 918.496094 215.101562 L 918.046875 214.558594 C 914.085938 213.300781 910.667969 212.21875 905.449219 212.21875 C 884.296875 212.21875 880.15625 228.238281 880.15625 237.421875 C 880.15625 247.769531 885.558594 261.808594 905.808594 261.808594 C 910.578125 261.808594 913.636719 260.910156 917.417969 259.828125 L 917.957031 259.289062 L 918.316406 248.488281 Z M 920.117188 261 "/>
<path fill-rule="nonzero" fill="rgb(34.901961%, 14.901961%, 14.901961%)" fill-opacity="1" d="M 411.53125 317.28125 L 400.101562 317.460938 L 399.558594 318 C 399.921875 329.699219 400.191406 337.53125 400.191406 347.878906 C 400.191406 358.859375 399.921875 369.75 399.648438 380.730469 L 400.191406 381.269531 C 406.851562 381 408.289062 380.910156 415.492188 381 L 415.941406 380.460938 C 415.582031 370.648438 415.582031 368.398438 415.582031 359.21875 C 425.660156 359.308594 436.460938 359.308594 442.941406 351.390625 C 445.460938 348.328125 447.621094 343.199219 447.621094 336.898438 C 447.621094 333.03125 446.71875 324.480469 439.25 320.25 C 433.851562 317.101562 426.199219 317.101562 419.449219 317.101562 L 411.53125 317.28125 M 415.582031 328.171875 C 417.558594 328.078125 419.449219 328.078125 421.429688 328.078125 C 429.351562 328.261719 431.511719 332.308594 431.511719 337.53125 C 431.511719 338.789062 431.511719 344.011719 426.742188 346.621094 C 424.308594 347.96875 420.980469 348.148438 415.582031 348.148438 Z M 493.878906 354.179688 C 493.96875 346.078125 493.96875 342.570312 491.628906 338.789062 C 489.828125 335.910156 486.230469 332.308594 474.710938 332.308594 C 466.96875 332.308594 462.199219 333.75 457.070312 335.28125 L 456.53125 336 L 456.078125 345.808594 L 456.800781 346.171875 C 459.949219 344.910156 465.800781 342.570312 471.828125 342.570312 C 475.160156 342.570312 476.507812 343.109375 477.679688 344.28125 C 478.578125 345.179688 478.851562 346.800781 478.851562 348.148438 C 468.050781 349.589844 463.007812 350.578125 457.609375 353.910156 C 452.570312 357.058594 450.859375 362.191406 450.859375 366.238281 C 450.859375 375.871094 457.789062 382.078125 466.609375 382.078125 C 473.359375 382.078125 477.230469 378.839844 479.121094 377.308594 L 479.121094 380.640625 L 479.660156 381.269531 C 486.140625 381 488.121094 380.910156 493.96875 381 L 494.417969 380.371094 C 493.789062 371.550781 493.789062 369.300781 493.789062 360.839844 L 493.878906 354.179688 M 479.03125 368.488281 C 477.140625 369.570312 474.710938 370.828125 471.738281 370.828125 C 468.5 370.828125 465.800781 369.121094 465.800781 365.339844 C 465.800781 359.398438 472.910156 358.410156 479.03125 357.601562 Z M 530.421875 347.609375 L 532.941406 332.941406 L 532.402344 332.308594 C 531.773438 332.308594 531.140625 332.21875 530.511719 332.21875 C 526.820312 332.21875 522.683594 334.289062 519.800781 340.949219 L 520.070312 332.671875 L 519.351562 331.949219 C 512.691406 333.390625 510.980469 333.660156 504.410156 334.648438 L 503.871094 335.191406 C 504.410156 341.941406 504.683594 345.988281 504.683594 358.5 C 504.683594 365.878906 504.589844 373.261719 504.410156 380.730469 L 504.953125 381.269531 C 511.613281 381 513.050781 380.910156 520.25 381 L 520.703125 380.371094 C 520.339844 373.078125 519.800781 362.910156 519.800781 356.699219 C 519.800781 352.648438 519.800781 346.710938 525.921875 346.710938 C 527.453125 346.710938 528.351562 347.25 529.613281 347.96875 Z M 584.421875 379.828125 C 575.960938 365.519531 575.0625 363.898438 568.222656 351.570312 C 574.433594 343.109375 575.0625 342.210938 581.453125 334.019531 L 581 333.121094 L 566.332031 333.300781 L 565.433594 333.929688 C 558.410156 346.078125 557.511719 347.519531 553.371094 353.730469 L 553.371094 343.738281 C 553.460938 326.910156 553.550781 323.308594 554 309.71875 L 553.28125 309.179688 L 537.621094 311.519531 L 537.082031 312.148438 C 537.710938 320.878906 537.980469 325.109375 538.160156 336.898438 C 538.339844 351.480469 538.339844 366.058594 538.25 380.640625 L 538.882812 381.269531 C 544.910156 381 546.621094 381 553.460938 381 L 554 380.371094 L 553.460938 365.160156 L 553.371094 354.808594 C 561.203125 369.210938 562.191406 371.191406 566.78125 380.730469 L 567.589844 381.269531 L 583.792969 380.640625 Z M 583.339844 381 "/>
</svg>
