<?xml version="1.0" encoding="UTF-8"?>
<svg xmlns="http://www.w3.org/2000/svg" xmlns:xlink="http://www.w3.org/1999/xlink" width="975" height="1300" viewBox="0 0 975 1300">
<path fill-rule="nonzero" fill="rgb(98.823529%, 78.823529%, 9.019608%)" fill-opacity="1" d="M 50 50 L 925 50 L 925 290 L 50 290 Z M 50 50 "/>
<path fill-rule="nonzero" fill="rgb(34.901961%, 14.901961%, 14.901961%)" fill-opacity="1" d="M 216.722656 124.890625 C 214.652344 126.511719 210.0625 129.929688 202.59375 129.929688 C 192.332031 129.929688 185.132812 122.28125 185.132812 109.5 C 185.132812 101.761719 187.832031 88.171875 202.503906 88.171875 C 209.253906 88.171875 212.941406 90.78125 215.191406 92.488281 L 216.003906 92.308594 L 216.8125 79.890625 L 216.453125 79.441406 C 213.214844 78.179688 207.722656 76.109375 199.804688 76.109375 C 176.492188 76.109375 168.394531 94.109375 168.394531 109.859375 C 168.394531 127.140625 178.921875 142.351562 200.882812 142.351562 C 208.441406 142.351562 213.394531 140.371094 216.273438 139.199219 L 216.722656 138.660156 L 217.351562 125.25 Z M 264.421875 114.179688 C 264.511719 106.078125 264.511719 102.570312 262.171875 98.789062 C 260.371094 95.910156 256.773438 92.308594 245.253906 92.308594 C 237.511719 92.308594 232.742188 93.75 227.613281 95.28125 L 227.074219 96 L 226.621094 105.808594 L 227.34375 106.171875 C 230.492188 104.910156 236.34375 102.570312 242.371094 102.570312 C 245.703125 102.570312 247.050781 103.109375 248.222656 104.28125 C 249.121094 105.179688 249.394531 106.800781 249.394531 108.148438 C 238.59375 109.589844 233.550781 110.578125 228.152344 113.910156 C 223.113281 117.058594 221.402344 122.191406 221.402344 126.238281 C 221.402344 135.871094 228.332031 142.078125 237.152344 142.078125 C 243.902344 142.078125 247.773438 138.839844 249.664062 137.308594 L 249.664062 140.640625 L 250.203125 141.269531 C 256.683594 141 258.664062 140.910156 264.511719 141 L 264.960938 140.371094 C 264.332031 131.550781 264.332031 129.300781 264.332031 120.839844 L 264.421875 114.179688 M 249.574219 128.488281 C 247.683594 129.570312 245.253906 130.828125 242.28125 130.828125 C 239.042969 130.828125 236.34375 129.121094 236.34375 125.339844 C 236.34375 119.398438 243.453125 118.410156 249.574219 117.601562 Z M 290.792969 140.371094 C 290.34375 130.019531 289.894531 120.570312 289.894531 92.128906 C 289.894531 83.578125 289.984375 79.53125 290.34375 69.808594 L 289.714844 69.179688 L 274.324219 71.609375 L 273.964844 72.148438 C 274.863281 83.128906 274.953125 86.101562 275.132812 100.679688 C 275.226562 105.988281 275.226562 111.300781 275.226562 116.609375 C 275.226562 126.328125 275.042969 131.730469 274.683594 140.640625 L 275.226562 141.269531 C 281.253906 141 283.683594 140.910156 290.253906 141 Z M 317.523438 140.371094 C 317.070312 133.441406 316.710938 128.128906 316.710938 115.710938 C 316.710938 108.058594 316.890625 100.320312 316.980469 92.671875 L 316.351562 91.949219 L 300.871094 94.648438 L 300.332031 95.191406 C 301.050781 102.03125 301.320312 105.179688 301.320312 117.960938 C 301.320312 127.769531 301.050781 133.261719 300.78125 140.640625 L 301.320312 141.269531 C 307.800781 141 309.601562 140.910156 316.890625 141 L 317.523438 140.371094 M 316.082031 83.308594 L 316.351562 71.070312 L 315.8125 70.53125 L 301.140625 72.328125 L 300.601562 72.960938 C 300.78125 76.199219 300.871094 78.089844 300.871094 80.25 C 300.871094 81.960938 300.871094 83.761719 300.78125 85.46875 L 301.410156 86.011719 C 307.53125 84.929688 309.242188 84.75 315.632812 83.941406 Z M 345.511719 140.371094 C 344.613281 123.988281 344.523438 119.578125 344.613281 103.648438 L 351.722656 104.011719 L 352.351562 103.378906 L 353.164062 93.839844 L 352.714844 93.300781 L 344.523438 93.300781 L 344.613281 91.230469 C 344.613281 85.738281 344.703125 80.699219 350.554688 80.699219 C 351.453125 80.699219 352.351562 80.878906 353.253906 80.96875 L 353.882812 80.609375 L 354.691406 70.441406 L 354.242188 69.808594 C 352.082031 69.628906 350.011719 69.539062 347.941406 69.539062 C 343.351562 69.539062 338.671875 70.078125 335.074219 72.78125 C 329.492188 76.921875 329.582031 83.398438 329.582031 87.898438 L 329.671875 93.300781 L 323.824219 93.210938 L 323.285156 93.660156 L 322.382812 103.199219 L 322.921875 103.738281 L 329.761719 103.558594 C 329.761719 120.570312 329.761719 124.621094 329.222656 140.640625 L 329.761719 141.269531 C 335.882812 141 338.222656 140.910156 344.972656 140.910156 Z M 405.183594 117.058594 C 405.183594 113.550781 405.183594 98.96875 392.582031 94.019531 C 388.621094 92.488281 383.941406 92.308594 381.601562 92.308594 C 365.941406 92.308594 357.121094 100.679688 357.121094 117.238281 C 357.121094 123 358.023438 128.851562 361.351562 133.710938 C 363.691406 137.21875 368.101562 142.078125 380.972656 142.078125 C 400.050781 142.078125 405.183594 130.558594 405.183594 117.058594 M 389.613281 116.96875 C 389.613281 124.351562 388.621094 132.539062 381.152344 132.539062 C 378.8125 132.539062 377.191406 131.460938 376.113281 130.46875 C 374.582031 128.941406 372.871094 125.878906 372.871094 117.148438 C 372.871094 114.539062 372.871094 108.78125 374.671875 105.628906 C 376.023438 103.199219 378.363281 101.578125 381.242188 101.578125 C 383.761719 101.578125 385.832031 102.929688 387.003906 104.371094 C 389.164062 106.980469 389.613281 112.109375 389.613281 116.96875 Z M 439.742188 107.609375 L 442.261719 92.941406 L 441.722656 92.308594 C 441.09375 92.308594 440.460938 92.21875 439.832031 92.21875 C 436.140625 92.21875 432.003906 94.289062 429.121094 100.949219 L 429.390625 92.671875 L 428.671875 91.949219 C 422.011719 93.390625 420.300781 93.660156 413.730469 94.648438 L 413.191406 95.191406 C 413.730469 101.941406 414.003906 105.988281 414.003906 118.5 C 414.003906 125.878906 413.910156 133.261719 413.730469 140.730469 L 414.273438 141.269531 C 420.933594 141 422.371094 140.910156 429.570312 141 L 430.023438 140.371094 C 429.660156 133.078125 429.121094 122.910156 429.121094 116.699219 C 429.121094 112.648438 429.121094 106.710938 435.242188 106.710938 C 436.773438 106.710938 437.671875 107.25 438.933594 107.96875 Z M 491.582031 140.371094 C 491.132812 132.449219 491.132812 129.929688 490.953125 121.109375 L 490.953125 114.089844 C 490.863281 105.449219 490.773438 101.308594 488.523438 97.621094 C 485.730469 92.941406 480.601562 92.21875 477.363281 92.21875 C 471.871094 92.21875 467.101562 95.101562 462.960938 97.53125 L 463.140625 92.578125 L 462.242188 91.949219 C 455.3125 93.390625 453.78125 93.660156 447.03125 94.558594 L 446.492188 95.191406 C 447.210938 103.019531 447.753906 108.691406 447.753906 123.359375 C 447.753906 129.121094 447.660156 134.878906 447.570312 140.640625 L 448.113281 141.179688 C 454.59375 140.910156 455.941406 140.910156 463.140625 140.910156 L 463.683594 140.371094 C 463.140625 126.511719 463.050781 123 462.960938 106.890625 C 464.851562 105.628906 467.011719 104.101562 469.890625 104.101562 C 474.84375 104.101562 475.292969 109.410156 475.5625 112.648438 C 475.742188 115.621094 475.832031 127.949219 475.832031 131.371094 C 475.832031 134.429688 475.742188 137.578125 475.742188 140.640625 L 476.28125 141.179688 C 482.222656 141 483.753906 140.910156 490.953125 140.910156 Z M 518.132812 140.371094 C 517.679688 133.441406 517.320312 128.128906 517.320312 115.710938 C 517.320312 108.058594 517.5 100.320312 517.589844 92.671875 L 516.960938 91.949219 L 501.480469 94.648438 L 500.941406 95.191406 C 501.660156 102.03125 501.929688 105.179688 501.929688 117.960938 C 501.929688 127.769531 501.660156 133.261719 501.390625 140.640625 L 501.929688 141.269531 C 508.410156 141 510.210938 140.910156 517.5 141 L 518.132812 140.371094 M 516.691406 83.308594 L 516.960938 71.070312 L 516.421875 70.53125 L 501.75 72.328125 L 501.210938 72.960938 C 501.390625 76.199219 501.480469 78.089844 501.480469 80.25 C 501.480469 81.960938 501.480469 83.761719 501.390625 85.46875 L 502.019531 86.011719 C 508.140625 84.929688 509.851562 84.75 516.242188 83.941406 Z M 568.171875 114.179688 C 568.261719 106.078125 568.261719 102.570312 565.921875 98.789062 C 564.121094 95.910156 560.523438 92.308594 549.003906 92.308594 C 541.261719 92.308594 536.492188 93.75 531.363281 95.28125 L 530.824219 96 L 530.371094 105.808594 L 531.09375 106.171875 C 534.242188 104.910156 540.09375 102.570312 546.121094 102.570312 C 549.453125 102.570312 550.800781 103.109375 551.972656 104.28125 C 552.871094 105.179688 553.144531 106.800781 553.144531 108.148438 C 542.34375 109.589844 537.300781 110.578125 531.902344 113.910156 C 526.863281 117.058594 525.152344 122.191406 525.152344 126.238281 C 525.152344 135.871094 532.082031 142.078125 540.902344 142.078125 C 547.652344 142.078125 551.523438 138.839844 553.414062 137.308594 L 553.414062 140.640625 L 553.953125 141.269531 C 560.433594 141 562.414062 140.910156 568.261719 141 L 568.710938 140.371094 C 568.082031 131.550781 568.082031 129.300781 568.082031 120.839844 L 568.171875 114.179688 M 553.324219 128.488281 C 551.433594 129.570312 549.003906 130.828125 546.03125 130.828125 C 542.792969 130.828125 540.09375 129.121094 540.09375 125.339844 C 540.09375 119.398438 547.203125 118.410156 553.324219 117.601562 Z M 630.992188 102.300781 C 623.433594 99.148438 619.472656 97.53125 619.472656 93.480469 C 619.472656 90.691406 622.082031 87.179688 628.023438 87.179688 C 634.863281 87.179688 638.910156 89.96875 642.242188 92.21875 L 643.050781 91.859375 L 643.773438 80.070312 L 643.320312 79.441406 C 639.453125 77.820312 635.402344 76.109375 626.671875 76.109375 C 609.753906 76.109375 603.902344 85.648438 603.902344 95.28125 C 603.902344 106.171875 612.363281 110.128906 617.402344 112.558594 L 620.371094 113.910156 C 626.582031 116.519531 631.351562 118.769531 631.351562 123.539062 C 631.351562 126.960938 628.382812 131.011719 620.550781 131.011719 C 612.363281 131.011719 607.773438 127.410156 605.160156 125.339844 L 604.261719 125.609375 L 603.632812 138.300781 L 604.171875 139.019531 C 605.160156 139.378906 606.152344 139.828125 607.140625 140.101562 C 609.210938 140.820312 614.523438 142.351562 621.273438 142.351562 C 623.972656 142.351562 630.8125 142.078125 636.210938 139.558594 C 643.773438 135.871094 647.011719 129.03125 647.011719 121.378906 C 647.011719 116.25 645.03125 110.761719 640.261719 107.070312 C 637.832031 105.269531 635.492188 104.191406 633.332031 103.199219 Z M 680.765625 130.648438 C 679.234375 131.101562 678.152344 131.460938 676.625 131.460938 C 672.035156 131.460938 671.675781 128.578125 671.492188 127.230469 C 671.222656 124.890625 671.222656 119.941406 671.3125 116.339844 L 671.492188 103.648438 L 679.59375 104.011719 L 680.132812 103.46875 L 681.035156 93.839844 L 680.492188 93.300781 L 671.492188 93.300781 L 671.765625 78.179688 L 671.132812 77.640625 C 665.015625 79.441406 663.394531 79.890625 657.003906 81.511719 L 656.644531 82.140625 L 656.734375 93.390625 L 651.875 93.210938 L 651.335938 93.660156 L 650.523438 103.289062 L 651.0625 103.828125 L 656.734375 103.648438 L 656.464844 117.960938 C 656.375 120.210938 656.285156 122.460938 656.285156 124.800781 C 656.285156 133.078125 656.464844 141.988281 670.503906 141.988281 C 674.015625 141.988281 676.804688 141.449219 679.953125 140.910156 L 680.585938 140.28125 L 681.484375 131.011719 Z M 727.472656 114.179688 C 727.5625 106.078125 727.5625 102.570312 725.222656 98.789062 C 723.421875 95.910156 719.824219 92.308594 708.304688 92.308594 C 700.5625 92.308594 695.792969 93.75 690.664062 95.28125 L 690.125 96 L 689.671875 105.808594 L 690.394531 106.171875 C 693.542969 104.910156 699.394531 102.570312 705.421875 102.570312 C 708.753906 102.570312 710.101562 103.109375 711.273438 104.28125 C 712.171875 105.179688 712.445312 106.800781 712.445312 108.148438 C 701.644531 109.589844 696.601562 110.578125 691.203125 113.910156 C 686.164062 117.058594 684.453125 122.191406 684.453125 126.238281 C 684.453125 135.871094 691.382812 142.078125 700.203125 142.078125 C 706.953125 142.078125 710.824219 138.839844 712.714844 137.308594 L 712.714844 140.640625 L 713.253906 141.269531 C 719.734375 141 721.714844 140.910156 727.5625 141 L 728.011719 140.371094 C 727.382812 131.550781 727.382812 129.300781 727.382812 120.839844 L 727.472656 114.179688 M 712.625 128.488281 C 710.734375 129.570312 708.304688 130.828125 705.332031 130.828125 C 702.09375 130.828125 699.394531 129.121094 699.394531 125.339844 C 699.394531 119.398438 706.503906 118.410156 712.625 117.601562 Z M 763.203125 130.648438 C 761.671875 131.101562 760.589844 131.460938 759.0625 131.460938 C 754.472656 131.460938 754.113281 128.578125 753.929688 127.230469 C 753.660156 124.890625 753.660156 119.941406 753.75 116.339844 L 753.929688 103.648438 L 762.03125 104.011719 L 762.570312 103.46875 L 763.472656 93.839844 L 762.929688 93.300781 L 753.929688 93.300781 L 754.203125 78.179688 L 753.570312 77.640625 C 747.453125 79.441406 745.832031 79.890625 739.441406 81.511719 L 739.082031 82.140625 L 739.171875 93.390625 L 734.3125 93.210938 L 733.773438 93.660156 L 732.960938 103.289062 L 733.5 103.828125 L 739.171875 103.648438 L 738.902344 117.960938 C 738.8125 120.210938 738.722656 122.460938 738.722656 124.800781 C 738.722656 133.078125 738.902344 141.988281 752.941406 141.988281 C 756.453125 141.988281 759.242188 141.449219 762.390625 140.910156 L 763.023438 140.28125 L 763.921875 131.011719 Z M 809.824219 127.679688 C 806.40625 129.480469 802.355469 131.550781 795.785156 131.550781 C 790.386719 131.550781 786.695312 129.839844 784.535156 126.601562 C 783.183594 124.710938 782.914062 122.910156 782.554688 121.109375 L 811.625 120.570312 L 812.164062 119.941406 C 812.074219 115.53125 811.984375 111.03125 810.726562 106.53125 C 807.574219 95.910156 800.644531 93.75 797.585938 93.03125 C 795.335938 92.398438 793.265625 92.21875 791.195312 92.21875 C 777.066406 92.21875 767.703125 101.488281 767.703125 117.058594 C 767.703125 121.289062 768.425781 125.699219 769.863281 128.851562 C 775.085938 141 787.324219 142.078125 793.804688 142.078125 C 801.273438 142.078125 804.515625 140.730469 809.285156 138.839844 L 809.824219 138.121094 L 810.453125 127.949219 L 809.824219 127.679688 M 782.554688 111.570312 C 782.824219 108.78125 783.453125 105 786.875 102.839844 C 787.953125 102.121094 789.214844 101.851562 790.476562 101.851562 C 793.445312 101.851562 795.246094 103.378906 796.234375 105 C 797.496094 106.980469 797.585938 109.140625 797.585938 111.210938 Z M 815.042969 141 "/>
<path fill-rule="nonzero" fill="rgb(34.901961%, 14.901961%, 14.901961%)" fill-opacity="1" d="M 198.003906 244.890625 C 195.933594 246.511719 191.34375 249.929688 183.875 249.929688 C 173.613281 249.929688 166.414062 242.28125 166.414062 229.5 C 166.414062 221.761719 169.113281 208.171875 183.785156 208.171875 C 190.535156 208.171875 194.222656 210.78125 196.472656 212.488281 L 197.285156 212.308594 L 198.09375 199.890625 L 197.734375 199.441406 C 194.496094 198.179688 189.003906 196.109375 181.085938 196.109375 C 157.773438 196.109375 149.675781 214.109375 149.675781 229.859375 C 149.675781 247.140625 160.203125 262.351562 182.164062 262.351562 C 189.722656 262.351562 194.675781 260.371094 197.554688 259.199219 L 198.003906 258.660156 L 198.632812 245.25 Z M 245.703125 234.179688 C 245.792969 226.078125 245.792969 222.570312 243.453125 218.789062 C 241.652344 215.910156 238.054688 212.308594 226.535156 212.308594 C 218.792969 212.308594 214.023438 213.75 208.894531 215.28125 L 208.355469 216 L 207.902344 225.808594 L 208.625 226.171875 C 211.773438 224.910156 217.625 222.570312 223.652344 222.570312 C 226.984375 222.570312 228.332031 223.109375 229.503906 224.28125 C 230.402344 225.179688 230.675781 226.800781 230.675781 228.148438 C 219.875 229.589844 214.832031 230.578125 209.433594 233.910156 C 204.394531 237.058594 202.683594 242.191406 202.683594 246.238281 C 202.683594 255.871094 209.613281 262.078125 218.433594 262.078125 C 225.183594 262.078125 229.054688 258.839844 230.945312 257.308594 L 230.945312 260.640625 L 231.484375 261.269531 C 237.964844 261 239.945312 260.910156 245.792969 261 L 246.242188 260.371094 C 245.613281 251.550781 245.613281 249.300781 245.613281 240.839844 L 245.703125 234.179688 M 230.855469 248.488281 C 228.964844 249.570312 226.535156 250.828125 223.5625 250.828125 C 220.324219 250.828125 217.625 249.121094 217.625 245.339844 C 217.625 239.398438 224.734375 238.410156 230.855469 237.601562 Z M 271.175781 212.851562 L 270.457031 212.039062 C 263.886719 213.480469 261.996094 213.839844 255.515625 214.648438 L 254.976562 215.28125 C 255.964844 225.988281 256.324219 230.128906 256.324219 256.050781 C 256.324219 266.761719 256.144531 272.878906 255.875 283.050781 L 256.414062 283.5 C 262.804688 283.230469 264.695312 283.140625 271.535156 283.230469 L 272.074219 282.78125 L 271.445312 261.359375 C 278.015625 261.269531 287.105469 261.179688 294.394531 254.339844 C 300.15625 248.941406 302.046875 241.289062 302.046875 235.171875 C 302.046875 220.859375 293.316406 212.21875 283.234375 212.21875 C 277.027344 212.21875 273.515625 214.738281 270.996094 216.449219 L 271.175781 212.851562 M 271.355469 225.089844 C 273.335938 223.921875 274.507812 223.289062 276.757812 223.289062 C 278.105469 223.289062 280.804688 223.46875 283.054688 225.988281 C 285.847656 229.050781 286.296875 233.640625 286.296875 236.699219 C 286.296875 241.921875 284.585938 246.601562 280.984375 249.121094 C 278.105469 251.101562 274.507812 251.28125 271.355469 251.371094 Z M 326.886719 260.371094 C 326.433594 253.441406 326.074219 248.128906 326.074219 235.710938 C 326.074219 228.058594 326.253906 220.320312 326.34375 212.671875 L 325.714844 211.949219 L 310.234375 214.648438 L 309.695312 215.191406 C 310.414062 222.03125 310.683594 225.179688 310.683594 237.960938 C 310.683594 247.769531 310.414062 253.261719 310.144531 260.640625 L 310.683594 261.269531 C 317.164062 261 318.964844 260.910156 326.253906 261 L 326.886719 260.371094 M 325.445312 203.308594 L 325.714844 191.070312 L 325.175781 190.53125 L 310.503906 192.328125 L 309.964844 192.960938 C 310.144531 196.199219 310.234375 198.089844 310.234375 200.25 C 310.234375 201.960938 310.234375 203.761719 310.144531 205.46875 L 310.773438 206.011719 C 316.894531 204.929688 318.605469 204.75 324.996094 203.941406 Z M 362.074219 250.648438 C 360.542969 251.101562 359.460938 251.460938 357.933594 251.460938 C 353.34375 251.460938 352.984375 248.578125 352.800781 247.230469 C 352.53125 244.890625 352.53125 239.941406 352.621094 236.339844 L 352.800781 223.648438 L 360.902344 224.011719 L 361.441406 223.46875 L 362.34375 213.839844 L 361.800781 213.300781 L 352.800781 213.300781 L 353.074219 198.179688 L 352.441406 197.640625 C 346.324219 199.441406 344.703125 199.890625 338.3125 201.511719 L 337.953125 202.140625 L 338.042969 213.390625 L 333.183594 213.210938 L 332.644531 213.660156 L 331.832031 223.289062 L 332.371094 223.828125 L 338.042969 223.648438 L 337.773438 237.960938 C 337.683594 240.210938 337.59375 242.460938 337.59375 244.800781 C 337.59375 253.078125 337.773438 261.988281 351.8125 261.988281 C 355.324219 261.988281 358.113281 261.449219 361.261719 260.910156 L 361.894531 260.28125 L 362.792969 251.011719 Z M 414.546875 237.058594 C 414.546875 233.550781 414.546875 218.96875 401.945312 214.019531 C 397.984375 212.488281 393.304688 212.308594 390.964844 212.308594 C 375.304688 212.308594 366.484375 220.679688 366.484375 237.238281 C 366.484375 243 367.386719 248.851562 370.714844 253.710938 C 373.054688 257.21875 377.464844 262.078125 390.335938 262.078125 C 409.414062 262.078125 414.546875 250.558594 414.546875 237.058594 M 398.976562 236.96875 C 398.976562 244.351562 397.984375 252.539062 390.515625 252.539062 C 388.175781 252.539062 386.554688 251.460938 385.476562 250.46875 C 383.945312 248.941406 382.234375 245.878906 382.234375 237.148438 C 382.234375 234.539062 382.234375 228.78125 384.035156 225.628906 C 385.386719 223.199219 387.726562 221.578125 390.605469 221.578125 C 393.125 221.578125 395.195312 222.929688 396.367188 224.371094 C 398.527344 226.980469 398.976562 232.109375 398.976562 236.96875 Z M 438.933594 260.371094 C 438.484375 250.019531 438.035156 240.570312 438.035156 212.128906 C 438.035156 203.578125 438.125 199.53125 438.484375 189.808594 L 437.855469 189.179688 L 422.464844 191.609375 L 422.105469 192.148438 C 423.003906 203.128906 423.09375 206.101562 423.273438 220.679688 C 423.367188 225.988281 423.367188 231.300781 423.367188 236.609375 C 423.367188 246.328125 423.183594 251.730469 422.824219 260.640625 L 423.367188 261.269531 C 429.394531 261 431.824219 260.910156 438.394531 261 Z M 544.683594 197.191406 C 535.324219 197.460938 533.792969 197.460938 523.804688 197.460938 L 523.265625 198 L 519.125 212.578125 L 515.523438 225.628906 L 511.292969 241.289062 L 507.332031 225.179688 L 504.8125 215.011719 L 500.3125 197.730469 L 499.863281 197.191406 C 490.234375 197.460938 488.613281 197.460938 478.535156 197.460938 L 477.992188 198 C 477.09375 224.910156 476.734375 231.839844 474.753906 260.730469 L 475.203125 261.269531 C 480.964844 261 482.675781 260.910156 487.894531 261 L 488.433594 260.460938 L 488.703125 243.269531 L 489.242188 225.808594 L 489.605469 208.800781 L 493.5625 224.730469 L 496.984375 237.511719 L 503.015625 260.730469 L 503.554688 261.269531 C 509.132812 261 510.664062 260.910156 516.964844 261 L 517.503906 260.460938 L 522.722656 241.289062 L 526.324219 228.148438 L 531.363281 209.25 L 531.363281 225.359375 L 531.542969 239.128906 L 531.542969 260.730469 L 531.992188 261.269531 C 538.203125 261 540.632812 260.910156 547.5625 261 L 548.015625 260.460938 C 547.472656 250.199219 546.84375 239.851562 546.484375 229.5 C 546.214844 223.828125 546.035156 218.160156 545.765625 212.488281 C 545.3125 204.121094 545.222656 203.039062 545.222656 197.730469 Z M 601.386719 212.851562 L 586.714844 213.570312 L 586.085938 214.109375 C 586.714844 224.28125 586.714844 238.679688 586.714844 240.121094 C 586.714844 242.730469 586.714844 244.171875 586.625 247.769531 C 584.195312 249.390625 582.304688 250.738281 579.875 250.738281 C 573.394531 250.738281 573.394531 243.898438 573.394531 238.589844 C 573.394531 236.339844 573.394531 234 573.484375 231.75 L 573.664062 213.570312 L 573.035156 212.851562 L 558.183594 213.570312 L 557.554688 214.109375 C 558.09375 221.671875 558.183594 224.191406 558.183594 233.28125 L 558.183594 239.578125 C 558.09375 249.390625 558.546875 253.53125 561.785156 257.308594 C 564.753906 260.640625 569.074219 262.078125 573.574219 262.078125 C 579.964844 262.078125 583.65625 259.199219 586.894531 256.679688 L 586.804688 260.730469 L 587.433594 261.269531 C 594.003906 261 595.984375 261 601.835938 261 L 602.375 260.460938 C 601.925781 254.070312 601.746094 250.648438 601.746094 238.949219 C 601.746094 230.488281 601.835938 222.03125 602.015625 213.570312 Z M 631.445312 229.949219 C 628.382812 228.871094 625.953125 227.878906 625.953125 225.359375 C 625.953125 224.28125 626.675781 221.308594 632.253906 221.308594 C 637.746094 221.308594 641.253906 223.648438 643.503906 225.089844 L 644.316406 224.820312 L 645.214844 215.011719 L 644.765625 214.46875 C 640.535156 213.300781 636.84375 212.21875 630.996094 212.21875 C 626.585938 212.21875 617.765625 212.578125 613.085938 219.328125 C 611.914062 220.949219 610.65625 223.648438 610.65625 227.25 C 610.65625 236.878906 618.125 239.761719 622.355469 241.378906 L 625.773438 242.640625 C 628.203125 243.449219 632.164062 244.800781 632.164062 248.039062 C 632.164062 250.289062 630.09375 252.71875 625.054688 252.71875 C 622.535156 252.71875 618.84375 251.910156 615.515625 250.199219 C 613.984375 249.390625 613.265625 248.761719 611.914062 247.679688 L 611.105469 248.039062 C 610.925781 252.71875 610.835938 253.710938 610.472656 258.210938 L 610.925781 259.019531 C 615.335938 260.640625 619.113281 262.078125 625.683594 262.078125 C 632.523438 262.078125 646.023438 260.820312 647.644531 247.949219 C 647.734375 247.230469 647.734375 246.601562 647.734375 245.96875 C 647.734375 236.070312 640.804688 233.460938 635.855469 231.570312 Z M 695.613281 247.679688 C 692.195312 249.480469 688.144531 251.550781 681.574219 251.550781 C 676.175781 251.550781 672.484375 249.839844 670.324219 246.601562 C 668.972656 244.710938 668.703125 242.910156 668.34375 241.109375 L 697.414062 240.570312 L 697.953125 239.941406 C 697.863281 235.53125 697.773438 231.03125 696.515625 226.53125 C 693.363281 215.910156 686.433594 213.75 683.375 213.03125 C 681.125 212.398438 679.054688 212.21875 676.984375 212.21875 C 662.855469 212.21875 653.492188 221.488281 653.492188 237.058594 C 653.492188 241.289062 654.214844 245.699219 655.652344 248.851562 C 660.875 261 673.113281 262.078125 679.59375 262.078125 C 687.0625 262.078125 690.304688 260.730469 695.074219 258.839844 L 695.613281 258.121094 L 696.242188 247.949219 L 695.613281 247.679688 M 668.34375 231.570312 C 668.613281 228.78125 669.242188 225 672.664062 222.839844 C 673.742188 222.121094 675.003906 221.851562 676.265625 221.851562 C 679.234375 221.851562 681.035156 223.378906 682.023438 225 C 683.285156 226.980469 683.375 229.140625 683.375 231.210938 Z M 749.4375 212.851562 L 734.765625 213.570312 L 734.136719 214.109375 C 734.765625 224.28125 734.765625 238.679688 734.765625 240.121094 C 734.765625 242.730469 734.765625 244.171875 734.675781 247.769531 C 732.246094 249.390625 730.355469 250.738281 727.925781 250.738281 C 721.445312 250.738281 721.445312 243.898438 721.445312 238.589844 C 721.445312 236.339844 721.445312 234 721.535156 231.75 L 721.714844 213.570312 L 721.085938 212.851562 L 706.234375 213.570312 L 705.605469 214.109375 C 706.144531 221.671875 706.234375 224.191406 706.234375 233.28125 L 706.234375 239.578125 C 706.144531 249.390625 706.597656 253.53125 709.835938 257.308594 C 712.804688 260.640625 717.125 262.078125 721.625 262.078125 C 728.015625 262.078125 731.707031 259.199219 734.945312 256.679688 L 734.855469 260.730469 L 735.484375 261.269531 C 742.054688 261 744.035156 261 749.886719 261 L 750.425781 260.460938 C 749.976562 254.070312 749.796875 250.648438 749.796875 238.949219 C 749.796875 230.488281 749.886719 222.03125 750.066406 213.570312 Z M 830.886719 260.371094 C 830.433594 252 830.34375 249.660156 830.34375 239.488281 L 830.34375 232.738281 C 830.433594 226.710938 830.523438 221.128906 827.914062 217.351562 C 824.40625 212.21875 818.195312 212.21875 816.753906 212.21875 C 809.375 212.21875 804.425781 215.550781 800.824219 218.070312 C 799.566406 216 797.316406 212.21875 790.117188 212.21875 C 784.175781 212.21875 780.304688 214.921875 776.164062 217.800781 L 776.164062 212.761719 L 775.355469 211.949219 C 768.335938 213.300781 766.355469 213.660156 760.054688 214.558594 L 759.515625 215.191406 C 760.234375 222.390625 760.773438 227.339844 760.773438 245.160156 C 760.773438 250.289062 760.683594 255.511719 760.683594 260.640625 L 761.136719 261.179688 C 766.894531 261 768.875 260.910156 776.34375 260.910156 L 776.886719 260.371094 C 776.253906 246.511719 776.164062 242.371094 776.074219 226.710938 C 777.964844 225.359375 780.035156 224.191406 782.285156 224.191406 C 787.867188 224.191406 788.046875 230.578125 788.046875 238.320312 C 788.046875 251.371094 787.957031 253.351562 787.773438 260.640625 L 788.316406 261.269531 C 795.15625 260.910156 797.046875 260.910156 803.253906 260.910156 L 803.796875 260.371094 C 803.253906 251.820312 803.164062 249.300781 803.074219 238.410156 L 803.074219 235.078125 L 802.984375 225.988281 C 804.515625 225 806.496094 223.738281 809.195312 223.738281 C 814.324219 223.738281 815.136719 228.601562 815.136719 236.339844 C 815.136719 238.050781 815.046875 239.761719 815.046875 241.46875 C 814.957031 244.53125 814.867188 257.941406 814.773438 260.640625 L 815.316406 261.179688 C 822.066406 260.910156 824.046875 260.910156 830.34375 260.910156 Z M 835.835938 261 "/>
</svg>
