<?xml version="1.0" encoding="UTF-8"?>
<svg xmlns="http://www.w3.org/2000/svg" xmlns:xlink="http://www.w3.org/1999/xlink" width="975" height="1300" viewBox="0 0 975 1300">
<path fill-rule="nonzero" fill="rgb(98.823529%, 78.823529%, 9.019608%)" fill-opacity="1" d="M 50 50 L 925 50 L 925 290 L 50 290 Z M 50 50 "/>
<path fill-rule="nonzero" fill="rgb(34.901961%, 14.901961%, 14.901961%)" fill-opacity="1" d="M 148.460938 128.851562 C 137.839844 129.390625 135.320312 129.480469 123.800781 129.480469 L 123.621094 113.730469 L 144.679688 113.730469 L 145.308594 113.191406 L 145.851562 103.019531 L 145.398438 102.480469 L 123.621094 102.839844 L 123.621094 88.53125 C 133.789062 88.53125 135.859375 88.53125 146.75 88.800781 L 147.199219 88.261719 L 147.828125 77.820312 L 147.378906 77.460938 L 107.871094 77.460938 L 107.328125 78 C 107.871094 86.730469 108.050781 90.058594 108.050781 114.179688 C 108.050781 125.519531 107.871094 131.191406 107.601562 140.640625 L 108.050781 141 L 147.648438 141 L 148.371094 140.460938 L 149 129.480469 Z M 228.019531 140.371094 C 227.566406 132 227.476562 129.660156 227.476562 119.488281 L 227.476562 112.738281 C 227.566406 106.710938 227.65625 101.128906 225.046875 97.351562 C 221.539062 92.21875 215.328125 92.21875 213.886719 92.21875 C 206.507812 92.21875 201.558594 95.550781 197.957031 98.070312 C 196.699219 96 194.449219 92.21875 187.25 92.21875 C 181.308594 92.21875 177.4375 94.921875 173.296875 97.800781 L 173.296875 92.761719 L 172.488281 91.949219 C 165.46875 93.300781 163.488281 93.660156 157.1875 94.558594 L 156.648438 95.191406 C 157.367188 102.390625 157.90625 107.339844 157.90625 125.160156 C 157.90625 130.289062 157.816406 135.511719 157.816406 140.640625 L 158.269531 141.179688 C 164.027344 141 166.007812 140.910156 173.476562 140.910156 L 174.019531 140.371094 C 173.386719 126.511719 173.296875 122.371094 173.207031 106.710938 C 175.097656 105.359375 177.167969 104.191406 179.417969 104.191406 C 185 104.191406 185.179688 110.578125 185.179688 118.320312 C 185.179688 131.371094 185.089844 133.351562 184.90625 140.640625 L 185.449219 141.269531 C 192.289062 140.910156 194.179688 140.910156 200.386719 140.910156 L 200.929688 140.371094 C 200.386719 131.820312 200.296875 129.300781 200.207031 118.410156 L 200.207031 115.078125 L 200.117188 105.988281 C 201.648438 105 203.628906 103.738281 206.328125 103.738281 C 211.457031 103.738281 212.269531 108.601562 212.269531 116.339844 C 212.269531 118.050781 212.179688 119.761719 212.179688 121.46875 C 212.089844 124.53125 212 137.941406 211.90625 140.640625 L 212.449219 141.179688 C 219.199219 140.910156 221.179688 140.910156 227.476562 140.910156 Z M 253.308594 92.851562 L 252.589844 92.039062 C 246.019531 93.480469 244.128906 93.839844 237.648438 94.648438 L 237.109375 95.28125 C 238.097656 105.988281 238.457031 110.128906 238.457031 136.050781 C 238.457031 146.761719 238.277344 152.878906 238.007812 163.050781 L 238.546875 163.5 C 244.9375 163.230469 246.828125 163.140625 253.667969 163.230469 L 254.207031 162.78125 L 253.578125 141.359375 C 260.148438 141.269531 269.238281 141.179688 276.527344 134.339844 C 282.289062 128.941406 284.179688 121.289062 284.179688 115.171875 C 284.179688 100.859375 275.449219 92.21875 265.367188 92.21875 C 259.160156 92.21875 255.648438 94.738281 253.128906 96.449219 L 253.308594 92.851562 M 253.488281 105.089844 C 255.46875 103.921875 256.640625 103.289062 258.890625 103.289062 C 260.238281 103.289062 262.9375 103.46875 265.1875 105.988281 C 267.980469 109.050781 268.429688 113.640625 268.429688 116.699219 C 268.429688 121.921875 266.71875 126.601562 263.117188 129.121094 C 260.238281 131.101562 256.640625 131.28125 253.488281 131.371094 Z M 309.019531 140.371094 C 308.566406 133.441406 308.207031 128.128906 308.207031 115.710938 C 308.207031 108.058594 308.386719 100.320312 308.476562 92.671875 L 307.847656 91.949219 L 292.367188 94.648438 L 291.828125 95.191406 C 292.546875 102.03125 292.816406 105.179688 292.816406 117.960938 C 292.816406 127.769531 292.546875 133.261719 292.277344 140.640625 L 292.816406 141.269531 C 299.296875 141 301.097656 140.910156 308.386719 141 L 309.019531 140.371094 M 307.578125 83.308594 L 307.847656 71.070312 L 307.308594 70.53125 L 292.636719 72.328125 L 292.097656 72.960938 C 292.277344 76.199219 292.367188 78.089844 292.367188 80.25 C 292.367188 81.960938 292.367188 83.761719 292.277344 85.46875 L 292.90625 86.011719 C 299.027344 84.929688 300.738281 84.75 307.128906 83.941406 Z M 345.019531 107.609375 L 347.539062 92.941406 L 347 92.308594 C 346.371094 92.308594 345.738281 92.21875 345.109375 92.21875 C 341.417969 92.21875 337.28125 94.289062 334.398438 100.949219 L 334.667969 92.671875 L 333.949219 91.949219 C 327.289062 93.390625 325.578125 93.660156 319.007812 94.648438 L 318.46875 95.191406 C 319.007812 101.941406 319.28125 105.988281 319.28125 118.5 C 319.28125 125.878906 319.1875 133.261719 319.007812 140.730469 L 319.550781 141.269531 C 326.210938 141 327.648438 140.910156 334.847656 141 L 335.300781 140.371094 C 334.9375 133.078125 334.398438 122.910156 334.398438 116.699219 C 334.398438 112.648438 334.398438 106.710938 340.519531 106.710938 C 342.050781 106.710938 342.949219 107.25 344.210938 107.96875 Z M 392.71875 127.679688 C 389.300781 129.480469 385.25 131.550781 378.679688 131.550781 C 373.28125 131.550781 369.589844 129.839844 367.429688 126.601562 C 366.078125 124.710938 365.808594 122.910156 365.449219 121.109375 L 394.519531 120.570312 L 395.058594 119.941406 C 394.96875 115.53125 394.878906 111.03125 393.621094 106.53125 C 390.46875 95.910156 383.539062 93.75 380.480469 93.03125 C 378.230469 92.398438 376.160156 92.21875 374.089844 92.21875 C 359.960938 92.21875 350.597656 101.488281 350.597656 117.058594 C 350.597656 121.289062 351.320312 125.699219 352.757812 128.851562 C 357.980469 141 370.21875 142.078125 376.699219 142.078125 C 384.167969 142.078125 387.410156 140.730469 392.179688 138.839844 L 392.71875 138.121094 L 393.347656 127.949219 L 392.71875 127.679688 M 365.449219 111.570312 C 365.71875 108.78125 366.347656 105 369.769531 102.839844 C 370.847656 102.121094 372.109375 101.851562 373.371094 101.851562 C 376.339844 101.851562 378.140625 103.378906 379.128906 105 C 380.390625 106.980469 380.480469 109.140625 380.480469 111.210938 Z M 498.648438 77.191406 C 489.289062 77.460938 487.757812 77.460938 477.769531 77.460938 L 477.230469 78 L 473.089844 92.578125 L 469.488281 105.628906 L 465.257812 121.289062 L 461.296875 105.179688 L 458.777344 95.011719 L 454.277344 77.730469 L 453.828125 77.191406 C 444.199219 77.460938 442.578125 77.460938 432.5 77.460938 L 431.957031 78 C 431.058594 104.910156 430.699219 111.839844 428.71875 140.730469 L 429.167969 141.269531 C 434.929688 141 436.640625 140.910156 441.859375 141 L 442.398438 140.460938 L 442.667969 123.269531 L 443.207031 105.808594 L 443.570312 88.800781 L 447.527344 104.730469 L 450.949219 117.511719 L 456.980469 140.730469 L 457.519531 141.269531 C 463.097656 141 464.628906 140.910156 470.929688 141 L 471.46875 140.460938 L 476.6875 121.289062 L 480.289062 108.148438 L 485.328125 89.25 L 485.328125 105.359375 L 485.507812 119.128906 L 485.507812 140.730469 L 485.957031 141.269531 C 492.167969 141 494.597656 140.910156 501.527344 141 L 501.980469 140.460938 C 501.4375 130.199219 500.808594 119.851562 500.449219 109.5 C 500.179688 103.828125 500 98.160156 499.730469 92.488281 C 499.277344 84.121094 499.1875 83.039062 499.1875 77.730469 Z M 528.441406 140.371094 C 527.988281 133.441406 527.628906 128.128906 527.628906 115.710938 C 527.628906 108.058594 527.808594 100.320312 527.898438 92.671875 L 527.269531 91.949219 L 511.789062 94.648438 L 511.25 95.191406 C 511.96875 102.03125 512.238281 105.179688 512.238281 117.960938 C 512.238281 127.769531 511.96875 133.261719 511.699219 140.640625 L 512.238281 141.269531 C 518.71875 141 520.519531 140.910156 527.808594 141 L 528.441406 140.371094 M 527 83.308594 L 527.269531 71.070312 L 526.730469 70.53125 L 512.058594 72.328125 L 511.519531 72.960938 C 511.699219 76.199219 511.789062 78.089844 511.789062 80.25 C 511.789062 81.960938 511.789062 83.761719 511.699219 85.46875 L 512.328125 86.011719 C 518.449219 84.929688 520.160156 84.75 526.550781 83.941406 Z M 582.53125 140.371094 C 582.082031 132.449219 582.082031 129.929688 581.902344 121.109375 L 581.902344 114.089844 C 581.8125 105.449219 581.722656 101.308594 579.472656 97.621094 C 576.679688 92.941406 571.550781 92.21875 568.3125 92.21875 C 562.820312 92.21875 558.050781 95.101562 553.910156 97.53125 L 554.089844 92.578125 L 553.191406 91.949219 C 546.261719 93.390625 544.730469 93.660156 537.980469 94.558594 L 537.441406 95.191406 C 538.160156 103.019531 538.703125 108.691406 538.703125 123.359375 C 538.703125 129.121094 538.609375 134.878906 538.519531 140.640625 L 539.0625 141.179688 C 545.542969 140.910156 546.890625 140.910156 554.089844 140.910156 L 554.632812 140.371094 C 554.089844 126.511719 554 123 553.910156 106.890625 C 555.800781 105.628906 557.960938 104.101562 560.839844 104.101562 C 565.792969 104.101562 566.242188 109.410156 566.511719 112.648438 C 566.691406 115.621094 566.78125 127.949219 566.78125 131.371094 C 566.78125 134.429688 566.691406 137.578125 566.691406 140.640625 L 567.230469 141.179688 C 573.171875 141 574.703125 140.910156 581.902344 140.910156 Z M 632.75 127.679688 C 629.332031 129.480469 625.28125 131.550781 618.710938 131.550781 C 613.3125 131.550781 609.621094 129.839844 607.460938 126.601562 C 606.109375 124.710938 605.839844 122.910156 605.480469 121.109375 L 634.550781 120.570312 L 635.089844 119.941406 C 635 115.53125 634.910156 111.03125 633.652344 106.53125 C 630.5 95.910156 623.570312 93.75 620.511719 93.03125 C 618.261719 92.398438 616.191406 92.21875 614.121094 92.21875 C 599.992188 92.21875 590.628906 101.488281 590.628906 117.058594 C 590.628906 121.289062 591.351562 125.699219 592.789062 128.851562 C 598.011719 141 610.25 142.078125 616.730469 142.078125 C 624.199219 142.078125 627.441406 140.730469 632.210938 138.839844 L 632.75 138.121094 L 633.378906 127.949219 L 632.75 127.679688 M 605.480469 111.570312 C 605.75 108.78125 606.378906 105 609.800781 102.839844 C 610.878906 102.121094 612.140625 101.851562 613.402344 101.851562 C 616.371094 101.851562 618.171875 103.378906 619.160156 105 C 620.421875 106.980469 620.511719 109.140625 620.511719 111.210938 Z M 695.660156 102.300781 C 688.101562 99.148438 684.140625 97.53125 684.140625 93.480469 C 684.140625 90.691406 686.75 87.179688 692.691406 87.179688 C 699.53125 87.179688 703.578125 89.96875 706.910156 92.21875 L 707.71875 91.859375 L 708.441406 80.070312 L 707.988281 79.441406 C 704.121094 77.820312 700.070312 76.109375 691.339844 76.109375 C 674.421875 76.109375 668.570312 85.648438 668.570312 95.28125 C 668.570312 106.171875 677.03125 110.128906 682.070312 112.558594 L 685.039062 113.910156 C 691.25 116.519531 696.019531 118.769531 696.019531 123.539062 C 696.019531 126.960938 693.050781 131.011719 685.21875 131.011719 C 677.03125 131.011719 672.441406 127.410156 669.828125 125.339844 L 668.929688 125.609375 L 668.300781 138.300781 L 668.839844 139.019531 C 669.828125 139.378906 670.820312 139.828125 671.808594 140.101562 C 673.878906 140.820312 679.191406 142.351562 685.941406 142.351562 C 688.640625 142.351562 695.480469 142.078125 700.878906 139.558594 C 708.441406 135.871094 711.679688 129.03125 711.679688 121.378906 C 711.679688 116.25 709.699219 110.761719 704.929688 107.070312 C 702.5 105.269531 700.160156 104.191406 698 103.199219 Z M 745.429688 130.648438 C 743.898438 131.101562 742.816406 131.460938 741.289062 131.460938 C 736.699219 131.460938 736.339844 128.578125 736.15625 127.230469 C 735.886719 124.890625 735.886719 119.941406 735.976562 116.339844 L 736.15625 103.648438 L 744.257812 104.011719 L 744.796875 103.46875 L 745.699219 93.839844 L 745.15625 93.300781 L 736.15625 93.300781 L 736.429688 78.179688 L 735.796875 77.640625 C 729.679688 79.441406 728.058594 79.890625 721.667969 81.511719 L 721.308594 82.140625 L 721.398438 93.390625 L 716.539062 93.210938 L 716 93.660156 L 715.1875 103.289062 L 715.726562 103.828125 L 721.398438 103.648438 L 721.128906 117.960938 C 721.039062 120.210938 720.949219 122.460938 720.949219 124.800781 C 720.949219 133.078125 721.128906 141.988281 735.167969 141.988281 C 738.679688 141.988281 741.46875 141.449219 744.617188 140.910156 L 745.25 140.28125 L 746.148438 131.011719 Z M 792.140625 114.179688 C 792.230469 106.078125 792.230469 102.570312 789.890625 98.789062 C 788.089844 95.910156 784.492188 92.308594 772.972656 92.308594 C 765.230469 92.308594 760.460938 93.75 755.332031 95.28125 L 754.792969 96 L 754.339844 105.808594 L 755.0625 106.171875 C 758.210938 104.910156 764.0625 102.570312 770.089844 102.570312 C 773.421875 102.570312 774.769531 103.109375 775.941406 104.28125 C 776.839844 105.179688 777.113281 106.800781 777.113281 108.148438 C 766.3125 109.589844 761.269531 110.578125 755.871094 113.910156 C 750.832031 117.058594 749.121094 122.191406 749.121094 126.238281 C 749.121094 135.871094 756.050781 142.078125 764.871094 142.078125 C 771.621094 142.078125 775.492188 138.839844 777.382812 137.308594 L 777.382812 140.640625 L 777.921875 141.269531 C 784.402344 141 786.382812 140.910156 792.230469 141 L 792.679688 140.371094 C 792.050781 131.550781 792.050781 129.300781 792.050781 120.839844 L 792.140625 114.179688 M 777.292969 128.488281 C 775.402344 129.570312 772.972656 130.828125 770 130.828125 C 766.761719 130.828125 764.0625 129.121094 764.0625 125.339844 C 764.0625 119.398438 771.171875 118.410156 777.292969 117.601562 Z M 827.871094 130.648438 C 826.339844 131.101562 825.257812 131.460938 823.730469 131.460938 C 819.140625 131.460938 818.78125 128.578125 818.597656 127.230469 C 818.328125 124.890625 818.328125 119.941406 818.417969 116.339844 L 818.597656 103.648438 L 826.699219 104.011719 L 827.238281 103.46875 L 828.140625 93.839844 L 827.597656 93.300781 L 818.597656 93.300781 L 818.871094 78.179688 L 818.238281 77.640625 C 812.121094 79.441406 810.5 79.890625 804.109375 81.511719 L 803.75 82.140625 L 803.839844 93.390625 L 798.980469 93.210938 L 798.441406 93.660156 L 797.628906 103.289062 L 798.167969 103.828125 L 803.839844 103.648438 L 803.570312 117.960938 C 803.480469 120.210938 803.390625 122.460938 803.390625 124.800781 C 803.390625 133.078125 803.570312 141.988281 817.609375 141.988281 C 821.121094 141.988281 823.910156 141.449219 827.058594 140.910156 L 827.691406 140.28125 L 828.589844 131.011719 Z M 874.488281 127.679688 C 871.070312 129.480469 867.019531 131.550781 860.449219 131.550781 C 855.050781 131.550781 851.359375 129.839844 849.199219 126.601562 C 847.847656 124.710938 847.578125 122.910156 847.21875 121.109375 L 876.289062 120.570312 L 876.828125 119.941406 C 876.738281 115.53125 876.648438 111.03125 875.390625 106.53125 C 872.238281 95.910156 865.308594 93.75 862.25 93.03125 C 860 92.398438 857.929688 92.21875 855.859375 92.21875 C 841.730469 92.21875 832.367188 101.488281 832.367188 117.058594 C 832.367188 121.289062 833.089844 125.699219 834.527344 128.851562 C 839.75 141 851.988281 142.078125 858.46875 142.078125 C 865.9375 142.078125 869.179688 140.730469 873.949219 138.839844 L 874.488281 138.121094 L 875.117188 127.949219 L 874.488281 127.679688 M 847.21875 111.570312 C 847.488281 108.78125 848.117188 105 851.539062 102.839844 C 852.617188 102.121094 853.878906 101.851562 855.140625 101.851562 C 858.109375 101.851562 859.910156 103.378906 860.898438 105 C 862.160156 106.980469 862.25 109.140625 862.25 111.210938 Z M 879.710938 141 "/>
<path fill-rule="nonzero" fill="rgb(34.901961%, 14.901961%, 14.901961%)" fill-opacity="1" d="M 277.921875 197.191406 C 270.722656 197.460938 269.554688 197.460938 261.992188 197.460938 L 261.542969 198 C 262.171875 208.171875 262.171875 210.78125 262.261719 221.398438 C 258.304688 221.488281 254.34375 221.578125 250.292969 221.578125 C 247.144531 221.578125 243.902344 221.488281 240.753906 221.488281 L 240.933594 197.730469 L 240.484375 197.191406 C 233.554688 197.460938 232.203125 197.460938 224.375 197.460938 L 223.832031 198 C 224.285156 207.269531 224.824219 218.339844 224.824219 240.660156 C 224.824219 248.761719 224.644531 253.171875 224.464844 260.730469 L 224.914062 261.269531 C 231.484375 261 233.101562 260.910156 241.023438 261 L 241.472656 260.460938 C 240.933594 249.300781 240.84375 246.058594 240.753906 233.011719 C 244.714844 232.828125 248.042969 232.738281 251.554688 232.738281 C 255.152344 232.738281 258.753906 232.828125 262.351562 232.921875 C 262.535156 245.070312 262.535156 248.039062 262.082031 260.730469 L 262.535156 261.269531 C 269.285156 261 271.082031 260.910156 278.734375 261 L 279.183594 260.460938 C 278.464844 245.339844 278.191406 230.308594 278.191406 215.191406 C 278.191406 208.890625 278.285156 204.660156 278.375 197.730469 Z M 305.914062 260.371094 C 305.460938 253.441406 305.101562 248.128906 305.101562 235.710938 C 305.101562 228.058594 305.28125 220.320312 305.371094 212.671875 L 304.742188 211.949219 L 289.261719 214.648438 L 288.722656 215.191406 C 289.441406 222.03125 289.710938 225.179688 289.710938 237.960938 C 289.710938 247.769531 289.441406 253.261719 289.171875 260.640625 L 289.710938 261.269531 C 296.191406 261 297.992188 260.910156 305.28125 261 L 305.914062 260.371094 M 304.472656 203.308594 L 304.742188 191.070312 L 304.203125 190.53125 L 289.53125 192.328125 L 288.992188 192.960938 C 289.171875 196.199219 289.261719 198.089844 289.261719 200.25 C 289.261719 201.960938 289.261719 203.761719 289.171875 205.46875 L 289.800781 206.011719 C 295.921875 204.929688 297.632812 204.75 304.023438 203.941406 Z M 334.804688 229.949219 C 331.742188 228.871094 329.3125 227.878906 329.3125 225.359375 C 329.3125 224.28125 330.035156 221.308594 335.613281 221.308594 C 341.105469 221.308594 344.613281 223.648438 346.863281 225.089844 L 347.675781 224.820312 L 348.574219 215.011719 L 348.125 214.46875 C 343.894531 213.300781 340.203125 212.21875 334.355469 212.21875 C 329.945312 212.21875 321.125 212.578125 316.445312 219.328125 C 315.273438 220.949219 314.015625 223.648438 314.015625 227.25 C 314.015625 236.878906 321.484375 239.761719 325.714844 241.378906 L 329.132812 242.640625 C 331.5625 243.449219 335.523438 244.800781 335.523438 248.039062 C 335.523438 250.289062 333.453125 252.71875 328.414062 252.71875 C 325.894531 252.71875 322.203125 251.910156 318.875 250.199219 C 317.34375 249.390625 316.625 248.761719 315.273438 247.679688 L 314.464844 248.039062 C 314.285156 252.71875 314.195312 253.710938 313.832031 258.210938 L 314.285156 259.019531 C 318.695312 260.640625 322.472656 262.078125 329.042969 262.078125 C 335.882812 262.078125 349.382812 260.820312 351.003906 247.949219 C 351.09375 247.230469 351.09375 246.601562 351.09375 245.96875 C 351.09375 236.070312 344.164062 233.460938 339.214844 231.570312 Z M 384.214844 250.648438 C 382.683594 251.101562 381.601562 251.460938 380.074219 251.460938 C 375.484375 251.460938 375.125 248.578125 374.941406 247.230469 C 374.671875 244.890625 374.671875 239.941406 374.761719 236.339844 L 374.941406 223.648438 L 383.042969 224.011719 L 383.582031 223.46875 L 384.484375 213.839844 L 383.941406 213.300781 L 374.941406 213.300781 L 375.214844 198.179688 L 374.582031 197.640625 C 368.464844 199.441406 366.84375 199.890625 360.453125 201.511719 L 360.09375 202.140625 L 360.183594 213.390625 L 355.324219 213.210938 L 354.785156 213.660156 L 353.972656 223.289062 L 354.511719 223.828125 L 360.183594 223.648438 L 359.914062 237.960938 C 359.824219 240.210938 359.734375 242.460938 359.734375 244.800781 C 359.734375 253.078125 359.914062 261.988281 373.953125 261.988281 C 377.464844 261.988281 380.253906 261.449219 383.402344 260.910156 L 384.035156 260.28125 L 384.933594 251.011719 Z M 436.683594 237.058594 C 436.683594 233.550781 436.683594 218.96875 424.082031 214.019531 C 420.121094 212.488281 415.441406 212.308594 413.101562 212.308594 C 397.441406 212.308594 388.621094 220.679688 388.621094 237.238281 C 388.621094 243 389.523438 248.851562 392.851562 253.710938 C 395.191406 257.21875 399.601562 262.078125 412.472656 262.078125 C 431.550781 262.078125 436.683594 250.558594 436.683594 237.058594 M 421.113281 236.96875 C 421.113281 244.351562 420.121094 252.539062 412.652344 252.539062 C 410.3125 252.539062 408.691406 251.460938 407.613281 250.46875 C 406.082031 248.941406 404.371094 245.878906 404.371094 237.148438 C 404.371094 234.539062 404.371094 228.78125 406.171875 225.628906 C 407.523438 223.199219 409.863281 221.578125 412.742188 221.578125 C 415.261719 221.578125 417.332031 222.929688 418.503906 224.371094 C 420.664062 226.980469 421.113281 232.109375 421.113281 236.96875 Z M 471.242188 227.609375 L 473.761719 212.941406 L 473.222656 212.308594 C 472.59375 212.308594 471.960938 212.21875 471.332031 212.21875 C 467.640625 212.21875 463.503906 214.289062 460.621094 220.949219 L 460.890625 212.671875 L 460.171875 211.949219 C 453.511719 213.390625 451.800781 213.660156 445.230469 214.648438 L 444.691406 215.191406 C 445.230469 221.941406 445.503906 225.988281 445.503906 238.5 C 445.503906 245.878906 445.410156 253.261719 445.230469 260.730469 L 445.773438 261.269531 C 452.433594 261 453.871094 260.910156 461.070312 261 L 461.523438 260.371094 C 461.160156 253.078125 460.621094 242.910156 460.621094 236.699219 C 460.621094 232.648438 460.621094 226.710938 466.742188 226.710938 C 468.273438 226.710938 469.171875 227.25 470.433594 227.96875 Z M 495.273438 260.371094 C 494.820312 253.441406 494.460938 248.128906 494.460938 235.710938 C 494.460938 228.058594 494.640625 220.320312 494.730469 212.671875 L 494.101562 211.949219 L 478.621094 214.648438 L 478.082031 215.191406 C 478.800781 222.03125 479.070312 225.179688 479.070312 237.960938 C 479.070312 247.769531 478.800781 253.261719 478.53125 260.640625 L 479.070312 261.269531 C 485.550781 261 487.351562 260.910156 494.640625 261 L 495.273438 260.371094 M 493.832031 203.308594 L 494.101562 191.070312 L 493.5625 190.53125 L 478.890625 192.328125 L 478.351562 192.960938 C 478.53125 196.199219 478.621094 198.089844 478.621094 200.25 C 478.621094 201.960938 478.621094 203.761719 478.53125 205.46875 L 479.160156 206.011719 C 485.28125 204.929688 486.992188 204.75 493.382812 203.941406 Z M 540.453125 248.039062 C 538.023438 249.480469 535.683594 250.921875 531.09375 250.921875 C 520.921875 250.921875 518.851562 242.460938 518.851562 237.058594 C 518.851562 230.488281 521.734375 222.929688 530.464844 222.929688 C 534.421875 222.929688 536.582031 224.371094 539.285156 226.171875 L 540.183594 225.898438 C 540.542969 221.128906 540.632812 219.871094 541.351562 215.101562 L 540.902344 214.558594 C 536.941406 213.300781 533.523438 212.21875 528.304688 212.21875 C 507.152344 212.21875 503.011719 228.238281 503.011719 237.421875 C 503.011719 247.769531 508.414062 261.808594 528.664062 261.808594 C 533.433594 261.808594 536.492188 260.910156 540.273438 259.828125 L 540.8125 259.289062 L 541.171875 248.488281 Z M 586.714844 197.28125 L 575.285156 197.460938 L 574.742188 198 C 575.105469 209.699219 575.375 217.53125 575.375 227.878906 C 575.375 238.859375 575.105469 249.75 574.832031 260.730469 L 575.375 261.269531 C 582.035156 261 583.472656 260.910156 590.675781 261 L 591.125 260.460938 C 590.765625 250.648438 590.765625 248.398438 590.765625 239.21875 C 600.84375 239.308594 611.644531 239.308594 618.125 231.390625 C 620.644531 228.328125 622.804688 223.199219 622.804688 216.898438 C 622.804688 213.03125 621.902344 204.480469 614.433594 200.25 C 609.035156 197.101562 601.382812 197.101562 594.632812 197.101562 L 586.714844 197.28125 M 590.765625 208.171875 C 592.742188 208.078125 594.632812 208.078125 596.613281 208.078125 C 604.535156 208.261719 606.695312 212.308594 606.695312 217.53125 C 606.695312 218.789062 606.695312 224.011719 601.925781 226.621094 C 599.492188 227.96875 596.164062 228.148438 590.765625 228.148438 Z M 669.0625 234.179688 C 669.152344 226.078125 669.152344 222.570312 666.8125 218.789062 C 665.011719 215.910156 661.414062 212.308594 649.894531 212.308594 C 642.152344 212.308594 637.382812 213.75 632.253906 215.28125 L 631.714844 216 L 631.261719 225.808594 L 631.984375 226.171875 C 635.132812 224.910156 640.984375 222.570312 647.011719 222.570312 C 650.34375 222.570312 651.691406 223.109375 652.863281 224.28125 C 653.761719 225.179688 654.035156 226.800781 654.035156 228.148438 C 643.234375 229.589844 638.191406 230.578125 632.792969 233.910156 C 627.753906 237.058594 626.042969 242.191406 626.042969 246.238281 C 626.042969 255.871094 632.972656 262.078125 641.792969 262.078125 C 648.542969 262.078125 652.414062 258.839844 654.304688 257.308594 L 654.304688 260.640625 L 654.84375 261.269531 C 661.324219 261 663.304688 260.910156 669.152344 261 L 669.601562 260.371094 C 668.972656 251.550781 668.972656 249.300781 668.972656 240.839844 L 669.0625 234.179688 M 654.214844 248.488281 C 652.324219 249.570312 649.894531 250.828125 646.921875 250.828125 C 643.683594 250.828125 640.984375 249.121094 640.984375 245.339844 C 640.984375 239.398438 648.09375 238.410156 654.214844 237.601562 Z M 705.601562 227.609375 L 708.121094 212.941406 L 707.582031 212.308594 C 706.953125 212.308594 706.320312 212.21875 705.691406 212.21875 C 702 212.21875 697.863281 214.289062 694.980469 220.949219 L 695.25 212.671875 L 694.53125 211.949219 C 687.871094 213.390625 686.160156 213.660156 679.589844 214.648438 L 679.050781 215.191406 C 679.589844 221.941406 679.863281 225.988281 679.863281 238.5 C 679.863281 245.878906 679.769531 253.261719 679.589844 260.730469 L 680.132812 261.269531 C 686.792969 261 688.230469 260.910156 695.429688 261 L 695.882812 260.371094 C 695.519531 253.078125 694.980469 242.910156 694.980469 236.699219 C 694.980469 232.648438 694.980469 226.710938 701.101562 226.710938 C 702.632812 226.710938 703.53125 227.25 704.792969 227.96875 Z M 759.601562 259.828125 C 751.140625 245.519531 750.242188 243.898438 743.402344 231.570312 C 749.613281 223.109375 750.242188 222.210938 756.632812 214.019531 L 756.179688 213.121094 L 741.511719 213.300781 L 740.613281 213.929688 C 733.589844 226.078125 732.691406 227.519531 728.550781 233.730469 L 728.550781 223.738281 C 728.640625 206.910156 728.730469 203.308594 729.179688 189.71875 L 728.460938 189.179688 L 712.800781 191.519531 L 712.261719 192.148438 C 712.890625 200.878906 713.160156 205.109375 713.339844 216.898438 C 713.519531 231.480469 713.519531 246.058594 713.429688 260.640625 L 714.0625 261.269531 C 720.089844 261 721.800781 261 728.640625 261 L 729.179688 260.371094 L 728.640625 245.160156 L 728.550781 234.808594 C 736.382812 249.210938 737.371094 251.191406 741.960938 260.730469 L 742.769531 261.269531 L 758.972656 260.640625 Z M 758.523438 261 "/>
</svg>
