<?xml version="1.0" encoding="UTF-8"?>
<svg xmlns="http://www.w3.org/2000/svg" xmlns:xlink="http://www.w3.org/1999/xlink" width="975" height="1300" viewBox="0 0 975 1300">
<path fill-rule="nonzero" fill="rgb(98.823529%, 78.823529%, 9.019608%)" fill-opacity="1" d="M 50 50 L 925 50 L 925 290 L 50 290 Z M 50 50 "/>
<path fill-rule="nonzero" fill="rgb(34.901961%, 14.901961%, 14.901961%)" fill-opacity="1" d="M 145.9375 115.078125 L 146.570312 114.539062 L 147.289062 104.011719 L 146.839844 103.46875 L 126.320312 104.191406 L 126.320312 89.160156 L 148.371094 89.429688 L 148.910156 88.800781 L 149.898438 77.640625 L 149.359375 77.191406 C 134.507812 77.460938 129.738281 77.460938 110.300781 77.371094 L 109.757812 77.910156 C 110.300781 86.730469 110.660156 93.839844 110.660156 109.769531 C 110.660156 120.121094 110.480469 130.46875 110.300781 140.820312 L 110.75 141.269531 C 117.320312 141 118.847656 141 126.769531 141 L 127.21875 140.460938 C 126.589844 130.109375 126.5 126.960938 126.230469 115.078125 Z M 202.550781 117.058594 C 202.550781 113.550781 202.550781 98.96875 189.949219 94.019531 C 185.988281 92.488281 181.308594 92.308594 178.96875 92.308594 C 163.308594 92.308594 154.488281 100.679688 154.488281 117.238281 C 154.488281 123 155.390625 128.851562 158.71875 133.710938 C 161.058594 137.21875 165.46875 142.078125 178.339844 142.078125 C 197.417969 142.078125 202.550781 130.558594 202.550781 117.058594 M 186.980469 116.96875 C 186.980469 124.351562 185.988281 132.539062 178.519531 132.539062 C 176.179688 132.539062 174.558594 131.460938 173.480469 130.46875 C 171.949219 128.941406 170.238281 125.878906 170.238281 117.148438 C 170.238281 114.539062 170.238281 108.78125 172.039062 105.628906 C 173.390625 103.199219 175.730469 101.578125 178.609375 101.578125 C 181.128906 101.578125 183.199219 102.929688 184.371094 104.371094 C 186.53125 106.980469 186.980469 112.109375 186.980469 116.96875 Z M 226.9375 140.371094 C 226.488281 130.019531 226.039062 120.570312 226.039062 92.128906 C 226.039062 83.578125 226.128906 79.53125 226.488281 69.808594 L 225.859375 69.179688 L 210.46875 71.609375 L 210.109375 72.148438 C 211.007812 83.128906 211.097656 86.101562 211.277344 100.679688 C 211.371094 105.988281 211.371094 111.300781 211.371094 116.609375 C 211.371094 126.328125 211.1875 131.730469 210.828125 140.640625 L 211.371094 141.269531 C 217.398438 141 219.828125 140.910156 226.398438 141 Z M 256.28125 109.949219 C 253.21875 108.871094 250.789062 107.878906 250.789062 105.359375 C 250.789062 104.28125 251.511719 101.308594 257.089844 101.308594 C 262.582031 101.308594 266.089844 103.648438 268.339844 105.089844 L 269.152344 104.820312 L 270.050781 95.011719 L 269.601562 94.46875 C 265.371094 93.300781 261.679688 92.21875 255.832031 92.21875 C 251.421875 92.21875 242.601562 92.578125 237.921875 99.328125 C 236.75 100.949219 235.492188 103.648438 235.492188 107.25 C 235.492188 116.878906 242.960938 119.761719 247.191406 121.378906 L 250.609375 122.640625 C 253.039062 123.449219 257 124.800781 257 128.039062 C 257 130.289062 254.929688 132.71875 249.890625 132.71875 C 247.371094 132.71875 243.679688 131.910156 240.351562 130.199219 C 238.820312 129.390625 238.101562 128.761719 236.75 127.679688 L 235.941406 128.039062 C 235.761719 132.71875 235.671875 133.710938 235.308594 138.210938 L 235.761719 139.019531 C 240.171875 140.640625 243.949219 142.078125 250.519531 142.078125 C 257.359375 142.078125 270.859375 140.820312 272.480469 127.949219 C 272.570312 127.230469 272.570312 126.601562 272.570312 125.96875 C 272.570312 116.070312 265.640625 113.460938 260.691406 111.570312 Z M 326.300781 117.058594 C 326.300781 113.550781 326.300781 98.96875 313.699219 94.019531 C 309.738281 92.488281 305.058594 92.308594 302.71875 92.308594 C 287.058594 92.308594 278.238281 100.679688 278.238281 117.238281 C 278.238281 123 279.140625 128.851562 282.46875 133.710938 C 284.808594 137.21875 289.21875 142.078125 302.089844 142.078125 C 321.167969 142.078125 326.300781 130.558594 326.300781 117.058594 M 310.730469 116.96875 C 310.730469 124.351562 309.738281 132.539062 302.269531 132.539062 C 299.929688 132.539062 298.308594 131.460938 297.230469 130.46875 C 295.699219 128.941406 293.988281 125.878906 293.988281 117.148438 C 293.988281 114.539062 293.988281 108.78125 295.789062 105.628906 C 297.140625 103.199219 299.480469 101.578125 302.359375 101.578125 C 304.878906 101.578125 306.949219 102.929688 308.121094 104.371094 C 310.28125 106.980469 310.730469 112.109375 310.730469 116.96875 Z M 405.140625 140.371094 C 404.6875 132 404.597656 129.660156 404.597656 119.488281 L 404.597656 112.738281 C 404.6875 106.710938 404.777344 101.128906 402.167969 97.351562 C 398.660156 92.21875 392.449219 92.21875 391.007812 92.21875 C 383.628906 92.21875 378.679688 95.550781 375.078125 98.070312 C 373.820312 96 371.570312 92.21875 364.371094 92.21875 C 358.429688 92.21875 354.558594 94.921875 350.417969 97.800781 L 350.417969 92.761719 L 349.609375 91.949219 C 342.589844 93.300781 340.609375 93.660156 334.308594 94.558594 L 333.769531 95.191406 C 334.488281 102.390625 335.027344 107.339844 335.027344 125.160156 C 335.027344 130.289062 334.9375 135.511719 334.9375 140.640625 L 335.390625 141.179688 C 341.148438 141 343.128906 140.910156 350.597656 140.910156 L 351.140625 140.371094 C 350.507812 126.511719 350.417969 122.371094 350.328125 106.710938 C 352.21875 105.359375 354.289062 104.191406 356.539062 104.191406 C 362.121094 104.191406 362.300781 110.578125 362.300781 118.320312 C 362.300781 131.371094 362.210938 133.351562 362.027344 140.640625 L 362.570312 141.269531 C 369.410156 140.910156 371.300781 140.910156 377.507812 140.910156 L 378.050781 140.371094 C 377.507812 131.820312 377.417969 129.300781 377.328125 118.410156 L 377.328125 115.078125 L 377.238281 105.988281 C 378.769531 105 380.75 103.738281 383.449219 103.738281 C 388.578125 103.738281 389.390625 108.601562 389.390625 116.339844 C 389.390625 118.050781 389.300781 119.761719 389.300781 121.46875 C 389.210938 124.53125 389.121094 137.941406 389.027344 140.640625 L 389.570312 141.179688 C 396.320312 140.910156 398.300781 140.910156 404.597656 140.910156 Z M 480.472656 128.671875 C 470.660156 129.210938 462.832031 129.390625 460.132812 129.390625 L 458.332031 129.390625 C 458.152344 105.359375 458.242188 99.238281 458.960938 77.730469 L 458.421875 77.191406 C 450.679688 77.550781 448.609375 77.550781 442.402344 77.460938 L 441.859375 78 C 442.222656 85.199219 442.3125 87.359375 442.3125 98.070312 C 442.3125 112.289062 442.222656 126.511719 442.222656 140.730469 L 442.671875 141.269531 C 460.3125 141 463.550781 141 479.75 141 L 480.199219 140.460938 L 480.921875 129.121094 Z M 528.707031 114.179688 C 528.796875 106.078125 528.796875 102.570312 526.457031 98.789062 C 524.65625 95.910156 521.058594 92.308594 509.539062 92.308594 C 501.796875 92.308594 497.027344 93.75 491.898438 95.28125 L 491.359375 96 L 490.90625 105.808594 L 491.628906 106.171875 C 494.777344 104.910156 500.628906 102.570312 506.65625 102.570312 C 509.988281 102.570312 511.335938 103.109375 512.507812 104.28125 C 513.40625 105.179688 513.679688 106.800781 513.679688 108.148438 C 502.878906 109.589844 497.835938 110.578125 492.4375 113.910156 C 487.398438 117.058594 485.6875 122.191406 485.6875 126.238281 C 485.6875 135.871094 492.617188 142.078125 501.4375 142.078125 C 508.1875 142.078125 512.058594 138.839844 513.949219 137.308594 L 513.949219 140.640625 L 514.488281 141.269531 C 520.96875 141 522.949219 140.910156 528.796875 141 L 529.246094 140.371094 C 528.617188 131.550781 528.617188 129.300781 528.617188 120.839844 L 528.707031 114.179688 M 513.859375 128.488281 C 511.96875 129.570312 509.539062 130.828125 506.566406 130.828125 C 503.328125 130.828125 500.628906 129.121094 500.628906 125.339844 C 500.628906 119.398438 507.738281 118.410156 513.859375 117.601562 Z M 585.5 139.828125 C 577.039062 125.519531 576.140625 123.898438 569.300781 111.570312 C 575.511719 103.109375 576.140625 102.210938 582.53125 94.019531 L 582.078125 93.121094 L 567.410156 93.300781 L 566.511719 93.929688 C 559.488281 106.078125 558.589844 107.519531 554.449219 113.730469 L 554.449219 103.738281 C 554.539062 86.910156 554.628906 83.308594 555.078125 69.71875 L 554.359375 69.179688 L 538.699219 71.519531 L 538.160156 72.148438 C 538.789062 80.878906 539.058594 85.109375 539.238281 96.898438 C 539.417969 111.480469 539.417969 126.058594 539.328125 140.640625 L 539.960938 141.269531 C 545.988281 141 547.699219 141 554.539062 141 L 555.078125 140.371094 L 554.539062 125.160156 L 554.449219 114.808594 C 562.28125 129.210938 563.269531 131.191406 567.859375 140.730469 L 568.667969 141.269531 L 584.871094 140.640625 Z M 629.777344 127.679688 C 626.359375 129.480469 622.308594 131.550781 615.738281 131.550781 C 610.339844 131.550781 606.648438 129.839844 604.488281 126.601562 C 603.136719 124.710938 602.867188 122.910156 602.507812 121.109375 L 631.578125 120.570312 L 632.117188 119.941406 C 632.027344 115.53125 631.9375 111.03125 630.679688 106.53125 C 627.527344 95.910156 620.597656 93.75 617.539062 93.03125 C 615.289062 92.398438 613.21875 92.21875 611.148438 92.21875 C 597.019531 92.21875 587.65625 101.488281 587.65625 117.058594 C 587.65625 121.289062 588.378906 125.699219 589.816406 128.851562 C 595.039062 141 607.277344 142.078125 613.757812 142.078125 C 621.226562 142.078125 624.46875 140.730469 629.238281 138.839844 L 629.777344 138.121094 L 630.40625 127.949219 L 629.777344 127.679688 M 602.507812 111.570312 C 602.777344 108.78125 603.40625 105 606.828125 102.839844 C 607.90625 102.121094 609.167969 101.851562 610.429688 101.851562 C 613.398438 101.851562 615.199219 103.378906 616.1875 105 C 617.449219 106.980469 617.539062 109.140625 617.539062 111.210938 Z M 692.6875 102.300781 C 685.128906 99.148438 681.167969 97.53125 681.167969 93.480469 C 681.167969 90.691406 683.777344 87.179688 689.71875 87.179688 C 696.558594 87.179688 700.605469 89.96875 703.9375 92.21875 L 704.746094 91.859375 L 705.46875 80.070312 L 705.015625 79.441406 C 701.148438 77.820312 697.097656 76.109375 688.367188 76.109375 C 671.449219 76.109375 665.597656 85.648438 665.597656 95.28125 C 665.597656 106.171875 674.058594 110.128906 679.097656 112.558594 L 682.066406 113.910156 C 688.277344 116.519531 693.046875 118.769531 693.046875 123.539062 C 693.046875 126.960938 690.078125 131.011719 682.246094 131.011719 C 674.058594 131.011719 669.46875 127.410156 666.855469 125.339844 L 665.957031 125.609375 L 665.328125 138.300781 L 665.867188 139.019531 C 666.855469 139.378906 667.847656 139.828125 668.835938 140.101562 C 670.90625 140.820312 676.21875 142.351562 682.96875 142.351562 C 685.667969 142.351562 692.507812 142.078125 697.90625 139.558594 C 705.46875 135.871094 708.707031 129.03125 708.707031 121.378906 C 708.707031 116.25 706.726562 110.761719 701.957031 107.070312 C 699.527344 105.269531 697.1875 104.191406 695.027344 103.199219 Z M 742.460938 130.648438 C 740.929688 131.101562 739.847656 131.460938 738.320312 131.460938 C 733.730469 131.460938 733.371094 128.578125 733.1875 127.230469 C 732.917969 124.890625 732.917969 119.941406 733.007812 116.339844 L 733.1875 103.648438 L 741.289062 104.011719 L 741.828125 103.46875 L 742.730469 93.839844 L 742.1875 93.300781 L 733.1875 93.300781 L 733.460938 78.179688 L 732.828125 77.640625 C 726.710938 79.441406 725.089844 79.890625 718.699219 81.511719 L 718.339844 82.140625 L 718.429688 93.390625 L 713.570312 93.210938 L 713.03125 93.660156 L 712.21875 103.289062 L 712.757812 103.828125 L 718.429688 103.648438 L 718.160156 117.960938 C 718.070312 120.210938 717.980469 122.460938 717.980469 124.800781 C 717.980469 133.078125 718.160156 141.988281 732.199219 141.988281 C 735.710938 141.988281 738.5 141.449219 741.648438 140.910156 L 742.28125 140.28125 L 743.179688 131.011719 Z M 789.167969 114.179688 C 789.257812 106.078125 789.257812 102.570312 786.917969 98.789062 C 785.117188 95.910156 781.519531 92.308594 770 92.308594 C 762.257812 92.308594 757.488281 93.75 752.359375 95.28125 L 751.820312 96 L 751.367188 105.808594 L 752.089844 106.171875 C 755.238281 104.910156 761.089844 102.570312 767.117188 102.570312 C 770.449219 102.570312 771.796875 103.109375 772.96875 104.28125 C 773.867188 105.179688 774.140625 106.800781 774.140625 108.148438 C 763.339844 109.589844 758.296875 110.578125 752.898438 113.910156 C 747.859375 117.058594 746.148438 122.191406 746.148438 126.238281 C 746.148438 135.871094 753.078125 142.078125 761.898438 142.078125 C 768.648438 142.078125 772.519531 138.839844 774.410156 137.308594 L 774.410156 140.640625 L 774.949219 141.269531 C 781.429688 141 783.410156 140.910156 789.257812 141 L 789.707031 140.371094 C 789.078125 131.550781 789.078125 129.300781 789.078125 120.839844 L 789.167969 114.179688 M 774.320312 128.488281 C 772.429688 129.570312 770 130.828125 767.027344 130.828125 C 763.789062 130.828125 761.089844 129.121094 761.089844 125.339844 C 761.089844 119.398438 768.199219 118.410156 774.320312 117.601562 Z M 824.902344 130.648438 C 823.371094 131.101562 822.289062 131.460938 820.761719 131.460938 C 816.171875 131.460938 815.8125 128.578125 815.628906 127.230469 C 815.359375 124.890625 815.359375 119.941406 815.449219 116.339844 L 815.628906 103.648438 L 823.730469 104.011719 L 824.269531 103.46875 L 825.171875 93.839844 L 824.628906 93.300781 L 815.628906 93.300781 L 815.902344 78.179688 L 815.269531 77.640625 C 809.152344 79.441406 807.53125 79.890625 801.140625 81.511719 L 800.78125 82.140625 L 800.871094 93.390625 L 796.011719 93.210938 L 795.472656 93.660156 L 794.660156 103.289062 L 795.199219 103.828125 L 800.871094 103.648438 L 800.601562 117.960938 C 800.511719 120.210938 800.421875 122.460938 800.421875 124.800781 C 800.421875 133.078125 800.601562 141.988281 814.640625 141.988281 C 818.152344 141.988281 820.941406 141.449219 824.089844 140.910156 L 824.722656 140.28125 L 825.621094 131.011719 Z M 871.519531 127.679688 C 868.101562 129.480469 864.050781 131.550781 857.480469 131.550781 C 852.082031 131.550781 848.390625 129.839844 846.230469 126.601562 C 844.878906 124.710938 844.609375 122.910156 844.25 121.109375 L 873.320312 120.570312 L 873.859375 119.941406 C 873.769531 115.53125 873.679688 111.03125 872.421875 106.53125 C 869.269531 95.910156 862.339844 93.75 859.28125 93.03125 C 857.03125 92.398438 854.960938 92.21875 852.890625 92.21875 C 838.761719 92.21875 829.398438 101.488281 829.398438 117.058594 C 829.398438 121.289062 830.121094 125.699219 831.558594 128.851562 C 836.78125 141 849.019531 142.078125 855.5 142.078125 C 862.96875 142.078125 866.210938 140.730469 870.980469 138.839844 L 871.519531 138.121094 L 872.148438 127.949219 L 871.519531 127.679688 M 844.25 111.570312 C 844.519531 108.78125 845.148438 105 848.570312 102.839844 C 849.648438 102.121094 850.910156 101.851562 852.171875 101.851562 C 855.140625 101.851562 856.941406 103.378906 857.929688 105 C 859.191406 106.980469 859.28125 109.140625 859.28125 111.210938 Z M 876.738281 141 "/>
<path fill-rule="nonzero" fill="rgb(34.901961%, 14.901961%, 14.901961%)" fill-opacity="1" d="M 180.769531 236.25 C 186.800781 246.511719 188.152344 249.210938 193.910156 261 L 194.632812 261.449219 C 197.421875 261.269531 200.121094 261.089844 202.910156 261 C 205.703125 260.910156 208.582031 260.820312 211.371094 260.820312 L 211.910156 259.738281 C 208.492188 255.328125 207.5 253.980469 201.019531 243.628906 C 198.140625 239.039062 196.703125 236.609375 194.453125 232.648438 C 198.5 230.851562 206.691406 227.070312 206.691406 215.640625 C 206.691406 211.679688 205.609375 203.488281 198.230469 199.621094 C 193.550781 197.191406 188.691406 197.101562 178.160156 197.28125 L 171.859375 197.371094 L 160.882812 197.371094 L 160.429688 197.910156 C 160.792969 207 161.152344 216.359375 161.152344 240.839844 C 161.152344 249.210938 161.0625 253.261719 160.792969 260.730469 L 161.332031 261.269531 C 167.902344 261 169.339844 260.910156 176.722656 261 L 177.261719 260.460938 C 176.542969 250.019531 176.453125 247.140625 176.359375 236.429688 L 180.769531 236.25 M 176.542969 208.261719 C 177.800781 208.171875 179.0625 208.171875 180.320312 208.171875 C 183.832031 208.171875 190.761719 208.171875 190.761719 216.089844 C 190.761719 218.609375 190.132812 221.941406 186.800781 224.011719 C 184.28125 225.539062 181.042969 225.71875 176.542969 225.808594 Z M 256.640625 247.679688 C 253.222656 249.480469 249.171875 251.550781 242.601562 251.550781 C 237.203125 251.550781 233.511719 249.839844 231.351562 246.601562 C 230 244.710938 229.730469 242.910156 229.371094 241.109375 L 258.441406 240.570312 L 258.980469 239.941406 C 258.890625 235.53125 258.800781 231.03125 257.542969 226.53125 C 254.390625 215.910156 247.460938 213.75 244.402344 213.03125 C 242.152344 212.398438 240.082031 212.21875 238.011719 212.21875 C 223.882812 212.21875 214.519531 221.488281 214.519531 237.058594 C 214.519531 241.289062 215.242188 245.699219 216.679688 248.851562 C 221.902344 261 234.140625 262.078125 240.621094 262.078125 C 248.089844 262.078125 251.332031 260.730469 256.101562 258.839844 L 256.640625 258.121094 L 257.269531 247.949219 L 256.640625 247.679688 M 229.371094 231.570312 C 229.640625 228.78125 230.269531 225 233.691406 222.839844 C 234.769531 222.121094 236.03125 221.851562 237.292969 221.851562 C 240.261719 221.851562 242.0625 223.378906 243.050781 225 C 244.3125 226.980469 244.402344 229.140625 244.402344 231.210938 Z M 302.449219 248.039062 C 300.019531 249.480469 297.679688 250.921875 293.089844 250.921875 C 282.917969 250.921875 280.847656 242.460938 280.847656 237.058594 C 280.847656 230.488281 283.730469 222.929688 292.460938 222.929688 C 296.417969 222.929688 298.578125 224.371094 301.28125 226.171875 L 302.179688 225.898438 C 302.539062 221.128906 302.628906 219.871094 303.347656 215.101562 L 302.898438 214.558594 C 298.9375 213.300781 295.519531 212.21875 290.300781 212.21875 C 269.148438 212.21875 265.007812 228.238281 265.007812 237.421875 C 265.007812 247.769531 270.410156 261.808594 290.660156 261.808594 C 295.429688 261.808594 298.488281 260.910156 302.269531 259.828125 L 302.808594 259.289062 L 303.167969 248.488281 Z M 336.382812 227.609375 L 338.902344 212.941406 L 338.363281 212.308594 C 337.734375 212.308594 337.101562 212.21875 336.472656 212.21875 C 332.78125 212.21875 328.644531 214.289062 325.761719 220.949219 L 326.03125 212.671875 L 325.3125 211.949219 C 318.652344 213.390625 316.941406 213.660156 310.371094 214.648438 L 309.832031 215.191406 C 310.371094 221.941406 310.644531 225.988281 310.644531 238.5 C 310.644531 245.878906 310.550781 253.261719 310.371094 260.730469 L 310.914062 261.269531 C 317.574219 261 319.011719 260.910156 326.210938 261 L 326.664062 260.371094 C 326.300781 253.078125 325.761719 242.910156 325.761719 236.699219 C 325.761719 232.648438 325.761719 226.710938 331.882812 226.710938 C 333.414062 226.710938 334.3125 227.25 335.574219 227.96875 Z M 384.082031 247.679688 C 380.664062 249.480469 376.613281 251.550781 370.042969 251.550781 C 364.644531 251.550781 360.953125 249.839844 358.792969 246.601562 C 357.441406 244.710938 357.171875 242.910156 356.8125 241.109375 L 385.882812 240.570312 L 386.421875 239.941406 C 386.332031 235.53125 386.242188 231.03125 384.984375 226.53125 C 381.832031 215.910156 374.902344 213.75 371.84375 213.03125 C 369.59375 212.398438 367.523438 212.21875 365.453125 212.21875 C 351.324219 212.21875 341.960938 221.488281 341.960938 237.058594 C 341.960938 241.289062 342.683594 245.699219 344.121094 248.851562 C 349.34375 261 361.582031 262.078125 368.0625 262.078125 C 375.53125 262.078125 378.773438 260.730469 383.542969 258.839844 L 384.082031 258.121094 L 384.710938 247.949219 L 384.082031 247.679688 M 356.8125 231.570312 C 357.082031 228.78125 357.710938 225 361.132812 222.839844 C 362.210938 222.121094 363.472656 221.851562 364.734375 221.851562 C 367.703125 221.851562 369.503906 223.378906 370.492188 225 C 371.753906 226.980469 371.84375 229.140625 371.84375 231.210938 Z M 434.75 234.179688 C 434.839844 226.078125 434.839844 222.570312 432.5 218.789062 C 430.699219 215.910156 427.101562 212.308594 415.582031 212.308594 C 407.839844 212.308594 403.070312 213.75 397.941406 215.28125 L 397.402344 216 L 396.949219 225.808594 L 397.671875 226.171875 C 400.820312 224.910156 406.671875 222.570312 412.699219 222.570312 C 416.03125 222.570312 417.378906 223.109375 418.550781 224.28125 C 419.449219 225.179688 419.722656 226.800781 419.722656 228.148438 C 408.921875 229.589844 403.878906 230.578125 398.480469 233.910156 C 393.441406 237.058594 391.730469 242.191406 391.730469 246.238281 C 391.730469 255.871094 398.660156 262.078125 407.480469 262.078125 C 414.230469 262.078125 418.101562 258.839844 419.992188 257.308594 L 419.992188 260.640625 L 420.53125 261.269531 C 427.011719 261 428.992188 260.910156 434.839844 261 L 435.289062 260.371094 C 434.660156 251.550781 434.660156 249.300781 434.660156 240.839844 L 434.75 234.179688 M 419.902344 248.488281 C 418.011719 249.570312 415.582031 250.828125 412.609375 250.828125 C 409.371094 250.828125 406.671875 249.121094 406.671875 245.339844 C 406.671875 239.398438 413.78125 238.410156 419.902344 237.601562 Z M 470.484375 250.648438 C 468.953125 251.101562 467.871094 251.460938 466.34375 251.460938 C 461.753906 251.460938 461.394531 248.578125 461.210938 247.230469 C 460.941406 244.890625 460.941406 239.941406 461.03125 236.339844 L 461.210938 223.648438 L 469.3125 224.011719 L 469.851562 223.46875 L 470.753906 213.839844 L 470.210938 213.300781 L 461.210938 213.300781 L 461.484375 198.179688 L 460.851562 197.640625 C 454.734375 199.441406 453.113281 199.890625 446.722656 201.511719 L 446.363281 202.140625 L 446.453125 213.390625 L 441.59375 213.210938 L 441.054688 213.660156 L 440.242188 223.289062 L 440.78125 223.828125 L 446.453125 223.648438 L 446.183594 237.960938 C 446.09375 240.210938 446.003906 242.460938 446.003906 244.800781 C 446.003906 253.078125 446.183594 261.988281 460.222656 261.988281 C 463.734375 261.988281 466.523438 261.449219 469.671875 260.910156 L 470.304688 260.28125 L 471.203125 251.011719 Z M 493.433594 260.371094 C 492.980469 253.441406 492.621094 248.128906 492.621094 235.710938 C 492.621094 228.058594 492.800781 220.320312 492.890625 212.671875 L 492.261719 211.949219 L 476.78125 214.648438 L 476.242188 215.191406 C 476.960938 222.03125 477.230469 225.179688 477.230469 237.960938 C 477.230469 247.769531 476.960938 253.261719 476.691406 260.640625 L 477.230469 261.269531 C 483.710938 261 485.511719 260.910156 492.800781 261 L 493.433594 260.371094 M 491.992188 203.308594 L 492.261719 191.070312 L 491.722656 190.53125 L 477.050781 192.328125 L 476.511719 192.960938 C 476.691406 196.199219 476.78125 198.089844 476.78125 200.25 C 476.78125 201.960938 476.78125 203.761719 476.691406 205.46875 L 477.320312 206.011719 C 483.441406 204.929688 485.152344 204.75 491.542969 203.941406 Z M 549.230469 237.058594 C 549.230469 233.550781 549.230469 218.96875 536.628906 214.019531 C 532.667969 212.488281 527.988281 212.308594 525.648438 212.308594 C 509.988281 212.308594 501.167969 220.679688 501.167969 237.238281 C 501.167969 243 502.070312 248.851562 505.398438 253.710938 C 507.738281 257.21875 512.148438 262.078125 525.019531 262.078125 C 544.097656 262.078125 549.230469 250.558594 549.230469 237.058594 M 533.660156 236.96875 C 533.660156 244.351562 532.667969 252.539062 525.199219 252.539062 C 522.859375 252.539062 521.238281 251.460938 520.160156 250.46875 C 518.628906 248.941406 516.917969 245.878906 516.917969 237.148438 C 516.917969 234.539062 516.917969 228.78125 518.71875 225.628906 C 520.070312 223.199219 522.410156 221.578125 525.289062 221.578125 C 527.808594 221.578125 529.878906 222.929688 531.050781 224.371094 C 533.210938 226.980469 533.660156 232.109375 533.660156 236.96875 Z M 601.882812 260.371094 C 601.433594 252.449219 601.433594 249.929688 601.253906 241.109375 L 601.253906 234.089844 C 601.164062 225.449219 601.074219 221.308594 598.824219 217.621094 C 596.03125 212.941406 590.902344 212.21875 587.664062 212.21875 C 582.171875 212.21875 577.402344 215.101562 573.261719 217.53125 L 573.441406 212.578125 L 572.542969 211.949219 C 565.613281 213.390625 564.082031 213.660156 557.332031 214.558594 L 556.792969 215.191406 C 557.511719 223.019531 558.054688 228.691406 558.054688 243.359375 C 558.054688 249.121094 557.960938 254.878906 557.871094 260.640625 L 558.414062 261.179688 C 564.894531 260.910156 566.242188 260.910156 573.441406 260.910156 L 573.984375 260.371094 C 573.441406 246.511719 573.351562 243 573.261719 226.890625 C 575.152344 225.628906 577.3125 224.101562 580.191406 224.101562 C 585.144531 224.101562 585.59375 229.410156 585.863281 232.648438 C 586.042969 235.621094 586.132812 247.949219 586.132812 251.371094 C 586.132812 254.429688 586.042969 257.578125 586.042969 260.640625 L 586.582031 261.179688 C 592.523438 261 594.054688 260.910156 601.253906 260.910156 Z M 674.78125 197.191406 C 666.140625 197.460938 664.339844 197.460938 654.710938 197.460938 L 654.078125 198 C 649.308594 213.300781 646.429688 222.390625 633.199219 260.371094 L 633.558594 261 L 647.597656 261 L 648.230469 260.460938 L 652.640625 244.078125 L 672.078125 244.078125 L 675.949219 260.730469 L 676.578125 261.269531 C 683.148438 261 684.949219 260.910156 692.238281 261 L 692.691406 260.28125 C 681.800781 221.761719 680.539062 217.53125 675.410156 197.730469 L 674.78125 197.191406 M 655.789062 233.191406 L 660.289062 217.980469 L 663.441406 207.449219 L 666.140625 219.148438 L 669.46875 233.191406 Z M 724.460938 227.609375 L 726.980469 212.941406 L 726.441406 212.308594 C 725.8125 212.308594 725.179688 212.21875 724.550781 212.21875 C 720.859375 212.21875 716.722656 214.289062 713.839844 220.949219 L 714.109375 212.671875 L 713.390625 211.949219 C 706.730469 213.390625 705.019531 213.660156 698.449219 214.648438 L 697.910156 215.191406 C 698.449219 221.941406 698.722656 225.988281 698.722656 238.5 C 698.722656 245.878906 698.628906 253.261719 698.449219 260.730469 L 698.992188 261.269531 C 705.652344 261 707.089844 260.910156 714.289062 261 L 714.742188 260.371094 C 714.378906 253.078125 713.839844 242.910156 713.839844 236.699219 C 713.839844 232.648438 713.839844 226.710938 719.960938 226.710938 C 721.492188 226.710938 722.390625 227.25 723.652344 227.96875 Z M 772.160156 247.679688 C 768.742188 249.480469 764.691406 251.550781 758.121094 251.550781 C 752.722656 251.550781 749.03125 249.839844 746.871094 246.601562 C 745.519531 244.710938 745.25 242.910156 744.890625 241.109375 L 773.960938 240.570312 L 774.5 239.941406 C 774.410156 235.53125 774.320312 231.03125 773.0625 226.53125 C 769.910156 215.910156 762.980469 213.75 759.921875 213.03125 C 757.671875 212.398438 755.601562 212.21875 753.53125 212.21875 C 739.402344 212.21875 730.039062 221.488281 730.039062 237.058594 C 730.039062 241.289062 730.761719 245.699219 732.199219 248.851562 C 737.421875 261 749.660156 262.078125 756.140625 262.078125 C 763.609375 262.078125 766.851562 260.730469 771.621094 258.839844 L 772.160156 258.121094 L 772.789062 247.949219 L 772.160156 247.679688 M 744.890625 231.570312 C 745.160156 228.78125 745.789062 225 749.210938 222.839844 C 750.289062 222.121094 751.550781 221.851562 752.8125 221.851562 C 755.78125 221.851562 757.582031 223.378906 758.570312 225 C 759.832031 226.980469 759.921875 229.140625 759.921875 231.210938 Z M 822.832031 234.179688 C 822.921875 226.078125 822.921875 222.570312 820.582031 218.789062 C 818.78125 215.910156 815.183594 212.308594 803.664062 212.308594 C 795.921875 212.308594 791.152344 213.75 786.023438 215.28125 L 785.484375 216 L 785.03125 225.808594 L 785.753906 226.171875 C 788.902344 224.910156 794.753906 222.570312 800.78125 222.570312 C 804.113281 222.570312 805.460938 223.109375 806.632812 224.28125 C 807.53125 225.179688 807.804688 226.800781 807.804688 228.148438 C 797.003906 229.589844 791.960938 230.578125 786.5625 233.910156 C 781.523438 237.058594 779.8125 242.191406 779.8125 246.238281 C 779.8125 255.871094 786.742188 262.078125 795.5625 262.078125 C 802.3125 262.078125 806.183594 258.839844 808.074219 257.308594 L 808.074219 260.640625 L 808.613281 261.269531 C 815.09375 261 817.074219 260.910156 822.921875 261 L 823.371094 260.371094 C 822.742188 251.550781 822.742188 249.300781 822.742188 240.839844 L 822.832031 234.179688 M 807.984375 248.488281 C 806.09375 249.570312 803.664062 250.828125 800.691406 250.828125 C 797.453125 250.828125 794.753906 249.121094 794.753906 245.339844 C 794.753906 239.398438 801.863281 238.410156 807.984375 237.601562 Z M 827.960938 261 "/>
</svg>
