<?xml version="1.0" encoding="UTF-8"?>
<svg xmlns="http://www.w3.org/2000/svg" xmlns:xlink="http://www.w3.org/1999/xlink" width="975" height="1300" viewBox="0 0 975 1300">
<path fill-rule="nonzero" fill="rgb(98.823529%, 78.823529%, 9.019608%)" fill-opacity="1" d="M 50 50 L 925 50 L 925 290 L 50 290 Z M 50 50 "/>
<path fill-rule="nonzero" fill="rgb(34.901961%, 14.901961%, 14.901961%)" fill-opacity="1" d="M 137.390625 141 C 139.730469 141.089844 142.160156 141.089844 144.5 141.089844 C 154.578125 141.089844 170.867188 140.730469 177.4375 124.710938 C 179.867188 118.769531 180.410156 111.570312 180.410156 107.519531 C 180.410156 99.058594 178.519531 92.578125 176.269531 88.53125 C 170.148438 77.371094 158.539062 77.011719 148.277344 77.011719 C 144.140625 77.011719 140 77.191406 135.859375 77.371094 L 126.320312 77.460938 L 125.777344 78 C 126.140625 86.640625 126.5 94.199219 126.5 119.128906 C 126.5 127.949219 126.410156 133.261719 126.230469 140.640625 L 126.769531 141 L 137.390625 141 M 142.339844 129.390625 C 142.160156 120.570312 142.070312 112.199219 142.070312 103.558594 C 142.070312 98.699219 142.070312 93.839844 142.160156 88.980469 C 143.957031 88.890625 145.847656 88.800781 147.648438 88.800781 C 153.140625 88.800781 163.847656 88.800781 163.847656 107.96875 C 163.847656 119.21875 159.617188 124.261719 157.457031 126.058594 C 153.410156 129.390625 147.199219 129.390625 142.339844 129.390625 Z M 235.398438 117.058594 C 235.398438 113.550781 235.398438 98.96875 222.796875 94.019531 C 218.835938 92.488281 214.15625 92.308594 211.816406 92.308594 C 196.15625 92.308594 187.335938 100.679688 187.335938 117.238281 C 187.335938 123 188.238281 128.851562 191.566406 133.710938 C 193.90625 137.21875 198.316406 142.078125 211.1875 142.078125 C 230.265625 142.078125 235.398438 130.558594 235.398438 117.058594 M 219.828125 116.96875 C 219.828125 124.351562 218.835938 132.539062 211.367188 132.539062 C 209.027344 132.539062 207.40625 131.460938 206.328125 130.46875 C 204.796875 128.941406 203.085938 125.878906 203.085938 117.148438 C 203.085938 114.539062 203.085938 108.78125 204.886719 105.628906 C 206.238281 103.199219 208.578125 101.578125 211.457031 101.578125 C 213.976562 101.578125 216.046875 102.929688 217.21875 104.371094 C 219.378906 106.980469 219.828125 112.109375 219.828125 116.96875 Z M 288.046875 140.371094 C 287.597656 132.449219 287.597656 129.929688 287.417969 121.109375 L 287.417969 114.089844 C 287.328125 105.449219 287.238281 101.308594 284.988281 97.621094 C 282.195312 92.941406 277.066406 92.21875 273.828125 92.21875 C 268.335938 92.21875 263.566406 95.101562 259.425781 97.53125 L 259.605469 92.578125 L 258.707031 91.949219 C 251.777344 93.390625 250.246094 93.660156 243.496094 94.558594 L 242.957031 95.191406 C 243.675781 103.019531 244.21875 108.691406 244.21875 123.359375 C 244.21875 129.121094 244.125 134.878906 244.035156 140.640625 L 244.578125 141.179688 C 251.058594 140.910156 252.40625 140.910156 259.605469 140.910156 L 260.148438 140.371094 C 259.605469 126.511719 259.515625 123 259.425781 106.890625 C 261.316406 105.628906 263.476562 104.101562 266.355469 104.101562 C 271.308594 104.101562 271.757812 109.410156 272.027344 112.648438 C 272.207031 115.621094 272.296875 127.949219 272.296875 131.371094 C 272.296875 134.429688 272.207031 137.578125 272.207031 140.640625 L 272.746094 141.179688 C 278.6875 141 280.21875 140.910156 287.417969 140.910156 Z M 342.410156 140.371094 C 341.960938 132.449219 341.960938 129.929688 341.78125 121.109375 L 341.78125 114.089844 C 341.691406 105.449219 341.601562 101.308594 339.351562 97.621094 C 336.558594 92.941406 331.429688 92.21875 328.191406 92.21875 C 322.699219 92.21875 317.929688 95.101562 313.789062 97.53125 L 313.96875 92.578125 L 313.070312 91.949219 C 306.140625 93.390625 304.609375 93.660156 297.859375 94.558594 L 297.320312 95.191406 C 298.039062 103.019531 298.582031 108.691406 298.582031 123.359375 C 298.582031 129.121094 298.488281 134.878906 298.398438 140.640625 L 298.941406 141.179688 C 305.421875 140.910156 306.769531 140.910156 313.96875 140.910156 L 314.511719 140.371094 C 313.96875 126.511719 313.878906 123 313.789062 106.890625 C 315.679688 105.628906 317.839844 104.101562 320.71875 104.101562 C 325.671875 104.101562 326.121094 109.410156 326.390625 112.648438 C 326.570312 115.621094 326.660156 127.949219 326.660156 131.371094 C 326.660156 134.429688 326.570312 137.578125 326.570312 140.640625 L 327.109375 141.179688 C 333.050781 141 334.582031 140.910156 341.78125 140.910156 Z M 392.628906 127.679688 C 389.210938 129.480469 385.160156 131.550781 378.589844 131.550781 C 373.191406 131.550781 369.5 129.839844 367.339844 126.601562 C 365.988281 124.710938 365.71875 122.910156 365.359375 121.109375 L 394.429688 120.570312 L 394.96875 119.941406 C 394.878906 115.53125 394.789062 111.03125 393.53125 106.53125 C 390.378906 95.910156 383.449219 93.75 380.390625 93.03125 C 378.140625 92.398438 376.070312 92.21875 374 92.21875 C 359.871094 92.21875 350.507812 101.488281 350.507812 117.058594 C 350.507812 121.289062 351.230469 125.699219 352.667969 128.851562 C 357.890625 141 370.128906 142.078125 376.609375 142.078125 C 384.078125 142.078125 387.320312 140.730469 392.089844 138.839844 L 392.628906 138.121094 L 393.257812 127.949219 L 392.628906 127.679688 M 365.359375 111.570312 C 365.628906 108.78125 366.257812 105 369.679688 102.839844 C 370.757812 102.121094 372.019531 101.851562 373.28125 101.851562 C 376.25 101.851562 378.050781 103.378906 379.039062 105 C 380.300781 106.980469 380.390625 109.140625 380.390625 111.210938 Z M 429.257812 107.609375 L 431.777344 92.941406 L 431.238281 92.308594 C 430.609375 92.308594 429.976562 92.21875 429.347656 92.21875 C 425.65625 92.21875 421.519531 94.289062 418.636719 100.949219 L 418.90625 92.671875 L 418.1875 91.949219 C 411.527344 93.390625 409.816406 93.660156 403.246094 94.648438 L 402.707031 95.191406 C 403.246094 101.941406 403.519531 105.988281 403.519531 118.5 C 403.519531 125.878906 403.425781 133.261719 403.246094 140.730469 L 403.789062 141.269531 C 410.449219 141 411.886719 140.910156 419.085938 141 L 419.539062 140.371094 C 419.175781 133.078125 418.636719 122.910156 418.636719 116.699219 C 418.636719 112.648438 418.636719 106.710938 424.757812 106.710938 C 426.289062 106.710938 427.1875 107.25 428.449219 107.96875 Z M 532.308594 77.191406 C 522.949219 77.460938 521.417969 77.460938 511.429688 77.460938 L 510.890625 78 L 506.75 92.578125 L 503.148438 105.628906 L 498.917969 121.289062 L 494.957031 105.179688 L 492.4375 95.011719 L 487.9375 77.730469 L 487.488281 77.191406 C 477.859375 77.460938 476.238281 77.460938 466.160156 77.460938 L 465.617188 78 C 464.71875 104.910156 464.359375 111.839844 462.378906 140.730469 L 462.828125 141.269531 C 468.589844 141 470.300781 140.910156 475.519531 141 L 476.058594 140.460938 L 476.328125 123.269531 L 476.867188 105.808594 L 477.230469 88.800781 L 481.1875 104.730469 L 484.609375 117.511719 L 490.640625 140.730469 L 491.179688 141.269531 C 496.757812 141 498.289062 140.910156 504.589844 141 L 505.128906 140.460938 L 510.347656 121.289062 L 513.949219 108.148438 L 518.988281 89.25 L 518.988281 105.359375 L 519.167969 119.128906 L 519.167969 140.730469 L 519.617188 141.269531 C 525.828125 141 528.257812 140.910156 535.1875 141 L 535.640625 140.460938 C 535.097656 130.199219 534.46875 119.851562 534.109375 109.5 C 533.839844 103.828125 533.660156 98.160156 533.390625 92.488281 C 532.9375 84.121094 532.847656 83.039062 532.847656 77.730469 Z M 585.769531 127.679688 C 582.351562 129.480469 578.300781 131.550781 571.730469 131.550781 C 566.332031 131.550781 562.640625 129.839844 560.480469 126.601562 C 559.128906 124.710938 558.859375 122.910156 558.5 121.109375 L 587.570312 120.570312 L 588.109375 119.941406 C 588.019531 115.53125 587.929688 111.03125 586.671875 106.53125 C 583.519531 95.910156 576.589844 93.75 573.53125 93.03125 C 571.28125 92.398438 569.210938 92.21875 567.140625 92.21875 C 553.011719 92.21875 543.648438 101.488281 543.648438 117.058594 C 543.648438 121.289062 544.371094 125.699219 545.808594 128.851562 C 551.03125 141 563.269531 142.078125 569.75 142.078125 C 577.21875 142.078125 580.460938 140.730469 585.230469 138.839844 L 585.769531 138.121094 L 586.398438 127.949219 L 585.769531 127.679688 M 558.5 111.570312 C 558.769531 108.78125 559.398438 105 562.820312 102.839844 C 563.898438 102.121094 565.160156 101.851562 566.421875 101.851562 C 569.390625 101.851562 571.191406 103.378906 572.179688 105 C 573.441406 106.980469 573.53125 109.140625 573.53125 111.210938 Z M 666.679688 140.371094 C 666.226562 132 666.136719 129.660156 666.136719 119.488281 L 666.136719 112.738281 C 666.226562 106.710938 666.316406 101.128906 663.707031 97.351562 C 660.199219 92.21875 653.988281 92.21875 652.546875 92.21875 C 645.167969 92.21875 640.21875 95.550781 636.617188 98.070312 C 635.359375 96 633.109375 92.21875 625.910156 92.21875 C 619.96875 92.21875 616.097656 94.921875 611.957031 97.800781 L 611.957031 92.761719 L 611.148438 91.949219 C 604.128906 93.300781 602.148438 93.660156 595.847656 94.558594 L 595.308594 95.191406 C 596.027344 102.390625 596.566406 107.339844 596.566406 125.160156 C 596.566406 130.289062 596.476562 135.511719 596.476562 140.640625 L 596.929688 141.179688 C 602.6875 141 604.667969 140.910156 612.136719 140.910156 L 612.679688 140.371094 C 612.046875 126.511719 611.957031 122.371094 611.867188 106.710938 C 613.757812 105.359375 615.828125 104.191406 618.078125 104.191406 C 623.660156 104.191406 623.839844 110.578125 623.839844 118.320312 C 623.839844 131.371094 623.75 133.351562 623.566406 140.640625 L 624.109375 141.269531 C 630.949219 140.910156 632.839844 140.910156 639.046875 140.910156 L 639.589844 140.371094 C 639.046875 131.820312 638.957031 129.300781 638.867188 118.410156 L 638.867188 115.078125 L 638.777344 105.988281 C 640.308594 105 642.289062 103.738281 644.988281 103.738281 C 650.117188 103.738281 650.929688 108.601562 650.929688 116.339844 C 650.929688 118.050781 650.839844 119.761719 650.839844 121.46875 C 650.75 124.53125 650.660156 137.941406 650.566406 140.640625 L 651.109375 141.179688 C 657.859375 140.910156 659.839844 140.910156 666.136719 140.910156 Z M 722.839844 117.058594 C 722.839844 113.550781 722.839844 98.96875 710.238281 94.019531 C 706.277344 92.488281 701.597656 92.308594 699.257812 92.308594 C 683.597656 92.308594 674.777344 100.679688 674.777344 117.238281 C 674.777344 123 675.679688 128.851562 679.007812 133.710938 C 681.347656 137.21875 685.757812 142.078125 698.628906 142.078125 C 717.707031 142.078125 722.839844 130.558594 722.839844 117.058594 M 707.269531 116.96875 C 707.269531 124.351562 706.277344 132.539062 698.808594 132.539062 C 696.46875 132.539062 694.847656 131.460938 693.769531 130.46875 C 692.238281 128.941406 690.527344 125.878906 690.527344 117.148438 C 690.527344 114.539062 690.527344 108.78125 692.328125 105.628906 C 693.679688 103.199219 696.019531 101.578125 698.898438 101.578125 C 701.417969 101.578125 703.488281 102.929688 704.660156 104.371094 C 706.820312 106.980469 707.269531 112.109375 707.269531 116.96875 Z M 757.398438 107.609375 L 759.917969 92.941406 L 759.378906 92.308594 C 758.75 92.308594 758.117188 92.21875 757.488281 92.21875 C 753.796875 92.21875 749.660156 94.289062 746.777344 100.949219 L 747.046875 92.671875 L 746.328125 91.949219 C 739.667969 93.390625 737.957031 93.660156 731.386719 94.648438 L 730.847656 95.191406 C 731.386719 101.941406 731.660156 105.988281 731.660156 118.5 C 731.660156 125.878906 731.566406 133.261719 731.386719 140.730469 L 731.929688 141.269531 C 738.589844 141 740.027344 140.910156 747.226562 141 L 747.679688 140.371094 C 747.316406 133.078125 746.777344 122.910156 746.777344 116.699219 C 746.777344 112.648438 746.777344 106.710938 752.898438 106.710938 C 754.429688 106.710938 755.328125 107.25 756.589844 107.96875 Z M 781.429688 140.371094 C 780.976562 133.441406 780.617188 128.128906 780.617188 115.710938 C 780.617188 108.058594 780.796875 100.320312 780.886719 92.671875 L 780.257812 91.949219 L 764.777344 94.648438 L 764.238281 95.191406 C 764.957031 102.03125 765.226562 105.179688 765.226562 117.960938 C 765.226562 127.769531 764.957031 133.261719 764.6875 140.640625 L 765.226562 141.269531 C 771.707031 141 773.507812 140.910156 780.796875 141 L 781.429688 140.371094 M 779.988281 83.308594 L 780.257812 71.070312 L 779.71875 70.53125 L 765.046875 72.328125 L 764.507812 72.960938 C 764.6875 76.199219 764.777344 78.089844 764.777344 80.25 C 764.777344 81.960938 764.777344 83.761719 764.6875 85.46875 L 765.316406 86.011719 C 771.4375 84.929688 773.148438 84.75 779.539062 83.941406 Z M 831.46875 114.179688 C 831.558594 106.078125 831.558594 102.570312 829.21875 98.789062 C 827.417969 95.910156 823.820312 92.308594 812.300781 92.308594 C 804.558594 92.308594 799.789062 93.75 794.660156 95.28125 L 794.121094 96 L 793.667969 105.808594 L 794.390625 106.171875 C 797.539062 104.910156 803.390625 102.570312 809.417969 102.570312 C 812.75 102.570312 814.097656 103.109375 815.269531 104.28125 C 816.167969 105.179688 816.441406 106.800781 816.441406 108.148438 C 805.640625 109.589844 800.597656 110.578125 795.199219 113.910156 C 790.160156 117.058594 788.449219 122.191406 788.449219 126.238281 C 788.449219 135.871094 795.378906 142.078125 804.199219 142.078125 C 810.949219 142.078125 814.820312 138.839844 816.710938 137.308594 L 816.710938 140.640625 L 817.25 141.269531 C 823.730469 141 825.710938 140.910156 831.558594 141 L 832.007812 140.371094 C 831.378906 131.550781 831.378906 129.300781 831.378906 120.839844 L 831.46875 114.179688 M 816.621094 128.488281 C 814.730469 129.570312 812.300781 130.828125 809.328125 130.828125 C 806.089844 130.828125 803.390625 129.121094 803.390625 125.339844 C 803.390625 119.398438 810.5 118.410156 816.621094 117.601562 Z M 857.835938 140.371094 C 857.386719 130.019531 856.9375 120.570312 856.9375 92.128906 C 856.9375 83.578125 857.027344 79.53125 857.386719 69.808594 L 856.757812 69.179688 L 841.367188 71.609375 L 841.007812 72.148438 C 841.90625 83.128906 841.996094 86.101562 842.175781 100.679688 C 842.269531 105.988281 842.269531 111.300781 842.269531 116.609375 C 842.269531 126.328125 842.085938 131.730469 841.726562 140.640625 L 842.269531 141.269531 C 848.296875 141 850.726562 140.910156 857.296875 141 Z M 862.878906 141 "/>
<path fill-rule="nonzero" fill="rgb(34.901961%, 14.901961%, 14.901961%)" fill-opacity="1" d="M 303.890625 222.300781 C 296.332031 219.148438 292.371094 217.53125 292.371094 213.480469 C 292.371094 210.691406 294.980469 207.179688 300.921875 207.179688 C 307.761719 207.179688 311.808594 209.96875 315.140625 212.21875 L 315.949219 211.859375 L 316.671875 200.070312 L 316.21875 199.441406 C 312.351562 197.820312 308.300781 196.109375 299.570312 196.109375 C 282.652344 196.109375 276.800781 205.648438 276.800781 215.28125 C 276.800781 226.171875 285.261719 230.128906 290.300781 232.558594 L 293.269531 233.910156 C 299.480469 236.519531 304.25 238.769531 304.25 243.539062 C 304.25 246.960938 301.28125 251.011719 293.449219 251.011719 C 285.261719 251.011719 280.671875 247.410156 278.058594 245.339844 L 277.160156 245.609375 L 276.53125 258.300781 L 277.070312 259.019531 C 278.058594 259.378906 279.050781 259.828125 280.039062 260.101562 C 282.109375 260.820312 287.421875 262.351562 294.171875 262.351562 C 296.871094 262.351562 303.710938 262.078125 309.109375 259.558594 C 316.671875 255.871094 319.910156 249.03125 319.910156 241.378906 C 319.910156 236.25 317.929688 230.761719 313.160156 227.070312 C 310.730469 225.269531 308.390625 224.191406 306.230469 223.199219 Z M 353.660156 250.648438 C 352.128906 251.101562 351.046875 251.460938 349.519531 251.460938 C 344.929688 251.460938 344.570312 248.578125 344.386719 247.230469 C 344.117188 244.890625 344.117188 239.941406 344.207031 236.339844 L 344.386719 223.648438 L 352.488281 224.011719 L 353.027344 223.46875 L 353.929688 213.839844 L 353.386719 213.300781 L 344.386719 213.300781 L 344.660156 198.179688 L 344.027344 197.640625 C 337.910156 199.441406 336.289062 199.890625 329.898438 201.511719 L 329.539062 202.140625 L 329.628906 213.390625 L 324.769531 213.210938 L 324.230469 213.660156 L 323.417969 223.289062 L 323.957031 223.828125 L 329.628906 223.648438 L 329.359375 237.960938 C 329.269531 240.210938 329.179688 242.460938 329.179688 244.800781 C 329.179688 253.078125 329.359375 261.988281 343.398438 261.988281 C 346.910156 261.988281 349.699219 261.449219 352.847656 260.910156 L 353.480469 260.28125 L 354.378906 251.011719 Z M 400.371094 234.179688 C 400.460938 226.078125 400.460938 222.570312 398.121094 218.789062 C 396.320312 215.910156 392.722656 212.308594 381.203125 212.308594 C 373.460938 212.308594 368.691406 213.75 363.5625 215.28125 L 363.023438 216 L 362.570312 225.808594 L 363.292969 226.171875 C 366.441406 224.910156 372.292969 222.570312 378.320312 222.570312 C 381.652344 222.570312 383 223.109375 384.171875 224.28125 C 385.070312 225.179688 385.34375 226.800781 385.34375 228.148438 C 374.542969 229.589844 369.5 230.578125 364.101562 233.910156 C 359.0625 237.058594 357.351562 242.191406 357.351562 246.238281 C 357.351562 255.871094 364.28125 262.078125 373.101562 262.078125 C 379.851562 262.078125 383.722656 258.839844 385.613281 257.308594 L 385.613281 260.640625 L 386.152344 261.269531 C 392.632812 261 394.613281 260.910156 400.460938 261 L 400.910156 260.371094 C 400.28125 251.550781 400.28125 249.300781 400.28125 240.839844 L 400.371094 234.179688 M 385.523438 248.488281 C 383.632812 249.570312 381.203125 250.828125 378.230469 250.828125 C 374.992188 250.828125 372.292969 249.121094 372.292969 245.339844 C 372.292969 239.398438 379.402344 238.410156 385.523438 237.601562 Z M 436.101562 250.648438 C 434.570312 251.101562 433.488281 251.460938 431.960938 251.460938 C 427.371094 251.460938 427.011719 248.578125 426.828125 247.230469 C 426.558594 244.890625 426.558594 239.941406 426.648438 236.339844 L 426.828125 223.648438 L 434.929688 224.011719 L 435.46875 223.46875 L 436.371094 213.839844 L 435.828125 213.300781 L 426.828125 213.300781 L 427.101562 198.179688 L 426.46875 197.640625 C 420.351562 199.441406 418.730469 199.890625 412.339844 201.511719 L 411.980469 202.140625 L 412.070312 213.390625 L 407.210938 213.210938 L 406.671875 213.660156 L 405.859375 223.289062 L 406.398438 223.828125 L 412.070312 223.648438 L 411.800781 237.960938 C 411.710938 240.210938 411.621094 242.460938 411.621094 244.800781 C 411.621094 253.078125 411.800781 261.988281 425.839844 261.988281 C 429.351562 261.988281 432.140625 261.449219 435.289062 260.910156 L 435.921875 260.28125 L 436.820312 251.011719 Z M 482.71875 247.679688 C 479.300781 249.480469 475.25 251.550781 468.679688 251.550781 C 463.28125 251.550781 459.589844 249.839844 457.429688 246.601562 C 456.078125 244.710938 455.808594 242.910156 455.449219 241.109375 L 484.519531 240.570312 L 485.058594 239.941406 C 484.96875 235.53125 484.878906 231.03125 483.621094 226.53125 C 480.46875 215.910156 473.539062 213.75 470.480469 213.03125 C 468.230469 212.398438 466.160156 212.21875 464.089844 212.21875 C 449.960938 212.21875 440.597656 221.488281 440.597656 237.058594 C 440.597656 241.289062 441.320312 245.699219 442.757812 248.851562 C 447.980469 261 460.21875 262.078125 466.699219 262.078125 C 474.167969 262.078125 477.410156 260.730469 482.179688 258.839844 L 482.71875 258.121094 L 483.347656 247.949219 L 482.71875 247.679688 M 455.449219 231.570312 C 455.71875 228.78125 456.347656 225 459.769531 222.839844 C 460.847656 222.121094 462.109375 221.851562 463.371094 221.851562 C 466.339844 221.851562 468.140625 223.378906 469.128906 225 C 470.390625 226.980469 470.480469 229.140625 470.480469 231.210938 Z M 531.679688 197.28125 L 520.25 197.460938 L 519.707031 198 C 520.070312 209.699219 520.339844 217.53125 520.339844 227.878906 C 520.339844 238.859375 520.070312 249.75 519.796875 260.730469 L 520.339844 261.269531 C 527 261 528.4375 260.910156 535.640625 261 L 536.089844 260.460938 C 535.730469 250.648438 535.730469 248.398438 535.730469 239.21875 C 545.808594 239.308594 556.609375 239.308594 563.089844 231.390625 C 565.609375 228.328125 567.769531 223.199219 567.769531 216.898438 C 567.769531 213.03125 566.867188 204.480469 559.398438 200.25 C 554 197.101562 546.347656 197.101562 539.597656 197.101562 L 531.679688 197.28125 M 535.730469 208.171875 C 537.707031 208.078125 539.597656 208.078125 541.578125 208.078125 C 549.5 208.261719 551.660156 212.308594 551.660156 217.53125 C 551.660156 218.789062 551.660156 224.011719 546.890625 226.621094 C 544.457031 227.96875 541.128906 228.148438 535.730469 228.148438 Z M 614.03125 234.179688 C 614.121094 226.078125 614.121094 222.570312 611.78125 218.789062 C 609.980469 215.910156 606.382812 212.308594 594.863281 212.308594 C 587.121094 212.308594 582.351562 213.75 577.222656 215.28125 L 576.683594 216 L 576.230469 225.808594 L 576.953125 226.171875 C 580.101562 224.910156 585.953125 222.570312 591.980469 222.570312 C 595.3125 222.570312 596.660156 223.109375 597.832031 224.28125 C 598.730469 225.179688 599.003906 226.800781 599.003906 228.148438 C 588.203125 229.589844 583.160156 230.578125 577.761719 233.910156 C 572.722656 237.058594 571.011719 242.191406 571.011719 246.238281 C 571.011719 255.871094 577.941406 262.078125 586.761719 262.078125 C 593.511719 262.078125 597.382812 258.839844 599.273438 257.308594 L 599.273438 260.640625 L 599.8125 261.269531 C 606.292969 261 608.273438 260.910156 614.121094 261 L 614.570312 260.371094 C 613.941406 251.550781 613.941406 249.300781 613.941406 240.839844 L 614.03125 234.179688 M 599.183594 248.488281 C 597.292969 249.570312 594.863281 250.828125 591.890625 250.828125 C 588.652344 250.828125 585.953125 249.121094 585.953125 245.339844 C 585.953125 239.398438 593.0625 238.410156 599.183594 237.601562 Z M 650.570312 227.609375 L 653.089844 212.941406 L 652.550781 212.308594 C 651.921875 212.308594 651.289062 212.21875 650.660156 212.21875 C 646.96875 212.21875 642.832031 214.289062 639.949219 220.949219 L 640.21875 212.671875 L 639.5 211.949219 C 632.839844 213.390625 631.128906 213.660156 624.558594 214.648438 L 624.019531 215.191406 C 624.558594 221.941406 624.832031 225.988281 624.832031 238.5 C 624.832031 245.878906 624.738281 253.261719 624.558594 260.730469 L 625.101562 261.269531 C 631.761719 261 633.199219 260.910156 640.398438 261 L 640.851562 260.371094 C 640.488281 253.078125 639.949219 242.910156 639.949219 236.699219 C 639.949219 232.648438 639.949219 226.710938 646.070312 226.710938 C 647.601562 226.710938 648.5 227.25 649.761719 227.96875 Z M 704.570312 259.828125 C 696.109375 245.519531 695.210938 243.898438 688.371094 231.570312 C 694.582031 223.109375 695.210938 222.210938 701.601562 214.019531 L 701.148438 213.121094 L 686.480469 213.300781 L 685.582031 213.929688 C 678.558594 226.078125 677.660156 227.519531 673.519531 233.730469 L 673.519531 223.738281 C 673.609375 206.910156 673.699219 203.308594 674.148438 189.71875 L 673.429688 189.179688 L 657.769531 191.519531 L 657.230469 192.148438 C 657.859375 200.878906 658.128906 205.109375 658.308594 216.898438 C 658.488281 231.480469 658.488281 246.058594 658.398438 260.640625 L 659.03125 261.269531 C 665.058594 261 666.769531 261 673.609375 261 L 674.148438 260.371094 L 673.609375 245.160156 L 673.519531 234.808594 C 681.351562 249.210938 682.339844 251.191406 686.929688 260.730469 L 687.738281 261.269531 L 703.941406 260.640625 Z M 703.492188 261 "/>
</svg>
