<?xml version="1.0" encoding="UTF-8"?>
<svg xmlns="http://www.w3.org/2000/svg" xmlns:xlink="http://www.w3.org/1999/xlink" width="975" height="1300" viewBox="0 0 975 1300">
<path fill-rule="nonzero" fill="rgb(98.823529%, 78.823529%, 9.019608%)" fill-opacity="1" d="M 50 50 L 925 50 L 925 290 L 50 290 Z M 50 50 "/>
<path fill-rule="nonzero" fill="rgb(34.901961%, 14.901961%, 14.901961%)" fill-opacity="1" d="M 115.566406 141 C 123.9375 141.179688 134.285156 141.359375 141.035156 136.679688 C 146.976562 132.449219 148.597656 126.511719 148.597656 121.46875 C 148.597656 115.710938 146.164062 110.398438 141.035156 107.878906 C 139.324219 106.980469 137.347656 106.621094 135.457031 106.261719 C 138.515625 105 142.117188 103.378906 144.457031 98.609375 C 145.445312 96.539062 145.894531 94.378906 145.894531 92.308594 C 145.894531 89.429688 145.175781 85.46875 142.296875 82.230469 C 138.515625 78.179688 132.664062 77.101562 123.847656 77.101562 C 120.785156 77.101562 115.296875 77.191406 112.234375 77.28125 L 99.636719 77.460938 L 99.097656 78 C 99.457031 86.640625 99.546875 89.96875 99.546875 102.390625 C 99.546875 115.171875 99.457031 127.859375 99.277344 140.640625 L 99.90625 141 L 115.566406 141 M 114.9375 113.640625 C 121.777344 113.460938 125.734375 113.460938 128.347656 114.988281 C 130.957031 116.609375 131.945312 119.488281 131.945312 122.371094 C 131.945312 126.421875 129.695312 128.941406 126.367188 130.109375 C 123.664062 131.011719 118.804688 131.011719 114.9375 130.921875 L 114.9375 113.640625 M 114.9375 87.179688 C 116.824219 87.179688 119.347656 87.089844 120.875 87.089844 C 125.734375 87.089844 130.144531 88.800781 130.144531 94.648438 C 130.144531 99.421875 126.636719 101.398438 125.554688 101.941406 C 123.304688 102.929688 118.535156 102.929688 114.9375 102.929688 Z M 200.167969 92.851562 L 185.496094 93.570312 L 184.867188 94.109375 C 185.496094 104.28125 185.496094 118.679688 185.496094 120.121094 C 185.496094 122.730469 185.496094 124.171875 185.40625 127.769531 C 182.976562 129.390625 181.085938 130.738281 178.65625 130.738281 C 172.175781 130.738281 172.175781 123.898438 172.175781 118.589844 C 172.175781 116.339844 172.175781 114 172.265625 111.75 L 172.445312 93.570312 L 171.816406 92.851562 L 156.964844 93.570312 L 156.335938 94.109375 C 156.875 101.671875 156.964844 104.191406 156.964844 113.28125 L 156.964844 119.578125 C 156.875 129.390625 157.328125 133.53125 160.566406 137.308594 C 163.535156 140.640625 167.855469 142.078125 172.355469 142.078125 C 178.746094 142.078125 182.4375 139.199219 185.675781 136.679688 L 185.585938 140.730469 L 186.214844 141.269531 C 192.785156 141 194.765625 141 200.617188 141 L 201.15625 140.460938 C 200.707031 134.070312 200.527344 130.648438 200.527344 118.949219 C 200.527344 110.488281 200.617188 102.03125 200.796875 93.570312 Z M 237.335938 107.609375 L 239.855469 92.941406 L 239.316406 92.308594 C 238.6875 92.308594 238.054688 92.21875 237.425781 92.21875 C 233.734375 92.21875 229.597656 94.289062 226.714844 100.949219 L 226.984375 92.671875 L 226.265625 91.949219 C 219.605469 93.390625 217.894531 93.660156 211.324219 94.648438 L 210.785156 95.191406 C 211.324219 101.941406 211.597656 105.988281 211.597656 118.5 C 211.597656 125.878906 211.503906 133.261719 211.324219 140.730469 L 211.867188 141.269531 C 218.527344 141 219.964844 140.910156 227.164062 141 L 227.617188 140.371094 C 227.253906 133.078125 226.714844 122.910156 226.714844 116.699219 C 226.714844 112.648438 226.714844 106.710938 232.835938 106.710938 C 234.367188 106.710938 235.265625 107.25 236.527344 107.96875 Z M 270.277344 130.648438 C 268.746094 131.101562 267.664062 131.460938 266.136719 131.460938 C 261.546875 131.460938 261.1875 128.578125 261.003906 127.230469 C 260.734375 124.890625 260.734375 119.941406 260.824219 116.339844 L 261.003906 103.648438 L 269.105469 104.011719 L 269.644531 103.46875 L 270.546875 93.839844 L 270.003906 93.300781 L 261.003906 93.300781 L 261.277344 78.179688 L 260.644531 77.640625 C 254.527344 79.441406 252.90625 79.890625 246.515625 81.511719 L 246.15625 82.140625 L 246.246094 93.390625 L 241.386719 93.210938 L 240.847656 93.660156 L 240.035156 103.289062 L 240.574219 103.828125 L 246.246094 103.648438 L 245.976562 117.960938 C 245.886719 120.210938 245.796875 122.460938 245.796875 124.800781 C 245.796875 133.078125 245.976562 141.988281 260.015625 141.988281 C 263.527344 141.988281 266.316406 141.449219 269.464844 140.910156 L 270.097656 140.28125 L 270.996094 131.011719 Z M 322.746094 117.058594 C 322.746094 113.550781 322.746094 98.96875 310.144531 94.019531 C 306.183594 92.488281 301.503906 92.308594 299.164062 92.308594 C 283.503906 92.308594 274.683594 100.679688 274.683594 117.238281 C 274.683594 123 275.585938 128.851562 278.914062 133.710938 C 281.253906 137.21875 285.664062 142.078125 298.535156 142.078125 C 317.613281 142.078125 322.746094 130.558594 322.746094 117.058594 M 307.175781 116.96875 C 307.175781 124.351562 306.183594 132.539062 298.714844 132.539062 C 296.375 132.539062 294.753906 131.460938 293.675781 130.46875 C 292.144531 128.941406 290.433594 125.878906 290.433594 117.148438 C 290.433594 114.539062 290.433594 108.78125 292.234375 105.628906 C 293.585938 103.199219 295.925781 101.578125 298.804688 101.578125 C 301.324219 101.578125 303.394531 102.929688 304.566406 104.371094 C 306.726562 106.980469 307.175781 112.109375 307.175781 116.96875 Z M 375.394531 140.371094 C 374.945312 132.449219 374.945312 129.929688 374.765625 121.109375 L 374.765625 114.089844 C 374.675781 105.449219 374.585938 101.308594 372.335938 97.621094 C 369.542969 92.941406 364.414062 92.21875 361.175781 92.21875 C 355.683594 92.21875 350.914062 95.101562 346.773438 97.53125 L 346.953125 92.578125 L 346.054688 91.949219 C 339.125 93.390625 337.59375 93.660156 330.84375 94.558594 L 330.304688 95.191406 C 331.023438 103.019531 331.566406 108.691406 331.566406 123.359375 C 331.566406 129.121094 331.472656 134.878906 331.382812 140.640625 L 331.925781 141.179688 C 338.40625 140.910156 339.753906 140.910156 346.953125 140.910156 L 347.496094 140.371094 C 346.953125 126.511719 346.863281 123 346.773438 106.890625 C 348.664062 105.628906 350.824219 104.101562 353.703125 104.101562 C 358.65625 104.101562 359.105469 109.410156 359.375 112.648438 C 359.554688 115.621094 359.644531 127.949219 359.644531 131.371094 C 359.644531 134.429688 359.554688 137.578125 359.554688 140.640625 L 360.09375 141.179688 C 366.035156 141 367.566406 140.910156 374.765625 140.910156 Z M 458.644531 124.890625 C 456.574219 126.511719 451.984375 129.929688 444.515625 129.929688 C 434.253906 129.929688 427.054688 122.28125 427.054688 109.5 C 427.054688 101.761719 429.753906 88.171875 444.425781 88.171875 C 451.175781 88.171875 454.863281 90.78125 457.113281 92.488281 L 457.925781 92.308594 L 458.734375 79.890625 L 458.375 79.441406 C 455.136719 78.179688 449.644531 76.109375 441.726562 76.109375 C 418.414062 76.109375 410.316406 94.109375 410.316406 109.859375 C 410.316406 127.140625 420.84375 142.351562 442.804688 142.351562 C 450.363281 142.351562 455.316406 140.371094 458.195312 139.199219 L 458.644531 138.660156 L 459.273438 125.25 Z M 492.304688 107.609375 L 494.824219 92.941406 L 494.285156 92.308594 C 493.65625 92.308594 493.023438 92.21875 492.394531 92.21875 C 488.703125 92.21875 484.566406 94.289062 481.683594 100.949219 L 481.953125 92.671875 L 481.234375 91.949219 C 474.574219 93.390625 472.863281 93.660156 466.292969 94.648438 L 465.753906 95.191406 C 466.292969 101.941406 466.566406 105.988281 466.566406 118.5 C 466.566406 125.878906 466.472656 133.261719 466.292969 140.730469 L 466.835938 141.269531 C 473.496094 141 474.933594 140.910156 482.132812 141 L 482.585938 140.371094 C 482.222656 133.078125 481.683594 122.910156 481.683594 116.699219 C 481.683594 112.648438 481.683594 106.710938 487.804688 106.710938 C 489.335938 106.710938 490.234375 107.25 491.496094 107.96875 Z M 540.003906 127.679688 C 536.585938 129.480469 532.535156 131.550781 525.964844 131.550781 C 520.566406 131.550781 516.875 129.839844 514.714844 126.601562 C 513.363281 124.710938 513.09375 122.910156 512.734375 121.109375 L 541.804688 120.570312 L 542.34375 119.941406 C 542.253906 115.53125 542.164062 111.03125 540.90625 106.53125 C 537.753906 95.910156 530.824219 93.75 527.765625 93.03125 C 525.515625 92.398438 523.445312 92.21875 521.375 92.21875 C 507.246094 92.21875 497.882812 101.488281 497.882812 117.058594 C 497.882812 121.289062 498.605469 125.699219 500.042969 128.851562 C 505.265625 141 517.503906 142.078125 523.984375 142.078125 C 531.453125 142.078125 534.695312 140.730469 539.464844 138.839844 L 540.003906 138.121094 L 540.632812 127.949219 L 540.003906 127.679688 M 512.734375 111.570312 C 513.003906 108.78125 513.632812 105 517.054688 102.839844 C 518.132812 102.121094 519.394531 101.851562 520.65625 101.851562 C 523.625 101.851562 525.425781 103.378906 526.414062 105 C 527.675781 106.980469 527.765625 109.140625 527.765625 111.210938 Z M 590.585938 127.679688 C 587.167969 129.480469 583.117188 131.550781 576.546875 131.550781 C 571.148438 131.550781 567.457031 129.839844 565.296875 126.601562 C 563.945312 124.710938 563.675781 122.910156 563.316406 121.109375 L 592.386719 120.570312 L 592.925781 119.941406 C 592.835938 115.53125 592.746094 111.03125 591.488281 106.53125 C 588.335938 95.910156 581.40625 93.75 578.347656 93.03125 C 576.097656 92.398438 574.027344 92.21875 571.957031 92.21875 C 557.828125 92.21875 548.464844 101.488281 548.464844 117.058594 C 548.464844 121.289062 549.1875 125.699219 550.625 128.851562 C 555.847656 141 568.085938 142.078125 574.566406 142.078125 C 582.035156 142.078125 585.277344 140.730469 590.046875 138.839844 L 590.585938 138.121094 L 591.214844 127.949219 L 590.585938 127.679688 M 563.316406 111.570312 C 563.585938 108.78125 564.214844 105 567.636719 102.839844 C 568.714844 102.121094 569.976562 101.851562 571.238281 101.851562 C 574.207031 101.851562 576.007812 103.378906 576.996094 105 C 578.257812 106.980469 578.347656 109.140625 578.347656 111.210938 Z M 647.464844 139.828125 C 639.003906 125.519531 638.105469 123.898438 631.265625 111.570312 C 637.476562 103.109375 638.105469 102.210938 644.496094 94.019531 L 644.042969 93.121094 L 629.375 93.300781 L 628.476562 93.929688 C 621.453125 106.078125 620.554688 107.519531 616.414062 113.730469 L 616.414062 103.738281 C 616.503906 86.910156 616.59375 83.308594 617.042969 69.71875 L 616.324219 69.179688 L 600.664062 71.519531 L 600.125 72.148438 C 600.753906 80.878906 601.023438 85.109375 601.203125 96.898438 C 601.382812 111.480469 601.382812 126.058594 601.292969 140.640625 L 601.925781 141.269531 C 607.953125 141 609.664062 141 616.503906 141 L 617.042969 140.371094 L 616.503906 125.160156 L 616.414062 114.808594 C 624.246094 129.210938 625.234375 131.191406 629.824219 140.730469 L 630.632812 141.269531 L 646.835938 140.640625 Z M 704.074219 102.300781 C 696.515625 99.148438 692.554688 97.53125 692.554688 93.480469 C 692.554688 90.691406 695.164062 87.179688 701.105469 87.179688 C 707.945312 87.179688 711.992188 89.96875 715.324219 92.21875 L 716.132812 91.859375 L 716.855469 80.070312 L 716.402344 79.441406 C 712.535156 77.820312 708.484375 76.109375 699.753906 76.109375 C 682.835938 76.109375 676.984375 85.648438 676.984375 95.28125 C 676.984375 106.171875 685.445312 110.128906 690.484375 112.558594 L 693.453125 113.910156 C 699.664062 116.519531 704.433594 118.769531 704.433594 123.539062 C 704.433594 126.960938 701.464844 131.011719 693.632812 131.011719 C 685.445312 131.011719 680.855469 127.410156 678.242188 125.339844 L 677.34375 125.609375 L 676.714844 138.300781 L 677.253906 139.019531 C 678.242188 139.378906 679.234375 139.828125 680.222656 140.101562 C 682.292969 140.820312 687.605469 142.351562 694.355469 142.351562 C 697.054688 142.351562 703.894531 142.078125 709.292969 139.558594 C 716.855469 135.871094 720.09375 129.03125 720.09375 121.378906 C 720.09375 116.25 718.113281 110.761719 713.34375 107.070312 C 710.914062 105.269531 708.574219 104.191406 706.414062 103.199219 Z M 753.847656 130.648438 C 752.316406 131.101562 751.234375 131.460938 749.707031 131.460938 C 745.117188 131.460938 744.757812 128.578125 744.574219 127.230469 C 744.304688 124.890625 744.304688 119.941406 744.394531 116.339844 L 744.574219 103.648438 L 752.675781 104.011719 L 753.214844 103.46875 L 754.117188 93.839844 L 753.574219 93.300781 L 744.574219 93.300781 L 744.847656 78.179688 L 744.214844 77.640625 C 738.097656 79.441406 736.476562 79.890625 730.085938 81.511719 L 729.726562 82.140625 L 729.816406 93.390625 L 724.957031 93.210938 L 724.417969 93.660156 L 723.605469 103.289062 L 724.144531 103.828125 L 729.816406 103.648438 L 729.546875 117.960938 C 729.457031 120.210938 729.367188 122.460938 729.367188 124.800781 C 729.367188 133.078125 729.546875 141.988281 743.585938 141.988281 C 747.097656 141.988281 749.886719 141.449219 753.035156 140.910156 L 753.667969 140.28125 L 754.566406 131.011719 Z M 800.554688 114.179688 C 800.644531 106.078125 800.644531 102.570312 798.304688 98.789062 C 796.503906 95.910156 792.90625 92.308594 781.386719 92.308594 C 773.644531 92.308594 768.875 93.75 763.746094 95.28125 L 763.207031 96 L 762.753906 105.808594 L 763.476562 106.171875 C 766.625 104.910156 772.476562 102.570312 778.503906 102.570312 C 781.835938 102.570312 783.183594 103.109375 784.355469 104.28125 C 785.253906 105.179688 785.527344 106.800781 785.527344 108.148438 C 774.726562 109.589844 769.683594 110.578125 764.285156 113.910156 C 759.246094 117.058594 757.535156 122.191406 757.535156 126.238281 C 757.535156 135.871094 764.464844 142.078125 773.285156 142.078125 C 780.035156 142.078125 783.90625 138.839844 785.796875 137.308594 L 785.796875 140.640625 L 786.335938 141.269531 C 792.816406 141 794.796875 140.910156 800.644531 141 L 801.09375 140.371094 C 800.464844 131.550781 800.464844 129.300781 800.464844 120.839844 L 800.554688 114.179688 M 785.707031 128.488281 C 783.816406 129.570312 781.386719 130.828125 778.414062 130.828125 C 775.175781 130.828125 772.476562 129.121094 772.476562 125.339844 C 772.476562 119.398438 779.585938 118.410156 785.707031 117.601562 Z M 836.289062 130.648438 C 834.757812 131.101562 833.675781 131.460938 832.148438 131.460938 C 827.558594 131.460938 827.199219 128.578125 827.015625 127.230469 C 826.746094 124.890625 826.746094 119.941406 826.835938 116.339844 L 827.015625 103.648438 L 835.117188 104.011719 L 835.65625 103.46875 L 836.558594 93.839844 L 836.015625 93.300781 L 827.015625 93.300781 L 827.289062 78.179688 L 826.65625 77.640625 C 820.539062 79.441406 818.917969 79.890625 812.527344 81.511719 L 812.167969 82.140625 L 812.257812 93.390625 L 807.398438 93.210938 L 806.859375 93.660156 L 806.046875 103.289062 L 806.585938 103.828125 L 812.257812 103.648438 L 811.988281 117.960938 C 811.898438 120.210938 811.808594 122.460938 811.808594 124.800781 C 811.808594 133.078125 811.988281 141.988281 826.027344 141.988281 C 829.539062 141.988281 832.328125 141.449219 835.476562 140.910156 L 836.109375 140.28125 L 837.007812 131.011719 Z M 882.90625 127.679688 C 879.488281 129.480469 875.4375 131.550781 868.867188 131.550781 C 863.46875 131.550781 859.777344 129.839844 857.617188 126.601562 C 856.265625 124.710938 855.996094 122.910156 855.636719 121.109375 L 884.707031 120.570312 L 885.246094 119.941406 C 885.15625 115.53125 885.066406 111.03125 883.808594 106.53125 C 880.65625 95.910156 873.726562 93.75 870.667969 93.03125 C 868.417969 92.398438 866.347656 92.21875 864.277344 92.21875 C 850.148438 92.21875 840.785156 101.488281 840.785156 117.058594 C 840.785156 121.289062 841.507812 125.699219 842.945312 128.851562 C 848.167969 141 860.40625 142.078125 866.886719 142.078125 C 874.355469 142.078125 877.597656 140.730469 882.367188 138.839844 L 882.90625 138.121094 L 883.535156 127.949219 L 882.90625 127.679688 M 855.636719 111.570312 C 855.90625 108.78125 856.535156 105 859.957031 102.839844 C 861.035156 102.121094 862.296875 101.851562 863.558594 101.851562 C 866.527344 101.851562 868.328125 103.378906 869.316406 105 C 870.578125 106.980469 870.667969 109.140625 870.667969 111.210938 Z M 888.125 141 "/>
<path fill-rule="nonzero" fill="rgb(34.901961%, 14.901961%, 14.901961%)" fill-opacity="1" d="M 411.53125 197.28125 L 400.101562 197.460938 L 399.558594 198 C 399.921875 209.699219 400.191406 217.53125 400.191406 227.878906 C 400.191406 238.859375 399.921875 249.75 399.648438 260.730469 L 400.191406 261.269531 C 406.851562 261 408.289062 260.910156 415.492188 261 L 415.941406 260.460938 C 415.582031 250.648438 415.582031 248.398438 415.582031 239.21875 C 425.660156 239.308594 436.460938 239.308594 442.941406 231.390625 C 445.460938 228.328125 447.621094 223.199219 447.621094 216.898438 C 447.621094 213.03125 446.71875 204.480469 439.25 200.25 C 433.851562 197.101562 426.199219 197.101562 419.449219 197.101562 L 411.53125 197.28125 M 415.582031 208.171875 C 417.558594 208.078125 419.449219 208.078125 421.429688 208.078125 C 429.351562 208.261719 431.511719 212.308594 431.511719 217.53125 C 431.511719 218.789062 431.511719 224.011719 426.742188 226.621094 C 424.308594 227.96875 420.980469 228.148438 415.582031 228.148438 Z M 493.878906 234.179688 C 493.96875 226.078125 493.96875 222.570312 491.628906 218.789062 C 489.828125 215.910156 486.230469 212.308594 474.710938 212.308594 C 466.96875 212.308594 462.199219 213.75 457.070312 215.28125 L 456.53125 216 L 456.078125 225.808594 L 456.800781 226.171875 C 459.949219 224.910156 465.800781 222.570312 471.828125 222.570312 C 475.160156 222.570312 476.507812 223.109375 477.679688 224.28125 C 478.578125 225.179688 478.851562 226.800781 478.851562 228.148438 C 468.050781 229.589844 463.007812 230.578125 457.609375 233.910156 C 452.570312 237.058594 450.859375 242.191406 450.859375 246.238281 C 450.859375 255.871094 457.789062 262.078125 466.609375 262.078125 C 473.359375 262.078125 477.230469 258.839844 479.121094 257.308594 L 479.121094 260.640625 L 479.660156 261.269531 C 486.140625 261 488.121094 260.910156 493.96875 261 L 494.417969 260.371094 C 493.789062 251.550781 493.789062 249.300781 493.789062 240.839844 L 493.878906 234.179688 M 479.03125 248.488281 C 477.140625 249.570312 474.710938 250.828125 471.738281 250.828125 C 468.5 250.828125 465.800781 249.121094 465.800781 245.339844 C 465.800781 239.398438 472.910156 238.410156 479.03125 237.601562 Z M 530.421875 227.609375 L 532.941406 212.941406 L 532.402344 212.308594 C 531.773438 212.308594 531.140625 212.21875 530.511719 212.21875 C 526.820312 212.21875 522.683594 214.289062 519.800781 220.949219 L 520.070312 212.671875 L 519.351562 211.949219 C 512.691406 213.390625 510.980469 213.660156 504.410156 214.648438 L 503.871094 215.191406 C 504.410156 221.941406 504.683594 225.988281 504.683594 238.5 C 504.683594 245.878906 504.589844 253.261719 504.410156 260.730469 L 504.953125 261.269531 C 511.613281 261 513.050781 260.910156 520.25 261 L 520.703125 260.371094 C 520.339844 253.078125 519.800781 242.910156 519.800781 236.699219 C 519.800781 232.648438 519.800781 226.710938 525.921875 226.710938 C 527.453125 226.710938 528.351562 227.25 529.613281 227.96875 Z M 584.421875 259.828125 C 575.960938 245.519531 575.0625 243.898438 568.222656 231.570312 C 574.433594 223.109375 575.0625 222.210938 581.453125 214.019531 L 581 213.121094 L 566.332031 213.300781 L 565.433594 213.929688 C 558.410156 226.078125 557.511719 227.519531 553.371094 233.730469 L 553.371094 223.738281 C 553.460938 206.910156 553.550781 203.308594 554 189.71875 L 553.28125 189.179688 L 537.621094 191.519531 L 537.082031 192.148438 C 537.710938 200.878906 537.980469 205.109375 538.160156 216.898438 C 538.339844 231.480469 538.339844 246.058594 538.25 260.640625 L 538.882812 261.269531 C 544.910156 261 546.621094 261 553.460938 261 L 554 260.371094 L 553.460938 245.160156 L 553.371094 234.808594 C 561.203125 249.210938 562.191406 251.191406 566.78125 260.730469 L 567.589844 261.269531 L 583.792969 260.640625 Z M 583.339844 261 "/>
</svg>
