<?xml version="1.0" encoding="UTF-8"?>
<svg xmlns="http://www.w3.org/2000/svg" xmlns:xlink="http://www.w3.org/1999/xlink" width="975" height="1300" viewBox="0 0 975 1300">
<path fill-rule="nonzero" fill="rgb(98.823529%, 78.823529%, 9.019608%)" fill-opacity="1" d="M 50 50 L 925 50 L 925 290 L 50 290 Z M 50 50 "/>
<path fill-rule="nonzero" fill="rgb(34.901961%, 14.901961%, 14.901961%)" fill-opacity="1" d="M 169.882812 77.28125 L 158.453125 77.460938 L 157.910156 78 C 158.273438 89.699219 158.542969 97.53125 158.542969 107.878906 C 158.542969 118.859375 158.273438 129.75 158 140.730469 L 158.542969 141.269531 C 165.203125 141 166.640625 140.910156 173.84375 141 L 174.292969 140.460938 C 173.933594 130.648438 173.933594 128.398438 173.933594 119.21875 C 184.011719 119.308594 194.8125 119.308594 201.292969 111.390625 C 203.8125 108.328125 205.972656 103.199219 205.972656 96.898438 C 205.972656 93.03125 205.070312 84.480469 197.601562 80.25 C 192.203125 77.101562 184.550781 77.101562 177.800781 77.101562 L 169.882812 77.28125 M 173.933594 88.171875 C 175.910156 88.078125 177.800781 88.078125 179.78125 88.078125 C 187.703125 88.261719 189.863281 92.308594 189.863281 97.53125 C 189.863281 98.789062 189.863281 104.011719 185.09375 106.621094 C 182.660156 107.96875 179.332031 108.148438 173.933594 108.148438 Z M 252.140625 127.679688 C 248.722656 129.480469 244.671875 131.550781 238.101562 131.550781 C 232.703125 131.550781 229.011719 129.839844 226.851562 126.601562 C 225.5 124.710938 225.230469 122.910156 224.871094 121.109375 L 253.941406 120.570312 L 254.480469 119.941406 C 254.390625 115.53125 254.300781 111.03125 253.042969 106.53125 C 249.890625 95.910156 242.960938 93.75 239.902344 93.03125 C 237.652344 92.398438 235.582031 92.21875 233.511719 92.21875 C 219.382812 92.21875 210.019531 101.488281 210.019531 117.058594 C 210.019531 121.289062 210.742188 125.699219 212.179688 128.851562 C 217.402344 141 229.640625 142.078125 236.121094 142.078125 C 243.589844 142.078125 246.832031 140.730469 251.601562 138.839844 L 252.140625 138.121094 L 252.769531 127.949219 L 252.140625 127.679688 M 224.871094 111.570312 C 225.140625 108.78125 225.769531 105 229.191406 102.839844 C 230.269531 102.121094 231.53125 101.851562 232.792969 101.851562 C 235.761719 101.851562 237.5625 103.378906 238.550781 105 C 239.8125 106.980469 239.902344 109.140625 239.902344 111.210938 Z M 281.664062 109.949219 C 278.601562 108.871094 276.171875 107.878906 276.171875 105.359375 C 276.171875 104.28125 276.894531 101.308594 282.472656 101.308594 C 287.964844 101.308594 291.472656 103.648438 293.722656 105.089844 L 294.535156 104.820312 L 295.433594 95.011719 L 294.984375 94.46875 C 290.753906 93.300781 287.0625 92.21875 281.214844 92.21875 C 276.804688 92.21875 267.984375 92.578125 263.304688 99.328125 C 262.132812 100.949219 260.875 103.648438 260.875 107.25 C 260.875 116.878906 268.34375 119.761719 272.574219 121.378906 L 275.992188 122.640625 C 278.421875 123.449219 282.382812 124.800781 282.382812 128.039062 C 282.382812 130.289062 280.3125 132.71875 275.273438 132.71875 C 272.753906 132.71875 269.0625 131.910156 265.734375 130.199219 C 264.203125 129.390625 263.484375 128.761719 262.132812 127.679688 L 261.324219 128.039062 C 261.144531 132.71875 261.054688 133.710938 260.691406 138.210938 L 261.144531 139.019531 C 265.554688 140.640625 269.332031 142.078125 275.902344 142.078125 C 282.742188 142.078125 296.242188 140.820312 297.863281 127.949219 C 297.953125 127.230469 297.953125 126.601562 297.953125 125.96875 C 297.953125 116.070312 291.023438 113.460938 286.074219 111.570312 Z M 341.0625 128.039062 C 338.632812 129.480469 336.292969 130.921875 331.703125 130.921875 C 321.53125 130.921875 319.460938 122.460938 319.460938 117.058594 C 319.460938 110.488281 322.34375 102.929688 331.074219 102.929688 C 335.03125 102.929688 337.191406 104.371094 339.894531 106.171875 L 340.792969 105.898438 C 341.152344 101.128906 341.242188 99.871094 341.960938 95.101562 L 341.511719 94.558594 C 337.550781 93.300781 334.132812 92.21875 328.914062 92.21875 C 307.761719 92.21875 303.621094 108.238281 303.621094 117.421875 C 303.621094 127.769531 309.023438 141.808594 329.273438 141.808594 C 334.042969 141.808594 337.101562 140.910156 340.882812 139.828125 L 341.421875 139.289062 L 341.78125 128.488281 Z M 389.03125 114.179688 C 389.121094 106.078125 389.121094 102.570312 386.78125 98.789062 C 384.980469 95.910156 381.382812 92.308594 369.863281 92.308594 C 362.121094 92.308594 357.351562 93.75 352.222656 95.28125 L 351.683594 96 L 351.230469 105.808594 L 351.953125 106.171875 C 355.101562 104.910156 360.953125 102.570312 366.980469 102.570312 C 370.3125 102.570312 371.660156 103.109375 372.832031 104.28125 C 373.730469 105.179688 374.003906 106.800781 374.003906 108.148438 C 363.203125 109.589844 358.160156 110.578125 352.761719 113.910156 C 347.722656 117.058594 346.011719 122.191406 346.011719 126.238281 C 346.011719 135.871094 352.941406 142.078125 361.761719 142.078125 C 368.511719 142.078125 372.382812 138.839844 374.273438 137.308594 L 374.273438 140.640625 L 374.8125 141.269531 C 381.292969 141 383.273438 140.910156 389.121094 141 L 389.570312 140.371094 C 388.941406 131.550781 388.941406 129.300781 388.941406 120.839844 L 389.03125 114.179688 M 374.183594 128.488281 C 372.292969 129.570312 369.863281 130.828125 366.890625 130.828125 C 363.652344 130.828125 360.953125 129.121094 360.953125 125.339844 C 360.953125 119.398438 368.0625 118.410156 374.183594 117.601562 Z M 443.660156 140.460938 C 443.300781 132.359375 443.03125 126.960938 443.03125 115.171875 C 443.03125 91.410156 443.390625 81.601562 443.75 69.71875 L 443.121094 69.179688 L 428.269531 71.519531 L 427.820312 72.058594 C 428.359375 80.519531 428.449219 82.769531 428.359375 93.03125 C 421.609375 92.851562 413.148438 92.671875 406.308594 98.070312 C 400.011719 102.929688 397.398438 110.398438 397.398438 119.671875 C 397.398438 126.691406 399.289062 133.710938 404.601562 138.121094 C 408.558594 141.359375 413.421875 142.078125 416.390625 142.078125 C 422.78125 142.078125 426.109375 139.109375 428.269531 137.21875 L 428.089844 140.730469 L 428.539062 141.269531 C 434.75 141 436.460938 141 443.210938 141 L 443.660156 140.460938 M 428.359375 103.828125 C 428.449219 115.800781 428.359375 118.140625 428.089844 129.03125 C 426.289062 130.109375 424.488281 131.191406 421.96875 131.191406 C 413.238281 131.191406 413.238281 120.03125 413.238281 118.230469 C 413.238281 111.300781 415.21875 103.558594 425.300781 103.558594 C 426.289062 103.558594 427.101562 103.648438 428.359375 103.828125 Z M 493.882812 127.679688 C 490.464844 129.480469 486.414062 131.550781 479.84375 131.550781 C 474.445312 131.550781 470.753906 129.839844 468.59375 126.601562 C 467.242188 124.710938 466.972656 122.910156 466.613281 121.109375 L 495.683594 120.570312 L 496.222656 119.941406 C 496.132812 115.53125 496.042969 111.03125 494.785156 106.53125 C 491.632812 95.910156 484.703125 93.75 481.644531 93.03125 C 479.394531 92.398438 477.324219 92.21875 475.253906 92.21875 C 461.125 92.21875 451.761719 101.488281 451.761719 117.058594 C 451.761719 121.289062 452.484375 125.699219 453.921875 128.851562 C 459.144531 141 471.382812 142.078125 477.863281 142.078125 C 485.332031 142.078125 488.574219 140.730469 493.34375 138.839844 L 493.882812 138.121094 L 494.511719 127.949219 L 493.882812 127.679688 M 466.613281 111.570312 C 466.882812 108.78125 467.511719 105 470.933594 102.839844 C 472.011719 102.121094 473.273438 101.851562 474.535156 101.851562 C 477.503906 101.851562 479.304688 103.378906 480.292969 105 C 481.554688 106.980469 481.644531 109.140625 481.644531 111.210938 Z M 530.511719 107.609375 L 533.03125 92.941406 L 532.492188 92.308594 C 531.863281 92.308594 531.230469 92.21875 530.601562 92.21875 C 526.910156 92.21875 522.773438 94.289062 519.890625 100.949219 L 520.160156 92.671875 L 519.441406 91.949219 C 512.78125 93.390625 511.070312 93.660156 504.5 94.648438 L 503.960938 95.191406 C 504.5 101.941406 504.773438 105.988281 504.773438 118.5 C 504.773438 125.878906 504.679688 133.261719 504.5 140.730469 L 505.042969 141.269531 C 511.703125 141 513.140625 140.910156 520.339844 141 L 520.792969 140.371094 C 520.429688 133.078125 519.890625 122.910156 519.890625 116.699219 C 519.890625 112.648438 519.890625 106.710938 526.011719 106.710938 C 527.542969 106.710938 528.441406 107.25 529.703125 107.96875 Z M 584.0625 117.058594 C 584.0625 113.550781 584.0625 98.96875 571.460938 94.019531 C 567.5 92.488281 562.820312 92.308594 560.480469 92.308594 C 544.820312 92.308594 536 100.679688 536 117.238281 C 536 123 536.902344 128.851562 540.230469 133.710938 C 542.570312 137.21875 546.980469 142.078125 559.851562 142.078125 C 578.929688 142.078125 584.0625 130.558594 584.0625 117.058594 M 568.492188 116.96875 C 568.492188 124.351562 567.5 132.539062 560.03125 132.539062 C 557.691406 132.539062 556.070312 131.460938 554.992188 130.46875 C 553.460938 128.941406 551.75 125.878906 551.75 117.148438 C 551.75 114.539062 551.75 108.78125 553.550781 105.628906 C 554.902344 103.199219 557.242188 101.578125 560.121094 101.578125 C 562.640625 101.578125 564.710938 102.929688 565.882812 104.371094 C 568.042969 106.980469 568.492188 112.109375 568.492188 116.96875 Z M 644.902344 102.300781 C 637.34375 99.148438 633.382812 97.53125 633.382812 93.480469 C 633.382812 90.691406 635.992188 87.179688 641.933594 87.179688 C 648.773438 87.179688 652.820312 89.96875 656.152344 92.21875 L 656.960938 91.859375 L 657.683594 80.070312 L 657.230469 79.441406 C 653.363281 77.820312 649.3125 76.109375 640.582031 76.109375 C 623.664062 76.109375 617.8125 85.648438 617.8125 95.28125 C 617.8125 106.171875 626.273438 110.128906 631.3125 112.558594 L 634.28125 113.910156 C 640.492188 116.519531 645.261719 118.769531 645.261719 123.539062 C 645.261719 126.960938 642.292969 131.011719 634.460938 131.011719 C 626.273438 131.011719 621.683594 127.410156 619.070312 125.339844 L 618.171875 125.609375 L 617.542969 138.300781 L 618.082031 139.019531 C 619.070312 139.378906 620.0625 139.828125 621.050781 140.101562 C 623.121094 140.820312 628.433594 142.351562 635.183594 142.351562 C 637.882812 142.351562 644.722656 142.078125 650.121094 139.558594 C 657.683594 135.871094 660.921875 129.03125 660.921875 121.378906 C 660.921875 116.25 658.941406 110.761719 654.171875 107.070312 C 651.742188 105.269531 649.402344 104.191406 647.242188 103.199219 Z M 694.671875 130.648438 C 693.140625 131.101562 692.058594 131.460938 690.53125 131.460938 C 685.941406 131.460938 685.582031 128.578125 685.398438 127.230469 C 685.128906 124.890625 685.128906 119.941406 685.21875 116.339844 L 685.398438 103.648438 L 693.5 104.011719 L 694.039062 103.46875 L 694.941406 93.839844 L 694.398438 93.300781 L 685.398438 93.300781 L 685.671875 78.179688 L 685.039062 77.640625 C 678.921875 79.441406 677.300781 79.890625 670.910156 81.511719 L 670.550781 82.140625 L 670.640625 93.390625 L 665.78125 93.210938 L 665.242188 93.660156 L 664.429688 103.289062 L 664.96875 103.828125 L 670.640625 103.648438 L 670.371094 117.960938 C 670.28125 120.210938 670.191406 122.460938 670.191406 124.800781 C 670.191406 133.078125 670.371094 141.988281 684.410156 141.988281 C 687.921875 141.988281 690.710938 141.449219 693.859375 140.910156 L 694.492188 140.28125 L 695.390625 131.011719 Z M 741.382812 114.179688 C 741.472656 106.078125 741.472656 102.570312 739.132812 98.789062 C 737.332031 95.910156 733.734375 92.308594 722.214844 92.308594 C 714.472656 92.308594 709.703125 93.75 704.574219 95.28125 L 704.035156 96 L 703.582031 105.808594 L 704.304688 106.171875 C 707.453125 104.910156 713.304688 102.570312 719.332031 102.570312 C 722.664062 102.570312 724.011719 103.109375 725.183594 104.28125 C 726.082031 105.179688 726.355469 106.800781 726.355469 108.148438 C 715.554688 109.589844 710.511719 110.578125 705.113281 113.910156 C 700.074219 117.058594 698.363281 122.191406 698.363281 126.238281 C 698.363281 135.871094 705.292969 142.078125 714.113281 142.078125 C 720.863281 142.078125 724.734375 138.839844 726.625 137.308594 L 726.625 140.640625 L 727.164062 141.269531 C 733.644531 141 735.625 140.910156 741.472656 141 L 741.921875 140.371094 C 741.292969 131.550781 741.292969 129.300781 741.292969 120.839844 L 741.382812 114.179688 M 726.535156 128.488281 C 724.644531 129.570312 722.214844 130.828125 719.242188 130.828125 C 716.003906 130.828125 713.304688 129.121094 713.304688 125.339844 C 713.304688 119.398438 720.414062 118.410156 726.535156 117.601562 Z M 777.113281 130.648438 C 775.582031 131.101562 774.5 131.460938 772.972656 131.460938 C 768.382812 131.460938 768.023438 128.578125 767.839844 127.230469 C 767.570312 124.890625 767.570312 119.941406 767.660156 116.339844 L 767.839844 103.648438 L 775.941406 104.011719 L 776.480469 103.46875 L 777.382812 93.839844 L 776.839844 93.300781 L 767.839844 93.300781 L 768.113281 78.179688 L 767.480469 77.640625 C 761.363281 79.441406 759.742188 79.890625 753.351562 81.511719 L 752.992188 82.140625 L 753.082031 93.390625 L 748.222656 93.210938 L 747.683594 93.660156 L 746.871094 103.289062 L 747.410156 103.828125 L 753.082031 103.648438 L 752.8125 117.960938 C 752.722656 120.210938 752.632812 122.460938 752.632812 124.800781 C 752.632812 133.078125 752.8125 141.988281 766.851562 141.988281 C 770.363281 141.988281 773.152344 141.449219 776.300781 140.910156 L 776.933594 140.28125 L 777.832031 131.011719 Z M 823.730469 127.679688 C 820.3125 129.480469 816.261719 131.550781 809.691406 131.550781 C 804.292969 131.550781 800.601562 129.839844 798.441406 126.601562 C 797.089844 124.710938 796.820312 122.910156 796.460938 121.109375 L 825.53125 120.570312 L 826.070312 119.941406 C 825.980469 115.53125 825.890625 111.03125 824.632812 106.53125 C 821.480469 95.910156 814.550781 93.75 811.492188 93.03125 C 809.242188 92.398438 807.171875 92.21875 805.101562 92.21875 C 790.972656 92.21875 781.609375 101.488281 781.609375 117.058594 C 781.609375 121.289062 782.332031 125.699219 783.769531 128.851562 C 788.992188 141 801.230469 142.078125 807.710938 142.078125 C 815.179688 142.078125 818.421875 140.730469 823.191406 138.839844 L 823.730469 138.121094 L 824.359375 127.949219 L 823.730469 127.679688 M 796.460938 111.570312 C 796.730469 108.78125 797.359375 105 800.78125 102.839844 C 801.859375 102.121094 803.121094 101.851562 804.382812 101.851562 C 807.351562 101.851562 809.152344 103.378906 810.140625 105 C 811.402344 106.980469 811.492188 109.140625 811.492188 111.210938 Z M 828.953125 141 "/>
<path fill-rule="nonzero" fill="rgb(34.901961%, 14.901961%, 14.901961%)" fill-opacity="1" d="M 385.519531 261 C 393.890625 261.179688 404.238281 261.359375 410.988281 256.679688 C 416.929688 252.449219 418.550781 246.511719 418.550781 241.46875 C 418.550781 235.710938 416.117188 230.398438 410.988281 227.878906 C 409.277344 226.980469 407.300781 226.621094 405.410156 226.261719 C 408.46875 225 412.070312 223.378906 414.410156 218.609375 C 415.398438 216.539062 415.847656 214.378906 415.847656 212.308594 C 415.847656 209.429688 415.128906 205.46875 412.25 202.230469 C 408.46875 198.179688 402.617188 197.101562 393.800781 197.101562 C 390.738281 197.101562 385.25 197.191406 382.1875 197.28125 L 369.589844 197.460938 L 369.050781 198 C 369.410156 206.640625 369.5 209.96875 369.5 222.390625 C 369.5 235.171875 369.410156 247.859375 369.230469 260.640625 L 369.859375 261 L 385.519531 261 M 384.890625 233.640625 C 391.730469 233.460938 395.6875 233.460938 398.300781 234.988281 C 400.910156 236.609375 401.898438 239.488281 401.898438 242.371094 C 401.898438 246.421875 399.648438 248.941406 396.320312 250.109375 C 393.617188 251.011719 388.757812 251.011719 384.890625 250.921875 L 384.890625 233.640625 M 384.890625 207.179688 C 386.777344 207.179688 389.300781 207.089844 390.828125 207.089844 C 395.6875 207.089844 400.097656 208.800781 400.097656 214.648438 C 400.097656 219.421875 396.589844 221.398438 395.507812 221.941406 C 393.257812 222.929688 388.488281 222.929688 384.890625 222.929688 Z M 466.878906 247.679688 C 463.460938 249.480469 459.410156 251.550781 452.839844 251.550781 C 447.441406 251.550781 443.75 249.839844 441.589844 246.601562 C 440.238281 244.710938 439.96875 242.910156 439.609375 241.109375 L 468.679688 240.570312 L 469.21875 239.941406 C 469.128906 235.53125 469.039062 231.03125 467.78125 226.53125 C 464.628906 215.910156 457.699219 213.75 454.640625 213.03125 C 452.390625 212.398438 450.320312 212.21875 448.25 212.21875 C 434.121094 212.21875 424.757812 221.488281 424.757812 237.058594 C 424.757812 241.289062 425.480469 245.699219 426.917969 248.851562 C 432.140625 261 444.378906 262.078125 450.859375 262.078125 C 458.328125 262.078125 461.570312 260.730469 466.339844 258.839844 L 466.878906 258.121094 L 467.507812 247.949219 L 466.878906 247.679688 M 439.609375 231.570312 C 439.878906 228.78125 440.507812 225 443.929688 222.839844 C 445.007812 222.121094 446.269531 221.851562 447.53125 221.851562 C 450.5 221.851562 452.300781 223.378906 453.289062 225 C 454.550781 226.980469 454.640625 229.140625 454.640625 231.210938 Z M 517.546875 234.179688 C 517.636719 226.078125 517.636719 222.570312 515.296875 218.789062 C 513.496094 215.910156 509.898438 212.308594 498.378906 212.308594 C 490.636719 212.308594 485.867188 213.75 480.738281 215.28125 L 480.199219 216 L 479.746094 225.808594 L 480.46875 226.171875 C 483.617188 224.910156 489.46875 222.570312 495.496094 222.570312 C 498.828125 222.570312 500.175781 223.109375 501.347656 224.28125 C 502.246094 225.179688 502.519531 226.800781 502.519531 228.148438 C 491.71875 229.589844 486.675781 230.578125 481.277344 233.910156 C 476.238281 237.058594 474.527344 242.191406 474.527344 246.238281 C 474.527344 255.871094 481.457031 262.078125 490.277344 262.078125 C 497.027344 262.078125 500.898438 258.839844 502.789062 257.308594 L 502.789062 260.640625 L 503.328125 261.269531 C 509.808594 261 511.789062 260.910156 517.636719 261 L 518.085938 260.371094 C 517.457031 251.550781 517.457031 249.300781 517.457031 240.839844 L 517.546875 234.179688 M 502.699219 248.488281 C 500.808594 249.570312 498.378906 250.828125 495.40625 250.828125 C 492.167969 250.828125 489.46875 249.121094 489.46875 245.339844 C 489.46875 239.398438 496.578125 238.410156 502.699219 237.601562 Z M 563.269531 248.039062 C 560.839844 249.480469 558.5 250.921875 553.910156 250.921875 C 543.738281 250.921875 541.667969 242.460938 541.667969 237.058594 C 541.667969 230.488281 544.550781 222.929688 553.28125 222.929688 C 557.238281 222.929688 559.398438 224.371094 562.101562 226.171875 L 563 225.898438 C 563.359375 221.128906 563.449219 219.871094 564.167969 215.101562 L 563.71875 214.558594 C 559.757812 213.300781 556.339844 212.21875 551.121094 212.21875 C 529.96875 212.21875 525.828125 228.238281 525.828125 237.421875 C 525.828125 247.769531 531.230469 261.808594 551.480469 261.808594 C 556.25 261.808594 559.308594 260.910156 563.089844 259.828125 L 563.628906 259.289062 L 563.988281 248.488281 Z M 615.289062 260.371094 C 614.929688 252.988281 614.839844 250.46875 614.660156 241.109375 L 614.660156 234.359375 C 614.570312 225.808594 614.480469 220.859375 611.867188 217.078125 C 609.257812 213.390625 605.480469 212.21875 601.519531 212.21875 C 594.949219 212.21875 589.820312 215.371094 586.21875 217.53125 L 586.488281 189.808594 L 585.949219 189.179688 L 570.558594 191.609375 L 570.109375 192.148438 C 570.917969 200.878906 571.097656 204.121094 571.277344 215.730469 C 571.460938 223.019531 571.550781 230.308594 571.550781 237.601562 C 571.550781 246.511719 571.367188 251.820312 571.1875 260.640625 L 571.640625 261.269531 C 578.300781 260.910156 579.648438 260.910156 586.9375 260.910156 L 587.480469 260.371094 C 586.847656 246.871094 586.757812 242.820312 586.667969 226.890625 C 588.378906 225.71875 590.539062 224.191406 593.597656 224.191406 C 598.550781 224.191406 598.910156 229.320312 599.269531 232.921875 C 599.449219 235.710938 599.539062 248.488281 599.539062 251.820312 C 599.539062 254.789062 599.449219 257.671875 599.449219 260.640625 L 599.898438 261.269531 C 606.378906 260.910156 607.820312 260.910156 614.75 260.910156 Z M 620.148438 261 "/>
</svg>
