<?xml version="1.0" encoding="UTF-8"?>
<svg xmlns="http://www.w3.org/2000/svg" xmlns:xlink="http://www.w3.org/1999/xlink" width="975" height="1300" viewBox="0 0 975 1300">
<path fill-rule="nonzero" fill="rgb(98.823529%, 78.823529%, 9.019608%)" fill-opacity="1" d="M 50 50 L 925 50 L 925 290 L 50 290 Z M 50 50 "/>
<path fill-rule="nonzero" fill="rgb(34.901961%, 14.901961%, 14.901961%)" fill-opacity="1" d="M 126.816406 102.300781 C 119.257812 99.148438 115.296875 97.53125 115.296875 93.480469 C 115.296875 90.691406 117.90625 87.179688 123.847656 87.179688 C 130.6875 87.179688 134.734375 89.96875 138.066406 92.21875 L 138.875 91.859375 L 139.597656 80.070312 L 139.144531 79.441406 C 135.277344 77.820312 131.226562 76.109375 122.496094 76.109375 C 105.578125 76.109375 99.726562 85.648438 99.726562 95.28125 C 99.726562 106.171875 108.1875 110.128906 113.226562 112.558594 L 116.195312 113.910156 C 122.40625 116.519531 127.175781 118.769531 127.175781 123.539062 C 127.175781 126.960938 124.207031 131.011719 116.375 131.011719 C 108.1875 131.011719 103.597656 127.410156 100.984375 125.339844 L 100.085938 125.609375 L 99.457031 138.300781 L 99.996094 139.019531 C 100.984375 139.378906 101.976562 139.828125 102.964844 140.101562 C 105.035156 140.820312 110.347656 142.351562 117.097656 142.351562 C 119.796875 142.351562 126.636719 142.078125 132.035156 139.558594 C 139.597656 135.871094 142.835938 129.03125 142.835938 121.378906 C 142.835938 116.25 140.855469 110.761719 136.085938 107.070312 C 133.65625 105.269531 131.316406 104.191406 129.15625 103.199219 Z M 191.433594 114.179688 C 191.523438 106.078125 191.523438 102.570312 189.183594 98.789062 C 187.382812 95.910156 183.785156 92.308594 172.265625 92.308594 C 164.523438 92.308594 159.753906 93.75 154.625 95.28125 L 154.085938 96 L 153.632812 105.808594 L 154.355469 106.171875 C 157.503906 104.910156 163.355469 102.570312 169.382812 102.570312 C 172.714844 102.570312 174.0625 103.109375 175.234375 104.28125 C 176.132812 105.179688 176.40625 106.800781 176.40625 108.148438 C 165.605469 109.589844 160.5625 110.578125 155.164062 113.910156 C 150.125 117.058594 148.414062 122.191406 148.414062 126.238281 C 148.414062 135.871094 155.34375 142.078125 164.164062 142.078125 C 170.914062 142.078125 174.785156 138.839844 176.675781 137.308594 L 176.675781 140.640625 L 177.214844 141.269531 C 183.695312 141 185.675781 140.910156 191.523438 141 L 191.972656 140.371094 C 191.34375 131.550781 191.34375 129.300781 191.34375 120.839844 L 191.433594 114.179688 M 176.585938 128.488281 C 174.695312 129.570312 172.265625 130.828125 169.292969 130.828125 C 166.054688 130.828125 163.355469 129.121094 163.355469 125.339844 C 163.355469 119.398438 170.464844 118.410156 176.585938 117.601562 Z M 246.066406 140.371094 C 245.617188 132.449219 245.617188 129.929688 245.4375 121.109375 L 245.4375 114.089844 C 245.347656 105.449219 245.257812 101.308594 243.007812 97.621094 C 240.214844 92.941406 235.085938 92.21875 231.847656 92.21875 C 226.355469 92.21875 221.585938 95.101562 217.445312 97.53125 L 217.625 92.578125 L 216.726562 91.949219 C 209.796875 93.390625 208.265625 93.660156 201.515625 94.558594 L 200.976562 95.191406 C 201.695312 103.019531 202.238281 108.691406 202.238281 123.359375 C 202.238281 129.121094 202.144531 134.878906 202.054688 140.640625 L 202.597656 141.179688 C 209.078125 140.910156 210.425781 140.910156 217.625 140.910156 L 218.167969 140.371094 C 217.625 126.511719 217.535156 123 217.445312 106.890625 C 219.335938 105.628906 221.496094 104.101562 224.375 104.101562 C 229.328125 104.101562 229.777344 109.410156 230.046875 112.648438 C 230.226562 115.621094 230.316406 127.949219 230.316406 131.371094 C 230.316406 134.429688 230.226562 137.578125 230.226562 140.640625 L 230.765625 141.179688 C 236.707031 141 238.238281 140.910156 245.4375 140.910156 Z M 336.15625 123.179688 C 336.15625 118.679688 336.246094 114.179688 336.335938 109.589844 L 335.886719 109.050781 L 320.585938 109.320312 L 320.136719 109.859375 C 320.945312 118.679688 321.035156 120.839844 320.855469 129.03125 C 318.425781 129.570312 316.628906 130.019531 314.105469 130.019531 C 300.15625 130.019531 297.636719 116.699219 297.636719 109.949219 C 297.636719 95.730469 305.285156 87.988281 316.628906 87.988281 C 323.46875 87.988281 327.515625 90.691406 331.746094 93.480469 L 332.46875 93.210938 C 332.917969 87.628906 333.097656 86.191406 333.816406 80.789062 L 333.367188 80.25 C 329.585938 78.628906 323.558594 76.109375 314.195312 76.109375 C 303.9375 76.109375 292.6875 78.988281 285.578125 91.050781 C 282.335938 96.71875 280.988281 104.011719 280.988281 110.039062 C 280.988281 118.5 283.238281 125.609375 287.285156 130.828125 C 292.597656 137.671875 299.167969 139.828125 302.675781 140.820312 C 305.285156 141.539062 309.15625 142.351562 314.738281 142.351562 C 324.007812 142.351562 329.675781 140.460938 335.976562 138.390625 L 336.425781 137.671875 C 336.335938 133.53125 336.15625 129.390625 336.15625 125.25 Z M 372.335938 107.609375 L 374.855469 92.941406 L 374.316406 92.308594 C 373.6875 92.308594 373.054688 92.21875 372.425781 92.21875 C 368.734375 92.21875 364.597656 94.289062 361.714844 100.949219 L 361.984375 92.671875 L 361.265625 91.949219 C 354.605469 93.390625 352.894531 93.660156 346.324219 94.648438 L 345.785156 95.191406 C 346.324219 101.941406 346.597656 105.988281 346.597656 118.5 C 346.597656 125.878906 346.503906 133.261719 346.324219 140.730469 L 346.867188 141.269531 C 353.527344 141 354.964844 140.910156 362.164062 141 L 362.617188 140.371094 C 362.253906 133.078125 361.714844 122.910156 361.714844 116.699219 C 361.714844 112.648438 361.714844 106.710938 367.835938 106.710938 C 369.367188 106.710938 370.265625 107.25 371.527344 107.96875 Z M 420.035156 127.679688 C 416.617188 129.480469 412.566406 131.550781 405.996094 131.550781 C 400.597656 131.550781 396.90625 129.839844 394.746094 126.601562 C 393.394531 124.710938 393.125 122.910156 392.765625 121.109375 L 421.835938 120.570312 L 422.375 119.941406 C 422.285156 115.53125 422.195312 111.03125 420.9375 106.53125 C 417.785156 95.910156 410.855469 93.75 407.796875 93.03125 C 405.546875 92.398438 403.476562 92.21875 401.40625 92.21875 C 387.277344 92.21875 377.914062 101.488281 377.914062 117.058594 C 377.914062 121.289062 378.636719 125.699219 380.074219 128.851562 C 385.296875 141 397.535156 142.078125 404.015625 142.078125 C 411.484375 142.078125 414.726562 140.730469 419.496094 138.839844 L 420.035156 138.121094 L 420.664062 127.949219 L 420.035156 127.679688 M 392.765625 111.570312 C 393.035156 108.78125 393.664062 105 397.085938 102.839844 C 398.164062 102.121094 399.425781 101.851562 400.6875 101.851562 C 403.65625 101.851562 405.457031 103.378906 406.445312 105 C 407.707031 106.980469 407.796875 109.140625 407.796875 111.210938 Z M 447.21875 125.789062 C 450.097656 125.878906 452.976562 126.058594 457.296875 124.621094 C 461.976562 123 468.816406 119.128906 468.816406 110.398438 C 468.816406 106.078125 467.558594 104.28125 466.386719 102.570312 L 472.597656 102.929688 L 473.136719 102.480469 L 473.769531 93.480469 L 473.226562 93.03125 C 466.296875 93.300781 464.40625 93.390625 458.738281 93.300781 L 454.597656 93.210938 C 448.207031 93.03125 439.65625 92.851562 433.808594 97.710938 C 431.828125 99.238281 428.046875 103.109375 428.046875 109.859375 C 428.046875 113.460938 429.039062 116.339844 430.65625 118.589844 C 432.636719 121.378906 434.4375 122.371094 436.6875 123.628906 C 434.167969 128.488281 432.816406 130.921875 430.746094 134.609375 L 430.746094 135.421875 L 434.527344 138.121094 C 431.828125 140.191406 427.597656 143.609375 427.597656 149.460938 C 427.597656 153.601562 429.847656 157.199219 433.179688 159.628906 C 438.21875 163.230469 445.058594 163.410156 448.566406 163.410156 C 465.039062 163.410156 472.597656 155.128906 472.597656 146.398438 C 472.597656 135.058594 462.699219 132.898438 456.847656 131.550781 L 454.6875 131.191406 C 450.277344 130.46875 449.289062 130.199219 445.777344 128.941406 L 447.21875 125.789062 M 454.597656 109.589844 C 454.507812 116.878906 450.097656 117.511719 448.835938 117.511719 C 448.117188 117.511719 444.96875 117.328125 443.4375 113.730469 C 442.628906 111.839844 442.628906 109.679688 442.628906 109.050781 C 442.628906 104.550781 445.328125 101.671875 448.65625 101.671875 C 452.796875 101.671875 454.6875 105.628906 454.597656 109.589844 M 446.949219 143.160156 C 454.957031 145.230469 455.046875 145.230469 456.128906 146.128906 C 457.027344 146.761719 457.929688 147.75 457.929688 149.640625 C 457.929688 152.339844 455.679688 155.128906 449.738281 155.128906 C 443.078125 155.128906 440.828125 151.351562 440.828125 148.199219 C 440.828125 145.230469 442.359375 143.519531 443.4375 142.261719 Z M 525.246094 117.058594 C 525.246094 113.550781 525.246094 98.96875 512.644531 94.019531 C 508.683594 92.488281 504.003906 92.308594 501.664062 92.308594 C 486.003906 92.308594 477.183594 100.679688 477.183594 117.238281 C 477.183594 123 478.085938 128.851562 481.414062 133.710938 C 483.753906 137.21875 488.164062 142.078125 501.035156 142.078125 C 520.113281 142.078125 525.246094 130.558594 525.246094 117.058594 M 509.675781 116.96875 C 509.675781 124.351562 508.683594 132.539062 501.214844 132.539062 C 498.875 132.539062 497.253906 131.460938 496.175781 130.46875 C 494.644531 128.941406 492.933594 125.878906 492.933594 117.148438 C 492.933594 114.539062 492.933594 108.78125 494.734375 105.628906 C 496.085938 103.199219 498.425781 101.578125 501.304688 101.578125 C 503.824219 101.578125 505.894531 102.929688 507.066406 104.371094 C 509.226562 106.980469 509.675781 112.109375 509.675781 116.96875 Z M 559.804688 107.609375 L 562.324219 92.941406 L 561.785156 92.308594 C 561.15625 92.308594 560.523438 92.21875 559.894531 92.21875 C 556.203125 92.21875 552.066406 94.289062 549.183594 100.949219 L 549.453125 92.671875 L 548.734375 91.949219 C 542.074219 93.390625 540.363281 93.660156 533.792969 94.648438 L 533.253906 95.191406 C 533.792969 101.941406 534.066406 105.988281 534.066406 118.5 C 534.066406 125.878906 533.972656 133.261719 533.792969 140.730469 L 534.335938 141.269531 C 540.996094 141 542.433594 140.910156 549.632812 141 L 550.085938 140.371094 C 549.722656 133.078125 549.183594 122.910156 549.183594 116.699219 C 549.183594 112.648438 549.183594 106.710938 555.304688 106.710938 C 556.835938 106.710938 557.734375 107.25 558.996094 107.96875 Z M 583.835938 140.371094 C 583.382812 133.441406 583.023438 128.128906 583.023438 115.710938 C 583.023438 108.058594 583.203125 100.320312 583.292969 92.671875 L 582.664062 91.949219 L 567.183594 94.648438 L 566.644531 95.191406 C 567.363281 102.03125 567.632812 105.179688 567.632812 117.960938 C 567.632812 127.769531 567.363281 133.261719 567.09375 140.640625 L 567.632812 141.269531 C 574.113281 141 575.914062 140.910156 583.203125 141 L 583.835938 140.371094 M 582.394531 83.308594 L 582.664062 71.070312 L 582.125 70.53125 L 567.453125 72.328125 L 566.914062 72.960938 C 567.09375 76.199219 567.183594 78.089844 567.183594 80.25 C 567.183594 81.960938 567.183594 83.761719 567.09375 85.46875 L 567.722656 86.011719 C 573.84375 84.929688 575.554688 84.75 581.945312 83.941406 Z M 639.636719 117.058594 C 639.636719 113.550781 639.636719 98.96875 627.035156 94.019531 C 623.074219 92.488281 618.394531 92.308594 616.054688 92.308594 C 600.394531 92.308594 591.574219 100.679688 591.574219 117.238281 C 591.574219 123 592.476562 128.851562 595.804688 133.710938 C 598.144531 137.21875 602.554688 142.078125 615.425781 142.078125 C 634.503906 142.078125 639.636719 130.558594 639.636719 117.058594 M 624.066406 116.96875 C 624.066406 124.351562 623.074219 132.539062 615.605469 132.539062 C 613.265625 132.539062 611.644531 131.460938 610.566406 130.46875 C 609.035156 128.941406 607.324219 125.878906 607.324219 117.148438 C 607.324219 114.539062 607.324219 108.78125 609.125 105.628906 C 610.476562 103.199219 612.816406 101.578125 615.695312 101.578125 C 618.214844 101.578125 620.285156 102.929688 621.457031 104.371094 C 623.617188 106.980469 624.066406 112.109375 624.066406 116.96875 Z M 700.476562 102.300781 C 692.917969 99.148438 688.957031 97.53125 688.957031 93.480469 C 688.957031 90.691406 691.566406 87.179688 697.507812 87.179688 C 704.347656 87.179688 708.394531 89.96875 711.726562 92.21875 L 712.535156 91.859375 L 713.257812 80.070312 L 712.804688 79.441406 C 708.9375 77.820312 704.886719 76.109375 696.15625 76.109375 C 679.238281 76.109375 673.386719 85.648438 673.386719 95.28125 C 673.386719 106.171875 681.847656 110.128906 686.886719 112.558594 L 689.855469 113.910156 C 696.066406 116.519531 700.835938 118.769531 700.835938 123.539062 C 700.835938 126.960938 697.867188 131.011719 690.035156 131.011719 C 681.847656 131.011719 677.257812 127.410156 674.644531 125.339844 L 673.746094 125.609375 L 673.117188 138.300781 L 673.65625 139.019531 C 674.644531 139.378906 675.636719 139.828125 676.625 140.101562 C 678.695312 140.820312 684.007812 142.351562 690.757812 142.351562 C 693.457031 142.351562 700.296875 142.078125 705.695312 139.558594 C 713.257812 135.871094 716.496094 129.03125 716.496094 121.378906 C 716.496094 116.25 714.515625 110.761719 709.746094 107.070312 C 707.316406 105.269531 704.976562 104.191406 702.816406 103.199219 Z M 750.246094 130.648438 C 748.714844 131.101562 747.632812 131.460938 746.105469 131.460938 C 741.515625 131.460938 741.15625 128.578125 740.972656 127.230469 C 740.703125 124.890625 740.703125 119.941406 740.792969 116.339844 L 740.972656 103.648438 L 749.074219 104.011719 L 749.613281 103.46875 L 750.515625 93.839844 L 749.972656 93.300781 L 740.972656 93.300781 L 741.246094 78.179688 L 740.613281 77.640625 C 734.496094 79.441406 732.875 79.890625 726.484375 81.511719 L 726.125 82.140625 L 726.214844 93.390625 L 721.355469 93.210938 L 720.816406 93.660156 L 720.003906 103.289062 L 720.542969 103.828125 L 726.214844 103.648438 L 725.945312 117.960938 C 725.855469 120.210938 725.765625 122.460938 725.765625 124.800781 C 725.765625 133.078125 725.945312 141.988281 739.984375 141.988281 C 743.496094 141.988281 746.285156 141.449219 749.433594 140.910156 L 750.066406 140.28125 L 750.964844 131.011719 Z M 796.957031 114.179688 C 797.046875 106.078125 797.046875 102.570312 794.707031 98.789062 C 792.90625 95.910156 789.308594 92.308594 777.789062 92.308594 C 770.046875 92.308594 765.277344 93.75 760.148438 95.28125 L 759.609375 96 L 759.15625 105.808594 L 759.878906 106.171875 C 763.027344 104.910156 768.878906 102.570312 774.90625 102.570312 C 778.238281 102.570312 779.585938 103.109375 780.757812 104.28125 C 781.65625 105.179688 781.929688 106.800781 781.929688 108.148438 C 771.128906 109.589844 766.085938 110.578125 760.6875 113.910156 C 755.648438 117.058594 753.9375 122.191406 753.9375 126.238281 C 753.9375 135.871094 760.867188 142.078125 769.6875 142.078125 C 776.4375 142.078125 780.308594 138.839844 782.199219 137.308594 L 782.199219 140.640625 L 782.738281 141.269531 C 789.21875 141 791.199219 140.910156 797.046875 141 L 797.496094 140.371094 C 796.867188 131.550781 796.867188 129.300781 796.867188 120.839844 L 796.957031 114.179688 M 782.109375 128.488281 C 780.21875 129.570312 777.789062 130.828125 774.816406 130.828125 C 771.578125 130.828125 768.878906 129.121094 768.878906 125.339844 C 768.878906 119.398438 775.988281 118.410156 782.109375 117.601562 Z M 832.6875 130.648438 C 831.15625 131.101562 830.074219 131.460938 828.546875 131.460938 C 823.957031 131.460938 823.597656 128.578125 823.414062 127.230469 C 823.144531 124.890625 823.144531 119.941406 823.234375 116.339844 L 823.414062 103.648438 L 831.515625 104.011719 L 832.054688 103.46875 L 832.957031 93.839844 L 832.414062 93.300781 L 823.414062 93.300781 L 823.6875 78.179688 L 823.054688 77.640625 C 816.9375 79.441406 815.316406 79.890625 808.925781 81.511719 L 808.566406 82.140625 L 808.65625 93.390625 L 803.796875 93.210938 L 803.257812 93.660156 L 802.445312 103.289062 L 802.984375 103.828125 L 808.65625 103.648438 L 808.386719 117.960938 C 808.296875 120.210938 808.207031 122.460938 808.207031 124.800781 C 808.207031 133.078125 808.386719 141.988281 822.425781 141.988281 C 825.9375 141.988281 828.726562 141.449219 831.875 140.910156 L 832.507812 140.28125 L 833.40625 131.011719 Z M 879.304688 127.679688 C 875.886719 129.480469 871.835938 131.550781 865.265625 131.550781 C 859.867188 131.550781 856.175781 129.839844 854.015625 126.601562 C 852.664062 124.710938 852.394531 122.910156 852.035156 121.109375 L 881.105469 120.570312 L 881.644531 119.941406 C 881.554688 115.53125 881.464844 111.03125 880.207031 106.53125 C 877.054688 95.910156 870.125 93.75 867.066406 93.03125 C 864.816406 92.398438 862.746094 92.21875 860.675781 92.21875 C 846.546875 92.21875 837.183594 101.488281 837.183594 117.058594 C 837.183594 121.289062 837.90625 125.699219 839.34375 128.851562 C 844.566406 141 856.804688 142.078125 863.285156 142.078125 C 870.753906 142.078125 873.996094 140.730469 878.765625 138.839844 L 879.304688 138.121094 L 879.933594 127.949219 L 879.304688 127.679688 M 852.035156 111.570312 C 852.304688 108.78125 852.933594 105 856.355469 102.839844 C 857.433594 102.121094 858.695312 101.851562 859.957031 101.851562 C 862.925781 101.851562 864.726562 103.378906 865.714844 105 C 866.976562 106.980469 867.066406 109.140625 867.066406 111.210938 Z M 884.527344 141 "/>
<path fill-rule="nonzero" fill="rgb(34.901961%, 14.901961%, 14.901961%)" fill-opacity="1" d="M 385.519531 261 C 393.890625 261.179688 404.238281 261.359375 410.988281 256.679688 C 416.929688 252.449219 418.550781 246.511719 418.550781 241.46875 C 418.550781 235.710938 416.117188 230.398438 410.988281 227.878906 C 409.277344 226.980469 407.300781 226.621094 405.410156 226.261719 C 408.46875 225 412.070312 223.378906 414.410156 218.609375 C 415.398438 216.539062 415.847656 214.378906 415.847656 212.308594 C 415.847656 209.429688 415.128906 205.46875 412.25 202.230469 C 408.46875 198.179688 402.617188 197.101562 393.800781 197.101562 C 390.738281 197.101562 385.25 197.191406 382.1875 197.28125 L 369.589844 197.460938 L 369.050781 198 C 369.410156 206.640625 369.5 209.96875 369.5 222.390625 C 369.5 235.171875 369.410156 247.859375 369.230469 260.640625 L 369.859375 261 L 385.519531 261 M 384.890625 233.640625 C 391.730469 233.460938 395.6875 233.460938 398.300781 234.988281 C 400.910156 236.609375 401.898438 239.488281 401.898438 242.371094 C 401.898438 246.421875 399.648438 248.941406 396.320312 250.109375 C 393.617188 251.011719 388.757812 251.011719 384.890625 250.921875 L 384.890625 233.640625 M 384.890625 207.179688 C 386.777344 207.179688 389.300781 207.089844 390.828125 207.089844 C 395.6875 207.089844 400.097656 208.800781 400.097656 214.648438 C 400.097656 219.421875 396.589844 221.398438 395.507812 221.941406 C 393.257812 222.929688 388.488281 222.929688 384.890625 222.929688 Z M 466.878906 247.679688 C 463.460938 249.480469 459.410156 251.550781 452.839844 251.550781 C 447.441406 251.550781 443.75 249.839844 441.589844 246.601562 C 440.238281 244.710938 439.96875 242.910156 439.609375 241.109375 L 468.679688 240.570312 L 469.21875 239.941406 C 469.128906 235.53125 469.039062 231.03125 467.78125 226.53125 C 464.628906 215.910156 457.699219 213.75 454.640625 213.03125 C 452.390625 212.398438 450.320312 212.21875 448.25 212.21875 C 434.121094 212.21875 424.757812 221.488281 424.757812 237.058594 C 424.757812 241.289062 425.480469 245.699219 426.917969 248.851562 C 432.140625 261 444.378906 262.078125 450.859375 262.078125 C 458.328125 262.078125 461.570312 260.730469 466.339844 258.839844 L 466.878906 258.121094 L 467.507812 247.949219 L 466.878906 247.679688 M 439.609375 231.570312 C 439.878906 228.78125 440.507812 225 443.929688 222.839844 C 445.007812 222.121094 446.269531 221.851562 447.53125 221.851562 C 450.5 221.851562 452.300781 223.378906 453.289062 225 C 454.550781 226.980469 454.640625 229.140625 454.640625 231.210938 Z M 517.546875 234.179688 C 517.636719 226.078125 517.636719 222.570312 515.296875 218.789062 C 513.496094 215.910156 509.898438 212.308594 498.378906 212.308594 C 490.636719 212.308594 485.867188 213.75 480.738281 215.28125 L 480.199219 216 L 479.746094 225.808594 L 480.46875 226.171875 C 483.617188 224.910156 489.46875 222.570312 495.496094 222.570312 C 498.828125 222.570312 500.175781 223.109375 501.347656 224.28125 C 502.246094 225.179688 502.519531 226.800781 502.519531 228.148438 C 491.71875 229.589844 486.675781 230.578125 481.277344 233.910156 C 476.238281 237.058594 474.527344 242.191406 474.527344 246.238281 C 474.527344 255.871094 481.457031 262.078125 490.277344 262.078125 C 497.027344 262.078125 500.898438 258.839844 502.789062 257.308594 L 502.789062 260.640625 L 503.328125 261.269531 C 509.808594 261 511.789062 260.910156 517.636719 261 L 518.085938 260.371094 C 517.457031 251.550781 517.457031 249.300781 517.457031 240.839844 L 517.546875 234.179688 M 502.699219 248.488281 C 500.808594 249.570312 498.378906 250.828125 495.40625 250.828125 C 492.167969 250.828125 489.46875 249.121094 489.46875 245.339844 C 489.46875 239.398438 496.578125 238.410156 502.699219 237.601562 Z M 563.269531 248.039062 C 560.839844 249.480469 558.5 250.921875 553.910156 250.921875 C 543.738281 250.921875 541.667969 242.460938 541.667969 237.058594 C 541.667969 230.488281 544.550781 222.929688 553.28125 222.929688 C 557.238281 222.929688 559.398438 224.371094 562.101562 226.171875 L 563 225.898438 C 563.359375 221.128906 563.449219 219.871094 564.167969 215.101562 L 563.71875 214.558594 C 559.757812 213.300781 556.339844 212.21875 551.121094 212.21875 C 529.96875 212.21875 525.828125 228.238281 525.828125 237.421875 C 525.828125 247.769531 531.230469 261.808594 551.480469 261.808594 C 556.25 261.808594 559.308594 260.910156 563.089844 259.828125 L 563.628906 259.289062 L 563.988281 248.488281 Z M 615.289062 260.371094 C 614.929688 252.988281 614.839844 250.46875 614.660156 241.109375 L 614.660156 234.359375 C 614.570312 225.808594 614.480469 220.859375 611.867188 217.078125 C 609.257812 213.390625 605.480469 212.21875 601.519531 212.21875 C 594.949219 212.21875 589.820312 215.371094 586.21875 217.53125 L 586.488281 189.808594 L 585.949219 189.179688 L 570.558594 191.609375 L 570.109375 192.148438 C 570.917969 200.878906 571.097656 204.121094 571.277344 215.730469 C 571.460938 223.019531 571.550781 230.308594 571.550781 237.601562 C 571.550781 246.511719 571.367188 251.820312 571.1875 260.640625 L 571.640625 261.269531 C 578.300781 260.910156 579.648438 260.910156 586.9375 260.910156 L 587.480469 260.371094 C 586.847656 246.871094 586.757812 242.820312 586.667969 226.890625 C 588.378906 225.71875 590.539062 224.191406 593.597656 224.191406 C 598.550781 224.191406 598.910156 229.320312 599.269531 232.921875 C 599.449219 235.710938 599.539062 248.488281 599.539062 251.820312 C 599.539062 254.789062 599.449219 257.671875 599.449219 260.640625 L 599.898438 261.269531 C 606.378906 260.910156 607.820312 260.910156 614.75 260.910156 Z M 620.148438 261 "/>
</svg>
