<?xml version="1.0" encoding="UTF-8"?>
<svg xmlns="http://www.w3.org/2000/svg" xmlns:xlink="http://www.w3.org/1999/xlink" width="975" height="1300" viewBox="0 0 975 1300">
<path fill-rule="nonzero" fill="rgb(98.823529%, 78.823529%, 9.019608%)" fill-opacity="1" d="M 50 50 L 925 50 L 925 170 L 50 170 Z M 50 50 "/>
<path fill-rule="nonzero" fill="rgb(34.901961%, 14.901961%, 14.901961%)" fill-opacity="1" d="M 130.460938 141 C 138.832031 141.179688 149.179688 141.359375 155.929688 136.679688 C 161.871094 132.449219 163.492188 126.511719 163.492188 121.46875 C 163.492188 115.710938 161.058594 110.398438 155.929688 107.878906 C 154.21875 106.980469 152.242188 106.621094 150.351562 106.261719 C 153.410156 105 157.011719 103.378906 159.351562 98.609375 C 160.339844 96.539062 160.789062 94.378906 160.789062 92.308594 C 160.789062 89.429688 160.070312 85.46875 157.191406 82.230469 C 153.410156 78.179688 147.558594 77.101562 138.742188 77.101562 C 135.679688 77.101562 130.191406 77.191406 127.128906 77.28125 L 114.53125 77.460938 L 113.992188 78 C 114.351562 86.640625 114.441406 89.96875 114.441406 102.390625 C 114.441406 115.171875 114.351562 127.859375 114.171875 140.640625 L 114.800781 141 L 130.460938 141 M 129.832031 113.640625 C 136.671875 113.460938 140.628906 113.460938 143.242188 114.988281 C 145.851562 116.609375 146.839844 119.488281 146.839844 122.371094 C 146.839844 126.421875 144.589844 128.941406 141.261719 130.109375 C 138.558594 131.011719 133.699219 131.011719 129.832031 130.921875 L 129.832031 113.640625 M 129.832031 87.179688 C 131.71875 87.179688 134.242188 87.089844 135.769531 87.089844 C 140.628906 87.089844 145.039062 88.800781 145.039062 94.648438 C 145.039062 99.421875 141.53125 101.398438 140.449219 101.941406 C 138.199219 102.929688 133.429688 102.929688 129.832031 102.929688 Z M 215.0625 92.851562 L 200.390625 93.570312 L 199.761719 94.109375 C 200.390625 104.28125 200.390625 118.679688 200.390625 120.121094 C 200.390625 122.730469 200.390625 124.171875 200.300781 127.769531 C 197.871094 129.390625 195.980469 130.738281 193.550781 130.738281 C 187.070312 130.738281 187.070312 123.898438 187.070312 118.589844 C 187.070312 116.339844 187.070312 114 187.160156 111.75 L 187.339844 93.570312 L 186.710938 92.851562 L 171.859375 93.570312 L 171.230469 94.109375 C 171.769531 101.671875 171.859375 104.191406 171.859375 113.28125 L 171.859375 119.578125 C 171.769531 129.390625 172.222656 133.53125 175.460938 137.308594 C 178.429688 140.640625 182.75 142.078125 187.25 142.078125 C 193.640625 142.078125 197.332031 139.199219 200.570312 136.679688 L 200.480469 140.730469 L 201.109375 141.269531 C 207.679688 141 209.660156 141 215.511719 141 L 216.050781 140.460938 C 215.601562 134.070312 215.421875 130.648438 215.421875 118.949219 C 215.421875 110.488281 215.511719 102.03125 215.691406 93.570312 Z M 251.421875 130.648438 C 249.890625 131.101562 248.808594 131.460938 247.28125 131.460938 C 242.691406 131.460938 242.332031 128.578125 242.148438 127.230469 C 241.878906 124.890625 241.878906 119.941406 241.96875 116.339844 L 242.148438 103.648438 L 250.25 104.011719 L 250.789062 103.46875 L 251.691406 93.839844 L 251.148438 93.300781 L 242.148438 93.300781 L 242.421875 78.179688 L 241.789062 77.640625 C 235.671875 79.441406 234.050781 79.890625 227.660156 81.511719 L 227.300781 82.140625 L 227.390625 93.390625 L 222.53125 93.210938 L 221.992188 93.660156 L 221.179688 103.289062 L 221.71875 103.828125 L 227.390625 103.648438 L 227.121094 117.960938 C 227.03125 120.210938 226.941406 122.460938 226.941406 124.800781 C 226.941406 133.078125 227.121094 141.988281 241.160156 141.988281 C 244.671875 141.988281 247.460938 141.449219 250.609375 140.910156 L 251.242188 140.28125 L 252.140625 131.011719 Z M 298.128906 114.179688 C 298.21875 106.078125 298.21875 102.570312 295.878906 98.789062 C 294.078125 95.910156 290.480469 92.308594 278.960938 92.308594 C 271.21875 92.308594 266.449219 93.75 261.320312 95.28125 L 260.78125 96 L 260.328125 105.808594 L 261.050781 106.171875 C 264.199219 104.910156 270.050781 102.570312 276.078125 102.570312 C 279.410156 102.570312 280.757812 103.109375 281.929688 104.28125 C 282.828125 105.179688 283.101562 106.800781 283.101562 108.148438 C 272.300781 109.589844 267.257812 110.578125 261.859375 113.910156 C 256.820312 117.058594 255.109375 122.191406 255.109375 126.238281 C 255.109375 135.871094 262.039062 142.078125 270.859375 142.078125 C 277.609375 142.078125 281.480469 138.839844 283.371094 137.308594 L 283.371094 140.640625 L 283.910156 141.269531 C 290.390625 141 292.371094 140.910156 298.21875 141 L 298.667969 140.371094 C 298.039062 131.550781 298.039062 129.300781 298.039062 120.839844 L 298.128906 114.179688 M 283.28125 128.488281 C 281.390625 129.570312 278.960938 130.828125 275.988281 130.828125 C 272.75 130.828125 270.050781 129.121094 270.050781 125.339844 C 270.050781 119.398438 277.160156 118.410156 283.28125 117.601562 Z M 352.761719 140.371094 C 352.3125 132.449219 352.3125 129.929688 352.132812 121.109375 L 352.132812 114.089844 C 352.042969 105.449219 351.953125 101.308594 349.703125 97.621094 C 346.910156 92.941406 341.78125 92.21875 338.542969 92.21875 C 333.050781 92.21875 328.28125 95.101562 324.140625 97.53125 L 324.320312 92.578125 L 323.421875 91.949219 C 316.492188 93.390625 314.960938 93.660156 308.210938 94.558594 L 307.671875 95.191406 C 308.390625 103.019531 308.933594 108.691406 308.933594 123.359375 C 308.933594 129.121094 308.839844 134.878906 308.75 140.640625 L 309.292969 141.179688 C 315.773438 140.910156 317.121094 140.910156 324.320312 140.910156 L 324.863281 140.371094 C 324.320312 126.511719 324.230469 123 324.140625 106.890625 C 326.03125 105.628906 328.191406 104.101562 331.070312 104.101562 C 336.023438 104.101562 336.472656 109.410156 336.742188 112.648438 C 336.921875 115.621094 337.011719 127.949219 337.011719 131.371094 C 337.011719 134.429688 336.921875 137.578125 336.921875 140.640625 L 337.460938 141.179688 C 343.402344 141 344.933594 140.910156 352.132812 140.910156 Z M 408.832031 117.058594 C 408.832031 113.550781 408.832031 98.96875 396.230469 94.019531 C 392.269531 92.488281 387.589844 92.308594 385.25 92.308594 C 369.589844 92.308594 360.769531 100.679688 360.769531 117.238281 C 360.769531 123 361.671875 128.851562 365 133.710938 C 367.339844 137.21875 371.75 142.078125 384.621094 142.078125 C 403.699219 142.078125 408.832031 130.558594 408.832031 117.058594 M 393.261719 116.96875 C 393.261719 124.351562 392.269531 132.539062 384.800781 132.539062 C 382.460938 132.539062 380.839844 131.460938 379.761719 130.46875 C 378.230469 128.941406 376.519531 125.878906 376.519531 117.148438 C 376.519531 114.539062 376.519531 108.78125 378.320312 105.628906 C 379.671875 103.199219 382.011719 101.578125 384.890625 101.578125 C 387.410156 101.578125 389.480469 102.929688 390.652344 104.371094 C 392.8125 106.980469 393.261719 112.109375 393.261719 116.96875 Z M 469.671875 102.300781 C 462.113281 99.148438 458.152344 97.53125 458.152344 93.480469 C 458.152344 90.691406 460.761719 87.179688 466.703125 87.179688 C 473.542969 87.179688 477.589844 89.96875 480.921875 92.21875 L 481.730469 91.859375 L 482.453125 80.070312 L 482 79.441406 C 478.132812 77.820312 474.082031 76.109375 465.351562 76.109375 C 448.433594 76.109375 442.582031 85.648438 442.582031 95.28125 C 442.582031 106.171875 451.042969 110.128906 456.082031 112.558594 L 459.050781 113.910156 C 465.261719 116.519531 470.03125 118.769531 470.03125 123.539062 C 470.03125 126.960938 467.0625 131.011719 459.230469 131.011719 C 451.042969 131.011719 446.453125 127.410156 443.839844 125.339844 L 442.941406 125.609375 L 442.3125 138.300781 L 442.851562 139.019531 C 443.839844 139.378906 444.832031 139.828125 445.820312 140.101562 C 447.890625 140.820312 453.203125 142.351562 459.953125 142.351562 C 462.652344 142.351562 469.492188 142.078125 474.890625 139.558594 C 482.453125 135.871094 485.691406 129.03125 485.691406 121.378906 C 485.691406 116.25 483.710938 110.761719 478.941406 107.070312 C 476.511719 105.269531 474.171875 104.191406 472.011719 103.199219 Z M 519.441406 130.648438 C 517.910156 131.101562 516.828125 131.460938 515.300781 131.460938 C 510.710938 131.460938 510.351562 128.578125 510.167969 127.230469 C 509.898438 124.890625 509.898438 119.941406 509.988281 116.339844 L 510.167969 103.648438 L 518.269531 104.011719 L 518.808594 103.46875 L 519.710938 93.839844 L 519.167969 93.300781 L 510.167969 93.300781 L 510.441406 78.179688 L 509.808594 77.640625 C 503.691406 79.441406 502.070312 79.890625 495.679688 81.511719 L 495.320312 82.140625 L 495.410156 93.390625 L 490.550781 93.210938 L 490.011719 93.660156 L 489.199219 103.289062 L 489.738281 103.828125 L 495.410156 103.648438 L 495.140625 117.960938 C 495.050781 120.210938 494.960938 122.460938 494.960938 124.800781 C 494.960938 133.078125 495.140625 141.988281 509.179688 141.988281 C 512.691406 141.988281 515.480469 141.449219 518.628906 140.910156 L 519.261719 140.28125 L 520.160156 131.011719 Z M 566.148438 114.179688 C 566.238281 106.078125 566.238281 102.570312 563.898438 98.789062 C 562.097656 95.910156 558.5 92.308594 546.980469 92.308594 C 539.238281 92.308594 534.46875 93.75 529.339844 95.28125 L 528.800781 96 L 528.347656 105.808594 L 529.070312 106.171875 C 532.21875 104.910156 538.070312 102.570312 544.097656 102.570312 C 547.429688 102.570312 548.777344 103.109375 549.949219 104.28125 C 550.847656 105.179688 551.121094 106.800781 551.121094 108.148438 C 540.320312 109.589844 535.277344 110.578125 529.878906 113.910156 C 524.839844 117.058594 523.128906 122.191406 523.128906 126.238281 C 523.128906 135.871094 530.058594 142.078125 538.878906 142.078125 C 545.628906 142.078125 549.5 138.839844 551.390625 137.308594 L 551.390625 140.640625 L 551.929688 141.269531 C 558.410156 141 560.390625 140.910156 566.238281 141 L 566.6875 140.371094 C 566.058594 131.550781 566.058594 129.300781 566.058594 120.839844 L 566.148438 114.179688 M 551.300781 128.488281 C 549.410156 129.570312 546.980469 130.828125 544.007812 130.828125 C 540.769531 130.828125 538.070312 129.121094 538.070312 125.339844 C 538.070312 119.398438 545.179688 118.410156 551.300781 117.601562 Z M 601.882812 130.648438 C 600.351562 131.101562 599.269531 131.460938 597.742188 131.460938 C 593.152344 131.460938 592.792969 128.578125 592.609375 127.230469 C 592.339844 124.890625 592.339844 119.941406 592.429688 116.339844 L 592.609375 103.648438 L 600.710938 104.011719 L 601.25 103.46875 L 602.152344 93.839844 L 601.609375 93.300781 L 592.609375 93.300781 L 592.882812 78.179688 L 592.25 77.640625 C 586.132812 79.441406 584.511719 79.890625 578.121094 81.511719 L 577.761719 82.140625 L 577.851562 93.390625 L 572.992188 93.210938 L 572.453125 93.660156 L 571.640625 103.289062 L 572.179688 103.828125 L 577.851562 103.648438 L 577.582031 117.960938 C 577.492188 120.210938 577.402344 122.460938 577.402344 124.800781 C 577.402344 133.078125 577.582031 141.988281 591.621094 141.988281 C 595.132812 141.988281 597.921875 141.449219 601.070312 140.910156 L 601.703125 140.28125 L 602.601562 131.011719 Z M 648.5 127.679688 C 645.082031 129.480469 641.03125 131.550781 634.460938 131.550781 C 629.0625 131.550781 625.371094 129.839844 623.210938 126.601562 C 621.859375 124.710938 621.589844 122.910156 621.230469 121.109375 L 650.300781 120.570312 L 650.839844 119.941406 C 650.75 115.53125 650.660156 111.03125 649.402344 106.53125 C 646.25 95.910156 639.320312 93.75 636.261719 93.03125 C 634.011719 92.398438 631.941406 92.21875 629.871094 92.21875 C 615.742188 92.21875 606.378906 101.488281 606.378906 117.058594 C 606.378906 121.289062 607.101562 125.699219 608.539062 128.851562 C 613.761719 141 626 142.078125 632.480469 142.078125 C 639.949219 142.078125 643.191406 140.730469 647.960938 138.839844 L 648.5 138.121094 L 649.128906 127.949219 L 648.5 127.679688 M 621.230469 111.570312 C 621.5 108.78125 622.128906 105 625.550781 102.839844 C 626.628906 102.121094 627.890625 101.851562 629.152344 101.851562 C 632.121094 101.851562 633.921875 103.378906 634.910156 105 C 636.171875 106.980469 636.261719 109.140625 636.261719 111.210938 Z M 697.460938 77.28125 L 686.03125 77.460938 L 685.488281 78 C 685.851562 89.699219 686.121094 97.53125 686.121094 107.878906 C 686.121094 118.859375 685.851562 129.75 685.578125 140.730469 L 686.121094 141.269531 C 692.78125 141 694.21875 140.910156 701.421875 141 L 701.871094 140.460938 C 701.511719 130.648438 701.511719 128.398438 701.511719 119.21875 C 711.589844 119.308594 722.390625 119.308594 728.871094 111.390625 C 731.390625 108.328125 733.550781 103.199219 733.550781 96.898438 C 733.550781 93.03125 732.648438 84.480469 725.179688 80.25 C 719.78125 77.101562 712.128906 77.101562 705.378906 77.101562 L 697.460938 77.28125 M 701.511719 88.171875 C 703.488281 88.078125 705.378906 88.078125 707.359375 88.078125 C 715.28125 88.261719 717.441406 92.308594 717.441406 97.53125 C 717.441406 98.789062 717.441406 104.011719 712.671875 106.621094 C 710.238281 107.96875 706.910156 108.148438 701.511719 108.148438 Z M 779.808594 114.179688 C 779.898438 106.078125 779.898438 102.570312 777.558594 98.789062 C 775.757812 95.910156 772.160156 92.308594 760.640625 92.308594 C 752.898438 92.308594 748.128906 93.75 743 95.28125 L 742.460938 96 L 742.007812 105.808594 L 742.730469 106.171875 C 745.878906 104.910156 751.730469 102.570312 757.757812 102.570312 C 761.089844 102.570312 762.4375 103.109375 763.609375 104.28125 C 764.507812 105.179688 764.78125 106.800781 764.78125 108.148438 C 753.980469 109.589844 748.9375 110.578125 743.539062 113.910156 C 738.5 117.058594 736.789062 122.191406 736.789062 126.238281 C 736.789062 135.871094 743.71875 142.078125 752.539062 142.078125 C 759.289062 142.078125 763.160156 138.839844 765.050781 137.308594 L 765.050781 140.640625 L 765.589844 141.269531 C 772.070312 141 774.050781 140.910156 779.898438 141 L 780.347656 140.371094 C 779.71875 131.550781 779.71875 129.300781 779.71875 120.839844 L 779.808594 114.179688 M 764.960938 128.488281 C 763.070312 129.570312 760.640625 130.828125 757.667969 130.828125 C 754.429688 130.828125 751.730469 129.121094 751.730469 125.339844 C 751.730469 119.398438 758.839844 118.410156 764.960938 117.601562 Z M 816.351562 107.609375 L 818.871094 92.941406 L 818.332031 92.308594 C 817.703125 92.308594 817.070312 92.21875 816.441406 92.21875 C 812.75 92.21875 808.613281 94.289062 805.730469 100.949219 L 806 92.671875 L 805.28125 91.949219 C 798.621094 93.390625 796.910156 93.660156 790.339844 94.648438 L 789.800781 95.191406 C 790.339844 101.941406 790.613281 105.988281 790.613281 118.5 C 790.613281 125.878906 790.519531 133.261719 790.339844 140.730469 L 790.882812 141.269531 C 797.542969 141 798.980469 140.910156 806.179688 141 L 806.632812 140.371094 C 806.269531 133.078125 805.730469 122.910156 805.730469 116.699219 C 805.730469 112.648438 805.730469 106.710938 811.851562 106.710938 C 813.382812 106.710938 814.28125 107.25 815.542969 107.96875 Z M 870.351562 139.828125 C 861.890625 125.519531 860.992188 123.898438 854.152344 111.570312 C 860.363281 103.109375 860.992188 102.210938 867.382812 94.019531 L 866.929688 93.121094 L 852.261719 93.300781 L 851.363281 93.929688 C 844.339844 106.078125 843.441406 107.519531 839.300781 113.730469 L 839.300781 103.738281 C 839.390625 86.910156 839.480469 83.308594 839.929688 69.71875 L 839.210938 69.179688 L 823.550781 71.519531 L 823.011719 72.148438 C 823.640625 80.878906 823.910156 85.109375 824.089844 96.898438 C 824.269531 111.480469 824.269531 126.058594 824.179688 140.640625 L 824.8125 141.269531 C 830.839844 141 832.550781 141 839.390625 141 L 839.929688 140.371094 L 839.390625 125.160156 L 839.300781 114.808594 C 847.132812 129.210938 848.121094 131.191406 852.710938 140.730469 L 853.519531 141.269531 L 869.722656 140.640625 Z M 869.269531 141 "/>
</svg>
