<?xml version="1.0" encoding="UTF-8"?>
<svg xmlns="http://www.w3.org/2000/svg" xmlns:xlink="http://www.w3.org/1999/xlink" width="975" height="1300" viewBox="0 0 975 1300">
<path fill-rule="nonzero" fill="rgb(98.823529%, 78.823529%, 9.019608%)" fill-opacity="1" d="M 50 50 L 925 50 L 925 290 L 50 290 Z M 50 50 "/>
<path fill-rule="nonzero" fill="rgb(34.901961%, 14.901961%, 14.901961%)" fill-opacity="1" d="M 177.394531 124.890625 C 175.324219 126.511719 170.734375 129.929688 163.265625 129.929688 C 153.003906 129.929688 145.804688 122.28125 145.804688 109.5 C 145.804688 101.761719 148.503906 88.171875 163.175781 88.171875 C 169.925781 88.171875 173.613281 90.78125 175.863281 92.488281 L 176.675781 92.308594 L 177.484375 79.890625 L 177.125 79.441406 C 173.886719 78.179688 168.394531 76.109375 160.476562 76.109375 C 137.164062 76.109375 129.066406 94.109375 129.066406 109.859375 C 129.066406 127.140625 139.59375 142.351562 161.554688 142.351562 C 169.113281 142.351562 174.066406 140.371094 176.945312 139.199219 L 177.394531 138.660156 L 178.023438 125.25 Z M 225.09375 114.179688 C 225.183594 106.078125 225.183594 102.570312 222.84375 98.789062 C 221.042969 95.910156 217.445312 92.308594 205.925781 92.308594 C 198.183594 92.308594 193.414062 93.75 188.285156 95.28125 L 187.746094 96 L 187.292969 105.808594 L 188.015625 106.171875 C 191.164062 104.910156 197.015625 102.570312 203.042969 102.570312 C 206.375 102.570312 207.722656 103.109375 208.894531 104.28125 C 209.792969 105.179688 210.066406 106.800781 210.066406 108.148438 C 199.265625 109.589844 194.222656 110.578125 188.824219 113.910156 C 183.785156 117.058594 182.074219 122.191406 182.074219 126.238281 C 182.074219 135.871094 189.003906 142.078125 197.824219 142.078125 C 204.574219 142.078125 208.445312 138.839844 210.335938 137.308594 L 210.335938 140.640625 L 210.875 141.269531 C 217.355469 141 219.335938 140.910156 225.183594 141 L 225.632812 140.371094 C 225.003906 131.550781 225.003906 129.300781 225.003906 120.839844 L 225.09375 114.179688 M 210.246094 128.488281 C 208.355469 129.570312 205.925781 130.828125 202.953125 130.828125 C 199.714844 130.828125 197.015625 129.121094 197.015625 125.339844 C 197.015625 119.398438 204.125 118.410156 210.246094 117.601562 Z M 254.527344 109.949219 C 251.464844 108.871094 249.035156 107.878906 249.035156 105.359375 C 249.035156 104.28125 249.757812 101.308594 255.335938 101.308594 C 260.828125 101.308594 264.335938 103.648438 266.585938 105.089844 L 267.398438 104.820312 L 268.296875 95.011719 L 267.847656 94.46875 C 263.617188 93.300781 259.925781 92.21875 254.078125 92.21875 C 249.667969 92.21875 240.847656 92.578125 236.167969 99.328125 C 234.996094 100.949219 233.738281 103.648438 233.738281 107.25 C 233.738281 116.878906 241.207031 119.761719 245.4375 121.378906 L 248.855469 122.640625 C 251.285156 123.449219 255.246094 124.800781 255.246094 128.039062 C 255.246094 130.289062 253.175781 132.71875 248.136719 132.71875 C 245.617188 132.71875 241.925781 131.910156 238.597656 130.199219 C 237.066406 129.390625 236.347656 128.761719 234.996094 127.679688 L 234.1875 128.039062 C 234.007812 132.71875 233.917969 133.710938 233.554688 138.210938 L 234.007812 139.019531 C 238.417969 140.640625 242.195312 142.078125 248.765625 142.078125 C 255.605469 142.078125 269.105469 140.820312 270.726562 127.949219 C 270.816406 127.230469 270.816406 126.601562 270.816406 125.96875 C 270.816406 116.070312 263.886719 113.460938 258.9375 111.570312 Z M 303.9375 130.648438 C 302.40625 131.101562 301.324219 131.460938 299.796875 131.460938 C 295.207031 131.460938 294.847656 128.578125 294.664062 127.230469 C 294.394531 124.890625 294.394531 119.941406 294.484375 116.339844 L 294.664062 103.648438 L 302.765625 104.011719 L 303.304688 103.46875 L 304.207031 93.839844 L 303.664062 93.300781 L 294.664062 93.300781 L 294.9375 78.179688 L 294.304688 77.640625 C 288.1875 79.441406 286.566406 79.890625 280.175781 81.511719 L 279.816406 82.140625 L 279.90625 93.390625 L 275.046875 93.210938 L 274.507812 93.660156 L 273.695312 103.289062 L 274.234375 103.828125 L 279.90625 103.648438 L 279.636719 117.960938 C 279.546875 120.210938 279.457031 122.460938 279.457031 124.800781 C 279.457031 133.078125 279.636719 141.988281 293.675781 141.988281 C 297.1875 141.988281 299.976562 141.449219 303.125 140.910156 L 303.757812 140.28125 L 304.65625 131.011719 Z M 326.433594 140.371094 C 325.984375 130.019531 325.535156 120.570312 325.535156 92.128906 C 325.535156 83.578125 325.625 79.53125 325.984375 69.808594 L 325.355469 69.179688 L 309.964844 71.609375 L 309.605469 72.148438 C 310.503906 83.128906 310.59375 86.101562 310.773438 100.679688 C 310.867188 105.988281 310.867188 111.300781 310.867188 116.609375 C 310.867188 126.328125 310.683594 131.730469 310.324219 140.640625 L 310.867188 141.269531 C 316.894531 141 319.324219 140.910156 325.894531 141 Z M 376.835938 127.679688 C 373.417969 129.480469 369.367188 131.550781 362.796875 131.550781 C 357.398438 131.550781 353.707031 129.839844 351.546875 126.601562 C 350.195312 124.710938 349.925781 122.910156 349.566406 121.109375 L 378.636719 120.570312 L 379.175781 119.941406 C 379.085938 115.53125 378.996094 111.03125 377.738281 106.53125 C 374.585938 95.910156 367.65625 93.75 364.597656 93.03125 C 362.347656 92.398438 360.277344 92.21875 358.207031 92.21875 C 344.078125 92.21875 334.714844 101.488281 334.714844 117.058594 C 334.714844 121.289062 335.4375 125.699219 336.875 128.851562 C 342.097656 141 354.335938 142.078125 360.816406 142.078125 C 368.285156 142.078125 371.527344 140.730469 376.296875 138.839844 L 376.835938 138.121094 L 377.464844 127.949219 L 376.835938 127.679688 M 349.566406 111.570312 C 349.835938 108.78125 350.464844 105 353.886719 102.839844 C 354.964844 102.121094 356.226562 101.851562 357.488281 101.851562 C 360.457031 101.851562 362.257812 103.378906 363.246094 105 C 364.507812 106.980469 364.597656 109.140625 364.597656 111.210938 Z M 434.074219 116.25 C 440.105469 126.511719 441.457031 129.210938 447.214844 141 L 447.9375 141.449219 C 450.726562 141.269531 453.425781 141.089844 456.214844 141 C 459.007812 140.910156 461.886719 140.820312 464.675781 140.820312 L 465.214844 139.738281 C 461.796875 135.328125 460.804688 133.980469 454.324219 123.628906 C 451.445312 119.039062 450.007812 116.609375 447.757812 112.648438 C 451.804688 110.851562 459.996094 107.070312 459.996094 95.640625 C 459.996094 91.679688 458.914062 83.488281 451.535156 79.621094 C 446.855469 77.191406 441.996094 77.101562 431.464844 77.28125 L 425.164062 77.371094 L 414.1875 77.371094 L 413.734375 77.910156 C 414.097656 87 414.457031 96.359375 414.457031 120.839844 C 414.457031 129.210938 414.367188 133.261719 414.097656 140.730469 L 414.636719 141.269531 C 421.207031 141 422.644531 140.910156 430.027344 141 L 430.566406 140.460938 C 429.847656 130.019531 429.757812 127.140625 429.664062 116.429688 L 434.074219 116.25 M 429.847656 88.261719 C 431.105469 88.171875 432.367188 88.171875 433.625 88.171875 C 437.136719 88.171875 444.066406 88.171875 444.066406 96.089844 C 444.066406 98.609375 443.4375 101.941406 440.105469 104.011719 C 437.585938 105.539062 434.347656 105.71875 429.847656 105.808594 Z M 515.796875 117.058594 C 515.796875 113.550781 515.796875 98.96875 503.195312 94.019531 C 499.234375 92.488281 494.554688 92.308594 492.214844 92.308594 C 476.554688 92.308594 467.734375 100.679688 467.734375 117.238281 C 467.734375 123 468.636719 128.851562 471.964844 133.710938 C 474.304688 137.21875 478.714844 142.078125 491.585938 142.078125 C 510.664062 142.078125 515.796875 130.558594 515.796875 117.058594 M 500.226562 116.96875 C 500.226562 124.351562 499.234375 132.539062 491.765625 132.539062 C 489.425781 132.539062 487.804688 131.460938 486.726562 130.46875 C 485.195312 128.941406 483.484375 125.878906 483.484375 117.148438 C 483.484375 114.539062 483.484375 108.78125 485.285156 105.628906 C 486.636719 103.199219 488.976562 101.578125 491.855469 101.578125 C 494.375 101.578125 496.445312 102.929688 497.617188 104.371094 C 499.777344 106.980469 500.226562 112.109375 500.226562 116.96875 Z M 559.535156 128.039062 C 557.105469 129.480469 554.765625 130.921875 550.175781 130.921875 C 540.003906 130.921875 537.933594 122.460938 537.933594 117.058594 C 537.933594 110.488281 540.816406 102.929688 549.546875 102.929688 C 553.503906 102.929688 555.664062 104.371094 558.367188 106.171875 L 559.265625 105.898438 C 559.625 101.128906 559.714844 99.871094 560.433594 95.101562 L 559.984375 94.558594 C 556.023438 93.300781 552.605469 92.21875 547.386719 92.21875 C 526.234375 92.21875 522.09375 108.238281 522.09375 117.421875 C 522.09375 127.769531 527.496094 141.808594 547.746094 141.808594 C 552.515625 141.808594 555.574219 140.910156 559.355469 139.828125 L 559.894531 139.289062 L 560.253906 128.488281 Z M 613.714844 139.828125 C 605.253906 125.519531 604.355469 123.898438 597.515625 111.570312 C 603.726562 103.109375 604.355469 102.210938 610.746094 94.019531 L 610.292969 93.121094 L 595.625 93.300781 L 594.726562 93.929688 C 587.703125 106.078125 586.804688 107.519531 582.664062 113.730469 L 582.664062 103.738281 C 582.753906 86.910156 582.84375 83.308594 583.292969 69.71875 L 582.574219 69.179688 L 566.914062 71.519531 L 566.375 72.148438 C 567.003906 80.878906 567.273438 85.109375 567.453125 96.898438 C 567.632812 111.480469 567.632812 126.058594 567.542969 140.640625 L 568.175781 141.269531 C 574.203125 141 575.914062 141 582.753906 141 L 583.292969 140.371094 L 582.753906 125.160156 L 582.664062 114.808594 C 590.496094 129.210938 591.484375 131.191406 596.074219 140.730469 L 596.882812 141.269531 L 613.085938 140.640625 Z M 670.324219 102.300781 C 662.765625 99.148438 658.804688 97.53125 658.804688 93.480469 C 658.804688 90.691406 661.414062 87.179688 667.355469 87.179688 C 674.195312 87.179688 678.242188 89.96875 681.574219 92.21875 L 682.382812 91.859375 L 683.105469 80.070312 L 682.652344 79.441406 C 678.785156 77.820312 674.734375 76.109375 666.003906 76.109375 C 649.085938 76.109375 643.234375 85.648438 643.234375 95.28125 C 643.234375 106.171875 651.695312 110.128906 656.734375 112.558594 L 659.703125 113.910156 C 665.914062 116.519531 670.683594 118.769531 670.683594 123.539062 C 670.683594 126.960938 667.714844 131.011719 659.882812 131.011719 C 651.695312 131.011719 647.105469 127.410156 644.492188 125.339844 L 643.59375 125.609375 L 642.964844 138.300781 L 643.503906 139.019531 C 644.492188 139.378906 645.484375 139.828125 646.472656 140.101562 C 648.542969 140.820312 653.855469 142.351562 660.605469 142.351562 C 663.304688 142.351562 670.144531 142.078125 675.542969 139.558594 C 683.105469 135.871094 686.34375 129.03125 686.34375 121.378906 C 686.34375 116.25 684.363281 110.761719 679.59375 107.070312 C 677.164062 105.269531 674.824219 104.191406 672.664062 103.199219 Z M 720.097656 130.648438 C 718.566406 131.101562 717.484375 131.460938 715.957031 131.460938 C 711.367188 131.460938 711.007812 128.578125 710.824219 127.230469 C 710.554688 124.890625 710.554688 119.941406 710.644531 116.339844 L 710.824219 103.648438 L 718.925781 104.011719 L 719.464844 103.46875 L 720.367188 93.839844 L 719.824219 93.300781 L 710.824219 93.300781 L 711.097656 78.179688 L 710.464844 77.640625 C 704.347656 79.441406 702.726562 79.890625 696.335938 81.511719 L 695.976562 82.140625 L 696.066406 93.390625 L 691.207031 93.210938 L 690.667969 93.660156 L 689.855469 103.289062 L 690.394531 103.828125 L 696.066406 103.648438 L 695.796875 117.960938 C 695.707031 120.210938 695.617188 122.460938 695.617188 124.800781 C 695.617188 133.078125 695.796875 141.988281 709.835938 141.988281 C 713.347656 141.988281 716.136719 141.449219 719.285156 140.910156 L 719.917969 140.28125 L 720.816406 131.011719 Z M 766.804688 114.179688 C 766.894531 106.078125 766.894531 102.570312 764.554688 98.789062 C 762.753906 95.910156 759.15625 92.308594 747.636719 92.308594 C 739.894531 92.308594 735.125 93.75 729.996094 95.28125 L 729.457031 96 L 729.003906 105.808594 L 729.726562 106.171875 C 732.875 104.910156 738.726562 102.570312 744.753906 102.570312 C 748.085938 102.570312 749.433594 103.109375 750.605469 104.28125 C 751.503906 105.179688 751.777344 106.800781 751.777344 108.148438 C 740.976562 109.589844 735.933594 110.578125 730.535156 113.910156 C 725.496094 117.058594 723.785156 122.191406 723.785156 126.238281 C 723.785156 135.871094 730.714844 142.078125 739.535156 142.078125 C 746.285156 142.078125 750.15625 138.839844 752.046875 137.308594 L 752.046875 140.640625 L 752.585938 141.269531 C 759.066406 141 761.046875 140.910156 766.894531 141 L 767.34375 140.371094 C 766.714844 131.550781 766.714844 129.300781 766.714844 120.839844 L 766.804688 114.179688 M 751.957031 128.488281 C 750.066406 129.570312 747.636719 130.828125 744.664062 130.828125 C 741.425781 130.828125 738.726562 129.121094 738.726562 125.339844 C 738.726562 119.398438 745.835938 118.410156 751.957031 117.601562 Z M 802.535156 130.648438 C 801.003906 131.101562 799.921875 131.460938 798.394531 131.460938 C 793.804688 131.460938 793.445312 128.578125 793.261719 127.230469 C 792.992188 124.890625 792.992188 119.941406 793.082031 116.339844 L 793.261719 103.648438 L 801.363281 104.011719 L 801.902344 103.46875 L 802.804688 93.839844 L 802.261719 93.300781 L 793.261719 93.300781 L 793.535156 78.179688 L 792.902344 77.640625 C 786.785156 79.441406 785.164062 79.890625 778.773438 81.511719 L 778.414062 82.140625 L 778.503906 93.390625 L 773.644531 93.210938 L 773.105469 93.660156 L 772.292969 103.289062 L 772.832031 103.828125 L 778.503906 103.648438 L 778.234375 117.960938 C 778.144531 120.210938 778.054688 122.460938 778.054688 124.800781 C 778.054688 133.078125 778.234375 141.988281 792.273438 141.988281 C 795.785156 141.988281 798.574219 141.449219 801.722656 140.910156 L 802.355469 140.28125 L 803.253906 131.011719 Z M 849.15625 127.679688 C 845.738281 129.480469 841.6875 131.550781 835.117188 131.550781 C 829.71875 131.550781 826.027344 129.839844 823.867188 126.601562 C 822.515625 124.710938 822.246094 122.910156 821.886719 121.109375 L 850.957031 120.570312 L 851.496094 119.941406 C 851.40625 115.53125 851.316406 111.03125 850.058594 106.53125 C 846.90625 95.910156 839.976562 93.75 836.917969 93.03125 C 834.667969 92.398438 832.597656 92.21875 830.527344 92.21875 C 816.398438 92.21875 807.035156 101.488281 807.035156 117.058594 C 807.035156 121.289062 807.757812 125.699219 809.195312 128.851562 C 814.417969 141 826.65625 142.078125 833.136719 142.078125 C 840.605469 142.078125 843.847656 140.730469 848.617188 138.839844 L 849.15625 138.121094 L 849.785156 127.949219 L 849.15625 127.679688 M 821.886719 111.570312 C 822.15625 108.78125 822.785156 105 826.207031 102.839844 C 827.285156 102.121094 828.546875 101.851562 829.808594 101.851562 C 832.777344 101.851562 834.578125 103.378906 835.566406 105 C 836.828125 106.980469 836.917969 109.140625 836.917969 111.210938 Z M 854.375 141 "/>
<path fill-rule="nonzero" fill="rgb(34.901961%, 14.901961%, 14.901961%)" fill-opacity="1" d="M 411.53125 197.28125 L 400.101562 197.460938 L 399.558594 198 C 399.921875 209.699219 400.191406 217.53125 400.191406 227.878906 C 400.191406 238.859375 399.921875 249.75 399.648438 260.730469 L 400.191406 261.269531 C 406.851562 261 408.289062 260.910156 415.492188 261 L 415.941406 260.460938 C 415.582031 250.648438 415.582031 248.398438 415.582031 239.21875 C 425.660156 239.308594 436.460938 239.308594 442.941406 231.390625 C 445.460938 228.328125 447.621094 223.199219 447.621094 216.898438 C 447.621094 213.03125 446.71875 204.480469 439.25 200.25 C 433.851562 197.101562 426.199219 197.101562 419.449219 197.101562 L 411.53125 197.28125 M 415.582031 208.171875 C 417.558594 208.078125 419.449219 208.078125 421.429688 208.078125 C 429.351562 208.261719 431.511719 212.308594 431.511719 217.53125 C 431.511719 218.789062 431.511719 224.011719 426.742188 226.621094 C 424.308594 227.96875 420.980469 228.148438 415.582031 228.148438 Z M 493.878906 234.179688 C 493.96875 226.078125 493.96875 222.570312 491.628906 218.789062 C 489.828125 215.910156 486.230469 212.308594 474.710938 212.308594 C 466.96875 212.308594 462.199219 213.75 457.070312 215.28125 L 456.53125 216 L 456.078125 225.808594 L 456.800781 226.171875 C 459.949219 224.910156 465.800781 222.570312 471.828125 222.570312 C 475.160156 222.570312 476.507812 223.109375 477.679688 224.28125 C 478.578125 225.179688 478.851562 226.800781 478.851562 228.148438 C 468.050781 229.589844 463.007812 230.578125 457.609375 233.910156 C 452.570312 237.058594 450.859375 242.191406 450.859375 246.238281 C 450.859375 255.871094 457.789062 262.078125 466.609375 262.078125 C 473.359375 262.078125 477.230469 258.839844 479.121094 257.308594 L 479.121094 260.640625 L 479.660156 261.269531 C 486.140625 261 488.121094 260.910156 493.96875 261 L 494.417969 260.371094 C 493.789062 251.550781 493.789062 249.300781 493.789062 240.839844 L 493.878906 234.179688 M 479.03125 248.488281 C 477.140625 249.570312 474.710938 250.828125 471.738281 250.828125 C 468.5 250.828125 465.800781 249.121094 465.800781 245.339844 C 465.800781 239.398438 472.910156 238.410156 479.03125 237.601562 Z M 530.421875 227.609375 L 532.941406 212.941406 L 532.402344 212.308594 C 531.773438 212.308594 531.140625 212.21875 530.511719 212.21875 C 526.820312 212.21875 522.683594 214.289062 519.800781 220.949219 L 520.070312 212.671875 L 519.351562 211.949219 C 512.691406 213.390625 510.980469 213.660156 504.410156 214.648438 L 503.871094 215.191406 C 504.410156 221.941406 504.683594 225.988281 504.683594 238.5 C 504.683594 245.878906 504.589844 253.261719 504.410156 260.730469 L 504.953125 261.269531 C 511.613281 261 513.050781 260.910156 520.25 261 L 520.703125 260.371094 C 520.339844 253.078125 519.800781 242.910156 519.800781 236.699219 C 519.800781 232.648438 519.800781 226.710938 525.921875 226.710938 C 527.453125 226.710938 528.351562 227.25 529.613281 227.96875 Z M 584.421875 259.828125 C 575.960938 245.519531 575.0625 243.898438 568.222656 231.570312 C 574.433594 223.109375 575.0625 222.210938 581.453125 214.019531 L 581 213.121094 L 566.332031 213.300781 L 565.433594 213.929688 C 558.410156 226.078125 557.511719 227.519531 553.371094 233.730469 L 553.371094 223.738281 C 553.460938 206.910156 553.550781 203.308594 554 189.71875 L 553.28125 189.179688 L 537.621094 191.519531 L 537.082031 192.148438 C 537.710938 200.878906 537.980469 205.109375 538.160156 216.898438 C 538.339844 231.480469 538.339844 246.058594 538.25 260.640625 L 538.882812 261.269531 C 544.910156 261 546.621094 261 553.460938 261 L 554 260.371094 L 553.460938 245.160156 L 553.371094 234.808594 C 561.203125 249.210938 562.191406 251.191406 566.78125 260.730469 L 567.589844 261.269531 L 583.792969 260.640625 Z M 583.339844 261 "/>
</svg>
