<?xml version="1.0" encoding="UTF-8"?>
<svg xmlns="http://www.w3.org/2000/svg" xmlns:xlink="http://www.w3.org/1999/xlink" width="975" height="1300" viewBox="0 0 975 1300">
<path fill-rule="nonzero" fill="rgb(98.823529%, 78.823529%, 9.019608%)" fill-opacity="1" d="M 50 50 L 925 50 L 925 290 L 50 290 Z M 50 50 "/>
<path fill-rule="nonzero" fill="rgb(34.901961%, 14.901961%, 14.901961%)" fill-opacity="1" d="M 178.25 89.339844 L 178.789062 88.890625 L 179.421875 77.640625 L 178.96875 77.371094 L 134.421875 77.371094 L 133.789062 77.910156 L 133.160156 88.980469 L 133.609375 89.519531 L 148.28125 89.160156 C 148.371094 112.738281 148.371094 118.410156 147.652344 140.730469 L 148.191406 141.269531 C 154.851562 141 156.652344 140.910156 164.121094 140.910156 L 164.660156 140.371094 C 164.210938 127.769531 164.03125 115.171875 164.03125 102.480469 C 164.03125 97.53125 164.121094 94.738281 164.300781 88.980469 Z M 240.800781 140.371094 C 244.402344 126.421875 245.03125 124.261719 250.429688 104.910156 C 251.511719 101.21875 252.5 97.441406 253.492188 93.75 L 252.953125 93.03125 L 241.25 93.300781 L 240.621094 93.929688 L 238.011719 107.429688 L 235.492188 118.320312 L 233.78125 126.601562 L 232.25 118.589844 L 230.269531 109.230469 L 227.121094 93.660156 L 226.582031 93.03125 L 209.300781 93.300781 L 208.671875 93.929688 L 205.703125 108.691406 L 203.542969 118.589844 L 201.832031 126.871094 L 200.121094 117.960938 L 197.960938 108.238281 L 194.902344 93.300781 L 194.359375 92.851562 L 179.78125 93.929688 L 179.242188 94.648438 C 187.703125 124.351562 189.050781 129.660156 191.570312 140.730469 L 192.203125 141.269531 C 198.410156 141 200.660156 140.910156 208.941406 141 L 209.480469 140.371094 L 211.820312 129.390625 L 214.339844 118.5 L 216.589844 107.609375 L 217.941406 114.449219 L 219.292969 121.109375 L 223.070312 140.640625 L 223.703125 141.269531 C 230.359375 141 233.0625 140.910156 240.261719 141 Z M 274.550781 140.371094 C 274.097656 133.441406 273.738281 128.128906 273.738281 115.710938 C 273.738281 108.058594 273.917969 100.320312 274.007812 92.671875 L 273.378906 91.949219 L 257.898438 94.648438 L 257.359375 95.191406 C 258.078125 102.03125 258.347656 105.179688 258.347656 117.960938 C 258.347656 127.769531 258.078125 133.261719 257.808594 140.640625 L 258.347656 141.269531 C 264.828125 141 266.628906 140.910156 273.917969 141 L 274.550781 140.371094 M 273.109375 83.308594 L 273.378906 71.070312 L 272.839844 70.53125 L 258.167969 72.328125 L 257.628906 72.960938 C 257.808594 76.199219 257.898438 78.089844 257.898438 80.25 C 257.898438 81.960938 257.898438 83.761719 257.808594 85.46875 L 258.4375 86.011719 C 264.558594 84.929688 266.269531 84.75 272.660156 83.941406 Z M 328.640625 140.371094 C 328.191406 132.449219 328.191406 129.929688 328.011719 121.109375 L 328.011719 114.089844 C 327.921875 105.449219 327.832031 101.308594 325.582031 97.621094 C 322.789062 92.941406 317.660156 92.21875 314.421875 92.21875 C 308.929688 92.21875 304.160156 95.101562 300.019531 97.53125 L 300.199219 92.578125 L 299.300781 91.949219 C 292.371094 93.390625 290.839844 93.660156 284.089844 94.558594 L 283.550781 95.191406 C 284.269531 103.019531 284.8125 108.691406 284.8125 123.359375 C 284.8125 129.121094 284.71875 134.878906 284.628906 140.640625 L 285.171875 141.179688 C 291.652344 140.910156 293 140.910156 300.199219 140.910156 L 300.742188 140.371094 C 300.199219 126.511719 300.109375 123 300.019531 106.890625 C 301.910156 105.628906 304.070312 104.101562 306.949219 104.101562 C 311.902344 104.101562 312.351562 109.410156 312.621094 112.648438 C 312.800781 115.621094 312.890625 127.949219 312.890625 131.371094 C 312.890625 134.429688 312.800781 137.578125 312.800781 140.640625 L 313.339844 141.179688 C 319.28125 141 320.8125 140.910156 328.011719 140.910156 Z M 403.882812 128.671875 C 394.070312 129.210938 386.242188 129.390625 383.542969 129.390625 L 381.742188 129.390625 C 381.5625 105.359375 381.652344 99.238281 382.371094 77.730469 L 381.832031 77.191406 C 374.089844 77.550781 372.019531 77.550781 365.8125 77.460938 L 365.269531 78 C 365.632812 85.199219 365.722656 87.359375 365.722656 98.070312 C 365.722656 112.289062 365.632812 126.511719 365.632812 140.730469 L 366.082031 141.269531 C 383.722656 141 386.960938 141 403.160156 141 L 403.609375 140.460938 L 404.332031 129.121094 Z M 452.121094 114.179688 C 452.210938 106.078125 452.210938 102.570312 449.871094 98.789062 C 448.070312 95.910156 444.472656 92.308594 432.953125 92.308594 C 425.210938 92.308594 420.441406 93.75 415.3125 95.28125 L 414.773438 96 L 414.320312 105.808594 L 415.042969 106.171875 C 418.191406 104.910156 424.042969 102.570312 430.070312 102.570312 C 433.402344 102.570312 434.75 103.109375 435.921875 104.28125 C 436.820312 105.179688 437.09375 106.800781 437.09375 108.148438 C 426.292969 109.589844 421.25 110.578125 415.851562 113.910156 C 410.8125 117.058594 409.101562 122.191406 409.101562 126.238281 C 409.101562 135.871094 416.03125 142.078125 424.851562 142.078125 C 431.601562 142.078125 435.472656 138.839844 437.363281 137.308594 L 437.363281 140.640625 L 437.902344 141.269531 C 444.382812 141 446.363281 140.910156 452.210938 141 L 452.660156 140.371094 C 452.03125 131.550781 452.03125 129.300781 452.03125 120.839844 L 452.121094 114.179688 M 437.273438 128.488281 C 435.382812 129.570312 432.953125 130.828125 429.980469 130.828125 C 426.742188 130.828125 424.042969 129.121094 424.042969 125.339844 C 424.042969 119.398438 431.152344 118.410156 437.273438 117.601562 Z M 508.910156 139.828125 C 500.449219 125.519531 499.550781 123.898438 492.710938 111.570312 C 498.921875 103.109375 499.550781 102.210938 505.941406 94.019531 L 505.488281 93.121094 L 490.820312 93.300781 L 489.921875 93.929688 C 482.898438 106.078125 482 107.519531 477.859375 113.730469 L 477.859375 103.738281 C 477.949219 86.910156 478.039062 83.308594 478.488281 69.71875 L 477.769531 69.179688 L 462.109375 71.519531 L 461.570312 72.148438 C 462.199219 80.878906 462.46875 85.109375 462.648438 96.898438 C 462.828125 111.480469 462.828125 126.058594 462.738281 140.640625 L 463.371094 141.269531 C 469.398438 141 471.109375 141 477.949219 141 L 478.488281 140.371094 L 477.949219 125.160156 L 477.859375 114.808594 C 485.691406 129.210938 486.679688 131.191406 491.269531 140.730469 L 492.078125 141.269531 L 508.28125 140.640625 Z M 553.191406 127.679688 C 549.773438 129.480469 545.722656 131.550781 539.152344 131.550781 C 533.753906 131.550781 530.0625 129.839844 527.902344 126.601562 C 526.550781 124.710938 526.28125 122.910156 525.921875 121.109375 L 554.992188 120.570312 L 555.53125 119.941406 C 555.441406 115.53125 555.351562 111.03125 554.09375 106.53125 C 550.941406 95.910156 544.011719 93.75 540.953125 93.03125 C 538.703125 92.398438 536.632812 92.21875 534.5625 92.21875 C 520.433594 92.21875 511.070312 101.488281 511.070312 117.058594 C 511.070312 121.289062 511.792969 125.699219 513.230469 128.851562 C 518.453125 141 530.691406 142.078125 537.171875 142.078125 C 544.640625 142.078125 547.882812 140.730469 552.652344 138.839844 L 553.191406 138.121094 L 553.820312 127.949219 L 553.191406 127.679688 M 525.921875 111.570312 C 526.191406 108.78125 526.820312 105 530.242188 102.839844 C 531.320312 102.121094 532.582031 101.851562 533.84375 101.851562 C 536.8125 101.851562 538.613281 103.378906 539.601562 105 C 540.863281 106.980469 540.953125 109.140625 540.953125 111.210938 Z M 582.710938 109.949219 C 579.648438 108.871094 577.21875 107.878906 577.21875 105.359375 C 577.21875 104.28125 577.941406 101.308594 583.519531 101.308594 C 589.011719 101.308594 592.519531 103.648438 594.769531 105.089844 L 595.582031 104.820312 L 596.480469 95.011719 L 596.03125 94.46875 C 591.800781 93.300781 588.109375 92.21875 582.261719 92.21875 C 577.851562 92.21875 569.03125 92.578125 564.351562 99.328125 C 563.179688 100.949219 561.921875 103.648438 561.921875 107.25 C 561.921875 116.878906 569.390625 119.761719 573.621094 121.378906 L 577.039062 122.640625 C 579.46875 123.449219 583.429688 124.800781 583.429688 128.039062 C 583.429688 130.289062 581.359375 132.71875 576.320312 132.71875 C 573.800781 132.71875 570.109375 131.910156 566.78125 130.199219 C 565.25 129.390625 564.53125 128.761719 563.179688 127.679688 L 562.371094 128.039062 C 562.191406 132.71875 562.101562 133.710938 561.738281 138.210938 L 562.191406 139.019531 C 566.601562 140.640625 570.378906 142.078125 576.949219 142.078125 C 583.789062 142.078125 597.289062 140.820312 598.910156 127.949219 C 599 127.230469 599 126.601562 599 125.96875 C 599 116.070312 592.070312 113.460938 587.121094 111.570312 Z M 659.210938 102.300781 C 651.652344 99.148438 647.691406 97.53125 647.691406 93.480469 C 647.691406 90.691406 650.300781 87.179688 656.242188 87.179688 C 663.082031 87.179688 667.128906 89.96875 670.460938 92.21875 L 671.269531 91.859375 L 671.992188 80.070312 L 671.539062 79.441406 C 667.671875 77.820312 663.621094 76.109375 654.890625 76.109375 C 637.972656 76.109375 632.121094 85.648438 632.121094 95.28125 C 632.121094 106.171875 640.582031 110.128906 645.621094 112.558594 L 648.589844 113.910156 C 654.800781 116.519531 659.570312 118.769531 659.570312 123.539062 C 659.570312 126.960938 656.601562 131.011719 648.769531 131.011719 C 640.582031 131.011719 635.992188 127.410156 633.378906 125.339844 L 632.480469 125.609375 L 631.851562 138.300781 L 632.390625 139.019531 C 633.378906 139.378906 634.371094 139.828125 635.359375 140.101562 C 637.429688 140.820312 642.742188 142.351562 649.492188 142.351562 C 652.191406 142.351562 659.03125 142.078125 664.429688 139.558594 C 671.992188 135.871094 675.230469 129.03125 675.230469 121.378906 C 675.230469 116.25 673.25 110.761719 668.480469 107.070312 C 666.050781 105.269531 663.710938 104.191406 661.550781 103.199219 Z M 708.980469 130.648438 C 707.449219 131.101562 706.367188 131.460938 704.839844 131.460938 C 700.25 131.460938 699.890625 128.578125 699.707031 127.230469 C 699.4375 124.890625 699.4375 119.941406 699.527344 116.339844 L 699.707031 103.648438 L 707.808594 104.011719 L 708.347656 103.46875 L 709.25 93.839844 L 708.707031 93.300781 L 699.707031 93.300781 L 699.980469 78.179688 L 699.347656 77.640625 C 693.230469 79.441406 691.609375 79.890625 685.21875 81.511719 L 684.859375 82.140625 L 684.949219 93.390625 L 680.089844 93.210938 L 679.550781 93.660156 L 678.738281 103.289062 L 679.277344 103.828125 L 684.949219 103.648438 L 684.679688 117.960938 C 684.589844 120.210938 684.5 122.460938 684.5 124.800781 C 684.5 133.078125 684.679688 141.988281 698.71875 141.988281 C 702.230469 141.988281 705.019531 141.449219 708.167969 140.910156 L 708.800781 140.28125 L 709.699219 131.011719 Z M 755.691406 114.179688 C 755.78125 106.078125 755.78125 102.570312 753.441406 98.789062 C 751.640625 95.910156 748.042969 92.308594 736.523438 92.308594 C 728.78125 92.308594 724.011719 93.75 718.882812 95.28125 L 718.34375 96 L 717.890625 105.808594 L 718.613281 106.171875 C 721.761719 104.910156 727.613281 102.570312 733.640625 102.570312 C 736.972656 102.570312 738.320312 103.109375 739.492188 104.28125 C 740.390625 105.179688 740.664062 106.800781 740.664062 108.148438 C 729.863281 109.589844 724.820312 110.578125 719.421875 113.910156 C 714.382812 117.058594 712.671875 122.191406 712.671875 126.238281 C 712.671875 135.871094 719.601562 142.078125 728.421875 142.078125 C 735.171875 142.078125 739.042969 138.839844 740.933594 137.308594 L 740.933594 140.640625 L 741.472656 141.269531 C 747.953125 141 749.933594 140.910156 755.78125 141 L 756.230469 140.371094 C 755.601562 131.550781 755.601562 129.300781 755.601562 120.839844 L 755.691406 114.179688 M 740.84375 128.488281 C 738.953125 129.570312 736.523438 130.828125 733.550781 130.828125 C 730.3125 130.828125 727.613281 129.121094 727.613281 125.339844 C 727.613281 119.398438 734.722656 118.410156 740.84375 117.601562 Z M 791.421875 130.648438 C 789.890625 131.101562 788.808594 131.460938 787.28125 131.460938 C 782.691406 131.460938 782.332031 128.578125 782.148438 127.230469 C 781.878906 124.890625 781.878906 119.941406 781.96875 116.339844 L 782.148438 103.648438 L 790.25 104.011719 L 790.789062 103.46875 L 791.691406 93.839844 L 791.148438 93.300781 L 782.148438 93.300781 L 782.421875 78.179688 L 781.789062 77.640625 C 775.671875 79.441406 774.050781 79.890625 767.660156 81.511719 L 767.300781 82.140625 L 767.390625 93.390625 L 762.53125 93.210938 L 761.992188 93.660156 L 761.179688 103.289062 L 761.71875 103.828125 L 767.390625 103.648438 L 767.121094 117.960938 C 767.03125 120.210938 766.941406 122.460938 766.941406 124.800781 C 766.941406 133.078125 767.121094 141.988281 781.160156 141.988281 C 784.671875 141.988281 787.460938 141.449219 790.609375 140.910156 L 791.242188 140.28125 L 792.140625 131.011719 Z M 838.039062 127.679688 C 834.621094 129.480469 830.570312 131.550781 824 131.550781 C 818.601562 131.550781 814.910156 129.839844 812.75 126.601562 C 811.398438 124.710938 811.128906 122.910156 810.769531 121.109375 L 839.839844 120.570312 L 840.378906 119.941406 C 840.289062 115.53125 840.199219 111.03125 838.941406 106.53125 C 835.789062 95.910156 828.859375 93.75 825.800781 93.03125 C 823.550781 92.398438 821.480469 92.21875 819.410156 92.21875 C 805.28125 92.21875 795.917969 101.488281 795.917969 117.058594 C 795.917969 121.289062 796.640625 125.699219 798.078125 128.851562 C 803.300781 141 815.539062 142.078125 822.019531 142.078125 C 829.488281 142.078125 832.730469 140.730469 837.5 138.839844 L 838.039062 138.121094 L 838.667969 127.949219 L 838.039062 127.679688 M 810.769531 111.570312 C 811.039062 108.78125 811.667969 105 815.089844 102.839844 C 816.167969 102.121094 817.429688 101.851562 818.691406 101.851562 C 821.660156 101.851562 823.460938 103.378906 824.449219 105 C 825.710938 106.980469 825.800781 109.140625 825.800781 111.210938 Z M 843.261719 141 "/>
<path fill-rule="nonzero" fill="rgb(34.901961%, 14.901961%, 14.901961%)" fill-opacity="1" d="M 385.519531 261 C 393.890625 261.179688 404.238281 261.359375 410.988281 256.679688 C 416.929688 252.449219 418.550781 246.511719 418.550781 241.46875 C 418.550781 235.710938 416.117188 230.398438 410.988281 227.878906 C 409.277344 226.980469 407.300781 226.621094 405.410156 226.261719 C 408.46875 225 412.070312 223.378906 414.410156 218.609375 C 415.398438 216.539062 415.847656 214.378906 415.847656 212.308594 C 415.847656 209.429688 415.128906 205.46875 412.25 202.230469 C 408.46875 198.179688 402.617188 197.101562 393.800781 197.101562 C 390.738281 197.101562 385.25 197.191406 382.1875 197.28125 L 369.589844 197.460938 L 369.050781 198 C 369.410156 206.640625 369.5 209.96875 369.5 222.390625 C 369.5 235.171875 369.410156 247.859375 369.230469 260.640625 L 369.859375 261 L 385.519531 261 M 384.890625 233.640625 C 391.730469 233.460938 395.6875 233.460938 398.300781 234.988281 C 400.910156 236.609375 401.898438 239.488281 401.898438 242.371094 C 401.898438 246.421875 399.648438 248.941406 396.320312 250.109375 C 393.617188 251.011719 388.757812 251.011719 384.890625 250.921875 L 384.890625 233.640625 M 384.890625 207.179688 C 386.777344 207.179688 389.300781 207.089844 390.828125 207.089844 C 395.6875 207.089844 400.097656 208.800781 400.097656 214.648438 C 400.097656 219.421875 396.589844 221.398438 395.507812 221.941406 C 393.257812 222.929688 388.488281 222.929688 384.890625 222.929688 Z M 466.878906 247.679688 C 463.460938 249.480469 459.410156 251.550781 452.839844 251.550781 C 447.441406 251.550781 443.75 249.839844 441.589844 246.601562 C 440.238281 244.710938 439.96875 242.910156 439.609375 241.109375 L 468.679688 240.570312 L 469.21875 239.941406 C 469.128906 235.53125 469.039062 231.03125 467.78125 226.53125 C 464.628906 215.910156 457.699219 213.75 454.640625 213.03125 C 452.390625 212.398438 450.320312 212.21875 448.25 212.21875 C 434.121094 212.21875 424.757812 221.488281 424.757812 237.058594 C 424.757812 241.289062 425.480469 245.699219 426.917969 248.851562 C 432.140625 261 444.378906 262.078125 450.859375 262.078125 C 458.328125 262.078125 461.570312 260.730469 466.339844 258.839844 L 466.878906 258.121094 L 467.507812 247.949219 L 466.878906 247.679688 M 439.609375 231.570312 C 439.878906 228.78125 440.507812 225 443.929688 222.839844 C 445.007812 222.121094 446.269531 221.851562 447.53125 221.851562 C 450.5 221.851562 452.300781 223.378906 453.289062 225 C 454.550781 226.980469 454.640625 229.140625 454.640625 231.210938 Z M 517.546875 234.179688 C 517.636719 226.078125 517.636719 222.570312 515.296875 218.789062 C 513.496094 215.910156 509.898438 212.308594 498.378906 212.308594 C 490.636719 212.308594 485.867188 213.75 480.738281 215.28125 L 480.199219 216 L 479.746094 225.808594 L 480.46875 226.171875 C 483.617188 224.910156 489.46875 222.570312 495.496094 222.570312 C 498.828125 222.570312 500.175781 223.109375 501.347656 224.28125 C 502.246094 225.179688 502.519531 226.800781 502.519531 228.148438 C 491.71875 229.589844 486.675781 230.578125 481.277344 233.910156 C 476.238281 237.058594 474.527344 242.191406 474.527344 246.238281 C 474.527344 255.871094 481.457031 262.078125 490.277344 262.078125 C 497.027344 262.078125 500.898438 258.839844 502.789062 257.308594 L 502.789062 260.640625 L 503.328125 261.269531 C 509.808594 261 511.789062 260.910156 517.636719 261 L 518.085938 260.371094 C 517.457031 251.550781 517.457031 249.300781 517.457031 240.839844 L 517.546875 234.179688 M 502.699219 248.488281 C 500.808594 249.570312 498.378906 250.828125 495.40625 250.828125 C 492.167969 250.828125 489.46875 249.121094 489.46875 245.339844 C 489.46875 239.398438 496.578125 238.410156 502.699219 237.601562 Z M 563.269531 248.039062 C 560.839844 249.480469 558.5 250.921875 553.910156 250.921875 C 543.738281 250.921875 541.667969 242.460938 541.667969 237.058594 C 541.667969 230.488281 544.550781 222.929688 553.28125 222.929688 C 557.238281 222.929688 559.398438 224.371094 562.101562 226.171875 L 563 225.898438 C 563.359375 221.128906 563.449219 219.871094 564.167969 215.101562 L 563.71875 214.558594 C 559.757812 213.300781 556.339844 212.21875 551.121094 212.21875 C 529.96875 212.21875 525.828125 228.238281 525.828125 237.421875 C 525.828125 247.769531 531.230469 261.808594 551.480469 261.808594 C 556.25 261.808594 559.308594 260.910156 563.089844 259.828125 L 563.628906 259.289062 L 563.988281 248.488281 Z M 615.289062 260.371094 C 614.929688 252.988281 614.839844 250.46875 614.660156 241.109375 L 614.660156 234.359375 C 614.570312 225.808594 614.480469 220.859375 611.867188 217.078125 C 609.257812 213.390625 605.480469 212.21875 601.519531 212.21875 C 594.949219 212.21875 589.820312 215.371094 586.21875 217.53125 L 586.488281 189.808594 L 585.949219 189.179688 L 570.558594 191.609375 L 570.109375 192.148438 C 570.917969 200.878906 571.097656 204.121094 571.277344 215.730469 C 571.460938 223.019531 571.550781 230.308594 571.550781 237.601562 C 571.550781 246.511719 571.367188 251.820312 571.1875 260.640625 L 571.640625 261.269531 C 578.300781 260.910156 579.648438 260.910156 586.9375 260.910156 L 587.480469 260.371094 C 586.847656 246.871094 586.757812 242.820312 586.667969 226.890625 C 588.378906 225.71875 590.539062 224.191406 593.597656 224.191406 C 598.550781 224.191406 598.910156 229.320312 599.269531 232.921875 C 599.449219 235.710938 599.539062 248.488281 599.539062 251.820312 C 599.539062 254.789062 599.449219 257.671875 599.449219 260.640625 L 599.898438 261.269531 C 606.378906 260.910156 607.820312 260.910156 614.75 260.910156 Z M 620.148438 261 "/>
</svg>
