<?xml version="1.0" encoding="UTF-8"?>
<svg xmlns="http://www.w3.org/2000/svg" xmlns:xlink="http://www.w3.org/1999/xlink" width="975" height="1300" viewBox="0 0 975 1300">
<path fill-rule="nonzero" fill="rgb(98.823529%, 78.823529%, 9.019608%)" fill-opacity="1" d="M 50 50 L 925 50 L 925 290 L 50 290 Z M 50 50 "/>
<path fill-rule="nonzero" fill="rgb(34.901961%, 14.901961%, 14.901961%)" fill-opacity="1" d="M 157.1875 140.460938 C 160.519531 124.078125 161.960938 117.238281 171.5 77.730469 L 171.050781 77.191406 C 164.660156 77.460938 163.398438 77.460938 157.371094 77.460938 L 156.828125 78 C 155.390625 87.269531 154.9375 90.421875 152.960938 100.769531 L 150.347656 114.539062 L 147.46875 130.019531 C 146.121094 119.941406 145.667969 116.878906 143.871094 106.441406 L 141.257812 91.320312 L 139.007812 77.460938 L 138.46875 76.828125 L 120.648438 77.28125 L 120.109375 77.820312 L 116.507812 98.519531 L 113 116.96875 L 110.75 129.390625 C 109.667969 121.558594 109.308594 118.949219 107.417969 108.058594 L 105.078125 94.921875 L 102.109375 77.101562 L 101.570312 76.648438 C 93.828125 77.191406 92.570312 77.191406 86 77.371094 L 85.550781 78 C 92.121094 107.789062 93.558594 114.628906 98.417969 140.730469 L 98.960938 141.269531 C 108.050781 140.910156 110.480469 140.910156 119.300781 141 L 119.929688 140.460938 L 121.820312 129.300781 L 124.789062 112.828125 L 128.03125 93.570312 C 129.109375 102.390625 129.378906 104.640625 131 114.359375 L 133.25 128.398438 L 135.140625 140.730469 L 135.589844 141.269531 C 144.230469 141 147.199219 140.910156 156.738281 141 Z M 192.472656 140.371094 C 192.019531 133.441406 191.660156 128.128906 191.660156 115.710938 C 191.660156 108.058594 191.839844 100.320312 191.929688 92.671875 L 191.300781 91.949219 L 175.820312 94.648438 L 175.28125 95.191406 C 176 102.03125 176.269531 105.179688 176.269531 117.960938 C 176.269531 127.769531 176 133.261719 175.730469 140.640625 L 176.269531 141.269531 C 182.75 141 184.550781 140.910156 191.839844 141 L 192.472656 140.371094 M 191.03125 83.308594 L 191.300781 71.070312 L 190.761719 70.53125 L 176.089844 72.328125 L 175.550781 72.960938 C 175.730469 76.199219 175.820312 78.089844 175.820312 80.25 C 175.820312 81.960938 175.820312 83.761719 175.730469 85.46875 L 176.359375 86.011719 C 182.480469 84.929688 184.191406 84.75 190.582031 83.941406 Z M 218.296875 140.371094 C 217.847656 130.019531 217.398438 120.570312 217.398438 92.128906 C 217.398438 83.578125 217.488281 79.53125 217.847656 69.808594 L 217.21875 69.179688 L 201.828125 71.609375 L 201.46875 72.148438 C 202.367188 83.128906 202.457031 86.101562 202.636719 100.679688 C 202.730469 105.988281 202.730469 111.300781 202.730469 116.609375 C 202.730469 126.328125 202.546875 131.730469 202.1875 140.640625 L 202.730469 141.269531 C 208.757812 141 211.1875 140.910156 217.757812 141 Z M 272.839844 140.460938 C 272.480469 132.359375 272.210938 126.960938 272.210938 115.171875 C 272.210938 91.410156 272.570312 81.601562 272.929688 69.71875 L 272.300781 69.179688 L 257.449219 71.519531 L 257 72.058594 C 257.539062 80.519531 257.628906 82.769531 257.539062 93.03125 C 250.789062 92.851562 242.328125 92.671875 235.488281 98.070312 C 229.191406 102.929688 226.578125 110.398438 226.578125 119.671875 C 226.578125 126.691406 228.46875 133.710938 233.78125 138.121094 C 237.738281 141.359375 242.601562 142.078125 245.570312 142.078125 C 251.960938 142.078125 255.289062 139.109375 257.449219 137.21875 L 257.269531 140.730469 L 257.71875 141.269531 C 263.929688 141 265.640625 141 272.390625 141 L 272.839844 140.460938 M 257.539062 103.828125 C 257.628906 115.800781 257.539062 118.140625 257.269531 129.03125 C 255.46875 130.109375 253.667969 131.191406 251.148438 131.191406 C 242.417969 131.191406 242.417969 120.03125 242.417969 118.230469 C 242.417969 111.300781 244.398438 103.558594 254.480469 103.558594 C 255.46875 103.558594 256.28125 103.648438 257.539062 103.828125 Z M 323.058594 127.679688 C 319.640625 129.480469 315.589844 131.550781 309.019531 131.550781 C 303.621094 131.550781 299.929688 129.839844 297.769531 126.601562 C 296.417969 124.710938 296.148438 122.910156 295.789062 121.109375 L 324.859375 120.570312 L 325.398438 119.941406 C 325.308594 115.53125 325.21875 111.03125 323.960938 106.53125 C 320.808594 95.910156 313.878906 93.75 310.820312 93.03125 C 308.570312 92.398438 306.5 92.21875 304.429688 92.21875 C 290.300781 92.21875 280.9375 101.488281 280.9375 117.058594 C 280.9375 121.289062 281.660156 125.699219 283.097656 128.851562 C 288.320312 141 300.558594 142.078125 307.039062 142.078125 C 314.507812 142.078125 317.75 140.730469 322.519531 138.839844 L 323.058594 138.121094 L 323.6875 127.949219 L 323.058594 127.679688 M 295.789062 111.570312 C 296.058594 108.78125 296.6875 105 300.109375 102.839844 C 301.1875 102.121094 302.449219 101.851562 303.710938 101.851562 C 306.679688 101.851562 308.480469 103.378906 309.46875 105 C 310.730469 106.980469 310.820312 109.140625 310.820312 111.210938 Z M 359.691406 107.609375 L 362.210938 92.941406 L 361.671875 92.308594 C 361.042969 92.308594 360.410156 92.21875 359.78125 92.21875 C 356.089844 92.21875 351.953125 94.289062 349.070312 100.949219 L 349.339844 92.671875 L 348.621094 91.949219 C 341.960938 93.390625 340.25 93.660156 333.679688 94.648438 L 333.140625 95.191406 C 333.679688 101.941406 333.953125 105.988281 333.953125 118.5 C 333.953125 125.878906 333.859375 133.261719 333.679688 140.730469 L 334.222656 141.269531 C 340.882812 141 342.320312 140.910156 349.519531 141 L 349.972656 140.371094 C 349.609375 133.078125 349.070312 122.910156 349.070312 116.699219 C 349.070312 112.648438 349.070312 106.710938 355.191406 106.710938 C 356.722656 106.710938 357.621094 107.25 358.882812 107.96875 Z M 414.046875 116.25 C 420.078125 126.511719 421.429688 129.210938 427.1875 141 L 427.910156 141.449219 C 430.699219 141.269531 433.398438 141.089844 436.1875 141 C 438.980469 140.910156 441.859375 140.820312 444.648438 140.820312 L 445.1875 139.738281 C 441.769531 135.328125 440.777344 133.980469 434.296875 123.628906 C 431.417969 119.039062 429.980469 116.609375 427.730469 112.648438 C 431.777344 110.851562 439.96875 107.070312 439.96875 95.640625 C 439.96875 91.679688 438.886719 83.488281 431.507812 79.621094 C 426.828125 77.191406 421.96875 77.101562 411.4375 77.28125 L 405.136719 77.371094 L 394.160156 77.371094 L 393.707031 77.910156 C 394.070312 87 394.429688 96.359375 394.429688 120.839844 C 394.429688 129.210938 394.339844 133.261719 394.070312 140.730469 L 394.609375 141.269531 C 401.179688 141 402.617188 140.910156 410 141 L 410.539062 140.460938 C 409.820312 130.019531 409.730469 127.140625 409.636719 116.429688 L 414.046875 116.25 M 409.820312 88.261719 C 411.078125 88.171875 412.339844 88.171875 413.597656 88.171875 C 417.109375 88.171875 424.039062 88.171875 424.039062 96.089844 C 424.039062 98.609375 423.410156 101.941406 420.078125 104.011719 C 417.558594 105.539062 414.320312 105.71875 409.820312 105.808594 Z M 490.007812 114.179688 C 490.097656 106.078125 490.097656 102.570312 487.757812 98.789062 C 485.957031 95.910156 482.359375 92.308594 470.839844 92.308594 C 463.097656 92.308594 458.328125 93.75 453.199219 95.28125 L 452.660156 96 L 452.207031 105.808594 L 452.929688 106.171875 C 456.078125 104.910156 461.929688 102.570312 467.957031 102.570312 C 471.289062 102.570312 472.636719 103.109375 473.808594 104.28125 C 474.707031 105.179688 474.980469 106.800781 474.980469 108.148438 C 464.179688 109.589844 459.136719 110.578125 453.738281 113.910156 C 448.699219 117.058594 446.988281 122.191406 446.988281 126.238281 C 446.988281 135.871094 453.917969 142.078125 462.738281 142.078125 C 469.488281 142.078125 473.359375 138.839844 475.25 137.308594 L 475.25 140.640625 L 475.789062 141.269531 C 482.269531 141 484.25 140.910156 490.097656 141 L 490.546875 140.371094 C 489.917969 131.550781 489.917969 129.300781 489.917969 120.839844 L 490.007812 114.179688 M 475.160156 128.488281 C 473.269531 129.570312 470.839844 130.828125 467.867188 130.828125 C 464.628906 130.828125 461.929688 129.121094 461.929688 125.339844 C 461.929688 119.398438 469.039062 118.410156 475.160156 117.601562 Z M 544.640625 140.371094 C 544.191406 132.449219 544.191406 129.929688 544.011719 121.109375 L 544.011719 114.089844 C 543.921875 105.449219 543.832031 101.308594 541.582031 97.621094 C 538.789062 92.941406 533.660156 92.21875 530.421875 92.21875 C 524.929688 92.21875 520.160156 95.101562 516.019531 97.53125 L 516.199219 92.578125 L 515.300781 91.949219 C 508.371094 93.390625 506.839844 93.660156 500.089844 94.558594 L 499.550781 95.191406 C 500.269531 103.019531 500.8125 108.691406 500.8125 123.359375 C 500.8125 129.121094 500.71875 134.878906 500.628906 140.640625 L 501.171875 141.179688 C 507.652344 140.910156 509 140.910156 516.199219 140.910156 L 516.742188 140.371094 C 516.199219 126.511719 516.109375 123 516.019531 106.890625 C 517.910156 105.628906 520.070312 104.101562 522.949219 104.101562 C 527.902344 104.101562 528.351562 109.410156 528.621094 112.648438 C 528.800781 115.621094 528.890625 127.949219 528.890625 131.371094 C 528.890625 134.429688 528.800781 137.578125 528.800781 140.640625 L 529.339844 141.179688 C 535.28125 141 536.8125 140.910156 544.011719 140.910156 Z M 590.089844 128.039062 C 587.660156 129.480469 585.320312 130.921875 580.730469 130.921875 C 570.558594 130.921875 568.488281 122.460938 568.488281 117.058594 C 568.488281 110.488281 571.371094 102.929688 580.101562 102.929688 C 584.058594 102.929688 586.21875 104.371094 588.921875 106.171875 L 589.820312 105.898438 C 590.179688 101.128906 590.269531 99.871094 590.988281 95.101562 L 590.539062 94.558594 C 586.578125 93.300781 583.160156 92.21875 577.941406 92.21875 C 556.789062 92.21875 552.648438 108.238281 552.648438 117.421875 C 552.648438 127.769531 558.050781 141.808594 578.300781 141.808594 C 583.070312 141.808594 586.128906 140.910156 589.910156 139.828125 L 590.449219 139.289062 L 590.808594 128.488281 Z M 642.109375 140.371094 C 641.75 132.988281 641.660156 130.46875 641.480469 121.109375 L 641.480469 114.359375 C 641.390625 105.808594 641.300781 100.859375 638.6875 97.078125 C 636.078125 93.390625 632.300781 92.21875 628.339844 92.21875 C 621.769531 92.21875 616.640625 95.371094 613.039062 97.53125 L 613.308594 69.808594 L 612.769531 69.179688 L 597.378906 71.609375 L 596.929688 72.148438 C 597.738281 80.878906 597.917969 84.121094 598.097656 95.730469 C 598.28125 103.019531 598.371094 110.308594 598.371094 117.601562 C 598.371094 126.511719 598.1875 131.820312 598.007812 140.640625 L 598.460938 141.269531 C 605.121094 140.910156 606.46875 140.910156 613.757812 140.910156 L 614.300781 140.371094 C 613.667969 126.871094 613.578125 122.820312 613.488281 106.890625 C 615.199219 105.71875 617.359375 104.191406 620.417969 104.191406 C 625.371094 104.191406 625.730469 109.320312 626.089844 112.921875 C 626.269531 115.710938 626.359375 128.488281 626.359375 131.820312 C 626.359375 134.789062 626.269531 137.671875 626.269531 140.640625 L 626.71875 141.269531 C 633.199219 140.910156 634.640625 140.910156 641.570312 140.910156 Z M 704.660156 102.300781 C 697.101562 99.148438 693.140625 97.53125 693.140625 93.480469 C 693.140625 90.691406 695.75 87.179688 701.691406 87.179688 C 708.53125 87.179688 712.578125 89.96875 715.910156 92.21875 L 716.71875 91.859375 L 717.441406 80.070312 L 716.988281 79.441406 C 713.121094 77.820312 709.070312 76.109375 700.339844 76.109375 C 683.421875 76.109375 677.570312 85.648438 677.570312 95.28125 C 677.570312 106.171875 686.03125 110.128906 691.070312 112.558594 L 694.039062 113.910156 C 700.25 116.519531 705.019531 118.769531 705.019531 123.539062 C 705.019531 126.960938 702.050781 131.011719 694.21875 131.011719 C 686.03125 131.011719 681.441406 127.410156 678.828125 125.339844 L 677.929688 125.609375 L 677.300781 138.300781 L 677.839844 139.019531 C 678.828125 139.378906 679.820312 139.828125 680.808594 140.101562 C 682.878906 140.820312 688.191406 142.351562 694.941406 142.351562 C 697.640625 142.351562 704.480469 142.078125 709.878906 139.558594 C 717.441406 135.871094 720.679688 129.03125 720.679688 121.378906 C 720.679688 116.25 718.699219 110.761719 713.929688 107.070312 C 711.5 105.269531 709.160156 104.191406 707 103.199219 Z M 754.429688 130.648438 C 752.898438 131.101562 751.816406 131.460938 750.289062 131.460938 C 745.699219 131.460938 745.339844 128.578125 745.15625 127.230469 C 744.886719 124.890625 744.886719 119.941406 744.976562 116.339844 L 745.15625 103.648438 L 753.257812 104.011719 L 753.796875 103.46875 L 754.699219 93.839844 L 754.15625 93.300781 L 745.15625 93.300781 L 745.429688 78.179688 L 744.796875 77.640625 C 738.679688 79.441406 737.058594 79.890625 730.667969 81.511719 L 730.308594 82.140625 L 730.398438 93.390625 L 725.539062 93.210938 L 725 93.660156 L 724.1875 103.289062 L 724.726562 103.828125 L 730.398438 103.648438 L 730.128906 117.960938 C 730.039062 120.210938 729.949219 122.460938 729.949219 124.800781 C 729.949219 133.078125 730.128906 141.988281 744.167969 141.988281 C 747.679688 141.988281 750.46875 141.449219 753.617188 140.910156 L 754.25 140.28125 L 755.148438 131.011719 Z M 801.136719 114.179688 C 801.226562 106.078125 801.226562 102.570312 798.886719 98.789062 C 797.085938 95.910156 793.488281 92.308594 781.96875 92.308594 C 774.226562 92.308594 769.457031 93.75 764.328125 95.28125 L 763.789062 96 L 763.335938 105.808594 L 764.058594 106.171875 C 767.207031 104.910156 773.058594 102.570312 779.085938 102.570312 C 782.417969 102.570312 783.765625 103.109375 784.9375 104.28125 C 785.835938 105.179688 786.109375 106.800781 786.109375 108.148438 C 775.308594 109.589844 770.265625 110.578125 764.867188 113.910156 C 759.828125 117.058594 758.117188 122.191406 758.117188 126.238281 C 758.117188 135.871094 765.046875 142.078125 773.867188 142.078125 C 780.617188 142.078125 784.488281 138.839844 786.378906 137.308594 L 786.378906 140.640625 L 786.917969 141.269531 C 793.398438 141 795.378906 140.910156 801.226562 141 L 801.675781 140.371094 C 801.046875 131.550781 801.046875 129.300781 801.046875 120.839844 L 801.136719 114.179688 M 786.289062 128.488281 C 784.398438 129.570312 781.96875 130.828125 778.996094 130.828125 C 775.757812 130.828125 773.058594 129.121094 773.058594 125.339844 C 773.058594 119.398438 780.167969 118.410156 786.289062 117.601562 Z M 836.871094 130.648438 C 835.339844 131.101562 834.257812 131.460938 832.730469 131.460938 C 828.140625 131.460938 827.78125 128.578125 827.597656 127.230469 C 827.328125 124.890625 827.328125 119.941406 827.417969 116.339844 L 827.597656 103.648438 L 835.699219 104.011719 L 836.238281 103.46875 L 837.140625 93.839844 L 836.597656 93.300781 L 827.597656 93.300781 L 827.871094 78.179688 L 827.238281 77.640625 C 821.121094 79.441406 819.5 79.890625 813.109375 81.511719 L 812.75 82.140625 L 812.839844 93.390625 L 807.980469 93.210938 L 807.441406 93.660156 L 806.628906 103.289062 L 807.167969 103.828125 L 812.839844 103.648438 L 812.570312 117.960938 C 812.480469 120.210938 812.390625 122.460938 812.390625 124.800781 C 812.390625 133.078125 812.570312 141.988281 826.609375 141.988281 C 830.121094 141.988281 832.910156 141.449219 836.058594 140.910156 L 836.691406 140.28125 L 837.589844 131.011719 Z M 883.488281 127.679688 C 880.070312 129.480469 876.019531 131.550781 869.449219 131.550781 C 864.050781 131.550781 860.359375 129.839844 858.199219 126.601562 C 856.847656 124.710938 856.578125 122.910156 856.21875 121.109375 L 885.289062 120.570312 L 885.828125 119.941406 C 885.738281 115.53125 885.648438 111.03125 884.390625 106.53125 C 881.238281 95.910156 874.308594 93.75 871.25 93.03125 C 869 92.398438 866.929688 92.21875 864.859375 92.21875 C 850.730469 92.21875 841.367188 101.488281 841.367188 117.058594 C 841.367188 121.289062 842.089844 125.699219 843.527344 128.851562 C 848.75 141 860.988281 142.078125 867.46875 142.078125 C 874.9375 142.078125 878.179688 140.730469 882.949219 138.839844 L 883.488281 138.121094 L 884.117188 127.949219 L 883.488281 127.679688 M 856.21875 111.570312 C 856.488281 108.78125 857.117188 105 860.539062 102.839844 C 861.617188 102.121094 862.878906 101.851562 864.140625 101.851562 C 867.109375 101.851562 868.910156 103.378906 869.898438 105 C 871.160156 106.980469 871.25 109.140625 871.25 111.210938 Z M 888.710938 141 "/>
<path fill-rule="nonzero" fill="rgb(34.901961%, 14.901961%, 14.901961%)" fill-opacity="1" d="M 411.53125 197.28125 L 400.101562 197.460938 L 399.558594 198 C 399.921875 209.699219 400.191406 217.53125 400.191406 227.878906 C 400.191406 238.859375 399.921875 249.75 399.648438 260.730469 L 400.191406 261.269531 C 406.851562 261 408.289062 260.910156 415.492188 261 L 415.941406 260.460938 C 415.582031 250.648438 415.582031 248.398438 415.582031 239.21875 C 425.660156 239.308594 436.460938 239.308594 442.941406 231.390625 C 445.460938 228.328125 447.621094 223.199219 447.621094 216.898438 C 447.621094 213.03125 446.71875 204.480469 439.25 200.25 C 433.851562 197.101562 426.199219 197.101562 419.449219 197.101562 L 411.53125 197.28125 M 415.582031 208.171875 C 417.558594 208.078125 419.449219 208.078125 421.429688 208.078125 C 429.351562 208.261719 431.511719 212.308594 431.511719 217.53125 C 431.511719 218.789062 431.511719 224.011719 426.742188 226.621094 C 424.308594 227.96875 420.980469 228.148438 415.582031 228.148438 Z M 493.878906 234.179688 C 493.96875 226.078125 493.96875 222.570312 491.628906 218.789062 C 489.828125 215.910156 486.230469 212.308594 474.710938 212.308594 C 466.96875 212.308594 462.199219 213.75 457.070312 215.28125 L 456.53125 216 L 456.078125 225.808594 L 456.800781 226.171875 C 459.949219 224.910156 465.800781 222.570312 471.828125 222.570312 C 475.160156 222.570312 476.507812 223.109375 477.679688 224.28125 C 478.578125 225.179688 478.851562 226.800781 478.851562 228.148438 C 468.050781 229.589844 463.007812 230.578125 457.609375 233.910156 C 452.570312 237.058594 450.859375 242.191406 450.859375 246.238281 C 450.859375 255.871094 457.789062 262.078125 466.609375 262.078125 C 473.359375 262.078125 477.230469 258.839844 479.121094 257.308594 L 479.121094 260.640625 L 479.660156 261.269531 C 486.140625 261 488.121094 260.910156 493.96875 261 L 494.417969 260.371094 C 493.789062 251.550781 493.789062 249.300781 493.789062 240.839844 L 493.878906 234.179688 M 479.03125 248.488281 C 477.140625 249.570312 474.710938 250.828125 471.738281 250.828125 C 468.5 250.828125 465.800781 249.121094 465.800781 245.339844 C 465.800781 239.398438 472.910156 238.410156 479.03125 237.601562 Z M 530.421875 227.609375 L 532.941406 212.941406 L 532.402344 212.308594 C 531.773438 212.308594 531.140625 212.21875 530.511719 212.21875 C 526.820312 212.21875 522.683594 214.289062 519.800781 220.949219 L 520.070312 212.671875 L 519.351562 211.949219 C 512.691406 213.390625 510.980469 213.660156 504.410156 214.648438 L 503.871094 215.191406 C 504.410156 221.941406 504.683594 225.988281 504.683594 238.5 C 504.683594 245.878906 504.589844 253.261719 504.410156 260.730469 L 504.953125 261.269531 C 511.613281 261 513.050781 260.910156 520.25 261 L 520.703125 260.371094 C 520.339844 253.078125 519.800781 242.910156 519.800781 236.699219 C 519.800781 232.648438 519.800781 226.710938 525.921875 226.710938 C 527.453125 226.710938 528.351562 227.25 529.613281 227.96875 Z M 584.421875 259.828125 C 575.960938 245.519531 575.0625 243.898438 568.222656 231.570312 C 574.433594 223.109375 575.0625 222.210938 581.453125 214.019531 L 581 213.121094 L 566.332031 213.300781 L 565.433594 213.929688 C 558.410156 226.078125 557.511719 227.519531 553.371094 233.730469 L 553.371094 223.738281 C 553.460938 206.910156 553.550781 203.308594 554 189.71875 L 553.28125 189.179688 L 537.621094 191.519531 L 537.082031 192.148438 C 537.710938 200.878906 537.980469 205.109375 538.160156 216.898438 C 538.339844 231.480469 538.339844 246.058594 538.25 260.640625 L 538.882812 261.269531 C 544.910156 261 546.621094 261 553.460938 261 L 554 260.371094 L 553.460938 245.160156 L 553.371094 234.808594 C 561.203125 249.210938 562.191406 251.191406 566.78125 260.730469 L 567.589844 261.269531 L 583.792969 260.640625 Z M 583.339844 261 "/>
</svg>
