<?xml version="1.0" encoding="UTF-8"?>
<svg xmlns="http://www.w3.org/2000/svg" xmlns:xlink="http://www.w3.org/1999/xlink" width="975" height="1300" viewBox="0 0 975 1300">
<path fill-rule="nonzero" fill="rgb(98.823529%, 78.823529%, 9.019608%)" fill-opacity="1" d="M 50 50 L 925 50 L 925 290 L 50 290 Z M 50 50 "/>
<path fill-rule="nonzero" fill="rgb(34.901961%, 14.901961%, 14.901961%)" fill-opacity="1" d="M 220.460938 124.890625 C 218.390625 126.511719 213.800781 129.929688 206.332031 129.929688 C 196.070312 129.929688 188.871094 122.28125 188.871094 109.5 C 188.871094 101.761719 191.570312 88.171875 206.242188 88.171875 C 212.992188 88.171875 216.679688 90.78125 218.929688 92.488281 L 219.742188 92.308594 L 220.550781 79.890625 L 220.191406 79.441406 C 216.953125 78.179688 211.460938 76.109375 203.542969 76.109375 C 180.230469 76.109375 172.132812 94.109375 172.132812 109.859375 C 172.132812 127.140625 182.660156 142.351562 204.621094 142.351562 C 212.179688 142.351562 217.132812 140.371094 220.011719 139.199219 L 220.460938 138.660156 L 221.089844 125.25 Z M 273.921875 117.058594 C 273.921875 113.550781 273.921875 98.96875 261.320312 94.019531 C 257.359375 92.488281 252.679688 92.308594 250.339844 92.308594 C 234.679688 92.308594 225.859375 100.679688 225.859375 117.238281 C 225.859375 123 226.761719 128.851562 230.089844 133.710938 C 232.429688 137.21875 236.839844 142.078125 249.710938 142.078125 C 268.789062 142.078125 273.921875 130.558594 273.921875 117.058594 M 258.351562 116.96875 C 258.351562 124.351562 257.359375 132.539062 249.890625 132.539062 C 247.550781 132.539062 245.929688 131.460938 244.851562 130.46875 C 243.320312 128.941406 241.609375 125.878906 241.609375 117.148438 C 241.609375 114.539062 241.609375 108.78125 243.410156 105.628906 C 244.761719 103.199219 247.101562 101.578125 249.980469 101.578125 C 252.5 101.578125 254.570312 102.929688 255.742188 104.371094 C 257.902344 106.980469 258.351562 112.109375 258.351562 116.96875 Z M 298.308594 140.371094 C 297.859375 130.019531 297.410156 120.570312 297.410156 92.128906 C 297.410156 83.578125 297.5 79.53125 297.859375 69.808594 L 297.230469 69.179688 L 281.839844 71.609375 L 281.480469 72.148438 C 282.378906 83.128906 282.46875 86.101562 282.648438 100.679688 C 282.742188 105.988281 282.742188 111.300781 282.742188 116.609375 C 282.742188 126.328125 282.558594 131.730469 282.199219 140.640625 L 282.742188 141.269531 C 288.769531 141 291.199219 140.910156 297.769531 141 Z M 351.953125 92.851562 L 337.28125 93.570312 L 336.652344 94.109375 C 337.28125 104.28125 337.28125 118.679688 337.28125 120.121094 C 337.28125 122.730469 337.28125 124.171875 337.191406 127.769531 C 334.761719 129.390625 332.871094 130.738281 330.441406 130.738281 C 323.960938 130.738281 323.960938 123.898438 323.960938 118.589844 C 323.960938 116.339844 323.960938 114 324.050781 111.75 L 324.230469 93.570312 L 323.601562 92.851562 L 308.75 93.570312 L 308.121094 94.109375 C 308.660156 101.671875 308.75 104.191406 308.75 113.28125 L 308.75 119.578125 C 308.660156 129.390625 309.113281 133.53125 312.351562 137.308594 C 315.320312 140.640625 319.640625 142.078125 324.140625 142.078125 C 330.53125 142.078125 334.222656 139.199219 337.460938 136.679688 L 337.371094 140.730469 L 338 141.269531 C 344.570312 141 346.550781 141 352.402344 141 L 352.941406 140.460938 C 352.492188 134.070312 352.3125 130.648438 352.3125 118.949219 C 352.3125 110.488281 352.402344 102.03125 352.582031 93.570312 Z M 433.402344 140.371094 C 432.949219 132 432.859375 129.660156 432.859375 119.488281 L 432.859375 112.738281 C 432.949219 106.710938 433.039062 101.128906 430.429688 97.351562 C 426.921875 92.21875 420.710938 92.21875 419.269531 92.21875 C 411.890625 92.21875 406.941406 95.550781 403.339844 98.070312 C 402.082031 96 399.832031 92.21875 392.632812 92.21875 C 386.691406 92.21875 382.820312 94.921875 378.679688 97.800781 L 378.679688 92.761719 L 377.871094 91.949219 C 370.851562 93.300781 368.871094 93.660156 362.570312 94.558594 L 362.03125 95.191406 C 362.75 102.390625 363.289062 107.339844 363.289062 125.160156 C 363.289062 130.289062 363.199219 135.511719 363.199219 140.640625 L 363.652344 141.179688 C 369.410156 141 371.390625 140.910156 378.859375 140.910156 L 379.402344 140.371094 C 378.769531 126.511719 378.679688 122.371094 378.589844 106.710938 C 380.480469 105.359375 382.550781 104.191406 384.800781 104.191406 C 390.382812 104.191406 390.5625 110.578125 390.5625 118.320312 C 390.5625 131.371094 390.472656 133.351562 390.289062 140.640625 L 390.832031 141.269531 C 397.671875 140.910156 399.5625 140.910156 405.769531 140.910156 L 406.3125 140.371094 C 405.769531 131.820312 405.679688 129.300781 405.589844 118.410156 L 405.589844 115.078125 L 405.5 105.988281 C 407.03125 105 409.011719 103.738281 411.710938 103.738281 C 416.839844 103.738281 417.652344 108.601562 417.652344 116.339844 C 417.652344 118.050781 417.5625 119.761719 417.5625 121.46875 C 417.472656 124.53125 417.382812 137.941406 417.289062 140.640625 L 417.832031 141.179688 C 424.582031 140.910156 426.5625 140.910156 432.859375 140.910156 Z M 450.230469 141.179688 L 452.03125 141.179688 C 466.429688 141.179688 475.703125 140.460938 482.542969 133.171875 C 488.929688 126.328125 489.5625 118.230469 489.5625 114.449219 C 489.5625 101.941406 482.363281 92.21875 470.121094 92.21875 C 464.179688 92.21875 461.03125 94.199219 458.511719 95.820312 L 459.050781 69.71875 L 458.332031 69.179688 L 443.390625 71.519531 L 442.851562 72.148438 C 443.570312 79.710938 443.839844 82.769531 443.839844 100.859375 C 443.839844 108.601562 443.75 123.898438 443.660156 140.640625 L 444.292969 141.269531 L 450.230469 141.179688 M 458.871094 104.730469 C 460.671875 103.828125 462.382812 102.929688 464.722656 102.929688 C 470.660156 102.929688 474.082031 108.238281 474.082031 116.519531 C 474.082031 123 471.203125 127.230469 468.773438 128.941406 C 465.800781 131.011719 461.929688 131.101562 458.871094 131.191406 Z M 514.402344 140.371094 C 513.949219 133.441406 513.589844 128.128906 513.589844 115.710938 C 513.589844 108.058594 513.769531 100.320312 513.859375 92.671875 L 513.230469 91.949219 L 497.75 94.648438 L 497.210938 95.191406 C 497.929688 102.03125 498.199219 105.179688 498.199219 117.960938 C 498.199219 127.769531 497.929688 133.261719 497.660156 140.640625 L 498.199219 141.269531 C 504.679688 141 506.480469 140.910156 513.769531 141 L 514.402344 140.371094 M 512.960938 83.308594 L 513.230469 71.070312 L 512.691406 70.53125 L 498.019531 72.328125 L 497.480469 72.960938 C 497.660156 76.199219 497.75 78.089844 497.75 80.25 C 497.75 81.960938 497.75 83.761719 497.660156 85.46875 L 498.289062 86.011719 C 504.410156 84.929688 506.121094 84.75 512.511719 83.941406 Z M 564.441406 114.179688 C 564.53125 106.078125 564.53125 102.570312 562.191406 98.789062 C 560.390625 95.910156 556.792969 92.308594 545.273438 92.308594 C 537.53125 92.308594 532.761719 93.75 527.632812 95.28125 L 527.09375 96 L 526.640625 105.808594 L 527.363281 106.171875 C 530.511719 104.910156 536.363281 102.570312 542.390625 102.570312 C 545.722656 102.570312 547.070312 103.109375 548.242188 104.28125 C 549.140625 105.179688 549.414062 106.800781 549.414062 108.148438 C 538.613281 109.589844 533.570312 110.578125 528.171875 113.910156 C 523.132812 117.058594 521.421875 122.191406 521.421875 126.238281 C 521.421875 135.871094 528.351562 142.078125 537.171875 142.078125 C 543.921875 142.078125 547.792969 138.839844 549.683594 137.308594 L 549.683594 140.640625 L 550.222656 141.269531 C 556.703125 141 558.683594 140.910156 564.53125 141 L 564.980469 140.371094 C 564.351562 131.550781 564.351562 129.300781 564.351562 120.839844 L 564.441406 114.179688 M 549.59375 128.488281 C 547.703125 129.570312 545.273438 130.828125 542.300781 130.828125 C 539.0625 130.828125 536.363281 129.121094 536.363281 125.339844 C 536.363281 119.398438 543.472656 118.410156 549.59375 117.601562 Z M 627.261719 102.300781 C 619.703125 99.148438 615.742188 97.53125 615.742188 93.480469 C 615.742188 90.691406 618.351562 87.179688 624.292969 87.179688 C 631.132812 87.179688 635.179688 89.96875 638.511719 92.21875 L 639.320312 91.859375 L 640.042969 80.070312 L 639.589844 79.441406 C 635.722656 77.820312 631.671875 76.109375 622.941406 76.109375 C 606.023438 76.109375 600.171875 85.648438 600.171875 95.28125 C 600.171875 106.171875 608.632812 110.128906 613.671875 112.558594 L 616.640625 113.910156 C 622.851562 116.519531 627.621094 118.769531 627.621094 123.539062 C 627.621094 126.960938 624.652344 131.011719 616.820312 131.011719 C 608.632812 131.011719 604.042969 127.410156 601.429688 125.339844 L 600.53125 125.609375 L 599.902344 138.300781 L 600.441406 139.019531 C 601.429688 139.378906 602.421875 139.828125 603.410156 140.101562 C 605.480469 140.820312 610.792969 142.351562 617.542969 142.351562 C 620.242188 142.351562 627.082031 142.078125 632.480469 139.558594 C 640.042969 135.871094 643.28125 129.03125 643.28125 121.378906 C 643.28125 116.25 641.300781 110.761719 636.53125 107.070312 C 634.101562 105.269531 631.761719 104.191406 629.601562 103.199219 Z M 677.03125 130.648438 C 675.5 131.101562 674.417969 131.460938 672.890625 131.460938 C 668.300781 131.460938 667.941406 128.578125 667.757812 127.230469 C 667.488281 124.890625 667.488281 119.941406 667.578125 116.339844 L 667.757812 103.648438 L 675.859375 104.011719 L 676.398438 103.46875 L 677.300781 93.839844 L 676.757812 93.300781 L 667.757812 93.300781 L 668.03125 78.179688 L 667.398438 77.640625 C 661.28125 79.441406 659.660156 79.890625 653.269531 81.511719 L 652.910156 82.140625 L 653 93.390625 L 648.140625 93.210938 L 647.601562 93.660156 L 646.789062 103.289062 L 647.328125 103.828125 L 653 103.648438 L 652.730469 117.960938 C 652.640625 120.210938 652.550781 122.460938 652.550781 124.800781 C 652.550781 133.078125 652.730469 141.988281 666.769531 141.988281 C 670.28125 141.988281 673.070312 141.449219 676.21875 140.910156 L 676.851562 140.28125 L 677.75 131.011719 Z M 723.742188 114.179688 C 723.832031 106.078125 723.832031 102.570312 721.492188 98.789062 C 719.691406 95.910156 716.09375 92.308594 704.574219 92.308594 C 696.832031 92.308594 692.0625 93.75 686.933594 95.28125 L 686.394531 96 L 685.941406 105.808594 L 686.664062 106.171875 C 689.8125 104.910156 695.664062 102.570312 701.691406 102.570312 C 705.023438 102.570312 706.371094 103.109375 707.542969 104.28125 C 708.441406 105.179688 708.714844 106.800781 708.714844 108.148438 C 697.914062 109.589844 692.871094 110.578125 687.472656 113.910156 C 682.433594 117.058594 680.722656 122.191406 680.722656 126.238281 C 680.722656 135.871094 687.652344 142.078125 696.472656 142.078125 C 703.222656 142.078125 707.09375 138.839844 708.984375 137.308594 L 708.984375 140.640625 L 709.523438 141.269531 C 716.003906 141 717.984375 140.910156 723.832031 141 L 724.28125 140.371094 C 723.652344 131.550781 723.652344 129.300781 723.652344 120.839844 L 723.742188 114.179688 M 708.894531 128.488281 C 707.003906 129.570312 704.574219 130.828125 701.601562 130.828125 C 698.363281 130.828125 695.664062 129.121094 695.664062 125.339844 C 695.664062 119.398438 702.773438 118.410156 708.894531 117.601562 Z M 759.472656 130.648438 C 757.941406 131.101562 756.859375 131.460938 755.332031 131.460938 C 750.742188 131.460938 750.382812 128.578125 750.199219 127.230469 C 749.929688 124.890625 749.929688 119.941406 750.019531 116.339844 L 750.199219 103.648438 L 758.300781 104.011719 L 758.839844 103.46875 L 759.742188 93.839844 L 759.199219 93.300781 L 750.199219 93.300781 L 750.472656 78.179688 L 749.839844 77.640625 C 743.722656 79.441406 742.101562 79.890625 735.710938 81.511719 L 735.351562 82.140625 L 735.441406 93.390625 L 730.582031 93.210938 L 730.042969 93.660156 L 729.230469 103.289062 L 729.769531 103.828125 L 735.441406 103.648438 L 735.171875 117.960938 C 735.082031 120.210938 734.992188 122.460938 734.992188 124.800781 C 734.992188 133.078125 735.171875 141.988281 749.210938 141.988281 C 752.722656 141.988281 755.511719 141.449219 758.660156 140.910156 L 759.292969 140.28125 L 760.191406 131.011719 Z M 806.089844 127.679688 C 802.671875 129.480469 798.621094 131.550781 792.050781 131.550781 C 786.652344 131.550781 782.960938 129.839844 780.800781 126.601562 C 779.449219 124.710938 779.179688 122.910156 778.820312 121.109375 L 807.890625 120.570312 L 808.429688 119.941406 C 808.339844 115.53125 808.25 111.03125 806.992188 106.53125 C 803.839844 95.910156 796.910156 93.75 793.851562 93.03125 C 791.601562 92.398438 789.53125 92.21875 787.460938 92.21875 C 773.332031 92.21875 763.96875 101.488281 763.96875 117.058594 C 763.96875 121.289062 764.691406 125.699219 766.128906 128.851562 C 771.351562 141 783.589844 142.078125 790.070312 142.078125 C 797.539062 142.078125 800.78125 140.730469 805.550781 138.839844 L 806.089844 138.121094 L 806.71875 127.949219 L 806.089844 127.679688 M 778.820312 111.570312 C 779.089844 108.78125 779.71875 105 783.140625 102.839844 C 784.21875 102.121094 785.480469 101.851562 786.742188 101.851562 C 789.710938 101.851562 791.511719 103.378906 792.5 105 C 793.761719 106.980469 793.851562 109.140625 793.851562 111.210938 Z M 811.3125 141 "/>
<path fill-rule="nonzero" fill="rgb(34.901961%, 14.901961%, 14.901961%)" fill-opacity="1" d="M 277.921875 197.191406 C 270.722656 197.460938 269.554688 197.460938 261.992188 197.460938 L 261.542969 198 C 262.171875 208.171875 262.171875 210.78125 262.261719 221.398438 C 258.304688 221.488281 254.34375 221.578125 250.292969 221.578125 C 247.144531 221.578125 243.902344 221.488281 240.753906 221.488281 L 240.933594 197.730469 L 240.484375 197.191406 C 233.554688 197.460938 232.203125 197.460938 224.375 197.460938 L 223.832031 198 C 224.285156 207.269531 224.824219 218.339844 224.824219 240.660156 C 224.824219 248.761719 224.644531 253.171875 224.464844 260.730469 L 224.914062 261.269531 C 231.484375 261 233.101562 260.910156 241.023438 261 L 241.472656 260.460938 C 240.933594 249.300781 240.84375 246.058594 240.753906 233.011719 C 244.714844 232.828125 248.042969 232.738281 251.554688 232.738281 C 255.152344 232.738281 258.753906 232.828125 262.351562 232.921875 C 262.535156 245.070312 262.535156 248.039062 262.082031 260.730469 L 262.535156 261.269531 C 269.285156 261 271.082031 260.910156 278.734375 261 L 279.183594 260.460938 C 278.464844 245.339844 278.191406 230.308594 278.191406 215.191406 C 278.191406 208.890625 278.285156 204.660156 278.375 197.730469 Z M 305.914062 260.371094 C 305.460938 253.441406 305.101562 248.128906 305.101562 235.710938 C 305.101562 228.058594 305.28125 220.320312 305.371094 212.671875 L 304.742188 211.949219 L 289.261719 214.648438 L 288.722656 215.191406 C 289.441406 222.03125 289.710938 225.179688 289.710938 237.960938 C 289.710938 247.769531 289.441406 253.261719 289.171875 260.640625 L 289.710938 261.269531 C 296.191406 261 297.992188 260.910156 305.28125 261 L 305.914062 260.371094 M 304.472656 203.308594 L 304.742188 191.070312 L 304.203125 190.53125 L 289.53125 192.328125 L 288.992188 192.960938 C 289.171875 196.199219 289.261719 198.089844 289.261719 200.25 C 289.261719 201.960938 289.261719 203.761719 289.171875 205.46875 L 289.800781 206.011719 C 295.921875 204.929688 297.632812 204.75 304.023438 203.941406 Z M 334.804688 229.949219 C 331.742188 228.871094 329.3125 227.878906 329.3125 225.359375 C 329.3125 224.28125 330.035156 221.308594 335.613281 221.308594 C 341.105469 221.308594 344.613281 223.648438 346.863281 225.089844 L 347.675781 224.820312 L 348.574219 215.011719 L 348.125 214.46875 C 343.894531 213.300781 340.203125 212.21875 334.355469 212.21875 C 329.945312 212.21875 321.125 212.578125 316.445312 219.328125 C 315.273438 220.949219 314.015625 223.648438 314.015625 227.25 C 314.015625 236.878906 321.484375 239.761719 325.714844 241.378906 L 329.132812 242.640625 C 331.5625 243.449219 335.523438 244.800781 335.523438 248.039062 C 335.523438 250.289062 333.453125 252.71875 328.414062 252.71875 C 325.894531 252.71875 322.203125 251.910156 318.875 250.199219 C 317.34375 249.390625 316.625 248.761719 315.273438 247.679688 L 314.464844 248.039062 C 314.285156 252.71875 314.195312 253.710938 313.832031 258.210938 L 314.285156 259.019531 C 318.695312 260.640625 322.472656 262.078125 329.042969 262.078125 C 335.882812 262.078125 349.382812 260.820312 351.003906 247.949219 C 351.09375 247.230469 351.09375 246.601562 351.09375 245.96875 C 351.09375 236.070312 344.164062 233.460938 339.214844 231.570312 Z M 384.214844 250.648438 C 382.683594 251.101562 381.601562 251.460938 380.074219 251.460938 C 375.484375 251.460938 375.125 248.578125 374.941406 247.230469 C 374.671875 244.890625 374.671875 239.941406 374.761719 236.339844 L 374.941406 223.648438 L 383.042969 224.011719 L 383.582031 223.46875 L 384.484375 213.839844 L 383.941406 213.300781 L 374.941406 213.300781 L 375.214844 198.179688 L 374.582031 197.640625 C 368.464844 199.441406 366.84375 199.890625 360.453125 201.511719 L 360.09375 202.140625 L 360.183594 213.390625 L 355.324219 213.210938 L 354.785156 213.660156 L 353.972656 223.289062 L 354.511719 223.828125 L 360.183594 223.648438 L 359.914062 237.960938 C 359.824219 240.210938 359.734375 242.460938 359.734375 244.800781 C 359.734375 253.078125 359.914062 261.988281 373.953125 261.988281 C 377.464844 261.988281 380.253906 261.449219 383.402344 260.910156 L 384.035156 260.28125 L 384.933594 251.011719 Z M 436.683594 237.058594 C 436.683594 233.550781 436.683594 218.96875 424.082031 214.019531 C 420.121094 212.488281 415.441406 212.308594 413.101562 212.308594 C 397.441406 212.308594 388.621094 220.679688 388.621094 237.238281 C 388.621094 243 389.523438 248.851562 392.851562 253.710938 C 395.191406 257.21875 399.601562 262.078125 412.472656 262.078125 C 431.550781 262.078125 436.683594 250.558594 436.683594 237.058594 M 421.113281 236.96875 C 421.113281 244.351562 420.121094 252.539062 412.652344 252.539062 C 410.3125 252.539062 408.691406 251.460938 407.613281 250.46875 C 406.082031 248.941406 404.371094 245.878906 404.371094 237.148438 C 404.371094 234.539062 404.371094 228.78125 406.171875 225.628906 C 407.523438 223.199219 409.863281 221.578125 412.742188 221.578125 C 415.261719 221.578125 417.332031 222.929688 418.503906 224.371094 C 420.664062 226.980469 421.113281 232.109375 421.113281 236.96875 Z M 471.242188 227.609375 L 473.761719 212.941406 L 473.222656 212.308594 C 472.59375 212.308594 471.960938 212.21875 471.332031 212.21875 C 467.640625 212.21875 463.503906 214.289062 460.621094 220.949219 L 460.890625 212.671875 L 460.171875 211.949219 C 453.511719 213.390625 451.800781 213.660156 445.230469 214.648438 L 444.691406 215.191406 C 445.230469 221.941406 445.503906 225.988281 445.503906 238.5 C 445.503906 245.878906 445.410156 253.261719 445.230469 260.730469 L 445.773438 261.269531 C 452.433594 261 453.871094 260.910156 461.070312 261 L 461.523438 260.371094 C 461.160156 253.078125 460.621094 242.910156 460.621094 236.699219 C 460.621094 232.648438 460.621094 226.710938 466.742188 226.710938 C 468.273438 226.710938 469.171875 227.25 470.433594 227.96875 Z M 495.273438 260.371094 C 494.820312 253.441406 494.460938 248.128906 494.460938 235.710938 C 494.460938 228.058594 494.640625 220.320312 494.730469 212.671875 L 494.101562 211.949219 L 478.621094 214.648438 L 478.082031 215.191406 C 478.800781 222.03125 479.070312 225.179688 479.070312 237.960938 C 479.070312 247.769531 478.800781 253.261719 478.53125 260.640625 L 479.070312 261.269531 C 485.550781 261 487.351562 260.910156 494.640625 261 L 495.273438 260.371094 M 493.832031 203.308594 L 494.101562 191.070312 L 493.5625 190.53125 L 478.890625 192.328125 L 478.351562 192.960938 C 478.53125 196.199219 478.621094 198.089844 478.621094 200.25 C 478.621094 201.960938 478.621094 203.761719 478.53125 205.46875 L 479.160156 206.011719 C 485.28125 204.929688 486.992188 204.75 493.382812 203.941406 Z M 540.453125 248.039062 C 538.023438 249.480469 535.683594 250.921875 531.09375 250.921875 C 520.921875 250.921875 518.851562 242.460938 518.851562 237.058594 C 518.851562 230.488281 521.734375 222.929688 530.464844 222.929688 C 534.421875 222.929688 536.582031 224.371094 539.285156 226.171875 L 540.183594 225.898438 C 540.542969 221.128906 540.632812 219.871094 541.351562 215.101562 L 540.902344 214.558594 C 536.941406 213.300781 533.523438 212.21875 528.304688 212.21875 C 507.152344 212.21875 503.011719 228.238281 503.011719 237.421875 C 503.011719 247.769531 508.414062 261.808594 528.664062 261.808594 C 533.433594 261.808594 536.492188 260.910156 540.273438 259.828125 L 540.8125 259.289062 L 541.171875 248.488281 Z M 586.714844 197.28125 L 575.285156 197.460938 L 574.742188 198 C 575.105469 209.699219 575.375 217.53125 575.375 227.878906 C 575.375 238.859375 575.105469 249.75 574.832031 260.730469 L 575.375 261.269531 C 582.035156 261 583.472656 260.910156 590.675781 261 L 591.125 260.460938 C 590.765625 250.648438 590.765625 248.398438 590.765625 239.21875 C 600.84375 239.308594 611.644531 239.308594 618.125 231.390625 C 620.644531 228.328125 622.804688 223.199219 622.804688 216.898438 C 622.804688 213.03125 621.902344 204.480469 614.433594 200.25 C 609.035156 197.101562 601.382812 197.101562 594.632812 197.101562 L 586.714844 197.28125 M 590.765625 208.171875 C 592.742188 208.078125 594.632812 208.078125 596.613281 208.078125 C 604.535156 208.261719 606.695312 212.308594 606.695312 217.53125 C 606.695312 218.789062 606.695312 224.011719 601.925781 226.621094 C 599.492188 227.96875 596.164062 228.148438 590.765625 228.148438 Z M 669.0625 234.179688 C 669.152344 226.078125 669.152344 222.570312 666.8125 218.789062 C 665.011719 215.910156 661.414062 212.308594 649.894531 212.308594 C 642.152344 212.308594 637.382812 213.75 632.253906 215.28125 L 631.714844 216 L 631.261719 225.808594 L 631.984375 226.171875 C 635.132812 224.910156 640.984375 222.570312 647.011719 222.570312 C 650.34375 222.570312 651.691406 223.109375 652.863281 224.28125 C 653.761719 225.179688 654.035156 226.800781 654.035156 228.148438 C 643.234375 229.589844 638.191406 230.578125 632.792969 233.910156 C 627.753906 237.058594 626.042969 242.191406 626.042969 246.238281 C 626.042969 255.871094 632.972656 262.078125 641.792969 262.078125 C 648.542969 262.078125 652.414062 258.839844 654.304688 257.308594 L 654.304688 260.640625 L 654.84375 261.269531 C 661.324219 261 663.304688 260.910156 669.152344 261 L 669.601562 260.371094 C 668.972656 251.550781 668.972656 249.300781 668.972656 240.839844 L 669.0625 234.179688 M 654.214844 248.488281 C 652.324219 249.570312 649.894531 250.828125 646.921875 250.828125 C 643.683594 250.828125 640.984375 249.121094 640.984375 245.339844 C 640.984375 239.398438 648.09375 238.410156 654.214844 237.601562 Z M 705.601562 227.609375 L 708.121094 212.941406 L 707.582031 212.308594 C 706.953125 212.308594 706.320312 212.21875 705.691406 212.21875 C 702 212.21875 697.863281 214.289062 694.980469 220.949219 L 695.25 212.671875 L 694.53125 211.949219 C 687.871094 213.390625 686.160156 213.660156 679.589844 214.648438 L 679.050781 215.191406 C 679.589844 221.941406 679.863281 225.988281 679.863281 238.5 C 679.863281 245.878906 679.769531 253.261719 679.589844 260.730469 L 680.132812 261.269531 C 686.792969 261 688.230469 260.910156 695.429688 261 L 695.882812 260.371094 C 695.519531 253.078125 694.980469 242.910156 694.980469 236.699219 C 694.980469 232.648438 694.980469 226.710938 701.101562 226.710938 C 702.632812 226.710938 703.53125 227.25 704.792969 227.96875 Z M 759.601562 259.828125 C 751.140625 245.519531 750.242188 243.898438 743.402344 231.570312 C 749.613281 223.109375 750.242188 222.210938 756.632812 214.019531 L 756.179688 213.121094 L 741.511719 213.300781 L 740.613281 213.929688 C 733.589844 226.078125 732.691406 227.519531 728.550781 233.730469 L 728.550781 223.738281 C 728.640625 206.910156 728.730469 203.308594 729.179688 189.71875 L 728.460938 189.179688 L 712.800781 191.519531 L 712.261719 192.148438 C 712.890625 200.878906 713.160156 205.109375 713.339844 216.898438 C 713.519531 231.480469 713.519531 246.058594 713.429688 260.640625 L 714.0625 261.269531 C 720.089844 261 721.800781 261 728.640625 261 L 729.179688 260.371094 L 728.640625 245.160156 L 728.550781 234.808594 C 736.382812 249.210938 737.371094 251.191406 741.960938 260.730469 L 742.769531 261.269531 L 758.972656 260.640625 Z M 758.523438 261 "/>
</svg>
