<?xml version="1.0" encoding="UTF-8"?>
<svg xmlns="http://www.w3.org/2000/svg" xmlns:xlink="http://www.w3.org/1999/xlink" width="975" height="1300" viewBox="0 0 975 1300">
<path fill-rule="nonzero" fill="rgb(98.823529%, 78.823529%, 9.019608%)" fill-opacity="1" d="M 50 50 L 925 50 L 925 290 L 50 290 Z M 50 50 "/>
<path fill-rule="nonzero" fill="rgb(34.901961%, 14.901961%, 14.901961%)" fill-opacity="1" d="M 145.445312 89.339844 L 145.984375 88.890625 L 146.617188 77.640625 L 146.164062 77.371094 L 101.617188 77.371094 L 100.984375 77.910156 L 100.355469 88.980469 L 100.804688 89.519531 L 115.476562 89.160156 C 115.566406 112.738281 115.566406 118.410156 114.847656 140.730469 L 115.386719 141.269531 C 122.046875 141 123.847656 140.910156 131.316406 140.910156 L 131.855469 140.371094 C 131.40625 127.769531 131.226562 115.171875 131.226562 102.480469 C 131.226562 97.53125 131.316406 94.738281 131.496094 88.980469 Z M 195.578125 92.851562 L 180.90625 93.570312 L 180.277344 94.109375 C 180.90625 104.28125 180.90625 118.679688 180.90625 120.121094 C 180.90625 122.730469 180.90625 124.171875 180.816406 127.769531 C 178.386719 129.390625 176.496094 130.738281 174.066406 130.738281 C 167.585938 130.738281 167.585938 123.898438 167.585938 118.589844 C 167.585938 116.339844 167.585938 114 167.675781 111.75 L 167.855469 93.570312 L 167.226562 92.851562 L 152.375 93.570312 L 151.746094 94.109375 C 152.285156 101.671875 152.375 104.191406 152.375 113.28125 L 152.375 119.578125 C 152.285156 129.390625 152.738281 133.53125 155.976562 137.308594 C 158.945312 140.640625 163.265625 142.078125 167.765625 142.078125 C 174.15625 142.078125 177.847656 139.199219 181.085938 136.679688 L 180.996094 140.730469 L 181.625 141.269531 C 188.195312 141 190.175781 141 196.027344 141 L 196.566406 140.460938 C 196.117188 134.070312 195.9375 130.648438 195.9375 118.949219 C 195.9375 110.488281 196.027344 102.03125 196.207031 93.570312 Z M 232.746094 107.609375 L 235.265625 92.941406 L 234.726562 92.308594 C 234.097656 92.308594 233.464844 92.21875 232.835938 92.21875 C 229.144531 92.21875 225.007812 94.289062 222.125 100.949219 L 222.394531 92.671875 L 221.675781 91.949219 C 215.015625 93.390625 213.304688 93.660156 206.734375 94.648438 L 206.195312 95.191406 C 206.734375 101.941406 207.007812 105.988281 207.007812 118.5 C 207.007812 125.878906 206.914062 133.261719 206.734375 140.730469 L 207.277344 141.269531 C 213.9375 141 215.375 140.910156 222.574219 141 L 223.027344 140.371094 C 222.664062 133.078125 222.125 122.910156 222.125 116.699219 C 222.125 112.648438 222.125 106.710938 228.246094 106.710938 C 229.777344 106.710938 230.675781 107.25 231.9375 107.96875 Z M 256.324219 140.371094 C 255.875 130.019531 255.425781 120.570312 255.425781 92.128906 C 255.425781 83.578125 255.515625 79.53125 255.875 69.808594 L 255.246094 69.179688 L 239.855469 71.609375 L 239.496094 72.148438 C 240.394531 83.128906 240.484375 86.101562 240.664062 100.679688 C 240.757812 105.988281 240.757812 111.300781 240.757812 116.609375 C 240.757812 126.328125 240.574219 131.730469 240.214844 140.640625 L 240.757812 141.269531 C 246.785156 141 249.214844 140.910156 255.785156 141 Z M 312.578125 117.058594 C 312.578125 113.550781 312.578125 98.96875 299.976562 94.019531 C 296.015625 92.488281 291.335938 92.308594 288.996094 92.308594 C 273.335938 92.308594 264.515625 100.679688 264.515625 117.238281 C 264.515625 123 265.417969 128.851562 268.746094 133.710938 C 271.085938 137.21875 275.496094 142.078125 288.367188 142.078125 C 307.445312 142.078125 312.578125 130.558594 312.578125 117.058594 M 297.007812 116.96875 C 297.007812 124.351562 296.015625 132.539062 288.546875 132.539062 C 286.207031 132.539062 284.585938 131.460938 283.507812 130.46875 C 281.976562 128.941406 280.265625 125.878906 280.265625 117.148438 C 280.265625 114.539062 280.265625 108.78125 282.066406 105.628906 C 283.417969 103.199219 285.757812 101.578125 288.636719 101.578125 C 291.15625 101.578125 293.226562 102.929688 294.398438 104.371094 C 296.558594 106.980469 297.007812 112.109375 297.007812 116.96875 Z M 356.316406 128.039062 C 353.886719 129.480469 351.546875 130.921875 346.957031 130.921875 C 336.785156 130.921875 334.714844 122.460938 334.714844 117.058594 C 334.714844 110.488281 337.597656 102.929688 346.328125 102.929688 C 350.285156 102.929688 352.445312 104.371094 355.148438 106.171875 L 356.046875 105.898438 C 356.40625 101.128906 356.496094 99.871094 357.214844 95.101562 L 356.765625 94.558594 C 352.804688 93.300781 349.386719 92.21875 344.167969 92.21875 C 323.015625 92.21875 318.875 108.238281 318.875 117.421875 C 318.875 127.769531 324.277344 141.808594 344.527344 141.808594 C 349.296875 141.808594 352.355469 140.910156 356.136719 139.828125 L 356.675781 139.289062 L 357.035156 128.488281 Z M 410.496094 139.828125 C 402.035156 125.519531 401.136719 123.898438 394.296875 111.570312 C 400.507812 103.109375 401.136719 102.210938 407.527344 94.019531 L 407.074219 93.121094 L 392.40625 93.300781 L 391.507812 93.929688 C 384.484375 106.078125 383.585938 107.519531 379.445312 113.730469 L 379.445312 103.738281 C 379.535156 86.910156 379.625 83.308594 380.074219 69.71875 L 379.355469 69.179688 L 363.695312 71.519531 L 363.15625 72.148438 C 363.785156 80.878906 364.054688 85.109375 364.234375 96.898438 C 364.414062 111.480469 364.414062 126.058594 364.324219 140.640625 L 364.957031 141.269531 C 370.984375 141 372.695312 141 379.535156 141 L 380.074219 140.371094 L 379.535156 125.160156 L 379.445312 114.808594 C 387.277344 129.210938 388.265625 131.191406 392.855469 140.730469 L 393.664062 141.269531 L 409.867188 140.640625 Z M 479.796875 128.671875 C 469.984375 129.210938 462.15625 129.390625 459.457031 129.390625 L 457.65625 129.390625 C 457.476562 105.359375 457.566406 99.238281 458.285156 77.730469 L 457.746094 77.191406 C 450.003906 77.550781 447.933594 77.550781 441.726562 77.460938 L 441.183594 78 C 441.546875 85.199219 441.636719 87.359375 441.636719 98.070312 C 441.636719 112.289062 441.546875 126.511719 441.546875 140.730469 L 441.996094 141.269531 C 459.636719 141 462.875 141 479.074219 141 L 479.523438 140.460938 L 480.246094 129.121094 Z M 528.035156 114.179688 C 528.125 106.078125 528.125 102.570312 525.785156 98.789062 C 523.984375 95.910156 520.386719 92.308594 508.867188 92.308594 C 501.125 92.308594 496.355469 93.75 491.226562 95.28125 L 490.6875 96 L 490.234375 105.808594 L 490.957031 106.171875 C 494.105469 104.910156 499.957031 102.570312 505.984375 102.570312 C 509.316406 102.570312 510.664062 103.109375 511.835938 104.28125 C 512.734375 105.179688 513.007812 106.800781 513.007812 108.148438 C 502.207031 109.589844 497.164062 110.578125 491.765625 113.910156 C 486.726562 117.058594 485.015625 122.191406 485.015625 126.238281 C 485.015625 135.871094 491.945312 142.078125 500.765625 142.078125 C 507.515625 142.078125 511.386719 138.839844 513.277344 137.308594 L 513.277344 140.640625 L 513.816406 141.269531 C 520.296875 141 522.277344 140.910156 528.125 141 L 528.574219 140.371094 C 527.945312 131.550781 527.945312 129.300781 527.945312 120.839844 L 528.035156 114.179688 M 513.1875 128.488281 C 511.296875 129.570312 508.867188 130.828125 505.894531 130.828125 C 502.65625 130.828125 499.957031 129.121094 499.957031 125.339844 C 499.957031 119.398438 507.066406 118.410156 513.1875 117.601562 Z M 584.824219 139.828125 C 576.363281 125.519531 575.464844 123.898438 568.625 111.570312 C 574.835938 103.109375 575.464844 102.210938 581.855469 94.019531 L 581.402344 93.121094 L 566.734375 93.300781 L 565.835938 93.929688 C 558.8125 106.078125 557.914062 107.519531 553.773438 113.730469 L 553.773438 103.738281 C 553.863281 86.910156 553.953125 83.308594 554.402344 69.71875 L 553.683594 69.179688 L 538.023438 71.519531 L 537.484375 72.148438 C 538.113281 80.878906 538.382812 85.109375 538.5625 96.898438 C 538.742188 111.480469 538.742188 126.058594 538.652344 140.640625 L 539.285156 141.269531 C 545.3125 141 547.023438 141 553.863281 141 L 554.402344 140.371094 L 553.863281 125.160156 L 553.773438 114.808594 C 561.605469 129.210938 562.59375 131.191406 567.183594 140.730469 L 567.992188 141.269531 L 584.195312 140.640625 Z M 629.105469 127.679688 C 625.6875 129.480469 621.636719 131.550781 615.066406 131.550781 C 609.667969 131.550781 605.976562 129.839844 603.816406 126.601562 C 602.464844 124.710938 602.195312 122.910156 601.835938 121.109375 L 630.90625 120.570312 L 631.445312 119.941406 C 631.355469 115.53125 631.265625 111.03125 630.007812 106.53125 C 626.855469 95.910156 619.925781 93.75 616.867188 93.03125 C 614.617188 92.398438 612.546875 92.21875 610.476562 92.21875 C 596.347656 92.21875 586.984375 101.488281 586.984375 117.058594 C 586.984375 121.289062 587.707031 125.699219 589.144531 128.851562 C 594.367188 141 606.605469 142.078125 613.085938 142.078125 C 620.554688 142.078125 623.796875 140.730469 628.566406 138.839844 L 629.105469 138.121094 L 629.734375 127.949219 L 629.105469 127.679688 M 601.835938 111.570312 C 602.105469 108.78125 602.734375 105 606.15625 102.839844 C 607.234375 102.121094 608.496094 101.851562 609.757812 101.851562 C 612.726562 101.851562 614.527344 103.378906 615.515625 105 C 616.777344 106.980469 616.867188 109.140625 616.867188 111.210938 Z M 692.015625 102.300781 C 684.457031 99.148438 680.496094 97.53125 680.496094 93.480469 C 680.496094 90.691406 683.105469 87.179688 689.046875 87.179688 C 695.886719 87.179688 699.933594 89.96875 703.265625 92.21875 L 704.074219 91.859375 L 704.796875 80.070312 L 704.34375 79.441406 C 700.476562 77.820312 696.425781 76.109375 687.695312 76.109375 C 670.777344 76.109375 664.925781 85.648438 664.925781 95.28125 C 664.925781 106.171875 673.386719 110.128906 678.425781 112.558594 L 681.394531 113.910156 C 687.605469 116.519531 692.375 118.769531 692.375 123.539062 C 692.375 126.960938 689.40625 131.011719 681.574219 131.011719 C 673.386719 131.011719 668.796875 127.410156 666.183594 125.339844 L 665.285156 125.609375 L 664.65625 138.300781 L 665.195312 139.019531 C 666.183594 139.378906 667.175781 139.828125 668.164062 140.101562 C 670.234375 140.820312 675.546875 142.351562 682.296875 142.351562 C 684.996094 142.351562 691.835938 142.078125 697.234375 139.558594 C 704.796875 135.871094 708.035156 129.03125 708.035156 121.378906 C 708.035156 116.25 706.054688 110.761719 701.285156 107.070312 C 698.855469 105.269531 696.515625 104.191406 694.355469 103.199219 Z M 741.789062 130.648438 C 740.257812 131.101562 739.175781 131.460938 737.648438 131.460938 C 733.058594 131.460938 732.699219 128.578125 732.515625 127.230469 C 732.246094 124.890625 732.246094 119.941406 732.335938 116.339844 L 732.515625 103.648438 L 740.617188 104.011719 L 741.15625 103.46875 L 742.058594 93.839844 L 741.515625 93.300781 L 732.515625 93.300781 L 732.789062 78.179688 L 732.15625 77.640625 C 726.039062 79.441406 724.417969 79.890625 718.027344 81.511719 L 717.667969 82.140625 L 717.757812 93.390625 L 712.898438 93.210938 L 712.359375 93.660156 L 711.546875 103.289062 L 712.085938 103.828125 L 717.757812 103.648438 L 717.488281 117.960938 C 717.398438 120.210938 717.308594 122.460938 717.308594 124.800781 C 717.308594 133.078125 717.488281 141.988281 731.527344 141.988281 C 735.039062 141.988281 737.828125 141.449219 740.976562 140.910156 L 741.609375 140.28125 L 742.507812 131.011719 Z M 788.496094 114.179688 C 788.585938 106.078125 788.585938 102.570312 786.246094 98.789062 C 784.445312 95.910156 780.847656 92.308594 769.328125 92.308594 C 761.585938 92.308594 756.816406 93.75 751.6875 95.28125 L 751.148438 96 L 750.695312 105.808594 L 751.417969 106.171875 C 754.566406 104.910156 760.417969 102.570312 766.445312 102.570312 C 769.777344 102.570312 771.125 103.109375 772.296875 104.28125 C 773.195312 105.179688 773.46875 106.800781 773.46875 108.148438 C 762.667969 109.589844 757.625 110.578125 752.226562 113.910156 C 747.1875 117.058594 745.476562 122.191406 745.476562 126.238281 C 745.476562 135.871094 752.40625 142.078125 761.226562 142.078125 C 767.976562 142.078125 771.847656 138.839844 773.738281 137.308594 L 773.738281 140.640625 L 774.277344 141.269531 C 780.757812 141 782.738281 140.910156 788.585938 141 L 789.035156 140.371094 C 788.40625 131.550781 788.40625 129.300781 788.40625 120.839844 L 788.496094 114.179688 M 773.648438 128.488281 C 771.757812 129.570312 769.328125 130.828125 766.355469 130.828125 C 763.117188 130.828125 760.417969 129.121094 760.417969 125.339844 C 760.417969 119.398438 767.527344 118.410156 773.648438 117.601562 Z M 824.226562 130.648438 C 822.695312 131.101562 821.613281 131.460938 820.085938 131.460938 C 815.496094 131.460938 815.136719 128.578125 814.953125 127.230469 C 814.683594 124.890625 814.683594 119.941406 814.773438 116.339844 L 814.953125 103.648438 L 823.054688 104.011719 L 823.59375 103.46875 L 824.496094 93.839844 L 823.953125 93.300781 L 814.953125 93.300781 L 815.226562 78.179688 L 814.59375 77.640625 C 808.476562 79.441406 806.855469 79.890625 800.464844 81.511719 L 800.105469 82.140625 L 800.195312 93.390625 L 795.335938 93.210938 L 794.796875 93.660156 L 793.984375 103.289062 L 794.523438 103.828125 L 800.195312 103.648438 L 799.925781 117.960938 C 799.835938 120.210938 799.746094 122.460938 799.746094 124.800781 C 799.746094 133.078125 799.925781 141.988281 813.964844 141.988281 C 817.476562 141.988281 820.265625 141.449219 823.414062 140.910156 L 824.046875 140.28125 L 824.945312 131.011719 Z M 870.84375 127.679688 C 867.425781 129.480469 863.375 131.550781 856.804688 131.550781 C 851.40625 131.550781 847.714844 129.839844 845.554688 126.601562 C 844.203125 124.710938 843.933594 122.910156 843.574219 121.109375 L 872.644531 120.570312 L 873.183594 119.941406 C 873.09375 115.53125 873.003906 111.03125 871.746094 106.53125 C 868.59375 95.910156 861.664062 93.75 858.605469 93.03125 C 856.355469 92.398438 854.285156 92.21875 852.214844 92.21875 C 838.085938 92.21875 828.722656 101.488281 828.722656 117.058594 C 828.722656 121.289062 829.445312 125.699219 830.882812 128.851562 C 836.105469 141 848.34375 142.078125 854.824219 142.078125 C 862.292969 142.078125 865.535156 140.730469 870.304688 138.839844 L 870.84375 138.121094 L 871.472656 127.949219 L 870.84375 127.679688 M 843.574219 111.570312 C 843.84375 108.78125 844.472656 105 847.894531 102.839844 C 848.972656 102.121094 850.234375 101.851562 851.496094 101.851562 C 854.464844 101.851562 856.265625 103.378906 857.253906 105 C 858.515625 106.980469 858.605469 109.140625 858.605469 111.210938 Z M 876.066406 141 "/>
<path fill-rule="nonzero" fill="rgb(34.901961%, 14.901961%, 14.901961%)" fill-opacity="1" d="M 180.769531 236.25 C 186.800781 246.511719 188.152344 249.210938 193.910156 261 L 194.632812 261.449219 C 197.421875 261.269531 200.121094 261.089844 202.910156 261 C 205.703125 260.910156 208.582031 260.820312 211.371094 260.820312 L 211.910156 259.738281 C 208.492188 255.328125 207.5 253.980469 201.019531 243.628906 C 198.140625 239.039062 196.703125 236.609375 194.453125 232.648438 C 198.5 230.851562 206.691406 227.070312 206.691406 215.640625 C 206.691406 211.679688 205.609375 203.488281 198.230469 199.621094 C 193.550781 197.191406 188.691406 197.101562 178.160156 197.28125 L 171.859375 197.371094 L 160.882812 197.371094 L 160.429688 197.910156 C 160.792969 207 161.152344 216.359375 161.152344 240.839844 C 161.152344 249.210938 161.0625 253.261719 160.792969 260.730469 L 161.332031 261.269531 C 167.902344 261 169.339844 260.910156 176.722656 261 L 177.261719 260.460938 C 176.542969 250.019531 176.453125 247.140625 176.359375 236.429688 L 180.769531 236.25 M 176.542969 208.261719 C 177.800781 208.171875 179.0625 208.171875 180.320312 208.171875 C 183.832031 208.171875 190.761719 208.171875 190.761719 216.089844 C 190.761719 218.609375 190.132812 221.941406 186.800781 224.011719 C 184.28125 225.539062 181.042969 225.71875 176.542969 225.808594 Z M 256.640625 247.679688 C 253.222656 249.480469 249.171875 251.550781 242.601562 251.550781 C 237.203125 251.550781 233.511719 249.839844 231.351562 246.601562 C 230 244.710938 229.730469 242.910156 229.371094 241.109375 L 258.441406 240.570312 L 258.980469 239.941406 C 258.890625 235.53125 258.800781 231.03125 257.542969 226.53125 C 254.390625 215.910156 247.460938 213.75 244.402344 213.03125 C 242.152344 212.398438 240.082031 212.21875 238.011719 212.21875 C 223.882812 212.21875 214.519531 221.488281 214.519531 237.058594 C 214.519531 241.289062 215.242188 245.699219 216.679688 248.851562 C 221.902344 261 234.140625 262.078125 240.621094 262.078125 C 248.089844 262.078125 251.332031 260.730469 256.101562 258.839844 L 256.640625 258.121094 L 257.269531 247.949219 L 256.640625 247.679688 M 229.371094 231.570312 C 229.640625 228.78125 230.269531 225 233.691406 222.839844 C 234.769531 222.121094 236.03125 221.851562 237.292969 221.851562 C 240.261719 221.851562 242.0625 223.378906 243.050781 225 C 244.3125 226.980469 244.402344 229.140625 244.402344 231.210938 Z M 302.449219 248.039062 C 300.019531 249.480469 297.679688 250.921875 293.089844 250.921875 C 282.917969 250.921875 280.847656 242.460938 280.847656 237.058594 C 280.847656 230.488281 283.730469 222.929688 292.460938 222.929688 C 296.417969 222.929688 298.578125 224.371094 301.28125 226.171875 L 302.179688 225.898438 C 302.539062 221.128906 302.628906 219.871094 303.347656 215.101562 L 302.898438 214.558594 C 298.9375 213.300781 295.519531 212.21875 290.300781 212.21875 C 269.148438 212.21875 265.007812 228.238281 265.007812 237.421875 C 265.007812 247.769531 270.410156 261.808594 290.660156 261.808594 C 295.429688 261.808594 298.488281 260.910156 302.269531 259.828125 L 302.808594 259.289062 L 303.167969 248.488281 Z M 336.382812 227.609375 L 338.902344 212.941406 L 338.363281 212.308594 C 337.734375 212.308594 337.101562 212.21875 336.472656 212.21875 C 332.78125 212.21875 328.644531 214.289062 325.761719 220.949219 L 326.03125 212.671875 L 325.3125 211.949219 C 318.652344 213.390625 316.941406 213.660156 310.371094 214.648438 L 309.832031 215.191406 C 310.371094 221.941406 310.644531 225.988281 310.644531 238.5 C 310.644531 245.878906 310.550781 253.261719 310.371094 260.730469 L 310.914062 261.269531 C 317.574219 261 319.011719 260.910156 326.210938 261 L 326.664062 260.371094 C 326.300781 253.078125 325.761719 242.910156 325.761719 236.699219 C 325.761719 232.648438 325.761719 226.710938 331.882812 226.710938 C 333.414062 226.710938 334.3125 227.25 335.574219 227.96875 Z M 384.082031 247.679688 C 380.664062 249.480469 376.613281 251.550781 370.042969 251.550781 C 364.644531 251.550781 360.953125 249.839844 358.792969 246.601562 C 357.441406 244.710938 357.171875 242.910156 356.8125 241.109375 L 385.882812 240.570312 L 386.421875 239.941406 C 386.332031 235.53125 386.242188 231.03125 384.984375 226.53125 C 381.832031 215.910156 374.902344 213.75 371.84375 213.03125 C 369.59375 212.398438 367.523438 212.21875 365.453125 212.21875 C 351.324219 212.21875 341.960938 221.488281 341.960938 237.058594 C 341.960938 241.289062 342.683594 245.699219 344.121094 248.851562 C 349.34375 261 361.582031 262.078125 368.0625 262.078125 C 375.53125 262.078125 378.773438 260.730469 383.542969 258.839844 L 384.082031 258.121094 L 384.710938 247.949219 L 384.082031 247.679688 M 356.8125 231.570312 C 357.082031 228.78125 357.710938 225 361.132812 222.839844 C 362.210938 222.121094 363.472656 221.851562 364.734375 221.851562 C 367.703125 221.851562 369.503906 223.378906 370.492188 225 C 371.753906 226.980469 371.84375 229.140625 371.84375 231.210938 Z M 434.75 234.179688 C 434.839844 226.078125 434.839844 222.570312 432.5 218.789062 C 430.699219 215.910156 427.101562 212.308594 415.582031 212.308594 C 407.839844 212.308594 403.070312 213.75 397.941406 215.28125 L 397.402344 216 L 396.949219 225.808594 L 397.671875 226.171875 C 400.820312 224.910156 406.671875 222.570312 412.699219 222.570312 C 416.03125 222.570312 417.378906 223.109375 418.550781 224.28125 C 419.449219 225.179688 419.722656 226.800781 419.722656 228.148438 C 408.921875 229.589844 403.878906 230.578125 398.480469 233.910156 C 393.441406 237.058594 391.730469 242.191406 391.730469 246.238281 C 391.730469 255.871094 398.660156 262.078125 407.480469 262.078125 C 414.230469 262.078125 418.101562 258.839844 419.992188 257.308594 L 419.992188 260.640625 L 420.53125 261.269531 C 427.011719 261 428.992188 260.910156 434.839844 261 L 435.289062 260.371094 C 434.660156 251.550781 434.660156 249.300781 434.660156 240.839844 L 434.75 234.179688 M 419.902344 248.488281 C 418.011719 249.570312 415.582031 250.828125 412.609375 250.828125 C 409.371094 250.828125 406.671875 249.121094 406.671875 245.339844 C 406.671875 239.398438 413.78125 238.410156 419.902344 237.601562 Z M 470.484375 250.648438 C 468.953125 251.101562 467.871094 251.460938 466.34375 251.460938 C 461.753906 251.460938 461.394531 248.578125 461.210938 247.230469 C 460.941406 244.890625 460.941406 239.941406 461.03125 236.339844 L 461.210938 223.648438 L 469.3125 224.011719 L 469.851562 223.46875 L 470.753906 213.839844 L 470.210938 213.300781 L 461.210938 213.300781 L 461.484375 198.179688 L 460.851562 197.640625 C 454.734375 199.441406 453.113281 199.890625 446.722656 201.511719 L 446.363281 202.140625 L 446.453125 213.390625 L 441.59375 213.210938 L 441.054688 213.660156 L 440.242188 223.289062 L 440.78125 223.828125 L 446.453125 223.648438 L 446.183594 237.960938 C 446.09375 240.210938 446.003906 242.460938 446.003906 244.800781 C 446.003906 253.078125 446.183594 261.988281 460.222656 261.988281 C 463.734375 261.988281 466.523438 261.449219 469.671875 260.910156 L 470.304688 260.28125 L 471.203125 251.011719 Z M 493.433594 260.371094 C 492.980469 253.441406 492.621094 248.128906 492.621094 235.710938 C 492.621094 228.058594 492.800781 220.320312 492.890625 212.671875 L 492.261719 211.949219 L 476.78125 214.648438 L 476.242188 215.191406 C 476.960938 222.03125 477.230469 225.179688 477.230469 237.960938 C 477.230469 247.769531 476.960938 253.261719 476.691406 260.640625 L 477.230469 261.269531 C 483.710938 261 485.511719 260.910156 492.800781 261 L 493.433594 260.371094 M 491.992188 203.308594 L 492.261719 191.070312 L 491.722656 190.53125 L 477.050781 192.328125 L 476.511719 192.960938 C 476.691406 196.199219 476.78125 198.089844 476.78125 200.25 C 476.78125 201.960938 476.78125 203.761719 476.691406 205.46875 L 477.320312 206.011719 C 483.441406 204.929688 485.152344 204.75 491.542969 203.941406 Z M 549.230469 237.058594 C 549.230469 233.550781 549.230469 218.96875 536.628906 214.019531 C 532.667969 212.488281 527.988281 212.308594 525.648438 212.308594 C 509.988281 212.308594 501.167969 220.679688 501.167969 237.238281 C 501.167969 243 502.070312 248.851562 505.398438 253.710938 C 507.738281 257.21875 512.148438 262.078125 525.019531 262.078125 C 544.097656 262.078125 549.230469 250.558594 549.230469 237.058594 M 533.660156 236.96875 C 533.660156 244.351562 532.667969 252.539062 525.199219 252.539062 C 522.859375 252.539062 521.238281 251.460938 520.160156 250.46875 C 518.628906 248.941406 516.917969 245.878906 516.917969 237.148438 C 516.917969 234.539062 516.917969 228.78125 518.71875 225.628906 C 520.070312 223.199219 522.410156 221.578125 525.289062 221.578125 C 527.808594 221.578125 529.878906 222.929688 531.050781 224.371094 C 533.210938 226.980469 533.660156 232.109375 533.660156 236.96875 Z M 601.882812 260.371094 C 601.433594 252.449219 601.433594 249.929688 601.253906 241.109375 L 601.253906 234.089844 C 601.164062 225.449219 601.074219 221.308594 598.824219 217.621094 C 596.03125 212.941406 590.902344 212.21875 587.664062 212.21875 C 582.171875 212.21875 577.402344 215.101562 573.261719 217.53125 L 573.441406 212.578125 L 572.542969 211.949219 C 565.613281 213.390625 564.082031 213.660156 557.332031 214.558594 L 556.792969 215.191406 C 557.511719 223.019531 558.054688 228.691406 558.054688 243.359375 C 558.054688 249.121094 557.960938 254.878906 557.871094 260.640625 L 558.414062 261.179688 C 564.894531 260.910156 566.242188 260.910156 573.441406 260.910156 L 573.984375 260.371094 C 573.441406 246.511719 573.351562 243 573.261719 226.890625 C 575.152344 225.628906 577.3125 224.101562 580.191406 224.101562 C 585.144531 224.101562 585.59375 229.410156 585.863281 232.648438 C 586.042969 235.621094 586.132812 247.949219 586.132812 251.371094 C 586.132812 254.429688 586.042969 257.578125 586.042969 260.640625 L 586.582031 261.179688 C 592.523438 261 594.054688 260.910156 601.253906 260.910156 Z M 674.78125 197.191406 C 666.140625 197.460938 664.339844 197.460938 654.710938 197.460938 L 654.078125 198 C 649.308594 213.300781 646.429688 222.390625 633.199219 260.371094 L 633.558594 261 L 647.597656 261 L 648.230469 260.460938 L 652.640625 244.078125 L 672.078125 244.078125 L 675.949219 260.730469 L 676.578125 261.269531 C 683.148438 261 684.949219 260.910156 692.238281 261 L 692.691406 260.28125 C 681.800781 221.761719 680.539062 217.53125 675.410156 197.730469 L 674.78125 197.191406 M 655.789062 233.191406 L 660.289062 217.980469 L 663.441406 207.449219 L 666.140625 219.148438 L 669.46875 233.191406 Z M 724.460938 227.609375 L 726.980469 212.941406 L 726.441406 212.308594 C 725.8125 212.308594 725.179688 212.21875 724.550781 212.21875 C 720.859375 212.21875 716.722656 214.289062 713.839844 220.949219 L 714.109375 212.671875 L 713.390625 211.949219 C 706.730469 213.390625 705.019531 213.660156 698.449219 214.648438 L 697.910156 215.191406 C 698.449219 221.941406 698.722656 225.988281 698.722656 238.5 C 698.722656 245.878906 698.628906 253.261719 698.449219 260.730469 L 698.992188 261.269531 C 705.652344 261 707.089844 260.910156 714.289062 261 L 714.742188 260.371094 C 714.378906 253.078125 713.839844 242.910156 713.839844 236.699219 C 713.839844 232.648438 713.839844 226.710938 719.960938 226.710938 C 721.492188 226.710938 722.390625 227.25 723.652344 227.96875 Z M 772.160156 247.679688 C 768.742188 249.480469 764.691406 251.550781 758.121094 251.550781 C 752.722656 251.550781 749.03125 249.839844 746.871094 246.601562 C 745.519531 244.710938 745.25 242.910156 744.890625 241.109375 L 773.960938 240.570312 L 774.5 239.941406 C 774.410156 235.53125 774.320312 231.03125 773.0625 226.53125 C 769.910156 215.910156 762.980469 213.75 759.921875 213.03125 C 757.671875 212.398438 755.601562 212.21875 753.53125 212.21875 C 739.402344 212.21875 730.039062 221.488281 730.039062 237.058594 C 730.039062 241.289062 730.761719 245.699219 732.199219 248.851562 C 737.421875 261 749.660156 262.078125 756.140625 262.078125 C 763.609375 262.078125 766.851562 260.730469 771.621094 258.839844 L 772.160156 258.121094 L 772.789062 247.949219 L 772.160156 247.679688 M 744.890625 231.570312 C 745.160156 228.78125 745.789062 225 749.210938 222.839844 C 750.289062 222.121094 751.550781 221.851562 752.8125 221.851562 C 755.78125 221.851562 757.582031 223.378906 758.570312 225 C 759.832031 226.980469 759.921875 229.140625 759.921875 231.210938 Z M 822.832031 234.179688 C 822.921875 226.078125 822.921875 222.570312 820.582031 218.789062 C 818.78125 215.910156 815.183594 212.308594 803.664062 212.308594 C 795.921875 212.308594 791.152344 213.75 786.023438 215.28125 L 785.484375 216 L 785.03125 225.808594 L 785.753906 226.171875 C 788.902344 224.910156 794.753906 222.570312 800.78125 222.570312 C 804.113281 222.570312 805.460938 223.109375 806.632812 224.28125 C 807.53125 225.179688 807.804688 226.800781 807.804688 228.148438 C 797.003906 229.589844 791.960938 230.578125 786.5625 233.910156 C 781.523438 237.058594 779.8125 242.191406 779.8125 246.238281 C 779.8125 255.871094 786.742188 262.078125 795.5625 262.078125 C 802.3125 262.078125 806.183594 258.839844 808.074219 257.308594 L 808.074219 260.640625 L 808.613281 261.269531 C 815.09375 261 817.074219 260.910156 822.921875 261 L 823.371094 260.371094 C 822.742188 251.550781 822.742188 249.300781 822.742188 240.839844 L 822.832031 234.179688 M 807.984375 248.488281 C 806.09375 249.570312 803.664062 250.828125 800.691406 250.828125 C 797.453125 250.828125 794.753906 249.121094 794.753906 245.339844 C 794.753906 239.398438 801.863281 238.410156 807.984375 237.601562 Z M 827.960938 261 "/>
</svg>
