<?xml version="1.0" encoding="UTF-8"?>
<svg xmlns="http://www.w3.org/2000/svg" xmlns:xlink="http://www.w3.org/1999/xlink" width="975" height="1300" viewBox="0 0 975 1300">
<path fill-rule="nonzero" fill="rgb(98.823529%, 78.823529%, 9.019608%)" fill-opacity="1" d="M 50 50 L 925 50 L 925 410 L 50 410 Z M 50 50 "/>
<path fill-rule="nonzero" fill="rgb(34.901961%, 14.901961%, 14.901961%)" fill-opacity="1" d="M 176.675781 123.179688 C 176.675781 118.679688 176.765625 114.179688 176.855469 109.589844 L 176.40625 109.050781 L 161.105469 109.320312 L 160.65625 109.859375 C 161.464844 118.679688 161.554688 120.839844 161.375 129.03125 C 158.945312 129.570312 157.148438 130.019531 154.625 130.019531 C 140.675781 130.019531 138.15625 116.699219 138.15625 109.949219 C 138.15625 95.730469 145.804688 87.988281 157.148438 87.988281 C 163.988281 87.988281 168.035156 90.691406 172.265625 93.480469 L 172.988281 93.210938 C 173.4375 87.628906 173.617188 86.191406 174.335938 80.789062 L 173.886719 80.25 C 170.105469 78.628906 164.078125 76.109375 154.714844 76.109375 C 144.457031 76.109375 133.207031 78.988281 126.097656 91.050781 C 122.855469 96.71875 121.507812 104.011719 121.507812 110.039062 C 121.507812 118.5 123.757812 125.609375 127.804688 130.828125 C 133.117188 137.671875 139.6875 139.828125 143.195312 140.820312 C 145.804688 141.539062 149.675781 142.351562 155.257812 142.351562 C 164.527344 142.351562 170.195312 140.460938 176.496094 138.390625 L 176.945312 137.671875 C 176.855469 133.53125 176.675781 129.390625 176.675781 125.25 Z M 226.804688 127.679688 C 223.386719 129.480469 219.335938 131.550781 212.765625 131.550781 C 207.367188 131.550781 203.675781 129.839844 201.515625 126.601562 C 200.164062 124.710938 199.894531 122.910156 199.535156 121.109375 L 228.605469 120.570312 L 229.144531 119.941406 C 229.054688 115.53125 228.964844 111.03125 227.707031 106.53125 C 224.554688 95.910156 217.625 93.75 214.566406 93.03125 C 212.316406 92.398438 210.246094 92.21875 208.175781 92.21875 C 194.046875 92.21875 184.683594 101.488281 184.683594 117.058594 C 184.683594 121.289062 185.40625 125.699219 186.84375 128.851562 C 192.066406 141 204.304688 142.078125 210.785156 142.078125 C 218.253906 142.078125 221.496094 140.730469 226.265625 138.839844 L 226.804688 138.121094 L 227.433594 127.949219 L 226.804688 127.679688 M 199.535156 111.570312 C 199.804688 108.78125 200.433594 105 203.855469 102.839844 C 204.933594 102.121094 206.195312 101.851562 207.457031 101.851562 C 210.425781 101.851562 212.226562 103.378906 213.214844 105 C 214.476562 106.980469 214.566406 109.140625 214.566406 111.210938 Z M 283.238281 117.058594 C 283.238281 113.550781 283.238281 98.96875 270.636719 94.019531 C 266.675781 92.488281 261.996094 92.308594 259.65625 92.308594 C 243.996094 92.308594 235.175781 100.679688 235.175781 117.238281 C 235.175781 123 236.078125 128.851562 239.40625 133.710938 C 241.746094 137.21875 246.15625 142.078125 259.027344 142.078125 C 278.105469 142.078125 283.238281 130.558594 283.238281 117.058594 M 267.667969 116.96875 C 267.667969 124.351562 266.675781 132.539062 259.207031 132.539062 C 256.867188 132.539062 255.246094 131.460938 254.167969 130.46875 C 252.636719 128.941406 250.925781 125.878906 250.925781 117.148438 C 250.925781 114.539062 250.925781 108.78125 252.726562 105.628906 C 254.078125 103.199219 256.417969 101.578125 259.296875 101.578125 C 261.816406 101.578125 263.886719 102.929688 265.058594 104.371094 C 267.21875 106.980469 267.667969 112.109375 267.667969 116.96875 Z M 317.796875 107.609375 L 320.316406 92.941406 L 319.777344 92.308594 C 319.148438 92.308594 318.515625 92.21875 317.886719 92.21875 C 314.195312 92.21875 310.058594 94.289062 307.175781 100.949219 L 307.445312 92.671875 L 306.726562 91.949219 C 300.066406 93.390625 298.355469 93.660156 291.785156 94.648438 L 291.246094 95.191406 C 291.785156 101.941406 292.058594 105.988281 292.058594 118.5 C 292.058594 125.878906 291.964844 133.261719 291.785156 140.730469 L 292.328125 141.269531 C 298.988281 141 300.425781 140.910156 307.625 141 L 308.078125 140.371094 C 307.714844 133.078125 307.175781 122.910156 307.175781 116.699219 C 307.175781 112.648438 307.175781 106.710938 313.296875 106.710938 C 314.828125 106.710938 315.726562 107.25 316.988281 107.96875 Z M 342.097656 125.789062 C 344.976562 125.878906 347.855469 126.058594 352.175781 124.621094 C 356.855469 123 363.695312 119.128906 363.695312 110.398438 C 363.695312 106.078125 362.4375 104.28125 361.265625 102.570312 L 367.476562 102.929688 L 368.015625 102.480469 L 368.648438 93.480469 L 368.105469 93.03125 C 361.175781 93.300781 359.285156 93.390625 353.617188 93.300781 L 349.476562 93.210938 C 343.085938 93.03125 334.535156 92.851562 328.6875 97.710938 C 326.707031 99.238281 322.925781 103.109375 322.925781 109.859375 C 322.925781 113.460938 323.917969 116.339844 325.535156 118.589844 C 327.515625 121.378906 329.316406 122.371094 331.566406 123.628906 C 329.046875 128.488281 327.695312 130.921875 325.625 134.609375 L 325.625 135.421875 L 329.40625 138.121094 C 326.707031 140.191406 322.476562 143.609375 322.476562 149.460938 C 322.476562 153.601562 324.726562 157.199219 328.058594 159.628906 C 333.097656 163.230469 339.9375 163.410156 343.445312 163.410156 C 359.917969 163.410156 367.476562 155.128906 367.476562 146.398438 C 367.476562 135.058594 357.578125 132.898438 351.726562 131.550781 L 349.566406 131.191406 C 345.15625 130.46875 344.167969 130.199219 340.65625 128.941406 L 342.097656 125.789062 M 349.476562 109.589844 C 349.386719 116.878906 344.976562 117.511719 343.714844 117.511719 C 342.996094 117.511719 339.847656 117.328125 338.316406 113.730469 C 337.507812 111.839844 337.507812 109.679688 337.507812 109.050781 C 337.507812 104.550781 340.207031 101.671875 343.535156 101.671875 C 347.675781 101.671875 349.566406 105.628906 349.476562 109.589844 M 341.828125 143.160156 C 349.835938 145.230469 349.925781 145.230469 351.007812 146.128906 C 351.90625 146.761719 352.808594 147.75 352.808594 149.640625 C 352.808594 152.339844 350.558594 155.128906 344.617188 155.128906 C 337.957031 155.128906 335.707031 151.351562 335.707031 148.199219 C 335.707031 145.230469 337.238281 143.519531 338.316406 142.261719 Z M 414.277344 127.679688 C 410.859375 129.480469 406.808594 131.550781 400.238281 131.550781 C 394.839844 131.550781 391.148438 129.839844 388.988281 126.601562 C 387.636719 124.710938 387.367188 122.910156 387.007812 121.109375 L 416.078125 120.570312 L 416.617188 119.941406 C 416.527344 115.53125 416.4375 111.03125 415.179688 106.53125 C 412.027344 95.910156 405.097656 93.75 402.039062 93.03125 C 399.789062 92.398438 397.71875 92.21875 395.648438 92.21875 C 381.519531 92.21875 372.15625 101.488281 372.15625 117.058594 C 372.15625 121.289062 372.878906 125.699219 374.316406 128.851562 C 379.539062 141 391.777344 142.078125 398.257812 142.078125 C 405.726562 142.078125 408.96875 140.730469 413.738281 138.839844 L 414.277344 138.121094 L 414.90625 127.949219 L 414.277344 127.679688 M 387.007812 111.570312 C 387.277344 108.78125 387.90625 105 391.328125 102.839844 C 392.40625 102.121094 393.667969 101.851562 394.929688 101.851562 C 397.898438 101.851562 399.699219 103.378906 400.6875 105 C 401.949219 106.980469 402.039062 109.140625 402.039062 111.210938 Z M 446.046875 141.179688 C 448.296875 141.359375 450.007812 141.539062 452.078125 141.539062 C 472.417969 141.539062 472.417969 129.300781 472.417969 120.300781 C 472.417969 118.050781 472.328125 115.800781 472.238281 113.550781 L 472.238281 77.730469 L 471.789062 77.191406 C 464.855469 77.460938 463.417969 77.460938 455.949219 77.460938 L 455.496094 78 C 455.949219 90.78125 456.308594 101.851562 456.308594 114.898438 C 456.308594 123.179688 456.308594 129.570312 449.378906 129.570312 C 448.027344 129.570312 447.308594 129.300781 446.136719 128.941406 L 445.597656 129.480469 L 445.597656 140.550781 Z M 495.996094 127.140625 L 481.597656 127.410156 L 481.148438 128.128906 L 481.328125 140.640625 L 481.777344 141.269531 L 496.175781 140.910156 L 496.625 140.371094 L 496.445312 127.679688 Z M 585.726562 77.191406 C 578.527344 77.460938 577.359375 77.460938 569.796875 77.460938 L 569.347656 78 C 569.976562 88.171875 569.976562 90.78125 570.066406 101.398438 C 566.109375 101.488281 562.148438 101.578125 558.097656 101.578125 C 554.949219 101.578125 551.707031 101.488281 548.558594 101.488281 L 548.738281 77.730469 L 548.289062 77.191406 C 541.359375 77.460938 540.007812 77.460938 532.179688 77.460938 L 531.636719 78 C 532.089844 87.269531 532.628906 98.339844 532.628906 120.660156 C 532.628906 128.761719 532.449219 133.171875 532.269531 140.730469 L 532.71875 141.269531 C 539.289062 141 540.90625 140.910156 548.828125 141 L 549.277344 140.460938 C 548.738281 129.300781 548.648438 126.058594 548.558594 113.011719 C 552.519531 112.828125 555.847656 112.738281 559.359375 112.738281 C 562.957031 112.738281 566.558594 112.828125 570.15625 112.921875 C 570.339844 125.070312 570.339844 128.039062 569.886719 140.730469 L 570.339844 141.269531 C 577.089844 141 578.886719 140.910156 586.539062 141 L 586.988281 140.460938 C 586.269531 125.339844 585.996094 110.308594 585.996094 95.191406 C 585.996094 88.890625 586.089844 84.660156 586.179688 77.730469 Z M 637.476562 114.179688 C 637.566406 106.078125 637.566406 102.570312 635.226562 98.789062 C 633.425781 95.910156 629.828125 92.308594 618.308594 92.308594 C 610.566406 92.308594 605.796875 93.75 600.667969 95.28125 L 600.128906 96 L 599.675781 105.808594 L 600.398438 106.171875 C 603.546875 104.910156 609.398438 102.570312 615.425781 102.570312 C 618.757812 102.570312 620.105469 103.109375 621.277344 104.28125 C 622.175781 105.179688 622.449219 106.800781 622.449219 108.148438 C 611.648438 109.589844 606.605469 110.578125 601.207031 113.910156 C 596.167969 117.058594 594.457031 122.191406 594.457031 126.238281 C 594.457031 135.871094 601.386719 142.078125 610.207031 142.078125 C 616.957031 142.078125 620.828125 138.839844 622.71875 137.308594 L 622.71875 140.640625 L 623.257812 141.269531 C 629.738281 141 631.71875 140.910156 637.566406 141 L 638.015625 140.371094 C 637.386719 131.550781 637.386719 129.300781 637.386719 120.839844 L 637.476562 114.179688 M 622.628906 128.488281 C 620.738281 129.570312 618.308594 130.828125 615.335938 130.828125 C 612.097656 130.828125 609.398438 129.121094 609.398438 125.339844 C 609.398438 119.398438 616.507812 118.410156 622.628906 117.601562 Z M 673.207031 130.648438 C 671.675781 131.101562 670.59375 131.460938 669.066406 131.460938 C 664.476562 131.460938 664.117188 128.578125 663.933594 127.230469 C 663.664062 124.890625 663.664062 119.941406 663.753906 116.339844 L 663.933594 103.648438 L 672.035156 104.011719 L 672.574219 103.46875 L 673.476562 93.839844 L 672.933594 93.300781 L 663.933594 93.300781 L 664.207031 78.179688 L 663.574219 77.640625 C 657.457031 79.441406 655.835938 79.890625 649.445312 81.511719 L 649.085938 82.140625 L 649.175781 93.390625 L 644.316406 93.210938 L 643.777344 93.660156 L 642.964844 103.289062 L 643.503906 103.828125 L 649.175781 103.648438 L 648.90625 117.960938 C 648.816406 120.210938 648.726562 122.460938 648.726562 124.800781 C 648.726562 133.078125 648.90625 141.988281 662.945312 141.988281 C 666.457031 141.988281 669.246094 141.449219 672.394531 140.910156 L 673.027344 140.28125 L 673.925781 131.011719 Z M 697.863281 140.371094 C 696.964844 123.988281 696.875 119.578125 696.964844 103.648438 L 704.074219 104.011719 L 704.703125 103.378906 L 705.515625 93.839844 L 705.066406 93.300781 L 696.875 93.300781 L 696.964844 91.230469 C 696.964844 85.738281 697.054688 80.699219 702.90625 80.699219 C 703.804688 80.699219 704.703125 80.878906 705.605469 80.96875 L 706.234375 80.609375 L 707.042969 70.441406 L 706.59375 69.808594 C 704.433594 69.628906 702.363281 69.539062 700.292969 69.539062 C 695.703125 69.539062 691.023438 70.078125 687.425781 72.78125 C 681.84375 76.921875 681.933594 83.398438 681.933594 87.898438 L 682.023438 93.300781 L 676.175781 93.210938 L 675.636719 93.660156 L 674.734375 103.199219 L 675.273438 103.738281 L 682.113281 103.558594 C 682.113281 120.570312 682.113281 124.621094 681.574219 140.640625 L 682.113281 141.269531 C 688.234375 141 690.574219 140.910156 697.324219 140.910156 Z M 728.019531 140.371094 C 727.566406 133.441406 727.207031 128.128906 727.207031 115.710938 C 727.207031 108.058594 727.386719 100.320312 727.476562 92.671875 L 726.847656 91.949219 L 711.367188 94.648438 L 710.828125 95.191406 C 711.546875 102.03125 711.816406 105.179688 711.816406 117.960938 C 711.816406 127.769531 711.546875 133.261719 711.277344 140.640625 L 711.816406 141.269531 C 718.296875 141 720.097656 140.910156 727.386719 141 L 728.019531 140.371094 M 726.578125 83.308594 L 726.847656 71.070312 L 726.308594 70.53125 L 711.636719 72.328125 L 711.097656 72.960938 C 711.277344 76.199219 711.367188 78.089844 711.367188 80.25 C 711.367188 81.960938 711.367188 83.761719 711.277344 85.46875 L 711.90625 86.011719 C 718.027344 84.929688 719.738281 84.75 726.128906 83.941406 Z M 777.964844 127.679688 C 774.546875 129.480469 770.496094 131.550781 763.925781 131.550781 C 758.527344 131.550781 754.835938 129.839844 752.675781 126.601562 C 751.324219 124.710938 751.054688 122.910156 750.695312 121.109375 L 779.765625 120.570312 L 780.304688 119.941406 C 780.214844 115.53125 780.125 111.03125 778.867188 106.53125 C 775.714844 95.910156 768.785156 93.75 765.726562 93.03125 C 763.476562 92.398438 761.40625 92.21875 759.335938 92.21875 C 745.207031 92.21875 735.84375 101.488281 735.84375 117.058594 C 735.84375 121.289062 736.566406 125.699219 738.003906 128.851562 C 743.226562 141 755.464844 142.078125 761.945312 142.078125 C 769.414062 142.078125 772.65625 140.730469 777.425781 138.839844 L 777.964844 138.121094 L 778.59375 127.949219 L 777.964844 127.679688 M 750.695312 111.570312 C 750.964844 108.78125 751.59375 105 755.015625 102.839844 C 756.09375 102.121094 757.355469 101.851562 758.617188 101.851562 C 761.585938 101.851562 763.386719 103.378906 764.375 105 C 765.636719 106.980469 765.726562 109.140625 765.726562 111.210938 Z M 804.425781 140.371094 C 803.976562 130.019531 803.527344 120.570312 803.527344 92.128906 C 803.527344 83.578125 803.617188 79.53125 803.976562 69.808594 L 803.347656 69.179688 L 787.957031 71.609375 L 787.597656 72.148438 C 788.496094 83.128906 788.585938 86.101562 788.765625 100.679688 C 788.859375 105.988281 788.859375 111.300781 788.859375 116.609375 C 788.859375 126.328125 788.675781 131.730469 788.316406 140.640625 L 788.859375 141.269531 C 794.886719 141 797.316406 140.910156 803.886719 141 Z M 858.964844 140.460938 C 858.605469 132.359375 858.335938 126.960938 858.335938 115.171875 C 858.335938 91.410156 858.695312 81.601562 859.054688 69.71875 L 858.425781 69.179688 L 843.574219 71.519531 L 843.125 72.058594 C 843.664062 80.519531 843.753906 82.769531 843.664062 93.03125 C 836.914062 92.851562 828.453125 92.671875 821.613281 98.070312 C 815.316406 102.929688 812.703125 110.398438 812.703125 119.671875 C 812.703125 126.691406 814.59375 133.710938 819.90625 138.121094 C 823.863281 141.359375 828.726562 142.078125 831.695312 142.078125 C 838.085938 142.078125 841.414062 139.109375 843.574219 137.21875 L 843.394531 140.730469 L 843.84375 141.269531 C 850.054688 141 851.765625 141 858.515625 141 L 858.964844 140.460938 M 843.664062 103.828125 C 843.753906 115.800781 843.664062 118.140625 843.394531 129.03125 C 841.59375 130.109375 839.792969 131.191406 837.273438 131.191406 C 828.542969 131.191406 828.542969 120.03125 828.542969 118.230469 C 828.542969 111.300781 830.523438 103.558594 840.605469 103.558594 C 841.59375 103.558594 842.40625 103.648438 843.664062 103.828125 Z M 863.828125 141 "/>
<path fill-rule="nonzero" fill="rgb(34.901961%, 14.901961%, 14.901961%)" fill-opacity="1" d="M 175.640625 222.300781 C 168.082031 219.148438 164.121094 217.53125 164.121094 213.480469 C 164.121094 210.691406 166.730469 207.179688 172.671875 207.179688 C 179.511719 207.179688 183.558594 209.96875 186.890625 212.21875 L 187.699219 211.859375 L 188.421875 200.070312 L 187.96875 199.441406 C 184.101562 197.820312 180.050781 196.109375 171.320312 196.109375 C 154.402344 196.109375 148.550781 205.648438 148.550781 215.28125 C 148.550781 226.171875 157.011719 230.128906 162.050781 232.558594 L 165.019531 233.910156 C 171.230469 236.519531 176 238.769531 176 243.539062 C 176 246.960938 173.03125 251.011719 165.199219 251.011719 C 157.011719 251.011719 152.421875 247.410156 149.808594 245.339844 L 148.910156 245.609375 L 148.28125 258.300781 L 148.820312 259.019531 C 149.808594 259.378906 150.800781 259.828125 151.789062 260.101562 C 153.859375 260.820312 159.171875 262.351562 165.921875 262.351562 C 168.621094 262.351562 175.460938 262.078125 180.859375 259.558594 C 188.421875 255.871094 191.660156 249.03125 191.660156 241.378906 C 191.660156 236.25 189.679688 230.761719 184.910156 227.070312 C 182.480469 225.269531 180.140625 224.191406 177.980469 223.199219 Z M 225.410156 250.648438 C 223.878906 251.101562 222.796875 251.460938 221.269531 251.460938 C 216.679688 251.460938 216.320312 248.578125 216.136719 247.230469 C 215.867188 244.890625 215.867188 239.941406 215.957031 236.339844 L 216.136719 223.648438 L 224.238281 224.011719 L 224.777344 223.46875 L 225.679688 213.839844 L 225.136719 213.300781 L 216.136719 213.300781 L 216.410156 198.179688 L 215.777344 197.640625 C 209.660156 199.441406 208.039062 199.890625 201.648438 201.511719 L 201.289062 202.140625 L 201.378906 213.390625 L 196.519531 213.210938 L 195.980469 213.660156 L 195.167969 223.289062 L 195.707031 223.828125 L 201.378906 223.648438 L 201.109375 237.960938 C 201.019531 240.210938 200.929688 242.460938 200.929688 244.800781 C 200.929688 253.078125 201.109375 261.988281 215.148438 261.988281 C 218.660156 261.988281 221.449219 261.449219 224.597656 260.910156 L 225.230469 260.28125 L 226.128906 251.011719 Z M 272.121094 234.179688 C 272.210938 226.078125 272.210938 222.570312 269.871094 218.789062 C 268.070312 215.910156 264.472656 212.308594 252.953125 212.308594 C 245.210938 212.308594 240.441406 213.75 235.3125 215.28125 L 234.773438 216 L 234.320312 225.808594 L 235.042969 226.171875 C 238.191406 224.910156 244.042969 222.570312 250.070312 222.570312 C 253.402344 222.570312 254.75 223.109375 255.921875 224.28125 C 256.820312 225.179688 257.09375 226.800781 257.09375 228.148438 C 246.292969 229.589844 241.25 230.578125 235.851562 233.910156 C 230.8125 237.058594 229.101562 242.191406 229.101562 246.238281 C 229.101562 255.871094 236.03125 262.078125 244.851562 262.078125 C 251.601562 262.078125 255.472656 258.839844 257.363281 257.308594 L 257.363281 260.640625 L 257.902344 261.269531 C 264.382812 261 266.363281 260.910156 272.210938 261 L 272.660156 260.371094 C 272.03125 251.550781 272.03125 249.300781 272.03125 240.839844 L 272.121094 234.179688 M 257.273438 248.488281 C 255.382812 249.570312 252.953125 250.828125 249.980469 250.828125 C 246.742188 250.828125 244.042969 249.121094 244.042969 245.339844 C 244.042969 239.398438 251.152344 238.410156 257.273438 237.601562 Z M 307.851562 250.648438 C 306.320312 251.101562 305.238281 251.460938 303.710938 251.460938 C 299.121094 251.460938 298.761719 248.578125 298.578125 247.230469 C 298.308594 244.890625 298.308594 239.941406 298.398438 236.339844 L 298.578125 223.648438 L 306.679688 224.011719 L 307.21875 223.46875 L 308.121094 213.839844 L 307.578125 213.300781 L 298.578125 213.300781 L 298.851562 198.179688 L 298.21875 197.640625 C 292.101562 199.441406 290.480469 199.890625 284.089844 201.511719 L 283.730469 202.140625 L 283.820312 213.390625 L 278.960938 213.210938 L 278.421875 213.660156 L 277.609375 223.289062 L 278.148438 223.828125 L 283.820312 223.648438 L 283.550781 237.960938 C 283.460938 240.210938 283.371094 242.460938 283.371094 244.800781 C 283.371094 253.078125 283.550781 261.988281 297.589844 261.988281 C 301.101562 261.988281 303.890625 261.449219 307.039062 260.910156 L 307.671875 260.28125 L 308.570312 251.011719 Z M 354.46875 247.679688 C 351.050781 249.480469 347 251.550781 340.429688 251.550781 C 335.03125 251.550781 331.339844 249.839844 329.179688 246.601562 C 327.828125 244.710938 327.558594 242.910156 327.199219 241.109375 L 356.269531 240.570312 L 356.808594 239.941406 C 356.71875 235.53125 356.628906 231.03125 355.371094 226.53125 C 352.21875 215.910156 345.289062 213.75 342.230469 213.03125 C 339.980469 212.398438 337.910156 212.21875 335.839844 212.21875 C 321.710938 212.21875 312.347656 221.488281 312.347656 237.058594 C 312.347656 241.289062 313.070312 245.699219 314.507812 248.851562 C 319.730469 261 331.96875 262.078125 338.449219 262.078125 C 345.917969 262.078125 349.160156 260.730469 353.929688 258.839844 L 354.46875 258.121094 L 355.097656 247.949219 L 354.46875 247.679688 M 327.199219 231.570312 C 327.46875 228.78125 328.097656 225 331.519531 222.839844 C 332.597656 222.121094 333.859375 221.851562 335.121094 221.851562 C 338.089844 221.851562 339.890625 223.378906 340.878906 225 C 342.140625 226.980469 342.230469 229.140625 342.230469 231.210938 Z M 411.707031 236.25 C 417.738281 246.511719 419.089844 249.210938 424.847656 261 L 425.570312 261.449219 C 428.359375 261.269531 431.058594 261.089844 433.847656 261 C 436.640625 260.910156 439.519531 260.820312 442.308594 260.820312 L 442.847656 259.738281 C 439.429688 255.328125 438.4375 253.980469 431.957031 243.628906 C 429.078125 239.039062 427.640625 236.609375 425.390625 232.648438 C 429.4375 230.851562 437.628906 227.070312 437.628906 215.640625 C 437.628906 211.679688 436.546875 203.488281 429.167969 199.621094 C 424.488281 197.191406 419.628906 197.101562 409.097656 197.28125 L 402.796875 197.371094 L 391.820312 197.371094 L 391.367188 197.910156 C 391.730469 207 392.089844 216.359375 392.089844 240.839844 C 392.089844 249.210938 392 253.261719 391.730469 260.730469 L 392.269531 261.269531 C 398.839844 261 400.277344 260.910156 407.660156 261 L 408.199219 260.460938 C 407.480469 250.019531 407.390625 247.140625 407.296875 236.429688 L 411.707031 236.25 M 407.480469 208.261719 C 408.738281 208.171875 410 208.171875 411.257812 208.171875 C 414.769531 208.171875 421.699219 208.171875 421.699219 216.089844 C 421.699219 218.609375 421.070312 221.941406 417.738281 224.011719 C 415.21875 225.539062 411.980469 225.71875 407.480469 225.808594 Z M 487.578125 247.679688 C 484.160156 249.480469 480.109375 251.550781 473.539062 251.550781 C 468.140625 251.550781 464.449219 249.839844 462.289062 246.601562 C 460.9375 244.710938 460.667969 242.910156 460.308594 241.109375 L 489.378906 240.570312 L 489.917969 239.941406 C 489.828125 235.53125 489.738281 231.03125 488.480469 226.53125 C 485.328125 215.910156 478.398438 213.75 475.339844 213.03125 C 473.089844 212.398438 471.019531 212.21875 468.949219 212.21875 C 454.820312 212.21875 445.457031 221.488281 445.457031 237.058594 C 445.457031 241.289062 446.179688 245.699219 447.617188 248.851562 C 452.839844 261 465.078125 262.078125 471.558594 262.078125 C 479.027344 262.078125 482.269531 260.730469 487.039062 258.839844 L 487.578125 258.121094 L 488.207031 247.949219 L 487.578125 247.679688 M 460.308594 231.570312 C 460.578125 228.78125 461.207031 225 464.628906 222.839844 C 465.707031 222.121094 466.96875 221.851562 468.230469 221.851562 C 471.199219 221.851562 473 223.378906 473.988281 225 C 475.25 226.980469 475.339844 229.140625 475.339844 231.210938 Z M 533.390625 248.039062 C 530.960938 249.480469 528.621094 250.921875 524.03125 250.921875 C 513.859375 250.921875 511.789062 242.460938 511.789062 237.058594 C 511.789062 230.488281 514.671875 222.929688 523.402344 222.929688 C 527.359375 222.929688 529.519531 224.371094 532.222656 226.171875 L 533.121094 225.898438 C 533.480469 221.128906 533.570312 219.871094 534.289062 215.101562 L 533.839844 214.558594 C 529.878906 213.300781 526.460938 212.21875 521.242188 212.21875 C 500.089844 212.21875 495.949219 228.238281 495.949219 237.421875 C 495.949219 247.769531 501.351562 261.808594 521.601562 261.808594 C 526.371094 261.808594 529.429688 260.910156 533.210938 259.828125 L 533.75 259.289062 L 534.109375 248.488281 Z M 567.320312 227.609375 L 569.839844 212.941406 L 569.300781 212.308594 C 568.671875 212.308594 568.039062 212.21875 567.410156 212.21875 C 563.71875 212.21875 559.582031 214.289062 556.699219 220.949219 L 556.96875 212.671875 L 556.25 211.949219 C 549.589844 213.390625 547.878906 213.660156 541.308594 214.648438 L 540.769531 215.191406 C 541.308594 221.941406 541.582031 225.988281 541.582031 238.5 C 541.582031 245.878906 541.488281 253.261719 541.308594 260.730469 L 541.851562 261.269531 C 548.511719 261 549.949219 260.910156 557.148438 261 L 557.601562 260.371094 C 557.238281 253.078125 556.699219 242.910156 556.699219 236.699219 C 556.699219 232.648438 556.699219 226.710938 562.820312 226.710938 C 564.351562 226.710938 565.25 227.25 566.511719 227.96875 Z M 615.019531 247.679688 C 611.601562 249.480469 607.550781 251.550781 600.980469 251.550781 C 595.582031 251.550781 591.890625 249.839844 589.730469 246.601562 C 588.378906 244.710938 588.109375 242.910156 587.75 241.109375 L 616.820312 240.570312 L 617.359375 239.941406 C 617.269531 235.53125 617.179688 231.03125 615.921875 226.53125 C 612.769531 215.910156 605.839844 213.75 602.78125 213.03125 C 600.53125 212.398438 598.460938 212.21875 596.390625 212.21875 C 582.261719 212.21875 572.898438 221.488281 572.898438 237.058594 C 572.898438 241.289062 573.621094 245.699219 575.058594 248.851562 C 580.28125 261 592.519531 262.078125 599 262.078125 C 606.46875 262.078125 609.710938 260.730469 614.480469 258.839844 L 615.019531 258.121094 L 615.648438 247.949219 L 615.019531 247.679688 M 587.75 231.570312 C 588.019531 228.78125 588.648438 225 592.070312 222.839844 C 593.148438 222.121094 594.410156 221.851562 595.671875 221.851562 C 598.640625 221.851562 600.441406 223.378906 601.429688 225 C 602.691406 226.980469 602.78125 229.140625 602.78125 231.210938 Z M 665.691406 234.179688 C 665.78125 226.078125 665.78125 222.570312 663.441406 218.789062 C 661.640625 215.910156 658.042969 212.308594 646.523438 212.308594 C 638.78125 212.308594 634.011719 213.75 628.882812 215.28125 L 628.34375 216 L 627.890625 225.808594 L 628.613281 226.171875 C 631.761719 224.910156 637.613281 222.570312 643.640625 222.570312 C 646.972656 222.570312 648.320312 223.109375 649.492188 224.28125 C 650.390625 225.179688 650.664062 226.800781 650.664062 228.148438 C 639.863281 229.589844 634.820312 230.578125 629.421875 233.910156 C 624.382812 237.058594 622.671875 242.191406 622.671875 246.238281 C 622.671875 255.871094 629.601562 262.078125 638.421875 262.078125 C 645.171875 262.078125 649.042969 258.839844 650.933594 257.308594 L 650.933594 260.640625 L 651.472656 261.269531 C 657.953125 261 659.933594 260.910156 665.78125 261 L 666.230469 260.371094 C 665.601562 251.550781 665.601562 249.300781 665.601562 240.839844 L 665.691406 234.179688 M 650.84375 248.488281 C 648.953125 249.570312 646.523438 250.828125 643.550781 250.828125 C 640.3125 250.828125 637.613281 249.121094 637.613281 245.339844 C 637.613281 239.398438 644.722656 238.410156 650.84375 237.601562 Z M 701.421875 250.648438 C 699.890625 251.101562 698.808594 251.460938 697.28125 251.460938 C 692.691406 251.460938 692.332031 248.578125 692.148438 247.230469 C 691.878906 244.890625 691.878906 239.941406 691.96875 236.339844 L 692.148438 223.648438 L 700.25 224.011719 L 700.789062 223.46875 L 701.691406 213.839844 L 701.148438 213.300781 L 692.148438 213.300781 L 692.421875 198.179688 L 691.789062 197.640625 C 685.671875 199.441406 684.050781 199.890625 677.660156 201.511719 L 677.300781 202.140625 L 677.390625 213.390625 L 672.53125 213.210938 L 671.992188 213.660156 L 671.179688 223.289062 L 671.71875 223.828125 L 677.390625 223.648438 L 677.121094 237.960938 C 677.03125 240.210938 676.941406 242.460938 676.941406 244.800781 C 676.941406 253.078125 677.121094 261.988281 691.160156 261.988281 C 694.671875 261.988281 697.460938 261.449219 700.609375 260.910156 L 701.242188 260.28125 L 702.140625 251.011719 Z M 724.371094 260.371094 C 723.917969 253.441406 723.558594 248.128906 723.558594 235.710938 C 723.558594 228.058594 723.738281 220.320312 723.828125 212.671875 L 723.199219 211.949219 L 707.71875 214.648438 L 707.179688 215.191406 C 707.898438 222.03125 708.167969 225.179688 708.167969 237.960938 C 708.167969 247.769531 707.898438 253.261719 707.628906 260.640625 L 708.167969 261.269531 C 714.648438 261 716.449219 260.910156 723.738281 261 L 724.371094 260.371094 M 722.929688 203.308594 L 723.199219 191.070312 L 722.660156 190.53125 L 707.988281 192.328125 L 707.449219 192.960938 C 707.628906 196.199219 707.71875 198.089844 707.71875 200.25 C 707.71875 201.960938 707.71875 203.761719 707.628906 205.46875 L 708.257812 206.011719 C 714.378906 204.929688 716.089844 204.75 722.480469 203.941406 Z M 780.171875 237.058594 C 780.171875 233.550781 780.171875 218.96875 767.570312 214.019531 C 763.609375 212.488281 758.929688 212.308594 756.589844 212.308594 C 740.929688 212.308594 732.109375 220.679688 732.109375 237.238281 C 732.109375 243 733.011719 248.851562 736.339844 253.710938 C 738.679688 257.21875 743.089844 262.078125 755.960938 262.078125 C 775.039062 262.078125 780.171875 250.558594 780.171875 237.058594 M 764.601562 236.96875 C 764.601562 244.351562 763.609375 252.539062 756.140625 252.539062 C 753.800781 252.539062 752.179688 251.460938 751.101562 250.46875 C 749.570312 248.941406 747.859375 245.878906 747.859375 237.148438 C 747.859375 234.539062 747.859375 228.78125 749.660156 225.628906 C 751.011719 223.199219 753.351562 221.578125 756.230469 221.578125 C 758.75 221.578125 760.820312 222.929688 761.992188 224.371094 C 764.152344 226.980469 764.601562 232.109375 764.601562 236.96875 Z M 832.820312 260.371094 C 832.371094 252.449219 832.371094 249.929688 832.191406 241.109375 L 832.191406 234.089844 C 832.101562 225.449219 832.011719 221.308594 829.761719 217.621094 C 826.96875 212.941406 821.839844 212.21875 818.601562 212.21875 C 813.109375 212.21875 808.339844 215.101562 804.199219 217.53125 L 804.378906 212.578125 L 803.480469 211.949219 C 796.550781 213.390625 795.019531 213.660156 788.269531 214.558594 L 787.730469 215.191406 C 788.449219 223.019531 788.992188 228.691406 788.992188 243.359375 C 788.992188 249.121094 788.898438 254.878906 788.808594 260.640625 L 789.351562 261.179688 C 795.832031 260.910156 797.179688 260.910156 804.378906 260.910156 L 804.921875 260.371094 C 804.378906 246.511719 804.289062 243 804.199219 226.890625 C 806.089844 225.628906 808.25 224.101562 811.128906 224.101562 C 816.082031 224.101562 816.53125 229.410156 816.800781 232.648438 C 816.980469 235.621094 817.070312 247.949219 817.070312 251.371094 C 817.070312 254.429688 816.980469 257.578125 816.980469 260.640625 L 817.519531 261.179688 C 823.460938 261 824.992188 260.910156 832.191406 260.910156 Z M 837.679688 261 "/>
<path fill-rule="nonzero" fill="rgb(34.901961%, 14.901961%, 14.901961%)" fill-opacity="1" d="M 433.175781 317.191406 C 424.535156 317.460938 422.734375 317.460938 413.105469 317.460938 L 412.472656 318 C 407.703125 333.300781 404.824219 342.390625 391.59375 380.371094 L 391.953125 381 L 405.992188 381 L 406.625 380.460938 L 411.035156 364.078125 L 430.472656 364.078125 L 434.34375 380.730469 L 434.972656 381.269531 C 441.542969 381 443.34375 380.910156 450.632812 381 L 451.085938 380.28125 C 440.195312 341.761719 438.933594 337.53125 433.804688 317.730469 L 433.175781 317.191406 M 414.183594 353.191406 L 418.683594 337.980469 L 421.835938 327.449219 L 424.535156 339.148438 L 427.863281 353.191406 Z M 482.855469 347.609375 L 485.375 332.941406 L 484.835938 332.308594 C 484.207031 332.308594 483.574219 332.21875 482.945312 332.21875 C 479.253906 332.21875 475.117188 334.289062 472.234375 340.949219 L 472.503906 332.671875 L 471.785156 331.949219 C 465.125 333.390625 463.414062 333.660156 456.84375 334.648438 L 456.304688 335.191406 C 456.84375 341.941406 457.117188 345.988281 457.117188 358.5 C 457.117188 365.878906 457.023438 373.261719 456.84375 380.730469 L 457.386719 381.269531 C 464.046875 381 465.484375 380.910156 472.683594 381 L 473.136719 380.371094 C 472.773438 373.078125 472.234375 362.910156 472.234375 356.699219 C 472.234375 352.648438 472.234375 346.710938 478.355469 346.710938 C 479.886719 346.710938 480.785156 347.25 482.046875 347.96875 Z M 530.554688 367.679688 C 527.136719 369.480469 523.085938 371.550781 516.515625 371.550781 C 511.117188 371.550781 507.425781 369.839844 505.265625 366.601562 C 503.914062 364.710938 503.644531 362.910156 503.285156 361.109375 L 532.355469 360.570312 L 532.894531 359.941406 C 532.804688 355.53125 532.714844 351.03125 531.457031 346.53125 C 528.304688 335.910156 521.375 333.75 518.316406 333.03125 C 516.066406 332.398438 513.996094 332.21875 511.925781 332.21875 C 497.796875 332.21875 488.433594 341.488281 488.433594 357.058594 C 488.433594 361.289062 489.15625 365.699219 490.59375 368.851562 C 495.816406 381 508.054688 382.078125 514.535156 382.078125 C 522.003906 382.078125 525.246094 380.730469 530.015625 378.839844 L 530.554688 378.121094 L 531.183594 367.949219 L 530.554688 367.679688 M 503.285156 351.570312 C 503.554688 348.78125 504.183594 345 507.605469 342.839844 C 508.683594 342.121094 509.945312 341.851562 511.207031 341.851562 C 514.175781 341.851562 515.976562 343.378906 516.964844 345 C 518.226562 346.980469 518.316406 349.140625 518.316406 351.210938 Z M 581.222656 354.179688 C 581.3125 346.078125 581.3125 342.570312 578.972656 338.789062 C 577.171875 335.910156 573.574219 332.308594 562.054688 332.308594 C 554.3125 332.308594 549.542969 333.75 544.414062 335.28125 L 543.875 336 L 543.421875 345.808594 L 544.144531 346.171875 C 547.292969 344.910156 553.144531 342.570312 559.171875 342.570312 C 562.503906 342.570312 563.851562 343.109375 565.023438 344.28125 C 565.921875 345.179688 566.195312 346.800781 566.195312 348.148438 C 555.394531 349.589844 550.351562 350.578125 544.953125 353.910156 C 539.914062 357.058594 538.203125 362.191406 538.203125 366.238281 C 538.203125 375.871094 545.132812 382.078125 553.953125 382.078125 C 560.703125 382.078125 564.574219 378.839844 566.464844 377.308594 L 566.464844 380.640625 L 567.003906 381.269531 C 573.484375 381 575.464844 380.910156 581.3125 381 L 581.761719 380.371094 C 581.132812 371.550781 581.132812 369.300781 581.132812 360.839844 L 581.222656 354.179688 M 566.375 368.488281 C 564.484375 369.570312 562.054688 370.828125 559.082031 370.828125 C 555.84375 370.828125 553.144531 369.121094 553.144531 365.339844 C 553.144531 359.398438 560.253906 358.410156 566.375 357.601562 Z M 586.355469 381 "/>
</svg>
