<?xml version="1.0" encoding="UTF-8"?>
<svg xmlns="http://www.w3.org/2000/svg" xmlns:xlink="http://www.w3.org/1999/xlink" width="975" height="1300" viewBox="0 0 975 1300">
<path fill-rule="nonzero" fill="rgb(98.823529%, 78.823529%, 9.019608%)" fill-opacity="1" d="M 50 50 L 925 50 L 925 410 L 50 410 Z M 50 50 "/>
<path fill-rule="nonzero" fill="rgb(34.901961%, 14.901961%, 14.901961%)" fill-opacity="1" d="M 133.65625 102.300781 C 126.097656 99.148438 122.136719 97.53125 122.136719 93.480469 C 122.136719 90.691406 124.746094 87.179688 130.6875 87.179688 C 137.527344 87.179688 141.574219 89.96875 144.90625 92.21875 L 145.714844 91.859375 L 146.4375 80.070312 L 145.984375 79.441406 C 142.117188 77.820312 138.066406 76.109375 129.335938 76.109375 C 112.417969 76.109375 106.566406 85.648438 106.566406 95.28125 C 106.566406 106.171875 115.027344 110.128906 120.066406 112.558594 L 123.035156 113.910156 C 129.246094 116.519531 134.015625 118.769531 134.015625 123.539062 C 134.015625 126.960938 131.046875 131.011719 123.214844 131.011719 C 115.027344 131.011719 110.4375 127.410156 107.824219 125.339844 L 106.925781 125.609375 L 106.296875 138.300781 L 106.835938 139.019531 C 107.824219 139.378906 108.816406 139.828125 109.804688 140.101562 C 111.875 140.820312 117.1875 142.351562 123.9375 142.351562 C 126.636719 142.351562 133.476562 142.078125 138.875 139.558594 C 146.4375 135.871094 149.675781 129.03125 149.675781 121.378906 C 149.675781 116.25 147.695312 110.761719 142.925781 107.070312 C 140.496094 105.269531 138.15625 104.191406 135.996094 103.199219 Z M 198.273438 114.179688 C 198.363281 106.078125 198.363281 102.570312 196.023438 98.789062 C 194.222656 95.910156 190.625 92.308594 179.105469 92.308594 C 171.363281 92.308594 166.59375 93.75 161.464844 95.28125 L 160.925781 96 L 160.472656 105.808594 L 161.195312 106.171875 C 164.34375 104.910156 170.195312 102.570312 176.222656 102.570312 C 179.554688 102.570312 180.902344 103.109375 182.074219 104.28125 C 182.972656 105.179688 183.246094 106.800781 183.246094 108.148438 C 172.445312 109.589844 167.402344 110.578125 162.003906 113.910156 C 156.964844 117.058594 155.253906 122.191406 155.253906 126.238281 C 155.253906 135.871094 162.183594 142.078125 171.003906 142.078125 C 177.753906 142.078125 181.625 138.839844 183.515625 137.308594 L 183.515625 140.640625 L 184.054688 141.269531 C 190.535156 141 192.515625 140.910156 198.363281 141 L 198.8125 140.371094 C 198.183594 131.550781 198.183594 129.300781 198.183594 120.839844 L 198.273438 114.179688 M 183.425781 128.488281 C 181.535156 129.570312 179.105469 130.828125 176.132812 130.828125 C 172.894531 130.828125 170.195312 129.121094 170.195312 125.339844 C 170.195312 119.398438 177.304688 118.410156 183.425781 117.601562 Z M 252.90625 140.371094 C 252.457031 132.449219 252.457031 129.929688 252.277344 121.109375 L 252.277344 114.089844 C 252.1875 105.449219 252.097656 101.308594 249.847656 97.621094 C 247.054688 92.941406 241.925781 92.21875 238.6875 92.21875 C 233.195312 92.21875 228.425781 95.101562 224.285156 97.53125 L 224.464844 92.578125 L 223.566406 91.949219 C 216.636719 93.390625 215.105469 93.660156 208.355469 94.558594 L 207.816406 95.191406 C 208.535156 103.019531 209.078125 108.691406 209.078125 123.359375 C 209.078125 129.121094 208.984375 134.878906 208.894531 140.640625 L 209.4375 141.179688 C 215.917969 140.910156 217.265625 140.910156 224.464844 140.910156 L 225.007812 140.371094 C 224.464844 126.511719 224.375 123 224.285156 106.890625 C 226.175781 105.628906 228.335938 104.101562 231.214844 104.101562 C 236.167969 104.101562 236.617188 109.410156 236.886719 112.648438 C 237.066406 115.621094 237.15625 127.949219 237.15625 131.371094 C 237.15625 134.429688 237.066406 137.578125 237.066406 140.640625 L 237.605469 141.179688 C 243.546875 141 245.078125 140.910156 252.277344 140.910156 Z M 328.148438 128.671875 C 318.335938 129.210938 310.507812 129.390625 307.808594 129.390625 L 306.007812 129.390625 C 305.828125 105.359375 305.917969 99.238281 306.636719 77.730469 L 306.097656 77.191406 C 298.355469 77.550781 296.285156 77.550781 290.078125 77.460938 L 289.535156 78 C 289.898438 85.199219 289.988281 87.359375 289.988281 98.070312 C 289.988281 112.289062 289.898438 126.511719 289.898438 140.730469 L 290.347656 141.269531 C 307.988281 141 311.226562 141 327.425781 141 L 327.875 140.460938 L 328.597656 129.121094 Z M 379.539062 92.851562 L 364.867188 93.570312 L 364.238281 94.109375 C 364.867188 104.28125 364.867188 118.679688 364.867188 120.121094 C 364.867188 122.730469 364.867188 124.171875 364.777344 127.769531 C 362.347656 129.390625 360.457031 130.738281 358.027344 130.738281 C 351.546875 130.738281 351.546875 123.898438 351.546875 118.589844 C 351.546875 116.339844 351.546875 114 351.636719 111.75 L 351.816406 93.570312 L 351.1875 92.851562 L 336.335938 93.570312 L 335.707031 94.109375 C 336.246094 101.671875 336.335938 104.191406 336.335938 113.28125 L 336.335938 119.578125 C 336.246094 129.390625 336.699219 133.53125 339.9375 137.308594 C 342.90625 140.640625 347.226562 142.078125 351.726562 142.078125 C 358.117188 142.078125 361.808594 139.199219 365.046875 136.679688 L 364.957031 140.730469 L 365.585938 141.269531 C 372.15625 141 374.136719 141 379.988281 141 L 380.527344 140.460938 C 380.078125 134.070312 379.898438 130.648438 379.898438 118.949219 C 379.898438 110.488281 379.988281 102.03125 380.167969 93.570312 Z M 406.988281 140.371094 C 406.535156 133.441406 406.175781 128.128906 406.175781 115.710938 C 406.175781 108.058594 406.355469 100.320312 406.445312 92.671875 L 405.816406 91.949219 L 390.335938 94.648438 L 389.796875 95.191406 C 390.515625 102.03125 390.785156 105.179688 390.785156 117.960938 C 390.785156 127.769531 390.515625 133.261719 390.246094 140.640625 L 390.785156 141.269531 C 397.265625 141 399.066406 140.910156 406.355469 141 L 406.988281 140.371094 M 405.546875 83.308594 L 405.816406 71.070312 L 405.277344 70.53125 L 390.605469 72.328125 L 390.066406 72.960938 C 390.246094 76.199219 390.335938 78.089844 390.335938 80.25 C 390.335938 81.960938 390.335938 83.761719 390.246094 85.46875 L 390.875 86.011719 C 396.996094 84.929688 398.707031 84.75 405.097656 83.941406 Z M 435.875 109.949219 C 432.8125 108.871094 430.382812 107.878906 430.382812 105.359375 C 430.382812 104.28125 431.105469 101.308594 436.683594 101.308594 C 442.175781 101.308594 445.683594 103.648438 447.933594 105.089844 L 448.746094 104.820312 L 449.644531 95.011719 L 449.195312 94.46875 C 444.964844 93.300781 441.273438 92.21875 435.425781 92.21875 C 431.015625 92.21875 422.195312 92.578125 417.515625 99.328125 C 416.34375 100.949219 415.085938 103.648438 415.085938 107.25 C 415.085938 116.878906 422.554688 119.761719 426.785156 121.378906 L 430.203125 122.640625 C 432.632812 123.449219 436.59375 124.800781 436.59375 128.039062 C 436.59375 130.289062 434.523438 132.71875 429.484375 132.71875 C 426.964844 132.71875 423.273438 131.910156 419.945312 130.199219 C 418.414062 129.390625 417.695312 128.761719 416.34375 127.679688 L 415.535156 128.039062 C 415.355469 132.71875 415.265625 133.710938 414.902344 138.210938 L 415.355469 139.019531 C 419.765625 140.640625 423.542969 142.078125 430.113281 142.078125 C 436.953125 142.078125 450.453125 140.820312 452.074219 127.949219 C 452.164062 127.230469 452.164062 126.601562 452.164062 125.96875 C 452.164062 116.070312 445.234375 113.460938 440.285156 111.570312 Z M 506.703125 116.25 C 512.734375 126.511719 514.085938 129.210938 519.84375 141 L 520.566406 141.449219 C 523.355469 141.269531 526.054688 141.089844 528.84375 141 C 531.636719 140.910156 534.515625 140.820312 537.304688 140.820312 L 537.84375 139.738281 C 534.425781 135.328125 533.433594 133.980469 526.953125 123.628906 C 524.074219 119.039062 522.636719 116.609375 520.386719 112.648438 C 524.433594 110.851562 532.625 107.070312 532.625 95.640625 C 532.625 91.679688 531.542969 83.488281 524.164062 79.621094 C 519.484375 77.191406 514.625 77.101562 504.09375 77.28125 L 497.792969 77.371094 L 486.816406 77.371094 L 486.363281 77.910156 C 486.726562 87 487.085938 96.359375 487.085938 120.839844 C 487.085938 129.210938 486.996094 133.261719 486.726562 140.730469 L 487.265625 141.269531 C 493.835938 141 495.273438 140.910156 502.65625 141 L 503.195312 140.460938 C 502.476562 130.019531 502.386719 127.140625 502.292969 116.429688 L 506.703125 116.25 M 502.476562 88.261719 C 503.734375 88.171875 504.996094 88.171875 506.253906 88.171875 C 509.765625 88.171875 516.695312 88.171875 516.695312 96.089844 C 516.695312 98.609375 516.066406 101.941406 512.734375 104.011719 C 510.214844 105.539062 506.976562 105.71875 502.476562 105.808594 Z M 582.574219 127.679688 C 579.15625 129.480469 575.105469 131.550781 568.535156 131.550781 C 563.136719 131.550781 559.445312 129.839844 557.285156 126.601562 C 555.933594 124.710938 555.664062 122.910156 555.304688 121.109375 L 584.375 120.570312 L 584.914062 119.941406 C 584.824219 115.53125 584.734375 111.03125 583.476562 106.53125 C 580.324219 95.910156 573.394531 93.75 570.335938 93.03125 C 568.085938 92.398438 566.015625 92.21875 563.945312 92.21875 C 549.816406 92.21875 540.453125 101.488281 540.453125 117.058594 C 540.453125 121.289062 541.175781 125.699219 542.613281 128.851562 C 547.835938 141 560.074219 142.078125 566.554688 142.078125 C 574.023438 142.078125 577.265625 140.730469 582.035156 138.839844 L 582.574219 138.121094 L 583.203125 127.949219 L 582.574219 127.679688 M 555.304688 111.570312 C 555.574219 108.78125 556.203125 105 559.625 102.839844 C 560.703125 102.121094 561.964844 101.851562 563.226562 101.851562 C 566.195312 101.851562 567.996094 103.378906 568.984375 105 C 570.246094 106.980469 570.335938 109.140625 570.335938 111.210938 Z M 612.097656 109.949219 C 609.035156 108.871094 606.605469 107.878906 606.605469 105.359375 C 606.605469 104.28125 607.328125 101.308594 612.90625 101.308594 C 618.398438 101.308594 621.90625 103.648438 624.15625 105.089844 L 624.96875 104.820312 L 625.867188 95.011719 L 625.417969 94.46875 C 621.1875 93.300781 617.496094 92.21875 611.648438 92.21875 C 607.238281 92.21875 598.417969 92.578125 593.738281 99.328125 C 592.566406 100.949219 591.308594 103.648438 591.308594 107.25 C 591.308594 116.878906 598.777344 119.761719 603.007812 121.378906 L 606.425781 122.640625 C 608.855469 123.449219 612.816406 124.800781 612.816406 128.039062 C 612.816406 130.289062 610.746094 132.71875 605.707031 132.71875 C 603.1875 132.71875 599.496094 131.910156 596.167969 130.199219 C 594.636719 129.390625 593.917969 128.761719 592.566406 127.679688 L 591.757812 128.039062 C 591.578125 132.71875 591.488281 133.710938 591.125 138.210938 L 591.578125 139.019531 C 595.988281 140.640625 599.765625 142.078125 606.335938 142.078125 C 613.175781 142.078125 626.675781 140.820312 628.296875 127.949219 C 628.386719 127.230469 628.386719 126.601562 628.386719 125.96875 C 628.386719 116.070312 621.457031 113.460938 616.507812 111.570312 Z M 676.265625 127.679688 C 672.847656 129.480469 668.796875 131.550781 662.226562 131.550781 C 656.828125 131.550781 653.136719 129.839844 650.976562 126.601562 C 649.625 124.710938 649.355469 122.910156 648.996094 121.109375 L 678.066406 120.570312 L 678.605469 119.941406 C 678.515625 115.53125 678.425781 111.03125 677.167969 106.53125 C 674.015625 95.910156 667.085938 93.75 664.027344 93.03125 C 661.777344 92.398438 659.707031 92.21875 657.636719 92.21875 C 643.507812 92.21875 634.144531 101.488281 634.144531 117.058594 C 634.144531 121.289062 634.867188 125.699219 636.304688 128.851562 C 641.527344 141 653.765625 142.078125 660.246094 142.078125 C 667.714844 142.078125 670.957031 140.730469 675.726562 138.839844 L 676.265625 138.121094 L 676.894531 127.949219 L 676.265625 127.679688 M 648.996094 111.570312 C 649.265625 108.78125 649.894531 105 653.316406 102.839844 C 654.394531 102.121094 655.65625 101.851562 656.917969 101.851562 C 659.886719 101.851562 661.6875 103.378906 662.675781 105 C 663.9375 106.980469 664.027344 109.140625 664.027344 111.210938 Z M 712.894531 107.609375 L 715.414062 92.941406 L 714.875 92.308594 C 714.246094 92.308594 713.613281 92.21875 712.984375 92.21875 C 709.292969 92.21875 705.15625 94.289062 702.273438 100.949219 L 702.542969 92.671875 L 701.824219 91.949219 C 695.164062 93.390625 693.453125 93.660156 686.882812 94.648438 L 686.34375 95.191406 C 686.882812 101.941406 687.15625 105.988281 687.15625 118.5 C 687.15625 125.878906 687.0625 133.261719 686.882812 140.730469 L 687.425781 141.269531 C 694.085938 141 695.523438 140.910156 702.722656 141 L 703.175781 140.371094 C 702.8125 133.078125 702.273438 122.910156 702.273438 116.699219 C 702.273438 112.648438 702.273438 106.710938 708.394531 106.710938 C 709.925781 106.710938 710.824219 107.25 712.085938 107.96875 Z M 745.472656 140.28125 C 748.355469 131.28125 750.0625 125.699219 751.953125 120.03125 C 754.382812 112.738281 758.34375 101.039062 760.863281 93.660156 L 760.414062 93.03125 L 747.8125 93.300781 L 747.183594 93.929688 C 745.925781 99.960938 745.65625 101.21875 743.855469 108.238281 L 739.265625 125.96875 L 737.015625 116.25 L 735.304688 109.320312 C 733.054688 100.949219 732.695312 99.238281 731.433594 93.300781 L 730.804688 92.761719 C 723.695312 93.570312 721.894531 93.660156 715.054688 93.75 L 714.695312 94.46875 C 726.664062 129.929688 727.65625 133.261719 729.632812 140.640625 L 730.265625 141.269531 C 736.113281 141 738.453125 140.910156 744.933594 141 Z M 811.445312 117.058594 C 811.445312 113.550781 811.445312 98.96875 798.84375 94.019531 C 794.882812 92.488281 790.203125 92.308594 787.863281 92.308594 C 772.203125 92.308594 763.382812 100.679688 763.382812 117.238281 C 763.382812 123 764.285156 128.851562 767.613281 133.710938 C 769.953125 137.21875 774.363281 142.078125 787.234375 142.078125 C 806.3125 142.078125 811.445312 130.558594 811.445312 117.058594 M 795.875 116.96875 C 795.875 124.351562 794.882812 132.539062 787.414062 132.539062 C 785.074219 132.539062 783.453125 131.460938 782.375 130.46875 C 780.84375 128.941406 779.132812 125.878906 779.132812 117.148438 C 779.132812 114.539062 779.132812 108.78125 780.933594 105.628906 C 782.285156 103.199219 784.625 101.578125 787.503906 101.578125 C 790.023438 101.578125 792.09375 102.929688 793.265625 104.371094 C 795.425781 106.980469 795.875 112.109375 795.875 116.96875 Z M 836.289062 140.371094 C 835.835938 133.441406 835.476562 128.128906 835.476562 115.710938 C 835.476562 108.058594 835.65625 100.320312 835.746094 92.671875 L 835.117188 91.949219 L 819.636719 94.648438 L 819.097656 95.191406 C 819.816406 102.03125 820.085938 105.179688 820.085938 117.960938 C 820.085938 127.769531 819.816406 133.261719 819.546875 140.640625 L 820.085938 141.269531 C 826.566406 141 828.367188 140.910156 835.65625 141 L 836.289062 140.371094 M 834.847656 83.308594 L 835.117188 71.070312 L 834.578125 70.53125 L 819.90625 72.328125 L 819.367188 72.960938 C 819.546875 76.199219 819.636719 78.089844 819.636719 80.25 C 819.636719 81.960938 819.636719 83.761719 819.546875 85.46875 L 820.175781 86.011719 C 826.296875 84.929688 828.007812 84.75 834.398438 83.941406 Z M 872.285156 107.609375 L 874.804688 92.941406 L 874.265625 92.308594 C 873.636719 92.308594 873.003906 92.21875 872.375 92.21875 C 868.683594 92.21875 864.546875 94.289062 861.664062 100.949219 L 861.933594 92.671875 L 861.214844 91.949219 C 854.554688 93.390625 852.84375 93.660156 846.273438 94.648438 L 845.734375 95.191406 C 846.273438 101.941406 846.546875 105.988281 846.546875 118.5 C 846.546875 125.878906 846.453125 133.261719 846.273438 140.730469 L 846.816406 141.269531 C 853.476562 141 854.914062 140.910156 862.113281 141 L 862.566406 140.371094 C 862.203125 133.078125 861.664062 122.910156 861.664062 116.699219 C 861.664062 112.648438 861.664062 106.710938 867.785156 106.710938 C 869.316406 106.710938 870.214844 107.25 871.476562 107.96875 Z M 874.625 141 "/>
<path fill-rule="nonzero" fill="rgb(34.901961%, 14.901961%, 14.901961%)" fill-opacity="1" d="M 175.640625 222.300781 C 168.082031 219.148438 164.121094 217.53125 164.121094 213.480469 C 164.121094 210.691406 166.730469 207.179688 172.671875 207.179688 C 179.511719 207.179688 183.558594 209.96875 186.890625 212.21875 L 187.699219 211.859375 L 188.421875 200.070312 L 187.96875 199.441406 C 184.101562 197.820312 180.050781 196.109375 171.320312 196.109375 C 154.402344 196.109375 148.550781 205.648438 148.550781 215.28125 C 148.550781 226.171875 157.011719 230.128906 162.050781 232.558594 L 165.019531 233.910156 C 171.230469 236.519531 176 238.769531 176 243.539062 C 176 246.960938 173.03125 251.011719 165.199219 251.011719 C 157.011719 251.011719 152.421875 247.410156 149.808594 245.339844 L 148.910156 245.609375 L 148.28125 258.300781 L 148.820312 259.019531 C 149.808594 259.378906 150.800781 259.828125 151.789062 260.101562 C 153.859375 260.820312 159.171875 262.351562 165.921875 262.351562 C 168.621094 262.351562 175.460938 262.078125 180.859375 259.558594 C 188.421875 255.871094 191.660156 249.03125 191.660156 241.378906 C 191.660156 236.25 189.679688 230.761719 184.910156 227.070312 C 182.480469 225.269531 180.140625 224.191406 177.980469 223.199219 Z M 225.410156 250.648438 C 223.878906 251.101562 222.796875 251.460938 221.269531 251.460938 C 216.679688 251.460938 216.320312 248.578125 216.136719 247.230469 C 215.867188 244.890625 215.867188 239.941406 215.957031 236.339844 L 216.136719 223.648438 L 224.238281 224.011719 L 224.777344 223.46875 L 225.679688 213.839844 L 225.136719 213.300781 L 216.136719 213.300781 L 216.410156 198.179688 L 215.777344 197.640625 C 209.660156 199.441406 208.039062 199.890625 201.648438 201.511719 L 201.289062 202.140625 L 201.378906 213.390625 L 196.519531 213.210938 L 195.980469 213.660156 L 195.167969 223.289062 L 195.707031 223.828125 L 201.378906 223.648438 L 201.109375 237.960938 C 201.019531 240.210938 200.929688 242.460938 200.929688 244.800781 C 200.929688 253.078125 201.109375 261.988281 215.148438 261.988281 C 218.660156 261.988281 221.449219 261.449219 224.597656 260.910156 L 225.230469 260.28125 L 226.128906 251.011719 Z M 272.121094 234.179688 C 272.210938 226.078125 272.210938 222.570312 269.871094 218.789062 C 268.070312 215.910156 264.472656 212.308594 252.953125 212.308594 C 245.210938 212.308594 240.441406 213.75 235.3125 215.28125 L 234.773438 216 L 234.320312 225.808594 L 235.042969 226.171875 C 238.191406 224.910156 244.042969 222.570312 250.070312 222.570312 C 253.402344 222.570312 254.75 223.109375 255.921875 224.28125 C 256.820312 225.179688 257.09375 226.800781 257.09375 228.148438 C 246.292969 229.589844 241.25 230.578125 235.851562 233.910156 C 230.8125 237.058594 229.101562 242.191406 229.101562 246.238281 C 229.101562 255.871094 236.03125 262.078125 244.851562 262.078125 C 251.601562 262.078125 255.472656 258.839844 257.363281 257.308594 L 257.363281 260.640625 L 257.902344 261.269531 C 264.382812 261 266.363281 260.910156 272.210938 261 L 272.660156 260.371094 C 272.03125 251.550781 272.03125 249.300781 272.03125 240.839844 L 272.121094 234.179688 M 257.273438 248.488281 C 255.382812 249.570312 252.953125 250.828125 249.980469 250.828125 C 246.742188 250.828125 244.042969 249.121094 244.042969 245.339844 C 244.042969 239.398438 251.152344 238.410156 257.273438 237.601562 Z M 307.851562 250.648438 C 306.320312 251.101562 305.238281 251.460938 303.710938 251.460938 C 299.121094 251.460938 298.761719 248.578125 298.578125 247.230469 C 298.308594 244.890625 298.308594 239.941406 298.398438 236.339844 L 298.578125 223.648438 L 306.679688 224.011719 L 307.21875 223.46875 L 308.121094 213.839844 L 307.578125 213.300781 L 298.578125 213.300781 L 298.851562 198.179688 L 298.21875 197.640625 C 292.101562 199.441406 290.480469 199.890625 284.089844 201.511719 L 283.730469 202.140625 L 283.820312 213.390625 L 278.960938 213.210938 L 278.421875 213.660156 L 277.609375 223.289062 L 278.148438 223.828125 L 283.820312 223.648438 L 283.550781 237.960938 C 283.460938 240.210938 283.371094 242.460938 283.371094 244.800781 C 283.371094 253.078125 283.550781 261.988281 297.589844 261.988281 C 301.101562 261.988281 303.890625 261.449219 307.039062 260.910156 L 307.671875 260.28125 L 308.570312 251.011719 Z M 354.46875 247.679688 C 351.050781 249.480469 347 251.550781 340.429688 251.550781 C 335.03125 251.550781 331.339844 249.839844 329.179688 246.601562 C 327.828125 244.710938 327.558594 242.910156 327.199219 241.109375 L 356.269531 240.570312 L 356.808594 239.941406 C 356.71875 235.53125 356.628906 231.03125 355.371094 226.53125 C 352.21875 215.910156 345.289062 213.75 342.230469 213.03125 C 339.980469 212.398438 337.910156 212.21875 335.839844 212.21875 C 321.710938 212.21875 312.347656 221.488281 312.347656 237.058594 C 312.347656 241.289062 313.070312 245.699219 314.507812 248.851562 C 319.730469 261 331.96875 262.078125 338.449219 262.078125 C 345.917969 262.078125 349.160156 260.730469 353.929688 258.839844 L 354.46875 258.121094 L 355.097656 247.949219 L 354.46875 247.679688 M 327.199219 231.570312 C 327.46875 228.78125 328.097656 225 331.519531 222.839844 C 332.597656 222.121094 333.859375 221.851562 335.121094 221.851562 C 338.089844 221.851562 339.890625 223.378906 340.878906 225 C 342.140625 226.980469 342.230469 229.140625 342.230469 231.210938 Z M 411.707031 236.25 C 417.738281 246.511719 419.089844 249.210938 424.847656 261 L 425.570312 261.449219 C 428.359375 261.269531 431.058594 261.089844 433.847656 261 C 436.640625 260.910156 439.519531 260.820312 442.308594 260.820312 L 442.847656 259.738281 C 439.429688 255.328125 438.4375 253.980469 431.957031 243.628906 C 429.078125 239.039062 427.640625 236.609375 425.390625 232.648438 C 429.4375 230.851562 437.628906 227.070312 437.628906 215.640625 C 437.628906 211.679688 436.546875 203.488281 429.167969 199.621094 C 424.488281 197.191406 419.628906 197.101562 409.097656 197.28125 L 402.796875 197.371094 L 391.820312 197.371094 L 391.367188 197.910156 C 391.730469 207 392.089844 216.359375 392.089844 240.839844 C 392.089844 249.210938 392 253.261719 391.730469 260.730469 L 392.269531 261.269531 C 398.839844 261 400.277344 260.910156 407.660156 261 L 408.199219 260.460938 C 407.480469 250.019531 407.390625 247.140625 407.296875 236.429688 L 411.707031 236.25 M 407.480469 208.261719 C 408.738281 208.171875 410 208.171875 411.257812 208.171875 C 414.769531 208.171875 421.699219 208.171875 421.699219 216.089844 C 421.699219 218.609375 421.070312 221.941406 417.738281 224.011719 C 415.21875 225.539062 411.980469 225.71875 407.480469 225.808594 Z M 487.578125 247.679688 C 484.160156 249.480469 480.109375 251.550781 473.539062 251.550781 C 468.140625 251.550781 464.449219 249.839844 462.289062 246.601562 C 460.9375 244.710938 460.667969 242.910156 460.308594 241.109375 L 489.378906 240.570312 L 489.917969 239.941406 C 489.828125 235.53125 489.738281 231.03125 488.480469 226.53125 C 485.328125 215.910156 478.398438 213.75 475.339844 213.03125 C 473.089844 212.398438 471.019531 212.21875 468.949219 212.21875 C 454.820312 212.21875 445.457031 221.488281 445.457031 237.058594 C 445.457031 241.289062 446.179688 245.699219 447.617188 248.851562 C 452.839844 261 465.078125 262.078125 471.558594 262.078125 C 479.027344 262.078125 482.269531 260.730469 487.039062 258.839844 L 487.578125 258.121094 L 488.207031 247.949219 L 487.578125 247.679688 M 460.308594 231.570312 C 460.578125 228.78125 461.207031 225 464.628906 222.839844 C 465.707031 222.121094 466.96875 221.851562 468.230469 221.851562 C 471.199219 221.851562 473 223.378906 473.988281 225 C 475.25 226.980469 475.339844 229.140625 475.339844 231.210938 Z M 533.390625 248.039062 C 530.960938 249.480469 528.621094 250.921875 524.03125 250.921875 C 513.859375 250.921875 511.789062 242.460938 511.789062 237.058594 C 511.789062 230.488281 514.671875 222.929688 523.402344 222.929688 C 527.359375 222.929688 529.519531 224.371094 532.222656 226.171875 L 533.121094 225.898438 C 533.480469 221.128906 533.570312 219.871094 534.289062 215.101562 L 533.839844 214.558594 C 529.878906 213.300781 526.460938 212.21875 521.242188 212.21875 C 500.089844 212.21875 495.949219 228.238281 495.949219 237.421875 C 495.949219 247.769531 501.351562 261.808594 521.601562 261.808594 C 526.371094 261.808594 529.429688 260.910156 533.210938 259.828125 L 533.75 259.289062 L 534.109375 248.488281 Z M 567.320312 227.609375 L 569.839844 212.941406 L 569.300781 212.308594 C 568.671875 212.308594 568.039062 212.21875 567.410156 212.21875 C 563.71875 212.21875 559.582031 214.289062 556.699219 220.949219 L 556.96875 212.671875 L 556.25 211.949219 C 549.589844 213.390625 547.878906 213.660156 541.308594 214.648438 L 540.769531 215.191406 C 541.308594 221.941406 541.582031 225.988281 541.582031 238.5 C 541.582031 245.878906 541.488281 253.261719 541.308594 260.730469 L 541.851562 261.269531 C 548.511719 261 549.949219 260.910156 557.148438 261 L 557.601562 260.371094 C 557.238281 253.078125 556.699219 242.910156 556.699219 236.699219 C 556.699219 232.648438 556.699219 226.710938 562.820312 226.710938 C 564.351562 226.710938 565.25 227.25 566.511719 227.96875 Z M 615.019531 247.679688 C 611.601562 249.480469 607.550781 251.550781 600.980469 251.550781 C 595.582031 251.550781 591.890625 249.839844 589.730469 246.601562 C 588.378906 244.710938 588.109375 242.910156 587.75 241.109375 L 616.820312 240.570312 L 617.359375 239.941406 C 617.269531 235.53125 617.179688 231.03125 615.921875 226.53125 C 612.769531 215.910156 605.839844 213.75 602.78125 213.03125 C 600.53125 212.398438 598.460938 212.21875 596.390625 212.21875 C 582.261719 212.21875 572.898438 221.488281 572.898438 237.058594 C 572.898438 241.289062 573.621094 245.699219 575.058594 248.851562 C 580.28125 261 592.519531 262.078125 599 262.078125 C 606.46875 262.078125 609.710938 260.730469 614.480469 258.839844 L 615.019531 258.121094 L 615.648438 247.949219 L 615.019531 247.679688 M 587.75 231.570312 C 588.019531 228.78125 588.648438 225 592.070312 222.839844 C 593.148438 222.121094 594.410156 221.851562 595.671875 221.851562 C 598.640625 221.851562 600.441406 223.378906 601.429688 225 C 602.691406 226.980469 602.78125 229.140625 602.78125 231.210938 Z M 665.691406 234.179688 C 665.78125 226.078125 665.78125 222.570312 663.441406 218.789062 C 661.640625 215.910156 658.042969 212.308594 646.523438 212.308594 C 638.78125 212.308594 634.011719 213.75 628.882812 215.28125 L 628.34375 216 L 627.890625 225.808594 L 628.613281 226.171875 C 631.761719 224.910156 637.613281 222.570312 643.640625 222.570312 C 646.972656 222.570312 648.320312 223.109375 649.492188 224.28125 C 650.390625 225.179688 650.664062 226.800781 650.664062 228.148438 C 639.863281 229.589844 634.820312 230.578125 629.421875 233.910156 C 624.382812 237.058594 622.671875 242.191406 622.671875 246.238281 C 622.671875 255.871094 629.601562 262.078125 638.421875 262.078125 C 645.171875 262.078125 649.042969 258.839844 650.933594 257.308594 L 650.933594 260.640625 L 651.472656 261.269531 C 657.953125 261 659.933594 260.910156 665.78125 261 L 666.230469 260.371094 C 665.601562 251.550781 665.601562 249.300781 665.601562 240.839844 L 665.691406 234.179688 M 650.84375 248.488281 C 648.953125 249.570312 646.523438 250.828125 643.550781 250.828125 C 640.3125 250.828125 637.613281 249.121094 637.613281 245.339844 C 637.613281 239.398438 644.722656 238.410156 650.84375 237.601562 Z M 701.421875 250.648438 C 699.890625 251.101562 698.808594 251.460938 697.28125 251.460938 C 692.691406 251.460938 692.332031 248.578125 692.148438 247.230469 C 691.878906 244.890625 691.878906 239.941406 691.96875 236.339844 L 692.148438 223.648438 L 700.25 224.011719 L 700.789062 223.46875 L 701.691406 213.839844 L 701.148438 213.300781 L 692.148438 213.300781 L 692.421875 198.179688 L 691.789062 197.640625 C 685.671875 199.441406 684.050781 199.890625 677.660156 201.511719 L 677.300781 202.140625 L 677.390625 213.390625 L 672.53125 213.210938 L 671.992188 213.660156 L 671.179688 223.289062 L 671.71875 223.828125 L 677.390625 223.648438 L 677.121094 237.960938 C 677.03125 240.210938 676.941406 242.460938 676.941406 244.800781 C 676.941406 253.078125 677.121094 261.988281 691.160156 261.988281 C 694.671875 261.988281 697.460938 261.449219 700.609375 260.910156 L 701.242188 260.28125 L 702.140625 251.011719 Z M 724.371094 260.371094 C 723.917969 253.441406 723.558594 248.128906 723.558594 235.710938 C 723.558594 228.058594 723.738281 220.320312 723.828125 212.671875 L 723.199219 211.949219 L 707.71875 214.648438 L 707.179688 215.191406 C 707.898438 222.03125 708.167969 225.179688 708.167969 237.960938 C 708.167969 247.769531 707.898438 253.261719 707.628906 260.640625 L 708.167969 261.269531 C 714.648438 261 716.449219 260.910156 723.738281 261 L 724.371094 260.371094 M 722.929688 203.308594 L 723.199219 191.070312 L 722.660156 190.53125 L 707.988281 192.328125 L 707.449219 192.960938 C 707.628906 196.199219 707.71875 198.089844 707.71875 200.25 C 707.71875 201.960938 707.71875 203.761719 707.628906 205.46875 L 708.257812 206.011719 C 714.378906 204.929688 716.089844 204.75 722.480469 203.941406 Z M 780.171875 237.058594 C 780.171875 233.550781 780.171875 218.96875 767.570312 214.019531 C 763.609375 212.488281 758.929688 212.308594 756.589844 212.308594 C 740.929688 212.308594 732.109375 220.679688 732.109375 237.238281 C 732.109375 243 733.011719 248.851562 736.339844 253.710938 C 738.679688 257.21875 743.089844 262.078125 755.960938 262.078125 C 775.039062 262.078125 780.171875 250.558594 780.171875 237.058594 M 764.601562 236.96875 C 764.601562 244.351562 763.609375 252.539062 756.140625 252.539062 C 753.800781 252.539062 752.179688 251.460938 751.101562 250.46875 C 749.570312 248.941406 747.859375 245.878906 747.859375 237.148438 C 747.859375 234.539062 747.859375 228.78125 749.660156 225.628906 C 751.011719 223.199219 753.351562 221.578125 756.230469 221.578125 C 758.75 221.578125 760.820312 222.929688 761.992188 224.371094 C 764.152344 226.980469 764.601562 232.109375 764.601562 236.96875 Z M 832.820312 260.371094 C 832.371094 252.449219 832.371094 249.929688 832.191406 241.109375 L 832.191406 234.089844 C 832.101562 225.449219 832.011719 221.308594 829.761719 217.621094 C 826.96875 212.941406 821.839844 212.21875 818.601562 212.21875 C 813.109375 212.21875 808.339844 215.101562 804.199219 217.53125 L 804.378906 212.578125 L 803.480469 211.949219 C 796.550781 213.390625 795.019531 213.660156 788.269531 214.558594 L 787.730469 215.191406 C 788.449219 223.019531 788.992188 228.691406 788.992188 243.359375 C 788.992188 249.121094 788.898438 254.878906 788.808594 260.640625 L 789.351562 261.179688 C 795.832031 260.910156 797.179688 260.910156 804.378906 260.910156 L 804.921875 260.371094 C 804.378906 246.511719 804.289062 243 804.199219 226.890625 C 806.089844 225.628906 808.25 224.101562 811.128906 224.101562 C 816.082031 224.101562 816.53125 229.410156 816.800781 232.648438 C 816.980469 235.621094 817.070312 247.949219 817.070312 251.371094 C 817.070312 254.429688 816.980469 257.578125 816.980469 260.640625 L 817.519531 261.179688 C 823.460938 261 824.992188 260.910156 832.191406 260.910156 Z M 837.679688 261 "/>
<path fill-rule="nonzero" fill="rgb(34.901961%, 14.901961%, 14.901961%)" fill-opacity="1" d="M 433.175781 317.191406 C 424.535156 317.460938 422.734375 317.460938 413.105469 317.460938 L 412.472656 318 C 407.703125 333.300781 404.824219 342.390625 391.59375 380.371094 L 391.953125 381 L 405.992188 381 L 406.625 380.460938 L 411.035156 364.078125 L 430.472656 364.078125 L 434.34375 380.730469 L 434.972656 381.269531 C 441.542969 381 443.34375 380.910156 450.632812 381 L 451.085938 380.28125 C 440.195312 341.761719 438.933594 337.53125 433.804688 317.730469 L 433.175781 317.191406 M 414.183594 353.191406 L 418.683594 337.980469 L 421.835938 327.449219 L 424.535156 339.148438 L 427.863281 353.191406 Z M 482.855469 347.609375 L 485.375 332.941406 L 484.835938 332.308594 C 484.207031 332.308594 483.574219 332.21875 482.945312 332.21875 C 479.253906 332.21875 475.117188 334.289062 472.234375 340.949219 L 472.503906 332.671875 L 471.785156 331.949219 C 465.125 333.390625 463.414062 333.660156 456.84375 334.648438 L 456.304688 335.191406 C 456.84375 341.941406 457.117188 345.988281 457.117188 358.5 C 457.117188 365.878906 457.023438 373.261719 456.84375 380.730469 L 457.386719 381.269531 C 464.046875 381 465.484375 380.910156 472.683594 381 L 473.136719 380.371094 C 472.773438 373.078125 472.234375 362.910156 472.234375 356.699219 C 472.234375 352.648438 472.234375 346.710938 478.355469 346.710938 C 479.886719 346.710938 480.785156 347.25 482.046875 347.96875 Z M 530.554688 367.679688 C 527.136719 369.480469 523.085938 371.550781 516.515625 371.550781 C 511.117188 371.550781 507.425781 369.839844 505.265625 366.601562 C 503.914062 364.710938 503.644531 362.910156 503.285156 361.109375 L 532.355469 360.570312 L 532.894531 359.941406 C 532.804688 355.53125 532.714844 351.03125 531.457031 346.53125 C 528.304688 335.910156 521.375 333.75 518.316406 333.03125 C 516.066406 332.398438 513.996094 332.21875 511.925781 332.21875 C 497.796875 332.21875 488.433594 341.488281 488.433594 357.058594 C 488.433594 361.289062 489.15625 365.699219 490.59375 368.851562 C 495.816406 381 508.054688 382.078125 514.535156 382.078125 C 522.003906 382.078125 525.246094 380.730469 530.015625 378.839844 L 530.554688 378.121094 L 531.183594 367.949219 L 530.554688 367.679688 M 503.285156 351.570312 C 503.554688 348.78125 504.183594 345 507.605469 342.839844 C 508.683594 342.121094 509.945312 341.851562 511.207031 341.851562 C 514.175781 341.851562 515.976562 343.378906 516.964844 345 C 518.226562 346.980469 518.316406 349.140625 518.316406 351.210938 Z M 581.222656 354.179688 C 581.3125 346.078125 581.3125 342.570312 578.972656 338.789062 C 577.171875 335.910156 573.574219 332.308594 562.054688 332.308594 C 554.3125 332.308594 549.542969 333.75 544.414062 335.28125 L 543.875 336 L 543.421875 345.808594 L 544.144531 346.171875 C 547.292969 344.910156 553.144531 342.570312 559.171875 342.570312 C 562.503906 342.570312 563.851562 343.109375 565.023438 344.28125 C 565.921875 345.179688 566.195312 346.800781 566.195312 348.148438 C 555.394531 349.589844 550.351562 350.578125 544.953125 353.910156 C 539.914062 357.058594 538.203125 362.191406 538.203125 366.238281 C 538.203125 375.871094 545.132812 382.078125 553.953125 382.078125 C 560.703125 382.078125 564.574219 378.839844 566.464844 377.308594 L 566.464844 380.640625 L 567.003906 381.269531 C 573.484375 381 575.464844 380.910156 581.3125 381 L 581.761719 380.371094 C 581.132812 371.550781 581.132812 369.300781 581.132812 360.839844 L 581.222656 354.179688 M 566.375 368.488281 C 564.484375 369.570312 562.054688 370.828125 559.082031 370.828125 C 555.84375 370.828125 553.144531 369.121094 553.144531 365.339844 C 553.144531 359.398438 560.253906 358.410156 566.375 357.601562 Z M 586.355469 381 "/>
</svg>
