<?xml version="1.0" encoding="UTF-8"?>
<svg xmlns="http://www.w3.org/2000/svg" xmlns:xlink="http://www.w3.org/1999/xlink" width="975" height="1300" viewBox="0 0 975 1300">
<path fill-rule="nonzero" fill="rgb(98.823529%, 78.823529%, 9.019608%)" fill-opacity="1" d="M 50 50 L 925 50 L 925 290 L 50 290 Z M 50 50 "/>
<path fill-rule="nonzero" fill="rgb(34.901961%, 14.901961%, 14.901961%)" fill-opacity="1" d="M 144.949219 77.191406 C 137.75 77.460938 136.582031 77.460938 129.019531 77.460938 L 128.570312 78 C 129.199219 88.171875 129.199219 90.78125 129.289062 101.398438 C 125.332031 101.488281 121.371094 101.578125 117.320312 101.578125 C 114.171875 101.578125 110.929688 101.488281 107.78125 101.488281 L 107.960938 77.730469 L 107.511719 77.191406 C 100.582031 77.460938 99.230469 77.460938 91.402344 77.460938 L 90.859375 78 C 91.3125 87.269531 91.851562 98.339844 91.851562 120.660156 C 91.851562 128.761719 91.671875 133.171875 91.492188 140.730469 L 91.941406 141.269531 C 98.511719 141 100.128906 140.910156 108.050781 141 L 108.5 140.460938 C 107.960938 129.300781 107.871094 126.058594 107.78125 113.011719 C 111.742188 112.828125 115.070312 112.738281 118.582031 112.738281 C 122.179688 112.738281 125.78125 112.828125 129.378906 112.921875 C 129.5625 125.070312 129.5625 128.039062 129.109375 140.730469 L 129.5625 141.269531 C 136.3125 141 138.109375 140.910156 145.761719 141 L 146.210938 140.460938 C 145.492188 125.339844 145.21875 110.308594 145.21875 95.191406 C 145.21875 88.890625 145.3125 84.660156 145.402344 77.730469 Z M 196.609375 127.679688 C 193.191406 129.480469 189.140625 131.550781 182.570312 131.550781 C 177.171875 131.550781 173.480469 129.839844 171.320312 126.601562 C 169.96875 124.710938 169.699219 122.910156 169.339844 121.109375 L 198.410156 120.570312 L 198.949219 119.941406 C 198.859375 115.53125 198.769531 111.03125 197.511719 106.53125 C 194.359375 95.910156 187.429688 93.75 184.371094 93.03125 C 182.121094 92.398438 180.050781 92.21875 177.980469 92.21875 C 163.851562 92.21875 154.488281 101.488281 154.488281 117.058594 C 154.488281 121.289062 155.210938 125.699219 156.648438 128.851562 C 161.871094 141 174.109375 142.078125 180.589844 142.078125 C 188.058594 142.078125 191.300781 140.730469 196.070312 138.839844 L 196.609375 138.121094 L 197.238281 127.949219 L 196.609375 127.679688 M 169.339844 111.570312 C 169.609375 108.78125 170.238281 105 173.660156 102.839844 C 174.738281 102.121094 176 101.851562 177.261719 101.851562 C 180.230469 101.851562 182.03125 103.378906 183.019531 105 C 184.28125 106.980469 184.371094 109.140625 184.371094 111.210938 Z M 251.332031 140.371094 C 250.882812 132.449219 250.882812 129.929688 250.703125 121.109375 L 250.703125 114.089844 C 250.613281 105.449219 250.523438 101.308594 248.273438 97.621094 C 245.480469 92.941406 240.351562 92.21875 237.113281 92.21875 C 231.621094 92.21875 226.851562 95.101562 222.710938 97.53125 L 222.890625 92.578125 L 221.992188 91.949219 C 215.0625 93.390625 213.53125 93.660156 206.78125 94.558594 L 206.242188 95.191406 C 206.960938 103.019531 207.503906 108.691406 207.503906 123.359375 C 207.503906 129.121094 207.410156 134.878906 207.320312 140.640625 L 207.863281 141.179688 C 214.34375 140.910156 215.691406 140.910156 222.890625 140.910156 L 223.433594 140.371094 C 222.890625 126.511719 222.800781 123 222.710938 106.890625 C 224.601562 105.628906 226.761719 104.101562 229.640625 104.101562 C 234.59375 104.101562 235.042969 109.410156 235.3125 112.648438 C 235.492188 115.621094 235.582031 127.949219 235.582031 131.371094 C 235.582031 134.429688 235.492188 137.578125 235.492188 140.640625 L 236.03125 141.179688 C 241.972656 141 243.503906 140.910156 250.703125 140.910156 Z M 287.601562 107.609375 L 290.121094 92.941406 L 289.582031 92.308594 C 288.953125 92.308594 288.320312 92.21875 287.691406 92.21875 C 284 92.21875 279.863281 94.289062 276.980469 100.949219 L 277.25 92.671875 L 276.53125 91.949219 C 269.871094 93.390625 268.160156 93.660156 261.589844 94.648438 L 261.050781 95.191406 C 261.589844 101.941406 261.863281 105.988281 261.863281 118.5 C 261.863281 125.878906 261.769531 133.261719 261.589844 140.730469 L 262.132812 141.269531 C 268.792969 141 270.230469 140.910156 277.429688 141 L 277.882812 140.371094 C 277.519531 133.078125 276.980469 122.910156 276.980469 116.699219 C 276.980469 112.648438 276.980469 106.710938 283.101562 106.710938 C 284.632812 106.710938 285.53125 107.25 286.792969 107.96875 Z M 335.570312 93.03125 L 323.0625 93.300781 L 322.339844 93.929688 C 320.8125 100.140625 320.453125 101.488281 318.292969 108.511719 L 315.953125 116.25 L 313.972656 123 L 312.261719 116.609375 L 309.652344 107.070312 L 306.050781 93.390625 L 305.332031 92.851562 C 298.3125 93.390625 296.78125 93.480469 289.402344 93.660156 L 288.953125 94.289062 C 292.191406 102.839844 300.5625 125.429688 306.140625 142.710938 C 302.453125 152.070312 301.730469 153.691406 297.679688 162.601562 L 298.132812 163.320312 C 300.382812 163.230469 302.902344 163.140625 305.242188 163.140625 C 307.492188 163.140625 309.832031 163.230469 312.082031 163.230469 L 312.710938 162.691406 C 317.660156 143.25 320.089844 135.691406 331.972656 104.371094 C 333.320312 100.769531 334.671875 97.261719 335.929688 93.75 Z M 432.046875 140.460938 C 435.378906 124.078125 436.820312 117.238281 446.359375 77.730469 L 445.910156 77.191406 C 439.519531 77.460938 438.257812 77.460938 432.230469 77.460938 L 431.6875 78 C 430.25 87.269531 429.796875 90.421875 427.820312 100.769531 L 425.207031 114.539062 L 422.328125 130.019531 C 420.980469 119.941406 420.527344 116.878906 418.730469 106.441406 L 416.117188 91.320312 L 413.867188 77.460938 L 413.328125 76.828125 L 395.507812 77.28125 L 394.96875 77.820312 L 391.367188 98.519531 L 387.859375 116.96875 L 385.609375 129.390625 C 384.527344 121.558594 384.167969 118.949219 382.277344 108.058594 L 379.9375 94.921875 L 376.96875 77.101562 L 376.429688 76.648438 C 368.6875 77.191406 367.429688 77.191406 360.859375 77.371094 L 360.410156 78 C 366.980469 107.789062 368.417969 114.628906 373.277344 140.730469 L 373.820312 141.269531 C 382.910156 140.910156 385.339844 140.910156 394.160156 141 L 394.789062 140.460938 L 396.679688 129.300781 L 399.648438 112.828125 L 402.890625 93.570312 C 403.96875 102.390625 404.238281 104.640625 405.859375 114.359375 L 408.109375 128.398438 L 410 140.730469 L 410.449219 141.269531 C 419.089844 141 422.058594 140.910156 431.597656 141 Z M 464 127.140625 L 449.601562 127.410156 L 449.152344 128.128906 L 449.332031 140.640625 L 449.78125 141.269531 L 464.179688 140.910156 L 464.628906 140.371094 L 464.449219 127.679688 Z M 546.53125 124.890625 C 544.460938 126.511719 539.871094 129.929688 532.402344 129.929688 C 522.140625 129.929688 514.941406 122.28125 514.941406 109.5 C 514.941406 101.761719 517.640625 88.171875 532.3125 88.171875 C 539.0625 88.171875 542.75 90.78125 545 92.488281 L 545.8125 92.308594 L 546.621094 79.890625 L 546.261719 79.441406 C 543.023438 78.179688 537.53125 76.109375 529.613281 76.109375 C 506.300781 76.109375 498.203125 94.109375 498.203125 109.859375 C 498.203125 127.140625 508.730469 142.351562 530.691406 142.351562 C 538.25 142.351562 543.203125 140.371094 546.082031 139.199219 L 546.53125 138.660156 L 547.160156 125.25 Z M 599.992188 117.058594 C 599.992188 113.550781 599.992188 98.96875 587.390625 94.019531 C 583.429688 92.488281 578.75 92.308594 576.410156 92.308594 C 560.75 92.308594 551.929688 100.679688 551.929688 117.238281 C 551.929688 123 552.832031 128.851562 556.160156 133.710938 C 558.5 137.21875 562.910156 142.078125 575.78125 142.078125 C 594.859375 142.078125 599.992188 130.558594 599.992188 117.058594 M 584.421875 116.96875 C 584.421875 124.351562 583.429688 132.539062 575.960938 132.539062 C 573.621094 132.539062 572 131.460938 570.921875 130.46875 C 569.390625 128.941406 567.679688 125.878906 567.679688 117.148438 C 567.679688 114.539062 567.679688 108.78125 569.480469 105.628906 C 570.832031 103.199219 573.171875 101.578125 576.050781 101.578125 C 578.570312 101.578125 580.640625 102.929688 581.8125 104.371094 C 583.972656 106.980469 584.421875 112.109375 584.421875 116.96875 Z M 648.5 127.679688 C 645.082031 129.480469 641.03125 131.550781 634.460938 131.550781 C 629.0625 131.550781 625.371094 129.839844 623.210938 126.601562 C 621.859375 124.710938 621.589844 122.910156 621.230469 121.109375 L 650.300781 120.570312 L 650.839844 119.941406 C 650.75 115.53125 650.660156 111.03125 649.402344 106.53125 C 646.25 95.910156 639.320312 93.75 636.261719 93.03125 C 634.011719 92.398438 631.941406 92.21875 629.871094 92.21875 C 615.742188 92.21875 606.378906 101.488281 606.378906 117.058594 C 606.378906 121.289062 607.101562 125.699219 608.539062 128.851562 C 613.761719 141 626 142.078125 632.480469 142.078125 C 639.949219 142.078125 643.191406 140.730469 647.960938 138.839844 L 648.5 138.121094 L 649.128906 127.949219 L 648.5 127.679688 M 621.230469 111.570312 C 621.5 108.78125 622.128906 105 625.550781 102.839844 C 626.628906 102.121094 627.890625 101.851562 629.152344 101.851562 C 632.121094 101.851562 633.921875 103.378906 634.910156 105 C 636.171875 106.980469 636.261719 109.140625 636.261719 111.210938 Z M 711.410156 102.300781 C 703.851562 99.148438 699.890625 97.53125 699.890625 93.480469 C 699.890625 90.691406 702.5 87.179688 708.441406 87.179688 C 715.28125 87.179688 719.328125 89.96875 722.660156 92.21875 L 723.46875 91.859375 L 724.191406 80.070312 L 723.738281 79.441406 C 719.871094 77.820312 715.820312 76.109375 707.089844 76.109375 C 690.171875 76.109375 684.320312 85.648438 684.320312 95.28125 C 684.320312 106.171875 692.78125 110.128906 697.820312 112.558594 L 700.789062 113.910156 C 707 116.519531 711.769531 118.769531 711.769531 123.539062 C 711.769531 126.960938 708.800781 131.011719 700.96875 131.011719 C 692.78125 131.011719 688.191406 127.410156 685.578125 125.339844 L 684.679688 125.609375 L 684.050781 138.300781 L 684.589844 139.019531 C 685.578125 139.378906 686.570312 139.828125 687.558594 140.101562 C 689.628906 140.820312 694.941406 142.351562 701.691406 142.351562 C 704.390625 142.351562 711.230469 142.078125 716.628906 139.558594 C 724.191406 135.871094 727.429688 129.03125 727.429688 121.378906 C 727.429688 116.25 725.449219 110.761719 720.679688 107.070312 C 718.25 105.269531 715.910156 104.191406 713.75 103.199219 Z M 761.183594 130.648438 C 759.652344 131.101562 758.570312 131.460938 757.042969 131.460938 C 752.453125 131.460938 752.09375 128.578125 751.910156 127.230469 C 751.640625 124.890625 751.640625 119.941406 751.730469 116.339844 L 751.910156 103.648438 L 760.011719 104.011719 L 760.550781 103.46875 L 761.453125 93.839844 L 760.910156 93.300781 L 751.910156 93.300781 L 752.183594 78.179688 L 751.550781 77.640625 C 745.433594 79.441406 743.8125 79.890625 737.421875 81.511719 L 737.0625 82.140625 L 737.152344 93.390625 L 732.292969 93.210938 L 731.753906 93.660156 L 730.941406 103.289062 L 731.480469 103.828125 L 737.152344 103.648438 L 736.882812 117.960938 C 736.792969 120.210938 736.703125 122.460938 736.703125 124.800781 C 736.703125 133.078125 736.882812 141.988281 750.921875 141.988281 C 754.433594 141.988281 757.222656 141.449219 760.371094 140.910156 L 761.003906 140.28125 L 761.902344 131.011719 Z M 807.890625 114.179688 C 807.980469 106.078125 807.980469 102.570312 805.640625 98.789062 C 803.839844 95.910156 800.242188 92.308594 788.722656 92.308594 C 780.980469 92.308594 776.210938 93.75 771.082031 95.28125 L 770.542969 96 L 770.089844 105.808594 L 770.8125 106.171875 C 773.960938 104.910156 779.8125 102.570312 785.839844 102.570312 C 789.171875 102.570312 790.519531 103.109375 791.691406 104.28125 C 792.589844 105.179688 792.863281 106.800781 792.863281 108.148438 C 782.0625 109.589844 777.019531 110.578125 771.621094 113.910156 C 766.582031 117.058594 764.871094 122.191406 764.871094 126.238281 C 764.871094 135.871094 771.800781 142.078125 780.621094 142.078125 C 787.371094 142.078125 791.242188 138.839844 793.132812 137.308594 L 793.132812 140.640625 L 793.671875 141.269531 C 800.152344 141 802.132812 140.910156 807.980469 141 L 808.429688 140.371094 C 807.800781 131.550781 807.800781 129.300781 807.800781 120.839844 L 807.890625 114.179688 M 793.042969 128.488281 C 791.152344 129.570312 788.722656 130.828125 785.75 130.828125 C 782.511719 130.828125 779.8125 129.121094 779.8125 125.339844 C 779.8125 119.398438 786.921875 118.410156 793.042969 117.601562 Z M 843.621094 130.648438 C 842.089844 131.101562 841.007812 131.460938 839.480469 131.460938 C 834.890625 131.460938 834.53125 128.578125 834.347656 127.230469 C 834.078125 124.890625 834.078125 119.941406 834.167969 116.339844 L 834.347656 103.648438 L 842.449219 104.011719 L 842.988281 103.46875 L 843.890625 93.839844 L 843.347656 93.300781 L 834.347656 93.300781 L 834.621094 78.179688 L 833.988281 77.640625 C 827.871094 79.441406 826.25 79.890625 819.859375 81.511719 L 819.5 82.140625 L 819.589844 93.390625 L 814.730469 93.210938 L 814.191406 93.660156 L 813.378906 103.289062 L 813.917969 103.828125 L 819.589844 103.648438 L 819.320312 117.960938 C 819.230469 120.210938 819.140625 122.460938 819.140625 124.800781 C 819.140625 133.078125 819.320312 141.988281 833.359375 141.988281 C 836.871094 141.988281 839.660156 141.449219 842.808594 140.910156 L 843.441406 140.28125 L 844.339844 131.011719 Z M 890.238281 127.679688 C 886.820312 129.480469 882.769531 131.550781 876.199219 131.550781 C 870.800781 131.550781 867.109375 129.839844 864.949219 126.601562 C 863.597656 124.710938 863.328125 122.910156 862.96875 121.109375 L 892.039062 120.570312 L 892.578125 119.941406 C 892.488281 115.53125 892.398438 111.03125 891.140625 106.53125 C 887.988281 95.910156 881.058594 93.75 878 93.03125 C 875.75 92.398438 873.679688 92.21875 871.609375 92.21875 C 857.480469 92.21875 848.117188 101.488281 848.117188 117.058594 C 848.117188 121.289062 848.839844 125.699219 850.277344 128.851562 C 855.5 141 867.738281 142.078125 874.21875 142.078125 C 881.6875 142.078125 884.929688 140.730469 889.699219 138.839844 L 890.238281 138.121094 L 890.867188 127.949219 L 890.238281 127.679688 M 862.96875 111.570312 C 863.238281 108.78125 863.867188 105 867.289062 102.839844 C 868.367188 102.121094 869.628906 101.851562 870.890625 101.851562 C 873.859375 101.851562 875.660156 103.378906 876.648438 105 C 877.910156 106.980469 878 109.140625 878 111.210938 Z M 895.460938 141 "/>
<path fill-rule="nonzero" fill="rgb(34.901961%, 14.901961%, 14.901961%)" fill-opacity="1" d="M 411.53125 197.28125 L 400.101562 197.460938 L 399.558594 198 C 399.921875 209.699219 400.191406 217.53125 400.191406 227.878906 C 400.191406 238.859375 399.921875 249.75 399.648438 260.730469 L 400.191406 261.269531 C 406.851562 261 408.289062 260.910156 415.492188 261 L 415.941406 260.460938 C 415.582031 250.648438 415.582031 248.398438 415.582031 239.21875 C 425.660156 239.308594 436.460938 239.308594 442.941406 231.390625 C 445.460938 228.328125 447.621094 223.199219 447.621094 216.898438 C 447.621094 213.03125 446.71875 204.480469 439.25 200.25 C 433.851562 197.101562 426.199219 197.101562 419.449219 197.101562 L 411.53125 197.28125 M 415.582031 208.171875 C 417.558594 208.078125 419.449219 208.078125 421.429688 208.078125 C 429.351562 208.261719 431.511719 212.308594 431.511719 217.53125 C 431.511719 218.789062 431.511719 224.011719 426.742188 226.621094 C 424.308594 227.96875 420.980469 228.148438 415.582031 228.148438 Z M 493.878906 234.179688 C 493.96875 226.078125 493.96875 222.570312 491.628906 218.789062 C 489.828125 215.910156 486.230469 212.308594 474.710938 212.308594 C 466.96875 212.308594 462.199219 213.75 457.070312 215.28125 L 456.53125 216 L 456.078125 225.808594 L 456.800781 226.171875 C 459.949219 224.910156 465.800781 222.570312 471.828125 222.570312 C 475.160156 222.570312 476.507812 223.109375 477.679688 224.28125 C 478.578125 225.179688 478.851562 226.800781 478.851562 228.148438 C 468.050781 229.589844 463.007812 230.578125 457.609375 233.910156 C 452.570312 237.058594 450.859375 242.191406 450.859375 246.238281 C 450.859375 255.871094 457.789062 262.078125 466.609375 262.078125 C 473.359375 262.078125 477.230469 258.839844 479.121094 257.308594 L 479.121094 260.640625 L 479.660156 261.269531 C 486.140625 261 488.121094 260.910156 493.96875 261 L 494.417969 260.371094 C 493.789062 251.550781 493.789062 249.300781 493.789062 240.839844 L 493.878906 234.179688 M 479.03125 248.488281 C 477.140625 249.570312 474.710938 250.828125 471.738281 250.828125 C 468.5 250.828125 465.800781 249.121094 465.800781 245.339844 C 465.800781 239.398438 472.910156 238.410156 479.03125 237.601562 Z M 530.421875 227.609375 L 532.941406 212.941406 L 532.402344 212.308594 C 531.773438 212.308594 531.140625 212.21875 530.511719 212.21875 C 526.820312 212.21875 522.683594 214.289062 519.800781 220.949219 L 520.070312 212.671875 L 519.351562 211.949219 C 512.691406 213.390625 510.980469 213.660156 504.410156 214.648438 L 503.871094 215.191406 C 504.410156 221.941406 504.683594 225.988281 504.683594 238.5 C 504.683594 245.878906 504.589844 253.261719 504.410156 260.730469 L 504.953125 261.269531 C 511.613281 261 513.050781 260.910156 520.25 261 L 520.703125 260.371094 C 520.339844 253.078125 519.800781 242.910156 519.800781 236.699219 C 519.800781 232.648438 519.800781 226.710938 525.921875 226.710938 C 527.453125 226.710938 528.351562 227.25 529.613281 227.96875 Z M 584.421875 259.828125 C 575.960938 245.519531 575.0625 243.898438 568.222656 231.570312 C 574.433594 223.109375 575.0625 222.210938 581.453125 214.019531 L 581 213.121094 L 566.332031 213.300781 L 565.433594 213.929688 C 558.410156 226.078125 557.511719 227.519531 553.371094 233.730469 L 553.371094 223.738281 C 553.460938 206.910156 553.550781 203.308594 554 189.71875 L 553.28125 189.179688 L 537.621094 191.519531 L 537.082031 192.148438 C 537.710938 200.878906 537.980469 205.109375 538.160156 216.898438 C 538.339844 231.480469 538.339844 246.058594 538.25 260.640625 L 538.882812 261.269531 C 544.910156 261 546.621094 261 553.460938 261 L 554 260.371094 L 553.460938 245.160156 L 553.371094 234.808594 C 561.203125 249.210938 562.191406 251.191406 566.78125 260.730469 L 567.589844 261.269531 L 583.792969 260.640625 Z M 583.339844 261 "/>
</svg>
