<?xml version="1.0" encoding="UTF-8"?>
<svg xmlns="http://www.w3.org/2000/svg" xmlns:xlink="http://www.w3.org/1999/xlink" width="975" height="1300" viewBox="0 0 975 1300">
<path fill-rule="nonzero" fill="rgb(98.823529%, 78.823529%, 9.019608%)" fill-opacity="1" d="M 50 50 L 925 50 L 925 290 L 50 290 Z M 50 50 "/>
<path fill-rule="nonzero" fill="rgb(34.901961%, 14.901961%, 14.901961%)" fill-opacity="1" d="M 194.179688 77.28125 L 182.75 77.460938 L 182.207031 78 C 182.570312 89.699219 182.839844 97.53125 182.839844 107.878906 C 182.839844 118.859375 182.570312 129.75 182.296875 140.730469 L 182.839844 141.269531 C 189.5 141 190.9375 140.910156 198.140625 141 L 198.589844 140.460938 C 198.230469 130.648438 198.230469 128.398438 198.230469 119.21875 C 208.308594 119.308594 219.109375 119.308594 225.589844 111.390625 C 228.109375 108.328125 230.269531 103.199219 230.269531 96.898438 C 230.269531 93.03125 229.367188 84.480469 221.898438 80.25 C 216.5 77.101562 208.847656 77.101562 202.097656 77.101562 L 194.179688 77.28125 M 198.230469 88.171875 C 200.207031 88.078125 202.097656 88.078125 204.078125 88.078125 C 212 88.261719 214.160156 92.308594 214.160156 97.53125 C 214.160156 98.789062 214.160156 104.011719 209.390625 106.621094 C 206.957031 107.96875 203.628906 108.148438 198.230469 108.148438 Z M 282.289062 117.058594 C 282.289062 113.550781 282.289062 98.96875 269.6875 94.019531 C 265.726562 92.488281 261.046875 92.308594 258.707031 92.308594 C 243.046875 92.308594 234.226562 100.679688 234.226562 117.238281 C 234.226562 123 235.128906 128.851562 238.457031 133.710938 C 240.796875 137.21875 245.207031 142.078125 258.078125 142.078125 C 277.15625 142.078125 282.289062 130.558594 282.289062 117.058594 M 266.71875 116.96875 C 266.71875 124.351562 265.726562 132.539062 258.257812 132.539062 C 255.917969 132.539062 254.296875 131.460938 253.21875 130.46875 C 251.6875 128.941406 249.976562 125.878906 249.976562 117.148438 C 249.976562 114.539062 249.976562 108.78125 251.777344 105.628906 C 253.128906 103.199219 255.46875 101.578125 258.347656 101.578125 C 260.867188 101.578125 262.9375 102.929688 264.109375 104.371094 C 266.269531 106.980469 266.71875 112.109375 266.71875 116.96875 Z M 307.128906 140.371094 C 306.675781 133.441406 306.316406 128.128906 306.316406 115.710938 C 306.316406 108.058594 306.496094 100.320312 306.585938 92.671875 L 305.957031 91.949219 L 290.476562 94.648438 L 289.9375 95.191406 C 290.65625 102.03125 290.925781 105.179688 290.925781 117.960938 C 290.925781 127.769531 290.65625 133.261719 290.386719 140.640625 L 290.925781 141.269531 C 297.40625 141 299.207031 140.910156 306.496094 141 L 307.128906 140.371094 M 305.6875 83.308594 L 305.957031 71.070312 L 305.417969 70.53125 L 290.746094 72.328125 L 290.207031 72.960938 C 290.386719 76.199219 290.476562 78.089844 290.476562 80.25 C 290.476562 81.960938 290.476562 83.761719 290.386719 85.46875 L 291.015625 86.011719 C 297.136719 84.929688 298.847656 84.75 305.238281 83.941406 Z M 361.21875 140.371094 C 360.769531 132.449219 360.769531 129.929688 360.589844 121.109375 L 360.589844 114.089844 C 360.5 105.449219 360.410156 101.308594 358.160156 97.621094 C 355.367188 92.941406 350.238281 92.21875 347 92.21875 C 341.507812 92.21875 336.738281 95.101562 332.597656 97.53125 L 332.777344 92.578125 L 331.878906 91.949219 C 324.949219 93.390625 323.417969 93.660156 316.667969 94.558594 L 316.128906 95.191406 C 316.847656 103.019531 317.390625 108.691406 317.390625 123.359375 C 317.390625 129.121094 317.296875 134.878906 317.207031 140.640625 L 317.75 141.179688 C 324.230469 140.910156 325.578125 140.910156 332.777344 140.910156 L 333.320312 140.371094 C 332.777344 126.511719 332.6875 123 332.597656 106.890625 C 334.488281 105.628906 336.648438 104.101562 339.527344 104.101562 C 344.480469 104.101562 344.929688 109.410156 345.199219 112.648438 C 345.378906 115.621094 345.46875 127.949219 345.46875 131.371094 C 345.46875 134.429688 345.378906 137.578125 345.378906 140.640625 L 345.917969 141.179688 C 351.859375 141 353.390625 140.910156 360.589844 140.910156 Z M 396.679688 130.648438 C 395.148438 131.101562 394.066406 131.460938 392.539062 131.460938 C 387.949219 131.460938 387.589844 128.578125 387.40625 127.230469 C 387.136719 124.890625 387.136719 119.941406 387.226562 116.339844 L 387.40625 103.648438 L 395.507812 104.011719 L 396.046875 103.46875 L 396.949219 93.839844 L 396.40625 93.300781 L 387.40625 93.300781 L 387.679688 78.179688 L 387.046875 77.640625 C 380.929688 79.441406 379.308594 79.890625 372.917969 81.511719 L 372.558594 82.140625 L 372.648438 93.390625 L 367.789062 93.210938 L 367.25 93.660156 L 366.4375 103.289062 L 366.976562 103.828125 L 372.648438 103.648438 L 372.378906 117.960938 C 372.289062 120.210938 372.199219 122.460938 372.199219 124.800781 C 372.199219 133.078125 372.378906 141.988281 386.417969 141.988281 C 389.929688 141.988281 392.71875 141.449219 395.867188 140.910156 L 396.5 140.28125 L 397.398438 131.011719 Z M 455.628906 102.300781 C 448.070312 99.148438 444.109375 97.53125 444.109375 93.480469 C 444.109375 90.691406 446.71875 87.179688 452.660156 87.179688 C 459.5 87.179688 463.546875 89.96875 466.878906 92.21875 L 467.6875 91.859375 L 468.410156 80.070312 L 467.957031 79.441406 C 464.089844 77.820312 460.039062 76.109375 451.308594 76.109375 C 434.390625 76.109375 428.539062 85.648438 428.539062 95.28125 C 428.539062 106.171875 437 110.128906 442.039062 112.558594 L 445.007812 113.910156 C 451.21875 116.519531 455.988281 118.769531 455.988281 123.539062 C 455.988281 126.960938 453.019531 131.011719 445.1875 131.011719 C 437 131.011719 432.410156 127.410156 429.796875 125.339844 L 428.898438 125.609375 L 428.269531 138.300781 L 428.808594 139.019531 C 429.796875 139.378906 430.789062 139.828125 431.777344 140.101562 C 433.847656 140.820312 439.160156 142.351562 445.910156 142.351562 C 448.609375 142.351562 455.449219 142.078125 460.847656 139.558594 C 468.410156 135.871094 471.648438 129.03125 471.648438 121.378906 C 471.648438 116.25 469.667969 110.761719 464.898438 107.070312 C 462.46875 105.269531 460.128906 104.191406 457.96875 103.199219 Z M 523.398438 92.851562 L 508.726562 93.570312 L 508.097656 94.109375 C 508.726562 104.28125 508.726562 118.679688 508.726562 120.121094 C 508.726562 122.730469 508.726562 124.171875 508.636719 127.769531 C 506.207031 129.390625 504.316406 130.738281 501.886719 130.738281 C 495.40625 130.738281 495.40625 123.898438 495.40625 118.589844 C 495.40625 116.339844 495.40625 114 495.496094 111.75 L 495.675781 93.570312 L 495.046875 92.851562 L 480.195312 93.570312 L 479.566406 94.109375 C 480.105469 101.671875 480.195312 104.191406 480.195312 113.28125 L 480.195312 119.578125 C 480.105469 129.390625 480.558594 133.53125 483.796875 137.308594 C 486.765625 140.640625 491.085938 142.078125 495.585938 142.078125 C 501.976562 142.078125 505.667969 139.199219 508.90625 136.679688 L 508.816406 140.730469 L 509.445312 141.269531 C 516.015625 141 517.996094 141 523.847656 141 L 524.386719 140.460938 C 523.9375 134.070312 523.757812 130.648438 523.757812 118.949219 C 523.757812 110.488281 523.847656 102.03125 524.027344 93.570312 Z M 560.570312 107.609375 L 563.089844 92.941406 L 562.550781 92.308594 C 561.921875 92.308594 561.289062 92.21875 560.660156 92.21875 C 556.96875 92.21875 552.832031 94.289062 549.949219 100.949219 L 550.21875 92.671875 L 549.5 91.949219 C 542.839844 93.390625 541.128906 93.660156 534.558594 94.648438 L 534.019531 95.191406 C 534.558594 101.941406 534.832031 105.988281 534.832031 118.5 C 534.832031 125.878906 534.738281 133.261719 534.558594 140.730469 L 535.101562 141.269531 C 541.761719 141 543.199219 140.910156 550.398438 141 L 550.851562 140.371094 C 550.488281 133.078125 549.949219 122.910156 549.949219 116.699219 C 549.949219 112.648438 549.949219 106.710938 556.070312 106.710938 C 557.601562 106.710938 558.5 107.25 559.761719 107.96875 Z M 620.597656 102.300781 C 613.039062 99.148438 609.078125 97.53125 609.078125 93.480469 C 609.078125 90.691406 611.6875 87.179688 617.628906 87.179688 C 624.46875 87.179688 628.515625 89.96875 631.847656 92.21875 L 632.65625 91.859375 L 633.378906 80.070312 L 632.925781 79.441406 C 629.058594 77.820312 625.007812 76.109375 616.277344 76.109375 C 599.359375 76.109375 593.507812 85.648438 593.507812 95.28125 C 593.507812 106.171875 601.96875 110.128906 607.007812 112.558594 L 609.976562 113.910156 C 616.1875 116.519531 620.957031 118.769531 620.957031 123.539062 C 620.957031 126.960938 617.988281 131.011719 610.15625 131.011719 C 601.96875 131.011719 597.378906 127.410156 594.765625 125.339844 L 593.867188 125.609375 L 593.238281 138.300781 L 593.777344 139.019531 C 594.765625 139.378906 595.757812 139.828125 596.746094 140.101562 C 598.816406 140.820312 604.128906 142.351562 610.878906 142.351562 C 613.578125 142.351562 620.417969 142.078125 625.816406 139.558594 C 633.378906 135.871094 636.617188 129.03125 636.617188 121.378906 C 636.617188 116.25 634.636719 110.761719 629.867188 107.070312 C 627.4375 105.269531 625.097656 104.191406 622.9375 103.199219 Z M 670.371094 130.648438 C 668.839844 131.101562 667.757812 131.460938 666.230469 131.460938 C 661.640625 131.460938 661.28125 128.578125 661.097656 127.230469 C 660.828125 124.890625 660.828125 119.941406 660.917969 116.339844 L 661.097656 103.648438 L 669.199219 104.011719 L 669.738281 103.46875 L 670.640625 93.839844 L 670.097656 93.300781 L 661.097656 93.300781 L 661.371094 78.179688 L 660.738281 77.640625 C 654.621094 79.441406 653 79.890625 646.609375 81.511719 L 646.25 82.140625 L 646.339844 93.390625 L 641.480469 93.210938 L 640.941406 93.660156 L 640.128906 103.289062 L 640.667969 103.828125 L 646.339844 103.648438 L 646.070312 117.960938 C 645.980469 120.210938 645.890625 122.460938 645.890625 124.800781 C 645.890625 133.078125 646.070312 141.988281 660.109375 141.988281 C 663.621094 141.988281 666.410156 141.449219 669.558594 140.910156 L 670.191406 140.28125 L 671.089844 131.011719 Z M 717.078125 114.179688 C 717.167969 106.078125 717.167969 102.570312 714.828125 98.789062 C 713.027344 95.910156 709.429688 92.308594 697.910156 92.308594 C 690.167969 92.308594 685.398438 93.75 680.269531 95.28125 L 679.730469 96 L 679.277344 105.808594 L 680 106.171875 C 683.148438 104.910156 689 102.570312 695.027344 102.570312 C 698.359375 102.570312 699.707031 103.109375 700.878906 104.28125 C 701.777344 105.179688 702.050781 106.800781 702.050781 108.148438 C 691.25 109.589844 686.207031 110.578125 680.808594 113.910156 C 675.769531 117.058594 674.058594 122.191406 674.058594 126.238281 C 674.058594 135.871094 680.988281 142.078125 689.808594 142.078125 C 696.558594 142.078125 700.429688 138.839844 702.320312 137.308594 L 702.320312 140.640625 L 702.859375 141.269531 C 709.339844 141 711.320312 140.910156 717.167969 141 L 717.617188 140.371094 C 716.988281 131.550781 716.988281 129.300781 716.988281 120.839844 L 717.078125 114.179688 M 702.230469 128.488281 C 700.339844 129.570312 697.910156 130.828125 694.9375 130.828125 C 691.699219 130.828125 689 129.121094 689 125.339844 C 689 119.398438 696.109375 118.410156 702.230469 117.601562 Z M 752.808594 130.648438 C 751.277344 131.101562 750.195312 131.460938 748.667969 131.460938 C 744.078125 131.460938 743.71875 128.578125 743.535156 127.230469 C 743.265625 124.890625 743.265625 119.941406 743.355469 116.339844 L 743.535156 103.648438 L 751.636719 104.011719 L 752.175781 103.46875 L 753.078125 93.839844 L 752.535156 93.300781 L 743.535156 93.300781 L 743.808594 78.179688 L 743.175781 77.640625 C 737.058594 79.441406 735.4375 79.890625 729.046875 81.511719 L 728.6875 82.140625 L 728.777344 93.390625 L 723.917969 93.210938 L 723.378906 93.660156 L 722.566406 103.289062 L 723.105469 103.828125 L 728.777344 103.648438 L 728.507812 117.960938 C 728.417969 120.210938 728.328125 122.460938 728.328125 124.800781 C 728.328125 133.078125 728.507812 141.988281 742.546875 141.988281 C 746.058594 141.988281 748.847656 141.449219 751.996094 140.910156 L 752.628906 140.28125 L 753.527344 131.011719 Z M 799.429688 127.679688 C 796.011719 129.480469 791.960938 131.550781 785.390625 131.550781 C 779.992188 131.550781 776.300781 129.839844 774.140625 126.601562 C 772.789062 124.710938 772.519531 122.910156 772.160156 121.109375 L 801.230469 120.570312 L 801.769531 119.941406 C 801.679688 115.53125 801.589844 111.03125 800.332031 106.53125 C 797.179688 95.910156 790.25 93.75 787.191406 93.03125 C 784.941406 92.398438 782.871094 92.21875 780.800781 92.21875 C 766.671875 92.21875 757.308594 101.488281 757.308594 117.058594 C 757.308594 121.289062 758.03125 125.699219 759.46875 128.851562 C 764.691406 141 776.929688 142.078125 783.410156 142.078125 C 790.878906 142.078125 794.121094 140.730469 798.890625 138.839844 L 799.429688 138.121094 L 800.058594 127.949219 L 799.429688 127.679688 M 772.160156 111.570312 C 772.429688 108.78125 773.058594 105 776.480469 102.839844 C 777.558594 102.121094 778.820312 101.851562 780.082031 101.851562 C 783.050781 101.851562 784.851562 103.378906 785.839844 105 C 787.101562 106.980469 787.191406 109.140625 787.191406 111.210938 Z M 804.648438 141 "/>
<path fill-rule="nonzero" fill="rgb(34.901961%, 14.901961%, 14.901961%)" fill-opacity="1" d="M 277.921875 197.191406 C 270.722656 197.460938 269.554688 197.460938 261.992188 197.460938 L 261.542969 198 C 262.171875 208.171875 262.171875 210.78125 262.261719 221.398438 C 258.304688 221.488281 254.34375 221.578125 250.292969 221.578125 C 247.144531 221.578125 243.902344 221.488281 240.753906 221.488281 L 240.933594 197.730469 L 240.484375 197.191406 C 233.554688 197.460938 232.203125 197.460938 224.375 197.460938 L 223.832031 198 C 224.285156 207.269531 224.824219 218.339844 224.824219 240.660156 C 224.824219 248.761719 224.644531 253.171875 224.464844 260.730469 L 224.914062 261.269531 C 231.484375 261 233.101562 260.910156 241.023438 261 L 241.472656 260.460938 C 240.933594 249.300781 240.84375 246.058594 240.753906 233.011719 C 244.714844 232.828125 248.042969 232.738281 251.554688 232.738281 C 255.152344 232.738281 258.753906 232.828125 262.351562 232.921875 C 262.535156 245.070312 262.535156 248.039062 262.082031 260.730469 L 262.535156 261.269531 C 269.285156 261 271.082031 260.910156 278.734375 261 L 279.183594 260.460938 C 278.464844 245.339844 278.191406 230.308594 278.191406 215.191406 C 278.191406 208.890625 278.285156 204.660156 278.375 197.730469 Z M 305.914062 260.371094 C 305.460938 253.441406 305.101562 248.128906 305.101562 235.710938 C 305.101562 228.058594 305.28125 220.320312 305.371094 212.671875 L 304.742188 211.949219 L 289.261719 214.648438 L 288.722656 215.191406 C 289.441406 222.03125 289.710938 225.179688 289.710938 237.960938 C 289.710938 247.769531 289.441406 253.261719 289.171875 260.640625 L 289.710938 261.269531 C 296.191406 261 297.992188 260.910156 305.28125 261 L 305.914062 260.371094 M 304.472656 203.308594 L 304.742188 191.070312 L 304.203125 190.53125 L 289.53125 192.328125 L 288.992188 192.960938 C 289.171875 196.199219 289.261719 198.089844 289.261719 200.25 C 289.261719 201.960938 289.261719 203.761719 289.171875 205.46875 L 289.800781 206.011719 C 295.921875 204.929688 297.632812 204.75 304.023438 203.941406 Z M 334.804688 229.949219 C 331.742188 228.871094 329.3125 227.878906 329.3125 225.359375 C 329.3125 224.28125 330.035156 221.308594 335.613281 221.308594 C 341.105469 221.308594 344.613281 223.648438 346.863281 225.089844 L 347.675781 224.820312 L 348.574219 215.011719 L 348.125 214.46875 C 343.894531 213.300781 340.203125 212.21875 334.355469 212.21875 C 329.945312 212.21875 321.125 212.578125 316.445312 219.328125 C 315.273438 220.949219 314.015625 223.648438 314.015625 227.25 C 314.015625 236.878906 321.484375 239.761719 325.714844 241.378906 L 329.132812 242.640625 C 331.5625 243.449219 335.523438 244.800781 335.523438 248.039062 C 335.523438 250.289062 333.453125 252.71875 328.414062 252.71875 C 325.894531 252.71875 322.203125 251.910156 318.875 250.199219 C 317.34375 249.390625 316.625 248.761719 315.273438 247.679688 L 314.464844 248.039062 C 314.285156 252.71875 314.195312 253.710938 313.832031 258.210938 L 314.285156 259.019531 C 318.695312 260.640625 322.472656 262.078125 329.042969 262.078125 C 335.882812 262.078125 349.382812 260.820312 351.003906 247.949219 C 351.09375 247.230469 351.09375 246.601562 351.09375 245.96875 C 351.09375 236.070312 344.164062 233.460938 339.214844 231.570312 Z M 384.214844 250.648438 C 382.683594 251.101562 381.601562 251.460938 380.074219 251.460938 C 375.484375 251.460938 375.125 248.578125 374.941406 247.230469 C 374.671875 244.890625 374.671875 239.941406 374.761719 236.339844 L 374.941406 223.648438 L 383.042969 224.011719 L 383.582031 223.46875 L 384.484375 213.839844 L 383.941406 213.300781 L 374.941406 213.300781 L 375.214844 198.179688 L 374.582031 197.640625 C 368.464844 199.441406 366.84375 199.890625 360.453125 201.511719 L 360.09375 202.140625 L 360.183594 213.390625 L 355.324219 213.210938 L 354.785156 213.660156 L 353.972656 223.289062 L 354.511719 223.828125 L 360.183594 223.648438 L 359.914062 237.960938 C 359.824219 240.210938 359.734375 242.460938 359.734375 244.800781 C 359.734375 253.078125 359.914062 261.988281 373.953125 261.988281 C 377.464844 261.988281 380.253906 261.449219 383.402344 260.910156 L 384.035156 260.28125 L 384.933594 251.011719 Z M 436.683594 237.058594 C 436.683594 233.550781 436.683594 218.96875 424.082031 214.019531 C 420.121094 212.488281 415.441406 212.308594 413.101562 212.308594 C 397.441406 212.308594 388.621094 220.679688 388.621094 237.238281 C 388.621094 243 389.523438 248.851562 392.851562 253.710938 C 395.191406 257.21875 399.601562 262.078125 412.472656 262.078125 C 431.550781 262.078125 436.683594 250.558594 436.683594 237.058594 M 421.113281 236.96875 C 421.113281 244.351562 420.121094 252.539062 412.652344 252.539062 C 410.3125 252.539062 408.691406 251.460938 407.613281 250.46875 C 406.082031 248.941406 404.371094 245.878906 404.371094 237.148438 C 404.371094 234.539062 404.371094 228.78125 406.171875 225.628906 C 407.523438 223.199219 409.863281 221.578125 412.742188 221.578125 C 415.261719 221.578125 417.332031 222.929688 418.503906 224.371094 C 420.664062 226.980469 421.113281 232.109375 421.113281 236.96875 Z M 471.242188 227.609375 L 473.761719 212.941406 L 473.222656 212.308594 C 472.59375 212.308594 471.960938 212.21875 471.332031 212.21875 C 467.640625 212.21875 463.503906 214.289062 460.621094 220.949219 L 460.890625 212.671875 L 460.171875 211.949219 C 453.511719 213.390625 451.800781 213.660156 445.230469 214.648438 L 444.691406 215.191406 C 445.230469 221.941406 445.503906 225.988281 445.503906 238.5 C 445.503906 245.878906 445.410156 253.261719 445.230469 260.730469 L 445.773438 261.269531 C 452.433594 261 453.871094 260.910156 461.070312 261 L 461.523438 260.371094 C 461.160156 253.078125 460.621094 242.910156 460.621094 236.699219 C 460.621094 232.648438 460.621094 226.710938 466.742188 226.710938 C 468.273438 226.710938 469.171875 227.25 470.433594 227.96875 Z M 495.273438 260.371094 C 494.820312 253.441406 494.460938 248.128906 494.460938 235.710938 C 494.460938 228.058594 494.640625 220.320312 494.730469 212.671875 L 494.101562 211.949219 L 478.621094 214.648438 L 478.082031 215.191406 C 478.800781 222.03125 479.070312 225.179688 479.070312 237.960938 C 479.070312 247.769531 478.800781 253.261719 478.53125 260.640625 L 479.070312 261.269531 C 485.550781 261 487.351562 260.910156 494.640625 261 L 495.273438 260.371094 M 493.832031 203.308594 L 494.101562 191.070312 L 493.5625 190.53125 L 478.890625 192.328125 L 478.351562 192.960938 C 478.53125 196.199219 478.621094 198.089844 478.621094 200.25 C 478.621094 201.960938 478.621094 203.761719 478.53125 205.46875 L 479.160156 206.011719 C 485.28125 204.929688 486.992188 204.75 493.382812 203.941406 Z M 540.453125 248.039062 C 538.023438 249.480469 535.683594 250.921875 531.09375 250.921875 C 520.921875 250.921875 518.851562 242.460938 518.851562 237.058594 C 518.851562 230.488281 521.734375 222.929688 530.464844 222.929688 C 534.421875 222.929688 536.582031 224.371094 539.285156 226.171875 L 540.183594 225.898438 C 540.542969 221.128906 540.632812 219.871094 541.351562 215.101562 L 540.902344 214.558594 C 536.941406 213.300781 533.523438 212.21875 528.304688 212.21875 C 507.152344 212.21875 503.011719 228.238281 503.011719 237.421875 C 503.011719 247.769531 508.414062 261.808594 528.664062 261.808594 C 533.433594 261.808594 536.492188 260.910156 540.273438 259.828125 L 540.8125 259.289062 L 541.171875 248.488281 Z M 586.714844 197.28125 L 575.285156 197.460938 L 574.742188 198 C 575.105469 209.699219 575.375 217.53125 575.375 227.878906 C 575.375 238.859375 575.105469 249.75 574.832031 260.730469 L 575.375 261.269531 C 582.035156 261 583.472656 260.910156 590.675781 261 L 591.125 260.460938 C 590.765625 250.648438 590.765625 248.398438 590.765625 239.21875 C 600.84375 239.308594 611.644531 239.308594 618.125 231.390625 C 620.644531 228.328125 622.804688 223.199219 622.804688 216.898438 C 622.804688 213.03125 621.902344 204.480469 614.433594 200.25 C 609.035156 197.101562 601.382812 197.101562 594.632812 197.101562 L 586.714844 197.28125 M 590.765625 208.171875 C 592.742188 208.078125 594.632812 208.078125 596.613281 208.078125 C 604.535156 208.261719 606.695312 212.308594 606.695312 217.53125 C 606.695312 218.789062 606.695312 224.011719 601.925781 226.621094 C 599.492188 227.96875 596.164062 228.148438 590.765625 228.148438 Z M 669.0625 234.179688 C 669.152344 226.078125 669.152344 222.570312 666.8125 218.789062 C 665.011719 215.910156 661.414062 212.308594 649.894531 212.308594 C 642.152344 212.308594 637.382812 213.75 632.253906 215.28125 L 631.714844 216 L 631.261719 225.808594 L 631.984375 226.171875 C 635.132812 224.910156 640.984375 222.570312 647.011719 222.570312 C 650.34375 222.570312 651.691406 223.109375 652.863281 224.28125 C 653.761719 225.179688 654.035156 226.800781 654.035156 228.148438 C 643.234375 229.589844 638.191406 230.578125 632.792969 233.910156 C 627.753906 237.058594 626.042969 242.191406 626.042969 246.238281 C 626.042969 255.871094 632.972656 262.078125 641.792969 262.078125 C 648.542969 262.078125 652.414062 258.839844 654.304688 257.308594 L 654.304688 260.640625 L 654.84375 261.269531 C 661.324219 261 663.304688 260.910156 669.152344 261 L 669.601562 260.371094 C 668.972656 251.550781 668.972656 249.300781 668.972656 240.839844 L 669.0625 234.179688 M 654.214844 248.488281 C 652.324219 249.570312 649.894531 250.828125 646.921875 250.828125 C 643.683594 250.828125 640.984375 249.121094 640.984375 245.339844 C 640.984375 239.398438 648.09375 238.410156 654.214844 237.601562 Z M 705.601562 227.609375 L 708.121094 212.941406 L 707.582031 212.308594 C 706.953125 212.308594 706.320312 212.21875 705.691406 212.21875 C 702 212.21875 697.863281 214.289062 694.980469 220.949219 L 695.25 212.671875 L 694.53125 211.949219 C 687.871094 213.390625 686.160156 213.660156 679.589844 214.648438 L 679.050781 215.191406 C 679.589844 221.941406 679.863281 225.988281 679.863281 238.5 C 679.863281 245.878906 679.769531 253.261719 679.589844 260.730469 L 680.132812 261.269531 C 686.792969 261 688.230469 260.910156 695.429688 261 L 695.882812 260.371094 C 695.519531 253.078125 694.980469 242.910156 694.980469 236.699219 C 694.980469 232.648438 694.980469 226.710938 701.101562 226.710938 C 702.632812 226.710938 703.53125 227.25 704.792969 227.96875 Z M 759.601562 259.828125 C 751.140625 245.519531 750.242188 243.898438 743.402344 231.570312 C 749.613281 223.109375 750.242188 222.210938 756.632812 214.019531 L 756.179688 213.121094 L 741.511719 213.300781 L 740.613281 213.929688 C 733.589844 226.078125 732.691406 227.519531 728.550781 233.730469 L 728.550781 223.738281 C 728.640625 206.910156 728.730469 203.308594 729.179688 189.71875 L 728.460938 189.179688 L 712.800781 191.519531 L 712.261719 192.148438 C 712.890625 200.878906 713.160156 205.109375 713.339844 216.898438 C 713.519531 231.480469 713.519531 246.058594 713.429688 260.640625 L 714.0625 261.269531 C 720.089844 261 721.800781 261 728.640625 261 L 729.179688 260.371094 L 728.640625 245.160156 L 728.550781 234.808594 C 736.382812 249.210938 737.371094 251.191406 741.960938 260.730469 L 742.769531 261.269531 L 758.972656 260.640625 Z M 758.523438 261 "/>
</svg>
