<?xml version="1.0" encoding="UTF-8"?>
<svg xmlns="http://www.w3.org/2000/svg" xmlns:xlink="http://www.w3.org/1999/xlink" width="975" height="1300" viewBox="0 0 975 1300">
<path fill-rule="nonzero" fill="rgb(98.823529%, 78.823529%, 9.019608%)" fill-opacity="1" d="M 50 50 L 925 50 L 925 290 L 50 290 Z M 50 50 "/>
<path fill-rule="nonzero" fill="rgb(34.901961%, 14.901961%, 14.901961%)" fill-opacity="1" d="M 149.765625 141.179688 C 152.015625 141.359375 153.726562 141.539062 155.796875 141.539062 C 176.136719 141.539062 176.136719 129.300781 176.136719 120.300781 C 176.136719 118.050781 176.046875 115.800781 175.957031 113.550781 L 175.957031 77.730469 L 175.507812 77.191406 C 168.574219 77.460938 167.136719 77.460938 159.667969 77.460938 L 159.214844 78 C 159.667969 90.78125 160.027344 101.851562 160.027344 114.898438 C 160.027344 123.179688 160.027344 129.570312 153.097656 129.570312 C 151.746094 129.570312 151.027344 129.300781 149.855469 128.941406 L 149.316406 129.480469 L 149.316406 140.550781 Z M 232.566406 117.058594 C 232.566406 113.550781 232.566406 98.96875 219.964844 94.019531 C 216.003906 92.488281 211.324219 92.308594 208.984375 92.308594 C 193.324219 92.308594 184.503906 100.679688 184.503906 117.238281 C 184.503906 123 185.40625 128.851562 188.734375 133.710938 C 191.074219 137.21875 195.484375 142.078125 208.355469 142.078125 C 227.433594 142.078125 232.566406 130.558594 232.566406 117.058594 M 216.996094 116.96875 C 216.996094 124.351562 216.003906 132.539062 208.535156 132.539062 C 206.195312 132.539062 204.574219 131.460938 203.496094 130.46875 C 201.964844 128.941406 200.253906 125.878906 200.253906 117.148438 C 200.253906 114.539062 200.253906 108.78125 202.054688 105.628906 C 203.40625 103.199219 205.746094 101.578125 208.625 101.578125 C 211.144531 101.578125 213.214844 102.929688 214.386719 104.371094 C 216.546875 106.980469 216.996094 112.109375 216.996094 116.96875 Z M 285.214844 140.371094 C 284.855469 132.988281 284.765625 130.46875 284.585938 121.109375 L 284.585938 114.359375 C 284.496094 105.808594 284.40625 100.859375 281.792969 97.078125 C 279.183594 93.390625 275.40625 92.21875 271.445312 92.21875 C 264.875 92.21875 259.746094 95.371094 256.144531 97.53125 L 256.414062 69.808594 L 255.875 69.179688 L 240.484375 71.609375 L 240.035156 72.148438 C 240.84375 80.878906 241.023438 84.121094 241.203125 95.730469 C 241.386719 103.019531 241.476562 110.308594 241.476562 117.601562 C 241.476562 126.511719 241.292969 131.820312 241.113281 140.640625 L 241.566406 141.269531 C 248.226562 140.910156 249.574219 140.910156 256.863281 140.910156 L 257.40625 140.371094 C 256.773438 126.871094 256.683594 122.820312 256.59375 106.890625 C 258.304688 105.71875 260.464844 104.191406 263.523438 104.191406 C 268.476562 104.191406 268.835938 109.320312 269.195312 112.921875 C 269.375 115.710938 269.464844 128.488281 269.464844 131.820312 C 269.464844 134.789062 269.375 137.671875 269.375 140.640625 L 269.824219 141.269531 C 276.304688 140.910156 277.746094 140.910156 284.675781 140.910156 Z M 339.574219 140.371094 C 339.125 132.449219 339.125 129.929688 338.945312 121.109375 L 338.945312 114.089844 C 338.855469 105.449219 338.765625 101.308594 336.515625 97.621094 C 333.722656 92.941406 328.59375 92.21875 325.355469 92.21875 C 319.863281 92.21875 315.09375 95.101562 310.953125 97.53125 L 311.132812 92.578125 L 310.234375 91.949219 C 303.304688 93.390625 301.773438 93.660156 295.023438 94.558594 L 294.484375 95.191406 C 295.203125 103.019531 295.746094 108.691406 295.746094 123.359375 C 295.746094 129.121094 295.652344 134.878906 295.5625 140.640625 L 296.105469 141.179688 C 302.585938 140.910156 303.933594 140.910156 311.132812 140.910156 L 311.675781 140.371094 C 311.132812 126.511719 311.042969 123 310.953125 106.890625 C 312.84375 105.628906 315.003906 104.101562 317.882812 104.101562 C 322.835938 104.101562 323.285156 109.410156 323.554688 112.648438 C 323.734375 115.621094 323.824219 127.949219 323.824219 131.371094 C 323.824219 134.429688 323.734375 137.578125 323.734375 140.640625 L 324.273438 141.179688 C 330.214844 141 331.746094 140.910156 338.945312 140.910156 Z M 414.816406 128.671875 C 405.003906 129.210938 397.175781 129.390625 394.476562 129.390625 L 392.675781 129.390625 C 392.496094 105.359375 392.585938 99.238281 393.304688 77.730469 L 392.765625 77.191406 C 385.023438 77.550781 382.953125 77.550781 376.746094 77.460938 L 376.203125 78 C 376.566406 85.199219 376.65625 87.359375 376.65625 98.070312 C 376.65625 112.289062 376.566406 126.511719 376.566406 140.730469 L 377.015625 141.269531 C 394.65625 141 397.894531 141 414.09375 141 L 414.542969 140.460938 L 415.265625 129.121094 Z M 439.296875 140.371094 C 438.84375 133.441406 438.484375 128.128906 438.484375 115.710938 C 438.484375 108.058594 438.664062 100.320312 438.753906 92.671875 L 438.125 91.949219 L 422.644531 94.648438 L 422.105469 95.191406 C 422.824219 102.03125 423.09375 105.179688 423.09375 117.960938 C 423.09375 127.769531 422.824219 133.261719 422.554688 140.640625 L 423.09375 141.269531 C 429.574219 141 431.375 140.910156 438.664062 141 L 439.296875 140.371094 M 437.855469 83.308594 L 438.125 71.070312 L 437.585938 70.53125 L 422.914062 72.328125 L 422.375 72.960938 C 422.554688 76.199219 422.644531 78.089844 422.644531 80.25 C 422.644531 81.960938 422.644531 83.761719 422.554688 85.46875 L 423.183594 86.011719 C 429.304688 84.929688 431.015625 84.75 437.40625 83.941406 Z M 474.488281 130.648438 C 472.957031 131.101562 471.875 131.460938 470.347656 131.460938 C 465.757812 131.460938 465.398438 128.578125 465.214844 127.230469 C 464.945312 124.890625 464.945312 119.941406 465.035156 116.339844 L 465.214844 103.648438 L 473.316406 104.011719 L 473.855469 103.46875 L 474.757812 93.839844 L 474.214844 93.300781 L 465.214844 93.300781 L 465.488281 78.179688 L 464.855469 77.640625 C 458.738281 79.441406 457.117188 79.890625 450.726562 81.511719 L 450.367188 82.140625 L 450.457031 93.390625 L 445.597656 93.210938 L 445.058594 93.660156 L 444.246094 103.289062 L 444.785156 103.828125 L 450.457031 103.648438 L 450.1875 117.960938 C 450.097656 120.210938 450.007812 122.460938 450.007812 124.800781 C 450.007812 133.078125 450.1875 141.988281 464.226562 141.988281 C 467.738281 141.988281 470.527344 141.449219 473.675781 140.910156 L 474.308594 140.28125 L 475.207031 131.011719 Z M 506.347656 130.648438 C 504.816406 131.101562 503.734375 131.460938 502.207031 131.460938 C 497.617188 131.460938 497.257812 128.578125 497.074219 127.230469 C 496.804688 124.890625 496.804688 119.941406 496.894531 116.339844 L 497.074219 103.648438 L 505.175781 104.011719 L 505.714844 103.46875 L 506.617188 93.839844 L 506.074219 93.300781 L 497.074219 93.300781 L 497.347656 78.179688 L 496.714844 77.640625 C 490.597656 79.441406 488.976562 79.890625 482.585938 81.511719 L 482.226562 82.140625 L 482.316406 93.390625 L 477.457031 93.210938 L 476.917969 93.660156 L 476.105469 103.289062 L 476.644531 103.828125 L 482.316406 103.648438 L 482.046875 117.960938 C 481.957031 120.210938 481.867188 122.460938 481.867188 124.800781 C 481.867188 133.078125 482.046875 141.988281 496.085938 141.988281 C 499.597656 141.988281 502.386719 141.449219 505.535156 140.910156 L 506.167969 140.28125 L 507.066406 131.011719 Z M 528.84375 140.371094 C 528.394531 130.019531 527.945312 120.570312 527.945312 92.128906 C 527.945312 83.578125 528.035156 79.53125 528.394531 69.808594 L 527.765625 69.179688 L 512.375 71.609375 L 512.015625 72.148438 C 512.914062 83.128906 513.003906 86.101562 513.183594 100.679688 C 513.277344 105.988281 513.277344 111.300781 513.277344 116.609375 C 513.277344 126.328125 513.09375 131.730469 512.734375 140.640625 L 513.277344 141.269531 C 519.304688 141 521.734375 140.910156 528.304688 141 Z M 579.246094 127.679688 C 575.828125 129.480469 571.777344 131.550781 565.207031 131.550781 C 559.808594 131.550781 556.117188 129.839844 553.957031 126.601562 C 552.605469 124.710938 552.335938 122.910156 551.976562 121.109375 L 581.046875 120.570312 L 581.585938 119.941406 C 581.496094 115.53125 581.40625 111.03125 580.148438 106.53125 C 576.996094 95.910156 570.066406 93.75 567.007812 93.03125 C 564.757812 92.398438 562.6875 92.21875 560.617188 92.21875 C 546.488281 92.21875 537.125 101.488281 537.125 117.058594 C 537.125 121.289062 537.847656 125.699219 539.285156 128.851562 C 544.507812 141 556.746094 142.078125 563.226562 142.078125 C 570.695312 142.078125 573.9375 140.730469 578.707031 138.839844 L 579.246094 138.121094 L 579.875 127.949219 L 579.246094 127.679688 M 551.976562 111.570312 C 552.246094 108.78125 552.875 105 556.296875 102.839844 C 557.375 102.121094 558.636719 101.851562 559.898438 101.851562 C 562.867188 101.851562 564.667969 103.378906 565.65625 105 C 566.917969 106.980469 567.007812 109.140625 567.007812 111.210938 Z M 642.15625 102.300781 C 634.597656 99.148438 630.636719 97.53125 630.636719 93.480469 C 630.636719 90.691406 633.246094 87.179688 639.1875 87.179688 C 646.027344 87.179688 650.074219 89.96875 653.40625 92.21875 L 654.214844 91.859375 L 654.9375 80.070312 L 654.484375 79.441406 C 650.617188 77.820312 646.566406 76.109375 637.835938 76.109375 C 620.917969 76.109375 615.066406 85.648438 615.066406 95.28125 C 615.066406 106.171875 623.527344 110.128906 628.566406 112.558594 L 631.535156 113.910156 C 637.746094 116.519531 642.515625 118.769531 642.515625 123.539062 C 642.515625 126.960938 639.546875 131.011719 631.714844 131.011719 C 623.527344 131.011719 618.9375 127.410156 616.324219 125.339844 L 615.425781 125.609375 L 614.796875 138.300781 L 615.335938 139.019531 C 616.324219 139.378906 617.316406 139.828125 618.304688 140.101562 C 620.375 140.820312 625.6875 142.351562 632.4375 142.351562 C 635.136719 142.351562 641.976562 142.078125 647.375 139.558594 C 654.9375 135.871094 658.175781 129.03125 658.175781 121.378906 C 658.175781 116.25 656.195312 110.761719 651.425781 107.070312 C 648.996094 105.269531 646.65625 104.191406 644.496094 103.199219 Z M 691.925781 130.648438 C 690.394531 131.101562 689.3125 131.460938 687.785156 131.460938 C 683.195312 131.460938 682.835938 128.578125 682.652344 127.230469 C 682.382812 124.890625 682.382812 119.941406 682.472656 116.339844 L 682.652344 103.648438 L 690.753906 104.011719 L 691.292969 103.46875 L 692.195312 93.839844 L 691.652344 93.300781 L 682.652344 93.300781 L 682.925781 78.179688 L 682.292969 77.640625 C 676.175781 79.441406 674.554688 79.890625 668.164062 81.511719 L 667.804688 82.140625 L 667.894531 93.390625 L 663.035156 93.210938 L 662.496094 93.660156 L 661.683594 103.289062 L 662.222656 103.828125 L 667.894531 103.648438 L 667.625 117.960938 C 667.535156 120.210938 667.445312 122.460938 667.445312 124.800781 C 667.445312 133.078125 667.625 141.988281 681.664062 141.988281 C 685.175781 141.988281 687.964844 141.449219 691.113281 140.910156 L 691.746094 140.28125 L 692.644531 131.011719 Z M 738.636719 114.179688 C 738.726562 106.078125 738.726562 102.570312 736.386719 98.789062 C 734.585938 95.910156 730.988281 92.308594 719.46875 92.308594 C 711.726562 92.308594 706.957031 93.75 701.828125 95.28125 L 701.289062 96 L 700.835938 105.808594 L 701.558594 106.171875 C 704.707031 104.910156 710.558594 102.570312 716.585938 102.570312 C 719.917969 102.570312 721.265625 103.109375 722.4375 104.28125 C 723.335938 105.179688 723.609375 106.800781 723.609375 108.148438 C 712.808594 109.589844 707.765625 110.578125 702.367188 113.910156 C 697.328125 117.058594 695.617188 122.191406 695.617188 126.238281 C 695.617188 135.871094 702.546875 142.078125 711.367188 142.078125 C 718.117188 142.078125 721.988281 138.839844 723.878906 137.308594 L 723.878906 140.640625 L 724.417969 141.269531 C 730.898438 141 732.878906 140.910156 738.726562 141 L 739.175781 140.371094 C 738.546875 131.550781 738.546875 129.300781 738.546875 120.839844 L 738.636719 114.179688 M 723.789062 128.488281 C 721.898438 129.570312 719.46875 130.828125 716.496094 130.828125 C 713.257812 130.828125 710.558594 129.121094 710.558594 125.339844 C 710.558594 119.398438 717.667969 118.410156 723.789062 117.601562 Z M 774.367188 130.648438 C 772.835938 131.101562 771.753906 131.460938 770.226562 131.460938 C 765.636719 131.460938 765.277344 128.578125 765.09375 127.230469 C 764.824219 124.890625 764.824219 119.941406 764.914062 116.339844 L 765.09375 103.648438 L 773.195312 104.011719 L 773.734375 103.46875 L 774.636719 93.839844 L 774.09375 93.300781 L 765.09375 93.300781 L 765.367188 78.179688 L 764.734375 77.640625 C 758.617188 79.441406 756.996094 79.890625 750.605469 81.511719 L 750.246094 82.140625 L 750.335938 93.390625 L 745.476562 93.210938 L 744.9375 93.660156 L 744.125 103.289062 L 744.664062 103.828125 L 750.335938 103.648438 L 750.066406 117.960938 C 749.976562 120.210938 749.886719 122.460938 749.886719 124.800781 C 749.886719 133.078125 750.066406 141.988281 764.105469 141.988281 C 767.617188 141.988281 770.40625 141.449219 773.554688 140.910156 L 774.1875 140.28125 L 775.085938 131.011719 Z M 820.984375 127.679688 C 817.566406 129.480469 813.515625 131.550781 806.945312 131.550781 C 801.546875 131.550781 797.855469 129.839844 795.695312 126.601562 C 794.34375 124.710938 794.074219 122.910156 793.714844 121.109375 L 822.785156 120.570312 L 823.324219 119.941406 C 823.234375 115.53125 823.144531 111.03125 821.886719 106.53125 C 818.734375 95.910156 811.804688 93.75 808.746094 93.03125 C 806.496094 92.398438 804.425781 92.21875 802.355469 92.21875 C 788.226562 92.21875 778.863281 101.488281 778.863281 117.058594 C 778.863281 121.289062 779.585938 125.699219 781.023438 128.851562 C 786.246094 141 798.484375 142.078125 804.964844 142.078125 C 812.433594 142.078125 815.675781 140.730469 820.445312 138.839844 L 820.984375 138.121094 L 821.613281 127.949219 L 820.984375 127.679688 M 793.714844 111.570312 C 793.984375 108.78125 794.613281 105 798.035156 102.839844 C 799.113281 102.121094 800.375 101.851562 801.636719 101.851562 C 804.605469 101.851562 806.40625 103.378906 807.394531 105 C 808.65625 106.980469 808.746094 109.140625 808.746094 111.210938 Z M 826.207031 141 "/>
<path fill-rule="nonzero" fill="rgb(34.901961%, 14.901961%, 14.901961%)" fill-opacity="1" d="M 215.597656 197.191406 C 209.929688 197.460938 208.398438 197.550781 202.820312 197.460938 L 202.371094 198 L 203 210.148438 L 203.359375 222.570312 L 203.71875 237.421875 C 201.109375 233.011719 200.660156 232.289062 196.070312 225.449219 L 187.878906 213.480469 C 181.128906 203.21875 179.78125 201.238281 177.53125 197.640625 L 176.898438 197.191406 C 169.789062 197.550781 168.621094 197.550781 162.050781 197.460938 L 161.597656 198 C 162.050781 211.949219 162.320312 222.300781 162.320312 234.359375 C 162.320312 243.179688 162.140625 252 162.050781 260.730469 L 162.5 261.269531 C 168.53125 261 170.417969 261 175.640625 261 L 176.089844 260.460938 L 175.1875 240.75 L 174.917969 229.679688 L 174.378906 217.621094 C 178.609375 224.640625 180.050781 226.980469 186.167969 235.890625 L 195.167969 249.121094 L 203.179688 260.820312 L 203.808594 261.269531 C 209.300781 261 210.917969 261 215.6875 261 L 216.140625 260.550781 C 216.050781 247.5 215.960938 238.679688 215.960938 227.878906 C 215.960938 217.800781 216.050781 207.808594 216.140625 197.730469 Z M 267.167969 234.179688 C 267.257812 226.078125 267.257812 222.570312 264.917969 218.789062 C 263.117188 215.910156 259.519531 212.308594 248 212.308594 C 240.257812 212.308594 235.488281 213.75 230.359375 215.28125 L 229.820312 216 L 229.367188 225.808594 L 230.089844 226.171875 C 233.238281 224.910156 239.089844 222.570312 245.117188 222.570312 C 248.449219 222.570312 249.796875 223.109375 250.96875 224.28125 C 251.867188 225.179688 252.140625 226.800781 252.140625 228.148438 C 241.339844 229.589844 236.296875 230.578125 230.898438 233.910156 C 225.859375 237.058594 224.148438 242.191406 224.148438 246.238281 C 224.148438 255.871094 231.078125 262.078125 239.898438 262.078125 C 246.648438 262.078125 250.519531 258.839844 252.410156 257.308594 L 252.410156 260.640625 L 252.949219 261.269531 C 259.429688 261 261.410156 260.910156 267.257812 261 L 267.707031 260.371094 C 267.078125 251.550781 267.078125 249.300781 267.078125 240.839844 L 267.167969 234.179688 M 252.320312 248.488281 C 250.429688 249.570312 248 250.828125 245.027344 250.828125 C 241.789062 250.828125 239.089844 249.121094 239.089844 245.339844 C 239.089844 239.398438 246.199219 238.410156 252.320312 237.601562 Z M 302.902344 250.648438 C 301.371094 251.101562 300.289062 251.460938 298.761719 251.460938 C 294.171875 251.460938 293.8125 248.578125 293.628906 247.230469 C 293.359375 244.890625 293.359375 239.941406 293.449219 236.339844 L 293.628906 223.648438 L 301.730469 224.011719 L 302.269531 223.46875 L 303.171875 213.839844 L 302.628906 213.300781 L 293.628906 213.300781 L 293.902344 198.179688 L 293.269531 197.640625 C 287.152344 199.441406 285.53125 199.890625 279.140625 201.511719 L 278.78125 202.140625 L 278.871094 213.390625 L 274.011719 213.210938 L 273.472656 213.660156 L 272.660156 223.289062 L 273.199219 223.828125 L 278.871094 223.648438 L 278.601562 237.960938 C 278.511719 240.210938 278.421875 242.460938 278.421875 244.800781 C 278.421875 253.078125 278.601562 261.988281 292.640625 261.988281 C 296.152344 261.988281 298.941406 261.449219 302.089844 260.910156 L 302.722656 260.28125 L 303.621094 251.011719 Z M 352.761719 212.851562 L 338.089844 213.570312 L 337.460938 214.109375 C 338.089844 224.28125 338.089844 238.679688 338.089844 240.121094 C 338.089844 242.730469 338.089844 244.171875 338 247.769531 C 335.570312 249.390625 333.679688 250.738281 331.25 250.738281 C 324.769531 250.738281 324.769531 243.898438 324.769531 238.589844 C 324.769531 236.339844 324.769531 234 324.859375 231.75 L 325.039062 213.570312 L 324.410156 212.851562 L 309.558594 213.570312 L 308.929688 214.109375 C 309.46875 221.671875 309.558594 224.191406 309.558594 233.28125 L 309.558594 239.578125 C 309.46875 249.390625 309.921875 253.53125 313.160156 257.308594 C 316.128906 260.640625 320.449219 262.078125 324.949219 262.078125 C 331.339844 262.078125 335.03125 259.199219 338.269531 256.679688 L 338.179688 260.730469 L 338.808594 261.269531 C 345.378906 261 347.359375 261 353.210938 261 L 353.75 260.460938 C 353.300781 254.070312 353.121094 250.648438 353.121094 238.949219 C 353.121094 230.488281 353.210938 222.03125 353.390625 213.570312 Z M 389.929688 227.609375 L 392.449219 212.941406 L 391.910156 212.308594 C 391.28125 212.308594 390.648438 212.21875 390.019531 212.21875 C 386.328125 212.21875 382.191406 214.289062 379.308594 220.949219 L 379.578125 212.671875 L 378.859375 211.949219 C 372.199219 213.390625 370.488281 213.660156 363.917969 214.648438 L 363.378906 215.191406 C 363.917969 221.941406 364.191406 225.988281 364.191406 238.5 C 364.191406 245.878906 364.097656 253.261719 363.917969 260.730469 L 364.460938 261.269531 C 371.121094 261 372.558594 260.910156 379.757812 261 L 380.210938 260.371094 C 379.847656 253.078125 379.308594 242.910156 379.308594 236.699219 C 379.308594 232.648438 379.308594 226.710938 385.429688 226.710938 C 386.960938 226.710938 387.859375 227.25 389.121094 227.96875 Z M 437.71875 234.179688 C 437.808594 226.078125 437.808594 222.570312 435.46875 218.789062 C 433.667969 215.910156 430.070312 212.308594 418.550781 212.308594 C 410.808594 212.308594 406.039062 213.75 400.910156 215.28125 L 400.371094 216 L 399.917969 225.808594 L 400.640625 226.171875 C 403.789062 224.910156 409.640625 222.570312 415.667969 222.570312 C 419 222.570312 420.347656 223.109375 421.519531 224.28125 C 422.417969 225.179688 422.691406 226.800781 422.691406 228.148438 C 411.890625 229.589844 406.847656 230.578125 401.449219 233.910156 C 396.410156 237.058594 394.699219 242.191406 394.699219 246.238281 C 394.699219 255.871094 401.628906 262.078125 410.449219 262.078125 C 417.199219 262.078125 421.070312 258.839844 422.960938 257.308594 L 422.960938 260.640625 L 423.5 261.269531 C 429.980469 261 431.960938 260.910156 437.808594 261 L 438.257812 260.371094 C 437.628906 251.550781 437.628906 249.300781 437.628906 240.839844 L 437.71875 234.179688 M 422.871094 248.488281 C 420.980469 249.570312 418.550781 250.828125 415.578125 250.828125 C 412.339844 250.828125 409.640625 249.121094 409.640625 245.339844 C 409.640625 239.398438 416.75 238.410156 422.871094 237.601562 Z M 464.085938 260.371094 C 463.636719 250.019531 463.1875 240.570312 463.1875 212.128906 C 463.1875 203.578125 463.277344 199.53125 463.636719 189.808594 L 463.007812 189.179688 L 447.617188 191.609375 L 447.257812 192.148438 C 448.15625 203.128906 448.246094 206.101562 448.425781 220.679688 C 448.519531 225.988281 448.519531 231.300781 448.519531 236.609375 C 448.519531 246.328125 448.335938 251.730469 447.976562 260.640625 L 448.519531 261.269531 C 454.546875 261 456.976562 260.910156 463.546875 261 Z M 521.148438 236.25 C 527.179688 246.511719 528.53125 249.210938 534.289062 261 L 535.011719 261.449219 C 537.800781 261.269531 540.5 261.089844 543.289062 261 C 546.082031 260.910156 548.960938 260.820312 551.75 260.820312 L 552.289062 259.738281 C 548.871094 255.328125 547.878906 253.980469 541.398438 243.628906 C 538.519531 239.039062 537.082031 236.609375 534.832031 232.648438 C 538.878906 230.851562 547.070312 227.070312 547.070312 215.640625 C 547.070312 211.679688 545.988281 203.488281 538.609375 199.621094 C 533.929688 197.191406 529.070312 197.101562 518.539062 197.28125 L 512.238281 197.371094 L 501.261719 197.371094 L 500.808594 197.910156 C 501.171875 207 501.53125 216.359375 501.53125 240.839844 C 501.53125 249.210938 501.441406 253.261719 501.171875 260.730469 L 501.710938 261.269531 C 508.28125 261 509.71875 260.910156 517.101562 261 L 517.640625 260.460938 C 516.921875 250.019531 516.832031 247.140625 516.738281 236.429688 L 521.148438 236.25 M 516.921875 208.261719 C 518.179688 208.171875 519.441406 208.171875 520.699219 208.171875 C 524.210938 208.171875 531.140625 208.171875 531.140625 216.089844 C 531.140625 218.609375 530.511719 221.941406 527.179688 224.011719 C 524.660156 225.539062 521.421875 225.71875 516.921875 225.808594 Z M 597.019531 247.679688 C 593.601562 249.480469 589.550781 251.550781 582.980469 251.550781 C 577.582031 251.550781 573.890625 249.839844 571.730469 246.601562 C 570.378906 244.710938 570.109375 242.910156 569.75 241.109375 L 598.820312 240.570312 L 599.359375 239.941406 C 599.269531 235.53125 599.179688 231.03125 597.921875 226.53125 C 594.769531 215.910156 587.839844 213.75 584.78125 213.03125 C 582.53125 212.398438 580.460938 212.21875 578.390625 212.21875 C 564.261719 212.21875 554.898438 221.488281 554.898438 237.058594 C 554.898438 241.289062 555.621094 245.699219 557.058594 248.851562 C 562.28125 261 574.519531 262.078125 581 262.078125 C 588.46875 262.078125 591.710938 260.730469 596.480469 258.839844 L 597.019531 258.121094 L 597.648438 247.949219 L 597.019531 247.679688 M 569.75 231.570312 C 570.019531 228.78125 570.648438 225 574.070312 222.839844 C 575.148438 222.121094 576.410156 221.851562 577.671875 221.851562 C 580.640625 221.851562 582.441406 223.378906 583.429688 225 C 584.691406 226.980469 584.78125 229.140625 584.78125 231.210938 Z M 626.539062 229.949219 C 623.476562 228.871094 621.046875 227.878906 621.046875 225.359375 C 621.046875 224.28125 621.769531 221.308594 627.347656 221.308594 C 632.839844 221.308594 636.347656 223.648438 638.597656 225.089844 L 639.410156 224.820312 L 640.308594 215.011719 L 639.859375 214.46875 C 635.628906 213.300781 631.9375 212.21875 626.089844 212.21875 C 621.679688 212.21875 612.859375 212.578125 608.179688 219.328125 C 607.007812 220.949219 605.75 223.648438 605.75 227.25 C 605.75 236.878906 613.21875 239.761719 617.449219 241.378906 L 620.867188 242.640625 C 623.296875 243.449219 627.257812 244.800781 627.257812 248.039062 C 627.257812 250.289062 625.1875 252.71875 620.148438 252.71875 C 617.628906 252.71875 613.9375 251.910156 610.609375 250.199219 C 609.078125 249.390625 608.359375 248.761719 607.007812 247.679688 L 606.199219 248.039062 C 606.019531 252.71875 605.929688 253.710938 605.566406 258.210938 L 606.019531 259.019531 C 610.429688 260.640625 614.207031 262.078125 620.777344 262.078125 C 627.617188 262.078125 641.117188 260.820312 642.738281 247.949219 C 642.828125 247.230469 642.828125 246.601562 642.828125 245.96875 C 642.828125 236.070312 635.898438 233.460938 630.949219 231.570312 Z M 690.707031 247.679688 C 687.289062 249.480469 683.238281 251.550781 676.667969 251.550781 C 671.269531 251.550781 667.578125 249.839844 665.417969 246.601562 C 664.066406 244.710938 663.796875 242.910156 663.4375 241.109375 L 692.507812 240.570312 L 693.046875 239.941406 C 692.957031 235.53125 692.867188 231.03125 691.609375 226.53125 C 688.457031 215.910156 681.527344 213.75 678.46875 213.03125 C 676.21875 212.398438 674.148438 212.21875 672.078125 212.21875 C 657.949219 212.21875 648.585938 221.488281 648.585938 237.058594 C 648.585938 241.289062 649.308594 245.699219 650.746094 248.851562 C 655.96875 261 668.207031 262.078125 674.6875 262.078125 C 682.15625 262.078125 685.398438 260.730469 690.167969 258.839844 L 690.707031 258.121094 L 691.335938 247.949219 L 690.707031 247.679688 M 663.4375 231.570312 C 663.707031 228.78125 664.335938 225 667.757812 222.839844 C 668.835938 222.121094 670.097656 221.851562 671.359375 221.851562 C 674.328125 221.851562 676.128906 223.378906 677.117188 225 C 678.378906 226.980469 678.46875 229.140625 678.46875 231.210938 Z M 727.339844 227.609375 L 729.859375 212.941406 L 729.320312 212.308594 C 728.691406 212.308594 728.058594 212.21875 727.429688 212.21875 C 723.738281 212.21875 719.601562 214.289062 716.71875 220.949219 L 716.988281 212.671875 L 716.269531 211.949219 C 709.609375 213.390625 707.898438 213.660156 701.328125 214.648438 L 700.789062 215.191406 C 701.328125 221.941406 701.601562 225.988281 701.601562 238.5 C 701.601562 245.878906 701.507812 253.261719 701.328125 260.730469 L 701.871094 261.269531 C 708.53125 261 709.96875 260.910156 717.167969 261 L 717.621094 260.371094 C 717.257812 253.078125 716.71875 242.910156 716.71875 236.699219 C 716.71875 232.648438 716.71875 226.710938 722.839844 226.710938 C 724.371094 226.710938 725.269531 227.25 726.53125 227.96875 Z M 759.917969 260.28125 C 762.800781 251.28125 764.507812 245.699219 766.398438 240.03125 C 768.828125 232.738281 772.789062 221.039062 775.308594 213.660156 L 774.859375 213.03125 L 762.257812 213.300781 L 761.628906 213.929688 C 760.371094 219.960938 760.101562 221.21875 758.300781 228.238281 L 753.710938 245.96875 L 751.460938 236.25 L 749.75 229.320312 C 747.5 220.949219 747.140625 219.238281 745.878906 213.300781 L 745.25 212.761719 C 738.140625 213.570312 736.339844 213.660156 729.5 213.75 L 729.140625 214.46875 C 741.109375 249.929688 742.101562 253.261719 744.078125 260.640625 L 744.710938 261.269531 C 750.558594 261 752.898438 260.910156 759.378906 261 Z M 820.039062 247.679688 C 816.621094 249.480469 812.570312 251.550781 806 251.550781 C 800.601562 251.550781 796.910156 249.839844 794.75 246.601562 C 793.398438 244.710938 793.128906 242.910156 792.769531 241.109375 L 821.839844 240.570312 L 822.378906 239.941406 C 822.289062 235.53125 822.199219 231.03125 820.941406 226.53125 C 817.789062 215.910156 810.859375 213.75 807.800781 213.03125 C 805.550781 212.398438 803.480469 212.21875 801.410156 212.21875 C 787.28125 212.21875 777.917969 221.488281 777.917969 237.058594 C 777.917969 241.289062 778.640625 245.699219 780.078125 248.851562 C 785.300781 261 797.539062 262.078125 804.019531 262.078125 C 811.488281 262.078125 814.730469 260.730469 819.5 258.839844 L 820.039062 258.121094 L 820.667969 247.949219 L 820.039062 247.679688 M 792.769531 231.570312 C 793.039062 228.78125 793.667969 225 797.089844 222.839844 C 798.167969 222.121094 799.429688 221.851562 800.691406 221.851562 C 803.660156 221.851562 805.460938 223.378906 806.449219 225 C 807.710938 226.980469 807.800781 229.140625 807.800781 231.210938 Z M 825.257812 261 "/>
</svg>
