<?xml version="1.0" encoding="UTF-8"?>
<svg xmlns="http://www.w3.org/2000/svg" xmlns:xlink="http://www.w3.org/1999/xlink" width="975" height="1300" viewBox="0 0 975 1300">
<path fill-rule="nonzero" fill="rgb(98.823529%, 78.823529%, 9.019608%)" fill-opacity="1" d="M 50 50 L 925 50 L 925 290 L 50 290 Z M 50 50 "/>
<path fill-rule="nonzero" fill="rgb(34.901961%, 14.901961%, 14.901961%)" fill-opacity="1" d="M 116.375 77.28125 L 104.945312 77.460938 L 104.402344 78 C 104.765625 89.699219 105.035156 97.53125 105.035156 107.878906 C 105.035156 118.859375 104.765625 129.75 104.492188 140.730469 L 105.035156 141.269531 C 111.695312 141 113.132812 140.910156 120.335938 141 L 120.785156 140.460938 C 120.425781 130.648438 120.425781 128.398438 120.425781 119.21875 C 130.503906 119.308594 141.304688 119.308594 147.785156 111.390625 C 150.304688 108.328125 152.464844 103.199219 152.464844 96.898438 C 152.464844 93.03125 151.5625 84.480469 144.09375 80.25 C 138.695312 77.101562 131.042969 77.101562 124.292969 77.101562 L 116.375 77.28125 M 120.425781 88.171875 C 122.402344 88.078125 124.292969 88.078125 126.273438 88.078125 C 134.195312 88.261719 136.355469 92.308594 136.355469 97.53125 C 136.355469 98.789062 136.355469 104.011719 131.585938 106.621094 C 129.152344 107.96875 125.824219 108.148438 120.425781 108.148438 Z M 204.484375 117.058594 C 204.484375 113.550781 204.484375 98.96875 191.882812 94.019531 C 187.921875 92.488281 183.242188 92.308594 180.902344 92.308594 C 165.242188 92.308594 156.421875 100.679688 156.421875 117.238281 C 156.421875 123 157.324219 128.851562 160.652344 133.710938 C 162.992188 137.21875 167.402344 142.078125 180.273438 142.078125 C 199.351562 142.078125 204.484375 130.558594 204.484375 117.058594 M 188.914062 116.96875 C 188.914062 124.351562 187.921875 132.539062 180.453125 132.539062 C 178.113281 132.539062 176.492188 131.460938 175.414062 130.46875 C 173.882812 128.941406 172.171875 125.878906 172.171875 117.148438 C 172.171875 114.539062 172.171875 108.78125 173.972656 105.628906 C 175.324219 103.199219 177.664062 101.578125 180.542969 101.578125 C 183.0625 101.578125 185.132812 102.929688 186.304688 104.371094 C 188.464844 106.980469 188.914062 112.109375 188.914062 116.96875 Z M 229.324219 140.371094 C 228.871094 133.441406 228.511719 128.128906 228.511719 115.710938 C 228.511719 108.058594 228.691406 100.320312 228.78125 92.671875 L 228.152344 91.949219 L 212.671875 94.648438 L 212.132812 95.191406 C 212.851562 102.03125 213.121094 105.179688 213.121094 117.960938 C 213.121094 127.769531 212.851562 133.261719 212.582031 140.640625 L 213.121094 141.269531 C 219.601562 141 221.402344 140.910156 228.691406 141 L 229.324219 140.371094 M 227.882812 83.308594 L 228.152344 71.070312 L 227.613281 70.53125 L 212.941406 72.328125 L 212.402344 72.960938 C 212.582031 76.199219 212.671875 78.089844 212.671875 80.25 C 212.671875 81.960938 212.671875 83.761719 212.582031 85.46875 L 213.210938 86.011719 C 219.332031 84.929688 221.042969 84.75 227.433594 83.941406 Z M 283.414062 140.371094 C 282.964844 132.449219 282.964844 129.929688 282.785156 121.109375 L 282.785156 114.089844 C 282.695312 105.449219 282.605469 101.308594 280.355469 97.621094 C 277.5625 92.941406 272.433594 92.21875 269.195312 92.21875 C 263.703125 92.21875 258.933594 95.101562 254.792969 97.53125 L 254.972656 92.578125 L 254.074219 91.949219 C 247.144531 93.390625 245.613281 93.660156 238.863281 94.558594 L 238.324219 95.191406 C 239.042969 103.019531 239.585938 108.691406 239.585938 123.359375 C 239.585938 129.121094 239.492188 134.878906 239.402344 140.640625 L 239.945312 141.179688 C 246.425781 140.910156 247.773438 140.910156 254.972656 140.910156 L 255.515625 140.371094 C 254.972656 126.511719 254.882812 123 254.792969 106.890625 C 256.683594 105.628906 258.84375 104.101562 261.722656 104.101562 C 266.675781 104.101562 267.125 109.410156 267.394531 112.648438 C 267.574219 115.621094 267.664062 127.949219 267.664062 131.371094 C 267.664062 134.429688 267.574219 137.578125 267.574219 140.640625 L 268.113281 141.179688 C 274.054688 141 275.585938 140.910156 282.785156 140.910156 Z M 318.875 130.648438 C 317.34375 131.101562 316.261719 131.460938 314.734375 131.460938 C 310.144531 131.460938 309.785156 128.578125 309.601562 127.230469 C 309.332031 124.890625 309.332031 119.941406 309.421875 116.339844 L 309.601562 103.648438 L 317.703125 104.011719 L 318.242188 103.46875 L 319.144531 93.839844 L 318.601562 93.300781 L 309.601562 93.300781 L 309.875 78.179688 L 309.242188 77.640625 C 303.125 79.441406 301.503906 79.890625 295.113281 81.511719 L 294.753906 82.140625 L 294.84375 93.390625 L 289.984375 93.210938 L 289.445312 93.660156 L 288.632812 103.289062 L 289.171875 103.828125 L 294.84375 103.648438 L 294.574219 117.960938 C 294.484375 120.210938 294.394531 122.460938 294.394531 124.800781 C 294.394531 133.078125 294.574219 141.988281 308.613281 141.988281 C 312.125 141.988281 314.914062 141.449219 318.0625 140.910156 L 318.695312 140.28125 L 319.59375 131.011719 Z M 390.515625 128.671875 C 380.703125 129.210938 372.875 129.390625 370.175781 129.390625 L 368.375 129.390625 C 368.195312 105.359375 368.285156 99.238281 369.003906 77.730469 L 368.464844 77.191406 C 360.722656 77.550781 358.652344 77.550781 352.445312 77.460938 L 351.902344 78 C 352.265625 85.199219 352.355469 87.359375 352.355469 98.070312 C 352.355469 112.289062 352.265625 126.511719 352.265625 140.730469 L 352.714844 141.269531 C 370.355469 141 373.59375 141 389.792969 141 L 390.242188 140.460938 L 390.964844 129.121094 Z M 444.515625 117.058594 C 444.515625 113.550781 444.515625 98.96875 431.914062 94.019531 C 427.953125 92.488281 423.273438 92.308594 420.933594 92.308594 C 405.273438 92.308594 396.453125 100.679688 396.453125 117.238281 C 396.453125 123 397.355469 128.851562 400.683594 133.710938 C 403.023438 137.21875 407.433594 142.078125 420.304688 142.078125 C 439.382812 142.078125 444.515625 130.558594 444.515625 117.058594 M 428.945312 116.96875 C 428.945312 124.351562 427.953125 132.539062 420.484375 132.539062 C 418.144531 132.539062 416.523438 131.460938 415.445312 130.46875 C 413.914062 128.941406 412.203125 125.878906 412.203125 117.148438 C 412.203125 114.539062 412.203125 108.78125 414.003906 105.628906 C 415.355469 103.199219 417.695312 101.578125 420.574219 101.578125 C 423.09375 101.578125 425.164062 102.929688 426.335938 104.371094 C 428.496094 106.980469 428.945312 112.109375 428.945312 116.96875 Z M 459.542969 141.179688 L 461.34375 141.179688 C 475.742188 141.179688 485.015625 140.460938 491.855469 133.171875 C 498.242188 126.328125 498.875 118.230469 498.875 114.449219 C 498.875 101.941406 491.675781 92.21875 479.433594 92.21875 C 473.492188 92.21875 470.34375 94.199219 467.824219 95.820312 L 468.363281 69.71875 L 467.644531 69.179688 L 452.703125 71.519531 L 452.164062 72.148438 C 452.882812 79.710938 453.152344 82.769531 453.152344 100.859375 C 453.152344 108.601562 453.0625 123.898438 452.972656 140.640625 L 453.605469 141.269531 L 459.542969 141.179688 M 468.183594 104.730469 C 469.984375 103.828125 471.695312 102.929688 474.035156 102.929688 C 479.972656 102.929688 483.394531 108.238281 483.394531 116.519531 C 483.394531 123 480.515625 127.230469 478.085938 128.941406 C 475.113281 131.011719 471.242188 131.101562 468.183594 131.191406 Z M 553.234375 117.058594 C 553.234375 113.550781 553.234375 98.96875 540.632812 94.019531 C 536.671875 92.488281 531.992188 92.308594 529.652344 92.308594 C 513.992188 92.308594 505.171875 100.679688 505.171875 117.238281 C 505.171875 123 506.074219 128.851562 509.402344 133.710938 C 511.742188 137.21875 516.152344 142.078125 529.023438 142.078125 C 548.101562 142.078125 553.234375 130.558594 553.234375 117.058594 M 537.664062 116.96875 C 537.664062 124.351562 536.671875 132.539062 529.203125 132.539062 C 526.863281 132.539062 525.242188 131.460938 524.164062 130.46875 C 522.632812 128.941406 520.921875 125.878906 520.921875 117.148438 C 520.921875 114.539062 520.921875 108.78125 522.722656 105.628906 C 524.074219 103.199219 526.414062 101.578125 529.292969 101.578125 C 531.8125 101.578125 533.882812 102.929688 535.054688 104.371094 C 537.214844 106.980469 537.664062 112.109375 537.664062 116.96875 Z M 580.683594 109.949219 C 577.621094 108.871094 575.191406 107.878906 575.191406 105.359375 C 575.191406 104.28125 575.914062 101.308594 581.492188 101.308594 C 586.984375 101.308594 590.492188 103.648438 592.742188 105.089844 L 593.554688 104.820312 L 594.453125 95.011719 L 594.003906 94.46875 C 589.773438 93.300781 586.082031 92.21875 580.234375 92.21875 C 575.824219 92.21875 567.003906 92.578125 562.324219 99.328125 C 561.152344 100.949219 559.894531 103.648438 559.894531 107.25 C 559.894531 116.878906 567.363281 119.761719 571.59375 121.378906 L 575.011719 122.640625 C 577.441406 123.449219 581.402344 124.800781 581.402344 128.039062 C 581.402344 130.289062 579.332031 132.71875 574.292969 132.71875 C 571.773438 132.71875 568.082031 131.910156 564.753906 130.199219 C 563.222656 129.390625 562.503906 128.761719 561.152344 127.679688 L 560.34375 128.039062 C 560.164062 132.71875 560.074219 133.710938 559.710938 138.210938 L 560.164062 139.019531 C 564.574219 140.640625 568.351562 142.078125 574.921875 142.078125 C 581.761719 142.078125 595.261719 140.820312 596.882812 127.949219 C 596.972656 127.230469 596.972656 126.601562 596.972656 125.96875 C 596.972656 116.070312 590.042969 113.460938 585.09375 111.570312 Z M 651.511719 116.25 C 657.542969 126.511719 658.894531 129.210938 664.652344 141 L 665.375 141.449219 C 668.164062 141.269531 670.863281 141.089844 673.652344 141 C 676.445312 140.910156 679.324219 140.820312 682.113281 140.820312 L 682.652344 139.738281 C 679.234375 135.328125 678.242188 133.980469 671.761719 123.628906 C 668.882812 119.039062 667.445312 116.609375 665.195312 112.648438 C 669.242188 110.851562 677.433594 107.070312 677.433594 95.640625 C 677.433594 91.679688 676.351562 83.488281 668.972656 79.621094 C 664.292969 77.191406 659.433594 77.101562 648.902344 77.28125 L 642.601562 77.371094 L 631.625 77.371094 L 631.171875 77.910156 C 631.535156 87 631.894531 96.359375 631.894531 120.839844 C 631.894531 129.210938 631.804688 133.261719 631.535156 140.730469 L 632.074219 141.269531 C 638.644531 141 640.082031 140.910156 647.464844 141 L 648.003906 140.460938 C 647.285156 130.019531 647.195312 127.140625 647.101562 116.429688 L 651.511719 116.25 M 647.285156 88.261719 C 648.542969 88.171875 649.804688 88.171875 651.0625 88.171875 C 654.574219 88.171875 661.503906 88.171875 661.503906 96.089844 C 661.503906 98.609375 660.875 101.941406 657.542969 104.011719 C 655.023438 105.539062 651.785156 105.71875 647.285156 105.808594 Z M 727.472656 114.179688 C 727.5625 106.078125 727.5625 102.570312 725.222656 98.789062 C 723.421875 95.910156 719.824219 92.308594 708.304688 92.308594 C 700.5625 92.308594 695.792969 93.75 690.664062 95.28125 L 690.125 96 L 689.671875 105.808594 L 690.394531 106.171875 C 693.542969 104.910156 699.394531 102.570312 705.421875 102.570312 C 708.753906 102.570312 710.101562 103.109375 711.273438 104.28125 C 712.171875 105.179688 712.445312 106.800781 712.445312 108.148438 C 701.644531 109.589844 696.601562 110.578125 691.203125 113.910156 C 686.164062 117.058594 684.453125 122.191406 684.453125 126.238281 C 684.453125 135.871094 691.382812 142.078125 700.203125 142.078125 C 706.953125 142.078125 710.824219 138.839844 712.714844 137.308594 L 712.714844 140.640625 L 713.253906 141.269531 C 719.734375 141 721.714844 140.910156 727.5625 141 L 728.011719 140.371094 C 727.382812 131.550781 727.382812 129.300781 727.382812 120.839844 L 727.472656 114.179688 M 712.625 128.488281 C 710.734375 129.570312 708.304688 130.828125 705.332031 130.828125 C 702.09375 130.828125 699.394531 129.121094 699.394531 125.339844 C 699.394531 119.398438 706.503906 118.410156 712.625 117.601562 Z M 782.105469 140.371094 C 781.65625 132.449219 781.65625 129.929688 781.476562 121.109375 L 781.476562 114.089844 C 781.386719 105.449219 781.296875 101.308594 779.046875 97.621094 C 776.253906 92.941406 771.125 92.21875 767.886719 92.21875 C 762.394531 92.21875 757.625 95.101562 753.484375 97.53125 L 753.664062 92.578125 L 752.765625 91.949219 C 745.835938 93.390625 744.304688 93.660156 737.554688 94.558594 L 737.015625 95.191406 C 737.734375 103.019531 738.277344 108.691406 738.277344 123.359375 C 738.277344 129.121094 738.183594 134.878906 738.09375 140.640625 L 738.636719 141.179688 C 745.117188 140.910156 746.464844 140.910156 753.664062 140.910156 L 754.207031 140.371094 C 753.664062 126.511719 753.574219 123 753.484375 106.890625 C 755.375 105.628906 757.535156 104.101562 760.414062 104.101562 C 765.367188 104.101562 765.816406 109.410156 766.085938 112.648438 C 766.265625 115.621094 766.355469 127.949219 766.355469 131.371094 C 766.355469 134.429688 766.265625 137.578125 766.265625 140.640625 L 766.804688 141.179688 C 772.746094 141 774.277344 140.910156 781.476562 140.910156 Z M 827.554688 128.039062 C 825.125 129.480469 822.785156 130.921875 818.195312 130.921875 C 808.023438 130.921875 805.953125 122.460938 805.953125 117.058594 C 805.953125 110.488281 808.835938 102.929688 817.566406 102.929688 C 821.523438 102.929688 823.683594 104.371094 826.386719 106.171875 L 827.285156 105.898438 C 827.644531 101.128906 827.734375 99.871094 828.453125 95.101562 L 828.003906 94.558594 C 824.042969 93.300781 820.625 92.21875 815.40625 92.21875 C 794.253906 92.21875 790.113281 108.238281 790.113281 117.421875 C 790.113281 127.769531 795.515625 141.808594 815.765625 141.808594 C 820.535156 141.808594 823.59375 140.910156 827.375 139.828125 L 827.914062 139.289062 L 828.273438 128.488281 Z M 879.574219 140.371094 C 879.214844 132.988281 879.125 130.46875 878.945312 121.109375 L 878.945312 114.359375 C 878.855469 105.808594 878.765625 100.859375 876.152344 97.078125 C 873.542969 93.390625 869.765625 92.21875 865.804688 92.21875 C 859.234375 92.21875 854.105469 95.371094 850.503906 97.53125 L 850.773438 69.808594 L 850.234375 69.179688 L 834.84375 71.609375 L 834.394531 72.148438 C 835.203125 80.878906 835.382812 84.121094 835.5625 95.730469 C 835.746094 103.019531 835.835938 110.308594 835.835938 117.601562 C 835.835938 126.511719 835.652344 131.820312 835.472656 140.640625 L 835.925781 141.269531 C 842.585938 140.910156 843.933594 140.910156 851.222656 140.910156 L 851.765625 140.371094 C 851.132812 126.871094 851.042969 122.820312 850.953125 106.890625 C 852.664062 105.71875 854.824219 104.191406 857.882812 104.191406 C 862.835938 104.191406 863.195312 109.320312 863.554688 112.921875 C 863.734375 115.710938 863.824219 128.488281 863.824219 131.820312 C 863.824219 134.789062 863.734375 137.671875 863.734375 140.640625 L 864.183594 141.269531 C 870.664062 140.910156 872.105469 140.910156 879.035156 140.910156 Z M 884.433594 141 "/>
<path fill-rule="nonzero" fill="rgb(34.901961%, 14.901961%, 14.901961%)" fill-opacity="1" d="M 219.425781 197.28125 L 207.996094 197.460938 L 207.453125 198 C 207.816406 209.699219 208.085938 217.53125 208.085938 227.878906 C 208.085938 238.859375 207.816406 249.75 207.542969 260.730469 L 208.085938 261.269531 C 214.746094 261 216.183594 260.910156 223.386719 261 L 223.835938 260.460938 C 223.476562 250.648438 223.476562 248.398438 223.476562 239.21875 C 233.554688 239.308594 244.355469 239.308594 250.835938 231.390625 C 253.355469 228.328125 255.515625 223.199219 255.515625 216.898438 C 255.515625 213.03125 254.613281 204.480469 247.144531 200.25 C 241.746094 197.101562 234.09375 197.101562 227.34375 197.101562 L 219.425781 197.28125 M 223.476562 208.171875 C 225.453125 208.078125 227.34375 208.078125 229.324219 208.078125 C 237.246094 208.261719 239.40625 212.308594 239.40625 217.53125 C 239.40625 218.789062 239.40625 224.011719 234.636719 226.621094 C 232.203125 227.96875 228.875 228.148438 223.476562 228.148438 Z M 301.773438 234.179688 C 301.863281 226.078125 301.863281 222.570312 299.523438 218.789062 C 297.722656 215.910156 294.125 212.308594 282.605469 212.308594 C 274.863281 212.308594 270.09375 213.75 264.964844 215.28125 L 264.425781 216 L 263.972656 225.808594 L 264.695312 226.171875 C 267.84375 224.910156 273.695312 222.570312 279.722656 222.570312 C 283.054688 222.570312 284.402344 223.109375 285.574219 224.28125 C 286.472656 225.179688 286.746094 226.800781 286.746094 228.148438 C 275.945312 229.589844 270.902344 230.578125 265.503906 233.910156 C 260.464844 237.058594 258.753906 242.191406 258.753906 246.238281 C 258.753906 255.871094 265.683594 262.078125 274.503906 262.078125 C 281.253906 262.078125 285.125 258.839844 287.015625 257.308594 L 287.015625 260.640625 L 287.554688 261.269531 C 294.035156 261 296.015625 260.910156 301.863281 261 L 302.3125 260.371094 C 301.683594 251.550781 301.683594 249.300781 301.683594 240.839844 L 301.773438 234.179688 M 286.925781 248.488281 C 285.035156 249.570312 282.605469 250.828125 279.632812 250.828125 C 276.394531 250.828125 273.695312 249.121094 273.695312 245.339844 C 273.695312 239.398438 280.804688 238.410156 286.925781 237.601562 Z M 338.316406 227.609375 L 340.835938 212.941406 L 340.296875 212.308594 C 339.667969 212.308594 339.035156 212.21875 338.40625 212.21875 C 334.714844 212.21875 330.578125 214.289062 327.695312 220.949219 L 327.964844 212.671875 L 327.246094 211.949219 C 320.585938 213.390625 318.875 213.660156 312.304688 214.648438 L 311.765625 215.191406 C 312.304688 221.941406 312.578125 225.988281 312.578125 238.5 C 312.578125 245.878906 312.484375 253.261719 312.304688 260.730469 L 312.847656 261.269531 C 319.507812 261 320.945312 260.910156 328.144531 261 L 328.597656 260.371094 C 328.234375 253.078125 327.695312 242.910156 327.695312 236.699219 C 327.695312 232.648438 327.695312 226.710938 333.816406 226.710938 C 335.347656 226.710938 336.246094 227.25 337.507812 227.96875 Z M 392.316406 259.828125 C 383.855469 245.519531 382.957031 243.898438 376.117188 231.570312 C 382.328125 223.109375 382.957031 222.210938 389.347656 214.019531 L 388.894531 213.121094 L 374.226562 213.300781 L 373.328125 213.929688 C 366.304688 226.078125 365.40625 227.519531 361.265625 233.730469 L 361.265625 223.738281 C 361.355469 206.910156 361.445312 203.308594 361.894531 189.71875 L 361.175781 189.179688 L 345.515625 191.519531 L 344.976562 192.148438 C 345.605469 200.878906 345.875 205.109375 346.054688 216.898438 C 346.234375 231.480469 346.234375 246.058594 346.144531 260.640625 L 346.777344 261.269531 C 352.804688 261 354.515625 261 361.355469 261 L 361.894531 260.371094 L 361.355469 245.160156 L 361.265625 234.808594 C 369.097656 249.210938 370.085938 251.191406 374.675781 260.730469 L 375.484375 261.269531 L 391.6875 260.640625 Z M 434.976562 197.28125 L 423.546875 197.460938 L 423.003906 198 C 423.367188 209.699219 423.636719 217.53125 423.636719 227.878906 C 423.636719 238.859375 423.367188 249.75 423.09375 260.730469 L 423.636719 261.269531 C 430.296875 261 431.734375 260.910156 438.9375 261 L 439.386719 260.460938 C 439.027344 250.648438 439.027344 248.398438 439.027344 239.21875 C 449.105469 239.308594 459.90625 239.308594 466.386719 231.390625 C 468.90625 228.328125 471.066406 223.199219 471.066406 216.898438 C 471.066406 213.03125 470.164062 204.480469 462.695312 200.25 C 457.296875 197.101562 449.644531 197.101562 442.894531 197.101562 L 434.976562 197.28125 M 439.027344 208.171875 C 441.003906 208.078125 442.894531 208.078125 444.875 208.078125 C 452.796875 208.261719 454.957031 212.308594 454.957031 217.53125 C 454.957031 218.789062 454.957031 224.011719 450.1875 226.621094 C 447.753906 227.96875 444.425781 228.148438 439.027344 228.148438 Z M 503.285156 227.609375 L 505.804688 212.941406 L 505.265625 212.308594 C 504.636719 212.308594 504.003906 212.21875 503.375 212.21875 C 499.683594 212.21875 495.546875 214.289062 492.664062 220.949219 L 492.933594 212.671875 L 492.214844 211.949219 C 485.554688 213.390625 483.84375 213.660156 477.273438 214.648438 L 476.734375 215.191406 C 477.273438 221.941406 477.546875 225.988281 477.546875 238.5 C 477.546875 245.878906 477.453125 253.261719 477.273438 260.730469 L 477.816406 261.269531 C 484.476562 261 485.914062 260.910156 493.113281 261 L 493.566406 260.371094 C 493.203125 253.078125 492.664062 242.910156 492.664062 236.699219 C 492.664062 232.648438 492.664062 226.710938 498.785156 226.710938 C 500.316406 226.710938 501.214844 227.25 502.476562 227.96875 Z M 556.835938 237.058594 C 556.835938 233.550781 556.835938 218.96875 544.234375 214.019531 C 540.273438 212.488281 535.59375 212.308594 533.253906 212.308594 C 517.59375 212.308594 508.773438 220.679688 508.773438 237.238281 C 508.773438 243 509.675781 248.851562 513.003906 253.710938 C 515.34375 257.21875 519.753906 262.078125 532.625 262.078125 C 551.703125 262.078125 556.835938 250.558594 556.835938 237.058594 M 541.265625 236.96875 C 541.265625 244.351562 540.273438 252.539062 532.804688 252.539062 C 530.464844 252.539062 528.84375 251.460938 527.765625 250.46875 C 526.234375 248.941406 524.523438 245.878906 524.523438 237.148438 C 524.523438 234.539062 524.523438 228.78125 526.324219 225.628906 C 527.675781 223.199219 530.015625 221.578125 532.894531 221.578125 C 535.414062 221.578125 537.484375 222.929688 538.65625 224.371094 C 540.816406 226.980469 541.265625 232.109375 541.265625 236.96875 Z M 580.324219 212.851562 L 579.605469 212.039062 C 573.035156 213.480469 571.144531 213.839844 564.664062 214.648438 L 564.125 215.28125 C 565.113281 225.988281 565.472656 230.128906 565.472656 256.050781 C 565.472656 266.761719 565.292969 272.878906 565.023438 283.050781 L 565.5625 283.5 C 571.953125 283.230469 573.84375 283.140625 580.683594 283.230469 L 581.222656 282.78125 L 580.59375 261.359375 C 587.164062 261.269531 596.253906 261.179688 603.542969 254.339844 C 609.304688 248.941406 611.195312 241.289062 611.195312 235.171875 C 611.195312 220.859375 602.464844 212.21875 592.382812 212.21875 C 586.175781 212.21875 582.664062 214.738281 580.144531 216.449219 L 580.324219 212.851562 M 580.503906 225.089844 C 582.484375 223.921875 583.65625 223.289062 585.90625 223.289062 C 587.253906 223.289062 589.953125 223.46875 592.203125 225.988281 C 594.996094 229.050781 595.445312 233.640625 595.445312 236.699219 C 595.445312 241.921875 593.734375 246.601562 590.132812 249.121094 C 587.253906 251.101562 583.65625 251.28125 580.503906 251.371094 Z M 659.703125 247.679688 C 656.285156 249.480469 652.234375 251.550781 645.664062 251.550781 C 640.265625 251.550781 636.574219 249.839844 634.414062 246.601562 C 633.0625 244.710938 632.792969 242.910156 632.433594 241.109375 L 661.503906 240.570312 L 662.042969 239.941406 C 661.953125 235.53125 661.863281 231.03125 660.605469 226.53125 C 657.453125 215.910156 650.523438 213.75 647.464844 213.03125 C 645.214844 212.398438 643.144531 212.21875 641.074219 212.21875 C 626.945312 212.21875 617.582031 221.488281 617.582031 237.058594 C 617.582031 241.289062 618.304688 245.699219 619.742188 248.851562 C 624.964844 261 637.203125 262.078125 643.683594 262.078125 C 651.152344 262.078125 654.394531 260.730469 659.164062 258.839844 L 659.703125 258.121094 L 660.332031 247.949219 L 659.703125 247.679688 M 632.433594 231.570312 C 632.703125 228.78125 633.332031 225 636.753906 222.839844 C 637.832031 222.121094 639.09375 221.851562 640.355469 221.851562 C 643.324219 221.851562 645.125 223.378906 646.113281 225 C 647.375 226.980469 647.464844 229.140625 647.464844 231.210938 Z M 696.335938 227.609375 L 698.855469 212.941406 L 698.316406 212.308594 C 697.6875 212.308594 697.054688 212.21875 696.425781 212.21875 C 692.734375 212.21875 688.597656 214.289062 685.714844 220.949219 L 685.984375 212.671875 L 685.265625 211.949219 C 678.605469 213.390625 676.894531 213.660156 670.324219 214.648438 L 669.785156 215.191406 C 670.324219 221.941406 670.597656 225.988281 670.597656 238.5 C 670.597656 245.878906 670.503906 253.261719 670.324219 260.730469 L 670.867188 261.269531 C 677.527344 261 678.964844 260.910156 686.164062 261 L 686.617188 260.371094 C 686.253906 253.078125 685.714844 242.910156 685.714844 236.699219 C 685.714844 232.648438 685.714844 226.710938 691.835938 226.710938 C 693.367188 226.710938 694.265625 227.25 695.527344 227.96875 Z M 729.277344 250.648438 C 727.746094 251.101562 726.664062 251.460938 725.136719 251.460938 C 720.546875 251.460938 720.1875 248.578125 720.003906 247.230469 C 719.734375 244.890625 719.734375 239.941406 719.824219 236.339844 L 720.003906 223.648438 L 728.105469 224.011719 L 728.644531 223.46875 L 729.546875 213.839844 L 729.003906 213.300781 L 720.003906 213.300781 L 720.277344 198.179688 L 719.644531 197.640625 C 713.527344 199.441406 711.90625 199.890625 705.515625 201.511719 L 705.15625 202.140625 L 705.246094 213.390625 L 700.386719 213.210938 L 699.847656 213.660156 L 699.035156 223.289062 L 699.574219 223.828125 L 705.246094 223.648438 L 704.976562 237.960938 C 704.886719 240.210938 704.796875 242.460938 704.796875 244.800781 C 704.796875 253.078125 704.976562 261.988281 719.015625 261.988281 C 722.527344 261.988281 725.316406 261.449219 728.464844 260.910156 L 729.097656 260.28125 L 729.996094 251.011719 Z M 776.164062 213.03125 L 763.65625 213.300781 L 762.933594 213.929688 C 761.40625 220.140625 761.046875 221.488281 758.886719 228.511719 L 756.546875 236.25 L 754.566406 243 L 752.855469 236.609375 L 750.246094 227.070312 L 746.644531 213.390625 L 745.925781 212.851562 C 738.90625 213.390625 737.375 213.480469 729.996094 213.660156 L 729.546875 214.289062 C 732.785156 222.839844 741.15625 245.429688 746.734375 262.710938 C 743.046875 272.070312 742.324219 273.691406 738.273438 282.601562 L 738.726562 283.320312 C 740.976562 283.230469 743.496094 283.140625 745.835938 283.140625 C 748.085938 283.140625 750.425781 283.230469 752.675781 283.230469 L 753.304688 282.691406 C 758.253906 263.25 760.683594 255.691406 772.566406 224.371094 C 773.914062 220.769531 775.265625 217.261719 776.523438 213.75 Z M 775.535156 261 "/>
</svg>
