<?xml version="1.0" encoding="UTF-8"?>
<svg xmlns="http://www.w3.org/2000/svg" xmlns:xlink="http://www.w3.org/1999/xlink" width="975" height="1300" viewBox="0 0 975 1300">
<path fill-rule="nonzero" fill="rgb(98.823529%, 78.823529%, 9.019608%)" fill-opacity="1" d="M 50 50 L 925 50 L 925 290 L 50 290 Z M 50 50 "/>
<path fill-rule="nonzero" fill="rgb(34.901961%, 14.901961%, 14.901961%)" fill-opacity="1" d="M 69.484375 77.28125 L 58.054688 77.460938 L 57.511719 78 C 57.875 89.699219 58.144531 97.53125 58.144531 107.878906 C 58.144531 118.859375 57.875 129.75 57.601562 140.730469 L 58.144531 141.269531 C 64.804688 141 66.242188 140.910156 73.445312 141 L 73.894531 140.460938 C 73.535156 130.648438 73.535156 128.398438 73.535156 119.21875 C 83.613281 119.308594 94.414062 119.308594 100.894531 111.390625 C 103.414062 108.328125 105.574219 103.199219 105.574219 96.898438 C 105.574219 93.03125 104.671875 84.480469 97.203125 80.25 C 91.804688 77.101562 84.152344 77.101562 77.402344 77.101562 L 69.484375 77.28125 M 73.535156 88.171875 C 75.511719 88.078125 77.402344 88.078125 79.382812 88.078125 C 87.304688 88.261719 89.464844 92.308594 89.464844 97.53125 C 89.464844 98.789062 89.464844 104.011719 84.695312 106.621094 C 82.261719 107.96875 78.933594 108.148438 73.535156 108.148438 Z M 129.78125 140.371094 C 128.882812 123.988281 128.792969 119.578125 128.882812 103.648438 L 135.992188 104.011719 L 136.621094 103.378906 L 137.433594 93.839844 L 136.984375 93.300781 L 128.792969 93.300781 L 128.882812 91.230469 C 128.882812 85.738281 128.972656 80.699219 134.824219 80.699219 C 135.722656 80.699219 136.621094 80.878906 137.523438 80.96875 L 138.152344 80.609375 L 138.960938 70.441406 L 138.511719 69.808594 C 136.351562 69.628906 134.28125 69.539062 132.210938 69.539062 C 127.621094 69.539062 122.941406 70.078125 119.34375 72.78125 C 113.761719 76.921875 113.851562 83.398438 113.851562 87.898438 L 113.941406 93.300781 L 108.09375 93.210938 L 107.554688 93.660156 L 106.652344 103.199219 L 107.191406 103.738281 L 114.03125 103.558594 C 114.03125 120.570312 114.03125 124.621094 113.492188 140.640625 L 114.03125 141.269531 C 120.152344 141 122.492188 140.910156 129.242188 140.910156 Z M 183.601562 127.679688 C 180.183594 129.480469 176.132812 131.550781 169.5625 131.550781 C 164.164062 131.550781 160.472656 129.839844 158.3125 126.601562 C 156.960938 124.710938 156.691406 122.910156 156.332031 121.109375 L 185.402344 120.570312 L 185.941406 119.941406 C 185.851562 115.53125 185.761719 111.03125 184.503906 106.53125 C 181.351562 95.910156 174.421875 93.75 171.363281 93.03125 C 169.113281 92.398438 167.042969 92.21875 164.972656 92.21875 C 150.84375 92.21875 141.480469 101.488281 141.480469 117.058594 C 141.480469 121.289062 142.203125 125.699219 143.640625 128.851562 C 148.863281 141 161.101562 142.078125 167.582031 142.078125 C 175.050781 142.078125 178.292969 140.730469 183.0625 138.839844 L 183.601562 138.121094 L 184.230469 127.949219 L 183.601562 127.679688 M 156.332031 111.570312 C 156.601562 108.78125 157.230469 105 160.652344 102.839844 C 161.730469 102.121094 162.992188 101.851562 164.253906 101.851562 C 167.222656 101.851562 169.023438 103.378906 170.011719 105 C 171.273438 106.980469 171.363281 109.140625 171.363281 111.210938 Z M 210.515625 140.371094 C 210.0625 133.441406 209.703125 128.128906 209.703125 115.710938 C 209.703125 108.058594 209.882812 100.320312 209.972656 92.671875 L 209.34375 91.949219 L 193.863281 94.648438 L 193.324219 95.191406 C 194.042969 102.03125 194.3125 105.179688 194.3125 117.960938 C 194.3125 127.769531 194.042969 133.261719 193.773438 140.640625 L 194.3125 141.269531 C 200.792969 141 202.59375 140.910156 209.882812 141 L 210.515625 140.371094 M 209.074219 83.308594 L 209.34375 71.070312 L 208.804688 70.53125 L 194.132812 72.328125 L 193.59375 72.960938 C 193.773438 76.199219 193.863281 78.089844 193.863281 80.25 C 193.863281 81.960938 193.863281 83.761719 193.773438 85.46875 L 194.402344 86.011719 C 200.523438 84.929688 202.234375 84.75 208.625 83.941406 Z M 238.5 140.371094 C 237.601562 123.988281 237.511719 119.578125 237.601562 103.648438 L 244.710938 104.011719 L 245.339844 103.378906 L 246.152344 93.839844 L 245.703125 93.300781 L 237.511719 93.300781 L 237.601562 91.230469 C 237.601562 85.738281 237.691406 80.699219 243.542969 80.699219 C 244.441406 80.699219 245.339844 80.878906 246.242188 80.96875 L 246.871094 80.609375 L 247.679688 70.441406 L 247.230469 69.808594 C 245.070312 69.628906 243 69.539062 240.929688 69.539062 C 236.339844 69.539062 231.660156 70.078125 228.0625 72.78125 C 222.480469 76.921875 222.570312 83.398438 222.570312 87.898438 L 222.660156 93.300781 L 216.8125 93.210938 L 216.273438 93.660156 L 215.371094 103.199219 L 215.910156 103.738281 L 222.75 103.558594 C 222.75 120.570312 222.75 124.621094 222.210938 140.640625 L 222.75 141.269531 C 228.871094 141 231.210938 140.910156 237.960938 140.910156 Z M 270.363281 140.371094 C 269.464844 123.988281 269.375 119.578125 269.464844 103.648438 L 276.574219 104.011719 L 277.203125 103.378906 L 278.015625 93.839844 L 277.566406 93.300781 L 269.375 93.300781 L 269.464844 91.230469 C 269.464844 85.738281 269.554688 80.699219 275.40625 80.699219 C 276.304688 80.699219 277.203125 80.878906 278.105469 80.96875 L 278.734375 80.609375 L 279.542969 70.441406 L 279.09375 69.808594 C 276.933594 69.628906 274.863281 69.539062 272.792969 69.539062 C 268.203125 69.539062 263.523438 70.078125 259.925781 72.78125 C 254.34375 76.921875 254.433594 83.398438 254.433594 87.898438 L 254.523438 93.300781 L 248.675781 93.210938 L 248.136719 93.660156 L 247.234375 103.199219 L 247.773438 103.738281 L 254.613281 103.558594 C 254.613281 120.570312 254.613281 124.621094 254.074219 140.640625 L 254.613281 141.269531 C 260.734375 141 263.074219 140.910156 269.824219 140.910156 Z M 324.183594 127.679688 C 320.765625 129.480469 316.714844 131.550781 310.144531 131.550781 C 304.746094 131.550781 301.054688 129.839844 298.894531 126.601562 C 297.542969 124.710938 297.273438 122.910156 296.914062 121.109375 L 325.984375 120.570312 L 326.523438 119.941406 C 326.433594 115.53125 326.34375 111.03125 325.085938 106.53125 C 321.933594 95.910156 315.003906 93.75 311.945312 93.03125 C 309.695312 92.398438 307.625 92.21875 305.554688 92.21875 C 291.425781 92.21875 282.0625 101.488281 282.0625 117.058594 C 282.0625 121.289062 282.785156 125.699219 284.222656 128.851562 C 289.445312 141 301.683594 142.078125 308.164062 142.078125 C 315.632812 142.078125 318.875 140.730469 323.644531 138.839844 L 324.183594 138.121094 L 324.8125 127.949219 L 324.183594 127.679688 M 296.914062 111.570312 C 297.183594 108.78125 297.8125 105 301.234375 102.839844 C 302.3125 102.121094 303.574219 101.851562 304.835938 101.851562 C 307.804688 101.851562 309.605469 103.378906 310.59375 105 C 311.855469 106.980469 311.945312 109.140625 311.945312 111.210938 Z M 360.8125 107.609375 L 363.332031 92.941406 L 362.792969 92.308594 C 362.164062 92.308594 361.53125 92.21875 360.902344 92.21875 C 357.210938 92.21875 353.074219 94.289062 350.191406 100.949219 L 350.460938 92.671875 L 349.742188 91.949219 C 343.082031 93.390625 341.371094 93.660156 334.800781 94.648438 L 334.261719 95.191406 C 334.800781 101.941406 335.074219 105.988281 335.074219 118.5 C 335.074219 125.878906 334.980469 133.261719 334.800781 140.730469 L 335.34375 141.269531 C 342.003906 141 343.441406 140.910156 350.640625 141 L 351.09375 140.371094 C 350.730469 133.078125 350.191406 122.910156 350.191406 116.699219 C 350.191406 112.648438 350.191406 106.710938 356.3125 106.710938 C 357.84375 106.710938 358.742188 107.25 360.003906 107.96875 Z M 411.574219 141 C 419.945312 141.179688 430.292969 141.359375 437.042969 136.679688 C 442.984375 132.449219 444.605469 126.511719 444.605469 121.46875 C 444.605469 115.710938 442.171875 110.398438 437.042969 107.878906 C 435.332031 106.980469 433.355469 106.621094 431.464844 106.261719 C 434.523438 105 438.125 103.378906 440.464844 98.609375 C 441.453125 96.539062 441.902344 94.378906 441.902344 92.308594 C 441.902344 89.429688 441.183594 85.46875 438.304688 82.230469 C 434.523438 78.179688 428.671875 77.101562 419.855469 77.101562 C 416.792969 77.101562 411.304688 77.191406 408.242188 77.28125 L 395.644531 77.460938 L 395.105469 78 C 395.464844 86.640625 395.554688 89.96875 395.554688 102.390625 C 395.554688 115.171875 395.464844 127.859375 395.285156 140.640625 L 395.914062 141 L 411.574219 141 M 410.945312 113.640625 C 417.785156 113.460938 421.742188 113.460938 424.355469 114.988281 C 426.964844 116.609375 427.953125 119.488281 427.953125 122.371094 C 427.953125 126.421875 425.703125 128.941406 422.375 130.109375 C 419.671875 131.011719 414.8125 131.011719 410.945312 130.921875 L 410.945312 113.640625 M 410.945312 87.179688 C 412.832031 87.179688 415.355469 87.089844 416.882812 87.089844 C 421.742188 87.089844 426.152344 88.800781 426.152344 94.648438 C 426.152344 99.421875 422.644531 101.398438 421.5625 101.941406 C 419.3125 102.929688 414.542969 102.929688 410.945312 102.929688 Z M 469.265625 140.371094 C 468.8125 133.441406 468.453125 128.128906 468.453125 115.710938 C 468.453125 108.058594 468.632812 100.320312 468.722656 92.671875 L 468.09375 91.949219 L 452.613281 94.648438 L 452.074219 95.191406 C 452.792969 102.03125 453.0625 105.179688 453.0625 117.960938 C 453.0625 127.769531 452.792969 133.261719 452.523438 140.640625 L 453.0625 141.269531 C 459.542969 141 461.34375 140.910156 468.632812 141 L 469.265625 140.371094 M 467.824219 83.308594 L 468.09375 71.070312 L 467.554688 70.53125 L 452.882812 72.328125 L 452.34375 72.960938 C 452.523438 76.199219 452.613281 78.089844 452.613281 80.25 C 452.613281 81.960938 452.613281 83.761719 452.523438 85.46875 L 453.152344 86.011719 C 459.273438 84.929688 460.984375 84.75 467.375 83.941406 Z M 495.8125 125.789062 C 498.691406 125.878906 501.570312 126.058594 505.890625 124.621094 C 510.570312 123 517.410156 119.128906 517.410156 110.398438 C 517.410156 106.078125 516.152344 104.28125 514.980469 102.570312 L 521.191406 102.929688 L 521.730469 102.480469 L 522.363281 93.480469 L 521.820312 93.03125 C 514.890625 93.300781 513 93.390625 507.332031 93.300781 L 503.191406 93.210938 C 496.800781 93.03125 488.25 92.851562 482.402344 97.710938 C 480.421875 99.238281 476.640625 103.109375 476.640625 109.859375 C 476.640625 113.460938 477.632812 116.339844 479.25 118.589844 C 481.230469 121.378906 483.03125 122.371094 485.28125 123.628906 C 482.761719 128.488281 481.410156 130.921875 479.339844 134.609375 L 479.339844 135.421875 L 483.121094 138.121094 C 480.421875 140.191406 476.191406 143.609375 476.191406 149.460938 C 476.191406 153.601562 478.441406 157.199219 481.773438 159.628906 C 486.8125 163.230469 493.652344 163.410156 497.160156 163.410156 C 513.632812 163.410156 521.191406 155.128906 521.191406 146.398438 C 521.191406 135.058594 511.292969 132.898438 505.441406 131.550781 L 503.28125 131.191406 C 498.871094 130.46875 497.882812 130.199219 494.371094 128.941406 L 495.8125 125.789062 M 503.191406 109.589844 C 503.101562 116.878906 498.691406 117.511719 497.429688 117.511719 C 496.710938 117.511719 493.5625 117.328125 492.03125 113.730469 C 491.222656 111.839844 491.222656 109.679688 491.222656 109.050781 C 491.222656 104.550781 493.921875 101.671875 497.25 101.671875 C 501.390625 101.671875 503.28125 105.628906 503.191406 109.589844 M 495.542969 143.160156 C 503.550781 145.230469 503.640625 145.230469 504.722656 146.128906 C 505.621094 146.761719 506.523438 147.75 506.523438 149.640625 C 506.523438 152.339844 504.273438 155.128906 498.332031 155.128906 C 491.671875 155.128906 489.421875 151.351562 489.421875 148.199219 C 489.421875 145.230469 490.953125 143.519531 492.03125 142.261719 Z M 580.324219 102.300781 C 572.765625 99.148438 568.804688 97.53125 568.804688 93.480469 C 568.804688 90.691406 571.414062 87.179688 577.355469 87.179688 C 584.195312 87.179688 588.242188 89.96875 591.574219 92.21875 L 592.382812 91.859375 L 593.105469 80.070312 L 592.652344 79.441406 C 588.785156 77.820312 584.734375 76.109375 576.003906 76.109375 C 559.085938 76.109375 553.234375 85.648438 553.234375 95.28125 C 553.234375 106.171875 561.695312 110.128906 566.734375 112.558594 L 569.703125 113.910156 C 575.914062 116.519531 580.683594 118.769531 580.683594 123.539062 C 580.683594 126.960938 577.714844 131.011719 569.882812 131.011719 C 561.695312 131.011719 557.105469 127.410156 554.492188 125.339844 L 553.59375 125.609375 L 552.964844 138.300781 L 553.503906 139.019531 C 554.492188 139.378906 555.484375 139.828125 556.472656 140.101562 C 558.542969 140.820312 563.855469 142.351562 570.605469 142.351562 C 573.304688 142.351562 580.144531 142.078125 585.542969 139.558594 C 593.105469 135.871094 596.34375 129.03125 596.34375 121.378906 C 596.34375 116.25 594.363281 110.761719 589.59375 107.070312 C 587.164062 105.269531 584.824219 104.191406 582.664062 103.199219 Z M 648.09375 92.851562 L 633.421875 93.570312 L 632.792969 94.109375 C 633.421875 104.28125 633.421875 118.679688 633.421875 120.121094 C 633.421875 122.730469 633.421875 124.171875 633.332031 127.769531 C 630.902344 129.390625 629.011719 130.738281 626.582031 130.738281 C 620.101562 130.738281 620.101562 123.898438 620.101562 118.589844 C 620.101562 116.339844 620.101562 114 620.191406 111.75 L 620.371094 93.570312 L 619.742188 92.851562 L 604.890625 93.570312 L 604.261719 94.109375 C 604.800781 101.671875 604.890625 104.191406 604.890625 113.28125 L 604.890625 119.578125 C 604.800781 129.390625 605.253906 133.53125 608.492188 137.308594 C 611.460938 140.640625 615.78125 142.078125 620.28125 142.078125 C 626.671875 142.078125 630.363281 139.199219 633.601562 136.679688 L 633.511719 140.730469 L 634.140625 141.269531 C 640.710938 141 642.691406 141 648.542969 141 L 649.082031 140.460938 C 648.632812 134.070312 648.453125 130.648438 648.453125 118.949219 C 648.453125 110.488281 648.542969 102.03125 648.722656 93.570312 Z M 685.261719 107.609375 L 687.78125 92.941406 L 687.242188 92.308594 C 686.613281 92.308594 685.980469 92.21875 685.351562 92.21875 C 681.660156 92.21875 677.523438 94.289062 674.640625 100.949219 L 674.910156 92.671875 L 674.191406 91.949219 C 667.53125 93.390625 665.820312 93.660156 659.25 94.648438 L 658.710938 95.191406 C 659.25 101.941406 659.523438 105.988281 659.523438 118.5 C 659.523438 125.878906 659.429688 133.261719 659.25 140.730469 L 659.792969 141.269531 C 666.453125 141 667.890625 140.910156 675.089844 141 L 675.542969 140.371094 C 675.179688 133.078125 674.640625 122.910156 674.640625 116.699219 C 674.640625 112.648438 674.640625 106.710938 680.761719 106.710938 C 682.292969 106.710938 683.191406 107.25 684.453125 107.96875 Z M 745.292969 102.300781 C 737.734375 99.148438 733.773438 97.53125 733.773438 93.480469 C 733.773438 90.691406 736.382812 87.179688 742.324219 87.179688 C 749.164062 87.179688 753.210938 89.96875 756.542969 92.21875 L 757.351562 91.859375 L 758.074219 80.070312 L 757.621094 79.441406 C 753.753906 77.820312 749.703125 76.109375 740.972656 76.109375 C 724.054688 76.109375 718.203125 85.648438 718.203125 95.28125 C 718.203125 106.171875 726.664062 110.128906 731.703125 112.558594 L 734.671875 113.910156 C 740.882812 116.519531 745.652344 118.769531 745.652344 123.539062 C 745.652344 126.960938 742.683594 131.011719 734.851562 131.011719 C 726.664062 131.011719 722.074219 127.410156 719.460938 125.339844 L 718.5625 125.609375 L 717.933594 138.300781 L 718.472656 139.019531 C 719.460938 139.378906 720.453125 139.828125 721.441406 140.101562 C 723.511719 140.820312 728.824219 142.351562 735.574219 142.351562 C 738.273438 142.351562 745.113281 142.078125 750.511719 139.558594 C 758.074219 135.871094 761.3125 129.03125 761.3125 121.378906 C 761.3125 116.25 759.332031 110.761719 754.5625 107.070312 C 752.132812 105.269531 749.792969 104.191406 747.632812 103.199219 Z M 795.066406 130.648438 C 793.535156 131.101562 792.453125 131.460938 790.925781 131.460938 C 786.335938 131.460938 785.976562 128.578125 785.792969 127.230469 C 785.523438 124.890625 785.523438 119.941406 785.613281 116.339844 L 785.792969 103.648438 L 793.894531 104.011719 L 794.433594 103.46875 L 795.335938 93.839844 L 794.792969 93.300781 L 785.792969 93.300781 L 786.066406 78.179688 L 785.433594 77.640625 C 779.316406 79.441406 777.695312 79.890625 771.304688 81.511719 L 770.945312 82.140625 L 771.035156 93.390625 L 766.175781 93.210938 L 765.636719 93.660156 L 764.824219 103.289062 L 765.363281 103.828125 L 771.035156 103.648438 L 770.765625 117.960938 C 770.675781 120.210938 770.585938 122.460938 770.585938 124.800781 C 770.585938 133.078125 770.765625 141.988281 784.804688 141.988281 C 788.316406 141.988281 791.105469 141.449219 794.253906 140.910156 L 794.886719 140.28125 L 795.785156 131.011719 Z M 841.773438 114.179688 C 841.863281 106.078125 841.863281 102.570312 839.523438 98.789062 C 837.722656 95.910156 834.125 92.308594 822.605469 92.308594 C 814.863281 92.308594 810.09375 93.75 804.964844 95.28125 L 804.425781 96 L 803.972656 105.808594 L 804.695312 106.171875 C 807.84375 104.910156 813.695312 102.570312 819.722656 102.570312 C 823.054688 102.570312 824.402344 103.109375 825.574219 104.28125 C 826.472656 105.179688 826.746094 106.800781 826.746094 108.148438 C 815.945312 109.589844 810.902344 110.578125 805.503906 113.910156 C 800.464844 117.058594 798.753906 122.191406 798.753906 126.238281 C 798.753906 135.871094 805.683594 142.078125 814.503906 142.078125 C 821.253906 142.078125 825.125 138.839844 827.015625 137.308594 L 827.015625 140.640625 L 827.554688 141.269531 C 834.035156 141 836.015625 140.910156 841.863281 141 L 842.3125 140.371094 C 841.683594 131.550781 841.683594 129.300781 841.683594 120.839844 L 841.773438 114.179688 M 826.925781 128.488281 C 825.035156 129.570312 822.605469 130.828125 819.632812 130.828125 C 816.394531 130.828125 813.695312 129.121094 813.695312 125.339844 C 813.695312 119.398438 820.804688 118.410156 826.925781 117.601562 Z M 877.503906 130.648438 C 875.972656 131.101562 874.890625 131.460938 873.363281 131.460938 C 868.773438 131.460938 868.414062 128.578125 868.230469 127.230469 C 867.960938 124.890625 867.960938 119.941406 868.050781 116.339844 L 868.230469 103.648438 L 876.332031 104.011719 L 876.871094 103.46875 L 877.773438 93.839844 L 877.230469 93.300781 L 868.230469 93.300781 L 868.503906 78.179688 L 867.871094 77.640625 C 861.753906 79.441406 860.132812 79.890625 853.742188 81.511719 L 853.382812 82.140625 L 853.472656 93.390625 L 848.613281 93.210938 L 848.074219 93.660156 L 847.261719 103.289062 L 847.800781 103.828125 L 853.472656 103.648438 L 853.203125 117.960938 C 853.113281 120.210938 853.023438 122.460938 853.023438 124.800781 C 853.023438 133.078125 853.203125 141.988281 867.242188 141.988281 C 870.753906 141.988281 873.542969 141.449219 876.691406 140.910156 L 877.324219 140.28125 L 878.222656 131.011719 Z M 924.121094 127.679688 C 920.703125 129.480469 916.652344 131.550781 910.082031 131.550781 C 904.683594 131.550781 900.992188 129.839844 898.832031 126.601562 C 897.480469 124.710938 897.210938 122.910156 896.851562 121.109375 L 925.921875 120.570312 L 926.460938 119.941406 C 926.371094 115.53125 926.28125 111.03125 925.023438 106.53125 C 921.871094 95.910156 914.941406 93.75 911.882812 93.03125 C 909.632812 92.398438 907.5625 92.21875 905.492188 92.21875 C 891.363281 92.21875 882 101.488281 882 117.058594 C 882 121.289062 882.722656 125.699219 884.160156 128.851562 C 889.382812 141 901.621094 142.078125 908.101562 142.078125 C 915.570312 142.078125 918.8125 140.730469 923.582031 138.839844 L 924.121094 138.121094 L 924.75 127.949219 L 924.121094 127.679688 M 896.851562 111.570312 C 897.121094 108.78125 897.75 105 901.171875 102.839844 C 902.25 102.121094 903.511719 101.851562 904.773438 101.851562 C 907.742188 101.851562 909.542969 103.378906 910.53125 105 C 911.792969 106.980469 911.882812 109.140625 911.882812 111.210938 Z M 929.34375 141 "/>
<path fill-rule="nonzero" fill="rgb(34.901961%, 14.901961%, 14.901961%)" fill-opacity="1" d="M 411.53125 197.28125 L 400.101562 197.460938 L 399.558594 198 C 399.921875 209.699219 400.191406 217.53125 400.191406 227.878906 C 400.191406 238.859375 399.921875 249.75 399.648438 260.730469 L 400.191406 261.269531 C 406.851562 261 408.289062 260.910156 415.492188 261 L 415.941406 260.460938 C 415.582031 250.648438 415.582031 248.398438 415.582031 239.21875 C 425.660156 239.308594 436.460938 239.308594 442.941406 231.390625 C 445.460938 228.328125 447.621094 223.199219 447.621094 216.898438 C 447.621094 213.03125 446.71875 204.480469 439.25 200.25 C 433.851562 197.101562 426.199219 197.101562 419.449219 197.101562 L 411.53125 197.28125 M 415.582031 208.171875 C 417.558594 208.078125 419.449219 208.078125 421.429688 208.078125 C 429.351562 208.261719 431.511719 212.308594 431.511719 217.53125 C 431.511719 218.789062 431.511719 224.011719 426.742188 226.621094 C 424.308594 227.96875 420.980469 228.148438 415.582031 228.148438 Z M 493.878906 234.179688 C 493.96875 226.078125 493.96875 222.570312 491.628906 218.789062 C 489.828125 215.910156 486.230469 212.308594 474.710938 212.308594 C 466.96875 212.308594 462.199219 213.75 457.070312 215.28125 L 456.53125 216 L 456.078125 225.808594 L 456.800781 226.171875 C 459.949219 224.910156 465.800781 222.570312 471.828125 222.570312 C 475.160156 222.570312 476.507812 223.109375 477.679688 224.28125 C 478.578125 225.179688 478.851562 226.800781 478.851562 228.148438 C 468.050781 229.589844 463.007812 230.578125 457.609375 233.910156 C 452.570312 237.058594 450.859375 242.191406 450.859375 246.238281 C 450.859375 255.871094 457.789062 262.078125 466.609375 262.078125 C 473.359375 262.078125 477.230469 258.839844 479.121094 257.308594 L 479.121094 260.640625 L 479.660156 261.269531 C 486.140625 261 488.121094 260.910156 493.96875 261 L 494.417969 260.371094 C 493.789062 251.550781 493.789062 249.300781 493.789062 240.839844 L 493.878906 234.179688 M 479.03125 248.488281 C 477.140625 249.570312 474.710938 250.828125 471.738281 250.828125 C 468.5 250.828125 465.800781 249.121094 465.800781 245.339844 C 465.800781 239.398438 472.910156 238.410156 479.03125 237.601562 Z M 530.421875 227.609375 L 532.941406 212.941406 L 532.402344 212.308594 C 531.773438 212.308594 531.140625 212.21875 530.511719 212.21875 C 526.820312 212.21875 522.683594 214.289062 519.800781 220.949219 L 520.070312 212.671875 L 519.351562 211.949219 C 512.691406 213.390625 510.980469 213.660156 504.410156 214.648438 L 503.871094 215.191406 C 504.410156 221.941406 504.683594 225.988281 504.683594 238.5 C 504.683594 245.878906 504.589844 253.261719 504.410156 260.730469 L 504.953125 261.269531 C 511.613281 261 513.050781 260.910156 520.25 261 L 520.703125 260.371094 C 520.339844 253.078125 519.800781 242.910156 519.800781 236.699219 C 519.800781 232.648438 519.800781 226.710938 525.921875 226.710938 C 527.453125 226.710938 528.351562 227.25 529.613281 227.96875 Z M 584.421875 259.828125 C 575.960938 245.519531 575.0625 243.898438 568.222656 231.570312 C 574.433594 223.109375 575.0625 222.210938 581.453125 214.019531 L 581 213.121094 L 566.332031 213.300781 L 565.433594 213.929688 C 558.410156 226.078125 557.511719 227.519531 553.371094 233.730469 L 553.371094 223.738281 C 553.460938 206.910156 553.550781 203.308594 554 189.71875 L 553.28125 189.179688 L 537.621094 191.519531 L 537.082031 192.148438 C 537.710938 200.878906 537.980469 205.109375 538.160156 216.898438 C 538.339844 231.480469 538.339844 246.058594 538.25 260.640625 L 538.882812 261.269531 C 544.910156 261 546.621094 261 553.460938 261 L 554 260.371094 L 553.460938 245.160156 L 553.371094 234.808594 C 561.203125 249.210938 562.191406 251.191406 566.78125 260.730469 L 567.589844 261.269531 L 583.792969 260.640625 Z M 583.339844 261 "/>
</svg>
