<?xml version="1.0" encoding="UTF-8"?>
<svg xmlns="http://www.w3.org/2000/svg" xmlns:xlink="http://www.w3.org/1999/xlink" width="975" height="1300" viewBox="0 0 975 1300">
<path fill-rule="nonzero" fill="rgb(98.823529%, 78.823529%, 9.019608%)" fill-opacity="1" d="M 50 50 L 925 50 L 925 290 L 50 290 Z M 50 50 "/>
<path fill-rule="nonzero" fill="rgb(34.901961%, 14.901961%, 14.901961%)" fill-opacity="1" d="M 198.410156 115.078125 L 199.042969 114.539062 L 199.761719 104.011719 L 199.3125 103.46875 L 178.792969 104.191406 L 178.792969 89.160156 L 200.84375 89.429688 L 201.382812 88.800781 L 202.371094 77.640625 L 201.832031 77.191406 C 186.980469 77.460938 182.210938 77.460938 162.773438 77.371094 L 162.230469 77.910156 C 162.773438 86.730469 163.132812 93.839844 163.132812 109.769531 C 163.132812 120.121094 162.953125 130.46875 162.773438 140.820312 L 163.222656 141.269531 C 169.792969 141 171.320312 141 179.242188 141 L 179.691406 140.460938 C 179.0625 130.109375 178.972656 126.960938 178.703125 115.078125 Z M 255.023438 117.058594 C 255.023438 113.550781 255.023438 98.96875 242.421875 94.019531 C 238.460938 92.488281 233.78125 92.308594 231.441406 92.308594 C 215.78125 92.308594 206.960938 100.679688 206.960938 117.238281 C 206.960938 123 207.863281 128.851562 211.191406 133.710938 C 213.53125 137.21875 217.941406 142.078125 230.8125 142.078125 C 249.890625 142.078125 255.023438 130.558594 255.023438 117.058594 M 239.453125 116.96875 C 239.453125 124.351562 238.460938 132.539062 230.992188 132.539062 C 228.652344 132.539062 227.03125 131.460938 225.953125 130.46875 C 224.421875 128.941406 222.710938 125.878906 222.710938 117.148438 C 222.710938 114.539062 222.710938 108.78125 224.511719 105.628906 C 225.863281 103.199219 228.203125 101.578125 231.082031 101.578125 C 233.601562 101.578125 235.671875 102.929688 236.84375 104.371094 C 239.003906 106.980469 239.453125 112.109375 239.453125 116.96875 Z M 289.582031 107.609375 L 292.101562 92.941406 L 291.5625 92.308594 C 290.933594 92.308594 290.300781 92.21875 289.671875 92.21875 C 285.980469 92.21875 281.84375 94.289062 278.960938 100.949219 L 279.230469 92.671875 L 278.511719 91.949219 C 271.851562 93.390625 270.140625 93.660156 263.570312 94.648438 L 263.03125 95.191406 C 263.570312 101.941406 263.84375 105.988281 263.84375 118.5 C 263.84375 125.878906 263.75 133.261719 263.570312 140.730469 L 264.113281 141.269531 C 270.773438 141 272.210938 140.910156 279.410156 141 L 279.863281 140.371094 C 279.5 133.078125 278.960938 122.910156 278.960938 116.699219 C 278.960938 112.648438 278.960938 106.710938 285.082031 106.710938 C 286.613281 106.710938 287.511719 107.25 288.773438 107.96875 Z M 322.523438 130.648438 C 320.992188 131.101562 319.910156 131.460938 318.382812 131.460938 C 313.792969 131.460938 313.433594 128.578125 313.25 127.230469 C 312.980469 124.890625 312.980469 119.941406 313.070312 116.339844 L 313.25 103.648438 L 321.351562 104.011719 L 321.890625 103.46875 L 322.792969 93.839844 L 322.25 93.300781 L 313.25 93.300781 L 313.523438 78.179688 L 312.890625 77.640625 C 306.773438 79.441406 305.152344 79.890625 298.761719 81.511719 L 298.402344 82.140625 L 298.492188 93.390625 L 293.632812 93.210938 L 293.09375 93.660156 L 292.28125 103.289062 L 292.820312 103.828125 L 298.492188 103.648438 L 298.222656 117.960938 C 298.132812 120.210938 298.042969 122.460938 298.042969 124.800781 C 298.042969 133.078125 298.222656 141.988281 312.261719 141.988281 C 315.773438 141.988281 318.5625 141.449219 321.710938 140.910156 L 322.34375 140.28125 L 323.242188 131.011719 Z M 395.421875 89.339844 L 395.960938 88.890625 L 396.59375 77.640625 L 396.140625 77.371094 L 351.59375 77.371094 L 350.960938 77.910156 L 350.332031 88.980469 L 350.78125 89.519531 L 365.453125 89.160156 C 365.542969 112.738281 365.542969 118.410156 364.824219 140.730469 L 365.363281 141.269531 C 372.023438 141 373.824219 140.910156 381.292969 140.910156 L 381.832031 140.371094 C 381.382812 127.769531 381.203125 115.171875 381.203125 102.480469 C 381.203125 97.53125 381.292969 94.738281 381.472656 88.980469 Z M 442.3125 127.679688 C 438.894531 129.480469 434.84375 131.550781 428.273438 131.550781 C 422.875 131.550781 419.183594 129.839844 417.023438 126.601562 C 415.671875 124.710938 415.402344 122.910156 415.042969 121.109375 L 444.113281 120.570312 L 444.652344 119.941406 C 444.5625 115.53125 444.472656 111.03125 443.214844 106.53125 C 440.0625 95.910156 433.132812 93.75 430.074219 93.03125 C 427.824219 92.398438 425.753906 92.21875 423.683594 92.21875 C 409.554688 92.21875 400.191406 101.488281 400.191406 117.058594 C 400.191406 121.289062 400.914062 125.699219 402.351562 128.851562 C 407.574219 141 419.8125 142.078125 426.292969 142.078125 C 433.761719 142.078125 437.003906 140.730469 441.773438 138.839844 L 442.3125 138.121094 L 442.941406 127.949219 L 442.3125 127.679688 M 415.042969 111.570312 C 415.3125 108.78125 415.941406 105 419.363281 102.839844 C 420.441406 102.121094 421.703125 101.851562 422.964844 101.851562 C 425.933594 101.851562 427.734375 103.378906 428.722656 105 C 429.984375 106.980469 430.074219 109.140625 430.074219 111.210938 Z M 467.78125 91.949219 C 461.121094 93.300781 459.769531 93.570312 452.480469 94.648438 L 451.941406 95.191406 C 452.660156 104.550781 453.019531 116.160156 453.109375 123.898438 C 453.203125 126.960938 453.382812 137.578125 453.382812 140.191406 C 453.382812 147.390625 452.480469 151.621094 445.101562 153.148438 L 444.652344 153.871094 L 446.992188 163.230469 L 447.621094 163.589844 C 451.042969 162.871094 459.679688 161.070312 464.992188 154.140625 C 468.679688 149.191406 468.769531 144.058594 468.589844 136.949219 L 468.5 130.648438 C 468.320312 124.800781 468.230469 118.949219 468.230469 113.101562 C 468.230469 106.351562 468.410156 99.691406 468.5 92.761719 L 467.78125 91.949219 M 468.140625 83.578125 L 468.140625 71.25 L 467.601562 70.621094 L 453.019531 72.421875 L 452.390625 73.050781 L 452.660156 85.378906 L 453.292969 85.828125 C 459.953125 84.929688 461.929688 84.660156 467.601562 84.03125 Z M 525.023438 117.058594 C 525.023438 113.550781 525.023438 98.96875 512.421875 94.019531 C 508.460938 92.488281 503.78125 92.308594 501.441406 92.308594 C 485.78125 92.308594 476.960938 100.679688 476.960938 117.238281 C 476.960938 123 477.863281 128.851562 481.191406 133.710938 C 483.53125 137.21875 487.941406 142.078125 500.8125 142.078125 C 519.890625 142.078125 525.023438 130.558594 525.023438 117.058594 M 509.453125 116.96875 C 509.453125 124.351562 508.460938 132.539062 500.992188 132.539062 C 498.652344 132.539062 497.03125 131.460938 495.953125 130.46875 C 494.421875 128.941406 492.710938 125.878906 492.710938 117.148438 C 492.710938 114.539062 492.710938 108.78125 494.511719 105.628906 C 495.863281 103.199219 498.203125 101.578125 501.082031 101.578125 C 503.601562 101.578125 505.671875 102.929688 506.84375 104.371094 C 509.003906 106.980469 509.453125 112.109375 509.453125 116.96875 Z M 577.671875 140.371094 C 577.222656 132.449219 577.222656 129.929688 577.042969 121.109375 L 577.042969 114.089844 C 576.953125 105.449219 576.863281 101.308594 574.613281 97.621094 C 571.820312 92.941406 566.691406 92.21875 563.453125 92.21875 C 557.960938 92.21875 553.191406 95.101562 549.050781 97.53125 L 549.230469 92.578125 L 548.332031 91.949219 C 541.402344 93.390625 539.871094 93.660156 533.121094 94.558594 L 532.582031 95.191406 C 533.300781 103.019531 533.84375 108.691406 533.84375 123.359375 C 533.84375 129.121094 533.75 134.878906 533.660156 140.640625 L 534.203125 141.179688 C 540.683594 140.910156 542.03125 140.910156 549.230469 140.910156 L 549.773438 140.371094 C 549.230469 126.511719 549.140625 123 549.050781 106.890625 C 550.941406 105.628906 553.101562 104.101562 555.980469 104.101562 C 560.933594 104.101562 561.382812 109.410156 561.652344 112.648438 C 561.832031 115.621094 561.921875 127.949219 561.921875 131.371094 C 561.921875 134.429688 561.832031 137.578125 561.832031 140.640625 L 562.371094 141.179688 C 568.3125 141 569.84375 140.910156 577.042969 140.910156 Z M 640.222656 102.300781 C 632.664062 99.148438 628.703125 97.53125 628.703125 93.480469 C 628.703125 90.691406 631.3125 87.179688 637.253906 87.179688 C 644.09375 87.179688 648.140625 89.96875 651.472656 92.21875 L 652.28125 91.859375 L 653.003906 80.070312 L 652.550781 79.441406 C 648.683594 77.820312 644.632812 76.109375 635.902344 76.109375 C 618.984375 76.109375 613.132812 85.648438 613.132812 95.28125 C 613.132812 106.171875 621.59375 110.128906 626.632812 112.558594 L 629.601562 113.910156 C 635.8125 116.519531 640.582031 118.769531 640.582031 123.539062 C 640.582031 126.960938 637.613281 131.011719 629.78125 131.011719 C 621.59375 131.011719 617.003906 127.410156 614.390625 125.339844 L 613.492188 125.609375 L 612.863281 138.300781 L 613.402344 139.019531 C 614.390625 139.378906 615.382812 139.828125 616.371094 140.101562 C 618.441406 140.820312 623.753906 142.351562 630.503906 142.351562 C 633.203125 142.351562 640.042969 142.078125 645.441406 139.558594 C 653.003906 135.871094 656.242188 129.03125 656.242188 121.378906 C 656.242188 116.25 654.261719 110.761719 649.492188 107.070312 C 647.0625 105.269531 644.722656 104.191406 642.5625 103.199219 Z M 689.992188 130.648438 C 688.460938 131.101562 687.378906 131.460938 685.851562 131.460938 C 681.261719 131.460938 680.902344 128.578125 680.71875 127.230469 C 680.449219 124.890625 680.449219 119.941406 680.539062 116.339844 L 680.71875 103.648438 L 688.820312 104.011719 L 689.359375 103.46875 L 690.261719 93.839844 L 689.71875 93.300781 L 680.71875 93.300781 L 680.992188 78.179688 L 680.359375 77.640625 C 674.242188 79.441406 672.621094 79.890625 666.230469 81.511719 L 665.871094 82.140625 L 665.960938 93.390625 L 661.101562 93.210938 L 660.5625 93.660156 L 659.75 103.289062 L 660.289062 103.828125 L 665.960938 103.648438 L 665.691406 117.960938 C 665.601562 120.210938 665.511719 122.460938 665.511719 124.800781 C 665.511719 133.078125 665.691406 141.988281 679.730469 141.988281 C 683.242188 141.988281 686.03125 141.449219 689.179688 140.910156 L 689.8125 140.28125 L 690.710938 131.011719 Z M 736.699219 114.179688 C 736.789062 106.078125 736.789062 102.570312 734.449219 98.789062 C 732.648438 95.910156 729.050781 92.308594 717.53125 92.308594 C 709.789062 92.308594 705.019531 93.75 699.890625 95.28125 L 699.351562 96 L 698.898438 105.808594 L 699.621094 106.171875 C 702.769531 104.910156 708.621094 102.570312 714.648438 102.570312 C 717.980469 102.570312 719.328125 103.109375 720.5 104.28125 C 721.398438 105.179688 721.671875 106.800781 721.671875 108.148438 C 710.871094 109.589844 705.828125 110.578125 700.429688 113.910156 C 695.390625 117.058594 693.679688 122.191406 693.679688 126.238281 C 693.679688 135.871094 700.609375 142.078125 709.429688 142.078125 C 716.179688 142.078125 720.050781 138.839844 721.941406 137.308594 L 721.941406 140.640625 L 722.480469 141.269531 C 728.960938 141 730.941406 140.910156 736.789062 141 L 737.238281 140.371094 C 736.609375 131.550781 736.609375 129.300781 736.609375 120.839844 L 736.699219 114.179688 M 721.851562 128.488281 C 719.960938 129.570312 717.53125 130.828125 714.558594 130.828125 C 711.320312 130.828125 708.621094 129.121094 708.621094 125.339844 C 708.621094 119.398438 715.730469 118.410156 721.851562 117.601562 Z M 772.433594 130.648438 C 770.902344 131.101562 769.820312 131.460938 768.292969 131.460938 C 763.703125 131.460938 763.34375 128.578125 763.160156 127.230469 C 762.890625 124.890625 762.890625 119.941406 762.980469 116.339844 L 763.160156 103.648438 L 771.261719 104.011719 L 771.800781 103.46875 L 772.703125 93.839844 L 772.160156 93.300781 L 763.160156 93.300781 L 763.433594 78.179688 L 762.800781 77.640625 C 756.683594 79.441406 755.0625 79.890625 748.671875 81.511719 L 748.3125 82.140625 L 748.402344 93.390625 L 743.542969 93.210938 L 743.003906 93.660156 L 742.191406 103.289062 L 742.730469 103.828125 L 748.402344 103.648438 L 748.132812 117.960938 C 748.042969 120.210938 747.953125 122.460938 747.953125 124.800781 C 747.953125 133.078125 748.132812 141.988281 762.171875 141.988281 C 765.683594 141.988281 768.472656 141.449219 771.621094 140.910156 L 772.253906 140.28125 L 773.152344 131.011719 Z M 819.050781 127.679688 C 815.632812 129.480469 811.582031 131.550781 805.011719 131.550781 C 799.613281 131.550781 795.921875 129.839844 793.761719 126.601562 C 792.410156 124.710938 792.140625 122.910156 791.78125 121.109375 L 820.851562 120.570312 L 821.390625 119.941406 C 821.300781 115.53125 821.210938 111.03125 819.953125 106.53125 C 816.800781 95.910156 809.871094 93.75 806.8125 93.03125 C 804.5625 92.398438 802.492188 92.21875 800.421875 92.21875 C 786.292969 92.21875 776.929688 101.488281 776.929688 117.058594 C 776.929688 121.289062 777.652344 125.699219 779.089844 128.851562 C 784.3125 141 796.550781 142.078125 803.03125 142.078125 C 810.5 142.078125 813.742188 140.730469 818.511719 138.839844 L 819.050781 138.121094 L 819.679688 127.949219 L 819.050781 127.679688 M 791.78125 111.570312 C 792.050781 108.78125 792.679688 105 796.101562 102.839844 C 797.179688 102.121094 798.441406 101.851562 799.703125 101.851562 C 802.671875 101.851562 804.472656 103.378906 805.460938 105 C 806.722656 106.980469 806.8125 109.140625 806.8125 111.210938 Z M 824.273438 141 "/>
<path fill-rule="nonzero" fill="rgb(34.901961%, 14.901961%, 14.901961%)" fill-opacity="1" d="M 277.921875 197.191406 C 270.722656 197.460938 269.554688 197.460938 261.992188 197.460938 L 261.542969 198 C 262.171875 208.171875 262.171875 210.78125 262.261719 221.398438 C 258.304688 221.488281 254.34375 221.578125 250.292969 221.578125 C 247.144531 221.578125 243.902344 221.488281 240.753906 221.488281 L 240.933594 197.730469 L 240.484375 197.191406 C 233.554688 197.460938 232.203125 197.460938 224.375 197.460938 L 223.832031 198 C 224.285156 207.269531 224.824219 218.339844 224.824219 240.660156 C 224.824219 248.761719 224.644531 253.171875 224.464844 260.730469 L 224.914062 261.269531 C 231.484375 261 233.101562 260.910156 241.023438 261 L 241.472656 260.460938 C 240.933594 249.300781 240.84375 246.058594 240.753906 233.011719 C 244.714844 232.828125 248.042969 232.738281 251.554688 232.738281 C 255.152344 232.738281 258.753906 232.828125 262.351562 232.921875 C 262.535156 245.070312 262.535156 248.039062 262.082031 260.730469 L 262.535156 261.269531 C 269.285156 261 271.082031 260.910156 278.734375 261 L 279.183594 260.460938 C 278.464844 245.339844 278.191406 230.308594 278.191406 215.191406 C 278.191406 208.890625 278.285156 204.660156 278.375 197.730469 Z M 305.914062 260.371094 C 305.460938 253.441406 305.101562 248.128906 305.101562 235.710938 C 305.101562 228.058594 305.28125 220.320312 305.371094 212.671875 L 304.742188 211.949219 L 289.261719 214.648438 L 288.722656 215.191406 C 289.441406 222.03125 289.710938 225.179688 289.710938 237.960938 C 289.710938 247.769531 289.441406 253.261719 289.171875 260.640625 L 289.710938 261.269531 C 296.191406 261 297.992188 260.910156 305.28125 261 L 305.914062 260.371094 M 304.472656 203.308594 L 304.742188 191.070312 L 304.203125 190.53125 L 289.53125 192.328125 L 288.992188 192.960938 C 289.171875 196.199219 289.261719 198.089844 289.261719 200.25 C 289.261719 201.960938 289.261719 203.761719 289.171875 205.46875 L 289.800781 206.011719 C 295.921875 204.929688 297.632812 204.75 304.023438 203.941406 Z M 334.804688 229.949219 C 331.742188 228.871094 329.3125 227.878906 329.3125 225.359375 C 329.3125 224.28125 330.035156 221.308594 335.613281 221.308594 C 341.105469 221.308594 344.613281 223.648438 346.863281 225.089844 L 347.675781 224.820312 L 348.574219 215.011719 L 348.125 214.46875 C 343.894531 213.300781 340.203125 212.21875 334.355469 212.21875 C 329.945312 212.21875 321.125 212.578125 316.445312 219.328125 C 315.273438 220.949219 314.015625 223.648438 314.015625 227.25 C 314.015625 236.878906 321.484375 239.761719 325.714844 241.378906 L 329.132812 242.640625 C 331.5625 243.449219 335.523438 244.800781 335.523438 248.039062 C 335.523438 250.289062 333.453125 252.71875 328.414062 252.71875 C 325.894531 252.71875 322.203125 251.910156 318.875 250.199219 C 317.34375 249.390625 316.625 248.761719 315.273438 247.679688 L 314.464844 248.039062 C 314.285156 252.71875 314.195312 253.710938 313.832031 258.210938 L 314.285156 259.019531 C 318.695312 260.640625 322.472656 262.078125 329.042969 262.078125 C 335.882812 262.078125 349.382812 260.820312 351.003906 247.949219 C 351.09375 247.230469 351.09375 246.601562 351.09375 245.96875 C 351.09375 236.070312 344.164062 233.460938 339.214844 231.570312 Z M 384.214844 250.648438 C 382.683594 251.101562 381.601562 251.460938 380.074219 251.460938 C 375.484375 251.460938 375.125 248.578125 374.941406 247.230469 C 374.671875 244.890625 374.671875 239.941406 374.761719 236.339844 L 374.941406 223.648438 L 383.042969 224.011719 L 383.582031 223.46875 L 384.484375 213.839844 L 383.941406 213.300781 L 374.941406 213.300781 L 375.214844 198.179688 L 374.582031 197.640625 C 368.464844 199.441406 366.84375 199.890625 360.453125 201.511719 L 360.09375 202.140625 L 360.183594 213.390625 L 355.324219 213.210938 L 354.785156 213.660156 L 353.972656 223.289062 L 354.511719 223.828125 L 360.183594 223.648438 L 359.914062 237.960938 C 359.824219 240.210938 359.734375 242.460938 359.734375 244.800781 C 359.734375 253.078125 359.914062 261.988281 373.953125 261.988281 C 377.464844 261.988281 380.253906 261.449219 383.402344 260.910156 L 384.035156 260.28125 L 384.933594 251.011719 Z M 436.683594 237.058594 C 436.683594 233.550781 436.683594 218.96875 424.082031 214.019531 C 420.121094 212.488281 415.441406 212.308594 413.101562 212.308594 C 397.441406 212.308594 388.621094 220.679688 388.621094 237.238281 C 388.621094 243 389.523438 248.851562 392.851562 253.710938 C 395.191406 257.21875 399.601562 262.078125 412.472656 262.078125 C 431.550781 262.078125 436.683594 250.558594 436.683594 237.058594 M 421.113281 236.96875 C 421.113281 244.351562 420.121094 252.539062 412.652344 252.539062 C 410.3125 252.539062 408.691406 251.460938 407.613281 250.46875 C 406.082031 248.941406 404.371094 245.878906 404.371094 237.148438 C 404.371094 234.539062 404.371094 228.78125 406.171875 225.628906 C 407.523438 223.199219 409.863281 221.578125 412.742188 221.578125 C 415.261719 221.578125 417.332031 222.929688 418.503906 224.371094 C 420.664062 226.980469 421.113281 232.109375 421.113281 236.96875 Z M 471.242188 227.609375 L 473.761719 212.941406 L 473.222656 212.308594 C 472.59375 212.308594 471.960938 212.21875 471.332031 212.21875 C 467.640625 212.21875 463.503906 214.289062 460.621094 220.949219 L 460.890625 212.671875 L 460.171875 211.949219 C 453.511719 213.390625 451.800781 213.660156 445.230469 214.648438 L 444.691406 215.191406 C 445.230469 221.941406 445.503906 225.988281 445.503906 238.5 C 445.503906 245.878906 445.410156 253.261719 445.230469 260.730469 L 445.773438 261.269531 C 452.433594 261 453.871094 260.910156 461.070312 261 L 461.523438 260.371094 C 461.160156 253.078125 460.621094 242.910156 460.621094 236.699219 C 460.621094 232.648438 460.621094 226.710938 466.742188 226.710938 C 468.273438 226.710938 469.171875 227.25 470.433594 227.96875 Z M 495.273438 260.371094 C 494.820312 253.441406 494.460938 248.128906 494.460938 235.710938 C 494.460938 228.058594 494.640625 220.320312 494.730469 212.671875 L 494.101562 211.949219 L 478.621094 214.648438 L 478.082031 215.191406 C 478.800781 222.03125 479.070312 225.179688 479.070312 237.960938 C 479.070312 247.769531 478.800781 253.261719 478.53125 260.640625 L 479.070312 261.269531 C 485.550781 261 487.351562 260.910156 494.640625 261 L 495.273438 260.371094 M 493.832031 203.308594 L 494.101562 191.070312 L 493.5625 190.53125 L 478.890625 192.328125 L 478.351562 192.960938 C 478.53125 196.199219 478.621094 198.089844 478.621094 200.25 C 478.621094 201.960938 478.621094 203.761719 478.53125 205.46875 L 479.160156 206.011719 C 485.28125 204.929688 486.992188 204.75 493.382812 203.941406 Z M 540.453125 248.039062 C 538.023438 249.480469 535.683594 250.921875 531.09375 250.921875 C 520.921875 250.921875 518.851562 242.460938 518.851562 237.058594 C 518.851562 230.488281 521.734375 222.929688 530.464844 222.929688 C 534.421875 222.929688 536.582031 224.371094 539.285156 226.171875 L 540.183594 225.898438 C 540.542969 221.128906 540.632812 219.871094 541.351562 215.101562 L 540.902344 214.558594 C 536.941406 213.300781 533.523438 212.21875 528.304688 212.21875 C 507.152344 212.21875 503.011719 228.238281 503.011719 237.421875 C 503.011719 247.769531 508.414062 261.808594 528.664062 261.808594 C 533.433594 261.808594 536.492188 260.910156 540.273438 259.828125 L 540.8125 259.289062 L 541.171875 248.488281 Z M 586.714844 197.28125 L 575.285156 197.460938 L 574.742188 198 C 575.105469 209.699219 575.375 217.53125 575.375 227.878906 C 575.375 238.859375 575.105469 249.75 574.832031 260.730469 L 575.375 261.269531 C 582.035156 261 583.472656 260.910156 590.675781 261 L 591.125 260.460938 C 590.765625 250.648438 590.765625 248.398438 590.765625 239.21875 C 600.84375 239.308594 611.644531 239.308594 618.125 231.390625 C 620.644531 228.328125 622.804688 223.199219 622.804688 216.898438 C 622.804688 213.03125 621.902344 204.480469 614.433594 200.25 C 609.035156 197.101562 601.382812 197.101562 594.632812 197.101562 L 586.714844 197.28125 M 590.765625 208.171875 C 592.742188 208.078125 594.632812 208.078125 596.613281 208.078125 C 604.535156 208.261719 606.695312 212.308594 606.695312 217.53125 C 606.695312 218.789062 606.695312 224.011719 601.925781 226.621094 C 599.492188 227.96875 596.164062 228.148438 590.765625 228.148438 Z M 669.0625 234.179688 C 669.152344 226.078125 669.152344 222.570312 666.8125 218.789062 C 665.011719 215.910156 661.414062 212.308594 649.894531 212.308594 C 642.152344 212.308594 637.382812 213.75 632.253906 215.28125 L 631.714844 216 L 631.261719 225.808594 L 631.984375 226.171875 C 635.132812 224.910156 640.984375 222.570312 647.011719 222.570312 C 650.34375 222.570312 651.691406 223.109375 652.863281 224.28125 C 653.761719 225.179688 654.035156 226.800781 654.035156 228.148438 C 643.234375 229.589844 638.191406 230.578125 632.792969 233.910156 C 627.753906 237.058594 626.042969 242.191406 626.042969 246.238281 C 626.042969 255.871094 632.972656 262.078125 641.792969 262.078125 C 648.542969 262.078125 652.414062 258.839844 654.304688 257.308594 L 654.304688 260.640625 L 654.84375 261.269531 C 661.324219 261 663.304688 260.910156 669.152344 261 L 669.601562 260.371094 C 668.972656 251.550781 668.972656 249.300781 668.972656 240.839844 L 669.0625 234.179688 M 654.214844 248.488281 C 652.324219 249.570312 649.894531 250.828125 646.921875 250.828125 C 643.683594 250.828125 640.984375 249.121094 640.984375 245.339844 C 640.984375 239.398438 648.09375 238.410156 654.214844 237.601562 Z M 705.601562 227.609375 L 708.121094 212.941406 L 707.582031 212.308594 C 706.953125 212.308594 706.320312 212.21875 705.691406 212.21875 C 702 212.21875 697.863281 214.289062 694.980469 220.949219 L 695.25 212.671875 L 694.53125 211.949219 C 687.871094 213.390625 686.160156 213.660156 679.589844 214.648438 L 679.050781 215.191406 C 679.589844 221.941406 679.863281 225.988281 679.863281 238.5 C 679.863281 245.878906 679.769531 253.261719 679.589844 260.730469 L 680.132812 261.269531 C 686.792969 261 688.230469 260.910156 695.429688 261 L 695.882812 260.371094 C 695.519531 253.078125 694.980469 242.910156 694.980469 236.699219 C 694.980469 232.648438 694.980469 226.710938 701.101562 226.710938 C 702.632812 226.710938 703.53125 227.25 704.792969 227.96875 Z M 759.601562 259.828125 C 751.140625 245.519531 750.242188 243.898438 743.402344 231.570312 C 749.613281 223.109375 750.242188 222.210938 756.632812 214.019531 L 756.179688 213.121094 L 741.511719 213.300781 L 740.613281 213.929688 C 733.589844 226.078125 732.691406 227.519531 728.550781 233.730469 L 728.550781 223.738281 C 728.640625 206.910156 728.730469 203.308594 729.179688 189.71875 L 728.460938 189.179688 L 712.800781 191.519531 L 712.261719 192.148438 C 712.890625 200.878906 713.160156 205.109375 713.339844 216.898438 C 713.519531 231.480469 713.519531 246.058594 713.429688 260.640625 L 714.0625 261.269531 C 720.089844 261 721.800781 261 728.640625 261 L 729.179688 260.371094 L 728.640625 245.160156 L 728.550781 234.808594 C 736.382812 249.210938 737.371094 251.191406 741.960938 260.730469 L 742.769531 261.269531 L 758.972656 260.640625 Z M 758.523438 261 "/>
</svg>
