<?xml version="1.0" encoding="UTF-8"?>
<svg xmlns="http://www.w3.org/2000/svg" xmlns:xlink="http://www.w3.org/1999/xlink" width="975" height="1300" viewBox="0 0 975 1300">
<path fill-rule="nonzero" fill="rgb(98.823529%, 78.823529%, 9.019608%)" fill-opacity="1" d="M 50 50 L 925 50 L 925 410 L 50 410 Z M 50 50 "/>
<path fill-rule="nonzero" fill="rgb(34.901961%, 14.901961%, 14.901961%)" fill-opacity="1" d="M 150.664062 77.191406 C 143.464844 77.460938 142.296875 77.460938 134.734375 77.460938 L 134.285156 78 C 134.914062 88.171875 134.914062 90.78125 135.003906 101.398438 C 131.046875 101.488281 127.085938 101.578125 123.035156 101.578125 C 119.886719 101.578125 116.644531 101.488281 113.496094 101.488281 L 113.675781 77.730469 L 113.226562 77.191406 C 106.296875 77.460938 104.945312 77.460938 97.117188 77.460938 L 96.574219 78 C 97.027344 87.269531 97.566406 98.339844 97.566406 120.660156 C 97.566406 128.761719 97.386719 133.171875 97.207031 140.730469 L 97.65625 141.269531 C 104.226562 141 105.84375 140.910156 113.765625 141 L 114.214844 140.460938 C 113.675781 129.300781 113.585938 126.058594 113.496094 113.011719 C 117.457031 112.828125 120.785156 112.738281 124.296875 112.738281 C 127.894531 112.738281 131.496094 112.828125 135.09375 112.921875 C 135.277344 125.070312 135.277344 128.039062 134.824219 140.730469 L 135.277344 141.269531 C 142.027344 141 143.824219 140.910156 151.476562 141 L 151.925781 140.460938 C 151.207031 125.339844 150.933594 110.308594 150.933594 95.191406 C 150.933594 88.890625 151.027344 84.660156 151.117188 77.730469 Z M 202.324219 127.679688 C 198.90625 129.480469 194.855469 131.550781 188.285156 131.550781 C 182.886719 131.550781 179.195312 129.839844 177.035156 126.601562 C 175.683594 124.710938 175.414062 122.910156 175.054688 121.109375 L 204.125 120.570312 L 204.664062 119.941406 C 204.574219 115.53125 204.484375 111.03125 203.226562 106.53125 C 200.074219 95.910156 193.144531 93.75 190.085938 93.03125 C 187.835938 92.398438 185.765625 92.21875 183.695312 92.21875 C 169.566406 92.21875 160.203125 101.488281 160.203125 117.058594 C 160.203125 121.289062 160.925781 125.699219 162.363281 128.851562 C 167.585938 141 179.824219 142.078125 186.304688 142.078125 C 193.773438 142.078125 197.015625 140.730469 201.785156 138.839844 L 202.324219 138.121094 L 202.953125 127.949219 L 202.324219 127.679688 M 175.054688 111.570312 C 175.324219 108.78125 175.953125 105 179.375 102.839844 C 180.453125 102.121094 181.714844 101.851562 182.976562 101.851562 C 185.945312 101.851562 187.746094 103.378906 188.734375 105 C 189.996094 106.980469 190.085938 109.140625 190.085938 111.210938 Z M 252.996094 114.179688 C 253.085938 106.078125 253.085938 102.570312 250.746094 98.789062 C 248.945312 95.910156 245.347656 92.308594 233.828125 92.308594 C 226.085938 92.308594 221.316406 93.75 216.1875 95.28125 L 215.648438 96 L 215.195312 105.808594 L 215.917969 106.171875 C 219.066406 104.910156 224.917969 102.570312 230.945312 102.570312 C 234.277344 102.570312 235.625 103.109375 236.796875 104.28125 C 237.695312 105.179688 237.96875 106.800781 237.96875 108.148438 C 227.167969 109.589844 222.125 110.578125 216.726562 113.910156 C 211.6875 117.058594 209.976562 122.191406 209.976562 126.238281 C 209.976562 135.871094 216.90625 142.078125 225.726562 142.078125 C 232.476562 142.078125 236.347656 138.839844 238.238281 137.308594 L 238.238281 140.640625 L 238.777344 141.269531 C 245.257812 141 247.238281 140.910156 253.085938 141 L 253.535156 140.371094 C 252.90625 131.550781 252.90625 129.300781 252.90625 120.839844 L 252.996094 114.179688 M 238.148438 128.488281 C 236.257812 129.570312 233.828125 130.828125 230.855469 130.828125 C 227.617188 130.828125 224.917969 129.121094 224.917969 125.339844 C 224.917969 119.398438 232.027344 118.410156 238.148438 117.601562 Z M 289.535156 107.609375 L 292.054688 92.941406 L 291.515625 92.308594 C 290.886719 92.308594 290.253906 92.21875 289.625 92.21875 C 285.933594 92.21875 281.796875 94.289062 278.914062 100.949219 L 279.183594 92.671875 L 278.464844 91.949219 C 271.804688 93.390625 270.09375 93.660156 263.523438 94.648438 L 262.984375 95.191406 C 263.523438 101.941406 263.796875 105.988281 263.796875 118.5 C 263.796875 125.878906 263.703125 133.261719 263.523438 140.730469 L 264.066406 141.269531 C 270.726562 141 272.164062 140.910156 279.363281 141 L 279.816406 140.371094 C 279.453125 133.078125 278.914062 122.910156 278.914062 116.699219 C 278.914062 112.648438 278.914062 106.710938 285.035156 106.710938 C 286.566406 106.710938 287.464844 107.25 288.726562 107.96875 Z M 316.175781 109.949219 C 313.113281 108.871094 310.683594 107.878906 310.683594 105.359375 C 310.683594 104.28125 311.40625 101.308594 316.984375 101.308594 C 322.476562 101.308594 325.984375 103.648438 328.234375 105.089844 L 329.046875 104.820312 L 329.945312 95.011719 L 329.496094 94.46875 C 325.265625 93.300781 321.574219 92.21875 315.726562 92.21875 C 311.316406 92.21875 302.496094 92.578125 297.816406 99.328125 C 296.644531 100.949219 295.386719 103.648438 295.386719 107.25 C 295.386719 116.878906 302.855469 119.761719 307.085938 121.378906 L 310.503906 122.640625 C 312.933594 123.449219 316.894531 124.800781 316.894531 128.039062 C 316.894531 130.289062 314.824219 132.71875 309.785156 132.71875 C 307.265625 132.71875 303.574219 131.910156 300.246094 130.199219 C 298.714844 129.390625 297.996094 128.761719 296.644531 127.679688 L 295.835938 128.039062 C 295.65625 132.71875 295.566406 133.710938 295.203125 138.210938 L 295.65625 139.019531 C 300.066406 140.640625 303.84375 142.078125 310.414062 142.078125 C 317.253906 142.078125 330.753906 140.820312 332.375 127.949219 C 332.464844 127.230469 332.464844 126.601562 332.464844 125.96875 C 332.464844 116.070312 325.535156 113.460938 320.585938 111.570312 Z M 365.585938 130.648438 C 364.054688 131.101562 362.972656 131.460938 361.445312 131.460938 C 356.855469 131.460938 356.496094 128.578125 356.3125 127.230469 C 356.042969 124.890625 356.042969 119.941406 356.132812 116.339844 L 356.3125 103.648438 L 364.414062 104.011719 L 364.953125 103.46875 L 365.855469 93.839844 L 365.3125 93.300781 L 356.3125 93.300781 L 356.585938 78.179688 L 355.953125 77.640625 C 349.835938 79.441406 348.214844 79.890625 341.824219 81.511719 L 341.464844 82.140625 L 341.554688 93.390625 L 336.695312 93.210938 L 336.15625 93.660156 L 335.34375 103.289062 L 335.882812 103.828125 L 341.554688 103.648438 L 341.285156 117.960938 C 341.195312 120.210938 341.105469 122.460938 341.105469 124.800781 C 341.105469 133.078125 341.285156 141.988281 355.324219 141.988281 C 358.835938 141.988281 361.625 141.449219 364.773438 140.910156 L 365.40625 140.28125 L 366.304688 131.011719 Z M 424.535156 102.300781 C 416.976562 99.148438 413.015625 97.53125 413.015625 93.480469 C 413.015625 90.691406 415.625 87.179688 421.566406 87.179688 C 428.40625 87.179688 432.453125 89.96875 435.785156 92.21875 L 436.59375 91.859375 L 437.316406 80.070312 L 436.863281 79.441406 C 432.996094 77.820312 428.945312 76.109375 420.214844 76.109375 C 403.296875 76.109375 397.445312 85.648438 397.445312 95.28125 C 397.445312 106.171875 405.90625 110.128906 410.945312 112.558594 L 413.914062 113.910156 C 420.125 116.519531 424.894531 118.769531 424.894531 123.539062 C 424.894531 126.960938 421.925781 131.011719 414.09375 131.011719 C 405.90625 131.011719 401.316406 127.410156 398.703125 125.339844 L 397.804688 125.609375 L 397.175781 138.300781 L 397.714844 139.019531 C 398.703125 139.378906 399.695312 139.828125 400.683594 140.101562 C 402.753906 140.820312 408.066406 142.351562 414.816406 142.351562 C 417.515625 142.351562 424.355469 142.078125 429.753906 139.558594 C 437.316406 135.871094 440.554688 129.03125 440.554688 121.378906 C 440.554688 116.25 438.574219 110.761719 433.804688 107.070312 C 431.375 105.269531 429.035156 104.191406 426.875 103.199219 Z M 489.15625 114.179688 C 489.246094 106.078125 489.246094 102.570312 486.90625 98.789062 C 485.105469 95.910156 481.507812 92.308594 469.988281 92.308594 C 462.246094 92.308594 457.476562 93.75 452.347656 95.28125 L 451.808594 96 L 451.355469 105.808594 L 452.078125 106.171875 C 455.226562 104.910156 461.078125 102.570312 467.105469 102.570312 C 470.4375 102.570312 471.785156 103.109375 472.957031 104.28125 C 473.855469 105.179688 474.128906 106.800781 474.128906 108.148438 C 463.328125 109.589844 458.285156 110.578125 452.886719 113.910156 C 447.847656 117.058594 446.136719 122.191406 446.136719 126.238281 C 446.136719 135.871094 453.066406 142.078125 461.886719 142.078125 C 468.636719 142.078125 472.507812 138.839844 474.398438 137.308594 L 474.398438 140.640625 L 474.9375 141.269531 C 481.417969 141 483.398438 140.910156 489.246094 141 L 489.695312 140.371094 C 489.066406 131.550781 489.066406 129.300781 489.066406 120.839844 L 489.15625 114.179688 M 474.308594 128.488281 C 472.417969 129.570312 469.988281 130.828125 467.015625 130.828125 C 463.777344 130.828125 461.078125 129.121094 461.078125 125.339844 C 461.078125 119.398438 468.1875 118.410156 474.308594 117.601562 Z M 543.785156 140.371094 C 543.335938 132.449219 543.335938 129.929688 543.15625 121.109375 L 543.15625 114.089844 C 543.066406 105.449219 542.976562 101.308594 540.726562 97.621094 C 537.933594 92.941406 532.804688 92.21875 529.566406 92.21875 C 524.074219 92.21875 519.304688 95.101562 515.164062 97.53125 L 515.34375 92.578125 L 514.445312 91.949219 C 507.515625 93.390625 505.984375 93.660156 499.234375 94.558594 L 498.695312 95.191406 C 499.414062 103.019531 499.957031 108.691406 499.957031 123.359375 C 499.957031 129.121094 499.863281 134.878906 499.773438 140.640625 L 500.316406 141.179688 C 506.796875 140.910156 508.144531 140.910156 515.34375 140.910156 L 515.886719 140.371094 C 515.34375 126.511719 515.253906 123 515.164062 106.890625 C 517.054688 105.628906 519.214844 104.101562 522.09375 104.101562 C 527.046875 104.101562 527.496094 109.410156 527.765625 112.648438 C 527.945312 115.621094 528.035156 127.949219 528.035156 131.371094 C 528.035156 134.429688 527.945312 137.578125 527.945312 140.640625 L 528.484375 141.179688 C 534.425781 141 535.957031 140.910156 543.15625 140.910156 Z M 606.335938 102.300781 C 598.777344 99.148438 594.816406 97.53125 594.816406 93.480469 C 594.816406 90.691406 597.425781 87.179688 603.367188 87.179688 C 610.207031 87.179688 614.253906 89.96875 617.585938 92.21875 L 618.394531 91.859375 L 619.117188 80.070312 L 618.664062 79.441406 C 614.796875 77.820312 610.746094 76.109375 602.015625 76.109375 C 585.097656 76.109375 579.246094 85.648438 579.246094 95.28125 C 579.246094 106.171875 587.707031 110.128906 592.746094 112.558594 L 595.714844 113.910156 C 601.925781 116.519531 606.695312 118.769531 606.695312 123.539062 C 606.695312 126.960938 603.726562 131.011719 595.894531 131.011719 C 587.707031 131.011719 583.117188 127.410156 580.503906 125.339844 L 579.605469 125.609375 L 578.976562 138.300781 L 579.515625 139.019531 C 580.503906 139.378906 581.496094 139.828125 582.484375 140.101562 C 584.554688 140.820312 589.867188 142.351562 596.617188 142.351562 C 599.316406 142.351562 606.15625 142.078125 611.554688 139.558594 C 619.117188 135.871094 622.355469 129.03125 622.355469 121.378906 C 622.355469 116.25 620.375 110.761719 615.605469 107.070312 C 613.175781 105.269531 610.835938 104.191406 608.675781 103.199219 Z M 647.195312 140.371094 C 646.742188 133.441406 646.382812 128.128906 646.382812 115.710938 C 646.382812 108.058594 646.5625 100.320312 646.652344 92.671875 L 646.023438 91.949219 L 630.542969 94.648438 L 630.003906 95.191406 C 630.722656 102.03125 630.992188 105.179688 630.992188 117.960938 C 630.992188 127.769531 630.722656 133.261719 630.453125 140.640625 L 630.992188 141.269531 C 637.472656 141 639.273438 140.910156 646.5625 141 L 647.195312 140.371094 M 645.753906 83.308594 L 646.023438 71.070312 L 645.484375 70.53125 L 630.8125 72.328125 L 630.273438 72.960938 C 630.453125 76.199219 630.542969 78.089844 630.542969 80.25 C 630.542969 81.960938 630.542969 83.761719 630.453125 85.46875 L 631.082031 86.011719 C 637.203125 84.929688 638.914062 84.75 645.304688 83.941406 Z M 727.476562 140.371094 C 727.023438 132 726.933594 129.660156 726.933594 119.488281 L 726.933594 112.738281 C 727.023438 106.710938 727.113281 101.128906 724.503906 97.351562 C 720.996094 92.21875 714.785156 92.21875 713.34375 92.21875 C 705.964844 92.21875 701.015625 95.550781 697.414062 98.070312 C 696.15625 96 693.90625 92.21875 686.707031 92.21875 C 680.765625 92.21875 676.894531 94.921875 672.753906 97.800781 L 672.753906 92.761719 L 671.945312 91.949219 C 664.925781 93.300781 662.945312 93.660156 656.644531 94.558594 L 656.105469 95.191406 C 656.824219 102.390625 657.363281 107.339844 657.363281 125.160156 C 657.363281 130.289062 657.273438 135.511719 657.273438 140.640625 L 657.726562 141.179688 C 663.484375 141 665.464844 140.910156 672.933594 140.910156 L 673.476562 140.371094 C 672.84375 126.511719 672.753906 122.371094 672.664062 106.710938 C 674.554688 105.359375 676.625 104.191406 678.875 104.191406 C 684.457031 104.191406 684.636719 110.578125 684.636719 118.320312 C 684.636719 131.371094 684.546875 133.351562 684.363281 140.640625 L 684.90625 141.269531 C 691.746094 140.910156 693.636719 140.910156 699.84375 140.910156 L 700.386719 140.371094 C 699.84375 131.820312 699.753906 129.300781 699.664062 118.410156 L 699.664062 115.078125 L 699.574219 105.988281 C 701.105469 105 703.085938 103.738281 705.785156 103.738281 C 710.914062 103.738281 711.726562 108.601562 711.726562 116.339844 C 711.726562 118.050781 711.636719 119.761719 711.636719 121.46875 C 711.546875 124.53125 711.457031 137.941406 711.363281 140.640625 L 711.90625 141.179688 C 718.65625 140.910156 720.636719 140.910156 726.933594 140.910156 Z M 777.785156 127.679688 C 774.367188 129.480469 770.316406 131.550781 763.746094 131.550781 C 758.347656 131.550781 754.65625 129.839844 752.496094 126.601562 C 751.144531 124.710938 750.875 122.910156 750.515625 121.109375 L 779.585938 120.570312 L 780.125 119.941406 C 780.035156 115.53125 779.945312 111.03125 778.6875 106.53125 C 775.535156 95.910156 768.605469 93.75 765.546875 93.03125 C 763.296875 92.398438 761.226562 92.21875 759.15625 92.21875 C 745.027344 92.21875 735.664062 101.488281 735.664062 117.058594 C 735.664062 121.289062 736.386719 125.699219 737.824219 128.851562 C 743.046875 141 755.285156 142.078125 761.765625 142.078125 C 769.234375 142.078125 772.476562 140.730469 777.246094 138.839844 L 777.785156 138.121094 L 778.414062 127.949219 L 777.785156 127.679688 M 750.515625 111.570312 C 750.785156 108.78125 751.414062 105 754.835938 102.839844 C 755.914062 102.121094 757.175781 101.851562 758.4375 101.851562 C 761.40625 101.851562 763.207031 103.378906 764.195312 105 C 765.457031 106.980469 765.546875 109.140625 765.546875 111.210938 Z M 834.214844 117.058594 C 834.214844 113.550781 834.214844 98.96875 821.613281 94.019531 C 817.652344 92.488281 812.972656 92.308594 810.632812 92.308594 C 794.972656 92.308594 786.152344 100.679688 786.152344 117.238281 C 786.152344 123 787.054688 128.851562 790.382812 133.710938 C 792.722656 137.21875 797.132812 142.078125 810.003906 142.078125 C 829.082031 142.078125 834.214844 130.558594 834.214844 117.058594 M 818.644531 116.96875 C 818.644531 124.351562 817.652344 132.539062 810.183594 132.539062 C 807.84375 132.539062 806.222656 131.460938 805.144531 130.46875 C 803.613281 128.941406 801.902344 125.878906 801.902344 117.148438 C 801.902344 114.539062 801.902344 108.78125 803.703125 105.628906 C 805.054688 103.199219 807.394531 101.578125 810.273438 101.578125 C 812.792969 101.578125 814.863281 102.929688 816.035156 104.371094 C 818.195312 106.980469 818.644531 112.109375 818.644531 116.96875 Z M 886.867188 140.371094 C 886.417969 132.449219 886.417969 129.929688 886.238281 121.109375 L 886.238281 114.089844 C 886.148438 105.449219 886.058594 101.308594 883.808594 97.621094 C 881.015625 92.941406 875.886719 92.21875 872.648438 92.21875 C 867.15625 92.21875 862.386719 95.101562 858.246094 97.53125 L 858.425781 92.578125 L 857.527344 91.949219 C 850.597656 93.390625 849.066406 93.660156 842.316406 94.558594 L 841.777344 95.191406 C 842.496094 103.019531 843.039062 108.691406 843.039062 123.359375 C 843.039062 129.121094 842.945312 134.878906 842.855469 140.640625 L 843.398438 141.179688 C 849.878906 140.910156 851.226562 140.910156 858.425781 140.910156 L 858.96875 140.371094 C 858.425781 126.511719 858.335938 123 858.246094 106.890625 C 860.136719 105.628906 862.296875 104.101562 865.175781 104.101562 C 870.128906 104.101562 870.578125 109.410156 870.847656 112.648438 C 871.027344 115.621094 871.117188 127.949219 871.117188 131.371094 C 871.117188 134.429688 871.027344 137.578125 871.027344 140.640625 L 871.566406 141.179688 C 877.507812 141 879.039062 140.910156 886.238281 140.910156 Z M 891.726562 141 "/>
<path fill-rule="nonzero" fill="rgb(34.901961%, 14.901961%, 14.901961%)" fill-opacity="1" d="M 200.976562 222.300781 C 193.417969 219.148438 189.457031 217.53125 189.457031 213.480469 C 189.457031 210.691406 192.066406 207.179688 198.007812 207.179688 C 204.847656 207.179688 208.894531 209.96875 212.226562 212.21875 L 213.035156 211.859375 L 213.757812 200.070312 L 213.304688 199.441406 C 209.4375 197.820312 205.386719 196.109375 196.65625 196.109375 C 179.738281 196.109375 173.886719 205.648438 173.886719 215.28125 C 173.886719 226.171875 182.347656 230.128906 187.386719 232.558594 L 190.355469 233.910156 C 196.566406 236.519531 201.335938 238.769531 201.335938 243.539062 C 201.335938 246.960938 198.367188 251.011719 190.535156 251.011719 C 182.347656 251.011719 177.757812 247.410156 175.144531 245.339844 L 174.246094 245.609375 L 173.617188 258.300781 L 174.15625 259.019531 C 175.144531 259.378906 176.136719 259.828125 177.125 260.101562 C 179.195312 260.820312 184.507812 262.351562 191.257812 262.351562 C 193.957031 262.351562 200.796875 262.078125 206.195312 259.558594 C 213.757812 255.871094 216.996094 249.03125 216.996094 241.378906 C 216.996094 236.25 215.015625 230.761719 210.246094 227.070312 C 207.816406 225.269531 205.476562 224.191406 203.316406 223.199219 Z M 250.746094 250.648438 C 249.214844 251.101562 248.132812 251.460938 246.605469 251.460938 C 242.015625 251.460938 241.65625 248.578125 241.472656 247.230469 C 241.203125 244.890625 241.203125 239.941406 241.292969 236.339844 L 241.472656 223.648438 L 249.574219 224.011719 L 250.113281 223.46875 L 251.015625 213.839844 L 250.472656 213.300781 L 241.472656 213.300781 L 241.746094 198.179688 L 241.113281 197.640625 C 234.996094 199.441406 233.375 199.890625 226.984375 201.511719 L 226.625 202.140625 L 226.714844 213.390625 L 221.855469 213.210938 L 221.316406 213.660156 L 220.503906 223.289062 L 221.042969 223.828125 L 226.714844 223.648438 L 226.445312 237.960938 C 226.355469 240.210938 226.265625 242.460938 226.265625 244.800781 C 226.265625 253.078125 226.445312 261.988281 240.484375 261.988281 C 243.996094 261.988281 246.785156 261.449219 249.933594 260.910156 L 250.566406 260.28125 L 251.464844 251.011719 Z M 297.457031 234.179688 C 297.546875 226.078125 297.546875 222.570312 295.207031 218.789062 C 293.40625 215.910156 289.808594 212.308594 278.289062 212.308594 C 270.546875 212.308594 265.777344 213.75 260.648438 215.28125 L 260.109375 216 L 259.65625 225.808594 L 260.378906 226.171875 C 263.527344 224.910156 269.378906 222.570312 275.40625 222.570312 C 278.738281 222.570312 280.085938 223.109375 281.257812 224.28125 C 282.15625 225.179688 282.429688 226.800781 282.429688 228.148438 C 271.628906 229.589844 266.585938 230.578125 261.1875 233.910156 C 256.148438 237.058594 254.4375 242.191406 254.4375 246.238281 C 254.4375 255.871094 261.367188 262.078125 270.1875 262.078125 C 276.9375 262.078125 280.808594 258.839844 282.699219 257.308594 L 282.699219 260.640625 L 283.238281 261.269531 C 289.71875 261 291.699219 260.910156 297.546875 261 L 297.996094 260.371094 C 297.367188 251.550781 297.367188 249.300781 297.367188 240.839844 L 297.457031 234.179688 M 282.609375 248.488281 C 280.71875 249.570312 278.289062 250.828125 275.316406 250.828125 C 272.078125 250.828125 269.378906 249.121094 269.378906 245.339844 C 269.378906 239.398438 276.488281 238.410156 282.609375 237.601562 Z M 333.1875 250.648438 C 331.65625 251.101562 330.574219 251.460938 329.046875 251.460938 C 324.457031 251.460938 324.097656 248.578125 323.914062 247.230469 C 323.644531 244.890625 323.644531 239.941406 323.734375 236.339844 L 323.914062 223.648438 L 332.015625 224.011719 L 332.554688 223.46875 L 333.457031 213.839844 L 332.914062 213.300781 L 323.914062 213.300781 L 324.1875 198.179688 L 323.554688 197.640625 C 317.4375 199.441406 315.816406 199.890625 309.425781 201.511719 L 309.066406 202.140625 L 309.15625 213.390625 L 304.296875 213.210938 L 303.757812 213.660156 L 302.945312 223.289062 L 303.484375 223.828125 L 309.15625 223.648438 L 308.886719 237.960938 C 308.796875 240.210938 308.707031 242.460938 308.707031 244.800781 C 308.707031 253.078125 308.886719 261.988281 322.925781 261.988281 C 326.4375 261.988281 329.226562 261.449219 332.375 260.910156 L 333.007812 260.28125 L 333.90625 251.011719 Z M 379.804688 247.679688 C 376.386719 249.480469 372.335938 251.550781 365.765625 251.550781 C 360.367188 251.550781 356.675781 249.839844 354.515625 246.601562 C 353.164062 244.710938 352.894531 242.910156 352.535156 241.109375 L 381.605469 240.570312 L 382.144531 239.941406 C 382.054688 235.53125 381.964844 231.03125 380.707031 226.53125 C 377.554688 215.910156 370.625 213.75 367.566406 213.03125 C 365.316406 212.398438 363.246094 212.21875 361.175781 212.21875 C 347.046875 212.21875 337.683594 221.488281 337.683594 237.058594 C 337.683594 241.289062 338.40625 245.699219 339.84375 248.851562 C 345.066406 261 357.304688 262.078125 363.785156 262.078125 C 371.253906 262.078125 374.496094 260.730469 379.265625 258.839844 L 379.804688 258.121094 L 380.433594 247.949219 L 379.804688 247.679688 M 352.535156 231.570312 C 352.804688 228.78125 353.433594 225 356.855469 222.839844 C 357.933594 222.121094 359.195312 221.851562 360.457031 221.851562 C 363.425781 221.851562 365.226562 223.378906 366.214844 225 C 367.476562 226.980469 367.566406 229.140625 367.566406 231.210938 Z M 470.613281 197.191406 C 463.414062 197.460938 462.246094 197.460938 454.683594 197.460938 L 454.234375 198 C 454.863281 208.171875 454.863281 210.78125 454.953125 221.398438 C 450.996094 221.488281 447.035156 221.578125 442.984375 221.578125 C 439.835938 221.578125 436.59375 221.488281 433.445312 221.488281 L 433.625 197.730469 L 433.175781 197.191406 C 426.246094 197.460938 424.894531 197.460938 417.066406 197.460938 L 416.523438 198 C 416.976562 207.269531 417.515625 218.339844 417.515625 240.660156 C 417.515625 248.761719 417.335938 253.171875 417.15625 260.730469 L 417.605469 261.269531 C 424.175781 261 425.792969 260.910156 433.714844 261 L 434.164062 260.460938 C 433.625 249.300781 433.535156 246.058594 433.445312 233.011719 C 437.40625 232.828125 440.734375 232.738281 444.246094 232.738281 C 447.84375 232.738281 451.445312 232.828125 455.042969 232.921875 C 455.226562 245.070312 455.226562 248.039062 454.773438 260.730469 L 455.226562 261.269531 C 461.976562 261 463.773438 260.910156 471.425781 261 L 471.875 260.460938 C 471.15625 245.339844 470.882812 230.308594 470.882812 215.191406 C 470.882812 208.890625 470.976562 204.660156 471.066406 197.730469 Z M 498.609375 260.371094 C 498.15625 253.441406 497.796875 248.128906 497.796875 235.710938 C 497.796875 228.058594 497.976562 220.320312 498.066406 212.671875 L 497.4375 211.949219 L 481.957031 214.648438 L 481.417969 215.191406 C 482.136719 222.03125 482.40625 225.179688 482.40625 237.960938 C 482.40625 247.769531 482.136719 253.261719 481.867188 260.640625 L 482.40625 261.269531 C 488.886719 261 490.6875 260.910156 497.976562 261 L 498.609375 260.371094 M 497.167969 203.308594 L 497.4375 191.070312 L 496.898438 190.53125 L 482.226562 192.328125 L 481.6875 192.960938 C 481.867188 196.199219 481.957031 198.089844 481.957031 200.25 C 481.957031 201.960938 481.957031 203.761719 481.867188 205.46875 L 482.496094 206.011719 C 488.617188 204.929688 490.328125 204.75 496.71875 203.941406 Z M 527.496094 229.949219 C 524.433594 228.871094 522.003906 227.878906 522.003906 225.359375 C 522.003906 224.28125 522.726562 221.308594 528.304688 221.308594 C 533.796875 221.308594 537.304688 223.648438 539.554688 225.089844 L 540.367188 224.820312 L 541.265625 215.011719 L 540.816406 214.46875 C 536.585938 213.300781 532.894531 212.21875 527.046875 212.21875 C 522.636719 212.21875 513.816406 212.578125 509.136719 219.328125 C 507.964844 220.949219 506.707031 223.648438 506.707031 227.25 C 506.707031 236.878906 514.175781 239.761719 518.40625 241.378906 L 521.824219 242.640625 C 524.253906 243.449219 528.214844 244.800781 528.214844 248.039062 C 528.214844 250.289062 526.144531 252.71875 521.105469 252.71875 C 518.585938 252.71875 514.894531 251.910156 511.566406 250.199219 C 510.035156 249.390625 509.316406 248.761719 507.964844 247.679688 L 507.15625 248.039062 C 506.976562 252.71875 506.886719 253.710938 506.523438 258.210938 L 506.976562 259.019531 C 511.386719 260.640625 515.164062 262.078125 521.734375 262.078125 C 528.574219 262.078125 542.074219 260.820312 543.695312 247.949219 C 543.785156 247.230469 543.785156 246.601562 543.785156 245.96875 C 543.785156 236.070312 536.855469 233.460938 531.90625 231.570312 Z M 576.90625 250.648438 C 575.375 251.101562 574.292969 251.460938 572.765625 251.460938 C 568.175781 251.460938 567.816406 248.578125 567.632812 247.230469 C 567.363281 244.890625 567.363281 239.941406 567.453125 236.339844 L 567.632812 223.648438 L 575.734375 224.011719 L 576.273438 223.46875 L 577.175781 213.839844 L 576.632812 213.300781 L 567.632812 213.300781 L 567.90625 198.179688 L 567.273438 197.640625 C 561.15625 199.441406 559.535156 199.890625 553.144531 201.511719 L 552.785156 202.140625 L 552.875 213.390625 L 548.015625 213.210938 L 547.476562 213.660156 L 546.664062 223.289062 L 547.203125 223.828125 L 552.875 223.648438 L 552.605469 237.960938 C 552.515625 240.210938 552.425781 242.460938 552.425781 244.800781 C 552.425781 253.078125 552.605469 261.988281 566.644531 261.988281 C 570.15625 261.988281 572.945312 261.449219 576.09375 260.910156 L 576.726562 260.28125 L 577.625 251.011719 Z M 629.378906 237.058594 C 629.378906 233.550781 629.378906 218.96875 616.777344 214.019531 C 612.816406 212.488281 608.136719 212.308594 605.796875 212.308594 C 590.136719 212.308594 581.316406 220.679688 581.316406 237.238281 C 581.316406 243 582.21875 248.851562 585.546875 253.710938 C 587.886719 257.21875 592.296875 262.078125 605.167969 262.078125 C 624.246094 262.078125 629.378906 250.558594 629.378906 237.058594 M 613.808594 236.96875 C 613.808594 244.351562 612.816406 252.539062 605.347656 252.539062 C 603.007812 252.539062 601.386719 251.460938 600.308594 250.46875 C 598.777344 248.941406 597.066406 245.878906 597.066406 237.148438 C 597.066406 234.539062 597.066406 228.78125 598.867188 225.628906 C 600.21875 223.199219 602.558594 221.578125 605.4375 221.578125 C 607.957031 221.578125 610.027344 222.929688 611.199219 224.371094 C 613.359375 226.980469 613.808594 232.109375 613.808594 236.96875 Z M 663.9375 227.609375 L 666.457031 212.941406 L 665.917969 212.308594 C 665.289062 212.308594 664.65625 212.21875 664.027344 212.21875 C 660.335938 212.21875 656.199219 214.289062 653.316406 220.949219 L 653.585938 212.671875 L 652.867188 211.949219 C 646.207031 213.390625 644.496094 213.660156 637.925781 214.648438 L 637.386719 215.191406 C 637.925781 221.941406 638.199219 225.988281 638.199219 238.5 C 638.199219 245.878906 638.105469 253.261719 637.925781 260.730469 L 638.46875 261.269531 C 645.128906 261 646.566406 260.910156 653.765625 261 L 654.21875 260.371094 C 653.855469 253.078125 653.316406 242.910156 653.316406 236.699219 C 653.316406 232.648438 653.316406 226.710938 659.4375 226.710938 C 660.96875 226.710938 661.867188 227.25 663.128906 227.96875 Z M 687.96875 260.371094 C 687.515625 253.441406 687.15625 248.128906 687.15625 235.710938 C 687.15625 228.058594 687.335938 220.320312 687.425781 212.671875 L 686.796875 211.949219 L 671.316406 214.648438 L 670.777344 215.191406 C 671.496094 222.03125 671.765625 225.179688 671.765625 237.960938 C 671.765625 247.769531 671.496094 253.261719 671.226562 260.640625 L 671.765625 261.269531 C 678.246094 261 680.046875 260.910156 687.335938 261 L 687.96875 260.371094 M 686.527344 203.308594 L 686.796875 191.070312 L 686.257812 190.53125 L 671.585938 192.328125 L 671.046875 192.960938 C 671.226562 196.199219 671.316406 198.089844 671.316406 200.25 C 671.316406 201.960938 671.316406 203.761719 671.226562 205.46875 L 671.855469 206.011719 C 677.976562 204.929688 679.6875 204.75 686.078125 203.941406 Z M 733.144531 248.039062 C 730.714844 249.480469 728.375 250.921875 723.785156 250.921875 C 713.613281 250.921875 711.542969 242.460938 711.542969 237.058594 C 711.542969 230.488281 714.425781 222.929688 723.15625 222.929688 C 727.113281 222.929688 729.273438 224.371094 731.976562 226.171875 L 732.875 225.898438 C 733.234375 221.128906 733.324219 219.871094 734.042969 215.101562 L 733.59375 214.558594 C 729.632812 213.300781 726.214844 212.21875 720.996094 212.21875 C 699.84375 212.21875 695.703125 228.238281 695.703125 237.421875 C 695.703125 247.769531 701.105469 261.808594 721.355469 261.808594 C 726.125 261.808594 729.183594 260.910156 732.964844 259.828125 L 733.503906 259.289062 L 733.863281 248.488281 Z M 781.117188 234.179688 C 781.207031 226.078125 781.207031 222.570312 778.867188 218.789062 C 777.066406 215.910156 773.46875 212.308594 761.949219 212.308594 C 754.207031 212.308594 749.4375 213.75 744.308594 215.28125 L 743.769531 216 L 743.316406 225.808594 L 744.039062 226.171875 C 747.1875 224.910156 753.039062 222.570312 759.066406 222.570312 C 762.398438 222.570312 763.746094 223.109375 764.917969 224.28125 C 765.816406 225.179688 766.089844 226.800781 766.089844 228.148438 C 755.289062 229.589844 750.246094 230.578125 744.847656 233.910156 C 739.808594 237.058594 738.097656 242.191406 738.097656 246.238281 C 738.097656 255.871094 745.027344 262.078125 753.847656 262.078125 C 760.597656 262.078125 764.46875 258.839844 766.359375 257.308594 L 766.359375 260.640625 L 766.898438 261.269531 C 773.378906 261 775.359375 260.910156 781.207031 261 L 781.65625 260.371094 C 781.027344 251.550781 781.027344 249.300781 781.027344 240.839844 L 781.117188 234.179688 M 766.269531 248.488281 C 764.378906 249.570312 761.949219 250.828125 758.976562 250.828125 C 755.738281 250.828125 753.039062 249.121094 753.039062 245.339844 C 753.039062 239.398438 760.148438 238.410156 766.269531 237.601562 Z M 807.484375 260.371094 C 807.035156 250.019531 806.585938 240.570312 806.585938 212.128906 C 806.585938 203.578125 806.675781 199.53125 807.035156 189.808594 L 806.40625 189.179688 L 791.015625 191.609375 L 790.65625 192.148438 C 791.554688 203.128906 791.644531 206.101562 791.824219 220.679688 C 791.917969 225.988281 791.917969 231.300781 791.917969 236.609375 C 791.917969 246.328125 791.734375 251.730469 791.375 260.640625 L 791.917969 261.269531 C 797.945312 261 800.375 260.910156 806.945312 261 Z M 812.527344 261 "/>
<path fill-rule="nonzero" fill="rgb(34.901961%, 14.901961%, 14.901961%)" fill-opacity="1" d="M 331.925781 317.191406 C 322.566406 317.460938 321.035156 317.460938 311.046875 317.460938 L 310.507812 318 L 306.367188 332.578125 L 302.765625 345.628906 L 298.535156 361.289062 L 294.574219 345.179688 L 292.054688 335.011719 L 287.554688 317.730469 L 287.105469 317.191406 C 277.476562 317.460938 275.855469 317.460938 265.777344 317.460938 L 265.234375 318 C 264.335938 344.910156 263.976562 351.839844 261.996094 380.730469 L 262.445312 381.269531 C 268.207031 381 269.917969 380.910156 275.136719 381 L 275.675781 380.460938 L 275.945312 363.269531 L 276.484375 345.808594 L 276.847656 328.800781 L 280.804688 344.730469 L 284.226562 357.511719 L 290.257812 380.730469 L 290.796875 381.269531 C 296.375 381 297.90625 380.910156 304.207031 381 L 304.746094 380.460938 L 309.964844 361.289062 L 313.566406 348.148438 L 318.605469 329.25 L 318.605469 345.359375 L 318.785156 359.128906 L 318.785156 380.730469 L 319.234375 381.269531 C 325.445312 381 327.875 380.910156 334.804688 381 L 335.257812 380.460938 C 334.714844 370.199219 334.085938 359.851562 333.726562 349.5 C 333.457031 343.828125 333.277344 338.160156 333.007812 332.488281 C 332.554688 324.121094 332.464844 323.039062 332.464844 317.730469 Z M 391.238281 357.058594 C 391.238281 353.550781 391.238281 338.96875 378.636719 334.019531 C 374.675781 332.488281 369.996094 332.308594 367.65625 332.308594 C 351.996094 332.308594 343.175781 340.679688 343.175781 357.238281 C 343.175781 363 344.078125 368.851562 347.40625 373.710938 C 349.746094 377.21875 354.15625 382.078125 367.027344 382.078125 C 386.105469 382.078125 391.238281 370.558594 391.238281 357.058594 M 375.667969 356.96875 C 375.667969 364.351562 374.675781 372.539062 367.207031 372.539062 C 364.867188 372.539062 363.246094 371.460938 362.167969 370.46875 C 360.636719 368.941406 358.925781 365.878906 358.925781 357.148438 C 358.925781 354.539062 358.925781 348.78125 360.726562 345.628906 C 362.078125 343.199219 364.417969 341.578125 367.296875 341.578125 C 369.816406 341.578125 371.886719 342.929688 373.058594 344.371094 C 375.21875 346.980469 375.667969 352.109375 375.667969 356.96875 Z M 443.886719 380.371094 C 443.4375 372.449219 443.4375 369.929688 443.257812 361.109375 L 443.257812 354.089844 C 443.167969 345.449219 443.078125 341.308594 440.828125 337.621094 C 438.035156 332.941406 432.90625 332.21875 429.667969 332.21875 C 424.175781 332.21875 419.40625 335.101562 415.265625 337.53125 L 415.445312 332.578125 L 414.546875 331.949219 C 407.617188 333.390625 406.085938 333.660156 399.335938 334.558594 L 398.796875 335.191406 C 399.515625 343.019531 400.058594 348.691406 400.058594 363.359375 C 400.058594 369.121094 399.964844 374.878906 399.875 380.640625 L 400.417969 381.179688 C 406.898438 380.910156 408.246094 380.910156 415.445312 380.910156 L 415.988281 380.371094 C 415.445312 366.511719 415.355469 363 415.265625 346.890625 C 417.15625 345.628906 419.316406 344.101562 422.195312 344.101562 C 427.148438 344.101562 427.597656 349.410156 427.867188 352.648438 C 428.046875 355.621094 428.136719 367.949219 428.136719 371.371094 C 428.136719 374.429688 428.046875 377.578125 428.046875 380.640625 L 428.585938 381.179688 C 434.527344 381 436.058594 380.910156 443.257812 380.910156 Z M 497.347656 332.851562 L 482.675781 333.570312 L 482.046875 334.109375 C 482.675781 344.28125 482.675781 358.679688 482.675781 360.121094 C 482.675781 362.730469 482.675781 364.171875 482.585938 367.769531 C 480.15625 369.390625 478.265625 370.738281 475.835938 370.738281 C 469.355469 370.738281 469.355469 363.898438 469.355469 358.589844 C 469.355469 356.339844 469.355469 354 469.445312 351.75 L 469.625 333.570312 L 468.996094 332.851562 L 454.144531 333.570312 L 453.515625 334.109375 C 454.054688 341.671875 454.144531 344.191406 454.144531 353.28125 L 454.144531 359.578125 C 454.054688 369.390625 454.507812 373.53125 457.746094 377.308594 C 460.714844 380.640625 465.035156 382.078125 469.535156 382.078125 C 475.925781 382.078125 479.617188 379.199219 482.855469 376.679688 L 482.765625 380.730469 L 483.394531 381.269531 C 489.964844 381 491.945312 381 497.796875 381 L 498.335938 380.460938 C 497.886719 374.070312 497.707031 370.648438 497.707031 358.949219 C 497.707031 350.488281 497.796875 342.03125 497.976562 333.570312 Z M 578.796875 380.371094 C 578.34375 372 578.253906 369.660156 578.253906 359.488281 L 578.253906 352.738281 C 578.34375 346.710938 578.433594 341.128906 575.824219 337.351562 C 572.316406 332.21875 566.105469 332.21875 564.664062 332.21875 C 557.285156 332.21875 552.335938 335.550781 548.734375 338.070312 C 547.476562 336 545.226562 332.21875 538.027344 332.21875 C 532.085938 332.21875 528.214844 334.921875 524.074219 337.800781 L 524.074219 332.761719 L 523.265625 331.949219 C 516.246094 333.300781 514.265625 333.660156 507.964844 334.558594 L 507.425781 335.191406 C 508.144531 342.390625 508.683594 347.339844 508.683594 365.160156 C 508.683594 370.289062 508.59375 375.511719 508.59375 380.640625 L 509.046875 381.179688 C 514.804688 381 516.785156 380.910156 524.253906 380.910156 L 524.796875 380.371094 C 524.164062 366.511719 524.074219 362.371094 523.984375 346.710938 C 525.875 345.359375 527.945312 344.191406 530.195312 344.191406 C 535.777344 344.191406 535.957031 350.578125 535.957031 358.320312 C 535.957031 371.371094 535.867188 373.351562 535.683594 380.640625 L 536.226562 381.269531 C 543.066406 380.910156 544.957031 380.910156 551.164062 380.910156 L 551.707031 380.371094 C 551.164062 371.820312 551.074219 369.300781 550.984375 358.410156 L 550.984375 355.078125 L 550.894531 345.988281 C 552.425781 345 554.40625 343.738281 557.105469 343.738281 C 562.234375 343.738281 563.046875 348.601562 563.046875 356.339844 C 563.046875 358.050781 562.957031 359.761719 562.957031 361.46875 C 562.867188 364.53125 562.777344 377.941406 562.683594 380.640625 L 563.226562 381.179688 C 569.976562 380.910156 571.957031 380.910156 578.253906 380.910156 Z M 629.105469 367.679688 C 625.6875 369.480469 621.636719 371.550781 615.066406 371.550781 C 609.667969 371.550781 605.976562 369.839844 603.816406 366.601562 C 602.464844 364.710938 602.195312 362.910156 601.835938 361.109375 L 630.90625 360.570312 L 631.445312 359.941406 C 631.355469 355.53125 631.265625 351.03125 630.007812 346.53125 C 626.855469 335.910156 619.925781 333.75 616.867188 333.03125 C 614.617188 332.398438 612.546875 332.21875 610.476562 332.21875 C 596.347656 332.21875 586.984375 341.488281 586.984375 357.058594 C 586.984375 361.289062 587.707031 365.699219 589.144531 368.851562 C 594.367188 381 606.605469 382.078125 613.085938 382.078125 C 620.554688 382.078125 623.796875 380.730469 628.566406 378.839844 L 629.105469 378.121094 L 629.734375 367.949219 L 629.105469 367.679688 M 601.835938 351.570312 C 602.105469 348.78125 602.734375 345 606.15625 342.839844 C 607.234375 342.121094 608.496094 341.851562 609.757812 341.851562 C 612.726562 341.851562 614.527344 343.378906 615.515625 345 C 616.777344 346.980469 616.867188 349.140625 616.867188 351.210938 Z M 683.824219 380.371094 C 683.375 372.449219 683.375 369.929688 683.195312 361.109375 L 683.195312 354.089844 C 683.105469 345.449219 683.015625 341.308594 680.765625 337.621094 C 677.972656 332.941406 672.84375 332.21875 669.605469 332.21875 C 664.113281 332.21875 659.34375 335.101562 655.203125 337.53125 L 655.382812 332.578125 L 654.484375 331.949219 C 647.554688 333.390625 646.023438 333.660156 639.273438 334.558594 L 638.734375 335.191406 C 639.453125 343.019531 639.996094 348.691406 639.996094 363.359375 C 639.996094 369.121094 639.902344 374.878906 639.8125 380.640625 L 640.355469 381.179688 C 646.835938 380.910156 648.183594 380.910156 655.382812 380.910156 L 655.925781 380.371094 C 655.382812 366.511719 655.292969 363 655.203125 346.890625 C 657.09375 345.628906 659.253906 344.101562 662.132812 344.101562 C 667.085938 344.101562 667.535156 349.410156 667.804688 352.648438 C 667.984375 355.621094 668.074219 367.949219 668.074219 371.371094 C 668.074219 374.429688 667.984375 377.578125 667.984375 380.640625 L 668.523438 381.179688 C 674.464844 381 675.996094 380.910156 683.195312 380.910156 Z M 719.289062 370.648438 C 717.757812 371.101562 716.675781 371.460938 715.148438 371.460938 C 710.558594 371.460938 710.199219 368.578125 710.015625 367.230469 C 709.746094 364.890625 709.746094 359.941406 709.835938 356.339844 L 710.015625 343.648438 L 718.117188 344.011719 L 718.65625 343.46875 L 719.558594 333.839844 L 719.015625 333.300781 L 710.015625 333.300781 L 710.289062 318.179688 L 709.65625 317.640625 C 703.539062 319.441406 701.917969 319.890625 695.527344 321.511719 L 695.167969 322.140625 L 695.257812 333.390625 L 690.398438 333.210938 L 689.859375 333.660156 L 689.046875 343.289062 L 689.585938 343.828125 L 695.257812 343.648438 L 694.988281 357.960938 C 694.898438 360.210938 694.808594 362.460938 694.808594 364.800781 C 694.808594 373.078125 694.988281 381.988281 709.027344 381.988281 C 712.539062 381.988281 715.328125 381.449219 718.476562 380.910156 L 719.109375 380.28125 L 720.007812 371.011719 Z M 720.546875 381 "/>
</svg>
