<?xml version="1.0" encoding="UTF-8"?>
<svg xmlns="http://www.w3.org/2000/svg" xmlns:xlink="http://www.w3.org/1999/xlink" width="975" height="1300" viewBox="0 0 975 1300">
<path fill-rule="nonzero" fill="rgb(98.823529%, 78.823529%, 9.019608%)" fill-opacity="1" d="M 50 50 L 925 50 L 925 290 L 50 290 Z M 50 50 "/>
<path fill-rule="nonzero" fill="rgb(34.901961%, 14.901961%, 14.901961%)" fill-opacity="1" d="M 137.074219 102.300781 C 129.515625 99.148438 125.554688 97.53125 125.554688 93.480469 C 125.554688 90.691406 128.164062 87.179688 134.105469 87.179688 C 140.945312 87.179688 144.992188 89.96875 148.324219 92.21875 L 149.132812 91.859375 L 149.855469 80.070312 L 149.402344 79.441406 C 145.535156 77.820312 141.484375 76.109375 132.753906 76.109375 C 115.835938 76.109375 109.984375 85.648438 109.984375 95.28125 C 109.984375 106.171875 118.445312 110.128906 123.484375 112.558594 L 126.453125 113.910156 C 132.664062 116.519531 137.433594 118.769531 137.433594 123.539062 C 137.433594 126.960938 134.464844 131.011719 126.632812 131.011719 C 118.445312 131.011719 113.855469 127.410156 111.242188 125.339844 L 110.34375 125.609375 L 109.714844 138.300781 L 110.253906 139.019531 C 111.242188 139.378906 112.234375 139.828125 113.222656 140.101562 C 115.292969 140.820312 120.605469 142.351562 127.355469 142.351562 C 130.054688 142.351562 136.894531 142.078125 142.292969 139.558594 C 149.855469 135.871094 153.09375 129.03125 153.09375 121.378906 C 153.09375 116.25 151.113281 110.761719 146.34375 107.070312 C 143.914062 105.269531 141.574219 104.191406 139.414062 103.199219 Z M 201.691406 114.179688 C 201.78125 106.078125 201.78125 102.570312 199.441406 98.789062 C 197.640625 95.910156 194.042969 92.308594 182.523438 92.308594 C 174.78125 92.308594 170.011719 93.75 164.882812 95.28125 L 164.34375 96 L 163.890625 105.808594 L 164.613281 106.171875 C 167.761719 104.910156 173.613281 102.570312 179.640625 102.570312 C 182.972656 102.570312 184.320312 103.109375 185.492188 104.28125 C 186.390625 105.179688 186.664062 106.800781 186.664062 108.148438 C 175.863281 109.589844 170.820312 110.578125 165.421875 113.910156 C 160.382812 117.058594 158.671875 122.191406 158.671875 126.238281 C 158.671875 135.871094 165.601562 142.078125 174.421875 142.078125 C 181.171875 142.078125 185.042969 138.839844 186.933594 137.308594 L 186.933594 140.640625 L 187.472656 141.269531 C 193.953125 141 195.933594 140.910156 201.78125 141 L 202.230469 140.371094 C 201.601562 131.550781 201.601562 129.300781 201.601562 120.839844 L 201.691406 114.179688 M 186.84375 128.488281 C 184.953125 129.570312 182.523438 130.828125 179.550781 130.828125 C 176.3125 130.828125 173.613281 129.121094 173.613281 125.339844 C 173.613281 119.398438 180.722656 118.410156 186.84375 117.601562 Z M 256.324219 140.371094 C 255.875 132.449219 255.875 129.929688 255.695312 121.109375 L 255.695312 114.089844 C 255.605469 105.449219 255.515625 101.308594 253.265625 97.621094 C 250.472656 92.941406 245.34375 92.21875 242.105469 92.21875 C 236.613281 92.21875 231.84375 95.101562 227.703125 97.53125 L 227.882812 92.578125 L 226.984375 91.949219 C 220.054688 93.390625 218.523438 93.660156 211.773438 94.558594 L 211.234375 95.191406 C 211.953125 103.019531 212.496094 108.691406 212.496094 123.359375 C 212.496094 129.121094 212.402344 134.878906 212.3125 140.640625 L 212.855469 141.179688 C 219.335938 140.910156 220.683594 140.910156 227.882812 140.910156 L 228.425781 140.371094 C 227.882812 126.511719 227.792969 123 227.703125 106.890625 C 229.59375 105.628906 231.753906 104.101562 234.632812 104.101562 C 239.585938 104.101562 240.035156 109.410156 240.304688 112.648438 C 240.484375 115.621094 240.574219 127.949219 240.574219 131.371094 C 240.574219 134.429688 240.484375 137.578125 240.484375 140.640625 L 241.023438 141.179688 C 246.964844 141 248.496094 140.910156 255.695312 140.910156 Z M 309.605469 141 C 317.976562 141.179688 328.324219 141.359375 335.074219 136.679688 C 341.015625 132.449219 342.636719 126.511719 342.636719 121.46875 C 342.636719 115.710938 340.203125 110.398438 335.074219 107.878906 C 333.363281 106.980469 331.386719 106.621094 329.496094 106.261719 C 332.554688 105 336.15625 103.378906 338.496094 98.609375 C 339.484375 96.539062 339.933594 94.378906 339.933594 92.308594 C 339.933594 89.429688 339.214844 85.46875 336.335938 82.230469 C 332.554688 78.179688 326.703125 77.101562 317.886719 77.101562 C 314.824219 77.101562 309.335938 77.191406 306.273438 77.28125 L 293.675781 77.460938 L 293.136719 78 C 293.496094 86.640625 293.585938 89.96875 293.585938 102.390625 C 293.585938 115.171875 293.496094 127.859375 293.316406 140.640625 L 293.945312 141 L 309.605469 141 M 308.976562 113.640625 C 315.816406 113.460938 319.773438 113.460938 322.386719 114.988281 C 324.996094 116.609375 325.984375 119.488281 325.984375 122.371094 C 325.984375 126.421875 323.734375 128.941406 320.40625 130.109375 C 317.703125 131.011719 312.84375 131.011719 308.976562 130.921875 L 308.976562 113.640625 M 308.976562 87.179688 C 310.863281 87.179688 313.386719 87.089844 314.914062 87.089844 C 319.773438 87.089844 324.183594 88.800781 324.183594 94.648438 C 324.183594 99.421875 320.675781 101.398438 319.59375 101.941406 C 317.34375 102.929688 312.574219 102.929688 308.976562 102.929688 Z M 394.207031 92.851562 L 379.535156 93.570312 L 378.90625 94.109375 C 379.535156 104.28125 379.535156 118.679688 379.535156 120.121094 C 379.535156 122.730469 379.535156 124.171875 379.445312 127.769531 C 377.015625 129.390625 375.125 130.738281 372.695312 130.738281 C 366.214844 130.738281 366.214844 123.898438 366.214844 118.589844 C 366.214844 116.339844 366.214844 114 366.304688 111.75 L 366.484375 93.570312 L 365.855469 92.851562 L 351.003906 93.570312 L 350.375 94.109375 C 350.914062 101.671875 351.003906 104.191406 351.003906 113.28125 L 351.003906 119.578125 C 350.914062 129.390625 351.367188 133.53125 354.605469 137.308594 C 357.574219 140.640625 361.894531 142.078125 366.394531 142.078125 C 372.785156 142.078125 376.476562 139.199219 379.714844 136.679688 L 379.625 140.730469 L 380.253906 141.269531 C 386.824219 141 388.804688 141 394.65625 141 L 395.195312 140.460938 C 394.746094 134.070312 394.566406 130.648438 394.566406 118.949219 C 394.566406 110.488281 394.65625 102.03125 394.835938 93.570312 Z M 445.324219 127.679688 C 441.90625 129.480469 437.855469 131.550781 431.285156 131.550781 C 425.886719 131.550781 422.195312 129.839844 420.035156 126.601562 C 418.683594 124.710938 418.414062 122.910156 418.054688 121.109375 L 447.125 120.570312 L 447.664062 119.941406 C 447.574219 115.53125 447.484375 111.03125 446.226562 106.53125 C 443.074219 95.910156 436.144531 93.75 433.085938 93.03125 C 430.835938 92.398438 428.765625 92.21875 426.695312 92.21875 C 412.566406 92.21875 403.203125 101.488281 403.203125 117.058594 C 403.203125 121.289062 403.925781 125.699219 405.363281 128.851562 C 410.585938 141 422.824219 142.078125 429.304688 142.078125 C 436.773438 142.078125 440.015625 140.730469 444.785156 138.839844 L 445.324219 138.121094 L 445.953125 127.949219 L 445.324219 127.679688 M 418.054688 111.570312 C 418.324219 108.78125 418.953125 105 422.375 102.839844 C 423.453125 102.121094 424.714844 101.851562 425.976562 101.851562 C 428.945312 101.851562 430.746094 103.378906 431.734375 105 C 432.996094 106.980469 433.085938 109.140625 433.085938 111.210938 Z M 500.042969 140.371094 C 499.59375 132.449219 499.59375 129.929688 499.414062 121.109375 L 499.414062 114.089844 C 499.324219 105.449219 499.234375 101.308594 496.984375 97.621094 C 494.191406 92.941406 489.0625 92.21875 485.824219 92.21875 C 480.332031 92.21875 475.5625 95.101562 471.421875 97.53125 L 471.601562 92.578125 L 470.703125 91.949219 C 463.773438 93.390625 462.242188 93.660156 455.492188 94.558594 L 454.953125 95.191406 C 455.671875 103.019531 456.214844 108.691406 456.214844 123.359375 C 456.214844 129.121094 456.121094 134.878906 456.03125 140.640625 L 456.574219 141.179688 C 463.054688 140.910156 464.402344 140.910156 471.601562 140.910156 L 472.144531 140.371094 C 471.601562 126.511719 471.511719 123 471.421875 106.890625 C 473.3125 105.628906 475.472656 104.101562 478.351562 104.101562 C 483.304688 104.101562 483.753906 109.410156 484.023438 112.648438 C 484.203125 115.621094 484.292969 127.949219 484.292969 131.371094 C 484.292969 134.429688 484.203125 137.578125 484.203125 140.640625 L 484.742188 141.179688 C 490.683594 141 492.214844 140.910156 499.414062 140.910156 Z M 550.351562 114.179688 C 550.441406 106.078125 550.441406 102.570312 548.101562 98.789062 C 546.300781 95.910156 542.703125 92.308594 531.183594 92.308594 C 523.441406 92.308594 518.671875 93.75 513.542969 95.28125 L 513.003906 96 L 512.550781 105.808594 L 513.273438 106.171875 C 516.421875 104.910156 522.273438 102.570312 528.300781 102.570312 C 531.632812 102.570312 532.980469 103.109375 534.152344 104.28125 C 535.050781 105.179688 535.324219 106.800781 535.324219 108.148438 C 524.523438 109.589844 519.480469 110.578125 514.082031 113.910156 C 509.042969 117.058594 507.332031 122.191406 507.332031 126.238281 C 507.332031 135.871094 514.261719 142.078125 523.082031 142.078125 C 529.832031 142.078125 533.703125 138.839844 535.59375 137.308594 L 535.59375 140.640625 L 536.132812 141.269531 C 542.613281 141 544.59375 140.910156 550.441406 141 L 550.890625 140.371094 C 550.261719 131.550781 550.261719 129.300781 550.261719 120.839844 L 550.351562 114.179688 M 535.503906 128.488281 C 533.613281 129.570312 531.183594 130.828125 528.210938 130.828125 C 524.972656 130.828125 522.273438 129.121094 522.273438 125.339844 C 522.273438 119.398438 529.382812 118.410156 535.503906 117.601562 Z M 585.722656 140.28125 C 588.605469 131.28125 590.3125 125.699219 592.203125 120.03125 C 594.632812 112.738281 598.59375 101.039062 601.113281 93.660156 L 600.664062 93.03125 L 588.0625 93.300781 L 587.433594 93.929688 C 586.175781 99.960938 585.90625 101.21875 584.105469 108.238281 L 579.515625 125.96875 L 577.265625 116.25 L 575.554688 109.320312 C 573.304688 100.949219 572.945312 99.238281 571.683594 93.300781 L 571.054688 92.761719 C 563.945312 93.570312 562.144531 93.660156 555.304688 93.75 L 554.945312 94.46875 C 566.914062 129.929688 567.90625 133.261719 569.882812 140.640625 L 570.515625 141.269531 C 576.363281 141 578.703125 140.910156 585.183594 141 Z M 645.84375 127.679688 C 642.425781 129.480469 638.375 131.550781 631.804688 131.550781 C 626.40625 131.550781 622.714844 129.839844 620.554688 126.601562 C 619.203125 124.710938 618.933594 122.910156 618.574219 121.109375 L 647.644531 120.570312 L 648.183594 119.941406 C 648.09375 115.53125 648.003906 111.03125 646.746094 106.53125 C 643.59375 95.910156 636.664062 93.75 633.605469 93.03125 C 631.355469 92.398438 629.285156 92.21875 627.214844 92.21875 C 613.085938 92.21875 603.722656 101.488281 603.722656 117.058594 C 603.722656 121.289062 604.445312 125.699219 605.882812 128.851562 C 611.105469 141 623.34375 142.078125 629.824219 142.078125 C 637.292969 142.078125 640.535156 140.730469 645.304688 138.839844 L 645.84375 138.121094 L 646.472656 127.949219 L 645.84375 127.679688 M 618.574219 111.570312 C 618.84375 108.78125 619.472656 105 622.894531 102.839844 C 623.972656 102.121094 625.234375 101.851562 626.496094 101.851562 C 629.464844 101.851562 631.265625 103.378906 632.253906 105 C 633.515625 106.980469 633.605469 109.140625 633.605469 111.210938 Z M 700.5625 140.371094 C 700.113281 132.449219 700.113281 129.929688 699.933594 121.109375 L 699.933594 114.089844 C 699.84375 105.449219 699.753906 101.308594 697.503906 97.621094 C 694.710938 92.941406 689.582031 92.21875 686.34375 92.21875 C 680.851562 92.21875 676.082031 95.101562 671.941406 97.53125 L 672.121094 92.578125 L 671.222656 91.949219 C 664.292969 93.390625 662.761719 93.660156 656.011719 94.558594 L 655.472656 95.191406 C 656.191406 103.019531 656.734375 108.691406 656.734375 123.359375 C 656.734375 129.121094 656.640625 134.878906 656.550781 140.640625 L 657.09375 141.179688 C 663.574219 140.910156 664.921875 140.910156 672.121094 140.910156 L 672.664062 140.371094 C 672.121094 126.511719 672.03125 123 671.941406 106.890625 C 673.832031 105.628906 675.992188 104.101562 678.871094 104.101562 C 683.824219 104.101562 684.273438 109.410156 684.542969 112.648438 C 684.722656 115.621094 684.8125 127.949219 684.8125 131.371094 C 684.8125 134.429688 684.722656 137.578125 684.722656 140.640625 L 685.261719 141.179688 C 691.203125 141 692.734375 140.910156 699.933594 140.910156 Z M 736.027344 130.648438 C 734.496094 131.101562 733.414062 131.460938 731.886719 131.460938 C 727.296875 131.460938 726.9375 128.578125 726.753906 127.230469 C 726.484375 124.890625 726.484375 119.941406 726.574219 116.339844 L 726.753906 103.648438 L 734.855469 104.011719 L 735.394531 103.46875 L 736.296875 93.839844 L 735.753906 93.300781 L 726.753906 93.300781 L 727.027344 78.179688 L 726.394531 77.640625 C 720.277344 79.441406 718.65625 79.890625 712.265625 81.511719 L 711.90625 82.140625 L 711.996094 93.390625 L 707.136719 93.210938 L 706.597656 93.660156 L 705.785156 103.289062 L 706.324219 103.828125 L 711.996094 103.648438 L 711.726562 117.960938 C 711.636719 120.210938 711.546875 122.460938 711.546875 124.800781 C 711.546875 133.078125 711.726562 141.988281 725.765625 141.988281 C 729.277344 141.988281 732.066406 141.449219 735.214844 140.910156 L 735.847656 140.28125 L 736.746094 131.011719 Z M 785.886719 92.851562 L 771.214844 93.570312 L 770.585938 94.109375 C 771.214844 104.28125 771.214844 118.679688 771.214844 120.121094 C 771.214844 122.730469 771.214844 124.171875 771.125 127.769531 C 768.695312 129.390625 766.804688 130.738281 764.375 130.738281 C 757.894531 130.738281 757.894531 123.898438 757.894531 118.589844 C 757.894531 116.339844 757.894531 114 757.984375 111.75 L 758.164062 93.570312 L 757.535156 92.851562 L 742.683594 93.570312 L 742.054688 94.109375 C 742.59375 101.671875 742.683594 104.191406 742.683594 113.28125 L 742.683594 119.578125 C 742.59375 129.390625 743.046875 133.53125 746.285156 137.308594 C 749.253906 140.640625 753.574219 142.078125 758.074219 142.078125 C 764.464844 142.078125 768.15625 139.199219 771.394531 136.679688 L 771.304688 140.730469 L 771.933594 141.269531 C 778.503906 141 780.484375 141 786.335938 141 L 786.875 140.460938 C 786.425781 134.070312 786.246094 130.648438 786.246094 118.949219 C 786.246094 110.488281 786.335938 102.03125 786.515625 93.570312 Z M 823.054688 107.609375 L 825.574219 92.941406 L 825.035156 92.308594 C 824.40625 92.308594 823.773438 92.21875 823.144531 92.21875 C 819.453125 92.21875 815.316406 94.289062 812.433594 100.949219 L 812.703125 92.671875 L 811.984375 91.949219 C 805.324219 93.390625 803.613281 93.660156 797.042969 94.648438 L 796.503906 95.191406 C 797.042969 101.941406 797.316406 105.988281 797.316406 118.5 C 797.316406 125.878906 797.222656 133.261719 797.042969 140.730469 L 797.585938 141.269531 C 804.246094 141 805.683594 140.910156 812.882812 141 L 813.335938 140.371094 C 812.972656 133.078125 812.433594 122.910156 812.433594 116.699219 C 812.433594 112.648438 812.433594 106.710938 818.554688 106.710938 C 820.085938 106.710938 820.984375 107.25 822.246094 107.96875 Z M 870.84375 114.179688 C 870.933594 106.078125 870.933594 102.570312 868.59375 98.789062 C 866.792969 95.910156 863.195312 92.308594 851.675781 92.308594 C 843.933594 92.308594 839.164062 93.75 834.035156 95.28125 L 833.496094 96 L 833.042969 105.808594 L 833.765625 106.171875 C 836.914062 104.910156 842.765625 102.570312 848.792969 102.570312 C 852.125 102.570312 853.472656 103.109375 854.644531 104.28125 C 855.542969 105.179688 855.816406 106.800781 855.816406 108.148438 C 845.015625 109.589844 839.972656 110.578125 834.574219 113.910156 C 829.535156 117.058594 827.824219 122.191406 827.824219 126.238281 C 827.824219 135.871094 834.753906 142.078125 843.574219 142.078125 C 850.324219 142.078125 854.195312 138.839844 856.085938 137.308594 L 856.085938 140.640625 L 856.625 141.269531 C 863.105469 141 865.085938 140.910156 870.933594 141 L 871.382812 140.371094 C 870.753906 131.550781 870.753906 129.300781 870.753906 120.839844 L 870.84375 114.179688 M 855.996094 128.488281 C 854.105469 129.570312 851.675781 130.828125 848.703125 130.828125 C 845.464844 130.828125 842.765625 129.121094 842.765625 125.339844 C 842.765625 119.398438 849.875 118.410156 855.996094 117.601562 Z M 875.972656 141 "/>
<path fill-rule="nonzero" fill="rgb(34.901961%, 14.901961%, 14.901961%)" fill-opacity="1" d="M 273.109375 222.300781 C 265.550781 219.148438 261.589844 217.53125 261.589844 213.480469 C 261.589844 210.691406 264.199219 207.179688 270.140625 207.179688 C 276.980469 207.179688 281.027344 209.96875 284.359375 212.21875 L 285.167969 211.859375 L 285.890625 200.070312 L 285.4375 199.441406 C 281.570312 197.820312 277.519531 196.109375 268.789062 196.109375 C 251.871094 196.109375 246.019531 205.648438 246.019531 215.28125 C 246.019531 226.171875 254.480469 230.128906 259.519531 232.558594 L 262.488281 233.910156 C 268.699219 236.519531 273.46875 238.769531 273.46875 243.539062 C 273.46875 246.960938 270.5 251.011719 262.667969 251.011719 C 254.480469 251.011719 249.890625 247.410156 247.277344 245.339844 L 246.378906 245.609375 L 245.75 258.300781 L 246.289062 259.019531 C 247.277344 259.378906 248.269531 259.828125 249.257812 260.101562 C 251.328125 260.820312 256.640625 262.351562 263.390625 262.351562 C 266.089844 262.351562 272.929688 262.078125 278.328125 259.558594 C 285.890625 255.871094 289.128906 249.03125 289.128906 241.378906 C 289.128906 236.25 287.148438 230.761719 282.378906 227.070312 C 279.949219 225.269531 277.609375 224.191406 275.449219 223.199219 Z M 322.878906 250.648438 C 321.347656 251.101562 320.265625 251.460938 318.738281 251.460938 C 314.148438 251.460938 313.789062 248.578125 313.605469 247.230469 C 313.335938 244.890625 313.335938 239.941406 313.425781 236.339844 L 313.605469 223.648438 L 321.707031 224.011719 L 322.246094 223.46875 L 323.148438 213.839844 L 322.605469 213.300781 L 313.605469 213.300781 L 313.878906 198.179688 L 313.246094 197.640625 C 307.128906 199.441406 305.507812 199.890625 299.117188 201.511719 L 298.757812 202.140625 L 298.847656 213.390625 L 293.988281 213.210938 L 293.449219 213.660156 L 292.636719 223.289062 L 293.175781 223.828125 L 298.847656 223.648438 L 298.578125 237.960938 C 298.488281 240.210938 298.398438 242.460938 298.398438 244.800781 C 298.398438 253.078125 298.578125 261.988281 312.617188 261.988281 C 316.128906 261.988281 318.917969 261.449219 322.066406 260.910156 L 322.699219 260.28125 L 323.597656 251.011719 Z M 369.589844 234.179688 C 369.679688 226.078125 369.679688 222.570312 367.339844 218.789062 C 365.539062 215.910156 361.941406 212.308594 350.421875 212.308594 C 342.679688 212.308594 337.910156 213.75 332.78125 215.28125 L 332.242188 216 L 331.789062 225.808594 L 332.511719 226.171875 C 335.660156 224.910156 341.511719 222.570312 347.539062 222.570312 C 350.871094 222.570312 352.21875 223.109375 353.390625 224.28125 C 354.289062 225.179688 354.5625 226.800781 354.5625 228.148438 C 343.761719 229.589844 338.71875 230.578125 333.320312 233.910156 C 328.28125 237.058594 326.570312 242.191406 326.570312 246.238281 C 326.570312 255.871094 333.5 262.078125 342.320312 262.078125 C 349.070312 262.078125 352.941406 258.839844 354.832031 257.308594 L 354.832031 260.640625 L 355.371094 261.269531 C 361.851562 261 363.832031 260.910156 369.679688 261 L 370.128906 260.371094 C 369.5 251.550781 369.5 249.300781 369.5 240.839844 L 369.589844 234.179688 M 354.742188 248.488281 C 352.851562 249.570312 350.421875 250.828125 347.449219 250.828125 C 344.210938 250.828125 341.511719 249.121094 341.511719 245.339844 C 341.511719 239.398438 348.621094 238.410156 354.742188 237.601562 Z M 405.320312 250.648438 C 403.789062 251.101562 402.707031 251.460938 401.179688 251.460938 C 396.589844 251.460938 396.230469 248.578125 396.046875 247.230469 C 395.777344 244.890625 395.777344 239.941406 395.867188 236.339844 L 396.046875 223.648438 L 404.148438 224.011719 L 404.6875 223.46875 L 405.589844 213.839844 L 405.046875 213.300781 L 396.046875 213.300781 L 396.320312 198.179688 L 395.6875 197.640625 C 389.570312 199.441406 387.949219 199.890625 381.558594 201.511719 L 381.199219 202.140625 L 381.289062 213.390625 L 376.429688 213.210938 L 375.890625 213.660156 L 375.078125 223.289062 L 375.617188 223.828125 L 381.289062 223.648438 L 381.019531 237.960938 C 380.929688 240.210938 380.839844 242.460938 380.839844 244.800781 C 380.839844 253.078125 381.019531 261.988281 395.058594 261.988281 C 398.570312 261.988281 401.359375 261.449219 404.507812 260.910156 L 405.140625 260.28125 L 406.039062 251.011719 Z M 451.9375 247.679688 C 448.519531 249.480469 444.46875 251.550781 437.898438 251.550781 C 432.5 251.550781 428.808594 249.839844 426.648438 246.601562 C 425.296875 244.710938 425.027344 242.910156 424.667969 241.109375 L 453.738281 240.570312 L 454.277344 239.941406 C 454.1875 235.53125 454.097656 231.03125 452.839844 226.53125 C 449.6875 215.910156 442.757812 213.75 439.699219 213.03125 C 437.449219 212.398438 435.378906 212.21875 433.308594 212.21875 C 419.179688 212.21875 409.816406 221.488281 409.816406 237.058594 C 409.816406 241.289062 410.539062 245.699219 411.976562 248.851562 C 417.199219 261 429.4375 262.078125 435.917969 262.078125 C 443.386719 262.078125 446.628906 260.730469 451.398438 258.839844 L 451.9375 258.121094 L 452.566406 247.949219 L 451.9375 247.679688 M 424.667969 231.570312 C 424.9375 228.78125 425.566406 225 428.988281 222.839844 C 430.066406 222.121094 431.328125 221.851562 432.589844 221.851562 C 435.558594 221.851562 437.359375 223.378906 438.347656 225 C 439.609375 226.980469 439.699219 229.140625 439.699219 231.210938 Z M 505.578125 261 C 513.949219 261.179688 524.296875 261.359375 531.046875 256.679688 C 536.988281 252.449219 538.609375 246.511719 538.609375 241.46875 C 538.609375 235.710938 536.175781 230.398438 531.046875 227.878906 C 529.335938 226.980469 527.359375 226.621094 525.46875 226.261719 C 528.527344 225 532.128906 223.378906 534.46875 218.609375 C 535.457031 216.539062 535.90625 214.378906 535.90625 212.308594 C 535.90625 209.429688 535.1875 205.46875 532.308594 202.230469 C 528.527344 198.179688 522.675781 197.101562 513.859375 197.101562 C 510.796875 197.101562 505.308594 197.191406 502.246094 197.28125 L 489.648438 197.460938 L 489.109375 198 C 489.46875 206.640625 489.558594 209.96875 489.558594 222.390625 C 489.558594 235.171875 489.46875 247.859375 489.289062 260.640625 L 489.917969 261 L 505.578125 261 M 504.949219 233.640625 C 511.789062 233.460938 515.746094 233.460938 518.359375 234.988281 C 520.96875 236.609375 521.957031 239.488281 521.957031 242.371094 C 521.957031 246.421875 519.707031 248.941406 516.378906 250.109375 C 513.675781 251.011719 508.816406 251.011719 504.949219 250.921875 L 504.949219 233.640625 M 504.949219 207.179688 C 506.835938 207.179688 509.359375 207.089844 510.886719 207.089844 C 515.746094 207.089844 520.15625 208.800781 520.15625 214.648438 C 520.15625 219.421875 516.648438 221.398438 515.566406 221.941406 C 513.316406 222.929688 508.546875 222.929688 504.949219 222.929688 Z M 586.9375 247.679688 C 583.519531 249.480469 579.46875 251.550781 572.898438 251.550781 C 567.5 251.550781 563.808594 249.839844 561.648438 246.601562 C 560.296875 244.710938 560.027344 242.910156 559.667969 241.109375 L 588.738281 240.570312 L 589.277344 239.941406 C 589.1875 235.53125 589.097656 231.03125 587.839844 226.53125 C 584.6875 215.910156 577.757812 213.75 574.699219 213.03125 C 572.449219 212.398438 570.378906 212.21875 568.308594 212.21875 C 554.179688 212.21875 544.816406 221.488281 544.816406 237.058594 C 544.816406 241.289062 545.539062 245.699219 546.976562 248.851562 C 552.199219 261 564.4375 262.078125 570.917969 262.078125 C 578.386719 262.078125 581.628906 260.730469 586.398438 258.839844 L 586.9375 258.121094 L 587.566406 247.949219 L 586.9375 247.679688 M 559.667969 231.570312 C 559.9375 228.78125 560.566406 225 563.988281 222.839844 C 565.066406 222.121094 566.328125 221.851562 567.589844 221.851562 C 570.558594 221.851562 572.359375 223.378906 573.347656 225 C 574.609375 226.980469 574.699219 229.140625 574.699219 231.210938 Z M 637.609375 234.179688 C 637.699219 226.078125 637.699219 222.570312 635.359375 218.789062 C 633.558594 215.910156 629.960938 212.308594 618.441406 212.308594 C 610.699219 212.308594 605.929688 213.75 600.800781 215.28125 L 600.261719 216 L 599.808594 225.808594 L 600.53125 226.171875 C 603.679688 224.910156 609.53125 222.570312 615.558594 222.570312 C 618.890625 222.570312 620.238281 223.109375 621.410156 224.28125 C 622.308594 225.179688 622.582031 226.800781 622.582031 228.148438 C 611.78125 229.589844 606.738281 230.578125 601.339844 233.910156 C 596.300781 237.058594 594.589844 242.191406 594.589844 246.238281 C 594.589844 255.871094 601.519531 262.078125 610.339844 262.078125 C 617.089844 262.078125 620.960938 258.839844 622.851562 257.308594 L 622.851562 260.640625 L 623.390625 261.269531 C 629.871094 261 631.851562 260.910156 637.699219 261 L 638.148438 260.371094 C 637.519531 251.550781 637.519531 249.300781 637.519531 240.839844 L 637.609375 234.179688 M 622.761719 248.488281 C 620.871094 249.570312 618.441406 250.828125 615.46875 250.828125 C 612.230469 250.828125 609.53125 249.121094 609.53125 245.339844 C 609.53125 239.398438 616.640625 238.410156 622.761719 237.601562 Z M 683.328125 248.039062 C 680.898438 249.480469 678.558594 250.921875 673.96875 250.921875 C 663.796875 250.921875 661.726562 242.460938 661.726562 237.058594 C 661.726562 230.488281 664.609375 222.929688 673.339844 222.929688 C 677.296875 222.929688 679.457031 224.371094 682.160156 226.171875 L 683.058594 225.898438 C 683.417969 221.128906 683.507812 219.871094 684.226562 215.101562 L 683.777344 214.558594 C 679.816406 213.300781 676.398438 212.21875 671.179688 212.21875 C 650.027344 212.21875 645.886719 228.238281 645.886719 237.421875 C 645.886719 247.769531 651.289062 261.808594 671.539062 261.808594 C 676.308594 261.808594 679.367188 260.910156 683.148438 259.828125 L 683.6875 259.289062 L 684.046875 248.488281 Z M 735.347656 260.371094 C 734.988281 252.988281 734.898438 250.46875 734.71875 241.109375 L 734.71875 234.359375 C 734.628906 225.808594 734.539062 220.859375 731.925781 217.078125 C 729.316406 213.390625 725.539062 212.21875 721.578125 212.21875 C 715.007812 212.21875 709.878906 215.371094 706.277344 217.53125 L 706.546875 189.808594 L 706.007812 189.179688 L 690.617188 191.609375 L 690.167969 192.148438 C 690.976562 200.878906 691.15625 204.121094 691.335938 215.730469 C 691.519531 223.019531 691.609375 230.308594 691.609375 237.601562 C 691.609375 246.511719 691.425781 251.820312 691.246094 260.640625 L 691.699219 261.269531 C 698.359375 260.910156 699.707031 260.910156 706.996094 260.910156 L 707.539062 260.371094 C 706.90625 246.871094 706.816406 242.820312 706.726562 226.890625 C 708.4375 225.71875 710.597656 224.191406 713.65625 224.191406 C 718.609375 224.191406 718.96875 229.320312 719.328125 232.921875 C 719.507812 235.710938 719.597656 248.488281 719.597656 251.820312 C 719.597656 254.789062 719.507812 257.671875 719.507812 260.640625 L 719.957031 261.269531 C 726.4375 260.910156 727.878906 260.910156 734.808594 260.910156 Z M 740.210938 261 "/>
</svg>
