<?xml version="1.0" encoding="UTF-8"?>
<svg xmlns="http://www.w3.org/2000/svg" xmlns:xlink="http://www.w3.org/1999/xlink" width="975" height="1300" viewBox="0 0 975 1300">
<path fill-rule="nonzero" fill="rgb(98.823529%, 78.823529%, 9.019608%)" fill-opacity="1" d="M 50 50 L 925 50 L 925 170 L 50 170 Z M 50 50 "/>
<path fill-rule="nonzero" fill="rgb(34.901961%, 14.901961%, 14.901961%)" fill-opacity="1" d="M 93.738281 116.25 C 99.769531 126.511719 101.121094 129.210938 106.878906 141 L 107.601562 141.449219 C 110.390625 141.269531 113.089844 141.089844 115.878906 141 C 118.671875 140.910156 121.550781 140.820312 124.339844 140.820312 L 124.878906 139.738281 C 121.460938 135.328125 120.46875 133.980469 113.988281 123.628906 C 111.109375 119.039062 109.671875 116.609375 107.421875 112.648438 C 111.46875 110.851562 119.660156 107.070312 119.660156 95.640625 C 119.660156 91.679688 118.578125 83.488281 111.199219 79.621094 C 106.519531 77.191406 101.660156 77.101562 91.128906 77.28125 L 84.828125 77.371094 L 73.851562 77.371094 L 73.398438 77.910156 C 73.761719 87 74.121094 96.359375 74.121094 120.839844 C 74.121094 129.210938 74.03125 133.261719 73.761719 140.730469 L 74.300781 141.269531 C 80.871094 141 82.308594 140.910156 89.691406 141 L 90.230469 140.460938 C 89.511719 130.019531 89.421875 127.140625 89.328125 116.429688 L 93.738281 116.25 M 89.511719 88.261719 C 90.769531 88.171875 92.03125 88.171875 93.289062 88.171875 C 96.800781 88.171875 103.730469 88.171875 103.730469 96.089844 C 103.730469 98.609375 103.101562 101.941406 99.769531 104.011719 C 97.25 105.539062 94.011719 105.71875 89.511719 105.808594 Z M 169.609375 127.679688 C 166.191406 129.480469 162.140625 131.550781 155.570312 131.550781 C 150.171875 131.550781 146.480469 129.839844 144.320312 126.601562 C 142.96875 124.710938 142.699219 122.910156 142.339844 121.109375 L 171.410156 120.570312 L 171.949219 119.941406 C 171.859375 115.53125 171.769531 111.03125 170.511719 106.53125 C 167.359375 95.910156 160.429688 93.75 157.371094 93.03125 C 155.121094 92.398438 153.050781 92.21875 150.980469 92.21875 C 136.851562 92.21875 127.488281 101.488281 127.488281 117.058594 C 127.488281 121.289062 128.210938 125.699219 129.648438 128.851562 C 134.871094 141 147.109375 142.078125 153.589844 142.078125 C 161.058594 142.078125 164.300781 140.730469 169.070312 138.839844 L 169.609375 138.121094 L 170.238281 127.949219 L 169.609375 127.679688 M 142.339844 111.570312 C 142.609375 108.78125 143.238281 105 146.660156 102.839844 C 147.738281 102.121094 149 101.851562 150.261719 101.851562 C 153.230469 101.851562 155.03125 103.378906 156.019531 105 C 157.28125 106.980469 157.371094 109.140625 157.371094 111.210938 Z M 198.226562 140.371094 C 197.328125 123.988281 197.238281 119.578125 197.328125 103.648438 L 204.4375 104.011719 L 205.066406 103.378906 L 205.878906 93.839844 L 205.429688 93.300781 L 197.238281 93.300781 L 197.328125 91.230469 C 197.328125 85.738281 197.417969 80.699219 203.269531 80.699219 C 204.167969 80.699219 205.066406 80.878906 205.96875 80.96875 L 206.597656 80.609375 L 207.40625 70.441406 L 206.957031 69.808594 C 204.796875 69.628906 202.726562 69.539062 200.65625 69.539062 C 196.066406 69.539062 191.386719 70.078125 187.789062 72.78125 C 182.207031 76.921875 182.296875 83.398438 182.296875 87.898438 L 182.386719 93.300781 L 176.539062 93.210938 L 176 93.660156 L 175.097656 103.199219 L 175.636719 103.738281 L 182.476562 103.558594 C 182.476562 120.570312 182.476562 124.621094 181.9375 140.640625 L 182.476562 141.269531 C 188.597656 141 190.9375 140.910156 197.6875 140.910156 Z M 255.292969 92.851562 L 240.621094 93.570312 L 239.992188 94.109375 C 240.621094 104.28125 240.621094 118.679688 240.621094 120.121094 C 240.621094 122.730469 240.621094 124.171875 240.53125 127.769531 C 238.101562 129.390625 236.210938 130.738281 233.78125 130.738281 C 227.300781 130.738281 227.300781 123.898438 227.300781 118.589844 C 227.300781 116.339844 227.300781 114 227.390625 111.75 L 227.570312 93.570312 L 226.941406 92.851562 L 212.089844 93.570312 L 211.460938 94.109375 C 212 101.671875 212.089844 104.191406 212.089844 113.28125 L 212.089844 119.578125 C 212 129.390625 212.453125 133.53125 215.691406 137.308594 C 218.660156 140.640625 222.980469 142.078125 227.480469 142.078125 C 233.871094 142.078125 237.5625 139.199219 240.800781 136.679688 L 240.710938 140.730469 L 241.339844 141.269531 C 247.910156 141 249.890625 141 255.742188 141 L 256.28125 140.460938 C 255.832031 134.070312 255.652344 130.648438 255.652344 118.949219 C 255.652344 110.488281 255.742188 102.03125 255.921875 93.570312 Z M 283.011719 125.789062 C 285.890625 125.878906 288.769531 126.058594 293.089844 124.621094 C 297.769531 123 304.609375 119.128906 304.609375 110.398438 C 304.609375 106.078125 303.351562 104.28125 302.179688 102.570312 L 308.390625 102.929688 L 308.929688 102.480469 L 309.5625 93.480469 L 309.019531 93.03125 C 302.089844 93.300781 300.199219 93.390625 294.53125 93.300781 L 290.390625 93.210938 C 284 93.03125 275.449219 92.851562 269.601562 97.710938 C 267.621094 99.238281 263.839844 103.109375 263.839844 109.859375 C 263.839844 113.460938 264.832031 116.339844 266.449219 118.589844 C 268.429688 121.378906 270.230469 122.371094 272.480469 123.628906 C 269.960938 128.488281 268.609375 130.921875 266.539062 134.609375 L 266.539062 135.421875 L 270.320312 138.121094 C 267.621094 140.191406 263.390625 143.609375 263.390625 149.460938 C 263.390625 153.601562 265.640625 157.199219 268.972656 159.628906 C 274.011719 163.230469 280.851562 163.410156 284.359375 163.410156 C 300.832031 163.410156 308.390625 155.128906 308.390625 146.398438 C 308.390625 135.058594 298.492188 132.898438 292.640625 131.550781 L 290.480469 131.191406 C 286.070312 130.46875 285.082031 130.199219 281.570312 128.941406 L 283.011719 125.789062 M 290.390625 109.589844 C 290.300781 116.878906 285.890625 117.511719 284.628906 117.511719 C 283.910156 117.511719 280.761719 117.328125 279.230469 113.730469 C 278.421875 111.839844 278.421875 109.679688 278.421875 109.050781 C 278.421875 104.550781 281.121094 101.671875 284.449219 101.671875 C 288.589844 101.671875 290.480469 105.628906 290.390625 109.589844 M 282.742188 143.160156 C 290.75 145.230469 290.839844 145.230469 291.921875 146.128906 C 292.820312 146.761719 293.722656 147.75 293.722656 149.640625 C 293.722656 152.339844 291.472656 155.128906 285.53125 155.128906 C 278.871094 155.128906 276.621094 151.351562 276.621094 148.199219 C 276.621094 145.230469 278.152344 143.519531 279.230469 142.261719 Z M 331.519531 140.371094 C 331.066406 133.441406 330.707031 128.128906 330.707031 115.710938 C 330.707031 108.058594 330.886719 100.320312 330.976562 92.671875 L 330.347656 91.949219 L 314.867188 94.648438 L 314.328125 95.191406 C 315.046875 102.03125 315.316406 105.179688 315.316406 117.960938 C 315.316406 127.769531 315.046875 133.261719 314.777344 140.640625 L 315.316406 141.269531 C 321.796875 141 323.597656 140.910156 330.886719 141 L 331.519531 140.371094 M 330.078125 83.308594 L 330.347656 71.070312 L 329.808594 70.53125 L 315.136719 72.328125 L 314.597656 72.960938 C 314.777344 76.199219 314.867188 78.089844 314.867188 80.25 C 314.867188 81.960938 314.867188 83.761719 314.777344 85.46875 L 315.40625 86.011719 C 321.527344 84.929688 323.238281 84.75 329.628906 83.941406 Z M 387.320312 117.058594 C 387.320312 113.550781 387.320312 98.96875 374.71875 94.019531 C 370.757812 92.488281 366.078125 92.308594 363.738281 92.308594 C 348.078125 92.308594 339.257812 100.679688 339.257812 117.238281 C 339.257812 123 340.160156 128.851562 343.488281 133.710938 C 345.828125 137.21875 350.238281 142.078125 363.109375 142.078125 C 382.1875 142.078125 387.320312 130.558594 387.320312 117.058594 M 371.75 116.96875 C 371.75 124.351562 370.757812 132.539062 363.289062 132.539062 C 360.949219 132.539062 359.328125 131.460938 358.25 130.46875 C 356.71875 128.941406 355.007812 125.878906 355.007812 117.148438 C 355.007812 114.539062 355.007812 108.78125 356.808594 105.628906 C 358.160156 103.199219 360.5 101.578125 363.378906 101.578125 C 365.898438 101.578125 367.96875 102.929688 369.140625 104.371094 C 371.300781 106.980469 371.75 112.109375 371.75 116.96875 Z M 448.160156 102.300781 C 440.601562 99.148438 436.640625 97.53125 436.640625 93.480469 C 436.640625 90.691406 439.25 87.179688 445.191406 87.179688 C 452.03125 87.179688 456.078125 89.96875 459.410156 92.21875 L 460.21875 91.859375 L 460.941406 80.070312 L 460.488281 79.441406 C 456.621094 77.820312 452.570312 76.109375 443.839844 76.109375 C 426.921875 76.109375 421.070312 85.648438 421.070312 95.28125 C 421.070312 106.171875 429.53125 110.128906 434.570312 112.558594 L 437.539062 113.910156 C 443.75 116.519531 448.519531 118.769531 448.519531 123.539062 C 448.519531 126.960938 445.550781 131.011719 437.71875 131.011719 C 429.53125 131.011719 424.941406 127.410156 422.328125 125.339844 L 421.429688 125.609375 L 420.800781 138.300781 L 421.339844 139.019531 C 422.328125 139.378906 423.320312 139.828125 424.308594 140.101562 C 426.378906 140.820312 431.691406 142.351562 438.441406 142.351562 C 441.140625 142.351562 447.980469 142.078125 453.378906 139.558594 C 460.941406 135.871094 464.179688 129.03125 464.179688 121.378906 C 464.179688 116.25 462.199219 110.761719 457.429688 107.070312 C 455 105.269531 452.660156 104.191406 450.5 103.199219 Z M 497.929688 130.648438 C 496.398438 131.101562 495.316406 131.460938 493.789062 131.460938 C 489.199219 131.460938 488.839844 128.578125 488.65625 127.230469 C 488.386719 124.890625 488.386719 119.941406 488.476562 116.339844 L 488.65625 103.648438 L 496.757812 104.011719 L 497.296875 103.46875 L 498.199219 93.839844 L 497.65625 93.300781 L 488.65625 93.300781 L 488.929688 78.179688 L 488.296875 77.640625 C 482.179688 79.441406 480.558594 79.890625 474.167969 81.511719 L 473.808594 82.140625 L 473.898438 93.390625 L 469.039062 93.210938 L 468.5 93.660156 L 467.6875 103.289062 L 468.226562 103.828125 L 473.898438 103.648438 L 473.628906 117.960938 C 473.539062 120.210938 473.449219 122.460938 473.449219 124.800781 C 473.449219 133.078125 473.628906 141.988281 487.667969 141.988281 C 491.179688 141.988281 493.96875 141.449219 497.117188 140.910156 L 497.75 140.28125 L 498.648438 131.011719 Z M 544.640625 114.179688 C 544.730469 106.078125 544.730469 102.570312 542.390625 98.789062 C 540.589844 95.910156 536.992188 92.308594 525.472656 92.308594 C 517.730469 92.308594 512.960938 93.75 507.832031 95.28125 L 507.292969 96 L 506.839844 105.808594 L 507.5625 106.171875 C 510.710938 104.910156 516.5625 102.570312 522.589844 102.570312 C 525.921875 102.570312 527.269531 103.109375 528.441406 104.28125 C 529.339844 105.179688 529.613281 106.800781 529.613281 108.148438 C 518.8125 109.589844 513.769531 110.578125 508.371094 113.910156 C 503.332031 117.058594 501.621094 122.191406 501.621094 126.238281 C 501.621094 135.871094 508.550781 142.078125 517.371094 142.078125 C 524.121094 142.078125 527.992188 138.839844 529.882812 137.308594 L 529.882812 140.640625 L 530.421875 141.269531 C 536.902344 141 538.882812 140.910156 544.730469 141 L 545.179688 140.371094 C 544.550781 131.550781 544.550781 129.300781 544.550781 120.839844 L 544.640625 114.179688 M 529.792969 128.488281 C 527.902344 129.570312 525.472656 130.828125 522.5 130.828125 C 519.261719 130.828125 516.5625 129.121094 516.5625 125.339844 C 516.5625 119.398438 523.671875 118.410156 529.792969 117.601562 Z M 580.371094 130.648438 C 578.839844 131.101562 577.757812 131.460938 576.230469 131.460938 C 571.640625 131.460938 571.28125 128.578125 571.097656 127.230469 C 570.828125 124.890625 570.828125 119.941406 570.917969 116.339844 L 571.097656 103.648438 L 579.199219 104.011719 L 579.738281 103.46875 L 580.640625 93.839844 L 580.097656 93.300781 L 571.097656 93.300781 L 571.371094 78.179688 L 570.738281 77.640625 C 564.621094 79.441406 563 79.890625 556.609375 81.511719 L 556.25 82.140625 L 556.339844 93.390625 L 551.480469 93.210938 L 550.941406 93.660156 L 550.128906 103.289062 L 550.667969 103.828125 L 556.339844 103.648438 L 556.070312 117.960938 C 555.980469 120.210938 555.890625 122.460938 555.890625 124.800781 C 555.890625 133.078125 556.070312 141.988281 570.109375 141.988281 C 573.621094 141.988281 576.410156 141.449219 579.558594 140.910156 L 580.191406 140.28125 L 581.089844 131.011719 Z M 626.988281 127.679688 C 623.570312 129.480469 619.519531 131.550781 612.949219 131.550781 C 607.550781 131.550781 603.859375 129.839844 601.699219 126.601562 C 600.347656 124.710938 600.078125 122.910156 599.71875 121.109375 L 628.789062 120.570312 L 629.328125 119.941406 C 629.238281 115.53125 629.148438 111.03125 627.890625 106.53125 C 624.738281 95.910156 617.808594 93.75 614.75 93.03125 C 612.5 92.398438 610.429688 92.21875 608.359375 92.21875 C 594.230469 92.21875 584.867188 101.488281 584.867188 117.058594 C 584.867188 121.289062 585.589844 125.699219 587.027344 128.851562 C 592.25 141 604.488281 142.078125 610.96875 142.078125 C 618.4375 142.078125 621.679688 140.730469 626.449219 138.839844 L 626.988281 138.121094 L 627.617188 127.949219 L 626.988281 127.679688 M 599.71875 111.570312 C 599.988281 108.78125 600.617188 105 604.039062 102.839844 C 605.117188 102.121094 606.378906 101.851562 607.640625 101.851562 C 610.609375 101.851562 612.410156 103.378906 613.398438 105 C 614.660156 106.980469 614.75 109.140625 614.75 111.210938 Z M 680.628906 141 C 689 141.179688 699.347656 141.359375 706.097656 136.679688 C 712.039062 132.449219 713.660156 126.511719 713.660156 121.46875 C 713.660156 115.710938 711.226562 110.398438 706.097656 107.878906 C 704.386719 106.980469 702.410156 106.621094 700.519531 106.261719 C 703.578125 105 707.179688 103.378906 709.519531 98.609375 C 710.507812 96.539062 710.957031 94.378906 710.957031 92.308594 C 710.957031 89.429688 710.238281 85.46875 707.359375 82.230469 C 703.578125 78.179688 697.726562 77.101562 688.910156 77.101562 C 685.847656 77.101562 680.359375 77.191406 677.296875 77.28125 L 664.699219 77.460938 L 664.160156 78 C 664.519531 86.640625 664.609375 89.96875 664.609375 102.390625 C 664.609375 115.171875 664.519531 127.859375 664.339844 140.640625 L 664.96875 141 L 680.628906 141 M 680 113.640625 C 686.839844 113.460938 690.796875 113.460938 693.410156 114.988281 C 696.019531 116.609375 697.007812 119.488281 697.007812 122.371094 C 697.007812 126.421875 694.757812 128.941406 691.429688 130.109375 C 688.726562 131.011719 683.867188 131.011719 680 130.921875 L 680 113.640625 M 680 87.179688 C 681.886719 87.179688 684.410156 87.089844 685.9375 87.089844 C 690.796875 87.089844 695.207031 88.800781 695.207031 94.648438 C 695.207031 99.421875 691.699219 101.398438 690.617188 101.941406 C 688.367188 102.929688 683.597656 102.929688 680 102.929688 Z M 761.988281 127.679688 C 758.570312 129.480469 754.519531 131.550781 747.949219 131.550781 C 742.550781 131.550781 738.859375 129.839844 736.699219 126.601562 C 735.347656 124.710938 735.078125 122.910156 734.71875 121.109375 L 763.789062 120.570312 L 764.328125 119.941406 C 764.238281 115.53125 764.148438 111.03125 762.890625 106.53125 C 759.738281 95.910156 752.808594 93.75 749.75 93.03125 C 747.5 92.398438 745.429688 92.21875 743.359375 92.21875 C 729.230469 92.21875 719.867188 101.488281 719.867188 117.058594 C 719.867188 121.289062 720.589844 125.699219 722.027344 128.851562 C 727.25 141 739.488281 142.078125 745.96875 142.078125 C 753.4375 142.078125 756.679688 140.730469 761.449219 138.839844 L 761.988281 138.121094 L 762.617188 127.949219 L 761.988281 127.679688 M 734.71875 111.570312 C 734.988281 108.78125 735.617188 105 739.039062 102.839844 C 740.117188 102.121094 741.378906 101.851562 742.640625 101.851562 C 745.609375 101.851562 747.410156 103.378906 748.398438 105 C 749.660156 106.980469 749.75 109.140625 749.75 111.210938 Z M 812.660156 114.179688 C 812.75 106.078125 812.75 102.570312 810.410156 98.789062 C 808.609375 95.910156 805.011719 92.308594 793.492188 92.308594 C 785.75 92.308594 780.980469 93.75 775.851562 95.28125 L 775.3125 96 L 774.859375 105.808594 L 775.582031 106.171875 C 778.730469 104.910156 784.582031 102.570312 790.609375 102.570312 C 793.941406 102.570312 795.289062 103.109375 796.460938 104.28125 C 797.359375 105.179688 797.632812 106.800781 797.632812 108.148438 C 786.832031 109.589844 781.789062 110.578125 776.390625 113.910156 C 771.351562 117.058594 769.640625 122.191406 769.640625 126.238281 C 769.640625 135.871094 776.570312 142.078125 785.390625 142.078125 C 792.140625 142.078125 796.011719 138.839844 797.902344 137.308594 L 797.902344 140.640625 L 798.441406 141.269531 C 804.921875 141 806.902344 140.910156 812.75 141 L 813.199219 140.371094 C 812.570312 131.550781 812.570312 129.300781 812.570312 120.839844 L 812.660156 114.179688 M 797.8125 128.488281 C 795.921875 129.570312 793.492188 130.828125 790.519531 130.828125 C 787.28125 130.828125 784.582031 129.121094 784.582031 125.339844 C 784.582031 119.398438 791.691406 118.410156 797.8125 117.601562 Z M 858.378906 128.039062 C 855.949219 129.480469 853.609375 130.921875 849.019531 130.921875 C 838.847656 130.921875 836.777344 122.460938 836.777344 117.058594 C 836.777344 110.488281 839.660156 102.929688 848.390625 102.929688 C 852.347656 102.929688 854.507812 104.371094 857.210938 106.171875 L 858.109375 105.898438 C 858.46875 101.128906 858.558594 99.871094 859.277344 95.101562 L 858.828125 94.558594 C 854.867188 93.300781 851.449219 92.21875 846.230469 92.21875 C 825.078125 92.21875 820.9375 108.238281 820.9375 117.421875 C 820.9375 127.769531 826.339844 141.808594 846.589844 141.808594 C 851.359375 141.808594 854.417969 140.910156 858.199219 139.828125 L 858.738281 139.289062 L 859.097656 128.488281 Z M 910.398438 140.371094 C 910.039062 132.988281 909.949219 130.46875 909.769531 121.109375 L 909.769531 114.359375 C 909.679688 105.808594 909.589844 100.859375 906.976562 97.078125 C 904.367188 93.390625 900.589844 92.21875 896.628906 92.21875 C 890.058594 92.21875 884.929688 95.371094 881.328125 97.53125 L 881.597656 69.808594 L 881.058594 69.179688 L 865.667969 71.609375 L 865.21875 72.148438 C 866.027344 80.878906 866.207031 84.121094 866.386719 95.730469 C 866.570312 103.019531 866.660156 110.308594 866.660156 117.601562 C 866.660156 126.511719 866.476562 131.820312 866.296875 140.640625 L 866.75 141.269531 C 873.410156 140.910156 874.757812 140.910156 882.046875 140.910156 L 882.589844 140.371094 C 881.957031 126.871094 881.867188 122.820312 881.777344 106.890625 C 883.488281 105.71875 885.648438 104.191406 888.707031 104.191406 C 893.660156 104.191406 894.019531 109.320312 894.378906 112.921875 C 894.558594 115.710938 894.648438 128.488281 894.648438 131.820312 C 894.648438 134.789062 894.558594 137.671875 894.558594 140.640625 L 895.007812 141.269531 C 901.488281 140.910156 902.929688 140.910156 909.859375 140.910156 Z M 915.261719 141 "/>
</svg>
