<?xml version="1.0" encoding="UTF-8"?>
<svg xmlns="http://www.w3.org/2000/svg" xmlns:xlink="http://www.w3.org/1999/xlink" width="975" height="1300" viewBox="0 0 975 1300">
<path fill-rule="nonzero" fill="rgb(98.823529%, 78.823529%, 9.019608%)" fill-opacity="1" d="M 50 50 L 925 50 L 925 410 L 50 410 Z M 50 50 "/>
<path fill-rule="nonzero" fill="rgb(34.901961%, 14.901961%, 14.901961%)" fill-opacity="1" d="M 117.457031 128.851562 C 106.835938 129.390625 104.316406 129.480469 92.796875 129.480469 L 92.617188 113.730469 L 113.675781 113.730469 L 114.304688 113.191406 L 114.847656 103.019531 L 114.394531 102.480469 L 92.617188 102.839844 L 92.617188 88.53125 C 102.785156 88.53125 104.855469 88.53125 115.746094 88.800781 L 116.195312 88.261719 L 116.824219 77.820312 L 116.375 77.460938 L 76.867188 77.460938 L 76.324219 78 C 76.867188 86.730469 77.046875 90.058594 77.046875 114.179688 C 77.046875 125.519531 76.867188 131.191406 76.597656 140.640625 L 77.046875 141 L 116.644531 141 L 117.367188 140.460938 L 117.996094 129.480469 Z M 142.5625 140.371094 C 142.113281 130.019531 141.664062 120.570312 141.664062 92.128906 C 141.664062 83.578125 141.753906 79.53125 142.113281 69.808594 L 141.484375 69.179688 L 126.09375 71.609375 L 125.734375 72.148438 C 126.632812 83.128906 126.722656 86.101562 126.902344 100.679688 C 126.996094 105.988281 126.996094 111.300781 126.996094 116.609375 C 126.996094 126.328125 126.8125 131.730469 126.453125 140.640625 L 126.996094 141.269531 C 133.023438 141 135.453125 140.910156 142.023438 141 Z M 191.347656 77.28125 L 179.917969 77.460938 L 179.375 78 C 179.738281 89.699219 180.007812 97.53125 180.007812 107.878906 C 180.007812 118.859375 179.738281 129.75 179.464844 140.730469 L 180.007812 141.269531 C 186.667969 141 188.105469 140.910156 195.308594 141 L 195.757812 140.460938 C 195.398438 130.648438 195.398438 128.398438 195.398438 119.21875 C 205.476562 119.308594 216.277344 119.308594 222.757812 111.390625 C 225.277344 108.328125 227.4375 103.199219 227.4375 96.898438 C 227.4375 93.03125 226.535156 84.480469 219.066406 80.25 C 213.667969 77.101562 206.015625 77.101562 199.265625 77.101562 L 191.347656 77.28125 M 195.398438 88.171875 C 197.375 88.078125 199.265625 88.078125 201.246094 88.078125 C 209.167969 88.261719 211.328125 92.308594 211.328125 97.53125 C 211.328125 98.789062 211.328125 104.011719 206.558594 106.621094 C 204.125 107.96875 200.796875 108.148438 195.398438 108.148438 Z M 259.65625 107.609375 L 262.175781 92.941406 L 261.636719 92.308594 C 261.007812 92.308594 260.375 92.21875 259.746094 92.21875 C 256.054688 92.21875 251.917969 94.289062 249.035156 100.949219 L 249.304688 92.671875 L 248.585938 91.949219 C 241.925781 93.390625 240.214844 93.660156 233.644531 94.648438 L 233.105469 95.191406 C 233.644531 101.941406 233.917969 105.988281 233.917969 118.5 C 233.917969 125.878906 233.824219 133.261719 233.644531 140.730469 L 234.1875 141.269531 C 240.847656 141 242.285156 140.910156 249.484375 141 L 249.9375 140.371094 C 249.574219 133.078125 249.035156 122.910156 249.035156 116.699219 C 249.035156 112.648438 249.035156 106.710938 255.15625 106.710938 C 256.6875 106.710938 257.585938 107.25 258.847656 107.96875 Z M 307.355469 127.679688 C 303.9375 129.480469 299.886719 131.550781 293.316406 131.550781 C 287.917969 131.550781 284.226562 129.839844 282.066406 126.601562 C 280.714844 124.710938 280.445312 122.910156 280.085938 121.109375 L 309.15625 120.570312 L 309.695312 119.941406 C 309.605469 115.53125 309.515625 111.03125 308.257812 106.53125 C 305.105469 95.910156 298.175781 93.75 295.117188 93.03125 C 292.867188 92.398438 290.796875 92.21875 288.726562 92.21875 C 274.597656 92.21875 265.234375 101.488281 265.234375 117.058594 C 265.234375 121.289062 265.957031 125.699219 267.394531 128.851562 C 272.617188 141 284.855469 142.078125 291.335938 142.078125 C 298.804688 142.078125 302.046875 140.730469 306.816406 138.839844 L 307.355469 138.121094 L 307.984375 127.949219 L 307.355469 127.679688 M 280.085938 111.570312 C 280.355469 108.78125 280.984375 105 284.40625 102.839844 C 285.484375 102.121094 286.746094 101.851562 288.007812 101.851562 C 290.976562 101.851562 292.777344 103.378906 293.765625 105 C 295.027344 106.980469 295.117188 109.140625 295.117188 111.210938 Z M 336.875 109.949219 C 333.8125 108.871094 331.382812 107.878906 331.382812 105.359375 C 331.382812 104.28125 332.105469 101.308594 337.683594 101.308594 C 343.175781 101.308594 346.683594 103.648438 348.933594 105.089844 L 349.746094 104.820312 L 350.644531 95.011719 L 350.195312 94.46875 C 345.964844 93.300781 342.273438 92.21875 336.425781 92.21875 C 332.015625 92.21875 323.195312 92.578125 318.515625 99.328125 C 317.34375 100.949219 316.085938 103.648438 316.085938 107.25 C 316.085938 116.878906 323.554688 119.761719 327.785156 121.378906 L 331.203125 122.640625 C 333.632812 123.449219 337.59375 124.800781 337.59375 128.039062 C 337.59375 130.289062 335.523438 132.71875 330.484375 132.71875 C 327.964844 132.71875 324.273438 131.910156 320.945312 130.199219 C 319.414062 129.390625 318.695312 128.761719 317.34375 127.679688 L 316.535156 128.039062 C 316.355469 132.71875 316.265625 133.710938 315.902344 138.210938 L 316.355469 139.019531 C 320.765625 140.640625 324.542969 142.078125 331.113281 142.078125 C 337.953125 142.078125 351.453125 140.820312 353.074219 127.949219 C 353.164062 127.230469 353.164062 126.601562 353.164062 125.96875 C 353.164062 116.070312 346.234375 113.460938 341.285156 111.570312 Z M 377.378906 140.371094 C 376.925781 133.441406 376.566406 128.128906 376.566406 115.710938 C 376.566406 108.058594 376.746094 100.320312 376.835938 92.671875 L 376.207031 91.949219 L 360.726562 94.648438 L 360.1875 95.191406 C 360.90625 102.03125 361.175781 105.179688 361.175781 117.960938 C 361.175781 127.769531 360.90625 133.261719 360.636719 140.640625 L 361.175781 141.269531 C 367.65625 141 369.457031 140.910156 376.746094 141 L 377.378906 140.371094 M 375.9375 83.308594 L 376.207031 71.070312 L 375.667969 70.53125 L 360.996094 72.328125 L 360.457031 72.960938 C 360.636719 76.199219 360.726562 78.089844 360.726562 80.25 C 360.726562 81.960938 360.726562 83.761719 360.636719 85.46875 L 361.265625 86.011719 C 367.386719 84.929688 369.097656 84.75 375.488281 83.941406 Z M 431.464844 140.460938 C 431.105469 132.359375 430.835938 126.960938 430.835938 115.171875 C 430.835938 91.410156 431.195312 81.601562 431.554688 69.71875 L 430.925781 69.179688 L 416.074219 71.519531 L 415.625 72.058594 C 416.164062 80.519531 416.253906 82.769531 416.164062 93.03125 C 409.414062 92.851562 400.953125 92.671875 394.113281 98.070312 C 387.816406 102.929688 385.203125 110.398438 385.203125 119.671875 C 385.203125 126.691406 387.09375 133.710938 392.40625 138.121094 C 396.363281 141.359375 401.226562 142.078125 404.195312 142.078125 C 410.585938 142.078125 413.914062 139.109375 416.074219 137.21875 L 415.894531 140.730469 L 416.34375 141.269531 C 422.554688 141 424.265625 141 431.015625 141 L 431.464844 140.460938 M 416.164062 103.828125 C 416.253906 115.800781 416.164062 118.140625 415.894531 129.03125 C 414.09375 130.109375 412.292969 131.191406 409.773438 131.191406 C 401.042969 131.191406 401.042969 120.03125 401.042969 118.230469 C 401.042969 111.300781 403.023438 103.558594 413.105469 103.558594 C 414.09375 103.558594 414.90625 103.648438 416.164062 103.828125 Z M 458.015625 140.371094 C 457.5625 133.441406 457.203125 128.128906 457.203125 115.710938 C 457.203125 108.058594 457.382812 100.320312 457.472656 92.671875 L 456.84375 91.949219 L 441.363281 94.648438 L 440.824219 95.191406 C 441.542969 102.03125 441.8125 105.179688 441.8125 117.960938 C 441.8125 127.769531 441.542969 133.261719 441.273438 140.640625 L 441.8125 141.269531 C 448.292969 141 450.09375 140.910156 457.382812 141 L 458.015625 140.371094 M 456.574219 83.308594 L 456.84375 71.070312 L 456.304688 70.53125 L 441.632812 72.328125 L 441.09375 72.960938 C 441.273438 76.199219 441.363281 78.089844 441.363281 80.25 C 441.363281 81.960938 441.363281 83.761719 441.273438 85.46875 L 441.902344 86.011719 C 448.023438 84.929688 449.734375 84.75 456.125 83.941406 Z M 513.816406 117.058594 C 513.816406 113.550781 513.816406 98.96875 501.214844 94.019531 C 497.253906 92.488281 492.574219 92.308594 490.234375 92.308594 C 474.574219 92.308594 465.753906 100.679688 465.753906 117.238281 C 465.753906 123 466.65625 128.851562 469.984375 133.710938 C 472.324219 137.21875 476.734375 142.078125 489.605469 142.078125 C 508.683594 142.078125 513.816406 130.558594 513.816406 117.058594 M 498.246094 116.96875 C 498.246094 124.351562 497.253906 132.539062 489.785156 132.539062 C 487.445312 132.539062 485.824219 131.460938 484.746094 130.46875 C 483.214844 128.941406 481.503906 125.878906 481.503906 117.148438 C 481.503906 114.539062 481.503906 108.78125 483.304688 105.628906 C 484.65625 103.199219 486.996094 101.578125 489.875 101.578125 C 492.394531 101.578125 494.464844 102.929688 495.636719 104.371094 C 497.796875 106.980469 498.246094 112.109375 498.246094 116.96875 Z M 592.746094 140.460938 C 592.386719 132.359375 592.117188 126.960938 592.117188 115.171875 C 592.117188 91.410156 592.476562 81.601562 592.835938 69.71875 L 592.207031 69.179688 L 577.355469 71.519531 L 576.90625 72.058594 C 577.445312 80.519531 577.535156 82.769531 577.445312 93.03125 C 570.695312 92.851562 562.234375 92.671875 555.394531 98.070312 C 549.097656 102.929688 546.484375 110.398438 546.484375 119.671875 C 546.484375 126.691406 548.375 133.710938 553.6875 138.121094 C 557.644531 141.359375 562.507812 142.078125 565.476562 142.078125 C 571.867188 142.078125 575.195312 139.109375 577.355469 137.21875 L 577.175781 140.730469 L 577.625 141.269531 C 583.835938 141 585.546875 141 592.296875 141 L 592.746094 140.460938 M 577.445312 103.828125 C 577.535156 115.800781 577.445312 118.140625 577.175781 129.03125 C 575.375 130.109375 573.574219 131.191406 571.054688 131.191406 C 562.324219 131.191406 562.324219 120.03125 562.324219 118.230469 C 562.324219 111.300781 564.304688 103.558594 574.386719 103.558594 C 575.375 103.558594 576.1875 103.648438 577.445312 103.828125 Z M 642.964844 127.679688 C 639.546875 129.480469 635.496094 131.550781 628.925781 131.550781 C 623.527344 131.550781 619.835938 129.839844 617.675781 126.601562 C 616.324219 124.710938 616.054688 122.910156 615.695312 121.109375 L 644.765625 120.570312 L 645.304688 119.941406 C 645.214844 115.53125 645.125 111.03125 643.867188 106.53125 C 640.714844 95.910156 633.785156 93.75 630.726562 93.03125 C 628.476562 92.398438 626.40625 92.21875 624.335938 92.21875 C 610.207031 92.21875 600.84375 101.488281 600.84375 117.058594 C 600.84375 121.289062 601.566406 125.699219 603.003906 128.851562 C 608.226562 141 620.464844 142.078125 626.945312 142.078125 C 634.414062 142.078125 637.65625 140.730469 642.425781 138.839844 L 642.964844 138.121094 L 643.59375 127.949219 L 642.964844 127.679688 M 615.695312 111.570312 C 615.964844 108.78125 616.59375 105 620.015625 102.839844 C 621.09375 102.121094 622.355469 101.851562 623.617188 101.851562 C 626.585938 101.851562 628.386719 103.378906 629.375 105 C 630.636719 106.980469 630.726562 109.140625 630.726562 111.210938 Z M 705.875 102.300781 C 698.316406 99.148438 694.355469 97.53125 694.355469 93.480469 C 694.355469 90.691406 696.964844 87.179688 702.90625 87.179688 C 709.746094 87.179688 713.792969 89.96875 717.125 92.21875 L 717.933594 91.859375 L 718.65625 80.070312 L 718.203125 79.441406 C 714.335938 77.820312 710.285156 76.109375 701.554688 76.109375 C 684.636719 76.109375 678.785156 85.648438 678.785156 95.28125 C 678.785156 106.171875 687.246094 110.128906 692.285156 112.558594 L 695.253906 113.910156 C 701.464844 116.519531 706.234375 118.769531 706.234375 123.539062 C 706.234375 126.960938 703.265625 131.011719 695.433594 131.011719 C 687.246094 131.011719 682.65625 127.410156 680.042969 125.339844 L 679.144531 125.609375 L 678.515625 138.300781 L 679.054688 139.019531 C 680.042969 139.378906 681.035156 139.828125 682.023438 140.101562 C 684.09375 140.820312 689.40625 142.351562 696.15625 142.351562 C 698.855469 142.351562 705.695312 142.078125 711.09375 139.558594 C 718.65625 135.871094 721.894531 129.03125 721.894531 121.378906 C 721.894531 116.25 719.914062 110.761719 715.144531 107.070312 C 712.714844 105.269531 710.375 104.191406 708.214844 103.199219 Z M 770.496094 114.179688 C 770.585938 106.078125 770.585938 102.570312 768.246094 98.789062 C 766.445312 95.910156 762.847656 92.308594 751.328125 92.308594 C 743.585938 92.308594 738.816406 93.75 733.6875 95.28125 L 733.148438 96 L 732.695312 105.808594 L 733.417969 106.171875 C 736.566406 104.910156 742.417969 102.570312 748.445312 102.570312 C 751.777344 102.570312 753.125 103.109375 754.296875 104.28125 C 755.195312 105.179688 755.46875 106.800781 755.46875 108.148438 C 744.667969 109.589844 739.625 110.578125 734.226562 113.910156 C 729.1875 117.058594 727.476562 122.191406 727.476562 126.238281 C 727.476562 135.871094 734.40625 142.078125 743.226562 142.078125 C 749.976562 142.078125 753.847656 138.839844 755.738281 137.308594 L 755.738281 140.640625 L 756.277344 141.269531 C 762.757812 141 764.738281 140.910156 770.585938 141 L 771.035156 140.371094 C 770.40625 131.550781 770.40625 129.300781 770.40625 120.839844 L 770.496094 114.179688 M 755.648438 128.488281 C 753.757812 129.570312 751.328125 130.828125 748.355469 130.828125 C 745.117188 130.828125 742.417969 129.121094 742.417969 125.339844 C 742.417969 119.398438 749.527344 118.410156 755.648438 117.601562 Z M 825.125 140.371094 C 824.675781 132.449219 824.675781 129.929688 824.496094 121.109375 L 824.496094 114.089844 C 824.40625 105.449219 824.316406 101.308594 822.066406 97.621094 C 819.273438 92.941406 814.144531 92.21875 810.90625 92.21875 C 805.414062 92.21875 800.644531 95.101562 796.503906 97.53125 L 796.683594 92.578125 L 795.785156 91.949219 C 788.855469 93.390625 787.324219 93.660156 780.574219 94.558594 L 780.035156 95.191406 C 780.753906 103.019531 781.296875 108.691406 781.296875 123.359375 C 781.296875 129.121094 781.203125 134.878906 781.113281 140.640625 L 781.65625 141.179688 C 788.136719 140.910156 789.484375 140.910156 796.683594 140.910156 L 797.226562 140.371094 C 796.683594 126.511719 796.59375 123 796.503906 106.890625 C 798.394531 105.628906 800.554688 104.101562 803.433594 104.101562 C 808.386719 104.101562 808.835938 109.410156 809.105469 112.648438 C 809.285156 115.621094 809.375 127.949219 809.375 131.371094 C 809.375 134.429688 809.285156 137.578125 809.285156 140.640625 L 809.824219 141.179688 C 815.765625 141 817.296875 140.910156 824.496094 140.910156 Z M 860.585938 130.648438 C 859.054688 131.101562 857.972656 131.460938 856.445312 131.460938 C 851.855469 131.460938 851.496094 128.578125 851.3125 127.230469 C 851.042969 124.890625 851.042969 119.941406 851.132812 116.339844 L 851.3125 103.648438 L 859.414062 104.011719 L 859.953125 103.46875 L 860.855469 93.839844 L 860.3125 93.300781 L 851.3125 93.300781 L 851.585938 78.179688 L 850.953125 77.640625 C 844.835938 79.441406 843.214844 79.890625 836.824219 81.511719 L 836.464844 82.140625 L 836.554688 93.390625 L 831.695312 93.210938 L 831.15625 93.660156 L 830.34375 103.289062 L 830.882812 103.828125 L 836.554688 103.648438 L 836.285156 117.960938 C 836.195312 120.210938 836.105469 122.460938 836.105469 124.800781 C 836.105469 133.078125 836.285156 141.988281 850.324219 141.988281 C 853.835938 141.988281 856.625 141.449219 859.773438 140.910156 L 860.40625 140.28125 L 861.304688 131.011719 Z M 907.296875 114.179688 C 907.386719 106.078125 907.386719 102.570312 905.046875 98.789062 C 903.246094 95.910156 899.648438 92.308594 888.128906 92.308594 C 880.386719 92.308594 875.617188 93.75 870.488281 95.28125 L 869.949219 96 L 869.496094 105.808594 L 870.21875 106.171875 C 873.367188 104.910156 879.21875 102.570312 885.246094 102.570312 C 888.578125 102.570312 889.925781 103.109375 891.097656 104.28125 C 891.996094 105.179688 892.269531 106.800781 892.269531 108.148438 C 881.46875 109.589844 876.425781 110.578125 871.027344 113.910156 C 865.988281 117.058594 864.277344 122.191406 864.277344 126.238281 C 864.277344 135.871094 871.207031 142.078125 880.027344 142.078125 C 886.777344 142.078125 890.648438 138.839844 892.539062 137.308594 L 892.539062 140.640625 L 893.078125 141.269531 C 899.558594 141 901.539062 140.910156 907.386719 141 L 907.835938 140.371094 C 907.207031 131.550781 907.207031 129.300781 907.207031 120.839844 L 907.296875 114.179688 M 892.449219 128.488281 C 890.558594 129.570312 888.128906 130.828125 885.15625 130.828125 C 881.917969 130.828125 879.21875 129.121094 879.21875 125.339844 C 879.21875 119.398438 886.328125 118.410156 892.449219 117.601562 Z M 912.425781 141 "/>
<path fill-rule="nonzero" fill="rgb(34.901961%, 14.901961%, 14.901961%)" fill-opacity="1" d="M 226.175781 261 C 234.546875 261.179688 244.894531 261.359375 251.644531 256.679688 C 257.585938 252.449219 259.207031 246.511719 259.207031 241.46875 C 259.207031 235.710938 256.773438 230.398438 251.644531 227.878906 C 249.933594 226.980469 247.957031 226.621094 246.066406 226.261719 C 249.125 225 252.726562 223.378906 255.066406 218.609375 C 256.054688 216.539062 256.503906 214.378906 256.503906 212.308594 C 256.503906 209.429688 255.785156 205.46875 252.90625 202.230469 C 249.125 198.179688 243.273438 197.101562 234.457031 197.101562 C 231.394531 197.101562 225.90625 197.191406 222.84375 197.28125 L 210.246094 197.460938 L 209.707031 198 C 210.066406 206.640625 210.15625 209.96875 210.15625 222.390625 C 210.15625 235.171875 210.066406 247.859375 209.886719 260.640625 L 210.515625 261 L 226.175781 261 M 225.546875 233.640625 C 232.386719 233.460938 236.34375 233.460938 238.957031 234.988281 C 241.566406 236.609375 242.554688 239.488281 242.554688 242.371094 C 242.554688 246.421875 240.304688 248.941406 236.976562 250.109375 C 234.273438 251.011719 229.414062 251.011719 225.546875 250.921875 L 225.546875 233.640625 M 225.546875 207.179688 C 227.433594 207.179688 229.957031 207.089844 231.484375 207.089844 C 236.34375 207.089844 240.753906 208.800781 240.753906 214.648438 C 240.753906 219.421875 237.246094 221.398438 236.164062 221.941406 C 233.914062 222.929688 229.144531 222.929688 225.546875 222.929688 Z M 307.625 234.179688 C 307.714844 226.078125 307.714844 222.570312 305.375 218.789062 C 303.574219 215.910156 299.976562 212.308594 288.457031 212.308594 C 280.714844 212.308594 275.945312 213.75 270.816406 215.28125 L 270.277344 216 L 269.824219 225.808594 L 270.546875 226.171875 C 273.695312 224.910156 279.546875 222.570312 285.574219 222.570312 C 288.90625 222.570312 290.253906 223.109375 291.425781 224.28125 C 292.324219 225.179688 292.597656 226.800781 292.597656 228.148438 C 281.796875 229.589844 276.753906 230.578125 271.355469 233.910156 C 266.316406 237.058594 264.605469 242.191406 264.605469 246.238281 C 264.605469 255.871094 271.535156 262.078125 280.355469 262.078125 C 287.105469 262.078125 290.976562 258.839844 292.867188 257.308594 L 292.867188 260.640625 L 293.40625 261.269531 C 299.886719 261 301.867188 260.910156 307.714844 261 L 308.164062 260.371094 C 307.535156 251.550781 307.535156 249.300781 307.535156 240.839844 L 307.625 234.179688 M 292.777344 248.488281 C 290.886719 249.570312 288.457031 250.828125 285.484375 250.828125 C 282.246094 250.828125 279.546875 249.121094 279.546875 245.339844 C 279.546875 239.398438 286.65625 238.410156 292.777344 237.601562 Z M 344.164062 227.609375 L 346.683594 212.941406 L 346.144531 212.308594 C 345.515625 212.308594 344.882812 212.21875 344.253906 212.21875 C 340.5625 212.21875 336.425781 214.289062 333.542969 220.949219 L 333.8125 212.671875 L 333.09375 211.949219 C 326.433594 213.390625 324.722656 213.660156 318.152344 214.648438 L 317.613281 215.191406 C 318.152344 221.941406 318.425781 225.988281 318.425781 238.5 C 318.425781 245.878906 318.332031 253.261719 318.152344 260.730469 L 318.695312 261.269531 C 325.355469 261 326.792969 260.910156 333.992188 261 L 334.445312 260.371094 C 334.082031 253.078125 333.542969 242.910156 333.542969 236.699219 C 333.542969 232.648438 333.542969 226.710938 339.664062 226.710938 C 341.195312 226.710938 342.09375 227.25 343.355469 227.96875 Z M 358.382812 261.179688 L 360.183594 261.179688 C 374.582031 261.179688 383.855469 260.460938 390.695312 253.171875 C 397.082031 246.328125 397.714844 238.230469 397.714844 234.449219 C 397.714844 221.941406 390.515625 212.21875 378.273438 212.21875 C 372.332031 212.21875 369.183594 214.199219 366.664062 215.820312 L 367.203125 189.71875 L 366.484375 189.179688 L 351.542969 191.519531 L 351.003906 192.148438 C 351.722656 199.710938 351.992188 202.769531 351.992188 220.859375 C 351.992188 228.601562 351.902344 243.898438 351.8125 260.640625 L 352.445312 261.269531 L 358.382812 261.179688 M 367.023438 224.730469 C 368.824219 223.828125 370.535156 222.929688 372.875 222.929688 C 378.8125 222.929688 382.234375 228.238281 382.234375 236.519531 C 382.234375 243 379.355469 247.230469 376.925781 248.941406 C 373.953125 251.011719 370.082031 251.101562 367.023438 251.191406 Z M 446.3125 234.179688 C 446.402344 226.078125 446.402344 222.570312 444.0625 218.789062 C 442.261719 215.910156 438.664062 212.308594 427.144531 212.308594 C 419.402344 212.308594 414.632812 213.75 409.503906 215.28125 L 408.964844 216 L 408.511719 225.808594 L 409.234375 226.171875 C 412.382812 224.910156 418.234375 222.570312 424.261719 222.570312 C 427.59375 222.570312 428.941406 223.109375 430.113281 224.28125 C 431.011719 225.179688 431.285156 226.800781 431.285156 228.148438 C 420.484375 229.589844 415.441406 230.578125 410.042969 233.910156 C 405.003906 237.058594 403.292969 242.191406 403.292969 246.238281 C 403.292969 255.871094 410.222656 262.078125 419.042969 262.078125 C 425.792969 262.078125 429.664062 258.839844 431.554688 257.308594 L 431.554688 260.640625 L 432.09375 261.269531 C 438.574219 261 440.554688 260.910156 446.402344 261 L 446.851562 260.371094 C 446.222656 251.550781 446.222656 249.300781 446.222656 240.839844 L 446.3125 234.179688 M 431.464844 248.488281 C 429.574219 249.570312 427.144531 250.828125 424.171875 250.828125 C 420.933594 250.828125 418.234375 249.121094 418.234375 245.339844 C 418.234375 239.398438 425.34375 238.410156 431.464844 237.601562 Z M 482.855469 227.609375 L 485.375 212.941406 L 484.835938 212.308594 C 484.207031 212.308594 483.574219 212.21875 482.945312 212.21875 C 479.253906 212.21875 475.117188 214.289062 472.234375 220.949219 L 472.503906 212.671875 L 471.785156 211.949219 C 465.125 213.390625 463.414062 213.660156 456.84375 214.648438 L 456.304688 215.191406 C 456.84375 221.941406 457.117188 225.988281 457.117188 238.5 C 457.117188 245.878906 457.023438 253.261719 456.84375 260.730469 L 457.386719 261.269531 C 464.046875 261 465.484375 260.910156 472.683594 261 L 473.136719 260.371094 C 472.773438 253.078125 472.234375 242.910156 472.234375 236.699219 C 472.234375 232.648438 472.234375 226.710938 478.355469 226.710938 C 479.886719 226.710938 480.785156 227.25 482.046875 227.96875 Z M 530.644531 234.179688 C 530.734375 226.078125 530.734375 222.570312 528.394531 218.789062 C 526.59375 215.910156 522.996094 212.308594 511.476562 212.308594 C 503.734375 212.308594 498.964844 213.75 493.835938 215.28125 L 493.296875 216 L 492.84375 225.808594 L 493.566406 226.171875 C 496.714844 224.910156 502.566406 222.570312 508.59375 222.570312 C 511.925781 222.570312 513.273438 223.109375 514.445312 224.28125 C 515.34375 225.179688 515.617188 226.800781 515.617188 228.148438 C 504.816406 229.589844 499.773438 230.578125 494.375 233.910156 C 489.335938 237.058594 487.625 242.191406 487.625 246.238281 C 487.625 255.871094 494.554688 262.078125 503.375 262.078125 C 510.125 262.078125 513.996094 258.839844 515.886719 257.308594 L 515.886719 260.640625 L 516.425781 261.269531 C 522.90625 261 524.886719 260.910156 530.734375 261 L 531.183594 260.371094 C 530.554688 251.550781 530.554688 249.300781 530.554688 240.839844 L 530.644531 234.179688 M 515.796875 248.488281 C 513.90625 249.570312 511.476562 250.828125 508.503906 250.828125 C 505.265625 250.828125 502.566406 249.121094 502.566406 245.339844 C 502.566406 239.398438 509.675781 238.410156 515.796875 237.601562 Z M 593.464844 222.300781 C 585.90625 219.148438 581.945312 217.53125 581.945312 213.480469 C 581.945312 210.691406 584.554688 207.179688 590.496094 207.179688 C 597.335938 207.179688 601.382812 209.96875 604.714844 212.21875 L 605.523438 211.859375 L 606.246094 200.070312 L 605.792969 199.441406 C 601.925781 197.820312 597.875 196.109375 589.144531 196.109375 C 572.226562 196.109375 566.375 205.648438 566.375 215.28125 C 566.375 226.171875 574.835938 230.128906 579.875 232.558594 L 582.84375 233.910156 C 589.054688 236.519531 593.824219 238.769531 593.824219 243.539062 C 593.824219 246.960938 590.855469 251.011719 583.023438 251.011719 C 574.835938 251.011719 570.246094 247.410156 567.632812 245.339844 L 566.734375 245.609375 L 566.105469 258.300781 L 566.644531 259.019531 C 567.632812 259.378906 568.625 259.828125 569.613281 260.101562 C 571.683594 260.820312 576.996094 262.351562 583.746094 262.351562 C 586.445312 262.351562 593.285156 262.078125 598.683594 259.558594 C 606.246094 255.871094 609.484375 249.03125 609.484375 241.378906 C 609.484375 236.25 607.503906 230.761719 602.734375 227.070312 C 600.304688 225.269531 597.964844 224.191406 595.804688 223.199219 Z M 643.238281 250.648438 C 641.707031 251.101562 640.625 251.460938 639.097656 251.460938 C 634.507812 251.460938 634.148438 248.578125 633.964844 247.230469 C 633.695312 244.890625 633.695312 239.941406 633.785156 236.339844 L 633.964844 223.648438 L 642.066406 224.011719 L 642.605469 223.46875 L 643.507812 213.839844 L 642.964844 213.300781 L 633.964844 213.300781 L 634.238281 198.179688 L 633.605469 197.640625 C 627.488281 199.441406 625.867188 199.890625 619.476562 201.511719 L 619.117188 202.140625 L 619.207031 213.390625 L 614.347656 213.210938 L 613.808594 213.660156 L 612.996094 223.289062 L 613.535156 223.828125 L 619.207031 223.648438 L 618.9375 237.960938 C 618.847656 240.210938 618.757812 242.460938 618.757812 244.800781 C 618.757812 253.078125 618.9375 261.988281 632.976562 261.988281 C 636.488281 261.988281 639.277344 261.449219 642.425781 260.910156 L 643.058594 260.28125 L 643.957031 251.011719 Z M 689.945312 234.179688 C 690.035156 226.078125 690.035156 222.570312 687.695312 218.789062 C 685.894531 215.910156 682.296875 212.308594 670.777344 212.308594 C 663.035156 212.308594 658.265625 213.75 653.136719 215.28125 L 652.597656 216 L 652.144531 225.808594 L 652.867188 226.171875 C 656.015625 224.910156 661.867188 222.570312 667.894531 222.570312 C 671.226562 222.570312 672.574219 223.109375 673.746094 224.28125 C 674.644531 225.179688 674.917969 226.800781 674.917969 228.148438 C 664.117188 229.589844 659.074219 230.578125 653.675781 233.910156 C 648.636719 237.058594 646.925781 242.191406 646.925781 246.238281 C 646.925781 255.871094 653.855469 262.078125 662.675781 262.078125 C 669.425781 262.078125 673.296875 258.839844 675.1875 257.308594 L 675.1875 260.640625 L 675.726562 261.269531 C 682.207031 261 684.1875 260.910156 690.035156 261 L 690.484375 260.371094 C 689.855469 251.550781 689.855469 249.300781 689.855469 240.839844 L 689.945312 234.179688 M 675.097656 248.488281 C 673.207031 249.570312 670.777344 250.828125 667.804688 250.828125 C 664.566406 250.828125 661.867188 249.121094 661.867188 245.339844 C 661.867188 239.398438 668.976562 238.410156 675.097656 237.601562 Z M 725.675781 250.648438 C 724.144531 251.101562 723.0625 251.460938 721.535156 251.460938 C 716.945312 251.460938 716.585938 248.578125 716.402344 247.230469 C 716.132812 244.890625 716.132812 239.941406 716.222656 236.339844 L 716.402344 223.648438 L 724.503906 224.011719 L 725.042969 223.46875 L 725.945312 213.839844 L 725.402344 213.300781 L 716.402344 213.300781 L 716.675781 198.179688 L 716.042969 197.640625 C 709.925781 199.441406 708.304688 199.890625 701.914062 201.511719 L 701.554688 202.140625 L 701.644531 213.390625 L 696.785156 213.210938 L 696.246094 213.660156 L 695.433594 223.289062 L 695.972656 223.828125 L 701.644531 223.648438 L 701.375 237.960938 C 701.285156 240.210938 701.195312 242.460938 701.195312 244.800781 C 701.195312 253.078125 701.375 261.988281 715.414062 261.988281 C 718.925781 261.988281 721.714844 261.449219 724.863281 260.910156 L 725.496094 260.28125 L 726.394531 251.011719 Z M 772.292969 247.679688 C 768.875 249.480469 764.824219 251.550781 758.253906 251.550781 C 752.855469 251.550781 749.164062 249.839844 747.003906 246.601562 C 745.652344 244.710938 745.382812 242.910156 745.023438 241.109375 L 774.09375 240.570312 L 774.632812 239.941406 C 774.542969 235.53125 774.453125 231.03125 773.195312 226.53125 C 770.042969 215.910156 763.113281 213.75 760.054688 213.03125 C 757.804688 212.398438 755.734375 212.21875 753.664062 212.21875 C 739.535156 212.21875 730.171875 221.488281 730.171875 237.058594 C 730.171875 241.289062 730.894531 245.699219 732.332031 248.851562 C 737.554688 261 749.792969 262.078125 756.273438 262.078125 C 763.742188 262.078125 766.984375 260.730469 771.753906 258.839844 L 772.292969 258.121094 L 772.921875 247.949219 L 772.292969 247.679688 M 745.023438 231.570312 C 745.292969 228.78125 745.921875 225 749.34375 222.839844 C 750.421875 222.121094 751.683594 221.851562 752.945312 221.851562 C 755.914062 221.851562 757.714844 223.378906 758.703125 225 C 759.964844 226.980469 760.054688 229.140625 760.054688 231.210938 Z M 777.515625 261 "/>
<path fill-rule="nonzero" fill="rgb(34.901961%, 14.901961%, 14.901961%)" fill-opacity="1" d="M 277.921875 317.191406 C 270.722656 317.460938 269.554688 317.460938 261.992188 317.460938 L 261.542969 318 C 262.171875 328.171875 262.171875 330.78125 262.261719 341.398438 C 258.304688 341.488281 254.34375 341.578125 250.292969 341.578125 C 247.144531 341.578125 243.902344 341.488281 240.753906 341.488281 L 240.933594 317.730469 L 240.484375 317.191406 C 233.554688 317.460938 232.203125 317.460938 224.375 317.460938 L 223.832031 318 C 224.285156 327.269531 224.824219 338.339844 224.824219 360.660156 C 224.824219 368.761719 224.644531 373.171875 224.464844 380.730469 L 224.914062 381.269531 C 231.484375 381 233.101562 380.910156 241.023438 381 L 241.472656 380.460938 C 240.933594 369.300781 240.84375 366.058594 240.753906 353.011719 C 244.714844 352.828125 248.042969 352.738281 251.554688 352.738281 C 255.152344 352.738281 258.753906 352.828125 262.351562 352.921875 C 262.535156 365.070312 262.535156 368.039062 262.082031 380.730469 L 262.535156 381.269531 C 269.285156 381 271.082031 380.910156 278.734375 381 L 279.183594 380.460938 C 278.464844 365.339844 278.191406 350.308594 278.191406 335.191406 C 278.191406 328.890625 278.285156 324.660156 278.375 317.730469 Z M 305.914062 380.371094 C 305.460938 373.441406 305.101562 368.128906 305.101562 355.710938 C 305.101562 348.058594 305.28125 340.320312 305.371094 332.671875 L 304.742188 331.949219 L 289.261719 334.648438 L 288.722656 335.191406 C 289.441406 342.03125 289.710938 345.179688 289.710938 357.960938 C 289.710938 367.769531 289.441406 373.261719 289.171875 380.640625 L 289.710938 381.269531 C 296.191406 381 297.992188 380.910156 305.28125 381 L 305.914062 380.371094 M 304.472656 323.308594 L 304.742188 311.070312 L 304.203125 310.53125 L 289.53125 312.328125 L 288.992188 312.960938 C 289.171875 316.199219 289.261719 318.089844 289.261719 320.25 C 289.261719 321.960938 289.261719 323.761719 289.171875 325.46875 L 289.800781 326.011719 C 295.921875 324.929688 297.632812 324.75 304.023438 323.941406 Z M 334.804688 349.949219 C 331.742188 348.871094 329.3125 347.878906 329.3125 345.359375 C 329.3125 344.28125 330.035156 341.308594 335.613281 341.308594 C 341.105469 341.308594 344.613281 343.648438 346.863281 345.089844 L 347.675781 344.820312 L 348.574219 335.011719 L 348.125 334.46875 C 343.894531 333.300781 340.203125 332.21875 334.355469 332.21875 C 329.945312 332.21875 321.125 332.578125 316.445312 339.328125 C 315.273438 340.949219 314.015625 343.648438 314.015625 347.25 C 314.015625 356.878906 321.484375 359.761719 325.714844 361.378906 L 329.132812 362.640625 C 331.5625 363.449219 335.523438 364.800781 335.523438 368.039062 C 335.523438 370.289062 333.453125 372.71875 328.414062 372.71875 C 325.894531 372.71875 322.203125 371.910156 318.875 370.199219 C 317.34375 369.390625 316.625 368.761719 315.273438 367.679688 L 314.464844 368.039062 C 314.285156 372.71875 314.195312 373.710938 313.832031 378.210938 L 314.285156 379.019531 C 318.695312 380.640625 322.472656 382.078125 329.042969 382.078125 C 335.882812 382.078125 349.382812 380.820312 351.003906 367.949219 C 351.09375 367.230469 351.09375 366.601562 351.09375 365.96875 C 351.09375 356.070312 344.164062 353.460938 339.214844 351.570312 Z M 384.214844 370.648438 C 382.683594 371.101562 381.601562 371.460938 380.074219 371.460938 C 375.484375 371.460938 375.125 368.578125 374.941406 367.230469 C 374.671875 364.890625 374.671875 359.941406 374.761719 356.339844 L 374.941406 343.648438 L 383.042969 344.011719 L 383.582031 343.46875 L 384.484375 333.839844 L 383.941406 333.300781 L 374.941406 333.300781 L 375.214844 318.179688 L 374.582031 317.640625 C 368.464844 319.441406 366.84375 319.890625 360.453125 321.511719 L 360.09375 322.140625 L 360.183594 333.390625 L 355.324219 333.210938 L 354.785156 333.660156 L 353.972656 343.289062 L 354.511719 343.828125 L 360.183594 343.648438 L 359.914062 357.960938 C 359.824219 360.210938 359.734375 362.460938 359.734375 364.800781 C 359.734375 373.078125 359.914062 381.988281 373.953125 381.988281 C 377.464844 381.988281 380.253906 381.449219 383.402344 380.910156 L 384.035156 380.28125 L 384.933594 371.011719 Z M 436.683594 357.058594 C 436.683594 353.550781 436.683594 338.96875 424.082031 334.019531 C 420.121094 332.488281 415.441406 332.308594 413.101562 332.308594 C 397.441406 332.308594 388.621094 340.679688 388.621094 357.238281 C 388.621094 363 389.523438 368.851562 392.851562 373.710938 C 395.191406 377.21875 399.601562 382.078125 412.472656 382.078125 C 431.550781 382.078125 436.683594 370.558594 436.683594 357.058594 M 421.113281 356.96875 C 421.113281 364.351562 420.121094 372.539062 412.652344 372.539062 C 410.3125 372.539062 408.691406 371.460938 407.613281 370.46875 C 406.082031 368.941406 404.371094 365.878906 404.371094 357.148438 C 404.371094 354.539062 404.371094 348.78125 406.171875 345.628906 C 407.523438 343.199219 409.863281 341.578125 412.742188 341.578125 C 415.261719 341.578125 417.332031 342.929688 418.503906 344.371094 C 420.664062 346.980469 421.113281 352.109375 421.113281 356.96875 Z M 471.242188 347.609375 L 473.761719 332.941406 L 473.222656 332.308594 C 472.59375 332.308594 471.960938 332.21875 471.332031 332.21875 C 467.640625 332.21875 463.503906 334.289062 460.621094 340.949219 L 460.890625 332.671875 L 460.171875 331.949219 C 453.511719 333.390625 451.800781 333.660156 445.230469 334.648438 L 444.691406 335.191406 C 445.230469 341.941406 445.503906 345.988281 445.503906 358.5 C 445.503906 365.878906 445.410156 373.261719 445.230469 380.730469 L 445.773438 381.269531 C 452.433594 381 453.871094 380.910156 461.070312 381 L 461.523438 380.371094 C 461.160156 373.078125 460.621094 362.910156 460.621094 356.699219 C 460.621094 352.648438 460.621094 346.710938 466.742188 346.710938 C 468.273438 346.710938 469.171875 347.25 470.433594 347.96875 Z M 495.273438 380.371094 C 494.820312 373.441406 494.460938 368.128906 494.460938 355.710938 C 494.460938 348.058594 494.640625 340.320312 494.730469 332.671875 L 494.101562 331.949219 L 478.621094 334.648438 L 478.082031 335.191406 C 478.800781 342.03125 479.070312 345.179688 479.070312 357.960938 C 479.070312 367.769531 478.800781 373.261719 478.53125 380.640625 L 479.070312 381.269531 C 485.550781 381 487.351562 380.910156 494.640625 381 L 495.273438 380.371094 M 493.832031 323.308594 L 494.101562 311.070312 L 493.5625 310.53125 L 478.890625 312.328125 L 478.351562 312.960938 C 478.53125 316.199219 478.621094 318.089844 478.621094 320.25 C 478.621094 321.960938 478.621094 323.761719 478.53125 325.46875 L 479.160156 326.011719 C 485.28125 324.929688 486.992188 324.75 493.382812 323.941406 Z M 540.453125 368.039062 C 538.023438 369.480469 535.683594 370.921875 531.09375 370.921875 C 520.921875 370.921875 518.851562 362.460938 518.851562 357.058594 C 518.851562 350.488281 521.734375 342.929688 530.464844 342.929688 C 534.421875 342.929688 536.582031 344.371094 539.285156 346.171875 L 540.183594 345.898438 C 540.542969 341.128906 540.632812 339.871094 541.351562 335.101562 L 540.902344 334.558594 C 536.941406 333.300781 533.523438 332.21875 528.304688 332.21875 C 507.152344 332.21875 503.011719 348.238281 503.011719 357.421875 C 503.011719 367.769531 508.414062 381.808594 528.664062 381.808594 C 533.433594 381.808594 536.492188 380.910156 540.273438 379.828125 L 540.8125 379.289062 L 541.171875 368.488281 Z M 586.714844 317.28125 L 575.285156 317.460938 L 574.742188 318 C 575.105469 329.699219 575.375 337.53125 575.375 347.878906 C 575.375 358.859375 575.105469 369.75 574.832031 380.730469 L 575.375 381.269531 C 582.035156 381 583.472656 380.910156 590.675781 381 L 591.125 380.460938 C 590.765625 370.648438 590.765625 368.398438 590.765625 359.21875 C 600.84375 359.308594 611.644531 359.308594 618.125 351.390625 C 620.644531 348.328125 622.804688 343.199219 622.804688 336.898438 C 622.804688 333.03125 621.902344 324.480469 614.433594 320.25 C 609.035156 317.101562 601.382812 317.101562 594.632812 317.101562 L 586.714844 317.28125 M 590.765625 328.171875 C 592.742188 328.078125 594.632812 328.078125 596.613281 328.078125 C 604.535156 328.261719 606.695312 332.308594 606.695312 337.53125 C 606.695312 338.789062 606.695312 344.011719 601.925781 346.621094 C 599.492188 347.96875 596.164062 348.148438 590.765625 348.148438 Z M 669.0625 354.179688 C 669.152344 346.078125 669.152344 342.570312 666.8125 338.789062 C 665.011719 335.910156 661.414062 332.308594 649.894531 332.308594 C 642.152344 332.308594 637.382812 333.75 632.253906 335.28125 L 631.714844 336 L 631.261719 345.808594 L 631.984375 346.171875 C 635.132812 344.910156 640.984375 342.570312 647.011719 342.570312 C 650.34375 342.570312 651.691406 343.109375 652.863281 344.28125 C 653.761719 345.179688 654.035156 346.800781 654.035156 348.148438 C 643.234375 349.589844 638.191406 350.578125 632.792969 353.910156 C 627.753906 357.058594 626.042969 362.191406 626.042969 366.238281 C 626.042969 375.871094 632.972656 382.078125 641.792969 382.078125 C 648.542969 382.078125 652.414062 378.839844 654.304688 377.308594 L 654.304688 380.640625 L 654.84375 381.269531 C 661.324219 381 663.304688 380.910156 669.152344 381 L 669.601562 380.371094 C 668.972656 371.550781 668.972656 369.300781 668.972656 360.839844 L 669.0625 354.179688 M 654.214844 368.488281 C 652.324219 369.570312 649.894531 370.828125 646.921875 370.828125 C 643.683594 370.828125 640.984375 369.121094 640.984375 365.339844 C 640.984375 359.398438 648.09375 358.410156 654.214844 357.601562 Z M 705.601562 347.609375 L 708.121094 332.941406 L 707.582031 332.308594 C 706.953125 332.308594 706.320312 332.21875 705.691406 332.21875 C 702 332.21875 697.863281 334.289062 694.980469 340.949219 L 695.25 332.671875 L 694.53125 331.949219 C 687.871094 333.390625 686.160156 333.660156 679.589844 334.648438 L 679.050781 335.191406 C 679.589844 341.941406 679.863281 345.988281 679.863281 358.5 C 679.863281 365.878906 679.769531 373.261719 679.589844 380.730469 L 680.132812 381.269531 C 686.792969 381 688.230469 380.910156 695.429688 381 L 695.882812 380.371094 C 695.519531 373.078125 694.980469 362.910156 694.980469 356.699219 C 694.980469 352.648438 694.980469 346.710938 701.101562 346.710938 C 702.632812 346.710938 703.53125 347.25 704.792969 347.96875 Z M 759.601562 379.828125 C 751.140625 365.519531 750.242188 363.898438 743.402344 351.570312 C 749.613281 343.109375 750.242188 342.210938 756.632812 334.019531 L 756.179688 333.121094 L 741.511719 333.300781 L 740.613281 333.929688 C 733.589844 346.078125 732.691406 347.519531 728.550781 353.730469 L 728.550781 343.738281 C 728.640625 326.910156 728.730469 323.308594 729.179688 309.71875 L 728.460938 309.179688 L 712.800781 311.519531 L 712.261719 312.148438 C 712.890625 320.878906 713.160156 325.109375 713.339844 336.898438 C 713.519531 351.480469 713.519531 366.058594 713.429688 380.640625 L 714.0625 381.269531 C 720.089844 381 721.800781 381 728.640625 381 L 729.179688 380.371094 L 728.640625 365.160156 L 728.550781 354.808594 C 736.382812 369.210938 737.371094 371.191406 741.960938 380.730469 L 742.769531 381.269531 L 758.972656 380.640625 Z M 758.523438 381 "/>
</svg>
