<?xml version="1.0" encoding="UTF-8"?>
<svg xmlns="http://www.w3.org/2000/svg" xmlns:xlink="http://www.w3.org/1999/xlink" width="975" height="1300" viewBox="0 0 975 1300">
<path fill-rule="nonzero" fill="rgb(98.823529%, 78.823529%, 9.019608%)" fill-opacity="1" d="M 50 50 L 925 50 L 925 290 L 50 290 Z M 50 50 "/>
<path fill-rule="nonzero" fill="rgb(34.901961%, 14.901961%, 14.901961%)" fill-opacity="1" d="M 128.570312 102.300781 C 121.011719 99.148438 117.050781 97.53125 117.050781 93.480469 C 117.050781 90.691406 119.660156 87.179688 125.601562 87.179688 C 132.441406 87.179688 136.488281 89.96875 139.820312 92.21875 L 140.628906 91.859375 L 141.351562 80.070312 L 140.898438 79.441406 C 137.03125 77.820312 132.980469 76.109375 124.25 76.109375 C 107.332031 76.109375 101.480469 85.648438 101.480469 95.28125 C 101.480469 106.171875 109.941406 110.128906 114.980469 112.558594 L 117.949219 113.910156 C 124.160156 116.519531 128.929688 118.769531 128.929688 123.539062 C 128.929688 126.960938 125.960938 131.011719 118.128906 131.011719 C 109.941406 131.011719 105.351562 127.410156 102.738281 125.339844 L 101.839844 125.609375 L 101.210938 138.300781 L 101.75 139.019531 C 102.738281 139.378906 103.730469 139.828125 104.71875 140.101562 C 106.789062 140.820312 112.101562 142.351562 118.851562 142.351562 C 121.550781 142.351562 128.390625 142.078125 133.789062 139.558594 C 141.351562 135.871094 144.589844 129.03125 144.589844 121.378906 C 144.589844 116.25 142.609375 110.761719 137.839844 107.070312 C 135.410156 105.269531 133.070312 104.191406 130.910156 103.199219 Z M 193.1875 114.179688 C 193.277344 106.078125 193.277344 102.570312 190.9375 98.789062 C 189.136719 95.910156 185.539062 92.308594 174.019531 92.308594 C 166.277344 92.308594 161.507812 93.75 156.378906 95.28125 L 155.839844 96 L 155.386719 105.808594 L 156.109375 106.171875 C 159.257812 104.910156 165.109375 102.570312 171.136719 102.570312 C 174.46875 102.570312 175.816406 103.109375 176.988281 104.28125 C 177.886719 105.179688 178.160156 106.800781 178.160156 108.148438 C 167.359375 109.589844 162.316406 110.578125 156.917969 113.910156 C 151.878906 117.058594 150.167969 122.191406 150.167969 126.238281 C 150.167969 135.871094 157.097656 142.078125 165.917969 142.078125 C 172.667969 142.078125 176.539062 138.839844 178.429688 137.308594 L 178.429688 140.640625 L 178.96875 141.269531 C 185.449219 141 187.429688 140.910156 193.277344 141 L 193.726562 140.371094 C 193.097656 131.550781 193.097656 129.300781 193.097656 120.839844 L 193.1875 114.179688 M 178.339844 128.488281 C 176.449219 129.570312 174.019531 130.828125 171.046875 130.828125 C 167.808594 130.828125 165.109375 129.121094 165.109375 125.339844 C 165.109375 119.398438 172.21875 118.410156 178.339844 117.601562 Z M 247.820312 140.371094 C 247.371094 132.449219 247.371094 129.929688 247.191406 121.109375 L 247.191406 114.089844 C 247.101562 105.449219 247.011719 101.308594 244.761719 97.621094 C 241.96875 92.941406 236.839844 92.21875 233.601562 92.21875 C 228.109375 92.21875 223.339844 95.101562 219.199219 97.53125 L 219.378906 92.578125 L 218.480469 91.949219 C 211.550781 93.390625 210.019531 93.660156 203.269531 94.558594 L 202.730469 95.191406 C 203.449219 103.019531 203.992188 108.691406 203.992188 123.359375 C 203.992188 129.121094 203.898438 134.878906 203.808594 140.640625 L 204.351562 141.179688 C 210.832031 140.910156 212.179688 140.910156 219.378906 140.910156 L 219.921875 140.371094 C 219.378906 126.511719 219.289062 123 219.199219 106.890625 C 221.089844 105.628906 223.25 104.101562 226.128906 104.101562 C 231.082031 104.101562 231.53125 109.410156 231.800781 112.648438 C 231.980469 115.621094 232.070312 127.949219 232.070312 131.371094 C 232.070312 134.429688 231.980469 137.578125 231.980469 140.640625 L 232.519531 141.179688 C 238.460938 141 239.992188 140.910156 247.191406 140.910156 Z M 283.28125 130.648438 C 281.75 131.101562 280.667969 131.460938 279.140625 131.460938 C 274.550781 131.460938 274.191406 128.578125 274.007812 127.230469 C 273.738281 124.890625 273.738281 119.941406 273.828125 116.339844 L 274.007812 103.648438 L 282.109375 104.011719 L 282.648438 103.46875 L 283.550781 93.839844 L 283.007812 93.300781 L 274.007812 93.300781 L 274.28125 78.179688 L 273.648438 77.640625 C 267.53125 79.441406 265.910156 79.890625 259.519531 81.511719 L 259.160156 82.140625 L 259.25 93.390625 L 254.390625 93.210938 L 253.851562 93.660156 L 253.039062 103.289062 L 253.578125 103.828125 L 259.25 103.648438 L 258.980469 117.960938 C 258.890625 120.210938 258.800781 122.460938 258.800781 124.800781 C 258.800781 133.078125 258.980469 141.988281 273.019531 141.988281 C 276.53125 141.988281 279.320312 141.449219 282.46875 140.910156 L 283.101562 140.28125 L 284 131.011719 Z M 329.988281 114.179688 C 330.078125 106.078125 330.078125 102.570312 327.738281 98.789062 C 325.9375 95.910156 322.339844 92.308594 310.820312 92.308594 C 303.078125 92.308594 298.308594 93.75 293.179688 95.28125 L 292.640625 96 L 292.1875 105.808594 L 292.910156 106.171875 C 296.058594 104.910156 301.910156 102.570312 307.9375 102.570312 C 311.269531 102.570312 312.617188 103.109375 313.789062 104.28125 C 314.6875 105.179688 314.960938 106.800781 314.960938 108.148438 C 304.160156 109.589844 299.117188 110.578125 293.71875 113.910156 C 288.679688 117.058594 286.96875 122.191406 286.96875 126.238281 C 286.96875 135.871094 293.898438 142.078125 302.71875 142.078125 C 309.46875 142.078125 313.339844 138.839844 315.230469 137.308594 L 315.230469 140.640625 L 315.769531 141.269531 C 322.25 141 324.230469 140.910156 330.078125 141 L 330.527344 140.371094 C 329.898438 131.550781 329.898438 129.300781 329.898438 120.839844 L 329.988281 114.179688 M 315.140625 128.488281 C 313.25 129.570312 310.820312 130.828125 307.847656 130.828125 C 304.609375 130.828125 301.910156 129.121094 301.910156 125.339844 C 301.910156 119.398438 309.019531 118.410156 315.140625 117.601562 Z M 392.808594 102.300781 C 385.25 99.148438 381.289062 97.53125 381.289062 93.480469 C 381.289062 90.691406 383.898438 87.179688 389.839844 87.179688 C 396.679688 87.179688 400.726562 89.96875 404.058594 92.21875 L 404.867188 91.859375 L 405.589844 80.070312 L 405.136719 79.441406 C 401.269531 77.820312 397.21875 76.109375 388.488281 76.109375 C 371.570312 76.109375 365.71875 85.648438 365.71875 95.28125 C 365.71875 106.171875 374.179688 110.128906 379.21875 112.558594 L 382.1875 113.910156 C 388.398438 116.519531 393.167969 118.769531 393.167969 123.539062 C 393.167969 126.960938 390.199219 131.011719 382.367188 131.011719 C 374.179688 131.011719 369.589844 127.410156 366.976562 125.339844 L 366.078125 125.609375 L 365.449219 138.300781 L 365.988281 139.019531 C 366.976562 139.378906 367.96875 139.828125 368.957031 140.101562 C 371.027344 140.820312 376.339844 142.351562 383.089844 142.351562 C 385.789062 142.351562 392.628906 142.078125 398.027344 139.558594 C 405.589844 135.871094 408.828125 129.03125 408.828125 121.378906 C 408.828125 116.25 406.847656 110.761719 402.078125 107.070312 C 399.648438 105.269531 397.308594 104.191406 395.148438 103.199219 Z M 460.582031 92.851562 L 445.910156 93.570312 L 445.28125 94.109375 C 445.910156 104.28125 445.910156 118.679688 445.910156 120.121094 C 445.910156 122.730469 445.910156 124.171875 445.820312 127.769531 C 443.390625 129.390625 441.5 130.738281 439.070312 130.738281 C 432.589844 130.738281 432.589844 123.898438 432.589844 118.589844 C 432.589844 116.339844 432.589844 114 432.679688 111.75 L 432.859375 93.570312 L 432.230469 92.851562 L 417.378906 93.570312 L 416.75 94.109375 C 417.289062 101.671875 417.378906 104.191406 417.378906 113.28125 L 417.378906 119.578125 C 417.289062 129.390625 417.742188 133.53125 420.980469 137.308594 C 423.949219 140.640625 428.269531 142.078125 432.769531 142.078125 C 439.160156 142.078125 442.851562 139.199219 446.089844 136.679688 L 446 140.730469 L 446.628906 141.269531 C 453.199219 141 455.179688 141 461.03125 141 L 461.570312 140.460938 C 461.121094 134.070312 460.941406 130.648438 460.941406 118.949219 C 460.941406 110.488281 461.03125 102.03125 461.210938 93.570312 Z M 490.640625 109.949219 C 487.578125 108.871094 485.148438 107.878906 485.148438 105.359375 C 485.148438 104.28125 485.871094 101.308594 491.449219 101.308594 C 496.941406 101.308594 500.449219 103.648438 502.699219 105.089844 L 503.511719 104.820312 L 504.410156 95.011719 L 503.960938 94.46875 C 499.730469 93.300781 496.039062 92.21875 490.191406 92.21875 C 485.78125 92.21875 476.960938 92.578125 472.28125 99.328125 C 471.109375 100.949219 469.851562 103.648438 469.851562 107.25 C 469.851562 116.878906 477.320312 119.761719 481.550781 121.378906 L 484.96875 122.640625 C 487.398438 123.449219 491.359375 124.800781 491.359375 128.039062 C 491.359375 130.289062 489.289062 132.71875 484.25 132.71875 C 481.730469 132.71875 478.039062 131.910156 474.710938 130.199219 C 473.179688 129.390625 472.460938 128.761719 471.109375 127.679688 L 470.300781 128.039062 C 470.121094 132.71875 470.03125 133.710938 469.667969 138.210938 L 470.121094 139.019531 C 474.53125 140.640625 478.308594 142.078125 484.878906 142.078125 C 491.71875 142.078125 505.21875 140.820312 506.839844 127.949219 C 506.929688 127.230469 506.929688 126.601562 506.929688 125.96875 C 506.929688 116.070312 500 113.460938 495.050781 111.570312 Z M 554.898438 114.179688 C 554.988281 106.078125 554.988281 102.570312 552.648438 98.789062 C 550.847656 95.910156 547.25 92.308594 535.730469 92.308594 C 527.988281 92.308594 523.21875 93.75 518.089844 95.28125 L 517.550781 96 L 517.097656 105.808594 L 517.820312 106.171875 C 520.96875 104.910156 526.820312 102.570312 532.847656 102.570312 C 536.179688 102.570312 537.527344 103.109375 538.699219 104.28125 C 539.597656 105.179688 539.871094 106.800781 539.871094 108.148438 C 529.070312 109.589844 524.027344 110.578125 518.628906 113.910156 C 513.589844 117.058594 511.878906 122.191406 511.878906 126.238281 C 511.878906 135.871094 518.808594 142.078125 527.628906 142.078125 C 534.378906 142.078125 538.25 138.839844 540.140625 137.308594 L 540.140625 140.640625 L 540.679688 141.269531 C 547.160156 141 549.140625 140.910156 554.988281 141 L 555.4375 140.371094 C 554.808594 131.550781 554.808594 129.300781 554.808594 120.839844 L 554.898438 114.179688 M 540.050781 128.488281 C 538.160156 129.570312 535.730469 130.828125 532.757812 130.828125 C 529.519531 130.828125 526.820312 129.121094 526.820312 125.339844 C 526.820312 119.398438 533.929688 118.410156 540.050781 117.601562 Z M 609.53125 140.371094 C 609.082031 132.449219 609.082031 129.929688 608.902344 121.109375 L 608.902344 114.089844 C 608.8125 105.449219 608.722656 101.308594 606.472656 97.621094 C 603.679688 92.941406 598.550781 92.21875 595.3125 92.21875 C 589.820312 92.21875 585.050781 95.101562 580.910156 97.53125 L 581.089844 92.578125 L 580.191406 91.949219 C 573.261719 93.390625 571.730469 93.660156 564.980469 94.558594 L 564.441406 95.191406 C 565.160156 103.019531 565.703125 108.691406 565.703125 123.359375 C 565.703125 129.121094 565.609375 134.878906 565.519531 140.640625 L 566.0625 141.179688 C 572.542969 140.910156 573.890625 140.910156 581.089844 140.910156 L 581.632812 140.371094 C 581.089844 126.511719 581 123 580.910156 106.890625 C 582.800781 105.628906 584.960938 104.101562 587.839844 104.101562 C 592.792969 104.101562 593.242188 109.410156 593.511719 112.648438 C 593.691406 115.621094 593.78125 127.949219 593.78125 131.371094 C 593.78125 134.429688 593.691406 137.578125 593.691406 140.640625 L 594.230469 141.179688 C 600.171875 141 601.703125 140.910156 608.902344 140.910156 Z M 659.839844 114.179688 C 659.929688 106.078125 659.929688 102.570312 657.589844 98.789062 C 655.789062 95.910156 652.191406 92.308594 640.671875 92.308594 C 632.929688 92.308594 628.160156 93.75 623.03125 95.28125 L 622.492188 96 L 622.039062 105.808594 L 622.761719 106.171875 C 625.910156 104.910156 631.761719 102.570312 637.789062 102.570312 C 641.121094 102.570312 642.46875 103.109375 643.640625 104.28125 C 644.539062 105.179688 644.8125 106.800781 644.8125 108.148438 C 634.011719 109.589844 628.96875 110.578125 623.570312 113.910156 C 618.53125 117.058594 616.820312 122.191406 616.820312 126.238281 C 616.820312 135.871094 623.75 142.078125 632.570312 142.078125 C 639.320312 142.078125 643.191406 138.839844 645.082031 137.308594 L 645.082031 140.640625 L 645.621094 141.269531 C 652.101562 141 654.082031 140.910156 659.929688 141 L 660.378906 140.371094 C 659.75 131.550781 659.75 129.300781 659.75 120.839844 L 659.839844 114.179688 M 644.992188 128.488281 C 643.101562 129.570312 640.671875 130.828125 637.699219 130.828125 C 634.460938 130.828125 631.761719 129.121094 631.761719 125.339844 C 631.761719 119.398438 638.871094 118.410156 644.992188 117.601562 Z M 708.710938 77.28125 L 697.28125 77.460938 L 696.738281 78 C 697.101562 89.699219 697.371094 97.53125 697.371094 107.878906 C 697.371094 118.859375 697.101562 129.75 696.828125 140.730469 L 697.371094 141.269531 C 704.03125 141 705.46875 140.910156 712.671875 141 L 713.121094 140.460938 C 712.761719 130.648438 712.761719 128.398438 712.761719 119.21875 C 722.839844 119.308594 733.640625 119.308594 740.121094 111.390625 C 742.640625 108.328125 744.800781 103.199219 744.800781 96.898438 C 744.800781 93.03125 743.898438 84.480469 736.429688 80.25 C 731.03125 77.101562 723.378906 77.101562 716.628906 77.101562 L 708.710938 77.28125 M 712.761719 88.171875 C 714.738281 88.078125 716.628906 88.078125 718.609375 88.078125 C 726.53125 88.261719 728.691406 92.308594 728.691406 97.53125 C 728.691406 98.789062 728.691406 104.011719 723.921875 106.621094 C 721.488281 107.96875 718.160156 108.148438 712.761719 108.148438 Z M 791.058594 114.179688 C 791.148438 106.078125 791.148438 102.570312 788.808594 98.789062 C 787.007812 95.910156 783.410156 92.308594 771.890625 92.308594 C 764.148438 92.308594 759.378906 93.75 754.25 95.28125 L 753.710938 96 L 753.257812 105.808594 L 753.980469 106.171875 C 757.128906 104.910156 762.980469 102.570312 769.007812 102.570312 C 772.339844 102.570312 773.6875 103.109375 774.859375 104.28125 C 775.757812 105.179688 776.03125 106.800781 776.03125 108.148438 C 765.230469 109.589844 760.1875 110.578125 754.789062 113.910156 C 749.75 117.058594 748.039062 122.191406 748.039062 126.238281 C 748.039062 135.871094 754.96875 142.078125 763.789062 142.078125 C 770.539062 142.078125 774.410156 138.839844 776.300781 137.308594 L 776.300781 140.640625 L 776.839844 141.269531 C 783.320312 141 785.300781 140.910156 791.148438 141 L 791.597656 140.371094 C 790.96875 131.550781 790.96875 129.300781 790.96875 120.839844 L 791.058594 114.179688 M 776.210938 128.488281 C 774.320312 129.570312 771.890625 130.828125 768.917969 130.828125 C 765.679688 130.828125 762.980469 129.121094 762.980469 125.339844 C 762.980469 119.398438 770.089844 118.410156 776.210938 117.601562 Z M 820.492188 109.949219 C 817.429688 108.871094 815 107.878906 815 105.359375 C 815 104.28125 815.722656 101.308594 821.300781 101.308594 C 826.792969 101.308594 830.300781 103.648438 832.550781 105.089844 L 833.363281 104.820312 L 834.261719 95.011719 L 833.8125 94.46875 C 829.582031 93.300781 825.890625 92.21875 820.042969 92.21875 C 815.632812 92.21875 806.8125 92.578125 802.132812 99.328125 C 800.960938 100.949219 799.703125 103.648438 799.703125 107.25 C 799.703125 116.878906 807.171875 119.761719 811.402344 121.378906 L 814.820312 122.640625 C 817.25 123.449219 821.210938 124.800781 821.210938 128.039062 C 821.210938 130.289062 819.140625 132.71875 814.101562 132.71875 C 811.582031 132.71875 807.890625 131.910156 804.5625 130.199219 C 803.03125 129.390625 802.3125 128.761719 800.960938 127.679688 L 800.152344 128.039062 C 799.972656 132.71875 799.882812 133.710938 799.519531 138.210938 L 799.972656 139.019531 C 804.382812 140.640625 808.160156 142.078125 814.730469 142.078125 C 821.570312 142.078125 835.070312 140.820312 836.691406 127.949219 C 836.78125 127.230469 836.78125 126.601562 836.78125 125.96875 C 836.78125 116.070312 829.851562 113.460938 824.902344 111.570312 Z M 863.601562 109.949219 C 860.539062 108.871094 858.109375 107.878906 858.109375 105.359375 C 858.109375 104.28125 858.832031 101.308594 864.410156 101.308594 C 869.902344 101.308594 873.410156 103.648438 875.660156 105.089844 L 876.472656 104.820312 L 877.371094 95.011719 L 876.921875 94.46875 C 872.691406 93.300781 869 92.21875 863.152344 92.21875 C 858.742188 92.21875 849.921875 92.578125 845.242188 99.328125 C 844.070312 100.949219 842.8125 103.648438 842.8125 107.25 C 842.8125 116.878906 850.28125 119.761719 854.511719 121.378906 L 857.929688 122.640625 C 860.359375 123.449219 864.320312 124.800781 864.320312 128.039062 C 864.320312 130.289062 862.25 132.71875 857.210938 132.71875 C 854.691406 132.71875 851 131.910156 847.671875 130.199219 C 846.140625 129.390625 845.421875 128.761719 844.070312 127.679688 L 843.261719 128.039062 C 843.082031 132.71875 842.992188 133.710938 842.628906 138.210938 L 843.082031 139.019531 C 847.492188 140.640625 851.269531 142.078125 857.839844 142.078125 C 864.679688 142.078125 878.179688 140.820312 879.800781 127.949219 C 879.890625 127.230469 879.890625 126.601562 879.890625 125.96875 C 879.890625 116.070312 872.960938 113.460938 868.011719 111.570312 Z M 882.410156 141 "/>
<path fill-rule="nonzero" fill="rgb(34.901961%, 14.901961%, 14.901961%)" fill-opacity="1" d="M 128.570312 222.300781 C 121.011719 219.148438 117.050781 217.53125 117.050781 213.480469 C 117.050781 210.691406 119.660156 207.179688 125.601562 207.179688 C 132.441406 207.179688 136.488281 209.96875 139.820312 212.21875 L 140.628906 211.859375 L 141.351562 200.070312 L 140.898438 199.441406 C 137.03125 197.820312 132.980469 196.109375 124.25 196.109375 C 107.332031 196.109375 101.480469 205.648438 101.480469 215.28125 C 101.480469 226.171875 109.941406 230.128906 114.980469 232.558594 L 117.949219 233.910156 C 124.160156 236.519531 128.929688 238.769531 128.929688 243.539062 C 128.929688 246.960938 125.960938 251.011719 118.128906 251.011719 C 109.941406 251.011719 105.351562 247.410156 102.738281 245.339844 L 101.839844 245.609375 L 101.210938 258.300781 L 101.75 259.019531 C 102.738281 259.378906 103.730469 259.828125 104.71875 260.101562 C 106.789062 260.820312 112.101562 262.351562 118.851562 262.351562 C 121.550781 262.351562 128.390625 262.078125 133.789062 259.558594 C 141.351562 255.871094 144.589844 249.03125 144.589844 241.378906 C 144.589844 236.25 142.609375 230.761719 137.839844 227.070312 C 135.410156 225.269531 133.070312 224.191406 130.910156 223.199219 Z M 178.339844 250.648438 C 176.808594 251.101562 175.726562 251.460938 174.199219 251.460938 C 169.609375 251.460938 169.25 248.578125 169.066406 247.230469 C 168.796875 244.890625 168.796875 239.941406 168.886719 236.339844 L 169.066406 223.648438 L 177.167969 224.011719 L 177.707031 223.46875 L 178.609375 213.839844 L 178.066406 213.300781 L 169.066406 213.300781 L 169.339844 198.179688 L 168.707031 197.640625 C 162.589844 199.441406 160.96875 199.890625 154.578125 201.511719 L 154.21875 202.140625 L 154.308594 213.390625 L 149.449219 213.210938 L 148.910156 213.660156 L 148.097656 223.289062 L 148.636719 223.828125 L 154.308594 223.648438 L 154.039062 237.960938 C 153.949219 240.210938 153.859375 242.460938 153.859375 244.800781 C 153.859375 253.078125 154.039062 261.988281 168.078125 261.988281 C 171.589844 261.988281 174.378906 261.449219 177.527344 260.910156 L 178.160156 260.28125 L 179.058594 251.011719 Z M 225.050781 234.179688 C 225.140625 226.078125 225.140625 222.570312 222.800781 218.789062 C 221 215.910156 217.402344 212.308594 205.882812 212.308594 C 198.140625 212.308594 193.371094 213.75 188.242188 215.28125 L 187.703125 216 L 187.25 225.808594 L 187.972656 226.171875 C 191.121094 224.910156 196.972656 222.570312 203 222.570312 C 206.332031 222.570312 207.679688 223.109375 208.851562 224.28125 C 209.75 225.179688 210.023438 226.800781 210.023438 228.148438 C 199.222656 229.589844 194.179688 230.578125 188.78125 233.910156 C 183.742188 237.058594 182.03125 242.191406 182.03125 246.238281 C 182.03125 255.871094 188.960938 262.078125 197.78125 262.078125 C 204.53125 262.078125 208.402344 258.839844 210.292969 257.308594 L 210.292969 260.640625 L 210.832031 261.269531 C 217.3125 261 219.292969 260.910156 225.140625 261 L 225.589844 260.371094 C 224.960938 251.550781 224.960938 249.300781 224.960938 240.839844 L 225.050781 234.179688 M 210.203125 248.488281 C 208.3125 249.570312 205.882812 250.828125 202.910156 250.828125 C 199.671875 250.828125 196.972656 249.121094 196.972656 245.339844 C 196.972656 239.398438 204.082031 238.410156 210.203125 237.601562 Z M 260.78125 250.648438 C 259.25 251.101562 258.167969 251.460938 256.640625 251.460938 C 252.050781 251.460938 251.691406 248.578125 251.507812 247.230469 C 251.238281 244.890625 251.238281 239.941406 251.328125 236.339844 L 251.507812 223.648438 L 259.609375 224.011719 L 260.148438 223.46875 L 261.050781 213.839844 L 260.507812 213.300781 L 251.507812 213.300781 L 251.78125 198.179688 L 251.148438 197.640625 C 245.03125 199.441406 243.410156 199.890625 237.019531 201.511719 L 236.660156 202.140625 L 236.75 213.390625 L 231.890625 213.210938 L 231.351562 213.660156 L 230.539062 223.289062 L 231.078125 223.828125 L 236.75 223.648438 L 236.480469 237.960938 C 236.390625 240.210938 236.300781 242.460938 236.300781 244.800781 C 236.300781 253.078125 236.480469 261.988281 250.519531 261.988281 C 254.03125 261.988281 256.820312 261.449219 259.96875 260.910156 L 260.601562 260.28125 L 261.5 251.011719 Z M 307.398438 247.679688 C 303.980469 249.480469 299.929688 251.550781 293.359375 251.550781 C 287.960938 251.550781 284.269531 249.839844 282.109375 246.601562 C 280.757812 244.710938 280.488281 242.910156 280.128906 241.109375 L 309.199219 240.570312 L 309.738281 239.941406 C 309.648438 235.53125 309.558594 231.03125 308.300781 226.53125 C 305.148438 215.910156 298.21875 213.75 295.160156 213.03125 C 292.910156 212.398438 290.839844 212.21875 288.769531 212.21875 C 274.640625 212.21875 265.277344 221.488281 265.277344 237.058594 C 265.277344 241.289062 266 245.699219 267.4375 248.851562 C 272.660156 261 284.898438 262.078125 291.378906 262.078125 C 298.847656 262.078125 302.089844 260.730469 306.859375 258.839844 L 307.398438 258.121094 L 308.027344 247.949219 L 307.398438 247.679688 M 280.128906 231.570312 C 280.398438 228.78125 281.027344 225 284.449219 222.839844 C 285.527344 222.121094 286.789062 221.851562 288.050781 221.851562 C 291.019531 221.851562 292.820312 223.378906 293.808594 225 C 295.070312 226.980469 295.160156 229.140625 295.160156 231.210938 Z M 398.207031 197.191406 C 391.007812 197.460938 389.839844 197.460938 382.277344 197.460938 L 381.828125 198 C 382.457031 208.171875 382.457031 210.78125 382.546875 221.398438 C 378.589844 221.488281 374.628906 221.578125 370.578125 221.578125 C 367.429688 221.578125 364.1875 221.488281 361.039062 221.488281 L 361.21875 197.730469 L 360.769531 197.191406 C 353.839844 197.460938 352.488281 197.460938 344.660156 197.460938 L 344.117188 198 C 344.570312 207.269531 345.109375 218.339844 345.109375 240.660156 C 345.109375 248.761719 344.929688 253.171875 344.75 260.730469 L 345.199219 261.269531 C 351.769531 261 353.386719 260.910156 361.308594 261 L 361.757812 260.460938 C 361.21875 249.300781 361.128906 246.058594 361.039062 233.011719 C 365 232.828125 368.328125 232.738281 371.839844 232.738281 C 375.4375 232.738281 379.039062 232.828125 382.636719 232.921875 C 382.820312 245.070312 382.820312 248.039062 382.367188 260.730469 L 382.820312 261.269531 C 389.570312 261 391.367188 260.910156 399.019531 261 L 399.46875 260.460938 C 398.75 245.339844 398.476562 230.308594 398.476562 215.191406 C 398.476562 208.890625 398.570312 204.660156 398.660156 197.730469 Z M 426.203125 260.371094 C 425.75 253.441406 425.390625 248.128906 425.390625 235.710938 C 425.390625 228.058594 425.570312 220.320312 425.660156 212.671875 L 425.03125 211.949219 L 409.550781 214.648438 L 409.011719 215.191406 C 409.730469 222.03125 410 225.179688 410 237.960938 C 410 247.769531 409.730469 253.261719 409.460938 260.640625 L 410 261.269531 C 416.480469 261 418.28125 260.910156 425.570312 261 L 426.203125 260.371094 M 424.761719 203.308594 L 425.03125 191.070312 L 424.492188 190.53125 L 409.820312 192.328125 L 409.28125 192.960938 C 409.460938 196.199219 409.550781 198.089844 409.550781 200.25 C 409.550781 201.960938 409.550781 203.761719 409.460938 205.46875 L 410.089844 206.011719 C 416.210938 204.929688 417.921875 204.75 424.3125 203.941406 Z M 455.089844 229.949219 C 452.027344 228.871094 449.597656 227.878906 449.597656 225.359375 C 449.597656 224.28125 450.320312 221.308594 455.898438 221.308594 C 461.390625 221.308594 464.898438 223.648438 467.148438 225.089844 L 467.960938 224.820312 L 468.859375 215.011719 L 468.410156 214.46875 C 464.179688 213.300781 460.488281 212.21875 454.640625 212.21875 C 450.230469 212.21875 441.410156 212.578125 436.730469 219.328125 C 435.558594 220.949219 434.300781 223.648438 434.300781 227.25 C 434.300781 236.878906 441.769531 239.761719 446 241.378906 L 449.417969 242.640625 C 451.847656 243.449219 455.808594 244.800781 455.808594 248.039062 C 455.808594 250.289062 453.738281 252.71875 448.699219 252.71875 C 446.179688 252.71875 442.488281 251.910156 439.160156 250.199219 C 437.628906 249.390625 436.910156 248.761719 435.558594 247.679688 L 434.75 248.039062 C 434.570312 252.71875 434.480469 253.710938 434.117188 258.210938 L 434.570312 259.019531 C 438.980469 260.640625 442.757812 262.078125 449.328125 262.078125 C 456.167969 262.078125 469.667969 260.820312 471.289062 247.949219 C 471.378906 247.230469 471.378906 246.601562 471.378906 245.96875 C 471.378906 236.070312 464.449219 233.460938 459.5 231.570312 Z M 504.5 250.648438 C 502.96875 251.101562 501.886719 251.460938 500.359375 251.460938 C 495.769531 251.460938 495.410156 248.578125 495.226562 247.230469 C 494.957031 244.890625 494.957031 239.941406 495.046875 236.339844 L 495.226562 223.648438 L 503.328125 224.011719 L 503.867188 223.46875 L 504.769531 213.839844 L 504.226562 213.300781 L 495.226562 213.300781 L 495.5 198.179688 L 494.867188 197.640625 C 488.75 199.441406 487.128906 199.890625 480.738281 201.511719 L 480.378906 202.140625 L 480.46875 213.390625 L 475.609375 213.210938 L 475.070312 213.660156 L 474.257812 223.289062 L 474.796875 223.828125 L 480.46875 223.648438 L 480.199219 237.960938 C 480.109375 240.210938 480.019531 242.460938 480.019531 244.800781 C 480.019531 253.078125 480.199219 261.988281 494.238281 261.988281 C 497.75 261.988281 500.539062 261.449219 503.6875 260.910156 L 504.320312 260.28125 L 505.21875 251.011719 Z M 556.972656 237.058594 C 556.972656 233.550781 556.972656 218.96875 544.371094 214.019531 C 540.410156 212.488281 535.730469 212.308594 533.390625 212.308594 C 517.730469 212.308594 508.910156 220.679688 508.910156 237.238281 C 508.910156 243 509.8125 248.851562 513.140625 253.710938 C 515.480469 257.21875 519.890625 262.078125 532.761719 262.078125 C 551.839844 262.078125 556.972656 250.558594 556.972656 237.058594 M 541.402344 236.96875 C 541.402344 244.351562 540.410156 252.539062 532.941406 252.539062 C 530.601562 252.539062 528.980469 251.460938 527.902344 250.46875 C 526.371094 248.941406 524.660156 245.878906 524.660156 237.148438 C 524.660156 234.539062 524.660156 228.78125 526.460938 225.628906 C 527.8125 223.199219 530.152344 221.578125 533.03125 221.578125 C 535.550781 221.578125 537.621094 222.929688 538.792969 224.371094 C 540.953125 226.980469 541.402344 232.109375 541.402344 236.96875 Z M 591.53125 227.609375 L 594.050781 212.941406 L 593.511719 212.308594 C 592.882812 212.308594 592.25 212.21875 591.621094 212.21875 C 587.929688 212.21875 583.792969 214.289062 580.910156 220.949219 L 581.179688 212.671875 L 580.460938 211.949219 C 573.800781 213.390625 572.089844 213.660156 565.519531 214.648438 L 564.980469 215.191406 C 565.519531 221.941406 565.792969 225.988281 565.792969 238.5 C 565.792969 245.878906 565.699219 253.261719 565.519531 260.730469 L 566.0625 261.269531 C 572.722656 261 574.160156 260.910156 581.359375 261 L 581.8125 260.371094 C 581.449219 253.078125 580.910156 242.910156 580.910156 236.699219 C 580.910156 232.648438 580.910156 226.710938 587.03125 226.710938 C 588.5625 226.710938 589.460938 227.25 590.722656 227.96875 Z M 615.5625 260.371094 C 615.109375 253.441406 614.75 248.128906 614.75 235.710938 C 614.75 228.058594 614.929688 220.320312 615.019531 212.671875 L 614.390625 211.949219 L 598.910156 214.648438 L 598.371094 215.191406 C 599.089844 222.03125 599.359375 225.179688 599.359375 237.960938 C 599.359375 247.769531 599.089844 253.261719 598.820312 260.640625 L 599.359375 261.269531 C 605.839844 261 607.640625 260.910156 614.929688 261 L 615.5625 260.371094 M 614.121094 203.308594 L 614.390625 191.070312 L 613.851562 190.53125 L 599.179688 192.328125 L 598.640625 192.960938 C 598.820312 196.199219 598.910156 198.089844 598.910156 200.25 C 598.910156 201.960938 598.910156 203.761719 598.820312 205.46875 L 599.449219 206.011719 C 605.570312 204.929688 607.28125 204.75 613.671875 203.941406 Z M 660.738281 248.039062 C 658.308594 249.480469 655.96875 250.921875 651.378906 250.921875 C 641.207031 250.921875 639.136719 242.460938 639.136719 237.058594 C 639.136719 230.488281 642.019531 222.929688 650.75 222.929688 C 654.707031 222.929688 656.867188 224.371094 659.570312 226.171875 L 660.46875 225.898438 C 660.828125 221.128906 660.917969 219.871094 661.636719 215.101562 L 661.1875 214.558594 C 657.226562 213.300781 653.808594 212.21875 648.589844 212.21875 C 627.4375 212.21875 623.296875 228.238281 623.296875 237.421875 C 623.296875 247.769531 628.699219 261.808594 648.949219 261.808594 C 653.71875 261.808594 656.777344 260.910156 660.558594 259.828125 L 661.097656 259.289062 L 661.457031 248.488281 Z M 707 197.28125 L 695.570312 197.460938 L 695.027344 198 C 695.390625 209.699219 695.660156 217.53125 695.660156 227.878906 C 695.660156 238.859375 695.390625 249.75 695.117188 260.730469 L 695.660156 261.269531 C 702.320312 261 703.757812 260.910156 710.960938 261 L 711.410156 260.460938 C 711.050781 250.648438 711.050781 248.398438 711.050781 239.21875 C 721.128906 239.308594 731.929688 239.308594 738.410156 231.390625 C 740.929688 228.328125 743.089844 223.199219 743.089844 216.898438 C 743.089844 213.03125 742.1875 204.480469 734.71875 200.25 C 729.320312 197.101562 721.667969 197.101562 714.917969 197.101562 L 707 197.28125 M 711.050781 208.171875 C 713.027344 208.078125 714.917969 208.078125 716.898438 208.078125 C 724.820312 208.261719 726.980469 212.308594 726.980469 217.53125 C 726.980469 218.789062 726.980469 224.011719 722.210938 226.621094 C 719.777344 227.96875 716.449219 228.148438 711.050781 228.148438 Z M 789.347656 234.179688 C 789.4375 226.078125 789.4375 222.570312 787.097656 218.789062 C 785.296875 215.910156 781.699219 212.308594 770.179688 212.308594 C 762.4375 212.308594 757.667969 213.75 752.539062 215.28125 L 752 216 L 751.546875 225.808594 L 752.269531 226.171875 C 755.417969 224.910156 761.269531 222.570312 767.296875 222.570312 C 770.628906 222.570312 771.976562 223.109375 773.148438 224.28125 C 774.046875 225.179688 774.320312 226.800781 774.320312 228.148438 C 763.519531 229.589844 758.476562 230.578125 753.078125 233.910156 C 748.039062 237.058594 746.328125 242.191406 746.328125 246.238281 C 746.328125 255.871094 753.257812 262.078125 762.078125 262.078125 C 768.828125 262.078125 772.699219 258.839844 774.589844 257.308594 L 774.589844 260.640625 L 775.128906 261.269531 C 781.609375 261 783.589844 260.910156 789.4375 261 L 789.886719 260.371094 C 789.257812 251.550781 789.257812 249.300781 789.257812 240.839844 L 789.347656 234.179688 M 774.5 248.488281 C 772.609375 249.570312 770.179688 250.828125 767.207031 250.828125 C 763.96875 250.828125 761.269531 249.121094 761.269531 245.339844 C 761.269531 239.398438 768.378906 238.410156 774.5 237.601562 Z M 825.890625 227.609375 L 828.410156 212.941406 L 827.871094 212.308594 C 827.242188 212.308594 826.609375 212.21875 825.980469 212.21875 C 822.289062 212.21875 818.152344 214.289062 815.269531 220.949219 L 815.539062 212.671875 L 814.820312 211.949219 C 808.160156 213.390625 806.449219 213.660156 799.878906 214.648438 L 799.339844 215.191406 C 799.878906 221.941406 800.152344 225.988281 800.152344 238.5 C 800.152344 245.878906 800.058594 253.261719 799.878906 260.730469 L 800.421875 261.269531 C 807.082031 261 808.519531 260.910156 815.71875 261 L 816.171875 260.371094 C 815.808594 253.078125 815.269531 242.910156 815.269531 236.699219 C 815.269531 232.648438 815.269531 226.710938 821.390625 226.710938 C 822.921875 226.710938 823.820312 227.25 825.082031 227.96875 Z M 879.890625 259.828125 C 871.429688 245.519531 870.53125 243.898438 863.691406 231.570312 C 869.902344 223.109375 870.53125 222.210938 876.921875 214.019531 L 876.46875 213.121094 L 861.800781 213.300781 L 860.902344 213.929688 C 853.878906 226.078125 852.980469 227.519531 848.839844 233.730469 L 848.839844 223.738281 C 848.929688 206.910156 849.019531 203.308594 849.46875 189.71875 L 848.75 189.179688 L 833.089844 191.519531 L 832.550781 192.148438 C 833.179688 200.878906 833.449219 205.109375 833.628906 216.898438 C 833.808594 231.480469 833.808594 246.058594 833.71875 260.640625 L 834.351562 261.269531 C 840.378906 261 842.089844 261 848.929688 261 L 849.46875 260.371094 L 848.929688 245.160156 L 848.839844 234.808594 C 856.671875 249.210938 857.660156 251.191406 862.25 260.730469 L 863.058594 261.269531 L 879.261719 260.640625 Z M 878.808594 261 "/>
</svg>
