<?xml version="1.0" encoding="UTF-8"?>
<svg xmlns="http://www.w3.org/2000/svg" xmlns:xlink="http://www.w3.org/1999/xlink" width="975" height="1300" viewBox="0 0 975 1300">
<path fill-rule="nonzero" fill="rgb(98.823529%, 78.823529%, 9.019608%)" fill-opacity="1" d="M 50 50 L 925 50 L 925 290 L 50 290 Z M 50 50 "/>
<path fill-rule="nonzero" fill="rgb(34.901961%, 14.901961%, 14.901961%)" fill-opacity="1" d="M 150.488281 141 C 152.828125 141.089844 155.257812 141.089844 157.597656 141.089844 C 167.675781 141.089844 183.964844 140.730469 190.535156 124.710938 C 192.964844 118.769531 193.507812 111.570312 193.507812 107.519531 C 193.507812 99.058594 191.617188 92.578125 189.367188 88.53125 C 183.246094 77.371094 171.636719 77.011719 161.375 77.011719 C 157.238281 77.011719 153.097656 77.191406 148.957031 77.371094 L 139.417969 77.460938 L 138.875 78 C 139.238281 86.640625 139.597656 94.199219 139.597656 119.128906 C 139.597656 127.949219 139.507812 133.261719 139.328125 140.640625 L 139.867188 141 L 150.488281 141 M 155.4375 129.390625 C 155.257812 120.570312 155.167969 112.199219 155.167969 103.558594 C 155.167969 98.699219 155.167969 93.839844 155.257812 88.980469 C 157.054688 88.890625 158.945312 88.800781 160.746094 88.800781 C 166.238281 88.800781 176.945312 88.800781 176.945312 107.96875 C 176.945312 119.21875 172.714844 124.261719 170.554688 126.058594 C 166.507812 129.390625 160.296875 129.390625 155.4375 129.390625 Z M 248.496094 117.058594 C 248.496094 113.550781 248.496094 98.96875 235.894531 94.019531 C 231.933594 92.488281 227.253906 92.308594 224.914062 92.308594 C 209.253906 92.308594 200.433594 100.679688 200.433594 117.238281 C 200.433594 123 201.335938 128.851562 204.664062 133.710938 C 207.003906 137.21875 211.414062 142.078125 224.285156 142.078125 C 243.363281 142.078125 248.496094 130.558594 248.496094 117.058594 M 232.925781 116.96875 C 232.925781 124.351562 231.933594 132.539062 224.464844 132.539062 C 222.125 132.539062 220.503906 131.460938 219.425781 130.46875 C 217.894531 128.941406 216.183594 125.878906 216.183594 117.148438 C 216.183594 114.539062 216.183594 108.78125 217.984375 105.628906 C 219.335938 103.199219 221.675781 101.578125 224.554688 101.578125 C 227.074219 101.578125 229.144531 102.929688 230.316406 104.371094 C 232.476562 106.980469 232.925781 112.109375 232.925781 116.96875 Z M 292.234375 128.039062 C 289.804688 129.480469 287.464844 130.921875 282.875 130.921875 C 272.703125 130.921875 270.632812 122.460938 270.632812 117.058594 C 270.632812 110.488281 273.515625 102.929688 282.246094 102.929688 C 286.203125 102.929688 288.363281 104.371094 291.066406 106.171875 L 291.964844 105.898438 C 292.324219 101.128906 292.414062 99.871094 293.132812 95.101562 L 292.683594 94.558594 C 288.722656 93.300781 285.304688 92.21875 280.085938 92.21875 C 258.933594 92.21875 254.792969 108.238281 254.792969 117.421875 C 254.792969 127.769531 260.195312 141.808594 280.445312 141.808594 C 285.214844 141.808594 288.273438 140.910156 292.054688 139.828125 L 292.59375 139.289062 L 292.953125 128.488281 Z M 346.417969 139.828125 C 337.957031 125.519531 337.058594 123.898438 330.21875 111.570312 C 336.429688 103.109375 337.058594 102.210938 343.449219 94.019531 L 342.996094 93.121094 L 328.328125 93.300781 L 327.429688 93.929688 C 320.40625 106.078125 319.507812 107.519531 315.367188 113.730469 L 315.367188 103.738281 C 315.457031 86.910156 315.546875 83.308594 315.996094 69.71875 L 315.277344 69.179688 L 299.617188 71.519531 L 299.078125 72.148438 C 299.707031 80.878906 299.976562 85.109375 300.15625 96.898438 C 300.335938 111.480469 300.335938 126.058594 300.246094 140.640625 L 300.878906 141.269531 C 306.90625 141 308.617188 141 315.457031 141 L 315.996094 140.371094 L 315.457031 125.160156 L 315.367188 114.808594 C 323.199219 129.210938 324.1875 131.191406 328.777344 140.730469 L 329.585938 141.269531 L 345.789062 140.640625 Z M 406.355469 140.371094 C 409.957031 126.421875 410.585938 124.261719 415.984375 104.910156 C 417.066406 101.21875 418.054688 97.441406 419.046875 93.75 L 418.507812 93.03125 L 406.804688 93.300781 L 406.175781 93.929688 L 403.566406 107.429688 L 401.046875 118.320312 L 399.335938 126.601562 L 397.804688 118.589844 L 395.824219 109.230469 L 392.675781 93.660156 L 392.136719 93.03125 L 374.855469 93.300781 L 374.226562 93.929688 L 371.257812 108.691406 L 369.097656 118.589844 L 367.386719 126.871094 L 365.675781 117.960938 L 363.515625 108.238281 L 360.457031 93.300781 L 359.914062 92.851562 L 345.335938 93.929688 L 344.796875 94.648438 C 353.257812 124.351562 354.605469 129.660156 357.125 140.730469 L 357.757812 141.269531 C 363.964844 141 366.214844 140.910156 374.496094 141 L 375.035156 140.371094 L 377.375 129.390625 L 379.894531 118.5 L 382.144531 107.609375 L 383.496094 114.449219 L 384.847656 121.109375 L 388.625 140.640625 L 389.257812 141.269531 C 395.914062 141 398.617188 140.910156 405.816406 141 Z M 463.777344 127.679688 C 460.359375 129.480469 456.308594 131.550781 449.738281 131.550781 C 444.339844 131.550781 440.648438 129.839844 438.488281 126.601562 C 437.136719 124.710938 436.867188 122.910156 436.507812 121.109375 L 465.578125 120.570312 L 466.117188 119.941406 C 466.027344 115.53125 465.9375 111.03125 464.679688 106.53125 C 461.527344 95.910156 454.597656 93.75 451.539062 93.03125 C 449.289062 92.398438 447.21875 92.21875 445.148438 92.21875 C 431.019531 92.21875 421.65625 101.488281 421.65625 117.058594 C 421.65625 121.289062 422.378906 125.699219 423.816406 128.851562 C 429.039062 141 441.277344 142.078125 447.757812 142.078125 C 455.226562 142.078125 458.46875 140.730469 463.238281 138.839844 L 463.777344 138.121094 L 464.40625 127.949219 L 463.777344 127.679688 M 436.507812 111.570312 C 436.777344 108.78125 437.40625 105 440.828125 102.839844 C 441.90625 102.121094 443.167969 101.851562 444.429688 101.851562 C 447.398438 101.851562 449.199219 103.378906 450.1875 105 C 451.449219 106.980469 451.539062 109.140625 451.539062 111.210938 Z M 490.6875 140.371094 C 490.234375 133.441406 489.875 128.128906 489.875 115.710938 C 489.875 108.058594 490.054688 100.320312 490.144531 92.671875 L 489.515625 91.949219 L 474.035156 94.648438 L 473.496094 95.191406 C 474.214844 102.03125 474.484375 105.179688 474.484375 117.960938 C 474.484375 127.769531 474.214844 133.261719 473.945312 140.640625 L 474.484375 141.269531 C 480.964844 141 482.765625 140.910156 490.054688 141 L 490.6875 140.371094 M 489.246094 83.308594 L 489.515625 71.070312 L 488.976562 70.53125 L 474.304688 72.328125 L 473.765625 72.960938 C 473.945312 76.199219 474.035156 78.089844 474.035156 80.25 C 474.035156 81.960938 474.035156 83.761719 473.945312 85.46875 L 474.574219 86.011719 C 480.695312 84.929688 482.40625 84.75 488.796875 83.941406 Z M 516.515625 140.371094 C 516.066406 130.019531 515.617188 120.570312 515.617188 92.128906 C 515.617188 83.578125 515.707031 79.53125 516.066406 69.808594 L 515.4375 69.179688 L 500.046875 71.609375 L 499.6875 72.148438 C 500.585938 83.128906 500.675781 86.101562 500.855469 100.679688 C 500.949219 105.988281 500.949219 111.300781 500.949219 116.609375 C 500.949219 126.328125 500.765625 131.730469 500.40625 140.640625 L 500.949219 141.269531 C 506.976562 141 509.40625 140.910156 515.976562 141 Z M 566.914062 127.679688 C 563.496094 129.480469 559.445312 131.550781 552.875 131.550781 C 547.476562 131.550781 543.785156 129.839844 541.625 126.601562 C 540.273438 124.710938 540.003906 122.910156 539.644531 121.109375 L 568.714844 120.570312 L 569.253906 119.941406 C 569.164062 115.53125 569.074219 111.03125 567.816406 106.53125 C 564.664062 95.910156 557.734375 93.75 554.675781 93.03125 C 552.425781 92.398438 550.355469 92.21875 548.285156 92.21875 C 534.15625 92.21875 524.792969 101.488281 524.792969 117.058594 C 524.792969 121.289062 525.515625 125.699219 526.953125 128.851562 C 532.175781 141 544.414062 142.078125 550.894531 142.078125 C 558.363281 142.078125 561.605469 140.730469 566.375 138.839844 L 566.914062 138.121094 L 567.542969 127.949219 L 566.914062 127.679688 M 539.644531 111.570312 C 539.914062 108.78125 540.542969 105 543.964844 102.839844 C 545.042969 102.121094 546.304688 101.851562 547.566406 101.851562 C 550.535156 101.851562 552.335938 103.378906 553.324219 105 C 554.585938 106.980469 554.675781 109.140625 554.675781 111.210938 Z M 603.546875 107.609375 L 606.066406 92.941406 L 605.527344 92.308594 C 604.898438 92.308594 604.265625 92.21875 603.636719 92.21875 C 599.945312 92.21875 595.808594 94.289062 592.925781 100.949219 L 593.195312 92.671875 L 592.476562 91.949219 C 585.816406 93.390625 584.105469 93.660156 577.535156 94.648438 L 576.996094 95.191406 C 577.535156 101.941406 577.808594 105.988281 577.808594 118.5 C 577.808594 125.878906 577.714844 133.261719 577.535156 140.730469 L 578.078125 141.269531 C 584.738281 141 586.175781 140.910156 593.375 141 L 593.828125 140.371094 C 593.464844 133.078125 592.925781 122.910156 592.925781 116.699219 C 592.925781 112.648438 592.925781 106.710938 599.046875 106.710938 C 600.578125 106.710938 601.476562 107.25 602.738281 107.96875 Z M 663.578125 102.300781 C 656.019531 99.148438 652.058594 97.53125 652.058594 93.480469 C 652.058594 90.691406 654.667969 87.179688 660.609375 87.179688 C 667.449219 87.179688 671.496094 89.96875 674.828125 92.21875 L 675.636719 91.859375 L 676.359375 80.070312 L 675.90625 79.441406 C 672.039062 77.820312 667.988281 76.109375 659.257812 76.109375 C 642.339844 76.109375 636.488281 85.648438 636.488281 95.28125 C 636.488281 106.171875 644.949219 110.128906 649.988281 112.558594 L 652.957031 113.910156 C 659.167969 116.519531 663.9375 118.769531 663.9375 123.539062 C 663.9375 126.960938 660.96875 131.011719 653.136719 131.011719 C 644.949219 131.011719 640.359375 127.410156 637.746094 125.339844 L 636.847656 125.609375 L 636.21875 138.300781 L 636.757812 139.019531 C 637.746094 139.378906 638.738281 139.828125 639.726562 140.101562 C 641.796875 140.820312 647.109375 142.351562 653.859375 142.351562 C 656.558594 142.351562 663.398438 142.078125 668.796875 139.558594 C 676.359375 135.871094 679.597656 129.03125 679.597656 121.378906 C 679.597656 116.25 677.617188 110.761719 672.847656 107.070312 C 670.417969 105.269531 668.078125 104.191406 665.917969 103.199219 Z M 713.347656 130.648438 C 711.816406 131.101562 710.734375 131.460938 709.207031 131.460938 C 704.617188 131.460938 704.257812 128.578125 704.074219 127.230469 C 703.804688 124.890625 703.804688 119.941406 703.894531 116.339844 L 704.074219 103.648438 L 712.175781 104.011719 L 712.714844 103.46875 L 713.617188 93.839844 L 713.074219 93.300781 L 704.074219 93.300781 L 704.347656 78.179688 L 703.714844 77.640625 C 697.597656 79.441406 695.976562 79.890625 689.585938 81.511719 L 689.226562 82.140625 L 689.316406 93.390625 L 684.457031 93.210938 L 683.917969 93.660156 L 683.105469 103.289062 L 683.644531 103.828125 L 689.316406 103.648438 L 689.046875 117.960938 C 688.957031 120.210938 688.867188 122.460938 688.867188 124.800781 C 688.867188 133.078125 689.046875 141.988281 703.085938 141.988281 C 706.597656 141.988281 709.386719 141.449219 712.535156 140.910156 L 713.167969 140.28125 L 714.066406 131.011719 Z M 760.054688 114.179688 C 760.144531 106.078125 760.144531 102.570312 757.804688 98.789062 C 756.003906 95.910156 752.40625 92.308594 740.886719 92.308594 C 733.144531 92.308594 728.375 93.75 723.246094 95.28125 L 722.707031 96 L 722.253906 105.808594 L 722.976562 106.171875 C 726.125 104.910156 731.976562 102.570312 738.003906 102.570312 C 741.335938 102.570312 742.683594 103.109375 743.855469 104.28125 C 744.753906 105.179688 745.027344 106.800781 745.027344 108.148438 C 734.226562 109.589844 729.183594 110.578125 723.785156 113.910156 C 718.746094 117.058594 717.035156 122.191406 717.035156 126.238281 C 717.035156 135.871094 723.964844 142.078125 732.785156 142.078125 C 739.535156 142.078125 743.40625 138.839844 745.296875 137.308594 L 745.296875 140.640625 L 745.835938 141.269531 C 752.316406 141 754.296875 140.910156 760.144531 141 L 760.59375 140.371094 C 759.964844 131.550781 759.964844 129.300781 759.964844 120.839844 L 760.054688 114.179688 M 745.207031 128.488281 C 743.316406 129.570312 740.886719 130.828125 737.914062 130.828125 C 734.675781 130.828125 731.976562 129.121094 731.976562 125.339844 C 731.976562 119.398438 739.085938 118.410156 745.207031 117.601562 Z M 795.789062 130.648438 C 794.257812 131.101562 793.175781 131.460938 791.648438 131.460938 C 787.058594 131.460938 786.699219 128.578125 786.515625 127.230469 C 786.246094 124.890625 786.246094 119.941406 786.335938 116.339844 L 786.515625 103.648438 L 794.617188 104.011719 L 795.15625 103.46875 L 796.058594 93.839844 L 795.515625 93.300781 L 786.515625 93.300781 L 786.789062 78.179688 L 786.15625 77.640625 C 780.039062 79.441406 778.417969 79.890625 772.027344 81.511719 L 771.667969 82.140625 L 771.757812 93.390625 L 766.898438 93.210938 L 766.359375 93.660156 L 765.546875 103.289062 L 766.085938 103.828125 L 771.757812 103.648438 L 771.488281 117.960938 C 771.398438 120.210938 771.308594 122.460938 771.308594 124.800781 C 771.308594 133.078125 771.488281 141.988281 785.527344 141.988281 C 789.039062 141.988281 791.828125 141.449219 794.976562 140.910156 L 795.609375 140.28125 L 796.507812 131.011719 Z M 842.40625 127.679688 C 838.988281 129.480469 834.9375 131.550781 828.367188 131.550781 C 822.96875 131.550781 819.277344 129.839844 817.117188 126.601562 C 815.765625 124.710938 815.496094 122.910156 815.136719 121.109375 L 844.207031 120.570312 L 844.746094 119.941406 C 844.65625 115.53125 844.566406 111.03125 843.308594 106.53125 C 840.15625 95.910156 833.226562 93.75 830.167969 93.03125 C 827.917969 92.398438 825.847656 92.21875 823.777344 92.21875 C 809.648438 92.21875 800.285156 101.488281 800.285156 117.058594 C 800.285156 121.289062 801.007812 125.699219 802.445312 128.851562 C 807.667969 141 819.90625 142.078125 826.386719 142.078125 C 833.855469 142.078125 837.097656 140.730469 841.867188 138.839844 L 842.40625 138.121094 L 843.035156 127.949219 L 842.40625 127.679688 M 815.136719 111.570312 C 815.40625 108.78125 816.035156 105 819.457031 102.839844 C 820.535156 102.121094 821.796875 101.851562 823.058594 101.851562 C 826.027344 101.851562 827.828125 103.378906 828.816406 105 C 830.078125 106.980469 830.167969 109.140625 830.167969 111.210938 Z M 847.625 141 "/>
<path fill-rule="nonzero" fill="rgb(34.901961%, 14.901961%, 14.901961%)" fill-opacity="1" d="M 385.519531 261 C 393.890625 261.179688 404.238281 261.359375 410.988281 256.679688 C 416.929688 252.449219 418.550781 246.511719 418.550781 241.46875 C 418.550781 235.710938 416.117188 230.398438 410.988281 227.878906 C 409.277344 226.980469 407.300781 226.621094 405.410156 226.261719 C 408.46875 225 412.070312 223.378906 414.410156 218.609375 C 415.398438 216.539062 415.847656 214.378906 415.847656 212.308594 C 415.847656 209.429688 415.128906 205.46875 412.25 202.230469 C 408.46875 198.179688 402.617188 197.101562 393.800781 197.101562 C 390.738281 197.101562 385.25 197.191406 382.1875 197.28125 L 369.589844 197.460938 L 369.050781 198 C 369.410156 206.640625 369.5 209.96875 369.5 222.390625 C 369.5 235.171875 369.410156 247.859375 369.230469 260.640625 L 369.859375 261 L 385.519531 261 M 384.890625 233.640625 C 391.730469 233.460938 395.6875 233.460938 398.300781 234.988281 C 400.910156 236.609375 401.898438 239.488281 401.898438 242.371094 C 401.898438 246.421875 399.648438 248.941406 396.320312 250.109375 C 393.617188 251.011719 388.757812 251.011719 384.890625 250.921875 L 384.890625 233.640625 M 384.890625 207.179688 C 386.777344 207.179688 389.300781 207.089844 390.828125 207.089844 C 395.6875 207.089844 400.097656 208.800781 400.097656 214.648438 C 400.097656 219.421875 396.589844 221.398438 395.507812 221.941406 C 393.257812 222.929688 388.488281 222.929688 384.890625 222.929688 Z M 466.878906 247.679688 C 463.460938 249.480469 459.410156 251.550781 452.839844 251.550781 C 447.441406 251.550781 443.75 249.839844 441.589844 246.601562 C 440.238281 244.710938 439.96875 242.910156 439.609375 241.109375 L 468.679688 240.570312 L 469.21875 239.941406 C 469.128906 235.53125 469.039062 231.03125 467.78125 226.53125 C 464.628906 215.910156 457.699219 213.75 454.640625 213.03125 C 452.390625 212.398438 450.320312 212.21875 448.25 212.21875 C 434.121094 212.21875 424.757812 221.488281 424.757812 237.058594 C 424.757812 241.289062 425.480469 245.699219 426.917969 248.851562 C 432.140625 261 444.378906 262.078125 450.859375 262.078125 C 458.328125 262.078125 461.570312 260.730469 466.339844 258.839844 L 466.878906 258.121094 L 467.507812 247.949219 L 466.878906 247.679688 M 439.609375 231.570312 C 439.878906 228.78125 440.507812 225 443.929688 222.839844 C 445.007812 222.121094 446.269531 221.851562 447.53125 221.851562 C 450.5 221.851562 452.300781 223.378906 453.289062 225 C 454.550781 226.980469 454.640625 229.140625 454.640625 231.210938 Z M 517.546875 234.179688 C 517.636719 226.078125 517.636719 222.570312 515.296875 218.789062 C 513.496094 215.910156 509.898438 212.308594 498.378906 212.308594 C 490.636719 212.308594 485.867188 213.75 480.738281 215.28125 L 480.199219 216 L 479.746094 225.808594 L 480.46875 226.171875 C 483.617188 224.910156 489.46875 222.570312 495.496094 222.570312 C 498.828125 222.570312 500.175781 223.109375 501.347656 224.28125 C 502.246094 225.179688 502.519531 226.800781 502.519531 228.148438 C 491.71875 229.589844 486.675781 230.578125 481.277344 233.910156 C 476.238281 237.058594 474.527344 242.191406 474.527344 246.238281 C 474.527344 255.871094 481.457031 262.078125 490.277344 262.078125 C 497.027344 262.078125 500.898438 258.839844 502.789062 257.308594 L 502.789062 260.640625 L 503.328125 261.269531 C 509.808594 261 511.789062 260.910156 517.636719 261 L 518.085938 260.371094 C 517.457031 251.550781 517.457031 249.300781 517.457031 240.839844 L 517.546875 234.179688 M 502.699219 248.488281 C 500.808594 249.570312 498.378906 250.828125 495.40625 250.828125 C 492.167969 250.828125 489.46875 249.121094 489.46875 245.339844 C 489.46875 239.398438 496.578125 238.410156 502.699219 237.601562 Z M 563.269531 248.039062 C 560.839844 249.480469 558.5 250.921875 553.910156 250.921875 C 543.738281 250.921875 541.667969 242.460938 541.667969 237.058594 C 541.667969 230.488281 544.550781 222.929688 553.28125 222.929688 C 557.238281 222.929688 559.398438 224.371094 562.101562 226.171875 L 563 225.898438 C 563.359375 221.128906 563.449219 219.871094 564.167969 215.101562 L 563.71875 214.558594 C 559.757812 213.300781 556.339844 212.21875 551.121094 212.21875 C 529.96875 212.21875 525.828125 228.238281 525.828125 237.421875 C 525.828125 247.769531 531.230469 261.808594 551.480469 261.808594 C 556.25 261.808594 559.308594 260.910156 563.089844 259.828125 L 563.628906 259.289062 L 563.988281 248.488281 Z M 615.289062 260.371094 C 614.929688 252.988281 614.839844 250.46875 614.660156 241.109375 L 614.660156 234.359375 C 614.570312 225.808594 614.480469 220.859375 611.867188 217.078125 C 609.257812 213.390625 605.480469 212.21875 601.519531 212.21875 C 594.949219 212.21875 589.820312 215.371094 586.21875 217.53125 L 586.488281 189.808594 L 585.949219 189.179688 L 570.558594 191.609375 L 570.109375 192.148438 C 570.917969 200.878906 571.097656 204.121094 571.277344 215.730469 C 571.460938 223.019531 571.550781 230.308594 571.550781 237.601562 C 571.550781 246.511719 571.367188 251.820312 571.1875 260.640625 L 571.640625 261.269531 C 578.300781 260.910156 579.648438 260.910156 586.9375 260.910156 L 587.480469 260.371094 C 586.847656 246.871094 586.757812 242.820312 586.667969 226.890625 C 588.378906 225.71875 590.539062 224.191406 593.597656 224.191406 C 598.550781 224.191406 598.910156 229.320312 599.269531 232.921875 C 599.449219 235.710938 599.539062 248.488281 599.539062 251.820312 C 599.539062 254.789062 599.449219 257.671875 599.449219 260.640625 L 599.898438 261.269531 C 606.378906 260.910156 607.820312 260.910156 614.75 260.910156 Z M 620.148438 261 "/>
</svg>
