<?xml version="1.0" encoding="UTF-8"?>
<svg xmlns="http://www.w3.org/2000/svg" xmlns:xlink="http://www.w3.org/1999/xlink" width="975" height="1300" viewBox="0 0 975 1300">
<path fill-rule="nonzero" fill="rgb(98.823529%, 78.823529%, 9.019608%)" fill-opacity="1" d="M 50 50 L 925 50 L 925 290 L 50 290 Z M 50 50 "/>
<path fill-rule="nonzero" fill="rgb(34.901961%, 14.901961%, 14.901961%)" fill-opacity="1" d="M 152.148438 102.300781 C 144.589844 99.148438 140.628906 97.53125 140.628906 93.480469 C 140.628906 90.691406 143.238281 87.179688 149.179688 87.179688 C 156.019531 87.179688 160.066406 89.96875 163.398438 92.21875 L 164.207031 91.859375 L 164.929688 80.070312 L 164.476562 79.441406 C 160.609375 77.820312 156.558594 76.109375 147.828125 76.109375 C 130.910156 76.109375 125.058594 85.648438 125.058594 95.28125 C 125.058594 106.171875 133.519531 110.128906 138.558594 112.558594 L 141.527344 113.910156 C 147.738281 116.519531 152.507812 118.769531 152.507812 123.539062 C 152.507812 126.960938 149.539062 131.011719 141.707031 131.011719 C 133.519531 131.011719 128.929688 127.410156 126.316406 125.339844 L 125.417969 125.609375 L 124.789062 138.300781 L 125.328125 139.019531 C 126.316406 139.378906 127.308594 139.828125 128.296875 140.101562 C 130.367188 140.820312 135.679688 142.351562 142.429688 142.351562 C 145.128906 142.351562 151.96875 142.078125 157.367188 139.558594 C 164.929688 135.871094 168.167969 129.03125 168.167969 121.378906 C 168.167969 116.25 166.1875 110.761719 161.417969 107.070312 C 158.988281 105.269531 156.648438 104.191406 154.488281 103.199219 Z M 216.765625 114.179688 C 216.855469 106.078125 216.855469 102.570312 214.515625 98.789062 C 212.714844 95.910156 209.117188 92.308594 197.597656 92.308594 C 189.855469 92.308594 185.085938 93.75 179.957031 95.28125 L 179.417969 96 L 178.964844 105.808594 L 179.6875 106.171875 C 182.835938 104.910156 188.6875 102.570312 194.714844 102.570312 C 198.046875 102.570312 199.394531 103.109375 200.566406 104.28125 C 201.464844 105.179688 201.738281 106.800781 201.738281 108.148438 C 190.9375 109.589844 185.894531 110.578125 180.496094 113.910156 C 175.457031 117.058594 173.746094 122.191406 173.746094 126.238281 C 173.746094 135.871094 180.675781 142.078125 189.496094 142.078125 C 196.246094 142.078125 200.117188 138.839844 202.007812 137.308594 L 202.007812 140.640625 L 202.546875 141.269531 C 209.027344 141 211.007812 140.910156 216.855469 141 L 217.304688 140.371094 C 216.675781 131.550781 216.675781 129.300781 216.675781 120.839844 L 216.765625 114.179688 M 201.917969 128.488281 C 200.027344 129.570312 197.597656 130.828125 194.625 130.828125 C 191.386719 130.828125 188.6875 129.121094 188.6875 125.339844 C 188.6875 119.398438 195.796875 118.410156 201.917969 117.601562 Z M 271.398438 140.460938 C 271.039062 132.359375 270.769531 126.960938 270.769531 115.171875 C 270.769531 91.410156 271.128906 81.601562 271.488281 69.71875 L 270.859375 69.179688 L 256.007812 71.519531 L 255.558594 72.058594 C 256.097656 80.519531 256.1875 82.769531 256.097656 93.03125 C 249.347656 92.851562 240.886719 92.671875 234.046875 98.070312 C 227.75 102.929688 225.136719 110.398438 225.136719 119.671875 C 225.136719 126.691406 227.027344 133.710938 232.339844 138.121094 C 236.296875 141.359375 241.160156 142.078125 244.128906 142.078125 C 250.519531 142.078125 253.847656 139.109375 256.007812 137.21875 L 255.828125 140.730469 L 256.277344 141.269531 C 262.488281 141 264.199219 141 270.949219 141 L 271.398438 140.460938 M 256.097656 103.828125 C 256.1875 115.800781 256.097656 118.140625 255.828125 129.03125 C 254.027344 130.109375 252.226562 131.191406 249.707031 131.191406 C 240.976562 131.191406 240.976562 120.03125 240.976562 118.230469 C 240.976562 111.300781 242.957031 103.558594 253.039062 103.558594 C 254.027344 103.558594 254.839844 103.648438 256.097656 103.828125 Z M 325.757812 140.460938 C 325.398438 132.359375 325.128906 126.960938 325.128906 115.171875 C 325.128906 91.410156 325.488281 81.601562 325.847656 69.71875 L 325.21875 69.179688 L 310.367188 71.519531 L 309.917969 72.058594 C 310.457031 80.519531 310.546875 82.769531 310.457031 93.03125 C 303.707031 92.851562 295.246094 92.671875 288.40625 98.070312 C 282.109375 102.929688 279.496094 110.398438 279.496094 119.671875 C 279.496094 126.691406 281.386719 133.710938 286.699219 138.121094 C 290.65625 141.359375 295.519531 142.078125 298.488281 142.078125 C 304.878906 142.078125 308.207031 139.109375 310.367188 137.21875 L 310.1875 140.730469 L 310.636719 141.269531 C 316.847656 141 318.558594 141 325.308594 141 L 325.757812 140.460938 M 310.457031 103.828125 C 310.546875 115.800781 310.457031 118.140625 310.1875 129.03125 C 308.386719 130.109375 306.585938 131.191406 304.066406 131.191406 C 295.335938 131.191406 295.335938 120.03125 295.335938 118.230469 C 295.335938 111.300781 297.316406 103.558594 307.398438 103.558594 C 308.386719 103.558594 309.199219 103.648438 310.457031 103.828125 Z M 351.855469 140.371094 C 351.40625 130.019531 350.957031 120.570312 350.957031 92.128906 C 350.957031 83.578125 351.046875 79.53125 351.40625 69.808594 L 350.777344 69.179688 L 335.386719 71.609375 L 335.027344 72.148438 C 335.925781 83.128906 336.015625 86.101562 336.195312 100.679688 C 336.289062 105.988281 336.289062 111.300781 336.289062 116.609375 C 336.289062 126.328125 336.105469 131.730469 335.746094 140.640625 L 336.289062 141.269531 C 342.316406 141 344.746094 140.910156 351.316406 141 Z M 402.257812 127.679688 C 398.839844 129.480469 394.789062 131.550781 388.21875 131.550781 C 382.820312 131.550781 379.128906 129.839844 376.96875 126.601562 C 375.617188 124.710938 375.347656 122.910156 374.988281 121.109375 L 404.058594 120.570312 L 404.597656 119.941406 C 404.507812 115.53125 404.417969 111.03125 403.160156 106.53125 C 400.007812 95.910156 393.078125 93.75 390.019531 93.03125 C 387.769531 92.398438 385.699219 92.21875 383.628906 92.21875 C 369.5 92.21875 360.136719 101.488281 360.136719 117.058594 C 360.136719 121.289062 360.859375 125.699219 362.296875 128.851562 C 367.519531 141 379.757812 142.078125 386.238281 142.078125 C 393.707031 142.078125 396.949219 140.730469 401.71875 138.839844 L 402.257812 138.121094 L 402.886719 127.949219 L 402.257812 127.679688 M 374.988281 111.570312 C 375.257812 108.78125 375.886719 105 379.308594 102.839844 C 380.386719 102.121094 381.648438 101.851562 382.910156 101.851562 C 385.878906 101.851562 387.679688 103.378906 388.667969 105 C 389.929688 106.980469 390.019531 109.140625 390.019531 111.210938 Z M 419.355469 141.179688 L 421.15625 141.179688 C 435.554688 141.179688 444.828125 140.460938 451.667969 133.171875 C 458.054688 126.328125 458.6875 118.230469 458.6875 114.449219 C 458.6875 101.941406 451.488281 92.21875 439.246094 92.21875 C 433.304688 92.21875 430.15625 94.199219 427.636719 95.820312 L 428.175781 69.71875 L 427.457031 69.179688 L 412.515625 71.519531 L 411.976562 72.148438 C 412.695312 79.710938 412.964844 82.769531 412.964844 100.859375 C 412.964844 108.601562 412.875 123.898438 412.785156 140.640625 L 413.417969 141.269531 L 419.355469 141.179688 M 427.996094 104.730469 C 429.796875 103.828125 431.507812 102.929688 433.847656 102.929688 C 439.785156 102.929688 443.207031 108.238281 443.207031 116.519531 C 443.207031 123 440.328125 127.230469 437.898438 128.941406 C 434.925781 131.011719 431.054688 131.101562 427.996094 131.191406 Z M 507.289062 114.179688 C 507.378906 106.078125 507.378906 102.570312 505.039062 98.789062 C 503.238281 95.910156 499.640625 92.308594 488.121094 92.308594 C 480.378906 92.308594 475.609375 93.75 470.480469 95.28125 L 469.941406 96 L 469.488281 105.808594 L 470.210938 106.171875 C 473.359375 104.910156 479.210938 102.570312 485.238281 102.570312 C 488.570312 102.570312 489.917969 103.109375 491.089844 104.28125 C 491.988281 105.179688 492.261719 106.800781 492.261719 108.148438 C 481.460938 109.589844 476.417969 110.578125 471.019531 113.910156 C 465.980469 117.058594 464.269531 122.191406 464.269531 126.238281 C 464.269531 135.871094 471.199219 142.078125 480.019531 142.078125 C 486.769531 142.078125 490.640625 138.839844 492.53125 137.308594 L 492.53125 140.640625 L 493.070312 141.269531 C 499.550781 141 501.53125 140.910156 507.378906 141 L 507.828125 140.371094 C 507.199219 131.550781 507.199219 129.300781 507.199219 120.839844 L 507.289062 114.179688 M 492.441406 128.488281 C 490.550781 129.570312 488.121094 130.828125 485.148438 130.828125 C 481.910156 130.828125 479.210938 129.121094 479.210938 125.339844 C 479.210938 119.398438 486.320312 118.410156 492.441406 117.601562 Z M 553.007812 128.039062 C 550.578125 129.480469 548.238281 130.921875 543.648438 130.921875 C 533.476562 130.921875 531.40625 122.460938 531.40625 117.058594 C 531.40625 110.488281 534.289062 102.929688 543.019531 102.929688 C 546.976562 102.929688 549.136719 104.371094 551.839844 106.171875 L 552.738281 105.898438 C 553.097656 101.128906 553.1875 99.871094 553.90625 95.101562 L 553.457031 94.558594 C 549.496094 93.300781 546.078125 92.21875 540.859375 92.21875 C 519.707031 92.21875 515.566406 108.238281 515.566406 117.421875 C 515.566406 127.769531 520.96875 141.808594 541.21875 141.808594 C 545.988281 141.808594 549.046875 140.910156 552.828125 139.828125 L 553.367188 139.289062 L 553.726562 128.488281 Z M 607.1875 139.828125 C 598.726562 125.519531 597.828125 123.898438 590.988281 111.570312 C 597.199219 103.109375 597.828125 102.210938 604.21875 94.019531 L 603.765625 93.121094 L 589.097656 93.300781 L 588.199219 93.929688 C 581.175781 106.078125 580.277344 107.519531 576.136719 113.730469 L 576.136719 103.738281 C 576.226562 86.910156 576.316406 83.308594 576.765625 69.71875 L 576.046875 69.179688 L 560.386719 71.519531 L 559.847656 72.148438 C 560.476562 80.878906 560.746094 85.109375 560.925781 96.898438 C 561.105469 111.480469 561.105469 126.058594 561.015625 140.640625 L 561.648438 141.269531 C 567.675781 141 569.386719 141 576.226562 141 L 576.765625 140.371094 L 576.226562 125.160156 L 576.136719 114.808594 C 583.96875 129.210938 584.957031 131.191406 589.546875 140.730469 L 590.355469 141.269531 L 606.558594 140.640625 Z M 654.527344 141 C 662.898438 141.179688 673.246094 141.359375 679.996094 136.679688 C 685.9375 132.449219 687.558594 126.511719 687.558594 121.46875 C 687.558594 115.710938 685.125 110.398438 679.996094 107.878906 C 678.285156 106.980469 676.308594 106.621094 674.417969 106.261719 C 677.476562 105 681.078125 103.378906 683.417969 98.609375 C 684.40625 96.539062 684.855469 94.378906 684.855469 92.308594 C 684.855469 89.429688 684.136719 85.46875 681.257812 82.230469 C 677.476562 78.179688 671.625 77.101562 662.808594 77.101562 C 659.746094 77.101562 654.257812 77.191406 651.195312 77.28125 L 638.597656 77.460938 L 638.058594 78 C 638.417969 86.640625 638.507812 89.96875 638.507812 102.390625 C 638.507812 115.171875 638.417969 127.859375 638.238281 140.640625 L 638.867188 141 L 654.527344 141 M 653.898438 113.640625 C 660.738281 113.460938 664.695312 113.460938 667.308594 114.988281 C 669.917969 116.609375 670.90625 119.488281 670.90625 122.371094 C 670.90625 126.421875 668.65625 128.941406 665.328125 130.109375 C 662.625 131.011719 657.765625 131.011719 653.898438 130.921875 L 653.898438 113.640625 M 653.898438 87.179688 C 655.785156 87.179688 658.308594 87.089844 659.835938 87.089844 C 664.695312 87.089844 669.105469 88.800781 669.105469 94.648438 C 669.105469 99.421875 665.597656 101.398438 664.515625 101.941406 C 662.265625 102.929688 657.496094 102.929688 653.898438 102.929688 Z M 739.128906 92.851562 L 724.457031 93.570312 L 723.828125 94.109375 C 724.457031 104.28125 724.457031 118.679688 724.457031 120.121094 C 724.457031 122.730469 724.457031 124.171875 724.367188 127.769531 C 721.9375 129.390625 720.046875 130.738281 717.617188 130.738281 C 711.136719 130.738281 711.136719 123.898438 711.136719 118.589844 C 711.136719 116.339844 711.136719 114 711.226562 111.75 L 711.40625 93.570312 L 710.777344 92.851562 L 695.925781 93.570312 L 695.296875 94.109375 C 695.835938 101.671875 695.925781 104.191406 695.925781 113.28125 L 695.925781 119.578125 C 695.835938 129.390625 696.289062 133.53125 699.527344 137.308594 C 702.496094 140.640625 706.816406 142.078125 711.316406 142.078125 C 717.707031 142.078125 721.398438 139.199219 724.636719 136.679688 L 724.546875 140.730469 L 725.175781 141.269531 C 731.746094 141 733.726562 141 739.578125 141 L 740.117188 140.460938 C 739.667969 134.070312 739.488281 130.648438 739.488281 118.949219 C 739.488281 110.488281 739.578125 102.03125 739.757812 93.570312 Z M 775.488281 130.648438 C 773.957031 131.101562 772.875 131.460938 771.347656 131.460938 C 766.757812 131.460938 766.398438 128.578125 766.214844 127.230469 C 765.945312 124.890625 765.945312 119.941406 766.035156 116.339844 L 766.214844 103.648438 L 774.316406 104.011719 L 774.855469 103.46875 L 775.757812 93.839844 L 775.214844 93.300781 L 766.214844 93.300781 L 766.488281 78.179688 L 765.855469 77.640625 C 759.738281 79.441406 758.117188 79.890625 751.726562 81.511719 L 751.367188 82.140625 L 751.457031 93.390625 L 746.597656 93.210938 L 746.058594 93.660156 L 745.246094 103.289062 L 745.785156 103.828125 L 751.457031 103.648438 L 751.1875 117.960938 C 751.097656 120.210938 751.007812 122.460938 751.007812 124.800781 C 751.007812 133.078125 751.1875 141.988281 765.226562 141.988281 C 768.738281 141.988281 771.527344 141.449219 774.675781 140.910156 L 775.308594 140.28125 L 776.207031 131.011719 Z M 807.351562 130.648438 C 805.820312 131.101562 804.738281 131.460938 803.210938 131.460938 C 798.621094 131.460938 798.261719 128.578125 798.078125 127.230469 C 797.808594 124.890625 797.808594 119.941406 797.898438 116.339844 L 798.078125 103.648438 L 806.179688 104.011719 L 806.71875 103.46875 L 807.621094 93.839844 L 807.078125 93.300781 L 798.078125 93.300781 L 798.351562 78.179688 L 797.71875 77.640625 C 791.601562 79.441406 789.980469 79.890625 783.589844 81.511719 L 783.230469 82.140625 L 783.320312 93.390625 L 778.460938 93.210938 L 777.921875 93.660156 L 777.109375 103.289062 L 777.648438 103.828125 L 783.320312 103.648438 L 783.050781 117.960938 C 782.960938 120.210938 782.871094 122.460938 782.871094 124.800781 C 782.871094 133.078125 783.050781 141.988281 797.089844 141.988281 C 800.601562 141.988281 803.390625 141.449219 806.539062 140.910156 L 807.171875 140.28125 L 808.070312 131.011719 Z M 853.96875 127.679688 C 850.550781 129.480469 846.5 131.550781 839.929688 131.550781 C 834.53125 131.550781 830.839844 129.839844 828.679688 126.601562 C 827.328125 124.710938 827.058594 122.910156 826.699219 121.109375 L 855.769531 120.570312 L 856.308594 119.941406 C 856.21875 115.53125 856.128906 111.03125 854.871094 106.53125 C 851.71875 95.910156 844.789062 93.75 841.730469 93.03125 C 839.480469 92.398438 837.410156 92.21875 835.339844 92.21875 C 821.210938 92.21875 811.847656 101.488281 811.847656 117.058594 C 811.847656 121.289062 812.570312 125.699219 814.007812 128.851562 C 819.230469 141 831.46875 142.078125 837.949219 142.078125 C 845.417969 142.078125 848.660156 140.730469 853.429688 138.839844 L 853.96875 138.121094 L 854.597656 127.949219 L 853.96875 127.679688 M 826.699219 111.570312 C 826.96875 108.78125 827.597656 105 831.019531 102.839844 C 832.097656 102.121094 833.359375 101.851562 834.621094 101.851562 C 837.589844 101.851562 839.390625 103.378906 840.378906 105 C 841.640625 106.980469 841.730469 109.140625 841.730469 111.210938 Z M 859.1875 141 "/>
<path fill-rule="nonzero" fill="rgb(34.901961%, 14.901961%, 14.901961%)" fill-opacity="1" d="M 303.890625 222.300781 C 296.332031 219.148438 292.371094 217.53125 292.371094 213.480469 C 292.371094 210.691406 294.980469 207.179688 300.921875 207.179688 C 307.761719 207.179688 311.808594 209.96875 315.140625 212.21875 L 315.949219 211.859375 L 316.671875 200.070312 L 316.21875 199.441406 C 312.351562 197.820312 308.300781 196.109375 299.570312 196.109375 C 282.652344 196.109375 276.800781 205.648438 276.800781 215.28125 C 276.800781 226.171875 285.261719 230.128906 290.300781 232.558594 L 293.269531 233.910156 C 299.480469 236.519531 304.25 238.769531 304.25 243.539062 C 304.25 246.960938 301.28125 251.011719 293.449219 251.011719 C 285.261719 251.011719 280.671875 247.410156 278.058594 245.339844 L 277.160156 245.609375 L 276.53125 258.300781 L 277.070312 259.019531 C 278.058594 259.378906 279.050781 259.828125 280.039062 260.101562 C 282.109375 260.820312 287.421875 262.351562 294.171875 262.351562 C 296.871094 262.351562 303.710938 262.078125 309.109375 259.558594 C 316.671875 255.871094 319.910156 249.03125 319.910156 241.378906 C 319.910156 236.25 317.929688 230.761719 313.160156 227.070312 C 310.730469 225.269531 308.390625 224.191406 306.230469 223.199219 Z M 353.660156 250.648438 C 352.128906 251.101562 351.046875 251.460938 349.519531 251.460938 C 344.929688 251.460938 344.570312 248.578125 344.386719 247.230469 C 344.117188 244.890625 344.117188 239.941406 344.207031 236.339844 L 344.386719 223.648438 L 352.488281 224.011719 L 353.027344 223.46875 L 353.929688 213.839844 L 353.386719 213.300781 L 344.386719 213.300781 L 344.660156 198.179688 L 344.027344 197.640625 C 337.910156 199.441406 336.289062 199.890625 329.898438 201.511719 L 329.539062 202.140625 L 329.628906 213.390625 L 324.769531 213.210938 L 324.230469 213.660156 L 323.417969 223.289062 L 323.957031 223.828125 L 329.628906 223.648438 L 329.359375 237.960938 C 329.269531 240.210938 329.179688 242.460938 329.179688 244.800781 C 329.179688 253.078125 329.359375 261.988281 343.398438 261.988281 C 346.910156 261.988281 349.699219 261.449219 352.847656 260.910156 L 353.480469 260.28125 L 354.378906 251.011719 Z M 400.371094 234.179688 C 400.460938 226.078125 400.460938 222.570312 398.121094 218.789062 C 396.320312 215.910156 392.722656 212.308594 381.203125 212.308594 C 373.460938 212.308594 368.691406 213.75 363.5625 215.28125 L 363.023438 216 L 362.570312 225.808594 L 363.292969 226.171875 C 366.441406 224.910156 372.292969 222.570312 378.320312 222.570312 C 381.652344 222.570312 383 223.109375 384.171875 224.28125 C 385.070312 225.179688 385.34375 226.800781 385.34375 228.148438 C 374.542969 229.589844 369.5 230.578125 364.101562 233.910156 C 359.0625 237.058594 357.351562 242.191406 357.351562 246.238281 C 357.351562 255.871094 364.28125 262.078125 373.101562 262.078125 C 379.851562 262.078125 383.722656 258.839844 385.613281 257.308594 L 385.613281 260.640625 L 386.152344 261.269531 C 392.632812 261 394.613281 260.910156 400.460938 261 L 400.910156 260.371094 C 400.28125 251.550781 400.28125 249.300781 400.28125 240.839844 L 400.371094 234.179688 M 385.523438 248.488281 C 383.632812 249.570312 381.203125 250.828125 378.230469 250.828125 C 374.992188 250.828125 372.292969 249.121094 372.292969 245.339844 C 372.292969 239.398438 379.402344 238.410156 385.523438 237.601562 Z M 436.101562 250.648438 C 434.570312 251.101562 433.488281 251.460938 431.960938 251.460938 C 427.371094 251.460938 427.011719 248.578125 426.828125 247.230469 C 426.558594 244.890625 426.558594 239.941406 426.648438 236.339844 L 426.828125 223.648438 L 434.929688 224.011719 L 435.46875 223.46875 L 436.371094 213.839844 L 435.828125 213.300781 L 426.828125 213.300781 L 427.101562 198.179688 L 426.46875 197.640625 C 420.351562 199.441406 418.730469 199.890625 412.339844 201.511719 L 411.980469 202.140625 L 412.070312 213.390625 L 407.210938 213.210938 L 406.671875 213.660156 L 405.859375 223.289062 L 406.398438 223.828125 L 412.070312 223.648438 L 411.800781 237.960938 C 411.710938 240.210938 411.621094 242.460938 411.621094 244.800781 C 411.621094 253.078125 411.800781 261.988281 425.839844 261.988281 C 429.351562 261.988281 432.140625 261.449219 435.289062 260.910156 L 435.921875 260.28125 L 436.820312 251.011719 Z M 482.71875 247.679688 C 479.300781 249.480469 475.25 251.550781 468.679688 251.550781 C 463.28125 251.550781 459.589844 249.839844 457.429688 246.601562 C 456.078125 244.710938 455.808594 242.910156 455.449219 241.109375 L 484.519531 240.570312 L 485.058594 239.941406 C 484.96875 235.53125 484.878906 231.03125 483.621094 226.53125 C 480.46875 215.910156 473.539062 213.75 470.480469 213.03125 C 468.230469 212.398438 466.160156 212.21875 464.089844 212.21875 C 449.960938 212.21875 440.597656 221.488281 440.597656 237.058594 C 440.597656 241.289062 441.320312 245.699219 442.757812 248.851562 C 447.980469 261 460.21875 262.078125 466.699219 262.078125 C 474.167969 262.078125 477.410156 260.730469 482.179688 258.839844 L 482.71875 258.121094 L 483.347656 247.949219 L 482.71875 247.679688 M 455.449219 231.570312 C 455.71875 228.78125 456.347656 225 459.769531 222.839844 C 460.847656 222.121094 462.109375 221.851562 463.371094 221.851562 C 466.339844 221.851562 468.140625 223.378906 469.128906 225 C 470.390625 226.980469 470.480469 229.140625 470.480469 231.210938 Z M 531.679688 197.28125 L 520.25 197.460938 L 519.707031 198 C 520.070312 209.699219 520.339844 217.53125 520.339844 227.878906 C 520.339844 238.859375 520.070312 249.75 519.796875 260.730469 L 520.339844 261.269531 C 527 261 528.4375 260.910156 535.640625 261 L 536.089844 260.460938 C 535.730469 250.648438 535.730469 248.398438 535.730469 239.21875 C 545.808594 239.308594 556.609375 239.308594 563.089844 231.390625 C 565.609375 228.328125 567.769531 223.199219 567.769531 216.898438 C 567.769531 213.03125 566.867188 204.480469 559.398438 200.25 C 554 197.101562 546.347656 197.101562 539.597656 197.101562 L 531.679688 197.28125 M 535.730469 208.171875 C 537.707031 208.078125 539.597656 208.078125 541.578125 208.078125 C 549.5 208.261719 551.660156 212.308594 551.660156 217.53125 C 551.660156 218.789062 551.660156 224.011719 546.890625 226.621094 C 544.457031 227.96875 541.128906 228.148438 535.730469 228.148438 Z M 614.03125 234.179688 C 614.121094 226.078125 614.121094 222.570312 611.78125 218.789062 C 609.980469 215.910156 606.382812 212.308594 594.863281 212.308594 C 587.121094 212.308594 582.351562 213.75 577.222656 215.28125 L 576.683594 216 L 576.230469 225.808594 L 576.953125 226.171875 C 580.101562 224.910156 585.953125 222.570312 591.980469 222.570312 C 595.3125 222.570312 596.660156 223.109375 597.832031 224.28125 C 598.730469 225.179688 599.003906 226.800781 599.003906 228.148438 C 588.203125 229.589844 583.160156 230.578125 577.761719 233.910156 C 572.722656 237.058594 571.011719 242.191406 571.011719 246.238281 C 571.011719 255.871094 577.941406 262.078125 586.761719 262.078125 C 593.511719 262.078125 597.382812 258.839844 599.273438 257.308594 L 599.273438 260.640625 L 599.8125 261.269531 C 606.292969 261 608.273438 260.910156 614.121094 261 L 614.570312 260.371094 C 613.941406 251.550781 613.941406 249.300781 613.941406 240.839844 L 614.03125 234.179688 M 599.183594 248.488281 C 597.292969 249.570312 594.863281 250.828125 591.890625 250.828125 C 588.652344 250.828125 585.953125 249.121094 585.953125 245.339844 C 585.953125 239.398438 593.0625 238.410156 599.183594 237.601562 Z M 650.570312 227.609375 L 653.089844 212.941406 L 652.550781 212.308594 C 651.921875 212.308594 651.289062 212.21875 650.660156 212.21875 C 646.96875 212.21875 642.832031 214.289062 639.949219 220.949219 L 640.21875 212.671875 L 639.5 211.949219 C 632.839844 213.390625 631.128906 213.660156 624.558594 214.648438 L 624.019531 215.191406 C 624.558594 221.941406 624.832031 225.988281 624.832031 238.5 C 624.832031 245.878906 624.738281 253.261719 624.558594 260.730469 L 625.101562 261.269531 C 631.761719 261 633.199219 260.910156 640.398438 261 L 640.851562 260.371094 C 640.488281 253.078125 639.949219 242.910156 639.949219 236.699219 C 639.949219 232.648438 639.949219 226.710938 646.070312 226.710938 C 647.601562 226.710938 648.5 227.25 649.761719 227.96875 Z M 704.570312 259.828125 C 696.109375 245.519531 695.210938 243.898438 688.371094 231.570312 C 694.582031 223.109375 695.210938 222.210938 701.601562 214.019531 L 701.148438 213.121094 L 686.480469 213.300781 L 685.582031 213.929688 C 678.558594 226.078125 677.660156 227.519531 673.519531 233.730469 L 673.519531 223.738281 C 673.609375 206.910156 673.699219 203.308594 674.148438 189.71875 L 673.429688 189.179688 L 657.769531 191.519531 L 657.230469 192.148438 C 657.859375 200.878906 658.128906 205.109375 658.308594 216.898438 C 658.488281 231.480469 658.488281 246.058594 658.398438 260.640625 L 659.03125 261.269531 C 665.058594 261 666.769531 261 673.609375 261 L 674.148438 260.371094 L 673.609375 245.160156 L 673.519531 234.808594 C 681.351562 249.210938 682.339844 251.191406 686.929688 260.730469 L 687.738281 261.269531 L 703.941406 260.640625 Z M 703.492188 261 "/>
</svg>
