<?xml version="1.0" encoding="UTF-8"?>
<svg xmlns="http://www.w3.org/2000/svg" xmlns:xlink="http://www.w3.org/1999/xlink" width="975" height="1300" viewBox="0 0 975 1300">
<path fill-rule="nonzero" fill="rgb(98.823529%, 78.823529%, 9.019608%)" fill-opacity="1" d="M 50 50 L 925 50 L 925 410 L 50 410 Z M 50 50 "/>
<path fill-rule="nonzero" fill="rgb(34.901961%, 14.901961%, 14.901961%)" fill-opacity="1" d="M 197.917969 77.191406 C 189.277344 77.460938 187.476562 77.460938 177.847656 77.460938 L 177.214844 78 C 172.445312 93.300781 169.566406 102.390625 156.335938 140.371094 L 156.695312 141 L 170.734375 141 L 171.367188 140.460938 L 175.777344 124.078125 L 195.214844 124.078125 L 199.085938 140.730469 L 199.714844 141.269531 C 206.285156 141 208.085938 140.910156 215.375 141 L 215.828125 140.28125 C 204.9375 101.761719 203.675781 97.53125 198.546875 77.730469 L 197.917969 77.191406 M 178.925781 113.191406 L 183.425781 97.980469 L 186.578125 87.449219 L 189.277344 99.148438 L 192.605469 113.191406 Z M 265.6875 140.371094 C 265.238281 132.449219 265.238281 129.929688 265.058594 121.109375 L 265.058594 114.089844 C 264.96875 105.449219 264.878906 101.308594 262.628906 97.621094 C 259.835938 92.941406 254.707031 92.21875 251.46875 92.21875 C 245.976562 92.21875 241.207031 95.101562 237.066406 97.53125 L 237.246094 92.578125 L 236.347656 91.949219 C 229.417969 93.390625 227.886719 93.660156 221.136719 94.558594 L 220.597656 95.191406 C 221.316406 103.019531 221.859375 108.691406 221.859375 123.359375 C 221.859375 129.121094 221.765625 134.878906 221.675781 140.640625 L 222.21875 141.179688 C 228.699219 140.910156 230.046875 140.910156 237.246094 140.910156 L 237.789062 140.371094 C 237.246094 126.511719 237.15625 123 237.066406 106.890625 C 238.957031 105.628906 241.117188 104.101562 243.996094 104.101562 C 248.949219 104.101562 249.398438 109.410156 249.667969 112.648438 C 249.847656 115.621094 249.9375 127.949219 249.9375 131.371094 C 249.9375 134.429688 249.847656 137.578125 249.847656 140.640625 L 250.386719 141.179688 C 256.328125 141 257.859375 140.910156 265.058594 140.910156 Z M 301.148438 130.648438 C 299.617188 131.101562 298.535156 131.460938 297.007812 131.460938 C 292.417969 131.460938 292.058594 128.578125 291.875 127.230469 C 291.605469 124.890625 291.605469 119.941406 291.695312 116.339844 L 291.875 103.648438 L 299.976562 104.011719 L 300.515625 103.46875 L 301.417969 93.839844 L 300.875 93.300781 L 291.875 93.300781 L 292.148438 78.179688 L 291.515625 77.640625 C 285.398438 79.441406 283.777344 79.890625 277.386719 81.511719 L 277.027344 82.140625 L 277.117188 93.390625 L 272.257812 93.210938 L 271.71875 93.660156 L 270.90625 103.289062 L 271.445312 103.828125 L 277.117188 103.648438 L 276.847656 117.960938 C 276.757812 120.210938 276.667969 122.460938 276.667969 124.800781 C 276.667969 133.078125 276.847656 141.988281 290.886719 141.988281 C 294.398438 141.988281 297.1875 141.449219 300.335938 140.910156 L 300.96875 140.28125 L 301.867188 131.011719 Z M 347.765625 127.679688 C 344.347656 129.480469 340.296875 131.550781 333.726562 131.550781 C 328.328125 131.550781 324.636719 129.839844 322.476562 126.601562 C 321.125 124.710938 320.855469 122.910156 320.496094 121.109375 L 349.566406 120.570312 L 350.105469 119.941406 C 350.015625 115.53125 349.925781 111.03125 348.667969 106.53125 C 345.515625 95.910156 338.585938 93.75 335.527344 93.03125 C 333.277344 92.398438 331.207031 92.21875 329.136719 92.21875 C 315.007812 92.21875 305.644531 101.488281 305.644531 117.058594 C 305.644531 121.289062 306.367188 125.699219 307.804688 128.851562 C 313.027344 141 325.265625 142.078125 331.746094 142.078125 C 339.214844 142.078125 342.457031 140.730469 347.226562 138.839844 L 347.765625 138.121094 L 348.394531 127.949219 L 347.765625 127.679688 M 320.496094 111.570312 C 320.765625 108.78125 321.394531 105 324.816406 102.839844 C 325.894531 102.121094 327.15625 101.851562 328.417969 101.851562 C 331.386719 101.851562 333.1875 103.378906 334.175781 105 C 335.4375 106.980469 335.527344 109.140625 335.527344 111.210938 Z M 374.222656 140.371094 C 373.773438 130.019531 373.324219 120.570312 373.324219 92.128906 C 373.324219 83.578125 373.414062 79.53125 373.773438 69.808594 L 373.144531 69.179688 L 357.753906 71.609375 L 357.394531 72.148438 C 358.292969 83.128906 358.382812 86.101562 358.5625 100.679688 C 358.65625 105.988281 358.65625 111.300781 358.65625 116.609375 C 358.65625 126.328125 358.472656 131.730469 358.113281 140.640625 L 358.65625 141.269531 C 364.683594 141 367.113281 140.910156 373.683594 141 Z M 430.476562 117.058594 C 430.476562 113.550781 430.476562 98.96875 417.875 94.019531 C 413.914062 92.488281 409.234375 92.308594 406.894531 92.308594 C 391.234375 92.308594 382.414062 100.679688 382.414062 117.238281 C 382.414062 123 383.316406 128.851562 386.644531 133.710938 C 388.984375 137.21875 393.394531 142.078125 406.265625 142.078125 C 425.34375 142.078125 430.476562 130.558594 430.476562 117.058594 M 414.90625 116.96875 C 414.90625 124.351562 413.914062 132.539062 406.445312 132.539062 C 404.105469 132.539062 402.484375 131.460938 401.40625 130.46875 C 399.875 128.941406 398.164062 125.878906 398.164062 117.148438 C 398.164062 114.539062 398.164062 108.78125 399.964844 105.628906 C 401.316406 103.199219 403.65625 101.578125 406.535156 101.578125 C 409.054688 101.578125 411.125 102.929688 412.296875 104.371094 C 414.457031 106.980469 414.90625 112.109375 414.90625 116.96875 Z M 453.964844 92.851562 L 453.246094 92.039062 C 446.675781 93.480469 444.785156 93.839844 438.304688 94.648438 L 437.765625 95.28125 C 438.753906 105.988281 439.113281 110.128906 439.113281 136.050781 C 439.113281 146.761719 438.933594 152.878906 438.664062 163.050781 L 439.203125 163.5 C 445.59375 163.230469 447.484375 163.140625 454.324219 163.230469 L 454.863281 162.78125 L 454.234375 141.359375 C 460.804688 141.269531 469.894531 141.179688 477.183594 134.339844 C 482.945312 128.941406 484.835938 121.289062 484.835938 115.171875 C 484.835938 100.859375 476.105469 92.21875 466.023438 92.21875 C 459.816406 92.21875 456.304688 94.738281 453.785156 96.449219 L 453.964844 92.851562 M 454.144531 105.089844 C 456.125 103.921875 457.296875 103.289062 459.546875 103.289062 C 460.894531 103.289062 463.59375 103.46875 465.84375 105.988281 C 468.636719 109.050781 469.085938 113.640625 469.085938 116.699219 C 469.085938 121.921875 467.375 126.601562 463.773438 129.121094 C 460.894531 131.101562 457.296875 131.28125 454.144531 131.371094 Z M 533.34375 127.679688 C 529.925781 129.480469 525.875 131.550781 519.304688 131.550781 C 513.90625 131.550781 510.214844 129.839844 508.054688 126.601562 C 506.703125 124.710938 506.433594 122.910156 506.074219 121.109375 L 535.144531 120.570312 L 535.683594 119.941406 C 535.59375 115.53125 535.503906 111.03125 534.246094 106.53125 C 531.09375 95.910156 524.164062 93.75 521.105469 93.03125 C 518.855469 92.398438 516.785156 92.21875 514.714844 92.21875 C 500.585938 92.21875 491.222656 101.488281 491.222656 117.058594 C 491.222656 121.289062 491.945312 125.699219 493.382812 128.851562 C 498.605469 141 510.84375 142.078125 517.324219 142.078125 C 524.792969 142.078125 528.035156 140.730469 532.804688 138.839844 L 533.34375 138.121094 L 533.972656 127.949219 L 533.34375 127.679688 M 506.074219 111.570312 C 506.34375 108.78125 506.972656 105 510.394531 102.839844 C 511.472656 102.121094 512.734375 101.851562 513.996094 101.851562 C 516.964844 101.851562 518.765625 103.378906 519.753906 105 C 521.015625 106.980469 521.105469 109.140625 521.105469 111.210938 Z M 601.117188 140.371094 C 604.988281 124.078125 606.335938 119.398438 618.578125 77.640625 L 618.128906 77.191406 C 611.378906 77.460938 609.578125 77.460938 604.175781 77.460938 L 603.636719 78 C 601.925781 86.820312 601.476562 89.160156 598.957031 99.148438 L 596.078125 110.941406 L 592.207031 127.589844 L 587.4375 106.351562 L 585.546875 98.25 C 583.296875 88.980469 582.667969 85.921875 580.777344 77.191406 L 580.238281 76.738281 C 572.769531 77.28125 571.148438 77.371094 564.128906 77.371094 L 563.675781 77.910156 C 569.707031 98.699219 575.109375 117.78125 578.167969 129.660156 C 579.066406 133.351562 579.96875 137.039062 580.867188 140.730469 L 581.40625 141.269531 C 589.238281 141 591.21875 140.910156 600.578125 141 Z M 662.765625 114.179688 C 662.855469 106.078125 662.855469 102.570312 660.515625 98.789062 C 658.714844 95.910156 655.117188 92.308594 643.597656 92.308594 C 635.855469 92.308594 631.085938 93.75 625.957031 95.28125 L 625.417969 96 L 624.964844 105.808594 L 625.6875 106.171875 C 628.835938 104.910156 634.6875 102.570312 640.714844 102.570312 C 644.046875 102.570312 645.394531 103.109375 646.566406 104.28125 C 647.464844 105.179688 647.738281 106.800781 647.738281 108.148438 C 636.9375 109.589844 631.894531 110.578125 626.496094 113.910156 C 621.457031 117.058594 619.746094 122.191406 619.746094 126.238281 C 619.746094 135.871094 626.675781 142.078125 635.496094 142.078125 C 642.246094 142.078125 646.117188 138.839844 648.007812 137.308594 L 648.007812 140.640625 L 648.546875 141.269531 C 655.027344 141 657.007812 140.910156 662.855469 141 L 663.304688 140.371094 C 662.675781 131.550781 662.675781 129.300781 662.675781 120.839844 L 662.765625 114.179688 M 647.917969 128.488281 C 646.027344 129.570312 643.597656 130.828125 640.625 130.828125 C 637.386719 130.828125 634.6875 129.121094 634.6875 125.339844 C 634.6875 119.398438 641.796875 118.410156 647.917969 117.601562 Z M 689.132812 140.371094 C 688.683594 130.019531 688.234375 120.570312 688.234375 92.128906 C 688.234375 83.578125 688.324219 79.53125 688.683594 69.808594 L 688.054688 69.179688 L 672.664062 71.609375 L 672.304688 72.148438 C 673.203125 83.128906 673.292969 86.101562 673.472656 100.679688 C 673.566406 105.988281 673.566406 111.300781 673.566406 116.609375 C 673.566406 126.328125 673.382812 131.730469 673.023438 140.640625 L 673.566406 141.269531 C 679.59375 141 682.023438 140.910156 688.59375 141 Z M 715.414062 140.371094 C 714.964844 130.019531 714.515625 120.570312 714.515625 92.128906 C 714.515625 83.578125 714.605469 79.53125 714.964844 69.808594 L 714.335938 69.179688 L 698.945312 71.609375 L 698.585938 72.148438 C 699.484375 83.128906 699.574219 86.101562 699.753906 100.679688 C 699.847656 105.988281 699.847656 111.300781 699.847656 116.609375 C 699.847656 126.328125 699.664062 131.730469 699.304688 140.640625 L 699.847656 141.269531 C 705.875 141 708.304688 140.910156 714.875 141 Z M 765.816406 127.679688 C 762.398438 129.480469 758.347656 131.550781 751.777344 131.550781 C 746.378906 131.550781 742.6875 129.839844 740.527344 126.601562 C 739.175781 124.710938 738.90625 122.910156 738.546875 121.109375 L 767.617188 120.570312 L 768.15625 119.941406 C 768.066406 115.53125 767.976562 111.03125 766.71875 106.53125 C 763.566406 95.910156 756.636719 93.75 753.578125 93.03125 C 751.328125 92.398438 749.257812 92.21875 747.1875 92.21875 C 733.058594 92.21875 723.695312 101.488281 723.695312 117.058594 C 723.695312 121.289062 724.417969 125.699219 725.855469 128.851562 C 731.078125 141 743.316406 142.078125 749.796875 142.078125 C 757.265625 142.078125 760.507812 140.730469 765.277344 138.839844 L 765.816406 138.121094 L 766.445312 127.949219 L 765.816406 127.679688 M 738.546875 111.570312 C 738.816406 108.78125 739.445312 105 742.867188 102.839844 C 743.945312 102.121094 745.207031 101.851562 746.46875 101.851562 C 749.4375 101.851562 751.238281 103.378906 752.226562 105 C 753.488281 106.980469 753.578125 109.140625 753.578125 111.210938 Z M 816.664062 93.03125 L 804.15625 93.300781 L 803.433594 93.929688 C 801.90625 100.140625 801.546875 101.488281 799.386719 108.511719 L 797.046875 116.25 L 795.066406 123 L 793.355469 116.609375 L 790.746094 107.070312 L 787.144531 93.390625 L 786.425781 92.851562 C 779.40625 93.390625 777.875 93.480469 770.496094 93.660156 L 770.046875 94.289062 C 773.285156 102.839844 781.65625 125.429688 787.234375 142.710938 C 783.546875 152.070312 782.824219 153.691406 778.773438 162.601562 L 779.226562 163.320312 C 781.476562 163.230469 783.996094 163.140625 786.335938 163.140625 C 788.585938 163.140625 790.925781 163.230469 793.175781 163.230469 L 793.804688 162.691406 C 798.753906 143.25 801.183594 135.691406 813.066406 104.371094 C 814.414062 100.769531 815.765625 97.261719 817.023438 93.75 Z M 816.035156 141 "/>
<path fill-rule="nonzero" fill="rgb(34.901961%, 14.901961%, 14.901961%)" fill-opacity="1" d="M 183.742188 197.191406 C 176 197.550781 173.929688 197.550781 167.453125 197.460938 L 167.089844 198 C 167.632812 207.71875 167.902344 212.308594 167.902344 235.261719 C 167.902344 245.878906 167.722656 251.371094 167.363281 260.730469 L 167.8125 261.269531 C 174.5625 261 176.363281 261 183.832031 261 L 184.371094 260.460938 C 183.921875 252.179688 183.742188 248.039062 183.742188 234.988281 C 183.742188 222.570312 183.921875 210.148438 184.191406 197.730469 Z M 239.363281 260.371094 C 238.914062 252.449219 238.914062 249.929688 238.734375 241.109375 L 238.734375 234.089844 C 238.644531 225.449219 238.554688 221.308594 236.304688 217.621094 C 233.511719 212.941406 228.382812 212.21875 225.144531 212.21875 C 219.652344 212.21875 214.882812 215.101562 210.742188 217.53125 L 210.921875 212.578125 L 210.023438 211.949219 C 203.09375 213.390625 201.5625 213.660156 194.8125 214.558594 L 194.273438 215.191406 C 194.992188 223.019531 195.535156 228.691406 195.535156 243.359375 C 195.535156 249.121094 195.441406 254.878906 195.351562 260.640625 L 195.894531 261.179688 C 202.375 260.910156 203.722656 260.910156 210.921875 260.910156 L 211.464844 260.371094 C 210.921875 246.511719 210.832031 243 210.742188 226.890625 C 212.632812 225.628906 214.792969 224.101562 217.671875 224.101562 C 222.625 224.101562 223.074219 229.410156 223.34375 232.648438 C 223.523438 235.621094 223.613281 247.949219 223.613281 251.371094 C 223.613281 254.429688 223.523438 257.578125 223.523438 260.640625 L 224.0625 261.179688 C 230.003906 261 231.535156 260.910156 238.734375 260.910156 Z M 293.722656 260.460938 C 293.363281 252.359375 293.09375 246.960938 293.09375 235.171875 C 293.09375 211.410156 293.453125 201.601562 293.8125 189.71875 L 293.183594 189.179688 L 278.332031 191.519531 L 277.882812 192.058594 C 278.421875 200.519531 278.511719 202.769531 278.421875 213.03125 C 271.671875 212.851562 263.210938 212.671875 256.371094 218.070312 C 250.074219 222.929688 247.460938 230.398438 247.460938 239.671875 C 247.460938 246.691406 249.351562 253.710938 254.664062 258.121094 C 258.621094 261.359375 263.484375 262.078125 266.453125 262.078125 C 272.84375 262.078125 276.171875 259.109375 278.332031 257.21875 L 278.152344 260.730469 L 278.601562 261.269531 C 284.8125 261 286.523438 261 293.273438 261 L 293.722656 260.460938 M 278.421875 223.828125 C 278.511719 235.800781 278.421875 238.140625 278.152344 249.03125 C 276.351562 250.109375 274.550781 251.191406 272.03125 251.191406 C 263.300781 251.191406 263.300781 240.03125 263.300781 238.230469 C 263.300781 231.300781 265.28125 223.558594 275.363281 223.558594 C 276.351562 223.558594 277.164062 223.648438 278.421875 223.828125 Z M 320.273438 260.371094 C 319.820312 253.441406 319.460938 248.128906 319.460938 235.710938 C 319.460938 228.058594 319.640625 220.320312 319.730469 212.671875 L 319.101562 211.949219 L 303.621094 214.648438 L 303.082031 215.191406 C 303.800781 222.03125 304.070312 225.179688 304.070312 237.960938 C 304.070312 247.769531 303.800781 253.261719 303.53125 260.640625 L 304.070312 261.269531 C 310.550781 261 312.351562 260.910156 319.640625 261 L 320.273438 260.371094 M 318.832031 203.308594 L 319.101562 191.070312 L 318.5625 190.53125 L 303.890625 192.328125 L 303.351562 192.960938 C 303.53125 196.199219 303.621094 198.089844 303.621094 200.25 C 303.621094 201.960938 303.621094 203.761719 303.53125 205.46875 L 304.160156 206.011719 C 310.28125 204.929688 311.992188 204.75 318.382812 203.941406 Z M 370.3125 234.179688 C 370.402344 226.078125 370.402344 222.570312 368.0625 218.789062 C 366.261719 215.910156 362.664062 212.308594 351.144531 212.308594 C 343.402344 212.308594 338.632812 213.75 333.503906 215.28125 L 332.964844 216 L 332.511719 225.808594 L 333.234375 226.171875 C 336.382812 224.910156 342.234375 222.570312 348.261719 222.570312 C 351.59375 222.570312 352.941406 223.109375 354.113281 224.28125 C 355.011719 225.179688 355.285156 226.800781 355.285156 228.148438 C 344.484375 229.589844 339.441406 230.578125 334.042969 233.910156 C 329.003906 237.058594 327.292969 242.191406 327.292969 246.238281 C 327.292969 255.871094 334.222656 262.078125 343.042969 262.078125 C 349.792969 262.078125 353.664062 258.839844 355.554688 257.308594 L 355.554688 260.640625 L 356.09375 261.269531 C 362.574219 261 364.554688 260.910156 370.402344 261 L 370.851562 260.371094 C 370.222656 251.550781 370.222656 249.300781 370.222656 240.839844 L 370.3125 234.179688 M 355.464844 248.488281 C 353.574219 249.570312 351.144531 250.828125 348.171875 250.828125 C 344.933594 250.828125 342.234375 249.121094 342.234375 245.339844 C 342.234375 239.398438 349.34375 238.410156 355.464844 237.601562 Z M 424.941406 260.371094 C 424.492188 252.449219 424.492188 249.929688 424.3125 241.109375 L 424.3125 234.089844 C 424.222656 225.449219 424.132812 221.308594 421.882812 217.621094 C 419.089844 212.941406 413.960938 212.21875 410.722656 212.21875 C 405.230469 212.21875 400.460938 215.101562 396.320312 217.53125 L 396.5 212.578125 L 395.601562 211.949219 C 388.671875 213.390625 387.140625 213.660156 380.390625 214.558594 L 379.851562 215.191406 C 380.570312 223.019531 381.113281 228.691406 381.113281 243.359375 C 381.113281 249.121094 381.019531 254.878906 380.929688 260.640625 L 381.472656 261.179688 C 387.953125 260.910156 389.300781 260.910156 396.5 260.910156 L 397.042969 260.371094 C 396.5 246.511719 396.410156 243 396.320312 226.890625 C 398.210938 225.628906 400.371094 224.101562 403.25 224.101562 C 408.203125 224.101562 408.652344 229.410156 408.921875 232.648438 C 409.101562 235.621094 409.191406 247.949219 409.191406 251.371094 C 409.191406 254.429688 409.101562 257.578125 409.101562 260.640625 L 409.640625 261.179688 C 415.582031 261 417.113281 260.910156 424.3125 260.910156 Z M 530.511719 197.191406 C 521.152344 197.460938 519.621094 197.460938 509.632812 197.460938 L 509.09375 198 L 504.953125 212.578125 L 501.351562 225.628906 L 497.121094 241.289062 L 493.160156 225.179688 L 490.640625 215.011719 L 486.140625 197.730469 L 485.691406 197.191406 C 476.0625 197.460938 474.441406 197.460938 464.363281 197.460938 L 463.820312 198 C 462.921875 224.910156 462.5625 231.839844 460.582031 260.730469 L 461.03125 261.269531 C 466.792969 261 468.503906 260.910156 473.722656 261 L 474.261719 260.460938 L 474.53125 243.269531 L 475.070312 225.808594 L 475.433594 208.800781 L 479.390625 224.730469 L 482.8125 237.511719 L 488.84375 260.730469 L 489.382812 261.269531 C 494.960938 261 496.492188 260.910156 502.792969 261 L 503.332031 260.460938 L 508.550781 241.289062 L 512.152344 228.148438 L 517.191406 209.25 L 517.191406 225.359375 L 517.371094 239.128906 L 517.371094 260.730469 L 517.820312 261.269531 C 524.03125 261 526.460938 260.910156 533.390625 261 L 533.84375 260.460938 C 533.300781 250.199219 532.671875 239.851562 532.3125 229.5 C 532.042969 223.828125 531.863281 218.160156 531.59375 212.488281 C 531.140625 204.121094 531.050781 203.039062 531.050781 197.730469 Z M 587.214844 212.851562 L 572.542969 213.570312 L 571.914062 214.109375 C 572.542969 224.28125 572.542969 238.679688 572.542969 240.121094 C 572.542969 242.730469 572.542969 244.171875 572.453125 247.769531 C 570.023438 249.390625 568.132812 250.738281 565.703125 250.738281 C 559.222656 250.738281 559.222656 243.898438 559.222656 238.589844 C 559.222656 236.339844 559.222656 234 559.3125 231.75 L 559.492188 213.570312 L 558.863281 212.851562 L 544.011719 213.570312 L 543.382812 214.109375 C 543.921875 221.671875 544.011719 224.191406 544.011719 233.28125 L 544.011719 239.578125 C 543.921875 249.390625 544.375 253.53125 547.613281 257.308594 C 550.582031 260.640625 554.902344 262.078125 559.402344 262.078125 C 565.792969 262.078125 569.484375 259.199219 572.722656 256.679688 L 572.632812 260.730469 L 573.261719 261.269531 C 579.832031 261 581.8125 261 587.664062 261 L 588.203125 260.460938 C 587.753906 254.070312 587.574219 250.648438 587.574219 238.949219 C 587.574219 230.488281 587.664062 222.03125 587.84375 213.570312 Z M 617.273438 229.949219 C 614.210938 228.871094 611.78125 227.878906 611.78125 225.359375 C 611.78125 224.28125 612.503906 221.308594 618.082031 221.308594 C 623.574219 221.308594 627.082031 223.648438 629.332031 225.089844 L 630.144531 224.820312 L 631.042969 215.011719 L 630.59375 214.46875 C 626.363281 213.300781 622.671875 212.21875 616.824219 212.21875 C 612.414062 212.21875 603.59375 212.578125 598.914062 219.328125 C 597.742188 220.949219 596.484375 223.648438 596.484375 227.25 C 596.484375 236.878906 603.953125 239.761719 608.183594 241.378906 L 611.601562 242.640625 C 614.03125 243.449219 617.992188 244.800781 617.992188 248.039062 C 617.992188 250.289062 615.921875 252.71875 610.882812 252.71875 C 608.363281 252.71875 604.671875 251.910156 601.34375 250.199219 C 599.8125 249.390625 599.09375 248.761719 597.742188 247.679688 L 596.933594 248.039062 C 596.753906 252.71875 596.664062 253.710938 596.300781 258.210938 L 596.753906 259.019531 C 601.164062 260.640625 604.941406 262.078125 611.511719 262.078125 C 618.351562 262.078125 631.851562 260.820312 633.472656 247.949219 C 633.5625 247.230469 633.5625 246.601562 633.5625 245.96875 C 633.5625 236.070312 626.632812 233.460938 621.683594 231.570312 Z M 681.441406 247.679688 C 678.023438 249.480469 673.972656 251.550781 667.402344 251.550781 C 662.003906 251.550781 658.3125 249.839844 656.152344 246.601562 C 654.800781 244.710938 654.53125 242.910156 654.171875 241.109375 L 683.242188 240.570312 L 683.78125 239.941406 C 683.691406 235.53125 683.601562 231.03125 682.34375 226.53125 C 679.191406 215.910156 672.261719 213.75 669.203125 213.03125 C 666.953125 212.398438 664.882812 212.21875 662.8125 212.21875 C 648.683594 212.21875 639.320312 221.488281 639.320312 237.058594 C 639.320312 241.289062 640.042969 245.699219 641.480469 248.851562 C 646.703125 261 658.941406 262.078125 665.421875 262.078125 C 672.890625 262.078125 676.132812 260.730469 680.902344 258.839844 L 681.441406 258.121094 L 682.070312 247.949219 L 681.441406 247.679688 M 654.171875 231.570312 C 654.441406 228.78125 655.070312 225 658.492188 222.839844 C 659.570312 222.121094 660.832031 221.851562 662.09375 221.851562 C 665.0625 221.851562 666.863281 223.378906 667.851562 225 C 669.113281 226.980469 669.203125 229.140625 669.203125 231.210938 Z M 735.261719 212.851562 L 720.589844 213.570312 L 719.960938 214.109375 C 720.589844 224.28125 720.589844 238.679688 720.589844 240.121094 C 720.589844 242.730469 720.589844 244.171875 720.5 247.769531 C 718.070312 249.390625 716.179688 250.738281 713.75 250.738281 C 707.269531 250.738281 707.269531 243.898438 707.269531 238.589844 C 707.269531 236.339844 707.269531 234 707.359375 231.75 L 707.539062 213.570312 L 706.910156 212.851562 L 692.058594 213.570312 L 691.429688 214.109375 C 691.96875 221.671875 692.058594 224.191406 692.058594 233.28125 L 692.058594 239.578125 C 691.96875 249.390625 692.421875 253.53125 695.660156 257.308594 C 698.628906 260.640625 702.949219 262.078125 707.449219 262.078125 C 713.839844 262.078125 717.53125 259.199219 720.769531 256.679688 L 720.679688 260.730469 L 721.308594 261.269531 C 727.878906 261 729.859375 261 735.710938 261 L 736.25 260.460938 C 735.800781 254.070312 735.621094 250.648438 735.621094 238.949219 C 735.621094 230.488281 735.710938 222.03125 735.890625 213.570312 Z M 816.710938 260.371094 C 816.257812 252 816.167969 249.660156 816.167969 239.488281 L 816.167969 232.738281 C 816.257812 226.710938 816.347656 221.128906 813.738281 217.351562 C 810.230469 212.21875 804.019531 212.21875 802.578125 212.21875 C 795.199219 212.21875 790.25 215.550781 786.648438 218.070312 C 785.390625 216 783.140625 212.21875 775.941406 212.21875 C 770 212.21875 766.128906 214.921875 761.988281 217.800781 L 761.988281 212.761719 L 761.179688 211.949219 C 754.160156 213.300781 752.179688 213.660156 745.878906 214.558594 L 745.339844 215.191406 C 746.058594 222.390625 746.597656 227.339844 746.597656 245.160156 C 746.597656 250.289062 746.507812 255.511719 746.507812 260.640625 L 746.960938 261.179688 C 752.71875 261 754.699219 260.910156 762.167969 260.910156 L 762.710938 260.371094 C 762.078125 246.511719 761.988281 242.371094 761.898438 226.710938 C 763.789062 225.359375 765.859375 224.191406 768.109375 224.191406 C 773.691406 224.191406 773.871094 230.578125 773.871094 238.320312 C 773.871094 251.371094 773.78125 253.351562 773.597656 260.640625 L 774.140625 261.269531 C 780.980469 260.910156 782.871094 260.910156 789.078125 260.910156 L 789.621094 260.371094 C 789.078125 251.820312 788.988281 249.300781 788.898438 238.410156 L 788.898438 235.078125 L 788.808594 225.988281 C 790.339844 225 792.320312 223.738281 795.019531 223.738281 C 800.148438 223.738281 800.960938 228.601562 800.960938 236.339844 C 800.960938 238.050781 800.871094 239.761719 800.871094 241.46875 C 800.78125 244.53125 800.691406 257.941406 800.597656 260.640625 L 801.140625 261.179688 C 807.890625 260.910156 809.871094 260.910156 816.167969 260.910156 Z M 821.660156 261 "/>
<path fill-rule="nonzero" fill="rgb(34.901961%, 14.901961%, 14.901961%)" fill-opacity="1" d="M 128.570312 342.300781 C 121.011719 339.148438 117.050781 337.53125 117.050781 333.480469 C 117.050781 330.691406 119.660156 327.179688 125.601562 327.179688 C 132.441406 327.179688 136.488281 329.96875 139.820312 332.21875 L 140.628906 331.859375 L 141.351562 320.070312 L 140.898438 319.441406 C 137.03125 317.820312 132.980469 316.109375 124.25 316.109375 C 107.332031 316.109375 101.480469 325.648438 101.480469 335.28125 C 101.480469 346.171875 109.941406 350.128906 114.980469 352.558594 L 117.949219 353.910156 C 124.160156 356.519531 128.929688 358.769531 128.929688 363.539062 C 128.929688 366.960938 125.960938 371.011719 118.128906 371.011719 C 109.941406 371.011719 105.351562 367.410156 102.738281 365.339844 L 101.839844 365.609375 L 101.210938 378.300781 L 101.75 379.019531 C 102.738281 379.378906 103.730469 379.828125 104.71875 380.101562 C 106.789062 380.820312 112.101562 382.351562 118.851562 382.351562 C 121.550781 382.351562 128.390625 382.078125 133.789062 379.558594 C 141.351562 375.871094 144.589844 369.03125 144.589844 361.378906 C 144.589844 356.25 142.609375 350.761719 137.839844 347.070312 C 135.410156 345.269531 133.070312 344.191406 130.910156 343.199219 Z M 178.339844 370.648438 C 176.808594 371.101562 175.726562 371.460938 174.199219 371.460938 C 169.609375 371.460938 169.25 368.578125 169.066406 367.230469 C 168.796875 364.890625 168.796875 359.941406 168.886719 356.339844 L 169.066406 343.648438 L 177.167969 344.011719 L 177.707031 343.46875 L 178.609375 333.839844 L 178.066406 333.300781 L 169.066406 333.300781 L 169.339844 318.179688 L 168.707031 317.640625 C 162.589844 319.441406 160.96875 319.890625 154.578125 321.511719 L 154.21875 322.140625 L 154.308594 333.390625 L 149.449219 333.210938 L 148.910156 333.660156 L 148.097656 343.289062 L 148.636719 343.828125 L 154.308594 343.648438 L 154.039062 357.960938 C 153.949219 360.210938 153.859375 362.460938 153.859375 364.800781 C 153.859375 373.078125 154.039062 381.988281 168.078125 381.988281 C 171.589844 381.988281 174.378906 381.449219 177.527344 380.910156 L 178.160156 380.28125 L 179.058594 371.011719 Z M 225.050781 354.179688 C 225.140625 346.078125 225.140625 342.570312 222.800781 338.789062 C 221 335.910156 217.402344 332.308594 205.882812 332.308594 C 198.140625 332.308594 193.371094 333.75 188.242188 335.28125 L 187.703125 336 L 187.25 345.808594 L 187.972656 346.171875 C 191.121094 344.910156 196.972656 342.570312 203 342.570312 C 206.332031 342.570312 207.679688 343.109375 208.851562 344.28125 C 209.75 345.179688 210.023438 346.800781 210.023438 348.148438 C 199.222656 349.589844 194.179688 350.578125 188.78125 353.910156 C 183.742188 357.058594 182.03125 362.191406 182.03125 366.238281 C 182.03125 375.871094 188.960938 382.078125 197.78125 382.078125 C 204.53125 382.078125 208.402344 378.839844 210.292969 377.308594 L 210.292969 380.640625 L 210.832031 381.269531 C 217.3125 381 219.292969 380.910156 225.140625 381 L 225.589844 380.371094 C 224.960938 371.550781 224.960938 369.300781 224.960938 360.839844 L 225.050781 354.179688 M 210.203125 368.488281 C 208.3125 369.570312 205.882812 370.828125 202.910156 370.828125 C 199.671875 370.828125 196.972656 369.121094 196.972656 365.339844 C 196.972656 359.398438 204.082031 358.410156 210.203125 357.601562 Z M 260.78125 370.648438 C 259.25 371.101562 258.167969 371.460938 256.640625 371.460938 C 252.050781 371.460938 251.691406 368.578125 251.507812 367.230469 C 251.238281 364.890625 251.238281 359.941406 251.328125 356.339844 L 251.507812 343.648438 L 259.609375 344.011719 L 260.148438 343.46875 L 261.050781 333.839844 L 260.507812 333.300781 L 251.507812 333.300781 L 251.78125 318.179688 L 251.148438 317.640625 C 245.03125 319.441406 243.410156 319.890625 237.019531 321.511719 L 236.660156 322.140625 L 236.75 333.390625 L 231.890625 333.210938 L 231.351562 333.660156 L 230.539062 343.289062 L 231.078125 343.828125 L 236.75 343.648438 L 236.480469 357.960938 C 236.390625 360.210938 236.300781 362.460938 236.300781 364.800781 C 236.300781 373.078125 236.480469 381.988281 250.519531 381.988281 C 254.03125 381.988281 256.820312 381.449219 259.96875 380.910156 L 260.601562 380.28125 L 261.5 371.011719 Z M 307.398438 367.679688 C 303.980469 369.480469 299.929688 371.550781 293.359375 371.550781 C 287.960938 371.550781 284.269531 369.839844 282.109375 366.601562 C 280.757812 364.710938 280.488281 362.910156 280.128906 361.109375 L 309.199219 360.570312 L 309.738281 359.941406 C 309.648438 355.53125 309.558594 351.03125 308.300781 346.53125 C 305.148438 335.910156 298.21875 333.75 295.160156 333.03125 C 292.910156 332.398438 290.839844 332.21875 288.769531 332.21875 C 274.640625 332.21875 265.277344 341.488281 265.277344 357.058594 C 265.277344 361.289062 266 365.699219 267.4375 368.851562 C 272.660156 381 284.898438 382.078125 291.378906 382.078125 C 298.847656 382.078125 302.089844 380.730469 306.859375 378.839844 L 307.398438 378.121094 L 308.027344 367.949219 L 307.398438 367.679688 M 280.128906 351.570312 C 280.398438 348.78125 281.027344 345 284.449219 342.839844 C 285.527344 342.121094 286.789062 341.851562 288.050781 341.851562 C 291.019531 341.851562 292.820312 343.378906 293.808594 345 C 295.070312 346.980469 295.160156 349.140625 295.160156 351.210938 Z M 398.207031 317.191406 C 391.007812 317.460938 389.839844 317.460938 382.277344 317.460938 L 381.828125 318 C 382.457031 328.171875 382.457031 330.78125 382.546875 341.398438 C 378.589844 341.488281 374.628906 341.578125 370.578125 341.578125 C 367.429688 341.578125 364.1875 341.488281 361.039062 341.488281 L 361.21875 317.730469 L 360.769531 317.191406 C 353.839844 317.460938 352.488281 317.460938 344.660156 317.460938 L 344.117188 318 C 344.570312 327.269531 345.109375 338.339844 345.109375 360.660156 C 345.109375 368.761719 344.929688 373.171875 344.75 380.730469 L 345.199219 381.269531 C 351.769531 381 353.386719 380.910156 361.308594 381 L 361.757812 380.460938 C 361.21875 369.300781 361.128906 366.058594 361.039062 353.011719 C 365 352.828125 368.328125 352.738281 371.839844 352.738281 C 375.4375 352.738281 379.039062 352.828125 382.636719 352.921875 C 382.820312 365.070312 382.820312 368.039062 382.367188 380.730469 L 382.820312 381.269531 C 389.570312 381 391.367188 380.910156 399.019531 381 L 399.46875 380.460938 C 398.75 365.339844 398.476562 350.308594 398.476562 335.191406 C 398.476562 328.890625 398.570312 324.660156 398.660156 317.730469 Z M 426.203125 380.371094 C 425.75 373.441406 425.390625 368.128906 425.390625 355.710938 C 425.390625 348.058594 425.570312 340.320312 425.660156 332.671875 L 425.03125 331.949219 L 409.550781 334.648438 L 409.011719 335.191406 C 409.730469 342.03125 410 345.179688 410 357.960938 C 410 367.769531 409.730469 373.261719 409.460938 380.640625 L 410 381.269531 C 416.480469 381 418.28125 380.910156 425.570312 381 L 426.203125 380.371094 M 424.761719 323.308594 L 425.03125 311.070312 L 424.492188 310.53125 L 409.820312 312.328125 L 409.28125 312.960938 C 409.460938 316.199219 409.550781 318.089844 409.550781 320.25 C 409.550781 321.960938 409.550781 323.761719 409.460938 325.46875 L 410.089844 326.011719 C 416.210938 324.929688 417.921875 324.75 424.3125 323.941406 Z M 455.089844 349.949219 C 452.027344 348.871094 449.597656 347.878906 449.597656 345.359375 C 449.597656 344.28125 450.320312 341.308594 455.898438 341.308594 C 461.390625 341.308594 464.898438 343.648438 467.148438 345.089844 L 467.960938 344.820312 L 468.859375 335.011719 L 468.410156 334.46875 C 464.179688 333.300781 460.488281 332.21875 454.640625 332.21875 C 450.230469 332.21875 441.410156 332.578125 436.730469 339.328125 C 435.558594 340.949219 434.300781 343.648438 434.300781 347.25 C 434.300781 356.878906 441.769531 359.761719 446 361.378906 L 449.417969 362.640625 C 451.847656 363.449219 455.808594 364.800781 455.808594 368.039062 C 455.808594 370.289062 453.738281 372.71875 448.699219 372.71875 C 446.179688 372.71875 442.488281 371.910156 439.160156 370.199219 C 437.628906 369.390625 436.910156 368.761719 435.558594 367.679688 L 434.75 368.039062 C 434.570312 372.71875 434.480469 373.710938 434.117188 378.210938 L 434.570312 379.019531 C 438.980469 380.640625 442.757812 382.078125 449.328125 382.078125 C 456.167969 382.078125 469.667969 380.820312 471.289062 367.949219 C 471.378906 367.230469 471.378906 366.601562 471.378906 365.96875 C 471.378906 356.070312 464.449219 353.460938 459.5 351.570312 Z M 504.5 370.648438 C 502.96875 371.101562 501.886719 371.460938 500.359375 371.460938 C 495.769531 371.460938 495.410156 368.578125 495.226562 367.230469 C 494.957031 364.890625 494.957031 359.941406 495.046875 356.339844 L 495.226562 343.648438 L 503.328125 344.011719 L 503.867188 343.46875 L 504.769531 333.839844 L 504.226562 333.300781 L 495.226562 333.300781 L 495.5 318.179688 L 494.867188 317.640625 C 488.75 319.441406 487.128906 319.890625 480.738281 321.511719 L 480.378906 322.140625 L 480.46875 333.390625 L 475.609375 333.210938 L 475.070312 333.660156 L 474.257812 343.289062 L 474.796875 343.828125 L 480.46875 343.648438 L 480.199219 357.960938 C 480.109375 360.210938 480.019531 362.460938 480.019531 364.800781 C 480.019531 373.078125 480.199219 381.988281 494.238281 381.988281 C 497.75 381.988281 500.539062 381.449219 503.6875 380.910156 L 504.320312 380.28125 L 505.21875 371.011719 Z M 556.972656 357.058594 C 556.972656 353.550781 556.972656 338.96875 544.371094 334.019531 C 540.410156 332.488281 535.730469 332.308594 533.390625 332.308594 C 517.730469 332.308594 508.910156 340.679688 508.910156 357.238281 C 508.910156 363 509.8125 368.851562 513.140625 373.710938 C 515.480469 377.21875 519.890625 382.078125 532.761719 382.078125 C 551.839844 382.078125 556.972656 370.558594 556.972656 357.058594 M 541.402344 356.96875 C 541.402344 364.351562 540.410156 372.539062 532.941406 372.539062 C 530.601562 372.539062 528.980469 371.460938 527.902344 370.46875 C 526.371094 368.941406 524.660156 365.878906 524.660156 357.148438 C 524.660156 354.539062 524.660156 348.78125 526.460938 345.628906 C 527.8125 343.199219 530.152344 341.578125 533.03125 341.578125 C 535.550781 341.578125 537.621094 342.929688 538.792969 344.371094 C 540.953125 346.980469 541.402344 352.109375 541.402344 356.96875 Z M 591.53125 347.609375 L 594.050781 332.941406 L 593.511719 332.308594 C 592.882812 332.308594 592.25 332.21875 591.621094 332.21875 C 587.929688 332.21875 583.792969 334.289062 580.910156 340.949219 L 581.179688 332.671875 L 580.460938 331.949219 C 573.800781 333.390625 572.089844 333.660156 565.519531 334.648438 L 564.980469 335.191406 C 565.519531 341.941406 565.792969 345.988281 565.792969 358.5 C 565.792969 365.878906 565.699219 373.261719 565.519531 380.730469 L 566.0625 381.269531 C 572.722656 381 574.160156 380.910156 581.359375 381 L 581.8125 380.371094 C 581.449219 373.078125 580.910156 362.910156 580.910156 356.699219 C 580.910156 352.648438 580.910156 346.710938 587.03125 346.710938 C 588.5625 346.710938 589.460938 347.25 590.722656 347.96875 Z M 615.5625 380.371094 C 615.109375 373.441406 614.75 368.128906 614.75 355.710938 C 614.75 348.058594 614.929688 340.320312 615.019531 332.671875 L 614.390625 331.949219 L 598.910156 334.648438 L 598.371094 335.191406 C 599.089844 342.03125 599.359375 345.179688 599.359375 357.960938 C 599.359375 367.769531 599.089844 373.261719 598.820312 380.640625 L 599.359375 381.269531 C 605.839844 381 607.640625 380.910156 614.929688 381 L 615.5625 380.371094 M 614.121094 323.308594 L 614.390625 311.070312 L 613.851562 310.53125 L 599.179688 312.328125 L 598.640625 312.960938 C 598.820312 316.199219 598.910156 318.089844 598.910156 320.25 C 598.910156 321.960938 598.910156 323.761719 598.820312 325.46875 L 599.449219 326.011719 C 605.570312 324.929688 607.28125 324.75 613.671875 323.941406 Z M 660.738281 368.039062 C 658.308594 369.480469 655.96875 370.921875 651.378906 370.921875 C 641.207031 370.921875 639.136719 362.460938 639.136719 357.058594 C 639.136719 350.488281 642.019531 342.929688 650.75 342.929688 C 654.707031 342.929688 656.867188 344.371094 659.570312 346.171875 L 660.46875 345.898438 C 660.828125 341.128906 660.917969 339.871094 661.636719 335.101562 L 661.1875 334.558594 C 657.226562 333.300781 653.808594 332.21875 648.589844 332.21875 C 627.4375 332.21875 623.296875 348.238281 623.296875 357.421875 C 623.296875 367.769531 628.699219 381.808594 648.949219 381.808594 C 653.71875 381.808594 656.777344 380.910156 660.558594 379.828125 L 661.097656 379.289062 L 661.457031 368.488281 Z M 707 317.28125 L 695.570312 317.460938 L 695.027344 318 C 695.390625 329.699219 695.660156 337.53125 695.660156 347.878906 C 695.660156 358.859375 695.390625 369.75 695.117188 380.730469 L 695.660156 381.269531 C 702.320312 381 703.757812 380.910156 710.960938 381 L 711.410156 380.460938 C 711.050781 370.648438 711.050781 368.398438 711.050781 359.21875 C 721.128906 359.308594 731.929688 359.308594 738.410156 351.390625 C 740.929688 348.328125 743.089844 343.199219 743.089844 336.898438 C 743.089844 333.03125 742.1875 324.480469 734.71875 320.25 C 729.320312 317.101562 721.667969 317.101562 714.917969 317.101562 L 707 317.28125 M 711.050781 328.171875 C 713.027344 328.078125 714.917969 328.078125 716.898438 328.078125 C 724.820312 328.261719 726.980469 332.308594 726.980469 337.53125 C 726.980469 338.789062 726.980469 344.011719 722.210938 346.621094 C 719.777344 347.96875 716.449219 348.148438 711.050781 348.148438 Z M 789.347656 354.179688 C 789.4375 346.078125 789.4375 342.570312 787.097656 338.789062 C 785.296875 335.910156 781.699219 332.308594 770.179688 332.308594 C 762.4375 332.308594 757.667969 333.75 752.539062 335.28125 L 752 336 L 751.546875 345.808594 L 752.269531 346.171875 C 755.417969 344.910156 761.269531 342.570312 767.296875 342.570312 C 770.628906 342.570312 771.976562 343.109375 773.148438 344.28125 C 774.046875 345.179688 774.320312 346.800781 774.320312 348.148438 C 763.519531 349.589844 758.476562 350.578125 753.078125 353.910156 C 748.039062 357.058594 746.328125 362.191406 746.328125 366.238281 C 746.328125 375.871094 753.257812 382.078125 762.078125 382.078125 C 768.828125 382.078125 772.699219 378.839844 774.589844 377.308594 L 774.589844 380.640625 L 775.128906 381.269531 C 781.609375 381 783.589844 380.910156 789.4375 381 L 789.886719 380.371094 C 789.257812 371.550781 789.257812 369.300781 789.257812 360.839844 L 789.347656 354.179688 M 774.5 368.488281 C 772.609375 369.570312 770.179688 370.828125 767.207031 370.828125 C 763.96875 370.828125 761.269531 369.121094 761.269531 365.339844 C 761.269531 359.398438 768.378906 358.410156 774.5 357.601562 Z M 825.890625 347.609375 L 828.410156 332.941406 L 827.871094 332.308594 C 827.242188 332.308594 826.609375 332.21875 825.980469 332.21875 C 822.289062 332.21875 818.152344 334.289062 815.269531 340.949219 L 815.539062 332.671875 L 814.820312 331.949219 C 808.160156 333.390625 806.449219 333.660156 799.878906 334.648438 L 799.339844 335.191406 C 799.878906 341.941406 800.152344 345.988281 800.152344 358.5 C 800.152344 365.878906 800.058594 373.261719 799.878906 380.730469 L 800.421875 381.269531 C 807.082031 381 808.519531 380.910156 815.71875 381 L 816.171875 380.371094 C 815.808594 373.078125 815.269531 362.910156 815.269531 356.699219 C 815.269531 352.648438 815.269531 346.710938 821.390625 346.710938 C 822.921875 346.710938 823.820312 347.25 825.082031 347.96875 Z M 879.890625 379.828125 C 871.429688 365.519531 870.53125 363.898438 863.691406 351.570312 C 869.902344 343.109375 870.53125 342.210938 876.921875 334.019531 L 876.46875 333.121094 L 861.800781 333.300781 L 860.902344 333.929688 C 853.878906 346.078125 852.980469 347.519531 848.839844 353.730469 L 848.839844 343.738281 C 848.929688 326.910156 849.019531 323.308594 849.46875 309.71875 L 848.75 309.179688 L 833.089844 311.519531 L 832.550781 312.148438 C 833.179688 320.878906 833.449219 325.109375 833.628906 336.898438 C 833.808594 351.480469 833.808594 366.058594 833.71875 380.640625 L 834.351562 381.269531 C 840.378906 381 842.089844 381 848.929688 381 L 849.46875 380.371094 L 848.929688 365.160156 L 848.839844 354.808594 C 856.671875 369.210938 857.660156 371.191406 862.25 380.730469 L 863.058594 381.269531 L 879.261719 380.640625 Z M 878.808594 381 "/>
</svg>
