<?xml version="1.0" encoding="UTF-8"?>
<svg xmlns="http://www.w3.org/2000/svg" xmlns:xlink="http://www.w3.org/1999/xlink" width="975" height="1300" viewBox="0 0 975 1300">
<path fill-rule="nonzero" fill="rgb(98.823529%, 78.823529%, 9.019608%)" fill-opacity="1" d="M 50 50 L 925 50 L 925 290 L 50 290 Z M 50 50 "/>
<path fill-rule="nonzero" fill="rgb(34.901961%, 14.901961%, 14.901961%)" fill-opacity="1" d="M 242.152344 77.191406 C 233.511719 77.460938 231.710938 77.460938 222.082031 77.460938 L 221.449219 78 C 216.679688 93.300781 213.800781 102.390625 200.570312 140.371094 L 200.929688 141 L 214.96875 141 L 215.601562 140.460938 L 220.011719 124.078125 L 239.449219 124.078125 L 243.320312 140.730469 L 243.949219 141.269531 C 250.519531 141 252.320312 140.910156 259.609375 141 L 260.0625 140.28125 C 249.171875 101.761719 247.910156 97.53125 242.78125 77.730469 L 242.152344 77.191406 M 223.160156 113.191406 L 227.660156 97.980469 L 230.8125 87.449219 L 233.511719 99.148438 L 236.839844 113.191406 Z M 309.921875 140.371094 C 309.472656 132.449219 309.472656 129.929688 309.292969 121.109375 L 309.292969 114.089844 C 309.203125 105.449219 309.113281 101.308594 306.863281 97.621094 C 304.070312 92.941406 298.941406 92.21875 295.703125 92.21875 C 290.210938 92.21875 285.441406 95.101562 281.300781 97.53125 L 281.480469 92.578125 L 280.582031 91.949219 C 273.652344 93.390625 272.121094 93.660156 265.371094 94.558594 L 264.832031 95.191406 C 265.550781 103.019531 266.09375 108.691406 266.09375 123.359375 C 266.09375 129.121094 266 134.878906 265.910156 140.640625 L 266.453125 141.179688 C 272.933594 140.910156 274.28125 140.910156 281.480469 140.910156 L 282.023438 140.371094 C 281.480469 126.511719 281.390625 123 281.300781 106.890625 C 283.191406 105.628906 285.351562 104.101562 288.230469 104.101562 C 293.183594 104.101562 293.632812 109.410156 293.902344 112.648438 C 294.082031 115.621094 294.171875 127.949219 294.171875 131.371094 C 294.171875 134.429688 294.082031 137.578125 294.082031 140.640625 L 294.621094 141.179688 C 300.5625 141 302.09375 140.910156 309.292969 140.910156 Z M 354.742188 140.640625 L 355.640625 130.738281 L 355.101562 130.289062 L 337.730469 130.921875 C 340.519531 124.621094 342.050781 121.289062 346.550781 112.289062 C 349.703125 106.261719 353.121094 99.511719 355.820312 94.019531 L 355.371094 93.210938 L 319.730469 93.210938 L 319.28125 93.839844 L 318.382812 103.199219 L 318.832031 103.738281 L 334.851562 103.558594 C 329.902344 114.089844 328.550781 116.789062 316.492188 140.371094 L 316.851562 141 L 354.019531 141 Z M 403.339844 114.179688 C 403.429688 106.078125 403.429688 102.570312 401.089844 98.789062 C 399.289062 95.910156 395.691406 92.308594 384.171875 92.308594 C 376.429688 92.308594 371.660156 93.75 366.53125 95.28125 L 365.992188 96 L 365.539062 105.808594 L 366.261719 106.171875 C 369.410156 104.910156 375.261719 102.570312 381.289062 102.570312 C 384.621094 102.570312 385.96875 103.109375 387.140625 104.28125 C 388.039062 105.179688 388.3125 106.800781 388.3125 108.148438 C 377.511719 109.589844 372.46875 110.578125 367.070312 113.910156 C 362.03125 117.058594 360.320312 122.191406 360.320312 126.238281 C 360.320312 135.871094 367.25 142.078125 376.070312 142.078125 C 382.820312 142.078125 386.691406 138.839844 388.582031 137.308594 L 388.582031 140.640625 L 389.121094 141.269531 C 395.601562 141 397.582031 140.910156 403.429688 141 L 403.878906 140.371094 C 403.25 131.550781 403.25 129.300781 403.25 120.839844 L 403.339844 114.179688 M 388.492188 128.488281 C 386.601562 129.570312 384.171875 130.828125 381.199219 130.828125 C 377.960938 130.828125 375.261719 129.121094 375.261719 125.339844 C 375.261719 119.398438 382.371094 118.410156 388.492188 117.601562 Z M 438.707031 109.769531 C 434.390625 109.859375 430.878906 109.949219 425.570312 109.949219 C 421.25 109.949219 416.929688 109.859375 412.699219 109.859375 L 412.070312 110.398438 L 411.527344 120.75 L 411.980469 121.289062 C 417.019531 121.199219 419.988281 121.109375 424.757812 121.109375 C 429.167969 121.109375 433.578125 121.199219 437.988281 121.199219 L 438.527344 120.660156 L 439.160156 110.21875 Z M 464.359375 141 C 472.730469 141.179688 483.078125 141.359375 489.828125 136.679688 C 495.769531 132.449219 497.390625 126.511719 497.390625 121.46875 C 497.390625 115.710938 494.957031 110.398438 489.828125 107.878906 C 488.117188 106.980469 486.140625 106.621094 484.25 106.261719 C 487.308594 105 490.910156 103.378906 493.25 98.609375 C 494.238281 96.539062 494.6875 94.378906 494.6875 92.308594 C 494.6875 89.429688 493.96875 85.46875 491.089844 82.230469 C 487.308594 78.179688 481.457031 77.101562 472.640625 77.101562 C 469.578125 77.101562 464.089844 77.191406 461.027344 77.28125 L 448.429688 77.460938 L 447.890625 78 C 448.25 86.640625 448.339844 89.96875 448.339844 102.390625 C 448.339844 115.171875 448.25 127.859375 448.070312 140.640625 L 448.699219 141 L 464.359375 141 M 463.730469 113.640625 C 470.570312 113.460938 474.527344 113.460938 477.140625 114.988281 C 479.75 116.609375 480.738281 119.488281 480.738281 122.371094 C 480.738281 126.421875 478.488281 128.941406 475.160156 130.109375 C 472.457031 131.011719 467.597656 131.011719 463.730469 130.921875 L 463.730469 113.640625 M 463.730469 87.179688 C 465.617188 87.179688 468.140625 87.089844 469.667969 87.089844 C 474.527344 87.089844 478.9375 88.800781 478.9375 94.648438 C 478.9375 99.421875 475.429688 101.398438 474.347656 101.941406 C 472.097656 102.929688 467.328125 102.929688 463.730469 102.929688 Z M 551.570312 117.058594 C 551.570312 113.550781 551.570312 98.96875 538.96875 94.019531 C 535.007812 92.488281 530.328125 92.308594 527.988281 92.308594 C 512.328125 92.308594 503.507812 100.679688 503.507812 117.238281 C 503.507812 123 504.410156 128.851562 507.738281 133.710938 C 510.078125 137.21875 514.488281 142.078125 527.359375 142.078125 C 546.4375 142.078125 551.570312 130.558594 551.570312 117.058594 M 536 116.96875 C 536 124.351562 535.007812 132.539062 527.539062 132.539062 C 525.199219 132.539062 523.578125 131.460938 522.5 130.46875 C 520.96875 128.941406 519.257812 125.878906 519.257812 117.148438 C 519.257812 114.539062 519.257812 108.78125 521.058594 105.628906 C 522.410156 103.199219 524.75 101.578125 527.628906 101.578125 C 530.148438 101.578125 532.21875 102.929688 533.390625 104.371094 C 535.550781 106.980469 536 112.109375 536 116.96875 Z M 586.128906 107.609375 L 588.648438 92.941406 L 588.109375 92.308594 C 587.480469 92.308594 586.847656 92.21875 586.21875 92.21875 C 582.527344 92.21875 578.390625 94.289062 575.507812 100.949219 L 575.777344 92.671875 L 575.058594 91.949219 C 568.398438 93.390625 566.6875 93.660156 560.117188 94.648438 L 559.578125 95.191406 C 560.117188 101.941406 560.390625 105.988281 560.390625 118.5 C 560.390625 125.878906 560.296875 133.261719 560.117188 140.730469 L 560.660156 141.269531 C 567.320312 141 568.757812 140.910156 575.957031 141 L 576.410156 140.371094 C 576.046875 133.078125 575.507812 122.910156 575.507812 116.699219 C 575.507812 112.648438 575.507812 106.710938 581.628906 106.710938 C 583.160156 106.710938 584.058594 107.25 585.320312 107.96875 Z M 619.878906 107.609375 L 622.398438 92.941406 L 621.859375 92.308594 C 621.230469 92.308594 620.597656 92.21875 619.96875 92.21875 C 616.277344 92.21875 612.140625 94.289062 609.257812 100.949219 L 609.527344 92.671875 L 608.808594 91.949219 C 602.148438 93.390625 600.4375 93.660156 593.867188 94.648438 L 593.328125 95.191406 C 593.867188 101.941406 594.140625 105.988281 594.140625 118.5 C 594.140625 125.878906 594.046875 133.261719 593.867188 140.730469 L 594.410156 141.269531 C 601.070312 141 602.507812 140.910156 609.707031 141 L 610.160156 140.371094 C 609.796875 133.078125 609.257812 122.910156 609.257812 116.699219 C 609.257812 112.648438 609.257812 106.710938 615.378906 106.710938 C 616.910156 106.710938 617.808594 107.25 619.070312 107.96875 Z M 667.578125 127.679688 C 664.160156 129.480469 660.109375 131.550781 653.539062 131.550781 C 648.140625 131.550781 644.449219 129.839844 642.289062 126.601562 C 640.9375 124.710938 640.667969 122.910156 640.308594 121.109375 L 669.378906 120.570312 L 669.917969 119.941406 C 669.828125 115.53125 669.738281 111.03125 668.480469 106.53125 C 665.328125 95.910156 658.398438 93.75 655.339844 93.03125 C 653.089844 92.398438 651.019531 92.21875 648.949219 92.21875 C 634.820312 92.21875 625.457031 101.488281 625.457031 117.058594 C 625.457031 121.289062 626.179688 125.699219 627.617188 128.851562 C 632.839844 141 645.078125 142.078125 651.558594 142.078125 C 659.027344 142.078125 662.269531 140.730469 667.039062 138.839844 L 667.578125 138.121094 L 668.207031 127.949219 L 667.578125 127.679688 M 640.308594 111.570312 C 640.578125 108.78125 641.207031 105 644.628906 102.839844 C 645.707031 102.121094 646.96875 101.851562 648.230469 101.851562 C 651.199219 101.851562 653 103.378906 653.988281 105 C 655.25 106.980469 655.339844 109.140625 655.339844 111.210938 Z M 694.761719 125.789062 C 697.640625 125.878906 700.519531 126.058594 704.839844 124.621094 C 709.519531 123 716.359375 119.128906 716.359375 110.398438 C 716.359375 106.078125 715.101562 104.28125 713.929688 102.570312 L 720.140625 102.929688 L 720.679688 102.480469 L 721.3125 93.480469 L 720.769531 93.03125 C 713.839844 93.300781 711.949219 93.390625 706.28125 93.300781 L 702.140625 93.210938 C 695.75 93.03125 687.199219 92.851562 681.351562 97.710938 C 679.371094 99.238281 675.589844 103.109375 675.589844 109.859375 C 675.589844 113.460938 676.582031 116.339844 678.199219 118.589844 C 680.179688 121.378906 681.980469 122.371094 684.230469 123.628906 C 681.710938 128.488281 680.359375 130.921875 678.289062 134.609375 L 678.289062 135.421875 L 682.070312 138.121094 C 679.371094 140.191406 675.140625 143.609375 675.140625 149.460938 C 675.140625 153.601562 677.390625 157.199219 680.722656 159.628906 C 685.761719 163.230469 692.601562 163.410156 696.109375 163.410156 C 712.582031 163.410156 720.140625 155.128906 720.140625 146.398438 C 720.140625 135.058594 710.242188 132.898438 704.390625 131.550781 L 702.230469 131.191406 C 697.820312 130.46875 696.832031 130.199219 693.320312 128.941406 L 694.761719 125.789062 M 702.140625 109.589844 C 702.050781 116.878906 697.640625 117.511719 696.378906 117.511719 C 695.660156 117.511719 692.511719 117.328125 690.980469 113.730469 C 690.171875 111.839844 690.171875 109.679688 690.171875 109.050781 C 690.171875 104.550781 692.871094 101.671875 696.199219 101.671875 C 700.339844 101.671875 702.230469 105.628906 702.140625 109.589844 M 694.492188 143.160156 C 702.5 145.230469 702.589844 145.230469 703.671875 146.128906 C 704.570312 146.761719 705.472656 147.75 705.472656 149.640625 C 705.472656 152.339844 703.222656 155.128906 697.28125 155.128906 C 690.621094 155.128906 688.371094 151.351562 688.371094 148.199219 C 688.371094 145.230469 689.902344 143.519531 690.980469 142.261719 Z M 772.792969 117.058594 C 772.792969 113.550781 772.792969 98.96875 760.191406 94.019531 C 756.230469 92.488281 751.550781 92.308594 749.210938 92.308594 C 733.550781 92.308594 724.730469 100.679688 724.730469 117.238281 C 724.730469 123 725.632812 128.851562 728.960938 133.710938 C 731.300781 137.21875 735.710938 142.078125 748.582031 142.078125 C 767.660156 142.078125 772.792969 130.558594 772.792969 117.058594 M 757.222656 116.96875 C 757.222656 124.351562 756.230469 132.539062 748.761719 132.539062 C 746.421875 132.539062 744.800781 131.460938 743.722656 130.46875 C 742.191406 128.941406 740.480469 125.878906 740.480469 117.148438 C 740.480469 114.539062 740.480469 108.78125 742.28125 105.628906 C 743.632812 103.199219 745.972656 101.578125 748.851562 101.578125 C 751.371094 101.578125 753.441406 102.929688 754.613281 104.371094 C 756.773438 106.980469 757.222656 112.109375 757.222656 116.96875 Z M 775.941406 141 "/>
<path fill-rule="nonzero" fill="rgb(34.901961%, 14.901961%, 14.901961%)" fill-opacity="1" d="M 140.09375 261 C 142.433594 261.089844 144.863281 261.089844 147.203125 261.089844 C 157.28125 261.089844 173.570312 260.730469 180.140625 244.710938 C 182.570312 238.769531 183.113281 231.570312 183.113281 227.519531 C 183.113281 219.058594 181.222656 212.578125 178.972656 208.53125 C 172.851562 197.371094 161.242188 197.011719 150.980469 197.011719 C 146.84375 197.011719 142.703125 197.191406 138.5625 197.371094 L 129.023438 197.460938 L 128.480469 198 C 128.84375 206.640625 129.203125 214.199219 129.203125 239.128906 C 129.203125 247.949219 129.113281 253.261719 128.933594 260.640625 L 129.472656 261 L 140.09375 261 M 145.042969 249.390625 C 144.863281 240.570312 144.773438 232.199219 144.773438 223.558594 C 144.773438 218.699219 144.773438 213.839844 144.863281 208.980469 C 146.660156 208.890625 148.550781 208.800781 150.351562 208.800781 C 155.84375 208.800781 166.550781 208.800781 166.550781 227.96875 C 166.550781 239.21875 162.320312 244.261719 160.160156 246.058594 C 156.113281 249.390625 149.902344 249.390625 145.042969 249.390625 Z M 232.25 247.679688 C 228.832031 249.480469 224.78125 251.550781 218.210938 251.550781 C 212.8125 251.550781 209.121094 249.839844 206.960938 246.601562 C 205.609375 244.710938 205.339844 242.910156 204.980469 241.109375 L 234.050781 240.570312 L 234.589844 239.941406 C 234.5 235.53125 234.410156 231.03125 233.152344 226.53125 C 230 215.910156 223.070312 213.75 220.011719 213.03125 C 217.761719 212.398438 215.691406 212.21875 213.621094 212.21875 C 199.492188 212.21875 190.128906 221.488281 190.128906 237.058594 C 190.128906 241.289062 190.851562 245.699219 192.289062 248.851562 C 197.511719 261 209.75 262.078125 216.230469 262.078125 C 223.699219 262.078125 226.941406 260.730469 231.710938 258.839844 L 232.25 258.121094 L 232.878906 247.949219 L 232.25 247.679688 M 204.980469 231.570312 C 205.25 228.78125 205.878906 225 209.300781 222.839844 C 210.378906 222.121094 211.640625 221.851562 212.902344 221.851562 C 215.871094 221.851562 217.671875 223.378906 218.660156 225 C 219.921875 226.980469 220.011719 229.140625 220.011719 231.210938 Z M 261.773438 229.949219 C 258.710938 228.871094 256.28125 227.878906 256.28125 225.359375 C 256.28125 224.28125 257.003906 221.308594 262.582031 221.308594 C 268.074219 221.308594 271.582031 223.648438 273.832031 225.089844 L 274.644531 224.820312 L 275.542969 215.011719 L 275.09375 214.46875 C 270.863281 213.300781 267.171875 212.21875 261.324219 212.21875 C 256.914062 212.21875 248.09375 212.578125 243.414062 219.328125 C 242.242188 220.949219 240.984375 223.648438 240.984375 227.25 C 240.984375 236.878906 248.453125 239.761719 252.683594 241.378906 L 256.101562 242.640625 C 258.53125 243.449219 262.492188 244.800781 262.492188 248.039062 C 262.492188 250.289062 260.421875 252.71875 255.382812 252.71875 C 252.863281 252.71875 249.171875 251.910156 245.84375 250.199219 C 244.3125 249.390625 243.59375 248.761719 242.242188 247.679688 L 241.433594 248.039062 C 241.253906 252.71875 241.164062 253.710938 240.800781 258.210938 L 241.253906 259.019531 C 245.664062 260.640625 249.441406 262.078125 256.011719 262.078125 C 262.851562 262.078125 276.351562 260.820312 277.972656 247.949219 C 278.0625 247.230469 278.0625 246.601562 278.0625 245.96875 C 278.0625 236.070312 271.132812 233.460938 266.183594 231.570312 Z M 325.941406 247.679688 C 322.523438 249.480469 318.472656 251.550781 311.902344 251.550781 C 306.503906 251.550781 302.8125 249.839844 300.652344 246.601562 C 299.300781 244.710938 299.03125 242.910156 298.671875 241.109375 L 327.742188 240.570312 L 328.28125 239.941406 C 328.191406 235.53125 328.101562 231.03125 326.84375 226.53125 C 323.691406 215.910156 316.761719 213.75 313.703125 213.03125 C 311.453125 212.398438 309.382812 212.21875 307.3125 212.21875 C 293.183594 212.21875 283.820312 221.488281 283.820312 237.058594 C 283.820312 241.289062 284.542969 245.699219 285.980469 248.851562 C 291.203125 261 303.441406 262.078125 309.921875 262.078125 C 317.390625 262.078125 320.632812 260.730469 325.402344 258.839844 L 325.941406 258.121094 L 326.570312 247.949219 L 325.941406 247.679688 M 298.671875 231.570312 C 298.941406 228.78125 299.570312 225 302.992188 222.839844 C 304.070312 222.121094 305.332031 221.851562 306.59375 221.851562 C 309.5625 221.851562 311.363281 223.378906 312.351562 225 C 313.613281 226.980469 313.703125 229.140625 313.703125 231.210938 Z M 362.570312 227.609375 L 365.089844 212.941406 L 364.550781 212.308594 C 363.921875 212.308594 363.289062 212.21875 362.660156 212.21875 C 358.96875 212.21875 354.832031 214.289062 351.949219 220.949219 L 352.21875 212.671875 L 351.5 211.949219 C 344.839844 213.390625 343.128906 213.660156 336.558594 214.648438 L 336.019531 215.191406 C 336.558594 221.941406 336.832031 225.988281 336.832031 238.5 C 336.832031 245.878906 336.738281 253.261719 336.558594 260.730469 L 337.101562 261.269531 C 343.761719 261 345.199219 260.910156 352.398438 261 L 352.851562 260.371094 C 352.488281 253.078125 351.949219 242.910156 351.949219 236.699219 C 351.949219 232.648438 351.949219 226.710938 358.070312 226.710938 C 359.601562 226.710938 360.5 227.25 361.761719 227.96875 Z M 395.511719 250.648438 C 393.980469 251.101562 392.898438 251.460938 391.371094 251.460938 C 386.78125 251.460938 386.421875 248.578125 386.238281 247.230469 C 385.96875 244.890625 385.96875 239.941406 386.058594 236.339844 L 386.238281 223.648438 L 394.339844 224.011719 L 394.878906 223.46875 L 395.78125 213.839844 L 395.238281 213.300781 L 386.238281 213.300781 L 386.511719 198.179688 L 385.878906 197.640625 C 379.761719 199.441406 378.140625 199.890625 371.75 201.511719 L 371.390625 202.140625 L 371.480469 213.390625 L 366.621094 213.210938 L 366.082031 213.660156 L 365.269531 223.289062 L 365.808594 223.828125 L 371.480469 223.648438 L 371.210938 237.960938 C 371.121094 240.210938 371.03125 242.460938 371.03125 244.800781 C 371.03125 253.078125 371.210938 261.988281 385.25 261.988281 C 388.761719 261.988281 391.550781 261.449219 394.699219 260.910156 L 395.332031 260.28125 L 396.230469 251.011719 Z M 454.460938 222.300781 C 446.902344 219.148438 442.941406 217.53125 442.941406 213.480469 C 442.941406 210.691406 445.550781 207.179688 451.492188 207.179688 C 458.332031 207.179688 462.378906 209.96875 465.710938 212.21875 L 466.519531 211.859375 L 467.242188 200.070312 L 466.789062 199.441406 C 462.921875 197.820312 458.871094 196.109375 450.140625 196.109375 C 433.222656 196.109375 427.371094 205.648438 427.371094 215.28125 C 427.371094 226.171875 435.832031 230.128906 440.871094 232.558594 L 443.839844 233.910156 C 450.050781 236.519531 454.820312 238.769531 454.820312 243.539062 C 454.820312 246.960938 451.851562 251.011719 444.019531 251.011719 C 435.832031 251.011719 431.242188 247.410156 428.628906 245.339844 L 427.730469 245.609375 L 427.101562 258.300781 L 427.640625 259.019531 C 428.628906 259.378906 429.621094 259.828125 430.609375 260.101562 C 432.679688 260.820312 437.992188 262.351562 444.742188 262.351562 C 447.441406 262.351562 454.28125 262.078125 459.679688 259.558594 C 467.242188 255.871094 470.480469 249.03125 470.480469 241.378906 C 470.480469 236.25 468.5 230.761719 463.730469 227.070312 C 461.300781 225.269531 458.960938 224.191406 456.800781 223.199219 Z M 504.234375 250.648438 C 502.703125 251.101562 501.621094 251.460938 500.09375 251.460938 C 495.503906 251.460938 495.144531 248.578125 494.960938 247.230469 C 494.691406 244.890625 494.691406 239.941406 494.78125 236.339844 L 494.960938 223.648438 L 503.0625 224.011719 L 503.601562 223.46875 L 504.503906 213.839844 L 503.960938 213.300781 L 494.960938 213.300781 L 495.234375 198.179688 L 494.601562 197.640625 C 488.484375 199.441406 486.863281 199.890625 480.472656 201.511719 L 480.113281 202.140625 L 480.203125 213.390625 L 475.34375 213.210938 L 474.804688 213.660156 L 473.992188 223.289062 L 474.53125 223.828125 L 480.203125 223.648438 L 479.933594 237.960938 C 479.84375 240.210938 479.753906 242.460938 479.753906 244.800781 C 479.753906 253.078125 479.933594 261.988281 493.972656 261.988281 C 497.484375 261.988281 500.273438 261.449219 503.421875 260.910156 L 504.054688 260.28125 L 504.953125 251.011719 Z M 550.941406 234.179688 C 551.03125 226.078125 551.03125 222.570312 548.691406 218.789062 C 546.890625 215.910156 543.292969 212.308594 531.773438 212.308594 C 524.03125 212.308594 519.261719 213.75 514.132812 215.28125 L 513.59375 216 L 513.140625 225.808594 L 513.863281 226.171875 C 517.011719 224.910156 522.863281 222.570312 528.890625 222.570312 C 532.222656 222.570312 533.570312 223.109375 534.742188 224.28125 C 535.640625 225.179688 535.914062 226.800781 535.914062 228.148438 C 525.113281 229.589844 520.070312 230.578125 514.671875 233.910156 C 509.632812 237.058594 507.921875 242.191406 507.921875 246.238281 C 507.921875 255.871094 514.851562 262.078125 523.671875 262.078125 C 530.421875 262.078125 534.292969 258.839844 536.183594 257.308594 L 536.183594 260.640625 L 536.722656 261.269531 C 543.203125 261 545.183594 260.910156 551.03125 261 L 551.480469 260.371094 C 550.851562 251.550781 550.851562 249.300781 550.851562 240.839844 L 550.941406 234.179688 M 536.09375 248.488281 C 534.203125 249.570312 531.773438 250.828125 528.800781 250.828125 C 525.5625 250.828125 522.863281 249.121094 522.863281 245.339844 C 522.863281 239.398438 529.972656 238.410156 536.09375 237.601562 Z M 586.671875 250.648438 C 585.140625 251.101562 584.058594 251.460938 582.53125 251.460938 C 577.941406 251.460938 577.582031 248.578125 577.398438 247.230469 C 577.128906 244.890625 577.128906 239.941406 577.21875 236.339844 L 577.398438 223.648438 L 585.5 224.011719 L 586.039062 223.46875 L 586.941406 213.839844 L 586.398438 213.300781 L 577.398438 213.300781 L 577.671875 198.179688 L 577.039062 197.640625 C 570.921875 199.441406 569.300781 199.890625 562.910156 201.511719 L 562.550781 202.140625 L 562.640625 213.390625 L 557.78125 213.210938 L 557.242188 213.660156 L 556.429688 223.289062 L 556.96875 223.828125 L 562.640625 223.648438 L 562.371094 237.960938 C 562.28125 240.210938 562.191406 242.460938 562.191406 244.800781 C 562.191406 253.078125 562.371094 261.988281 576.410156 261.988281 C 579.921875 261.988281 582.710938 261.449219 585.859375 260.910156 L 586.492188 260.28125 L 587.390625 251.011719 Z M 633.292969 247.679688 C 629.875 249.480469 625.824219 251.550781 619.253906 251.550781 C 613.855469 251.550781 610.164062 249.839844 608.003906 246.601562 C 606.652344 244.710938 606.382812 242.910156 606.023438 241.109375 L 635.09375 240.570312 L 635.632812 239.941406 C 635.542969 235.53125 635.453125 231.03125 634.195312 226.53125 C 631.042969 215.910156 624.113281 213.75 621.054688 213.03125 C 618.804688 212.398438 616.734375 212.21875 614.664062 212.21875 C 600.535156 212.21875 591.171875 221.488281 591.171875 237.058594 C 591.171875 241.289062 591.894531 245.699219 593.332031 248.851562 C 598.554688 261 610.792969 262.078125 617.273438 262.078125 C 624.742188 262.078125 627.984375 260.730469 632.753906 258.839844 L 633.292969 258.121094 L 633.921875 247.949219 L 633.292969 247.679688 M 606.023438 231.570312 C 606.292969 228.78125 606.921875 225 610.34375 222.839844 C 611.421875 222.121094 612.683594 221.851562 613.945312 221.851562 C 616.914062 221.851562 618.714844 223.378906 619.703125 225 C 620.964844 226.980469 621.054688 229.140625 621.054688 231.210938 Z M 682.253906 197.28125 L 670.824219 197.460938 L 670.28125 198 C 670.644531 209.699219 670.914062 217.53125 670.914062 227.878906 C 670.914062 238.859375 670.644531 249.75 670.371094 260.730469 L 670.914062 261.269531 C 677.574219 261 679.011719 260.910156 686.214844 261 L 686.664062 260.460938 C 686.304688 250.648438 686.304688 248.398438 686.304688 239.21875 C 696.382812 239.308594 707.183594 239.308594 713.664062 231.390625 C 716.183594 228.328125 718.34375 223.199219 718.34375 216.898438 C 718.34375 213.03125 717.441406 204.480469 709.972656 200.25 C 704.574219 197.101562 696.921875 197.101562 690.171875 197.101562 L 682.253906 197.28125 M 686.304688 208.171875 C 688.28125 208.078125 690.171875 208.078125 692.152344 208.078125 C 700.074219 208.261719 702.234375 212.308594 702.234375 217.53125 C 702.234375 218.789062 702.234375 224.011719 697.464844 226.621094 C 695.03125 227.96875 691.703125 228.148438 686.304688 228.148438 Z M 764.601562 234.179688 C 764.691406 226.078125 764.691406 222.570312 762.351562 218.789062 C 760.550781 215.910156 756.953125 212.308594 745.433594 212.308594 C 737.691406 212.308594 732.921875 213.75 727.792969 215.28125 L 727.253906 216 L 726.800781 225.808594 L 727.523438 226.171875 C 730.671875 224.910156 736.523438 222.570312 742.550781 222.570312 C 745.882812 222.570312 747.230469 223.109375 748.402344 224.28125 C 749.300781 225.179688 749.574219 226.800781 749.574219 228.148438 C 738.773438 229.589844 733.730469 230.578125 728.332031 233.910156 C 723.292969 237.058594 721.582031 242.191406 721.582031 246.238281 C 721.582031 255.871094 728.511719 262.078125 737.332031 262.078125 C 744.082031 262.078125 747.953125 258.839844 749.84375 257.308594 L 749.84375 260.640625 L 750.382812 261.269531 C 756.863281 261 758.84375 260.910156 764.691406 261 L 765.140625 260.371094 C 764.511719 251.550781 764.511719 249.300781 764.511719 240.839844 L 764.601562 234.179688 M 749.753906 248.488281 C 747.863281 249.570312 745.433594 250.828125 742.460938 250.828125 C 739.222656 250.828125 736.523438 249.121094 736.523438 245.339844 C 736.523438 239.398438 743.632812 238.410156 749.753906 237.601562 Z M 801.140625 227.609375 L 803.660156 212.941406 L 803.121094 212.308594 C 802.492188 212.308594 801.859375 212.21875 801.230469 212.21875 C 797.539062 212.21875 793.402344 214.289062 790.519531 220.949219 L 790.789062 212.671875 L 790.070312 211.949219 C 783.410156 213.390625 781.699219 213.660156 775.128906 214.648438 L 774.589844 215.191406 C 775.128906 221.941406 775.402344 225.988281 775.402344 238.5 C 775.402344 245.878906 775.308594 253.261719 775.128906 260.730469 L 775.671875 261.269531 C 782.332031 261 783.769531 260.910156 790.96875 261 L 791.421875 260.371094 C 791.058594 253.078125 790.519531 242.910156 790.519531 236.699219 C 790.519531 232.648438 790.519531 226.710938 796.640625 226.710938 C 798.171875 226.710938 799.070312 227.25 800.332031 227.96875 Z M 855.140625 259.828125 C 846.679688 245.519531 845.78125 243.898438 838.941406 231.570312 C 845.152344 223.109375 845.78125 222.210938 852.171875 214.019531 L 851.71875 213.121094 L 837.050781 213.300781 L 836.152344 213.929688 C 829.128906 226.078125 828.230469 227.519531 824.089844 233.730469 L 824.089844 223.738281 C 824.179688 206.910156 824.269531 203.308594 824.71875 189.71875 L 824 189.179688 L 808.339844 191.519531 L 807.800781 192.148438 C 808.429688 200.878906 808.699219 205.109375 808.878906 216.898438 C 809.058594 231.480469 809.058594 246.058594 808.96875 260.640625 L 809.601562 261.269531 C 815.628906 261 817.339844 261 824.179688 261 L 824.71875 260.371094 L 824.179688 245.160156 L 824.089844 234.808594 C 831.921875 249.210938 832.910156 251.191406 837.5 260.730469 L 838.308594 261.269531 L 854.511719 260.640625 Z M 854.0625 261 "/>
</svg>
