<?xml version="1.0" encoding="UTF-8"?>
<svg xmlns="http://www.w3.org/2000/svg" xmlns:xlink="http://www.w3.org/1999/xlink" width="975" height="1300" viewBox="0 0 975 1300">
<path fill-rule="nonzero" fill="rgb(98.823529%, 78.823529%, 9.019608%)" fill-opacity="1" d="M 50 50 L 925 50 L 925 290 L 50 290 Z M 50 50 "/>
<path fill-rule="nonzero" fill="rgb(34.901961%, 14.901961%, 14.901961%)" fill-opacity="1" d="M 156.199219 77.191406 C 148.457031 77.550781 146.386719 77.550781 139.910156 77.460938 L 139.546875 78 C 140.089844 87.71875 140.359375 92.308594 140.359375 115.261719 C 140.359375 125.878906 140.179688 131.371094 139.820312 140.730469 L 140.269531 141.269531 C 147.019531 141 148.820312 141 156.289062 141 L 156.828125 140.460938 C 156.378906 132.179688 156.199219 128.039062 156.199219 114.988281 C 156.199219 102.570312 156.378906 90.148438 156.648438 77.730469 Z M 211.820312 140.371094 C 211.371094 132.449219 211.371094 129.929688 211.191406 121.109375 L 211.191406 114.089844 C 211.101562 105.449219 211.011719 101.308594 208.761719 97.621094 C 205.96875 92.941406 200.839844 92.21875 197.601562 92.21875 C 192.109375 92.21875 187.339844 95.101562 183.199219 97.53125 L 183.378906 92.578125 L 182.480469 91.949219 C 175.550781 93.390625 174.019531 93.660156 167.269531 94.558594 L 166.730469 95.191406 C 167.449219 103.019531 167.992188 108.691406 167.992188 123.359375 C 167.992188 129.121094 167.898438 134.878906 167.808594 140.640625 L 168.351562 141.179688 C 174.832031 140.910156 176.179688 140.910156 183.378906 140.910156 L 183.921875 140.371094 C 183.378906 126.511719 183.289062 123 183.199219 106.890625 C 185.089844 105.628906 187.25 104.101562 190.128906 104.101562 C 195.082031 104.101562 195.53125 109.410156 195.800781 112.648438 C 195.980469 115.621094 196.070312 127.949219 196.070312 131.371094 C 196.070312 134.429688 195.980469 137.578125 195.980469 140.640625 L 196.519531 141.179688 C 202.460938 141 203.992188 140.910156 211.191406 140.910156 Z M 266.179688 140.460938 C 265.820312 132.359375 265.550781 126.960938 265.550781 115.171875 C 265.550781 91.410156 265.910156 81.601562 266.269531 69.71875 L 265.640625 69.179688 L 250.789062 71.519531 L 250.339844 72.058594 C 250.878906 80.519531 250.96875 82.769531 250.878906 93.03125 C 244.128906 92.851562 235.667969 92.671875 228.828125 98.070312 C 222.53125 102.929688 219.917969 110.398438 219.917969 119.671875 C 219.917969 126.691406 221.808594 133.710938 227.121094 138.121094 C 231.078125 141.359375 235.941406 142.078125 238.910156 142.078125 C 245.300781 142.078125 248.628906 139.109375 250.789062 137.21875 L 250.609375 140.730469 L 251.058594 141.269531 C 257.269531 141 258.980469 141 265.730469 141 L 266.179688 140.460938 M 250.878906 103.828125 C 250.96875 115.800781 250.878906 118.140625 250.609375 129.03125 C 248.808594 130.109375 247.007812 131.191406 244.488281 131.191406 C 235.757812 131.191406 235.757812 120.03125 235.757812 118.230469 C 235.757812 111.300781 237.738281 103.558594 247.820312 103.558594 C 248.808594 103.558594 249.621094 103.648438 250.878906 103.828125 Z M 292.730469 140.371094 C 292.277344 133.441406 291.917969 128.128906 291.917969 115.710938 C 291.917969 108.058594 292.097656 100.320312 292.1875 92.671875 L 291.558594 91.949219 L 276.078125 94.648438 L 275.539062 95.191406 C 276.257812 102.03125 276.527344 105.179688 276.527344 117.960938 C 276.527344 127.769531 276.257812 133.261719 275.988281 140.640625 L 276.527344 141.269531 C 283.007812 141 284.808594 140.910156 292.097656 141 L 292.730469 140.371094 M 291.289062 83.308594 L 291.558594 71.070312 L 291.019531 70.53125 L 276.347656 72.328125 L 275.808594 72.960938 C 275.988281 76.199219 276.078125 78.089844 276.078125 80.25 C 276.078125 81.960938 276.078125 83.761719 275.988281 85.46875 L 276.617188 86.011719 C 282.738281 84.929688 284.449219 84.75 290.839844 83.941406 Z M 348.53125 117.058594 C 348.53125 113.550781 348.53125 98.96875 335.929688 94.019531 C 331.96875 92.488281 327.289062 92.308594 324.949219 92.308594 C 309.289062 92.308594 300.46875 100.679688 300.46875 117.238281 C 300.46875 123 301.371094 128.851562 304.699219 133.710938 C 307.039062 137.21875 311.449219 142.078125 324.320312 142.078125 C 343.398438 142.078125 348.53125 130.558594 348.53125 117.058594 M 332.960938 116.96875 C 332.960938 124.351562 331.96875 132.539062 324.5 132.539062 C 322.160156 132.539062 320.539062 131.460938 319.460938 130.46875 C 317.929688 128.941406 316.21875 125.878906 316.21875 117.148438 C 316.21875 114.539062 316.21875 108.78125 318.019531 105.628906 C 319.371094 103.199219 321.710938 101.578125 324.589844 101.578125 C 327.109375 101.578125 329.179688 102.929688 330.351562 104.371094 C 332.511719 106.980469 332.960938 112.109375 332.960938 116.96875 Z M 437.265625 77.191406 C 430.066406 77.460938 428.898438 77.460938 421.335938 77.460938 L 420.886719 78 C 421.515625 88.171875 421.515625 90.78125 421.605469 101.398438 C 417.648438 101.488281 413.6875 101.578125 409.636719 101.578125 C 406.488281 101.578125 403.246094 101.488281 400.097656 101.488281 L 400.277344 77.730469 L 399.828125 77.191406 C 392.898438 77.460938 391.546875 77.460938 383.71875 77.460938 L 383.175781 78 C 383.628906 87.269531 384.167969 98.339844 384.167969 120.660156 C 384.167969 128.761719 383.988281 133.171875 383.808594 140.730469 L 384.257812 141.269531 C 390.828125 141 392.445312 140.910156 400.367188 141 L 400.816406 140.460938 C 400.277344 129.300781 400.1875 126.058594 400.097656 113.011719 C 404.058594 112.828125 407.386719 112.738281 410.898438 112.738281 C 414.496094 112.738281 418.097656 112.828125 421.695312 112.921875 C 421.878906 125.070312 421.878906 128.039062 421.425781 140.730469 L 421.878906 141.269531 C 428.628906 141 430.425781 140.910156 438.078125 141 L 438.527344 140.460938 C 437.808594 125.339844 437.535156 110.308594 437.535156 95.191406 C 437.535156 88.890625 437.628906 84.660156 437.71875 77.730469 Z M 465.261719 140.371094 C 464.808594 133.441406 464.449219 128.128906 464.449219 115.710938 C 464.449219 108.058594 464.628906 100.320312 464.71875 92.671875 L 464.089844 91.949219 L 448.609375 94.648438 L 448.070312 95.191406 C 448.789062 102.03125 449.058594 105.179688 449.058594 117.960938 C 449.058594 127.769531 448.789062 133.261719 448.519531 140.640625 L 449.058594 141.269531 C 455.539062 141 457.339844 140.910156 464.628906 141 L 465.261719 140.371094 M 463.820312 83.308594 L 464.089844 71.070312 L 463.550781 70.53125 L 448.878906 72.328125 L 448.339844 72.960938 C 448.519531 76.199219 448.609375 78.089844 448.609375 80.25 C 448.609375 81.960938 448.609375 83.761719 448.519531 85.46875 L 449.148438 86.011719 C 455.269531 84.929688 456.980469 84.75 463.371094 83.941406 Z M 491.085938 140.371094 C 490.636719 130.019531 490.1875 120.570312 490.1875 92.128906 C 490.1875 83.578125 490.277344 79.53125 490.636719 69.808594 L 490.007812 69.179688 L 474.617188 71.609375 L 474.257812 72.148438 C 475.15625 83.128906 475.246094 86.101562 475.425781 100.679688 C 475.519531 105.988281 475.519531 111.300781 475.519531 116.609375 C 475.519531 126.328125 475.335938 131.730469 474.976562 140.640625 L 475.519531 141.269531 C 481.546875 141 483.976562 140.910156 490.546875 141 Z M 517.367188 140.371094 C 516.917969 130.019531 516.46875 120.570312 516.46875 92.128906 C 516.46875 83.578125 516.558594 79.53125 516.917969 69.808594 L 516.289062 69.179688 L 500.898438 71.609375 L 500.539062 72.148438 C 501.4375 83.128906 501.527344 86.101562 501.707031 100.679688 C 501.800781 105.988281 501.800781 111.300781 501.800781 116.609375 C 501.800781 126.328125 501.617188 131.730469 501.257812 140.640625 L 501.800781 141.269531 C 507.828125 141 510.257812 140.910156 516.828125 141 Z M 546.710938 109.949219 C 543.648438 108.871094 541.21875 107.878906 541.21875 105.359375 C 541.21875 104.28125 541.941406 101.308594 547.519531 101.308594 C 553.011719 101.308594 556.519531 103.648438 558.769531 105.089844 L 559.582031 104.820312 L 560.480469 95.011719 L 560.03125 94.46875 C 555.800781 93.300781 552.109375 92.21875 546.261719 92.21875 C 541.851562 92.21875 533.03125 92.578125 528.351562 99.328125 C 527.179688 100.949219 525.921875 103.648438 525.921875 107.25 C 525.921875 116.878906 533.390625 119.761719 537.621094 121.378906 L 541.039062 122.640625 C 543.46875 123.449219 547.429688 124.800781 547.429688 128.039062 C 547.429688 130.289062 545.359375 132.71875 540.320312 132.71875 C 537.800781 132.71875 534.109375 131.910156 530.78125 130.199219 C 529.25 129.390625 528.53125 128.761719 527.179688 127.679688 L 526.371094 128.039062 C 526.191406 132.71875 526.101562 133.710938 525.738281 138.210938 L 526.191406 139.019531 C 530.601562 140.640625 534.378906 142.078125 540.949219 142.078125 C 547.789062 142.078125 561.289062 140.820312 562.910156 127.949219 C 563 127.230469 563 126.601562 563 125.96875 C 563 116.070312 556.070312 113.460938 551.121094 111.570312 Z M 609.257812 77.28125 L 597.828125 77.460938 L 597.285156 78 C 597.648438 89.699219 597.917969 97.53125 597.917969 107.878906 C 597.917969 118.859375 597.648438 129.75 597.375 140.730469 L 597.917969 141.269531 C 604.578125 141 606.015625 140.910156 613.21875 141 L 613.667969 140.460938 C 613.308594 130.648438 613.308594 128.398438 613.308594 119.21875 C 623.386719 119.308594 634.1875 119.308594 640.667969 111.390625 C 643.1875 108.328125 645.347656 103.199219 645.347656 96.898438 C 645.347656 93.03125 644.445312 84.480469 636.976562 80.25 C 631.578125 77.101562 623.925781 77.101562 617.175781 77.101562 L 609.257812 77.28125 M 613.308594 88.171875 C 615.285156 88.078125 617.175781 88.078125 619.15625 88.078125 C 627.078125 88.261719 629.238281 92.308594 629.238281 97.53125 C 629.238281 98.789062 629.238281 104.011719 624.46875 106.621094 C 622.035156 107.96875 618.707031 108.148438 613.308594 108.148438 Z M 691.609375 114.179688 C 691.699219 106.078125 691.699219 102.570312 689.359375 98.789062 C 687.558594 95.910156 683.960938 92.308594 672.441406 92.308594 C 664.699219 92.308594 659.929688 93.75 654.800781 95.28125 L 654.261719 96 L 653.808594 105.808594 L 654.53125 106.171875 C 657.679688 104.910156 663.53125 102.570312 669.558594 102.570312 C 672.890625 102.570312 674.238281 103.109375 675.410156 104.28125 C 676.308594 105.179688 676.582031 106.800781 676.582031 108.148438 C 665.78125 109.589844 660.738281 110.578125 655.339844 113.910156 C 650.300781 117.058594 648.589844 122.191406 648.589844 126.238281 C 648.589844 135.871094 655.519531 142.078125 664.339844 142.078125 C 671.089844 142.078125 674.960938 138.839844 676.851562 137.308594 L 676.851562 140.640625 L 677.390625 141.269531 C 683.871094 141 685.851562 140.910156 691.699219 141 L 692.148438 140.371094 C 691.519531 131.550781 691.519531 129.300781 691.519531 120.839844 L 691.609375 114.179688 M 676.761719 128.488281 C 674.871094 129.570312 672.441406 130.828125 669.46875 130.828125 C 666.230469 130.828125 663.53125 129.121094 663.53125 125.339844 C 663.53125 119.398438 670.640625 118.410156 676.761719 117.601562 Z M 717.976562 140.371094 C 717.527344 130.019531 717.078125 120.570312 717.078125 92.128906 C 717.078125 83.578125 717.167969 79.53125 717.527344 69.808594 L 716.898438 69.179688 L 701.507812 71.609375 L 701.148438 72.148438 C 702.046875 83.128906 702.136719 86.101562 702.316406 100.679688 C 702.410156 105.988281 702.410156 111.300781 702.410156 116.609375 C 702.410156 126.328125 702.226562 131.730469 701.867188 140.640625 L 702.410156 141.269531 C 708.4375 141 710.867188 140.910156 717.4375 141 Z M 798.710938 140.371094 C 798.257812 132 798.167969 129.660156 798.167969 119.488281 L 798.167969 112.738281 C 798.257812 106.710938 798.347656 101.128906 795.738281 97.351562 C 792.230469 92.21875 786.019531 92.21875 784.578125 92.21875 C 777.199219 92.21875 772.25 95.550781 768.648438 98.070312 C 767.390625 96 765.140625 92.21875 757.941406 92.21875 C 752 92.21875 748.128906 94.921875 743.988281 97.800781 L 743.988281 92.761719 L 743.179688 91.949219 C 736.160156 93.300781 734.179688 93.660156 727.878906 94.558594 L 727.339844 95.191406 C 728.058594 102.390625 728.597656 107.339844 728.597656 125.160156 C 728.597656 130.289062 728.507812 135.511719 728.507812 140.640625 L 728.960938 141.179688 C 734.71875 141 736.699219 140.910156 744.167969 140.910156 L 744.710938 140.371094 C 744.078125 126.511719 743.988281 122.371094 743.898438 106.710938 C 745.789062 105.359375 747.859375 104.191406 750.109375 104.191406 C 755.691406 104.191406 755.871094 110.578125 755.871094 118.320312 C 755.871094 131.371094 755.78125 133.351562 755.597656 140.640625 L 756.140625 141.269531 C 762.980469 140.910156 764.871094 140.910156 771.078125 140.910156 L 771.621094 140.371094 C 771.078125 131.820312 770.988281 129.300781 770.898438 118.410156 L 770.898438 115.078125 L 770.808594 105.988281 C 772.339844 105 774.320312 103.738281 777.019531 103.738281 C 782.148438 103.738281 782.960938 108.601562 782.960938 116.339844 C 782.960938 118.050781 782.871094 119.761719 782.871094 121.46875 C 782.78125 124.53125 782.691406 137.941406 782.597656 140.640625 L 783.140625 141.179688 C 789.890625 140.910156 791.871094 140.910156 798.167969 140.910156 Z M 827.960938 109.949219 C 824.898438 108.871094 822.46875 107.878906 822.46875 105.359375 C 822.46875 104.28125 823.191406 101.308594 828.769531 101.308594 C 834.261719 101.308594 837.769531 103.648438 840.019531 105.089844 L 840.832031 104.820312 L 841.730469 95.011719 L 841.28125 94.46875 C 837.050781 93.300781 833.359375 92.21875 827.511719 92.21875 C 823.101562 92.21875 814.28125 92.578125 809.601562 99.328125 C 808.429688 100.949219 807.171875 103.648438 807.171875 107.25 C 807.171875 116.878906 814.640625 119.761719 818.871094 121.378906 L 822.289062 122.640625 C 824.71875 123.449219 828.679688 124.800781 828.679688 128.039062 C 828.679688 130.289062 826.609375 132.71875 821.570312 132.71875 C 819.050781 132.71875 815.359375 131.910156 812.03125 130.199219 C 810.5 129.390625 809.78125 128.761719 808.429688 127.679688 L 807.621094 128.039062 C 807.441406 132.71875 807.351562 133.710938 806.988281 138.210938 L 807.441406 139.019531 C 811.851562 140.640625 815.628906 142.078125 822.199219 142.078125 C 829.039062 142.078125 842.539062 140.820312 844.160156 127.949219 C 844.25 127.230469 844.25 126.601562 844.25 125.96875 C 844.25 116.070312 837.320312 113.460938 832.371094 111.570312 Z M 846.769531 141 "/>
<path fill-rule="nonzero" fill="rgb(34.901961%, 14.901961%, 14.901961%)" fill-opacity="1" d="M 219.425781 197.28125 L 207.996094 197.460938 L 207.453125 198 C 207.816406 209.699219 208.085938 217.53125 208.085938 227.878906 C 208.085938 238.859375 207.816406 249.75 207.542969 260.730469 L 208.085938 261.269531 C 214.746094 261 216.183594 260.910156 223.386719 261 L 223.835938 260.460938 C 223.476562 250.648438 223.476562 248.398438 223.476562 239.21875 C 233.554688 239.308594 244.355469 239.308594 250.835938 231.390625 C 253.355469 228.328125 255.515625 223.199219 255.515625 216.898438 C 255.515625 213.03125 254.613281 204.480469 247.144531 200.25 C 241.746094 197.101562 234.09375 197.101562 227.34375 197.101562 L 219.425781 197.28125 M 223.476562 208.171875 C 225.453125 208.078125 227.34375 208.078125 229.324219 208.078125 C 237.246094 208.261719 239.40625 212.308594 239.40625 217.53125 C 239.40625 218.789062 239.40625 224.011719 234.636719 226.621094 C 232.203125 227.96875 228.875 228.148438 223.476562 228.148438 Z M 301.773438 234.179688 C 301.863281 226.078125 301.863281 222.570312 299.523438 218.789062 C 297.722656 215.910156 294.125 212.308594 282.605469 212.308594 C 274.863281 212.308594 270.09375 213.75 264.964844 215.28125 L 264.425781 216 L 263.972656 225.808594 L 264.695312 226.171875 C 267.84375 224.910156 273.695312 222.570312 279.722656 222.570312 C 283.054688 222.570312 284.402344 223.109375 285.574219 224.28125 C 286.472656 225.179688 286.746094 226.800781 286.746094 228.148438 C 275.945312 229.589844 270.902344 230.578125 265.503906 233.910156 C 260.464844 237.058594 258.753906 242.191406 258.753906 246.238281 C 258.753906 255.871094 265.683594 262.078125 274.503906 262.078125 C 281.253906 262.078125 285.125 258.839844 287.015625 257.308594 L 287.015625 260.640625 L 287.554688 261.269531 C 294.035156 261 296.015625 260.910156 301.863281 261 L 302.3125 260.371094 C 301.683594 251.550781 301.683594 249.300781 301.683594 240.839844 L 301.773438 234.179688 M 286.925781 248.488281 C 285.035156 249.570312 282.605469 250.828125 279.632812 250.828125 C 276.394531 250.828125 273.695312 249.121094 273.695312 245.339844 C 273.695312 239.398438 280.804688 238.410156 286.925781 237.601562 Z M 338.316406 227.609375 L 340.835938 212.941406 L 340.296875 212.308594 C 339.667969 212.308594 339.035156 212.21875 338.40625 212.21875 C 334.714844 212.21875 330.578125 214.289062 327.695312 220.949219 L 327.964844 212.671875 L 327.246094 211.949219 C 320.585938 213.390625 318.875 213.660156 312.304688 214.648438 L 311.765625 215.191406 C 312.304688 221.941406 312.578125 225.988281 312.578125 238.5 C 312.578125 245.878906 312.484375 253.261719 312.304688 260.730469 L 312.847656 261.269531 C 319.507812 261 320.945312 260.910156 328.144531 261 L 328.597656 260.371094 C 328.234375 253.078125 327.695312 242.910156 327.695312 236.699219 C 327.695312 232.648438 327.695312 226.710938 333.816406 226.710938 C 335.347656 226.710938 336.246094 227.25 337.507812 227.96875 Z M 392.316406 259.828125 C 383.855469 245.519531 382.957031 243.898438 376.117188 231.570312 C 382.328125 223.109375 382.957031 222.210938 389.347656 214.019531 L 388.894531 213.121094 L 374.226562 213.300781 L 373.328125 213.929688 C 366.304688 226.078125 365.40625 227.519531 361.265625 233.730469 L 361.265625 223.738281 C 361.355469 206.910156 361.445312 203.308594 361.894531 189.71875 L 361.175781 189.179688 L 345.515625 191.519531 L 344.976562 192.148438 C 345.605469 200.878906 345.875 205.109375 346.054688 216.898438 C 346.234375 231.480469 346.234375 246.058594 346.144531 260.640625 L 346.777344 261.269531 C 352.804688 261 354.515625 261 361.355469 261 L 361.894531 260.371094 L 361.355469 245.160156 L 361.265625 234.808594 C 369.097656 249.210938 370.085938 251.191406 374.675781 260.730469 L 375.484375 261.269531 L 391.6875 260.640625 Z M 434.976562 197.28125 L 423.546875 197.460938 L 423.003906 198 C 423.367188 209.699219 423.636719 217.53125 423.636719 227.878906 C 423.636719 238.859375 423.367188 249.75 423.09375 260.730469 L 423.636719 261.269531 C 430.296875 261 431.734375 260.910156 438.9375 261 L 439.386719 260.460938 C 439.027344 250.648438 439.027344 248.398438 439.027344 239.21875 C 449.105469 239.308594 459.90625 239.308594 466.386719 231.390625 C 468.90625 228.328125 471.066406 223.199219 471.066406 216.898438 C 471.066406 213.03125 470.164062 204.480469 462.695312 200.25 C 457.296875 197.101562 449.644531 197.101562 442.894531 197.101562 L 434.976562 197.28125 M 439.027344 208.171875 C 441.003906 208.078125 442.894531 208.078125 444.875 208.078125 C 452.796875 208.261719 454.957031 212.308594 454.957031 217.53125 C 454.957031 218.789062 454.957031 224.011719 450.1875 226.621094 C 447.753906 227.96875 444.425781 228.148438 439.027344 228.148438 Z M 503.285156 227.609375 L 505.804688 212.941406 L 505.265625 212.308594 C 504.636719 212.308594 504.003906 212.21875 503.375 212.21875 C 499.683594 212.21875 495.546875 214.289062 492.664062 220.949219 L 492.933594 212.671875 L 492.214844 211.949219 C 485.554688 213.390625 483.84375 213.660156 477.273438 214.648438 L 476.734375 215.191406 C 477.273438 221.941406 477.546875 225.988281 477.546875 238.5 C 477.546875 245.878906 477.453125 253.261719 477.273438 260.730469 L 477.816406 261.269531 C 484.476562 261 485.914062 260.910156 493.113281 261 L 493.566406 260.371094 C 493.203125 253.078125 492.664062 242.910156 492.664062 236.699219 C 492.664062 232.648438 492.664062 226.710938 498.785156 226.710938 C 500.316406 226.710938 501.214844 227.25 502.476562 227.96875 Z M 556.835938 237.058594 C 556.835938 233.550781 556.835938 218.96875 544.234375 214.019531 C 540.273438 212.488281 535.59375 212.308594 533.253906 212.308594 C 517.59375 212.308594 508.773438 220.679688 508.773438 237.238281 C 508.773438 243 509.675781 248.851562 513.003906 253.710938 C 515.34375 257.21875 519.753906 262.078125 532.625 262.078125 C 551.703125 262.078125 556.835938 250.558594 556.835938 237.058594 M 541.265625 236.96875 C 541.265625 244.351562 540.273438 252.539062 532.804688 252.539062 C 530.464844 252.539062 528.84375 251.460938 527.765625 250.46875 C 526.234375 248.941406 524.523438 245.878906 524.523438 237.148438 C 524.523438 234.539062 524.523438 228.78125 526.324219 225.628906 C 527.675781 223.199219 530.015625 221.578125 532.894531 221.578125 C 535.414062 221.578125 537.484375 222.929688 538.65625 224.371094 C 540.816406 226.980469 541.265625 232.109375 541.265625 236.96875 Z M 580.324219 212.851562 L 579.605469 212.039062 C 573.035156 213.480469 571.144531 213.839844 564.664062 214.648438 L 564.125 215.28125 C 565.113281 225.988281 565.472656 230.128906 565.472656 256.050781 C 565.472656 266.761719 565.292969 272.878906 565.023438 283.050781 L 565.5625 283.5 C 571.953125 283.230469 573.84375 283.140625 580.683594 283.230469 L 581.222656 282.78125 L 580.59375 261.359375 C 587.164062 261.269531 596.253906 261.179688 603.542969 254.339844 C 609.304688 248.941406 611.195312 241.289062 611.195312 235.171875 C 611.195312 220.859375 602.464844 212.21875 592.382812 212.21875 C 586.175781 212.21875 582.664062 214.738281 580.144531 216.449219 L 580.324219 212.851562 M 580.503906 225.089844 C 582.484375 223.921875 583.65625 223.289062 585.90625 223.289062 C 587.253906 223.289062 589.953125 223.46875 592.203125 225.988281 C 594.996094 229.050781 595.445312 233.640625 595.445312 236.699219 C 595.445312 241.921875 593.734375 246.601562 590.132812 249.121094 C 587.253906 251.101562 583.65625 251.28125 580.503906 251.371094 Z M 659.703125 247.679688 C 656.285156 249.480469 652.234375 251.550781 645.664062 251.550781 C 640.265625 251.550781 636.574219 249.839844 634.414062 246.601562 C 633.0625 244.710938 632.792969 242.910156 632.433594 241.109375 L 661.503906 240.570312 L 662.042969 239.941406 C 661.953125 235.53125 661.863281 231.03125 660.605469 226.53125 C 657.453125 215.910156 650.523438 213.75 647.464844 213.03125 C 645.214844 212.398438 643.144531 212.21875 641.074219 212.21875 C 626.945312 212.21875 617.582031 221.488281 617.582031 237.058594 C 617.582031 241.289062 618.304688 245.699219 619.742188 248.851562 C 624.964844 261 637.203125 262.078125 643.683594 262.078125 C 651.152344 262.078125 654.394531 260.730469 659.164062 258.839844 L 659.703125 258.121094 L 660.332031 247.949219 L 659.703125 247.679688 M 632.433594 231.570312 C 632.703125 228.78125 633.332031 225 636.753906 222.839844 C 637.832031 222.121094 639.09375 221.851562 640.355469 221.851562 C 643.324219 221.851562 645.125 223.378906 646.113281 225 C 647.375 226.980469 647.464844 229.140625 647.464844 231.210938 Z M 696.335938 227.609375 L 698.855469 212.941406 L 698.316406 212.308594 C 697.6875 212.308594 697.054688 212.21875 696.425781 212.21875 C 692.734375 212.21875 688.597656 214.289062 685.714844 220.949219 L 685.984375 212.671875 L 685.265625 211.949219 C 678.605469 213.390625 676.894531 213.660156 670.324219 214.648438 L 669.785156 215.191406 C 670.324219 221.941406 670.597656 225.988281 670.597656 238.5 C 670.597656 245.878906 670.503906 253.261719 670.324219 260.730469 L 670.867188 261.269531 C 677.527344 261 678.964844 260.910156 686.164062 261 L 686.617188 260.371094 C 686.253906 253.078125 685.714844 242.910156 685.714844 236.699219 C 685.714844 232.648438 685.714844 226.710938 691.835938 226.710938 C 693.367188 226.710938 694.265625 227.25 695.527344 227.96875 Z M 729.277344 250.648438 C 727.746094 251.101562 726.664062 251.460938 725.136719 251.460938 C 720.546875 251.460938 720.1875 248.578125 720.003906 247.230469 C 719.734375 244.890625 719.734375 239.941406 719.824219 236.339844 L 720.003906 223.648438 L 728.105469 224.011719 L 728.644531 223.46875 L 729.546875 213.839844 L 729.003906 213.300781 L 720.003906 213.300781 L 720.277344 198.179688 L 719.644531 197.640625 C 713.527344 199.441406 711.90625 199.890625 705.515625 201.511719 L 705.15625 202.140625 L 705.246094 213.390625 L 700.386719 213.210938 L 699.847656 213.660156 L 699.035156 223.289062 L 699.574219 223.828125 L 705.246094 223.648438 L 704.976562 237.960938 C 704.886719 240.210938 704.796875 242.460938 704.796875 244.800781 C 704.796875 253.078125 704.976562 261.988281 719.015625 261.988281 C 722.527344 261.988281 725.316406 261.449219 728.464844 260.910156 L 729.097656 260.28125 L 729.996094 251.011719 Z M 776.164062 213.03125 L 763.65625 213.300781 L 762.933594 213.929688 C 761.40625 220.140625 761.046875 221.488281 758.886719 228.511719 L 756.546875 236.25 L 754.566406 243 L 752.855469 236.609375 L 750.246094 227.070312 L 746.644531 213.390625 L 745.925781 212.851562 C 738.90625 213.390625 737.375 213.480469 729.996094 213.660156 L 729.546875 214.289062 C 732.785156 222.839844 741.15625 245.429688 746.734375 262.710938 C 743.046875 272.070312 742.324219 273.691406 738.273438 282.601562 L 738.726562 283.320312 C 740.976562 283.230469 743.496094 283.140625 745.835938 283.140625 C 748.085938 283.140625 750.425781 283.230469 752.675781 283.230469 L 753.304688 282.691406 C 758.253906 263.25 760.683594 255.691406 772.566406 224.371094 C 773.914062 220.769531 775.265625 217.261719 776.523438 213.75 Z M 775.535156 261 "/>
</svg>
