<?xml version="1.0" encoding="UTF-8"?>
<svg xmlns="http://www.w3.org/2000/svg" xmlns:xlink="http://www.w3.org/1999/xlink" width="975" height="1300" viewBox="0 0 975 1300">
<path fill-rule="nonzero" fill="rgb(98.823529%, 78.823529%, 9.019608%)" fill-opacity="1" d="M 50 50 L 925 50 L 925 290 L 50 290 Z M 50 50 "/>
<path fill-rule="nonzero" fill="rgb(34.901961%, 14.901961%, 14.901961%)" fill-opacity="1" d="M 190.894531 77.191406 C 183.695312 77.460938 182.527344 77.460938 174.964844 77.460938 L 174.515625 78 C 175.144531 88.171875 175.144531 90.78125 175.234375 101.398438 C 171.277344 101.488281 167.316406 101.578125 163.265625 101.578125 C 160.117188 101.578125 156.875 101.488281 153.726562 101.488281 L 153.90625 77.730469 L 153.457031 77.191406 C 146.527344 77.460938 145.175781 77.460938 137.347656 77.460938 L 136.804688 78 C 137.257812 87.269531 137.796875 98.339844 137.796875 120.660156 C 137.796875 128.761719 137.617188 133.171875 137.4375 140.730469 L 137.886719 141.269531 C 144.457031 141 146.074219 140.910156 153.996094 141 L 154.445312 140.460938 C 153.90625 129.300781 153.816406 126.058594 153.726562 113.011719 C 157.6875 112.828125 161.015625 112.738281 164.527344 112.738281 C 168.125 112.738281 171.726562 112.828125 175.324219 112.921875 C 175.507812 125.070312 175.507812 128.039062 175.054688 140.730469 L 175.507812 141.269531 C 182.257812 141 184.054688 140.910156 191.707031 141 L 192.15625 140.460938 C 191.4375 125.339844 191.164062 110.308594 191.164062 95.191406 C 191.164062 88.890625 191.257812 84.660156 191.347656 77.730469 Z M 245.796875 92.851562 L 231.125 93.570312 L 230.496094 94.109375 C 231.125 104.28125 231.125 118.679688 231.125 120.121094 C 231.125 122.730469 231.125 124.171875 231.035156 127.769531 C 228.605469 129.390625 226.714844 130.738281 224.285156 130.738281 C 217.804688 130.738281 217.804688 123.898438 217.804688 118.589844 C 217.804688 116.339844 217.804688 114 217.894531 111.75 L 218.074219 93.570312 L 217.445312 92.851562 L 202.59375 93.570312 L 201.964844 94.109375 C 202.503906 101.671875 202.59375 104.191406 202.59375 113.28125 L 202.59375 119.578125 C 202.503906 129.390625 202.957031 133.53125 206.195312 137.308594 C 209.164062 140.640625 213.484375 142.078125 217.984375 142.078125 C 224.375 142.078125 228.066406 139.199219 231.304688 136.679688 L 231.214844 140.730469 L 231.84375 141.269531 C 238.414062 141 240.394531 141 246.246094 141 L 246.785156 140.460938 C 246.335938 134.070312 246.15625 130.648438 246.15625 118.949219 C 246.15625 110.488281 246.246094 102.03125 246.425781 93.570312 Z M 301.054688 140.371094 C 300.605469 132.449219 300.605469 129.929688 300.425781 121.109375 L 300.425781 114.089844 C 300.335938 105.449219 300.246094 101.308594 297.996094 97.621094 C 295.203125 92.941406 290.074219 92.21875 286.835938 92.21875 C 281.34375 92.21875 276.574219 95.101562 272.433594 97.53125 L 272.613281 92.578125 L 271.714844 91.949219 C 264.785156 93.390625 263.253906 93.660156 256.503906 94.558594 L 255.964844 95.191406 C 256.683594 103.019531 257.226562 108.691406 257.226562 123.359375 C 257.226562 129.121094 257.132812 134.878906 257.042969 140.640625 L 257.585938 141.179688 C 264.066406 140.910156 265.414062 140.910156 272.613281 140.910156 L 273.15625 140.371094 C 272.613281 126.511719 272.523438 123 272.433594 106.890625 C 274.324219 105.628906 276.484375 104.101562 279.363281 104.101562 C 284.316406 104.101562 284.765625 109.410156 285.035156 112.648438 C 285.214844 115.621094 285.304688 127.949219 285.304688 131.371094 C 285.304688 134.429688 285.214844 137.578125 285.214844 140.640625 L 285.753906 141.179688 C 291.695312 141 293.226562 140.910156 300.425781 140.910156 Z M 336.515625 130.648438 C 334.984375 131.101562 333.902344 131.460938 332.375 131.460938 C 327.785156 131.460938 327.425781 128.578125 327.242188 127.230469 C 326.972656 124.890625 326.972656 119.941406 327.0625 116.339844 L 327.242188 103.648438 L 335.34375 104.011719 L 335.882812 103.46875 L 336.785156 93.839844 L 336.242188 93.300781 L 327.242188 93.300781 L 327.515625 78.179688 L 326.882812 77.640625 C 320.765625 79.441406 319.144531 79.890625 312.753906 81.511719 L 312.394531 82.140625 L 312.484375 93.390625 L 307.625 93.210938 L 307.085938 93.660156 L 306.273438 103.289062 L 306.8125 103.828125 L 312.484375 103.648438 L 312.214844 117.960938 C 312.125 120.210938 312.035156 122.460938 312.035156 124.800781 C 312.035156 133.078125 312.214844 141.988281 326.253906 141.988281 C 329.765625 141.988281 332.554688 141.449219 335.703125 140.910156 L 336.335938 140.28125 L 337.234375 131.011719 Z M 359.46875 140.371094 C 359.015625 133.441406 358.65625 128.128906 358.65625 115.710938 C 358.65625 108.058594 358.835938 100.320312 358.925781 92.671875 L 358.296875 91.949219 L 342.816406 94.648438 L 342.277344 95.191406 C 342.996094 102.03125 343.265625 105.179688 343.265625 117.960938 C 343.265625 127.769531 342.996094 133.261719 342.726562 140.640625 L 343.265625 141.269531 C 349.746094 141 351.546875 140.910156 358.835938 141 L 359.46875 140.371094 M 358.027344 83.308594 L 358.296875 71.070312 L 357.757812 70.53125 L 343.085938 72.328125 L 342.546875 72.960938 C 342.726562 76.199219 342.816406 78.089844 342.816406 80.25 C 342.816406 81.960938 342.816406 83.761719 342.726562 85.46875 L 343.355469 86.011719 C 349.476562 84.929688 351.1875 84.75 357.578125 83.941406 Z M 413.554688 140.371094 C 413.105469 132.449219 413.105469 129.929688 412.925781 121.109375 L 412.925781 114.089844 C 412.835938 105.449219 412.746094 101.308594 410.496094 97.621094 C 407.703125 92.941406 402.574219 92.21875 399.335938 92.21875 C 393.84375 92.21875 389.074219 95.101562 384.933594 97.53125 L 385.113281 92.578125 L 384.214844 91.949219 C 377.285156 93.390625 375.753906 93.660156 369.003906 94.558594 L 368.464844 95.191406 C 369.183594 103.019531 369.726562 108.691406 369.726562 123.359375 C 369.726562 129.121094 369.632812 134.878906 369.542969 140.640625 L 370.085938 141.179688 C 376.566406 140.910156 377.914062 140.910156 385.113281 140.910156 L 385.65625 140.371094 C 385.113281 126.511719 385.023438 123 384.933594 106.890625 C 386.824219 105.628906 388.984375 104.101562 391.863281 104.101562 C 396.816406 104.101562 397.265625 109.410156 397.535156 112.648438 C 397.714844 115.621094 397.804688 127.949219 397.804688 131.371094 C 397.804688 134.429688 397.714844 137.578125 397.714844 140.640625 L 398.253906 141.179688 C 404.195312 141 405.726562 140.910156 412.925781 140.910156 Z M 440.375 125.789062 C 443.253906 125.878906 446.132812 126.058594 450.453125 124.621094 C 455.132812 123 461.972656 119.128906 461.972656 110.398438 C 461.972656 106.078125 460.714844 104.28125 459.542969 102.570312 L 465.753906 102.929688 L 466.292969 102.480469 L 466.925781 93.480469 L 466.382812 93.03125 C 459.453125 93.300781 457.5625 93.390625 451.894531 93.300781 L 447.753906 93.210938 C 441.363281 93.03125 432.8125 92.851562 426.964844 97.710938 C 424.984375 99.238281 421.203125 103.109375 421.203125 109.859375 C 421.203125 113.460938 422.195312 116.339844 423.8125 118.589844 C 425.792969 121.378906 427.59375 122.371094 429.84375 123.628906 C 427.324219 128.488281 425.972656 130.921875 423.902344 134.609375 L 423.902344 135.421875 L 427.683594 138.121094 C 424.984375 140.191406 420.753906 143.609375 420.753906 149.460938 C 420.753906 153.601562 423.003906 157.199219 426.335938 159.628906 C 431.375 163.230469 438.214844 163.410156 441.722656 163.410156 C 458.195312 163.410156 465.753906 155.128906 465.753906 146.398438 C 465.753906 135.058594 455.855469 132.898438 450.003906 131.550781 L 447.84375 131.191406 C 443.433594 130.46875 442.445312 130.199219 438.933594 128.941406 L 440.375 125.789062 M 447.753906 109.589844 C 447.664062 116.878906 443.253906 117.511719 441.992188 117.511719 C 441.273438 117.511719 438.125 117.328125 436.59375 113.730469 C 435.785156 111.839844 435.785156 109.679688 435.785156 109.050781 C 435.785156 104.550781 438.484375 101.671875 441.8125 101.671875 C 445.953125 101.671875 447.84375 105.628906 447.753906 109.589844 M 440.105469 143.160156 C 448.113281 145.230469 448.203125 145.230469 449.285156 146.128906 C 450.183594 146.761719 451.085938 147.75 451.085938 149.640625 C 451.085938 152.339844 448.835938 155.128906 442.894531 155.128906 C 436.234375 155.128906 433.984375 151.351562 433.984375 148.199219 C 433.984375 145.230469 435.515625 143.519531 436.59375 142.261719 Z M 497.796875 130.648438 C 496.265625 131.101562 495.183594 131.460938 493.65625 131.460938 C 489.066406 131.460938 488.707031 128.578125 488.523438 127.230469 C 488.253906 124.890625 488.253906 119.941406 488.34375 116.339844 L 488.523438 103.648438 L 496.625 104.011719 L 497.164062 103.46875 L 498.066406 93.839844 L 497.523438 93.300781 L 488.523438 93.300781 L 488.796875 78.179688 L 488.164062 77.640625 C 482.046875 79.441406 480.425781 79.890625 474.035156 81.511719 L 473.675781 82.140625 L 473.765625 93.390625 L 468.90625 93.210938 L 468.367188 93.660156 L 467.554688 103.289062 L 468.09375 103.828125 L 473.765625 103.648438 L 473.496094 117.960938 C 473.40625 120.210938 473.316406 122.460938 473.316406 124.800781 C 473.316406 133.078125 473.496094 141.988281 487.535156 141.988281 C 491.046875 141.988281 493.835938 141.449219 496.984375 140.910156 L 497.617188 140.28125 L 498.515625 131.011719 Z M 550.265625 117.058594 C 550.265625 113.550781 550.265625 98.96875 537.664062 94.019531 C 533.703125 92.488281 529.023438 92.308594 526.683594 92.308594 C 511.023438 92.308594 502.203125 100.679688 502.203125 117.238281 C 502.203125 123 503.105469 128.851562 506.433594 133.710938 C 508.773438 137.21875 513.183594 142.078125 526.054688 142.078125 C 545.132812 142.078125 550.265625 130.558594 550.265625 117.058594 M 534.695312 116.96875 C 534.695312 124.351562 533.703125 132.539062 526.234375 132.539062 C 523.894531 132.539062 522.273438 131.460938 521.195312 130.46875 C 519.664062 128.941406 517.953125 125.878906 517.953125 117.148438 C 517.953125 114.539062 517.953125 108.78125 519.753906 105.628906 C 521.105469 103.199219 523.445312 101.578125 526.324219 101.578125 C 528.84375 101.578125 530.914062 102.929688 532.085938 104.371094 C 534.246094 106.980469 534.695312 112.109375 534.695312 116.96875 Z M 602.914062 140.371094 C 602.464844 132.449219 602.464844 129.929688 602.285156 121.109375 L 602.285156 114.089844 C 602.195312 105.449219 602.105469 101.308594 599.855469 97.621094 C 597.0625 92.941406 591.933594 92.21875 588.695312 92.21875 C 583.203125 92.21875 578.433594 95.101562 574.292969 97.53125 L 574.472656 92.578125 L 573.574219 91.949219 C 566.644531 93.390625 565.113281 93.660156 558.363281 94.558594 L 557.824219 95.191406 C 558.542969 103.019531 559.085938 108.691406 559.085938 123.359375 C 559.085938 129.121094 558.992188 134.878906 558.902344 140.640625 L 559.445312 141.179688 C 565.925781 140.910156 567.273438 140.910156 574.472656 140.910156 L 575.015625 140.371094 C 574.472656 126.511719 574.382812 123 574.292969 106.890625 C 576.183594 105.628906 578.34375 104.101562 581.222656 104.101562 C 586.175781 104.101562 586.625 109.410156 586.894531 112.648438 C 587.074219 115.621094 587.164062 127.949219 587.164062 131.371094 C 587.164062 134.429688 587.074219 137.578125 587.074219 140.640625 L 587.613281 141.179688 C 593.554688 141 595.085938 140.910156 602.285156 140.910156 Z M 665.464844 102.300781 C 657.90625 99.148438 653.945312 97.53125 653.945312 93.480469 C 653.945312 90.691406 656.554688 87.179688 662.496094 87.179688 C 669.335938 87.179688 673.382812 89.96875 676.714844 92.21875 L 677.523438 91.859375 L 678.246094 80.070312 L 677.792969 79.441406 C 673.925781 77.820312 669.875 76.109375 661.144531 76.109375 C 644.226562 76.109375 638.375 85.648438 638.375 95.28125 C 638.375 106.171875 646.835938 110.128906 651.875 112.558594 L 654.84375 113.910156 C 661.054688 116.519531 665.824219 118.769531 665.824219 123.539062 C 665.824219 126.960938 662.855469 131.011719 655.023438 131.011719 C 646.835938 131.011719 642.246094 127.410156 639.632812 125.339844 L 638.734375 125.609375 L 638.105469 138.300781 L 638.644531 139.019531 C 639.632812 139.378906 640.625 139.828125 641.613281 140.101562 C 643.683594 140.820312 648.996094 142.351562 655.746094 142.351562 C 658.445312 142.351562 665.285156 142.078125 670.683594 139.558594 C 678.246094 135.871094 681.484375 129.03125 681.484375 121.378906 C 681.484375 116.25 679.503906 110.761719 674.734375 107.070312 C 672.304688 105.269531 669.964844 104.191406 667.804688 103.199219 Z M 715.238281 130.648438 C 713.707031 131.101562 712.625 131.460938 711.097656 131.460938 C 706.507812 131.460938 706.148438 128.578125 705.964844 127.230469 C 705.695312 124.890625 705.695312 119.941406 705.785156 116.339844 L 705.964844 103.648438 L 714.066406 104.011719 L 714.605469 103.46875 L 715.507812 93.839844 L 714.964844 93.300781 L 705.964844 93.300781 L 706.238281 78.179688 L 705.605469 77.640625 C 699.488281 79.441406 697.867188 79.890625 691.476562 81.511719 L 691.117188 82.140625 L 691.207031 93.390625 L 686.347656 93.210938 L 685.808594 93.660156 L 684.996094 103.289062 L 685.535156 103.828125 L 691.207031 103.648438 L 690.9375 117.960938 C 690.847656 120.210938 690.757812 122.460938 690.757812 124.800781 C 690.757812 133.078125 690.9375 141.988281 704.976562 141.988281 C 708.488281 141.988281 711.277344 141.449219 714.425781 140.910156 L 715.058594 140.28125 L 715.957031 131.011719 Z M 761.945312 114.179688 C 762.035156 106.078125 762.035156 102.570312 759.695312 98.789062 C 757.894531 95.910156 754.296875 92.308594 742.777344 92.308594 C 735.035156 92.308594 730.265625 93.75 725.136719 95.28125 L 724.597656 96 L 724.144531 105.808594 L 724.867188 106.171875 C 728.015625 104.910156 733.867188 102.570312 739.894531 102.570312 C 743.226562 102.570312 744.574219 103.109375 745.746094 104.28125 C 746.644531 105.179688 746.917969 106.800781 746.917969 108.148438 C 736.117188 109.589844 731.074219 110.578125 725.675781 113.910156 C 720.636719 117.058594 718.925781 122.191406 718.925781 126.238281 C 718.925781 135.871094 725.855469 142.078125 734.675781 142.078125 C 741.425781 142.078125 745.296875 138.839844 747.1875 137.308594 L 747.1875 140.640625 L 747.726562 141.269531 C 754.207031 141 756.1875 140.910156 762.035156 141 L 762.484375 140.371094 C 761.855469 131.550781 761.855469 129.300781 761.855469 120.839844 L 761.945312 114.179688 M 747.097656 128.488281 C 745.207031 129.570312 742.777344 130.828125 739.804688 130.828125 C 736.566406 130.828125 733.867188 129.121094 733.867188 125.339844 C 733.867188 119.398438 740.976562 118.410156 747.097656 117.601562 Z M 797.675781 130.648438 C 796.144531 131.101562 795.0625 131.460938 793.535156 131.460938 C 788.945312 131.460938 788.585938 128.578125 788.402344 127.230469 C 788.132812 124.890625 788.132812 119.941406 788.222656 116.339844 L 788.402344 103.648438 L 796.503906 104.011719 L 797.042969 103.46875 L 797.945312 93.839844 L 797.402344 93.300781 L 788.402344 93.300781 L 788.675781 78.179688 L 788.042969 77.640625 C 781.925781 79.441406 780.304688 79.890625 773.914062 81.511719 L 773.554688 82.140625 L 773.644531 93.390625 L 768.785156 93.210938 L 768.246094 93.660156 L 767.433594 103.289062 L 767.972656 103.828125 L 773.644531 103.648438 L 773.375 117.960938 C 773.285156 120.210938 773.195312 122.460938 773.195312 124.800781 C 773.195312 133.078125 773.375 141.988281 787.414062 141.988281 C 790.925781 141.988281 793.714844 141.449219 796.863281 140.910156 L 797.496094 140.28125 L 798.394531 131.011719 Z M 844.296875 127.679688 C 840.878906 129.480469 836.828125 131.550781 830.257812 131.550781 C 824.859375 131.550781 821.167969 129.839844 819.007812 126.601562 C 817.65625 124.710938 817.386719 122.910156 817.027344 121.109375 L 846.097656 120.570312 L 846.636719 119.941406 C 846.546875 115.53125 846.457031 111.03125 845.199219 106.53125 C 842.046875 95.910156 835.117188 93.75 832.058594 93.03125 C 829.808594 92.398438 827.738281 92.21875 825.667969 92.21875 C 811.539062 92.21875 802.175781 101.488281 802.175781 117.058594 C 802.175781 121.289062 802.898438 125.699219 804.335938 128.851562 C 809.558594 141 821.796875 142.078125 828.277344 142.078125 C 835.746094 142.078125 838.988281 140.730469 843.757812 138.839844 L 844.296875 138.121094 L 844.925781 127.949219 L 844.296875 127.679688 M 817.027344 111.570312 C 817.296875 108.78125 817.925781 105 821.347656 102.839844 C 822.425781 102.121094 823.6875 101.851562 824.949219 101.851562 C 827.917969 101.851562 829.71875 103.378906 830.707031 105 C 831.96875 106.980469 832.058594 109.140625 832.058594 111.210938 Z M 849.515625 141 "/>
<path fill-rule="nonzero" fill="rgb(34.901961%, 14.901961%, 14.901961%)" fill-opacity="1" d="M 385.519531 261 C 393.890625 261.179688 404.238281 261.359375 410.988281 256.679688 C 416.929688 252.449219 418.550781 246.511719 418.550781 241.46875 C 418.550781 235.710938 416.117188 230.398438 410.988281 227.878906 C 409.277344 226.980469 407.300781 226.621094 405.410156 226.261719 C 408.46875 225 412.070312 223.378906 414.410156 218.609375 C 415.398438 216.539062 415.847656 214.378906 415.847656 212.308594 C 415.847656 209.429688 415.128906 205.46875 412.25 202.230469 C 408.46875 198.179688 402.617188 197.101562 393.800781 197.101562 C 390.738281 197.101562 385.25 197.191406 382.1875 197.28125 L 369.589844 197.460938 L 369.050781 198 C 369.410156 206.640625 369.5 209.96875 369.5 222.390625 C 369.5 235.171875 369.410156 247.859375 369.230469 260.640625 L 369.859375 261 L 385.519531 261 M 384.890625 233.640625 C 391.730469 233.460938 395.6875 233.460938 398.300781 234.988281 C 400.910156 236.609375 401.898438 239.488281 401.898438 242.371094 C 401.898438 246.421875 399.648438 248.941406 396.320312 250.109375 C 393.617188 251.011719 388.757812 251.011719 384.890625 250.921875 L 384.890625 233.640625 M 384.890625 207.179688 C 386.777344 207.179688 389.300781 207.089844 390.828125 207.089844 C 395.6875 207.089844 400.097656 208.800781 400.097656 214.648438 C 400.097656 219.421875 396.589844 221.398438 395.507812 221.941406 C 393.257812 222.929688 388.488281 222.929688 384.890625 222.929688 Z M 466.878906 247.679688 C 463.460938 249.480469 459.410156 251.550781 452.839844 251.550781 C 447.441406 251.550781 443.75 249.839844 441.589844 246.601562 C 440.238281 244.710938 439.96875 242.910156 439.609375 241.109375 L 468.679688 240.570312 L 469.21875 239.941406 C 469.128906 235.53125 469.039062 231.03125 467.78125 226.53125 C 464.628906 215.910156 457.699219 213.75 454.640625 213.03125 C 452.390625 212.398438 450.320312 212.21875 448.25 212.21875 C 434.121094 212.21875 424.757812 221.488281 424.757812 237.058594 C 424.757812 241.289062 425.480469 245.699219 426.917969 248.851562 C 432.140625 261 444.378906 262.078125 450.859375 262.078125 C 458.328125 262.078125 461.570312 260.730469 466.339844 258.839844 L 466.878906 258.121094 L 467.507812 247.949219 L 466.878906 247.679688 M 439.609375 231.570312 C 439.878906 228.78125 440.507812 225 443.929688 222.839844 C 445.007812 222.121094 446.269531 221.851562 447.53125 221.851562 C 450.5 221.851562 452.300781 223.378906 453.289062 225 C 454.550781 226.980469 454.640625 229.140625 454.640625 231.210938 Z M 517.546875 234.179688 C 517.636719 226.078125 517.636719 222.570312 515.296875 218.789062 C 513.496094 215.910156 509.898438 212.308594 498.378906 212.308594 C 490.636719 212.308594 485.867188 213.75 480.738281 215.28125 L 480.199219 216 L 479.746094 225.808594 L 480.46875 226.171875 C 483.617188 224.910156 489.46875 222.570312 495.496094 222.570312 C 498.828125 222.570312 500.175781 223.109375 501.347656 224.28125 C 502.246094 225.179688 502.519531 226.800781 502.519531 228.148438 C 491.71875 229.589844 486.675781 230.578125 481.277344 233.910156 C 476.238281 237.058594 474.527344 242.191406 474.527344 246.238281 C 474.527344 255.871094 481.457031 262.078125 490.277344 262.078125 C 497.027344 262.078125 500.898438 258.839844 502.789062 257.308594 L 502.789062 260.640625 L 503.328125 261.269531 C 509.808594 261 511.789062 260.910156 517.636719 261 L 518.085938 260.371094 C 517.457031 251.550781 517.457031 249.300781 517.457031 240.839844 L 517.546875 234.179688 M 502.699219 248.488281 C 500.808594 249.570312 498.378906 250.828125 495.40625 250.828125 C 492.167969 250.828125 489.46875 249.121094 489.46875 245.339844 C 489.46875 239.398438 496.578125 238.410156 502.699219 237.601562 Z M 563.269531 248.039062 C 560.839844 249.480469 558.5 250.921875 553.910156 250.921875 C 543.738281 250.921875 541.667969 242.460938 541.667969 237.058594 C 541.667969 230.488281 544.550781 222.929688 553.28125 222.929688 C 557.238281 222.929688 559.398438 224.371094 562.101562 226.171875 L 563 225.898438 C 563.359375 221.128906 563.449219 219.871094 564.167969 215.101562 L 563.71875 214.558594 C 559.757812 213.300781 556.339844 212.21875 551.121094 212.21875 C 529.96875 212.21875 525.828125 228.238281 525.828125 237.421875 C 525.828125 247.769531 531.230469 261.808594 551.480469 261.808594 C 556.25 261.808594 559.308594 260.910156 563.089844 259.828125 L 563.628906 259.289062 L 563.988281 248.488281 Z M 615.289062 260.371094 C 614.929688 252.988281 614.839844 250.46875 614.660156 241.109375 L 614.660156 234.359375 C 614.570312 225.808594 614.480469 220.859375 611.867188 217.078125 C 609.257812 213.390625 605.480469 212.21875 601.519531 212.21875 C 594.949219 212.21875 589.820312 215.371094 586.21875 217.53125 L 586.488281 189.808594 L 585.949219 189.179688 L 570.558594 191.609375 L 570.109375 192.148438 C 570.917969 200.878906 571.097656 204.121094 571.277344 215.730469 C 571.460938 223.019531 571.550781 230.308594 571.550781 237.601562 C 571.550781 246.511719 571.367188 251.820312 571.1875 260.640625 L 571.640625 261.269531 C 578.300781 260.910156 579.648438 260.910156 586.9375 260.910156 L 587.480469 260.371094 C 586.847656 246.871094 586.757812 242.820312 586.667969 226.890625 C 588.378906 225.71875 590.539062 224.191406 593.597656 224.191406 C 598.550781 224.191406 598.910156 229.320312 599.269531 232.921875 C 599.449219 235.710938 599.539062 248.488281 599.539062 251.820312 C 599.539062 254.789062 599.449219 257.671875 599.449219 260.640625 L 599.898438 261.269531 C 606.378906 260.910156 607.820312 260.910156 614.75 260.910156 Z M 620.148438 261 "/>
</svg>
