<?xml version="1.0" encoding="UTF-8"?>
<svg xmlns="http://www.w3.org/2000/svg" xmlns:xlink="http://www.w3.org/1999/xlink" width="975" height="1300" viewBox="0 0 975 1300">
<path fill-rule="nonzero" fill="rgb(98.823529%, 78.823529%, 9.019608%)" fill-opacity="1" d="M 50 50 L 925 50 L 925 290 L 50 290 Z M 50 50 "/>
<path fill-rule="nonzero" fill="rgb(34.901961%, 14.901961%, 14.901961%)" fill-opacity="1" d="M 192.289062 124.890625 C 190.21875 126.511719 185.628906 129.929688 178.160156 129.929688 C 167.898438 129.929688 160.699219 122.28125 160.699219 109.5 C 160.699219 101.761719 163.398438 88.171875 178.070312 88.171875 C 184.820312 88.171875 188.507812 90.78125 190.757812 92.488281 L 191.570312 92.308594 L 192.378906 79.890625 L 192.019531 79.441406 C 188.78125 78.179688 183.289062 76.109375 175.371094 76.109375 C 152.058594 76.109375 143.960938 94.109375 143.960938 109.859375 C 143.960938 127.140625 154.488281 142.351562 176.449219 142.351562 C 184.007812 142.351562 188.960938 140.371094 191.839844 139.199219 L 192.289062 138.660156 L 192.917969 125.25 Z M 244.039062 140.371094 C 243.679688 132.988281 243.589844 130.46875 243.410156 121.109375 L 243.410156 114.359375 C 243.320312 105.808594 243.230469 100.859375 240.617188 97.078125 C 238.007812 93.390625 234.230469 92.21875 230.269531 92.21875 C 223.699219 92.21875 218.570312 95.371094 214.96875 97.53125 L 215.238281 69.808594 L 214.699219 69.179688 L 199.308594 71.609375 L 198.859375 72.148438 C 199.667969 80.878906 199.847656 84.121094 200.027344 95.730469 C 200.210938 103.019531 200.300781 110.308594 200.300781 117.601562 C 200.300781 126.511719 200.117188 131.820312 199.9375 140.640625 L 200.390625 141.269531 C 207.050781 140.910156 208.398438 140.910156 215.6875 140.910156 L 216.230469 140.371094 C 215.597656 126.871094 215.507812 122.820312 215.417969 106.890625 C 217.128906 105.71875 219.289062 104.191406 222.347656 104.191406 C 227.300781 104.191406 227.660156 109.320312 228.019531 112.921875 C 228.199219 115.710938 228.289062 128.488281 228.289062 131.820312 C 228.289062 134.789062 228.199219 137.671875 228.199219 140.640625 L 228.648438 141.269531 C 235.128906 140.910156 236.570312 140.910156 243.5 140.910156 Z M 270.589844 140.371094 C 270.136719 133.441406 269.777344 128.128906 269.777344 115.710938 C 269.777344 108.058594 269.957031 100.320312 270.046875 92.671875 L 269.417969 91.949219 L 253.9375 94.648438 L 253.398438 95.191406 C 254.117188 102.03125 254.386719 105.179688 254.386719 117.960938 C 254.386719 127.769531 254.117188 133.261719 253.847656 140.640625 L 254.386719 141.269531 C 260.867188 141 262.667969 140.910156 269.957031 141 L 270.589844 140.371094 M 269.148438 83.308594 L 269.417969 71.070312 L 268.878906 70.53125 L 254.207031 72.328125 L 253.667969 72.960938 C 253.847656 76.199219 253.9375 78.089844 253.9375 80.25 C 253.9375 81.960938 253.9375 83.761719 253.847656 85.46875 L 254.476562 86.011719 C 260.597656 84.929688 262.308594 84.75 268.699219 83.941406 Z M 324.679688 140.371094 C 324.230469 132.449219 324.230469 129.929688 324.050781 121.109375 L 324.050781 114.089844 C 323.960938 105.449219 323.871094 101.308594 321.621094 97.621094 C 318.828125 92.941406 313.699219 92.21875 310.460938 92.21875 C 304.96875 92.21875 300.199219 95.101562 296.058594 97.53125 L 296.238281 92.578125 L 295.339844 91.949219 C 288.410156 93.390625 286.878906 93.660156 280.128906 94.558594 L 279.589844 95.191406 C 280.308594 103.019531 280.851562 108.691406 280.851562 123.359375 C 280.851562 129.121094 280.757812 134.878906 280.667969 140.640625 L 281.210938 141.179688 C 287.691406 140.910156 289.039062 140.910156 296.238281 140.910156 L 296.78125 140.371094 C 296.238281 126.511719 296.148438 123 296.058594 106.890625 C 297.949219 105.628906 300.109375 104.101562 302.988281 104.101562 C 307.941406 104.101562 308.390625 109.410156 308.660156 112.648438 C 308.839844 115.621094 308.929688 127.949219 308.929688 131.371094 C 308.929688 134.429688 308.839844 137.578125 308.839844 140.640625 L 309.378906 141.179688 C 315.320312 141 316.851562 140.910156 324.050781 140.910156 Z M 380.75 117.058594 C 380.75 113.550781 380.75 98.96875 368.148438 94.019531 C 364.1875 92.488281 359.507812 92.308594 357.167969 92.308594 C 341.507812 92.308594 332.6875 100.679688 332.6875 117.238281 C 332.6875 123 333.589844 128.851562 336.917969 133.710938 C 339.257812 137.21875 343.667969 142.078125 356.539062 142.078125 C 375.617188 142.078125 380.75 130.558594 380.75 117.058594 M 365.179688 116.96875 C 365.179688 124.351562 364.1875 132.539062 356.71875 132.539062 C 354.378906 132.539062 352.757812 131.460938 351.679688 130.46875 C 350.148438 128.941406 348.4375 125.878906 348.4375 117.148438 C 348.4375 114.539062 348.4375 108.78125 350.238281 105.628906 C 351.589844 103.199219 353.929688 101.578125 356.808594 101.578125 C 359.328125 101.578125 361.398438 102.929688 362.570312 104.371094 C 364.730469 106.980469 365.179688 112.109375 365.179688 116.96875 Z M 469.488281 77.191406 C 462.289062 77.460938 461.121094 77.460938 453.558594 77.460938 L 453.109375 78 C 453.738281 88.171875 453.738281 90.78125 453.828125 101.398438 C 449.871094 101.488281 445.910156 101.578125 441.859375 101.578125 C 438.710938 101.578125 435.46875 101.488281 432.320312 101.488281 L 432.5 77.730469 L 432.050781 77.191406 C 425.121094 77.460938 423.769531 77.460938 415.941406 77.460938 L 415.398438 78 C 415.851562 87.269531 416.390625 98.339844 416.390625 120.660156 C 416.390625 128.761719 416.210938 133.171875 416.03125 140.730469 L 416.480469 141.269531 C 423.050781 141 424.667969 140.910156 432.589844 141 L 433.039062 140.460938 C 432.5 129.300781 432.410156 126.058594 432.320312 113.011719 C 436.28125 112.828125 439.609375 112.738281 443.121094 112.738281 C 446.71875 112.738281 450.320312 112.828125 453.917969 112.921875 C 454.101562 125.070312 454.101562 128.039062 453.648438 140.730469 L 454.101562 141.269531 C 460.851562 141 462.648438 140.910156 470.300781 141 L 470.75 140.460938 C 470.03125 125.339844 469.757812 110.308594 469.757812 95.191406 C 469.757812 88.890625 469.851562 84.660156 469.941406 77.730469 Z M 497.480469 140.371094 C 497.027344 133.441406 496.667969 128.128906 496.667969 115.710938 C 496.667969 108.058594 496.847656 100.320312 496.9375 92.671875 L 496.308594 91.949219 L 480.828125 94.648438 L 480.289062 95.191406 C 481.007812 102.03125 481.277344 105.179688 481.277344 117.960938 C 481.277344 127.769531 481.007812 133.261719 480.738281 140.640625 L 481.277344 141.269531 C 487.757812 141 489.558594 140.910156 496.847656 141 L 497.480469 140.371094 M 496.039062 83.308594 L 496.308594 71.070312 L 495.769531 70.53125 L 481.097656 72.328125 L 480.558594 72.960938 C 480.738281 76.199219 480.828125 78.089844 480.828125 80.25 C 480.828125 81.960938 480.828125 83.761719 480.738281 85.46875 L 481.367188 86.011719 C 487.488281 84.929688 489.199219 84.75 495.589844 83.941406 Z M 523.308594 140.371094 C 522.859375 130.019531 522.410156 120.570312 522.410156 92.128906 C 522.410156 83.578125 522.5 79.53125 522.859375 69.808594 L 522.230469 69.179688 L 506.839844 71.609375 L 506.480469 72.148438 C 507.378906 83.128906 507.46875 86.101562 507.648438 100.679688 C 507.742188 105.988281 507.742188 111.300781 507.742188 116.609375 C 507.742188 126.328125 507.558594 131.730469 507.199219 140.640625 L 507.742188 141.269531 C 513.769531 141 516.199219 140.910156 522.769531 141 Z M 549.589844 140.371094 C 549.140625 130.019531 548.691406 120.570312 548.691406 92.128906 C 548.691406 83.578125 548.78125 79.53125 549.140625 69.808594 L 548.511719 69.179688 L 533.121094 71.609375 L 532.761719 72.148438 C 533.660156 83.128906 533.75 86.101562 533.929688 100.679688 C 534.023438 105.988281 534.023438 111.300781 534.023438 116.609375 C 534.023438 126.328125 533.839844 131.730469 533.480469 140.640625 L 534.023438 141.269531 C 540.050781 141 542.480469 140.910156 549.050781 141 Z M 578.929688 109.949219 C 575.867188 108.871094 573.4375 107.878906 573.4375 105.359375 C 573.4375 104.28125 574.160156 101.308594 579.738281 101.308594 C 585.230469 101.308594 588.738281 103.648438 590.988281 105.089844 L 591.800781 104.820312 L 592.699219 95.011719 L 592.25 94.46875 C 588.019531 93.300781 584.328125 92.21875 578.480469 92.21875 C 574.070312 92.21875 565.25 92.578125 560.570312 99.328125 C 559.398438 100.949219 558.140625 103.648438 558.140625 107.25 C 558.140625 116.878906 565.609375 119.761719 569.839844 121.378906 L 573.257812 122.640625 C 575.6875 123.449219 579.648438 124.800781 579.648438 128.039062 C 579.648438 130.289062 577.578125 132.71875 572.539062 132.71875 C 570.019531 132.71875 566.328125 131.910156 563 130.199219 C 561.46875 129.390625 560.75 128.761719 559.398438 127.679688 L 558.589844 128.039062 C 558.410156 132.71875 558.320312 133.710938 557.957031 138.210938 L 558.410156 139.019531 C 562.820312 140.640625 566.597656 142.078125 573.167969 142.078125 C 580.007812 142.078125 593.507812 140.820312 595.128906 127.949219 C 595.21875 127.230469 595.21875 126.601562 595.21875 125.96875 C 595.21875 116.070312 588.289062 113.460938 583.339844 111.570312 Z M 655.429688 102.300781 C 647.871094 99.148438 643.910156 97.53125 643.910156 93.480469 C 643.910156 90.691406 646.519531 87.179688 652.460938 87.179688 C 659.300781 87.179688 663.347656 89.96875 666.679688 92.21875 L 667.488281 91.859375 L 668.210938 80.070312 L 667.757812 79.441406 C 663.890625 77.820312 659.839844 76.109375 651.109375 76.109375 C 634.191406 76.109375 628.339844 85.648438 628.339844 95.28125 C 628.339844 106.171875 636.800781 110.128906 641.839844 112.558594 L 644.808594 113.910156 C 651.019531 116.519531 655.789062 118.769531 655.789062 123.539062 C 655.789062 126.960938 652.820312 131.011719 644.988281 131.011719 C 636.800781 131.011719 632.210938 127.410156 629.597656 125.339844 L 628.699219 125.609375 L 628.070312 138.300781 L 628.609375 139.019531 C 629.597656 139.378906 630.589844 139.828125 631.578125 140.101562 C 633.648438 140.820312 638.960938 142.351562 645.710938 142.351562 C 648.410156 142.351562 655.25 142.078125 660.648438 139.558594 C 668.210938 135.871094 671.449219 129.03125 671.449219 121.378906 C 671.449219 116.25 669.46875 110.761719 664.699219 107.070312 C 662.269531 105.269531 659.929688 104.191406 657.769531 103.199219 Z M 705.203125 130.648438 C 703.671875 131.101562 702.589844 131.460938 701.0625 131.460938 C 696.472656 131.460938 696.113281 128.578125 695.929688 127.230469 C 695.660156 124.890625 695.660156 119.941406 695.75 116.339844 L 695.929688 103.648438 L 704.03125 104.011719 L 704.570312 103.46875 L 705.472656 93.839844 L 704.929688 93.300781 L 695.929688 93.300781 L 696.203125 78.179688 L 695.570312 77.640625 C 689.453125 79.441406 687.832031 79.890625 681.441406 81.511719 L 681.082031 82.140625 L 681.171875 93.390625 L 676.3125 93.210938 L 675.773438 93.660156 L 674.960938 103.289062 L 675.5 103.828125 L 681.171875 103.648438 L 680.902344 117.960938 C 680.8125 120.210938 680.722656 122.460938 680.722656 124.800781 C 680.722656 133.078125 680.902344 141.988281 694.941406 141.988281 C 698.453125 141.988281 701.242188 141.449219 704.390625 140.910156 L 705.023438 140.28125 L 705.921875 131.011719 Z M 751.910156 114.179688 C 752 106.078125 752 102.570312 749.660156 98.789062 C 747.859375 95.910156 744.261719 92.308594 732.742188 92.308594 C 725 92.308594 720.230469 93.75 715.101562 95.28125 L 714.5625 96 L 714.109375 105.808594 L 714.832031 106.171875 C 717.980469 104.910156 723.832031 102.570312 729.859375 102.570312 C 733.191406 102.570312 734.539062 103.109375 735.710938 104.28125 C 736.609375 105.179688 736.882812 106.800781 736.882812 108.148438 C 726.082031 109.589844 721.039062 110.578125 715.640625 113.910156 C 710.601562 117.058594 708.890625 122.191406 708.890625 126.238281 C 708.890625 135.871094 715.820312 142.078125 724.640625 142.078125 C 731.390625 142.078125 735.261719 138.839844 737.152344 137.308594 L 737.152344 140.640625 L 737.691406 141.269531 C 744.171875 141 746.152344 140.910156 752 141 L 752.449219 140.371094 C 751.820312 131.550781 751.820312 129.300781 751.820312 120.839844 L 751.910156 114.179688 M 737.0625 128.488281 C 735.171875 129.570312 732.742188 130.828125 729.769531 130.828125 C 726.53125 130.828125 723.832031 129.121094 723.832031 125.339844 C 723.832031 119.398438 730.941406 118.410156 737.0625 117.601562 Z M 787.640625 130.648438 C 786.109375 131.101562 785.027344 131.460938 783.5 131.460938 C 778.910156 131.460938 778.550781 128.578125 778.367188 127.230469 C 778.097656 124.890625 778.097656 119.941406 778.1875 116.339844 L 778.367188 103.648438 L 786.46875 104.011719 L 787.007812 103.46875 L 787.910156 93.839844 L 787.367188 93.300781 L 778.367188 93.300781 L 778.640625 78.179688 L 778.007812 77.640625 C 771.890625 79.441406 770.269531 79.890625 763.878906 81.511719 L 763.519531 82.140625 L 763.609375 93.390625 L 758.75 93.210938 L 758.210938 93.660156 L 757.398438 103.289062 L 757.9375 103.828125 L 763.609375 103.648438 L 763.339844 117.960938 C 763.25 120.210938 763.160156 122.460938 763.160156 124.800781 C 763.160156 133.078125 763.339844 141.988281 777.378906 141.988281 C 780.890625 141.988281 783.679688 141.449219 786.828125 140.910156 L 787.460938 140.28125 L 788.359375 131.011719 Z M 834.257812 127.679688 C 830.839844 129.480469 826.789062 131.550781 820.21875 131.550781 C 814.820312 131.550781 811.128906 129.839844 808.96875 126.601562 C 807.617188 124.710938 807.347656 122.910156 806.988281 121.109375 L 836.058594 120.570312 L 836.597656 119.941406 C 836.507812 115.53125 836.417969 111.03125 835.160156 106.53125 C 832.007812 95.910156 825.078125 93.75 822.019531 93.03125 C 819.769531 92.398438 817.699219 92.21875 815.628906 92.21875 C 801.5 92.21875 792.136719 101.488281 792.136719 117.058594 C 792.136719 121.289062 792.859375 125.699219 794.296875 128.851562 C 799.519531 141 811.757812 142.078125 818.238281 142.078125 C 825.707031 142.078125 828.949219 140.730469 833.71875 138.839844 L 834.257812 138.121094 L 834.886719 127.949219 L 834.257812 127.679688 M 806.988281 111.570312 C 807.257812 108.78125 807.886719 105 811.308594 102.839844 C 812.386719 102.121094 813.648438 101.851562 814.910156 101.851562 C 817.878906 101.851562 819.679688 103.378906 820.667969 105 C 821.929688 106.980469 822.019531 109.140625 822.019531 111.210938 Z M 839.480469 141 "/>
<path fill-rule="nonzero" fill="rgb(34.901961%, 14.901961%, 14.901961%)" fill-opacity="1" d="M 411.53125 197.28125 L 400.101562 197.460938 L 399.558594 198 C 399.921875 209.699219 400.191406 217.53125 400.191406 227.878906 C 400.191406 238.859375 399.921875 249.75 399.648438 260.730469 L 400.191406 261.269531 C 406.851562 261 408.289062 260.910156 415.492188 261 L 415.941406 260.460938 C 415.582031 250.648438 415.582031 248.398438 415.582031 239.21875 C 425.660156 239.308594 436.460938 239.308594 442.941406 231.390625 C 445.460938 228.328125 447.621094 223.199219 447.621094 216.898438 C 447.621094 213.03125 446.71875 204.480469 439.25 200.25 C 433.851562 197.101562 426.199219 197.101562 419.449219 197.101562 L 411.53125 197.28125 M 415.582031 208.171875 C 417.558594 208.078125 419.449219 208.078125 421.429688 208.078125 C 429.351562 208.261719 431.511719 212.308594 431.511719 217.53125 C 431.511719 218.789062 431.511719 224.011719 426.742188 226.621094 C 424.308594 227.96875 420.980469 228.148438 415.582031 228.148438 Z M 493.878906 234.179688 C 493.96875 226.078125 493.96875 222.570312 491.628906 218.789062 C 489.828125 215.910156 486.230469 212.308594 474.710938 212.308594 C 466.96875 212.308594 462.199219 213.75 457.070312 215.28125 L 456.53125 216 L 456.078125 225.808594 L 456.800781 226.171875 C 459.949219 224.910156 465.800781 222.570312 471.828125 222.570312 C 475.160156 222.570312 476.507812 223.109375 477.679688 224.28125 C 478.578125 225.179688 478.851562 226.800781 478.851562 228.148438 C 468.050781 229.589844 463.007812 230.578125 457.609375 233.910156 C 452.570312 237.058594 450.859375 242.191406 450.859375 246.238281 C 450.859375 255.871094 457.789062 262.078125 466.609375 262.078125 C 473.359375 262.078125 477.230469 258.839844 479.121094 257.308594 L 479.121094 260.640625 L 479.660156 261.269531 C 486.140625 261 488.121094 260.910156 493.96875 261 L 494.417969 260.371094 C 493.789062 251.550781 493.789062 249.300781 493.789062 240.839844 L 493.878906 234.179688 M 479.03125 248.488281 C 477.140625 249.570312 474.710938 250.828125 471.738281 250.828125 C 468.5 250.828125 465.800781 249.121094 465.800781 245.339844 C 465.800781 239.398438 472.910156 238.410156 479.03125 237.601562 Z M 530.421875 227.609375 L 532.941406 212.941406 L 532.402344 212.308594 C 531.773438 212.308594 531.140625 212.21875 530.511719 212.21875 C 526.820312 212.21875 522.683594 214.289062 519.800781 220.949219 L 520.070312 212.671875 L 519.351562 211.949219 C 512.691406 213.390625 510.980469 213.660156 504.410156 214.648438 L 503.871094 215.191406 C 504.410156 221.941406 504.683594 225.988281 504.683594 238.5 C 504.683594 245.878906 504.589844 253.261719 504.410156 260.730469 L 504.953125 261.269531 C 511.613281 261 513.050781 260.910156 520.25 261 L 520.703125 260.371094 C 520.339844 253.078125 519.800781 242.910156 519.800781 236.699219 C 519.800781 232.648438 519.800781 226.710938 525.921875 226.710938 C 527.453125 226.710938 528.351562 227.25 529.613281 227.96875 Z M 584.421875 259.828125 C 575.960938 245.519531 575.0625 243.898438 568.222656 231.570312 C 574.433594 223.109375 575.0625 222.210938 581.453125 214.019531 L 581 213.121094 L 566.332031 213.300781 L 565.433594 213.929688 C 558.410156 226.078125 557.511719 227.519531 553.371094 233.730469 L 553.371094 223.738281 C 553.460938 206.910156 553.550781 203.308594 554 189.71875 L 553.28125 189.179688 L 537.621094 191.519531 L 537.082031 192.148438 C 537.710938 200.878906 537.980469 205.109375 538.160156 216.898438 C 538.339844 231.480469 538.339844 246.058594 538.25 260.640625 L 538.882812 261.269531 C 544.910156 261 546.621094 261 553.460938 261 L 554 260.371094 L 553.460938 245.160156 L 553.371094 234.808594 C 561.203125 249.210938 562.191406 251.191406 566.78125 260.730469 L 567.589844 261.269531 L 583.792969 260.640625 Z M 583.339844 261 "/>
</svg>
