<?xml version="1.0" encoding="UTF-8"?>
<svg xmlns="http://www.w3.org/2000/svg" xmlns:xlink="http://www.w3.org/1999/xlink" width="975" height="1300" viewBox="0 0 975 1300">
<path fill-rule="nonzero" fill="rgb(98.823529%, 78.823529%, 9.019608%)" fill-opacity="1" d="M 50 50 L 925 50 L 925 290 L 50 290 Z M 50 50 "/>
<path fill-rule="nonzero" fill="rgb(34.901961%, 14.901961%, 14.901961%)" fill-opacity="1" d="M 202.414062 124.890625 C 200.34375 126.511719 195.753906 129.929688 188.285156 129.929688 C 178.023438 129.929688 170.824219 122.28125 170.824219 109.5 C 170.824219 101.761719 173.523438 88.171875 188.195312 88.171875 C 194.945312 88.171875 198.632812 90.78125 200.882812 92.488281 L 201.695312 92.308594 L 202.503906 79.890625 L 202.144531 79.441406 C 198.90625 78.179688 193.414062 76.109375 185.496094 76.109375 C 162.183594 76.109375 154.085938 94.109375 154.085938 109.859375 C 154.085938 127.140625 164.613281 142.351562 186.574219 142.351562 C 194.132812 142.351562 199.085938 140.371094 201.964844 139.199219 L 202.414062 138.660156 L 203.042969 125.25 Z M 250.113281 114.179688 C 250.203125 106.078125 250.203125 102.570312 247.863281 98.789062 C 246.0625 95.910156 242.464844 92.308594 230.945312 92.308594 C 223.203125 92.308594 218.433594 93.75 213.304688 95.28125 L 212.765625 96 L 212.3125 105.808594 L 213.035156 106.171875 C 216.183594 104.910156 222.035156 102.570312 228.0625 102.570312 C 231.394531 102.570312 232.742188 103.109375 233.914062 104.28125 C 234.8125 105.179688 235.085938 106.800781 235.085938 108.148438 C 224.285156 109.589844 219.242188 110.578125 213.84375 113.910156 C 208.804688 117.058594 207.09375 122.191406 207.09375 126.238281 C 207.09375 135.871094 214.023438 142.078125 222.84375 142.078125 C 229.59375 142.078125 233.464844 138.839844 235.355469 137.308594 L 235.355469 140.640625 L 235.894531 141.269531 C 242.375 141 244.355469 140.910156 250.203125 141 L 250.652344 140.371094 C 250.023438 131.550781 250.023438 129.300781 250.023438 120.839844 L 250.113281 114.179688 M 235.265625 128.488281 C 233.375 129.570312 230.945312 130.828125 227.972656 130.828125 C 224.734375 130.828125 222.035156 129.121094 222.035156 125.339844 C 222.035156 119.398438 229.144531 118.410156 235.265625 117.601562 Z M 276.484375 140.371094 C 276.035156 130.019531 275.585938 120.570312 275.585938 92.128906 C 275.585938 83.578125 275.675781 79.53125 276.035156 69.808594 L 275.40625 69.179688 L 260.015625 71.609375 L 259.65625 72.148438 C 260.554688 83.128906 260.644531 86.101562 260.824219 100.679688 C 260.917969 105.988281 260.917969 111.300781 260.917969 116.609375 C 260.917969 126.328125 260.734375 131.730469 260.375 140.640625 L 260.917969 141.269531 C 266.945312 141 269.375 140.910156 275.945312 141 Z M 303.214844 140.371094 C 302.761719 133.441406 302.402344 128.128906 302.402344 115.710938 C 302.402344 108.058594 302.582031 100.320312 302.671875 92.671875 L 302.042969 91.949219 L 286.5625 94.648438 L 286.023438 95.191406 C 286.742188 102.03125 287.011719 105.179688 287.011719 117.960938 C 287.011719 127.769531 286.742188 133.261719 286.472656 140.640625 L 287.011719 141.269531 C 293.492188 141 295.292969 140.910156 302.582031 141 L 303.214844 140.371094 M 301.773438 83.308594 L 302.042969 71.070312 L 301.503906 70.53125 L 286.832031 72.328125 L 286.292969 72.960938 C 286.472656 76.199219 286.5625 78.089844 286.5625 80.25 C 286.5625 81.960938 286.5625 83.761719 286.472656 85.46875 L 287.101562 86.011719 C 293.222656 84.929688 294.933594 84.75 301.324219 83.941406 Z M 331.203125 140.371094 C 330.304688 123.988281 330.214844 119.578125 330.304688 103.648438 L 337.414062 104.011719 L 338.042969 103.378906 L 338.855469 93.839844 L 338.40625 93.300781 L 330.214844 93.300781 L 330.304688 91.230469 C 330.304688 85.738281 330.394531 80.699219 336.246094 80.699219 C 337.144531 80.699219 338.042969 80.878906 338.945312 80.96875 L 339.574219 80.609375 L 340.382812 70.441406 L 339.933594 69.808594 C 337.773438 69.628906 335.703125 69.539062 333.632812 69.539062 C 329.042969 69.539062 324.363281 70.078125 320.765625 72.78125 C 315.183594 76.921875 315.273438 83.398438 315.273438 87.898438 L 315.363281 93.300781 L 309.515625 93.210938 L 308.976562 93.660156 L 308.074219 103.199219 L 308.613281 103.738281 L 315.453125 103.558594 C 315.453125 120.570312 315.453125 124.621094 314.914062 140.640625 L 315.453125 141.269531 C 321.574219 141 323.914062 140.910156 330.664062 140.910156 Z M 390.875 117.058594 C 390.875 113.550781 390.875 98.96875 378.273438 94.019531 C 374.3125 92.488281 369.632812 92.308594 367.292969 92.308594 C 351.632812 92.308594 342.8125 100.679688 342.8125 117.238281 C 342.8125 123 343.714844 128.851562 347.042969 133.710938 C 349.382812 137.21875 353.792969 142.078125 366.664062 142.078125 C 385.742188 142.078125 390.875 130.558594 390.875 117.058594 M 375.304688 116.96875 C 375.304688 124.351562 374.3125 132.539062 366.84375 132.539062 C 364.503906 132.539062 362.882812 131.460938 361.804688 130.46875 C 360.273438 128.941406 358.5625 125.878906 358.5625 117.148438 C 358.5625 114.539062 358.5625 108.78125 360.363281 105.628906 C 361.714844 103.199219 364.054688 101.578125 366.933594 101.578125 C 369.453125 101.578125 371.523438 102.929688 372.695312 104.371094 C 374.855469 106.980469 375.304688 112.109375 375.304688 116.96875 Z M 425.433594 107.609375 L 427.953125 92.941406 L 427.414062 92.308594 C 426.785156 92.308594 426.152344 92.21875 425.523438 92.21875 C 421.832031 92.21875 417.695312 94.289062 414.8125 100.949219 L 415.082031 92.671875 L 414.363281 91.949219 C 407.703125 93.390625 405.992188 93.660156 399.421875 94.648438 L 398.882812 95.191406 C 399.421875 101.941406 399.695312 105.988281 399.695312 118.5 C 399.695312 125.878906 399.601562 133.261719 399.421875 140.730469 L 399.964844 141.269531 C 406.625 141 408.0625 140.910156 415.261719 141 L 415.714844 140.371094 C 415.351562 133.078125 414.8125 122.910156 414.8125 116.699219 C 414.8125 112.648438 414.8125 106.710938 420.933594 106.710938 C 422.464844 106.710938 423.363281 107.25 424.625 107.96875 Z M 477.273438 140.371094 C 476.824219 132.449219 476.824219 129.929688 476.644531 121.109375 L 476.644531 114.089844 C 476.554688 105.449219 476.464844 101.308594 474.214844 97.621094 C 471.421875 92.941406 466.292969 92.21875 463.054688 92.21875 C 457.5625 92.21875 452.792969 95.101562 448.652344 97.53125 L 448.832031 92.578125 L 447.933594 91.949219 C 441.003906 93.390625 439.472656 93.660156 432.722656 94.558594 L 432.183594 95.191406 C 432.902344 103.019531 433.445312 108.691406 433.445312 123.359375 C 433.445312 129.121094 433.351562 134.878906 433.261719 140.640625 L 433.804688 141.179688 C 440.285156 140.910156 441.632812 140.910156 448.832031 140.910156 L 449.375 140.371094 C 448.832031 126.511719 448.742188 123 448.652344 106.890625 C 450.542969 105.628906 452.703125 104.101562 455.582031 104.101562 C 460.535156 104.101562 460.984375 109.410156 461.253906 112.648438 C 461.433594 115.621094 461.523438 127.949219 461.523438 131.371094 C 461.523438 134.429688 461.433594 137.578125 461.433594 140.640625 L 461.972656 141.179688 C 467.914062 141 469.445312 140.910156 476.644531 140.910156 Z M 503.824219 140.371094 C 503.371094 133.441406 503.011719 128.128906 503.011719 115.710938 C 503.011719 108.058594 503.191406 100.320312 503.28125 92.671875 L 502.652344 91.949219 L 487.171875 94.648438 L 486.632812 95.191406 C 487.351562 102.03125 487.621094 105.179688 487.621094 117.960938 C 487.621094 127.769531 487.351562 133.261719 487.082031 140.640625 L 487.621094 141.269531 C 494.101562 141 495.902344 140.910156 503.191406 141 L 503.824219 140.371094 M 502.382812 83.308594 L 502.652344 71.070312 L 502.113281 70.53125 L 487.441406 72.328125 L 486.902344 72.960938 C 487.082031 76.199219 487.171875 78.089844 487.171875 80.25 C 487.171875 81.960938 487.171875 83.761719 487.082031 85.46875 L 487.710938 86.011719 C 493.832031 84.929688 495.542969 84.75 501.933594 83.941406 Z M 553.863281 114.179688 C 553.953125 106.078125 553.953125 102.570312 551.613281 98.789062 C 549.8125 95.910156 546.214844 92.308594 534.695312 92.308594 C 526.953125 92.308594 522.183594 93.75 517.054688 95.28125 L 516.515625 96 L 516.0625 105.808594 L 516.785156 106.171875 C 519.933594 104.910156 525.785156 102.570312 531.8125 102.570312 C 535.144531 102.570312 536.492188 103.109375 537.664062 104.28125 C 538.5625 105.179688 538.835938 106.800781 538.835938 108.148438 C 528.035156 109.589844 522.992188 110.578125 517.59375 113.910156 C 512.554688 117.058594 510.84375 122.191406 510.84375 126.238281 C 510.84375 135.871094 517.773438 142.078125 526.59375 142.078125 C 533.34375 142.078125 537.214844 138.839844 539.105469 137.308594 L 539.105469 140.640625 L 539.644531 141.269531 C 546.125 141 548.105469 140.910156 553.953125 141 L 554.402344 140.371094 C 553.773438 131.550781 553.773438 129.300781 553.773438 120.839844 L 553.863281 114.179688 M 539.015625 128.488281 C 537.125 129.570312 534.695312 130.828125 531.722656 130.828125 C 528.484375 130.828125 525.785156 129.121094 525.785156 125.339844 C 525.785156 119.398438 532.894531 118.410156 539.015625 117.601562 Z M 637.382812 124.890625 C 635.3125 126.511719 630.722656 129.929688 623.253906 129.929688 C 612.992188 129.929688 605.792969 122.28125 605.792969 109.5 C 605.792969 101.761719 608.492188 88.171875 623.164062 88.171875 C 629.914062 88.171875 633.601562 90.78125 635.851562 92.488281 L 636.664062 92.308594 L 637.472656 79.890625 L 637.113281 79.441406 C 633.875 78.179688 628.382812 76.109375 620.464844 76.109375 C 597.152344 76.109375 589.054688 94.109375 589.054688 109.859375 C 589.054688 127.140625 599.582031 142.351562 621.542969 142.351562 C 629.101562 142.351562 634.054688 140.371094 636.933594 139.199219 L 637.382812 138.660156 L 638.011719 125.25 Z M 661.324219 140.371094 C 660.871094 133.441406 660.511719 128.128906 660.511719 115.710938 C 660.511719 108.058594 660.691406 100.320312 660.78125 92.671875 L 660.152344 91.949219 L 644.671875 94.648438 L 644.132812 95.191406 C 644.851562 102.03125 645.121094 105.179688 645.121094 117.960938 C 645.121094 127.769531 644.851562 133.261719 644.582031 140.640625 L 645.121094 141.269531 C 651.601562 141 653.402344 140.910156 660.691406 141 L 661.324219 140.371094 M 659.882812 83.308594 L 660.152344 71.070312 L 659.613281 70.53125 L 644.941406 72.328125 L 644.402344 72.960938 C 644.582031 76.199219 644.671875 78.089844 644.671875 80.25 C 644.671875 81.960938 644.671875 83.761719 644.582031 85.46875 L 645.210938 86.011719 C 651.332031 84.929688 653.042969 84.75 659.433594 83.941406 Z M 696.515625 130.648438 C 694.984375 131.101562 693.902344 131.460938 692.375 131.460938 C 687.785156 131.460938 687.425781 128.578125 687.242188 127.230469 C 686.972656 124.890625 686.972656 119.941406 687.0625 116.339844 L 687.242188 103.648438 L 695.34375 104.011719 L 695.882812 103.46875 L 696.785156 93.839844 L 696.242188 93.300781 L 687.242188 93.300781 L 687.515625 78.179688 L 686.882812 77.640625 C 680.765625 79.441406 679.144531 79.890625 672.753906 81.511719 L 672.394531 82.140625 L 672.484375 93.390625 L 667.625 93.210938 L 667.085938 93.660156 L 666.273438 103.289062 L 666.8125 103.828125 L 672.484375 103.648438 L 672.214844 117.960938 C 672.125 120.210938 672.035156 122.460938 672.035156 124.800781 C 672.035156 133.078125 672.214844 141.988281 686.253906 141.988281 C 689.765625 141.988281 692.554688 141.449219 695.703125 140.910156 L 696.335938 140.28125 L 697.234375 131.011719 Z M 729.183594 107.609375 L 731.703125 92.941406 L 731.164062 92.308594 C 730.535156 92.308594 729.902344 92.21875 729.273438 92.21875 C 725.582031 92.21875 721.445312 94.289062 718.5625 100.949219 L 718.832031 92.671875 L 718.113281 91.949219 C 711.453125 93.390625 709.742188 93.660156 703.171875 94.648438 L 702.632812 95.191406 C 703.171875 101.941406 703.445312 105.988281 703.445312 118.5 C 703.445312 125.878906 703.351562 133.261719 703.171875 140.730469 L 703.714844 141.269531 C 710.375 141 711.8125 140.910156 719.011719 141 L 719.464844 140.371094 C 719.101562 133.078125 718.5625 122.910156 718.5625 116.699219 C 718.5625 112.648438 718.5625 106.710938 724.683594 106.710938 C 726.214844 106.710938 727.113281 107.25 728.375 107.96875 Z M 780.125 92.851562 L 765.453125 93.570312 L 764.824219 94.109375 C 765.453125 104.28125 765.453125 118.679688 765.453125 120.121094 C 765.453125 122.730469 765.453125 124.171875 765.363281 127.769531 C 762.933594 129.390625 761.042969 130.738281 758.613281 130.738281 C 752.132812 130.738281 752.132812 123.898438 752.132812 118.589844 C 752.132812 116.339844 752.132812 114 752.222656 111.75 L 752.402344 93.570312 L 751.773438 92.851562 L 736.921875 93.570312 L 736.292969 94.109375 C 736.832031 101.671875 736.921875 104.191406 736.921875 113.28125 L 736.921875 119.578125 C 736.832031 129.390625 737.285156 133.53125 740.523438 137.308594 C 743.492188 140.640625 747.8125 142.078125 752.3125 142.078125 C 758.703125 142.078125 762.394531 139.199219 765.632812 136.679688 L 765.542969 140.730469 L 766.171875 141.269531 C 772.742188 141 774.722656 141 780.574219 141 L 781.113281 140.460938 C 780.664062 134.070312 780.484375 130.648438 780.484375 118.949219 C 780.484375 110.488281 780.574219 102.03125 780.753906 93.570312 Z M 810.183594 109.949219 C 807.121094 108.871094 804.691406 107.878906 804.691406 105.359375 C 804.691406 104.28125 805.414062 101.308594 810.992188 101.308594 C 816.484375 101.308594 819.992188 103.648438 822.242188 105.089844 L 823.054688 104.820312 L 823.953125 95.011719 L 823.503906 94.46875 C 819.273438 93.300781 815.582031 92.21875 809.734375 92.21875 C 805.324219 92.21875 796.503906 92.578125 791.824219 99.328125 C 790.652344 100.949219 789.394531 103.648438 789.394531 107.25 C 789.394531 116.878906 796.863281 119.761719 801.09375 121.378906 L 804.511719 122.640625 C 806.941406 123.449219 810.902344 124.800781 810.902344 128.039062 C 810.902344 130.289062 808.832031 132.71875 803.792969 132.71875 C 801.273438 132.71875 797.582031 131.910156 794.253906 130.199219 C 792.722656 129.390625 792.003906 128.761719 790.652344 127.679688 L 789.84375 128.039062 C 789.664062 132.71875 789.574219 133.710938 789.210938 138.210938 L 789.664062 139.019531 C 794.074219 140.640625 797.851562 142.078125 804.421875 142.078125 C 811.261719 142.078125 824.761719 140.820312 826.382812 127.949219 C 826.472656 127.230469 826.472656 126.601562 826.472656 125.96875 C 826.472656 116.070312 819.542969 113.460938 814.59375 111.570312 Z M 828.996094 141 "/>
<path fill-rule="nonzero" fill="rgb(34.901961%, 14.901961%, 14.901961%)" fill-opacity="1" d="M 128.570312 222.300781 C 121.011719 219.148438 117.050781 217.53125 117.050781 213.480469 C 117.050781 210.691406 119.660156 207.179688 125.601562 207.179688 C 132.441406 207.179688 136.488281 209.96875 139.820312 212.21875 L 140.628906 211.859375 L 141.351562 200.070312 L 140.898438 199.441406 C 137.03125 197.820312 132.980469 196.109375 124.25 196.109375 C 107.332031 196.109375 101.480469 205.648438 101.480469 215.28125 C 101.480469 226.171875 109.941406 230.128906 114.980469 232.558594 L 117.949219 233.910156 C 124.160156 236.519531 128.929688 238.769531 128.929688 243.539062 C 128.929688 246.960938 125.960938 251.011719 118.128906 251.011719 C 109.941406 251.011719 105.351562 247.410156 102.738281 245.339844 L 101.839844 245.609375 L 101.210938 258.300781 L 101.75 259.019531 C 102.738281 259.378906 103.730469 259.828125 104.71875 260.101562 C 106.789062 260.820312 112.101562 262.351562 118.851562 262.351562 C 121.550781 262.351562 128.390625 262.078125 133.789062 259.558594 C 141.351562 255.871094 144.589844 249.03125 144.589844 241.378906 C 144.589844 236.25 142.609375 230.761719 137.839844 227.070312 C 135.410156 225.269531 133.070312 224.191406 130.910156 223.199219 Z M 178.339844 250.648438 C 176.808594 251.101562 175.726562 251.460938 174.199219 251.460938 C 169.609375 251.460938 169.25 248.578125 169.066406 247.230469 C 168.796875 244.890625 168.796875 239.941406 168.886719 236.339844 L 169.066406 223.648438 L 177.167969 224.011719 L 177.707031 223.46875 L 178.609375 213.839844 L 178.066406 213.300781 L 169.066406 213.300781 L 169.339844 198.179688 L 168.707031 197.640625 C 162.589844 199.441406 160.96875 199.890625 154.578125 201.511719 L 154.21875 202.140625 L 154.308594 213.390625 L 149.449219 213.210938 L 148.910156 213.660156 L 148.097656 223.289062 L 148.636719 223.828125 L 154.308594 223.648438 L 154.039062 237.960938 C 153.949219 240.210938 153.859375 242.460938 153.859375 244.800781 C 153.859375 253.078125 154.039062 261.988281 168.078125 261.988281 C 171.589844 261.988281 174.378906 261.449219 177.527344 260.910156 L 178.160156 260.28125 L 179.058594 251.011719 Z M 225.050781 234.179688 C 225.140625 226.078125 225.140625 222.570312 222.800781 218.789062 C 221 215.910156 217.402344 212.308594 205.882812 212.308594 C 198.140625 212.308594 193.371094 213.75 188.242188 215.28125 L 187.703125 216 L 187.25 225.808594 L 187.972656 226.171875 C 191.121094 224.910156 196.972656 222.570312 203 222.570312 C 206.332031 222.570312 207.679688 223.109375 208.851562 224.28125 C 209.75 225.179688 210.023438 226.800781 210.023438 228.148438 C 199.222656 229.589844 194.179688 230.578125 188.78125 233.910156 C 183.742188 237.058594 182.03125 242.191406 182.03125 246.238281 C 182.03125 255.871094 188.960938 262.078125 197.78125 262.078125 C 204.53125 262.078125 208.402344 258.839844 210.292969 257.308594 L 210.292969 260.640625 L 210.832031 261.269531 C 217.3125 261 219.292969 260.910156 225.140625 261 L 225.589844 260.371094 C 224.960938 251.550781 224.960938 249.300781 224.960938 240.839844 L 225.050781 234.179688 M 210.203125 248.488281 C 208.3125 249.570312 205.882812 250.828125 202.910156 250.828125 C 199.671875 250.828125 196.972656 249.121094 196.972656 245.339844 C 196.972656 239.398438 204.082031 238.410156 210.203125 237.601562 Z M 260.78125 250.648438 C 259.25 251.101562 258.167969 251.460938 256.640625 251.460938 C 252.050781 251.460938 251.691406 248.578125 251.507812 247.230469 C 251.238281 244.890625 251.238281 239.941406 251.328125 236.339844 L 251.507812 223.648438 L 259.609375 224.011719 L 260.148438 223.46875 L 261.050781 213.839844 L 260.507812 213.300781 L 251.507812 213.300781 L 251.78125 198.179688 L 251.148438 197.640625 C 245.03125 199.441406 243.410156 199.890625 237.019531 201.511719 L 236.660156 202.140625 L 236.75 213.390625 L 231.890625 213.210938 L 231.351562 213.660156 L 230.539062 223.289062 L 231.078125 223.828125 L 236.75 223.648438 L 236.480469 237.960938 C 236.390625 240.210938 236.300781 242.460938 236.300781 244.800781 C 236.300781 253.078125 236.480469 261.988281 250.519531 261.988281 C 254.03125 261.988281 256.820312 261.449219 259.96875 260.910156 L 260.601562 260.28125 L 261.5 251.011719 Z M 307.398438 247.679688 C 303.980469 249.480469 299.929688 251.550781 293.359375 251.550781 C 287.960938 251.550781 284.269531 249.839844 282.109375 246.601562 C 280.757812 244.710938 280.488281 242.910156 280.128906 241.109375 L 309.199219 240.570312 L 309.738281 239.941406 C 309.648438 235.53125 309.558594 231.03125 308.300781 226.53125 C 305.148438 215.910156 298.21875 213.75 295.160156 213.03125 C 292.910156 212.398438 290.839844 212.21875 288.769531 212.21875 C 274.640625 212.21875 265.277344 221.488281 265.277344 237.058594 C 265.277344 241.289062 266 245.699219 267.4375 248.851562 C 272.660156 261 284.898438 262.078125 291.378906 262.078125 C 298.847656 262.078125 302.089844 260.730469 306.859375 258.839844 L 307.398438 258.121094 L 308.027344 247.949219 L 307.398438 247.679688 M 280.128906 231.570312 C 280.398438 228.78125 281.027344 225 284.449219 222.839844 C 285.527344 222.121094 286.789062 221.851562 288.050781 221.851562 C 291.019531 221.851562 292.820312 223.378906 293.808594 225 C 295.070312 226.980469 295.160156 229.140625 295.160156 231.210938 Z M 398.207031 197.191406 C 391.007812 197.460938 389.839844 197.460938 382.277344 197.460938 L 381.828125 198 C 382.457031 208.171875 382.457031 210.78125 382.546875 221.398438 C 378.589844 221.488281 374.628906 221.578125 370.578125 221.578125 C 367.429688 221.578125 364.1875 221.488281 361.039062 221.488281 L 361.21875 197.730469 L 360.769531 197.191406 C 353.839844 197.460938 352.488281 197.460938 344.660156 197.460938 L 344.117188 198 C 344.570312 207.269531 345.109375 218.339844 345.109375 240.660156 C 345.109375 248.761719 344.929688 253.171875 344.75 260.730469 L 345.199219 261.269531 C 351.769531 261 353.386719 260.910156 361.308594 261 L 361.757812 260.460938 C 361.21875 249.300781 361.128906 246.058594 361.039062 233.011719 C 365 232.828125 368.328125 232.738281 371.839844 232.738281 C 375.4375 232.738281 379.039062 232.828125 382.636719 232.921875 C 382.820312 245.070312 382.820312 248.039062 382.367188 260.730469 L 382.820312 261.269531 C 389.570312 261 391.367188 260.910156 399.019531 261 L 399.46875 260.460938 C 398.75 245.339844 398.476562 230.308594 398.476562 215.191406 C 398.476562 208.890625 398.570312 204.660156 398.660156 197.730469 Z M 426.203125 260.371094 C 425.75 253.441406 425.390625 248.128906 425.390625 235.710938 C 425.390625 228.058594 425.570312 220.320312 425.660156 212.671875 L 425.03125 211.949219 L 409.550781 214.648438 L 409.011719 215.191406 C 409.730469 222.03125 410 225.179688 410 237.960938 C 410 247.769531 409.730469 253.261719 409.460938 260.640625 L 410 261.269531 C 416.480469 261 418.28125 260.910156 425.570312 261 L 426.203125 260.371094 M 424.761719 203.308594 L 425.03125 191.070312 L 424.492188 190.53125 L 409.820312 192.328125 L 409.28125 192.960938 C 409.460938 196.199219 409.550781 198.089844 409.550781 200.25 C 409.550781 201.960938 409.550781 203.761719 409.460938 205.46875 L 410.089844 206.011719 C 416.210938 204.929688 417.921875 204.75 424.3125 203.941406 Z M 455.089844 229.949219 C 452.027344 228.871094 449.597656 227.878906 449.597656 225.359375 C 449.597656 224.28125 450.320312 221.308594 455.898438 221.308594 C 461.390625 221.308594 464.898438 223.648438 467.148438 225.089844 L 467.960938 224.820312 L 468.859375 215.011719 L 468.410156 214.46875 C 464.179688 213.300781 460.488281 212.21875 454.640625 212.21875 C 450.230469 212.21875 441.410156 212.578125 436.730469 219.328125 C 435.558594 220.949219 434.300781 223.648438 434.300781 227.25 C 434.300781 236.878906 441.769531 239.761719 446 241.378906 L 449.417969 242.640625 C 451.847656 243.449219 455.808594 244.800781 455.808594 248.039062 C 455.808594 250.289062 453.738281 252.71875 448.699219 252.71875 C 446.179688 252.71875 442.488281 251.910156 439.160156 250.199219 C 437.628906 249.390625 436.910156 248.761719 435.558594 247.679688 L 434.75 248.039062 C 434.570312 252.71875 434.480469 253.710938 434.117188 258.210938 L 434.570312 259.019531 C 438.980469 260.640625 442.757812 262.078125 449.328125 262.078125 C 456.167969 262.078125 469.667969 260.820312 471.289062 247.949219 C 471.378906 247.230469 471.378906 246.601562 471.378906 245.96875 C 471.378906 236.070312 464.449219 233.460938 459.5 231.570312 Z M 504.5 250.648438 C 502.96875 251.101562 501.886719 251.460938 500.359375 251.460938 C 495.769531 251.460938 495.410156 248.578125 495.226562 247.230469 C 494.957031 244.890625 494.957031 239.941406 495.046875 236.339844 L 495.226562 223.648438 L 503.328125 224.011719 L 503.867188 223.46875 L 504.769531 213.839844 L 504.226562 213.300781 L 495.226562 213.300781 L 495.5 198.179688 L 494.867188 197.640625 C 488.75 199.441406 487.128906 199.890625 480.738281 201.511719 L 480.378906 202.140625 L 480.46875 213.390625 L 475.609375 213.210938 L 475.070312 213.660156 L 474.257812 223.289062 L 474.796875 223.828125 L 480.46875 223.648438 L 480.199219 237.960938 C 480.109375 240.210938 480.019531 242.460938 480.019531 244.800781 C 480.019531 253.078125 480.199219 261.988281 494.238281 261.988281 C 497.75 261.988281 500.539062 261.449219 503.6875 260.910156 L 504.320312 260.28125 L 505.21875 251.011719 Z M 556.972656 237.058594 C 556.972656 233.550781 556.972656 218.96875 544.371094 214.019531 C 540.410156 212.488281 535.730469 212.308594 533.390625 212.308594 C 517.730469 212.308594 508.910156 220.679688 508.910156 237.238281 C 508.910156 243 509.8125 248.851562 513.140625 253.710938 C 515.480469 257.21875 519.890625 262.078125 532.761719 262.078125 C 551.839844 262.078125 556.972656 250.558594 556.972656 237.058594 M 541.402344 236.96875 C 541.402344 244.351562 540.410156 252.539062 532.941406 252.539062 C 530.601562 252.539062 528.980469 251.460938 527.902344 250.46875 C 526.371094 248.941406 524.660156 245.878906 524.660156 237.148438 C 524.660156 234.539062 524.660156 228.78125 526.460938 225.628906 C 527.8125 223.199219 530.152344 221.578125 533.03125 221.578125 C 535.550781 221.578125 537.621094 222.929688 538.792969 224.371094 C 540.953125 226.980469 541.402344 232.109375 541.402344 236.96875 Z M 591.53125 227.609375 L 594.050781 212.941406 L 593.511719 212.308594 C 592.882812 212.308594 592.25 212.21875 591.621094 212.21875 C 587.929688 212.21875 583.792969 214.289062 580.910156 220.949219 L 581.179688 212.671875 L 580.460938 211.949219 C 573.800781 213.390625 572.089844 213.660156 565.519531 214.648438 L 564.980469 215.191406 C 565.519531 221.941406 565.792969 225.988281 565.792969 238.5 C 565.792969 245.878906 565.699219 253.261719 565.519531 260.730469 L 566.0625 261.269531 C 572.722656 261 574.160156 260.910156 581.359375 261 L 581.8125 260.371094 C 581.449219 253.078125 580.910156 242.910156 580.910156 236.699219 C 580.910156 232.648438 580.910156 226.710938 587.03125 226.710938 C 588.5625 226.710938 589.460938 227.25 590.722656 227.96875 Z M 615.5625 260.371094 C 615.109375 253.441406 614.75 248.128906 614.75 235.710938 C 614.75 228.058594 614.929688 220.320312 615.019531 212.671875 L 614.390625 211.949219 L 598.910156 214.648438 L 598.371094 215.191406 C 599.089844 222.03125 599.359375 225.179688 599.359375 237.960938 C 599.359375 247.769531 599.089844 253.261719 598.820312 260.640625 L 599.359375 261.269531 C 605.839844 261 607.640625 260.910156 614.929688 261 L 615.5625 260.371094 M 614.121094 203.308594 L 614.390625 191.070312 L 613.851562 190.53125 L 599.179688 192.328125 L 598.640625 192.960938 C 598.820312 196.199219 598.910156 198.089844 598.910156 200.25 C 598.910156 201.960938 598.910156 203.761719 598.820312 205.46875 L 599.449219 206.011719 C 605.570312 204.929688 607.28125 204.75 613.671875 203.941406 Z M 660.738281 248.039062 C 658.308594 249.480469 655.96875 250.921875 651.378906 250.921875 C 641.207031 250.921875 639.136719 242.460938 639.136719 237.058594 C 639.136719 230.488281 642.019531 222.929688 650.75 222.929688 C 654.707031 222.929688 656.867188 224.371094 659.570312 226.171875 L 660.46875 225.898438 C 660.828125 221.128906 660.917969 219.871094 661.636719 215.101562 L 661.1875 214.558594 C 657.226562 213.300781 653.808594 212.21875 648.589844 212.21875 C 627.4375 212.21875 623.296875 228.238281 623.296875 237.421875 C 623.296875 247.769531 628.699219 261.808594 648.949219 261.808594 C 653.71875 261.808594 656.777344 260.910156 660.558594 259.828125 L 661.097656 259.289062 L 661.457031 248.488281 Z M 707 197.28125 L 695.570312 197.460938 L 695.027344 198 C 695.390625 209.699219 695.660156 217.53125 695.660156 227.878906 C 695.660156 238.859375 695.390625 249.75 695.117188 260.730469 L 695.660156 261.269531 C 702.320312 261 703.757812 260.910156 710.960938 261 L 711.410156 260.460938 C 711.050781 250.648438 711.050781 248.398438 711.050781 239.21875 C 721.128906 239.308594 731.929688 239.308594 738.410156 231.390625 C 740.929688 228.328125 743.089844 223.199219 743.089844 216.898438 C 743.089844 213.03125 742.1875 204.480469 734.71875 200.25 C 729.320312 197.101562 721.667969 197.101562 714.917969 197.101562 L 707 197.28125 M 711.050781 208.171875 C 713.027344 208.078125 714.917969 208.078125 716.898438 208.078125 C 724.820312 208.261719 726.980469 212.308594 726.980469 217.53125 C 726.980469 218.789062 726.980469 224.011719 722.210938 226.621094 C 719.777344 227.96875 716.449219 228.148438 711.050781 228.148438 Z M 789.347656 234.179688 C 789.4375 226.078125 789.4375 222.570312 787.097656 218.789062 C 785.296875 215.910156 781.699219 212.308594 770.179688 212.308594 C 762.4375 212.308594 757.667969 213.75 752.539062 215.28125 L 752 216 L 751.546875 225.808594 L 752.269531 226.171875 C 755.417969 224.910156 761.269531 222.570312 767.296875 222.570312 C 770.628906 222.570312 771.976562 223.109375 773.148438 224.28125 C 774.046875 225.179688 774.320312 226.800781 774.320312 228.148438 C 763.519531 229.589844 758.476562 230.578125 753.078125 233.910156 C 748.039062 237.058594 746.328125 242.191406 746.328125 246.238281 C 746.328125 255.871094 753.257812 262.078125 762.078125 262.078125 C 768.828125 262.078125 772.699219 258.839844 774.589844 257.308594 L 774.589844 260.640625 L 775.128906 261.269531 C 781.609375 261 783.589844 260.910156 789.4375 261 L 789.886719 260.371094 C 789.257812 251.550781 789.257812 249.300781 789.257812 240.839844 L 789.347656 234.179688 M 774.5 248.488281 C 772.609375 249.570312 770.179688 250.828125 767.207031 250.828125 C 763.96875 250.828125 761.269531 249.121094 761.269531 245.339844 C 761.269531 239.398438 768.378906 238.410156 774.5 237.601562 Z M 825.890625 227.609375 L 828.410156 212.941406 L 827.871094 212.308594 C 827.242188 212.308594 826.609375 212.21875 825.980469 212.21875 C 822.289062 212.21875 818.152344 214.289062 815.269531 220.949219 L 815.539062 212.671875 L 814.820312 211.949219 C 808.160156 213.390625 806.449219 213.660156 799.878906 214.648438 L 799.339844 215.191406 C 799.878906 221.941406 800.152344 225.988281 800.152344 238.5 C 800.152344 245.878906 800.058594 253.261719 799.878906 260.730469 L 800.421875 261.269531 C 807.082031 261 808.519531 260.910156 815.71875 261 L 816.171875 260.371094 C 815.808594 253.078125 815.269531 242.910156 815.269531 236.699219 C 815.269531 232.648438 815.269531 226.710938 821.390625 226.710938 C 822.921875 226.710938 823.820312 227.25 825.082031 227.96875 Z M 879.890625 259.828125 C 871.429688 245.519531 870.53125 243.898438 863.691406 231.570312 C 869.902344 223.109375 870.53125 222.210938 876.921875 214.019531 L 876.46875 213.121094 L 861.800781 213.300781 L 860.902344 213.929688 C 853.878906 226.078125 852.980469 227.519531 848.839844 233.730469 L 848.839844 223.738281 C 848.929688 206.910156 849.019531 203.308594 849.46875 189.71875 L 848.75 189.179688 L 833.089844 191.519531 L 832.550781 192.148438 C 833.179688 200.878906 833.449219 205.109375 833.628906 216.898438 C 833.808594 231.480469 833.808594 246.058594 833.71875 260.640625 L 834.351562 261.269531 C 840.378906 261 842.089844 261 848.929688 261 L 849.46875 260.371094 L 848.929688 245.160156 L 848.839844 234.808594 C 856.671875 249.210938 857.660156 251.191406 862.25 260.730469 L 863.058594 261.269531 L 879.261719 260.640625 Z M 878.808594 261 "/>
</svg>
