<?xml version="1.0" encoding="UTF-8"?>
<svg xmlns="http://www.w3.org/2000/svg" xmlns:xlink="http://www.w3.org/1999/xlink" width="975" height="1300" viewBox="0 0 975 1300">
<path fill-rule="nonzero" fill="rgb(98.823529%, 78.823529%, 9.019608%)" fill-opacity="1" d="M 50 50 L 925 50 L 925 410 L 50 410 Z M 50 50 "/>
<path fill-rule="nonzero" fill="rgb(34.901961%, 14.901961%, 14.901961%)" fill-opacity="1" d="M 264.738281 102.300781 C 257.179688 99.148438 253.21875 97.53125 253.21875 93.480469 C 253.21875 90.691406 255.828125 87.179688 261.769531 87.179688 C 268.609375 87.179688 272.65625 89.96875 275.988281 92.21875 L 276.796875 91.859375 L 277.519531 80.070312 L 277.066406 79.441406 C 273.199219 77.820312 269.148438 76.109375 260.417969 76.109375 C 243.5 76.109375 237.648438 85.648438 237.648438 95.28125 C 237.648438 106.171875 246.109375 110.128906 251.148438 112.558594 L 254.117188 113.910156 C 260.328125 116.519531 265.097656 118.769531 265.097656 123.539062 C 265.097656 126.960938 262.128906 131.011719 254.296875 131.011719 C 246.109375 131.011719 241.519531 127.410156 238.90625 125.339844 L 238.007812 125.609375 L 237.378906 138.300781 L 237.917969 139.019531 C 238.90625 139.378906 239.898438 139.828125 240.886719 140.101562 C 242.957031 140.820312 248.269531 142.351562 255.019531 142.351562 C 257.71875 142.351562 264.558594 142.078125 269.957031 139.558594 C 277.519531 135.871094 280.757812 129.03125 280.757812 121.378906 C 280.757812 116.25 278.777344 110.761719 274.007812 107.070312 C 271.578125 105.269531 269.238281 104.191406 267.078125 103.199219 Z M 329.355469 114.179688 C 329.445312 106.078125 329.445312 102.570312 327.105469 98.789062 C 325.304688 95.910156 321.707031 92.308594 310.1875 92.308594 C 302.445312 92.308594 297.675781 93.75 292.546875 95.28125 L 292.007812 96 L 291.554688 105.808594 L 292.277344 106.171875 C 295.425781 104.910156 301.277344 102.570312 307.304688 102.570312 C 310.636719 102.570312 311.984375 103.109375 313.15625 104.28125 C 314.054688 105.179688 314.328125 106.800781 314.328125 108.148438 C 303.527344 109.589844 298.484375 110.578125 293.085938 113.910156 C 288.046875 117.058594 286.335938 122.191406 286.335938 126.238281 C 286.335938 135.871094 293.265625 142.078125 302.085938 142.078125 C 308.835938 142.078125 312.707031 138.839844 314.597656 137.308594 L 314.597656 140.640625 L 315.136719 141.269531 C 321.617188 141 323.597656 140.910156 329.445312 141 L 329.894531 140.371094 C 329.265625 131.550781 329.265625 129.300781 329.265625 120.839844 L 329.355469 114.179688 M 314.507812 128.488281 C 312.617188 129.570312 310.1875 130.828125 307.214844 130.828125 C 303.976562 130.828125 301.277344 129.121094 301.277344 125.339844 C 301.277344 119.398438 308.386719 118.410156 314.507812 117.601562 Z M 383.988281 140.371094 C 383.539062 132.449219 383.539062 129.929688 383.359375 121.109375 L 383.359375 114.089844 C 383.269531 105.449219 383.179688 101.308594 380.929688 97.621094 C 378.136719 92.941406 373.007812 92.21875 369.769531 92.21875 C 364.277344 92.21875 359.507812 95.101562 355.367188 97.53125 L 355.546875 92.578125 L 354.648438 91.949219 C 347.71875 93.390625 346.1875 93.660156 339.4375 94.558594 L 338.898438 95.191406 C 339.617188 103.019531 340.160156 108.691406 340.160156 123.359375 C 340.160156 129.121094 340.066406 134.878906 339.976562 140.640625 L 340.519531 141.179688 C 347 140.910156 348.347656 140.910156 355.546875 140.910156 L 356.089844 140.371094 C 355.546875 126.511719 355.457031 123 355.367188 106.890625 C 357.257812 105.628906 359.417969 104.101562 362.296875 104.101562 C 367.25 104.101562 367.699219 109.410156 367.96875 112.648438 C 368.148438 115.621094 368.238281 127.949219 368.238281 131.371094 C 368.238281 134.429688 368.148438 137.578125 368.148438 140.640625 L 368.6875 141.179688 C 374.628906 141 376.160156 140.910156 383.359375 140.910156 Z M 432.589844 77.28125 L 421.160156 77.460938 L 420.617188 78 C 420.980469 89.699219 421.25 97.53125 421.25 107.878906 C 421.25 118.859375 420.980469 129.75 420.707031 140.730469 L 421.25 141.269531 C 427.910156 141 429.347656 140.910156 436.550781 141 L 437 140.460938 C 436.640625 130.648438 436.640625 128.398438 436.640625 119.21875 C 446.71875 119.308594 457.519531 119.308594 464 111.390625 C 466.519531 108.328125 468.679688 103.199219 468.679688 96.898438 C 468.679688 93.03125 467.777344 84.480469 460.308594 80.25 C 454.910156 77.101562 447.257812 77.101562 440.507812 77.101562 L 432.589844 77.28125 M 436.640625 88.171875 C 438.617188 88.078125 440.507812 88.078125 442.488281 88.078125 C 450.410156 88.261719 452.570312 92.308594 452.570312 97.53125 C 452.570312 98.789062 452.570312 104.011719 447.800781 106.621094 C 445.367188 107.96875 442.039062 108.148438 436.640625 108.148438 Z M 514.9375 114.179688 C 515.027344 106.078125 515.027344 102.570312 512.6875 98.789062 C 510.886719 95.910156 507.289062 92.308594 495.769531 92.308594 C 488.027344 92.308594 483.257812 93.75 478.128906 95.28125 L 477.589844 96 L 477.136719 105.808594 L 477.859375 106.171875 C 481.007812 104.910156 486.859375 102.570312 492.886719 102.570312 C 496.21875 102.570312 497.566406 103.109375 498.738281 104.28125 C 499.636719 105.179688 499.910156 106.800781 499.910156 108.148438 C 489.109375 109.589844 484.066406 110.578125 478.667969 113.910156 C 473.628906 117.058594 471.917969 122.191406 471.917969 126.238281 C 471.917969 135.871094 478.847656 142.078125 487.667969 142.078125 C 494.417969 142.078125 498.289062 138.839844 500.179688 137.308594 L 500.179688 140.640625 L 500.71875 141.269531 C 507.199219 141 509.179688 140.910156 515.027344 141 L 515.476562 140.371094 C 514.847656 131.550781 514.847656 129.300781 514.847656 120.839844 L 514.9375 114.179688 M 500.089844 128.488281 C 498.199219 129.570312 495.769531 130.828125 492.796875 130.828125 C 489.558594 130.828125 486.859375 129.121094 486.859375 125.339844 C 486.859375 119.398438 493.96875 118.410156 500.089844 117.601562 Z M 544.367188 109.949219 C 541.304688 108.871094 538.875 107.878906 538.875 105.359375 C 538.875 104.28125 539.597656 101.308594 545.175781 101.308594 C 550.667969 101.308594 554.175781 103.648438 556.425781 105.089844 L 557.238281 104.820312 L 558.136719 95.011719 L 557.6875 94.46875 C 553.457031 93.300781 549.765625 92.21875 543.917969 92.21875 C 539.507812 92.21875 530.6875 92.578125 526.007812 99.328125 C 524.835938 100.949219 523.578125 103.648438 523.578125 107.25 C 523.578125 116.878906 531.046875 119.761719 535.277344 121.378906 L 538.695312 122.640625 C 541.125 123.449219 545.085938 124.800781 545.085938 128.039062 C 545.085938 130.289062 543.015625 132.71875 537.976562 132.71875 C 535.457031 132.71875 531.765625 131.910156 528.4375 130.199219 C 526.90625 129.390625 526.1875 128.761719 524.835938 127.679688 L 524.027344 128.039062 C 523.847656 132.71875 523.757812 133.710938 523.394531 138.210938 L 523.847656 139.019531 C 528.257812 140.640625 532.035156 142.078125 538.605469 142.078125 C 545.445312 142.078125 558.945312 140.820312 560.566406 127.949219 C 560.65625 127.230469 560.65625 126.601562 560.65625 125.96875 C 560.65625 116.070312 553.726562 113.460938 548.777344 111.570312 Z M 611.960938 93.210938 C 590.628906 93.03125 583.699219 93.03125 576.320312 97.621094 C 568.308594 102.75 566.328125 112.289062 566.328125 119.128906 C 566.328125 131.550781 572.808594 142.078125 586.308594 142.078125 C 591.800781 142.078125 594.769531 140.28125 597.289062 138.75 C 597.289062 150.089844 597.289062 151.890625 597.019531 163.050781 L 597.558594 163.5 C 604.21875 163.230469 605.660156 163.140625 612.5 163.230469 L 612.949219 162.78125 C 612.230469 147.570312 612.140625 132.449219 612.140625 117.238281 C 612.140625 106.800781 612.320312 101.578125 612.589844 93.75 L 611.960938 93.210938 M 597.199219 129.480469 C 595.398438 130.558594 594.050781 131.28125 591.710938 131.28125 C 582.167969 131.28125 582.167969 119.671875 582.167969 117.238281 C 582.167969 111.75 584.238281 103.558594 594.320312 103.558594 C 595.128906 103.558594 596.03125 103.558594 596.929688 103.648438 Z M 666.140625 92.851562 L 651.46875 93.570312 L 650.839844 94.109375 C 651.46875 104.28125 651.46875 118.679688 651.46875 120.121094 C 651.46875 122.730469 651.46875 124.171875 651.378906 127.769531 C 648.949219 129.390625 647.058594 130.738281 644.628906 130.738281 C 638.148438 130.738281 638.148438 123.898438 638.148438 118.589844 C 638.148438 116.339844 638.148438 114 638.238281 111.75 L 638.417969 93.570312 L 637.789062 92.851562 L 622.9375 93.570312 L 622.308594 94.109375 C 622.847656 101.671875 622.9375 104.191406 622.9375 113.28125 L 622.9375 119.578125 C 622.847656 129.390625 623.300781 133.53125 626.539062 137.308594 C 629.507812 140.640625 633.828125 142.078125 638.328125 142.078125 C 644.71875 142.078125 648.410156 139.199219 651.648438 136.679688 L 651.558594 140.730469 L 652.1875 141.269531 C 658.757812 141 660.738281 141 666.589844 141 L 667.128906 140.460938 C 666.679688 134.070312 666.5 130.648438 666.5 118.949219 C 666.5 110.488281 666.589844 102.03125 666.769531 93.570312 Z M 717.347656 114.179688 C 717.4375 106.078125 717.4375 102.570312 715.097656 98.789062 C 713.296875 95.910156 709.699219 92.308594 698.179688 92.308594 C 690.4375 92.308594 685.667969 93.75 680.539062 95.28125 L 680 96 L 679.546875 105.808594 L 680.269531 106.171875 C 683.417969 104.910156 689.269531 102.570312 695.296875 102.570312 C 698.628906 102.570312 699.976562 103.109375 701.148438 104.28125 C 702.046875 105.179688 702.320312 106.800781 702.320312 108.148438 C 691.519531 109.589844 686.476562 110.578125 681.078125 113.910156 C 676.039062 117.058594 674.328125 122.191406 674.328125 126.238281 C 674.328125 135.871094 681.257812 142.078125 690.078125 142.078125 C 696.828125 142.078125 700.699219 138.839844 702.589844 137.308594 L 702.589844 140.640625 L 703.128906 141.269531 C 709.609375 141 711.589844 140.910156 717.4375 141 L 717.886719 140.371094 C 717.257812 131.550781 717.257812 129.300781 717.257812 120.839844 L 717.347656 114.179688 M 702.5 128.488281 C 700.609375 129.570312 698.179688 130.828125 695.207031 130.828125 C 691.96875 130.828125 689.269531 129.121094 689.269531 125.339844 C 689.269531 119.398438 696.378906 118.410156 702.5 117.601562 Z M 743.714844 140.371094 C 743.265625 130.019531 742.816406 120.570312 742.816406 92.128906 C 742.816406 83.578125 742.90625 79.53125 743.265625 69.808594 L 742.636719 69.179688 L 727.246094 71.609375 L 726.886719 72.148438 C 727.785156 83.128906 727.875 86.101562 728.054688 100.679688 C 728.148438 105.988281 728.148438 111.300781 728.148438 116.609375 C 728.148438 126.328125 727.964844 131.730469 727.605469 140.640625 L 728.148438 141.269531 C 734.175781 141 736.605469 140.910156 743.175781 141 Z M 748.757812 141 "/>
<path fill-rule="nonzero" fill="rgb(34.901961%, 14.901961%, 14.901961%)" fill-opacity="1" d="M 172.714844 261 C 181.085938 261.179688 191.433594 261.359375 198.183594 256.679688 C 204.125 252.449219 205.746094 246.511719 205.746094 241.46875 C 205.746094 235.710938 203.3125 230.398438 198.183594 227.878906 C 196.472656 226.980469 194.496094 226.621094 192.605469 226.261719 C 195.664062 225 199.265625 223.378906 201.605469 218.609375 C 202.59375 216.539062 203.042969 214.378906 203.042969 212.308594 C 203.042969 209.429688 202.324219 205.46875 199.445312 202.230469 C 195.664062 198.179688 189.8125 197.101562 180.996094 197.101562 C 177.933594 197.101562 172.445312 197.191406 169.382812 197.28125 L 156.785156 197.460938 L 156.246094 198 C 156.605469 206.640625 156.695312 209.96875 156.695312 222.390625 C 156.695312 235.171875 156.605469 247.859375 156.425781 260.640625 L 157.054688 261 L 172.714844 261 M 172.085938 233.640625 C 178.925781 233.460938 182.882812 233.460938 185.496094 234.988281 C 188.105469 236.609375 189.09375 239.488281 189.09375 242.371094 C 189.09375 246.421875 186.84375 248.941406 183.515625 250.109375 C 180.8125 251.011719 175.953125 251.011719 172.085938 250.921875 L 172.085938 233.640625 M 172.085938 207.179688 C 173.972656 207.179688 176.496094 207.089844 178.023438 207.089844 C 182.882812 207.089844 187.292969 208.800781 187.292969 214.648438 C 187.292969 219.421875 183.785156 221.398438 182.703125 221.941406 C 180.453125 222.929688 175.683594 222.929688 172.085938 222.929688 Z M 254.164062 234.179688 C 254.253906 226.078125 254.253906 222.570312 251.914062 218.789062 C 250.113281 215.910156 246.515625 212.308594 234.996094 212.308594 C 227.253906 212.308594 222.484375 213.75 217.355469 215.28125 L 216.816406 216 L 216.363281 225.808594 L 217.085938 226.171875 C 220.234375 224.910156 226.085938 222.570312 232.113281 222.570312 C 235.445312 222.570312 236.792969 223.109375 237.964844 224.28125 C 238.863281 225.179688 239.136719 226.800781 239.136719 228.148438 C 228.335938 229.589844 223.292969 230.578125 217.894531 233.910156 C 212.855469 237.058594 211.144531 242.191406 211.144531 246.238281 C 211.144531 255.871094 218.074219 262.078125 226.894531 262.078125 C 233.644531 262.078125 237.515625 258.839844 239.40625 257.308594 L 239.40625 260.640625 L 239.945312 261.269531 C 246.425781 261 248.40625 260.910156 254.253906 261 L 254.703125 260.371094 C 254.074219 251.550781 254.074219 249.300781 254.074219 240.839844 L 254.164062 234.179688 M 239.316406 248.488281 C 237.425781 249.570312 234.996094 250.828125 232.023438 250.828125 C 228.785156 250.828125 226.085938 249.121094 226.085938 245.339844 C 226.085938 239.398438 233.195312 238.410156 239.316406 237.601562 Z M 289.894531 250.648438 C 288.363281 251.101562 287.28125 251.460938 285.753906 251.460938 C 281.164062 251.460938 280.804688 248.578125 280.621094 247.230469 C 280.351562 244.890625 280.351562 239.941406 280.441406 236.339844 L 280.621094 223.648438 L 288.722656 224.011719 L 289.261719 223.46875 L 290.164062 213.839844 L 289.621094 213.300781 L 280.621094 213.300781 L 280.894531 198.179688 L 280.261719 197.640625 C 274.144531 199.441406 272.523438 199.890625 266.132812 201.511719 L 265.773438 202.140625 L 265.863281 213.390625 L 261.003906 213.210938 L 260.464844 213.660156 L 259.652344 223.289062 L 260.191406 223.828125 L 265.863281 223.648438 L 265.59375 237.960938 C 265.503906 240.210938 265.414062 242.460938 265.414062 244.800781 C 265.414062 253.078125 265.59375 261.988281 279.632812 261.988281 C 283.144531 261.988281 285.933594 261.449219 289.082031 260.910156 L 289.714844 260.28125 L 290.613281 251.011719 Z M 321.753906 250.648438 C 320.222656 251.101562 319.140625 251.460938 317.613281 251.460938 C 313.023438 251.460938 312.664062 248.578125 312.480469 247.230469 C 312.210938 244.890625 312.210938 239.941406 312.300781 236.339844 L 312.480469 223.648438 L 320.582031 224.011719 L 321.121094 223.46875 L 322.023438 213.839844 L 321.480469 213.300781 L 312.480469 213.300781 L 312.753906 198.179688 L 312.121094 197.640625 C 306.003906 199.441406 304.382812 199.890625 297.992188 201.511719 L 297.632812 202.140625 L 297.722656 213.390625 L 292.863281 213.210938 L 292.324219 213.660156 L 291.511719 223.289062 L 292.050781 223.828125 L 297.722656 223.648438 L 297.453125 237.960938 C 297.363281 240.210938 297.273438 242.460938 297.273438 244.800781 C 297.273438 253.078125 297.453125 261.988281 311.492188 261.988281 C 315.003906 261.988281 317.792969 261.449219 320.941406 260.910156 L 321.574219 260.28125 L 322.472656 251.011719 Z M 344.253906 260.371094 C 343.804688 250.019531 343.355469 240.570312 343.355469 212.128906 C 343.355469 203.578125 343.445312 199.53125 343.804688 189.808594 L 343.175781 189.179688 L 327.785156 191.609375 L 327.425781 192.148438 C 328.324219 203.128906 328.414062 206.101562 328.59375 220.679688 C 328.6875 225.988281 328.6875 231.300781 328.6875 236.609375 C 328.6875 246.328125 328.503906 251.730469 328.144531 260.640625 L 328.6875 261.269531 C 334.714844 261 337.144531 260.910156 343.714844 261 Z M 394.652344 247.679688 C 391.234375 249.480469 387.183594 251.550781 380.613281 251.550781 C 375.214844 251.550781 371.523438 249.839844 369.363281 246.601562 C 368.011719 244.710938 367.742188 242.910156 367.382812 241.109375 L 396.453125 240.570312 L 396.992188 239.941406 C 396.902344 235.53125 396.8125 231.03125 395.554688 226.53125 C 392.402344 215.910156 385.472656 213.75 382.414062 213.03125 C 380.164062 212.398438 378.09375 212.21875 376.023438 212.21875 C 361.894531 212.21875 352.53125 221.488281 352.53125 237.058594 C 352.53125 241.289062 353.253906 245.699219 354.691406 248.851562 C 359.914062 261 372.152344 262.078125 378.632812 262.078125 C 386.101562 262.078125 389.34375 260.730469 394.113281 258.839844 L 394.652344 258.121094 L 395.28125 247.949219 L 394.652344 247.679688 M 367.382812 231.570312 C 367.652344 228.78125 368.28125 225 371.703125 222.839844 C 372.78125 222.121094 374.042969 221.851562 375.304688 221.851562 C 378.273438 221.851562 380.074219 223.378906 381.0625 225 C 382.324219 226.980469 382.414062 229.140625 382.414062 231.210938 Z M 423.273438 260.371094 C 422.375 243.988281 422.285156 239.578125 422.375 223.648438 L 429.484375 224.011719 L 430.113281 223.378906 L 430.925781 213.839844 L 430.476562 213.300781 L 422.285156 213.300781 L 422.375 211.230469 C 422.375 205.738281 422.464844 200.699219 428.316406 200.699219 C 429.214844 200.699219 430.113281 200.878906 431.015625 200.96875 L 431.644531 200.609375 L 432.453125 190.441406 L 432.003906 189.808594 C 429.84375 189.628906 427.773438 189.539062 425.703125 189.539062 C 421.113281 189.539062 416.433594 190.078125 412.835938 192.78125 C 407.253906 196.921875 407.34375 203.398438 407.34375 207.898438 L 407.433594 213.300781 L 401.585938 213.210938 L 401.046875 213.660156 L 400.144531 223.199219 L 400.683594 223.738281 L 407.523438 223.558594 C 407.523438 240.570312 407.523438 244.621094 406.984375 260.640625 L 407.523438 261.269531 C 413.644531 261 415.984375 260.910156 422.734375 260.910156 Z M 453.425781 260.371094 C 452.972656 253.441406 452.613281 248.128906 452.613281 235.710938 C 452.613281 228.058594 452.792969 220.320312 452.882812 212.671875 L 452.253906 211.949219 L 436.773438 214.648438 L 436.234375 215.191406 C 436.953125 222.03125 437.222656 225.179688 437.222656 237.960938 C 437.222656 247.769531 436.953125 253.261719 436.683594 260.640625 L 437.222656 261.269531 C 443.703125 261 445.503906 260.910156 452.792969 261 L 453.425781 260.371094 M 451.984375 203.308594 L 452.253906 191.070312 L 451.714844 190.53125 L 437.042969 192.328125 L 436.503906 192.960938 C 436.683594 196.199219 436.773438 198.089844 436.773438 200.25 C 436.773438 201.960938 436.773438 203.761719 436.683594 205.46875 L 437.3125 206.011719 C 443.433594 204.929688 445.144531 204.75 451.535156 203.941406 Z M 503.375 247.679688 C 499.957031 249.480469 495.90625 251.550781 489.335938 251.550781 C 483.9375 251.550781 480.246094 249.839844 478.085938 246.601562 C 476.734375 244.710938 476.464844 242.910156 476.105469 241.109375 L 505.175781 240.570312 L 505.714844 239.941406 C 505.625 235.53125 505.535156 231.03125 504.277344 226.53125 C 501.125 215.910156 494.195312 213.75 491.136719 213.03125 C 488.886719 212.398438 486.816406 212.21875 484.746094 212.21875 C 470.617188 212.21875 461.253906 221.488281 461.253906 237.058594 C 461.253906 241.289062 461.976562 245.699219 463.414062 248.851562 C 468.636719 261 480.875 262.078125 487.355469 262.078125 C 494.824219 262.078125 498.066406 260.730469 502.835938 258.839844 L 503.375 258.121094 L 504.003906 247.949219 L 503.375 247.679688 M 476.105469 231.570312 C 476.375 228.78125 477.003906 225 480.425781 222.839844 C 481.503906 222.121094 482.765625 221.851562 484.027344 221.851562 C 486.996094 221.851562 488.796875 223.378906 489.785156 225 C 491.046875 226.980469 491.136719 229.140625 491.136719 231.210938 Z M 529.832031 260.371094 C 529.382812 250.019531 528.933594 240.570312 528.933594 212.128906 C 528.933594 203.578125 529.023438 199.53125 529.382812 189.808594 L 528.753906 189.179688 L 513.363281 191.609375 L 513.003906 192.148438 C 513.902344 203.128906 513.992188 206.101562 514.171875 220.679688 C 514.265625 225.988281 514.265625 231.300781 514.265625 236.609375 C 514.265625 246.328125 514.082031 251.730469 513.722656 260.640625 L 514.265625 261.269531 C 520.292969 261 522.722656 260.910156 529.292969 261 Z M 584.375 260.460938 C 584.015625 252.359375 583.746094 246.960938 583.746094 235.171875 C 583.746094 211.410156 584.105469 201.601562 584.464844 189.71875 L 583.835938 189.179688 L 568.984375 191.519531 L 568.535156 192.058594 C 569.074219 200.519531 569.164062 202.769531 569.074219 213.03125 C 562.324219 212.851562 553.863281 212.671875 547.023438 218.070312 C 540.726562 222.929688 538.113281 230.398438 538.113281 239.671875 C 538.113281 246.691406 540.003906 253.710938 545.316406 258.121094 C 549.273438 261.359375 554.136719 262.078125 557.105469 262.078125 C 563.496094 262.078125 566.824219 259.109375 568.984375 257.21875 L 568.804688 260.730469 L 569.253906 261.269531 C 575.464844 261 577.175781 261 583.925781 261 L 584.375 260.460938 M 569.074219 223.828125 C 569.164062 235.800781 569.074219 238.140625 568.804688 249.03125 C 567.003906 250.109375 565.203125 251.191406 562.683594 251.191406 C 553.953125 251.191406 553.953125 240.03125 553.953125 238.230469 C 553.953125 231.300781 555.933594 223.558594 566.015625 223.558594 C 567.003906 223.558594 567.816406 223.648438 569.074219 223.828125 Z M 646.925781 222.300781 C 639.367188 219.148438 635.40625 217.53125 635.40625 213.480469 C 635.40625 210.691406 638.015625 207.179688 643.957031 207.179688 C 650.796875 207.179688 654.84375 209.96875 658.175781 212.21875 L 658.984375 211.859375 L 659.707031 200.070312 L 659.253906 199.441406 C 655.386719 197.820312 651.335938 196.109375 642.605469 196.109375 C 625.6875 196.109375 619.835938 205.648438 619.835938 215.28125 C 619.835938 226.171875 628.296875 230.128906 633.335938 232.558594 L 636.304688 233.910156 C 642.515625 236.519531 647.285156 238.769531 647.285156 243.539062 C 647.285156 246.960938 644.316406 251.011719 636.484375 251.011719 C 628.296875 251.011719 623.707031 247.410156 621.09375 245.339844 L 620.195312 245.609375 L 619.566406 258.300781 L 620.105469 259.019531 C 621.09375 259.378906 622.085938 259.828125 623.074219 260.101562 C 625.144531 260.820312 630.457031 262.351562 637.207031 262.351562 C 639.90625 262.351562 646.746094 262.078125 652.144531 259.558594 C 659.707031 255.871094 662.945312 249.03125 662.945312 241.378906 C 662.945312 236.25 660.964844 230.761719 656.195312 227.070312 C 653.765625 225.269531 651.425781 224.191406 649.265625 223.199219 Z M 696.695312 250.648438 C 695.164062 251.101562 694.082031 251.460938 692.554688 251.460938 C 687.964844 251.460938 687.605469 248.578125 687.421875 247.230469 C 687.152344 244.890625 687.152344 239.941406 687.242188 236.339844 L 687.421875 223.648438 L 695.523438 224.011719 L 696.0625 223.46875 L 696.964844 213.839844 L 696.421875 213.300781 L 687.421875 213.300781 L 687.695312 198.179688 L 687.0625 197.640625 C 680.945312 199.441406 679.324219 199.890625 672.933594 201.511719 L 672.574219 202.140625 L 672.664062 213.390625 L 667.804688 213.210938 L 667.265625 213.660156 L 666.453125 223.289062 L 666.992188 223.828125 L 672.664062 223.648438 L 672.394531 237.960938 C 672.304688 240.210938 672.214844 242.460938 672.214844 244.800781 C 672.214844 253.078125 672.394531 261.988281 686.433594 261.988281 C 689.945312 261.988281 692.734375 261.449219 695.882812 260.910156 L 696.515625 260.28125 L 697.414062 251.011719 Z M 743.402344 234.179688 C 743.492188 226.078125 743.492188 222.570312 741.152344 218.789062 C 739.351562 215.910156 735.753906 212.308594 724.234375 212.308594 C 716.492188 212.308594 711.722656 213.75 706.59375 215.28125 L 706.054688 216 L 705.601562 225.808594 L 706.324219 226.171875 C 709.472656 224.910156 715.324219 222.570312 721.351562 222.570312 C 724.683594 222.570312 726.03125 223.109375 727.203125 224.28125 C 728.101562 225.179688 728.375 226.800781 728.375 228.148438 C 717.574219 229.589844 712.53125 230.578125 707.132812 233.910156 C 702.09375 237.058594 700.382812 242.191406 700.382812 246.238281 C 700.382812 255.871094 707.3125 262.078125 716.132812 262.078125 C 722.882812 262.078125 726.753906 258.839844 728.644531 257.308594 L 728.644531 260.640625 L 729.183594 261.269531 C 735.664062 261 737.644531 260.910156 743.492188 261 L 743.941406 260.371094 C 743.3125 251.550781 743.3125 249.300781 743.3125 240.839844 L 743.402344 234.179688 M 728.554688 248.488281 C 726.664062 249.570312 724.234375 250.828125 721.261719 250.828125 C 718.023438 250.828125 715.324219 249.121094 715.324219 245.339844 C 715.324219 239.398438 722.433594 238.410156 728.554688 237.601562 Z M 779.136719 250.648438 C 777.605469 251.101562 776.523438 251.460938 774.996094 251.460938 C 770.40625 251.460938 770.046875 248.578125 769.863281 247.230469 C 769.59375 244.890625 769.59375 239.941406 769.683594 236.339844 L 769.863281 223.648438 L 777.964844 224.011719 L 778.503906 223.46875 L 779.40625 213.839844 L 778.863281 213.300781 L 769.863281 213.300781 L 770.136719 198.179688 L 769.503906 197.640625 C 763.386719 199.441406 761.765625 199.890625 755.375 201.511719 L 755.015625 202.140625 L 755.105469 213.390625 L 750.246094 213.210938 L 749.707031 213.660156 L 748.894531 223.289062 L 749.433594 223.828125 L 755.105469 223.648438 L 754.835938 237.960938 C 754.746094 240.210938 754.65625 242.460938 754.65625 244.800781 C 754.65625 253.078125 754.835938 261.988281 768.875 261.988281 C 772.386719 261.988281 775.175781 261.449219 778.324219 260.910156 L 778.957031 260.28125 L 779.855469 251.011719 Z M 825.753906 247.679688 C 822.335938 249.480469 818.285156 251.550781 811.714844 251.550781 C 806.316406 251.550781 802.625 249.839844 800.464844 246.601562 C 799.113281 244.710938 798.84375 242.910156 798.484375 241.109375 L 827.554688 240.570312 L 828.09375 239.941406 C 828.003906 235.53125 827.914062 231.03125 826.65625 226.53125 C 823.503906 215.910156 816.574219 213.75 813.515625 213.03125 C 811.265625 212.398438 809.195312 212.21875 807.125 212.21875 C 792.996094 212.21875 783.632812 221.488281 783.632812 237.058594 C 783.632812 241.289062 784.355469 245.699219 785.792969 248.851562 C 791.015625 261 803.253906 262.078125 809.734375 262.078125 C 817.203125 262.078125 820.445312 260.730469 825.214844 258.839844 L 825.753906 258.121094 L 826.382812 247.949219 L 825.753906 247.679688 M 798.484375 231.570312 C 798.753906 228.78125 799.382812 225 802.804688 222.839844 C 803.882812 222.121094 805.144531 221.851562 806.40625 221.851562 C 809.375 221.851562 811.175781 223.378906 812.164062 225 C 813.425781 226.980469 813.515625 229.140625 813.515625 231.210938 Z M 830.972656 261 "/>
<path fill-rule="nonzero" fill="rgb(34.901961%, 14.901961%, 14.901961%)" fill-opacity="1" d="M 277.921875 317.191406 C 270.722656 317.460938 269.554688 317.460938 261.992188 317.460938 L 261.542969 318 C 262.171875 328.171875 262.171875 330.78125 262.261719 341.398438 C 258.304688 341.488281 254.34375 341.578125 250.292969 341.578125 C 247.144531 341.578125 243.902344 341.488281 240.753906 341.488281 L 240.933594 317.730469 L 240.484375 317.191406 C 233.554688 317.460938 232.203125 317.460938 224.375 317.460938 L 223.832031 318 C 224.285156 327.269531 224.824219 338.339844 224.824219 360.660156 C 224.824219 368.761719 224.644531 373.171875 224.464844 380.730469 L 224.914062 381.269531 C 231.484375 381 233.101562 380.910156 241.023438 381 L 241.472656 380.460938 C 240.933594 369.300781 240.84375 366.058594 240.753906 353.011719 C 244.714844 352.828125 248.042969 352.738281 251.554688 352.738281 C 255.152344 352.738281 258.753906 352.828125 262.351562 352.921875 C 262.535156 365.070312 262.535156 368.039062 262.082031 380.730469 L 262.535156 381.269531 C 269.285156 381 271.082031 380.910156 278.734375 381 L 279.183594 380.460938 C 278.464844 365.339844 278.191406 350.308594 278.191406 335.191406 C 278.191406 328.890625 278.285156 324.660156 278.375 317.730469 Z M 305.914062 380.371094 C 305.460938 373.441406 305.101562 368.128906 305.101562 355.710938 C 305.101562 348.058594 305.28125 340.320312 305.371094 332.671875 L 304.742188 331.949219 L 289.261719 334.648438 L 288.722656 335.191406 C 289.441406 342.03125 289.710938 345.179688 289.710938 357.960938 C 289.710938 367.769531 289.441406 373.261719 289.171875 380.640625 L 289.710938 381.269531 C 296.191406 381 297.992188 380.910156 305.28125 381 L 305.914062 380.371094 M 304.472656 323.308594 L 304.742188 311.070312 L 304.203125 310.53125 L 289.53125 312.328125 L 288.992188 312.960938 C 289.171875 316.199219 289.261719 318.089844 289.261719 320.25 C 289.261719 321.960938 289.261719 323.761719 289.171875 325.46875 L 289.800781 326.011719 C 295.921875 324.929688 297.632812 324.75 304.023438 323.941406 Z M 334.804688 349.949219 C 331.742188 348.871094 329.3125 347.878906 329.3125 345.359375 C 329.3125 344.28125 330.035156 341.308594 335.613281 341.308594 C 341.105469 341.308594 344.613281 343.648438 346.863281 345.089844 L 347.675781 344.820312 L 348.574219 335.011719 L 348.125 334.46875 C 343.894531 333.300781 340.203125 332.21875 334.355469 332.21875 C 329.945312 332.21875 321.125 332.578125 316.445312 339.328125 C 315.273438 340.949219 314.015625 343.648438 314.015625 347.25 C 314.015625 356.878906 321.484375 359.761719 325.714844 361.378906 L 329.132812 362.640625 C 331.5625 363.449219 335.523438 364.800781 335.523438 368.039062 C 335.523438 370.289062 333.453125 372.71875 328.414062 372.71875 C 325.894531 372.71875 322.203125 371.910156 318.875 370.199219 C 317.34375 369.390625 316.625 368.761719 315.273438 367.679688 L 314.464844 368.039062 C 314.285156 372.71875 314.195312 373.710938 313.832031 378.210938 L 314.285156 379.019531 C 318.695312 380.640625 322.472656 382.078125 329.042969 382.078125 C 335.882812 382.078125 349.382812 380.820312 351.003906 367.949219 C 351.09375 367.230469 351.09375 366.601562 351.09375 365.96875 C 351.09375 356.070312 344.164062 353.460938 339.214844 351.570312 Z M 384.214844 370.648438 C 382.683594 371.101562 381.601562 371.460938 380.074219 371.460938 C 375.484375 371.460938 375.125 368.578125 374.941406 367.230469 C 374.671875 364.890625 374.671875 359.941406 374.761719 356.339844 L 374.941406 343.648438 L 383.042969 344.011719 L 383.582031 343.46875 L 384.484375 333.839844 L 383.941406 333.300781 L 374.941406 333.300781 L 375.214844 318.179688 L 374.582031 317.640625 C 368.464844 319.441406 366.84375 319.890625 360.453125 321.511719 L 360.09375 322.140625 L 360.183594 333.390625 L 355.324219 333.210938 L 354.785156 333.660156 L 353.972656 343.289062 L 354.511719 343.828125 L 360.183594 343.648438 L 359.914062 357.960938 C 359.824219 360.210938 359.734375 362.460938 359.734375 364.800781 C 359.734375 373.078125 359.914062 381.988281 373.953125 381.988281 C 377.464844 381.988281 380.253906 381.449219 383.402344 380.910156 L 384.035156 380.28125 L 384.933594 371.011719 Z M 436.683594 357.058594 C 436.683594 353.550781 436.683594 338.96875 424.082031 334.019531 C 420.121094 332.488281 415.441406 332.308594 413.101562 332.308594 C 397.441406 332.308594 388.621094 340.679688 388.621094 357.238281 C 388.621094 363 389.523438 368.851562 392.851562 373.710938 C 395.191406 377.21875 399.601562 382.078125 412.472656 382.078125 C 431.550781 382.078125 436.683594 370.558594 436.683594 357.058594 M 421.113281 356.96875 C 421.113281 364.351562 420.121094 372.539062 412.652344 372.539062 C 410.3125 372.539062 408.691406 371.460938 407.613281 370.46875 C 406.082031 368.941406 404.371094 365.878906 404.371094 357.148438 C 404.371094 354.539062 404.371094 348.78125 406.171875 345.628906 C 407.523438 343.199219 409.863281 341.578125 412.742188 341.578125 C 415.261719 341.578125 417.332031 342.929688 418.503906 344.371094 C 420.664062 346.980469 421.113281 352.109375 421.113281 356.96875 Z M 471.242188 347.609375 L 473.761719 332.941406 L 473.222656 332.308594 C 472.59375 332.308594 471.960938 332.21875 471.332031 332.21875 C 467.640625 332.21875 463.503906 334.289062 460.621094 340.949219 L 460.890625 332.671875 L 460.171875 331.949219 C 453.511719 333.390625 451.800781 333.660156 445.230469 334.648438 L 444.691406 335.191406 C 445.230469 341.941406 445.503906 345.988281 445.503906 358.5 C 445.503906 365.878906 445.410156 373.261719 445.230469 380.730469 L 445.773438 381.269531 C 452.433594 381 453.871094 380.910156 461.070312 381 L 461.523438 380.371094 C 461.160156 373.078125 460.621094 362.910156 460.621094 356.699219 C 460.621094 352.648438 460.621094 346.710938 466.742188 346.710938 C 468.273438 346.710938 469.171875 347.25 470.433594 347.96875 Z M 495.273438 380.371094 C 494.820312 373.441406 494.460938 368.128906 494.460938 355.710938 C 494.460938 348.058594 494.640625 340.320312 494.730469 332.671875 L 494.101562 331.949219 L 478.621094 334.648438 L 478.082031 335.191406 C 478.800781 342.03125 479.070312 345.179688 479.070312 357.960938 C 479.070312 367.769531 478.800781 373.261719 478.53125 380.640625 L 479.070312 381.269531 C 485.550781 381 487.351562 380.910156 494.640625 381 L 495.273438 380.371094 M 493.832031 323.308594 L 494.101562 311.070312 L 493.5625 310.53125 L 478.890625 312.328125 L 478.351562 312.960938 C 478.53125 316.199219 478.621094 318.089844 478.621094 320.25 C 478.621094 321.960938 478.621094 323.761719 478.53125 325.46875 L 479.160156 326.011719 C 485.28125 324.929688 486.992188 324.75 493.382812 323.941406 Z M 540.453125 368.039062 C 538.023438 369.480469 535.683594 370.921875 531.09375 370.921875 C 520.921875 370.921875 518.851562 362.460938 518.851562 357.058594 C 518.851562 350.488281 521.734375 342.929688 530.464844 342.929688 C 534.421875 342.929688 536.582031 344.371094 539.285156 346.171875 L 540.183594 345.898438 C 540.542969 341.128906 540.632812 339.871094 541.351562 335.101562 L 540.902344 334.558594 C 536.941406 333.300781 533.523438 332.21875 528.304688 332.21875 C 507.152344 332.21875 503.011719 348.238281 503.011719 357.421875 C 503.011719 367.769531 508.414062 381.808594 528.664062 381.808594 C 533.433594 381.808594 536.492188 380.910156 540.273438 379.828125 L 540.8125 379.289062 L 541.171875 368.488281 Z M 586.714844 317.28125 L 575.285156 317.460938 L 574.742188 318 C 575.105469 329.699219 575.375 337.53125 575.375 347.878906 C 575.375 358.859375 575.105469 369.75 574.832031 380.730469 L 575.375 381.269531 C 582.035156 381 583.472656 380.910156 590.675781 381 L 591.125 380.460938 C 590.765625 370.648438 590.765625 368.398438 590.765625 359.21875 C 600.84375 359.308594 611.644531 359.308594 618.125 351.390625 C 620.644531 348.328125 622.804688 343.199219 622.804688 336.898438 C 622.804688 333.03125 621.902344 324.480469 614.433594 320.25 C 609.035156 317.101562 601.382812 317.101562 594.632812 317.101562 L 586.714844 317.28125 M 590.765625 328.171875 C 592.742188 328.078125 594.632812 328.078125 596.613281 328.078125 C 604.535156 328.261719 606.695312 332.308594 606.695312 337.53125 C 606.695312 338.789062 606.695312 344.011719 601.925781 346.621094 C 599.492188 347.96875 596.164062 348.148438 590.765625 348.148438 Z M 669.0625 354.179688 C 669.152344 346.078125 669.152344 342.570312 666.8125 338.789062 C 665.011719 335.910156 661.414062 332.308594 649.894531 332.308594 C 642.152344 332.308594 637.382812 333.75 632.253906 335.28125 L 631.714844 336 L 631.261719 345.808594 L 631.984375 346.171875 C 635.132812 344.910156 640.984375 342.570312 647.011719 342.570312 C 650.34375 342.570312 651.691406 343.109375 652.863281 344.28125 C 653.761719 345.179688 654.035156 346.800781 654.035156 348.148438 C 643.234375 349.589844 638.191406 350.578125 632.792969 353.910156 C 627.753906 357.058594 626.042969 362.191406 626.042969 366.238281 C 626.042969 375.871094 632.972656 382.078125 641.792969 382.078125 C 648.542969 382.078125 652.414062 378.839844 654.304688 377.308594 L 654.304688 380.640625 L 654.84375 381.269531 C 661.324219 381 663.304688 380.910156 669.152344 381 L 669.601562 380.371094 C 668.972656 371.550781 668.972656 369.300781 668.972656 360.839844 L 669.0625 354.179688 M 654.214844 368.488281 C 652.324219 369.570312 649.894531 370.828125 646.921875 370.828125 C 643.683594 370.828125 640.984375 369.121094 640.984375 365.339844 C 640.984375 359.398438 648.09375 358.410156 654.214844 357.601562 Z M 705.601562 347.609375 L 708.121094 332.941406 L 707.582031 332.308594 C 706.953125 332.308594 706.320312 332.21875 705.691406 332.21875 C 702 332.21875 697.863281 334.289062 694.980469 340.949219 L 695.25 332.671875 L 694.53125 331.949219 C 687.871094 333.390625 686.160156 333.660156 679.589844 334.648438 L 679.050781 335.191406 C 679.589844 341.941406 679.863281 345.988281 679.863281 358.5 C 679.863281 365.878906 679.769531 373.261719 679.589844 380.730469 L 680.132812 381.269531 C 686.792969 381 688.230469 380.910156 695.429688 381 L 695.882812 380.371094 C 695.519531 373.078125 694.980469 362.910156 694.980469 356.699219 C 694.980469 352.648438 694.980469 346.710938 701.101562 346.710938 C 702.632812 346.710938 703.53125 347.25 704.792969 347.96875 Z M 759.601562 379.828125 C 751.140625 365.519531 750.242188 363.898438 743.402344 351.570312 C 749.613281 343.109375 750.242188 342.210938 756.632812 334.019531 L 756.179688 333.121094 L 741.511719 333.300781 L 740.613281 333.929688 C 733.589844 346.078125 732.691406 347.519531 728.550781 353.730469 L 728.550781 343.738281 C 728.640625 326.910156 728.730469 323.308594 729.179688 309.71875 L 728.460938 309.179688 L 712.800781 311.519531 L 712.261719 312.148438 C 712.890625 320.878906 713.160156 325.109375 713.339844 336.898438 C 713.519531 351.480469 713.519531 366.058594 713.429688 380.640625 L 714.0625 381.269531 C 720.089844 381 721.800781 381 728.640625 381 L 729.179688 380.371094 L 728.640625 365.160156 L 728.550781 354.808594 C 736.382812 369.210938 737.371094 371.191406 741.960938 380.730469 L 742.769531 381.269531 L 758.972656 380.640625 Z M 758.523438 381 "/>
</svg>
