<?xml version="1.0" encoding="UTF-8"?>
<svg xmlns="http://www.w3.org/2000/svg" xmlns:xlink="http://www.w3.org/1999/xlink" width="975" height="1300" viewBox="0 0 975 1300">
<path fill-rule="nonzero" fill="rgb(98.823529%, 78.823529%, 9.019608%)" fill-opacity="1" d="M 50 50 L 925 50 L 925 290 L 50 290 Z M 50 50 "/>
<path fill-rule="nonzero" fill="rgb(34.901961%, 14.901961%, 14.901961%)" fill-opacity="1" d="M 152.914062 89.339844 L 153.453125 88.890625 L 154.085938 77.640625 L 153.632812 77.371094 L 109.085938 77.371094 L 108.453125 77.910156 L 107.824219 88.980469 L 108.273438 89.519531 L 122.945312 89.160156 C 123.035156 112.738281 123.035156 118.410156 122.316406 140.730469 L 122.855469 141.269531 C 129.515625 141 131.316406 140.910156 138.785156 140.910156 L 139.324219 140.371094 C 138.875 127.769531 138.695312 115.171875 138.695312 102.480469 C 138.695312 97.53125 138.785156 94.738281 138.964844 88.980469 Z M 205.65625 117.058594 C 205.65625 113.550781 205.65625 98.96875 193.054688 94.019531 C 189.09375 92.488281 184.414062 92.308594 182.074219 92.308594 C 166.414062 92.308594 157.59375 100.679688 157.59375 117.238281 C 157.59375 123 158.496094 128.851562 161.824219 133.710938 C 164.164062 137.21875 168.574219 142.078125 181.445312 142.078125 C 200.523438 142.078125 205.65625 130.558594 205.65625 117.058594 M 190.085938 116.96875 C 190.085938 124.351562 189.09375 132.539062 181.625 132.539062 C 179.285156 132.539062 177.664062 131.460938 176.585938 130.46875 C 175.054688 128.941406 173.34375 125.878906 173.34375 117.148438 C 173.34375 114.539062 173.34375 108.78125 175.144531 105.628906 C 176.496094 103.199219 178.835938 101.578125 181.714844 101.578125 C 184.234375 101.578125 186.304688 102.929688 187.476562 104.371094 C 189.636719 106.980469 190.085938 112.109375 190.085938 116.96875 Z M 240.214844 107.609375 L 242.734375 92.941406 L 242.195312 92.308594 C 241.566406 92.308594 240.933594 92.21875 240.304688 92.21875 C 236.613281 92.21875 232.476562 94.289062 229.59375 100.949219 L 229.863281 92.671875 L 229.144531 91.949219 C 222.484375 93.390625 220.773438 93.660156 214.203125 94.648438 L 213.664062 95.191406 C 214.203125 101.941406 214.476562 105.988281 214.476562 118.5 C 214.476562 125.878906 214.382812 133.261719 214.203125 140.730469 L 214.746094 141.269531 C 221.40625 141 222.84375 140.910156 230.042969 141 L 230.496094 140.371094 C 230.132812 133.078125 229.59375 122.910156 229.59375 116.699219 C 229.59375 112.648438 229.59375 106.710938 235.714844 106.710938 C 237.246094 106.710938 238.144531 107.25 239.40625 107.96875 Z M 273.964844 107.609375 L 276.484375 92.941406 L 275.945312 92.308594 C 275.316406 92.308594 274.683594 92.21875 274.054688 92.21875 C 270.363281 92.21875 266.226562 94.289062 263.34375 100.949219 L 263.613281 92.671875 L 262.894531 91.949219 C 256.234375 93.390625 254.523438 93.660156 247.953125 94.648438 L 247.414062 95.191406 C 247.953125 101.941406 248.226562 105.988281 248.226562 118.5 C 248.226562 125.878906 248.132812 133.261719 247.953125 140.730469 L 248.496094 141.269531 C 255.15625 141 256.59375 140.910156 263.792969 141 L 264.246094 140.371094 C 263.882812 133.078125 263.34375 122.910156 263.34375 116.699219 C 263.34375 112.648438 263.34375 106.710938 269.464844 106.710938 C 270.996094 106.710938 271.894531 107.25 273.15625 107.96875 Z M 321.664062 127.679688 C 318.246094 129.480469 314.195312 131.550781 307.625 131.550781 C 302.226562 131.550781 298.535156 129.839844 296.375 126.601562 C 295.023438 124.710938 294.753906 122.910156 294.394531 121.109375 L 323.464844 120.570312 L 324.003906 119.941406 C 323.914062 115.53125 323.824219 111.03125 322.566406 106.53125 C 319.414062 95.910156 312.484375 93.75 309.425781 93.03125 C 307.175781 92.398438 305.105469 92.21875 303.035156 92.21875 C 288.90625 92.21875 279.542969 101.488281 279.542969 117.058594 C 279.542969 121.289062 280.265625 125.699219 281.703125 128.851562 C 286.925781 141 299.164062 142.078125 305.644531 142.078125 C 313.113281 142.078125 316.355469 140.730469 321.125 138.839844 L 321.664062 138.121094 L 322.292969 127.949219 L 321.664062 127.679688 M 294.394531 111.570312 C 294.664062 108.78125 295.292969 105 298.714844 102.839844 C 299.792969 102.121094 301.054688 101.851562 302.316406 101.851562 C 305.285156 101.851562 307.085938 103.378906 308.074219 105 C 309.335938 106.980469 309.425781 109.140625 309.425781 111.210938 Z M 372.511719 93.03125 L 360.003906 93.300781 L 359.28125 93.929688 C 357.753906 100.140625 357.394531 101.488281 355.234375 108.511719 L 352.894531 116.25 L 350.914062 123 L 349.203125 116.609375 L 346.59375 107.070312 L 342.992188 93.390625 L 342.273438 92.851562 C 335.253906 93.390625 333.722656 93.480469 326.34375 93.660156 L 325.894531 94.289062 C 329.132812 102.839844 337.503906 125.429688 343.082031 142.710938 C 339.394531 152.070312 338.671875 153.691406 334.621094 162.601562 L 335.074219 163.320312 C 337.324219 163.230469 339.84375 163.140625 342.183594 163.140625 C 344.433594 163.140625 346.773438 163.230469 349.023438 163.230469 L 349.652344 162.691406 C 354.601562 143.25 357.03125 135.691406 368.914062 104.371094 C 370.261719 100.769531 371.613281 97.261719 372.871094 93.75 Z M 415.625 77.28125 L 404.195312 77.460938 L 403.652344 78 C 404.015625 89.699219 404.285156 97.53125 404.285156 107.878906 C 404.285156 118.859375 404.015625 129.75 403.742188 140.730469 L 404.285156 141.269531 C 410.945312 141 412.382812 140.910156 419.585938 141 L 420.035156 140.460938 C 419.675781 130.648438 419.675781 128.398438 419.675781 119.21875 C 429.753906 119.308594 440.554688 119.308594 447.035156 111.390625 C 449.554688 108.328125 451.714844 103.199219 451.714844 96.898438 C 451.714844 93.03125 450.8125 84.480469 443.34375 80.25 C 437.945312 77.101562 430.292969 77.101562 423.542969 77.101562 L 415.625 77.28125 M 419.675781 88.171875 C 421.652344 88.078125 423.542969 88.078125 425.523438 88.078125 C 433.445312 88.261719 435.605469 92.308594 435.605469 97.53125 C 435.605469 98.789062 435.605469 104.011719 430.835938 106.621094 C 428.402344 107.96875 425.074219 108.148438 419.675781 108.148438 Z M 474.214844 140.371094 C 473.761719 133.441406 473.402344 128.128906 473.402344 115.710938 C 473.402344 108.058594 473.582031 100.320312 473.671875 92.671875 L 473.042969 91.949219 L 457.5625 94.648438 L 457.023438 95.191406 C 457.742188 102.03125 458.011719 105.179688 458.011719 117.960938 C 458.011719 127.769531 457.742188 133.261719 457.472656 140.640625 L 458.011719 141.269531 C 464.492188 141 466.292969 140.910156 473.582031 141 L 474.214844 140.371094 M 472.773438 83.308594 L 473.042969 71.070312 L 472.503906 70.53125 L 457.832031 72.328125 L 457.292969 72.960938 C 457.472656 76.199219 457.5625 78.089844 457.5625 80.25 C 457.5625 81.960938 457.5625 83.761719 457.472656 85.46875 L 458.101562 86.011719 C 464.222656 84.929688 465.933594 84.75 472.324219 83.941406 Z M 528.304688 140.371094 C 527.855469 132.449219 527.855469 129.929688 527.675781 121.109375 L 527.675781 114.089844 C 527.585938 105.449219 527.496094 101.308594 525.246094 97.621094 C 522.453125 92.941406 517.324219 92.21875 514.085938 92.21875 C 508.59375 92.21875 503.824219 95.101562 499.683594 97.53125 L 499.863281 92.578125 L 498.964844 91.949219 C 492.035156 93.390625 490.503906 93.660156 483.753906 94.558594 L 483.214844 95.191406 C 483.933594 103.019531 484.476562 108.691406 484.476562 123.359375 C 484.476562 129.121094 484.382812 134.878906 484.292969 140.640625 L 484.835938 141.179688 C 491.316406 140.910156 492.664062 140.910156 499.863281 140.910156 L 500.40625 140.371094 C 499.863281 126.511719 499.773438 123 499.683594 106.890625 C 501.574219 105.628906 503.734375 104.101562 506.613281 104.101562 C 511.566406 104.101562 512.015625 109.410156 512.285156 112.648438 C 512.464844 115.621094 512.554688 127.949219 512.554688 131.371094 C 512.554688 134.429688 512.464844 137.578125 512.464844 140.640625 L 513.003906 141.179688 C 518.945312 141 520.476562 140.910156 527.675781 140.910156 Z M 578.523438 127.679688 C 575.105469 129.480469 571.054688 131.550781 564.484375 131.550781 C 559.085938 131.550781 555.394531 129.839844 553.234375 126.601562 C 551.882812 124.710938 551.613281 122.910156 551.253906 121.109375 L 580.324219 120.570312 L 580.863281 119.941406 C 580.773438 115.53125 580.683594 111.03125 579.425781 106.53125 C 576.273438 95.910156 569.34375 93.75 566.285156 93.03125 C 564.035156 92.398438 561.964844 92.21875 559.894531 92.21875 C 545.765625 92.21875 536.402344 101.488281 536.402344 117.058594 C 536.402344 121.289062 537.125 125.699219 538.5625 128.851562 C 543.785156 141 556.023438 142.078125 562.503906 142.078125 C 569.972656 142.078125 573.214844 140.730469 577.984375 138.839844 L 578.523438 138.121094 L 579.152344 127.949219 L 578.523438 127.679688 M 551.253906 111.570312 C 551.523438 108.78125 552.152344 105 555.574219 102.839844 C 556.652344 102.121094 557.914062 101.851562 559.175781 101.851562 C 562.144531 101.851562 563.945312 103.378906 564.933594 105 C 566.195312 106.980469 566.285156 109.140625 566.285156 111.210938 Z M 608.046875 109.949219 C 604.984375 108.871094 602.554688 107.878906 602.554688 105.359375 C 602.554688 104.28125 603.277344 101.308594 608.855469 101.308594 C 614.347656 101.308594 617.855469 103.648438 620.105469 105.089844 L 620.917969 104.820312 L 621.816406 95.011719 L 621.367188 94.46875 C 617.136719 93.300781 613.445312 92.21875 607.597656 92.21875 C 603.1875 92.21875 594.367188 92.578125 589.6875 99.328125 C 588.515625 100.949219 587.257812 103.648438 587.257812 107.25 C 587.257812 116.878906 594.726562 119.761719 598.957031 121.378906 L 602.375 122.640625 C 604.804688 123.449219 608.765625 124.800781 608.765625 128.039062 C 608.765625 130.289062 606.695312 132.71875 601.65625 132.71875 C 599.136719 132.71875 595.445312 131.910156 592.117188 130.199219 C 590.585938 129.390625 589.867188 128.761719 588.515625 127.679688 L 587.707031 128.039062 C 587.527344 132.71875 587.4375 133.710938 587.074219 138.210938 L 587.527344 139.019531 C 591.9375 140.640625 595.714844 142.078125 602.285156 142.078125 C 609.125 142.078125 622.625 140.820312 624.246094 127.949219 C 624.335938 127.230469 624.335938 126.601562 624.335938 125.96875 C 624.335938 116.070312 617.40625 113.460938 612.457031 111.570312 Z M 684.542969 102.300781 C 676.984375 99.148438 673.023438 97.53125 673.023438 93.480469 C 673.023438 90.691406 675.632812 87.179688 681.574219 87.179688 C 688.414062 87.179688 692.460938 89.96875 695.792969 92.21875 L 696.601562 91.859375 L 697.324219 80.070312 L 696.871094 79.441406 C 693.003906 77.820312 688.953125 76.109375 680.222656 76.109375 C 663.304688 76.109375 657.453125 85.648438 657.453125 95.28125 C 657.453125 106.171875 665.914062 110.128906 670.953125 112.558594 L 673.921875 113.910156 C 680.132812 116.519531 684.902344 118.769531 684.902344 123.539062 C 684.902344 126.960938 681.933594 131.011719 674.101562 131.011719 C 665.914062 131.011719 661.324219 127.410156 658.710938 125.339844 L 657.8125 125.609375 L 657.183594 138.300781 L 657.722656 139.019531 C 658.710938 139.378906 659.703125 139.828125 660.691406 140.101562 C 662.761719 140.820312 668.074219 142.351562 674.824219 142.351562 C 677.523438 142.351562 684.363281 142.078125 689.761719 139.558594 C 697.324219 135.871094 700.5625 129.03125 700.5625 121.378906 C 700.5625 116.25 698.582031 110.761719 693.8125 107.070312 C 691.382812 105.269531 689.042969 104.191406 686.882812 103.199219 Z M 734.316406 130.648438 C 732.785156 131.101562 731.703125 131.460938 730.175781 131.460938 C 725.585938 131.460938 725.226562 128.578125 725.042969 127.230469 C 724.773438 124.890625 724.773438 119.941406 724.863281 116.339844 L 725.042969 103.648438 L 733.144531 104.011719 L 733.683594 103.46875 L 734.585938 93.839844 L 734.042969 93.300781 L 725.042969 93.300781 L 725.316406 78.179688 L 724.683594 77.640625 C 718.566406 79.441406 716.945312 79.890625 710.554688 81.511719 L 710.195312 82.140625 L 710.285156 93.390625 L 705.425781 93.210938 L 704.886719 93.660156 L 704.074219 103.289062 L 704.613281 103.828125 L 710.285156 103.648438 L 710.015625 117.960938 C 709.925781 120.210938 709.835938 122.460938 709.835938 124.800781 C 709.835938 133.078125 710.015625 141.988281 724.054688 141.988281 C 727.566406 141.988281 730.355469 141.449219 733.503906 140.910156 L 734.136719 140.28125 L 735.035156 131.011719 Z M 781.023438 114.179688 C 781.113281 106.078125 781.113281 102.570312 778.773438 98.789062 C 776.972656 95.910156 773.375 92.308594 761.855469 92.308594 C 754.113281 92.308594 749.34375 93.75 744.214844 95.28125 L 743.675781 96 L 743.222656 105.808594 L 743.945312 106.171875 C 747.09375 104.910156 752.945312 102.570312 758.972656 102.570312 C 762.304688 102.570312 763.652344 103.109375 764.824219 104.28125 C 765.722656 105.179688 765.996094 106.800781 765.996094 108.148438 C 755.195312 109.589844 750.152344 110.578125 744.753906 113.910156 C 739.714844 117.058594 738.003906 122.191406 738.003906 126.238281 C 738.003906 135.871094 744.933594 142.078125 753.753906 142.078125 C 760.503906 142.078125 764.375 138.839844 766.265625 137.308594 L 766.265625 140.640625 L 766.804688 141.269531 C 773.285156 141 775.265625 140.910156 781.113281 141 L 781.5625 140.371094 C 780.933594 131.550781 780.933594 129.300781 780.933594 120.839844 L 781.023438 114.179688 M 766.175781 128.488281 C 764.285156 129.570312 761.855469 130.828125 758.882812 130.828125 C 755.644531 130.828125 752.945312 129.121094 752.945312 125.339844 C 752.945312 119.398438 760.054688 118.410156 766.175781 117.601562 Z M 816.757812 130.648438 C 815.226562 131.101562 814.144531 131.460938 812.617188 131.460938 C 808.027344 131.460938 807.667969 128.578125 807.484375 127.230469 C 807.214844 124.890625 807.214844 119.941406 807.304688 116.339844 L 807.484375 103.648438 L 815.585938 104.011719 L 816.125 103.46875 L 817.027344 93.839844 L 816.484375 93.300781 L 807.484375 93.300781 L 807.757812 78.179688 L 807.125 77.640625 C 801.007812 79.441406 799.386719 79.890625 792.996094 81.511719 L 792.636719 82.140625 L 792.726562 93.390625 L 787.867188 93.210938 L 787.328125 93.660156 L 786.515625 103.289062 L 787.054688 103.828125 L 792.726562 103.648438 L 792.457031 117.960938 C 792.367188 120.210938 792.277344 122.460938 792.277344 124.800781 C 792.277344 133.078125 792.457031 141.988281 806.496094 141.988281 C 810.007812 141.988281 812.796875 141.449219 815.945312 140.910156 L 816.578125 140.28125 L 817.476562 131.011719 Z M 863.375 127.679688 C 859.957031 129.480469 855.90625 131.550781 849.335938 131.550781 C 843.9375 131.550781 840.246094 129.839844 838.085938 126.601562 C 836.734375 124.710938 836.464844 122.910156 836.105469 121.109375 L 865.175781 120.570312 L 865.714844 119.941406 C 865.625 115.53125 865.535156 111.03125 864.277344 106.53125 C 861.125 95.910156 854.195312 93.75 851.136719 93.03125 C 848.886719 92.398438 846.816406 92.21875 844.746094 92.21875 C 830.617188 92.21875 821.253906 101.488281 821.253906 117.058594 C 821.253906 121.289062 821.976562 125.699219 823.414062 128.851562 C 828.636719 141 840.875 142.078125 847.355469 142.078125 C 854.824219 142.078125 858.066406 140.730469 862.835938 138.839844 L 863.375 138.121094 L 864.003906 127.949219 L 863.375 127.679688 M 836.105469 111.570312 C 836.375 108.78125 837.003906 105 840.425781 102.839844 C 841.503906 102.121094 842.765625 101.851562 844.027344 101.851562 C 846.996094 101.851562 848.796875 103.378906 849.785156 105 C 851.046875 106.980469 851.136719 109.140625 851.136719 111.210938 Z M 868.59375 141 "/>
<path fill-rule="nonzero" fill="rgb(34.901961%, 14.901961%, 14.901961%)" fill-opacity="1" d="M 385.519531 261 C 393.890625 261.179688 404.238281 261.359375 410.988281 256.679688 C 416.929688 252.449219 418.550781 246.511719 418.550781 241.46875 C 418.550781 235.710938 416.117188 230.398438 410.988281 227.878906 C 409.277344 226.980469 407.300781 226.621094 405.410156 226.261719 C 408.46875 225 412.070312 223.378906 414.410156 218.609375 C 415.398438 216.539062 415.847656 214.378906 415.847656 212.308594 C 415.847656 209.429688 415.128906 205.46875 412.25 202.230469 C 408.46875 198.179688 402.617188 197.101562 393.800781 197.101562 C 390.738281 197.101562 385.25 197.191406 382.1875 197.28125 L 369.589844 197.460938 L 369.050781 198 C 369.410156 206.640625 369.5 209.96875 369.5 222.390625 C 369.5 235.171875 369.410156 247.859375 369.230469 260.640625 L 369.859375 261 L 385.519531 261 M 384.890625 233.640625 C 391.730469 233.460938 395.6875 233.460938 398.300781 234.988281 C 400.910156 236.609375 401.898438 239.488281 401.898438 242.371094 C 401.898438 246.421875 399.648438 248.941406 396.320312 250.109375 C 393.617188 251.011719 388.757812 251.011719 384.890625 250.921875 L 384.890625 233.640625 M 384.890625 207.179688 C 386.777344 207.179688 389.300781 207.089844 390.828125 207.089844 C 395.6875 207.089844 400.097656 208.800781 400.097656 214.648438 C 400.097656 219.421875 396.589844 221.398438 395.507812 221.941406 C 393.257812 222.929688 388.488281 222.929688 384.890625 222.929688 Z M 466.878906 247.679688 C 463.460938 249.480469 459.410156 251.550781 452.839844 251.550781 C 447.441406 251.550781 443.75 249.839844 441.589844 246.601562 C 440.238281 244.710938 439.96875 242.910156 439.609375 241.109375 L 468.679688 240.570312 L 469.21875 239.941406 C 469.128906 235.53125 469.039062 231.03125 467.78125 226.53125 C 464.628906 215.910156 457.699219 213.75 454.640625 213.03125 C 452.390625 212.398438 450.320312 212.21875 448.25 212.21875 C 434.121094 212.21875 424.757812 221.488281 424.757812 237.058594 C 424.757812 241.289062 425.480469 245.699219 426.917969 248.851562 C 432.140625 261 444.378906 262.078125 450.859375 262.078125 C 458.328125 262.078125 461.570312 260.730469 466.339844 258.839844 L 466.878906 258.121094 L 467.507812 247.949219 L 466.878906 247.679688 M 439.609375 231.570312 C 439.878906 228.78125 440.507812 225 443.929688 222.839844 C 445.007812 222.121094 446.269531 221.851562 447.53125 221.851562 C 450.5 221.851562 452.300781 223.378906 453.289062 225 C 454.550781 226.980469 454.640625 229.140625 454.640625 231.210938 Z M 517.546875 234.179688 C 517.636719 226.078125 517.636719 222.570312 515.296875 218.789062 C 513.496094 215.910156 509.898438 212.308594 498.378906 212.308594 C 490.636719 212.308594 485.867188 213.75 480.738281 215.28125 L 480.199219 216 L 479.746094 225.808594 L 480.46875 226.171875 C 483.617188 224.910156 489.46875 222.570312 495.496094 222.570312 C 498.828125 222.570312 500.175781 223.109375 501.347656 224.28125 C 502.246094 225.179688 502.519531 226.800781 502.519531 228.148438 C 491.71875 229.589844 486.675781 230.578125 481.277344 233.910156 C 476.238281 237.058594 474.527344 242.191406 474.527344 246.238281 C 474.527344 255.871094 481.457031 262.078125 490.277344 262.078125 C 497.027344 262.078125 500.898438 258.839844 502.789062 257.308594 L 502.789062 260.640625 L 503.328125 261.269531 C 509.808594 261 511.789062 260.910156 517.636719 261 L 518.085938 260.371094 C 517.457031 251.550781 517.457031 249.300781 517.457031 240.839844 L 517.546875 234.179688 M 502.699219 248.488281 C 500.808594 249.570312 498.378906 250.828125 495.40625 250.828125 C 492.167969 250.828125 489.46875 249.121094 489.46875 245.339844 C 489.46875 239.398438 496.578125 238.410156 502.699219 237.601562 Z M 563.269531 248.039062 C 560.839844 249.480469 558.5 250.921875 553.910156 250.921875 C 543.738281 250.921875 541.667969 242.460938 541.667969 237.058594 C 541.667969 230.488281 544.550781 222.929688 553.28125 222.929688 C 557.238281 222.929688 559.398438 224.371094 562.101562 226.171875 L 563 225.898438 C 563.359375 221.128906 563.449219 219.871094 564.167969 215.101562 L 563.71875 214.558594 C 559.757812 213.300781 556.339844 212.21875 551.121094 212.21875 C 529.96875 212.21875 525.828125 228.238281 525.828125 237.421875 C 525.828125 247.769531 531.230469 261.808594 551.480469 261.808594 C 556.25 261.808594 559.308594 260.910156 563.089844 259.828125 L 563.628906 259.289062 L 563.988281 248.488281 Z M 615.289062 260.371094 C 614.929688 252.988281 614.839844 250.46875 614.660156 241.109375 L 614.660156 234.359375 C 614.570312 225.808594 614.480469 220.859375 611.867188 217.078125 C 609.257812 213.390625 605.480469 212.21875 601.519531 212.21875 C 594.949219 212.21875 589.820312 215.371094 586.21875 217.53125 L 586.488281 189.808594 L 585.949219 189.179688 L 570.558594 191.609375 L 570.109375 192.148438 C 570.917969 200.878906 571.097656 204.121094 571.277344 215.730469 C 571.460938 223.019531 571.550781 230.308594 571.550781 237.601562 C 571.550781 246.511719 571.367188 251.820312 571.1875 260.640625 L 571.640625 261.269531 C 578.300781 260.910156 579.648438 260.910156 586.9375 260.910156 L 587.480469 260.371094 C 586.847656 246.871094 586.757812 242.820312 586.667969 226.890625 C 588.378906 225.71875 590.539062 224.191406 593.597656 224.191406 C 598.550781 224.191406 598.910156 229.320312 599.269531 232.921875 C 599.449219 235.710938 599.539062 248.488281 599.539062 251.820312 C 599.539062 254.789062 599.449219 257.671875 599.449219 260.640625 L 599.898438 261.269531 C 606.378906 260.910156 607.820312 260.910156 614.75 260.910156 Z M 620.148438 261 "/>
</svg>
