<?xml version="1.0" encoding="UTF-8"?>
<svg xmlns="http://www.w3.org/2000/svg" xmlns:xlink="http://www.w3.org/1999/xlink" width="975" height="1300" viewBox="0 0 975 1300">
<path fill-rule="nonzero" fill="rgb(98.823529%, 78.823529%, 9.019608%)" fill-opacity="1" d="M 50 50 L 925 50 L 925 290 L 50 290 Z M 50 50 "/>
<path fill-rule="nonzero" fill="rgb(34.901961%, 14.901961%, 14.901961%)" fill-opacity="1" d="M 227.164062 77.191406 C 217.804688 77.460938 216.273438 77.460938 206.285156 77.460938 L 205.746094 78 L 201.605469 92.578125 L 198.003906 105.628906 L 193.773438 121.289062 L 189.8125 105.179688 L 187.292969 95.011719 L 182.792969 77.730469 L 182.34375 77.191406 C 172.714844 77.460938 171.09375 77.460938 161.015625 77.460938 L 160.472656 78 C 159.574219 104.910156 159.214844 111.839844 157.234375 140.730469 L 157.683594 141.269531 C 163.445312 141 165.15625 140.910156 170.375 141 L 170.914062 140.460938 L 171.183594 123.269531 L 171.722656 105.808594 L 172.085938 88.800781 L 176.042969 104.730469 L 179.464844 117.511719 L 185.496094 140.730469 L 186.035156 141.269531 C 191.613281 141 193.144531 140.910156 199.445312 141 L 199.984375 140.460938 L 205.203125 121.289062 L 208.804688 108.148438 L 213.84375 89.25 L 213.84375 105.359375 L 214.023438 119.128906 L 214.023438 140.730469 L 214.472656 141.269531 C 220.683594 141 223.113281 140.910156 230.042969 141 L 230.496094 140.460938 C 229.953125 130.199219 229.324219 119.851562 228.964844 109.5 C 228.695312 103.828125 228.515625 98.160156 228.246094 92.488281 C 227.792969 84.121094 227.703125 83.039062 227.703125 77.730469 Z M 286.476562 117.058594 C 286.476562 113.550781 286.476562 98.96875 273.875 94.019531 C 269.914062 92.488281 265.234375 92.308594 262.894531 92.308594 C 247.234375 92.308594 238.414062 100.679688 238.414062 117.238281 C 238.414062 123 239.316406 128.851562 242.644531 133.710938 C 244.984375 137.21875 249.394531 142.078125 262.265625 142.078125 C 281.34375 142.078125 286.476562 130.558594 286.476562 117.058594 M 270.90625 116.96875 C 270.90625 124.351562 269.914062 132.539062 262.445312 132.539062 C 260.105469 132.539062 258.484375 131.460938 257.40625 130.46875 C 255.875 128.941406 254.164062 125.878906 254.164062 117.148438 C 254.164062 114.539062 254.164062 108.78125 255.964844 105.628906 C 257.316406 103.199219 259.65625 101.578125 262.535156 101.578125 C 265.054688 101.578125 267.125 102.929688 268.296875 104.371094 C 270.457031 106.980469 270.90625 112.109375 270.90625 116.96875 Z M 340.835938 117.058594 C 340.835938 113.550781 340.835938 98.96875 328.234375 94.019531 C 324.273438 92.488281 319.59375 92.308594 317.253906 92.308594 C 301.59375 92.308594 292.773438 100.679688 292.773438 117.238281 C 292.773438 123 293.675781 128.851562 297.003906 133.710938 C 299.34375 137.21875 303.753906 142.078125 316.625 142.078125 C 335.703125 142.078125 340.835938 130.558594 340.835938 117.058594 M 325.265625 116.96875 C 325.265625 124.351562 324.273438 132.539062 316.804688 132.539062 C 314.464844 132.539062 312.84375 131.460938 311.765625 130.46875 C 310.234375 128.941406 308.523438 125.878906 308.523438 117.148438 C 308.523438 114.539062 308.523438 108.78125 310.324219 105.628906 C 311.675781 103.199219 314.015625 101.578125 316.894531 101.578125 C 319.414062 101.578125 321.484375 102.929688 322.65625 104.371094 C 324.816406 106.980469 325.265625 112.109375 325.265625 116.96875 Z M 393.484375 140.371094 C 393.035156 132.449219 393.035156 129.929688 392.855469 121.109375 L 392.855469 114.089844 C 392.765625 105.449219 392.675781 101.308594 390.425781 97.621094 C 387.632812 92.941406 382.503906 92.21875 379.265625 92.21875 C 373.773438 92.21875 369.003906 95.101562 364.863281 97.53125 L 365.042969 92.578125 L 364.144531 91.949219 C 357.214844 93.390625 355.683594 93.660156 348.933594 94.558594 L 348.394531 95.191406 C 349.113281 103.019531 349.65625 108.691406 349.65625 123.359375 C 349.65625 129.121094 349.5625 134.878906 349.472656 140.640625 L 350.015625 141.179688 C 356.496094 140.910156 357.84375 140.910156 365.042969 140.910156 L 365.585938 140.371094 C 365.042969 126.511719 364.953125 123 364.863281 106.890625 C 366.753906 105.628906 368.914062 104.101562 371.792969 104.101562 C 376.746094 104.101562 377.195312 109.410156 377.464844 112.648438 C 377.644531 115.621094 377.734375 127.949219 377.734375 131.371094 C 377.734375 134.429688 377.644531 137.578125 377.644531 140.640625 L 378.183594 141.179688 C 384.125 141 385.65625 140.910156 392.855469 140.910156 Z M 419.582031 140.371094 C 419.132812 130.019531 418.683594 120.570312 418.683594 92.128906 C 418.683594 83.578125 418.773438 79.53125 419.132812 69.808594 L 418.503906 69.179688 L 403.113281 71.609375 L 402.753906 72.148438 C 403.652344 83.128906 403.742188 86.101562 403.921875 100.679688 C 404.015625 105.988281 404.015625 111.300781 404.015625 116.609375 C 404.015625 126.328125 403.832031 131.730469 403.472656 140.640625 L 404.015625 141.269531 C 410.042969 141 412.472656 140.910156 419.042969 141 Z M 446.316406 140.371094 C 445.863281 133.441406 445.503906 128.128906 445.503906 115.710938 C 445.503906 108.058594 445.683594 100.320312 445.773438 92.671875 L 445.144531 91.949219 L 429.664062 94.648438 L 429.125 95.191406 C 429.84375 102.03125 430.113281 105.179688 430.113281 117.960938 C 430.113281 127.769531 429.84375 133.261719 429.574219 140.640625 L 430.113281 141.269531 C 436.59375 141 438.394531 140.910156 445.683594 141 L 446.316406 140.371094 M 444.875 83.308594 L 445.144531 71.070312 L 444.605469 70.53125 L 429.933594 72.328125 L 429.394531 72.960938 C 429.574219 76.199219 429.664062 78.089844 429.664062 80.25 C 429.664062 81.960938 429.664062 83.761719 429.574219 85.46875 L 430.203125 86.011719 C 436.324219 84.929688 438.035156 84.75 444.425781 83.941406 Z M 472.867188 125.789062 C 475.746094 125.878906 478.625 126.058594 482.945312 124.621094 C 487.625 123 494.464844 119.128906 494.464844 110.398438 C 494.464844 106.078125 493.207031 104.28125 492.035156 102.570312 L 498.246094 102.929688 L 498.785156 102.480469 L 499.417969 93.480469 L 498.875 93.03125 C 491.945312 93.300781 490.054688 93.390625 484.386719 93.300781 L 480.246094 93.210938 C 473.855469 93.03125 465.304688 92.851562 459.457031 97.710938 C 457.476562 99.238281 453.695312 103.109375 453.695312 109.859375 C 453.695312 113.460938 454.6875 116.339844 456.304688 118.589844 C 458.285156 121.378906 460.085938 122.371094 462.335938 123.628906 C 459.816406 128.488281 458.464844 130.921875 456.394531 134.609375 L 456.394531 135.421875 L 460.175781 138.121094 C 457.476562 140.191406 453.246094 143.609375 453.246094 149.460938 C 453.246094 153.601562 455.496094 157.199219 458.828125 159.628906 C 463.867188 163.230469 470.707031 163.410156 474.214844 163.410156 C 490.6875 163.410156 498.246094 155.128906 498.246094 146.398438 C 498.246094 135.058594 488.347656 132.898438 482.496094 131.550781 L 480.335938 131.191406 C 475.925781 130.46875 474.9375 130.199219 471.425781 128.941406 L 472.867188 125.789062 M 480.246094 109.589844 C 480.15625 116.878906 475.746094 117.511719 474.484375 117.511719 C 473.765625 117.511719 470.617188 117.328125 469.085938 113.730469 C 468.277344 111.839844 468.277344 109.679688 468.277344 109.050781 C 468.277344 104.550781 470.976562 101.671875 474.304688 101.671875 C 478.445312 101.671875 480.335938 105.628906 480.246094 109.589844 M 472.597656 143.160156 C 480.605469 145.230469 480.695312 145.230469 481.777344 146.128906 C 482.675781 146.761719 483.578125 147.75 483.578125 149.640625 C 483.578125 152.339844 481.328125 155.128906 475.386719 155.128906 C 468.726562 155.128906 466.476562 151.351562 466.476562 148.199219 C 466.476562 145.230469 468.007812 143.519531 469.085938 142.261719 Z M 549.183594 140.371094 C 548.824219 132.988281 548.734375 130.46875 548.554688 121.109375 L 548.554688 114.359375 C 548.464844 105.808594 548.375 100.859375 545.761719 97.078125 C 543.152344 93.390625 539.375 92.21875 535.414062 92.21875 C 528.84375 92.21875 523.714844 95.371094 520.113281 97.53125 L 520.382812 69.808594 L 519.84375 69.179688 L 504.453125 71.609375 L 504.003906 72.148438 C 504.8125 80.878906 504.992188 84.121094 505.171875 95.730469 C 505.355469 103.019531 505.445312 110.308594 505.445312 117.601562 C 505.445312 126.511719 505.261719 131.820312 505.082031 140.640625 L 505.535156 141.269531 C 512.195312 140.910156 513.542969 140.910156 520.832031 140.910156 L 521.375 140.371094 C 520.742188 126.871094 520.652344 122.820312 520.5625 106.890625 C 522.273438 105.71875 524.433594 104.191406 527.492188 104.191406 C 532.445312 104.191406 532.804688 109.320312 533.164062 112.921875 C 533.34375 115.710938 533.433594 128.488281 533.433594 131.820312 C 533.433594 134.789062 533.34375 137.671875 533.34375 140.640625 L 533.792969 141.269531 C 540.273438 140.910156 541.714844 140.910156 548.644531 140.910156 Z M 584.644531 130.648438 C 583.113281 131.101562 582.03125 131.460938 580.503906 131.460938 C 575.914062 131.460938 575.554688 128.578125 575.371094 127.230469 C 575.101562 124.890625 575.101562 119.941406 575.191406 116.339844 L 575.371094 103.648438 L 583.472656 104.011719 L 584.011719 103.46875 L 584.914062 93.839844 L 584.371094 93.300781 L 575.371094 93.300781 L 575.644531 78.179688 L 575.011719 77.640625 C 568.894531 79.441406 567.273438 79.890625 560.882812 81.511719 L 560.523438 82.140625 L 560.613281 93.390625 L 555.753906 93.210938 L 555.214844 93.660156 L 554.402344 103.289062 L 554.941406 103.828125 L 560.613281 103.648438 L 560.34375 117.960938 C 560.253906 120.210938 560.164062 122.460938 560.164062 124.800781 C 560.164062 133.078125 560.34375 141.988281 574.382812 141.988281 C 577.894531 141.988281 580.683594 141.449219 583.832031 140.910156 L 584.464844 140.28125 L 585.363281 131.011719 Z M 643.59375 102.300781 C 636.035156 99.148438 632.074219 97.53125 632.074219 93.480469 C 632.074219 90.691406 634.683594 87.179688 640.625 87.179688 C 647.464844 87.179688 651.511719 89.96875 654.84375 92.21875 L 655.652344 91.859375 L 656.375 80.070312 L 655.921875 79.441406 C 652.054688 77.820312 648.003906 76.109375 639.273438 76.109375 C 622.355469 76.109375 616.503906 85.648438 616.503906 95.28125 C 616.503906 106.171875 624.964844 110.128906 630.003906 112.558594 L 632.972656 113.910156 C 639.183594 116.519531 643.953125 118.769531 643.953125 123.539062 C 643.953125 126.960938 640.984375 131.011719 633.152344 131.011719 C 624.964844 131.011719 620.375 127.410156 617.761719 125.339844 L 616.863281 125.609375 L 616.234375 138.300781 L 616.773438 139.019531 C 617.761719 139.378906 618.753906 139.828125 619.742188 140.101562 C 621.8125 140.820312 627.125 142.351562 633.875 142.351562 C 636.574219 142.351562 643.414062 142.078125 648.8125 139.558594 C 656.375 135.871094 659.613281 129.03125 659.613281 121.378906 C 659.613281 116.25 657.632812 110.761719 652.863281 107.070312 C 650.433594 105.269531 648.09375 104.191406 645.933594 103.199219 Z M 693.367188 130.648438 C 691.835938 131.101562 690.753906 131.460938 689.226562 131.460938 C 684.636719 131.460938 684.277344 128.578125 684.09375 127.230469 C 683.824219 124.890625 683.824219 119.941406 683.914062 116.339844 L 684.09375 103.648438 L 692.195312 104.011719 L 692.734375 103.46875 L 693.636719 93.839844 L 693.09375 93.300781 L 684.09375 93.300781 L 684.367188 78.179688 L 683.734375 77.640625 C 677.617188 79.441406 675.996094 79.890625 669.605469 81.511719 L 669.246094 82.140625 L 669.335938 93.390625 L 664.476562 93.210938 L 663.9375 93.660156 L 663.125 103.289062 L 663.664062 103.828125 L 669.335938 103.648438 L 669.066406 117.960938 C 668.976562 120.210938 668.886719 122.460938 668.886719 124.800781 C 668.886719 133.078125 669.066406 141.988281 683.105469 141.988281 C 686.617188 141.988281 689.40625 141.449219 692.554688 140.910156 L 693.1875 140.28125 L 694.085938 131.011719 Z M 740.074219 114.179688 C 740.164062 106.078125 740.164062 102.570312 737.824219 98.789062 C 736.023438 95.910156 732.425781 92.308594 720.90625 92.308594 C 713.164062 92.308594 708.394531 93.75 703.265625 95.28125 L 702.726562 96 L 702.273438 105.808594 L 702.996094 106.171875 C 706.144531 104.910156 711.996094 102.570312 718.023438 102.570312 C 721.355469 102.570312 722.703125 103.109375 723.875 104.28125 C 724.773438 105.179688 725.046875 106.800781 725.046875 108.148438 C 714.246094 109.589844 709.203125 110.578125 703.804688 113.910156 C 698.765625 117.058594 697.054688 122.191406 697.054688 126.238281 C 697.054688 135.871094 703.984375 142.078125 712.804688 142.078125 C 719.554688 142.078125 723.425781 138.839844 725.316406 137.308594 L 725.316406 140.640625 L 725.855469 141.269531 C 732.335938 141 734.316406 140.910156 740.164062 141 L 740.613281 140.371094 C 739.984375 131.550781 739.984375 129.300781 739.984375 120.839844 L 740.074219 114.179688 M 725.226562 128.488281 C 723.335938 129.570312 720.90625 130.828125 717.933594 130.828125 C 714.695312 130.828125 711.996094 129.121094 711.996094 125.339844 C 711.996094 119.398438 719.105469 118.410156 725.226562 117.601562 Z M 775.804688 130.648438 C 774.273438 131.101562 773.191406 131.460938 771.664062 131.460938 C 767.074219 131.460938 766.714844 128.578125 766.53125 127.230469 C 766.261719 124.890625 766.261719 119.941406 766.351562 116.339844 L 766.53125 103.648438 L 774.632812 104.011719 L 775.171875 103.46875 L 776.074219 93.839844 L 775.53125 93.300781 L 766.53125 93.300781 L 766.804688 78.179688 L 766.171875 77.640625 C 760.054688 79.441406 758.433594 79.890625 752.042969 81.511719 L 751.683594 82.140625 L 751.773438 93.390625 L 746.914062 93.210938 L 746.375 93.660156 L 745.5625 103.289062 L 746.101562 103.828125 L 751.773438 103.648438 L 751.503906 117.960938 C 751.414062 120.210938 751.324219 122.460938 751.324219 124.800781 C 751.324219 133.078125 751.503906 141.988281 765.542969 141.988281 C 769.054688 141.988281 771.84375 141.449219 774.992188 140.910156 L 775.625 140.28125 L 776.523438 131.011719 Z M 822.421875 127.679688 C 819.003906 129.480469 814.953125 131.550781 808.382812 131.550781 C 802.984375 131.550781 799.292969 129.839844 797.132812 126.601562 C 795.78125 124.710938 795.511719 122.910156 795.152344 121.109375 L 824.222656 120.570312 L 824.761719 119.941406 C 824.671875 115.53125 824.582031 111.03125 823.324219 106.53125 C 820.171875 95.910156 813.242188 93.75 810.183594 93.03125 C 807.933594 92.398438 805.863281 92.21875 803.792969 92.21875 C 789.664062 92.21875 780.300781 101.488281 780.300781 117.058594 C 780.300781 121.289062 781.023438 125.699219 782.460938 128.851562 C 787.683594 141 799.921875 142.078125 806.402344 142.078125 C 813.871094 142.078125 817.113281 140.730469 821.882812 138.839844 L 822.421875 138.121094 L 823.050781 127.949219 L 822.421875 127.679688 M 795.152344 111.570312 C 795.421875 108.78125 796.050781 105 799.472656 102.839844 C 800.550781 102.121094 801.8125 101.851562 803.074219 101.851562 C 806.042969 101.851562 807.84375 103.378906 808.832031 105 C 810.09375 106.980469 810.183594 109.140625 810.183594 111.210938 Z M 827.644531 141 "/>
<path fill-rule="nonzero" fill="rgb(34.901961%, 14.901961%, 14.901961%)" fill-opacity="1" d="M 385.519531 261 C 393.890625 261.179688 404.238281 261.359375 410.988281 256.679688 C 416.929688 252.449219 418.550781 246.511719 418.550781 241.46875 C 418.550781 235.710938 416.117188 230.398438 410.988281 227.878906 C 409.277344 226.980469 407.300781 226.621094 405.410156 226.261719 C 408.46875 225 412.070312 223.378906 414.410156 218.609375 C 415.398438 216.539062 415.847656 214.378906 415.847656 212.308594 C 415.847656 209.429688 415.128906 205.46875 412.25 202.230469 C 408.46875 198.179688 402.617188 197.101562 393.800781 197.101562 C 390.738281 197.101562 385.25 197.191406 382.1875 197.28125 L 369.589844 197.460938 L 369.050781 198 C 369.410156 206.640625 369.5 209.96875 369.5 222.390625 C 369.5 235.171875 369.410156 247.859375 369.230469 260.640625 L 369.859375 261 L 385.519531 261 M 384.890625 233.640625 C 391.730469 233.460938 395.6875 233.460938 398.300781 234.988281 C 400.910156 236.609375 401.898438 239.488281 401.898438 242.371094 C 401.898438 246.421875 399.648438 248.941406 396.320312 250.109375 C 393.617188 251.011719 388.757812 251.011719 384.890625 250.921875 L 384.890625 233.640625 M 384.890625 207.179688 C 386.777344 207.179688 389.300781 207.089844 390.828125 207.089844 C 395.6875 207.089844 400.097656 208.800781 400.097656 214.648438 C 400.097656 219.421875 396.589844 221.398438 395.507812 221.941406 C 393.257812 222.929688 388.488281 222.929688 384.890625 222.929688 Z M 466.878906 247.679688 C 463.460938 249.480469 459.410156 251.550781 452.839844 251.550781 C 447.441406 251.550781 443.75 249.839844 441.589844 246.601562 C 440.238281 244.710938 439.96875 242.910156 439.609375 241.109375 L 468.679688 240.570312 L 469.21875 239.941406 C 469.128906 235.53125 469.039062 231.03125 467.78125 226.53125 C 464.628906 215.910156 457.699219 213.75 454.640625 213.03125 C 452.390625 212.398438 450.320312 212.21875 448.25 212.21875 C 434.121094 212.21875 424.757812 221.488281 424.757812 237.058594 C 424.757812 241.289062 425.480469 245.699219 426.917969 248.851562 C 432.140625 261 444.378906 262.078125 450.859375 262.078125 C 458.328125 262.078125 461.570312 260.730469 466.339844 258.839844 L 466.878906 258.121094 L 467.507812 247.949219 L 466.878906 247.679688 M 439.609375 231.570312 C 439.878906 228.78125 440.507812 225 443.929688 222.839844 C 445.007812 222.121094 446.269531 221.851562 447.53125 221.851562 C 450.5 221.851562 452.300781 223.378906 453.289062 225 C 454.550781 226.980469 454.640625 229.140625 454.640625 231.210938 Z M 517.546875 234.179688 C 517.636719 226.078125 517.636719 222.570312 515.296875 218.789062 C 513.496094 215.910156 509.898438 212.308594 498.378906 212.308594 C 490.636719 212.308594 485.867188 213.75 480.738281 215.28125 L 480.199219 216 L 479.746094 225.808594 L 480.46875 226.171875 C 483.617188 224.910156 489.46875 222.570312 495.496094 222.570312 C 498.828125 222.570312 500.175781 223.109375 501.347656 224.28125 C 502.246094 225.179688 502.519531 226.800781 502.519531 228.148438 C 491.71875 229.589844 486.675781 230.578125 481.277344 233.910156 C 476.238281 237.058594 474.527344 242.191406 474.527344 246.238281 C 474.527344 255.871094 481.457031 262.078125 490.277344 262.078125 C 497.027344 262.078125 500.898438 258.839844 502.789062 257.308594 L 502.789062 260.640625 L 503.328125 261.269531 C 509.808594 261 511.789062 260.910156 517.636719 261 L 518.085938 260.371094 C 517.457031 251.550781 517.457031 249.300781 517.457031 240.839844 L 517.546875 234.179688 M 502.699219 248.488281 C 500.808594 249.570312 498.378906 250.828125 495.40625 250.828125 C 492.167969 250.828125 489.46875 249.121094 489.46875 245.339844 C 489.46875 239.398438 496.578125 238.410156 502.699219 237.601562 Z M 563.269531 248.039062 C 560.839844 249.480469 558.5 250.921875 553.910156 250.921875 C 543.738281 250.921875 541.667969 242.460938 541.667969 237.058594 C 541.667969 230.488281 544.550781 222.929688 553.28125 222.929688 C 557.238281 222.929688 559.398438 224.371094 562.101562 226.171875 L 563 225.898438 C 563.359375 221.128906 563.449219 219.871094 564.167969 215.101562 L 563.71875 214.558594 C 559.757812 213.300781 556.339844 212.21875 551.121094 212.21875 C 529.96875 212.21875 525.828125 228.238281 525.828125 237.421875 C 525.828125 247.769531 531.230469 261.808594 551.480469 261.808594 C 556.25 261.808594 559.308594 260.910156 563.089844 259.828125 L 563.628906 259.289062 L 563.988281 248.488281 Z M 615.289062 260.371094 C 614.929688 252.988281 614.839844 250.46875 614.660156 241.109375 L 614.660156 234.359375 C 614.570312 225.808594 614.480469 220.859375 611.867188 217.078125 C 609.257812 213.390625 605.480469 212.21875 601.519531 212.21875 C 594.949219 212.21875 589.820312 215.371094 586.21875 217.53125 L 586.488281 189.808594 L 585.949219 189.179688 L 570.558594 191.609375 L 570.109375 192.148438 C 570.917969 200.878906 571.097656 204.121094 571.277344 215.730469 C 571.460938 223.019531 571.550781 230.308594 571.550781 237.601562 C 571.550781 246.511719 571.367188 251.820312 571.1875 260.640625 L 571.640625 261.269531 C 578.300781 260.910156 579.648438 260.910156 586.9375 260.910156 L 587.480469 260.371094 C 586.847656 246.871094 586.757812 242.820312 586.667969 226.890625 C 588.378906 225.71875 590.539062 224.191406 593.597656 224.191406 C 598.550781 224.191406 598.910156 229.320312 599.269531 232.921875 C 599.449219 235.710938 599.539062 248.488281 599.539062 251.820312 C 599.539062 254.789062 599.449219 257.671875 599.449219 260.640625 L 599.898438 261.269531 C 606.378906 260.910156 607.820312 260.910156 614.75 260.910156 Z M 620.148438 261 "/>
</svg>
