<?xml version="1.0" encoding="UTF-8"?>
<svg xmlns="http://www.w3.org/2000/svg" xmlns:xlink="http://www.w3.org/1999/xlink" width="975" height="1300" viewBox="0 0 975 1300">
<path fill-rule="nonzero" fill="rgb(98.823529%, 78.823529%, 9.019608%)" fill-opacity="1" d="M 50 50 L 925 50 L 925 290 L 50 290 Z M 50 50 "/>
<path fill-rule="nonzero" fill="rgb(34.901961%, 14.901961%, 14.901961%)" fill-opacity="1" d="M 119.480469 85.738281 C 117.953125 83.761719 116.152344 82.050781 114.082031 80.699219 C 109.492188 77.640625 103.191406 76.109375 96.890625 76.109375 C 91.3125 76.109375 85.640625 77.101562 80.78125 79.890625 C 69.800781 86.191406 67.820312 96.628906 67.101562 100.410156 C 66.5625 103.46875 66.292969 106.53125 66.292969 109.589844 C 66.292969 115.710938 67.011719 127.230469 75.472656 135.058594 C 82.3125 141.449219 91.671875 142.351562 96.261719 142.351562 C 103.191406 142.351562 110.210938 140.730469 115.523438 136.320312 C 124.433594 128.941406 126.230469 116.699219 126.230469 109.050781 C 126.230469 94.921875 121.730469 88.53125 119.480469 85.738281 M 105.261719 91.5 C 107.0625 93.570312 107.871094 96.179688 108.410156 98.789062 C 109.132812 102.210938 109.3125 105.449219 109.402344 107.699219 C 109.761719 121.199219 106.882812 130.921875 96.441406 130.921875 C 83.933594 130.921875 83.121094 116.339844 83.121094 108.238281 C 83.121094 97.441406 85.730469 91.859375 89.960938 89.160156 C 92.390625 87.71875 94.820312 87.359375 96.53125 87.359375 C 99.953125 87.359375 103.101562 88.890625 105.261719 91.5 Z M 151.25 140.371094 C 150.800781 130.019531 150.351562 120.570312 150.351562 92.128906 C 150.351562 83.578125 150.441406 79.53125 150.800781 69.808594 L 150.171875 69.179688 L 134.78125 71.609375 L 134.421875 72.148438 C 135.320312 83.128906 135.410156 86.101562 135.589844 100.679688 C 135.683594 105.988281 135.683594 111.300781 135.683594 116.609375 C 135.683594 126.328125 135.5 131.730469 135.140625 140.640625 L 135.683594 141.269531 C 141.710938 141 144.140625 140.910156 150.710938 141 Z M 205.792969 140.460938 C 205.433594 132.359375 205.164062 126.960938 205.164062 115.171875 C 205.164062 91.410156 205.523438 81.601562 205.882812 69.71875 L 205.253906 69.179688 L 190.402344 71.519531 L 189.953125 72.058594 C 190.492188 80.519531 190.582031 82.769531 190.492188 93.03125 C 183.742188 92.851562 175.28125 92.671875 168.441406 98.070312 C 162.144531 102.929688 159.53125 110.398438 159.53125 119.671875 C 159.53125 126.691406 161.421875 133.710938 166.734375 138.121094 C 170.691406 141.359375 175.554688 142.078125 178.523438 142.078125 C 184.914062 142.078125 188.242188 139.109375 190.402344 137.21875 L 190.222656 140.730469 L 190.671875 141.269531 C 196.882812 141 198.59375 141 205.34375 141 L 205.792969 140.460938 M 190.492188 103.828125 C 190.582031 115.800781 190.492188 118.140625 190.222656 129.03125 C 188.421875 130.109375 186.621094 131.191406 184.101562 131.191406 C 175.371094 131.191406 175.371094 120.03125 175.371094 118.230469 C 175.371094 111.300781 177.351562 103.558594 187.433594 103.558594 C 188.421875 103.558594 189.234375 103.648438 190.492188 103.828125 Z M 282.292969 89.339844 L 282.832031 88.890625 L 283.464844 77.640625 L 283.011719 77.371094 L 238.464844 77.371094 L 237.832031 77.910156 L 237.203125 88.980469 L 237.652344 89.519531 L 252.324219 89.160156 C 252.414062 112.738281 252.414062 118.410156 251.695312 140.730469 L 252.234375 141.269531 C 258.894531 141 260.695312 140.910156 268.164062 140.910156 L 268.703125 140.371094 C 268.253906 127.769531 268.074219 115.171875 268.074219 102.480469 C 268.074219 97.53125 268.164062 94.738281 268.34375 88.980469 Z M 335.03125 117.058594 C 335.03125 113.550781 335.03125 98.96875 322.429688 94.019531 C 318.46875 92.488281 313.789062 92.308594 311.449219 92.308594 C 295.789062 92.308594 286.96875 100.679688 286.96875 117.238281 C 286.96875 123 287.871094 128.851562 291.199219 133.710938 C 293.539062 137.21875 297.949219 142.078125 310.820312 142.078125 C 329.898438 142.078125 335.03125 130.558594 335.03125 117.058594 M 319.460938 116.96875 C 319.460938 124.351562 318.46875 132.539062 311 132.539062 C 308.660156 132.539062 307.039062 131.460938 305.960938 130.46875 C 304.429688 128.941406 302.71875 125.878906 302.71875 117.148438 C 302.71875 114.539062 302.71875 108.78125 304.519531 105.628906 C 305.871094 103.199219 308.210938 101.578125 311.089844 101.578125 C 313.609375 101.578125 315.679688 102.929688 316.851562 104.371094 C 319.011719 106.980469 319.460938 112.109375 319.460938 116.96875 Z M 399.203125 140.371094 C 402.804688 126.421875 403.433594 124.261719 408.832031 104.910156 C 409.914062 101.21875 410.902344 97.441406 411.894531 93.75 L 411.355469 93.03125 L 399.652344 93.300781 L 399.023438 93.929688 L 396.414062 107.429688 L 393.894531 118.320312 L 392.183594 126.601562 L 390.652344 118.589844 L 388.671875 109.230469 L 385.523438 93.660156 L 384.984375 93.03125 L 367.703125 93.300781 L 367.074219 93.929688 L 364.105469 108.691406 L 361.945312 118.589844 L 360.234375 126.871094 L 358.523438 117.960938 L 356.363281 108.238281 L 353.304688 93.300781 L 352.761719 92.851562 L 338.183594 93.929688 L 337.644531 94.648438 C 346.105469 124.351562 347.453125 129.660156 349.972656 140.730469 L 350.605469 141.269531 C 356.8125 141 359.0625 140.910156 367.34375 141 L 367.882812 140.371094 L 370.222656 129.390625 L 372.742188 118.5 L 374.992188 107.609375 L 376.34375 114.449219 L 377.695312 121.109375 L 381.472656 140.640625 L 382.105469 141.269531 C 388.761719 141 391.464844 140.910156 398.664062 141 Z M 460.761719 140.371094 C 460.3125 132.449219 460.3125 129.929688 460.132812 121.109375 L 460.132812 114.089844 C 460.042969 105.449219 459.953125 101.308594 457.703125 97.621094 C 454.910156 92.941406 449.78125 92.21875 446.542969 92.21875 C 441.050781 92.21875 436.28125 95.101562 432.140625 97.53125 L 432.320312 92.578125 L 431.421875 91.949219 C 424.492188 93.390625 422.960938 93.660156 416.210938 94.558594 L 415.671875 95.191406 C 416.390625 103.019531 416.933594 108.691406 416.933594 123.359375 C 416.933594 129.121094 416.839844 134.878906 416.75 140.640625 L 417.292969 141.179688 C 423.773438 140.910156 425.121094 140.910156 432.320312 140.910156 L 432.863281 140.371094 C 432.320312 126.511719 432.230469 123 432.140625 106.890625 C 434.03125 105.628906 436.191406 104.101562 439.070312 104.101562 C 444.023438 104.101562 444.472656 109.410156 444.742188 112.648438 C 444.921875 115.621094 445.011719 127.949219 445.011719 131.371094 C 445.011719 134.429688 444.921875 137.578125 444.921875 140.640625 L 445.460938 141.179688 C 451.402344 141 452.933594 140.910156 460.132812 140.910156 Z M 523.3125 102.300781 C 515.753906 99.148438 511.792969 97.53125 511.792969 93.480469 C 511.792969 90.691406 514.402344 87.179688 520.34375 87.179688 C 527.183594 87.179688 531.230469 89.96875 534.5625 92.21875 L 535.371094 91.859375 L 536.09375 80.070312 L 535.640625 79.441406 C 531.773438 77.820312 527.722656 76.109375 518.992188 76.109375 C 502.074219 76.109375 496.222656 85.648438 496.222656 95.28125 C 496.222656 106.171875 504.683594 110.128906 509.722656 112.558594 L 512.691406 113.910156 C 518.902344 116.519531 523.671875 118.769531 523.671875 123.539062 C 523.671875 126.960938 520.703125 131.011719 512.871094 131.011719 C 504.683594 131.011719 500.09375 127.410156 497.480469 125.339844 L 496.582031 125.609375 L 495.953125 138.300781 L 496.492188 139.019531 C 497.480469 139.378906 498.472656 139.828125 499.460938 140.101562 C 501.53125 140.820312 506.84375 142.351562 513.59375 142.351562 C 516.292969 142.351562 523.132812 142.078125 528.53125 139.558594 C 536.09375 135.871094 539.332031 129.03125 539.332031 121.378906 C 539.332031 116.25 537.351562 110.761719 532.582031 107.070312 C 530.152344 105.269531 527.8125 104.191406 525.652344 103.199219 Z M 587.929688 114.179688 C 588.019531 106.078125 588.019531 102.570312 585.679688 98.789062 C 583.878906 95.910156 580.28125 92.308594 568.761719 92.308594 C 561.019531 92.308594 556.25 93.75 551.121094 95.28125 L 550.582031 96 L 550.128906 105.808594 L 550.851562 106.171875 C 554 104.910156 559.851562 102.570312 565.878906 102.570312 C 569.210938 102.570312 570.558594 103.109375 571.730469 104.28125 C 572.628906 105.179688 572.902344 106.800781 572.902344 108.148438 C 562.101562 109.589844 557.058594 110.578125 551.660156 113.910156 C 546.621094 117.058594 544.910156 122.191406 544.910156 126.238281 C 544.910156 135.871094 551.839844 142.078125 560.660156 142.078125 C 567.410156 142.078125 571.28125 138.839844 573.171875 137.308594 L 573.171875 140.640625 L 573.710938 141.269531 C 580.191406 141 582.171875 140.910156 588.019531 141 L 588.46875 140.371094 C 587.839844 131.550781 587.839844 129.300781 587.839844 120.839844 L 587.929688 114.179688 M 573.082031 128.488281 C 571.191406 129.570312 568.761719 130.828125 565.789062 130.828125 C 562.550781 130.828125 559.851562 129.121094 559.851562 125.339844 C 559.851562 119.398438 566.960938 118.410156 573.082031 117.601562 Z M 642.5625 140.371094 C 642.113281 132.449219 642.113281 129.929688 641.933594 121.109375 L 641.933594 114.089844 C 641.84375 105.449219 641.753906 101.308594 639.503906 97.621094 C 636.710938 92.941406 631.582031 92.21875 628.34375 92.21875 C 622.851562 92.21875 618.082031 95.101562 613.941406 97.53125 L 614.121094 92.578125 L 613.222656 91.949219 C 606.292969 93.390625 604.761719 93.660156 598.011719 94.558594 L 597.472656 95.191406 C 598.191406 103.019531 598.734375 108.691406 598.734375 123.359375 C 598.734375 129.121094 598.640625 134.878906 598.550781 140.640625 L 599.09375 141.179688 C 605.574219 140.910156 606.921875 140.910156 614.121094 140.910156 L 614.664062 140.371094 C 614.121094 126.511719 614.03125 123 613.941406 106.890625 C 615.832031 105.628906 617.992188 104.101562 620.871094 104.101562 C 625.824219 104.101562 626.273438 109.410156 626.542969 112.648438 C 626.722656 115.621094 626.8125 127.949219 626.8125 131.371094 C 626.8125 134.429688 626.722656 137.578125 626.722656 140.640625 L 627.261719 141.179688 C 633.203125 141 634.734375 140.910156 641.933594 140.910156 Z M 690.625 141 C 692.964844 141.089844 695.394531 141.089844 697.734375 141.089844 C 707.8125 141.089844 724.101562 140.730469 730.671875 124.710938 C 733.101562 118.769531 733.644531 111.570312 733.644531 107.519531 C 733.644531 99.058594 731.753906 92.578125 729.503906 88.53125 C 723.382812 77.371094 711.773438 77.011719 701.511719 77.011719 C 697.375 77.011719 693.234375 77.191406 689.09375 77.371094 L 679.554688 77.460938 L 679.011719 78 C 679.375 86.640625 679.734375 94.199219 679.734375 119.128906 C 679.734375 127.949219 679.644531 133.261719 679.464844 140.640625 L 680.003906 141 L 690.625 141 M 695.574219 129.390625 C 695.394531 120.570312 695.304688 112.199219 695.304688 103.558594 C 695.304688 98.699219 695.304688 93.839844 695.394531 88.980469 C 697.191406 88.890625 699.082031 88.800781 700.882812 88.800781 C 706.375 88.800781 717.082031 88.800781 717.082031 107.96875 C 717.082031 119.21875 712.851562 124.261719 710.691406 126.058594 C 706.644531 129.390625 700.433594 129.390625 695.574219 129.390625 Z M 759.113281 140.371094 C 758.660156 133.441406 758.300781 128.128906 758.300781 115.710938 C 758.300781 108.058594 758.480469 100.320312 758.570312 92.671875 L 757.941406 91.949219 L 742.460938 94.648438 L 741.921875 95.191406 C 742.640625 102.03125 742.910156 105.179688 742.910156 117.960938 C 742.910156 127.769531 742.640625 133.261719 742.371094 140.640625 L 742.910156 141.269531 C 749.390625 141 751.191406 140.910156 758.480469 141 L 759.113281 140.371094 M 757.671875 83.308594 L 757.941406 71.070312 L 757.402344 70.53125 L 742.730469 72.328125 L 742.191406 72.960938 C 742.371094 76.199219 742.460938 78.089844 742.460938 80.25 C 742.460938 81.960938 742.460938 83.761719 742.371094 85.46875 L 743 86.011719 C 749.121094 84.929688 750.832031 84.75 757.222656 83.941406 Z M 809.0625 127.679688 C 805.644531 129.480469 801.59375 131.550781 795.023438 131.550781 C 789.625 131.550781 785.933594 129.839844 783.773438 126.601562 C 782.421875 124.710938 782.152344 122.910156 781.792969 121.109375 L 810.863281 120.570312 L 811.402344 119.941406 C 811.3125 115.53125 811.222656 111.03125 809.964844 106.53125 C 806.8125 95.910156 799.882812 93.75 796.824219 93.03125 C 794.574219 92.398438 792.503906 92.21875 790.433594 92.21875 C 776.304688 92.21875 766.941406 101.488281 766.941406 117.058594 C 766.941406 121.289062 767.664062 125.699219 769.101562 128.851562 C 774.324219 141 786.5625 142.078125 793.042969 142.078125 C 800.511719 142.078125 803.753906 140.730469 808.523438 138.839844 L 809.0625 138.121094 L 809.691406 127.949219 L 809.0625 127.679688 M 781.792969 111.570312 C 782.0625 108.78125 782.691406 105 786.113281 102.839844 C 787.191406 102.121094 788.453125 101.851562 789.714844 101.851562 C 792.683594 101.851562 794.484375 103.378906 795.472656 105 C 796.734375 106.980469 796.824219 109.140625 796.824219 111.210938 Z M 836.242188 125.789062 C 839.121094 125.878906 842 126.058594 846.320312 124.621094 C 851 123 857.839844 119.128906 857.839844 110.398438 C 857.839844 106.078125 856.582031 104.28125 855.410156 102.570312 L 861.621094 102.929688 L 862.160156 102.480469 L 862.792969 93.480469 L 862.25 93.03125 C 855.320312 93.300781 853.429688 93.390625 847.761719 93.300781 L 843.621094 93.210938 C 837.230469 93.03125 828.679688 92.851562 822.832031 97.710938 C 820.851562 99.238281 817.070312 103.109375 817.070312 109.859375 C 817.070312 113.460938 818.0625 116.339844 819.679688 118.589844 C 821.660156 121.378906 823.460938 122.371094 825.710938 123.628906 C 823.191406 128.488281 821.839844 130.921875 819.769531 134.609375 L 819.769531 135.421875 L 823.550781 138.121094 C 820.851562 140.191406 816.621094 143.609375 816.621094 149.460938 C 816.621094 153.601562 818.871094 157.199219 822.203125 159.628906 C 827.242188 163.230469 834.082031 163.410156 837.589844 163.410156 C 854.0625 163.410156 861.621094 155.128906 861.621094 146.398438 C 861.621094 135.058594 851.722656 132.898438 845.871094 131.550781 L 843.710938 131.191406 C 839.300781 130.46875 838.3125 130.199219 834.800781 128.941406 L 836.242188 125.789062 M 843.621094 109.589844 C 843.53125 116.878906 839.121094 117.511719 837.859375 117.511719 C 837.140625 117.511719 833.992188 117.328125 832.460938 113.730469 C 831.652344 111.839844 831.652344 109.679688 831.652344 109.050781 C 831.652344 104.550781 834.351562 101.671875 837.679688 101.671875 C 841.820312 101.671875 843.710938 105.628906 843.621094 109.589844 M 835.972656 143.160156 C 843.980469 145.230469 844.070312 145.230469 845.152344 146.128906 C 846.050781 146.761719 846.953125 147.75 846.953125 149.640625 C 846.953125 152.339844 844.703125 155.128906 838.761719 155.128906 C 832.101562 155.128906 829.851562 151.351562 829.851562 148.199219 C 829.851562 145.230469 831.382812 143.519531 832.460938 142.261719 Z M 914.273438 117.058594 C 914.273438 113.550781 914.273438 98.96875 901.671875 94.019531 C 897.710938 92.488281 893.03125 92.308594 890.691406 92.308594 C 875.03125 92.308594 866.210938 100.679688 866.210938 117.238281 C 866.210938 123 867.113281 128.851562 870.441406 133.710938 C 872.78125 137.21875 877.191406 142.078125 890.0625 142.078125 C 909.140625 142.078125 914.273438 130.558594 914.273438 117.058594 M 898.703125 116.96875 C 898.703125 124.351562 897.710938 132.539062 890.242188 132.539062 C 887.902344 132.539062 886.28125 131.460938 885.203125 130.46875 C 883.671875 128.941406 881.960938 125.878906 881.960938 117.148438 C 881.960938 114.539062 881.960938 108.78125 883.761719 105.628906 C 885.113281 103.199219 887.453125 101.578125 890.332031 101.578125 C 892.851562 101.578125 894.921875 102.929688 896.09375 104.371094 C 898.253906 106.980469 898.703125 112.109375 898.703125 116.96875 Z M 917.421875 141 "/>
<path fill-rule="nonzero" fill="rgb(34.901961%, 14.901961%, 14.901961%)" fill-opacity="1" d="M 128.570312 222.300781 C 121.011719 219.148438 117.050781 217.53125 117.050781 213.480469 C 117.050781 210.691406 119.660156 207.179688 125.601562 207.179688 C 132.441406 207.179688 136.488281 209.96875 139.820312 212.21875 L 140.628906 211.859375 L 141.351562 200.070312 L 140.898438 199.441406 C 137.03125 197.820312 132.980469 196.109375 124.25 196.109375 C 107.332031 196.109375 101.480469 205.648438 101.480469 215.28125 C 101.480469 226.171875 109.941406 230.128906 114.980469 232.558594 L 117.949219 233.910156 C 124.160156 236.519531 128.929688 238.769531 128.929688 243.539062 C 128.929688 246.960938 125.960938 251.011719 118.128906 251.011719 C 109.941406 251.011719 105.351562 247.410156 102.738281 245.339844 L 101.839844 245.609375 L 101.210938 258.300781 L 101.75 259.019531 C 102.738281 259.378906 103.730469 259.828125 104.71875 260.101562 C 106.789062 260.820312 112.101562 262.351562 118.851562 262.351562 C 121.550781 262.351562 128.390625 262.078125 133.789062 259.558594 C 141.351562 255.871094 144.589844 249.03125 144.589844 241.378906 C 144.589844 236.25 142.609375 230.761719 137.839844 227.070312 C 135.410156 225.269531 133.070312 224.191406 130.910156 223.199219 Z M 178.339844 250.648438 C 176.808594 251.101562 175.726562 251.460938 174.199219 251.460938 C 169.609375 251.460938 169.25 248.578125 169.066406 247.230469 C 168.796875 244.890625 168.796875 239.941406 168.886719 236.339844 L 169.066406 223.648438 L 177.167969 224.011719 L 177.707031 223.46875 L 178.609375 213.839844 L 178.066406 213.300781 L 169.066406 213.300781 L 169.339844 198.179688 L 168.707031 197.640625 C 162.589844 199.441406 160.96875 199.890625 154.578125 201.511719 L 154.21875 202.140625 L 154.308594 213.390625 L 149.449219 213.210938 L 148.910156 213.660156 L 148.097656 223.289062 L 148.636719 223.828125 L 154.308594 223.648438 L 154.039062 237.960938 C 153.949219 240.210938 153.859375 242.460938 153.859375 244.800781 C 153.859375 253.078125 154.039062 261.988281 168.078125 261.988281 C 171.589844 261.988281 174.378906 261.449219 177.527344 260.910156 L 178.160156 260.28125 L 179.058594 251.011719 Z M 225.050781 234.179688 C 225.140625 226.078125 225.140625 222.570312 222.800781 218.789062 C 221 215.910156 217.402344 212.308594 205.882812 212.308594 C 198.140625 212.308594 193.371094 213.75 188.242188 215.28125 L 187.703125 216 L 187.25 225.808594 L 187.972656 226.171875 C 191.121094 224.910156 196.972656 222.570312 203 222.570312 C 206.332031 222.570312 207.679688 223.109375 208.851562 224.28125 C 209.75 225.179688 210.023438 226.800781 210.023438 228.148438 C 199.222656 229.589844 194.179688 230.578125 188.78125 233.910156 C 183.742188 237.058594 182.03125 242.191406 182.03125 246.238281 C 182.03125 255.871094 188.960938 262.078125 197.78125 262.078125 C 204.53125 262.078125 208.402344 258.839844 210.292969 257.308594 L 210.292969 260.640625 L 210.832031 261.269531 C 217.3125 261 219.292969 260.910156 225.140625 261 L 225.589844 260.371094 C 224.960938 251.550781 224.960938 249.300781 224.960938 240.839844 L 225.050781 234.179688 M 210.203125 248.488281 C 208.3125 249.570312 205.882812 250.828125 202.910156 250.828125 C 199.671875 250.828125 196.972656 249.121094 196.972656 245.339844 C 196.972656 239.398438 204.082031 238.410156 210.203125 237.601562 Z M 260.78125 250.648438 C 259.25 251.101562 258.167969 251.460938 256.640625 251.460938 C 252.050781 251.460938 251.691406 248.578125 251.507812 247.230469 C 251.238281 244.890625 251.238281 239.941406 251.328125 236.339844 L 251.507812 223.648438 L 259.609375 224.011719 L 260.148438 223.46875 L 261.050781 213.839844 L 260.507812 213.300781 L 251.507812 213.300781 L 251.78125 198.179688 L 251.148438 197.640625 C 245.03125 199.441406 243.410156 199.890625 237.019531 201.511719 L 236.660156 202.140625 L 236.75 213.390625 L 231.890625 213.210938 L 231.351562 213.660156 L 230.539062 223.289062 L 231.078125 223.828125 L 236.75 223.648438 L 236.480469 237.960938 C 236.390625 240.210938 236.300781 242.460938 236.300781 244.800781 C 236.300781 253.078125 236.480469 261.988281 250.519531 261.988281 C 254.03125 261.988281 256.820312 261.449219 259.96875 260.910156 L 260.601562 260.28125 L 261.5 251.011719 Z M 307.398438 247.679688 C 303.980469 249.480469 299.929688 251.550781 293.359375 251.550781 C 287.960938 251.550781 284.269531 249.839844 282.109375 246.601562 C 280.757812 244.710938 280.488281 242.910156 280.128906 241.109375 L 309.199219 240.570312 L 309.738281 239.941406 C 309.648438 235.53125 309.558594 231.03125 308.300781 226.53125 C 305.148438 215.910156 298.21875 213.75 295.160156 213.03125 C 292.910156 212.398438 290.839844 212.21875 288.769531 212.21875 C 274.640625 212.21875 265.277344 221.488281 265.277344 237.058594 C 265.277344 241.289062 266 245.699219 267.4375 248.851562 C 272.660156 261 284.898438 262.078125 291.378906 262.078125 C 298.847656 262.078125 302.089844 260.730469 306.859375 258.839844 L 307.398438 258.121094 L 308.027344 247.949219 L 307.398438 247.679688 M 280.128906 231.570312 C 280.398438 228.78125 281.027344 225 284.449219 222.839844 C 285.527344 222.121094 286.789062 221.851562 288.050781 221.851562 C 291.019531 221.851562 292.820312 223.378906 293.808594 225 C 295.070312 226.980469 295.160156 229.140625 295.160156 231.210938 Z M 398.207031 197.191406 C 391.007812 197.460938 389.839844 197.460938 382.277344 197.460938 L 381.828125 198 C 382.457031 208.171875 382.457031 210.78125 382.546875 221.398438 C 378.589844 221.488281 374.628906 221.578125 370.578125 221.578125 C 367.429688 221.578125 364.1875 221.488281 361.039062 221.488281 L 361.21875 197.730469 L 360.769531 197.191406 C 353.839844 197.460938 352.488281 197.460938 344.660156 197.460938 L 344.117188 198 C 344.570312 207.269531 345.109375 218.339844 345.109375 240.660156 C 345.109375 248.761719 344.929688 253.171875 344.75 260.730469 L 345.199219 261.269531 C 351.769531 261 353.386719 260.910156 361.308594 261 L 361.757812 260.460938 C 361.21875 249.300781 361.128906 246.058594 361.039062 233.011719 C 365 232.828125 368.328125 232.738281 371.839844 232.738281 C 375.4375 232.738281 379.039062 232.828125 382.636719 232.921875 C 382.820312 245.070312 382.820312 248.039062 382.367188 260.730469 L 382.820312 261.269531 C 389.570312 261 391.367188 260.910156 399.019531 261 L 399.46875 260.460938 C 398.75 245.339844 398.476562 230.308594 398.476562 215.191406 C 398.476562 208.890625 398.570312 204.660156 398.660156 197.730469 Z M 426.203125 260.371094 C 425.75 253.441406 425.390625 248.128906 425.390625 235.710938 C 425.390625 228.058594 425.570312 220.320312 425.660156 212.671875 L 425.03125 211.949219 L 409.550781 214.648438 L 409.011719 215.191406 C 409.730469 222.03125 410 225.179688 410 237.960938 C 410 247.769531 409.730469 253.261719 409.460938 260.640625 L 410 261.269531 C 416.480469 261 418.28125 260.910156 425.570312 261 L 426.203125 260.371094 M 424.761719 203.308594 L 425.03125 191.070312 L 424.492188 190.53125 L 409.820312 192.328125 L 409.28125 192.960938 C 409.460938 196.199219 409.550781 198.089844 409.550781 200.25 C 409.550781 201.960938 409.550781 203.761719 409.460938 205.46875 L 410.089844 206.011719 C 416.210938 204.929688 417.921875 204.75 424.3125 203.941406 Z M 455.089844 229.949219 C 452.027344 228.871094 449.597656 227.878906 449.597656 225.359375 C 449.597656 224.28125 450.320312 221.308594 455.898438 221.308594 C 461.390625 221.308594 464.898438 223.648438 467.148438 225.089844 L 467.960938 224.820312 L 468.859375 215.011719 L 468.410156 214.46875 C 464.179688 213.300781 460.488281 212.21875 454.640625 212.21875 C 450.230469 212.21875 441.410156 212.578125 436.730469 219.328125 C 435.558594 220.949219 434.300781 223.648438 434.300781 227.25 C 434.300781 236.878906 441.769531 239.761719 446 241.378906 L 449.417969 242.640625 C 451.847656 243.449219 455.808594 244.800781 455.808594 248.039062 C 455.808594 250.289062 453.738281 252.71875 448.699219 252.71875 C 446.179688 252.71875 442.488281 251.910156 439.160156 250.199219 C 437.628906 249.390625 436.910156 248.761719 435.558594 247.679688 L 434.75 248.039062 C 434.570312 252.71875 434.480469 253.710938 434.117188 258.210938 L 434.570312 259.019531 C 438.980469 260.640625 442.757812 262.078125 449.328125 262.078125 C 456.167969 262.078125 469.667969 260.820312 471.289062 247.949219 C 471.378906 247.230469 471.378906 246.601562 471.378906 245.96875 C 471.378906 236.070312 464.449219 233.460938 459.5 231.570312 Z M 504.5 250.648438 C 502.96875 251.101562 501.886719 251.460938 500.359375 251.460938 C 495.769531 251.460938 495.410156 248.578125 495.226562 247.230469 C 494.957031 244.890625 494.957031 239.941406 495.046875 236.339844 L 495.226562 223.648438 L 503.328125 224.011719 L 503.867188 223.46875 L 504.769531 213.839844 L 504.226562 213.300781 L 495.226562 213.300781 L 495.5 198.179688 L 494.867188 197.640625 C 488.75 199.441406 487.128906 199.890625 480.738281 201.511719 L 480.378906 202.140625 L 480.46875 213.390625 L 475.609375 213.210938 L 475.070312 213.660156 L 474.257812 223.289062 L 474.796875 223.828125 L 480.46875 223.648438 L 480.199219 237.960938 C 480.109375 240.210938 480.019531 242.460938 480.019531 244.800781 C 480.019531 253.078125 480.199219 261.988281 494.238281 261.988281 C 497.75 261.988281 500.539062 261.449219 503.6875 260.910156 L 504.320312 260.28125 L 505.21875 251.011719 Z M 556.972656 237.058594 C 556.972656 233.550781 556.972656 218.96875 544.371094 214.019531 C 540.410156 212.488281 535.730469 212.308594 533.390625 212.308594 C 517.730469 212.308594 508.910156 220.679688 508.910156 237.238281 C 508.910156 243 509.8125 248.851562 513.140625 253.710938 C 515.480469 257.21875 519.890625 262.078125 532.761719 262.078125 C 551.839844 262.078125 556.972656 250.558594 556.972656 237.058594 M 541.402344 236.96875 C 541.402344 244.351562 540.410156 252.539062 532.941406 252.539062 C 530.601562 252.539062 528.980469 251.460938 527.902344 250.46875 C 526.371094 248.941406 524.660156 245.878906 524.660156 237.148438 C 524.660156 234.539062 524.660156 228.78125 526.460938 225.628906 C 527.8125 223.199219 530.152344 221.578125 533.03125 221.578125 C 535.550781 221.578125 537.621094 222.929688 538.792969 224.371094 C 540.953125 226.980469 541.402344 232.109375 541.402344 236.96875 Z M 591.53125 227.609375 L 594.050781 212.941406 L 593.511719 212.308594 C 592.882812 212.308594 592.25 212.21875 591.621094 212.21875 C 587.929688 212.21875 583.792969 214.289062 580.910156 220.949219 L 581.179688 212.671875 L 580.460938 211.949219 C 573.800781 213.390625 572.089844 213.660156 565.519531 214.648438 L 564.980469 215.191406 C 565.519531 221.941406 565.792969 225.988281 565.792969 238.5 C 565.792969 245.878906 565.699219 253.261719 565.519531 260.730469 L 566.0625 261.269531 C 572.722656 261 574.160156 260.910156 581.359375 261 L 581.8125 260.371094 C 581.449219 253.078125 580.910156 242.910156 580.910156 236.699219 C 580.910156 232.648438 580.910156 226.710938 587.03125 226.710938 C 588.5625 226.710938 589.460938 227.25 590.722656 227.96875 Z M 615.5625 260.371094 C 615.109375 253.441406 614.75 248.128906 614.75 235.710938 C 614.75 228.058594 614.929688 220.320312 615.019531 212.671875 L 614.390625 211.949219 L 598.910156 214.648438 L 598.371094 215.191406 C 599.089844 222.03125 599.359375 225.179688 599.359375 237.960938 C 599.359375 247.769531 599.089844 253.261719 598.820312 260.640625 L 599.359375 261.269531 C 605.839844 261 607.640625 260.910156 614.929688 261 L 615.5625 260.371094 M 614.121094 203.308594 L 614.390625 191.070312 L 613.851562 190.53125 L 599.179688 192.328125 L 598.640625 192.960938 C 598.820312 196.199219 598.910156 198.089844 598.910156 200.25 C 598.910156 201.960938 598.910156 203.761719 598.820312 205.46875 L 599.449219 206.011719 C 605.570312 204.929688 607.28125 204.75 613.671875 203.941406 Z M 660.738281 248.039062 C 658.308594 249.480469 655.96875 250.921875 651.378906 250.921875 C 641.207031 250.921875 639.136719 242.460938 639.136719 237.058594 C 639.136719 230.488281 642.019531 222.929688 650.75 222.929688 C 654.707031 222.929688 656.867188 224.371094 659.570312 226.171875 L 660.46875 225.898438 C 660.828125 221.128906 660.917969 219.871094 661.636719 215.101562 L 661.1875 214.558594 C 657.226562 213.300781 653.808594 212.21875 648.589844 212.21875 C 627.4375 212.21875 623.296875 228.238281 623.296875 237.421875 C 623.296875 247.769531 628.699219 261.808594 648.949219 261.808594 C 653.71875 261.808594 656.777344 260.910156 660.558594 259.828125 L 661.097656 259.289062 L 661.457031 248.488281 Z M 707 197.28125 L 695.570312 197.460938 L 695.027344 198 C 695.390625 209.699219 695.660156 217.53125 695.660156 227.878906 C 695.660156 238.859375 695.390625 249.75 695.117188 260.730469 L 695.660156 261.269531 C 702.320312 261 703.757812 260.910156 710.960938 261 L 711.410156 260.460938 C 711.050781 250.648438 711.050781 248.398438 711.050781 239.21875 C 721.128906 239.308594 731.929688 239.308594 738.410156 231.390625 C 740.929688 228.328125 743.089844 223.199219 743.089844 216.898438 C 743.089844 213.03125 742.1875 204.480469 734.71875 200.25 C 729.320312 197.101562 721.667969 197.101562 714.917969 197.101562 L 707 197.28125 M 711.050781 208.171875 C 713.027344 208.078125 714.917969 208.078125 716.898438 208.078125 C 724.820312 208.261719 726.980469 212.308594 726.980469 217.53125 C 726.980469 218.789062 726.980469 224.011719 722.210938 226.621094 C 719.777344 227.96875 716.449219 228.148438 711.050781 228.148438 Z M 789.347656 234.179688 C 789.4375 226.078125 789.4375 222.570312 787.097656 218.789062 C 785.296875 215.910156 781.699219 212.308594 770.179688 212.308594 C 762.4375 212.308594 757.667969 213.75 752.539062 215.28125 L 752 216 L 751.546875 225.808594 L 752.269531 226.171875 C 755.417969 224.910156 761.269531 222.570312 767.296875 222.570312 C 770.628906 222.570312 771.976562 223.109375 773.148438 224.28125 C 774.046875 225.179688 774.320312 226.800781 774.320312 228.148438 C 763.519531 229.589844 758.476562 230.578125 753.078125 233.910156 C 748.039062 237.058594 746.328125 242.191406 746.328125 246.238281 C 746.328125 255.871094 753.257812 262.078125 762.078125 262.078125 C 768.828125 262.078125 772.699219 258.839844 774.589844 257.308594 L 774.589844 260.640625 L 775.128906 261.269531 C 781.609375 261 783.589844 260.910156 789.4375 261 L 789.886719 260.371094 C 789.257812 251.550781 789.257812 249.300781 789.257812 240.839844 L 789.347656 234.179688 M 774.5 248.488281 C 772.609375 249.570312 770.179688 250.828125 767.207031 250.828125 C 763.96875 250.828125 761.269531 249.121094 761.269531 245.339844 C 761.269531 239.398438 768.378906 238.410156 774.5 237.601562 Z M 825.890625 227.609375 L 828.410156 212.941406 L 827.871094 212.308594 C 827.242188 212.308594 826.609375 212.21875 825.980469 212.21875 C 822.289062 212.21875 818.152344 214.289062 815.269531 220.949219 L 815.539062 212.671875 L 814.820312 211.949219 C 808.160156 213.390625 806.449219 213.660156 799.878906 214.648438 L 799.339844 215.191406 C 799.878906 221.941406 800.152344 225.988281 800.152344 238.5 C 800.152344 245.878906 800.058594 253.261719 799.878906 260.730469 L 800.421875 261.269531 C 807.082031 261 808.519531 260.910156 815.71875 261 L 816.171875 260.371094 C 815.808594 253.078125 815.269531 242.910156 815.269531 236.699219 C 815.269531 232.648438 815.269531 226.710938 821.390625 226.710938 C 822.921875 226.710938 823.820312 227.25 825.082031 227.96875 Z M 879.890625 259.828125 C 871.429688 245.519531 870.53125 243.898438 863.691406 231.570312 C 869.902344 223.109375 870.53125 222.210938 876.921875 214.019531 L 876.46875 213.121094 L 861.800781 213.300781 L 860.902344 213.929688 C 853.878906 226.078125 852.980469 227.519531 848.839844 233.730469 L 848.839844 223.738281 C 848.929688 206.910156 849.019531 203.308594 849.46875 189.71875 L 848.75 189.179688 L 833.089844 191.519531 L 832.550781 192.148438 C 833.179688 200.878906 833.449219 205.109375 833.628906 216.898438 C 833.808594 231.480469 833.808594 246.058594 833.71875 260.640625 L 834.351562 261.269531 C 840.378906 261 842.089844 261 848.929688 261 L 849.46875 260.371094 L 848.929688 245.160156 L 848.839844 234.808594 C 856.671875 249.210938 857.660156 251.191406 862.25 260.730469 L 863.058594 261.269531 L 879.261719 260.640625 Z M 878.808594 261 "/>
</svg>
