<?xml version="1.0" encoding="UTF-8"?>
<svg xmlns="http://www.w3.org/2000/svg" xmlns:xlink="http://www.w3.org/1999/xlink" width="975" height="1300" viewBox="0 0 975 1300">
<path fill-rule="nonzero" fill="rgb(98.823529%, 78.823529%, 9.019608%)" fill-opacity="1" d="M 50 50 L 925 50 L 925 290 L 50 290 Z M 50 50 "/>
<path fill-rule="nonzero" fill="rgb(34.901961%, 14.901961%, 14.901961%)" fill-opacity="1" d="M 103.726562 115.078125 L 104.359375 114.539062 L 105.078125 104.011719 L 104.628906 103.46875 L 84.109375 104.191406 L 84.109375 89.160156 L 106.160156 89.429688 L 106.699219 88.800781 L 107.6875 77.640625 L 107.148438 77.191406 C 92.296875 77.460938 87.527344 77.460938 68.089844 77.371094 L 67.546875 77.910156 C 68.089844 86.730469 68.449219 93.839844 68.449219 109.769531 C 68.449219 120.121094 68.269531 130.46875 68.089844 140.820312 L 68.539062 141.269531 C 75.109375 141 76.636719 141 84.558594 141 L 85.007812 140.460938 C 84.378906 130.109375 84.289062 126.960938 84.019531 115.078125 Z M 160.339844 117.058594 C 160.339844 113.550781 160.339844 98.96875 147.738281 94.019531 C 143.777344 92.488281 139.097656 92.308594 136.757812 92.308594 C 121.097656 92.308594 112.277344 100.679688 112.277344 117.238281 C 112.277344 123 113.179688 128.851562 116.507812 133.710938 C 118.847656 137.21875 123.257812 142.078125 136.128906 142.078125 C 155.207031 142.078125 160.339844 130.558594 160.339844 117.058594 M 144.769531 116.96875 C 144.769531 124.351562 143.777344 132.539062 136.308594 132.539062 C 133.96875 132.539062 132.347656 131.460938 131.269531 130.46875 C 129.738281 128.941406 128.027344 125.878906 128.027344 117.148438 C 128.027344 114.539062 128.027344 108.78125 129.828125 105.628906 C 131.179688 103.199219 133.519531 101.578125 136.398438 101.578125 C 138.917969 101.578125 140.988281 102.929688 142.160156 104.371094 C 144.320312 106.980469 144.769531 112.109375 144.769531 116.96875 Z M 194.898438 107.609375 L 197.417969 92.941406 L 196.878906 92.308594 C 196.25 92.308594 195.617188 92.21875 194.988281 92.21875 C 191.296875 92.21875 187.160156 94.289062 184.277344 100.949219 L 184.546875 92.671875 L 183.828125 91.949219 C 177.167969 93.390625 175.457031 93.660156 168.886719 94.648438 L 168.347656 95.191406 C 168.886719 101.941406 169.160156 105.988281 169.160156 118.5 C 169.160156 125.878906 169.066406 133.261719 168.886719 140.730469 L 169.429688 141.269531 C 176.089844 141 177.527344 140.910156 184.726562 141 L 185.179688 140.371094 C 184.816406 133.078125 184.277344 122.910156 184.277344 116.699219 C 184.277344 112.648438 184.277344 106.710938 190.398438 106.710938 C 191.929688 106.710938 192.828125 107.25 194.089844 107.96875 Z M 227.839844 130.648438 C 226.308594 131.101562 225.226562 131.460938 223.699219 131.460938 C 219.109375 131.460938 218.75 128.578125 218.566406 127.230469 C 218.296875 124.890625 218.296875 119.941406 218.386719 116.339844 L 218.566406 103.648438 L 226.667969 104.011719 L 227.207031 103.46875 L 228.109375 93.839844 L 227.566406 93.300781 L 218.566406 93.300781 L 218.839844 78.179688 L 218.207031 77.640625 C 212.089844 79.441406 210.46875 79.890625 204.078125 81.511719 L 203.71875 82.140625 L 203.808594 93.390625 L 198.949219 93.210938 L 198.410156 93.660156 L 197.597656 103.289062 L 198.136719 103.828125 L 203.808594 103.648438 L 203.539062 117.960938 C 203.449219 120.210938 203.359375 122.460938 203.359375 124.800781 C 203.359375 133.078125 203.539062 141.988281 217.578125 141.988281 C 221.089844 141.988281 223.878906 141.449219 227.027344 140.910156 L 227.660156 140.28125 L 228.558594 131.011719 Z M 314.6875 77.191406 C 307.488281 77.460938 306.320312 77.460938 298.757812 77.460938 L 298.308594 78 C 298.9375 88.171875 298.9375 90.78125 299.027344 101.398438 C 295.070312 101.488281 291.109375 101.578125 287.058594 101.578125 C 283.910156 101.578125 280.667969 101.488281 277.519531 101.488281 L 277.699219 77.730469 L 277.25 77.191406 C 270.320312 77.460938 268.96875 77.460938 261.140625 77.460938 L 260.597656 78 C 261.050781 87.269531 261.589844 98.339844 261.589844 120.660156 C 261.589844 128.761719 261.410156 133.171875 261.230469 140.730469 L 261.679688 141.269531 C 268.25 141 269.867188 140.910156 277.789062 141 L 278.238281 140.460938 C 277.699219 129.300781 277.609375 126.058594 277.519531 113.011719 C 281.480469 112.828125 284.808594 112.738281 288.320312 112.738281 C 291.917969 112.738281 295.519531 112.828125 299.117188 112.921875 C 299.300781 125.070312 299.300781 128.039062 298.847656 140.730469 L 299.300781 141.269531 C 306.050781 141 307.847656 140.910156 315.5 141 L 315.949219 140.460938 C 315.230469 125.339844 314.957031 110.308594 314.957031 95.191406 C 314.957031 88.890625 315.050781 84.660156 315.140625 77.730469 Z M 369.589844 92.851562 L 354.917969 93.570312 L 354.289062 94.109375 C 354.917969 104.28125 354.917969 118.679688 354.917969 120.121094 C 354.917969 122.730469 354.917969 124.171875 354.828125 127.769531 C 352.398438 129.390625 350.507812 130.738281 348.078125 130.738281 C 341.597656 130.738281 341.597656 123.898438 341.597656 118.589844 C 341.597656 116.339844 341.597656 114 341.6875 111.75 L 341.867188 93.570312 L 341.238281 92.851562 L 326.386719 93.570312 L 325.757812 94.109375 C 326.296875 101.671875 326.386719 104.191406 326.386719 113.28125 L 326.386719 119.578125 C 326.296875 129.390625 326.75 133.53125 329.988281 137.308594 C 332.957031 140.640625 337.277344 142.078125 341.777344 142.078125 C 348.167969 142.078125 351.859375 139.199219 355.097656 136.679688 L 355.007812 140.730469 L 355.636719 141.269531 C 362.207031 141 364.1875 141 370.039062 141 L 370.578125 140.460938 C 370.128906 134.070312 369.949219 130.648438 369.949219 118.949219 C 369.949219 110.488281 370.039062 102.03125 370.21875 93.570312 Z M 451.039062 140.371094 C 450.585938 132 450.496094 129.660156 450.496094 119.488281 L 450.496094 112.738281 C 450.585938 106.710938 450.675781 101.128906 448.066406 97.351562 C 444.558594 92.21875 438.347656 92.21875 436.90625 92.21875 C 429.527344 92.21875 424.578125 95.550781 420.976562 98.070312 C 419.71875 96 417.46875 92.21875 410.269531 92.21875 C 404.328125 92.21875 400.457031 94.921875 396.316406 97.800781 L 396.316406 92.761719 L 395.507812 91.949219 C 388.488281 93.300781 386.507812 93.660156 380.207031 94.558594 L 379.667969 95.191406 C 380.386719 102.390625 380.925781 107.339844 380.925781 125.160156 C 380.925781 130.289062 380.835938 135.511719 380.835938 140.640625 L 381.289062 141.179688 C 387.046875 141 389.027344 140.910156 396.496094 140.910156 L 397.039062 140.371094 C 396.40625 126.511719 396.316406 122.371094 396.226562 106.710938 C 398.117188 105.359375 400.1875 104.191406 402.4375 104.191406 C 408.019531 104.191406 408.199219 110.578125 408.199219 118.320312 C 408.199219 131.371094 408.109375 133.351562 407.925781 140.640625 L 408.46875 141.269531 C 415.308594 140.910156 417.199219 140.910156 423.40625 140.910156 L 423.949219 140.371094 C 423.40625 131.820312 423.316406 129.300781 423.226562 118.410156 L 423.226562 115.078125 L 423.136719 105.988281 C 424.667969 105 426.648438 103.738281 429.347656 103.738281 C 434.476562 103.738281 435.289062 108.601562 435.289062 116.339844 C 435.289062 118.050781 435.199219 119.761719 435.199219 121.46875 C 435.109375 124.53125 435.019531 137.941406 434.925781 140.640625 L 435.46875 141.179688 C 442.21875 140.910156 444.199219 140.910156 450.496094 140.910156 Z M 467.867188 141.179688 L 469.667969 141.179688 C 484.066406 141.179688 493.339844 140.460938 500.179688 133.171875 C 506.566406 126.328125 507.199219 118.230469 507.199219 114.449219 C 507.199219 101.941406 500 92.21875 487.757812 92.21875 C 481.816406 92.21875 478.667969 94.199219 476.148438 95.820312 L 476.6875 69.71875 L 475.96875 69.179688 L 461.027344 71.519531 L 460.488281 72.148438 C 461.207031 79.710938 461.476562 82.769531 461.476562 100.859375 C 461.476562 108.601562 461.386719 123.898438 461.296875 140.640625 L 461.929688 141.269531 L 467.867188 141.179688 M 476.507812 104.730469 C 478.308594 103.828125 480.019531 102.929688 482.359375 102.929688 C 488.296875 102.929688 491.71875 108.238281 491.71875 116.519531 C 491.71875 123 488.839844 127.230469 486.410156 128.941406 C 483.4375 131.011719 479.566406 131.101562 476.507812 131.191406 Z M 561.558594 117.058594 C 561.558594 113.550781 561.558594 98.96875 548.957031 94.019531 C 544.996094 92.488281 540.316406 92.308594 537.976562 92.308594 C 522.316406 92.308594 513.496094 100.679688 513.496094 117.238281 C 513.496094 123 514.398438 128.851562 517.726562 133.710938 C 520.066406 137.21875 524.476562 142.078125 537.347656 142.078125 C 556.425781 142.078125 561.558594 130.558594 561.558594 117.058594 M 545.988281 116.96875 C 545.988281 124.351562 544.996094 132.539062 537.527344 132.539062 C 535.1875 132.539062 533.566406 131.460938 532.488281 130.46875 C 530.957031 128.941406 529.246094 125.878906 529.246094 117.148438 C 529.246094 114.539062 529.246094 108.78125 531.046875 105.628906 C 532.398438 103.199219 534.738281 101.578125 537.617188 101.578125 C 540.136719 101.578125 542.207031 102.929688 543.378906 104.371094 C 545.539062 106.980469 545.988281 112.109375 545.988281 116.96875 Z M 585.945312 140.371094 C 585.496094 130.019531 585.046875 120.570312 585.046875 92.128906 C 585.046875 83.578125 585.136719 79.53125 585.496094 69.808594 L 584.867188 69.179688 L 569.476562 71.609375 L 569.117188 72.148438 C 570.015625 83.128906 570.105469 86.101562 570.285156 100.679688 C 570.378906 105.988281 570.378906 111.300781 570.378906 116.609375 C 570.378906 126.328125 570.195312 131.730469 569.835938 140.640625 L 570.378906 141.269531 C 576.40625 141 578.835938 140.910156 585.40625 141 Z M 640.488281 140.460938 C 640.128906 132.359375 639.859375 126.960938 639.859375 115.171875 C 639.859375 91.410156 640.21875 81.601562 640.578125 69.71875 L 639.949219 69.179688 L 625.097656 71.519531 L 624.648438 72.058594 C 625.1875 80.519531 625.277344 82.769531 625.1875 93.03125 C 618.4375 92.851562 609.976562 92.671875 603.136719 98.070312 C 596.839844 102.929688 594.226562 110.398438 594.226562 119.671875 C 594.226562 126.691406 596.117188 133.710938 601.429688 138.121094 C 605.386719 141.359375 610.25 142.078125 613.21875 142.078125 C 619.609375 142.078125 622.9375 139.109375 625.097656 137.21875 L 624.917969 140.730469 L 625.367188 141.269531 C 631.578125 141 633.289062 141 640.039062 141 L 640.488281 140.460938 M 625.1875 103.828125 C 625.277344 115.800781 625.1875 118.140625 624.917969 129.03125 C 623.117188 130.109375 621.316406 131.191406 618.796875 131.191406 C 610.066406 131.191406 610.066406 120.03125 610.066406 118.230469 C 610.066406 111.300781 612.046875 103.558594 622.128906 103.558594 C 623.117188 103.558594 623.929688 103.648438 625.1875 103.828125 Z M 675.949219 130.648438 C 674.417969 131.101562 673.335938 131.460938 671.808594 131.460938 C 667.21875 131.460938 666.859375 128.578125 666.675781 127.230469 C 666.40625 124.890625 666.40625 119.941406 666.496094 116.339844 L 666.675781 103.648438 L 674.777344 104.011719 L 675.316406 103.46875 L 676.21875 93.839844 L 675.675781 93.300781 L 666.675781 93.300781 L 666.949219 78.179688 L 666.316406 77.640625 C 660.199219 79.441406 658.578125 79.890625 652.1875 81.511719 L 651.828125 82.140625 L 651.917969 93.390625 L 647.058594 93.210938 L 646.519531 93.660156 L 645.707031 103.289062 L 646.246094 103.828125 L 651.917969 103.648438 L 651.648438 117.960938 C 651.558594 120.210938 651.46875 122.460938 651.46875 124.800781 C 651.46875 133.078125 651.648438 141.988281 665.6875 141.988281 C 669.199219 141.988281 671.988281 141.449219 675.136719 140.910156 L 675.769531 140.28125 L 676.667969 131.011719 Z M 734.898438 102.300781 C 727.339844 99.148438 723.378906 97.53125 723.378906 93.480469 C 723.378906 90.691406 725.988281 87.179688 731.929688 87.179688 C 738.769531 87.179688 742.816406 89.96875 746.148438 92.21875 L 746.957031 91.859375 L 747.679688 80.070312 L 747.226562 79.441406 C 743.359375 77.820312 739.308594 76.109375 730.578125 76.109375 C 713.660156 76.109375 707.808594 85.648438 707.808594 95.28125 C 707.808594 106.171875 716.269531 110.128906 721.308594 112.558594 L 724.277344 113.910156 C 730.488281 116.519531 735.257812 118.769531 735.257812 123.539062 C 735.257812 126.960938 732.289062 131.011719 724.457031 131.011719 C 716.269531 131.011719 711.679688 127.410156 709.066406 125.339844 L 708.167969 125.609375 L 707.539062 138.300781 L 708.078125 139.019531 C 709.066406 139.378906 710.058594 139.828125 711.046875 140.101562 C 713.117188 140.820312 718.429688 142.351562 725.179688 142.351562 C 727.878906 142.351562 734.71875 142.078125 740.117188 139.558594 C 747.679688 135.871094 750.917969 129.03125 750.917969 121.378906 C 750.917969 116.25 748.9375 110.761719 744.167969 107.070312 C 741.738281 105.269531 739.398438 104.191406 737.238281 103.199219 Z M 784.667969 130.648438 C 783.136719 131.101562 782.054688 131.460938 780.527344 131.460938 C 775.9375 131.460938 775.578125 128.578125 775.394531 127.230469 C 775.125 124.890625 775.125 119.941406 775.214844 116.339844 L 775.394531 103.648438 L 783.496094 104.011719 L 784.035156 103.46875 L 784.9375 93.839844 L 784.394531 93.300781 L 775.394531 93.300781 L 775.667969 78.179688 L 775.035156 77.640625 C 768.917969 79.441406 767.296875 79.890625 760.90625 81.511719 L 760.546875 82.140625 L 760.636719 93.390625 L 755.777344 93.210938 L 755.238281 93.660156 L 754.425781 103.289062 L 754.964844 103.828125 L 760.636719 103.648438 L 760.367188 117.960938 C 760.277344 120.210938 760.1875 122.460938 760.1875 124.800781 C 760.1875 133.078125 760.367188 141.988281 774.40625 141.988281 C 777.917969 141.988281 780.707031 141.449219 783.855469 140.910156 L 784.488281 140.28125 L 785.386719 131.011719 Z M 831.378906 114.179688 C 831.46875 106.078125 831.46875 102.570312 829.128906 98.789062 C 827.328125 95.910156 823.730469 92.308594 812.210938 92.308594 C 804.46875 92.308594 799.699219 93.75 794.570312 95.28125 L 794.03125 96 L 793.578125 105.808594 L 794.300781 106.171875 C 797.449219 104.910156 803.300781 102.570312 809.328125 102.570312 C 812.660156 102.570312 814.007812 103.109375 815.179688 104.28125 C 816.078125 105.179688 816.351562 106.800781 816.351562 108.148438 C 805.550781 109.589844 800.507812 110.578125 795.109375 113.910156 C 790.070312 117.058594 788.359375 122.191406 788.359375 126.238281 C 788.359375 135.871094 795.289062 142.078125 804.109375 142.078125 C 810.859375 142.078125 814.730469 138.839844 816.621094 137.308594 L 816.621094 140.640625 L 817.160156 141.269531 C 823.640625 141 825.621094 140.910156 831.46875 141 L 831.917969 140.371094 C 831.289062 131.550781 831.289062 129.300781 831.289062 120.839844 L 831.378906 114.179688 M 816.53125 128.488281 C 814.640625 129.570312 812.210938 130.828125 809.238281 130.828125 C 806 130.828125 803.300781 129.121094 803.300781 125.339844 C 803.300781 119.398438 810.410156 118.410156 816.53125 117.601562 Z M 867.109375 130.648438 C 865.578125 131.101562 864.496094 131.460938 862.96875 131.460938 C 858.378906 131.460938 858.019531 128.578125 857.835938 127.230469 C 857.566406 124.890625 857.566406 119.941406 857.65625 116.339844 L 857.835938 103.648438 L 865.9375 104.011719 L 866.476562 103.46875 L 867.378906 93.839844 L 866.835938 93.300781 L 857.835938 93.300781 L 858.109375 78.179688 L 857.476562 77.640625 C 851.359375 79.441406 849.738281 79.890625 843.347656 81.511719 L 842.988281 82.140625 L 843.078125 93.390625 L 838.21875 93.210938 L 837.679688 93.660156 L 836.867188 103.289062 L 837.40625 103.828125 L 843.078125 103.648438 L 842.808594 117.960938 C 842.71875 120.210938 842.628906 122.460938 842.628906 124.800781 C 842.628906 133.078125 842.808594 141.988281 856.847656 141.988281 C 860.359375 141.988281 863.148438 141.449219 866.296875 140.910156 L 866.929688 140.28125 L 867.828125 131.011719 Z M 913.726562 127.679688 C 910.308594 129.480469 906.257812 131.550781 899.6875 131.550781 C 894.289062 131.550781 890.597656 129.839844 888.4375 126.601562 C 887.085938 124.710938 886.816406 122.910156 886.457031 121.109375 L 915.527344 120.570312 L 916.066406 119.941406 C 915.976562 115.53125 915.886719 111.03125 914.628906 106.53125 C 911.476562 95.910156 904.546875 93.75 901.488281 93.03125 C 899.238281 92.398438 897.167969 92.21875 895.097656 92.21875 C 880.96875 92.21875 871.605469 101.488281 871.605469 117.058594 C 871.605469 121.289062 872.328125 125.699219 873.765625 128.851562 C 878.988281 141 891.226562 142.078125 897.707031 142.078125 C 905.175781 142.078125 908.417969 140.730469 913.1875 138.839844 L 913.726562 138.121094 L 914.355469 127.949219 L 913.726562 127.679688 M 886.457031 111.570312 C 886.726562 108.78125 887.355469 105 890.777344 102.839844 C 891.855469 102.121094 893.117188 101.851562 894.378906 101.851562 C 897.347656 101.851562 899.148438 103.378906 900.136719 105 C 901.398438 106.980469 901.488281 109.140625 901.488281 111.210938 Z M 918.949219 141 "/>
<path fill-rule="nonzero" fill="rgb(34.901961%, 14.901961%, 14.901961%)" fill-opacity="1" d="M 277.921875 197.191406 C 270.722656 197.460938 269.554688 197.460938 261.992188 197.460938 L 261.542969 198 C 262.171875 208.171875 262.171875 210.78125 262.261719 221.398438 C 258.304688 221.488281 254.34375 221.578125 250.292969 221.578125 C 247.144531 221.578125 243.902344 221.488281 240.753906 221.488281 L 240.933594 197.730469 L 240.484375 197.191406 C 233.554688 197.460938 232.203125 197.460938 224.375 197.460938 L 223.832031 198 C 224.285156 207.269531 224.824219 218.339844 224.824219 240.660156 C 224.824219 248.761719 224.644531 253.171875 224.464844 260.730469 L 224.914062 261.269531 C 231.484375 261 233.101562 260.910156 241.023438 261 L 241.472656 260.460938 C 240.933594 249.300781 240.84375 246.058594 240.753906 233.011719 C 244.714844 232.828125 248.042969 232.738281 251.554688 232.738281 C 255.152344 232.738281 258.753906 232.828125 262.351562 232.921875 C 262.535156 245.070312 262.535156 248.039062 262.082031 260.730469 L 262.535156 261.269531 C 269.285156 261 271.082031 260.910156 278.734375 261 L 279.183594 260.460938 C 278.464844 245.339844 278.191406 230.308594 278.191406 215.191406 C 278.191406 208.890625 278.285156 204.660156 278.375 197.730469 Z M 305.914062 260.371094 C 305.460938 253.441406 305.101562 248.128906 305.101562 235.710938 C 305.101562 228.058594 305.28125 220.320312 305.371094 212.671875 L 304.742188 211.949219 L 289.261719 214.648438 L 288.722656 215.191406 C 289.441406 222.03125 289.710938 225.179688 289.710938 237.960938 C 289.710938 247.769531 289.441406 253.261719 289.171875 260.640625 L 289.710938 261.269531 C 296.191406 261 297.992188 260.910156 305.28125 261 L 305.914062 260.371094 M 304.472656 203.308594 L 304.742188 191.070312 L 304.203125 190.53125 L 289.53125 192.328125 L 288.992188 192.960938 C 289.171875 196.199219 289.261719 198.089844 289.261719 200.25 C 289.261719 201.960938 289.261719 203.761719 289.171875 205.46875 L 289.800781 206.011719 C 295.921875 204.929688 297.632812 204.75 304.023438 203.941406 Z M 334.804688 229.949219 C 331.742188 228.871094 329.3125 227.878906 329.3125 225.359375 C 329.3125 224.28125 330.035156 221.308594 335.613281 221.308594 C 341.105469 221.308594 344.613281 223.648438 346.863281 225.089844 L 347.675781 224.820312 L 348.574219 215.011719 L 348.125 214.46875 C 343.894531 213.300781 340.203125 212.21875 334.355469 212.21875 C 329.945312 212.21875 321.125 212.578125 316.445312 219.328125 C 315.273438 220.949219 314.015625 223.648438 314.015625 227.25 C 314.015625 236.878906 321.484375 239.761719 325.714844 241.378906 L 329.132812 242.640625 C 331.5625 243.449219 335.523438 244.800781 335.523438 248.039062 C 335.523438 250.289062 333.453125 252.71875 328.414062 252.71875 C 325.894531 252.71875 322.203125 251.910156 318.875 250.199219 C 317.34375 249.390625 316.625 248.761719 315.273438 247.679688 L 314.464844 248.039062 C 314.285156 252.71875 314.195312 253.710938 313.832031 258.210938 L 314.285156 259.019531 C 318.695312 260.640625 322.472656 262.078125 329.042969 262.078125 C 335.882812 262.078125 349.382812 260.820312 351.003906 247.949219 C 351.09375 247.230469 351.09375 246.601562 351.09375 245.96875 C 351.09375 236.070312 344.164062 233.460938 339.214844 231.570312 Z M 384.214844 250.648438 C 382.683594 251.101562 381.601562 251.460938 380.074219 251.460938 C 375.484375 251.460938 375.125 248.578125 374.941406 247.230469 C 374.671875 244.890625 374.671875 239.941406 374.761719 236.339844 L 374.941406 223.648438 L 383.042969 224.011719 L 383.582031 223.46875 L 384.484375 213.839844 L 383.941406 213.300781 L 374.941406 213.300781 L 375.214844 198.179688 L 374.582031 197.640625 C 368.464844 199.441406 366.84375 199.890625 360.453125 201.511719 L 360.09375 202.140625 L 360.183594 213.390625 L 355.324219 213.210938 L 354.785156 213.660156 L 353.972656 223.289062 L 354.511719 223.828125 L 360.183594 223.648438 L 359.914062 237.960938 C 359.824219 240.210938 359.734375 242.460938 359.734375 244.800781 C 359.734375 253.078125 359.914062 261.988281 373.953125 261.988281 C 377.464844 261.988281 380.253906 261.449219 383.402344 260.910156 L 384.035156 260.28125 L 384.933594 251.011719 Z M 436.683594 237.058594 C 436.683594 233.550781 436.683594 218.96875 424.082031 214.019531 C 420.121094 212.488281 415.441406 212.308594 413.101562 212.308594 C 397.441406 212.308594 388.621094 220.679688 388.621094 237.238281 C 388.621094 243 389.523438 248.851562 392.851562 253.710938 C 395.191406 257.21875 399.601562 262.078125 412.472656 262.078125 C 431.550781 262.078125 436.683594 250.558594 436.683594 237.058594 M 421.113281 236.96875 C 421.113281 244.351562 420.121094 252.539062 412.652344 252.539062 C 410.3125 252.539062 408.691406 251.460938 407.613281 250.46875 C 406.082031 248.941406 404.371094 245.878906 404.371094 237.148438 C 404.371094 234.539062 404.371094 228.78125 406.171875 225.628906 C 407.523438 223.199219 409.863281 221.578125 412.742188 221.578125 C 415.261719 221.578125 417.332031 222.929688 418.503906 224.371094 C 420.664062 226.980469 421.113281 232.109375 421.113281 236.96875 Z M 471.242188 227.609375 L 473.761719 212.941406 L 473.222656 212.308594 C 472.59375 212.308594 471.960938 212.21875 471.332031 212.21875 C 467.640625 212.21875 463.503906 214.289062 460.621094 220.949219 L 460.890625 212.671875 L 460.171875 211.949219 C 453.511719 213.390625 451.800781 213.660156 445.230469 214.648438 L 444.691406 215.191406 C 445.230469 221.941406 445.503906 225.988281 445.503906 238.5 C 445.503906 245.878906 445.410156 253.261719 445.230469 260.730469 L 445.773438 261.269531 C 452.433594 261 453.871094 260.910156 461.070312 261 L 461.523438 260.371094 C 461.160156 253.078125 460.621094 242.910156 460.621094 236.699219 C 460.621094 232.648438 460.621094 226.710938 466.742188 226.710938 C 468.273438 226.710938 469.171875 227.25 470.433594 227.96875 Z M 495.273438 260.371094 C 494.820312 253.441406 494.460938 248.128906 494.460938 235.710938 C 494.460938 228.058594 494.640625 220.320312 494.730469 212.671875 L 494.101562 211.949219 L 478.621094 214.648438 L 478.082031 215.191406 C 478.800781 222.03125 479.070312 225.179688 479.070312 237.960938 C 479.070312 247.769531 478.800781 253.261719 478.53125 260.640625 L 479.070312 261.269531 C 485.550781 261 487.351562 260.910156 494.640625 261 L 495.273438 260.371094 M 493.832031 203.308594 L 494.101562 191.070312 L 493.5625 190.53125 L 478.890625 192.328125 L 478.351562 192.960938 C 478.53125 196.199219 478.621094 198.089844 478.621094 200.25 C 478.621094 201.960938 478.621094 203.761719 478.53125 205.46875 L 479.160156 206.011719 C 485.28125 204.929688 486.992188 204.75 493.382812 203.941406 Z M 540.453125 248.039062 C 538.023438 249.480469 535.683594 250.921875 531.09375 250.921875 C 520.921875 250.921875 518.851562 242.460938 518.851562 237.058594 C 518.851562 230.488281 521.734375 222.929688 530.464844 222.929688 C 534.421875 222.929688 536.582031 224.371094 539.285156 226.171875 L 540.183594 225.898438 C 540.542969 221.128906 540.632812 219.871094 541.351562 215.101562 L 540.902344 214.558594 C 536.941406 213.300781 533.523438 212.21875 528.304688 212.21875 C 507.152344 212.21875 503.011719 228.238281 503.011719 237.421875 C 503.011719 247.769531 508.414062 261.808594 528.664062 261.808594 C 533.433594 261.808594 536.492188 260.910156 540.273438 259.828125 L 540.8125 259.289062 L 541.171875 248.488281 Z M 586.714844 197.28125 L 575.285156 197.460938 L 574.742188 198 C 575.105469 209.699219 575.375 217.53125 575.375 227.878906 C 575.375 238.859375 575.105469 249.75 574.832031 260.730469 L 575.375 261.269531 C 582.035156 261 583.472656 260.910156 590.675781 261 L 591.125 260.460938 C 590.765625 250.648438 590.765625 248.398438 590.765625 239.21875 C 600.84375 239.308594 611.644531 239.308594 618.125 231.390625 C 620.644531 228.328125 622.804688 223.199219 622.804688 216.898438 C 622.804688 213.03125 621.902344 204.480469 614.433594 200.25 C 609.035156 197.101562 601.382812 197.101562 594.632812 197.101562 L 586.714844 197.28125 M 590.765625 208.171875 C 592.742188 208.078125 594.632812 208.078125 596.613281 208.078125 C 604.535156 208.261719 606.695312 212.308594 606.695312 217.53125 C 606.695312 218.789062 606.695312 224.011719 601.925781 226.621094 C 599.492188 227.96875 596.164062 228.148438 590.765625 228.148438 Z M 669.0625 234.179688 C 669.152344 226.078125 669.152344 222.570312 666.8125 218.789062 C 665.011719 215.910156 661.414062 212.308594 649.894531 212.308594 C 642.152344 212.308594 637.382812 213.75 632.253906 215.28125 L 631.714844 216 L 631.261719 225.808594 L 631.984375 226.171875 C 635.132812 224.910156 640.984375 222.570312 647.011719 222.570312 C 650.34375 222.570312 651.691406 223.109375 652.863281 224.28125 C 653.761719 225.179688 654.035156 226.800781 654.035156 228.148438 C 643.234375 229.589844 638.191406 230.578125 632.792969 233.910156 C 627.753906 237.058594 626.042969 242.191406 626.042969 246.238281 C 626.042969 255.871094 632.972656 262.078125 641.792969 262.078125 C 648.542969 262.078125 652.414062 258.839844 654.304688 257.308594 L 654.304688 260.640625 L 654.84375 261.269531 C 661.324219 261 663.304688 260.910156 669.152344 261 L 669.601562 260.371094 C 668.972656 251.550781 668.972656 249.300781 668.972656 240.839844 L 669.0625 234.179688 M 654.214844 248.488281 C 652.324219 249.570312 649.894531 250.828125 646.921875 250.828125 C 643.683594 250.828125 640.984375 249.121094 640.984375 245.339844 C 640.984375 239.398438 648.09375 238.410156 654.214844 237.601562 Z M 705.601562 227.609375 L 708.121094 212.941406 L 707.582031 212.308594 C 706.953125 212.308594 706.320312 212.21875 705.691406 212.21875 C 702 212.21875 697.863281 214.289062 694.980469 220.949219 L 695.25 212.671875 L 694.53125 211.949219 C 687.871094 213.390625 686.160156 213.660156 679.589844 214.648438 L 679.050781 215.191406 C 679.589844 221.941406 679.863281 225.988281 679.863281 238.5 C 679.863281 245.878906 679.769531 253.261719 679.589844 260.730469 L 680.132812 261.269531 C 686.792969 261 688.230469 260.910156 695.429688 261 L 695.882812 260.371094 C 695.519531 253.078125 694.980469 242.910156 694.980469 236.699219 C 694.980469 232.648438 694.980469 226.710938 701.101562 226.710938 C 702.632812 226.710938 703.53125 227.25 704.792969 227.96875 Z M 759.601562 259.828125 C 751.140625 245.519531 750.242188 243.898438 743.402344 231.570312 C 749.613281 223.109375 750.242188 222.210938 756.632812 214.019531 L 756.179688 213.121094 L 741.511719 213.300781 L 740.613281 213.929688 C 733.589844 226.078125 732.691406 227.519531 728.550781 233.730469 L 728.550781 223.738281 C 728.640625 206.910156 728.730469 203.308594 729.179688 189.71875 L 728.460938 189.179688 L 712.800781 191.519531 L 712.261719 192.148438 C 712.890625 200.878906 713.160156 205.109375 713.339844 216.898438 C 713.519531 231.480469 713.519531 246.058594 713.429688 260.640625 L 714.0625 261.269531 C 720.089844 261 721.800781 261 728.640625 261 L 729.179688 260.371094 L 728.640625 245.160156 L 728.550781 234.808594 C 736.382812 249.210938 737.371094 251.191406 741.960938 260.730469 L 742.769531 261.269531 L 758.972656 260.640625 Z M 758.523438 261 "/>
</svg>
