<?xml version="1.0" encoding="UTF-8"?>
<svg xmlns="http://www.w3.org/2000/svg" xmlns:xlink="http://www.w3.org/1999/xlink" width="975" height="1300" viewBox="0 0 975 1300">
<path fill-rule="nonzero" fill="rgb(98.823529%, 78.823529%, 9.019608%)" fill-opacity="1" d="M 50 50 L 925 50 L 925 170 L 50 170 Z M 50 50 "/>
<path fill-rule="nonzero" fill="rgb(34.901961%, 14.901961%, 14.901961%)" fill-opacity="1" d="M 139.820312 77.191406 C 132.621094 77.460938 131.453125 77.460938 123.890625 77.460938 L 123.441406 78 C 124.070312 88.171875 124.070312 90.78125 124.160156 101.398438 C 120.203125 101.488281 116.242188 101.578125 112.191406 101.578125 C 109.042969 101.578125 105.800781 101.488281 102.652344 101.488281 L 102.832031 77.730469 L 102.382812 77.191406 C 95.453125 77.460938 94.101562 77.460938 86.273438 77.460938 L 85.730469 78 C 86.183594 87.269531 86.722656 98.339844 86.722656 120.660156 C 86.722656 128.761719 86.542969 133.171875 86.363281 140.730469 L 86.8125 141.269531 C 93.382812 141 95 140.910156 102.921875 141 L 103.371094 140.460938 C 102.832031 129.300781 102.742188 126.058594 102.652344 113.011719 C 106.613281 112.828125 109.941406 112.738281 113.453125 112.738281 C 117.050781 112.738281 120.652344 112.828125 124.25 112.921875 C 124.433594 125.070312 124.433594 128.039062 123.980469 140.730469 L 124.433594 141.269531 C 131.183594 141 132.980469 140.910156 140.632812 141 L 141.082031 140.460938 C 140.363281 125.339844 140.089844 110.308594 140.089844 95.191406 C 140.089844 88.890625 140.183594 84.660156 140.273438 77.730469 Z M 197.332031 117.058594 C 197.332031 113.550781 197.332031 98.96875 184.730469 94.019531 C 180.769531 92.488281 176.089844 92.308594 173.75 92.308594 C 158.089844 92.308594 149.269531 100.679688 149.269531 117.238281 C 149.269531 123 150.171875 128.851562 153.5 133.710938 C 155.839844 137.21875 160.25 142.078125 173.121094 142.078125 C 192.199219 142.078125 197.332031 130.558594 197.332031 117.058594 M 181.761719 116.96875 C 181.761719 124.351562 180.769531 132.539062 173.300781 132.539062 C 170.960938 132.539062 169.339844 131.460938 168.261719 130.46875 C 166.730469 128.941406 165.019531 125.878906 165.019531 117.148438 C 165.019531 114.539062 165.019531 108.78125 166.820312 105.628906 C 168.171875 103.199219 170.511719 101.578125 173.390625 101.578125 C 175.910156 101.578125 177.980469 102.929688 179.152344 104.371094 C 181.3125 106.980469 181.761719 112.109375 181.761719 116.96875 Z M 221.71875 140.371094 C 221.269531 130.019531 220.820312 120.570312 220.820312 92.128906 C 220.820312 83.578125 220.910156 79.53125 221.269531 69.808594 L 220.640625 69.179688 L 205.25 71.609375 L 204.890625 72.148438 C 205.789062 83.128906 205.878906 86.101562 206.058594 100.679688 C 206.152344 105.988281 206.152344 111.300781 206.152344 116.609375 C 206.152344 126.328125 205.96875 131.730469 205.609375 140.640625 L 206.152344 141.269531 C 212.179688 141 214.609375 140.910156 221.179688 141 Z M 248 140.371094 C 247.550781 130.019531 247.101562 120.570312 247.101562 92.128906 C 247.101562 83.578125 247.191406 79.53125 247.550781 69.808594 L 246.921875 69.179688 L 231.53125 71.609375 L 231.171875 72.148438 C 232.070312 83.128906 232.160156 86.101562 232.339844 100.679688 C 232.433594 105.988281 232.433594 111.300781 232.433594 116.609375 C 232.433594 126.328125 232.25 131.730469 231.890625 140.640625 L 232.433594 141.269531 C 238.460938 141 240.890625 140.910156 247.460938 141 Z M 274.734375 140.371094 C 274.28125 133.441406 273.921875 128.128906 273.921875 115.710938 C 273.921875 108.058594 274.101562 100.320312 274.191406 92.671875 L 273.5625 91.949219 L 258.082031 94.648438 L 257.542969 95.191406 C 258.261719 102.03125 258.53125 105.179688 258.53125 117.960938 C 258.53125 127.769531 258.261719 133.261719 257.992188 140.640625 L 258.53125 141.269531 C 265.011719 141 266.8125 140.910156 274.101562 141 L 274.734375 140.371094 M 273.292969 83.308594 L 273.5625 71.070312 L 273.023438 70.53125 L 258.351562 72.328125 L 257.8125 72.960938 C 257.992188 76.199219 258.082031 78.089844 258.082031 80.25 C 258.082031 81.960938 258.082031 83.761719 257.992188 85.46875 L 258.621094 86.011719 C 264.742188 84.929688 266.453125 84.75 272.84375 83.941406 Z M 303.621094 109.949219 C 300.558594 108.871094 298.128906 107.878906 298.128906 105.359375 C 298.128906 104.28125 298.851562 101.308594 304.429688 101.308594 C 309.921875 101.308594 313.429688 103.648438 315.679688 105.089844 L 316.492188 104.820312 L 317.390625 95.011719 L 316.941406 94.46875 C 312.710938 93.300781 309.019531 92.21875 303.171875 92.21875 C 298.761719 92.21875 289.941406 92.578125 285.261719 99.328125 C 284.089844 100.949219 282.832031 103.648438 282.832031 107.25 C 282.832031 116.878906 290.300781 119.761719 294.53125 121.378906 L 297.949219 122.640625 C 300.378906 123.449219 304.339844 124.800781 304.339844 128.039062 C 304.339844 130.289062 302.269531 132.71875 297.230469 132.71875 C 294.710938 132.71875 291.019531 131.910156 287.691406 130.199219 C 286.160156 129.390625 285.441406 128.761719 284.089844 127.679688 L 283.28125 128.039062 C 283.101562 132.71875 283.011719 133.710938 282.648438 138.210938 L 283.101562 139.019531 C 287.511719 140.640625 291.289062 142.078125 297.859375 142.078125 C 304.699219 142.078125 318.199219 140.820312 319.820312 127.949219 C 319.910156 127.230469 319.910156 126.601562 319.910156 125.96875 C 319.910156 116.070312 312.980469 113.460938 308.03125 111.570312 Z M 353.035156 130.648438 C 351.503906 131.101562 350.421875 131.460938 348.894531 131.460938 C 344.304688 131.460938 343.945312 128.578125 343.761719 127.230469 C 343.492188 124.890625 343.492188 119.941406 343.582031 116.339844 L 343.761719 103.648438 L 351.863281 104.011719 L 352.402344 103.46875 L 353.304688 93.839844 L 352.761719 93.300781 L 343.761719 93.300781 L 344.035156 78.179688 L 343.402344 77.640625 C 337.285156 79.441406 335.664062 79.890625 329.273438 81.511719 L 328.914062 82.140625 L 329.003906 93.390625 L 324.144531 93.210938 L 323.605469 93.660156 L 322.792969 103.289062 L 323.332031 103.828125 L 329.003906 103.648438 L 328.734375 117.960938 C 328.644531 120.210938 328.554688 122.460938 328.554688 124.800781 C 328.554688 133.078125 328.734375 141.988281 342.773438 141.988281 C 346.285156 141.988281 349.074219 141.449219 352.222656 140.910156 L 352.855469 140.28125 L 353.753906 131.011719 Z M 399.652344 127.679688 C 396.234375 129.480469 392.183594 131.550781 385.613281 131.550781 C 380.214844 131.550781 376.523438 129.839844 374.363281 126.601562 C 373.011719 124.710938 372.742188 122.910156 372.382812 121.109375 L 401.453125 120.570312 L 401.992188 119.941406 C 401.902344 115.53125 401.8125 111.03125 400.554688 106.53125 C 397.402344 95.910156 390.472656 93.75 387.414062 93.03125 C 385.164062 92.398438 383.09375 92.21875 381.023438 92.21875 C 366.894531 92.21875 357.53125 101.488281 357.53125 117.058594 C 357.53125 121.289062 358.253906 125.699219 359.691406 128.851562 C 364.914062 141 377.152344 142.078125 383.632812 142.078125 C 391.101562 142.078125 394.34375 140.730469 399.113281 138.839844 L 399.652344 138.121094 L 400.28125 127.949219 L 399.652344 127.679688 M 372.382812 111.570312 C 372.652344 108.78125 373.28125 105 376.703125 102.839844 C 377.78125 102.121094 379.042969 101.851562 380.304688 101.851562 C 383.273438 101.851562 385.074219 103.378906 386.0625 105 C 387.324219 106.980469 387.414062 109.140625 387.414062 111.210938 Z M 436.28125 107.609375 L 438.800781 92.941406 L 438.261719 92.308594 C 437.632812 92.308594 437 92.21875 436.371094 92.21875 C 432.679688 92.21875 428.542969 94.289062 425.660156 100.949219 L 425.929688 92.671875 L 425.210938 91.949219 C 418.550781 93.390625 416.839844 93.660156 410.269531 94.648438 L 409.730469 95.191406 C 410.269531 101.941406 410.542969 105.988281 410.542969 118.5 C 410.542969 125.878906 410.449219 133.261719 410.269531 140.730469 L 410.8125 141.269531 C 417.472656 141 418.910156 140.910156 426.109375 141 L 426.5625 140.371094 C 426.199219 133.078125 425.660156 122.910156 425.660156 116.699219 C 425.660156 112.648438 425.660156 106.710938 431.78125 106.710938 C 433.3125 106.710938 434.210938 107.25 435.472656 107.96875 Z M 524.210938 77.191406 C 517.011719 77.460938 515.84375 77.460938 508.28125 77.460938 L 507.832031 78 C 508.460938 88.171875 508.460938 90.78125 508.550781 101.398438 C 504.59375 101.488281 500.632812 101.578125 496.582031 101.578125 C 493.433594 101.578125 490.191406 101.488281 487.042969 101.488281 L 487.222656 77.730469 L 486.773438 77.191406 C 479.84375 77.460938 478.492188 77.460938 470.664062 77.460938 L 470.121094 78 C 470.574219 87.269531 471.113281 98.339844 471.113281 120.660156 C 471.113281 128.761719 470.933594 133.171875 470.753906 140.730469 L 471.203125 141.269531 C 477.773438 141 479.390625 140.910156 487.3125 141 L 487.761719 140.460938 C 487.222656 129.300781 487.132812 126.058594 487.042969 113.011719 C 491.003906 112.828125 494.332031 112.738281 497.84375 112.738281 C 501.441406 112.738281 505.042969 112.828125 508.640625 112.921875 C 508.824219 125.070312 508.824219 128.039062 508.371094 140.730469 L 508.824219 141.269531 C 515.574219 141 517.371094 140.910156 525.023438 141 L 525.472656 140.460938 C 524.753906 125.339844 524.480469 110.308594 524.480469 95.191406 C 524.480469 88.890625 524.574219 84.660156 524.664062 77.730469 Z M 552.203125 140.371094 C 551.75 133.441406 551.390625 128.128906 551.390625 115.710938 C 551.390625 108.058594 551.570312 100.320312 551.660156 92.671875 L 551.03125 91.949219 L 535.550781 94.648438 L 535.011719 95.191406 C 535.730469 102.03125 536 105.179688 536 117.960938 C 536 127.769531 535.730469 133.261719 535.460938 140.640625 L 536 141.269531 C 542.480469 141 544.28125 140.910156 551.570312 141 L 552.203125 140.371094 M 550.761719 83.308594 L 551.03125 71.070312 L 550.492188 70.53125 L 535.820312 72.328125 L 535.28125 72.960938 C 535.460938 76.199219 535.550781 78.089844 535.550781 80.25 C 535.550781 81.960938 535.550781 83.761719 535.460938 85.46875 L 536.089844 86.011719 C 542.210938 84.929688 543.921875 84.75 550.3125 83.941406 Z M 578.03125 140.371094 C 577.582031 130.019531 577.132812 120.570312 577.132812 92.128906 C 577.132812 83.578125 577.222656 79.53125 577.582031 69.808594 L 576.953125 69.179688 L 561.5625 71.609375 L 561.203125 72.148438 C 562.101562 83.128906 562.191406 86.101562 562.371094 100.679688 C 562.464844 105.988281 562.464844 111.300781 562.464844 116.609375 C 562.464844 126.328125 562.28125 131.730469 561.921875 140.640625 L 562.464844 141.269531 C 568.492188 141 570.921875 140.910156 577.492188 141 Z M 604.308594 140.371094 C 603.859375 130.019531 603.410156 120.570312 603.410156 92.128906 C 603.410156 83.578125 603.5 79.53125 603.859375 69.808594 L 603.230469 69.179688 L 587.839844 71.609375 L 587.480469 72.148438 C 588.378906 83.128906 588.46875 86.101562 588.648438 100.679688 C 588.742188 105.988281 588.742188 111.300781 588.742188 116.609375 C 588.742188 126.328125 588.558594 131.730469 588.199219 140.640625 L 588.742188 141.269531 C 594.769531 141 597.199219 140.910156 603.769531 141 Z M 633.652344 109.949219 C 630.589844 108.871094 628.160156 107.878906 628.160156 105.359375 C 628.160156 104.28125 628.882812 101.308594 634.460938 101.308594 C 639.953125 101.308594 643.460938 103.648438 645.710938 105.089844 L 646.523438 104.820312 L 647.421875 95.011719 L 646.972656 94.46875 C 642.742188 93.300781 639.050781 92.21875 633.203125 92.21875 C 628.792969 92.21875 619.972656 92.578125 615.292969 99.328125 C 614.121094 100.949219 612.863281 103.648438 612.863281 107.25 C 612.863281 116.878906 620.332031 119.761719 624.5625 121.378906 L 627.980469 122.640625 C 630.410156 123.449219 634.371094 124.800781 634.371094 128.039062 C 634.371094 130.289062 632.300781 132.71875 627.261719 132.71875 C 624.742188 132.71875 621.050781 131.910156 617.722656 130.199219 C 616.191406 129.390625 615.472656 128.761719 614.121094 127.679688 L 613.3125 128.039062 C 613.132812 132.71875 613.042969 133.710938 612.679688 138.210938 L 613.132812 139.019531 C 617.542969 140.640625 621.320312 142.078125 627.890625 142.078125 C 634.730469 142.078125 648.230469 140.820312 649.851562 127.949219 C 649.941406 127.230469 649.941406 126.601562 649.941406 125.96875 C 649.941406 116.070312 643.011719 113.460938 638.0625 111.570312 Z M 710.152344 102.300781 C 702.59375 99.148438 698.632812 97.53125 698.632812 93.480469 C 698.632812 90.691406 701.242188 87.179688 707.183594 87.179688 C 714.023438 87.179688 718.070312 89.96875 721.402344 92.21875 L 722.210938 91.859375 L 722.933594 80.070312 L 722.480469 79.441406 C 718.613281 77.820312 714.5625 76.109375 705.832031 76.109375 C 688.914062 76.109375 683.0625 85.648438 683.0625 95.28125 C 683.0625 106.171875 691.523438 110.128906 696.5625 112.558594 L 699.53125 113.910156 C 705.742188 116.519531 710.511719 118.769531 710.511719 123.539062 C 710.511719 126.960938 707.542969 131.011719 699.710938 131.011719 C 691.523438 131.011719 686.933594 127.410156 684.320312 125.339844 L 683.421875 125.609375 L 682.792969 138.300781 L 683.332031 139.019531 C 684.320312 139.378906 685.3125 139.828125 686.300781 140.101562 C 688.371094 140.820312 693.683594 142.351562 700.433594 142.351562 C 703.132812 142.351562 709.972656 142.078125 715.371094 139.558594 C 722.933594 135.871094 726.171875 129.03125 726.171875 121.378906 C 726.171875 116.25 724.191406 110.761719 719.421875 107.070312 C 716.992188 105.269531 714.652344 104.191406 712.492188 103.199219 Z M 765.589844 140.371094 C 769.460938 124.078125 770.808594 119.398438 783.050781 77.640625 L 782.601562 77.191406 C 775.851562 77.460938 774.050781 77.460938 768.648438 77.460938 L 768.109375 78 C 766.398438 86.820312 765.949219 89.160156 763.429688 99.148438 L 760.550781 110.941406 L 756.679688 127.589844 L 751.910156 106.351562 L 750.019531 98.25 C 747.769531 88.980469 747.140625 85.921875 745.25 77.191406 L 744.710938 76.738281 C 737.242188 77.28125 735.621094 77.371094 728.601562 77.371094 L 728.148438 77.910156 C 734.179688 98.699219 739.582031 117.78125 742.640625 129.660156 C 743.539062 133.351562 744.441406 137.039062 745.339844 140.730469 L 745.878906 141.269531 C 753.710938 141 755.691406 140.910156 765.050781 141 Z M 807.53125 116.25 C 813.5625 126.511719 814.914062 129.210938 820.671875 141 L 821.394531 141.449219 C 824.183594 141.269531 826.882812 141.089844 829.671875 141 C 832.464844 140.910156 835.34375 140.820312 838.132812 140.820312 L 838.671875 139.738281 C 835.253906 135.328125 834.261719 133.980469 827.78125 123.628906 C 824.902344 119.039062 823.464844 116.609375 821.214844 112.648438 C 825.261719 110.851562 833.453125 107.070312 833.453125 95.640625 C 833.453125 91.679688 832.371094 83.488281 824.992188 79.621094 C 820.3125 77.191406 815.453125 77.101562 804.921875 77.28125 L 798.621094 77.371094 L 787.644531 77.371094 L 787.191406 77.910156 C 787.554688 87 787.914062 96.359375 787.914062 120.839844 C 787.914062 129.210938 787.824219 133.261719 787.554688 140.730469 L 788.09375 141.269531 C 794.664062 141 796.101562 140.910156 803.484375 141 L 804.023438 140.460938 C 803.304688 130.019531 803.214844 127.140625 803.121094 116.429688 L 807.53125 116.25 M 803.304688 88.261719 C 804.5625 88.171875 805.824219 88.171875 807.082031 88.171875 C 810.59375 88.171875 817.523438 88.171875 817.523438 96.089844 C 817.523438 98.609375 816.894531 101.941406 813.5625 104.011719 C 811.042969 105.539062 807.804688 105.71875 803.304688 105.808594 Z M 879.804688 77.191406 C 871.164062 77.460938 869.363281 77.460938 859.734375 77.460938 L 859.101562 78 C 854.332031 93.300781 851.453125 102.390625 838.222656 140.371094 L 838.582031 141 L 852.621094 141 L 853.253906 140.460938 L 857.664062 124.078125 L 877.101562 124.078125 L 880.972656 140.730469 L 881.601562 141.269531 C 888.171875 141 889.972656 140.910156 897.261719 141 L 897.714844 140.28125 C 886.824219 101.761719 885.5625 97.53125 880.433594 77.730469 L 879.804688 77.191406 M 860.8125 113.191406 L 865.3125 97.980469 L 868.464844 87.449219 L 871.164062 99.148438 L 874.492188 113.191406 Z M 898.070312 141 "/>
</svg>
