<?xml version="1.0" encoding="UTF-8"?>
<svg xmlns="http://www.w3.org/2000/svg" xmlns:xlink="http://www.w3.org/1999/xlink" width="975" height="1300" viewBox="0 0 975 1300">
<path fill-rule="nonzero" fill="rgb(98.823529%, 78.823529%, 9.019608%)" fill-opacity="1" d="M 50 50 L 925 50 L 925 170 L 50 170 Z M 50 50 "/>
<path fill-rule="nonzero" fill="rgb(34.901961%, 14.901961%, 14.901961%)" fill-opacity="1" d="M 136.128906 77.191406 C 128.929688 77.460938 127.761719 77.460938 120.199219 77.460938 L 119.75 78 C 120.378906 88.171875 120.378906 90.78125 120.46875 101.398438 C 116.511719 101.488281 112.550781 101.578125 108.5 101.578125 C 105.351562 101.578125 102.109375 101.488281 98.960938 101.488281 L 99.140625 77.730469 L 98.691406 77.191406 C 91.761719 77.460938 90.410156 77.460938 82.582031 77.460938 L 82.039062 78 C 82.492188 87.269531 83.03125 98.339844 83.03125 120.660156 C 83.03125 128.761719 82.851562 133.171875 82.671875 140.730469 L 83.121094 141.269531 C 89.691406 141 91.308594 140.910156 99.230469 141 L 99.679688 140.460938 C 99.140625 129.300781 99.050781 126.058594 98.960938 113.011719 C 102.921875 112.828125 106.25 112.738281 109.761719 112.738281 C 113.359375 112.738281 116.960938 112.828125 120.558594 112.921875 C 120.742188 125.070312 120.742188 128.039062 120.289062 140.730469 L 120.742188 141.269531 C 127.492188 141 129.289062 140.910156 136.941406 141 L 137.390625 140.460938 C 136.671875 125.339844 136.398438 110.308594 136.398438 95.191406 C 136.398438 88.890625 136.492188 84.660156 136.582031 77.730469 Z M 191.03125 92.851562 L 176.359375 93.570312 L 175.730469 94.109375 C 176.359375 104.28125 176.359375 118.679688 176.359375 120.121094 C 176.359375 122.730469 176.359375 124.171875 176.269531 127.769531 C 173.839844 129.390625 171.949219 130.738281 169.519531 130.738281 C 163.039062 130.738281 163.039062 123.898438 163.039062 118.589844 C 163.039062 116.339844 163.039062 114 163.128906 111.75 L 163.308594 93.570312 L 162.679688 92.851562 L 147.828125 93.570312 L 147.199219 94.109375 C 147.738281 101.671875 147.828125 104.191406 147.828125 113.28125 L 147.828125 119.578125 C 147.738281 129.390625 148.191406 133.53125 151.429688 137.308594 C 154.398438 140.640625 158.71875 142.078125 163.21875 142.078125 C 169.609375 142.078125 173.300781 139.199219 176.539062 136.679688 L 176.449219 140.730469 L 177.078125 141.269531 C 183.648438 141 185.628906 141 191.480469 141 L 192.019531 140.460938 C 191.570312 134.070312 191.390625 130.648438 191.390625 118.949219 C 191.390625 110.488281 191.480469 102.03125 191.660156 93.570312 Z M 246.289062 140.371094 C 245.839844 132.449219 245.839844 129.929688 245.660156 121.109375 L 245.660156 114.089844 C 245.570312 105.449219 245.480469 101.308594 243.230469 97.621094 C 240.4375 92.941406 235.308594 92.21875 232.070312 92.21875 C 226.578125 92.21875 221.808594 95.101562 217.667969 97.53125 L 217.847656 92.578125 L 216.949219 91.949219 C 210.019531 93.390625 208.488281 93.660156 201.738281 94.558594 L 201.199219 95.191406 C 201.917969 103.019531 202.460938 108.691406 202.460938 123.359375 C 202.460938 129.121094 202.367188 134.878906 202.277344 140.640625 L 202.820312 141.179688 C 209.300781 140.910156 210.648438 140.910156 217.847656 140.910156 L 218.390625 140.371094 C 217.847656 126.511719 217.757812 123 217.667969 106.890625 C 219.558594 105.628906 221.71875 104.101562 224.597656 104.101562 C 229.550781 104.101562 230 109.410156 230.269531 112.648438 C 230.449219 115.621094 230.539062 127.949219 230.539062 131.371094 C 230.539062 134.429688 230.449219 137.578125 230.449219 140.640625 L 230.988281 141.179688 C 236.929688 141 238.460938 140.910156 245.660156 140.910156 Z M 273.109375 125.789062 C 275.988281 125.878906 278.867188 126.058594 283.1875 124.621094 C 287.867188 123 294.707031 119.128906 294.707031 110.398438 C 294.707031 106.078125 293.449219 104.28125 292.277344 102.570312 L 298.488281 102.929688 L 299.027344 102.480469 L 299.660156 93.480469 L 299.117188 93.03125 C 292.1875 93.300781 290.296875 93.390625 284.628906 93.300781 L 280.488281 93.210938 C 274.097656 93.03125 265.546875 92.851562 259.699219 97.710938 C 257.71875 99.238281 253.9375 103.109375 253.9375 109.859375 C 253.9375 113.460938 254.929688 116.339844 256.546875 118.589844 C 258.527344 121.378906 260.328125 122.371094 262.578125 123.628906 C 260.058594 128.488281 258.707031 130.921875 256.636719 134.609375 L 256.636719 135.421875 L 260.417969 138.121094 C 257.71875 140.191406 253.488281 143.609375 253.488281 149.460938 C 253.488281 153.601562 255.738281 157.199219 259.070312 159.628906 C 264.109375 163.230469 270.949219 163.410156 274.457031 163.410156 C 290.929688 163.410156 298.488281 155.128906 298.488281 146.398438 C 298.488281 135.058594 288.589844 132.898438 282.738281 131.550781 L 280.578125 131.191406 C 276.167969 130.46875 275.179688 130.199219 271.667969 128.941406 L 273.109375 125.789062 M 280.488281 109.589844 C 280.398438 116.878906 275.988281 117.511719 274.726562 117.511719 C 274.007812 117.511719 270.859375 117.328125 269.328125 113.730469 C 268.519531 111.839844 268.519531 109.679688 268.519531 109.050781 C 268.519531 104.550781 271.21875 101.671875 274.546875 101.671875 C 278.6875 101.671875 280.578125 105.628906 280.488281 109.589844 M 272.839844 143.160156 C 280.847656 145.230469 280.9375 145.230469 282.019531 146.128906 C 282.917969 146.761719 283.820312 147.75 283.820312 149.640625 C 283.820312 152.339844 281.570312 155.128906 275.628906 155.128906 C 268.96875 155.128906 266.71875 151.351562 266.71875 148.199219 C 266.71875 145.230469 268.25 143.519531 269.328125 142.261719 Z M 331.339844 107.609375 L 333.859375 92.941406 L 333.320312 92.308594 C 332.691406 92.308594 332.058594 92.21875 331.429688 92.21875 C 327.738281 92.21875 323.601562 94.289062 320.71875 100.949219 L 320.988281 92.671875 L 320.269531 91.949219 C 313.609375 93.390625 311.898438 93.660156 305.328125 94.648438 L 304.789062 95.191406 C 305.328125 101.941406 305.601562 105.988281 305.601562 118.5 C 305.601562 125.878906 305.507812 133.261719 305.328125 140.730469 L 305.871094 141.269531 C 312.53125 141 313.96875 140.910156 321.167969 141 L 321.621094 140.371094 C 321.257812 133.078125 320.71875 122.910156 320.71875 116.699219 C 320.71875 112.648438 320.71875 106.710938 326.839844 106.710938 C 328.371094 106.710938 329.269531 107.25 330.53125 107.96875 Z M 379.308594 93.03125 L 366.800781 93.300781 L 366.078125 93.929688 C 364.550781 100.140625 364.191406 101.488281 362.03125 108.511719 L 359.691406 116.25 L 357.710938 123 L 356 116.609375 L 353.390625 107.070312 L 349.789062 93.390625 L 349.070312 92.851562 C 342.050781 93.390625 340.519531 93.480469 333.140625 93.660156 L 332.691406 94.289062 C 335.929688 102.839844 344.300781 125.429688 349.878906 142.710938 C 346.191406 152.070312 345.46875 153.691406 341.417969 162.601562 L 341.871094 163.320312 C 344.121094 163.230469 346.640625 163.140625 348.980469 163.140625 C 351.230469 163.140625 353.570312 163.230469 355.820312 163.230469 L 356.449219 162.691406 C 361.398438 143.25 363.828125 135.691406 375.710938 104.371094 C 377.058594 100.769531 378.410156 97.261719 379.667969 93.75 Z M 441.230469 140.371094 C 445.101562 124.078125 446.449219 119.398438 458.691406 77.640625 L 458.242188 77.191406 C 451.492188 77.460938 449.691406 77.460938 444.289062 77.460938 L 443.75 78 C 442.039062 86.820312 441.589844 89.160156 439.070312 99.148438 L 436.191406 110.941406 L 432.320312 127.589844 L 427.550781 106.351562 L 425.660156 98.25 C 423.410156 88.980469 422.78125 85.921875 420.890625 77.191406 L 420.351562 76.738281 C 412.882812 77.28125 411.261719 77.371094 404.242188 77.371094 L 403.789062 77.910156 C 409.820312 98.699219 415.222656 117.78125 418.28125 129.660156 C 419.179688 133.351562 420.082031 137.039062 420.980469 140.730469 L 421.519531 141.269531 C 429.351562 141 431.332031 140.910156 440.691406 141 Z M 502.878906 114.179688 C 502.96875 106.078125 502.96875 102.570312 500.628906 98.789062 C 498.828125 95.910156 495.230469 92.308594 483.710938 92.308594 C 475.96875 92.308594 471.199219 93.75 466.070312 95.28125 L 465.53125 96 L 465.078125 105.808594 L 465.800781 106.171875 C 468.949219 104.910156 474.800781 102.570312 480.828125 102.570312 C 484.160156 102.570312 485.507812 103.109375 486.679688 104.28125 C 487.578125 105.179688 487.851562 106.800781 487.851562 108.148438 C 477.050781 109.589844 472.007812 110.578125 466.609375 113.910156 C 461.570312 117.058594 459.859375 122.191406 459.859375 126.238281 C 459.859375 135.871094 466.789062 142.078125 475.609375 142.078125 C 482.359375 142.078125 486.230469 138.839844 488.121094 137.308594 L 488.121094 140.640625 L 488.660156 141.269531 C 495.140625 141 497.121094 140.910156 502.96875 141 L 503.417969 140.371094 C 502.789062 131.550781 502.789062 129.300781 502.789062 120.839844 L 502.878906 114.179688 M 488.03125 128.488281 C 486.140625 129.570312 483.710938 130.828125 480.738281 130.828125 C 477.5 130.828125 474.800781 129.121094 474.800781 125.339844 C 474.800781 119.398438 481.910156 118.410156 488.03125 117.601562 Z M 529.25 140.371094 C 528.800781 130.019531 528.351562 120.570312 528.351562 92.128906 C 528.351562 83.578125 528.441406 79.53125 528.800781 69.808594 L 528.171875 69.179688 L 512.78125 71.609375 L 512.421875 72.148438 C 513.320312 83.128906 513.410156 86.101562 513.589844 100.679688 C 513.683594 105.988281 513.683594 111.300781 513.683594 116.609375 C 513.683594 126.328125 513.5 131.730469 513.140625 140.640625 L 513.683594 141.269531 C 519.710938 141 522.140625 140.910156 528.710938 141 Z M 555.527344 140.371094 C 555.078125 130.019531 554.628906 120.570312 554.628906 92.128906 C 554.628906 83.578125 554.71875 79.53125 555.078125 69.808594 L 554.449219 69.179688 L 539.058594 71.609375 L 538.699219 72.148438 C 539.597656 83.128906 539.6875 86.101562 539.867188 100.679688 C 539.960938 105.988281 539.960938 111.300781 539.960938 116.609375 C 539.960938 126.328125 539.777344 131.730469 539.417969 140.640625 L 539.960938 141.269531 C 545.988281 141 548.417969 140.910156 554.988281 141 Z M 605.929688 127.679688 C 602.511719 129.480469 598.460938 131.550781 591.890625 131.550781 C 586.492188 131.550781 582.800781 129.839844 580.640625 126.601562 C 579.289062 124.710938 579.019531 122.910156 578.660156 121.109375 L 607.730469 120.570312 L 608.269531 119.941406 C 608.179688 115.53125 608.089844 111.03125 606.832031 106.53125 C 603.679688 95.910156 596.75 93.75 593.691406 93.03125 C 591.441406 92.398438 589.371094 92.21875 587.300781 92.21875 C 573.171875 92.21875 563.808594 101.488281 563.808594 117.058594 C 563.808594 121.289062 564.53125 125.699219 565.96875 128.851562 C 571.191406 141 583.429688 142.078125 589.910156 142.078125 C 597.378906 142.078125 600.621094 140.730469 605.390625 138.839844 L 605.929688 138.121094 L 606.558594 127.949219 L 605.929688 127.679688 M 578.660156 111.570312 C 578.929688 108.78125 579.558594 105 582.980469 102.839844 C 584.058594 102.121094 585.320312 101.851562 586.582031 101.851562 C 589.550781 101.851562 591.351562 103.378906 592.339844 105 C 593.601562 106.980469 593.691406 109.140625 593.691406 111.210938 Z M 656.777344 93.03125 L 644.269531 93.300781 L 643.546875 93.929688 C 642.019531 100.140625 641.660156 101.488281 639.5 108.511719 L 637.160156 116.25 L 635.179688 123 L 633.46875 116.609375 L 630.859375 107.070312 L 627.257812 93.390625 L 626.539062 92.851562 C 619.519531 93.390625 617.988281 93.480469 610.609375 93.660156 L 610.160156 94.289062 C 613.398438 102.839844 621.769531 125.429688 627.347656 142.710938 C 623.660156 152.070312 622.9375 153.691406 618.886719 162.601562 L 619.339844 163.320312 C 621.589844 163.230469 624.109375 163.140625 626.449219 163.140625 C 628.699219 163.140625 631.039062 163.230469 633.289062 163.230469 L 633.917969 162.691406 C 638.867188 143.25 641.296875 135.691406 653.179688 104.371094 C 654.527344 100.769531 655.878906 97.261719 657.136719 93.75 Z M 713.839844 102.300781 C 706.28125 99.148438 702.320312 97.53125 702.320312 93.480469 C 702.320312 90.691406 704.929688 87.179688 710.871094 87.179688 C 717.710938 87.179688 721.757812 89.96875 725.089844 92.21875 L 725.898438 91.859375 L 726.621094 80.070312 L 726.167969 79.441406 C 722.300781 77.820312 718.25 76.109375 709.519531 76.109375 C 692.601562 76.109375 686.75 85.648438 686.75 95.28125 C 686.75 106.171875 695.210938 110.128906 700.25 112.558594 L 703.21875 113.910156 C 709.429688 116.519531 714.199219 118.769531 714.199219 123.539062 C 714.199219 126.960938 711.230469 131.011719 703.398438 131.011719 C 695.210938 131.011719 690.621094 127.410156 688.007812 125.339844 L 687.109375 125.609375 L 686.480469 138.300781 L 687.019531 139.019531 C 688.007812 139.378906 689 139.828125 689.988281 140.101562 C 692.058594 140.820312 697.371094 142.351562 704.121094 142.351562 C 706.820312 142.351562 713.660156 142.078125 719.058594 139.558594 C 726.621094 135.871094 729.859375 129.03125 729.859375 121.378906 C 729.859375 116.25 727.878906 110.761719 723.109375 107.070312 C 720.679688 105.269531 718.339844 104.191406 716.179688 103.199219 Z M 769.28125 140.371094 C 773.152344 124.078125 774.5 119.398438 786.742188 77.640625 L 786.292969 77.191406 C 779.542969 77.460938 777.742188 77.460938 772.339844 77.460938 L 771.800781 78 C 770.089844 86.820312 769.640625 89.160156 767.121094 99.148438 L 764.242188 110.941406 L 760.371094 127.589844 L 755.601562 106.351562 L 753.710938 98.25 C 751.460938 88.980469 750.832031 85.921875 748.941406 77.191406 L 748.402344 76.738281 C 740.933594 77.28125 739.3125 77.371094 732.292969 77.371094 L 731.839844 77.910156 C 737.871094 98.699219 743.273438 117.78125 746.332031 129.660156 C 747.230469 133.351562 748.132812 137.039062 749.03125 140.730469 L 749.570312 141.269531 C 757.402344 141 759.382812 140.910156 768.742188 141 Z M 811.21875 116.25 C 817.25 126.511719 818.601562 129.210938 824.359375 141 L 825.082031 141.449219 C 827.871094 141.269531 830.570312 141.089844 833.359375 141 C 836.152344 140.910156 839.03125 140.820312 841.820312 140.820312 L 842.359375 139.738281 C 838.941406 135.328125 837.949219 133.980469 831.46875 123.628906 C 828.589844 119.039062 827.152344 116.609375 824.902344 112.648438 C 828.949219 110.851562 837.140625 107.070312 837.140625 95.640625 C 837.140625 91.679688 836.058594 83.488281 828.679688 79.621094 C 824 77.191406 819.140625 77.101562 808.609375 77.28125 L 802.308594 77.371094 L 791.332031 77.371094 L 790.878906 77.910156 C 791.242188 87 791.601562 96.359375 791.601562 120.839844 C 791.601562 129.210938 791.511719 133.261719 791.242188 140.730469 L 791.78125 141.269531 C 798.351562 141 799.789062 140.910156 807.171875 141 L 807.710938 140.460938 C 806.992188 130.019531 806.902344 127.140625 806.808594 116.429688 L 811.21875 116.25 M 806.992188 88.261719 C 808.25 88.171875 809.511719 88.171875 810.769531 88.171875 C 814.28125 88.171875 821.210938 88.171875 821.210938 96.089844 C 821.210938 98.609375 820.582031 101.941406 817.25 104.011719 C 814.730469 105.539062 811.492188 105.71875 806.992188 105.808594 Z M 883.492188 77.191406 C 874.851562 77.460938 873.050781 77.460938 863.421875 77.460938 L 862.789062 78 C 858.019531 93.300781 855.140625 102.390625 841.910156 140.371094 L 842.269531 141 L 856.308594 141 L 856.941406 140.460938 L 861.351562 124.078125 L 880.789062 124.078125 L 884.660156 140.730469 L 885.289062 141.269531 C 891.859375 141 893.660156 140.910156 900.949219 141 L 901.402344 140.28125 C 890.511719 101.761719 889.25 97.53125 884.121094 77.730469 L 883.492188 77.191406 M 864.5 113.191406 L 869 97.980469 L 872.152344 87.449219 L 874.851562 99.148438 L 878.179688 113.191406 Z M 901.761719 141 "/>
</svg>
