<?xml version="1.0" encoding="UTF-8"?>
<svg xmlns="http://www.w3.org/2000/svg" xmlns:xlink="http://www.w3.org/1999/xlink" width="975" height="1300" viewBox="0 0 975 1300">
<path fill-rule="nonzero" fill="rgb(98.823529%, 78.823529%, 9.019608%)" fill-opacity="1" d="M 50 50 L 925 50 L 925 170 L 50 170 Z M 50 50 "/>
<path fill-rule="nonzero" fill="rgb(34.901961%, 14.901961%, 14.901961%)" fill-opacity="1" d="M 116.285156 85.738281 C 114.757812 83.761719 112.957031 82.050781 110.886719 80.699219 C 106.296875 77.640625 99.996094 76.109375 93.695312 76.109375 C 88.117188 76.109375 82.445312 77.101562 77.585938 79.890625 C 66.605469 86.191406 64.625 96.628906 63.90625 100.410156 C 63.367188 103.46875 63.097656 106.53125 63.097656 109.589844 C 63.097656 115.710938 63.816406 127.230469 72.277344 135.058594 C 79.117188 141.449219 88.476562 142.351562 93.066406 142.351562 C 99.996094 142.351562 107.015625 140.730469 112.328125 136.320312 C 121.238281 128.941406 123.035156 116.699219 123.035156 109.050781 C 123.035156 94.921875 118.535156 88.53125 116.285156 85.738281 M 102.066406 91.5 C 103.867188 93.570312 104.675781 96.179688 105.214844 98.789062 C 105.9375 102.210938 106.117188 105.449219 106.207031 107.699219 C 106.566406 121.199219 103.6875 130.921875 93.246094 130.921875 C 80.738281 130.921875 79.925781 116.339844 79.925781 108.238281 C 79.925781 97.441406 82.535156 91.859375 86.765625 89.160156 C 89.195312 87.71875 91.625 87.359375 93.335938 87.359375 C 96.757812 87.359375 99.90625 88.890625 102.066406 91.5 Z M 167.40625 128.039062 C 164.976562 129.480469 162.636719 130.921875 158.046875 130.921875 C 147.875 130.921875 145.804688 122.460938 145.804688 117.058594 C 145.804688 110.488281 148.6875 102.929688 157.417969 102.929688 C 161.375 102.929688 163.535156 104.371094 166.238281 106.171875 L 167.136719 105.898438 C 167.496094 101.128906 167.585938 99.871094 168.304688 95.101562 L 167.855469 94.558594 C 163.894531 93.300781 160.476562 92.21875 155.257812 92.21875 C 134.105469 92.21875 129.964844 108.238281 129.964844 117.421875 C 129.964844 127.769531 135.367188 141.808594 155.617188 141.808594 C 160.386719 141.808594 163.445312 140.910156 167.226562 139.828125 L 167.765625 139.289062 L 168.125 128.488281 Z M 215.285156 127.679688 C 211.867188 129.480469 207.816406 131.550781 201.246094 131.550781 C 195.847656 131.550781 192.15625 129.839844 189.996094 126.601562 C 188.644531 124.710938 188.375 122.910156 188.015625 121.109375 L 217.085938 120.570312 L 217.625 119.941406 C 217.535156 115.53125 217.445312 111.03125 216.1875 106.53125 C 213.035156 95.910156 206.105469 93.75 203.046875 93.03125 C 200.796875 92.398438 198.726562 92.21875 196.65625 92.21875 C 182.527344 92.21875 173.164062 101.488281 173.164062 117.058594 C 173.164062 121.289062 173.886719 125.699219 175.324219 128.851562 C 180.546875 141 192.785156 142.078125 199.265625 142.078125 C 206.734375 142.078125 209.976562 140.730469 214.746094 138.839844 L 215.285156 138.121094 L 215.914062 127.949219 L 215.285156 127.679688 M 188.015625 111.570312 C 188.285156 108.78125 188.914062 105 192.335938 102.839844 C 193.414062 102.121094 194.675781 101.851562 195.9375 101.851562 C 198.90625 101.851562 200.707031 103.378906 201.695312 105 C 202.957031 106.980469 203.046875 109.140625 203.046875 111.210938 Z M 265.957031 114.179688 C 266.046875 106.078125 266.046875 102.570312 263.707031 98.789062 C 261.90625 95.910156 258.308594 92.308594 246.789062 92.308594 C 239.046875 92.308594 234.277344 93.75 229.148438 95.28125 L 228.609375 96 L 228.15625 105.808594 L 228.878906 106.171875 C 232.027344 104.910156 237.878906 102.570312 243.90625 102.570312 C 247.238281 102.570312 248.585938 103.109375 249.757812 104.28125 C 250.65625 105.179688 250.929688 106.800781 250.929688 108.148438 C 240.128906 109.589844 235.085938 110.578125 229.6875 113.910156 C 224.648438 117.058594 222.9375 122.191406 222.9375 126.238281 C 222.9375 135.871094 229.867188 142.078125 238.6875 142.078125 C 245.4375 142.078125 249.308594 138.839844 251.199219 137.308594 L 251.199219 140.640625 L 251.738281 141.269531 C 258.21875 141 260.199219 140.910156 266.046875 141 L 266.496094 140.371094 C 265.867188 131.550781 265.867188 129.300781 265.867188 120.839844 L 265.957031 114.179688 M 251.109375 128.488281 C 249.21875 129.570312 246.789062 130.828125 243.816406 130.828125 C 240.578125 130.828125 237.878906 129.121094 237.878906 125.339844 C 237.878906 119.398438 244.988281 118.410156 251.109375 117.601562 Z M 320.585938 140.371094 C 320.136719 132.449219 320.136719 129.929688 319.957031 121.109375 L 319.957031 114.089844 C 319.867188 105.449219 319.777344 101.308594 317.527344 97.621094 C 314.734375 92.941406 309.605469 92.21875 306.367188 92.21875 C 300.875 92.21875 296.105469 95.101562 291.964844 97.53125 L 292.144531 92.578125 L 291.246094 91.949219 C 284.316406 93.390625 282.785156 93.660156 276.035156 94.558594 L 275.496094 95.191406 C 276.214844 103.019531 276.757812 108.691406 276.757812 123.359375 C 276.757812 129.121094 276.664062 134.878906 276.574219 140.640625 L 277.117188 141.179688 C 283.597656 140.910156 284.945312 140.910156 292.144531 140.910156 L 292.6875 140.371094 C 292.144531 126.511719 292.054688 123 291.964844 106.890625 C 293.855469 105.628906 296.015625 104.101562 298.894531 104.101562 C 303.847656 104.101562 304.296875 109.410156 304.566406 112.648438 C 304.746094 115.621094 304.835938 127.949219 304.835938 131.371094 C 304.835938 134.429688 304.746094 137.578125 304.746094 140.640625 L 305.285156 141.179688 C 311.226562 141 312.757812 140.910156 319.957031 140.910156 Z M 376.65625 117.058594 C 376.65625 113.550781 376.65625 98.96875 364.054688 94.019531 C 360.09375 92.488281 355.414062 92.308594 353.074219 92.308594 C 337.414062 92.308594 328.59375 100.679688 328.59375 117.238281 C 328.59375 123 329.496094 128.851562 332.824219 133.710938 C 335.164062 137.21875 339.574219 142.078125 352.445312 142.078125 C 371.523438 142.078125 376.65625 130.558594 376.65625 117.058594 M 361.085938 116.96875 C 361.085938 124.351562 360.09375 132.539062 352.625 132.539062 C 350.285156 132.539062 348.664062 131.460938 347.585938 130.46875 C 346.054688 128.941406 344.34375 125.878906 344.34375 117.148438 C 344.34375 114.539062 344.34375 108.78125 346.144531 105.628906 C 347.496094 103.199219 349.835938 101.578125 352.714844 101.578125 C 355.234375 101.578125 357.304688 102.929688 358.476562 104.371094 C 360.636719 106.980469 361.085938 112.109375 361.085938 116.96875 Z M 423.007812 141 C 425.347656 141.089844 427.777344 141.089844 430.117188 141.089844 C 440.195312 141.089844 456.484375 140.730469 463.054688 124.710938 C 465.484375 118.769531 466.027344 111.570312 466.027344 107.519531 C 466.027344 99.058594 464.136719 92.578125 461.886719 88.53125 C 455.765625 77.371094 444.15625 77.011719 433.894531 77.011719 C 429.757812 77.011719 425.617188 77.191406 421.476562 77.371094 L 411.9375 77.460938 L 411.394531 78 C 411.757812 86.640625 412.117188 94.199219 412.117188 119.128906 C 412.117188 127.949219 412.027344 133.261719 411.847656 140.640625 L 412.386719 141 L 423.007812 141 M 427.957031 129.390625 C 427.777344 120.570312 427.6875 112.199219 427.6875 103.558594 C 427.6875 98.699219 427.6875 93.839844 427.777344 88.980469 C 429.574219 88.890625 431.464844 88.800781 433.265625 88.800781 C 438.757812 88.800781 449.464844 88.800781 449.464844 107.96875 C 449.464844 119.21875 445.234375 124.261719 443.074219 126.058594 C 439.027344 129.390625 432.816406 129.390625 427.957031 129.390625 Z M 518.40625 92.851562 L 503.734375 93.570312 L 503.105469 94.109375 C 503.734375 104.28125 503.734375 118.679688 503.734375 120.121094 C 503.734375 122.730469 503.734375 124.171875 503.644531 127.769531 C 501.214844 129.390625 499.324219 130.738281 496.894531 130.738281 C 490.414062 130.738281 490.414062 123.898438 490.414062 118.589844 C 490.414062 116.339844 490.414062 114 490.503906 111.75 L 490.683594 93.570312 L 490.054688 92.851562 L 475.203125 93.570312 L 474.574219 94.109375 C 475.113281 101.671875 475.203125 104.191406 475.203125 113.28125 L 475.203125 119.578125 C 475.113281 129.390625 475.566406 133.53125 478.804688 137.308594 C 481.773438 140.640625 486.09375 142.078125 490.59375 142.078125 C 496.984375 142.078125 500.675781 139.199219 503.914062 136.679688 L 503.824219 140.730469 L 504.453125 141.269531 C 511.023438 141 513.003906 141 518.855469 141 L 519.394531 140.460938 C 518.945312 134.070312 518.765625 130.648438 518.765625 118.949219 C 518.765625 110.488281 518.855469 102.03125 519.035156 93.570312 Z M 573.667969 140.371094 C 573.21875 132.449219 573.21875 129.929688 573.039062 121.109375 L 573.039062 114.089844 C 572.949219 105.449219 572.859375 101.308594 570.609375 97.621094 C 567.816406 92.941406 562.6875 92.21875 559.449219 92.21875 C 553.957031 92.21875 549.1875 95.101562 545.046875 97.53125 L 545.226562 92.578125 L 544.328125 91.949219 C 537.398438 93.390625 535.867188 93.660156 529.117188 94.558594 L 528.578125 95.191406 C 529.296875 103.019531 529.839844 108.691406 529.839844 123.359375 C 529.839844 129.121094 529.746094 134.878906 529.65625 140.640625 L 530.199219 141.179688 C 536.679688 140.910156 538.027344 140.910156 545.226562 140.910156 L 545.769531 140.371094 C 545.226562 126.511719 545.136719 123 545.046875 106.890625 C 546.9375 105.628906 549.097656 104.101562 551.976562 104.101562 C 556.929688 104.101562 557.378906 109.410156 557.648438 112.648438 C 557.828125 115.621094 557.917969 127.949219 557.917969 131.371094 C 557.917969 134.429688 557.828125 137.578125 557.828125 140.640625 L 558.367188 141.179688 C 564.308594 141 565.839844 140.910156 573.039062 140.910156 Z M 623.886719 127.679688 C 620.46875 129.480469 616.417969 131.550781 609.847656 131.550781 C 604.449219 131.550781 600.757812 129.839844 598.597656 126.601562 C 597.246094 124.710938 596.976562 122.910156 596.617188 121.109375 L 625.6875 120.570312 L 626.226562 119.941406 C 626.136719 115.53125 626.046875 111.03125 624.789062 106.53125 C 621.636719 95.910156 614.707031 93.75 611.648438 93.03125 C 609.398438 92.398438 607.328125 92.21875 605.257812 92.21875 C 591.128906 92.21875 581.765625 101.488281 581.765625 117.058594 C 581.765625 121.289062 582.488281 125.699219 583.925781 128.851562 C 589.148438 141 601.386719 142.078125 607.867188 142.078125 C 615.335938 142.078125 618.578125 140.730469 623.347656 138.839844 L 623.886719 138.121094 L 624.515625 127.949219 L 623.886719 127.679688 M 596.617188 111.570312 C 596.886719 108.78125 597.515625 105 600.9375 102.839844 C 602.015625 102.121094 603.277344 101.851562 604.539062 101.851562 C 607.507812 101.851562 609.308594 103.378906 610.296875 105 C 611.558594 106.980469 611.648438 109.140625 611.648438 111.210938 Z M 653.40625 109.949219 C 650.34375 108.871094 647.914062 107.878906 647.914062 105.359375 C 647.914062 104.28125 648.636719 101.308594 654.214844 101.308594 C 659.707031 101.308594 663.214844 103.648438 665.464844 105.089844 L 666.277344 104.820312 L 667.175781 95.011719 L 666.726562 94.46875 C 662.496094 93.300781 658.804688 92.21875 652.957031 92.21875 C 648.546875 92.21875 639.726562 92.578125 635.046875 99.328125 C 633.875 100.949219 632.617188 103.648438 632.617188 107.25 C 632.617188 116.878906 640.085938 119.761719 644.316406 121.378906 L 647.734375 122.640625 C 650.164062 123.449219 654.125 124.800781 654.125 128.039062 C 654.125 130.289062 652.054688 132.71875 647.015625 132.71875 C 644.496094 132.71875 640.804688 131.910156 637.476562 130.199219 C 635.945312 129.390625 635.226562 128.761719 633.875 127.679688 L 633.066406 128.039062 C 632.886719 132.71875 632.796875 133.710938 632.433594 138.210938 L 632.886719 139.019531 C 637.296875 140.640625 641.074219 142.078125 647.644531 142.078125 C 654.484375 142.078125 667.984375 140.820312 669.605469 127.949219 C 669.695312 127.230469 669.695312 126.601562 669.695312 125.96875 C 669.695312 116.070312 662.765625 113.460938 657.816406 111.570312 Z M 729.90625 102.300781 C 722.347656 99.148438 718.386719 97.53125 718.386719 93.480469 C 718.386719 90.691406 720.996094 87.179688 726.9375 87.179688 C 733.777344 87.179688 737.824219 89.96875 741.15625 92.21875 L 741.964844 91.859375 L 742.6875 80.070312 L 742.234375 79.441406 C 738.367188 77.820312 734.316406 76.109375 725.585938 76.109375 C 708.667969 76.109375 702.816406 85.648438 702.816406 95.28125 C 702.816406 106.171875 711.277344 110.128906 716.316406 112.558594 L 719.285156 113.910156 C 725.496094 116.519531 730.265625 118.769531 730.265625 123.539062 C 730.265625 126.960938 727.296875 131.011719 719.464844 131.011719 C 711.277344 131.011719 706.6875 127.410156 704.074219 125.339844 L 703.175781 125.609375 L 702.546875 138.300781 L 703.085938 139.019531 C 704.074219 139.378906 705.066406 139.828125 706.054688 140.101562 C 708.125 140.820312 713.4375 142.351562 720.1875 142.351562 C 722.886719 142.351562 729.726562 142.078125 735.125 139.558594 C 742.6875 135.871094 745.925781 129.03125 745.925781 121.378906 C 745.925781 116.25 743.945312 110.761719 739.175781 107.070312 C 736.746094 105.269531 734.40625 104.191406 732.246094 103.199219 Z M 785.347656 140.371094 C 789.21875 124.078125 790.566406 119.398438 802.808594 77.640625 L 802.359375 77.191406 C 795.609375 77.460938 793.808594 77.460938 788.40625 77.460938 L 787.867188 78 C 786.15625 86.820312 785.707031 89.160156 783.1875 99.148438 L 780.308594 110.941406 L 776.4375 127.589844 L 771.667969 106.351562 L 769.777344 98.25 C 767.527344 88.980469 766.898438 85.921875 765.007812 77.191406 L 764.46875 76.738281 C 757 77.28125 755.378906 77.371094 748.359375 77.371094 L 747.90625 77.910156 C 753.9375 98.699219 759.339844 117.78125 762.398438 129.660156 C 763.296875 133.351562 764.199219 137.039062 765.097656 140.730469 L 765.636719 141.269531 C 773.46875 141 775.449219 140.910156 784.808594 141 Z M 827.285156 116.25 C 833.316406 126.511719 834.667969 129.210938 840.425781 141 L 841.148438 141.449219 C 843.9375 141.269531 846.636719 141.089844 849.425781 141 C 852.21875 140.910156 855.097656 140.820312 857.886719 140.820312 L 858.425781 139.738281 C 855.007812 135.328125 854.015625 133.980469 847.535156 123.628906 C 844.65625 119.039062 843.21875 116.609375 840.96875 112.648438 C 845.015625 110.851562 853.207031 107.070312 853.207031 95.640625 C 853.207031 91.679688 852.125 83.488281 844.746094 79.621094 C 840.066406 77.191406 835.207031 77.101562 824.675781 77.28125 L 818.375 77.371094 L 807.398438 77.371094 L 806.945312 77.910156 C 807.308594 87 807.667969 96.359375 807.667969 120.839844 C 807.667969 129.210938 807.578125 133.261719 807.308594 140.730469 L 807.847656 141.269531 C 814.417969 141 815.855469 140.910156 823.238281 141 L 823.777344 140.460938 C 823.058594 130.019531 822.96875 127.140625 822.875 116.429688 L 827.285156 116.25 M 823.058594 88.261719 C 824.316406 88.171875 825.578125 88.171875 826.835938 88.171875 C 830.347656 88.171875 837.277344 88.171875 837.277344 96.089844 C 837.277344 98.609375 836.648438 101.941406 833.316406 104.011719 C 830.796875 105.539062 827.558594 105.71875 823.058594 105.808594 Z M 899.558594 77.191406 C 890.917969 77.460938 889.117188 77.460938 879.488281 77.460938 L 878.855469 78 C 874.085938 93.300781 871.207031 102.390625 857.976562 140.371094 L 858.335938 141 L 872.375 141 L 873.007812 140.460938 L 877.417969 124.078125 L 896.855469 124.078125 L 900.726562 140.730469 L 901.355469 141.269531 C 907.925781 141 909.726562 140.910156 917.015625 141 L 917.46875 140.28125 C 906.578125 101.761719 905.316406 97.53125 900.1875 77.730469 L 899.558594 77.191406 M 880.566406 113.191406 L 885.066406 97.980469 L 888.21875 87.449219 L 890.917969 99.148438 L 894.246094 113.191406 Z M 917.828125 141 "/>
</svg>
