<?xml version="1.0" encoding="UTF-8"?>
<svg xmlns="http://www.w3.org/2000/svg" xmlns:xlink="http://www.w3.org/1999/xlink" width="975" height="1300" viewBox="0 0 975 1300">
<path fill-rule="nonzero" fill="rgb(98.823529%, 78.823529%, 9.019608%)" fill-opacity="1" d="M 50 50 L 925 50 L 925 170 L 50 170 Z M 50 50 "/>
<path fill-rule="nonzero" fill="rgb(34.901961%, 14.901961%, 14.901961%)" fill-opacity="1" d="M 129.242188 85.738281 C 127.714844 83.761719 125.914062 82.050781 123.84375 80.699219 C 119.253906 77.640625 112.953125 76.109375 106.652344 76.109375 C 101.074219 76.109375 95.402344 77.101562 90.542969 79.890625 C 79.5625 86.191406 77.582031 96.628906 76.863281 100.410156 C 76.324219 103.46875 76.054688 106.53125 76.054688 109.589844 C 76.054688 115.710938 76.773438 127.230469 85.234375 135.058594 C 92.074219 141.449219 101.433594 142.351562 106.023438 142.351562 C 112.953125 142.351562 119.972656 140.730469 125.285156 136.320312 C 134.195312 128.941406 135.992188 116.699219 135.992188 109.050781 C 135.992188 94.921875 131.492188 88.53125 129.242188 85.738281 M 115.023438 91.5 C 116.824219 93.570312 117.632812 96.179688 118.171875 98.789062 C 118.894531 102.210938 119.074219 105.449219 119.164062 107.699219 C 119.523438 121.199219 116.644531 130.921875 106.203125 130.921875 C 93.695312 130.921875 92.882812 116.339844 92.882812 108.238281 C 92.882812 97.441406 95.492188 91.859375 99.722656 89.160156 C 102.152344 87.71875 104.582031 87.359375 106.292969 87.359375 C 109.714844 87.359375 112.863281 88.890625 115.023438 91.5 Z M 180.363281 128.039062 C 177.933594 129.480469 175.59375 130.921875 171.003906 130.921875 C 160.832031 130.921875 158.761719 122.460938 158.761719 117.058594 C 158.761719 110.488281 161.644531 102.929688 170.375 102.929688 C 174.332031 102.929688 176.492188 104.371094 179.195312 106.171875 L 180.09375 105.898438 C 180.453125 101.128906 180.542969 99.871094 181.261719 95.101562 L 180.8125 94.558594 C 176.851562 93.300781 173.433594 92.21875 168.214844 92.21875 C 147.0625 92.21875 142.921875 108.238281 142.921875 117.421875 C 142.921875 127.769531 148.324219 141.808594 168.574219 141.808594 C 173.34375 141.808594 176.402344 140.910156 180.183594 139.828125 L 180.722656 139.289062 L 181.082031 128.488281 Z M 234.09375 117.058594 C 234.09375 113.550781 234.09375 98.96875 221.492188 94.019531 C 217.53125 92.488281 212.851562 92.308594 210.511719 92.308594 C 194.851562 92.308594 186.03125 100.679688 186.03125 117.238281 C 186.03125 123 186.933594 128.851562 190.261719 133.710938 C 192.601562 137.21875 197.011719 142.078125 209.882812 142.078125 C 228.960938 142.078125 234.09375 130.558594 234.09375 117.058594 M 218.523438 116.96875 C 218.523438 124.351562 217.53125 132.539062 210.0625 132.539062 C 207.722656 132.539062 206.101562 131.460938 205.023438 130.46875 C 203.492188 128.941406 201.78125 125.878906 201.78125 117.148438 C 201.78125 114.539062 201.78125 108.78125 203.582031 105.628906 C 204.933594 103.199219 207.273438 101.578125 210.152344 101.578125 C 212.671875 101.578125 214.742188 102.929688 215.914062 104.371094 C 218.074219 106.980469 218.523438 112.109375 218.523438 116.96875 Z M 267.84375 130.648438 C 266.3125 131.101562 265.230469 131.460938 263.703125 131.460938 C 259.113281 131.460938 258.753906 128.578125 258.570312 127.230469 C 258.300781 124.890625 258.300781 119.941406 258.390625 116.339844 L 258.570312 103.648438 L 266.671875 104.011719 L 267.210938 103.46875 L 268.113281 93.839844 L 267.570312 93.300781 L 258.570312 93.300781 L 258.84375 78.179688 L 258.210938 77.640625 C 252.09375 79.441406 250.472656 79.890625 244.082031 81.511719 L 243.722656 82.140625 L 243.8125 93.390625 L 238.953125 93.210938 L 238.414062 93.660156 L 237.601562 103.289062 L 238.140625 103.828125 L 243.8125 103.648438 L 243.542969 117.960938 C 243.453125 120.210938 243.363281 122.460938 243.363281 124.800781 C 243.363281 133.078125 243.542969 141.988281 257.582031 141.988281 C 261.09375 141.988281 263.882812 141.449219 267.03125 140.910156 L 267.664062 140.28125 L 268.5625 131.011719 Z M 290.792969 140.371094 C 290.339844 133.441406 289.980469 128.128906 289.980469 115.710938 C 289.980469 108.058594 290.160156 100.320312 290.25 92.671875 L 289.621094 91.949219 L 274.140625 94.648438 L 273.601562 95.191406 C 274.320312 102.03125 274.589844 105.179688 274.589844 117.960938 C 274.589844 127.769531 274.320312 133.261719 274.050781 140.640625 L 274.589844 141.269531 C 281.070312 141 282.871094 140.910156 290.160156 141 L 290.792969 140.371094 M 289.351562 83.308594 L 289.621094 71.070312 L 289.082031 70.53125 L 274.410156 72.328125 L 273.871094 72.960938 C 274.050781 76.199219 274.140625 78.089844 274.140625 80.25 C 274.140625 81.960938 274.140625 83.761719 274.050781 85.46875 L 274.679688 86.011719 C 280.800781 84.929688 282.511719 84.75 288.902344 83.941406 Z M 316.621094 140.371094 C 316.171875 130.019531 315.722656 120.570312 315.722656 92.128906 C 315.722656 83.578125 315.8125 79.53125 316.171875 69.808594 L 315.542969 69.179688 L 300.152344 71.609375 L 299.792969 72.148438 C 300.691406 83.128906 300.78125 86.101562 300.960938 100.679688 C 301.054688 105.988281 301.054688 111.300781 301.054688 116.609375 C 301.054688 126.328125 300.871094 131.730469 300.511719 140.640625 L 301.054688 141.269531 C 307.082031 141 309.511719 140.910156 316.082031 141 Z M 342.902344 140.371094 C 342.453125 130.019531 342.003906 120.570312 342.003906 92.128906 C 342.003906 83.578125 342.09375 79.53125 342.453125 69.808594 L 341.824219 69.179688 L 326.433594 71.609375 L 326.074219 72.148438 C 326.972656 83.128906 327.0625 86.101562 327.242188 100.679688 C 327.335938 105.988281 327.335938 111.300781 327.335938 116.609375 C 327.335938 126.328125 327.152344 131.730469 326.792969 140.640625 L 327.335938 141.269531 C 333.363281 141 335.792969 140.910156 342.363281 141 Z M 399.15625 117.058594 C 399.15625 113.550781 399.15625 98.96875 386.554688 94.019531 C 382.59375 92.488281 377.914062 92.308594 375.574219 92.308594 C 359.914062 92.308594 351.09375 100.679688 351.09375 117.238281 C 351.09375 123 351.996094 128.851562 355.324219 133.710938 C 357.664062 137.21875 362.074219 142.078125 374.945312 142.078125 C 394.023438 142.078125 399.15625 130.558594 399.15625 117.058594 M 383.585938 116.96875 C 383.585938 124.351562 382.59375 132.539062 375.125 132.539062 C 372.785156 132.539062 371.164062 131.460938 370.085938 130.46875 C 368.554688 128.941406 366.84375 125.878906 366.84375 117.148438 C 366.84375 114.539062 366.84375 108.78125 368.644531 105.628906 C 369.996094 103.199219 372.335938 101.578125 375.214844 101.578125 C 377.734375 101.578125 379.804688 102.929688 380.976562 104.371094 C 383.136719 106.980469 383.585938 112.109375 383.585938 116.96875 Z M 499.410156 140.460938 C 502.742188 124.078125 504.183594 117.238281 513.722656 77.730469 L 513.273438 77.191406 C 506.882812 77.460938 505.621094 77.460938 499.59375 77.460938 L 499.050781 78 C 497.613281 87.269531 497.160156 90.421875 495.183594 100.769531 L 492.570312 114.539062 L 489.691406 130.019531 C 488.34375 119.941406 487.890625 116.878906 486.09375 106.441406 L 483.480469 91.320312 L 481.230469 77.460938 L 480.691406 76.828125 L 462.871094 77.28125 L 462.332031 77.820312 L 458.730469 98.519531 L 455.222656 116.96875 L 452.972656 129.390625 C 451.890625 121.558594 451.53125 118.949219 449.640625 108.058594 L 447.300781 94.921875 L 444.332031 77.101562 L 443.792969 76.648438 C 436.050781 77.191406 434.792969 77.191406 428.222656 77.371094 L 427.773438 78 C 434.34375 107.789062 435.78125 114.628906 440.640625 140.730469 L 441.183594 141.269531 C 450.273438 140.910156 452.703125 140.910156 461.523438 141 L 462.152344 140.460938 L 464.042969 129.300781 L 467.011719 112.828125 L 470.253906 93.570312 C 471.332031 102.390625 471.601562 104.640625 473.222656 114.359375 L 475.472656 128.398438 L 477.363281 140.730469 L 477.8125 141.269531 C 486.453125 141 489.421875 140.910156 498.960938 141 Z M 558.363281 127.679688 C 554.945312 129.480469 550.894531 131.550781 544.324219 131.550781 C 538.925781 131.550781 535.234375 129.839844 533.074219 126.601562 C 531.722656 124.710938 531.453125 122.910156 531.09375 121.109375 L 560.164062 120.570312 L 560.703125 119.941406 C 560.613281 115.53125 560.523438 111.03125 559.265625 106.53125 C 556.113281 95.910156 549.183594 93.75 546.125 93.03125 C 543.875 92.398438 541.804688 92.21875 539.734375 92.21875 C 525.605469 92.21875 516.242188 101.488281 516.242188 117.058594 C 516.242188 121.289062 516.964844 125.699219 518.402344 128.851562 C 523.625 141 535.863281 142.078125 542.34375 142.078125 C 549.8125 142.078125 553.054688 140.730469 557.824219 138.839844 L 558.363281 138.121094 L 558.992188 127.949219 L 558.363281 127.679688 M 531.09375 111.570312 C 531.363281 108.78125 531.992188 105 535.414062 102.839844 C 536.492188 102.121094 537.753906 101.851562 539.015625 101.851562 C 541.984375 101.851562 543.785156 103.378906 544.773438 105 C 546.035156 106.980469 546.125 109.140625 546.125 111.210938 Z M 584.820312 140.371094 C 584.371094 130.019531 583.921875 120.570312 583.921875 92.128906 C 583.921875 83.578125 584.011719 79.53125 584.371094 69.808594 L 583.742188 69.179688 L 568.351562 71.609375 L 567.992188 72.148438 C 568.890625 83.128906 568.980469 86.101562 569.160156 100.679688 C 569.253906 105.988281 569.253906 111.300781 569.253906 116.609375 C 569.253906 126.328125 569.070312 131.730469 568.710938 140.640625 L 569.253906 141.269531 C 575.28125 141 577.710938 140.910156 584.28125 141 Z M 611.101562 140.371094 C 610.652344 130.019531 610.203125 120.570312 610.203125 92.128906 C 610.203125 83.578125 610.292969 79.53125 610.652344 69.808594 L 610.023438 69.179688 L 594.632812 71.609375 L 594.273438 72.148438 C 595.171875 83.128906 595.261719 86.101562 595.441406 100.679688 C 595.535156 105.988281 595.535156 111.300781 595.535156 116.609375 C 595.535156 126.328125 595.351562 131.730469 594.992188 140.640625 L 595.535156 141.269531 C 601.5625 141 603.992188 140.910156 610.5625 141 Z M 640.445312 109.949219 C 637.382812 108.871094 634.953125 107.878906 634.953125 105.359375 C 634.953125 104.28125 635.675781 101.308594 641.253906 101.308594 C 646.746094 101.308594 650.253906 103.648438 652.503906 105.089844 L 653.316406 104.820312 L 654.214844 95.011719 L 653.765625 94.46875 C 649.535156 93.300781 645.84375 92.21875 639.996094 92.21875 C 635.585938 92.21875 626.765625 92.578125 622.085938 99.328125 C 620.914062 100.949219 619.65625 103.648438 619.65625 107.25 C 619.65625 116.878906 627.125 119.761719 631.355469 121.378906 L 634.773438 122.640625 C 637.203125 123.449219 641.164062 124.800781 641.164062 128.039062 C 641.164062 130.289062 639.09375 132.71875 634.054688 132.71875 C 631.535156 132.71875 627.84375 131.910156 624.515625 130.199219 C 622.984375 129.390625 622.265625 128.761719 620.914062 127.679688 L 620.105469 128.039062 C 619.925781 132.71875 619.835938 133.710938 619.472656 138.210938 L 619.925781 139.019531 C 624.335938 140.640625 628.113281 142.078125 634.683594 142.078125 C 641.523438 142.078125 655.023438 140.820312 656.644531 127.949219 C 656.734375 127.230469 656.734375 126.601562 656.734375 125.96875 C 656.734375 116.070312 649.804688 113.460938 644.855469 111.570312 Z M 716.945312 102.300781 C 709.386719 99.148438 705.425781 97.53125 705.425781 93.480469 C 705.425781 90.691406 708.035156 87.179688 713.976562 87.179688 C 720.816406 87.179688 724.863281 89.96875 728.195312 92.21875 L 729.003906 91.859375 L 729.726562 80.070312 L 729.273438 79.441406 C 725.40625 77.820312 721.355469 76.109375 712.625 76.109375 C 695.707031 76.109375 689.855469 85.648438 689.855469 95.28125 C 689.855469 106.171875 698.316406 110.128906 703.355469 112.558594 L 706.324219 113.910156 C 712.535156 116.519531 717.304688 118.769531 717.304688 123.539062 C 717.304688 126.960938 714.335938 131.011719 706.503906 131.011719 C 698.316406 131.011719 693.726562 127.410156 691.113281 125.339844 L 690.214844 125.609375 L 689.585938 138.300781 L 690.125 139.019531 C 691.113281 139.378906 692.105469 139.828125 693.09375 140.101562 C 695.164062 140.820312 700.476562 142.351562 707.226562 142.351562 C 709.925781 142.351562 716.765625 142.078125 722.164062 139.558594 C 729.726562 135.871094 732.964844 129.03125 732.964844 121.378906 C 732.964844 116.25 730.984375 110.761719 726.214844 107.070312 C 723.785156 105.269531 721.445312 104.191406 719.285156 103.199219 Z M 772.382812 140.371094 C 776.253906 124.078125 777.601562 119.398438 789.84375 77.640625 L 789.394531 77.191406 C 782.644531 77.460938 780.84375 77.460938 775.441406 77.460938 L 774.902344 78 C 773.191406 86.820312 772.742188 89.160156 770.222656 99.148438 L 767.34375 110.941406 L 763.472656 127.589844 L 758.703125 106.351562 L 756.8125 98.25 C 754.5625 88.980469 753.933594 85.921875 752.042969 77.191406 L 751.503906 76.738281 C 744.035156 77.28125 742.414062 77.371094 735.394531 77.371094 L 734.941406 77.910156 C 740.972656 98.699219 746.375 117.78125 749.433594 129.660156 C 750.332031 133.351562 751.234375 137.039062 752.132812 140.730469 L 752.671875 141.269531 C 760.503906 141 762.484375 140.910156 771.84375 141 Z M 814.320312 116.25 C 820.351562 126.511719 821.703125 129.210938 827.460938 141 L 828.183594 141.449219 C 830.972656 141.269531 833.671875 141.089844 836.460938 141 C 839.253906 140.910156 842.132812 140.820312 844.921875 140.820312 L 845.460938 139.738281 C 842.042969 135.328125 841.050781 133.980469 834.570312 123.628906 C 831.691406 119.039062 830.253906 116.609375 828.003906 112.648438 C 832.050781 110.851562 840.242188 107.070312 840.242188 95.640625 C 840.242188 91.679688 839.160156 83.488281 831.78125 79.621094 C 827.101562 77.191406 822.242188 77.101562 811.710938 77.28125 L 805.410156 77.371094 L 794.433594 77.371094 L 793.980469 77.910156 C 794.34375 87 794.703125 96.359375 794.703125 120.839844 C 794.703125 129.210938 794.613281 133.261719 794.34375 140.730469 L 794.882812 141.269531 C 801.453125 141 802.890625 140.910156 810.273438 141 L 810.8125 140.460938 C 810.09375 130.019531 810.003906 127.140625 809.910156 116.429688 L 814.320312 116.25 M 810.09375 88.261719 C 811.351562 88.171875 812.613281 88.171875 813.871094 88.171875 C 817.382812 88.171875 824.3125 88.171875 824.3125 96.089844 C 824.3125 98.609375 823.683594 101.941406 820.351562 104.011719 C 817.832031 105.539062 814.59375 105.71875 810.09375 105.808594 Z M 886.59375 77.191406 C 877.953125 77.460938 876.152344 77.460938 866.523438 77.460938 L 865.890625 78 C 861.121094 93.300781 858.242188 102.390625 845.011719 140.371094 L 845.371094 141 L 859.410156 141 L 860.042969 140.460938 L 864.453125 124.078125 L 883.890625 124.078125 L 887.761719 140.730469 L 888.390625 141.269531 C 894.960938 141 896.761719 140.910156 904.050781 141 L 904.503906 140.28125 C 893.613281 101.761719 892.351562 97.53125 887.222656 77.730469 L 886.59375 77.191406 M 867.601562 113.191406 L 872.101562 97.980469 L 875.253906 87.449219 L 877.953125 99.148438 L 881.28125 113.191406 Z M 904.863281 141 "/>
</svg>
