<?xml version="1.0" encoding="UTF-8"?>
<svg xmlns="http://www.w3.org/2000/svg" xmlns:xlink="http://www.w3.org/1999/xlink" width="975" height="1300" viewBox="0 0 975 1300">
<path fill-rule="nonzero" fill="rgb(98.823529%, 78.823529%, 9.019608%)" fill-opacity="1" d="M 50 50 L 925 50 L 925 410 L 50 410 Z M 50 50 "/>
<path fill-rule="nonzero" fill="rgb(34.901961%, 14.901961%, 14.901961%)" fill-opacity="1" d="M 102.875 77.28125 L 91.445312 77.460938 L 90.902344 78 C 91.265625 89.699219 91.535156 97.53125 91.535156 107.878906 C 91.535156 118.859375 91.265625 129.75 90.992188 140.730469 L 91.535156 141.269531 C 98.195312 141 99.632812 140.910156 106.835938 141 L 107.285156 140.460938 C 106.925781 130.648438 106.925781 128.398438 106.925781 119.21875 C 117.003906 119.308594 127.804688 119.308594 134.285156 111.390625 C 136.804688 108.328125 138.964844 103.199219 138.964844 96.898438 C 138.964844 93.03125 138.0625 84.480469 130.59375 80.25 C 125.195312 77.101562 117.542969 77.101562 110.792969 77.101562 L 102.875 77.28125 M 106.925781 88.171875 C 108.902344 88.078125 110.792969 88.078125 112.773438 88.078125 C 120.695312 88.261719 122.855469 92.308594 122.855469 97.53125 C 122.855469 98.789062 122.855469 104.011719 118.085938 106.621094 C 115.652344 107.96875 112.324219 108.148438 106.925781 108.148438 Z M 190.984375 117.058594 C 190.984375 113.550781 190.984375 98.96875 178.382812 94.019531 C 174.421875 92.488281 169.742188 92.308594 167.402344 92.308594 C 151.742188 92.308594 142.921875 100.679688 142.921875 117.238281 C 142.921875 123 143.824219 128.851562 147.152344 133.710938 C 149.492188 137.21875 153.902344 142.078125 166.773438 142.078125 C 185.851562 142.078125 190.984375 130.558594 190.984375 117.058594 M 175.414062 116.96875 C 175.414062 124.351562 174.421875 132.539062 166.953125 132.539062 C 164.613281 132.539062 162.992188 131.460938 161.914062 130.46875 C 160.382812 128.941406 158.671875 125.878906 158.671875 117.148438 C 158.671875 114.539062 158.671875 108.78125 160.472656 105.628906 C 161.824219 103.199219 164.164062 101.578125 167.042969 101.578125 C 169.5625 101.578125 171.632812 102.929688 172.804688 104.371094 C 174.964844 106.980469 175.414062 112.109375 175.414062 116.96875 Z M 215.824219 140.371094 C 215.371094 133.441406 215.011719 128.128906 215.011719 115.710938 C 215.011719 108.058594 215.191406 100.320312 215.28125 92.671875 L 214.652344 91.949219 L 199.171875 94.648438 L 198.632812 95.191406 C 199.351562 102.03125 199.621094 105.179688 199.621094 117.960938 C 199.621094 127.769531 199.351562 133.261719 199.082031 140.640625 L 199.621094 141.269531 C 206.101562 141 207.902344 140.910156 215.191406 141 L 215.824219 140.371094 M 214.382812 83.308594 L 214.652344 71.070312 L 214.113281 70.53125 L 199.441406 72.328125 L 198.902344 72.960938 C 199.082031 76.199219 199.171875 78.089844 199.171875 80.25 C 199.171875 81.960938 199.171875 83.761719 199.082031 85.46875 L 199.710938 86.011719 C 205.832031 84.929688 207.542969 84.75 213.933594 83.941406 Z M 269.914062 140.371094 C 269.464844 132.449219 269.464844 129.929688 269.285156 121.109375 L 269.285156 114.089844 C 269.195312 105.449219 269.105469 101.308594 266.855469 97.621094 C 264.0625 92.941406 258.933594 92.21875 255.695312 92.21875 C 250.203125 92.21875 245.433594 95.101562 241.292969 97.53125 L 241.472656 92.578125 L 240.574219 91.949219 C 233.644531 93.390625 232.113281 93.660156 225.363281 94.558594 L 224.824219 95.191406 C 225.542969 103.019531 226.085938 108.691406 226.085938 123.359375 C 226.085938 129.121094 225.992188 134.878906 225.902344 140.640625 L 226.445312 141.179688 C 232.925781 140.910156 234.273438 140.910156 241.472656 140.910156 L 242.015625 140.371094 C 241.472656 126.511719 241.382812 123 241.292969 106.890625 C 243.183594 105.628906 245.34375 104.101562 248.222656 104.101562 C 253.175781 104.101562 253.625 109.410156 253.894531 112.648438 C 254.074219 115.621094 254.164062 127.949219 254.164062 131.371094 C 254.164062 134.429688 254.074219 137.578125 254.074219 140.640625 L 254.613281 141.179688 C 260.554688 141 262.085938 140.910156 269.285156 140.910156 Z M 305.375 130.648438 C 303.84375 131.101562 302.761719 131.460938 301.234375 131.460938 C 296.644531 131.460938 296.285156 128.578125 296.101562 127.230469 C 295.832031 124.890625 295.832031 119.941406 295.921875 116.339844 L 296.101562 103.648438 L 304.203125 104.011719 L 304.742188 103.46875 L 305.644531 93.839844 L 305.101562 93.300781 L 296.101562 93.300781 L 296.375 78.179688 L 295.742188 77.640625 C 289.625 79.441406 288.003906 79.890625 281.613281 81.511719 L 281.253906 82.140625 L 281.34375 93.390625 L 276.484375 93.210938 L 275.945312 93.660156 L 275.132812 103.289062 L 275.671875 103.828125 L 281.34375 103.648438 L 281.074219 117.960938 C 280.984375 120.210938 280.894531 122.460938 280.894531 124.800781 C 280.894531 133.078125 281.074219 141.988281 295.113281 141.988281 C 298.625 141.988281 301.414062 141.449219 304.5625 140.910156 L 305.195312 140.28125 L 306.09375 131.011719 Z M 385.023438 124.890625 C 382.953125 126.511719 378.363281 129.929688 370.894531 129.929688 C 360.632812 129.929688 353.433594 122.28125 353.433594 109.5 C 353.433594 101.761719 356.132812 88.171875 370.804688 88.171875 C 377.554688 88.171875 381.242188 90.78125 383.492188 92.488281 L 384.304688 92.308594 L 385.113281 79.890625 L 384.753906 79.441406 C 381.515625 78.179688 376.023438 76.109375 368.105469 76.109375 C 344.792969 76.109375 336.695312 94.109375 336.695312 109.859375 C 336.695312 127.140625 347.222656 142.351562 369.183594 142.351562 C 376.742188 142.351562 381.695312 140.371094 384.574219 139.199219 L 385.023438 138.660156 L 385.652344 125.25 Z M 432.722656 114.179688 C 432.8125 106.078125 432.8125 102.570312 430.472656 98.789062 C 428.671875 95.910156 425.074219 92.308594 413.554688 92.308594 C 405.8125 92.308594 401.042969 93.75 395.914062 95.28125 L 395.375 96 L 394.921875 105.808594 L 395.644531 106.171875 C 398.792969 104.910156 404.644531 102.570312 410.671875 102.570312 C 414.003906 102.570312 415.351562 103.109375 416.523438 104.28125 C 417.421875 105.179688 417.695312 106.800781 417.695312 108.148438 C 406.894531 109.589844 401.851562 110.578125 396.453125 113.910156 C 391.414062 117.058594 389.703125 122.191406 389.703125 126.238281 C 389.703125 135.871094 396.632812 142.078125 405.453125 142.078125 C 412.203125 142.078125 416.074219 138.839844 417.964844 137.308594 L 417.964844 140.640625 L 418.503906 141.269531 C 424.984375 141 426.964844 140.910156 432.8125 141 L 433.261719 140.371094 C 432.632812 131.550781 432.632812 129.300781 432.632812 120.839844 L 432.722656 114.179688 M 417.875 128.488281 C 415.984375 129.570312 413.554688 130.828125 410.582031 130.828125 C 407.34375 130.828125 404.644531 129.121094 404.644531 125.339844 C 404.644531 119.398438 411.753906 118.410156 417.875 117.601562 Z M 449.734375 141.179688 L 451.535156 141.179688 C 465.933594 141.179688 475.207031 140.460938 482.046875 133.171875 C 488.433594 126.328125 489.066406 118.230469 489.066406 114.449219 C 489.066406 101.941406 481.867188 92.21875 469.625 92.21875 C 463.683594 92.21875 460.535156 94.199219 458.015625 95.820312 L 458.554688 69.71875 L 457.835938 69.179688 L 442.894531 71.519531 L 442.355469 72.148438 C 443.074219 79.710938 443.34375 82.769531 443.34375 100.859375 C 443.34375 108.601562 443.253906 123.898438 443.164062 140.640625 L 443.796875 141.269531 L 449.734375 141.179688 M 458.375 104.730469 C 460.175781 103.828125 461.886719 102.929688 464.226562 102.929688 C 470.164062 102.929688 473.585938 108.238281 473.585938 116.519531 C 473.585938 123 470.707031 127.230469 468.277344 128.941406 C 465.304688 131.011719 461.433594 131.101562 458.375 131.191406 Z M 523.625 107.609375 L 526.144531 92.941406 L 525.605469 92.308594 C 524.976562 92.308594 524.34375 92.21875 523.714844 92.21875 C 520.023438 92.21875 515.886719 94.289062 513.003906 100.949219 L 513.273438 92.671875 L 512.554688 91.949219 C 505.894531 93.390625 504.183594 93.660156 497.613281 94.648438 L 497.074219 95.191406 C 497.613281 101.941406 497.886719 105.988281 497.886719 118.5 C 497.886719 125.878906 497.792969 133.261719 497.613281 140.730469 L 498.15625 141.269531 C 504.816406 141 506.253906 140.910156 513.453125 141 L 513.90625 140.371094 C 513.542969 133.078125 513.003906 122.910156 513.003906 116.699219 C 513.003906 112.648438 513.003906 106.710938 519.125 106.710938 C 520.65625 106.710938 521.554688 107.25 522.816406 107.96875 Z M 547.65625 140.371094 C 547.203125 133.441406 546.84375 128.128906 546.84375 115.710938 C 546.84375 108.058594 547.023438 100.320312 547.113281 92.671875 L 546.484375 91.949219 L 531.003906 94.648438 L 530.464844 95.191406 C 531.183594 102.03125 531.453125 105.179688 531.453125 117.960938 C 531.453125 127.769531 531.183594 133.261719 530.914062 140.640625 L 531.453125 141.269531 C 537.933594 141 539.734375 140.910156 547.023438 141 L 547.65625 140.371094 M 546.214844 83.308594 L 546.484375 71.070312 L 545.945312 70.53125 L 531.273438 72.328125 L 530.734375 72.960938 C 530.914062 76.199219 531.003906 78.089844 531.003906 80.25 C 531.003906 81.960938 531.003906 83.761719 530.914062 85.46875 L 531.542969 86.011719 C 537.664062 84.929688 539.375 84.75 545.765625 83.941406 Z M 573.480469 140.371094 C 573.03125 130.019531 572.582031 120.570312 572.582031 92.128906 C 572.582031 83.578125 572.671875 79.53125 573.03125 69.808594 L 572.402344 69.179688 L 557.011719 71.609375 L 556.652344 72.148438 C 557.550781 83.128906 557.640625 86.101562 557.820312 100.679688 C 557.914062 105.988281 557.914062 111.300781 557.914062 116.609375 C 557.914062 126.328125 557.730469 131.730469 557.371094 140.640625 L 557.914062 141.269531 C 563.941406 141 566.371094 140.910156 572.941406 141 Z M 599.761719 140.371094 C 599.3125 130.019531 598.863281 120.570312 598.863281 92.128906 C 598.863281 83.578125 598.953125 79.53125 599.3125 69.808594 L 598.683594 69.179688 L 583.292969 71.609375 L 582.933594 72.148438 C 583.832031 83.128906 583.921875 86.101562 584.101562 100.679688 C 584.195312 105.988281 584.195312 111.300781 584.195312 116.609375 C 584.195312 126.328125 584.011719 131.730469 583.652344 140.640625 L 584.195312 141.269531 C 590.222656 141 592.652344 140.910156 599.222656 141 Z M 656.015625 117.058594 C 656.015625 113.550781 656.015625 98.96875 643.414062 94.019531 C 639.453125 92.488281 634.773438 92.308594 632.433594 92.308594 C 616.773438 92.308594 607.953125 100.679688 607.953125 117.238281 C 607.953125 123 608.855469 128.851562 612.183594 133.710938 C 614.523438 137.21875 618.933594 142.078125 631.804688 142.078125 C 650.882812 142.078125 656.015625 130.558594 656.015625 117.058594 M 640.445312 116.96875 C 640.445312 124.351562 639.453125 132.539062 631.984375 132.539062 C 629.644531 132.539062 628.023438 131.460938 626.945312 130.46875 C 625.414062 128.941406 623.703125 125.878906 623.703125 117.148438 C 623.703125 114.539062 623.703125 108.78125 625.503906 105.628906 C 626.855469 103.199219 629.195312 101.578125 632.074219 101.578125 C 634.59375 101.578125 636.664062 102.929688 637.835938 104.371094 C 639.996094 106.980469 640.445312 112.109375 640.445312 116.96875 Z M 729.546875 128.671875 C 719.734375 129.210938 711.90625 129.390625 709.207031 129.390625 L 707.40625 129.390625 C 707.226562 105.359375 707.316406 99.238281 708.035156 77.730469 L 707.496094 77.191406 C 699.753906 77.550781 697.683594 77.550781 691.476562 77.460938 L 690.933594 78 C 691.296875 85.199219 691.386719 87.359375 691.386719 98.070312 C 691.386719 112.289062 691.296875 126.511719 691.296875 140.730469 L 691.746094 141.269531 C 709.386719 141 712.625 141 728.824219 141 L 729.273438 140.460938 L 729.996094 129.121094 Z M 754.027344 140.371094 C 753.574219 133.441406 753.214844 128.128906 753.214844 115.710938 C 753.214844 108.058594 753.394531 100.320312 753.484375 92.671875 L 752.855469 91.949219 L 737.375 94.648438 L 736.835938 95.191406 C 737.554688 102.03125 737.824219 105.179688 737.824219 117.960938 C 737.824219 127.769531 737.554688 133.261719 737.285156 140.640625 L 737.824219 141.269531 C 744.304688 141 746.105469 140.910156 753.394531 141 L 754.027344 140.371094 M 752.585938 83.308594 L 752.855469 71.070312 L 752.316406 70.53125 L 737.644531 72.328125 L 737.105469 72.960938 C 737.285156 76.199219 737.375 78.089844 737.375 80.25 C 737.375 81.960938 737.375 83.761719 737.285156 85.46875 L 737.914062 86.011719 C 744.035156 84.929688 745.746094 84.75 752.136719 83.941406 Z M 780.574219 125.789062 C 783.453125 125.878906 786.332031 126.058594 790.652344 124.621094 C 795.332031 123 802.171875 119.128906 802.171875 110.398438 C 802.171875 106.078125 800.914062 104.28125 799.742188 102.570312 L 805.953125 102.929688 L 806.492188 102.480469 L 807.125 93.480469 L 806.582031 93.03125 C 799.652344 93.300781 797.761719 93.390625 792.09375 93.300781 L 787.953125 93.210938 C 781.5625 93.03125 773.011719 92.851562 767.164062 97.710938 C 765.183594 99.238281 761.402344 103.109375 761.402344 109.859375 C 761.402344 113.460938 762.394531 116.339844 764.011719 118.589844 C 765.992188 121.378906 767.792969 122.371094 770.042969 123.628906 C 767.523438 128.488281 766.171875 130.921875 764.101562 134.609375 L 764.101562 135.421875 L 767.882812 138.121094 C 765.183594 140.191406 760.953125 143.609375 760.953125 149.460938 C 760.953125 153.601562 763.203125 157.199219 766.535156 159.628906 C 771.574219 163.230469 778.414062 163.410156 781.921875 163.410156 C 798.394531 163.410156 805.953125 155.128906 805.953125 146.398438 C 805.953125 135.058594 796.054688 132.898438 790.203125 131.550781 L 788.042969 131.191406 C 783.632812 130.46875 782.644531 130.199219 779.132812 128.941406 L 780.574219 125.789062 M 787.953125 109.589844 C 787.863281 116.878906 783.453125 117.511719 782.191406 117.511719 C 781.472656 117.511719 778.324219 117.328125 776.792969 113.730469 C 775.984375 111.839844 775.984375 109.679688 775.984375 109.050781 C 775.984375 104.550781 778.683594 101.671875 782.011719 101.671875 C 786.152344 101.671875 788.042969 105.628906 787.953125 109.589844 M 780.304688 143.160156 C 788.3125 145.230469 788.402344 145.230469 789.484375 146.128906 C 790.382812 146.761719 791.285156 147.75 791.285156 149.640625 C 791.285156 152.339844 789.035156 155.128906 783.09375 155.128906 C 776.433594 155.128906 774.183594 151.351562 774.183594 148.199219 C 774.183594 145.230469 775.714844 143.519531 776.792969 142.261719 Z M 856.894531 140.371094 C 856.535156 132.988281 856.445312 130.46875 856.265625 121.109375 L 856.265625 114.359375 C 856.175781 105.808594 856.085938 100.859375 853.472656 97.078125 C 850.863281 93.390625 847.085938 92.21875 843.125 92.21875 C 836.554688 92.21875 831.425781 95.371094 827.824219 97.53125 L 828.09375 69.808594 L 827.554688 69.179688 L 812.164062 71.609375 L 811.714844 72.148438 C 812.523438 80.878906 812.703125 84.121094 812.882812 95.730469 C 813.066406 103.019531 813.15625 110.308594 813.15625 117.601562 C 813.15625 126.511719 812.972656 131.820312 812.792969 140.640625 L 813.246094 141.269531 C 819.90625 140.910156 821.253906 140.910156 828.542969 140.910156 L 829.085938 140.371094 C 828.453125 126.871094 828.363281 122.820312 828.273438 106.890625 C 829.984375 105.71875 832.144531 104.191406 835.203125 104.191406 C 840.15625 104.191406 840.515625 109.320312 840.875 112.921875 C 841.054688 115.710938 841.144531 128.488281 841.144531 131.820312 C 841.144531 134.789062 841.054688 137.671875 841.054688 140.640625 L 841.503906 141.269531 C 847.984375 140.910156 849.425781 140.910156 856.355469 140.910156 Z M 892.355469 130.648438 C 890.824219 131.101562 889.742188 131.460938 888.214844 131.460938 C 883.625 131.460938 883.265625 128.578125 883.082031 127.230469 C 882.8125 124.890625 882.8125 119.941406 882.902344 116.339844 L 883.082031 103.648438 L 891.183594 104.011719 L 891.722656 103.46875 L 892.625 93.839844 L 892.082031 93.300781 L 883.082031 93.300781 L 883.355469 78.179688 L 882.722656 77.640625 C 876.605469 79.441406 874.984375 79.890625 868.59375 81.511719 L 868.234375 82.140625 L 868.324219 93.390625 L 863.464844 93.210938 L 862.925781 93.660156 L 862.113281 103.289062 L 862.652344 103.828125 L 868.324219 103.648438 L 868.054688 117.960938 C 867.964844 120.210938 867.875 122.460938 867.875 124.800781 C 867.875 133.078125 868.054688 141.988281 882.09375 141.988281 C 885.605469 141.988281 888.394531 141.449219 891.542969 140.910156 L 892.175781 140.28125 L 893.074219 131.011719 Z M 893.613281 141 "/>
<path fill-rule="nonzero" fill="rgb(34.901961%, 14.901961%, 14.901961%)" fill-opacity="1" d="M 250.566406 222.300781 C 243.007812 219.148438 239.046875 217.53125 239.046875 213.480469 C 239.046875 210.691406 241.65625 207.179688 247.597656 207.179688 C 254.4375 207.179688 258.484375 209.96875 261.816406 212.21875 L 262.625 211.859375 L 263.347656 200.070312 L 262.894531 199.441406 C 259.027344 197.820312 254.976562 196.109375 246.246094 196.109375 C 229.328125 196.109375 223.476562 205.648438 223.476562 215.28125 C 223.476562 226.171875 231.9375 230.128906 236.976562 232.558594 L 239.945312 233.910156 C 246.15625 236.519531 250.925781 238.769531 250.925781 243.539062 C 250.925781 246.960938 247.957031 251.011719 240.125 251.011719 C 231.9375 251.011719 227.347656 247.410156 224.734375 245.339844 L 223.835938 245.609375 L 223.207031 258.300781 L 223.746094 259.019531 C 224.734375 259.378906 225.726562 259.828125 226.714844 260.101562 C 228.785156 260.820312 234.097656 262.351562 240.847656 262.351562 C 243.546875 262.351562 250.386719 262.078125 255.785156 259.558594 C 263.347656 255.871094 266.585938 249.03125 266.585938 241.378906 C 266.585938 236.25 264.605469 230.761719 259.835938 227.070312 C 257.40625 225.269531 255.066406 224.191406 252.90625 223.199219 Z M 300.335938 250.648438 C 298.804688 251.101562 297.722656 251.460938 296.195312 251.460938 C 291.605469 251.460938 291.246094 248.578125 291.0625 247.230469 C 290.792969 244.890625 290.792969 239.941406 290.882812 236.339844 L 291.0625 223.648438 L 299.164062 224.011719 L 299.703125 223.46875 L 300.605469 213.839844 L 300.0625 213.300781 L 291.0625 213.300781 L 291.335938 198.179688 L 290.703125 197.640625 C 284.585938 199.441406 282.964844 199.890625 276.574219 201.511719 L 276.214844 202.140625 L 276.304688 213.390625 L 271.445312 213.210938 L 270.90625 213.660156 L 270.09375 223.289062 L 270.632812 223.828125 L 276.304688 223.648438 L 276.035156 237.960938 C 275.945312 240.210938 275.855469 242.460938 275.855469 244.800781 C 275.855469 253.078125 276.035156 261.988281 290.074219 261.988281 C 293.585938 261.988281 296.375 261.449219 299.523438 260.910156 L 300.15625 260.28125 L 301.054688 251.011719 Z M 347.046875 234.179688 C 347.136719 226.078125 347.136719 222.570312 344.796875 218.789062 C 342.996094 215.910156 339.398438 212.308594 327.878906 212.308594 C 320.136719 212.308594 315.367188 213.75 310.238281 215.28125 L 309.699219 216 L 309.246094 225.808594 L 309.96875 226.171875 C 313.117188 224.910156 318.96875 222.570312 324.996094 222.570312 C 328.328125 222.570312 329.675781 223.109375 330.847656 224.28125 C 331.746094 225.179688 332.019531 226.800781 332.019531 228.148438 C 321.21875 229.589844 316.175781 230.578125 310.777344 233.910156 C 305.738281 237.058594 304.027344 242.191406 304.027344 246.238281 C 304.027344 255.871094 310.957031 262.078125 319.777344 262.078125 C 326.527344 262.078125 330.398438 258.839844 332.289062 257.308594 L 332.289062 260.640625 L 332.828125 261.269531 C 339.308594 261 341.289062 260.910156 347.136719 261 L 347.585938 260.371094 C 346.957031 251.550781 346.957031 249.300781 346.957031 240.839844 L 347.046875 234.179688 M 332.199219 248.488281 C 330.308594 249.570312 327.878906 250.828125 324.90625 250.828125 C 321.667969 250.828125 318.96875 249.121094 318.96875 245.339844 C 318.96875 239.398438 326.078125 238.410156 332.199219 237.601562 Z M 382.777344 250.648438 C 381.246094 251.101562 380.164062 251.460938 378.636719 251.460938 C 374.046875 251.460938 373.6875 248.578125 373.503906 247.230469 C 373.234375 244.890625 373.234375 239.941406 373.324219 236.339844 L 373.503906 223.648438 L 381.605469 224.011719 L 382.144531 223.46875 L 383.046875 213.839844 L 382.503906 213.300781 L 373.503906 213.300781 L 373.777344 198.179688 L 373.144531 197.640625 C 367.027344 199.441406 365.40625 199.890625 359.015625 201.511719 L 358.65625 202.140625 L 358.746094 213.390625 L 353.886719 213.210938 L 353.347656 213.660156 L 352.535156 223.289062 L 353.074219 223.828125 L 358.746094 223.648438 L 358.476562 237.960938 C 358.386719 240.210938 358.296875 242.460938 358.296875 244.800781 C 358.296875 253.078125 358.476562 261.988281 372.515625 261.988281 C 376.027344 261.988281 378.816406 261.449219 381.964844 260.910156 L 382.597656 260.28125 L 383.496094 251.011719 Z M 405.726562 260.371094 C 405.273438 253.441406 404.914062 248.128906 404.914062 235.710938 C 404.914062 228.058594 405.09375 220.320312 405.183594 212.671875 L 404.554688 211.949219 L 389.074219 214.648438 L 388.535156 215.191406 C 389.253906 222.03125 389.523438 225.179688 389.523438 237.960938 C 389.523438 247.769531 389.253906 253.261719 388.984375 260.640625 L 389.523438 261.269531 C 396.003906 261 397.804688 260.910156 405.09375 261 L 405.726562 260.371094 M 404.285156 203.308594 L 404.554688 191.070312 L 404.015625 190.53125 L 389.34375 192.328125 L 388.804688 192.960938 C 388.984375 196.199219 389.074219 198.089844 389.074219 200.25 C 389.074219 201.960938 389.074219 203.761719 388.984375 205.46875 L 389.613281 206.011719 C 395.734375 204.929688 397.445312 204.75 403.835938 203.941406 Z M 461.527344 237.058594 C 461.527344 233.550781 461.527344 218.96875 448.925781 214.019531 C 444.964844 212.488281 440.285156 212.308594 437.945312 212.308594 C 422.285156 212.308594 413.464844 220.679688 413.464844 237.238281 C 413.464844 243 414.367188 248.851562 417.695312 253.710938 C 420.035156 257.21875 424.445312 262.078125 437.316406 262.078125 C 456.394531 262.078125 461.527344 250.558594 461.527344 237.058594 M 445.957031 236.96875 C 445.957031 244.351562 444.964844 252.539062 437.496094 252.539062 C 435.15625 252.539062 433.535156 251.460938 432.457031 250.46875 C 430.925781 248.941406 429.214844 245.878906 429.214844 237.148438 C 429.214844 234.539062 429.214844 228.78125 431.015625 225.628906 C 432.367188 223.199219 434.707031 221.578125 437.585938 221.578125 C 440.105469 221.578125 442.175781 222.929688 443.347656 224.371094 C 445.507812 226.980469 445.957031 232.109375 445.957031 236.96875 Z M 514.175781 260.371094 C 513.726562 252.449219 513.726562 249.929688 513.546875 241.109375 L 513.546875 234.089844 C 513.457031 225.449219 513.367188 221.308594 511.117188 217.621094 C 508.324219 212.941406 503.195312 212.21875 499.957031 212.21875 C 494.464844 212.21875 489.695312 215.101562 485.554688 217.53125 L 485.734375 212.578125 L 484.835938 211.949219 C 477.90625 213.390625 476.375 213.660156 469.625 214.558594 L 469.085938 215.191406 C 469.804688 223.019531 470.347656 228.691406 470.347656 243.359375 C 470.347656 249.121094 470.253906 254.878906 470.164062 260.640625 L 470.707031 261.179688 C 477.1875 260.910156 478.535156 260.910156 485.734375 260.910156 L 486.277344 260.371094 C 485.734375 246.511719 485.644531 243 485.554688 226.890625 C 487.445312 225.628906 489.605469 224.101562 492.484375 224.101562 C 497.4375 224.101562 497.886719 229.410156 498.15625 232.648438 C 498.335938 235.621094 498.425781 247.949219 498.425781 251.371094 C 498.425781 254.429688 498.335938 257.578125 498.335938 260.640625 L 498.875 261.179688 C 504.816406 261 506.347656 260.910156 513.546875 260.910156 Z M 576.726562 222.300781 C 569.167969 219.148438 565.207031 217.53125 565.207031 213.480469 C 565.207031 210.691406 567.816406 207.179688 573.757812 207.179688 C 580.597656 207.179688 584.644531 209.96875 587.976562 212.21875 L 588.785156 211.859375 L 589.507812 200.070312 L 589.054688 199.441406 C 585.1875 197.820312 581.136719 196.109375 572.40625 196.109375 C 555.488281 196.109375 549.636719 205.648438 549.636719 215.28125 C 549.636719 226.171875 558.097656 230.128906 563.136719 232.558594 L 566.105469 233.910156 C 572.316406 236.519531 577.085938 238.769531 577.085938 243.539062 C 577.085938 246.960938 574.117188 251.011719 566.285156 251.011719 C 558.097656 251.011719 553.507812 247.410156 550.894531 245.339844 L 549.996094 245.609375 L 549.367188 258.300781 L 549.90625 259.019531 C 550.894531 259.378906 551.886719 259.828125 552.875 260.101562 C 554.945312 260.820312 560.257812 262.351562 567.007812 262.351562 C 569.707031 262.351562 576.546875 262.078125 581.945312 259.558594 C 589.507812 255.871094 592.746094 249.03125 592.746094 241.378906 C 592.746094 236.25 590.765625 230.761719 585.996094 227.070312 C 583.566406 225.269531 581.226562 224.191406 579.066406 223.199219 Z M 626.496094 250.648438 C 624.964844 251.101562 623.882812 251.460938 622.355469 251.460938 C 617.765625 251.460938 617.40625 248.578125 617.222656 247.230469 C 616.953125 244.890625 616.953125 239.941406 617.042969 236.339844 L 617.222656 223.648438 L 625.324219 224.011719 L 625.863281 223.46875 L 626.765625 213.839844 L 626.222656 213.300781 L 617.222656 213.300781 L 617.496094 198.179688 L 616.863281 197.640625 C 610.746094 199.441406 609.125 199.890625 602.734375 201.511719 L 602.375 202.140625 L 602.464844 213.390625 L 597.605469 213.210938 L 597.066406 213.660156 L 596.253906 223.289062 L 596.792969 223.828125 L 602.464844 223.648438 L 602.195312 237.960938 C 602.105469 240.210938 602.015625 242.460938 602.015625 244.800781 C 602.015625 253.078125 602.195312 261.988281 616.234375 261.988281 C 619.746094 261.988281 622.535156 261.449219 625.683594 260.910156 L 626.316406 260.28125 L 627.214844 251.011719 Z M 673.207031 234.179688 C 673.296875 226.078125 673.296875 222.570312 670.957031 218.789062 C 669.15625 215.910156 665.558594 212.308594 654.039062 212.308594 C 646.296875 212.308594 641.527344 213.75 636.398438 215.28125 L 635.859375 216 L 635.40625 225.808594 L 636.128906 226.171875 C 639.277344 224.910156 645.128906 222.570312 651.15625 222.570312 C 654.488281 222.570312 655.835938 223.109375 657.007812 224.28125 C 657.90625 225.179688 658.179688 226.800781 658.179688 228.148438 C 647.378906 229.589844 642.335938 230.578125 636.9375 233.910156 C 631.898438 237.058594 630.1875 242.191406 630.1875 246.238281 C 630.1875 255.871094 637.117188 262.078125 645.9375 262.078125 C 652.6875 262.078125 656.558594 258.839844 658.449219 257.308594 L 658.449219 260.640625 L 658.988281 261.269531 C 665.46875 261 667.449219 260.910156 673.296875 261 L 673.746094 260.371094 C 673.117188 251.550781 673.117188 249.300781 673.117188 240.839844 L 673.207031 234.179688 M 658.359375 248.488281 C 656.46875 249.570312 654.039062 250.828125 651.066406 250.828125 C 647.828125 250.828125 645.128906 249.121094 645.128906 245.339844 C 645.128906 239.398438 652.238281 238.410156 658.359375 237.601562 Z M 708.9375 250.648438 C 707.40625 251.101562 706.324219 251.460938 704.796875 251.460938 C 700.207031 251.460938 699.847656 248.578125 699.664062 247.230469 C 699.394531 244.890625 699.394531 239.941406 699.484375 236.339844 L 699.664062 223.648438 L 707.765625 224.011719 L 708.304688 223.46875 L 709.207031 213.839844 L 708.664062 213.300781 L 699.664062 213.300781 L 699.9375 198.179688 L 699.304688 197.640625 C 693.1875 199.441406 691.566406 199.890625 685.175781 201.511719 L 684.816406 202.140625 L 684.90625 213.390625 L 680.046875 213.210938 L 679.507812 213.660156 L 678.695312 223.289062 L 679.234375 223.828125 L 684.90625 223.648438 L 684.636719 237.960938 C 684.546875 240.210938 684.457031 242.460938 684.457031 244.800781 C 684.457031 253.078125 684.636719 261.988281 698.675781 261.988281 C 702.1875 261.988281 704.976562 261.449219 708.125 260.910156 L 708.757812 260.28125 L 709.65625 251.011719 Z M 755.554688 247.679688 C 752.136719 249.480469 748.085938 251.550781 741.515625 251.550781 C 736.117188 251.550781 732.425781 249.839844 730.265625 246.601562 C 728.914062 244.710938 728.644531 242.910156 728.285156 241.109375 L 757.355469 240.570312 L 757.894531 239.941406 C 757.804688 235.53125 757.714844 231.03125 756.457031 226.53125 C 753.304688 215.910156 746.375 213.75 743.316406 213.03125 C 741.066406 212.398438 738.996094 212.21875 736.925781 212.21875 C 722.796875 212.21875 713.433594 221.488281 713.433594 237.058594 C 713.433594 241.289062 714.15625 245.699219 715.59375 248.851562 C 720.816406 261 733.054688 262.078125 739.535156 262.078125 C 747.003906 262.078125 750.246094 260.730469 755.015625 258.839844 L 755.554688 258.121094 L 756.183594 247.949219 L 755.554688 247.679688 M 728.285156 231.570312 C 728.554688 228.78125 729.183594 225 732.605469 222.839844 C 733.683594 222.121094 734.945312 221.851562 736.207031 221.851562 C 739.175781 221.851562 740.976562 223.378906 741.964844 225 C 743.226562 226.980469 743.316406 229.140625 743.316406 231.210938 Z M 760.777344 261 "/>
<path fill-rule="nonzero" fill="rgb(34.901961%, 14.901961%, 14.901961%)" fill-opacity="1" d="M 277.921875 317.191406 C 270.722656 317.460938 269.554688 317.460938 261.992188 317.460938 L 261.542969 318 C 262.171875 328.171875 262.171875 330.78125 262.261719 341.398438 C 258.304688 341.488281 254.34375 341.578125 250.292969 341.578125 C 247.144531 341.578125 243.902344 341.488281 240.753906 341.488281 L 240.933594 317.730469 L 240.484375 317.191406 C 233.554688 317.460938 232.203125 317.460938 224.375 317.460938 L 223.832031 318 C 224.285156 327.269531 224.824219 338.339844 224.824219 360.660156 C 224.824219 368.761719 224.644531 373.171875 224.464844 380.730469 L 224.914062 381.269531 C 231.484375 381 233.101562 380.910156 241.023438 381 L 241.472656 380.460938 C 240.933594 369.300781 240.84375 366.058594 240.753906 353.011719 C 244.714844 352.828125 248.042969 352.738281 251.554688 352.738281 C 255.152344 352.738281 258.753906 352.828125 262.351562 352.921875 C 262.535156 365.070312 262.535156 368.039062 262.082031 380.730469 L 262.535156 381.269531 C 269.285156 381 271.082031 380.910156 278.734375 381 L 279.183594 380.460938 C 278.464844 365.339844 278.191406 350.308594 278.191406 335.191406 C 278.191406 328.890625 278.285156 324.660156 278.375 317.730469 Z M 305.914062 380.371094 C 305.460938 373.441406 305.101562 368.128906 305.101562 355.710938 C 305.101562 348.058594 305.28125 340.320312 305.371094 332.671875 L 304.742188 331.949219 L 289.261719 334.648438 L 288.722656 335.191406 C 289.441406 342.03125 289.710938 345.179688 289.710938 357.960938 C 289.710938 367.769531 289.441406 373.261719 289.171875 380.640625 L 289.710938 381.269531 C 296.191406 381 297.992188 380.910156 305.28125 381 L 305.914062 380.371094 M 304.472656 323.308594 L 304.742188 311.070312 L 304.203125 310.53125 L 289.53125 312.328125 L 288.992188 312.960938 C 289.171875 316.199219 289.261719 318.089844 289.261719 320.25 C 289.261719 321.960938 289.261719 323.761719 289.171875 325.46875 L 289.800781 326.011719 C 295.921875 324.929688 297.632812 324.75 304.023438 323.941406 Z M 334.804688 349.949219 C 331.742188 348.871094 329.3125 347.878906 329.3125 345.359375 C 329.3125 344.28125 330.035156 341.308594 335.613281 341.308594 C 341.105469 341.308594 344.613281 343.648438 346.863281 345.089844 L 347.675781 344.820312 L 348.574219 335.011719 L 348.125 334.46875 C 343.894531 333.300781 340.203125 332.21875 334.355469 332.21875 C 329.945312 332.21875 321.125 332.578125 316.445312 339.328125 C 315.273438 340.949219 314.015625 343.648438 314.015625 347.25 C 314.015625 356.878906 321.484375 359.761719 325.714844 361.378906 L 329.132812 362.640625 C 331.5625 363.449219 335.523438 364.800781 335.523438 368.039062 C 335.523438 370.289062 333.453125 372.71875 328.414062 372.71875 C 325.894531 372.71875 322.203125 371.910156 318.875 370.199219 C 317.34375 369.390625 316.625 368.761719 315.273438 367.679688 L 314.464844 368.039062 C 314.285156 372.71875 314.195312 373.710938 313.832031 378.210938 L 314.285156 379.019531 C 318.695312 380.640625 322.472656 382.078125 329.042969 382.078125 C 335.882812 382.078125 349.382812 380.820312 351.003906 367.949219 C 351.09375 367.230469 351.09375 366.601562 351.09375 365.96875 C 351.09375 356.070312 344.164062 353.460938 339.214844 351.570312 Z M 384.214844 370.648438 C 382.683594 371.101562 381.601562 371.460938 380.074219 371.460938 C 375.484375 371.460938 375.125 368.578125 374.941406 367.230469 C 374.671875 364.890625 374.671875 359.941406 374.761719 356.339844 L 374.941406 343.648438 L 383.042969 344.011719 L 383.582031 343.46875 L 384.484375 333.839844 L 383.941406 333.300781 L 374.941406 333.300781 L 375.214844 318.179688 L 374.582031 317.640625 C 368.464844 319.441406 366.84375 319.890625 360.453125 321.511719 L 360.09375 322.140625 L 360.183594 333.390625 L 355.324219 333.210938 L 354.785156 333.660156 L 353.972656 343.289062 L 354.511719 343.828125 L 360.183594 343.648438 L 359.914062 357.960938 C 359.824219 360.210938 359.734375 362.460938 359.734375 364.800781 C 359.734375 373.078125 359.914062 381.988281 373.953125 381.988281 C 377.464844 381.988281 380.253906 381.449219 383.402344 380.910156 L 384.035156 380.28125 L 384.933594 371.011719 Z M 436.683594 357.058594 C 436.683594 353.550781 436.683594 338.96875 424.082031 334.019531 C 420.121094 332.488281 415.441406 332.308594 413.101562 332.308594 C 397.441406 332.308594 388.621094 340.679688 388.621094 357.238281 C 388.621094 363 389.523438 368.851562 392.851562 373.710938 C 395.191406 377.21875 399.601562 382.078125 412.472656 382.078125 C 431.550781 382.078125 436.683594 370.558594 436.683594 357.058594 M 421.113281 356.96875 C 421.113281 364.351562 420.121094 372.539062 412.652344 372.539062 C 410.3125 372.539062 408.691406 371.460938 407.613281 370.46875 C 406.082031 368.941406 404.371094 365.878906 404.371094 357.148438 C 404.371094 354.539062 404.371094 348.78125 406.171875 345.628906 C 407.523438 343.199219 409.863281 341.578125 412.742188 341.578125 C 415.261719 341.578125 417.332031 342.929688 418.503906 344.371094 C 420.664062 346.980469 421.113281 352.109375 421.113281 356.96875 Z M 471.242188 347.609375 L 473.761719 332.941406 L 473.222656 332.308594 C 472.59375 332.308594 471.960938 332.21875 471.332031 332.21875 C 467.640625 332.21875 463.503906 334.289062 460.621094 340.949219 L 460.890625 332.671875 L 460.171875 331.949219 C 453.511719 333.390625 451.800781 333.660156 445.230469 334.648438 L 444.691406 335.191406 C 445.230469 341.941406 445.503906 345.988281 445.503906 358.5 C 445.503906 365.878906 445.410156 373.261719 445.230469 380.730469 L 445.773438 381.269531 C 452.433594 381 453.871094 380.910156 461.070312 381 L 461.523438 380.371094 C 461.160156 373.078125 460.621094 362.910156 460.621094 356.699219 C 460.621094 352.648438 460.621094 346.710938 466.742188 346.710938 C 468.273438 346.710938 469.171875 347.25 470.433594 347.96875 Z M 495.273438 380.371094 C 494.820312 373.441406 494.460938 368.128906 494.460938 355.710938 C 494.460938 348.058594 494.640625 340.320312 494.730469 332.671875 L 494.101562 331.949219 L 478.621094 334.648438 L 478.082031 335.191406 C 478.800781 342.03125 479.070312 345.179688 479.070312 357.960938 C 479.070312 367.769531 478.800781 373.261719 478.53125 380.640625 L 479.070312 381.269531 C 485.550781 381 487.351562 380.910156 494.640625 381 L 495.273438 380.371094 M 493.832031 323.308594 L 494.101562 311.070312 L 493.5625 310.53125 L 478.890625 312.328125 L 478.351562 312.960938 C 478.53125 316.199219 478.621094 318.089844 478.621094 320.25 C 478.621094 321.960938 478.621094 323.761719 478.53125 325.46875 L 479.160156 326.011719 C 485.28125 324.929688 486.992188 324.75 493.382812 323.941406 Z M 540.453125 368.039062 C 538.023438 369.480469 535.683594 370.921875 531.09375 370.921875 C 520.921875 370.921875 518.851562 362.460938 518.851562 357.058594 C 518.851562 350.488281 521.734375 342.929688 530.464844 342.929688 C 534.421875 342.929688 536.582031 344.371094 539.285156 346.171875 L 540.183594 345.898438 C 540.542969 341.128906 540.632812 339.871094 541.351562 335.101562 L 540.902344 334.558594 C 536.941406 333.300781 533.523438 332.21875 528.304688 332.21875 C 507.152344 332.21875 503.011719 348.238281 503.011719 357.421875 C 503.011719 367.769531 508.414062 381.808594 528.664062 381.808594 C 533.433594 381.808594 536.492188 380.910156 540.273438 379.828125 L 540.8125 379.289062 L 541.171875 368.488281 Z M 586.714844 317.28125 L 575.285156 317.460938 L 574.742188 318 C 575.105469 329.699219 575.375 337.53125 575.375 347.878906 C 575.375 358.859375 575.105469 369.75 574.832031 380.730469 L 575.375 381.269531 C 582.035156 381 583.472656 380.910156 590.675781 381 L 591.125 380.460938 C 590.765625 370.648438 590.765625 368.398438 590.765625 359.21875 C 600.84375 359.308594 611.644531 359.308594 618.125 351.390625 C 620.644531 348.328125 622.804688 343.199219 622.804688 336.898438 C 622.804688 333.03125 621.902344 324.480469 614.433594 320.25 C 609.035156 317.101562 601.382812 317.101562 594.632812 317.101562 L 586.714844 317.28125 M 590.765625 328.171875 C 592.742188 328.078125 594.632812 328.078125 596.613281 328.078125 C 604.535156 328.261719 606.695312 332.308594 606.695312 337.53125 C 606.695312 338.789062 606.695312 344.011719 601.925781 346.621094 C 599.492188 347.96875 596.164062 348.148438 590.765625 348.148438 Z M 669.0625 354.179688 C 669.152344 346.078125 669.152344 342.570312 666.8125 338.789062 C 665.011719 335.910156 661.414062 332.308594 649.894531 332.308594 C 642.152344 332.308594 637.382812 333.75 632.253906 335.28125 L 631.714844 336 L 631.261719 345.808594 L 631.984375 346.171875 C 635.132812 344.910156 640.984375 342.570312 647.011719 342.570312 C 650.34375 342.570312 651.691406 343.109375 652.863281 344.28125 C 653.761719 345.179688 654.035156 346.800781 654.035156 348.148438 C 643.234375 349.589844 638.191406 350.578125 632.792969 353.910156 C 627.753906 357.058594 626.042969 362.191406 626.042969 366.238281 C 626.042969 375.871094 632.972656 382.078125 641.792969 382.078125 C 648.542969 382.078125 652.414062 378.839844 654.304688 377.308594 L 654.304688 380.640625 L 654.84375 381.269531 C 661.324219 381 663.304688 380.910156 669.152344 381 L 669.601562 380.371094 C 668.972656 371.550781 668.972656 369.300781 668.972656 360.839844 L 669.0625 354.179688 M 654.214844 368.488281 C 652.324219 369.570312 649.894531 370.828125 646.921875 370.828125 C 643.683594 370.828125 640.984375 369.121094 640.984375 365.339844 C 640.984375 359.398438 648.09375 358.410156 654.214844 357.601562 Z M 705.601562 347.609375 L 708.121094 332.941406 L 707.582031 332.308594 C 706.953125 332.308594 706.320312 332.21875 705.691406 332.21875 C 702 332.21875 697.863281 334.289062 694.980469 340.949219 L 695.25 332.671875 L 694.53125 331.949219 C 687.871094 333.390625 686.160156 333.660156 679.589844 334.648438 L 679.050781 335.191406 C 679.589844 341.941406 679.863281 345.988281 679.863281 358.5 C 679.863281 365.878906 679.769531 373.261719 679.589844 380.730469 L 680.132812 381.269531 C 686.792969 381 688.230469 380.910156 695.429688 381 L 695.882812 380.371094 C 695.519531 373.078125 694.980469 362.910156 694.980469 356.699219 C 694.980469 352.648438 694.980469 346.710938 701.101562 346.710938 C 702.632812 346.710938 703.53125 347.25 704.792969 347.96875 Z M 759.601562 379.828125 C 751.140625 365.519531 750.242188 363.898438 743.402344 351.570312 C 749.613281 343.109375 750.242188 342.210938 756.632812 334.019531 L 756.179688 333.121094 L 741.511719 333.300781 L 740.613281 333.929688 C 733.589844 346.078125 732.691406 347.519531 728.550781 353.730469 L 728.550781 343.738281 C 728.640625 326.910156 728.730469 323.308594 729.179688 309.71875 L 728.460938 309.179688 L 712.800781 311.519531 L 712.261719 312.148438 C 712.890625 320.878906 713.160156 325.109375 713.339844 336.898438 C 713.519531 351.480469 713.519531 366.058594 713.429688 380.640625 L 714.0625 381.269531 C 720.089844 381 721.800781 381 728.640625 381 L 729.179688 380.371094 L 728.640625 365.160156 L 728.550781 354.808594 C 736.382812 369.210938 737.371094 371.191406 741.960938 380.730469 L 742.769531 381.269531 L 758.972656 380.640625 Z M 758.523438 381 "/>
</svg>
