<?xml version="1.0" encoding="UTF-8"?>
<svg xmlns="http://www.w3.org/2000/svg" xmlns:xlink="http://www.w3.org/1999/xlink" width="975" height="1300" viewBox="0 0 975 1300">
<path fill-rule="nonzero" fill="rgb(98.823529%, 78.823529%, 9.019608%)" fill-opacity="1" d="M 50 50 L 925 50 L 925 410 L 50 410 Z M 50 50 "/>
<path fill-rule="nonzero" fill="rgb(34.901961%, 14.901961%, 14.901961%)" fill-opacity="1" d="M 124.789062 128.851562 C 114.167969 129.390625 111.648438 129.480469 100.128906 129.480469 L 99.949219 113.730469 L 121.007812 113.730469 L 121.636719 113.191406 L 122.179688 103.019531 L 121.726562 102.480469 L 99.949219 102.839844 L 99.949219 88.53125 C 110.117188 88.53125 112.1875 88.53125 123.078125 88.800781 L 123.527344 88.261719 L 124.15625 77.820312 L 123.707031 77.460938 L 84.199219 77.460938 L 83.65625 78 C 84.199219 86.730469 84.378906 90.058594 84.378906 114.179688 C 84.378906 125.519531 84.199219 131.191406 83.929688 140.640625 L 84.378906 141 L 123.976562 141 L 124.699219 140.460938 L 125.328125 129.480469 Z M 204.347656 140.371094 C 203.894531 132 203.804688 129.660156 203.804688 119.488281 L 203.804688 112.738281 C 203.894531 106.710938 203.984375 101.128906 201.375 97.351562 C 197.867188 92.21875 191.65625 92.21875 190.214844 92.21875 C 182.835938 92.21875 177.886719 95.550781 174.285156 98.070312 C 173.027344 96 170.777344 92.21875 163.578125 92.21875 C 157.636719 92.21875 153.765625 94.921875 149.625 97.800781 L 149.625 92.761719 L 148.816406 91.949219 C 141.796875 93.300781 139.816406 93.660156 133.515625 94.558594 L 132.976562 95.191406 C 133.695312 102.390625 134.234375 107.339844 134.234375 125.160156 C 134.234375 130.289062 134.144531 135.511719 134.144531 140.640625 L 134.597656 141.179688 C 140.355469 141 142.335938 140.910156 149.804688 140.910156 L 150.347656 140.371094 C 149.714844 126.511719 149.625 122.371094 149.535156 106.710938 C 151.425781 105.359375 153.496094 104.191406 155.746094 104.191406 C 161.328125 104.191406 161.507812 110.578125 161.507812 118.320312 C 161.507812 131.371094 161.417969 133.351562 161.234375 140.640625 L 161.777344 141.269531 C 168.617188 140.910156 170.507812 140.910156 176.714844 140.910156 L 177.257812 140.371094 C 176.714844 131.820312 176.625 129.300781 176.535156 118.410156 L 176.535156 115.078125 L 176.445312 105.988281 C 177.976562 105 179.957031 103.738281 182.65625 103.738281 C 187.785156 103.738281 188.597656 108.601562 188.597656 116.339844 C 188.597656 118.050781 188.507812 119.761719 188.507812 121.46875 C 188.417969 124.53125 188.328125 137.941406 188.234375 140.640625 L 188.777344 141.179688 C 195.527344 140.910156 197.507812 140.910156 203.804688 140.910156 Z M 254.65625 127.679688 C 251.238281 129.480469 247.1875 131.550781 240.617188 131.550781 C 235.21875 131.550781 231.527344 129.839844 229.367188 126.601562 C 228.015625 124.710938 227.746094 122.910156 227.386719 121.109375 L 256.457031 120.570312 L 256.996094 119.941406 C 256.90625 115.53125 256.816406 111.03125 255.558594 106.53125 C 252.40625 95.910156 245.476562 93.75 242.417969 93.03125 C 240.167969 92.398438 238.097656 92.21875 236.027344 92.21875 C 221.898438 92.21875 212.535156 101.488281 212.535156 117.058594 C 212.535156 121.289062 213.257812 125.699219 214.695312 128.851562 C 219.917969 141 232.15625 142.078125 238.636719 142.078125 C 246.105469 142.078125 249.347656 140.730469 254.117188 138.839844 L 254.65625 138.121094 L 255.285156 127.949219 L 254.65625 127.679688 M 227.386719 111.570312 C 227.65625 108.78125 228.285156 105 231.707031 102.839844 C 232.785156 102.121094 234.046875 101.851562 235.308594 101.851562 C 238.277344 101.851562 240.078125 103.378906 241.066406 105 C 242.328125 106.980469 242.417969 109.140625 242.417969 111.210938 Z M 291.289062 107.609375 L 293.808594 92.941406 L 293.269531 92.308594 C 292.640625 92.308594 292.007812 92.21875 291.378906 92.21875 C 287.6875 92.21875 283.550781 94.289062 280.667969 100.949219 L 280.9375 92.671875 L 280.21875 91.949219 C 273.558594 93.390625 271.847656 93.660156 265.277344 94.648438 L 264.738281 95.191406 C 265.277344 101.941406 265.550781 105.988281 265.550781 118.5 C 265.550781 125.878906 265.457031 133.261719 265.277344 140.730469 L 265.820312 141.269531 C 272.480469 141 273.917969 140.910156 281.117188 141 L 281.570312 140.371094 C 281.207031 133.078125 280.667969 122.910156 280.667969 116.699219 C 280.667969 112.648438 280.667969 106.710938 286.789062 106.710938 C 288.320312 106.710938 289.21875 107.25 290.480469 107.96875 Z M 339.257812 93.03125 L 326.75 93.300781 L 326.027344 93.929688 C 324.5 100.140625 324.140625 101.488281 321.980469 108.511719 L 319.640625 116.25 L 317.660156 123 L 315.949219 116.609375 L 313.339844 107.070312 L 309.738281 93.390625 L 309.019531 92.851562 C 302 93.390625 300.46875 93.480469 293.089844 93.660156 L 292.640625 94.289062 C 295.878906 102.839844 304.25 125.429688 309.828125 142.710938 C 306.140625 152.070312 305.417969 153.691406 301.367188 162.601562 L 301.820312 163.320312 C 304.070312 163.230469 306.589844 163.140625 308.929688 163.140625 C 311.179688 163.140625 313.519531 163.230469 315.769531 163.230469 L 316.398438 162.691406 C 321.347656 143.25 323.777344 135.691406 335.660156 104.371094 C 337.007812 100.769531 338.359375 97.261719 339.617188 93.75 Z M 368.867188 140.28125 C 371.75 131.28125 373.457031 125.699219 375.347656 120.03125 C 377.777344 112.738281 381.738281 101.039062 384.257812 93.660156 L 383.808594 93.03125 L 371.207031 93.300781 L 370.578125 93.929688 C 369.320312 99.960938 369.050781 101.21875 367.25 108.238281 L 362.660156 125.96875 L 360.410156 116.25 L 358.699219 109.320312 C 356.449219 100.949219 356.089844 99.238281 354.828125 93.300781 L 354.199219 92.761719 C 347.089844 93.570312 345.289062 93.660156 338.449219 93.75 L 338.089844 94.46875 C 350.058594 129.929688 351.050781 133.261719 353.027344 140.640625 L 353.660156 141.269531 C 359.507812 141 361.847656 140.910156 368.328125 141 Z M 405.320312 140.371094 C 404.867188 133.441406 404.507812 128.128906 404.507812 115.710938 C 404.507812 108.058594 404.6875 100.320312 404.777344 92.671875 L 404.148438 91.949219 L 388.667969 94.648438 L 388.128906 95.191406 C 388.847656 102.03125 389.117188 105.179688 389.117188 117.960938 C 389.117188 127.769531 388.847656 133.261719 388.578125 140.640625 L 389.117188 141.269531 C 395.597656 141 397.398438 140.910156 404.6875 141 L 405.320312 140.371094 M 403.878906 83.308594 L 404.148438 71.070312 L 403.609375 70.53125 L 388.9375 72.328125 L 388.398438 72.960938 C 388.578125 76.199219 388.667969 78.089844 388.667969 80.25 C 388.667969 81.960938 388.667969 83.761719 388.578125 85.46875 L 389.207031 86.011719 C 395.328125 84.929688 397.039062 84.75 403.429688 83.941406 Z M 431.144531 140.371094 C 430.695312 130.019531 430.246094 120.570312 430.246094 92.128906 C 430.246094 83.578125 430.335938 79.53125 430.695312 69.808594 L 430.066406 69.179688 L 414.675781 71.609375 L 414.316406 72.148438 C 415.214844 83.128906 415.304688 86.101562 415.484375 100.679688 C 415.578125 105.988281 415.578125 111.300781 415.578125 116.609375 C 415.578125 126.328125 415.394531 131.730469 415.035156 140.640625 L 415.578125 141.269531 C 421.605469 141 424.035156 140.910156 430.605469 141 Z M 457.425781 140.371094 C 456.976562 130.019531 456.527344 120.570312 456.527344 92.128906 C 456.527344 83.578125 456.617188 79.53125 456.976562 69.808594 L 456.347656 69.179688 L 440.957031 71.609375 L 440.597656 72.148438 C 441.496094 83.128906 441.585938 86.101562 441.765625 100.679688 C 441.859375 105.988281 441.859375 111.300781 441.859375 116.609375 C 441.859375 126.328125 441.675781 131.730469 441.316406 140.640625 L 441.859375 141.269531 C 447.886719 141 450.316406 140.910156 456.886719 141 Z M 507.828125 127.679688 C 504.410156 129.480469 500.359375 131.550781 493.789062 131.550781 C 488.390625 131.550781 484.699219 129.839844 482.539062 126.601562 C 481.1875 124.710938 480.917969 122.910156 480.558594 121.109375 L 509.628906 120.570312 L 510.167969 119.941406 C 510.078125 115.53125 509.988281 111.03125 508.730469 106.53125 C 505.578125 95.910156 498.648438 93.75 495.589844 93.03125 C 493.339844 92.398438 491.269531 92.21875 489.199219 92.21875 C 475.070312 92.21875 465.707031 101.488281 465.707031 117.058594 C 465.707031 121.289062 466.429688 125.699219 467.867188 128.851562 C 473.089844 141 485.328125 142.078125 491.808594 142.078125 C 499.277344 142.078125 502.519531 140.730469 507.289062 138.839844 L 507.828125 138.121094 L 508.457031 127.949219 L 507.828125 127.679688 M 480.558594 111.570312 C 480.828125 108.78125 481.457031 105 484.878906 102.839844 C 485.957031 102.121094 487.21875 101.851562 488.480469 101.851562 C 491.449219 101.851562 493.25 103.378906 494.238281 105 C 495.5 106.980469 495.589844 109.140625 495.589844 111.210938 Z M 591.4375 124.890625 C 589.367188 126.511719 584.777344 129.929688 577.308594 129.929688 C 567.046875 129.929688 559.847656 122.28125 559.847656 109.5 C 559.847656 101.761719 562.546875 88.171875 577.21875 88.171875 C 583.96875 88.171875 587.65625 90.78125 589.90625 92.488281 L 590.71875 92.308594 L 591.527344 79.890625 L 591.167969 79.441406 C 587.929688 78.179688 582.4375 76.109375 574.519531 76.109375 C 551.207031 76.109375 543.109375 94.109375 543.109375 109.859375 C 543.109375 127.140625 553.636719 142.351562 575.597656 142.351562 C 583.15625 142.351562 588.109375 140.371094 590.988281 139.199219 L 591.4375 138.660156 L 592.066406 125.25 Z M 625.097656 107.609375 L 627.617188 92.941406 L 627.078125 92.308594 C 626.449219 92.308594 625.816406 92.21875 625.1875 92.21875 C 621.496094 92.21875 617.359375 94.289062 614.476562 100.949219 L 614.746094 92.671875 L 614.027344 91.949219 C 607.367188 93.390625 605.65625 93.660156 599.085938 94.648438 L 598.546875 95.191406 C 599.085938 101.941406 599.359375 105.988281 599.359375 118.5 C 599.359375 125.878906 599.265625 133.261719 599.085938 140.730469 L 599.628906 141.269531 C 606.289062 141 607.726562 140.910156 614.925781 141 L 615.378906 140.371094 C 615.015625 133.078125 614.476562 122.910156 614.476562 116.699219 C 614.476562 112.648438 614.476562 106.710938 620.597656 106.710938 C 622.128906 106.710938 623.027344 107.25 624.289062 107.96875 Z M 672.796875 127.679688 C 669.378906 129.480469 665.328125 131.550781 658.757812 131.550781 C 653.359375 131.550781 649.667969 129.839844 647.507812 126.601562 C 646.15625 124.710938 645.886719 122.910156 645.527344 121.109375 L 674.597656 120.570312 L 675.136719 119.941406 C 675.046875 115.53125 674.957031 111.03125 673.699219 106.53125 C 670.546875 95.910156 663.617188 93.75 660.558594 93.03125 C 658.308594 92.398438 656.238281 92.21875 654.167969 92.21875 C 640.039062 92.21875 630.675781 101.488281 630.675781 117.058594 C 630.675781 121.289062 631.398438 125.699219 632.835938 128.851562 C 638.058594 141 650.296875 142.078125 656.777344 142.078125 C 664.246094 142.078125 667.488281 140.730469 672.257812 138.839844 L 672.796875 138.121094 L 673.425781 127.949219 L 672.796875 127.679688 M 645.527344 111.570312 C 645.796875 108.78125 646.425781 105 649.847656 102.839844 C 650.925781 102.121094 652.1875 101.851562 653.449219 101.851562 C 656.417969 101.851562 658.21875 103.378906 659.207031 105 C 660.46875 106.980469 660.558594 109.140625 660.558594 111.210938 Z M 702.320312 109.949219 C 699.257812 108.871094 696.828125 107.878906 696.828125 105.359375 C 696.828125 104.28125 697.550781 101.308594 703.128906 101.308594 C 708.621094 101.308594 712.128906 103.648438 714.378906 105.089844 L 715.191406 104.820312 L 716.089844 95.011719 L 715.640625 94.46875 C 711.410156 93.300781 707.71875 92.21875 701.871094 92.21875 C 697.460938 92.21875 688.640625 92.578125 683.960938 99.328125 C 682.789062 100.949219 681.53125 103.648438 681.53125 107.25 C 681.53125 116.878906 689 119.761719 693.230469 121.378906 L 696.648438 122.640625 C 699.078125 123.449219 703.039062 124.800781 703.039062 128.039062 C 703.039062 130.289062 700.96875 132.71875 695.929688 132.71875 C 693.410156 132.71875 689.71875 131.910156 686.390625 130.199219 C 684.859375 129.390625 684.140625 128.761719 682.789062 127.679688 L 681.980469 128.039062 C 681.800781 132.71875 681.710938 133.710938 681.347656 138.210938 L 681.800781 139.019531 C 686.210938 140.640625 689.988281 142.078125 696.558594 142.078125 C 703.398438 142.078125 716.898438 140.820312 718.519531 127.949219 C 718.609375 127.230469 718.609375 126.601562 718.609375 125.96875 C 718.609375 116.070312 711.679688 113.460938 706.730469 111.570312 Z M 761.71875 128.039062 C 759.289062 129.480469 756.949219 130.921875 752.359375 130.921875 C 742.1875 130.921875 740.117188 122.460938 740.117188 117.058594 C 740.117188 110.488281 743 102.929688 751.730469 102.929688 C 755.6875 102.929688 757.847656 104.371094 760.550781 106.171875 L 761.449219 105.898438 C 761.808594 101.128906 761.898438 99.871094 762.617188 95.101562 L 762.167969 94.558594 C 758.207031 93.300781 754.789062 92.21875 749.570312 92.21875 C 728.417969 92.21875 724.277344 108.238281 724.277344 117.421875 C 724.277344 127.769531 729.679688 141.808594 749.929688 141.808594 C 754.699219 141.808594 757.757812 140.910156 761.539062 139.828125 L 762.078125 139.289062 L 762.4375 128.488281 Z M 809.597656 127.679688 C 806.179688 129.480469 802.128906 131.550781 795.558594 131.550781 C 790.160156 131.550781 786.46875 129.839844 784.308594 126.601562 C 782.957031 124.710938 782.6875 122.910156 782.328125 121.109375 L 811.398438 120.570312 L 811.9375 119.941406 C 811.847656 115.53125 811.757812 111.03125 810.5 106.53125 C 807.347656 95.910156 800.417969 93.75 797.359375 93.03125 C 795.109375 92.398438 793.039062 92.21875 790.96875 92.21875 C 776.839844 92.21875 767.476562 101.488281 767.476562 117.058594 C 767.476562 121.289062 768.199219 125.699219 769.636719 128.851562 C 774.859375 141 787.097656 142.078125 793.578125 142.078125 C 801.046875 142.078125 804.289062 140.730469 809.058594 138.839844 L 809.597656 138.121094 L 810.226562 127.949219 L 809.597656 127.679688 M 782.328125 111.570312 C 782.597656 108.78125 783.226562 105 786.648438 102.839844 C 787.726562 102.121094 788.988281 101.851562 790.25 101.851562 C 793.21875 101.851562 795.019531 103.378906 796.007812 105 C 797.269531 106.980469 797.359375 109.140625 797.359375 111.210938 Z M 864.316406 140.371094 C 863.867188 132.449219 863.867188 129.929688 863.6875 121.109375 L 863.6875 114.089844 C 863.597656 105.449219 863.507812 101.308594 861.257812 97.621094 C 858.464844 92.941406 853.335938 92.21875 850.097656 92.21875 C 844.605469 92.21875 839.835938 95.101562 835.695312 97.53125 L 835.875 92.578125 L 834.976562 91.949219 C 828.046875 93.390625 826.515625 93.660156 819.765625 94.558594 L 819.226562 95.191406 C 819.945312 103.019531 820.488281 108.691406 820.488281 123.359375 C 820.488281 129.121094 820.394531 134.878906 820.304688 140.640625 L 820.847656 141.179688 C 827.328125 140.910156 828.675781 140.910156 835.875 140.910156 L 836.417969 140.371094 C 835.875 126.511719 835.785156 123 835.695312 106.890625 C 837.585938 105.628906 839.746094 104.101562 842.625 104.101562 C 847.578125 104.101562 848.027344 109.410156 848.296875 112.648438 C 848.476562 115.621094 848.566406 127.949219 848.566406 131.371094 C 848.566406 134.429688 848.476562 137.578125 848.476562 140.640625 L 849.015625 141.179688 C 854.957031 141 856.488281 140.910156 863.6875 140.910156 Z M 899.78125 130.648438 C 898.25 131.101562 897.167969 131.460938 895.640625 131.460938 C 891.050781 131.460938 890.691406 128.578125 890.507812 127.230469 C 890.238281 124.890625 890.238281 119.941406 890.328125 116.339844 L 890.507812 103.648438 L 898.609375 104.011719 L 899.148438 103.46875 L 900.050781 93.839844 L 899.507812 93.300781 L 890.507812 93.300781 L 890.78125 78.179688 L 890.148438 77.640625 C 884.03125 79.441406 882.410156 79.890625 876.019531 81.511719 L 875.660156 82.140625 L 875.75 93.390625 L 870.890625 93.210938 L 870.351562 93.660156 L 869.539062 103.289062 L 870.078125 103.828125 L 875.75 103.648438 L 875.480469 117.960938 C 875.390625 120.210938 875.300781 122.460938 875.300781 124.800781 C 875.300781 133.078125 875.480469 141.988281 889.519531 141.988281 C 893.03125 141.988281 895.820312 141.449219 898.96875 140.910156 L 899.601562 140.28125 L 900.5 131.011719 Z M 901.039062 141 "/>
<path fill-rule="nonzero" fill="rgb(34.901961%, 14.901961%, 14.901961%)" fill-opacity="1" d="M 251.464844 222.300781 C 243.90625 219.148438 239.945312 217.53125 239.945312 213.480469 C 239.945312 210.691406 242.554688 207.179688 248.496094 207.179688 C 255.335938 207.179688 259.382812 209.96875 262.714844 212.21875 L 263.523438 211.859375 L 264.246094 200.070312 L 263.792969 199.441406 C 259.925781 197.820312 255.875 196.109375 247.144531 196.109375 C 230.226562 196.109375 224.375 205.648438 224.375 215.28125 C 224.375 226.171875 232.835938 230.128906 237.875 232.558594 L 240.84375 233.910156 C 247.054688 236.519531 251.824219 238.769531 251.824219 243.539062 C 251.824219 246.960938 248.855469 251.011719 241.023438 251.011719 C 232.835938 251.011719 228.246094 247.410156 225.632812 245.339844 L 224.734375 245.609375 L 224.105469 258.300781 L 224.644531 259.019531 C 225.632812 259.378906 226.625 259.828125 227.613281 260.101562 C 229.683594 260.820312 234.996094 262.351562 241.746094 262.351562 C 244.445312 262.351562 251.285156 262.078125 256.683594 259.558594 C 264.246094 255.871094 267.484375 249.03125 267.484375 241.378906 C 267.484375 236.25 265.503906 230.761719 260.734375 227.070312 C 258.304688 225.269531 255.964844 224.191406 253.804688 223.199219 Z M 301.234375 250.648438 C 299.703125 251.101562 298.621094 251.460938 297.09375 251.460938 C 292.503906 251.460938 292.144531 248.578125 291.960938 247.230469 C 291.691406 244.890625 291.691406 239.941406 291.78125 236.339844 L 291.960938 223.648438 L 300.0625 224.011719 L 300.601562 223.46875 L 301.503906 213.839844 L 300.960938 213.300781 L 291.960938 213.300781 L 292.234375 198.179688 L 291.601562 197.640625 C 285.484375 199.441406 283.863281 199.890625 277.472656 201.511719 L 277.113281 202.140625 L 277.203125 213.390625 L 272.34375 213.210938 L 271.804688 213.660156 L 270.992188 223.289062 L 271.53125 223.828125 L 277.203125 223.648438 L 276.933594 237.960938 C 276.84375 240.210938 276.753906 242.460938 276.753906 244.800781 C 276.753906 253.078125 276.933594 261.988281 290.972656 261.988281 C 294.484375 261.988281 297.273438 261.449219 300.421875 260.910156 L 301.054688 260.28125 L 301.953125 251.011719 Z M 347.945312 234.179688 C 348.035156 226.078125 348.035156 222.570312 345.695312 218.789062 C 343.894531 215.910156 340.296875 212.308594 328.777344 212.308594 C 321.035156 212.308594 316.265625 213.75 311.136719 215.28125 L 310.597656 216 L 310.144531 225.808594 L 310.867188 226.171875 C 314.015625 224.910156 319.867188 222.570312 325.894531 222.570312 C 329.226562 222.570312 330.574219 223.109375 331.746094 224.28125 C 332.644531 225.179688 332.917969 226.800781 332.917969 228.148438 C 322.117188 229.589844 317.074219 230.578125 311.675781 233.910156 C 306.636719 237.058594 304.925781 242.191406 304.925781 246.238281 C 304.925781 255.871094 311.855469 262.078125 320.675781 262.078125 C 327.425781 262.078125 331.296875 258.839844 333.1875 257.308594 L 333.1875 260.640625 L 333.726562 261.269531 C 340.207031 261 342.1875 260.910156 348.035156 261 L 348.484375 260.371094 C 347.855469 251.550781 347.855469 249.300781 347.855469 240.839844 L 347.945312 234.179688 M 333.097656 248.488281 C 331.207031 249.570312 328.777344 250.828125 325.804688 250.828125 C 322.566406 250.828125 319.867188 249.121094 319.867188 245.339844 C 319.867188 239.398438 326.976562 238.410156 333.097656 237.601562 Z M 383.675781 250.648438 C 382.144531 251.101562 381.0625 251.460938 379.535156 251.460938 C 374.945312 251.460938 374.585938 248.578125 374.402344 247.230469 C 374.132812 244.890625 374.132812 239.941406 374.222656 236.339844 L 374.402344 223.648438 L 382.503906 224.011719 L 383.042969 223.46875 L 383.945312 213.839844 L 383.402344 213.300781 L 374.402344 213.300781 L 374.675781 198.179688 L 374.042969 197.640625 C 367.925781 199.441406 366.304688 199.890625 359.914062 201.511719 L 359.554688 202.140625 L 359.644531 213.390625 L 354.785156 213.210938 L 354.246094 213.660156 L 353.433594 223.289062 L 353.972656 223.828125 L 359.644531 223.648438 L 359.375 237.960938 C 359.285156 240.210938 359.195312 242.460938 359.195312 244.800781 C 359.195312 253.078125 359.375 261.988281 373.414062 261.988281 C 376.925781 261.988281 379.714844 261.449219 382.863281 260.910156 L 383.496094 260.28125 L 384.394531 251.011719 Z M 430.292969 247.679688 C 426.875 249.480469 422.824219 251.550781 416.253906 251.550781 C 410.855469 251.550781 407.164062 249.839844 405.003906 246.601562 C 403.652344 244.710938 403.382812 242.910156 403.023438 241.109375 L 432.09375 240.570312 L 432.632812 239.941406 C 432.542969 235.53125 432.453125 231.03125 431.195312 226.53125 C 428.042969 215.910156 421.113281 213.75 418.054688 213.03125 C 415.804688 212.398438 413.734375 212.21875 411.664062 212.21875 C 397.535156 212.21875 388.171875 221.488281 388.171875 237.058594 C 388.171875 241.289062 388.894531 245.699219 390.332031 248.851562 C 395.554688 261 407.792969 262.078125 414.273438 262.078125 C 421.742188 262.078125 424.984375 260.730469 429.753906 258.839844 L 430.292969 258.121094 L 430.921875 247.949219 L 430.292969 247.679688 M 403.023438 231.570312 C 403.292969 228.78125 403.921875 225 407.34375 222.839844 C 408.421875 222.121094 409.683594 221.851562 410.945312 221.851562 C 413.914062 221.851562 415.714844 223.378906 416.703125 225 C 417.964844 226.980469 418.054688 229.140625 418.054688 231.210938 Z M 536.222656 197.191406 C 526.863281 197.460938 525.332031 197.460938 515.34375 197.460938 L 514.804688 198 L 510.664062 212.578125 L 507.0625 225.628906 L 502.832031 241.289062 L 498.871094 225.179688 L 496.351562 215.011719 L 491.851562 197.730469 L 491.402344 197.191406 C 481.773438 197.460938 480.152344 197.460938 470.074219 197.460938 L 469.53125 198 C 468.632812 224.910156 468.273438 231.839844 466.292969 260.730469 L 466.742188 261.269531 C 472.503906 261 474.214844 260.910156 479.433594 261 L 479.972656 260.460938 L 480.242188 243.269531 L 480.78125 225.808594 L 481.144531 208.800781 L 485.101562 224.730469 L 488.523438 237.511719 L 494.554688 260.730469 L 495.09375 261.269531 C 500.671875 261 502.203125 260.910156 508.503906 261 L 509.042969 260.460938 L 514.261719 241.289062 L 517.863281 228.148438 L 522.902344 209.25 L 522.902344 225.359375 L 523.082031 239.128906 L 523.082031 260.730469 L 523.53125 261.269531 C 529.742188 261 532.171875 260.910156 539.101562 261 L 539.554688 260.460938 C 539.011719 250.199219 538.382812 239.851562 538.023438 229.5 C 537.753906 223.828125 537.574219 218.160156 537.304688 212.488281 C 536.851562 204.121094 536.761719 203.039062 536.761719 197.730469 Z M 589.773438 234.179688 C 589.863281 226.078125 589.863281 222.570312 587.523438 218.789062 C 585.722656 215.910156 582.125 212.308594 570.605469 212.308594 C 562.863281 212.308594 558.09375 213.75 552.964844 215.28125 L 552.425781 216 L 551.972656 225.808594 L 552.695312 226.171875 C 555.84375 224.910156 561.695312 222.570312 567.722656 222.570312 C 571.054688 222.570312 572.402344 223.109375 573.574219 224.28125 C 574.472656 225.179688 574.746094 226.800781 574.746094 228.148438 C 563.945312 229.589844 558.902344 230.578125 553.503906 233.910156 C 548.464844 237.058594 546.753906 242.191406 546.753906 246.238281 C 546.753906 255.871094 553.683594 262.078125 562.503906 262.078125 C 569.253906 262.078125 573.125 258.839844 575.015625 257.308594 L 575.015625 260.640625 L 575.554688 261.269531 C 582.035156 261 584.015625 260.910156 589.863281 261 L 590.3125 260.371094 C 589.683594 251.550781 589.683594 249.300781 589.683594 240.839844 L 589.773438 234.179688 M 574.925781 248.488281 C 573.035156 249.570312 570.605469 250.828125 567.632812 250.828125 C 564.394531 250.828125 561.695312 249.121094 561.695312 245.339844 C 561.695312 239.398438 568.804688 238.410156 574.925781 237.601562 Z M 626.316406 227.609375 L 628.835938 212.941406 L 628.296875 212.308594 C 627.667969 212.308594 627.035156 212.21875 626.40625 212.21875 C 622.714844 212.21875 618.578125 214.289062 615.695312 220.949219 L 615.964844 212.671875 L 615.246094 211.949219 C 608.585938 213.390625 606.875 213.660156 600.304688 214.648438 L 599.765625 215.191406 C 600.304688 221.941406 600.578125 225.988281 600.578125 238.5 C 600.578125 245.878906 600.484375 253.261719 600.304688 260.730469 L 600.847656 261.269531 C 607.507812 261 608.945312 260.910156 616.144531 261 L 616.597656 260.371094 C 616.234375 253.078125 615.695312 242.910156 615.695312 236.699219 C 615.695312 232.648438 615.695312 226.710938 621.816406 226.710938 C 623.347656 226.710938 624.246094 227.25 625.507812 227.96875 Z M 650.347656 260.371094 C 649.894531 253.441406 649.535156 248.128906 649.535156 235.710938 C 649.535156 228.058594 649.714844 220.320312 649.804688 212.671875 L 649.175781 211.949219 L 633.695312 214.648438 L 633.15625 215.191406 C 633.875 222.03125 634.144531 225.179688 634.144531 237.960938 C 634.144531 247.769531 633.875 253.261719 633.605469 260.640625 L 634.144531 261.269531 C 640.625 261 642.425781 260.910156 649.714844 261 L 650.347656 260.371094 M 648.90625 203.308594 L 649.175781 191.070312 L 648.636719 190.53125 L 633.964844 192.328125 L 633.425781 192.960938 C 633.605469 196.199219 633.695312 198.089844 633.695312 200.25 C 633.695312 201.960938 633.695312 203.761719 633.605469 205.46875 L 634.234375 206.011719 C 640.355469 204.929688 642.066406 204.75 648.457031 203.941406 Z M 704.433594 260.371094 C 703.984375 252.449219 703.984375 249.929688 703.804688 241.109375 L 703.804688 234.089844 C 703.714844 225.449219 703.625 221.308594 701.375 217.621094 C 698.582031 212.941406 693.453125 212.21875 690.214844 212.21875 C 684.722656 212.21875 679.953125 215.101562 675.8125 217.53125 L 675.992188 212.578125 L 675.09375 211.949219 C 668.164062 213.390625 666.632812 213.660156 659.882812 214.558594 L 659.34375 215.191406 C 660.0625 223.019531 660.605469 228.691406 660.605469 243.359375 C 660.605469 249.121094 660.511719 254.878906 660.421875 260.640625 L 660.964844 261.179688 C 667.445312 260.910156 668.792969 260.910156 675.992188 260.910156 L 676.535156 260.371094 C 675.992188 246.511719 675.902344 243 675.8125 226.890625 C 677.703125 225.628906 679.863281 224.101562 682.742188 224.101562 C 687.695312 224.101562 688.144531 229.410156 688.414062 232.648438 C 688.59375 235.621094 688.683594 247.949219 688.683594 251.371094 C 688.683594 254.429688 688.59375 257.578125 688.59375 260.640625 L 689.132812 261.179688 C 695.074219 261 696.605469 260.910156 703.804688 260.910156 Z M 754.652344 247.679688 C 751.234375 249.480469 747.183594 251.550781 740.613281 251.550781 C 735.214844 251.550781 731.523438 249.839844 729.363281 246.601562 C 728.011719 244.710938 727.742188 242.910156 727.382812 241.109375 L 756.453125 240.570312 L 756.992188 239.941406 C 756.902344 235.53125 756.8125 231.03125 755.554688 226.53125 C 752.402344 215.910156 745.472656 213.75 742.414062 213.03125 C 740.164062 212.398438 738.09375 212.21875 736.023438 212.21875 C 721.894531 212.21875 712.53125 221.488281 712.53125 237.058594 C 712.53125 241.289062 713.253906 245.699219 714.691406 248.851562 C 719.914062 261 732.152344 262.078125 738.632812 262.078125 C 746.101562 262.078125 749.34375 260.730469 754.113281 258.839844 L 754.652344 258.121094 L 755.28125 247.949219 L 754.652344 247.679688 M 727.382812 231.570312 C 727.652344 228.78125 728.28125 225 731.703125 222.839844 C 732.78125 222.121094 734.042969 221.851562 735.304688 221.851562 C 738.273438 221.851562 740.074219 223.378906 741.0625 225 C 742.324219 226.980469 742.414062 229.140625 742.414062 231.210938 Z M 759.875 261 "/>
<path fill-rule="nonzero" fill="rgb(34.901961%, 14.901961%, 14.901961%)" fill-opacity="1" d="M 351.453125 356.25 C 357.484375 366.511719 358.835938 369.210938 364.59375 381 L 365.316406 381.449219 C 368.105469 381.269531 370.804688 381.089844 373.59375 381 C 376.386719 380.910156 379.265625 380.820312 382.054688 380.820312 L 382.59375 379.738281 C 379.175781 375.328125 378.183594 373.980469 371.703125 363.628906 C 368.824219 359.039062 367.386719 356.609375 365.136719 352.648438 C 369.183594 350.851562 377.375 347.070312 377.375 335.640625 C 377.375 331.679688 376.292969 323.488281 368.914062 319.621094 C 364.234375 317.191406 359.375 317.101562 348.84375 317.28125 L 342.542969 317.371094 L 331.566406 317.371094 L 331.113281 317.910156 C 331.476562 327 331.835938 336.359375 331.835938 360.839844 C 331.835938 369.210938 331.746094 373.261719 331.476562 380.730469 L 332.015625 381.269531 C 338.585938 381 340.023438 380.910156 347.40625 381 L 347.945312 380.460938 C 347.226562 370.019531 347.136719 367.140625 347.042969 356.429688 L 351.453125 356.25 M 347.226562 328.261719 C 348.484375 328.171875 349.746094 328.171875 351.003906 328.171875 C 354.515625 328.171875 361.445312 328.171875 361.445312 336.089844 C 361.445312 338.609375 360.816406 341.941406 357.484375 344.011719 C 354.964844 345.539062 351.726562 345.71875 347.226562 345.808594 Z M 427.324219 367.679688 C 423.90625 369.480469 419.855469 371.550781 413.285156 371.550781 C 407.886719 371.550781 404.195312 369.839844 402.035156 366.601562 C 400.683594 364.710938 400.414062 362.910156 400.054688 361.109375 L 429.125 360.570312 L 429.664062 359.941406 C 429.574219 355.53125 429.484375 351.03125 428.226562 346.53125 C 425.074219 335.910156 418.144531 333.75 415.085938 333.03125 C 412.835938 332.398438 410.765625 332.21875 408.695312 332.21875 C 394.566406 332.21875 385.203125 341.488281 385.203125 357.058594 C 385.203125 361.289062 385.925781 365.699219 387.363281 368.851562 C 392.585938 381 404.824219 382.078125 411.304688 382.078125 C 418.773438 382.078125 422.015625 380.730469 426.785156 378.839844 L 427.324219 378.121094 L 427.953125 367.949219 L 427.324219 367.679688 M 400.054688 351.570312 C 400.324219 348.78125 400.953125 345 404.375 342.839844 C 405.453125 342.121094 406.714844 341.851562 407.976562 341.851562 C 410.945312 341.851562 412.746094 343.378906 413.734375 345 C 414.996094 346.980469 415.085938 349.140625 415.085938 351.210938 Z M 456.84375 349.949219 C 453.78125 348.871094 451.351562 347.878906 451.351562 345.359375 C 451.351562 344.28125 452.074219 341.308594 457.652344 341.308594 C 463.144531 341.308594 466.652344 343.648438 468.902344 345.089844 L 469.714844 344.820312 L 470.613281 335.011719 L 470.164062 334.46875 C 465.933594 333.300781 462.242188 332.21875 456.394531 332.21875 C 451.984375 332.21875 443.164062 332.578125 438.484375 339.328125 C 437.3125 340.949219 436.054688 343.648438 436.054688 347.25 C 436.054688 356.878906 443.523438 359.761719 447.753906 361.378906 L 451.171875 362.640625 C 453.601562 363.449219 457.5625 364.800781 457.5625 368.039062 C 457.5625 370.289062 455.492188 372.71875 450.453125 372.71875 C 447.933594 372.71875 444.242188 371.910156 440.914062 370.199219 C 439.382812 369.390625 438.664062 368.761719 437.3125 367.679688 L 436.503906 368.039062 C 436.324219 372.71875 436.234375 373.710938 435.871094 378.210938 L 436.324219 379.019531 C 440.734375 380.640625 444.511719 382.078125 451.082031 382.078125 C 457.921875 382.078125 471.421875 380.820312 473.042969 367.949219 C 473.132812 367.230469 473.132812 366.601562 473.132812 365.96875 C 473.132812 356.070312 466.203125 353.460938 461.253906 351.570312 Z M 521.015625 367.679688 C 517.597656 369.480469 513.546875 371.550781 506.976562 371.550781 C 501.578125 371.550781 497.886719 369.839844 495.726562 366.601562 C 494.375 364.710938 494.105469 362.910156 493.746094 361.109375 L 522.816406 360.570312 L 523.355469 359.941406 C 523.265625 355.53125 523.175781 351.03125 521.917969 346.53125 C 518.765625 335.910156 511.835938 333.75 508.777344 333.03125 C 506.527344 332.398438 504.457031 332.21875 502.386719 332.21875 C 488.257812 332.21875 478.894531 341.488281 478.894531 357.058594 C 478.894531 361.289062 479.617188 365.699219 481.054688 368.851562 C 486.277344 381 498.515625 382.078125 504.996094 382.078125 C 512.464844 382.078125 515.707031 380.730469 520.476562 378.839844 L 521.015625 378.121094 L 521.644531 367.949219 L 521.015625 367.679688 M 493.746094 351.570312 C 494.015625 348.78125 494.644531 345 498.066406 342.839844 C 499.144531 342.121094 500.40625 341.851562 501.667969 341.851562 C 504.636719 341.851562 506.4375 343.378906 507.425781 345 C 508.6875 346.980469 508.777344 349.140625 508.777344 351.210938 Z M 557.644531 347.609375 L 560.164062 332.941406 L 559.625 332.308594 C 558.996094 332.308594 558.363281 332.21875 557.734375 332.21875 C 554.042969 332.21875 549.90625 334.289062 547.023438 340.949219 L 547.292969 332.671875 L 546.574219 331.949219 C 539.914062 333.390625 538.203125 333.660156 531.632812 334.648438 L 531.09375 335.191406 C 531.632812 341.941406 531.90625 345.988281 531.90625 358.5 C 531.90625 365.878906 531.8125 373.261719 531.632812 380.730469 L 532.175781 381.269531 C 538.835938 381 540.273438 380.910156 547.472656 381 L 547.925781 380.371094 C 547.5625 373.078125 547.023438 362.910156 547.023438 356.699219 C 547.023438 352.648438 547.023438 346.710938 553.144531 346.710938 C 554.675781 346.710938 555.574219 347.25 556.835938 347.96875 Z M 590.222656 380.28125 C 593.105469 371.28125 594.8125 365.699219 596.703125 360.03125 C 599.132812 352.738281 603.09375 341.039062 605.613281 333.660156 L 605.164062 333.03125 L 592.5625 333.300781 L 591.933594 333.929688 C 590.675781 339.960938 590.40625 341.21875 588.605469 348.238281 L 584.015625 365.96875 L 581.765625 356.25 L 580.054688 349.320312 C 577.804688 340.949219 577.445312 339.238281 576.183594 333.300781 L 575.554688 332.761719 C 568.445312 333.570312 566.644531 333.660156 559.804688 333.75 L 559.445312 334.46875 C 571.414062 369.929688 572.40625 373.261719 574.382812 380.640625 L 575.015625 381.269531 C 580.863281 381 583.203125 380.910156 589.683594 381 Z M 650.34375 367.679688 C 646.925781 369.480469 642.875 371.550781 636.304688 371.550781 C 630.90625 371.550781 627.214844 369.839844 625.054688 366.601562 C 623.703125 364.710938 623.433594 362.910156 623.074219 361.109375 L 652.144531 360.570312 L 652.683594 359.941406 C 652.59375 355.53125 652.503906 351.03125 651.246094 346.53125 C 648.09375 335.910156 641.164062 333.75 638.105469 333.03125 C 635.855469 332.398438 633.785156 332.21875 631.714844 332.21875 C 617.585938 332.21875 608.222656 341.488281 608.222656 357.058594 C 608.222656 361.289062 608.945312 365.699219 610.382812 368.851562 C 615.605469 381 627.84375 382.078125 634.324219 382.078125 C 641.792969 382.078125 645.035156 380.730469 649.804688 378.839844 L 650.34375 378.121094 L 650.972656 367.949219 L 650.34375 367.679688 M 623.074219 351.570312 C 623.34375 348.78125 623.972656 345 627.394531 342.839844 C 628.472656 342.121094 629.734375 341.851562 630.996094 341.851562 C 633.964844 341.851562 635.765625 343.378906 636.753906 345 C 638.015625 346.980469 638.105469 349.140625 638.105469 351.210938 Z M 655.566406 381 "/>
</svg>
