<?xml version="1.0" encoding="UTF-8"?>
<svg xmlns="http://www.w3.org/2000/svg" xmlns:xlink="http://www.w3.org/1999/xlink" width="975" height="1300" viewBox="0 0 975 1300">
<path fill-rule="nonzero" fill="rgb(98.823529%, 78.823529%, 9.019608%)" fill-opacity="1" d="M 50 50 L 925 50 L 925 290 L 50 290 Z M 50 50 "/>
<path fill-rule="nonzero" fill="rgb(34.901961%, 14.901961%, 14.901961%)" fill-opacity="1" d="M 125.914062 102.300781 C 118.355469 99.148438 114.394531 97.53125 114.394531 93.480469 C 114.394531 90.691406 117.003906 87.179688 122.945312 87.179688 C 129.785156 87.179688 133.832031 89.96875 137.164062 92.21875 L 137.972656 91.859375 L 138.695312 80.070312 L 138.242188 79.441406 C 134.375 77.820312 130.324219 76.109375 121.59375 76.109375 C 104.675781 76.109375 98.824219 85.648438 98.824219 95.28125 C 98.824219 106.171875 107.285156 110.128906 112.324219 112.558594 L 115.292969 113.910156 C 121.503906 116.519531 126.273438 118.769531 126.273438 123.539062 C 126.273438 126.960938 123.304688 131.011719 115.472656 131.011719 C 107.285156 131.011719 102.695312 127.410156 100.082031 125.339844 L 99.183594 125.609375 L 98.554688 138.300781 L 99.09375 139.019531 C 100.082031 139.378906 101.074219 139.828125 102.0625 140.101562 C 104.132812 140.820312 109.445312 142.351562 116.195312 142.351562 C 118.894531 142.351562 125.734375 142.078125 131.132812 139.558594 C 138.695312 135.871094 141.933594 129.03125 141.933594 121.378906 C 141.933594 116.25 139.953125 110.761719 135.183594 107.070312 C 132.753906 105.269531 130.414062 104.191406 128.253906 103.199219 Z M 193.683594 92.851562 L 179.011719 93.570312 L 178.382812 94.109375 C 179.011719 104.28125 179.011719 118.679688 179.011719 120.121094 C 179.011719 122.730469 179.011719 124.171875 178.921875 127.769531 C 176.492188 129.390625 174.601562 130.738281 172.171875 130.738281 C 165.691406 130.738281 165.691406 123.898438 165.691406 118.589844 C 165.691406 116.339844 165.691406 114 165.78125 111.75 L 165.960938 93.570312 L 165.332031 92.851562 L 150.480469 93.570312 L 149.851562 94.109375 C 150.390625 101.671875 150.480469 104.191406 150.480469 113.28125 L 150.480469 119.578125 C 150.390625 129.390625 150.84375 133.53125 154.082031 137.308594 C 157.050781 140.640625 161.371094 142.078125 165.871094 142.078125 C 172.261719 142.078125 175.953125 139.199219 179.191406 136.679688 L 179.101562 140.730469 L 179.730469 141.269531 C 186.300781 141 188.28125 141 194.132812 141 L 194.671875 140.460938 C 194.222656 134.070312 194.042969 130.648438 194.042969 118.949219 C 194.042969 110.488281 194.132812 102.03125 194.3125 93.570312 Z M 230.046875 130.648438 C 228.515625 131.101562 227.433594 131.460938 225.90625 131.460938 C 221.316406 131.460938 220.957031 128.578125 220.773438 127.230469 C 220.503906 124.890625 220.503906 119.941406 220.59375 116.339844 L 220.773438 103.648438 L 228.875 104.011719 L 229.414062 103.46875 L 230.316406 93.839844 L 229.773438 93.300781 L 220.773438 93.300781 L 221.046875 78.179688 L 220.414062 77.640625 C 214.296875 79.441406 212.675781 79.890625 206.285156 81.511719 L 205.925781 82.140625 L 206.015625 93.390625 L 201.15625 93.210938 L 200.617188 93.660156 L 199.804688 103.289062 L 200.34375 103.828125 L 206.015625 103.648438 L 205.746094 117.960938 C 205.65625 120.210938 205.566406 122.460938 205.566406 124.800781 C 205.566406 133.078125 205.746094 141.988281 219.785156 141.988281 C 223.296875 141.988281 226.085938 141.449219 229.234375 140.910156 L 229.867188 140.28125 L 230.765625 131.011719 Z M 261.90625 130.648438 C 260.375 131.101562 259.292969 131.460938 257.765625 131.460938 C 253.175781 131.460938 252.816406 128.578125 252.632812 127.230469 C 252.363281 124.890625 252.363281 119.941406 252.453125 116.339844 L 252.632812 103.648438 L 260.734375 104.011719 L 261.273438 103.46875 L 262.175781 93.839844 L 261.632812 93.300781 L 252.632812 93.300781 L 252.90625 78.179688 L 252.273438 77.640625 C 246.15625 79.441406 244.535156 79.890625 238.144531 81.511719 L 237.785156 82.140625 L 237.875 93.390625 L 233.015625 93.210938 L 232.476562 93.660156 L 231.664062 103.289062 L 232.203125 103.828125 L 237.875 103.648438 L 237.605469 117.960938 C 237.515625 120.210938 237.425781 122.460938 237.425781 124.800781 C 237.425781 133.078125 237.605469 141.988281 251.644531 141.988281 C 255.15625 141.988281 257.945312 141.449219 261.09375 140.910156 L 261.726562 140.28125 L 262.625 131.011719 Z M 308.523438 127.679688 C 305.105469 129.480469 301.054688 131.550781 294.484375 131.550781 C 289.085938 131.550781 285.394531 129.839844 283.234375 126.601562 C 281.882812 124.710938 281.613281 122.910156 281.253906 121.109375 L 310.324219 120.570312 L 310.863281 119.941406 C 310.773438 115.53125 310.683594 111.03125 309.425781 106.53125 C 306.273438 95.910156 299.34375 93.75 296.285156 93.03125 C 294.035156 92.398438 291.964844 92.21875 289.894531 92.21875 C 275.765625 92.21875 266.402344 101.488281 266.402344 117.058594 C 266.402344 121.289062 267.125 125.699219 268.5625 128.851562 C 273.785156 141 286.023438 142.078125 292.503906 142.078125 C 299.972656 142.078125 303.214844 140.730469 307.984375 138.839844 L 308.523438 138.121094 L 309.152344 127.949219 L 308.523438 127.679688 M 281.253906 111.570312 C 281.523438 108.78125 282.152344 105 285.574219 102.839844 C 286.652344 102.121094 287.914062 101.851562 289.175781 101.851562 C 292.144531 101.851562 293.945312 103.378906 294.933594 105 C 296.195312 106.980469 296.285156 109.140625 296.285156 111.210938 Z M 345.152344 107.609375 L 347.671875 92.941406 L 347.132812 92.308594 C 346.503906 92.308594 345.871094 92.21875 345.242188 92.21875 C 341.550781 92.21875 337.414062 94.289062 334.53125 100.949219 L 334.800781 92.671875 L 334.082031 91.949219 C 327.421875 93.390625 325.710938 93.660156 319.140625 94.648438 L 318.601562 95.191406 C 319.140625 101.941406 319.414062 105.988281 319.414062 118.5 C 319.414062 125.878906 319.320312 133.261719 319.140625 140.730469 L 319.683594 141.269531 C 326.34375 141 327.78125 140.910156 334.980469 141 L 335.433594 140.371094 C 335.070312 133.078125 334.53125 122.910156 334.53125 116.699219 C 334.53125 112.648438 334.53125 106.710938 340.652344 106.710938 C 342.183594 106.710938 343.082031 107.25 344.34375 107.96875 Z M 395.914062 141 C 404.285156 141.179688 414.632812 141.359375 421.382812 136.679688 C 427.324219 132.449219 428.945312 126.511719 428.945312 121.46875 C 428.945312 115.710938 426.511719 110.398438 421.382812 107.878906 C 419.671875 106.980469 417.695312 106.621094 415.804688 106.261719 C 418.863281 105 422.464844 103.378906 424.804688 98.609375 C 425.792969 96.539062 426.242188 94.378906 426.242188 92.308594 C 426.242188 89.429688 425.523438 85.46875 422.644531 82.230469 C 418.863281 78.179688 413.011719 77.101562 404.195312 77.101562 C 401.132812 77.101562 395.644531 77.191406 392.582031 77.28125 L 379.984375 77.460938 L 379.445312 78 C 379.804688 86.640625 379.894531 89.96875 379.894531 102.390625 C 379.894531 115.171875 379.804688 127.859375 379.625 140.640625 L 380.253906 141 L 395.914062 141 M 395.285156 113.640625 C 402.125 113.460938 406.082031 113.460938 408.695312 114.988281 C 411.304688 116.609375 412.292969 119.488281 412.292969 122.371094 C 412.292969 126.421875 410.042969 128.941406 406.714844 130.109375 C 404.011719 131.011719 399.152344 131.011719 395.285156 130.921875 L 395.285156 113.640625 M 395.285156 87.179688 C 397.171875 87.179688 399.695312 87.089844 401.222656 87.089844 C 406.082031 87.089844 410.492188 88.800781 410.492188 94.648438 C 410.492188 99.421875 406.984375 101.398438 405.902344 101.941406 C 403.652344 102.929688 398.882812 102.929688 395.285156 102.929688 Z M 480.515625 92.851562 L 465.84375 93.570312 L 465.214844 94.109375 C 465.84375 104.28125 465.84375 118.679688 465.84375 120.121094 C 465.84375 122.730469 465.84375 124.171875 465.753906 127.769531 C 463.324219 129.390625 461.433594 130.738281 459.003906 130.738281 C 452.523438 130.738281 452.523438 123.898438 452.523438 118.589844 C 452.523438 116.339844 452.523438 114 452.613281 111.75 L 452.792969 93.570312 L 452.164062 92.851562 L 437.3125 93.570312 L 436.683594 94.109375 C 437.222656 101.671875 437.3125 104.191406 437.3125 113.28125 L 437.3125 119.578125 C 437.222656 129.390625 437.675781 133.53125 440.914062 137.308594 C 443.882812 140.640625 448.203125 142.078125 452.703125 142.078125 C 459.09375 142.078125 462.785156 139.199219 466.023438 136.679688 L 465.933594 140.730469 L 466.5625 141.269531 C 473.132812 141 475.113281 141 480.964844 141 L 481.503906 140.460938 C 481.054688 134.070312 480.875 130.648438 480.875 118.949219 C 480.875 110.488281 480.964844 102.03125 481.144531 93.570312 Z M 516.875 130.648438 C 515.34375 131.101562 514.261719 131.460938 512.734375 131.460938 C 508.144531 131.460938 507.785156 128.578125 507.601562 127.230469 C 507.332031 124.890625 507.332031 119.941406 507.421875 116.339844 L 507.601562 103.648438 L 515.703125 104.011719 L 516.242188 103.46875 L 517.144531 93.839844 L 516.601562 93.300781 L 507.601562 93.300781 L 507.875 78.179688 L 507.242188 77.640625 C 501.125 79.441406 499.503906 79.890625 493.113281 81.511719 L 492.753906 82.140625 L 492.84375 93.390625 L 487.984375 93.210938 L 487.445312 93.660156 L 486.632812 103.289062 L 487.171875 103.828125 L 492.84375 103.648438 L 492.574219 117.960938 C 492.484375 120.210938 492.394531 122.460938 492.394531 124.800781 C 492.394531 133.078125 492.574219 141.988281 506.613281 141.988281 C 510.125 141.988281 512.914062 141.449219 516.0625 140.910156 L 516.695312 140.28125 L 517.59375 131.011719 Z M 548.734375 130.648438 C 547.203125 131.101562 546.121094 131.460938 544.59375 131.460938 C 540.003906 131.460938 539.644531 128.578125 539.460938 127.230469 C 539.191406 124.890625 539.191406 119.941406 539.28125 116.339844 L 539.460938 103.648438 L 547.5625 104.011719 L 548.101562 103.46875 L 549.003906 93.839844 L 548.460938 93.300781 L 539.460938 93.300781 L 539.734375 78.179688 L 539.101562 77.640625 C 532.984375 79.441406 531.363281 79.890625 524.972656 81.511719 L 524.613281 82.140625 L 524.703125 93.390625 L 519.84375 93.210938 L 519.304688 93.660156 L 518.492188 103.289062 L 519.03125 103.828125 L 524.703125 103.648438 L 524.433594 117.960938 C 524.34375 120.210938 524.253906 122.460938 524.253906 124.800781 C 524.253906 133.078125 524.433594 141.988281 538.472656 141.988281 C 541.984375 141.988281 544.773438 141.449219 547.921875 140.910156 L 548.554688 140.28125 L 549.453125 131.011719 Z M 595.351562 127.679688 C 591.933594 129.480469 587.882812 131.550781 581.3125 131.550781 C 575.914062 131.550781 572.222656 129.839844 570.0625 126.601562 C 568.710938 124.710938 568.441406 122.910156 568.082031 121.109375 L 597.152344 120.570312 L 597.691406 119.941406 C 597.601562 115.53125 597.511719 111.03125 596.253906 106.53125 C 593.101562 95.910156 586.171875 93.75 583.113281 93.03125 C 580.863281 92.398438 578.792969 92.21875 576.722656 92.21875 C 562.59375 92.21875 553.230469 101.488281 553.230469 117.058594 C 553.230469 121.289062 553.953125 125.699219 555.390625 128.851562 C 560.613281 141 572.851562 142.078125 579.332031 142.078125 C 586.800781 142.078125 590.042969 140.730469 594.8125 138.839844 L 595.351562 138.121094 L 595.980469 127.949219 L 595.351562 127.679688 M 568.082031 111.570312 C 568.351562 108.78125 568.980469 105 572.402344 102.839844 C 573.480469 102.121094 574.742188 101.851562 576.003906 101.851562 C 578.972656 101.851562 580.773438 103.378906 581.761719 105 C 583.023438 106.980469 583.113281 109.140625 583.113281 111.210938 Z M 624.875 109.949219 C 621.8125 108.871094 619.382812 107.878906 619.382812 105.359375 C 619.382812 104.28125 620.105469 101.308594 625.683594 101.308594 C 631.175781 101.308594 634.683594 103.648438 636.933594 105.089844 L 637.746094 104.820312 L 638.644531 95.011719 L 638.195312 94.46875 C 633.964844 93.300781 630.273438 92.21875 624.425781 92.21875 C 620.015625 92.21875 611.195312 92.578125 606.515625 99.328125 C 605.34375 100.949219 604.085938 103.648438 604.085938 107.25 C 604.085938 116.878906 611.554688 119.761719 615.785156 121.378906 L 619.203125 122.640625 C 621.632812 123.449219 625.59375 124.800781 625.59375 128.039062 C 625.59375 130.289062 623.523438 132.71875 618.484375 132.71875 C 615.964844 132.71875 612.273438 131.910156 608.945312 130.199219 C 607.414062 129.390625 606.695312 128.761719 605.34375 127.679688 L 604.535156 128.039062 C 604.355469 132.71875 604.265625 133.710938 603.902344 138.210938 L 604.355469 139.019531 C 608.765625 140.640625 612.542969 142.078125 619.113281 142.078125 C 625.953125 142.078125 639.453125 140.820312 641.074219 127.949219 C 641.164062 127.230469 641.164062 126.601562 641.164062 125.96875 C 641.164062 116.070312 634.234375 113.460938 629.285156 111.570312 Z M 701.375 102.300781 C 693.816406 99.148438 689.855469 97.53125 689.855469 93.480469 C 689.855469 90.691406 692.464844 87.179688 698.40625 87.179688 C 705.246094 87.179688 709.292969 89.96875 712.625 92.21875 L 713.433594 91.859375 L 714.15625 80.070312 L 713.703125 79.441406 C 709.835938 77.820312 705.785156 76.109375 697.054688 76.109375 C 680.136719 76.109375 674.285156 85.648438 674.285156 95.28125 C 674.285156 106.171875 682.746094 110.128906 687.785156 112.558594 L 690.753906 113.910156 C 696.964844 116.519531 701.734375 118.769531 701.734375 123.539062 C 701.734375 126.960938 698.765625 131.011719 690.933594 131.011719 C 682.746094 131.011719 678.15625 127.410156 675.542969 125.339844 L 674.644531 125.609375 L 674.015625 138.300781 L 674.554688 139.019531 C 675.542969 139.378906 676.535156 139.828125 677.523438 140.101562 C 679.59375 140.820312 684.90625 142.351562 691.65625 142.351562 C 694.355469 142.351562 701.195312 142.078125 706.59375 139.558594 C 714.15625 135.871094 717.394531 129.03125 717.394531 121.378906 C 717.394531 116.25 715.414062 110.761719 710.644531 107.070312 C 708.214844 105.269531 705.875 104.191406 703.714844 103.199219 Z M 751.144531 130.648438 C 749.613281 131.101562 748.53125 131.460938 747.003906 131.460938 C 742.414062 131.460938 742.054688 128.578125 741.871094 127.230469 C 741.601562 124.890625 741.601562 119.941406 741.691406 116.339844 L 741.871094 103.648438 L 749.972656 104.011719 L 750.511719 103.46875 L 751.414062 93.839844 L 750.871094 93.300781 L 741.871094 93.300781 L 742.144531 78.179688 L 741.511719 77.640625 C 735.394531 79.441406 733.773438 79.890625 727.382812 81.511719 L 727.023438 82.140625 L 727.113281 93.390625 L 722.253906 93.210938 L 721.714844 93.660156 L 720.902344 103.289062 L 721.441406 103.828125 L 727.113281 103.648438 L 726.84375 117.960938 C 726.753906 120.210938 726.664062 122.460938 726.664062 124.800781 C 726.664062 133.078125 726.84375 141.988281 740.882812 141.988281 C 744.394531 141.988281 747.183594 141.449219 750.332031 140.910156 L 750.964844 140.28125 L 751.863281 131.011719 Z M 797.851562 114.179688 C 797.941406 106.078125 797.941406 102.570312 795.601562 98.789062 C 793.800781 95.910156 790.203125 92.308594 778.683594 92.308594 C 770.941406 92.308594 766.171875 93.75 761.042969 95.28125 L 760.503906 96 L 760.050781 105.808594 L 760.773438 106.171875 C 763.921875 104.910156 769.773438 102.570312 775.800781 102.570312 C 779.132812 102.570312 780.480469 103.109375 781.652344 104.28125 C 782.550781 105.179688 782.824219 106.800781 782.824219 108.148438 C 772.023438 109.589844 766.980469 110.578125 761.582031 113.910156 C 756.542969 117.058594 754.832031 122.191406 754.832031 126.238281 C 754.832031 135.871094 761.761719 142.078125 770.582031 142.078125 C 777.332031 142.078125 781.203125 138.839844 783.09375 137.308594 L 783.09375 140.640625 L 783.632812 141.269531 C 790.113281 141 792.09375 140.910156 797.941406 141 L 798.390625 140.371094 C 797.761719 131.550781 797.761719 129.300781 797.761719 120.839844 L 797.851562 114.179688 M 783.003906 128.488281 C 781.113281 129.570312 778.683594 130.828125 775.710938 130.828125 C 772.472656 130.828125 769.773438 129.121094 769.773438 125.339844 C 769.773438 119.398438 776.882812 118.410156 783.003906 117.601562 Z M 833.585938 130.648438 C 832.054688 131.101562 830.972656 131.460938 829.445312 131.460938 C 824.855469 131.460938 824.496094 128.578125 824.3125 127.230469 C 824.042969 124.890625 824.042969 119.941406 824.132812 116.339844 L 824.3125 103.648438 L 832.414062 104.011719 L 832.953125 103.46875 L 833.855469 93.839844 L 833.3125 93.300781 L 824.3125 93.300781 L 824.585938 78.179688 L 823.953125 77.640625 C 817.835938 79.441406 816.214844 79.890625 809.824219 81.511719 L 809.464844 82.140625 L 809.554688 93.390625 L 804.695312 93.210938 L 804.15625 93.660156 L 803.34375 103.289062 L 803.882812 103.828125 L 809.554688 103.648438 L 809.285156 117.960938 C 809.195312 120.210938 809.105469 122.460938 809.105469 124.800781 C 809.105469 133.078125 809.285156 141.988281 823.324219 141.988281 C 826.835938 141.988281 829.625 141.449219 832.773438 140.910156 L 833.40625 140.28125 L 834.304688 131.011719 Z M 880.203125 127.679688 C 876.785156 129.480469 872.734375 131.550781 866.164062 131.550781 C 860.765625 131.550781 857.074219 129.839844 854.914062 126.601562 C 853.5625 124.710938 853.292969 122.910156 852.933594 121.109375 L 882.003906 120.570312 L 882.542969 119.941406 C 882.453125 115.53125 882.363281 111.03125 881.105469 106.53125 C 877.953125 95.910156 871.023438 93.75 867.964844 93.03125 C 865.714844 92.398438 863.644531 92.21875 861.574219 92.21875 C 847.445312 92.21875 838.082031 101.488281 838.082031 117.058594 C 838.082031 121.289062 838.804688 125.699219 840.242188 128.851562 C 845.464844 141 857.703125 142.078125 864.183594 142.078125 C 871.652344 142.078125 874.894531 140.730469 879.664062 138.839844 L 880.203125 138.121094 L 880.832031 127.949219 L 880.203125 127.679688 M 852.933594 111.570312 C 853.203125 108.78125 853.832031 105 857.253906 102.839844 C 858.332031 102.121094 859.59375 101.851562 860.855469 101.851562 C 863.824219 101.851562 865.625 103.378906 866.613281 105 C 867.875 106.980469 867.964844 109.140625 867.964844 111.210938 Z M 885.425781 141 "/>
<path fill-rule="nonzero" fill="rgb(34.901961%, 14.901961%, 14.901961%)" fill-opacity="1" d="M 411.53125 197.28125 L 400.101562 197.460938 L 399.558594 198 C 399.921875 209.699219 400.191406 217.53125 400.191406 227.878906 C 400.191406 238.859375 399.921875 249.75 399.648438 260.730469 L 400.191406 261.269531 C 406.851562 261 408.289062 260.910156 415.492188 261 L 415.941406 260.460938 C 415.582031 250.648438 415.582031 248.398438 415.582031 239.21875 C 425.660156 239.308594 436.460938 239.308594 442.941406 231.390625 C 445.460938 228.328125 447.621094 223.199219 447.621094 216.898438 C 447.621094 213.03125 446.71875 204.480469 439.25 200.25 C 433.851562 197.101562 426.199219 197.101562 419.449219 197.101562 L 411.53125 197.28125 M 415.582031 208.171875 C 417.558594 208.078125 419.449219 208.078125 421.429688 208.078125 C 429.351562 208.261719 431.511719 212.308594 431.511719 217.53125 C 431.511719 218.789062 431.511719 224.011719 426.742188 226.621094 C 424.308594 227.96875 420.980469 228.148438 415.582031 228.148438 Z M 493.878906 234.179688 C 493.96875 226.078125 493.96875 222.570312 491.628906 218.789062 C 489.828125 215.910156 486.230469 212.308594 474.710938 212.308594 C 466.96875 212.308594 462.199219 213.75 457.070312 215.28125 L 456.53125 216 L 456.078125 225.808594 L 456.800781 226.171875 C 459.949219 224.910156 465.800781 222.570312 471.828125 222.570312 C 475.160156 222.570312 476.507812 223.109375 477.679688 224.28125 C 478.578125 225.179688 478.851562 226.800781 478.851562 228.148438 C 468.050781 229.589844 463.007812 230.578125 457.609375 233.910156 C 452.570312 237.058594 450.859375 242.191406 450.859375 246.238281 C 450.859375 255.871094 457.789062 262.078125 466.609375 262.078125 C 473.359375 262.078125 477.230469 258.839844 479.121094 257.308594 L 479.121094 260.640625 L 479.660156 261.269531 C 486.140625 261 488.121094 260.910156 493.96875 261 L 494.417969 260.371094 C 493.789062 251.550781 493.789062 249.300781 493.789062 240.839844 L 493.878906 234.179688 M 479.03125 248.488281 C 477.140625 249.570312 474.710938 250.828125 471.738281 250.828125 C 468.5 250.828125 465.800781 249.121094 465.800781 245.339844 C 465.800781 239.398438 472.910156 238.410156 479.03125 237.601562 Z M 530.421875 227.609375 L 532.941406 212.941406 L 532.402344 212.308594 C 531.773438 212.308594 531.140625 212.21875 530.511719 212.21875 C 526.820312 212.21875 522.683594 214.289062 519.800781 220.949219 L 520.070312 212.671875 L 519.351562 211.949219 C 512.691406 213.390625 510.980469 213.660156 504.410156 214.648438 L 503.871094 215.191406 C 504.410156 221.941406 504.683594 225.988281 504.683594 238.5 C 504.683594 245.878906 504.589844 253.261719 504.410156 260.730469 L 504.953125 261.269531 C 511.613281 261 513.050781 260.910156 520.25 261 L 520.703125 260.371094 C 520.339844 253.078125 519.800781 242.910156 519.800781 236.699219 C 519.800781 232.648438 519.800781 226.710938 525.921875 226.710938 C 527.453125 226.710938 528.351562 227.25 529.613281 227.96875 Z M 584.421875 259.828125 C 575.960938 245.519531 575.0625 243.898438 568.222656 231.570312 C 574.433594 223.109375 575.0625 222.210938 581.453125 214.019531 L 581 213.121094 L 566.332031 213.300781 L 565.433594 213.929688 C 558.410156 226.078125 557.511719 227.519531 553.371094 233.730469 L 553.371094 223.738281 C 553.460938 206.910156 553.550781 203.308594 554 189.71875 L 553.28125 189.179688 L 537.621094 191.519531 L 537.082031 192.148438 C 537.710938 200.878906 537.980469 205.109375 538.160156 216.898438 C 538.339844 231.480469 538.339844 246.058594 538.25 260.640625 L 538.882812 261.269531 C 544.910156 261 546.621094 261 553.460938 261 L 554 260.371094 L 553.460938 245.160156 L 553.371094 234.808594 C 561.203125 249.210938 562.191406 251.191406 566.78125 260.730469 L 567.589844 261.269531 L 583.792969 260.640625 Z M 583.339844 261 "/>
</svg>
