<?xml version="1.0" encoding="UTF-8"?>
<svg xmlns="http://www.w3.org/2000/svg" xmlns:xlink="http://www.w3.org/1999/xlink" width="975" height="1300" viewBox="0 0 975 1300">
<path fill-rule="nonzero" fill="rgb(98.823529%, 78.823529%, 9.019608%)" fill-opacity="1" d="M 50 50 L 925 50 L 925 290 L 50 290 Z M 50 50 "/>
<path fill-rule="nonzero" fill="rgb(34.901961%, 14.901961%, 14.901961%)" fill-opacity="1" d="M 119.480469 77.191406 C 112.28125 77.460938 111.113281 77.460938 103.550781 77.460938 L 103.101562 78 C 103.730469 88.171875 103.730469 90.78125 103.820312 101.398438 C 99.863281 101.488281 95.902344 101.578125 91.851562 101.578125 C 88.703125 101.578125 85.460938 101.488281 82.3125 101.488281 L 82.492188 77.730469 L 82.042969 77.191406 C 75.113281 77.460938 73.761719 77.460938 65.933594 77.460938 L 65.390625 78 C 65.84375 87.269531 66.382812 98.339844 66.382812 120.660156 C 66.382812 128.761719 66.203125 133.171875 66.023438 140.730469 L 66.472656 141.269531 C 73.042969 141 74.660156 140.910156 82.582031 141 L 83.03125 140.460938 C 82.492188 129.300781 82.402344 126.058594 82.3125 113.011719 C 86.273438 112.828125 89.601562 112.738281 93.113281 112.738281 C 96.710938 112.738281 100.3125 112.828125 103.910156 112.921875 C 104.09375 125.070312 104.09375 128.039062 103.640625 140.730469 L 104.09375 141.269531 C 110.84375 141 112.640625 140.910156 120.292969 141 L 120.742188 140.460938 C 120.023438 125.339844 119.75 110.308594 119.75 95.191406 C 119.75 88.890625 119.84375 84.660156 119.933594 77.730469 Z M 171.230469 114.179688 C 171.320312 106.078125 171.320312 102.570312 168.980469 98.789062 C 167.179688 95.910156 163.582031 92.308594 152.0625 92.308594 C 144.320312 92.308594 139.550781 93.75 134.421875 95.28125 L 133.882812 96 L 133.429688 105.808594 L 134.152344 106.171875 C 137.300781 104.910156 143.152344 102.570312 149.179688 102.570312 C 152.511719 102.570312 153.859375 103.109375 155.03125 104.28125 C 155.929688 105.179688 156.203125 106.800781 156.203125 108.148438 C 145.402344 109.589844 140.359375 110.578125 134.960938 113.910156 C 129.921875 117.058594 128.210938 122.191406 128.210938 126.238281 C 128.210938 135.871094 135.140625 142.078125 143.960938 142.078125 C 150.710938 142.078125 154.582031 138.839844 156.472656 137.308594 L 156.472656 140.640625 L 157.011719 141.269531 C 163.492188 141 165.472656 140.910156 171.320312 141 L 171.769531 140.371094 C 171.140625 131.550781 171.140625 129.300781 171.140625 120.839844 L 171.230469 114.179688 M 156.382812 128.488281 C 154.492188 129.570312 152.0625 130.828125 149.089844 130.828125 C 145.851562 130.828125 143.152344 129.121094 143.152344 125.339844 C 143.152344 119.398438 150.261719 118.410156 156.382812 117.601562 Z M 207.773438 107.609375 L 210.292969 92.941406 L 209.753906 92.308594 C 209.125 92.308594 208.492188 92.21875 207.863281 92.21875 C 204.171875 92.21875 200.035156 94.289062 197.152344 100.949219 L 197.421875 92.671875 L 196.703125 91.949219 C 190.042969 93.390625 188.332031 93.660156 181.761719 94.648438 L 181.222656 95.191406 C 181.761719 101.941406 182.035156 105.988281 182.035156 118.5 C 182.035156 125.878906 181.941406 133.261719 181.761719 140.730469 L 182.304688 141.269531 C 188.964844 141 190.402344 140.910156 197.601562 141 L 198.054688 140.371094 C 197.691406 133.078125 197.152344 122.910156 197.152344 116.699219 C 197.152344 112.648438 197.152344 106.710938 203.273438 106.710938 C 204.804688 106.710938 205.703125 107.25 206.964844 107.96875 Z M 285.804688 140.371094 C 285.351562 132 285.261719 129.660156 285.261719 119.488281 L 285.261719 112.738281 C 285.351562 106.710938 285.441406 101.128906 282.832031 97.351562 C 279.324219 92.21875 273.113281 92.21875 271.671875 92.21875 C 264.292969 92.21875 259.34375 95.550781 255.742188 98.070312 C 254.484375 96 252.234375 92.21875 245.035156 92.21875 C 239.09375 92.21875 235.222656 94.921875 231.082031 97.800781 L 231.082031 92.761719 L 230.273438 91.949219 C 223.253906 93.300781 221.273438 93.660156 214.972656 94.558594 L 214.433594 95.191406 C 215.152344 102.390625 215.691406 107.339844 215.691406 125.160156 C 215.691406 130.289062 215.601562 135.511719 215.601562 140.640625 L 216.054688 141.179688 C 221.8125 141 223.792969 140.910156 231.261719 140.910156 L 231.804688 140.371094 C 231.171875 126.511719 231.082031 122.371094 230.992188 106.710938 C 232.882812 105.359375 234.953125 104.191406 237.203125 104.191406 C 242.785156 104.191406 242.964844 110.578125 242.964844 118.320312 C 242.964844 131.371094 242.875 133.351562 242.691406 140.640625 L 243.234375 141.269531 C 250.074219 140.910156 251.964844 140.910156 258.171875 140.910156 L 258.714844 140.371094 C 258.171875 131.820312 258.082031 129.300781 257.992188 118.410156 L 257.992188 115.078125 L 257.902344 105.988281 C 259.433594 105 261.414062 103.738281 264.113281 103.738281 C 269.242188 103.738281 270.054688 108.601562 270.054688 116.339844 C 270.054688 118.050781 269.964844 119.761719 269.964844 121.46875 C 269.875 124.53125 269.785156 137.941406 269.691406 140.640625 L 270.234375 141.179688 C 276.984375 140.910156 278.964844 140.910156 285.261719 140.910156 Z M 341.960938 117.058594 C 341.960938 113.550781 341.960938 98.96875 329.359375 94.019531 C 325.398438 92.488281 320.71875 92.308594 318.378906 92.308594 C 302.71875 92.308594 293.898438 100.679688 293.898438 117.238281 C 293.898438 123 294.800781 128.851562 298.128906 133.710938 C 300.46875 137.21875 304.878906 142.078125 317.75 142.078125 C 336.828125 142.078125 341.960938 130.558594 341.960938 117.058594 M 326.390625 116.96875 C 326.390625 124.351562 325.398438 132.539062 317.929688 132.539062 C 315.589844 132.539062 313.96875 131.460938 312.890625 130.46875 C 311.359375 128.941406 309.648438 125.878906 309.648438 117.148438 C 309.648438 114.539062 309.648438 108.78125 311.449219 105.628906 C 312.800781 103.199219 315.140625 101.578125 318.019531 101.578125 C 320.539062 101.578125 322.609375 102.929688 323.78125 104.371094 C 325.941406 106.980469 326.390625 112.109375 326.390625 116.96875 Z M 394.613281 140.371094 C 394.164062 132.449219 394.164062 129.929688 393.984375 121.109375 L 393.984375 114.089844 C 393.894531 105.449219 393.804688 101.308594 391.554688 97.621094 C 388.761719 92.941406 383.632812 92.21875 380.394531 92.21875 C 374.902344 92.21875 370.132812 95.101562 365.992188 97.53125 L 366.171875 92.578125 L 365.273438 91.949219 C 358.34375 93.390625 356.8125 93.660156 350.0625 94.558594 L 349.523438 95.191406 C 350.242188 103.019531 350.785156 108.691406 350.785156 123.359375 C 350.785156 129.121094 350.691406 134.878906 350.601562 140.640625 L 351.144531 141.179688 C 357.625 140.910156 358.972656 140.910156 366.171875 140.910156 L 366.714844 140.371094 C 366.171875 126.511719 366.082031 123 365.992188 106.890625 C 367.882812 105.628906 370.042969 104.101562 372.921875 104.101562 C 377.875 104.101562 378.324219 109.410156 378.59375 112.648438 C 378.773438 115.621094 378.863281 127.949219 378.863281 131.371094 C 378.863281 134.429688 378.773438 137.578125 378.773438 140.640625 L 379.3125 141.179688 C 385.253906 141 386.785156 140.910156 393.984375 140.910156 Z M 445.101562 93.03125 L 432.59375 93.300781 L 431.871094 93.929688 C 430.34375 100.140625 429.984375 101.488281 427.824219 108.511719 L 425.484375 116.25 L 423.503906 123 L 421.792969 116.609375 L 419.183594 107.070312 L 415.582031 93.390625 L 414.863281 92.851562 C 407.84375 93.390625 406.3125 93.480469 398.933594 93.660156 L 398.484375 94.289062 C 401.722656 102.839844 410.09375 125.429688 415.671875 142.710938 C 411.984375 152.070312 411.261719 153.691406 407.210938 162.601562 L 407.664062 163.320312 C 409.914062 163.230469 412.433594 163.140625 414.773438 163.140625 C 417.023438 163.140625 419.363281 163.230469 421.613281 163.230469 L 422.242188 162.691406 C 427.191406 143.25 429.621094 135.691406 441.503906 104.371094 C 442.851562 100.769531 444.203125 97.261719 445.460938 93.75 Z M 530.058594 77.191406 C 522.859375 77.460938 521.691406 77.460938 514.128906 77.460938 L 513.679688 78 C 514.308594 88.171875 514.308594 90.78125 514.398438 101.398438 C 510.441406 101.488281 506.480469 101.578125 502.429688 101.578125 C 499.28125 101.578125 496.039062 101.488281 492.890625 101.488281 L 493.070312 77.730469 L 492.621094 77.191406 C 485.691406 77.460938 484.339844 77.460938 476.511719 77.460938 L 475.96875 78 C 476.421875 87.269531 476.960938 98.339844 476.960938 120.660156 C 476.960938 128.761719 476.78125 133.171875 476.601562 140.730469 L 477.050781 141.269531 C 483.621094 141 485.238281 140.910156 493.160156 141 L 493.609375 140.460938 C 493.070312 129.300781 492.980469 126.058594 492.890625 113.011719 C 496.851562 112.828125 500.179688 112.738281 503.691406 112.738281 C 507.289062 112.738281 510.890625 112.828125 514.488281 112.921875 C 514.671875 125.070312 514.671875 128.039062 514.21875 140.730469 L 514.671875 141.269531 C 521.421875 141 523.21875 140.910156 530.871094 141 L 531.320312 140.460938 C 530.601562 125.339844 530.328125 110.308594 530.328125 95.191406 C 530.328125 88.890625 530.421875 84.660156 530.511719 77.730469 Z M 581.722656 127.679688 C 578.304688 129.480469 574.253906 131.550781 567.683594 131.550781 C 562.285156 131.550781 558.59375 129.839844 556.433594 126.601562 C 555.082031 124.710938 554.8125 122.910156 554.453125 121.109375 L 583.523438 120.570312 L 584.0625 119.941406 C 583.972656 115.53125 583.882812 111.03125 582.625 106.53125 C 579.472656 95.910156 572.542969 93.75 569.484375 93.03125 C 567.234375 92.398438 565.164062 92.21875 563.09375 92.21875 C 548.964844 92.21875 539.601562 101.488281 539.601562 117.058594 C 539.601562 121.289062 540.324219 125.699219 541.761719 128.851562 C 546.984375 141 559.222656 142.078125 565.703125 142.078125 C 573.171875 142.078125 576.414062 140.730469 581.183594 138.839844 L 581.722656 138.121094 L 582.351562 127.949219 L 581.722656 127.679688 M 554.453125 111.570312 C 554.722656 108.78125 555.351562 105 558.773438 102.839844 C 559.851562 102.121094 561.113281 101.851562 562.375 101.851562 C 565.34375 101.851562 567.144531 103.378906 568.132812 105 C 569.394531 106.980469 569.484375 109.140625 569.484375 111.210938 Z M 632.390625 114.179688 C 632.480469 106.078125 632.480469 102.570312 630.140625 98.789062 C 628.339844 95.910156 624.742188 92.308594 613.222656 92.308594 C 605.480469 92.308594 600.710938 93.75 595.582031 95.28125 L 595.042969 96 L 594.589844 105.808594 L 595.3125 106.171875 C 598.460938 104.910156 604.3125 102.570312 610.339844 102.570312 C 613.671875 102.570312 615.019531 103.109375 616.191406 104.28125 C 617.089844 105.179688 617.363281 106.800781 617.363281 108.148438 C 606.5625 109.589844 601.519531 110.578125 596.121094 113.910156 C 591.082031 117.058594 589.371094 122.191406 589.371094 126.238281 C 589.371094 135.871094 596.300781 142.078125 605.121094 142.078125 C 611.871094 142.078125 615.742188 138.839844 617.632812 137.308594 L 617.632812 140.640625 L 618.171875 141.269531 C 624.652344 141 626.632812 140.910156 632.480469 141 L 632.929688 140.371094 C 632.300781 131.550781 632.300781 129.300781 632.300781 120.839844 L 632.390625 114.179688 M 617.542969 128.488281 C 615.652344 129.570312 613.222656 130.828125 610.25 130.828125 C 607.011719 130.828125 604.3125 129.121094 604.3125 125.339844 C 604.3125 119.398438 611.421875 118.410156 617.542969 117.601562 Z M 687.023438 140.460938 C 686.664062 132.359375 686.394531 126.960938 686.394531 115.171875 C 686.394531 91.410156 686.753906 81.601562 687.113281 69.71875 L 686.484375 69.179688 L 671.632812 71.519531 L 671.183594 72.058594 C 671.722656 80.519531 671.8125 82.769531 671.722656 93.03125 C 664.972656 92.851562 656.511719 92.671875 649.671875 98.070312 C 643.375 102.929688 640.761719 110.398438 640.761719 119.671875 C 640.761719 126.691406 642.652344 133.710938 647.964844 138.121094 C 651.921875 141.359375 656.785156 142.078125 659.753906 142.078125 C 666.144531 142.078125 669.472656 139.109375 671.632812 137.21875 L 671.453125 140.730469 L 671.902344 141.269531 C 678.113281 141 679.824219 141 686.574219 141 L 687.023438 140.460938 M 671.722656 103.828125 C 671.8125 115.800781 671.722656 118.140625 671.453125 129.03125 C 669.652344 130.109375 667.851562 131.191406 665.332031 131.191406 C 656.601562 131.191406 656.601562 120.03125 656.601562 118.230469 C 656.601562 111.300781 658.582031 103.558594 668.664062 103.558594 C 669.652344 103.558594 670.464844 103.648438 671.722656 103.828125 Z M 713.121094 140.371094 C 712.671875 130.019531 712.222656 120.570312 712.222656 92.128906 C 712.222656 83.578125 712.3125 79.53125 712.671875 69.808594 L 712.042969 69.179688 L 696.652344 71.609375 L 696.292969 72.148438 C 697.191406 83.128906 697.28125 86.101562 697.460938 100.679688 C 697.554688 105.988281 697.554688 111.300781 697.554688 116.609375 C 697.554688 126.328125 697.371094 131.730469 697.011719 140.640625 L 697.554688 141.269531 C 703.582031 141 706.011719 140.910156 712.582031 141 Z M 763.609375 114.179688 C 763.699219 106.078125 763.699219 102.570312 761.359375 98.789062 C 759.558594 95.910156 755.960938 92.308594 744.441406 92.308594 C 736.699219 92.308594 731.929688 93.75 726.800781 95.28125 L 726.261719 96 L 725.808594 105.808594 L 726.53125 106.171875 C 729.679688 104.910156 735.53125 102.570312 741.558594 102.570312 C 744.890625 102.570312 746.238281 103.109375 747.410156 104.28125 C 748.308594 105.179688 748.582031 106.800781 748.582031 108.148438 C 737.78125 109.589844 732.738281 110.578125 727.339844 113.910156 C 722.300781 117.058594 720.589844 122.191406 720.589844 126.238281 C 720.589844 135.871094 727.519531 142.078125 736.339844 142.078125 C 743.089844 142.078125 746.960938 138.839844 748.851562 137.308594 L 748.851562 140.640625 L 749.390625 141.269531 C 755.871094 141 757.851562 140.910156 763.699219 141 L 764.148438 140.371094 C 763.519531 131.550781 763.519531 129.300781 763.519531 120.839844 L 763.609375 114.179688 M 748.761719 128.488281 C 746.871094 129.570312 744.441406 130.828125 741.46875 130.828125 C 738.230469 130.828125 735.53125 129.121094 735.53125 125.339844 C 735.53125 119.398438 742.640625 118.410156 748.761719 117.601562 Z M 818.242188 140.371094 C 817.792969 132.449219 817.792969 129.929688 817.613281 121.109375 L 817.613281 114.089844 C 817.523438 105.449219 817.433594 101.308594 815.183594 97.621094 C 812.390625 92.941406 807.261719 92.21875 804.023438 92.21875 C 798.53125 92.21875 793.761719 95.101562 789.621094 97.53125 L 789.800781 92.578125 L 788.902344 91.949219 C 781.972656 93.390625 780.441406 93.660156 773.691406 94.558594 L 773.152344 95.191406 C 773.871094 103.019531 774.414062 108.691406 774.414062 123.359375 C 774.414062 129.121094 774.320312 134.878906 774.230469 140.640625 L 774.773438 141.179688 C 781.253906 140.910156 782.601562 140.910156 789.800781 140.910156 L 790.34375 140.371094 C 789.800781 126.511719 789.710938 123 789.621094 106.890625 C 791.511719 105.628906 793.671875 104.101562 796.550781 104.101562 C 801.503906 104.101562 801.953125 109.410156 802.222656 112.648438 C 802.402344 115.621094 802.492188 127.949219 802.492188 131.371094 C 802.492188 134.429688 802.402344 137.578125 802.402344 140.640625 L 802.941406 141.179688 C 808.882812 141 810.414062 140.910156 817.613281 140.910156 Z M 872.601562 140.460938 C 872.242188 132.359375 871.972656 126.960938 871.972656 115.171875 C 871.972656 91.410156 872.332031 81.601562 872.691406 69.71875 L 872.0625 69.179688 L 857.210938 71.519531 L 856.761719 72.058594 C 857.300781 80.519531 857.390625 82.769531 857.300781 93.03125 C 850.550781 92.851562 842.089844 92.671875 835.25 98.070312 C 828.953125 102.929688 826.339844 110.398438 826.339844 119.671875 C 826.339844 126.691406 828.230469 133.710938 833.542969 138.121094 C 837.5 141.359375 842.363281 142.078125 845.332031 142.078125 C 851.722656 142.078125 855.050781 139.109375 857.210938 137.21875 L 857.03125 140.730469 L 857.480469 141.269531 C 863.691406 141 865.402344 141 872.152344 141 L 872.601562 140.460938 M 857.300781 103.828125 C 857.390625 115.800781 857.300781 118.140625 857.03125 129.03125 C 855.230469 130.109375 853.429688 131.191406 850.910156 131.191406 C 842.179688 131.191406 842.179688 120.03125 842.179688 118.230469 C 842.179688 111.300781 844.160156 103.558594 854.242188 103.558594 C 855.230469 103.558594 856.042969 103.648438 857.300781 103.828125 Z M 901.761719 109.949219 C 898.699219 108.871094 896.269531 107.878906 896.269531 105.359375 C 896.269531 104.28125 896.992188 101.308594 902.570312 101.308594 C 908.0625 101.308594 911.570312 103.648438 913.820312 105.089844 L 914.632812 104.820312 L 915.53125 95.011719 L 915.082031 94.46875 C 910.851562 93.300781 907.160156 92.21875 901.3125 92.21875 C 896.902344 92.21875 888.082031 92.578125 883.402344 99.328125 C 882.230469 100.949219 880.972656 103.648438 880.972656 107.25 C 880.972656 116.878906 888.441406 119.761719 892.671875 121.378906 L 896.089844 122.640625 C 898.519531 123.449219 902.480469 124.800781 902.480469 128.039062 C 902.480469 130.289062 900.410156 132.71875 895.371094 132.71875 C 892.851562 132.71875 889.160156 131.910156 885.832031 130.199219 C 884.300781 129.390625 883.582031 128.761719 882.230469 127.679688 L 881.421875 128.039062 C 881.242188 132.71875 881.152344 133.710938 880.789062 138.210938 L 881.242188 139.019531 C 885.652344 140.640625 889.429688 142.078125 896 142.078125 C 902.839844 142.078125 916.339844 140.820312 917.960938 127.949219 C 918.050781 127.230469 918.050781 126.601562 918.050781 125.96875 C 918.050781 116.070312 911.121094 113.460938 906.171875 111.570312 Z M 920.570312 141 "/>
<path fill-rule="nonzero" fill="rgb(34.901961%, 14.901961%, 14.901961%)" fill-opacity="1" d="M 303.890625 222.300781 C 296.332031 219.148438 292.371094 217.53125 292.371094 213.480469 C 292.371094 210.691406 294.980469 207.179688 300.921875 207.179688 C 307.761719 207.179688 311.808594 209.96875 315.140625 212.21875 L 315.949219 211.859375 L 316.671875 200.070312 L 316.21875 199.441406 C 312.351562 197.820312 308.300781 196.109375 299.570312 196.109375 C 282.652344 196.109375 276.800781 205.648438 276.800781 215.28125 C 276.800781 226.171875 285.261719 230.128906 290.300781 232.558594 L 293.269531 233.910156 C 299.480469 236.519531 304.25 238.769531 304.25 243.539062 C 304.25 246.960938 301.28125 251.011719 293.449219 251.011719 C 285.261719 251.011719 280.671875 247.410156 278.058594 245.339844 L 277.160156 245.609375 L 276.53125 258.300781 L 277.070312 259.019531 C 278.058594 259.378906 279.050781 259.828125 280.039062 260.101562 C 282.109375 260.820312 287.421875 262.351562 294.171875 262.351562 C 296.871094 262.351562 303.710938 262.078125 309.109375 259.558594 C 316.671875 255.871094 319.910156 249.03125 319.910156 241.378906 C 319.910156 236.25 317.929688 230.761719 313.160156 227.070312 C 310.730469 225.269531 308.390625 224.191406 306.230469 223.199219 Z M 353.660156 250.648438 C 352.128906 251.101562 351.046875 251.460938 349.519531 251.460938 C 344.929688 251.460938 344.570312 248.578125 344.386719 247.230469 C 344.117188 244.890625 344.117188 239.941406 344.207031 236.339844 L 344.386719 223.648438 L 352.488281 224.011719 L 353.027344 223.46875 L 353.929688 213.839844 L 353.386719 213.300781 L 344.386719 213.300781 L 344.660156 198.179688 L 344.027344 197.640625 C 337.910156 199.441406 336.289062 199.890625 329.898438 201.511719 L 329.539062 202.140625 L 329.628906 213.390625 L 324.769531 213.210938 L 324.230469 213.660156 L 323.417969 223.289062 L 323.957031 223.828125 L 329.628906 223.648438 L 329.359375 237.960938 C 329.269531 240.210938 329.179688 242.460938 329.179688 244.800781 C 329.179688 253.078125 329.359375 261.988281 343.398438 261.988281 C 346.910156 261.988281 349.699219 261.449219 352.847656 260.910156 L 353.480469 260.28125 L 354.378906 251.011719 Z M 400.371094 234.179688 C 400.460938 226.078125 400.460938 222.570312 398.121094 218.789062 C 396.320312 215.910156 392.722656 212.308594 381.203125 212.308594 C 373.460938 212.308594 368.691406 213.75 363.5625 215.28125 L 363.023438 216 L 362.570312 225.808594 L 363.292969 226.171875 C 366.441406 224.910156 372.292969 222.570312 378.320312 222.570312 C 381.652344 222.570312 383 223.109375 384.171875 224.28125 C 385.070312 225.179688 385.34375 226.800781 385.34375 228.148438 C 374.542969 229.589844 369.5 230.578125 364.101562 233.910156 C 359.0625 237.058594 357.351562 242.191406 357.351562 246.238281 C 357.351562 255.871094 364.28125 262.078125 373.101562 262.078125 C 379.851562 262.078125 383.722656 258.839844 385.613281 257.308594 L 385.613281 260.640625 L 386.152344 261.269531 C 392.632812 261 394.613281 260.910156 400.460938 261 L 400.910156 260.371094 C 400.28125 251.550781 400.28125 249.300781 400.28125 240.839844 L 400.371094 234.179688 M 385.523438 248.488281 C 383.632812 249.570312 381.203125 250.828125 378.230469 250.828125 C 374.992188 250.828125 372.292969 249.121094 372.292969 245.339844 C 372.292969 239.398438 379.402344 238.410156 385.523438 237.601562 Z M 436.101562 250.648438 C 434.570312 251.101562 433.488281 251.460938 431.960938 251.460938 C 427.371094 251.460938 427.011719 248.578125 426.828125 247.230469 C 426.558594 244.890625 426.558594 239.941406 426.648438 236.339844 L 426.828125 223.648438 L 434.929688 224.011719 L 435.46875 223.46875 L 436.371094 213.839844 L 435.828125 213.300781 L 426.828125 213.300781 L 427.101562 198.179688 L 426.46875 197.640625 C 420.351562 199.441406 418.730469 199.890625 412.339844 201.511719 L 411.980469 202.140625 L 412.070312 213.390625 L 407.210938 213.210938 L 406.671875 213.660156 L 405.859375 223.289062 L 406.398438 223.828125 L 412.070312 223.648438 L 411.800781 237.960938 C 411.710938 240.210938 411.621094 242.460938 411.621094 244.800781 C 411.621094 253.078125 411.800781 261.988281 425.839844 261.988281 C 429.351562 261.988281 432.140625 261.449219 435.289062 260.910156 L 435.921875 260.28125 L 436.820312 251.011719 Z M 482.71875 247.679688 C 479.300781 249.480469 475.25 251.550781 468.679688 251.550781 C 463.28125 251.550781 459.589844 249.839844 457.429688 246.601562 C 456.078125 244.710938 455.808594 242.910156 455.449219 241.109375 L 484.519531 240.570312 L 485.058594 239.941406 C 484.96875 235.53125 484.878906 231.03125 483.621094 226.53125 C 480.46875 215.910156 473.539062 213.75 470.480469 213.03125 C 468.230469 212.398438 466.160156 212.21875 464.089844 212.21875 C 449.960938 212.21875 440.597656 221.488281 440.597656 237.058594 C 440.597656 241.289062 441.320312 245.699219 442.757812 248.851562 C 447.980469 261 460.21875 262.078125 466.699219 262.078125 C 474.167969 262.078125 477.410156 260.730469 482.179688 258.839844 L 482.71875 258.121094 L 483.347656 247.949219 L 482.71875 247.679688 M 455.449219 231.570312 C 455.71875 228.78125 456.347656 225 459.769531 222.839844 C 460.847656 222.121094 462.109375 221.851562 463.371094 221.851562 C 466.339844 221.851562 468.140625 223.378906 469.128906 225 C 470.390625 226.980469 470.480469 229.140625 470.480469 231.210938 Z M 531.679688 197.28125 L 520.25 197.460938 L 519.707031 198 C 520.070312 209.699219 520.339844 217.53125 520.339844 227.878906 C 520.339844 238.859375 520.070312 249.75 519.796875 260.730469 L 520.339844 261.269531 C 527 261 528.4375 260.910156 535.640625 261 L 536.089844 260.460938 C 535.730469 250.648438 535.730469 248.398438 535.730469 239.21875 C 545.808594 239.308594 556.609375 239.308594 563.089844 231.390625 C 565.609375 228.328125 567.769531 223.199219 567.769531 216.898438 C 567.769531 213.03125 566.867188 204.480469 559.398438 200.25 C 554 197.101562 546.347656 197.101562 539.597656 197.101562 L 531.679688 197.28125 M 535.730469 208.171875 C 537.707031 208.078125 539.597656 208.078125 541.578125 208.078125 C 549.5 208.261719 551.660156 212.308594 551.660156 217.53125 C 551.660156 218.789062 551.660156 224.011719 546.890625 226.621094 C 544.457031 227.96875 541.128906 228.148438 535.730469 228.148438 Z M 614.03125 234.179688 C 614.121094 226.078125 614.121094 222.570312 611.78125 218.789062 C 609.980469 215.910156 606.382812 212.308594 594.863281 212.308594 C 587.121094 212.308594 582.351562 213.75 577.222656 215.28125 L 576.683594 216 L 576.230469 225.808594 L 576.953125 226.171875 C 580.101562 224.910156 585.953125 222.570312 591.980469 222.570312 C 595.3125 222.570312 596.660156 223.109375 597.832031 224.28125 C 598.730469 225.179688 599.003906 226.800781 599.003906 228.148438 C 588.203125 229.589844 583.160156 230.578125 577.761719 233.910156 C 572.722656 237.058594 571.011719 242.191406 571.011719 246.238281 C 571.011719 255.871094 577.941406 262.078125 586.761719 262.078125 C 593.511719 262.078125 597.382812 258.839844 599.273438 257.308594 L 599.273438 260.640625 L 599.8125 261.269531 C 606.292969 261 608.273438 260.910156 614.121094 261 L 614.570312 260.371094 C 613.941406 251.550781 613.941406 249.300781 613.941406 240.839844 L 614.03125 234.179688 M 599.183594 248.488281 C 597.292969 249.570312 594.863281 250.828125 591.890625 250.828125 C 588.652344 250.828125 585.953125 249.121094 585.953125 245.339844 C 585.953125 239.398438 593.0625 238.410156 599.183594 237.601562 Z M 650.570312 227.609375 L 653.089844 212.941406 L 652.550781 212.308594 C 651.921875 212.308594 651.289062 212.21875 650.660156 212.21875 C 646.96875 212.21875 642.832031 214.289062 639.949219 220.949219 L 640.21875 212.671875 L 639.5 211.949219 C 632.839844 213.390625 631.128906 213.660156 624.558594 214.648438 L 624.019531 215.191406 C 624.558594 221.941406 624.832031 225.988281 624.832031 238.5 C 624.832031 245.878906 624.738281 253.261719 624.558594 260.730469 L 625.101562 261.269531 C 631.761719 261 633.199219 260.910156 640.398438 261 L 640.851562 260.371094 C 640.488281 253.078125 639.949219 242.910156 639.949219 236.699219 C 639.949219 232.648438 639.949219 226.710938 646.070312 226.710938 C 647.601562 226.710938 648.5 227.25 649.761719 227.96875 Z M 704.570312 259.828125 C 696.109375 245.519531 695.210938 243.898438 688.371094 231.570312 C 694.582031 223.109375 695.210938 222.210938 701.601562 214.019531 L 701.148438 213.121094 L 686.480469 213.300781 L 685.582031 213.929688 C 678.558594 226.078125 677.660156 227.519531 673.519531 233.730469 L 673.519531 223.738281 C 673.609375 206.910156 673.699219 203.308594 674.148438 189.71875 L 673.429688 189.179688 L 657.769531 191.519531 L 657.230469 192.148438 C 657.859375 200.878906 658.128906 205.109375 658.308594 216.898438 C 658.488281 231.480469 658.488281 246.058594 658.398438 260.640625 L 659.03125 261.269531 C 665.058594 261 666.769531 261 673.609375 261 L 674.148438 260.371094 L 673.609375 245.160156 L 673.519531 234.808594 C 681.351562 249.210938 682.339844 251.191406 686.929688 260.730469 L 687.738281 261.269531 L 703.941406 260.640625 Z M 703.492188 261 "/>
</svg>
