<?xml version="1.0" encoding="UTF-8"?>
<svg xmlns="http://www.w3.org/2000/svg" xmlns:xlink="http://www.w3.org/1999/xlink" width="975" height="1300" viewBox="0 0 975 1300">
<path fill-rule="nonzero" fill="rgb(98.823529%, 78.823529%, 9.019608%)" fill-opacity="1" d="M 50 50 L 925 50 L 925 290 L 50 290 Z M 50 50 "/>
<path fill-rule="nonzero" fill="rgb(34.901961%, 14.901961%, 14.901961%)" fill-opacity="1" d="M 245.792969 124.890625 C 243.722656 126.511719 239.132812 129.929688 231.664062 129.929688 C 221.402344 129.929688 214.203125 122.28125 214.203125 109.5 C 214.203125 101.761719 216.902344 88.171875 231.574219 88.171875 C 238.324219 88.171875 242.011719 90.78125 244.261719 92.488281 L 245.074219 92.308594 L 245.882812 79.890625 L 245.523438 79.441406 C 242.285156 78.179688 236.792969 76.109375 228.875 76.109375 C 205.5625 76.109375 197.464844 94.109375 197.464844 109.859375 C 197.464844 127.140625 207.992188 142.351562 229.953125 142.351562 C 237.511719 142.351562 242.464844 140.371094 245.34375 139.199219 L 245.792969 138.660156 L 246.421875 125.25 Z M 293.492188 114.179688 C 293.582031 106.078125 293.582031 102.570312 291.242188 98.789062 C 289.441406 95.910156 285.84375 92.308594 274.324219 92.308594 C 266.582031 92.308594 261.8125 93.75 256.683594 95.28125 L 256.144531 96 L 255.691406 105.808594 L 256.414062 106.171875 C 259.5625 104.910156 265.414062 102.570312 271.441406 102.570312 C 274.773438 102.570312 276.121094 103.109375 277.292969 104.28125 C 278.191406 105.179688 278.464844 106.800781 278.464844 108.148438 C 267.664062 109.589844 262.621094 110.578125 257.222656 113.910156 C 252.183594 117.058594 250.472656 122.191406 250.472656 126.238281 C 250.472656 135.871094 257.402344 142.078125 266.222656 142.078125 C 272.972656 142.078125 276.84375 138.839844 278.734375 137.308594 L 278.734375 140.640625 L 279.273438 141.269531 C 285.753906 141 287.734375 140.910156 293.582031 141 L 294.03125 140.371094 C 293.402344 131.550781 293.402344 129.300781 293.402344 120.839844 L 293.492188 114.179688 M 278.644531 128.488281 C 276.753906 129.570312 274.324219 130.828125 271.351562 130.828125 C 268.113281 130.828125 265.414062 129.121094 265.414062 125.339844 C 265.414062 119.398438 272.523438 118.410156 278.644531 117.601562 Z M 374.316406 140.371094 C 373.863281 132 373.773438 129.660156 373.773438 119.488281 L 373.773438 112.738281 C 373.863281 106.710938 373.953125 101.128906 371.34375 97.351562 C 367.835938 92.21875 361.625 92.21875 360.183594 92.21875 C 352.804688 92.21875 347.855469 95.550781 344.253906 98.070312 C 342.996094 96 340.746094 92.21875 333.546875 92.21875 C 327.605469 92.21875 323.734375 94.921875 319.59375 97.800781 L 319.59375 92.761719 L 318.785156 91.949219 C 311.765625 93.300781 309.785156 93.660156 303.484375 94.558594 L 302.945312 95.191406 C 303.664062 102.390625 304.203125 107.339844 304.203125 125.160156 C 304.203125 130.289062 304.113281 135.511719 304.113281 140.640625 L 304.566406 141.179688 C 310.324219 141 312.304688 140.910156 319.773438 140.910156 L 320.316406 140.371094 C 319.683594 126.511719 319.59375 122.371094 319.503906 106.710938 C 321.394531 105.359375 323.464844 104.191406 325.714844 104.191406 C 331.296875 104.191406 331.476562 110.578125 331.476562 118.320312 C 331.476562 131.371094 331.386719 133.351562 331.203125 140.640625 L 331.746094 141.269531 C 338.585938 140.910156 340.476562 140.910156 346.683594 140.910156 L 347.226562 140.371094 C 346.683594 131.820312 346.59375 129.300781 346.503906 118.410156 L 346.503906 115.078125 L 346.414062 105.988281 C 347.945312 105 349.925781 103.738281 352.625 103.738281 C 357.753906 103.738281 358.566406 108.601562 358.566406 116.339844 C 358.566406 118.050781 358.476562 119.761719 358.476562 121.46875 C 358.386719 124.53125 358.296875 137.941406 358.203125 140.640625 L 358.746094 141.179688 C 365.496094 140.910156 367.476562 140.910156 373.773438 140.910156 Z M 391.140625 141.179688 L 392.941406 141.179688 C 407.339844 141.179688 416.613281 140.460938 423.453125 133.171875 C 429.839844 126.328125 430.472656 118.230469 430.472656 114.449219 C 430.472656 101.941406 423.273438 92.21875 411.03125 92.21875 C 405.089844 92.21875 401.941406 94.199219 399.421875 95.820312 L 399.960938 69.71875 L 399.242188 69.179688 L 384.300781 71.519531 L 383.761719 72.148438 C 384.480469 79.710938 384.75 82.769531 384.75 100.859375 C 384.75 108.601562 384.660156 123.898438 384.570312 140.640625 L 385.203125 141.269531 L 391.140625 141.179688 M 399.78125 104.730469 C 401.582031 103.828125 403.292969 102.929688 405.632812 102.929688 C 411.570312 102.929688 414.992188 108.238281 414.992188 116.519531 C 414.992188 123 412.113281 127.230469 409.683594 128.941406 C 406.710938 131.011719 402.839844 131.101562 399.78125 131.191406 Z M 465.035156 107.609375 L 467.554688 92.941406 L 467.015625 92.308594 C 466.386719 92.308594 465.753906 92.21875 465.125 92.21875 C 461.433594 92.21875 457.296875 94.289062 454.414062 100.949219 L 454.683594 92.671875 L 453.964844 91.949219 C 447.304688 93.390625 445.59375 93.660156 439.023438 94.648438 L 438.484375 95.191406 C 439.023438 101.941406 439.296875 105.988281 439.296875 118.5 C 439.296875 125.878906 439.203125 133.261719 439.023438 140.730469 L 439.566406 141.269531 C 446.226562 141 447.664062 140.910156 454.863281 141 L 455.316406 140.371094 C 454.953125 133.078125 454.414062 122.910156 454.414062 116.699219 C 454.414062 112.648438 454.414062 106.710938 460.535156 106.710938 C 462.066406 106.710938 462.964844 107.25 464.226562 107.96875 Z M 489.066406 140.371094 C 488.613281 133.441406 488.253906 128.128906 488.253906 115.710938 C 488.253906 108.058594 488.433594 100.320312 488.523438 92.671875 L 487.894531 91.949219 L 472.414062 94.648438 L 471.875 95.191406 C 472.59375 102.03125 472.863281 105.179688 472.863281 117.960938 C 472.863281 127.769531 472.59375 133.261719 472.324219 140.640625 L 472.863281 141.269531 C 479.34375 141 481.144531 140.910156 488.433594 141 L 489.066406 140.371094 M 487.625 83.308594 L 487.894531 71.070312 L 487.355469 70.53125 L 472.683594 72.328125 L 472.144531 72.960938 C 472.324219 76.199219 472.414062 78.089844 472.414062 80.25 C 472.414062 81.960938 472.414062 83.761719 472.324219 85.46875 L 472.953125 86.011719 C 479.074219 84.929688 480.785156 84.75 487.175781 83.941406 Z M 539.101562 114.179688 C 539.191406 106.078125 539.191406 102.570312 536.851562 98.789062 C 535.050781 95.910156 531.453125 92.308594 519.933594 92.308594 C 512.191406 92.308594 507.421875 93.75 502.292969 95.28125 L 501.753906 96 L 501.300781 105.808594 L 502.023438 106.171875 C 505.171875 104.910156 511.023438 102.570312 517.050781 102.570312 C 520.382812 102.570312 521.730469 103.109375 522.902344 104.28125 C 523.800781 105.179688 524.074219 106.800781 524.074219 108.148438 C 513.273438 109.589844 508.230469 110.578125 502.832031 113.910156 C 497.792969 117.058594 496.082031 122.191406 496.082031 126.238281 C 496.082031 135.871094 503.011719 142.078125 511.832031 142.078125 C 518.582031 142.078125 522.453125 138.839844 524.34375 137.308594 L 524.34375 140.640625 L 524.882812 141.269531 C 531.363281 141 533.34375 140.910156 539.191406 141 L 539.640625 140.371094 C 539.011719 131.550781 539.011719 129.300781 539.011719 120.839844 L 539.101562 114.179688 M 524.253906 128.488281 C 522.363281 129.570312 519.933594 130.828125 516.960938 130.828125 C 513.722656 130.828125 511.023438 129.121094 511.023438 125.339844 C 511.023438 119.398438 518.132812 118.410156 524.253906 117.601562 Z M 601.921875 102.300781 C 594.363281 99.148438 590.402344 97.53125 590.402344 93.480469 C 590.402344 90.691406 593.011719 87.179688 598.953125 87.179688 C 605.792969 87.179688 609.839844 89.96875 613.171875 92.21875 L 613.980469 91.859375 L 614.703125 80.070312 L 614.25 79.441406 C 610.382812 77.820312 606.332031 76.109375 597.601562 76.109375 C 580.683594 76.109375 574.832031 85.648438 574.832031 95.28125 C 574.832031 106.171875 583.292969 110.128906 588.332031 112.558594 L 591.300781 113.910156 C 597.511719 116.519531 602.28125 118.769531 602.28125 123.539062 C 602.28125 126.960938 599.3125 131.011719 591.480469 131.011719 C 583.292969 131.011719 578.703125 127.410156 576.089844 125.339844 L 575.191406 125.609375 L 574.5625 138.300781 L 575.101562 139.019531 C 576.089844 139.378906 577.082031 139.828125 578.070312 140.101562 C 580.140625 140.820312 585.453125 142.351562 592.203125 142.351562 C 594.902344 142.351562 601.742188 142.078125 607.140625 139.558594 C 614.703125 135.871094 617.941406 129.03125 617.941406 121.378906 C 617.941406 116.25 615.960938 110.761719 611.191406 107.070312 C 608.761719 105.269531 606.421875 104.191406 604.261719 103.199219 Z M 651.695312 130.648438 C 650.164062 131.101562 649.082031 131.460938 647.554688 131.460938 C 642.964844 131.460938 642.605469 128.578125 642.421875 127.230469 C 642.152344 124.890625 642.152344 119.941406 642.242188 116.339844 L 642.421875 103.648438 L 650.523438 104.011719 L 651.0625 103.46875 L 651.964844 93.839844 L 651.421875 93.300781 L 642.421875 93.300781 L 642.695312 78.179688 L 642.0625 77.640625 C 635.945312 79.441406 634.324219 79.890625 627.933594 81.511719 L 627.574219 82.140625 L 627.664062 93.390625 L 622.804688 93.210938 L 622.265625 93.660156 L 621.453125 103.289062 L 621.992188 103.828125 L 627.664062 103.648438 L 627.394531 117.960938 C 627.304688 120.210938 627.214844 122.460938 627.214844 124.800781 C 627.214844 133.078125 627.394531 141.988281 641.433594 141.988281 C 644.945312 141.988281 647.734375 141.449219 650.882812 140.910156 L 651.515625 140.28125 L 652.414062 131.011719 Z M 698.402344 114.179688 C 698.492188 106.078125 698.492188 102.570312 696.152344 98.789062 C 694.351562 95.910156 690.753906 92.308594 679.234375 92.308594 C 671.492188 92.308594 666.722656 93.75 661.59375 95.28125 L 661.054688 96 L 660.601562 105.808594 L 661.324219 106.171875 C 664.472656 104.910156 670.324219 102.570312 676.351562 102.570312 C 679.683594 102.570312 681.03125 103.109375 682.203125 104.28125 C 683.101562 105.179688 683.375 106.800781 683.375 108.148438 C 672.574219 109.589844 667.53125 110.578125 662.132812 113.910156 C 657.09375 117.058594 655.382812 122.191406 655.382812 126.238281 C 655.382812 135.871094 662.3125 142.078125 671.132812 142.078125 C 677.882812 142.078125 681.753906 138.839844 683.644531 137.308594 L 683.644531 140.640625 L 684.183594 141.269531 C 690.664062 141 692.644531 140.910156 698.492188 141 L 698.941406 140.371094 C 698.3125 131.550781 698.3125 129.300781 698.3125 120.839844 L 698.402344 114.179688 M 683.554688 128.488281 C 681.664062 129.570312 679.234375 130.828125 676.261719 130.828125 C 673.023438 130.828125 670.324219 129.121094 670.324219 125.339844 C 670.324219 119.398438 677.433594 118.410156 683.554688 117.601562 Z M 734.136719 130.648438 C 732.605469 131.101562 731.523438 131.460938 729.996094 131.460938 C 725.40625 131.460938 725.046875 128.578125 724.863281 127.230469 C 724.59375 124.890625 724.59375 119.941406 724.683594 116.339844 L 724.863281 103.648438 L 732.964844 104.011719 L 733.503906 103.46875 L 734.40625 93.839844 L 733.863281 93.300781 L 724.863281 93.300781 L 725.136719 78.179688 L 724.503906 77.640625 C 718.386719 79.441406 716.765625 79.890625 710.375 81.511719 L 710.015625 82.140625 L 710.105469 93.390625 L 705.246094 93.210938 L 704.707031 93.660156 L 703.894531 103.289062 L 704.433594 103.828125 L 710.105469 103.648438 L 709.835938 117.960938 C 709.746094 120.210938 709.65625 122.460938 709.65625 124.800781 C 709.65625 133.078125 709.835938 141.988281 723.875 141.988281 C 727.386719 141.988281 730.175781 141.449219 733.324219 140.910156 L 733.957031 140.28125 L 734.855469 131.011719 Z M 780.753906 127.679688 C 777.335938 129.480469 773.285156 131.550781 766.714844 131.550781 C 761.316406 131.550781 757.625 129.839844 755.464844 126.601562 C 754.113281 124.710938 753.84375 122.910156 753.484375 121.109375 L 782.554688 120.570312 L 783.09375 119.941406 C 783.003906 115.53125 782.914062 111.03125 781.65625 106.53125 C 778.503906 95.910156 771.574219 93.75 768.515625 93.03125 C 766.265625 92.398438 764.195312 92.21875 762.125 92.21875 C 747.996094 92.21875 738.632812 101.488281 738.632812 117.058594 C 738.632812 121.289062 739.355469 125.699219 740.792969 128.851562 C 746.015625 141 758.253906 142.078125 764.734375 142.078125 C 772.203125 142.078125 775.445312 140.730469 780.214844 138.839844 L 780.753906 138.121094 L 781.382812 127.949219 L 780.753906 127.679688 M 753.484375 111.570312 C 753.753906 108.78125 754.382812 105 757.804688 102.839844 C 758.882812 102.121094 760.144531 101.851562 761.40625 101.851562 C 764.375 101.851562 766.175781 103.378906 767.164062 105 C 768.425781 106.980469 768.515625 109.140625 768.515625 111.210938 Z M 785.972656 141 "/>
<path fill-rule="nonzero" fill="rgb(34.901961%, 14.901961%, 14.901961%)" fill-opacity="1" d="M 305.824219 197.191406 C 296.464844 197.460938 294.933594 197.460938 284.945312 197.460938 L 284.40625 198 L 280.265625 212.578125 L 276.664062 225.628906 L 272.433594 241.289062 L 268.472656 225.179688 L 265.953125 215.011719 L 261.453125 197.730469 L 261.003906 197.191406 C 251.375 197.460938 249.753906 197.460938 239.675781 197.460938 L 239.132812 198 C 238.234375 224.910156 237.875 231.839844 235.894531 260.730469 L 236.34375 261.269531 C 242.105469 261 243.816406 260.910156 249.035156 261 L 249.574219 260.460938 L 249.84375 243.269531 L 250.382812 225.808594 L 250.746094 208.800781 L 254.703125 224.730469 L 258.125 237.511719 L 264.15625 260.730469 L 264.695312 261.269531 C 270.273438 261 271.804688 260.910156 278.105469 261 L 278.644531 260.460938 L 283.863281 241.289062 L 287.464844 228.148438 L 292.503906 209.25 L 292.503906 225.359375 L 292.683594 239.128906 L 292.683594 260.730469 L 293.132812 261.269531 C 299.34375 261 301.773438 260.910156 308.703125 261 L 309.15625 260.460938 C 308.613281 250.199219 307.984375 239.851562 307.625 229.5 C 307.355469 223.828125 307.175781 218.160156 306.90625 212.488281 C 306.453125 204.121094 306.363281 203.039062 306.363281 197.730469 Z M 359.375 234.179688 C 359.464844 226.078125 359.464844 222.570312 357.125 218.789062 C 355.324219 215.910156 351.726562 212.308594 340.207031 212.308594 C 332.464844 212.308594 327.695312 213.75 322.566406 215.28125 L 322.027344 216 L 321.574219 225.808594 L 322.296875 226.171875 C 325.445312 224.910156 331.296875 222.570312 337.324219 222.570312 C 340.65625 222.570312 342.003906 223.109375 343.175781 224.28125 C 344.074219 225.179688 344.347656 226.800781 344.347656 228.148438 C 333.546875 229.589844 328.503906 230.578125 323.105469 233.910156 C 318.066406 237.058594 316.355469 242.191406 316.355469 246.238281 C 316.355469 255.871094 323.285156 262.078125 332.105469 262.078125 C 338.855469 262.078125 342.726562 258.839844 344.617188 257.308594 L 344.617188 260.640625 L 345.15625 261.269531 C 351.636719 261 353.617188 260.910156 359.464844 261 L 359.914062 260.371094 C 359.285156 251.550781 359.285156 249.300781 359.285156 240.839844 L 359.375 234.179688 M 344.527344 248.488281 C 342.636719 249.570312 340.207031 250.828125 337.234375 250.828125 C 333.996094 250.828125 331.296875 249.121094 331.296875 245.339844 C 331.296875 239.398438 338.40625 238.410156 344.527344 237.601562 Z M 395.914062 227.609375 L 398.433594 212.941406 L 397.894531 212.308594 C 397.265625 212.308594 396.632812 212.21875 396.003906 212.21875 C 392.3125 212.21875 388.175781 214.289062 385.292969 220.949219 L 385.5625 212.671875 L 384.84375 211.949219 C 378.183594 213.390625 376.472656 213.660156 369.902344 214.648438 L 369.363281 215.191406 C 369.902344 221.941406 370.175781 225.988281 370.175781 238.5 C 370.175781 245.878906 370.082031 253.261719 369.902344 260.730469 L 370.445312 261.269531 C 377.105469 261 378.542969 260.910156 385.742188 261 L 386.195312 260.371094 C 385.832031 253.078125 385.292969 242.910156 385.292969 236.699219 C 385.292969 232.648438 385.292969 226.710938 391.414062 226.710938 C 392.945312 226.710938 393.84375 227.25 395.105469 227.96875 Z M 419.945312 260.371094 C 419.492188 253.441406 419.132812 248.128906 419.132812 235.710938 C 419.132812 228.058594 419.3125 220.320312 419.402344 212.671875 L 418.773438 211.949219 L 403.292969 214.648438 L 402.753906 215.191406 C 403.472656 222.03125 403.742188 225.179688 403.742188 237.960938 C 403.742188 247.769531 403.472656 253.261719 403.203125 260.640625 L 403.742188 261.269531 C 410.222656 261 412.023438 260.910156 419.3125 261 L 419.945312 260.371094 M 418.503906 203.308594 L 418.773438 191.070312 L 418.234375 190.53125 L 403.5625 192.328125 L 403.023438 192.960938 C 403.203125 196.199219 403.292969 198.089844 403.292969 200.25 C 403.292969 201.960938 403.292969 203.761719 403.203125 205.46875 L 403.832031 206.011719 C 409.953125 204.929688 411.664062 204.75 418.054688 203.941406 Z M 474.035156 260.371094 C 473.585938 252.449219 473.585938 249.929688 473.40625 241.109375 L 473.40625 234.089844 C 473.316406 225.449219 473.226562 221.308594 470.976562 217.621094 C 468.183594 212.941406 463.054688 212.21875 459.816406 212.21875 C 454.324219 212.21875 449.554688 215.101562 445.414062 217.53125 L 445.59375 212.578125 L 444.695312 211.949219 C 437.765625 213.390625 436.234375 213.660156 429.484375 214.558594 L 428.945312 215.191406 C 429.664062 223.019531 430.207031 228.691406 430.207031 243.359375 C 430.207031 249.121094 430.113281 254.878906 430.023438 260.640625 L 430.566406 261.179688 C 437.046875 260.910156 438.394531 260.910156 445.59375 260.910156 L 446.136719 260.371094 C 445.59375 246.511719 445.503906 243 445.414062 226.890625 C 447.304688 225.628906 449.464844 224.101562 452.34375 224.101562 C 457.296875 224.101562 457.746094 229.410156 458.015625 232.648438 C 458.195312 235.621094 458.285156 247.949219 458.285156 251.371094 C 458.285156 254.429688 458.195312 257.578125 458.195312 260.640625 L 458.734375 261.179688 C 464.675781 261 466.207031 260.910156 473.40625 260.910156 Z M 524.253906 247.679688 C 520.835938 249.480469 516.785156 251.550781 510.214844 251.550781 C 504.816406 251.550781 501.125 249.839844 498.964844 246.601562 C 497.613281 244.710938 497.34375 242.910156 496.984375 241.109375 L 526.054688 240.570312 L 526.59375 239.941406 C 526.503906 235.53125 526.414062 231.03125 525.15625 226.53125 C 522.003906 215.910156 515.074219 213.75 512.015625 213.03125 C 509.765625 212.398438 507.695312 212.21875 505.625 212.21875 C 491.496094 212.21875 482.132812 221.488281 482.132812 237.058594 C 482.132812 241.289062 482.855469 245.699219 484.292969 248.851562 C 489.515625 261 501.753906 262.078125 508.234375 262.078125 C 515.703125 262.078125 518.945312 260.730469 523.714844 258.839844 L 524.253906 258.121094 L 524.882812 247.949219 L 524.253906 247.679688 M 496.984375 231.570312 C 497.253906 228.78125 497.882812 225 501.304688 222.839844 C 502.382812 222.121094 503.644531 221.851562 504.90625 221.851562 C 507.875 221.851562 509.675781 223.378906 510.664062 225 C 511.925781 226.980469 512.015625 229.140625 512.015625 231.210938 Z M 573.214844 197.28125 L 561.785156 197.460938 L 561.242188 198 C 561.605469 209.699219 561.875 217.53125 561.875 227.878906 C 561.875 238.859375 561.605469 249.75 561.332031 260.730469 L 561.875 261.269531 C 568.535156 261 569.972656 260.910156 577.175781 261 L 577.625 260.460938 C 577.265625 250.648438 577.265625 248.398438 577.265625 239.21875 C 587.34375 239.308594 598.144531 239.308594 604.625 231.390625 C 607.144531 228.328125 609.304688 223.199219 609.304688 216.898438 C 609.304688 213.03125 608.402344 204.480469 600.933594 200.25 C 595.535156 197.101562 587.882812 197.101562 581.132812 197.101562 L 573.214844 197.28125 M 577.265625 208.171875 C 579.242188 208.078125 581.132812 208.078125 583.113281 208.078125 C 591.035156 208.261719 593.195312 212.308594 593.195312 217.53125 C 593.195312 218.789062 593.195312 224.011719 588.425781 226.621094 C 585.992188 227.96875 582.664062 228.148438 577.265625 228.148438 Z M 655.5625 234.179688 C 655.652344 226.078125 655.652344 222.570312 653.3125 218.789062 C 651.511719 215.910156 647.914062 212.308594 636.394531 212.308594 C 628.652344 212.308594 623.882812 213.75 618.753906 215.28125 L 618.214844 216 L 617.761719 225.808594 L 618.484375 226.171875 C 621.632812 224.910156 627.484375 222.570312 633.511719 222.570312 C 636.84375 222.570312 638.191406 223.109375 639.363281 224.28125 C 640.261719 225.179688 640.535156 226.800781 640.535156 228.148438 C 629.734375 229.589844 624.691406 230.578125 619.292969 233.910156 C 614.253906 237.058594 612.542969 242.191406 612.542969 246.238281 C 612.542969 255.871094 619.472656 262.078125 628.292969 262.078125 C 635.042969 262.078125 638.914062 258.839844 640.804688 257.308594 L 640.804688 260.640625 L 641.34375 261.269531 C 647.824219 261 649.804688 260.910156 655.652344 261 L 656.101562 260.371094 C 655.472656 251.550781 655.472656 249.300781 655.472656 240.839844 L 655.5625 234.179688 M 640.714844 248.488281 C 638.824219 249.570312 636.394531 250.828125 633.421875 250.828125 C 630.183594 250.828125 627.484375 249.121094 627.484375 245.339844 C 627.484375 239.398438 634.59375 238.410156 640.714844 237.601562 Z M 692.105469 227.609375 L 694.625 212.941406 L 694.085938 212.308594 C 693.457031 212.308594 692.824219 212.21875 692.195312 212.21875 C 688.503906 212.21875 684.367188 214.289062 681.484375 220.949219 L 681.753906 212.671875 L 681.035156 211.949219 C 674.375 213.390625 672.664062 213.660156 666.09375 214.648438 L 665.554688 215.191406 C 666.09375 221.941406 666.367188 225.988281 666.367188 238.5 C 666.367188 245.878906 666.273438 253.261719 666.09375 260.730469 L 666.636719 261.269531 C 673.296875 261 674.734375 260.910156 681.933594 261 L 682.386719 260.371094 C 682.023438 253.078125 681.484375 242.910156 681.484375 236.699219 C 681.484375 232.648438 681.484375 226.710938 687.605469 226.710938 C 689.136719 226.710938 690.035156 227.25 691.296875 227.96875 Z M 746.105469 259.828125 C 737.644531 245.519531 736.746094 243.898438 729.90625 231.570312 C 736.117188 223.109375 736.746094 222.210938 743.136719 214.019531 L 742.683594 213.121094 L 728.015625 213.300781 L 727.117188 213.929688 C 720.09375 226.078125 719.195312 227.519531 715.054688 233.730469 L 715.054688 223.738281 C 715.144531 206.910156 715.234375 203.308594 715.683594 189.71875 L 714.964844 189.179688 L 699.304688 191.519531 L 698.765625 192.148438 C 699.394531 200.878906 699.664062 205.109375 699.84375 216.898438 C 700.023438 231.480469 700.023438 246.058594 699.933594 260.640625 L 700.566406 261.269531 C 706.59375 261 708.304688 261 715.144531 261 L 715.683594 260.371094 L 715.144531 245.160156 L 715.054688 234.808594 C 722.886719 249.210938 723.875 251.191406 728.464844 260.730469 L 729.273438 261.269531 L 745.476562 260.640625 Z M 745.023438 261 "/>
</svg>
