<?xml version="1.0" encoding="UTF-8"?>
<svg xmlns="http://www.w3.org/2000/svg" xmlns:xlink="http://www.w3.org/1999/xlink" width="975" height="1300" viewBox="0 0 975 1300">
<path fill-rule="nonzero" fill="rgb(98.823529%, 78.823529%, 9.019608%)" fill-opacity="1" d="M 50 50 L 925 50 L 925 170 L 50 170 Z M 50 50 "/>
<path fill-rule="nonzero" fill="rgb(34.901961%, 14.901961%, 14.901961%)" fill-opacity="1" d="M 173.390625 85.738281 C 171.863281 83.761719 170.0625 82.050781 167.992188 80.699219 C 163.402344 77.640625 157.101562 76.109375 150.800781 76.109375 C 145.222656 76.109375 139.550781 77.101562 134.691406 79.890625 C 123.710938 86.191406 121.730469 96.628906 121.011719 100.410156 C 120.472656 103.46875 120.203125 106.53125 120.203125 109.589844 C 120.203125 115.710938 120.921875 127.230469 129.382812 135.058594 C 136.222656 141.449219 145.582031 142.351562 150.171875 142.351562 C 157.101562 142.351562 164.121094 140.730469 169.433594 136.320312 C 178.34375 128.941406 180.140625 116.699219 180.140625 109.050781 C 180.140625 94.921875 175.640625 88.53125 173.390625 85.738281 M 159.171875 91.5 C 160.972656 93.570312 161.78125 96.179688 162.320312 98.789062 C 163.042969 102.210938 163.222656 105.449219 163.3125 107.699219 C 163.671875 121.199219 160.792969 130.921875 150.351562 130.921875 C 137.84375 130.921875 137.03125 116.339844 137.03125 108.238281 C 137.03125 97.441406 139.640625 91.859375 143.871094 89.160156 C 146.300781 87.71875 148.730469 87.359375 150.441406 87.359375 C 153.863281 87.359375 157.011719 88.890625 159.171875 91.5 Z M 233.421875 140.371094 C 232.972656 132.449219 232.972656 129.929688 232.792969 121.109375 L 232.792969 114.089844 C 232.703125 105.449219 232.613281 101.308594 230.363281 97.621094 C 227.570312 92.941406 222.441406 92.21875 219.203125 92.21875 C 213.710938 92.21875 208.941406 95.101562 204.800781 97.53125 L 204.980469 92.578125 L 204.082031 91.949219 C 197.152344 93.390625 195.621094 93.660156 188.871094 94.558594 L 188.332031 95.191406 C 189.050781 103.019531 189.59375 108.691406 189.59375 123.359375 C 189.59375 129.121094 189.5 134.878906 189.410156 140.640625 L 189.953125 141.179688 C 196.433594 140.910156 197.78125 140.910156 204.980469 140.910156 L 205.523438 140.371094 C 204.980469 126.511719 204.890625 123 204.800781 106.890625 C 206.691406 105.628906 208.851562 104.101562 211.730469 104.101562 C 216.683594 104.101562 217.132812 109.410156 217.402344 112.648438 C 217.582031 115.621094 217.671875 127.949219 217.671875 131.371094 C 217.671875 134.429688 217.582031 137.578125 217.582031 140.640625 L 218.121094 141.179688 C 224.0625 141 225.59375 140.910156 232.792969 140.910156 Z M 283.910156 93.03125 L 271.402344 93.300781 L 270.679688 93.929688 C 269.152344 100.140625 268.792969 101.488281 266.632812 108.511719 L 264.292969 116.25 L 262.3125 123 L 260.601562 116.609375 L 257.992188 107.070312 L 254.390625 93.390625 L 253.671875 92.851562 C 246.652344 93.390625 245.121094 93.480469 237.742188 93.660156 L 237.292969 94.289062 C 240.53125 102.839844 248.902344 125.429688 254.480469 142.710938 C 250.792969 152.070312 250.070312 153.691406 246.019531 162.601562 L 246.472656 163.320312 C 248.722656 163.230469 251.242188 163.140625 253.582031 163.140625 C 255.832031 163.140625 258.171875 163.230469 260.421875 163.230469 L 261.050781 162.691406 C 266 143.25 268.429688 135.691406 280.3125 104.371094 C 281.660156 100.769531 283.011719 97.261719 284.269531 93.75 Z M 329.359375 139.648438 C 327.652344 136.859375 319.910156 124.890625 318.292969 122.371094 C 316.042969 118.769531 315.5 117.871094 314.0625 115.53125 C 318.382812 108.960938 324.769531 99.148438 328.191406 94.199219 L 327.832031 93.390625 L 314.871094 93.390625 L 314.152344 94.019531 C 311.179688 100.320312 310.550781 101.578125 308.210938 105.988281 C 307.851562 105.269531 307.492188 104.640625 307.132812 103.921875 C 305.78125 101.128906 302.902344 95.640625 302 93.660156 L 301.371094 93.121094 C 294.441406 93.660156 292.820312 93.839844 285.171875 94.199219 L 284.632812 94.921875 C 288.679688 100.679688 289.761719 102.300781 299.300781 117.148438 C 292.910156 127.230469 291.472656 129.390625 283.820312 140.460938 L 284.179688 141.089844 L 297.769531 141 L 298.492188 140.460938 C 299.660156 138.210938 300.832031 135.691406 302.089844 133.351562 C 303.261719 130.828125 303.800781 129.929688 305.152344 127.679688 C 308.570312 133.800781 309.382812 135.421875 311.992188 140.910156 L 312.800781 141.359375 C 320.453125 140.730469 322.703125 140.730469 329 140.460938 Z M 382.191406 116.25 C 388.222656 126.511719 389.574219 129.210938 395.332031 141 L 396.054688 141.449219 C 398.84375 141.269531 401.542969 141.089844 404.332031 141 C 407.125 140.910156 410.003906 140.820312 412.792969 140.820312 L 413.332031 139.738281 C 409.914062 135.328125 408.921875 133.980469 402.441406 123.628906 C 399.5625 119.039062 398.125 116.609375 395.875 112.648438 C 399.921875 110.851562 408.113281 107.070312 408.113281 95.640625 C 408.113281 91.679688 407.03125 83.488281 399.652344 79.621094 C 394.972656 77.191406 390.113281 77.101562 379.582031 77.28125 L 373.28125 77.371094 L 362.304688 77.371094 L 361.851562 77.910156 C 362.214844 87 362.574219 96.359375 362.574219 120.839844 C 362.574219 129.210938 362.484375 133.261719 362.214844 140.730469 L 362.753906 141.269531 C 369.324219 141 370.761719 140.910156 378.144531 141 L 378.683594 140.460938 C 377.964844 130.019531 377.875 127.140625 377.78125 116.429688 L 382.191406 116.25 M 377.964844 88.261719 C 379.222656 88.171875 380.484375 88.171875 381.742188 88.171875 C 385.253906 88.171875 392.183594 88.171875 392.183594 96.089844 C 392.183594 98.609375 391.554688 101.941406 388.222656 104.011719 C 385.703125 105.539062 382.464844 105.71875 377.964844 105.808594 Z M 458.152344 114.179688 C 458.242188 106.078125 458.242188 102.570312 455.902344 98.789062 C 454.101562 95.910156 450.503906 92.308594 438.984375 92.308594 C 431.242188 92.308594 426.472656 93.75 421.34375 95.28125 L 420.804688 96 L 420.351562 105.808594 L 421.074219 106.171875 C 424.222656 104.910156 430.074219 102.570312 436.101562 102.570312 C 439.433594 102.570312 440.78125 103.109375 441.953125 104.28125 C 442.851562 105.179688 443.125 106.800781 443.125 108.148438 C 432.324219 109.589844 427.28125 110.578125 421.882812 113.910156 C 416.84375 117.058594 415.132812 122.191406 415.132812 126.238281 C 415.132812 135.871094 422.0625 142.078125 430.882812 142.078125 C 437.632812 142.078125 441.503906 138.839844 443.394531 137.308594 L 443.394531 140.640625 L 443.933594 141.269531 C 450.414062 141 452.394531 140.910156 458.242188 141 L 458.691406 140.371094 C 458.0625 131.550781 458.0625 129.300781 458.0625 120.839844 L 458.152344 114.179688 M 443.304688 128.488281 C 441.414062 129.570312 438.984375 130.828125 436.011719 130.828125 C 432.773438 130.828125 430.074219 129.121094 430.074219 125.339844 C 430.074219 119.398438 437.183594 118.410156 443.304688 117.601562 Z M 512.78125 140.371094 C 512.332031 132.449219 512.332031 129.929688 512.152344 121.109375 L 512.152344 114.089844 C 512.0625 105.449219 511.972656 101.308594 509.722656 97.621094 C 506.929688 92.941406 501.800781 92.21875 498.5625 92.21875 C 493.070312 92.21875 488.300781 95.101562 484.160156 97.53125 L 484.339844 92.578125 L 483.441406 91.949219 C 476.511719 93.390625 474.980469 93.660156 468.230469 94.558594 L 467.691406 95.191406 C 468.410156 103.019531 468.953125 108.691406 468.953125 123.359375 C 468.953125 129.121094 468.859375 134.878906 468.769531 140.640625 L 469.3125 141.179688 C 475.792969 140.910156 477.140625 140.910156 484.339844 140.910156 L 484.882812 140.371094 C 484.339844 126.511719 484.25 123 484.160156 106.890625 C 486.050781 105.628906 488.210938 104.101562 491.089844 104.101562 C 496.042969 104.101562 496.492188 109.410156 496.761719 112.648438 C 496.941406 115.621094 497.03125 127.949219 497.03125 131.371094 C 497.03125 134.429688 496.941406 137.578125 496.941406 140.640625 L 497.480469 141.179688 C 503.421875 141 504.953125 140.910156 512.152344 140.910156 Z M 558.230469 128.039062 C 555.800781 129.480469 553.460938 130.921875 548.871094 130.921875 C 538.699219 130.921875 536.628906 122.460938 536.628906 117.058594 C 536.628906 110.488281 539.511719 102.929688 548.242188 102.929688 C 552.199219 102.929688 554.359375 104.371094 557.0625 106.171875 L 557.960938 105.898438 C 558.320312 101.128906 558.410156 99.871094 559.128906 95.101562 L 558.679688 94.558594 C 554.71875 93.300781 551.300781 92.21875 546.082031 92.21875 C 524.929688 92.21875 520.789062 108.238281 520.789062 117.421875 C 520.789062 127.769531 526.191406 141.808594 546.441406 141.808594 C 551.210938 141.808594 554.269531 140.910156 558.050781 139.828125 L 558.589844 139.289062 L 558.949219 128.488281 Z M 610.25 140.371094 C 609.890625 132.988281 609.800781 130.46875 609.621094 121.109375 L 609.621094 114.359375 C 609.53125 105.808594 609.441406 100.859375 606.828125 97.078125 C 604.21875 93.390625 600.441406 92.21875 596.480469 92.21875 C 589.910156 92.21875 584.78125 95.371094 581.179688 97.53125 L 581.449219 69.808594 L 580.910156 69.179688 L 565.519531 71.609375 L 565.070312 72.148438 C 565.878906 80.878906 566.058594 84.121094 566.238281 95.730469 C 566.421875 103.019531 566.511719 110.308594 566.511719 117.601562 C 566.511719 126.511719 566.328125 131.820312 566.148438 140.640625 L 566.601562 141.269531 C 573.261719 140.910156 574.609375 140.910156 581.898438 140.910156 L 582.441406 140.371094 C 581.808594 126.871094 581.71875 122.820312 581.628906 106.890625 C 583.339844 105.71875 585.5 104.191406 588.558594 104.191406 C 593.511719 104.191406 593.871094 109.320312 594.230469 112.921875 C 594.410156 115.710938 594.5 128.488281 594.5 131.820312 C 594.5 134.789062 594.410156 137.671875 594.410156 140.640625 L 594.859375 141.269531 C 601.339844 140.910156 602.78125 140.910156 609.710938 140.910156 Z M 672.800781 102.300781 C 665.242188 99.148438 661.28125 97.53125 661.28125 93.480469 C 661.28125 90.691406 663.890625 87.179688 669.832031 87.179688 C 676.671875 87.179688 680.71875 89.96875 684.050781 92.21875 L 684.859375 91.859375 L 685.582031 80.070312 L 685.128906 79.441406 C 681.261719 77.820312 677.210938 76.109375 668.480469 76.109375 C 651.5625 76.109375 645.710938 85.648438 645.710938 95.28125 C 645.710938 106.171875 654.171875 110.128906 659.210938 112.558594 L 662.179688 113.910156 C 668.390625 116.519531 673.160156 118.769531 673.160156 123.539062 C 673.160156 126.960938 670.191406 131.011719 662.359375 131.011719 C 654.171875 131.011719 649.582031 127.410156 646.96875 125.339844 L 646.070312 125.609375 L 645.441406 138.300781 L 645.980469 139.019531 C 646.96875 139.378906 647.960938 139.828125 648.949219 140.101562 C 651.019531 140.820312 656.332031 142.351562 663.082031 142.351562 C 665.78125 142.351562 672.621094 142.078125 678.019531 139.558594 C 685.582031 135.871094 688.820312 129.03125 688.820312 121.378906 C 688.820312 116.25 686.839844 110.761719 682.070312 107.070312 C 679.640625 105.269531 677.300781 104.191406 675.140625 103.199219 Z M 728.242188 140.371094 C 732.113281 124.078125 733.460938 119.398438 745.703125 77.640625 L 745.253906 77.191406 C 738.503906 77.460938 736.703125 77.460938 731.300781 77.460938 L 730.761719 78 C 729.050781 86.820312 728.601562 89.160156 726.082031 99.148438 L 723.203125 110.941406 L 719.332031 127.589844 L 714.5625 106.351562 L 712.671875 98.25 C 710.421875 88.980469 709.792969 85.921875 707.902344 77.191406 L 707.363281 76.738281 C 699.894531 77.28125 698.273438 77.371094 691.253906 77.371094 L 690.800781 77.910156 C 696.832031 98.699219 702.234375 117.78125 705.292969 129.660156 C 706.191406 133.351562 707.09375 137.039062 707.992188 140.730469 L 708.53125 141.269531 C 716.363281 141 718.34375 140.910156 727.703125 141 Z M 770.179688 116.25 C 776.210938 126.511719 777.5625 129.210938 783.320312 141 L 784.042969 141.449219 C 786.832031 141.269531 789.53125 141.089844 792.320312 141 C 795.113281 140.910156 797.992188 140.820312 800.78125 140.820312 L 801.320312 139.738281 C 797.902344 135.328125 796.910156 133.980469 790.429688 123.628906 C 787.550781 119.039062 786.113281 116.609375 783.863281 112.648438 C 787.910156 110.851562 796.101562 107.070312 796.101562 95.640625 C 796.101562 91.679688 795.019531 83.488281 787.640625 79.621094 C 782.960938 77.191406 778.101562 77.101562 767.570312 77.28125 L 761.269531 77.371094 L 750.292969 77.371094 L 749.839844 77.910156 C 750.203125 87 750.5625 96.359375 750.5625 120.839844 C 750.5625 129.210938 750.472656 133.261719 750.203125 140.730469 L 750.742188 141.269531 C 757.3125 141 758.75 140.910156 766.132812 141 L 766.671875 140.460938 C 765.953125 130.019531 765.863281 127.140625 765.769531 116.429688 L 770.179688 116.25 M 765.953125 88.261719 C 767.210938 88.171875 768.472656 88.171875 769.730469 88.171875 C 773.242188 88.171875 780.171875 88.171875 780.171875 96.089844 C 780.171875 98.609375 779.542969 101.941406 776.210938 104.011719 C 773.691406 105.539062 770.453125 105.71875 765.953125 105.808594 Z M 842.453125 77.191406 C 833.8125 77.460938 832.011719 77.460938 822.382812 77.460938 L 821.75 78 C 816.980469 93.300781 814.101562 102.390625 800.871094 140.371094 L 801.230469 141 L 815.269531 141 L 815.902344 140.460938 L 820.3125 124.078125 L 839.75 124.078125 L 843.621094 140.730469 L 844.25 141.269531 C 850.820312 141 852.621094 140.910156 859.910156 141 L 860.363281 140.28125 C 849.472656 101.761719 848.210938 97.53125 843.082031 77.730469 L 842.453125 77.191406 M 823.460938 113.191406 L 827.960938 97.980469 L 831.113281 87.449219 L 833.8125 99.148438 L 837.140625 113.191406 Z M 860.722656 141 "/>
</svg>
