<?xml version="1.0" encoding="UTF-8"?>
<svg xmlns="http://www.w3.org/2000/svg" xmlns:xlink="http://www.w3.org/1999/xlink" width="975" height="1300" viewBox="0 0 975 1300">
<path fill-rule="nonzero" fill="rgb(98.823529%, 78.823529%, 9.019608%)" fill-opacity="1" d="M 50 50 L 925 50 L 925 170 L 50 170 Z M 50 50 "/>
<path fill-rule="nonzero" fill="rgb(34.901961%, 14.901961%, 14.901961%)" fill-opacity="1" d="M 93.964844 77.28125 L 82.535156 77.460938 L 81.992188 78 C 82.355469 89.699219 82.625 97.53125 82.625 107.878906 C 82.625 118.859375 82.355469 129.75 82.082031 140.730469 L 82.625 141.269531 C 89.285156 141 90.722656 140.910156 97.925781 141 L 98.375 140.460938 C 98.015625 130.648438 98.015625 128.398438 98.015625 119.21875 C 108.09375 119.308594 118.894531 119.308594 125.375 111.390625 C 127.894531 108.328125 130.054688 103.199219 130.054688 96.898438 C 130.054688 93.03125 129.152344 84.480469 121.683594 80.25 C 116.285156 77.101562 108.632812 77.101562 101.882812 77.101562 L 93.964844 77.28125 M 98.015625 88.171875 C 99.992188 88.078125 101.882812 88.078125 103.863281 88.078125 C 111.785156 88.261719 113.945312 92.308594 113.945312 97.53125 C 113.945312 98.789062 113.945312 104.011719 109.175781 106.621094 C 106.742188 107.96875 103.414062 108.148438 98.015625 108.148438 Z M 176.222656 127.679688 C 172.804688 129.480469 168.753906 131.550781 162.183594 131.550781 C 156.785156 131.550781 153.09375 129.839844 150.933594 126.601562 C 149.582031 124.710938 149.3125 122.910156 148.953125 121.109375 L 178.023438 120.570312 L 178.5625 119.941406 C 178.472656 115.53125 178.382812 111.03125 177.125 106.53125 C 173.972656 95.910156 167.042969 93.75 163.984375 93.03125 C 161.734375 92.398438 159.664062 92.21875 157.59375 92.21875 C 143.464844 92.21875 134.101562 101.488281 134.101562 117.058594 C 134.101562 121.289062 134.824219 125.699219 136.261719 128.851562 C 141.484375 141 153.722656 142.078125 160.203125 142.078125 C 167.671875 142.078125 170.914062 140.730469 175.683594 138.839844 L 176.222656 138.121094 L 176.851562 127.949219 L 176.222656 127.679688 M 148.953125 111.570312 C 149.222656 108.78125 149.851562 105 153.273438 102.839844 C 154.351562 102.121094 155.613281 101.851562 156.875 101.851562 C 159.84375 101.851562 161.644531 103.378906 162.632812 105 C 163.894531 106.980469 163.984375 109.140625 163.984375 111.210938 Z M 202.683594 140.371094 C 202.234375 130.019531 201.785156 120.570312 201.785156 92.128906 C 201.785156 83.578125 201.875 79.53125 202.234375 69.808594 L 201.605469 69.179688 L 186.214844 71.609375 L 185.855469 72.148438 C 186.753906 83.128906 186.84375 86.101562 187.023438 100.679688 C 187.117188 105.988281 187.117188 111.300781 187.117188 116.609375 C 187.117188 126.328125 186.933594 131.730469 186.574219 140.640625 L 187.117188 141.269531 C 193.144531 141 195.574219 140.910156 202.144531 141 Z M 229.414062 140.371094 C 228.960938 133.441406 228.601562 128.128906 228.601562 115.710938 C 228.601562 108.058594 228.78125 100.320312 228.871094 92.671875 L 228.242188 91.949219 L 212.761719 94.648438 L 212.222656 95.191406 C 212.941406 102.03125 213.210938 105.179688 213.210938 117.960938 C 213.210938 127.769531 212.941406 133.261719 212.671875 140.640625 L 213.210938 141.269531 C 219.691406 141 221.492188 140.910156 228.78125 141 L 229.414062 140.371094 M 227.972656 83.308594 L 228.242188 71.070312 L 227.703125 70.53125 L 213.03125 72.328125 L 212.492188 72.960938 C 212.671875 76.199219 212.761719 78.089844 212.761719 80.25 C 212.761719 81.960938 212.761719 83.761719 212.671875 85.46875 L 213.300781 86.011719 C 219.421875 84.929688 221.132812 84.75 227.523438 83.941406 Z M 274.59375 128.039062 C 272.164062 129.480469 269.824219 130.921875 265.234375 130.921875 C 255.0625 130.921875 252.992188 122.460938 252.992188 117.058594 C 252.992188 110.488281 255.875 102.929688 264.605469 102.929688 C 268.5625 102.929688 270.722656 104.371094 273.425781 106.171875 L 274.324219 105.898438 C 274.683594 101.128906 274.773438 99.871094 275.492188 95.101562 L 275.042969 94.558594 C 271.082031 93.300781 267.664062 92.21875 262.445312 92.21875 C 241.292969 92.21875 237.152344 108.238281 237.152344 117.421875 C 237.152344 127.769531 242.554688 141.808594 262.804688 141.808594 C 267.574219 141.808594 270.632812 140.910156 274.414062 139.828125 L 274.953125 139.289062 L 275.3125 128.488281 Z M 322.5625 114.179688 C 322.652344 106.078125 322.652344 102.570312 320.3125 98.789062 C 318.511719 95.910156 314.914062 92.308594 303.394531 92.308594 C 295.652344 92.308594 290.882812 93.75 285.753906 95.28125 L 285.214844 96 L 284.761719 105.808594 L 285.484375 106.171875 C 288.632812 104.910156 294.484375 102.570312 300.511719 102.570312 C 303.84375 102.570312 305.191406 103.109375 306.363281 104.28125 C 307.261719 105.179688 307.535156 106.800781 307.535156 108.148438 C 296.734375 109.589844 291.691406 110.578125 286.292969 113.910156 C 281.253906 117.058594 279.542969 122.191406 279.542969 126.238281 C 279.542969 135.871094 286.472656 142.078125 295.292969 142.078125 C 302.042969 142.078125 305.914062 138.839844 307.804688 137.308594 L 307.804688 140.640625 L 308.34375 141.269531 C 314.824219 141 316.804688 140.910156 322.652344 141 L 323.101562 140.371094 C 322.472656 131.550781 322.472656 129.300781 322.472656 120.839844 L 322.5625 114.179688 M 307.714844 128.488281 C 305.824219 129.570312 303.394531 130.828125 300.421875 130.828125 C 297.183594 130.828125 294.484375 129.121094 294.484375 125.339844 C 294.484375 119.398438 301.59375 118.410156 307.714844 117.601562 Z M 377.195312 140.371094 C 376.746094 132.449219 376.746094 129.929688 376.566406 121.109375 L 376.566406 114.089844 C 376.476562 105.449219 376.386719 101.308594 374.136719 97.621094 C 371.34375 92.941406 366.214844 92.21875 362.976562 92.21875 C 357.484375 92.21875 352.714844 95.101562 348.574219 97.53125 L 348.753906 92.578125 L 347.855469 91.949219 C 340.925781 93.390625 339.394531 93.660156 332.644531 94.558594 L 332.105469 95.191406 C 332.824219 103.019531 333.367188 108.691406 333.367188 123.359375 C 333.367188 129.121094 333.273438 134.878906 333.183594 140.640625 L 333.726562 141.179688 C 340.207031 140.910156 341.554688 140.910156 348.753906 140.910156 L 349.296875 140.371094 C 348.753906 126.511719 348.664062 123 348.574219 106.890625 C 350.464844 105.628906 352.625 104.101562 355.503906 104.101562 C 360.457031 104.101562 360.90625 109.410156 361.175781 112.648438 C 361.355469 115.621094 361.445312 127.949219 361.445312 131.371094 C 361.445312 134.429688 361.355469 137.578125 361.355469 140.640625 L 361.894531 141.179688 C 367.835938 141 369.367188 140.910156 376.566406 140.910156 Z M 439.742188 102.300781 C 432.183594 99.148438 428.222656 97.53125 428.222656 93.480469 C 428.222656 90.691406 430.832031 87.179688 436.773438 87.179688 C 443.613281 87.179688 447.660156 89.96875 450.992188 92.21875 L 451.800781 91.859375 L 452.523438 80.070312 L 452.070312 79.441406 C 448.203125 77.820312 444.152344 76.109375 435.421875 76.109375 C 418.503906 76.109375 412.652344 85.648438 412.652344 95.28125 C 412.652344 106.171875 421.113281 110.128906 426.152344 112.558594 L 429.121094 113.910156 C 435.332031 116.519531 440.101562 118.769531 440.101562 123.539062 C 440.101562 126.960938 437.132812 131.011719 429.300781 131.011719 C 421.113281 131.011719 416.523438 127.410156 413.910156 125.339844 L 413.011719 125.609375 L 412.382812 138.300781 L 412.921875 139.019531 C 413.910156 139.378906 414.902344 139.828125 415.890625 140.101562 C 417.960938 140.820312 423.273438 142.351562 430.023438 142.351562 C 432.722656 142.351562 439.5625 142.078125 444.960938 139.558594 C 452.523438 135.871094 455.761719 129.03125 455.761719 121.378906 C 455.761719 116.25 453.78125 110.761719 449.011719 107.070312 C 446.582031 105.269531 444.242188 104.191406 442.082031 103.199219 Z M 489.515625 130.648438 C 487.984375 131.101562 486.902344 131.460938 485.375 131.460938 C 480.785156 131.460938 480.425781 128.578125 480.242188 127.230469 C 479.972656 124.890625 479.972656 119.941406 480.0625 116.339844 L 480.242188 103.648438 L 488.34375 104.011719 L 488.882812 103.46875 L 489.785156 93.839844 L 489.242188 93.300781 L 480.242188 93.300781 L 480.515625 78.179688 L 479.882812 77.640625 C 473.765625 79.441406 472.144531 79.890625 465.753906 81.511719 L 465.394531 82.140625 L 465.484375 93.390625 L 460.625 93.210938 L 460.085938 93.660156 L 459.273438 103.289062 L 459.8125 103.828125 L 465.484375 103.648438 L 465.214844 117.960938 C 465.125 120.210938 465.035156 122.460938 465.035156 124.800781 C 465.035156 133.078125 465.214844 141.988281 479.253906 141.988281 C 482.765625 141.988281 485.554688 141.449219 488.703125 140.910156 L 489.335938 140.28125 L 490.234375 131.011719 Z M 536.222656 114.179688 C 536.3125 106.078125 536.3125 102.570312 533.972656 98.789062 C 532.171875 95.910156 528.574219 92.308594 517.054688 92.308594 C 509.3125 92.308594 504.542969 93.75 499.414062 95.28125 L 498.875 96 L 498.421875 105.808594 L 499.144531 106.171875 C 502.292969 104.910156 508.144531 102.570312 514.171875 102.570312 C 517.503906 102.570312 518.851562 103.109375 520.023438 104.28125 C 520.921875 105.179688 521.195312 106.800781 521.195312 108.148438 C 510.394531 109.589844 505.351562 110.578125 499.953125 113.910156 C 494.914062 117.058594 493.203125 122.191406 493.203125 126.238281 C 493.203125 135.871094 500.132812 142.078125 508.953125 142.078125 C 515.703125 142.078125 519.574219 138.839844 521.464844 137.308594 L 521.464844 140.640625 L 522.003906 141.269531 C 528.484375 141 530.464844 140.910156 536.3125 141 L 536.761719 140.371094 C 536.132812 131.550781 536.132812 129.300781 536.132812 120.839844 L 536.222656 114.179688 M 521.375 128.488281 C 519.484375 129.570312 517.054688 130.828125 514.082031 130.828125 C 510.84375 130.828125 508.144531 129.121094 508.144531 125.339844 C 508.144531 119.398438 515.253906 118.410156 521.375 117.601562 Z M 571.957031 130.648438 C 570.425781 131.101562 569.34375 131.460938 567.816406 131.460938 C 563.226562 131.460938 562.867188 128.578125 562.683594 127.230469 C 562.414062 124.890625 562.414062 119.941406 562.503906 116.339844 L 562.683594 103.648438 L 570.785156 104.011719 L 571.324219 103.46875 L 572.226562 93.839844 L 571.683594 93.300781 L 562.683594 93.300781 L 562.957031 78.179688 L 562.324219 77.640625 C 556.207031 79.441406 554.585938 79.890625 548.195312 81.511719 L 547.835938 82.140625 L 547.925781 93.390625 L 543.066406 93.210938 L 542.527344 93.660156 L 541.714844 103.289062 L 542.253906 103.828125 L 547.925781 103.648438 L 547.65625 117.960938 C 547.566406 120.210938 547.476562 122.460938 547.476562 124.800781 C 547.476562 133.078125 547.65625 141.988281 561.695312 141.988281 C 565.207031 141.988281 567.996094 141.449219 571.144531 140.910156 L 571.777344 140.28125 L 572.675781 131.011719 Z M 618.574219 127.679688 C 615.15625 129.480469 611.105469 131.550781 604.535156 131.550781 C 599.136719 131.550781 595.445312 129.839844 593.285156 126.601562 C 591.933594 124.710938 591.664062 122.910156 591.304688 121.109375 L 620.375 120.570312 L 620.914062 119.941406 C 620.824219 115.53125 620.734375 111.03125 619.476562 106.53125 C 616.324219 95.910156 609.394531 93.75 606.335938 93.03125 C 604.085938 92.398438 602.015625 92.21875 599.945312 92.21875 C 585.816406 92.21875 576.453125 101.488281 576.453125 117.058594 C 576.453125 121.289062 577.175781 125.699219 578.613281 128.851562 C 583.835938 141 596.074219 142.078125 602.554688 142.078125 C 610.023438 142.078125 613.265625 140.730469 618.035156 138.839844 L 618.574219 138.121094 L 619.203125 127.949219 L 618.574219 127.679688 M 591.304688 111.570312 C 591.574219 108.78125 592.203125 105 595.625 102.839844 C 596.703125 102.121094 597.964844 101.851562 599.226562 101.851562 C 602.195312 101.851562 603.996094 103.378906 604.984375 105 C 606.246094 106.980469 606.335938 109.140625 606.335938 111.210938 Z M 672.214844 141 C 680.585938 141.179688 690.933594 141.359375 697.683594 136.679688 C 703.625 132.449219 705.246094 126.511719 705.246094 121.46875 C 705.246094 115.710938 702.8125 110.398438 697.683594 107.878906 C 695.972656 106.980469 693.996094 106.621094 692.105469 106.261719 C 695.164062 105 698.765625 103.378906 701.105469 98.609375 C 702.09375 96.539062 702.542969 94.378906 702.542969 92.308594 C 702.542969 89.429688 701.824219 85.46875 698.945312 82.230469 C 695.164062 78.179688 689.3125 77.101562 680.496094 77.101562 C 677.433594 77.101562 671.945312 77.191406 668.882812 77.28125 L 656.285156 77.460938 L 655.746094 78 C 656.105469 86.640625 656.195312 89.96875 656.195312 102.390625 C 656.195312 115.171875 656.105469 127.859375 655.925781 140.640625 L 656.554688 141 L 672.214844 141 M 671.585938 113.640625 C 678.425781 113.460938 682.382812 113.460938 684.996094 114.988281 C 687.605469 116.609375 688.59375 119.488281 688.59375 122.371094 C 688.59375 126.421875 686.34375 128.941406 683.015625 130.109375 C 680.3125 131.011719 675.453125 131.011719 671.585938 130.921875 L 671.585938 113.640625 M 671.585938 87.179688 C 673.472656 87.179688 675.996094 87.089844 677.523438 87.089844 C 682.382812 87.089844 686.792969 88.800781 686.792969 94.648438 C 686.792969 99.421875 683.285156 101.398438 682.203125 101.941406 C 679.953125 102.929688 675.183594 102.929688 671.585938 102.929688 Z M 753.574219 127.679688 C 750.15625 129.480469 746.105469 131.550781 739.535156 131.550781 C 734.136719 131.550781 730.445312 129.839844 728.285156 126.601562 C 726.933594 124.710938 726.664062 122.910156 726.304688 121.109375 L 755.375 120.570312 L 755.914062 119.941406 C 755.824219 115.53125 755.734375 111.03125 754.476562 106.53125 C 751.324219 95.910156 744.394531 93.75 741.335938 93.03125 C 739.085938 92.398438 737.015625 92.21875 734.945312 92.21875 C 720.816406 92.21875 711.453125 101.488281 711.453125 117.058594 C 711.453125 121.289062 712.175781 125.699219 713.613281 128.851562 C 718.835938 141 731.074219 142.078125 737.554688 142.078125 C 745.023438 142.078125 748.265625 140.730469 753.035156 138.839844 L 753.574219 138.121094 L 754.203125 127.949219 L 753.574219 127.679688 M 726.304688 111.570312 C 726.574219 108.78125 727.203125 105 730.625 102.839844 C 731.703125 102.121094 732.964844 101.851562 734.226562 101.851562 C 737.195312 101.851562 738.996094 103.378906 739.984375 105 C 741.246094 106.980469 741.335938 109.140625 741.335938 111.210938 Z M 804.242188 114.179688 C 804.332031 106.078125 804.332031 102.570312 801.992188 98.789062 C 800.191406 95.910156 796.59375 92.308594 785.074219 92.308594 C 777.332031 92.308594 772.5625 93.75 767.433594 95.28125 L 766.894531 96 L 766.441406 105.808594 L 767.164062 106.171875 C 770.3125 104.910156 776.164062 102.570312 782.191406 102.570312 C 785.523438 102.570312 786.871094 103.109375 788.042969 104.28125 C 788.941406 105.179688 789.214844 106.800781 789.214844 108.148438 C 778.414062 109.589844 773.371094 110.578125 767.972656 113.910156 C 762.933594 117.058594 761.222656 122.191406 761.222656 126.238281 C 761.222656 135.871094 768.152344 142.078125 776.972656 142.078125 C 783.722656 142.078125 787.59375 138.839844 789.484375 137.308594 L 789.484375 140.640625 L 790.023438 141.269531 C 796.503906 141 798.484375 140.910156 804.332031 141 L 804.78125 140.371094 C 804.152344 131.550781 804.152344 129.300781 804.152344 120.839844 L 804.242188 114.179688 M 789.394531 128.488281 C 787.503906 129.570312 785.074219 130.828125 782.101562 130.828125 C 778.863281 130.828125 776.164062 129.121094 776.164062 125.339844 C 776.164062 119.398438 783.273438 118.410156 789.394531 117.601562 Z M 849.964844 128.039062 C 847.535156 129.480469 845.195312 130.921875 840.605469 130.921875 C 830.433594 130.921875 828.363281 122.460938 828.363281 117.058594 C 828.363281 110.488281 831.246094 102.929688 839.976562 102.929688 C 843.933594 102.929688 846.09375 104.371094 848.796875 106.171875 L 849.695312 105.898438 C 850.054688 101.128906 850.144531 99.871094 850.863281 95.101562 L 850.414062 94.558594 C 846.453125 93.300781 843.035156 92.21875 837.816406 92.21875 C 816.664062 92.21875 812.523438 108.238281 812.523438 117.421875 C 812.523438 127.769531 817.925781 141.808594 838.175781 141.808594 C 842.945312 141.808594 846.003906 140.910156 849.785156 139.828125 L 850.324219 139.289062 L 850.683594 128.488281 Z M 901.984375 140.371094 C 901.625 132.988281 901.535156 130.46875 901.355469 121.109375 L 901.355469 114.359375 C 901.265625 105.808594 901.175781 100.859375 898.5625 97.078125 C 895.953125 93.390625 892.175781 92.21875 888.214844 92.21875 C 881.644531 92.21875 876.515625 95.371094 872.914062 97.53125 L 873.183594 69.808594 L 872.644531 69.179688 L 857.253906 71.609375 L 856.804688 72.148438 C 857.613281 80.878906 857.792969 84.121094 857.972656 95.730469 C 858.15625 103.019531 858.246094 110.308594 858.246094 117.601562 C 858.246094 126.511719 858.0625 131.820312 857.882812 140.640625 L 858.335938 141.269531 C 864.996094 140.910156 866.34375 140.910156 873.632812 140.910156 L 874.175781 140.371094 C 873.542969 126.871094 873.453125 122.820312 873.363281 106.890625 C 875.074219 105.71875 877.234375 104.191406 880.292969 104.191406 C 885.246094 104.191406 885.605469 109.320312 885.964844 112.921875 C 886.144531 115.710938 886.234375 128.488281 886.234375 131.820312 C 886.234375 134.789062 886.144531 137.671875 886.144531 140.640625 L 886.59375 141.269531 C 893.074219 140.910156 894.515625 140.910156 901.445312 140.910156 Z M 906.84375 141 "/>
</svg>
