<?xml version="1.0" encoding="UTF-8"?>
<svg xmlns="http://www.w3.org/2000/svg" xmlns:xlink="http://www.w3.org/1999/xlink" width="975" height="1300" viewBox="0 0 975 1300">
<path fill-rule="nonzero" fill="rgb(98.823529%, 78.823529%, 9.019608%)" fill-opacity="1" d="M 50 50 L 925 50 L 925 170 L 50 170 Z M 50 50 "/>
<path fill-rule="nonzero" fill="rgb(34.901961%, 14.901961%, 14.901961%)" fill-opacity="1" d="M 106.113281 102.300781 C 98.554688 99.148438 94.59375 97.53125 94.59375 93.480469 C 94.59375 90.691406 97.203125 87.179688 103.144531 87.179688 C 109.984375 87.179688 114.03125 89.96875 117.363281 92.21875 L 118.171875 91.859375 L 118.894531 80.070312 L 118.441406 79.441406 C 114.574219 77.820312 110.523438 76.109375 101.792969 76.109375 C 84.875 76.109375 79.023438 85.648438 79.023438 95.28125 C 79.023438 106.171875 87.484375 110.128906 92.523438 112.558594 L 95.492188 113.910156 C 101.703125 116.519531 106.472656 118.769531 106.472656 123.539062 C 106.472656 126.960938 103.503906 131.011719 95.671875 131.011719 C 87.484375 131.011719 82.894531 127.410156 80.28125 125.339844 L 79.382812 125.609375 L 78.753906 138.300781 L 79.292969 139.019531 C 80.28125 139.378906 81.273438 139.828125 82.261719 140.101562 C 84.332031 140.820312 89.644531 142.351562 96.394531 142.351562 C 99.09375 142.351562 105.933594 142.078125 111.332031 139.558594 C 118.894531 135.871094 122.132812 129.03125 122.132812 121.378906 C 122.132812 116.25 120.152344 110.761719 115.382812 107.070312 C 112.953125 105.269531 110.613281 104.191406 108.453125 103.199219 Z M 173.882812 92.851562 L 159.210938 93.570312 L 158.582031 94.109375 C 159.210938 104.28125 159.210938 118.679688 159.210938 120.121094 C 159.210938 122.730469 159.210938 124.171875 159.121094 127.769531 C 156.691406 129.390625 154.800781 130.738281 152.371094 130.738281 C 145.890625 130.738281 145.890625 123.898438 145.890625 118.589844 C 145.890625 116.339844 145.890625 114 145.980469 111.75 L 146.160156 93.570312 L 145.53125 92.851562 L 130.679688 93.570312 L 130.050781 94.109375 C 130.589844 101.671875 130.679688 104.191406 130.679688 113.28125 L 130.679688 119.578125 C 130.589844 129.390625 131.042969 133.53125 134.28125 137.308594 C 137.25 140.640625 141.570312 142.078125 146.070312 142.078125 C 152.460938 142.078125 156.152344 139.199219 159.390625 136.679688 L 159.300781 140.730469 L 159.929688 141.269531 C 166.5 141 168.480469 141 174.332031 141 L 174.871094 140.460938 C 174.421875 134.070312 174.242188 130.648438 174.242188 118.949219 C 174.242188 110.488281 174.332031 102.03125 174.511719 93.570312 Z M 225.003906 127.679688 C 221.585938 129.480469 217.535156 131.550781 210.964844 131.550781 C 205.566406 131.550781 201.875 129.839844 199.714844 126.601562 C 198.363281 124.710938 198.09375 122.910156 197.734375 121.109375 L 226.804688 120.570312 L 227.34375 119.941406 C 227.253906 115.53125 227.164062 111.03125 225.90625 106.53125 C 222.753906 95.910156 215.824219 93.75 212.765625 93.03125 C 210.515625 92.398438 208.445312 92.21875 206.375 92.21875 C 192.246094 92.21875 182.882812 101.488281 182.882812 117.058594 C 182.882812 121.289062 183.605469 125.699219 185.042969 128.851562 C 190.265625 141 202.503906 142.078125 208.984375 142.078125 C 216.453125 142.078125 219.695312 140.730469 224.464844 138.839844 L 225.003906 138.121094 L 225.632812 127.949219 L 225.003906 127.679688 M 197.734375 111.570312 C 198.003906 108.78125 198.632812 105 202.054688 102.839844 C 203.132812 102.121094 204.394531 101.851562 205.65625 101.851562 C 208.625 101.851562 210.425781 103.378906 211.414062 105 C 212.675781 106.980469 212.765625 109.140625 212.765625 111.210938 Z M 260.460938 109.769531 C 256.144531 109.859375 252.632812 109.949219 247.324219 109.949219 C 243.003906 109.949219 238.683594 109.859375 234.453125 109.859375 L 233.824219 110.398438 L 233.28125 120.75 L 233.734375 121.289062 C 238.773438 121.199219 241.742188 121.109375 246.511719 121.109375 C 250.921875 121.109375 255.332031 121.199219 259.742188 121.199219 L 260.28125 120.660156 L 260.914062 110.21875 Z M 339.664062 140.371094 C 339.210938 132 339.121094 129.660156 339.121094 119.488281 L 339.121094 112.738281 C 339.210938 106.710938 339.300781 101.128906 336.691406 97.351562 C 333.183594 92.21875 326.972656 92.21875 325.53125 92.21875 C 318.152344 92.21875 313.203125 95.550781 309.601562 98.070312 C 308.34375 96 306.09375 92.21875 298.894531 92.21875 C 292.953125 92.21875 289.082031 94.921875 284.941406 97.800781 L 284.941406 92.761719 L 284.132812 91.949219 C 277.113281 93.300781 275.132812 93.660156 268.832031 94.558594 L 268.292969 95.191406 C 269.011719 102.390625 269.550781 107.339844 269.550781 125.160156 C 269.550781 130.289062 269.460938 135.511719 269.460938 140.640625 L 269.914062 141.179688 C 275.671875 141 277.652344 140.910156 285.121094 140.910156 L 285.664062 140.371094 C 285.03125 126.511719 284.941406 122.371094 284.851562 106.710938 C 286.742188 105.359375 288.8125 104.191406 291.0625 104.191406 C 296.644531 104.191406 296.824219 110.578125 296.824219 118.320312 C 296.824219 131.371094 296.734375 133.351562 296.550781 140.640625 L 297.09375 141.269531 C 303.933594 140.910156 305.824219 140.910156 312.03125 140.910156 L 312.574219 140.371094 C 312.03125 131.820312 311.941406 129.300781 311.851562 118.410156 L 311.851562 115.078125 L 311.761719 105.988281 C 313.292969 105 315.273438 103.738281 317.972656 103.738281 C 323.101562 103.738281 323.914062 108.601562 323.914062 116.339844 C 323.914062 118.050781 323.824219 119.761719 323.824219 121.46875 C 323.734375 124.53125 323.644531 137.941406 323.550781 140.640625 L 324.09375 141.179688 C 330.84375 140.910156 332.824219 140.910156 339.121094 140.910156 Z M 389.972656 127.679688 C 386.554688 129.480469 382.503906 131.550781 375.933594 131.550781 C 370.535156 131.550781 366.84375 129.839844 364.683594 126.601562 C 363.332031 124.710938 363.0625 122.910156 362.703125 121.109375 L 391.773438 120.570312 L 392.3125 119.941406 C 392.222656 115.53125 392.132812 111.03125 390.875 106.53125 C 387.722656 95.910156 380.792969 93.75 377.734375 93.03125 C 375.484375 92.398438 373.414062 92.21875 371.34375 92.21875 C 357.214844 92.21875 347.851562 101.488281 347.851562 117.058594 C 347.851562 121.289062 348.574219 125.699219 350.011719 128.851562 C 355.234375 141 367.472656 142.078125 373.953125 142.078125 C 381.421875 142.078125 384.664062 140.730469 389.433594 138.839844 L 389.972656 138.121094 L 390.601562 127.949219 L 389.972656 127.679688 M 362.703125 111.570312 C 362.972656 108.78125 363.601562 105 367.023438 102.839844 C 368.101562 102.121094 369.363281 101.851562 370.625 101.851562 C 373.59375 101.851562 375.394531 103.378906 376.382812 105 C 377.644531 106.980469 377.734375 109.140625 377.734375 111.210938 Z M 417.152344 125.789062 C 420.03125 125.878906 422.910156 126.058594 427.230469 124.621094 C 431.910156 123 438.75 119.128906 438.75 110.398438 C 438.75 106.078125 437.492188 104.28125 436.320312 102.570312 L 442.53125 102.929688 L 443.070312 102.480469 L 443.703125 93.480469 L 443.160156 93.03125 C 436.230469 93.300781 434.339844 93.390625 428.671875 93.300781 L 424.53125 93.210938 C 418.140625 93.03125 409.589844 92.851562 403.742188 97.710938 C 401.761719 99.238281 397.980469 103.109375 397.980469 109.859375 C 397.980469 113.460938 398.972656 116.339844 400.589844 118.589844 C 402.570312 121.378906 404.371094 122.371094 406.621094 123.628906 C 404.101562 128.488281 402.75 130.921875 400.679688 134.609375 L 400.679688 135.421875 L 404.460938 138.121094 C 401.761719 140.191406 397.53125 143.609375 397.53125 149.460938 C 397.53125 153.601562 399.78125 157.199219 403.113281 159.628906 C 408.152344 163.230469 414.992188 163.410156 418.5 163.410156 C 434.972656 163.410156 442.53125 155.128906 442.53125 146.398438 C 442.53125 135.058594 432.632812 132.898438 426.78125 131.550781 L 424.621094 131.191406 C 420.210938 130.46875 419.222656 130.199219 415.710938 128.941406 L 417.152344 125.789062 M 424.53125 109.589844 C 424.441406 116.878906 420.03125 117.511719 418.769531 117.511719 C 418.050781 117.511719 414.902344 117.328125 413.371094 113.730469 C 412.5625 111.839844 412.5625 109.679688 412.5625 109.050781 C 412.5625 104.550781 415.261719 101.671875 418.589844 101.671875 C 422.730469 101.671875 424.621094 105.628906 424.53125 109.589844 M 416.882812 143.160156 C 424.890625 145.230469 424.980469 145.230469 426.0625 146.128906 C 426.960938 146.761719 427.863281 147.75 427.863281 149.640625 C 427.863281 152.339844 425.613281 155.128906 419.671875 155.128906 C 413.011719 155.128906 410.761719 151.351562 410.761719 148.199219 C 410.761719 145.230469 412.292969 143.519531 413.371094 142.261719 Z M 501.664062 102.300781 C 494.105469 99.148438 490.144531 97.53125 490.144531 93.480469 C 490.144531 90.691406 492.753906 87.179688 498.695312 87.179688 C 505.535156 87.179688 509.582031 89.96875 512.914062 92.21875 L 513.722656 91.859375 L 514.445312 80.070312 L 513.992188 79.441406 C 510.125 77.820312 506.074219 76.109375 497.34375 76.109375 C 480.425781 76.109375 474.574219 85.648438 474.574219 95.28125 C 474.574219 106.171875 483.035156 110.128906 488.074219 112.558594 L 491.042969 113.910156 C 497.253906 116.519531 502.023438 118.769531 502.023438 123.539062 C 502.023438 126.960938 499.054688 131.011719 491.222656 131.011719 C 483.035156 131.011719 478.445312 127.410156 475.832031 125.339844 L 474.933594 125.609375 L 474.304688 138.300781 L 474.84375 139.019531 C 475.832031 139.378906 476.824219 139.828125 477.8125 140.101562 C 479.882812 140.820312 485.195312 142.351562 491.945312 142.351562 C 494.644531 142.351562 501.484375 142.078125 506.882812 139.558594 C 514.445312 135.871094 517.683594 129.03125 517.683594 121.378906 C 517.683594 116.25 515.703125 110.761719 510.933594 107.070312 C 508.503906 105.269531 506.164062 104.191406 504.003906 103.199219 Z M 551.433594 130.648438 C 549.902344 131.101562 548.820312 131.460938 547.292969 131.460938 C 542.703125 131.460938 542.34375 128.578125 542.160156 127.230469 C 541.890625 124.890625 541.890625 119.941406 541.980469 116.339844 L 542.160156 103.648438 L 550.261719 104.011719 L 550.800781 103.46875 L 551.703125 93.839844 L 551.160156 93.300781 L 542.160156 93.300781 L 542.433594 78.179688 L 541.800781 77.640625 C 535.683594 79.441406 534.0625 79.890625 527.671875 81.511719 L 527.3125 82.140625 L 527.402344 93.390625 L 522.542969 93.210938 L 522.003906 93.660156 L 521.191406 103.289062 L 521.730469 103.828125 L 527.402344 103.648438 L 527.132812 117.960938 C 527.042969 120.210938 526.953125 122.460938 526.953125 124.800781 C 526.953125 133.078125 527.132812 141.988281 541.171875 141.988281 C 544.683594 141.988281 547.472656 141.449219 550.621094 140.910156 L 551.253906 140.28125 L 552.152344 131.011719 Z M 598.140625 114.179688 C 598.230469 106.078125 598.230469 102.570312 595.890625 98.789062 C 594.089844 95.910156 590.492188 92.308594 578.972656 92.308594 C 571.230469 92.308594 566.460938 93.75 561.332031 95.28125 L 560.792969 96 L 560.339844 105.808594 L 561.0625 106.171875 C 564.210938 104.910156 570.0625 102.570312 576.089844 102.570312 C 579.421875 102.570312 580.769531 103.109375 581.941406 104.28125 C 582.839844 105.179688 583.113281 106.800781 583.113281 108.148438 C 572.3125 109.589844 567.269531 110.578125 561.871094 113.910156 C 556.832031 117.058594 555.121094 122.191406 555.121094 126.238281 C 555.121094 135.871094 562.050781 142.078125 570.871094 142.078125 C 577.621094 142.078125 581.492188 138.839844 583.382812 137.308594 L 583.382812 140.640625 L 583.921875 141.269531 C 590.402344 141 592.382812 140.910156 598.230469 141 L 598.679688 140.371094 C 598.050781 131.550781 598.050781 129.300781 598.050781 120.839844 L 598.140625 114.179688 M 583.292969 128.488281 C 581.402344 129.570312 578.972656 130.828125 576 130.828125 C 572.761719 130.828125 570.0625 129.121094 570.0625 125.339844 C 570.0625 119.398438 577.171875 118.410156 583.292969 117.601562 Z M 633.875 130.648438 C 632.34375 131.101562 631.261719 131.460938 629.734375 131.460938 C 625.144531 131.460938 624.785156 128.578125 624.601562 127.230469 C 624.332031 124.890625 624.332031 119.941406 624.421875 116.339844 L 624.601562 103.648438 L 632.703125 104.011719 L 633.242188 103.46875 L 634.144531 93.839844 L 633.601562 93.300781 L 624.601562 93.300781 L 624.875 78.179688 L 624.242188 77.640625 C 618.125 79.441406 616.503906 79.890625 610.113281 81.511719 L 609.753906 82.140625 L 609.84375 93.390625 L 604.984375 93.210938 L 604.445312 93.660156 L 603.632812 103.289062 L 604.171875 103.828125 L 609.84375 103.648438 L 609.574219 117.960938 C 609.484375 120.210938 609.394531 122.460938 609.394531 124.800781 C 609.394531 133.078125 609.574219 141.988281 623.613281 141.988281 C 627.125 141.988281 629.914062 141.449219 633.0625 140.910156 L 633.695312 140.28125 L 634.59375 131.011719 Z M 680.492188 127.679688 C 677.074219 129.480469 673.023438 131.550781 666.453125 131.550781 C 661.054688 131.550781 657.363281 129.839844 655.203125 126.601562 C 653.851562 124.710938 653.582031 122.910156 653.222656 121.109375 L 682.292969 120.570312 L 682.832031 119.941406 C 682.742188 115.53125 682.652344 111.03125 681.394531 106.53125 C 678.242188 95.910156 671.3125 93.75 668.253906 93.03125 C 666.003906 92.398438 663.933594 92.21875 661.863281 92.21875 C 647.734375 92.21875 638.371094 101.488281 638.371094 117.058594 C 638.371094 121.289062 639.09375 125.699219 640.53125 128.851562 C 645.753906 141 657.992188 142.078125 664.472656 142.078125 C 671.941406 142.078125 675.183594 140.730469 679.953125 138.839844 L 680.492188 138.121094 L 681.121094 127.949219 L 680.492188 127.679688 M 653.222656 111.570312 C 653.492188 108.78125 654.121094 105 657.542969 102.839844 C 658.621094 102.121094 659.882812 101.851562 661.144531 101.851562 C 664.113281 101.851562 665.914062 103.378906 666.902344 105 C 668.164062 106.980469 668.253906 109.140625 668.253906 111.210938 Z M 729.453125 77.28125 L 718.023438 77.460938 L 717.480469 78 C 717.84375 89.699219 718.113281 97.53125 718.113281 107.878906 C 718.113281 118.859375 717.84375 129.75 717.570312 140.730469 L 718.113281 141.269531 C 724.773438 141 726.210938 140.910156 733.414062 141 L 733.863281 140.460938 C 733.503906 130.648438 733.503906 128.398438 733.503906 119.21875 C 743.582031 119.308594 754.382812 119.308594 760.863281 111.390625 C 763.382812 108.328125 765.542969 103.199219 765.542969 96.898438 C 765.542969 93.03125 764.640625 84.480469 757.171875 80.25 C 751.773438 77.101562 744.121094 77.101562 737.371094 77.101562 L 729.453125 77.28125 M 733.503906 88.171875 C 735.480469 88.078125 737.371094 88.078125 739.351562 88.078125 C 747.273438 88.261719 749.433594 92.308594 749.433594 97.53125 C 749.433594 98.789062 749.433594 104.011719 744.664062 106.621094 C 742.230469 107.96875 738.902344 108.148438 733.503906 108.148438 Z M 811.800781 114.179688 C 811.890625 106.078125 811.890625 102.570312 809.550781 98.789062 C 807.75 95.910156 804.152344 92.308594 792.632812 92.308594 C 784.890625 92.308594 780.121094 93.75 774.992188 95.28125 L 774.453125 96 L 774 105.808594 L 774.722656 106.171875 C 777.871094 104.910156 783.722656 102.570312 789.75 102.570312 C 793.082031 102.570312 794.429688 103.109375 795.601562 104.28125 C 796.5 105.179688 796.773438 106.800781 796.773438 108.148438 C 785.972656 109.589844 780.929688 110.578125 775.53125 113.910156 C 770.492188 117.058594 768.78125 122.191406 768.78125 126.238281 C 768.78125 135.871094 775.710938 142.078125 784.53125 142.078125 C 791.28125 142.078125 795.152344 138.839844 797.042969 137.308594 L 797.042969 140.640625 L 797.582031 141.269531 C 804.0625 141 806.042969 140.910156 811.890625 141 L 812.339844 140.371094 C 811.710938 131.550781 811.710938 129.300781 811.710938 120.839844 L 811.800781 114.179688 M 796.953125 128.488281 C 795.0625 129.570312 792.632812 130.828125 789.660156 130.828125 C 786.421875 130.828125 783.722656 129.121094 783.722656 125.339844 C 783.722656 119.398438 790.832031 118.410156 796.953125 117.601562 Z M 848.34375 107.609375 L 850.863281 92.941406 L 850.324219 92.308594 C 849.695312 92.308594 849.0625 92.21875 848.433594 92.21875 C 844.742188 92.21875 840.605469 94.289062 837.722656 100.949219 L 837.992188 92.671875 L 837.273438 91.949219 C 830.613281 93.390625 828.902344 93.660156 822.332031 94.648438 L 821.792969 95.191406 C 822.332031 101.941406 822.605469 105.988281 822.605469 118.5 C 822.605469 125.878906 822.511719 133.261719 822.332031 140.730469 L 822.875 141.269531 C 829.535156 141 830.972656 140.910156 838.171875 141 L 838.625 140.371094 C 838.261719 133.078125 837.722656 122.910156 837.722656 116.699219 C 837.722656 112.648438 837.722656 106.710938 843.84375 106.710938 C 845.375 106.710938 846.273438 107.25 847.535156 107.96875 Z M 902.34375 139.828125 C 893.882812 125.519531 892.984375 123.898438 886.144531 111.570312 C 892.355469 103.109375 892.984375 102.210938 899.375 94.019531 L 898.921875 93.121094 L 884.253906 93.300781 L 883.355469 93.929688 C 876.332031 106.078125 875.433594 107.519531 871.292969 113.730469 L 871.292969 103.738281 C 871.382812 86.910156 871.472656 83.308594 871.921875 69.71875 L 871.203125 69.179688 L 855.542969 71.519531 L 855.003906 72.148438 C 855.632812 80.878906 855.902344 85.109375 856.082031 96.898438 C 856.261719 111.480469 856.261719 126.058594 856.171875 140.640625 L 856.804688 141.269531 C 862.832031 141 864.542969 141 871.382812 141 L 871.921875 140.371094 L 871.382812 125.160156 L 871.292969 114.808594 C 879.125 129.210938 880.113281 131.191406 884.703125 140.730469 L 885.511719 141.269531 L 901.714844 140.640625 Z M 901.261719 141 "/>
</svg>
