<?xml version="1.0" encoding="UTF-8"?>
<svg xmlns="http://www.w3.org/2000/svg" xmlns:xlink="http://www.w3.org/1999/xlink" width="975" height="1300" viewBox="0 0 975 1300">
<path fill-rule="nonzero" fill="rgb(98.823529%, 78.823529%, 9.019608%)" fill-opacity="1" d="M 50 50 L 925 50 L 925 290 L 50 290 Z M 50 50 "/>
<path fill-rule="nonzero" fill="rgb(34.901961%, 14.901961%, 14.901961%)" fill-opacity="1" d="M 187.972656 128.671875 C 178.160156 129.210938 170.332031 129.390625 167.632812 129.390625 L 165.832031 129.390625 C 165.652344 105.359375 165.742188 99.238281 166.460938 77.730469 L 165.921875 77.191406 C 158.179688 77.550781 156.109375 77.550781 149.902344 77.460938 L 149.359375 78 C 149.722656 85.199219 149.8125 87.359375 149.8125 98.070312 C 149.8125 112.289062 149.722656 126.511719 149.722656 140.730469 L 150.171875 141.269531 C 167.8125 141 171.050781 141 187.25 141 L 187.699219 140.460938 L 188.421875 129.121094 Z M 212.453125 140.371094 C 212 133.441406 211.640625 128.128906 211.640625 115.710938 C 211.640625 108.058594 211.820312 100.320312 211.910156 92.671875 L 211.28125 91.949219 L 195.800781 94.648438 L 195.261719 95.191406 C 195.980469 102.03125 196.25 105.179688 196.25 117.960938 C 196.25 127.769531 195.980469 133.261719 195.710938 140.640625 L 196.25 141.269531 C 202.730469 141 204.53125 140.910156 211.820312 141 L 212.453125 140.371094 M 211.011719 83.308594 L 211.28125 71.070312 L 210.742188 70.53125 L 196.070312 72.328125 L 195.53125 72.960938 C 195.710938 76.199219 195.800781 78.089844 195.800781 80.25 C 195.800781 81.960938 195.800781 83.761719 195.710938 85.46875 L 196.339844 86.011719 C 202.460938 84.929688 204.171875 84.75 210.5625 83.941406 Z M 247.644531 130.648438 C 246.113281 131.101562 245.03125 131.460938 243.503906 131.460938 C 238.914062 131.460938 238.554688 128.578125 238.371094 127.230469 C 238.101562 124.890625 238.101562 119.941406 238.191406 116.339844 L 238.371094 103.648438 L 246.472656 104.011719 L 247.011719 103.46875 L 247.914062 93.839844 L 247.371094 93.300781 L 238.371094 93.300781 L 238.644531 78.179688 L 238.011719 77.640625 C 231.894531 79.441406 230.273438 79.890625 223.882812 81.511719 L 223.523438 82.140625 L 223.613281 93.390625 L 218.753906 93.210938 L 218.214844 93.660156 L 217.402344 103.289062 L 217.941406 103.828125 L 223.613281 103.648438 L 223.34375 117.960938 C 223.253906 120.210938 223.164062 122.460938 223.164062 124.800781 C 223.164062 133.078125 223.34375 141.988281 237.382812 141.988281 C 240.894531 141.988281 243.683594 141.449219 246.832031 140.910156 L 247.464844 140.28125 L 248.363281 131.011719 Z M 279.503906 130.648438 C 277.972656 131.101562 276.890625 131.460938 275.363281 131.460938 C 270.773438 131.460938 270.414062 128.578125 270.230469 127.230469 C 269.960938 124.890625 269.960938 119.941406 270.050781 116.339844 L 270.230469 103.648438 L 278.332031 104.011719 L 278.871094 103.46875 L 279.773438 93.839844 L 279.230469 93.300781 L 270.230469 93.300781 L 270.503906 78.179688 L 269.871094 77.640625 C 263.753906 79.441406 262.132812 79.890625 255.742188 81.511719 L 255.382812 82.140625 L 255.472656 93.390625 L 250.613281 93.210938 L 250.074219 93.660156 L 249.261719 103.289062 L 249.800781 103.828125 L 255.472656 103.648438 L 255.203125 117.960938 C 255.113281 120.210938 255.023438 122.460938 255.023438 124.800781 C 255.023438 133.078125 255.203125 141.988281 269.242188 141.988281 C 272.753906 141.988281 275.542969 141.449219 278.691406 140.910156 L 279.324219 140.28125 L 280.222656 131.011719 Z M 302 140.371094 C 301.550781 130.019531 301.101562 120.570312 301.101562 92.128906 C 301.101562 83.578125 301.191406 79.53125 301.550781 69.808594 L 300.921875 69.179688 L 285.53125 71.609375 L 285.171875 72.148438 C 286.070312 83.128906 286.160156 86.101562 286.339844 100.679688 C 286.433594 105.988281 286.433594 111.300781 286.433594 116.609375 C 286.433594 126.328125 286.25 131.730469 285.890625 140.640625 L 286.433594 141.269531 C 292.460938 141 294.890625 140.910156 301.460938 141 Z M 352.402344 127.679688 C 348.984375 129.480469 344.933594 131.550781 338.363281 131.550781 C 332.964844 131.550781 329.273438 129.839844 327.113281 126.601562 C 325.761719 124.710938 325.492188 122.910156 325.132812 121.109375 L 354.203125 120.570312 L 354.742188 119.941406 C 354.652344 115.53125 354.5625 111.03125 353.304688 106.53125 C 350.152344 95.910156 343.222656 93.75 340.164062 93.03125 C 337.914062 92.398438 335.84375 92.21875 333.773438 92.21875 C 319.644531 92.21875 310.28125 101.488281 310.28125 117.058594 C 310.28125 121.289062 311.003906 125.699219 312.441406 128.851562 C 317.664062 141 329.902344 142.078125 336.382812 142.078125 C 343.851562 142.078125 347.09375 140.730469 351.863281 138.839844 L 352.402344 138.121094 L 353.03125 127.949219 L 352.402344 127.679688 M 325.132812 111.570312 C 325.402344 108.78125 326.03125 105 329.453125 102.839844 C 330.53125 102.121094 331.792969 101.851562 333.054688 101.851562 C 336.023438 101.851562 337.824219 103.378906 338.8125 105 C 340.074219 106.980469 340.164062 109.140625 340.164062 111.210938 Z M 409.640625 116.25 C 415.671875 126.511719 417.023438 129.210938 422.78125 141 L 423.503906 141.449219 C 426.292969 141.269531 428.992188 141.089844 431.78125 141 C 434.574219 140.910156 437.453125 140.820312 440.242188 140.820312 L 440.78125 139.738281 C 437.363281 135.328125 436.371094 133.980469 429.890625 123.628906 C 427.011719 119.039062 425.574219 116.609375 423.324219 112.648438 C 427.371094 110.851562 435.5625 107.070312 435.5625 95.640625 C 435.5625 91.679688 434.480469 83.488281 427.101562 79.621094 C 422.421875 77.191406 417.5625 77.101562 407.03125 77.28125 L 400.730469 77.371094 L 389.753906 77.371094 L 389.300781 77.910156 C 389.664062 87 390.023438 96.359375 390.023438 120.839844 C 390.023438 129.210938 389.933594 133.261719 389.664062 140.730469 L 390.203125 141.269531 C 396.773438 141 398.210938 140.910156 405.59375 141 L 406.132812 140.460938 C 405.414062 130.019531 405.324219 127.140625 405.230469 116.429688 L 409.640625 116.25 M 405.414062 88.261719 C 406.671875 88.171875 407.933594 88.171875 409.191406 88.171875 C 412.703125 88.171875 419.632812 88.171875 419.632812 96.089844 C 419.632812 98.609375 419.003906 101.941406 415.671875 104.011719 C 413.152344 105.539062 409.914062 105.71875 405.414062 105.808594 Z M 461.84375 140.371094 C 461.390625 133.441406 461.03125 128.128906 461.03125 115.710938 C 461.03125 108.058594 461.210938 100.320312 461.300781 92.671875 L 460.671875 91.949219 L 445.191406 94.648438 L 444.652344 95.191406 C 445.371094 102.03125 445.640625 105.179688 445.640625 117.960938 C 445.640625 127.769531 445.371094 133.261719 445.101562 140.640625 L 445.640625 141.269531 C 452.121094 141 453.921875 140.910156 461.210938 141 L 461.84375 140.371094 M 460.402344 83.308594 L 460.671875 71.070312 L 460.132812 70.53125 L 445.460938 72.328125 L 444.921875 72.960938 C 445.101562 76.199219 445.191406 78.089844 445.191406 80.25 C 445.191406 81.960938 445.191406 83.761719 445.101562 85.46875 L 445.730469 86.011719 C 451.851562 84.929688 453.5625 84.75 459.953125 83.941406 Z M 496.667969 140.28125 C 499.550781 131.28125 501.257812 125.699219 503.148438 120.03125 C 505.578125 112.738281 509.539062 101.039062 512.058594 93.660156 L 511.609375 93.03125 L 499.007812 93.300781 L 498.378906 93.929688 C 497.121094 99.960938 496.851562 101.21875 495.050781 108.238281 L 490.460938 125.96875 L 488.210938 116.25 L 486.5 109.320312 C 484.25 100.949219 483.890625 99.238281 482.628906 93.300781 L 482 92.761719 C 474.890625 93.570312 473.089844 93.660156 466.25 93.75 L 465.890625 94.46875 C 477.859375 129.929688 478.851562 133.261719 480.828125 140.640625 L 481.460938 141.269531 C 487.308594 141 489.648438 140.910156 496.128906 141 Z M 556.789062 127.679688 C 553.371094 129.480469 549.320312 131.550781 542.75 131.550781 C 537.351562 131.550781 533.660156 129.839844 531.5 126.601562 C 530.148438 124.710938 529.878906 122.910156 529.519531 121.109375 L 558.589844 120.570312 L 559.128906 119.941406 C 559.039062 115.53125 558.949219 111.03125 557.691406 106.53125 C 554.539062 95.910156 547.609375 93.75 544.550781 93.03125 C 542.300781 92.398438 540.230469 92.21875 538.160156 92.21875 C 524.03125 92.21875 514.667969 101.488281 514.667969 117.058594 C 514.667969 121.289062 515.390625 125.699219 516.828125 128.851562 C 522.050781 141 534.289062 142.078125 540.769531 142.078125 C 548.238281 142.078125 551.480469 140.730469 556.25 138.839844 L 556.789062 138.121094 L 557.417969 127.949219 L 556.789062 127.679688 M 529.519531 111.570312 C 529.789062 108.78125 530.417969 105 533.839844 102.839844 C 534.917969 102.121094 536.179688 101.851562 537.441406 101.851562 C 540.410156 101.851562 542.210938 103.378906 543.199219 105 C 544.460938 106.980469 544.550781 109.140625 544.550781 111.210938 Z M 593.421875 107.609375 L 595.941406 92.941406 L 595.402344 92.308594 C 594.773438 92.308594 594.140625 92.21875 593.511719 92.21875 C 589.820312 92.21875 585.683594 94.289062 582.800781 100.949219 L 583.070312 92.671875 L 582.351562 91.949219 C 575.691406 93.390625 573.980469 93.660156 567.410156 94.648438 L 566.871094 95.191406 C 567.410156 101.941406 567.683594 105.988281 567.683594 118.5 C 567.683594 125.878906 567.589844 133.261719 567.410156 140.730469 L 567.953125 141.269531 C 574.613281 141 576.050781 140.910156 583.25 141 L 583.703125 140.371094 C 583.339844 133.078125 582.800781 122.910156 582.800781 116.699219 C 582.800781 112.648438 582.800781 106.710938 588.921875 106.710938 C 590.453125 106.710938 591.351562 107.25 592.613281 107.96875 Z M 653.453125 102.300781 C 645.894531 99.148438 641.933594 97.53125 641.933594 93.480469 C 641.933594 90.691406 644.542969 87.179688 650.484375 87.179688 C 657.324219 87.179688 661.371094 89.96875 664.703125 92.21875 L 665.511719 91.859375 L 666.234375 80.070312 L 665.78125 79.441406 C 661.914062 77.820312 657.863281 76.109375 649.132812 76.109375 C 632.214844 76.109375 626.363281 85.648438 626.363281 95.28125 C 626.363281 106.171875 634.824219 110.128906 639.863281 112.558594 L 642.832031 113.910156 C 649.042969 116.519531 653.8125 118.769531 653.8125 123.539062 C 653.8125 126.960938 650.84375 131.011719 643.011719 131.011719 C 634.824219 131.011719 630.234375 127.410156 627.621094 125.339844 L 626.722656 125.609375 L 626.09375 138.300781 L 626.632812 139.019531 C 627.621094 139.378906 628.613281 139.828125 629.601562 140.101562 C 631.671875 140.820312 636.984375 142.351562 643.734375 142.351562 C 646.433594 142.351562 653.273438 142.078125 658.671875 139.558594 C 666.234375 135.871094 669.472656 129.03125 669.472656 121.378906 C 669.472656 116.25 667.492188 110.761719 662.722656 107.070312 C 660.292969 105.269531 657.953125 104.191406 655.792969 103.199219 Z M 703.222656 130.648438 C 701.691406 131.101562 700.609375 131.460938 699.082031 131.460938 C 694.492188 131.460938 694.132812 128.578125 693.949219 127.230469 C 693.679688 124.890625 693.679688 119.941406 693.769531 116.339844 L 693.949219 103.648438 L 702.050781 104.011719 L 702.589844 103.46875 L 703.492188 93.839844 L 702.949219 93.300781 L 693.949219 93.300781 L 694.222656 78.179688 L 693.589844 77.640625 C 687.472656 79.441406 685.851562 79.890625 679.460938 81.511719 L 679.101562 82.140625 L 679.191406 93.390625 L 674.332031 93.210938 L 673.792969 93.660156 L 672.980469 103.289062 L 673.519531 103.828125 L 679.191406 103.648438 L 678.921875 117.960938 C 678.832031 120.210938 678.742188 122.460938 678.742188 124.800781 C 678.742188 133.078125 678.921875 141.988281 692.960938 141.988281 C 696.472656 141.988281 699.261719 141.449219 702.410156 140.910156 L 703.042969 140.28125 L 703.941406 131.011719 Z M 749.929688 114.179688 C 750.019531 106.078125 750.019531 102.570312 747.679688 98.789062 C 745.878906 95.910156 742.28125 92.308594 730.761719 92.308594 C 723.019531 92.308594 718.25 93.75 713.121094 95.28125 L 712.582031 96 L 712.128906 105.808594 L 712.851562 106.171875 C 716 104.910156 721.851562 102.570312 727.878906 102.570312 C 731.210938 102.570312 732.558594 103.109375 733.730469 104.28125 C 734.628906 105.179688 734.902344 106.800781 734.902344 108.148438 C 724.101562 109.589844 719.058594 110.578125 713.660156 113.910156 C 708.621094 117.058594 706.910156 122.191406 706.910156 126.238281 C 706.910156 135.871094 713.839844 142.078125 722.660156 142.078125 C 729.410156 142.078125 733.28125 138.839844 735.171875 137.308594 L 735.171875 140.640625 L 735.710938 141.269531 C 742.191406 141 744.171875 140.910156 750.019531 141 L 750.46875 140.371094 C 749.839844 131.550781 749.839844 129.300781 749.839844 120.839844 L 749.929688 114.179688 M 735.082031 128.488281 C 733.191406 129.570312 730.761719 130.828125 727.789062 130.828125 C 724.550781 130.828125 721.851562 129.121094 721.851562 125.339844 C 721.851562 119.398438 728.960938 118.410156 735.082031 117.601562 Z M 785.664062 130.648438 C 784.132812 131.101562 783.050781 131.460938 781.523438 131.460938 C 776.933594 131.460938 776.574219 128.578125 776.390625 127.230469 C 776.121094 124.890625 776.121094 119.941406 776.210938 116.339844 L 776.390625 103.648438 L 784.492188 104.011719 L 785.03125 103.46875 L 785.933594 93.839844 L 785.390625 93.300781 L 776.390625 93.300781 L 776.664062 78.179688 L 776.03125 77.640625 C 769.914062 79.441406 768.292969 79.890625 761.902344 81.511719 L 761.542969 82.140625 L 761.632812 93.390625 L 756.773438 93.210938 L 756.234375 93.660156 L 755.421875 103.289062 L 755.960938 103.828125 L 761.632812 103.648438 L 761.363281 117.960938 C 761.273438 120.210938 761.183594 122.460938 761.183594 124.800781 C 761.183594 133.078125 761.363281 141.988281 775.402344 141.988281 C 778.914062 141.988281 781.703125 141.449219 784.851562 140.910156 L 785.484375 140.28125 L 786.382812 131.011719 Z M 832.28125 127.679688 C 828.863281 129.480469 824.8125 131.550781 818.242188 131.550781 C 812.84375 131.550781 809.152344 129.839844 806.992188 126.601562 C 805.640625 124.710938 805.371094 122.910156 805.011719 121.109375 L 834.082031 120.570312 L 834.621094 119.941406 C 834.53125 115.53125 834.441406 111.03125 833.183594 106.53125 C 830.03125 95.910156 823.101562 93.75 820.042969 93.03125 C 817.792969 92.398438 815.722656 92.21875 813.652344 92.21875 C 799.523438 92.21875 790.160156 101.488281 790.160156 117.058594 C 790.160156 121.289062 790.882812 125.699219 792.320312 128.851562 C 797.542969 141 809.78125 142.078125 816.261719 142.078125 C 823.730469 142.078125 826.972656 140.730469 831.742188 138.839844 L 832.28125 138.121094 L 832.910156 127.949219 L 832.28125 127.679688 M 805.011719 111.570312 C 805.28125 108.78125 805.910156 105 809.332031 102.839844 C 810.410156 102.121094 811.671875 101.851562 812.933594 101.851562 C 815.902344 101.851562 817.703125 103.378906 818.691406 105 C 819.953125 106.980469 820.042969 109.140625 820.042969 111.210938 Z M 837.5 141 "/>
<path fill-rule="nonzero" fill="rgb(34.901961%, 14.901961%, 14.901961%)" fill-opacity="1" d="M 385.519531 261 C 393.890625 261.179688 404.238281 261.359375 410.988281 256.679688 C 416.929688 252.449219 418.550781 246.511719 418.550781 241.46875 C 418.550781 235.710938 416.117188 230.398438 410.988281 227.878906 C 409.277344 226.980469 407.300781 226.621094 405.410156 226.261719 C 408.46875 225 412.070312 223.378906 414.410156 218.609375 C 415.398438 216.539062 415.847656 214.378906 415.847656 212.308594 C 415.847656 209.429688 415.128906 205.46875 412.25 202.230469 C 408.46875 198.179688 402.617188 197.101562 393.800781 197.101562 C 390.738281 197.101562 385.25 197.191406 382.1875 197.28125 L 369.589844 197.460938 L 369.050781 198 C 369.410156 206.640625 369.5 209.96875 369.5 222.390625 C 369.5 235.171875 369.410156 247.859375 369.230469 260.640625 L 369.859375 261 L 385.519531 261 M 384.890625 233.640625 C 391.730469 233.460938 395.6875 233.460938 398.300781 234.988281 C 400.910156 236.609375 401.898438 239.488281 401.898438 242.371094 C 401.898438 246.421875 399.648438 248.941406 396.320312 250.109375 C 393.617188 251.011719 388.757812 251.011719 384.890625 250.921875 L 384.890625 233.640625 M 384.890625 207.179688 C 386.777344 207.179688 389.300781 207.089844 390.828125 207.089844 C 395.6875 207.089844 400.097656 208.800781 400.097656 214.648438 C 400.097656 219.421875 396.589844 221.398438 395.507812 221.941406 C 393.257812 222.929688 388.488281 222.929688 384.890625 222.929688 Z M 466.878906 247.679688 C 463.460938 249.480469 459.410156 251.550781 452.839844 251.550781 C 447.441406 251.550781 443.75 249.839844 441.589844 246.601562 C 440.238281 244.710938 439.96875 242.910156 439.609375 241.109375 L 468.679688 240.570312 L 469.21875 239.941406 C 469.128906 235.53125 469.039062 231.03125 467.78125 226.53125 C 464.628906 215.910156 457.699219 213.75 454.640625 213.03125 C 452.390625 212.398438 450.320312 212.21875 448.25 212.21875 C 434.121094 212.21875 424.757812 221.488281 424.757812 237.058594 C 424.757812 241.289062 425.480469 245.699219 426.917969 248.851562 C 432.140625 261 444.378906 262.078125 450.859375 262.078125 C 458.328125 262.078125 461.570312 260.730469 466.339844 258.839844 L 466.878906 258.121094 L 467.507812 247.949219 L 466.878906 247.679688 M 439.609375 231.570312 C 439.878906 228.78125 440.507812 225 443.929688 222.839844 C 445.007812 222.121094 446.269531 221.851562 447.53125 221.851562 C 450.5 221.851562 452.300781 223.378906 453.289062 225 C 454.550781 226.980469 454.640625 229.140625 454.640625 231.210938 Z M 517.546875 234.179688 C 517.636719 226.078125 517.636719 222.570312 515.296875 218.789062 C 513.496094 215.910156 509.898438 212.308594 498.378906 212.308594 C 490.636719 212.308594 485.867188 213.75 480.738281 215.28125 L 480.199219 216 L 479.746094 225.808594 L 480.46875 226.171875 C 483.617188 224.910156 489.46875 222.570312 495.496094 222.570312 C 498.828125 222.570312 500.175781 223.109375 501.347656 224.28125 C 502.246094 225.179688 502.519531 226.800781 502.519531 228.148438 C 491.71875 229.589844 486.675781 230.578125 481.277344 233.910156 C 476.238281 237.058594 474.527344 242.191406 474.527344 246.238281 C 474.527344 255.871094 481.457031 262.078125 490.277344 262.078125 C 497.027344 262.078125 500.898438 258.839844 502.789062 257.308594 L 502.789062 260.640625 L 503.328125 261.269531 C 509.808594 261 511.789062 260.910156 517.636719 261 L 518.085938 260.371094 C 517.457031 251.550781 517.457031 249.300781 517.457031 240.839844 L 517.546875 234.179688 M 502.699219 248.488281 C 500.808594 249.570312 498.378906 250.828125 495.40625 250.828125 C 492.167969 250.828125 489.46875 249.121094 489.46875 245.339844 C 489.46875 239.398438 496.578125 238.410156 502.699219 237.601562 Z M 563.269531 248.039062 C 560.839844 249.480469 558.5 250.921875 553.910156 250.921875 C 543.738281 250.921875 541.667969 242.460938 541.667969 237.058594 C 541.667969 230.488281 544.550781 222.929688 553.28125 222.929688 C 557.238281 222.929688 559.398438 224.371094 562.101562 226.171875 L 563 225.898438 C 563.359375 221.128906 563.449219 219.871094 564.167969 215.101562 L 563.71875 214.558594 C 559.757812 213.300781 556.339844 212.21875 551.121094 212.21875 C 529.96875 212.21875 525.828125 228.238281 525.828125 237.421875 C 525.828125 247.769531 531.230469 261.808594 551.480469 261.808594 C 556.25 261.808594 559.308594 260.910156 563.089844 259.828125 L 563.628906 259.289062 L 563.988281 248.488281 Z M 615.289062 260.371094 C 614.929688 252.988281 614.839844 250.46875 614.660156 241.109375 L 614.660156 234.359375 C 614.570312 225.808594 614.480469 220.859375 611.867188 217.078125 C 609.257812 213.390625 605.480469 212.21875 601.519531 212.21875 C 594.949219 212.21875 589.820312 215.371094 586.21875 217.53125 L 586.488281 189.808594 L 585.949219 189.179688 L 570.558594 191.609375 L 570.109375 192.148438 C 570.917969 200.878906 571.097656 204.121094 571.277344 215.730469 C 571.460938 223.019531 571.550781 230.308594 571.550781 237.601562 C 571.550781 246.511719 571.367188 251.820312 571.1875 260.640625 L 571.640625 261.269531 C 578.300781 260.910156 579.648438 260.910156 586.9375 260.910156 L 587.480469 260.371094 C 586.847656 246.871094 586.757812 242.820312 586.667969 226.890625 C 588.378906 225.71875 590.539062 224.191406 593.597656 224.191406 C 598.550781 224.191406 598.910156 229.320312 599.269531 232.921875 C 599.449219 235.710938 599.539062 248.488281 599.539062 251.820312 C 599.539062 254.789062 599.449219 257.671875 599.449219 260.640625 L 599.898438 261.269531 C 606.378906 260.910156 607.820312 260.910156 614.75 260.910156 Z M 620.148438 261 "/>
</svg>
