<?xml version="1.0" encoding="UTF-8"?>
<svg xmlns="http://www.w3.org/2000/svg" xmlns:xlink="http://www.w3.org/1999/xlink" width="975" height="1300" viewBox="0 0 975 1300">
<path fill-rule="nonzero" fill="rgb(98.823529%, 78.823529%, 9.019608%)" fill-opacity="1" d="M 50 50 L 925 50 L 925 410 L 50 410 Z M 50 50 "/>
<path fill-rule="nonzero" fill="rgb(34.901961%, 14.901961%, 14.901961%)" fill-opacity="1" d="M 273.109375 123.179688 C 273.109375 118.679688 273.199219 114.179688 273.289062 109.589844 L 272.839844 109.050781 L 257.539062 109.320312 L 257.089844 109.859375 C 257.898438 118.679688 257.988281 120.839844 257.808594 129.03125 C 255.378906 129.570312 253.582031 130.019531 251.058594 130.019531 C 237.109375 130.019531 234.589844 116.699219 234.589844 109.949219 C 234.589844 95.730469 242.238281 87.988281 253.582031 87.988281 C 260.421875 87.988281 264.46875 90.691406 268.699219 93.480469 L 269.421875 93.210938 C 269.871094 87.628906 270.050781 86.191406 270.769531 80.789062 L 270.320312 80.25 C 266.539062 78.628906 260.511719 76.109375 251.148438 76.109375 C 240.890625 76.109375 229.640625 78.988281 222.53125 91.050781 C 219.289062 96.71875 217.941406 104.011719 217.941406 110.039062 C 217.941406 118.5 220.191406 125.609375 224.238281 130.828125 C 229.550781 137.671875 236.121094 139.828125 239.628906 140.820312 C 242.238281 141.539062 246.109375 142.351562 251.691406 142.351562 C 260.960938 142.351562 266.628906 140.460938 272.929688 138.390625 L 273.378906 137.671875 C 273.289062 133.53125 273.109375 129.390625 273.109375 125.25 Z M 309.289062 107.609375 L 311.808594 92.941406 L 311.269531 92.308594 C 310.640625 92.308594 310.007812 92.21875 309.378906 92.21875 C 305.6875 92.21875 301.550781 94.289062 298.667969 100.949219 L 298.9375 92.671875 L 298.21875 91.949219 C 291.558594 93.390625 289.847656 93.660156 283.277344 94.648438 L 282.738281 95.191406 C 283.277344 101.941406 283.550781 105.988281 283.550781 118.5 C 283.550781 125.878906 283.457031 133.261719 283.277344 140.730469 L 283.820312 141.269531 C 290.480469 141 291.917969 140.910156 299.117188 141 L 299.570312 140.371094 C 299.207031 133.078125 298.667969 122.910156 298.667969 116.699219 C 298.667969 112.648438 298.667969 106.710938 304.789062 106.710938 C 306.320312 106.710938 307.21875 107.25 308.480469 107.96875 Z M 333.320312 140.371094 C 332.867188 133.441406 332.507812 128.128906 332.507812 115.710938 C 332.507812 108.058594 332.6875 100.320312 332.777344 92.671875 L 332.148438 91.949219 L 316.667969 94.648438 L 316.128906 95.191406 C 316.847656 102.03125 317.117188 105.179688 317.117188 117.960938 C 317.117188 127.769531 316.847656 133.261719 316.578125 140.640625 L 317.117188 141.269531 C 323.597656 141 325.398438 140.910156 332.6875 141 L 333.320312 140.371094 M 331.878906 83.308594 L 332.148438 71.070312 L 331.609375 70.53125 L 316.9375 72.328125 L 316.398438 72.960938 C 316.578125 76.199219 316.667969 78.089844 316.667969 80.25 C 316.667969 81.960938 316.667969 83.761719 316.578125 85.46875 L 317.207031 86.011719 C 323.328125 84.929688 325.039062 84.75 331.429688 83.941406 Z M 377.871094 140.640625 L 378.769531 130.738281 L 378.230469 130.289062 L 360.859375 130.921875 C 363.648438 124.621094 365.179688 121.289062 369.679688 112.289062 C 372.832031 106.261719 376.25 99.511719 378.949219 94.019531 L 378.5 93.210938 L 342.859375 93.210938 L 342.410156 93.839844 L 341.511719 103.199219 L 341.960938 103.738281 L 357.980469 103.558594 C 353.03125 114.089844 351.679688 116.789062 339.621094 140.371094 L 339.980469 141 L 377.148438 141 Z M 420.980469 140.640625 L 421.878906 130.738281 L 421.339844 130.289062 L 403.96875 130.921875 C 406.757812 124.621094 408.289062 121.289062 412.789062 112.289062 C 415.941406 106.261719 419.359375 99.511719 422.058594 94.019531 L 421.609375 93.210938 L 385.96875 93.210938 L 385.519531 93.839844 L 384.621094 103.199219 L 385.070312 103.738281 L 401.089844 103.558594 C 396.140625 114.089844 394.789062 116.789062 382.730469 140.371094 L 383.089844 141 L 420.257812 141 Z M 445.367188 140.371094 C 444.917969 130.019531 444.46875 120.570312 444.46875 92.128906 C 444.46875 83.578125 444.558594 79.53125 444.917969 69.808594 L 444.289062 69.179688 L 428.898438 71.609375 L 428.539062 72.148438 C 429.4375 83.128906 429.527344 86.101562 429.707031 100.679688 C 429.800781 105.988281 429.800781 111.300781 429.800781 116.609375 C 429.800781 126.328125 429.617188 131.730469 429.257812 140.640625 L 429.800781 141.269531 C 435.828125 141 438.257812 140.910156 444.828125 141 Z M 496.039062 93.03125 L 483.53125 93.300781 L 482.808594 93.929688 C 481.28125 100.140625 480.921875 101.488281 478.761719 108.511719 L 476.421875 116.25 L 474.441406 123 L 472.730469 116.609375 L 470.121094 107.070312 L 466.519531 93.390625 L 465.800781 92.851562 C 458.78125 93.390625 457.25 93.480469 449.871094 93.660156 L 449.421875 94.289062 C 452.660156 102.839844 461.03125 125.429688 466.609375 142.710938 C 462.921875 152.070312 462.199219 153.691406 458.148438 162.601562 L 458.601562 163.320312 C 460.851562 163.230469 463.371094 163.140625 465.710938 163.140625 C 467.960938 163.140625 470.300781 163.230469 472.550781 163.230469 L 473.179688 162.691406 C 478.128906 143.25 480.558594 135.691406 492.441406 104.371094 C 493.789062 100.769531 495.140625 97.261719 496.398438 93.75 Z M 573.800781 124.890625 C 571.730469 126.511719 567.140625 129.929688 559.671875 129.929688 C 549.410156 129.929688 542.210938 122.28125 542.210938 109.5 C 542.210938 101.761719 544.910156 88.171875 559.582031 88.171875 C 566.332031 88.171875 570.019531 90.78125 572.269531 92.488281 L 573.082031 92.308594 L 573.890625 79.890625 L 573.53125 79.441406 C 570.292969 78.179688 564.800781 76.109375 556.882812 76.109375 C 533.570312 76.109375 525.472656 94.109375 525.472656 109.859375 C 525.472656 127.140625 536 142.351562 557.960938 142.351562 C 565.519531 142.351562 570.472656 140.371094 573.351562 139.199219 L 573.800781 138.660156 L 574.429688 125.25 Z M 607.460938 107.609375 L 609.980469 92.941406 L 609.441406 92.308594 C 608.8125 92.308594 608.179688 92.21875 607.550781 92.21875 C 603.859375 92.21875 599.722656 94.289062 596.839844 100.949219 L 597.109375 92.671875 L 596.390625 91.949219 C 589.730469 93.390625 588.019531 93.660156 581.449219 94.648438 L 580.910156 95.191406 C 581.449219 101.941406 581.722656 105.988281 581.722656 118.5 C 581.722656 125.878906 581.628906 133.261719 581.449219 140.730469 L 581.992188 141.269531 C 588.652344 141 590.089844 140.910156 597.289062 141 L 597.742188 140.371094 C 597.378906 133.078125 596.839844 122.910156 596.839844 116.699219 C 596.839844 112.648438 596.839844 106.710938 602.960938 106.710938 C 604.492188 106.710938 605.390625 107.25 606.652344 107.96875 Z M 655.160156 127.679688 C 651.742188 129.480469 647.691406 131.550781 641.121094 131.550781 C 635.722656 131.550781 632.03125 129.839844 629.871094 126.601562 C 628.519531 124.710938 628.25 122.910156 627.890625 121.109375 L 656.960938 120.570312 L 657.5 119.941406 C 657.410156 115.53125 657.320312 111.03125 656.0625 106.53125 C 652.910156 95.910156 645.980469 93.75 642.921875 93.03125 C 640.671875 92.398438 638.601562 92.21875 636.53125 92.21875 C 622.402344 92.21875 613.039062 101.488281 613.039062 117.058594 C 613.039062 121.289062 613.761719 125.699219 615.199219 128.851562 C 620.421875 141 632.660156 142.078125 639.140625 142.078125 C 646.609375 142.078125 649.851562 140.730469 654.621094 138.839844 L 655.160156 138.121094 L 655.789062 127.949219 L 655.160156 127.679688 M 627.890625 111.570312 C 628.160156 108.78125 628.789062 105 632.210938 102.839844 C 633.289062 102.121094 634.550781 101.851562 635.8125 101.851562 C 638.78125 101.851562 640.582031 103.378906 641.570312 105 C 642.832031 106.980469 642.921875 109.140625 642.921875 111.210938 Z M 705.738281 127.679688 C 702.320312 129.480469 698.269531 131.550781 691.699219 131.550781 C 686.300781 131.550781 682.609375 129.839844 680.449219 126.601562 C 679.097656 124.710938 678.828125 122.910156 678.46875 121.109375 L 707.539062 120.570312 L 708.078125 119.941406 C 707.988281 115.53125 707.898438 111.03125 706.640625 106.53125 C 703.488281 95.910156 696.558594 93.75 693.5 93.03125 C 691.25 92.398438 689.179688 92.21875 687.109375 92.21875 C 672.980469 92.21875 663.617188 101.488281 663.617188 117.058594 C 663.617188 121.289062 664.339844 125.699219 665.777344 128.851562 C 671 141 683.238281 142.078125 689.71875 142.078125 C 697.1875 142.078125 700.429688 140.730469 705.199219 138.839844 L 705.738281 138.121094 L 706.367188 127.949219 L 705.738281 127.679688 M 678.46875 111.570312 C 678.738281 108.78125 679.367188 105 682.789062 102.839844 C 683.867188 102.121094 685.128906 101.851562 686.390625 101.851562 C 689.359375 101.851562 691.160156 103.378906 692.148438 105 C 693.410156 106.980469 693.5 109.140625 693.5 111.210938 Z M 762.621094 139.828125 C 754.160156 125.519531 753.261719 123.898438 746.421875 111.570312 C 752.632812 103.109375 753.261719 102.210938 759.652344 94.019531 L 759.199219 93.121094 L 744.53125 93.300781 L 743.632812 93.929688 C 736.609375 106.078125 735.710938 107.519531 731.570312 113.730469 L 731.570312 103.738281 C 731.660156 86.910156 731.75 83.308594 732.199219 69.71875 L 731.480469 69.179688 L 715.820312 71.519531 L 715.28125 72.148438 C 715.910156 80.878906 716.179688 85.109375 716.359375 96.898438 C 716.539062 111.480469 716.539062 126.058594 716.449219 140.640625 L 717.082031 141.269531 C 723.109375 141 724.820312 141 731.660156 141 L 732.199219 140.371094 L 731.660156 125.160156 L 731.570312 114.808594 C 739.402344 129.210938 740.390625 131.191406 744.980469 140.730469 L 745.789062 141.269531 L 761.992188 140.640625 Z M 761.539062 141 "/>
<path fill-rule="nonzero" fill="rgb(34.901961%, 14.901961%, 14.901961%)" fill-opacity="1" d="M 175.277344 236.25 C 181.308594 246.511719 182.660156 249.210938 188.417969 261 L 189.140625 261.449219 C 191.929688 261.269531 194.628906 261.089844 197.417969 261 C 200.210938 260.910156 203.089844 260.820312 205.878906 260.820312 L 206.417969 259.738281 C 203 255.328125 202.007812 253.980469 195.527344 243.628906 C 192.648438 239.039062 191.210938 236.609375 188.960938 232.648438 C 193.007812 230.851562 201.199219 227.070312 201.199219 215.640625 C 201.199219 211.679688 200.117188 203.488281 192.738281 199.621094 C 188.058594 197.191406 183.199219 197.101562 172.667969 197.28125 L 166.367188 197.371094 L 155.390625 197.371094 L 154.9375 197.910156 C 155.300781 207 155.660156 216.359375 155.660156 240.839844 C 155.660156 249.210938 155.570312 253.261719 155.300781 260.730469 L 155.839844 261.269531 C 162.410156 261 163.847656 260.910156 171.230469 261 L 171.769531 260.460938 C 171.050781 250.019531 170.960938 247.140625 170.867188 236.429688 L 175.277344 236.25 M 171.050781 208.261719 C 172.308594 208.171875 173.570312 208.171875 174.828125 208.171875 C 178.339844 208.171875 185.269531 208.171875 185.269531 216.089844 C 185.269531 218.609375 184.640625 221.941406 181.308594 224.011719 C 178.789062 225.539062 175.550781 225.71875 171.050781 225.808594 Z M 251.148438 247.679688 C 247.730469 249.480469 243.679688 251.550781 237.109375 251.550781 C 231.710938 251.550781 228.019531 249.839844 225.859375 246.601562 C 224.507812 244.710938 224.238281 242.910156 223.878906 241.109375 L 252.949219 240.570312 L 253.488281 239.941406 C 253.398438 235.53125 253.308594 231.03125 252.050781 226.53125 C 248.898438 215.910156 241.96875 213.75 238.910156 213.03125 C 236.660156 212.398438 234.589844 212.21875 232.519531 212.21875 C 218.390625 212.21875 209.027344 221.488281 209.027344 237.058594 C 209.027344 241.289062 209.75 245.699219 211.1875 248.851562 C 216.410156 261 228.648438 262.078125 235.128906 262.078125 C 242.597656 262.078125 245.839844 260.730469 250.609375 258.839844 L 251.148438 258.121094 L 251.777344 247.949219 L 251.148438 247.679688 M 223.878906 231.570312 C 224.148438 228.78125 224.777344 225 228.199219 222.839844 C 229.277344 222.121094 230.539062 221.851562 231.800781 221.851562 C 234.769531 221.851562 236.570312 223.378906 237.558594 225 C 238.820312 226.980469 238.910156 229.140625 238.910156 231.210938 Z M 305.867188 260.460938 C 305.507812 252.359375 305.238281 246.960938 305.238281 235.171875 C 305.238281 211.410156 305.597656 201.601562 305.957031 189.71875 L 305.328125 189.179688 L 290.476562 191.519531 L 290.027344 192.058594 C 290.566406 200.519531 290.65625 202.769531 290.566406 213.03125 C 283.816406 212.851562 275.355469 212.671875 268.515625 218.070312 C 262.21875 222.929688 259.605469 230.398438 259.605469 239.671875 C 259.605469 246.691406 261.496094 253.710938 266.808594 258.121094 C 270.765625 261.359375 275.628906 262.078125 278.597656 262.078125 C 284.988281 262.078125 288.316406 259.109375 290.476562 257.21875 L 290.296875 260.730469 L 290.746094 261.269531 C 296.957031 261 298.667969 261 305.417969 261 L 305.867188 260.460938 M 290.566406 223.828125 C 290.65625 235.800781 290.566406 238.140625 290.296875 249.03125 C 288.496094 250.109375 286.695312 251.191406 284.175781 251.191406 C 275.445312 251.191406 275.445312 240.03125 275.445312 238.230469 C 275.445312 231.300781 277.425781 223.558594 287.507812 223.558594 C 288.496094 223.558594 289.308594 223.648438 290.566406 223.828125 Z M 371.75 260.371094 C 375.351562 246.421875 375.980469 244.261719 381.378906 224.910156 C 382.460938 221.21875 383.449219 217.441406 384.441406 213.75 L 383.902344 213.03125 L 372.199219 213.300781 L 371.570312 213.929688 L 368.960938 227.429688 L 366.441406 238.320312 L 364.730469 246.601562 L 363.199219 238.589844 L 361.21875 229.230469 L 358.070312 213.660156 L 357.53125 213.03125 L 340.25 213.300781 L 339.621094 213.929688 L 336.652344 228.691406 L 334.492188 238.589844 L 332.78125 246.871094 L 331.070312 237.960938 L 328.910156 228.238281 L 325.851562 213.300781 L 325.308594 212.851562 L 310.730469 213.929688 L 310.191406 214.648438 C 318.652344 244.351562 320 249.660156 322.519531 260.730469 L 323.152344 261.269531 C 329.359375 261 331.609375 260.910156 339.890625 261 L 340.429688 260.371094 L 342.769531 249.390625 L 345.289062 238.5 L 347.539062 227.609375 L 348.890625 234.449219 L 350.242188 241.109375 L 354.019531 260.640625 L 354.652344 261.269531 C 361.308594 261 364.011719 260.910156 371.210938 261 Z M 435.019531 237.058594 C 435.019531 233.550781 435.019531 218.96875 422.417969 214.019531 C 418.457031 212.488281 413.777344 212.308594 411.4375 212.308594 C 395.777344 212.308594 386.957031 220.679688 386.957031 237.238281 C 386.957031 243 387.859375 248.851562 391.1875 253.710938 C 393.527344 257.21875 397.9375 262.078125 410.808594 262.078125 C 429.886719 262.078125 435.019531 250.558594 435.019531 237.058594 M 419.449219 236.96875 C 419.449219 244.351562 418.457031 252.539062 410.988281 252.539062 C 408.648438 252.539062 407.027344 251.460938 405.949219 250.46875 C 404.417969 248.941406 402.707031 245.878906 402.707031 237.148438 C 402.707031 234.539062 402.707031 228.78125 404.507812 225.628906 C 405.859375 223.199219 408.199219 221.578125 411.078125 221.578125 C 413.597656 221.578125 415.667969 222.929688 416.839844 224.371094 C 419 226.980469 419.449219 232.109375 419.449219 236.96875 Z M 489.378906 237.058594 C 489.378906 233.550781 489.378906 218.96875 476.777344 214.019531 C 472.816406 212.488281 468.136719 212.308594 465.796875 212.308594 C 450.136719 212.308594 441.316406 220.679688 441.316406 237.238281 C 441.316406 243 442.21875 248.851562 445.546875 253.710938 C 447.886719 257.21875 452.296875 262.078125 465.167969 262.078125 C 484.246094 262.078125 489.378906 250.558594 489.378906 237.058594 M 473.808594 236.96875 C 473.808594 244.351562 472.816406 252.539062 465.347656 252.539062 C 463.007812 252.539062 461.386719 251.460938 460.308594 250.46875 C 458.777344 248.941406 457.066406 245.878906 457.066406 237.148438 C 457.066406 234.539062 457.066406 228.78125 458.867188 225.628906 C 460.21875 223.199219 462.558594 221.578125 465.4375 221.578125 C 467.957031 221.578125 470.027344 222.929688 471.199219 224.371094 C 473.359375 226.980469 473.808594 232.109375 473.808594 236.96875 Z M 542.027344 260.460938 C 541.667969 252.359375 541.398438 246.960938 541.398438 235.171875 C 541.398438 211.410156 541.757812 201.601562 542.117188 189.71875 L 541.488281 189.179688 L 526.636719 191.519531 L 526.1875 192.058594 C 526.726562 200.519531 526.816406 202.769531 526.726562 213.03125 C 519.976562 212.851562 511.515625 212.671875 504.675781 218.070312 C 498.378906 222.929688 495.765625 230.398438 495.765625 239.671875 C 495.765625 246.691406 497.65625 253.710938 502.96875 258.121094 C 506.925781 261.359375 511.789062 262.078125 514.757812 262.078125 C 521.148438 262.078125 524.476562 259.109375 526.636719 257.21875 L 526.457031 260.730469 L 526.90625 261.269531 C 533.117188 261 534.828125 261 541.578125 261 L 542.027344 260.460938 M 526.726562 223.828125 C 526.816406 235.800781 526.726562 238.140625 526.457031 249.03125 C 524.65625 250.109375 522.855469 251.191406 520.335938 251.191406 C 511.605469 251.191406 511.605469 240.03125 511.605469 238.230469 C 511.605469 231.300781 513.585938 223.558594 523.667969 223.558594 C 524.65625 223.558594 525.46875 223.648438 526.726562 223.828125 Z M 571.191406 229.949219 C 568.128906 228.871094 565.699219 227.878906 565.699219 225.359375 C 565.699219 224.28125 566.421875 221.308594 572 221.308594 C 577.492188 221.308594 581 223.648438 583.25 225.089844 L 584.0625 224.820312 L 584.960938 215.011719 L 584.511719 214.46875 C 580.28125 213.300781 576.589844 212.21875 570.742188 212.21875 C 566.332031 212.21875 557.511719 212.578125 552.832031 219.328125 C 551.660156 220.949219 550.402344 223.648438 550.402344 227.25 C 550.402344 236.878906 557.871094 239.761719 562.101562 241.378906 L 565.519531 242.640625 C 567.949219 243.449219 571.910156 244.800781 571.910156 248.039062 C 571.910156 250.289062 569.839844 252.71875 564.800781 252.71875 C 562.28125 252.71875 558.589844 251.910156 555.261719 250.199219 C 553.730469 249.390625 553.011719 248.761719 551.660156 247.679688 L 550.851562 248.039062 C 550.671875 252.71875 550.582031 253.710938 550.21875 258.210938 L 550.671875 259.019531 C 555.082031 260.640625 558.859375 262.078125 565.429688 262.078125 C 572.269531 262.078125 585.769531 260.820312 587.390625 247.949219 C 587.480469 247.230469 587.480469 246.601562 587.480469 245.96875 C 587.480469 236.070312 580.550781 233.460938 575.601562 231.570312 Z M 647.6875 222.300781 C 640.128906 219.148438 636.167969 217.53125 636.167969 213.480469 C 636.167969 210.691406 638.777344 207.179688 644.71875 207.179688 C 651.558594 207.179688 655.605469 209.96875 658.9375 212.21875 L 659.746094 211.859375 L 660.46875 200.070312 L 660.015625 199.441406 C 656.148438 197.820312 652.097656 196.109375 643.367188 196.109375 C 626.449219 196.109375 620.597656 205.648438 620.597656 215.28125 C 620.597656 226.171875 629.058594 230.128906 634.097656 232.558594 L 637.066406 233.910156 C 643.277344 236.519531 648.046875 238.769531 648.046875 243.539062 C 648.046875 246.960938 645.078125 251.011719 637.246094 251.011719 C 629.058594 251.011719 624.46875 247.410156 621.855469 245.339844 L 620.957031 245.609375 L 620.328125 258.300781 L 620.867188 259.019531 C 621.855469 259.378906 622.847656 259.828125 623.835938 260.101562 C 625.90625 260.820312 631.21875 262.351562 637.96875 262.351562 C 640.667969 262.351562 647.507812 262.078125 652.90625 259.558594 C 660.46875 255.871094 663.707031 249.03125 663.707031 241.378906 C 663.707031 236.25 661.726562 230.761719 656.957031 227.070312 C 654.527344 225.269531 652.1875 224.191406 650.027344 223.199219 Z M 697.460938 250.648438 C 695.929688 251.101562 694.847656 251.460938 693.320312 251.460938 C 688.730469 251.460938 688.371094 248.578125 688.1875 247.230469 C 687.917969 244.890625 687.917969 239.941406 688.007812 236.339844 L 688.1875 223.648438 L 696.289062 224.011719 L 696.828125 223.46875 L 697.730469 213.839844 L 697.1875 213.300781 L 688.1875 213.300781 L 688.460938 198.179688 L 687.828125 197.640625 C 681.710938 199.441406 680.089844 199.890625 673.699219 201.511719 L 673.339844 202.140625 L 673.429688 213.390625 L 668.570312 213.210938 L 668.03125 213.660156 L 667.21875 223.289062 L 667.757812 223.828125 L 673.429688 223.648438 L 673.160156 237.960938 C 673.070312 240.210938 672.980469 242.460938 672.980469 244.800781 C 672.980469 253.078125 673.160156 261.988281 687.199219 261.988281 C 690.710938 261.988281 693.5 261.449219 696.648438 260.910156 L 697.28125 260.28125 L 698.179688 251.011719 Z M 744.167969 234.179688 C 744.257812 226.078125 744.257812 222.570312 741.917969 218.789062 C 740.117188 215.910156 736.519531 212.308594 725 212.308594 C 717.257812 212.308594 712.488281 213.75 707.359375 215.28125 L 706.820312 216 L 706.367188 225.808594 L 707.089844 226.171875 C 710.238281 224.910156 716.089844 222.570312 722.117188 222.570312 C 725.449219 222.570312 726.796875 223.109375 727.96875 224.28125 C 728.867188 225.179688 729.140625 226.800781 729.140625 228.148438 C 718.339844 229.589844 713.296875 230.578125 707.898438 233.910156 C 702.859375 237.058594 701.148438 242.191406 701.148438 246.238281 C 701.148438 255.871094 708.078125 262.078125 716.898438 262.078125 C 723.648438 262.078125 727.519531 258.839844 729.410156 257.308594 L 729.410156 260.640625 L 729.949219 261.269531 C 736.429688 261 738.410156 260.910156 744.257812 261 L 744.707031 260.371094 C 744.078125 251.550781 744.078125 249.300781 744.078125 240.839844 L 744.167969 234.179688 M 729.320312 248.488281 C 727.429688 249.570312 725 250.828125 722.027344 250.828125 C 718.789062 250.828125 716.089844 249.121094 716.089844 245.339844 C 716.089844 239.398438 723.199219 238.410156 729.320312 237.601562 Z M 779.902344 250.648438 C 778.371094 251.101562 777.289062 251.460938 775.761719 251.460938 C 771.171875 251.460938 770.8125 248.578125 770.628906 247.230469 C 770.359375 244.890625 770.359375 239.941406 770.449219 236.339844 L 770.628906 223.648438 L 778.730469 224.011719 L 779.269531 223.46875 L 780.171875 213.839844 L 779.628906 213.300781 L 770.628906 213.300781 L 770.902344 198.179688 L 770.269531 197.640625 C 764.152344 199.441406 762.53125 199.890625 756.140625 201.511719 L 755.78125 202.140625 L 755.871094 213.390625 L 751.011719 213.210938 L 750.472656 213.660156 L 749.660156 223.289062 L 750.199219 223.828125 L 755.871094 223.648438 L 755.601562 237.960938 C 755.511719 240.210938 755.421875 242.460938 755.421875 244.800781 C 755.421875 253.078125 755.601562 261.988281 769.640625 261.988281 C 773.152344 261.988281 775.941406 261.449219 779.089844 260.910156 L 779.722656 260.28125 L 780.621094 251.011719 Z M 826.519531 247.679688 C 823.101562 249.480469 819.050781 251.550781 812.480469 251.550781 C 807.082031 251.550781 803.390625 249.839844 801.230469 246.601562 C 799.878906 244.710938 799.609375 242.910156 799.25 241.109375 L 828.320312 240.570312 L 828.859375 239.941406 C 828.769531 235.53125 828.679688 231.03125 827.421875 226.53125 C 824.269531 215.910156 817.339844 213.75 814.28125 213.03125 C 812.03125 212.398438 809.960938 212.21875 807.890625 212.21875 C 793.761719 212.21875 784.398438 221.488281 784.398438 237.058594 C 784.398438 241.289062 785.121094 245.699219 786.558594 248.851562 C 791.78125 261 804.019531 262.078125 810.5 262.078125 C 817.96875 262.078125 821.210938 260.730469 825.980469 258.839844 L 826.519531 258.121094 L 827.148438 247.949219 L 826.519531 247.679688 M 799.25 231.570312 C 799.519531 228.78125 800.148438 225 803.570312 222.839844 C 804.648438 222.121094 805.910156 221.851562 807.171875 221.851562 C 810.140625 221.851562 811.941406 223.378906 812.929688 225 C 814.191406 226.980469 814.28125 229.140625 814.28125 231.210938 Z M 831.738281 261 "/>
<path fill-rule="nonzero" fill="rgb(34.901961%, 14.901961%, 14.901961%)" fill-opacity="1" d="M 411.53125 317.28125 L 400.101562 317.460938 L 399.558594 318 C 399.921875 329.699219 400.191406 337.53125 400.191406 347.878906 C 400.191406 358.859375 399.921875 369.75 399.648438 380.730469 L 400.191406 381.269531 C 406.851562 381 408.289062 380.910156 415.492188 381 L 415.941406 380.460938 C 415.582031 370.648438 415.582031 368.398438 415.582031 359.21875 C 425.660156 359.308594 436.460938 359.308594 442.941406 351.390625 C 445.460938 348.328125 447.621094 343.199219 447.621094 336.898438 C 447.621094 333.03125 446.71875 324.480469 439.25 320.25 C 433.851562 317.101562 426.199219 317.101562 419.449219 317.101562 L 411.53125 317.28125 M 415.582031 328.171875 C 417.558594 328.078125 419.449219 328.078125 421.429688 328.078125 C 429.351562 328.261719 431.511719 332.308594 431.511719 337.53125 C 431.511719 338.789062 431.511719 344.011719 426.742188 346.621094 C 424.308594 347.96875 420.980469 348.148438 415.582031 348.148438 Z M 493.878906 354.179688 C 493.96875 346.078125 493.96875 342.570312 491.628906 338.789062 C 489.828125 335.910156 486.230469 332.308594 474.710938 332.308594 C 466.96875 332.308594 462.199219 333.75 457.070312 335.28125 L 456.53125 336 L 456.078125 345.808594 L 456.800781 346.171875 C 459.949219 344.910156 465.800781 342.570312 471.828125 342.570312 C 475.160156 342.570312 476.507812 343.109375 477.679688 344.28125 C 478.578125 345.179688 478.851562 346.800781 478.851562 348.148438 C 468.050781 349.589844 463.007812 350.578125 457.609375 353.910156 C 452.570312 357.058594 450.859375 362.191406 450.859375 366.238281 C 450.859375 375.871094 457.789062 382.078125 466.609375 382.078125 C 473.359375 382.078125 477.230469 378.839844 479.121094 377.308594 L 479.121094 380.640625 L 479.660156 381.269531 C 486.140625 381 488.121094 380.910156 493.96875 381 L 494.417969 380.371094 C 493.789062 371.550781 493.789062 369.300781 493.789062 360.839844 L 493.878906 354.179688 M 479.03125 368.488281 C 477.140625 369.570312 474.710938 370.828125 471.738281 370.828125 C 468.5 370.828125 465.800781 369.121094 465.800781 365.339844 C 465.800781 359.398438 472.910156 358.410156 479.03125 357.601562 Z M 530.421875 347.609375 L 532.941406 332.941406 L 532.402344 332.308594 C 531.773438 332.308594 531.140625 332.21875 530.511719 332.21875 C 526.820312 332.21875 522.683594 334.289062 519.800781 340.949219 L 520.070312 332.671875 L 519.351562 331.949219 C 512.691406 333.390625 510.980469 333.660156 504.410156 334.648438 L 503.871094 335.191406 C 504.410156 341.941406 504.683594 345.988281 504.683594 358.5 C 504.683594 365.878906 504.589844 373.261719 504.410156 380.730469 L 504.953125 381.269531 C 511.613281 381 513.050781 380.910156 520.25 381 L 520.703125 380.371094 C 520.339844 373.078125 519.800781 362.910156 519.800781 356.699219 C 519.800781 352.648438 519.800781 346.710938 525.921875 346.710938 C 527.453125 346.710938 528.351562 347.25 529.613281 347.96875 Z M 584.421875 379.828125 C 575.960938 365.519531 575.0625 363.898438 568.222656 351.570312 C 574.433594 343.109375 575.0625 342.210938 581.453125 334.019531 L 581 333.121094 L 566.332031 333.300781 L 565.433594 333.929688 C 558.410156 346.078125 557.511719 347.519531 553.371094 353.730469 L 553.371094 343.738281 C 553.460938 326.910156 553.550781 323.308594 554 309.71875 L 553.28125 309.179688 L 537.621094 311.519531 L 537.082031 312.148438 C 537.710938 320.878906 537.980469 325.109375 538.160156 336.898438 C 538.339844 351.480469 538.339844 366.058594 538.25 380.640625 L 538.882812 381.269531 C 544.910156 381 546.621094 381 553.460938 381 L 554 380.371094 L 553.460938 365.160156 L 553.371094 354.808594 C 561.203125 369.210938 562.191406 371.191406 566.78125 380.730469 L 567.589844 381.269531 L 583.792969 380.640625 Z M 583.339844 381 "/>
</svg>
