<?xml version="1.0" encoding="UTF-8"?>
<svg xmlns="http://www.w3.org/2000/svg" xmlns:xlink="http://www.w3.org/1999/xlink" width="975" height="1300" viewBox="0 0 975 1300">
<path fill-rule="nonzero" fill="rgb(98.823529%, 78.823529%, 9.019608%)" fill-opacity="1" d="M 50 50 L 925 50 L 925 290 L 50 290 Z M 50 50 "/>
<path fill-rule="nonzero" fill="rgb(34.901961%, 14.901961%, 14.901961%)" fill-opacity="1" d="M 144.273438 116.25 C 150.304688 126.511719 151.65625 129.210938 157.414062 141 L 158.136719 141.449219 C 160.925781 141.269531 163.625 141.089844 166.414062 141 C 169.207031 140.910156 172.085938 140.820312 174.875 140.820312 L 175.414062 139.738281 C 171.996094 135.328125 171.003906 133.980469 164.523438 123.628906 C 161.644531 119.039062 160.207031 116.609375 157.957031 112.648438 C 162.003906 110.851562 170.195312 107.070312 170.195312 95.640625 C 170.195312 91.679688 169.113281 83.488281 161.734375 79.621094 C 157.054688 77.191406 152.195312 77.101562 141.664062 77.28125 L 135.363281 77.371094 L 124.386719 77.371094 L 123.933594 77.910156 C 124.296875 87 124.65625 96.359375 124.65625 120.839844 C 124.65625 129.210938 124.566406 133.261719 124.296875 140.730469 L 124.835938 141.269531 C 131.40625 141 132.84375 140.910156 140.226562 141 L 140.765625 140.460938 C 140.046875 130.019531 139.957031 127.140625 139.863281 116.429688 L 144.273438 116.25 M 140.046875 88.261719 C 141.304688 88.171875 142.566406 88.171875 143.824219 88.171875 C 147.335938 88.171875 154.265625 88.171875 154.265625 96.089844 C 154.265625 98.609375 153.636719 101.941406 150.304688 104.011719 C 147.785156 105.539062 144.546875 105.71875 140.046875 105.808594 Z M 196.476562 140.371094 C 196.023438 133.441406 195.664062 128.128906 195.664062 115.710938 C 195.664062 108.058594 195.84375 100.320312 195.933594 92.671875 L 195.304688 91.949219 L 179.824219 94.648438 L 179.285156 95.191406 C 180.003906 102.03125 180.273438 105.179688 180.273438 117.960938 C 180.273438 127.769531 180.003906 133.261719 179.734375 140.640625 L 180.273438 141.269531 C 186.753906 141 188.554688 140.910156 195.84375 141 L 196.476562 140.371094 M 195.035156 83.308594 L 195.304688 71.070312 L 194.765625 70.53125 L 180.09375 72.328125 L 179.554688 72.960938 C 179.734375 76.199219 179.824219 78.089844 179.824219 80.25 C 179.824219 81.960938 179.824219 83.761719 179.734375 85.46875 L 180.363281 86.011719 C 186.484375 84.929688 188.195312 84.75 194.585938 83.941406 Z M 241.65625 128.039062 C 239.226562 129.480469 236.886719 130.921875 232.296875 130.921875 C 222.125 130.921875 220.054688 122.460938 220.054688 117.058594 C 220.054688 110.488281 222.9375 102.929688 231.667969 102.929688 C 235.625 102.929688 237.785156 104.371094 240.488281 106.171875 L 241.386719 105.898438 C 241.746094 101.128906 241.835938 99.871094 242.554688 95.101562 L 242.105469 94.558594 C 238.144531 93.300781 234.726562 92.21875 229.507812 92.21875 C 208.355469 92.21875 204.214844 108.238281 204.214844 117.421875 C 204.214844 127.769531 209.617188 141.808594 229.867188 141.808594 C 234.636719 141.808594 237.695312 140.910156 241.476562 139.828125 L 242.015625 139.289062 L 242.375 128.488281 Z M 293.675781 140.371094 C 293.316406 132.988281 293.226562 130.46875 293.046875 121.109375 L 293.046875 114.359375 C 292.957031 105.808594 292.867188 100.859375 290.253906 97.078125 C 287.644531 93.390625 283.867188 92.21875 279.90625 92.21875 C 273.335938 92.21875 268.207031 95.371094 264.605469 97.53125 L 264.875 69.808594 L 264.335938 69.179688 L 248.945312 71.609375 L 248.496094 72.148438 C 249.304688 80.878906 249.484375 84.121094 249.664062 95.730469 C 249.847656 103.019531 249.9375 110.308594 249.9375 117.601562 C 249.9375 126.511719 249.753906 131.820312 249.574219 140.640625 L 250.027344 141.269531 C 256.6875 140.910156 258.035156 140.910156 265.324219 140.910156 L 265.867188 140.371094 C 265.234375 126.871094 265.144531 122.820312 265.054688 106.890625 C 266.765625 105.71875 268.925781 104.191406 271.984375 104.191406 C 276.9375 104.191406 277.296875 109.320312 277.65625 112.921875 C 277.835938 115.710938 277.925781 128.488281 277.925781 131.820312 C 277.925781 134.789062 277.835938 137.671875 277.835938 140.640625 L 278.285156 141.269531 C 284.765625 140.910156 286.207031 140.910156 293.136719 140.910156 Z M 343.984375 114.179688 C 344.074219 106.078125 344.074219 102.570312 341.734375 98.789062 C 339.933594 95.910156 336.335938 92.308594 324.816406 92.308594 C 317.074219 92.308594 312.304688 93.75 307.175781 95.28125 L 306.636719 96 L 306.183594 105.808594 L 306.90625 106.171875 C 310.054688 104.910156 315.90625 102.570312 321.933594 102.570312 C 325.265625 102.570312 326.613281 103.109375 327.785156 104.28125 C 328.683594 105.179688 328.957031 106.800781 328.957031 108.148438 C 318.15625 109.589844 313.113281 110.578125 307.714844 113.910156 C 302.675781 117.058594 300.964844 122.191406 300.964844 126.238281 C 300.964844 135.871094 307.894531 142.078125 316.714844 142.078125 C 323.464844 142.078125 327.335938 138.839844 329.226562 137.308594 L 329.226562 140.640625 L 329.765625 141.269531 C 336.246094 141 338.226562 140.910156 344.074219 141 L 344.523438 140.371094 C 343.894531 131.550781 343.894531 129.300781 343.894531 120.839844 L 343.984375 114.179688 M 329.136719 128.488281 C 327.246094 129.570312 324.816406 130.828125 321.84375 130.828125 C 318.605469 130.828125 315.90625 129.121094 315.90625 125.339844 C 315.90625 119.398438 323.015625 118.410156 329.136719 117.601562 Z M 380.523438 107.609375 L 383.042969 92.941406 L 382.503906 92.308594 C 381.875 92.308594 381.242188 92.21875 380.613281 92.21875 C 376.921875 92.21875 372.785156 94.289062 369.902344 100.949219 L 370.171875 92.671875 L 369.453125 91.949219 C 362.792969 93.390625 361.082031 93.660156 354.511719 94.648438 L 353.972656 95.191406 C 354.511719 101.941406 354.785156 105.988281 354.785156 118.5 C 354.785156 125.878906 354.691406 133.261719 354.511719 140.730469 L 355.054688 141.269531 C 361.714844 141 363.152344 140.910156 370.351562 141 L 370.804688 140.371094 C 370.441406 133.078125 369.902344 122.910156 369.902344 116.699219 C 369.902344 112.648438 369.902344 106.710938 376.023438 106.710938 C 377.554688 106.710938 378.453125 107.25 379.714844 107.96875 Z M 432.363281 140.460938 C 432.003906 132.359375 431.734375 126.960938 431.734375 115.171875 C 431.734375 91.410156 432.09375 81.601562 432.453125 69.71875 L 431.824219 69.179688 L 416.972656 71.519531 L 416.523438 72.058594 C 417.0625 80.519531 417.152344 82.769531 417.0625 93.03125 C 410.3125 92.851562 401.851562 92.671875 395.011719 98.070312 C 388.714844 102.929688 386.101562 110.398438 386.101562 119.671875 C 386.101562 126.691406 387.992188 133.710938 393.304688 138.121094 C 397.261719 141.359375 402.125 142.078125 405.09375 142.078125 C 411.484375 142.078125 414.8125 139.109375 416.972656 137.21875 L 416.792969 140.730469 L 417.242188 141.269531 C 423.453125 141 425.164062 141 431.914062 141 L 432.363281 140.460938 M 417.0625 103.828125 C 417.152344 115.800781 417.0625 118.140625 416.792969 129.03125 C 414.992188 130.109375 413.191406 131.191406 410.671875 131.191406 C 401.941406 131.191406 401.941406 120.03125 401.941406 118.230469 C 401.941406 111.300781 403.921875 103.558594 414.003906 103.558594 C 414.992188 103.558594 415.804688 103.648438 417.0625 103.828125 Z M 461.527344 109.949219 C 458.464844 108.871094 456.035156 107.878906 456.035156 105.359375 C 456.035156 104.28125 456.757812 101.308594 462.335938 101.308594 C 467.828125 101.308594 471.335938 103.648438 473.585938 105.089844 L 474.398438 104.820312 L 475.296875 95.011719 L 474.847656 94.46875 C 470.617188 93.300781 466.925781 92.21875 461.078125 92.21875 C 456.667969 92.21875 447.847656 92.578125 443.167969 99.328125 C 441.996094 100.949219 440.738281 103.648438 440.738281 107.25 C 440.738281 116.878906 448.207031 119.761719 452.4375 121.378906 L 455.855469 122.640625 C 458.285156 123.449219 462.246094 124.800781 462.246094 128.039062 C 462.246094 130.289062 460.175781 132.71875 455.136719 132.71875 C 452.617188 132.71875 448.925781 131.910156 445.597656 130.199219 C 444.066406 129.390625 443.347656 128.761719 441.996094 127.679688 L 441.1875 128.039062 C 441.007812 132.71875 440.917969 133.710938 440.554688 138.210938 L 441.007812 139.019531 C 445.417969 140.640625 449.195312 142.078125 455.765625 142.078125 C 462.605469 142.078125 476.105469 140.820312 477.726562 127.949219 C 477.816406 127.230469 477.816406 126.601562 477.816406 125.96875 C 477.816406 116.070312 470.886719 113.460938 465.9375 111.570312 Z M 531.546875 117.058594 C 531.546875 113.550781 531.546875 98.96875 518.945312 94.019531 C 514.984375 92.488281 510.304688 92.308594 507.964844 92.308594 C 492.304688 92.308594 483.484375 100.679688 483.484375 117.238281 C 483.484375 123 484.386719 128.851562 487.714844 133.710938 C 490.054688 137.21875 494.464844 142.078125 507.335938 142.078125 C 526.414062 142.078125 531.546875 130.558594 531.546875 117.058594 M 515.976562 116.96875 C 515.976562 124.351562 514.984375 132.539062 507.515625 132.539062 C 505.175781 132.539062 503.554688 131.460938 502.476562 130.46875 C 500.945312 128.941406 499.234375 125.878906 499.234375 117.148438 C 499.234375 114.539062 499.234375 108.78125 501.035156 105.628906 C 502.386719 103.199219 504.726562 101.578125 507.605469 101.578125 C 510.125 101.578125 512.195312 102.929688 513.367188 104.371094 C 515.527344 106.980469 515.976562 112.109375 515.976562 116.96875 Z M 584.195312 140.371094 C 583.746094 132.449219 583.746094 129.929688 583.566406 121.109375 L 583.566406 114.089844 C 583.476562 105.449219 583.386719 101.308594 581.136719 97.621094 C 578.34375 92.941406 573.214844 92.21875 569.976562 92.21875 C 564.484375 92.21875 559.714844 95.101562 555.574219 97.53125 L 555.753906 92.578125 L 554.855469 91.949219 C 547.925781 93.390625 546.394531 93.660156 539.644531 94.558594 L 539.105469 95.191406 C 539.824219 103.019531 540.367188 108.691406 540.367188 123.359375 C 540.367188 129.121094 540.273438 134.878906 540.183594 140.640625 L 540.726562 141.179688 C 547.207031 140.910156 548.554688 140.910156 555.753906 140.910156 L 556.296875 140.371094 C 555.753906 126.511719 555.664062 123 555.574219 106.890625 C 557.464844 105.628906 559.625 104.101562 562.503906 104.101562 C 567.457031 104.101562 567.90625 109.410156 568.175781 112.648438 C 568.355469 115.621094 568.445312 127.949219 568.445312 131.371094 C 568.445312 134.429688 568.355469 137.578125 568.355469 140.640625 L 568.894531 141.179688 C 574.835938 141 576.367188 140.910156 583.566406 140.910156 Z M 674.285156 123.179688 C 674.285156 118.679688 674.375 114.179688 674.464844 109.589844 L 674.015625 109.050781 L 658.714844 109.320312 L 658.265625 109.859375 C 659.074219 118.679688 659.164062 120.839844 658.984375 129.03125 C 656.554688 129.570312 654.757812 130.019531 652.234375 130.019531 C 638.285156 130.019531 635.765625 116.699219 635.765625 109.949219 C 635.765625 95.730469 643.414062 87.988281 654.757812 87.988281 C 661.597656 87.988281 665.644531 90.691406 669.875 93.480469 L 670.597656 93.210938 C 671.046875 87.628906 671.226562 86.191406 671.945312 80.789062 L 671.496094 80.25 C 667.714844 78.628906 661.6875 76.109375 652.324219 76.109375 C 642.066406 76.109375 630.816406 78.988281 623.707031 91.050781 C 620.464844 96.71875 619.117188 104.011719 619.117188 110.039062 C 619.117188 118.5 621.367188 125.609375 625.414062 130.828125 C 630.726562 137.671875 637.296875 139.828125 640.804688 140.820312 C 643.414062 141.539062 647.285156 142.351562 652.867188 142.351562 C 662.136719 142.351562 667.804688 140.460938 674.105469 138.390625 L 674.554688 137.671875 C 674.464844 133.53125 674.285156 129.390625 674.285156 125.25 Z M 710.464844 107.609375 L 712.984375 92.941406 L 712.445312 92.308594 C 711.816406 92.308594 711.183594 92.21875 710.554688 92.21875 C 706.863281 92.21875 702.726562 94.289062 699.84375 100.949219 L 700.113281 92.671875 L 699.394531 91.949219 C 692.734375 93.390625 691.023438 93.660156 684.453125 94.648438 L 683.914062 95.191406 C 684.453125 101.941406 684.726562 105.988281 684.726562 118.5 C 684.726562 125.878906 684.632812 133.261719 684.453125 140.730469 L 684.996094 141.269531 C 691.65625 141 693.09375 140.910156 700.292969 141 L 700.746094 140.371094 C 700.382812 133.078125 699.84375 122.910156 699.84375 116.699219 C 699.84375 112.648438 699.84375 106.710938 705.964844 106.710938 C 707.496094 106.710938 708.394531 107.25 709.65625 107.96875 Z M 764.015625 117.058594 C 764.015625 113.550781 764.015625 98.96875 751.414062 94.019531 C 747.453125 92.488281 742.773438 92.308594 740.433594 92.308594 C 724.773438 92.308594 715.953125 100.679688 715.953125 117.238281 C 715.953125 123 716.855469 128.851562 720.183594 133.710938 C 722.523438 137.21875 726.933594 142.078125 739.804688 142.078125 C 758.882812 142.078125 764.015625 130.558594 764.015625 117.058594 M 748.445312 116.96875 C 748.445312 124.351562 747.453125 132.539062 739.984375 132.539062 C 737.644531 132.539062 736.023438 131.460938 734.945312 130.46875 C 733.414062 128.941406 731.703125 125.878906 731.703125 117.148438 C 731.703125 114.539062 731.703125 108.78125 733.503906 105.628906 C 734.855469 103.199219 737.195312 101.578125 740.074219 101.578125 C 742.59375 101.578125 744.664062 102.929688 745.835938 104.371094 C 747.996094 106.980469 748.445312 112.109375 748.445312 116.96875 Z M 797.402344 140.28125 C 800.285156 131.28125 801.992188 125.699219 803.882812 120.03125 C 806.3125 112.738281 810.273438 101.039062 812.792969 93.660156 L 812.34375 93.03125 L 799.742188 93.300781 L 799.113281 93.929688 C 797.855469 99.960938 797.585938 101.21875 795.785156 108.238281 L 791.195312 125.96875 L 788.945312 116.25 L 787.234375 109.320312 C 784.984375 100.949219 784.625 99.238281 783.363281 93.300781 L 782.734375 92.761719 C 775.625 93.570312 773.824219 93.660156 766.984375 93.75 L 766.625 94.46875 C 778.59375 129.929688 779.585938 133.261719 781.5625 140.640625 L 782.195312 141.269531 C 788.042969 141 790.382812 140.910156 796.863281 141 Z M 857.523438 127.679688 C 854.105469 129.480469 850.054688 131.550781 843.484375 131.550781 C 838.085938 131.550781 834.394531 129.839844 832.234375 126.601562 C 830.882812 124.710938 830.613281 122.910156 830.253906 121.109375 L 859.324219 120.570312 L 859.863281 119.941406 C 859.773438 115.53125 859.683594 111.03125 858.425781 106.53125 C 855.273438 95.910156 848.34375 93.75 845.285156 93.03125 C 843.035156 92.398438 840.964844 92.21875 838.894531 92.21875 C 824.765625 92.21875 815.402344 101.488281 815.402344 117.058594 C 815.402344 121.289062 816.125 125.699219 817.5625 128.851562 C 822.785156 141 835.023438 142.078125 841.503906 142.078125 C 848.972656 142.078125 852.214844 140.730469 856.984375 138.839844 L 857.523438 138.121094 L 858.152344 127.949219 L 857.523438 127.679688 M 830.253906 111.570312 C 830.523438 108.78125 831.152344 105 834.574219 102.839844 C 835.652344 102.121094 836.914062 101.851562 838.175781 101.851562 C 841.144531 101.851562 842.945312 103.378906 843.933594 105 C 845.195312 106.980469 845.285156 109.140625 845.285156 111.210938 Z M 862.746094 141 "/>
<path fill-rule="nonzero" fill="rgb(34.901961%, 14.901961%, 14.901961%)" fill-opacity="1" d="M 303.890625 222.300781 C 296.332031 219.148438 292.371094 217.53125 292.371094 213.480469 C 292.371094 210.691406 294.980469 207.179688 300.921875 207.179688 C 307.761719 207.179688 311.808594 209.96875 315.140625 212.21875 L 315.949219 211.859375 L 316.671875 200.070312 L 316.21875 199.441406 C 312.351562 197.820312 308.300781 196.109375 299.570312 196.109375 C 282.652344 196.109375 276.800781 205.648438 276.800781 215.28125 C 276.800781 226.171875 285.261719 230.128906 290.300781 232.558594 L 293.269531 233.910156 C 299.480469 236.519531 304.25 238.769531 304.25 243.539062 C 304.25 246.960938 301.28125 251.011719 293.449219 251.011719 C 285.261719 251.011719 280.671875 247.410156 278.058594 245.339844 L 277.160156 245.609375 L 276.53125 258.300781 L 277.070312 259.019531 C 278.058594 259.378906 279.050781 259.828125 280.039062 260.101562 C 282.109375 260.820312 287.421875 262.351562 294.171875 262.351562 C 296.871094 262.351562 303.710938 262.078125 309.109375 259.558594 C 316.671875 255.871094 319.910156 249.03125 319.910156 241.378906 C 319.910156 236.25 317.929688 230.761719 313.160156 227.070312 C 310.730469 225.269531 308.390625 224.191406 306.230469 223.199219 Z M 353.660156 250.648438 C 352.128906 251.101562 351.046875 251.460938 349.519531 251.460938 C 344.929688 251.460938 344.570312 248.578125 344.386719 247.230469 C 344.117188 244.890625 344.117188 239.941406 344.207031 236.339844 L 344.386719 223.648438 L 352.488281 224.011719 L 353.027344 223.46875 L 353.929688 213.839844 L 353.386719 213.300781 L 344.386719 213.300781 L 344.660156 198.179688 L 344.027344 197.640625 C 337.910156 199.441406 336.289062 199.890625 329.898438 201.511719 L 329.539062 202.140625 L 329.628906 213.390625 L 324.769531 213.210938 L 324.230469 213.660156 L 323.417969 223.289062 L 323.957031 223.828125 L 329.628906 223.648438 L 329.359375 237.960938 C 329.269531 240.210938 329.179688 242.460938 329.179688 244.800781 C 329.179688 253.078125 329.359375 261.988281 343.398438 261.988281 C 346.910156 261.988281 349.699219 261.449219 352.847656 260.910156 L 353.480469 260.28125 L 354.378906 251.011719 Z M 400.371094 234.179688 C 400.460938 226.078125 400.460938 222.570312 398.121094 218.789062 C 396.320312 215.910156 392.722656 212.308594 381.203125 212.308594 C 373.460938 212.308594 368.691406 213.75 363.5625 215.28125 L 363.023438 216 L 362.570312 225.808594 L 363.292969 226.171875 C 366.441406 224.910156 372.292969 222.570312 378.320312 222.570312 C 381.652344 222.570312 383 223.109375 384.171875 224.28125 C 385.070312 225.179688 385.34375 226.800781 385.34375 228.148438 C 374.542969 229.589844 369.5 230.578125 364.101562 233.910156 C 359.0625 237.058594 357.351562 242.191406 357.351562 246.238281 C 357.351562 255.871094 364.28125 262.078125 373.101562 262.078125 C 379.851562 262.078125 383.722656 258.839844 385.613281 257.308594 L 385.613281 260.640625 L 386.152344 261.269531 C 392.632812 261 394.613281 260.910156 400.460938 261 L 400.910156 260.371094 C 400.28125 251.550781 400.28125 249.300781 400.28125 240.839844 L 400.371094 234.179688 M 385.523438 248.488281 C 383.632812 249.570312 381.203125 250.828125 378.230469 250.828125 C 374.992188 250.828125 372.292969 249.121094 372.292969 245.339844 C 372.292969 239.398438 379.402344 238.410156 385.523438 237.601562 Z M 436.101562 250.648438 C 434.570312 251.101562 433.488281 251.460938 431.960938 251.460938 C 427.371094 251.460938 427.011719 248.578125 426.828125 247.230469 C 426.558594 244.890625 426.558594 239.941406 426.648438 236.339844 L 426.828125 223.648438 L 434.929688 224.011719 L 435.46875 223.46875 L 436.371094 213.839844 L 435.828125 213.300781 L 426.828125 213.300781 L 427.101562 198.179688 L 426.46875 197.640625 C 420.351562 199.441406 418.730469 199.890625 412.339844 201.511719 L 411.980469 202.140625 L 412.070312 213.390625 L 407.210938 213.210938 L 406.671875 213.660156 L 405.859375 223.289062 L 406.398438 223.828125 L 412.070312 223.648438 L 411.800781 237.960938 C 411.710938 240.210938 411.621094 242.460938 411.621094 244.800781 C 411.621094 253.078125 411.800781 261.988281 425.839844 261.988281 C 429.351562 261.988281 432.140625 261.449219 435.289062 260.910156 L 435.921875 260.28125 L 436.820312 251.011719 Z M 482.71875 247.679688 C 479.300781 249.480469 475.25 251.550781 468.679688 251.550781 C 463.28125 251.550781 459.589844 249.839844 457.429688 246.601562 C 456.078125 244.710938 455.808594 242.910156 455.449219 241.109375 L 484.519531 240.570312 L 485.058594 239.941406 C 484.96875 235.53125 484.878906 231.03125 483.621094 226.53125 C 480.46875 215.910156 473.539062 213.75 470.480469 213.03125 C 468.230469 212.398438 466.160156 212.21875 464.089844 212.21875 C 449.960938 212.21875 440.597656 221.488281 440.597656 237.058594 C 440.597656 241.289062 441.320312 245.699219 442.757812 248.851562 C 447.980469 261 460.21875 262.078125 466.699219 262.078125 C 474.167969 262.078125 477.410156 260.730469 482.179688 258.839844 L 482.71875 258.121094 L 483.347656 247.949219 L 482.71875 247.679688 M 455.449219 231.570312 C 455.71875 228.78125 456.347656 225 459.769531 222.839844 C 460.847656 222.121094 462.109375 221.851562 463.371094 221.851562 C 466.339844 221.851562 468.140625 223.378906 469.128906 225 C 470.390625 226.980469 470.480469 229.140625 470.480469 231.210938 Z M 531.679688 197.28125 L 520.25 197.460938 L 519.707031 198 C 520.070312 209.699219 520.339844 217.53125 520.339844 227.878906 C 520.339844 238.859375 520.070312 249.75 519.796875 260.730469 L 520.339844 261.269531 C 527 261 528.4375 260.910156 535.640625 261 L 536.089844 260.460938 C 535.730469 250.648438 535.730469 248.398438 535.730469 239.21875 C 545.808594 239.308594 556.609375 239.308594 563.089844 231.390625 C 565.609375 228.328125 567.769531 223.199219 567.769531 216.898438 C 567.769531 213.03125 566.867188 204.480469 559.398438 200.25 C 554 197.101562 546.347656 197.101562 539.597656 197.101562 L 531.679688 197.28125 M 535.730469 208.171875 C 537.707031 208.078125 539.597656 208.078125 541.578125 208.078125 C 549.5 208.261719 551.660156 212.308594 551.660156 217.53125 C 551.660156 218.789062 551.660156 224.011719 546.890625 226.621094 C 544.457031 227.96875 541.128906 228.148438 535.730469 228.148438 Z M 614.03125 234.179688 C 614.121094 226.078125 614.121094 222.570312 611.78125 218.789062 C 609.980469 215.910156 606.382812 212.308594 594.863281 212.308594 C 587.121094 212.308594 582.351562 213.75 577.222656 215.28125 L 576.683594 216 L 576.230469 225.808594 L 576.953125 226.171875 C 580.101562 224.910156 585.953125 222.570312 591.980469 222.570312 C 595.3125 222.570312 596.660156 223.109375 597.832031 224.28125 C 598.730469 225.179688 599.003906 226.800781 599.003906 228.148438 C 588.203125 229.589844 583.160156 230.578125 577.761719 233.910156 C 572.722656 237.058594 571.011719 242.191406 571.011719 246.238281 C 571.011719 255.871094 577.941406 262.078125 586.761719 262.078125 C 593.511719 262.078125 597.382812 258.839844 599.273438 257.308594 L 599.273438 260.640625 L 599.8125 261.269531 C 606.292969 261 608.273438 260.910156 614.121094 261 L 614.570312 260.371094 C 613.941406 251.550781 613.941406 249.300781 613.941406 240.839844 L 614.03125 234.179688 M 599.183594 248.488281 C 597.292969 249.570312 594.863281 250.828125 591.890625 250.828125 C 588.652344 250.828125 585.953125 249.121094 585.953125 245.339844 C 585.953125 239.398438 593.0625 238.410156 599.183594 237.601562 Z M 650.570312 227.609375 L 653.089844 212.941406 L 652.550781 212.308594 C 651.921875 212.308594 651.289062 212.21875 650.660156 212.21875 C 646.96875 212.21875 642.832031 214.289062 639.949219 220.949219 L 640.21875 212.671875 L 639.5 211.949219 C 632.839844 213.390625 631.128906 213.660156 624.558594 214.648438 L 624.019531 215.191406 C 624.558594 221.941406 624.832031 225.988281 624.832031 238.5 C 624.832031 245.878906 624.738281 253.261719 624.558594 260.730469 L 625.101562 261.269531 C 631.761719 261 633.199219 260.910156 640.398438 261 L 640.851562 260.371094 C 640.488281 253.078125 639.949219 242.910156 639.949219 236.699219 C 639.949219 232.648438 639.949219 226.710938 646.070312 226.710938 C 647.601562 226.710938 648.5 227.25 649.761719 227.96875 Z M 704.570312 259.828125 C 696.109375 245.519531 695.210938 243.898438 688.371094 231.570312 C 694.582031 223.109375 695.210938 222.210938 701.601562 214.019531 L 701.148438 213.121094 L 686.480469 213.300781 L 685.582031 213.929688 C 678.558594 226.078125 677.660156 227.519531 673.519531 233.730469 L 673.519531 223.738281 C 673.609375 206.910156 673.699219 203.308594 674.148438 189.71875 L 673.429688 189.179688 L 657.769531 191.519531 L 657.230469 192.148438 C 657.859375 200.878906 658.128906 205.109375 658.308594 216.898438 C 658.488281 231.480469 658.488281 246.058594 658.398438 260.640625 L 659.03125 261.269531 C 665.058594 261 666.769531 261 673.609375 261 L 674.148438 260.371094 L 673.609375 245.160156 L 673.519531 234.808594 C 681.351562 249.210938 682.339844 251.191406 686.929688 260.730469 L 687.738281 261.269531 L 703.941406 260.640625 Z M 703.492188 261 "/>
</svg>
