<?xml version="1.0" encoding="UTF-8"?>
<svg xmlns="http://www.w3.org/2000/svg" xmlns:xlink="http://www.w3.org/1999/xlink" width="975" height="1300" viewBox="0 0 975 1300">
<path fill-rule="nonzero" fill="rgb(98.823529%, 78.823529%, 9.019608%)" fill-opacity="1" d="M 50 50 L 925 50 L 925 410 L 50 410 Z M 50 50 "/>
<path fill-rule="nonzero" fill="rgb(34.901961%, 14.901961%, 14.901961%)" fill-opacity="1" d="M 248.542969 77.191406 C 239.902344 77.460938 238.101562 77.460938 228.472656 77.460938 L 227.839844 78 C 223.070312 93.300781 220.191406 102.390625 206.960938 140.371094 L 207.320312 141 L 221.359375 141 L 221.992188 140.460938 L 226.402344 124.078125 L 245.839844 124.078125 L 249.710938 140.730469 L 250.339844 141.269531 C 256.910156 141 258.710938 140.910156 266 141 L 266.453125 140.28125 C 255.5625 101.761719 254.300781 97.53125 249.171875 77.730469 L 248.542969 77.191406 M 229.550781 113.191406 L 234.050781 97.980469 L 237.203125 87.449219 L 239.902344 99.148438 L 243.230469 113.191406 Z M 316.3125 140.460938 C 315.953125 132.359375 315.683594 126.960938 315.683594 115.171875 C 315.683594 91.410156 316.042969 81.601562 316.402344 69.71875 L 315.773438 69.179688 L 300.921875 71.519531 L 300.472656 72.058594 C 301.011719 80.519531 301.101562 82.769531 301.011719 93.03125 C 294.261719 92.851562 285.800781 92.671875 278.960938 98.070312 C 272.664062 102.929688 270.050781 110.398438 270.050781 119.671875 C 270.050781 126.691406 271.941406 133.710938 277.253906 138.121094 C 281.210938 141.359375 286.074219 142.078125 289.042969 142.078125 C 295.433594 142.078125 298.761719 139.109375 300.921875 137.21875 L 300.742188 140.730469 L 301.191406 141.269531 C 307.402344 141 309.113281 141 315.863281 141 L 316.3125 140.460938 M 301.011719 103.828125 C 301.101562 115.800781 301.011719 118.140625 300.742188 129.03125 C 298.941406 130.109375 297.140625 131.191406 294.621094 131.191406 C 285.890625 131.191406 285.890625 120.03125 285.890625 118.230469 C 285.890625 111.300781 287.871094 103.558594 297.953125 103.558594 C 298.941406 103.558594 299.753906 103.648438 301.011719 103.828125 Z M 396.863281 140.371094 C 396.410156 132 396.320312 129.660156 396.320312 119.488281 L 396.320312 112.738281 C 396.410156 106.710938 396.5 101.128906 393.890625 97.351562 C 390.382812 92.21875 384.171875 92.21875 382.730469 92.21875 C 375.351562 92.21875 370.402344 95.550781 366.800781 98.070312 C 365.542969 96 363.292969 92.21875 356.09375 92.21875 C 350.152344 92.21875 346.28125 94.921875 342.140625 97.800781 L 342.140625 92.761719 L 341.332031 91.949219 C 334.3125 93.300781 332.332031 93.660156 326.03125 94.558594 L 325.492188 95.191406 C 326.210938 102.390625 326.75 107.339844 326.75 125.160156 C 326.75 130.289062 326.660156 135.511719 326.660156 140.640625 L 327.113281 141.179688 C 332.871094 141 334.851562 140.910156 342.320312 140.910156 L 342.863281 140.371094 C 342.230469 126.511719 342.140625 122.371094 342.050781 106.710938 C 343.941406 105.359375 346.011719 104.191406 348.261719 104.191406 C 353.84375 104.191406 354.023438 110.578125 354.023438 118.320312 C 354.023438 131.371094 353.933594 133.351562 353.75 140.640625 L 354.292969 141.269531 C 361.132812 140.910156 363.023438 140.910156 369.230469 140.910156 L 369.773438 140.371094 C 369.230469 131.820312 369.140625 129.300781 369.050781 118.410156 L 369.050781 115.078125 L 368.960938 105.988281 C 370.492188 105 372.472656 103.738281 375.171875 103.738281 C 380.300781 103.738281 381.113281 108.601562 381.113281 116.339844 C 381.113281 118.050781 381.023438 119.761719 381.023438 121.46875 C 380.933594 124.53125 380.84375 137.941406 380.75 140.640625 L 381.292969 141.179688 C 388.042969 140.910156 390.023438 140.910156 396.320312 140.910156 Z M 420.171875 127.140625 L 405.773438 127.410156 L 405.324219 128.128906 L 405.503906 140.640625 L 405.953125 141.269531 L 420.351562 140.910156 L 420.800781 140.371094 L 420.621094 127.679688 Z M 521.417969 140.460938 C 524.75 124.078125 526.191406 117.238281 535.730469 77.730469 L 535.28125 77.191406 C 528.890625 77.460938 527.628906 77.460938 521.601562 77.460938 L 521.058594 78 C 519.621094 87.269531 519.167969 90.421875 517.191406 100.769531 L 514.578125 114.539062 L 511.699219 130.019531 C 510.351562 119.941406 509.898438 116.878906 508.101562 106.441406 L 505.488281 91.320312 L 503.238281 77.460938 L 502.699219 76.828125 L 484.878906 77.28125 L 484.339844 77.820312 L 480.738281 98.519531 L 477.230469 116.96875 L 474.980469 129.390625 C 473.898438 121.558594 473.539062 118.949219 471.648438 108.058594 L 469.308594 94.921875 L 466.339844 77.101562 L 465.800781 76.648438 C 458.058594 77.191406 456.800781 77.191406 450.230469 77.371094 L 449.78125 78 C 456.351562 107.789062 457.789062 114.628906 462.648438 140.730469 L 463.191406 141.269531 C 472.28125 140.910156 474.710938 140.910156 483.53125 141 L 484.160156 140.460938 L 486.050781 129.300781 L 489.019531 112.828125 L 492.261719 93.570312 C 493.339844 102.390625 493.609375 104.640625 495.230469 114.359375 L 497.480469 128.398438 L 499.371094 140.730469 L 499.820312 141.269531 C 508.460938 141 511.429688 140.910156 520.96875 141 Z M 556.703125 140.371094 C 556.25 133.441406 555.890625 128.128906 555.890625 115.710938 C 555.890625 108.058594 556.070312 100.320312 556.160156 92.671875 L 555.53125 91.949219 L 540.050781 94.648438 L 539.511719 95.191406 C 540.230469 102.03125 540.5 105.179688 540.5 117.960938 C 540.5 127.769531 540.230469 133.261719 539.960938 140.640625 L 540.5 141.269531 C 546.980469 141 548.78125 140.910156 556.070312 141 L 556.703125 140.371094 M 555.261719 83.308594 L 555.53125 71.070312 L 554.992188 70.53125 L 540.320312 72.328125 L 539.78125 72.960938 C 539.960938 76.199219 540.050781 78.089844 540.050781 80.25 C 540.050781 81.960938 540.050781 83.761719 539.960938 85.46875 L 540.589844 86.011719 C 546.710938 84.929688 548.421875 84.75 554.8125 83.941406 Z M 582.53125 140.371094 C 582.082031 130.019531 581.632812 120.570312 581.632812 92.128906 C 581.632812 83.578125 581.722656 79.53125 582.082031 69.808594 L 581.453125 69.179688 L 566.0625 71.609375 L 565.703125 72.148438 C 566.601562 83.128906 566.691406 86.101562 566.871094 100.679688 C 566.964844 105.988281 566.964844 111.300781 566.964844 116.609375 C 566.964844 126.328125 566.78125 131.730469 566.421875 140.640625 L 566.964844 141.269531 C 572.992188 141 575.421875 140.910156 581.992188 141 Z M 608.808594 140.371094 C 608.359375 130.019531 607.910156 120.570312 607.910156 92.128906 C 607.910156 83.578125 608 79.53125 608.359375 69.808594 L 607.730469 69.179688 L 592.339844 71.609375 L 591.980469 72.148438 C 592.878906 83.128906 592.96875 86.101562 593.148438 100.679688 C 593.242188 105.988281 593.242188 111.300781 593.242188 116.609375 C 593.242188 126.328125 593.058594 131.730469 592.699219 140.640625 L 593.242188 141.269531 C 599.269531 141 601.699219 140.910156 608.269531 141 Z M 635.542969 140.371094 C 635.089844 133.441406 634.730469 128.128906 634.730469 115.710938 C 634.730469 108.058594 634.910156 100.320312 635 92.671875 L 634.371094 91.949219 L 618.890625 94.648438 L 618.351562 95.191406 C 619.070312 102.03125 619.339844 105.179688 619.339844 117.960938 C 619.339844 127.769531 619.070312 133.261719 618.800781 140.640625 L 619.339844 141.269531 C 625.820312 141 627.621094 140.910156 634.910156 141 L 635.542969 140.371094 M 634.101562 83.308594 L 634.371094 71.070312 L 633.832031 70.53125 L 619.160156 72.328125 L 618.621094 72.960938 C 618.800781 76.199219 618.890625 78.089844 618.890625 80.25 C 618.890625 81.960938 618.890625 83.761719 618.800781 85.46875 L 619.429688 86.011719 C 625.550781 84.929688 627.261719 84.75 633.652344 83.941406 Z M 685.582031 114.179688 C 685.671875 106.078125 685.671875 102.570312 683.332031 98.789062 C 681.53125 95.910156 677.933594 92.308594 666.414062 92.308594 C 658.671875 92.308594 653.902344 93.75 648.773438 95.28125 L 648.234375 96 L 647.78125 105.808594 L 648.503906 106.171875 C 651.652344 104.910156 657.503906 102.570312 663.53125 102.570312 C 666.863281 102.570312 668.210938 103.109375 669.382812 104.28125 C 670.28125 105.179688 670.554688 106.800781 670.554688 108.148438 C 659.753906 109.589844 654.710938 110.578125 649.3125 113.910156 C 644.273438 117.058594 642.5625 122.191406 642.5625 126.238281 C 642.5625 135.871094 649.492188 142.078125 658.3125 142.078125 C 665.0625 142.078125 668.933594 138.839844 670.824219 137.308594 L 670.824219 140.640625 L 671.363281 141.269531 C 677.84375 141 679.824219 140.910156 685.671875 141 L 686.121094 140.371094 C 685.492188 131.550781 685.492188 129.300781 685.492188 120.839844 L 685.582031 114.179688 M 670.734375 128.488281 C 668.84375 129.570312 666.414062 130.828125 663.441406 130.828125 C 660.203125 130.828125 657.503906 129.121094 657.503906 125.339844 C 657.503906 119.398438 664.613281 118.410156 670.734375 117.601562 Z M 766.402344 140.371094 C 765.949219 132 765.859375 129.660156 765.859375 119.488281 L 765.859375 112.738281 C 765.949219 106.710938 766.039062 101.128906 763.429688 97.351562 C 759.921875 92.21875 753.710938 92.21875 752.269531 92.21875 C 744.890625 92.21875 739.941406 95.550781 736.339844 98.070312 C 735.082031 96 732.832031 92.21875 725.632812 92.21875 C 719.691406 92.21875 715.820312 94.921875 711.679688 97.800781 L 711.679688 92.761719 L 710.871094 91.949219 C 703.851562 93.300781 701.871094 93.660156 695.570312 94.558594 L 695.03125 95.191406 C 695.75 102.390625 696.289062 107.339844 696.289062 125.160156 C 696.289062 130.289062 696.199219 135.511719 696.199219 140.640625 L 696.652344 141.179688 C 702.410156 141 704.390625 140.910156 711.859375 140.910156 L 712.402344 140.371094 C 711.769531 126.511719 711.679688 122.371094 711.589844 106.710938 C 713.480469 105.359375 715.550781 104.191406 717.800781 104.191406 C 723.382812 104.191406 723.5625 110.578125 723.5625 118.320312 C 723.5625 131.371094 723.472656 133.351562 723.289062 140.640625 L 723.832031 141.269531 C 730.671875 140.910156 732.5625 140.910156 738.769531 140.910156 L 739.3125 140.371094 C 738.769531 131.820312 738.679688 129.300781 738.589844 118.410156 L 738.589844 115.078125 L 738.5 105.988281 C 740.03125 105 742.011719 103.738281 744.710938 103.738281 C 749.839844 103.738281 750.652344 108.601562 750.652344 116.339844 C 750.652344 118.050781 750.5625 119.761719 750.5625 121.46875 C 750.472656 124.53125 750.382812 137.941406 750.289062 140.640625 L 750.832031 141.179688 C 757.582031 140.910156 759.5625 140.910156 765.859375 140.910156 Z M 771.351562 141 "/>
<path fill-rule="nonzero" fill="rgb(34.901961%, 14.901961%, 14.901961%)" fill-opacity="1" d="M 218.707031 222.300781 C 211.148438 219.148438 207.1875 217.53125 207.1875 213.480469 C 207.1875 210.691406 209.796875 207.179688 215.738281 207.179688 C 222.578125 207.179688 226.625 209.96875 229.957031 212.21875 L 230.765625 211.859375 L 231.488281 200.070312 L 231.035156 199.441406 C 227.167969 197.820312 223.117188 196.109375 214.386719 196.109375 C 197.46875 196.109375 191.617188 205.648438 191.617188 215.28125 C 191.617188 226.171875 200.078125 230.128906 205.117188 232.558594 L 208.085938 233.910156 C 214.296875 236.519531 219.066406 238.769531 219.066406 243.539062 C 219.066406 246.960938 216.097656 251.011719 208.265625 251.011719 C 200.078125 251.011719 195.488281 247.410156 192.875 245.339844 L 191.976562 245.609375 L 191.347656 258.300781 L 191.886719 259.019531 C 192.875 259.378906 193.867188 259.828125 194.855469 260.101562 C 196.925781 260.820312 202.238281 262.351562 208.988281 262.351562 C 211.6875 262.351562 218.527344 262.078125 223.925781 259.558594 C 231.488281 255.871094 234.726562 249.03125 234.726562 241.378906 C 234.726562 236.25 232.746094 230.761719 227.976562 227.070312 C 225.546875 225.269531 223.207031 224.191406 221.046875 223.199219 Z M 268.476562 250.648438 C 266.945312 251.101562 265.863281 251.460938 264.335938 251.460938 C 259.746094 251.460938 259.386719 248.578125 259.203125 247.230469 C 258.933594 244.890625 258.933594 239.941406 259.023438 236.339844 L 259.203125 223.648438 L 267.304688 224.011719 L 267.84375 223.46875 L 268.746094 213.839844 L 268.203125 213.300781 L 259.203125 213.300781 L 259.476562 198.179688 L 258.84375 197.640625 C 252.726562 199.441406 251.105469 199.890625 244.714844 201.511719 L 244.355469 202.140625 L 244.445312 213.390625 L 239.585938 213.210938 L 239.046875 213.660156 L 238.234375 223.289062 L 238.773438 223.828125 L 244.445312 223.648438 L 244.175781 237.960938 C 244.085938 240.210938 243.996094 242.460938 243.996094 244.800781 C 243.996094 253.078125 244.175781 261.988281 258.214844 261.988281 C 261.726562 261.988281 264.515625 261.449219 267.664062 260.910156 L 268.296875 260.28125 L 269.195312 251.011719 Z M 315.1875 234.179688 C 315.277344 226.078125 315.277344 222.570312 312.9375 218.789062 C 311.136719 215.910156 307.539062 212.308594 296.019531 212.308594 C 288.277344 212.308594 283.507812 213.75 278.378906 215.28125 L 277.839844 216 L 277.386719 225.808594 L 278.109375 226.171875 C 281.257812 224.910156 287.109375 222.570312 293.136719 222.570312 C 296.46875 222.570312 297.816406 223.109375 298.988281 224.28125 C 299.886719 225.179688 300.160156 226.800781 300.160156 228.148438 C 289.359375 229.589844 284.316406 230.578125 278.917969 233.910156 C 273.878906 237.058594 272.167969 242.191406 272.167969 246.238281 C 272.167969 255.871094 279.097656 262.078125 287.917969 262.078125 C 294.667969 262.078125 298.539062 258.839844 300.429688 257.308594 L 300.429688 260.640625 L 300.96875 261.269531 C 307.449219 261 309.429688 260.910156 315.277344 261 L 315.726562 260.371094 C 315.097656 251.550781 315.097656 249.300781 315.097656 240.839844 L 315.1875 234.179688 M 300.339844 248.488281 C 298.449219 249.570312 296.019531 250.828125 293.046875 250.828125 C 289.808594 250.828125 287.109375 249.121094 287.109375 245.339844 C 287.109375 239.398438 294.21875 238.410156 300.339844 237.601562 Z M 369.816406 260.371094 C 369.367188 252.449219 369.367188 249.929688 369.1875 241.109375 L 369.1875 234.089844 C 369.097656 225.449219 369.007812 221.308594 366.757812 217.621094 C 363.964844 212.941406 358.835938 212.21875 355.597656 212.21875 C 350.105469 212.21875 345.335938 215.101562 341.195312 217.53125 L 341.375 212.578125 L 340.476562 211.949219 C 333.546875 213.390625 332.015625 213.660156 325.265625 214.558594 L 324.726562 215.191406 C 325.445312 223.019531 325.988281 228.691406 325.988281 243.359375 C 325.988281 249.121094 325.894531 254.878906 325.804688 260.640625 L 326.347656 261.179688 C 332.828125 260.910156 334.175781 260.910156 341.375 260.910156 L 341.917969 260.371094 C 341.375 246.511719 341.285156 243 341.195312 226.890625 C 343.085938 225.628906 345.246094 224.101562 348.125 224.101562 C 353.078125 224.101562 353.527344 229.410156 353.796875 232.648438 C 353.976562 235.621094 354.066406 247.949219 354.066406 251.371094 C 354.066406 254.429688 353.976562 257.578125 353.976562 260.640625 L 354.515625 261.179688 C 360.457031 261 361.988281 260.910156 369.1875 260.910156 Z M 424.175781 260.460938 C 423.816406 252.359375 423.546875 246.960938 423.546875 235.171875 C 423.546875 211.410156 423.90625 201.601562 424.265625 189.71875 L 423.636719 189.179688 L 408.785156 191.519531 L 408.335938 192.058594 C 408.875 200.519531 408.964844 202.769531 408.875 213.03125 C 402.125 212.851562 393.664062 212.671875 386.824219 218.070312 C 380.527344 222.929688 377.914062 230.398438 377.914062 239.671875 C 377.914062 246.691406 379.804688 253.710938 385.117188 258.121094 C 389.074219 261.359375 393.9375 262.078125 396.90625 262.078125 C 403.296875 262.078125 406.625 259.109375 408.785156 257.21875 L 408.605469 260.730469 L 409.054688 261.269531 C 415.265625 261 416.976562 261 423.726562 261 L 424.175781 260.460938 M 408.875 223.828125 C 408.964844 235.800781 408.875 238.140625 408.605469 249.03125 C 406.804688 250.109375 405.003906 251.191406 402.484375 251.191406 C 393.753906 251.191406 393.753906 240.03125 393.753906 238.230469 C 393.753906 231.300781 395.734375 223.558594 405.816406 223.558594 C 406.804688 223.558594 407.617188 223.648438 408.875 223.828125 Z M 450.273438 260.371094 C 449.824219 250.019531 449.375 240.570312 449.375 212.128906 C 449.375 203.578125 449.464844 199.53125 449.824219 189.808594 L 449.195312 189.179688 L 433.804688 191.609375 L 433.445312 192.148438 C 434.34375 203.128906 434.433594 206.101562 434.613281 220.679688 C 434.707031 225.988281 434.707031 231.300781 434.707031 236.609375 C 434.707031 246.328125 434.523438 251.730469 434.164062 260.640625 L 434.707031 261.269531 C 440.734375 261 443.164062 260.910156 449.734375 261 Z M 500.675781 247.679688 C 497.257812 249.480469 493.207031 251.550781 486.636719 251.550781 C 481.238281 251.550781 477.546875 249.839844 475.386719 246.601562 C 474.035156 244.710938 473.765625 242.910156 473.40625 241.109375 L 502.476562 240.570312 L 503.015625 239.941406 C 502.925781 235.53125 502.835938 231.03125 501.578125 226.53125 C 498.425781 215.910156 491.496094 213.75 488.4375 213.03125 C 486.1875 212.398438 484.117188 212.21875 482.046875 212.21875 C 467.917969 212.21875 458.554688 221.488281 458.554688 237.058594 C 458.554688 241.289062 459.277344 245.699219 460.714844 248.851562 C 465.9375 261 478.175781 262.078125 484.65625 262.078125 C 492.125 262.078125 495.367188 260.730469 500.136719 258.839844 L 500.675781 258.121094 L 501.304688 247.949219 L 500.675781 247.679688 M 473.40625 231.570312 C 473.675781 228.78125 474.304688 225 477.726562 222.839844 C 478.804688 222.121094 480.066406 221.851562 481.328125 221.851562 C 484.296875 221.851562 486.097656 223.378906 487.085938 225 C 488.347656 226.980469 488.4375 229.140625 488.4375 231.210938 Z M 551.527344 213.03125 L 539.019531 213.300781 L 538.296875 213.929688 C 536.769531 220.140625 536.410156 221.488281 534.25 228.511719 L 531.910156 236.25 L 529.929688 243 L 528.21875 236.609375 L 525.609375 227.070312 L 522.007812 213.390625 L 521.289062 212.851562 C 514.269531 213.390625 512.738281 213.480469 505.359375 213.660156 L 504.910156 214.289062 C 508.148438 222.839844 516.519531 245.429688 522.097656 262.710938 C 518.410156 272.070312 517.6875 273.691406 513.636719 282.601562 L 514.089844 283.320312 C 516.339844 283.230469 518.859375 283.140625 521.199219 283.140625 C 523.449219 283.140625 525.789062 283.230469 528.039062 283.230469 L 528.667969 282.691406 C 533.617188 263.25 536.046875 255.691406 547.929688 224.371094 C 549.277344 220.769531 550.628906 217.261719 551.886719 213.75 Z M 608.585938 222.300781 C 601.027344 219.148438 597.066406 217.53125 597.066406 213.480469 C 597.066406 210.691406 599.675781 207.179688 605.617188 207.179688 C 612.457031 207.179688 616.503906 209.96875 619.835938 212.21875 L 620.644531 211.859375 L 621.367188 200.070312 L 620.914062 199.441406 C 617.046875 197.820312 612.996094 196.109375 604.265625 196.109375 C 587.347656 196.109375 581.496094 205.648438 581.496094 215.28125 C 581.496094 226.171875 589.957031 230.128906 594.996094 232.558594 L 597.964844 233.910156 C 604.175781 236.519531 608.945312 238.769531 608.945312 243.539062 C 608.945312 246.960938 605.976562 251.011719 598.144531 251.011719 C 589.957031 251.011719 585.367188 247.410156 582.753906 245.339844 L 581.855469 245.609375 L 581.226562 258.300781 L 581.765625 259.019531 C 582.753906 259.378906 583.746094 259.828125 584.734375 260.101562 C 586.804688 260.820312 592.117188 262.351562 598.867188 262.351562 C 601.566406 262.351562 608.40625 262.078125 613.804688 259.558594 C 621.367188 255.871094 624.605469 249.03125 624.605469 241.378906 C 624.605469 236.25 622.625 230.761719 617.855469 227.070312 C 615.425781 225.269531 613.085938 224.191406 610.925781 223.199219 Z M 658.359375 250.648438 C 656.828125 251.101562 655.746094 251.460938 654.21875 251.460938 C 649.628906 251.460938 649.269531 248.578125 649.085938 247.230469 C 648.816406 244.890625 648.816406 239.941406 648.90625 236.339844 L 649.085938 223.648438 L 657.1875 224.011719 L 657.726562 223.46875 L 658.628906 213.839844 L 658.085938 213.300781 L 649.085938 213.300781 L 649.359375 198.179688 L 648.726562 197.640625 C 642.609375 199.441406 640.988281 199.890625 634.597656 201.511719 L 634.238281 202.140625 L 634.328125 213.390625 L 629.46875 213.210938 L 628.929688 213.660156 L 628.117188 223.289062 L 628.65625 223.828125 L 634.328125 223.648438 L 634.058594 237.960938 C 633.96875 240.210938 633.878906 242.460938 633.878906 244.800781 C 633.878906 253.078125 634.058594 261.988281 648.097656 261.988281 C 651.609375 261.988281 654.398438 261.449219 657.546875 260.910156 L 658.179688 260.28125 L 659.078125 251.011719 Z M 705.066406 234.179688 C 705.15625 226.078125 705.15625 222.570312 702.816406 218.789062 C 701.015625 215.910156 697.417969 212.308594 685.898438 212.308594 C 678.15625 212.308594 673.386719 213.75 668.257812 215.28125 L 667.71875 216 L 667.265625 225.808594 L 667.988281 226.171875 C 671.136719 224.910156 676.988281 222.570312 683.015625 222.570312 C 686.347656 222.570312 687.695312 223.109375 688.867188 224.28125 C 689.765625 225.179688 690.039062 226.800781 690.039062 228.148438 C 679.238281 229.589844 674.195312 230.578125 668.796875 233.910156 C 663.757812 237.058594 662.046875 242.191406 662.046875 246.238281 C 662.046875 255.871094 668.976562 262.078125 677.796875 262.078125 C 684.546875 262.078125 688.417969 258.839844 690.308594 257.308594 L 690.308594 260.640625 L 690.847656 261.269531 C 697.328125 261 699.308594 260.910156 705.15625 261 L 705.605469 260.371094 C 704.976562 251.550781 704.976562 249.300781 704.976562 240.839844 L 705.066406 234.179688 M 690.21875 248.488281 C 688.328125 249.570312 685.898438 250.828125 682.925781 250.828125 C 679.6875 250.828125 676.988281 249.121094 676.988281 245.339844 C 676.988281 239.398438 684.097656 238.410156 690.21875 237.601562 Z M 740.796875 250.648438 C 739.265625 251.101562 738.183594 251.460938 736.65625 251.460938 C 732.066406 251.460938 731.707031 248.578125 731.523438 247.230469 C 731.253906 244.890625 731.253906 239.941406 731.34375 236.339844 L 731.523438 223.648438 L 739.625 224.011719 L 740.164062 223.46875 L 741.066406 213.839844 L 740.523438 213.300781 L 731.523438 213.300781 L 731.796875 198.179688 L 731.164062 197.640625 C 725.046875 199.441406 723.425781 199.890625 717.035156 201.511719 L 716.675781 202.140625 L 716.765625 213.390625 L 711.90625 213.210938 L 711.367188 213.660156 L 710.554688 223.289062 L 711.09375 223.828125 L 716.765625 223.648438 L 716.496094 237.960938 C 716.40625 240.210938 716.316406 242.460938 716.316406 244.800781 C 716.316406 253.078125 716.496094 261.988281 730.535156 261.988281 C 734.046875 261.988281 736.835938 261.449219 739.984375 260.910156 L 740.617188 260.28125 L 741.515625 251.011719 Z M 787.417969 247.679688 C 784 249.480469 779.949219 251.550781 773.378906 251.550781 C 767.980469 251.550781 764.289062 249.839844 762.128906 246.601562 C 760.777344 244.710938 760.507812 242.910156 760.148438 241.109375 L 789.21875 240.570312 L 789.757812 239.941406 C 789.667969 235.53125 789.578125 231.03125 788.320312 226.53125 C 785.167969 215.910156 778.238281 213.75 775.179688 213.03125 C 772.929688 212.398438 770.859375 212.21875 768.789062 212.21875 C 754.660156 212.21875 745.296875 221.488281 745.296875 237.058594 C 745.296875 241.289062 746.019531 245.699219 747.457031 248.851562 C 752.679688 261 764.917969 262.078125 771.398438 262.078125 C 778.867188 262.078125 782.109375 260.730469 786.878906 258.839844 L 787.417969 258.121094 L 788.046875 247.949219 L 787.417969 247.679688 M 760.148438 231.570312 C 760.417969 228.78125 761.046875 225 764.46875 222.839844 C 765.546875 222.121094 766.808594 221.851562 768.070312 221.851562 C 771.039062 221.851562 772.839844 223.378906 773.828125 225 C 775.089844 226.980469 775.179688 229.140625 775.179688 231.210938 Z M 792.636719 261 "/>
<path fill-rule="nonzero" fill="rgb(34.901961%, 14.901961%, 14.901961%)" fill-opacity="1" d="M 180.769531 356.25 C 186.800781 366.511719 188.152344 369.210938 193.910156 381 L 194.632812 381.449219 C 197.421875 381.269531 200.121094 381.089844 202.910156 381 C 205.703125 380.910156 208.582031 380.820312 211.371094 380.820312 L 211.910156 379.738281 C 208.492188 375.328125 207.5 373.980469 201.019531 363.628906 C 198.140625 359.039062 196.703125 356.609375 194.453125 352.648438 C 198.5 350.851562 206.691406 347.070312 206.691406 335.640625 C 206.691406 331.679688 205.609375 323.488281 198.230469 319.621094 C 193.550781 317.191406 188.691406 317.101562 178.160156 317.28125 L 171.859375 317.371094 L 160.882812 317.371094 L 160.429688 317.910156 C 160.792969 327 161.152344 336.359375 161.152344 360.839844 C 161.152344 369.210938 161.0625 373.261719 160.792969 380.730469 L 161.332031 381.269531 C 167.902344 381 169.339844 380.910156 176.722656 381 L 177.261719 380.460938 C 176.542969 370.019531 176.453125 367.140625 176.359375 356.429688 L 180.769531 356.25 M 176.542969 328.261719 C 177.800781 328.171875 179.0625 328.171875 180.320312 328.171875 C 183.832031 328.171875 190.761719 328.171875 190.761719 336.089844 C 190.761719 338.609375 190.132812 341.941406 186.800781 344.011719 C 184.28125 345.539062 181.042969 345.71875 176.542969 345.808594 Z M 256.640625 367.679688 C 253.222656 369.480469 249.171875 371.550781 242.601562 371.550781 C 237.203125 371.550781 233.511719 369.839844 231.351562 366.601562 C 230 364.710938 229.730469 362.910156 229.371094 361.109375 L 258.441406 360.570312 L 258.980469 359.941406 C 258.890625 355.53125 258.800781 351.03125 257.542969 346.53125 C 254.390625 335.910156 247.460938 333.75 244.402344 333.03125 C 242.152344 332.398438 240.082031 332.21875 238.011719 332.21875 C 223.882812 332.21875 214.519531 341.488281 214.519531 357.058594 C 214.519531 361.289062 215.242188 365.699219 216.679688 368.851562 C 221.902344 381 234.140625 382.078125 240.621094 382.078125 C 248.089844 382.078125 251.332031 380.730469 256.101562 378.839844 L 256.640625 378.121094 L 257.269531 367.949219 L 256.640625 367.679688 M 229.371094 351.570312 C 229.640625 348.78125 230.269531 345 233.691406 342.839844 C 234.769531 342.121094 236.03125 341.851562 237.292969 341.851562 C 240.261719 341.851562 242.0625 343.378906 243.050781 345 C 244.3125 346.980469 244.402344 349.140625 244.402344 351.210938 Z M 302.449219 368.039062 C 300.019531 369.480469 297.679688 370.921875 293.089844 370.921875 C 282.917969 370.921875 280.847656 362.460938 280.847656 357.058594 C 280.847656 350.488281 283.730469 342.929688 292.460938 342.929688 C 296.417969 342.929688 298.578125 344.371094 301.28125 346.171875 L 302.179688 345.898438 C 302.539062 341.128906 302.628906 339.871094 303.347656 335.101562 L 302.898438 334.558594 C 298.9375 333.300781 295.519531 332.21875 290.300781 332.21875 C 269.148438 332.21875 265.007812 348.238281 265.007812 357.421875 C 265.007812 367.769531 270.410156 381.808594 290.660156 381.808594 C 295.429688 381.808594 298.488281 380.910156 302.269531 379.828125 L 302.808594 379.289062 L 303.167969 368.488281 Z M 336.382812 347.609375 L 338.902344 332.941406 L 338.363281 332.308594 C 337.734375 332.308594 337.101562 332.21875 336.472656 332.21875 C 332.78125 332.21875 328.644531 334.289062 325.761719 340.949219 L 326.03125 332.671875 L 325.3125 331.949219 C 318.652344 333.390625 316.941406 333.660156 310.371094 334.648438 L 309.832031 335.191406 C 310.371094 341.941406 310.644531 345.988281 310.644531 358.5 C 310.644531 365.878906 310.550781 373.261719 310.371094 380.730469 L 310.914062 381.269531 C 317.574219 381 319.011719 380.910156 326.210938 381 L 326.664062 380.371094 C 326.300781 373.078125 325.761719 362.910156 325.761719 356.699219 C 325.761719 352.648438 325.761719 346.710938 331.882812 346.710938 C 333.414062 346.710938 334.3125 347.25 335.574219 347.96875 Z M 384.082031 367.679688 C 380.664062 369.480469 376.613281 371.550781 370.042969 371.550781 C 364.644531 371.550781 360.953125 369.839844 358.792969 366.601562 C 357.441406 364.710938 357.171875 362.910156 356.8125 361.109375 L 385.882812 360.570312 L 386.421875 359.941406 C 386.332031 355.53125 386.242188 351.03125 384.984375 346.53125 C 381.832031 335.910156 374.902344 333.75 371.84375 333.03125 C 369.59375 332.398438 367.523438 332.21875 365.453125 332.21875 C 351.324219 332.21875 341.960938 341.488281 341.960938 357.058594 C 341.960938 361.289062 342.683594 365.699219 344.121094 368.851562 C 349.34375 381 361.582031 382.078125 368.0625 382.078125 C 375.53125 382.078125 378.773438 380.730469 383.542969 378.839844 L 384.082031 378.121094 L 384.710938 367.949219 L 384.082031 367.679688 M 356.8125 351.570312 C 357.082031 348.78125 357.710938 345 361.132812 342.839844 C 362.210938 342.121094 363.472656 341.851562 364.734375 341.851562 C 367.703125 341.851562 369.503906 343.378906 370.492188 345 C 371.753906 346.980469 371.84375 349.140625 371.84375 351.210938 Z M 434.75 354.179688 C 434.839844 346.078125 434.839844 342.570312 432.5 338.789062 C 430.699219 335.910156 427.101562 332.308594 415.582031 332.308594 C 407.839844 332.308594 403.070312 333.75 397.941406 335.28125 L 397.402344 336 L 396.949219 345.808594 L 397.671875 346.171875 C 400.820312 344.910156 406.671875 342.570312 412.699219 342.570312 C 416.03125 342.570312 417.378906 343.109375 418.550781 344.28125 C 419.449219 345.179688 419.722656 346.800781 419.722656 348.148438 C 408.921875 349.589844 403.878906 350.578125 398.480469 353.910156 C 393.441406 357.058594 391.730469 362.191406 391.730469 366.238281 C 391.730469 375.871094 398.660156 382.078125 407.480469 382.078125 C 414.230469 382.078125 418.101562 378.839844 419.992188 377.308594 L 419.992188 380.640625 L 420.53125 381.269531 C 427.011719 381 428.992188 380.910156 434.839844 381 L 435.289062 380.371094 C 434.660156 371.550781 434.660156 369.300781 434.660156 360.839844 L 434.75 354.179688 M 419.902344 368.488281 C 418.011719 369.570312 415.582031 370.828125 412.609375 370.828125 C 409.371094 370.828125 406.671875 369.121094 406.671875 365.339844 C 406.671875 359.398438 413.78125 358.410156 419.902344 357.601562 Z M 470.484375 370.648438 C 468.953125 371.101562 467.871094 371.460938 466.34375 371.460938 C 461.753906 371.460938 461.394531 368.578125 461.210938 367.230469 C 460.941406 364.890625 460.941406 359.941406 461.03125 356.339844 L 461.210938 343.648438 L 469.3125 344.011719 L 469.851562 343.46875 L 470.753906 333.839844 L 470.210938 333.300781 L 461.210938 333.300781 L 461.484375 318.179688 L 460.851562 317.640625 C 454.734375 319.441406 453.113281 319.890625 446.722656 321.511719 L 446.363281 322.140625 L 446.453125 333.390625 L 441.59375 333.210938 L 441.054688 333.660156 L 440.242188 343.289062 L 440.78125 343.828125 L 446.453125 343.648438 L 446.183594 357.960938 C 446.09375 360.210938 446.003906 362.460938 446.003906 364.800781 C 446.003906 373.078125 446.183594 381.988281 460.222656 381.988281 C 463.734375 381.988281 466.523438 381.449219 469.671875 380.910156 L 470.304688 380.28125 L 471.203125 371.011719 Z M 493.433594 380.371094 C 492.980469 373.441406 492.621094 368.128906 492.621094 355.710938 C 492.621094 348.058594 492.800781 340.320312 492.890625 332.671875 L 492.261719 331.949219 L 476.78125 334.648438 L 476.242188 335.191406 C 476.960938 342.03125 477.230469 345.179688 477.230469 357.960938 C 477.230469 367.769531 476.960938 373.261719 476.691406 380.640625 L 477.230469 381.269531 C 483.710938 381 485.511719 380.910156 492.800781 381 L 493.433594 380.371094 M 491.992188 323.308594 L 492.261719 311.070312 L 491.722656 310.53125 L 477.050781 312.328125 L 476.511719 312.960938 C 476.691406 316.199219 476.78125 318.089844 476.78125 320.25 C 476.78125 321.960938 476.78125 323.761719 476.691406 325.46875 L 477.320312 326.011719 C 483.441406 324.929688 485.152344 324.75 491.542969 323.941406 Z M 549.230469 357.058594 C 549.230469 353.550781 549.230469 338.96875 536.628906 334.019531 C 532.667969 332.488281 527.988281 332.308594 525.648438 332.308594 C 509.988281 332.308594 501.167969 340.679688 501.167969 357.238281 C 501.167969 363 502.070312 368.851562 505.398438 373.710938 C 507.738281 377.21875 512.148438 382.078125 525.019531 382.078125 C 544.097656 382.078125 549.230469 370.558594 549.230469 357.058594 M 533.660156 356.96875 C 533.660156 364.351562 532.667969 372.539062 525.199219 372.539062 C 522.859375 372.539062 521.238281 371.460938 520.160156 370.46875 C 518.628906 368.941406 516.917969 365.878906 516.917969 357.148438 C 516.917969 354.539062 516.917969 348.78125 518.71875 345.628906 C 520.070312 343.199219 522.410156 341.578125 525.289062 341.578125 C 527.808594 341.578125 529.878906 342.929688 531.050781 344.371094 C 533.210938 346.980469 533.660156 352.109375 533.660156 356.96875 Z M 601.882812 380.371094 C 601.433594 372.449219 601.433594 369.929688 601.253906 361.109375 L 601.253906 354.089844 C 601.164062 345.449219 601.074219 341.308594 598.824219 337.621094 C 596.03125 332.941406 590.902344 332.21875 587.664062 332.21875 C 582.171875 332.21875 577.402344 335.101562 573.261719 337.53125 L 573.441406 332.578125 L 572.542969 331.949219 C 565.613281 333.390625 564.082031 333.660156 557.332031 334.558594 L 556.792969 335.191406 C 557.511719 343.019531 558.054688 348.691406 558.054688 363.359375 C 558.054688 369.121094 557.960938 374.878906 557.871094 380.640625 L 558.414062 381.179688 C 564.894531 380.910156 566.242188 380.910156 573.441406 380.910156 L 573.984375 380.371094 C 573.441406 366.511719 573.351562 363 573.261719 346.890625 C 575.152344 345.628906 577.3125 344.101562 580.191406 344.101562 C 585.144531 344.101562 585.59375 349.410156 585.863281 352.648438 C 586.042969 355.621094 586.132812 367.949219 586.132812 371.371094 C 586.132812 374.429688 586.042969 377.578125 586.042969 380.640625 L 586.582031 381.179688 C 592.523438 381 594.054688 380.910156 601.253906 380.910156 Z M 674.78125 317.191406 C 666.140625 317.460938 664.339844 317.460938 654.710938 317.460938 L 654.078125 318 C 649.308594 333.300781 646.429688 342.390625 633.199219 380.371094 L 633.558594 381 L 647.597656 381 L 648.230469 380.460938 L 652.640625 364.078125 L 672.078125 364.078125 L 675.949219 380.730469 L 676.578125 381.269531 C 683.148438 381 684.949219 380.910156 692.238281 381 L 692.691406 380.28125 C 681.800781 341.761719 680.539062 337.53125 675.410156 317.730469 L 674.78125 317.191406 M 655.789062 353.191406 L 660.289062 337.980469 L 663.441406 327.449219 L 666.140625 339.148438 L 669.46875 353.191406 Z M 724.460938 347.609375 L 726.980469 332.941406 L 726.441406 332.308594 C 725.8125 332.308594 725.179688 332.21875 724.550781 332.21875 C 720.859375 332.21875 716.722656 334.289062 713.839844 340.949219 L 714.109375 332.671875 L 713.390625 331.949219 C 706.730469 333.390625 705.019531 333.660156 698.449219 334.648438 L 697.910156 335.191406 C 698.449219 341.941406 698.722656 345.988281 698.722656 358.5 C 698.722656 365.878906 698.628906 373.261719 698.449219 380.730469 L 698.992188 381.269531 C 705.652344 381 707.089844 380.910156 714.289062 381 L 714.742188 380.371094 C 714.378906 373.078125 713.839844 362.910156 713.839844 356.699219 C 713.839844 352.648438 713.839844 346.710938 719.960938 346.710938 C 721.492188 346.710938 722.390625 347.25 723.652344 347.96875 Z M 772.160156 367.679688 C 768.742188 369.480469 764.691406 371.550781 758.121094 371.550781 C 752.722656 371.550781 749.03125 369.839844 746.871094 366.601562 C 745.519531 364.710938 745.25 362.910156 744.890625 361.109375 L 773.960938 360.570312 L 774.5 359.941406 C 774.410156 355.53125 774.320312 351.03125 773.0625 346.53125 C 769.910156 335.910156 762.980469 333.75 759.921875 333.03125 C 757.671875 332.398438 755.601562 332.21875 753.53125 332.21875 C 739.402344 332.21875 730.039062 341.488281 730.039062 357.058594 C 730.039062 361.289062 730.761719 365.699219 732.199219 368.851562 C 737.421875 381 749.660156 382.078125 756.140625 382.078125 C 763.609375 382.078125 766.851562 380.730469 771.621094 378.839844 L 772.160156 378.121094 L 772.789062 367.949219 L 772.160156 367.679688 M 744.890625 351.570312 C 745.160156 348.78125 745.789062 345 749.210938 342.839844 C 750.289062 342.121094 751.550781 341.851562 752.8125 341.851562 C 755.78125 341.851562 757.582031 343.378906 758.570312 345 C 759.832031 346.980469 759.921875 349.140625 759.921875 351.210938 Z M 822.832031 354.179688 C 822.921875 346.078125 822.921875 342.570312 820.582031 338.789062 C 818.78125 335.910156 815.183594 332.308594 803.664062 332.308594 C 795.921875 332.308594 791.152344 333.75 786.023438 335.28125 L 785.484375 336 L 785.03125 345.808594 L 785.753906 346.171875 C 788.902344 344.910156 794.753906 342.570312 800.78125 342.570312 C 804.113281 342.570312 805.460938 343.109375 806.632812 344.28125 C 807.53125 345.179688 807.804688 346.800781 807.804688 348.148438 C 797.003906 349.589844 791.960938 350.578125 786.5625 353.910156 C 781.523438 357.058594 779.8125 362.191406 779.8125 366.238281 C 779.8125 375.871094 786.742188 382.078125 795.5625 382.078125 C 802.3125 382.078125 806.183594 378.839844 808.074219 377.308594 L 808.074219 380.640625 L 808.613281 381.269531 C 815.09375 381 817.074219 380.910156 822.921875 381 L 823.371094 380.371094 C 822.742188 371.550781 822.742188 369.300781 822.742188 360.839844 L 822.832031 354.179688 M 807.984375 368.488281 C 806.09375 369.570312 803.664062 370.828125 800.691406 370.828125 C 797.453125 370.828125 794.753906 369.121094 794.753906 365.339844 C 794.753906 359.398438 801.863281 358.410156 807.984375 357.601562 Z M 827.960938 381 "/>
</svg>
