<?xml version="1.0" encoding="UTF-8"?>
<svg xmlns="http://www.w3.org/2000/svg" xmlns:xlink="http://www.w3.org/1999/xlink" width="975" height="1300" viewBox="0 0 975 1300">
<path fill-rule="nonzero" fill="rgb(98.823529%, 78.823529%, 9.019608%)" fill-opacity="1" d="M 50 50 L 925 50 L 925 410 L 50 410 Z M 50 50 "/>
<path fill-rule="nonzero" fill="rgb(34.901961%, 14.901961%, 14.901961%)" fill-opacity="1" d="M 337.773438 77.191406 C 330.574219 77.460938 329.40625 77.460938 321.84375 77.460938 L 321.394531 78 C 322.023438 88.171875 322.023438 90.78125 322.113281 101.398438 C 318.15625 101.488281 314.195312 101.578125 310.144531 101.578125 C 306.996094 101.578125 303.753906 101.488281 300.605469 101.488281 L 300.785156 77.730469 L 300.335938 77.191406 C 293.40625 77.460938 292.054688 77.460938 284.226562 77.460938 L 283.683594 78 C 284.136719 87.269531 284.675781 98.339844 284.675781 120.660156 C 284.675781 128.761719 284.496094 133.171875 284.316406 140.730469 L 284.765625 141.269531 C 291.335938 141 292.953125 140.910156 300.875 141 L 301.324219 140.460938 C 300.785156 129.300781 300.695312 126.058594 300.605469 113.011719 C 304.566406 112.828125 307.894531 112.738281 311.40625 112.738281 C 315.003906 112.738281 318.605469 112.828125 322.203125 112.921875 C 322.386719 125.070312 322.386719 128.039062 321.933594 140.730469 L 322.386719 141.269531 C 329.136719 141 330.933594 140.910156 338.585938 141 L 339.035156 140.460938 C 338.316406 125.339844 338.042969 110.308594 338.042969 95.191406 C 338.042969 88.890625 338.136719 84.660156 338.226562 77.730469 Z M 392.675781 92.851562 L 378.003906 93.570312 L 377.375 94.109375 C 378.003906 104.28125 378.003906 118.679688 378.003906 120.121094 C 378.003906 122.730469 378.003906 124.171875 377.914062 127.769531 C 375.484375 129.390625 373.59375 130.738281 371.164062 130.738281 C 364.683594 130.738281 364.683594 123.898438 364.683594 118.589844 C 364.683594 116.339844 364.683594 114 364.773438 111.75 L 364.953125 93.570312 L 364.324219 92.851562 L 349.472656 93.570312 L 348.84375 94.109375 C 349.382812 101.671875 349.472656 104.191406 349.472656 113.28125 L 349.472656 119.578125 C 349.382812 129.390625 349.835938 133.53125 353.074219 137.308594 C 356.042969 140.640625 360.363281 142.078125 364.863281 142.078125 C 371.253906 142.078125 374.945312 139.199219 378.183594 136.679688 L 378.09375 140.730469 L 378.722656 141.269531 C 385.292969 141 387.273438 141 393.125 141 L 393.664062 140.460938 C 393.214844 134.070312 393.035156 130.648438 393.035156 118.949219 C 393.035156 110.488281 393.125 102.03125 393.304688 93.570312 Z M 474.125 140.371094 C 473.671875 132 473.582031 129.660156 473.582031 119.488281 L 473.582031 112.738281 C 473.671875 106.710938 473.761719 101.128906 471.152344 97.351562 C 467.644531 92.21875 461.433594 92.21875 459.992188 92.21875 C 452.613281 92.21875 447.664062 95.550781 444.0625 98.070312 C 442.804688 96 440.554688 92.21875 433.355469 92.21875 C 427.414062 92.21875 423.542969 94.921875 419.402344 97.800781 L 419.402344 92.761719 L 418.59375 91.949219 C 411.574219 93.300781 409.59375 93.660156 403.292969 94.558594 L 402.753906 95.191406 C 403.472656 102.390625 404.011719 107.339844 404.011719 125.160156 C 404.011719 130.289062 403.921875 135.511719 403.921875 140.640625 L 404.375 141.179688 C 410.132812 141 412.113281 140.910156 419.582031 140.910156 L 420.125 140.371094 C 419.492188 126.511719 419.402344 122.371094 419.3125 106.710938 C 421.203125 105.359375 423.273438 104.191406 425.523438 104.191406 C 431.105469 104.191406 431.285156 110.578125 431.285156 118.320312 C 431.285156 131.371094 431.195312 133.351562 431.011719 140.640625 L 431.554688 141.269531 C 438.394531 140.910156 440.285156 140.910156 446.492188 140.910156 L 447.035156 140.371094 C 446.492188 131.820312 446.402344 129.300781 446.3125 118.410156 L 446.3125 115.078125 L 446.222656 105.988281 C 447.753906 105 449.734375 103.738281 452.433594 103.738281 C 457.5625 103.738281 458.375 108.601562 458.375 116.339844 C 458.375 118.050781 458.285156 119.761719 458.285156 121.46875 C 458.195312 124.53125 458.105469 137.941406 458.011719 140.640625 L 458.554688 141.179688 C 465.304688 140.910156 467.285156 140.910156 473.582031 140.910156 Z M 490.953125 141.179688 L 492.753906 141.179688 C 507.152344 141.179688 516.425781 140.460938 523.265625 133.171875 C 529.652344 126.328125 530.285156 118.230469 530.285156 114.449219 C 530.285156 101.941406 523.085938 92.21875 510.84375 92.21875 C 504.902344 92.21875 501.753906 94.199219 499.234375 95.820312 L 499.773438 69.71875 L 499.054688 69.179688 L 484.113281 71.519531 L 483.574219 72.148438 C 484.292969 79.710938 484.5625 82.769531 484.5625 100.859375 C 484.5625 108.601562 484.472656 123.898438 484.382812 140.640625 L 485.015625 141.269531 L 490.953125 141.179688 M 499.59375 104.730469 C 501.394531 103.828125 503.105469 102.929688 505.445312 102.929688 C 511.382812 102.929688 514.804688 108.238281 514.804688 116.519531 C 514.804688 123 511.925781 127.230469 509.496094 128.941406 C 506.523438 131.011719 502.652344 131.101562 499.59375 131.191406 Z M 584.644531 117.058594 C 584.644531 113.550781 584.644531 98.96875 572.042969 94.019531 C 568.082031 92.488281 563.402344 92.308594 561.0625 92.308594 C 545.402344 92.308594 536.582031 100.679688 536.582031 117.238281 C 536.582031 123 537.484375 128.851562 540.8125 133.710938 C 543.152344 137.21875 547.5625 142.078125 560.433594 142.078125 C 579.511719 142.078125 584.644531 130.558594 584.644531 117.058594 M 569.074219 116.96875 C 569.074219 124.351562 568.082031 132.539062 560.613281 132.539062 C 558.273438 132.539062 556.652344 131.460938 555.574219 130.46875 C 554.042969 128.941406 552.332031 125.878906 552.332031 117.148438 C 552.332031 114.539062 552.332031 108.78125 554.132812 105.628906 C 555.484375 103.199219 557.824219 101.578125 560.703125 101.578125 C 563.222656 101.578125 565.292969 102.929688 566.464844 104.371094 C 568.625 106.980469 569.074219 112.109375 569.074219 116.96875 Z M 609.03125 140.371094 C 608.582031 130.019531 608.132812 120.570312 608.132812 92.128906 C 608.132812 83.578125 608.222656 79.53125 608.582031 69.808594 L 607.953125 69.179688 L 592.5625 71.609375 L 592.203125 72.148438 C 593.101562 83.128906 593.191406 86.101562 593.371094 100.679688 C 593.464844 105.988281 593.464844 111.300781 593.464844 116.609375 C 593.464844 126.328125 593.28125 131.730469 592.921875 140.640625 L 593.464844 141.269531 C 599.492188 141 601.921875 140.910156 608.492188 141 Z M 663.574219 140.460938 C 663.214844 132.359375 662.945312 126.960938 662.945312 115.171875 C 662.945312 91.410156 663.304688 81.601562 663.664062 69.71875 L 663.035156 69.179688 L 648.183594 71.519531 L 647.734375 72.058594 C 648.273438 80.519531 648.363281 82.769531 648.273438 93.03125 C 641.523438 92.851562 633.0625 92.671875 626.222656 98.070312 C 619.925781 102.929688 617.3125 110.398438 617.3125 119.671875 C 617.3125 126.691406 619.203125 133.710938 624.515625 138.121094 C 628.472656 141.359375 633.335938 142.078125 636.304688 142.078125 C 642.695312 142.078125 646.023438 139.109375 648.183594 137.21875 L 648.003906 140.730469 L 648.453125 141.269531 C 654.664062 141 656.375 141 663.125 141 L 663.574219 140.460938 M 648.273438 103.828125 C 648.363281 115.800781 648.273438 118.140625 648.003906 129.03125 C 646.203125 130.109375 644.402344 131.191406 641.882812 131.191406 C 633.152344 131.191406 633.152344 120.03125 633.152344 118.230469 C 633.152344 111.300781 635.132812 103.558594 645.214844 103.558594 C 646.203125 103.558594 647.015625 103.648438 648.273438 103.828125 Z M 699.035156 130.648438 C 697.503906 131.101562 696.421875 131.460938 694.894531 131.460938 C 690.304688 131.460938 689.945312 128.578125 689.761719 127.230469 C 689.492188 124.890625 689.492188 119.941406 689.582031 116.339844 L 689.761719 103.648438 L 697.863281 104.011719 L 698.402344 103.46875 L 699.304688 93.839844 L 698.761719 93.300781 L 689.761719 93.300781 L 690.035156 78.179688 L 689.402344 77.640625 C 683.285156 79.441406 681.664062 79.890625 675.273438 81.511719 L 674.914062 82.140625 L 675.003906 93.390625 L 670.144531 93.210938 L 669.605469 93.660156 L 668.792969 103.289062 L 669.332031 103.828125 L 675.003906 103.648438 L 674.734375 117.960938 C 674.644531 120.210938 674.554688 122.460938 674.554688 124.800781 C 674.554688 133.078125 674.734375 141.988281 688.773438 141.988281 C 692.285156 141.988281 695.074219 141.449219 698.222656 140.910156 L 698.855469 140.28125 L 699.753906 131.011719 Z M 700.292969 141 "/>
<path fill-rule="nonzero" fill="rgb(34.901961%, 14.901961%, 14.901961%)" fill-opacity="1" d="M 175.277344 236.25 C 181.308594 246.511719 182.660156 249.210938 188.417969 261 L 189.140625 261.449219 C 191.929688 261.269531 194.628906 261.089844 197.417969 261 C 200.210938 260.910156 203.089844 260.820312 205.878906 260.820312 L 206.417969 259.738281 C 203 255.328125 202.007812 253.980469 195.527344 243.628906 C 192.648438 239.039062 191.210938 236.609375 188.960938 232.648438 C 193.007812 230.851562 201.199219 227.070312 201.199219 215.640625 C 201.199219 211.679688 200.117188 203.488281 192.738281 199.621094 C 188.058594 197.191406 183.199219 197.101562 172.667969 197.28125 L 166.367188 197.371094 L 155.390625 197.371094 L 154.9375 197.910156 C 155.300781 207 155.660156 216.359375 155.660156 240.839844 C 155.660156 249.210938 155.570312 253.261719 155.300781 260.730469 L 155.839844 261.269531 C 162.410156 261 163.847656 260.910156 171.230469 261 L 171.769531 260.460938 C 171.050781 250.019531 170.960938 247.140625 170.867188 236.429688 L 175.277344 236.25 M 171.050781 208.261719 C 172.308594 208.171875 173.570312 208.171875 174.828125 208.171875 C 178.339844 208.171875 185.269531 208.171875 185.269531 216.089844 C 185.269531 218.609375 184.640625 221.941406 181.308594 224.011719 C 178.789062 225.539062 175.550781 225.71875 171.050781 225.808594 Z M 251.148438 247.679688 C 247.730469 249.480469 243.679688 251.550781 237.109375 251.550781 C 231.710938 251.550781 228.019531 249.839844 225.859375 246.601562 C 224.507812 244.710938 224.238281 242.910156 223.878906 241.109375 L 252.949219 240.570312 L 253.488281 239.941406 C 253.398438 235.53125 253.308594 231.03125 252.050781 226.53125 C 248.898438 215.910156 241.96875 213.75 238.910156 213.03125 C 236.660156 212.398438 234.589844 212.21875 232.519531 212.21875 C 218.390625 212.21875 209.027344 221.488281 209.027344 237.058594 C 209.027344 241.289062 209.75 245.699219 211.1875 248.851562 C 216.410156 261 228.648438 262.078125 235.128906 262.078125 C 242.597656 262.078125 245.839844 260.730469 250.609375 258.839844 L 251.148438 258.121094 L 251.777344 247.949219 L 251.148438 247.679688 M 223.878906 231.570312 C 224.148438 228.78125 224.777344 225 228.199219 222.839844 C 229.277344 222.121094 230.539062 221.851562 231.800781 221.851562 C 234.769531 221.851562 236.570312 223.378906 237.558594 225 C 238.820312 226.980469 238.910156 229.140625 238.910156 231.210938 Z M 305.867188 260.460938 C 305.507812 252.359375 305.238281 246.960938 305.238281 235.171875 C 305.238281 211.410156 305.597656 201.601562 305.957031 189.71875 L 305.328125 189.179688 L 290.476562 191.519531 L 290.027344 192.058594 C 290.566406 200.519531 290.65625 202.769531 290.566406 213.03125 C 283.816406 212.851562 275.355469 212.671875 268.515625 218.070312 C 262.21875 222.929688 259.605469 230.398438 259.605469 239.671875 C 259.605469 246.691406 261.496094 253.710938 266.808594 258.121094 C 270.765625 261.359375 275.628906 262.078125 278.597656 262.078125 C 284.988281 262.078125 288.316406 259.109375 290.476562 257.21875 L 290.296875 260.730469 L 290.746094 261.269531 C 296.957031 261 298.667969 261 305.417969 261 L 305.867188 260.460938 M 290.566406 223.828125 C 290.65625 235.800781 290.566406 238.140625 290.296875 249.03125 C 288.496094 250.109375 286.695312 251.191406 284.175781 251.191406 C 275.445312 251.191406 275.445312 240.03125 275.445312 238.230469 C 275.445312 231.300781 277.425781 223.558594 287.507812 223.558594 C 288.496094 223.558594 289.308594 223.648438 290.566406 223.828125 Z M 371.75 260.371094 C 375.351562 246.421875 375.980469 244.261719 381.378906 224.910156 C 382.460938 221.21875 383.449219 217.441406 384.441406 213.75 L 383.902344 213.03125 L 372.199219 213.300781 L 371.570312 213.929688 L 368.960938 227.429688 L 366.441406 238.320312 L 364.730469 246.601562 L 363.199219 238.589844 L 361.21875 229.230469 L 358.070312 213.660156 L 357.53125 213.03125 L 340.25 213.300781 L 339.621094 213.929688 L 336.652344 228.691406 L 334.492188 238.589844 L 332.78125 246.871094 L 331.070312 237.960938 L 328.910156 228.238281 L 325.851562 213.300781 L 325.308594 212.851562 L 310.730469 213.929688 L 310.191406 214.648438 C 318.652344 244.351562 320 249.660156 322.519531 260.730469 L 323.152344 261.269531 C 329.359375 261 331.609375 260.910156 339.890625 261 L 340.429688 260.371094 L 342.769531 249.390625 L 345.289062 238.5 L 347.539062 227.609375 L 348.890625 234.449219 L 350.242188 241.109375 L 354.019531 260.640625 L 354.652344 261.269531 C 361.308594 261 364.011719 260.910156 371.210938 261 Z M 435.019531 237.058594 C 435.019531 233.550781 435.019531 218.96875 422.417969 214.019531 C 418.457031 212.488281 413.777344 212.308594 411.4375 212.308594 C 395.777344 212.308594 386.957031 220.679688 386.957031 237.238281 C 386.957031 243 387.859375 248.851562 391.1875 253.710938 C 393.527344 257.21875 397.9375 262.078125 410.808594 262.078125 C 429.886719 262.078125 435.019531 250.558594 435.019531 237.058594 M 419.449219 236.96875 C 419.449219 244.351562 418.457031 252.539062 410.988281 252.539062 C 408.648438 252.539062 407.027344 251.460938 405.949219 250.46875 C 404.417969 248.941406 402.707031 245.878906 402.707031 237.148438 C 402.707031 234.539062 402.707031 228.78125 404.507812 225.628906 C 405.859375 223.199219 408.199219 221.578125 411.078125 221.578125 C 413.597656 221.578125 415.667969 222.929688 416.839844 224.371094 C 419 226.980469 419.449219 232.109375 419.449219 236.96875 Z M 489.378906 237.058594 C 489.378906 233.550781 489.378906 218.96875 476.777344 214.019531 C 472.816406 212.488281 468.136719 212.308594 465.796875 212.308594 C 450.136719 212.308594 441.316406 220.679688 441.316406 237.238281 C 441.316406 243 442.21875 248.851562 445.546875 253.710938 C 447.886719 257.21875 452.296875 262.078125 465.167969 262.078125 C 484.246094 262.078125 489.378906 250.558594 489.378906 237.058594 M 473.808594 236.96875 C 473.808594 244.351562 472.816406 252.539062 465.347656 252.539062 C 463.007812 252.539062 461.386719 251.460938 460.308594 250.46875 C 458.777344 248.941406 457.066406 245.878906 457.066406 237.148438 C 457.066406 234.539062 457.066406 228.78125 458.867188 225.628906 C 460.21875 223.199219 462.558594 221.578125 465.4375 221.578125 C 467.957031 221.578125 470.027344 222.929688 471.199219 224.371094 C 473.359375 226.980469 473.808594 232.109375 473.808594 236.96875 Z M 542.027344 260.460938 C 541.667969 252.359375 541.398438 246.960938 541.398438 235.171875 C 541.398438 211.410156 541.757812 201.601562 542.117188 189.71875 L 541.488281 189.179688 L 526.636719 191.519531 L 526.1875 192.058594 C 526.726562 200.519531 526.816406 202.769531 526.726562 213.03125 C 519.976562 212.851562 511.515625 212.671875 504.675781 218.070312 C 498.378906 222.929688 495.765625 230.398438 495.765625 239.671875 C 495.765625 246.691406 497.65625 253.710938 502.96875 258.121094 C 506.925781 261.359375 511.789062 262.078125 514.757812 262.078125 C 521.148438 262.078125 524.476562 259.109375 526.636719 257.21875 L 526.457031 260.730469 L 526.90625 261.269531 C 533.117188 261 534.828125 261 541.578125 261 L 542.027344 260.460938 M 526.726562 223.828125 C 526.816406 235.800781 526.726562 238.140625 526.457031 249.03125 C 524.65625 250.109375 522.855469 251.191406 520.335938 251.191406 C 511.605469 251.191406 511.605469 240.03125 511.605469 238.230469 C 511.605469 231.300781 513.585938 223.558594 523.667969 223.558594 C 524.65625 223.558594 525.46875 223.648438 526.726562 223.828125 Z M 571.191406 229.949219 C 568.128906 228.871094 565.699219 227.878906 565.699219 225.359375 C 565.699219 224.28125 566.421875 221.308594 572 221.308594 C 577.492188 221.308594 581 223.648438 583.25 225.089844 L 584.0625 224.820312 L 584.960938 215.011719 L 584.511719 214.46875 C 580.28125 213.300781 576.589844 212.21875 570.742188 212.21875 C 566.332031 212.21875 557.511719 212.578125 552.832031 219.328125 C 551.660156 220.949219 550.402344 223.648438 550.402344 227.25 C 550.402344 236.878906 557.871094 239.761719 562.101562 241.378906 L 565.519531 242.640625 C 567.949219 243.449219 571.910156 244.800781 571.910156 248.039062 C 571.910156 250.289062 569.839844 252.71875 564.800781 252.71875 C 562.28125 252.71875 558.589844 251.910156 555.261719 250.199219 C 553.730469 249.390625 553.011719 248.761719 551.660156 247.679688 L 550.851562 248.039062 C 550.671875 252.71875 550.582031 253.710938 550.21875 258.210938 L 550.671875 259.019531 C 555.082031 260.640625 558.859375 262.078125 565.429688 262.078125 C 572.269531 262.078125 585.769531 260.820312 587.390625 247.949219 C 587.480469 247.230469 587.480469 246.601562 587.480469 245.96875 C 587.480469 236.070312 580.550781 233.460938 575.601562 231.570312 Z M 647.6875 222.300781 C 640.128906 219.148438 636.167969 217.53125 636.167969 213.480469 C 636.167969 210.691406 638.777344 207.179688 644.71875 207.179688 C 651.558594 207.179688 655.605469 209.96875 658.9375 212.21875 L 659.746094 211.859375 L 660.46875 200.070312 L 660.015625 199.441406 C 656.148438 197.820312 652.097656 196.109375 643.367188 196.109375 C 626.449219 196.109375 620.597656 205.648438 620.597656 215.28125 C 620.597656 226.171875 629.058594 230.128906 634.097656 232.558594 L 637.066406 233.910156 C 643.277344 236.519531 648.046875 238.769531 648.046875 243.539062 C 648.046875 246.960938 645.078125 251.011719 637.246094 251.011719 C 629.058594 251.011719 624.46875 247.410156 621.855469 245.339844 L 620.957031 245.609375 L 620.328125 258.300781 L 620.867188 259.019531 C 621.855469 259.378906 622.847656 259.828125 623.835938 260.101562 C 625.90625 260.820312 631.21875 262.351562 637.96875 262.351562 C 640.667969 262.351562 647.507812 262.078125 652.90625 259.558594 C 660.46875 255.871094 663.707031 249.03125 663.707031 241.378906 C 663.707031 236.25 661.726562 230.761719 656.957031 227.070312 C 654.527344 225.269531 652.1875 224.191406 650.027344 223.199219 Z M 697.460938 250.648438 C 695.929688 251.101562 694.847656 251.460938 693.320312 251.460938 C 688.730469 251.460938 688.371094 248.578125 688.1875 247.230469 C 687.917969 244.890625 687.917969 239.941406 688.007812 236.339844 L 688.1875 223.648438 L 696.289062 224.011719 L 696.828125 223.46875 L 697.730469 213.839844 L 697.1875 213.300781 L 688.1875 213.300781 L 688.460938 198.179688 L 687.828125 197.640625 C 681.710938 199.441406 680.089844 199.890625 673.699219 201.511719 L 673.339844 202.140625 L 673.429688 213.390625 L 668.570312 213.210938 L 668.03125 213.660156 L 667.21875 223.289062 L 667.757812 223.828125 L 673.429688 223.648438 L 673.160156 237.960938 C 673.070312 240.210938 672.980469 242.460938 672.980469 244.800781 C 672.980469 253.078125 673.160156 261.988281 687.199219 261.988281 C 690.710938 261.988281 693.5 261.449219 696.648438 260.910156 L 697.28125 260.28125 L 698.179688 251.011719 Z M 744.167969 234.179688 C 744.257812 226.078125 744.257812 222.570312 741.917969 218.789062 C 740.117188 215.910156 736.519531 212.308594 725 212.308594 C 717.257812 212.308594 712.488281 213.75 707.359375 215.28125 L 706.820312 216 L 706.367188 225.808594 L 707.089844 226.171875 C 710.238281 224.910156 716.089844 222.570312 722.117188 222.570312 C 725.449219 222.570312 726.796875 223.109375 727.96875 224.28125 C 728.867188 225.179688 729.140625 226.800781 729.140625 228.148438 C 718.339844 229.589844 713.296875 230.578125 707.898438 233.910156 C 702.859375 237.058594 701.148438 242.191406 701.148438 246.238281 C 701.148438 255.871094 708.078125 262.078125 716.898438 262.078125 C 723.648438 262.078125 727.519531 258.839844 729.410156 257.308594 L 729.410156 260.640625 L 729.949219 261.269531 C 736.429688 261 738.410156 260.910156 744.257812 261 L 744.707031 260.371094 C 744.078125 251.550781 744.078125 249.300781 744.078125 240.839844 L 744.167969 234.179688 M 729.320312 248.488281 C 727.429688 249.570312 725 250.828125 722.027344 250.828125 C 718.789062 250.828125 716.089844 249.121094 716.089844 245.339844 C 716.089844 239.398438 723.199219 238.410156 729.320312 237.601562 Z M 779.902344 250.648438 C 778.371094 251.101562 777.289062 251.460938 775.761719 251.460938 C 771.171875 251.460938 770.8125 248.578125 770.628906 247.230469 C 770.359375 244.890625 770.359375 239.941406 770.449219 236.339844 L 770.628906 223.648438 L 778.730469 224.011719 L 779.269531 223.46875 L 780.171875 213.839844 L 779.628906 213.300781 L 770.628906 213.300781 L 770.902344 198.179688 L 770.269531 197.640625 C 764.152344 199.441406 762.53125 199.890625 756.140625 201.511719 L 755.78125 202.140625 L 755.871094 213.390625 L 751.011719 213.210938 L 750.472656 213.660156 L 749.660156 223.289062 L 750.199219 223.828125 L 755.871094 223.648438 L 755.601562 237.960938 C 755.511719 240.210938 755.421875 242.460938 755.421875 244.800781 C 755.421875 253.078125 755.601562 261.988281 769.640625 261.988281 C 773.152344 261.988281 775.941406 261.449219 779.089844 260.910156 L 779.722656 260.28125 L 780.621094 251.011719 Z M 826.519531 247.679688 C 823.101562 249.480469 819.050781 251.550781 812.480469 251.550781 C 807.082031 251.550781 803.390625 249.839844 801.230469 246.601562 C 799.878906 244.710938 799.609375 242.910156 799.25 241.109375 L 828.320312 240.570312 L 828.859375 239.941406 C 828.769531 235.53125 828.679688 231.03125 827.421875 226.53125 C 824.269531 215.910156 817.339844 213.75 814.28125 213.03125 C 812.03125 212.398438 809.960938 212.21875 807.890625 212.21875 C 793.761719 212.21875 784.398438 221.488281 784.398438 237.058594 C 784.398438 241.289062 785.121094 245.699219 786.558594 248.851562 C 791.78125 261 804.019531 262.078125 810.5 262.078125 C 817.96875 262.078125 821.210938 260.730469 825.980469 258.839844 L 826.519531 258.121094 L 827.148438 247.949219 L 826.519531 247.679688 M 799.25 231.570312 C 799.519531 228.78125 800.148438 225 803.570312 222.839844 C 804.648438 222.121094 805.910156 221.851562 807.171875 221.851562 C 810.140625 221.851562 811.941406 223.378906 812.929688 225 C 814.191406 226.980469 814.28125 229.140625 814.28125 231.210938 Z M 831.738281 261 "/>
<path fill-rule="nonzero" fill="rgb(34.901961%, 14.901961%, 14.901961%)" fill-opacity="1" d="M 411.53125 317.28125 L 400.101562 317.460938 L 399.558594 318 C 399.921875 329.699219 400.191406 337.53125 400.191406 347.878906 C 400.191406 358.859375 399.921875 369.75 399.648438 380.730469 L 400.191406 381.269531 C 406.851562 381 408.289062 380.910156 415.492188 381 L 415.941406 380.460938 C 415.582031 370.648438 415.582031 368.398438 415.582031 359.21875 C 425.660156 359.308594 436.460938 359.308594 442.941406 351.390625 C 445.460938 348.328125 447.621094 343.199219 447.621094 336.898438 C 447.621094 333.03125 446.71875 324.480469 439.25 320.25 C 433.851562 317.101562 426.199219 317.101562 419.449219 317.101562 L 411.53125 317.28125 M 415.582031 328.171875 C 417.558594 328.078125 419.449219 328.078125 421.429688 328.078125 C 429.351562 328.261719 431.511719 332.308594 431.511719 337.53125 C 431.511719 338.789062 431.511719 344.011719 426.742188 346.621094 C 424.308594 347.96875 420.980469 348.148438 415.582031 348.148438 Z M 493.878906 354.179688 C 493.96875 346.078125 493.96875 342.570312 491.628906 338.789062 C 489.828125 335.910156 486.230469 332.308594 474.710938 332.308594 C 466.96875 332.308594 462.199219 333.75 457.070312 335.28125 L 456.53125 336 L 456.078125 345.808594 L 456.800781 346.171875 C 459.949219 344.910156 465.800781 342.570312 471.828125 342.570312 C 475.160156 342.570312 476.507812 343.109375 477.679688 344.28125 C 478.578125 345.179688 478.851562 346.800781 478.851562 348.148438 C 468.050781 349.589844 463.007812 350.578125 457.609375 353.910156 C 452.570312 357.058594 450.859375 362.191406 450.859375 366.238281 C 450.859375 375.871094 457.789062 382.078125 466.609375 382.078125 C 473.359375 382.078125 477.230469 378.839844 479.121094 377.308594 L 479.121094 380.640625 L 479.660156 381.269531 C 486.140625 381 488.121094 380.910156 493.96875 381 L 494.417969 380.371094 C 493.789062 371.550781 493.789062 369.300781 493.789062 360.839844 L 493.878906 354.179688 M 479.03125 368.488281 C 477.140625 369.570312 474.710938 370.828125 471.738281 370.828125 C 468.5 370.828125 465.800781 369.121094 465.800781 365.339844 C 465.800781 359.398438 472.910156 358.410156 479.03125 357.601562 Z M 530.421875 347.609375 L 532.941406 332.941406 L 532.402344 332.308594 C 531.773438 332.308594 531.140625 332.21875 530.511719 332.21875 C 526.820312 332.21875 522.683594 334.289062 519.800781 340.949219 L 520.070312 332.671875 L 519.351562 331.949219 C 512.691406 333.390625 510.980469 333.660156 504.410156 334.648438 L 503.871094 335.191406 C 504.410156 341.941406 504.683594 345.988281 504.683594 358.5 C 504.683594 365.878906 504.589844 373.261719 504.410156 380.730469 L 504.953125 381.269531 C 511.613281 381 513.050781 380.910156 520.25 381 L 520.703125 380.371094 C 520.339844 373.078125 519.800781 362.910156 519.800781 356.699219 C 519.800781 352.648438 519.800781 346.710938 525.921875 346.710938 C 527.453125 346.710938 528.351562 347.25 529.613281 347.96875 Z M 584.421875 379.828125 C 575.960938 365.519531 575.0625 363.898438 568.222656 351.570312 C 574.433594 343.109375 575.0625 342.210938 581.453125 334.019531 L 581 333.121094 L 566.332031 333.300781 L 565.433594 333.929688 C 558.410156 346.078125 557.511719 347.519531 553.371094 353.730469 L 553.371094 343.738281 C 553.460938 326.910156 553.550781 323.308594 554 309.71875 L 553.28125 309.179688 L 537.621094 311.519531 L 537.082031 312.148438 C 537.710938 320.878906 537.980469 325.109375 538.160156 336.898438 C 538.339844 351.480469 538.339844 366.058594 538.25 380.640625 L 538.882812 381.269531 C 544.910156 381 546.621094 381 553.460938 381 L 554 380.371094 L 553.460938 365.160156 L 553.371094 354.808594 C 561.203125 369.210938 562.191406 371.191406 566.78125 380.730469 L 567.589844 381.269531 L 583.792969 380.640625 Z M 583.339844 381 "/>
</svg>
