<?xml version="1.0" encoding="UTF-8"?>
<svg xmlns="http://www.w3.org/2000/svg" xmlns:xlink="http://www.w3.org/1999/xlink" width="975" height="1300" viewBox="0 0 975 1300">
<path fill-rule="nonzero" fill="rgb(98.823529%, 78.823529%, 9.019608%)" fill-opacity="1" d="M 50 50 L 925 50 L 925 410 L 50 410 Z M 50 50 "/>
<path fill-rule="nonzero" fill="rgb(34.901961%, 14.901961%, 14.901961%)" fill-opacity="1" d="M 140.675781 102.300781 C 133.117188 99.148438 129.15625 97.53125 129.15625 93.480469 C 129.15625 90.691406 131.765625 87.179688 137.707031 87.179688 C 144.546875 87.179688 148.59375 89.96875 151.925781 92.21875 L 152.734375 91.859375 L 153.457031 80.070312 L 153.003906 79.441406 C 149.136719 77.820312 145.085938 76.109375 136.355469 76.109375 C 119.4375 76.109375 113.585938 85.648438 113.585938 95.28125 C 113.585938 106.171875 122.046875 110.128906 127.085938 112.558594 L 130.054688 113.910156 C 136.265625 116.519531 141.035156 118.769531 141.035156 123.539062 C 141.035156 126.960938 138.066406 131.011719 130.234375 131.011719 C 122.046875 131.011719 117.457031 127.410156 114.84375 125.339844 L 113.945312 125.609375 L 113.316406 138.300781 L 113.855469 139.019531 C 114.84375 139.378906 115.835938 139.828125 116.824219 140.101562 C 118.894531 140.820312 124.207031 142.351562 130.957031 142.351562 C 133.65625 142.351562 140.496094 142.078125 145.894531 139.558594 C 153.457031 135.871094 156.695312 129.03125 156.695312 121.378906 C 156.695312 116.25 154.714844 110.761719 149.945312 107.070312 C 147.515625 105.269531 145.175781 104.191406 143.015625 103.199219 Z M 235.535156 140.371094 C 235.082031 132 234.992188 129.660156 234.992188 119.488281 L 234.992188 112.738281 C 235.082031 106.710938 235.171875 101.128906 232.5625 97.351562 C 229.054688 92.21875 222.84375 92.21875 221.402344 92.21875 C 214.023438 92.21875 209.074219 95.550781 205.472656 98.070312 C 204.214844 96 201.964844 92.21875 194.765625 92.21875 C 188.824219 92.21875 184.953125 94.921875 180.8125 97.800781 L 180.8125 92.761719 L 180.003906 91.949219 C 172.984375 93.300781 171.003906 93.660156 164.703125 94.558594 L 164.164062 95.191406 C 164.882812 102.390625 165.421875 107.339844 165.421875 125.160156 C 165.421875 130.289062 165.332031 135.511719 165.332031 140.640625 L 165.785156 141.179688 C 171.542969 141 173.523438 140.910156 180.992188 140.910156 L 181.535156 140.371094 C 180.902344 126.511719 180.8125 122.371094 180.722656 106.710938 C 182.613281 105.359375 184.683594 104.191406 186.933594 104.191406 C 192.515625 104.191406 192.695312 110.578125 192.695312 118.320312 C 192.695312 131.371094 192.605469 133.351562 192.421875 140.640625 L 192.964844 141.269531 C 199.804688 140.910156 201.695312 140.910156 207.902344 140.910156 L 208.445312 140.371094 C 207.902344 131.820312 207.8125 129.300781 207.722656 118.410156 L 207.722656 115.078125 L 207.632812 105.988281 C 209.164062 105 211.144531 103.738281 213.84375 103.738281 C 218.972656 103.738281 219.785156 108.601562 219.785156 116.339844 C 219.785156 118.050781 219.695312 119.761719 219.695312 121.46875 C 219.605469 124.53125 219.515625 137.941406 219.421875 140.640625 L 219.964844 141.179688 C 226.714844 140.910156 228.695312 140.910156 234.992188 140.910156 Z M 262.175781 140.371094 C 261.722656 133.441406 261.363281 128.128906 261.363281 115.710938 C 261.363281 108.058594 261.542969 100.320312 261.632812 92.671875 L 261.003906 91.949219 L 245.523438 94.648438 L 244.984375 95.191406 C 245.703125 102.03125 245.972656 105.179688 245.972656 117.960938 C 245.972656 127.769531 245.703125 133.261719 245.433594 140.640625 L 245.972656 141.269531 C 252.453125 141 254.253906 140.910156 261.542969 141 L 262.175781 140.371094 M 260.734375 83.308594 L 261.003906 71.070312 L 260.464844 70.53125 L 245.792969 72.328125 L 245.253906 72.960938 C 245.433594 76.199219 245.523438 78.089844 245.523438 80.25 C 245.523438 81.960938 245.523438 83.761719 245.433594 85.46875 L 246.0625 86.011719 C 252.183594 84.929688 253.894531 84.75 260.285156 83.941406 Z M 297.367188 130.648438 C 295.835938 131.101562 294.753906 131.460938 293.226562 131.460938 C 288.636719 131.460938 288.277344 128.578125 288.09375 127.230469 C 287.824219 124.890625 287.824219 119.941406 287.914062 116.339844 L 288.09375 103.648438 L 296.195312 104.011719 L 296.734375 103.46875 L 297.636719 93.839844 L 297.09375 93.300781 L 288.09375 93.300781 L 288.367188 78.179688 L 287.734375 77.640625 C 281.617188 79.441406 279.996094 79.890625 273.605469 81.511719 L 273.246094 82.140625 L 273.335938 93.390625 L 268.476562 93.210938 L 267.9375 93.660156 L 267.125 103.289062 L 267.664062 103.828125 L 273.335938 103.648438 L 273.066406 117.960938 C 272.976562 120.210938 272.886719 122.460938 272.886719 124.800781 C 272.886719 133.078125 273.066406 141.988281 287.105469 141.988281 C 290.617188 141.988281 293.40625 141.449219 296.554688 140.910156 L 297.1875 140.28125 L 298.085938 131.011719 Z M 348.125 140.371094 C 347.765625 132.988281 347.675781 130.46875 347.496094 121.109375 L 347.496094 114.359375 C 347.40625 105.808594 347.316406 100.859375 344.703125 97.078125 C 342.09375 93.390625 338.316406 92.21875 334.355469 92.21875 C 327.785156 92.21875 322.65625 95.371094 319.054688 97.53125 L 319.324219 69.808594 L 318.785156 69.179688 L 303.394531 71.609375 L 302.945312 72.148438 C 303.753906 80.878906 303.933594 84.121094 304.113281 95.730469 C 304.296875 103.019531 304.386719 110.308594 304.386719 117.601562 C 304.386719 126.511719 304.203125 131.820312 304.023438 140.640625 L 304.476562 141.269531 C 311.136719 140.910156 312.484375 140.910156 319.773438 140.910156 L 320.316406 140.371094 C 319.683594 126.871094 319.59375 122.820312 319.503906 106.890625 C 321.214844 105.71875 323.375 104.191406 326.433594 104.191406 C 331.386719 104.191406 331.746094 109.320312 332.105469 112.921875 C 332.285156 115.710938 332.375 128.488281 332.375 131.820312 C 332.375 134.789062 332.285156 137.671875 332.285156 140.640625 L 332.734375 141.269531 C 339.214844 140.910156 340.65625 140.910156 347.585938 140.910156 Z M 398.34375 127.679688 C 394.925781 129.480469 390.875 131.550781 384.304688 131.550781 C 378.90625 131.550781 375.214844 129.839844 373.054688 126.601562 C 371.703125 124.710938 371.433594 122.910156 371.074219 121.109375 L 400.144531 120.570312 L 400.683594 119.941406 C 400.59375 115.53125 400.503906 111.03125 399.246094 106.53125 C 396.09375 95.910156 389.164062 93.75 386.105469 93.03125 C 383.855469 92.398438 381.785156 92.21875 379.714844 92.21875 C 365.585938 92.21875 356.222656 101.488281 356.222656 117.058594 C 356.222656 121.289062 356.945312 125.699219 358.382812 128.851562 C 363.605469 141 375.84375 142.078125 382.324219 142.078125 C 389.792969 142.078125 393.035156 140.730469 397.804688 138.839844 L 398.34375 138.121094 L 398.972656 127.949219 L 398.34375 127.679688 M 371.074219 111.570312 C 371.34375 108.78125 371.972656 105 375.394531 102.839844 C 376.472656 102.121094 377.734375 101.851562 378.996094 101.851562 C 381.964844 101.851562 383.765625 103.378906 384.753906 105 C 386.015625 106.980469 386.105469 109.140625 386.105469 111.210938 Z M 455.582031 116.25 C 461.613281 126.511719 462.964844 129.210938 468.722656 141 L 469.445312 141.449219 C 472.234375 141.269531 474.933594 141.089844 477.722656 141 C 480.515625 140.910156 483.394531 140.820312 486.183594 140.820312 L 486.722656 139.738281 C 483.304688 135.328125 482.3125 133.980469 475.832031 123.628906 C 472.953125 119.039062 471.515625 116.609375 469.265625 112.648438 C 473.3125 110.851562 481.503906 107.070312 481.503906 95.640625 C 481.503906 91.679688 480.421875 83.488281 473.042969 79.621094 C 468.363281 77.191406 463.503906 77.101562 452.972656 77.28125 L 446.671875 77.371094 L 435.695312 77.371094 L 435.242188 77.910156 C 435.605469 87 435.964844 96.359375 435.964844 120.839844 C 435.964844 129.210938 435.875 133.261719 435.605469 140.730469 L 436.144531 141.269531 C 442.714844 141 444.152344 140.910156 451.535156 141 L 452.074219 140.460938 C 451.355469 130.019531 451.265625 127.140625 451.171875 116.429688 L 455.582031 116.25 M 451.355469 88.261719 C 452.613281 88.171875 453.875 88.171875 455.132812 88.171875 C 458.644531 88.171875 465.574219 88.171875 465.574219 96.089844 C 465.574219 98.609375 464.945312 101.941406 461.613281 104.011719 C 459.09375 105.539062 455.855469 105.71875 451.355469 105.808594 Z M 531.453125 127.679688 C 528.035156 129.480469 523.984375 131.550781 517.414062 131.550781 C 512.015625 131.550781 508.324219 129.839844 506.164062 126.601562 C 504.8125 124.710938 504.542969 122.910156 504.183594 121.109375 L 533.253906 120.570312 L 533.792969 119.941406 C 533.703125 115.53125 533.613281 111.03125 532.355469 106.53125 C 529.203125 95.910156 522.273438 93.75 519.214844 93.03125 C 516.964844 92.398438 514.894531 92.21875 512.824219 92.21875 C 498.695312 92.21875 489.332031 101.488281 489.332031 117.058594 C 489.332031 121.289062 490.054688 125.699219 491.492188 128.851562 C 496.714844 141 508.953125 142.078125 515.433594 142.078125 C 522.902344 142.078125 526.144531 140.730469 530.914062 138.839844 L 531.453125 138.121094 L 532.082031 127.949219 L 531.453125 127.679688 M 504.183594 111.570312 C 504.453125 108.78125 505.082031 105 508.503906 102.839844 C 509.582031 102.121094 510.84375 101.851562 512.105469 101.851562 C 515.074219 101.851562 516.875 103.378906 517.863281 105 C 519.125 106.980469 519.214844 109.140625 519.214844 111.210938 Z M 586.175781 140.460938 C 585.816406 132.359375 585.546875 126.960938 585.546875 115.171875 C 585.546875 91.410156 585.90625 81.601562 586.265625 69.71875 L 585.636719 69.179688 L 570.785156 71.519531 L 570.335938 72.058594 C 570.875 80.519531 570.964844 82.769531 570.875 93.03125 C 564.125 92.851562 555.664062 92.671875 548.824219 98.070312 C 542.527344 102.929688 539.914062 110.398438 539.914062 119.671875 C 539.914062 126.691406 541.804688 133.710938 547.117188 138.121094 C 551.074219 141.359375 555.9375 142.078125 558.90625 142.078125 C 565.296875 142.078125 568.625 139.109375 570.785156 137.21875 L 570.605469 140.730469 L 571.054688 141.269531 C 577.265625 141 578.976562 141 585.726562 141 L 586.175781 140.460938 M 570.875 103.828125 C 570.964844 115.800781 570.875 118.140625 570.605469 129.03125 C 568.804688 130.109375 567.003906 131.191406 564.484375 131.191406 C 555.753906 131.191406 555.753906 120.03125 555.753906 118.230469 C 555.753906 111.300781 557.734375 103.558594 567.816406 103.558594 C 568.804688 103.558594 569.617188 103.648438 570.875 103.828125 Z M 652.054688 140.371094 C 655.65625 126.421875 656.285156 124.261719 661.683594 104.910156 C 662.765625 101.21875 663.753906 97.441406 664.746094 93.75 L 664.207031 93.03125 L 652.503906 93.300781 L 651.875 93.929688 L 649.265625 107.429688 L 646.746094 118.320312 L 645.035156 126.601562 L 643.503906 118.589844 L 641.523438 109.230469 L 638.375 93.660156 L 637.835938 93.03125 L 620.554688 93.300781 L 619.925781 93.929688 L 616.957031 108.691406 L 614.796875 118.589844 L 613.085938 126.871094 L 611.375 117.960938 L 609.214844 108.238281 L 606.15625 93.300781 L 605.613281 92.851562 L 591.035156 93.929688 L 590.496094 94.648438 C 598.957031 124.351562 600.304688 129.660156 602.824219 140.730469 L 603.457031 141.269531 C 609.664062 141 611.914062 140.910156 620.195312 141 L 620.734375 140.371094 L 623.074219 129.390625 L 625.59375 118.5 L 627.84375 107.609375 L 629.195312 114.449219 L 630.546875 121.109375 L 634.324219 140.640625 L 634.957031 141.269531 C 641.613281 141 644.316406 140.910156 651.515625 141 Z M 715.328125 117.058594 C 715.328125 113.550781 715.328125 98.96875 702.726562 94.019531 C 698.765625 92.488281 694.085938 92.308594 691.746094 92.308594 C 676.085938 92.308594 667.265625 100.679688 667.265625 117.238281 C 667.265625 123 668.167969 128.851562 671.496094 133.710938 C 673.835938 137.21875 678.246094 142.078125 691.117188 142.078125 C 710.195312 142.078125 715.328125 130.558594 715.328125 117.058594 M 699.757812 116.96875 C 699.757812 124.351562 698.765625 132.539062 691.296875 132.539062 C 688.957031 132.539062 687.335938 131.460938 686.257812 130.46875 C 684.726562 128.941406 683.015625 125.878906 683.015625 117.148438 C 683.015625 114.539062 683.015625 108.78125 684.816406 105.628906 C 686.167969 103.199219 688.507812 101.578125 691.386719 101.578125 C 693.90625 101.578125 695.976562 102.929688 697.148438 104.371094 C 699.308594 106.980469 699.757812 112.109375 699.757812 116.96875 Z M 769.6875 117.058594 C 769.6875 113.550781 769.6875 98.96875 757.085938 94.019531 C 753.125 92.488281 748.445312 92.308594 746.105469 92.308594 C 730.445312 92.308594 721.625 100.679688 721.625 117.238281 C 721.625 123 722.527344 128.851562 725.855469 133.710938 C 728.195312 137.21875 732.605469 142.078125 745.476562 142.078125 C 764.554688 142.078125 769.6875 130.558594 769.6875 117.058594 M 754.117188 116.96875 C 754.117188 124.351562 753.125 132.539062 745.65625 132.539062 C 743.316406 132.539062 741.695312 131.460938 740.617188 130.46875 C 739.085938 128.941406 737.375 125.878906 737.375 117.148438 C 737.375 114.539062 737.375 108.78125 739.175781 105.628906 C 740.527344 103.199219 742.867188 101.578125 745.746094 101.578125 C 748.265625 101.578125 750.335938 102.929688 751.507812 104.371094 C 753.667969 106.980469 754.117188 112.109375 754.117188 116.96875 Z M 822.335938 140.460938 C 821.976562 132.359375 821.707031 126.960938 821.707031 115.171875 C 821.707031 91.410156 822.066406 81.601562 822.425781 69.71875 L 821.796875 69.179688 L 806.945312 71.519531 L 806.496094 72.058594 C 807.035156 80.519531 807.125 82.769531 807.035156 93.03125 C 800.285156 92.851562 791.824219 92.671875 784.984375 98.070312 C 778.6875 102.929688 776.074219 110.398438 776.074219 119.671875 C 776.074219 126.691406 777.964844 133.710938 783.277344 138.121094 C 787.234375 141.359375 792.097656 142.078125 795.066406 142.078125 C 801.457031 142.078125 804.785156 139.109375 806.945312 137.21875 L 806.765625 140.730469 L 807.214844 141.269531 C 813.425781 141 815.136719 141 821.886719 141 L 822.335938 140.460938 M 807.035156 103.828125 C 807.125 115.800781 807.035156 118.140625 806.765625 129.03125 C 804.964844 130.109375 803.164062 131.191406 800.644531 131.191406 C 791.914062 131.191406 791.914062 120.03125 791.914062 118.230469 C 791.914062 111.300781 793.894531 103.558594 803.976562 103.558594 C 804.964844 103.558594 805.777344 103.648438 807.035156 103.828125 Z M 851.496094 109.949219 C 848.433594 108.871094 846.003906 107.878906 846.003906 105.359375 C 846.003906 104.28125 846.726562 101.308594 852.304688 101.308594 C 857.796875 101.308594 861.304688 103.648438 863.554688 105.089844 L 864.367188 104.820312 L 865.265625 95.011719 L 864.816406 94.46875 C 860.585938 93.300781 856.894531 92.21875 851.046875 92.21875 C 846.636719 92.21875 837.816406 92.578125 833.136719 99.328125 C 831.964844 100.949219 830.707031 103.648438 830.707031 107.25 C 830.707031 116.878906 838.175781 119.761719 842.40625 121.378906 L 845.824219 122.640625 C 848.253906 123.449219 852.214844 124.800781 852.214844 128.039062 C 852.214844 130.289062 850.144531 132.71875 845.105469 132.71875 C 842.585938 132.71875 838.894531 131.910156 835.566406 130.199219 C 834.035156 129.390625 833.316406 128.761719 831.964844 127.679688 L 831.15625 128.039062 C 830.976562 132.71875 830.886719 133.710938 830.523438 138.210938 L 830.976562 139.019531 C 835.386719 140.640625 839.164062 142.078125 845.734375 142.078125 C 852.574219 142.078125 866.074219 140.820312 867.695312 127.949219 C 867.785156 127.230469 867.785156 126.601562 867.785156 125.96875 C 867.785156 116.070312 860.855469 113.460938 855.90625 111.570312 Z M 870.304688 141 "/>
<path fill-rule="nonzero" fill="rgb(34.901961%, 14.901961%, 14.901961%)" fill-opacity="1" d="M 245.074219 222.300781 C 237.515625 219.148438 233.554688 217.53125 233.554688 213.480469 C 233.554688 210.691406 236.164062 207.179688 242.105469 207.179688 C 248.945312 207.179688 252.992188 209.96875 256.324219 212.21875 L 257.132812 211.859375 L 257.855469 200.070312 L 257.402344 199.441406 C 253.535156 197.820312 249.484375 196.109375 240.753906 196.109375 C 223.835938 196.109375 217.984375 205.648438 217.984375 215.28125 C 217.984375 226.171875 226.445312 230.128906 231.484375 232.558594 L 234.453125 233.910156 C 240.664062 236.519531 245.433594 238.769531 245.433594 243.539062 C 245.433594 246.960938 242.464844 251.011719 234.632812 251.011719 C 226.445312 251.011719 221.855469 247.410156 219.242188 245.339844 L 218.34375 245.609375 L 217.714844 258.300781 L 218.253906 259.019531 C 219.242188 259.378906 220.234375 259.828125 221.222656 260.101562 C 223.292969 260.820312 228.605469 262.351562 235.355469 262.351562 C 238.054688 262.351562 244.894531 262.078125 250.292969 259.558594 C 257.855469 255.871094 261.09375 249.03125 261.09375 241.378906 C 261.09375 236.25 259.113281 230.761719 254.34375 227.070312 C 251.914062 225.269531 249.574219 224.191406 247.414062 223.199219 Z M 294.84375 250.648438 C 293.3125 251.101562 292.230469 251.460938 290.703125 251.460938 C 286.113281 251.460938 285.753906 248.578125 285.570312 247.230469 C 285.300781 244.890625 285.300781 239.941406 285.390625 236.339844 L 285.570312 223.648438 L 293.671875 224.011719 L 294.210938 223.46875 L 295.113281 213.839844 L 294.570312 213.300781 L 285.570312 213.300781 L 285.84375 198.179688 L 285.210938 197.640625 C 279.09375 199.441406 277.472656 199.890625 271.082031 201.511719 L 270.722656 202.140625 L 270.8125 213.390625 L 265.953125 213.210938 L 265.414062 213.660156 L 264.601562 223.289062 L 265.140625 223.828125 L 270.8125 223.648438 L 270.542969 237.960938 C 270.453125 240.210938 270.363281 242.460938 270.363281 244.800781 C 270.363281 253.078125 270.542969 261.988281 284.582031 261.988281 C 288.09375 261.988281 290.882812 261.449219 294.03125 260.910156 L 294.664062 260.28125 L 295.5625 251.011719 Z M 341.554688 234.179688 C 341.644531 226.078125 341.644531 222.570312 339.304688 218.789062 C 337.503906 215.910156 333.90625 212.308594 322.386719 212.308594 C 314.644531 212.308594 309.875 213.75 304.746094 215.28125 L 304.207031 216 L 303.753906 225.808594 L 304.476562 226.171875 C 307.625 224.910156 313.476562 222.570312 319.503906 222.570312 C 322.835938 222.570312 324.183594 223.109375 325.355469 224.28125 C 326.253906 225.179688 326.527344 226.800781 326.527344 228.148438 C 315.726562 229.589844 310.683594 230.578125 305.285156 233.910156 C 300.246094 237.058594 298.535156 242.191406 298.535156 246.238281 C 298.535156 255.871094 305.464844 262.078125 314.285156 262.078125 C 321.035156 262.078125 324.90625 258.839844 326.796875 257.308594 L 326.796875 260.640625 L 327.335938 261.269531 C 333.816406 261 335.796875 260.910156 341.644531 261 L 342.09375 260.371094 C 341.464844 251.550781 341.464844 249.300781 341.464844 240.839844 L 341.554688 234.179688 M 326.707031 248.488281 C 324.816406 249.570312 322.386719 250.828125 319.414062 250.828125 C 316.175781 250.828125 313.476562 249.121094 313.476562 245.339844 C 313.476562 239.398438 320.585938 238.410156 326.707031 237.601562 Z M 377.285156 250.648438 C 375.753906 251.101562 374.671875 251.460938 373.144531 251.460938 C 368.554688 251.460938 368.195312 248.578125 368.011719 247.230469 C 367.742188 244.890625 367.742188 239.941406 367.832031 236.339844 L 368.011719 223.648438 L 376.113281 224.011719 L 376.652344 223.46875 L 377.554688 213.839844 L 377.011719 213.300781 L 368.011719 213.300781 L 368.285156 198.179688 L 367.652344 197.640625 C 361.535156 199.441406 359.914062 199.890625 353.523438 201.511719 L 353.164062 202.140625 L 353.253906 213.390625 L 348.394531 213.210938 L 347.855469 213.660156 L 347.042969 223.289062 L 347.582031 223.828125 L 353.253906 223.648438 L 352.984375 237.960938 C 352.894531 240.210938 352.804688 242.460938 352.804688 244.800781 C 352.804688 253.078125 352.984375 261.988281 367.023438 261.988281 C 370.535156 261.988281 373.324219 261.449219 376.472656 260.910156 L 377.105469 260.28125 L 378.003906 251.011719 Z M 423.902344 247.679688 C 420.484375 249.480469 416.433594 251.550781 409.863281 251.550781 C 404.464844 251.550781 400.773438 249.839844 398.613281 246.601562 C 397.261719 244.710938 396.992188 242.910156 396.632812 241.109375 L 425.703125 240.570312 L 426.242188 239.941406 C 426.152344 235.53125 426.0625 231.03125 424.804688 226.53125 C 421.652344 215.910156 414.722656 213.75 411.664062 213.03125 C 409.414062 212.398438 407.34375 212.21875 405.273438 212.21875 C 391.144531 212.21875 381.78125 221.488281 381.78125 237.058594 C 381.78125 241.289062 382.503906 245.699219 383.941406 248.851562 C 389.164062 261 401.402344 262.078125 407.882812 262.078125 C 415.351562 262.078125 418.59375 260.730469 423.363281 258.839844 L 423.902344 258.121094 L 424.53125 247.949219 L 423.902344 247.679688 M 396.632812 231.570312 C 396.902344 228.78125 397.53125 225 400.953125 222.839844 C 402.03125 222.121094 403.292969 221.851562 404.554688 221.851562 C 407.523438 221.851562 409.324219 223.378906 410.3125 225 C 411.574219 226.980469 411.664062 229.140625 411.664062 231.210938 Z M 514.890625 197.191406 C 509.222656 197.460938 507.691406 197.550781 502.113281 197.460938 L 501.664062 198 L 502.292969 210.148438 L 502.652344 222.570312 L 503.011719 237.421875 C 500.402344 233.011719 499.953125 232.289062 495.363281 225.449219 L 487.171875 213.480469 C 480.421875 203.21875 479.074219 201.238281 476.824219 197.640625 L 476.191406 197.191406 C 469.082031 197.550781 467.914062 197.550781 461.34375 197.460938 L 460.890625 198 C 461.34375 211.949219 461.613281 222.300781 461.613281 234.359375 C 461.613281 243.179688 461.433594 252 461.34375 260.730469 L 461.792969 261.269531 C 467.824219 261 469.710938 261 474.933594 261 L 475.382812 260.460938 L 474.480469 240.75 L 474.210938 229.679688 L 473.671875 217.621094 C 477.902344 224.640625 479.34375 226.980469 485.460938 235.890625 L 494.460938 249.121094 L 502.472656 260.820312 L 503.101562 261.269531 C 508.59375 261 510.210938 261 514.980469 261 L 515.433594 260.550781 C 515.34375 247.5 515.253906 238.679688 515.253906 227.878906 C 515.253906 217.800781 515.34375 207.808594 515.433594 197.730469 Z M 566.464844 234.179688 C 566.554688 226.078125 566.554688 222.570312 564.214844 218.789062 C 562.414062 215.910156 558.816406 212.308594 547.296875 212.308594 C 539.554688 212.308594 534.785156 213.75 529.65625 215.28125 L 529.117188 216 L 528.664062 225.808594 L 529.386719 226.171875 C 532.535156 224.910156 538.386719 222.570312 544.414062 222.570312 C 547.746094 222.570312 549.09375 223.109375 550.265625 224.28125 C 551.164062 225.179688 551.4375 226.800781 551.4375 228.148438 C 540.636719 229.589844 535.59375 230.578125 530.195312 233.910156 C 525.15625 237.058594 523.445312 242.191406 523.445312 246.238281 C 523.445312 255.871094 530.375 262.078125 539.195312 262.078125 C 545.945312 262.078125 549.816406 258.839844 551.707031 257.308594 L 551.707031 260.640625 L 552.246094 261.269531 C 558.726562 261 560.707031 260.910156 566.554688 261 L 567.003906 260.371094 C 566.375 251.550781 566.375 249.300781 566.375 240.839844 L 566.464844 234.179688 M 551.617188 248.488281 C 549.726562 249.570312 547.296875 250.828125 544.324219 250.828125 C 541.085938 250.828125 538.386719 249.121094 538.386719 245.339844 C 538.386719 239.398438 545.496094 238.410156 551.617188 237.601562 Z M 602.195312 250.648438 C 600.664062 251.101562 599.582031 251.460938 598.054688 251.460938 C 593.464844 251.460938 593.105469 248.578125 592.921875 247.230469 C 592.652344 244.890625 592.652344 239.941406 592.742188 236.339844 L 592.921875 223.648438 L 601.023438 224.011719 L 601.5625 223.46875 L 602.464844 213.839844 L 601.921875 213.300781 L 592.921875 213.300781 L 593.195312 198.179688 L 592.5625 197.640625 C 586.445312 199.441406 584.824219 199.890625 578.433594 201.511719 L 578.074219 202.140625 L 578.164062 213.390625 L 573.304688 213.210938 L 572.765625 213.660156 L 571.953125 223.289062 L 572.492188 223.828125 L 578.164062 223.648438 L 577.894531 237.960938 C 577.804688 240.210938 577.714844 242.460938 577.714844 244.800781 C 577.714844 253.078125 577.894531 261.988281 591.933594 261.988281 C 595.445312 261.988281 598.234375 261.449219 601.382812 260.910156 L 602.015625 260.28125 L 602.914062 251.011719 Z M 652.054688 212.851562 L 637.382812 213.570312 L 636.753906 214.109375 C 637.382812 224.28125 637.382812 238.679688 637.382812 240.121094 C 637.382812 242.730469 637.382812 244.171875 637.292969 247.769531 C 634.863281 249.390625 632.972656 250.738281 630.542969 250.738281 C 624.0625 250.738281 624.0625 243.898438 624.0625 238.589844 C 624.0625 236.339844 624.0625 234 624.152344 231.75 L 624.332031 213.570312 L 623.703125 212.851562 L 608.851562 213.570312 L 608.222656 214.109375 C 608.761719 221.671875 608.851562 224.191406 608.851562 233.28125 L 608.851562 239.578125 C 608.761719 249.390625 609.214844 253.53125 612.453125 257.308594 C 615.421875 260.640625 619.742188 262.078125 624.242188 262.078125 C 630.632812 262.078125 634.324219 259.199219 637.5625 256.679688 L 637.472656 260.730469 L 638.101562 261.269531 C 644.671875 261 646.652344 261 652.503906 261 L 653.042969 260.460938 C 652.59375 254.070312 652.414062 250.648438 652.414062 238.949219 C 652.414062 230.488281 652.503906 222.03125 652.683594 213.570312 Z M 689.222656 227.609375 L 691.742188 212.941406 L 691.203125 212.308594 C 690.574219 212.308594 689.941406 212.21875 689.3125 212.21875 C 685.621094 212.21875 681.484375 214.289062 678.601562 220.949219 L 678.871094 212.671875 L 678.152344 211.949219 C 671.492188 213.390625 669.78125 213.660156 663.210938 214.648438 L 662.671875 215.191406 C 663.210938 221.941406 663.484375 225.988281 663.484375 238.5 C 663.484375 245.878906 663.390625 253.261719 663.210938 260.730469 L 663.753906 261.269531 C 670.414062 261 671.851562 260.910156 679.050781 261 L 679.503906 260.371094 C 679.140625 253.078125 678.601562 242.910156 678.601562 236.699219 C 678.601562 232.648438 678.601562 226.710938 684.722656 226.710938 C 686.253906 226.710938 687.152344 227.25 688.414062 227.96875 Z M 737.011719 234.179688 C 737.101562 226.078125 737.101562 222.570312 734.761719 218.789062 C 732.960938 215.910156 729.363281 212.308594 717.84375 212.308594 C 710.101562 212.308594 705.332031 213.75 700.203125 215.28125 L 699.664062 216 L 699.210938 225.808594 L 699.933594 226.171875 C 703.082031 224.910156 708.933594 222.570312 714.960938 222.570312 C 718.292969 222.570312 719.640625 223.109375 720.8125 224.28125 C 721.710938 225.179688 721.984375 226.800781 721.984375 228.148438 C 711.183594 229.589844 706.140625 230.578125 700.742188 233.910156 C 695.703125 237.058594 693.992188 242.191406 693.992188 246.238281 C 693.992188 255.871094 700.921875 262.078125 709.742188 262.078125 C 716.492188 262.078125 720.363281 258.839844 722.253906 257.308594 L 722.253906 260.640625 L 722.792969 261.269531 C 729.273438 261 731.253906 260.910156 737.101562 261 L 737.550781 260.371094 C 736.921875 251.550781 736.921875 249.300781 736.921875 240.839844 L 737.011719 234.179688 M 722.164062 248.488281 C 720.273438 249.570312 717.84375 250.828125 714.871094 250.828125 C 711.632812 250.828125 708.933594 249.121094 708.933594 245.339844 C 708.933594 239.398438 716.042969 238.410156 722.164062 237.601562 Z M 763.382812 260.371094 C 762.933594 250.019531 762.484375 240.570312 762.484375 212.128906 C 762.484375 203.578125 762.574219 199.53125 762.933594 189.808594 L 762.304688 189.179688 L 746.914062 191.609375 L 746.554688 192.148438 C 747.453125 203.128906 747.542969 206.101562 747.722656 220.679688 C 747.816406 225.988281 747.816406 231.300781 747.816406 236.609375 C 747.816406 246.328125 747.632812 251.730469 747.273438 260.640625 L 747.816406 261.269531 C 753.84375 261 756.273438 260.910156 762.84375 261 Z M 768.425781 261 "/>
<path fill-rule="nonzero" fill="rgb(34.901961%, 14.901961%, 14.901961%)" fill-opacity="1" d="M 351.453125 356.25 C 357.484375 366.511719 358.835938 369.210938 364.59375 381 L 365.316406 381.449219 C 368.105469 381.269531 370.804688 381.089844 373.59375 381 C 376.386719 380.910156 379.265625 380.820312 382.054688 380.820312 L 382.59375 379.738281 C 379.175781 375.328125 378.183594 373.980469 371.703125 363.628906 C 368.824219 359.039062 367.386719 356.609375 365.136719 352.648438 C 369.183594 350.851562 377.375 347.070312 377.375 335.640625 C 377.375 331.679688 376.292969 323.488281 368.914062 319.621094 C 364.234375 317.191406 359.375 317.101562 348.84375 317.28125 L 342.542969 317.371094 L 331.566406 317.371094 L 331.113281 317.910156 C 331.476562 327 331.835938 336.359375 331.835938 360.839844 C 331.835938 369.210938 331.746094 373.261719 331.476562 380.730469 L 332.015625 381.269531 C 338.585938 381 340.023438 380.910156 347.40625 381 L 347.945312 380.460938 C 347.226562 370.019531 347.136719 367.140625 347.042969 356.429688 L 351.453125 356.25 M 347.226562 328.261719 C 348.484375 328.171875 349.746094 328.171875 351.003906 328.171875 C 354.515625 328.171875 361.445312 328.171875 361.445312 336.089844 C 361.445312 338.609375 360.816406 341.941406 357.484375 344.011719 C 354.964844 345.539062 351.726562 345.71875 347.226562 345.808594 Z M 427.324219 367.679688 C 423.90625 369.480469 419.855469 371.550781 413.285156 371.550781 C 407.886719 371.550781 404.195312 369.839844 402.035156 366.601562 C 400.683594 364.710938 400.414062 362.910156 400.054688 361.109375 L 429.125 360.570312 L 429.664062 359.941406 C 429.574219 355.53125 429.484375 351.03125 428.226562 346.53125 C 425.074219 335.910156 418.144531 333.75 415.085938 333.03125 C 412.835938 332.398438 410.765625 332.21875 408.695312 332.21875 C 394.566406 332.21875 385.203125 341.488281 385.203125 357.058594 C 385.203125 361.289062 385.925781 365.699219 387.363281 368.851562 C 392.585938 381 404.824219 382.078125 411.304688 382.078125 C 418.773438 382.078125 422.015625 380.730469 426.785156 378.839844 L 427.324219 378.121094 L 427.953125 367.949219 L 427.324219 367.679688 M 400.054688 351.570312 C 400.324219 348.78125 400.953125 345 404.375 342.839844 C 405.453125 342.121094 406.714844 341.851562 407.976562 341.851562 C 410.945312 341.851562 412.746094 343.378906 413.734375 345 C 414.996094 346.980469 415.085938 349.140625 415.085938 351.210938 Z M 456.84375 349.949219 C 453.78125 348.871094 451.351562 347.878906 451.351562 345.359375 C 451.351562 344.28125 452.074219 341.308594 457.652344 341.308594 C 463.144531 341.308594 466.652344 343.648438 468.902344 345.089844 L 469.714844 344.820312 L 470.613281 335.011719 L 470.164062 334.46875 C 465.933594 333.300781 462.242188 332.21875 456.394531 332.21875 C 451.984375 332.21875 443.164062 332.578125 438.484375 339.328125 C 437.3125 340.949219 436.054688 343.648438 436.054688 347.25 C 436.054688 356.878906 443.523438 359.761719 447.753906 361.378906 L 451.171875 362.640625 C 453.601562 363.449219 457.5625 364.800781 457.5625 368.039062 C 457.5625 370.289062 455.492188 372.71875 450.453125 372.71875 C 447.933594 372.71875 444.242188 371.910156 440.914062 370.199219 C 439.382812 369.390625 438.664062 368.761719 437.3125 367.679688 L 436.503906 368.039062 C 436.324219 372.71875 436.234375 373.710938 435.871094 378.210938 L 436.324219 379.019531 C 440.734375 380.640625 444.511719 382.078125 451.082031 382.078125 C 457.921875 382.078125 471.421875 380.820312 473.042969 367.949219 C 473.132812 367.230469 473.132812 366.601562 473.132812 365.96875 C 473.132812 356.070312 466.203125 353.460938 461.253906 351.570312 Z M 521.015625 367.679688 C 517.597656 369.480469 513.546875 371.550781 506.976562 371.550781 C 501.578125 371.550781 497.886719 369.839844 495.726562 366.601562 C 494.375 364.710938 494.105469 362.910156 493.746094 361.109375 L 522.816406 360.570312 L 523.355469 359.941406 C 523.265625 355.53125 523.175781 351.03125 521.917969 346.53125 C 518.765625 335.910156 511.835938 333.75 508.777344 333.03125 C 506.527344 332.398438 504.457031 332.21875 502.386719 332.21875 C 488.257812 332.21875 478.894531 341.488281 478.894531 357.058594 C 478.894531 361.289062 479.617188 365.699219 481.054688 368.851562 C 486.277344 381 498.515625 382.078125 504.996094 382.078125 C 512.464844 382.078125 515.707031 380.730469 520.476562 378.839844 L 521.015625 378.121094 L 521.644531 367.949219 L 521.015625 367.679688 M 493.746094 351.570312 C 494.015625 348.78125 494.644531 345 498.066406 342.839844 C 499.144531 342.121094 500.40625 341.851562 501.667969 341.851562 C 504.636719 341.851562 506.4375 343.378906 507.425781 345 C 508.6875 346.980469 508.777344 349.140625 508.777344 351.210938 Z M 557.644531 347.609375 L 560.164062 332.941406 L 559.625 332.308594 C 558.996094 332.308594 558.363281 332.21875 557.734375 332.21875 C 554.042969 332.21875 549.90625 334.289062 547.023438 340.949219 L 547.292969 332.671875 L 546.574219 331.949219 C 539.914062 333.390625 538.203125 333.660156 531.632812 334.648438 L 531.09375 335.191406 C 531.632812 341.941406 531.90625 345.988281 531.90625 358.5 C 531.90625 365.878906 531.8125 373.261719 531.632812 380.730469 L 532.175781 381.269531 C 538.835938 381 540.273438 380.910156 547.472656 381 L 547.925781 380.371094 C 547.5625 373.078125 547.023438 362.910156 547.023438 356.699219 C 547.023438 352.648438 547.023438 346.710938 553.144531 346.710938 C 554.675781 346.710938 555.574219 347.25 556.835938 347.96875 Z M 590.222656 380.28125 C 593.105469 371.28125 594.8125 365.699219 596.703125 360.03125 C 599.132812 352.738281 603.09375 341.039062 605.613281 333.660156 L 605.164062 333.03125 L 592.5625 333.300781 L 591.933594 333.929688 C 590.675781 339.960938 590.40625 341.21875 588.605469 348.238281 L 584.015625 365.96875 L 581.765625 356.25 L 580.054688 349.320312 C 577.804688 340.949219 577.445312 339.238281 576.183594 333.300781 L 575.554688 332.761719 C 568.445312 333.570312 566.644531 333.660156 559.804688 333.75 L 559.445312 334.46875 C 571.414062 369.929688 572.40625 373.261719 574.382812 380.640625 L 575.015625 381.269531 C 580.863281 381 583.203125 380.910156 589.683594 381 Z M 650.34375 367.679688 C 646.925781 369.480469 642.875 371.550781 636.304688 371.550781 C 630.90625 371.550781 627.214844 369.839844 625.054688 366.601562 C 623.703125 364.710938 623.433594 362.910156 623.074219 361.109375 L 652.144531 360.570312 L 652.683594 359.941406 C 652.59375 355.53125 652.503906 351.03125 651.246094 346.53125 C 648.09375 335.910156 641.164062 333.75 638.105469 333.03125 C 635.855469 332.398438 633.785156 332.21875 631.714844 332.21875 C 617.585938 332.21875 608.222656 341.488281 608.222656 357.058594 C 608.222656 361.289062 608.945312 365.699219 610.382812 368.851562 C 615.605469 381 627.84375 382.078125 634.324219 382.078125 C 641.792969 382.078125 645.035156 380.730469 649.804688 378.839844 L 650.34375 378.121094 L 650.972656 367.949219 L 650.34375 367.679688 M 623.074219 351.570312 C 623.34375 348.78125 623.972656 345 627.394531 342.839844 C 628.472656 342.121094 629.734375 341.851562 630.996094 341.851562 C 633.964844 341.851562 635.765625 343.378906 636.753906 345 C 638.015625 346.980469 638.105469 349.140625 638.105469 351.210938 Z M 655.566406 381 "/>
</svg>
