<?xml version="1.0" encoding="UTF-8"?>
<svg xmlns="http://www.w3.org/2000/svg" xmlns:xlink="http://www.w3.org/1999/xlink" width="975" height="1300" viewBox="0 0 975 1300">
<path fill-rule="nonzero" fill="rgb(98.823529%, 78.823529%, 9.019608%)" fill-opacity="1" d="M 50 50 L 925 50 L 925 290 L 50 290 Z M 50 50 "/>
<path fill-rule="nonzero" fill="rgb(34.901961%, 14.901961%, 14.901961%)" fill-opacity="1" d="M 81.589844 102.300781 C 74.03125 99.148438 70.070312 97.53125 70.070312 93.480469 C 70.070312 90.691406 72.679688 87.179688 78.621094 87.179688 C 85.460938 87.179688 89.507812 89.96875 92.839844 92.21875 L 93.648438 91.859375 L 94.371094 80.070312 L 93.917969 79.441406 C 90.050781 77.820312 86 76.109375 77.269531 76.109375 C 60.351562 76.109375 54.5 85.648438 54.5 95.28125 C 54.5 106.171875 62.960938 110.128906 68 112.558594 L 70.96875 113.910156 C 77.179688 116.519531 81.949219 118.769531 81.949219 123.539062 C 81.949219 126.960938 78.980469 131.011719 71.148438 131.011719 C 62.960938 131.011719 58.371094 127.410156 55.757812 125.339844 L 54.859375 125.609375 L 54.230469 138.300781 L 54.769531 139.019531 C 55.757812 139.378906 56.75 139.828125 57.738281 140.101562 C 59.808594 140.820312 65.121094 142.351562 71.871094 142.351562 C 74.570312 142.351562 81.410156 142.078125 86.808594 139.558594 C 94.371094 135.871094 97.609375 129.03125 97.609375 121.378906 C 97.609375 116.25 95.628906 110.761719 90.859375 107.070312 C 88.429688 105.269531 86.089844 104.191406 83.929688 103.199219 Z M 122.449219 140.371094 C 121.996094 133.441406 121.636719 128.128906 121.636719 115.710938 C 121.636719 108.058594 121.816406 100.320312 121.90625 92.671875 L 121.277344 91.949219 L 105.796875 94.648438 L 105.257812 95.191406 C 105.976562 102.03125 106.246094 105.179688 106.246094 117.960938 C 106.246094 127.769531 105.976562 133.261719 105.707031 140.640625 L 106.246094 141.269531 C 112.726562 141 114.527344 140.910156 121.816406 141 L 122.449219 140.371094 M 121.007812 83.308594 L 121.277344 71.070312 L 120.738281 70.53125 L 106.066406 72.328125 L 105.527344 72.960938 C 105.707031 76.199219 105.796875 78.089844 105.796875 80.25 C 105.796875 81.960938 105.796875 83.761719 105.707031 85.46875 L 106.335938 86.011719 C 112.457031 84.929688 114.167969 84.75 120.558594 83.941406 Z M 176.539062 140.371094 C 176.089844 132.449219 176.089844 129.929688 175.910156 121.109375 L 175.910156 114.089844 C 175.820312 105.449219 175.730469 101.308594 173.480469 97.621094 C 170.6875 92.941406 165.558594 92.21875 162.320312 92.21875 C 156.828125 92.21875 152.058594 95.101562 147.917969 97.53125 L 148.097656 92.578125 L 147.199219 91.949219 C 140.269531 93.390625 138.738281 93.660156 131.988281 94.558594 L 131.449219 95.191406 C 132.167969 103.019531 132.710938 108.691406 132.710938 123.359375 C 132.710938 129.121094 132.617188 134.878906 132.527344 140.640625 L 133.070312 141.179688 C 139.550781 140.910156 140.898438 140.910156 148.097656 140.910156 L 148.640625 140.371094 C 148.097656 126.511719 148.007812 123 147.917969 106.890625 C 149.808594 105.628906 151.96875 104.101562 154.847656 104.101562 C 159.800781 104.101562 160.25 109.410156 160.519531 112.648438 C 160.699219 115.621094 160.789062 127.949219 160.789062 131.371094 C 160.789062 134.429688 160.699219 137.578125 160.699219 140.640625 L 161.238281 141.179688 C 167.179688 141 168.710938 140.910156 175.910156 140.910156 Z M 233.058594 139.828125 C 224.597656 125.519531 223.699219 123.898438 216.859375 111.570312 C 223.070312 103.109375 223.699219 102.210938 230.089844 94.019531 L 229.636719 93.121094 L 214.96875 93.300781 L 214.070312 93.929688 C 207.046875 106.078125 206.148438 107.519531 202.007812 113.730469 L 202.007812 103.738281 C 202.097656 86.910156 202.1875 83.308594 202.636719 69.71875 L 201.917969 69.179688 L 186.257812 71.519531 L 185.71875 72.148438 C 186.347656 80.878906 186.617188 85.109375 186.796875 96.898438 C 186.976562 111.480469 186.976562 126.058594 186.886719 140.640625 L 187.519531 141.269531 C 193.546875 141 195.257812 141 202.097656 141 L 202.636719 140.371094 L 202.097656 125.160156 L 202.007812 114.808594 C 209.839844 129.210938 210.828125 131.191406 215.417969 140.730469 L 216.226562 141.269531 L 232.429688 140.640625 Z M 277.609375 93.03125 L 265.101562 93.300781 L 264.378906 93.929688 C 262.851562 100.140625 262.492188 101.488281 260.332031 108.511719 L 257.992188 116.25 L 256.011719 123 L 254.300781 116.609375 L 251.691406 107.070312 L 248.089844 93.390625 L 247.371094 92.851562 C 240.351562 93.390625 238.820312 93.480469 231.441406 93.660156 L 230.992188 94.289062 C 234.230469 102.839844 242.601562 125.429688 248.179688 142.710938 C 244.492188 152.070312 243.769531 153.691406 239.71875 162.601562 L 240.171875 163.320312 C 242.421875 163.230469 244.941406 163.140625 247.28125 163.140625 C 249.53125 163.140625 251.871094 163.230469 254.121094 163.230469 L 254.75 162.691406 C 259.699219 143.25 262.128906 135.691406 274.011719 104.371094 C 275.359375 100.769531 276.710938 97.261719 277.96875 93.75 Z M 328.191406 117.058594 C 328.191406 113.550781 328.191406 98.96875 315.589844 94.019531 C 311.628906 92.488281 306.949219 92.308594 304.609375 92.308594 C 288.949219 92.308594 280.128906 100.679688 280.128906 117.238281 C 280.128906 123 281.03125 128.851562 284.359375 133.710938 C 286.699219 137.21875 291.109375 142.078125 303.980469 142.078125 C 323.058594 142.078125 328.191406 130.558594 328.191406 117.058594 M 312.621094 116.96875 C 312.621094 124.351562 311.628906 132.539062 304.160156 132.539062 C 301.820312 132.539062 300.199219 131.460938 299.121094 130.46875 C 297.589844 128.941406 295.878906 125.878906 295.878906 117.148438 C 295.878906 114.539062 295.878906 108.78125 297.679688 105.628906 C 299.03125 103.199219 301.371094 101.578125 304.25 101.578125 C 306.769531 101.578125 308.839844 102.929688 310.011719 104.371094 C 312.171875 106.980469 312.621094 112.109375 312.621094 116.96875 Z M 380.839844 140.371094 C 380.390625 132.449219 380.390625 129.929688 380.210938 121.109375 L 380.210938 114.089844 C 380.121094 105.449219 380.03125 101.308594 377.78125 97.621094 C 374.988281 92.941406 369.859375 92.21875 366.621094 92.21875 C 361.128906 92.21875 356.359375 95.101562 352.21875 97.53125 L 352.398438 92.578125 L 351.5 91.949219 C 344.570312 93.390625 343.039062 93.660156 336.289062 94.558594 L 335.75 95.191406 C 336.46875 103.019531 337.011719 108.691406 337.011719 123.359375 C 337.011719 129.121094 336.917969 134.878906 336.828125 140.640625 L 337.371094 141.179688 C 343.851562 140.910156 345.199219 140.910156 352.398438 140.910156 L 352.941406 140.371094 C 352.398438 126.511719 352.308594 123 352.21875 106.890625 C 354.109375 105.628906 356.269531 104.101562 359.148438 104.101562 C 364.101562 104.101562 364.550781 109.410156 364.820312 112.648438 C 365 115.621094 365.089844 127.949219 365.089844 131.371094 C 365.089844 134.429688 365 137.578125 365 140.640625 L 365.539062 141.179688 C 371.480469 141 373.011719 140.910156 380.210938 140.910156 Z M 431.058594 127.679688 C 427.640625 129.480469 423.589844 131.550781 417.019531 131.550781 C 411.621094 131.550781 407.929688 129.839844 405.769531 126.601562 C 404.417969 124.710938 404.148438 122.910156 403.789062 121.109375 L 432.859375 120.570312 L 433.398438 119.941406 C 433.308594 115.53125 433.21875 111.03125 431.960938 106.53125 C 428.808594 95.910156 421.878906 93.75 418.820312 93.03125 C 416.570312 92.398438 414.5 92.21875 412.429688 92.21875 C 398.300781 92.21875 388.9375 101.488281 388.9375 117.058594 C 388.9375 121.289062 389.660156 125.699219 391.097656 128.851562 C 396.320312 141 408.558594 142.078125 415.039062 142.078125 C 422.507812 142.078125 425.75 140.730469 430.519531 138.839844 L 431.058594 138.121094 L 431.6875 127.949219 L 431.058594 127.679688 M 403.789062 111.570312 C 404.058594 108.78125 404.6875 105 408.109375 102.839844 C 409.1875 102.121094 410.449219 101.851562 411.710938 101.851562 C 414.679688 101.851562 416.480469 103.378906 417.46875 105 C 418.730469 106.980469 418.820312 109.140625 418.820312 111.210938 Z M 533.386719 140.460938 C 536.71875 124.078125 538.160156 117.238281 547.699219 77.730469 L 547.25 77.191406 C 540.859375 77.460938 539.597656 77.460938 533.570312 77.460938 L 533.027344 78 C 531.589844 87.269531 531.136719 90.421875 529.160156 100.769531 L 526.546875 114.539062 L 523.667969 130.019531 C 522.320312 119.941406 521.867188 116.878906 520.070312 106.441406 L 517.457031 91.320312 L 515.207031 77.460938 L 514.667969 76.828125 L 496.847656 77.28125 L 496.308594 77.820312 L 492.707031 98.519531 L 489.199219 116.96875 L 486.949219 129.390625 C 485.867188 121.558594 485.507812 118.949219 483.617188 108.058594 L 481.277344 94.921875 L 478.308594 77.101562 L 477.769531 76.648438 C 470.027344 77.191406 468.769531 77.191406 462.199219 77.371094 L 461.75 78 C 468.320312 107.789062 469.757812 114.628906 474.617188 140.730469 L 475.160156 141.269531 C 484.25 140.910156 486.679688 140.910156 495.5 141 L 496.128906 140.460938 L 498.019531 129.300781 L 500.988281 112.828125 L 504.230469 93.570312 C 505.308594 102.390625 505.578125 104.640625 507.199219 114.359375 L 509.449219 128.398438 L 511.339844 140.730469 L 511.789062 141.269531 C 520.429688 141 523.398438 140.910156 532.9375 141 Z M 568.671875 140.371094 C 568.21875 133.441406 567.859375 128.128906 567.859375 115.710938 C 567.859375 108.058594 568.039062 100.320312 568.128906 92.671875 L 567.5 91.949219 L 552.019531 94.648438 L 551.480469 95.191406 C 552.199219 102.03125 552.46875 105.179688 552.46875 117.960938 C 552.46875 127.769531 552.199219 133.261719 551.929688 140.640625 L 552.46875 141.269531 C 558.949219 141 560.75 140.910156 568.039062 141 L 568.671875 140.371094 M 567.230469 83.308594 L 567.5 71.070312 L 566.960938 70.53125 L 552.289062 72.328125 L 551.75 72.960938 C 551.929688 76.199219 552.019531 78.089844 552.019531 80.25 C 552.019531 81.960938 552.019531 83.761719 551.929688 85.46875 L 552.558594 86.011719 C 558.679688 84.929688 560.390625 84.75 566.78125 83.941406 Z M 594.496094 140.371094 C 594.046875 130.019531 593.597656 120.570312 593.597656 92.128906 C 593.597656 83.578125 593.6875 79.53125 594.046875 69.808594 L 593.417969 69.179688 L 578.027344 71.609375 L 577.667969 72.148438 C 578.566406 83.128906 578.65625 86.101562 578.835938 100.679688 C 578.929688 105.988281 578.929688 111.300781 578.929688 116.609375 C 578.929688 126.328125 578.746094 131.730469 578.386719 140.640625 L 578.929688 141.269531 C 584.957031 141 587.386719 140.910156 593.957031 141 Z M 649.039062 140.460938 C 648.679688 132.359375 648.410156 126.960938 648.410156 115.171875 C 648.410156 91.410156 648.769531 81.601562 649.128906 69.71875 L 648.5 69.179688 L 633.648438 71.519531 L 633.199219 72.058594 C 633.738281 80.519531 633.828125 82.769531 633.738281 93.03125 C 626.988281 92.851562 618.527344 92.671875 611.6875 98.070312 C 605.390625 102.929688 602.777344 110.398438 602.777344 119.671875 C 602.777344 126.691406 604.667969 133.710938 609.980469 138.121094 C 613.9375 141.359375 618.800781 142.078125 621.769531 142.078125 C 628.160156 142.078125 631.488281 139.109375 633.648438 137.21875 L 633.46875 140.730469 L 633.917969 141.269531 C 640.128906 141 641.839844 141 648.589844 141 L 649.039062 140.460938 M 633.738281 103.828125 C 633.828125 115.800781 633.738281 118.140625 633.46875 129.03125 C 631.667969 130.109375 629.867188 131.191406 627.347656 131.191406 C 618.617188 131.191406 618.617188 120.03125 618.617188 118.230469 C 618.617188 111.300781 620.597656 103.558594 630.679688 103.558594 C 631.667969 103.558594 632.480469 103.648438 633.738281 103.828125 Z M 699.257812 127.679688 C 695.839844 129.480469 691.789062 131.550781 685.21875 131.550781 C 679.820312 131.550781 676.128906 129.839844 673.96875 126.601562 C 672.617188 124.710938 672.347656 122.910156 671.988281 121.109375 L 701.058594 120.570312 L 701.597656 119.941406 C 701.507812 115.53125 701.417969 111.03125 700.160156 106.53125 C 697.007812 95.910156 690.078125 93.75 687.019531 93.03125 C 684.769531 92.398438 682.699219 92.21875 680.628906 92.21875 C 666.5 92.21875 657.136719 101.488281 657.136719 117.058594 C 657.136719 121.289062 657.859375 125.699219 659.296875 128.851562 C 664.519531 141 676.757812 142.078125 683.238281 142.078125 C 690.707031 142.078125 693.949219 140.730469 698.71875 138.839844 L 699.257812 138.121094 L 699.886719 127.949219 L 699.257812 127.679688 M 671.988281 111.570312 C 672.257812 108.78125 672.886719 105 676.308594 102.839844 C 677.386719 102.121094 678.648438 101.851562 679.910156 101.851562 C 682.878906 101.851562 684.679688 103.378906 685.667969 105 C 686.929688 106.980469 687.019531 109.140625 687.019531 111.210938 Z M 735.890625 107.609375 L 738.410156 92.941406 L 737.871094 92.308594 C 737.242188 92.308594 736.609375 92.21875 735.980469 92.21875 C 732.289062 92.21875 728.152344 94.289062 725.269531 100.949219 L 725.539062 92.671875 L 724.820312 91.949219 C 718.160156 93.390625 716.449219 93.660156 709.878906 94.648438 L 709.339844 95.191406 C 709.878906 101.941406 710.152344 105.988281 710.152344 118.5 C 710.152344 125.878906 710.058594 133.261719 709.878906 140.730469 L 710.421875 141.269531 C 717.082031 141 718.519531 140.910156 725.71875 141 L 726.171875 140.371094 C 725.808594 133.078125 725.269531 122.910156 725.269531 116.699219 C 725.269531 112.648438 725.269531 106.710938 731.390625 106.710938 C 732.921875 106.710938 733.820312 107.25 735.082031 107.96875 Z M 787.730469 140.371094 C 787.28125 132.449219 787.28125 129.929688 787.101562 121.109375 L 787.101562 114.089844 C 787.011719 105.449219 786.921875 101.308594 784.671875 97.621094 C 781.878906 92.941406 776.75 92.21875 773.511719 92.21875 C 768.019531 92.21875 763.25 95.101562 759.109375 97.53125 L 759.289062 92.578125 L 758.390625 91.949219 C 751.460938 93.390625 749.929688 93.660156 743.179688 94.558594 L 742.640625 95.191406 C 743.359375 103.019531 743.902344 108.691406 743.902344 123.359375 C 743.902344 129.121094 743.808594 134.878906 743.71875 140.640625 L 744.261719 141.179688 C 750.742188 140.910156 752.089844 140.910156 759.289062 140.910156 L 759.832031 140.371094 C 759.289062 126.511719 759.199219 123 759.109375 106.890625 C 761 105.628906 763.160156 104.101562 766.039062 104.101562 C 770.992188 104.101562 771.441406 109.410156 771.710938 112.648438 C 771.890625 115.621094 771.980469 127.949219 771.980469 131.371094 C 771.980469 134.429688 771.890625 137.578125 771.890625 140.640625 L 772.429688 141.179688 C 778.371094 141 779.902344 140.910156 787.101562 140.910156 Z M 837.949219 127.679688 C 834.53125 129.480469 830.480469 131.550781 823.910156 131.550781 C 818.511719 131.550781 814.820312 129.839844 812.660156 126.601562 C 811.308594 124.710938 811.039062 122.910156 810.679688 121.109375 L 839.75 120.570312 L 840.289062 119.941406 C 840.199219 115.53125 840.109375 111.03125 838.851562 106.53125 C 835.699219 95.910156 828.769531 93.75 825.710938 93.03125 C 823.460938 92.398438 821.390625 92.21875 819.320312 92.21875 C 805.191406 92.21875 795.828125 101.488281 795.828125 117.058594 C 795.828125 121.289062 796.550781 125.699219 797.988281 128.851562 C 803.210938 141 815.449219 142.078125 821.929688 142.078125 C 829.398438 142.078125 832.640625 140.730469 837.410156 138.839844 L 837.949219 138.121094 L 838.578125 127.949219 L 837.949219 127.679688 M 810.679688 111.570312 C 810.949219 108.78125 811.578125 105 815 102.839844 C 816.078125 102.121094 817.339844 101.851562 818.601562 101.851562 C 821.570312 101.851562 823.371094 103.378906 824.359375 105 C 825.621094 106.980469 825.710938 109.140625 825.710938 111.210938 Z M 867.46875 109.949219 C 864.40625 108.871094 861.976562 107.878906 861.976562 105.359375 C 861.976562 104.28125 862.699219 101.308594 868.277344 101.308594 C 873.769531 101.308594 877.277344 103.648438 879.527344 105.089844 L 880.339844 104.820312 L 881.238281 95.011719 L 880.789062 94.46875 C 876.558594 93.300781 872.867188 92.21875 867.019531 92.21875 C 862.609375 92.21875 853.789062 92.578125 849.109375 99.328125 C 847.9375 100.949219 846.679688 103.648438 846.679688 107.25 C 846.679688 116.878906 854.148438 119.761719 858.378906 121.378906 L 861.796875 122.640625 C 864.226562 123.449219 868.1875 124.800781 868.1875 128.039062 C 868.1875 130.289062 866.117188 132.71875 861.078125 132.71875 C 858.558594 132.71875 854.867188 131.910156 851.539062 130.199219 C 850.007812 129.390625 849.289062 128.761719 847.9375 127.679688 L 847.128906 128.039062 C 846.949219 132.71875 846.859375 133.710938 846.496094 138.210938 L 846.949219 139.019531 C 851.359375 140.640625 855.136719 142.078125 861.707031 142.078125 C 868.546875 142.078125 882.046875 140.820312 883.667969 127.949219 C 883.757812 127.230469 883.757812 126.601562 883.757812 125.96875 C 883.757812 116.070312 876.828125 113.460938 871.878906 111.570312 Z M 910.582031 109.949219 C 907.519531 108.871094 905.089844 107.878906 905.089844 105.359375 C 905.089844 104.28125 905.8125 101.308594 911.390625 101.308594 C 916.882812 101.308594 920.390625 103.648438 922.640625 105.089844 L 923.453125 104.820312 L 924.351562 95.011719 L 923.902344 94.46875 C 919.671875 93.300781 915.980469 92.21875 910.132812 92.21875 C 905.722656 92.21875 896.902344 92.578125 892.222656 99.328125 C 891.050781 100.949219 889.792969 103.648438 889.792969 107.25 C 889.792969 116.878906 897.261719 119.761719 901.492188 121.378906 L 904.910156 122.640625 C 907.339844 123.449219 911.300781 124.800781 911.300781 128.039062 C 911.300781 130.289062 909.230469 132.71875 904.191406 132.71875 C 901.671875 132.71875 897.980469 131.910156 894.652344 130.199219 C 893.121094 129.390625 892.402344 128.761719 891.050781 127.679688 L 890.242188 128.039062 C 890.0625 132.71875 889.972656 133.710938 889.609375 138.210938 L 890.0625 139.019531 C 894.472656 140.640625 898.25 142.078125 904.820312 142.078125 C 911.660156 142.078125 925.160156 140.820312 926.78125 127.949219 C 926.871094 127.230469 926.871094 126.601562 926.871094 125.96875 C 926.871094 116.070312 919.941406 113.460938 914.992188 111.570312 Z M 929.390625 141 "/>
<path fill-rule="nonzero" fill="rgb(34.901961%, 14.901961%, 14.901961%)" fill-opacity="1" d="M 303.890625 222.300781 C 296.332031 219.148438 292.371094 217.53125 292.371094 213.480469 C 292.371094 210.691406 294.980469 207.179688 300.921875 207.179688 C 307.761719 207.179688 311.808594 209.96875 315.140625 212.21875 L 315.949219 211.859375 L 316.671875 200.070312 L 316.21875 199.441406 C 312.351562 197.820312 308.300781 196.109375 299.570312 196.109375 C 282.652344 196.109375 276.800781 205.648438 276.800781 215.28125 C 276.800781 226.171875 285.261719 230.128906 290.300781 232.558594 L 293.269531 233.910156 C 299.480469 236.519531 304.25 238.769531 304.25 243.539062 C 304.25 246.960938 301.28125 251.011719 293.449219 251.011719 C 285.261719 251.011719 280.671875 247.410156 278.058594 245.339844 L 277.160156 245.609375 L 276.53125 258.300781 L 277.070312 259.019531 C 278.058594 259.378906 279.050781 259.828125 280.039062 260.101562 C 282.109375 260.820312 287.421875 262.351562 294.171875 262.351562 C 296.871094 262.351562 303.710938 262.078125 309.109375 259.558594 C 316.671875 255.871094 319.910156 249.03125 319.910156 241.378906 C 319.910156 236.25 317.929688 230.761719 313.160156 227.070312 C 310.730469 225.269531 308.390625 224.191406 306.230469 223.199219 Z M 353.660156 250.648438 C 352.128906 251.101562 351.046875 251.460938 349.519531 251.460938 C 344.929688 251.460938 344.570312 248.578125 344.386719 247.230469 C 344.117188 244.890625 344.117188 239.941406 344.207031 236.339844 L 344.386719 223.648438 L 352.488281 224.011719 L 353.027344 223.46875 L 353.929688 213.839844 L 353.386719 213.300781 L 344.386719 213.300781 L 344.660156 198.179688 L 344.027344 197.640625 C 337.910156 199.441406 336.289062 199.890625 329.898438 201.511719 L 329.539062 202.140625 L 329.628906 213.390625 L 324.769531 213.210938 L 324.230469 213.660156 L 323.417969 223.289062 L 323.957031 223.828125 L 329.628906 223.648438 L 329.359375 237.960938 C 329.269531 240.210938 329.179688 242.460938 329.179688 244.800781 C 329.179688 253.078125 329.359375 261.988281 343.398438 261.988281 C 346.910156 261.988281 349.699219 261.449219 352.847656 260.910156 L 353.480469 260.28125 L 354.378906 251.011719 Z M 400.371094 234.179688 C 400.460938 226.078125 400.460938 222.570312 398.121094 218.789062 C 396.320312 215.910156 392.722656 212.308594 381.203125 212.308594 C 373.460938 212.308594 368.691406 213.75 363.5625 215.28125 L 363.023438 216 L 362.570312 225.808594 L 363.292969 226.171875 C 366.441406 224.910156 372.292969 222.570312 378.320312 222.570312 C 381.652344 222.570312 383 223.109375 384.171875 224.28125 C 385.070312 225.179688 385.34375 226.800781 385.34375 228.148438 C 374.542969 229.589844 369.5 230.578125 364.101562 233.910156 C 359.0625 237.058594 357.351562 242.191406 357.351562 246.238281 C 357.351562 255.871094 364.28125 262.078125 373.101562 262.078125 C 379.851562 262.078125 383.722656 258.839844 385.613281 257.308594 L 385.613281 260.640625 L 386.152344 261.269531 C 392.632812 261 394.613281 260.910156 400.460938 261 L 400.910156 260.371094 C 400.28125 251.550781 400.28125 249.300781 400.28125 240.839844 L 400.371094 234.179688 M 385.523438 248.488281 C 383.632812 249.570312 381.203125 250.828125 378.230469 250.828125 C 374.992188 250.828125 372.292969 249.121094 372.292969 245.339844 C 372.292969 239.398438 379.402344 238.410156 385.523438 237.601562 Z M 436.101562 250.648438 C 434.570312 251.101562 433.488281 251.460938 431.960938 251.460938 C 427.371094 251.460938 427.011719 248.578125 426.828125 247.230469 C 426.558594 244.890625 426.558594 239.941406 426.648438 236.339844 L 426.828125 223.648438 L 434.929688 224.011719 L 435.46875 223.46875 L 436.371094 213.839844 L 435.828125 213.300781 L 426.828125 213.300781 L 427.101562 198.179688 L 426.46875 197.640625 C 420.351562 199.441406 418.730469 199.890625 412.339844 201.511719 L 411.980469 202.140625 L 412.070312 213.390625 L 407.210938 213.210938 L 406.671875 213.660156 L 405.859375 223.289062 L 406.398438 223.828125 L 412.070312 223.648438 L 411.800781 237.960938 C 411.710938 240.210938 411.621094 242.460938 411.621094 244.800781 C 411.621094 253.078125 411.800781 261.988281 425.839844 261.988281 C 429.351562 261.988281 432.140625 261.449219 435.289062 260.910156 L 435.921875 260.28125 L 436.820312 251.011719 Z M 482.71875 247.679688 C 479.300781 249.480469 475.25 251.550781 468.679688 251.550781 C 463.28125 251.550781 459.589844 249.839844 457.429688 246.601562 C 456.078125 244.710938 455.808594 242.910156 455.449219 241.109375 L 484.519531 240.570312 L 485.058594 239.941406 C 484.96875 235.53125 484.878906 231.03125 483.621094 226.53125 C 480.46875 215.910156 473.539062 213.75 470.480469 213.03125 C 468.230469 212.398438 466.160156 212.21875 464.089844 212.21875 C 449.960938 212.21875 440.597656 221.488281 440.597656 237.058594 C 440.597656 241.289062 441.320312 245.699219 442.757812 248.851562 C 447.980469 261 460.21875 262.078125 466.699219 262.078125 C 474.167969 262.078125 477.410156 260.730469 482.179688 258.839844 L 482.71875 258.121094 L 483.347656 247.949219 L 482.71875 247.679688 M 455.449219 231.570312 C 455.71875 228.78125 456.347656 225 459.769531 222.839844 C 460.847656 222.121094 462.109375 221.851562 463.371094 221.851562 C 466.339844 221.851562 468.140625 223.378906 469.128906 225 C 470.390625 226.980469 470.480469 229.140625 470.480469 231.210938 Z M 531.679688 197.28125 L 520.25 197.460938 L 519.707031 198 C 520.070312 209.699219 520.339844 217.53125 520.339844 227.878906 C 520.339844 238.859375 520.070312 249.75 519.796875 260.730469 L 520.339844 261.269531 C 527 261 528.4375 260.910156 535.640625 261 L 536.089844 260.460938 C 535.730469 250.648438 535.730469 248.398438 535.730469 239.21875 C 545.808594 239.308594 556.609375 239.308594 563.089844 231.390625 C 565.609375 228.328125 567.769531 223.199219 567.769531 216.898438 C 567.769531 213.03125 566.867188 204.480469 559.398438 200.25 C 554 197.101562 546.347656 197.101562 539.597656 197.101562 L 531.679688 197.28125 M 535.730469 208.171875 C 537.707031 208.078125 539.597656 208.078125 541.578125 208.078125 C 549.5 208.261719 551.660156 212.308594 551.660156 217.53125 C 551.660156 218.789062 551.660156 224.011719 546.890625 226.621094 C 544.457031 227.96875 541.128906 228.148438 535.730469 228.148438 Z M 614.03125 234.179688 C 614.121094 226.078125 614.121094 222.570312 611.78125 218.789062 C 609.980469 215.910156 606.382812 212.308594 594.863281 212.308594 C 587.121094 212.308594 582.351562 213.75 577.222656 215.28125 L 576.683594 216 L 576.230469 225.808594 L 576.953125 226.171875 C 580.101562 224.910156 585.953125 222.570312 591.980469 222.570312 C 595.3125 222.570312 596.660156 223.109375 597.832031 224.28125 C 598.730469 225.179688 599.003906 226.800781 599.003906 228.148438 C 588.203125 229.589844 583.160156 230.578125 577.761719 233.910156 C 572.722656 237.058594 571.011719 242.191406 571.011719 246.238281 C 571.011719 255.871094 577.941406 262.078125 586.761719 262.078125 C 593.511719 262.078125 597.382812 258.839844 599.273438 257.308594 L 599.273438 260.640625 L 599.8125 261.269531 C 606.292969 261 608.273438 260.910156 614.121094 261 L 614.570312 260.371094 C 613.941406 251.550781 613.941406 249.300781 613.941406 240.839844 L 614.03125 234.179688 M 599.183594 248.488281 C 597.292969 249.570312 594.863281 250.828125 591.890625 250.828125 C 588.652344 250.828125 585.953125 249.121094 585.953125 245.339844 C 585.953125 239.398438 593.0625 238.410156 599.183594 237.601562 Z M 650.570312 227.609375 L 653.089844 212.941406 L 652.550781 212.308594 C 651.921875 212.308594 651.289062 212.21875 650.660156 212.21875 C 646.96875 212.21875 642.832031 214.289062 639.949219 220.949219 L 640.21875 212.671875 L 639.5 211.949219 C 632.839844 213.390625 631.128906 213.660156 624.558594 214.648438 L 624.019531 215.191406 C 624.558594 221.941406 624.832031 225.988281 624.832031 238.5 C 624.832031 245.878906 624.738281 253.261719 624.558594 260.730469 L 625.101562 261.269531 C 631.761719 261 633.199219 260.910156 640.398438 261 L 640.851562 260.371094 C 640.488281 253.078125 639.949219 242.910156 639.949219 236.699219 C 639.949219 232.648438 639.949219 226.710938 646.070312 226.710938 C 647.601562 226.710938 648.5 227.25 649.761719 227.96875 Z M 704.570312 259.828125 C 696.109375 245.519531 695.210938 243.898438 688.371094 231.570312 C 694.582031 223.109375 695.210938 222.210938 701.601562 214.019531 L 701.148438 213.121094 L 686.480469 213.300781 L 685.582031 213.929688 C 678.558594 226.078125 677.660156 227.519531 673.519531 233.730469 L 673.519531 223.738281 C 673.609375 206.910156 673.699219 203.308594 674.148438 189.71875 L 673.429688 189.179688 L 657.769531 191.519531 L 657.230469 192.148438 C 657.859375 200.878906 658.128906 205.109375 658.308594 216.898438 C 658.488281 231.480469 658.488281 246.058594 658.398438 260.640625 L 659.03125 261.269531 C 665.058594 261 666.769531 261 673.609375 261 L 674.148438 260.371094 L 673.609375 245.160156 L 673.519531 234.808594 C 681.351562 249.210938 682.339844 251.191406 686.929688 260.730469 L 687.738281 261.269531 L 703.941406 260.640625 Z M 703.492188 261 "/>
</svg>
