<?xml version="1.0" encoding="UTF-8"?>
<svg xmlns="http://www.w3.org/2000/svg" xmlns:xlink="http://www.w3.org/1999/xlink" width="975" height="1300" viewBox="0 0 975 1300">
<path fill-rule="nonzero" fill="rgb(98.823529%, 78.823529%, 9.019608%)" fill-opacity="1" d="M 50 50 L 925 50 L 925 290 L 50 290 Z M 50 50 "/>
<path fill-rule="nonzero" fill="rgb(34.901961%, 14.901961%, 14.901961%)" fill-opacity="1" d="M 97.429688 116.25 C 103.460938 126.511719 104.8125 129.210938 110.570312 141 L 111.292969 141.449219 C 114.082031 141.269531 116.78125 141.089844 119.570312 141 C 122.363281 140.910156 125.242188 140.820312 128.03125 140.820312 L 128.570312 139.738281 C 125.152344 135.328125 124.160156 133.980469 117.679688 123.628906 C 114.800781 119.039062 113.363281 116.609375 111.113281 112.648438 C 115.160156 110.851562 123.351562 107.070312 123.351562 95.640625 C 123.351562 91.679688 122.269531 83.488281 114.890625 79.621094 C 110.210938 77.191406 105.351562 77.101562 94.820312 77.28125 L 88.519531 77.371094 L 77.542969 77.371094 L 77.089844 77.910156 C 77.453125 87 77.8125 96.359375 77.8125 120.839844 C 77.8125 129.210938 77.722656 133.261719 77.453125 140.730469 L 77.992188 141.269531 C 84.5625 141 86 140.910156 93.382812 141 L 93.921875 140.460938 C 93.203125 130.019531 93.113281 127.140625 93.019531 116.429688 L 97.429688 116.25 M 93.203125 88.261719 C 94.460938 88.171875 95.722656 88.171875 96.980469 88.171875 C 100.492188 88.171875 107.421875 88.171875 107.421875 96.089844 C 107.421875 98.609375 106.792969 101.941406 103.460938 104.011719 C 100.941406 105.539062 97.703125 105.71875 93.203125 105.808594 Z M 176.542969 92.851562 L 161.871094 93.570312 L 161.242188 94.109375 C 161.871094 104.28125 161.871094 118.679688 161.871094 120.121094 C 161.871094 122.730469 161.871094 124.171875 161.78125 127.769531 C 159.351562 129.390625 157.460938 130.738281 155.03125 130.738281 C 148.550781 130.738281 148.550781 123.898438 148.550781 118.589844 C 148.550781 116.339844 148.550781 114 148.640625 111.75 L 148.820312 93.570312 L 148.191406 92.851562 L 133.339844 93.570312 L 132.710938 94.109375 C 133.25 101.671875 133.339844 104.191406 133.339844 113.28125 L 133.339844 119.578125 C 133.25 129.390625 133.703125 133.53125 136.941406 137.308594 C 139.910156 140.640625 144.230469 142.078125 148.730469 142.078125 C 155.121094 142.078125 158.8125 139.199219 162.050781 136.679688 L 161.960938 140.730469 L 162.589844 141.269531 C 169.160156 141 171.140625 141 176.992188 141 L 177.53125 140.460938 C 177.082031 134.070312 176.902344 130.648438 176.902344 118.949219 C 176.902344 110.488281 176.992188 102.03125 177.171875 93.570312 Z M 206.601562 109.949219 C 203.539062 108.871094 201.109375 107.878906 201.109375 105.359375 C 201.109375 104.28125 201.832031 101.308594 207.410156 101.308594 C 212.902344 101.308594 216.410156 103.648438 218.660156 105.089844 L 219.472656 104.820312 L 220.371094 95.011719 L 219.921875 94.46875 C 215.691406 93.300781 212 92.21875 206.152344 92.21875 C 201.742188 92.21875 192.921875 92.578125 188.242188 99.328125 C 187.070312 100.949219 185.8125 103.648438 185.8125 107.25 C 185.8125 116.878906 193.28125 119.761719 197.511719 121.378906 L 200.929688 122.640625 C 203.359375 123.449219 207.320312 124.800781 207.320312 128.039062 C 207.320312 130.289062 205.25 132.71875 200.210938 132.71875 C 197.691406 132.71875 194 131.910156 190.671875 130.199219 C 189.140625 129.390625 188.421875 128.761719 187.070312 127.679688 L 186.261719 128.039062 C 186.082031 132.71875 185.992188 133.710938 185.628906 138.210938 L 186.082031 139.019531 C 190.492188 140.640625 194.269531 142.078125 200.839844 142.078125 C 207.679688 142.078125 221.179688 140.820312 222.800781 127.949219 C 222.890625 127.230469 222.890625 126.601562 222.890625 125.96875 C 222.890625 116.070312 215.960938 113.460938 211.011719 111.570312 Z M 249.710938 109.949219 C 246.648438 108.871094 244.21875 107.878906 244.21875 105.359375 C 244.21875 104.28125 244.941406 101.308594 250.519531 101.308594 C 256.011719 101.308594 259.519531 103.648438 261.769531 105.089844 L 262.582031 104.820312 L 263.480469 95.011719 L 263.03125 94.46875 C 258.800781 93.300781 255.109375 92.21875 249.261719 92.21875 C 244.851562 92.21875 236.03125 92.578125 231.351562 99.328125 C 230.179688 100.949219 228.921875 103.648438 228.921875 107.25 C 228.921875 116.878906 236.390625 119.761719 240.621094 121.378906 L 244.039062 122.640625 C 246.46875 123.449219 250.429688 124.800781 250.429688 128.039062 C 250.429688 130.289062 248.359375 132.71875 243.320312 132.71875 C 240.800781 132.71875 237.109375 131.910156 233.78125 130.199219 C 232.25 129.390625 231.53125 128.761719 230.179688 127.679688 L 229.371094 128.039062 C 229.191406 132.71875 229.101562 133.710938 228.738281 138.210938 L 229.191406 139.019531 C 233.601562 140.640625 237.378906 142.078125 243.949219 142.078125 C 250.789062 142.078125 264.289062 140.820312 265.910156 127.949219 C 266 127.230469 266 126.601562 266 125.96875 C 266 116.070312 259.070312 113.460938 254.121094 111.570312 Z M 290.210938 140.371094 C 289.757812 133.441406 289.398438 128.128906 289.398438 115.710938 C 289.398438 108.058594 289.578125 100.320312 289.667969 92.671875 L 289.039062 91.949219 L 273.558594 94.648438 L 273.019531 95.191406 C 273.738281 102.03125 274.007812 105.179688 274.007812 117.960938 C 274.007812 127.769531 273.738281 133.261719 273.46875 140.640625 L 274.007812 141.269531 C 280.488281 141 282.289062 140.910156 289.578125 141 L 290.210938 140.371094 M 288.769531 83.308594 L 289.039062 71.070312 L 288.5 70.53125 L 273.828125 72.328125 L 273.289062 72.960938 C 273.46875 76.199219 273.558594 78.089844 273.558594 80.25 C 273.558594 81.960938 273.558594 83.761719 273.46875 85.46875 L 274.097656 86.011719 C 280.21875 84.929688 281.929688 84.75 288.320312 83.941406 Z M 340.25 114.179688 C 340.339844 106.078125 340.339844 102.570312 338 98.789062 C 336.199219 95.910156 332.601562 92.308594 321.082031 92.308594 C 313.339844 92.308594 308.570312 93.75 303.441406 95.28125 L 302.902344 96 L 302.449219 105.808594 L 303.171875 106.171875 C 306.320312 104.910156 312.171875 102.570312 318.199219 102.570312 C 321.53125 102.570312 322.878906 103.109375 324.050781 104.28125 C 324.949219 105.179688 325.222656 106.800781 325.222656 108.148438 C 314.421875 109.589844 309.378906 110.578125 303.980469 113.910156 C 298.941406 117.058594 297.230469 122.191406 297.230469 126.238281 C 297.230469 135.871094 304.160156 142.078125 312.980469 142.078125 C 319.730469 142.078125 323.601562 138.839844 325.492188 137.308594 L 325.492188 140.640625 L 326.03125 141.269531 C 332.511719 141 334.492188 140.910156 340.339844 141 L 340.789062 140.371094 C 340.160156 131.550781 340.160156 129.300781 340.160156 120.839844 L 340.25 114.179688 M 325.402344 128.488281 C 323.511719 129.570312 321.082031 130.828125 318.109375 130.828125 C 314.871094 130.828125 312.171875 129.121094 312.171875 125.339844 C 312.171875 119.398438 319.28125 118.410156 325.402344 117.601562 Z M 394.882812 140.371094 C 394.433594 132.449219 394.433594 129.929688 394.253906 121.109375 L 394.253906 114.089844 C 394.164062 105.449219 394.074219 101.308594 391.824219 97.621094 C 389.03125 92.941406 383.902344 92.21875 380.664062 92.21875 C 375.171875 92.21875 370.402344 95.101562 366.261719 97.53125 L 366.441406 92.578125 L 365.542969 91.949219 C 358.613281 93.390625 357.082031 93.660156 350.332031 94.558594 L 349.792969 95.191406 C 350.511719 103.019531 351.054688 108.691406 351.054688 123.359375 C 351.054688 129.121094 350.960938 134.878906 350.871094 140.640625 L 351.414062 141.179688 C 357.894531 140.910156 359.242188 140.910156 366.441406 140.910156 L 366.984375 140.371094 C 366.441406 126.511719 366.351562 123 366.261719 106.890625 C 368.152344 105.628906 370.3125 104.101562 373.191406 104.101562 C 378.144531 104.101562 378.59375 109.410156 378.863281 112.648438 C 379.042969 115.621094 379.132812 127.949219 379.132812 131.371094 C 379.132812 134.429688 379.042969 137.578125 379.042969 140.640625 L 379.582031 141.179688 C 385.523438 141 387.054688 140.910156 394.253906 140.910156 Z M 484.96875 123.179688 C 484.96875 118.679688 485.058594 114.179688 485.148438 109.589844 L 484.699219 109.050781 L 469.398438 109.320312 L 468.949219 109.859375 C 469.757812 118.679688 469.847656 120.839844 469.667969 129.03125 C 467.238281 129.570312 465.441406 130.019531 462.917969 130.019531 C 448.96875 130.019531 446.449219 116.699219 446.449219 109.949219 C 446.449219 95.730469 454.097656 87.988281 465.441406 87.988281 C 472.28125 87.988281 476.328125 90.691406 480.558594 93.480469 L 481.28125 93.210938 C 481.730469 87.628906 481.910156 86.191406 482.628906 80.789062 L 482.179688 80.25 C 478.398438 78.628906 472.371094 76.109375 463.007812 76.109375 C 452.75 76.109375 441.5 78.988281 434.390625 91.050781 C 431.148438 96.71875 429.800781 104.011719 429.800781 110.039062 C 429.800781 118.5 432.050781 125.609375 436.097656 130.828125 C 441.410156 137.671875 447.980469 139.828125 451.488281 140.820312 C 454.097656 141.539062 457.96875 142.351562 463.550781 142.351562 C 472.820312 142.351562 478.488281 140.460938 484.789062 138.390625 L 485.238281 137.671875 C 485.148438 133.53125 484.96875 129.390625 484.96875 125.25 Z M 538.34375 92.851562 L 523.671875 93.570312 L 523.042969 94.109375 C 523.671875 104.28125 523.671875 118.679688 523.671875 120.121094 C 523.671875 122.730469 523.671875 124.171875 523.582031 127.769531 C 521.152344 129.390625 519.261719 130.738281 516.832031 130.738281 C 510.351562 130.738281 510.351562 123.898438 510.351562 118.589844 C 510.351562 116.339844 510.351562 114 510.441406 111.75 L 510.621094 93.570312 L 509.992188 92.851562 L 495.140625 93.570312 L 494.511719 94.109375 C 495.050781 101.671875 495.140625 104.191406 495.140625 113.28125 L 495.140625 119.578125 C 495.050781 129.390625 495.503906 133.53125 498.742188 137.308594 C 501.710938 140.640625 506.03125 142.078125 510.53125 142.078125 C 516.921875 142.078125 520.613281 139.199219 523.851562 136.679688 L 523.761719 140.730469 L 524.390625 141.269531 C 530.960938 141 532.941406 141 538.792969 141 L 539.332031 140.460938 C 538.882812 134.070312 538.703125 130.648438 538.703125 118.949219 C 538.703125 110.488281 538.792969 102.03125 538.972656 93.570312 Z M 565.339844 140.371094 C 564.890625 130.019531 564.441406 120.570312 564.441406 92.128906 C 564.441406 83.578125 564.53125 79.53125 564.890625 69.808594 L 564.261719 69.179688 L 548.871094 71.609375 L 548.511719 72.148438 C 549.410156 83.128906 549.5 86.101562 549.679688 100.679688 C 549.773438 105.988281 549.773438 111.300781 549.773438 116.609375 C 549.773438 126.328125 549.589844 131.730469 549.230469 140.640625 L 549.773438 141.269531 C 555.800781 141 558.230469 140.910156 564.800781 141 Z M 610.972656 128.039062 C 608.542969 129.480469 606.203125 130.921875 601.613281 130.921875 C 591.441406 130.921875 589.371094 122.460938 589.371094 117.058594 C 589.371094 110.488281 592.253906 102.929688 600.984375 102.929688 C 604.941406 102.929688 607.101562 104.371094 609.804688 106.171875 L 610.703125 105.898438 C 611.0625 101.128906 611.152344 99.871094 611.871094 95.101562 L 611.421875 94.558594 C 607.460938 93.300781 604.042969 92.21875 598.824219 92.21875 C 577.671875 92.21875 573.53125 108.238281 573.53125 117.421875 C 573.53125 127.769531 578.933594 141.808594 599.183594 141.808594 C 603.953125 141.808594 607.011719 140.910156 610.792969 139.828125 L 611.332031 139.289062 L 611.691406 128.488281 Z M 662.992188 140.371094 C 662.632812 132.988281 662.542969 130.46875 662.363281 121.109375 L 662.363281 114.359375 C 662.273438 105.808594 662.183594 100.859375 659.570312 97.078125 C 656.960938 93.390625 653.183594 92.21875 649.222656 92.21875 C 642.652344 92.21875 637.523438 95.371094 633.921875 97.53125 L 634.191406 69.808594 L 633.652344 69.179688 L 618.261719 71.609375 L 617.8125 72.148438 C 618.621094 80.878906 618.800781 84.121094 618.980469 95.730469 C 619.164062 103.019531 619.253906 110.308594 619.253906 117.601562 C 619.253906 126.511719 619.070312 131.820312 618.890625 140.640625 L 619.34375 141.269531 C 626.003906 140.910156 627.351562 140.910156 634.640625 140.910156 L 635.183594 140.371094 C 634.550781 126.871094 634.460938 122.820312 634.371094 106.890625 C 636.082031 105.71875 638.242188 104.191406 641.300781 104.191406 C 646.253906 104.191406 646.613281 109.320312 646.972656 112.921875 C 647.152344 115.710938 647.242188 128.488281 647.242188 131.820312 C 647.242188 134.789062 647.152344 137.671875 647.152344 140.640625 L 647.601562 141.269531 C 654.082031 140.910156 655.523438 140.910156 662.453125 140.910156 Z M 725.542969 102.300781 C 717.984375 99.148438 714.023438 97.53125 714.023438 93.480469 C 714.023438 90.691406 716.632812 87.179688 722.574219 87.179688 C 729.414062 87.179688 733.460938 89.96875 736.792969 92.21875 L 737.601562 91.859375 L 738.324219 80.070312 L 737.871094 79.441406 C 734.003906 77.820312 729.953125 76.109375 721.222656 76.109375 C 704.304688 76.109375 698.453125 85.648438 698.453125 95.28125 C 698.453125 106.171875 706.914062 110.128906 711.953125 112.558594 L 714.921875 113.910156 C 721.132812 116.519531 725.902344 118.769531 725.902344 123.539062 C 725.902344 126.960938 722.933594 131.011719 715.101562 131.011719 C 706.914062 131.011719 702.324219 127.410156 699.710938 125.339844 L 698.8125 125.609375 L 698.183594 138.300781 L 698.722656 139.019531 C 699.710938 139.378906 700.703125 139.828125 701.691406 140.101562 C 703.761719 140.820312 709.074219 142.351562 715.824219 142.351562 C 718.523438 142.351562 725.363281 142.078125 730.761719 139.558594 C 738.324219 135.871094 741.5625 129.03125 741.5625 121.378906 C 741.5625 116.25 739.582031 110.761719 734.8125 107.070312 C 732.382812 105.269531 730.042969 104.191406 727.882812 103.199219 Z M 775.3125 130.648438 C 773.78125 131.101562 772.699219 131.460938 771.171875 131.460938 C 766.582031 131.460938 766.222656 128.578125 766.039062 127.230469 C 765.769531 124.890625 765.769531 119.941406 765.859375 116.339844 L 766.039062 103.648438 L 774.140625 104.011719 L 774.679688 103.46875 L 775.582031 93.839844 L 775.039062 93.300781 L 766.039062 93.300781 L 766.3125 78.179688 L 765.679688 77.640625 C 759.5625 79.441406 757.941406 79.890625 751.550781 81.511719 L 751.191406 82.140625 L 751.28125 93.390625 L 746.421875 93.210938 L 745.882812 93.660156 L 745.070312 103.289062 L 745.609375 103.828125 L 751.28125 103.648438 L 751.011719 117.960938 C 750.921875 120.210938 750.832031 122.460938 750.832031 124.800781 C 750.832031 133.078125 751.011719 141.988281 765.050781 141.988281 C 768.5625 141.988281 771.351562 141.449219 774.5 140.910156 L 775.132812 140.28125 L 776.03125 131.011719 Z M 822.019531 114.179688 C 822.109375 106.078125 822.109375 102.570312 819.769531 98.789062 C 817.96875 95.910156 814.371094 92.308594 802.851562 92.308594 C 795.109375 92.308594 790.339844 93.75 785.210938 95.28125 L 784.671875 96 L 784.21875 105.808594 L 784.941406 106.171875 C 788.089844 104.910156 793.941406 102.570312 799.96875 102.570312 C 803.300781 102.570312 804.648438 103.109375 805.820312 104.28125 C 806.71875 105.179688 806.992188 106.800781 806.992188 108.148438 C 796.191406 109.589844 791.148438 110.578125 785.75 113.910156 C 780.710938 117.058594 779 122.191406 779 126.238281 C 779 135.871094 785.929688 142.078125 794.75 142.078125 C 801.5 142.078125 805.371094 138.839844 807.261719 137.308594 L 807.261719 140.640625 L 807.800781 141.269531 C 814.28125 141 816.261719 140.910156 822.109375 141 L 822.558594 140.371094 C 821.929688 131.550781 821.929688 129.300781 821.929688 120.839844 L 822.019531 114.179688 M 807.171875 128.488281 C 805.28125 129.570312 802.851562 130.828125 799.878906 130.828125 C 796.640625 130.828125 793.941406 129.121094 793.941406 125.339844 C 793.941406 119.398438 801.050781 118.410156 807.171875 117.601562 Z M 857.753906 130.648438 C 856.222656 131.101562 855.140625 131.460938 853.613281 131.460938 C 849.023438 131.460938 848.664062 128.578125 848.480469 127.230469 C 848.210938 124.890625 848.210938 119.941406 848.300781 116.339844 L 848.480469 103.648438 L 856.582031 104.011719 L 857.121094 103.46875 L 858.023438 93.839844 L 857.480469 93.300781 L 848.480469 93.300781 L 848.753906 78.179688 L 848.121094 77.640625 C 842.003906 79.441406 840.382812 79.890625 833.992188 81.511719 L 833.632812 82.140625 L 833.722656 93.390625 L 828.863281 93.210938 L 828.324219 93.660156 L 827.511719 103.289062 L 828.050781 103.828125 L 833.722656 103.648438 L 833.453125 117.960938 C 833.363281 120.210938 833.273438 122.460938 833.273438 124.800781 C 833.273438 133.078125 833.453125 141.988281 847.492188 141.988281 C 851.003906 141.988281 853.792969 141.449219 856.941406 140.910156 L 857.574219 140.28125 L 858.472656 131.011719 Z M 904.371094 127.679688 C 900.953125 129.480469 896.902344 131.550781 890.332031 131.550781 C 884.933594 131.550781 881.242188 129.839844 879.082031 126.601562 C 877.730469 124.710938 877.460938 122.910156 877.101562 121.109375 L 906.171875 120.570312 L 906.710938 119.941406 C 906.621094 115.53125 906.53125 111.03125 905.273438 106.53125 C 902.121094 95.910156 895.191406 93.75 892.132812 93.03125 C 889.882812 92.398438 887.8125 92.21875 885.742188 92.21875 C 871.613281 92.21875 862.25 101.488281 862.25 117.058594 C 862.25 121.289062 862.972656 125.699219 864.410156 128.851562 C 869.632812 141 881.871094 142.078125 888.351562 142.078125 C 895.820312 142.078125 899.0625 140.730469 903.832031 138.839844 L 904.371094 138.121094 L 905 127.949219 L 904.371094 127.679688 M 877.101562 111.570312 C 877.371094 108.78125 878 105 881.421875 102.839844 C 882.5 102.121094 883.761719 101.851562 885.023438 101.851562 C 887.992188 101.851562 889.792969 103.378906 890.78125 105 C 892.042969 106.980469 892.132812 109.140625 892.132812 111.210938 Z M 909.589844 141 "/>
<path fill-rule="nonzero" fill="rgb(34.901961%, 14.901961%, 14.901961%)" fill-opacity="1" d="M 411.53125 197.28125 L 400.101562 197.460938 L 399.558594 198 C 399.921875 209.699219 400.191406 217.53125 400.191406 227.878906 C 400.191406 238.859375 399.921875 249.75 399.648438 260.730469 L 400.191406 261.269531 C 406.851562 261 408.289062 260.910156 415.492188 261 L 415.941406 260.460938 C 415.582031 250.648438 415.582031 248.398438 415.582031 239.21875 C 425.660156 239.308594 436.460938 239.308594 442.941406 231.390625 C 445.460938 228.328125 447.621094 223.199219 447.621094 216.898438 C 447.621094 213.03125 446.71875 204.480469 439.25 200.25 C 433.851562 197.101562 426.199219 197.101562 419.449219 197.101562 L 411.53125 197.28125 M 415.582031 208.171875 C 417.558594 208.078125 419.449219 208.078125 421.429688 208.078125 C 429.351562 208.261719 431.511719 212.308594 431.511719 217.53125 C 431.511719 218.789062 431.511719 224.011719 426.742188 226.621094 C 424.308594 227.96875 420.980469 228.148438 415.582031 228.148438 Z M 493.878906 234.179688 C 493.96875 226.078125 493.96875 222.570312 491.628906 218.789062 C 489.828125 215.910156 486.230469 212.308594 474.710938 212.308594 C 466.96875 212.308594 462.199219 213.75 457.070312 215.28125 L 456.53125 216 L 456.078125 225.808594 L 456.800781 226.171875 C 459.949219 224.910156 465.800781 222.570312 471.828125 222.570312 C 475.160156 222.570312 476.507812 223.109375 477.679688 224.28125 C 478.578125 225.179688 478.851562 226.800781 478.851562 228.148438 C 468.050781 229.589844 463.007812 230.578125 457.609375 233.910156 C 452.570312 237.058594 450.859375 242.191406 450.859375 246.238281 C 450.859375 255.871094 457.789062 262.078125 466.609375 262.078125 C 473.359375 262.078125 477.230469 258.839844 479.121094 257.308594 L 479.121094 260.640625 L 479.660156 261.269531 C 486.140625 261 488.121094 260.910156 493.96875 261 L 494.417969 260.371094 C 493.789062 251.550781 493.789062 249.300781 493.789062 240.839844 L 493.878906 234.179688 M 479.03125 248.488281 C 477.140625 249.570312 474.710938 250.828125 471.738281 250.828125 C 468.5 250.828125 465.800781 249.121094 465.800781 245.339844 C 465.800781 239.398438 472.910156 238.410156 479.03125 237.601562 Z M 530.421875 227.609375 L 532.941406 212.941406 L 532.402344 212.308594 C 531.773438 212.308594 531.140625 212.21875 530.511719 212.21875 C 526.820312 212.21875 522.683594 214.289062 519.800781 220.949219 L 520.070312 212.671875 L 519.351562 211.949219 C 512.691406 213.390625 510.980469 213.660156 504.410156 214.648438 L 503.871094 215.191406 C 504.410156 221.941406 504.683594 225.988281 504.683594 238.5 C 504.683594 245.878906 504.589844 253.261719 504.410156 260.730469 L 504.953125 261.269531 C 511.613281 261 513.050781 260.910156 520.25 261 L 520.703125 260.371094 C 520.339844 253.078125 519.800781 242.910156 519.800781 236.699219 C 519.800781 232.648438 519.800781 226.710938 525.921875 226.710938 C 527.453125 226.710938 528.351562 227.25 529.613281 227.96875 Z M 584.421875 259.828125 C 575.960938 245.519531 575.0625 243.898438 568.222656 231.570312 C 574.433594 223.109375 575.0625 222.210938 581.453125 214.019531 L 581 213.121094 L 566.332031 213.300781 L 565.433594 213.929688 C 558.410156 226.078125 557.511719 227.519531 553.371094 233.730469 L 553.371094 223.738281 C 553.460938 206.910156 553.550781 203.308594 554 189.71875 L 553.28125 189.179688 L 537.621094 191.519531 L 537.082031 192.148438 C 537.710938 200.878906 537.980469 205.109375 538.160156 216.898438 C 538.339844 231.480469 538.339844 246.058594 538.25 260.640625 L 538.882812 261.269531 C 544.910156 261 546.621094 261 553.460938 261 L 554 260.371094 L 553.460938 245.160156 L 553.371094 234.808594 C 561.203125 249.210938 562.191406 251.191406 566.78125 260.730469 L 567.589844 261.269531 L 583.792969 260.640625 Z M 583.339844 261 "/>
</svg>
