<?xml version="1.0" encoding="UTF-8"?>
<svg xmlns="http://www.w3.org/2000/svg" xmlns:xlink="http://www.w3.org/1999/xlink" width="975" height="1300" viewBox="0 0 975 1300">
<path fill-rule="nonzero" fill="rgb(98.823529%, 78.823529%, 9.019608%)" fill-opacity="1" d="M 50 50 L 925 50 L 925 290 L 50 290 Z M 50 50 "/>
<path fill-rule="nonzero" fill="rgb(34.901961%, 14.901961%, 14.901961%)" fill-opacity="1" d="M 147.828125 140.371094 C 151.699219 124.078125 153.046875 119.398438 165.289062 77.640625 L 164.839844 77.191406 C 158.089844 77.460938 156.289062 77.460938 150.886719 77.460938 L 150.347656 78 C 148.636719 86.820312 148.1875 89.160156 145.667969 99.148438 L 142.789062 110.941406 L 138.917969 127.589844 L 134.148438 106.351562 L 132.257812 98.25 C 130.007812 88.980469 129.378906 85.921875 127.488281 77.191406 L 126.949219 76.738281 C 119.480469 77.28125 117.859375 77.371094 110.839844 77.371094 L 110.386719 77.910156 C 116.417969 98.699219 121.820312 117.78125 124.878906 129.660156 C 125.777344 133.351562 126.679688 137.039062 127.578125 140.730469 L 128.117188 141.269531 C 135.949219 141 137.929688 140.910156 147.289062 141 Z M 209.476562 114.179688 C 209.566406 106.078125 209.566406 102.570312 207.226562 98.789062 C 205.425781 95.910156 201.828125 92.308594 190.308594 92.308594 C 182.566406 92.308594 177.796875 93.75 172.667969 95.28125 L 172.128906 96 L 171.675781 105.808594 L 172.398438 106.171875 C 175.546875 104.910156 181.398438 102.570312 187.425781 102.570312 C 190.757812 102.570312 192.105469 103.109375 193.277344 104.28125 C 194.175781 105.179688 194.449219 106.800781 194.449219 108.148438 C 183.648438 109.589844 178.605469 110.578125 173.207031 113.910156 C 168.167969 117.058594 166.457031 122.191406 166.457031 126.238281 C 166.457031 135.871094 173.386719 142.078125 182.207031 142.078125 C 188.957031 142.078125 192.828125 138.839844 194.71875 137.308594 L 194.71875 140.640625 L 195.257812 141.269531 C 201.738281 141 203.71875 140.910156 209.566406 141 L 210.015625 140.371094 C 209.386719 131.550781 209.386719 129.300781 209.386719 120.839844 L 209.476562 114.179688 M 194.628906 128.488281 C 192.738281 129.570312 190.308594 130.828125 187.335938 130.828125 C 184.097656 130.828125 181.398438 129.121094 181.398438 125.339844 C 181.398438 119.398438 188.507812 118.410156 194.628906 117.601562 Z M 264.109375 140.371094 C 263.660156 132.449219 263.660156 129.929688 263.480469 121.109375 L 263.480469 114.089844 C 263.390625 105.449219 263.300781 101.308594 261.050781 97.621094 C 258.257812 92.941406 253.128906 92.21875 249.890625 92.21875 C 244.398438 92.21875 239.628906 95.101562 235.488281 97.53125 L 235.667969 92.578125 L 234.769531 91.949219 C 227.839844 93.390625 226.308594 93.660156 219.558594 94.558594 L 219.019531 95.191406 C 219.738281 103.019531 220.28125 108.691406 220.28125 123.359375 C 220.28125 129.121094 220.1875 134.878906 220.097656 140.640625 L 220.640625 141.179688 C 227.121094 140.910156 228.46875 140.910156 235.667969 140.910156 L 236.210938 140.371094 C 235.667969 126.511719 235.578125 123 235.488281 106.890625 C 237.378906 105.628906 239.539062 104.101562 242.417969 104.101562 C 247.371094 104.101562 247.820312 109.410156 248.089844 112.648438 C 248.269531 115.621094 248.359375 127.949219 248.359375 131.371094 C 248.359375 134.429688 248.269531 137.578125 248.269531 140.640625 L 248.808594 141.179688 C 254.75 141 256.28125 140.910156 263.480469 140.910156 Z M 312.171875 141 C 314.511719 141.089844 316.941406 141.089844 319.28125 141.089844 C 329.359375 141.089844 345.648438 140.730469 352.21875 124.710938 C 354.648438 118.769531 355.191406 111.570312 355.191406 107.519531 C 355.191406 99.058594 353.300781 92.578125 351.050781 88.53125 C 344.929688 77.371094 333.320312 77.011719 323.058594 77.011719 C 318.921875 77.011719 314.78125 77.191406 310.640625 77.371094 L 301.101562 77.460938 L 300.558594 78 C 300.921875 86.640625 301.28125 94.199219 301.28125 119.128906 C 301.28125 127.949219 301.191406 133.261719 301.011719 140.640625 L 301.550781 141 L 312.171875 141 M 317.121094 129.390625 C 316.941406 120.570312 316.851562 112.199219 316.851562 103.558594 C 316.851562 98.699219 316.851562 93.839844 316.941406 88.980469 C 318.738281 88.890625 320.628906 88.800781 322.429688 88.800781 C 327.921875 88.800781 338.628906 88.800781 338.628906 107.96875 C 338.628906 119.21875 334.398438 124.261719 332.238281 126.058594 C 328.191406 129.390625 321.980469 129.390625 317.121094 129.390625 Z M 404.417969 114.179688 C 404.507812 106.078125 404.507812 102.570312 402.167969 98.789062 C 400.367188 95.910156 396.769531 92.308594 385.25 92.308594 C 377.507812 92.308594 372.738281 93.75 367.609375 95.28125 L 367.070312 96 L 366.617188 105.808594 L 367.339844 106.171875 C 370.488281 104.910156 376.339844 102.570312 382.367188 102.570312 C 385.699219 102.570312 387.046875 103.109375 388.21875 104.28125 C 389.117188 105.179688 389.390625 106.800781 389.390625 108.148438 C 378.589844 109.589844 373.546875 110.578125 368.148438 113.910156 C 363.109375 117.058594 361.398438 122.191406 361.398438 126.238281 C 361.398438 135.871094 368.328125 142.078125 377.148438 142.078125 C 383.898438 142.078125 387.769531 138.839844 389.660156 137.308594 L 389.660156 140.640625 L 390.199219 141.269531 C 396.679688 141 398.660156 140.910156 404.507812 141 L 404.957031 140.371094 C 404.328125 131.550781 404.328125 129.300781 404.328125 120.839844 L 404.417969 114.179688 M 389.570312 128.488281 C 387.679688 129.570312 385.25 130.828125 382.277344 130.828125 C 379.039062 130.828125 376.339844 129.121094 376.339844 125.339844 C 376.339844 119.398438 383.449219 118.410156 389.570312 117.601562 Z M 485.238281 140.371094 C 484.785156 132 484.695312 129.660156 484.695312 119.488281 L 484.695312 112.738281 C 484.785156 106.710938 484.875 101.128906 482.265625 97.351562 C 478.757812 92.21875 472.546875 92.21875 471.105469 92.21875 C 463.726562 92.21875 458.777344 95.550781 455.175781 98.070312 C 453.917969 96 451.667969 92.21875 444.46875 92.21875 C 438.527344 92.21875 434.65625 94.921875 430.515625 97.800781 L 430.515625 92.761719 L 429.707031 91.949219 C 422.6875 93.300781 420.707031 93.660156 414.40625 94.558594 L 413.867188 95.191406 C 414.585938 102.390625 415.125 107.339844 415.125 125.160156 C 415.125 130.289062 415.035156 135.511719 415.035156 140.640625 L 415.488281 141.179688 C 421.246094 141 423.226562 140.910156 430.695312 140.910156 L 431.238281 140.371094 C 430.605469 126.511719 430.515625 122.371094 430.425781 106.710938 C 432.316406 105.359375 434.386719 104.191406 436.636719 104.191406 C 442.21875 104.191406 442.398438 110.578125 442.398438 118.320312 C 442.398438 131.371094 442.308594 133.351562 442.125 140.640625 L 442.667969 141.269531 C 449.507812 140.910156 451.398438 140.910156 457.605469 140.910156 L 458.148438 140.371094 C 457.605469 131.820312 457.515625 129.300781 457.425781 118.410156 L 457.425781 115.078125 L 457.335938 105.988281 C 458.867188 105 460.847656 103.738281 463.546875 103.738281 C 468.675781 103.738281 469.488281 108.601562 469.488281 116.339844 C 469.488281 118.050781 469.398438 119.761719 469.398438 121.46875 C 469.308594 124.53125 469.21875 137.941406 469.125 140.640625 L 469.667969 141.179688 C 476.417969 140.910156 478.398438 140.910156 484.695312 140.910156 Z M 565.878906 140.371094 C 565.425781 132 565.335938 129.660156 565.335938 119.488281 L 565.335938 112.738281 C 565.425781 106.710938 565.515625 101.128906 562.90625 97.351562 C 559.398438 92.21875 553.1875 92.21875 551.746094 92.21875 C 544.367188 92.21875 539.417969 95.550781 535.816406 98.070312 C 534.558594 96 532.308594 92.21875 525.109375 92.21875 C 519.167969 92.21875 515.296875 94.921875 511.15625 97.800781 L 511.15625 92.761719 L 510.347656 91.949219 C 503.328125 93.300781 501.347656 93.660156 495.046875 94.558594 L 494.507812 95.191406 C 495.226562 102.390625 495.765625 107.339844 495.765625 125.160156 C 495.765625 130.289062 495.675781 135.511719 495.675781 140.640625 L 496.128906 141.179688 C 501.886719 141 503.867188 140.910156 511.335938 140.910156 L 511.878906 140.371094 C 511.246094 126.511719 511.15625 122.371094 511.066406 106.710938 C 512.957031 105.359375 515.027344 104.191406 517.277344 104.191406 C 522.859375 104.191406 523.039062 110.578125 523.039062 118.320312 C 523.039062 131.371094 522.949219 133.351562 522.765625 140.640625 L 523.308594 141.269531 C 530.148438 140.910156 532.039062 140.910156 538.246094 140.910156 L 538.789062 140.371094 C 538.246094 131.820312 538.15625 129.300781 538.066406 118.410156 L 538.066406 115.078125 L 537.976562 105.988281 C 539.507812 105 541.488281 103.738281 544.1875 103.738281 C 549.316406 103.738281 550.128906 108.601562 550.128906 116.339844 C 550.128906 118.050781 550.039062 119.761719 550.039062 121.46875 C 549.949219 124.53125 549.859375 137.941406 549.765625 140.640625 L 550.308594 141.179688 C 557.058594 140.910156 559.039062 140.910156 565.335938 140.910156 Z M 616.1875 127.679688 C 612.769531 129.480469 608.71875 131.550781 602.148438 131.550781 C 596.75 131.550781 593.058594 129.839844 590.898438 126.601562 C 589.546875 124.710938 589.277344 122.910156 588.917969 121.109375 L 617.988281 120.570312 L 618.527344 119.941406 C 618.4375 115.53125 618.347656 111.03125 617.089844 106.53125 C 613.9375 95.910156 607.007812 93.75 603.949219 93.03125 C 601.699219 92.398438 599.628906 92.21875 597.558594 92.21875 C 583.429688 92.21875 574.066406 101.488281 574.066406 117.058594 C 574.066406 121.289062 574.789062 125.699219 576.226562 128.851562 C 581.449219 141 593.6875 142.078125 600.167969 142.078125 C 607.636719 142.078125 610.878906 140.730469 615.648438 138.839844 L 616.1875 138.121094 L 616.816406 127.949219 L 616.1875 127.679688 M 588.917969 111.570312 C 589.1875 108.78125 589.816406 105 593.238281 102.839844 C 594.316406 102.121094 595.578125 101.851562 596.839844 101.851562 C 599.808594 101.851562 601.609375 103.378906 602.597656 105 C 603.859375 106.980469 603.949219 109.140625 603.949219 111.210938 Z M 679.097656 102.300781 C 671.539062 99.148438 667.578125 97.53125 667.578125 93.480469 C 667.578125 90.691406 670.1875 87.179688 676.128906 87.179688 C 682.96875 87.179688 687.015625 89.96875 690.347656 92.21875 L 691.15625 91.859375 L 691.878906 80.070312 L 691.425781 79.441406 C 687.558594 77.820312 683.507812 76.109375 674.777344 76.109375 C 657.859375 76.109375 652.007812 85.648438 652.007812 95.28125 C 652.007812 106.171875 660.46875 110.128906 665.507812 112.558594 L 668.476562 113.910156 C 674.6875 116.519531 679.457031 118.769531 679.457031 123.539062 C 679.457031 126.960938 676.488281 131.011719 668.65625 131.011719 C 660.46875 131.011719 655.878906 127.410156 653.265625 125.339844 L 652.367188 125.609375 L 651.738281 138.300781 L 652.277344 139.019531 C 653.265625 139.378906 654.257812 139.828125 655.246094 140.101562 C 657.316406 140.820312 662.628906 142.351562 669.378906 142.351562 C 672.078125 142.351562 678.917969 142.078125 684.316406 139.558594 C 691.878906 135.871094 695.117188 129.03125 695.117188 121.378906 C 695.117188 116.25 693.136719 110.761719 688.367188 107.070312 C 685.9375 105.269531 683.597656 104.191406 681.4375 103.199219 Z M 728.871094 130.648438 C 727.339844 131.101562 726.257812 131.460938 724.730469 131.460938 C 720.140625 131.460938 719.78125 128.578125 719.597656 127.230469 C 719.328125 124.890625 719.328125 119.941406 719.417969 116.339844 L 719.597656 103.648438 L 727.699219 104.011719 L 728.238281 103.46875 L 729.140625 93.839844 L 728.597656 93.300781 L 719.597656 93.300781 L 719.871094 78.179688 L 719.238281 77.640625 C 713.121094 79.441406 711.5 79.890625 705.109375 81.511719 L 704.75 82.140625 L 704.839844 93.390625 L 699.980469 93.210938 L 699.441406 93.660156 L 698.628906 103.289062 L 699.167969 103.828125 L 704.839844 103.648438 L 704.570312 117.960938 C 704.480469 120.210938 704.390625 122.460938 704.390625 124.800781 C 704.390625 133.078125 704.570312 141.988281 718.609375 141.988281 C 722.121094 141.988281 724.910156 141.449219 728.058594 140.910156 L 728.691406 140.28125 L 729.589844 131.011719 Z M 775.578125 114.179688 C 775.667969 106.078125 775.667969 102.570312 773.328125 98.789062 C 771.527344 95.910156 767.929688 92.308594 756.410156 92.308594 C 748.667969 92.308594 743.898438 93.75 738.769531 95.28125 L 738.230469 96 L 737.777344 105.808594 L 738.5 106.171875 C 741.648438 104.910156 747.5 102.570312 753.527344 102.570312 C 756.859375 102.570312 758.207031 103.109375 759.378906 104.28125 C 760.277344 105.179688 760.550781 106.800781 760.550781 108.148438 C 749.75 109.589844 744.707031 110.578125 739.308594 113.910156 C 734.269531 117.058594 732.558594 122.191406 732.558594 126.238281 C 732.558594 135.871094 739.488281 142.078125 748.308594 142.078125 C 755.058594 142.078125 758.929688 138.839844 760.820312 137.308594 L 760.820312 140.640625 L 761.359375 141.269531 C 767.839844 141 769.820312 140.910156 775.667969 141 L 776.117188 140.371094 C 775.488281 131.550781 775.488281 129.300781 775.488281 120.839844 L 775.578125 114.179688 M 760.730469 128.488281 C 758.839844 129.570312 756.410156 130.828125 753.4375 130.828125 C 750.199219 130.828125 747.5 129.121094 747.5 125.339844 C 747.5 119.398438 754.609375 118.410156 760.730469 117.601562 Z M 811.308594 130.648438 C 809.777344 131.101562 808.695312 131.460938 807.167969 131.460938 C 802.578125 131.460938 802.21875 128.578125 802.035156 127.230469 C 801.765625 124.890625 801.765625 119.941406 801.855469 116.339844 L 802.035156 103.648438 L 810.136719 104.011719 L 810.675781 103.46875 L 811.578125 93.839844 L 811.035156 93.300781 L 802.035156 93.300781 L 802.308594 78.179688 L 801.675781 77.640625 C 795.558594 79.441406 793.9375 79.890625 787.546875 81.511719 L 787.1875 82.140625 L 787.277344 93.390625 L 782.417969 93.210938 L 781.878906 93.660156 L 781.066406 103.289062 L 781.605469 103.828125 L 787.277344 103.648438 L 787.007812 117.960938 C 786.917969 120.210938 786.828125 122.460938 786.828125 124.800781 C 786.828125 133.078125 787.007812 141.988281 801.046875 141.988281 C 804.558594 141.988281 807.347656 141.449219 810.496094 140.910156 L 811.128906 140.28125 L 812.027344 131.011719 Z M 857.929688 127.679688 C 854.511719 129.480469 850.460938 131.550781 843.890625 131.550781 C 838.492188 131.550781 834.800781 129.839844 832.640625 126.601562 C 831.289062 124.710938 831.019531 122.910156 830.660156 121.109375 L 859.730469 120.570312 L 860.269531 119.941406 C 860.179688 115.53125 860.089844 111.03125 858.832031 106.53125 C 855.679688 95.910156 848.75 93.75 845.691406 93.03125 C 843.441406 92.398438 841.371094 92.21875 839.300781 92.21875 C 825.171875 92.21875 815.808594 101.488281 815.808594 117.058594 C 815.808594 121.289062 816.53125 125.699219 817.96875 128.851562 C 823.191406 141 835.429688 142.078125 841.910156 142.078125 C 849.378906 142.078125 852.621094 140.730469 857.390625 138.839844 L 857.929688 138.121094 L 858.558594 127.949219 L 857.929688 127.679688 M 830.660156 111.570312 C 830.929688 108.78125 831.558594 105 834.980469 102.839844 C 836.058594 102.121094 837.320312 101.851562 838.582031 101.851562 C 841.550781 101.851562 843.351562 103.378906 844.339844 105 C 845.601562 106.980469 845.691406 109.140625 845.691406 111.210938 Z M 863.148438 141 "/>
<path fill-rule="nonzero" fill="rgb(34.901961%, 14.901961%, 14.901961%)" fill-opacity="1" d="M 411.53125 197.28125 L 400.101562 197.460938 L 399.558594 198 C 399.921875 209.699219 400.191406 217.53125 400.191406 227.878906 C 400.191406 238.859375 399.921875 249.75 399.648438 260.730469 L 400.191406 261.269531 C 406.851562 261 408.289062 260.910156 415.492188 261 L 415.941406 260.460938 C 415.582031 250.648438 415.582031 248.398438 415.582031 239.21875 C 425.660156 239.308594 436.460938 239.308594 442.941406 231.390625 C 445.460938 228.328125 447.621094 223.199219 447.621094 216.898438 C 447.621094 213.03125 446.71875 204.480469 439.25 200.25 C 433.851562 197.101562 426.199219 197.101562 419.449219 197.101562 L 411.53125 197.28125 M 415.582031 208.171875 C 417.558594 208.078125 419.449219 208.078125 421.429688 208.078125 C 429.351562 208.261719 431.511719 212.308594 431.511719 217.53125 C 431.511719 218.789062 431.511719 224.011719 426.742188 226.621094 C 424.308594 227.96875 420.980469 228.148438 415.582031 228.148438 Z M 493.878906 234.179688 C 493.96875 226.078125 493.96875 222.570312 491.628906 218.789062 C 489.828125 215.910156 486.230469 212.308594 474.710938 212.308594 C 466.96875 212.308594 462.199219 213.75 457.070312 215.28125 L 456.53125 216 L 456.078125 225.808594 L 456.800781 226.171875 C 459.949219 224.910156 465.800781 222.570312 471.828125 222.570312 C 475.160156 222.570312 476.507812 223.109375 477.679688 224.28125 C 478.578125 225.179688 478.851562 226.800781 478.851562 228.148438 C 468.050781 229.589844 463.007812 230.578125 457.609375 233.910156 C 452.570312 237.058594 450.859375 242.191406 450.859375 246.238281 C 450.859375 255.871094 457.789062 262.078125 466.609375 262.078125 C 473.359375 262.078125 477.230469 258.839844 479.121094 257.308594 L 479.121094 260.640625 L 479.660156 261.269531 C 486.140625 261 488.121094 260.910156 493.96875 261 L 494.417969 260.371094 C 493.789062 251.550781 493.789062 249.300781 493.789062 240.839844 L 493.878906 234.179688 M 479.03125 248.488281 C 477.140625 249.570312 474.710938 250.828125 471.738281 250.828125 C 468.5 250.828125 465.800781 249.121094 465.800781 245.339844 C 465.800781 239.398438 472.910156 238.410156 479.03125 237.601562 Z M 530.421875 227.609375 L 532.941406 212.941406 L 532.402344 212.308594 C 531.773438 212.308594 531.140625 212.21875 530.511719 212.21875 C 526.820312 212.21875 522.683594 214.289062 519.800781 220.949219 L 520.070312 212.671875 L 519.351562 211.949219 C 512.691406 213.390625 510.980469 213.660156 504.410156 214.648438 L 503.871094 215.191406 C 504.410156 221.941406 504.683594 225.988281 504.683594 238.5 C 504.683594 245.878906 504.589844 253.261719 504.410156 260.730469 L 504.953125 261.269531 C 511.613281 261 513.050781 260.910156 520.25 261 L 520.703125 260.371094 C 520.339844 253.078125 519.800781 242.910156 519.800781 236.699219 C 519.800781 232.648438 519.800781 226.710938 525.921875 226.710938 C 527.453125 226.710938 528.351562 227.25 529.613281 227.96875 Z M 584.421875 259.828125 C 575.960938 245.519531 575.0625 243.898438 568.222656 231.570312 C 574.433594 223.109375 575.0625 222.210938 581.453125 214.019531 L 581 213.121094 L 566.332031 213.300781 L 565.433594 213.929688 C 558.410156 226.078125 557.511719 227.519531 553.371094 233.730469 L 553.371094 223.738281 C 553.460938 206.910156 553.550781 203.308594 554 189.71875 L 553.28125 189.179688 L 537.621094 191.519531 L 537.082031 192.148438 C 537.710938 200.878906 537.980469 205.109375 538.160156 216.898438 C 538.339844 231.480469 538.339844 246.058594 538.25 260.640625 L 538.882812 261.269531 C 544.910156 261 546.621094 261 553.460938 261 L 554 260.371094 L 553.460938 245.160156 L 553.371094 234.808594 C 561.203125 249.210938 562.191406 251.191406 566.78125 260.730469 L 567.589844 261.269531 L 583.792969 260.640625 Z M 583.339844 261 "/>
</svg>
