<?xml version="1.0" encoding="UTF-8"?>
<svg xmlns="http://www.w3.org/2000/svg" xmlns:xlink="http://www.w3.org/1999/xlink" width="975" height="1300" viewBox="0 0 975 1300">
<path fill-rule="nonzero" fill="rgb(98.823529%, 78.823529%, 9.019608%)" fill-opacity="1" d="M 50 50 L 925 50 L 925 410 L 50 410 Z M 50 50 "/>
<path fill-rule="nonzero" fill="rgb(34.901961%, 14.901961%, 14.901961%)" fill-opacity="1" d="M 137.882812 77.191406 C 128.523438 77.460938 126.992188 77.460938 117.003906 77.460938 L 116.464844 78 L 112.324219 92.578125 L 108.722656 105.628906 L 104.492188 121.289062 L 100.53125 105.179688 L 98.011719 95.011719 L 93.511719 77.730469 L 93.0625 77.191406 C 83.433594 77.460938 81.8125 77.460938 71.734375 77.460938 L 71.191406 78 C 70.292969 104.910156 69.933594 111.839844 67.953125 140.730469 L 68.402344 141.269531 C 74.164062 141 75.875 140.910156 81.09375 141 L 81.632812 140.460938 L 81.902344 123.269531 L 82.441406 105.808594 L 82.804688 88.800781 L 86.761719 104.730469 L 90.183594 117.511719 L 96.214844 140.730469 L 96.753906 141.269531 C 102.332031 141 103.863281 140.910156 110.164062 141 L 110.703125 140.460938 L 115.921875 121.289062 L 119.523438 108.148438 L 124.5625 89.25 L 124.5625 105.359375 L 124.742188 119.128906 L 124.742188 140.730469 L 125.191406 141.269531 C 131.402344 141 133.832031 140.910156 140.761719 141 L 141.214844 140.460938 C 140.671875 130.199219 140.042969 119.851562 139.683594 109.5 C 139.414062 103.828125 139.234375 98.160156 138.964844 92.488281 C 138.511719 84.121094 138.421875 83.039062 138.421875 77.730469 Z M 197.195312 117.058594 C 197.195312 113.550781 197.195312 98.96875 184.59375 94.019531 C 180.632812 92.488281 175.953125 92.308594 173.613281 92.308594 C 157.953125 92.308594 149.132812 100.679688 149.132812 117.238281 C 149.132812 123 150.035156 128.851562 153.363281 133.710938 C 155.703125 137.21875 160.113281 142.078125 172.984375 142.078125 C 192.0625 142.078125 197.195312 130.558594 197.195312 117.058594 M 181.625 116.96875 C 181.625 124.351562 180.632812 132.539062 173.164062 132.539062 C 170.824219 132.539062 169.203125 131.460938 168.125 130.46875 C 166.59375 128.941406 164.882812 125.878906 164.882812 117.148438 C 164.882812 114.539062 164.882812 108.78125 166.683594 105.628906 C 168.035156 103.199219 170.375 101.578125 173.253906 101.578125 C 175.773438 101.578125 177.84375 102.929688 179.015625 104.371094 C 181.175781 106.980469 181.625 112.109375 181.625 116.96875 Z M 249.84375 140.371094 C 249.394531 132.449219 249.394531 129.929688 249.214844 121.109375 L 249.214844 114.089844 C 249.125 105.449219 249.035156 101.308594 246.785156 97.621094 C 243.992188 92.941406 238.863281 92.21875 235.625 92.21875 C 230.132812 92.21875 225.363281 95.101562 221.222656 97.53125 L 221.402344 92.578125 L 220.503906 91.949219 C 213.574219 93.390625 212.042969 93.660156 205.292969 94.558594 L 204.753906 95.191406 C 205.472656 103.019531 206.015625 108.691406 206.015625 123.359375 C 206.015625 129.121094 205.921875 134.878906 205.832031 140.640625 L 206.375 141.179688 C 212.855469 140.910156 214.203125 140.910156 221.402344 140.910156 L 221.945312 140.371094 C 221.402344 126.511719 221.3125 123 221.222656 106.890625 C 223.113281 105.628906 225.273438 104.101562 228.152344 104.101562 C 233.105469 104.101562 233.554688 109.410156 233.824219 112.648438 C 234.003906 115.621094 234.09375 127.949219 234.09375 131.371094 C 234.09375 134.429688 234.003906 137.578125 234.003906 140.640625 L 234.542969 141.179688 C 240.484375 141 242.015625 140.910156 249.214844 140.910156 Z M 285.304688 130.648438 C 283.773438 131.101562 282.691406 131.460938 281.164062 131.460938 C 276.574219 131.460938 276.214844 128.578125 276.03125 127.230469 C 275.761719 124.890625 275.761719 119.941406 275.851562 116.339844 L 276.03125 103.648438 L 284.132812 104.011719 L 284.671875 103.46875 L 285.574219 93.839844 L 285.03125 93.300781 L 276.03125 93.300781 L 276.304688 78.179688 L 275.671875 77.640625 C 269.554688 79.441406 267.933594 79.890625 261.542969 81.511719 L 261.183594 82.140625 L 261.273438 93.390625 L 256.414062 93.210938 L 255.875 93.660156 L 255.0625 103.289062 L 255.601562 103.828125 L 261.273438 103.648438 L 261.003906 117.960938 C 260.914062 120.210938 260.824219 122.460938 260.824219 124.800781 C 260.824219 133.078125 261.003906 141.988281 275.042969 141.988281 C 278.554688 141.988281 281.34375 141.449219 284.492188 140.910156 L 285.125 140.28125 L 286.023438 131.011719 Z M 308.523438 125.789062 C 311.402344 125.878906 314.28125 126.058594 318.601562 124.621094 C 323.28125 123 330.121094 119.128906 330.121094 110.398438 C 330.121094 106.078125 328.863281 104.28125 327.691406 102.570312 L 333.902344 102.929688 L 334.441406 102.480469 L 335.074219 93.480469 L 334.53125 93.03125 C 327.601562 93.300781 325.710938 93.390625 320.042969 93.300781 L 315.902344 93.210938 C 309.511719 93.03125 300.960938 92.851562 295.113281 97.710938 C 293.132812 99.238281 289.351562 103.109375 289.351562 109.859375 C 289.351562 113.460938 290.34375 116.339844 291.960938 118.589844 C 293.941406 121.378906 295.742188 122.371094 297.992188 123.628906 C 295.472656 128.488281 294.121094 130.921875 292.050781 134.609375 L 292.050781 135.421875 L 295.832031 138.121094 C 293.132812 140.191406 288.902344 143.609375 288.902344 149.460938 C 288.902344 153.601562 291.152344 157.199219 294.484375 159.628906 C 299.523438 163.230469 306.363281 163.410156 309.871094 163.410156 C 326.34375 163.410156 333.902344 155.128906 333.902344 146.398438 C 333.902344 135.058594 324.003906 132.898438 318.152344 131.550781 L 315.992188 131.191406 C 311.582031 130.46875 310.59375 130.199219 307.082031 128.941406 L 308.523438 125.789062 M 315.902344 109.589844 C 315.8125 116.878906 311.402344 117.511719 310.140625 117.511719 C 309.421875 117.511719 306.273438 117.328125 304.742188 113.730469 C 303.933594 111.839844 303.933594 109.679688 303.933594 109.050781 C 303.933594 104.550781 306.632812 101.671875 309.960938 101.671875 C 314.101562 101.671875 315.992188 105.628906 315.902344 109.589844 M 308.253906 143.160156 C 316.261719 145.230469 316.351562 145.230469 317.433594 146.128906 C 318.332031 146.761719 319.234375 147.75 319.234375 149.640625 C 319.234375 152.339844 316.984375 155.128906 311.042969 155.128906 C 304.382812 155.128906 302.132812 151.351562 302.132812 148.199219 C 302.132812 145.230469 303.664062 143.519531 304.742188 142.261719 Z M 386.554688 117.058594 C 386.554688 113.550781 386.554688 98.96875 373.953125 94.019531 C 369.992188 92.488281 365.3125 92.308594 362.972656 92.308594 C 347.3125 92.308594 338.492188 100.679688 338.492188 117.238281 C 338.492188 123 339.394531 128.851562 342.722656 133.710938 C 345.0625 137.21875 349.472656 142.078125 362.34375 142.078125 C 381.421875 142.078125 386.554688 130.558594 386.554688 117.058594 M 370.984375 116.96875 C 370.984375 124.351562 369.992188 132.539062 362.523438 132.539062 C 360.183594 132.539062 358.5625 131.460938 357.484375 130.46875 C 355.953125 128.941406 354.242188 125.878906 354.242188 117.148438 C 354.242188 114.539062 354.242188 108.78125 356.042969 105.628906 C 357.394531 103.199219 359.734375 101.578125 362.613281 101.578125 C 365.132812 101.578125 367.203125 102.929688 368.375 104.371094 C 370.535156 106.980469 370.984375 112.109375 370.984375 116.96875 Z M 465.394531 140.371094 C 464.941406 132 464.851562 129.660156 464.851562 119.488281 L 464.851562 112.738281 C 464.941406 106.710938 465.03125 101.128906 462.421875 97.351562 C 458.914062 92.21875 452.703125 92.21875 451.261719 92.21875 C 443.882812 92.21875 438.933594 95.550781 435.332031 98.070312 C 434.074219 96 431.824219 92.21875 424.625 92.21875 C 418.683594 92.21875 414.8125 94.921875 410.671875 97.800781 L 410.671875 92.761719 L 409.863281 91.949219 C 402.84375 93.300781 400.863281 93.660156 394.5625 94.558594 L 394.023438 95.191406 C 394.742188 102.390625 395.28125 107.339844 395.28125 125.160156 C 395.28125 130.289062 395.191406 135.511719 395.191406 140.640625 L 395.644531 141.179688 C 401.402344 141 403.382812 140.910156 410.851562 140.910156 L 411.394531 140.371094 C 410.761719 126.511719 410.671875 122.371094 410.582031 106.710938 C 412.472656 105.359375 414.542969 104.191406 416.792969 104.191406 C 422.375 104.191406 422.554688 110.578125 422.554688 118.320312 C 422.554688 131.371094 422.464844 133.351562 422.28125 140.640625 L 422.824219 141.269531 C 429.664062 140.910156 431.554688 140.910156 437.761719 140.910156 L 438.304688 140.371094 C 437.761719 131.820312 437.671875 129.300781 437.582031 118.410156 L 437.582031 115.078125 L 437.492188 105.988281 C 439.023438 105 441.003906 103.738281 443.703125 103.738281 C 448.832031 103.738281 449.644531 108.601562 449.644531 116.339844 C 449.644531 118.050781 449.554688 119.761719 449.554688 121.46875 C 449.464844 124.53125 449.375 137.941406 449.28125 140.640625 L 449.824219 141.179688 C 456.574219 140.910156 458.554688 140.910156 464.851562 140.910156 Z M 515.703125 127.679688 C 512.285156 129.480469 508.234375 131.550781 501.664062 131.550781 C 496.265625 131.550781 492.574219 129.839844 490.414062 126.601562 C 489.0625 124.710938 488.792969 122.910156 488.433594 121.109375 L 517.503906 120.570312 L 518.042969 119.941406 C 517.953125 115.53125 517.863281 111.03125 516.605469 106.53125 C 513.453125 95.910156 506.523438 93.75 503.464844 93.03125 C 501.214844 92.398438 499.144531 92.21875 497.074219 92.21875 C 482.945312 92.21875 473.582031 101.488281 473.582031 117.058594 C 473.582031 121.289062 474.304688 125.699219 475.742188 128.851562 C 480.964844 141 493.203125 142.078125 499.683594 142.078125 C 507.152344 142.078125 510.394531 140.730469 515.164062 138.839844 L 515.703125 138.121094 L 516.332031 127.949219 L 515.703125 127.679688 M 488.433594 111.570312 C 488.703125 108.78125 489.332031 105 492.753906 102.839844 C 493.832031 102.121094 495.09375 101.851562 496.355469 101.851562 C 499.324219 101.851562 501.125 103.378906 502.113281 105 C 503.375 106.980469 503.464844 109.140625 503.464844 111.210938 Z M 552.332031 107.609375 L 554.851562 92.941406 L 554.3125 92.308594 C 553.683594 92.308594 553.050781 92.21875 552.421875 92.21875 C 548.730469 92.21875 544.59375 94.289062 541.710938 100.949219 L 541.980469 92.671875 L 541.261719 91.949219 C 534.601562 93.390625 532.890625 93.660156 526.320312 94.648438 L 525.78125 95.191406 C 526.320312 101.941406 526.59375 105.988281 526.59375 118.5 C 526.59375 125.878906 526.5 133.261719 526.320312 140.730469 L 526.863281 141.269531 C 533.523438 141 534.960938 140.910156 542.160156 141 L 542.613281 140.371094 C 542.25 133.078125 541.710938 122.910156 541.710938 116.699219 C 541.710938 112.648438 541.710938 106.710938 547.832031 106.710938 C 549.363281 106.710938 550.261719 107.25 551.523438 107.96875 Z M 600.300781 93.03125 L 587.792969 93.300781 L 587.070312 93.929688 C 585.542969 100.140625 585.183594 101.488281 583.023438 108.511719 L 580.683594 116.25 L 578.703125 123 L 576.992188 116.609375 L 574.382812 107.070312 L 570.78125 93.390625 L 570.0625 92.851562 C 563.042969 93.390625 561.511719 93.480469 554.132812 93.660156 L 553.683594 94.289062 C 556.921875 102.839844 565.292969 125.429688 570.871094 142.710938 C 567.183594 152.070312 566.460938 153.691406 562.410156 162.601562 L 562.863281 163.320312 C 565.113281 163.230469 567.632812 163.140625 569.972656 163.140625 C 572.222656 163.140625 574.5625 163.230469 576.8125 163.230469 L 577.441406 162.691406 C 582.390625 143.25 584.820312 135.691406 596.703125 104.371094 C 598.050781 100.769531 599.402344 97.261719 600.660156 93.75 Z M 696.78125 140.460938 C 700.113281 124.078125 701.554688 117.238281 711.09375 77.730469 L 710.644531 77.191406 C 704.253906 77.460938 702.992188 77.460938 696.964844 77.460938 L 696.421875 78 C 694.984375 87.269531 694.53125 90.421875 692.554688 100.769531 L 689.941406 114.539062 L 687.0625 130.019531 C 685.714844 119.941406 685.261719 116.878906 683.464844 106.441406 L 680.851562 91.320312 L 678.601562 77.460938 L 678.0625 76.828125 L 660.242188 77.28125 L 659.703125 77.820312 L 656.101562 98.519531 L 652.59375 116.96875 L 650.34375 129.390625 C 649.261719 121.558594 648.902344 118.949219 647.011719 108.058594 L 644.671875 94.921875 L 641.703125 77.101562 L 641.164062 76.648438 C 633.421875 77.191406 632.164062 77.191406 625.59375 77.371094 L 625.144531 78 C 631.714844 107.789062 633.152344 114.628906 638.011719 140.730469 L 638.554688 141.269531 C 647.644531 140.910156 650.074219 140.910156 658.894531 141 L 659.523438 140.460938 L 661.414062 129.300781 L 664.382812 112.828125 L 667.625 93.570312 C 668.703125 102.390625 668.972656 104.640625 670.59375 114.359375 L 672.84375 128.398438 L 674.734375 140.730469 L 675.183594 141.269531 C 683.824219 141 686.792969 140.910156 696.332031 141 Z M 761.585938 117.058594 C 761.585938 113.550781 761.585938 98.96875 748.984375 94.019531 C 745.023438 92.488281 740.34375 92.308594 738.003906 92.308594 C 722.34375 92.308594 713.523438 100.679688 713.523438 117.238281 C 713.523438 123 714.425781 128.851562 717.753906 133.710938 C 720.09375 137.21875 724.503906 142.078125 737.375 142.078125 C 756.453125 142.078125 761.585938 130.558594 761.585938 117.058594 M 746.015625 116.96875 C 746.015625 124.351562 745.023438 132.539062 737.554688 132.539062 C 735.214844 132.539062 733.59375 131.460938 732.515625 130.46875 C 730.984375 128.941406 729.273438 125.878906 729.273438 117.148438 C 729.273438 114.539062 729.273438 108.78125 731.074219 105.628906 C 732.425781 103.199219 734.765625 101.578125 737.644531 101.578125 C 740.164062 101.578125 742.234375 102.929688 743.40625 104.371094 C 745.566406 106.980469 746.015625 112.109375 746.015625 116.96875 Z M 815.945312 117.058594 C 815.945312 113.550781 815.945312 98.96875 803.34375 94.019531 C 799.382812 92.488281 794.703125 92.308594 792.363281 92.308594 C 776.703125 92.308594 767.882812 100.679688 767.882812 117.238281 C 767.882812 123 768.785156 128.851562 772.113281 133.710938 C 774.453125 137.21875 778.863281 142.078125 791.734375 142.078125 C 810.8125 142.078125 815.945312 130.558594 815.945312 117.058594 M 800.375 116.96875 C 800.375 124.351562 799.382812 132.539062 791.914062 132.539062 C 789.574219 132.539062 787.953125 131.460938 786.875 130.46875 C 785.34375 128.941406 783.632812 125.878906 783.632812 117.148438 C 783.632812 114.539062 783.632812 108.78125 785.433594 105.628906 C 786.785156 103.199219 789.125 101.578125 792.003906 101.578125 C 794.523438 101.578125 796.59375 102.929688 797.765625 104.371094 C 799.925781 106.980469 800.375 112.109375 800.375 116.96875 Z M 868.59375 140.460938 C 868.234375 132.359375 867.964844 126.960938 867.964844 115.171875 C 867.964844 91.410156 868.324219 81.601562 868.683594 69.71875 L 868.054688 69.179688 L 853.203125 71.519531 L 852.753906 72.058594 C 853.292969 80.519531 853.382812 82.769531 853.292969 93.03125 C 846.542969 92.851562 838.082031 92.671875 831.242188 98.070312 C 824.945312 102.929688 822.332031 110.398438 822.332031 119.671875 C 822.332031 126.691406 824.222656 133.710938 829.535156 138.121094 C 833.492188 141.359375 838.355469 142.078125 841.324219 142.078125 C 847.714844 142.078125 851.042969 139.109375 853.203125 137.21875 L 853.023438 140.730469 L 853.472656 141.269531 C 859.683594 141 861.394531 141 868.144531 141 L 868.59375 140.460938 M 853.292969 103.828125 C 853.382812 115.800781 853.292969 118.140625 853.023438 129.03125 C 851.222656 130.109375 849.421875 131.191406 846.902344 131.191406 C 838.171875 131.191406 838.171875 120.03125 838.171875 118.230469 C 838.171875 111.300781 840.152344 103.558594 850.234375 103.558594 C 851.222656 103.558594 852.035156 103.648438 853.292969 103.828125 Z M 897.753906 109.949219 C 894.691406 108.871094 892.261719 107.878906 892.261719 105.359375 C 892.261719 104.28125 892.984375 101.308594 898.5625 101.308594 C 904.054688 101.308594 907.5625 103.648438 909.8125 105.089844 L 910.625 104.820312 L 911.523438 95.011719 L 911.074219 94.46875 C 906.84375 93.300781 903.152344 92.21875 897.304688 92.21875 C 892.894531 92.21875 884.074219 92.578125 879.394531 99.328125 C 878.222656 100.949219 876.964844 103.648438 876.964844 107.25 C 876.964844 116.878906 884.433594 119.761719 888.664062 121.378906 L 892.082031 122.640625 C 894.511719 123.449219 898.472656 124.800781 898.472656 128.039062 C 898.472656 130.289062 896.402344 132.71875 891.363281 132.71875 C 888.84375 132.71875 885.152344 131.910156 881.824219 130.199219 C 880.292969 129.390625 879.574219 128.761719 878.222656 127.679688 L 877.414062 128.039062 C 877.234375 132.71875 877.144531 133.710938 876.78125 138.210938 L 877.234375 139.019531 C 881.644531 140.640625 885.421875 142.078125 891.992188 142.078125 C 898.832031 142.078125 912.332031 140.820312 913.953125 127.949219 C 914.042969 127.230469 914.042969 126.601562 914.042969 125.96875 C 914.042969 116.070312 907.113281 113.460938 902.164062 111.570312 Z M 916.5625 141 "/>
<path fill-rule="nonzero" fill="rgb(34.901961%, 14.901961%, 14.901961%)" fill-opacity="1" d="M 245.074219 222.300781 C 237.515625 219.148438 233.554688 217.53125 233.554688 213.480469 C 233.554688 210.691406 236.164062 207.179688 242.105469 207.179688 C 248.945312 207.179688 252.992188 209.96875 256.324219 212.21875 L 257.132812 211.859375 L 257.855469 200.070312 L 257.402344 199.441406 C 253.535156 197.820312 249.484375 196.109375 240.753906 196.109375 C 223.835938 196.109375 217.984375 205.648438 217.984375 215.28125 C 217.984375 226.171875 226.445312 230.128906 231.484375 232.558594 L 234.453125 233.910156 C 240.664062 236.519531 245.433594 238.769531 245.433594 243.539062 C 245.433594 246.960938 242.464844 251.011719 234.632812 251.011719 C 226.445312 251.011719 221.855469 247.410156 219.242188 245.339844 L 218.34375 245.609375 L 217.714844 258.300781 L 218.253906 259.019531 C 219.242188 259.378906 220.234375 259.828125 221.222656 260.101562 C 223.292969 260.820312 228.605469 262.351562 235.355469 262.351562 C 238.054688 262.351562 244.894531 262.078125 250.292969 259.558594 C 257.855469 255.871094 261.09375 249.03125 261.09375 241.378906 C 261.09375 236.25 259.113281 230.761719 254.34375 227.070312 C 251.914062 225.269531 249.574219 224.191406 247.414062 223.199219 Z M 294.84375 250.648438 C 293.3125 251.101562 292.230469 251.460938 290.703125 251.460938 C 286.113281 251.460938 285.753906 248.578125 285.570312 247.230469 C 285.300781 244.890625 285.300781 239.941406 285.390625 236.339844 L 285.570312 223.648438 L 293.671875 224.011719 L 294.210938 223.46875 L 295.113281 213.839844 L 294.570312 213.300781 L 285.570312 213.300781 L 285.84375 198.179688 L 285.210938 197.640625 C 279.09375 199.441406 277.472656 199.890625 271.082031 201.511719 L 270.722656 202.140625 L 270.8125 213.390625 L 265.953125 213.210938 L 265.414062 213.660156 L 264.601562 223.289062 L 265.140625 223.828125 L 270.8125 223.648438 L 270.542969 237.960938 C 270.453125 240.210938 270.363281 242.460938 270.363281 244.800781 C 270.363281 253.078125 270.542969 261.988281 284.582031 261.988281 C 288.09375 261.988281 290.882812 261.449219 294.03125 260.910156 L 294.664062 260.28125 L 295.5625 251.011719 Z M 341.554688 234.179688 C 341.644531 226.078125 341.644531 222.570312 339.304688 218.789062 C 337.503906 215.910156 333.90625 212.308594 322.386719 212.308594 C 314.644531 212.308594 309.875 213.75 304.746094 215.28125 L 304.207031 216 L 303.753906 225.808594 L 304.476562 226.171875 C 307.625 224.910156 313.476562 222.570312 319.503906 222.570312 C 322.835938 222.570312 324.183594 223.109375 325.355469 224.28125 C 326.253906 225.179688 326.527344 226.800781 326.527344 228.148438 C 315.726562 229.589844 310.683594 230.578125 305.285156 233.910156 C 300.246094 237.058594 298.535156 242.191406 298.535156 246.238281 C 298.535156 255.871094 305.464844 262.078125 314.285156 262.078125 C 321.035156 262.078125 324.90625 258.839844 326.796875 257.308594 L 326.796875 260.640625 L 327.335938 261.269531 C 333.816406 261 335.796875 260.910156 341.644531 261 L 342.09375 260.371094 C 341.464844 251.550781 341.464844 249.300781 341.464844 240.839844 L 341.554688 234.179688 M 326.707031 248.488281 C 324.816406 249.570312 322.386719 250.828125 319.414062 250.828125 C 316.175781 250.828125 313.476562 249.121094 313.476562 245.339844 C 313.476562 239.398438 320.585938 238.410156 326.707031 237.601562 Z M 377.285156 250.648438 C 375.753906 251.101562 374.671875 251.460938 373.144531 251.460938 C 368.554688 251.460938 368.195312 248.578125 368.011719 247.230469 C 367.742188 244.890625 367.742188 239.941406 367.832031 236.339844 L 368.011719 223.648438 L 376.113281 224.011719 L 376.652344 223.46875 L 377.554688 213.839844 L 377.011719 213.300781 L 368.011719 213.300781 L 368.285156 198.179688 L 367.652344 197.640625 C 361.535156 199.441406 359.914062 199.890625 353.523438 201.511719 L 353.164062 202.140625 L 353.253906 213.390625 L 348.394531 213.210938 L 347.855469 213.660156 L 347.042969 223.289062 L 347.582031 223.828125 L 353.253906 223.648438 L 352.984375 237.960938 C 352.894531 240.210938 352.804688 242.460938 352.804688 244.800781 C 352.804688 253.078125 352.984375 261.988281 367.023438 261.988281 C 370.535156 261.988281 373.324219 261.449219 376.472656 260.910156 L 377.105469 260.28125 L 378.003906 251.011719 Z M 423.902344 247.679688 C 420.484375 249.480469 416.433594 251.550781 409.863281 251.550781 C 404.464844 251.550781 400.773438 249.839844 398.613281 246.601562 C 397.261719 244.710938 396.992188 242.910156 396.632812 241.109375 L 425.703125 240.570312 L 426.242188 239.941406 C 426.152344 235.53125 426.0625 231.03125 424.804688 226.53125 C 421.652344 215.910156 414.722656 213.75 411.664062 213.03125 C 409.414062 212.398438 407.34375 212.21875 405.273438 212.21875 C 391.144531 212.21875 381.78125 221.488281 381.78125 237.058594 C 381.78125 241.289062 382.503906 245.699219 383.941406 248.851562 C 389.164062 261 401.402344 262.078125 407.882812 262.078125 C 415.351562 262.078125 418.59375 260.730469 423.363281 258.839844 L 423.902344 258.121094 L 424.53125 247.949219 L 423.902344 247.679688 M 396.632812 231.570312 C 396.902344 228.78125 397.53125 225 400.953125 222.839844 C 402.03125 222.121094 403.292969 221.851562 404.554688 221.851562 C 407.523438 221.851562 409.324219 223.378906 410.3125 225 C 411.574219 226.980469 411.664062 229.140625 411.664062 231.210938 Z M 514.890625 197.191406 C 509.222656 197.460938 507.691406 197.550781 502.113281 197.460938 L 501.664062 198 L 502.292969 210.148438 L 502.652344 222.570312 L 503.011719 237.421875 C 500.402344 233.011719 499.953125 232.289062 495.363281 225.449219 L 487.171875 213.480469 C 480.421875 203.21875 479.074219 201.238281 476.824219 197.640625 L 476.191406 197.191406 C 469.082031 197.550781 467.914062 197.550781 461.34375 197.460938 L 460.890625 198 C 461.34375 211.949219 461.613281 222.300781 461.613281 234.359375 C 461.613281 243.179688 461.433594 252 461.34375 260.730469 L 461.792969 261.269531 C 467.824219 261 469.710938 261 474.933594 261 L 475.382812 260.460938 L 474.480469 240.75 L 474.210938 229.679688 L 473.671875 217.621094 C 477.902344 224.640625 479.34375 226.980469 485.460938 235.890625 L 494.460938 249.121094 L 502.472656 260.820312 L 503.101562 261.269531 C 508.59375 261 510.210938 261 514.980469 261 L 515.433594 260.550781 C 515.34375 247.5 515.253906 238.679688 515.253906 227.878906 C 515.253906 217.800781 515.34375 207.808594 515.433594 197.730469 Z M 566.464844 234.179688 C 566.554688 226.078125 566.554688 222.570312 564.214844 218.789062 C 562.414062 215.910156 558.816406 212.308594 547.296875 212.308594 C 539.554688 212.308594 534.785156 213.75 529.65625 215.28125 L 529.117188 216 L 528.664062 225.808594 L 529.386719 226.171875 C 532.535156 224.910156 538.386719 222.570312 544.414062 222.570312 C 547.746094 222.570312 549.09375 223.109375 550.265625 224.28125 C 551.164062 225.179688 551.4375 226.800781 551.4375 228.148438 C 540.636719 229.589844 535.59375 230.578125 530.195312 233.910156 C 525.15625 237.058594 523.445312 242.191406 523.445312 246.238281 C 523.445312 255.871094 530.375 262.078125 539.195312 262.078125 C 545.945312 262.078125 549.816406 258.839844 551.707031 257.308594 L 551.707031 260.640625 L 552.246094 261.269531 C 558.726562 261 560.707031 260.910156 566.554688 261 L 567.003906 260.371094 C 566.375 251.550781 566.375 249.300781 566.375 240.839844 L 566.464844 234.179688 M 551.617188 248.488281 C 549.726562 249.570312 547.296875 250.828125 544.324219 250.828125 C 541.085938 250.828125 538.386719 249.121094 538.386719 245.339844 C 538.386719 239.398438 545.496094 238.410156 551.617188 237.601562 Z M 602.195312 250.648438 C 600.664062 251.101562 599.582031 251.460938 598.054688 251.460938 C 593.464844 251.460938 593.105469 248.578125 592.921875 247.230469 C 592.652344 244.890625 592.652344 239.941406 592.742188 236.339844 L 592.921875 223.648438 L 601.023438 224.011719 L 601.5625 223.46875 L 602.464844 213.839844 L 601.921875 213.300781 L 592.921875 213.300781 L 593.195312 198.179688 L 592.5625 197.640625 C 586.445312 199.441406 584.824219 199.890625 578.433594 201.511719 L 578.074219 202.140625 L 578.164062 213.390625 L 573.304688 213.210938 L 572.765625 213.660156 L 571.953125 223.289062 L 572.492188 223.828125 L 578.164062 223.648438 L 577.894531 237.960938 C 577.804688 240.210938 577.714844 242.460938 577.714844 244.800781 C 577.714844 253.078125 577.894531 261.988281 591.933594 261.988281 C 595.445312 261.988281 598.234375 261.449219 601.382812 260.910156 L 602.015625 260.28125 L 602.914062 251.011719 Z M 652.054688 212.851562 L 637.382812 213.570312 L 636.753906 214.109375 C 637.382812 224.28125 637.382812 238.679688 637.382812 240.121094 C 637.382812 242.730469 637.382812 244.171875 637.292969 247.769531 C 634.863281 249.390625 632.972656 250.738281 630.542969 250.738281 C 624.0625 250.738281 624.0625 243.898438 624.0625 238.589844 C 624.0625 236.339844 624.0625 234 624.152344 231.75 L 624.332031 213.570312 L 623.703125 212.851562 L 608.851562 213.570312 L 608.222656 214.109375 C 608.761719 221.671875 608.851562 224.191406 608.851562 233.28125 L 608.851562 239.578125 C 608.761719 249.390625 609.214844 253.53125 612.453125 257.308594 C 615.421875 260.640625 619.742188 262.078125 624.242188 262.078125 C 630.632812 262.078125 634.324219 259.199219 637.5625 256.679688 L 637.472656 260.730469 L 638.101562 261.269531 C 644.671875 261 646.652344 261 652.503906 261 L 653.042969 260.460938 C 652.59375 254.070312 652.414062 250.648438 652.414062 238.949219 C 652.414062 230.488281 652.503906 222.03125 652.683594 213.570312 Z M 689.222656 227.609375 L 691.742188 212.941406 L 691.203125 212.308594 C 690.574219 212.308594 689.941406 212.21875 689.3125 212.21875 C 685.621094 212.21875 681.484375 214.289062 678.601562 220.949219 L 678.871094 212.671875 L 678.152344 211.949219 C 671.492188 213.390625 669.78125 213.660156 663.210938 214.648438 L 662.671875 215.191406 C 663.210938 221.941406 663.484375 225.988281 663.484375 238.5 C 663.484375 245.878906 663.390625 253.261719 663.210938 260.730469 L 663.753906 261.269531 C 670.414062 261 671.851562 260.910156 679.050781 261 L 679.503906 260.371094 C 679.140625 253.078125 678.601562 242.910156 678.601562 236.699219 C 678.601562 232.648438 678.601562 226.710938 684.722656 226.710938 C 686.253906 226.710938 687.152344 227.25 688.414062 227.96875 Z M 737.011719 234.179688 C 737.101562 226.078125 737.101562 222.570312 734.761719 218.789062 C 732.960938 215.910156 729.363281 212.308594 717.84375 212.308594 C 710.101562 212.308594 705.332031 213.75 700.203125 215.28125 L 699.664062 216 L 699.210938 225.808594 L 699.933594 226.171875 C 703.082031 224.910156 708.933594 222.570312 714.960938 222.570312 C 718.292969 222.570312 719.640625 223.109375 720.8125 224.28125 C 721.710938 225.179688 721.984375 226.800781 721.984375 228.148438 C 711.183594 229.589844 706.140625 230.578125 700.742188 233.910156 C 695.703125 237.058594 693.992188 242.191406 693.992188 246.238281 C 693.992188 255.871094 700.921875 262.078125 709.742188 262.078125 C 716.492188 262.078125 720.363281 258.839844 722.253906 257.308594 L 722.253906 260.640625 L 722.792969 261.269531 C 729.273438 261 731.253906 260.910156 737.101562 261 L 737.550781 260.371094 C 736.921875 251.550781 736.921875 249.300781 736.921875 240.839844 L 737.011719 234.179688 M 722.164062 248.488281 C 720.273438 249.570312 717.84375 250.828125 714.871094 250.828125 C 711.632812 250.828125 708.933594 249.121094 708.933594 245.339844 C 708.933594 239.398438 716.042969 238.410156 722.164062 237.601562 Z M 763.382812 260.371094 C 762.933594 250.019531 762.484375 240.570312 762.484375 212.128906 C 762.484375 203.578125 762.574219 199.53125 762.933594 189.808594 L 762.304688 189.179688 L 746.914062 191.609375 L 746.554688 192.148438 C 747.453125 203.128906 747.542969 206.101562 747.722656 220.679688 C 747.816406 225.988281 747.816406 231.300781 747.816406 236.609375 C 747.816406 246.328125 747.632812 251.730469 747.273438 260.640625 L 747.816406 261.269531 C 753.84375 261 756.273438 260.910156 762.84375 261 Z M 768.425781 261 "/>
<path fill-rule="nonzero" fill="rgb(34.901961%, 14.901961%, 14.901961%)" fill-opacity="1" d="M 351.453125 356.25 C 357.484375 366.511719 358.835938 369.210938 364.59375 381 L 365.316406 381.449219 C 368.105469 381.269531 370.804688 381.089844 373.59375 381 C 376.386719 380.910156 379.265625 380.820312 382.054688 380.820312 L 382.59375 379.738281 C 379.175781 375.328125 378.183594 373.980469 371.703125 363.628906 C 368.824219 359.039062 367.386719 356.609375 365.136719 352.648438 C 369.183594 350.851562 377.375 347.070312 377.375 335.640625 C 377.375 331.679688 376.292969 323.488281 368.914062 319.621094 C 364.234375 317.191406 359.375 317.101562 348.84375 317.28125 L 342.542969 317.371094 L 331.566406 317.371094 L 331.113281 317.910156 C 331.476562 327 331.835938 336.359375 331.835938 360.839844 C 331.835938 369.210938 331.746094 373.261719 331.476562 380.730469 L 332.015625 381.269531 C 338.585938 381 340.023438 380.910156 347.40625 381 L 347.945312 380.460938 C 347.226562 370.019531 347.136719 367.140625 347.042969 356.429688 L 351.453125 356.25 M 347.226562 328.261719 C 348.484375 328.171875 349.746094 328.171875 351.003906 328.171875 C 354.515625 328.171875 361.445312 328.171875 361.445312 336.089844 C 361.445312 338.609375 360.816406 341.941406 357.484375 344.011719 C 354.964844 345.539062 351.726562 345.71875 347.226562 345.808594 Z M 427.324219 367.679688 C 423.90625 369.480469 419.855469 371.550781 413.285156 371.550781 C 407.886719 371.550781 404.195312 369.839844 402.035156 366.601562 C 400.683594 364.710938 400.414062 362.910156 400.054688 361.109375 L 429.125 360.570312 L 429.664062 359.941406 C 429.574219 355.53125 429.484375 351.03125 428.226562 346.53125 C 425.074219 335.910156 418.144531 333.75 415.085938 333.03125 C 412.835938 332.398438 410.765625 332.21875 408.695312 332.21875 C 394.566406 332.21875 385.203125 341.488281 385.203125 357.058594 C 385.203125 361.289062 385.925781 365.699219 387.363281 368.851562 C 392.585938 381 404.824219 382.078125 411.304688 382.078125 C 418.773438 382.078125 422.015625 380.730469 426.785156 378.839844 L 427.324219 378.121094 L 427.953125 367.949219 L 427.324219 367.679688 M 400.054688 351.570312 C 400.324219 348.78125 400.953125 345 404.375 342.839844 C 405.453125 342.121094 406.714844 341.851562 407.976562 341.851562 C 410.945312 341.851562 412.746094 343.378906 413.734375 345 C 414.996094 346.980469 415.085938 349.140625 415.085938 351.210938 Z M 456.84375 349.949219 C 453.78125 348.871094 451.351562 347.878906 451.351562 345.359375 C 451.351562 344.28125 452.074219 341.308594 457.652344 341.308594 C 463.144531 341.308594 466.652344 343.648438 468.902344 345.089844 L 469.714844 344.820312 L 470.613281 335.011719 L 470.164062 334.46875 C 465.933594 333.300781 462.242188 332.21875 456.394531 332.21875 C 451.984375 332.21875 443.164062 332.578125 438.484375 339.328125 C 437.3125 340.949219 436.054688 343.648438 436.054688 347.25 C 436.054688 356.878906 443.523438 359.761719 447.753906 361.378906 L 451.171875 362.640625 C 453.601562 363.449219 457.5625 364.800781 457.5625 368.039062 C 457.5625 370.289062 455.492188 372.71875 450.453125 372.71875 C 447.933594 372.71875 444.242188 371.910156 440.914062 370.199219 C 439.382812 369.390625 438.664062 368.761719 437.3125 367.679688 L 436.503906 368.039062 C 436.324219 372.71875 436.234375 373.710938 435.871094 378.210938 L 436.324219 379.019531 C 440.734375 380.640625 444.511719 382.078125 451.082031 382.078125 C 457.921875 382.078125 471.421875 380.820312 473.042969 367.949219 C 473.132812 367.230469 473.132812 366.601562 473.132812 365.96875 C 473.132812 356.070312 466.203125 353.460938 461.253906 351.570312 Z M 521.015625 367.679688 C 517.597656 369.480469 513.546875 371.550781 506.976562 371.550781 C 501.578125 371.550781 497.886719 369.839844 495.726562 366.601562 C 494.375 364.710938 494.105469 362.910156 493.746094 361.109375 L 522.816406 360.570312 L 523.355469 359.941406 C 523.265625 355.53125 523.175781 351.03125 521.917969 346.53125 C 518.765625 335.910156 511.835938 333.75 508.777344 333.03125 C 506.527344 332.398438 504.457031 332.21875 502.386719 332.21875 C 488.257812 332.21875 478.894531 341.488281 478.894531 357.058594 C 478.894531 361.289062 479.617188 365.699219 481.054688 368.851562 C 486.277344 381 498.515625 382.078125 504.996094 382.078125 C 512.464844 382.078125 515.707031 380.730469 520.476562 378.839844 L 521.015625 378.121094 L 521.644531 367.949219 L 521.015625 367.679688 M 493.746094 351.570312 C 494.015625 348.78125 494.644531 345 498.066406 342.839844 C 499.144531 342.121094 500.40625 341.851562 501.667969 341.851562 C 504.636719 341.851562 506.4375 343.378906 507.425781 345 C 508.6875 346.980469 508.777344 349.140625 508.777344 351.210938 Z M 557.644531 347.609375 L 560.164062 332.941406 L 559.625 332.308594 C 558.996094 332.308594 558.363281 332.21875 557.734375 332.21875 C 554.042969 332.21875 549.90625 334.289062 547.023438 340.949219 L 547.292969 332.671875 L 546.574219 331.949219 C 539.914062 333.390625 538.203125 333.660156 531.632812 334.648438 L 531.09375 335.191406 C 531.632812 341.941406 531.90625 345.988281 531.90625 358.5 C 531.90625 365.878906 531.8125 373.261719 531.632812 380.730469 L 532.175781 381.269531 C 538.835938 381 540.273438 380.910156 547.472656 381 L 547.925781 380.371094 C 547.5625 373.078125 547.023438 362.910156 547.023438 356.699219 C 547.023438 352.648438 547.023438 346.710938 553.144531 346.710938 C 554.675781 346.710938 555.574219 347.25 556.835938 347.96875 Z M 590.222656 380.28125 C 593.105469 371.28125 594.8125 365.699219 596.703125 360.03125 C 599.132812 352.738281 603.09375 341.039062 605.613281 333.660156 L 605.164062 333.03125 L 592.5625 333.300781 L 591.933594 333.929688 C 590.675781 339.960938 590.40625 341.21875 588.605469 348.238281 L 584.015625 365.96875 L 581.765625 356.25 L 580.054688 349.320312 C 577.804688 340.949219 577.445312 339.238281 576.183594 333.300781 L 575.554688 332.761719 C 568.445312 333.570312 566.644531 333.660156 559.804688 333.75 L 559.445312 334.46875 C 571.414062 369.929688 572.40625 373.261719 574.382812 380.640625 L 575.015625 381.269531 C 580.863281 381 583.203125 380.910156 589.683594 381 Z M 650.34375 367.679688 C 646.925781 369.480469 642.875 371.550781 636.304688 371.550781 C 630.90625 371.550781 627.214844 369.839844 625.054688 366.601562 C 623.703125 364.710938 623.433594 362.910156 623.074219 361.109375 L 652.144531 360.570312 L 652.683594 359.941406 C 652.59375 355.53125 652.503906 351.03125 651.246094 346.53125 C 648.09375 335.910156 641.164062 333.75 638.105469 333.03125 C 635.855469 332.398438 633.785156 332.21875 631.714844 332.21875 C 617.585938 332.21875 608.222656 341.488281 608.222656 357.058594 C 608.222656 361.289062 608.945312 365.699219 610.382812 368.851562 C 615.605469 381 627.84375 382.078125 634.324219 382.078125 C 641.792969 382.078125 645.035156 380.730469 649.804688 378.839844 L 650.34375 378.121094 L 650.972656 367.949219 L 650.34375 367.679688 M 623.074219 351.570312 C 623.34375 348.78125 623.972656 345 627.394531 342.839844 C 628.472656 342.121094 629.734375 341.851562 630.996094 341.851562 C 633.964844 341.851562 635.765625 343.378906 636.753906 345 C 638.015625 346.980469 638.105469 349.140625 638.105469 351.210938 Z M 655.566406 381 "/>
</svg>
