<?xml version="1.0" encoding="UTF-8"?>
<svg xmlns="http://www.w3.org/2000/svg" xmlns:xlink="http://www.w3.org/1999/xlink" width="975" height="1300" viewBox="0 0 975 1300">
<path fill-rule="nonzero" fill="rgb(98.823529%, 78.823529%, 9.019608%)" fill-opacity="1" d="M 50 50 L 925 50 L 925 410 L 50 410 Z M 50 50 "/>
<path fill-rule="nonzero" fill="rgb(34.901961%, 14.901961%, 14.901961%)" fill-opacity="1" d="M 142.609375 77.191406 C 133.25 77.460938 131.71875 77.460938 121.730469 77.460938 L 121.191406 78 L 117.050781 92.578125 L 113.449219 105.628906 L 109.21875 121.289062 L 105.257812 105.179688 L 102.738281 95.011719 L 98.238281 77.730469 L 97.789062 77.191406 C 88.160156 77.460938 86.539062 77.460938 76.460938 77.460938 L 75.917969 78 C 75.019531 104.910156 74.660156 111.839844 72.679688 140.730469 L 73.128906 141.269531 C 78.890625 141 80.601562 140.910156 85.820312 141 L 86.359375 140.460938 L 86.628906 123.269531 L 87.167969 105.808594 L 87.53125 88.800781 L 91.488281 104.730469 L 94.910156 117.511719 L 100.941406 140.730469 L 101.480469 141.269531 C 107.058594 141 108.589844 140.910156 114.890625 141 L 115.429688 140.460938 L 120.648438 121.289062 L 124.25 108.148438 L 129.289062 89.25 L 129.289062 105.359375 L 129.46875 119.128906 L 129.46875 140.730469 L 129.917969 141.269531 C 136.128906 141 138.558594 140.910156 145.488281 141 L 145.941406 140.460938 C 145.398438 130.199219 144.769531 119.851562 144.410156 109.5 C 144.140625 103.828125 143.960938 98.160156 143.691406 92.488281 C 143.238281 84.121094 143.148438 83.039062 143.148438 77.730469 Z M 196.160156 114.179688 C 196.25 106.078125 196.25 102.570312 193.910156 98.789062 C 192.109375 95.910156 188.511719 92.308594 176.992188 92.308594 C 169.25 92.308594 164.480469 93.75 159.351562 95.28125 L 158.8125 96 L 158.359375 105.808594 L 159.082031 106.171875 C 162.230469 104.910156 168.082031 102.570312 174.109375 102.570312 C 177.441406 102.570312 178.789062 103.109375 179.960938 104.28125 C 180.859375 105.179688 181.132812 106.800781 181.132812 108.148438 C 170.332031 109.589844 165.289062 110.578125 159.890625 113.910156 C 154.851562 117.058594 153.140625 122.191406 153.140625 126.238281 C 153.140625 135.871094 160.070312 142.078125 168.890625 142.078125 C 175.640625 142.078125 179.511719 138.839844 181.402344 137.308594 L 181.402344 140.640625 L 181.941406 141.269531 C 188.421875 141 190.402344 140.910156 196.25 141 L 196.699219 140.371094 C 196.070312 131.550781 196.070312 129.300781 196.070312 120.839844 L 196.160156 114.179688 M 181.3125 128.488281 C 179.421875 129.570312 176.992188 130.828125 174.019531 130.828125 C 170.78125 130.828125 168.082031 129.121094 168.082031 125.339844 C 168.082031 119.398438 175.191406 118.410156 181.3125 117.601562 Z M 222.980469 140.371094 C 222.527344 133.441406 222.167969 128.128906 222.167969 115.710938 C 222.167969 108.058594 222.347656 100.320312 222.4375 92.671875 L 221.808594 91.949219 L 206.328125 94.648438 L 205.789062 95.191406 C 206.507812 102.03125 206.777344 105.179688 206.777344 117.960938 C 206.777344 127.769531 206.507812 133.261719 206.238281 140.640625 L 206.777344 141.269531 C 213.257812 141 215.058594 140.910156 222.347656 141 L 222.980469 140.371094 M 221.539062 83.308594 L 221.808594 71.070312 L 221.269531 70.53125 L 206.597656 72.328125 L 206.058594 72.960938 C 206.238281 76.199219 206.328125 78.089844 206.328125 80.25 C 206.328125 81.960938 206.328125 83.761719 206.238281 85.46875 L 206.867188 86.011719 C 212.988281 84.929688 214.699219 84.75 221.089844 83.941406 Z M 248.808594 140.371094 C 248.359375 130.019531 247.910156 120.570312 247.910156 92.128906 C 247.910156 83.578125 248 79.53125 248.359375 69.808594 L 247.730469 69.179688 L 232.339844 71.609375 L 231.980469 72.148438 C 232.878906 83.128906 232.96875 86.101562 233.148438 100.679688 C 233.242188 105.988281 233.242188 111.300781 233.242188 116.609375 C 233.242188 126.328125 233.058594 131.730469 232.699219 140.640625 L 233.242188 141.269531 C 239.269531 141 241.699219 140.910156 248.269531 141 Z M 275.089844 140.371094 C 274.640625 130.019531 274.191406 120.570312 274.191406 92.128906 C 274.191406 83.578125 274.28125 79.53125 274.640625 69.808594 L 274.011719 69.179688 L 258.621094 71.609375 L 258.261719 72.148438 C 259.160156 83.128906 259.25 86.101562 259.429688 100.679688 C 259.523438 105.988281 259.523438 111.300781 259.523438 116.609375 C 259.523438 126.328125 259.339844 131.730469 258.980469 140.640625 L 259.523438 141.269531 C 265.550781 141 267.980469 140.910156 274.550781 141 Z M 301.820312 140.371094 C 301.367188 133.441406 301.007812 128.128906 301.007812 115.710938 C 301.007812 108.058594 301.1875 100.320312 301.277344 92.671875 L 300.648438 91.949219 L 285.167969 94.648438 L 284.628906 95.191406 C 285.347656 102.03125 285.617188 105.179688 285.617188 117.960938 C 285.617188 127.769531 285.347656 133.261719 285.078125 140.640625 L 285.617188 141.269531 C 292.097656 141 293.898438 140.910156 301.1875 141 L 301.820312 140.371094 M 300.378906 83.308594 L 300.648438 71.070312 L 300.109375 70.53125 L 285.4375 72.328125 L 284.898438 72.960938 C 285.078125 76.199219 285.167969 78.089844 285.167969 80.25 C 285.167969 81.960938 285.167969 83.761719 285.078125 85.46875 L 285.707031 86.011719 C 291.828125 84.929688 293.539062 84.75 299.929688 83.941406 Z M 351.859375 114.179688 C 351.949219 106.078125 351.949219 102.570312 349.609375 98.789062 C 347.808594 95.910156 344.210938 92.308594 332.691406 92.308594 C 324.949219 92.308594 320.179688 93.75 315.050781 95.28125 L 314.511719 96 L 314.058594 105.808594 L 314.78125 106.171875 C 317.929688 104.910156 323.78125 102.570312 329.808594 102.570312 C 333.140625 102.570312 334.488281 103.109375 335.660156 104.28125 C 336.558594 105.179688 336.832031 106.800781 336.832031 108.148438 C 326.03125 109.589844 320.988281 110.578125 315.589844 113.910156 C 310.550781 117.058594 308.839844 122.191406 308.839844 126.238281 C 308.839844 135.871094 315.769531 142.078125 324.589844 142.078125 C 331.339844 142.078125 335.210938 138.839844 337.101562 137.308594 L 337.101562 140.640625 L 337.640625 141.269531 C 344.121094 141 346.101562 140.910156 351.949219 141 L 352.398438 140.371094 C 351.769531 131.550781 351.769531 129.300781 351.769531 120.839844 L 351.859375 114.179688 M 337.011719 128.488281 C 335.121094 129.570312 332.691406 130.828125 329.71875 130.828125 C 326.480469 130.828125 323.78125 129.121094 323.78125 125.339844 C 323.78125 119.398438 330.890625 118.410156 337.011719 117.601562 Z M 388.398438 107.609375 L 390.917969 92.941406 L 390.378906 92.308594 C 389.75 92.308594 389.117188 92.21875 388.488281 92.21875 C 384.796875 92.21875 380.660156 94.289062 377.777344 100.949219 L 378.046875 92.671875 L 377.328125 91.949219 C 370.667969 93.390625 368.957031 93.660156 362.386719 94.648438 L 361.847656 95.191406 C 362.386719 101.941406 362.660156 105.988281 362.660156 118.5 C 362.660156 125.878906 362.566406 133.261719 362.386719 140.730469 L 362.929688 141.269531 C 369.589844 141 371.027344 140.910156 378.226562 141 L 378.679688 140.371094 C 378.316406 133.078125 377.777344 122.910156 377.777344 116.699219 C 377.777344 112.648438 377.777344 106.710938 383.898438 106.710938 C 385.429688 106.710938 386.328125 107.25 387.589844 107.96875 Z M 440.238281 140.460938 C 439.878906 132.359375 439.609375 126.960938 439.609375 115.171875 C 439.609375 91.410156 439.96875 81.601562 440.328125 69.71875 L 439.699219 69.179688 L 424.847656 71.519531 L 424.398438 72.058594 C 424.9375 80.519531 425.027344 82.769531 424.9375 93.03125 C 418.1875 92.851562 409.726562 92.671875 402.886719 98.070312 C 396.589844 102.929688 393.976562 110.398438 393.976562 119.671875 C 393.976562 126.691406 395.867188 133.710938 401.179688 138.121094 C 405.136719 141.359375 410 142.078125 412.96875 142.078125 C 419.359375 142.078125 422.6875 139.109375 424.847656 137.21875 L 424.667969 140.730469 L 425.117188 141.269531 C 431.328125 141 433.039062 141 439.789062 141 L 440.238281 140.460938 M 424.9375 103.828125 C 425.027344 115.800781 424.9375 118.140625 424.667969 129.03125 C 422.867188 130.109375 421.066406 131.191406 418.546875 131.191406 C 409.816406 131.191406 409.816406 120.03125 409.816406 118.230469 C 409.816406 111.300781 411.796875 103.558594 421.878906 103.558594 C 422.867188 103.558594 423.679688 103.648438 424.9375 103.828125 Z M 497.117188 116.25 C 503.148438 126.511719 504.5 129.210938 510.257812 141 L 510.980469 141.449219 C 513.769531 141.269531 516.46875 141.089844 519.257812 141 C 522.050781 140.910156 524.929688 140.820312 527.71875 140.820312 L 528.257812 139.738281 C 524.839844 135.328125 523.847656 133.980469 517.367188 123.628906 C 514.488281 119.039062 513.050781 116.609375 510.800781 112.648438 C 514.847656 110.851562 523.039062 107.070312 523.039062 95.640625 C 523.039062 91.679688 521.957031 83.488281 514.578125 79.621094 C 509.898438 77.191406 505.039062 77.101562 494.507812 77.28125 L 488.207031 77.371094 L 477.230469 77.371094 L 476.777344 77.910156 C 477.140625 87 477.5 96.359375 477.5 120.839844 C 477.5 129.210938 477.410156 133.261719 477.140625 140.730469 L 477.679688 141.269531 C 484.25 141 485.6875 140.910156 493.070312 141 L 493.609375 140.460938 C 492.890625 130.019531 492.800781 127.140625 492.707031 116.429688 L 497.117188 116.25 M 492.890625 88.261719 C 494.148438 88.171875 495.410156 88.171875 496.667969 88.171875 C 500.179688 88.171875 507.109375 88.171875 507.109375 96.089844 C 507.109375 98.609375 506.480469 101.941406 503.148438 104.011719 C 500.628906 105.539062 497.390625 105.71875 492.890625 105.808594 Z M 572.988281 127.679688 C 569.570312 129.480469 565.519531 131.550781 558.949219 131.550781 C 553.550781 131.550781 549.859375 129.839844 547.699219 126.601562 C 546.347656 124.710938 546.078125 122.910156 545.71875 121.109375 L 574.789062 120.570312 L 575.328125 119.941406 C 575.238281 115.53125 575.148438 111.03125 573.890625 106.53125 C 570.738281 95.910156 563.808594 93.75 560.75 93.03125 C 558.5 92.398438 556.429688 92.21875 554.359375 92.21875 C 540.230469 92.21875 530.867188 101.488281 530.867188 117.058594 C 530.867188 121.289062 531.589844 125.699219 533.027344 128.851562 C 538.25 141 550.488281 142.078125 556.96875 142.078125 C 564.4375 142.078125 567.679688 140.730469 572.449219 138.839844 L 572.988281 138.121094 L 573.617188 127.949219 L 572.988281 127.679688 M 545.71875 111.570312 C 545.988281 108.78125 546.617188 105 550.039062 102.839844 C 551.117188 102.121094 552.378906 101.851562 553.640625 101.851562 C 556.609375 101.851562 558.410156 103.378906 559.398438 105 C 560.660156 106.980469 560.75 109.140625 560.75 111.210938 Z M 627.710938 140.460938 C 627.351562 132.359375 627.082031 126.960938 627.082031 115.171875 C 627.082031 91.410156 627.441406 81.601562 627.800781 69.71875 L 627.171875 69.179688 L 612.320312 71.519531 L 611.871094 72.058594 C 612.410156 80.519531 612.5 82.769531 612.410156 93.03125 C 605.660156 92.851562 597.199219 92.671875 590.359375 98.070312 C 584.0625 102.929688 581.449219 110.398438 581.449219 119.671875 C 581.449219 126.691406 583.339844 133.710938 588.652344 138.121094 C 592.609375 141.359375 597.472656 142.078125 600.441406 142.078125 C 606.832031 142.078125 610.160156 139.109375 612.320312 137.21875 L 612.140625 140.730469 L 612.589844 141.269531 C 618.800781 141 620.511719 141 627.261719 141 L 627.710938 140.460938 M 612.410156 103.828125 C 612.5 115.800781 612.410156 118.140625 612.140625 129.03125 C 610.339844 130.109375 608.539062 131.191406 606.019531 131.191406 C 597.289062 131.191406 597.289062 120.03125 597.289062 118.230469 C 597.289062 111.300781 599.269531 103.558594 609.351562 103.558594 C 610.339844 103.558594 611.152344 103.648438 612.410156 103.828125 Z M 693.589844 140.371094 C 697.191406 126.421875 697.820312 124.261719 703.21875 104.910156 C 704.300781 101.21875 705.289062 97.441406 706.28125 93.75 L 705.742188 93.03125 L 694.039062 93.300781 L 693.410156 93.929688 L 690.800781 107.429688 L 688.28125 118.320312 L 686.570312 126.601562 L 685.039062 118.589844 L 683.058594 109.230469 L 679.910156 93.660156 L 679.371094 93.03125 L 662.089844 93.300781 L 661.460938 93.929688 L 658.492188 108.691406 L 656.332031 118.589844 L 654.621094 126.871094 L 652.910156 117.960938 L 650.75 108.238281 L 647.691406 93.300781 L 647.148438 92.851562 L 632.570312 93.929688 L 632.03125 94.648438 C 640.492188 124.351562 641.839844 129.660156 644.359375 140.730469 L 644.992188 141.269531 C 651.199219 141 653.449219 140.910156 661.730469 141 L 662.269531 140.371094 L 664.609375 129.390625 L 667.128906 118.5 L 669.378906 107.609375 L 670.730469 114.449219 L 672.082031 121.109375 L 675.859375 140.640625 L 676.492188 141.269531 C 683.148438 141 685.851562 140.910156 693.050781 141 Z M 756.859375 117.058594 C 756.859375 113.550781 756.859375 98.96875 744.257812 94.019531 C 740.296875 92.488281 735.617188 92.308594 733.277344 92.308594 C 717.617188 92.308594 708.796875 100.679688 708.796875 117.238281 C 708.796875 123 709.699219 128.851562 713.027344 133.710938 C 715.367188 137.21875 719.777344 142.078125 732.648438 142.078125 C 751.726562 142.078125 756.859375 130.558594 756.859375 117.058594 M 741.289062 116.96875 C 741.289062 124.351562 740.296875 132.539062 732.828125 132.539062 C 730.488281 132.539062 728.867188 131.460938 727.789062 130.46875 C 726.257812 128.941406 724.546875 125.878906 724.546875 117.148438 C 724.546875 114.539062 724.546875 108.78125 726.347656 105.628906 C 727.699219 103.199219 730.039062 101.578125 732.917969 101.578125 C 735.4375 101.578125 737.507812 102.929688 738.679688 104.371094 C 740.839844 106.980469 741.289062 112.109375 741.289062 116.96875 Z M 811.21875 117.058594 C 811.21875 113.550781 811.21875 98.96875 798.617188 94.019531 C 794.65625 92.488281 789.976562 92.308594 787.636719 92.308594 C 771.976562 92.308594 763.15625 100.679688 763.15625 117.238281 C 763.15625 123 764.058594 128.851562 767.386719 133.710938 C 769.726562 137.21875 774.136719 142.078125 787.007812 142.078125 C 806.085938 142.078125 811.21875 130.558594 811.21875 117.058594 M 795.648438 116.96875 C 795.648438 124.351562 794.65625 132.539062 787.1875 132.539062 C 784.847656 132.539062 783.226562 131.460938 782.148438 130.46875 C 780.617188 128.941406 778.90625 125.878906 778.90625 117.148438 C 778.90625 114.539062 778.90625 108.78125 780.707031 105.628906 C 782.058594 103.199219 784.398438 101.578125 787.277344 101.578125 C 789.796875 101.578125 791.867188 102.929688 793.039062 104.371094 C 795.199219 106.980469 795.648438 112.109375 795.648438 116.96875 Z M 863.871094 140.460938 C 863.511719 132.359375 863.242188 126.960938 863.242188 115.171875 C 863.242188 91.410156 863.601562 81.601562 863.960938 69.71875 L 863.332031 69.179688 L 848.480469 71.519531 L 848.03125 72.058594 C 848.570312 80.519531 848.660156 82.769531 848.570312 93.03125 C 841.820312 92.851562 833.359375 92.671875 826.519531 98.070312 C 820.222656 102.929688 817.609375 110.398438 817.609375 119.671875 C 817.609375 126.691406 819.5 133.710938 824.8125 138.121094 C 828.769531 141.359375 833.632812 142.078125 836.601562 142.078125 C 842.992188 142.078125 846.320312 139.109375 848.480469 137.21875 L 848.300781 140.730469 L 848.75 141.269531 C 854.960938 141 856.671875 141 863.421875 141 L 863.871094 140.460938 M 848.570312 103.828125 C 848.660156 115.800781 848.570312 118.140625 848.300781 129.03125 C 846.5 130.109375 844.699219 131.191406 842.179688 131.191406 C 833.449219 131.191406 833.449219 120.03125 833.449219 118.230469 C 833.449219 111.300781 835.429688 103.558594 845.511719 103.558594 C 846.5 103.558594 847.3125 103.648438 848.570312 103.828125 Z M 893.03125 109.949219 C 889.96875 108.871094 887.539062 107.878906 887.539062 105.359375 C 887.539062 104.28125 888.261719 101.308594 893.839844 101.308594 C 899.332031 101.308594 902.839844 103.648438 905.089844 105.089844 L 905.902344 104.820312 L 906.800781 95.011719 L 906.351562 94.46875 C 902.121094 93.300781 898.429688 92.21875 892.582031 92.21875 C 888.171875 92.21875 879.351562 92.578125 874.671875 99.328125 C 873.5 100.949219 872.242188 103.648438 872.242188 107.25 C 872.242188 116.878906 879.710938 119.761719 883.941406 121.378906 L 887.359375 122.640625 C 889.789062 123.449219 893.75 124.800781 893.75 128.039062 C 893.75 130.289062 891.679688 132.71875 886.640625 132.71875 C 884.121094 132.71875 880.429688 131.910156 877.101562 130.199219 C 875.570312 129.390625 874.851562 128.761719 873.5 127.679688 L 872.691406 128.039062 C 872.511719 132.71875 872.421875 133.710938 872.058594 138.210938 L 872.511719 139.019531 C 876.921875 140.640625 880.699219 142.078125 887.269531 142.078125 C 894.109375 142.078125 907.609375 140.820312 909.230469 127.949219 C 909.320312 127.230469 909.320312 126.601562 909.320312 125.96875 C 909.320312 116.070312 902.390625 113.460938 897.441406 111.570312 Z M 911.839844 141 "/>
<path fill-rule="nonzero" fill="rgb(34.901961%, 14.901961%, 14.901961%)" fill-opacity="1" d="M 245.074219 222.300781 C 237.515625 219.148438 233.554688 217.53125 233.554688 213.480469 C 233.554688 210.691406 236.164062 207.179688 242.105469 207.179688 C 248.945312 207.179688 252.992188 209.96875 256.324219 212.21875 L 257.132812 211.859375 L 257.855469 200.070312 L 257.402344 199.441406 C 253.535156 197.820312 249.484375 196.109375 240.753906 196.109375 C 223.835938 196.109375 217.984375 205.648438 217.984375 215.28125 C 217.984375 226.171875 226.445312 230.128906 231.484375 232.558594 L 234.453125 233.910156 C 240.664062 236.519531 245.433594 238.769531 245.433594 243.539062 C 245.433594 246.960938 242.464844 251.011719 234.632812 251.011719 C 226.445312 251.011719 221.855469 247.410156 219.242188 245.339844 L 218.34375 245.609375 L 217.714844 258.300781 L 218.253906 259.019531 C 219.242188 259.378906 220.234375 259.828125 221.222656 260.101562 C 223.292969 260.820312 228.605469 262.351562 235.355469 262.351562 C 238.054688 262.351562 244.894531 262.078125 250.292969 259.558594 C 257.855469 255.871094 261.09375 249.03125 261.09375 241.378906 C 261.09375 236.25 259.113281 230.761719 254.34375 227.070312 C 251.914062 225.269531 249.574219 224.191406 247.414062 223.199219 Z M 294.84375 250.648438 C 293.3125 251.101562 292.230469 251.460938 290.703125 251.460938 C 286.113281 251.460938 285.753906 248.578125 285.570312 247.230469 C 285.300781 244.890625 285.300781 239.941406 285.390625 236.339844 L 285.570312 223.648438 L 293.671875 224.011719 L 294.210938 223.46875 L 295.113281 213.839844 L 294.570312 213.300781 L 285.570312 213.300781 L 285.84375 198.179688 L 285.210938 197.640625 C 279.09375 199.441406 277.472656 199.890625 271.082031 201.511719 L 270.722656 202.140625 L 270.8125 213.390625 L 265.953125 213.210938 L 265.414062 213.660156 L 264.601562 223.289062 L 265.140625 223.828125 L 270.8125 223.648438 L 270.542969 237.960938 C 270.453125 240.210938 270.363281 242.460938 270.363281 244.800781 C 270.363281 253.078125 270.542969 261.988281 284.582031 261.988281 C 288.09375 261.988281 290.882812 261.449219 294.03125 260.910156 L 294.664062 260.28125 L 295.5625 251.011719 Z M 341.554688 234.179688 C 341.644531 226.078125 341.644531 222.570312 339.304688 218.789062 C 337.503906 215.910156 333.90625 212.308594 322.386719 212.308594 C 314.644531 212.308594 309.875 213.75 304.746094 215.28125 L 304.207031 216 L 303.753906 225.808594 L 304.476562 226.171875 C 307.625 224.910156 313.476562 222.570312 319.503906 222.570312 C 322.835938 222.570312 324.183594 223.109375 325.355469 224.28125 C 326.253906 225.179688 326.527344 226.800781 326.527344 228.148438 C 315.726562 229.589844 310.683594 230.578125 305.285156 233.910156 C 300.246094 237.058594 298.535156 242.191406 298.535156 246.238281 C 298.535156 255.871094 305.464844 262.078125 314.285156 262.078125 C 321.035156 262.078125 324.90625 258.839844 326.796875 257.308594 L 326.796875 260.640625 L 327.335938 261.269531 C 333.816406 261 335.796875 260.910156 341.644531 261 L 342.09375 260.371094 C 341.464844 251.550781 341.464844 249.300781 341.464844 240.839844 L 341.554688 234.179688 M 326.707031 248.488281 C 324.816406 249.570312 322.386719 250.828125 319.414062 250.828125 C 316.175781 250.828125 313.476562 249.121094 313.476562 245.339844 C 313.476562 239.398438 320.585938 238.410156 326.707031 237.601562 Z M 377.285156 250.648438 C 375.753906 251.101562 374.671875 251.460938 373.144531 251.460938 C 368.554688 251.460938 368.195312 248.578125 368.011719 247.230469 C 367.742188 244.890625 367.742188 239.941406 367.832031 236.339844 L 368.011719 223.648438 L 376.113281 224.011719 L 376.652344 223.46875 L 377.554688 213.839844 L 377.011719 213.300781 L 368.011719 213.300781 L 368.285156 198.179688 L 367.652344 197.640625 C 361.535156 199.441406 359.914062 199.890625 353.523438 201.511719 L 353.164062 202.140625 L 353.253906 213.390625 L 348.394531 213.210938 L 347.855469 213.660156 L 347.042969 223.289062 L 347.582031 223.828125 L 353.253906 223.648438 L 352.984375 237.960938 C 352.894531 240.210938 352.804688 242.460938 352.804688 244.800781 C 352.804688 253.078125 352.984375 261.988281 367.023438 261.988281 C 370.535156 261.988281 373.324219 261.449219 376.472656 260.910156 L 377.105469 260.28125 L 378.003906 251.011719 Z M 423.902344 247.679688 C 420.484375 249.480469 416.433594 251.550781 409.863281 251.550781 C 404.464844 251.550781 400.773438 249.839844 398.613281 246.601562 C 397.261719 244.710938 396.992188 242.910156 396.632812 241.109375 L 425.703125 240.570312 L 426.242188 239.941406 C 426.152344 235.53125 426.0625 231.03125 424.804688 226.53125 C 421.652344 215.910156 414.722656 213.75 411.664062 213.03125 C 409.414062 212.398438 407.34375 212.21875 405.273438 212.21875 C 391.144531 212.21875 381.78125 221.488281 381.78125 237.058594 C 381.78125 241.289062 382.503906 245.699219 383.941406 248.851562 C 389.164062 261 401.402344 262.078125 407.882812 262.078125 C 415.351562 262.078125 418.59375 260.730469 423.363281 258.839844 L 423.902344 258.121094 L 424.53125 247.949219 L 423.902344 247.679688 M 396.632812 231.570312 C 396.902344 228.78125 397.53125 225 400.953125 222.839844 C 402.03125 222.121094 403.292969 221.851562 404.554688 221.851562 C 407.523438 221.851562 409.324219 223.378906 410.3125 225 C 411.574219 226.980469 411.664062 229.140625 411.664062 231.210938 Z M 514.890625 197.191406 C 509.222656 197.460938 507.691406 197.550781 502.113281 197.460938 L 501.664062 198 L 502.292969 210.148438 L 502.652344 222.570312 L 503.011719 237.421875 C 500.402344 233.011719 499.953125 232.289062 495.363281 225.449219 L 487.171875 213.480469 C 480.421875 203.21875 479.074219 201.238281 476.824219 197.640625 L 476.191406 197.191406 C 469.082031 197.550781 467.914062 197.550781 461.34375 197.460938 L 460.890625 198 C 461.34375 211.949219 461.613281 222.300781 461.613281 234.359375 C 461.613281 243.179688 461.433594 252 461.34375 260.730469 L 461.792969 261.269531 C 467.824219 261 469.710938 261 474.933594 261 L 475.382812 260.460938 L 474.480469 240.75 L 474.210938 229.679688 L 473.671875 217.621094 C 477.902344 224.640625 479.34375 226.980469 485.460938 235.890625 L 494.460938 249.121094 L 502.472656 260.820312 L 503.101562 261.269531 C 508.59375 261 510.210938 261 514.980469 261 L 515.433594 260.550781 C 515.34375 247.5 515.253906 238.679688 515.253906 227.878906 C 515.253906 217.800781 515.34375 207.808594 515.433594 197.730469 Z M 566.464844 234.179688 C 566.554688 226.078125 566.554688 222.570312 564.214844 218.789062 C 562.414062 215.910156 558.816406 212.308594 547.296875 212.308594 C 539.554688 212.308594 534.785156 213.75 529.65625 215.28125 L 529.117188 216 L 528.664062 225.808594 L 529.386719 226.171875 C 532.535156 224.910156 538.386719 222.570312 544.414062 222.570312 C 547.746094 222.570312 549.09375 223.109375 550.265625 224.28125 C 551.164062 225.179688 551.4375 226.800781 551.4375 228.148438 C 540.636719 229.589844 535.59375 230.578125 530.195312 233.910156 C 525.15625 237.058594 523.445312 242.191406 523.445312 246.238281 C 523.445312 255.871094 530.375 262.078125 539.195312 262.078125 C 545.945312 262.078125 549.816406 258.839844 551.707031 257.308594 L 551.707031 260.640625 L 552.246094 261.269531 C 558.726562 261 560.707031 260.910156 566.554688 261 L 567.003906 260.371094 C 566.375 251.550781 566.375 249.300781 566.375 240.839844 L 566.464844 234.179688 M 551.617188 248.488281 C 549.726562 249.570312 547.296875 250.828125 544.324219 250.828125 C 541.085938 250.828125 538.386719 249.121094 538.386719 245.339844 C 538.386719 239.398438 545.496094 238.410156 551.617188 237.601562 Z M 602.195312 250.648438 C 600.664062 251.101562 599.582031 251.460938 598.054688 251.460938 C 593.464844 251.460938 593.105469 248.578125 592.921875 247.230469 C 592.652344 244.890625 592.652344 239.941406 592.742188 236.339844 L 592.921875 223.648438 L 601.023438 224.011719 L 601.5625 223.46875 L 602.464844 213.839844 L 601.921875 213.300781 L 592.921875 213.300781 L 593.195312 198.179688 L 592.5625 197.640625 C 586.445312 199.441406 584.824219 199.890625 578.433594 201.511719 L 578.074219 202.140625 L 578.164062 213.390625 L 573.304688 213.210938 L 572.765625 213.660156 L 571.953125 223.289062 L 572.492188 223.828125 L 578.164062 223.648438 L 577.894531 237.960938 C 577.804688 240.210938 577.714844 242.460938 577.714844 244.800781 C 577.714844 253.078125 577.894531 261.988281 591.933594 261.988281 C 595.445312 261.988281 598.234375 261.449219 601.382812 260.910156 L 602.015625 260.28125 L 602.914062 251.011719 Z M 652.054688 212.851562 L 637.382812 213.570312 L 636.753906 214.109375 C 637.382812 224.28125 637.382812 238.679688 637.382812 240.121094 C 637.382812 242.730469 637.382812 244.171875 637.292969 247.769531 C 634.863281 249.390625 632.972656 250.738281 630.542969 250.738281 C 624.0625 250.738281 624.0625 243.898438 624.0625 238.589844 C 624.0625 236.339844 624.0625 234 624.152344 231.75 L 624.332031 213.570312 L 623.703125 212.851562 L 608.851562 213.570312 L 608.222656 214.109375 C 608.761719 221.671875 608.851562 224.191406 608.851562 233.28125 L 608.851562 239.578125 C 608.761719 249.390625 609.214844 253.53125 612.453125 257.308594 C 615.421875 260.640625 619.742188 262.078125 624.242188 262.078125 C 630.632812 262.078125 634.324219 259.199219 637.5625 256.679688 L 637.472656 260.730469 L 638.101562 261.269531 C 644.671875 261 646.652344 261 652.503906 261 L 653.042969 260.460938 C 652.59375 254.070312 652.414062 250.648438 652.414062 238.949219 C 652.414062 230.488281 652.503906 222.03125 652.683594 213.570312 Z M 689.222656 227.609375 L 691.742188 212.941406 L 691.203125 212.308594 C 690.574219 212.308594 689.941406 212.21875 689.3125 212.21875 C 685.621094 212.21875 681.484375 214.289062 678.601562 220.949219 L 678.871094 212.671875 L 678.152344 211.949219 C 671.492188 213.390625 669.78125 213.660156 663.210938 214.648438 L 662.671875 215.191406 C 663.210938 221.941406 663.484375 225.988281 663.484375 238.5 C 663.484375 245.878906 663.390625 253.261719 663.210938 260.730469 L 663.753906 261.269531 C 670.414062 261 671.851562 260.910156 679.050781 261 L 679.503906 260.371094 C 679.140625 253.078125 678.601562 242.910156 678.601562 236.699219 C 678.601562 232.648438 678.601562 226.710938 684.722656 226.710938 C 686.253906 226.710938 687.152344 227.25 688.414062 227.96875 Z M 737.011719 234.179688 C 737.101562 226.078125 737.101562 222.570312 734.761719 218.789062 C 732.960938 215.910156 729.363281 212.308594 717.84375 212.308594 C 710.101562 212.308594 705.332031 213.75 700.203125 215.28125 L 699.664062 216 L 699.210938 225.808594 L 699.933594 226.171875 C 703.082031 224.910156 708.933594 222.570312 714.960938 222.570312 C 718.292969 222.570312 719.640625 223.109375 720.8125 224.28125 C 721.710938 225.179688 721.984375 226.800781 721.984375 228.148438 C 711.183594 229.589844 706.140625 230.578125 700.742188 233.910156 C 695.703125 237.058594 693.992188 242.191406 693.992188 246.238281 C 693.992188 255.871094 700.921875 262.078125 709.742188 262.078125 C 716.492188 262.078125 720.363281 258.839844 722.253906 257.308594 L 722.253906 260.640625 L 722.792969 261.269531 C 729.273438 261 731.253906 260.910156 737.101562 261 L 737.550781 260.371094 C 736.921875 251.550781 736.921875 249.300781 736.921875 240.839844 L 737.011719 234.179688 M 722.164062 248.488281 C 720.273438 249.570312 717.84375 250.828125 714.871094 250.828125 C 711.632812 250.828125 708.933594 249.121094 708.933594 245.339844 C 708.933594 239.398438 716.042969 238.410156 722.164062 237.601562 Z M 763.382812 260.371094 C 762.933594 250.019531 762.484375 240.570312 762.484375 212.128906 C 762.484375 203.578125 762.574219 199.53125 762.933594 189.808594 L 762.304688 189.179688 L 746.914062 191.609375 L 746.554688 192.148438 C 747.453125 203.128906 747.542969 206.101562 747.722656 220.679688 C 747.816406 225.988281 747.816406 231.300781 747.816406 236.609375 C 747.816406 246.328125 747.632812 251.730469 747.273438 260.640625 L 747.816406 261.269531 C 753.84375 261 756.273438 260.910156 762.84375 261 Z M 768.425781 261 "/>
<path fill-rule="nonzero" fill="rgb(34.901961%, 14.901961%, 14.901961%)" fill-opacity="1" d="M 351.453125 356.25 C 357.484375 366.511719 358.835938 369.210938 364.59375 381 L 365.316406 381.449219 C 368.105469 381.269531 370.804688 381.089844 373.59375 381 C 376.386719 380.910156 379.265625 380.820312 382.054688 380.820312 L 382.59375 379.738281 C 379.175781 375.328125 378.183594 373.980469 371.703125 363.628906 C 368.824219 359.039062 367.386719 356.609375 365.136719 352.648438 C 369.183594 350.851562 377.375 347.070312 377.375 335.640625 C 377.375 331.679688 376.292969 323.488281 368.914062 319.621094 C 364.234375 317.191406 359.375 317.101562 348.84375 317.28125 L 342.542969 317.371094 L 331.566406 317.371094 L 331.113281 317.910156 C 331.476562 327 331.835938 336.359375 331.835938 360.839844 C 331.835938 369.210938 331.746094 373.261719 331.476562 380.730469 L 332.015625 381.269531 C 338.585938 381 340.023438 380.910156 347.40625 381 L 347.945312 380.460938 C 347.226562 370.019531 347.136719 367.140625 347.042969 356.429688 L 351.453125 356.25 M 347.226562 328.261719 C 348.484375 328.171875 349.746094 328.171875 351.003906 328.171875 C 354.515625 328.171875 361.445312 328.171875 361.445312 336.089844 C 361.445312 338.609375 360.816406 341.941406 357.484375 344.011719 C 354.964844 345.539062 351.726562 345.71875 347.226562 345.808594 Z M 427.324219 367.679688 C 423.90625 369.480469 419.855469 371.550781 413.285156 371.550781 C 407.886719 371.550781 404.195312 369.839844 402.035156 366.601562 C 400.683594 364.710938 400.414062 362.910156 400.054688 361.109375 L 429.125 360.570312 L 429.664062 359.941406 C 429.574219 355.53125 429.484375 351.03125 428.226562 346.53125 C 425.074219 335.910156 418.144531 333.75 415.085938 333.03125 C 412.835938 332.398438 410.765625 332.21875 408.695312 332.21875 C 394.566406 332.21875 385.203125 341.488281 385.203125 357.058594 C 385.203125 361.289062 385.925781 365.699219 387.363281 368.851562 C 392.585938 381 404.824219 382.078125 411.304688 382.078125 C 418.773438 382.078125 422.015625 380.730469 426.785156 378.839844 L 427.324219 378.121094 L 427.953125 367.949219 L 427.324219 367.679688 M 400.054688 351.570312 C 400.324219 348.78125 400.953125 345 404.375 342.839844 C 405.453125 342.121094 406.714844 341.851562 407.976562 341.851562 C 410.945312 341.851562 412.746094 343.378906 413.734375 345 C 414.996094 346.980469 415.085938 349.140625 415.085938 351.210938 Z M 456.84375 349.949219 C 453.78125 348.871094 451.351562 347.878906 451.351562 345.359375 C 451.351562 344.28125 452.074219 341.308594 457.652344 341.308594 C 463.144531 341.308594 466.652344 343.648438 468.902344 345.089844 L 469.714844 344.820312 L 470.613281 335.011719 L 470.164062 334.46875 C 465.933594 333.300781 462.242188 332.21875 456.394531 332.21875 C 451.984375 332.21875 443.164062 332.578125 438.484375 339.328125 C 437.3125 340.949219 436.054688 343.648438 436.054688 347.25 C 436.054688 356.878906 443.523438 359.761719 447.753906 361.378906 L 451.171875 362.640625 C 453.601562 363.449219 457.5625 364.800781 457.5625 368.039062 C 457.5625 370.289062 455.492188 372.71875 450.453125 372.71875 C 447.933594 372.71875 444.242188 371.910156 440.914062 370.199219 C 439.382812 369.390625 438.664062 368.761719 437.3125 367.679688 L 436.503906 368.039062 C 436.324219 372.71875 436.234375 373.710938 435.871094 378.210938 L 436.324219 379.019531 C 440.734375 380.640625 444.511719 382.078125 451.082031 382.078125 C 457.921875 382.078125 471.421875 380.820312 473.042969 367.949219 C 473.132812 367.230469 473.132812 366.601562 473.132812 365.96875 C 473.132812 356.070312 466.203125 353.460938 461.253906 351.570312 Z M 521.015625 367.679688 C 517.597656 369.480469 513.546875 371.550781 506.976562 371.550781 C 501.578125 371.550781 497.886719 369.839844 495.726562 366.601562 C 494.375 364.710938 494.105469 362.910156 493.746094 361.109375 L 522.816406 360.570312 L 523.355469 359.941406 C 523.265625 355.53125 523.175781 351.03125 521.917969 346.53125 C 518.765625 335.910156 511.835938 333.75 508.777344 333.03125 C 506.527344 332.398438 504.457031 332.21875 502.386719 332.21875 C 488.257812 332.21875 478.894531 341.488281 478.894531 357.058594 C 478.894531 361.289062 479.617188 365.699219 481.054688 368.851562 C 486.277344 381 498.515625 382.078125 504.996094 382.078125 C 512.464844 382.078125 515.707031 380.730469 520.476562 378.839844 L 521.015625 378.121094 L 521.644531 367.949219 L 521.015625 367.679688 M 493.746094 351.570312 C 494.015625 348.78125 494.644531 345 498.066406 342.839844 C 499.144531 342.121094 500.40625 341.851562 501.667969 341.851562 C 504.636719 341.851562 506.4375 343.378906 507.425781 345 C 508.6875 346.980469 508.777344 349.140625 508.777344 351.210938 Z M 557.644531 347.609375 L 560.164062 332.941406 L 559.625 332.308594 C 558.996094 332.308594 558.363281 332.21875 557.734375 332.21875 C 554.042969 332.21875 549.90625 334.289062 547.023438 340.949219 L 547.292969 332.671875 L 546.574219 331.949219 C 539.914062 333.390625 538.203125 333.660156 531.632812 334.648438 L 531.09375 335.191406 C 531.632812 341.941406 531.90625 345.988281 531.90625 358.5 C 531.90625 365.878906 531.8125 373.261719 531.632812 380.730469 L 532.175781 381.269531 C 538.835938 381 540.273438 380.910156 547.472656 381 L 547.925781 380.371094 C 547.5625 373.078125 547.023438 362.910156 547.023438 356.699219 C 547.023438 352.648438 547.023438 346.710938 553.144531 346.710938 C 554.675781 346.710938 555.574219 347.25 556.835938 347.96875 Z M 590.222656 380.28125 C 593.105469 371.28125 594.8125 365.699219 596.703125 360.03125 C 599.132812 352.738281 603.09375 341.039062 605.613281 333.660156 L 605.164062 333.03125 L 592.5625 333.300781 L 591.933594 333.929688 C 590.675781 339.960938 590.40625 341.21875 588.605469 348.238281 L 584.015625 365.96875 L 581.765625 356.25 L 580.054688 349.320312 C 577.804688 340.949219 577.445312 339.238281 576.183594 333.300781 L 575.554688 332.761719 C 568.445312 333.570312 566.644531 333.660156 559.804688 333.75 L 559.445312 334.46875 C 571.414062 369.929688 572.40625 373.261719 574.382812 380.640625 L 575.015625 381.269531 C 580.863281 381 583.203125 380.910156 589.683594 381 Z M 650.34375 367.679688 C 646.925781 369.480469 642.875 371.550781 636.304688 371.550781 C 630.90625 371.550781 627.214844 369.839844 625.054688 366.601562 C 623.703125 364.710938 623.433594 362.910156 623.074219 361.109375 L 652.144531 360.570312 L 652.683594 359.941406 C 652.59375 355.53125 652.503906 351.03125 651.246094 346.53125 C 648.09375 335.910156 641.164062 333.75 638.105469 333.03125 C 635.855469 332.398438 633.785156 332.21875 631.714844 332.21875 C 617.585938 332.21875 608.222656 341.488281 608.222656 357.058594 C 608.222656 361.289062 608.945312 365.699219 610.382812 368.851562 C 615.605469 381 627.84375 382.078125 634.324219 382.078125 C 641.792969 382.078125 645.035156 380.730469 649.804688 378.839844 L 650.34375 378.121094 L 650.972656 367.949219 L 650.34375 367.679688 M 623.074219 351.570312 C 623.34375 348.78125 623.972656 345 627.394531 342.839844 C 628.472656 342.121094 629.734375 341.851562 630.996094 341.851562 C 633.964844 341.851562 635.765625 343.378906 636.753906 345 C 638.015625 346.980469 638.105469 349.140625 638.105469 351.210938 Z M 655.566406 381 "/>
</svg>
