<?xml version="1.0" encoding="UTF-8"?>
<svg xmlns="http://www.w3.org/2000/svg" xmlns:xlink="http://www.w3.org/1999/xlink" width="975" height="1300" viewBox="0 0 975 1300">
<path fill-rule="nonzero" fill="rgb(98.823529%, 78.823529%, 9.019608%)" fill-opacity="1" d="M 50 50 L 925 50 L 925 410 L 50 410 Z M 50 50 "/>
<path fill-rule="nonzero" fill="rgb(34.901961%, 14.901961%, 14.901961%)" fill-opacity="1" d="M 327.605469 77.191406 C 318.246094 77.460938 316.714844 77.460938 306.726562 77.460938 L 306.1875 78 L 302.046875 92.578125 L 298.445312 105.628906 L 294.214844 121.289062 L 290.253906 105.179688 L 287.734375 95.011719 L 283.234375 77.730469 L 282.785156 77.191406 C 273.15625 77.460938 271.535156 77.460938 261.457031 77.460938 L 260.914062 78 C 260.015625 104.910156 259.65625 111.839844 257.675781 140.730469 L 258.125 141.269531 C 263.886719 141 265.597656 140.910156 270.816406 141 L 271.355469 140.460938 L 271.625 123.269531 L 272.164062 105.808594 L 272.527344 88.800781 L 276.484375 104.730469 L 279.90625 117.511719 L 285.9375 140.730469 L 286.476562 141.269531 C 292.054688 141 293.585938 140.910156 299.886719 141 L 300.425781 140.460938 L 305.644531 121.289062 L 309.246094 108.148438 L 314.285156 89.25 L 314.285156 105.359375 L 314.464844 119.128906 L 314.464844 140.730469 L 314.914062 141.269531 C 321.125 141 323.554688 140.910156 330.484375 141 L 330.9375 140.460938 C 330.394531 130.199219 329.765625 119.851562 329.40625 109.5 C 329.136719 103.828125 328.957031 98.160156 328.6875 92.488281 C 328.234375 84.121094 328.144531 83.039062 328.144531 77.730469 Z M 381.066406 127.679688 C 377.648438 129.480469 373.597656 131.550781 367.027344 131.550781 C 361.628906 131.550781 357.9375 129.839844 355.777344 126.601562 C 354.425781 124.710938 354.15625 122.910156 353.796875 121.109375 L 382.867188 120.570312 L 383.40625 119.941406 C 383.316406 115.53125 383.226562 111.03125 381.96875 106.53125 C 378.816406 95.910156 371.886719 93.75 368.828125 93.03125 C 366.578125 92.398438 364.507812 92.21875 362.4375 92.21875 C 348.308594 92.21875 338.945312 101.488281 338.945312 117.058594 C 338.945312 121.289062 339.667969 125.699219 341.105469 128.851562 C 346.328125 141 358.566406 142.078125 365.046875 142.078125 C 372.515625 142.078125 375.757812 140.730469 380.527344 138.839844 L 381.066406 138.121094 L 381.695312 127.949219 L 381.066406 127.679688 M 353.796875 111.570312 C 354.066406 108.78125 354.695312 105 358.117188 102.839844 C 359.195312 102.121094 360.457031 101.851562 361.71875 101.851562 C 364.6875 101.851562 366.488281 103.378906 367.476562 105 C 368.738281 106.980469 368.828125 109.140625 368.828125 111.210938 Z M 435.785156 140.371094 C 435.335938 132.449219 435.335938 129.929688 435.15625 121.109375 L 435.15625 114.089844 C 435.066406 105.449219 434.976562 101.308594 432.726562 97.621094 C 429.933594 92.941406 424.804688 92.21875 421.566406 92.21875 C 416.074219 92.21875 411.304688 95.101562 407.164062 97.53125 L 407.34375 92.578125 L 406.445312 91.949219 C 399.515625 93.390625 397.984375 93.660156 391.234375 94.558594 L 390.695312 95.191406 C 391.414062 103.019531 391.957031 108.691406 391.957031 123.359375 C 391.957031 129.121094 391.863281 134.878906 391.773438 140.640625 L 392.316406 141.179688 C 398.796875 140.910156 400.144531 140.910156 407.34375 140.910156 L 407.886719 140.371094 C 407.34375 126.511719 407.253906 123 407.164062 106.890625 C 409.054688 105.628906 411.214844 104.101562 414.09375 104.101562 C 419.046875 104.101562 419.496094 109.410156 419.765625 112.648438 C 419.945312 115.621094 420.035156 127.949219 420.035156 131.371094 C 420.035156 134.429688 419.945312 137.578125 419.945312 140.640625 L 420.484375 141.179688 C 426.425781 141 427.957031 140.910156 435.15625 140.910156 Z M 490.144531 140.460938 C 489.785156 132.359375 489.515625 126.960938 489.515625 115.171875 C 489.515625 91.410156 489.875 81.601562 490.234375 69.71875 L 489.605469 69.179688 L 474.753906 71.519531 L 474.304688 72.058594 C 474.84375 80.519531 474.933594 82.769531 474.84375 93.03125 C 468.09375 92.851562 459.632812 92.671875 452.792969 98.070312 C 446.496094 102.929688 443.882812 110.398438 443.882812 119.671875 C 443.882812 126.691406 445.773438 133.710938 451.085938 138.121094 C 455.042969 141.359375 459.90625 142.078125 462.875 142.078125 C 469.265625 142.078125 472.59375 139.109375 474.753906 137.21875 L 474.574219 140.730469 L 475.023438 141.269531 C 481.234375 141 482.945312 141 489.695312 141 L 490.144531 140.460938 M 474.84375 103.828125 C 474.933594 115.800781 474.84375 118.140625 474.574219 129.03125 C 472.773438 130.109375 470.972656 131.191406 468.453125 131.191406 C 459.722656 131.191406 459.722656 120.03125 459.722656 118.230469 C 459.722656 111.300781 461.703125 103.558594 471.785156 103.558594 C 472.773438 103.558594 473.585938 103.648438 474.84375 103.828125 Z M 546.214844 117.058594 C 546.214844 113.550781 546.214844 98.96875 533.613281 94.019531 C 529.652344 92.488281 524.972656 92.308594 522.632812 92.308594 C 506.972656 92.308594 498.152344 100.679688 498.152344 117.238281 C 498.152344 123 499.054688 128.851562 502.382812 133.710938 C 504.722656 137.21875 509.132812 142.078125 522.003906 142.078125 C 541.082031 142.078125 546.214844 130.558594 546.214844 117.058594 M 530.644531 116.96875 C 530.644531 124.351562 529.652344 132.539062 522.183594 132.539062 C 519.84375 132.539062 518.222656 131.460938 517.144531 130.46875 C 515.613281 128.941406 513.902344 125.878906 513.902344 117.148438 C 513.902344 114.539062 513.902344 108.78125 515.703125 105.628906 C 517.054688 103.199219 519.394531 101.578125 522.273438 101.578125 C 524.792969 101.578125 526.863281 102.929688 528.035156 104.371094 C 530.195312 106.980469 530.644531 112.109375 530.644531 116.96875 Z M 589.957031 128.039062 C 587.527344 129.480469 585.1875 130.921875 580.597656 130.921875 C 570.425781 130.921875 568.355469 122.460938 568.355469 117.058594 C 568.355469 110.488281 571.238281 102.929688 579.96875 102.929688 C 583.925781 102.929688 586.085938 104.371094 588.789062 106.171875 L 589.6875 105.898438 C 590.046875 101.128906 590.136719 99.871094 590.855469 95.101562 L 590.40625 94.558594 C 586.445312 93.300781 583.027344 92.21875 577.808594 92.21875 C 556.65625 92.21875 552.515625 108.238281 552.515625 117.421875 C 552.515625 127.769531 557.917969 141.808594 578.167969 141.808594 C 582.9375 141.808594 585.996094 140.910156 589.777344 139.828125 L 590.316406 139.289062 L 590.675781 128.488281 Z M 614.167969 140.371094 C 613.714844 133.441406 613.355469 128.128906 613.355469 115.710938 C 613.355469 108.058594 613.535156 100.320312 613.625 92.671875 L 612.996094 91.949219 L 597.515625 94.648438 L 596.976562 95.191406 C 597.695312 102.03125 597.964844 105.179688 597.964844 117.960938 C 597.964844 127.769531 597.695312 133.261719 597.425781 140.640625 L 597.964844 141.269531 C 604.445312 141 606.246094 140.910156 613.535156 141 L 614.167969 140.371094 M 612.726562 83.308594 L 612.996094 71.070312 L 612.457031 70.53125 L 597.785156 72.328125 L 597.246094 72.960938 C 597.425781 76.199219 597.515625 78.089844 597.515625 80.25 C 597.515625 81.960938 597.515625 83.761719 597.425781 85.46875 L 598.054688 86.011719 C 604.175781 84.929688 605.886719 84.75 612.277344 83.941406 Z M 668.253906 140.371094 C 667.804688 132.449219 667.804688 129.929688 667.625 121.109375 L 667.625 114.089844 C 667.535156 105.449219 667.445312 101.308594 665.195312 97.621094 C 662.402344 92.941406 657.273438 92.21875 654.035156 92.21875 C 648.542969 92.21875 643.773438 95.101562 639.632812 97.53125 L 639.8125 92.578125 L 638.914062 91.949219 C 631.984375 93.390625 630.453125 93.660156 623.703125 94.558594 L 623.164062 95.191406 C 623.882812 103.019531 624.425781 108.691406 624.425781 123.359375 C 624.425781 129.121094 624.332031 134.878906 624.242188 140.640625 L 624.785156 141.179688 C 631.265625 140.910156 632.613281 140.910156 639.8125 140.910156 L 640.355469 140.371094 C 639.8125 126.511719 639.722656 123 639.632812 106.890625 C 641.523438 105.628906 643.683594 104.101562 646.5625 104.101562 C 651.515625 104.101562 651.964844 109.410156 652.234375 112.648438 C 652.414062 115.621094 652.503906 127.949219 652.503906 131.371094 C 652.503906 134.429688 652.414062 137.578125 652.414062 140.640625 L 652.953125 141.179688 C 658.894531 141 660.425781 140.910156 667.625 140.910156 Z M 724.328125 117.058594 C 724.328125 113.550781 724.328125 98.96875 711.726562 94.019531 C 707.765625 92.488281 703.085938 92.308594 700.746094 92.308594 C 685.085938 92.308594 676.265625 100.679688 676.265625 117.238281 C 676.265625 123 677.167969 128.851562 680.496094 133.710938 C 682.835938 137.21875 687.246094 142.078125 700.117188 142.078125 C 719.195312 142.078125 724.328125 130.558594 724.328125 117.058594 M 708.757812 116.96875 C 708.757812 124.351562 707.765625 132.539062 700.296875 132.539062 C 697.957031 132.539062 696.335938 131.460938 695.257812 130.46875 C 693.726562 128.941406 692.015625 125.878906 692.015625 117.148438 C 692.015625 114.539062 692.015625 108.78125 693.816406 105.628906 C 695.167969 103.199219 697.507812 101.578125 700.386719 101.578125 C 702.90625 101.578125 704.976562 102.929688 706.148438 104.371094 C 708.308594 106.980469 708.757812 112.109375 708.757812 116.96875 Z M 727.476562 141 "/>
<path fill-rule="nonzero" fill="rgb(34.901961%, 14.901961%, 14.901961%)" fill-opacity="1" d="M 199.398438 260.460938 C 202.730469 244.078125 204.171875 237.238281 213.710938 197.730469 L 213.261719 197.191406 C 206.871094 197.460938 205.609375 197.460938 199.582031 197.460938 L 199.039062 198 C 197.601562 207.269531 197.148438 210.421875 195.171875 220.769531 L 192.558594 234.539062 L 189.679688 250.019531 C 188.332031 239.941406 187.878906 236.878906 186.082031 226.441406 L 183.46875 211.320312 L 181.21875 197.460938 L 180.679688 196.828125 L 162.859375 197.28125 L 162.320312 197.820312 L 158.71875 218.519531 L 155.210938 236.96875 L 152.960938 249.390625 C 151.878906 241.558594 151.519531 238.949219 149.628906 228.058594 L 147.289062 214.921875 L 144.320312 197.101562 L 143.78125 196.648438 C 136.039062 197.191406 134.78125 197.191406 128.210938 197.371094 L 127.761719 198 C 134.332031 227.789062 135.769531 234.628906 140.628906 260.730469 L 141.171875 261.269531 C 150.261719 260.910156 152.691406 260.910156 161.511719 261 L 162.140625 260.460938 L 164.03125 249.300781 L 167 232.828125 L 170.242188 213.570312 C 171.320312 222.390625 171.589844 224.640625 173.210938 234.359375 L 175.460938 248.398438 L 177.351562 260.730469 L 177.800781 261.269531 C 186.441406 261 189.410156 260.910156 198.949219 261 Z M 264.203125 237.058594 C 264.203125 233.550781 264.203125 218.96875 251.601562 214.019531 C 247.640625 212.488281 242.960938 212.308594 240.621094 212.308594 C 224.960938 212.308594 216.140625 220.679688 216.140625 237.238281 C 216.140625 243 217.042969 248.851562 220.371094 253.710938 C 222.710938 257.21875 227.121094 262.078125 239.992188 262.078125 C 259.070312 262.078125 264.203125 250.558594 264.203125 237.058594 M 248.632812 236.96875 C 248.632812 244.351562 247.640625 252.539062 240.171875 252.539062 C 237.832031 252.539062 236.210938 251.460938 235.132812 250.46875 C 233.601562 248.941406 231.890625 245.878906 231.890625 237.148438 C 231.890625 234.539062 231.890625 228.78125 233.691406 225.628906 C 235.042969 223.199219 237.382812 221.578125 240.261719 221.578125 C 242.78125 221.578125 244.851562 222.929688 246.023438 224.371094 C 248.183594 226.980469 248.632812 232.109375 248.632812 236.96875 Z M 318.5625 237.058594 C 318.5625 233.550781 318.5625 218.96875 305.960938 214.019531 C 302 212.488281 297.320312 212.308594 294.980469 212.308594 C 279.320312 212.308594 270.5 220.679688 270.5 237.238281 C 270.5 243 271.402344 248.851562 274.730469 253.710938 C 277.070312 257.21875 281.480469 262.078125 294.351562 262.078125 C 313.429688 262.078125 318.5625 250.558594 318.5625 237.058594 M 302.992188 236.96875 C 302.992188 244.351562 302 252.539062 294.53125 252.539062 C 292.191406 252.539062 290.570312 251.460938 289.492188 250.46875 C 287.960938 248.941406 286.25 245.878906 286.25 237.148438 C 286.25 234.539062 286.25 228.78125 288.050781 225.628906 C 289.402344 223.199219 291.742188 221.578125 294.621094 221.578125 C 297.140625 221.578125 299.210938 222.929688 300.382812 224.371094 C 302.542969 226.980469 302.992188 232.109375 302.992188 236.96875 Z M 371.210938 260.460938 C 370.851562 252.359375 370.582031 246.960938 370.582031 235.171875 C 370.582031 211.410156 370.941406 201.601562 371.300781 189.71875 L 370.671875 189.179688 L 355.820312 191.519531 L 355.371094 192.058594 C 355.910156 200.519531 356 202.769531 355.910156 213.03125 C 349.160156 212.851562 340.699219 212.671875 333.859375 218.070312 C 327.5625 222.929688 324.949219 230.398438 324.949219 239.671875 C 324.949219 246.691406 326.839844 253.710938 332.152344 258.121094 C 336.109375 261.359375 340.972656 262.078125 343.941406 262.078125 C 350.332031 262.078125 353.660156 259.109375 355.820312 257.21875 L 355.640625 260.730469 L 356.089844 261.269531 C 362.300781 261 364.011719 261 370.761719 261 L 371.210938 260.460938 M 355.910156 223.828125 C 356 235.800781 355.910156 238.140625 355.640625 249.03125 C 353.839844 250.109375 352.039062 251.191406 349.519531 251.191406 C 340.789062 251.191406 340.789062 240.03125 340.789062 238.230469 C 340.789062 231.300781 342.769531 223.558594 352.851562 223.558594 C 353.839844 223.558594 354.652344 223.648438 355.910156 223.828125 Z M 397.308594 260.371094 C 396.859375 250.019531 396.410156 240.570312 396.410156 212.128906 C 396.410156 203.578125 396.5 199.53125 396.859375 189.808594 L 396.230469 189.179688 L 380.839844 191.609375 L 380.480469 192.148438 C 381.378906 203.128906 381.46875 206.101562 381.648438 220.679688 C 381.742188 225.988281 381.742188 231.300781 381.742188 236.609375 C 381.742188 246.328125 381.558594 251.730469 381.199219 260.640625 L 381.742188 261.269531 C 387.769531 261 390.199219 260.910156 396.769531 261 Z M 447.800781 234.179688 C 447.890625 226.078125 447.890625 222.570312 445.550781 218.789062 C 443.75 215.910156 440.152344 212.308594 428.632812 212.308594 C 420.890625 212.308594 416.121094 213.75 410.992188 215.28125 L 410.453125 216 L 410 225.808594 L 410.722656 226.171875 C 413.871094 224.910156 419.722656 222.570312 425.75 222.570312 C 429.082031 222.570312 430.429688 223.109375 431.601562 224.28125 C 432.5 225.179688 432.773438 226.800781 432.773438 228.148438 C 421.972656 229.589844 416.929688 230.578125 411.53125 233.910156 C 406.492188 237.058594 404.78125 242.191406 404.78125 246.238281 C 404.78125 255.871094 411.710938 262.078125 420.53125 262.078125 C 427.28125 262.078125 431.152344 258.839844 433.042969 257.308594 L 433.042969 260.640625 L 433.582031 261.269531 C 440.0625 261 442.042969 260.910156 447.890625 261 L 448.339844 260.371094 C 447.710938 251.550781 447.710938 249.300781 447.710938 240.839844 L 447.800781 234.179688 M 432.953125 248.488281 C 431.0625 249.570312 428.632812 250.828125 425.660156 250.828125 C 422.421875 250.828125 419.722656 249.121094 419.722656 245.339844 C 419.722656 239.398438 426.832031 238.410156 432.953125 237.601562 Z M 502.429688 260.371094 C 501.980469 252.449219 501.980469 249.929688 501.800781 241.109375 L 501.800781 234.089844 C 501.710938 225.449219 501.621094 221.308594 499.371094 217.621094 C 496.578125 212.941406 491.449219 212.21875 488.210938 212.21875 C 482.71875 212.21875 477.949219 215.101562 473.808594 217.53125 L 473.988281 212.578125 L 473.089844 211.949219 C 466.160156 213.390625 464.628906 213.660156 457.878906 214.558594 L 457.339844 215.191406 C 458.058594 223.019531 458.601562 228.691406 458.601562 243.359375 C 458.601562 249.121094 458.507812 254.878906 458.417969 260.640625 L 458.960938 261.179688 C 465.441406 260.910156 466.789062 260.910156 473.988281 260.910156 L 474.53125 260.371094 C 473.988281 246.511719 473.898438 243 473.808594 226.890625 C 475.699219 225.628906 477.859375 224.101562 480.738281 224.101562 C 485.691406 224.101562 486.140625 229.410156 486.410156 232.648438 C 486.589844 235.621094 486.679688 247.949219 486.679688 251.371094 C 486.679688 254.429688 486.589844 257.578125 486.589844 260.640625 L 487.128906 261.179688 C 493.070312 261 494.601562 260.910156 501.800781 260.910156 Z M 556.789062 260.460938 C 556.429688 252.359375 556.160156 246.960938 556.160156 235.171875 C 556.160156 211.410156 556.519531 201.601562 556.878906 189.71875 L 556.25 189.179688 L 541.398438 191.519531 L 540.949219 192.058594 C 541.488281 200.519531 541.578125 202.769531 541.488281 213.03125 C 534.738281 212.851562 526.277344 212.671875 519.4375 218.070312 C 513.140625 222.929688 510.527344 230.398438 510.527344 239.671875 C 510.527344 246.691406 512.417969 253.710938 517.730469 258.121094 C 521.6875 261.359375 526.550781 262.078125 529.519531 262.078125 C 535.910156 262.078125 539.238281 259.109375 541.398438 257.21875 L 541.21875 260.730469 L 541.667969 261.269531 C 547.878906 261 549.589844 261 556.339844 261 L 556.789062 260.460938 M 541.488281 223.828125 C 541.578125 235.800781 541.488281 238.140625 541.21875 249.03125 C 539.417969 250.109375 537.617188 251.191406 535.097656 251.191406 C 526.367188 251.191406 526.367188 240.03125 526.367188 238.230469 C 526.367188 231.300781 528.347656 223.558594 538.429688 223.558594 C 539.417969 223.558594 540.230469 223.648438 541.488281 223.828125 Z M 585.949219 229.949219 C 582.886719 228.871094 580.457031 227.878906 580.457031 225.359375 C 580.457031 224.28125 581.179688 221.308594 586.757812 221.308594 C 592.25 221.308594 595.757812 223.648438 598.007812 225.089844 L 598.820312 224.820312 L 599.71875 215.011719 L 599.269531 214.46875 C 595.039062 213.300781 591.347656 212.21875 585.5 212.21875 C 581.089844 212.21875 572.269531 212.578125 567.589844 219.328125 C 566.417969 220.949219 565.160156 223.648438 565.160156 227.25 C 565.160156 236.878906 572.628906 239.761719 576.859375 241.378906 L 580.277344 242.640625 C 582.707031 243.449219 586.667969 244.800781 586.667969 248.039062 C 586.667969 250.289062 584.597656 252.71875 579.558594 252.71875 C 577.039062 252.71875 573.347656 251.910156 570.019531 250.199219 C 568.488281 249.390625 567.769531 248.761719 566.417969 247.679688 L 565.609375 248.039062 C 565.429688 252.71875 565.339844 253.710938 564.976562 258.210938 L 565.429688 259.019531 C 569.839844 260.640625 573.617188 262.078125 580.1875 262.078125 C 587.027344 262.078125 600.527344 260.820312 602.148438 247.949219 C 602.238281 247.230469 602.238281 246.601562 602.238281 245.96875 C 602.238281 236.070312 595.308594 233.460938 590.359375 231.570312 Z M 662.449219 222.300781 C 654.890625 219.148438 650.929688 217.53125 650.929688 213.480469 C 650.929688 210.691406 653.539062 207.179688 659.480469 207.179688 C 666.320312 207.179688 670.367188 209.96875 673.699219 212.21875 L 674.507812 211.859375 L 675.230469 200.070312 L 674.777344 199.441406 C 670.910156 197.820312 666.859375 196.109375 658.128906 196.109375 C 641.210938 196.109375 635.359375 205.648438 635.359375 215.28125 C 635.359375 226.171875 643.820312 230.128906 648.859375 232.558594 L 651.828125 233.910156 C 658.039062 236.519531 662.808594 238.769531 662.808594 243.539062 C 662.808594 246.960938 659.839844 251.011719 652.007812 251.011719 C 643.820312 251.011719 639.230469 247.410156 636.617188 245.339844 L 635.71875 245.609375 L 635.089844 258.300781 L 635.628906 259.019531 C 636.617188 259.378906 637.609375 259.828125 638.597656 260.101562 C 640.667969 260.820312 645.980469 262.351562 652.730469 262.351562 C 655.429688 262.351562 662.269531 262.078125 667.667969 259.558594 C 675.230469 255.871094 678.46875 249.03125 678.46875 241.378906 C 678.46875 236.25 676.488281 230.761719 671.71875 227.070312 C 669.289062 225.269531 666.949219 224.191406 664.789062 223.199219 Z M 712.222656 250.648438 C 710.691406 251.101562 709.609375 251.460938 708.082031 251.460938 C 703.492188 251.460938 703.132812 248.578125 702.949219 247.230469 C 702.679688 244.890625 702.679688 239.941406 702.769531 236.339844 L 702.949219 223.648438 L 711.050781 224.011719 L 711.589844 223.46875 L 712.492188 213.839844 L 711.949219 213.300781 L 702.949219 213.300781 L 703.222656 198.179688 L 702.589844 197.640625 C 696.472656 199.441406 694.851562 199.890625 688.460938 201.511719 L 688.101562 202.140625 L 688.191406 213.390625 L 683.332031 213.210938 L 682.792969 213.660156 L 681.980469 223.289062 L 682.519531 223.828125 L 688.191406 223.648438 L 687.921875 237.960938 C 687.832031 240.210938 687.742188 242.460938 687.742188 244.800781 C 687.742188 253.078125 687.921875 261.988281 701.960938 261.988281 C 705.472656 261.988281 708.261719 261.449219 711.410156 260.910156 L 712.042969 260.28125 L 712.941406 251.011719 Z M 758.929688 234.179688 C 759.019531 226.078125 759.019531 222.570312 756.679688 218.789062 C 754.878906 215.910156 751.28125 212.308594 739.761719 212.308594 C 732.019531 212.308594 727.25 213.75 722.121094 215.28125 L 721.582031 216 L 721.128906 225.808594 L 721.851562 226.171875 C 725 224.910156 730.851562 222.570312 736.878906 222.570312 C 740.210938 222.570312 741.558594 223.109375 742.730469 224.28125 C 743.628906 225.179688 743.902344 226.800781 743.902344 228.148438 C 733.101562 229.589844 728.058594 230.578125 722.660156 233.910156 C 717.621094 237.058594 715.910156 242.191406 715.910156 246.238281 C 715.910156 255.871094 722.839844 262.078125 731.660156 262.078125 C 738.410156 262.078125 742.28125 258.839844 744.171875 257.308594 L 744.171875 260.640625 L 744.710938 261.269531 C 751.191406 261 753.171875 260.910156 759.019531 261 L 759.46875 260.371094 C 758.839844 251.550781 758.839844 249.300781 758.839844 240.839844 L 758.929688 234.179688 M 744.082031 248.488281 C 742.191406 249.570312 739.761719 250.828125 736.789062 250.828125 C 733.550781 250.828125 730.851562 249.121094 730.851562 245.339844 C 730.851562 239.398438 737.960938 238.410156 744.082031 237.601562 Z M 794.660156 250.648438 C 793.128906 251.101562 792.046875 251.460938 790.519531 251.460938 C 785.929688 251.460938 785.570312 248.578125 785.386719 247.230469 C 785.117188 244.890625 785.117188 239.941406 785.207031 236.339844 L 785.386719 223.648438 L 793.488281 224.011719 L 794.027344 223.46875 L 794.929688 213.839844 L 794.386719 213.300781 L 785.386719 213.300781 L 785.660156 198.179688 L 785.027344 197.640625 C 778.910156 199.441406 777.289062 199.890625 770.898438 201.511719 L 770.539062 202.140625 L 770.628906 213.390625 L 765.769531 213.210938 L 765.230469 213.660156 L 764.417969 223.289062 L 764.957031 223.828125 L 770.628906 223.648438 L 770.359375 237.960938 C 770.269531 240.210938 770.179688 242.460938 770.179688 244.800781 C 770.179688 253.078125 770.359375 261.988281 784.398438 261.988281 C 787.910156 261.988281 790.699219 261.449219 793.847656 260.910156 L 794.480469 260.28125 L 795.378906 251.011719 Z M 841.28125 247.679688 C 837.863281 249.480469 833.8125 251.550781 827.242188 251.550781 C 821.84375 251.550781 818.152344 249.839844 815.992188 246.601562 C 814.640625 244.710938 814.371094 242.910156 814.011719 241.109375 L 843.082031 240.570312 L 843.621094 239.941406 C 843.53125 235.53125 843.441406 231.03125 842.183594 226.53125 C 839.03125 215.910156 832.101562 213.75 829.042969 213.03125 C 826.792969 212.398438 824.722656 212.21875 822.652344 212.21875 C 808.523438 212.21875 799.160156 221.488281 799.160156 237.058594 C 799.160156 241.289062 799.882812 245.699219 801.320312 248.851562 C 806.542969 261 818.78125 262.078125 825.261719 262.078125 C 832.730469 262.078125 835.972656 260.730469 840.742188 258.839844 L 841.28125 258.121094 L 841.910156 247.949219 L 841.28125 247.679688 M 814.011719 231.570312 C 814.28125 228.78125 814.910156 225 818.332031 222.839844 C 819.410156 222.121094 820.671875 221.851562 821.933594 221.851562 C 824.902344 221.851562 826.703125 223.378906 827.691406 225 C 828.953125 226.980469 829.042969 229.140625 829.042969 231.210938 Z M 846.5 261 "/>
<path fill-rule="nonzero" fill="rgb(34.901961%, 14.901961%, 14.901961%)" fill-opacity="1" d="M 411.53125 317.28125 L 400.101562 317.460938 L 399.558594 318 C 399.921875 329.699219 400.191406 337.53125 400.191406 347.878906 C 400.191406 358.859375 399.921875 369.75 399.648438 380.730469 L 400.191406 381.269531 C 406.851562 381 408.289062 380.910156 415.492188 381 L 415.941406 380.460938 C 415.582031 370.648438 415.582031 368.398438 415.582031 359.21875 C 425.660156 359.308594 436.460938 359.308594 442.941406 351.390625 C 445.460938 348.328125 447.621094 343.199219 447.621094 336.898438 C 447.621094 333.03125 446.71875 324.480469 439.25 320.25 C 433.851562 317.101562 426.199219 317.101562 419.449219 317.101562 L 411.53125 317.28125 M 415.582031 328.171875 C 417.558594 328.078125 419.449219 328.078125 421.429688 328.078125 C 429.351562 328.261719 431.511719 332.308594 431.511719 337.53125 C 431.511719 338.789062 431.511719 344.011719 426.742188 346.621094 C 424.308594 347.96875 420.980469 348.148438 415.582031 348.148438 Z M 493.878906 354.179688 C 493.96875 346.078125 493.96875 342.570312 491.628906 338.789062 C 489.828125 335.910156 486.230469 332.308594 474.710938 332.308594 C 466.96875 332.308594 462.199219 333.75 457.070312 335.28125 L 456.53125 336 L 456.078125 345.808594 L 456.800781 346.171875 C 459.949219 344.910156 465.800781 342.570312 471.828125 342.570312 C 475.160156 342.570312 476.507812 343.109375 477.679688 344.28125 C 478.578125 345.179688 478.851562 346.800781 478.851562 348.148438 C 468.050781 349.589844 463.007812 350.578125 457.609375 353.910156 C 452.570312 357.058594 450.859375 362.191406 450.859375 366.238281 C 450.859375 375.871094 457.789062 382.078125 466.609375 382.078125 C 473.359375 382.078125 477.230469 378.839844 479.121094 377.308594 L 479.121094 380.640625 L 479.660156 381.269531 C 486.140625 381 488.121094 380.910156 493.96875 381 L 494.417969 380.371094 C 493.789062 371.550781 493.789062 369.300781 493.789062 360.839844 L 493.878906 354.179688 M 479.03125 368.488281 C 477.140625 369.570312 474.710938 370.828125 471.738281 370.828125 C 468.5 370.828125 465.800781 369.121094 465.800781 365.339844 C 465.800781 359.398438 472.910156 358.410156 479.03125 357.601562 Z M 530.421875 347.609375 L 532.941406 332.941406 L 532.402344 332.308594 C 531.773438 332.308594 531.140625 332.21875 530.511719 332.21875 C 526.820312 332.21875 522.683594 334.289062 519.800781 340.949219 L 520.070312 332.671875 L 519.351562 331.949219 C 512.691406 333.390625 510.980469 333.660156 504.410156 334.648438 L 503.871094 335.191406 C 504.410156 341.941406 504.683594 345.988281 504.683594 358.5 C 504.683594 365.878906 504.589844 373.261719 504.410156 380.730469 L 504.953125 381.269531 C 511.613281 381 513.050781 380.910156 520.25 381 L 520.703125 380.371094 C 520.339844 373.078125 519.800781 362.910156 519.800781 356.699219 C 519.800781 352.648438 519.800781 346.710938 525.921875 346.710938 C 527.453125 346.710938 528.351562 347.25 529.613281 347.96875 Z M 584.421875 379.828125 C 575.960938 365.519531 575.0625 363.898438 568.222656 351.570312 C 574.433594 343.109375 575.0625 342.210938 581.453125 334.019531 L 581 333.121094 L 566.332031 333.300781 L 565.433594 333.929688 C 558.410156 346.078125 557.511719 347.519531 553.371094 353.730469 L 553.371094 343.738281 C 553.460938 326.910156 553.550781 323.308594 554 309.71875 L 553.28125 309.179688 L 537.621094 311.519531 L 537.082031 312.148438 C 537.710938 320.878906 537.980469 325.109375 538.160156 336.898438 C 538.339844 351.480469 538.339844 366.058594 538.25 380.640625 L 538.882812 381.269531 C 544.910156 381 546.621094 381 553.460938 381 L 554 380.371094 L 553.460938 365.160156 L 553.371094 354.808594 C 561.203125 369.210938 562.191406 371.191406 566.78125 380.730469 L 567.589844 381.269531 L 583.792969 380.640625 Z M 583.339844 381 "/>
</svg>
