<?xml version="1.0" encoding="UTF-8"?>
<svg xmlns="http://www.w3.org/2000/svg" xmlns:xlink="http://www.w3.org/1999/xlink" width="975" height="1300" viewBox="0 0 975 1300">
<path fill-rule="nonzero" fill="rgb(98.823529%, 78.823529%, 9.019608%)" fill-opacity="1" d="M 50 50 L 925 50 L 925 410 L 50 410 Z M 50 50 "/>
<path fill-rule="nonzero" fill="rgb(34.901961%, 14.901961%, 14.901961%)" fill-opacity="1" d="M 160.339844 124.890625 C 158.269531 126.511719 153.679688 129.929688 146.210938 129.929688 C 135.949219 129.929688 128.75 122.28125 128.75 109.5 C 128.75 101.761719 131.449219 88.171875 146.121094 88.171875 C 152.871094 88.171875 156.558594 90.78125 158.808594 92.488281 L 159.621094 92.308594 L 160.429688 79.890625 L 160.070312 79.441406 C 156.832031 78.179688 151.339844 76.109375 143.421875 76.109375 C 120.109375 76.109375 112.011719 94.109375 112.011719 109.859375 C 112.011719 127.140625 122.539062 142.351562 144.5 142.351562 C 152.058594 142.351562 157.011719 140.371094 159.890625 139.199219 L 160.339844 138.660156 L 160.96875 125.25 Z M 208.039062 114.179688 C 208.128906 106.078125 208.128906 102.570312 205.789062 98.789062 C 203.988281 95.910156 200.390625 92.308594 188.871094 92.308594 C 181.128906 92.308594 176.359375 93.75 171.230469 95.28125 L 170.691406 96 L 170.238281 105.808594 L 170.960938 106.171875 C 174.109375 104.910156 179.960938 102.570312 185.988281 102.570312 C 189.320312 102.570312 190.667969 103.109375 191.839844 104.28125 C 192.738281 105.179688 193.011719 106.800781 193.011719 108.148438 C 182.210938 109.589844 177.167969 110.578125 171.769531 113.910156 C 166.730469 117.058594 165.019531 122.191406 165.019531 126.238281 C 165.019531 135.871094 171.949219 142.078125 180.769531 142.078125 C 187.519531 142.078125 191.390625 138.839844 193.28125 137.308594 L 193.28125 140.640625 L 193.820312 141.269531 C 200.300781 141 202.28125 140.910156 208.128906 141 L 208.578125 140.371094 C 207.949219 131.550781 207.949219 129.300781 207.949219 120.839844 L 208.039062 114.179688 M 193.191406 128.488281 C 191.300781 129.570312 188.871094 130.828125 185.898438 130.828125 C 182.660156 130.828125 179.960938 129.121094 179.960938 125.339844 C 179.960938 119.398438 187.070312 118.410156 193.191406 117.601562 Z M 237.472656 109.949219 C 234.410156 108.871094 231.980469 107.878906 231.980469 105.359375 C 231.980469 104.28125 232.703125 101.308594 238.28125 101.308594 C 243.773438 101.308594 247.28125 103.648438 249.53125 105.089844 L 250.34375 104.820312 L 251.242188 95.011719 L 250.792969 94.46875 C 246.5625 93.300781 242.871094 92.21875 237.023438 92.21875 C 232.613281 92.21875 223.792969 92.578125 219.113281 99.328125 C 217.941406 100.949219 216.683594 103.648438 216.683594 107.25 C 216.683594 116.878906 224.152344 119.761719 228.382812 121.378906 L 231.800781 122.640625 C 234.230469 123.449219 238.191406 124.800781 238.191406 128.039062 C 238.191406 130.289062 236.121094 132.71875 231.082031 132.71875 C 228.5625 132.71875 224.871094 131.910156 221.542969 130.199219 C 220.011719 129.390625 219.292969 128.761719 217.941406 127.679688 L 217.132812 128.039062 C 216.953125 132.71875 216.863281 133.710938 216.5 138.210938 L 216.953125 139.019531 C 221.363281 140.640625 225.140625 142.078125 231.710938 142.078125 C 238.550781 142.078125 252.050781 140.820312 253.671875 127.949219 C 253.761719 127.230469 253.761719 126.601562 253.761719 125.96875 C 253.761719 116.070312 246.832031 113.460938 241.882812 111.570312 Z M 276.621094 92.851562 L 275.902344 92.039062 C 269.332031 93.480469 267.441406 93.839844 260.960938 94.648438 L 260.421875 95.28125 C 261.410156 105.988281 261.769531 110.128906 261.769531 136.050781 C 261.769531 146.761719 261.589844 152.878906 261.320312 163.050781 L 261.859375 163.5 C 268.25 163.230469 270.140625 163.140625 276.980469 163.230469 L 277.519531 162.78125 L 276.890625 141.359375 C 283.460938 141.269531 292.550781 141.179688 299.839844 134.339844 C 305.601562 128.941406 307.492188 121.289062 307.492188 115.171875 C 307.492188 100.859375 298.761719 92.21875 288.679688 92.21875 C 282.472656 92.21875 278.960938 94.738281 276.441406 96.449219 L 276.621094 92.851562 M 276.800781 105.089844 C 278.78125 103.921875 279.953125 103.289062 282.203125 103.289062 C 283.550781 103.289062 286.25 103.46875 288.5 105.988281 C 291.292969 109.050781 291.742188 113.640625 291.742188 116.699219 C 291.742188 121.921875 290.03125 126.601562 286.429688 129.121094 C 283.550781 131.101562 279.953125 131.28125 276.800781 131.371094 Z M 356.089844 114.179688 C 356.179688 106.078125 356.179688 102.570312 353.839844 98.789062 C 352.039062 95.910156 348.441406 92.308594 336.921875 92.308594 C 329.179688 92.308594 324.410156 93.75 319.28125 95.28125 L 318.742188 96 L 318.289062 105.808594 L 319.011719 106.171875 C 322.160156 104.910156 328.011719 102.570312 334.039062 102.570312 C 337.371094 102.570312 338.71875 103.109375 339.890625 104.28125 C 340.789062 105.179688 341.0625 106.800781 341.0625 108.148438 C 330.261719 109.589844 325.21875 110.578125 319.820312 113.910156 C 314.78125 117.058594 313.070312 122.191406 313.070312 126.238281 C 313.070312 135.871094 320 142.078125 328.820312 142.078125 C 335.570312 142.078125 339.441406 138.839844 341.332031 137.308594 L 341.332031 140.640625 L 341.871094 141.269531 C 348.351562 141 350.332031 140.910156 356.179688 141 L 356.628906 140.371094 C 356 131.550781 356 129.300781 356 120.839844 L 356.089844 114.179688 M 341.242188 128.488281 C 339.351562 129.570312 336.921875 130.828125 333.949219 130.828125 C 330.710938 130.828125 328.011719 129.121094 328.011719 125.339844 C 328.011719 119.398438 335.121094 118.410156 341.242188 117.601562 Z M 392.628906 107.609375 L 395.148438 92.941406 L 394.609375 92.308594 C 393.980469 92.308594 393.347656 92.21875 392.71875 92.21875 C 389.027344 92.21875 384.890625 94.289062 382.007812 100.949219 L 382.277344 92.671875 L 381.558594 91.949219 C 374.898438 93.390625 373.1875 93.660156 366.617188 94.648438 L 366.078125 95.191406 C 366.617188 101.941406 366.890625 105.988281 366.890625 118.5 C 366.890625 125.878906 366.796875 133.261719 366.617188 140.730469 L 367.160156 141.269531 C 373.820312 141 375.257812 140.910156 382.457031 141 L 382.910156 140.371094 C 382.546875 133.078125 382.007812 122.910156 382.007812 116.699219 C 382.007812 112.648438 382.007812 106.710938 388.128906 106.710938 C 389.660156 106.710938 390.558594 107.25 391.820312 107.96875 Z M 480.558594 77.191406 C 473.359375 77.460938 472.191406 77.460938 464.628906 77.460938 L 464.179688 78 C 464.808594 88.171875 464.808594 90.78125 464.898438 101.398438 C 460.941406 101.488281 456.980469 101.578125 452.929688 101.578125 C 449.78125 101.578125 446.539062 101.488281 443.390625 101.488281 L 443.570312 77.730469 L 443.121094 77.191406 C 436.191406 77.460938 434.839844 77.460938 427.011719 77.460938 L 426.46875 78 C 426.921875 87.269531 427.460938 98.339844 427.460938 120.660156 C 427.460938 128.761719 427.28125 133.171875 427.101562 140.730469 L 427.550781 141.269531 C 434.121094 141 435.738281 140.910156 443.660156 141 L 444.109375 140.460938 C 443.570312 129.300781 443.480469 126.058594 443.390625 113.011719 C 447.351562 112.828125 450.679688 112.738281 454.191406 112.738281 C 457.789062 112.738281 461.390625 112.828125 464.988281 112.921875 C 465.171875 125.070312 465.171875 128.039062 464.71875 140.730469 L 465.171875 141.269531 C 471.921875 141 473.71875 140.910156 481.371094 141 L 481.820312 140.460938 C 481.101562 125.339844 480.828125 110.308594 480.828125 95.191406 C 480.828125 88.890625 480.921875 84.660156 481.011719 77.730469 Z M 532.21875 127.679688 C 528.800781 129.480469 524.75 131.550781 518.179688 131.550781 C 512.78125 131.550781 509.089844 129.839844 506.929688 126.601562 C 505.578125 124.710938 505.308594 122.910156 504.949219 121.109375 L 534.019531 120.570312 L 534.558594 119.941406 C 534.46875 115.53125 534.378906 111.03125 533.121094 106.53125 C 529.96875 95.910156 523.039062 93.75 519.980469 93.03125 C 517.730469 92.398438 515.660156 92.21875 513.589844 92.21875 C 499.460938 92.21875 490.097656 101.488281 490.097656 117.058594 C 490.097656 121.289062 490.820312 125.699219 492.257812 128.851562 C 497.480469 141 509.71875 142.078125 516.199219 142.078125 C 523.667969 142.078125 526.910156 140.730469 531.679688 138.839844 L 532.21875 138.121094 L 532.847656 127.949219 L 532.21875 127.679688 M 504.949219 111.570312 C 505.21875 108.78125 505.847656 105 509.269531 102.839844 C 510.347656 102.121094 511.609375 101.851562 512.871094 101.851562 C 515.839844 101.851562 517.640625 103.378906 518.628906 105 C 519.890625 106.980469 519.980469 109.140625 519.980469 111.210938 Z M 582.890625 114.179688 C 582.980469 106.078125 582.980469 102.570312 580.640625 98.789062 C 578.839844 95.910156 575.242188 92.308594 563.722656 92.308594 C 555.980469 92.308594 551.210938 93.75 546.082031 95.28125 L 545.542969 96 L 545.089844 105.808594 L 545.8125 106.171875 C 548.960938 104.910156 554.8125 102.570312 560.839844 102.570312 C 564.171875 102.570312 565.519531 103.109375 566.691406 104.28125 C 567.589844 105.179688 567.863281 106.800781 567.863281 108.148438 C 557.0625 109.589844 552.019531 110.578125 546.621094 113.910156 C 541.582031 117.058594 539.871094 122.191406 539.871094 126.238281 C 539.871094 135.871094 546.800781 142.078125 555.621094 142.078125 C 562.371094 142.078125 566.242188 138.839844 568.132812 137.308594 L 568.132812 140.640625 L 568.671875 141.269531 C 575.152344 141 577.132812 140.910156 582.980469 141 L 583.429688 140.371094 C 582.800781 131.550781 582.800781 129.300781 582.800781 120.839844 L 582.890625 114.179688 M 568.042969 128.488281 C 566.152344 129.570312 563.722656 130.828125 560.75 130.828125 C 557.511719 130.828125 554.8125 129.121094 554.8125 125.339844 C 554.8125 119.398438 561.921875 118.410156 568.042969 117.601562 Z M 637.519531 140.460938 C 637.160156 132.359375 636.890625 126.960938 636.890625 115.171875 C 636.890625 91.410156 637.25 81.601562 637.609375 69.71875 L 636.980469 69.179688 L 622.128906 71.519531 L 621.679688 72.058594 C 622.21875 80.519531 622.308594 82.769531 622.21875 93.03125 C 615.46875 92.851562 607.007812 92.671875 600.167969 98.070312 C 593.871094 102.929688 591.257812 110.398438 591.257812 119.671875 C 591.257812 126.691406 593.148438 133.710938 598.460938 138.121094 C 602.417969 141.359375 607.28125 142.078125 610.25 142.078125 C 616.640625 142.078125 619.96875 139.109375 622.128906 137.21875 L 621.949219 140.730469 L 622.398438 141.269531 C 628.609375 141 630.320312 141 637.070312 141 L 637.519531 140.460938 M 622.21875 103.828125 C 622.308594 115.800781 622.21875 118.140625 621.949219 129.03125 C 620.148438 130.109375 618.347656 131.191406 615.828125 131.191406 C 607.097656 131.191406 607.097656 120.03125 607.097656 118.230469 C 607.097656 111.300781 609.078125 103.558594 619.160156 103.558594 C 620.148438 103.558594 620.960938 103.648438 622.21875 103.828125 Z M 663.617188 140.371094 C 663.167969 130.019531 662.71875 120.570312 662.71875 92.128906 C 662.71875 83.578125 662.808594 79.53125 663.167969 69.808594 L 662.539062 69.179688 L 647.148438 71.609375 L 646.789062 72.148438 C 647.6875 83.128906 647.777344 86.101562 647.957031 100.679688 C 648.050781 105.988281 648.050781 111.300781 648.050781 116.609375 C 648.050781 126.328125 647.867188 131.730469 647.507812 140.640625 L 648.050781 141.269531 C 654.078125 141 656.507812 140.910156 663.078125 141 Z M 714.109375 114.179688 C 714.199219 106.078125 714.199219 102.570312 711.859375 98.789062 C 710.058594 95.910156 706.460938 92.308594 694.941406 92.308594 C 687.199219 92.308594 682.429688 93.75 677.300781 95.28125 L 676.761719 96 L 676.308594 105.808594 L 677.03125 106.171875 C 680.179688 104.910156 686.03125 102.570312 692.058594 102.570312 C 695.390625 102.570312 696.738281 103.109375 697.910156 104.28125 C 698.808594 105.179688 699.082031 106.800781 699.082031 108.148438 C 688.28125 109.589844 683.238281 110.578125 677.839844 113.910156 C 672.800781 117.058594 671.089844 122.191406 671.089844 126.238281 C 671.089844 135.871094 678.019531 142.078125 686.839844 142.078125 C 693.589844 142.078125 697.460938 138.839844 699.351562 137.308594 L 699.351562 140.640625 L 699.890625 141.269531 C 706.371094 141 708.351562 140.910156 714.199219 141 L 714.648438 140.371094 C 714.019531 131.550781 714.019531 129.300781 714.019531 120.839844 L 714.109375 114.179688 M 699.261719 128.488281 C 697.371094 129.570312 694.941406 130.828125 691.96875 130.828125 C 688.730469 130.828125 686.03125 129.121094 686.03125 125.339844 C 686.03125 119.398438 693.140625 118.410156 699.261719 117.601562 Z M 768.742188 140.371094 C 768.292969 132.449219 768.292969 129.929688 768.113281 121.109375 L 768.113281 114.089844 C 768.023438 105.449219 767.933594 101.308594 765.683594 97.621094 C 762.890625 92.941406 757.761719 92.21875 754.523438 92.21875 C 749.03125 92.21875 744.261719 95.101562 740.121094 97.53125 L 740.300781 92.578125 L 739.402344 91.949219 C 732.472656 93.390625 730.941406 93.660156 724.191406 94.558594 L 723.652344 95.191406 C 724.371094 103.019531 724.914062 108.691406 724.914062 123.359375 C 724.914062 129.121094 724.820312 134.878906 724.730469 140.640625 L 725.273438 141.179688 C 731.753906 140.910156 733.101562 140.910156 740.300781 140.910156 L 740.84375 140.371094 C 740.300781 126.511719 740.210938 123 740.121094 106.890625 C 742.011719 105.628906 744.171875 104.101562 747.050781 104.101562 C 752.003906 104.101562 752.453125 109.410156 752.722656 112.648438 C 752.902344 115.621094 752.992188 127.949219 752.992188 131.371094 C 752.992188 134.429688 752.902344 137.578125 752.902344 140.640625 L 753.441406 141.179688 C 759.382812 141 760.914062 140.910156 768.113281 140.910156 Z M 823.101562 140.460938 C 822.742188 132.359375 822.472656 126.960938 822.472656 115.171875 C 822.472656 91.410156 822.832031 81.601562 823.191406 69.71875 L 822.5625 69.179688 L 807.710938 71.519531 L 807.261719 72.058594 C 807.800781 80.519531 807.890625 82.769531 807.800781 93.03125 C 801.050781 92.851562 792.589844 92.671875 785.75 98.070312 C 779.453125 102.929688 776.839844 110.398438 776.839844 119.671875 C 776.839844 126.691406 778.730469 133.710938 784.042969 138.121094 C 788 141.359375 792.863281 142.078125 795.832031 142.078125 C 802.222656 142.078125 805.550781 139.109375 807.710938 137.21875 L 807.53125 140.730469 L 807.980469 141.269531 C 814.191406 141 815.902344 141 822.652344 141 L 823.101562 140.460938 M 807.800781 103.828125 C 807.890625 115.800781 807.800781 118.140625 807.53125 129.03125 C 805.730469 130.109375 803.929688 131.191406 801.410156 131.191406 C 792.679688 131.191406 792.679688 120.03125 792.679688 118.230469 C 792.679688 111.300781 794.660156 103.558594 804.742188 103.558594 C 805.730469 103.558594 806.542969 103.648438 807.800781 103.828125 Z M 852.261719 109.949219 C 849.199219 108.871094 846.769531 107.878906 846.769531 105.359375 C 846.769531 104.28125 847.492188 101.308594 853.070312 101.308594 C 858.5625 101.308594 862.070312 103.648438 864.320312 105.089844 L 865.132812 104.820312 L 866.03125 95.011719 L 865.582031 94.46875 C 861.351562 93.300781 857.660156 92.21875 851.8125 92.21875 C 847.402344 92.21875 838.582031 92.578125 833.902344 99.328125 C 832.730469 100.949219 831.472656 103.648438 831.472656 107.25 C 831.472656 116.878906 838.941406 119.761719 843.171875 121.378906 L 846.589844 122.640625 C 849.019531 123.449219 852.980469 124.800781 852.980469 128.039062 C 852.980469 130.289062 850.910156 132.71875 845.871094 132.71875 C 843.351562 132.71875 839.660156 131.910156 836.332031 130.199219 C 834.800781 129.390625 834.082031 128.761719 832.730469 127.679688 L 831.921875 128.039062 C 831.742188 132.71875 831.652344 133.710938 831.289062 138.210938 L 831.742188 139.019531 C 836.152344 140.640625 839.929688 142.078125 846.5 142.078125 C 853.339844 142.078125 866.839844 140.820312 868.460938 127.949219 C 868.550781 127.230469 868.550781 126.601562 868.550781 125.96875 C 868.550781 116.070312 861.621094 113.460938 856.671875 111.570312 Z M 871.070312 141 "/>
<path fill-rule="nonzero" fill="rgb(34.901961%, 14.901961%, 14.901961%)" fill-opacity="1" d="M 245.074219 222.300781 C 237.515625 219.148438 233.554688 217.53125 233.554688 213.480469 C 233.554688 210.691406 236.164062 207.179688 242.105469 207.179688 C 248.945312 207.179688 252.992188 209.96875 256.324219 212.21875 L 257.132812 211.859375 L 257.855469 200.070312 L 257.402344 199.441406 C 253.535156 197.820312 249.484375 196.109375 240.753906 196.109375 C 223.835938 196.109375 217.984375 205.648438 217.984375 215.28125 C 217.984375 226.171875 226.445312 230.128906 231.484375 232.558594 L 234.453125 233.910156 C 240.664062 236.519531 245.433594 238.769531 245.433594 243.539062 C 245.433594 246.960938 242.464844 251.011719 234.632812 251.011719 C 226.445312 251.011719 221.855469 247.410156 219.242188 245.339844 L 218.34375 245.609375 L 217.714844 258.300781 L 218.253906 259.019531 C 219.242188 259.378906 220.234375 259.828125 221.222656 260.101562 C 223.292969 260.820312 228.605469 262.351562 235.355469 262.351562 C 238.054688 262.351562 244.894531 262.078125 250.292969 259.558594 C 257.855469 255.871094 261.09375 249.03125 261.09375 241.378906 C 261.09375 236.25 259.113281 230.761719 254.34375 227.070312 C 251.914062 225.269531 249.574219 224.191406 247.414062 223.199219 Z M 294.84375 250.648438 C 293.3125 251.101562 292.230469 251.460938 290.703125 251.460938 C 286.113281 251.460938 285.753906 248.578125 285.570312 247.230469 C 285.300781 244.890625 285.300781 239.941406 285.390625 236.339844 L 285.570312 223.648438 L 293.671875 224.011719 L 294.210938 223.46875 L 295.113281 213.839844 L 294.570312 213.300781 L 285.570312 213.300781 L 285.84375 198.179688 L 285.210938 197.640625 C 279.09375 199.441406 277.472656 199.890625 271.082031 201.511719 L 270.722656 202.140625 L 270.8125 213.390625 L 265.953125 213.210938 L 265.414062 213.660156 L 264.601562 223.289062 L 265.140625 223.828125 L 270.8125 223.648438 L 270.542969 237.960938 C 270.453125 240.210938 270.363281 242.460938 270.363281 244.800781 C 270.363281 253.078125 270.542969 261.988281 284.582031 261.988281 C 288.09375 261.988281 290.882812 261.449219 294.03125 260.910156 L 294.664062 260.28125 L 295.5625 251.011719 Z M 341.554688 234.179688 C 341.644531 226.078125 341.644531 222.570312 339.304688 218.789062 C 337.503906 215.910156 333.90625 212.308594 322.386719 212.308594 C 314.644531 212.308594 309.875 213.75 304.746094 215.28125 L 304.207031 216 L 303.753906 225.808594 L 304.476562 226.171875 C 307.625 224.910156 313.476562 222.570312 319.503906 222.570312 C 322.835938 222.570312 324.183594 223.109375 325.355469 224.28125 C 326.253906 225.179688 326.527344 226.800781 326.527344 228.148438 C 315.726562 229.589844 310.683594 230.578125 305.285156 233.910156 C 300.246094 237.058594 298.535156 242.191406 298.535156 246.238281 C 298.535156 255.871094 305.464844 262.078125 314.285156 262.078125 C 321.035156 262.078125 324.90625 258.839844 326.796875 257.308594 L 326.796875 260.640625 L 327.335938 261.269531 C 333.816406 261 335.796875 260.910156 341.644531 261 L 342.09375 260.371094 C 341.464844 251.550781 341.464844 249.300781 341.464844 240.839844 L 341.554688 234.179688 M 326.707031 248.488281 C 324.816406 249.570312 322.386719 250.828125 319.414062 250.828125 C 316.175781 250.828125 313.476562 249.121094 313.476562 245.339844 C 313.476562 239.398438 320.585938 238.410156 326.707031 237.601562 Z M 377.285156 250.648438 C 375.753906 251.101562 374.671875 251.460938 373.144531 251.460938 C 368.554688 251.460938 368.195312 248.578125 368.011719 247.230469 C 367.742188 244.890625 367.742188 239.941406 367.832031 236.339844 L 368.011719 223.648438 L 376.113281 224.011719 L 376.652344 223.46875 L 377.554688 213.839844 L 377.011719 213.300781 L 368.011719 213.300781 L 368.285156 198.179688 L 367.652344 197.640625 C 361.535156 199.441406 359.914062 199.890625 353.523438 201.511719 L 353.164062 202.140625 L 353.253906 213.390625 L 348.394531 213.210938 L 347.855469 213.660156 L 347.042969 223.289062 L 347.582031 223.828125 L 353.253906 223.648438 L 352.984375 237.960938 C 352.894531 240.210938 352.804688 242.460938 352.804688 244.800781 C 352.804688 253.078125 352.984375 261.988281 367.023438 261.988281 C 370.535156 261.988281 373.324219 261.449219 376.472656 260.910156 L 377.105469 260.28125 L 378.003906 251.011719 Z M 423.902344 247.679688 C 420.484375 249.480469 416.433594 251.550781 409.863281 251.550781 C 404.464844 251.550781 400.773438 249.839844 398.613281 246.601562 C 397.261719 244.710938 396.992188 242.910156 396.632812 241.109375 L 425.703125 240.570312 L 426.242188 239.941406 C 426.152344 235.53125 426.0625 231.03125 424.804688 226.53125 C 421.652344 215.910156 414.722656 213.75 411.664062 213.03125 C 409.414062 212.398438 407.34375 212.21875 405.273438 212.21875 C 391.144531 212.21875 381.78125 221.488281 381.78125 237.058594 C 381.78125 241.289062 382.503906 245.699219 383.941406 248.851562 C 389.164062 261 401.402344 262.078125 407.882812 262.078125 C 415.351562 262.078125 418.59375 260.730469 423.363281 258.839844 L 423.902344 258.121094 L 424.53125 247.949219 L 423.902344 247.679688 M 396.632812 231.570312 C 396.902344 228.78125 397.53125 225 400.953125 222.839844 C 402.03125 222.121094 403.292969 221.851562 404.554688 221.851562 C 407.523438 221.851562 409.324219 223.378906 410.3125 225 C 411.574219 226.980469 411.664062 229.140625 411.664062 231.210938 Z M 514.890625 197.191406 C 509.222656 197.460938 507.691406 197.550781 502.113281 197.460938 L 501.664062 198 L 502.292969 210.148438 L 502.652344 222.570312 L 503.011719 237.421875 C 500.402344 233.011719 499.953125 232.289062 495.363281 225.449219 L 487.171875 213.480469 C 480.421875 203.21875 479.074219 201.238281 476.824219 197.640625 L 476.191406 197.191406 C 469.082031 197.550781 467.914062 197.550781 461.34375 197.460938 L 460.890625 198 C 461.34375 211.949219 461.613281 222.300781 461.613281 234.359375 C 461.613281 243.179688 461.433594 252 461.34375 260.730469 L 461.792969 261.269531 C 467.824219 261 469.710938 261 474.933594 261 L 475.382812 260.460938 L 474.480469 240.75 L 474.210938 229.679688 L 473.671875 217.621094 C 477.902344 224.640625 479.34375 226.980469 485.460938 235.890625 L 494.460938 249.121094 L 502.472656 260.820312 L 503.101562 261.269531 C 508.59375 261 510.210938 261 514.980469 261 L 515.433594 260.550781 C 515.34375 247.5 515.253906 238.679688 515.253906 227.878906 C 515.253906 217.800781 515.34375 207.808594 515.433594 197.730469 Z M 566.464844 234.179688 C 566.554688 226.078125 566.554688 222.570312 564.214844 218.789062 C 562.414062 215.910156 558.816406 212.308594 547.296875 212.308594 C 539.554688 212.308594 534.785156 213.75 529.65625 215.28125 L 529.117188 216 L 528.664062 225.808594 L 529.386719 226.171875 C 532.535156 224.910156 538.386719 222.570312 544.414062 222.570312 C 547.746094 222.570312 549.09375 223.109375 550.265625 224.28125 C 551.164062 225.179688 551.4375 226.800781 551.4375 228.148438 C 540.636719 229.589844 535.59375 230.578125 530.195312 233.910156 C 525.15625 237.058594 523.445312 242.191406 523.445312 246.238281 C 523.445312 255.871094 530.375 262.078125 539.195312 262.078125 C 545.945312 262.078125 549.816406 258.839844 551.707031 257.308594 L 551.707031 260.640625 L 552.246094 261.269531 C 558.726562 261 560.707031 260.910156 566.554688 261 L 567.003906 260.371094 C 566.375 251.550781 566.375 249.300781 566.375 240.839844 L 566.464844 234.179688 M 551.617188 248.488281 C 549.726562 249.570312 547.296875 250.828125 544.324219 250.828125 C 541.085938 250.828125 538.386719 249.121094 538.386719 245.339844 C 538.386719 239.398438 545.496094 238.410156 551.617188 237.601562 Z M 602.195312 250.648438 C 600.664062 251.101562 599.582031 251.460938 598.054688 251.460938 C 593.464844 251.460938 593.105469 248.578125 592.921875 247.230469 C 592.652344 244.890625 592.652344 239.941406 592.742188 236.339844 L 592.921875 223.648438 L 601.023438 224.011719 L 601.5625 223.46875 L 602.464844 213.839844 L 601.921875 213.300781 L 592.921875 213.300781 L 593.195312 198.179688 L 592.5625 197.640625 C 586.445312 199.441406 584.824219 199.890625 578.433594 201.511719 L 578.074219 202.140625 L 578.164062 213.390625 L 573.304688 213.210938 L 572.765625 213.660156 L 571.953125 223.289062 L 572.492188 223.828125 L 578.164062 223.648438 L 577.894531 237.960938 C 577.804688 240.210938 577.714844 242.460938 577.714844 244.800781 C 577.714844 253.078125 577.894531 261.988281 591.933594 261.988281 C 595.445312 261.988281 598.234375 261.449219 601.382812 260.910156 L 602.015625 260.28125 L 602.914062 251.011719 Z M 652.054688 212.851562 L 637.382812 213.570312 L 636.753906 214.109375 C 637.382812 224.28125 637.382812 238.679688 637.382812 240.121094 C 637.382812 242.730469 637.382812 244.171875 637.292969 247.769531 C 634.863281 249.390625 632.972656 250.738281 630.542969 250.738281 C 624.0625 250.738281 624.0625 243.898438 624.0625 238.589844 C 624.0625 236.339844 624.0625 234 624.152344 231.75 L 624.332031 213.570312 L 623.703125 212.851562 L 608.851562 213.570312 L 608.222656 214.109375 C 608.761719 221.671875 608.851562 224.191406 608.851562 233.28125 L 608.851562 239.578125 C 608.761719 249.390625 609.214844 253.53125 612.453125 257.308594 C 615.421875 260.640625 619.742188 262.078125 624.242188 262.078125 C 630.632812 262.078125 634.324219 259.199219 637.5625 256.679688 L 637.472656 260.730469 L 638.101562 261.269531 C 644.671875 261 646.652344 261 652.503906 261 L 653.042969 260.460938 C 652.59375 254.070312 652.414062 250.648438 652.414062 238.949219 C 652.414062 230.488281 652.503906 222.03125 652.683594 213.570312 Z M 689.222656 227.609375 L 691.742188 212.941406 L 691.203125 212.308594 C 690.574219 212.308594 689.941406 212.21875 689.3125 212.21875 C 685.621094 212.21875 681.484375 214.289062 678.601562 220.949219 L 678.871094 212.671875 L 678.152344 211.949219 C 671.492188 213.390625 669.78125 213.660156 663.210938 214.648438 L 662.671875 215.191406 C 663.210938 221.941406 663.484375 225.988281 663.484375 238.5 C 663.484375 245.878906 663.390625 253.261719 663.210938 260.730469 L 663.753906 261.269531 C 670.414062 261 671.851562 260.910156 679.050781 261 L 679.503906 260.371094 C 679.140625 253.078125 678.601562 242.910156 678.601562 236.699219 C 678.601562 232.648438 678.601562 226.710938 684.722656 226.710938 C 686.253906 226.710938 687.152344 227.25 688.414062 227.96875 Z M 737.011719 234.179688 C 737.101562 226.078125 737.101562 222.570312 734.761719 218.789062 C 732.960938 215.910156 729.363281 212.308594 717.84375 212.308594 C 710.101562 212.308594 705.332031 213.75 700.203125 215.28125 L 699.664062 216 L 699.210938 225.808594 L 699.933594 226.171875 C 703.082031 224.910156 708.933594 222.570312 714.960938 222.570312 C 718.292969 222.570312 719.640625 223.109375 720.8125 224.28125 C 721.710938 225.179688 721.984375 226.800781 721.984375 228.148438 C 711.183594 229.589844 706.140625 230.578125 700.742188 233.910156 C 695.703125 237.058594 693.992188 242.191406 693.992188 246.238281 C 693.992188 255.871094 700.921875 262.078125 709.742188 262.078125 C 716.492188 262.078125 720.363281 258.839844 722.253906 257.308594 L 722.253906 260.640625 L 722.792969 261.269531 C 729.273438 261 731.253906 260.910156 737.101562 261 L 737.550781 260.371094 C 736.921875 251.550781 736.921875 249.300781 736.921875 240.839844 L 737.011719 234.179688 M 722.164062 248.488281 C 720.273438 249.570312 717.84375 250.828125 714.871094 250.828125 C 711.632812 250.828125 708.933594 249.121094 708.933594 245.339844 C 708.933594 239.398438 716.042969 238.410156 722.164062 237.601562 Z M 763.382812 260.371094 C 762.933594 250.019531 762.484375 240.570312 762.484375 212.128906 C 762.484375 203.578125 762.574219 199.53125 762.933594 189.808594 L 762.304688 189.179688 L 746.914062 191.609375 L 746.554688 192.148438 C 747.453125 203.128906 747.542969 206.101562 747.722656 220.679688 C 747.816406 225.988281 747.816406 231.300781 747.816406 236.609375 C 747.816406 246.328125 747.632812 251.730469 747.273438 260.640625 L 747.816406 261.269531 C 753.84375 261 756.273438 260.910156 762.84375 261 Z M 768.425781 261 "/>
<path fill-rule="nonzero" fill="rgb(34.901961%, 14.901961%, 14.901961%)" fill-opacity="1" d="M 351.453125 356.25 C 357.484375 366.511719 358.835938 369.210938 364.59375 381 L 365.316406 381.449219 C 368.105469 381.269531 370.804688 381.089844 373.59375 381 C 376.386719 380.910156 379.265625 380.820312 382.054688 380.820312 L 382.59375 379.738281 C 379.175781 375.328125 378.183594 373.980469 371.703125 363.628906 C 368.824219 359.039062 367.386719 356.609375 365.136719 352.648438 C 369.183594 350.851562 377.375 347.070312 377.375 335.640625 C 377.375 331.679688 376.292969 323.488281 368.914062 319.621094 C 364.234375 317.191406 359.375 317.101562 348.84375 317.28125 L 342.542969 317.371094 L 331.566406 317.371094 L 331.113281 317.910156 C 331.476562 327 331.835938 336.359375 331.835938 360.839844 C 331.835938 369.210938 331.746094 373.261719 331.476562 380.730469 L 332.015625 381.269531 C 338.585938 381 340.023438 380.910156 347.40625 381 L 347.945312 380.460938 C 347.226562 370.019531 347.136719 367.140625 347.042969 356.429688 L 351.453125 356.25 M 347.226562 328.261719 C 348.484375 328.171875 349.746094 328.171875 351.003906 328.171875 C 354.515625 328.171875 361.445312 328.171875 361.445312 336.089844 C 361.445312 338.609375 360.816406 341.941406 357.484375 344.011719 C 354.964844 345.539062 351.726562 345.71875 347.226562 345.808594 Z M 427.324219 367.679688 C 423.90625 369.480469 419.855469 371.550781 413.285156 371.550781 C 407.886719 371.550781 404.195312 369.839844 402.035156 366.601562 C 400.683594 364.710938 400.414062 362.910156 400.054688 361.109375 L 429.125 360.570312 L 429.664062 359.941406 C 429.574219 355.53125 429.484375 351.03125 428.226562 346.53125 C 425.074219 335.910156 418.144531 333.75 415.085938 333.03125 C 412.835938 332.398438 410.765625 332.21875 408.695312 332.21875 C 394.566406 332.21875 385.203125 341.488281 385.203125 357.058594 C 385.203125 361.289062 385.925781 365.699219 387.363281 368.851562 C 392.585938 381 404.824219 382.078125 411.304688 382.078125 C 418.773438 382.078125 422.015625 380.730469 426.785156 378.839844 L 427.324219 378.121094 L 427.953125 367.949219 L 427.324219 367.679688 M 400.054688 351.570312 C 400.324219 348.78125 400.953125 345 404.375 342.839844 C 405.453125 342.121094 406.714844 341.851562 407.976562 341.851562 C 410.945312 341.851562 412.746094 343.378906 413.734375 345 C 414.996094 346.980469 415.085938 349.140625 415.085938 351.210938 Z M 456.84375 349.949219 C 453.78125 348.871094 451.351562 347.878906 451.351562 345.359375 C 451.351562 344.28125 452.074219 341.308594 457.652344 341.308594 C 463.144531 341.308594 466.652344 343.648438 468.902344 345.089844 L 469.714844 344.820312 L 470.613281 335.011719 L 470.164062 334.46875 C 465.933594 333.300781 462.242188 332.21875 456.394531 332.21875 C 451.984375 332.21875 443.164062 332.578125 438.484375 339.328125 C 437.3125 340.949219 436.054688 343.648438 436.054688 347.25 C 436.054688 356.878906 443.523438 359.761719 447.753906 361.378906 L 451.171875 362.640625 C 453.601562 363.449219 457.5625 364.800781 457.5625 368.039062 C 457.5625 370.289062 455.492188 372.71875 450.453125 372.71875 C 447.933594 372.71875 444.242188 371.910156 440.914062 370.199219 C 439.382812 369.390625 438.664062 368.761719 437.3125 367.679688 L 436.503906 368.039062 C 436.324219 372.71875 436.234375 373.710938 435.871094 378.210938 L 436.324219 379.019531 C 440.734375 380.640625 444.511719 382.078125 451.082031 382.078125 C 457.921875 382.078125 471.421875 380.820312 473.042969 367.949219 C 473.132812 367.230469 473.132812 366.601562 473.132812 365.96875 C 473.132812 356.070312 466.203125 353.460938 461.253906 351.570312 Z M 521.015625 367.679688 C 517.597656 369.480469 513.546875 371.550781 506.976562 371.550781 C 501.578125 371.550781 497.886719 369.839844 495.726562 366.601562 C 494.375 364.710938 494.105469 362.910156 493.746094 361.109375 L 522.816406 360.570312 L 523.355469 359.941406 C 523.265625 355.53125 523.175781 351.03125 521.917969 346.53125 C 518.765625 335.910156 511.835938 333.75 508.777344 333.03125 C 506.527344 332.398438 504.457031 332.21875 502.386719 332.21875 C 488.257812 332.21875 478.894531 341.488281 478.894531 357.058594 C 478.894531 361.289062 479.617188 365.699219 481.054688 368.851562 C 486.277344 381 498.515625 382.078125 504.996094 382.078125 C 512.464844 382.078125 515.707031 380.730469 520.476562 378.839844 L 521.015625 378.121094 L 521.644531 367.949219 L 521.015625 367.679688 M 493.746094 351.570312 C 494.015625 348.78125 494.644531 345 498.066406 342.839844 C 499.144531 342.121094 500.40625 341.851562 501.667969 341.851562 C 504.636719 341.851562 506.4375 343.378906 507.425781 345 C 508.6875 346.980469 508.777344 349.140625 508.777344 351.210938 Z M 557.644531 347.609375 L 560.164062 332.941406 L 559.625 332.308594 C 558.996094 332.308594 558.363281 332.21875 557.734375 332.21875 C 554.042969 332.21875 549.90625 334.289062 547.023438 340.949219 L 547.292969 332.671875 L 546.574219 331.949219 C 539.914062 333.390625 538.203125 333.660156 531.632812 334.648438 L 531.09375 335.191406 C 531.632812 341.941406 531.90625 345.988281 531.90625 358.5 C 531.90625 365.878906 531.8125 373.261719 531.632812 380.730469 L 532.175781 381.269531 C 538.835938 381 540.273438 380.910156 547.472656 381 L 547.925781 380.371094 C 547.5625 373.078125 547.023438 362.910156 547.023438 356.699219 C 547.023438 352.648438 547.023438 346.710938 553.144531 346.710938 C 554.675781 346.710938 555.574219 347.25 556.835938 347.96875 Z M 590.222656 380.28125 C 593.105469 371.28125 594.8125 365.699219 596.703125 360.03125 C 599.132812 352.738281 603.09375 341.039062 605.613281 333.660156 L 605.164062 333.03125 L 592.5625 333.300781 L 591.933594 333.929688 C 590.675781 339.960938 590.40625 341.21875 588.605469 348.238281 L 584.015625 365.96875 L 581.765625 356.25 L 580.054688 349.320312 C 577.804688 340.949219 577.445312 339.238281 576.183594 333.300781 L 575.554688 332.761719 C 568.445312 333.570312 566.644531 333.660156 559.804688 333.75 L 559.445312 334.46875 C 571.414062 369.929688 572.40625 373.261719 574.382812 380.640625 L 575.015625 381.269531 C 580.863281 381 583.203125 380.910156 589.683594 381 Z M 650.34375 367.679688 C 646.925781 369.480469 642.875 371.550781 636.304688 371.550781 C 630.90625 371.550781 627.214844 369.839844 625.054688 366.601562 C 623.703125 364.710938 623.433594 362.910156 623.074219 361.109375 L 652.144531 360.570312 L 652.683594 359.941406 C 652.59375 355.53125 652.503906 351.03125 651.246094 346.53125 C 648.09375 335.910156 641.164062 333.75 638.105469 333.03125 C 635.855469 332.398438 633.785156 332.21875 631.714844 332.21875 C 617.585938 332.21875 608.222656 341.488281 608.222656 357.058594 C 608.222656 361.289062 608.945312 365.699219 610.382812 368.851562 C 615.605469 381 627.84375 382.078125 634.324219 382.078125 C 641.792969 382.078125 645.035156 380.730469 649.804688 378.839844 L 650.34375 378.121094 L 650.972656 367.949219 L 650.34375 367.679688 M 623.074219 351.570312 C 623.34375 348.78125 623.972656 345 627.394531 342.839844 C 628.472656 342.121094 629.734375 341.851562 630.996094 341.851562 C 633.964844 341.851562 635.765625 343.378906 636.753906 345 C 638.015625 346.980469 638.105469 349.140625 638.105469 351.210938 Z M 655.566406 381 "/>
</svg>
