<?xml version="1.0" encoding="UTF-8"?>
<svg xmlns="http://www.w3.org/2000/svg" xmlns:xlink="http://www.w3.org/1999/xlink" width="975" height="1300" viewBox="0 0 975 1300">
<path fill-rule="nonzero" fill="rgb(98.823529%, 78.823529%, 9.019608%)" fill-opacity="1" d="M 50 50 L 925 50 L 925 290 L 50 290 Z M 50 50 "/>
<path fill-rule="nonzero" fill="rgb(34.901961%, 14.901961%, 14.901961%)" fill-opacity="1" d="M 190.582031 102.300781 C 183.023438 99.148438 179.0625 97.53125 179.0625 93.480469 C 179.0625 90.691406 181.671875 87.179688 187.613281 87.179688 C 194.453125 87.179688 198.5 89.96875 201.832031 92.21875 L 202.640625 91.859375 L 203.363281 80.070312 L 202.910156 79.441406 C 199.042969 77.820312 194.992188 76.109375 186.261719 76.109375 C 169.34375 76.109375 163.492188 85.648438 163.492188 95.28125 C 163.492188 106.171875 171.953125 110.128906 176.992188 112.558594 L 179.960938 113.910156 C 186.171875 116.519531 190.941406 118.769531 190.941406 123.539062 C 190.941406 126.960938 187.972656 131.011719 180.140625 131.011719 C 171.953125 131.011719 167.363281 127.410156 164.75 125.339844 L 163.851562 125.609375 L 163.222656 138.300781 L 163.761719 139.019531 C 164.75 139.378906 165.742188 139.828125 166.730469 140.101562 C 168.800781 140.820312 174.113281 142.351562 180.863281 142.351562 C 183.5625 142.351562 190.402344 142.078125 195.800781 139.558594 C 203.363281 135.871094 206.601562 129.03125 206.601562 121.378906 C 206.601562 116.25 204.621094 110.761719 199.851562 107.070312 C 197.421875 105.269531 195.082031 104.191406 192.921875 103.199219 Z M 250.339844 128.039062 C 247.910156 129.480469 245.570312 130.921875 240.980469 130.921875 C 230.808594 130.921875 228.738281 122.460938 228.738281 117.058594 C 228.738281 110.488281 231.621094 102.929688 240.351562 102.929688 C 244.308594 102.929688 246.46875 104.371094 249.171875 106.171875 L 250.070312 105.898438 C 250.429688 101.128906 250.519531 99.871094 251.238281 95.101562 L 250.789062 94.558594 C 246.828125 93.300781 243.410156 92.21875 238.191406 92.21875 C 217.039062 92.21875 212.898438 108.238281 212.898438 117.421875 C 212.898438 127.769531 218.300781 141.808594 238.550781 141.808594 C 243.320312 141.808594 246.378906 140.910156 250.160156 139.828125 L 250.699219 139.289062 L 251.058594 128.488281 Z M 302.363281 140.371094 C 302.003906 132.988281 301.914062 130.46875 301.734375 121.109375 L 301.734375 114.359375 C 301.644531 105.808594 301.554688 100.859375 298.941406 97.078125 C 296.332031 93.390625 292.554688 92.21875 288.59375 92.21875 C 282.023438 92.21875 276.894531 95.371094 273.292969 97.53125 L 273.5625 69.808594 L 273.023438 69.179688 L 257.632812 71.609375 L 257.183594 72.148438 C 257.992188 80.878906 258.171875 84.121094 258.351562 95.730469 C 258.535156 103.019531 258.625 110.308594 258.625 117.601562 C 258.625 126.511719 258.441406 131.820312 258.261719 140.640625 L 258.714844 141.269531 C 265.375 140.910156 266.722656 140.910156 274.011719 140.910156 L 274.554688 140.371094 C 273.921875 126.871094 273.832031 122.820312 273.742188 106.890625 C 275.453125 105.71875 277.613281 104.191406 280.671875 104.191406 C 285.625 104.191406 285.984375 109.320312 286.34375 112.921875 C 286.523438 115.710938 286.613281 128.488281 286.613281 131.820312 C 286.613281 134.789062 286.523438 137.671875 286.523438 140.640625 L 286.972656 141.269531 C 293.453125 140.910156 294.894531 140.910156 301.824219 140.910156 Z M 358.433594 117.058594 C 358.433594 113.550781 358.433594 98.96875 345.832031 94.019531 C 341.871094 92.488281 337.191406 92.308594 334.851562 92.308594 C 319.191406 92.308594 310.371094 100.679688 310.371094 117.238281 C 310.371094 123 311.273438 128.851562 314.601562 133.710938 C 316.941406 137.21875 321.351562 142.078125 334.222656 142.078125 C 353.300781 142.078125 358.433594 130.558594 358.433594 117.058594 M 342.863281 116.96875 C 342.863281 124.351562 341.871094 132.539062 334.402344 132.539062 C 332.0625 132.539062 330.441406 131.460938 329.363281 130.46875 C 327.832031 128.941406 326.121094 125.878906 326.121094 117.148438 C 326.121094 114.539062 326.121094 108.78125 327.921875 105.628906 C 329.273438 103.199219 331.613281 101.578125 334.492188 101.578125 C 337.011719 101.578125 339.082031 102.929688 340.253906 104.371094 C 342.414062 106.980469 342.863281 112.109375 342.863281 116.96875 Z M 412.792969 117.058594 C 412.792969 113.550781 412.792969 98.96875 400.191406 94.019531 C 396.230469 92.488281 391.550781 92.308594 389.210938 92.308594 C 373.550781 92.308594 364.730469 100.679688 364.730469 117.238281 C 364.730469 123 365.632812 128.851562 368.960938 133.710938 C 371.300781 137.21875 375.710938 142.078125 388.582031 142.078125 C 407.660156 142.078125 412.792969 130.558594 412.792969 117.058594 M 397.222656 116.96875 C 397.222656 124.351562 396.230469 132.539062 388.761719 132.539062 C 386.421875 132.539062 384.800781 131.460938 383.722656 130.46875 C 382.191406 128.941406 380.480469 125.878906 380.480469 117.148438 C 380.480469 114.539062 380.480469 108.78125 382.28125 105.628906 C 383.632812 103.199219 385.972656 101.578125 388.851562 101.578125 C 391.371094 101.578125 393.441406 102.929688 394.613281 104.371094 C 396.773438 106.980469 397.222656 112.109375 397.222656 116.96875 Z M 465.441406 140.371094 C 464.992188 132.449219 464.992188 129.929688 464.8125 121.109375 L 464.8125 114.089844 C 464.722656 105.449219 464.632812 101.308594 462.382812 97.621094 C 459.589844 92.941406 454.460938 92.21875 451.222656 92.21875 C 445.730469 92.21875 440.960938 95.101562 436.820312 97.53125 L 437 92.578125 L 436.101562 91.949219 C 429.171875 93.390625 427.640625 93.660156 420.890625 94.558594 L 420.351562 95.191406 C 421.070312 103.019531 421.613281 108.691406 421.613281 123.359375 C 421.613281 129.121094 421.519531 134.878906 421.429688 140.640625 L 421.972656 141.179688 C 428.453125 140.910156 429.800781 140.910156 437 140.910156 L 437.542969 140.371094 C 437 126.511719 436.910156 123 436.820312 106.890625 C 438.710938 105.628906 440.871094 104.101562 443.75 104.101562 C 448.703125 104.101562 449.152344 109.410156 449.421875 112.648438 C 449.601562 115.621094 449.691406 127.949219 449.691406 131.371094 C 449.691406 134.429688 449.601562 137.578125 449.601562 140.640625 L 450.140625 141.179688 C 456.082031 141 457.613281 140.910156 464.8125 140.910156 Z M 515.660156 127.679688 C 512.242188 129.480469 508.191406 131.550781 501.621094 131.550781 C 496.222656 131.550781 492.53125 129.839844 490.371094 126.601562 C 489.019531 124.710938 488.75 122.910156 488.390625 121.109375 L 517.460938 120.570312 L 518 119.941406 C 517.910156 115.53125 517.820312 111.03125 516.5625 106.53125 C 513.410156 95.910156 506.480469 93.75 503.421875 93.03125 C 501.171875 92.398438 499.101562 92.21875 497.03125 92.21875 C 482.902344 92.21875 473.539062 101.488281 473.539062 117.058594 C 473.539062 121.289062 474.261719 125.699219 475.699219 128.851562 C 480.921875 141 493.160156 142.078125 499.640625 142.078125 C 507.109375 142.078125 510.351562 140.730469 515.121094 138.839844 L 515.660156 138.121094 L 516.289062 127.949219 L 515.660156 127.679688 M 488.390625 111.570312 C 488.660156 108.78125 489.289062 105 492.710938 102.839844 C 493.789062 102.121094 495.050781 101.851562 496.3125 101.851562 C 499.28125 101.851562 501.082031 103.378906 502.070312 105 C 503.332031 106.980469 503.421875 109.140625 503.421875 111.210938 Z M 552.292969 107.609375 L 554.8125 92.941406 L 554.273438 92.308594 C 553.644531 92.308594 553.011719 92.21875 552.382812 92.21875 C 548.691406 92.21875 544.554688 94.289062 541.671875 100.949219 L 541.941406 92.671875 L 541.222656 91.949219 C 534.5625 93.390625 532.851562 93.660156 526.28125 94.648438 L 525.742188 95.191406 C 526.28125 101.941406 526.554688 105.988281 526.554688 118.5 C 526.554688 125.878906 526.460938 133.261719 526.28125 140.730469 L 526.824219 141.269531 C 533.484375 141 534.921875 140.910156 542.121094 141 L 542.574219 140.371094 C 542.210938 133.078125 541.671875 122.910156 541.671875 116.699219 C 541.671875 112.648438 541.671875 106.710938 547.792969 106.710938 C 549.324219 106.710938 550.222656 107.25 551.484375 107.96875 Z M 639.859375 123.179688 C 639.859375 118.679688 639.949219 114.179688 640.039062 109.589844 L 639.589844 109.050781 L 624.289062 109.320312 L 623.839844 109.859375 C 624.648438 118.679688 624.738281 120.839844 624.558594 129.03125 C 622.128906 129.570312 620.332031 130.019531 617.808594 130.019531 C 603.859375 130.019531 601.339844 116.699219 601.339844 109.949219 C 601.339844 95.730469 608.988281 87.988281 620.332031 87.988281 C 627.171875 87.988281 631.21875 90.691406 635.449219 93.480469 L 636.171875 93.210938 C 636.621094 87.628906 636.800781 86.191406 637.519531 80.789062 L 637.070312 80.25 C 633.289062 78.628906 627.261719 76.109375 617.898438 76.109375 C 607.640625 76.109375 596.390625 78.988281 589.28125 91.050781 C 586.039062 96.71875 584.691406 104.011719 584.691406 110.039062 C 584.691406 118.5 586.941406 125.609375 590.988281 130.828125 C 596.300781 137.671875 602.871094 139.828125 606.378906 140.820312 C 608.988281 141.539062 612.859375 142.351562 618.441406 142.351562 C 627.710938 142.351562 633.378906 140.460938 639.679688 138.390625 L 640.128906 137.671875 C 640.039062 133.53125 639.859375 129.390625 639.859375 125.25 Z M 693.234375 92.851562 L 678.5625 93.570312 L 677.933594 94.109375 C 678.5625 104.28125 678.5625 118.679688 678.5625 120.121094 C 678.5625 122.730469 678.5625 124.171875 678.472656 127.769531 C 676.042969 129.390625 674.152344 130.738281 671.722656 130.738281 C 665.242188 130.738281 665.242188 123.898438 665.242188 118.589844 C 665.242188 116.339844 665.242188 114 665.332031 111.75 L 665.511719 93.570312 L 664.882812 92.851562 L 650.03125 93.570312 L 649.402344 94.109375 C 649.941406 101.671875 650.03125 104.191406 650.03125 113.28125 L 650.03125 119.578125 C 649.941406 129.390625 650.394531 133.53125 653.632812 137.308594 C 656.601562 140.640625 660.921875 142.078125 665.421875 142.078125 C 671.8125 142.078125 675.503906 139.199219 678.742188 136.679688 L 678.652344 140.730469 L 679.28125 141.269531 C 685.851562 141 687.832031 141 693.683594 141 L 694.222656 140.460938 C 693.773438 134.070312 693.59375 130.648438 693.59375 118.949219 C 693.59375 110.488281 693.683594 102.03125 693.863281 93.570312 Z M 720.230469 140.371094 C 719.78125 130.019531 719.332031 120.570312 719.332031 92.128906 C 719.332031 83.578125 719.421875 79.53125 719.78125 69.808594 L 719.152344 69.179688 L 703.761719 71.609375 L 703.402344 72.148438 C 704.300781 83.128906 704.390625 86.101562 704.570312 100.679688 C 704.664062 105.988281 704.664062 111.300781 704.664062 116.609375 C 704.664062 126.328125 704.480469 131.730469 704.121094 140.640625 L 704.664062 141.269531 C 710.691406 141 713.121094 140.910156 719.691406 141 Z M 765.863281 128.039062 C 763.433594 129.480469 761.09375 130.921875 756.503906 130.921875 C 746.332031 130.921875 744.261719 122.460938 744.261719 117.058594 C 744.261719 110.488281 747.144531 102.929688 755.875 102.929688 C 759.832031 102.929688 761.992188 104.371094 764.695312 106.171875 L 765.59375 105.898438 C 765.953125 101.128906 766.042969 99.871094 766.761719 95.101562 L 766.3125 94.558594 C 762.351562 93.300781 758.933594 92.21875 753.714844 92.21875 C 732.5625 92.21875 728.421875 108.238281 728.421875 117.421875 C 728.421875 127.769531 733.824219 141.808594 754.074219 141.808594 C 758.84375 141.808594 761.902344 140.910156 765.683594 139.828125 L 766.222656 139.289062 L 766.582031 128.488281 Z M 817.882812 140.371094 C 817.523438 132.988281 817.433594 130.46875 817.253906 121.109375 L 817.253906 114.359375 C 817.164062 105.808594 817.074219 100.859375 814.460938 97.078125 C 811.851562 93.390625 808.074219 92.21875 804.113281 92.21875 C 797.542969 92.21875 792.414062 95.371094 788.8125 97.53125 L 789.082031 69.808594 L 788.542969 69.179688 L 773.152344 71.609375 L 772.703125 72.148438 C 773.511719 80.878906 773.691406 84.121094 773.871094 95.730469 C 774.054688 103.019531 774.144531 110.308594 774.144531 117.601562 C 774.144531 126.511719 773.960938 131.820312 773.78125 140.640625 L 774.234375 141.269531 C 780.894531 140.910156 782.242188 140.910156 789.53125 140.910156 L 790.074219 140.371094 C 789.441406 126.871094 789.351562 122.820312 789.261719 106.890625 C 790.972656 105.71875 793.132812 104.191406 796.191406 104.191406 C 801.144531 104.191406 801.503906 109.320312 801.863281 112.921875 C 802.042969 115.710938 802.132812 128.488281 802.132812 131.820312 C 802.132812 134.789062 802.042969 137.671875 802.042969 140.640625 L 802.492188 141.269531 C 808.972656 140.910156 810.414062 140.910156 817.34375 140.910156 Z M 822.742188 141 "/>
<path fill-rule="nonzero" fill="rgb(34.901961%, 14.901961%, 14.901961%)" fill-opacity="1" d="M 273.109375 222.300781 C 265.550781 219.148438 261.589844 217.53125 261.589844 213.480469 C 261.589844 210.691406 264.199219 207.179688 270.140625 207.179688 C 276.980469 207.179688 281.027344 209.96875 284.359375 212.21875 L 285.167969 211.859375 L 285.890625 200.070312 L 285.4375 199.441406 C 281.570312 197.820312 277.519531 196.109375 268.789062 196.109375 C 251.871094 196.109375 246.019531 205.648438 246.019531 215.28125 C 246.019531 226.171875 254.480469 230.128906 259.519531 232.558594 L 262.488281 233.910156 C 268.699219 236.519531 273.46875 238.769531 273.46875 243.539062 C 273.46875 246.960938 270.5 251.011719 262.667969 251.011719 C 254.480469 251.011719 249.890625 247.410156 247.277344 245.339844 L 246.378906 245.609375 L 245.75 258.300781 L 246.289062 259.019531 C 247.277344 259.378906 248.269531 259.828125 249.257812 260.101562 C 251.328125 260.820312 256.640625 262.351562 263.390625 262.351562 C 266.089844 262.351562 272.929688 262.078125 278.328125 259.558594 C 285.890625 255.871094 289.128906 249.03125 289.128906 241.378906 C 289.128906 236.25 287.148438 230.761719 282.378906 227.070312 C 279.949219 225.269531 277.609375 224.191406 275.449219 223.199219 Z M 322.878906 250.648438 C 321.347656 251.101562 320.265625 251.460938 318.738281 251.460938 C 314.148438 251.460938 313.789062 248.578125 313.605469 247.230469 C 313.335938 244.890625 313.335938 239.941406 313.425781 236.339844 L 313.605469 223.648438 L 321.707031 224.011719 L 322.246094 223.46875 L 323.148438 213.839844 L 322.605469 213.300781 L 313.605469 213.300781 L 313.878906 198.179688 L 313.246094 197.640625 C 307.128906 199.441406 305.507812 199.890625 299.117188 201.511719 L 298.757812 202.140625 L 298.847656 213.390625 L 293.988281 213.210938 L 293.449219 213.660156 L 292.636719 223.289062 L 293.175781 223.828125 L 298.847656 223.648438 L 298.578125 237.960938 C 298.488281 240.210938 298.398438 242.460938 298.398438 244.800781 C 298.398438 253.078125 298.578125 261.988281 312.617188 261.988281 C 316.128906 261.988281 318.917969 261.449219 322.066406 260.910156 L 322.699219 260.28125 L 323.597656 251.011719 Z M 369.589844 234.179688 C 369.679688 226.078125 369.679688 222.570312 367.339844 218.789062 C 365.539062 215.910156 361.941406 212.308594 350.421875 212.308594 C 342.679688 212.308594 337.910156 213.75 332.78125 215.28125 L 332.242188 216 L 331.789062 225.808594 L 332.511719 226.171875 C 335.660156 224.910156 341.511719 222.570312 347.539062 222.570312 C 350.871094 222.570312 352.21875 223.109375 353.390625 224.28125 C 354.289062 225.179688 354.5625 226.800781 354.5625 228.148438 C 343.761719 229.589844 338.71875 230.578125 333.320312 233.910156 C 328.28125 237.058594 326.570312 242.191406 326.570312 246.238281 C 326.570312 255.871094 333.5 262.078125 342.320312 262.078125 C 349.070312 262.078125 352.941406 258.839844 354.832031 257.308594 L 354.832031 260.640625 L 355.371094 261.269531 C 361.851562 261 363.832031 260.910156 369.679688 261 L 370.128906 260.371094 C 369.5 251.550781 369.5 249.300781 369.5 240.839844 L 369.589844 234.179688 M 354.742188 248.488281 C 352.851562 249.570312 350.421875 250.828125 347.449219 250.828125 C 344.210938 250.828125 341.511719 249.121094 341.511719 245.339844 C 341.511719 239.398438 348.621094 238.410156 354.742188 237.601562 Z M 405.320312 250.648438 C 403.789062 251.101562 402.707031 251.460938 401.179688 251.460938 C 396.589844 251.460938 396.230469 248.578125 396.046875 247.230469 C 395.777344 244.890625 395.777344 239.941406 395.867188 236.339844 L 396.046875 223.648438 L 404.148438 224.011719 L 404.6875 223.46875 L 405.589844 213.839844 L 405.046875 213.300781 L 396.046875 213.300781 L 396.320312 198.179688 L 395.6875 197.640625 C 389.570312 199.441406 387.949219 199.890625 381.558594 201.511719 L 381.199219 202.140625 L 381.289062 213.390625 L 376.429688 213.210938 L 375.890625 213.660156 L 375.078125 223.289062 L 375.617188 223.828125 L 381.289062 223.648438 L 381.019531 237.960938 C 380.929688 240.210938 380.839844 242.460938 380.839844 244.800781 C 380.839844 253.078125 381.019531 261.988281 395.058594 261.988281 C 398.570312 261.988281 401.359375 261.449219 404.507812 260.910156 L 405.140625 260.28125 L 406.039062 251.011719 Z M 451.9375 247.679688 C 448.519531 249.480469 444.46875 251.550781 437.898438 251.550781 C 432.5 251.550781 428.808594 249.839844 426.648438 246.601562 C 425.296875 244.710938 425.027344 242.910156 424.667969 241.109375 L 453.738281 240.570312 L 454.277344 239.941406 C 454.1875 235.53125 454.097656 231.03125 452.839844 226.53125 C 449.6875 215.910156 442.757812 213.75 439.699219 213.03125 C 437.449219 212.398438 435.378906 212.21875 433.308594 212.21875 C 419.179688 212.21875 409.816406 221.488281 409.816406 237.058594 C 409.816406 241.289062 410.539062 245.699219 411.976562 248.851562 C 417.199219 261 429.4375 262.078125 435.917969 262.078125 C 443.386719 262.078125 446.628906 260.730469 451.398438 258.839844 L 451.9375 258.121094 L 452.566406 247.949219 L 451.9375 247.679688 M 424.667969 231.570312 C 424.9375 228.78125 425.566406 225 428.988281 222.839844 C 430.066406 222.121094 431.328125 221.851562 432.589844 221.851562 C 435.558594 221.851562 437.359375 223.378906 438.347656 225 C 439.609375 226.980469 439.699219 229.140625 439.699219 231.210938 Z M 505.578125 261 C 513.949219 261.179688 524.296875 261.359375 531.046875 256.679688 C 536.988281 252.449219 538.609375 246.511719 538.609375 241.46875 C 538.609375 235.710938 536.175781 230.398438 531.046875 227.878906 C 529.335938 226.980469 527.359375 226.621094 525.46875 226.261719 C 528.527344 225 532.128906 223.378906 534.46875 218.609375 C 535.457031 216.539062 535.90625 214.378906 535.90625 212.308594 C 535.90625 209.429688 535.1875 205.46875 532.308594 202.230469 C 528.527344 198.179688 522.675781 197.101562 513.859375 197.101562 C 510.796875 197.101562 505.308594 197.191406 502.246094 197.28125 L 489.648438 197.460938 L 489.109375 198 C 489.46875 206.640625 489.558594 209.96875 489.558594 222.390625 C 489.558594 235.171875 489.46875 247.859375 489.289062 260.640625 L 489.917969 261 L 505.578125 261 M 504.949219 233.640625 C 511.789062 233.460938 515.746094 233.460938 518.359375 234.988281 C 520.96875 236.609375 521.957031 239.488281 521.957031 242.371094 C 521.957031 246.421875 519.707031 248.941406 516.378906 250.109375 C 513.675781 251.011719 508.816406 251.011719 504.949219 250.921875 L 504.949219 233.640625 M 504.949219 207.179688 C 506.835938 207.179688 509.359375 207.089844 510.886719 207.089844 C 515.746094 207.089844 520.15625 208.800781 520.15625 214.648438 C 520.15625 219.421875 516.648438 221.398438 515.566406 221.941406 C 513.316406 222.929688 508.546875 222.929688 504.949219 222.929688 Z M 586.9375 247.679688 C 583.519531 249.480469 579.46875 251.550781 572.898438 251.550781 C 567.5 251.550781 563.808594 249.839844 561.648438 246.601562 C 560.296875 244.710938 560.027344 242.910156 559.667969 241.109375 L 588.738281 240.570312 L 589.277344 239.941406 C 589.1875 235.53125 589.097656 231.03125 587.839844 226.53125 C 584.6875 215.910156 577.757812 213.75 574.699219 213.03125 C 572.449219 212.398438 570.378906 212.21875 568.308594 212.21875 C 554.179688 212.21875 544.816406 221.488281 544.816406 237.058594 C 544.816406 241.289062 545.539062 245.699219 546.976562 248.851562 C 552.199219 261 564.4375 262.078125 570.917969 262.078125 C 578.386719 262.078125 581.628906 260.730469 586.398438 258.839844 L 586.9375 258.121094 L 587.566406 247.949219 L 586.9375 247.679688 M 559.667969 231.570312 C 559.9375 228.78125 560.566406 225 563.988281 222.839844 C 565.066406 222.121094 566.328125 221.851562 567.589844 221.851562 C 570.558594 221.851562 572.359375 223.378906 573.347656 225 C 574.609375 226.980469 574.699219 229.140625 574.699219 231.210938 Z M 637.609375 234.179688 C 637.699219 226.078125 637.699219 222.570312 635.359375 218.789062 C 633.558594 215.910156 629.960938 212.308594 618.441406 212.308594 C 610.699219 212.308594 605.929688 213.75 600.800781 215.28125 L 600.261719 216 L 599.808594 225.808594 L 600.53125 226.171875 C 603.679688 224.910156 609.53125 222.570312 615.558594 222.570312 C 618.890625 222.570312 620.238281 223.109375 621.410156 224.28125 C 622.308594 225.179688 622.582031 226.800781 622.582031 228.148438 C 611.78125 229.589844 606.738281 230.578125 601.339844 233.910156 C 596.300781 237.058594 594.589844 242.191406 594.589844 246.238281 C 594.589844 255.871094 601.519531 262.078125 610.339844 262.078125 C 617.089844 262.078125 620.960938 258.839844 622.851562 257.308594 L 622.851562 260.640625 L 623.390625 261.269531 C 629.871094 261 631.851562 260.910156 637.699219 261 L 638.148438 260.371094 C 637.519531 251.550781 637.519531 249.300781 637.519531 240.839844 L 637.609375 234.179688 M 622.761719 248.488281 C 620.871094 249.570312 618.441406 250.828125 615.46875 250.828125 C 612.230469 250.828125 609.53125 249.121094 609.53125 245.339844 C 609.53125 239.398438 616.640625 238.410156 622.761719 237.601562 Z M 683.328125 248.039062 C 680.898438 249.480469 678.558594 250.921875 673.96875 250.921875 C 663.796875 250.921875 661.726562 242.460938 661.726562 237.058594 C 661.726562 230.488281 664.609375 222.929688 673.339844 222.929688 C 677.296875 222.929688 679.457031 224.371094 682.160156 226.171875 L 683.058594 225.898438 C 683.417969 221.128906 683.507812 219.871094 684.226562 215.101562 L 683.777344 214.558594 C 679.816406 213.300781 676.398438 212.21875 671.179688 212.21875 C 650.027344 212.21875 645.886719 228.238281 645.886719 237.421875 C 645.886719 247.769531 651.289062 261.808594 671.539062 261.808594 C 676.308594 261.808594 679.367188 260.910156 683.148438 259.828125 L 683.6875 259.289062 L 684.046875 248.488281 Z M 735.347656 260.371094 C 734.988281 252.988281 734.898438 250.46875 734.71875 241.109375 L 734.71875 234.359375 C 734.628906 225.808594 734.539062 220.859375 731.925781 217.078125 C 729.316406 213.390625 725.539062 212.21875 721.578125 212.21875 C 715.007812 212.21875 709.878906 215.371094 706.277344 217.53125 L 706.546875 189.808594 L 706.007812 189.179688 L 690.617188 191.609375 L 690.167969 192.148438 C 690.976562 200.878906 691.15625 204.121094 691.335938 215.730469 C 691.519531 223.019531 691.609375 230.308594 691.609375 237.601562 C 691.609375 246.511719 691.425781 251.820312 691.246094 260.640625 L 691.699219 261.269531 C 698.359375 260.910156 699.707031 260.910156 706.996094 260.910156 L 707.539062 260.371094 C 706.90625 246.871094 706.816406 242.820312 706.726562 226.890625 C 708.4375 225.71875 710.597656 224.191406 713.65625 224.191406 C 718.609375 224.191406 718.96875 229.320312 719.328125 232.921875 C 719.507812 235.710938 719.597656 248.488281 719.597656 251.820312 C 719.597656 254.789062 719.507812 257.671875 719.507812 260.640625 L 719.957031 261.269531 C 726.4375 260.910156 727.878906 260.910156 734.808594 260.910156 Z M 740.210938 261 "/>
</svg>
