<?xml version="1.0" encoding="UTF-8"?>
<svg xmlns="http://www.w3.org/2000/svg" xmlns:xlink="http://www.w3.org/1999/xlink" width="975" height="1300" viewBox="0 0 975 1300">
<path fill-rule="nonzero" fill="rgb(98.823529%, 78.823529%, 9.019608%)" fill-opacity="1" d="M 50 50 L 925 50 L 925 290 L 50 290 Z M 50 50 "/>
<path fill-rule="nonzero" fill="rgb(34.901961%, 14.901961%, 14.901961%)" fill-opacity="1" d="M 183.335938 123.179688 C 183.335938 118.679688 183.425781 114.179688 183.515625 109.589844 L 183.066406 109.050781 L 167.765625 109.320312 L 167.316406 109.859375 C 168.125 118.679688 168.214844 120.839844 168.035156 129.03125 C 165.605469 129.570312 163.808594 130.019531 161.285156 130.019531 C 147.335938 130.019531 144.816406 116.699219 144.816406 109.949219 C 144.816406 95.730469 152.464844 87.988281 163.808594 87.988281 C 170.648438 87.988281 174.695312 90.691406 178.925781 93.480469 L 179.648438 93.210938 C 180.097656 87.628906 180.277344 86.191406 180.996094 80.789062 L 180.546875 80.25 C 176.765625 78.628906 170.738281 76.109375 161.375 76.109375 C 151.117188 76.109375 139.867188 78.988281 132.757812 91.050781 C 129.515625 96.71875 128.167969 104.011719 128.167969 110.039062 C 128.167969 118.5 130.417969 125.609375 134.464844 130.828125 C 139.777344 137.671875 146.347656 139.828125 149.855469 140.820312 C 152.464844 141.539062 156.335938 142.351562 161.917969 142.351562 C 171.1875 142.351562 176.855469 140.460938 183.15625 138.390625 L 183.605469 137.671875 C 183.515625 133.53125 183.335938 129.390625 183.335938 125.25 Z M 219.515625 107.609375 L 222.035156 92.941406 L 221.496094 92.308594 C 220.867188 92.308594 220.234375 92.21875 219.605469 92.21875 C 215.914062 92.21875 211.777344 94.289062 208.894531 100.949219 L 209.164062 92.671875 L 208.445312 91.949219 C 201.785156 93.390625 200.074219 93.660156 193.503906 94.648438 L 192.964844 95.191406 C 193.503906 101.941406 193.777344 105.988281 193.777344 118.5 C 193.777344 125.878906 193.683594 133.261719 193.503906 140.730469 L 194.046875 141.269531 C 200.707031 141 202.144531 140.910156 209.34375 141 L 209.796875 140.371094 C 209.433594 133.078125 208.894531 122.910156 208.894531 116.699219 C 208.894531 112.648438 208.894531 106.710938 215.015625 106.710938 C 216.546875 106.710938 217.445312 107.25 218.707031 107.96875 Z M 267.214844 127.679688 C 263.796875 129.480469 259.746094 131.550781 253.175781 131.550781 C 247.777344 131.550781 244.085938 129.839844 241.925781 126.601562 C 240.574219 124.710938 240.304688 122.910156 239.945312 121.109375 L 269.015625 120.570312 L 269.554688 119.941406 C 269.464844 115.53125 269.375 111.03125 268.117188 106.53125 C 264.964844 95.910156 258.035156 93.75 254.976562 93.03125 C 252.726562 92.398438 250.65625 92.21875 248.585938 92.21875 C 234.457031 92.21875 225.09375 101.488281 225.09375 117.058594 C 225.09375 121.289062 225.816406 125.699219 227.253906 128.851562 C 232.476562 141 244.714844 142.078125 251.195312 142.078125 C 258.664062 142.078125 261.90625 140.730469 266.675781 138.839844 L 267.214844 138.121094 L 267.84375 127.949219 L 267.214844 127.679688 M 239.945312 111.570312 C 240.214844 108.78125 240.84375 105 244.265625 102.839844 C 245.34375 102.121094 246.605469 101.851562 247.867188 101.851562 C 250.835938 101.851562 252.636719 103.378906 253.625 105 C 254.886719 106.980469 254.976562 109.140625 254.976562 111.210938 Z M 317.796875 127.679688 C 314.378906 129.480469 310.328125 131.550781 303.757812 131.550781 C 298.359375 131.550781 294.667969 129.839844 292.507812 126.601562 C 291.15625 124.710938 290.886719 122.910156 290.527344 121.109375 L 319.597656 120.570312 L 320.136719 119.941406 C 320.046875 115.53125 319.957031 111.03125 318.699219 106.53125 C 315.546875 95.910156 308.617188 93.75 305.558594 93.03125 C 303.308594 92.398438 301.238281 92.21875 299.167969 92.21875 C 285.039062 92.21875 275.675781 101.488281 275.675781 117.058594 C 275.675781 121.289062 276.398438 125.699219 277.835938 128.851562 C 283.058594 141 295.296875 142.078125 301.777344 142.078125 C 309.246094 142.078125 312.488281 140.730469 317.257812 138.839844 L 317.796875 138.121094 L 318.425781 127.949219 L 317.796875 127.679688 M 290.527344 111.570312 C 290.796875 108.78125 291.425781 105 294.847656 102.839844 C 295.925781 102.121094 297.1875 101.851562 298.449219 101.851562 C 301.417969 101.851562 303.21875 103.378906 304.207031 105 C 305.46875 106.980469 305.558594 109.140625 305.558594 111.210938 Z M 372.515625 140.371094 C 372.066406 132.449219 372.066406 129.929688 371.886719 121.109375 L 371.886719 114.089844 C 371.796875 105.449219 371.707031 101.308594 369.457031 97.621094 C 366.664062 92.941406 361.535156 92.21875 358.296875 92.21875 C 352.804688 92.21875 348.035156 95.101562 343.894531 97.53125 L 344.074219 92.578125 L 343.175781 91.949219 C 336.246094 93.390625 334.714844 93.660156 327.964844 94.558594 L 327.425781 95.191406 C 328.144531 103.019531 328.6875 108.691406 328.6875 123.359375 C 328.6875 129.121094 328.59375 134.878906 328.503906 140.640625 L 329.046875 141.179688 C 335.527344 140.910156 336.875 140.910156 344.074219 140.910156 L 344.617188 140.371094 C 344.074219 126.511719 343.984375 123 343.894531 106.890625 C 345.785156 105.628906 347.945312 104.101562 350.824219 104.101562 C 355.777344 104.101562 356.226562 109.410156 356.496094 112.648438 C 356.675781 115.621094 356.765625 127.949219 356.765625 131.371094 C 356.765625 134.429688 356.675781 137.578125 356.675781 140.640625 L 357.214844 141.179688 C 363.15625 141 364.6875 140.910156 371.886719 140.910156 Z M 438.394531 140.371094 C 441.996094 126.421875 442.625 124.261719 448.023438 104.910156 C 449.105469 101.21875 450.09375 97.441406 451.085938 93.75 L 450.546875 93.03125 L 438.84375 93.300781 L 438.214844 93.929688 L 435.605469 107.429688 L 433.085938 118.320312 L 431.375 126.601562 L 429.84375 118.589844 L 427.863281 109.230469 L 424.714844 93.660156 L 424.175781 93.03125 L 406.894531 93.300781 L 406.265625 93.929688 L 403.296875 108.691406 L 401.136719 118.589844 L 399.425781 126.871094 L 397.714844 117.960938 L 395.554688 108.238281 L 392.496094 93.300781 L 391.953125 92.851562 L 377.375 93.929688 L 376.835938 94.648438 C 385.296875 124.351562 386.644531 129.660156 389.164062 140.730469 L 389.796875 141.269531 C 396.003906 141 398.253906 140.910156 406.535156 141 L 407.074219 140.371094 L 409.414062 129.390625 L 411.933594 118.5 L 414.183594 107.609375 L 415.535156 114.449219 L 416.886719 121.109375 L 420.664062 140.640625 L 421.296875 141.269531 C 427.953125 141 430.65625 140.910156 437.855469 141 Z M 501.667969 117.058594 C 501.667969 113.550781 501.667969 98.96875 489.066406 94.019531 C 485.105469 92.488281 480.425781 92.308594 478.085938 92.308594 C 462.425781 92.308594 453.605469 100.679688 453.605469 117.238281 C 453.605469 123 454.507812 128.851562 457.835938 133.710938 C 460.175781 137.21875 464.585938 142.078125 477.457031 142.078125 C 496.535156 142.078125 501.667969 130.558594 501.667969 117.058594 M 486.097656 116.96875 C 486.097656 124.351562 485.105469 132.539062 477.636719 132.539062 C 475.296875 132.539062 473.675781 131.460938 472.597656 130.46875 C 471.066406 128.941406 469.355469 125.878906 469.355469 117.148438 C 469.355469 114.539062 469.355469 108.78125 471.15625 105.628906 C 472.507812 103.199219 474.847656 101.578125 477.726562 101.578125 C 480.246094 101.578125 482.316406 102.929688 483.488281 104.371094 C 485.648438 106.980469 486.097656 112.109375 486.097656 116.96875 Z M 556.027344 117.058594 C 556.027344 113.550781 556.027344 98.96875 543.425781 94.019531 C 539.464844 92.488281 534.785156 92.308594 532.445312 92.308594 C 516.785156 92.308594 507.964844 100.679688 507.964844 117.238281 C 507.964844 123 508.867188 128.851562 512.195312 133.710938 C 514.535156 137.21875 518.945312 142.078125 531.816406 142.078125 C 550.894531 142.078125 556.027344 130.558594 556.027344 117.058594 M 540.457031 116.96875 C 540.457031 124.351562 539.464844 132.539062 531.996094 132.539062 C 529.65625 132.539062 528.035156 131.460938 526.957031 130.46875 C 525.425781 128.941406 523.714844 125.878906 523.714844 117.148438 C 523.714844 114.539062 523.714844 108.78125 525.515625 105.628906 C 526.867188 103.199219 529.207031 101.578125 532.085938 101.578125 C 534.605469 101.578125 536.675781 102.929688 537.847656 104.371094 C 540.007812 106.980469 540.457031 112.109375 540.457031 116.96875 Z M 608.675781 140.460938 C 608.316406 132.359375 608.046875 126.960938 608.046875 115.171875 C 608.046875 91.410156 608.40625 81.601562 608.765625 69.71875 L 608.136719 69.179688 L 593.285156 71.519531 L 592.835938 72.058594 C 593.375 80.519531 593.464844 82.769531 593.375 93.03125 C 586.625 92.851562 578.164062 92.671875 571.324219 98.070312 C 565.027344 102.929688 562.414062 110.398438 562.414062 119.671875 C 562.414062 126.691406 564.304688 133.710938 569.617188 138.121094 C 573.574219 141.359375 578.4375 142.078125 581.40625 142.078125 C 587.796875 142.078125 591.125 139.109375 593.285156 137.21875 L 593.105469 140.730469 L 593.554688 141.269531 C 599.765625 141 601.476562 141 608.226562 141 L 608.675781 140.460938 M 593.375 103.828125 C 593.464844 115.800781 593.375 118.140625 593.105469 129.03125 C 591.304688 130.109375 589.503906 131.191406 586.984375 131.191406 C 578.253906 131.191406 578.253906 120.03125 578.253906 118.230469 C 578.253906 111.300781 580.234375 103.558594 590.316406 103.558594 C 591.304688 103.558594 592.117188 103.648438 593.375 103.828125 Z M 671.226562 102.300781 C 663.667969 99.148438 659.707031 97.53125 659.707031 93.480469 C 659.707031 90.691406 662.316406 87.179688 668.257812 87.179688 C 675.097656 87.179688 679.144531 89.96875 682.476562 92.21875 L 683.285156 91.859375 L 684.007812 80.070312 L 683.554688 79.441406 C 679.6875 77.820312 675.636719 76.109375 666.90625 76.109375 C 649.988281 76.109375 644.136719 85.648438 644.136719 95.28125 C 644.136719 106.171875 652.597656 110.128906 657.636719 112.558594 L 660.605469 113.910156 C 666.816406 116.519531 671.585938 118.769531 671.585938 123.539062 C 671.585938 126.960938 668.617188 131.011719 660.785156 131.011719 C 652.597656 131.011719 648.007812 127.410156 645.394531 125.339844 L 644.496094 125.609375 L 643.867188 138.300781 L 644.40625 139.019531 C 645.394531 139.378906 646.386719 139.828125 647.375 140.101562 C 649.445312 140.820312 654.757812 142.351562 661.507812 142.351562 C 664.207031 142.351562 671.046875 142.078125 676.445312 139.558594 C 684.007812 135.871094 687.246094 129.03125 687.246094 121.378906 C 687.246094 116.25 685.265625 110.761719 680.496094 107.070312 C 678.066406 105.269531 675.726562 104.191406 673.566406 103.199219 Z M 721 130.648438 C 719.46875 131.101562 718.386719 131.460938 716.859375 131.460938 C 712.269531 131.460938 711.910156 128.578125 711.726562 127.230469 C 711.457031 124.890625 711.457031 119.941406 711.546875 116.339844 L 711.726562 103.648438 L 719.828125 104.011719 L 720.367188 103.46875 L 721.269531 93.839844 L 720.726562 93.300781 L 711.726562 93.300781 L 712 78.179688 L 711.367188 77.640625 C 705.25 79.441406 703.628906 79.890625 697.238281 81.511719 L 696.878906 82.140625 L 696.96875 93.390625 L 692.109375 93.210938 L 691.570312 93.660156 L 690.757812 103.289062 L 691.296875 103.828125 L 696.96875 103.648438 L 696.699219 117.960938 C 696.609375 120.210938 696.519531 122.460938 696.519531 124.800781 C 696.519531 133.078125 696.699219 141.988281 710.738281 141.988281 C 714.25 141.988281 717.039062 141.449219 720.1875 140.910156 L 720.820312 140.28125 L 721.71875 131.011719 Z M 767.707031 114.179688 C 767.796875 106.078125 767.796875 102.570312 765.457031 98.789062 C 763.65625 95.910156 760.058594 92.308594 748.539062 92.308594 C 740.796875 92.308594 736.027344 93.75 730.898438 95.28125 L 730.359375 96 L 729.90625 105.808594 L 730.628906 106.171875 C 733.777344 104.910156 739.628906 102.570312 745.65625 102.570312 C 748.988281 102.570312 750.335938 103.109375 751.507812 104.28125 C 752.40625 105.179688 752.679688 106.800781 752.679688 108.148438 C 741.878906 109.589844 736.835938 110.578125 731.4375 113.910156 C 726.398438 117.058594 724.6875 122.191406 724.6875 126.238281 C 724.6875 135.871094 731.617188 142.078125 740.4375 142.078125 C 747.1875 142.078125 751.058594 138.839844 752.949219 137.308594 L 752.949219 140.640625 L 753.488281 141.269531 C 759.96875 141 761.949219 140.910156 767.796875 141 L 768.246094 140.371094 C 767.617188 131.550781 767.617188 129.300781 767.617188 120.839844 L 767.707031 114.179688 M 752.859375 128.488281 C 750.96875 129.570312 748.539062 130.828125 745.566406 130.828125 C 742.328125 130.828125 739.628906 129.121094 739.628906 125.339844 C 739.628906 119.398438 746.738281 118.410156 752.859375 117.601562 Z M 803.4375 130.648438 C 801.90625 131.101562 800.824219 131.460938 799.296875 131.460938 C 794.707031 131.460938 794.347656 128.578125 794.164062 127.230469 C 793.894531 124.890625 793.894531 119.941406 793.984375 116.339844 L 794.164062 103.648438 L 802.265625 104.011719 L 802.804688 103.46875 L 803.707031 93.839844 L 803.164062 93.300781 L 794.164062 93.300781 L 794.4375 78.179688 L 793.804688 77.640625 C 787.6875 79.441406 786.066406 79.890625 779.675781 81.511719 L 779.316406 82.140625 L 779.40625 93.390625 L 774.546875 93.210938 L 774.007812 93.660156 L 773.195312 103.289062 L 773.734375 103.828125 L 779.40625 103.648438 L 779.136719 117.960938 C 779.046875 120.210938 778.957031 122.460938 778.957031 124.800781 C 778.957031 133.078125 779.136719 141.988281 793.175781 141.988281 C 796.6875 141.988281 799.476562 141.449219 802.625 140.910156 L 803.257812 140.28125 L 804.15625 131.011719 Z M 850.054688 127.679688 C 846.636719 129.480469 842.585938 131.550781 836.015625 131.550781 C 830.617188 131.550781 826.925781 129.839844 824.765625 126.601562 C 823.414062 124.710938 823.144531 122.910156 822.785156 121.109375 L 851.855469 120.570312 L 852.394531 119.941406 C 852.304688 115.53125 852.214844 111.03125 850.957031 106.53125 C 847.804688 95.910156 840.875 93.75 837.816406 93.03125 C 835.566406 92.398438 833.496094 92.21875 831.425781 92.21875 C 817.296875 92.21875 807.933594 101.488281 807.933594 117.058594 C 807.933594 121.289062 808.65625 125.699219 810.09375 128.851562 C 815.316406 141 827.554688 142.078125 834.035156 142.078125 C 841.503906 142.078125 844.746094 140.730469 849.515625 138.839844 L 850.054688 138.121094 L 850.683594 127.949219 L 850.054688 127.679688 M 822.785156 111.570312 C 823.054688 108.78125 823.683594 105 827.105469 102.839844 C 828.183594 102.121094 829.445312 101.851562 830.707031 101.851562 C 833.675781 101.851562 835.476562 103.378906 836.464844 105 C 837.726562 106.980469 837.816406 109.140625 837.816406 111.210938 Z M 855.277344 141 "/>
<path fill-rule="nonzero" fill="rgb(34.901961%, 14.901961%, 14.901961%)" fill-opacity="1" d="M 385.519531 261 C 393.890625 261.179688 404.238281 261.359375 410.988281 256.679688 C 416.929688 252.449219 418.550781 246.511719 418.550781 241.46875 C 418.550781 235.710938 416.117188 230.398438 410.988281 227.878906 C 409.277344 226.980469 407.300781 226.621094 405.410156 226.261719 C 408.46875 225 412.070312 223.378906 414.410156 218.609375 C 415.398438 216.539062 415.847656 214.378906 415.847656 212.308594 C 415.847656 209.429688 415.128906 205.46875 412.25 202.230469 C 408.46875 198.179688 402.617188 197.101562 393.800781 197.101562 C 390.738281 197.101562 385.25 197.191406 382.1875 197.28125 L 369.589844 197.460938 L 369.050781 198 C 369.410156 206.640625 369.5 209.96875 369.5 222.390625 C 369.5 235.171875 369.410156 247.859375 369.230469 260.640625 L 369.859375 261 L 385.519531 261 M 384.890625 233.640625 C 391.730469 233.460938 395.6875 233.460938 398.300781 234.988281 C 400.910156 236.609375 401.898438 239.488281 401.898438 242.371094 C 401.898438 246.421875 399.648438 248.941406 396.320312 250.109375 C 393.617188 251.011719 388.757812 251.011719 384.890625 250.921875 L 384.890625 233.640625 M 384.890625 207.179688 C 386.777344 207.179688 389.300781 207.089844 390.828125 207.089844 C 395.6875 207.089844 400.097656 208.800781 400.097656 214.648438 C 400.097656 219.421875 396.589844 221.398438 395.507812 221.941406 C 393.257812 222.929688 388.488281 222.929688 384.890625 222.929688 Z M 466.878906 247.679688 C 463.460938 249.480469 459.410156 251.550781 452.839844 251.550781 C 447.441406 251.550781 443.75 249.839844 441.589844 246.601562 C 440.238281 244.710938 439.96875 242.910156 439.609375 241.109375 L 468.679688 240.570312 L 469.21875 239.941406 C 469.128906 235.53125 469.039062 231.03125 467.78125 226.53125 C 464.628906 215.910156 457.699219 213.75 454.640625 213.03125 C 452.390625 212.398438 450.320312 212.21875 448.25 212.21875 C 434.121094 212.21875 424.757812 221.488281 424.757812 237.058594 C 424.757812 241.289062 425.480469 245.699219 426.917969 248.851562 C 432.140625 261 444.378906 262.078125 450.859375 262.078125 C 458.328125 262.078125 461.570312 260.730469 466.339844 258.839844 L 466.878906 258.121094 L 467.507812 247.949219 L 466.878906 247.679688 M 439.609375 231.570312 C 439.878906 228.78125 440.507812 225 443.929688 222.839844 C 445.007812 222.121094 446.269531 221.851562 447.53125 221.851562 C 450.5 221.851562 452.300781 223.378906 453.289062 225 C 454.550781 226.980469 454.640625 229.140625 454.640625 231.210938 Z M 517.546875 234.179688 C 517.636719 226.078125 517.636719 222.570312 515.296875 218.789062 C 513.496094 215.910156 509.898438 212.308594 498.378906 212.308594 C 490.636719 212.308594 485.867188 213.75 480.738281 215.28125 L 480.199219 216 L 479.746094 225.808594 L 480.46875 226.171875 C 483.617188 224.910156 489.46875 222.570312 495.496094 222.570312 C 498.828125 222.570312 500.175781 223.109375 501.347656 224.28125 C 502.246094 225.179688 502.519531 226.800781 502.519531 228.148438 C 491.71875 229.589844 486.675781 230.578125 481.277344 233.910156 C 476.238281 237.058594 474.527344 242.191406 474.527344 246.238281 C 474.527344 255.871094 481.457031 262.078125 490.277344 262.078125 C 497.027344 262.078125 500.898438 258.839844 502.789062 257.308594 L 502.789062 260.640625 L 503.328125 261.269531 C 509.808594 261 511.789062 260.910156 517.636719 261 L 518.085938 260.371094 C 517.457031 251.550781 517.457031 249.300781 517.457031 240.839844 L 517.546875 234.179688 M 502.699219 248.488281 C 500.808594 249.570312 498.378906 250.828125 495.40625 250.828125 C 492.167969 250.828125 489.46875 249.121094 489.46875 245.339844 C 489.46875 239.398438 496.578125 238.410156 502.699219 237.601562 Z M 563.269531 248.039062 C 560.839844 249.480469 558.5 250.921875 553.910156 250.921875 C 543.738281 250.921875 541.667969 242.460938 541.667969 237.058594 C 541.667969 230.488281 544.550781 222.929688 553.28125 222.929688 C 557.238281 222.929688 559.398438 224.371094 562.101562 226.171875 L 563 225.898438 C 563.359375 221.128906 563.449219 219.871094 564.167969 215.101562 L 563.71875 214.558594 C 559.757812 213.300781 556.339844 212.21875 551.121094 212.21875 C 529.96875 212.21875 525.828125 228.238281 525.828125 237.421875 C 525.828125 247.769531 531.230469 261.808594 551.480469 261.808594 C 556.25 261.808594 559.308594 260.910156 563.089844 259.828125 L 563.628906 259.289062 L 563.988281 248.488281 Z M 615.289062 260.371094 C 614.929688 252.988281 614.839844 250.46875 614.660156 241.109375 L 614.660156 234.359375 C 614.570312 225.808594 614.480469 220.859375 611.867188 217.078125 C 609.257812 213.390625 605.480469 212.21875 601.519531 212.21875 C 594.949219 212.21875 589.820312 215.371094 586.21875 217.53125 L 586.488281 189.808594 L 585.949219 189.179688 L 570.558594 191.609375 L 570.109375 192.148438 C 570.917969 200.878906 571.097656 204.121094 571.277344 215.730469 C 571.460938 223.019531 571.550781 230.308594 571.550781 237.601562 C 571.550781 246.511719 571.367188 251.820312 571.1875 260.640625 L 571.640625 261.269531 C 578.300781 260.910156 579.648438 260.910156 586.9375 260.910156 L 587.480469 260.371094 C 586.847656 246.871094 586.757812 242.820312 586.667969 226.890625 C 588.378906 225.71875 590.539062 224.191406 593.597656 224.191406 C 598.550781 224.191406 598.910156 229.320312 599.269531 232.921875 C 599.449219 235.710938 599.539062 248.488281 599.539062 251.820312 C 599.539062 254.789062 599.449219 257.671875 599.449219 260.640625 L 599.898438 261.269531 C 606.378906 260.910156 607.820312 260.910156 614.75 260.910156 Z M 620.148438 261 "/>
</svg>
