<?xml version="1.0" encoding="UTF-8"?>
<svg xmlns="http://www.w3.org/2000/svg" xmlns:xlink="http://www.w3.org/1999/xlink" width="975" height="1300" viewBox="0 0 975 1300">
<path fill-rule="nonzero" fill="rgb(98.823529%, 78.823529%, 9.019608%)" fill-opacity="1" d="M 50 50 L 925 50 L 925 410 L 50 410 Z M 50 50 "/>
<path fill-rule="nonzero" fill="rgb(34.901961%, 14.901961%, 14.901961%)" fill-opacity="1" d="M 427.683594 77.191406 C 420.214844 77.460938 418.683594 77.550781 410.765625 77.460938 L 410.046875 78 C 400.324219 93.75 398.34375 96.898438 392.136719 105.359375 L 392.585938 77.730469 L 392.136719 77.191406 C 385.023438 77.460938 383.765625 77.550781 376.386719 77.460938 L 375.933594 78 C 376.476562 87.808594 376.835938 94.46875 376.835938 117.601562 C 376.835938 127.050781 376.65625 131.910156 376.476562 140.730469 L 376.925781 141.269531 C 383.945312 141 386.105469 141 392.496094 141 L 392.945312 140.460938 C 392.40625 127.859375 392.316406 124.621094 392.226562 108.960938 C 394.386719 112.199219 394.925781 112.921875 398.34375 118.410156 C 406.175781 131.011719 408.066406 134.609375 411.484375 140.910156 L 412.113281 141.359375 L 430.386719 140.730469 L 430.746094 139.738281 C 422.464844 129.390625 412.835938 114.179688 407.433594 104.820312 C 418.503906 89.070312 421.023438 85.828125 427.953125 78.089844 Z M 460.175781 107.609375 L 462.695312 92.941406 L 462.15625 92.308594 C 461.527344 92.308594 460.894531 92.21875 460.265625 92.21875 C 456.574219 92.21875 452.4375 94.289062 449.554688 100.949219 L 449.824219 92.671875 L 449.105469 91.949219 C 442.445312 93.390625 440.734375 93.660156 434.164062 94.648438 L 433.625 95.191406 C 434.164062 101.941406 434.4375 105.988281 434.4375 118.5 C 434.4375 125.878906 434.34375 133.261719 434.164062 140.730469 L 434.707031 141.269531 C 441.367188 141 442.804688 140.910156 450.003906 141 L 450.457031 140.371094 C 450.09375 133.078125 449.554688 122.910156 449.554688 116.699219 C 449.554688 112.648438 449.554688 106.710938 455.675781 106.710938 C 457.207031 106.710938 458.105469 107.25 459.367188 107.96875 Z M 511.117188 92.851562 L 496.445312 93.570312 L 495.816406 94.109375 C 496.445312 104.28125 496.445312 118.679688 496.445312 120.121094 C 496.445312 122.730469 496.445312 124.171875 496.355469 127.769531 C 493.925781 129.390625 492.035156 130.738281 489.605469 130.738281 C 483.125 130.738281 483.125 123.898438 483.125 118.589844 C 483.125 116.339844 483.125 114 483.214844 111.75 L 483.394531 93.570312 L 482.765625 92.851562 L 467.914062 93.570312 L 467.285156 94.109375 C 467.824219 101.671875 467.914062 104.191406 467.914062 113.28125 L 467.914062 119.578125 C 467.824219 129.390625 468.277344 133.53125 471.515625 137.308594 C 474.484375 140.640625 478.804688 142.078125 483.304688 142.078125 C 489.695312 142.078125 493.386719 139.199219 496.625 136.679688 L 496.535156 140.730469 L 497.164062 141.269531 C 503.734375 141 505.714844 141 511.566406 141 L 512.105469 140.460938 C 511.65625 134.070312 511.476562 130.648438 511.476562 118.949219 C 511.476562 110.488281 511.566406 102.03125 511.746094 93.570312 Z M 541.175781 109.949219 C 538.113281 108.871094 535.683594 107.878906 535.683594 105.359375 C 535.683594 104.28125 536.40625 101.308594 541.984375 101.308594 C 547.476562 101.308594 550.984375 103.648438 553.234375 105.089844 L 554.046875 104.820312 L 554.945312 95.011719 L 554.496094 94.46875 C 550.265625 93.300781 546.574219 92.21875 540.726562 92.21875 C 536.316406 92.21875 527.496094 92.578125 522.816406 99.328125 C 521.644531 100.949219 520.386719 103.648438 520.386719 107.25 C 520.386719 116.878906 527.855469 119.761719 532.085938 121.378906 L 535.503906 122.640625 C 537.933594 123.449219 541.894531 124.800781 541.894531 128.039062 C 541.894531 130.289062 539.824219 132.71875 534.785156 132.71875 C 532.265625 132.71875 528.574219 131.910156 525.246094 130.199219 C 523.714844 129.390625 522.996094 128.761719 521.644531 127.679688 L 520.835938 128.039062 C 520.65625 132.71875 520.566406 133.710938 520.203125 138.210938 L 520.65625 139.019531 C 525.066406 140.640625 528.84375 142.078125 535.414062 142.078125 C 542.253906 142.078125 555.753906 140.820312 557.375 127.949219 C 557.464844 127.230469 557.464844 126.601562 557.464844 125.96875 C 557.464844 116.070312 550.535156 113.460938 545.585938 111.570312 Z M 605.34375 127.679688 C 601.925781 129.480469 597.875 131.550781 591.304688 131.550781 C 585.90625 131.550781 582.214844 129.839844 580.054688 126.601562 C 578.703125 124.710938 578.433594 122.910156 578.074219 121.109375 L 607.144531 120.570312 L 607.683594 119.941406 C 607.59375 115.53125 607.503906 111.03125 606.246094 106.53125 C 603.09375 95.910156 596.164062 93.75 593.105469 93.03125 C 590.855469 92.398438 588.785156 92.21875 586.714844 92.21875 C 572.585938 92.21875 563.222656 101.488281 563.222656 117.058594 C 563.222656 121.289062 563.945312 125.699219 565.382812 128.851562 C 570.605469 141 582.84375 142.078125 589.324219 142.078125 C 596.792969 142.078125 600.035156 140.730469 604.804688 138.839844 L 605.34375 138.121094 L 605.972656 127.949219 L 605.34375 127.679688 M 578.074219 111.570312 C 578.34375 108.78125 578.972656 105 582.394531 102.839844 C 583.472656 102.121094 584.734375 101.851562 585.996094 101.851562 C 588.964844 101.851562 590.765625 103.378906 591.753906 105 C 593.015625 106.980469 593.105469 109.140625 593.105469 111.210938 Z M 610.566406 141 "/>
<path fill-rule="nonzero" fill="rgb(34.901961%, 14.901961%, 14.901961%)" fill-opacity="1" d="M 80.597656 236.25 C 86.628906 246.511719 87.980469 249.210938 93.738281 261 L 94.460938 261.449219 C 97.25 261.269531 99.949219 261.089844 102.738281 261 C 105.53125 260.910156 108.410156 260.820312 111.199219 260.820312 L 111.738281 259.738281 C 108.320312 255.328125 107.328125 253.980469 100.847656 243.628906 C 97.96875 239.039062 96.53125 236.609375 94.28125 232.648438 C 98.328125 230.851562 106.519531 227.070312 106.519531 215.640625 C 106.519531 211.679688 105.4375 203.488281 98.058594 199.621094 C 93.378906 197.191406 88.519531 197.101562 77.988281 197.28125 L 71.6875 197.371094 L 60.710938 197.371094 L 60.257812 197.910156 C 60.621094 207 60.980469 216.359375 60.980469 240.839844 C 60.980469 249.210938 60.890625 253.261719 60.621094 260.730469 L 61.160156 261.269531 C 67.730469 261 69.167969 260.910156 76.550781 261 L 77.089844 260.460938 C 76.371094 250.019531 76.28125 247.140625 76.1875 236.429688 L 80.597656 236.25 M 76.371094 208.261719 C 77.628906 208.171875 78.890625 208.171875 80.148438 208.171875 C 83.660156 208.171875 90.589844 208.171875 90.589844 216.089844 C 90.589844 218.609375 89.960938 221.941406 86.628906 224.011719 C 84.109375 225.539062 80.871094 225.71875 76.371094 225.808594 Z M 160.609375 260.371094 C 160.25 252.988281 160.160156 250.46875 159.980469 241.109375 L 159.980469 234.359375 C 159.890625 225.808594 159.800781 220.859375 157.1875 217.078125 C 154.578125 213.390625 150.800781 212.21875 146.839844 212.21875 C 140.269531 212.21875 135.140625 215.371094 131.539062 217.53125 L 131.808594 189.808594 L 131.269531 189.179688 L 115.878906 191.609375 L 115.429688 192.148438 C 116.238281 200.878906 116.417969 204.121094 116.597656 215.730469 C 116.78125 223.019531 116.871094 230.308594 116.871094 237.601562 C 116.871094 246.511719 116.6875 251.820312 116.507812 260.640625 L 116.960938 261.269531 C 123.621094 260.910156 124.96875 260.910156 132.257812 260.910156 L 132.800781 260.371094 C 132.167969 246.871094 132.078125 242.820312 131.988281 226.890625 C 133.699219 225.71875 135.859375 224.191406 138.917969 224.191406 C 143.871094 224.191406 144.230469 229.320312 144.589844 232.921875 C 144.769531 235.710938 144.859375 248.488281 144.859375 251.820312 C 144.859375 254.789062 144.769531 257.671875 144.769531 260.640625 L 145.21875 261.269531 C 151.699219 260.910156 153.140625 260.910156 160.070312 260.910156 Z M 216.679688 237.058594 C 216.679688 233.550781 216.679688 218.96875 204.078125 214.019531 C 200.117188 212.488281 195.4375 212.308594 193.097656 212.308594 C 177.4375 212.308594 168.617188 220.679688 168.617188 237.238281 C 168.617188 243 169.519531 248.851562 172.847656 253.710938 C 175.1875 257.21875 179.597656 262.078125 192.46875 262.078125 C 211.546875 262.078125 216.679688 250.558594 216.679688 237.058594 M 201.109375 236.96875 C 201.109375 244.351562 200.117188 252.539062 192.648438 252.539062 C 190.308594 252.539062 188.6875 251.460938 187.609375 250.46875 C 186.078125 248.941406 184.367188 245.878906 184.367188 237.148438 C 184.367188 234.539062 184.367188 228.78125 186.167969 225.628906 C 187.519531 223.199219 189.859375 221.578125 192.738281 221.578125 C 195.257812 221.578125 197.328125 222.929688 198.5 224.371094 C 200.660156 226.980469 201.109375 232.109375 201.109375 236.96875 Z M 269.328125 260.460938 C 268.96875 252.359375 268.699219 246.960938 268.699219 235.171875 C 268.699219 211.410156 269.058594 201.601562 269.417969 189.71875 L 268.789062 189.179688 L 253.9375 191.519531 L 253.488281 192.058594 C 254.027344 200.519531 254.117188 202.769531 254.027344 213.03125 C 247.277344 212.851562 238.816406 212.671875 231.976562 218.070312 C 225.679688 222.929688 223.066406 230.398438 223.066406 239.671875 C 223.066406 246.691406 224.957031 253.710938 230.269531 258.121094 C 234.226562 261.359375 239.089844 262.078125 242.058594 262.078125 C 248.449219 262.078125 251.777344 259.109375 253.9375 257.21875 L 253.757812 260.730469 L 254.207031 261.269531 C 260.417969 261 262.128906 261 268.878906 261 L 269.328125 260.460938 M 254.027344 223.828125 C 254.117188 235.800781 254.027344 238.140625 253.757812 249.03125 C 251.957031 250.109375 250.15625 251.191406 247.636719 251.191406 C 238.90625 251.191406 238.90625 240.03125 238.90625 238.230469 C 238.90625 231.300781 240.886719 223.558594 250.96875 223.558594 C 251.957031 223.558594 252.769531 223.648438 254.027344 223.828125 Z M 325.398438 237.058594 C 325.398438 233.550781 325.398438 218.96875 312.796875 214.019531 C 308.835938 212.488281 304.15625 212.308594 301.816406 212.308594 C 286.15625 212.308594 277.335938 220.679688 277.335938 237.238281 C 277.335938 243 278.238281 248.851562 281.566406 253.710938 C 283.90625 257.21875 288.316406 262.078125 301.1875 262.078125 C 320.265625 262.078125 325.398438 250.558594 325.398438 237.058594 M 309.828125 236.96875 C 309.828125 244.351562 308.835938 252.539062 301.367188 252.539062 C 299.027344 252.539062 297.40625 251.460938 296.328125 250.46875 C 294.796875 248.941406 293.085938 245.878906 293.085938 237.148438 C 293.085938 234.539062 293.085938 228.78125 294.886719 225.628906 C 296.238281 223.199219 298.578125 221.578125 301.457031 221.578125 C 303.976562 221.578125 306.046875 222.929688 307.21875 224.371094 C 309.378906 226.980469 309.828125 232.109375 309.828125 236.96875 Z M 378.050781 260.460938 C 377.691406 252.359375 377.421875 246.960938 377.421875 235.171875 C 377.421875 211.410156 377.78125 201.601562 378.140625 189.71875 L 377.511719 189.179688 L 362.660156 191.519531 L 362.210938 192.058594 C 362.75 200.519531 362.839844 202.769531 362.75 213.03125 C 356 212.851562 347.539062 212.671875 340.699219 218.070312 C 334.402344 222.929688 331.789062 230.398438 331.789062 239.671875 C 331.789062 246.691406 333.679688 253.710938 338.992188 258.121094 C 342.949219 261.359375 347.8125 262.078125 350.78125 262.078125 C 357.171875 262.078125 360.5 259.109375 362.660156 257.21875 L 362.480469 260.730469 L 362.929688 261.269531 C 369.140625 261 370.851562 261 377.601562 261 L 378.050781 260.460938 M 362.75 223.828125 C 362.839844 235.800781 362.75 238.140625 362.480469 249.03125 C 360.679688 250.109375 358.878906 251.191406 356.359375 251.191406 C 347.628906 251.191406 347.628906 240.03125 347.628906 238.230469 C 347.628906 231.300781 349.609375 223.558594 359.691406 223.558594 C 360.679688 223.558594 361.492188 223.648438 362.75 223.828125 Z M 428.269531 247.679688 C 424.851562 249.480469 420.800781 251.550781 414.230469 251.550781 C 408.832031 251.550781 405.140625 249.839844 402.980469 246.601562 C 401.628906 244.710938 401.359375 242.910156 401 241.109375 L 430.070312 240.570312 L 430.609375 239.941406 C 430.519531 235.53125 430.429688 231.03125 429.171875 226.53125 C 426.019531 215.910156 419.089844 213.75 416.03125 213.03125 C 413.78125 212.398438 411.710938 212.21875 409.640625 212.21875 C 395.511719 212.21875 386.148438 221.488281 386.148438 237.058594 C 386.148438 241.289062 386.871094 245.699219 388.308594 248.851562 C 393.53125 261 405.769531 262.078125 412.25 262.078125 C 419.71875 262.078125 422.960938 260.730469 427.730469 258.839844 L 428.269531 258.121094 L 428.898438 247.949219 L 428.269531 247.679688 M 401 231.570312 C 401.269531 228.78125 401.898438 225 405.320312 222.839844 C 406.398438 222.121094 407.660156 221.851562 408.921875 221.851562 C 411.890625 221.851562 413.691406 223.378906 414.679688 225 C 415.941406 226.980469 416.03125 229.140625 416.03125 231.210938 Z M 482.988281 260.371094 C 482.539062 252.449219 482.539062 249.929688 482.359375 241.109375 L 482.359375 234.089844 C 482.269531 225.449219 482.179688 221.308594 479.929688 217.621094 C 477.136719 212.941406 472.007812 212.21875 468.769531 212.21875 C 463.277344 212.21875 458.507812 215.101562 454.367188 217.53125 L 454.546875 212.578125 L 453.648438 211.949219 C 446.71875 213.390625 445.1875 213.660156 438.4375 214.558594 L 437.898438 215.191406 C 438.617188 223.019531 439.160156 228.691406 439.160156 243.359375 C 439.160156 249.121094 439.066406 254.878906 438.976562 260.640625 L 439.519531 261.179688 C 446 260.910156 447.347656 260.910156 454.546875 260.910156 L 455.089844 260.371094 C 454.546875 246.511719 454.457031 243 454.367188 226.890625 C 456.257812 225.628906 458.417969 224.101562 461.296875 224.101562 C 466.25 224.101562 466.699219 229.410156 466.96875 232.648438 C 467.148438 235.621094 467.238281 247.949219 467.238281 251.371094 C 467.238281 254.429688 467.148438 257.578125 467.148438 260.640625 L 467.6875 261.179688 C 473.628906 261 475.160156 260.910156 482.359375 260.910156 Z M 537.347656 260.460938 C 536.988281 252.359375 536.71875 246.960938 536.71875 235.171875 C 536.71875 211.410156 537.078125 201.601562 537.4375 189.71875 L 536.808594 189.179688 L 521.957031 191.519531 L 521.507812 192.058594 C 522.046875 200.519531 522.136719 202.769531 522.046875 213.03125 C 515.296875 212.851562 506.835938 212.671875 499.996094 218.070312 C 493.699219 222.929688 491.085938 230.398438 491.085938 239.671875 C 491.085938 246.691406 492.976562 253.710938 498.289062 258.121094 C 502.246094 261.359375 507.109375 262.078125 510.078125 262.078125 C 516.46875 262.078125 519.796875 259.109375 521.957031 257.21875 L 521.777344 260.730469 L 522.226562 261.269531 C 528.4375 261 530.148438 261 536.898438 261 L 537.347656 260.460938 M 522.046875 223.828125 C 522.136719 235.800781 522.046875 238.140625 521.777344 249.03125 C 519.976562 250.109375 518.175781 251.191406 515.65625 251.191406 C 506.925781 251.191406 506.925781 240.03125 506.925781 238.230469 C 506.925781 231.300781 508.90625 223.558594 518.988281 223.558594 C 519.976562 223.558594 520.789062 223.648438 522.046875 223.828125 Z M 573.621094 227.609375 L 576.140625 212.941406 L 575.601562 212.308594 C 574.972656 212.308594 574.339844 212.21875 573.710938 212.21875 C 570.019531 212.21875 565.882812 214.289062 563 220.949219 L 563.269531 212.671875 L 562.550781 211.949219 C 555.890625 213.390625 554.179688 213.660156 547.609375 214.648438 L 547.070312 215.191406 C 547.609375 221.941406 547.882812 225.988281 547.882812 238.5 C 547.882812 245.878906 547.789062 253.261719 547.609375 260.730469 L 548.152344 261.269531 C 554.8125 261 556.25 260.910156 563.449219 261 L 563.902344 260.371094 C 563.539062 253.078125 563 242.910156 563 236.699219 C 563 232.648438 563 226.710938 569.121094 226.710938 C 570.652344 226.710938 571.550781 227.25 572.8125 227.96875 Z M 627.171875 237.058594 C 627.171875 233.550781 627.171875 218.96875 614.570312 214.019531 C 610.609375 212.488281 605.929688 212.308594 603.589844 212.308594 C 587.929688 212.308594 579.109375 220.679688 579.109375 237.238281 C 579.109375 243 580.011719 248.851562 583.339844 253.710938 C 585.679688 257.21875 590.089844 262.078125 602.960938 262.078125 C 622.039062 262.078125 627.171875 250.558594 627.171875 237.058594 M 611.601562 236.96875 C 611.601562 244.351562 610.609375 252.539062 603.140625 252.539062 C 600.800781 252.539062 599.179688 251.460938 598.101562 250.46875 C 596.570312 248.941406 594.859375 245.878906 594.859375 237.148438 C 594.859375 234.539062 594.859375 228.78125 596.660156 225.628906 C 598.011719 223.199219 600.351562 221.578125 603.230469 221.578125 C 605.75 221.578125 607.820312 222.929688 608.992188 224.371094 C 611.152344 226.980469 611.601562 232.109375 611.601562 236.96875 Z M 679.820312 260.371094 C 679.371094 252.449219 679.371094 249.929688 679.191406 241.109375 L 679.191406 234.089844 C 679.101562 225.449219 679.011719 221.308594 676.761719 217.621094 C 673.96875 212.941406 668.839844 212.21875 665.601562 212.21875 C 660.109375 212.21875 655.339844 215.101562 651.199219 217.53125 L 651.378906 212.578125 L 650.480469 211.949219 C 643.550781 213.390625 642.019531 213.660156 635.269531 214.558594 L 634.730469 215.191406 C 635.449219 223.019531 635.992188 228.691406 635.992188 243.359375 C 635.992188 249.121094 635.898438 254.878906 635.808594 260.640625 L 636.351562 261.179688 C 642.832031 260.910156 644.179688 260.910156 651.378906 260.910156 L 651.921875 260.371094 C 651.378906 246.511719 651.289062 243 651.199219 226.890625 C 653.089844 225.628906 655.25 224.101562 658.128906 224.101562 C 663.082031 224.101562 663.53125 229.410156 663.800781 232.648438 C 663.980469 235.621094 664.070312 247.949219 664.070312 251.371094 C 664.070312 254.429688 663.980469 257.578125 663.980469 260.640625 L 664.519531 261.179688 C 670.460938 261 671.992188 260.910156 679.191406 260.910156 Z M 742.371094 222.300781 C 734.8125 219.148438 730.851562 217.53125 730.851562 213.480469 C 730.851562 210.691406 733.460938 207.179688 739.402344 207.179688 C 746.242188 207.179688 750.289062 209.96875 753.621094 212.21875 L 754.429688 211.859375 L 755.152344 200.070312 L 754.699219 199.441406 C 750.832031 197.820312 746.78125 196.109375 738.050781 196.109375 C 721.132812 196.109375 715.28125 205.648438 715.28125 215.28125 C 715.28125 226.171875 723.742188 230.128906 728.78125 232.558594 L 731.75 233.910156 C 737.960938 236.519531 742.730469 238.769531 742.730469 243.539062 C 742.730469 246.960938 739.761719 251.011719 731.929688 251.011719 C 723.742188 251.011719 719.152344 247.410156 716.539062 245.339844 L 715.640625 245.609375 L 715.011719 258.300781 L 715.550781 259.019531 C 716.539062 259.378906 717.53125 259.828125 718.519531 260.101562 C 720.589844 260.820312 725.902344 262.351562 732.652344 262.351562 C 735.351562 262.351562 742.191406 262.078125 747.589844 259.558594 C 755.152344 255.871094 758.390625 249.03125 758.390625 241.378906 C 758.390625 236.25 756.410156 230.761719 751.640625 227.070312 C 749.210938 225.269531 746.871094 224.191406 744.710938 223.199219 Z M 792.140625 250.648438 C 790.609375 251.101562 789.527344 251.460938 788 251.460938 C 783.410156 251.460938 783.050781 248.578125 782.867188 247.230469 C 782.597656 244.890625 782.597656 239.941406 782.6875 236.339844 L 782.867188 223.648438 L 790.96875 224.011719 L 791.507812 223.46875 L 792.410156 213.839844 L 791.867188 213.300781 L 782.867188 213.300781 L 783.140625 198.179688 L 782.507812 197.640625 C 776.390625 199.441406 774.769531 199.890625 768.378906 201.511719 L 768.019531 202.140625 L 768.109375 213.390625 L 763.25 213.210938 L 762.710938 213.660156 L 761.898438 223.289062 L 762.4375 223.828125 L 768.109375 223.648438 L 767.839844 237.960938 C 767.75 240.210938 767.660156 242.460938 767.660156 244.800781 C 767.660156 253.078125 767.839844 261.988281 781.878906 261.988281 C 785.390625 261.988281 788.179688 261.449219 791.328125 260.910156 L 791.960938 260.28125 L 792.859375 251.011719 Z M 838.847656 234.179688 C 838.9375 226.078125 838.9375 222.570312 836.597656 218.789062 C 834.796875 215.910156 831.199219 212.308594 819.679688 212.308594 C 811.9375 212.308594 807.167969 213.75 802.039062 215.28125 L 801.5 216 L 801.046875 225.808594 L 801.769531 226.171875 C 804.917969 224.910156 810.769531 222.570312 816.796875 222.570312 C 820.128906 222.570312 821.476562 223.109375 822.648438 224.28125 C 823.546875 225.179688 823.820312 226.800781 823.820312 228.148438 C 813.019531 229.589844 807.976562 230.578125 802.578125 233.910156 C 797.539062 237.058594 795.828125 242.191406 795.828125 246.238281 C 795.828125 255.871094 802.757812 262.078125 811.578125 262.078125 C 818.328125 262.078125 822.199219 258.839844 824.089844 257.308594 L 824.089844 260.640625 L 824.628906 261.269531 C 831.109375 261 833.089844 260.910156 838.9375 261 L 839.386719 260.371094 C 838.757812 251.550781 838.757812 249.300781 838.757812 240.839844 L 838.847656 234.179688 M 824 248.488281 C 822.109375 249.570312 819.679688 250.828125 816.707031 250.828125 C 813.46875 250.828125 810.769531 249.121094 810.769531 245.339844 C 810.769531 239.398438 817.878906 238.410156 824 237.601562 Z M 874.582031 250.648438 C 873.050781 251.101562 871.96875 251.460938 870.441406 251.460938 C 865.851562 251.460938 865.492188 248.578125 865.308594 247.230469 C 865.039062 244.890625 865.039062 239.941406 865.128906 236.339844 L 865.308594 223.648438 L 873.410156 224.011719 L 873.949219 223.46875 L 874.851562 213.839844 L 874.308594 213.300781 L 865.308594 213.300781 L 865.582031 198.179688 L 864.949219 197.640625 C 858.832031 199.441406 857.210938 199.890625 850.820312 201.511719 L 850.460938 202.140625 L 850.550781 213.390625 L 845.691406 213.210938 L 845.152344 213.660156 L 844.339844 223.289062 L 844.878906 223.828125 L 850.550781 223.648438 L 850.28125 237.960938 C 850.191406 240.210938 850.101562 242.460938 850.101562 244.800781 C 850.101562 253.078125 850.28125 261.988281 864.320312 261.988281 C 867.832031 261.988281 870.621094 261.449219 873.769531 260.910156 L 874.402344 260.28125 L 875.300781 251.011719 Z M 921.199219 247.679688 C 917.78125 249.480469 913.730469 251.550781 907.160156 251.550781 C 901.761719 251.550781 898.070312 249.839844 895.910156 246.601562 C 894.558594 244.710938 894.289062 242.910156 893.929688 241.109375 L 923 240.570312 L 923.539062 239.941406 C 923.449219 235.53125 923.359375 231.03125 922.101562 226.53125 C 918.949219 215.910156 912.019531 213.75 908.960938 213.03125 C 906.710938 212.398438 904.640625 212.21875 902.570312 212.21875 C 888.441406 212.21875 879.078125 221.488281 879.078125 237.058594 C 879.078125 241.289062 879.800781 245.699219 881.238281 248.851562 C 886.460938 261 898.699219 262.078125 905.179688 262.078125 C 912.648438 262.078125 915.890625 260.730469 920.660156 258.839844 L 921.199219 258.121094 L 921.828125 247.949219 L 921.199219 247.679688 M 893.929688 231.570312 C 894.199219 228.78125 894.828125 225 898.25 222.839844 C 899.328125 222.121094 900.589844 221.851562 901.851562 221.851562 C 904.820312 221.851562 906.621094 223.378906 907.609375 225 C 908.871094 226.980469 908.960938 229.140625 908.960938 231.210938 Z M 926.417969 261 "/>
<path fill-rule="nonzero" fill="rgb(34.901961%, 14.901961%, 14.901961%)" fill-opacity="1" d="M 215.597656 317.191406 C 209.929688 317.460938 208.398438 317.550781 202.820312 317.460938 L 202.371094 318 L 203 330.148438 L 203.359375 342.570312 L 203.71875 357.421875 C 201.109375 353.011719 200.660156 352.289062 196.070312 345.449219 L 187.878906 333.480469 C 181.128906 323.21875 179.78125 321.238281 177.53125 317.640625 L 176.898438 317.191406 C 169.789062 317.550781 168.621094 317.550781 162.050781 317.460938 L 161.597656 318 C 162.050781 331.949219 162.320312 342.300781 162.320312 354.359375 C 162.320312 363.179688 162.140625 372 162.050781 380.730469 L 162.5 381.269531 C 168.53125 381 170.417969 381 175.640625 381 L 176.089844 380.460938 L 175.1875 360.75 L 174.917969 349.679688 L 174.378906 337.621094 C 178.609375 344.640625 180.050781 346.980469 186.167969 355.890625 L 195.167969 369.121094 L 203.179688 380.820312 L 203.808594 381.269531 C 209.300781 381 210.917969 381 215.6875 381 L 216.140625 380.550781 C 216.050781 367.5 215.960938 358.679688 215.960938 347.878906 C 215.960938 337.800781 216.050781 327.808594 216.140625 317.730469 Z M 267.167969 354.179688 C 267.257812 346.078125 267.257812 342.570312 264.917969 338.789062 C 263.117188 335.910156 259.519531 332.308594 248 332.308594 C 240.257812 332.308594 235.488281 333.75 230.359375 335.28125 L 229.820312 336 L 229.367188 345.808594 L 230.089844 346.171875 C 233.238281 344.910156 239.089844 342.570312 245.117188 342.570312 C 248.449219 342.570312 249.796875 343.109375 250.96875 344.28125 C 251.867188 345.179688 252.140625 346.800781 252.140625 348.148438 C 241.339844 349.589844 236.296875 350.578125 230.898438 353.910156 C 225.859375 357.058594 224.148438 362.191406 224.148438 366.238281 C 224.148438 375.871094 231.078125 382.078125 239.898438 382.078125 C 246.648438 382.078125 250.519531 378.839844 252.410156 377.308594 L 252.410156 380.640625 L 252.949219 381.269531 C 259.429688 381 261.410156 380.910156 267.257812 381 L 267.707031 380.371094 C 267.078125 371.550781 267.078125 369.300781 267.078125 360.839844 L 267.167969 354.179688 M 252.320312 368.488281 C 250.429688 369.570312 248 370.828125 245.027344 370.828125 C 241.789062 370.828125 239.089844 369.121094 239.089844 365.339844 C 239.089844 359.398438 246.199219 358.410156 252.320312 357.601562 Z M 302.902344 370.648438 C 301.371094 371.101562 300.289062 371.460938 298.761719 371.460938 C 294.171875 371.460938 293.8125 368.578125 293.628906 367.230469 C 293.359375 364.890625 293.359375 359.941406 293.449219 356.339844 L 293.628906 343.648438 L 301.730469 344.011719 L 302.269531 343.46875 L 303.171875 333.839844 L 302.628906 333.300781 L 293.628906 333.300781 L 293.902344 318.179688 L 293.269531 317.640625 C 287.152344 319.441406 285.53125 319.890625 279.140625 321.511719 L 278.78125 322.140625 L 278.871094 333.390625 L 274.011719 333.210938 L 273.472656 333.660156 L 272.660156 343.289062 L 273.199219 343.828125 L 278.871094 343.648438 L 278.601562 357.960938 C 278.511719 360.210938 278.421875 362.460938 278.421875 364.800781 C 278.421875 373.078125 278.601562 381.988281 292.640625 381.988281 C 296.152344 381.988281 298.941406 381.449219 302.089844 380.910156 L 302.722656 380.28125 L 303.621094 371.011719 Z M 352.761719 332.851562 L 338.089844 333.570312 L 337.460938 334.109375 C 338.089844 344.28125 338.089844 358.679688 338.089844 360.121094 C 338.089844 362.730469 338.089844 364.171875 338 367.769531 C 335.570312 369.390625 333.679688 370.738281 331.25 370.738281 C 324.769531 370.738281 324.769531 363.898438 324.769531 358.589844 C 324.769531 356.339844 324.769531 354 324.859375 351.75 L 325.039062 333.570312 L 324.410156 332.851562 L 309.558594 333.570312 L 308.929688 334.109375 C 309.46875 341.671875 309.558594 344.191406 309.558594 353.28125 L 309.558594 359.578125 C 309.46875 369.390625 309.921875 373.53125 313.160156 377.308594 C 316.128906 380.640625 320.449219 382.078125 324.949219 382.078125 C 331.339844 382.078125 335.03125 379.199219 338.269531 376.679688 L 338.179688 380.730469 L 338.808594 381.269531 C 345.378906 381 347.359375 381 353.210938 381 L 353.75 380.460938 C 353.300781 374.070312 353.121094 370.648438 353.121094 358.949219 C 353.121094 350.488281 353.210938 342.03125 353.390625 333.570312 Z M 389.929688 347.609375 L 392.449219 332.941406 L 391.910156 332.308594 C 391.28125 332.308594 390.648438 332.21875 390.019531 332.21875 C 386.328125 332.21875 382.191406 334.289062 379.308594 340.949219 L 379.578125 332.671875 L 378.859375 331.949219 C 372.199219 333.390625 370.488281 333.660156 363.917969 334.648438 L 363.378906 335.191406 C 363.917969 341.941406 364.191406 345.988281 364.191406 358.5 C 364.191406 365.878906 364.097656 373.261719 363.917969 380.730469 L 364.460938 381.269531 C 371.121094 381 372.558594 380.910156 379.757812 381 L 380.210938 380.371094 C 379.847656 373.078125 379.308594 362.910156 379.308594 356.699219 C 379.308594 352.648438 379.308594 346.710938 385.429688 346.710938 C 386.960938 346.710938 387.859375 347.25 389.121094 347.96875 Z M 437.71875 354.179688 C 437.808594 346.078125 437.808594 342.570312 435.46875 338.789062 C 433.667969 335.910156 430.070312 332.308594 418.550781 332.308594 C 410.808594 332.308594 406.039062 333.75 400.910156 335.28125 L 400.371094 336 L 399.917969 345.808594 L 400.640625 346.171875 C 403.789062 344.910156 409.640625 342.570312 415.667969 342.570312 C 419 342.570312 420.347656 343.109375 421.519531 344.28125 C 422.417969 345.179688 422.691406 346.800781 422.691406 348.148438 C 411.890625 349.589844 406.847656 350.578125 401.449219 353.910156 C 396.410156 357.058594 394.699219 362.191406 394.699219 366.238281 C 394.699219 375.871094 401.628906 382.078125 410.449219 382.078125 C 417.199219 382.078125 421.070312 378.839844 422.960938 377.308594 L 422.960938 380.640625 L 423.5 381.269531 C 429.980469 381 431.960938 380.910156 437.808594 381 L 438.257812 380.371094 C 437.628906 371.550781 437.628906 369.300781 437.628906 360.839844 L 437.71875 354.179688 M 422.871094 368.488281 C 420.980469 369.570312 418.550781 370.828125 415.578125 370.828125 C 412.339844 370.828125 409.640625 369.121094 409.640625 365.339844 C 409.640625 359.398438 416.75 358.410156 422.871094 357.601562 Z M 464.085938 380.371094 C 463.636719 370.019531 463.1875 360.570312 463.1875 332.128906 C 463.1875 323.578125 463.277344 319.53125 463.636719 309.808594 L 463.007812 309.179688 L 447.617188 311.609375 L 447.257812 312.148438 C 448.15625 323.128906 448.246094 326.101562 448.425781 340.679688 C 448.519531 345.988281 448.519531 351.300781 448.519531 356.609375 C 448.519531 366.328125 448.335938 371.730469 447.976562 380.640625 L 448.519531 381.269531 C 454.546875 381 456.976562 380.910156 463.546875 381 Z M 521.148438 356.25 C 527.179688 366.511719 528.53125 369.210938 534.289062 381 L 535.011719 381.449219 C 537.800781 381.269531 540.5 381.089844 543.289062 381 C 546.082031 380.910156 548.960938 380.820312 551.75 380.820312 L 552.289062 379.738281 C 548.871094 375.328125 547.878906 373.980469 541.398438 363.628906 C 538.519531 359.039062 537.082031 356.609375 534.832031 352.648438 C 538.878906 350.851562 547.070312 347.070312 547.070312 335.640625 C 547.070312 331.679688 545.988281 323.488281 538.609375 319.621094 C 533.929688 317.191406 529.070312 317.101562 518.539062 317.28125 L 512.238281 317.371094 L 501.261719 317.371094 L 500.808594 317.910156 C 501.171875 327 501.53125 336.359375 501.53125 360.839844 C 501.53125 369.210938 501.441406 373.261719 501.171875 380.730469 L 501.710938 381.269531 C 508.28125 381 509.71875 380.910156 517.101562 381 L 517.640625 380.460938 C 516.921875 370.019531 516.832031 367.140625 516.738281 356.429688 L 521.148438 356.25 M 516.921875 328.261719 C 518.179688 328.171875 519.441406 328.171875 520.699219 328.171875 C 524.210938 328.171875 531.140625 328.171875 531.140625 336.089844 C 531.140625 338.609375 530.511719 341.941406 527.179688 344.011719 C 524.660156 345.539062 521.421875 345.71875 516.921875 345.808594 Z M 597.019531 367.679688 C 593.601562 369.480469 589.550781 371.550781 582.980469 371.550781 C 577.582031 371.550781 573.890625 369.839844 571.730469 366.601562 C 570.378906 364.710938 570.109375 362.910156 569.75 361.109375 L 598.820312 360.570312 L 599.359375 359.941406 C 599.269531 355.53125 599.179688 351.03125 597.921875 346.53125 C 594.769531 335.910156 587.839844 333.75 584.78125 333.03125 C 582.53125 332.398438 580.460938 332.21875 578.390625 332.21875 C 564.261719 332.21875 554.898438 341.488281 554.898438 357.058594 C 554.898438 361.289062 555.621094 365.699219 557.058594 368.851562 C 562.28125 381 574.519531 382.078125 581 382.078125 C 588.46875 382.078125 591.710938 380.730469 596.480469 378.839844 L 597.019531 378.121094 L 597.648438 367.949219 L 597.019531 367.679688 M 569.75 351.570312 C 570.019531 348.78125 570.648438 345 574.070312 342.839844 C 575.148438 342.121094 576.410156 341.851562 577.671875 341.851562 C 580.640625 341.851562 582.441406 343.378906 583.429688 345 C 584.691406 346.980469 584.78125 349.140625 584.78125 351.210938 Z M 626.539062 349.949219 C 623.476562 348.871094 621.046875 347.878906 621.046875 345.359375 C 621.046875 344.28125 621.769531 341.308594 627.347656 341.308594 C 632.839844 341.308594 636.347656 343.648438 638.597656 345.089844 L 639.410156 344.820312 L 640.308594 335.011719 L 639.859375 334.46875 C 635.628906 333.300781 631.9375 332.21875 626.089844 332.21875 C 621.679688 332.21875 612.859375 332.578125 608.179688 339.328125 C 607.007812 340.949219 605.75 343.648438 605.75 347.25 C 605.75 356.878906 613.21875 359.761719 617.449219 361.378906 L 620.867188 362.640625 C 623.296875 363.449219 627.257812 364.800781 627.257812 368.039062 C 627.257812 370.289062 625.1875 372.71875 620.148438 372.71875 C 617.628906 372.71875 613.9375 371.910156 610.609375 370.199219 C 609.078125 369.390625 608.359375 368.761719 607.007812 367.679688 L 606.199219 368.039062 C 606.019531 372.71875 605.929688 373.710938 605.566406 378.210938 L 606.019531 379.019531 C 610.429688 380.640625 614.207031 382.078125 620.777344 382.078125 C 627.617188 382.078125 641.117188 380.820312 642.738281 367.949219 C 642.828125 367.230469 642.828125 366.601562 642.828125 365.96875 C 642.828125 356.070312 635.898438 353.460938 630.949219 351.570312 Z M 690.707031 367.679688 C 687.289062 369.480469 683.238281 371.550781 676.667969 371.550781 C 671.269531 371.550781 667.578125 369.839844 665.417969 366.601562 C 664.066406 364.710938 663.796875 362.910156 663.4375 361.109375 L 692.507812 360.570312 L 693.046875 359.941406 C 692.957031 355.53125 692.867188 351.03125 691.609375 346.53125 C 688.457031 335.910156 681.527344 333.75 678.46875 333.03125 C 676.21875 332.398438 674.148438 332.21875 672.078125 332.21875 C 657.949219 332.21875 648.585938 341.488281 648.585938 357.058594 C 648.585938 361.289062 649.308594 365.699219 650.746094 368.851562 C 655.96875 381 668.207031 382.078125 674.6875 382.078125 C 682.15625 382.078125 685.398438 380.730469 690.167969 378.839844 L 690.707031 378.121094 L 691.335938 367.949219 L 690.707031 367.679688 M 663.4375 351.570312 C 663.707031 348.78125 664.335938 345 667.757812 342.839844 C 668.835938 342.121094 670.097656 341.851562 671.359375 341.851562 C 674.328125 341.851562 676.128906 343.378906 677.117188 345 C 678.378906 346.980469 678.46875 349.140625 678.46875 351.210938 Z M 727.339844 347.609375 L 729.859375 332.941406 L 729.320312 332.308594 C 728.691406 332.308594 728.058594 332.21875 727.429688 332.21875 C 723.738281 332.21875 719.601562 334.289062 716.71875 340.949219 L 716.988281 332.671875 L 716.269531 331.949219 C 709.609375 333.390625 707.898438 333.660156 701.328125 334.648438 L 700.789062 335.191406 C 701.328125 341.941406 701.601562 345.988281 701.601562 358.5 C 701.601562 365.878906 701.507812 373.261719 701.328125 380.730469 L 701.871094 381.269531 C 708.53125 381 709.96875 380.910156 717.167969 381 L 717.621094 380.371094 C 717.257812 373.078125 716.71875 362.910156 716.71875 356.699219 C 716.71875 352.648438 716.71875 346.710938 722.839844 346.710938 C 724.371094 346.710938 725.269531 347.25 726.53125 347.96875 Z M 759.917969 380.28125 C 762.800781 371.28125 764.507812 365.699219 766.398438 360.03125 C 768.828125 352.738281 772.789062 341.039062 775.308594 333.660156 L 774.859375 333.03125 L 762.257812 333.300781 L 761.628906 333.929688 C 760.371094 339.960938 760.101562 341.21875 758.300781 348.238281 L 753.710938 365.96875 L 751.460938 356.25 L 749.75 349.320312 C 747.5 340.949219 747.140625 339.238281 745.878906 333.300781 L 745.25 332.761719 C 738.140625 333.570312 736.339844 333.660156 729.5 333.75 L 729.140625 334.46875 C 741.109375 369.929688 742.101562 373.261719 744.078125 380.640625 L 744.710938 381.269531 C 750.558594 381 752.898438 380.910156 759.378906 381 Z M 820.039062 367.679688 C 816.621094 369.480469 812.570312 371.550781 806 371.550781 C 800.601562 371.550781 796.910156 369.839844 794.75 366.601562 C 793.398438 364.710938 793.128906 362.910156 792.769531 361.109375 L 821.839844 360.570312 L 822.378906 359.941406 C 822.289062 355.53125 822.199219 351.03125 820.941406 346.53125 C 817.789062 335.910156 810.859375 333.75 807.800781 333.03125 C 805.550781 332.398438 803.480469 332.21875 801.410156 332.21875 C 787.28125 332.21875 777.917969 341.488281 777.917969 357.058594 C 777.917969 361.289062 778.640625 365.699219 780.078125 368.851562 C 785.300781 381 797.539062 382.078125 804.019531 382.078125 C 811.488281 382.078125 814.730469 380.730469 819.5 378.839844 L 820.039062 378.121094 L 820.667969 367.949219 L 820.039062 367.679688 M 792.769531 351.570312 C 793.039062 348.78125 793.667969 345 797.089844 342.839844 C 798.167969 342.121094 799.429688 341.851562 800.691406 341.851562 C 803.660156 341.851562 805.460938 343.378906 806.449219 345 C 807.710938 346.980469 807.800781 349.140625 807.800781 351.210938 Z M 825.257812 381 "/>
</svg>
