<?xml version="1.0" encoding="UTF-8"?>
<svg xmlns="http://www.w3.org/2000/svg" xmlns:xlink="http://www.w3.org/1999/xlink" width="975" height="1300" viewBox="0 0 975 1300">
<path fill-rule="nonzero" fill="rgb(98.823529%, 78.823529%, 9.019608%)" fill-opacity="1" d="M 50 50 L 925 50 L 925 290 L 50 290 Z M 50 50 "/>
<path fill-rule="nonzero" fill="rgb(34.901961%, 14.901961%, 14.901961%)" fill-opacity="1" d="M 216.226562 115.078125 L 216.859375 114.539062 L 217.578125 104.011719 L 217.128906 103.46875 L 196.609375 104.191406 L 196.609375 89.160156 L 218.660156 89.429688 L 219.199219 88.800781 L 220.1875 77.640625 L 219.648438 77.191406 C 204.796875 77.460938 200.027344 77.460938 180.589844 77.371094 L 180.046875 77.910156 C 180.589844 86.730469 180.949219 93.839844 180.949219 109.769531 C 180.949219 120.121094 180.769531 130.46875 180.589844 140.820312 L 181.039062 141.269531 C 187.609375 141 189.136719 141 197.058594 141 L 197.507812 140.460938 C 196.878906 130.109375 196.789062 126.960938 196.519531 115.078125 Z M 272.839844 117.058594 C 272.839844 113.550781 272.839844 98.96875 260.238281 94.019531 C 256.277344 92.488281 251.597656 92.308594 249.257812 92.308594 C 233.597656 92.308594 224.777344 100.679688 224.777344 117.238281 C 224.777344 123 225.679688 128.851562 229.007812 133.710938 C 231.347656 137.21875 235.757812 142.078125 248.628906 142.078125 C 267.707031 142.078125 272.839844 130.558594 272.839844 117.058594 M 257.269531 116.96875 C 257.269531 124.351562 256.277344 132.539062 248.808594 132.539062 C 246.46875 132.539062 244.847656 131.460938 243.769531 130.46875 C 242.238281 128.941406 240.527344 125.878906 240.527344 117.148438 C 240.527344 114.539062 240.527344 108.78125 242.328125 105.628906 C 243.679688 103.199219 246.019531 101.578125 248.898438 101.578125 C 251.417969 101.578125 253.488281 102.929688 254.660156 104.371094 C 256.820312 106.980469 257.269531 112.109375 257.269531 116.96875 Z M 307.398438 107.609375 L 309.917969 92.941406 L 309.378906 92.308594 C 308.75 92.308594 308.117188 92.21875 307.488281 92.21875 C 303.796875 92.21875 299.660156 94.289062 296.777344 100.949219 L 297.046875 92.671875 L 296.328125 91.949219 C 289.667969 93.390625 287.957031 93.660156 281.386719 94.648438 L 280.847656 95.191406 C 281.386719 101.941406 281.660156 105.988281 281.660156 118.5 C 281.660156 125.878906 281.566406 133.261719 281.386719 140.730469 L 281.929688 141.269531 C 288.589844 141 290.027344 140.910156 297.226562 141 L 297.679688 140.371094 C 297.316406 133.078125 296.777344 122.910156 296.777344 116.699219 C 296.777344 112.648438 296.777344 106.710938 302.898438 106.710938 C 304.429688 106.710938 305.328125 107.25 306.589844 107.96875 Z M 340.339844 130.648438 C 338.808594 131.101562 337.726562 131.460938 336.199219 131.460938 C 331.609375 131.460938 331.25 128.578125 331.066406 127.230469 C 330.796875 124.890625 330.796875 119.941406 330.886719 116.339844 L 331.066406 103.648438 L 339.167969 104.011719 L 339.707031 103.46875 L 340.609375 93.839844 L 340.066406 93.300781 L 331.066406 93.300781 L 331.339844 78.179688 L 330.707031 77.640625 C 324.589844 79.441406 322.96875 79.890625 316.578125 81.511719 L 316.21875 82.140625 L 316.308594 93.390625 L 311.449219 93.210938 L 310.910156 93.660156 L 310.097656 103.289062 L 310.636719 103.828125 L 316.308594 103.648438 L 316.039062 117.960938 C 315.949219 120.210938 315.859375 122.460938 315.859375 124.800781 C 315.859375 133.078125 316.039062 141.988281 330.078125 141.988281 C 333.589844 141.988281 336.378906 141.449219 339.527344 140.910156 L 340.160156 140.28125 L 341.058594 131.011719 Z M 393.617188 116.25 C 399.648438 126.511719 401 129.210938 406.757812 141 L 407.480469 141.449219 C 410.269531 141.269531 412.96875 141.089844 415.757812 141 C 418.550781 140.910156 421.429688 140.820312 424.21875 140.820312 L 424.757812 139.738281 C 421.339844 135.328125 420.347656 133.980469 413.867188 123.628906 C 410.988281 119.039062 409.550781 116.609375 407.300781 112.648438 C 411.347656 110.851562 419.539062 107.070312 419.539062 95.640625 C 419.539062 91.679688 418.457031 83.488281 411.078125 79.621094 C 406.398438 77.191406 401.539062 77.101562 391.007812 77.28125 L 384.707031 77.371094 L 373.730469 77.371094 L 373.277344 77.910156 C 373.640625 87 374 96.359375 374 120.839844 C 374 129.210938 373.910156 133.261719 373.640625 140.730469 L 374.179688 141.269531 C 380.75 141 382.1875 140.910156 389.570312 141 L 390.109375 140.460938 C 389.390625 130.019531 389.300781 127.140625 389.207031 116.429688 L 393.617188 116.25 M 389.390625 88.261719 C 390.648438 88.171875 391.910156 88.171875 393.167969 88.171875 C 396.679688 88.171875 403.609375 88.171875 403.609375 96.089844 C 403.609375 98.609375 402.980469 101.941406 399.648438 104.011719 C 397.128906 105.539062 393.890625 105.71875 389.390625 105.808594 Z M 475.339844 117.058594 C 475.339844 113.550781 475.339844 98.96875 462.738281 94.019531 C 458.777344 92.488281 454.097656 92.308594 451.757812 92.308594 C 436.097656 92.308594 427.277344 100.679688 427.277344 117.238281 C 427.277344 123 428.179688 128.851562 431.507812 133.710938 C 433.847656 137.21875 438.257812 142.078125 451.128906 142.078125 C 470.207031 142.078125 475.339844 130.558594 475.339844 117.058594 M 459.769531 116.96875 C 459.769531 124.351562 458.777344 132.539062 451.308594 132.539062 C 448.96875 132.539062 447.347656 131.460938 446.269531 130.46875 C 444.738281 128.941406 443.027344 125.878906 443.027344 117.148438 C 443.027344 114.539062 443.027344 108.78125 444.828125 105.628906 C 446.179688 103.199219 448.519531 101.578125 451.398438 101.578125 C 453.917969 101.578125 455.988281 102.929688 457.160156 104.371094 C 459.320312 106.980469 459.769531 112.109375 459.769531 116.96875 Z M 502.789062 109.949219 C 499.726562 108.871094 497.296875 107.878906 497.296875 105.359375 C 497.296875 104.28125 498.019531 101.308594 503.597656 101.308594 C 509.089844 101.308594 512.597656 103.648438 514.847656 105.089844 L 515.660156 104.820312 L 516.558594 95.011719 L 516.109375 94.46875 C 511.878906 93.300781 508.1875 92.21875 502.339844 92.21875 C 497.929688 92.21875 489.109375 92.578125 484.429688 99.328125 C 483.257812 100.949219 482 103.648438 482 107.25 C 482 116.878906 489.46875 119.761719 493.699219 121.378906 L 497.117188 122.640625 C 499.546875 123.449219 503.507812 124.800781 503.507812 128.039062 C 503.507812 130.289062 501.4375 132.71875 496.398438 132.71875 C 493.878906 132.71875 490.1875 131.910156 486.859375 130.199219 C 485.328125 129.390625 484.609375 128.761719 483.257812 127.679688 L 482.449219 128.039062 C 482.269531 132.71875 482.179688 133.710938 481.816406 138.210938 L 482.269531 139.019531 C 486.679688 140.640625 490.457031 142.078125 497.027344 142.078125 C 503.867188 142.078125 517.367188 140.820312 518.988281 127.949219 C 519.078125 127.230469 519.078125 126.601562 519.078125 125.96875 C 519.078125 116.070312 512.148438 113.460938 507.199219 111.570312 Z M 545.898438 109.949219 C 542.835938 108.871094 540.40625 107.878906 540.40625 105.359375 C 540.40625 104.28125 541.128906 101.308594 546.707031 101.308594 C 552.199219 101.308594 555.707031 103.648438 557.957031 105.089844 L 558.769531 104.820312 L 559.667969 95.011719 L 559.21875 94.46875 C 554.988281 93.300781 551.296875 92.21875 545.449219 92.21875 C 541.039062 92.21875 532.21875 92.578125 527.539062 99.328125 C 526.367188 100.949219 525.109375 103.648438 525.109375 107.25 C 525.109375 116.878906 532.578125 119.761719 536.808594 121.378906 L 540.226562 122.640625 C 542.65625 123.449219 546.617188 124.800781 546.617188 128.039062 C 546.617188 130.289062 544.546875 132.71875 539.507812 132.71875 C 536.988281 132.71875 533.296875 131.910156 529.96875 130.199219 C 528.4375 129.390625 527.71875 128.761719 526.367188 127.679688 L 525.558594 128.039062 C 525.378906 132.71875 525.289062 133.710938 524.925781 138.210938 L 525.378906 139.019531 C 529.789062 140.640625 533.566406 142.078125 540.136719 142.078125 C 546.976562 142.078125 560.476562 140.820312 562.097656 127.949219 C 562.1875 127.230469 562.1875 126.601562 562.1875 125.96875 C 562.1875 116.070312 555.257812 113.460938 550.308594 111.570312 Z M 622.398438 102.300781 C 614.839844 99.148438 610.878906 97.53125 610.878906 93.480469 C 610.878906 90.691406 613.488281 87.179688 619.429688 87.179688 C 626.269531 87.179688 630.316406 89.96875 633.648438 92.21875 L 634.457031 91.859375 L 635.179688 80.070312 L 634.726562 79.441406 C 630.859375 77.820312 626.808594 76.109375 618.078125 76.109375 C 601.160156 76.109375 595.308594 85.648438 595.308594 95.28125 C 595.308594 106.171875 603.769531 110.128906 608.808594 112.558594 L 611.777344 113.910156 C 617.988281 116.519531 622.757812 118.769531 622.757812 123.539062 C 622.757812 126.960938 619.789062 131.011719 611.957031 131.011719 C 603.769531 131.011719 599.179688 127.410156 596.566406 125.339844 L 595.667969 125.609375 L 595.039062 138.300781 L 595.578125 139.019531 C 596.566406 139.378906 597.558594 139.828125 598.546875 140.101562 C 600.617188 140.820312 605.929688 142.351562 612.679688 142.351562 C 615.378906 142.351562 622.21875 142.078125 627.617188 139.558594 C 635.179688 135.871094 638.417969 129.03125 638.417969 121.378906 C 638.417969 116.25 636.4375 110.761719 631.667969 107.070312 C 629.238281 105.269531 626.898438 104.191406 624.738281 103.199219 Z M 672.167969 130.648438 C 670.636719 131.101562 669.554688 131.460938 668.027344 131.460938 C 663.4375 131.460938 663.078125 128.578125 662.894531 127.230469 C 662.625 124.890625 662.625 119.941406 662.714844 116.339844 L 662.894531 103.648438 L 670.996094 104.011719 L 671.535156 103.46875 L 672.4375 93.839844 L 671.894531 93.300781 L 662.894531 93.300781 L 663.167969 78.179688 L 662.535156 77.640625 C 656.417969 79.441406 654.796875 79.890625 648.40625 81.511719 L 648.046875 82.140625 L 648.136719 93.390625 L 643.277344 93.210938 L 642.738281 93.660156 L 641.925781 103.289062 L 642.464844 103.828125 L 648.136719 103.648438 L 647.867188 117.960938 C 647.777344 120.210938 647.6875 122.460938 647.6875 124.800781 C 647.6875 133.078125 647.867188 141.988281 661.90625 141.988281 C 665.417969 141.988281 668.207031 141.449219 671.355469 140.910156 L 671.988281 140.28125 L 672.886719 131.011719 Z M 718.878906 114.179688 C 718.96875 106.078125 718.96875 102.570312 716.628906 98.789062 C 714.828125 95.910156 711.230469 92.308594 699.710938 92.308594 C 691.96875 92.308594 687.199219 93.75 682.070312 95.28125 L 681.53125 96 L 681.078125 105.808594 L 681.800781 106.171875 C 684.949219 104.910156 690.800781 102.570312 696.828125 102.570312 C 700.160156 102.570312 701.507812 103.109375 702.679688 104.28125 C 703.578125 105.179688 703.851562 106.800781 703.851562 108.148438 C 693.050781 109.589844 688.007812 110.578125 682.609375 113.910156 C 677.570312 117.058594 675.859375 122.191406 675.859375 126.238281 C 675.859375 135.871094 682.789062 142.078125 691.609375 142.078125 C 698.359375 142.078125 702.230469 138.839844 704.121094 137.308594 L 704.121094 140.640625 L 704.660156 141.269531 C 711.140625 141 713.121094 140.910156 718.96875 141 L 719.417969 140.371094 C 718.789062 131.550781 718.789062 129.300781 718.789062 120.839844 L 718.878906 114.179688 M 704.03125 128.488281 C 702.140625 129.570312 699.710938 130.828125 696.738281 130.828125 C 693.5 130.828125 690.800781 129.121094 690.800781 125.339844 C 690.800781 119.398438 697.910156 118.410156 704.03125 117.601562 Z M 754.609375 130.648438 C 753.078125 131.101562 751.996094 131.460938 750.46875 131.460938 C 745.878906 131.460938 745.519531 128.578125 745.335938 127.230469 C 745.066406 124.890625 745.066406 119.941406 745.15625 116.339844 L 745.335938 103.648438 L 753.4375 104.011719 L 753.976562 103.46875 L 754.878906 93.839844 L 754.335938 93.300781 L 745.335938 93.300781 L 745.609375 78.179688 L 744.976562 77.640625 C 738.859375 79.441406 737.238281 79.890625 730.847656 81.511719 L 730.488281 82.140625 L 730.578125 93.390625 L 725.71875 93.210938 L 725.179688 93.660156 L 724.367188 103.289062 L 724.90625 103.828125 L 730.578125 103.648438 L 730.308594 117.960938 C 730.21875 120.210938 730.128906 122.460938 730.128906 124.800781 C 730.128906 133.078125 730.308594 141.988281 744.347656 141.988281 C 747.859375 141.988281 750.648438 141.449219 753.796875 140.910156 L 754.429688 140.28125 L 755.328125 131.011719 Z M 801.226562 127.679688 C 797.808594 129.480469 793.757812 131.550781 787.1875 131.550781 C 781.789062 131.550781 778.097656 129.839844 775.9375 126.601562 C 774.585938 124.710938 774.316406 122.910156 773.957031 121.109375 L 803.027344 120.570312 L 803.566406 119.941406 C 803.476562 115.53125 803.386719 111.03125 802.128906 106.53125 C 798.976562 95.910156 792.046875 93.75 788.988281 93.03125 C 786.738281 92.398438 784.667969 92.21875 782.597656 92.21875 C 768.46875 92.21875 759.105469 101.488281 759.105469 117.058594 C 759.105469 121.289062 759.828125 125.699219 761.265625 128.851562 C 766.488281 141 778.726562 142.078125 785.207031 142.078125 C 792.675781 142.078125 795.917969 140.730469 800.6875 138.839844 L 801.226562 138.121094 L 801.855469 127.949219 L 801.226562 127.679688 M 773.957031 111.570312 C 774.226562 108.78125 774.855469 105 778.277344 102.839844 C 779.355469 102.121094 780.617188 101.851562 781.878906 101.851562 C 784.847656 101.851562 786.648438 103.378906 787.636719 105 C 788.898438 106.980469 788.988281 109.140625 788.988281 111.210938 Z M 806.449219 141 "/>
<path fill-rule="nonzero" fill="rgb(34.901961%, 14.901961%, 14.901961%)" fill-opacity="1" d="M 277.921875 197.191406 C 270.722656 197.460938 269.554688 197.460938 261.992188 197.460938 L 261.542969 198 C 262.171875 208.171875 262.171875 210.78125 262.261719 221.398438 C 258.304688 221.488281 254.34375 221.578125 250.292969 221.578125 C 247.144531 221.578125 243.902344 221.488281 240.753906 221.488281 L 240.933594 197.730469 L 240.484375 197.191406 C 233.554688 197.460938 232.203125 197.460938 224.375 197.460938 L 223.832031 198 C 224.285156 207.269531 224.824219 218.339844 224.824219 240.660156 C 224.824219 248.761719 224.644531 253.171875 224.464844 260.730469 L 224.914062 261.269531 C 231.484375 261 233.101562 260.910156 241.023438 261 L 241.472656 260.460938 C 240.933594 249.300781 240.84375 246.058594 240.753906 233.011719 C 244.714844 232.828125 248.042969 232.738281 251.554688 232.738281 C 255.152344 232.738281 258.753906 232.828125 262.351562 232.921875 C 262.535156 245.070312 262.535156 248.039062 262.082031 260.730469 L 262.535156 261.269531 C 269.285156 261 271.082031 260.910156 278.734375 261 L 279.183594 260.460938 C 278.464844 245.339844 278.191406 230.308594 278.191406 215.191406 C 278.191406 208.890625 278.285156 204.660156 278.375 197.730469 Z M 305.914062 260.371094 C 305.460938 253.441406 305.101562 248.128906 305.101562 235.710938 C 305.101562 228.058594 305.28125 220.320312 305.371094 212.671875 L 304.742188 211.949219 L 289.261719 214.648438 L 288.722656 215.191406 C 289.441406 222.03125 289.710938 225.179688 289.710938 237.960938 C 289.710938 247.769531 289.441406 253.261719 289.171875 260.640625 L 289.710938 261.269531 C 296.191406 261 297.992188 260.910156 305.28125 261 L 305.914062 260.371094 M 304.472656 203.308594 L 304.742188 191.070312 L 304.203125 190.53125 L 289.53125 192.328125 L 288.992188 192.960938 C 289.171875 196.199219 289.261719 198.089844 289.261719 200.25 C 289.261719 201.960938 289.261719 203.761719 289.171875 205.46875 L 289.800781 206.011719 C 295.921875 204.929688 297.632812 204.75 304.023438 203.941406 Z M 334.804688 229.949219 C 331.742188 228.871094 329.3125 227.878906 329.3125 225.359375 C 329.3125 224.28125 330.035156 221.308594 335.613281 221.308594 C 341.105469 221.308594 344.613281 223.648438 346.863281 225.089844 L 347.675781 224.820312 L 348.574219 215.011719 L 348.125 214.46875 C 343.894531 213.300781 340.203125 212.21875 334.355469 212.21875 C 329.945312 212.21875 321.125 212.578125 316.445312 219.328125 C 315.273438 220.949219 314.015625 223.648438 314.015625 227.25 C 314.015625 236.878906 321.484375 239.761719 325.714844 241.378906 L 329.132812 242.640625 C 331.5625 243.449219 335.523438 244.800781 335.523438 248.039062 C 335.523438 250.289062 333.453125 252.71875 328.414062 252.71875 C 325.894531 252.71875 322.203125 251.910156 318.875 250.199219 C 317.34375 249.390625 316.625 248.761719 315.273438 247.679688 L 314.464844 248.039062 C 314.285156 252.71875 314.195312 253.710938 313.832031 258.210938 L 314.285156 259.019531 C 318.695312 260.640625 322.472656 262.078125 329.042969 262.078125 C 335.882812 262.078125 349.382812 260.820312 351.003906 247.949219 C 351.09375 247.230469 351.09375 246.601562 351.09375 245.96875 C 351.09375 236.070312 344.164062 233.460938 339.214844 231.570312 Z M 384.214844 250.648438 C 382.683594 251.101562 381.601562 251.460938 380.074219 251.460938 C 375.484375 251.460938 375.125 248.578125 374.941406 247.230469 C 374.671875 244.890625 374.671875 239.941406 374.761719 236.339844 L 374.941406 223.648438 L 383.042969 224.011719 L 383.582031 223.46875 L 384.484375 213.839844 L 383.941406 213.300781 L 374.941406 213.300781 L 375.214844 198.179688 L 374.582031 197.640625 C 368.464844 199.441406 366.84375 199.890625 360.453125 201.511719 L 360.09375 202.140625 L 360.183594 213.390625 L 355.324219 213.210938 L 354.785156 213.660156 L 353.972656 223.289062 L 354.511719 223.828125 L 360.183594 223.648438 L 359.914062 237.960938 C 359.824219 240.210938 359.734375 242.460938 359.734375 244.800781 C 359.734375 253.078125 359.914062 261.988281 373.953125 261.988281 C 377.464844 261.988281 380.253906 261.449219 383.402344 260.910156 L 384.035156 260.28125 L 384.933594 251.011719 Z M 436.683594 237.058594 C 436.683594 233.550781 436.683594 218.96875 424.082031 214.019531 C 420.121094 212.488281 415.441406 212.308594 413.101562 212.308594 C 397.441406 212.308594 388.621094 220.679688 388.621094 237.238281 C 388.621094 243 389.523438 248.851562 392.851562 253.710938 C 395.191406 257.21875 399.601562 262.078125 412.472656 262.078125 C 431.550781 262.078125 436.683594 250.558594 436.683594 237.058594 M 421.113281 236.96875 C 421.113281 244.351562 420.121094 252.539062 412.652344 252.539062 C 410.3125 252.539062 408.691406 251.460938 407.613281 250.46875 C 406.082031 248.941406 404.371094 245.878906 404.371094 237.148438 C 404.371094 234.539062 404.371094 228.78125 406.171875 225.628906 C 407.523438 223.199219 409.863281 221.578125 412.742188 221.578125 C 415.261719 221.578125 417.332031 222.929688 418.503906 224.371094 C 420.664062 226.980469 421.113281 232.109375 421.113281 236.96875 Z M 471.242188 227.609375 L 473.761719 212.941406 L 473.222656 212.308594 C 472.59375 212.308594 471.960938 212.21875 471.332031 212.21875 C 467.640625 212.21875 463.503906 214.289062 460.621094 220.949219 L 460.890625 212.671875 L 460.171875 211.949219 C 453.511719 213.390625 451.800781 213.660156 445.230469 214.648438 L 444.691406 215.191406 C 445.230469 221.941406 445.503906 225.988281 445.503906 238.5 C 445.503906 245.878906 445.410156 253.261719 445.230469 260.730469 L 445.773438 261.269531 C 452.433594 261 453.871094 260.910156 461.070312 261 L 461.523438 260.371094 C 461.160156 253.078125 460.621094 242.910156 460.621094 236.699219 C 460.621094 232.648438 460.621094 226.710938 466.742188 226.710938 C 468.273438 226.710938 469.171875 227.25 470.433594 227.96875 Z M 495.273438 260.371094 C 494.820312 253.441406 494.460938 248.128906 494.460938 235.710938 C 494.460938 228.058594 494.640625 220.320312 494.730469 212.671875 L 494.101562 211.949219 L 478.621094 214.648438 L 478.082031 215.191406 C 478.800781 222.03125 479.070312 225.179688 479.070312 237.960938 C 479.070312 247.769531 478.800781 253.261719 478.53125 260.640625 L 479.070312 261.269531 C 485.550781 261 487.351562 260.910156 494.640625 261 L 495.273438 260.371094 M 493.832031 203.308594 L 494.101562 191.070312 L 493.5625 190.53125 L 478.890625 192.328125 L 478.351562 192.960938 C 478.53125 196.199219 478.621094 198.089844 478.621094 200.25 C 478.621094 201.960938 478.621094 203.761719 478.53125 205.46875 L 479.160156 206.011719 C 485.28125 204.929688 486.992188 204.75 493.382812 203.941406 Z M 540.453125 248.039062 C 538.023438 249.480469 535.683594 250.921875 531.09375 250.921875 C 520.921875 250.921875 518.851562 242.460938 518.851562 237.058594 C 518.851562 230.488281 521.734375 222.929688 530.464844 222.929688 C 534.421875 222.929688 536.582031 224.371094 539.285156 226.171875 L 540.183594 225.898438 C 540.542969 221.128906 540.632812 219.871094 541.351562 215.101562 L 540.902344 214.558594 C 536.941406 213.300781 533.523438 212.21875 528.304688 212.21875 C 507.152344 212.21875 503.011719 228.238281 503.011719 237.421875 C 503.011719 247.769531 508.414062 261.808594 528.664062 261.808594 C 533.433594 261.808594 536.492188 260.910156 540.273438 259.828125 L 540.8125 259.289062 L 541.171875 248.488281 Z M 586.714844 197.28125 L 575.285156 197.460938 L 574.742188 198 C 575.105469 209.699219 575.375 217.53125 575.375 227.878906 C 575.375 238.859375 575.105469 249.75 574.832031 260.730469 L 575.375 261.269531 C 582.035156 261 583.472656 260.910156 590.675781 261 L 591.125 260.460938 C 590.765625 250.648438 590.765625 248.398438 590.765625 239.21875 C 600.84375 239.308594 611.644531 239.308594 618.125 231.390625 C 620.644531 228.328125 622.804688 223.199219 622.804688 216.898438 C 622.804688 213.03125 621.902344 204.480469 614.433594 200.25 C 609.035156 197.101562 601.382812 197.101562 594.632812 197.101562 L 586.714844 197.28125 M 590.765625 208.171875 C 592.742188 208.078125 594.632812 208.078125 596.613281 208.078125 C 604.535156 208.261719 606.695312 212.308594 606.695312 217.53125 C 606.695312 218.789062 606.695312 224.011719 601.925781 226.621094 C 599.492188 227.96875 596.164062 228.148438 590.765625 228.148438 Z M 669.0625 234.179688 C 669.152344 226.078125 669.152344 222.570312 666.8125 218.789062 C 665.011719 215.910156 661.414062 212.308594 649.894531 212.308594 C 642.152344 212.308594 637.382812 213.75 632.253906 215.28125 L 631.714844 216 L 631.261719 225.808594 L 631.984375 226.171875 C 635.132812 224.910156 640.984375 222.570312 647.011719 222.570312 C 650.34375 222.570312 651.691406 223.109375 652.863281 224.28125 C 653.761719 225.179688 654.035156 226.800781 654.035156 228.148438 C 643.234375 229.589844 638.191406 230.578125 632.792969 233.910156 C 627.753906 237.058594 626.042969 242.191406 626.042969 246.238281 C 626.042969 255.871094 632.972656 262.078125 641.792969 262.078125 C 648.542969 262.078125 652.414062 258.839844 654.304688 257.308594 L 654.304688 260.640625 L 654.84375 261.269531 C 661.324219 261 663.304688 260.910156 669.152344 261 L 669.601562 260.371094 C 668.972656 251.550781 668.972656 249.300781 668.972656 240.839844 L 669.0625 234.179688 M 654.214844 248.488281 C 652.324219 249.570312 649.894531 250.828125 646.921875 250.828125 C 643.683594 250.828125 640.984375 249.121094 640.984375 245.339844 C 640.984375 239.398438 648.09375 238.410156 654.214844 237.601562 Z M 705.601562 227.609375 L 708.121094 212.941406 L 707.582031 212.308594 C 706.953125 212.308594 706.320312 212.21875 705.691406 212.21875 C 702 212.21875 697.863281 214.289062 694.980469 220.949219 L 695.25 212.671875 L 694.53125 211.949219 C 687.871094 213.390625 686.160156 213.660156 679.589844 214.648438 L 679.050781 215.191406 C 679.589844 221.941406 679.863281 225.988281 679.863281 238.5 C 679.863281 245.878906 679.769531 253.261719 679.589844 260.730469 L 680.132812 261.269531 C 686.792969 261 688.230469 260.910156 695.429688 261 L 695.882812 260.371094 C 695.519531 253.078125 694.980469 242.910156 694.980469 236.699219 C 694.980469 232.648438 694.980469 226.710938 701.101562 226.710938 C 702.632812 226.710938 703.53125 227.25 704.792969 227.96875 Z M 759.601562 259.828125 C 751.140625 245.519531 750.242188 243.898438 743.402344 231.570312 C 749.613281 223.109375 750.242188 222.210938 756.632812 214.019531 L 756.179688 213.121094 L 741.511719 213.300781 L 740.613281 213.929688 C 733.589844 226.078125 732.691406 227.519531 728.550781 233.730469 L 728.550781 223.738281 C 728.640625 206.910156 728.730469 203.308594 729.179688 189.71875 L 728.460938 189.179688 L 712.800781 191.519531 L 712.261719 192.148438 C 712.890625 200.878906 713.160156 205.109375 713.339844 216.898438 C 713.519531 231.480469 713.519531 246.058594 713.429688 260.640625 L 714.0625 261.269531 C 720.089844 261 721.800781 261 728.640625 261 L 729.179688 260.371094 L 728.640625 245.160156 L 728.550781 234.808594 C 736.382812 249.210938 737.371094 251.191406 741.960938 260.730469 L 742.769531 261.269531 L 758.972656 260.640625 Z M 758.523438 261 "/>
</svg>
