<?xml version="1.0" encoding="UTF-8"?>
<svg xmlns="http://www.w3.org/2000/svg" xmlns:xlink="http://www.w3.org/1999/xlink" width="975" height="1300" viewBox="0 0 975 1300">
<path fill-rule="nonzero" fill="rgb(98.823529%, 78.823529%, 9.019608%)" fill-opacity="1" d="M 50 50 L 925 50 L 925 290 L 50 290 Z M 50 50 "/>
<path fill-rule="nonzero" fill="rgb(34.901961%, 14.901961%, 14.901961%)" fill-opacity="1" d="M 140.855469 77.191406 C 132.214844 77.460938 130.414062 77.460938 120.785156 77.460938 L 120.152344 78 C 115.382812 93.300781 112.503906 102.390625 99.273438 140.371094 L 99.632812 141 L 113.671875 141 L 114.304688 140.460938 L 118.714844 124.078125 L 138.152344 124.078125 L 142.023438 140.730469 L 142.652344 141.269531 C 149.222656 141 151.023438 140.910156 158.3125 141 L 158.765625 140.28125 C 147.875 101.761719 146.613281 97.53125 141.484375 77.730469 L 140.855469 77.191406 M 121.863281 113.191406 L 126.363281 97.980469 L 129.515625 87.449219 L 132.214844 99.148438 L 135.542969 113.191406 Z M 207.726562 92.851562 L 193.054688 93.570312 L 192.425781 94.109375 C 193.054688 104.28125 193.054688 118.679688 193.054688 120.121094 C 193.054688 122.730469 193.054688 124.171875 192.964844 127.769531 C 190.535156 129.390625 188.644531 130.738281 186.214844 130.738281 C 179.734375 130.738281 179.734375 123.898438 179.734375 118.589844 C 179.734375 116.339844 179.734375 114 179.824219 111.75 L 180.003906 93.570312 L 179.375 92.851562 L 164.523438 93.570312 L 163.894531 94.109375 C 164.433594 101.671875 164.523438 104.191406 164.523438 113.28125 L 164.523438 119.578125 C 164.433594 129.390625 164.886719 133.53125 168.125 137.308594 C 171.09375 140.640625 175.414062 142.078125 179.914062 142.078125 C 186.304688 142.078125 189.996094 139.199219 193.234375 136.679688 L 193.144531 140.730469 L 193.773438 141.269531 C 200.34375 141 202.324219 141 208.175781 141 L 208.714844 140.460938 C 208.265625 134.070312 208.085938 130.648438 208.085938 118.949219 C 208.085938 110.488281 208.175781 102.03125 208.355469 93.570312 Z M 237.785156 109.949219 C 234.722656 108.871094 232.292969 107.878906 232.292969 105.359375 C 232.292969 104.28125 233.015625 101.308594 238.59375 101.308594 C 244.085938 101.308594 247.59375 103.648438 249.84375 105.089844 L 250.65625 104.820312 L 251.554688 95.011719 L 251.105469 94.46875 C 246.875 93.300781 243.183594 92.21875 237.335938 92.21875 C 232.925781 92.21875 224.105469 92.578125 219.425781 99.328125 C 218.253906 100.949219 216.996094 103.648438 216.996094 107.25 C 216.996094 116.878906 224.464844 119.761719 228.695312 121.378906 L 232.113281 122.640625 C 234.542969 123.449219 238.503906 124.800781 238.503906 128.039062 C 238.503906 130.289062 236.433594 132.71875 231.394531 132.71875 C 228.875 132.71875 225.183594 131.910156 221.855469 130.199219 C 220.324219 129.390625 219.605469 128.761719 218.253906 127.679688 L 217.445312 128.039062 C 217.265625 132.71875 217.175781 133.710938 216.8125 138.210938 L 217.265625 139.019531 C 221.675781 140.640625 225.453125 142.078125 232.023438 142.078125 C 238.863281 142.078125 252.363281 140.820312 253.984375 127.949219 C 254.074219 127.230469 254.074219 126.601562 254.074219 125.96875 C 254.074219 116.070312 247.144531 113.460938 242.195312 111.570312 Z M 287.195312 130.648438 C 285.664062 131.101562 284.582031 131.460938 283.054688 131.460938 C 278.464844 131.460938 278.105469 128.578125 277.921875 127.230469 C 277.652344 124.890625 277.652344 119.941406 277.742188 116.339844 L 277.921875 103.648438 L 286.023438 104.011719 L 286.5625 103.46875 L 287.464844 93.839844 L 286.921875 93.300781 L 277.921875 93.300781 L 278.195312 78.179688 L 277.5625 77.640625 C 271.445312 79.441406 269.824219 79.890625 263.433594 81.511719 L 263.074219 82.140625 L 263.164062 93.390625 L 258.304688 93.210938 L 257.765625 93.660156 L 256.953125 103.289062 L 257.492188 103.828125 L 263.164062 103.648438 L 262.894531 117.960938 C 262.804688 120.210938 262.714844 122.460938 262.714844 124.800781 C 262.714844 133.078125 262.894531 141.988281 276.933594 141.988281 C 280.445312 141.988281 283.234375 141.449219 286.382812 140.910156 L 287.015625 140.28125 L 287.914062 131.011719 Z M 310.144531 140.371094 C 309.691406 133.441406 309.332031 128.128906 309.332031 115.710938 C 309.332031 108.058594 309.511719 100.320312 309.601562 92.671875 L 308.972656 91.949219 L 293.492188 94.648438 L 292.953125 95.191406 C 293.671875 102.03125 293.941406 105.179688 293.941406 117.960938 C 293.941406 127.769531 293.671875 133.261719 293.402344 140.640625 L 293.941406 141.269531 C 300.421875 141 302.222656 140.910156 309.511719 141 L 310.144531 140.371094 M 308.703125 83.308594 L 308.972656 71.070312 L 308.433594 70.53125 L 293.761719 72.328125 L 293.222656 72.960938 C 293.402344 76.199219 293.492188 78.089844 293.492188 80.25 C 293.492188 81.960938 293.492188 83.761719 293.402344 85.46875 L 294.03125 86.011719 C 300.152344 84.929688 301.863281 84.75 308.253906 83.941406 Z M 364.234375 140.371094 C 363.785156 132.449219 363.785156 129.929688 363.605469 121.109375 L 363.605469 114.089844 C 363.515625 105.449219 363.425781 101.308594 361.175781 97.621094 C 358.382812 92.941406 353.253906 92.21875 350.015625 92.21875 C 344.523438 92.21875 339.753906 95.101562 335.613281 97.53125 L 335.792969 92.578125 L 334.894531 91.949219 C 327.964844 93.390625 326.433594 93.660156 319.683594 94.558594 L 319.144531 95.191406 C 319.863281 103.019531 320.40625 108.691406 320.40625 123.359375 C 320.40625 129.121094 320.3125 134.878906 320.222656 140.640625 L 320.765625 141.179688 C 327.246094 140.910156 328.59375 140.910156 335.792969 140.910156 L 336.335938 140.371094 C 335.792969 126.511719 335.703125 123 335.613281 106.890625 C 337.503906 105.628906 339.664062 104.101562 342.542969 104.101562 C 347.496094 104.101562 347.945312 109.410156 348.214844 112.648438 C 348.394531 115.621094 348.484375 127.949219 348.484375 131.371094 C 348.484375 134.429688 348.394531 137.578125 348.394531 140.640625 L 348.933594 141.179688 C 354.875 141 356.40625 140.910156 363.605469 140.910156 Z M 447.484375 124.890625 C 445.414062 126.511719 440.824219 129.929688 433.355469 129.929688 C 423.09375 129.929688 415.894531 122.28125 415.894531 109.5 C 415.894531 101.761719 418.59375 88.171875 433.265625 88.171875 C 440.015625 88.171875 443.703125 90.78125 445.953125 92.488281 L 446.765625 92.308594 L 447.574219 79.890625 L 447.214844 79.441406 C 443.976562 78.179688 438.484375 76.109375 430.566406 76.109375 C 407.253906 76.109375 399.15625 94.109375 399.15625 109.859375 C 399.15625 127.140625 409.683594 142.351562 431.644531 142.351562 C 439.203125 142.351562 444.15625 140.371094 447.035156 139.199219 L 447.484375 138.660156 L 448.113281 125.25 Z M 481.144531 107.609375 L 483.664062 92.941406 L 483.125 92.308594 C 482.496094 92.308594 481.863281 92.21875 481.234375 92.21875 C 477.542969 92.21875 473.40625 94.289062 470.523438 100.949219 L 470.792969 92.671875 L 470.074219 91.949219 C 463.414062 93.390625 461.703125 93.660156 455.132812 94.648438 L 454.59375 95.191406 C 455.132812 101.941406 455.40625 105.988281 455.40625 118.5 C 455.40625 125.878906 455.3125 133.261719 455.132812 140.730469 L 455.675781 141.269531 C 462.335938 141 463.773438 140.910156 470.972656 141 L 471.425781 140.371094 C 471.0625 133.078125 470.523438 122.910156 470.523438 116.699219 C 470.523438 112.648438 470.523438 106.710938 476.644531 106.710938 C 478.175781 106.710938 479.074219 107.25 480.335938 107.96875 Z M 528.84375 127.679688 C 525.425781 129.480469 521.375 131.550781 514.804688 131.550781 C 509.40625 131.550781 505.714844 129.839844 503.554688 126.601562 C 502.203125 124.710938 501.933594 122.910156 501.574219 121.109375 L 530.644531 120.570312 L 531.183594 119.941406 C 531.09375 115.53125 531.003906 111.03125 529.746094 106.53125 C 526.59375 95.910156 519.664062 93.75 516.605469 93.03125 C 514.355469 92.398438 512.285156 92.21875 510.214844 92.21875 C 496.085938 92.21875 486.722656 101.488281 486.722656 117.058594 C 486.722656 121.289062 487.445312 125.699219 488.882812 128.851562 C 494.105469 141 506.34375 142.078125 512.824219 142.078125 C 520.292969 142.078125 523.535156 140.730469 528.304688 138.839844 L 528.84375 138.121094 L 529.472656 127.949219 L 528.84375 127.679688 M 501.574219 111.570312 C 501.84375 108.78125 502.472656 105 505.894531 102.839844 C 506.972656 102.121094 508.234375 101.851562 509.496094 101.851562 C 512.464844 101.851562 514.265625 103.378906 515.253906 105 C 516.515625 106.980469 516.605469 109.140625 516.605469 111.210938 Z M 579.421875 127.679688 C 576.003906 129.480469 571.953125 131.550781 565.382812 131.550781 C 559.984375 131.550781 556.292969 129.839844 554.132812 126.601562 C 552.78125 124.710938 552.511719 122.910156 552.152344 121.109375 L 581.222656 120.570312 L 581.761719 119.941406 C 581.671875 115.53125 581.582031 111.03125 580.324219 106.53125 C 577.171875 95.910156 570.242188 93.75 567.183594 93.03125 C 564.933594 92.398438 562.863281 92.21875 560.792969 92.21875 C 546.664062 92.21875 537.300781 101.488281 537.300781 117.058594 C 537.300781 121.289062 538.023438 125.699219 539.460938 128.851562 C 544.683594 141 556.921875 142.078125 563.402344 142.078125 C 570.871094 142.078125 574.113281 140.730469 578.882812 138.839844 L 579.421875 138.121094 L 580.050781 127.949219 L 579.421875 127.679688 M 552.152344 111.570312 C 552.421875 108.78125 553.050781 105 556.472656 102.839844 C 557.550781 102.121094 558.8125 101.851562 560.074219 101.851562 C 563.042969 101.851562 564.84375 103.378906 565.832031 105 C 567.09375 106.980469 567.183594 109.140625 567.183594 111.210938 Z M 636.304688 139.828125 C 627.84375 125.519531 626.945312 123.898438 620.105469 111.570312 C 626.316406 103.109375 626.945312 102.210938 633.335938 94.019531 L 632.882812 93.121094 L 618.214844 93.300781 L 617.316406 93.929688 C 610.292969 106.078125 609.394531 107.519531 605.253906 113.730469 L 605.253906 103.738281 C 605.34375 86.910156 605.433594 83.308594 605.882812 69.71875 L 605.164062 69.179688 L 589.503906 71.519531 L 588.964844 72.148438 C 589.59375 80.878906 589.863281 85.109375 590.042969 96.898438 C 590.222656 111.480469 590.222656 126.058594 590.132812 140.640625 L 590.765625 141.269531 C 596.792969 141 598.503906 141 605.34375 141 L 605.882812 140.371094 L 605.34375 125.160156 L 605.253906 114.808594 C 613.085938 129.210938 614.074219 131.191406 618.664062 140.730469 L 619.472656 141.269531 L 635.675781 140.640625 Z M 692.914062 102.300781 C 685.355469 99.148438 681.394531 97.53125 681.394531 93.480469 C 681.394531 90.691406 684.003906 87.179688 689.945312 87.179688 C 696.785156 87.179688 700.832031 89.96875 704.164062 92.21875 L 704.972656 91.859375 L 705.695312 80.070312 L 705.242188 79.441406 C 701.375 77.820312 697.324219 76.109375 688.59375 76.109375 C 671.675781 76.109375 665.824219 85.648438 665.824219 95.28125 C 665.824219 106.171875 674.285156 110.128906 679.324219 112.558594 L 682.292969 113.910156 C 688.503906 116.519531 693.273438 118.769531 693.273438 123.539062 C 693.273438 126.960938 690.304688 131.011719 682.472656 131.011719 C 674.285156 131.011719 669.695312 127.410156 667.082031 125.339844 L 666.183594 125.609375 L 665.554688 138.300781 L 666.09375 139.019531 C 667.082031 139.378906 668.074219 139.828125 669.0625 140.101562 C 671.132812 140.820312 676.445312 142.351562 683.195312 142.351562 C 685.894531 142.351562 692.734375 142.078125 698.132812 139.558594 C 705.695312 135.871094 708.933594 129.03125 708.933594 121.378906 C 708.933594 116.25 706.953125 110.761719 702.183594 107.070312 C 699.753906 105.269531 697.414062 104.191406 695.253906 103.199219 Z M 742.683594 130.648438 C 741.152344 131.101562 740.070312 131.460938 738.542969 131.460938 C 733.953125 131.460938 733.59375 128.578125 733.410156 127.230469 C 733.140625 124.890625 733.140625 119.941406 733.230469 116.339844 L 733.410156 103.648438 L 741.511719 104.011719 L 742.050781 103.46875 L 742.953125 93.839844 L 742.410156 93.300781 L 733.410156 93.300781 L 733.683594 78.179688 L 733.050781 77.640625 C 726.933594 79.441406 725.3125 79.890625 718.921875 81.511719 L 718.5625 82.140625 L 718.652344 93.390625 L 713.792969 93.210938 L 713.253906 93.660156 L 712.441406 103.289062 L 712.980469 103.828125 L 718.652344 103.648438 L 718.382812 117.960938 C 718.292969 120.210938 718.203125 122.460938 718.203125 124.800781 C 718.203125 133.078125 718.382812 141.988281 732.421875 141.988281 C 735.933594 141.988281 738.722656 141.449219 741.871094 140.910156 L 742.503906 140.28125 L 743.402344 131.011719 Z M 789.394531 114.179688 C 789.484375 106.078125 789.484375 102.570312 787.144531 98.789062 C 785.34375 95.910156 781.746094 92.308594 770.226562 92.308594 C 762.484375 92.308594 757.714844 93.75 752.585938 95.28125 L 752.046875 96 L 751.59375 105.808594 L 752.316406 106.171875 C 755.464844 104.910156 761.316406 102.570312 767.34375 102.570312 C 770.675781 102.570312 772.023438 103.109375 773.195312 104.28125 C 774.09375 105.179688 774.367188 106.800781 774.367188 108.148438 C 763.566406 109.589844 758.523438 110.578125 753.125 113.910156 C 748.085938 117.058594 746.375 122.191406 746.375 126.238281 C 746.375 135.871094 753.304688 142.078125 762.125 142.078125 C 768.875 142.078125 772.746094 138.839844 774.636719 137.308594 L 774.636719 140.640625 L 775.175781 141.269531 C 781.65625 141 783.636719 140.910156 789.484375 141 L 789.933594 140.371094 C 789.304688 131.550781 789.304688 129.300781 789.304688 120.839844 L 789.394531 114.179688 M 774.546875 128.488281 C 772.65625 129.570312 770.226562 130.828125 767.253906 130.828125 C 764.015625 130.828125 761.316406 129.121094 761.316406 125.339844 C 761.316406 119.398438 768.425781 118.410156 774.546875 117.601562 Z M 825.125 130.648438 C 823.59375 131.101562 822.511719 131.460938 820.984375 131.460938 C 816.394531 131.460938 816.035156 128.578125 815.851562 127.230469 C 815.582031 124.890625 815.582031 119.941406 815.671875 116.339844 L 815.851562 103.648438 L 823.953125 104.011719 L 824.492188 103.46875 L 825.394531 93.839844 L 824.851562 93.300781 L 815.851562 93.300781 L 816.125 78.179688 L 815.492188 77.640625 C 809.375 79.441406 807.753906 79.890625 801.363281 81.511719 L 801.003906 82.140625 L 801.09375 93.390625 L 796.234375 93.210938 L 795.695312 93.660156 L 794.882812 103.289062 L 795.421875 103.828125 L 801.09375 103.648438 L 800.824219 117.960938 C 800.734375 120.210938 800.644531 122.460938 800.644531 124.800781 C 800.644531 133.078125 800.824219 141.988281 814.863281 141.988281 C 818.375 141.988281 821.164062 141.449219 824.3125 140.910156 L 824.945312 140.28125 L 825.84375 131.011719 Z M 871.742188 127.679688 C 868.324219 129.480469 864.273438 131.550781 857.703125 131.550781 C 852.304688 131.550781 848.613281 129.839844 846.453125 126.601562 C 845.101562 124.710938 844.832031 122.910156 844.472656 121.109375 L 873.542969 120.570312 L 874.082031 119.941406 C 873.992188 115.53125 873.902344 111.03125 872.644531 106.53125 C 869.492188 95.910156 862.5625 93.75 859.503906 93.03125 C 857.253906 92.398438 855.183594 92.21875 853.113281 92.21875 C 838.984375 92.21875 829.621094 101.488281 829.621094 117.058594 C 829.621094 121.289062 830.34375 125.699219 831.78125 128.851562 C 837.003906 141 849.242188 142.078125 855.722656 142.078125 C 863.191406 142.078125 866.433594 140.730469 871.203125 138.839844 L 871.742188 138.121094 L 872.371094 127.949219 L 871.742188 127.679688 M 844.472656 111.570312 C 844.742188 108.78125 845.371094 105 848.792969 102.839844 C 849.871094 102.121094 851.132812 101.851562 852.394531 101.851562 C 855.363281 101.851562 857.164062 103.378906 858.152344 105 C 859.414062 106.980469 859.503906 109.140625 859.503906 111.210938 Z M 876.964844 141 "/>
<path fill-rule="nonzero" fill="rgb(34.901961%, 14.901961%, 14.901961%)" fill-opacity="1" d="M 180.769531 236.25 C 186.800781 246.511719 188.152344 249.210938 193.910156 261 L 194.632812 261.449219 C 197.421875 261.269531 200.121094 261.089844 202.910156 261 C 205.703125 260.910156 208.582031 260.820312 211.371094 260.820312 L 211.910156 259.738281 C 208.492188 255.328125 207.5 253.980469 201.019531 243.628906 C 198.140625 239.039062 196.703125 236.609375 194.453125 232.648438 C 198.5 230.851562 206.691406 227.070312 206.691406 215.640625 C 206.691406 211.679688 205.609375 203.488281 198.230469 199.621094 C 193.550781 197.191406 188.691406 197.101562 178.160156 197.28125 L 171.859375 197.371094 L 160.882812 197.371094 L 160.429688 197.910156 C 160.792969 207 161.152344 216.359375 161.152344 240.839844 C 161.152344 249.210938 161.0625 253.261719 160.792969 260.730469 L 161.332031 261.269531 C 167.902344 261 169.339844 260.910156 176.722656 261 L 177.261719 260.460938 C 176.542969 250.019531 176.453125 247.140625 176.359375 236.429688 L 180.769531 236.25 M 176.542969 208.261719 C 177.800781 208.171875 179.0625 208.171875 180.320312 208.171875 C 183.832031 208.171875 190.761719 208.171875 190.761719 216.089844 C 190.761719 218.609375 190.132812 221.941406 186.800781 224.011719 C 184.28125 225.539062 181.042969 225.71875 176.542969 225.808594 Z M 256.640625 247.679688 C 253.222656 249.480469 249.171875 251.550781 242.601562 251.550781 C 237.203125 251.550781 233.511719 249.839844 231.351562 246.601562 C 230 244.710938 229.730469 242.910156 229.371094 241.109375 L 258.441406 240.570312 L 258.980469 239.941406 C 258.890625 235.53125 258.800781 231.03125 257.542969 226.53125 C 254.390625 215.910156 247.460938 213.75 244.402344 213.03125 C 242.152344 212.398438 240.082031 212.21875 238.011719 212.21875 C 223.882812 212.21875 214.519531 221.488281 214.519531 237.058594 C 214.519531 241.289062 215.242188 245.699219 216.679688 248.851562 C 221.902344 261 234.140625 262.078125 240.621094 262.078125 C 248.089844 262.078125 251.332031 260.730469 256.101562 258.839844 L 256.640625 258.121094 L 257.269531 247.949219 L 256.640625 247.679688 M 229.371094 231.570312 C 229.640625 228.78125 230.269531 225 233.691406 222.839844 C 234.769531 222.121094 236.03125 221.851562 237.292969 221.851562 C 240.261719 221.851562 242.0625 223.378906 243.050781 225 C 244.3125 226.980469 244.402344 229.140625 244.402344 231.210938 Z M 302.449219 248.039062 C 300.019531 249.480469 297.679688 250.921875 293.089844 250.921875 C 282.917969 250.921875 280.847656 242.460938 280.847656 237.058594 C 280.847656 230.488281 283.730469 222.929688 292.460938 222.929688 C 296.417969 222.929688 298.578125 224.371094 301.28125 226.171875 L 302.179688 225.898438 C 302.539062 221.128906 302.628906 219.871094 303.347656 215.101562 L 302.898438 214.558594 C 298.9375 213.300781 295.519531 212.21875 290.300781 212.21875 C 269.148438 212.21875 265.007812 228.238281 265.007812 237.421875 C 265.007812 247.769531 270.410156 261.808594 290.660156 261.808594 C 295.429688 261.808594 298.488281 260.910156 302.269531 259.828125 L 302.808594 259.289062 L 303.167969 248.488281 Z M 336.382812 227.609375 L 338.902344 212.941406 L 338.363281 212.308594 C 337.734375 212.308594 337.101562 212.21875 336.472656 212.21875 C 332.78125 212.21875 328.644531 214.289062 325.761719 220.949219 L 326.03125 212.671875 L 325.3125 211.949219 C 318.652344 213.390625 316.941406 213.660156 310.371094 214.648438 L 309.832031 215.191406 C 310.371094 221.941406 310.644531 225.988281 310.644531 238.5 C 310.644531 245.878906 310.550781 253.261719 310.371094 260.730469 L 310.914062 261.269531 C 317.574219 261 319.011719 260.910156 326.210938 261 L 326.664062 260.371094 C 326.300781 253.078125 325.761719 242.910156 325.761719 236.699219 C 325.761719 232.648438 325.761719 226.710938 331.882812 226.710938 C 333.414062 226.710938 334.3125 227.25 335.574219 227.96875 Z M 384.082031 247.679688 C 380.664062 249.480469 376.613281 251.550781 370.042969 251.550781 C 364.644531 251.550781 360.953125 249.839844 358.792969 246.601562 C 357.441406 244.710938 357.171875 242.910156 356.8125 241.109375 L 385.882812 240.570312 L 386.421875 239.941406 C 386.332031 235.53125 386.242188 231.03125 384.984375 226.53125 C 381.832031 215.910156 374.902344 213.75 371.84375 213.03125 C 369.59375 212.398438 367.523438 212.21875 365.453125 212.21875 C 351.324219 212.21875 341.960938 221.488281 341.960938 237.058594 C 341.960938 241.289062 342.683594 245.699219 344.121094 248.851562 C 349.34375 261 361.582031 262.078125 368.0625 262.078125 C 375.53125 262.078125 378.773438 260.730469 383.542969 258.839844 L 384.082031 258.121094 L 384.710938 247.949219 L 384.082031 247.679688 M 356.8125 231.570312 C 357.082031 228.78125 357.710938 225 361.132812 222.839844 C 362.210938 222.121094 363.472656 221.851562 364.734375 221.851562 C 367.703125 221.851562 369.503906 223.378906 370.492188 225 C 371.753906 226.980469 371.84375 229.140625 371.84375 231.210938 Z M 434.75 234.179688 C 434.839844 226.078125 434.839844 222.570312 432.5 218.789062 C 430.699219 215.910156 427.101562 212.308594 415.582031 212.308594 C 407.839844 212.308594 403.070312 213.75 397.941406 215.28125 L 397.402344 216 L 396.949219 225.808594 L 397.671875 226.171875 C 400.820312 224.910156 406.671875 222.570312 412.699219 222.570312 C 416.03125 222.570312 417.378906 223.109375 418.550781 224.28125 C 419.449219 225.179688 419.722656 226.800781 419.722656 228.148438 C 408.921875 229.589844 403.878906 230.578125 398.480469 233.910156 C 393.441406 237.058594 391.730469 242.191406 391.730469 246.238281 C 391.730469 255.871094 398.660156 262.078125 407.480469 262.078125 C 414.230469 262.078125 418.101562 258.839844 419.992188 257.308594 L 419.992188 260.640625 L 420.53125 261.269531 C 427.011719 261 428.992188 260.910156 434.839844 261 L 435.289062 260.371094 C 434.660156 251.550781 434.660156 249.300781 434.660156 240.839844 L 434.75 234.179688 M 419.902344 248.488281 C 418.011719 249.570312 415.582031 250.828125 412.609375 250.828125 C 409.371094 250.828125 406.671875 249.121094 406.671875 245.339844 C 406.671875 239.398438 413.78125 238.410156 419.902344 237.601562 Z M 470.484375 250.648438 C 468.953125 251.101562 467.871094 251.460938 466.34375 251.460938 C 461.753906 251.460938 461.394531 248.578125 461.210938 247.230469 C 460.941406 244.890625 460.941406 239.941406 461.03125 236.339844 L 461.210938 223.648438 L 469.3125 224.011719 L 469.851562 223.46875 L 470.753906 213.839844 L 470.210938 213.300781 L 461.210938 213.300781 L 461.484375 198.179688 L 460.851562 197.640625 C 454.734375 199.441406 453.113281 199.890625 446.722656 201.511719 L 446.363281 202.140625 L 446.453125 213.390625 L 441.59375 213.210938 L 441.054688 213.660156 L 440.242188 223.289062 L 440.78125 223.828125 L 446.453125 223.648438 L 446.183594 237.960938 C 446.09375 240.210938 446.003906 242.460938 446.003906 244.800781 C 446.003906 253.078125 446.183594 261.988281 460.222656 261.988281 C 463.734375 261.988281 466.523438 261.449219 469.671875 260.910156 L 470.304688 260.28125 L 471.203125 251.011719 Z M 493.433594 260.371094 C 492.980469 253.441406 492.621094 248.128906 492.621094 235.710938 C 492.621094 228.058594 492.800781 220.320312 492.890625 212.671875 L 492.261719 211.949219 L 476.78125 214.648438 L 476.242188 215.191406 C 476.960938 222.03125 477.230469 225.179688 477.230469 237.960938 C 477.230469 247.769531 476.960938 253.261719 476.691406 260.640625 L 477.230469 261.269531 C 483.710938 261 485.511719 260.910156 492.800781 261 L 493.433594 260.371094 M 491.992188 203.308594 L 492.261719 191.070312 L 491.722656 190.53125 L 477.050781 192.328125 L 476.511719 192.960938 C 476.691406 196.199219 476.78125 198.089844 476.78125 200.25 C 476.78125 201.960938 476.78125 203.761719 476.691406 205.46875 L 477.320312 206.011719 C 483.441406 204.929688 485.152344 204.75 491.542969 203.941406 Z M 549.230469 237.058594 C 549.230469 233.550781 549.230469 218.96875 536.628906 214.019531 C 532.667969 212.488281 527.988281 212.308594 525.648438 212.308594 C 509.988281 212.308594 501.167969 220.679688 501.167969 237.238281 C 501.167969 243 502.070312 248.851562 505.398438 253.710938 C 507.738281 257.21875 512.148438 262.078125 525.019531 262.078125 C 544.097656 262.078125 549.230469 250.558594 549.230469 237.058594 M 533.660156 236.96875 C 533.660156 244.351562 532.667969 252.539062 525.199219 252.539062 C 522.859375 252.539062 521.238281 251.460938 520.160156 250.46875 C 518.628906 248.941406 516.917969 245.878906 516.917969 237.148438 C 516.917969 234.539062 516.917969 228.78125 518.71875 225.628906 C 520.070312 223.199219 522.410156 221.578125 525.289062 221.578125 C 527.808594 221.578125 529.878906 222.929688 531.050781 224.371094 C 533.210938 226.980469 533.660156 232.109375 533.660156 236.96875 Z M 601.882812 260.371094 C 601.433594 252.449219 601.433594 249.929688 601.253906 241.109375 L 601.253906 234.089844 C 601.164062 225.449219 601.074219 221.308594 598.824219 217.621094 C 596.03125 212.941406 590.902344 212.21875 587.664062 212.21875 C 582.171875 212.21875 577.402344 215.101562 573.261719 217.53125 L 573.441406 212.578125 L 572.542969 211.949219 C 565.613281 213.390625 564.082031 213.660156 557.332031 214.558594 L 556.792969 215.191406 C 557.511719 223.019531 558.054688 228.691406 558.054688 243.359375 C 558.054688 249.121094 557.960938 254.878906 557.871094 260.640625 L 558.414062 261.179688 C 564.894531 260.910156 566.242188 260.910156 573.441406 260.910156 L 573.984375 260.371094 C 573.441406 246.511719 573.351562 243 573.261719 226.890625 C 575.152344 225.628906 577.3125 224.101562 580.191406 224.101562 C 585.144531 224.101562 585.59375 229.410156 585.863281 232.648438 C 586.042969 235.621094 586.132812 247.949219 586.132812 251.371094 C 586.132812 254.429688 586.042969 257.578125 586.042969 260.640625 L 586.582031 261.179688 C 592.523438 261 594.054688 260.910156 601.253906 260.910156 Z M 674.78125 197.191406 C 666.140625 197.460938 664.339844 197.460938 654.710938 197.460938 L 654.078125 198 C 649.308594 213.300781 646.429688 222.390625 633.199219 260.371094 L 633.558594 261 L 647.597656 261 L 648.230469 260.460938 L 652.640625 244.078125 L 672.078125 244.078125 L 675.949219 260.730469 L 676.578125 261.269531 C 683.148438 261 684.949219 260.910156 692.238281 261 L 692.691406 260.28125 C 681.800781 221.761719 680.539062 217.53125 675.410156 197.730469 L 674.78125 197.191406 M 655.789062 233.191406 L 660.289062 217.980469 L 663.441406 207.449219 L 666.140625 219.148438 L 669.46875 233.191406 Z M 724.460938 227.609375 L 726.980469 212.941406 L 726.441406 212.308594 C 725.8125 212.308594 725.179688 212.21875 724.550781 212.21875 C 720.859375 212.21875 716.722656 214.289062 713.839844 220.949219 L 714.109375 212.671875 L 713.390625 211.949219 C 706.730469 213.390625 705.019531 213.660156 698.449219 214.648438 L 697.910156 215.191406 C 698.449219 221.941406 698.722656 225.988281 698.722656 238.5 C 698.722656 245.878906 698.628906 253.261719 698.449219 260.730469 L 698.992188 261.269531 C 705.652344 261 707.089844 260.910156 714.289062 261 L 714.742188 260.371094 C 714.378906 253.078125 713.839844 242.910156 713.839844 236.699219 C 713.839844 232.648438 713.839844 226.710938 719.960938 226.710938 C 721.492188 226.710938 722.390625 227.25 723.652344 227.96875 Z M 772.160156 247.679688 C 768.742188 249.480469 764.691406 251.550781 758.121094 251.550781 C 752.722656 251.550781 749.03125 249.839844 746.871094 246.601562 C 745.519531 244.710938 745.25 242.910156 744.890625 241.109375 L 773.960938 240.570312 L 774.5 239.941406 C 774.410156 235.53125 774.320312 231.03125 773.0625 226.53125 C 769.910156 215.910156 762.980469 213.75 759.921875 213.03125 C 757.671875 212.398438 755.601562 212.21875 753.53125 212.21875 C 739.402344 212.21875 730.039062 221.488281 730.039062 237.058594 C 730.039062 241.289062 730.761719 245.699219 732.199219 248.851562 C 737.421875 261 749.660156 262.078125 756.140625 262.078125 C 763.609375 262.078125 766.851562 260.730469 771.621094 258.839844 L 772.160156 258.121094 L 772.789062 247.949219 L 772.160156 247.679688 M 744.890625 231.570312 C 745.160156 228.78125 745.789062 225 749.210938 222.839844 C 750.289062 222.121094 751.550781 221.851562 752.8125 221.851562 C 755.78125 221.851562 757.582031 223.378906 758.570312 225 C 759.832031 226.980469 759.921875 229.140625 759.921875 231.210938 Z M 822.832031 234.179688 C 822.921875 226.078125 822.921875 222.570312 820.582031 218.789062 C 818.78125 215.910156 815.183594 212.308594 803.664062 212.308594 C 795.921875 212.308594 791.152344 213.75 786.023438 215.28125 L 785.484375 216 L 785.03125 225.808594 L 785.753906 226.171875 C 788.902344 224.910156 794.753906 222.570312 800.78125 222.570312 C 804.113281 222.570312 805.460938 223.109375 806.632812 224.28125 C 807.53125 225.179688 807.804688 226.800781 807.804688 228.148438 C 797.003906 229.589844 791.960938 230.578125 786.5625 233.910156 C 781.523438 237.058594 779.8125 242.191406 779.8125 246.238281 C 779.8125 255.871094 786.742188 262.078125 795.5625 262.078125 C 802.3125 262.078125 806.183594 258.839844 808.074219 257.308594 L 808.074219 260.640625 L 808.613281 261.269531 C 815.09375 261 817.074219 260.910156 822.921875 261 L 823.371094 260.371094 C 822.742188 251.550781 822.742188 249.300781 822.742188 240.839844 L 822.832031 234.179688 M 807.984375 248.488281 C 806.09375 249.570312 803.664062 250.828125 800.691406 250.828125 C 797.453125 250.828125 794.753906 249.121094 794.753906 245.339844 C 794.753906 239.398438 801.863281 238.410156 807.984375 237.601562 Z M 827.960938 261 "/>
</svg>
