<?xml version="1.0" encoding="UTF-8"?>
<svg xmlns="http://www.w3.org/2000/svg" xmlns:xlink="http://www.w3.org/1999/xlink" width="975" height="1300" viewBox="0 0 975 1300">
<path fill-rule="nonzero" fill="rgb(98.823529%, 78.823529%, 9.019608%)" fill-opacity="1" d="M 50 50 L 925 50 L 925 290 L 50 290 Z M 50 50 "/>
<path fill-rule="nonzero" fill="rgb(34.901961%, 14.901961%, 14.901961%)" fill-opacity="1" d="M 84.019531 102.300781 C 76.460938 99.148438 72.5 97.53125 72.5 93.480469 C 72.5 90.691406 75.109375 87.179688 81.050781 87.179688 C 87.890625 87.179688 91.9375 89.96875 95.269531 92.21875 L 96.078125 91.859375 L 96.800781 80.070312 L 96.347656 79.441406 C 92.480469 77.820312 88.429688 76.109375 79.699219 76.109375 C 62.78125 76.109375 56.929688 85.648438 56.929688 95.28125 C 56.929688 106.171875 65.390625 110.128906 70.429688 112.558594 L 73.398438 113.910156 C 79.609375 116.519531 84.378906 118.769531 84.378906 123.539062 C 84.378906 126.960938 81.410156 131.011719 73.578125 131.011719 C 65.390625 131.011719 60.800781 127.410156 58.1875 125.339844 L 57.289062 125.609375 L 56.660156 138.300781 L 57.199219 139.019531 C 58.1875 139.378906 59.179688 139.828125 60.167969 140.101562 C 62.238281 140.820312 67.550781 142.351562 74.300781 142.351562 C 77 142.351562 83.839844 142.078125 89.238281 139.558594 C 96.800781 135.871094 100.039062 129.03125 100.039062 121.378906 C 100.039062 116.25 98.058594 110.761719 93.289062 107.070312 C 90.859375 105.269531 88.519531 104.191406 86.359375 103.199219 Z M 152.6875 140.371094 C 152.328125 132.988281 152.238281 130.46875 152.058594 121.109375 L 152.058594 114.359375 C 151.96875 105.808594 151.878906 100.859375 149.265625 97.078125 C 146.65625 93.390625 142.878906 92.21875 138.917969 92.21875 C 132.347656 92.21875 127.21875 95.371094 123.617188 97.53125 L 123.886719 69.808594 L 123.347656 69.179688 L 107.957031 71.609375 L 107.507812 72.148438 C 108.316406 80.878906 108.496094 84.121094 108.675781 95.730469 C 108.859375 103.019531 108.949219 110.308594 108.949219 117.601562 C 108.949219 126.511719 108.765625 131.820312 108.585938 140.640625 L 109.039062 141.269531 C 115.699219 140.910156 117.046875 140.910156 124.335938 140.910156 L 124.878906 140.371094 C 124.246094 126.871094 124.15625 122.820312 124.066406 106.890625 C 125.777344 105.71875 127.9375 104.191406 130.996094 104.191406 C 135.949219 104.191406 136.308594 109.320312 136.667969 112.921875 C 136.847656 115.710938 136.9375 128.488281 136.9375 131.820312 C 136.9375 134.789062 136.847656 137.671875 136.847656 140.640625 L 137.296875 141.269531 C 143.777344 140.910156 145.21875 140.910156 152.148438 140.910156 Z M 203 114.179688 C 203.089844 106.078125 203.089844 102.570312 200.75 98.789062 C 198.949219 95.910156 195.351562 92.308594 183.832031 92.308594 C 176.089844 92.308594 171.320312 93.75 166.191406 95.28125 L 165.652344 96 L 165.199219 105.808594 L 165.921875 106.171875 C 169.070312 104.910156 174.921875 102.570312 180.949219 102.570312 C 184.28125 102.570312 185.628906 103.109375 186.800781 104.28125 C 187.699219 105.179688 187.972656 106.800781 187.972656 108.148438 C 177.171875 109.589844 172.128906 110.578125 166.730469 113.910156 C 161.691406 117.058594 159.980469 122.191406 159.980469 126.238281 C 159.980469 135.871094 166.910156 142.078125 175.730469 142.078125 C 182.480469 142.078125 186.351562 138.839844 188.242188 137.308594 L 188.242188 140.640625 L 188.78125 141.269531 C 195.261719 141 197.242188 140.910156 203.089844 141 L 203.539062 140.371094 C 202.910156 131.550781 202.910156 129.300781 202.910156 120.839844 L 203 114.179688 M 188.152344 128.488281 C 186.261719 129.570312 183.832031 130.828125 180.859375 130.828125 C 177.621094 130.828125 174.921875 129.121094 174.921875 125.339844 C 174.921875 119.398438 182.03125 118.410156 188.152344 117.601562 Z M 232.429688 109.949219 C 229.367188 108.871094 226.9375 107.878906 226.9375 105.359375 C 226.9375 104.28125 227.660156 101.308594 233.238281 101.308594 C 238.730469 101.308594 242.238281 103.648438 244.488281 105.089844 L 245.300781 104.820312 L 246.199219 95.011719 L 245.75 94.46875 C 241.519531 93.300781 237.828125 92.21875 231.980469 92.21875 C 227.570312 92.21875 218.75 92.578125 214.070312 99.328125 C 212.898438 100.949219 211.640625 103.648438 211.640625 107.25 C 211.640625 116.878906 219.109375 119.761719 223.339844 121.378906 L 226.757812 122.640625 C 229.1875 123.449219 233.148438 124.800781 233.148438 128.039062 C 233.148438 130.289062 231.078125 132.71875 226.039062 132.71875 C 223.519531 132.71875 219.828125 131.910156 216.5 130.199219 C 214.96875 129.390625 214.25 128.761719 212.898438 127.679688 L 212.089844 128.039062 C 211.910156 132.71875 211.820312 133.710938 211.457031 138.210938 L 211.910156 139.019531 C 216.320312 140.640625 220.097656 142.078125 226.667969 142.078125 C 233.507812 142.078125 247.007812 140.820312 248.628906 127.949219 C 248.71875 127.230469 248.71875 126.601562 248.71875 125.96875 C 248.71875 116.070312 241.789062 113.460938 236.839844 111.570312 Z M 281.839844 130.648438 C 280.308594 131.101562 279.226562 131.460938 277.699219 131.460938 C 273.109375 131.460938 272.75 128.578125 272.566406 127.230469 C 272.296875 124.890625 272.296875 119.941406 272.386719 116.339844 L 272.566406 103.648438 L 280.667969 104.011719 L 281.207031 103.46875 L 282.109375 93.839844 L 281.566406 93.300781 L 272.566406 93.300781 L 272.839844 78.179688 L 272.207031 77.640625 C 266.089844 79.441406 264.46875 79.890625 258.078125 81.511719 L 257.71875 82.140625 L 257.808594 93.390625 L 252.949219 93.210938 L 252.410156 93.660156 L 251.597656 103.289062 L 252.136719 103.828125 L 257.808594 103.648438 L 257.539062 117.960938 C 257.449219 120.210938 257.359375 122.460938 257.359375 124.800781 C 257.359375 133.078125 257.539062 141.988281 271.578125 141.988281 C 275.089844 141.988281 277.878906 141.449219 281.027344 140.910156 L 281.660156 140.28125 L 282.558594 131.011719 Z M 328.546875 114.179688 C 328.636719 106.078125 328.636719 102.570312 326.296875 98.789062 C 324.496094 95.910156 320.898438 92.308594 309.378906 92.308594 C 301.636719 92.308594 296.867188 93.75 291.738281 95.28125 L 291.199219 96 L 290.746094 105.808594 L 291.46875 106.171875 C 294.617188 104.910156 300.46875 102.570312 306.496094 102.570312 C 309.828125 102.570312 311.175781 103.109375 312.347656 104.28125 C 313.246094 105.179688 313.519531 106.800781 313.519531 108.148438 C 302.71875 109.589844 297.675781 110.578125 292.277344 113.910156 C 287.238281 117.058594 285.527344 122.191406 285.527344 126.238281 C 285.527344 135.871094 292.457031 142.078125 301.277344 142.078125 C 308.027344 142.078125 311.898438 138.839844 313.789062 137.308594 L 313.789062 140.640625 L 314.328125 141.269531 C 320.808594 141 322.789062 140.910156 328.636719 141 L 329.085938 140.371094 C 328.457031 131.550781 328.457031 129.300781 328.457031 120.839844 L 328.546875 114.179688 M 313.699219 128.488281 C 311.808594 129.570312 309.378906 130.828125 306.40625 130.828125 C 303.167969 130.828125 300.46875 129.121094 300.46875 125.339844 C 300.46875 119.398438 307.578125 118.410156 313.699219 117.601562 Z M 391.371094 102.300781 C 383.8125 99.148438 379.851562 97.53125 379.851562 93.480469 C 379.851562 90.691406 382.460938 87.179688 388.402344 87.179688 C 395.242188 87.179688 399.289062 89.96875 402.621094 92.21875 L 403.429688 91.859375 L 404.152344 80.070312 L 403.699219 79.441406 C 399.832031 77.820312 395.78125 76.109375 387.050781 76.109375 C 370.132812 76.109375 364.28125 85.648438 364.28125 95.28125 C 364.28125 106.171875 372.742188 110.128906 377.78125 112.558594 L 380.75 113.910156 C 386.960938 116.519531 391.730469 118.769531 391.730469 123.539062 C 391.730469 126.960938 388.761719 131.011719 380.929688 131.011719 C 372.742188 131.011719 368.152344 127.410156 365.539062 125.339844 L 364.640625 125.609375 L 364.011719 138.300781 L 364.550781 139.019531 C 365.539062 139.378906 366.53125 139.828125 367.519531 140.101562 C 369.589844 140.820312 374.902344 142.351562 381.652344 142.351562 C 384.351562 142.351562 391.191406 142.078125 396.589844 139.558594 C 404.152344 135.871094 407.390625 129.03125 407.390625 121.378906 C 407.390625 116.25 405.410156 110.761719 400.640625 107.070312 C 398.210938 105.269531 395.871094 104.191406 393.710938 103.199219 Z M 441.140625 130.648438 C 439.609375 131.101562 438.527344 131.460938 437 131.460938 C 432.410156 131.460938 432.050781 128.578125 431.867188 127.230469 C 431.597656 124.890625 431.597656 119.941406 431.6875 116.339844 L 431.867188 103.648438 L 439.96875 104.011719 L 440.507812 103.46875 L 441.410156 93.839844 L 440.867188 93.300781 L 431.867188 93.300781 L 432.140625 78.179688 L 431.507812 77.640625 C 425.390625 79.441406 423.769531 79.890625 417.378906 81.511719 L 417.019531 82.140625 L 417.109375 93.390625 L 412.25 93.210938 L 411.710938 93.660156 L 410.898438 103.289062 L 411.4375 103.828125 L 417.109375 103.648438 L 416.839844 117.960938 C 416.75 120.210938 416.660156 122.460938 416.660156 124.800781 C 416.660156 133.078125 416.839844 141.988281 430.878906 141.988281 C 434.390625 141.988281 437.179688 141.449219 440.328125 140.910156 L 440.960938 140.28125 L 441.859375 131.011719 Z M 487.847656 114.179688 C 487.9375 106.078125 487.9375 102.570312 485.597656 98.789062 C 483.796875 95.910156 480.199219 92.308594 468.679688 92.308594 C 460.9375 92.308594 456.167969 93.75 451.039062 95.28125 L 450.5 96 L 450.046875 105.808594 L 450.769531 106.171875 C 453.917969 104.910156 459.769531 102.570312 465.796875 102.570312 C 469.128906 102.570312 470.476562 103.109375 471.648438 104.28125 C 472.546875 105.179688 472.820312 106.800781 472.820312 108.148438 C 462.019531 109.589844 456.976562 110.578125 451.578125 113.910156 C 446.539062 117.058594 444.828125 122.191406 444.828125 126.238281 C 444.828125 135.871094 451.757812 142.078125 460.578125 142.078125 C 467.328125 142.078125 471.199219 138.839844 473.089844 137.308594 L 473.089844 140.640625 L 473.628906 141.269531 C 480.109375 141 482.089844 140.910156 487.9375 141 L 488.386719 140.371094 C 487.757812 131.550781 487.757812 129.300781 487.757812 120.839844 L 487.847656 114.179688 M 473 128.488281 C 471.109375 129.570312 468.679688 130.828125 465.707031 130.828125 C 462.46875 130.828125 459.769531 129.121094 459.769531 125.339844 C 459.769531 119.398438 466.878906 118.410156 473 117.601562 Z M 523.582031 130.648438 C 522.050781 131.101562 520.96875 131.460938 519.441406 131.460938 C 514.851562 131.460938 514.492188 128.578125 514.308594 127.230469 C 514.039062 124.890625 514.039062 119.941406 514.128906 116.339844 L 514.308594 103.648438 L 522.410156 104.011719 L 522.949219 103.46875 L 523.851562 93.839844 L 523.308594 93.300781 L 514.308594 93.300781 L 514.582031 78.179688 L 513.949219 77.640625 C 507.832031 79.441406 506.210938 79.890625 499.820312 81.511719 L 499.460938 82.140625 L 499.550781 93.390625 L 494.691406 93.210938 L 494.152344 93.660156 L 493.339844 103.289062 L 493.878906 103.828125 L 499.550781 103.648438 L 499.28125 117.960938 C 499.191406 120.210938 499.101562 122.460938 499.101562 124.800781 C 499.101562 133.078125 499.28125 141.988281 513.320312 141.988281 C 516.832031 141.988281 519.621094 141.449219 522.769531 140.910156 L 523.402344 140.28125 L 524.300781 131.011719 Z M 570.199219 127.679688 C 566.78125 129.480469 562.730469 131.550781 556.160156 131.550781 C 550.761719 131.550781 547.070312 129.839844 544.910156 126.601562 C 543.558594 124.710938 543.289062 122.910156 542.929688 121.109375 L 572 120.570312 L 572.539062 119.941406 C 572.449219 115.53125 572.359375 111.03125 571.101562 106.53125 C 567.949219 95.910156 561.019531 93.75 557.960938 93.03125 C 555.710938 92.398438 553.640625 92.21875 551.570312 92.21875 C 537.441406 92.21875 528.078125 101.488281 528.078125 117.058594 C 528.078125 121.289062 528.800781 125.699219 530.238281 128.851562 C 535.460938 141 547.699219 142.078125 554.179688 142.078125 C 561.648438 142.078125 564.890625 140.730469 569.660156 138.839844 L 570.199219 138.121094 L 570.828125 127.949219 L 570.199219 127.679688 M 542.929688 111.570312 C 543.199219 108.78125 543.828125 105 547.25 102.839844 C 548.328125 102.121094 549.589844 101.851562 550.851562 101.851562 C 553.820312 101.851562 555.621094 103.378906 556.609375 105 C 557.871094 106.980469 557.960938 109.140625 557.960938 111.210938 Z M 661.007812 77.191406 C 653.808594 77.460938 652.640625 77.460938 645.078125 77.460938 L 644.628906 78 C 645.257812 88.171875 645.257812 90.78125 645.347656 101.398438 C 641.390625 101.488281 637.429688 101.578125 633.378906 101.578125 C 630.230469 101.578125 626.988281 101.488281 623.839844 101.488281 L 624.019531 77.730469 L 623.570312 77.191406 C 616.640625 77.460938 615.289062 77.460938 607.460938 77.460938 L 606.917969 78 C 607.371094 87.269531 607.910156 98.339844 607.910156 120.660156 C 607.910156 128.761719 607.730469 133.171875 607.550781 140.730469 L 608 141.269531 C 614.570312 141 616.1875 140.910156 624.109375 141 L 624.558594 140.460938 C 624.019531 129.300781 623.929688 126.058594 623.839844 113.011719 C 627.800781 112.828125 631.128906 112.738281 634.640625 112.738281 C 638.238281 112.738281 641.839844 112.828125 645.4375 112.921875 C 645.621094 125.070312 645.621094 128.039062 645.167969 140.730469 L 645.621094 141.269531 C 652.371094 141 654.167969 140.910156 661.820312 141 L 662.269531 140.460938 C 661.550781 125.339844 661.277344 110.308594 661.277344 95.191406 C 661.277344 88.890625 661.371094 84.660156 661.460938 77.730469 Z M 689 140.371094 C 688.546875 133.441406 688.1875 128.128906 688.1875 115.710938 C 688.1875 108.058594 688.367188 100.320312 688.457031 92.671875 L 687.828125 91.949219 L 672.347656 94.648438 L 671.808594 95.191406 C 672.527344 102.03125 672.796875 105.179688 672.796875 117.960938 C 672.796875 127.769531 672.527344 133.261719 672.257812 140.640625 L 672.796875 141.269531 C 679.277344 141 681.078125 140.910156 688.367188 141 L 689 140.371094 M 687.558594 83.308594 L 687.828125 71.070312 L 687.289062 70.53125 L 672.617188 72.328125 L 672.078125 72.960938 C 672.257812 76.199219 672.347656 78.089844 672.347656 80.25 C 672.347656 81.960938 672.347656 83.761719 672.257812 85.46875 L 672.886719 86.011719 C 679.007812 84.929688 680.71875 84.75 687.109375 83.941406 Z M 717.890625 109.949219 C 714.828125 108.871094 712.398438 107.878906 712.398438 105.359375 C 712.398438 104.28125 713.121094 101.308594 718.699219 101.308594 C 724.191406 101.308594 727.699219 103.648438 729.949219 105.089844 L 730.761719 104.820312 L 731.660156 95.011719 L 731.210938 94.46875 C 726.980469 93.300781 723.289062 92.21875 717.441406 92.21875 C 713.03125 92.21875 704.210938 92.578125 699.53125 99.328125 C 698.359375 100.949219 697.101562 103.648438 697.101562 107.25 C 697.101562 116.878906 704.570312 119.761719 708.800781 121.378906 L 712.21875 122.640625 C 714.648438 123.449219 718.609375 124.800781 718.609375 128.039062 C 718.609375 130.289062 716.539062 132.71875 711.5 132.71875 C 708.980469 132.71875 705.289062 131.910156 701.960938 130.199219 C 700.429688 129.390625 699.710938 128.761719 698.359375 127.679688 L 697.550781 128.039062 C 697.371094 132.71875 697.28125 133.710938 696.917969 138.210938 L 697.371094 139.019531 C 701.78125 140.640625 705.558594 142.078125 712.128906 142.078125 C 718.96875 142.078125 732.46875 140.820312 734.089844 127.949219 C 734.179688 127.230469 734.179688 126.601562 734.179688 125.96875 C 734.179688 116.070312 727.25 113.460938 722.300781 111.570312 Z M 767.300781 130.648438 C 765.769531 131.101562 764.6875 131.460938 763.160156 131.460938 C 758.570312 131.460938 758.210938 128.578125 758.027344 127.230469 C 757.757812 124.890625 757.757812 119.941406 757.847656 116.339844 L 758.027344 103.648438 L 766.128906 104.011719 L 766.667969 103.46875 L 767.570312 93.839844 L 767.027344 93.300781 L 758.027344 93.300781 L 758.300781 78.179688 L 757.667969 77.640625 C 751.550781 79.441406 749.929688 79.890625 743.539062 81.511719 L 743.179688 82.140625 L 743.269531 93.390625 L 738.410156 93.210938 L 737.871094 93.660156 L 737.058594 103.289062 L 737.597656 103.828125 L 743.269531 103.648438 L 743 117.960938 C 742.910156 120.210938 742.820312 122.460938 742.820312 124.800781 C 742.820312 133.078125 743 141.988281 757.039062 141.988281 C 760.550781 141.988281 763.339844 141.449219 766.488281 140.910156 L 767.121094 140.28125 L 768.019531 131.011719 Z M 819.769531 117.058594 C 819.769531 113.550781 819.769531 98.96875 807.167969 94.019531 C 803.207031 92.488281 798.527344 92.308594 796.1875 92.308594 C 780.527344 92.308594 771.707031 100.679688 771.707031 117.238281 C 771.707031 123 772.609375 128.851562 775.9375 133.710938 C 778.277344 137.21875 782.6875 142.078125 795.558594 142.078125 C 814.636719 142.078125 819.769531 130.558594 819.769531 117.058594 M 804.199219 116.96875 C 804.199219 124.351562 803.207031 132.539062 795.738281 132.539062 C 793.398438 132.539062 791.777344 131.460938 790.699219 130.46875 C 789.167969 128.941406 787.457031 125.878906 787.457031 117.148438 C 787.457031 114.539062 787.457031 108.78125 789.257812 105.628906 C 790.609375 103.199219 792.949219 101.578125 795.828125 101.578125 C 798.347656 101.578125 800.417969 102.929688 801.589844 104.371094 C 803.75 106.980469 804.199219 112.109375 804.199219 116.96875 Z M 854.328125 107.609375 L 856.847656 92.941406 L 856.308594 92.308594 C 855.679688 92.308594 855.046875 92.21875 854.417969 92.21875 C 850.726562 92.21875 846.589844 94.289062 843.707031 100.949219 L 843.976562 92.671875 L 843.257812 91.949219 C 836.597656 93.390625 834.886719 93.660156 828.316406 94.648438 L 827.777344 95.191406 C 828.316406 101.941406 828.589844 105.988281 828.589844 118.5 C 828.589844 125.878906 828.496094 133.261719 828.316406 140.730469 L 828.859375 141.269531 C 835.519531 141 836.957031 140.910156 844.15625 141 L 844.609375 140.371094 C 844.246094 133.078125 843.707031 122.910156 843.707031 116.699219 C 843.707031 112.648438 843.707031 106.710938 849.828125 106.710938 C 851.359375 106.710938 852.257812 107.25 853.519531 107.96875 Z M 878.359375 140.371094 C 877.90625 133.441406 877.546875 128.128906 877.546875 115.710938 C 877.546875 108.058594 877.726562 100.320312 877.816406 92.671875 L 877.1875 91.949219 L 861.707031 94.648438 L 861.167969 95.191406 C 861.886719 102.03125 862.15625 105.179688 862.15625 117.960938 C 862.15625 127.769531 861.886719 133.261719 861.617188 140.640625 L 862.15625 141.269531 C 868.636719 141 870.4375 140.910156 877.726562 141 L 878.359375 140.371094 M 876.917969 83.308594 L 877.1875 71.070312 L 876.648438 70.53125 L 861.976562 72.328125 L 861.4375 72.960938 C 861.617188 76.199219 861.707031 78.089844 861.707031 80.25 C 861.707031 81.960938 861.707031 83.761719 861.617188 85.46875 L 862.246094 86.011719 C 868.367188 84.929688 870.078125 84.75 876.46875 83.941406 Z M 923.539062 128.039062 C 921.109375 129.480469 918.769531 130.921875 914.179688 130.921875 C 904.007812 130.921875 901.9375 122.460938 901.9375 117.058594 C 901.9375 110.488281 904.820312 102.929688 913.550781 102.929688 C 917.507812 102.929688 919.667969 104.371094 922.371094 106.171875 L 923.269531 105.898438 C 923.628906 101.128906 923.71875 99.871094 924.4375 95.101562 L 923.988281 94.558594 C 920.027344 93.300781 916.609375 92.21875 911.390625 92.21875 C 890.238281 92.21875 886.097656 108.238281 886.097656 117.421875 C 886.097656 127.769531 891.5 141.808594 911.75 141.808594 C 916.519531 141.808594 919.578125 140.910156 923.359375 139.828125 L 923.898438 139.289062 L 924.257812 128.488281 Z M 926.058594 141 "/>
<path fill-rule="nonzero" fill="rgb(34.901961%, 14.901961%, 14.901961%)" fill-opacity="1" d="M 411.53125 197.28125 L 400.101562 197.460938 L 399.558594 198 C 399.921875 209.699219 400.191406 217.53125 400.191406 227.878906 C 400.191406 238.859375 399.921875 249.75 399.648438 260.730469 L 400.191406 261.269531 C 406.851562 261 408.289062 260.910156 415.492188 261 L 415.941406 260.460938 C 415.582031 250.648438 415.582031 248.398438 415.582031 239.21875 C 425.660156 239.308594 436.460938 239.308594 442.941406 231.390625 C 445.460938 228.328125 447.621094 223.199219 447.621094 216.898438 C 447.621094 213.03125 446.71875 204.480469 439.25 200.25 C 433.851562 197.101562 426.199219 197.101562 419.449219 197.101562 L 411.53125 197.28125 M 415.582031 208.171875 C 417.558594 208.078125 419.449219 208.078125 421.429688 208.078125 C 429.351562 208.261719 431.511719 212.308594 431.511719 217.53125 C 431.511719 218.789062 431.511719 224.011719 426.742188 226.621094 C 424.308594 227.96875 420.980469 228.148438 415.582031 228.148438 Z M 493.878906 234.179688 C 493.96875 226.078125 493.96875 222.570312 491.628906 218.789062 C 489.828125 215.910156 486.230469 212.308594 474.710938 212.308594 C 466.96875 212.308594 462.199219 213.75 457.070312 215.28125 L 456.53125 216 L 456.078125 225.808594 L 456.800781 226.171875 C 459.949219 224.910156 465.800781 222.570312 471.828125 222.570312 C 475.160156 222.570312 476.507812 223.109375 477.679688 224.28125 C 478.578125 225.179688 478.851562 226.800781 478.851562 228.148438 C 468.050781 229.589844 463.007812 230.578125 457.609375 233.910156 C 452.570312 237.058594 450.859375 242.191406 450.859375 246.238281 C 450.859375 255.871094 457.789062 262.078125 466.609375 262.078125 C 473.359375 262.078125 477.230469 258.839844 479.121094 257.308594 L 479.121094 260.640625 L 479.660156 261.269531 C 486.140625 261 488.121094 260.910156 493.96875 261 L 494.417969 260.371094 C 493.789062 251.550781 493.789062 249.300781 493.789062 240.839844 L 493.878906 234.179688 M 479.03125 248.488281 C 477.140625 249.570312 474.710938 250.828125 471.738281 250.828125 C 468.5 250.828125 465.800781 249.121094 465.800781 245.339844 C 465.800781 239.398438 472.910156 238.410156 479.03125 237.601562 Z M 530.421875 227.609375 L 532.941406 212.941406 L 532.402344 212.308594 C 531.773438 212.308594 531.140625 212.21875 530.511719 212.21875 C 526.820312 212.21875 522.683594 214.289062 519.800781 220.949219 L 520.070312 212.671875 L 519.351562 211.949219 C 512.691406 213.390625 510.980469 213.660156 504.410156 214.648438 L 503.871094 215.191406 C 504.410156 221.941406 504.683594 225.988281 504.683594 238.5 C 504.683594 245.878906 504.589844 253.261719 504.410156 260.730469 L 504.953125 261.269531 C 511.613281 261 513.050781 260.910156 520.25 261 L 520.703125 260.371094 C 520.339844 253.078125 519.800781 242.910156 519.800781 236.699219 C 519.800781 232.648438 519.800781 226.710938 525.921875 226.710938 C 527.453125 226.710938 528.351562 227.25 529.613281 227.96875 Z M 584.421875 259.828125 C 575.960938 245.519531 575.0625 243.898438 568.222656 231.570312 C 574.433594 223.109375 575.0625 222.210938 581.453125 214.019531 L 581 213.121094 L 566.332031 213.300781 L 565.433594 213.929688 C 558.410156 226.078125 557.511719 227.519531 553.371094 233.730469 L 553.371094 223.738281 C 553.460938 206.910156 553.550781 203.308594 554 189.71875 L 553.28125 189.179688 L 537.621094 191.519531 L 537.082031 192.148438 C 537.710938 200.878906 537.980469 205.109375 538.160156 216.898438 C 538.339844 231.480469 538.339844 246.058594 538.25 260.640625 L 538.882812 261.269531 C 544.910156 261 546.621094 261 553.460938 261 L 554 260.371094 L 553.460938 245.160156 L 553.371094 234.808594 C 561.203125 249.210938 562.191406 251.191406 566.78125 260.730469 L 567.589844 261.269531 L 583.792969 260.640625 Z M 583.339844 261 "/>
</svg>
