<?xml version="1.0" encoding="UTF-8"?>
<svg xmlns="http://www.w3.org/2000/svg" xmlns:xlink="http://www.w3.org/1999/xlink" width="975" height="1300" viewBox="0 0 975 1300">
<path fill-rule="nonzero" fill="rgb(98.823529%, 78.823529%, 9.019608%)" fill-opacity="1" d="M 50 50 L 925 50 L 925 410 L 50 410 Z M 50 50 "/>
<path fill-rule="nonzero" fill="rgb(34.901961%, 14.901961%, 14.901961%)" fill-opacity="1" d="M 209.613281 140.460938 C 212.945312 124.078125 214.386719 117.238281 223.925781 77.730469 L 223.476562 77.191406 C 217.085938 77.460938 215.824219 77.460938 209.796875 77.460938 L 209.253906 78 C 207.816406 87.269531 207.363281 90.421875 205.386719 100.769531 L 202.773438 114.539062 L 199.894531 130.019531 C 198.546875 119.941406 198.09375 116.878906 196.296875 106.441406 L 193.683594 91.320312 L 191.433594 77.460938 L 190.894531 76.828125 L 173.074219 77.28125 L 172.535156 77.820312 L 168.933594 98.519531 L 165.425781 116.96875 L 163.175781 129.390625 C 162.09375 121.558594 161.734375 118.949219 159.84375 108.058594 L 157.503906 94.921875 L 154.535156 77.101562 L 153.996094 76.648438 C 146.253906 77.191406 144.996094 77.191406 138.425781 77.371094 L 137.976562 78 C 144.546875 107.789062 145.984375 114.628906 150.84375 140.730469 L 151.386719 141.269531 C 160.476562 140.910156 162.90625 140.910156 171.726562 141 L 172.355469 140.460938 L 174.246094 129.300781 L 177.214844 112.828125 L 180.457031 93.570312 C 181.535156 102.390625 181.804688 104.640625 183.425781 114.359375 L 185.675781 128.398438 L 187.566406 140.730469 L 188.015625 141.269531 C 196.65625 141 199.625 140.910156 209.164062 141 Z M 274.417969 117.058594 C 274.417969 113.550781 274.417969 98.96875 261.816406 94.019531 C 257.855469 92.488281 253.175781 92.308594 250.835938 92.308594 C 235.175781 92.308594 226.355469 100.679688 226.355469 117.238281 C 226.355469 123 227.257812 128.851562 230.585938 133.710938 C 232.925781 137.21875 237.335938 142.078125 250.207031 142.078125 C 269.285156 142.078125 274.417969 130.558594 274.417969 117.058594 M 258.847656 116.96875 C 258.847656 124.351562 257.855469 132.539062 250.386719 132.539062 C 248.046875 132.539062 246.425781 131.460938 245.347656 130.46875 C 243.816406 128.941406 242.105469 125.878906 242.105469 117.148438 C 242.105469 114.539062 242.105469 108.78125 243.90625 105.628906 C 245.257812 103.199219 247.597656 101.578125 250.476562 101.578125 C 252.996094 101.578125 255.066406 102.929688 256.238281 104.371094 C 258.398438 106.980469 258.847656 112.109375 258.847656 116.96875 Z M 328.777344 117.058594 C 328.777344 113.550781 328.777344 98.96875 316.175781 94.019531 C 312.214844 92.488281 307.535156 92.308594 305.195312 92.308594 C 289.535156 92.308594 280.714844 100.679688 280.714844 117.238281 C 280.714844 123 281.617188 128.851562 284.945312 133.710938 C 287.285156 137.21875 291.695312 142.078125 304.566406 142.078125 C 323.644531 142.078125 328.777344 130.558594 328.777344 117.058594 M 313.207031 116.96875 C 313.207031 124.351562 312.214844 132.539062 304.746094 132.539062 C 302.40625 132.539062 300.785156 131.460938 299.707031 130.46875 C 298.175781 128.941406 296.464844 125.878906 296.464844 117.148438 C 296.464844 114.539062 296.464844 108.78125 298.265625 105.628906 C 299.617188 103.199219 301.957031 101.578125 304.835938 101.578125 C 307.355469 101.578125 309.425781 102.929688 310.597656 104.371094 C 312.757812 106.980469 313.207031 112.109375 313.207031 116.96875 Z M 381.425781 140.460938 C 381.066406 132.359375 380.796875 126.960938 380.796875 115.171875 C 380.796875 91.410156 381.15625 81.601562 381.515625 69.71875 L 380.886719 69.179688 L 366.035156 71.519531 L 365.585938 72.058594 C 366.125 80.519531 366.214844 82.769531 366.125 93.03125 C 359.375 92.851562 350.914062 92.671875 344.074219 98.070312 C 337.777344 102.929688 335.164062 110.398438 335.164062 119.671875 C 335.164062 126.691406 337.054688 133.710938 342.367188 138.121094 C 346.324219 141.359375 351.1875 142.078125 354.15625 142.078125 C 360.546875 142.078125 363.875 139.109375 366.035156 137.21875 L 365.855469 140.730469 L 366.304688 141.269531 C 372.515625 141 374.226562 141 380.976562 141 L 381.425781 140.460938 M 366.125 103.828125 C 366.214844 115.800781 366.125 118.140625 365.855469 129.03125 C 364.054688 130.109375 362.253906 131.191406 359.734375 131.191406 C 351.003906 131.191406 351.003906 120.03125 351.003906 118.230469 C 351.003906 111.300781 352.984375 103.558594 363.066406 103.558594 C 364.054688 103.558594 364.867188 103.648438 366.125 103.828125 Z M 410.585938 109.949219 C 407.523438 108.871094 405.09375 107.878906 405.09375 105.359375 C 405.09375 104.28125 405.816406 101.308594 411.394531 101.308594 C 416.886719 101.308594 420.394531 103.648438 422.644531 105.089844 L 423.457031 104.820312 L 424.355469 95.011719 L 423.90625 94.46875 C 419.675781 93.300781 415.984375 92.21875 410.136719 92.21875 C 405.726562 92.21875 396.90625 92.578125 392.226562 99.328125 C 391.054688 100.949219 389.796875 103.648438 389.796875 107.25 C 389.796875 116.878906 397.265625 119.761719 401.496094 121.378906 L 404.914062 122.640625 C 407.34375 123.449219 411.304688 124.800781 411.304688 128.039062 C 411.304688 130.289062 409.234375 132.71875 404.195312 132.71875 C 401.675781 132.71875 397.984375 131.910156 394.65625 130.199219 C 393.125 129.390625 392.40625 128.761719 391.054688 127.679688 L 390.246094 128.039062 C 390.066406 132.71875 389.976562 133.710938 389.613281 138.210938 L 390.066406 139.019531 C 394.476562 140.640625 398.253906 142.078125 404.824219 142.078125 C 411.664062 142.078125 425.164062 140.820312 426.785156 127.949219 C 426.875 127.230469 426.875 126.601562 426.875 125.96875 C 426.875 116.070312 419.945312 113.460938 414.996094 111.570312 Z M 480.605469 117.058594 C 480.605469 113.550781 480.605469 98.96875 468.003906 94.019531 C 464.042969 92.488281 459.363281 92.308594 457.023438 92.308594 C 441.363281 92.308594 432.542969 100.679688 432.542969 117.238281 C 432.542969 123 433.445312 128.851562 436.773438 133.710938 C 439.113281 137.21875 443.523438 142.078125 456.394531 142.078125 C 475.472656 142.078125 480.605469 130.558594 480.605469 117.058594 M 465.035156 116.96875 C 465.035156 124.351562 464.042969 132.539062 456.574219 132.539062 C 454.234375 132.539062 452.613281 131.460938 451.535156 130.46875 C 450.003906 128.941406 448.292969 125.878906 448.292969 117.148438 C 448.292969 114.539062 448.292969 108.78125 450.09375 105.628906 C 451.445312 103.199219 453.785156 101.578125 456.664062 101.578125 C 459.183594 101.578125 461.253906 102.929688 462.425781 104.371094 C 464.585938 106.980469 465.035156 112.109375 465.035156 116.96875 Z M 533.253906 140.371094 C 532.804688 132.449219 532.804688 129.929688 532.625 121.109375 L 532.625 114.089844 C 532.535156 105.449219 532.445312 101.308594 530.195312 97.621094 C 527.402344 92.941406 522.273438 92.21875 519.035156 92.21875 C 513.542969 92.21875 508.773438 95.101562 504.632812 97.53125 L 504.8125 92.578125 L 503.914062 91.949219 C 496.984375 93.390625 495.453125 93.660156 488.703125 94.558594 L 488.164062 95.191406 C 488.882812 103.019531 489.425781 108.691406 489.425781 123.359375 C 489.425781 129.121094 489.332031 134.878906 489.242188 140.640625 L 489.785156 141.179688 C 496.265625 140.910156 497.613281 140.910156 504.8125 140.910156 L 505.355469 140.371094 C 504.8125 126.511719 504.722656 123 504.632812 106.890625 C 506.523438 105.628906 508.683594 104.101562 511.5625 104.101562 C 516.515625 104.101562 516.964844 109.410156 517.234375 112.648438 C 517.414062 115.621094 517.503906 127.949219 517.503906 131.371094 C 517.503906 134.429688 517.414062 137.578125 517.414062 140.640625 L 517.953125 141.179688 C 523.894531 141 525.425781 140.910156 532.625 140.910156 Z M 586.535156 141 C 594.90625 141.179688 605.253906 141.359375 612.003906 136.679688 C 617.945312 132.449219 619.566406 126.511719 619.566406 121.46875 C 619.566406 115.710938 617.132812 110.398438 612.003906 107.878906 C 610.292969 106.980469 608.316406 106.621094 606.425781 106.261719 C 609.484375 105 613.085938 103.378906 615.425781 98.609375 C 616.414062 96.539062 616.863281 94.378906 616.863281 92.308594 C 616.863281 89.429688 616.144531 85.46875 613.265625 82.230469 C 609.484375 78.179688 603.632812 77.101562 594.816406 77.101562 C 591.753906 77.101562 586.265625 77.191406 583.203125 77.28125 L 570.605469 77.460938 L 570.066406 78 C 570.425781 86.640625 570.515625 89.96875 570.515625 102.390625 C 570.515625 115.171875 570.425781 127.859375 570.246094 140.640625 L 570.875 141 L 586.535156 141 M 585.90625 113.640625 C 592.746094 113.460938 596.703125 113.460938 599.316406 114.988281 C 601.925781 116.609375 602.914062 119.488281 602.914062 122.371094 C 602.914062 126.421875 600.664062 128.941406 597.335938 130.109375 C 594.632812 131.011719 589.773438 131.011719 585.90625 130.921875 L 585.90625 113.640625 M 585.90625 87.179688 C 587.792969 87.179688 590.316406 87.089844 591.84375 87.089844 C 596.703125 87.089844 601.113281 88.800781 601.113281 94.648438 C 601.113281 99.421875 597.605469 101.398438 596.523438 101.941406 C 594.273438 102.929688 589.503906 102.929688 585.90625 102.929688 Z M 653.945312 107.609375 L 656.464844 92.941406 L 655.925781 92.308594 C 655.296875 92.308594 654.664062 92.21875 654.035156 92.21875 C 650.34375 92.21875 646.207031 94.289062 643.324219 100.949219 L 643.59375 92.671875 L 642.875 91.949219 C 636.214844 93.390625 634.503906 93.660156 627.933594 94.648438 L 627.394531 95.191406 C 627.933594 101.941406 628.207031 105.988281 628.207031 118.5 C 628.207031 125.878906 628.113281 133.261719 627.933594 140.730469 L 628.476562 141.269531 C 635.136719 141 636.574219 140.910156 643.773438 141 L 644.226562 140.371094 C 643.863281 133.078125 643.324219 122.910156 643.324219 116.699219 C 643.324219 112.648438 643.324219 106.710938 649.445312 106.710938 C 650.976562 106.710938 651.875 107.25 653.136719 107.96875 Z M 677.976562 140.371094 C 677.523438 133.441406 677.164062 128.128906 677.164062 115.710938 C 677.164062 108.058594 677.34375 100.320312 677.433594 92.671875 L 676.804688 91.949219 L 661.324219 94.648438 L 660.785156 95.191406 C 661.503906 102.03125 661.773438 105.179688 661.773438 117.960938 C 661.773438 127.769531 661.503906 133.261719 661.234375 140.640625 L 661.773438 141.269531 C 668.253906 141 670.054688 140.910156 677.34375 141 L 677.976562 140.371094 M 676.535156 83.308594 L 676.804688 71.070312 L 676.265625 70.53125 L 661.59375 72.328125 L 661.054688 72.960938 C 661.234375 76.199219 661.324219 78.089844 661.324219 80.25 C 661.324219 81.960938 661.324219 83.761719 661.234375 85.46875 L 661.863281 86.011719 C 667.984375 84.929688 669.695312 84.75 676.085938 83.941406 Z M 732.066406 140.460938 C 731.707031 132.359375 731.4375 126.960938 731.4375 115.171875 C 731.4375 91.410156 731.796875 81.601562 732.15625 69.71875 L 731.527344 69.179688 L 716.675781 71.519531 L 716.226562 72.058594 C 716.765625 80.519531 716.855469 82.769531 716.765625 93.03125 C 710.015625 92.851562 701.554688 92.671875 694.714844 98.070312 C 688.417969 102.929688 685.804688 110.398438 685.804688 119.671875 C 685.804688 126.691406 687.695312 133.710938 693.007812 138.121094 C 696.964844 141.359375 701.828125 142.078125 704.796875 142.078125 C 711.1875 142.078125 714.515625 139.109375 716.675781 137.21875 L 716.496094 140.730469 L 716.945312 141.269531 C 723.15625 141 724.867188 141 731.617188 141 L 732.066406 140.460938 M 716.765625 103.828125 C 716.855469 115.800781 716.765625 118.140625 716.496094 129.03125 C 714.695312 130.109375 712.894531 131.191406 710.375 131.191406 C 701.644531 131.191406 701.644531 120.03125 701.644531 118.230469 C 701.644531 111.300781 703.625 103.558594 713.707031 103.558594 C 714.695312 103.558594 715.507812 103.648438 716.765625 103.828125 Z M 758.886719 125.789062 C 761.765625 125.878906 764.644531 126.058594 768.964844 124.621094 C 773.644531 123 780.484375 119.128906 780.484375 110.398438 C 780.484375 106.078125 779.226562 104.28125 778.054688 102.570312 L 784.265625 102.929688 L 784.804688 102.480469 L 785.4375 93.480469 L 784.894531 93.03125 C 777.964844 93.300781 776.074219 93.390625 770.40625 93.300781 L 766.265625 93.210938 C 759.875 93.03125 751.324219 92.851562 745.476562 97.710938 C 743.496094 99.238281 739.714844 103.109375 739.714844 109.859375 C 739.714844 113.460938 740.707031 116.339844 742.324219 118.589844 C 744.304688 121.378906 746.105469 122.371094 748.355469 123.628906 C 745.835938 128.488281 744.484375 130.921875 742.414062 134.609375 L 742.414062 135.421875 L 746.195312 138.121094 C 743.496094 140.191406 739.265625 143.609375 739.265625 149.460938 C 739.265625 153.601562 741.515625 157.199219 744.847656 159.628906 C 749.886719 163.230469 756.726562 163.410156 760.234375 163.410156 C 776.707031 163.410156 784.265625 155.128906 784.265625 146.398438 C 784.265625 135.058594 774.367188 132.898438 768.515625 131.550781 L 766.355469 131.191406 C 761.945312 130.46875 760.957031 130.199219 757.445312 128.941406 L 758.886719 125.789062 M 766.265625 109.589844 C 766.175781 116.878906 761.765625 117.511719 760.503906 117.511719 C 759.785156 117.511719 756.636719 117.328125 755.105469 113.730469 C 754.296875 111.839844 754.296875 109.679688 754.296875 109.050781 C 754.296875 104.550781 756.996094 101.671875 760.324219 101.671875 C 764.464844 101.671875 766.355469 105.628906 766.265625 109.589844 M 758.617188 143.160156 C 766.625 145.230469 766.714844 145.230469 767.796875 146.128906 C 768.695312 146.761719 769.597656 147.75 769.597656 149.640625 C 769.597656 152.339844 767.347656 155.128906 761.40625 155.128906 C 754.746094 155.128906 752.496094 151.351562 752.496094 148.199219 C 752.496094 145.230469 754.027344 143.519531 755.105469 142.261719 Z M 831.066406 127.679688 C 827.648438 129.480469 823.597656 131.550781 817.027344 131.550781 C 811.628906 131.550781 807.9375 129.839844 805.777344 126.601562 C 804.425781 124.710938 804.15625 122.910156 803.796875 121.109375 L 832.867188 120.570312 L 833.40625 119.941406 C 833.316406 115.53125 833.226562 111.03125 831.96875 106.53125 C 828.816406 95.910156 821.886719 93.75 818.828125 93.03125 C 816.578125 92.398438 814.507812 92.21875 812.4375 92.21875 C 798.308594 92.21875 788.945312 101.488281 788.945312 117.058594 C 788.945312 121.289062 789.667969 125.699219 791.105469 128.851562 C 796.328125 141 808.566406 142.078125 815.046875 142.078125 C 822.515625 142.078125 825.757812 140.730469 830.527344 138.839844 L 831.066406 138.121094 L 831.695312 127.949219 L 831.066406 127.679688 M 803.796875 111.570312 C 804.066406 108.78125 804.695312 105 808.117188 102.839844 C 809.195312 102.121094 810.457031 101.851562 811.71875 101.851562 C 814.6875 101.851562 816.488281 103.378906 817.476562 105 C 818.738281 106.980469 818.828125 109.140625 818.828125 111.210938 Z M 836.285156 141 "/>
<path fill-rule="nonzero" fill="rgb(34.901961%, 14.901961%, 14.901961%)" fill-opacity="1" d="M 175.640625 222.300781 C 168.082031 219.148438 164.121094 217.53125 164.121094 213.480469 C 164.121094 210.691406 166.730469 207.179688 172.671875 207.179688 C 179.511719 207.179688 183.558594 209.96875 186.890625 212.21875 L 187.699219 211.859375 L 188.421875 200.070312 L 187.96875 199.441406 C 184.101562 197.820312 180.050781 196.109375 171.320312 196.109375 C 154.402344 196.109375 148.550781 205.648438 148.550781 215.28125 C 148.550781 226.171875 157.011719 230.128906 162.050781 232.558594 L 165.019531 233.910156 C 171.230469 236.519531 176 238.769531 176 243.539062 C 176 246.960938 173.03125 251.011719 165.199219 251.011719 C 157.011719 251.011719 152.421875 247.410156 149.808594 245.339844 L 148.910156 245.609375 L 148.28125 258.300781 L 148.820312 259.019531 C 149.808594 259.378906 150.800781 259.828125 151.789062 260.101562 C 153.859375 260.820312 159.171875 262.351562 165.921875 262.351562 C 168.621094 262.351562 175.460938 262.078125 180.859375 259.558594 C 188.421875 255.871094 191.660156 249.03125 191.660156 241.378906 C 191.660156 236.25 189.679688 230.761719 184.910156 227.070312 C 182.480469 225.269531 180.140625 224.191406 177.980469 223.199219 Z M 225.410156 250.648438 C 223.878906 251.101562 222.796875 251.460938 221.269531 251.460938 C 216.679688 251.460938 216.320312 248.578125 216.136719 247.230469 C 215.867188 244.890625 215.867188 239.941406 215.957031 236.339844 L 216.136719 223.648438 L 224.238281 224.011719 L 224.777344 223.46875 L 225.679688 213.839844 L 225.136719 213.300781 L 216.136719 213.300781 L 216.410156 198.179688 L 215.777344 197.640625 C 209.660156 199.441406 208.039062 199.890625 201.648438 201.511719 L 201.289062 202.140625 L 201.378906 213.390625 L 196.519531 213.210938 L 195.980469 213.660156 L 195.167969 223.289062 L 195.707031 223.828125 L 201.378906 223.648438 L 201.109375 237.960938 C 201.019531 240.210938 200.929688 242.460938 200.929688 244.800781 C 200.929688 253.078125 201.109375 261.988281 215.148438 261.988281 C 218.660156 261.988281 221.449219 261.449219 224.597656 260.910156 L 225.230469 260.28125 L 226.128906 251.011719 Z M 272.121094 234.179688 C 272.210938 226.078125 272.210938 222.570312 269.871094 218.789062 C 268.070312 215.910156 264.472656 212.308594 252.953125 212.308594 C 245.210938 212.308594 240.441406 213.75 235.3125 215.28125 L 234.773438 216 L 234.320312 225.808594 L 235.042969 226.171875 C 238.191406 224.910156 244.042969 222.570312 250.070312 222.570312 C 253.402344 222.570312 254.75 223.109375 255.921875 224.28125 C 256.820312 225.179688 257.09375 226.800781 257.09375 228.148438 C 246.292969 229.589844 241.25 230.578125 235.851562 233.910156 C 230.8125 237.058594 229.101562 242.191406 229.101562 246.238281 C 229.101562 255.871094 236.03125 262.078125 244.851562 262.078125 C 251.601562 262.078125 255.472656 258.839844 257.363281 257.308594 L 257.363281 260.640625 L 257.902344 261.269531 C 264.382812 261 266.363281 260.910156 272.210938 261 L 272.660156 260.371094 C 272.03125 251.550781 272.03125 249.300781 272.03125 240.839844 L 272.121094 234.179688 M 257.273438 248.488281 C 255.382812 249.570312 252.953125 250.828125 249.980469 250.828125 C 246.742188 250.828125 244.042969 249.121094 244.042969 245.339844 C 244.042969 239.398438 251.152344 238.410156 257.273438 237.601562 Z M 307.851562 250.648438 C 306.320312 251.101562 305.238281 251.460938 303.710938 251.460938 C 299.121094 251.460938 298.761719 248.578125 298.578125 247.230469 C 298.308594 244.890625 298.308594 239.941406 298.398438 236.339844 L 298.578125 223.648438 L 306.679688 224.011719 L 307.21875 223.46875 L 308.121094 213.839844 L 307.578125 213.300781 L 298.578125 213.300781 L 298.851562 198.179688 L 298.21875 197.640625 C 292.101562 199.441406 290.480469 199.890625 284.089844 201.511719 L 283.730469 202.140625 L 283.820312 213.390625 L 278.960938 213.210938 L 278.421875 213.660156 L 277.609375 223.289062 L 278.148438 223.828125 L 283.820312 223.648438 L 283.550781 237.960938 C 283.460938 240.210938 283.371094 242.460938 283.371094 244.800781 C 283.371094 253.078125 283.550781 261.988281 297.589844 261.988281 C 301.101562 261.988281 303.890625 261.449219 307.039062 260.910156 L 307.671875 260.28125 L 308.570312 251.011719 Z M 354.46875 247.679688 C 351.050781 249.480469 347 251.550781 340.429688 251.550781 C 335.03125 251.550781 331.339844 249.839844 329.179688 246.601562 C 327.828125 244.710938 327.558594 242.910156 327.199219 241.109375 L 356.269531 240.570312 L 356.808594 239.941406 C 356.71875 235.53125 356.628906 231.03125 355.371094 226.53125 C 352.21875 215.910156 345.289062 213.75 342.230469 213.03125 C 339.980469 212.398438 337.910156 212.21875 335.839844 212.21875 C 321.710938 212.21875 312.347656 221.488281 312.347656 237.058594 C 312.347656 241.289062 313.070312 245.699219 314.507812 248.851562 C 319.730469 261 331.96875 262.078125 338.449219 262.078125 C 345.917969 262.078125 349.160156 260.730469 353.929688 258.839844 L 354.46875 258.121094 L 355.097656 247.949219 L 354.46875 247.679688 M 327.199219 231.570312 C 327.46875 228.78125 328.097656 225 331.519531 222.839844 C 332.597656 222.121094 333.859375 221.851562 335.121094 221.851562 C 338.089844 221.851562 339.890625 223.378906 340.878906 225 C 342.140625 226.980469 342.230469 229.140625 342.230469 231.210938 Z M 411.707031 236.25 C 417.738281 246.511719 419.089844 249.210938 424.847656 261 L 425.570312 261.449219 C 428.359375 261.269531 431.058594 261.089844 433.847656 261 C 436.640625 260.910156 439.519531 260.820312 442.308594 260.820312 L 442.847656 259.738281 C 439.429688 255.328125 438.4375 253.980469 431.957031 243.628906 C 429.078125 239.039062 427.640625 236.609375 425.390625 232.648438 C 429.4375 230.851562 437.628906 227.070312 437.628906 215.640625 C 437.628906 211.679688 436.546875 203.488281 429.167969 199.621094 C 424.488281 197.191406 419.628906 197.101562 409.097656 197.28125 L 402.796875 197.371094 L 391.820312 197.371094 L 391.367188 197.910156 C 391.730469 207 392.089844 216.359375 392.089844 240.839844 C 392.089844 249.210938 392 253.261719 391.730469 260.730469 L 392.269531 261.269531 C 398.839844 261 400.277344 260.910156 407.660156 261 L 408.199219 260.460938 C 407.480469 250.019531 407.390625 247.140625 407.296875 236.429688 L 411.707031 236.25 M 407.480469 208.261719 C 408.738281 208.171875 410 208.171875 411.257812 208.171875 C 414.769531 208.171875 421.699219 208.171875 421.699219 216.089844 C 421.699219 218.609375 421.070312 221.941406 417.738281 224.011719 C 415.21875 225.539062 411.980469 225.71875 407.480469 225.808594 Z M 487.578125 247.679688 C 484.160156 249.480469 480.109375 251.550781 473.539062 251.550781 C 468.140625 251.550781 464.449219 249.839844 462.289062 246.601562 C 460.9375 244.710938 460.667969 242.910156 460.308594 241.109375 L 489.378906 240.570312 L 489.917969 239.941406 C 489.828125 235.53125 489.738281 231.03125 488.480469 226.53125 C 485.328125 215.910156 478.398438 213.75 475.339844 213.03125 C 473.089844 212.398438 471.019531 212.21875 468.949219 212.21875 C 454.820312 212.21875 445.457031 221.488281 445.457031 237.058594 C 445.457031 241.289062 446.179688 245.699219 447.617188 248.851562 C 452.839844 261 465.078125 262.078125 471.558594 262.078125 C 479.027344 262.078125 482.269531 260.730469 487.039062 258.839844 L 487.578125 258.121094 L 488.207031 247.949219 L 487.578125 247.679688 M 460.308594 231.570312 C 460.578125 228.78125 461.207031 225 464.628906 222.839844 C 465.707031 222.121094 466.96875 221.851562 468.230469 221.851562 C 471.199219 221.851562 473 223.378906 473.988281 225 C 475.25 226.980469 475.339844 229.140625 475.339844 231.210938 Z M 533.390625 248.039062 C 530.960938 249.480469 528.621094 250.921875 524.03125 250.921875 C 513.859375 250.921875 511.789062 242.460938 511.789062 237.058594 C 511.789062 230.488281 514.671875 222.929688 523.402344 222.929688 C 527.359375 222.929688 529.519531 224.371094 532.222656 226.171875 L 533.121094 225.898438 C 533.480469 221.128906 533.570312 219.871094 534.289062 215.101562 L 533.839844 214.558594 C 529.878906 213.300781 526.460938 212.21875 521.242188 212.21875 C 500.089844 212.21875 495.949219 228.238281 495.949219 237.421875 C 495.949219 247.769531 501.351562 261.808594 521.601562 261.808594 C 526.371094 261.808594 529.429688 260.910156 533.210938 259.828125 L 533.75 259.289062 L 534.109375 248.488281 Z M 567.320312 227.609375 L 569.839844 212.941406 L 569.300781 212.308594 C 568.671875 212.308594 568.039062 212.21875 567.410156 212.21875 C 563.71875 212.21875 559.582031 214.289062 556.699219 220.949219 L 556.96875 212.671875 L 556.25 211.949219 C 549.589844 213.390625 547.878906 213.660156 541.308594 214.648438 L 540.769531 215.191406 C 541.308594 221.941406 541.582031 225.988281 541.582031 238.5 C 541.582031 245.878906 541.488281 253.261719 541.308594 260.730469 L 541.851562 261.269531 C 548.511719 261 549.949219 260.910156 557.148438 261 L 557.601562 260.371094 C 557.238281 253.078125 556.699219 242.910156 556.699219 236.699219 C 556.699219 232.648438 556.699219 226.710938 562.820312 226.710938 C 564.351562 226.710938 565.25 227.25 566.511719 227.96875 Z M 615.019531 247.679688 C 611.601562 249.480469 607.550781 251.550781 600.980469 251.550781 C 595.582031 251.550781 591.890625 249.839844 589.730469 246.601562 C 588.378906 244.710938 588.109375 242.910156 587.75 241.109375 L 616.820312 240.570312 L 617.359375 239.941406 C 617.269531 235.53125 617.179688 231.03125 615.921875 226.53125 C 612.769531 215.910156 605.839844 213.75 602.78125 213.03125 C 600.53125 212.398438 598.460938 212.21875 596.390625 212.21875 C 582.261719 212.21875 572.898438 221.488281 572.898438 237.058594 C 572.898438 241.289062 573.621094 245.699219 575.058594 248.851562 C 580.28125 261 592.519531 262.078125 599 262.078125 C 606.46875 262.078125 609.710938 260.730469 614.480469 258.839844 L 615.019531 258.121094 L 615.648438 247.949219 L 615.019531 247.679688 M 587.75 231.570312 C 588.019531 228.78125 588.648438 225 592.070312 222.839844 C 593.148438 222.121094 594.410156 221.851562 595.671875 221.851562 C 598.640625 221.851562 600.441406 223.378906 601.429688 225 C 602.691406 226.980469 602.78125 229.140625 602.78125 231.210938 Z M 665.691406 234.179688 C 665.78125 226.078125 665.78125 222.570312 663.441406 218.789062 C 661.640625 215.910156 658.042969 212.308594 646.523438 212.308594 C 638.78125 212.308594 634.011719 213.75 628.882812 215.28125 L 628.34375 216 L 627.890625 225.808594 L 628.613281 226.171875 C 631.761719 224.910156 637.613281 222.570312 643.640625 222.570312 C 646.972656 222.570312 648.320312 223.109375 649.492188 224.28125 C 650.390625 225.179688 650.664062 226.800781 650.664062 228.148438 C 639.863281 229.589844 634.820312 230.578125 629.421875 233.910156 C 624.382812 237.058594 622.671875 242.191406 622.671875 246.238281 C 622.671875 255.871094 629.601562 262.078125 638.421875 262.078125 C 645.171875 262.078125 649.042969 258.839844 650.933594 257.308594 L 650.933594 260.640625 L 651.472656 261.269531 C 657.953125 261 659.933594 260.910156 665.78125 261 L 666.230469 260.371094 C 665.601562 251.550781 665.601562 249.300781 665.601562 240.839844 L 665.691406 234.179688 M 650.84375 248.488281 C 648.953125 249.570312 646.523438 250.828125 643.550781 250.828125 C 640.3125 250.828125 637.613281 249.121094 637.613281 245.339844 C 637.613281 239.398438 644.722656 238.410156 650.84375 237.601562 Z M 701.421875 250.648438 C 699.890625 251.101562 698.808594 251.460938 697.28125 251.460938 C 692.691406 251.460938 692.332031 248.578125 692.148438 247.230469 C 691.878906 244.890625 691.878906 239.941406 691.96875 236.339844 L 692.148438 223.648438 L 700.25 224.011719 L 700.789062 223.46875 L 701.691406 213.839844 L 701.148438 213.300781 L 692.148438 213.300781 L 692.421875 198.179688 L 691.789062 197.640625 C 685.671875 199.441406 684.050781 199.890625 677.660156 201.511719 L 677.300781 202.140625 L 677.390625 213.390625 L 672.53125 213.210938 L 671.992188 213.660156 L 671.179688 223.289062 L 671.71875 223.828125 L 677.390625 223.648438 L 677.121094 237.960938 C 677.03125 240.210938 676.941406 242.460938 676.941406 244.800781 C 676.941406 253.078125 677.121094 261.988281 691.160156 261.988281 C 694.671875 261.988281 697.460938 261.449219 700.609375 260.910156 L 701.242188 260.28125 L 702.140625 251.011719 Z M 724.371094 260.371094 C 723.917969 253.441406 723.558594 248.128906 723.558594 235.710938 C 723.558594 228.058594 723.738281 220.320312 723.828125 212.671875 L 723.199219 211.949219 L 707.71875 214.648438 L 707.179688 215.191406 C 707.898438 222.03125 708.167969 225.179688 708.167969 237.960938 C 708.167969 247.769531 707.898438 253.261719 707.628906 260.640625 L 708.167969 261.269531 C 714.648438 261 716.449219 260.910156 723.738281 261 L 724.371094 260.371094 M 722.929688 203.308594 L 723.199219 191.070312 L 722.660156 190.53125 L 707.988281 192.328125 L 707.449219 192.960938 C 707.628906 196.199219 707.71875 198.089844 707.71875 200.25 C 707.71875 201.960938 707.71875 203.761719 707.628906 205.46875 L 708.257812 206.011719 C 714.378906 204.929688 716.089844 204.75 722.480469 203.941406 Z M 780.171875 237.058594 C 780.171875 233.550781 780.171875 218.96875 767.570312 214.019531 C 763.609375 212.488281 758.929688 212.308594 756.589844 212.308594 C 740.929688 212.308594 732.109375 220.679688 732.109375 237.238281 C 732.109375 243 733.011719 248.851562 736.339844 253.710938 C 738.679688 257.21875 743.089844 262.078125 755.960938 262.078125 C 775.039062 262.078125 780.171875 250.558594 780.171875 237.058594 M 764.601562 236.96875 C 764.601562 244.351562 763.609375 252.539062 756.140625 252.539062 C 753.800781 252.539062 752.179688 251.460938 751.101562 250.46875 C 749.570312 248.941406 747.859375 245.878906 747.859375 237.148438 C 747.859375 234.539062 747.859375 228.78125 749.660156 225.628906 C 751.011719 223.199219 753.351562 221.578125 756.230469 221.578125 C 758.75 221.578125 760.820312 222.929688 761.992188 224.371094 C 764.152344 226.980469 764.601562 232.109375 764.601562 236.96875 Z M 832.820312 260.371094 C 832.371094 252.449219 832.371094 249.929688 832.191406 241.109375 L 832.191406 234.089844 C 832.101562 225.449219 832.011719 221.308594 829.761719 217.621094 C 826.96875 212.941406 821.839844 212.21875 818.601562 212.21875 C 813.109375 212.21875 808.339844 215.101562 804.199219 217.53125 L 804.378906 212.578125 L 803.480469 211.949219 C 796.550781 213.390625 795.019531 213.660156 788.269531 214.558594 L 787.730469 215.191406 C 788.449219 223.019531 788.992188 228.691406 788.992188 243.359375 C 788.992188 249.121094 788.898438 254.878906 788.808594 260.640625 L 789.351562 261.179688 C 795.832031 260.910156 797.179688 260.910156 804.378906 260.910156 L 804.921875 260.371094 C 804.378906 246.511719 804.289062 243 804.199219 226.890625 C 806.089844 225.628906 808.25 224.101562 811.128906 224.101562 C 816.082031 224.101562 816.53125 229.410156 816.800781 232.648438 C 816.980469 235.621094 817.070312 247.949219 817.070312 251.371094 C 817.070312 254.429688 816.980469 257.578125 816.980469 260.640625 L 817.519531 261.179688 C 823.460938 261 824.992188 260.910156 832.191406 260.910156 Z M 837.679688 261 "/>
<path fill-rule="nonzero" fill="rgb(34.901961%, 14.901961%, 14.901961%)" fill-opacity="1" d="M 433.175781 317.191406 C 424.535156 317.460938 422.734375 317.460938 413.105469 317.460938 L 412.472656 318 C 407.703125 333.300781 404.824219 342.390625 391.59375 380.371094 L 391.953125 381 L 405.992188 381 L 406.625 380.460938 L 411.035156 364.078125 L 430.472656 364.078125 L 434.34375 380.730469 L 434.972656 381.269531 C 441.542969 381 443.34375 380.910156 450.632812 381 L 451.085938 380.28125 C 440.195312 341.761719 438.933594 337.53125 433.804688 317.730469 L 433.175781 317.191406 M 414.183594 353.191406 L 418.683594 337.980469 L 421.835938 327.449219 L 424.535156 339.148438 L 427.863281 353.191406 Z M 482.855469 347.609375 L 485.375 332.941406 L 484.835938 332.308594 C 484.207031 332.308594 483.574219 332.21875 482.945312 332.21875 C 479.253906 332.21875 475.117188 334.289062 472.234375 340.949219 L 472.503906 332.671875 L 471.785156 331.949219 C 465.125 333.390625 463.414062 333.660156 456.84375 334.648438 L 456.304688 335.191406 C 456.84375 341.941406 457.117188 345.988281 457.117188 358.5 C 457.117188 365.878906 457.023438 373.261719 456.84375 380.730469 L 457.386719 381.269531 C 464.046875 381 465.484375 380.910156 472.683594 381 L 473.136719 380.371094 C 472.773438 373.078125 472.234375 362.910156 472.234375 356.699219 C 472.234375 352.648438 472.234375 346.710938 478.355469 346.710938 C 479.886719 346.710938 480.785156 347.25 482.046875 347.96875 Z M 530.554688 367.679688 C 527.136719 369.480469 523.085938 371.550781 516.515625 371.550781 C 511.117188 371.550781 507.425781 369.839844 505.265625 366.601562 C 503.914062 364.710938 503.644531 362.910156 503.285156 361.109375 L 532.355469 360.570312 L 532.894531 359.941406 C 532.804688 355.53125 532.714844 351.03125 531.457031 346.53125 C 528.304688 335.910156 521.375 333.75 518.316406 333.03125 C 516.066406 332.398438 513.996094 332.21875 511.925781 332.21875 C 497.796875 332.21875 488.433594 341.488281 488.433594 357.058594 C 488.433594 361.289062 489.15625 365.699219 490.59375 368.851562 C 495.816406 381 508.054688 382.078125 514.535156 382.078125 C 522.003906 382.078125 525.246094 380.730469 530.015625 378.839844 L 530.554688 378.121094 L 531.183594 367.949219 L 530.554688 367.679688 M 503.285156 351.570312 C 503.554688 348.78125 504.183594 345 507.605469 342.839844 C 508.683594 342.121094 509.945312 341.851562 511.207031 341.851562 C 514.175781 341.851562 515.976562 343.378906 516.964844 345 C 518.226562 346.980469 518.316406 349.140625 518.316406 351.210938 Z M 581.222656 354.179688 C 581.3125 346.078125 581.3125 342.570312 578.972656 338.789062 C 577.171875 335.910156 573.574219 332.308594 562.054688 332.308594 C 554.3125 332.308594 549.542969 333.75 544.414062 335.28125 L 543.875 336 L 543.421875 345.808594 L 544.144531 346.171875 C 547.292969 344.910156 553.144531 342.570312 559.171875 342.570312 C 562.503906 342.570312 563.851562 343.109375 565.023438 344.28125 C 565.921875 345.179688 566.195312 346.800781 566.195312 348.148438 C 555.394531 349.589844 550.351562 350.578125 544.953125 353.910156 C 539.914062 357.058594 538.203125 362.191406 538.203125 366.238281 C 538.203125 375.871094 545.132812 382.078125 553.953125 382.078125 C 560.703125 382.078125 564.574219 378.839844 566.464844 377.308594 L 566.464844 380.640625 L 567.003906 381.269531 C 573.484375 381 575.464844 380.910156 581.3125 381 L 581.761719 380.371094 C 581.132812 371.550781 581.132812 369.300781 581.132812 360.839844 L 581.222656 354.179688 M 566.375 368.488281 C 564.484375 369.570312 562.054688 370.828125 559.082031 370.828125 C 555.84375 370.828125 553.144531 369.121094 553.144531 365.339844 C 553.144531 359.398438 560.253906 358.410156 566.375 357.601562 Z M 586.355469 381 "/>
</svg>
