<?xml version="1.0" encoding="UTF-8"?>
<svg xmlns="http://www.w3.org/2000/svg" xmlns:xlink="http://www.w3.org/1999/xlink" width="975" height="1300" viewBox="0 0 975 1300">
<path fill-rule="nonzero" fill="rgb(98.823529%, 78.823529%, 9.019608%)" fill-opacity="1" d="M 50 50 L 925 50 L 925 290 L 50 290 Z M 50 50 "/>
<path fill-rule="nonzero" fill="rgb(34.901961%, 14.901961%, 14.901961%)" fill-opacity="1" d="M 88.476562 141 C 96.847656 141.179688 107.195312 141.359375 113.945312 136.679688 C 119.886719 132.449219 121.507812 126.511719 121.507812 121.46875 C 121.507812 115.710938 119.074219 110.398438 113.945312 107.878906 C 112.234375 106.980469 110.257812 106.621094 108.367188 106.261719 C 111.425781 105 115.027344 103.378906 117.367188 98.609375 C 118.355469 96.539062 118.804688 94.378906 118.804688 92.308594 C 118.804688 89.429688 118.085938 85.46875 115.207031 82.230469 C 111.425781 78.179688 105.574219 77.101562 96.757812 77.101562 C 93.695312 77.101562 88.207031 77.191406 85.144531 77.28125 L 72.546875 77.460938 L 72.007812 78 C 72.367188 86.640625 72.457031 89.96875 72.457031 102.390625 C 72.457031 115.171875 72.367188 127.859375 72.1875 140.640625 L 72.816406 141 L 88.476562 141 M 87.847656 113.640625 C 94.6875 113.460938 98.644531 113.460938 101.257812 114.988281 C 103.867188 116.609375 104.855469 119.488281 104.855469 122.371094 C 104.855469 126.421875 102.605469 128.941406 99.277344 130.109375 C 96.574219 131.011719 91.714844 131.011719 87.847656 130.921875 L 87.847656 113.640625 M 87.847656 87.179688 C 89.734375 87.179688 92.257812 87.089844 93.785156 87.089844 C 98.644531 87.089844 103.054688 88.800781 103.054688 94.648438 C 103.054688 99.421875 99.546875 101.398438 98.464844 101.941406 C 96.214844 102.929688 91.445312 102.929688 87.847656 102.929688 Z M 146.167969 140.371094 C 145.714844 133.441406 145.355469 128.128906 145.355469 115.710938 C 145.355469 108.058594 145.535156 100.320312 145.625 92.671875 L 144.996094 91.949219 L 129.515625 94.648438 L 128.976562 95.191406 C 129.695312 102.03125 129.964844 105.179688 129.964844 117.960938 C 129.964844 127.769531 129.695312 133.261719 129.425781 140.640625 L 129.964844 141.269531 C 136.445312 141 138.246094 140.910156 145.535156 141 L 146.167969 140.371094 M 144.726562 83.308594 L 144.996094 71.070312 L 144.457031 70.53125 L 129.785156 72.328125 L 129.246094 72.960938 C 129.425781 76.199219 129.515625 78.089844 129.515625 80.25 C 129.515625 81.960938 129.515625 83.761719 129.425781 85.46875 L 130.054688 86.011719 C 136.175781 84.929688 137.886719 84.75 144.277344 83.941406 Z M 200.257812 140.460938 C 199.898438 132.359375 199.628906 126.960938 199.628906 115.171875 C 199.628906 91.410156 199.988281 81.601562 200.347656 69.71875 L 199.71875 69.179688 L 184.867188 71.519531 L 184.417969 72.058594 C 184.957031 80.519531 185.046875 82.769531 184.957031 93.03125 C 178.207031 92.851562 169.746094 92.671875 162.90625 98.070312 C 156.609375 102.929688 153.996094 110.398438 153.996094 119.671875 C 153.996094 126.691406 155.886719 133.710938 161.199219 138.121094 C 165.15625 141.359375 170.019531 142.078125 172.988281 142.078125 C 179.378906 142.078125 182.707031 139.109375 184.867188 137.21875 L 184.6875 140.730469 L 185.136719 141.269531 C 191.347656 141 193.058594 141 199.808594 141 L 200.257812 140.460938 M 184.957031 103.828125 C 185.046875 115.800781 184.957031 118.140625 184.6875 129.03125 C 182.886719 130.109375 181.085938 131.191406 178.566406 131.191406 C 169.835938 131.191406 169.835938 120.03125 169.835938 118.230469 C 169.835938 111.300781 171.816406 103.558594 181.898438 103.558594 C 182.886719 103.558594 183.699219 103.648438 184.957031 103.828125 Z M 266.136719 140.371094 C 269.738281 126.421875 270.367188 124.261719 275.765625 104.910156 C 276.847656 101.21875 277.835938 97.441406 278.828125 93.75 L 278.289062 93.03125 L 266.585938 93.300781 L 265.957031 93.929688 L 263.347656 107.429688 L 260.828125 118.320312 L 259.117188 126.601562 L 257.585938 118.589844 L 255.605469 109.230469 L 252.457031 93.660156 L 251.917969 93.03125 L 234.636719 93.300781 L 234.007812 93.929688 L 231.039062 108.691406 L 228.878906 118.589844 L 227.167969 126.871094 L 225.457031 117.960938 L 223.296875 108.238281 L 220.238281 93.300781 L 219.695312 92.851562 L 205.117188 93.929688 L 204.578125 94.648438 C 213.039062 124.351562 214.386719 129.660156 216.90625 140.730469 L 217.539062 141.269531 C 223.746094 141 225.996094 140.910156 234.277344 141 L 234.816406 140.371094 L 237.15625 129.390625 L 239.675781 118.5 L 241.925781 107.609375 L 243.277344 114.449219 L 244.628906 121.109375 L 248.40625 140.640625 L 249.039062 141.269531 C 255.695312 141 258.398438 140.910156 265.597656 141 Z M 323.554688 127.679688 C 320.136719 129.480469 316.085938 131.550781 309.515625 131.550781 C 304.117188 131.550781 300.425781 129.839844 298.265625 126.601562 C 296.914062 124.710938 296.644531 122.910156 296.285156 121.109375 L 325.355469 120.570312 L 325.894531 119.941406 C 325.804688 115.53125 325.714844 111.03125 324.457031 106.53125 C 321.304688 95.910156 314.375 93.75 311.316406 93.03125 C 309.066406 92.398438 306.996094 92.21875 304.925781 92.21875 C 290.796875 92.21875 281.433594 101.488281 281.433594 117.058594 C 281.433594 121.289062 282.15625 125.699219 283.59375 128.851562 C 288.816406 141 301.054688 142.078125 307.535156 142.078125 C 315.003906 142.078125 318.246094 140.730469 323.015625 138.839844 L 323.554688 138.121094 L 324.183594 127.949219 L 323.554688 127.679688 M 296.285156 111.570312 C 296.554688 108.78125 297.183594 105 300.605469 102.839844 C 301.683594 102.121094 302.945312 101.851562 304.207031 101.851562 C 307.175781 101.851562 308.976562 103.378906 309.964844 105 C 311.226562 106.980469 311.316406 109.140625 311.316406 111.210938 Z M 350.015625 140.371094 C 349.566406 130.019531 349.117188 120.570312 349.117188 92.128906 C 349.117188 83.578125 349.207031 79.53125 349.566406 69.808594 L 348.9375 69.179688 L 333.546875 71.609375 L 333.1875 72.148438 C 334.085938 83.128906 334.175781 86.101562 334.355469 100.679688 C 334.449219 105.988281 334.449219 111.300781 334.449219 116.609375 C 334.449219 126.328125 334.265625 131.730469 333.90625 140.640625 L 334.449219 141.269531 C 340.476562 141 342.90625 140.910156 349.476562 141 Z M 376.292969 140.371094 C 375.84375 130.019531 375.394531 120.570312 375.394531 92.128906 C 375.394531 83.578125 375.484375 79.53125 375.84375 69.808594 L 375.214844 69.179688 L 359.824219 71.609375 L 359.464844 72.148438 C 360.363281 83.128906 360.453125 86.101562 360.632812 100.679688 C 360.726562 105.988281 360.726562 111.300781 360.726562 116.609375 C 360.726562 126.328125 360.542969 131.730469 360.183594 140.640625 L 360.726562 141.269531 C 366.753906 141 369.183594 140.910156 375.753906 141 Z M 411.574219 109.769531 C 407.257812 109.859375 403.746094 109.949219 398.4375 109.949219 C 394.117188 109.949219 389.796875 109.859375 385.566406 109.859375 L 384.9375 110.398438 L 384.394531 120.75 L 384.847656 121.289062 C 389.886719 121.199219 392.855469 121.109375 397.625 121.109375 C 402.035156 121.109375 406.445312 121.199219 410.855469 121.199219 L 411.394531 120.660156 L 412.027344 110.21875 Z M 446.496094 102.300781 C 438.9375 99.148438 434.976562 97.53125 434.976562 93.480469 C 434.976562 90.691406 437.585938 87.179688 443.527344 87.179688 C 450.367188 87.179688 454.414062 89.96875 457.746094 92.21875 L 458.554688 91.859375 L 459.277344 80.070312 L 458.824219 79.441406 C 454.957031 77.820312 450.90625 76.109375 442.175781 76.109375 C 425.257812 76.109375 419.40625 85.648438 419.40625 95.28125 C 419.40625 106.171875 427.867188 110.128906 432.90625 112.558594 L 435.875 113.910156 C 442.085938 116.519531 446.855469 118.769531 446.855469 123.539062 C 446.855469 126.960938 443.886719 131.011719 436.054688 131.011719 C 427.867188 131.011719 423.277344 127.410156 420.664062 125.339844 L 419.765625 125.609375 L 419.136719 138.300781 L 419.675781 139.019531 C 420.664062 139.378906 421.65625 139.828125 422.644531 140.101562 C 424.714844 140.820312 430.027344 142.351562 436.777344 142.351562 C 439.476562 142.351562 446.316406 142.078125 451.714844 139.558594 C 459.277344 135.871094 462.515625 129.03125 462.515625 121.378906 C 462.515625 116.25 460.535156 110.761719 455.765625 107.070312 C 453.335938 105.269531 450.996094 104.191406 448.835938 103.199219 Z M 511.113281 114.179688 C 511.203125 106.078125 511.203125 102.570312 508.863281 98.789062 C 507.0625 95.910156 503.464844 92.308594 491.945312 92.308594 C 484.203125 92.308594 479.433594 93.75 474.304688 95.28125 L 473.765625 96 L 473.3125 105.808594 L 474.035156 106.171875 C 477.183594 104.910156 483.035156 102.570312 489.0625 102.570312 C 492.394531 102.570312 493.742188 103.109375 494.914062 104.28125 C 495.8125 105.179688 496.085938 106.800781 496.085938 108.148438 C 485.285156 109.589844 480.242188 110.578125 474.84375 113.910156 C 469.804688 117.058594 468.09375 122.191406 468.09375 126.238281 C 468.09375 135.871094 475.023438 142.078125 483.84375 142.078125 C 490.59375 142.078125 494.464844 138.839844 496.355469 137.308594 L 496.355469 140.640625 L 496.894531 141.269531 C 503.375 141 505.355469 140.910156 511.203125 141 L 511.652344 140.371094 C 511.023438 131.550781 511.023438 129.300781 511.023438 120.839844 L 511.113281 114.179688 M 496.265625 128.488281 C 494.375 129.570312 491.945312 130.828125 488.972656 130.828125 C 485.734375 130.828125 483.035156 129.121094 483.035156 125.339844 C 483.035156 119.398438 490.144531 118.410156 496.265625 117.601562 Z M 556.835938 128.039062 C 554.40625 129.480469 552.066406 130.921875 547.476562 130.921875 C 537.304688 130.921875 535.234375 122.460938 535.234375 117.058594 C 535.234375 110.488281 538.117188 102.929688 546.847656 102.929688 C 550.804688 102.929688 552.964844 104.371094 555.667969 106.171875 L 556.566406 105.898438 C 556.925781 101.128906 557.015625 99.871094 557.734375 95.101562 L 557.285156 94.558594 C 553.324219 93.300781 549.90625 92.21875 544.6875 92.21875 C 523.535156 92.21875 519.394531 108.238281 519.394531 117.421875 C 519.394531 127.769531 524.796875 141.808594 545.046875 141.808594 C 549.816406 141.808594 552.875 140.910156 556.65625 139.828125 L 557.195312 139.289062 L 557.554688 128.488281 Z M 590.765625 107.609375 L 593.285156 92.941406 L 592.746094 92.308594 C 592.117188 92.308594 591.484375 92.21875 590.855469 92.21875 C 587.164062 92.21875 583.027344 94.289062 580.144531 100.949219 L 580.414062 92.671875 L 579.695312 91.949219 C 573.035156 93.390625 571.324219 93.660156 564.753906 94.648438 L 564.214844 95.191406 C 564.753906 101.941406 565.027344 105.988281 565.027344 118.5 C 565.027344 125.878906 564.933594 133.261719 564.753906 140.730469 L 565.296875 141.269531 C 571.957031 141 573.394531 140.910156 580.59375 141 L 581.046875 140.371094 C 580.683594 133.078125 580.144531 122.910156 580.144531 116.699219 C 580.144531 112.648438 580.144531 106.710938 586.265625 106.710938 C 587.796875 106.710938 588.695312 107.25 589.957031 107.96875 Z M 638.554688 114.179688 C 638.644531 106.078125 638.644531 102.570312 636.304688 98.789062 C 634.503906 95.910156 630.90625 92.308594 619.386719 92.308594 C 611.644531 92.308594 606.875 93.75 601.746094 95.28125 L 601.207031 96 L 600.753906 105.808594 L 601.476562 106.171875 C 604.625 104.910156 610.476562 102.570312 616.503906 102.570312 C 619.835938 102.570312 621.183594 103.109375 622.355469 104.28125 C 623.253906 105.179688 623.527344 106.800781 623.527344 108.148438 C 612.726562 109.589844 607.683594 110.578125 602.285156 113.910156 C 597.246094 117.058594 595.535156 122.191406 595.535156 126.238281 C 595.535156 135.871094 602.464844 142.078125 611.285156 142.078125 C 618.035156 142.078125 621.90625 138.839844 623.796875 137.308594 L 623.796875 140.640625 L 624.335938 141.269531 C 630.816406 141 632.796875 140.910156 638.644531 141 L 639.09375 140.371094 C 638.464844 131.550781 638.464844 129.300781 638.464844 120.839844 L 638.554688 114.179688 M 623.707031 128.488281 C 621.816406 129.570312 619.386719 130.828125 616.414062 130.828125 C 613.175781 130.828125 610.476562 129.121094 610.476562 125.339844 C 610.476562 119.398438 617.585938 118.410156 623.707031 117.601562 Z M 719.378906 140.371094 C 718.925781 132 718.835938 129.660156 718.835938 119.488281 L 718.835938 112.738281 C 718.925781 106.710938 719.015625 101.128906 716.40625 97.351562 C 712.898438 92.21875 706.6875 92.21875 705.246094 92.21875 C 697.867188 92.21875 692.917969 95.550781 689.316406 98.070312 C 688.058594 96 685.808594 92.21875 678.609375 92.21875 C 672.667969 92.21875 668.796875 94.921875 664.65625 97.800781 L 664.65625 92.761719 L 663.847656 91.949219 C 656.828125 93.300781 654.847656 93.660156 648.546875 94.558594 L 648.007812 95.191406 C 648.726562 102.390625 649.265625 107.339844 649.265625 125.160156 C 649.265625 130.289062 649.175781 135.511719 649.175781 140.640625 L 649.628906 141.179688 C 655.386719 141 657.367188 140.910156 664.835938 140.910156 L 665.378906 140.371094 C 664.746094 126.511719 664.65625 122.371094 664.566406 106.710938 C 666.457031 105.359375 668.527344 104.191406 670.777344 104.191406 C 676.359375 104.191406 676.539062 110.578125 676.539062 118.320312 C 676.539062 131.371094 676.449219 133.351562 676.265625 140.640625 L 676.808594 141.269531 C 683.648438 140.910156 685.539062 140.910156 691.746094 140.910156 L 692.289062 140.371094 C 691.746094 131.820312 691.65625 129.300781 691.566406 118.410156 L 691.566406 115.078125 L 691.476562 105.988281 C 693.007812 105 694.988281 103.738281 697.6875 103.738281 C 702.816406 103.738281 703.628906 108.601562 703.628906 116.339844 C 703.628906 118.050781 703.539062 119.761719 703.539062 121.46875 C 703.449219 124.53125 703.359375 137.941406 703.265625 140.640625 L 703.808594 141.179688 C 710.558594 140.910156 712.539062 140.910156 718.835938 140.910156 Z M 769.683594 127.679688 C 766.265625 129.480469 762.214844 131.550781 755.644531 131.550781 C 750.246094 131.550781 746.554688 129.839844 744.394531 126.601562 C 743.042969 124.710938 742.773438 122.910156 742.414062 121.109375 L 771.484375 120.570312 L 772.023438 119.941406 C 771.933594 115.53125 771.84375 111.03125 770.585938 106.53125 C 767.433594 95.910156 760.503906 93.75 757.445312 93.03125 C 755.195312 92.398438 753.125 92.21875 751.054688 92.21875 C 736.925781 92.21875 727.5625 101.488281 727.5625 117.058594 C 727.5625 121.289062 728.285156 125.699219 729.722656 128.851562 C 734.945312 141 747.183594 142.078125 753.664062 142.078125 C 761.132812 142.078125 764.375 140.730469 769.144531 138.839844 L 769.683594 138.121094 L 770.3125 127.949219 L 769.683594 127.679688 M 742.414062 111.570312 C 742.683594 108.78125 743.3125 105 746.734375 102.839844 C 747.8125 102.121094 749.074219 101.851562 750.335938 101.851562 C 753.304688 101.851562 755.105469 103.378906 756.09375 105 C 757.355469 106.980469 757.445312 109.140625 757.445312 111.210938 Z M 824.40625 140.371094 C 823.957031 132.449219 823.957031 129.929688 823.777344 121.109375 L 823.777344 114.089844 C 823.6875 105.449219 823.597656 101.308594 821.347656 97.621094 C 818.554688 92.941406 813.425781 92.21875 810.1875 92.21875 C 804.695312 92.21875 799.925781 95.101562 795.785156 97.53125 L 795.964844 92.578125 L 795.066406 91.949219 C 788.136719 93.390625 786.605469 93.660156 779.855469 94.558594 L 779.316406 95.191406 C 780.035156 103.019531 780.578125 108.691406 780.578125 123.359375 C 780.578125 129.121094 780.484375 134.878906 780.394531 140.640625 L 780.9375 141.179688 C 787.417969 140.910156 788.765625 140.910156 795.964844 140.910156 L 796.507812 140.371094 C 795.964844 126.511719 795.875 123 795.785156 106.890625 C 797.675781 105.628906 799.835938 104.101562 802.714844 104.101562 C 807.667969 104.101562 808.117188 109.410156 808.386719 112.648438 C 808.566406 115.621094 808.65625 127.949219 808.65625 131.371094 C 808.65625 134.429688 808.566406 137.578125 808.566406 140.640625 L 809.105469 141.179688 C 815.046875 141 816.578125 140.910156 823.777344 140.910156 Z M 859.867188 130.648438 C 858.335938 131.101562 857.253906 131.460938 855.726562 131.460938 C 851.136719 131.460938 850.777344 128.578125 850.59375 127.230469 C 850.324219 124.890625 850.324219 119.941406 850.414062 116.339844 L 850.59375 103.648438 L 858.695312 104.011719 L 859.234375 103.46875 L 860.136719 93.839844 L 859.59375 93.300781 L 850.59375 93.300781 L 850.867188 78.179688 L 850.234375 77.640625 C 844.117188 79.441406 842.496094 79.890625 836.105469 81.511719 L 835.746094 82.140625 L 835.835938 93.390625 L 830.976562 93.210938 L 830.4375 93.660156 L 829.625 103.289062 L 830.164062 103.828125 L 835.835938 103.648438 L 835.566406 117.960938 C 835.476562 120.210938 835.386719 122.460938 835.386719 124.800781 C 835.386719 133.078125 835.566406 141.988281 849.605469 141.988281 C 853.117188 141.988281 855.90625 141.449219 859.054688 140.910156 L 859.6875 140.28125 L 860.585938 131.011719 Z M 912.335938 117.058594 C 912.335938 113.550781 912.335938 98.96875 899.734375 94.019531 C 895.773438 92.488281 891.09375 92.308594 888.753906 92.308594 C 873.09375 92.308594 864.273438 100.679688 864.273438 117.238281 C 864.273438 123 865.175781 128.851562 868.503906 133.710938 C 870.84375 137.21875 875.253906 142.078125 888.125 142.078125 C 907.203125 142.078125 912.335938 130.558594 912.335938 117.058594 M 896.765625 116.96875 C 896.765625 124.351562 895.773438 132.539062 888.304688 132.539062 C 885.964844 132.539062 884.34375 131.460938 883.265625 130.46875 C 881.734375 128.941406 880.023438 125.878906 880.023438 117.148438 C 880.023438 114.539062 880.023438 108.78125 881.824219 105.628906 C 883.175781 103.199219 885.515625 101.578125 888.394531 101.578125 C 890.914062 101.578125 892.984375 102.929688 894.15625 104.371094 C 896.316406 106.980469 896.765625 112.109375 896.765625 116.96875 Z M 915.484375 141 "/>
<path fill-rule="nonzero" fill="rgb(34.901961%, 14.901961%, 14.901961%)" fill-opacity="1" d="M 179.824219 236.25 C 185.855469 246.511719 187.207031 249.210938 192.964844 261 L 193.6875 261.449219 C 196.476562 261.269531 199.175781 261.089844 201.964844 261 C 204.757812 260.910156 207.636719 260.820312 210.425781 260.820312 L 210.964844 259.738281 C 207.546875 255.328125 206.554688 253.980469 200.074219 243.628906 C 197.195312 239.039062 195.757812 236.609375 193.507812 232.648438 C 197.554688 230.851562 205.746094 227.070312 205.746094 215.640625 C 205.746094 211.679688 204.664062 203.488281 197.285156 199.621094 C 192.605469 197.191406 187.746094 197.101562 177.214844 197.28125 L 170.914062 197.371094 L 159.9375 197.371094 L 159.484375 197.910156 C 159.847656 207 160.207031 216.359375 160.207031 240.839844 C 160.207031 249.210938 160.117188 253.261719 159.847656 260.730469 L 160.386719 261.269531 C 166.957031 261 168.394531 260.910156 175.777344 261 L 176.316406 260.460938 C 175.597656 250.019531 175.507812 247.140625 175.414062 236.429688 L 179.824219 236.25 M 175.597656 208.261719 C 176.855469 208.171875 178.117188 208.171875 179.375 208.171875 C 182.886719 208.171875 189.816406 208.171875 189.816406 216.089844 C 189.816406 218.609375 189.1875 221.941406 185.855469 224.011719 C 183.335938 225.539062 180.097656 225.71875 175.597656 225.808594 Z M 232.027344 260.371094 C 231.574219 253.441406 231.214844 248.128906 231.214844 235.710938 C 231.214844 228.058594 231.394531 220.320312 231.484375 212.671875 L 230.855469 211.949219 L 215.375 214.648438 L 214.835938 215.191406 C 215.554688 222.03125 215.824219 225.179688 215.824219 237.960938 C 215.824219 247.769531 215.554688 253.261719 215.285156 260.640625 L 215.824219 261.269531 C 222.304688 261 224.105469 260.910156 231.394531 261 L 232.027344 260.371094 M 230.585938 203.308594 L 230.855469 191.070312 L 230.316406 190.53125 L 215.644531 192.328125 L 215.105469 192.960938 C 215.285156 196.199219 215.375 198.089844 215.375 200.25 C 215.375 201.960938 215.375 203.761719 215.285156 205.46875 L 215.914062 206.011719 C 222.035156 204.929688 223.746094 204.75 230.136719 203.941406 Z M 266.855469 260.28125 C 269.738281 251.28125 271.445312 245.699219 273.335938 240.03125 C 275.765625 232.738281 279.726562 221.039062 282.246094 213.660156 L 281.796875 213.03125 L 269.195312 213.300781 L 268.566406 213.929688 C 267.308594 219.960938 267.039062 221.21875 265.238281 228.238281 L 260.648438 245.96875 L 258.398438 236.25 L 256.6875 229.320312 C 254.4375 220.949219 254.078125 219.238281 252.816406 213.300781 L 252.1875 212.761719 C 245.078125 213.570312 243.277344 213.660156 236.4375 213.75 L 236.078125 214.46875 C 248.046875 249.929688 249.039062 253.261719 251.015625 260.640625 L 251.648438 261.269531 C 257.496094 261 259.835938 260.910156 266.316406 261 Z M 326.976562 247.679688 C 323.558594 249.480469 319.507812 251.550781 312.9375 251.550781 C 307.539062 251.550781 303.847656 249.839844 301.6875 246.601562 C 300.335938 244.710938 300.066406 242.910156 299.707031 241.109375 L 328.777344 240.570312 L 329.316406 239.941406 C 329.226562 235.53125 329.136719 231.03125 327.878906 226.53125 C 324.726562 215.910156 317.796875 213.75 314.738281 213.03125 C 312.488281 212.398438 310.417969 212.21875 308.347656 212.21875 C 294.21875 212.21875 284.855469 221.488281 284.855469 237.058594 C 284.855469 241.289062 285.578125 245.699219 287.015625 248.851562 C 292.238281 261 304.476562 262.078125 310.957031 262.078125 C 318.425781 262.078125 321.667969 260.730469 326.4375 258.839844 L 326.976562 258.121094 L 327.605469 247.949219 L 326.976562 247.679688 M 299.707031 231.570312 C 299.976562 228.78125 300.605469 225 304.027344 222.839844 C 305.105469 222.121094 306.367188 221.851562 307.628906 221.851562 C 310.597656 221.851562 312.398438 223.378906 313.386719 225 C 314.648438 226.980469 314.738281 229.140625 314.738281 231.210938 Z M 363.605469 227.609375 L 366.125 212.941406 L 365.585938 212.308594 C 364.957031 212.308594 364.324219 212.21875 363.695312 212.21875 C 360.003906 212.21875 355.867188 214.289062 352.984375 220.949219 L 353.253906 212.671875 L 352.535156 211.949219 C 345.875 213.390625 344.164062 213.660156 337.59375 214.648438 L 337.054688 215.191406 C 337.59375 221.941406 337.867188 225.988281 337.867188 238.5 C 337.867188 245.878906 337.773438 253.261719 337.59375 260.730469 L 338.136719 261.269531 C 344.796875 261 346.234375 260.910156 353.433594 261 L 353.886719 260.371094 C 353.523438 253.078125 352.984375 242.910156 352.984375 236.699219 C 352.984375 232.648438 352.984375 226.710938 359.105469 226.710938 C 360.636719 226.710938 361.535156 227.25 362.796875 227.96875 Z M 423.636719 222.300781 C 416.078125 219.148438 412.117188 217.53125 412.117188 213.480469 C 412.117188 210.691406 414.726562 207.179688 420.667969 207.179688 C 427.507812 207.179688 431.554688 209.96875 434.886719 212.21875 L 435.695312 211.859375 L 436.417969 200.070312 L 435.964844 199.441406 C 432.097656 197.820312 428.046875 196.109375 419.316406 196.109375 C 402.398438 196.109375 396.546875 205.648438 396.546875 215.28125 C 396.546875 226.171875 405.007812 230.128906 410.046875 232.558594 L 413.015625 233.910156 C 419.226562 236.519531 423.996094 238.769531 423.996094 243.539062 C 423.996094 246.960938 421.027344 251.011719 413.195312 251.011719 C 405.007812 251.011719 400.417969 247.410156 397.804688 245.339844 L 396.90625 245.609375 L 396.277344 258.300781 L 396.816406 259.019531 C 397.804688 259.378906 398.796875 259.828125 399.785156 260.101562 C 401.855469 260.820312 407.167969 262.351562 413.917969 262.351562 C 416.617188 262.351562 423.457031 262.078125 428.855469 259.558594 C 436.417969 255.871094 439.65625 249.03125 439.65625 241.378906 C 439.65625 236.25 437.675781 230.761719 432.90625 227.070312 C 430.476562 225.269531 428.136719 224.191406 425.976562 223.199219 Z M 473.40625 250.648438 C 471.875 251.101562 470.792969 251.460938 469.265625 251.460938 C 464.675781 251.460938 464.316406 248.578125 464.132812 247.230469 C 463.863281 244.890625 463.863281 239.941406 463.953125 236.339844 L 464.132812 223.648438 L 472.234375 224.011719 L 472.773438 223.46875 L 473.675781 213.839844 L 473.132812 213.300781 L 464.132812 213.300781 L 464.40625 198.179688 L 463.773438 197.640625 C 457.65625 199.441406 456.035156 199.890625 449.644531 201.511719 L 449.285156 202.140625 L 449.375 213.390625 L 444.515625 213.210938 L 443.976562 213.660156 L 443.164062 223.289062 L 443.703125 223.828125 L 449.375 223.648438 L 449.105469 237.960938 C 449.015625 240.210938 448.925781 242.460938 448.925781 244.800781 C 448.925781 253.078125 449.105469 261.988281 463.144531 261.988281 C 466.65625 261.988281 469.445312 261.449219 472.59375 260.910156 L 473.226562 260.28125 L 474.125 251.011719 Z M 520.113281 234.179688 C 520.203125 226.078125 520.203125 222.570312 517.863281 218.789062 C 516.0625 215.910156 512.464844 212.308594 500.945312 212.308594 C 493.203125 212.308594 488.433594 213.75 483.304688 215.28125 L 482.765625 216 L 482.3125 225.808594 L 483.035156 226.171875 C 486.183594 224.910156 492.035156 222.570312 498.0625 222.570312 C 501.394531 222.570312 502.742188 223.109375 503.914062 224.28125 C 504.8125 225.179688 505.085938 226.800781 505.085938 228.148438 C 494.285156 229.589844 489.242188 230.578125 483.84375 233.910156 C 478.804688 237.058594 477.09375 242.191406 477.09375 246.238281 C 477.09375 255.871094 484.023438 262.078125 492.84375 262.078125 C 499.59375 262.078125 503.464844 258.839844 505.355469 257.308594 L 505.355469 260.640625 L 505.894531 261.269531 C 512.375 261 514.355469 260.910156 520.203125 261 L 520.652344 260.371094 C 520.023438 251.550781 520.023438 249.300781 520.023438 240.839844 L 520.113281 234.179688 M 505.265625 248.488281 C 503.375 249.570312 500.945312 250.828125 497.972656 250.828125 C 494.734375 250.828125 492.035156 249.121094 492.035156 245.339844 C 492.035156 239.398438 499.144531 238.410156 505.265625 237.601562 Z M 555.847656 250.648438 C 554.316406 251.101562 553.234375 251.460938 551.707031 251.460938 C 547.117188 251.460938 546.757812 248.578125 546.574219 247.230469 C 546.304688 244.890625 546.304688 239.941406 546.394531 236.339844 L 546.574219 223.648438 L 554.675781 224.011719 L 555.214844 223.46875 L 556.117188 213.839844 L 555.574219 213.300781 L 546.574219 213.300781 L 546.847656 198.179688 L 546.214844 197.640625 C 540.097656 199.441406 538.476562 199.890625 532.085938 201.511719 L 531.726562 202.140625 L 531.816406 213.390625 L 526.957031 213.210938 L 526.417969 213.660156 L 525.605469 223.289062 L 526.144531 223.828125 L 531.816406 223.648438 L 531.546875 237.960938 C 531.457031 240.210938 531.367188 242.460938 531.367188 244.800781 C 531.367188 253.078125 531.546875 261.988281 545.585938 261.988281 C 549.097656 261.988281 551.886719 261.449219 555.035156 260.910156 L 555.667969 260.28125 L 556.566406 251.011719 Z M 602.464844 247.679688 C 599.046875 249.480469 594.996094 251.550781 588.425781 251.550781 C 583.027344 251.550781 579.335938 249.839844 577.175781 246.601562 C 575.824219 244.710938 575.554688 242.910156 575.195312 241.109375 L 604.265625 240.570312 L 604.804688 239.941406 C 604.714844 235.53125 604.625 231.03125 603.367188 226.53125 C 600.214844 215.910156 593.285156 213.75 590.226562 213.03125 C 587.976562 212.398438 585.90625 212.21875 583.835938 212.21875 C 569.707031 212.21875 560.34375 221.488281 560.34375 237.058594 C 560.34375 241.289062 561.066406 245.699219 562.503906 248.851562 C 567.726562 261 579.964844 262.078125 586.445312 262.078125 C 593.914062 262.078125 597.15625 260.730469 601.925781 258.839844 L 602.464844 258.121094 L 603.09375 247.949219 L 602.464844 247.679688 M 575.195312 231.570312 C 575.464844 228.78125 576.09375 225 579.515625 222.839844 C 580.59375 222.121094 581.855469 221.851562 583.117188 221.851562 C 586.085938 221.851562 587.886719 223.378906 588.875 225 C 590.136719 226.980469 590.226562 229.140625 590.226562 231.210938 Z M 651.425781 197.28125 L 639.996094 197.460938 L 639.453125 198 C 639.816406 209.699219 640.085938 217.53125 640.085938 227.878906 C 640.085938 238.859375 639.816406 249.75 639.542969 260.730469 L 640.085938 261.269531 C 646.746094 261 648.183594 260.910156 655.386719 261 L 655.835938 260.460938 C 655.476562 250.648438 655.476562 248.398438 655.476562 239.21875 C 665.554688 239.308594 676.355469 239.308594 682.835938 231.390625 C 685.355469 228.328125 687.515625 223.199219 687.515625 216.898438 C 687.515625 213.03125 686.613281 204.480469 679.144531 200.25 C 673.746094 197.101562 666.09375 197.101562 659.34375 197.101562 L 651.425781 197.28125 M 655.476562 208.171875 C 657.453125 208.078125 659.34375 208.078125 661.324219 208.078125 C 669.246094 208.261719 671.40625 212.308594 671.40625 217.53125 C 671.40625 218.789062 671.40625 224.011719 666.636719 226.621094 C 664.203125 227.96875 660.875 228.148438 655.476562 228.148438 Z M 733.773438 234.179688 C 733.863281 226.078125 733.863281 222.570312 731.523438 218.789062 C 729.722656 215.910156 726.125 212.308594 714.605469 212.308594 C 706.863281 212.308594 702.09375 213.75 696.964844 215.28125 L 696.425781 216 L 695.972656 225.808594 L 696.695312 226.171875 C 699.84375 224.910156 705.695312 222.570312 711.722656 222.570312 C 715.054688 222.570312 716.402344 223.109375 717.574219 224.28125 C 718.472656 225.179688 718.746094 226.800781 718.746094 228.148438 C 707.945312 229.589844 702.902344 230.578125 697.503906 233.910156 C 692.464844 237.058594 690.753906 242.191406 690.753906 246.238281 C 690.753906 255.871094 697.683594 262.078125 706.503906 262.078125 C 713.253906 262.078125 717.125 258.839844 719.015625 257.308594 L 719.015625 260.640625 L 719.554688 261.269531 C 726.035156 261 728.015625 260.910156 733.863281 261 L 734.3125 260.371094 C 733.683594 251.550781 733.683594 249.300781 733.683594 240.839844 L 733.773438 234.179688 M 718.925781 248.488281 C 717.035156 249.570312 714.605469 250.828125 711.632812 250.828125 C 708.394531 250.828125 705.695312 249.121094 705.695312 245.339844 C 705.695312 239.398438 712.804688 238.410156 718.925781 237.601562 Z M 770.316406 227.609375 L 772.835938 212.941406 L 772.296875 212.308594 C 771.667969 212.308594 771.035156 212.21875 770.40625 212.21875 C 766.714844 212.21875 762.578125 214.289062 759.695312 220.949219 L 759.964844 212.671875 L 759.246094 211.949219 C 752.585938 213.390625 750.875 213.660156 744.304688 214.648438 L 743.765625 215.191406 C 744.304688 221.941406 744.578125 225.988281 744.578125 238.5 C 744.578125 245.878906 744.484375 253.261719 744.304688 260.730469 L 744.847656 261.269531 C 751.507812 261 752.945312 260.910156 760.144531 261 L 760.597656 260.371094 C 760.234375 253.078125 759.695312 242.910156 759.695312 236.699219 C 759.695312 232.648438 759.695312 226.710938 765.816406 226.710938 C 767.347656 226.710938 768.246094 227.25 769.507812 227.96875 Z M 824.316406 259.828125 C 815.855469 245.519531 814.957031 243.898438 808.117188 231.570312 C 814.328125 223.109375 814.957031 222.210938 821.347656 214.019531 L 820.894531 213.121094 L 806.226562 213.300781 L 805.328125 213.929688 C 798.304688 226.078125 797.40625 227.519531 793.265625 233.730469 L 793.265625 223.738281 C 793.355469 206.910156 793.445312 203.308594 793.894531 189.71875 L 793.175781 189.179688 L 777.515625 191.519531 L 776.976562 192.148438 C 777.605469 200.878906 777.875 205.109375 778.054688 216.898438 C 778.234375 231.480469 778.234375 246.058594 778.144531 260.640625 L 778.777344 261.269531 C 784.804688 261 786.515625 261 793.355469 261 L 793.894531 260.371094 L 793.355469 245.160156 L 793.265625 234.808594 C 801.097656 249.210938 802.085938 251.191406 806.675781 260.730469 L 807.484375 261.269531 L 823.6875 260.640625 Z M 823.234375 261 "/>
</svg>
