<?xml version="1.0" encoding="UTF-8"?>
<svg xmlns="http://www.w3.org/2000/svg" xmlns:xlink="http://www.w3.org/1999/xlink" width="975" height="1300" viewBox="0 0 975 1300">
<path fill-rule="nonzero" fill="rgb(98.823529%, 78.823529%, 9.019608%)" fill-opacity="1" d="M 50 50 L 925 50 L 925 290 L 50 290 Z M 50 50 "/>
<path fill-rule="nonzero" fill="rgb(34.901961%, 14.901961%, 14.901961%)" fill-opacity="1" d="M 208.175781 77.191406 C 199.535156 77.460938 197.734375 77.460938 188.105469 77.460938 L 187.472656 78 C 182.703125 93.300781 179.824219 102.390625 166.59375 140.371094 L 166.953125 141 L 180.992188 141 L 181.625 140.460938 L 186.035156 124.078125 L 205.472656 124.078125 L 209.34375 140.730469 L 209.972656 141.269531 C 216.542969 141 218.34375 140.910156 225.632812 141 L 226.085938 140.28125 C 215.195312 101.761719 213.933594 97.53125 208.804688 77.730469 L 208.175781 77.191406 M 189.183594 113.191406 L 193.683594 97.980469 L 196.835938 87.449219 L 199.535156 99.148438 L 202.863281 113.191406 Z M 275.945312 140.371094 C 275.585938 132.988281 275.496094 130.46875 275.316406 121.109375 L 275.316406 114.359375 C 275.226562 105.808594 275.136719 100.859375 272.523438 97.078125 C 269.914062 93.390625 266.136719 92.21875 262.175781 92.21875 C 255.605469 92.21875 250.476562 95.371094 246.875 97.53125 L 247.144531 69.808594 L 246.605469 69.179688 L 231.214844 71.609375 L 230.765625 72.148438 C 231.574219 80.878906 231.753906 84.121094 231.933594 95.730469 C 232.117188 103.019531 232.207031 110.308594 232.207031 117.601562 C 232.207031 126.511719 232.023438 131.820312 231.84375 140.640625 L 232.296875 141.269531 C 238.957031 140.910156 240.304688 140.910156 247.59375 140.910156 L 248.136719 140.371094 C 247.503906 126.871094 247.414062 122.820312 247.324219 106.890625 C 249.035156 105.71875 251.195312 104.191406 254.253906 104.191406 C 259.207031 104.191406 259.566406 109.320312 259.925781 112.921875 C 260.105469 115.710938 260.195312 128.488281 260.195312 131.820312 C 260.195312 134.789062 260.105469 137.671875 260.105469 140.640625 L 260.554688 141.269531 C 267.035156 140.910156 268.476562 140.910156 275.40625 140.910156 Z M 301.054688 91.949219 C 294.394531 93.300781 293.042969 93.570312 285.753906 94.648438 L 285.214844 95.191406 C 285.933594 104.550781 286.292969 116.160156 286.382812 123.898438 C 286.476562 126.960938 286.65625 137.578125 286.65625 140.191406 C 286.65625 147.390625 285.753906 151.621094 278.375 153.148438 L 277.925781 153.871094 L 280.265625 163.230469 L 280.894531 163.589844 C 284.316406 162.871094 292.953125 161.070312 298.265625 154.140625 C 301.953125 149.191406 302.042969 144.058594 301.863281 136.949219 L 301.773438 130.648438 C 301.59375 124.800781 301.503906 118.949219 301.503906 113.101562 C 301.503906 106.351562 301.683594 99.691406 301.773438 92.761719 L 301.054688 91.949219 M 301.414062 83.578125 L 301.414062 71.25 L 300.875 70.621094 L 286.292969 72.421875 L 285.664062 73.050781 L 285.933594 85.378906 L 286.566406 85.828125 C 293.226562 84.929688 295.203125 84.660156 300.875 84.03125 Z M 355.6875 92.851562 L 341.015625 93.570312 L 340.386719 94.109375 C 341.015625 104.28125 341.015625 118.679688 341.015625 120.121094 C 341.015625 122.730469 341.015625 124.171875 340.925781 127.769531 C 338.496094 129.390625 336.605469 130.738281 334.175781 130.738281 C 327.695312 130.738281 327.695312 123.898438 327.695312 118.589844 C 327.695312 116.339844 327.695312 114 327.785156 111.75 L 327.964844 93.570312 L 327.335938 92.851562 L 312.484375 93.570312 L 311.855469 94.109375 C 312.394531 101.671875 312.484375 104.191406 312.484375 113.28125 L 312.484375 119.578125 C 312.394531 129.390625 312.847656 133.53125 316.085938 137.308594 C 319.054688 140.640625 323.375 142.078125 327.875 142.078125 C 334.265625 142.078125 337.957031 139.199219 341.195312 136.679688 L 341.105469 140.730469 L 341.734375 141.269531 C 348.304688 141 350.285156 141 356.136719 141 L 356.675781 140.460938 C 356.226562 134.070312 356.046875 130.648438 356.046875 118.949219 C 356.046875 110.488281 356.136719 102.03125 356.316406 93.570312 Z M 437.136719 140.371094 C 436.683594 132 436.59375 129.660156 436.59375 119.488281 L 436.59375 112.738281 C 436.683594 106.710938 436.773438 101.128906 434.164062 97.351562 C 430.65625 92.21875 424.445312 92.21875 423.003906 92.21875 C 415.625 92.21875 410.675781 95.550781 407.074219 98.070312 C 405.816406 96 403.566406 92.21875 396.367188 92.21875 C 390.425781 92.21875 386.554688 94.921875 382.414062 97.800781 L 382.414062 92.761719 L 381.605469 91.949219 C 374.585938 93.300781 372.605469 93.660156 366.304688 94.558594 L 365.765625 95.191406 C 366.484375 102.390625 367.023438 107.339844 367.023438 125.160156 C 367.023438 130.289062 366.933594 135.511719 366.933594 140.640625 L 367.386719 141.179688 C 373.144531 141 375.125 140.910156 382.59375 140.910156 L 383.136719 140.371094 C 382.503906 126.511719 382.414062 122.371094 382.324219 106.710938 C 384.214844 105.359375 386.285156 104.191406 388.535156 104.191406 C 394.117188 104.191406 394.296875 110.578125 394.296875 118.320312 C 394.296875 131.371094 394.207031 133.351562 394.023438 140.640625 L 394.566406 141.269531 C 401.40625 140.910156 403.296875 140.910156 409.503906 140.910156 L 410.046875 140.371094 C 409.503906 131.820312 409.414062 129.300781 409.324219 118.410156 L 409.324219 115.078125 L 409.234375 105.988281 C 410.765625 105 412.746094 103.738281 415.445312 103.738281 C 420.574219 103.738281 421.386719 108.601562 421.386719 116.339844 C 421.386719 118.050781 421.296875 119.761719 421.296875 121.46875 C 421.207031 124.53125 421.117188 137.941406 421.023438 140.640625 L 421.566406 141.179688 C 428.316406 140.910156 430.296875 140.910156 436.59375 140.910156 Z M 487.535156 114.179688 C 487.625 106.078125 487.625 102.570312 485.285156 98.789062 C 483.484375 95.910156 479.886719 92.308594 468.367188 92.308594 C 460.625 92.308594 455.855469 93.75 450.726562 95.28125 L 450.1875 96 L 449.734375 105.808594 L 450.457031 106.171875 C 453.605469 104.910156 459.457031 102.570312 465.484375 102.570312 C 468.816406 102.570312 470.164062 103.109375 471.335938 104.28125 C 472.234375 105.179688 472.507812 106.800781 472.507812 108.148438 C 461.707031 109.589844 456.664062 110.578125 451.265625 113.910156 C 446.226562 117.058594 444.515625 122.191406 444.515625 126.238281 C 444.515625 135.871094 451.445312 142.078125 460.265625 142.078125 C 467.015625 142.078125 470.886719 138.839844 472.777344 137.308594 L 472.777344 140.640625 L 473.316406 141.269531 C 479.796875 141 481.777344 140.910156 487.625 141 L 488.074219 140.371094 C 487.445312 131.550781 487.445312 129.300781 487.445312 120.839844 L 487.535156 114.179688 M 472.6875 128.488281 C 470.796875 129.570312 468.367188 130.828125 465.394531 130.828125 C 462.15625 130.828125 459.457031 129.121094 459.457031 125.339844 C 459.457031 119.398438 466.566406 118.410156 472.6875 117.601562 Z M 553.683594 140.371094 C 557.285156 126.421875 557.914062 124.261719 563.3125 104.910156 C 564.394531 101.21875 565.382812 97.441406 566.375 93.75 L 565.835938 93.03125 L 554.132812 93.300781 L 553.503906 93.929688 L 550.894531 107.429688 L 548.375 118.320312 L 546.664062 126.601562 L 545.132812 118.589844 L 543.152344 109.230469 L 540.003906 93.660156 L 539.464844 93.03125 L 522.183594 93.300781 L 521.554688 93.929688 L 518.585938 108.691406 L 516.425781 118.589844 L 514.714844 126.871094 L 513.003906 117.960938 L 510.84375 108.238281 L 507.785156 93.300781 L 507.242188 92.851562 L 492.664062 93.929688 L 492.125 94.648438 C 500.585938 124.351562 501.933594 129.660156 504.453125 140.730469 L 505.085938 141.269531 C 511.292969 141 513.542969 140.910156 521.824219 141 L 522.363281 140.371094 L 524.703125 129.390625 L 527.222656 118.5 L 529.472656 107.609375 L 530.824219 114.449219 L 532.175781 121.109375 L 535.953125 140.640625 L 536.585938 141.269531 C 543.242188 141 545.945312 140.910156 553.144531 141 Z M 587.433594 140.371094 C 586.980469 133.441406 586.621094 128.128906 586.621094 115.710938 C 586.621094 108.058594 586.800781 100.320312 586.890625 92.671875 L 586.261719 91.949219 L 570.78125 94.648438 L 570.242188 95.191406 C 570.960938 102.03125 571.230469 105.179688 571.230469 117.960938 C 571.230469 127.769531 570.960938 133.261719 570.691406 140.640625 L 571.230469 141.269531 C 577.710938 141 579.511719 140.910156 586.800781 141 L 587.433594 140.371094 M 585.992188 83.308594 L 586.261719 71.070312 L 585.722656 70.53125 L 571.050781 72.328125 L 570.511719 72.960938 C 570.691406 76.199219 570.78125 78.089844 570.78125 80.25 C 570.78125 81.960938 570.78125 83.761719 570.691406 85.46875 L 571.320312 86.011719 C 577.441406 84.929688 579.152344 84.75 585.542969 83.941406 Z M 662.40625 128.671875 C 652.59375 129.210938 644.765625 129.390625 642.066406 129.390625 L 640.265625 129.390625 C 640.085938 105.359375 640.175781 99.238281 640.894531 77.730469 L 640.355469 77.191406 C 632.613281 77.550781 630.542969 77.550781 624.335938 77.460938 L 623.792969 78 C 624.15625 85.199219 624.246094 87.359375 624.246094 98.070312 C 624.246094 112.289062 624.15625 126.511719 624.15625 140.730469 L 624.605469 141.269531 C 642.246094 141 645.484375 141 661.683594 141 L 662.132812 140.460938 L 662.855469 129.121094 Z M 710.644531 114.179688 C 710.734375 106.078125 710.734375 102.570312 708.394531 98.789062 C 706.59375 95.910156 702.996094 92.308594 691.476562 92.308594 C 683.734375 92.308594 678.964844 93.75 673.835938 95.28125 L 673.296875 96 L 672.84375 105.808594 L 673.566406 106.171875 C 676.714844 104.910156 682.566406 102.570312 688.59375 102.570312 C 691.925781 102.570312 693.273438 103.109375 694.445312 104.28125 C 695.34375 105.179688 695.617188 106.800781 695.617188 108.148438 C 684.816406 109.589844 679.773438 110.578125 674.375 113.910156 C 669.335938 117.058594 667.625 122.191406 667.625 126.238281 C 667.625 135.871094 674.554688 142.078125 683.375 142.078125 C 690.125 142.078125 693.996094 138.839844 695.886719 137.308594 L 695.886719 140.640625 L 696.425781 141.269531 C 702.90625 141 704.886719 140.910156 710.734375 141 L 711.183594 140.371094 C 710.554688 131.550781 710.554688 129.300781 710.554688 120.839844 L 710.644531 114.179688 M 695.796875 128.488281 C 693.90625 129.570312 691.476562 130.828125 688.503906 130.828125 C 685.265625 130.828125 682.566406 129.121094 682.566406 125.339844 C 682.566406 119.398438 689.675781 118.410156 695.796875 117.601562 Z M 746.011719 140.28125 C 748.894531 131.28125 750.601562 125.699219 752.492188 120.03125 C 754.921875 112.738281 758.882812 101.039062 761.402344 93.660156 L 760.953125 93.03125 L 748.351562 93.300781 L 747.722656 93.929688 C 746.464844 99.960938 746.195312 101.21875 744.394531 108.238281 L 739.804688 125.96875 L 737.554688 116.25 L 735.84375 109.320312 C 733.59375 100.949219 733.234375 99.238281 731.972656 93.300781 L 731.34375 92.761719 C 724.234375 93.570312 722.433594 93.660156 715.59375 93.75 L 715.234375 94.46875 C 727.203125 129.929688 728.195312 133.261719 730.171875 140.640625 L 730.804688 141.269531 C 736.652344 141 738.992188 140.910156 745.472656 141 Z M 806.222656 114.179688 C 806.3125 106.078125 806.3125 102.570312 803.972656 98.789062 C 802.171875 95.910156 798.574219 92.308594 787.054688 92.308594 C 779.3125 92.308594 774.542969 93.75 769.414062 95.28125 L 768.875 96 L 768.421875 105.808594 L 769.144531 106.171875 C 772.292969 104.910156 778.144531 102.570312 784.171875 102.570312 C 787.503906 102.570312 788.851562 103.109375 790.023438 104.28125 C 790.921875 105.179688 791.195312 106.800781 791.195312 108.148438 C 780.394531 109.589844 775.351562 110.578125 769.953125 113.910156 C 764.914062 117.058594 763.203125 122.191406 763.203125 126.238281 C 763.203125 135.871094 770.132812 142.078125 778.953125 142.078125 C 785.703125 142.078125 789.574219 138.839844 791.464844 137.308594 L 791.464844 140.640625 L 792.003906 141.269531 C 798.484375 141 800.464844 140.910156 806.3125 141 L 806.761719 140.371094 C 806.132812 131.550781 806.132812 129.300781 806.132812 120.839844 L 806.222656 114.179688 M 791.375 128.488281 C 789.484375 129.570312 787.054688 130.828125 784.082031 130.828125 C 780.84375 130.828125 778.144531 129.121094 778.144531 125.339844 C 778.144531 119.398438 785.253906 118.410156 791.375 117.601562 Z M 811.355469 141 "/>
<path fill-rule="nonzero" fill="rgb(34.901961%, 14.901961%, 14.901961%)" fill-opacity="1" d="M 135.140625 222.300781 C 127.582031 219.148438 123.621094 217.53125 123.621094 213.480469 C 123.621094 210.691406 126.230469 207.179688 132.171875 207.179688 C 139.011719 207.179688 143.058594 209.96875 146.390625 212.21875 L 147.199219 211.859375 L 147.921875 200.070312 L 147.46875 199.441406 C 143.601562 197.820312 139.550781 196.109375 130.820312 196.109375 C 113.902344 196.109375 108.050781 205.648438 108.050781 215.28125 C 108.050781 226.171875 116.511719 230.128906 121.550781 232.558594 L 124.519531 233.910156 C 130.730469 236.519531 135.5 238.769531 135.5 243.539062 C 135.5 246.960938 132.53125 251.011719 124.699219 251.011719 C 116.511719 251.011719 111.921875 247.410156 109.308594 245.339844 L 108.410156 245.609375 L 107.78125 258.300781 L 108.320312 259.019531 C 109.308594 259.378906 110.300781 259.828125 111.289062 260.101562 C 113.359375 260.820312 118.671875 262.351562 125.421875 262.351562 C 128.121094 262.351562 134.960938 262.078125 140.359375 259.558594 C 147.921875 255.871094 151.160156 249.03125 151.160156 241.378906 C 151.160156 236.25 149.179688 230.761719 144.410156 227.070312 C 141.980469 225.269531 139.640625 224.191406 137.480469 223.199219 Z M 174.648438 212.851562 L 173.929688 212.039062 C 167.359375 213.480469 165.46875 213.839844 158.988281 214.648438 L 158.449219 215.28125 C 159.4375 225.988281 159.796875 230.128906 159.796875 256.050781 C 159.796875 266.761719 159.617188 272.878906 159.347656 283.050781 L 159.886719 283.5 C 166.277344 283.230469 168.167969 283.140625 175.007812 283.230469 L 175.546875 282.78125 L 174.917969 261.359375 C 181.488281 261.269531 190.578125 261.179688 197.867188 254.339844 C 203.628906 248.941406 205.519531 241.289062 205.519531 235.171875 C 205.519531 220.859375 196.789062 212.21875 186.707031 212.21875 C 180.5 212.21875 176.988281 214.738281 174.46875 216.449219 L 174.648438 212.851562 M 174.828125 225.089844 C 176.808594 223.921875 177.980469 223.289062 180.230469 223.289062 C 181.578125 223.289062 184.277344 223.46875 186.527344 225.988281 C 189.320312 229.050781 189.769531 233.640625 189.769531 236.699219 C 189.769531 241.921875 188.058594 246.601562 184.457031 249.121094 C 181.578125 251.101562 177.980469 251.28125 174.828125 251.371094 Z M 240.082031 227.609375 L 242.601562 212.941406 L 242.0625 212.308594 C 241.433594 212.308594 240.800781 212.21875 240.171875 212.21875 C 236.480469 212.21875 232.34375 214.289062 229.460938 220.949219 L 229.730469 212.671875 L 229.011719 211.949219 C 222.351562 213.390625 220.640625 213.660156 214.070312 214.648438 L 213.53125 215.191406 C 214.070312 221.941406 214.34375 225.988281 214.34375 238.5 C 214.34375 245.878906 214.25 253.261719 214.070312 260.730469 L 214.613281 261.269531 C 221.273438 261 222.710938 260.910156 229.910156 261 L 230.363281 260.371094 C 230 253.078125 229.460938 242.910156 229.460938 236.699219 C 229.460938 232.648438 229.460938 226.710938 235.582031 226.710938 C 237.113281 226.710938 238.011719 227.25 239.273438 227.96875 Z M 264.113281 260.371094 C 263.660156 253.441406 263.300781 248.128906 263.300781 235.710938 C 263.300781 228.058594 263.480469 220.320312 263.570312 212.671875 L 262.941406 211.949219 L 247.460938 214.648438 L 246.921875 215.191406 C 247.640625 222.03125 247.910156 225.179688 247.910156 237.960938 C 247.910156 247.769531 247.640625 253.261719 247.371094 260.640625 L 247.910156 261.269531 C 254.390625 261 256.191406 260.910156 263.480469 261 L 264.113281 260.371094 M 262.671875 203.308594 L 262.941406 191.070312 L 262.402344 190.53125 L 247.730469 192.328125 L 247.191406 192.960938 C 247.371094 196.199219 247.460938 198.089844 247.460938 200.25 C 247.460938 201.960938 247.460938 203.761719 247.371094 205.46875 L 248 206.011719 C 254.121094 204.929688 255.832031 204.75 262.222656 203.941406 Z M 318.199219 260.371094 C 317.75 252.449219 317.75 249.929688 317.570312 241.109375 L 317.570312 234.089844 C 317.480469 225.449219 317.390625 221.308594 315.140625 217.621094 C 312.347656 212.941406 307.21875 212.21875 303.980469 212.21875 C 298.488281 212.21875 293.71875 215.101562 289.578125 217.53125 L 289.757812 212.578125 L 288.859375 211.949219 C 281.929688 213.390625 280.398438 213.660156 273.648438 214.558594 L 273.109375 215.191406 C 273.828125 223.019531 274.371094 228.691406 274.371094 243.359375 C 274.371094 249.121094 274.277344 254.878906 274.1875 260.640625 L 274.730469 261.179688 C 281.210938 260.910156 282.558594 260.910156 289.757812 260.910156 L 290.300781 260.371094 C 289.757812 246.511719 289.667969 243 289.578125 226.890625 C 291.46875 225.628906 293.628906 224.101562 296.507812 224.101562 C 301.460938 224.101562 301.910156 229.410156 302.179688 232.648438 C 302.359375 235.621094 302.449219 247.949219 302.449219 251.371094 C 302.449219 254.429688 302.359375 257.578125 302.359375 260.640625 L 302.898438 261.179688 C 308.839844 261 310.371094 260.910156 317.570312 260.910156 Z M 345.019531 245.789062 C 347.898438 245.878906 350.777344 246.058594 355.097656 244.621094 C 359.777344 243 366.617188 239.128906 366.617188 230.398438 C 366.617188 226.078125 365.359375 224.28125 364.1875 222.570312 L 370.398438 222.929688 L 370.9375 222.480469 L 371.570312 213.480469 L 371.027344 213.03125 C 364.097656 213.300781 362.207031 213.390625 356.539062 213.300781 L 352.398438 213.210938 C 346.007812 213.03125 337.457031 212.851562 331.609375 217.710938 C 329.628906 219.238281 325.847656 223.109375 325.847656 229.859375 C 325.847656 233.460938 326.839844 236.339844 328.457031 238.589844 C 330.4375 241.378906 332.238281 242.371094 334.488281 243.628906 C 331.96875 248.488281 330.617188 250.921875 328.546875 254.609375 L 328.546875 255.421875 L 332.328125 258.121094 C 329.628906 260.191406 325.398438 263.609375 325.398438 269.460938 C 325.398438 273.601562 327.648438 277.199219 330.980469 279.628906 C 336.019531 283.230469 342.859375 283.410156 346.367188 283.410156 C 362.839844 283.410156 370.398438 275.128906 370.398438 266.398438 C 370.398438 255.058594 360.5 252.898438 354.648438 251.550781 L 352.488281 251.191406 C 348.078125 250.46875 347.089844 250.199219 343.578125 248.941406 L 345.019531 245.789062 M 352.398438 229.589844 C 352.308594 236.878906 347.898438 237.511719 346.636719 237.511719 C 345.917969 237.511719 342.769531 237.328125 341.238281 233.730469 C 340.429688 231.839844 340.429688 229.679688 340.429688 229.050781 C 340.429688 224.550781 343.128906 221.671875 346.457031 221.671875 C 350.597656 221.671875 352.488281 225.628906 352.398438 229.589844 M 344.75 263.160156 C 352.757812 265.230469 352.847656 265.230469 353.929688 266.128906 C 354.828125 266.761719 355.730469 267.75 355.730469 269.640625 C 355.730469 272.339844 353.480469 275.128906 347.539062 275.128906 C 340.878906 275.128906 338.628906 271.351562 338.628906 268.199219 C 338.628906 265.230469 340.160156 263.519531 341.238281 262.261719 Z M 396.140625 229.949219 C 393.078125 228.871094 390.648438 227.878906 390.648438 225.359375 C 390.648438 224.28125 391.371094 221.308594 396.949219 221.308594 C 402.441406 221.308594 405.949219 223.648438 408.199219 225.089844 L 409.011719 224.820312 L 409.910156 215.011719 L 409.460938 214.46875 C 405.230469 213.300781 401.539062 212.21875 395.691406 212.21875 C 391.28125 212.21875 382.460938 212.578125 377.78125 219.328125 C 376.609375 220.949219 375.351562 223.648438 375.351562 227.25 C 375.351562 236.878906 382.820312 239.761719 387.050781 241.378906 L 390.46875 242.640625 C 392.898438 243.449219 396.859375 244.800781 396.859375 248.039062 C 396.859375 250.289062 394.789062 252.71875 389.75 252.71875 C 387.230469 252.71875 383.539062 251.910156 380.210938 250.199219 C 378.679688 249.390625 377.960938 248.761719 376.609375 247.679688 L 375.800781 248.039062 C 375.621094 252.71875 375.53125 253.710938 375.167969 258.210938 L 375.621094 259.019531 C 380.03125 260.640625 383.808594 262.078125 390.378906 262.078125 C 397.21875 262.078125 410.71875 260.820312 412.339844 247.949219 C 412.429688 247.230469 412.429688 246.601562 412.429688 245.96875 C 412.429688 236.070312 405.5 233.460938 400.550781 231.570312 Z M 472.640625 222.300781 C 465.082031 219.148438 461.121094 217.53125 461.121094 213.480469 C 461.121094 210.691406 463.730469 207.179688 469.671875 207.179688 C 476.511719 207.179688 480.558594 209.96875 483.890625 212.21875 L 484.699219 211.859375 L 485.421875 200.070312 L 484.96875 199.441406 C 481.101562 197.820312 477.050781 196.109375 468.320312 196.109375 C 451.402344 196.109375 445.550781 205.648438 445.550781 215.28125 C 445.550781 226.171875 454.011719 230.128906 459.050781 232.558594 L 462.019531 233.910156 C 468.230469 236.519531 473 238.769531 473 243.539062 C 473 246.960938 470.03125 251.011719 462.199219 251.011719 C 454.011719 251.011719 449.421875 247.410156 446.808594 245.339844 L 445.910156 245.609375 L 445.28125 258.300781 L 445.820312 259.019531 C 446.808594 259.378906 447.800781 259.828125 448.789062 260.101562 C 450.859375 260.820312 456.171875 262.351562 462.921875 262.351562 C 465.621094 262.351562 472.460938 262.078125 477.859375 259.558594 C 485.421875 255.871094 488.660156 249.03125 488.660156 241.378906 C 488.660156 236.25 486.679688 230.761719 481.910156 227.070312 C 479.480469 225.269531 477.140625 224.191406 474.980469 223.199219 Z M 522.410156 250.648438 C 520.878906 251.101562 519.796875 251.460938 518.269531 251.460938 C 513.679688 251.460938 513.320312 248.578125 513.136719 247.230469 C 512.867188 244.890625 512.867188 239.941406 512.957031 236.339844 L 513.136719 223.648438 L 521.238281 224.011719 L 521.777344 223.46875 L 522.679688 213.839844 L 522.136719 213.300781 L 513.136719 213.300781 L 513.410156 198.179688 L 512.777344 197.640625 C 506.660156 199.441406 505.039062 199.890625 498.648438 201.511719 L 498.289062 202.140625 L 498.378906 213.390625 L 493.519531 213.210938 L 492.980469 213.660156 L 492.167969 223.289062 L 492.707031 223.828125 L 498.378906 223.648438 L 498.109375 237.960938 C 498.019531 240.210938 497.929688 242.460938 497.929688 244.800781 C 497.929688 253.078125 498.109375 261.988281 512.148438 261.988281 C 515.660156 261.988281 518.449219 261.449219 521.597656 260.910156 L 522.230469 260.28125 L 523.128906 251.011719 Z M 569.121094 234.179688 C 569.210938 226.078125 569.210938 222.570312 566.871094 218.789062 C 565.070312 215.910156 561.472656 212.308594 549.953125 212.308594 C 542.210938 212.308594 537.441406 213.75 532.3125 215.28125 L 531.773438 216 L 531.320312 225.808594 L 532.042969 226.171875 C 535.191406 224.910156 541.042969 222.570312 547.070312 222.570312 C 550.402344 222.570312 551.75 223.109375 552.921875 224.28125 C 553.820312 225.179688 554.09375 226.800781 554.09375 228.148438 C 543.292969 229.589844 538.25 230.578125 532.851562 233.910156 C 527.8125 237.058594 526.101562 242.191406 526.101562 246.238281 C 526.101562 255.871094 533.03125 262.078125 541.851562 262.078125 C 548.601562 262.078125 552.472656 258.839844 554.363281 257.308594 L 554.363281 260.640625 L 554.902344 261.269531 C 561.382812 261 563.363281 260.910156 569.210938 261 L 569.660156 260.371094 C 569.03125 251.550781 569.03125 249.300781 569.03125 240.839844 L 569.121094 234.179688 M 554.273438 248.488281 C 552.382812 249.570312 549.953125 250.828125 546.980469 250.828125 C 543.742188 250.828125 541.042969 249.121094 541.042969 245.339844 C 541.042969 239.398438 548.152344 238.410156 554.273438 237.601562 Z M 604.851562 250.648438 C 603.320312 251.101562 602.238281 251.460938 600.710938 251.460938 C 596.121094 251.460938 595.761719 248.578125 595.578125 247.230469 C 595.308594 244.890625 595.308594 239.941406 595.398438 236.339844 L 595.578125 223.648438 L 603.679688 224.011719 L 604.21875 223.46875 L 605.121094 213.839844 L 604.578125 213.300781 L 595.578125 213.300781 L 595.851562 198.179688 L 595.21875 197.640625 C 589.101562 199.441406 587.480469 199.890625 581.089844 201.511719 L 580.730469 202.140625 L 580.820312 213.390625 L 575.960938 213.210938 L 575.421875 213.660156 L 574.609375 223.289062 L 575.148438 223.828125 L 580.820312 223.648438 L 580.550781 237.960938 C 580.460938 240.210938 580.371094 242.460938 580.371094 244.800781 C 580.371094 253.078125 580.550781 261.988281 594.589844 261.988281 C 598.101562 261.988281 600.890625 261.449219 604.039062 260.910156 L 604.671875 260.28125 L 605.570312 251.011719 Z M 651.46875 247.679688 C 648.050781 249.480469 644 251.550781 637.429688 251.550781 C 632.03125 251.550781 628.339844 249.839844 626.179688 246.601562 C 624.828125 244.710938 624.558594 242.910156 624.199219 241.109375 L 653.269531 240.570312 L 653.808594 239.941406 C 653.71875 235.53125 653.628906 231.03125 652.371094 226.53125 C 649.21875 215.910156 642.289062 213.75 639.230469 213.03125 C 636.980469 212.398438 634.910156 212.21875 632.839844 212.21875 C 618.710938 212.21875 609.347656 221.488281 609.347656 237.058594 C 609.347656 241.289062 610.070312 245.699219 611.507812 248.851562 C 616.730469 261 628.96875 262.078125 635.449219 262.078125 C 642.917969 262.078125 646.160156 260.730469 650.929688 258.839844 L 651.46875 258.121094 L 652.097656 247.949219 L 651.46875 247.679688 M 624.199219 231.570312 C 624.46875 228.78125 625.097656 225 628.519531 222.839844 C 629.597656 222.121094 630.859375 221.851562 632.121094 221.851562 C 635.089844 221.851562 636.890625 223.378906 637.878906 225 C 639.140625 226.980469 639.230469 229.140625 639.230469 231.210938 Z M 700.429688 197.28125 L 689 197.460938 L 688.457031 198 C 688.820312 209.699219 689.089844 217.53125 689.089844 227.878906 C 689.089844 238.859375 688.820312 249.75 688.546875 260.730469 L 689.089844 261.269531 C 695.75 261 697.1875 260.910156 704.390625 261 L 704.839844 260.460938 C 704.480469 250.648438 704.480469 248.398438 704.480469 239.21875 C 714.558594 239.308594 725.359375 239.308594 731.839844 231.390625 C 734.359375 228.328125 736.519531 223.199219 736.519531 216.898438 C 736.519531 213.03125 735.617188 204.480469 728.148438 200.25 C 722.75 197.101562 715.097656 197.101562 708.347656 197.101562 L 700.429688 197.28125 M 704.480469 208.171875 C 706.457031 208.078125 708.347656 208.078125 710.328125 208.078125 C 718.25 208.261719 720.410156 212.308594 720.410156 217.53125 C 720.410156 218.789062 720.410156 224.011719 715.640625 226.621094 C 713.207031 227.96875 709.878906 228.148438 704.480469 228.148438 Z M 782.78125 234.179688 C 782.871094 226.078125 782.871094 222.570312 780.53125 218.789062 C 778.730469 215.910156 775.132812 212.308594 763.613281 212.308594 C 755.871094 212.308594 751.101562 213.75 745.972656 215.28125 L 745.433594 216 L 744.980469 225.808594 L 745.703125 226.171875 C 748.851562 224.910156 754.703125 222.570312 760.730469 222.570312 C 764.0625 222.570312 765.410156 223.109375 766.582031 224.28125 C 767.480469 225.179688 767.753906 226.800781 767.753906 228.148438 C 756.953125 229.589844 751.910156 230.578125 746.511719 233.910156 C 741.472656 237.058594 739.761719 242.191406 739.761719 246.238281 C 739.761719 255.871094 746.691406 262.078125 755.511719 262.078125 C 762.261719 262.078125 766.132812 258.839844 768.023438 257.308594 L 768.023438 260.640625 L 768.5625 261.269531 C 775.042969 261 777.023438 260.910156 782.871094 261 L 783.320312 260.371094 C 782.691406 251.550781 782.691406 249.300781 782.691406 240.839844 L 782.78125 234.179688 M 767.933594 248.488281 C 766.042969 249.570312 763.613281 250.828125 760.640625 250.828125 C 757.402344 250.828125 754.703125 249.121094 754.703125 245.339844 C 754.703125 239.398438 761.8125 238.410156 767.933594 237.601562 Z M 819.320312 227.609375 L 821.839844 212.941406 L 821.300781 212.308594 C 820.671875 212.308594 820.039062 212.21875 819.410156 212.21875 C 815.71875 212.21875 811.582031 214.289062 808.699219 220.949219 L 808.96875 212.671875 L 808.25 211.949219 C 801.589844 213.390625 799.878906 213.660156 793.308594 214.648438 L 792.769531 215.191406 C 793.308594 221.941406 793.582031 225.988281 793.582031 238.5 C 793.582031 245.878906 793.488281 253.261719 793.308594 260.730469 L 793.851562 261.269531 C 800.511719 261 801.949219 260.910156 809.148438 261 L 809.601562 260.371094 C 809.238281 253.078125 808.699219 242.910156 808.699219 236.699219 C 808.699219 232.648438 808.699219 226.710938 814.820312 226.710938 C 816.351562 226.710938 817.25 227.25 818.511719 227.96875 Z M 873.320312 259.828125 C 864.859375 245.519531 863.960938 243.898438 857.121094 231.570312 C 863.332031 223.109375 863.960938 222.210938 870.351562 214.019531 L 869.898438 213.121094 L 855.230469 213.300781 L 854.332031 213.929688 C 847.308594 226.078125 846.410156 227.519531 842.269531 233.730469 L 842.269531 223.738281 C 842.359375 206.910156 842.449219 203.308594 842.898438 189.71875 L 842.179688 189.179688 L 826.519531 191.519531 L 825.980469 192.148438 C 826.609375 200.878906 826.878906 205.109375 827.058594 216.898438 C 827.238281 231.480469 827.238281 246.058594 827.148438 260.640625 L 827.78125 261.269531 C 833.808594 261 835.519531 261 842.359375 261 L 842.898438 260.371094 L 842.359375 245.160156 L 842.269531 234.808594 C 850.101562 249.210938 851.089844 251.191406 855.679688 260.730469 L 856.488281 261.269531 L 872.691406 260.640625 Z M 872.242188 261 "/>
</svg>
