<?xml version="1.0" encoding="UTF-8"?>
<svg xmlns="http://www.w3.org/2000/svg" xmlns:xlink="http://www.w3.org/1999/xlink" width="975" height="1300" viewBox="0 0 975 1300">
<path fill-rule="nonzero" fill="rgb(98.823529%, 78.823529%, 9.019608%)" fill-opacity="1" d="M 50 50 L 925 50 L 925 290 L 50 290 Z M 50 50 "/>
<path fill-rule="nonzero" fill="rgb(34.901961%, 14.901961%, 14.901961%)" fill-opacity="1" d="M 167.988281 124.890625 C 165.917969 126.511719 161.328125 129.929688 153.859375 129.929688 C 143.597656 129.929688 136.398438 122.28125 136.398438 109.5 C 136.398438 101.761719 139.097656 88.171875 153.769531 88.171875 C 160.519531 88.171875 164.207031 90.78125 166.457031 92.488281 L 167.269531 92.308594 L 168.078125 79.890625 L 167.71875 79.441406 C 164.480469 78.179688 158.988281 76.109375 151.070312 76.109375 C 127.757812 76.109375 119.660156 94.109375 119.660156 109.859375 C 119.660156 127.140625 130.1875 142.351562 152.148438 142.351562 C 159.707031 142.351562 164.660156 140.371094 167.539062 139.199219 L 167.988281 138.660156 L 168.617188 125.25 Z M 219.738281 140.371094 C 219.378906 132.988281 219.289062 130.46875 219.109375 121.109375 L 219.109375 114.359375 C 219.019531 105.808594 218.929688 100.859375 216.316406 97.078125 C 213.707031 93.390625 209.929688 92.21875 205.96875 92.21875 C 199.398438 92.21875 194.269531 95.371094 190.667969 97.53125 L 190.9375 69.808594 L 190.398438 69.179688 L 175.007812 71.609375 L 174.558594 72.148438 C 175.367188 80.878906 175.546875 84.121094 175.726562 95.730469 C 175.910156 103.019531 176 110.308594 176 117.601562 C 176 126.511719 175.816406 131.820312 175.636719 140.640625 L 176.089844 141.269531 C 182.75 140.910156 184.097656 140.910156 191.386719 140.910156 L 191.929688 140.371094 C 191.296875 126.871094 191.207031 122.820312 191.117188 106.890625 C 192.828125 105.71875 194.988281 104.191406 198.046875 104.191406 C 203 104.191406 203.359375 109.320312 203.71875 112.921875 C 203.898438 115.710938 203.988281 128.488281 203.988281 131.820312 C 203.988281 134.789062 203.898438 137.671875 203.898438 140.640625 L 204.347656 141.269531 C 210.828125 140.910156 212.269531 140.910156 219.199219 140.910156 Z M 246.289062 140.371094 C 245.835938 133.441406 245.476562 128.128906 245.476562 115.710938 C 245.476562 108.058594 245.65625 100.320312 245.746094 92.671875 L 245.117188 91.949219 L 229.636719 94.648438 L 229.097656 95.191406 C 229.816406 102.03125 230.085938 105.179688 230.085938 117.960938 C 230.085938 127.769531 229.816406 133.261719 229.546875 140.640625 L 230.085938 141.269531 C 236.566406 141 238.367188 140.910156 245.65625 141 L 246.289062 140.371094 M 244.847656 83.308594 L 245.117188 71.070312 L 244.578125 70.53125 L 229.90625 72.328125 L 229.367188 72.960938 C 229.546875 76.199219 229.636719 78.089844 229.636719 80.25 C 229.636719 81.960938 229.636719 83.761719 229.546875 85.46875 L 230.175781 86.011719 C 236.296875 84.929688 238.007812 84.75 244.398438 83.941406 Z M 300.378906 140.371094 C 299.929688 132.449219 299.929688 129.929688 299.75 121.109375 L 299.75 114.089844 C 299.660156 105.449219 299.570312 101.308594 297.320312 97.621094 C 294.527344 92.941406 289.398438 92.21875 286.160156 92.21875 C 280.667969 92.21875 275.898438 95.101562 271.757812 97.53125 L 271.9375 92.578125 L 271.039062 91.949219 C 264.109375 93.390625 262.578125 93.660156 255.828125 94.558594 L 255.289062 95.191406 C 256.007812 103.019531 256.550781 108.691406 256.550781 123.359375 C 256.550781 129.121094 256.457031 134.878906 256.367188 140.640625 L 256.910156 141.179688 C 263.390625 140.910156 264.738281 140.910156 271.9375 140.910156 L 272.480469 140.371094 C 271.9375 126.511719 271.847656 123 271.757812 106.890625 C 273.648438 105.628906 275.808594 104.101562 278.6875 104.101562 C 283.640625 104.101562 284.089844 109.410156 284.359375 112.648438 C 284.539062 115.621094 284.628906 127.949219 284.628906 131.371094 C 284.628906 134.429688 284.539062 137.578125 284.539062 140.640625 L 285.078125 141.179688 C 291.019531 141 292.550781 140.910156 299.75 140.910156 Z M 350.6875 114.179688 C 350.777344 106.078125 350.777344 102.570312 348.4375 98.789062 C 346.636719 95.910156 343.039062 92.308594 331.519531 92.308594 C 323.777344 92.308594 319.007812 93.75 313.878906 95.28125 L 313.339844 96 L 312.886719 105.808594 L 313.609375 106.171875 C 316.757812 104.910156 322.609375 102.570312 328.636719 102.570312 C 331.96875 102.570312 333.316406 103.109375 334.488281 104.28125 C 335.386719 105.179688 335.660156 106.800781 335.660156 108.148438 C 324.859375 109.589844 319.816406 110.578125 314.417969 113.910156 C 309.378906 117.058594 307.667969 122.191406 307.667969 126.238281 C 307.667969 135.871094 314.597656 142.078125 323.417969 142.078125 C 330.167969 142.078125 334.039062 138.839844 335.929688 137.308594 L 335.929688 140.640625 L 336.46875 141.269531 C 342.949219 141 344.929688 140.910156 350.777344 141 L 351.226562 140.371094 C 350.597656 131.550781 350.597656 129.300781 350.597656 120.839844 L 350.6875 114.179688 M 335.839844 128.488281 C 333.949219 129.570312 331.519531 130.828125 328.546875 130.828125 C 325.308594 130.828125 322.609375 129.121094 322.609375 125.339844 C 322.609375 119.398438 329.71875 118.410156 335.839844 117.601562 Z M 434.207031 124.890625 C 432.136719 126.511719 427.546875 129.929688 420.078125 129.929688 C 409.816406 129.929688 402.617188 122.28125 402.617188 109.5 C 402.617188 101.761719 405.316406 88.171875 419.988281 88.171875 C 426.738281 88.171875 430.425781 90.78125 432.675781 92.488281 L 433.488281 92.308594 L 434.296875 79.890625 L 433.9375 79.441406 C 430.699219 78.179688 425.207031 76.109375 417.289062 76.109375 C 393.976562 76.109375 385.878906 94.109375 385.878906 109.859375 C 385.878906 127.140625 396.40625 142.351562 418.367188 142.351562 C 425.925781 142.351562 430.878906 140.371094 433.757812 139.199219 L 434.207031 138.660156 L 434.835938 125.25 Z M 481.90625 114.179688 C 481.996094 106.078125 481.996094 102.570312 479.65625 98.789062 C 477.855469 95.910156 474.257812 92.308594 462.738281 92.308594 C 454.996094 92.308594 450.226562 93.75 445.097656 95.28125 L 444.558594 96 L 444.105469 105.808594 L 444.828125 106.171875 C 447.976562 104.910156 453.828125 102.570312 459.855469 102.570312 C 463.1875 102.570312 464.535156 103.109375 465.707031 104.28125 C 466.605469 105.179688 466.878906 106.800781 466.878906 108.148438 C 456.078125 109.589844 451.035156 110.578125 445.636719 113.910156 C 440.597656 117.058594 438.886719 122.191406 438.886719 126.238281 C 438.886719 135.871094 445.816406 142.078125 454.636719 142.078125 C 461.386719 142.078125 465.257812 138.839844 467.148438 137.308594 L 467.148438 140.640625 L 467.6875 141.269531 C 474.167969 141 476.148438 140.910156 481.996094 141 L 482.445312 140.371094 C 481.816406 131.550781 481.816406 129.300781 481.816406 120.839844 L 481.90625 114.179688 M 467.058594 128.488281 C 465.167969 129.570312 462.738281 130.828125 459.765625 130.828125 C 456.527344 130.828125 453.828125 129.121094 453.828125 125.339844 C 453.828125 119.398438 460.9375 118.410156 467.058594 117.601562 Z M 562.730469 140.371094 C 562.277344 132 562.1875 129.660156 562.1875 119.488281 L 562.1875 112.738281 C 562.277344 106.710938 562.367188 101.128906 559.757812 97.351562 C 556.25 92.21875 550.039062 92.21875 548.597656 92.21875 C 541.21875 92.21875 536.269531 95.550781 532.667969 98.070312 C 531.410156 96 529.160156 92.21875 521.960938 92.21875 C 516.019531 92.21875 512.148438 94.921875 508.007812 97.800781 L 508.007812 92.761719 L 507.199219 91.949219 C 500.179688 93.300781 498.199219 93.660156 491.898438 94.558594 L 491.359375 95.191406 C 492.078125 102.390625 492.617188 107.339844 492.617188 125.160156 C 492.617188 130.289062 492.527344 135.511719 492.527344 140.640625 L 492.980469 141.179688 C 498.738281 141 500.71875 140.910156 508.1875 140.910156 L 508.730469 140.371094 C 508.097656 126.511719 508.007812 122.371094 507.917969 106.710938 C 509.808594 105.359375 511.878906 104.191406 514.128906 104.191406 C 519.710938 104.191406 519.890625 110.578125 519.890625 118.320312 C 519.890625 131.371094 519.800781 133.351562 519.617188 140.640625 L 520.160156 141.269531 C 527 140.910156 528.890625 140.910156 535.097656 140.910156 L 535.640625 140.371094 C 535.097656 131.820312 535.007812 129.300781 534.917969 118.410156 L 534.917969 115.078125 L 534.828125 105.988281 C 536.359375 105 538.339844 103.738281 541.039062 103.738281 C 546.167969 103.738281 546.980469 108.601562 546.980469 116.339844 C 546.980469 118.050781 546.890625 119.761719 546.890625 121.46875 C 546.800781 124.53125 546.710938 137.941406 546.617188 140.640625 L 547.160156 141.179688 C 553.910156 140.910156 555.890625 140.910156 562.1875 140.910156 Z M 588.019531 92.851562 L 587.300781 92.039062 C 580.730469 93.480469 578.839844 93.839844 572.359375 94.648438 L 571.820312 95.28125 C 572.808594 105.988281 573.167969 110.128906 573.167969 136.050781 C 573.167969 146.761719 572.988281 152.878906 572.71875 163.050781 L 573.257812 163.5 C 579.648438 163.230469 581.539062 163.140625 588.378906 163.230469 L 588.917969 162.78125 L 588.289062 141.359375 C 594.859375 141.269531 603.949219 141.179688 611.238281 134.339844 C 617 128.941406 618.890625 121.289062 618.890625 115.171875 C 618.890625 100.859375 610.160156 92.21875 600.078125 92.21875 C 593.871094 92.21875 590.359375 94.738281 587.839844 96.449219 L 588.019531 92.851562 M 588.199219 105.089844 C 590.179688 103.921875 591.351562 103.289062 593.601562 103.289062 C 594.949219 103.289062 597.648438 103.46875 599.898438 105.988281 C 602.691406 109.050781 603.140625 113.640625 603.140625 116.699219 C 603.140625 121.921875 601.429688 126.601562 597.828125 129.121094 C 594.949219 131.101562 591.351562 131.28125 588.199219 131.371094 Z M 679.730469 102.300781 C 672.171875 99.148438 668.210938 97.53125 668.210938 93.480469 C 668.210938 90.691406 670.820312 87.179688 676.761719 87.179688 C 683.601562 87.179688 687.648438 89.96875 690.980469 92.21875 L 691.789062 91.859375 L 692.511719 80.070312 L 692.058594 79.441406 C 688.191406 77.820312 684.140625 76.109375 675.410156 76.109375 C 658.492188 76.109375 652.640625 85.648438 652.640625 95.28125 C 652.640625 106.171875 661.101562 110.128906 666.140625 112.558594 L 669.109375 113.910156 C 675.320312 116.519531 680.089844 118.769531 680.089844 123.539062 C 680.089844 126.960938 677.121094 131.011719 669.289062 131.011719 C 661.101562 131.011719 656.511719 127.410156 653.898438 125.339844 L 653 125.609375 L 652.371094 138.300781 L 652.910156 139.019531 C 653.898438 139.378906 654.890625 139.828125 655.878906 140.101562 C 657.949219 140.820312 663.261719 142.351562 670.011719 142.351562 C 672.710938 142.351562 679.550781 142.078125 684.949219 139.558594 C 692.511719 135.871094 695.75 129.03125 695.75 121.378906 C 695.75 116.25 693.769531 110.761719 689 107.070312 C 686.570312 105.269531 684.230469 104.191406 682.070312 103.199219 Z M 729.5 130.648438 C 727.96875 131.101562 726.886719 131.460938 725.359375 131.460938 C 720.769531 131.460938 720.410156 128.578125 720.226562 127.230469 C 719.957031 124.890625 719.957031 119.941406 720.046875 116.339844 L 720.226562 103.648438 L 728.328125 104.011719 L 728.867188 103.46875 L 729.769531 93.839844 L 729.226562 93.300781 L 720.226562 93.300781 L 720.5 78.179688 L 719.867188 77.640625 C 713.75 79.441406 712.128906 79.890625 705.738281 81.511719 L 705.378906 82.140625 L 705.46875 93.390625 L 700.609375 93.210938 L 700.070312 93.660156 L 699.257812 103.289062 L 699.796875 103.828125 L 705.46875 103.648438 L 705.199219 117.960938 C 705.109375 120.210938 705.019531 122.460938 705.019531 124.800781 C 705.019531 133.078125 705.199219 141.988281 719.238281 141.988281 C 722.75 141.988281 725.539062 141.449219 728.6875 140.910156 L 729.320312 140.28125 L 730.21875 131.011719 Z M 776.207031 114.179688 C 776.296875 106.078125 776.296875 102.570312 773.957031 98.789062 C 772.15625 95.910156 768.558594 92.308594 757.039062 92.308594 C 749.296875 92.308594 744.527344 93.75 739.398438 95.28125 L 738.859375 96 L 738.40625 105.808594 L 739.128906 106.171875 C 742.277344 104.910156 748.128906 102.570312 754.15625 102.570312 C 757.488281 102.570312 758.835938 103.109375 760.007812 104.28125 C 760.90625 105.179688 761.179688 106.800781 761.179688 108.148438 C 750.378906 109.589844 745.335938 110.578125 739.9375 113.910156 C 734.898438 117.058594 733.1875 122.191406 733.1875 126.238281 C 733.1875 135.871094 740.117188 142.078125 748.9375 142.078125 C 755.6875 142.078125 759.558594 138.839844 761.449219 137.308594 L 761.449219 140.640625 L 761.988281 141.269531 C 768.46875 141 770.449219 140.910156 776.296875 141 L 776.746094 140.371094 C 776.117188 131.550781 776.117188 129.300781 776.117188 120.839844 L 776.207031 114.179688 M 761.359375 128.488281 C 759.46875 129.570312 757.039062 130.828125 754.066406 130.828125 C 750.828125 130.828125 748.128906 129.121094 748.128906 125.339844 C 748.128906 119.398438 755.238281 118.410156 761.359375 117.601562 Z M 811.941406 130.648438 C 810.410156 131.101562 809.328125 131.460938 807.800781 131.460938 C 803.210938 131.460938 802.851562 128.578125 802.667969 127.230469 C 802.398438 124.890625 802.398438 119.941406 802.488281 116.339844 L 802.667969 103.648438 L 810.769531 104.011719 L 811.308594 103.46875 L 812.210938 93.839844 L 811.667969 93.300781 L 802.667969 93.300781 L 802.941406 78.179688 L 802.308594 77.640625 C 796.191406 79.441406 794.570312 79.890625 788.179688 81.511719 L 787.820312 82.140625 L 787.910156 93.390625 L 783.050781 93.210938 L 782.511719 93.660156 L 781.699219 103.289062 L 782.238281 103.828125 L 787.910156 103.648438 L 787.640625 117.960938 C 787.550781 120.210938 787.460938 122.460938 787.460938 124.800781 C 787.460938 133.078125 787.640625 141.988281 801.679688 141.988281 C 805.191406 141.988281 807.980469 141.449219 811.128906 140.910156 L 811.761719 140.28125 L 812.660156 131.011719 Z M 858.558594 127.679688 C 855.140625 129.480469 851.089844 131.550781 844.519531 131.550781 C 839.121094 131.550781 835.429688 129.839844 833.269531 126.601562 C 831.917969 124.710938 831.648438 122.910156 831.289062 121.109375 L 860.359375 120.570312 L 860.898438 119.941406 C 860.808594 115.53125 860.71875 111.03125 859.460938 106.53125 C 856.308594 95.910156 849.378906 93.75 846.320312 93.03125 C 844.070312 92.398438 842 92.21875 839.929688 92.21875 C 825.800781 92.21875 816.4375 101.488281 816.4375 117.058594 C 816.4375 121.289062 817.160156 125.699219 818.597656 128.851562 C 823.820312 141 836.058594 142.078125 842.539062 142.078125 C 850.007812 142.078125 853.25 140.730469 858.019531 138.839844 L 858.558594 138.121094 L 859.1875 127.949219 L 858.558594 127.679688 M 831.289062 111.570312 C 831.558594 108.78125 832.1875 105 835.609375 102.839844 C 836.6875 102.121094 837.949219 101.851562 839.210938 101.851562 C 842.179688 101.851562 843.980469 103.378906 844.96875 105 C 846.230469 106.980469 846.320312 109.140625 846.320312 111.210938 Z M 863.777344 141 "/>
<path fill-rule="nonzero" fill="rgb(34.901961%, 14.901961%, 14.901961%)" fill-opacity="1" d="M 411.53125 197.28125 L 400.101562 197.460938 L 399.558594 198 C 399.921875 209.699219 400.191406 217.53125 400.191406 227.878906 C 400.191406 238.859375 399.921875 249.75 399.648438 260.730469 L 400.191406 261.269531 C 406.851562 261 408.289062 260.910156 415.492188 261 L 415.941406 260.460938 C 415.582031 250.648438 415.582031 248.398438 415.582031 239.21875 C 425.660156 239.308594 436.460938 239.308594 442.941406 231.390625 C 445.460938 228.328125 447.621094 223.199219 447.621094 216.898438 C 447.621094 213.03125 446.71875 204.480469 439.25 200.25 C 433.851562 197.101562 426.199219 197.101562 419.449219 197.101562 L 411.53125 197.28125 M 415.582031 208.171875 C 417.558594 208.078125 419.449219 208.078125 421.429688 208.078125 C 429.351562 208.261719 431.511719 212.308594 431.511719 217.53125 C 431.511719 218.789062 431.511719 224.011719 426.742188 226.621094 C 424.308594 227.96875 420.980469 228.148438 415.582031 228.148438 Z M 493.878906 234.179688 C 493.96875 226.078125 493.96875 222.570312 491.628906 218.789062 C 489.828125 215.910156 486.230469 212.308594 474.710938 212.308594 C 466.96875 212.308594 462.199219 213.75 457.070312 215.28125 L 456.53125 216 L 456.078125 225.808594 L 456.800781 226.171875 C 459.949219 224.910156 465.800781 222.570312 471.828125 222.570312 C 475.160156 222.570312 476.507812 223.109375 477.679688 224.28125 C 478.578125 225.179688 478.851562 226.800781 478.851562 228.148438 C 468.050781 229.589844 463.007812 230.578125 457.609375 233.910156 C 452.570312 237.058594 450.859375 242.191406 450.859375 246.238281 C 450.859375 255.871094 457.789062 262.078125 466.609375 262.078125 C 473.359375 262.078125 477.230469 258.839844 479.121094 257.308594 L 479.121094 260.640625 L 479.660156 261.269531 C 486.140625 261 488.121094 260.910156 493.96875 261 L 494.417969 260.371094 C 493.789062 251.550781 493.789062 249.300781 493.789062 240.839844 L 493.878906 234.179688 M 479.03125 248.488281 C 477.140625 249.570312 474.710938 250.828125 471.738281 250.828125 C 468.5 250.828125 465.800781 249.121094 465.800781 245.339844 C 465.800781 239.398438 472.910156 238.410156 479.03125 237.601562 Z M 530.421875 227.609375 L 532.941406 212.941406 L 532.402344 212.308594 C 531.773438 212.308594 531.140625 212.21875 530.511719 212.21875 C 526.820312 212.21875 522.683594 214.289062 519.800781 220.949219 L 520.070312 212.671875 L 519.351562 211.949219 C 512.691406 213.390625 510.980469 213.660156 504.410156 214.648438 L 503.871094 215.191406 C 504.410156 221.941406 504.683594 225.988281 504.683594 238.5 C 504.683594 245.878906 504.589844 253.261719 504.410156 260.730469 L 504.953125 261.269531 C 511.613281 261 513.050781 260.910156 520.25 261 L 520.703125 260.371094 C 520.339844 253.078125 519.800781 242.910156 519.800781 236.699219 C 519.800781 232.648438 519.800781 226.710938 525.921875 226.710938 C 527.453125 226.710938 528.351562 227.25 529.613281 227.96875 Z M 584.421875 259.828125 C 575.960938 245.519531 575.0625 243.898438 568.222656 231.570312 C 574.433594 223.109375 575.0625 222.210938 581.453125 214.019531 L 581 213.121094 L 566.332031 213.300781 L 565.433594 213.929688 C 558.410156 226.078125 557.511719 227.519531 553.371094 233.730469 L 553.371094 223.738281 C 553.460938 206.910156 553.550781 203.308594 554 189.71875 L 553.28125 189.179688 L 537.621094 191.519531 L 537.082031 192.148438 C 537.710938 200.878906 537.980469 205.109375 538.160156 216.898438 C 538.339844 231.480469 538.339844 246.058594 538.25 260.640625 L 538.882812 261.269531 C 544.910156 261 546.621094 261 553.460938 261 L 554 260.371094 L 553.460938 245.160156 L 553.371094 234.808594 C 561.203125 249.210938 562.191406 251.191406 566.78125 260.730469 L 567.589844 261.269531 L 583.792969 260.640625 Z M 583.339844 261 "/>
</svg>
