<?xml version="1.0" encoding="UTF-8"?>
<svg xmlns="http://www.w3.org/2000/svg" xmlns:xlink="http://www.w3.org/1999/xlink" width="975" height="1300" viewBox="0 0 975 1300">
<path fill-rule="nonzero" fill="rgb(98.823529%, 78.823529%, 9.019608%)" fill-opacity="1" d="M 50 50 L 925 50 L 925 290 L 50 290 Z M 50 50 "/>
<path fill-rule="nonzero" fill="rgb(34.901961%, 14.901961%, 14.901961%)" fill-opacity="1" d="M 170.195312 102.300781 C 162.636719 99.148438 158.675781 97.53125 158.675781 93.480469 C 158.675781 90.691406 161.285156 87.179688 167.226562 87.179688 C 174.066406 87.179688 178.113281 89.96875 181.445312 92.21875 L 182.253906 91.859375 L 182.976562 80.070312 L 182.523438 79.441406 C 178.65625 77.820312 174.605469 76.109375 165.875 76.109375 C 148.957031 76.109375 143.105469 85.648438 143.105469 95.28125 C 143.105469 106.171875 151.566406 110.128906 156.605469 112.558594 L 159.574219 113.910156 C 165.785156 116.519531 170.554688 118.769531 170.554688 123.539062 C 170.554688 126.960938 167.585938 131.011719 159.753906 131.011719 C 151.566406 131.011719 146.976562 127.410156 144.363281 125.339844 L 143.464844 125.609375 L 142.835938 138.300781 L 143.375 139.019531 C 144.363281 139.378906 145.355469 139.828125 146.34375 140.101562 C 148.414062 140.820312 153.726562 142.351562 160.476562 142.351562 C 163.175781 142.351562 170.015625 142.078125 175.414062 139.558594 C 182.976562 135.871094 186.214844 129.03125 186.214844 121.378906 C 186.214844 116.25 184.234375 110.761719 179.464844 107.070312 C 177.035156 105.269531 174.695312 104.191406 172.535156 103.199219 Z M 234.8125 114.179688 C 234.902344 106.078125 234.902344 102.570312 232.5625 98.789062 C 230.761719 95.910156 227.164062 92.308594 215.644531 92.308594 C 207.902344 92.308594 203.132812 93.75 198.003906 95.28125 L 197.464844 96 L 197.011719 105.808594 L 197.734375 106.171875 C 200.882812 104.910156 206.734375 102.570312 212.761719 102.570312 C 216.09375 102.570312 217.441406 103.109375 218.613281 104.28125 C 219.511719 105.179688 219.785156 106.800781 219.785156 108.148438 C 208.984375 109.589844 203.941406 110.578125 198.542969 113.910156 C 193.503906 117.058594 191.792969 122.191406 191.792969 126.238281 C 191.792969 135.871094 198.722656 142.078125 207.542969 142.078125 C 214.292969 142.078125 218.164062 138.839844 220.054688 137.308594 L 220.054688 140.640625 L 220.59375 141.269531 C 227.074219 141 229.054688 140.910156 234.902344 141 L 235.351562 140.371094 C 234.722656 131.550781 234.722656 129.300781 234.722656 120.839844 L 234.8125 114.179688 M 219.964844 128.488281 C 218.074219 129.570312 215.644531 130.828125 212.671875 130.828125 C 209.433594 130.828125 206.734375 129.121094 206.734375 125.339844 C 206.734375 119.398438 213.84375 118.410156 219.964844 117.601562 Z M 315.636719 140.371094 C 315.183594 132 315.09375 129.660156 315.09375 119.488281 L 315.09375 112.738281 C 315.183594 106.710938 315.273438 101.128906 312.664062 97.351562 C 309.15625 92.21875 302.945312 92.21875 301.503906 92.21875 C 294.125 92.21875 289.175781 95.550781 285.574219 98.070312 C 284.316406 96 282.066406 92.21875 274.867188 92.21875 C 268.925781 92.21875 265.054688 94.921875 260.914062 97.800781 L 260.914062 92.761719 L 260.105469 91.949219 C 253.085938 93.300781 251.105469 93.660156 244.804688 94.558594 L 244.265625 95.191406 C 244.984375 102.390625 245.523438 107.339844 245.523438 125.160156 C 245.523438 130.289062 245.433594 135.511719 245.433594 140.640625 L 245.886719 141.179688 C 251.644531 141 253.625 140.910156 261.09375 140.910156 L 261.636719 140.371094 C 261.003906 126.511719 260.914062 122.371094 260.824219 106.710938 C 262.714844 105.359375 264.785156 104.191406 267.035156 104.191406 C 272.617188 104.191406 272.796875 110.578125 272.796875 118.320312 C 272.796875 131.371094 272.707031 133.351562 272.523438 140.640625 L 273.066406 141.269531 C 279.90625 140.910156 281.796875 140.910156 288.003906 140.910156 L 288.546875 140.371094 C 288.003906 131.820312 287.914062 129.300781 287.824219 118.410156 L 287.824219 115.078125 L 287.734375 105.988281 C 289.265625 105 291.246094 103.738281 293.945312 103.738281 C 299.074219 103.738281 299.886719 108.601562 299.886719 116.339844 C 299.886719 118.050781 299.796875 119.761719 299.796875 121.46875 C 299.707031 124.53125 299.617188 137.941406 299.523438 140.640625 L 300.066406 141.179688 C 306.816406 140.910156 308.796875 140.910156 315.09375 140.910156 Z M 369.1875 92.851562 L 354.515625 93.570312 L 353.886719 94.109375 C 354.515625 104.28125 354.515625 118.679688 354.515625 120.121094 C 354.515625 122.730469 354.515625 124.171875 354.425781 127.769531 C 351.996094 129.390625 350.105469 130.738281 347.675781 130.738281 C 341.195312 130.738281 341.195312 123.898438 341.195312 118.589844 C 341.195312 116.339844 341.195312 114 341.285156 111.75 L 341.464844 93.570312 L 340.835938 92.851562 L 325.984375 93.570312 L 325.355469 94.109375 C 325.894531 101.671875 325.984375 104.191406 325.984375 113.28125 L 325.984375 119.578125 C 325.894531 129.390625 326.347656 133.53125 329.585938 137.308594 C 332.554688 140.640625 336.875 142.078125 341.375 142.078125 C 347.765625 142.078125 351.457031 139.199219 354.695312 136.679688 L 354.605469 140.730469 L 355.234375 141.269531 C 361.804688 141 363.785156 141 369.636719 141 L 370.175781 140.460938 C 369.726562 134.070312 369.546875 130.648438 369.546875 118.949219 C 369.546875 110.488281 369.636719 102.03125 369.816406 93.570312 Z M 420.304688 127.679688 C 416.886719 129.480469 412.835938 131.550781 406.265625 131.550781 C 400.867188 131.550781 397.175781 129.839844 395.015625 126.601562 C 393.664062 124.710938 393.394531 122.910156 393.035156 121.109375 L 422.105469 120.570312 L 422.644531 119.941406 C 422.554688 115.53125 422.464844 111.03125 421.207031 106.53125 C 418.054688 95.910156 411.125 93.75 408.066406 93.03125 C 405.816406 92.398438 403.746094 92.21875 401.675781 92.21875 C 387.546875 92.21875 378.183594 101.488281 378.183594 117.058594 C 378.183594 121.289062 378.90625 125.699219 380.34375 128.851562 C 385.566406 141 397.804688 142.078125 404.285156 142.078125 C 411.753906 142.078125 414.996094 140.730469 419.765625 138.839844 L 420.304688 138.121094 L 420.933594 127.949219 L 420.304688 127.679688 M 393.035156 111.570312 C 393.304688 108.78125 393.933594 105 397.355469 102.839844 C 398.433594 102.121094 399.695312 101.851562 400.957031 101.851562 C 403.925781 101.851562 405.726562 103.378906 406.714844 105 C 407.976562 106.980469 408.066406 109.140625 408.066406 111.210938 Z M 446.761719 140.371094 C 446.3125 130.019531 445.863281 120.570312 445.863281 92.128906 C 445.863281 83.578125 445.953125 79.53125 446.3125 69.808594 L 445.683594 69.179688 L 430.292969 71.609375 L 429.933594 72.148438 C 430.832031 83.128906 430.921875 86.101562 431.101562 100.679688 C 431.195312 105.988281 431.195312 111.300781 431.195312 116.609375 C 431.195312 126.328125 431.011719 131.730469 430.652344 140.640625 L 431.195312 141.269531 C 437.222656 141 439.652344 140.910156 446.222656 141 Z M 495.546875 77.28125 L 484.117188 77.460938 L 483.574219 78 C 483.9375 89.699219 484.207031 97.53125 484.207031 107.878906 C 484.207031 118.859375 483.9375 129.75 483.664062 140.730469 L 484.207031 141.269531 C 490.867188 141 492.304688 140.910156 499.507812 141 L 499.957031 140.460938 C 499.597656 130.648438 499.597656 128.398438 499.597656 119.21875 C 509.675781 119.308594 520.476562 119.308594 526.957031 111.390625 C 529.476562 108.328125 531.636719 103.199219 531.636719 96.898438 C 531.636719 93.03125 530.734375 84.480469 523.265625 80.25 C 517.867188 77.101562 510.214844 77.101562 503.464844 77.101562 L 495.546875 77.28125 M 499.597656 88.171875 C 501.574219 88.078125 503.464844 88.078125 505.445312 88.078125 C 513.367188 88.261719 515.527344 92.308594 515.527344 97.53125 C 515.527344 98.789062 515.527344 104.011719 510.757812 106.621094 C 508.324219 107.96875 504.996094 108.148438 499.597656 108.148438 Z M 550.804688 127.140625 L 536.40625 127.410156 L 535.957031 128.128906 L 536.136719 140.640625 L 536.585938 141.269531 L 550.984375 140.910156 L 551.433594 140.371094 L 551.253906 127.679688 Z M 626.585938 89.339844 L 627.125 88.890625 L 627.757812 77.640625 L 627.304688 77.371094 L 582.757812 77.371094 L 582.125 77.910156 L 581.496094 88.980469 L 581.945312 89.519531 L 596.617188 89.160156 C 596.707031 112.738281 596.707031 118.410156 595.988281 140.730469 L 596.527344 141.269531 C 603.1875 141 604.988281 140.910156 612.457031 140.910156 L 612.996094 140.371094 C 612.546875 127.769531 612.367188 115.171875 612.367188 102.480469 C 612.367188 97.53125 612.457031 94.738281 612.636719 88.980469 Z M 673.5625 114.179688 C 673.652344 106.078125 673.652344 102.570312 671.3125 98.789062 C 669.511719 95.910156 665.914062 92.308594 654.394531 92.308594 C 646.652344 92.308594 641.882812 93.75 636.753906 95.28125 L 636.214844 96 L 635.761719 105.808594 L 636.484375 106.171875 C 639.632812 104.910156 645.484375 102.570312 651.511719 102.570312 C 654.84375 102.570312 656.191406 103.109375 657.363281 104.28125 C 658.261719 105.179688 658.535156 106.800781 658.535156 108.148438 C 647.734375 109.589844 642.691406 110.578125 637.292969 113.910156 C 632.253906 117.058594 630.542969 122.191406 630.542969 126.238281 C 630.542969 135.871094 637.472656 142.078125 646.292969 142.078125 C 653.042969 142.078125 656.914062 138.839844 658.804688 137.308594 L 658.804688 140.640625 L 659.34375 141.269531 C 665.824219 141 667.804688 140.910156 673.652344 141 L 674.101562 140.371094 C 673.472656 131.550781 673.472656 129.300781 673.472656 120.839844 L 673.5625 114.179688 M 658.714844 128.488281 C 656.824219 129.570312 654.394531 130.828125 651.421875 130.828125 C 648.183594 130.828125 645.484375 129.121094 645.484375 125.339844 C 645.484375 119.398438 652.59375 118.410156 658.714844 117.601562 Z M 724.324219 93.03125 L 711.816406 93.300781 L 711.09375 93.929688 C 709.566406 100.140625 709.207031 101.488281 707.046875 108.511719 L 704.707031 116.25 L 702.726562 123 L 701.015625 116.609375 L 698.40625 107.070312 L 694.804688 93.390625 L 694.085938 92.851562 C 687.066406 93.390625 685.535156 93.480469 678.15625 93.660156 L 677.707031 94.289062 C 680.945312 102.839844 689.316406 125.429688 694.894531 142.710938 C 691.207031 152.070312 690.484375 153.691406 686.433594 162.601562 L 686.886719 163.320312 C 689.136719 163.230469 691.65625 163.140625 693.996094 163.140625 C 696.246094 163.140625 698.585938 163.230469 700.835938 163.230469 L 701.464844 162.691406 C 706.414062 143.25 708.84375 135.691406 720.726562 104.371094 C 722.074219 100.769531 723.425781 97.261719 724.683594 93.75 Z M 744.933594 140.371094 C 744.484375 130.019531 744.035156 120.570312 744.035156 92.128906 C 744.035156 83.578125 744.125 79.53125 744.484375 69.808594 L 743.855469 69.179688 L 728.464844 71.609375 L 728.105469 72.148438 C 729.003906 83.128906 729.09375 86.101562 729.273438 100.679688 C 729.367188 105.988281 729.367188 111.300781 729.367188 116.609375 C 729.367188 126.328125 729.183594 131.730469 728.824219 140.640625 L 729.367188 141.269531 C 735.394531 141 737.824219 140.910156 744.394531 141 Z M 801.1875 117.058594 C 801.1875 113.550781 801.1875 98.96875 788.585938 94.019531 C 784.625 92.488281 779.945312 92.308594 777.605469 92.308594 C 761.945312 92.308594 753.125 100.679688 753.125 117.238281 C 753.125 123 754.027344 128.851562 757.355469 133.710938 C 759.695312 137.21875 764.105469 142.078125 776.976562 142.078125 C 796.054688 142.078125 801.1875 130.558594 801.1875 117.058594 M 785.617188 116.96875 C 785.617188 124.351562 784.625 132.539062 777.15625 132.539062 C 774.816406 132.539062 773.195312 131.460938 772.117188 130.46875 C 770.585938 128.941406 768.875 125.878906 768.875 117.148438 C 768.875 114.539062 768.875 108.78125 770.675781 105.628906 C 772.027344 103.199219 774.367188 101.578125 777.246094 101.578125 C 779.765625 101.578125 781.835938 102.929688 783.007812 104.371094 C 785.167969 106.980469 785.617188 112.109375 785.617188 116.96875 Z M 835.746094 107.609375 L 838.265625 92.941406 L 837.726562 92.308594 C 837.097656 92.308594 836.464844 92.21875 835.835938 92.21875 C 832.144531 92.21875 828.007812 94.289062 825.125 100.949219 L 825.394531 92.671875 L 824.675781 91.949219 C 818.015625 93.390625 816.304688 93.660156 809.734375 94.648438 L 809.195312 95.191406 C 809.734375 101.941406 810.007812 105.988281 810.007812 118.5 C 810.007812 125.878906 809.914062 133.261719 809.734375 140.730469 L 810.277344 141.269531 C 816.9375 141 818.375 140.910156 825.574219 141 L 826.027344 140.371094 C 825.664062 133.078125 825.125 122.910156 825.125 116.699219 C 825.125 112.648438 825.125 106.710938 831.246094 106.710938 C 832.777344 106.710938 833.675781 107.25 834.9375 107.96875 Z M 838.085938 141 "/>
<path fill-rule="nonzero" fill="rgb(34.901961%, 14.901961%, 14.901961%)" fill-opacity="1" d="M 303.890625 222.300781 C 296.332031 219.148438 292.371094 217.53125 292.371094 213.480469 C 292.371094 210.691406 294.980469 207.179688 300.921875 207.179688 C 307.761719 207.179688 311.808594 209.96875 315.140625 212.21875 L 315.949219 211.859375 L 316.671875 200.070312 L 316.21875 199.441406 C 312.351562 197.820312 308.300781 196.109375 299.570312 196.109375 C 282.652344 196.109375 276.800781 205.648438 276.800781 215.28125 C 276.800781 226.171875 285.261719 230.128906 290.300781 232.558594 L 293.269531 233.910156 C 299.480469 236.519531 304.25 238.769531 304.25 243.539062 C 304.25 246.960938 301.28125 251.011719 293.449219 251.011719 C 285.261719 251.011719 280.671875 247.410156 278.058594 245.339844 L 277.160156 245.609375 L 276.53125 258.300781 L 277.070312 259.019531 C 278.058594 259.378906 279.050781 259.828125 280.039062 260.101562 C 282.109375 260.820312 287.421875 262.351562 294.171875 262.351562 C 296.871094 262.351562 303.710938 262.078125 309.109375 259.558594 C 316.671875 255.871094 319.910156 249.03125 319.910156 241.378906 C 319.910156 236.25 317.929688 230.761719 313.160156 227.070312 C 310.730469 225.269531 308.390625 224.191406 306.230469 223.199219 Z M 353.660156 250.648438 C 352.128906 251.101562 351.046875 251.460938 349.519531 251.460938 C 344.929688 251.460938 344.570312 248.578125 344.386719 247.230469 C 344.117188 244.890625 344.117188 239.941406 344.207031 236.339844 L 344.386719 223.648438 L 352.488281 224.011719 L 353.027344 223.46875 L 353.929688 213.839844 L 353.386719 213.300781 L 344.386719 213.300781 L 344.660156 198.179688 L 344.027344 197.640625 C 337.910156 199.441406 336.289062 199.890625 329.898438 201.511719 L 329.539062 202.140625 L 329.628906 213.390625 L 324.769531 213.210938 L 324.230469 213.660156 L 323.417969 223.289062 L 323.957031 223.828125 L 329.628906 223.648438 L 329.359375 237.960938 C 329.269531 240.210938 329.179688 242.460938 329.179688 244.800781 C 329.179688 253.078125 329.359375 261.988281 343.398438 261.988281 C 346.910156 261.988281 349.699219 261.449219 352.847656 260.910156 L 353.480469 260.28125 L 354.378906 251.011719 Z M 400.371094 234.179688 C 400.460938 226.078125 400.460938 222.570312 398.121094 218.789062 C 396.320312 215.910156 392.722656 212.308594 381.203125 212.308594 C 373.460938 212.308594 368.691406 213.75 363.5625 215.28125 L 363.023438 216 L 362.570312 225.808594 L 363.292969 226.171875 C 366.441406 224.910156 372.292969 222.570312 378.320312 222.570312 C 381.652344 222.570312 383 223.109375 384.171875 224.28125 C 385.070312 225.179688 385.34375 226.800781 385.34375 228.148438 C 374.542969 229.589844 369.5 230.578125 364.101562 233.910156 C 359.0625 237.058594 357.351562 242.191406 357.351562 246.238281 C 357.351562 255.871094 364.28125 262.078125 373.101562 262.078125 C 379.851562 262.078125 383.722656 258.839844 385.613281 257.308594 L 385.613281 260.640625 L 386.152344 261.269531 C 392.632812 261 394.613281 260.910156 400.460938 261 L 400.910156 260.371094 C 400.28125 251.550781 400.28125 249.300781 400.28125 240.839844 L 400.371094 234.179688 M 385.523438 248.488281 C 383.632812 249.570312 381.203125 250.828125 378.230469 250.828125 C 374.992188 250.828125 372.292969 249.121094 372.292969 245.339844 C 372.292969 239.398438 379.402344 238.410156 385.523438 237.601562 Z M 436.101562 250.648438 C 434.570312 251.101562 433.488281 251.460938 431.960938 251.460938 C 427.371094 251.460938 427.011719 248.578125 426.828125 247.230469 C 426.558594 244.890625 426.558594 239.941406 426.648438 236.339844 L 426.828125 223.648438 L 434.929688 224.011719 L 435.46875 223.46875 L 436.371094 213.839844 L 435.828125 213.300781 L 426.828125 213.300781 L 427.101562 198.179688 L 426.46875 197.640625 C 420.351562 199.441406 418.730469 199.890625 412.339844 201.511719 L 411.980469 202.140625 L 412.070312 213.390625 L 407.210938 213.210938 L 406.671875 213.660156 L 405.859375 223.289062 L 406.398438 223.828125 L 412.070312 223.648438 L 411.800781 237.960938 C 411.710938 240.210938 411.621094 242.460938 411.621094 244.800781 C 411.621094 253.078125 411.800781 261.988281 425.839844 261.988281 C 429.351562 261.988281 432.140625 261.449219 435.289062 260.910156 L 435.921875 260.28125 L 436.820312 251.011719 Z M 482.71875 247.679688 C 479.300781 249.480469 475.25 251.550781 468.679688 251.550781 C 463.28125 251.550781 459.589844 249.839844 457.429688 246.601562 C 456.078125 244.710938 455.808594 242.910156 455.449219 241.109375 L 484.519531 240.570312 L 485.058594 239.941406 C 484.96875 235.53125 484.878906 231.03125 483.621094 226.53125 C 480.46875 215.910156 473.539062 213.75 470.480469 213.03125 C 468.230469 212.398438 466.160156 212.21875 464.089844 212.21875 C 449.960938 212.21875 440.597656 221.488281 440.597656 237.058594 C 440.597656 241.289062 441.320312 245.699219 442.757812 248.851562 C 447.980469 261 460.21875 262.078125 466.699219 262.078125 C 474.167969 262.078125 477.410156 260.730469 482.179688 258.839844 L 482.71875 258.121094 L 483.347656 247.949219 L 482.71875 247.679688 M 455.449219 231.570312 C 455.71875 228.78125 456.347656 225 459.769531 222.839844 C 460.847656 222.121094 462.109375 221.851562 463.371094 221.851562 C 466.339844 221.851562 468.140625 223.378906 469.128906 225 C 470.390625 226.980469 470.480469 229.140625 470.480469 231.210938 Z M 531.679688 197.28125 L 520.25 197.460938 L 519.707031 198 C 520.070312 209.699219 520.339844 217.53125 520.339844 227.878906 C 520.339844 238.859375 520.070312 249.75 519.796875 260.730469 L 520.339844 261.269531 C 527 261 528.4375 260.910156 535.640625 261 L 536.089844 260.460938 C 535.730469 250.648438 535.730469 248.398438 535.730469 239.21875 C 545.808594 239.308594 556.609375 239.308594 563.089844 231.390625 C 565.609375 228.328125 567.769531 223.199219 567.769531 216.898438 C 567.769531 213.03125 566.867188 204.480469 559.398438 200.25 C 554 197.101562 546.347656 197.101562 539.597656 197.101562 L 531.679688 197.28125 M 535.730469 208.171875 C 537.707031 208.078125 539.597656 208.078125 541.578125 208.078125 C 549.5 208.261719 551.660156 212.308594 551.660156 217.53125 C 551.660156 218.789062 551.660156 224.011719 546.890625 226.621094 C 544.457031 227.96875 541.128906 228.148438 535.730469 228.148438 Z M 614.03125 234.179688 C 614.121094 226.078125 614.121094 222.570312 611.78125 218.789062 C 609.980469 215.910156 606.382812 212.308594 594.863281 212.308594 C 587.121094 212.308594 582.351562 213.75 577.222656 215.28125 L 576.683594 216 L 576.230469 225.808594 L 576.953125 226.171875 C 580.101562 224.910156 585.953125 222.570312 591.980469 222.570312 C 595.3125 222.570312 596.660156 223.109375 597.832031 224.28125 C 598.730469 225.179688 599.003906 226.800781 599.003906 228.148438 C 588.203125 229.589844 583.160156 230.578125 577.761719 233.910156 C 572.722656 237.058594 571.011719 242.191406 571.011719 246.238281 C 571.011719 255.871094 577.941406 262.078125 586.761719 262.078125 C 593.511719 262.078125 597.382812 258.839844 599.273438 257.308594 L 599.273438 260.640625 L 599.8125 261.269531 C 606.292969 261 608.273438 260.910156 614.121094 261 L 614.570312 260.371094 C 613.941406 251.550781 613.941406 249.300781 613.941406 240.839844 L 614.03125 234.179688 M 599.183594 248.488281 C 597.292969 249.570312 594.863281 250.828125 591.890625 250.828125 C 588.652344 250.828125 585.953125 249.121094 585.953125 245.339844 C 585.953125 239.398438 593.0625 238.410156 599.183594 237.601562 Z M 650.570312 227.609375 L 653.089844 212.941406 L 652.550781 212.308594 C 651.921875 212.308594 651.289062 212.21875 650.660156 212.21875 C 646.96875 212.21875 642.832031 214.289062 639.949219 220.949219 L 640.21875 212.671875 L 639.5 211.949219 C 632.839844 213.390625 631.128906 213.660156 624.558594 214.648438 L 624.019531 215.191406 C 624.558594 221.941406 624.832031 225.988281 624.832031 238.5 C 624.832031 245.878906 624.738281 253.261719 624.558594 260.730469 L 625.101562 261.269531 C 631.761719 261 633.199219 260.910156 640.398438 261 L 640.851562 260.371094 C 640.488281 253.078125 639.949219 242.910156 639.949219 236.699219 C 639.949219 232.648438 639.949219 226.710938 646.070312 226.710938 C 647.601562 226.710938 648.5 227.25 649.761719 227.96875 Z M 704.570312 259.828125 C 696.109375 245.519531 695.210938 243.898438 688.371094 231.570312 C 694.582031 223.109375 695.210938 222.210938 701.601562 214.019531 L 701.148438 213.121094 L 686.480469 213.300781 L 685.582031 213.929688 C 678.558594 226.078125 677.660156 227.519531 673.519531 233.730469 L 673.519531 223.738281 C 673.609375 206.910156 673.699219 203.308594 674.148438 189.71875 L 673.429688 189.179688 L 657.769531 191.519531 L 657.230469 192.148438 C 657.859375 200.878906 658.128906 205.109375 658.308594 216.898438 C 658.488281 231.480469 658.488281 246.058594 658.398438 260.640625 L 659.03125 261.269531 C 665.058594 261 666.769531 261 673.609375 261 L 674.148438 260.371094 L 673.609375 245.160156 L 673.519531 234.808594 C 681.351562 249.210938 682.339844 251.191406 686.929688 260.730469 L 687.738281 261.269531 L 703.941406 260.640625 Z M 703.492188 261 "/>
</svg>
