<?xml version="1.0" encoding="UTF-8"?>
<svg xmlns="http://www.w3.org/2000/svg" xmlns:xlink="http://www.w3.org/1999/xlink" width="975" height="1300" viewBox="0 0 975 1300">
<path fill-rule="nonzero" fill="rgb(98.823529%, 78.823529%, 9.019608%)" fill-opacity="1" d="M 50 50 L 925 50 L 925 290 L 50 290 Z M 50 50 "/>
<path fill-rule="nonzero" fill="rgb(34.901961%, 14.901961%, 14.901961%)" fill-opacity="1" d="M 146.34375 89.339844 L 146.882812 88.890625 L 147.515625 77.640625 L 147.0625 77.371094 L 102.515625 77.371094 L 101.882812 77.910156 L 101.253906 88.980469 L 101.703125 89.519531 L 116.375 89.160156 C 116.464844 112.738281 116.464844 118.410156 115.746094 140.730469 L 116.285156 141.269531 C 122.945312 141 124.746094 140.910156 132.214844 140.910156 L 132.753906 140.371094 C 132.304688 127.769531 132.125 115.171875 132.125 102.480469 C 132.125 97.53125 132.214844 94.738281 132.394531 88.980469 Z M 199.085938 117.058594 C 199.085938 113.550781 199.085938 98.96875 186.484375 94.019531 C 182.523438 92.488281 177.84375 92.308594 175.503906 92.308594 C 159.84375 92.308594 151.023438 100.679688 151.023438 117.238281 C 151.023438 123 151.925781 128.851562 155.253906 133.710938 C 157.59375 137.21875 162.003906 142.078125 174.875 142.078125 C 193.953125 142.078125 199.085938 130.558594 199.085938 117.058594 M 183.515625 116.96875 C 183.515625 124.351562 182.523438 132.539062 175.054688 132.539062 C 172.714844 132.539062 171.09375 131.460938 170.015625 130.46875 C 168.484375 128.941406 166.773438 125.878906 166.773438 117.148438 C 166.773438 114.539062 166.773438 108.78125 168.574219 105.628906 C 169.925781 103.199219 172.265625 101.578125 175.144531 101.578125 C 177.664062 101.578125 179.734375 102.929688 180.90625 104.371094 C 183.066406 106.980469 183.515625 112.109375 183.515625 116.96875 Z M 277.925781 140.371094 C 277.472656 132 277.382812 129.660156 277.382812 119.488281 L 277.382812 112.738281 C 277.472656 106.710938 277.5625 101.128906 274.953125 97.351562 C 271.445312 92.21875 265.234375 92.21875 263.792969 92.21875 C 256.414062 92.21875 251.464844 95.550781 247.863281 98.070312 C 246.605469 96 244.355469 92.21875 237.15625 92.21875 C 231.214844 92.21875 227.34375 94.921875 223.203125 97.800781 L 223.203125 92.761719 L 222.394531 91.949219 C 215.375 93.300781 213.394531 93.660156 207.09375 94.558594 L 206.554688 95.191406 C 207.273438 102.390625 207.8125 107.339844 207.8125 125.160156 C 207.8125 130.289062 207.722656 135.511719 207.722656 140.640625 L 208.175781 141.179688 C 213.933594 141 215.914062 140.910156 223.382812 140.910156 L 223.925781 140.371094 C 223.292969 126.511719 223.203125 122.371094 223.113281 106.710938 C 225.003906 105.359375 227.074219 104.191406 229.324219 104.191406 C 234.90625 104.191406 235.085938 110.578125 235.085938 118.320312 C 235.085938 131.371094 234.996094 133.351562 234.8125 140.640625 L 235.355469 141.269531 C 242.195312 140.910156 244.085938 140.910156 250.292969 140.910156 L 250.835938 140.371094 C 250.292969 131.820312 250.203125 129.300781 250.113281 118.410156 L 250.113281 115.078125 L 250.023438 105.988281 C 251.554688 105 253.535156 103.738281 256.234375 103.738281 C 261.363281 103.738281 262.175781 108.601562 262.175781 116.339844 C 262.175781 118.050781 262.085938 119.761719 262.085938 121.46875 C 261.996094 124.53125 261.90625 137.941406 261.8125 140.640625 L 262.355469 141.179688 C 269.105469 140.910156 271.085938 140.910156 277.382812 140.910156 Z M 328.324219 114.179688 C 328.414062 106.078125 328.414062 102.570312 326.074219 98.789062 C 324.273438 95.910156 320.675781 92.308594 309.15625 92.308594 C 301.414062 92.308594 296.644531 93.75 291.515625 95.28125 L 290.976562 96 L 290.523438 105.808594 L 291.246094 106.171875 C 294.394531 104.910156 300.246094 102.570312 306.273438 102.570312 C 309.605469 102.570312 310.953125 103.109375 312.125 104.28125 C 313.023438 105.179688 313.296875 106.800781 313.296875 108.148438 C 302.496094 109.589844 297.453125 110.578125 292.054688 113.910156 C 287.015625 117.058594 285.304688 122.191406 285.304688 126.238281 C 285.304688 135.871094 292.234375 142.078125 301.054688 142.078125 C 307.804688 142.078125 311.675781 138.839844 313.566406 137.308594 L 313.566406 140.640625 L 314.105469 141.269531 C 320.585938 141 322.566406 140.910156 328.414062 141 L 328.863281 140.371094 C 328.234375 131.550781 328.234375 129.300781 328.234375 120.839844 L 328.324219 114.179688 M 313.476562 128.488281 C 311.585938 129.570312 309.15625 130.828125 306.183594 130.828125 C 302.945312 130.828125 300.246094 129.121094 300.246094 125.339844 C 300.246094 119.398438 307.355469 118.410156 313.476562 117.601562 Z M 354.691406 140.371094 C 354.242188 130.019531 353.792969 120.570312 353.792969 92.128906 C 353.792969 83.578125 353.882812 79.53125 354.242188 69.808594 L 353.613281 69.179688 L 338.222656 71.609375 L 337.863281 72.148438 C 338.761719 83.128906 338.851562 86.101562 339.03125 100.679688 C 339.125 105.988281 339.125 111.300781 339.125 116.609375 C 339.125 126.328125 338.941406 131.730469 338.582031 140.640625 L 339.125 141.269531 C 345.152344 141 347.582031 140.910156 354.152344 141 Z M 405.09375 127.679688 C 401.675781 129.480469 397.625 131.550781 391.054688 131.550781 C 385.65625 131.550781 381.964844 129.839844 379.804688 126.601562 C 378.453125 124.710938 378.183594 122.910156 377.824219 121.109375 L 406.894531 120.570312 L 407.433594 119.941406 C 407.34375 115.53125 407.253906 111.03125 405.996094 106.53125 C 402.84375 95.910156 395.914062 93.75 392.855469 93.03125 C 390.605469 92.398438 388.535156 92.21875 386.464844 92.21875 C 372.335938 92.21875 362.972656 101.488281 362.972656 117.058594 C 362.972656 121.289062 363.695312 125.699219 365.132812 128.851562 C 370.355469 141 382.59375 142.078125 389.074219 142.078125 C 396.542969 142.078125 399.785156 140.730469 404.554688 138.839844 L 405.09375 138.121094 L 405.722656 127.949219 L 405.09375 127.679688 M 377.824219 111.570312 C 378.09375 108.78125 378.722656 105 382.144531 102.839844 C 383.222656 102.121094 384.484375 101.851562 385.746094 101.851562 C 388.714844 101.851562 390.515625 103.378906 391.503906 105 C 392.765625 106.980469 392.855469 109.140625 392.855469 111.210938 Z M 434.613281 109.949219 C 431.550781 108.871094 429.121094 107.878906 429.121094 105.359375 C 429.121094 104.28125 429.84375 101.308594 435.421875 101.308594 C 440.914062 101.308594 444.421875 103.648438 446.671875 105.089844 L 447.484375 104.820312 L 448.382812 95.011719 L 447.933594 94.46875 C 443.703125 93.300781 440.011719 92.21875 434.164062 92.21875 C 429.753906 92.21875 420.933594 92.578125 416.253906 99.328125 C 415.082031 100.949219 413.824219 103.648438 413.824219 107.25 C 413.824219 116.878906 421.292969 119.761719 425.523438 121.378906 L 428.941406 122.640625 C 431.371094 123.449219 435.332031 124.800781 435.332031 128.039062 C 435.332031 130.289062 433.261719 132.71875 428.222656 132.71875 C 425.703125 132.71875 422.011719 131.910156 418.683594 130.199219 C 417.152344 129.390625 416.433594 128.761719 415.082031 127.679688 L 414.273438 128.039062 C 414.09375 132.71875 414.003906 133.710938 413.640625 138.210938 L 414.09375 139.019531 C 418.503906 140.640625 422.28125 142.078125 428.851562 142.078125 C 435.691406 142.078125 449.191406 140.820312 450.8125 127.949219 C 450.902344 127.230469 450.902344 126.601562 450.902344 125.96875 C 450.902344 116.070312 443.972656 113.460938 439.023438 111.570312 Z M 501.84375 141 C 510.214844 141.179688 520.5625 141.359375 527.3125 136.679688 C 533.253906 132.449219 534.875 126.511719 534.875 121.46875 C 534.875 115.710938 532.441406 110.398438 527.3125 107.878906 C 525.601562 106.980469 523.625 106.621094 521.734375 106.261719 C 524.792969 105 528.394531 103.378906 530.734375 98.609375 C 531.722656 96.539062 532.171875 94.378906 532.171875 92.308594 C 532.171875 89.429688 531.453125 85.46875 528.574219 82.230469 C 524.792969 78.179688 518.941406 77.101562 510.125 77.101562 C 507.0625 77.101562 501.574219 77.191406 498.511719 77.28125 L 485.914062 77.460938 L 485.375 78 C 485.734375 86.640625 485.824219 89.96875 485.824219 102.390625 C 485.824219 115.171875 485.734375 127.859375 485.554688 140.640625 L 486.183594 141 L 501.84375 141 M 501.214844 113.640625 C 508.054688 113.460938 512.011719 113.460938 514.625 114.988281 C 517.234375 116.609375 518.222656 119.488281 518.222656 122.371094 C 518.222656 126.421875 515.972656 128.941406 512.644531 130.109375 C 509.941406 131.011719 505.082031 131.011719 501.214844 130.921875 L 501.214844 113.640625 M 501.214844 87.179688 C 503.101562 87.179688 505.625 87.089844 507.152344 87.089844 C 512.011719 87.089844 516.421875 88.800781 516.421875 94.648438 C 516.421875 99.421875 512.914062 101.398438 511.832031 101.941406 C 509.582031 102.929688 504.8125 102.929688 501.214844 102.929688 Z M 583.292969 114.179688 C 583.382812 106.078125 583.382812 102.570312 581.042969 98.789062 C 579.242188 95.910156 575.644531 92.308594 564.125 92.308594 C 556.382812 92.308594 551.613281 93.75 546.484375 95.28125 L 545.945312 96 L 545.492188 105.808594 L 546.214844 106.171875 C 549.363281 104.910156 555.214844 102.570312 561.242188 102.570312 C 564.574219 102.570312 565.921875 103.109375 567.09375 104.28125 C 567.992188 105.179688 568.265625 106.800781 568.265625 108.148438 C 557.464844 109.589844 552.421875 110.578125 547.023438 113.910156 C 541.984375 117.058594 540.273438 122.191406 540.273438 126.238281 C 540.273438 135.871094 547.203125 142.078125 556.023438 142.078125 C 562.773438 142.078125 566.644531 138.839844 568.535156 137.308594 L 568.535156 140.640625 L 569.074219 141.269531 C 575.554688 141 577.535156 140.910156 583.382812 141 L 583.832031 140.371094 C 583.203125 131.550781 583.203125 129.300781 583.203125 120.839844 L 583.292969 114.179688 M 568.445312 128.488281 C 566.554688 129.570312 564.125 130.828125 561.152344 130.828125 C 557.914062 130.828125 555.214844 129.121094 555.214844 125.339844 C 555.214844 119.398438 562.324219 118.410156 568.445312 117.601562 Z M 634.054688 93.03125 L 621.546875 93.300781 L 620.824219 93.929688 C 619.296875 100.140625 618.9375 101.488281 616.777344 108.511719 L 614.4375 116.25 L 612.457031 123 L 610.746094 116.609375 L 608.136719 107.070312 L 604.535156 93.390625 L 603.816406 92.851562 C 596.796875 93.390625 595.265625 93.480469 587.886719 93.660156 L 587.4375 94.289062 C 590.675781 102.839844 599.046875 125.429688 604.625 142.710938 C 600.9375 152.070312 600.214844 153.691406 596.164062 162.601562 L 596.617188 163.320312 C 598.867188 163.230469 601.386719 163.140625 603.726562 163.140625 C 605.976562 163.140625 608.316406 163.230469 610.566406 163.230469 L 611.195312 162.691406 C 616.144531 143.25 618.574219 135.691406 630.457031 104.371094 C 631.804688 100.769531 633.15625 97.261719 634.414062 93.75 Z M 691.113281 102.300781 C 683.554688 99.148438 679.59375 97.53125 679.59375 93.480469 C 679.59375 90.691406 682.203125 87.179688 688.144531 87.179688 C 694.984375 87.179688 699.03125 89.96875 702.363281 92.21875 L 703.171875 91.859375 L 703.894531 80.070312 L 703.441406 79.441406 C 699.574219 77.820312 695.523438 76.109375 686.792969 76.109375 C 669.875 76.109375 664.023438 85.648438 664.023438 95.28125 C 664.023438 106.171875 672.484375 110.128906 677.523438 112.558594 L 680.492188 113.910156 C 686.703125 116.519531 691.472656 118.769531 691.472656 123.539062 C 691.472656 126.960938 688.503906 131.011719 680.671875 131.011719 C 672.484375 131.011719 667.894531 127.410156 665.28125 125.339844 L 664.382812 125.609375 L 663.753906 138.300781 L 664.292969 139.019531 C 665.28125 139.378906 666.273438 139.828125 667.261719 140.101562 C 669.332031 140.820312 674.644531 142.351562 681.394531 142.351562 C 684.09375 142.351562 690.933594 142.078125 696.332031 139.558594 C 703.894531 135.871094 707.132812 129.03125 707.132812 121.378906 C 707.132812 116.25 705.152344 110.761719 700.382812 107.070312 C 697.953125 105.269531 695.613281 104.191406 693.453125 103.199219 Z M 740.886719 130.648438 C 739.355469 131.101562 738.273438 131.460938 736.746094 131.460938 C 732.15625 131.460938 731.796875 128.578125 731.613281 127.230469 C 731.34375 124.890625 731.34375 119.941406 731.433594 116.339844 L 731.613281 103.648438 L 739.714844 104.011719 L 740.253906 103.46875 L 741.15625 93.839844 L 740.613281 93.300781 L 731.613281 93.300781 L 731.886719 78.179688 L 731.253906 77.640625 C 725.136719 79.441406 723.515625 79.890625 717.125 81.511719 L 716.765625 82.140625 L 716.855469 93.390625 L 711.996094 93.210938 L 711.457031 93.660156 L 710.644531 103.289062 L 711.183594 103.828125 L 716.855469 103.648438 L 716.585938 117.960938 C 716.496094 120.210938 716.40625 122.460938 716.40625 124.800781 C 716.40625 133.078125 716.585938 141.988281 730.625 141.988281 C 734.136719 141.988281 736.925781 141.449219 740.074219 140.910156 L 740.707031 140.28125 L 741.605469 131.011719 Z M 787.59375 114.179688 C 787.683594 106.078125 787.683594 102.570312 785.34375 98.789062 C 783.542969 95.910156 779.945312 92.308594 768.425781 92.308594 C 760.683594 92.308594 755.914062 93.75 750.785156 95.28125 L 750.246094 96 L 749.792969 105.808594 L 750.515625 106.171875 C 753.664062 104.910156 759.515625 102.570312 765.542969 102.570312 C 768.875 102.570312 770.222656 103.109375 771.394531 104.28125 C 772.292969 105.179688 772.566406 106.800781 772.566406 108.148438 C 761.765625 109.589844 756.722656 110.578125 751.324219 113.910156 C 746.285156 117.058594 744.574219 122.191406 744.574219 126.238281 C 744.574219 135.871094 751.503906 142.078125 760.324219 142.078125 C 767.074219 142.078125 770.945312 138.839844 772.835938 137.308594 L 772.835938 140.640625 L 773.375 141.269531 C 779.855469 141 781.835938 140.910156 787.683594 141 L 788.132812 140.371094 C 787.503906 131.550781 787.503906 129.300781 787.503906 120.839844 L 787.59375 114.179688 M 772.746094 128.488281 C 770.855469 129.570312 768.425781 130.828125 765.453125 130.828125 C 762.214844 130.828125 759.515625 129.121094 759.515625 125.339844 C 759.515625 119.398438 766.625 118.410156 772.746094 117.601562 Z M 823.324219 130.648438 C 821.792969 131.101562 820.710938 131.460938 819.183594 131.460938 C 814.59375 131.460938 814.234375 128.578125 814.050781 127.230469 C 813.78125 124.890625 813.78125 119.941406 813.871094 116.339844 L 814.050781 103.648438 L 822.152344 104.011719 L 822.691406 103.46875 L 823.59375 93.839844 L 823.050781 93.300781 L 814.050781 93.300781 L 814.324219 78.179688 L 813.691406 77.640625 C 807.574219 79.441406 805.953125 79.890625 799.5625 81.511719 L 799.203125 82.140625 L 799.292969 93.390625 L 794.433594 93.210938 L 793.894531 93.660156 L 793.082031 103.289062 L 793.621094 103.828125 L 799.292969 103.648438 L 799.023438 117.960938 C 798.933594 120.210938 798.84375 122.460938 798.84375 124.800781 C 798.84375 133.078125 799.023438 141.988281 813.0625 141.988281 C 816.574219 141.988281 819.363281 141.449219 822.511719 140.910156 L 823.144531 140.28125 L 824.042969 131.011719 Z M 869.945312 127.679688 C 866.527344 129.480469 862.476562 131.550781 855.90625 131.550781 C 850.507812 131.550781 846.816406 129.839844 844.65625 126.601562 C 843.304688 124.710938 843.035156 122.910156 842.675781 121.109375 L 871.746094 120.570312 L 872.285156 119.941406 C 872.195312 115.53125 872.105469 111.03125 870.847656 106.53125 C 867.695312 95.910156 860.765625 93.75 857.707031 93.03125 C 855.457031 92.398438 853.386719 92.21875 851.316406 92.21875 C 837.1875 92.21875 827.824219 101.488281 827.824219 117.058594 C 827.824219 121.289062 828.546875 125.699219 829.984375 128.851562 C 835.207031 141 847.445312 142.078125 853.925781 142.078125 C 861.394531 142.078125 864.636719 140.730469 869.40625 138.839844 L 869.945312 138.121094 L 870.574219 127.949219 L 869.945312 127.679688 M 842.675781 111.570312 C 842.945312 108.78125 843.574219 105 846.996094 102.839844 C 848.074219 102.121094 849.335938 101.851562 850.597656 101.851562 C 853.566406 101.851562 855.367188 103.378906 856.355469 105 C 857.617188 106.980469 857.707031 109.140625 857.707031 111.210938 Z M 875.164062 141 "/>
<path fill-rule="nonzero" fill="rgb(34.901961%, 14.901961%, 14.901961%)" fill-opacity="1" d="M 411.53125 197.28125 L 400.101562 197.460938 L 399.558594 198 C 399.921875 209.699219 400.191406 217.53125 400.191406 227.878906 C 400.191406 238.859375 399.921875 249.75 399.648438 260.730469 L 400.191406 261.269531 C 406.851562 261 408.289062 260.910156 415.492188 261 L 415.941406 260.460938 C 415.582031 250.648438 415.582031 248.398438 415.582031 239.21875 C 425.660156 239.308594 436.460938 239.308594 442.941406 231.390625 C 445.460938 228.328125 447.621094 223.199219 447.621094 216.898438 C 447.621094 213.03125 446.71875 204.480469 439.25 200.25 C 433.851562 197.101562 426.199219 197.101562 419.449219 197.101562 L 411.53125 197.28125 M 415.582031 208.171875 C 417.558594 208.078125 419.449219 208.078125 421.429688 208.078125 C 429.351562 208.261719 431.511719 212.308594 431.511719 217.53125 C 431.511719 218.789062 431.511719 224.011719 426.742188 226.621094 C 424.308594 227.96875 420.980469 228.148438 415.582031 228.148438 Z M 493.878906 234.179688 C 493.96875 226.078125 493.96875 222.570312 491.628906 218.789062 C 489.828125 215.910156 486.230469 212.308594 474.710938 212.308594 C 466.96875 212.308594 462.199219 213.75 457.070312 215.28125 L 456.53125 216 L 456.078125 225.808594 L 456.800781 226.171875 C 459.949219 224.910156 465.800781 222.570312 471.828125 222.570312 C 475.160156 222.570312 476.507812 223.109375 477.679688 224.28125 C 478.578125 225.179688 478.851562 226.800781 478.851562 228.148438 C 468.050781 229.589844 463.007812 230.578125 457.609375 233.910156 C 452.570312 237.058594 450.859375 242.191406 450.859375 246.238281 C 450.859375 255.871094 457.789062 262.078125 466.609375 262.078125 C 473.359375 262.078125 477.230469 258.839844 479.121094 257.308594 L 479.121094 260.640625 L 479.660156 261.269531 C 486.140625 261 488.121094 260.910156 493.96875 261 L 494.417969 260.371094 C 493.789062 251.550781 493.789062 249.300781 493.789062 240.839844 L 493.878906 234.179688 M 479.03125 248.488281 C 477.140625 249.570312 474.710938 250.828125 471.738281 250.828125 C 468.5 250.828125 465.800781 249.121094 465.800781 245.339844 C 465.800781 239.398438 472.910156 238.410156 479.03125 237.601562 Z M 530.421875 227.609375 L 532.941406 212.941406 L 532.402344 212.308594 C 531.773438 212.308594 531.140625 212.21875 530.511719 212.21875 C 526.820312 212.21875 522.683594 214.289062 519.800781 220.949219 L 520.070312 212.671875 L 519.351562 211.949219 C 512.691406 213.390625 510.980469 213.660156 504.410156 214.648438 L 503.871094 215.191406 C 504.410156 221.941406 504.683594 225.988281 504.683594 238.5 C 504.683594 245.878906 504.589844 253.261719 504.410156 260.730469 L 504.953125 261.269531 C 511.613281 261 513.050781 260.910156 520.25 261 L 520.703125 260.371094 C 520.339844 253.078125 519.800781 242.910156 519.800781 236.699219 C 519.800781 232.648438 519.800781 226.710938 525.921875 226.710938 C 527.453125 226.710938 528.351562 227.25 529.613281 227.96875 Z M 584.421875 259.828125 C 575.960938 245.519531 575.0625 243.898438 568.222656 231.570312 C 574.433594 223.109375 575.0625 222.210938 581.453125 214.019531 L 581 213.121094 L 566.332031 213.300781 L 565.433594 213.929688 C 558.410156 226.078125 557.511719 227.519531 553.371094 233.730469 L 553.371094 223.738281 C 553.460938 206.910156 553.550781 203.308594 554 189.71875 L 553.28125 189.179688 L 537.621094 191.519531 L 537.082031 192.148438 C 537.710938 200.878906 537.980469 205.109375 538.160156 216.898438 C 538.339844 231.480469 538.339844 246.058594 538.25 260.640625 L 538.882812 261.269531 C 544.910156 261 546.621094 261 553.460938 261 L 554 260.371094 L 553.460938 245.160156 L 553.371094 234.808594 C 561.203125 249.210938 562.191406 251.191406 566.78125 260.730469 L 567.589844 261.269531 L 583.792969 260.640625 Z M 583.339844 261 "/>
</svg>
