<?xml version="1.0" encoding="UTF-8"?>
<svg xmlns="http://www.w3.org/2000/svg" xmlns:xlink="http://www.w3.org/1999/xlink" width="975" height="1300" viewBox="0 0 975 1300">
<path fill-rule="nonzero" fill="rgb(98.823529%, 78.823529%, 9.019608%)" fill-opacity="1" d="M 50 50 L 925 50 L 925 290 L 50 290 Z M 50 50 "/>
<path fill-rule="nonzero" fill="rgb(34.901961%, 14.901961%, 14.901961%)" fill-opacity="1" d="M 228.066406 102.300781 C 220.507812 99.148438 216.546875 97.53125 216.546875 93.480469 C 216.546875 90.691406 219.15625 87.179688 225.097656 87.179688 C 231.9375 87.179688 235.984375 89.96875 239.316406 92.21875 L 240.125 91.859375 L 240.847656 80.070312 L 240.394531 79.441406 C 236.527344 77.820312 232.476562 76.109375 223.746094 76.109375 C 206.828125 76.109375 200.976562 85.648438 200.976562 95.28125 C 200.976562 106.171875 209.4375 110.128906 214.476562 112.558594 L 217.445312 113.910156 C 223.65625 116.519531 228.425781 118.769531 228.425781 123.539062 C 228.425781 126.960938 225.457031 131.011719 217.625 131.011719 C 209.4375 131.011719 204.847656 127.410156 202.234375 125.339844 L 201.335938 125.609375 L 200.707031 138.300781 L 201.246094 139.019531 C 202.234375 139.378906 203.226562 139.828125 204.214844 140.101562 C 206.285156 140.820312 211.597656 142.351562 218.347656 142.351562 C 221.046875 142.351562 227.886719 142.078125 233.285156 139.558594 C 240.847656 135.871094 244.085938 129.03125 244.085938 121.378906 C 244.085938 116.25 242.105469 110.761719 237.335938 107.070312 C 234.90625 105.269531 232.566406 104.191406 230.40625 103.199219 Z M 298.445312 117.058594 C 298.445312 113.550781 298.445312 98.96875 285.84375 94.019531 C 281.882812 92.488281 277.203125 92.308594 274.863281 92.308594 C 259.203125 92.308594 250.382812 100.679688 250.382812 117.238281 C 250.382812 123 251.285156 128.851562 254.613281 133.710938 C 256.953125 137.21875 261.363281 142.078125 274.234375 142.078125 C 293.3125 142.078125 298.445312 130.558594 298.445312 117.058594 M 282.875 116.96875 C 282.875 124.351562 281.882812 132.539062 274.414062 132.539062 C 272.074219 132.539062 270.453125 131.460938 269.375 130.46875 C 267.84375 128.941406 266.132812 125.878906 266.132812 117.148438 C 266.132812 114.539062 266.132812 108.78125 267.933594 105.628906 C 269.285156 103.199219 271.625 101.578125 274.503906 101.578125 C 277.023438 101.578125 279.09375 102.929688 280.265625 104.371094 C 282.425781 106.980469 282.875 112.109375 282.875 116.96875 Z M 351.097656 140.371094 C 350.648438 132.449219 350.648438 129.929688 350.46875 121.109375 L 350.46875 114.089844 C 350.378906 105.449219 350.289062 101.308594 348.039062 97.621094 C 345.246094 92.941406 340.117188 92.21875 336.878906 92.21875 C 331.386719 92.21875 326.617188 95.101562 322.476562 97.53125 L 322.65625 92.578125 L 321.757812 91.949219 C 314.828125 93.390625 313.296875 93.660156 306.546875 94.558594 L 306.007812 95.191406 C 306.726562 103.019531 307.269531 108.691406 307.269531 123.359375 C 307.269531 129.121094 307.175781 134.878906 307.085938 140.640625 L 307.628906 141.179688 C 314.109375 140.910156 315.457031 140.910156 322.65625 140.910156 L 323.199219 140.371094 C 322.65625 126.511719 322.566406 123 322.476562 106.890625 C 324.367188 105.628906 326.527344 104.101562 329.40625 104.101562 C 334.359375 104.101562 334.808594 109.410156 335.078125 112.648438 C 335.257812 115.621094 335.347656 127.949219 335.347656 131.371094 C 335.347656 134.429688 335.257812 137.578125 335.257812 140.640625 L 335.796875 141.179688 C 341.738281 141 343.269531 140.910156 350.46875 140.910156 Z M 407.167969 117.058594 C 407.167969 113.550781 407.167969 98.96875 394.566406 94.019531 C 390.605469 92.488281 385.925781 92.308594 383.585938 92.308594 C 367.925781 92.308594 359.105469 100.679688 359.105469 117.238281 C 359.105469 123 360.007812 128.851562 363.335938 133.710938 C 365.675781 137.21875 370.085938 142.078125 382.957031 142.078125 C 402.035156 142.078125 407.167969 130.558594 407.167969 117.058594 M 391.597656 116.96875 C 391.597656 124.351562 390.605469 132.539062 383.136719 132.539062 C 380.796875 132.539062 379.175781 131.460938 378.097656 130.46875 C 376.566406 128.941406 374.855469 125.878906 374.855469 117.148438 C 374.855469 114.539062 374.855469 108.78125 376.65625 105.628906 C 378.007812 103.199219 380.347656 101.578125 383.226562 101.578125 C 385.746094 101.578125 387.816406 102.929688 388.988281 104.371094 C 391.148438 106.980469 391.597656 112.109375 391.597656 116.96875 Z M 486.007812 140.371094 C 485.554688 132 485.464844 129.660156 485.464844 119.488281 L 485.464844 112.738281 C 485.554688 106.710938 485.644531 101.128906 483.035156 97.351562 C 479.527344 92.21875 473.316406 92.21875 471.875 92.21875 C 464.496094 92.21875 459.546875 95.550781 455.945312 98.070312 C 454.6875 96 452.4375 92.21875 445.238281 92.21875 C 439.296875 92.21875 435.425781 94.921875 431.285156 97.800781 L 431.285156 92.761719 L 430.476562 91.949219 C 423.457031 93.300781 421.476562 93.660156 415.175781 94.558594 L 414.636719 95.191406 C 415.355469 102.390625 415.894531 107.339844 415.894531 125.160156 C 415.894531 130.289062 415.804688 135.511719 415.804688 140.640625 L 416.257812 141.179688 C 422.015625 141 423.996094 140.910156 431.464844 140.910156 L 432.007812 140.371094 C 431.375 126.511719 431.285156 122.371094 431.195312 106.710938 C 433.085938 105.359375 435.15625 104.191406 437.40625 104.191406 C 442.988281 104.191406 443.167969 110.578125 443.167969 118.320312 C 443.167969 131.371094 443.078125 133.351562 442.894531 140.640625 L 443.4375 141.269531 C 450.277344 140.910156 452.167969 140.910156 458.375 140.910156 L 458.917969 140.371094 C 458.375 131.820312 458.285156 129.300781 458.195312 118.410156 L 458.195312 115.078125 L 458.105469 105.988281 C 459.636719 105 461.617188 103.738281 464.316406 103.738281 C 469.445312 103.738281 470.257812 108.601562 470.257812 116.339844 C 470.257812 118.050781 470.167969 119.761719 470.167969 121.46875 C 470.078125 124.53125 469.988281 137.941406 469.894531 140.640625 L 470.4375 141.179688 C 477.1875 140.910156 479.167969 140.910156 485.464844 140.910156 Z M 536.40625 114.179688 C 536.496094 106.078125 536.496094 102.570312 534.15625 98.789062 C 532.355469 95.910156 528.757812 92.308594 517.238281 92.308594 C 509.496094 92.308594 504.726562 93.75 499.597656 95.28125 L 499.058594 96 L 498.605469 105.808594 L 499.328125 106.171875 C 502.476562 104.910156 508.328125 102.570312 514.355469 102.570312 C 517.6875 102.570312 519.035156 103.109375 520.207031 104.28125 C 521.105469 105.179688 521.378906 106.800781 521.378906 108.148438 C 510.578125 109.589844 505.535156 110.578125 500.136719 113.910156 C 495.097656 117.058594 493.386719 122.191406 493.386719 126.238281 C 493.386719 135.871094 500.316406 142.078125 509.136719 142.078125 C 515.886719 142.078125 519.757812 138.839844 521.648438 137.308594 L 521.648438 140.640625 L 522.1875 141.269531 C 528.667969 141 530.648438 140.910156 536.496094 141 L 536.945312 140.371094 C 536.316406 131.550781 536.316406 129.300781 536.316406 120.839844 L 536.40625 114.179688 M 521.558594 128.488281 C 519.667969 129.570312 517.238281 130.828125 514.265625 130.828125 C 511.027344 130.828125 508.328125 129.121094 508.328125 125.339844 C 508.328125 119.398438 515.4375 118.410156 521.558594 117.601562 Z M 599.226562 102.300781 C 591.667969 99.148438 587.707031 97.53125 587.707031 93.480469 C 587.707031 90.691406 590.316406 87.179688 596.257812 87.179688 C 603.097656 87.179688 607.144531 89.96875 610.476562 92.21875 L 611.285156 91.859375 L 612.007812 80.070312 L 611.554688 79.441406 C 607.6875 77.820312 603.636719 76.109375 594.90625 76.109375 C 577.988281 76.109375 572.136719 85.648438 572.136719 95.28125 C 572.136719 106.171875 580.597656 110.128906 585.636719 112.558594 L 588.605469 113.910156 C 594.816406 116.519531 599.585938 118.769531 599.585938 123.539062 C 599.585938 126.960938 596.617188 131.011719 588.785156 131.011719 C 580.597656 131.011719 576.007812 127.410156 573.394531 125.339844 L 572.496094 125.609375 L 571.867188 138.300781 L 572.40625 139.019531 C 573.394531 139.378906 574.386719 139.828125 575.375 140.101562 C 577.445312 140.820312 582.757812 142.351562 589.507812 142.351562 C 592.207031 142.351562 599.046875 142.078125 604.445312 139.558594 C 612.007812 135.871094 615.246094 129.03125 615.246094 121.378906 C 615.246094 116.25 613.265625 110.761719 608.496094 107.070312 C 606.066406 105.269531 603.726562 104.191406 601.566406 103.199219 Z M 648.996094 130.648438 C 647.464844 131.101562 646.382812 131.460938 644.855469 131.460938 C 640.265625 131.460938 639.90625 128.578125 639.722656 127.230469 C 639.453125 124.890625 639.453125 119.941406 639.542969 116.339844 L 639.722656 103.648438 L 647.824219 104.011719 L 648.363281 103.46875 L 649.265625 93.839844 L 648.722656 93.300781 L 639.722656 93.300781 L 639.996094 78.179688 L 639.363281 77.640625 C 633.246094 79.441406 631.625 79.890625 625.234375 81.511719 L 624.875 82.140625 L 624.964844 93.390625 L 620.105469 93.210938 L 619.566406 93.660156 L 618.753906 103.289062 L 619.292969 103.828125 L 624.964844 103.648438 L 624.695312 117.960938 C 624.605469 120.210938 624.515625 122.460938 624.515625 124.800781 C 624.515625 133.078125 624.695312 141.988281 638.734375 141.988281 C 642.246094 141.988281 645.035156 141.449219 648.183594 140.910156 L 648.816406 140.28125 L 649.714844 131.011719 Z M 695.707031 114.179688 C 695.796875 106.078125 695.796875 102.570312 693.457031 98.789062 C 691.65625 95.910156 688.058594 92.308594 676.539062 92.308594 C 668.796875 92.308594 664.027344 93.75 658.898438 95.28125 L 658.359375 96 L 657.90625 105.808594 L 658.628906 106.171875 C 661.777344 104.910156 667.628906 102.570312 673.65625 102.570312 C 676.988281 102.570312 678.335938 103.109375 679.507812 104.28125 C 680.40625 105.179688 680.679688 106.800781 680.679688 108.148438 C 669.878906 109.589844 664.835938 110.578125 659.4375 113.910156 C 654.398438 117.058594 652.6875 122.191406 652.6875 126.238281 C 652.6875 135.871094 659.617188 142.078125 668.4375 142.078125 C 675.1875 142.078125 679.058594 138.839844 680.949219 137.308594 L 680.949219 140.640625 L 681.488281 141.269531 C 687.96875 141 689.949219 140.910156 695.796875 141 L 696.246094 140.371094 C 695.617188 131.550781 695.617188 129.300781 695.617188 120.839844 L 695.707031 114.179688 M 680.859375 128.488281 C 678.96875 129.570312 676.539062 130.828125 673.566406 130.828125 C 670.328125 130.828125 667.628906 129.121094 667.628906 125.339844 C 667.628906 119.398438 674.738281 118.410156 680.859375 117.601562 Z M 731.4375 130.648438 C 729.90625 131.101562 728.824219 131.460938 727.296875 131.460938 C 722.707031 131.460938 722.347656 128.578125 722.164062 127.230469 C 721.894531 124.890625 721.894531 119.941406 721.984375 116.339844 L 722.164062 103.648438 L 730.265625 104.011719 L 730.804688 103.46875 L 731.707031 93.839844 L 731.164062 93.300781 L 722.164062 93.300781 L 722.4375 78.179688 L 721.804688 77.640625 C 715.6875 79.441406 714.066406 79.890625 707.675781 81.511719 L 707.316406 82.140625 L 707.40625 93.390625 L 702.546875 93.210938 L 702.007812 93.660156 L 701.195312 103.289062 L 701.734375 103.828125 L 707.40625 103.648438 L 707.136719 117.960938 C 707.046875 120.210938 706.957031 122.460938 706.957031 124.800781 C 706.957031 133.078125 707.136719 141.988281 721.175781 141.988281 C 724.6875 141.988281 727.476562 141.449219 730.625 140.910156 L 731.257812 140.28125 L 732.15625 131.011719 Z M 778.054688 127.679688 C 774.636719 129.480469 770.585938 131.550781 764.015625 131.550781 C 758.617188 131.550781 754.925781 129.839844 752.765625 126.601562 C 751.414062 124.710938 751.144531 122.910156 750.785156 121.109375 L 779.855469 120.570312 L 780.394531 119.941406 C 780.304688 115.53125 780.214844 111.03125 778.957031 106.53125 C 775.804688 95.910156 768.875 93.75 765.816406 93.03125 C 763.566406 92.398438 761.496094 92.21875 759.425781 92.21875 C 745.296875 92.21875 735.933594 101.488281 735.933594 117.058594 C 735.933594 121.289062 736.65625 125.699219 738.09375 128.851562 C 743.316406 141 755.554688 142.078125 762.035156 142.078125 C 769.503906 142.078125 772.746094 140.730469 777.515625 138.839844 L 778.054688 138.121094 L 778.683594 127.949219 L 778.054688 127.679688 M 750.785156 111.570312 C 751.054688 108.78125 751.683594 105 755.105469 102.839844 C 756.183594 102.121094 757.445312 101.851562 758.707031 101.851562 C 761.675781 101.851562 763.476562 103.378906 764.464844 105 C 765.726562 106.980469 765.816406 109.140625 765.816406 111.210938 Z M 783.277344 141 "/>
<path fill-rule="nonzero" fill="rgb(34.901961%, 14.901961%, 14.901961%)" fill-opacity="1" d="M 277.921875 197.191406 C 270.722656 197.460938 269.554688 197.460938 261.992188 197.460938 L 261.542969 198 C 262.171875 208.171875 262.171875 210.78125 262.261719 221.398438 C 258.304688 221.488281 254.34375 221.578125 250.292969 221.578125 C 247.144531 221.578125 243.902344 221.488281 240.753906 221.488281 L 240.933594 197.730469 L 240.484375 197.191406 C 233.554688 197.460938 232.203125 197.460938 224.375 197.460938 L 223.832031 198 C 224.285156 207.269531 224.824219 218.339844 224.824219 240.660156 C 224.824219 248.761719 224.644531 253.171875 224.464844 260.730469 L 224.914062 261.269531 C 231.484375 261 233.101562 260.910156 241.023438 261 L 241.472656 260.460938 C 240.933594 249.300781 240.84375 246.058594 240.753906 233.011719 C 244.714844 232.828125 248.042969 232.738281 251.554688 232.738281 C 255.152344 232.738281 258.753906 232.828125 262.351562 232.921875 C 262.535156 245.070312 262.535156 248.039062 262.082031 260.730469 L 262.535156 261.269531 C 269.285156 261 271.082031 260.910156 278.734375 261 L 279.183594 260.460938 C 278.464844 245.339844 278.191406 230.308594 278.191406 215.191406 C 278.191406 208.890625 278.285156 204.660156 278.375 197.730469 Z M 305.914062 260.371094 C 305.460938 253.441406 305.101562 248.128906 305.101562 235.710938 C 305.101562 228.058594 305.28125 220.320312 305.371094 212.671875 L 304.742188 211.949219 L 289.261719 214.648438 L 288.722656 215.191406 C 289.441406 222.03125 289.710938 225.179688 289.710938 237.960938 C 289.710938 247.769531 289.441406 253.261719 289.171875 260.640625 L 289.710938 261.269531 C 296.191406 261 297.992188 260.910156 305.28125 261 L 305.914062 260.371094 M 304.472656 203.308594 L 304.742188 191.070312 L 304.203125 190.53125 L 289.53125 192.328125 L 288.992188 192.960938 C 289.171875 196.199219 289.261719 198.089844 289.261719 200.25 C 289.261719 201.960938 289.261719 203.761719 289.171875 205.46875 L 289.800781 206.011719 C 295.921875 204.929688 297.632812 204.75 304.023438 203.941406 Z M 334.804688 229.949219 C 331.742188 228.871094 329.3125 227.878906 329.3125 225.359375 C 329.3125 224.28125 330.035156 221.308594 335.613281 221.308594 C 341.105469 221.308594 344.613281 223.648438 346.863281 225.089844 L 347.675781 224.820312 L 348.574219 215.011719 L 348.125 214.46875 C 343.894531 213.300781 340.203125 212.21875 334.355469 212.21875 C 329.945312 212.21875 321.125 212.578125 316.445312 219.328125 C 315.273438 220.949219 314.015625 223.648438 314.015625 227.25 C 314.015625 236.878906 321.484375 239.761719 325.714844 241.378906 L 329.132812 242.640625 C 331.5625 243.449219 335.523438 244.800781 335.523438 248.039062 C 335.523438 250.289062 333.453125 252.71875 328.414062 252.71875 C 325.894531 252.71875 322.203125 251.910156 318.875 250.199219 C 317.34375 249.390625 316.625 248.761719 315.273438 247.679688 L 314.464844 248.039062 C 314.285156 252.71875 314.195312 253.710938 313.832031 258.210938 L 314.285156 259.019531 C 318.695312 260.640625 322.472656 262.078125 329.042969 262.078125 C 335.882812 262.078125 349.382812 260.820312 351.003906 247.949219 C 351.09375 247.230469 351.09375 246.601562 351.09375 245.96875 C 351.09375 236.070312 344.164062 233.460938 339.214844 231.570312 Z M 384.214844 250.648438 C 382.683594 251.101562 381.601562 251.460938 380.074219 251.460938 C 375.484375 251.460938 375.125 248.578125 374.941406 247.230469 C 374.671875 244.890625 374.671875 239.941406 374.761719 236.339844 L 374.941406 223.648438 L 383.042969 224.011719 L 383.582031 223.46875 L 384.484375 213.839844 L 383.941406 213.300781 L 374.941406 213.300781 L 375.214844 198.179688 L 374.582031 197.640625 C 368.464844 199.441406 366.84375 199.890625 360.453125 201.511719 L 360.09375 202.140625 L 360.183594 213.390625 L 355.324219 213.210938 L 354.785156 213.660156 L 353.972656 223.289062 L 354.511719 223.828125 L 360.183594 223.648438 L 359.914062 237.960938 C 359.824219 240.210938 359.734375 242.460938 359.734375 244.800781 C 359.734375 253.078125 359.914062 261.988281 373.953125 261.988281 C 377.464844 261.988281 380.253906 261.449219 383.402344 260.910156 L 384.035156 260.28125 L 384.933594 251.011719 Z M 436.683594 237.058594 C 436.683594 233.550781 436.683594 218.96875 424.082031 214.019531 C 420.121094 212.488281 415.441406 212.308594 413.101562 212.308594 C 397.441406 212.308594 388.621094 220.679688 388.621094 237.238281 C 388.621094 243 389.523438 248.851562 392.851562 253.710938 C 395.191406 257.21875 399.601562 262.078125 412.472656 262.078125 C 431.550781 262.078125 436.683594 250.558594 436.683594 237.058594 M 421.113281 236.96875 C 421.113281 244.351562 420.121094 252.539062 412.652344 252.539062 C 410.3125 252.539062 408.691406 251.460938 407.613281 250.46875 C 406.082031 248.941406 404.371094 245.878906 404.371094 237.148438 C 404.371094 234.539062 404.371094 228.78125 406.171875 225.628906 C 407.523438 223.199219 409.863281 221.578125 412.742188 221.578125 C 415.261719 221.578125 417.332031 222.929688 418.503906 224.371094 C 420.664062 226.980469 421.113281 232.109375 421.113281 236.96875 Z M 471.242188 227.609375 L 473.761719 212.941406 L 473.222656 212.308594 C 472.59375 212.308594 471.960938 212.21875 471.332031 212.21875 C 467.640625 212.21875 463.503906 214.289062 460.621094 220.949219 L 460.890625 212.671875 L 460.171875 211.949219 C 453.511719 213.390625 451.800781 213.660156 445.230469 214.648438 L 444.691406 215.191406 C 445.230469 221.941406 445.503906 225.988281 445.503906 238.5 C 445.503906 245.878906 445.410156 253.261719 445.230469 260.730469 L 445.773438 261.269531 C 452.433594 261 453.871094 260.910156 461.070312 261 L 461.523438 260.371094 C 461.160156 253.078125 460.621094 242.910156 460.621094 236.699219 C 460.621094 232.648438 460.621094 226.710938 466.742188 226.710938 C 468.273438 226.710938 469.171875 227.25 470.433594 227.96875 Z M 495.273438 260.371094 C 494.820312 253.441406 494.460938 248.128906 494.460938 235.710938 C 494.460938 228.058594 494.640625 220.320312 494.730469 212.671875 L 494.101562 211.949219 L 478.621094 214.648438 L 478.082031 215.191406 C 478.800781 222.03125 479.070312 225.179688 479.070312 237.960938 C 479.070312 247.769531 478.800781 253.261719 478.53125 260.640625 L 479.070312 261.269531 C 485.550781 261 487.351562 260.910156 494.640625 261 L 495.273438 260.371094 M 493.832031 203.308594 L 494.101562 191.070312 L 493.5625 190.53125 L 478.890625 192.328125 L 478.351562 192.960938 C 478.53125 196.199219 478.621094 198.089844 478.621094 200.25 C 478.621094 201.960938 478.621094 203.761719 478.53125 205.46875 L 479.160156 206.011719 C 485.28125 204.929688 486.992188 204.75 493.382812 203.941406 Z M 540.453125 248.039062 C 538.023438 249.480469 535.683594 250.921875 531.09375 250.921875 C 520.921875 250.921875 518.851562 242.460938 518.851562 237.058594 C 518.851562 230.488281 521.734375 222.929688 530.464844 222.929688 C 534.421875 222.929688 536.582031 224.371094 539.285156 226.171875 L 540.183594 225.898438 C 540.542969 221.128906 540.632812 219.871094 541.351562 215.101562 L 540.902344 214.558594 C 536.941406 213.300781 533.523438 212.21875 528.304688 212.21875 C 507.152344 212.21875 503.011719 228.238281 503.011719 237.421875 C 503.011719 247.769531 508.414062 261.808594 528.664062 261.808594 C 533.433594 261.808594 536.492188 260.910156 540.273438 259.828125 L 540.8125 259.289062 L 541.171875 248.488281 Z M 586.714844 197.28125 L 575.285156 197.460938 L 574.742188 198 C 575.105469 209.699219 575.375 217.53125 575.375 227.878906 C 575.375 238.859375 575.105469 249.75 574.832031 260.730469 L 575.375 261.269531 C 582.035156 261 583.472656 260.910156 590.675781 261 L 591.125 260.460938 C 590.765625 250.648438 590.765625 248.398438 590.765625 239.21875 C 600.84375 239.308594 611.644531 239.308594 618.125 231.390625 C 620.644531 228.328125 622.804688 223.199219 622.804688 216.898438 C 622.804688 213.03125 621.902344 204.480469 614.433594 200.25 C 609.035156 197.101562 601.382812 197.101562 594.632812 197.101562 L 586.714844 197.28125 M 590.765625 208.171875 C 592.742188 208.078125 594.632812 208.078125 596.613281 208.078125 C 604.535156 208.261719 606.695312 212.308594 606.695312 217.53125 C 606.695312 218.789062 606.695312 224.011719 601.925781 226.621094 C 599.492188 227.96875 596.164062 228.148438 590.765625 228.148438 Z M 669.0625 234.179688 C 669.152344 226.078125 669.152344 222.570312 666.8125 218.789062 C 665.011719 215.910156 661.414062 212.308594 649.894531 212.308594 C 642.152344 212.308594 637.382812 213.75 632.253906 215.28125 L 631.714844 216 L 631.261719 225.808594 L 631.984375 226.171875 C 635.132812 224.910156 640.984375 222.570312 647.011719 222.570312 C 650.34375 222.570312 651.691406 223.109375 652.863281 224.28125 C 653.761719 225.179688 654.035156 226.800781 654.035156 228.148438 C 643.234375 229.589844 638.191406 230.578125 632.792969 233.910156 C 627.753906 237.058594 626.042969 242.191406 626.042969 246.238281 C 626.042969 255.871094 632.972656 262.078125 641.792969 262.078125 C 648.542969 262.078125 652.414062 258.839844 654.304688 257.308594 L 654.304688 260.640625 L 654.84375 261.269531 C 661.324219 261 663.304688 260.910156 669.152344 261 L 669.601562 260.371094 C 668.972656 251.550781 668.972656 249.300781 668.972656 240.839844 L 669.0625 234.179688 M 654.214844 248.488281 C 652.324219 249.570312 649.894531 250.828125 646.921875 250.828125 C 643.683594 250.828125 640.984375 249.121094 640.984375 245.339844 C 640.984375 239.398438 648.09375 238.410156 654.214844 237.601562 Z M 705.601562 227.609375 L 708.121094 212.941406 L 707.582031 212.308594 C 706.953125 212.308594 706.320312 212.21875 705.691406 212.21875 C 702 212.21875 697.863281 214.289062 694.980469 220.949219 L 695.25 212.671875 L 694.53125 211.949219 C 687.871094 213.390625 686.160156 213.660156 679.589844 214.648438 L 679.050781 215.191406 C 679.589844 221.941406 679.863281 225.988281 679.863281 238.5 C 679.863281 245.878906 679.769531 253.261719 679.589844 260.730469 L 680.132812 261.269531 C 686.792969 261 688.230469 260.910156 695.429688 261 L 695.882812 260.371094 C 695.519531 253.078125 694.980469 242.910156 694.980469 236.699219 C 694.980469 232.648438 694.980469 226.710938 701.101562 226.710938 C 702.632812 226.710938 703.53125 227.25 704.792969 227.96875 Z M 759.601562 259.828125 C 751.140625 245.519531 750.242188 243.898438 743.402344 231.570312 C 749.613281 223.109375 750.242188 222.210938 756.632812 214.019531 L 756.179688 213.121094 L 741.511719 213.300781 L 740.613281 213.929688 C 733.589844 226.078125 732.691406 227.519531 728.550781 233.730469 L 728.550781 223.738281 C 728.640625 206.910156 728.730469 203.308594 729.179688 189.71875 L 728.460938 189.179688 L 712.800781 191.519531 L 712.261719 192.148438 C 712.890625 200.878906 713.160156 205.109375 713.339844 216.898438 C 713.519531 231.480469 713.519531 246.058594 713.429688 260.640625 L 714.0625 261.269531 C 720.089844 261 721.800781 261 728.640625 261 L 729.179688 260.371094 L 728.640625 245.160156 L 728.550781 234.808594 C 736.382812 249.210938 737.371094 251.191406 741.960938 260.730469 L 742.769531 261.269531 L 758.972656 260.640625 Z M 758.523438 261 "/>
</svg>
