<?xml version="1.0" encoding="UTF-8"?>
<svg xmlns="http://www.w3.org/2000/svg" xmlns:xlink="http://www.w3.org/1999/xlink" width="975" height="1300" viewBox="0 0 975 1300">
<path fill-rule="nonzero" fill="rgb(98.823529%, 78.823529%, 9.019608%)" fill-opacity="1" d="M 50 50 L 925 50 L 925 410 L 50 410 Z M 50 50 "/>
<path fill-rule="nonzero" fill="rgb(34.901961%, 14.901961%, 14.901961%)" fill-opacity="1" d="M 267.441406 102.300781 C 259.882812 99.148438 255.921875 97.53125 255.921875 93.480469 C 255.921875 90.691406 258.53125 87.179688 264.472656 87.179688 C 271.3125 87.179688 275.359375 89.96875 278.691406 92.21875 L 279.5 91.859375 L 280.222656 80.070312 L 279.769531 79.441406 C 275.902344 77.820312 271.851562 76.109375 263.121094 76.109375 C 246.203125 76.109375 240.351562 85.648438 240.351562 95.28125 C 240.351562 106.171875 248.8125 110.128906 253.851562 112.558594 L 256.820312 113.910156 C 263.03125 116.519531 267.800781 118.769531 267.800781 123.539062 C 267.800781 126.960938 264.832031 131.011719 257 131.011719 C 248.8125 131.011719 244.222656 127.410156 241.609375 125.339844 L 240.710938 125.609375 L 240.082031 138.300781 L 240.621094 139.019531 C 241.609375 139.378906 242.601562 139.828125 243.589844 140.101562 C 245.660156 140.820312 250.972656 142.351562 257.722656 142.351562 C 260.421875 142.351562 267.261719 142.078125 272.660156 139.558594 C 280.222656 135.871094 283.460938 129.03125 283.460938 121.378906 C 283.460938 116.25 281.480469 110.761719 276.710938 107.070312 C 274.28125 105.269531 271.941406 104.191406 269.78125 103.199219 Z M 317.210938 130.648438 C 315.679688 131.101562 314.597656 131.460938 313.070312 131.460938 C 308.480469 131.460938 308.121094 128.578125 307.9375 127.230469 C 307.667969 124.890625 307.667969 119.941406 307.757812 116.339844 L 307.9375 103.648438 L 316.039062 104.011719 L 316.578125 103.46875 L 317.480469 93.839844 L 316.9375 93.300781 L 307.9375 93.300781 L 308.210938 78.179688 L 307.578125 77.640625 C 301.460938 79.441406 299.839844 79.890625 293.449219 81.511719 L 293.089844 82.140625 L 293.179688 93.390625 L 288.320312 93.210938 L 287.78125 93.660156 L 286.96875 103.289062 L 287.507812 103.828125 L 293.179688 103.648438 L 292.910156 117.960938 C 292.820312 120.210938 292.730469 122.460938 292.730469 124.800781 C 292.730469 133.078125 292.910156 141.988281 306.949219 141.988281 C 310.460938 141.988281 313.25 141.449219 316.398438 140.910156 L 317.03125 140.28125 L 317.929688 131.011719 Z M 363.921875 114.179688 C 364.011719 106.078125 364.011719 102.570312 361.671875 98.789062 C 359.871094 95.910156 356.273438 92.308594 344.753906 92.308594 C 337.011719 92.308594 332.242188 93.75 327.113281 95.28125 L 326.574219 96 L 326.121094 105.808594 L 326.84375 106.171875 C 329.992188 104.910156 335.84375 102.570312 341.871094 102.570312 C 345.203125 102.570312 346.550781 103.109375 347.722656 104.28125 C 348.621094 105.179688 348.894531 106.800781 348.894531 108.148438 C 338.09375 109.589844 333.050781 110.578125 327.652344 113.910156 C 322.613281 117.058594 320.902344 122.191406 320.902344 126.238281 C 320.902344 135.871094 327.832031 142.078125 336.652344 142.078125 C 343.402344 142.078125 347.273438 138.839844 349.164062 137.308594 L 349.164062 140.640625 L 349.703125 141.269531 C 356.183594 141 358.164062 140.910156 364.011719 141 L 364.460938 140.371094 C 363.832031 131.550781 363.832031 129.300781 363.832031 120.839844 L 363.921875 114.179688 M 349.074219 128.488281 C 347.183594 129.570312 344.753906 130.828125 341.78125 130.828125 C 338.542969 130.828125 335.84375 129.121094 335.84375 125.339844 C 335.84375 119.398438 342.953125 118.410156 349.074219 117.601562 Z M 399.652344 130.648438 C 398.121094 131.101562 397.039062 131.460938 395.511719 131.460938 C 390.921875 131.460938 390.5625 128.578125 390.378906 127.230469 C 390.109375 124.890625 390.109375 119.941406 390.199219 116.339844 L 390.378906 103.648438 L 398.480469 104.011719 L 399.019531 103.46875 L 399.921875 93.839844 L 399.378906 93.300781 L 390.378906 93.300781 L 390.652344 78.179688 L 390.019531 77.640625 C 383.902344 79.441406 382.28125 79.890625 375.890625 81.511719 L 375.53125 82.140625 L 375.621094 93.390625 L 370.761719 93.210938 L 370.222656 93.660156 L 369.410156 103.289062 L 369.949219 103.828125 L 375.621094 103.648438 L 375.351562 117.960938 C 375.261719 120.210938 375.171875 122.460938 375.171875 124.800781 C 375.171875 133.078125 375.351562 141.988281 389.390625 141.988281 C 392.902344 141.988281 395.691406 141.449219 398.839844 140.910156 L 399.472656 140.28125 L 400.371094 131.011719 Z M 446.269531 127.679688 C 442.851562 129.480469 438.800781 131.550781 432.230469 131.550781 C 426.832031 131.550781 423.140625 129.839844 420.980469 126.601562 C 419.628906 124.710938 419.359375 122.910156 419 121.109375 L 448.070312 120.570312 L 448.609375 119.941406 C 448.519531 115.53125 448.429688 111.03125 447.171875 106.53125 C 444.019531 95.910156 437.089844 93.75 434.03125 93.03125 C 431.78125 92.398438 429.710938 92.21875 427.640625 92.21875 C 413.511719 92.21875 404.148438 101.488281 404.148438 117.058594 C 404.148438 121.289062 404.871094 125.699219 406.308594 128.851562 C 411.53125 141 423.769531 142.078125 430.25 142.078125 C 437.71875 142.078125 440.960938 140.730469 445.730469 138.839844 L 446.269531 138.121094 L 446.898438 127.949219 L 446.269531 127.679688 M 419 111.570312 C 419.269531 108.78125 419.898438 105 423.320312 102.839844 C 424.398438 102.121094 425.660156 101.851562 426.921875 101.851562 C 429.890625 101.851562 431.691406 103.378906 432.679688 105 C 433.941406 106.980469 434.03125 109.140625 434.03125 111.210938 Z M 499.820312 77.191406 C 492.078125 77.550781 490.007812 77.550781 483.53125 77.460938 L 483.167969 78 C 483.710938 87.71875 483.980469 92.308594 483.980469 115.261719 C 483.980469 125.878906 483.800781 131.371094 483.441406 140.730469 L 483.890625 141.269531 C 490.640625 141 492.441406 141 499.910156 141 L 500.449219 140.460938 C 500 132.179688 499.820312 128.039062 499.820312 114.988281 C 499.820312 102.570312 500 90.148438 500.269531 77.730469 Z M 555.441406 140.371094 C 554.992188 132.449219 554.992188 129.929688 554.8125 121.109375 L 554.8125 114.089844 C 554.722656 105.449219 554.632812 101.308594 552.382812 97.621094 C 549.589844 92.941406 544.460938 92.21875 541.222656 92.21875 C 535.730469 92.21875 530.960938 95.101562 526.820312 97.53125 L 527 92.578125 L 526.101562 91.949219 C 519.171875 93.390625 517.640625 93.660156 510.890625 94.558594 L 510.351562 95.191406 C 511.070312 103.019531 511.613281 108.691406 511.613281 123.359375 C 511.613281 129.121094 511.519531 134.878906 511.429688 140.640625 L 511.972656 141.179688 C 518.453125 140.910156 519.800781 140.910156 527 140.910156 L 527.542969 140.371094 C 527 126.511719 526.910156 123 526.820312 106.890625 C 528.710938 105.628906 530.871094 104.101562 533.75 104.101562 C 538.703125 104.101562 539.152344 109.410156 539.421875 112.648438 C 539.601562 115.621094 539.691406 127.949219 539.691406 131.371094 C 539.691406 134.429688 539.601562 137.578125 539.601562 140.640625 L 540.140625 141.179688 C 546.082031 141 547.613281 140.910156 554.8125 140.910156 Z M 609.800781 140.460938 C 609.441406 132.359375 609.171875 126.960938 609.171875 115.171875 C 609.171875 91.410156 609.53125 81.601562 609.890625 69.71875 L 609.261719 69.179688 L 594.410156 71.519531 L 593.960938 72.058594 C 594.5 80.519531 594.589844 82.769531 594.5 93.03125 C 587.75 92.851562 579.289062 92.671875 572.449219 98.070312 C 566.152344 102.929688 563.539062 110.398438 563.539062 119.671875 C 563.539062 126.691406 565.429688 133.710938 570.742188 138.121094 C 574.699219 141.359375 579.5625 142.078125 582.53125 142.078125 C 588.921875 142.078125 592.25 139.109375 594.410156 137.21875 L 594.230469 140.730469 L 594.679688 141.269531 C 600.890625 141 602.601562 141 609.351562 141 L 609.800781 140.460938 M 594.5 103.828125 C 594.589844 115.800781 594.5 118.140625 594.230469 129.03125 C 592.429688 130.109375 590.628906 131.191406 588.109375 131.191406 C 579.378906 131.191406 579.378906 120.03125 579.378906 118.230469 C 579.378906 111.300781 581.359375 103.558594 591.441406 103.558594 C 592.429688 103.558594 593.242188 103.648438 594.5 103.828125 Z M 636.351562 140.371094 C 635.898438 133.441406 635.539062 128.128906 635.539062 115.710938 C 635.539062 108.058594 635.71875 100.320312 635.808594 92.671875 L 635.179688 91.949219 L 619.699219 94.648438 L 619.160156 95.191406 C 619.878906 102.03125 620.148438 105.179688 620.148438 117.960938 C 620.148438 127.769531 619.878906 133.261719 619.609375 140.640625 L 620.148438 141.269531 C 626.628906 141 628.429688 140.910156 635.71875 141 L 636.351562 140.371094 M 634.910156 83.308594 L 635.179688 71.070312 L 634.640625 70.53125 L 619.96875 72.328125 L 619.429688 72.960938 C 619.609375 76.199219 619.699219 78.089844 619.699219 80.25 C 619.699219 81.960938 619.699219 83.761719 619.609375 85.46875 L 620.238281 86.011719 C 626.359375 84.929688 628.070312 84.75 634.460938 83.941406 Z M 686.390625 114.179688 C 686.480469 106.078125 686.480469 102.570312 684.140625 98.789062 C 682.339844 95.910156 678.742188 92.308594 667.222656 92.308594 C 659.480469 92.308594 654.710938 93.75 649.582031 95.28125 L 649.042969 96 L 648.589844 105.808594 L 649.3125 106.171875 C 652.460938 104.910156 658.3125 102.570312 664.339844 102.570312 C 667.671875 102.570312 669.019531 103.109375 670.191406 104.28125 C 671.089844 105.179688 671.363281 106.800781 671.363281 108.148438 C 660.5625 109.589844 655.519531 110.578125 650.121094 113.910156 C 645.082031 117.058594 643.371094 122.191406 643.371094 126.238281 C 643.371094 135.871094 650.300781 142.078125 659.121094 142.078125 C 665.871094 142.078125 669.742188 138.839844 671.632812 137.308594 L 671.632812 140.640625 L 672.171875 141.269531 C 678.652344 141 680.632812 140.910156 686.480469 141 L 686.929688 140.371094 C 686.300781 131.550781 686.300781 129.300781 686.300781 120.839844 L 686.390625 114.179688 M 671.542969 128.488281 C 669.652344 129.570312 667.222656 130.828125 664.25 130.828125 C 661.011719 130.828125 658.3125 129.121094 658.3125 125.339844 C 658.3125 119.398438 665.421875 118.410156 671.542969 117.601562 Z M 741.019531 140.371094 C 740.570312 132.449219 740.570312 129.929688 740.390625 121.109375 L 740.390625 114.089844 C 740.300781 105.449219 740.210938 101.308594 737.960938 97.621094 C 735.167969 92.941406 730.039062 92.21875 726.800781 92.21875 C 721.308594 92.21875 716.539062 95.101562 712.398438 97.53125 L 712.578125 92.578125 L 711.679688 91.949219 C 704.75 93.390625 703.21875 93.660156 696.46875 94.558594 L 695.929688 95.191406 C 696.648438 103.019531 697.191406 108.691406 697.191406 123.359375 C 697.191406 129.121094 697.097656 134.878906 697.007812 140.640625 L 697.550781 141.179688 C 704.03125 140.910156 705.378906 140.910156 712.578125 140.910156 L 713.121094 140.371094 C 712.578125 126.511719 712.488281 123 712.398438 106.890625 C 714.289062 105.628906 716.449219 104.101562 719.328125 104.101562 C 724.28125 104.101562 724.730469 109.410156 725 112.648438 C 725.179688 115.621094 725.269531 127.949219 725.269531 131.371094 C 725.269531 134.429688 725.179688 137.578125 725.179688 140.640625 L 725.71875 141.179688 C 731.660156 141 733.191406 140.910156 740.390625 140.910156 Z M 745.882812 141 "/>
<path fill-rule="nonzero" fill="rgb(34.901961%, 14.901961%, 14.901961%)" fill-opacity="1" d="M 260.960938 197.191406 C 251.601562 197.460938 250.070312 197.460938 240.082031 197.460938 L 239.542969 198 L 235.402344 212.578125 L 231.800781 225.628906 L 227.570312 241.289062 L 223.609375 225.179688 L 221.089844 215.011719 L 216.589844 197.730469 L 216.140625 197.191406 C 206.511719 197.460938 204.890625 197.460938 194.8125 197.460938 L 194.269531 198 C 193.371094 224.910156 193.011719 231.839844 191.03125 260.730469 L 191.480469 261.269531 C 197.242188 261 198.953125 260.910156 204.171875 261 L 204.710938 260.460938 L 204.980469 243.269531 L 205.519531 225.808594 L 205.882812 208.800781 L 209.839844 224.730469 L 213.261719 237.511719 L 219.292969 260.730469 L 219.832031 261.269531 C 225.410156 261 226.941406 260.910156 233.242188 261 L 233.78125 260.460938 L 239 241.289062 L 242.601562 228.148438 L 247.640625 209.25 L 247.640625 225.359375 L 247.820312 239.128906 L 247.820312 260.730469 L 248.269531 261.269531 C 254.480469 261 256.910156 260.910156 263.839844 261 L 264.292969 260.460938 C 263.75 250.199219 263.121094 239.851562 262.761719 229.5 C 262.492188 223.828125 262.3125 218.160156 262.042969 212.488281 C 261.589844 204.121094 261.5 203.039062 261.5 197.730469 Z M 317.664062 212.851562 L 302.992188 213.570312 L 302.363281 214.109375 C 302.992188 224.28125 302.992188 238.679688 302.992188 240.121094 C 302.992188 242.730469 302.992188 244.171875 302.902344 247.769531 C 300.472656 249.390625 298.582031 250.738281 296.152344 250.738281 C 289.671875 250.738281 289.671875 243.898438 289.671875 238.589844 C 289.671875 236.339844 289.671875 234 289.761719 231.75 L 289.941406 213.570312 L 289.3125 212.851562 L 274.460938 213.570312 L 273.832031 214.109375 C 274.371094 221.671875 274.460938 224.191406 274.460938 233.28125 L 274.460938 239.578125 C 274.371094 249.390625 274.824219 253.53125 278.0625 257.308594 C 281.03125 260.640625 285.351562 262.078125 289.851562 262.078125 C 296.242188 262.078125 299.933594 259.199219 303.171875 256.679688 L 303.082031 260.730469 L 303.710938 261.269531 C 310.28125 261 312.261719 261 318.113281 261 L 318.652344 260.460938 C 318.203125 254.070312 318.023438 250.648438 318.023438 238.949219 C 318.023438 230.488281 318.113281 222.03125 318.292969 213.570312 Z M 347.722656 229.949219 C 344.660156 228.871094 342.230469 227.878906 342.230469 225.359375 C 342.230469 224.28125 342.953125 221.308594 348.53125 221.308594 C 354.023438 221.308594 357.53125 223.648438 359.78125 225.089844 L 360.59375 224.820312 L 361.492188 215.011719 L 361.042969 214.46875 C 356.8125 213.300781 353.121094 212.21875 347.273438 212.21875 C 342.863281 212.21875 334.042969 212.578125 329.363281 219.328125 C 328.191406 220.949219 326.933594 223.648438 326.933594 227.25 C 326.933594 236.878906 334.402344 239.761719 338.632812 241.378906 L 342.050781 242.640625 C 344.480469 243.449219 348.441406 244.800781 348.441406 248.039062 C 348.441406 250.289062 346.371094 252.71875 341.332031 252.71875 C 338.8125 252.71875 335.121094 251.910156 331.792969 250.199219 C 330.261719 249.390625 329.542969 248.761719 328.191406 247.679688 L 327.382812 248.039062 C 327.203125 252.71875 327.113281 253.710938 326.75 258.210938 L 327.203125 259.019531 C 331.613281 260.640625 335.390625 262.078125 341.960938 262.078125 C 348.800781 262.078125 362.300781 260.820312 363.921875 247.949219 C 364.011719 247.230469 364.011719 246.601562 364.011719 245.96875 C 364.011719 236.070312 357.082031 233.460938 352.132812 231.570312 Z M 411.890625 247.679688 C 408.472656 249.480469 404.421875 251.550781 397.851562 251.550781 C 392.453125 251.550781 388.761719 249.839844 386.601562 246.601562 C 385.25 244.710938 384.980469 242.910156 384.621094 241.109375 L 413.691406 240.570312 L 414.230469 239.941406 C 414.140625 235.53125 414.050781 231.03125 412.792969 226.53125 C 409.640625 215.910156 402.710938 213.75 399.652344 213.03125 C 397.402344 212.398438 395.332031 212.21875 393.261719 212.21875 C 379.132812 212.21875 369.769531 221.488281 369.769531 237.058594 C 369.769531 241.289062 370.492188 245.699219 371.929688 248.851562 C 377.152344 261 389.390625 262.078125 395.871094 262.078125 C 403.339844 262.078125 406.582031 260.730469 411.351562 258.839844 L 411.890625 258.121094 L 412.519531 247.949219 L 411.890625 247.679688 M 384.621094 231.570312 C 384.890625 228.78125 385.519531 225 388.941406 222.839844 C 390.019531 222.121094 391.28125 221.851562 392.542969 221.851562 C 395.511719 221.851562 397.3125 223.378906 398.300781 225 C 399.5625 226.980469 399.652344 229.140625 399.652344 231.210938 Z M 465.710938 212.851562 L 451.039062 213.570312 L 450.410156 214.109375 C 451.039062 224.28125 451.039062 238.679688 451.039062 240.121094 C 451.039062 242.730469 451.039062 244.171875 450.949219 247.769531 C 448.519531 249.390625 446.628906 250.738281 444.199219 250.738281 C 437.71875 250.738281 437.71875 243.898438 437.71875 238.589844 C 437.71875 236.339844 437.71875 234 437.808594 231.75 L 437.988281 213.570312 L 437.359375 212.851562 L 422.507812 213.570312 L 421.878906 214.109375 C 422.417969 221.671875 422.507812 224.191406 422.507812 233.28125 L 422.507812 239.578125 C 422.417969 249.390625 422.871094 253.53125 426.109375 257.308594 C 429.078125 260.640625 433.398438 262.078125 437.898438 262.078125 C 444.289062 262.078125 447.980469 259.199219 451.21875 256.679688 L 451.128906 260.730469 L 451.757812 261.269531 C 458.328125 261 460.308594 261 466.160156 261 L 466.699219 260.460938 C 466.25 254.070312 466.070312 250.648438 466.070312 238.949219 C 466.070312 230.488281 466.160156 222.03125 466.339844 213.570312 Z M 547.164062 260.371094 C 546.710938 252 546.621094 249.660156 546.621094 239.488281 L 546.621094 232.738281 C 546.710938 226.710938 546.800781 221.128906 544.191406 217.351562 C 540.683594 212.21875 534.472656 212.21875 533.03125 212.21875 C 525.652344 212.21875 520.703125 215.550781 517.101562 218.070312 C 515.84375 216 513.59375 212.21875 506.394531 212.21875 C 500.453125 212.21875 496.582031 214.921875 492.441406 217.800781 L 492.441406 212.761719 L 491.632812 211.949219 C 484.613281 213.300781 482.632812 213.660156 476.332031 214.558594 L 475.792969 215.191406 C 476.511719 222.390625 477.050781 227.339844 477.050781 245.160156 C 477.050781 250.289062 476.960938 255.511719 476.960938 260.640625 L 477.414062 261.179688 C 483.171875 261 485.152344 260.910156 492.621094 260.910156 L 493.164062 260.371094 C 492.53125 246.511719 492.441406 242.371094 492.351562 226.710938 C 494.242188 225.359375 496.3125 224.191406 498.5625 224.191406 C 504.144531 224.191406 504.324219 230.578125 504.324219 238.320312 C 504.324219 251.371094 504.234375 253.351562 504.050781 260.640625 L 504.59375 261.269531 C 511.433594 260.910156 513.324219 260.910156 519.53125 260.910156 L 520.074219 260.371094 C 519.53125 251.820312 519.441406 249.300781 519.351562 238.410156 L 519.351562 235.078125 L 519.261719 225.988281 C 520.792969 225 522.773438 223.738281 525.472656 223.738281 C 530.601562 223.738281 531.414062 228.601562 531.414062 236.339844 C 531.414062 238.050781 531.324219 239.761719 531.324219 241.46875 C 531.234375 244.53125 531.144531 257.941406 531.050781 260.640625 L 531.59375 261.179688 C 538.34375 260.910156 540.324219 260.910156 546.621094 260.910156 Z M 609.800781 222.300781 C 602.242188 219.148438 598.28125 217.53125 598.28125 213.480469 C 598.28125 210.691406 600.890625 207.179688 606.832031 207.179688 C 613.671875 207.179688 617.71875 209.96875 621.050781 212.21875 L 621.859375 211.859375 L 622.582031 200.070312 L 622.128906 199.441406 C 618.261719 197.820312 614.210938 196.109375 605.480469 196.109375 C 588.5625 196.109375 582.710938 205.648438 582.710938 215.28125 C 582.710938 226.171875 591.171875 230.128906 596.210938 232.558594 L 599.179688 233.910156 C 605.390625 236.519531 610.160156 238.769531 610.160156 243.539062 C 610.160156 246.960938 607.191406 251.011719 599.359375 251.011719 C 591.171875 251.011719 586.582031 247.410156 583.96875 245.339844 L 583.070312 245.609375 L 582.441406 258.300781 L 582.980469 259.019531 C 583.96875 259.378906 584.960938 259.828125 585.949219 260.101562 C 588.019531 260.820312 593.332031 262.351562 600.082031 262.351562 C 602.78125 262.351562 609.621094 262.078125 615.019531 259.558594 C 622.582031 255.871094 625.820312 249.03125 625.820312 241.378906 C 625.820312 236.25 623.839844 230.761719 619.070312 227.070312 C 616.640625 225.269531 614.300781 224.191406 612.140625 223.199219 Z M 659.574219 250.648438 C 658.042969 251.101562 656.960938 251.460938 655.433594 251.460938 C 650.84375 251.460938 650.484375 248.578125 650.300781 247.230469 C 650.03125 244.890625 650.03125 239.941406 650.121094 236.339844 L 650.300781 223.648438 L 658.402344 224.011719 L 658.941406 223.46875 L 659.84375 213.839844 L 659.300781 213.300781 L 650.300781 213.300781 L 650.574219 198.179688 L 649.941406 197.640625 C 643.824219 199.441406 642.203125 199.890625 635.8125 201.511719 L 635.453125 202.140625 L 635.542969 213.390625 L 630.683594 213.210938 L 630.144531 213.660156 L 629.332031 223.289062 L 629.871094 223.828125 L 635.542969 223.648438 L 635.273438 237.960938 C 635.183594 240.210938 635.09375 242.460938 635.09375 244.800781 C 635.09375 253.078125 635.273438 261.988281 649.3125 261.988281 C 652.824219 261.988281 655.613281 261.449219 658.761719 260.910156 L 659.394531 260.28125 L 660.292969 251.011719 Z M 706.28125 234.179688 C 706.371094 226.078125 706.371094 222.570312 704.03125 218.789062 C 702.230469 215.910156 698.632812 212.308594 687.113281 212.308594 C 679.371094 212.308594 674.601562 213.75 669.472656 215.28125 L 668.933594 216 L 668.480469 225.808594 L 669.203125 226.171875 C 672.351562 224.910156 678.203125 222.570312 684.230469 222.570312 C 687.5625 222.570312 688.910156 223.109375 690.082031 224.28125 C 690.980469 225.179688 691.253906 226.800781 691.253906 228.148438 C 680.453125 229.589844 675.410156 230.578125 670.011719 233.910156 C 664.972656 237.058594 663.261719 242.191406 663.261719 246.238281 C 663.261719 255.871094 670.191406 262.078125 679.011719 262.078125 C 685.761719 262.078125 689.632812 258.839844 691.523438 257.308594 L 691.523438 260.640625 L 692.0625 261.269531 C 698.542969 261 700.523438 260.910156 706.371094 261 L 706.820312 260.371094 C 706.191406 251.550781 706.191406 249.300781 706.191406 240.839844 L 706.28125 234.179688 M 691.433594 248.488281 C 689.542969 249.570312 687.113281 250.828125 684.140625 250.828125 C 680.902344 250.828125 678.203125 249.121094 678.203125 245.339844 C 678.203125 239.398438 685.3125 238.410156 691.433594 237.601562 Z M 742.011719 250.648438 C 740.480469 251.101562 739.398438 251.460938 737.871094 251.460938 C 733.28125 251.460938 732.921875 248.578125 732.738281 247.230469 C 732.46875 244.890625 732.46875 239.941406 732.558594 236.339844 L 732.738281 223.648438 L 740.839844 224.011719 L 741.378906 223.46875 L 742.28125 213.839844 L 741.738281 213.300781 L 732.738281 213.300781 L 733.011719 198.179688 L 732.378906 197.640625 C 726.261719 199.441406 724.640625 199.890625 718.25 201.511719 L 717.890625 202.140625 L 717.980469 213.390625 L 713.121094 213.210938 L 712.582031 213.660156 L 711.769531 223.289062 L 712.308594 223.828125 L 717.980469 223.648438 L 717.710938 237.960938 C 717.621094 240.210938 717.53125 242.460938 717.53125 244.800781 C 717.53125 253.078125 717.710938 261.988281 731.75 261.988281 C 735.261719 261.988281 738.050781 261.449219 741.199219 260.910156 L 741.832031 260.28125 L 742.730469 251.011719 Z M 788.628906 247.679688 C 785.210938 249.480469 781.160156 251.550781 774.589844 251.550781 C 769.191406 251.550781 765.5 249.839844 763.339844 246.601562 C 761.988281 244.710938 761.71875 242.910156 761.359375 241.109375 L 790.429688 240.570312 L 790.96875 239.941406 C 790.878906 235.53125 790.789062 231.03125 789.53125 226.53125 C 786.378906 215.910156 779.449219 213.75 776.390625 213.03125 C 774.140625 212.398438 772.070312 212.21875 770 212.21875 C 755.871094 212.21875 746.507812 221.488281 746.507812 237.058594 C 746.507812 241.289062 747.230469 245.699219 748.667969 248.851562 C 753.890625 261 766.128906 262.078125 772.609375 262.078125 C 780.078125 262.078125 783.320312 260.730469 788.089844 258.839844 L 788.628906 258.121094 L 789.257812 247.949219 L 788.628906 247.679688 M 761.359375 231.570312 C 761.628906 228.78125 762.257812 225 765.679688 222.839844 C 766.757812 222.121094 768.019531 221.851562 769.28125 221.851562 C 772.25 221.851562 774.050781 223.378906 775.039062 225 C 776.300781 226.980469 776.390625 229.140625 776.390625 231.210938 Z M 793.851562 261 "/>
<path fill-rule="nonzero" fill="rgb(34.901961%, 14.901961%, 14.901961%)" fill-opacity="1" d="M 277.921875 317.191406 C 270.722656 317.460938 269.554688 317.460938 261.992188 317.460938 L 261.542969 318 C 262.171875 328.171875 262.171875 330.78125 262.261719 341.398438 C 258.304688 341.488281 254.34375 341.578125 250.292969 341.578125 C 247.144531 341.578125 243.902344 341.488281 240.753906 341.488281 L 240.933594 317.730469 L 240.484375 317.191406 C 233.554688 317.460938 232.203125 317.460938 224.375 317.460938 L 223.832031 318 C 224.285156 327.269531 224.824219 338.339844 224.824219 360.660156 C 224.824219 368.761719 224.644531 373.171875 224.464844 380.730469 L 224.914062 381.269531 C 231.484375 381 233.101562 380.910156 241.023438 381 L 241.472656 380.460938 C 240.933594 369.300781 240.84375 366.058594 240.753906 353.011719 C 244.714844 352.828125 248.042969 352.738281 251.554688 352.738281 C 255.152344 352.738281 258.753906 352.828125 262.351562 352.921875 C 262.535156 365.070312 262.535156 368.039062 262.082031 380.730469 L 262.535156 381.269531 C 269.285156 381 271.082031 380.910156 278.734375 381 L 279.183594 380.460938 C 278.464844 365.339844 278.191406 350.308594 278.191406 335.191406 C 278.191406 328.890625 278.285156 324.660156 278.375 317.730469 Z M 305.914062 380.371094 C 305.460938 373.441406 305.101562 368.128906 305.101562 355.710938 C 305.101562 348.058594 305.28125 340.320312 305.371094 332.671875 L 304.742188 331.949219 L 289.261719 334.648438 L 288.722656 335.191406 C 289.441406 342.03125 289.710938 345.179688 289.710938 357.960938 C 289.710938 367.769531 289.441406 373.261719 289.171875 380.640625 L 289.710938 381.269531 C 296.191406 381 297.992188 380.910156 305.28125 381 L 305.914062 380.371094 M 304.472656 323.308594 L 304.742188 311.070312 L 304.203125 310.53125 L 289.53125 312.328125 L 288.992188 312.960938 C 289.171875 316.199219 289.261719 318.089844 289.261719 320.25 C 289.261719 321.960938 289.261719 323.761719 289.171875 325.46875 L 289.800781 326.011719 C 295.921875 324.929688 297.632812 324.75 304.023438 323.941406 Z M 334.804688 349.949219 C 331.742188 348.871094 329.3125 347.878906 329.3125 345.359375 C 329.3125 344.28125 330.035156 341.308594 335.613281 341.308594 C 341.105469 341.308594 344.613281 343.648438 346.863281 345.089844 L 347.675781 344.820312 L 348.574219 335.011719 L 348.125 334.46875 C 343.894531 333.300781 340.203125 332.21875 334.355469 332.21875 C 329.945312 332.21875 321.125 332.578125 316.445312 339.328125 C 315.273438 340.949219 314.015625 343.648438 314.015625 347.25 C 314.015625 356.878906 321.484375 359.761719 325.714844 361.378906 L 329.132812 362.640625 C 331.5625 363.449219 335.523438 364.800781 335.523438 368.039062 C 335.523438 370.289062 333.453125 372.71875 328.414062 372.71875 C 325.894531 372.71875 322.203125 371.910156 318.875 370.199219 C 317.34375 369.390625 316.625 368.761719 315.273438 367.679688 L 314.464844 368.039062 C 314.285156 372.71875 314.195312 373.710938 313.832031 378.210938 L 314.285156 379.019531 C 318.695312 380.640625 322.472656 382.078125 329.042969 382.078125 C 335.882812 382.078125 349.382812 380.820312 351.003906 367.949219 C 351.09375 367.230469 351.09375 366.601562 351.09375 365.96875 C 351.09375 356.070312 344.164062 353.460938 339.214844 351.570312 Z M 384.214844 370.648438 C 382.683594 371.101562 381.601562 371.460938 380.074219 371.460938 C 375.484375 371.460938 375.125 368.578125 374.941406 367.230469 C 374.671875 364.890625 374.671875 359.941406 374.761719 356.339844 L 374.941406 343.648438 L 383.042969 344.011719 L 383.582031 343.46875 L 384.484375 333.839844 L 383.941406 333.300781 L 374.941406 333.300781 L 375.214844 318.179688 L 374.582031 317.640625 C 368.464844 319.441406 366.84375 319.890625 360.453125 321.511719 L 360.09375 322.140625 L 360.183594 333.390625 L 355.324219 333.210938 L 354.785156 333.660156 L 353.972656 343.289062 L 354.511719 343.828125 L 360.183594 343.648438 L 359.914062 357.960938 C 359.824219 360.210938 359.734375 362.460938 359.734375 364.800781 C 359.734375 373.078125 359.914062 381.988281 373.953125 381.988281 C 377.464844 381.988281 380.253906 381.449219 383.402344 380.910156 L 384.035156 380.28125 L 384.933594 371.011719 Z M 436.683594 357.058594 C 436.683594 353.550781 436.683594 338.96875 424.082031 334.019531 C 420.121094 332.488281 415.441406 332.308594 413.101562 332.308594 C 397.441406 332.308594 388.621094 340.679688 388.621094 357.238281 C 388.621094 363 389.523438 368.851562 392.851562 373.710938 C 395.191406 377.21875 399.601562 382.078125 412.472656 382.078125 C 431.550781 382.078125 436.683594 370.558594 436.683594 357.058594 M 421.113281 356.96875 C 421.113281 364.351562 420.121094 372.539062 412.652344 372.539062 C 410.3125 372.539062 408.691406 371.460938 407.613281 370.46875 C 406.082031 368.941406 404.371094 365.878906 404.371094 357.148438 C 404.371094 354.539062 404.371094 348.78125 406.171875 345.628906 C 407.523438 343.199219 409.863281 341.578125 412.742188 341.578125 C 415.261719 341.578125 417.332031 342.929688 418.503906 344.371094 C 420.664062 346.980469 421.113281 352.109375 421.113281 356.96875 Z M 471.242188 347.609375 L 473.761719 332.941406 L 473.222656 332.308594 C 472.59375 332.308594 471.960938 332.21875 471.332031 332.21875 C 467.640625 332.21875 463.503906 334.289062 460.621094 340.949219 L 460.890625 332.671875 L 460.171875 331.949219 C 453.511719 333.390625 451.800781 333.660156 445.230469 334.648438 L 444.691406 335.191406 C 445.230469 341.941406 445.503906 345.988281 445.503906 358.5 C 445.503906 365.878906 445.410156 373.261719 445.230469 380.730469 L 445.773438 381.269531 C 452.433594 381 453.871094 380.910156 461.070312 381 L 461.523438 380.371094 C 461.160156 373.078125 460.621094 362.910156 460.621094 356.699219 C 460.621094 352.648438 460.621094 346.710938 466.742188 346.710938 C 468.273438 346.710938 469.171875 347.25 470.433594 347.96875 Z M 495.273438 380.371094 C 494.820312 373.441406 494.460938 368.128906 494.460938 355.710938 C 494.460938 348.058594 494.640625 340.320312 494.730469 332.671875 L 494.101562 331.949219 L 478.621094 334.648438 L 478.082031 335.191406 C 478.800781 342.03125 479.070312 345.179688 479.070312 357.960938 C 479.070312 367.769531 478.800781 373.261719 478.53125 380.640625 L 479.070312 381.269531 C 485.550781 381 487.351562 380.910156 494.640625 381 L 495.273438 380.371094 M 493.832031 323.308594 L 494.101562 311.070312 L 493.5625 310.53125 L 478.890625 312.328125 L 478.351562 312.960938 C 478.53125 316.199219 478.621094 318.089844 478.621094 320.25 C 478.621094 321.960938 478.621094 323.761719 478.53125 325.46875 L 479.160156 326.011719 C 485.28125 324.929688 486.992188 324.75 493.382812 323.941406 Z M 540.453125 368.039062 C 538.023438 369.480469 535.683594 370.921875 531.09375 370.921875 C 520.921875 370.921875 518.851562 362.460938 518.851562 357.058594 C 518.851562 350.488281 521.734375 342.929688 530.464844 342.929688 C 534.421875 342.929688 536.582031 344.371094 539.285156 346.171875 L 540.183594 345.898438 C 540.542969 341.128906 540.632812 339.871094 541.351562 335.101562 L 540.902344 334.558594 C 536.941406 333.300781 533.523438 332.21875 528.304688 332.21875 C 507.152344 332.21875 503.011719 348.238281 503.011719 357.421875 C 503.011719 367.769531 508.414062 381.808594 528.664062 381.808594 C 533.433594 381.808594 536.492188 380.910156 540.273438 379.828125 L 540.8125 379.289062 L 541.171875 368.488281 Z M 586.714844 317.28125 L 575.285156 317.460938 L 574.742188 318 C 575.105469 329.699219 575.375 337.53125 575.375 347.878906 C 575.375 358.859375 575.105469 369.75 574.832031 380.730469 L 575.375 381.269531 C 582.035156 381 583.472656 380.910156 590.675781 381 L 591.125 380.460938 C 590.765625 370.648438 590.765625 368.398438 590.765625 359.21875 C 600.84375 359.308594 611.644531 359.308594 618.125 351.390625 C 620.644531 348.328125 622.804688 343.199219 622.804688 336.898438 C 622.804688 333.03125 621.902344 324.480469 614.433594 320.25 C 609.035156 317.101562 601.382812 317.101562 594.632812 317.101562 L 586.714844 317.28125 M 590.765625 328.171875 C 592.742188 328.078125 594.632812 328.078125 596.613281 328.078125 C 604.535156 328.261719 606.695312 332.308594 606.695312 337.53125 C 606.695312 338.789062 606.695312 344.011719 601.925781 346.621094 C 599.492188 347.96875 596.164062 348.148438 590.765625 348.148438 Z M 669.0625 354.179688 C 669.152344 346.078125 669.152344 342.570312 666.8125 338.789062 C 665.011719 335.910156 661.414062 332.308594 649.894531 332.308594 C 642.152344 332.308594 637.382812 333.75 632.253906 335.28125 L 631.714844 336 L 631.261719 345.808594 L 631.984375 346.171875 C 635.132812 344.910156 640.984375 342.570312 647.011719 342.570312 C 650.34375 342.570312 651.691406 343.109375 652.863281 344.28125 C 653.761719 345.179688 654.035156 346.800781 654.035156 348.148438 C 643.234375 349.589844 638.191406 350.578125 632.792969 353.910156 C 627.753906 357.058594 626.042969 362.191406 626.042969 366.238281 C 626.042969 375.871094 632.972656 382.078125 641.792969 382.078125 C 648.542969 382.078125 652.414062 378.839844 654.304688 377.308594 L 654.304688 380.640625 L 654.84375 381.269531 C 661.324219 381 663.304688 380.910156 669.152344 381 L 669.601562 380.371094 C 668.972656 371.550781 668.972656 369.300781 668.972656 360.839844 L 669.0625 354.179688 M 654.214844 368.488281 C 652.324219 369.570312 649.894531 370.828125 646.921875 370.828125 C 643.683594 370.828125 640.984375 369.121094 640.984375 365.339844 C 640.984375 359.398438 648.09375 358.410156 654.214844 357.601562 Z M 705.601562 347.609375 L 708.121094 332.941406 L 707.582031 332.308594 C 706.953125 332.308594 706.320312 332.21875 705.691406 332.21875 C 702 332.21875 697.863281 334.289062 694.980469 340.949219 L 695.25 332.671875 L 694.53125 331.949219 C 687.871094 333.390625 686.160156 333.660156 679.589844 334.648438 L 679.050781 335.191406 C 679.589844 341.941406 679.863281 345.988281 679.863281 358.5 C 679.863281 365.878906 679.769531 373.261719 679.589844 380.730469 L 680.132812 381.269531 C 686.792969 381 688.230469 380.910156 695.429688 381 L 695.882812 380.371094 C 695.519531 373.078125 694.980469 362.910156 694.980469 356.699219 C 694.980469 352.648438 694.980469 346.710938 701.101562 346.710938 C 702.632812 346.710938 703.53125 347.25 704.792969 347.96875 Z M 759.601562 379.828125 C 751.140625 365.519531 750.242188 363.898438 743.402344 351.570312 C 749.613281 343.109375 750.242188 342.210938 756.632812 334.019531 L 756.179688 333.121094 L 741.511719 333.300781 L 740.613281 333.929688 C 733.589844 346.078125 732.691406 347.519531 728.550781 353.730469 L 728.550781 343.738281 C 728.640625 326.910156 728.730469 323.308594 729.179688 309.71875 L 728.460938 309.179688 L 712.800781 311.519531 L 712.261719 312.148438 C 712.890625 320.878906 713.160156 325.109375 713.339844 336.898438 C 713.519531 351.480469 713.519531 366.058594 713.429688 380.640625 L 714.0625 381.269531 C 720.089844 381 721.800781 381 728.640625 381 L 729.179688 380.371094 L 728.640625 365.160156 L 728.550781 354.808594 C 736.382812 369.210938 737.371094 371.191406 741.960938 380.730469 L 742.769531 381.269531 L 758.972656 380.640625 Z M 758.523438 381 "/>
</svg>
