<?xml version="1.0" encoding="UTF-8"?>
<svg xmlns="http://www.w3.org/2000/svg" xmlns:xlink="http://www.w3.org/1999/xlink" width="975" height="1300" viewBox="0 0 975 1300">
<path fill-rule="nonzero" fill="rgb(98.823529%, 78.823529%, 9.019608%)" fill-opacity="1" d="M 50 50 L 925 50 L 925 410 L 50 410 Z M 50 50 "/>
<path fill-rule="nonzero" fill="rgb(34.901961%, 14.901961%, 14.901961%)" fill-opacity="1" d="M 200.210938 128.671875 C 190.398438 129.210938 182.570312 129.390625 179.871094 129.390625 L 178.070312 129.390625 C 177.890625 105.359375 177.980469 99.238281 178.699219 77.730469 L 178.160156 77.191406 C 170.417969 77.550781 168.347656 77.550781 162.140625 77.460938 L 161.597656 78 C 161.960938 85.199219 162.050781 87.359375 162.050781 98.070312 C 162.050781 112.289062 161.960938 126.511719 161.960938 140.730469 L 162.410156 141.269531 C 180.050781 141 183.289062 141 199.488281 141 L 199.9375 140.460938 L 200.660156 129.121094 Z M 248.359375 127.679688 C 244.941406 129.480469 240.890625 131.550781 234.320312 131.550781 C 228.921875 131.550781 225.230469 129.839844 223.070312 126.601562 C 221.71875 124.710938 221.449219 122.910156 221.089844 121.109375 L 250.160156 120.570312 L 250.699219 119.941406 C 250.609375 115.53125 250.519531 111.03125 249.261719 106.53125 C 246.109375 95.910156 239.179688 93.75 236.121094 93.03125 C 233.871094 92.398438 231.800781 92.21875 229.730469 92.21875 C 215.601562 92.21875 206.238281 101.488281 206.238281 117.058594 C 206.238281 121.289062 206.960938 125.699219 208.398438 128.851562 C 213.621094 141 225.859375 142.078125 232.339844 142.078125 C 239.808594 142.078125 243.050781 140.730469 247.820312 138.839844 L 248.359375 138.121094 L 248.988281 127.949219 L 248.359375 127.679688 M 221.089844 111.570312 C 221.359375 108.78125 221.988281 105 225.410156 102.839844 C 226.488281 102.121094 227.75 101.851562 229.011719 101.851562 C 231.980469 101.851562 233.78125 103.378906 234.769531 105 C 236.03125 106.980469 236.121094 109.140625 236.121094 111.210938 Z M 274.816406 140.371094 C 274.367188 130.019531 273.917969 120.570312 273.917969 92.128906 C 273.917969 83.578125 274.007812 79.53125 274.367188 69.808594 L 273.738281 69.179688 L 258.347656 71.609375 L 257.988281 72.148438 C 258.886719 83.128906 258.976562 86.101562 259.15625 100.679688 C 259.25 105.988281 259.25 111.300781 259.25 116.609375 C 259.25 126.328125 259.066406 131.730469 258.707031 140.640625 L 259.25 141.269531 C 265.277344 141 267.707031 140.910156 274.277344 141 Z M 325.308594 114.179688 C 325.398438 106.078125 325.398438 102.570312 323.058594 98.789062 C 321.257812 95.910156 317.660156 92.308594 306.140625 92.308594 C 298.398438 92.308594 293.628906 93.75 288.5 95.28125 L 287.960938 96 L 287.507812 105.808594 L 288.230469 106.171875 C 291.378906 104.910156 297.230469 102.570312 303.257812 102.570312 C 306.589844 102.570312 307.9375 103.109375 309.109375 104.28125 C 310.007812 105.179688 310.28125 106.800781 310.28125 108.148438 C 299.480469 109.589844 294.4375 110.578125 289.039062 113.910156 C 284 117.058594 282.289062 122.191406 282.289062 126.238281 C 282.289062 135.871094 289.21875 142.078125 298.039062 142.078125 C 304.789062 142.078125 308.660156 138.839844 310.550781 137.308594 L 310.550781 140.640625 L 311.089844 141.269531 C 317.570312 141 319.550781 140.910156 325.398438 141 L 325.847656 140.371094 C 325.21875 131.550781 325.21875 129.300781 325.21875 120.839844 L 325.308594 114.179688 M 310.460938 128.488281 C 308.570312 129.570312 306.140625 130.828125 303.167969 130.828125 C 299.929688 130.828125 297.230469 129.121094 297.230469 125.339844 C 297.230469 119.398438 304.339844 118.410156 310.460938 117.601562 Z M 379.9375 140.371094 C 379.488281 132.449219 379.488281 129.929688 379.308594 121.109375 L 379.308594 114.089844 C 379.21875 105.449219 379.128906 101.308594 376.878906 97.621094 C 374.085938 92.941406 368.957031 92.21875 365.71875 92.21875 C 360.226562 92.21875 355.457031 95.101562 351.316406 97.53125 L 351.496094 92.578125 L 350.597656 91.949219 C 343.667969 93.390625 342.136719 93.660156 335.386719 94.558594 L 334.847656 95.191406 C 335.566406 103.019531 336.109375 108.691406 336.109375 123.359375 C 336.109375 129.121094 336.015625 134.878906 335.925781 140.640625 L 336.46875 141.179688 C 342.949219 140.910156 344.296875 140.910156 351.496094 140.910156 L 352.039062 140.371094 C 351.496094 126.511719 351.40625 123 351.316406 106.890625 C 353.207031 105.628906 355.367188 104.101562 358.246094 104.101562 C 363.199219 104.101562 363.648438 109.410156 363.917969 112.648438 C 364.097656 115.621094 364.1875 127.949219 364.1875 131.371094 C 364.1875 134.429688 364.097656 137.578125 364.097656 140.640625 L 364.636719 141.179688 C 370.578125 141 372.109375 140.910156 379.308594 140.910156 Z M 434.300781 140.460938 C 433.941406 132.359375 433.671875 126.960938 433.671875 115.171875 C 433.671875 91.410156 434.03125 81.601562 434.390625 69.71875 L 433.761719 69.179688 L 418.910156 71.519531 L 418.460938 72.058594 C 419 80.519531 419.089844 82.769531 419 93.03125 C 412.25 92.851562 403.789062 92.671875 396.949219 98.070312 C 390.652344 102.929688 388.039062 110.398438 388.039062 119.671875 C 388.039062 126.691406 389.929688 133.710938 395.242188 138.121094 C 399.199219 141.359375 404.0625 142.078125 407.03125 142.078125 C 413.421875 142.078125 416.75 139.109375 418.910156 137.21875 L 418.730469 140.730469 L 419.179688 141.269531 C 425.390625 141 427.101562 141 433.851562 141 L 434.300781 140.460938 M 419 103.828125 C 419.089844 115.800781 419 118.140625 418.730469 129.03125 C 416.929688 130.109375 415.128906 131.191406 412.609375 131.191406 C 403.878906 131.191406 403.878906 120.03125 403.878906 118.230469 C 403.878906 111.300781 405.859375 103.558594 415.941406 103.558594 C 416.929688 103.558594 417.742188 103.648438 419 103.828125 Z M 496.847656 102.300781 C 489.289062 99.148438 485.328125 97.53125 485.328125 93.480469 C 485.328125 90.691406 487.9375 87.179688 493.878906 87.179688 C 500.71875 87.179688 504.765625 89.96875 508.097656 92.21875 L 508.90625 91.859375 L 509.628906 80.070312 L 509.175781 79.441406 C 505.308594 77.820312 501.257812 76.109375 492.527344 76.109375 C 475.609375 76.109375 469.757812 85.648438 469.757812 95.28125 C 469.757812 106.171875 478.21875 110.128906 483.257812 112.558594 L 486.226562 113.910156 C 492.4375 116.519531 497.207031 118.769531 497.207031 123.539062 C 497.207031 126.960938 494.238281 131.011719 486.40625 131.011719 C 478.21875 131.011719 473.628906 127.410156 471.015625 125.339844 L 470.117188 125.609375 L 469.488281 138.300781 L 470.027344 139.019531 C 471.015625 139.378906 472.007812 139.828125 472.996094 140.101562 C 475.066406 140.820312 480.378906 142.351562 487.128906 142.351562 C 489.828125 142.351562 496.667969 142.078125 502.066406 139.558594 C 509.628906 135.871094 512.867188 129.03125 512.867188 121.378906 C 512.867188 116.25 510.886719 110.761719 506.117188 107.070312 C 503.6875 105.269531 501.347656 104.191406 499.1875 103.199219 Z M 546.621094 130.648438 C 545.089844 131.101562 544.007812 131.460938 542.480469 131.460938 C 537.890625 131.460938 537.53125 128.578125 537.347656 127.230469 C 537.078125 124.890625 537.078125 119.941406 537.167969 116.339844 L 537.347656 103.648438 L 545.449219 104.011719 L 545.988281 103.46875 L 546.890625 93.839844 L 546.347656 93.300781 L 537.347656 93.300781 L 537.621094 78.179688 L 536.988281 77.640625 C 530.871094 79.441406 529.25 79.890625 522.859375 81.511719 L 522.5 82.140625 L 522.589844 93.390625 L 517.730469 93.210938 L 517.191406 93.660156 L 516.378906 103.289062 L 516.917969 103.828125 L 522.589844 103.648438 L 522.320312 117.960938 C 522.230469 120.210938 522.140625 122.460938 522.140625 124.800781 C 522.140625 133.078125 522.320312 141.988281 536.359375 141.988281 C 539.871094 141.988281 542.660156 141.449219 545.808594 140.910156 L 546.441406 140.28125 L 547.339844 131.011719 Z M 593.328125 114.179688 C 593.417969 106.078125 593.417969 102.570312 591.078125 98.789062 C 589.277344 95.910156 585.679688 92.308594 574.160156 92.308594 C 566.417969 92.308594 561.648438 93.75 556.519531 95.28125 L 555.980469 96 L 555.527344 105.808594 L 556.25 106.171875 C 559.398438 104.910156 565.25 102.570312 571.277344 102.570312 C 574.609375 102.570312 575.957031 103.109375 577.128906 104.28125 C 578.027344 105.179688 578.300781 106.800781 578.300781 108.148438 C 567.5 109.589844 562.457031 110.578125 557.058594 113.910156 C 552.019531 117.058594 550.308594 122.191406 550.308594 126.238281 C 550.308594 135.871094 557.238281 142.078125 566.058594 142.078125 C 572.808594 142.078125 576.679688 138.839844 578.570312 137.308594 L 578.570312 140.640625 L 579.109375 141.269531 C 585.589844 141 587.570312 140.910156 593.417969 141 L 593.867188 140.371094 C 593.238281 131.550781 593.238281 129.300781 593.238281 120.839844 L 593.328125 114.179688 M 578.480469 128.488281 C 576.589844 129.570312 574.160156 130.828125 571.1875 130.828125 C 567.949219 130.828125 565.25 129.121094 565.25 125.339844 C 565.25 119.398438 572.359375 118.410156 578.480469 117.601562 Z M 647.960938 140.371094 C 647.511719 132.449219 647.511719 129.929688 647.332031 121.109375 L 647.332031 114.089844 C 647.242188 105.449219 647.152344 101.308594 644.902344 97.621094 C 642.109375 92.941406 636.980469 92.21875 633.742188 92.21875 C 628.25 92.21875 623.480469 95.101562 619.339844 97.53125 L 619.519531 92.578125 L 618.621094 91.949219 C 611.691406 93.390625 610.160156 93.660156 603.410156 94.558594 L 602.871094 95.191406 C 603.589844 103.019531 604.132812 108.691406 604.132812 123.359375 C 604.132812 129.121094 604.039062 134.878906 603.949219 140.640625 L 604.492188 141.179688 C 610.972656 140.910156 612.320312 140.910156 619.519531 140.910156 L 620.0625 140.371094 C 619.519531 126.511719 619.429688 123 619.339844 106.890625 C 621.230469 105.628906 623.390625 104.101562 626.269531 104.101562 C 631.222656 104.101562 631.671875 109.410156 631.941406 112.648438 C 632.121094 115.621094 632.210938 127.949219 632.210938 131.371094 C 632.210938 134.429688 632.121094 137.578125 632.121094 140.640625 L 632.660156 141.179688 C 638.601562 141 640.132812 140.910156 647.332031 140.910156 Z M 676.21875 140.371094 C 675.320312 123.988281 675.230469 119.578125 675.320312 103.648438 L 682.429688 104.011719 L 683.058594 103.378906 L 683.871094 93.839844 L 683.421875 93.300781 L 675.230469 93.300781 L 675.320312 91.230469 C 675.320312 85.738281 675.410156 80.699219 681.261719 80.699219 C 682.160156 80.699219 683.058594 80.878906 683.960938 80.96875 L 684.589844 80.609375 L 685.398438 70.441406 L 684.949219 69.808594 C 682.789062 69.628906 680.71875 69.539062 678.648438 69.539062 C 674.058594 69.539062 669.378906 70.078125 665.78125 72.78125 C 660.199219 76.921875 660.289062 83.398438 660.289062 87.898438 L 660.378906 93.300781 L 654.53125 93.210938 L 653.992188 93.660156 L 653.089844 103.199219 L 653.628906 103.738281 L 660.46875 103.558594 C 660.46875 120.570312 660.46875 124.621094 659.929688 140.640625 L 660.46875 141.269531 C 666.589844 141 668.929688 140.910156 675.679688 140.910156 Z M 735.890625 117.058594 C 735.890625 113.550781 735.890625 98.96875 723.289062 94.019531 C 719.328125 92.488281 714.648438 92.308594 712.308594 92.308594 C 696.648438 92.308594 687.828125 100.679688 687.828125 117.238281 C 687.828125 123 688.730469 128.851562 692.058594 133.710938 C 694.398438 137.21875 698.808594 142.078125 711.679688 142.078125 C 730.757812 142.078125 735.890625 130.558594 735.890625 117.058594 M 720.320312 116.96875 C 720.320312 124.351562 719.328125 132.539062 711.859375 132.539062 C 709.519531 132.539062 707.898438 131.460938 706.820312 130.46875 C 705.289062 128.941406 703.578125 125.878906 703.578125 117.148438 C 703.578125 114.539062 703.578125 108.78125 705.378906 105.628906 C 706.730469 103.199219 709.070312 101.578125 711.949219 101.578125 C 714.46875 101.578125 716.539062 102.929688 717.710938 104.371094 C 719.871094 106.980469 720.320312 112.109375 720.320312 116.96875 Z M 770.449219 107.609375 L 772.96875 92.941406 L 772.429688 92.308594 C 771.800781 92.308594 771.167969 92.21875 770.539062 92.21875 C 766.847656 92.21875 762.710938 94.289062 759.828125 100.949219 L 760.097656 92.671875 L 759.378906 91.949219 C 752.71875 93.390625 751.007812 93.660156 744.4375 94.648438 L 743.898438 95.191406 C 744.4375 101.941406 744.710938 105.988281 744.710938 118.5 C 744.710938 125.878906 744.617188 133.261719 744.4375 140.730469 L 744.980469 141.269531 C 751.640625 141 753.078125 140.910156 760.277344 141 L 760.730469 140.371094 C 760.367188 133.078125 759.828125 122.910156 759.828125 116.699219 C 759.828125 112.648438 759.828125 106.710938 765.949219 106.710938 C 767.480469 106.710938 768.378906 107.25 769.640625 107.96875 Z M 822.289062 140.460938 C 821.929688 132.359375 821.660156 126.960938 821.660156 115.171875 C 821.660156 91.410156 822.019531 81.601562 822.378906 69.71875 L 821.75 69.179688 L 806.898438 71.519531 L 806.449219 72.058594 C 806.988281 80.519531 807.078125 82.769531 806.988281 93.03125 C 800.238281 92.851562 791.777344 92.671875 784.9375 98.070312 C 778.640625 102.929688 776.027344 110.398438 776.027344 119.671875 C 776.027344 126.691406 777.917969 133.710938 783.230469 138.121094 C 787.1875 141.359375 792.050781 142.078125 795.019531 142.078125 C 801.410156 142.078125 804.738281 139.109375 806.898438 137.21875 L 806.71875 140.730469 L 807.167969 141.269531 C 813.378906 141 815.089844 141 821.839844 141 L 822.289062 140.460938 M 806.988281 103.828125 C 807.078125 115.800781 806.988281 118.140625 806.71875 129.03125 C 804.917969 130.109375 803.117188 131.191406 800.597656 131.191406 C 791.867188 131.191406 791.867188 120.03125 791.867188 118.230469 C 791.867188 111.300781 793.847656 103.558594 803.929688 103.558594 C 804.917969 103.558594 805.730469 103.648438 806.988281 103.828125 Z M 827.148438 141 "/>
<path fill-rule="nonzero" fill="rgb(34.901961%, 14.901961%, 14.901961%)" fill-opacity="1" d="M 260.960938 197.191406 C 251.601562 197.460938 250.070312 197.460938 240.082031 197.460938 L 239.542969 198 L 235.402344 212.578125 L 231.800781 225.628906 L 227.570312 241.289062 L 223.609375 225.179688 L 221.089844 215.011719 L 216.589844 197.730469 L 216.140625 197.191406 C 206.511719 197.460938 204.890625 197.460938 194.8125 197.460938 L 194.269531 198 C 193.371094 224.910156 193.011719 231.839844 191.03125 260.730469 L 191.480469 261.269531 C 197.242188 261 198.953125 260.910156 204.171875 261 L 204.710938 260.460938 L 204.980469 243.269531 L 205.519531 225.808594 L 205.882812 208.800781 L 209.839844 224.730469 L 213.261719 237.511719 L 219.292969 260.730469 L 219.832031 261.269531 C 225.410156 261 226.941406 260.910156 233.242188 261 L 233.78125 260.460938 L 239 241.289062 L 242.601562 228.148438 L 247.640625 209.25 L 247.640625 225.359375 L 247.820312 239.128906 L 247.820312 260.730469 L 248.269531 261.269531 C 254.480469 261 256.910156 260.910156 263.839844 261 L 264.292969 260.460938 C 263.75 250.199219 263.121094 239.851562 262.761719 229.5 C 262.492188 223.828125 262.3125 218.160156 262.042969 212.488281 C 261.589844 204.121094 261.5 203.039062 261.5 197.730469 Z M 314.511719 234.179688 C 314.601562 226.078125 314.601562 222.570312 312.261719 218.789062 C 310.460938 215.910156 306.863281 212.308594 295.34375 212.308594 C 287.601562 212.308594 282.832031 213.75 277.703125 215.28125 L 277.164062 216 L 276.710938 225.808594 L 277.433594 226.171875 C 280.582031 224.910156 286.433594 222.570312 292.460938 222.570312 C 295.792969 222.570312 297.140625 223.109375 298.3125 224.28125 C 299.210938 225.179688 299.484375 226.800781 299.484375 228.148438 C 288.683594 229.589844 283.640625 230.578125 278.242188 233.910156 C 273.203125 237.058594 271.492188 242.191406 271.492188 246.238281 C 271.492188 255.871094 278.421875 262.078125 287.242188 262.078125 C 293.992188 262.078125 297.863281 258.839844 299.753906 257.308594 L 299.753906 260.640625 L 300.292969 261.269531 C 306.773438 261 308.753906 260.910156 314.601562 261 L 315.050781 260.371094 C 314.421875 251.550781 314.421875 249.300781 314.421875 240.839844 L 314.511719 234.179688 M 299.664062 248.488281 C 297.773438 249.570312 295.34375 250.828125 292.371094 250.828125 C 289.132812 250.828125 286.433594 249.121094 286.433594 245.339844 C 286.433594 239.398438 293.542969 238.410156 299.664062 237.601562 Z M 369.140625 260.371094 C 368.691406 252.449219 368.691406 249.929688 368.511719 241.109375 L 368.511719 234.089844 C 368.421875 225.449219 368.332031 221.308594 366.082031 217.621094 C 363.289062 212.941406 358.160156 212.21875 354.921875 212.21875 C 349.429688 212.21875 344.660156 215.101562 340.519531 217.53125 L 340.699219 212.578125 L 339.800781 211.949219 C 332.871094 213.390625 331.339844 213.660156 324.589844 214.558594 L 324.050781 215.191406 C 324.769531 223.019531 325.3125 228.691406 325.3125 243.359375 C 325.3125 249.121094 325.21875 254.878906 325.128906 260.640625 L 325.671875 261.179688 C 332.152344 260.910156 333.5 260.910156 340.699219 260.910156 L 341.242188 260.371094 C 340.699219 246.511719 340.609375 243 340.519531 226.890625 C 342.410156 225.628906 344.570312 224.101562 347.449219 224.101562 C 352.402344 224.101562 352.851562 229.410156 353.121094 232.648438 C 353.300781 235.621094 353.390625 247.949219 353.390625 251.371094 C 353.390625 254.429688 353.300781 257.578125 353.300781 260.640625 L 353.839844 261.179688 C 359.78125 261 361.3125 260.910156 368.511719 260.910156 Z M 398.300781 229.949219 C 395.238281 228.871094 392.808594 227.878906 392.808594 225.359375 C 392.808594 224.28125 393.53125 221.308594 399.109375 221.308594 C 404.601562 221.308594 408.109375 223.648438 410.359375 225.089844 L 411.171875 224.820312 L 412.070312 215.011719 L 411.621094 214.46875 C 407.390625 213.300781 403.699219 212.21875 397.851562 212.21875 C 393.441406 212.21875 384.621094 212.578125 379.941406 219.328125 C 378.769531 220.949219 377.511719 223.648438 377.511719 227.25 C 377.511719 236.878906 384.980469 239.761719 389.210938 241.378906 L 392.628906 242.640625 C 395.058594 243.449219 399.019531 244.800781 399.019531 248.039062 C 399.019531 250.289062 396.949219 252.71875 391.910156 252.71875 C 389.390625 252.71875 385.699219 251.910156 382.371094 250.199219 C 380.839844 249.390625 380.121094 248.761719 378.769531 247.679688 L 377.960938 248.039062 C 377.78125 252.71875 377.691406 253.710938 377.328125 258.210938 L 377.78125 259.019531 C 382.191406 260.640625 385.96875 262.078125 392.539062 262.078125 C 399.378906 262.078125 412.878906 260.820312 414.5 247.949219 C 414.589844 247.230469 414.589844 246.601562 414.589844 245.96875 C 414.589844 236.070312 407.660156 233.460938 402.710938 231.570312 Z M 438.800781 260.371094 C 438.347656 253.441406 437.988281 248.128906 437.988281 235.710938 C 437.988281 228.058594 438.167969 220.320312 438.257812 212.671875 L 437.628906 211.949219 L 422.148438 214.648438 L 421.609375 215.191406 C 422.328125 222.03125 422.597656 225.179688 422.597656 237.960938 C 422.597656 247.769531 422.328125 253.261719 422.058594 260.640625 L 422.597656 261.269531 C 429.078125 261 430.878906 260.910156 438.167969 261 L 438.800781 260.371094 M 437.359375 203.308594 L 437.628906 191.070312 L 437.089844 190.53125 L 422.417969 192.328125 L 421.878906 192.960938 C 422.058594 196.199219 422.148438 198.089844 422.148438 200.25 C 422.148438 201.960938 422.148438 203.761719 422.058594 205.46875 L 422.6875 206.011719 C 428.808594 204.929688 430.519531 204.75 436.910156 203.941406 Z M 494.601562 237.058594 C 494.601562 233.550781 494.601562 218.96875 482 214.019531 C 478.039062 212.488281 473.359375 212.308594 471.019531 212.308594 C 455.359375 212.308594 446.539062 220.679688 446.539062 237.238281 C 446.539062 243 447.441406 248.851562 450.769531 253.710938 C 453.109375 257.21875 457.519531 262.078125 470.390625 262.078125 C 489.46875 262.078125 494.601562 250.558594 494.601562 237.058594 M 479.03125 236.96875 C 479.03125 244.351562 478.039062 252.539062 470.570312 252.539062 C 468.230469 252.539062 466.609375 251.460938 465.53125 250.46875 C 464 248.941406 462.289062 245.878906 462.289062 237.148438 C 462.289062 234.539062 462.289062 228.78125 464.089844 225.628906 C 465.441406 223.199219 467.78125 221.578125 470.660156 221.578125 C 473.179688 221.578125 475.25 222.929688 476.421875 224.371094 C 478.582031 226.980469 479.03125 232.109375 479.03125 236.96875 Z M 547.25 260.371094 C 546.800781 252.449219 546.800781 249.929688 546.621094 241.109375 L 546.621094 234.089844 C 546.53125 225.449219 546.441406 221.308594 544.191406 217.621094 C 541.398438 212.941406 536.269531 212.21875 533.03125 212.21875 C 527.539062 212.21875 522.769531 215.101562 518.628906 217.53125 L 518.808594 212.578125 L 517.910156 211.949219 C 510.980469 213.390625 509.449219 213.660156 502.699219 214.558594 L 502.160156 215.191406 C 502.878906 223.019531 503.421875 228.691406 503.421875 243.359375 C 503.421875 249.121094 503.328125 254.878906 503.238281 260.640625 L 503.78125 261.179688 C 510.261719 260.910156 511.609375 260.910156 518.808594 260.910156 L 519.351562 260.371094 C 518.808594 246.511719 518.71875 243 518.628906 226.890625 C 520.519531 225.628906 522.679688 224.101562 525.558594 224.101562 C 530.511719 224.101562 530.960938 229.410156 531.230469 232.648438 C 531.410156 235.621094 531.5 247.949219 531.5 251.371094 C 531.5 254.429688 531.410156 257.578125 531.410156 260.640625 L 531.949219 261.179688 C 537.890625 261 539.421875 260.910156 546.621094 260.910156 Z M 609.800781 222.300781 C 602.242188 219.148438 598.28125 217.53125 598.28125 213.480469 C 598.28125 210.691406 600.890625 207.179688 606.832031 207.179688 C 613.671875 207.179688 617.71875 209.96875 621.050781 212.21875 L 621.859375 211.859375 L 622.582031 200.070312 L 622.128906 199.441406 C 618.261719 197.820312 614.210938 196.109375 605.480469 196.109375 C 588.5625 196.109375 582.710938 205.648438 582.710938 215.28125 C 582.710938 226.171875 591.171875 230.128906 596.210938 232.558594 L 599.179688 233.910156 C 605.390625 236.519531 610.160156 238.769531 610.160156 243.539062 C 610.160156 246.960938 607.191406 251.011719 599.359375 251.011719 C 591.171875 251.011719 586.582031 247.410156 583.96875 245.339844 L 583.070312 245.609375 L 582.441406 258.300781 L 582.980469 259.019531 C 583.96875 259.378906 584.960938 259.828125 585.949219 260.101562 C 588.019531 260.820312 593.332031 262.351562 600.082031 262.351562 C 602.78125 262.351562 609.621094 262.078125 615.019531 259.558594 C 622.582031 255.871094 625.820312 249.03125 625.820312 241.378906 C 625.820312 236.25 623.839844 230.761719 619.070312 227.070312 C 616.640625 225.269531 614.300781 224.191406 612.140625 223.199219 Z M 659.574219 250.648438 C 658.042969 251.101562 656.960938 251.460938 655.433594 251.460938 C 650.84375 251.460938 650.484375 248.578125 650.300781 247.230469 C 650.03125 244.890625 650.03125 239.941406 650.121094 236.339844 L 650.300781 223.648438 L 658.402344 224.011719 L 658.941406 223.46875 L 659.84375 213.839844 L 659.300781 213.300781 L 650.300781 213.300781 L 650.574219 198.179688 L 649.941406 197.640625 C 643.824219 199.441406 642.203125 199.890625 635.8125 201.511719 L 635.453125 202.140625 L 635.542969 213.390625 L 630.683594 213.210938 L 630.144531 213.660156 L 629.332031 223.289062 L 629.871094 223.828125 L 635.542969 223.648438 L 635.273438 237.960938 C 635.183594 240.210938 635.09375 242.460938 635.09375 244.800781 C 635.09375 253.078125 635.273438 261.988281 649.3125 261.988281 C 652.824219 261.988281 655.613281 261.449219 658.761719 260.910156 L 659.394531 260.28125 L 660.292969 251.011719 Z M 706.28125 234.179688 C 706.371094 226.078125 706.371094 222.570312 704.03125 218.789062 C 702.230469 215.910156 698.632812 212.308594 687.113281 212.308594 C 679.371094 212.308594 674.601562 213.75 669.472656 215.28125 L 668.933594 216 L 668.480469 225.808594 L 669.203125 226.171875 C 672.351562 224.910156 678.203125 222.570312 684.230469 222.570312 C 687.5625 222.570312 688.910156 223.109375 690.082031 224.28125 C 690.980469 225.179688 691.253906 226.800781 691.253906 228.148438 C 680.453125 229.589844 675.410156 230.578125 670.011719 233.910156 C 664.972656 237.058594 663.261719 242.191406 663.261719 246.238281 C 663.261719 255.871094 670.191406 262.078125 679.011719 262.078125 C 685.761719 262.078125 689.632812 258.839844 691.523438 257.308594 L 691.523438 260.640625 L 692.0625 261.269531 C 698.542969 261 700.523438 260.910156 706.371094 261 L 706.820312 260.371094 C 706.191406 251.550781 706.191406 249.300781 706.191406 240.839844 L 706.28125 234.179688 M 691.433594 248.488281 C 689.542969 249.570312 687.113281 250.828125 684.140625 250.828125 C 680.902344 250.828125 678.203125 249.121094 678.203125 245.339844 C 678.203125 239.398438 685.3125 238.410156 691.433594 237.601562 Z M 742.011719 250.648438 C 740.480469 251.101562 739.398438 251.460938 737.871094 251.460938 C 733.28125 251.460938 732.921875 248.578125 732.738281 247.230469 C 732.46875 244.890625 732.46875 239.941406 732.558594 236.339844 L 732.738281 223.648438 L 740.839844 224.011719 L 741.378906 223.46875 L 742.28125 213.839844 L 741.738281 213.300781 L 732.738281 213.300781 L 733.011719 198.179688 L 732.378906 197.640625 C 726.261719 199.441406 724.640625 199.890625 718.25 201.511719 L 717.890625 202.140625 L 717.980469 213.390625 L 713.121094 213.210938 L 712.582031 213.660156 L 711.769531 223.289062 L 712.308594 223.828125 L 717.980469 223.648438 L 717.710938 237.960938 C 717.621094 240.210938 717.53125 242.460938 717.53125 244.800781 C 717.53125 253.078125 717.710938 261.988281 731.75 261.988281 C 735.261719 261.988281 738.050781 261.449219 741.199219 260.910156 L 741.832031 260.28125 L 742.730469 251.011719 Z M 788.628906 247.679688 C 785.210938 249.480469 781.160156 251.550781 774.589844 251.550781 C 769.191406 251.550781 765.5 249.839844 763.339844 246.601562 C 761.988281 244.710938 761.71875 242.910156 761.359375 241.109375 L 790.429688 240.570312 L 790.96875 239.941406 C 790.878906 235.53125 790.789062 231.03125 789.53125 226.53125 C 786.378906 215.910156 779.449219 213.75 776.390625 213.03125 C 774.140625 212.398438 772.070312 212.21875 770 212.21875 C 755.871094 212.21875 746.507812 221.488281 746.507812 237.058594 C 746.507812 241.289062 747.230469 245.699219 748.667969 248.851562 C 753.890625 261 766.128906 262.078125 772.609375 262.078125 C 780.078125 262.078125 783.320312 260.730469 788.089844 258.839844 L 788.628906 258.121094 L 789.257812 247.949219 L 788.628906 247.679688 M 761.359375 231.570312 C 761.628906 228.78125 762.257812 225 765.679688 222.839844 C 766.757812 222.121094 768.019531 221.851562 769.28125 221.851562 C 772.25 221.851562 774.050781 223.378906 775.039062 225 C 776.300781 226.980469 776.390625 229.140625 776.390625 231.210938 Z M 793.851562 261 "/>
<path fill-rule="nonzero" fill="rgb(34.901961%, 14.901961%, 14.901961%)" fill-opacity="1" d="M 277.921875 317.191406 C 270.722656 317.460938 269.554688 317.460938 261.992188 317.460938 L 261.542969 318 C 262.171875 328.171875 262.171875 330.78125 262.261719 341.398438 C 258.304688 341.488281 254.34375 341.578125 250.292969 341.578125 C 247.144531 341.578125 243.902344 341.488281 240.753906 341.488281 L 240.933594 317.730469 L 240.484375 317.191406 C 233.554688 317.460938 232.203125 317.460938 224.375 317.460938 L 223.832031 318 C 224.285156 327.269531 224.824219 338.339844 224.824219 360.660156 C 224.824219 368.761719 224.644531 373.171875 224.464844 380.730469 L 224.914062 381.269531 C 231.484375 381 233.101562 380.910156 241.023438 381 L 241.472656 380.460938 C 240.933594 369.300781 240.84375 366.058594 240.753906 353.011719 C 244.714844 352.828125 248.042969 352.738281 251.554688 352.738281 C 255.152344 352.738281 258.753906 352.828125 262.351562 352.921875 C 262.535156 365.070312 262.535156 368.039062 262.082031 380.730469 L 262.535156 381.269531 C 269.285156 381 271.082031 380.910156 278.734375 381 L 279.183594 380.460938 C 278.464844 365.339844 278.191406 350.308594 278.191406 335.191406 C 278.191406 328.890625 278.285156 324.660156 278.375 317.730469 Z M 305.914062 380.371094 C 305.460938 373.441406 305.101562 368.128906 305.101562 355.710938 C 305.101562 348.058594 305.28125 340.320312 305.371094 332.671875 L 304.742188 331.949219 L 289.261719 334.648438 L 288.722656 335.191406 C 289.441406 342.03125 289.710938 345.179688 289.710938 357.960938 C 289.710938 367.769531 289.441406 373.261719 289.171875 380.640625 L 289.710938 381.269531 C 296.191406 381 297.992188 380.910156 305.28125 381 L 305.914062 380.371094 M 304.472656 323.308594 L 304.742188 311.070312 L 304.203125 310.53125 L 289.53125 312.328125 L 288.992188 312.960938 C 289.171875 316.199219 289.261719 318.089844 289.261719 320.25 C 289.261719 321.960938 289.261719 323.761719 289.171875 325.46875 L 289.800781 326.011719 C 295.921875 324.929688 297.632812 324.75 304.023438 323.941406 Z M 334.804688 349.949219 C 331.742188 348.871094 329.3125 347.878906 329.3125 345.359375 C 329.3125 344.28125 330.035156 341.308594 335.613281 341.308594 C 341.105469 341.308594 344.613281 343.648438 346.863281 345.089844 L 347.675781 344.820312 L 348.574219 335.011719 L 348.125 334.46875 C 343.894531 333.300781 340.203125 332.21875 334.355469 332.21875 C 329.945312 332.21875 321.125 332.578125 316.445312 339.328125 C 315.273438 340.949219 314.015625 343.648438 314.015625 347.25 C 314.015625 356.878906 321.484375 359.761719 325.714844 361.378906 L 329.132812 362.640625 C 331.5625 363.449219 335.523438 364.800781 335.523438 368.039062 C 335.523438 370.289062 333.453125 372.71875 328.414062 372.71875 C 325.894531 372.71875 322.203125 371.910156 318.875 370.199219 C 317.34375 369.390625 316.625 368.761719 315.273438 367.679688 L 314.464844 368.039062 C 314.285156 372.71875 314.195312 373.710938 313.832031 378.210938 L 314.285156 379.019531 C 318.695312 380.640625 322.472656 382.078125 329.042969 382.078125 C 335.882812 382.078125 349.382812 380.820312 351.003906 367.949219 C 351.09375 367.230469 351.09375 366.601562 351.09375 365.96875 C 351.09375 356.070312 344.164062 353.460938 339.214844 351.570312 Z M 384.214844 370.648438 C 382.683594 371.101562 381.601562 371.460938 380.074219 371.460938 C 375.484375 371.460938 375.125 368.578125 374.941406 367.230469 C 374.671875 364.890625 374.671875 359.941406 374.761719 356.339844 L 374.941406 343.648438 L 383.042969 344.011719 L 383.582031 343.46875 L 384.484375 333.839844 L 383.941406 333.300781 L 374.941406 333.300781 L 375.214844 318.179688 L 374.582031 317.640625 C 368.464844 319.441406 366.84375 319.890625 360.453125 321.511719 L 360.09375 322.140625 L 360.183594 333.390625 L 355.324219 333.210938 L 354.785156 333.660156 L 353.972656 343.289062 L 354.511719 343.828125 L 360.183594 343.648438 L 359.914062 357.960938 C 359.824219 360.210938 359.734375 362.460938 359.734375 364.800781 C 359.734375 373.078125 359.914062 381.988281 373.953125 381.988281 C 377.464844 381.988281 380.253906 381.449219 383.402344 380.910156 L 384.035156 380.28125 L 384.933594 371.011719 Z M 436.683594 357.058594 C 436.683594 353.550781 436.683594 338.96875 424.082031 334.019531 C 420.121094 332.488281 415.441406 332.308594 413.101562 332.308594 C 397.441406 332.308594 388.621094 340.679688 388.621094 357.238281 C 388.621094 363 389.523438 368.851562 392.851562 373.710938 C 395.191406 377.21875 399.601562 382.078125 412.472656 382.078125 C 431.550781 382.078125 436.683594 370.558594 436.683594 357.058594 M 421.113281 356.96875 C 421.113281 364.351562 420.121094 372.539062 412.652344 372.539062 C 410.3125 372.539062 408.691406 371.460938 407.613281 370.46875 C 406.082031 368.941406 404.371094 365.878906 404.371094 357.148438 C 404.371094 354.539062 404.371094 348.78125 406.171875 345.628906 C 407.523438 343.199219 409.863281 341.578125 412.742188 341.578125 C 415.261719 341.578125 417.332031 342.929688 418.503906 344.371094 C 420.664062 346.980469 421.113281 352.109375 421.113281 356.96875 Z M 471.242188 347.609375 L 473.761719 332.941406 L 473.222656 332.308594 C 472.59375 332.308594 471.960938 332.21875 471.332031 332.21875 C 467.640625 332.21875 463.503906 334.289062 460.621094 340.949219 L 460.890625 332.671875 L 460.171875 331.949219 C 453.511719 333.390625 451.800781 333.660156 445.230469 334.648438 L 444.691406 335.191406 C 445.230469 341.941406 445.503906 345.988281 445.503906 358.5 C 445.503906 365.878906 445.410156 373.261719 445.230469 380.730469 L 445.773438 381.269531 C 452.433594 381 453.871094 380.910156 461.070312 381 L 461.523438 380.371094 C 461.160156 373.078125 460.621094 362.910156 460.621094 356.699219 C 460.621094 352.648438 460.621094 346.710938 466.742188 346.710938 C 468.273438 346.710938 469.171875 347.25 470.433594 347.96875 Z M 495.273438 380.371094 C 494.820312 373.441406 494.460938 368.128906 494.460938 355.710938 C 494.460938 348.058594 494.640625 340.320312 494.730469 332.671875 L 494.101562 331.949219 L 478.621094 334.648438 L 478.082031 335.191406 C 478.800781 342.03125 479.070312 345.179688 479.070312 357.960938 C 479.070312 367.769531 478.800781 373.261719 478.53125 380.640625 L 479.070312 381.269531 C 485.550781 381 487.351562 380.910156 494.640625 381 L 495.273438 380.371094 M 493.832031 323.308594 L 494.101562 311.070312 L 493.5625 310.53125 L 478.890625 312.328125 L 478.351562 312.960938 C 478.53125 316.199219 478.621094 318.089844 478.621094 320.25 C 478.621094 321.960938 478.621094 323.761719 478.53125 325.46875 L 479.160156 326.011719 C 485.28125 324.929688 486.992188 324.75 493.382812 323.941406 Z M 540.453125 368.039062 C 538.023438 369.480469 535.683594 370.921875 531.09375 370.921875 C 520.921875 370.921875 518.851562 362.460938 518.851562 357.058594 C 518.851562 350.488281 521.734375 342.929688 530.464844 342.929688 C 534.421875 342.929688 536.582031 344.371094 539.285156 346.171875 L 540.183594 345.898438 C 540.542969 341.128906 540.632812 339.871094 541.351562 335.101562 L 540.902344 334.558594 C 536.941406 333.300781 533.523438 332.21875 528.304688 332.21875 C 507.152344 332.21875 503.011719 348.238281 503.011719 357.421875 C 503.011719 367.769531 508.414062 381.808594 528.664062 381.808594 C 533.433594 381.808594 536.492188 380.910156 540.273438 379.828125 L 540.8125 379.289062 L 541.171875 368.488281 Z M 586.714844 317.28125 L 575.285156 317.460938 L 574.742188 318 C 575.105469 329.699219 575.375 337.53125 575.375 347.878906 C 575.375 358.859375 575.105469 369.75 574.832031 380.730469 L 575.375 381.269531 C 582.035156 381 583.472656 380.910156 590.675781 381 L 591.125 380.460938 C 590.765625 370.648438 590.765625 368.398438 590.765625 359.21875 C 600.84375 359.308594 611.644531 359.308594 618.125 351.390625 C 620.644531 348.328125 622.804688 343.199219 622.804688 336.898438 C 622.804688 333.03125 621.902344 324.480469 614.433594 320.25 C 609.035156 317.101562 601.382812 317.101562 594.632812 317.101562 L 586.714844 317.28125 M 590.765625 328.171875 C 592.742188 328.078125 594.632812 328.078125 596.613281 328.078125 C 604.535156 328.261719 606.695312 332.308594 606.695312 337.53125 C 606.695312 338.789062 606.695312 344.011719 601.925781 346.621094 C 599.492188 347.96875 596.164062 348.148438 590.765625 348.148438 Z M 669.0625 354.179688 C 669.152344 346.078125 669.152344 342.570312 666.8125 338.789062 C 665.011719 335.910156 661.414062 332.308594 649.894531 332.308594 C 642.152344 332.308594 637.382812 333.75 632.253906 335.28125 L 631.714844 336 L 631.261719 345.808594 L 631.984375 346.171875 C 635.132812 344.910156 640.984375 342.570312 647.011719 342.570312 C 650.34375 342.570312 651.691406 343.109375 652.863281 344.28125 C 653.761719 345.179688 654.035156 346.800781 654.035156 348.148438 C 643.234375 349.589844 638.191406 350.578125 632.792969 353.910156 C 627.753906 357.058594 626.042969 362.191406 626.042969 366.238281 C 626.042969 375.871094 632.972656 382.078125 641.792969 382.078125 C 648.542969 382.078125 652.414062 378.839844 654.304688 377.308594 L 654.304688 380.640625 L 654.84375 381.269531 C 661.324219 381 663.304688 380.910156 669.152344 381 L 669.601562 380.371094 C 668.972656 371.550781 668.972656 369.300781 668.972656 360.839844 L 669.0625 354.179688 M 654.214844 368.488281 C 652.324219 369.570312 649.894531 370.828125 646.921875 370.828125 C 643.683594 370.828125 640.984375 369.121094 640.984375 365.339844 C 640.984375 359.398438 648.09375 358.410156 654.214844 357.601562 Z M 705.601562 347.609375 L 708.121094 332.941406 L 707.582031 332.308594 C 706.953125 332.308594 706.320312 332.21875 705.691406 332.21875 C 702 332.21875 697.863281 334.289062 694.980469 340.949219 L 695.25 332.671875 L 694.53125 331.949219 C 687.871094 333.390625 686.160156 333.660156 679.589844 334.648438 L 679.050781 335.191406 C 679.589844 341.941406 679.863281 345.988281 679.863281 358.5 C 679.863281 365.878906 679.769531 373.261719 679.589844 380.730469 L 680.132812 381.269531 C 686.792969 381 688.230469 380.910156 695.429688 381 L 695.882812 380.371094 C 695.519531 373.078125 694.980469 362.910156 694.980469 356.699219 C 694.980469 352.648438 694.980469 346.710938 701.101562 346.710938 C 702.632812 346.710938 703.53125 347.25 704.792969 347.96875 Z M 759.601562 379.828125 C 751.140625 365.519531 750.242188 363.898438 743.402344 351.570312 C 749.613281 343.109375 750.242188 342.210938 756.632812 334.019531 L 756.179688 333.121094 L 741.511719 333.300781 L 740.613281 333.929688 C 733.589844 346.078125 732.691406 347.519531 728.550781 353.730469 L 728.550781 343.738281 C 728.640625 326.910156 728.730469 323.308594 729.179688 309.71875 L 728.460938 309.179688 L 712.800781 311.519531 L 712.261719 312.148438 C 712.890625 320.878906 713.160156 325.109375 713.339844 336.898438 C 713.519531 351.480469 713.519531 366.058594 713.429688 380.640625 L 714.0625 381.269531 C 720.089844 381 721.800781 381 728.640625 381 L 729.179688 380.371094 L 728.640625 365.160156 L 728.550781 354.808594 C 736.382812 369.210938 737.371094 371.191406 741.960938 380.730469 L 742.769531 381.269531 L 758.972656 380.640625 Z M 758.523438 381 "/>
</svg>
