<?xml version="1.0" encoding="UTF-8"?>
<svg xmlns="http://www.w3.org/2000/svg" xmlns:xlink="http://www.w3.org/1999/xlink" width="975" height="1300" viewBox="0 0 975 1300">
<path fill-rule="nonzero" fill="rgb(98.823529%, 78.823529%, 9.019608%)" fill-opacity="1" d="M 50 50 L 925 50 L 925 290 L 50 290 Z M 50 50 "/>
<path fill-rule="nonzero" fill="rgb(34.901961%, 14.901961%, 14.901961%)" fill-opacity="1" d="M 209.523438 85.738281 C 207.996094 83.761719 206.195312 82.050781 204.125 80.699219 C 199.535156 77.640625 193.234375 76.109375 186.933594 76.109375 C 181.355469 76.109375 175.683594 77.101562 170.824219 79.890625 C 159.84375 86.191406 157.863281 96.628906 157.144531 100.410156 C 156.605469 103.46875 156.335938 106.53125 156.335938 109.589844 C 156.335938 115.710938 157.054688 127.230469 165.515625 135.058594 C 172.355469 141.449219 181.714844 142.351562 186.304688 142.351562 C 193.234375 142.351562 200.253906 140.730469 205.566406 136.320312 C 214.476562 128.941406 216.273438 116.699219 216.273438 109.050781 C 216.273438 94.921875 211.773438 88.53125 209.523438 85.738281 M 195.304688 91.5 C 197.105469 93.570312 197.914062 96.179688 198.453125 98.789062 C 199.175781 102.210938 199.355469 105.449219 199.445312 107.699219 C 199.804688 121.199219 196.925781 130.921875 186.484375 130.921875 C 173.976562 130.921875 173.164062 116.339844 173.164062 108.238281 C 173.164062 97.441406 175.773438 91.859375 180.003906 89.160156 C 182.433594 87.71875 184.863281 87.359375 186.574219 87.359375 C 189.996094 87.359375 193.144531 88.890625 195.304688 91.5 Z M 241.292969 140.371094 C 240.84375 130.019531 240.394531 120.570312 240.394531 92.128906 C 240.394531 83.578125 240.484375 79.53125 240.84375 69.808594 L 240.214844 69.179688 L 224.824219 71.609375 L 224.464844 72.148438 C 225.363281 83.128906 225.453125 86.101562 225.632812 100.679688 C 225.726562 105.988281 225.726562 111.300781 225.726562 116.609375 C 225.726562 126.328125 225.542969 131.730469 225.183594 140.640625 L 225.726562 141.269531 C 231.753906 141 234.183594 140.910156 240.753906 141 Z M 295.835938 140.460938 C 295.476562 132.359375 295.207031 126.960938 295.207031 115.171875 C 295.207031 91.410156 295.566406 81.601562 295.925781 69.71875 L 295.296875 69.179688 L 280.445312 71.519531 L 279.996094 72.058594 C 280.535156 80.519531 280.625 82.769531 280.535156 93.03125 C 273.785156 92.851562 265.324219 92.671875 258.484375 98.070312 C 252.1875 102.929688 249.574219 110.398438 249.574219 119.671875 C 249.574219 126.691406 251.464844 133.710938 256.777344 138.121094 C 260.734375 141.359375 265.597656 142.078125 268.566406 142.078125 C 274.957031 142.078125 278.285156 139.109375 280.445312 137.21875 L 280.265625 140.730469 L 280.714844 141.269531 C 286.925781 141 288.636719 141 295.386719 141 L 295.835938 140.460938 M 280.535156 103.828125 C 280.625 115.800781 280.535156 118.140625 280.265625 129.03125 C 278.464844 130.109375 276.664062 131.191406 274.144531 131.191406 C 265.414062 131.191406 265.414062 120.03125 265.414062 118.230469 C 265.414062 111.300781 267.394531 103.558594 277.476562 103.558594 C 278.464844 103.558594 279.277344 103.648438 280.535156 103.828125 Z M 358.386719 102.300781 C 350.828125 99.148438 346.867188 97.53125 346.867188 93.480469 C 346.867188 90.691406 349.476562 87.179688 355.417969 87.179688 C 362.257812 87.179688 366.304688 89.96875 369.636719 92.21875 L 370.445312 91.859375 L 371.167969 80.070312 L 370.714844 79.441406 C 366.847656 77.820312 362.796875 76.109375 354.066406 76.109375 C 337.148438 76.109375 331.296875 85.648438 331.296875 95.28125 C 331.296875 106.171875 339.757812 110.128906 344.796875 112.558594 L 347.765625 113.910156 C 353.976562 116.519531 358.746094 118.769531 358.746094 123.539062 C 358.746094 126.960938 355.777344 131.011719 347.945312 131.011719 C 339.757812 131.011719 335.167969 127.410156 332.554688 125.339844 L 331.65625 125.609375 L 331.027344 138.300781 L 331.566406 139.019531 C 332.554688 139.378906 333.546875 139.828125 334.535156 140.101562 C 336.605469 140.820312 341.917969 142.351562 348.667969 142.351562 C 351.367188 142.351562 358.207031 142.078125 363.605469 139.558594 C 371.167969 135.871094 374.40625 129.03125 374.40625 121.378906 C 374.40625 116.25 372.425781 110.761719 367.65625 107.070312 C 365.226562 105.269531 362.886719 104.191406 360.726562 103.199219 Z M 423.003906 114.179688 C 423.09375 106.078125 423.09375 102.570312 420.753906 98.789062 C 418.953125 95.910156 415.355469 92.308594 403.835938 92.308594 C 396.09375 92.308594 391.324219 93.75 386.195312 95.28125 L 385.65625 96 L 385.203125 105.808594 L 385.925781 106.171875 C 389.074219 104.910156 394.925781 102.570312 400.953125 102.570312 C 404.285156 102.570312 405.632812 103.109375 406.804688 104.28125 C 407.703125 105.179688 407.976562 106.800781 407.976562 108.148438 C 397.175781 109.589844 392.132812 110.578125 386.734375 113.910156 C 381.695312 117.058594 379.984375 122.191406 379.984375 126.238281 C 379.984375 135.871094 386.914062 142.078125 395.734375 142.078125 C 402.484375 142.078125 406.355469 138.839844 408.246094 137.308594 L 408.246094 140.640625 L 408.785156 141.269531 C 415.265625 141 417.246094 140.910156 423.09375 141 L 423.542969 140.371094 C 422.914062 131.550781 422.914062 129.300781 422.914062 120.839844 L 423.003906 114.179688 M 408.15625 128.488281 C 406.265625 129.570312 403.835938 130.828125 400.863281 130.828125 C 397.625 130.828125 394.925781 129.121094 394.925781 125.339844 C 394.925781 119.398438 402.035156 118.410156 408.15625 117.601562 Z M 468.722656 128.039062 C 466.292969 129.480469 463.953125 130.921875 459.363281 130.921875 C 449.191406 130.921875 447.121094 122.460938 447.121094 117.058594 C 447.121094 110.488281 450.003906 102.929688 458.734375 102.929688 C 462.691406 102.929688 464.851562 104.371094 467.554688 106.171875 L 468.453125 105.898438 C 468.8125 101.128906 468.902344 99.871094 469.621094 95.101562 L 469.171875 94.558594 C 465.210938 93.300781 461.792969 92.21875 456.574219 92.21875 C 435.421875 92.21875 431.28125 108.238281 431.28125 117.421875 C 431.28125 127.769531 436.683594 141.808594 456.933594 141.808594 C 461.703125 141.808594 464.761719 140.910156 468.542969 139.828125 L 469.082031 139.289062 L 469.441406 128.488281 Z M 502.65625 107.609375 L 505.175781 92.941406 L 504.636719 92.308594 C 504.007812 92.308594 503.375 92.21875 502.746094 92.21875 C 499.054688 92.21875 494.917969 94.289062 492.035156 100.949219 L 492.304688 92.671875 L 491.585938 91.949219 C 484.925781 93.390625 483.214844 93.660156 476.644531 94.648438 L 476.105469 95.191406 C 476.644531 101.941406 476.917969 105.988281 476.917969 118.5 C 476.917969 125.878906 476.824219 133.261719 476.644531 140.730469 L 477.1875 141.269531 C 483.847656 141 485.285156 140.910156 492.484375 141 L 492.9375 140.371094 C 492.574219 133.078125 492.035156 122.910156 492.035156 116.699219 C 492.035156 112.648438 492.035156 106.710938 498.15625 106.710938 C 499.6875 106.710938 500.585938 107.25 501.847656 107.96875 Z M 550.445312 114.179688 C 550.535156 106.078125 550.535156 102.570312 548.195312 98.789062 C 546.394531 95.910156 542.796875 92.308594 531.277344 92.308594 C 523.535156 92.308594 518.765625 93.75 513.636719 95.28125 L 513.097656 96 L 512.644531 105.808594 L 513.367188 106.171875 C 516.515625 104.910156 522.367188 102.570312 528.394531 102.570312 C 531.726562 102.570312 533.074219 103.109375 534.246094 104.28125 C 535.144531 105.179688 535.417969 106.800781 535.417969 108.148438 C 524.617188 109.589844 519.574219 110.578125 514.175781 113.910156 C 509.136719 117.058594 507.425781 122.191406 507.425781 126.238281 C 507.425781 135.871094 514.355469 142.078125 523.175781 142.078125 C 529.925781 142.078125 533.796875 138.839844 535.6875 137.308594 L 535.6875 140.640625 L 536.226562 141.269531 C 542.707031 141 544.6875 140.910156 550.535156 141 L 550.984375 140.371094 C 550.355469 131.550781 550.355469 129.300781 550.355469 120.839844 L 550.445312 114.179688 M 535.597656 128.488281 C 533.707031 129.570312 531.277344 130.828125 528.304688 130.828125 C 525.066406 130.828125 522.367188 129.121094 522.367188 125.339844 C 522.367188 119.398438 529.476562 118.410156 535.597656 117.601562 Z M 631.265625 140.371094 C 630.8125 132 630.722656 129.660156 630.722656 119.488281 L 630.722656 112.738281 C 630.8125 106.710938 630.902344 101.128906 628.292969 97.351562 C 624.785156 92.21875 618.574219 92.21875 617.132812 92.21875 C 609.753906 92.21875 604.804688 95.550781 601.203125 98.070312 C 599.945312 96 597.695312 92.21875 590.496094 92.21875 C 584.554688 92.21875 580.683594 94.921875 576.542969 97.800781 L 576.542969 92.761719 L 575.734375 91.949219 C 568.714844 93.300781 566.734375 93.660156 560.433594 94.558594 L 559.894531 95.191406 C 560.613281 102.390625 561.152344 107.339844 561.152344 125.160156 C 561.152344 130.289062 561.0625 135.511719 561.0625 140.640625 L 561.515625 141.179688 C 567.273438 141 569.253906 140.910156 576.722656 140.910156 L 577.265625 140.371094 C 576.632812 126.511719 576.542969 122.371094 576.453125 106.710938 C 578.34375 105.359375 580.414062 104.191406 582.664062 104.191406 C 588.246094 104.191406 588.425781 110.578125 588.425781 118.320312 C 588.425781 131.371094 588.335938 133.351562 588.152344 140.640625 L 588.695312 141.269531 C 595.535156 140.910156 597.425781 140.910156 603.632812 140.910156 L 604.175781 140.371094 C 603.632812 131.820312 603.542969 129.300781 603.453125 118.410156 L 603.453125 115.078125 L 603.363281 105.988281 C 604.894531 105 606.875 103.738281 609.574219 103.738281 C 614.703125 103.738281 615.515625 108.601562 615.515625 116.339844 C 615.515625 118.050781 615.425781 119.761719 615.425781 121.46875 C 615.335938 124.53125 615.246094 137.941406 615.152344 140.640625 L 615.695312 141.179688 C 622.445312 140.910156 624.425781 140.910156 630.722656 140.910156 Z M 681.574219 127.679688 C 678.15625 129.480469 674.105469 131.550781 667.535156 131.550781 C 662.136719 131.550781 658.445312 129.839844 656.285156 126.601562 C 654.933594 124.710938 654.664062 122.910156 654.304688 121.109375 L 683.375 120.570312 L 683.914062 119.941406 C 683.824219 115.53125 683.734375 111.03125 682.476562 106.53125 C 679.324219 95.910156 672.394531 93.75 669.335938 93.03125 C 667.085938 92.398438 665.015625 92.21875 662.945312 92.21875 C 648.816406 92.21875 639.453125 101.488281 639.453125 117.058594 C 639.453125 121.289062 640.175781 125.699219 641.613281 128.851562 C 646.835938 141 659.074219 142.078125 665.554688 142.078125 C 673.023438 142.078125 676.265625 140.730469 681.035156 138.839844 L 681.574219 138.121094 L 682.203125 127.949219 L 681.574219 127.679688 M 654.304688 111.570312 C 654.574219 108.78125 655.203125 105 658.625 102.839844 C 659.703125 102.121094 660.964844 101.851562 662.226562 101.851562 C 665.195312 101.851562 666.996094 103.378906 667.984375 105 C 669.246094 106.980469 669.335938 109.140625 669.335938 111.210938 Z M 736.292969 140.371094 C 735.84375 132.449219 735.84375 129.929688 735.664062 121.109375 L 735.664062 114.089844 C 735.574219 105.449219 735.484375 101.308594 733.234375 97.621094 C 730.441406 92.941406 725.3125 92.21875 722.074219 92.21875 C 716.582031 92.21875 711.8125 95.101562 707.671875 97.53125 L 707.851562 92.578125 L 706.953125 91.949219 C 700.023438 93.390625 698.492188 93.660156 691.742188 94.558594 L 691.203125 95.191406 C 691.921875 103.019531 692.464844 108.691406 692.464844 123.359375 C 692.464844 129.121094 692.371094 134.878906 692.28125 140.640625 L 692.824219 141.179688 C 699.304688 140.910156 700.652344 140.910156 707.851562 140.910156 L 708.394531 140.371094 C 707.851562 126.511719 707.761719 123 707.671875 106.890625 C 709.5625 105.628906 711.722656 104.101562 714.601562 104.101562 C 719.554688 104.101562 720.003906 109.410156 720.273438 112.648438 C 720.453125 115.621094 720.542969 127.949219 720.542969 131.371094 C 720.542969 134.429688 720.453125 137.578125 720.453125 140.640625 L 720.992188 141.179688 C 726.933594 141 728.464844 140.910156 735.664062 140.910156 Z M 771.757812 130.648438 C 770.226562 131.101562 769.144531 131.460938 767.617188 131.460938 C 763.027344 131.460938 762.667969 128.578125 762.484375 127.230469 C 762.214844 124.890625 762.214844 119.941406 762.304688 116.339844 L 762.484375 103.648438 L 770.585938 104.011719 L 771.125 103.46875 L 772.027344 93.839844 L 771.484375 93.300781 L 762.484375 93.300781 L 762.757812 78.179688 L 762.125 77.640625 C 756.007812 79.441406 754.386719 79.890625 747.996094 81.511719 L 747.636719 82.140625 L 747.726562 93.390625 L 742.867188 93.210938 L 742.328125 93.660156 L 741.515625 103.289062 L 742.054688 103.828125 L 747.726562 103.648438 L 747.457031 117.960938 C 747.367188 120.210938 747.277344 122.460938 747.277344 124.800781 C 747.277344 133.078125 747.457031 141.988281 761.496094 141.988281 C 765.007812 141.988281 767.796875 141.449219 770.945312 140.910156 L 771.578125 140.28125 L 772.476562 131.011719 Z M 824.226562 117.058594 C 824.226562 113.550781 824.226562 98.96875 811.625 94.019531 C 807.664062 92.488281 802.984375 92.308594 800.644531 92.308594 C 784.984375 92.308594 776.164062 100.679688 776.164062 117.238281 C 776.164062 123 777.066406 128.851562 780.394531 133.710938 C 782.734375 137.21875 787.144531 142.078125 800.015625 142.078125 C 819.09375 142.078125 824.226562 130.558594 824.226562 117.058594 M 808.65625 116.96875 C 808.65625 124.351562 807.664062 132.539062 800.195312 132.539062 C 797.855469 132.539062 796.234375 131.460938 795.15625 130.46875 C 793.625 128.941406 791.914062 125.878906 791.914062 117.148438 C 791.914062 114.539062 791.914062 108.78125 793.714844 105.628906 C 795.066406 103.199219 797.40625 101.578125 800.285156 101.578125 C 802.804688 101.578125 804.875 102.929688 806.046875 104.371094 C 808.207031 106.980469 808.65625 112.109375 808.65625 116.96875 Z M 827.375 141 "/>
<path fill-rule="nonzero" fill="rgb(34.901961%, 14.901961%, 14.901961%)" fill-opacity="1" d="M 128.570312 222.300781 C 121.011719 219.148438 117.050781 217.53125 117.050781 213.480469 C 117.050781 210.691406 119.660156 207.179688 125.601562 207.179688 C 132.441406 207.179688 136.488281 209.96875 139.820312 212.21875 L 140.628906 211.859375 L 141.351562 200.070312 L 140.898438 199.441406 C 137.03125 197.820312 132.980469 196.109375 124.25 196.109375 C 107.332031 196.109375 101.480469 205.648438 101.480469 215.28125 C 101.480469 226.171875 109.941406 230.128906 114.980469 232.558594 L 117.949219 233.910156 C 124.160156 236.519531 128.929688 238.769531 128.929688 243.539062 C 128.929688 246.960938 125.960938 251.011719 118.128906 251.011719 C 109.941406 251.011719 105.351562 247.410156 102.738281 245.339844 L 101.839844 245.609375 L 101.210938 258.300781 L 101.75 259.019531 C 102.738281 259.378906 103.730469 259.828125 104.71875 260.101562 C 106.789062 260.820312 112.101562 262.351562 118.851562 262.351562 C 121.550781 262.351562 128.390625 262.078125 133.789062 259.558594 C 141.351562 255.871094 144.589844 249.03125 144.589844 241.378906 C 144.589844 236.25 142.609375 230.761719 137.839844 227.070312 C 135.410156 225.269531 133.070312 224.191406 130.910156 223.199219 Z M 178.339844 250.648438 C 176.808594 251.101562 175.726562 251.460938 174.199219 251.460938 C 169.609375 251.460938 169.25 248.578125 169.066406 247.230469 C 168.796875 244.890625 168.796875 239.941406 168.886719 236.339844 L 169.066406 223.648438 L 177.167969 224.011719 L 177.707031 223.46875 L 178.609375 213.839844 L 178.066406 213.300781 L 169.066406 213.300781 L 169.339844 198.179688 L 168.707031 197.640625 C 162.589844 199.441406 160.96875 199.890625 154.578125 201.511719 L 154.21875 202.140625 L 154.308594 213.390625 L 149.449219 213.210938 L 148.910156 213.660156 L 148.097656 223.289062 L 148.636719 223.828125 L 154.308594 223.648438 L 154.039062 237.960938 C 153.949219 240.210938 153.859375 242.460938 153.859375 244.800781 C 153.859375 253.078125 154.039062 261.988281 168.078125 261.988281 C 171.589844 261.988281 174.378906 261.449219 177.527344 260.910156 L 178.160156 260.28125 L 179.058594 251.011719 Z M 225.050781 234.179688 C 225.140625 226.078125 225.140625 222.570312 222.800781 218.789062 C 221 215.910156 217.402344 212.308594 205.882812 212.308594 C 198.140625 212.308594 193.371094 213.75 188.242188 215.28125 L 187.703125 216 L 187.25 225.808594 L 187.972656 226.171875 C 191.121094 224.910156 196.972656 222.570312 203 222.570312 C 206.332031 222.570312 207.679688 223.109375 208.851562 224.28125 C 209.75 225.179688 210.023438 226.800781 210.023438 228.148438 C 199.222656 229.589844 194.179688 230.578125 188.78125 233.910156 C 183.742188 237.058594 182.03125 242.191406 182.03125 246.238281 C 182.03125 255.871094 188.960938 262.078125 197.78125 262.078125 C 204.53125 262.078125 208.402344 258.839844 210.292969 257.308594 L 210.292969 260.640625 L 210.832031 261.269531 C 217.3125 261 219.292969 260.910156 225.140625 261 L 225.589844 260.371094 C 224.960938 251.550781 224.960938 249.300781 224.960938 240.839844 L 225.050781 234.179688 M 210.203125 248.488281 C 208.3125 249.570312 205.882812 250.828125 202.910156 250.828125 C 199.671875 250.828125 196.972656 249.121094 196.972656 245.339844 C 196.972656 239.398438 204.082031 238.410156 210.203125 237.601562 Z M 260.78125 250.648438 C 259.25 251.101562 258.167969 251.460938 256.640625 251.460938 C 252.050781 251.460938 251.691406 248.578125 251.507812 247.230469 C 251.238281 244.890625 251.238281 239.941406 251.328125 236.339844 L 251.507812 223.648438 L 259.609375 224.011719 L 260.148438 223.46875 L 261.050781 213.839844 L 260.507812 213.300781 L 251.507812 213.300781 L 251.78125 198.179688 L 251.148438 197.640625 C 245.03125 199.441406 243.410156 199.890625 237.019531 201.511719 L 236.660156 202.140625 L 236.75 213.390625 L 231.890625 213.210938 L 231.351562 213.660156 L 230.539062 223.289062 L 231.078125 223.828125 L 236.75 223.648438 L 236.480469 237.960938 C 236.390625 240.210938 236.300781 242.460938 236.300781 244.800781 C 236.300781 253.078125 236.480469 261.988281 250.519531 261.988281 C 254.03125 261.988281 256.820312 261.449219 259.96875 260.910156 L 260.601562 260.28125 L 261.5 251.011719 Z M 307.398438 247.679688 C 303.980469 249.480469 299.929688 251.550781 293.359375 251.550781 C 287.960938 251.550781 284.269531 249.839844 282.109375 246.601562 C 280.757812 244.710938 280.488281 242.910156 280.128906 241.109375 L 309.199219 240.570312 L 309.738281 239.941406 C 309.648438 235.53125 309.558594 231.03125 308.300781 226.53125 C 305.148438 215.910156 298.21875 213.75 295.160156 213.03125 C 292.910156 212.398438 290.839844 212.21875 288.769531 212.21875 C 274.640625 212.21875 265.277344 221.488281 265.277344 237.058594 C 265.277344 241.289062 266 245.699219 267.4375 248.851562 C 272.660156 261 284.898438 262.078125 291.378906 262.078125 C 298.847656 262.078125 302.089844 260.730469 306.859375 258.839844 L 307.398438 258.121094 L 308.027344 247.949219 L 307.398438 247.679688 M 280.128906 231.570312 C 280.398438 228.78125 281.027344 225 284.449219 222.839844 C 285.527344 222.121094 286.789062 221.851562 288.050781 221.851562 C 291.019531 221.851562 292.820312 223.378906 293.808594 225 C 295.070312 226.980469 295.160156 229.140625 295.160156 231.210938 Z M 398.207031 197.191406 C 391.007812 197.460938 389.839844 197.460938 382.277344 197.460938 L 381.828125 198 C 382.457031 208.171875 382.457031 210.78125 382.546875 221.398438 C 378.589844 221.488281 374.628906 221.578125 370.578125 221.578125 C 367.429688 221.578125 364.1875 221.488281 361.039062 221.488281 L 361.21875 197.730469 L 360.769531 197.191406 C 353.839844 197.460938 352.488281 197.460938 344.660156 197.460938 L 344.117188 198 C 344.570312 207.269531 345.109375 218.339844 345.109375 240.660156 C 345.109375 248.761719 344.929688 253.171875 344.75 260.730469 L 345.199219 261.269531 C 351.769531 261 353.386719 260.910156 361.308594 261 L 361.757812 260.460938 C 361.21875 249.300781 361.128906 246.058594 361.039062 233.011719 C 365 232.828125 368.328125 232.738281 371.839844 232.738281 C 375.4375 232.738281 379.039062 232.828125 382.636719 232.921875 C 382.820312 245.070312 382.820312 248.039062 382.367188 260.730469 L 382.820312 261.269531 C 389.570312 261 391.367188 260.910156 399.019531 261 L 399.46875 260.460938 C 398.75 245.339844 398.476562 230.308594 398.476562 215.191406 C 398.476562 208.890625 398.570312 204.660156 398.660156 197.730469 Z M 426.203125 260.371094 C 425.75 253.441406 425.390625 248.128906 425.390625 235.710938 C 425.390625 228.058594 425.570312 220.320312 425.660156 212.671875 L 425.03125 211.949219 L 409.550781 214.648438 L 409.011719 215.191406 C 409.730469 222.03125 410 225.179688 410 237.960938 C 410 247.769531 409.730469 253.261719 409.460938 260.640625 L 410 261.269531 C 416.480469 261 418.28125 260.910156 425.570312 261 L 426.203125 260.371094 M 424.761719 203.308594 L 425.03125 191.070312 L 424.492188 190.53125 L 409.820312 192.328125 L 409.28125 192.960938 C 409.460938 196.199219 409.550781 198.089844 409.550781 200.25 C 409.550781 201.960938 409.550781 203.761719 409.460938 205.46875 L 410.089844 206.011719 C 416.210938 204.929688 417.921875 204.75 424.3125 203.941406 Z M 455.089844 229.949219 C 452.027344 228.871094 449.597656 227.878906 449.597656 225.359375 C 449.597656 224.28125 450.320312 221.308594 455.898438 221.308594 C 461.390625 221.308594 464.898438 223.648438 467.148438 225.089844 L 467.960938 224.820312 L 468.859375 215.011719 L 468.410156 214.46875 C 464.179688 213.300781 460.488281 212.21875 454.640625 212.21875 C 450.230469 212.21875 441.410156 212.578125 436.730469 219.328125 C 435.558594 220.949219 434.300781 223.648438 434.300781 227.25 C 434.300781 236.878906 441.769531 239.761719 446 241.378906 L 449.417969 242.640625 C 451.847656 243.449219 455.808594 244.800781 455.808594 248.039062 C 455.808594 250.289062 453.738281 252.71875 448.699219 252.71875 C 446.179688 252.71875 442.488281 251.910156 439.160156 250.199219 C 437.628906 249.390625 436.910156 248.761719 435.558594 247.679688 L 434.75 248.039062 C 434.570312 252.71875 434.480469 253.710938 434.117188 258.210938 L 434.570312 259.019531 C 438.980469 260.640625 442.757812 262.078125 449.328125 262.078125 C 456.167969 262.078125 469.667969 260.820312 471.289062 247.949219 C 471.378906 247.230469 471.378906 246.601562 471.378906 245.96875 C 471.378906 236.070312 464.449219 233.460938 459.5 231.570312 Z M 504.5 250.648438 C 502.96875 251.101562 501.886719 251.460938 500.359375 251.460938 C 495.769531 251.460938 495.410156 248.578125 495.226562 247.230469 C 494.957031 244.890625 494.957031 239.941406 495.046875 236.339844 L 495.226562 223.648438 L 503.328125 224.011719 L 503.867188 223.46875 L 504.769531 213.839844 L 504.226562 213.300781 L 495.226562 213.300781 L 495.5 198.179688 L 494.867188 197.640625 C 488.75 199.441406 487.128906 199.890625 480.738281 201.511719 L 480.378906 202.140625 L 480.46875 213.390625 L 475.609375 213.210938 L 475.070312 213.660156 L 474.257812 223.289062 L 474.796875 223.828125 L 480.46875 223.648438 L 480.199219 237.960938 C 480.109375 240.210938 480.019531 242.460938 480.019531 244.800781 C 480.019531 253.078125 480.199219 261.988281 494.238281 261.988281 C 497.75 261.988281 500.539062 261.449219 503.6875 260.910156 L 504.320312 260.28125 L 505.21875 251.011719 Z M 556.972656 237.058594 C 556.972656 233.550781 556.972656 218.96875 544.371094 214.019531 C 540.410156 212.488281 535.730469 212.308594 533.390625 212.308594 C 517.730469 212.308594 508.910156 220.679688 508.910156 237.238281 C 508.910156 243 509.8125 248.851562 513.140625 253.710938 C 515.480469 257.21875 519.890625 262.078125 532.761719 262.078125 C 551.839844 262.078125 556.972656 250.558594 556.972656 237.058594 M 541.402344 236.96875 C 541.402344 244.351562 540.410156 252.539062 532.941406 252.539062 C 530.601562 252.539062 528.980469 251.460938 527.902344 250.46875 C 526.371094 248.941406 524.660156 245.878906 524.660156 237.148438 C 524.660156 234.539062 524.660156 228.78125 526.460938 225.628906 C 527.8125 223.199219 530.152344 221.578125 533.03125 221.578125 C 535.550781 221.578125 537.621094 222.929688 538.792969 224.371094 C 540.953125 226.980469 541.402344 232.109375 541.402344 236.96875 Z M 591.53125 227.609375 L 594.050781 212.941406 L 593.511719 212.308594 C 592.882812 212.308594 592.25 212.21875 591.621094 212.21875 C 587.929688 212.21875 583.792969 214.289062 580.910156 220.949219 L 581.179688 212.671875 L 580.460938 211.949219 C 573.800781 213.390625 572.089844 213.660156 565.519531 214.648438 L 564.980469 215.191406 C 565.519531 221.941406 565.792969 225.988281 565.792969 238.5 C 565.792969 245.878906 565.699219 253.261719 565.519531 260.730469 L 566.0625 261.269531 C 572.722656 261 574.160156 260.910156 581.359375 261 L 581.8125 260.371094 C 581.449219 253.078125 580.910156 242.910156 580.910156 236.699219 C 580.910156 232.648438 580.910156 226.710938 587.03125 226.710938 C 588.5625 226.710938 589.460938 227.25 590.722656 227.96875 Z M 615.5625 260.371094 C 615.109375 253.441406 614.75 248.128906 614.75 235.710938 C 614.75 228.058594 614.929688 220.320312 615.019531 212.671875 L 614.390625 211.949219 L 598.910156 214.648438 L 598.371094 215.191406 C 599.089844 222.03125 599.359375 225.179688 599.359375 237.960938 C 599.359375 247.769531 599.089844 253.261719 598.820312 260.640625 L 599.359375 261.269531 C 605.839844 261 607.640625 260.910156 614.929688 261 L 615.5625 260.371094 M 614.121094 203.308594 L 614.390625 191.070312 L 613.851562 190.53125 L 599.179688 192.328125 L 598.640625 192.960938 C 598.820312 196.199219 598.910156 198.089844 598.910156 200.25 C 598.910156 201.960938 598.910156 203.761719 598.820312 205.46875 L 599.449219 206.011719 C 605.570312 204.929688 607.28125 204.75 613.671875 203.941406 Z M 660.738281 248.039062 C 658.308594 249.480469 655.96875 250.921875 651.378906 250.921875 C 641.207031 250.921875 639.136719 242.460938 639.136719 237.058594 C 639.136719 230.488281 642.019531 222.929688 650.75 222.929688 C 654.707031 222.929688 656.867188 224.371094 659.570312 226.171875 L 660.46875 225.898438 C 660.828125 221.128906 660.917969 219.871094 661.636719 215.101562 L 661.1875 214.558594 C 657.226562 213.300781 653.808594 212.21875 648.589844 212.21875 C 627.4375 212.21875 623.296875 228.238281 623.296875 237.421875 C 623.296875 247.769531 628.699219 261.808594 648.949219 261.808594 C 653.71875 261.808594 656.777344 260.910156 660.558594 259.828125 L 661.097656 259.289062 L 661.457031 248.488281 Z M 707 197.28125 L 695.570312 197.460938 L 695.027344 198 C 695.390625 209.699219 695.660156 217.53125 695.660156 227.878906 C 695.660156 238.859375 695.390625 249.75 695.117188 260.730469 L 695.660156 261.269531 C 702.320312 261 703.757812 260.910156 710.960938 261 L 711.410156 260.460938 C 711.050781 250.648438 711.050781 248.398438 711.050781 239.21875 C 721.128906 239.308594 731.929688 239.308594 738.410156 231.390625 C 740.929688 228.328125 743.089844 223.199219 743.089844 216.898438 C 743.089844 213.03125 742.1875 204.480469 734.71875 200.25 C 729.320312 197.101562 721.667969 197.101562 714.917969 197.101562 L 707 197.28125 M 711.050781 208.171875 C 713.027344 208.078125 714.917969 208.078125 716.898438 208.078125 C 724.820312 208.261719 726.980469 212.308594 726.980469 217.53125 C 726.980469 218.789062 726.980469 224.011719 722.210938 226.621094 C 719.777344 227.96875 716.449219 228.148438 711.050781 228.148438 Z M 789.347656 234.179688 C 789.4375 226.078125 789.4375 222.570312 787.097656 218.789062 C 785.296875 215.910156 781.699219 212.308594 770.179688 212.308594 C 762.4375 212.308594 757.667969 213.75 752.539062 215.28125 L 752 216 L 751.546875 225.808594 L 752.269531 226.171875 C 755.417969 224.910156 761.269531 222.570312 767.296875 222.570312 C 770.628906 222.570312 771.976562 223.109375 773.148438 224.28125 C 774.046875 225.179688 774.320312 226.800781 774.320312 228.148438 C 763.519531 229.589844 758.476562 230.578125 753.078125 233.910156 C 748.039062 237.058594 746.328125 242.191406 746.328125 246.238281 C 746.328125 255.871094 753.257812 262.078125 762.078125 262.078125 C 768.828125 262.078125 772.699219 258.839844 774.589844 257.308594 L 774.589844 260.640625 L 775.128906 261.269531 C 781.609375 261 783.589844 260.910156 789.4375 261 L 789.886719 260.371094 C 789.257812 251.550781 789.257812 249.300781 789.257812 240.839844 L 789.347656 234.179688 M 774.5 248.488281 C 772.609375 249.570312 770.179688 250.828125 767.207031 250.828125 C 763.96875 250.828125 761.269531 249.121094 761.269531 245.339844 C 761.269531 239.398438 768.378906 238.410156 774.5 237.601562 Z M 825.890625 227.609375 L 828.410156 212.941406 L 827.871094 212.308594 C 827.242188 212.308594 826.609375 212.21875 825.980469 212.21875 C 822.289062 212.21875 818.152344 214.289062 815.269531 220.949219 L 815.539062 212.671875 L 814.820312 211.949219 C 808.160156 213.390625 806.449219 213.660156 799.878906 214.648438 L 799.339844 215.191406 C 799.878906 221.941406 800.152344 225.988281 800.152344 238.5 C 800.152344 245.878906 800.058594 253.261719 799.878906 260.730469 L 800.421875 261.269531 C 807.082031 261 808.519531 260.910156 815.71875 261 L 816.171875 260.371094 C 815.808594 253.078125 815.269531 242.910156 815.269531 236.699219 C 815.269531 232.648438 815.269531 226.710938 821.390625 226.710938 C 822.921875 226.710938 823.820312 227.25 825.082031 227.96875 Z M 879.890625 259.828125 C 871.429688 245.519531 870.53125 243.898438 863.691406 231.570312 C 869.902344 223.109375 870.53125 222.210938 876.921875 214.019531 L 876.46875 213.121094 L 861.800781 213.300781 L 860.902344 213.929688 C 853.878906 226.078125 852.980469 227.519531 848.839844 233.730469 L 848.839844 223.738281 C 848.929688 206.910156 849.019531 203.308594 849.46875 189.71875 L 848.75 189.179688 L 833.089844 191.519531 L 832.550781 192.148438 C 833.179688 200.878906 833.449219 205.109375 833.628906 216.898438 C 833.808594 231.480469 833.808594 246.058594 833.71875 260.640625 L 834.351562 261.269531 C 840.378906 261 842.089844 261 848.929688 261 L 849.46875 260.371094 L 848.929688 245.160156 L 848.839844 234.808594 C 856.671875 249.210938 857.660156 251.191406 862.25 260.730469 L 863.058594 261.269531 L 879.261719 260.640625 Z M 878.808594 261 "/>
</svg>
