<?xml version="1.0" encoding="UTF-8"?>
<svg xmlns="http://www.w3.org/2000/svg" xmlns:xlink="http://www.w3.org/1999/xlink" width="975" height="1300" viewBox="0 0 975 1300">
<path fill-rule="nonzero" fill="rgb(98.823529%, 78.823529%, 9.019608%)" fill-opacity="1" d="M 50 50 L 925 50 L 925 290 L 50 290 Z M 50 50 "/>
<path fill-rule="nonzero" fill="rgb(34.901961%, 14.901961%, 14.901961%)" fill-opacity="1" d="M 127.984375 123.179688 C 127.984375 118.679688 128.074219 114.179688 128.164062 109.589844 L 127.714844 109.050781 L 112.414062 109.320312 L 111.964844 109.859375 C 112.773438 118.679688 112.863281 120.839844 112.683594 129.03125 C 110.253906 129.570312 108.457031 130.019531 105.933594 130.019531 C 91.984375 130.019531 89.464844 116.699219 89.464844 109.949219 C 89.464844 95.730469 97.113281 87.988281 108.457031 87.988281 C 115.296875 87.988281 119.34375 90.691406 123.574219 93.480469 L 124.296875 93.210938 C 124.746094 87.628906 124.925781 86.191406 125.644531 80.789062 L 125.195312 80.25 C 121.414062 78.628906 115.386719 76.109375 106.023438 76.109375 C 95.765625 76.109375 84.515625 78.988281 77.40625 91.050781 C 74.164062 96.71875 72.816406 104.011719 72.816406 110.039062 C 72.816406 118.5 75.066406 125.609375 79.113281 130.828125 C 84.425781 137.671875 90.996094 139.828125 94.503906 140.820312 C 97.113281 141.539062 100.984375 142.351562 106.566406 142.351562 C 115.835938 142.351562 121.503906 140.460938 127.804688 138.390625 L 128.253906 137.671875 C 128.164062 133.53125 127.984375 129.390625 127.984375 125.25 Z M 183.964844 117.058594 C 183.964844 113.550781 183.964844 98.96875 171.363281 94.019531 C 167.402344 92.488281 162.722656 92.308594 160.382812 92.308594 C 144.722656 92.308594 135.902344 100.679688 135.902344 117.238281 C 135.902344 123 136.804688 128.851562 140.132812 133.710938 C 142.472656 137.21875 146.882812 142.078125 159.753906 142.078125 C 178.832031 142.078125 183.964844 130.558594 183.964844 117.058594 M 168.394531 116.96875 C 168.394531 124.351562 167.402344 132.539062 159.933594 132.539062 C 157.59375 132.539062 155.972656 131.460938 154.894531 130.46875 C 153.363281 128.941406 151.652344 125.878906 151.652344 117.148438 C 151.652344 114.539062 151.652344 108.78125 153.453125 105.628906 C 154.804688 103.199219 157.144531 101.578125 160.023438 101.578125 C 162.542969 101.578125 164.613281 102.929688 165.785156 104.371094 C 167.945312 106.980469 168.394531 112.109375 168.394531 116.96875 Z M 217.351562 140.28125 C 220.234375 131.28125 221.941406 125.699219 223.832031 120.03125 C 226.261719 112.738281 230.222656 101.039062 232.742188 93.660156 L 232.292969 93.03125 L 219.691406 93.300781 L 219.0625 93.929688 C 217.804688 99.960938 217.535156 101.21875 215.734375 108.238281 L 211.144531 125.96875 L 208.894531 116.25 L 207.183594 109.320312 C 204.933594 100.949219 204.574219 99.238281 203.3125 93.300781 L 202.683594 92.761719 C 195.574219 93.570312 193.773438 93.660156 186.933594 93.75 L 186.574219 94.46875 C 198.542969 129.929688 199.535156 133.261719 201.511719 140.640625 L 202.144531 141.269531 C 207.992188 141 210.332031 140.910156 216.8125 141 Z M 277.472656 127.679688 C 274.054688 129.480469 270.003906 131.550781 263.433594 131.550781 C 258.035156 131.550781 254.34375 129.839844 252.183594 126.601562 C 250.832031 124.710938 250.5625 122.910156 250.203125 121.109375 L 279.273438 120.570312 L 279.8125 119.941406 C 279.722656 115.53125 279.632812 111.03125 278.375 106.53125 C 275.222656 95.910156 268.292969 93.75 265.234375 93.03125 C 262.984375 92.398438 260.914062 92.21875 258.84375 92.21875 C 244.714844 92.21875 235.351562 101.488281 235.351562 117.058594 C 235.351562 121.289062 236.074219 125.699219 237.511719 128.851562 C 242.734375 141 254.972656 142.078125 261.453125 142.078125 C 268.921875 142.078125 272.164062 140.730469 276.933594 138.839844 L 277.472656 138.121094 L 278.101562 127.949219 L 277.472656 127.679688 M 250.203125 111.570312 C 250.472656 108.78125 251.101562 105 254.523438 102.839844 C 255.601562 102.121094 256.863281 101.851562 258.125 101.851562 C 261.09375 101.851562 262.894531 103.378906 263.882812 105 C 265.144531 106.980469 265.234375 109.140625 265.234375 111.210938 Z M 314.105469 107.609375 L 316.625 92.941406 L 316.085938 92.308594 C 315.457031 92.308594 314.824219 92.21875 314.195312 92.21875 C 310.503906 92.21875 306.367188 94.289062 303.484375 100.949219 L 303.753906 92.671875 L 303.035156 91.949219 C 296.375 93.390625 294.664062 93.660156 288.09375 94.648438 L 287.554688 95.191406 C 288.09375 101.941406 288.367188 105.988281 288.367188 118.5 C 288.367188 125.878906 288.273438 133.261719 288.09375 140.730469 L 288.636719 141.269531 C 295.296875 141 296.734375 140.910156 303.933594 141 L 304.386719 140.371094 C 304.023438 133.078125 303.484375 122.910156 303.484375 116.699219 C 303.484375 112.648438 303.484375 106.710938 309.605469 106.710938 C 311.136719 106.710938 312.035156 107.25 313.296875 107.96875 Z M 365.945312 140.371094 C 365.496094 132.449219 365.496094 129.929688 365.316406 121.109375 L 365.316406 114.089844 C 365.226562 105.449219 365.136719 101.308594 362.886719 97.621094 C 360.09375 92.941406 354.964844 92.21875 351.726562 92.21875 C 346.234375 92.21875 341.464844 95.101562 337.324219 97.53125 L 337.503906 92.578125 L 336.605469 91.949219 C 329.675781 93.390625 328.144531 93.660156 321.394531 94.558594 L 320.855469 95.191406 C 321.574219 103.019531 322.117188 108.691406 322.117188 123.359375 C 322.117188 129.121094 322.023438 134.878906 321.933594 140.640625 L 322.476562 141.179688 C 328.957031 140.910156 330.304688 140.910156 337.503906 140.910156 L 338.046875 140.371094 C 337.503906 126.511719 337.414062 123 337.324219 106.890625 C 339.214844 105.628906 341.375 104.101562 344.253906 104.101562 C 349.207031 104.101562 349.65625 109.410156 349.925781 112.648438 C 350.105469 115.621094 350.195312 127.949219 350.195312 131.371094 C 350.195312 134.429688 350.105469 137.578125 350.105469 140.640625 L 350.644531 141.179688 C 356.585938 141 358.117188 140.910156 365.316406 140.910156 Z M 422.015625 117.058594 C 422.015625 113.550781 422.015625 98.96875 409.414062 94.019531 C 405.453125 92.488281 400.773438 92.308594 398.433594 92.308594 C 382.773438 92.308594 373.953125 100.679688 373.953125 117.238281 C 373.953125 123 374.855469 128.851562 378.183594 133.710938 C 380.523438 137.21875 384.933594 142.078125 397.804688 142.078125 C 416.882812 142.078125 422.015625 130.558594 422.015625 117.058594 M 406.445312 116.96875 C 406.445312 124.351562 405.453125 132.539062 397.984375 132.539062 C 395.644531 132.539062 394.023438 131.460938 392.945312 130.46875 C 391.414062 128.941406 389.703125 125.878906 389.703125 117.148438 C 389.703125 114.539062 389.703125 108.78125 391.503906 105.628906 C 392.855469 103.199219 395.195312 101.578125 398.074219 101.578125 C 400.59375 101.578125 402.664062 102.929688 403.835938 104.371094 C 405.996094 106.980469 406.445312 112.109375 406.445312 116.96875 Z M 456.574219 107.609375 L 459.09375 92.941406 L 458.554688 92.308594 C 457.925781 92.308594 457.292969 92.21875 456.664062 92.21875 C 452.972656 92.21875 448.835938 94.289062 445.953125 100.949219 L 446.222656 92.671875 L 445.503906 91.949219 C 438.84375 93.390625 437.132812 93.660156 430.5625 94.648438 L 430.023438 95.191406 C 430.5625 101.941406 430.835938 105.988281 430.835938 118.5 C 430.835938 125.878906 430.742188 133.261719 430.5625 140.730469 L 431.105469 141.269531 C 437.765625 141 439.203125 140.910156 446.402344 141 L 446.855469 140.371094 C 446.492188 133.078125 445.953125 122.910156 445.953125 116.699219 C 445.953125 112.648438 445.953125 106.710938 452.074219 106.710938 C 453.605469 106.710938 454.503906 107.25 455.765625 107.96875 Z M 473.765625 79.800781 C 473.855469 78.539062 474.035156 77.011719 473.042969 75.660156 C 472.683594 75.210938 471.242188 73.589844 468.632812 73.589844 C 466.113281 73.589844 462.785156 75.121094 462.785156 78.898438 C 462.785156 79.53125 462.785156 80.160156 462.875 80.878906 L 467.105469 103.109375 L 469.535156 103.109375 Z M 501.9375 109.949219 C 498.875 108.871094 496.445312 107.878906 496.445312 105.359375 C 496.445312 104.28125 497.167969 101.308594 502.746094 101.308594 C 508.238281 101.308594 511.746094 103.648438 513.996094 105.089844 L 514.808594 104.820312 L 515.707031 95.011719 L 515.257812 94.46875 C 511.027344 93.300781 507.335938 92.21875 501.488281 92.21875 C 497.078125 92.21875 488.257812 92.578125 483.578125 99.328125 C 482.40625 100.949219 481.148438 103.648438 481.148438 107.25 C 481.148438 116.878906 488.617188 119.761719 492.847656 121.378906 L 496.265625 122.640625 C 498.695312 123.449219 502.65625 124.800781 502.65625 128.039062 C 502.65625 130.289062 500.585938 132.71875 495.546875 132.71875 C 493.027344 132.71875 489.335938 131.910156 486.007812 130.199219 C 484.476562 129.390625 483.757812 128.761719 482.40625 127.679688 L 481.597656 128.039062 C 481.417969 132.71875 481.328125 133.710938 480.964844 138.210938 L 481.417969 139.019531 C 485.828125 140.640625 489.605469 142.078125 496.175781 142.078125 C 503.015625 142.078125 516.515625 140.820312 518.136719 127.949219 C 518.226562 127.230469 518.226562 126.601562 518.226562 125.96875 C 518.226562 116.070312 511.296875 113.460938 506.347656 111.570312 Z M 621.453125 77.191406 C 612.09375 77.460938 610.5625 77.460938 600.574219 77.460938 L 600.035156 78 L 595.894531 92.578125 L 592.292969 105.628906 L 588.0625 121.289062 L 584.101562 105.179688 L 581.582031 95.011719 L 577.082031 77.730469 L 576.632812 77.191406 C 567.003906 77.460938 565.382812 77.460938 555.304688 77.460938 L 554.761719 78 C 553.863281 104.910156 553.503906 111.839844 551.523438 140.730469 L 551.972656 141.269531 C 557.734375 141 559.445312 140.910156 564.664062 141 L 565.203125 140.460938 L 565.472656 123.269531 L 566.011719 105.808594 L 566.375 88.800781 L 570.332031 104.730469 L 573.753906 117.511719 L 579.785156 140.730469 L 580.324219 141.269531 C 585.902344 141 587.433594 140.910156 593.734375 141 L 594.273438 140.460938 L 599.492188 121.289062 L 603.09375 108.148438 L 608.132812 89.25 L 608.132812 105.359375 L 608.3125 119.128906 L 608.3125 140.730469 L 608.761719 141.269531 C 614.972656 141 617.402344 140.910156 624.332031 141 L 624.785156 140.460938 C 624.242188 130.199219 623.613281 119.851562 623.253906 109.5 C 622.984375 103.828125 622.804688 98.160156 622.535156 92.488281 C 622.082031 84.121094 621.992188 83.039062 621.992188 77.730469 Z M 675.003906 114.179688 C 675.09375 106.078125 675.09375 102.570312 672.753906 98.789062 C 670.953125 95.910156 667.355469 92.308594 655.835938 92.308594 C 648.09375 92.308594 643.324219 93.75 638.195312 95.28125 L 637.65625 96 L 637.203125 105.808594 L 637.925781 106.171875 C 641.074219 104.910156 646.925781 102.570312 652.953125 102.570312 C 656.285156 102.570312 657.632812 103.109375 658.804688 104.28125 C 659.703125 105.179688 659.976562 106.800781 659.976562 108.148438 C 649.175781 109.589844 644.132812 110.578125 638.734375 113.910156 C 633.695312 117.058594 631.984375 122.191406 631.984375 126.238281 C 631.984375 135.871094 638.914062 142.078125 647.734375 142.078125 C 654.484375 142.078125 658.355469 138.839844 660.246094 137.308594 L 660.246094 140.640625 L 660.785156 141.269531 C 667.265625 141 669.246094 140.910156 675.09375 141 L 675.542969 140.371094 C 674.914062 131.550781 674.914062 129.300781 674.914062 120.839844 L 675.003906 114.179688 M 660.15625 128.488281 C 658.265625 129.570312 655.835938 130.828125 652.863281 130.828125 C 649.625 130.828125 646.925781 129.121094 646.925781 125.339844 C 646.925781 119.398438 654.035156 118.410156 660.15625 117.601562 Z M 729.636719 140.371094 C 729.1875 132.449219 729.1875 129.929688 729.007812 121.109375 L 729.007812 114.089844 C 728.917969 105.449219 728.828125 101.308594 726.578125 97.621094 C 723.785156 92.941406 718.65625 92.21875 715.417969 92.21875 C 709.925781 92.21875 705.15625 95.101562 701.015625 97.53125 L 701.195312 92.578125 L 700.296875 91.949219 C 693.367188 93.390625 691.835938 93.660156 685.085938 94.558594 L 684.546875 95.191406 C 685.265625 103.019531 685.808594 108.691406 685.808594 123.359375 C 685.808594 129.121094 685.714844 134.878906 685.625 140.640625 L 686.167969 141.179688 C 692.648438 140.910156 693.996094 140.910156 701.195312 140.910156 L 701.738281 140.371094 C 701.195312 126.511719 701.105469 123 701.015625 106.890625 C 702.90625 105.628906 705.066406 104.101562 707.945312 104.101562 C 712.898438 104.101562 713.347656 109.410156 713.617188 112.648438 C 713.796875 115.621094 713.886719 127.949219 713.886719 131.371094 C 713.886719 134.429688 713.796875 137.578125 713.796875 140.640625 L 714.335938 141.179688 C 720.277344 141 721.808594 140.910156 729.007812 140.910156 Z M 758.796875 109.949219 C 755.734375 108.871094 753.304688 107.878906 753.304688 105.359375 C 753.304688 104.28125 754.027344 101.308594 759.605469 101.308594 C 765.097656 101.308594 768.605469 103.648438 770.855469 105.089844 L 771.667969 104.820312 L 772.566406 95.011719 L 772.117188 94.46875 C 767.886719 93.300781 764.195312 92.21875 758.347656 92.21875 C 753.9375 92.21875 745.117188 92.578125 740.4375 99.328125 C 739.265625 100.949219 738.007812 103.648438 738.007812 107.25 C 738.007812 116.878906 745.476562 119.761719 749.707031 121.378906 L 753.125 122.640625 C 755.554688 123.449219 759.515625 124.800781 759.515625 128.039062 C 759.515625 130.289062 757.445312 132.71875 752.40625 132.71875 C 749.886719 132.71875 746.195312 131.910156 742.867188 130.199219 C 741.335938 129.390625 740.617188 128.761719 739.265625 127.679688 L 738.457031 128.039062 C 738.277344 132.71875 738.1875 133.710938 737.824219 138.210938 L 738.277344 139.019531 C 742.6875 140.640625 746.464844 142.078125 753.035156 142.078125 C 759.875 142.078125 773.375 140.820312 774.996094 127.949219 C 775.085938 127.230469 775.085938 126.601562 775.085938 125.96875 C 775.085938 116.070312 768.15625 113.460938 763.207031 111.570312 Z M 799.296875 140.371094 C 798.84375 133.441406 798.484375 128.128906 798.484375 115.710938 C 798.484375 108.058594 798.664062 100.320312 798.753906 92.671875 L 798.125 91.949219 L 782.644531 94.648438 L 782.105469 95.191406 C 782.824219 102.03125 783.09375 105.179688 783.09375 117.960938 C 783.09375 127.769531 782.824219 133.261719 782.554688 140.640625 L 783.09375 141.269531 C 789.574219 141 791.375 140.910156 798.664062 141 L 799.296875 140.371094 M 797.855469 83.308594 L 798.125 71.070312 L 797.585938 70.53125 L 782.914062 72.328125 L 782.375 72.960938 C 782.554688 76.199219 782.644531 78.089844 782.644531 80.25 C 782.644531 81.960938 782.644531 83.761719 782.554688 85.46875 L 783.183594 86.011719 C 789.304688 84.929688 791.015625 84.75 797.40625 83.941406 Z M 855.097656 117.058594 C 855.097656 113.550781 855.097656 98.96875 842.496094 94.019531 C 838.535156 92.488281 833.855469 92.308594 831.515625 92.308594 C 815.855469 92.308594 807.035156 100.679688 807.035156 117.238281 C 807.035156 123 807.9375 128.851562 811.265625 133.710938 C 813.605469 137.21875 818.015625 142.078125 830.886719 142.078125 C 849.964844 142.078125 855.097656 130.558594 855.097656 117.058594 M 839.527344 116.96875 C 839.527344 124.351562 838.535156 132.539062 831.066406 132.539062 C 828.726562 132.539062 827.105469 131.460938 826.027344 130.46875 C 824.496094 128.941406 822.785156 125.878906 822.785156 117.148438 C 822.785156 114.539062 822.785156 108.78125 824.585938 105.628906 C 825.9375 103.199219 828.277344 101.578125 831.15625 101.578125 C 833.675781 101.578125 835.746094 102.929688 836.917969 104.371094 C 839.078125 106.980469 839.527344 112.109375 839.527344 116.96875 Z M 907.746094 140.371094 C 907.296875 132.449219 907.296875 129.929688 907.117188 121.109375 L 907.117188 114.089844 C 907.027344 105.449219 906.9375 101.308594 904.6875 97.621094 C 901.894531 92.941406 896.765625 92.21875 893.527344 92.21875 C 888.035156 92.21875 883.265625 95.101562 879.125 97.53125 L 879.304688 92.578125 L 878.40625 91.949219 C 871.476562 93.390625 869.945312 93.660156 863.195312 94.558594 L 862.65625 95.191406 C 863.375 103.019531 863.917969 108.691406 863.917969 123.359375 C 863.917969 129.121094 863.824219 134.878906 863.734375 140.640625 L 864.277344 141.179688 C 870.757812 140.910156 872.105469 140.910156 879.304688 140.910156 L 879.847656 140.371094 C 879.304688 126.511719 879.214844 123 879.125 106.890625 C 881.015625 105.628906 883.175781 104.101562 886.054688 104.101562 C 891.007812 104.101562 891.457031 109.410156 891.726562 112.648438 C 891.90625 115.621094 891.996094 127.949219 891.996094 131.371094 C 891.996094 134.429688 891.90625 137.578125 891.90625 140.640625 L 892.445312 141.179688 C 898.386719 141 899.917969 140.910156 907.117188 140.910156 Z M 912.605469 141 "/>
<path fill-rule="nonzero" fill="rgb(34.901961%, 14.901961%, 14.901961%)" fill-opacity="1" d="M 128.570312 222.300781 C 121.011719 219.148438 117.050781 217.53125 117.050781 213.480469 C 117.050781 210.691406 119.660156 207.179688 125.601562 207.179688 C 132.441406 207.179688 136.488281 209.96875 139.820312 212.21875 L 140.628906 211.859375 L 141.351562 200.070312 L 140.898438 199.441406 C 137.03125 197.820312 132.980469 196.109375 124.25 196.109375 C 107.332031 196.109375 101.480469 205.648438 101.480469 215.28125 C 101.480469 226.171875 109.941406 230.128906 114.980469 232.558594 L 117.949219 233.910156 C 124.160156 236.519531 128.929688 238.769531 128.929688 243.539062 C 128.929688 246.960938 125.960938 251.011719 118.128906 251.011719 C 109.941406 251.011719 105.351562 247.410156 102.738281 245.339844 L 101.839844 245.609375 L 101.210938 258.300781 L 101.75 259.019531 C 102.738281 259.378906 103.730469 259.828125 104.71875 260.101562 C 106.789062 260.820312 112.101562 262.351562 118.851562 262.351562 C 121.550781 262.351562 128.390625 262.078125 133.789062 259.558594 C 141.351562 255.871094 144.589844 249.03125 144.589844 241.378906 C 144.589844 236.25 142.609375 230.761719 137.839844 227.070312 C 135.410156 225.269531 133.070312 224.191406 130.910156 223.199219 Z M 178.339844 250.648438 C 176.808594 251.101562 175.726562 251.460938 174.199219 251.460938 C 169.609375 251.460938 169.25 248.578125 169.066406 247.230469 C 168.796875 244.890625 168.796875 239.941406 168.886719 236.339844 L 169.066406 223.648438 L 177.167969 224.011719 L 177.707031 223.46875 L 178.609375 213.839844 L 178.066406 213.300781 L 169.066406 213.300781 L 169.339844 198.179688 L 168.707031 197.640625 C 162.589844 199.441406 160.96875 199.890625 154.578125 201.511719 L 154.21875 202.140625 L 154.308594 213.390625 L 149.449219 213.210938 L 148.910156 213.660156 L 148.097656 223.289062 L 148.636719 223.828125 L 154.308594 223.648438 L 154.039062 237.960938 C 153.949219 240.210938 153.859375 242.460938 153.859375 244.800781 C 153.859375 253.078125 154.039062 261.988281 168.078125 261.988281 C 171.589844 261.988281 174.378906 261.449219 177.527344 260.910156 L 178.160156 260.28125 L 179.058594 251.011719 Z M 225.050781 234.179688 C 225.140625 226.078125 225.140625 222.570312 222.800781 218.789062 C 221 215.910156 217.402344 212.308594 205.882812 212.308594 C 198.140625 212.308594 193.371094 213.75 188.242188 215.28125 L 187.703125 216 L 187.25 225.808594 L 187.972656 226.171875 C 191.121094 224.910156 196.972656 222.570312 203 222.570312 C 206.332031 222.570312 207.679688 223.109375 208.851562 224.28125 C 209.75 225.179688 210.023438 226.800781 210.023438 228.148438 C 199.222656 229.589844 194.179688 230.578125 188.78125 233.910156 C 183.742188 237.058594 182.03125 242.191406 182.03125 246.238281 C 182.03125 255.871094 188.960938 262.078125 197.78125 262.078125 C 204.53125 262.078125 208.402344 258.839844 210.292969 257.308594 L 210.292969 260.640625 L 210.832031 261.269531 C 217.3125 261 219.292969 260.910156 225.140625 261 L 225.589844 260.371094 C 224.960938 251.550781 224.960938 249.300781 224.960938 240.839844 L 225.050781 234.179688 M 210.203125 248.488281 C 208.3125 249.570312 205.882812 250.828125 202.910156 250.828125 C 199.671875 250.828125 196.972656 249.121094 196.972656 245.339844 C 196.972656 239.398438 204.082031 238.410156 210.203125 237.601562 Z M 260.78125 250.648438 C 259.25 251.101562 258.167969 251.460938 256.640625 251.460938 C 252.050781 251.460938 251.691406 248.578125 251.507812 247.230469 C 251.238281 244.890625 251.238281 239.941406 251.328125 236.339844 L 251.507812 223.648438 L 259.609375 224.011719 L 260.148438 223.46875 L 261.050781 213.839844 L 260.507812 213.300781 L 251.507812 213.300781 L 251.78125 198.179688 L 251.148438 197.640625 C 245.03125 199.441406 243.410156 199.890625 237.019531 201.511719 L 236.660156 202.140625 L 236.75 213.390625 L 231.890625 213.210938 L 231.351562 213.660156 L 230.539062 223.289062 L 231.078125 223.828125 L 236.75 223.648438 L 236.480469 237.960938 C 236.390625 240.210938 236.300781 242.460938 236.300781 244.800781 C 236.300781 253.078125 236.480469 261.988281 250.519531 261.988281 C 254.03125 261.988281 256.820312 261.449219 259.96875 260.910156 L 260.601562 260.28125 L 261.5 251.011719 Z M 307.398438 247.679688 C 303.980469 249.480469 299.929688 251.550781 293.359375 251.550781 C 287.960938 251.550781 284.269531 249.839844 282.109375 246.601562 C 280.757812 244.710938 280.488281 242.910156 280.128906 241.109375 L 309.199219 240.570312 L 309.738281 239.941406 C 309.648438 235.53125 309.558594 231.03125 308.300781 226.53125 C 305.148438 215.910156 298.21875 213.75 295.160156 213.03125 C 292.910156 212.398438 290.839844 212.21875 288.769531 212.21875 C 274.640625 212.21875 265.277344 221.488281 265.277344 237.058594 C 265.277344 241.289062 266 245.699219 267.4375 248.851562 C 272.660156 261 284.898438 262.078125 291.378906 262.078125 C 298.847656 262.078125 302.089844 260.730469 306.859375 258.839844 L 307.398438 258.121094 L 308.027344 247.949219 L 307.398438 247.679688 M 280.128906 231.570312 C 280.398438 228.78125 281.027344 225 284.449219 222.839844 C 285.527344 222.121094 286.789062 221.851562 288.050781 221.851562 C 291.019531 221.851562 292.820312 223.378906 293.808594 225 C 295.070312 226.980469 295.160156 229.140625 295.160156 231.210938 Z M 398.207031 197.191406 C 391.007812 197.460938 389.839844 197.460938 382.277344 197.460938 L 381.828125 198 C 382.457031 208.171875 382.457031 210.78125 382.546875 221.398438 C 378.589844 221.488281 374.628906 221.578125 370.578125 221.578125 C 367.429688 221.578125 364.1875 221.488281 361.039062 221.488281 L 361.21875 197.730469 L 360.769531 197.191406 C 353.839844 197.460938 352.488281 197.460938 344.660156 197.460938 L 344.117188 198 C 344.570312 207.269531 345.109375 218.339844 345.109375 240.660156 C 345.109375 248.761719 344.929688 253.171875 344.75 260.730469 L 345.199219 261.269531 C 351.769531 261 353.386719 260.910156 361.308594 261 L 361.757812 260.460938 C 361.21875 249.300781 361.128906 246.058594 361.039062 233.011719 C 365 232.828125 368.328125 232.738281 371.839844 232.738281 C 375.4375 232.738281 379.039062 232.828125 382.636719 232.921875 C 382.820312 245.070312 382.820312 248.039062 382.367188 260.730469 L 382.820312 261.269531 C 389.570312 261 391.367188 260.910156 399.019531 261 L 399.46875 260.460938 C 398.75 245.339844 398.476562 230.308594 398.476562 215.191406 C 398.476562 208.890625 398.570312 204.660156 398.660156 197.730469 Z M 426.203125 260.371094 C 425.75 253.441406 425.390625 248.128906 425.390625 235.710938 C 425.390625 228.058594 425.570312 220.320312 425.660156 212.671875 L 425.03125 211.949219 L 409.550781 214.648438 L 409.011719 215.191406 C 409.730469 222.03125 410 225.179688 410 237.960938 C 410 247.769531 409.730469 253.261719 409.460938 260.640625 L 410 261.269531 C 416.480469 261 418.28125 260.910156 425.570312 261 L 426.203125 260.371094 M 424.761719 203.308594 L 425.03125 191.070312 L 424.492188 190.53125 L 409.820312 192.328125 L 409.28125 192.960938 C 409.460938 196.199219 409.550781 198.089844 409.550781 200.25 C 409.550781 201.960938 409.550781 203.761719 409.460938 205.46875 L 410.089844 206.011719 C 416.210938 204.929688 417.921875 204.75 424.3125 203.941406 Z M 455.089844 229.949219 C 452.027344 228.871094 449.597656 227.878906 449.597656 225.359375 C 449.597656 224.28125 450.320312 221.308594 455.898438 221.308594 C 461.390625 221.308594 464.898438 223.648438 467.148438 225.089844 L 467.960938 224.820312 L 468.859375 215.011719 L 468.410156 214.46875 C 464.179688 213.300781 460.488281 212.21875 454.640625 212.21875 C 450.230469 212.21875 441.410156 212.578125 436.730469 219.328125 C 435.558594 220.949219 434.300781 223.648438 434.300781 227.25 C 434.300781 236.878906 441.769531 239.761719 446 241.378906 L 449.417969 242.640625 C 451.847656 243.449219 455.808594 244.800781 455.808594 248.039062 C 455.808594 250.289062 453.738281 252.71875 448.699219 252.71875 C 446.179688 252.71875 442.488281 251.910156 439.160156 250.199219 C 437.628906 249.390625 436.910156 248.761719 435.558594 247.679688 L 434.75 248.039062 C 434.570312 252.71875 434.480469 253.710938 434.117188 258.210938 L 434.570312 259.019531 C 438.980469 260.640625 442.757812 262.078125 449.328125 262.078125 C 456.167969 262.078125 469.667969 260.820312 471.289062 247.949219 C 471.378906 247.230469 471.378906 246.601562 471.378906 245.96875 C 471.378906 236.070312 464.449219 233.460938 459.5 231.570312 Z M 504.5 250.648438 C 502.96875 251.101562 501.886719 251.460938 500.359375 251.460938 C 495.769531 251.460938 495.410156 248.578125 495.226562 247.230469 C 494.957031 244.890625 494.957031 239.941406 495.046875 236.339844 L 495.226562 223.648438 L 503.328125 224.011719 L 503.867188 223.46875 L 504.769531 213.839844 L 504.226562 213.300781 L 495.226562 213.300781 L 495.5 198.179688 L 494.867188 197.640625 C 488.75 199.441406 487.128906 199.890625 480.738281 201.511719 L 480.378906 202.140625 L 480.46875 213.390625 L 475.609375 213.210938 L 475.070312 213.660156 L 474.257812 223.289062 L 474.796875 223.828125 L 480.46875 223.648438 L 480.199219 237.960938 C 480.109375 240.210938 480.019531 242.460938 480.019531 244.800781 C 480.019531 253.078125 480.199219 261.988281 494.238281 261.988281 C 497.75 261.988281 500.539062 261.449219 503.6875 260.910156 L 504.320312 260.28125 L 505.21875 251.011719 Z M 556.972656 237.058594 C 556.972656 233.550781 556.972656 218.96875 544.371094 214.019531 C 540.410156 212.488281 535.730469 212.308594 533.390625 212.308594 C 517.730469 212.308594 508.910156 220.679688 508.910156 237.238281 C 508.910156 243 509.8125 248.851562 513.140625 253.710938 C 515.480469 257.21875 519.890625 262.078125 532.761719 262.078125 C 551.839844 262.078125 556.972656 250.558594 556.972656 237.058594 M 541.402344 236.96875 C 541.402344 244.351562 540.410156 252.539062 532.941406 252.539062 C 530.601562 252.539062 528.980469 251.460938 527.902344 250.46875 C 526.371094 248.941406 524.660156 245.878906 524.660156 237.148438 C 524.660156 234.539062 524.660156 228.78125 526.460938 225.628906 C 527.8125 223.199219 530.152344 221.578125 533.03125 221.578125 C 535.550781 221.578125 537.621094 222.929688 538.792969 224.371094 C 540.953125 226.980469 541.402344 232.109375 541.402344 236.96875 Z M 591.53125 227.609375 L 594.050781 212.941406 L 593.511719 212.308594 C 592.882812 212.308594 592.25 212.21875 591.621094 212.21875 C 587.929688 212.21875 583.792969 214.289062 580.910156 220.949219 L 581.179688 212.671875 L 580.460938 211.949219 C 573.800781 213.390625 572.089844 213.660156 565.519531 214.648438 L 564.980469 215.191406 C 565.519531 221.941406 565.792969 225.988281 565.792969 238.5 C 565.792969 245.878906 565.699219 253.261719 565.519531 260.730469 L 566.0625 261.269531 C 572.722656 261 574.160156 260.910156 581.359375 261 L 581.8125 260.371094 C 581.449219 253.078125 580.910156 242.910156 580.910156 236.699219 C 580.910156 232.648438 580.910156 226.710938 587.03125 226.710938 C 588.5625 226.710938 589.460938 227.25 590.722656 227.96875 Z M 615.5625 260.371094 C 615.109375 253.441406 614.75 248.128906 614.75 235.710938 C 614.75 228.058594 614.929688 220.320312 615.019531 212.671875 L 614.390625 211.949219 L 598.910156 214.648438 L 598.371094 215.191406 C 599.089844 222.03125 599.359375 225.179688 599.359375 237.960938 C 599.359375 247.769531 599.089844 253.261719 598.820312 260.640625 L 599.359375 261.269531 C 605.839844 261 607.640625 260.910156 614.929688 261 L 615.5625 260.371094 M 614.121094 203.308594 L 614.390625 191.070312 L 613.851562 190.53125 L 599.179688 192.328125 L 598.640625 192.960938 C 598.820312 196.199219 598.910156 198.089844 598.910156 200.25 C 598.910156 201.960938 598.910156 203.761719 598.820312 205.46875 L 599.449219 206.011719 C 605.570312 204.929688 607.28125 204.75 613.671875 203.941406 Z M 660.738281 248.039062 C 658.308594 249.480469 655.96875 250.921875 651.378906 250.921875 C 641.207031 250.921875 639.136719 242.460938 639.136719 237.058594 C 639.136719 230.488281 642.019531 222.929688 650.75 222.929688 C 654.707031 222.929688 656.867188 224.371094 659.570312 226.171875 L 660.46875 225.898438 C 660.828125 221.128906 660.917969 219.871094 661.636719 215.101562 L 661.1875 214.558594 C 657.226562 213.300781 653.808594 212.21875 648.589844 212.21875 C 627.4375 212.21875 623.296875 228.238281 623.296875 237.421875 C 623.296875 247.769531 628.699219 261.808594 648.949219 261.808594 C 653.71875 261.808594 656.777344 260.910156 660.558594 259.828125 L 661.097656 259.289062 L 661.457031 248.488281 Z M 707 197.28125 L 695.570312 197.460938 L 695.027344 198 C 695.390625 209.699219 695.660156 217.53125 695.660156 227.878906 C 695.660156 238.859375 695.390625 249.75 695.117188 260.730469 L 695.660156 261.269531 C 702.320312 261 703.757812 260.910156 710.960938 261 L 711.410156 260.460938 C 711.050781 250.648438 711.050781 248.398438 711.050781 239.21875 C 721.128906 239.308594 731.929688 239.308594 738.410156 231.390625 C 740.929688 228.328125 743.089844 223.199219 743.089844 216.898438 C 743.089844 213.03125 742.1875 204.480469 734.71875 200.25 C 729.320312 197.101562 721.667969 197.101562 714.917969 197.101562 L 707 197.28125 M 711.050781 208.171875 C 713.027344 208.078125 714.917969 208.078125 716.898438 208.078125 C 724.820312 208.261719 726.980469 212.308594 726.980469 217.53125 C 726.980469 218.789062 726.980469 224.011719 722.210938 226.621094 C 719.777344 227.96875 716.449219 228.148438 711.050781 228.148438 Z M 789.347656 234.179688 C 789.4375 226.078125 789.4375 222.570312 787.097656 218.789062 C 785.296875 215.910156 781.699219 212.308594 770.179688 212.308594 C 762.4375 212.308594 757.667969 213.75 752.539062 215.28125 L 752 216 L 751.546875 225.808594 L 752.269531 226.171875 C 755.417969 224.910156 761.269531 222.570312 767.296875 222.570312 C 770.628906 222.570312 771.976562 223.109375 773.148438 224.28125 C 774.046875 225.179688 774.320312 226.800781 774.320312 228.148438 C 763.519531 229.589844 758.476562 230.578125 753.078125 233.910156 C 748.039062 237.058594 746.328125 242.191406 746.328125 246.238281 C 746.328125 255.871094 753.257812 262.078125 762.078125 262.078125 C 768.828125 262.078125 772.699219 258.839844 774.589844 257.308594 L 774.589844 260.640625 L 775.128906 261.269531 C 781.609375 261 783.589844 260.910156 789.4375 261 L 789.886719 260.371094 C 789.257812 251.550781 789.257812 249.300781 789.257812 240.839844 L 789.347656 234.179688 M 774.5 248.488281 C 772.609375 249.570312 770.179688 250.828125 767.207031 250.828125 C 763.96875 250.828125 761.269531 249.121094 761.269531 245.339844 C 761.269531 239.398438 768.378906 238.410156 774.5 237.601562 Z M 825.890625 227.609375 L 828.410156 212.941406 L 827.871094 212.308594 C 827.242188 212.308594 826.609375 212.21875 825.980469 212.21875 C 822.289062 212.21875 818.152344 214.289062 815.269531 220.949219 L 815.539062 212.671875 L 814.820312 211.949219 C 808.160156 213.390625 806.449219 213.660156 799.878906 214.648438 L 799.339844 215.191406 C 799.878906 221.941406 800.152344 225.988281 800.152344 238.5 C 800.152344 245.878906 800.058594 253.261719 799.878906 260.730469 L 800.421875 261.269531 C 807.082031 261 808.519531 260.910156 815.71875 261 L 816.171875 260.371094 C 815.808594 253.078125 815.269531 242.910156 815.269531 236.699219 C 815.269531 232.648438 815.269531 226.710938 821.390625 226.710938 C 822.921875 226.710938 823.820312 227.25 825.082031 227.96875 Z M 879.890625 259.828125 C 871.429688 245.519531 870.53125 243.898438 863.691406 231.570312 C 869.902344 223.109375 870.53125 222.210938 876.921875 214.019531 L 876.46875 213.121094 L 861.800781 213.300781 L 860.902344 213.929688 C 853.878906 226.078125 852.980469 227.519531 848.839844 233.730469 L 848.839844 223.738281 C 848.929688 206.910156 849.019531 203.308594 849.46875 189.71875 L 848.75 189.179688 L 833.089844 191.519531 L 832.550781 192.148438 C 833.179688 200.878906 833.449219 205.109375 833.628906 216.898438 C 833.808594 231.480469 833.808594 246.058594 833.71875 260.640625 L 834.351562 261.269531 C 840.378906 261 842.089844 261 848.929688 261 L 849.46875 260.371094 L 848.929688 245.160156 L 848.839844 234.808594 C 856.671875 249.210938 857.660156 251.191406 862.25 260.730469 L 863.058594 261.269531 L 879.261719 260.640625 Z M 878.808594 261 "/>
</svg>
