<?xml version="1.0" encoding="UTF-8"?>
<svg xmlns="http://www.w3.org/2000/svg" xmlns:xlink="http://www.w3.org/1999/xlink" width="975" height="1300" viewBox="0 0 975 1300">
<path fill-rule="nonzero" fill="rgb(98.823529%, 78.823529%, 9.019608%)" fill-opacity="1" d="M 50 50 L 925 50 L 925 290 L 50 290 Z M 50 50 "/>
<path fill-rule="nonzero" fill="rgb(34.901961%, 14.901961%, 14.901961%)" fill-opacity="1" d="M 284.179688 89.339844 L 284.71875 88.890625 L 285.351562 77.640625 L 284.898438 77.371094 L 240.351562 77.371094 L 239.71875 77.910156 L 239.089844 88.980469 L 239.539062 89.519531 L 254.210938 89.160156 C 254.300781 112.738281 254.300781 118.410156 253.582031 140.730469 L 254.121094 141.269531 C 260.78125 141 262.582031 140.910156 270.050781 140.910156 L 270.589844 140.371094 C 270.140625 127.769531 269.960938 115.171875 269.960938 102.480469 C 269.960938 97.53125 270.050781 94.738281 270.230469 88.980469 Z M 331.160156 114.179688 C 331.25 106.078125 331.25 102.570312 328.910156 98.789062 C 327.109375 95.910156 323.511719 92.308594 311.992188 92.308594 C 304.25 92.308594 299.480469 93.75 294.351562 95.28125 L 293.8125 96 L 293.359375 105.808594 L 294.082031 106.171875 C 297.230469 104.910156 303.082031 102.570312 309.109375 102.570312 C 312.441406 102.570312 313.789062 103.109375 314.960938 104.28125 C 315.859375 105.179688 316.132812 106.800781 316.132812 108.148438 C 305.332031 109.589844 300.289062 110.578125 294.890625 113.910156 C 289.851562 117.058594 288.140625 122.191406 288.140625 126.238281 C 288.140625 135.871094 295.070312 142.078125 303.890625 142.078125 C 310.640625 142.078125 314.511719 138.839844 316.402344 137.308594 L 316.402344 140.640625 L 316.941406 141.269531 C 323.421875 141 325.402344 140.910156 331.25 141 L 331.699219 140.371094 C 331.070312 131.550781 331.070312 129.300781 331.070312 120.839844 L 331.160156 114.179688 M 316.3125 128.488281 C 314.421875 129.570312 311.992188 130.828125 309.019531 130.828125 C 305.78125 130.828125 303.082031 129.121094 303.082031 125.339844 C 303.082031 119.398438 310.191406 118.410156 316.3125 117.601562 Z M 385.789062 140.371094 C 385.429688 132.988281 385.339844 130.46875 385.160156 121.109375 L 385.160156 114.359375 C 385.070312 105.808594 384.980469 100.859375 382.367188 97.078125 C 379.757812 93.390625 375.980469 92.21875 372.019531 92.21875 C 365.449219 92.21875 360.320312 95.371094 356.71875 97.53125 L 356.988281 69.808594 L 356.449219 69.179688 L 341.058594 71.609375 L 340.609375 72.148438 C 341.417969 80.878906 341.597656 84.121094 341.777344 95.730469 C 341.960938 103.019531 342.050781 110.308594 342.050781 117.601562 C 342.050781 126.511719 341.867188 131.820312 341.6875 140.640625 L 342.140625 141.269531 C 348.800781 140.910156 350.148438 140.910156 357.4375 140.910156 L 357.980469 140.371094 C 357.347656 126.871094 357.257812 122.820312 357.167969 106.890625 C 358.878906 105.71875 361.039062 104.191406 364.097656 104.191406 C 369.050781 104.191406 369.410156 109.320312 369.769531 112.921875 C 369.949219 115.710938 370.039062 128.488281 370.039062 131.820312 C 370.039062 134.789062 369.949219 137.671875 369.949219 140.640625 L 370.398438 141.269531 C 376.878906 140.910156 378.320312 140.910156 385.25 140.910156 Z M 441.859375 117.058594 C 441.859375 113.550781 441.859375 98.96875 429.257812 94.019531 C 425.296875 92.488281 420.617188 92.308594 418.277344 92.308594 C 402.617188 92.308594 393.796875 100.679688 393.796875 117.238281 C 393.796875 123 394.699219 128.851562 398.027344 133.710938 C 400.367188 137.21875 404.777344 142.078125 417.648438 142.078125 C 436.726562 142.078125 441.859375 130.558594 441.859375 117.058594 M 426.289062 116.96875 C 426.289062 124.351562 425.296875 132.539062 417.828125 132.539062 C 415.488281 132.539062 413.867188 131.460938 412.789062 130.46875 C 411.257812 128.941406 409.546875 125.878906 409.546875 117.148438 C 409.546875 114.539062 409.546875 108.78125 411.347656 105.628906 C 412.699219 103.199219 415.039062 101.578125 417.917969 101.578125 C 420.4375 101.578125 422.507812 102.929688 423.679688 104.371094 C 425.839844 106.980469 426.289062 112.109375 426.289062 116.96875 Z M 490.371094 127.679688 C 486.953125 129.480469 482.902344 131.550781 476.332031 131.550781 C 470.933594 131.550781 467.242188 129.839844 465.082031 126.601562 C 463.730469 124.710938 463.460938 122.910156 463.101562 121.109375 L 492.171875 120.570312 L 492.710938 119.941406 C 492.621094 115.53125 492.53125 111.03125 491.273438 106.53125 C 488.121094 95.910156 481.191406 93.75 478.132812 93.03125 C 475.882812 92.398438 473.8125 92.21875 471.742188 92.21875 C 457.613281 92.21875 448.25 101.488281 448.25 117.058594 C 448.25 121.289062 448.972656 125.699219 450.410156 128.851562 C 455.632812 141 467.871094 142.078125 474.351562 142.078125 C 481.820312 142.078125 485.0625 140.730469 489.832031 138.839844 L 490.371094 138.121094 L 491 127.949219 L 490.371094 127.679688 M 463.101562 111.570312 C 463.371094 108.78125 464 105 467.421875 102.839844 C 468.5 102.121094 469.761719 101.851562 471.023438 101.851562 C 473.992188 101.851562 475.792969 103.378906 476.78125 105 C 478.042969 106.980469 478.132812 109.140625 478.132812 111.210938 Z M 553.28125 102.300781 C 545.722656 99.148438 541.761719 97.53125 541.761719 93.480469 C 541.761719 90.691406 544.371094 87.179688 550.3125 87.179688 C 557.152344 87.179688 561.199219 89.96875 564.53125 92.21875 L 565.339844 91.859375 L 566.0625 80.070312 L 565.609375 79.441406 C 561.742188 77.820312 557.691406 76.109375 548.960938 76.109375 C 532.042969 76.109375 526.191406 85.648438 526.191406 95.28125 C 526.191406 106.171875 534.652344 110.128906 539.691406 112.558594 L 542.660156 113.910156 C 548.871094 116.519531 553.640625 118.769531 553.640625 123.539062 C 553.640625 126.960938 550.671875 131.011719 542.839844 131.011719 C 534.652344 131.011719 530.0625 127.410156 527.449219 125.339844 L 526.550781 125.609375 L 525.921875 138.300781 L 526.460938 139.019531 C 527.449219 139.378906 528.441406 139.828125 529.429688 140.101562 C 531.5 140.820312 536.8125 142.351562 543.5625 142.351562 C 546.261719 142.351562 553.101562 142.078125 558.5 139.558594 C 566.0625 135.871094 569.300781 129.03125 569.300781 121.378906 C 569.300781 116.25 567.320312 110.761719 562.550781 107.070312 C 560.121094 105.269531 557.78125 104.191406 555.621094 103.199219 Z M 603.050781 130.648438 C 601.519531 131.101562 600.4375 131.460938 598.910156 131.460938 C 594.320312 131.460938 593.960938 128.578125 593.777344 127.230469 C 593.507812 124.890625 593.507812 119.941406 593.597656 116.339844 L 593.777344 103.648438 L 601.878906 104.011719 L 602.417969 103.46875 L 603.320312 93.839844 L 602.777344 93.300781 L 593.777344 93.300781 L 594.050781 78.179688 L 593.417969 77.640625 C 587.300781 79.441406 585.679688 79.890625 579.289062 81.511719 L 578.929688 82.140625 L 579.019531 93.390625 L 574.160156 93.210938 L 573.621094 93.660156 L 572.808594 103.289062 L 573.347656 103.828125 L 579.019531 103.648438 L 578.75 117.960938 C 578.660156 120.210938 578.570312 122.460938 578.570312 124.800781 C 578.570312 133.078125 578.75 141.988281 592.789062 141.988281 C 596.300781 141.988281 599.089844 141.449219 602.238281 140.910156 L 602.871094 140.28125 L 603.769531 131.011719 Z M 649.757812 114.179688 C 649.847656 106.078125 649.847656 102.570312 647.507812 98.789062 C 645.707031 95.910156 642.109375 92.308594 630.589844 92.308594 C 622.847656 92.308594 618.078125 93.75 612.949219 95.28125 L 612.410156 96 L 611.957031 105.808594 L 612.679688 106.171875 C 615.828125 104.910156 621.679688 102.570312 627.707031 102.570312 C 631.039062 102.570312 632.386719 103.109375 633.558594 104.28125 C 634.457031 105.179688 634.730469 106.800781 634.730469 108.148438 C 623.929688 109.589844 618.886719 110.578125 613.488281 113.910156 C 608.449219 117.058594 606.738281 122.191406 606.738281 126.238281 C 606.738281 135.871094 613.667969 142.078125 622.488281 142.078125 C 629.238281 142.078125 633.109375 138.839844 635 137.308594 L 635 140.640625 L 635.539062 141.269531 C 642.019531 141 644 140.910156 649.847656 141 L 650.296875 140.371094 C 649.667969 131.550781 649.667969 129.300781 649.667969 120.839844 L 649.757812 114.179688 M 634.910156 128.488281 C 633.019531 129.570312 630.589844 130.828125 627.617188 130.828125 C 624.378906 130.828125 621.679688 129.121094 621.679688 125.339844 C 621.679688 119.398438 628.789062 118.410156 634.910156 117.601562 Z M 685.492188 130.648438 C 683.960938 131.101562 682.878906 131.460938 681.351562 131.460938 C 676.761719 131.460938 676.402344 128.578125 676.21875 127.230469 C 675.949219 124.890625 675.949219 119.941406 676.039062 116.339844 L 676.21875 103.648438 L 684.320312 104.011719 L 684.859375 103.46875 L 685.761719 93.839844 L 685.21875 93.300781 L 676.21875 93.300781 L 676.492188 78.179688 L 675.859375 77.640625 C 669.742188 79.441406 668.121094 79.890625 661.730469 81.511719 L 661.371094 82.140625 L 661.460938 93.390625 L 656.601562 93.210938 L 656.0625 93.660156 L 655.25 103.289062 L 655.789062 103.828125 L 661.460938 103.648438 L 661.191406 117.960938 C 661.101562 120.210938 661.011719 122.460938 661.011719 124.800781 C 661.011719 133.078125 661.191406 141.988281 675.230469 141.988281 C 678.742188 141.988281 681.53125 141.449219 684.679688 140.910156 L 685.3125 140.28125 L 686.210938 131.011719 Z M 732.109375 127.679688 C 728.691406 129.480469 724.640625 131.550781 718.070312 131.550781 C 712.671875 131.550781 708.980469 129.839844 706.820312 126.601562 C 705.46875 124.710938 705.199219 122.910156 704.839844 121.109375 L 733.910156 120.570312 L 734.449219 119.941406 C 734.359375 115.53125 734.269531 111.03125 733.011719 106.53125 C 729.859375 95.910156 722.929688 93.75 719.871094 93.03125 C 717.621094 92.398438 715.550781 92.21875 713.480469 92.21875 C 699.351562 92.21875 689.988281 101.488281 689.988281 117.058594 C 689.988281 121.289062 690.710938 125.699219 692.148438 128.851562 C 697.371094 141 709.609375 142.078125 716.089844 142.078125 C 723.558594 142.078125 726.800781 140.730469 731.570312 138.839844 L 732.109375 138.121094 L 732.738281 127.949219 L 732.109375 127.679688 M 704.839844 111.570312 C 705.109375 108.78125 705.738281 105 709.160156 102.839844 C 710.238281 102.121094 711.5 101.851562 712.761719 101.851562 C 715.730469 101.851562 717.53125 103.378906 718.519531 105 C 719.78125 106.980469 719.871094 109.140625 719.871094 111.210938 Z M 737.332031 141 "/>
<path fill-rule="nonzero" fill="rgb(34.901961%, 14.901961%, 14.901961%)" fill-opacity="1" d="M 180.769531 236.25 C 186.800781 246.511719 188.152344 249.210938 193.910156 261 L 194.632812 261.449219 C 197.421875 261.269531 200.121094 261.089844 202.910156 261 C 205.703125 260.910156 208.582031 260.820312 211.371094 260.820312 L 211.910156 259.738281 C 208.492188 255.328125 207.5 253.980469 201.019531 243.628906 C 198.140625 239.039062 196.703125 236.609375 194.453125 232.648438 C 198.5 230.851562 206.691406 227.070312 206.691406 215.640625 C 206.691406 211.679688 205.609375 203.488281 198.230469 199.621094 C 193.550781 197.191406 188.691406 197.101562 178.160156 197.28125 L 171.859375 197.371094 L 160.882812 197.371094 L 160.429688 197.910156 C 160.792969 207 161.152344 216.359375 161.152344 240.839844 C 161.152344 249.210938 161.0625 253.261719 160.792969 260.730469 L 161.332031 261.269531 C 167.902344 261 169.339844 260.910156 176.722656 261 L 177.261719 260.460938 C 176.542969 250.019531 176.453125 247.140625 176.359375 236.429688 L 180.769531 236.25 M 176.542969 208.261719 C 177.800781 208.171875 179.0625 208.171875 180.320312 208.171875 C 183.832031 208.171875 190.761719 208.171875 190.761719 216.089844 C 190.761719 218.609375 190.132812 221.941406 186.800781 224.011719 C 184.28125 225.539062 181.042969 225.71875 176.542969 225.808594 Z M 256.640625 247.679688 C 253.222656 249.480469 249.171875 251.550781 242.601562 251.550781 C 237.203125 251.550781 233.511719 249.839844 231.351562 246.601562 C 230 244.710938 229.730469 242.910156 229.371094 241.109375 L 258.441406 240.570312 L 258.980469 239.941406 C 258.890625 235.53125 258.800781 231.03125 257.542969 226.53125 C 254.390625 215.910156 247.460938 213.75 244.402344 213.03125 C 242.152344 212.398438 240.082031 212.21875 238.011719 212.21875 C 223.882812 212.21875 214.519531 221.488281 214.519531 237.058594 C 214.519531 241.289062 215.242188 245.699219 216.679688 248.851562 C 221.902344 261 234.140625 262.078125 240.621094 262.078125 C 248.089844 262.078125 251.332031 260.730469 256.101562 258.839844 L 256.640625 258.121094 L 257.269531 247.949219 L 256.640625 247.679688 M 229.371094 231.570312 C 229.640625 228.78125 230.269531 225 233.691406 222.839844 C 234.769531 222.121094 236.03125 221.851562 237.292969 221.851562 C 240.261719 221.851562 242.0625 223.378906 243.050781 225 C 244.3125 226.980469 244.402344 229.140625 244.402344 231.210938 Z M 302.449219 248.039062 C 300.019531 249.480469 297.679688 250.921875 293.089844 250.921875 C 282.917969 250.921875 280.847656 242.460938 280.847656 237.058594 C 280.847656 230.488281 283.730469 222.929688 292.460938 222.929688 C 296.417969 222.929688 298.578125 224.371094 301.28125 226.171875 L 302.179688 225.898438 C 302.539062 221.128906 302.628906 219.871094 303.347656 215.101562 L 302.898438 214.558594 C 298.9375 213.300781 295.519531 212.21875 290.300781 212.21875 C 269.148438 212.21875 265.007812 228.238281 265.007812 237.421875 C 265.007812 247.769531 270.410156 261.808594 290.660156 261.808594 C 295.429688 261.808594 298.488281 260.910156 302.269531 259.828125 L 302.808594 259.289062 L 303.167969 248.488281 Z M 336.382812 227.609375 L 338.902344 212.941406 L 338.363281 212.308594 C 337.734375 212.308594 337.101562 212.21875 336.472656 212.21875 C 332.78125 212.21875 328.644531 214.289062 325.761719 220.949219 L 326.03125 212.671875 L 325.3125 211.949219 C 318.652344 213.390625 316.941406 213.660156 310.371094 214.648438 L 309.832031 215.191406 C 310.371094 221.941406 310.644531 225.988281 310.644531 238.5 C 310.644531 245.878906 310.550781 253.261719 310.371094 260.730469 L 310.914062 261.269531 C 317.574219 261 319.011719 260.910156 326.210938 261 L 326.664062 260.371094 C 326.300781 253.078125 325.761719 242.910156 325.761719 236.699219 C 325.761719 232.648438 325.761719 226.710938 331.882812 226.710938 C 333.414062 226.710938 334.3125 227.25 335.574219 227.96875 Z M 384.082031 247.679688 C 380.664062 249.480469 376.613281 251.550781 370.042969 251.550781 C 364.644531 251.550781 360.953125 249.839844 358.792969 246.601562 C 357.441406 244.710938 357.171875 242.910156 356.8125 241.109375 L 385.882812 240.570312 L 386.421875 239.941406 C 386.332031 235.53125 386.242188 231.03125 384.984375 226.53125 C 381.832031 215.910156 374.902344 213.75 371.84375 213.03125 C 369.59375 212.398438 367.523438 212.21875 365.453125 212.21875 C 351.324219 212.21875 341.960938 221.488281 341.960938 237.058594 C 341.960938 241.289062 342.683594 245.699219 344.121094 248.851562 C 349.34375 261 361.582031 262.078125 368.0625 262.078125 C 375.53125 262.078125 378.773438 260.730469 383.542969 258.839844 L 384.082031 258.121094 L 384.710938 247.949219 L 384.082031 247.679688 M 356.8125 231.570312 C 357.082031 228.78125 357.710938 225 361.132812 222.839844 C 362.210938 222.121094 363.472656 221.851562 364.734375 221.851562 C 367.703125 221.851562 369.503906 223.378906 370.492188 225 C 371.753906 226.980469 371.84375 229.140625 371.84375 231.210938 Z M 434.75 234.179688 C 434.839844 226.078125 434.839844 222.570312 432.5 218.789062 C 430.699219 215.910156 427.101562 212.308594 415.582031 212.308594 C 407.839844 212.308594 403.070312 213.75 397.941406 215.28125 L 397.402344 216 L 396.949219 225.808594 L 397.671875 226.171875 C 400.820312 224.910156 406.671875 222.570312 412.699219 222.570312 C 416.03125 222.570312 417.378906 223.109375 418.550781 224.28125 C 419.449219 225.179688 419.722656 226.800781 419.722656 228.148438 C 408.921875 229.589844 403.878906 230.578125 398.480469 233.910156 C 393.441406 237.058594 391.730469 242.191406 391.730469 246.238281 C 391.730469 255.871094 398.660156 262.078125 407.480469 262.078125 C 414.230469 262.078125 418.101562 258.839844 419.992188 257.308594 L 419.992188 260.640625 L 420.53125 261.269531 C 427.011719 261 428.992188 260.910156 434.839844 261 L 435.289062 260.371094 C 434.660156 251.550781 434.660156 249.300781 434.660156 240.839844 L 434.75 234.179688 M 419.902344 248.488281 C 418.011719 249.570312 415.582031 250.828125 412.609375 250.828125 C 409.371094 250.828125 406.671875 249.121094 406.671875 245.339844 C 406.671875 239.398438 413.78125 238.410156 419.902344 237.601562 Z M 470.484375 250.648438 C 468.953125 251.101562 467.871094 251.460938 466.34375 251.460938 C 461.753906 251.460938 461.394531 248.578125 461.210938 247.230469 C 460.941406 244.890625 460.941406 239.941406 461.03125 236.339844 L 461.210938 223.648438 L 469.3125 224.011719 L 469.851562 223.46875 L 470.753906 213.839844 L 470.210938 213.300781 L 461.210938 213.300781 L 461.484375 198.179688 L 460.851562 197.640625 C 454.734375 199.441406 453.113281 199.890625 446.722656 201.511719 L 446.363281 202.140625 L 446.453125 213.390625 L 441.59375 213.210938 L 441.054688 213.660156 L 440.242188 223.289062 L 440.78125 223.828125 L 446.453125 223.648438 L 446.183594 237.960938 C 446.09375 240.210938 446.003906 242.460938 446.003906 244.800781 C 446.003906 253.078125 446.183594 261.988281 460.222656 261.988281 C 463.734375 261.988281 466.523438 261.449219 469.671875 260.910156 L 470.304688 260.28125 L 471.203125 251.011719 Z M 493.433594 260.371094 C 492.980469 253.441406 492.621094 248.128906 492.621094 235.710938 C 492.621094 228.058594 492.800781 220.320312 492.890625 212.671875 L 492.261719 211.949219 L 476.78125 214.648438 L 476.242188 215.191406 C 476.960938 222.03125 477.230469 225.179688 477.230469 237.960938 C 477.230469 247.769531 476.960938 253.261719 476.691406 260.640625 L 477.230469 261.269531 C 483.710938 261 485.511719 260.910156 492.800781 261 L 493.433594 260.371094 M 491.992188 203.308594 L 492.261719 191.070312 L 491.722656 190.53125 L 477.050781 192.328125 L 476.511719 192.960938 C 476.691406 196.199219 476.78125 198.089844 476.78125 200.25 C 476.78125 201.960938 476.78125 203.761719 476.691406 205.46875 L 477.320312 206.011719 C 483.441406 204.929688 485.152344 204.75 491.542969 203.941406 Z M 549.230469 237.058594 C 549.230469 233.550781 549.230469 218.96875 536.628906 214.019531 C 532.667969 212.488281 527.988281 212.308594 525.648438 212.308594 C 509.988281 212.308594 501.167969 220.679688 501.167969 237.238281 C 501.167969 243 502.070312 248.851562 505.398438 253.710938 C 507.738281 257.21875 512.148438 262.078125 525.019531 262.078125 C 544.097656 262.078125 549.230469 250.558594 549.230469 237.058594 M 533.660156 236.96875 C 533.660156 244.351562 532.667969 252.539062 525.199219 252.539062 C 522.859375 252.539062 521.238281 251.460938 520.160156 250.46875 C 518.628906 248.941406 516.917969 245.878906 516.917969 237.148438 C 516.917969 234.539062 516.917969 228.78125 518.71875 225.628906 C 520.070312 223.199219 522.410156 221.578125 525.289062 221.578125 C 527.808594 221.578125 529.878906 222.929688 531.050781 224.371094 C 533.210938 226.980469 533.660156 232.109375 533.660156 236.96875 Z M 601.882812 260.371094 C 601.433594 252.449219 601.433594 249.929688 601.253906 241.109375 L 601.253906 234.089844 C 601.164062 225.449219 601.074219 221.308594 598.824219 217.621094 C 596.03125 212.941406 590.902344 212.21875 587.664062 212.21875 C 582.171875 212.21875 577.402344 215.101562 573.261719 217.53125 L 573.441406 212.578125 L 572.542969 211.949219 C 565.613281 213.390625 564.082031 213.660156 557.332031 214.558594 L 556.792969 215.191406 C 557.511719 223.019531 558.054688 228.691406 558.054688 243.359375 C 558.054688 249.121094 557.960938 254.878906 557.871094 260.640625 L 558.414062 261.179688 C 564.894531 260.910156 566.242188 260.910156 573.441406 260.910156 L 573.984375 260.371094 C 573.441406 246.511719 573.351562 243 573.261719 226.890625 C 575.152344 225.628906 577.3125 224.101562 580.191406 224.101562 C 585.144531 224.101562 585.59375 229.410156 585.863281 232.648438 C 586.042969 235.621094 586.132812 247.949219 586.132812 251.371094 C 586.132812 254.429688 586.042969 257.578125 586.042969 260.640625 L 586.582031 261.179688 C 592.523438 261 594.054688 260.910156 601.253906 260.910156 Z M 674.78125 197.191406 C 666.140625 197.460938 664.339844 197.460938 654.710938 197.460938 L 654.078125 198 C 649.308594 213.300781 646.429688 222.390625 633.199219 260.371094 L 633.558594 261 L 647.597656 261 L 648.230469 260.460938 L 652.640625 244.078125 L 672.078125 244.078125 L 675.949219 260.730469 L 676.578125 261.269531 C 683.148438 261 684.949219 260.910156 692.238281 261 L 692.691406 260.28125 C 681.800781 221.761719 680.539062 217.53125 675.410156 197.730469 L 674.78125 197.191406 M 655.789062 233.191406 L 660.289062 217.980469 L 663.441406 207.449219 L 666.140625 219.148438 L 669.46875 233.191406 Z M 724.460938 227.609375 L 726.980469 212.941406 L 726.441406 212.308594 C 725.8125 212.308594 725.179688 212.21875 724.550781 212.21875 C 720.859375 212.21875 716.722656 214.289062 713.839844 220.949219 L 714.109375 212.671875 L 713.390625 211.949219 C 706.730469 213.390625 705.019531 213.660156 698.449219 214.648438 L 697.910156 215.191406 C 698.449219 221.941406 698.722656 225.988281 698.722656 238.5 C 698.722656 245.878906 698.628906 253.261719 698.449219 260.730469 L 698.992188 261.269531 C 705.652344 261 707.089844 260.910156 714.289062 261 L 714.742188 260.371094 C 714.378906 253.078125 713.839844 242.910156 713.839844 236.699219 C 713.839844 232.648438 713.839844 226.710938 719.960938 226.710938 C 721.492188 226.710938 722.390625 227.25 723.652344 227.96875 Z M 772.160156 247.679688 C 768.742188 249.480469 764.691406 251.550781 758.121094 251.550781 C 752.722656 251.550781 749.03125 249.839844 746.871094 246.601562 C 745.519531 244.710938 745.25 242.910156 744.890625 241.109375 L 773.960938 240.570312 L 774.5 239.941406 C 774.410156 235.53125 774.320312 231.03125 773.0625 226.53125 C 769.910156 215.910156 762.980469 213.75 759.921875 213.03125 C 757.671875 212.398438 755.601562 212.21875 753.53125 212.21875 C 739.402344 212.21875 730.039062 221.488281 730.039062 237.058594 C 730.039062 241.289062 730.761719 245.699219 732.199219 248.851562 C 737.421875 261 749.660156 262.078125 756.140625 262.078125 C 763.609375 262.078125 766.851562 260.730469 771.621094 258.839844 L 772.160156 258.121094 L 772.789062 247.949219 L 772.160156 247.679688 M 744.890625 231.570312 C 745.160156 228.78125 745.789062 225 749.210938 222.839844 C 750.289062 222.121094 751.550781 221.851562 752.8125 221.851562 C 755.78125 221.851562 757.582031 223.378906 758.570312 225 C 759.832031 226.980469 759.921875 229.140625 759.921875 231.210938 Z M 822.832031 234.179688 C 822.921875 226.078125 822.921875 222.570312 820.582031 218.789062 C 818.78125 215.910156 815.183594 212.308594 803.664062 212.308594 C 795.921875 212.308594 791.152344 213.75 786.023438 215.28125 L 785.484375 216 L 785.03125 225.808594 L 785.753906 226.171875 C 788.902344 224.910156 794.753906 222.570312 800.78125 222.570312 C 804.113281 222.570312 805.460938 223.109375 806.632812 224.28125 C 807.53125 225.179688 807.804688 226.800781 807.804688 228.148438 C 797.003906 229.589844 791.960938 230.578125 786.5625 233.910156 C 781.523438 237.058594 779.8125 242.191406 779.8125 246.238281 C 779.8125 255.871094 786.742188 262.078125 795.5625 262.078125 C 802.3125 262.078125 806.183594 258.839844 808.074219 257.308594 L 808.074219 260.640625 L 808.613281 261.269531 C 815.09375 261 817.074219 260.910156 822.921875 261 L 823.371094 260.371094 C 822.742188 251.550781 822.742188 249.300781 822.742188 240.839844 L 822.832031 234.179688 M 807.984375 248.488281 C 806.09375 249.570312 803.664062 250.828125 800.691406 250.828125 C 797.453125 250.828125 794.753906 249.121094 794.753906 245.339844 C 794.753906 239.398438 801.863281 238.410156 807.984375 237.601562 Z M 827.960938 261 "/>
</svg>
