<?xml version="1.0" encoding="UTF-8"?>
<svg xmlns="http://www.w3.org/2000/svg" xmlns:xlink="http://www.w3.org/1999/xlink" width="975" height="1300" viewBox="0 0 975 1300">
<path fill-rule="nonzero" fill="rgb(98.823529%, 78.823529%, 9.019608%)" fill-opacity="1" d="M 50 50 L 925 50 L 925 290 L 50 290 Z M 50 50 "/>
<path fill-rule="nonzero" fill="rgb(34.901961%, 14.901961%, 14.901961%)" fill-opacity="1" d="M 153.1875 128.851562 C 142.566406 129.390625 140.046875 129.480469 128.527344 129.480469 L 128.347656 113.730469 L 149.40625 113.730469 L 150.035156 113.191406 L 150.578125 103.019531 L 150.125 102.480469 L 128.347656 102.839844 L 128.347656 88.53125 C 138.515625 88.53125 140.585938 88.53125 151.476562 88.800781 L 151.925781 88.261719 L 152.554688 77.820312 L 152.105469 77.460938 L 112.597656 77.460938 L 112.054688 78 C 112.597656 86.730469 112.777344 90.058594 112.777344 114.179688 C 112.777344 125.519531 112.597656 131.191406 112.328125 140.640625 L 112.777344 141 L 152.375 141 L 153.097656 140.460938 L 153.726562 129.480469 Z M 232.746094 140.371094 C 232.292969 132 232.203125 129.660156 232.203125 119.488281 L 232.203125 112.738281 C 232.292969 106.710938 232.382812 101.128906 229.773438 97.351562 C 226.265625 92.21875 220.054688 92.21875 218.613281 92.21875 C 211.234375 92.21875 206.285156 95.550781 202.683594 98.070312 C 201.425781 96 199.175781 92.21875 191.976562 92.21875 C 186.035156 92.21875 182.164062 94.921875 178.023438 97.800781 L 178.023438 92.761719 L 177.214844 91.949219 C 170.195312 93.300781 168.214844 93.660156 161.914062 94.558594 L 161.375 95.191406 C 162.09375 102.390625 162.632812 107.339844 162.632812 125.160156 C 162.632812 130.289062 162.542969 135.511719 162.542969 140.640625 L 162.996094 141.179688 C 168.753906 141 170.734375 140.910156 178.203125 140.910156 L 178.746094 140.371094 C 178.113281 126.511719 178.023438 122.371094 177.933594 106.710938 C 179.824219 105.359375 181.894531 104.191406 184.144531 104.191406 C 189.726562 104.191406 189.90625 110.578125 189.90625 118.320312 C 189.90625 131.371094 189.816406 133.351562 189.632812 140.640625 L 190.175781 141.269531 C 197.015625 140.910156 198.90625 140.910156 205.113281 140.910156 L 205.65625 140.371094 C 205.113281 131.820312 205.023438 129.300781 204.933594 118.410156 L 204.933594 115.078125 L 204.84375 105.988281 C 206.375 105 208.355469 103.738281 211.054688 103.738281 C 216.183594 103.738281 216.996094 108.601562 216.996094 116.339844 C 216.996094 118.050781 216.90625 119.761719 216.90625 121.46875 C 216.816406 124.53125 216.726562 137.941406 216.632812 140.640625 L 217.175781 141.179688 C 223.925781 140.910156 225.90625 140.910156 232.203125 140.910156 Z M 283.054688 127.679688 C 279.636719 129.480469 275.585938 131.550781 269.015625 131.550781 C 263.617188 131.550781 259.925781 129.839844 257.765625 126.601562 C 256.414062 124.710938 256.144531 122.910156 255.785156 121.109375 L 284.855469 120.570312 L 285.394531 119.941406 C 285.304688 115.53125 285.214844 111.03125 283.957031 106.53125 C 280.804688 95.910156 273.875 93.75 270.816406 93.03125 C 268.566406 92.398438 266.496094 92.21875 264.425781 92.21875 C 250.296875 92.21875 240.933594 101.488281 240.933594 117.058594 C 240.933594 121.289062 241.65625 125.699219 243.09375 128.851562 C 248.316406 141 260.554688 142.078125 267.035156 142.078125 C 274.503906 142.078125 277.746094 140.730469 282.515625 138.839844 L 283.054688 138.121094 L 283.683594 127.949219 L 283.054688 127.679688 M 255.785156 111.570312 C 256.054688 108.78125 256.683594 105 260.105469 102.839844 C 261.183594 102.121094 262.445312 101.851562 263.707031 101.851562 C 266.675781 101.851562 268.476562 103.378906 269.464844 105 C 270.726562 106.980469 270.816406 109.140625 270.816406 111.210938 Z M 319.6875 107.609375 L 322.207031 92.941406 L 321.667969 92.308594 C 321.039062 92.308594 320.40625 92.21875 319.777344 92.21875 C 316.085938 92.21875 311.949219 94.289062 309.066406 100.949219 L 309.335938 92.671875 L 308.617188 91.949219 C 301.957031 93.390625 300.246094 93.660156 293.675781 94.648438 L 293.136719 95.191406 C 293.675781 101.941406 293.949219 105.988281 293.949219 118.5 C 293.949219 125.878906 293.855469 133.261719 293.675781 140.730469 L 294.21875 141.269531 C 300.878906 141 302.316406 140.910156 309.515625 141 L 309.96875 140.371094 C 309.605469 133.078125 309.066406 122.910156 309.066406 116.699219 C 309.066406 112.648438 309.066406 106.710938 315.1875 106.710938 C 316.71875 106.710938 317.617188 107.25 318.878906 107.96875 Z M 367.476562 114.179688 C 367.566406 106.078125 367.566406 102.570312 365.226562 98.789062 C 363.425781 95.910156 359.828125 92.308594 348.308594 92.308594 C 340.566406 92.308594 335.796875 93.75 330.667969 95.28125 L 330.128906 96 L 329.675781 105.808594 L 330.398438 106.171875 C 333.546875 104.910156 339.398438 102.570312 345.425781 102.570312 C 348.757812 102.570312 350.105469 103.109375 351.277344 104.28125 C 352.175781 105.179688 352.449219 106.800781 352.449219 108.148438 C 341.648438 109.589844 336.605469 110.578125 331.207031 113.910156 C 326.167969 117.058594 324.457031 122.191406 324.457031 126.238281 C 324.457031 135.871094 331.386719 142.078125 340.207031 142.078125 C 346.957031 142.078125 350.828125 138.839844 352.71875 137.308594 L 352.71875 140.640625 L 353.257812 141.269531 C 359.738281 141 361.71875 140.910156 367.566406 141 L 368.015625 140.371094 C 367.386719 131.550781 367.386719 129.300781 367.386719 120.839844 L 367.476562 114.179688 M 352.628906 128.488281 C 350.738281 129.570312 348.308594 130.828125 345.335938 130.828125 C 342.097656 130.828125 339.398438 129.121094 339.398438 125.339844 C 339.398438 119.398438 346.507812 118.410156 352.628906 117.601562 Z M 393.84375 140.371094 C 393.394531 130.019531 392.945312 120.570312 392.945312 92.128906 C 392.945312 83.578125 393.035156 79.53125 393.394531 69.808594 L 392.765625 69.179688 L 377.375 71.609375 L 377.015625 72.148438 C 377.914062 83.128906 378.003906 86.101562 378.183594 100.679688 C 378.277344 105.988281 378.277344 111.300781 378.277344 116.609375 C 378.277344 126.328125 378.09375 131.730469 377.734375 140.640625 L 378.277344 141.269531 C 384.304688 141 386.734375 140.910156 393.304688 141 Z M 448.386719 140.460938 C 448.027344 132.359375 447.757812 126.960938 447.757812 115.171875 C 447.757812 91.410156 448.117188 81.601562 448.476562 69.71875 L 447.847656 69.179688 L 432.996094 71.519531 L 432.546875 72.058594 C 433.085938 80.519531 433.175781 82.769531 433.085938 93.03125 C 426.335938 92.851562 417.875 92.671875 411.035156 98.070312 C 404.738281 102.929688 402.125 110.398438 402.125 119.671875 C 402.125 126.691406 404.015625 133.710938 409.328125 138.121094 C 413.285156 141.359375 418.148438 142.078125 421.117188 142.078125 C 427.507812 142.078125 430.835938 139.109375 432.996094 137.21875 L 432.816406 140.730469 L 433.265625 141.269531 C 439.476562 141 441.1875 141 447.9375 141 L 448.386719 140.460938 M 433.085938 103.828125 C 433.175781 115.800781 433.085938 118.140625 432.816406 129.03125 C 431.015625 130.109375 429.214844 131.191406 426.695312 131.191406 C 417.964844 131.191406 417.964844 120.03125 417.964844 118.230469 C 417.964844 111.300781 419.945312 103.558594 430.027344 103.558594 C 431.015625 103.558594 431.828125 103.648438 433.085938 103.828125 Z M 501.667969 141 C 510.039062 141.179688 520.386719 141.359375 527.136719 136.679688 C 533.078125 132.449219 534.699219 126.511719 534.699219 121.46875 C 534.699219 115.710938 532.265625 110.398438 527.136719 107.878906 C 525.425781 106.980469 523.449219 106.621094 521.558594 106.261719 C 524.617188 105 528.21875 103.378906 530.558594 98.609375 C 531.546875 96.539062 531.996094 94.378906 531.996094 92.308594 C 531.996094 89.429688 531.277344 85.46875 528.398438 82.230469 C 524.617188 78.179688 518.765625 77.101562 509.949219 77.101562 C 506.886719 77.101562 501.398438 77.191406 498.335938 77.28125 L 485.738281 77.460938 L 485.199219 78 C 485.558594 86.640625 485.648438 89.96875 485.648438 102.390625 C 485.648438 115.171875 485.558594 127.859375 485.378906 140.640625 L 486.007812 141 L 501.667969 141 M 501.039062 113.640625 C 507.878906 113.460938 511.835938 113.460938 514.449219 114.988281 C 517.058594 116.609375 518.046875 119.488281 518.046875 122.371094 C 518.046875 126.421875 515.796875 128.941406 512.46875 130.109375 C 509.765625 131.011719 504.90625 131.011719 501.039062 130.921875 L 501.039062 113.640625 M 501.039062 87.179688 C 502.925781 87.179688 505.449219 87.089844 506.976562 87.089844 C 511.835938 87.089844 516.246094 88.800781 516.246094 94.648438 C 516.246094 99.421875 512.738281 101.398438 511.65625 101.941406 C 509.40625 102.929688 504.636719 102.929688 501.039062 102.929688 Z M 583.117188 114.179688 C 583.207031 106.078125 583.207031 102.570312 580.867188 98.789062 C 579.066406 95.910156 575.46875 92.308594 563.949219 92.308594 C 556.207031 92.308594 551.4375 93.75 546.308594 95.28125 L 545.769531 96 L 545.316406 105.808594 L 546.039062 106.171875 C 549.1875 104.910156 555.039062 102.570312 561.066406 102.570312 C 564.398438 102.570312 565.746094 103.109375 566.917969 104.28125 C 567.816406 105.179688 568.089844 106.800781 568.089844 108.148438 C 557.289062 109.589844 552.246094 110.578125 546.847656 113.910156 C 541.808594 117.058594 540.097656 122.191406 540.097656 126.238281 C 540.097656 135.871094 547.027344 142.078125 555.847656 142.078125 C 562.597656 142.078125 566.46875 138.839844 568.359375 137.308594 L 568.359375 140.640625 L 568.898438 141.269531 C 575.378906 141 577.359375 140.910156 583.207031 141 L 583.65625 140.371094 C 583.027344 131.550781 583.027344 129.300781 583.027344 120.839844 L 583.117188 114.179688 M 568.269531 128.488281 C 566.378906 129.570312 563.949219 130.828125 560.976562 130.828125 C 557.738281 130.828125 555.039062 129.121094 555.039062 125.339844 C 555.039062 119.398438 562.148438 118.410156 568.269531 117.601562 Z M 633.875 93.03125 L 621.367188 93.300781 L 620.644531 93.929688 C 619.117188 100.140625 618.757812 101.488281 616.597656 108.511719 L 614.257812 116.25 L 612.277344 123 L 610.566406 116.609375 L 607.957031 107.070312 L 604.355469 93.390625 L 603.636719 92.851562 C 596.617188 93.390625 595.085938 93.480469 587.707031 93.660156 L 587.257812 94.289062 C 590.496094 102.839844 598.867188 125.429688 604.445312 142.710938 C 600.757812 152.070312 600.035156 153.691406 595.984375 162.601562 L 596.4375 163.320312 C 598.6875 163.230469 601.207031 163.140625 603.546875 163.140625 C 605.796875 163.140625 608.136719 163.230469 610.386719 163.230469 L 611.015625 162.691406 C 615.964844 143.25 618.394531 135.691406 630.277344 104.371094 C 631.625 100.769531 632.976562 97.261719 634.234375 93.75 Z M 690.9375 102.300781 C 683.378906 99.148438 679.417969 97.53125 679.417969 93.480469 C 679.417969 90.691406 682.027344 87.179688 687.96875 87.179688 C 694.808594 87.179688 698.855469 89.96875 702.1875 92.21875 L 702.996094 91.859375 L 703.71875 80.070312 L 703.265625 79.441406 C 699.398438 77.820312 695.347656 76.109375 686.617188 76.109375 C 669.699219 76.109375 663.847656 85.648438 663.847656 95.28125 C 663.847656 106.171875 672.308594 110.128906 677.347656 112.558594 L 680.316406 113.910156 C 686.527344 116.519531 691.296875 118.769531 691.296875 123.539062 C 691.296875 126.960938 688.328125 131.011719 680.496094 131.011719 C 672.308594 131.011719 667.71875 127.410156 665.105469 125.339844 L 664.207031 125.609375 L 663.578125 138.300781 L 664.117188 139.019531 C 665.105469 139.378906 666.097656 139.828125 667.085938 140.101562 C 669.15625 140.820312 674.46875 142.351562 681.21875 142.351562 C 683.917969 142.351562 690.757812 142.078125 696.15625 139.558594 C 703.71875 135.871094 706.957031 129.03125 706.957031 121.378906 C 706.957031 116.25 704.976562 110.761719 700.207031 107.070312 C 697.777344 105.269531 695.4375 104.191406 693.277344 103.199219 Z M 740.707031 130.648438 C 739.175781 131.101562 738.09375 131.460938 736.566406 131.460938 C 731.976562 131.460938 731.617188 128.578125 731.433594 127.230469 C 731.164062 124.890625 731.164062 119.941406 731.253906 116.339844 L 731.433594 103.648438 L 739.535156 104.011719 L 740.074219 103.46875 L 740.976562 93.839844 L 740.433594 93.300781 L 731.433594 93.300781 L 731.707031 78.179688 L 731.074219 77.640625 C 724.957031 79.441406 723.335938 79.890625 716.945312 81.511719 L 716.585938 82.140625 L 716.675781 93.390625 L 711.816406 93.210938 L 711.277344 93.660156 L 710.464844 103.289062 L 711.003906 103.828125 L 716.675781 103.648438 L 716.40625 117.960938 C 716.316406 120.210938 716.226562 122.460938 716.226562 124.800781 C 716.226562 133.078125 716.40625 141.988281 730.445312 141.988281 C 733.957031 141.988281 736.746094 141.449219 739.894531 140.910156 L 740.527344 140.28125 L 741.425781 131.011719 Z M 787.414062 114.179688 C 787.503906 106.078125 787.503906 102.570312 785.164062 98.789062 C 783.363281 95.910156 779.765625 92.308594 768.246094 92.308594 C 760.503906 92.308594 755.734375 93.75 750.605469 95.28125 L 750.066406 96 L 749.613281 105.808594 L 750.335938 106.171875 C 753.484375 104.910156 759.335938 102.570312 765.363281 102.570312 C 768.695312 102.570312 770.042969 103.109375 771.214844 104.28125 C 772.113281 105.179688 772.386719 106.800781 772.386719 108.148438 C 761.585938 109.589844 756.542969 110.578125 751.144531 113.910156 C 746.105469 117.058594 744.394531 122.191406 744.394531 126.238281 C 744.394531 135.871094 751.324219 142.078125 760.144531 142.078125 C 766.894531 142.078125 770.765625 138.839844 772.65625 137.308594 L 772.65625 140.640625 L 773.195312 141.269531 C 779.675781 141 781.65625 140.910156 787.503906 141 L 787.953125 140.371094 C 787.324219 131.550781 787.324219 129.300781 787.324219 120.839844 L 787.414062 114.179688 M 772.566406 128.488281 C 770.675781 129.570312 768.246094 130.828125 765.273438 130.828125 C 762.035156 130.828125 759.335938 129.121094 759.335938 125.339844 C 759.335938 119.398438 766.445312 118.410156 772.566406 117.601562 Z M 823.148438 130.648438 C 821.617188 131.101562 820.535156 131.460938 819.007812 131.460938 C 814.417969 131.460938 814.058594 128.578125 813.875 127.230469 C 813.605469 124.890625 813.605469 119.941406 813.695312 116.339844 L 813.875 103.648438 L 821.976562 104.011719 L 822.515625 103.46875 L 823.417969 93.839844 L 822.875 93.300781 L 813.875 93.300781 L 814.148438 78.179688 L 813.515625 77.640625 C 807.398438 79.441406 805.777344 79.890625 799.386719 81.511719 L 799.027344 82.140625 L 799.117188 93.390625 L 794.257812 93.210938 L 793.71875 93.660156 L 792.90625 103.289062 L 793.445312 103.828125 L 799.117188 103.648438 L 798.847656 117.960938 C 798.757812 120.210938 798.667969 122.460938 798.667969 124.800781 C 798.667969 133.078125 798.847656 141.988281 812.886719 141.988281 C 816.398438 141.988281 819.1875 141.449219 822.335938 140.910156 L 822.96875 140.28125 L 823.867188 131.011719 Z M 869.765625 127.679688 C 866.347656 129.480469 862.296875 131.550781 855.726562 131.550781 C 850.328125 131.550781 846.636719 129.839844 844.476562 126.601562 C 843.125 124.710938 842.855469 122.910156 842.496094 121.109375 L 871.566406 120.570312 L 872.105469 119.941406 C 872.015625 115.53125 871.925781 111.03125 870.667969 106.53125 C 867.515625 95.910156 860.585938 93.75 857.527344 93.03125 C 855.277344 92.398438 853.207031 92.21875 851.136719 92.21875 C 837.007812 92.21875 827.644531 101.488281 827.644531 117.058594 C 827.644531 121.289062 828.367188 125.699219 829.804688 128.851562 C 835.027344 141 847.265625 142.078125 853.746094 142.078125 C 861.214844 142.078125 864.457031 140.730469 869.226562 138.839844 L 869.765625 138.121094 L 870.394531 127.949219 L 869.765625 127.679688 M 842.496094 111.570312 C 842.765625 108.78125 843.394531 105 846.816406 102.839844 C 847.894531 102.121094 849.15625 101.851562 850.417969 101.851562 C 853.386719 101.851562 855.1875 103.378906 856.175781 105 C 857.4375 106.980469 857.527344 109.140625 857.527344 111.210938 Z M 874.988281 141 "/>
<path fill-rule="nonzero" fill="rgb(34.901961%, 14.901961%, 14.901961%)" fill-opacity="1" d="M 411.53125 197.28125 L 400.101562 197.460938 L 399.558594 198 C 399.921875 209.699219 400.191406 217.53125 400.191406 227.878906 C 400.191406 238.859375 399.921875 249.75 399.648438 260.730469 L 400.191406 261.269531 C 406.851562 261 408.289062 260.910156 415.492188 261 L 415.941406 260.460938 C 415.582031 250.648438 415.582031 248.398438 415.582031 239.21875 C 425.660156 239.308594 436.460938 239.308594 442.941406 231.390625 C 445.460938 228.328125 447.621094 223.199219 447.621094 216.898438 C 447.621094 213.03125 446.71875 204.480469 439.25 200.25 C 433.851562 197.101562 426.199219 197.101562 419.449219 197.101562 L 411.53125 197.28125 M 415.582031 208.171875 C 417.558594 208.078125 419.449219 208.078125 421.429688 208.078125 C 429.351562 208.261719 431.511719 212.308594 431.511719 217.53125 C 431.511719 218.789062 431.511719 224.011719 426.742188 226.621094 C 424.308594 227.96875 420.980469 228.148438 415.582031 228.148438 Z M 493.878906 234.179688 C 493.96875 226.078125 493.96875 222.570312 491.628906 218.789062 C 489.828125 215.910156 486.230469 212.308594 474.710938 212.308594 C 466.96875 212.308594 462.199219 213.75 457.070312 215.28125 L 456.53125 216 L 456.078125 225.808594 L 456.800781 226.171875 C 459.949219 224.910156 465.800781 222.570312 471.828125 222.570312 C 475.160156 222.570312 476.507812 223.109375 477.679688 224.28125 C 478.578125 225.179688 478.851562 226.800781 478.851562 228.148438 C 468.050781 229.589844 463.007812 230.578125 457.609375 233.910156 C 452.570312 237.058594 450.859375 242.191406 450.859375 246.238281 C 450.859375 255.871094 457.789062 262.078125 466.609375 262.078125 C 473.359375 262.078125 477.230469 258.839844 479.121094 257.308594 L 479.121094 260.640625 L 479.660156 261.269531 C 486.140625 261 488.121094 260.910156 493.96875 261 L 494.417969 260.371094 C 493.789062 251.550781 493.789062 249.300781 493.789062 240.839844 L 493.878906 234.179688 M 479.03125 248.488281 C 477.140625 249.570312 474.710938 250.828125 471.738281 250.828125 C 468.5 250.828125 465.800781 249.121094 465.800781 245.339844 C 465.800781 239.398438 472.910156 238.410156 479.03125 237.601562 Z M 530.421875 227.609375 L 532.941406 212.941406 L 532.402344 212.308594 C 531.773438 212.308594 531.140625 212.21875 530.511719 212.21875 C 526.820312 212.21875 522.683594 214.289062 519.800781 220.949219 L 520.070312 212.671875 L 519.351562 211.949219 C 512.691406 213.390625 510.980469 213.660156 504.410156 214.648438 L 503.871094 215.191406 C 504.410156 221.941406 504.683594 225.988281 504.683594 238.5 C 504.683594 245.878906 504.589844 253.261719 504.410156 260.730469 L 504.953125 261.269531 C 511.613281 261 513.050781 260.910156 520.25 261 L 520.703125 260.371094 C 520.339844 253.078125 519.800781 242.910156 519.800781 236.699219 C 519.800781 232.648438 519.800781 226.710938 525.921875 226.710938 C 527.453125 226.710938 528.351562 227.25 529.613281 227.96875 Z M 584.421875 259.828125 C 575.960938 245.519531 575.0625 243.898438 568.222656 231.570312 C 574.433594 223.109375 575.0625 222.210938 581.453125 214.019531 L 581 213.121094 L 566.332031 213.300781 L 565.433594 213.929688 C 558.410156 226.078125 557.511719 227.519531 553.371094 233.730469 L 553.371094 223.738281 C 553.460938 206.910156 553.550781 203.308594 554 189.71875 L 553.28125 189.179688 L 537.621094 191.519531 L 537.082031 192.148438 C 537.710938 200.878906 537.980469 205.109375 538.160156 216.898438 C 538.339844 231.480469 538.339844 246.058594 538.25 260.640625 L 538.882812 261.269531 C 544.910156 261 546.621094 261 553.460938 261 L 554 260.371094 L 553.460938 245.160156 L 553.371094 234.808594 C 561.203125 249.210938 562.191406 251.191406 566.78125 260.730469 L 567.589844 261.269531 L 583.792969 260.640625 Z M 583.339844 261 "/>
</svg>
