<?xml version="1.0" encoding="UTF-8"?>
<svg xmlns="http://www.w3.org/2000/svg" xmlns:xlink="http://www.w3.org/1999/xlink" width="975" height="1300" viewBox="0 0 975 1300">
<path fill-rule="nonzero" fill="rgb(98.823529%, 78.823529%, 9.019608%)" fill-opacity="1" d="M 50 50 L 925 50 L 925 290 L 50 290 Z M 50 50 "/>
<path fill-rule="nonzero" fill="rgb(34.901961%, 14.901961%, 14.901961%)" fill-opacity="1" d="M 70.519531 77.28125 L 59.089844 77.460938 L 58.546875 78 C 58.910156 89.699219 59.179688 97.53125 59.179688 107.878906 C 59.179688 118.859375 58.910156 129.75 58.636719 140.730469 L 59.179688 141.269531 C 65.839844 141 67.277344 140.910156 74.480469 141 L 74.929688 140.460938 C 74.570312 130.648438 74.570312 128.398438 74.570312 119.21875 C 84.648438 119.308594 95.449219 119.308594 101.929688 111.390625 C 104.449219 108.328125 106.609375 103.199219 106.609375 96.898438 C 106.609375 93.03125 105.707031 84.480469 98.238281 80.25 C 92.839844 77.101562 85.1875 77.101562 78.4375 77.101562 L 70.519531 77.28125 M 74.570312 88.171875 C 76.546875 88.078125 78.4375 88.078125 80.417969 88.078125 C 88.339844 88.261719 90.5 92.308594 90.5 97.53125 C 90.5 98.789062 90.5 104.011719 85.730469 106.621094 C 83.296875 107.96875 79.96875 108.148438 74.570312 108.148438 Z M 128.65625 140.371094 C 128.207031 130.019531 127.757812 120.570312 127.757812 92.128906 C 127.757812 83.578125 127.847656 79.53125 128.207031 69.808594 L 127.578125 69.179688 L 112.1875 71.609375 L 111.828125 72.148438 C 112.726562 83.128906 112.816406 86.101562 112.996094 100.679688 C 113.089844 105.988281 113.089844 111.300781 113.089844 116.609375 C 113.089844 126.328125 112.90625 131.730469 112.546875 140.640625 L 113.089844 141.269531 C 119.117188 141 121.546875 140.910156 128.117188 141 Z M 182.300781 92.851562 L 167.628906 93.570312 L 167 94.109375 C 167.628906 104.28125 167.628906 118.679688 167.628906 120.121094 C 167.628906 122.730469 167.628906 124.171875 167.539062 127.769531 C 165.109375 129.390625 163.21875 130.738281 160.789062 130.738281 C 154.308594 130.738281 154.308594 123.898438 154.308594 118.589844 C 154.308594 116.339844 154.308594 114 154.398438 111.75 L 154.578125 93.570312 L 153.949219 92.851562 L 139.097656 93.570312 L 138.46875 94.109375 C 139.007812 101.671875 139.097656 104.191406 139.097656 113.28125 L 139.097656 119.578125 C 139.007812 129.390625 139.460938 133.53125 142.699219 137.308594 C 145.667969 140.640625 149.988281 142.078125 154.488281 142.078125 C 160.878906 142.078125 164.570312 139.199219 167.808594 136.679688 L 167.71875 140.730469 L 168.347656 141.269531 C 174.917969 141 176.898438 141 182.75 141 L 183.289062 140.460938 C 182.839844 134.070312 182.660156 130.648438 182.660156 118.949219 C 182.660156 110.488281 182.75 102.03125 182.929688 93.570312 Z M 263.75 140.371094 C 263.296875 132 263.207031 129.660156 263.207031 119.488281 L 263.207031 112.738281 C 263.296875 106.710938 263.386719 101.128906 260.777344 97.351562 C 257.269531 92.21875 251.058594 92.21875 249.617188 92.21875 C 242.238281 92.21875 237.289062 95.550781 233.6875 98.070312 C 232.429688 96 230.179688 92.21875 222.980469 92.21875 C 217.039062 92.21875 213.167969 94.921875 209.027344 97.800781 L 209.027344 92.761719 L 208.21875 91.949219 C 201.199219 93.300781 199.21875 93.660156 192.917969 94.558594 L 192.378906 95.191406 C 193.097656 102.390625 193.636719 107.339844 193.636719 125.160156 C 193.636719 130.289062 193.546875 135.511719 193.546875 140.640625 L 194 141.179688 C 199.757812 141 201.738281 140.910156 209.207031 140.910156 L 209.75 140.371094 C 209.117188 126.511719 209.027344 122.371094 208.9375 106.710938 C 210.828125 105.359375 212.898438 104.191406 215.148438 104.191406 C 220.730469 104.191406 220.910156 110.578125 220.910156 118.320312 C 220.910156 131.371094 220.820312 133.351562 220.636719 140.640625 L 221.179688 141.269531 C 228.019531 140.910156 229.910156 140.910156 236.117188 140.910156 L 236.660156 140.371094 C 236.117188 131.820312 236.027344 129.300781 235.9375 118.410156 L 235.9375 115.078125 L 235.847656 105.988281 C 237.378906 105 239.359375 103.738281 242.058594 103.738281 C 247.1875 103.738281 248 108.601562 248 116.339844 C 248 118.050781 247.910156 119.761719 247.910156 121.46875 C 247.820312 124.53125 247.730469 137.941406 247.636719 140.640625 L 248.179688 141.179688 C 254.929688 140.910156 256.910156 140.910156 263.207031 140.910156 Z M 314.148438 114.179688 C 314.238281 106.078125 314.238281 102.570312 311.898438 98.789062 C 310.097656 95.910156 306.5 92.308594 294.980469 92.308594 C 287.238281 92.308594 282.46875 93.75 277.339844 95.28125 L 276.800781 96 L 276.347656 105.808594 L 277.070312 106.171875 C 280.21875 104.910156 286.070312 102.570312 292.097656 102.570312 C 295.429688 102.570312 296.777344 103.109375 297.949219 104.28125 C 298.847656 105.179688 299.121094 106.800781 299.121094 108.148438 C 288.320312 109.589844 283.277344 110.578125 277.878906 113.910156 C 272.839844 117.058594 271.128906 122.191406 271.128906 126.238281 C 271.128906 135.871094 278.058594 142.078125 286.878906 142.078125 C 293.628906 142.078125 297.5 138.839844 299.390625 137.308594 L 299.390625 140.640625 L 299.929688 141.269531 C 306.410156 141 308.390625 140.910156 314.238281 141 L 314.6875 140.371094 C 314.058594 131.550781 314.058594 129.300781 314.058594 120.839844 L 314.148438 114.179688 M 299.300781 128.488281 C 297.410156 129.570312 294.980469 130.828125 292.007812 130.828125 C 288.769531 130.828125 286.070312 129.121094 286.070312 125.339844 C 286.070312 119.398438 293.179688 118.410156 299.300781 117.601562 Z M 343.578125 109.949219 C 340.515625 108.871094 338.085938 107.878906 338.085938 105.359375 C 338.085938 104.28125 338.808594 101.308594 344.386719 101.308594 C 349.878906 101.308594 353.386719 103.648438 355.636719 105.089844 L 356.449219 104.820312 L 357.347656 95.011719 L 356.898438 94.46875 C 352.667969 93.300781 348.976562 92.21875 343.128906 92.21875 C 338.71875 92.21875 329.898438 92.578125 325.21875 99.328125 C 324.046875 100.949219 322.789062 103.648438 322.789062 107.25 C 322.789062 116.878906 330.257812 119.761719 334.488281 121.378906 L 337.90625 122.640625 C 340.335938 123.449219 344.296875 124.800781 344.296875 128.039062 C 344.296875 130.289062 342.226562 132.71875 337.1875 132.71875 C 334.667969 132.71875 330.976562 131.910156 327.648438 130.199219 C 326.117188 129.390625 325.398438 128.761719 324.046875 127.679688 L 323.238281 128.039062 C 323.058594 132.71875 322.96875 133.710938 322.605469 138.210938 L 323.058594 139.019531 C 327.46875 140.640625 331.246094 142.078125 337.816406 142.078125 C 344.65625 142.078125 358.15625 140.820312 359.777344 127.949219 C 359.867188 127.230469 359.867188 126.601562 359.867188 125.96875 C 359.867188 116.070312 352.9375 113.460938 347.988281 111.570312 Z M 392.625 109.769531 C 388.308594 109.859375 384.796875 109.949219 379.488281 109.949219 C 375.167969 109.949219 370.847656 109.859375 366.617188 109.859375 L 365.988281 110.398438 L 365.445312 120.75 L 365.898438 121.289062 C 370.9375 121.199219 373.90625 121.109375 378.675781 121.109375 C 383.085938 121.109375 387.496094 121.199219 391.90625 121.199219 L 392.445312 120.660156 L 393.078125 110.21875 Z M 442.847656 128.851562 C 432.226562 129.390625 429.707031 129.480469 418.1875 129.480469 L 418.007812 113.730469 L 439.066406 113.730469 L 439.695312 113.191406 L 440.238281 103.019531 L 439.785156 102.480469 L 418.007812 102.839844 L 418.007812 88.53125 C 428.175781 88.53125 430.246094 88.53125 441.136719 88.800781 L 441.585938 88.261719 L 442.214844 77.820312 L 441.765625 77.460938 L 402.257812 77.460938 L 401.714844 78 C 402.257812 86.730469 402.4375 90.058594 402.4375 114.179688 C 402.4375 125.519531 402.257812 131.191406 401.988281 140.640625 L 402.4375 141 L 442.035156 141 L 442.757812 140.460938 L 443.386719 129.480469 Z M 495.320312 92.851562 L 480.648438 93.570312 L 480.019531 94.109375 C 480.648438 104.28125 480.648438 118.679688 480.648438 120.121094 C 480.648438 122.730469 480.648438 124.171875 480.558594 127.769531 C 478.128906 129.390625 476.238281 130.738281 473.808594 130.738281 C 467.328125 130.738281 467.328125 123.898438 467.328125 118.589844 C 467.328125 116.339844 467.328125 114 467.417969 111.75 L 467.597656 93.570312 L 466.96875 92.851562 L 452.117188 93.570312 L 451.488281 94.109375 C 452.027344 101.671875 452.117188 104.191406 452.117188 113.28125 L 452.117188 119.578125 C 452.027344 129.390625 452.480469 133.53125 455.71875 137.308594 C 458.6875 140.640625 463.007812 142.078125 467.507812 142.078125 C 473.898438 142.078125 477.589844 139.199219 480.828125 136.679688 L 480.738281 140.730469 L 481.367188 141.269531 C 487.9375 141 489.917969 141 495.769531 141 L 496.308594 140.460938 C 495.859375 134.070312 495.679688 130.648438 495.679688 118.949219 C 495.679688 110.488281 495.769531 102.03125 495.949219 93.570312 Z M 532.488281 107.609375 L 535.007812 92.941406 L 534.46875 92.308594 C 533.839844 92.308594 533.207031 92.21875 532.578125 92.21875 C 528.886719 92.21875 524.75 94.289062 521.867188 100.949219 L 522.136719 92.671875 L 521.417969 91.949219 C 514.757812 93.390625 513.046875 93.660156 506.476562 94.648438 L 505.9375 95.191406 C 506.476562 101.941406 506.75 105.988281 506.75 118.5 C 506.75 125.878906 506.65625 133.261719 506.476562 140.730469 L 507.019531 141.269531 C 513.679688 141 515.117188 140.910156 522.316406 141 L 522.769531 140.371094 C 522.40625 133.078125 521.867188 122.910156 521.867188 116.699219 C 521.867188 112.648438 521.867188 106.710938 527.988281 106.710938 C 529.519531 106.710938 530.417969 107.25 531.679688 107.96875 Z M 580.1875 127.679688 C 576.769531 129.480469 572.71875 131.550781 566.148438 131.550781 C 560.75 131.550781 557.058594 129.839844 554.898438 126.601562 C 553.546875 124.710938 553.277344 122.910156 552.917969 121.109375 L 581.988281 120.570312 L 582.527344 119.941406 C 582.4375 115.53125 582.347656 111.03125 581.089844 106.53125 C 577.9375 95.910156 571.007812 93.75 567.949219 93.03125 C 565.699219 92.398438 563.628906 92.21875 561.558594 92.21875 C 547.429688 92.21875 538.066406 101.488281 538.066406 117.058594 C 538.066406 121.289062 538.789062 125.699219 540.226562 128.851562 C 545.449219 141 557.6875 142.078125 564.167969 142.078125 C 571.636719 142.078125 574.878906 140.730469 579.648438 138.839844 L 580.1875 138.121094 L 580.816406 127.949219 L 580.1875 127.679688 M 552.917969 111.570312 C 553.1875 108.78125 553.816406 105 557.238281 102.839844 C 558.316406 102.121094 559.578125 101.851562 560.839844 101.851562 C 563.808594 101.851562 565.609375 103.378906 566.597656 105 C 567.859375 106.980469 567.949219 109.140625 567.949219 111.210938 Z M 637.070312 139.828125 C 628.609375 125.519531 627.710938 123.898438 620.871094 111.570312 C 627.082031 103.109375 627.710938 102.210938 634.101562 94.019531 L 633.648438 93.121094 L 618.980469 93.300781 L 618.082031 93.929688 C 611.058594 106.078125 610.160156 107.519531 606.019531 113.730469 L 606.019531 103.738281 C 606.109375 86.910156 606.199219 83.308594 606.648438 69.71875 L 605.929688 69.179688 L 590.269531 71.519531 L 589.730469 72.148438 C 590.359375 80.878906 590.628906 85.109375 590.808594 96.898438 C 590.988281 111.480469 590.988281 126.058594 590.898438 140.640625 L 591.53125 141.269531 C 597.558594 141 599.269531 141 606.109375 141 L 606.648438 140.371094 L 606.109375 125.160156 L 606.019531 114.808594 C 613.851562 129.210938 614.839844 131.191406 619.429688 140.730469 L 620.238281 141.269531 L 636.441406 140.640625 Z M 681.4375 114.179688 C 681.527344 106.078125 681.527344 102.570312 679.1875 98.789062 C 677.386719 95.910156 673.789062 92.308594 662.269531 92.308594 C 654.527344 92.308594 649.757812 93.75 644.628906 95.28125 L 644.089844 96 L 643.636719 105.808594 L 644.359375 106.171875 C 647.507812 104.910156 653.359375 102.570312 659.386719 102.570312 C 662.71875 102.570312 664.066406 103.109375 665.238281 104.28125 C 666.136719 105.179688 666.410156 106.800781 666.410156 108.148438 C 655.609375 109.589844 650.566406 110.578125 645.167969 113.910156 C 640.128906 117.058594 638.417969 122.191406 638.417969 126.238281 C 638.417969 135.871094 645.347656 142.078125 654.167969 142.078125 C 660.917969 142.078125 664.789062 138.839844 666.679688 137.308594 L 666.679688 140.640625 L 667.21875 141.269531 C 673.699219 141 675.679688 140.910156 681.527344 141 L 681.976562 140.371094 C 681.347656 131.550781 681.347656 129.300781 681.347656 120.839844 L 681.4375 114.179688 M 666.589844 128.488281 C 664.699219 129.570312 662.269531 130.828125 659.296875 130.828125 C 656.058594 130.828125 653.359375 129.121094 653.359375 125.339844 C 653.359375 119.398438 660.46875 118.410156 666.589844 117.601562 Z M 744.257812 102.300781 C 736.699219 99.148438 732.738281 97.53125 732.738281 93.480469 C 732.738281 90.691406 735.347656 87.179688 741.289062 87.179688 C 748.128906 87.179688 752.175781 89.96875 755.507812 92.21875 L 756.316406 91.859375 L 757.039062 80.070312 L 756.585938 79.441406 C 752.71875 77.820312 748.667969 76.109375 739.9375 76.109375 C 723.019531 76.109375 717.167969 85.648438 717.167969 95.28125 C 717.167969 106.171875 725.628906 110.128906 730.667969 112.558594 L 733.636719 113.910156 C 739.847656 116.519531 744.617188 118.769531 744.617188 123.539062 C 744.617188 126.960938 741.648438 131.011719 733.816406 131.011719 C 725.628906 131.011719 721.039062 127.410156 718.425781 125.339844 L 717.527344 125.609375 L 716.898438 138.300781 L 717.4375 139.019531 C 718.425781 139.378906 719.417969 139.828125 720.40625 140.101562 C 722.476562 140.820312 727.789062 142.351562 734.539062 142.351562 C 737.238281 142.351562 744.078125 142.078125 749.476562 139.558594 C 757.039062 135.871094 760.277344 129.03125 760.277344 121.378906 C 760.277344 116.25 758.296875 110.761719 753.527344 107.070312 C 751.097656 105.269531 748.757812 104.191406 746.597656 103.199219 Z M 794.03125 130.648438 C 792.5 131.101562 791.417969 131.460938 789.890625 131.460938 C 785.300781 131.460938 784.941406 128.578125 784.757812 127.230469 C 784.488281 124.890625 784.488281 119.941406 784.578125 116.339844 L 784.757812 103.648438 L 792.859375 104.011719 L 793.398438 103.46875 L 794.300781 93.839844 L 793.757812 93.300781 L 784.757812 93.300781 L 785.03125 78.179688 L 784.398438 77.640625 C 778.28125 79.441406 776.660156 79.890625 770.269531 81.511719 L 769.910156 82.140625 L 770 93.390625 L 765.140625 93.210938 L 764.601562 93.660156 L 763.789062 103.289062 L 764.328125 103.828125 L 770 103.648438 L 769.730469 117.960938 C 769.640625 120.210938 769.550781 122.460938 769.550781 124.800781 C 769.550781 133.078125 769.730469 141.988281 783.769531 141.988281 C 787.28125 141.988281 790.070312 141.449219 793.21875 140.910156 L 793.851562 140.28125 L 794.75 131.011719 Z M 840.738281 114.179688 C 840.828125 106.078125 840.828125 102.570312 838.488281 98.789062 C 836.6875 95.910156 833.089844 92.308594 821.570312 92.308594 C 813.828125 92.308594 809.058594 93.75 803.929688 95.28125 L 803.390625 96 L 802.9375 105.808594 L 803.660156 106.171875 C 806.808594 104.910156 812.660156 102.570312 818.6875 102.570312 C 822.019531 102.570312 823.367188 103.109375 824.539062 104.28125 C 825.4375 105.179688 825.710938 106.800781 825.710938 108.148438 C 814.910156 109.589844 809.867188 110.578125 804.46875 113.910156 C 799.429688 117.058594 797.71875 122.191406 797.71875 126.238281 C 797.71875 135.871094 804.648438 142.078125 813.46875 142.078125 C 820.21875 142.078125 824.089844 138.839844 825.980469 137.308594 L 825.980469 140.640625 L 826.519531 141.269531 C 833 141 834.980469 140.910156 840.828125 141 L 841.277344 140.371094 C 840.648438 131.550781 840.648438 129.300781 840.648438 120.839844 L 840.738281 114.179688 M 825.890625 128.488281 C 824 129.570312 821.570312 130.828125 818.597656 130.828125 C 815.359375 130.828125 812.660156 129.121094 812.660156 125.339844 C 812.660156 119.398438 819.769531 118.410156 825.890625 117.601562 Z M 876.46875 130.648438 C 874.9375 131.101562 873.855469 131.460938 872.328125 131.460938 C 867.738281 131.460938 867.378906 128.578125 867.195312 127.230469 C 866.925781 124.890625 866.925781 119.941406 867.015625 116.339844 L 867.195312 103.648438 L 875.296875 104.011719 L 875.835938 103.46875 L 876.738281 93.839844 L 876.195312 93.300781 L 867.195312 93.300781 L 867.46875 78.179688 L 866.835938 77.640625 C 860.71875 79.441406 859.097656 79.890625 852.707031 81.511719 L 852.347656 82.140625 L 852.4375 93.390625 L 847.578125 93.210938 L 847.039062 93.660156 L 846.226562 103.289062 L 846.765625 103.828125 L 852.4375 103.648438 L 852.167969 117.960938 C 852.078125 120.210938 851.988281 122.460938 851.988281 124.800781 C 851.988281 133.078125 852.167969 141.988281 866.207031 141.988281 C 869.71875 141.988281 872.507812 141.449219 875.65625 140.910156 L 876.289062 140.28125 L 877.1875 131.011719 Z M 923.089844 127.679688 C 919.671875 129.480469 915.621094 131.550781 909.050781 131.550781 C 903.652344 131.550781 899.960938 129.839844 897.800781 126.601562 C 896.449219 124.710938 896.179688 122.910156 895.820312 121.109375 L 924.890625 120.570312 L 925.429688 119.941406 C 925.339844 115.53125 925.25 111.03125 923.992188 106.53125 C 920.839844 95.910156 913.910156 93.75 910.851562 93.03125 C 908.601562 92.398438 906.53125 92.21875 904.460938 92.21875 C 890.332031 92.21875 880.96875 101.488281 880.96875 117.058594 C 880.96875 121.289062 881.691406 125.699219 883.128906 128.851562 C 888.351562 141 900.589844 142.078125 907.070312 142.078125 C 914.539062 142.078125 917.78125 140.730469 922.550781 138.839844 L 923.089844 138.121094 L 923.71875 127.949219 L 923.089844 127.679688 M 895.820312 111.570312 C 896.089844 108.78125 896.71875 105 900.140625 102.839844 C 901.21875 102.121094 902.480469 101.851562 903.742188 101.851562 C 906.710938 101.851562 908.511719 103.378906 909.5 105 C 910.761719 106.980469 910.851562 109.140625 910.851562 111.210938 Z M 928.308594 141 "/>
<path fill-rule="nonzero" fill="rgb(34.901961%, 14.901961%, 14.901961%)" fill-opacity="1" d="M 411.53125 197.28125 L 400.101562 197.460938 L 399.558594 198 C 399.921875 209.699219 400.191406 217.53125 400.191406 227.878906 C 400.191406 238.859375 399.921875 249.75 399.648438 260.730469 L 400.191406 261.269531 C 406.851562 261 408.289062 260.910156 415.492188 261 L 415.941406 260.460938 C 415.582031 250.648438 415.582031 248.398438 415.582031 239.21875 C 425.660156 239.308594 436.460938 239.308594 442.941406 231.390625 C 445.460938 228.328125 447.621094 223.199219 447.621094 216.898438 C 447.621094 213.03125 446.71875 204.480469 439.25 200.25 C 433.851562 197.101562 426.199219 197.101562 419.449219 197.101562 L 411.53125 197.28125 M 415.582031 208.171875 C 417.558594 208.078125 419.449219 208.078125 421.429688 208.078125 C 429.351562 208.261719 431.511719 212.308594 431.511719 217.53125 C 431.511719 218.789062 431.511719 224.011719 426.742188 226.621094 C 424.308594 227.96875 420.980469 228.148438 415.582031 228.148438 Z M 493.878906 234.179688 C 493.96875 226.078125 493.96875 222.570312 491.628906 218.789062 C 489.828125 215.910156 486.230469 212.308594 474.710938 212.308594 C 466.96875 212.308594 462.199219 213.75 457.070312 215.28125 L 456.53125 216 L 456.078125 225.808594 L 456.800781 226.171875 C 459.949219 224.910156 465.800781 222.570312 471.828125 222.570312 C 475.160156 222.570312 476.507812 223.109375 477.679688 224.28125 C 478.578125 225.179688 478.851562 226.800781 478.851562 228.148438 C 468.050781 229.589844 463.007812 230.578125 457.609375 233.910156 C 452.570312 237.058594 450.859375 242.191406 450.859375 246.238281 C 450.859375 255.871094 457.789062 262.078125 466.609375 262.078125 C 473.359375 262.078125 477.230469 258.839844 479.121094 257.308594 L 479.121094 260.640625 L 479.660156 261.269531 C 486.140625 261 488.121094 260.910156 493.96875 261 L 494.417969 260.371094 C 493.789062 251.550781 493.789062 249.300781 493.789062 240.839844 L 493.878906 234.179688 M 479.03125 248.488281 C 477.140625 249.570312 474.710938 250.828125 471.738281 250.828125 C 468.5 250.828125 465.800781 249.121094 465.800781 245.339844 C 465.800781 239.398438 472.910156 238.410156 479.03125 237.601562 Z M 530.421875 227.609375 L 532.941406 212.941406 L 532.402344 212.308594 C 531.773438 212.308594 531.140625 212.21875 530.511719 212.21875 C 526.820312 212.21875 522.683594 214.289062 519.800781 220.949219 L 520.070312 212.671875 L 519.351562 211.949219 C 512.691406 213.390625 510.980469 213.660156 504.410156 214.648438 L 503.871094 215.191406 C 504.410156 221.941406 504.683594 225.988281 504.683594 238.5 C 504.683594 245.878906 504.589844 253.261719 504.410156 260.730469 L 504.953125 261.269531 C 511.613281 261 513.050781 260.910156 520.25 261 L 520.703125 260.371094 C 520.339844 253.078125 519.800781 242.910156 519.800781 236.699219 C 519.800781 232.648438 519.800781 226.710938 525.921875 226.710938 C 527.453125 226.710938 528.351562 227.25 529.613281 227.96875 Z M 584.421875 259.828125 C 575.960938 245.519531 575.0625 243.898438 568.222656 231.570312 C 574.433594 223.109375 575.0625 222.210938 581.453125 214.019531 L 581 213.121094 L 566.332031 213.300781 L 565.433594 213.929688 C 558.410156 226.078125 557.511719 227.519531 553.371094 233.730469 L 553.371094 223.738281 C 553.460938 206.910156 553.550781 203.308594 554 189.71875 L 553.28125 189.179688 L 537.621094 191.519531 L 537.082031 192.148438 C 537.710938 200.878906 537.980469 205.109375 538.160156 216.898438 C 538.339844 231.480469 538.339844 246.058594 538.25 260.640625 L 538.882812 261.269531 C 544.910156 261 546.621094 261 553.460938 261 L 554 260.371094 L 553.460938 245.160156 L 553.371094 234.808594 C 561.203125 249.210938 562.191406 251.191406 566.78125 260.730469 L 567.589844 261.269531 L 583.792969 260.640625 Z M 583.339844 261 "/>
</svg>
