<?xml version="1.0" encoding="UTF-8"?>
<svg xmlns="http://www.w3.org/2000/svg" xmlns:xlink="http://www.w3.org/1999/xlink" width="975" height="1300" viewBox="0 0 975 1300">
<path fill-rule="nonzero" fill="rgb(98.823529%, 78.823529%, 9.019608%)" fill-opacity="1" d="M 50 50 L 925 50 L 925 290 L 50 290 Z M 50 50 "/>
<path fill-rule="nonzero" fill="rgb(34.901961%, 14.901961%, 14.901961%)" fill-opacity="1" d="M 86.496094 102.300781 C 78.9375 99.148438 74.976562 97.53125 74.976562 93.480469 C 74.976562 90.691406 77.585938 87.179688 83.527344 87.179688 C 90.367188 87.179688 94.414062 89.96875 97.746094 92.21875 L 98.554688 91.859375 L 99.277344 80.070312 L 98.824219 79.441406 C 94.957031 77.820312 90.90625 76.109375 82.175781 76.109375 C 65.257812 76.109375 59.40625 85.648438 59.40625 95.28125 C 59.40625 106.171875 67.867188 110.128906 72.90625 112.558594 L 75.875 113.910156 C 82.085938 116.519531 86.855469 118.769531 86.855469 123.539062 C 86.855469 126.960938 83.886719 131.011719 76.054688 131.011719 C 67.867188 131.011719 63.277344 127.410156 60.664062 125.339844 L 59.765625 125.609375 L 59.136719 138.300781 L 59.675781 139.019531 C 60.664062 139.378906 61.65625 139.828125 62.644531 140.101562 C 64.714844 140.820312 70.027344 142.351562 76.777344 142.351562 C 79.476562 142.351562 86.316406 142.078125 91.714844 139.558594 C 99.277344 135.871094 102.515625 129.03125 102.515625 121.378906 C 102.515625 116.25 100.535156 110.761719 95.765625 107.070312 C 93.335938 105.269531 90.996094 104.191406 88.835938 103.199219 Z M 151.113281 114.179688 C 151.203125 106.078125 151.203125 102.570312 148.863281 98.789062 C 147.0625 95.910156 143.464844 92.308594 131.945312 92.308594 C 124.203125 92.308594 119.433594 93.75 114.304688 95.28125 L 113.765625 96 L 113.3125 105.808594 L 114.035156 106.171875 C 117.183594 104.910156 123.035156 102.570312 129.0625 102.570312 C 132.394531 102.570312 133.742188 103.109375 134.914062 104.28125 C 135.8125 105.179688 136.085938 106.800781 136.085938 108.148438 C 125.285156 109.589844 120.242188 110.578125 114.84375 113.910156 C 109.804688 117.058594 108.09375 122.191406 108.09375 126.238281 C 108.09375 135.871094 115.023438 142.078125 123.84375 142.078125 C 130.59375 142.078125 134.464844 138.839844 136.355469 137.308594 L 136.355469 140.640625 L 136.894531 141.269531 C 143.375 141 145.355469 140.910156 151.203125 141 L 151.652344 140.371094 C 151.023438 131.550781 151.023438 129.300781 151.023438 120.839844 L 151.113281 114.179688 M 136.265625 128.488281 C 134.375 129.570312 131.945312 130.828125 128.972656 130.828125 C 125.734375 130.828125 123.035156 129.121094 123.035156 125.339844 C 123.035156 119.398438 130.144531 118.410156 136.265625 117.601562 Z M 205.746094 140.371094 C 205.296875 132.449219 205.296875 129.929688 205.117188 121.109375 L 205.117188 114.089844 C 205.027344 105.449219 204.9375 101.308594 202.6875 97.621094 C 199.894531 92.941406 194.765625 92.21875 191.527344 92.21875 C 186.035156 92.21875 181.265625 95.101562 177.125 97.53125 L 177.304688 92.578125 L 176.40625 91.949219 C 169.476562 93.390625 167.945312 93.660156 161.195312 94.558594 L 160.65625 95.191406 C 161.375 103.019531 161.917969 108.691406 161.917969 123.359375 C 161.917969 129.121094 161.824219 134.878906 161.734375 140.640625 L 162.277344 141.179688 C 168.757812 140.910156 170.105469 140.910156 177.304688 140.910156 L 177.847656 140.371094 C 177.304688 126.511719 177.214844 123 177.125 106.890625 C 179.015625 105.628906 181.175781 104.101562 184.054688 104.101562 C 189.007812 104.101562 189.457031 109.410156 189.726562 112.648438 C 189.90625 115.621094 189.996094 127.949219 189.996094 131.371094 C 189.996094 134.429688 189.90625 137.578125 189.90625 140.640625 L 190.445312 141.179688 C 196.386719 141 197.917969 140.910156 205.117188 140.910156 Z M 259.027344 141 C 267.398438 141.179688 277.746094 141.359375 284.496094 136.679688 C 290.4375 132.449219 292.058594 126.511719 292.058594 121.46875 C 292.058594 115.710938 289.625 110.398438 284.496094 107.878906 C 282.785156 106.980469 280.808594 106.621094 278.917969 106.261719 C 281.976562 105 285.578125 103.378906 287.917969 98.609375 C 288.90625 96.539062 289.355469 94.378906 289.355469 92.308594 C 289.355469 89.429688 288.636719 85.46875 285.757812 82.230469 C 281.976562 78.179688 276.125 77.101562 267.308594 77.101562 C 264.246094 77.101562 258.757812 77.191406 255.695312 77.28125 L 243.097656 77.460938 L 242.558594 78 C 242.917969 86.640625 243.007812 89.96875 243.007812 102.390625 C 243.007812 115.171875 242.917969 127.859375 242.738281 140.640625 L 243.367188 141 L 259.027344 141 M 258.398438 113.640625 C 265.238281 113.460938 269.195312 113.460938 271.808594 114.988281 C 274.417969 116.609375 275.40625 119.488281 275.40625 122.371094 C 275.40625 126.421875 273.15625 128.941406 269.828125 130.109375 C 267.125 131.011719 262.265625 131.011719 258.398438 130.921875 L 258.398438 113.640625 M 258.398438 87.179688 C 260.285156 87.179688 262.808594 87.089844 264.335938 87.089844 C 269.195312 87.089844 273.605469 88.800781 273.605469 94.648438 C 273.605469 99.421875 270.097656 101.398438 269.015625 101.941406 C 266.765625 102.929688 261.996094 102.929688 258.398438 102.929688 Z M 326.4375 107.609375 L 328.957031 92.941406 L 328.417969 92.308594 C 327.789062 92.308594 327.15625 92.21875 326.527344 92.21875 C 322.835938 92.21875 318.699219 94.289062 315.816406 100.949219 L 316.085938 92.671875 L 315.367188 91.949219 C 308.707031 93.390625 306.996094 93.660156 300.425781 94.648438 L 299.886719 95.191406 C 300.425781 101.941406 300.699219 105.988281 300.699219 118.5 C 300.699219 125.878906 300.605469 133.261719 300.425781 140.730469 L 300.96875 141.269531 C 307.628906 141 309.066406 140.910156 316.265625 141 L 316.71875 140.371094 C 316.355469 133.078125 315.816406 122.910156 315.816406 116.699219 C 315.816406 112.648438 315.816406 106.710938 321.9375 106.710938 C 323.46875 106.710938 324.367188 107.25 325.628906 107.96875 Z M 377.378906 92.851562 L 362.707031 93.570312 L 362.078125 94.109375 C 362.707031 104.28125 362.707031 118.679688 362.707031 120.121094 C 362.707031 122.730469 362.707031 124.171875 362.617188 127.769531 C 360.1875 129.390625 358.296875 130.738281 355.867188 130.738281 C 349.386719 130.738281 349.386719 123.898438 349.386719 118.589844 C 349.386719 116.339844 349.386719 114 349.476562 111.75 L 349.65625 93.570312 L 349.027344 92.851562 L 334.175781 93.570312 L 333.546875 94.109375 C 334.085938 101.671875 334.175781 104.191406 334.175781 113.28125 L 334.175781 119.578125 C 334.085938 129.390625 334.539062 133.53125 337.777344 137.308594 C 340.746094 140.640625 345.066406 142.078125 349.566406 142.078125 C 355.957031 142.078125 359.648438 139.199219 362.886719 136.679688 L 362.796875 140.730469 L 363.425781 141.269531 C 369.996094 141 371.976562 141 377.828125 141 L 378.367188 140.460938 C 377.917969 134.070312 377.738281 130.648438 377.738281 118.949219 C 377.738281 110.488281 377.828125 102.03125 378.007812 93.570312 Z M 432.636719 140.371094 C 432.1875 132.449219 432.1875 129.929688 432.007812 121.109375 L 432.007812 114.089844 C 431.917969 105.449219 431.828125 101.308594 429.578125 97.621094 C 426.785156 92.941406 421.65625 92.21875 418.417969 92.21875 C 412.925781 92.21875 408.15625 95.101562 404.015625 97.53125 L 404.195312 92.578125 L 403.296875 91.949219 C 396.367188 93.390625 394.835938 93.660156 388.085938 94.558594 L 387.546875 95.191406 C 388.265625 103.019531 388.808594 108.691406 388.808594 123.359375 C 388.808594 129.121094 388.714844 134.878906 388.625 140.640625 L 389.167969 141.179688 C 395.648438 140.910156 396.996094 140.910156 404.195312 140.910156 L 404.738281 140.371094 C 404.195312 126.511719 404.105469 123 404.015625 106.890625 C 405.90625 105.628906 408.066406 104.101562 410.945312 104.101562 C 415.898438 104.101562 416.347656 109.410156 416.617188 112.648438 C 416.796875 115.621094 416.886719 127.949219 416.886719 131.371094 C 416.886719 134.429688 416.796875 137.578125 416.796875 140.640625 L 417.335938 141.179688 C 423.277344 141 424.808594 140.910156 432.007812 140.910156 Z M 488.707031 117.058594 C 488.707031 113.550781 488.707031 98.96875 476.105469 94.019531 C 472.144531 92.488281 467.464844 92.308594 465.125 92.308594 C 449.464844 92.308594 440.644531 100.679688 440.644531 117.238281 C 440.644531 123 441.546875 128.851562 444.875 133.710938 C 447.214844 137.21875 451.625 142.078125 464.496094 142.078125 C 483.574219 142.078125 488.707031 130.558594 488.707031 117.058594 M 473.136719 116.96875 C 473.136719 124.351562 472.144531 132.539062 464.675781 132.539062 C 462.335938 132.539062 460.714844 131.460938 459.636719 130.46875 C 458.105469 128.941406 456.394531 125.878906 456.394531 117.148438 C 456.394531 114.539062 456.394531 108.78125 458.195312 105.628906 C 459.546875 103.199219 461.886719 101.578125 464.765625 101.578125 C 467.285156 101.578125 469.355469 102.929688 470.527344 104.371094 C 472.6875 106.980469 473.136719 112.109375 473.136719 116.96875 Z M 592.566406 77.191406 C 583.207031 77.460938 581.675781 77.460938 571.6875 77.460938 L 571.148438 78 L 567.007812 92.578125 L 563.40625 105.628906 L 559.175781 121.289062 L 555.214844 105.179688 L 552.695312 95.011719 L 548.195312 77.730469 L 547.746094 77.191406 C 538.117188 77.460938 536.496094 77.460938 526.417969 77.460938 L 525.875 78 C 524.976562 104.910156 524.617188 111.839844 522.636719 140.730469 L 523.085938 141.269531 C 528.847656 141 530.558594 140.910156 535.777344 141 L 536.316406 140.460938 L 536.585938 123.269531 L 537.125 105.808594 L 537.488281 88.800781 L 541.445312 104.730469 L 544.867188 117.511719 L 550.898438 140.730469 L 551.4375 141.269531 C 557.015625 141 558.546875 140.910156 564.847656 141 L 565.386719 140.460938 L 570.605469 121.289062 L 574.207031 108.148438 L 579.246094 89.25 L 579.246094 105.359375 L 579.425781 119.128906 L 579.425781 140.730469 L 579.875 141.269531 C 586.085938 141 588.515625 140.910156 595.445312 141 L 595.898438 140.460938 C 595.355469 130.199219 594.726562 119.851562 594.367188 109.5 C 594.097656 103.828125 593.917969 98.160156 593.648438 92.488281 C 593.195312 84.121094 593.105469 83.039062 593.105469 77.730469 Z M 651.875 117.058594 C 651.875 113.550781 651.875 98.96875 639.273438 94.019531 C 635.3125 92.488281 630.632812 92.308594 628.292969 92.308594 C 612.632812 92.308594 603.8125 100.679688 603.8125 117.238281 C 603.8125 123 604.714844 128.851562 608.042969 133.710938 C 610.382812 137.21875 614.792969 142.078125 627.664062 142.078125 C 646.742188 142.078125 651.875 130.558594 651.875 117.058594 M 636.304688 116.96875 C 636.304688 124.351562 635.3125 132.539062 627.84375 132.539062 C 625.503906 132.539062 623.882812 131.460938 622.804688 130.46875 C 621.273438 128.941406 619.5625 125.878906 619.5625 117.148438 C 619.5625 114.539062 619.5625 108.78125 621.363281 105.628906 C 622.714844 103.199219 625.054688 101.578125 627.933594 101.578125 C 630.453125 101.578125 632.523438 102.929688 633.695312 104.371094 C 635.855469 106.980469 636.304688 112.109375 636.304688 116.96875 Z M 703.628906 92.851562 L 688.957031 93.570312 L 688.328125 94.109375 C 688.957031 104.28125 688.957031 118.679688 688.957031 120.121094 C 688.957031 122.730469 688.957031 124.171875 688.867188 127.769531 C 686.4375 129.390625 684.546875 130.738281 682.117188 130.738281 C 675.636719 130.738281 675.636719 123.898438 675.636719 118.589844 C 675.636719 116.339844 675.636719 114 675.726562 111.75 L 675.90625 93.570312 L 675.277344 92.851562 L 660.425781 93.570312 L 659.796875 94.109375 C 660.335938 101.671875 660.425781 104.191406 660.425781 113.28125 L 660.425781 119.578125 C 660.335938 129.390625 660.789062 133.53125 664.027344 137.308594 C 666.996094 140.640625 671.316406 142.078125 675.816406 142.078125 C 682.207031 142.078125 685.898438 139.199219 689.136719 136.679688 L 689.046875 140.730469 L 689.675781 141.269531 C 696.246094 141 698.226562 141 704.078125 141 L 704.617188 140.460938 C 704.167969 134.070312 703.988281 130.648438 703.988281 118.949219 C 703.988281 110.488281 704.078125 102.03125 704.257812 93.570312 Z M 758.886719 140.371094 C 758.4375 132.449219 758.4375 129.929688 758.257812 121.109375 L 758.257812 114.089844 C 758.167969 105.449219 758.078125 101.308594 755.828125 97.621094 C 753.035156 92.941406 747.90625 92.21875 744.667969 92.21875 C 739.175781 92.21875 734.40625 95.101562 730.265625 97.53125 L 730.445312 92.578125 L 729.546875 91.949219 C 722.617188 93.390625 721.085938 93.660156 714.335938 94.558594 L 713.796875 95.191406 C 714.515625 103.019531 715.058594 108.691406 715.058594 123.359375 C 715.058594 129.121094 714.964844 134.878906 714.875 140.640625 L 715.417969 141.179688 C 721.898438 140.910156 723.246094 140.910156 730.445312 140.910156 L 730.988281 140.371094 C 730.445312 126.511719 730.355469 123 730.265625 106.890625 C 732.15625 105.628906 734.316406 104.101562 737.195312 104.101562 C 742.148438 104.101562 742.597656 109.410156 742.867188 112.648438 C 743.046875 115.621094 743.136719 127.949219 743.136719 131.371094 C 743.136719 134.429688 743.046875 137.578125 743.046875 140.640625 L 743.585938 141.179688 C 749.527344 141 751.058594 140.910156 758.257812 140.910156 Z M 794.347656 130.648438 C 792.816406 131.101562 791.734375 131.460938 790.207031 131.460938 C 785.617188 131.460938 785.257812 128.578125 785.074219 127.230469 C 784.804688 124.890625 784.804688 119.941406 784.894531 116.339844 L 785.074219 103.648438 L 793.175781 104.011719 L 793.714844 103.46875 L 794.617188 93.839844 L 794.074219 93.300781 L 785.074219 93.300781 L 785.347656 78.179688 L 784.714844 77.640625 C 778.597656 79.441406 776.976562 79.890625 770.585938 81.511719 L 770.226562 82.140625 L 770.316406 93.390625 L 765.457031 93.210938 L 764.917969 93.660156 L 764.105469 103.289062 L 764.644531 103.828125 L 770.316406 103.648438 L 770.046875 117.960938 C 769.957031 120.210938 769.867188 122.460938 769.867188 124.800781 C 769.867188 133.078125 770.046875 141.988281 784.085938 141.988281 C 787.597656 141.988281 790.386719 141.449219 793.535156 140.910156 L 794.167969 140.28125 L 795.066406 131.011719 Z M 841.054688 114.179688 C 841.144531 106.078125 841.144531 102.570312 838.804688 98.789062 C 837.003906 95.910156 833.40625 92.308594 821.886719 92.308594 C 814.144531 92.308594 809.375 93.75 804.246094 95.28125 L 803.707031 96 L 803.253906 105.808594 L 803.976562 106.171875 C 807.125 104.910156 812.976562 102.570312 819.003906 102.570312 C 822.335938 102.570312 823.683594 103.109375 824.855469 104.28125 C 825.753906 105.179688 826.027344 106.800781 826.027344 108.148438 C 815.226562 109.589844 810.183594 110.578125 804.785156 113.910156 C 799.746094 117.058594 798.035156 122.191406 798.035156 126.238281 C 798.035156 135.871094 804.964844 142.078125 813.785156 142.078125 C 820.535156 142.078125 824.40625 138.839844 826.296875 137.308594 L 826.296875 140.640625 L 826.835938 141.269531 C 833.316406 141 835.296875 140.910156 841.144531 141 L 841.59375 140.371094 C 840.964844 131.550781 840.964844 129.300781 840.964844 120.839844 L 841.054688 114.179688 M 826.207031 128.488281 C 824.316406 129.570312 821.886719 130.828125 818.914062 130.828125 C 815.675781 130.828125 812.976562 129.121094 812.976562 125.339844 C 812.976562 119.398438 820.085938 118.410156 826.207031 117.601562 Z M 867.878906 140.371094 C 867.425781 133.441406 867.066406 128.128906 867.066406 115.710938 C 867.066406 108.058594 867.246094 100.320312 867.335938 92.671875 L 866.707031 91.949219 L 851.226562 94.648438 L 850.6875 95.191406 C 851.40625 102.03125 851.675781 105.179688 851.675781 117.960938 C 851.675781 127.769531 851.40625 133.261719 851.136719 140.640625 L 851.675781 141.269531 C 858.15625 141 859.957031 140.910156 867.246094 141 L 867.878906 140.371094 M 866.4375 83.308594 L 866.707031 71.070312 L 866.167969 70.53125 L 851.496094 72.328125 L 850.957031 72.960938 C 851.136719 76.199219 851.226562 78.089844 851.226562 80.25 C 851.226562 81.960938 851.226562 83.761719 851.136719 85.46875 L 851.765625 86.011719 C 857.886719 84.929688 859.597656 84.75 865.988281 83.941406 Z M 921.964844 140.371094 C 921.515625 132.449219 921.515625 129.929688 921.335938 121.109375 L 921.335938 114.089844 C 921.246094 105.449219 921.15625 101.308594 918.90625 97.621094 C 916.113281 92.941406 910.984375 92.21875 907.746094 92.21875 C 902.253906 92.21875 897.484375 95.101562 893.34375 97.53125 L 893.523438 92.578125 L 892.625 91.949219 C 885.695312 93.390625 884.164062 93.660156 877.414062 94.558594 L 876.875 95.191406 C 877.59375 103.019531 878.136719 108.691406 878.136719 123.359375 C 878.136719 129.121094 878.042969 134.878906 877.953125 140.640625 L 878.496094 141.179688 C 884.976562 140.910156 886.324219 140.910156 893.523438 140.910156 L 894.066406 140.371094 C 893.523438 126.511719 893.433594 123 893.34375 106.890625 C 895.234375 105.628906 897.394531 104.101562 900.273438 104.101562 C 905.226562 104.101562 905.675781 109.410156 905.945312 112.648438 C 906.125 115.621094 906.214844 127.949219 906.214844 131.371094 C 906.214844 134.429688 906.125 137.578125 906.125 140.640625 L 906.664062 141.179688 C 912.605469 141 914.136719 140.910156 921.335938 140.910156 Z M 926.824219 141 "/>
<path fill-rule="nonzero" fill="rgb(34.901961%, 14.901961%, 14.901961%)" fill-opacity="1" d="M 303.890625 222.300781 C 296.332031 219.148438 292.371094 217.53125 292.371094 213.480469 C 292.371094 210.691406 294.980469 207.179688 300.921875 207.179688 C 307.761719 207.179688 311.808594 209.96875 315.140625 212.21875 L 315.949219 211.859375 L 316.671875 200.070312 L 316.21875 199.441406 C 312.351562 197.820312 308.300781 196.109375 299.570312 196.109375 C 282.652344 196.109375 276.800781 205.648438 276.800781 215.28125 C 276.800781 226.171875 285.261719 230.128906 290.300781 232.558594 L 293.269531 233.910156 C 299.480469 236.519531 304.25 238.769531 304.25 243.539062 C 304.25 246.960938 301.28125 251.011719 293.449219 251.011719 C 285.261719 251.011719 280.671875 247.410156 278.058594 245.339844 L 277.160156 245.609375 L 276.53125 258.300781 L 277.070312 259.019531 C 278.058594 259.378906 279.050781 259.828125 280.039062 260.101562 C 282.109375 260.820312 287.421875 262.351562 294.171875 262.351562 C 296.871094 262.351562 303.710938 262.078125 309.109375 259.558594 C 316.671875 255.871094 319.910156 249.03125 319.910156 241.378906 C 319.910156 236.25 317.929688 230.761719 313.160156 227.070312 C 310.730469 225.269531 308.390625 224.191406 306.230469 223.199219 Z M 353.660156 250.648438 C 352.128906 251.101562 351.046875 251.460938 349.519531 251.460938 C 344.929688 251.460938 344.570312 248.578125 344.386719 247.230469 C 344.117188 244.890625 344.117188 239.941406 344.207031 236.339844 L 344.386719 223.648438 L 352.488281 224.011719 L 353.027344 223.46875 L 353.929688 213.839844 L 353.386719 213.300781 L 344.386719 213.300781 L 344.660156 198.179688 L 344.027344 197.640625 C 337.910156 199.441406 336.289062 199.890625 329.898438 201.511719 L 329.539062 202.140625 L 329.628906 213.390625 L 324.769531 213.210938 L 324.230469 213.660156 L 323.417969 223.289062 L 323.957031 223.828125 L 329.628906 223.648438 L 329.359375 237.960938 C 329.269531 240.210938 329.179688 242.460938 329.179688 244.800781 C 329.179688 253.078125 329.359375 261.988281 343.398438 261.988281 C 346.910156 261.988281 349.699219 261.449219 352.847656 260.910156 L 353.480469 260.28125 L 354.378906 251.011719 Z M 400.371094 234.179688 C 400.460938 226.078125 400.460938 222.570312 398.121094 218.789062 C 396.320312 215.910156 392.722656 212.308594 381.203125 212.308594 C 373.460938 212.308594 368.691406 213.75 363.5625 215.28125 L 363.023438 216 L 362.570312 225.808594 L 363.292969 226.171875 C 366.441406 224.910156 372.292969 222.570312 378.320312 222.570312 C 381.652344 222.570312 383 223.109375 384.171875 224.28125 C 385.070312 225.179688 385.34375 226.800781 385.34375 228.148438 C 374.542969 229.589844 369.5 230.578125 364.101562 233.910156 C 359.0625 237.058594 357.351562 242.191406 357.351562 246.238281 C 357.351562 255.871094 364.28125 262.078125 373.101562 262.078125 C 379.851562 262.078125 383.722656 258.839844 385.613281 257.308594 L 385.613281 260.640625 L 386.152344 261.269531 C 392.632812 261 394.613281 260.910156 400.460938 261 L 400.910156 260.371094 C 400.28125 251.550781 400.28125 249.300781 400.28125 240.839844 L 400.371094 234.179688 M 385.523438 248.488281 C 383.632812 249.570312 381.203125 250.828125 378.230469 250.828125 C 374.992188 250.828125 372.292969 249.121094 372.292969 245.339844 C 372.292969 239.398438 379.402344 238.410156 385.523438 237.601562 Z M 436.101562 250.648438 C 434.570312 251.101562 433.488281 251.460938 431.960938 251.460938 C 427.371094 251.460938 427.011719 248.578125 426.828125 247.230469 C 426.558594 244.890625 426.558594 239.941406 426.648438 236.339844 L 426.828125 223.648438 L 434.929688 224.011719 L 435.46875 223.46875 L 436.371094 213.839844 L 435.828125 213.300781 L 426.828125 213.300781 L 427.101562 198.179688 L 426.46875 197.640625 C 420.351562 199.441406 418.730469 199.890625 412.339844 201.511719 L 411.980469 202.140625 L 412.070312 213.390625 L 407.210938 213.210938 L 406.671875 213.660156 L 405.859375 223.289062 L 406.398438 223.828125 L 412.070312 223.648438 L 411.800781 237.960938 C 411.710938 240.210938 411.621094 242.460938 411.621094 244.800781 C 411.621094 253.078125 411.800781 261.988281 425.839844 261.988281 C 429.351562 261.988281 432.140625 261.449219 435.289062 260.910156 L 435.921875 260.28125 L 436.820312 251.011719 Z M 482.71875 247.679688 C 479.300781 249.480469 475.25 251.550781 468.679688 251.550781 C 463.28125 251.550781 459.589844 249.839844 457.429688 246.601562 C 456.078125 244.710938 455.808594 242.910156 455.449219 241.109375 L 484.519531 240.570312 L 485.058594 239.941406 C 484.96875 235.53125 484.878906 231.03125 483.621094 226.53125 C 480.46875 215.910156 473.539062 213.75 470.480469 213.03125 C 468.230469 212.398438 466.160156 212.21875 464.089844 212.21875 C 449.960938 212.21875 440.597656 221.488281 440.597656 237.058594 C 440.597656 241.289062 441.320312 245.699219 442.757812 248.851562 C 447.980469 261 460.21875 262.078125 466.699219 262.078125 C 474.167969 262.078125 477.410156 260.730469 482.179688 258.839844 L 482.71875 258.121094 L 483.347656 247.949219 L 482.71875 247.679688 M 455.449219 231.570312 C 455.71875 228.78125 456.347656 225 459.769531 222.839844 C 460.847656 222.121094 462.109375 221.851562 463.371094 221.851562 C 466.339844 221.851562 468.140625 223.378906 469.128906 225 C 470.390625 226.980469 470.480469 229.140625 470.480469 231.210938 Z M 531.679688 197.28125 L 520.25 197.460938 L 519.707031 198 C 520.070312 209.699219 520.339844 217.53125 520.339844 227.878906 C 520.339844 238.859375 520.070312 249.75 519.796875 260.730469 L 520.339844 261.269531 C 527 261 528.4375 260.910156 535.640625 261 L 536.089844 260.460938 C 535.730469 250.648438 535.730469 248.398438 535.730469 239.21875 C 545.808594 239.308594 556.609375 239.308594 563.089844 231.390625 C 565.609375 228.328125 567.769531 223.199219 567.769531 216.898438 C 567.769531 213.03125 566.867188 204.480469 559.398438 200.25 C 554 197.101562 546.347656 197.101562 539.597656 197.101562 L 531.679688 197.28125 M 535.730469 208.171875 C 537.707031 208.078125 539.597656 208.078125 541.578125 208.078125 C 549.5 208.261719 551.660156 212.308594 551.660156 217.53125 C 551.660156 218.789062 551.660156 224.011719 546.890625 226.621094 C 544.457031 227.96875 541.128906 228.148438 535.730469 228.148438 Z M 614.03125 234.179688 C 614.121094 226.078125 614.121094 222.570312 611.78125 218.789062 C 609.980469 215.910156 606.382812 212.308594 594.863281 212.308594 C 587.121094 212.308594 582.351562 213.75 577.222656 215.28125 L 576.683594 216 L 576.230469 225.808594 L 576.953125 226.171875 C 580.101562 224.910156 585.953125 222.570312 591.980469 222.570312 C 595.3125 222.570312 596.660156 223.109375 597.832031 224.28125 C 598.730469 225.179688 599.003906 226.800781 599.003906 228.148438 C 588.203125 229.589844 583.160156 230.578125 577.761719 233.910156 C 572.722656 237.058594 571.011719 242.191406 571.011719 246.238281 C 571.011719 255.871094 577.941406 262.078125 586.761719 262.078125 C 593.511719 262.078125 597.382812 258.839844 599.273438 257.308594 L 599.273438 260.640625 L 599.8125 261.269531 C 606.292969 261 608.273438 260.910156 614.121094 261 L 614.570312 260.371094 C 613.941406 251.550781 613.941406 249.300781 613.941406 240.839844 L 614.03125 234.179688 M 599.183594 248.488281 C 597.292969 249.570312 594.863281 250.828125 591.890625 250.828125 C 588.652344 250.828125 585.953125 249.121094 585.953125 245.339844 C 585.953125 239.398438 593.0625 238.410156 599.183594 237.601562 Z M 650.570312 227.609375 L 653.089844 212.941406 L 652.550781 212.308594 C 651.921875 212.308594 651.289062 212.21875 650.660156 212.21875 C 646.96875 212.21875 642.832031 214.289062 639.949219 220.949219 L 640.21875 212.671875 L 639.5 211.949219 C 632.839844 213.390625 631.128906 213.660156 624.558594 214.648438 L 624.019531 215.191406 C 624.558594 221.941406 624.832031 225.988281 624.832031 238.5 C 624.832031 245.878906 624.738281 253.261719 624.558594 260.730469 L 625.101562 261.269531 C 631.761719 261 633.199219 260.910156 640.398438 261 L 640.851562 260.371094 C 640.488281 253.078125 639.949219 242.910156 639.949219 236.699219 C 639.949219 232.648438 639.949219 226.710938 646.070312 226.710938 C 647.601562 226.710938 648.5 227.25 649.761719 227.96875 Z M 704.570312 259.828125 C 696.109375 245.519531 695.210938 243.898438 688.371094 231.570312 C 694.582031 223.109375 695.210938 222.210938 701.601562 214.019531 L 701.148438 213.121094 L 686.480469 213.300781 L 685.582031 213.929688 C 678.558594 226.078125 677.660156 227.519531 673.519531 233.730469 L 673.519531 223.738281 C 673.609375 206.910156 673.699219 203.308594 674.148438 189.71875 L 673.429688 189.179688 L 657.769531 191.519531 L 657.230469 192.148438 C 657.859375 200.878906 658.128906 205.109375 658.308594 216.898438 C 658.488281 231.480469 658.488281 246.058594 658.398438 260.640625 L 659.03125 261.269531 C 665.058594 261 666.769531 261 673.609375 261 L 674.148438 260.371094 L 673.609375 245.160156 L 673.519531 234.808594 C 681.351562 249.210938 682.339844 251.191406 686.929688 260.730469 L 687.738281 261.269531 L 703.941406 260.640625 Z M 703.492188 261 "/>
</svg>
