<?xml version="1.0" encoding="UTF-8"?>
<svg xmlns="http://www.w3.org/2000/svg" xmlns:xlink="http://www.w3.org/1999/xlink" width="975" height="1300" viewBox="0 0 975 1300">
<path fill-rule="nonzero" fill="rgb(98.823529%, 78.823529%, 9.019608%)" fill-opacity="1" d="M 50 50 L 925 50 L 925 410 L 50 410 Z M 50 50 "/>
<path fill-rule="nonzero" fill="rgb(34.901961%, 14.901961%, 14.901961%)" fill-opacity="1" d="M 174.289062 124.890625 C 172.21875 126.511719 167.628906 129.929688 160.160156 129.929688 C 149.898438 129.929688 142.699219 122.28125 142.699219 109.5 C 142.699219 101.761719 145.398438 88.171875 160.070312 88.171875 C 166.820312 88.171875 170.507812 90.78125 172.757812 92.488281 L 173.570312 92.308594 L 174.378906 79.890625 L 174.019531 79.441406 C 170.78125 78.179688 165.289062 76.109375 157.371094 76.109375 C 134.058594 76.109375 125.960938 94.109375 125.960938 109.859375 C 125.960938 127.140625 136.488281 142.351562 158.449219 142.351562 C 166.007812 142.351562 170.960938 140.371094 173.839844 139.199219 L 174.289062 138.660156 L 174.917969 125.25 Z M 221.988281 114.179688 C 222.078125 106.078125 222.078125 102.570312 219.738281 98.789062 C 217.9375 95.910156 214.339844 92.308594 202.820312 92.308594 C 195.078125 92.308594 190.308594 93.75 185.179688 95.28125 L 184.640625 96 L 184.1875 105.808594 L 184.910156 106.171875 C 188.058594 104.910156 193.910156 102.570312 199.9375 102.570312 C 203.269531 102.570312 204.617188 103.109375 205.789062 104.28125 C 206.6875 105.179688 206.960938 106.800781 206.960938 108.148438 C 196.160156 109.589844 191.117188 110.578125 185.71875 113.910156 C 180.679688 117.058594 178.96875 122.191406 178.96875 126.238281 C 178.96875 135.871094 185.898438 142.078125 194.71875 142.078125 C 201.46875 142.078125 205.339844 138.839844 207.230469 137.308594 L 207.230469 140.640625 L 207.769531 141.269531 C 214.25 141 216.230469 140.910156 222.078125 141 L 222.527344 140.371094 C 221.898438 131.550781 221.898438 129.300781 221.898438 120.839844 L 221.988281 114.179688 M 207.140625 128.488281 C 205.25 129.570312 202.820312 130.828125 199.847656 130.828125 C 196.609375 130.828125 193.910156 129.121094 193.910156 125.339844 C 193.910156 119.398438 201.019531 118.410156 207.140625 117.601562 Z M 276.621094 140.371094 C 276.171875 132.449219 276.171875 129.929688 275.992188 121.109375 L 275.992188 114.089844 C 275.902344 105.449219 275.8125 101.308594 273.5625 97.621094 C 270.769531 92.941406 265.640625 92.21875 262.402344 92.21875 C 256.910156 92.21875 252.140625 95.101562 248 97.53125 L 248.179688 92.578125 L 247.28125 91.949219 C 240.351562 93.390625 238.820312 93.660156 232.070312 94.558594 L 231.53125 95.191406 C 232.25 103.019531 232.792969 108.691406 232.792969 123.359375 C 232.792969 129.121094 232.699219 134.878906 232.609375 140.640625 L 233.152344 141.179688 C 239.632812 140.910156 240.980469 140.910156 248.179688 140.910156 L 248.722656 140.371094 C 248.179688 126.511719 248.089844 123 248 106.890625 C 249.890625 105.628906 252.050781 104.101562 254.929688 104.101562 C 259.882812 104.101562 260.332031 109.410156 260.601562 112.648438 C 260.78125 115.621094 260.871094 127.949219 260.871094 131.371094 C 260.871094 134.429688 260.78125 137.578125 260.78125 140.640625 L 261.320312 141.179688 C 267.261719 141 268.792969 140.910156 275.992188 140.910156 Z M 330.980469 140.460938 C 330.621094 132.359375 330.351562 126.960938 330.351562 115.171875 C 330.351562 91.410156 330.710938 81.601562 331.070312 69.71875 L 330.441406 69.179688 L 315.589844 71.519531 L 315.140625 72.058594 C 315.679688 80.519531 315.769531 82.769531 315.679688 93.03125 C 308.929688 92.851562 300.46875 92.671875 293.628906 98.070312 C 287.332031 102.929688 284.71875 110.398438 284.71875 119.671875 C 284.71875 126.691406 286.609375 133.710938 291.921875 138.121094 C 295.878906 141.359375 300.742188 142.078125 303.710938 142.078125 C 310.101562 142.078125 313.429688 139.109375 315.589844 137.21875 L 315.410156 140.730469 L 315.859375 141.269531 C 322.070312 141 323.78125 141 330.53125 141 L 330.980469 140.460938 M 315.679688 103.828125 C 315.769531 115.800781 315.679688 118.140625 315.410156 129.03125 C 313.609375 130.109375 311.808594 131.191406 309.289062 131.191406 C 300.558594 131.191406 300.558594 120.03125 300.558594 118.230469 C 300.558594 111.300781 302.539062 103.558594 312.621094 103.558594 C 313.609375 103.558594 314.421875 103.648438 315.679688 103.828125 Z M 357.078125 140.371094 C 356.628906 130.019531 356.179688 120.570312 356.179688 92.128906 C 356.179688 83.578125 356.269531 79.53125 356.628906 69.808594 L 356 69.179688 L 340.609375 71.609375 L 340.25 72.148438 C 341.148438 83.128906 341.238281 86.101562 341.417969 100.679688 C 341.511719 105.988281 341.511719 111.300781 341.511719 116.609375 C 341.511719 126.328125 341.328125 131.730469 340.96875 140.640625 L 341.511719 141.269531 C 347.539062 141 349.96875 140.910156 356.539062 141 Z M 407.480469 127.679688 C 404.0625 129.480469 400.011719 131.550781 393.441406 131.550781 C 388.042969 131.550781 384.351562 129.839844 382.191406 126.601562 C 380.839844 124.710938 380.570312 122.910156 380.210938 121.109375 L 409.28125 120.570312 L 409.820312 119.941406 C 409.730469 115.53125 409.640625 111.03125 408.382812 106.53125 C 405.230469 95.910156 398.300781 93.75 395.242188 93.03125 C 392.992188 92.398438 390.921875 92.21875 388.851562 92.21875 C 374.722656 92.21875 365.359375 101.488281 365.359375 117.058594 C 365.359375 121.289062 366.082031 125.699219 367.519531 128.851562 C 372.742188 141 384.980469 142.078125 391.460938 142.078125 C 398.929688 142.078125 402.171875 140.730469 406.941406 138.839844 L 407.480469 138.121094 L 408.109375 127.949219 L 407.480469 127.679688 M 380.210938 111.570312 C 380.480469 108.78125 381.109375 105 384.53125 102.839844 C 385.609375 102.121094 386.871094 101.851562 388.132812 101.851562 C 391.101562 101.851562 392.902344 103.378906 393.890625 105 C 395.152344 106.980469 395.242188 109.140625 395.242188 111.210938 Z M 437 109.949219 C 433.9375 108.871094 431.507812 107.878906 431.507812 105.359375 C 431.507812 104.28125 432.230469 101.308594 437.808594 101.308594 C 443.300781 101.308594 446.808594 103.648438 449.058594 105.089844 L 449.871094 104.820312 L 450.769531 95.011719 L 450.320312 94.46875 C 446.089844 93.300781 442.398438 92.21875 436.550781 92.21875 C 432.140625 92.21875 423.320312 92.578125 418.640625 99.328125 C 417.46875 100.949219 416.210938 103.648438 416.210938 107.25 C 416.210938 116.878906 423.679688 119.761719 427.910156 121.378906 L 431.328125 122.640625 C 433.757812 123.449219 437.71875 124.800781 437.71875 128.039062 C 437.71875 130.289062 435.648438 132.71875 430.609375 132.71875 C 428.089844 132.71875 424.398438 131.910156 421.070312 130.199219 C 419.539062 129.390625 418.820312 128.761719 417.46875 127.679688 L 416.660156 128.039062 C 416.480469 132.71875 416.390625 133.710938 416.027344 138.210938 L 416.480469 139.019531 C 420.890625 140.640625 424.667969 142.078125 431.238281 142.078125 C 438.078125 142.078125 451.578125 140.820312 453.199219 127.949219 C 453.289062 127.230469 453.289062 126.601562 453.289062 125.96875 C 453.289062 116.070312 446.359375 113.460938 441.410156 111.570312 Z M 486.410156 130.648438 C 484.878906 131.101562 483.796875 131.460938 482.269531 131.460938 C 477.679688 131.460938 477.320312 128.578125 477.136719 127.230469 C 476.867188 124.890625 476.867188 119.941406 476.957031 116.339844 L 477.136719 103.648438 L 485.238281 104.011719 L 485.777344 103.46875 L 486.679688 93.839844 L 486.136719 93.300781 L 477.136719 93.300781 L 477.410156 78.179688 L 476.777344 77.640625 C 470.660156 79.441406 469.039062 79.890625 462.648438 81.511719 L 462.289062 82.140625 L 462.378906 93.390625 L 457.519531 93.210938 L 456.980469 93.660156 L 456.167969 103.289062 L 456.707031 103.828125 L 462.378906 103.648438 L 462.109375 117.960938 C 462.019531 120.210938 461.929688 122.460938 461.929688 124.800781 C 461.929688 133.078125 462.109375 141.988281 476.148438 141.988281 C 479.660156 141.988281 482.449219 141.449219 485.597656 140.910156 L 486.230469 140.28125 L 487.128906 131.011719 Z M 509.359375 140.371094 C 508.90625 133.441406 508.546875 128.128906 508.546875 115.710938 C 508.546875 108.058594 508.726562 100.320312 508.816406 92.671875 L 508.1875 91.949219 L 492.707031 94.648438 L 492.167969 95.191406 C 492.886719 102.03125 493.15625 105.179688 493.15625 117.960938 C 493.15625 127.769531 492.886719 133.261719 492.617188 140.640625 L 493.15625 141.269531 C 499.636719 141 501.4375 140.910156 508.726562 141 L 509.359375 140.371094 M 507.917969 83.308594 L 508.1875 71.070312 L 507.648438 70.53125 L 492.976562 72.328125 L 492.4375 72.960938 C 492.617188 76.199219 492.707031 78.089844 492.707031 80.25 C 492.707031 81.960938 492.707031 83.761719 492.617188 85.46875 L 493.246094 86.011719 C 499.367188 84.929688 501.078125 84.75 507.46875 83.941406 Z M 554.539062 128.039062 C 552.109375 129.480469 549.769531 130.921875 545.179688 130.921875 C 535.007812 130.921875 532.9375 122.460938 532.9375 117.058594 C 532.9375 110.488281 535.820312 102.929688 544.550781 102.929688 C 548.507812 102.929688 550.667969 104.371094 553.371094 106.171875 L 554.269531 105.898438 C 554.628906 101.128906 554.71875 99.871094 555.4375 95.101562 L 554.988281 94.558594 C 551.027344 93.300781 547.609375 92.21875 542.390625 92.21875 C 521.238281 92.21875 517.097656 108.238281 517.097656 117.421875 C 517.097656 127.769531 522.5 141.808594 542.75 141.808594 C 547.519531 141.808594 550.578125 140.910156 554.359375 139.828125 L 554.898438 139.289062 L 555.257812 128.488281 Z M 608.71875 139.828125 C 600.257812 125.519531 599.359375 123.898438 592.519531 111.570312 C 598.730469 103.109375 599.359375 102.210938 605.75 94.019531 L 605.296875 93.121094 L 590.628906 93.300781 L 589.730469 93.929688 C 582.707031 106.078125 581.808594 107.519531 577.667969 113.730469 L 577.667969 103.738281 C 577.757812 86.910156 577.847656 83.308594 578.296875 69.71875 L 577.578125 69.179688 L 561.917969 71.519531 L 561.378906 72.148438 C 562.007812 80.878906 562.277344 85.109375 562.457031 96.898438 C 562.636719 111.480469 562.636719 126.058594 562.546875 140.640625 L 563.179688 141.269531 C 569.207031 141 570.917969 141 577.757812 141 L 578.296875 140.371094 L 577.757812 125.160156 L 577.667969 114.808594 C 585.5 129.210938 586.488281 131.191406 591.078125 140.730469 L 591.886719 141.269531 L 608.089844 140.640625 Z M 651.378906 77.28125 L 639.949219 77.460938 L 639.40625 78 C 639.769531 89.699219 640.039062 97.53125 640.039062 107.878906 C 640.039062 118.859375 639.769531 129.75 639.496094 140.730469 L 640.039062 141.269531 C 646.699219 141 648.136719 140.910156 655.339844 141 L 655.789062 140.460938 C 655.429688 130.648438 655.429688 128.398438 655.429688 119.21875 C 665.507812 119.308594 676.308594 119.308594 682.789062 111.390625 C 685.308594 108.328125 687.46875 103.199219 687.46875 96.898438 C 687.46875 93.03125 686.566406 84.480469 679.097656 80.25 C 673.699219 77.101562 666.046875 77.101562 659.296875 77.101562 L 651.378906 77.28125 M 655.429688 88.171875 C 657.40625 88.078125 659.296875 88.078125 661.277344 88.078125 C 669.199219 88.261719 671.359375 92.308594 671.359375 97.53125 C 671.359375 98.789062 671.359375 104.011719 666.589844 106.621094 C 664.15625 107.96875 660.828125 108.148438 655.429688 108.148438 Z M 739.492188 117.058594 C 739.492188 113.550781 739.492188 98.96875 726.890625 94.019531 C 722.929688 92.488281 718.25 92.308594 715.910156 92.308594 C 700.25 92.308594 691.429688 100.679688 691.429688 117.238281 C 691.429688 123 692.332031 128.851562 695.660156 133.710938 C 698 137.21875 702.410156 142.078125 715.28125 142.078125 C 734.359375 142.078125 739.492188 130.558594 739.492188 117.058594 M 723.921875 116.96875 C 723.921875 124.351562 722.929688 132.539062 715.460938 132.539062 C 713.121094 132.539062 711.5 131.460938 710.421875 130.46875 C 708.890625 128.941406 707.179688 125.878906 707.179688 117.148438 C 707.179688 114.539062 707.179688 108.78125 708.980469 105.628906 C 710.332031 103.199219 712.671875 101.578125 715.550781 101.578125 C 718.070312 101.578125 720.140625 102.929688 721.3125 104.371094 C 723.472656 106.980469 723.921875 112.109375 723.921875 116.96875 Z M 764.332031 140.371094 C 763.878906 133.441406 763.519531 128.128906 763.519531 115.710938 C 763.519531 108.058594 763.699219 100.320312 763.789062 92.671875 L 763.160156 91.949219 L 747.679688 94.648438 L 747.140625 95.191406 C 747.859375 102.03125 748.128906 105.179688 748.128906 117.960938 C 748.128906 127.769531 747.859375 133.261719 747.589844 140.640625 L 748.128906 141.269531 C 754.609375 141 756.410156 140.910156 763.699219 141 L 764.332031 140.371094 M 762.890625 83.308594 L 763.160156 71.070312 L 762.621094 70.53125 L 747.949219 72.328125 L 747.410156 72.960938 C 747.589844 76.199219 747.679688 78.089844 747.679688 80.25 C 747.679688 81.960938 747.679688 83.761719 747.589844 85.46875 L 748.21875 86.011719 C 754.339844 84.929688 756.050781 84.75 762.441406 83.941406 Z M 818.417969 140.371094 C 817.96875 132.449219 817.96875 129.929688 817.789062 121.109375 L 817.789062 114.089844 C 817.699219 105.449219 817.609375 101.308594 815.359375 97.621094 C 812.566406 92.941406 807.4375 92.21875 804.199219 92.21875 C 798.707031 92.21875 793.9375 95.101562 789.796875 97.53125 L 789.976562 92.578125 L 789.078125 91.949219 C 782.148438 93.390625 780.617188 93.660156 773.867188 94.558594 L 773.328125 95.191406 C 774.046875 103.019531 774.589844 108.691406 774.589844 123.359375 C 774.589844 129.121094 774.496094 134.878906 774.40625 140.640625 L 774.949219 141.179688 C 781.429688 140.910156 782.777344 140.910156 789.976562 140.910156 L 790.519531 140.371094 C 789.976562 126.511719 789.886719 123 789.796875 106.890625 C 791.6875 105.628906 793.847656 104.101562 796.726562 104.101562 C 801.679688 104.101562 802.128906 109.410156 802.398438 112.648438 C 802.578125 115.621094 802.667969 127.949219 802.667969 131.371094 C 802.667969 134.429688 802.578125 137.578125 802.578125 140.640625 L 803.117188 141.179688 C 809.058594 141 810.589844 140.910156 817.789062 140.910156 Z M 853.882812 130.648438 C 852.351562 131.101562 851.269531 131.460938 849.742188 131.460938 C 845.152344 131.460938 844.792969 128.578125 844.609375 127.230469 C 844.339844 124.890625 844.339844 119.941406 844.429688 116.339844 L 844.609375 103.648438 L 852.710938 104.011719 L 853.25 103.46875 L 854.152344 93.839844 L 853.609375 93.300781 L 844.609375 93.300781 L 844.882812 78.179688 L 844.25 77.640625 C 838.132812 79.441406 836.511719 79.890625 830.121094 81.511719 L 829.761719 82.140625 L 829.851562 93.390625 L 824.992188 93.210938 L 824.453125 93.660156 L 823.640625 103.289062 L 824.179688 103.828125 L 829.851562 103.648438 L 829.582031 117.960938 C 829.492188 120.210938 829.402344 122.460938 829.402344 124.800781 C 829.402344 133.078125 829.582031 141.988281 843.621094 141.988281 C 847.132812 141.988281 849.921875 141.449219 853.070312 140.910156 L 853.703125 140.28125 L 854.601562 131.011719 Z M 855.140625 141 "/>
<path fill-rule="nonzero" fill="rgb(34.901961%, 14.901961%, 14.901961%)" fill-opacity="1" d="M 175.640625 222.300781 C 168.082031 219.148438 164.121094 217.53125 164.121094 213.480469 C 164.121094 210.691406 166.730469 207.179688 172.671875 207.179688 C 179.511719 207.179688 183.558594 209.96875 186.890625 212.21875 L 187.699219 211.859375 L 188.421875 200.070312 L 187.96875 199.441406 C 184.101562 197.820312 180.050781 196.109375 171.320312 196.109375 C 154.402344 196.109375 148.550781 205.648438 148.550781 215.28125 C 148.550781 226.171875 157.011719 230.128906 162.050781 232.558594 L 165.019531 233.910156 C 171.230469 236.519531 176 238.769531 176 243.539062 C 176 246.960938 173.03125 251.011719 165.199219 251.011719 C 157.011719 251.011719 152.421875 247.410156 149.808594 245.339844 L 148.910156 245.609375 L 148.28125 258.300781 L 148.820312 259.019531 C 149.808594 259.378906 150.800781 259.828125 151.789062 260.101562 C 153.859375 260.820312 159.171875 262.351562 165.921875 262.351562 C 168.621094 262.351562 175.460938 262.078125 180.859375 259.558594 C 188.421875 255.871094 191.660156 249.03125 191.660156 241.378906 C 191.660156 236.25 189.679688 230.761719 184.910156 227.070312 C 182.480469 225.269531 180.140625 224.191406 177.980469 223.199219 Z M 225.410156 250.648438 C 223.878906 251.101562 222.796875 251.460938 221.269531 251.460938 C 216.679688 251.460938 216.320312 248.578125 216.136719 247.230469 C 215.867188 244.890625 215.867188 239.941406 215.957031 236.339844 L 216.136719 223.648438 L 224.238281 224.011719 L 224.777344 223.46875 L 225.679688 213.839844 L 225.136719 213.300781 L 216.136719 213.300781 L 216.410156 198.179688 L 215.777344 197.640625 C 209.660156 199.441406 208.039062 199.890625 201.648438 201.511719 L 201.289062 202.140625 L 201.378906 213.390625 L 196.519531 213.210938 L 195.980469 213.660156 L 195.167969 223.289062 L 195.707031 223.828125 L 201.378906 223.648438 L 201.109375 237.960938 C 201.019531 240.210938 200.929688 242.460938 200.929688 244.800781 C 200.929688 253.078125 201.109375 261.988281 215.148438 261.988281 C 218.660156 261.988281 221.449219 261.449219 224.597656 260.910156 L 225.230469 260.28125 L 226.128906 251.011719 Z M 272.121094 234.179688 C 272.210938 226.078125 272.210938 222.570312 269.871094 218.789062 C 268.070312 215.910156 264.472656 212.308594 252.953125 212.308594 C 245.210938 212.308594 240.441406 213.75 235.3125 215.28125 L 234.773438 216 L 234.320312 225.808594 L 235.042969 226.171875 C 238.191406 224.910156 244.042969 222.570312 250.070312 222.570312 C 253.402344 222.570312 254.75 223.109375 255.921875 224.28125 C 256.820312 225.179688 257.09375 226.800781 257.09375 228.148438 C 246.292969 229.589844 241.25 230.578125 235.851562 233.910156 C 230.8125 237.058594 229.101562 242.191406 229.101562 246.238281 C 229.101562 255.871094 236.03125 262.078125 244.851562 262.078125 C 251.601562 262.078125 255.472656 258.839844 257.363281 257.308594 L 257.363281 260.640625 L 257.902344 261.269531 C 264.382812 261 266.363281 260.910156 272.210938 261 L 272.660156 260.371094 C 272.03125 251.550781 272.03125 249.300781 272.03125 240.839844 L 272.121094 234.179688 M 257.273438 248.488281 C 255.382812 249.570312 252.953125 250.828125 249.980469 250.828125 C 246.742188 250.828125 244.042969 249.121094 244.042969 245.339844 C 244.042969 239.398438 251.152344 238.410156 257.273438 237.601562 Z M 307.851562 250.648438 C 306.320312 251.101562 305.238281 251.460938 303.710938 251.460938 C 299.121094 251.460938 298.761719 248.578125 298.578125 247.230469 C 298.308594 244.890625 298.308594 239.941406 298.398438 236.339844 L 298.578125 223.648438 L 306.679688 224.011719 L 307.21875 223.46875 L 308.121094 213.839844 L 307.578125 213.300781 L 298.578125 213.300781 L 298.851562 198.179688 L 298.21875 197.640625 C 292.101562 199.441406 290.480469 199.890625 284.089844 201.511719 L 283.730469 202.140625 L 283.820312 213.390625 L 278.960938 213.210938 L 278.421875 213.660156 L 277.609375 223.289062 L 278.148438 223.828125 L 283.820312 223.648438 L 283.550781 237.960938 C 283.460938 240.210938 283.371094 242.460938 283.371094 244.800781 C 283.371094 253.078125 283.550781 261.988281 297.589844 261.988281 C 301.101562 261.988281 303.890625 261.449219 307.039062 260.910156 L 307.671875 260.28125 L 308.570312 251.011719 Z M 354.46875 247.679688 C 351.050781 249.480469 347 251.550781 340.429688 251.550781 C 335.03125 251.550781 331.339844 249.839844 329.179688 246.601562 C 327.828125 244.710938 327.558594 242.910156 327.199219 241.109375 L 356.269531 240.570312 L 356.808594 239.941406 C 356.71875 235.53125 356.628906 231.03125 355.371094 226.53125 C 352.21875 215.910156 345.289062 213.75 342.230469 213.03125 C 339.980469 212.398438 337.910156 212.21875 335.839844 212.21875 C 321.710938 212.21875 312.347656 221.488281 312.347656 237.058594 C 312.347656 241.289062 313.070312 245.699219 314.507812 248.851562 C 319.730469 261 331.96875 262.078125 338.449219 262.078125 C 345.917969 262.078125 349.160156 260.730469 353.929688 258.839844 L 354.46875 258.121094 L 355.097656 247.949219 L 354.46875 247.679688 M 327.199219 231.570312 C 327.46875 228.78125 328.097656 225 331.519531 222.839844 C 332.597656 222.121094 333.859375 221.851562 335.121094 221.851562 C 338.089844 221.851562 339.890625 223.378906 340.878906 225 C 342.140625 226.980469 342.230469 229.140625 342.230469 231.210938 Z M 411.707031 236.25 C 417.738281 246.511719 419.089844 249.210938 424.847656 261 L 425.570312 261.449219 C 428.359375 261.269531 431.058594 261.089844 433.847656 261 C 436.640625 260.910156 439.519531 260.820312 442.308594 260.820312 L 442.847656 259.738281 C 439.429688 255.328125 438.4375 253.980469 431.957031 243.628906 C 429.078125 239.039062 427.640625 236.609375 425.390625 232.648438 C 429.4375 230.851562 437.628906 227.070312 437.628906 215.640625 C 437.628906 211.679688 436.546875 203.488281 429.167969 199.621094 C 424.488281 197.191406 419.628906 197.101562 409.097656 197.28125 L 402.796875 197.371094 L 391.820312 197.371094 L 391.367188 197.910156 C 391.730469 207 392.089844 216.359375 392.089844 240.839844 C 392.089844 249.210938 392 253.261719 391.730469 260.730469 L 392.269531 261.269531 C 398.839844 261 400.277344 260.910156 407.660156 261 L 408.199219 260.460938 C 407.480469 250.019531 407.390625 247.140625 407.296875 236.429688 L 411.707031 236.25 M 407.480469 208.261719 C 408.738281 208.171875 410 208.171875 411.257812 208.171875 C 414.769531 208.171875 421.699219 208.171875 421.699219 216.089844 C 421.699219 218.609375 421.070312 221.941406 417.738281 224.011719 C 415.21875 225.539062 411.980469 225.71875 407.480469 225.808594 Z M 487.578125 247.679688 C 484.160156 249.480469 480.109375 251.550781 473.539062 251.550781 C 468.140625 251.550781 464.449219 249.839844 462.289062 246.601562 C 460.9375 244.710938 460.667969 242.910156 460.308594 241.109375 L 489.378906 240.570312 L 489.917969 239.941406 C 489.828125 235.53125 489.738281 231.03125 488.480469 226.53125 C 485.328125 215.910156 478.398438 213.75 475.339844 213.03125 C 473.089844 212.398438 471.019531 212.21875 468.949219 212.21875 C 454.820312 212.21875 445.457031 221.488281 445.457031 237.058594 C 445.457031 241.289062 446.179688 245.699219 447.617188 248.851562 C 452.839844 261 465.078125 262.078125 471.558594 262.078125 C 479.027344 262.078125 482.269531 260.730469 487.039062 258.839844 L 487.578125 258.121094 L 488.207031 247.949219 L 487.578125 247.679688 M 460.308594 231.570312 C 460.578125 228.78125 461.207031 225 464.628906 222.839844 C 465.707031 222.121094 466.96875 221.851562 468.230469 221.851562 C 471.199219 221.851562 473 223.378906 473.988281 225 C 475.25 226.980469 475.339844 229.140625 475.339844 231.210938 Z M 533.390625 248.039062 C 530.960938 249.480469 528.621094 250.921875 524.03125 250.921875 C 513.859375 250.921875 511.789062 242.460938 511.789062 237.058594 C 511.789062 230.488281 514.671875 222.929688 523.402344 222.929688 C 527.359375 222.929688 529.519531 224.371094 532.222656 226.171875 L 533.121094 225.898438 C 533.480469 221.128906 533.570312 219.871094 534.289062 215.101562 L 533.839844 214.558594 C 529.878906 213.300781 526.460938 212.21875 521.242188 212.21875 C 500.089844 212.21875 495.949219 228.238281 495.949219 237.421875 C 495.949219 247.769531 501.351562 261.808594 521.601562 261.808594 C 526.371094 261.808594 529.429688 260.910156 533.210938 259.828125 L 533.75 259.289062 L 534.109375 248.488281 Z M 567.320312 227.609375 L 569.839844 212.941406 L 569.300781 212.308594 C 568.671875 212.308594 568.039062 212.21875 567.410156 212.21875 C 563.71875 212.21875 559.582031 214.289062 556.699219 220.949219 L 556.96875 212.671875 L 556.25 211.949219 C 549.589844 213.390625 547.878906 213.660156 541.308594 214.648438 L 540.769531 215.191406 C 541.308594 221.941406 541.582031 225.988281 541.582031 238.5 C 541.582031 245.878906 541.488281 253.261719 541.308594 260.730469 L 541.851562 261.269531 C 548.511719 261 549.949219 260.910156 557.148438 261 L 557.601562 260.371094 C 557.238281 253.078125 556.699219 242.910156 556.699219 236.699219 C 556.699219 232.648438 556.699219 226.710938 562.820312 226.710938 C 564.351562 226.710938 565.25 227.25 566.511719 227.96875 Z M 615.019531 247.679688 C 611.601562 249.480469 607.550781 251.550781 600.980469 251.550781 C 595.582031 251.550781 591.890625 249.839844 589.730469 246.601562 C 588.378906 244.710938 588.109375 242.910156 587.75 241.109375 L 616.820312 240.570312 L 617.359375 239.941406 C 617.269531 235.53125 617.179688 231.03125 615.921875 226.53125 C 612.769531 215.910156 605.839844 213.75 602.78125 213.03125 C 600.53125 212.398438 598.460938 212.21875 596.390625 212.21875 C 582.261719 212.21875 572.898438 221.488281 572.898438 237.058594 C 572.898438 241.289062 573.621094 245.699219 575.058594 248.851562 C 580.28125 261 592.519531 262.078125 599 262.078125 C 606.46875 262.078125 609.710938 260.730469 614.480469 258.839844 L 615.019531 258.121094 L 615.648438 247.949219 L 615.019531 247.679688 M 587.75 231.570312 C 588.019531 228.78125 588.648438 225 592.070312 222.839844 C 593.148438 222.121094 594.410156 221.851562 595.671875 221.851562 C 598.640625 221.851562 600.441406 223.378906 601.429688 225 C 602.691406 226.980469 602.78125 229.140625 602.78125 231.210938 Z M 665.691406 234.179688 C 665.78125 226.078125 665.78125 222.570312 663.441406 218.789062 C 661.640625 215.910156 658.042969 212.308594 646.523438 212.308594 C 638.78125 212.308594 634.011719 213.75 628.882812 215.28125 L 628.34375 216 L 627.890625 225.808594 L 628.613281 226.171875 C 631.761719 224.910156 637.613281 222.570312 643.640625 222.570312 C 646.972656 222.570312 648.320312 223.109375 649.492188 224.28125 C 650.390625 225.179688 650.664062 226.800781 650.664062 228.148438 C 639.863281 229.589844 634.820312 230.578125 629.421875 233.910156 C 624.382812 237.058594 622.671875 242.191406 622.671875 246.238281 C 622.671875 255.871094 629.601562 262.078125 638.421875 262.078125 C 645.171875 262.078125 649.042969 258.839844 650.933594 257.308594 L 650.933594 260.640625 L 651.472656 261.269531 C 657.953125 261 659.933594 260.910156 665.78125 261 L 666.230469 260.371094 C 665.601562 251.550781 665.601562 249.300781 665.601562 240.839844 L 665.691406 234.179688 M 650.84375 248.488281 C 648.953125 249.570312 646.523438 250.828125 643.550781 250.828125 C 640.3125 250.828125 637.613281 249.121094 637.613281 245.339844 C 637.613281 239.398438 644.722656 238.410156 650.84375 237.601562 Z M 701.421875 250.648438 C 699.890625 251.101562 698.808594 251.460938 697.28125 251.460938 C 692.691406 251.460938 692.332031 248.578125 692.148438 247.230469 C 691.878906 244.890625 691.878906 239.941406 691.96875 236.339844 L 692.148438 223.648438 L 700.25 224.011719 L 700.789062 223.46875 L 701.691406 213.839844 L 701.148438 213.300781 L 692.148438 213.300781 L 692.421875 198.179688 L 691.789062 197.640625 C 685.671875 199.441406 684.050781 199.890625 677.660156 201.511719 L 677.300781 202.140625 L 677.390625 213.390625 L 672.53125 213.210938 L 671.992188 213.660156 L 671.179688 223.289062 L 671.71875 223.828125 L 677.390625 223.648438 L 677.121094 237.960938 C 677.03125 240.210938 676.941406 242.460938 676.941406 244.800781 C 676.941406 253.078125 677.121094 261.988281 691.160156 261.988281 C 694.671875 261.988281 697.460938 261.449219 700.609375 260.910156 L 701.242188 260.28125 L 702.140625 251.011719 Z M 724.371094 260.371094 C 723.917969 253.441406 723.558594 248.128906 723.558594 235.710938 C 723.558594 228.058594 723.738281 220.320312 723.828125 212.671875 L 723.199219 211.949219 L 707.71875 214.648438 L 707.179688 215.191406 C 707.898438 222.03125 708.167969 225.179688 708.167969 237.960938 C 708.167969 247.769531 707.898438 253.261719 707.628906 260.640625 L 708.167969 261.269531 C 714.648438 261 716.449219 260.910156 723.738281 261 L 724.371094 260.371094 M 722.929688 203.308594 L 723.199219 191.070312 L 722.660156 190.53125 L 707.988281 192.328125 L 707.449219 192.960938 C 707.628906 196.199219 707.71875 198.089844 707.71875 200.25 C 707.71875 201.960938 707.71875 203.761719 707.628906 205.46875 L 708.257812 206.011719 C 714.378906 204.929688 716.089844 204.75 722.480469 203.941406 Z M 780.171875 237.058594 C 780.171875 233.550781 780.171875 218.96875 767.570312 214.019531 C 763.609375 212.488281 758.929688 212.308594 756.589844 212.308594 C 740.929688 212.308594 732.109375 220.679688 732.109375 237.238281 C 732.109375 243 733.011719 248.851562 736.339844 253.710938 C 738.679688 257.21875 743.089844 262.078125 755.960938 262.078125 C 775.039062 262.078125 780.171875 250.558594 780.171875 237.058594 M 764.601562 236.96875 C 764.601562 244.351562 763.609375 252.539062 756.140625 252.539062 C 753.800781 252.539062 752.179688 251.460938 751.101562 250.46875 C 749.570312 248.941406 747.859375 245.878906 747.859375 237.148438 C 747.859375 234.539062 747.859375 228.78125 749.660156 225.628906 C 751.011719 223.199219 753.351562 221.578125 756.230469 221.578125 C 758.75 221.578125 760.820312 222.929688 761.992188 224.371094 C 764.152344 226.980469 764.601562 232.109375 764.601562 236.96875 Z M 832.820312 260.371094 C 832.371094 252.449219 832.371094 249.929688 832.191406 241.109375 L 832.191406 234.089844 C 832.101562 225.449219 832.011719 221.308594 829.761719 217.621094 C 826.96875 212.941406 821.839844 212.21875 818.601562 212.21875 C 813.109375 212.21875 808.339844 215.101562 804.199219 217.53125 L 804.378906 212.578125 L 803.480469 211.949219 C 796.550781 213.390625 795.019531 213.660156 788.269531 214.558594 L 787.730469 215.191406 C 788.449219 223.019531 788.992188 228.691406 788.992188 243.359375 C 788.992188 249.121094 788.898438 254.878906 788.808594 260.640625 L 789.351562 261.179688 C 795.832031 260.910156 797.179688 260.910156 804.378906 260.910156 L 804.921875 260.371094 C 804.378906 246.511719 804.289062 243 804.199219 226.890625 C 806.089844 225.628906 808.25 224.101562 811.128906 224.101562 C 816.082031 224.101562 816.53125 229.410156 816.800781 232.648438 C 816.980469 235.621094 817.070312 247.949219 817.070312 251.371094 C 817.070312 254.429688 816.980469 257.578125 816.980469 260.640625 L 817.519531 261.179688 C 823.460938 261 824.992188 260.910156 832.191406 260.910156 Z M 837.679688 261 "/>
<path fill-rule="nonzero" fill="rgb(34.901961%, 14.901961%, 14.901961%)" fill-opacity="1" d="M 433.175781 317.191406 C 424.535156 317.460938 422.734375 317.460938 413.105469 317.460938 L 412.472656 318 C 407.703125 333.300781 404.824219 342.390625 391.59375 380.371094 L 391.953125 381 L 405.992188 381 L 406.625 380.460938 L 411.035156 364.078125 L 430.472656 364.078125 L 434.34375 380.730469 L 434.972656 381.269531 C 441.542969 381 443.34375 380.910156 450.632812 381 L 451.085938 380.28125 C 440.195312 341.761719 438.933594 337.53125 433.804688 317.730469 L 433.175781 317.191406 M 414.183594 353.191406 L 418.683594 337.980469 L 421.835938 327.449219 L 424.535156 339.148438 L 427.863281 353.191406 Z M 482.855469 347.609375 L 485.375 332.941406 L 484.835938 332.308594 C 484.207031 332.308594 483.574219 332.21875 482.945312 332.21875 C 479.253906 332.21875 475.117188 334.289062 472.234375 340.949219 L 472.503906 332.671875 L 471.785156 331.949219 C 465.125 333.390625 463.414062 333.660156 456.84375 334.648438 L 456.304688 335.191406 C 456.84375 341.941406 457.117188 345.988281 457.117188 358.5 C 457.117188 365.878906 457.023438 373.261719 456.84375 380.730469 L 457.386719 381.269531 C 464.046875 381 465.484375 380.910156 472.683594 381 L 473.136719 380.371094 C 472.773438 373.078125 472.234375 362.910156 472.234375 356.699219 C 472.234375 352.648438 472.234375 346.710938 478.355469 346.710938 C 479.886719 346.710938 480.785156 347.25 482.046875 347.96875 Z M 530.554688 367.679688 C 527.136719 369.480469 523.085938 371.550781 516.515625 371.550781 C 511.117188 371.550781 507.425781 369.839844 505.265625 366.601562 C 503.914062 364.710938 503.644531 362.910156 503.285156 361.109375 L 532.355469 360.570312 L 532.894531 359.941406 C 532.804688 355.53125 532.714844 351.03125 531.457031 346.53125 C 528.304688 335.910156 521.375 333.75 518.316406 333.03125 C 516.066406 332.398438 513.996094 332.21875 511.925781 332.21875 C 497.796875 332.21875 488.433594 341.488281 488.433594 357.058594 C 488.433594 361.289062 489.15625 365.699219 490.59375 368.851562 C 495.816406 381 508.054688 382.078125 514.535156 382.078125 C 522.003906 382.078125 525.246094 380.730469 530.015625 378.839844 L 530.554688 378.121094 L 531.183594 367.949219 L 530.554688 367.679688 M 503.285156 351.570312 C 503.554688 348.78125 504.183594 345 507.605469 342.839844 C 508.683594 342.121094 509.945312 341.851562 511.207031 341.851562 C 514.175781 341.851562 515.976562 343.378906 516.964844 345 C 518.226562 346.980469 518.316406 349.140625 518.316406 351.210938 Z M 581.222656 354.179688 C 581.3125 346.078125 581.3125 342.570312 578.972656 338.789062 C 577.171875 335.910156 573.574219 332.308594 562.054688 332.308594 C 554.3125 332.308594 549.542969 333.75 544.414062 335.28125 L 543.875 336 L 543.421875 345.808594 L 544.144531 346.171875 C 547.292969 344.910156 553.144531 342.570312 559.171875 342.570312 C 562.503906 342.570312 563.851562 343.109375 565.023438 344.28125 C 565.921875 345.179688 566.195312 346.800781 566.195312 348.148438 C 555.394531 349.589844 550.351562 350.578125 544.953125 353.910156 C 539.914062 357.058594 538.203125 362.191406 538.203125 366.238281 C 538.203125 375.871094 545.132812 382.078125 553.953125 382.078125 C 560.703125 382.078125 564.574219 378.839844 566.464844 377.308594 L 566.464844 380.640625 L 567.003906 381.269531 C 573.484375 381 575.464844 380.910156 581.3125 381 L 581.761719 380.371094 C 581.132812 371.550781 581.132812 369.300781 581.132812 360.839844 L 581.222656 354.179688 M 566.375 368.488281 C 564.484375 369.570312 562.054688 370.828125 559.082031 370.828125 C 555.84375 370.828125 553.144531 369.121094 553.144531 365.339844 C 553.144531 359.398438 560.253906 358.410156 566.375 357.601562 Z M 586.355469 381 "/>
</svg>
