<?xml version="1.0" encoding="UTF-8"?>
<svg xmlns="http://www.w3.org/2000/svg" xmlns:xlink="http://www.w3.org/1999/xlink" width="975" height="1300" viewBox="0 0 975 1300">
<path fill-rule="nonzero" fill="rgb(98.823529%, 78.823529%, 9.019608%)" fill-opacity="1" d="M 50 50 L 925 50 L 925 410 L 50 410 Z M 50 50 "/>
<path fill-rule="nonzero" fill="rgb(34.901961%, 14.901961%, 14.901961%)" fill-opacity="1" d="M 321.84375 77.191406 C 312.484375 77.460938 310.953125 77.460938 300.964844 77.460938 L 300.425781 78 L 296.285156 92.578125 L 292.683594 105.628906 L 288.453125 121.289062 L 284.492188 105.179688 L 281.972656 95.011719 L 277.472656 77.730469 L 277.023438 77.191406 C 267.394531 77.460938 265.773438 77.460938 255.695312 77.460938 L 255.152344 78 C 254.253906 104.910156 253.894531 111.839844 251.914062 140.730469 L 252.363281 141.269531 C 258.125 141 259.835938 140.910156 265.054688 141 L 265.59375 140.460938 L 265.863281 123.269531 L 266.402344 105.808594 L 266.765625 88.800781 L 270.722656 104.730469 L 274.144531 117.511719 L 280.175781 140.730469 L 280.714844 141.269531 C 286.292969 141 287.824219 140.910156 294.125 141 L 294.664062 140.460938 L 299.882812 121.289062 L 303.484375 108.148438 L 308.523438 89.25 L 308.523438 105.359375 L 308.703125 119.128906 L 308.703125 140.730469 L 309.152344 141.269531 C 315.363281 141 317.792969 140.910156 324.722656 141 L 325.175781 140.460938 C 324.632812 130.199219 324.003906 119.851562 323.644531 109.5 C 323.375 103.828125 323.195312 98.160156 322.925781 92.488281 C 322.472656 84.121094 322.382812 83.039062 322.382812 77.730469 Z M 370.535156 128.039062 C 368.105469 129.480469 365.765625 130.921875 361.175781 130.921875 C 351.003906 130.921875 348.933594 122.460938 348.933594 117.058594 C 348.933594 110.488281 351.816406 102.929688 360.546875 102.929688 C 364.503906 102.929688 366.664062 104.371094 369.367188 106.171875 L 370.265625 105.898438 C 370.625 101.128906 370.714844 99.871094 371.433594 95.101562 L 370.984375 94.558594 C 367.023438 93.300781 363.605469 92.21875 358.386719 92.21875 C 337.234375 92.21875 333.09375 108.238281 333.09375 117.421875 C 333.09375 127.769531 338.496094 141.808594 358.746094 141.808594 C 363.515625 141.808594 366.574219 140.910156 370.355469 139.828125 L 370.894531 139.289062 L 371.253906 128.488281 Z M 417.15625 128.671875 C 407.34375 129.210938 399.515625 129.390625 396.816406 129.390625 L 395.015625 129.390625 C 394.835938 105.359375 394.925781 99.238281 395.644531 77.730469 L 395.105469 77.191406 C 387.363281 77.550781 385.292969 77.550781 379.085938 77.460938 L 378.542969 78 C 378.90625 85.199219 378.996094 87.359375 378.996094 98.070312 C 378.996094 112.289062 378.90625 126.511719 378.90625 140.730469 L 379.355469 141.269531 C 396.996094 141 400.234375 141 416.433594 141 L 416.882812 140.460938 L 417.605469 129.121094 Z M 465.394531 114.179688 C 465.484375 106.078125 465.484375 102.570312 463.144531 98.789062 C 461.34375 95.910156 457.746094 92.308594 446.226562 92.308594 C 438.484375 92.308594 433.714844 93.75 428.585938 95.28125 L 428.046875 96 L 427.59375 105.808594 L 428.316406 106.171875 C 431.464844 104.910156 437.316406 102.570312 443.34375 102.570312 C 446.675781 102.570312 448.023438 103.109375 449.195312 104.28125 C 450.09375 105.179688 450.367188 106.800781 450.367188 108.148438 C 439.566406 109.589844 434.523438 110.578125 429.125 113.910156 C 424.085938 117.058594 422.375 122.191406 422.375 126.238281 C 422.375 135.871094 429.304688 142.078125 438.125 142.078125 C 444.875 142.078125 448.746094 138.839844 450.636719 137.308594 L 450.636719 140.640625 L 451.175781 141.269531 C 457.65625 141 459.636719 140.910156 465.484375 141 L 465.933594 140.371094 C 465.304688 131.550781 465.304688 129.300781 465.304688 120.839844 L 465.394531 114.179688 M 450.546875 128.488281 C 448.65625 129.570312 446.226562 130.828125 443.253906 130.828125 C 440.015625 130.828125 437.316406 129.121094 437.316406 125.339844 C 437.316406 119.398438 444.425781 118.410156 450.546875 117.601562 Z M 519.125 92.851562 L 504.453125 93.570312 L 503.824219 94.109375 C 504.453125 104.28125 504.453125 118.679688 504.453125 120.121094 C 504.453125 122.730469 504.453125 124.171875 504.363281 127.769531 C 501.933594 129.390625 500.042969 130.738281 497.613281 130.738281 C 491.132812 130.738281 491.132812 123.898438 491.132812 118.589844 C 491.132812 116.339844 491.132812 114 491.222656 111.75 L 491.402344 93.570312 L 490.773438 92.851562 L 475.921875 93.570312 L 475.292969 94.109375 C 475.832031 101.671875 475.921875 104.191406 475.921875 113.28125 L 475.921875 119.578125 C 475.832031 129.390625 476.285156 133.53125 479.523438 137.308594 C 482.492188 140.640625 486.8125 142.078125 491.3125 142.078125 C 497.703125 142.078125 501.394531 139.199219 504.632812 136.679688 L 504.542969 140.730469 L 505.171875 141.269531 C 511.742188 141 513.722656 141 519.574219 141 L 520.113281 140.460938 C 519.664062 134.070312 519.484375 130.648438 519.484375 118.949219 C 519.484375 110.488281 519.574219 102.03125 519.753906 93.570312 Z M 546.84375 125.789062 C 549.722656 125.878906 552.601562 126.058594 556.921875 124.621094 C 561.601562 123 568.441406 119.128906 568.441406 110.398438 C 568.441406 106.078125 567.183594 104.28125 566.011719 102.570312 L 572.222656 102.929688 L 572.761719 102.480469 L 573.394531 93.480469 L 572.851562 93.03125 C 565.921875 93.300781 564.03125 93.390625 558.363281 93.300781 L 554.222656 93.210938 C 547.832031 93.03125 539.28125 92.851562 533.433594 97.710938 C 531.453125 99.238281 527.671875 103.109375 527.671875 109.859375 C 527.671875 113.460938 528.664062 116.339844 530.28125 118.589844 C 532.261719 121.378906 534.0625 122.371094 536.3125 123.628906 C 533.792969 128.488281 532.441406 130.921875 530.371094 134.609375 L 530.371094 135.421875 L 534.152344 138.121094 C 531.453125 140.191406 527.222656 143.609375 527.222656 149.460938 C 527.222656 153.601562 529.472656 157.199219 532.804688 159.628906 C 537.84375 163.230469 544.683594 163.410156 548.191406 163.410156 C 564.664062 163.410156 572.222656 155.128906 572.222656 146.398438 C 572.222656 135.058594 562.324219 132.898438 556.472656 131.550781 L 554.3125 131.191406 C 549.902344 130.46875 548.914062 130.199219 545.402344 128.941406 L 546.84375 125.789062 M 554.222656 109.589844 C 554.132812 116.878906 549.722656 117.511719 548.460938 117.511719 C 547.742188 117.511719 544.59375 117.328125 543.0625 113.730469 C 542.253906 111.839844 542.253906 109.679688 542.253906 109.050781 C 542.253906 104.550781 544.953125 101.671875 548.28125 101.671875 C 552.421875 101.671875 554.3125 105.628906 554.222656 109.589844 M 546.574219 143.160156 C 554.582031 145.230469 554.671875 145.230469 555.753906 146.128906 C 556.652344 146.761719 557.554688 147.75 557.554688 149.640625 C 557.554688 152.339844 555.304688 155.128906 549.363281 155.128906 C 542.703125 155.128906 540.453125 151.351562 540.453125 148.199219 C 540.453125 145.230469 541.984375 143.519531 543.0625 142.261719 Z M 623.164062 140.371094 C 622.804688 132.988281 622.714844 130.46875 622.535156 121.109375 L 622.535156 114.359375 C 622.445312 105.808594 622.355469 100.859375 619.742188 97.078125 C 617.132812 93.390625 613.355469 92.21875 609.394531 92.21875 C 602.824219 92.21875 597.695312 95.371094 594.09375 97.53125 L 594.363281 69.808594 L 593.824219 69.179688 L 578.433594 71.609375 L 577.984375 72.148438 C 578.792969 80.878906 578.972656 84.121094 579.152344 95.730469 C 579.335938 103.019531 579.425781 110.308594 579.425781 117.601562 C 579.425781 126.511719 579.242188 131.820312 579.0625 140.640625 L 579.515625 141.269531 C 586.175781 140.910156 587.523438 140.910156 594.8125 140.910156 L 595.355469 140.371094 C 594.722656 126.871094 594.632812 122.820312 594.542969 106.890625 C 596.253906 105.71875 598.414062 104.191406 601.472656 104.191406 C 606.425781 104.191406 606.785156 109.320312 607.144531 112.921875 C 607.324219 115.710938 607.414062 128.488281 607.414062 131.820312 C 607.414062 134.789062 607.324219 137.671875 607.324219 140.640625 L 607.773438 141.269531 C 614.253906 140.910156 615.695312 140.910156 622.625 140.910156 Z M 649.261719 140.371094 C 648.8125 130.019531 648.363281 120.570312 648.363281 92.128906 C 648.363281 83.578125 648.453125 79.53125 648.8125 69.808594 L 648.183594 69.179688 L 632.792969 71.609375 L 632.433594 72.148438 C 633.332031 83.128906 633.421875 86.101562 633.601562 100.679688 C 633.695312 105.988281 633.695312 111.300781 633.695312 116.609375 C 633.695312 126.328125 633.511719 131.730469 633.152344 140.640625 L 633.695312 141.269531 C 639.722656 141 642.152344 140.910156 648.722656 141 Z M 675.996094 140.371094 C 675.542969 133.441406 675.183594 128.128906 675.183594 115.710938 C 675.183594 108.058594 675.363281 100.320312 675.453125 92.671875 L 674.824219 91.949219 L 659.34375 94.648438 L 658.804688 95.191406 C 659.523438 102.03125 659.792969 105.179688 659.792969 117.960938 C 659.792969 127.769531 659.523438 133.261719 659.253906 140.640625 L 659.792969 141.269531 C 666.273438 141 668.074219 140.910156 675.363281 141 L 675.996094 140.371094 M 674.554688 83.308594 L 674.824219 71.070312 L 674.285156 70.53125 L 659.613281 72.328125 L 659.074219 72.960938 C 659.253906 76.199219 659.34375 78.089844 659.34375 80.25 C 659.34375 81.960938 659.34375 83.761719 659.253906 85.46875 L 659.882812 86.011719 C 666.003906 84.929688 667.714844 84.75 674.105469 83.941406 Z M 730.085938 140.371094 C 729.636719 132.449219 729.636719 129.929688 729.457031 121.109375 L 729.457031 114.089844 C 729.367188 105.449219 729.277344 101.308594 727.027344 97.621094 C 724.234375 92.941406 719.105469 92.21875 715.867188 92.21875 C 710.375 92.21875 705.605469 95.101562 701.464844 97.53125 L 701.644531 92.578125 L 700.746094 91.949219 C 693.816406 93.390625 692.285156 93.660156 685.535156 94.558594 L 684.996094 95.191406 C 685.714844 103.019531 686.257812 108.691406 686.257812 123.359375 C 686.257812 129.121094 686.164062 134.878906 686.074219 140.640625 L 686.617188 141.179688 C 693.097656 140.910156 694.445312 140.910156 701.644531 140.910156 L 702.1875 140.371094 C 701.644531 126.511719 701.554688 123 701.464844 106.890625 C 703.355469 105.628906 705.515625 104.101562 708.394531 104.101562 C 713.347656 104.101562 713.796875 109.410156 714.066406 112.648438 C 714.246094 115.621094 714.335938 127.949219 714.335938 131.371094 C 714.335938 134.429688 714.246094 137.578125 714.246094 140.640625 L 714.785156 141.179688 C 720.726562 141 722.257812 140.910156 729.457031 140.910156 Z M 734.945312 141 "/>
<path fill-rule="nonzero" fill="rgb(34.901961%, 14.901961%, 14.901961%)" fill-opacity="1" d="M 100.671875 248.851562 C 90.050781 249.390625 87.53125 249.480469 76.011719 249.480469 L 75.832031 233.730469 L 96.890625 233.730469 L 97.519531 233.191406 L 98.0625 223.019531 L 97.609375 222.480469 L 75.832031 222.839844 L 75.832031 208.53125 C 86 208.53125 88.070312 208.53125 98.960938 208.800781 L 99.410156 208.261719 L 100.039062 197.820312 L 99.589844 197.460938 L 60.082031 197.460938 L 59.539062 198 C 60.082031 206.730469 60.261719 210.058594 60.261719 234.179688 C 60.261719 245.519531 60.082031 251.191406 59.8125 260.640625 L 60.261719 261 L 99.859375 261 L 100.582031 260.460938 L 101.210938 249.480469 Z M 149.988281 234.179688 C 150.078125 226.078125 150.078125 222.570312 147.738281 218.789062 C 145.9375 215.910156 142.339844 212.308594 130.820312 212.308594 C 123.078125 212.308594 118.308594 213.75 113.179688 215.28125 L 112.640625 216 L 112.1875 225.808594 L 112.910156 226.171875 C 116.058594 224.910156 121.910156 222.570312 127.9375 222.570312 C 131.269531 222.570312 132.617188 223.109375 133.789062 224.28125 C 134.6875 225.179688 134.960938 226.800781 134.960938 228.148438 C 124.160156 229.589844 119.117188 230.578125 113.71875 233.910156 C 108.679688 237.058594 106.96875 242.191406 106.96875 246.238281 C 106.96875 255.871094 113.898438 262.078125 122.71875 262.078125 C 129.46875 262.078125 133.339844 258.839844 135.230469 257.308594 L 135.230469 260.640625 L 135.769531 261.269531 C 142.25 261 144.230469 260.910156 150.078125 261 L 150.527344 260.371094 C 149.898438 251.550781 149.898438 249.300781 149.898438 240.839844 L 149.988281 234.179688 M 135.140625 248.488281 C 133.25 249.570312 130.820312 250.828125 127.847656 250.828125 C 124.609375 250.828125 121.910156 249.121094 121.910156 245.339844 C 121.910156 239.398438 129.019531 238.410156 135.140625 237.601562 Z M 179.421875 229.949219 C 176.359375 228.871094 173.929688 227.878906 173.929688 225.359375 C 173.929688 224.28125 174.652344 221.308594 180.230469 221.308594 C 185.722656 221.308594 189.230469 223.648438 191.480469 225.089844 L 192.292969 224.820312 L 193.191406 215.011719 L 192.742188 214.46875 C 188.511719 213.300781 184.820312 212.21875 178.972656 212.21875 C 174.5625 212.21875 165.742188 212.578125 161.0625 219.328125 C 159.890625 220.949219 158.632812 223.648438 158.632812 227.25 C 158.632812 236.878906 166.101562 239.761719 170.332031 241.378906 L 173.75 242.640625 C 176.179688 243.449219 180.140625 244.800781 180.140625 248.039062 C 180.140625 250.289062 178.070312 252.71875 173.03125 252.71875 C 170.511719 252.71875 166.820312 251.910156 163.492188 250.199219 C 161.960938 249.390625 161.242188 248.761719 159.890625 247.679688 L 159.082031 248.039062 C 158.902344 252.71875 158.8125 253.710938 158.449219 258.210938 L 158.902344 259.019531 C 163.3125 260.640625 167.089844 262.078125 173.660156 262.078125 C 180.5 262.078125 194 260.820312 195.621094 247.949219 C 195.710938 247.230469 195.710938 246.601562 195.710938 245.96875 C 195.710938 236.070312 188.78125 233.460938 183.832031 231.570312 Z M 228.832031 250.648438 C 227.300781 251.101562 226.21875 251.460938 224.691406 251.460938 C 220.101562 251.460938 219.742188 248.578125 219.558594 247.230469 C 219.289062 244.890625 219.289062 239.941406 219.378906 236.339844 L 219.558594 223.648438 L 227.660156 224.011719 L 228.199219 223.46875 L 229.101562 213.839844 L 228.558594 213.300781 L 219.558594 213.300781 L 219.832031 198.179688 L 219.199219 197.640625 C 213.082031 199.441406 211.460938 199.890625 205.070312 201.511719 L 204.710938 202.140625 L 204.800781 213.390625 L 199.941406 213.210938 L 199.402344 213.660156 L 198.589844 223.289062 L 199.128906 223.828125 L 204.800781 223.648438 L 204.53125 237.960938 C 204.441406 240.210938 204.351562 242.460938 204.351562 244.800781 C 204.351562 253.078125 204.53125 261.988281 218.570312 261.988281 C 222.082031 261.988281 224.871094 261.449219 228.019531 260.910156 L 228.652344 260.28125 L 229.550781 251.011719 Z M 254.390625 229.949219 C 251.328125 228.871094 248.898438 227.878906 248.898438 225.359375 C 248.898438 224.28125 249.621094 221.308594 255.199219 221.308594 C 260.691406 221.308594 264.199219 223.648438 266.449219 225.089844 L 267.261719 224.820312 L 268.160156 215.011719 L 267.710938 214.46875 C 263.480469 213.300781 259.789062 212.21875 253.941406 212.21875 C 249.53125 212.21875 240.710938 212.578125 236.03125 219.328125 C 234.859375 220.949219 233.601562 223.648438 233.601562 227.25 C 233.601562 236.878906 241.070312 239.761719 245.300781 241.378906 L 248.71875 242.640625 C 251.148438 243.449219 255.109375 244.800781 255.109375 248.039062 C 255.109375 250.289062 253.039062 252.71875 248 252.71875 C 245.480469 252.71875 241.789062 251.910156 238.460938 250.199219 C 236.929688 249.390625 236.210938 248.761719 234.859375 247.679688 L 234.050781 248.039062 C 233.871094 252.71875 233.78125 253.710938 233.417969 258.210938 L 233.871094 259.019531 C 238.28125 260.640625 242.058594 262.078125 248.628906 262.078125 C 255.46875 262.078125 268.96875 260.820312 270.589844 247.949219 C 270.679688 247.230469 270.679688 246.601562 270.679688 245.96875 C 270.679688 236.070312 263.75 233.460938 258.800781 231.570312 Z M 322.699219 260.371094 C 322.339844 252.988281 322.25 250.46875 322.070312 241.109375 L 322.070312 234.359375 C 321.980469 225.808594 321.890625 220.859375 319.277344 217.078125 C 316.667969 213.390625 312.890625 212.21875 308.929688 212.21875 C 302.359375 212.21875 297.230469 215.371094 293.628906 217.53125 L 293.898438 189.808594 L 293.359375 189.179688 L 277.96875 191.609375 L 277.519531 192.148438 C 278.328125 200.878906 278.507812 204.121094 278.6875 215.730469 C 278.871094 223.019531 278.960938 230.308594 278.960938 237.601562 C 278.960938 246.511719 278.777344 251.820312 278.597656 260.640625 L 279.050781 261.269531 C 285.710938 260.910156 287.058594 260.910156 294.347656 260.910156 L 294.890625 260.371094 C 294.257812 246.871094 294.167969 242.820312 294.078125 226.890625 C 295.789062 225.71875 297.949219 224.191406 301.007812 224.191406 C 305.960938 224.191406 306.320312 229.320312 306.679688 232.921875 C 306.859375 235.710938 306.949219 248.488281 306.949219 251.820312 C 306.949219 254.789062 306.859375 257.671875 306.859375 260.640625 L 307.308594 261.269531 C 313.789062 260.910156 315.230469 260.910156 322.160156 260.910156 Z M 378.773438 237.058594 C 378.773438 233.550781 378.773438 218.96875 366.171875 214.019531 C 362.210938 212.488281 357.53125 212.308594 355.191406 212.308594 C 339.53125 212.308594 330.710938 220.679688 330.710938 237.238281 C 330.710938 243 331.613281 248.851562 334.941406 253.710938 C 337.28125 257.21875 341.691406 262.078125 354.5625 262.078125 C 373.640625 262.078125 378.773438 250.558594 378.773438 237.058594 M 363.203125 236.96875 C 363.203125 244.351562 362.210938 252.539062 354.742188 252.539062 C 352.402344 252.539062 350.78125 251.460938 349.703125 250.46875 C 348.171875 248.941406 346.460938 245.878906 346.460938 237.148438 C 346.460938 234.539062 346.460938 228.78125 348.261719 225.628906 C 349.613281 223.199219 351.953125 221.578125 354.832031 221.578125 C 357.351562 221.578125 359.421875 222.929688 360.59375 224.371094 C 362.753906 226.980469 363.203125 232.109375 363.203125 236.96875 Z M 413.332031 227.609375 L 415.851562 212.941406 L 415.3125 212.308594 C 414.683594 212.308594 414.050781 212.21875 413.421875 212.21875 C 409.730469 212.21875 405.59375 214.289062 402.710938 220.949219 L 402.980469 212.671875 L 402.261719 211.949219 C 395.601562 213.390625 393.890625 213.660156 387.320312 214.648438 L 386.78125 215.191406 C 387.320312 221.941406 387.59375 225.988281 387.59375 238.5 C 387.59375 245.878906 387.5 253.261719 387.320312 260.730469 L 387.863281 261.269531 C 394.523438 261 395.960938 260.910156 403.160156 261 L 403.613281 260.371094 C 403.25 253.078125 402.710938 242.910156 402.710938 236.699219 C 402.710938 232.648438 402.710938 226.710938 408.832031 226.710938 C 410.363281 226.710938 411.261719 227.25 412.523438 227.96875 Z M 461.03125 247.679688 C 457.613281 249.480469 453.5625 251.550781 446.992188 251.550781 C 441.59375 251.550781 437.902344 249.839844 435.742188 246.601562 C 434.390625 244.710938 434.121094 242.910156 433.761719 241.109375 L 462.832031 240.570312 L 463.371094 239.941406 C 463.28125 235.53125 463.191406 231.03125 461.933594 226.53125 C 458.78125 215.910156 451.851562 213.75 448.792969 213.03125 C 446.542969 212.398438 444.472656 212.21875 442.402344 212.21875 C 428.273438 212.21875 418.910156 221.488281 418.910156 237.058594 C 418.910156 241.289062 419.632812 245.699219 421.070312 248.851562 C 426.292969 261 438.53125 262.078125 445.011719 262.078125 C 452.480469 262.078125 455.722656 260.730469 460.492188 258.839844 L 461.03125 258.121094 L 461.660156 247.949219 L 461.03125 247.679688 M 433.761719 231.570312 C 434.03125 228.78125 434.660156 225 438.082031 222.839844 C 439.160156 222.121094 440.421875 221.851562 441.683594 221.851562 C 444.652344 221.851562 446.453125 223.378906 447.441406 225 C 448.703125 226.980469 448.792969 229.140625 448.792969 231.210938 Z M 523.941406 222.300781 C 516.382812 219.148438 512.421875 217.53125 512.421875 213.480469 C 512.421875 210.691406 515.03125 207.179688 520.972656 207.179688 C 527.8125 207.179688 531.859375 209.96875 535.191406 212.21875 L 536 211.859375 L 536.722656 200.070312 L 536.269531 199.441406 C 532.402344 197.820312 528.351562 196.109375 519.621094 196.109375 C 502.703125 196.109375 496.851562 205.648438 496.851562 215.28125 C 496.851562 226.171875 505.3125 230.128906 510.351562 232.558594 L 513.320312 233.910156 C 519.53125 236.519531 524.300781 238.769531 524.300781 243.539062 C 524.300781 246.960938 521.332031 251.011719 513.5 251.011719 C 505.3125 251.011719 500.722656 247.410156 498.109375 245.339844 L 497.210938 245.609375 L 496.582031 258.300781 L 497.121094 259.019531 C 498.109375 259.378906 499.101562 259.828125 500.089844 260.101562 C 502.160156 260.820312 507.472656 262.351562 514.222656 262.351562 C 516.921875 262.351562 523.761719 262.078125 529.160156 259.558594 C 536.722656 255.871094 539.960938 249.03125 539.960938 241.378906 C 539.960938 236.25 537.980469 230.761719 533.210938 227.070312 C 530.78125 225.269531 528.441406 224.191406 526.28125 223.199219 Z M 573.710938 250.648438 C 572.179688 251.101562 571.097656 251.460938 569.570312 251.460938 C 564.980469 251.460938 564.621094 248.578125 564.4375 247.230469 C 564.167969 244.890625 564.167969 239.941406 564.257812 236.339844 L 564.4375 223.648438 L 572.539062 224.011719 L 573.078125 223.46875 L 573.980469 213.839844 L 573.4375 213.300781 L 564.4375 213.300781 L 564.710938 198.179688 L 564.078125 197.640625 C 557.960938 199.441406 556.339844 199.890625 549.949219 201.511719 L 549.589844 202.140625 L 549.679688 213.390625 L 544.820312 213.210938 L 544.28125 213.660156 L 543.46875 223.289062 L 544.007812 223.828125 L 549.679688 223.648438 L 549.410156 237.960938 C 549.320312 240.210938 549.230469 242.460938 549.230469 244.800781 C 549.230469 253.078125 549.410156 261.988281 563.449219 261.988281 C 566.960938 261.988281 569.75 261.449219 572.898438 260.910156 L 573.53125 260.28125 L 574.429688 251.011719 Z M 620.421875 234.179688 C 620.511719 226.078125 620.511719 222.570312 618.171875 218.789062 C 616.371094 215.910156 612.773438 212.308594 601.253906 212.308594 C 593.511719 212.308594 588.742188 213.75 583.613281 215.28125 L 583.074219 216 L 582.621094 225.808594 L 583.34375 226.171875 C 586.492188 224.910156 592.34375 222.570312 598.371094 222.570312 C 601.703125 222.570312 603.050781 223.109375 604.222656 224.28125 C 605.121094 225.179688 605.394531 226.800781 605.394531 228.148438 C 594.59375 229.589844 589.550781 230.578125 584.152344 233.910156 C 579.113281 237.058594 577.402344 242.191406 577.402344 246.238281 C 577.402344 255.871094 584.332031 262.078125 593.152344 262.078125 C 599.902344 262.078125 603.773438 258.839844 605.664062 257.308594 L 605.664062 260.640625 L 606.203125 261.269531 C 612.683594 261 614.664062 260.910156 620.511719 261 L 620.960938 260.371094 C 620.332031 251.550781 620.332031 249.300781 620.332031 240.839844 L 620.421875 234.179688 M 605.574219 248.488281 C 603.683594 249.570312 601.253906 250.828125 598.28125 250.828125 C 595.042969 250.828125 592.34375 249.121094 592.34375 245.339844 C 592.34375 239.398438 599.453125 238.410156 605.574219 237.601562 Z M 656.152344 250.648438 C 654.621094 251.101562 653.539062 251.460938 652.011719 251.460938 C 647.421875 251.460938 647.0625 248.578125 646.878906 247.230469 C 646.609375 244.890625 646.609375 239.941406 646.699219 236.339844 L 646.878906 223.648438 L 654.980469 224.011719 L 655.519531 223.46875 L 656.421875 213.839844 L 655.878906 213.300781 L 646.878906 213.300781 L 647.152344 198.179688 L 646.519531 197.640625 C 640.402344 199.441406 638.78125 199.890625 632.390625 201.511719 L 632.03125 202.140625 L 632.121094 213.390625 L 627.261719 213.210938 L 626.722656 213.660156 L 625.910156 223.289062 L 626.449219 223.828125 L 632.121094 223.648438 L 631.851562 237.960938 C 631.761719 240.210938 631.671875 242.460938 631.671875 244.800781 C 631.671875 253.078125 631.851562 261.988281 645.890625 261.988281 C 649.402344 261.988281 652.191406 261.449219 655.339844 260.910156 L 655.972656 260.28125 L 656.871094 251.011719 Z M 702.769531 247.679688 C 699.351562 249.480469 695.300781 251.550781 688.730469 251.550781 C 683.332031 251.550781 679.640625 249.839844 677.480469 246.601562 C 676.128906 244.710938 675.859375 242.910156 675.5 241.109375 L 704.570312 240.570312 L 705.109375 239.941406 C 705.019531 235.53125 704.929688 231.03125 703.671875 226.53125 C 700.519531 215.910156 693.589844 213.75 690.53125 213.03125 C 688.28125 212.398438 686.210938 212.21875 684.140625 212.21875 C 670.011719 212.21875 660.648438 221.488281 660.648438 237.058594 C 660.648438 241.289062 661.371094 245.699219 662.808594 248.851562 C 668.03125 261 680.269531 262.078125 686.75 262.078125 C 694.21875 262.078125 697.460938 260.730469 702.230469 258.839844 L 702.769531 258.121094 L 703.398438 247.949219 L 702.769531 247.679688 M 675.5 231.570312 C 675.769531 228.78125 676.398438 225 679.820312 222.839844 C 680.898438 222.121094 682.160156 221.851562 683.421875 221.851562 C 686.390625 221.851562 688.191406 223.378906 689.179688 225 C 690.441406 226.980469 690.53125 229.140625 690.53125 231.210938 Z M 751.730469 197.28125 L 740.300781 197.460938 L 739.757812 198 C 740.121094 209.699219 740.390625 217.53125 740.390625 227.878906 C 740.390625 238.859375 740.121094 249.75 739.847656 260.730469 L 740.390625 261.269531 C 747.050781 261 748.488281 260.910156 755.691406 261 L 756.140625 260.460938 C 755.78125 250.648438 755.78125 248.398438 755.78125 239.21875 C 765.859375 239.308594 776.660156 239.308594 783.140625 231.390625 C 785.660156 228.328125 787.820312 223.199219 787.820312 216.898438 C 787.820312 213.03125 786.917969 204.480469 779.449219 200.25 C 774.050781 197.101562 766.398438 197.101562 759.648438 197.101562 L 751.730469 197.28125 M 755.78125 208.171875 C 757.757812 208.078125 759.648438 208.078125 761.628906 208.078125 C 769.550781 208.261719 771.710938 212.308594 771.710938 217.53125 C 771.710938 218.789062 771.710938 224.011719 766.941406 226.621094 C 764.507812 227.96875 761.179688 228.148438 755.78125 228.148438 Z M 834.082031 234.179688 C 834.171875 226.078125 834.171875 222.570312 831.832031 218.789062 C 830.03125 215.910156 826.433594 212.308594 814.914062 212.308594 C 807.171875 212.308594 802.402344 213.75 797.273438 215.28125 L 796.734375 216 L 796.28125 225.808594 L 797.003906 226.171875 C 800.152344 224.910156 806.003906 222.570312 812.03125 222.570312 C 815.363281 222.570312 816.710938 223.109375 817.882812 224.28125 C 818.78125 225.179688 819.054688 226.800781 819.054688 228.148438 C 808.253906 229.589844 803.210938 230.578125 797.8125 233.910156 C 792.773438 237.058594 791.0625 242.191406 791.0625 246.238281 C 791.0625 255.871094 797.992188 262.078125 806.8125 262.078125 C 813.5625 262.078125 817.433594 258.839844 819.324219 257.308594 L 819.324219 260.640625 L 819.863281 261.269531 C 826.34375 261 828.324219 260.910156 834.171875 261 L 834.621094 260.371094 C 833.992188 251.550781 833.992188 249.300781 833.992188 240.839844 L 834.082031 234.179688 M 819.234375 248.488281 C 817.34375 249.570312 814.914062 250.828125 811.941406 250.828125 C 808.703125 250.828125 806.003906 249.121094 806.003906 245.339844 C 806.003906 239.398438 813.113281 238.410156 819.234375 237.601562 Z M 870.621094 227.609375 L 873.140625 212.941406 L 872.601562 212.308594 C 871.972656 212.308594 871.339844 212.21875 870.710938 212.21875 C 867.019531 212.21875 862.882812 214.289062 860 220.949219 L 860.269531 212.671875 L 859.550781 211.949219 C 852.890625 213.390625 851.179688 213.660156 844.609375 214.648438 L 844.070312 215.191406 C 844.609375 221.941406 844.882812 225.988281 844.882812 238.5 C 844.882812 245.878906 844.789062 253.261719 844.609375 260.730469 L 845.152344 261.269531 C 851.8125 261 853.25 260.910156 860.449219 261 L 860.902344 260.371094 C 860.539062 253.078125 860 242.910156 860 236.699219 C 860 232.648438 860 226.710938 866.121094 226.710938 C 867.652344 226.710938 868.550781 227.25 869.8125 227.96875 Z M 924.621094 259.828125 C 916.160156 245.519531 915.261719 243.898438 908.421875 231.570312 C 914.632812 223.109375 915.261719 222.210938 921.652344 214.019531 L 921.199219 213.121094 L 906.53125 213.300781 L 905.632812 213.929688 C 898.609375 226.078125 897.710938 227.519531 893.570312 233.730469 L 893.570312 223.738281 C 893.660156 206.910156 893.75 203.308594 894.199219 189.71875 L 893.480469 189.179688 L 877.820312 191.519531 L 877.28125 192.148438 C 877.910156 200.878906 878.179688 205.109375 878.359375 216.898438 C 878.539062 231.480469 878.539062 246.058594 878.449219 260.640625 L 879.082031 261.269531 C 885.109375 261 886.820312 261 893.660156 261 L 894.199219 260.371094 L 893.660156 245.160156 L 893.570312 234.808594 C 901.402344 249.210938 902.390625 251.191406 906.980469 260.730469 L 907.789062 261.269531 L 923.992188 260.640625 Z M 923.539062 261 "/>
<path fill-rule="nonzero" fill="rgb(34.901961%, 14.901961%, 14.901961%)" fill-opacity="1" d="M 206.554688 342.300781 C 198.996094 339.148438 195.035156 337.53125 195.035156 333.480469 C 195.035156 330.691406 197.644531 327.179688 203.585938 327.179688 C 210.425781 327.179688 214.472656 329.96875 217.804688 332.21875 L 218.613281 331.859375 L 219.335938 320.070312 L 218.882812 319.441406 C 215.015625 317.820312 210.964844 316.109375 202.234375 316.109375 C 185.316406 316.109375 179.464844 325.648438 179.464844 335.28125 C 179.464844 346.171875 187.925781 350.128906 192.964844 352.558594 L 195.933594 353.910156 C 202.144531 356.519531 206.914062 358.769531 206.914062 363.539062 C 206.914062 366.960938 203.945312 371.011719 196.113281 371.011719 C 187.925781 371.011719 183.335938 367.410156 180.722656 365.339844 L 179.824219 365.609375 L 179.195312 378.300781 L 179.734375 379.019531 C 180.722656 379.378906 181.714844 379.828125 182.703125 380.101562 C 184.773438 380.820312 190.085938 382.351562 196.835938 382.351562 C 199.535156 382.351562 206.375 382.078125 211.773438 379.558594 C 219.335938 375.871094 222.574219 369.03125 222.574219 361.378906 C 222.574219 356.25 220.59375 350.761719 215.824219 347.070312 C 213.394531 345.269531 211.054688 344.191406 208.894531 343.199219 Z M 256.324219 370.648438 C 254.792969 371.101562 253.710938 371.460938 252.183594 371.460938 C 247.59375 371.460938 247.234375 368.578125 247.050781 367.230469 C 246.78125 364.890625 246.78125 359.941406 246.871094 356.339844 L 247.050781 343.648438 L 255.152344 344.011719 L 255.691406 343.46875 L 256.59375 333.839844 L 256.050781 333.300781 L 247.050781 333.300781 L 247.324219 318.179688 L 246.691406 317.640625 C 240.574219 319.441406 238.953125 319.890625 232.5625 321.511719 L 232.203125 322.140625 L 232.292969 333.390625 L 227.433594 333.210938 L 226.894531 333.660156 L 226.082031 343.289062 L 226.621094 343.828125 L 232.292969 343.648438 L 232.023438 357.960938 C 231.933594 360.210938 231.84375 362.460938 231.84375 364.800781 C 231.84375 373.078125 232.023438 381.988281 246.0625 381.988281 C 249.574219 381.988281 252.363281 381.449219 255.511719 380.910156 L 256.144531 380.28125 L 257.042969 371.011719 Z M 303.035156 354.179688 C 303.125 346.078125 303.125 342.570312 300.785156 338.789062 C 298.984375 335.910156 295.386719 332.308594 283.867188 332.308594 C 276.125 332.308594 271.355469 333.75 266.226562 335.28125 L 265.6875 336 L 265.234375 345.808594 L 265.957031 346.171875 C 269.105469 344.910156 274.957031 342.570312 280.984375 342.570312 C 284.316406 342.570312 285.664062 343.109375 286.835938 344.28125 C 287.734375 345.179688 288.007812 346.800781 288.007812 348.148438 C 277.207031 349.589844 272.164062 350.578125 266.765625 353.910156 C 261.726562 357.058594 260.015625 362.191406 260.015625 366.238281 C 260.015625 375.871094 266.945312 382.078125 275.765625 382.078125 C 282.515625 382.078125 286.386719 378.839844 288.277344 377.308594 L 288.277344 380.640625 L 288.816406 381.269531 C 295.296875 381 297.277344 380.910156 303.125 381 L 303.574219 380.371094 C 302.945312 371.550781 302.945312 369.300781 302.945312 360.839844 L 303.035156 354.179688 M 288.1875 368.488281 C 286.296875 369.570312 283.867188 370.828125 280.894531 370.828125 C 277.65625 370.828125 274.957031 369.121094 274.957031 365.339844 C 274.957031 359.398438 282.066406 358.410156 288.1875 357.601562 Z M 338.765625 370.648438 C 337.234375 371.101562 336.152344 371.460938 334.625 371.460938 C 330.035156 371.460938 329.675781 368.578125 329.492188 367.230469 C 329.222656 364.890625 329.222656 359.941406 329.3125 356.339844 L 329.492188 343.648438 L 337.59375 344.011719 L 338.132812 343.46875 L 339.035156 333.839844 L 338.492188 333.300781 L 329.492188 333.300781 L 329.765625 318.179688 L 329.132812 317.640625 C 323.015625 319.441406 321.394531 319.890625 315.003906 321.511719 L 314.644531 322.140625 L 314.734375 333.390625 L 309.875 333.210938 L 309.335938 333.660156 L 308.523438 343.289062 L 309.0625 343.828125 L 314.734375 343.648438 L 314.464844 357.960938 C 314.375 360.210938 314.285156 362.460938 314.285156 364.800781 C 314.285156 373.078125 314.464844 381.988281 328.503906 381.988281 C 332.015625 381.988281 334.804688 381.449219 337.953125 380.910156 L 338.585938 380.28125 L 339.484375 371.011719 Z M 385.382812 367.679688 C 381.964844 369.480469 377.914062 371.550781 371.34375 371.550781 C 365.945312 371.550781 362.253906 369.839844 360.09375 366.601562 C 358.742188 364.710938 358.472656 362.910156 358.113281 361.109375 L 387.183594 360.570312 L 387.722656 359.941406 C 387.632812 355.53125 387.542969 351.03125 386.285156 346.53125 C 383.132812 335.910156 376.203125 333.75 373.144531 333.03125 C 370.894531 332.398438 368.824219 332.21875 366.753906 332.21875 C 352.625 332.21875 343.261719 341.488281 343.261719 357.058594 C 343.261719 361.289062 343.984375 365.699219 345.421875 368.851562 C 350.644531 381 362.882812 382.078125 369.363281 382.078125 C 376.832031 382.078125 380.074219 380.730469 384.84375 378.839844 L 385.382812 378.121094 L 386.011719 367.949219 L 385.382812 367.679688 M 358.113281 351.570312 C 358.382812 348.78125 359.011719 345 362.433594 342.839844 C 363.511719 342.121094 364.773438 341.851562 366.035156 341.851562 C 369.003906 341.851562 370.804688 343.378906 371.792969 345 C 373.054688 346.980469 373.144531 349.140625 373.144531 351.210938 Z M 448.292969 342.300781 C 440.734375 339.148438 436.773438 337.53125 436.773438 333.480469 C 436.773438 330.691406 439.382812 327.179688 445.324219 327.179688 C 452.164062 327.179688 456.210938 329.96875 459.542969 332.21875 L 460.351562 331.859375 L 461.074219 320.070312 L 460.621094 319.441406 C 456.753906 317.820312 452.703125 316.109375 443.972656 316.109375 C 427.054688 316.109375 421.203125 325.648438 421.203125 335.28125 C 421.203125 346.171875 429.664062 350.128906 434.703125 352.558594 L 437.671875 353.910156 C 443.882812 356.519531 448.652344 358.769531 448.652344 363.539062 C 448.652344 366.960938 445.683594 371.011719 437.851562 371.011719 C 429.664062 371.011719 425.074219 367.410156 422.460938 365.339844 L 421.5625 365.609375 L 420.933594 378.300781 L 421.472656 379.019531 C 422.460938 379.378906 423.453125 379.828125 424.441406 380.101562 C 426.511719 380.820312 431.824219 382.351562 438.574219 382.351562 C 441.273438 382.351562 448.113281 382.078125 453.511719 379.558594 C 461.074219 375.871094 464.3125 369.03125 464.3125 361.378906 C 464.3125 356.25 462.332031 350.761719 457.5625 347.070312 C 455.132812 345.269531 452.792969 344.191406 450.632812 343.199219 Z M 512.824219 367.679688 C 509.40625 369.480469 505.355469 371.550781 498.785156 371.550781 C 493.386719 371.550781 489.695312 369.839844 487.535156 366.601562 C 486.183594 364.710938 485.914062 362.910156 485.554688 361.109375 L 514.625 360.570312 L 515.164062 359.941406 C 515.074219 355.53125 514.984375 351.03125 513.726562 346.53125 C 510.574219 335.910156 503.644531 333.75 500.585938 333.03125 C 498.335938 332.398438 496.265625 332.21875 494.195312 332.21875 C 480.066406 332.21875 470.703125 341.488281 470.703125 357.058594 C 470.703125 361.289062 471.425781 365.699219 472.863281 368.851562 C 478.085938 381 490.324219 382.078125 496.804688 382.078125 C 504.273438 382.078125 507.515625 380.730469 512.285156 378.839844 L 512.824219 378.121094 L 513.453125 367.949219 L 512.824219 367.679688 M 485.554688 351.570312 C 485.824219 348.78125 486.453125 345 489.875 342.839844 C 490.953125 342.121094 492.214844 341.851562 493.476562 341.851562 C 496.445312 341.851562 498.246094 343.378906 499.234375 345 C 500.496094 346.980469 500.585938 349.140625 500.585938 351.210938 Z M 563.492188 354.179688 C 563.582031 346.078125 563.582031 342.570312 561.242188 338.789062 C 559.441406 335.910156 555.84375 332.308594 544.324219 332.308594 C 536.582031 332.308594 531.8125 333.75 526.683594 335.28125 L 526.144531 336 L 525.691406 345.808594 L 526.414062 346.171875 C 529.5625 344.910156 535.414062 342.570312 541.441406 342.570312 C 544.773438 342.570312 546.121094 343.109375 547.292969 344.28125 C 548.191406 345.179688 548.464844 346.800781 548.464844 348.148438 C 537.664062 349.589844 532.621094 350.578125 527.222656 353.910156 C 522.183594 357.058594 520.472656 362.191406 520.472656 366.238281 C 520.472656 375.871094 527.402344 382.078125 536.222656 382.078125 C 542.972656 382.078125 546.84375 378.839844 548.734375 377.308594 L 548.734375 380.640625 L 549.273438 381.269531 C 555.753906 381 557.734375 380.910156 563.582031 381 L 564.03125 380.371094 C 563.402344 371.550781 563.402344 369.300781 563.402344 360.839844 L 563.492188 354.179688 M 548.644531 368.488281 C 546.753906 369.570312 544.324219 370.828125 541.351562 370.828125 C 538.113281 370.828125 535.414062 369.121094 535.414062 365.339844 C 535.414062 359.398438 542.523438 358.410156 548.644531 357.601562 Z M 592.925781 349.949219 C 589.863281 348.871094 587.433594 347.878906 587.433594 345.359375 C 587.433594 344.28125 588.15625 341.308594 593.734375 341.308594 C 599.226562 341.308594 602.734375 343.648438 604.984375 345.089844 L 605.796875 344.820312 L 606.695312 335.011719 L 606.246094 334.46875 C 602.015625 333.300781 598.324219 332.21875 592.476562 332.21875 C 588.066406 332.21875 579.246094 332.578125 574.566406 339.328125 C 573.394531 340.949219 572.136719 343.648438 572.136719 347.25 C 572.136719 356.878906 579.605469 359.761719 583.835938 361.378906 L 587.253906 362.640625 C 589.683594 363.449219 593.644531 364.800781 593.644531 368.039062 C 593.644531 370.289062 591.574219 372.71875 586.535156 372.71875 C 584.015625 372.71875 580.324219 371.910156 576.996094 370.199219 C 575.464844 369.390625 574.746094 368.761719 573.394531 367.679688 L 572.585938 368.039062 C 572.40625 372.71875 572.316406 373.710938 571.953125 378.210938 L 572.40625 379.019531 C 576.816406 380.640625 580.59375 382.078125 587.164062 382.078125 C 594.003906 382.078125 607.503906 380.820312 609.125 367.949219 C 609.214844 367.230469 609.214844 366.601562 609.214844 365.96875 C 609.214844 356.070312 602.285156 353.460938 597.335938 351.570312 Z M 661.234375 380.371094 C 660.875 372.988281 660.785156 370.46875 660.605469 361.109375 L 660.605469 354.359375 C 660.515625 345.808594 660.425781 340.859375 657.8125 337.078125 C 655.203125 333.390625 651.425781 332.21875 647.464844 332.21875 C 640.894531 332.21875 635.765625 335.371094 632.164062 337.53125 L 632.433594 309.808594 L 631.894531 309.179688 L 616.503906 311.609375 L 616.054688 312.148438 C 616.863281 320.878906 617.042969 324.121094 617.222656 335.730469 C 617.40625 343.019531 617.496094 350.308594 617.496094 357.601562 C 617.496094 366.511719 617.3125 371.820312 617.132812 380.640625 L 617.585938 381.269531 C 624.246094 380.910156 625.59375 380.910156 632.882812 380.910156 L 633.425781 380.371094 C 632.792969 366.871094 632.703125 362.820312 632.613281 346.890625 C 634.324219 345.71875 636.484375 344.191406 639.542969 344.191406 C 644.496094 344.191406 644.855469 349.320312 645.214844 352.921875 C 645.394531 355.710938 645.484375 368.488281 645.484375 371.820312 C 645.484375 374.789062 645.394531 377.671875 645.394531 380.640625 L 645.84375 381.269531 C 652.324219 380.910156 653.765625 380.910156 660.695312 380.910156 Z M 717.304688 357.058594 C 717.304688 353.550781 717.304688 338.96875 704.703125 334.019531 C 700.742188 332.488281 696.0625 332.308594 693.722656 332.308594 C 678.0625 332.308594 669.242188 340.679688 669.242188 357.238281 C 669.242188 363 670.144531 368.851562 673.472656 373.710938 C 675.8125 377.21875 680.222656 382.078125 693.09375 382.078125 C 712.171875 382.078125 717.304688 370.558594 717.304688 357.058594 M 701.734375 356.96875 C 701.734375 364.351562 700.742188 372.539062 693.273438 372.539062 C 690.933594 372.539062 689.3125 371.460938 688.234375 370.46875 C 686.703125 368.941406 684.992188 365.878906 684.992188 357.148438 C 684.992188 354.539062 684.992188 348.78125 686.792969 345.628906 C 688.144531 343.199219 690.484375 341.578125 693.363281 341.578125 C 695.882812 341.578125 697.953125 342.929688 699.125 344.371094 C 701.285156 346.980469 701.734375 352.109375 701.734375 356.96875 Z M 751.863281 347.609375 L 754.382812 332.941406 L 753.84375 332.308594 C 753.214844 332.308594 752.582031 332.21875 751.953125 332.21875 C 748.261719 332.21875 744.125 334.289062 741.242188 340.949219 L 741.511719 332.671875 L 740.792969 331.949219 C 734.132812 333.390625 732.421875 333.660156 725.851562 334.648438 L 725.3125 335.191406 C 725.851562 341.941406 726.125 345.988281 726.125 358.5 C 726.125 365.878906 726.03125 373.261719 725.851562 380.730469 L 726.394531 381.269531 C 733.054688 381 734.492188 380.910156 741.691406 381 L 742.144531 380.371094 C 741.78125 373.078125 741.242188 362.910156 741.242188 356.699219 C 741.242188 352.648438 741.242188 346.710938 747.363281 346.710938 C 748.894531 346.710938 749.792969 347.25 751.054688 347.96875 Z M 799.5625 367.679688 C 796.144531 369.480469 792.09375 371.550781 785.523438 371.550781 C 780.125 371.550781 776.433594 369.839844 774.273438 366.601562 C 772.921875 364.710938 772.652344 362.910156 772.292969 361.109375 L 801.363281 360.570312 L 801.902344 359.941406 C 801.8125 355.53125 801.722656 351.03125 800.464844 346.53125 C 797.3125 335.910156 790.382812 333.75 787.324219 333.03125 C 785.074219 332.398438 783.003906 332.21875 780.933594 332.21875 C 766.804688 332.21875 757.441406 341.488281 757.441406 357.058594 C 757.441406 361.289062 758.164062 365.699219 759.601562 368.851562 C 764.824219 381 777.0625 382.078125 783.542969 382.078125 C 791.011719 382.078125 794.253906 380.730469 799.023438 378.839844 L 799.5625 378.121094 L 800.191406 367.949219 L 799.5625 367.679688 M 772.292969 351.570312 C 772.5625 348.78125 773.191406 345 776.613281 342.839844 C 777.691406 342.121094 778.953125 341.851562 780.214844 341.851562 C 783.183594 341.851562 784.984375 343.378906 785.972656 345 C 787.234375 346.980469 787.324219 349.140625 787.324219 351.210938 Z M 804.785156 381 "/>
</svg>
