<?xml version="1.0" encoding="UTF-8"?>
<svg xmlns="http://www.w3.org/2000/svg" xmlns:xlink="http://www.w3.org/1999/xlink" width="975" height="1300" viewBox="0 0 975 1300">
<path fill-rule="nonzero" fill="rgb(98.823529%, 78.823529%, 9.019608%)" fill-opacity="1" d="M 50 50 L 925 50 L 925 170 L 50 170 Z M 50 50 "/>
<path fill-rule="nonzero" fill="rgb(34.901961%, 14.901961%, 14.901961%)" fill-opacity="1" d="M 83.660156 77.28125 L 72.230469 77.460938 L 71.6875 78 C 72.050781 89.699219 72.320312 97.53125 72.320312 107.878906 C 72.320312 118.859375 72.050781 129.75 71.777344 140.730469 L 72.320312 141.269531 C 78.980469 141 80.417969 140.910156 87.621094 141 L 88.070312 140.460938 C 87.710938 130.648438 87.710938 128.398438 87.710938 119.21875 C 97.789062 119.308594 108.589844 119.308594 115.070312 111.390625 C 117.589844 108.328125 119.75 103.199219 119.75 96.898438 C 119.75 93.03125 118.847656 84.480469 111.378906 80.25 C 105.980469 77.101562 98.328125 77.101562 91.578125 77.101562 L 83.660156 77.28125 M 87.710938 88.171875 C 89.6875 88.078125 91.578125 88.078125 93.558594 88.078125 C 101.480469 88.261719 103.640625 92.308594 103.640625 97.53125 C 103.640625 98.789062 103.640625 104.011719 98.871094 106.621094 C 96.4375 107.96875 93.109375 108.148438 87.710938 108.148438 Z M 166.007812 114.179688 C 166.097656 106.078125 166.097656 102.570312 163.757812 98.789062 C 161.957031 95.910156 158.359375 92.308594 146.839844 92.308594 C 139.097656 92.308594 134.328125 93.75 129.199219 95.28125 L 128.660156 96 L 128.207031 105.808594 L 128.929688 106.171875 C 132.078125 104.910156 137.929688 102.570312 143.957031 102.570312 C 147.289062 102.570312 148.636719 103.109375 149.808594 104.28125 C 150.707031 105.179688 150.980469 106.800781 150.980469 108.148438 C 140.179688 109.589844 135.136719 110.578125 129.738281 113.910156 C 124.699219 117.058594 122.988281 122.191406 122.988281 126.238281 C 122.988281 135.871094 129.917969 142.078125 138.738281 142.078125 C 145.488281 142.078125 149.359375 138.839844 151.25 137.308594 L 151.25 140.640625 L 151.789062 141.269531 C 158.269531 141 160.25 140.910156 166.097656 141 L 166.546875 140.371094 C 165.917969 131.550781 165.917969 129.300781 165.917969 120.839844 L 166.007812 114.179688 M 151.160156 128.488281 C 149.269531 129.570312 146.839844 130.828125 143.867188 130.828125 C 140.628906 130.828125 137.929688 129.121094 137.929688 125.339844 C 137.929688 119.398438 145.039062 118.410156 151.160156 117.601562 Z M 211.730469 128.039062 C 209.300781 129.480469 206.960938 130.921875 202.371094 130.921875 C 192.199219 130.921875 190.128906 122.460938 190.128906 117.058594 C 190.128906 110.488281 193.011719 102.929688 201.742188 102.929688 C 205.699219 102.929688 207.859375 104.371094 210.5625 106.171875 L 211.460938 105.898438 C 211.820312 101.128906 211.910156 99.871094 212.628906 95.101562 L 212.179688 94.558594 C 208.21875 93.300781 204.800781 92.21875 199.582031 92.21875 C 178.429688 92.21875 174.289062 108.238281 174.289062 117.421875 C 174.289062 127.769531 179.691406 141.808594 199.941406 141.808594 C 204.710938 141.808594 207.769531 140.910156 211.550781 139.828125 L 212.089844 139.289062 L 212.449219 128.488281 Z M 235.941406 140.371094 C 235.488281 133.441406 235.128906 128.128906 235.128906 115.710938 C 235.128906 108.058594 235.308594 100.320312 235.398438 92.671875 L 234.769531 91.949219 L 219.289062 94.648438 L 218.75 95.191406 C 219.46875 102.03125 219.738281 105.179688 219.738281 117.960938 C 219.738281 127.769531 219.46875 133.261719 219.199219 140.640625 L 219.738281 141.269531 C 226.21875 141 228.019531 140.910156 235.308594 141 L 235.941406 140.371094 M 234.5 83.308594 L 234.769531 71.070312 L 234.230469 70.53125 L 219.558594 72.328125 L 219.019531 72.960938 C 219.199219 76.199219 219.289062 78.089844 219.289062 80.25 C 219.289062 81.960938 219.289062 83.761719 219.199219 85.46875 L 219.828125 86.011719 C 225.949219 84.929688 227.660156 84.75 234.050781 83.941406 Z M 263.925781 140.371094 C 263.027344 123.988281 262.9375 119.578125 263.027344 103.648438 L 270.136719 104.011719 L 270.765625 103.378906 L 271.578125 93.839844 L 271.128906 93.300781 L 262.9375 93.300781 L 263.027344 91.230469 C 263.027344 85.738281 263.117188 80.699219 268.96875 80.699219 C 269.867188 80.699219 270.765625 80.878906 271.667969 80.96875 L 272.296875 80.609375 L 273.105469 70.441406 L 272.65625 69.808594 C 270.496094 69.628906 268.425781 69.539062 266.355469 69.539062 C 261.765625 69.539062 257.085938 70.078125 253.488281 72.78125 C 247.90625 76.921875 247.996094 83.398438 247.996094 87.898438 L 248.085938 93.300781 L 242.238281 93.210938 L 241.699219 93.660156 L 240.796875 103.199219 L 241.335938 103.738281 L 248.175781 103.558594 C 248.175781 120.570312 248.175781 124.621094 247.636719 140.640625 L 248.175781 141.269531 C 254.296875 141 256.636719 140.910156 263.386719 140.910156 Z M 294.082031 140.371094 C 293.628906 133.441406 293.269531 128.128906 293.269531 115.710938 C 293.269531 108.058594 293.449219 100.320312 293.539062 92.671875 L 292.910156 91.949219 L 277.429688 94.648438 L 276.890625 95.191406 C 277.609375 102.03125 277.878906 105.179688 277.878906 117.960938 C 277.878906 127.769531 277.609375 133.261719 277.339844 140.640625 L 277.878906 141.269531 C 284.359375 141 286.160156 140.910156 293.449219 141 L 294.082031 140.371094 M 292.640625 83.308594 L 292.910156 71.070312 L 292.371094 70.53125 L 277.699219 72.328125 L 277.160156 72.960938 C 277.339844 76.199219 277.429688 78.089844 277.429688 80.25 C 277.429688 81.960938 277.429688 83.761719 277.339844 85.46875 L 277.96875 86.011719 C 284.089844 84.929688 285.800781 84.75 292.191406 83.941406 Z M 339.257812 128.039062 C 336.828125 129.480469 334.488281 130.921875 329.898438 130.921875 C 319.726562 130.921875 317.65625 122.460938 317.65625 117.058594 C 317.65625 110.488281 320.539062 102.929688 329.269531 102.929688 C 333.226562 102.929688 335.386719 104.371094 338.089844 106.171875 L 338.988281 105.898438 C 339.347656 101.128906 339.4375 99.871094 340.15625 95.101562 L 339.707031 94.558594 C 335.746094 93.300781 332.328125 92.21875 327.109375 92.21875 C 305.957031 92.21875 301.816406 108.238281 301.816406 117.421875 C 301.816406 127.769531 307.21875 141.808594 327.46875 141.808594 C 332.238281 141.808594 335.296875 140.910156 339.078125 139.828125 L 339.617188 139.289062 L 339.976562 128.488281 Z M 387.226562 114.179688 C 387.316406 106.078125 387.316406 102.570312 384.976562 98.789062 C 383.175781 95.910156 379.578125 92.308594 368.058594 92.308594 C 360.316406 92.308594 355.546875 93.75 350.417969 95.28125 L 349.878906 96 L 349.425781 105.808594 L 350.148438 106.171875 C 353.296875 104.910156 359.148438 102.570312 365.175781 102.570312 C 368.507812 102.570312 369.855469 103.109375 371.027344 104.28125 C 371.925781 105.179688 372.199219 106.800781 372.199219 108.148438 C 361.398438 109.589844 356.355469 110.578125 350.957031 113.910156 C 345.917969 117.058594 344.207031 122.191406 344.207031 126.238281 C 344.207031 135.871094 351.136719 142.078125 359.957031 142.078125 C 366.707031 142.078125 370.578125 138.839844 372.46875 137.308594 L 372.46875 140.640625 L 373.007812 141.269531 C 379.488281 141 381.46875 140.910156 387.316406 141 L 387.765625 140.371094 C 387.136719 131.550781 387.136719 129.300781 387.136719 120.839844 L 387.226562 114.179688 M 372.378906 128.488281 C 370.488281 129.570312 368.058594 130.828125 365.085938 130.828125 C 361.847656 130.828125 359.148438 129.121094 359.148438 125.339844 C 359.148438 119.398438 366.257812 118.410156 372.378906 117.601562 Z M 450.050781 102.300781 C 442.492188 99.148438 438.53125 97.53125 438.53125 93.480469 C 438.53125 90.691406 441.140625 87.179688 447.082031 87.179688 C 453.921875 87.179688 457.96875 89.96875 461.300781 92.21875 L 462.109375 91.859375 L 462.832031 80.070312 L 462.378906 79.441406 C 458.511719 77.820312 454.460938 76.109375 445.730469 76.109375 C 428.8125 76.109375 422.960938 85.648438 422.960938 95.28125 C 422.960938 106.171875 431.421875 110.128906 436.460938 112.558594 L 439.429688 113.910156 C 445.640625 116.519531 450.410156 118.769531 450.410156 123.539062 C 450.410156 126.960938 447.441406 131.011719 439.609375 131.011719 C 431.421875 131.011719 426.832031 127.410156 424.21875 125.339844 L 423.320312 125.609375 L 422.691406 138.300781 L 423.230469 139.019531 C 424.21875 139.378906 425.210938 139.828125 426.199219 140.101562 C 428.269531 140.820312 433.582031 142.351562 440.332031 142.351562 C 443.03125 142.351562 449.871094 142.078125 455.269531 139.558594 C 462.832031 135.871094 466.070312 129.03125 466.070312 121.378906 C 466.070312 116.25 464.089844 110.761719 459.320312 107.070312 C 456.890625 105.269531 454.550781 104.191406 452.390625 103.199219 Z M 499.820312 130.648438 C 498.289062 131.101562 497.207031 131.460938 495.679688 131.460938 C 491.089844 131.460938 490.730469 128.578125 490.546875 127.230469 C 490.277344 124.890625 490.277344 119.941406 490.367188 116.339844 L 490.546875 103.648438 L 498.648438 104.011719 L 499.1875 103.46875 L 500.089844 93.839844 L 499.546875 93.300781 L 490.546875 93.300781 L 490.820312 78.179688 L 490.1875 77.640625 C 484.070312 79.441406 482.449219 79.890625 476.058594 81.511719 L 475.699219 82.140625 L 475.789062 93.390625 L 470.929688 93.210938 L 470.390625 93.660156 L 469.578125 103.289062 L 470.117188 103.828125 L 475.789062 103.648438 L 475.519531 117.960938 C 475.429688 120.210938 475.339844 122.460938 475.339844 124.800781 C 475.339844 133.078125 475.519531 141.988281 489.558594 141.988281 C 493.070312 141.988281 495.859375 141.449219 499.007812 140.910156 L 499.640625 140.28125 L 500.539062 131.011719 Z M 546.527344 114.179688 C 546.617188 106.078125 546.617188 102.570312 544.277344 98.789062 C 542.476562 95.910156 538.878906 92.308594 527.359375 92.308594 C 519.617188 92.308594 514.847656 93.75 509.71875 95.28125 L 509.179688 96 L 508.726562 105.808594 L 509.449219 106.171875 C 512.597656 104.910156 518.449219 102.570312 524.476562 102.570312 C 527.808594 102.570312 529.15625 103.109375 530.328125 104.28125 C 531.226562 105.179688 531.5 106.800781 531.5 108.148438 C 520.699219 109.589844 515.65625 110.578125 510.257812 113.910156 C 505.21875 117.058594 503.507812 122.191406 503.507812 126.238281 C 503.507812 135.871094 510.4375 142.078125 519.257812 142.078125 C 526.007812 142.078125 529.878906 138.839844 531.769531 137.308594 L 531.769531 140.640625 L 532.308594 141.269531 C 538.789062 141 540.769531 140.910156 546.617188 141 L 547.066406 140.371094 C 546.4375 131.550781 546.4375 129.300781 546.4375 120.839844 L 546.527344 114.179688 M 531.679688 128.488281 C 529.789062 129.570312 527.359375 130.828125 524.386719 130.828125 C 521.148438 130.828125 518.449219 129.121094 518.449219 125.339844 C 518.449219 119.398438 525.558594 118.410156 531.679688 117.601562 Z M 582.261719 130.648438 C 580.730469 131.101562 579.648438 131.460938 578.121094 131.460938 C 573.53125 131.460938 573.171875 128.578125 572.988281 127.230469 C 572.71875 124.890625 572.71875 119.941406 572.808594 116.339844 L 572.988281 103.648438 L 581.089844 104.011719 L 581.628906 103.46875 L 582.53125 93.839844 L 581.988281 93.300781 L 572.988281 93.300781 L 573.261719 78.179688 L 572.628906 77.640625 C 566.511719 79.441406 564.890625 79.890625 558.5 81.511719 L 558.140625 82.140625 L 558.230469 93.390625 L 553.371094 93.210938 L 552.832031 93.660156 L 552.019531 103.289062 L 552.558594 103.828125 L 558.230469 103.648438 L 557.960938 117.960938 C 557.871094 120.210938 557.78125 122.460938 557.78125 124.800781 C 557.78125 133.078125 557.960938 141.988281 572 141.988281 C 575.511719 141.988281 578.300781 141.449219 581.449219 140.910156 L 582.082031 140.28125 L 582.980469 131.011719 Z M 628.878906 127.679688 C 625.460938 129.480469 621.410156 131.550781 614.839844 131.550781 C 609.441406 131.550781 605.75 129.839844 603.589844 126.601562 C 602.238281 124.710938 601.96875 122.910156 601.609375 121.109375 L 630.679688 120.570312 L 631.21875 119.941406 C 631.128906 115.53125 631.039062 111.03125 629.78125 106.53125 C 626.628906 95.910156 619.699219 93.75 616.640625 93.03125 C 614.390625 92.398438 612.320312 92.21875 610.25 92.21875 C 596.121094 92.21875 586.757812 101.488281 586.757812 117.058594 C 586.757812 121.289062 587.480469 125.699219 588.917969 128.851562 C 594.140625 141 606.378906 142.078125 612.859375 142.078125 C 620.328125 142.078125 623.570312 140.730469 628.339844 138.839844 L 628.878906 138.121094 L 629.507812 127.949219 L 628.878906 127.679688 M 601.609375 111.570312 C 601.878906 108.78125 602.507812 105 605.929688 102.839844 C 607.007812 102.121094 608.269531 101.851562 609.53125 101.851562 C 612.5 101.851562 614.300781 103.378906 615.289062 105 C 616.550781 106.980469 616.640625 109.140625 616.640625 111.210938 Z M 682.519531 141 C 690.890625 141.179688 701.238281 141.359375 707.988281 136.679688 C 713.929688 132.449219 715.550781 126.511719 715.550781 121.46875 C 715.550781 115.710938 713.117188 110.398438 707.988281 107.878906 C 706.277344 106.980469 704.300781 106.621094 702.410156 106.261719 C 705.46875 105 709.070312 103.378906 711.410156 98.609375 C 712.398438 96.539062 712.847656 94.378906 712.847656 92.308594 C 712.847656 89.429688 712.128906 85.46875 709.25 82.230469 C 705.46875 78.179688 699.617188 77.101562 690.800781 77.101562 C 687.738281 77.101562 682.25 77.191406 679.1875 77.28125 L 666.589844 77.460938 L 666.050781 78 C 666.410156 86.640625 666.5 89.96875 666.5 102.390625 C 666.5 115.171875 666.410156 127.859375 666.230469 140.640625 L 666.859375 141 L 682.519531 141 M 681.890625 113.640625 C 688.730469 113.460938 692.6875 113.460938 695.300781 114.988281 C 697.910156 116.609375 698.898438 119.488281 698.898438 122.371094 C 698.898438 126.421875 696.648438 128.941406 693.320312 130.109375 C 690.617188 131.011719 685.757812 131.011719 681.890625 130.921875 L 681.890625 113.640625 M 681.890625 87.179688 C 683.777344 87.179688 686.300781 87.089844 687.828125 87.089844 C 692.6875 87.089844 697.097656 88.800781 697.097656 94.648438 C 697.097656 99.421875 693.589844 101.398438 692.507812 101.941406 C 690.257812 102.929688 685.488281 102.929688 681.890625 102.929688 Z M 763.878906 127.679688 C 760.460938 129.480469 756.410156 131.550781 749.839844 131.550781 C 744.441406 131.550781 740.75 129.839844 738.589844 126.601562 C 737.238281 124.710938 736.96875 122.910156 736.609375 121.109375 L 765.679688 120.570312 L 766.21875 119.941406 C 766.128906 115.53125 766.039062 111.03125 764.78125 106.53125 C 761.628906 95.910156 754.699219 93.75 751.640625 93.03125 C 749.390625 92.398438 747.320312 92.21875 745.25 92.21875 C 731.121094 92.21875 721.757812 101.488281 721.757812 117.058594 C 721.757812 121.289062 722.480469 125.699219 723.917969 128.851562 C 729.140625 141 741.378906 142.078125 747.859375 142.078125 C 755.328125 142.078125 758.570312 140.730469 763.339844 138.839844 L 763.878906 138.121094 L 764.507812 127.949219 L 763.878906 127.679688 M 736.609375 111.570312 C 736.878906 108.78125 737.507812 105 740.929688 102.839844 C 742.007812 102.121094 743.269531 101.851562 744.53125 101.851562 C 747.5 101.851562 749.300781 103.378906 750.289062 105 C 751.550781 106.980469 751.640625 109.140625 751.640625 111.210938 Z M 814.546875 114.179688 C 814.636719 106.078125 814.636719 102.570312 812.296875 98.789062 C 810.496094 95.910156 806.898438 92.308594 795.378906 92.308594 C 787.636719 92.308594 782.867188 93.75 777.738281 95.28125 L 777.199219 96 L 776.746094 105.808594 L 777.46875 106.171875 C 780.617188 104.910156 786.46875 102.570312 792.496094 102.570312 C 795.828125 102.570312 797.175781 103.109375 798.347656 104.28125 C 799.246094 105.179688 799.519531 106.800781 799.519531 108.148438 C 788.71875 109.589844 783.675781 110.578125 778.277344 113.910156 C 773.238281 117.058594 771.527344 122.191406 771.527344 126.238281 C 771.527344 135.871094 778.457031 142.078125 787.277344 142.078125 C 794.027344 142.078125 797.898438 138.839844 799.789062 137.308594 L 799.789062 140.640625 L 800.328125 141.269531 C 806.808594 141 808.789062 140.910156 814.636719 141 L 815.085938 140.371094 C 814.457031 131.550781 814.457031 129.300781 814.457031 120.839844 L 814.546875 114.179688 M 799.699219 128.488281 C 797.808594 129.570312 795.378906 130.828125 792.40625 130.828125 C 789.167969 130.828125 786.46875 129.121094 786.46875 125.339844 C 786.46875 119.398438 793.578125 118.410156 799.699219 117.601562 Z M 860.269531 128.039062 C 857.839844 129.480469 855.5 130.921875 850.910156 130.921875 C 840.738281 130.921875 838.667969 122.460938 838.667969 117.058594 C 838.667969 110.488281 841.550781 102.929688 850.28125 102.929688 C 854.238281 102.929688 856.398438 104.371094 859.101562 106.171875 L 860 105.898438 C 860.359375 101.128906 860.449219 99.871094 861.167969 95.101562 L 860.71875 94.558594 C 856.757812 93.300781 853.339844 92.21875 848.121094 92.21875 C 826.96875 92.21875 822.828125 108.238281 822.828125 117.421875 C 822.828125 127.769531 828.230469 141.808594 848.480469 141.808594 C 853.25 141.808594 856.308594 140.910156 860.089844 139.828125 L 860.628906 139.289062 L 860.988281 128.488281 Z M 912.289062 140.371094 C 911.929688 132.988281 911.839844 130.46875 911.660156 121.109375 L 911.660156 114.359375 C 911.570312 105.808594 911.480469 100.859375 908.867188 97.078125 C 906.257812 93.390625 902.480469 92.21875 898.519531 92.21875 C 891.949219 92.21875 886.820312 95.371094 883.21875 97.53125 L 883.488281 69.808594 L 882.949219 69.179688 L 867.558594 71.609375 L 867.109375 72.148438 C 867.917969 80.878906 868.097656 84.121094 868.277344 95.730469 C 868.460938 103.019531 868.550781 110.308594 868.550781 117.601562 C 868.550781 126.511719 868.367188 131.820312 868.1875 140.640625 L 868.640625 141.269531 C 875.300781 140.910156 876.648438 140.910156 883.9375 140.910156 L 884.480469 140.371094 C 883.847656 126.871094 883.757812 122.820312 883.667969 106.890625 C 885.378906 105.71875 887.539062 104.191406 890.597656 104.191406 C 895.550781 104.191406 895.910156 109.320312 896.269531 112.921875 C 896.449219 115.710938 896.539062 128.488281 896.539062 131.820312 C 896.539062 134.789062 896.449219 137.671875 896.449219 140.640625 L 896.898438 141.269531 C 903.378906 140.910156 904.820312 140.910156 911.75 140.910156 Z M 917.148438 141 "/>
</svg>
