<?xml version="1.0" encoding="UTF-8"?>
<svg xmlns="http://www.w3.org/2000/svg" xmlns:xlink="http://www.w3.org/1999/xlink" width="975" height="1300" viewBox="0 0 975 1300">
<path fill-rule="nonzero" fill="rgb(98.823529%, 78.823529%, 9.019608%)" fill-opacity="1" d="M 50 50 L 925 50 L 925 410 L 50 410 Z M 50 50 "/>
<path fill-rule="nonzero" fill="rgb(34.901961%, 14.901961%, 14.901961%)" fill-opacity="1" d="M 162.09375 116.25 C 168.125 126.511719 169.476562 129.210938 175.234375 141 L 175.957031 141.449219 C 178.746094 141.269531 181.445312 141.089844 184.234375 141 C 187.027344 140.910156 189.90625 140.820312 192.695312 140.820312 L 193.234375 139.738281 C 189.816406 135.328125 188.824219 133.980469 182.34375 123.628906 C 179.464844 119.039062 178.027344 116.609375 175.777344 112.648438 C 179.824219 110.851562 188.015625 107.070312 188.015625 95.640625 C 188.015625 91.679688 186.933594 83.488281 179.554688 79.621094 C 174.875 77.191406 170.015625 77.101562 159.484375 77.28125 L 153.183594 77.371094 L 142.207031 77.371094 L 141.753906 77.910156 C 142.117188 87 142.476562 96.359375 142.476562 120.839844 C 142.476562 129.210938 142.386719 133.261719 142.117188 140.730469 L 142.65625 141.269531 C 149.226562 141 150.664062 140.910156 158.046875 141 L 158.585938 140.460938 C 157.867188 130.019531 157.777344 127.140625 157.683594 116.429688 L 162.09375 116.25 M 157.867188 88.261719 C 159.125 88.171875 160.386719 88.171875 161.644531 88.171875 C 165.15625 88.171875 172.085938 88.171875 172.085938 96.089844 C 172.085938 98.609375 171.457031 101.941406 168.125 104.011719 C 165.605469 105.539062 162.367188 105.71875 157.867188 105.808594 Z M 243.816406 117.058594 C 243.816406 113.550781 243.816406 98.96875 231.214844 94.019531 C 227.253906 92.488281 222.574219 92.308594 220.234375 92.308594 C 204.574219 92.308594 195.753906 100.679688 195.753906 117.238281 C 195.753906 123 196.65625 128.851562 199.984375 133.710938 C 202.324219 137.21875 206.734375 142.078125 219.605469 142.078125 C 238.683594 142.078125 243.816406 130.558594 243.816406 117.058594 M 228.246094 116.96875 C 228.246094 124.351562 227.253906 132.539062 219.785156 132.539062 C 217.445312 132.539062 215.824219 131.460938 214.746094 130.46875 C 213.214844 128.941406 211.503906 125.878906 211.503906 117.148438 C 211.503906 114.539062 211.503906 108.78125 213.304688 105.628906 C 214.65625 103.199219 216.996094 101.578125 219.875 101.578125 C 222.394531 101.578125 224.464844 102.929688 225.636719 104.371094 C 227.796875 106.980469 228.246094 112.109375 228.246094 116.96875 Z M 258.84375 141.179688 L 260.644531 141.179688 C 275.042969 141.179688 284.316406 140.460938 291.15625 133.171875 C 297.542969 126.328125 298.175781 118.230469 298.175781 114.449219 C 298.175781 101.941406 290.976562 92.21875 278.734375 92.21875 C 272.792969 92.21875 269.644531 94.199219 267.125 95.820312 L 267.664062 69.71875 L 266.945312 69.179688 L 252.003906 71.519531 L 251.464844 72.148438 C 252.183594 79.710938 252.453125 82.769531 252.453125 100.859375 C 252.453125 108.601562 252.363281 123.898438 252.273438 140.640625 L 252.90625 141.269531 L 258.84375 141.179688 M 267.484375 104.730469 C 269.285156 103.828125 270.996094 102.929688 273.335938 102.929688 C 279.273438 102.929688 282.695312 108.238281 282.695312 116.519531 C 282.695312 123 279.816406 127.230469 277.386719 128.941406 C 274.414062 131.011719 270.542969 131.101562 267.484375 131.191406 Z M 346.683594 127.679688 C 343.265625 129.480469 339.214844 131.550781 332.644531 131.550781 C 327.246094 131.550781 323.554688 129.839844 321.394531 126.601562 C 320.042969 124.710938 319.773438 122.910156 319.414062 121.109375 L 348.484375 120.570312 L 349.023438 119.941406 C 348.933594 115.53125 348.84375 111.03125 347.585938 106.53125 C 344.433594 95.910156 337.503906 93.75 334.445312 93.03125 C 332.195312 92.398438 330.125 92.21875 328.054688 92.21875 C 313.925781 92.21875 304.5625 101.488281 304.5625 117.058594 C 304.5625 121.289062 305.285156 125.699219 306.722656 128.851562 C 311.945312 141 324.183594 142.078125 330.664062 142.078125 C 338.132812 142.078125 341.375 140.730469 346.144531 138.839844 L 346.683594 138.121094 L 347.3125 127.949219 L 346.683594 127.679688 M 319.414062 111.570312 C 319.683594 108.78125 320.3125 105 323.734375 102.839844 C 324.8125 102.121094 326.074219 101.851562 327.335938 101.851562 C 330.304688 101.851562 332.105469 103.378906 333.09375 105 C 334.355469 106.980469 334.445312 109.140625 334.445312 111.210938 Z M 383.316406 107.609375 L 385.835938 92.941406 L 385.296875 92.308594 C 384.667969 92.308594 384.035156 92.21875 383.40625 92.21875 C 379.714844 92.21875 375.578125 94.289062 372.695312 100.949219 L 372.964844 92.671875 L 372.246094 91.949219 C 365.585938 93.390625 363.875 93.660156 357.304688 94.648438 L 356.765625 95.191406 C 357.304688 101.941406 357.578125 105.988281 357.578125 118.5 C 357.578125 125.878906 357.484375 133.261719 357.304688 140.730469 L 357.847656 141.269531 C 364.507812 141 365.945312 140.910156 373.144531 141 L 373.597656 140.371094 C 373.234375 133.078125 372.695312 122.910156 372.695312 116.699219 C 372.695312 112.648438 372.695312 106.710938 378.816406 106.710938 C 380.347656 106.710938 381.246094 107.25 382.507812 107.96875 Z M 416.257812 130.648438 C 414.726562 131.101562 413.644531 131.460938 412.117188 131.460938 C 407.527344 131.460938 407.167969 128.578125 406.984375 127.230469 C 406.714844 124.890625 406.714844 119.941406 406.804688 116.339844 L 406.984375 103.648438 L 415.085938 104.011719 L 415.625 103.46875 L 416.527344 93.839844 L 415.984375 93.300781 L 406.984375 93.300781 L 407.257812 78.179688 L 406.625 77.640625 C 400.507812 79.441406 398.886719 79.890625 392.496094 81.511719 L 392.136719 82.140625 L 392.226562 93.390625 L 387.367188 93.210938 L 386.828125 93.660156 L 386.015625 103.289062 L 386.554688 103.828125 L 392.226562 103.648438 L 391.957031 117.960938 C 391.867188 120.210938 391.777344 122.460938 391.777344 124.800781 C 391.777344 133.078125 391.957031 141.988281 405.996094 141.988281 C 409.507812 141.988281 412.296875 141.449219 415.445312 140.910156 L 416.078125 140.28125 L 416.976562 131.011719 Z M 514.625 140.460938 C 517.957031 124.078125 519.398438 117.238281 528.9375 77.730469 L 528.488281 77.191406 C 522.097656 77.460938 520.835938 77.460938 514.808594 77.460938 L 514.265625 78 C 512.828125 87.269531 512.375 90.421875 510.398438 100.769531 L 507.785156 114.539062 L 504.90625 130.019531 C 503.558594 119.941406 503.105469 116.878906 501.308594 106.441406 L 498.695312 91.320312 L 496.445312 77.460938 L 495.90625 76.828125 L 478.085938 77.28125 L 477.546875 77.820312 L 473.945312 98.519531 L 470.4375 116.96875 L 468.1875 129.390625 C 467.105469 121.558594 466.746094 118.949219 464.855469 108.058594 L 462.515625 94.921875 L 459.546875 77.101562 L 459.007812 76.648438 C 451.265625 77.191406 450.007812 77.191406 443.4375 77.371094 L 442.988281 78 C 449.558594 107.789062 450.996094 114.628906 455.855469 140.730469 L 456.398438 141.269531 C 465.488281 140.910156 467.917969 140.910156 476.738281 141 L 477.367188 140.460938 L 479.257812 129.300781 L 482.226562 112.828125 L 485.46875 93.570312 C 486.546875 102.390625 486.816406 104.640625 488.4375 114.359375 L 490.6875 128.398438 L 492.578125 140.730469 L 493.027344 141.269531 C 501.667969 141 504.636719 140.910156 514.175781 141 Z M 546.574219 127.140625 L 532.175781 127.410156 L 531.726562 128.128906 L 531.90625 140.640625 L 532.355469 141.269531 L 546.753906 140.910156 L 547.203125 140.371094 L 547.023438 127.679688 Z M 629.105469 124.890625 C 627.035156 126.511719 622.445312 129.929688 614.976562 129.929688 C 604.714844 129.929688 597.515625 122.28125 597.515625 109.5 C 597.515625 101.761719 600.214844 88.171875 614.886719 88.171875 C 621.636719 88.171875 625.324219 90.78125 627.574219 92.488281 L 628.386719 92.308594 L 629.195312 79.890625 L 628.835938 79.441406 C 625.597656 78.179688 620.105469 76.109375 612.1875 76.109375 C 588.875 76.109375 580.777344 94.109375 580.777344 109.859375 C 580.777344 127.140625 591.304688 142.351562 613.265625 142.351562 C 620.824219 142.351562 625.777344 140.371094 628.65625 139.199219 L 629.105469 138.660156 L 629.734375 125.25 Z M 662.765625 107.609375 L 665.285156 92.941406 L 664.746094 92.308594 C 664.117188 92.308594 663.484375 92.21875 662.855469 92.21875 C 659.164062 92.21875 655.027344 94.289062 652.144531 100.949219 L 652.414062 92.671875 L 651.695312 91.949219 C 645.035156 93.390625 643.324219 93.660156 636.753906 94.648438 L 636.214844 95.191406 C 636.753906 101.941406 637.027344 105.988281 637.027344 118.5 C 637.027344 125.878906 636.933594 133.261719 636.753906 140.730469 L 637.296875 141.269531 C 643.957031 141 645.394531 140.910156 652.59375 141 L 653.046875 140.371094 C 652.683594 133.078125 652.144531 122.910156 652.144531 116.699219 C 652.144531 112.648438 652.144531 106.710938 658.265625 106.710938 C 659.796875 106.710938 660.695312 107.25 661.957031 107.96875 Z M 716.316406 117.058594 C 716.316406 113.550781 716.316406 98.96875 703.714844 94.019531 C 699.753906 92.488281 695.074219 92.308594 692.734375 92.308594 C 677.074219 92.308594 668.253906 100.679688 668.253906 117.238281 C 668.253906 123 669.15625 128.851562 672.484375 133.710938 C 674.824219 137.21875 679.234375 142.078125 692.105469 142.078125 C 711.183594 142.078125 716.316406 130.558594 716.316406 117.058594 M 700.746094 116.96875 C 700.746094 124.351562 699.753906 132.539062 692.285156 132.539062 C 689.945312 132.539062 688.324219 131.460938 687.246094 130.46875 C 685.714844 128.941406 684.003906 125.878906 684.003906 117.148438 C 684.003906 114.539062 684.003906 108.78125 685.804688 105.628906 C 687.15625 103.199219 689.496094 101.578125 692.375 101.578125 C 694.894531 101.578125 696.964844 102.929688 698.136719 104.371094 C 700.296875 106.980469 700.746094 112.109375 700.746094 116.96875 Z M 780.484375 140.371094 C 784.085938 126.421875 784.714844 124.261719 790.113281 104.910156 C 791.195312 101.21875 792.183594 97.441406 793.175781 93.75 L 792.636719 93.03125 L 780.933594 93.300781 L 780.304688 93.929688 L 777.695312 107.429688 L 775.175781 118.320312 L 773.464844 126.601562 L 771.933594 118.589844 L 769.953125 109.230469 L 766.804688 93.660156 L 766.265625 93.03125 L 748.984375 93.300781 L 748.355469 93.929688 L 745.386719 108.691406 L 743.226562 118.589844 L 741.515625 126.871094 L 739.804688 117.960938 L 737.644531 108.238281 L 734.585938 93.300781 L 734.042969 92.851562 L 719.464844 93.929688 L 718.925781 94.648438 C 727.386719 124.351562 728.734375 129.660156 731.253906 140.730469 L 731.886719 141.269531 C 738.09375 141 740.34375 140.910156 748.625 141 L 749.164062 140.371094 L 751.503906 129.390625 L 754.023438 118.5 L 756.273438 107.609375 L 757.625 114.449219 L 758.976562 121.109375 L 762.753906 140.640625 L 763.386719 141.269531 C 770.042969 141 772.746094 140.910156 779.945312 141 Z M 842.046875 140.371094 C 841.597656 132.449219 841.597656 129.929688 841.417969 121.109375 L 841.417969 114.089844 C 841.328125 105.449219 841.238281 101.308594 838.988281 97.621094 C 836.195312 92.941406 831.066406 92.21875 827.828125 92.21875 C 822.335938 92.21875 817.566406 95.101562 813.425781 97.53125 L 813.605469 92.578125 L 812.707031 91.949219 C 805.777344 93.390625 804.246094 93.660156 797.496094 94.558594 L 796.957031 95.191406 C 797.675781 103.019531 798.21875 108.691406 798.21875 123.359375 C 798.21875 129.121094 798.125 134.878906 798.035156 140.640625 L 798.578125 141.179688 C 805.058594 140.910156 806.40625 140.910156 813.605469 140.910156 L 814.148438 140.371094 C 813.605469 126.511719 813.515625 123 813.425781 106.890625 C 815.316406 105.628906 817.476562 104.101562 820.355469 104.101562 C 825.308594 104.101562 825.757812 109.410156 826.027344 112.648438 C 826.207031 115.621094 826.296875 127.949219 826.296875 131.371094 C 826.296875 134.429688 826.207031 137.578125 826.207031 140.640625 L 826.746094 141.179688 C 832.6875 141 834.21875 140.910156 841.417969 140.910156 Z M 846.90625 141 "/>
<path fill-rule="nonzero" fill="rgb(34.901961%, 14.901961%, 14.901961%)" fill-opacity="1" d="M 241.25 197.191406 C 231.890625 197.460938 230.359375 197.460938 220.371094 197.460938 L 219.832031 198 L 215.691406 212.578125 L 212.089844 225.628906 L 207.859375 241.289062 L 203.898438 225.179688 L 201.378906 215.011719 L 196.878906 197.730469 L 196.429688 197.191406 C 186.800781 197.460938 185.179688 197.460938 175.101562 197.460938 L 174.558594 198 C 173.660156 224.910156 173.300781 231.839844 171.320312 260.730469 L 171.769531 261.269531 C 177.53125 261 179.242188 260.910156 184.460938 261 L 185 260.460938 L 185.269531 243.269531 L 185.808594 225.808594 L 186.171875 208.800781 L 190.128906 224.730469 L 193.550781 237.511719 L 199.582031 260.730469 L 200.121094 261.269531 C 205.699219 261 207.230469 260.910156 213.53125 261 L 214.070312 260.460938 L 219.289062 241.289062 L 222.890625 228.148438 L 227.929688 209.25 L 227.929688 225.359375 L 228.109375 239.128906 L 228.109375 260.730469 L 228.558594 261.269531 C 234.769531 261 237.199219 260.910156 244.128906 261 L 244.582031 260.460938 C 244.039062 250.199219 243.410156 239.851562 243.050781 229.5 C 242.78125 223.828125 242.601562 218.160156 242.332031 212.488281 C 241.878906 204.121094 241.789062 203.039062 241.789062 197.730469 Z M 294.710938 247.679688 C 291.292969 249.480469 287.242188 251.550781 280.671875 251.550781 C 275.273438 251.550781 271.582031 249.839844 269.421875 246.601562 C 268.070312 244.710938 267.800781 242.910156 267.441406 241.109375 L 296.511719 240.570312 L 297.050781 239.941406 C 296.960938 235.53125 296.871094 231.03125 295.613281 226.53125 C 292.460938 215.910156 285.53125 213.75 282.472656 213.03125 C 280.222656 212.398438 278.152344 212.21875 276.082031 212.21875 C 261.953125 212.21875 252.589844 221.488281 252.589844 237.058594 C 252.589844 241.289062 253.3125 245.699219 254.75 248.851562 C 259.972656 261 272.210938 262.078125 278.691406 262.078125 C 286.160156 262.078125 289.402344 260.730469 294.171875 258.839844 L 294.710938 258.121094 L 295.339844 247.949219 L 294.710938 247.679688 M 267.441406 231.570312 C 267.710938 228.78125 268.339844 225 271.761719 222.839844 C 272.839844 222.121094 274.101562 221.851562 275.363281 221.851562 C 278.332031 221.851562 280.132812 223.378906 281.121094 225 C 282.382812 226.980469 282.472656 229.140625 282.472656 231.210938 Z M 375.621094 260.371094 C 375.167969 252 375.078125 249.660156 375.078125 239.488281 L 375.078125 232.738281 C 375.167969 226.710938 375.257812 221.128906 372.648438 217.351562 C 369.140625 212.21875 362.929688 212.21875 361.488281 212.21875 C 354.109375 212.21875 349.160156 215.550781 345.558594 218.070312 C 344.300781 216 342.050781 212.21875 334.851562 212.21875 C 328.910156 212.21875 325.039062 214.921875 320.898438 217.800781 L 320.898438 212.761719 L 320.089844 211.949219 C 313.070312 213.300781 311.089844 213.660156 304.789062 214.558594 L 304.25 215.191406 C 304.96875 222.390625 305.507812 227.339844 305.507812 245.160156 C 305.507812 250.289062 305.417969 255.511719 305.417969 260.640625 L 305.871094 261.179688 C 311.628906 261 313.609375 260.910156 321.078125 260.910156 L 321.621094 260.371094 C 320.988281 246.511719 320.898438 242.371094 320.808594 226.710938 C 322.699219 225.359375 324.769531 224.191406 327.019531 224.191406 C 332.601562 224.191406 332.78125 230.578125 332.78125 238.320312 C 332.78125 251.371094 332.691406 253.351562 332.507812 260.640625 L 333.050781 261.269531 C 339.890625 260.910156 341.78125 260.910156 347.988281 260.910156 L 348.53125 260.371094 C 347.988281 251.820312 347.898438 249.300781 347.808594 238.410156 L 347.808594 235.078125 L 347.71875 225.988281 C 349.25 225 351.230469 223.738281 353.929688 223.738281 C 359.058594 223.738281 359.871094 228.601562 359.871094 236.339844 C 359.871094 238.050781 359.78125 239.761719 359.78125 241.46875 C 359.691406 244.53125 359.601562 257.941406 359.507812 260.640625 L 360.050781 261.179688 C 366.800781 260.910156 368.78125 260.910156 375.078125 260.910156 Z M 431.78125 237.058594 C 431.78125 233.550781 431.78125 218.96875 419.179688 214.019531 C 415.21875 212.488281 410.539062 212.308594 408.199219 212.308594 C 392.539062 212.308594 383.71875 220.679688 383.71875 237.238281 C 383.71875 243 384.621094 248.851562 387.949219 253.710938 C 390.289062 257.21875 394.699219 262.078125 407.570312 262.078125 C 426.648438 262.078125 431.78125 250.558594 431.78125 237.058594 M 416.210938 236.96875 C 416.210938 244.351562 415.21875 252.539062 407.75 252.539062 C 405.410156 252.539062 403.789062 251.460938 402.710938 250.46875 C 401.179688 248.941406 399.46875 245.878906 399.46875 237.148438 C 399.46875 234.539062 399.46875 228.78125 401.269531 225.628906 C 402.621094 223.199219 404.960938 221.578125 407.839844 221.578125 C 410.359375 221.578125 412.429688 222.929688 413.601562 224.371094 C 415.761719 226.980469 416.210938 232.109375 416.210938 236.96875 Z M 466.339844 227.609375 L 468.859375 212.941406 L 468.320312 212.308594 C 467.691406 212.308594 467.058594 212.21875 466.429688 212.21875 C 462.738281 212.21875 458.601562 214.289062 455.71875 220.949219 L 455.988281 212.671875 L 455.269531 211.949219 C 448.609375 213.390625 446.898438 213.660156 440.328125 214.648438 L 439.789062 215.191406 C 440.328125 221.941406 440.601562 225.988281 440.601562 238.5 C 440.601562 245.878906 440.507812 253.261719 440.328125 260.730469 L 440.871094 261.269531 C 447.53125 261 448.96875 260.910156 456.167969 261 L 456.621094 260.371094 C 456.257812 253.078125 455.71875 242.910156 455.71875 236.699219 C 455.71875 232.648438 455.71875 226.710938 461.839844 226.710938 C 463.371094 226.710938 464.269531 227.25 465.53125 227.96875 Z M 490.371094 260.371094 C 489.917969 253.441406 489.558594 248.128906 489.558594 235.710938 C 489.558594 228.058594 489.738281 220.320312 489.828125 212.671875 L 489.199219 211.949219 L 473.71875 214.648438 L 473.179688 215.191406 C 473.898438 222.03125 474.167969 225.179688 474.167969 237.960938 C 474.167969 247.769531 473.898438 253.261719 473.628906 260.640625 L 474.167969 261.269531 C 480.648438 261 482.449219 260.910156 489.738281 261 L 490.371094 260.371094 M 488.929688 203.308594 L 489.199219 191.070312 L 488.660156 190.53125 L 473.988281 192.328125 L 473.449219 192.960938 C 473.628906 196.199219 473.71875 198.089844 473.71875 200.25 C 473.71875 201.960938 473.71875 203.761719 473.628906 205.46875 L 474.257812 206.011719 C 480.378906 204.929688 482.089844 204.75 488.480469 203.941406 Z M 540.410156 234.179688 C 540.5 226.078125 540.5 222.570312 538.160156 218.789062 C 536.359375 215.910156 532.761719 212.308594 521.242188 212.308594 C 513.5 212.308594 508.730469 213.75 503.601562 215.28125 L 503.0625 216 L 502.609375 225.808594 L 503.332031 226.171875 C 506.480469 224.910156 512.332031 222.570312 518.359375 222.570312 C 521.691406 222.570312 523.039062 223.109375 524.210938 224.28125 C 525.109375 225.179688 525.382812 226.800781 525.382812 228.148438 C 514.582031 229.589844 509.539062 230.578125 504.140625 233.910156 C 499.101562 237.058594 497.390625 242.191406 497.390625 246.238281 C 497.390625 255.871094 504.320312 262.078125 513.140625 262.078125 C 519.890625 262.078125 523.761719 258.839844 525.652344 257.308594 L 525.652344 260.640625 L 526.191406 261.269531 C 532.671875 261 534.652344 260.910156 540.5 261 L 540.949219 260.371094 C 540.320312 251.550781 540.320312 249.300781 540.320312 240.839844 L 540.410156 234.179688 M 525.5625 248.488281 C 523.671875 249.570312 521.242188 250.828125 518.269531 250.828125 C 515.03125 250.828125 512.332031 249.121094 512.332031 245.339844 C 512.332031 239.398438 519.441406 238.410156 525.5625 237.601562 Z M 566.777344 260.371094 C 566.328125 250.019531 565.878906 240.570312 565.878906 212.128906 C 565.878906 203.578125 565.96875 199.53125 566.328125 189.808594 L 565.699219 189.179688 L 550.308594 191.609375 L 549.949219 192.148438 C 550.847656 203.128906 550.9375 206.101562 551.117188 220.679688 C 551.210938 225.988281 551.210938 231.300781 551.210938 236.609375 C 551.210938 246.328125 551.027344 251.730469 550.667969 260.640625 L 551.210938 261.269531 C 557.238281 261 559.667969 260.910156 566.238281 261 Z M 629.511719 222.300781 C 621.953125 219.148438 617.992188 217.53125 617.992188 213.480469 C 617.992188 210.691406 620.601562 207.179688 626.542969 207.179688 C 633.382812 207.179688 637.429688 209.96875 640.761719 212.21875 L 641.570312 211.859375 L 642.292969 200.070312 L 641.839844 199.441406 C 637.972656 197.820312 633.921875 196.109375 625.191406 196.109375 C 608.273438 196.109375 602.421875 205.648438 602.421875 215.28125 C 602.421875 226.171875 610.882812 230.128906 615.921875 232.558594 L 618.890625 233.910156 C 625.101562 236.519531 629.871094 238.769531 629.871094 243.539062 C 629.871094 246.960938 626.902344 251.011719 619.070312 251.011719 C 610.882812 251.011719 606.292969 247.410156 603.679688 245.339844 L 602.78125 245.609375 L 602.152344 258.300781 L 602.691406 259.019531 C 603.679688 259.378906 604.671875 259.828125 605.660156 260.101562 C 607.730469 260.820312 613.042969 262.351562 619.792969 262.351562 C 622.492188 262.351562 629.332031 262.078125 634.730469 259.558594 C 642.292969 255.871094 645.53125 249.03125 645.53125 241.378906 C 645.53125 236.25 643.550781 230.761719 638.78125 227.070312 C 636.351562 225.269531 634.011719 224.191406 631.851562 223.199219 Z M 679.28125 250.648438 C 677.75 251.101562 676.667969 251.460938 675.140625 251.460938 C 670.550781 251.460938 670.191406 248.578125 670.007812 247.230469 C 669.738281 244.890625 669.738281 239.941406 669.828125 236.339844 L 670.007812 223.648438 L 678.109375 224.011719 L 678.648438 223.46875 L 679.550781 213.839844 L 679.007812 213.300781 L 670.007812 213.300781 L 670.28125 198.179688 L 669.648438 197.640625 C 663.53125 199.441406 661.910156 199.890625 655.519531 201.511719 L 655.160156 202.140625 L 655.25 213.390625 L 650.390625 213.210938 L 649.851562 213.660156 L 649.039062 223.289062 L 649.578125 223.828125 L 655.25 223.648438 L 654.980469 237.960938 C 654.890625 240.210938 654.800781 242.460938 654.800781 244.800781 C 654.800781 253.078125 654.980469 261.988281 669.019531 261.988281 C 672.53125 261.988281 675.320312 261.449219 678.46875 260.910156 L 679.101562 260.28125 L 680 251.011719 Z M 725.988281 234.179688 C 726.078125 226.078125 726.078125 222.570312 723.738281 218.789062 C 721.9375 215.910156 718.339844 212.308594 706.820312 212.308594 C 699.078125 212.308594 694.308594 213.75 689.179688 215.28125 L 688.640625 216 L 688.1875 225.808594 L 688.910156 226.171875 C 692.058594 224.910156 697.910156 222.570312 703.9375 222.570312 C 707.269531 222.570312 708.617188 223.109375 709.789062 224.28125 C 710.6875 225.179688 710.960938 226.800781 710.960938 228.148438 C 700.160156 229.589844 695.117188 230.578125 689.71875 233.910156 C 684.679688 237.058594 682.96875 242.191406 682.96875 246.238281 C 682.96875 255.871094 689.898438 262.078125 698.71875 262.078125 C 705.46875 262.078125 709.339844 258.839844 711.230469 257.308594 L 711.230469 260.640625 L 711.769531 261.269531 C 718.25 261 720.230469 260.910156 726.078125 261 L 726.527344 260.371094 C 725.898438 251.550781 725.898438 249.300781 725.898438 240.839844 L 725.988281 234.179688 M 711.140625 248.488281 C 709.25 249.570312 706.820312 250.828125 703.847656 250.828125 C 700.609375 250.828125 697.910156 249.121094 697.910156 245.339844 C 697.910156 239.398438 705.019531 238.410156 711.140625 237.601562 Z M 761.722656 250.648438 C 760.191406 251.101562 759.109375 251.460938 757.582031 251.460938 C 752.992188 251.460938 752.632812 248.578125 752.449219 247.230469 C 752.179688 244.890625 752.179688 239.941406 752.269531 236.339844 L 752.449219 223.648438 L 760.550781 224.011719 L 761.089844 223.46875 L 761.992188 213.839844 L 761.449219 213.300781 L 752.449219 213.300781 L 752.722656 198.179688 L 752.089844 197.640625 C 745.972656 199.441406 744.351562 199.890625 737.960938 201.511719 L 737.601562 202.140625 L 737.691406 213.390625 L 732.832031 213.210938 L 732.292969 213.660156 L 731.480469 223.289062 L 732.019531 223.828125 L 737.691406 223.648438 L 737.421875 237.960938 C 737.332031 240.210938 737.242188 242.460938 737.242188 244.800781 C 737.242188 253.078125 737.421875 261.988281 751.460938 261.988281 C 754.972656 261.988281 757.761719 261.449219 760.910156 260.910156 L 761.542969 260.28125 L 762.441406 251.011719 Z M 808.339844 247.679688 C 804.921875 249.480469 800.871094 251.550781 794.300781 251.550781 C 788.902344 251.550781 785.210938 249.839844 783.050781 246.601562 C 781.699219 244.710938 781.429688 242.910156 781.070312 241.109375 L 810.140625 240.570312 L 810.679688 239.941406 C 810.589844 235.53125 810.5 231.03125 809.242188 226.53125 C 806.089844 215.910156 799.160156 213.75 796.101562 213.03125 C 793.851562 212.398438 791.78125 212.21875 789.710938 212.21875 C 775.582031 212.21875 766.21875 221.488281 766.21875 237.058594 C 766.21875 241.289062 766.941406 245.699219 768.378906 248.851562 C 773.601562 261 785.839844 262.078125 792.320312 262.078125 C 799.789062 262.078125 803.03125 260.730469 807.800781 258.839844 L 808.339844 258.121094 L 808.96875 247.949219 L 808.339844 247.679688 M 781.070312 231.570312 C 781.339844 228.78125 781.96875 225 785.390625 222.839844 C 786.46875 222.121094 787.730469 221.851562 788.992188 221.851562 C 791.960938 221.851562 793.761719 223.378906 794.75 225 C 796.011719 226.980469 796.101562 229.140625 796.101562 231.210938 Z M 813.558594 261 "/>
<path fill-rule="nonzero" fill="rgb(34.901961%, 14.901961%, 14.901961%)" fill-opacity="1" d="M 385.519531 381 C 393.890625 381.179688 404.238281 381.359375 410.988281 376.679688 C 416.929688 372.449219 418.550781 366.511719 418.550781 361.46875 C 418.550781 355.710938 416.117188 350.398438 410.988281 347.878906 C 409.277344 346.980469 407.300781 346.621094 405.410156 346.261719 C 408.46875 345 412.070312 343.378906 414.410156 338.609375 C 415.398438 336.539062 415.847656 334.378906 415.847656 332.308594 C 415.847656 329.429688 415.128906 325.46875 412.25 322.230469 C 408.46875 318.179688 402.617188 317.101562 393.800781 317.101562 C 390.738281 317.101562 385.25 317.191406 382.1875 317.28125 L 369.589844 317.460938 L 369.050781 318 C 369.410156 326.640625 369.5 329.96875 369.5 342.390625 C 369.5 355.171875 369.410156 367.859375 369.230469 380.640625 L 369.859375 381 L 385.519531 381 M 384.890625 353.640625 C 391.730469 353.460938 395.6875 353.460938 398.300781 354.988281 C 400.910156 356.609375 401.898438 359.488281 401.898438 362.371094 C 401.898438 366.421875 399.648438 368.941406 396.320312 370.109375 C 393.617188 371.011719 388.757812 371.011719 384.890625 370.921875 L 384.890625 353.640625 M 384.890625 327.179688 C 386.777344 327.179688 389.300781 327.089844 390.828125 327.089844 C 395.6875 327.089844 400.097656 328.800781 400.097656 334.648438 C 400.097656 339.421875 396.589844 341.398438 395.507812 341.941406 C 393.257812 342.929688 388.488281 342.929688 384.890625 342.929688 Z M 466.878906 367.679688 C 463.460938 369.480469 459.410156 371.550781 452.839844 371.550781 C 447.441406 371.550781 443.75 369.839844 441.589844 366.601562 C 440.238281 364.710938 439.96875 362.910156 439.609375 361.109375 L 468.679688 360.570312 L 469.21875 359.941406 C 469.128906 355.53125 469.039062 351.03125 467.78125 346.53125 C 464.628906 335.910156 457.699219 333.75 454.640625 333.03125 C 452.390625 332.398438 450.320312 332.21875 448.25 332.21875 C 434.121094 332.21875 424.757812 341.488281 424.757812 357.058594 C 424.757812 361.289062 425.480469 365.699219 426.917969 368.851562 C 432.140625 381 444.378906 382.078125 450.859375 382.078125 C 458.328125 382.078125 461.570312 380.730469 466.339844 378.839844 L 466.878906 378.121094 L 467.507812 367.949219 L 466.878906 367.679688 M 439.609375 351.570312 C 439.878906 348.78125 440.507812 345 443.929688 342.839844 C 445.007812 342.121094 446.269531 341.851562 447.53125 341.851562 C 450.5 341.851562 452.300781 343.378906 453.289062 345 C 454.550781 346.980469 454.640625 349.140625 454.640625 351.210938 Z M 517.546875 354.179688 C 517.636719 346.078125 517.636719 342.570312 515.296875 338.789062 C 513.496094 335.910156 509.898438 332.308594 498.378906 332.308594 C 490.636719 332.308594 485.867188 333.75 480.738281 335.28125 L 480.199219 336 L 479.746094 345.808594 L 480.46875 346.171875 C 483.617188 344.910156 489.46875 342.570312 495.496094 342.570312 C 498.828125 342.570312 500.175781 343.109375 501.347656 344.28125 C 502.246094 345.179688 502.519531 346.800781 502.519531 348.148438 C 491.71875 349.589844 486.675781 350.578125 481.277344 353.910156 C 476.238281 357.058594 474.527344 362.191406 474.527344 366.238281 C 474.527344 375.871094 481.457031 382.078125 490.277344 382.078125 C 497.027344 382.078125 500.898438 378.839844 502.789062 377.308594 L 502.789062 380.640625 L 503.328125 381.269531 C 509.808594 381 511.789062 380.910156 517.636719 381 L 518.085938 380.371094 C 517.457031 371.550781 517.457031 369.300781 517.457031 360.839844 L 517.546875 354.179688 M 502.699219 368.488281 C 500.808594 369.570312 498.378906 370.828125 495.40625 370.828125 C 492.167969 370.828125 489.46875 369.121094 489.46875 365.339844 C 489.46875 359.398438 496.578125 358.410156 502.699219 357.601562 Z M 563.269531 368.039062 C 560.839844 369.480469 558.5 370.921875 553.910156 370.921875 C 543.738281 370.921875 541.667969 362.460938 541.667969 357.058594 C 541.667969 350.488281 544.550781 342.929688 553.28125 342.929688 C 557.238281 342.929688 559.398438 344.371094 562.101562 346.171875 L 563 345.898438 C 563.359375 341.128906 563.449219 339.871094 564.167969 335.101562 L 563.71875 334.558594 C 559.757812 333.300781 556.339844 332.21875 551.121094 332.21875 C 529.96875 332.21875 525.828125 348.238281 525.828125 357.421875 C 525.828125 367.769531 531.230469 381.808594 551.480469 381.808594 C 556.25 381.808594 559.308594 380.910156 563.089844 379.828125 L 563.628906 379.289062 L 563.988281 368.488281 Z M 615.289062 380.371094 C 614.929688 372.988281 614.839844 370.46875 614.660156 361.109375 L 614.660156 354.359375 C 614.570312 345.808594 614.480469 340.859375 611.867188 337.078125 C 609.257812 333.390625 605.480469 332.21875 601.519531 332.21875 C 594.949219 332.21875 589.820312 335.371094 586.21875 337.53125 L 586.488281 309.808594 L 585.949219 309.179688 L 570.558594 311.609375 L 570.109375 312.148438 C 570.917969 320.878906 571.097656 324.121094 571.277344 335.730469 C 571.460938 343.019531 571.550781 350.308594 571.550781 357.601562 C 571.550781 366.511719 571.367188 371.820312 571.1875 380.640625 L 571.640625 381.269531 C 578.300781 380.910156 579.648438 380.910156 586.9375 380.910156 L 587.480469 380.371094 C 586.847656 366.871094 586.757812 362.820312 586.667969 346.890625 C 588.378906 345.71875 590.539062 344.191406 593.597656 344.191406 C 598.550781 344.191406 598.910156 349.320312 599.269531 352.921875 C 599.449219 355.710938 599.539062 368.488281 599.539062 371.820312 C 599.539062 374.789062 599.449219 377.671875 599.449219 380.640625 L 599.898438 381.269531 C 606.378906 380.910156 607.820312 380.910156 614.75 380.910156 Z M 620.148438 381 "/>
</svg>
