<?xml version="1.0" encoding="UTF-8"?>
<svg xmlns="http://www.w3.org/2000/svg" xmlns:xlink="http://www.w3.org/1999/xlink" width="975" height="1300" viewBox="0 0 975 1300">
<path fill-rule="nonzero" fill="rgb(98.823529%, 78.823529%, 9.019608%)" fill-opacity="1" d="M 50 50 L 925 50 L 925 290 L 50 290 Z M 50 50 "/>
<path fill-rule="nonzero" fill="rgb(34.901961%, 14.901961%, 14.901961%)" fill-opacity="1" d="M 115.878906 77.191406 C 108.679688 77.460938 107.511719 77.460938 99.949219 77.460938 L 99.5 78 C 100.128906 88.171875 100.128906 90.78125 100.21875 101.398438 C 96.261719 101.488281 92.300781 101.578125 88.25 101.578125 C 85.101562 101.578125 81.859375 101.488281 78.710938 101.488281 L 78.890625 77.730469 L 78.441406 77.191406 C 71.511719 77.460938 70.160156 77.460938 62.332031 77.460938 L 61.789062 78 C 62.242188 87.269531 62.78125 98.339844 62.78125 120.660156 C 62.78125 128.761719 62.601562 133.171875 62.421875 140.730469 L 62.871094 141.269531 C 69.441406 141 71.058594 140.910156 78.980469 141 L 79.429688 140.460938 C 78.890625 129.300781 78.800781 126.058594 78.710938 113.011719 C 82.671875 112.828125 86 112.738281 89.511719 112.738281 C 93.109375 112.738281 96.710938 112.828125 100.308594 112.921875 C 100.492188 125.070312 100.492188 128.039062 100.039062 140.730469 L 100.492188 141.269531 C 107.242188 141 109.039062 140.910156 116.691406 141 L 117.140625 140.460938 C 116.421875 125.339844 116.148438 110.308594 116.148438 95.191406 C 116.148438 88.890625 116.242188 84.660156 116.332031 77.730469 Z M 167.628906 114.179688 C 167.71875 106.078125 167.71875 102.570312 165.378906 98.789062 C 163.578125 95.910156 159.980469 92.308594 148.460938 92.308594 C 140.71875 92.308594 135.949219 93.75 130.820312 95.28125 L 130.28125 96 L 129.828125 105.808594 L 130.550781 106.171875 C 133.699219 104.910156 139.550781 102.570312 145.578125 102.570312 C 148.910156 102.570312 150.257812 103.109375 151.429688 104.28125 C 152.328125 105.179688 152.601562 106.800781 152.601562 108.148438 C 141.800781 109.589844 136.757812 110.578125 131.359375 113.910156 C 126.320312 117.058594 124.609375 122.191406 124.609375 126.238281 C 124.609375 135.871094 131.539062 142.078125 140.359375 142.078125 C 147.109375 142.078125 150.980469 138.839844 152.871094 137.308594 L 152.871094 140.640625 L 153.410156 141.269531 C 159.890625 141 161.871094 140.910156 167.71875 141 L 168.167969 140.371094 C 167.539062 131.550781 167.539062 129.300781 167.539062 120.839844 L 167.628906 114.179688 M 152.78125 128.488281 C 150.890625 129.570312 148.460938 130.828125 145.488281 130.828125 C 142.25 130.828125 139.550781 129.121094 139.550781 125.339844 C 139.550781 119.398438 146.660156 118.410156 152.78125 117.601562 Z M 194 140.371094 C 193.550781 130.019531 193.101562 120.570312 193.101562 92.128906 C 193.101562 83.578125 193.191406 79.53125 193.550781 69.808594 L 192.921875 69.179688 L 177.53125 71.609375 L 177.171875 72.148438 C 178.070312 83.128906 178.160156 86.101562 178.339844 100.679688 C 178.433594 105.988281 178.433594 111.300781 178.433594 116.609375 C 178.433594 126.328125 178.25 131.730469 177.890625 140.640625 L 178.433594 141.269531 C 184.460938 141 186.890625 140.910156 193.460938 141 Z M 222.4375 140.371094 C 221.539062 123.988281 221.449219 119.578125 221.539062 103.648438 L 228.648438 104.011719 L 229.277344 103.378906 L 230.089844 93.839844 L 229.640625 93.300781 L 221.449219 93.300781 L 221.539062 91.230469 C 221.539062 85.738281 221.628906 80.699219 227.480469 80.699219 C 228.378906 80.699219 229.277344 80.878906 230.179688 80.96875 L 230.808594 80.609375 L 231.617188 70.441406 L 231.167969 69.808594 C 229.007812 69.628906 226.9375 69.539062 224.867188 69.539062 C 220.277344 69.539062 215.597656 70.078125 212 72.78125 C 206.417969 76.921875 206.507812 83.398438 206.507812 87.898438 L 206.597656 93.300781 L 200.75 93.210938 L 200.210938 93.660156 L 199.308594 103.199219 L 199.847656 103.738281 L 206.6875 103.558594 C 206.6875 120.570312 206.6875 124.621094 206.148438 140.640625 L 206.6875 141.269531 C 212.808594 141 215.148438 140.910156 221.898438 140.910156 Z M 331.609375 77.191406 C 322.25 77.460938 320.71875 77.460938 310.730469 77.460938 L 310.191406 78 L 306.050781 92.578125 L 302.449219 105.628906 L 298.21875 121.289062 L 294.257812 105.179688 L 291.738281 95.011719 L 287.238281 77.730469 L 286.789062 77.191406 C 277.160156 77.460938 275.539062 77.460938 265.460938 77.460938 L 264.917969 78 C 264.019531 104.910156 263.660156 111.839844 261.679688 140.730469 L 262.128906 141.269531 C 267.890625 141 269.601562 140.910156 274.820312 141 L 275.359375 140.460938 L 275.628906 123.269531 L 276.167969 105.808594 L 276.53125 88.800781 L 280.488281 104.730469 L 283.910156 117.511719 L 289.941406 140.730469 L 290.480469 141.269531 C 296.058594 141 297.589844 140.910156 303.890625 141 L 304.429688 140.460938 L 309.648438 121.289062 L 313.25 108.148438 L 318.289062 89.25 L 318.289062 105.359375 L 318.46875 119.128906 L 318.46875 140.730469 L 318.917969 141.269531 C 325.128906 141 327.558594 140.910156 334.488281 141 L 334.941406 140.460938 C 334.398438 130.199219 333.769531 119.851562 333.410156 109.5 C 333.140625 103.828125 332.960938 98.160156 332.691406 92.488281 C 332.238281 84.121094 332.148438 83.039062 332.148438 77.730469 Z M 390.921875 117.058594 C 390.921875 113.550781 390.921875 98.96875 378.320312 94.019531 C 374.359375 92.488281 369.679688 92.308594 367.339844 92.308594 C 351.679688 92.308594 342.859375 100.679688 342.859375 117.238281 C 342.859375 123 343.761719 128.851562 347.089844 133.710938 C 349.429688 137.21875 353.839844 142.078125 366.710938 142.078125 C 385.789062 142.078125 390.921875 130.558594 390.921875 117.058594 M 375.351562 116.96875 C 375.351562 124.351562 374.359375 132.539062 366.890625 132.539062 C 364.550781 132.539062 362.929688 131.460938 361.851562 130.46875 C 360.320312 128.941406 358.609375 125.878906 358.609375 117.148438 C 358.609375 114.539062 358.609375 108.78125 360.410156 105.628906 C 361.761719 103.199219 364.101562 101.578125 366.980469 101.578125 C 369.5 101.578125 371.570312 102.929688 372.742188 104.371094 C 374.902344 106.980469 375.351562 112.109375 375.351562 116.96875 Z M 445.28125 117.058594 C 445.28125 113.550781 445.28125 98.96875 432.679688 94.019531 C 428.71875 92.488281 424.039062 92.308594 421.699219 92.308594 C 406.039062 92.308594 397.21875 100.679688 397.21875 117.238281 C 397.21875 123 398.121094 128.851562 401.449219 133.710938 C 403.789062 137.21875 408.199219 142.078125 421.070312 142.078125 C 440.148438 142.078125 445.28125 130.558594 445.28125 117.058594 M 429.710938 116.96875 C 429.710938 124.351562 428.71875 132.539062 421.25 132.539062 C 418.910156 132.539062 417.289062 131.460938 416.210938 130.46875 C 414.679688 128.941406 412.96875 125.878906 412.96875 117.148438 C 412.96875 114.539062 412.96875 108.78125 414.769531 105.628906 C 416.121094 103.199219 418.460938 101.578125 421.339844 101.578125 C 423.859375 101.578125 425.929688 102.929688 427.101562 104.371094 C 429.261719 106.980469 429.710938 112.109375 429.710938 116.96875 Z M 497.929688 140.371094 C 497.480469 132.449219 497.480469 129.929688 497.300781 121.109375 L 497.300781 114.089844 C 497.210938 105.449219 497.121094 101.308594 494.871094 97.621094 C 492.078125 92.941406 486.949219 92.21875 483.710938 92.21875 C 478.21875 92.21875 473.449219 95.101562 469.308594 97.53125 L 469.488281 92.578125 L 468.589844 91.949219 C 461.660156 93.390625 460.128906 93.660156 453.378906 94.558594 L 452.839844 95.191406 C 453.558594 103.019531 454.101562 108.691406 454.101562 123.359375 C 454.101562 129.121094 454.007812 134.878906 453.917969 140.640625 L 454.460938 141.179688 C 460.941406 140.910156 462.289062 140.910156 469.488281 140.910156 L 470.03125 140.371094 C 469.488281 126.511719 469.398438 123 469.308594 106.890625 C 471.199219 105.628906 473.359375 104.101562 476.238281 104.101562 C 481.191406 104.101562 481.640625 109.410156 481.910156 112.648438 C 482.089844 115.621094 482.179688 127.949219 482.179688 131.371094 C 482.179688 134.429688 482.089844 137.578125 482.089844 140.640625 L 482.628906 141.179688 C 488.570312 141 490.101562 140.910156 497.300781 140.910156 Z M 551.210938 141 C 559.582031 141.179688 569.929688 141.359375 576.679688 136.679688 C 582.621094 132.449219 584.242188 126.511719 584.242188 121.46875 C 584.242188 115.710938 581.808594 110.398438 576.679688 107.878906 C 574.96875 106.980469 572.992188 106.621094 571.101562 106.261719 C 574.160156 105 577.761719 103.378906 580.101562 98.609375 C 581.089844 96.539062 581.539062 94.378906 581.539062 92.308594 C 581.539062 89.429688 580.820312 85.46875 577.941406 82.230469 C 574.160156 78.179688 568.308594 77.101562 559.492188 77.101562 C 556.429688 77.101562 550.941406 77.191406 547.878906 77.28125 L 535.28125 77.460938 L 534.742188 78 C 535.101562 86.640625 535.191406 89.96875 535.191406 102.390625 C 535.191406 115.171875 535.101562 127.859375 534.921875 140.640625 L 535.550781 141 L 551.210938 141 M 550.582031 113.640625 C 557.421875 113.460938 561.378906 113.460938 563.992188 114.988281 C 566.601562 116.609375 567.589844 119.488281 567.589844 122.371094 C 567.589844 126.421875 565.339844 128.941406 562.011719 130.109375 C 559.308594 131.011719 554.449219 131.011719 550.582031 130.921875 L 550.582031 113.640625 M 550.582031 87.179688 C 552.46875 87.179688 554.992188 87.089844 556.519531 87.089844 C 561.378906 87.089844 565.789062 88.800781 565.789062 94.648438 C 565.789062 99.421875 562.28125 101.398438 561.199219 101.941406 C 558.949219 102.929688 554.179688 102.929688 550.582031 102.929688 Z M 632.660156 114.179688 C 632.75 106.078125 632.75 102.570312 630.410156 98.789062 C 628.609375 95.910156 625.011719 92.308594 613.492188 92.308594 C 605.75 92.308594 600.980469 93.75 595.851562 95.28125 L 595.3125 96 L 594.859375 105.808594 L 595.582031 106.171875 C 598.730469 104.910156 604.582031 102.570312 610.609375 102.570312 C 613.941406 102.570312 615.289062 103.109375 616.460938 104.28125 C 617.359375 105.179688 617.632812 106.800781 617.632812 108.148438 C 606.832031 109.589844 601.789062 110.578125 596.390625 113.910156 C 591.351562 117.058594 589.640625 122.191406 589.640625 126.238281 C 589.640625 135.871094 596.570312 142.078125 605.390625 142.078125 C 612.140625 142.078125 616.011719 138.839844 617.902344 137.308594 L 617.902344 140.640625 L 618.441406 141.269531 C 624.921875 141 626.902344 140.910156 632.75 141 L 633.199219 140.371094 C 632.570312 131.550781 632.570312 129.300781 632.570312 120.839844 L 632.660156 114.179688 M 617.8125 128.488281 C 615.921875 129.570312 613.492188 130.828125 610.519531 130.828125 C 607.28125 130.828125 604.582031 129.121094 604.582031 125.339844 C 604.582031 119.398438 611.691406 118.410156 617.8125 117.601562 Z M 683.417969 93.03125 L 670.910156 93.300781 L 670.1875 93.929688 C 668.660156 100.140625 668.300781 101.488281 666.140625 108.511719 L 663.800781 116.25 L 661.820312 123 L 660.109375 116.609375 L 657.5 107.070312 L 653.898438 93.390625 L 653.179688 92.851562 C 646.160156 93.390625 644.628906 93.480469 637.25 93.660156 L 636.800781 94.289062 C 640.039062 102.839844 648.410156 125.429688 653.988281 142.710938 C 650.300781 152.070312 649.578125 153.691406 645.527344 162.601562 L 645.980469 163.320312 C 648.230469 163.230469 650.75 163.140625 653.089844 163.140625 C 655.339844 163.140625 657.679688 163.230469 659.929688 163.230469 L 660.558594 162.691406 C 665.507812 143.25 667.9375 135.691406 679.820312 104.371094 C 681.167969 100.769531 682.519531 97.261719 683.777344 93.75 Z M 740.480469 102.300781 C 732.921875 99.148438 728.960938 97.53125 728.960938 93.480469 C 728.960938 90.691406 731.570312 87.179688 737.511719 87.179688 C 744.351562 87.179688 748.398438 89.96875 751.730469 92.21875 L 752.539062 91.859375 L 753.261719 80.070312 L 752.808594 79.441406 C 748.941406 77.820312 744.890625 76.109375 736.160156 76.109375 C 719.242188 76.109375 713.390625 85.648438 713.390625 95.28125 C 713.390625 106.171875 721.851562 110.128906 726.890625 112.558594 L 729.859375 113.910156 C 736.070312 116.519531 740.839844 118.769531 740.839844 123.539062 C 740.839844 126.960938 737.871094 131.011719 730.039062 131.011719 C 721.851562 131.011719 717.261719 127.410156 714.648438 125.339844 L 713.75 125.609375 L 713.121094 138.300781 L 713.660156 139.019531 C 714.648438 139.378906 715.640625 139.828125 716.628906 140.101562 C 718.699219 140.820312 724.011719 142.351562 730.761719 142.351562 C 733.460938 142.351562 740.300781 142.078125 745.699219 139.558594 C 753.261719 135.871094 756.5 129.03125 756.5 121.378906 C 756.5 116.25 754.519531 110.761719 749.75 107.070312 C 747.320312 105.269531 744.980469 104.191406 742.820312 103.199219 Z M 790.25 130.648438 C 788.71875 131.101562 787.636719 131.460938 786.109375 131.460938 C 781.519531 131.460938 781.160156 128.578125 780.976562 127.230469 C 780.707031 124.890625 780.707031 119.941406 780.796875 116.339844 L 780.976562 103.648438 L 789.078125 104.011719 L 789.617188 103.46875 L 790.519531 93.839844 L 789.976562 93.300781 L 780.976562 93.300781 L 781.25 78.179688 L 780.617188 77.640625 C 774.5 79.441406 772.878906 79.890625 766.488281 81.511719 L 766.128906 82.140625 L 766.21875 93.390625 L 761.359375 93.210938 L 760.820312 93.660156 L 760.007812 103.289062 L 760.546875 103.828125 L 766.21875 103.648438 L 765.949219 117.960938 C 765.859375 120.210938 765.769531 122.460938 765.769531 124.800781 C 765.769531 133.078125 765.949219 141.988281 779.988281 141.988281 C 783.5 141.988281 786.289062 141.449219 789.4375 140.910156 L 790.070312 140.28125 L 790.96875 131.011719 Z M 836.960938 114.179688 C 837.050781 106.078125 837.050781 102.570312 834.710938 98.789062 C 832.910156 95.910156 829.3125 92.308594 817.792969 92.308594 C 810.050781 92.308594 805.28125 93.75 800.152344 95.28125 L 799.613281 96 L 799.160156 105.808594 L 799.882812 106.171875 C 803.03125 104.910156 808.882812 102.570312 814.910156 102.570312 C 818.242188 102.570312 819.589844 103.109375 820.761719 104.28125 C 821.660156 105.179688 821.933594 106.800781 821.933594 108.148438 C 811.132812 109.589844 806.089844 110.578125 800.691406 113.910156 C 795.652344 117.058594 793.941406 122.191406 793.941406 126.238281 C 793.941406 135.871094 800.871094 142.078125 809.691406 142.078125 C 816.441406 142.078125 820.3125 138.839844 822.203125 137.308594 L 822.203125 140.640625 L 822.742188 141.269531 C 829.222656 141 831.203125 140.910156 837.050781 141 L 837.5 140.371094 C 836.871094 131.550781 836.871094 129.300781 836.871094 120.839844 L 836.960938 114.179688 M 822.113281 128.488281 C 820.222656 129.570312 817.792969 130.828125 814.820312 130.828125 C 811.582031 130.828125 808.882812 129.121094 808.882812 125.339844 C 808.882812 119.398438 815.992188 118.410156 822.113281 117.601562 Z M 872.691406 130.648438 C 871.160156 131.101562 870.078125 131.460938 868.550781 131.460938 C 863.960938 131.460938 863.601562 128.578125 863.417969 127.230469 C 863.148438 124.890625 863.148438 119.941406 863.238281 116.339844 L 863.417969 103.648438 L 871.519531 104.011719 L 872.058594 103.46875 L 872.960938 93.839844 L 872.417969 93.300781 L 863.417969 93.300781 L 863.691406 78.179688 L 863.058594 77.640625 C 856.941406 79.441406 855.320312 79.890625 848.929688 81.511719 L 848.570312 82.140625 L 848.660156 93.390625 L 843.800781 93.210938 L 843.261719 93.660156 L 842.449219 103.289062 L 842.988281 103.828125 L 848.660156 103.648438 L 848.390625 117.960938 C 848.300781 120.210938 848.210938 122.460938 848.210938 124.800781 C 848.210938 133.078125 848.390625 141.988281 862.429688 141.988281 C 865.941406 141.988281 868.730469 141.449219 871.878906 140.910156 L 872.511719 140.28125 L 873.410156 131.011719 Z M 919.308594 127.679688 C 915.890625 129.480469 911.839844 131.550781 905.269531 131.550781 C 899.871094 131.550781 896.179688 129.839844 894.019531 126.601562 C 892.667969 124.710938 892.398438 122.910156 892.039062 121.109375 L 921.109375 120.570312 L 921.648438 119.941406 C 921.558594 115.53125 921.46875 111.03125 920.210938 106.53125 C 917.058594 95.910156 910.128906 93.75 907.070312 93.03125 C 904.820312 92.398438 902.75 92.21875 900.679688 92.21875 C 886.550781 92.21875 877.1875 101.488281 877.1875 117.058594 C 877.1875 121.289062 877.910156 125.699219 879.347656 128.851562 C 884.570312 141 896.808594 142.078125 903.289062 142.078125 C 910.757812 142.078125 914 140.730469 918.769531 138.839844 L 919.308594 138.121094 L 919.9375 127.949219 L 919.308594 127.679688 M 892.039062 111.570312 C 892.308594 108.78125 892.9375 105 896.359375 102.839844 C 897.4375 102.121094 898.699219 101.851562 899.960938 101.851562 C 902.929688 101.851562 904.730469 103.378906 905.71875 105 C 906.980469 106.980469 907.070312 109.140625 907.070312 111.210938 Z M 924.53125 141 "/>
<path fill-rule="nonzero" fill="rgb(34.901961%, 14.901961%, 14.901961%)" fill-opacity="1" d="M 385.519531 261 C 393.890625 261.179688 404.238281 261.359375 410.988281 256.679688 C 416.929688 252.449219 418.550781 246.511719 418.550781 241.46875 C 418.550781 235.710938 416.117188 230.398438 410.988281 227.878906 C 409.277344 226.980469 407.300781 226.621094 405.410156 226.261719 C 408.46875 225 412.070312 223.378906 414.410156 218.609375 C 415.398438 216.539062 415.847656 214.378906 415.847656 212.308594 C 415.847656 209.429688 415.128906 205.46875 412.25 202.230469 C 408.46875 198.179688 402.617188 197.101562 393.800781 197.101562 C 390.738281 197.101562 385.25 197.191406 382.1875 197.28125 L 369.589844 197.460938 L 369.050781 198 C 369.410156 206.640625 369.5 209.96875 369.5 222.390625 C 369.5 235.171875 369.410156 247.859375 369.230469 260.640625 L 369.859375 261 L 385.519531 261 M 384.890625 233.640625 C 391.730469 233.460938 395.6875 233.460938 398.300781 234.988281 C 400.910156 236.609375 401.898438 239.488281 401.898438 242.371094 C 401.898438 246.421875 399.648438 248.941406 396.320312 250.109375 C 393.617188 251.011719 388.757812 251.011719 384.890625 250.921875 L 384.890625 233.640625 M 384.890625 207.179688 C 386.777344 207.179688 389.300781 207.089844 390.828125 207.089844 C 395.6875 207.089844 400.097656 208.800781 400.097656 214.648438 C 400.097656 219.421875 396.589844 221.398438 395.507812 221.941406 C 393.257812 222.929688 388.488281 222.929688 384.890625 222.929688 Z M 466.878906 247.679688 C 463.460938 249.480469 459.410156 251.550781 452.839844 251.550781 C 447.441406 251.550781 443.75 249.839844 441.589844 246.601562 C 440.238281 244.710938 439.96875 242.910156 439.609375 241.109375 L 468.679688 240.570312 L 469.21875 239.941406 C 469.128906 235.53125 469.039062 231.03125 467.78125 226.53125 C 464.628906 215.910156 457.699219 213.75 454.640625 213.03125 C 452.390625 212.398438 450.320312 212.21875 448.25 212.21875 C 434.121094 212.21875 424.757812 221.488281 424.757812 237.058594 C 424.757812 241.289062 425.480469 245.699219 426.917969 248.851562 C 432.140625 261 444.378906 262.078125 450.859375 262.078125 C 458.328125 262.078125 461.570312 260.730469 466.339844 258.839844 L 466.878906 258.121094 L 467.507812 247.949219 L 466.878906 247.679688 M 439.609375 231.570312 C 439.878906 228.78125 440.507812 225 443.929688 222.839844 C 445.007812 222.121094 446.269531 221.851562 447.53125 221.851562 C 450.5 221.851562 452.300781 223.378906 453.289062 225 C 454.550781 226.980469 454.640625 229.140625 454.640625 231.210938 Z M 517.546875 234.179688 C 517.636719 226.078125 517.636719 222.570312 515.296875 218.789062 C 513.496094 215.910156 509.898438 212.308594 498.378906 212.308594 C 490.636719 212.308594 485.867188 213.75 480.738281 215.28125 L 480.199219 216 L 479.746094 225.808594 L 480.46875 226.171875 C 483.617188 224.910156 489.46875 222.570312 495.496094 222.570312 C 498.828125 222.570312 500.175781 223.109375 501.347656 224.28125 C 502.246094 225.179688 502.519531 226.800781 502.519531 228.148438 C 491.71875 229.589844 486.675781 230.578125 481.277344 233.910156 C 476.238281 237.058594 474.527344 242.191406 474.527344 246.238281 C 474.527344 255.871094 481.457031 262.078125 490.277344 262.078125 C 497.027344 262.078125 500.898438 258.839844 502.789062 257.308594 L 502.789062 260.640625 L 503.328125 261.269531 C 509.808594 261 511.789062 260.910156 517.636719 261 L 518.085938 260.371094 C 517.457031 251.550781 517.457031 249.300781 517.457031 240.839844 L 517.546875 234.179688 M 502.699219 248.488281 C 500.808594 249.570312 498.378906 250.828125 495.40625 250.828125 C 492.167969 250.828125 489.46875 249.121094 489.46875 245.339844 C 489.46875 239.398438 496.578125 238.410156 502.699219 237.601562 Z M 563.269531 248.039062 C 560.839844 249.480469 558.5 250.921875 553.910156 250.921875 C 543.738281 250.921875 541.667969 242.460938 541.667969 237.058594 C 541.667969 230.488281 544.550781 222.929688 553.28125 222.929688 C 557.238281 222.929688 559.398438 224.371094 562.101562 226.171875 L 563 225.898438 C 563.359375 221.128906 563.449219 219.871094 564.167969 215.101562 L 563.71875 214.558594 C 559.757812 213.300781 556.339844 212.21875 551.121094 212.21875 C 529.96875 212.21875 525.828125 228.238281 525.828125 237.421875 C 525.828125 247.769531 531.230469 261.808594 551.480469 261.808594 C 556.25 261.808594 559.308594 260.910156 563.089844 259.828125 L 563.628906 259.289062 L 563.988281 248.488281 Z M 615.289062 260.371094 C 614.929688 252.988281 614.839844 250.46875 614.660156 241.109375 L 614.660156 234.359375 C 614.570312 225.808594 614.480469 220.859375 611.867188 217.078125 C 609.257812 213.390625 605.480469 212.21875 601.519531 212.21875 C 594.949219 212.21875 589.820312 215.371094 586.21875 217.53125 L 586.488281 189.808594 L 585.949219 189.179688 L 570.558594 191.609375 L 570.109375 192.148438 C 570.917969 200.878906 571.097656 204.121094 571.277344 215.730469 C 571.460938 223.019531 571.550781 230.308594 571.550781 237.601562 C 571.550781 246.511719 571.367188 251.820312 571.1875 260.640625 L 571.640625 261.269531 C 578.300781 260.910156 579.648438 260.910156 586.9375 260.910156 L 587.480469 260.371094 C 586.847656 246.871094 586.757812 242.820312 586.667969 226.890625 C 588.378906 225.71875 590.539062 224.191406 593.597656 224.191406 C 598.550781 224.191406 598.910156 229.320312 599.269531 232.921875 C 599.449219 235.710938 599.539062 248.488281 599.539062 251.820312 C 599.539062 254.789062 599.449219 257.671875 599.449219 260.640625 L 599.898438 261.269531 C 606.378906 260.910156 607.820312 260.910156 614.75 260.910156 Z M 620.148438 261 "/>
</svg>
