<?xml version="1.0" encoding="UTF-8"?>
<svg xmlns="http://www.w3.org/2000/svg" xmlns:xlink="http://www.w3.org/1999/xlink" width="975" height="1300" viewBox="0 0 975 1300">
<path fill-rule="nonzero" fill="rgb(98.823529%, 78.823529%, 9.019608%)" fill-opacity="1" d="M 50 50 L 925 50 L 925 290 L 50 290 Z M 50 50 "/>
<path fill-rule="nonzero" fill="rgb(34.901961%, 14.901961%, 14.901961%)" fill-opacity="1" d="M 264.738281 77.191406 C 255.378906 77.460938 253.847656 77.460938 243.859375 77.460938 L 243.320312 78 L 239.179688 92.578125 L 235.578125 105.628906 L 231.347656 121.289062 L 227.386719 105.179688 L 224.867188 95.011719 L 220.367188 77.730469 L 219.917969 77.191406 C 210.289062 77.460938 208.667969 77.460938 198.589844 77.460938 L 198.046875 78 C 197.148438 104.910156 196.789062 111.839844 194.808594 140.730469 L 195.257812 141.269531 C 201.019531 141 202.730469 140.910156 207.949219 141 L 208.488281 140.460938 L 208.757812 123.269531 L 209.296875 105.808594 L 209.660156 88.800781 L 213.617188 104.730469 L 217.039062 117.511719 L 223.070312 140.730469 L 223.609375 141.269531 C 229.1875 141 230.71875 140.910156 237.019531 141 L 237.558594 140.460938 L 242.777344 121.289062 L 246.378906 108.148438 L 251.417969 89.25 L 251.417969 105.359375 L 251.597656 119.128906 L 251.597656 140.730469 L 252.046875 141.269531 C 258.257812 141 260.6875 140.910156 267.617188 141 L 268.070312 140.460938 C 267.527344 130.199219 266.898438 119.851562 266.539062 109.5 C 266.269531 103.828125 266.089844 98.160156 265.820312 92.488281 C 265.367188 84.121094 265.277344 83.039062 265.277344 77.730469 Z M 324.050781 117.058594 C 324.050781 113.550781 324.050781 98.96875 311.449219 94.019531 C 307.488281 92.488281 302.808594 92.308594 300.46875 92.308594 C 284.808594 92.308594 275.988281 100.679688 275.988281 117.238281 C 275.988281 123 276.890625 128.851562 280.21875 133.710938 C 282.558594 137.21875 286.96875 142.078125 299.839844 142.078125 C 318.917969 142.078125 324.050781 130.558594 324.050781 117.058594 M 308.480469 116.96875 C 308.480469 124.351562 307.488281 132.539062 300.019531 132.539062 C 297.679688 132.539062 296.058594 131.460938 294.980469 130.46875 C 293.449219 128.941406 291.738281 125.878906 291.738281 117.148438 C 291.738281 114.539062 291.738281 108.78125 293.539062 105.628906 C 294.890625 103.199219 297.230469 101.578125 300.109375 101.578125 C 302.628906 101.578125 304.699219 102.929688 305.871094 104.371094 C 308.03125 106.980469 308.480469 112.109375 308.480469 116.96875 Z M 376.699219 140.371094 C 376.25 132.449219 376.25 129.929688 376.070312 121.109375 L 376.070312 114.089844 C 375.980469 105.449219 375.890625 101.308594 373.640625 97.621094 C 370.847656 92.941406 365.71875 92.21875 362.480469 92.21875 C 356.988281 92.21875 352.21875 95.101562 348.078125 97.53125 L 348.257812 92.578125 L 347.359375 91.949219 C 340.429688 93.390625 338.898438 93.660156 332.148438 94.558594 L 331.609375 95.191406 C 332.328125 103.019531 332.871094 108.691406 332.871094 123.359375 C 332.871094 129.121094 332.777344 134.878906 332.6875 140.640625 L 333.230469 141.179688 C 339.710938 140.910156 341.058594 140.910156 348.257812 140.910156 L 348.800781 140.371094 C 348.257812 126.511719 348.167969 123 348.078125 106.890625 C 349.96875 105.628906 352.128906 104.101562 355.007812 104.101562 C 359.960938 104.101562 360.410156 109.410156 360.679688 112.648438 C 360.859375 115.621094 360.949219 127.949219 360.949219 131.371094 C 360.949219 134.429688 360.859375 137.578125 360.859375 140.640625 L 361.398438 141.179688 C 367.339844 141 368.871094 140.910156 376.070312 140.910156 Z M 412.160156 130.648438 C 410.628906 131.101562 409.546875 131.460938 408.019531 131.460938 C 403.429688 131.460938 403.070312 128.578125 402.886719 127.230469 C 402.617188 124.890625 402.617188 119.941406 402.707031 116.339844 L 402.886719 103.648438 L 410.988281 104.011719 L 411.527344 103.46875 L 412.429688 93.839844 L 411.886719 93.300781 L 402.886719 93.300781 L 403.160156 78.179688 L 402.527344 77.640625 C 396.410156 79.441406 394.789062 79.890625 388.398438 81.511719 L 388.039062 82.140625 L 388.128906 93.390625 L 383.269531 93.210938 L 382.730469 93.660156 L 381.917969 103.289062 L 382.457031 103.828125 L 388.128906 103.648438 L 387.859375 117.960938 C 387.769531 120.210938 387.679688 122.460938 387.679688 124.800781 C 387.679688 133.078125 387.859375 141.988281 401.898438 141.988281 C 405.410156 141.988281 408.199219 141.449219 411.347656 140.910156 L 411.980469 140.28125 L 412.878906 131.011719 Z M 458.867188 114.179688 C 458.957031 106.078125 458.957031 102.570312 456.617188 98.789062 C 454.816406 95.910156 451.21875 92.308594 439.699219 92.308594 C 431.957031 92.308594 427.1875 93.75 422.058594 95.28125 L 421.519531 96 L 421.066406 105.808594 L 421.789062 106.171875 C 424.9375 104.910156 430.789062 102.570312 436.816406 102.570312 C 440.148438 102.570312 441.496094 103.109375 442.667969 104.28125 C 443.566406 105.179688 443.839844 106.800781 443.839844 108.148438 C 433.039062 109.589844 427.996094 110.578125 422.597656 113.910156 C 417.558594 117.058594 415.847656 122.191406 415.847656 126.238281 C 415.847656 135.871094 422.777344 142.078125 431.597656 142.078125 C 438.347656 142.078125 442.21875 138.839844 444.109375 137.308594 L 444.109375 140.640625 L 444.648438 141.269531 C 451.128906 141 453.109375 140.910156 458.957031 141 L 459.40625 140.371094 C 458.777344 131.550781 458.777344 129.300781 458.777344 120.839844 L 458.867188 114.179688 M 444.019531 128.488281 C 442.128906 129.570312 439.699219 130.828125 436.726562 130.828125 C 433.488281 130.828125 430.789062 129.121094 430.789062 125.339844 C 430.789062 119.398438 437.898438 118.410156 444.019531 117.601562 Z M 495.410156 107.609375 L 497.929688 92.941406 L 497.390625 92.308594 C 496.761719 92.308594 496.128906 92.21875 495.5 92.21875 C 491.808594 92.21875 487.671875 94.289062 484.789062 100.949219 L 485.058594 92.671875 L 484.339844 91.949219 C 477.679688 93.390625 475.96875 93.660156 469.398438 94.648438 L 468.859375 95.191406 C 469.398438 101.941406 469.671875 105.988281 469.671875 118.5 C 469.671875 125.878906 469.578125 133.261719 469.398438 140.730469 L 469.941406 141.269531 C 476.601562 141 478.039062 140.910156 485.238281 141 L 485.691406 140.371094 C 485.328125 133.078125 484.789062 122.910156 484.789062 116.699219 C 484.789062 112.648438 484.789062 106.710938 490.910156 106.710938 C 492.441406 106.710938 493.339844 107.25 494.601562 107.96875 Z M 543.199219 114.179688 C 543.289062 106.078125 543.289062 102.570312 540.949219 98.789062 C 539.148438 95.910156 535.550781 92.308594 524.03125 92.308594 C 516.289062 92.308594 511.519531 93.75 506.390625 95.28125 L 505.851562 96 L 505.398438 105.808594 L 506.121094 106.171875 C 509.269531 104.910156 515.121094 102.570312 521.148438 102.570312 C 524.480469 102.570312 525.828125 103.109375 527 104.28125 C 527.898438 105.179688 528.171875 106.800781 528.171875 108.148438 C 517.371094 109.589844 512.328125 110.578125 506.929688 113.910156 C 501.890625 117.058594 500.179688 122.191406 500.179688 126.238281 C 500.179688 135.871094 507.109375 142.078125 515.929688 142.078125 C 522.679688 142.078125 526.550781 138.839844 528.441406 137.308594 L 528.441406 140.640625 L 528.980469 141.269531 C 535.460938 141 537.441406 140.910156 543.289062 141 L 543.738281 140.371094 C 543.109375 131.550781 543.109375 129.300781 543.109375 120.839844 L 543.199219 114.179688 M 528.351562 128.488281 C 526.460938 129.570312 524.03125 130.828125 521.058594 130.828125 C 517.820312 130.828125 515.121094 129.121094 515.121094 125.339844 C 515.121094 119.398438 522.230469 118.410156 528.351562 117.601562 Z M 606.019531 102.300781 C 598.460938 99.148438 594.5 97.53125 594.5 93.480469 C 594.5 90.691406 597.109375 87.179688 603.050781 87.179688 C 609.890625 87.179688 613.9375 89.96875 617.269531 92.21875 L 618.078125 91.859375 L 618.800781 80.070312 L 618.347656 79.441406 C 614.480469 77.820312 610.429688 76.109375 601.699219 76.109375 C 584.78125 76.109375 578.929688 85.648438 578.929688 95.28125 C 578.929688 106.171875 587.390625 110.128906 592.429688 112.558594 L 595.398438 113.910156 C 601.609375 116.519531 606.378906 118.769531 606.378906 123.539062 C 606.378906 126.960938 603.410156 131.011719 595.578125 131.011719 C 587.390625 131.011719 582.800781 127.410156 580.1875 125.339844 L 579.289062 125.609375 L 578.660156 138.300781 L 579.199219 139.019531 C 580.1875 139.378906 581.179688 139.828125 582.167969 140.101562 C 584.238281 140.820312 589.550781 142.351562 596.300781 142.351562 C 599 142.351562 605.839844 142.078125 611.238281 139.558594 C 618.800781 135.871094 622.039062 129.03125 622.039062 121.378906 C 622.039062 116.25 620.058594 110.761719 615.289062 107.070312 C 612.859375 105.269531 610.519531 104.191406 608.359375 103.199219 Z M 655.789062 130.648438 C 654.257812 131.101562 653.175781 131.460938 651.648438 131.460938 C 647.058594 131.460938 646.699219 128.578125 646.515625 127.230469 C 646.246094 124.890625 646.246094 119.941406 646.335938 116.339844 L 646.515625 103.648438 L 654.617188 104.011719 L 655.15625 103.46875 L 656.058594 93.839844 L 655.515625 93.300781 L 646.515625 93.300781 L 646.789062 78.179688 L 646.15625 77.640625 C 640.039062 79.441406 638.417969 79.890625 632.027344 81.511719 L 631.667969 82.140625 L 631.757812 93.390625 L 626.898438 93.210938 L 626.359375 93.660156 L 625.546875 103.289062 L 626.085938 103.828125 L 631.757812 103.648438 L 631.488281 117.960938 C 631.398438 120.210938 631.308594 122.460938 631.308594 124.800781 C 631.308594 133.078125 631.488281 141.988281 645.527344 141.988281 C 649.039062 141.988281 651.828125 141.449219 654.976562 140.910156 L 655.609375 140.28125 L 656.507812 131.011719 Z M 702.496094 114.179688 C 702.585938 106.078125 702.585938 102.570312 700.246094 98.789062 C 698.445312 95.910156 694.847656 92.308594 683.328125 92.308594 C 675.585938 92.308594 670.816406 93.75 665.6875 95.28125 L 665.148438 96 L 664.695312 105.808594 L 665.417969 106.171875 C 668.566406 104.910156 674.417969 102.570312 680.445312 102.570312 C 683.777344 102.570312 685.125 103.109375 686.296875 104.28125 C 687.195312 105.179688 687.46875 106.800781 687.46875 108.148438 C 676.667969 109.589844 671.625 110.578125 666.226562 113.910156 C 661.1875 117.058594 659.476562 122.191406 659.476562 126.238281 C 659.476562 135.871094 666.40625 142.078125 675.226562 142.078125 C 681.976562 142.078125 685.847656 138.839844 687.738281 137.308594 L 687.738281 140.640625 L 688.277344 141.269531 C 694.757812 141 696.738281 140.910156 702.585938 141 L 703.035156 140.371094 C 702.40625 131.550781 702.40625 129.300781 702.40625 120.839844 L 702.496094 114.179688 M 687.648438 128.488281 C 685.757812 129.570312 683.328125 130.828125 680.355469 130.828125 C 677.117188 130.828125 674.417969 129.121094 674.417969 125.339844 C 674.417969 119.398438 681.527344 118.410156 687.648438 117.601562 Z M 738.230469 130.648438 C 736.699219 131.101562 735.617188 131.460938 734.089844 131.460938 C 729.5 131.460938 729.140625 128.578125 728.957031 127.230469 C 728.6875 124.890625 728.6875 119.941406 728.777344 116.339844 L 728.957031 103.648438 L 737.058594 104.011719 L 737.597656 103.46875 L 738.5 93.839844 L 737.957031 93.300781 L 728.957031 93.300781 L 729.230469 78.179688 L 728.597656 77.640625 C 722.480469 79.441406 720.859375 79.890625 714.46875 81.511719 L 714.109375 82.140625 L 714.199219 93.390625 L 709.339844 93.210938 L 708.800781 93.660156 L 707.988281 103.289062 L 708.527344 103.828125 L 714.199219 103.648438 L 713.929688 117.960938 C 713.839844 120.210938 713.75 122.460938 713.75 124.800781 C 713.75 133.078125 713.929688 141.988281 727.96875 141.988281 C 731.480469 141.988281 734.269531 141.449219 737.417969 140.910156 L 738.050781 140.28125 L 738.949219 131.011719 Z M 784.847656 127.679688 C 781.429688 129.480469 777.378906 131.550781 770.808594 131.550781 C 765.410156 131.550781 761.71875 129.839844 759.558594 126.601562 C 758.207031 124.710938 757.9375 122.910156 757.578125 121.109375 L 786.648438 120.570312 L 787.1875 119.941406 C 787.097656 115.53125 787.007812 111.03125 785.75 106.53125 C 782.597656 95.910156 775.667969 93.75 772.609375 93.03125 C 770.359375 92.398438 768.289062 92.21875 766.21875 92.21875 C 752.089844 92.21875 742.726562 101.488281 742.726562 117.058594 C 742.726562 121.289062 743.449219 125.699219 744.886719 128.851562 C 750.109375 141 762.347656 142.078125 768.828125 142.078125 C 776.296875 142.078125 779.539062 140.730469 784.308594 138.839844 L 784.847656 138.121094 L 785.476562 127.949219 L 784.847656 127.679688 M 757.578125 111.570312 C 757.847656 108.78125 758.476562 105 761.898438 102.839844 C 762.976562 102.121094 764.238281 101.851562 765.5 101.851562 C 768.46875 101.851562 770.269531 103.378906 771.257812 105 C 772.519531 106.980469 772.609375 109.140625 772.609375 111.210938 Z M 790.070312 141 "/>
<path fill-rule="nonzero" fill="rgb(34.901961%, 14.901961%, 14.901961%)" fill-opacity="1" d="M 385.519531 261 C 393.890625 261.179688 404.238281 261.359375 410.988281 256.679688 C 416.929688 252.449219 418.550781 246.511719 418.550781 241.46875 C 418.550781 235.710938 416.117188 230.398438 410.988281 227.878906 C 409.277344 226.980469 407.300781 226.621094 405.410156 226.261719 C 408.46875 225 412.070312 223.378906 414.410156 218.609375 C 415.398438 216.539062 415.847656 214.378906 415.847656 212.308594 C 415.847656 209.429688 415.128906 205.46875 412.25 202.230469 C 408.46875 198.179688 402.617188 197.101562 393.800781 197.101562 C 390.738281 197.101562 385.25 197.191406 382.1875 197.28125 L 369.589844 197.460938 L 369.050781 198 C 369.410156 206.640625 369.5 209.96875 369.5 222.390625 C 369.5 235.171875 369.410156 247.859375 369.230469 260.640625 L 369.859375 261 L 385.519531 261 M 384.890625 233.640625 C 391.730469 233.460938 395.6875 233.460938 398.300781 234.988281 C 400.910156 236.609375 401.898438 239.488281 401.898438 242.371094 C 401.898438 246.421875 399.648438 248.941406 396.320312 250.109375 C 393.617188 251.011719 388.757812 251.011719 384.890625 250.921875 L 384.890625 233.640625 M 384.890625 207.179688 C 386.777344 207.179688 389.300781 207.089844 390.828125 207.089844 C 395.6875 207.089844 400.097656 208.800781 400.097656 214.648438 C 400.097656 219.421875 396.589844 221.398438 395.507812 221.941406 C 393.257812 222.929688 388.488281 222.929688 384.890625 222.929688 Z M 466.878906 247.679688 C 463.460938 249.480469 459.410156 251.550781 452.839844 251.550781 C 447.441406 251.550781 443.75 249.839844 441.589844 246.601562 C 440.238281 244.710938 439.96875 242.910156 439.609375 241.109375 L 468.679688 240.570312 L 469.21875 239.941406 C 469.128906 235.53125 469.039062 231.03125 467.78125 226.53125 C 464.628906 215.910156 457.699219 213.75 454.640625 213.03125 C 452.390625 212.398438 450.320312 212.21875 448.25 212.21875 C 434.121094 212.21875 424.757812 221.488281 424.757812 237.058594 C 424.757812 241.289062 425.480469 245.699219 426.917969 248.851562 C 432.140625 261 444.378906 262.078125 450.859375 262.078125 C 458.328125 262.078125 461.570312 260.730469 466.339844 258.839844 L 466.878906 258.121094 L 467.507812 247.949219 L 466.878906 247.679688 M 439.609375 231.570312 C 439.878906 228.78125 440.507812 225 443.929688 222.839844 C 445.007812 222.121094 446.269531 221.851562 447.53125 221.851562 C 450.5 221.851562 452.300781 223.378906 453.289062 225 C 454.550781 226.980469 454.640625 229.140625 454.640625 231.210938 Z M 517.546875 234.179688 C 517.636719 226.078125 517.636719 222.570312 515.296875 218.789062 C 513.496094 215.910156 509.898438 212.308594 498.378906 212.308594 C 490.636719 212.308594 485.867188 213.75 480.738281 215.28125 L 480.199219 216 L 479.746094 225.808594 L 480.46875 226.171875 C 483.617188 224.910156 489.46875 222.570312 495.496094 222.570312 C 498.828125 222.570312 500.175781 223.109375 501.347656 224.28125 C 502.246094 225.179688 502.519531 226.800781 502.519531 228.148438 C 491.71875 229.589844 486.675781 230.578125 481.277344 233.910156 C 476.238281 237.058594 474.527344 242.191406 474.527344 246.238281 C 474.527344 255.871094 481.457031 262.078125 490.277344 262.078125 C 497.027344 262.078125 500.898438 258.839844 502.789062 257.308594 L 502.789062 260.640625 L 503.328125 261.269531 C 509.808594 261 511.789062 260.910156 517.636719 261 L 518.085938 260.371094 C 517.457031 251.550781 517.457031 249.300781 517.457031 240.839844 L 517.546875 234.179688 M 502.699219 248.488281 C 500.808594 249.570312 498.378906 250.828125 495.40625 250.828125 C 492.167969 250.828125 489.46875 249.121094 489.46875 245.339844 C 489.46875 239.398438 496.578125 238.410156 502.699219 237.601562 Z M 563.269531 248.039062 C 560.839844 249.480469 558.5 250.921875 553.910156 250.921875 C 543.738281 250.921875 541.667969 242.460938 541.667969 237.058594 C 541.667969 230.488281 544.550781 222.929688 553.28125 222.929688 C 557.238281 222.929688 559.398438 224.371094 562.101562 226.171875 L 563 225.898438 C 563.359375 221.128906 563.449219 219.871094 564.167969 215.101562 L 563.71875 214.558594 C 559.757812 213.300781 556.339844 212.21875 551.121094 212.21875 C 529.96875 212.21875 525.828125 228.238281 525.828125 237.421875 C 525.828125 247.769531 531.230469 261.808594 551.480469 261.808594 C 556.25 261.808594 559.308594 260.910156 563.089844 259.828125 L 563.628906 259.289062 L 563.988281 248.488281 Z M 615.289062 260.371094 C 614.929688 252.988281 614.839844 250.46875 614.660156 241.109375 L 614.660156 234.359375 C 614.570312 225.808594 614.480469 220.859375 611.867188 217.078125 C 609.257812 213.390625 605.480469 212.21875 601.519531 212.21875 C 594.949219 212.21875 589.820312 215.371094 586.21875 217.53125 L 586.488281 189.808594 L 585.949219 189.179688 L 570.558594 191.609375 L 570.109375 192.148438 C 570.917969 200.878906 571.097656 204.121094 571.277344 215.730469 C 571.460938 223.019531 571.550781 230.308594 571.550781 237.601562 C 571.550781 246.511719 571.367188 251.820312 571.1875 260.640625 L 571.640625 261.269531 C 578.300781 260.910156 579.648438 260.910156 586.9375 260.910156 L 587.480469 260.371094 C 586.847656 246.871094 586.757812 242.820312 586.667969 226.890625 C 588.378906 225.71875 590.539062 224.191406 593.597656 224.191406 C 598.550781 224.191406 598.910156 229.320312 599.269531 232.921875 C 599.449219 235.710938 599.539062 248.488281 599.539062 251.820312 C 599.539062 254.789062 599.449219 257.671875 599.449219 260.640625 L 599.898438 261.269531 C 606.378906 260.910156 607.820312 260.910156 614.75 260.910156 Z M 620.148438 261 "/>
</svg>
