<?xml version="1.0" encoding="UTF-8"?>
<svg xmlns="http://www.w3.org/2000/svg" xmlns:xlink="http://www.w3.org/1999/xlink" width="975" height="1300" viewBox="0 0 975 1300">
<path fill-rule="nonzero" fill="rgb(98.823529%, 78.823529%, 9.019608%)" fill-opacity="1" d="M 50 50 L 925 50 L 925 410 L 50 410 Z M 50 50 "/>
<path fill-rule="nonzero" fill="rgb(34.901961%, 14.901961%, 14.901961%)" fill-opacity="1" d="M 121.640625 77.28125 L 110.210938 77.460938 L 109.667969 78 C 110.03125 89.699219 110.300781 97.53125 110.300781 107.878906 C 110.300781 118.859375 110.03125 129.75 109.757812 140.730469 L 110.300781 141.269531 C 116.960938 141 118.398438 140.910156 125.601562 141 L 126.050781 140.460938 C 125.691406 130.648438 125.691406 128.398438 125.691406 119.21875 C 135.769531 119.308594 146.570312 119.308594 153.050781 111.390625 C 155.570312 108.328125 157.730469 103.199219 157.730469 96.898438 C 157.730469 93.03125 156.828125 84.480469 149.359375 80.25 C 143.960938 77.101562 136.308594 77.101562 129.558594 77.101562 L 121.640625 77.28125 M 125.691406 88.171875 C 127.667969 88.078125 129.558594 88.078125 131.539062 88.078125 C 139.460938 88.261719 141.621094 92.308594 141.621094 97.53125 C 141.621094 98.789062 141.621094 104.011719 136.851562 106.621094 C 134.417969 107.96875 131.089844 108.148438 125.691406 108.148438 Z M 180.230469 140.371094 C 179.777344 133.441406 179.417969 128.128906 179.417969 115.710938 C 179.417969 108.058594 179.597656 100.320312 179.6875 92.671875 L 179.058594 91.949219 L 163.578125 94.648438 L 163.039062 95.191406 C 163.757812 102.03125 164.027344 105.179688 164.027344 117.960938 C 164.027344 127.769531 163.757812 133.261719 163.488281 140.640625 L 164.027344 141.269531 C 170.507812 141 172.308594 140.910156 179.597656 141 L 180.230469 140.371094 M 178.789062 83.308594 L 179.058594 71.070312 L 178.519531 70.53125 L 163.847656 72.328125 L 163.308594 72.960938 C 163.488281 76.199219 163.578125 78.089844 163.578125 80.25 C 163.578125 81.960938 163.578125 83.761719 163.488281 85.46875 L 164.117188 86.011719 C 170.238281 84.929688 171.949219 84.75 178.339844 83.941406 Z M 206.78125 125.789062 C 209.660156 125.878906 212.539062 126.058594 216.859375 124.621094 C 221.539062 123 228.378906 119.128906 228.378906 110.398438 C 228.378906 106.078125 227.121094 104.28125 225.949219 102.570312 L 232.160156 102.929688 L 232.699219 102.480469 L 233.332031 93.480469 L 232.789062 93.03125 C 225.859375 93.300781 223.96875 93.390625 218.300781 93.300781 L 214.160156 93.210938 C 207.769531 93.03125 199.21875 92.851562 193.371094 97.710938 C 191.390625 99.238281 187.609375 103.109375 187.609375 109.859375 C 187.609375 113.460938 188.601562 116.339844 190.21875 118.589844 C 192.199219 121.378906 194 122.371094 196.25 123.628906 C 193.730469 128.488281 192.378906 130.921875 190.308594 134.609375 L 190.308594 135.421875 L 194.089844 138.121094 C 191.390625 140.191406 187.160156 143.609375 187.160156 149.460938 C 187.160156 153.601562 189.410156 157.199219 192.742188 159.628906 C 197.78125 163.230469 204.621094 163.410156 208.128906 163.410156 C 224.601562 163.410156 232.160156 155.128906 232.160156 146.398438 C 232.160156 135.058594 222.261719 132.898438 216.410156 131.550781 L 214.25 131.191406 C 209.839844 130.46875 208.851562 130.199219 205.339844 128.941406 L 206.78125 125.789062 M 214.160156 109.589844 C 214.070312 116.878906 209.660156 117.511719 208.398438 117.511719 C 207.679688 117.511719 204.53125 117.328125 203 113.730469 C 202.191406 111.839844 202.191406 109.679688 202.191406 109.050781 C 202.191406 104.550781 204.890625 101.671875 208.21875 101.671875 C 212.359375 101.671875 214.25 105.628906 214.160156 109.589844 M 206.511719 143.160156 C 214.519531 145.230469 214.609375 145.230469 215.691406 146.128906 C 216.589844 146.761719 217.492188 147.75 217.492188 149.640625 C 217.492188 152.339844 215.242188 155.128906 209.300781 155.128906 C 202.640625 155.128906 200.390625 151.351562 200.390625 148.199219 C 200.390625 145.230469 201.921875 143.519531 203 142.261719 Z M 278.960938 127.679688 C 275.542969 129.480469 271.492188 131.550781 264.921875 131.550781 C 259.523438 131.550781 255.832031 129.839844 253.671875 126.601562 C 252.320312 124.710938 252.050781 122.910156 251.691406 121.109375 L 280.761719 120.570312 L 281.300781 119.941406 C 281.210938 115.53125 281.121094 111.03125 279.863281 106.53125 C 276.710938 95.910156 269.78125 93.75 266.722656 93.03125 C 264.472656 92.398438 262.402344 92.21875 260.332031 92.21875 C 246.203125 92.21875 236.839844 101.488281 236.839844 117.058594 C 236.839844 121.289062 237.5625 125.699219 239 128.851562 C 244.222656 141 256.460938 142.078125 262.941406 142.078125 C 270.410156 142.078125 273.652344 140.730469 278.421875 138.839844 L 278.960938 138.121094 L 279.589844 127.949219 L 278.960938 127.679688 M 251.691406 111.570312 C 251.960938 108.78125 252.589844 105 256.011719 102.839844 C 257.089844 102.121094 258.351562 101.851562 259.613281 101.851562 C 262.582031 101.851562 264.382812 103.378906 265.371094 105 C 266.632812 106.980469 266.722656 109.140625 266.722656 111.210938 Z M 335.390625 117.058594 C 335.390625 113.550781 335.390625 98.96875 322.789062 94.019531 C 318.828125 92.488281 314.148438 92.308594 311.808594 92.308594 C 296.148438 92.308594 287.328125 100.679688 287.328125 117.238281 C 287.328125 123 288.230469 128.851562 291.558594 133.710938 C 293.898438 137.21875 298.308594 142.078125 311.179688 142.078125 C 330.257812 142.078125 335.390625 130.558594 335.390625 117.058594 M 319.820312 116.96875 C 319.820312 124.351562 318.828125 132.539062 311.359375 132.539062 C 309.019531 132.539062 307.398438 131.460938 306.320312 130.46875 C 304.789062 128.941406 303.078125 125.878906 303.078125 117.148438 C 303.078125 114.539062 303.078125 108.78125 304.878906 105.628906 C 306.230469 103.199219 308.570312 101.578125 311.449219 101.578125 C 313.96875 101.578125 316.039062 102.929688 317.210938 104.371094 C 319.371094 106.980469 319.820312 112.109375 319.820312 116.96875 Z M 388.039062 140.371094 C 387.589844 132.449219 387.589844 129.929688 387.410156 121.109375 L 387.410156 114.089844 C 387.320312 105.449219 387.230469 101.308594 384.980469 97.621094 C 382.1875 92.941406 377.058594 92.21875 373.820312 92.21875 C 368.328125 92.21875 363.558594 95.101562 359.417969 97.53125 L 359.597656 92.578125 L 358.699219 91.949219 C 351.769531 93.390625 350.238281 93.660156 343.488281 94.558594 L 342.949219 95.191406 C 343.667969 103.019531 344.210938 108.691406 344.210938 123.359375 C 344.210938 129.121094 344.117188 134.878906 344.027344 140.640625 L 344.570312 141.179688 C 351.050781 140.910156 352.398438 140.910156 359.597656 140.910156 L 360.140625 140.371094 C 359.597656 126.511719 359.507812 123 359.417969 106.890625 C 361.308594 105.628906 363.46875 104.101562 366.347656 104.101562 C 371.300781 104.101562 371.75 109.410156 372.019531 112.648438 C 372.199219 115.621094 372.289062 127.949219 372.289062 131.371094 C 372.289062 134.429688 372.199219 137.578125 372.199219 140.640625 L 372.738281 141.179688 C 378.679688 141 380.210938 140.910156 387.410156 140.910156 Z M 436.640625 77.28125 L 425.210938 77.460938 L 424.667969 78 C 425.03125 89.699219 425.300781 97.53125 425.300781 107.878906 C 425.300781 118.859375 425.03125 129.75 424.757812 140.730469 L 425.300781 141.269531 C 431.960938 141 433.398438 140.910156 440.601562 141 L 441.050781 140.460938 C 440.691406 130.648438 440.691406 128.398438 440.691406 119.21875 C 450.769531 119.308594 461.570312 119.308594 468.050781 111.390625 C 470.570312 108.328125 472.730469 103.199219 472.730469 96.898438 C 472.730469 93.03125 471.828125 84.480469 464.359375 80.25 C 458.960938 77.101562 451.308594 77.101562 444.558594 77.101562 L 436.640625 77.28125 M 440.691406 88.171875 C 442.667969 88.078125 444.558594 88.078125 446.539062 88.078125 C 454.460938 88.261719 456.621094 92.308594 456.621094 97.53125 C 456.621094 98.789062 456.621094 104.011719 451.851562 106.621094 C 449.417969 107.96875 446.089844 108.148438 440.691406 108.148438 Z M 524.75 117.058594 C 524.75 113.550781 524.75 98.96875 512.148438 94.019531 C 508.1875 92.488281 503.507812 92.308594 501.167969 92.308594 C 485.507812 92.308594 476.6875 100.679688 476.6875 117.238281 C 476.6875 123 477.589844 128.851562 480.917969 133.710938 C 483.257812 137.21875 487.667969 142.078125 500.539062 142.078125 C 519.617188 142.078125 524.75 130.558594 524.75 117.058594 M 509.179688 116.96875 C 509.179688 124.351562 508.1875 132.539062 500.71875 132.539062 C 498.378906 132.539062 496.757812 131.460938 495.679688 130.46875 C 494.148438 128.941406 492.4375 125.878906 492.4375 117.148438 C 492.4375 114.539062 492.4375 108.78125 494.238281 105.628906 C 495.589844 103.199219 497.929688 101.578125 500.808594 101.578125 C 503.328125 101.578125 505.398438 102.929688 506.570312 104.371094 C 508.730469 106.980469 509.179688 112.109375 509.179688 116.96875 Z M 549.589844 140.371094 C 549.136719 133.441406 548.777344 128.128906 548.777344 115.710938 C 548.777344 108.058594 548.957031 100.320312 549.046875 92.671875 L 548.417969 91.949219 L 532.9375 94.648438 L 532.398438 95.191406 C 533.117188 102.03125 533.386719 105.179688 533.386719 117.960938 C 533.386719 127.769531 533.117188 133.261719 532.847656 140.640625 L 533.386719 141.269531 C 539.867188 141 541.667969 140.910156 548.957031 141 L 549.589844 140.371094 M 548.148438 83.308594 L 548.417969 71.070312 L 547.878906 70.53125 L 533.207031 72.328125 L 532.667969 72.960938 C 532.847656 76.199219 532.9375 78.089844 532.9375 80.25 C 532.9375 81.960938 532.9375 83.761719 532.847656 85.46875 L 533.476562 86.011719 C 539.597656 84.929688 541.308594 84.75 547.699219 83.941406 Z M 603.679688 140.371094 C 603.230469 132.449219 603.230469 129.929688 603.050781 121.109375 L 603.050781 114.089844 C 602.960938 105.449219 602.871094 101.308594 600.621094 97.621094 C 597.828125 92.941406 592.699219 92.21875 589.460938 92.21875 C 583.96875 92.21875 579.199219 95.101562 575.058594 97.53125 L 575.238281 92.578125 L 574.339844 91.949219 C 567.410156 93.390625 565.878906 93.660156 559.128906 94.558594 L 558.589844 95.191406 C 559.308594 103.019531 559.851562 108.691406 559.851562 123.359375 C 559.851562 129.121094 559.757812 134.878906 559.667969 140.640625 L 560.210938 141.179688 C 566.691406 140.910156 568.039062 140.910156 575.238281 140.910156 L 575.78125 140.371094 C 575.238281 126.511719 575.148438 123 575.058594 106.890625 C 576.949219 105.628906 579.109375 104.101562 581.988281 104.101562 C 586.941406 104.101562 587.390625 109.410156 587.660156 112.648438 C 587.839844 115.621094 587.929688 127.949219 587.929688 131.371094 C 587.929688 134.429688 587.839844 137.578125 587.839844 140.640625 L 588.378906 141.179688 C 594.320312 141 595.851562 140.910156 603.050781 140.910156 Z M 639.140625 130.648438 C 637.609375 131.101562 636.527344 131.460938 635 131.460938 C 630.410156 131.460938 630.050781 128.578125 629.867188 127.230469 C 629.597656 124.890625 629.597656 119.941406 629.6875 116.339844 L 629.867188 103.648438 L 637.96875 104.011719 L 638.507812 103.46875 L 639.410156 93.839844 L 638.867188 93.300781 L 629.867188 93.300781 L 630.140625 78.179688 L 629.507812 77.640625 C 623.390625 79.441406 621.769531 79.890625 615.378906 81.511719 L 615.019531 82.140625 L 615.109375 93.390625 L 610.25 93.210938 L 609.710938 93.660156 L 608.898438 103.289062 L 609.4375 103.828125 L 615.109375 103.648438 L 614.839844 117.960938 C 614.75 120.210938 614.660156 122.460938 614.660156 124.800781 C 614.660156 133.078125 614.839844 141.988281 628.878906 141.988281 C 632.390625 141.988281 635.179688 141.449219 638.328125 140.910156 L 638.960938 140.28125 L 639.859375 131.011719 Z M 710.78125 128.671875 C 700.96875 129.210938 693.140625 129.390625 690.441406 129.390625 L 688.640625 129.390625 C 688.460938 105.359375 688.550781 99.238281 689.269531 77.730469 L 688.730469 77.191406 C 680.988281 77.550781 678.917969 77.550781 672.710938 77.460938 L 672.167969 78 C 672.53125 85.199219 672.621094 87.359375 672.621094 98.070312 C 672.621094 112.289062 672.53125 126.511719 672.53125 140.730469 L 672.980469 141.269531 C 690.621094 141 693.859375 141 710.058594 141 L 710.507812 140.460938 L 711.230469 129.121094 Z M 735.261719 140.371094 C 734.808594 133.441406 734.449219 128.128906 734.449219 115.710938 C 734.449219 108.058594 734.628906 100.320312 734.71875 92.671875 L 734.089844 91.949219 L 718.609375 94.648438 L 718.070312 95.191406 C 718.789062 102.03125 719.058594 105.179688 719.058594 117.960938 C 719.058594 127.769531 718.789062 133.261719 718.519531 140.640625 L 719.058594 141.269531 C 725.539062 141 727.339844 140.910156 734.628906 141 L 735.261719 140.371094 M 733.820312 83.308594 L 734.089844 71.070312 L 733.550781 70.53125 L 718.878906 72.328125 L 718.339844 72.960938 C 718.519531 76.199219 718.609375 78.089844 718.609375 80.25 C 718.609375 81.960938 718.609375 83.761719 718.519531 85.46875 L 719.148438 86.011719 C 725.269531 84.929688 726.980469 84.75 733.371094 83.941406 Z M 761.8125 125.789062 C 764.691406 125.878906 767.570312 126.058594 771.890625 124.621094 C 776.570312 123 783.410156 119.128906 783.410156 110.398438 C 783.410156 106.078125 782.152344 104.28125 780.980469 102.570312 L 787.191406 102.929688 L 787.730469 102.480469 L 788.363281 93.480469 L 787.820312 93.03125 C 780.890625 93.300781 779 93.390625 773.332031 93.300781 L 769.191406 93.210938 C 762.800781 93.03125 754.25 92.851562 748.402344 97.710938 C 746.421875 99.238281 742.640625 103.109375 742.640625 109.859375 C 742.640625 113.460938 743.632812 116.339844 745.25 118.589844 C 747.230469 121.378906 749.03125 122.371094 751.28125 123.628906 C 748.761719 128.488281 747.410156 130.921875 745.339844 134.609375 L 745.339844 135.421875 L 749.121094 138.121094 C 746.421875 140.191406 742.191406 143.609375 742.191406 149.460938 C 742.191406 153.601562 744.441406 157.199219 747.773438 159.628906 C 752.8125 163.230469 759.652344 163.410156 763.160156 163.410156 C 779.632812 163.410156 787.191406 155.128906 787.191406 146.398438 C 787.191406 135.058594 777.292969 132.898438 771.441406 131.550781 L 769.28125 131.191406 C 764.871094 130.46875 763.882812 130.199219 760.371094 128.941406 L 761.8125 125.789062 M 769.191406 109.589844 C 769.101562 116.878906 764.691406 117.511719 763.429688 117.511719 C 762.710938 117.511719 759.5625 117.328125 758.03125 113.730469 C 757.222656 111.839844 757.222656 109.679688 757.222656 109.050781 C 757.222656 104.550781 759.921875 101.671875 763.25 101.671875 C 767.390625 101.671875 769.28125 105.628906 769.191406 109.589844 M 761.542969 143.160156 C 769.550781 145.230469 769.640625 145.230469 770.722656 146.128906 C 771.621094 146.761719 772.523438 147.75 772.523438 149.640625 C 772.523438 152.339844 770.273438 155.128906 764.332031 155.128906 C 757.671875 155.128906 755.421875 151.351562 755.421875 148.199219 C 755.421875 145.230469 756.953125 143.519531 758.03125 142.261719 Z M 838.128906 140.371094 C 837.769531 132.988281 837.679688 130.46875 837.5 121.109375 L 837.5 114.359375 C 837.410156 105.808594 837.320312 100.859375 834.707031 97.078125 C 832.097656 93.390625 828.320312 92.21875 824.359375 92.21875 C 817.789062 92.21875 812.660156 95.371094 809.058594 97.53125 L 809.328125 69.808594 L 808.789062 69.179688 L 793.398438 71.609375 L 792.949219 72.148438 C 793.757812 80.878906 793.9375 84.121094 794.117188 95.730469 C 794.300781 103.019531 794.390625 110.308594 794.390625 117.601562 C 794.390625 126.511719 794.207031 131.820312 794.027344 140.640625 L 794.480469 141.269531 C 801.140625 140.910156 802.488281 140.910156 809.777344 140.910156 L 810.320312 140.371094 C 809.6875 126.871094 809.597656 122.820312 809.507812 106.890625 C 811.21875 105.71875 813.378906 104.191406 816.4375 104.191406 C 821.390625 104.191406 821.75 109.320312 822.109375 112.921875 C 822.289062 115.710938 822.378906 128.488281 822.378906 131.820312 C 822.378906 134.789062 822.289062 137.671875 822.289062 140.640625 L 822.738281 141.269531 C 829.21875 140.910156 830.660156 140.910156 837.589844 140.910156 Z M 873.589844 130.648438 C 872.058594 131.101562 870.976562 131.460938 869.449219 131.460938 C 864.859375 131.460938 864.5 128.578125 864.316406 127.230469 C 864.046875 124.890625 864.046875 119.941406 864.136719 116.339844 L 864.316406 103.648438 L 872.417969 104.011719 L 872.957031 103.46875 L 873.859375 93.839844 L 873.316406 93.300781 L 864.316406 93.300781 L 864.589844 78.179688 L 863.957031 77.640625 C 857.839844 79.441406 856.21875 79.890625 849.828125 81.511719 L 849.46875 82.140625 L 849.558594 93.390625 L 844.699219 93.210938 L 844.160156 93.660156 L 843.347656 103.289062 L 843.886719 103.828125 L 849.558594 103.648438 L 849.289062 117.960938 C 849.199219 120.210938 849.109375 122.460938 849.109375 124.800781 C 849.109375 133.078125 849.289062 141.988281 863.328125 141.988281 C 866.839844 141.988281 869.628906 141.449219 872.777344 140.910156 L 873.410156 140.28125 L 874.308594 131.011719 Z M 874.851562 141 "/>
<path fill-rule="nonzero" fill="rgb(34.901961%, 14.901961%, 14.901961%)" fill-opacity="1" d="M 250.566406 222.300781 C 243.007812 219.148438 239.046875 217.53125 239.046875 213.480469 C 239.046875 210.691406 241.65625 207.179688 247.597656 207.179688 C 254.4375 207.179688 258.484375 209.96875 261.816406 212.21875 L 262.625 211.859375 L 263.347656 200.070312 L 262.894531 199.441406 C 259.027344 197.820312 254.976562 196.109375 246.246094 196.109375 C 229.328125 196.109375 223.476562 205.648438 223.476562 215.28125 C 223.476562 226.171875 231.9375 230.128906 236.976562 232.558594 L 239.945312 233.910156 C 246.15625 236.519531 250.925781 238.769531 250.925781 243.539062 C 250.925781 246.960938 247.957031 251.011719 240.125 251.011719 C 231.9375 251.011719 227.347656 247.410156 224.734375 245.339844 L 223.835938 245.609375 L 223.207031 258.300781 L 223.746094 259.019531 C 224.734375 259.378906 225.726562 259.828125 226.714844 260.101562 C 228.785156 260.820312 234.097656 262.351562 240.847656 262.351562 C 243.546875 262.351562 250.386719 262.078125 255.785156 259.558594 C 263.347656 255.871094 266.585938 249.03125 266.585938 241.378906 C 266.585938 236.25 264.605469 230.761719 259.835938 227.070312 C 257.40625 225.269531 255.066406 224.191406 252.90625 223.199219 Z M 300.335938 250.648438 C 298.804688 251.101562 297.722656 251.460938 296.195312 251.460938 C 291.605469 251.460938 291.246094 248.578125 291.0625 247.230469 C 290.792969 244.890625 290.792969 239.941406 290.882812 236.339844 L 291.0625 223.648438 L 299.164062 224.011719 L 299.703125 223.46875 L 300.605469 213.839844 L 300.0625 213.300781 L 291.0625 213.300781 L 291.335938 198.179688 L 290.703125 197.640625 C 284.585938 199.441406 282.964844 199.890625 276.574219 201.511719 L 276.214844 202.140625 L 276.304688 213.390625 L 271.445312 213.210938 L 270.90625 213.660156 L 270.09375 223.289062 L 270.632812 223.828125 L 276.304688 223.648438 L 276.035156 237.960938 C 275.945312 240.210938 275.855469 242.460938 275.855469 244.800781 C 275.855469 253.078125 276.035156 261.988281 290.074219 261.988281 C 293.585938 261.988281 296.375 261.449219 299.523438 260.910156 L 300.15625 260.28125 L 301.054688 251.011719 Z M 347.046875 234.179688 C 347.136719 226.078125 347.136719 222.570312 344.796875 218.789062 C 342.996094 215.910156 339.398438 212.308594 327.878906 212.308594 C 320.136719 212.308594 315.367188 213.75 310.238281 215.28125 L 309.699219 216 L 309.246094 225.808594 L 309.96875 226.171875 C 313.117188 224.910156 318.96875 222.570312 324.996094 222.570312 C 328.328125 222.570312 329.675781 223.109375 330.847656 224.28125 C 331.746094 225.179688 332.019531 226.800781 332.019531 228.148438 C 321.21875 229.589844 316.175781 230.578125 310.777344 233.910156 C 305.738281 237.058594 304.027344 242.191406 304.027344 246.238281 C 304.027344 255.871094 310.957031 262.078125 319.777344 262.078125 C 326.527344 262.078125 330.398438 258.839844 332.289062 257.308594 L 332.289062 260.640625 L 332.828125 261.269531 C 339.308594 261 341.289062 260.910156 347.136719 261 L 347.585938 260.371094 C 346.957031 251.550781 346.957031 249.300781 346.957031 240.839844 L 347.046875 234.179688 M 332.199219 248.488281 C 330.308594 249.570312 327.878906 250.828125 324.90625 250.828125 C 321.667969 250.828125 318.96875 249.121094 318.96875 245.339844 C 318.96875 239.398438 326.078125 238.410156 332.199219 237.601562 Z M 382.777344 250.648438 C 381.246094 251.101562 380.164062 251.460938 378.636719 251.460938 C 374.046875 251.460938 373.6875 248.578125 373.503906 247.230469 C 373.234375 244.890625 373.234375 239.941406 373.324219 236.339844 L 373.503906 223.648438 L 381.605469 224.011719 L 382.144531 223.46875 L 383.046875 213.839844 L 382.503906 213.300781 L 373.503906 213.300781 L 373.777344 198.179688 L 373.144531 197.640625 C 367.027344 199.441406 365.40625 199.890625 359.015625 201.511719 L 358.65625 202.140625 L 358.746094 213.390625 L 353.886719 213.210938 L 353.347656 213.660156 L 352.535156 223.289062 L 353.074219 223.828125 L 358.746094 223.648438 L 358.476562 237.960938 C 358.386719 240.210938 358.296875 242.460938 358.296875 244.800781 C 358.296875 253.078125 358.476562 261.988281 372.515625 261.988281 C 376.027344 261.988281 378.816406 261.449219 381.964844 260.910156 L 382.597656 260.28125 L 383.496094 251.011719 Z M 405.726562 260.371094 C 405.273438 253.441406 404.914062 248.128906 404.914062 235.710938 C 404.914062 228.058594 405.09375 220.320312 405.183594 212.671875 L 404.554688 211.949219 L 389.074219 214.648438 L 388.535156 215.191406 C 389.253906 222.03125 389.523438 225.179688 389.523438 237.960938 C 389.523438 247.769531 389.253906 253.261719 388.984375 260.640625 L 389.523438 261.269531 C 396.003906 261 397.804688 260.910156 405.09375 261 L 405.726562 260.371094 M 404.285156 203.308594 L 404.554688 191.070312 L 404.015625 190.53125 L 389.34375 192.328125 L 388.804688 192.960938 C 388.984375 196.199219 389.074219 198.089844 389.074219 200.25 C 389.074219 201.960938 389.074219 203.761719 388.984375 205.46875 L 389.613281 206.011719 C 395.734375 204.929688 397.445312 204.75 403.835938 203.941406 Z M 461.527344 237.058594 C 461.527344 233.550781 461.527344 218.96875 448.925781 214.019531 C 444.964844 212.488281 440.285156 212.308594 437.945312 212.308594 C 422.285156 212.308594 413.464844 220.679688 413.464844 237.238281 C 413.464844 243 414.367188 248.851562 417.695312 253.710938 C 420.035156 257.21875 424.445312 262.078125 437.316406 262.078125 C 456.394531 262.078125 461.527344 250.558594 461.527344 237.058594 M 445.957031 236.96875 C 445.957031 244.351562 444.964844 252.539062 437.496094 252.539062 C 435.15625 252.539062 433.535156 251.460938 432.457031 250.46875 C 430.925781 248.941406 429.214844 245.878906 429.214844 237.148438 C 429.214844 234.539062 429.214844 228.78125 431.015625 225.628906 C 432.367188 223.199219 434.707031 221.578125 437.585938 221.578125 C 440.105469 221.578125 442.175781 222.929688 443.347656 224.371094 C 445.507812 226.980469 445.957031 232.109375 445.957031 236.96875 Z M 514.175781 260.371094 C 513.726562 252.449219 513.726562 249.929688 513.546875 241.109375 L 513.546875 234.089844 C 513.457031 225.449219 513.367188 221.308594 511.117188 217.621094 C 508.324219 212.941406 503.195312 212.21875 499.957031 212.21875 C 494.464844 212.21875 489.695312 215.101562 485.554688 217.53125 L 485.734375 212.578125 L 484.835938 211.949219 C 477.90625 213.390625 476.375 213.660156 469.625 214.558594 L 469.085938 215.191406 C 469.804688 223.019531 470.347656 228.691406 470.347656 243.359375 C 470.347656 249.121094 470.253906 254.878906 470.164062 260.640625 L 470.707031 261.179688 C 477.1875 260.910156 478.535156 260.910156 485.734375 260.910156 L 486.277344 260.371094 C 485.734375 246.511719 485.644531 243 485.554688 226.890625 C 487.445312 225.628906 489.605469 224.101562 492.484375 224.101562 C 497.4375 224.101562 497.886719 229.410156 498.15625 232.648438 C 498.335938 235.621094 498.425781 247.949219 498.425781 251.371094 C 498.425781 254.429688 498.335938 257.578125 498.335938 260.640625 L 498.875 261.179688 C 504.816406 261 506.347656 260.910156 513.546875 260.910156 Z M 576.726562 222.300781 C 569.167969 219.148438 565.207031 217.53125 565.207031 213.480469 C 565.207031 210.691406 567.816406 207.179688 573.757812 207.179688 C 580.597656 207.179688 584.644531 209.96875 587.976562 212.21875 L 588.785156 211.859375 L 589.507812 200.070312 L 589.054688 199.441406 C 585.1875 197.820312 581.136719 196.109375 572.40625 196.109375 C 555.488281 196.109375 549.636719 205.648438 549.636719 215.28125 C 549.636719 226.171875 558.097656 230.128906 563.136719 232.558594 L 566.105469 233.910156 C 572.316406 236.519531 577.085938 238.769531 577.085938 243.539062 C 577.085938 246.960938 574.117188 251.011719 566.285156 251.011719 C 558.097656 251.011719 553.507812 247.410156 550.894531 245.339844 L 549.996094 245.609375 L 549.367188 258.300781 L 549.90625 259.019531 C 550.894531 259.378906 551.886719 259.828125 552.875 260.101562 C 554.945312 260.820312 560.257812 262.351562 567.007812 262.351562 C 569.707031 262.351562 576.546875 262.078125 581.945312 259.558594 C 589.507812 255.871094 592.746094 249.03125 592.746094 241.378906 C 592.746094 236.25 590.765625 230.761719 585.996094 227.070312 C 583.566406 225.269531 581.226562 224.191406 579.066406 223.199219 Z M 626.496094 250.648438 C 624.964844 251.101562 623.882812 251.460938 622.355469 251.460938 C 617.765625 251.460938 617.40625 248.578125 617.222656 247.230469 C 616.953125 244.890625 616.953125 239.941406 617.042969 236.339844 L 617.222656 223.648438 L 625.324219 224.011719 L 625.863281 223.46875 L 626.765625 213.839844 L 626.222656 213.300781 L 617.222656 213.300781 L 617.496094 198.179688 L 616.863281 197.640625 C 610.746094 199.441406 609.125 199.890625 602.734375 201.511719 L 602.375 202.140625 L 602.464844 213.390625 L 597.605469 213.210938 L 597.066406 213.660156 L 596.253906 223.289062 L 596.792969 223.828125 L 602.464844 223.648438 L 602.195312 237.960938 C 602.105469 240.210938 602.015625 242.460938 602.015625 244.800781 C 602.015625 253.078125 602.195312 261.988281 616.234375 261.988281 C 619.746094 261.988281 622.535156 261.449219 625.683594 260.910156 L 626.316406 260.28125 L 627.214844 251.011719 Z M 673.207031 234.179688 C 673.296875 226.078125 673.296875 222.570312 670.957031 218.789062 C 669.15625 215.910156 665.558594 212.308594 654.039062 212.308594 C 646.296875 212.308594 641.527344 213.75 636.398438 215.28125 L 635.859375 216 L 635.40625 225.808594 L 636.128906 226.171875 C 639.277344 224.910156 645.128906 222.570312 651.15625 222.570312 C 654.488281 222.570312 655.835938 223.109375 657.007812 224.28125 C 657.90625 225.179688 658.179688 226.800781 658.179688 228.148438 C 647.378906 229.589844 642.335938 230.578125 636.9375 233.910156 C 631.898438 237.058594 630.1875 242.191406 630.1875 246.238281 C 630.1875 255.871094 637.117188 262.078125 645.9375 262.078125 C 652.6875 262.078125 656.558594 258.839844 658.449219 257.308594 L 658.449219 260.640625 L 658.988281 261.269531 C 665.46875 261 667.449219 260.910156 673.296875 261 L 673.746094 260.371094 C 673.117188 251.550781 673.117188 249.300781 673.117188 240.839844 L 673.207031 234.179688 M 658.359375 248.488281 C 656.46875 249.570312 654.039062 250.828125 651.066406 250.828125 C 647.828125 250.828125 645.128906 249.121094 645.128906 245.339844 C 645.128906 239.398438 652.238281 238.410156 658.359375 237.601562 Z M 708.9375 250.648438 C 707.40625 251.101562 706.324219 251.460938 704.796875 251.460938 C 700.207031 251.460938 699.847656 248.578125 699.664062 247.230469 C 699.394531 244.890625 699.394531 239.941406 699.484375 236.339844 L 699.664062 223.648438 L 707.765625 224.011719 L 708.304688 223.46875 L 709.207031 213.839844 L 708.664062 213.300781 L 699.664062 213.300781 L 699.9375 198.179688 L 699.304688 197.640625 C 693.1875 199.441406 691.566406 199.890625 685.175781 201.511719 L 684.816406 202.140625 L 684.90625 213.390625 L 680.046875 213.210938 L 679.507812 213.660156 L 678.695312 223.289062 L 679.234375 223.828125 L 684.90625 223.648438 L 684.636719 237.960938 C 684.546875 240.210938 684.457031 242.460938 684.457031 244.800781 C 684.457031 253.078125 684.636719 261.988281 698.675781 261.988281 C 702.1875 261.988281 704.976562 261.449219 708.125 260.910156 L 708.757812 260.28125 L 709.65625 251.011719 Z M 755.554688 247.679688 C 752.136719 249.480469 748.085938 251.550781 741.515625 251.550781 C 736.117188 251.550781 732.425781 249.839844 730.265625 246.601562 C 728.914062 244.710938 728.644531 242.910156 728.285156 241.109375 L 757.355469 240.570312 L 757.894531 239.941406 C 757.804688 235.53125 757.714844 231.03125 756.457031 226.53125 C 753.304688 215.910156 746.375 213.75 743.316406 213.03125 C 741.066406 212.398438 738.996094 212.21875 736.925781 212.21875 C 722.796875 212.21875 713.433594 221.488281 713.433594 237.058594 C 713.433594 241.289062 714.15625 245.699219 715.59375 248.851562 C 720.816406 261 733.054688 262.078125 739.535156 262.078125 C 747.003906 262.078125 750.246094 260.730469 755.015625 258.839844 L 755.554688 258.121094 L 756.183594 247.949219 L 755.554688 247.679688 M 728.285156 231.570312 C 728.554688 228.78125 729.183594 225 732.605469 222.839844 C 733.683594 222.121094 734.945312 221.851562 736.207031 221.851562 C 739.175781 221.851562 740.976562 223.378906 741.964844 225 C 743.226562 226.980469 743.316406 229.140625 743.316406 231.210938 Z M 760.777344 261 "/>
<path fill-rule="nonzero" fill="rgb(34.901961%, 14.901961%, 14.901961%)" fill-opacity="1" d="M 277.921875 317.191406 C 270.722656 317.460938 269.554688 317.460938 261.992188 317.460938 L 261.542969 318 C 262.171875 328.171875 262.171875 330.78125 262.261719 341.398438 C 258.304688 341.488281 254.34375 341.578125 250.292969 341.578125 C 247.144531 341.578125 243.902344 341.488281 240.753906 341.488281 L 240.933594 317.730469 L 240.484375 317.191406 C 233.554688 317.460938 232.203125 317.460938 224.375 317.460938 L 223.832031 318 C 224.285156 327.269531 224.824219 338.339844 224.824219 360.660156 C 224.824219 368.761719 224.644531 373.171875 224.464844 380.730469 L 224.914062 381.269531 C 231.484375 381 233.101562 380.910156 241.023438 381 L 241.472656 380.460938 C 240.933594 369.300781 240.84375 366.058594 240.753906 353.011719 C 244.714844 352.828125 248.042969 352.738281 251.554688 352.738281 C 255.152344 352.738281 258.753906 352.828125 262.351562 352.921875 C 262.535156 365.070312 262.535156 368.039062 262.082031 380.730469 L 262.535156 381.269531 C 269.285156 381 271.082031 380.910156 278.734375 381 L 279.183594 380.460938 C 278.464844 365.339844 278.191406 350.308594 278.191406 335.191406 C 278.191406 328.890625 278.285156 324.660156 278.375 317.730469 Z M 305.914062 380.371094 C 305.460938 373.441406 305.101562 368.128906 305.101562 355.710938 C 305.101562 348.058594 305.28125 340.320312 305.371094 332.671875 L 304.742188 331.949219 L 289.261719 334.648438 L 288.722656 335.191406 C 289.441406 342.03125 289.710938 345.179688 289.710938 357.960938 C 289.710938 367.769531 289.441406 373.261719 289.171875 380.640625 L 289.710938 381.269531 C 296.191406 381 297.992188 380.910156 305.28125 381 L 305.914062 380.371094 M 304.472656 323.308594 L 304.742188 311.070312 L 304.203125 310.53125 L 289.53125 312.328125 L 288.992188 312.960938 C 289.171875 316.199219 289.261719 318.089844 289.261719 320.25 C 289.261719 321.960938 289.261719 323.761719 289.171875 325.46875 L 289.800781 326.011719 C 295.921875 324.929688 297.632812 324.75 304.023438 323.941406 Z M 334.804688 349.949219 C 331.742188 348.871094 329.3125 347.878906 329.3125 345.359375 C 329.3125 344.28125 330.035156 341.308594 335.613281 341.308594 C 341.105469 341.308594 344.613281 343.648438 346.863281 345.089844 L 347.675781 344.820312 L 348.574219 335.011719 L 348.125 334.46875 C 343.894531 333.300781 340.203125 332.21875 334.355469 332.21875 C 329.945312 332.21875 321.125 332.578125 316.445312 339.328125 C 315.273438 340.949219 314.015625 343.648438 314.015625 347.25 C 314.015625 356.878906 321.484375 359.761719 325.714844 361.378906 L 329.132812 362.640625 C 331.5625 363.449219 335.523438 364.800781 335.523438 368.039062 C 335.523438 370.289062 333.453125 372.71875 328.414062 372.71875 C 325.894531 372.71875 322.203125 371.910156 318.875 370.199219 C 317.34375 369.390625 316.625 368.761719 315.273438 367.679688 L 314.464844 368.039062 C 314.285156 372.71875 314.195312 373.710938 313.832031 378.210938 L 314.285156 379.019531 C 318.695312 380.640625 322.472656 382.078125 329.042969 382.078125 C 335.882812 382.078125 349.382812 380.820312 351.003906 367.949219 C 351.09375 367.230469 351.09375 366.601562 351.09375 365.96875 C 351.09375 356.070312 344.164062 353.460938 339.214844 351.570312 Z M 384.214844 370.648438 C 382.683594 371.101562 381.601562 371.460938 380.074219 371.460938 C 375.484375 371.460938 375.125 368.578125 374.941406 367.230469 C 374.671875 364.890625 374.671875 359.941406 374.761719 356.339844 L 374.941406 343.648438 L 383.042969 344.011719 L 383.582031 343.46875 L 384.484375 333.839844 L 383.941406 333.300781 L 374.941406 333.300781 L 375.214844 318.179688 L 374.582031 317.640625 C 368.464844 319.441406 366.84375 319.890625 360.453125 321.511719 L 360.09375 322.140625 L 360.183594 333.390625 L 355.324219 333.210938 L 354.785156 333.660156 L 353.972656 343.289062 L 354.511719 343.828125 L 360.183594 343.648438 L 359.914062 357.960938 C 359.824219 360.210938 359.734375 362.460938 359.734375 364.800781 C 359.734375 373.078125 359.914062 381.988281 373.953125 381.988281 C 377.464844 381.988281 380.253906 381.449219 383.402344 380.910156 L 384.035156 380.28125 L 384.933594 371.011719 Z M 436.683594 357.058594 C 436.683594 353.550781 436.683594 338.96875 424.082031 334.019531 C 420.121094 332.488281 415.441406 332.308594 413.101562 332.308594 C 397.441406 332.308594 388.621094 340.679688 388.621094 357.238281 C 388.621094 363 389.523438 368.851562 392.851562 373.710938 C 395.191406 377.21875 399.601562 382.078125 412.472656 382.078125 C 431.550781 382.078125 436.683594 370.558594 436.683594 357.058594 M 421.113281 356.96875 C 421.113281 364.351562 420.121094 372.539062 412.652344 372.539062 C 410.3125 372.539062 408.691406 371.460938 407.613281 370.46875 C 406.082031 368.941406 404.371094 365.878906 404.371094 357.148438 C 404.371094 354.539062 404.371094 348.78125 406.171875 345.628906 C 407.523438 343.199219 409.863281 341.578125 412.742188 341.578125 C 415.261719 341.578125 417.332031 342.929688 418.503906 344.371094 C 420.664062 346.980469 421.113281 352.109375 421.113281 356.96875 Z M 471.242188 347.609375 L 473.761719 332.941406 L 473.222656 332.308594 C 472.59375 332.308594 471.960938 332.21875 471.332031 332.21875 C 467.640625 332.21875 463.503906 334.289062 460.621094 340.949219 L 460.890625 332.671875 L 460.171875 331.949219 C 453.511719 333.390625 451.800781 333.660156 445.230469 334.648438 L 444.691406 335.191406 C 445.230469 341.941406 445.503906 345.988281 445.503906 358.5 C 445.503906 365.878906 445.410156 373.261719 445.230469 380.730469 L 445.773438 381.269531 C 452.433594 381 453.871094 380.910156 461.070312 381 L 461.523438 380.371094 C 461.160156 373.078125 460.621094 362.910156 460.621094 356.699219 C 460.621094 352.648438 460.621094 346.710938 466.742188 346.710938 C 468.273438 346.710938 469.171875 347.25 470.433594 347.96875 Z M 495.273438 380.371094 C 494.820312 373.441406 494.460938 368.128906 494.460938 355.710938 C 494.460938 348.058594 494.640625 340.320312 494.730469 332.671875 L 494.101562 331.949219 L 478.621094 334.648438 L 478.082031 335.191406 C 478.800781 342.03125 479.070312 345.179688 479.070312 357.960938 C 479.070312 367.769531 478.800781 373.261719 478.53125 380.640625 L 479.070312 381.269531 C 485.550781 381 487.351562 380.910156 494.640625 381 L 495.273438 380.371094 M 493.832031 323.308594 L 494.101562 311.070312 L 493.5625 310.53125 L 478.890625 312.328125 L 478.351562 312.960938 C 478.53125 316.199219 478.621094 318.089844 478.621094 320.25 C 478.621094 321.960938 478.621094 323.761719 478.53125 325.46875 L 479.160156 326.011719 C 485.28125 324.929688 486.992188 324.75 493.382812 323.941406 Z M 540.453125 368.039062 C 538.023438 369.480469 535.683594 370.921875 531.09375 370.921875 C 520.921875 370.921875 518.851562 362.460938 518.851562 357.058594 C 518.851562 350.488281 521.734375 342.929688 530.464844 342.929688 C 534.421875 342.929688 536.582031 344.371094 539.285156 346.171875 L 540.183594 345.898438 C 540.542969 341.128906 540.632812 339.871094 541.351562 335.101562 L 540.902344 334.558594 C 536.941406 333.300781 533.523438 332.21875 528.304688 332.21875 C 507.152344 332.21875 503.011719 348.238281 503.011719 357.421875 C 503.011719 367.769531 508.414062 381.808594 528.664062 381.808594 C 533.433594 381.808594 536.492188 380.910156 540.273438 379.828125 L 540.8125 379.289062 L 541.171875 368.488281 Z M 586.714844 317.28125 L 575.285156 317.460938 L 574.742188 318 C 575.105469 329.699219 575.375 337.53125 575.375 347.878906 C 575.375 358.859375 575.105469 369.75 574.832031 380.730469 L 575.375 381.269531 C 582.035156 381 583.472656 380.910156 590.675781 381 L 591.125 380.460938 C 590.765625 370.648438 590.765625 368.398438 590.765625 359.21875 C 600.84375 359.308594 611.644531 359.308594 618.125 351.390625 C 620.644531 348.328125 622.804688 343.199219 622.804688 336.898438 C 622.804688 333.03125 621.902344 324.480469 614.433594 320.25 C 609.035156 317.101562 601.382812 317.101562 594.632812 317.101562 L 586.714844 317.28125 M 590.765625 328.171875 C 592.742188 328.078125 594.632812 328.078125 596.613281 328.078125 C 604.535156 328.261719 606.695312 332.308594 606.695312 337.53125 C 606.695312 338.789062 606.695312 344.011719 601.925781 346.621094 C 599.492188 347.96875 596.164062 348.148438 590.765625 348.148438 Z M 669.0625 354.179688 C 669.152344 346.078125 669.152344 342.570312 666.8125 338.789062 C 665.011719 335.910156 661.414062 332.308594 649.894531 332.308594 C 642.152344 332.308594 637.382812 333.75 632.253906 335.28125 L 631.714844 336 L 631.261719 345.808594 L 631.984375 346.171875 C 635.132812 344.910156 640.984375 342.570312 647.011719 342.570312 C 650.34375 342.570312 651.691406 343.109375 652.863281 344.28125 C 653.761719 345.179688 654.035156 346.800781 654.035156 348.148438 C 643.234375 349.589844 638.191406 350.578125 632.792969 353.910156 C 627.753906 357.058594 626.042969 362.191406 626.042969 366.238281 C 626.042969 375.871094 632.972656 382.078125 641.792969 382.078125 C 648.542969 382.078125 652.414062 378.839844 654.304688 377.308594 L 654.304688 380.640625 L 654.84375 381.269531 C 661.324219 381 663.304688 380.910156 669.152344 381 L 669.601562 380.371094 C 668.972656 371.550781 668.972656 369.300781 668.972656 360.839844 L 669.0625 354.179688 M 654.214844 368.488281 C 652.324219 369.570312 649.894531 370.828125 646.921875 370.828125 C 643.683594 370.828125 640.984375 369.121094 640.984375 365.339844 C 640.984375 359.398438 648.09375 358.410156 654.214844 357.601562 Z M 705.601562 347.609375 L 708.121094 332.941406 L 707.582031 332.308594 C 706.953125 332.308594 706.320312 332.21875 705.691406 332.21875 C 702 332.21875 697.863281 334.289062 694.980469 340.949219 L 695.25 332.671875 L 694.53125 331.949219 C 687.871094 333.390625 686.160156 333.660156 679.589844 334.648438 L 679.050781 335.191406 C 679.589844 341.941406 679.863281 345.988281 679.863281 358.5 C 679.863281 365.878906 679.769531 373.261719 679.589844 380.730469 L 680.132812 381.269531 C 686.792969 381 688.230469 380.910156 695.429688 381 L 695.882812 380.371094 C 695.519531 373.078125 694.980469 362.910156 694.980469 356.699219 C 694.980469 352.648438 694.980469 346.710938 701.101562 346.710938 C 702.632812 346.710938 703.53125 347.25 704.792969 347.96875 Z M 759.601562 379.828125 C 751.140625 365.519531 750.242188 363.898438 743.402344 351.570312 C 749.613281 343.109375 750.242188 342.210938 756.632812 334.019531 L 756.179688 333.121094 L 741.511719 333.300781 L 740.613281 333.929688 C 733.589844 346.078125 732.691406 347.519531 728.550781 353.730469 L 728.550781 343.738281 C 728.640625 326.910156 728.730469 323.308594 729.179688 309.71875 L 728.460938 309.179688 L 712.800781 311.519531 L 712.261719 312.148438 C 712.890625 320.878906 713.160156 325.109375 713.339844 336.898438 C 713.519531 351.480469 713.519531 366.058594 713.429688 380.640625 L 714.0625 381.269531 C 720.089844 381 721.800781 381 728.640625 381 L 729.179688 380.371094 L 728.640625 365.160156 L 728.550781 354.808594 C 736.382812 369.210938 737.371094 371.191406 741.960938 380.730469 L 742.769531 381.269531 L 758.972656 380.640625 Z M 758.523438 381 "/>
</svg>
