<?xml version="1.0" encoding="UTF-8"?>
<svg xmlns="http://www.w3.org/2000/svg" xmlns:xlink="http://www.w3.org/1999/xlink" width="975" height="1300" viewBox="0 0 975 1300">
<path fill-rule="nonzero" fill="rgb(98.823529%, 78.823529%, 9.019608%)" fill-opacity="1" d="M 50 50 L 925 50 L 925 290 L 50 290 Z M 50 50 "/>
<path fill-rule="nonzero" fill="rgb(34.901961%, 14.901961%, 14.901961%)" fill-opacity="1" d="M 83.390625 141 C 91.761719 141.179688 102.109375 141.359375 108.859375 136.679688 C 114.800781 132.449219 116.421875 126.511719 116.421875 121.46875 C 116.421875 115.710938 113.988281 110.398438 108.859375 107.878906 C 107.148438 106.980469 105.171875 106.621094 103.28125 106.261719 C 106.339844 105 109.941406 103.378906 112.28125 98.609375 C 113.269531 96.539062 113.71875 94.378906 113.71875 92.308594 C 113.71875 89.429688 113 85.46875 110.121094 82.230469 C 106.339844 78.179688 100.488281 77.101562 91.671875 77.101562 C 88.609375 77.101562 83.121094 77.191406 80.058594 77.28125 L 67.460938 77.460938 L 66.921875 78 C 67.28125 86.640625 67.371094 89.96875 67.371094 102.390625 C 67.371094 115.171875 67.28125 127.859375 67.101562 140.640625 L 67.730469 141 L 83.390625 141 M 82.761719 113.640625 C 89.601562 113.460938 93.558594 113.460938 96.171875 114.988281 C 98.78125 116.609375 99.769531 119.488281 99.769531 122.371094 C 99.769531 126.421875 97.519531 128.941406 94.191406 130.109375 C 91.488281 131.011719 86.628906 131.011719 82.761719 130.921875 L 82.761719 113.640625 M 82.761719 87.179688 C 84.648438 87.179688 87.171875 87.089844 88.699219 87.089844 C 93.558594 87.089844 97.96875 88.800781 97.96875 94.648438 C 97.96875 99.421875 94.460938 101.398438 93.378906 101.941406 C 91.128906 102.929688 86.359375 102.929688 82.761719 102.929688 Z M 141.082031 140.371094 C 140.628906 133.441406 140.269531 128.128906 140.269531 115.710938 C 140.269531 108.058594 140.449219 100.320312 140.539062 92.671875 L 139.910156 91.949219 L 124.429688 94.648438 L 123.890625 95.191406 C 124.609375 102.03125 124.878906 105.179688 124.878906 117.960938 C 124.878906 127.769531 124.609375 133.261719 124.339844 140.640625 L 124.878906 141.269531 C 131.359375 141 133.160156 140.910156 140.449219 141 L 141.082031 140.371094 M 139.640625 83.308594 L 139.910156 71.070312 L 139.371094 70.53125 L 124.699219 72.328125 L 124.160156 72.960938 C 124.339844 76.199219 124.429688 78.089844 124.429688 80.25 C 124.429688 81.960938 124.429688 83.761719 124.339844 85.46875 L 124.96875 86.011719 C 131.089844 84.929688 132.800781 84.75 139.191406 83.941406 Z M 167.632812 125.789062 C 170.511719 125.878906 173.390625 126.058594 177.710938 124.621094 C 182.390625 123 189.230469 119.128906 189.230469 110.398438 C 189.230469 106.078125 187.972656 104.28125 186.800781 102.570312 L 193.011719 102.929688 L 193.550781 102.480469 L 194.183594 93.480469 L 193.640625 93.03125 C 186.710938 93.300781 184.820312 93.390625 179.152344 93.300781 L 175.011719 93.210938 C 168.621094 93.03125 160.070312 92.851562 154.222656 97.710938 C 152.242188 99.238281 148.460938 103.109375 148.460938 109.859375 C 148.460938 113.460938 149.453125 116.339844 151.070312 118.589844 C 153.050781 121.378906 154.851562 122.371094 157.101562 123.628906 C 154.582031 128.488281 153.230469 130.921875 151.160156 134.609375 L 151.160156 135.421875 L 154.941406 138.121094 C 152.242188 140.191406 148.011719 143.609375 148.011719 149.460938 C 148.011719 153.601562 150.261719 157.199219 153.59375 159.628906 C 158.632812 163.230469 165.472656 163.410156 168.980469 163.410156 C 185.453125 163.410156 193.011719 155.128906 193.011719 146.398438 C 193.011719 135.058594 183.113281 132.898438 177.261719 131.550781 L 175.101562 131.191406 C 170.691406 130.46875 169.703125 130.199219 166.191406 128.941406 L 167.632812 125.789062 M 175.011719 109.589844 C 174.921875 116.878906 170.511719 117.511719 169.25 117.511719 C 168.53125 117.511719 165.382812 117.328125 163.851562 113.730469 C 163.042969 111.839844 163.042969 109.679688 163.042969 109.050781 C 163.042969 104.550781 165.742188 101.671875 169.070312 101.671875 C 173.210938 101.671875 175.101562 105.628906 175.011719 109.589844 M 167.363281 143.160156 C 175.371094 145.230469 175.460938 145.230469 176.542969 146.128906 C 177.441406 146.761719 178.34375 147.75 178.34375 149.640625 C 178.34375 152.339844 176.09375 155.128906 170.152344 155.128906 C 163.492188 155.128906 161.242188 151.351562 161.242188 148.199219 C 161.242188 145.230469 162.773438 143.519531 163.851562 142.261719 Z M 242.871094 141 C 251.242188 141.179688 261.589844 141.359375 268.339844 136.679688 C 274.28125 132.449219 275.902344 126.511719 275.902344 121.46875 C 275.902344 115.710938 273.46875 110.398438 268.339844 107.878906 C 266.628906 106.980469 264.652344 106.621094 262.761719 106.261719 C 265.820312 105 269.421875 103.378906 271.761719 98.609375 C 272.75 96.539062 273.199219 94.378906 273.199219 92.308594 C 273.199219 89.429688 272.480469 85.46875 269.601562 82.230469 C 265.820312 78.179688 259.96875 77.101562 251.152344 77.101562 C 248.089844 77.101562 242.601562 77.191406 239.539062 77.28125 L 226.941406 77.460938 L 226.402344 78 C 226.761719 86.640625 226.851562 89.96875 226.851562 102.390625 C 226.851562 115.171875 226.761719 127.859375 226.582031 140.640625 L 227.210938 141 L 242.871094 141 M 242.242188 113.640625 C 249.082031 113.460938 253.039062 113.460938 255.652344 114.988281 C 258.261719 116.609375 259.25 119.488281 259.25 122.371094 C 259.25 126.421875 257 128.941406 253.671875 130.109375 C 250.96875 131.011719 246.109375 131.011719 242.242188 130.921875 L 242.242188 113.640625 M 242.242188 87.179688 C 244.128906 87.179688 246.652344 87.089844 248.179688 87.089844 C 253.039062 87.089844 257.449219 88.800781 257.449219 94.648438 C 257.449219 99.421875 253.941406 101.398438 252.859375 101.941406 C 250.609375 102.929688 245.839844 102.929688 242.242188 102.929688 Z M 324.320312 114.179688 C 324.410156 106.078125 324.410156 102.570312 322.070312 98.789062 C 320.269531 95.910156 316.671875 92.308594 305.152344 92.308594 C 297.410156 92.308594 292.640625 93.75 287.511719 95.28125 L 286.972656 96 L 286.519531 105.808594 L 287.242188 106.171875 C 290.390625 104.910156 296.242188 102.570312 302.269531 102.570312 C 305.601562 102.570312 306.949219 103.109375 308.121094 104.28125 C 309.019531 105.179688 309.292969 106.800781 309.292969 108.148438 C 298.492188 109.589844 293.449219 110.578125 288.050781 113.910156 C 283.011719 117.058594 281.300781 122.191406 281.300781 126.238281 C 281.300781 135.871094 288.230469 142.078125 297.050781 142.078125 C 303.800781 142.078125 307.671875 138.839844 309.5625 137.308594 L 309.5625 140.640625 L 310.101562 141.269531 C 316.582031 141 318.5625 140.910156 324.410156 141 L 324.859375 140.371094 C 324.230469 131.550781 324.230469 129.300781 324.230469 120.839844 L 324.320312 114.179688 M 309.472656 128.488281 C 307.582031 129.570312 305.152344 130.828125 302.179688 130.828125 C 298.941406 130.828125 296.242188 129.121094 296.242188 125.339844 C 296.242188 119.398438 303.351562 118.410156 309.472656 117.601562 Z M 353.75 109.949219 C 350.6875 108.871094 348.257812 107.878906 348.257812 105.359375 C 348.257812 104.28125 348.980469 101.308594 354.558594 101.308594 C 360.050781 101.308594 363.558594 103.648438 365.808594 105.089844 L 366.621094 104.820312 L 367.519531 95.011719 L 367.070312 94.46875 C 362.839844 93.300781 359.148438 92.21875 353.300781 92.21875 C 348.890625 92.21875 340.070312 92.578125 335.390625 99.328125 C 334.21875 100.949219 332.960938 103.648438 332.960938 107.25 C 332.960938 116.878906 340.429688 119.761719 344.660156 121.378906 L 348.078125 122.640625 C 350.507812 123.449219 354.46875 124.800781 354.46875 128.039062 C 354.46875 130.289062 352.398438 132.71875 347.359375 132.71875 C 344.839844 132.71875 341.148438 131.910156 337.820312 130.199219 C 336.289062 129.390625 335.570312 128.761719 334.21875 127.679688 L 333.410156 128.039062 C 333.230469 132.71875 333.140625 133.710938 332.777344 138.210938 L 333.230469 139.019531 C 337.640625 140.640625 341.417969 142.078125 347.988281 142.078125 C 354.828125 142.078125 368.328125 140.820312 369.949219 127.949219 C 370.039062 127.230469 370.039062 126.601562 370.039062 125.96875 C 370.039062 116.070312 363.109375 113.460938 358.160156 111.570312 Z M 394.25 140.371094 C 393.796875 133.441406 393.4375 128.128906 393.4375 115.710938 C 393.4375 108.058594 393.617188 100.320312 393.707031 92.671875 L 393.078125 91.949219 L 377.597656 94.648438 L 377.058594 95.191406 C 377.777344 102.03125 378.046875 105.179688 378.046875 117.960938 C 378.046875 127.769531 377.777344 133.261719 377.507812 140.640625 L 378.046875 141.269531 C 384.527344 141 386.328125 140.910156 393.617188 141 L 394.25 140.371094 M 392.808594 83.308594 L 393.078125 71.070312 L 392.539062 70.53125 L 377.867188 72.328125 L 377.328125 72.960938 C 377.507812 76.199219 377.597656 78.089844 377.597656 80.25 C 377.597656 81.960938 377.597656 83.761719 377.507812 85.46875 L 378.136719 86.011719 C 384.257812 84.929688 385.96875 84.75 392.359375 83.941406 Z M 448.339844 140.371094 C 447.890625 132.449219 447.890625 129.929688 447.710938 121.109375 L 447.710938 114.089844 C 447.621094 105.449219 447.53125 101.308594 445.28125 97.621094 C 442.488281 92.941406 437.359375 92.21875 434.121094 92.21875 C 428.628906 92.21875 423.859375 95.101562 419.71875 97.53125 L 419.898438 92.578125 L 419 91.949219 C 412.070312 93.390625 410.539062 93.660156 403.789062 94.558594 L 403.25 95.191406 C 403.96875 103.019531 404.511719 108.691406 404.511719 123.359375 C 404.511719 129.121094 404.417969 134.878906 404.328125 140.640625 L 404.871094 141.179688 C 411.351562 140.910156 412.699219 140.910156 419.898438 140.910156 L 420.441406 140.371094 C 419.898438 126.511719 419.808594 123 419.71875 106.890625 C 421.609375 105.628906 423.769531 104.101562 426.648438 104.101562 C 431.601562 104.101562 432.050781 109.410156 432.320312 112.648438 C 432.5 115.621094 432.589844 127.949219 432.589844 131.371094 C 432.589844 134.429688 432.5 137.578125 432.5 140.640625 L 433.039062 141.179688 C 438.980469 141 440.511719 140.910156 447.710938 140.910156 Z M 505.21875 116.25 C 511.25 126.511719 512.601562 129.210938 518.359375 141 L 519.082031 141.449219 C 521.871094 141.269531 524.570312 141.089844 527.359375 141 C 530.152344 140.910156 533.03125 140.820312 535.820312 140.820312 L 536.359375 139.738281 C 532.941406 135.328125 531.949219 133.980469 525.46875 123.628906 C 522.589844 119.039062 521.152344 116.609375 518.902344 112.648438 C 522.949219 110.851562 531.140625 107.070312 531.140625 95.640625 C 531.140625 91.679688 530.058594 83.488281 522.679688 79.621094 C 518 77.191406 513.140625 77.101562 502.609375 77.28125 L 496.308594 77.371094 L 485.332031 77.371094 L 484.878906 77.910156 C 485.242188 87 485.601562 96.359375 485.601562 120.839844 C 485.601562 129.210938 485.511719 133.261719 485.242188 140.730469 L 485.78125 141.269531 C 492.351562 141 493.789062 140.910156 501.171875 141 L 501.710938 140.460938 C 500.992188 130.019531 500.902344 127.140625 500.808594 116.429688 L 505.21875 116.25 M 500.992188 88.261719 C 502.25 88.171875 503.511719 88.171875 504.769531 88.171875 C 508.28125 88.171875 515.210938 88.171875 515.210938 96.089844 C 515.210938 98.609375 514.582031 101.941406 511.25 104.011719 C 508.730469 105.539062 505.492188 105.71875 500.992188 105.808594 Z M 581.089844 127.679688 C 577.671875 129.480469 573.621094 131.550781 567.050781 131.550781 C 561.652344 131.550781 557.960938 129.839844 555.800781 126.601562 C 554.449219 124.710938 554.179688 122.910156 553.820312 121.109375 L 582.890625 120.570312 L 583.429688 119.941406 C 583.339844 115.53125 583.25 111.03125 581.992188 106.53125 C 578.839844 95.910156 571.910156 93.75 568.851562 93.03125 C 566.601562 92.398438 564.53125 92.21875 562.460938 92.21875 C 548.332031 92.21875 538.96875 101.488281 538.96875 117.058594 C 538.96875 121.289062 539.691406 125.699219 541.128906 128.851562 C 546.351562 141 558.589844 142.078125 565.070312 142.078125 C 572.539062 142.078125 575.78125 140.730469 580.550781 138.839844 L 581.089844 138.121094 L 581.71875 127.949219 L 581.089844 127.679688 M 553.820312 111.570312 C 554.089844 108.78125 554.71875 105 558.140625 102.839844 C 559.21875 102.121094 560.480469 101.851562 561.742188 101.851562 C 564.710938 101.851562 566.511719 103.378906 567.5 105 C 568.761719 106.980469 568.851562 109.140625 568.851562 111.210938 Z M 635.808594 140.460938 C 635.449219 132.359375 635.179688 126.960938 635.179688 115.171875 C 635.179688 91.410156 635.539062 81.601562 635.898438 69.71875 L 635.269531 69.179688 L 620.417969 71.519531 L 619.96875 72.058594 C 620.507812 80.519531 620.597656 82.769531 620.507812 93.03125 C 613.757812 92.851562 605.296875 92.671875 598.457031 98.070312 C 592.160156 102.929688 589.546875 110.398438 589.546875 119.671875 C 589.546875 126.691406 591.4375 133.710938 596.75 138.121094 C 600.707031 141.359375 605.570312 142.078125 608.539062 142.078125 C 614.929688 142.078125 618.257812 139.109375 620.417969 137.21875 L 620.238281 140.730469 L 620.6875 141.269531 C 626.898438 141 628.609375 141 635.359375 141 L 635.808594 140.460938 M 620.507812 103.828125 C 620.597656 115.800781 620.507812 118.140625 620.238281 129.03125 C 618.4375 130.109375 616.636719 131.191406 614.117188 131.191406 C 605.386719 131.191406 605.386719 120.03125 605.386719 118.230469 C 605.386719 111.300781 607.367188 103.558594 617.449219 103.558594 C 618.4375 103.558594 619.25 103.648438 620.507812 103.828125 Z M 701.691406 140.371094 C 705.292969 126.421875 705.921875 124.261719 711.320312 104.910156 C 712.402344 101.21875 713.390625 97.441406 714.382812 93.75 L 713.84375 93.03125 L 702.140625 93.300781 L 701.511719 93.929688 L 698.902344 107.429688 L 696.382812 118.320312 L 694.671875 126.601562 L 693.140625 118.589844 L 691.160156 109.230469 L 688.011719 93.660156 L 687.472656 93.03125 L 670.191406 93.300781 L 669.5625 93.929688 L 666.59375 108.691406 L 664.433594 118.589844 L 662.722656 126.871094 L 661.011719 117.960938 L 658.851562 108.238281 L 655.792969 93.300781 L 655.25 92.851562 L 640.671875 93.929688 L 640.132812 94.648438 C 648.59375 124.351562 649.941406 129.660156 652.460938 140.730469 L 653.09375 141.269531 C 659.300781 141 661.550781 140.910156 669.832031 141 L 670.371094 140.371094 L 672.710938 129.390625 L 675.230469 118.5 L 677.480469 107.609375 L 678.832031 114.449219 L 680.183594 121.109375 L 683.960938 140.640625 L 684.59375 141.269531 C 691.25 141 693.953125 140.910156 701.152344 141 Z M 764.960938 117.058594 C 764.960938 113.550781 764.960938 98.96875 752.359375 94.019531 C 748.398438 92.488281 743.71875 92.308594 741.378906 92.308594 C 725.71875 92.308594 716.898438 100.679688 716.898438 117.238281 C 716.898438 123 717.800781 128.851562 721.128906 133.710938 C 723.46875 137.21875 727.878906 142.078125 740.75 142.078125 C 759.828125 142.078125 764.960938 130.558594 764.960938 117.058594 M 749.390625 116.96875 C 749.390625 124.351562 748.398438 132.539062 740.929688 132.539062 C 738.589844 132.539062 736.96875 131.460938 735.890625 130.46875 C 734.359375 128.941406 732.648438 125.878906 732.648438 117.148438 C 732.648438 114.539062 732.648438 108.78125 734.449219 105.628906 C 735.800781 103.199219 738.140625 101.578125 741.019531 101.578125 C 743.539062 101.578125 745.609375 102.929688 746.78125 104.371094 C 748.941406 106.980469 749.390625 112.109375 749.390625 116.96875 Z M 819.320312 117.058594 C 819.320312 113.550781 819.320312 98.96875 806.71875 94.019531 C 802.757812 92.488281 798.078125 92.308594 795.738281 92.308594 C 780.078125 92.308594 771.257812 100.679688 771.257812 117.238281 C 771.257812 123 772.160156 128.851562 775.488281 133.710938 C 777.828125 137.21875 782.238281 142.078125 795.109375 142.078125 C 814.1875 142.078125 819.320312 130.558594 819.320312 117.058594 M 803.75 116.96875 C 803.75 124.351562 802.757812 132.539062 795.289062 132.539062 C 792.949219 132.539062 791.328125 131.460938 790.25 130.46875 C 788.71875 128.941406 787.007812 125.878906 787.007812 117.148438 C 787.007812 114.539062 787.007812 108.78125 788.808594 105.628906 C 790.160156 103.199219 792.5 101.578125 795.378906 101.578125 C 797.898438 101.578125 799.96875 102.929688 801.140625 104.371094 C 803.300781 106.980469 803.75 112.109375 803.75 116.96875 Z M 871.96875 140.460938 C 871.609375 132.359375 871.339844 126.960938 871.339844 115.171875 C 871.339844 91.410156 871.699219 81.601562 872.058594 69.71875 L 871.429688 69.179688 L 856.578125 71.519531 L 856.128906 72.058594 C 856.667969 80.519531 856.757812 82.769531 856.667969 93.03125 C 849.917969 92.851562 841.457031 92.671875 834.617188 98.070312 C 828.320312 102.929688 825.707031 110.398438 825.707031 119.671875 C 825.707031 126.691406 827.597656 133.710938 832.910156 138.121094 C 836.867188 141.359375 841.730469 142.078125 844.699219 142.078125 C 851.089844 142.078125 854.417969 139.109375 856.578125 137.21875 L 856.398438 140.730469 L 856.847656 141.269531 C 863.058594 141 864.769531 141 871.519531 141 L 871.96875 140.460938 M 856.667969 103.828125 C 856.757812 115.800781 856.667969 118.140625 856.398438 129.03125 C 854.597656 130.109375 852.796875 131.191406 850.277344 131.191406 C 841.546875 131.191406 841.546875 120.03125 841.546875 118.230469 C 841.546875 111.300781 843.527344 103.558594 853.609375 103.558594 C 854.597656 103.558594 855.410156 103.648438 856.667969 103.828125 Z M 901.128906 109.949219 C 898.066406 108.871094 895.636719 107.878906 895.636719 105.359375 C 895.636719 104.28125 896.359375 101.308594 901.9375 101.308594 C 907.429688 101.308594 910.9375 103.648438 913.1875 105.089844 L 914 104.820312 L 914.898438 95.011719 L 914.449219 94.46875 C 910.21875 93.300781 906.527344 92.21875 900.679688 92.21875 C 896.269531 92.21875 887.449219 92.578125 882.769531 99.328125 C 881.597656 100.949219 880.339844 103.648438 880.339844 107.25 C 880.339844 116.878906 887.808594 119.761719 892.039062 121.378906 L 895.457031 122.640625 C 897.886719 123.449219 901.847656 124.800781 901.847656 128.039062 C 901.847656 130.289062 899.777344 132.71875 894.738281 132.71875 C 892.21875 132.71875 888.527344 131.910156 885.199219 130.199219 C 883.667969 129.390625 882.949219 128.761719 881.597656 127.679688 L 880.789062 128.039062 C 880.609375 132.71875 880.519531 133.710938 880.15625 138.210938 L 880.609375 139.019531 C 885.019531 140.640625 888.796875 142.078125 895.367188 142.078125 C 902.207031 142.078125 915.707031 140.820312 917.328125 127.949219 C 917.417969 127.230469 917.417969 126.601562 917.417969 125.96875 C 917.417969 116.070312 910.488281 113.460938 905.539062 111.570312 Z M 919.941406 141 "/>
<path fill-rule="nonzero" fill="rgb(34.901961%, 14.901961%, 14.901961%)" fill-opacity="1" d="M 303.890625 222.300781 C 296.332031 219.148438 292.371094 217.53125 292.371094 213.480469 C 292.371094 210.691406 294.980469 207.179688 300.921875 207.179688 C 307.761719 207.179688 311.808594 209.96875 315.140625 212.21875 L 315.949219 211.859375 L 316.671875 200.070312 L 316.21875 199.441406 C 312.351562 197.820312 308.300781 196.109375 299.570312 196.109375 C 282.652344 196.109375 276.800781 205.648438 276.800781 215.28125 C 276.800781 226.171875 285.261719 230.128906 290.300781 232.558594 L 293.269531 233.910156 C 299.480469 236.519531 304.25 238.769531 304.25 243.539062 C 304.25 246.960938 301.28125 251.011719 293.449219 251.011719 C 285.261719 251.011719 280.671875 247.410156 278.058594 245.339844 L 277.160156 245.609375 L 276.53125 258.300781 L 277.070312 259.019531 C 278.058594 259.378906 279.050781 259.828125 280.039062 260.101562 C 282.109375 260.820312 287.421875 262.351562 294.171875 262.351562 C 296.871094 262.351562 303.710938 262.078125 309.109375 259.558594 C 316.671875 255.871094 319.910156 249.03125 319.910156 241.378906 C 319.910156 236.25 317.929688 230.761719 313.160156 227.070312 C 310.730469 225.269531 308.390625 224.191406 306.230469 223.199219 Z M 353.660156 250.648438 C 352.128906 251.101562 351.046875 251.460938 349.519531 251.460938 C 344.929688 251.460938 344.570312 248.578125 344.386719 247.230469 C 344.117188 244.890625 344.117188 239.941406 344.207031 236.339844 L 344.386719 223.648438 L 352.488281 224.011719 L 353.027344 223.46875 L 353.929688 213.839844 L 353.386719 213.300781 L 344.386719 213.300781 L 344.660156 198.179688 L 344.027344 197.640625 C 337.910156 199.441406 336.289062 199.890625 329.898438 201.511719 L 329.539062 202.140625 L 329.628906 213.390625 L 324.769531 213.210938 L 324.230469 213.660156 L 323.417969 223.289062 L 323.957031 223.828125 L 329.628906 223.648438 L 329.359375 237.960938 C 329.269531 240.210938 329.179688 242.460938 329.179688 244.800781 C 329.179688 253.078125 329.359375 261.988281 343.398438 261.988281 C 346.910156 261.988281 349.699219 261.449219 352.847656 260.910156 L 353.480469 260.28125 L 354.378906 251.011719 Z M 400.371094 234.179688 C 400.460938 226.078125 400.460938 222.570312 398.121094 218.789062 C 396.320312 215.910156 392.722656 212.308594 381.203125 212.308594 C 373.460938 212.308594 368.691406 213.75 363.5625 215.28125 L 363.023438 216 L 362.570312 225.808594 L 363.292969 226.171875 C 366.441406 224.910156 372.292969 222.570312 378.320312 222.570312 C 381.652344 222.570312 383 223.109375 384.171875 224.28125 C 385.070312 225.179688 385.34375 226.800781 385.34375 228.148438 C 374.542969 229.589844 369.5 230.578125 364.101562 233.910156 C 359.0625 237.058594 357.351562 242.191406 357.351562 246.238281 C 357.351562 255.871094 364.28125 262.078125 373.101562 262.078125 C 379.851562 262.078125 383.722656 258.839844 385.613281 257.308594 L 385.613281 260.640625 L 386.152344 261.269531 C 392.632812 261 394.613281 260.910156 400.460938 261 L 400.910156 260.371094 C 400.28125 251.550781 400.28125 249.300781 400.28125 240.839844 L 400.371094 234.179688 M 385.523438 248.488281 C 383.632812 249.570312 381.203125 250.828125 378.230469 250.828125 C 374.992188 250.828125 372.292969 249.121094 372.292969 245.339844 C 372.292969 239.398438 379.402344 238.410156 385.523438 237.601562 Z M 436.101562 250.648438 C 434.570312 251.101562 433.488281 251.460938 431.960938 251.460938 C 427.371094 251.460938 427.011719 248.578125 426.828125 247.230469 C 426.558594 244.890625 426.558594 239.941406 426.648438 236.339844 L 426.828125 223.648438 L 434.929688 224.011719 L 435.46875 223.46875 L 436.371094 213.839844 L 435.828125 213.300781 L 426.828125 213.300781 L 427.101562 198.179688 L 426.46875 197.640625 C 420.351562 199.441406 418.730469 199.890625 412.339844 201.511719 L 411.980469 202.140625 L 412.070312 213.390625 L 407.210938 213.210938 L 406.671875 213.660156 L 405.859375 223.289062 L 406.398438 223.828125 L 412.070312 223.648438 L 411.800781 237.960938 C 411.710938 240.210938 411.621094 242.460938 411.621094 244.800781 C 411.621094 253.078125 411.800781 261.988281 425.839844 261.988281 C 429.351562 261.988281 432.140625 261.449219 435.289062 260.910156 L 435.921875 260.28125 L 436.820312 251.011719 Z M 482.71875 247.679688 C 479.300781 249.480469 475.25 251.550781 468.679688 251.550781 C 463.28125 251.550781 459.589844 249.839844 457.429688 246.601562 C 456.078125 244.710938 455.808594 242.910156 455.449219 241.109375 L 484.519531 240.570312 L 485.058594 239.941406 C 484.96875 235.53125 484.878906 231.03125 483.621094 226.53125 C 480.46875 215.910156 473.539062 213.75 470.480469 213.03125 C 468.230469 212.398438 466.160156 212.21875 464.089844 212.21875 C 449.960938 212.21875 440.597656 221.488281 440.597656 237.058594 C 440.597656 241.289062 441.320312 245.699219 442.757812 248.851562 C 447.980469 261 460.21875 262.078125 466.699219 262.078125 C 474.167969 262.078125 477.410156 260.730469 482.179688 258.839844 L 482.71875 258.121094 L 483.347656 247.949219 L 482.71875 247.679688 M 455.449219 231.570312 C 455.71875 228.78125 456.347656 225 459.769531 222.839844 C 460.847656 222.121094 462.109375 221.851562 463.371094 221.851562 C 466.339844 221.851562 468.140625 223.378906 469.128906 225 C 470.390625 226.980469 470.480469 229.140625 470.480469 231.210938 Z M 531.679688 197.28125 L 520.25 197.460938 L 519.707031 198 C 520.070312 209.699219 520.339844 217.53125 520.339844 227.878906 C 520.339844 238.859375 520.070312 249.75 519.796875 260.730469 L 520.339844 261.269531 C 527 261 528.4375 260.910156 535.640625 261 L 536.089844 260.460938 C 535.730469 250.648438 535.730469 248.398438 535.730469 239.21875 C 545.808594 239.308594 556.609375 239.308594 563.089844 231.390625 C 565.609375 228.328125 567.769531 223.199219 567.769531 216.898438 C 567.769531 213.03125 566.867188 204.480469 559.398438 200.25 C 554 197.101562 546.347656 197.101562 539.597656 197.101562 L 531.679688 197.28125 M 535.730469 208.171875 C 537.707031 208.078125 539.597656 208.078125 541.578125 208.078125 C 549.5 208.261719 551.660156 212.308594 551.660156 217.53125 C 551.660156 218.789062 551.660156 224.011719 546.890625 226.621094 C 544.457031 227.96875 541.128906 228.148438 535.730469 228.148438 Z M 614.03125 234.179688 C 614.121094 226.078125 614.121094 222.570312 611.78125 218.789062 C 609.980469 215.910156 606.382812 212.308594 594.863281 212.308594 C 587.121094 212.308594 582.351562 213.75 577.222656 215.28125 L 576.683594 216 L 576.230469 225.808594 L 576.953125 226.171875 C 580.101562 224.910156 585.953125 222.570312 591.980469 222.570312 C 595.3125 222.570312 596.660156 223.109375 597.832031 224.28125 C 598.730469 225.179688 599.003906 226.800781 599.003906 228.148438 C 588.203125 229.589844 583.160156 230.578125 577.761719 233.910156 C 572.722656 237.058594 571.011719 242.191406 571.011719 246.238281 C 571.011719 255.871094 577.941406 262.078125 586.761719 262.078125 C 593.511719 262.078125 597.382812 258.839844 599.273438 257.308594 L 599.273438 260.640625 L 599.8125 261.269531 C 606.292969 261 608.273438 260.910156 614.121094 261 L 614.570312 260.371094 C 613.941406 251.550781 613.941406 249.300781 613.941406 240.839844 L 614.03125 234.179688 M 599.183594 248.488281 C 597.292969 249.570312 594.863281 250.828125 591.890625 250.828125 C 588.652344 250.828125 585.953125 249.121094 585.953125 245.339844 C 585.953125 239.398438 593.0625 238.410156 599.183594 237.601562 Z M 650.570312 227.609375 L 653.089844 212.941406 L 652.550781 212.308594 C 651.921875 212.308594 651.289062 212.21875 650.660156 212.21875 C 646.96875 212.21875 642.832031 214.289062 639.949219 220.949219 L 640.21875 212.671875 L 639.5 211.949219 C 632.839844 213.390625 631.128906 213.660156 624.558594 214.648438 L 624.019531 215.191406 C 624.558594 221.941406 624.832031 225.988281 624.832031 238.5 C 624.832031 245.878906 624.738281 253.261719 624.558594 260.730469 L 625.101562 261.269531 C 631.761719 261 633.199219 260.910156 640.398438 261 L 640.851562 260.371094 C 640.488281 253.078125 639.949219 242.910156 639.949219 236.699219 C 639.949219 232.648438 639.949219 226.710938 646.070312 226.710938 C 647.601562 226.710938 648.5 227.25 649.761719 227.96875 Z M 704.570312 259.828125 C 696.109375 245.519531 695.210938 243.898438 688.371094 231.570312 C 694.582031 223.109375 695.210938 222.210938 701.601562 214.019531 L 701.148438 213.121094 L 686.480469 213.300781 L 685.582031 213.929688 C 678.558594 226.078125 677.660156 227.519531 673.519531 233.730469 L 673.519531 223.738281 C 673.609375 206.910156 673.699219 203.308594 674.148438 189.71875 L 673.429688 189.179688 L 657.769531 191.519531 L 657.230469 192.148438 C 657.859375 200.878906 658.128906 205.109375 658.308594 216.898438 C 658.488281 231.480469 658.488281 246.058594 658.398438 260.640625 L 659.03125 261.269531 C 665.058594 261 666.769531 261 673.609375 261 L 674.148438 260.371094 L 673.609375 245.160156 L 673.519531 234.808594 C 681.351562 249.210938 682.339844 251.191406 686.929688 260.730469 L 687.738281 261.269531 L 703.941406 260.640625 Z M 703.492188 261 "/>
</svg>
