<?xml version="1.0" encoding="UTF-8"?>
<svg xmlns="http://www.w3.org/2000/svg" xmlns:xlink="http://www.w3.org/1999/xlink" width="975" height="1300" viewBox="0 0 975 1300">
<path fill-rule="nonzero" fill="rgb(98.823529%, 78.823529%, 9.019608%)" fill-opacity="1" d="M 50 50 L 925 50 L 925 290 L 50 290 Z M 50 50 "/>
<path fill-rule="nonzero" fill="rgb(34.901961%, 14.901961%, 14.901961%)" fill-opacity="1" d="M 222.84375 77.191406 C 217.175781 77.460938 215.644531 77.550781 210.066406 77.460938 L 209.617188 78 L 210.246094 90.148438 L 210.605469 102.570312 L 210.964844 117.421875 C 208.355469 113.011719 207.90625 112.289062 203.316406 105.449219 L 195.125 93.480469 C 188.375 83.21875 187.027344 81.238281 184.777344 77.640625 L 184.144531 77.191406 C 177.035156 77.550781 175.867188 77.550781 169.296875 77.460938 L 168.84375 78 C 169.296875 91.949219 169.566406 102.300781 169.566406 114.359375 C 169.566406 123.179688 169.386719 132 169.296875 140.730469 L 169.746094 141.269531 C 175.777344 141 177.664062 141 182.886719 141 L 183.335938 140.460938 L 182.433594 120.75 L 182.164062 109.679688 L 181.625 97.621094 C 185.855469 104.640625 187.296875 106.980469 193.414062 115.890625 L 202.414062 129.121094 L 210.425781 140.820312 L 211.054688 141.269531 C 216.546875 141 218.164062 141 222.933594 141 L 223.386719 140.550781 C 223.296875 127.5 223.207031 118.679688 223.207031 107.878906 C 223.207031 97.800781 223.296875 87.808594 223.386719 77.730469 Z M 274.414062 114.179688 C 274.503906 106.078125 274.503906 102.570312 272.164062 98.789062 C 270.363281 95.910156 266.765625 92.308594 255.246094 92.308594 C 247.503906 92.308594 242.734375 93.75 237.605469 95.28125 L 237.066406 96 L 236.613281 105.808594 L 237.335938 106.171875 C 240.484375 104.910156 246.335938 102.570312 252.363281 102.570312 C 255.695312 102.570312 257.042969 103.109375 258.214844 104.28125 C 259.113281 105.179688 259.386719 106.800781 259.386719 108.148438 C 248.585938 109.589844 243.542969 110.578125 238.144531 113.910156 C 233.105469 117.058594 231.394531 122.191406 231.394531 126.238281 C 231.394531 135.871094 238.324219 142.078125 247.144531 142.078125 C 253.894531 142.078125 257.765625 138.839844 259.65625 137.308594 L 259.65625 140.640625 L 260.195312 141.269531 C 266.675781 141 268.65625 140.910156 274.503906 141 L 274.953125 140.371094 C 274.324219 131.550781 274.324219 129.300781 274.324219 120.839844 L 274.414062 114.179688 M 259.566406 128.488281 C 257.675781 129.570312 255.246094 130.828125 252.273438 130.828125 C 249.035156 130.828125 246.335938 129.121094 246.335938 125.339844 C 246.335938 119.398438 253.445312 118.410156 259.566406 117.601562 Z M 310.148438 130.648438 C 308.617188 131.101562 307.535156 131.460938 306.007812 131.460938 C 301.417969 131.460938 301.058594 128.578125 300.875 127.230469 C 300.605469 124.890625 300.605469 119.941406 300.695312 116.339844 L 300.875 103.648438 L 308.976562 104.011719 L 309.515625 103.46875 L 310.417969 93.839844 L 309.875 93.300781 L 300.875 93.300781 L 301.148438 78.179688 L 300.515625 77.640625 C 294.398438 79.441406 292.777344 79.890625 286.386719 81.511719 L 286.027344 82.140625 L 286.117188 93.390625 L 281.257812 93.210938 L 280.71875 93.660156 L 279.90625 103.289062 L 280.445312 103.828125 L 286.117188 103.648438 L 285.847656 117.960938 C 285.757812 120.210938 285.667969 122.460938 285.667969 124.800781 C 285.667969 133.078125 285.847656 141.988281 299.886719 141.988281 C 303.398438 141.988281 306.1875 141.449219 309.335938 140.910156 L 309.96875 140.28125 L 310.867188 131.011719 Z M 360.007812 92.851562 L 345.335938 93.570312 L 344.707031 94.109375 C 345.335938 104.28125 345.335938 118.679688 345.335938 120.121094 C 345.335938 122.730469 345.335938 124.171875 345.246094 127.769531 C 342.816406 129.390625 340.925781 130.738281 338.496094 130.738281 C 332.015625 130.738281 332.015625 123.898438 332.015625 118.589844 C 332.015625 116.339844 332.015625 114 332.105469 111.75 L 332.285156 93.570312 L 331.65625 92.851562 L 316.804688 93.570312 L 316.175781 94.109375 C 316.714844 101.671875 316.804688 104.191406 316.804688 113.28125 L 316.804688 119.578125 C 316.714844 129.390625 317.167969 133.53125 320.40625 137.308594 C 323.375 140.640625 327.695312 142.078125 332.195312 142.078125 C 338.585938 142.078125 342.277344 139.199219 345.515625 136.679688 L 345.425781 140.730469 L 346.054688 141.269531 C 352.625 141 354.605469 141 360.457031 141 L 360.996094 140.460938 C 360.546875 134.070312 360.367188 130.648438 360.367188 118.949219 C 360.367188 110.488281 360.457031 102.03125 360.636719 93.570312 Z M 397.175781 107.609375 L 399.695312 92.941406 L 399.15625 92.308594 C 398.527344 92.308594 397.894531 92.21875 397.265625 92.21875 C 393.574219 92.21875 389.4375 94.289062 386.554688 100.949219 L 386.824219 92.671875 L 386.105469 91.949219 C 379.445312 93.390625 377.734375 93.660156 371.164062 94.648438 L 370.625 95.191406 C 371.164062 101.941406 371.4375 105.988281 371.4375 118.5 C 371.4375 125.878906 371.34375 133.261719 371.164062 140.730469 L 371.707031 141.269531 C 378.367188 141 379.804688 140.910156 387.003906 141 L 387.457031 140.371094 C 387.09375 133.078125 386.554688 122.910156 386.554688 116.699219 C 386.554688 112.648438 386.554688 106.710938 392.675781 106.710938 C 394.207031 106.710938 395.105469 107.25 396.367188 107.96875 Z M 444.964844 114.179688 C 445.054688 106.078125 445.054688 102.570312 442.714844 98.789062 C 440.914062 95.910156 437.316406 92.308594 425.796875 92.308594 C 418.054688 92.308594 413.285156 93.75 408.15625 95.28125 L 407.617188 96 L 407.164062 105.808594 L 407.886719 106.171875 C 411.035156 104.910156 416.886719 102.570312 422.914062 102.570312 C 426.246094 102.570312 427.59375 103.109375 428.765625 104.28125 C 429.664062 105.179688 429.9375 106.800781 429.9375 108.148438 C 419.136719 109.589844 414.09375 110.578125 408.695312 113.910156 C 403.65625 117.058594 401.945312 122.191406 401.945312 126.238281 C 401.945312 135.871094 408.875 142.078125 417.695312 142.078125 C 424.445312 142.078125 428.316406 138.839844 430.207031 137.308594 L 430.207031 140.640625 L 430.746094 141.269531 C 437.226562 141 439.207031 140.910156 445.054688 141 L 445.503906 140.371094 C 444.875 131.550781 444.875 129.300781 444.875 120.839844 L 444.964844 114.179688 M 430.117188 128.488281 C 428.226562 129.570312 425.796875 130.828125 422.824219 130.828125 C 419.585938 130.828125 416.886719 129.121094 416.886719 125.339844 C 416.886719 119.398438 423.996094 118.410156 430.117188 117.601562 Z M 471.332031 140.371094 C 470.882812 130.019531 470.433594 120.570312 470.433594 92.128906 C 470.433594 83.578125 470.523438 79.53125 470.882812 69.808594 L 470.253906 69.179688 L 454.863281 71.609375 L 454.503906 72.148438 C 455.402344 83.128906 455.492188 86.101562 455.671875 100.679688 C 455.765625 105.988281 455.765625 111.300781 455.765625 116.609375 C 455.765625 126.328125 455.582031 131.730469 455.222656 140.640625 L 455.765625 141.269531 C 461.792969 141 464.222656 140.910156 470.792969 141 Z M 524.796875 141 C 533.167969 141.179688 543.515625 141.359375 550.265625 136.679688 C 556.207031 132.449219 557.828125 126.511719 557.828125 121.46875 C 557.828125 115.710938 555.394531 110.398438 550.265625 107.878906 C 548.554688 106.980469 546.578125 106.621094 544.6875 106.261719 C 547.746094 105 551.347656 103.378906 553.6875 98.609375 C 554.675781 96.539062 555.125 94.378906 555.125 92.308594 C 555.125 89.429688 554.40625 85.46875 551.527344 82.230469 C 547.746094 78.179688 541.894531 77.101562 533.078125 77.101562 C 530.015625 77.101562 524.527344 77.191406 521.464844 77.28125 L 508.867188 77.460938 L 508.328125 78 C 508.6875 86.640625 508.777344 89.96875 508.777344 102.390625 C 508.777344 115.171875 508.6875 127.859375 508.507812 140.640625 L 509.136719 141 L 524.796875 141 M 524.167969 113.640625 C 531.007812 113.460938 534.964844 113.460938 537.578125 114.988281 C 540.1875 116.609375 541.175781 119.488281 541.175781 122.371094 C 541.175781 126.421875 538.925781 128.941406 535.597656 130.109375 C 532.894531 131.011719 528.035156 131.011719 524.167969 130.921875 L 524.167969 113.640625 M 524.167969 87.179688 C 526.054688 87.179688 528.578125 87.089844 530.105469 87.089844 C 534.964844 87.089844 539.375 88.800781 539.375 94.648438 C 539.375 99.421875 535.867188 101.398438 534.785156 101.941406 C 532.535156 102.929688 527.765625 102.929688 524.167969 102.929688 Z M 592.207031 107.609375 L 594.726562 92.941406 L 594.1875 92.308594 C 593.558594 92.308594 592.925781 92.21875 592.296875 92.21875 C 588.605469 92.21875 584.46875 94.289062 581.585938 100.949219 L 581.855469 92.671875 L 581.136719 91.949219 C 574.476562 93.390625 572.765625 93.660156 566.195312 94.648438 L 565.65625 95.191406 C 566.195312 101.941406 566.46875 105.988281 566.46875 118.5 C 566.46875 125.878906 566.375 133.261719 566.195312 140.730469 L 566.738281 141.269531 C 573.398438 141 574.835938 140.910156 582.035156 141 L 582.488281 140.371094 C 582.125 133.078125 581.585938 122.910156 581.585938 116.699219 C 581.585938 112.648438 581.585938 106.710938 587.707031 106.710938 C 589.238281 106.710938 590.136719 107.25 591.398438 107.96875 Z M 616.238281 140.371094 C 615.785156 133.441406 615.425781 128.128906 615.425781 115.710938 C 615.425781 108.058594 615.605469 100.320312 615.695312 92.671875 L 615.066406 91.949219 L 599.585938 94.648438 L 599.046875 95.191406 C 599.765625 102.03125 600.035156 105.179688 600.035156 117.960938 C 600.035156 127.769531 599.765625 133.261719 599.496094 140.640625 L 600.035156 141.269531 C 606.515625 141 608.316406 140.910156 615.605469 141 L 616.238281 140.371094 M 614.796875 83.308594 L 615.066406 71.070312 L 614.527344 70.53125 L 599.855469 72.328125 L 599.316406 72.960938 C 599.496094 76.199219 599.585938 78.089844 599.585938 80.25 C 599.585938 81.960938 599.585938 83.761719 599.496094 85.46875 L 600.125 86.011719 C 606.246094 84.929688 607.957031 84.75 614.347656 83.941406 Z M 670.324219 140.460938 C 669.964844 132.359375 669.695312 126.960938 669.695312 115.171875 C 669.695312 91.410156 670.054688 81.601562 670.414062 69.71875 L 669.785156 69.179688 L 654.933594 71.519531 L 654.484375 72.058594 C 655.023438 80.519531 655.113281 82.769531 655.023438 93.03125 C 648.273438 92.851562 639.8125 92.671875 632.972656 98.070312 C 626.675781 102.929688 624.0625 110.398438 624.0625 119.671875 C 624.0625 126.691406 625.953125 133.710938 631.265625 138.121094 C 635.222656 141.359375 640.085938 142.078125 643.054688 142.078125 C 649.445312 142.078125 652.773438 139.109375 654.933594 137.21875 L 654.753906 140.730469 L 655.203125 141.269531 C 661.414062 141 663.125 141 669.875 141 L 670.324219 140.460938 M 655.023438 103.828125 C 655.113281 115.800781 655.023438 118.140625 654.753906 129.03125 C 652.953125 130.109375 651.152344 131.191406 648.632812 131.191406 C 639.902344 131.191406 639.902344 120.03125 639.902344 118.230469 C 639.902344 111.300781 641.882812 103.558594 651.964844 103.558594 C 652.953125 103.558594 653.765625 103.648438 655.023438 103.828125 Z M 697.144531 125.789062 C 700.023438 125.878906 702.902344 126.058594 707.222656 124.621094 C 711.902344 123 718.742188 119.128906 718.742188 110.398438 C 718.742188 106.078125 717.484375 104.28125 716.3125 102.570312 L 722.523438 102.929688 L 723.0625 102.480469 L 723.695312 93.480469 L 723.152344 93.03125 C 716.222656 93.300781 714.332031 93.390625 708.664062 93.300781 L 704.523438 93.210938 C 698.132812 93.03125 689.582031 92.851562 683.734375 97.710938 C 681.753906 99.238281 677.972656 103.109375 677.972656 109.859375 C 677.972656 113.460938 678.964844 116.339844 680.582031 118.589844 C 682.5625 121.378906 684.363281 122.371094 686.613281 123.628906 C 684.09375 128.488281 682.742188 130.921875 680.671875 134.609375 L 680.671875 135.421875 L 684.453125 138.121094 C 681.753906 140.191406 677.523438 143.609375 677.523438 149.460938 C 677.523438 153.601562 679.773438 157.199219 683.105469 159.628906 C 688.144531 163.230469 694.984375 163.410156 698.492188 163.410156 C 714.964844 163.410156 722.523438 155.128906 722.523438 146.398438 C 722.523438 135.058594 712.625 132.898438 706.773438 131.550781 L 704.613281 131.191406 C 700.203125 130.46875 699.214844 130.199219 695.703125 128.941406 L 697.144531 125.789062 M 704.523438 109.589844 C 704.433594 116.878906 700.023438 117.511719 698.761719 117.511719 C 698.042969 117.511719 694.894531 117.328125 693.363281 113.730469 C 692.554688 111.839844 692.554688 109.679688 692.554688 109.050781 C 692.554688 104.550781 695.253906 101.671875 698.582031 101.671875 C 702.722656 101.671875 704.613281 105.628906 704.523438 109.589844 M 696.875 143.160156 C 704.882812 145.230469 704.972656 145.230469 706.054688 146.128906 C 706.953125 146.761719 707.855469 147.75 707.855469 149.640625 C 707.855469 152.339844 705.605469 155.128906 699.664062 155.128906 C 693.003906 155.128906 690.753906 151.351562 690.753906 148.199219 C 690.753906 145.230469 692.285156 143.519531 693.363281 142.261719 Z M 769.324219 127.679688 C 765.90625 129.480469 761.855469 131.550781 755.285156 131.550781 C 749.886719 131.550781 746.195312 129.839844 744.035156 126.601562 C 742.683594 124.710938 742.414062 122.910156 742.054688 121.109375 L 771.125 120.570312 L 771.664062 119.941406 C 771.574219 115.53125 771.484375 111.03125 770.226562 106.53125 C 767.074219 95.910156 760.144531 93.75 757.085938 93.03125 C 754.835938 92.398438 752.765625 92.21875 750.695312 92.21875 C 736.566406 92.21875 727.203125 101.488281 727.203125 117.058594 C 727.203125 121.289062 727.925781 125.699219 729.363281 128.851562 C 734.585938 141 746.824219 142.078125 753.304688 142.078125 C 760.773438 142.078125 764.015625 140.730469 768.785156 138.839844 L 769.324219 138.121094 L 769.953125 127.949219 L 769.324219 127.679688 M 742.054688 111.570312 C 742.324219 108.78125 742.953125 105 746.375 102.839844 C 747.453125 102.121094 748.714844 101.851562 749.976562 101.851562 C 752.945312 101.851562 754.746094 103.378906 755.734375 105 C 756.996094 106.980469 757.085938 109.140625 757.085938 111.210938 Z M 798.847656 109.949219 C 795.785156 108.871094 793.355469 107.878906 793.355469 105.359375 C 793.355469 104.28125 794.078125 101.308594 799.65625 101.308594 C 805.148438 101.308594 808.65625 103.648438 810.90625 105.089844 L 811.71875 104.820312 L 812.617188 95.011719 L 812.167969 94.46875 C 807.9375 93.300781 804.246094 92.21875 798.398438 92.21875 C 793.988281 92.21875 785.167969 92.578125 780.488281 99.328125 C 779.316406 100.949219 778.058594 103.648438 778.058594 107.25 C 778.058594 116.878906 785.527344 119.761719 789.757812 121.378906 L 793.175781 122.640625 C 795.605469 123.449219 799.566406 124.800781 799.566406 128.039062 C 799.566406 130.289062 797.496094 132.71875 792.457031 132.71875 C 789.9375 132.71875 786.246094 131.910156 782.917969 130.199219 C 781.386719 129.390625 780.667969 128.761719 779.316406 127.679688 L 778.507812 128.039062 C 778.328125 132.71875 778.238281 133.710938 777.875 138.210938 L 778.328125 139.019531 C 782.738281 140.640625 786.515625 142.078125 793.085938 142.078125 C 799.925781 142.078125 813.425781 140.820312 815.046875 127.949219 C 815.136719 127.230469 815.136719 126.601562 815.136719 125.96875 C 815.136719 116.070312 808.207031 113.460938 803.257812 111.570312 Z M 817.65625 141 "/>
<path fill-rule="nonzero" fill="rgb(34.901961%, 14.901961%, 14.901961%)" fill-opacity="1" d="M 273.109375 222.300781 C 265.550781 219.148438 261.589844 217.53125 261.589844 213.480469 C 261.589844 210.691406 264.199219 207.179688 270.140625 207.179688 C 276.980469 207.179688 281.027344 209.96875 284.359375 212.21875 L 285.167969 211.859375 L 285.890625 200.070312 L 285.4375 199.441406 C 281.570312 197.820312 277.519531 196.109375 268.789062 196.109375 C 251.871094 196.109375 246.019531 205.648438 246.019531 215.28125 C 246.019531 226.171875 254.480469 230.128906 259.519531 232.558594 L 262.488281 233.910156 C 268.699219 236.519531 273.46875 238.769531 273.46875 243.539062 C 273.46875 246.960938 270.5 251.011719 262.667969 251.011719 C 254.480469 251.011719 249.890625 247.410156 247.277344 245.339844 L 246.378906 245.609375 L 245.75 258.300781 L 246.289062 259.019531 C 247.277344 259.378906 248.269531 259.828125 249.257812 260.101562 C 251.328125 260.820312 256.640625 262.351562 263.390625 262.351562 C 266.089844 262.351562 272.929688 262.078125 278.328125 259.558594 C 285.890625 255.871094 289.128906 249.03125 289.128906 241.378906 C 289.128906 236.25 287.148438 230.761719 282.378906 227.070312 C 279.949219 225.269531 277.609375 224.191406 275.449219 223.199219 Z M 322.878906 250.648438 C 321.347656 251.101562 320.265625 251.460938 318.738281 251.460938 C 314.148438 251.460938 313.789062 248.578125 313.605469 247.230469 C 313.335938 244.890625 313.335938 239.941406 313.425781 236.339844 L 313.605469 223.648438 L 321.707031 224.011719 L 322.246094 223.46875 L 323.148438 213.839844 L 322.605469 213.300781 L 313.605469 213.300781 L 313.878906 198.179688 L 313.246094 197.640625 C 307.128906 199.441406 305.507812 199.890625 299.117188 201.511719 L 298.757812 202.140625 L 298.847656 213.390625 L 293.988281 213.210938 L 293.449219 213.660156 L 292.636719 223.289062 L 293.175781 223.828125 L 298.847656 223.648438 L 298.578125 237.960938 C 298.488281 240.210938 298.398438 242.460938 298.398438 244.800781 C 298.398438 253.078125 298.578125 261.988281 312.617188 261.988281 C 316.128906 261.988281 318.917969 261.449219 322.066406 260.910156 L 322.699219 260.28125 L 323.597656 251.011719 Z M 369.589844 234.179688 C 369.679688 226.078125 369.679688 222.570312 367.339844 218.789062 C 365.539062 215.910156 361.941406 212.308594 350.421875 212.308594 C 342.679688 212.308594 337.910156 213.75 332.78125 215.28125 L 332.242188 216 L 331.789062 225.808594 L 332.511719 226.171875 C 335.660156 224.910156 341.511719 222.570312 347.539062 222.570312 C 350.871094 222.570312 352.21875 223.109375 353.390625 224.28125 C 354.289062 225.179688 354.5625 226.800781 354.5625 228.148438 C 343.761719 229.589844 338.71875 230.578125 333.320312 233.910156 C 328.28125 237.058594 326.570312 242.191406 326.570312 246.238281 C 326.570312 255.871094 333.5 262.078125 342.320312 262.078125 C 349.070312 262.078125 352.941406 258.839844 354.832031 257.308594 L 354.832031 260.640625 L 355.371094 261.269531 C 361.851562 261 363.832031 260.910156 369.679688 261 L 370.128906 260.371094 C 369.5 251.550781 369.5 249.300781 369.5 240.839844 L 369.589844 234.179688 M 354.742188 248.488281 C 352.851562 249.570312 350.421875 250.828125 347.449219 250.828125 C 344.210938 250.828125 341.511719 249.121094 341.511719 245.339844 C 341.511719 239.398438 348.621094 238.410156 354.742188 237.601562 Z M 405.320312 250.648438 C 403.789062 251.101562 402.707031 251.460938 401.179688 251.460938 C 396.589844 251.460938 396.230469 248.578125 396.046875 247.230469 C 395.777344 244.890625 395.777344 239.941406 395.867188 236.339844 L 396.046875 223.648438 L 404.148438 224.011719 L 404.6875 223.46875 L 405.589844 213.839844 L 405.046875 213.300781 L 396.046875 213.300781 L 396.320312 198.179688 L 395.6875 197.640625 C 389.570312 199.441406 387.949219 199.890625 381.558594 201.511719 L 381.199219 202.140625 L 381.289062 213.390625 L 376.429688 213.210938 L 375.890625 213.660156 L 375.078125 223.289062 L 375.617188 223.828125 L 381.289062 223.648438 L 381.019531 237.960938 C 380.929688 240.210938 380.839844 242.460938 380.839844 244.800781 C 380.839844 253.078125 381.019531 261.988281 395.058594 261.988281 C 398.570312 261.988281 401.359375 261.449219 404.507812 260.910156 L 405.140625 260.28125 L 406.039062 251.011719 Z M 451.9375 247.679688 C 448.519531 249.480469 444.46875 251.550781 437.898438 251.550781 C 432.5 251.550781 428.808594 249.839844 426.648438 246.601562 C 425.296875 244.710938 425.027344 242.910156 424.667969 241.109375 L 453.738281 240.570312 L 454.277344 239.941406 C 454.1875 235.53125 454.097656 231.03125 452.839844 226.53125 C 449.6875 215.910156 442.757812 213.75 439.699219 213.03125 C 437.449219 212.398438 435.378906 212.21875 433.308594 212.21875 C 419.179688 212.21875 409.816406 221.488281 409.816406 237.058594 C 409.816406 241.289062 410.539062 245.699219 411.976562 248.851562 C 417.199219 261 429.4375 262.078125 435.917969 262.078125 C 443.386719 262.078125 446.628906 260.730469 451.398438 258.839844 L 451.9375 258.121094 L 452.566406 247.949219 L 451.9375 247.679688 M 424.667969 231.570312 C 424.9375 228.78125 425.566406 225 428.988281 222.839844 C 430.066406 222.121094 431.328125 221.851562 432.589844 221.851562 C 435.558594 221.851562 437.359375 223.378906 438.347656 225 C 439.609375 226.980469 439.699219 229.140625 439.699219 231.210938 Z M 505.578125 261 C 513.949219 261.179688 524.296875 261.359375 531.046875 256.679688 C 536.988281 252.449219 538.609375 246.511719 538.609375 241.46875 C 538.609375 235.710938 536.175781 230.398438 531.046875 227.878906 C 529.335938 226.980469 527.359375 226.621094 525.46875 226.261719 C 528.527344 225 532.128906 223.378906 534.46875 218.609375 C 535.457031 216.539062 535.90625 214.378906 535.90625 212.308594 C 535.90625 209.429688 535.1875 205.46875 532.308594 202.230469 C 528.527344 198.179688 522.675781 197.101562 513.859375 197.101562 C 510.796875 197.101562 505.308594 197.191406 502.246094 197.28125 L 489.648438 197.460938 L 489.109375 198 C 489.46875 206.640625 489.558594 209.96875 489.558594 222.390625 C 489.558594 235.171875 489.46875 247.859375 489.289062 260.640625 L 489.917969 261 L 505.578125 261 M 504.949219 233.640625 C 511.789062 233.460938 515.746094 233.460938 518.359375 234.988281 C 520.96875 236.609375 521.957031 239.488281 521.957031 242.371094 C 521.957031 246.421875 519.707031 248.941406 516.378906 250.109375 C 513.675781 251.011719 508.816406 251.011719 504.949219 250.921875 L 504.949219 233.640625 M 504.949219 207.179688 C 506.835938 207.179688 509.359375 207.089844 510.886719 207.089844 C 515.746094 207.089844 520.15625 208.800781 520.15625 214.648438 C 520.15625 219.421875 516.648438 221.398438 515.566406 221.941406 C 513.316406 222.929688 508.546875 222.929688 504.949219 222.929688 Z M 586.9375 247.679688 C 583.519531 249.480469 579.46875 251.550781 572.898438 251.550781 C 567.5 251.550781 563.808594 249.839844 561.648438 246.601562 C 560.296875 244.710938 560.027344 242.910156 559.667969 241.109375 L 588.738281 240.570312 L 589.277344 239.941406 C 589.1875 235.53125 589.097656 231.03125 587.839844 226.53125 C 584.6875 215.910156 577.757812 213.75 574.699219 213.03125 C 572.449219 212.398438 570.378906 212.21875 568.308594 212.21875 C 554.179688 212.21875 544.816406 221.488281 544.816406 237.058594 C 544.816406 241.289062 545.539062 245.699219 546.976562 248.851562 C 552.199219 261 564.4375 262.078125 570.917969 262.078125 C 578.386719 262.078125 581.628906 260.730469 586.398438 258.839844 L 586.9375 258.121094 L 587.566406 247.949219 L 586.9375 247.679688 M 559.667969 231.570312 C 559.9375 228.78125 560.566406 225 563.988281 222.839844 C 565.066406 222.121094 566.328125 221.851562 567.589844 221.851562 C 570.558594 221.851562 572.359375 223.378906 573.347656 225 C 574.609375 226.980469 574.699219 229.140625 574.699219 231.210938 Z M 637.609375 234.179688 C 637.699219 226.078125 637.699219 222.570312 635.359375 218.789062 C 633.558594 215.910156 629.960938 212.308594 618.441406 212.308594 C 610.699219 212.308594 605.929688 213.75 600.800781 215.28125 L 600.261719 216 L 599.808594 225.808594 L 600.53125 226.171875 C 603.679688 224.910156 609.53125 222.570312 615.558594 222.570312 C 618.890625 222.570312 620.238281 223.109375 621.410156 224.28125 C 622.308594 225.179688 622.582031 226.800781 622.582031 228.148438 C 611.78125 229.589844 606.738281 230.578125 601.339844 233.910156 C 596.300781 237.058594 594.589844 242.191406 594.589844 246.238281 C 594.589844 255.871094 601.519531 262.078125 610.339844 262.078125 C 617.089844 262.078125 620.960938 258.839844 622.851562 257.308594 L 622.851562 260.640625 L 623.390625 261.269531 C 629.871094 261 631.851562 260.910156 637.699219 261 L 638.148438 260.371094 C 637.519531 251.550781 637.519531 249.300781 637.519531 240.839844 L 637.609375 234.179688 M 622.761719 248.488281 C 620.871094 249.570312 618.441406 250.828125 615.46875 250.828125 C 612.230469 250.828125 609.53125 249.121094 609.53125 245.339844 C 609.53125 239.398438 616.640625 238.410156 622.761719 237.601562 Z M 683.328125 248.039062 C 680.898438 249.480469 678.558594 250.921875 673.96875 250.921875 C 663.796875 250.921875 661.726562 242.460938 661.726562 237.058594 C 661.726562 230.488281 664.609375 222.929688 673.339844 222.929688 C 677.296875 222.929688 679.457031 224.371094 682.160156 226.171875 L 683.058594 225.898438 C 683.417969 221.128906 683.507812 219.871094 684.226562 215.101562 L 683.777344 214.558594 C 679.816406 213.300781 676.398438 212.21875 671.179688 212.21875 C 650.027344 212.21875 645.886719 228.238281 645.886719 237.421875 C 645.886719 247.769531 651.289062 261.808594 671.539062 261.808594 C 676.308594 261.808594 679.367188 260.910156 683.148438 259.828125 L 683.6875 259.289062 L 684.046875 248.488281 Z M 735.347656 260.371094 C 734.988281 252.988281 734.898438 250.46875 734.71875 241.109375 L 734.71875 234.359375 C 734.628906 225.808594 734.539062 220.859375 731.925781 217.078125 C 729.316406 213.390625 725.539062 212.21875 721.578125 212.21875 C 715.007812 212.21875 709.878906 215.371094 706.277344 217.53125 L 706.546875 189.808594 L 706.007812 189.179688 L 690.617188 191.609375 L 690.167969 192.148438 C 690.976562 200.878906 691.15625 204.121094 691.335938 215.730469 C 691.519531 223.019531 691.609375 230.308594 691.609375 237.601562 C 691.609375 246.511719 691.425781 251.820312 691.246094 260.640625 L 691.699219 261.269531 C 698.359375 260.910156 699.707031 260.910156 706.996094 260.910156 L 707.539062 260.371094 C 706.90625 246.871094 706.816406 242.820312 706.726562 226.890625 C 708.4375 225.71875 710.597656 224.191406 713.65625 224.191406 C 718.609375 224.191406 718.96875 229.320312 719.328125 232.921875 C 719.507812 235.710938 719.597656 248.488281 719.597656 251.820312 C 719.597656 254.789062 719.507812 257.671875 719.507812 260.640625 L 719.957031 261.269531 C 726.4375 260.910156 727.878906 260.910156 734.808594 260.910156 Z M 740.210938 261 "/>
</svg>
