<?xml version="1.0" encoding="UTF-8"?>
<svg xmlns="http://www.w3.org/2000/svg" xmlns:xlink="http://www.w3.org/1999/xlink" width="975" height="1300" viewBox="0 0 975 1300">
<path fill-rule="nonzero" fill="rgb(98.823529%, 78.823529%, 9.019608%)" fill-opacity="1" d="M 50 50 L 925 50 L 925 170 L 50 170 Z M 50 50 "/>
<path fill-rule="nonzero" fill="rgb(34.901961%, 14.901961%, 14.901961%)" fill-opacity="1" d="M 117.546875 102.300781 C 109.988281 99.148438 106.027344 97.53125 106.027344 93.480469 C 106.027344 90.691406 108.636719 87.179688 114.578125 87.179688 C 121.417969 87.179688 125.464844 89.96875 128.796875 92.21875 L 129.605469 91.859375 L 130.328125 80.070312 L 129.875 79.441406 C 126.007812 77.820312 121.957031 76.109375 113.226562 76.109375 C 96.308594 76.109375 90.457031 85.648438 90.457031 95.28125 C 90.457031 106.171875 98.917969 110.128906 103.957031 112.558594 L 106.925781 113.910156 C 113.136719 116.519531 117.90625 118.769531 117.90625 123.539062 C 117.90625 126.960938 114.9375 131.011719 107.105469 131.011719 C 98.917969 131.011719 94.328125 127.410156 91.714844 125.339844 L 90.816406 125.609375 L 90.1875 138.300781 L 90.726562 139.019531 C 91.714844 139.378906 92.707031 139.828125 93.695312 140.101562 C 95.765625 140.820312 101.078125 142.351562 107.828125 142.351562 C 110.527344 142.351562 117.367188 142.078125 122.765625 139.558594 C 130.328125 135.871094 133.566406 129.03125 133.566406 121.378906 C 133.566406 116.25 131.585938 110.761719 126.816406 107.070312 C 124.386719 105.269531 122.046875 104.191406 119.886719 103.199219 Z M 185.316406 92.851562 L 170.644531 93.570312 L 170.015625 94.109375 C 170.644531 104.28125 170.644531 118.679688 170.644531 120.121094 C 170.644531 122.730469 170.644531 124.171875 170.554688 127.769531 C 168.125 129.390625 166.234375 130.738281 163.804688 130.738281 C 157.324219 130.738281 157.324219 123.898438 157.324219 118.589844 C 157.324219 116.339844 157.324219 114 157.414062 111.75 L 157.59375 93.570312 L 156.964844 92.851562 L 142.113281 93.570312 L 141.484375 94.109375 C 142.023438 101.671875 142.113281 104.191406 142.113281 113.28125 L 142.113281 119.578125 C 142.023438 129.390625 142.476562 133.53125 145.714844 137.308594 C 148.683594 140.640625 153.003906 142.078125 157.503906 142.078125 C 163.894531 142.078125 167.585938 139.199219 170.824219 136.679688 L 170.734375 140.730469 L 171.363281 141.269531 C 177.933594 141 179.914062 141 185.765625 141 L 186.304688 140.460938 C 185.855469 134.070312 185.675781 130.648438 185.675781 118.949219 C 185.675781 110.488281 185.765625 102.03125 185.945312 93.570312 Z M 240.578125 140.371094 C 240.128906 132.449219 240.128906 129.929688 239.949219 121.109375 L 239.949219 114.089844 C 239.859375 105.449219 239.769531 101.308594 237.519531 97.621094 C 234.726562 92.941406 229.597656 92.21875 226.359375 92.21875 C 220.867188 92.21875 216.097656 95.101562 211.957031 97.53125 L 212.136719 92.578125 L 211.238281 91.949219 C 204.308594 93.390625 202.777344 93.660156 196.027344 94.558594 L 195.488281 95.191406 C 196.207031 103.019531 196.75 108.691406 196.75 123.359375 C 196.75 129.121094 196.65625 134.878906 196.566406 140.640625 L 197.109375 141.179688 C 203.589844 140.910156 204.9375 140.910156 212.136719 140.910156 L 212.679688 140.371094 C 212.136719 126.511719 212.046875 123 211.957031 106.890625 C 213.847656 105.628906 216.007812 104.101562 218.886719 104.101562 C 223.839844 104.101562 224.289062 109.410156 224.558594 112.648438 C 224.738281 115.621094 224.828125 127.949219 224.828125 131.371094 C 224.828125 134.429688 224.738281 137.578125 224.738281 140.640625 L 225.277344 141.179688 C 231.21875 141 232.75 140.910156 239.949219 140.910156 Z M 269.738281 109.949219 C 266.675781 108.871094 264.246094 107.878906 264.246094 105.359375 C 264.246094 104.28125 264.96875 101.308594 270.546875 101.308594 C 276.039062 101.308594 279.546875 103.648438 281.796875 105.089844 L 282.609375 104.820312 L 283.507812 95.011719 L 283.058594 94.46875 C 278.828125 93.300781 275.136719 92.21875 269.289062 92.21875 C 264.878906 92.21875 256.058594 92.578125 251.378906 99.328125 C 250.207031 100.949219 248.949219 103.648438 248.949219 107.25 C 248.949219 116.878906 256.417969 119.761719 260.648438 121.378906 L 264.066406 122.640625 C 266.496094 123.449219 270.457031 124.800781 270.457031 128.039062 C 270.457031 130.289062 268.386719 132.71875 263.347656 132.71875 C 260.828125 132.71875 257.136719 131.910156 253.808594 130.199219 C 252.277344 129.390625 251.558594 128.761719 250.207031 127.679688 L 249.398438 128.039062 C 249.21875 132.71875 249.128906 133.710938 248.765625 138.210938 L 249.21875 139.019531 C 253.628906 140.640625 257.40625 142.078125 263.976562 142.078125 C 270.816406 142.078125 284.316406 140.820312 285.9375 127.949219 C 286.027344 127.230469 286.027344 126.601562 286.027344 125.96875 C 286.027344 116.070312 279.097656 113.460938 274.148438 111.570312 Z M 333.90625 127.679688 C 330.488281 129.480469 326.4375 131.550781 319.867188 131.550781 C 314.46875 131.550781 310.777344 129.839844 308.617188 126.601562 C 307.265625 124.710938 306.996094 122.910156 306.636719 121.109375 L 335.707031 120.570312 L 336.246094 119.941406 C 336.15625 115.53125 336.066406 111.03125 334.808594 106.53125 C 331.65625 95.910156 324.726562 93.75 321.667969 93.03125 C 319.417969 92.398438 317.347656 92.21875 315.277344 92.21875 C 301.148438 92.21875 291.785156 101.488281 291.785156 117.058594 C 291.785156 121.289062 292.507812 125.699219 293.945312 128.851562 C 299.167969 141 311.40625 142.078125 317.886719 142.078125 C 325.355469 142.078125 328.597656 140.730469 333.367188 138.839844 L 333.90625 138.121094 L 334.535156 127.949219 L 333.90625 127.679688 M 306.636719 111.570312 C 306.90625 108.78125 307.535156 105 310.957031 102.839844 C 312.035156 102.121094 313.296875 101.851562 314.558594 101.851562 C 317.527344 101.851562 319.328125 103.378906 320.316406 105 C 321.578125 106.980469 321.667969 109.140625 321.667969 111.210938 Z M 369.726562 130.648438 C 368.195312 131.101562 367.113281 131.460938 365.585938 131.460938 C 360.996094 131.460938 360.636719 128.578125 360.453125 127.230469 C 360.183594 124.890625 360.183594 119.941406 360.273438 116.339844 L 360.453125 103.648438 L 368.554688 104.011719 L 369.09375 103.46875 L 369.996094 93.839844 L 369.453125 93.300781 L 360.453125 93.300781 L 360.726562 78.179688 L 360.09375 77.640625 C 353.976562 79.441406 352.355469 79.890625 345.964844 81.511719 L 345.605469 82.140625 L 345.695312 93.390625 L 340.835938 93.210938 L 340.296875 93.660156 L 339.484375 103.289062 L 340.023438 103.828125 L 345.695312 103.648438 L 345.425781 117.960938 C 345.335938 120.210938 345.246094 122.460938 345.246094 124.800781 C 345.246094 133.078125 345.425781 141.988281 359.464844 141.988281 C 362.976562 141.988281 365.765625 141.449219 368.914062 140.910156 L 369.546875 140.28125 L 370.445312 131.011719 Z M 428.675781 102.300781 C 421.117188 99.148438 417.15625 97.53125 417.15625 93.480469 C 417.15625 90.691406 419.765625 87.179688 425.707031 87.179688 C 432.546875 87.179688 436.59375 89.96875 439.925781 92.21875 L 440.734375 91.859375 L 441.457031 80.070312 L 441.003906 79.441406 C 437.136719 77.820312 433.085938 76.109375 424.355469 76.109375 C 407.4375 76.109375 401.585938 85.648438 401.585938 95.28125 C 401.585938 106.171875 410.046875 110.128906 415.085938 112.558594 L 418.054688 113.910156 C 424.265625 116.519531 429.035156 118.769531 429.035156 123.539062 C 429.035156 126.960938 426.066406 131.011719 418.234375 131.011719 C 410.046875 131.011719 405.457031 127.410156 402.84375 125.339844 L 401.945312 125.609375 L 401.316406 138.300781 L 401.855469 139.019531 C 402.84375 139.378906 403.835938 139.828125 404.824219 140.101562 C 406.894531 140.820312 412.207031 142.351562 418.957031 142.351562 C 421.65625 142.351562 428.496094 142.078125 433.894531 139.558594 C 441.457031 135.871094 444.695312 129.03125 444.695312 121.378906 C 444.695312 116.25 442.714844 110.761719 437.945312 107.070312 C 435.515625 105.269531 433.175781 104.191406 431.015625 103.199219 Z M 478.449219 130.648438 C 476.917969 131.101562 475.835938 131.460938 474.308594 131.460938 C 469.71875 131.460938 469.359375 128.578125 469.175781 127.230469 C 468.90625 124.890625 468.90625 119.941406 468.996094 116.339844 L 469.175781 103.648438 L 477.277344 104.011719 L 477.816406 103.46875 L 478.71875 93.839844 L 478.175781 93.300781 L 469.175781 93.300781 L 469.449219 78.179688 L 468.816406 77.640625 C 462.699219 79.441406 461.078125 79.890625 454.6875 81.511719 L 454.328125 82.140625 L 454.417969 93.390625 L 449.558594 93.210938 L 449.019531 93.660156 L 448.207031 103.289062 L 448.746094 103.828125 L 454.417969 103.648438 L 454.148438 117.960938 C 454.058594 120.210938 453.96875 122.460938 453.96875 124.800781 C 453.96875 133.078125 454.148438 141.988281 468.1875 141.988281 C 471.699219 141.988281 474.488281 141.449219 477.636719 140.910156 L 478.269531 140.28125 L 479.167969 131.011719 Z M 525.15625 114.179688 C 525.246094 106.078125 525.246094 102.570312 522.90625 98.789062 C 521.105469 95.910156 517.507812 92.308594 505.988281 92.308594 C 498.246094 92.308594 493.476562 93.75 488.347656 95.28125 L 487.808594 96 L 487.355469 105.808594 L 488.078125 106.171875 C 491.226562 104.910156 497.078125 102.570312 503.105469 102.570312 C 506.4375 102.570312 507.785156 103.109375 508.957031 104.28125 C 509.855469 105.179688 510.128906 106.800781 510.128906 108.148438 C 499.328125 109.589844 494.285156 110.578125 488.886719 113.910156 C 483.847656 117.058594 482.136719 122.191406 482.136719 126.238281 C 482.136719 135.871094 489.066406 142.078125 497.886719 142.078125 C 504.636719 142.078125 508.507812 138.839844 510.398438 137.308594 L 510.398438 140.640625 L 510.9375 141.269531 C 517.417969 141 519.398438 140.910156 525.246094 141 L 525.695312 140.371094 C 525.066406 131.550781 525.066406 129.300781 525.066406 120.839844 L 525.15625 114.179688 M 510.308594 128.488281 C 508.417969 129.570312 505.988281 130.828125 503.015625 130.828125 C 499.777344 130.828125 497.078125 129.121094 497.078125 125.339844 C 497.078125 119.398438 504.1875 118.410156 510.308594 117.601562 Z M 560.886719 130.648438 C 559.355469 131.101562 558.273438 131.460938 556.746094 131.460938 C 552.15625 131.460938 551.796875 128.578125 551.613281 127.230469 C 551.34375 124.890625 551.34375 119.941406 551.433594 116.339844 L 551.613281 103.648438 L 559.714844 104.011719 L 560.253906 103.46875 L 561.15625 93.839844 L 560.613281 93.300781 L 551.613281 93.300781 L 551.886719 78.179688 L 551.253906 77.640625 C 545.136719 79.441406 543.515625 79.890625 537.125 81.511719 L 536.765625 82.140625 L 536.855469 93.390625 L 531.996094 93.210938 L 531.457031 93.660156 L 530.644531 103.289062 L 531.183594 103.828125 L 536.855469 103.648438 L 536.585938 117.960938 C 536.496094 120.210938 536.40625 122.460938 536.40625 124.800781 C 536.40625 133.078125 536.585938 141.988281 550.625 141.988281 C 554.136719 141.988281 556.925781 141.449219 560.074219 140.910156 L 560.707031 140.28125 L 561.605469 131.011719 Z M 607.507812 127.679688 C 604.089844 129.480469 600.039062 131.550781 593.46875 131.550781 C 588.070312 131.550781 584.378906 129.839844 582.21875 126.601562 C 580.867188 124.710938 580.597656 122.910156 580.238281 121.109375 L 609.308594 120.570312 L 609.847656 119.941406 C 609.757812 115.53125 609.667969 111.03125 608.410156 106.53125 C 605.257812 95.910156 598.328125 93.75 595.269531 93.03125 C 593.019531 92.398438 590.949219 92.21875 588.878906 92.21875 C 574.75 92.21875 565.386719 101.488281 565.386719 117.058594 C 565.386719 121.289062 566.109375 125.699219 567.546875 128.851562 C 572.769531 141 585.007812 142.078125 591.488281 142.078125 C 598.957031 142.078125 602.199219 140.730469 606.96875 138.839844 L 607.507812 138.121094 L 608.136719 127.949219 L 607.507812 127.679688 M 580.238281 111.570312 C 580.507812 108.78125 581.136719 105 584.558594 102.839844 C 585.636719 102.121094 586.898438 101.851562 588.160156 101.851562 C 591.128906 101.851562 592.929688 103.378906 593.917969 105 C 595.179688 106.980469 595.269531 109.140625 595.269531 111.210938 Z M 661.148438 141 C 669.519531 141.179688 679.867188 141.359375 686.617188 136.679688 C 692.558594 132.449219 694.179688 126.511719 694.179688 121.46875 C 694.179688 115.710938 691.746094 110.398438 686.617188 107.878906 C 684.90625 106.980469 682.929688 106.621094 681.039062 106.261719 C 684.097656 105 687.699219 103.378906 690.039062 98.609375 C 691.027344 96.539062 691.476562 94.378906 691.476562 92.308594 C 691.476562 89.429688 690.757812 85.46875 687.878906 82.230469 C 684.097656 78.179688 678.246094 77.101562 669.429688 77.101562 C 666.367188 77.101562 660.878906 77.191406 657.816406 77.28125 L 645.21875 77.460938 L 644.679688 78 C 645.039062 86.640625 645.128906 89.96875 645.128906 102.390625 C 645.128906 115.171875 645.039062 127.859375 644.859375 140.640625 L 645.488281 141 L 661.148438 141 M 660.519531 113.640625 C 667.359375 113.460938 671.316406 113.460938 673.929688 114.988281 C 676.539062 116.609375 677.527344 119.488281 677.527344 122.371094 C 677.527344 126.421875 675.277344 128.941406 671.949219 130.109375 C 669.246094 131.011719 664.386719 131.011719 660.519531 130.921875 L 660.519531 113.640625 M 660.519531 87.179688 C 662.40625 87.179688 664.929688 87.089844 666.457031 87.089844 C 671.316406 87.089844 675.726562 88.800781 675.726562 94.648438 C 675.726562 99.421875 672.21875 101.398438 671.136719 101.941406 C 668.886719 102.929688 664.117188 102.929688 660.519531 102.929688 Z M 742.507812 127.679688 C 739.089844 129.480469 735.039062 131.550781 728.46875 131.550781 C 723.070312 131.550781 719.378906 129.839844 717.21875 126.601562 C 715.867188 124.710938 715.597656 122.910156 715.238281 121.109375 L 744.308594 120.570312 L 744.847656 119.941406 C 744.757812 115.53125 744.667969 111.03125 743.410156 106.53125 C 740.257812 95.910156 733.328125 93.75 730.269531 93.03125 C 728.019531 92.398438 725.949219 92.21875 723.878906 92.21875 C 709.75 92.21875 700.386719 101.488281 700.386719 117.058594 C 700.386719 121.289062 701.109375 125.699219 702.546875 128.851562 C 707.769531 141 720.007812 142.078125 726.488281 142.078125 C 733.957031 142.078125 737.199219 140.730469 741.96875 138.839844 L 742.507812 138.121094 L 743.136719 127.949219 L 742.507812 127.679688 M 715.238281 111.570312 C 715.507812 108.78125 716.136719 105 719.558594 102.839844 C 720.636719 102.121094 721.898438 101.851562 723.160156 101.851562 C 726.128906 101.851562 727.929688 103.378906 728.917969 105 C 730.179688 106.980469 730.269531 109.140625 730.269531 111.210938 Z M 793.175781 114.179688 C 793.265625 106.078125 793.265625 102.570312 790.925781 98.789062 C 789.125 95.910156 785.527344 92.308594 774.007812 92.308594 C 766.265625 92.308594 761.496094 93.75 756.367188 95.28125 L 755.828125 96 L 755.375 105.808594 L 756.097656 106.171875 C 759.246094 104.910156 765.097656 102.570312 771.125 102.570312 C 774.457031 102.570312 775.804688 103.109375 776.976562 104.28125 C 777.875 105.179688 778.148438 106.800781 778.148438 108.148438 C 767.347656 109.589844 762.304688 110.578125 756.90625 113.910156 C 751.867188 117.058594 750.15625 122.191406 750.15625 126.238281 C 750.15625 135.871094 757.085938 142.078125 765.90625 142.078125 C 772.65625 142.078125 776.527344 138.839844 778.417969 137.308594 L 778.417969 140.640625 L 778.957031 141.269531 C 785.4375 141 787.417969 140.910156 793.265625 141 L 793.714844 140.371094 C 793.085938 131.550781 793.085938 129.300781 793.085938 120.839844 L 793.175781 114.179688 M 778.328125 128.488281 C 776.4375 129.570312 774.007812 130.828125 771.035156 130.828125 C 767.796875 130.828125 765.097656 129.121094 765.097656 125.339844 C 765.097656 119.398438 772.207031 118.410156 778.328125 117.601562 Z M 838.898438 128.039062 C 836.46875 129.480469 834.128906 130.921875 829.539062 130.921875 C 819.367188 130.921875 817.296875 122.460938 817.296875 117.058594 C 817.296875 110.488281 820.179688 102.929688 828.910156 102.929688 C 832.867188 102.929688 835.027344 104.371094 837.730469 106.171875 L 838.628906 105.898438 C 838.988281 101.128906 839.078125 99.871094 839.796875 95.101562 L 839.347656 94.558594 C 835.386719 93.300781 831.96875 92.21875 826.75 92.21875 C 805.597656 92.21875 801.457031 108.238281 801.457031 117.421875 C 801.457031 127.769531 806.859375 141.808594 827.109375 141.808594 C 831.878906 141.808594 834.9375 140.910156 838.71875 139.828125 L 839.257812 139.289062 L 839.617188 128.488281 Z M 890.917969 140.371094 C 890.558594 132.988281 890.46875 130.46875 890.289062 121.109375 L 890.289062 114.359375 C 890.199219 105.808594 890.109375 100.859375 887.496094 97.078125 C 884.886719 93.390625 881.109375 92.21875 877.148438 92.21875 C 870.578125 92.21875 865.449219 95.371094 861.847656 97.53125 L 862.117188 69.808594 L 861.578125 69.179688 L 846.1875 71.609375 L 845.738281 72.148438 C 846.546875 80.878906 846.726562 84.121094 846.90625 95.730469 C 847.089844 103.019531 847.179688 110.308594 847.179688 117.601562 C 847.179688 126.511719 846.996094 131.820312 846.816406 140.640625 L 847.269531 141.269531 C 853.929688 140.910156 855.277344 140.910156 862.566406 140.910156 L 863.109375 140.371094 C 862.476562 126.871094 862.386719 122.820312 862.296875 106.890625 C 864.007812 105.71875 866.167969 104.191406 869.226562 104.191406 C 874.179688 104.191406 874.539062 109.320312 874.898438 112.921875 C 875.078125 115.710938 875.167969 128.488281 875.167969 131.820312 C 875.167969 134.789062 875.078125 137.671875 875.078125 140.640625 L 875.527344 141.269531 C 882.007812 140.910156 883.449219 140.910156 890.378906 140.910156 Z M 895.777344 141 "/>
</svg>
