<?xml version="1.0" encoding="UTF-8"?>
<svg xmlns="http://www.w3.org/2000/svg" xmlns:xlink="http://www.w3.org/1999/xlink" width="975" height="1300" viewBox="0 0 975 1300">
<path fill-rule="nonzero" fill="rgb(98.823529%, 78.823529%, 9.019608%)" fill-opacity="1" d="M 50 50 L 925 50 L 925 410 L 50 410 Z M 50 50 "/>
<path fill-rule="nonzero" fill="rgb(34.901961%, 14.901961%, 14.901961%)" fill-opacity="1" d="M 183.246094 77.191406 C 175.503906 77.550781 173.433594 77.550781 166.957031 77.460938 L 166.59375 78 C 167.136719 87.71875 167.40625 92.308594 167.40625 115.261719 C 167.40625 125.878906 167.226562 131.371094 166.867188 140.730469 L 167.316406 141.269531 C 174.066406 141 175.867188 141 183.335938 141 L 183.875 140.460938 C 183.425781 132.179688 183.246094 128.039062 183.246094 114.988281 C 183.246094 102.570312 183.425781 90.148438 183.695312 77.730469 Z M 238.867188 140.371094 C 238.417969 132.449219 238.417969 129.929688 238.238281 121.109375 L 238.238281 114.089844 C 238.148438 105.449219 238.058594 101.308594 235.808594 97.621094 C 233.015625 92.941406 227.886719 92.21875 224.648438 92.21875 C 219.15625 92.21875 214.386719 95.101562 210.246094 97.53125 L 210.425781 92.578125 L 209.527344 91.949219 C 202.597656 93.390625 201.066406 93.660156 194.316406 94.558594 L 193.777344 95.191406 C 194.496094 103.019531 195.039062 108.691406 195.039062 123.359375 C 195.039062 129.121094 194.945312 134.878906 194.855469 140.640625 L 195.398438 141.179688 C 201.878906 140.910156 203.226562 140.910156 210.425781 140.910156 L 210.96875 140.371094 C 210.425781 126.511719 210.335938 123 210.246094 106.890625 C 212.136719 105.628906 214.296875 104.101562 217.175781 104.101562 C 222.128906 104.101562 222.578125 109.410156 222.847656 112.648438 C 223.027344 115.621094 223.117188 127.949219 223.117188 131.371094 C 223.117188 134.429688 223.027344 137.578125 223.027344 140.640625 L 223.566406 141.179688 C 229.507812 141 231.039062 140.910156 238.238281 140.910156 Z M 293.226562 140.460938 C 292.867188 132.359375 292.597656 126.960938 292.597656 115.171875 C 292.597656 91.410156 292.957031 81.601562 293.316406 69.71875 L 292.6875 69.179688 L 277.835938 71.519531 L 277.386719 72.058594 C 277.925781 80.519531 278.015625 82.769531 277.925781 93.03125 C 271.175781 92.851562 262.714844 92.671875 255.875 98.070312 C 249.578125 102.929688 246.964844 110.398438 246.964844 119.671875 C 246.964844 126.691406 248.855469 133.710938 254.167969 138.121094 C 258.125 141.359375 262.988281 142.078125 265.957031 142.078125 C 272.347656 142.078125 275.675781 139.109375 277.835938 137.21875 L 277.65625 140.730469 L 278.105469 141.269531 C 284.316406 141 286.027344 141 292.777344 141 L 293.226562 140.460938 M 277.925781 103.828125 C 278.015625 115.800781 277.925781 118.140625 277.65625 129.03125 C 275.855469 130.109375 274.054688 131.191406 271.535156 131.191406 C 262.804688 131.191406 262.804688 120.03125 262.804688 118.230469 C 262.804688 111.300781 264.785156 103.558594 274.867188 103.558594 C 275.855469 103.558594 276.667969 103.648438 277.925781 103.828125 Z M 319.777344 140.371094 C 319.324219 133.441406 318.964844 128.128906 318.964844 115.710938 C 318.964844 108.058594 319.144531 100.320312 319.234375 92.671875 L 318.605469 91.949219 L 303.125 94.648438 L 302.585938 95.191406 C 303.304688 102.03125 303.574219 105.179688 303.574219 117.960938 C 303.574219 127.769531 303.304688 133.261719 303.035156 140.640625 L 303.574219 141.269531 C 310.054688 141 311.855469 140.910156 319.144531 141 L 319.777344 140.371094 M 318.335938 83.308594 L 318.605469 71.070312 L 318.066406 70.53125 L 303.394531 72.328125 L 302.855469 72.960938 C 303.035156 76.199219 303.125 78.089844 303.125 80.25 C 303.125 81.960938 303.125 83.761719 303.035156 85.46875 L 303.664062 86.011719 C 309.785156 84.929688 311.496094 84.75 317.886719 83.941406 Z M 369.816406 114.179688 C 369.90625 106.078125 369.90625 102.570312 367.566406 98.789062 C 365.765625 95.910156 362.167969 92.308594 350.648438 92.308594 C 342.90625 92.308594 338.136719 93.75 333.007812 95.28125 L 332.46875 96 L 332.015625 105.808594 L 332.738281 106.171875 C 335.886719 104.910156 341.738281 102.570312 347.765625 102.570312 C 351.097656 102.570312 352.445312 103.109375 353.617188 104.28125 C 354.515625 105.179688 354.789062 106.800781 354.789062 108.148438 C 343.988281 109.589844 338.945312 110.578125 333.546875 113.910156 C 328.507812 117.058594 326.796875 122.191406 326.796875 126.238281 C 326.796875 135.871094 333.726562 142.078125 342.546875 142.078125 C 349.296875 142.078125 353.167969 138.839844 355.058594 137.308594 L 355.058594 140.640625 L 355.597656 141.269531 C 362.078125 141 364.058594 140.910156 369.90625 141 L 370.355469 140.371094 C 369.726562 131.550781 369.726562 129.300781 369.726562 120.839844 L 369.816406 114.179688 M 354.96875 128.488281 C 353.078125 129.570312 350.648438 130.828125 347.675781 130.828125 C 344.4375 130.828125 341.738281 129.121094 341.738281 125.339844 C 341.738281 119.398438 348.847656 118.410156 354.96875 117.601562 Z M 424.445312 140.371094 C 423.996094 132.449219 423.996094 129.929688 423.816406 121.109375 L 423.816406 114.089844 C 423.726562 105.449219 423.636719 101.308594 421.386719 97.621094 C 418.59375 92.941406 413.464844 92.21875 410.226562 92.21875 C 404.734375 92.21875 399.964844 95.101562 395.824219 97.53125 L 396.003906 92.578125 L 395.105469 91.949219 C 388.175781 93.390625 386.644531 93.660156 379.894531 94.558594 L 379.355469 95.191406 C 380.074219 103.019531 380.617188 108.691406 380.617188 123.359375 C 380.617188 129.121094 380.523438 134.878906 380.433594 140.640625 L 380.976562 141.179688 C 387.457031 140.910156 388.804688 140.910156 396.003906 140.910156 L 396.546875 140.371094 C 396.003906 126.511719 395.914062 123 395.824219 106.890625 C 397.714844 105.628906 399.875 104.101562 402.753906 104.101562 C 407.707031 104.101562 408.15625 109.410156 408.425781 112.648438 C 408.605469 115.621094 408.695312 127.949219 408.695312 131.371094 C 408.695312 134.429688 408.605469 137.578125 408.605469 140.640625 L 409.144531 141.179688 C 415.085938 141 416.617188 140.910156 423.816406 140.910156 Z M 514.535156 123.179688 C 514.535156 118.679688 514.625 114.179688 514.714844 109.589844 L 514.265625 109.050781 L 498.964844 109.320312 L 498.515625 109.859375 C 499.324219 118.679688 499.414062 120.839844 499.234375 129.03125 C 496.804688 129.570312 495.007812 130.019531 492.484375 130.019531 C 478.535156 130.019531 476.015625 116.699219 476.015625 109.949219 C 476.015625 95.730469 483.664062 87.988281 495.007812 87.988281 C 501.847656 87.988281 505.894531 90.691406 510.125 93.480469 L 510.847656 93.210938 C 511.296875 87.628906 511.476562 86.191406 512.195312 80.789062 L 511.746094 80.25 C 507.964844 78.628906 501.9375 76.109375 492.574219 76.109375 C 482.316406 76.109375 471.066406 78.988281 463.957031 91.050781 C 460.714844 96.71875 459.367188 104.011719 459.367188 110.039062 C 459.367188 118.5 461.617188 125.609375 465.664062 130.828125 C 470.976562 137.671875 477.546875 139.828125 481.054688 140.820312 C 483.664062 141.539062 487.535156 142.351562 493.117188 142.351562 C 502.386719 142.351562 508.054688 140.460938 514.355469 138.390625 L 514.804688 137.671875 C 514.714844 133.53125 514.535156 129.390625 514.535156 125.25 Z M 550.714844 107.609375 L 553.234375 92.941406 L 552.695312 92.308594 C 552.066406 92.308594 551.433594 92.21875 550.804688 92.21875 C 547.113281 92.21875 542.976562 94.289062 540.09375 100.949219 L 540.363281 92.671875 L 539.644531 91.949219 C 532.984375 93.390625 531.273438 93.660156 524.703125 94.648438 L 524.164062 95.191406 C 524.703125 101.941406 524.976562 105.988281 524.976562 118.5 C 524.976562 125.878906 524.882812 133.261719 524.703125 140.730469 L 525.246094 141.269531 C 531.90625 141 533.34375 140.910156 540.542969 141 L 540.996094 140.371094 C 540.632812 133.078125 540.09375 122.910156 540.09375 116.699219 C 540.09375 112.648438 540.09375 106.710938 546.214844 106.710938 C 547.746094 106.710938 548.644531 107.25 549.90625 107.96875 Z M 574.746094 140.371094 C 574.292969 133.441406 573.933594 128.128906 573.933594 115.710938 C 573.933594 108.058594 574.113281 100.320312 574.203125 92.671875 L 573.574219 91.949219 L 558.09375 94.648438 L 557.554688 95.191406 C 558.273438 102.03125 558.542969 105.179688 558.542969 117.960938 C 558.542969 127.769531 558.273438 133.261719 558.003906 140.640625 L 558.542969 141.269531 C 565.023438 141 566.824219 140.910156 574.113281 141 L 574.746094 140.371094 M 573.304688 83.308594 L 573.574219 71.070312 L 573.035156 70.53125 L 558.363281 72.328125 L 557.824219 72.960938 C 558.003906 76.199219 558.09375 78.089844 558.09375 80.25 C 558.09375 81.960938 558.09375 83.761719 558.003906 85.46875 L 558.632812 86.011719 C 564.753906 84.929688 566.464844 84.75 572.855469 83.941406 Z M 628.835938 140.371094 C 628.386719 132.449219 628.386719 129.929688 628.207031 121.109375 L 628.207031 114.089844 C 628.117188 105.449219 628.027344 101.308594 625.777344 97.621094 C 622.984375 92.941406 617.855469 92.21875 614.617188 92.21875 C 609.125 92.21875 604.355469 95.101562 600.214844 97.53125 L 600.394531 92.578125 L 599.496094 91.949219 C 592.566406 93.390625 591.035156 93.660156 584.285156 94.558594 L 583.746094 95.191406 C 584.464844 103.019531 585.007812 108.691406 585.007812 123.359375 C 585.007812 129.121094 584.914062 134.878906 584.824219 140.640625 L 585.367188 141.179688 C 591.847656 140.910156 593.195312 140.910156 600.394531 140.910156 L 600.9375 140.371094 C 600.394531 126.511719 600.304688 123 600.214844 106.890625 C 602.105469 105.628906 604.265625 104.101562 607.144531 104.101562 C 612.097656 104.101562 612.546875 109.410156 612.816406 112.648438 C 612.996094 115.621094 613.085938 127.949219 613.085938 131.371094 C 613.085938 134.429688 612.996094 137.578125 612.996094 140.640625 L 613.535156 141.179688 C 619.476562 141 621.007812 140.910156 628.207031 140.910156 Z M 683.195312 140.460938 C 682.835938 132.359375 682.566406 126.960938 682.566406 115.171875 C 682.566406 91.410156 682.925781 81.601562 683.285156 69.71875 L 682.65625 69.179688 L 667.804688 71.519531 L 667.355469 72.058594 C 667.894531 80.519531 667.984375 82.769531 667.894531 93.03125 C 661.144531 92.851562 652.683594 92.671875 645.84375 98.070312 C 639.546875 102.929688 636.933594 110.398438 636.933594 119.671875 C 636.933594 126.691406 638.824219 133.710938 644.136719 138.121094 C 648.09375 141.359375 652.957031 142.078125 655.925781 142.078125 C 662.316406 142.078125 665.644531 139.109375 667.804688 137.21875 L 667.625 140.730469 L 668.074219 141.269531 C 674.285156 141 675.996094 141 682.746094 141 L 683.195312 140.460938 M 667.894531 103.828125 C 667.984375 115.800781 667.894531 118.140625 667.625 129.03125 C 665.824219 130.109375 664.023438 131.191406 661.503906 131.191406 C 652.773438 131.191406 652.773438 120.03125 652.773438 118.230469 C 652.773438 111.300781 654.753906 103.558594 664.835938 103.558594 C 665.824219 103.558594 666.636719 103.648438 667.894531 103.828125 Z M 709.746094 140.371094 C 709.292969 133.441406 708.933594 128.128906 708.933594 115.710938 C 708.933594 108.058594 709.113281 100.320312 709.203125 92.671875 L 708.574219 91.949219 L 693.09375 94.648438 L 692.554688 95.191406 C 693.273438 102.03125 693.542969 105.179688 693.542969 117.960938 C 693.542969 127.769531 693.273438 133.261719 693.003906 140.640625 L 693.542969 141.269531 C 700.023438 141 701.824219 140.910156 709.113281 141 L 709.746094 140.371094 M 708.304688 83.308594 L 708.574219 71.070312 L 708.035156 70.53125 L 693.363281 72.328125 L 692.824219 72.960938 C 693.003906 76.199219 693.09375 78.089844 693.09375 80.25 C 693.09375 81.960938 693.09375 83.761719 693.003906 85.46875 L 693.632812 86.011719 C 699.753906 84.929688 701.464844 84.75 707.855469 83.941406 Z M 763.835938 140.371094 C 763.386719 132.449219 763.386719 129.929688 763.207031 121.109375 L 763.207031 114.089844 C 763.117188 105.449219 763.027344 101.308594 760.777344 97.621094 C 757.984375 92.941406 752.855469 92.21875 749.617188 92.21875 C 744.125 92.21875 739.355469 95.101562 735.214844 97.53125 L 735.394531 92.578125 L 734.496094 91.949219 C 727.566406 93.390625 726.035156 93.660156 719.285156 94.558594 L 718.746094 95.191406 C 719.464844 103.019531 720.007812 108.691406 720.007812 123.359375 C 720.007812 129.121094 719.914062 134.878906 719.824219 140.640625 L 720.367188 141.179688 C 726.847656 140.910156 728.195312 140.910156 735.394531 140.910156 L 735.9375 140.371094 C 735.394531 126.511719 735.304688 123 735.214844 106.890625 C 737.105469 105.628906 739.265625 104.101562 742.144531 104.101562 C 747.097656 104.101562 747.546875 109.410156 747.816406 112.648438 C 747.996094 115.621094 748.085938 127.949219 748.085938 131.371094 C 748.085938 134.429688 747.996094 137.578125 747.996094 140.640625 L 748.535156 141.179688 C 754.476562 141 756.007812 140.910156 763.207031 140.910156 Z M 790.65625 125.789062 C 793.535156 125.878906 796.414062 126.058594 800.734375 124.621094 C 805.414062 123 812.253906 119.128906 812.253906 110.398438 C 812.253906 106.078125 810.996094 104.28125 809.824219 102.570312 L 816.035156 102.929688 L 816.574219 102.480469 L 817.207031 93.480469 L 816.664062 93.03125 C 809.734375 93.300781 807.84375 93.390625 802.175781 93.300781 L 798.035156 93.210938 C 791.644531 93.03125 783.09375 92.851562 777.246094 97.710938 C 775.265625 99.238281 771.484375 103.109375 771.484375 109.859375 C 771.484375 113.460938 772.476562 116.339844 774.09375 118.589844 C 776.074219 121.378906 777.875 122.371094 780.125 123.628906 C 777.605469 128.488281 776.253906 130.921875 774.183594 134.609375 L 774.183594 135.421875 L 777.964844 138.121094 C 775.265625 140.191406 771.035156 143.609375 771.035156 149.460938 C 771.035156 153.601562 773.285156 157.199219 776.617188 159.628906 C 781.65625 163.230469 788.496094 163.410156 792.003906 163.410156 C 808.476562 163.410156 816.035156 155.128906 816.035156 146.398438 C 816.035156 135.058594 806.136719 132.898438 800.285156 131.550781 L 798.125 131.191406 C 793.714844 130.46875 792.726562 130.199219 789.214844 128.941406 L 790.65625 125.789062 M 798.035156 109.589844 C 797.945312 116.878906 793.535156 117.511719 792.273438 117.511719 C 791.554688 117.511719 788.40625 117.328125 786.875 113.730469 C 786.066406 111.839844 786.066406 109.679688 786.066406 109.050781 C 786.066406 104.550781 788.765625 101.671875 792.09375 101.671875 C 796.234375 101.671875 798.125 105.628906 798.035156 109.589844 M 790.386719 143.160156 C 798.394531 145.230469 798.484375 145.230469 799.566406 146.128906 C 800.464844 146.761719 801.367188 147.75 801.367188 149.640625 C 801.367188 152.339844 799.117188 155.128906 793.175781 155.128906 C 786.515625 155.128906 784.265625 151.351562 784.265625 148.199219 C 784.265625 145.230469 785.796875 143.519531 786.875 142.261719 Z M 817.476562 141 "/>
<path fill-rule="nonzero" fill="rgb(34.901961%, 14.901961%, 14.901961%)" fill-opacity="1" d="M 117.410156 236.25 C 123.441406 246.511719 124.792969 249.210938 130.550781 261 L 131.273438 261.449219 C 134.0625 261.269531 136.761719 261.089844 139.550781 261 C 142.34375 260.910156 145.222656 260.820312 148.011719 260.820312 L 148.550781 259.738281 C 145.132812 255.328125 144.140625 253.980469 137.660156 243.628906 C 134.78125 239.039062 133.34375 236.609375 131.09375 232.648438 C 135.140625 230.851562 143.332031 227.070312 143.332031 215.640625 C 143.332031 211.679688 142.25 203.488281 134.871094 199.621094 C 130.191406 197.191406 125.332031 197.101562 114.800781 197.28125 L 108.5 197.371094 L 97.523438 197.371094 L 97.070312 197.910156 C 97.433594 207 97.792969 216.359375 97.792969 240.839844 C 97.792969 249.210938 97.703125 253.261719 97.433594 260.730469 L 97.972656 261.269531 C 104.542969 261 105.980469 260.910156 113.363281 261 L 113.902344 260.460938 C 113.183594 250.019531 113.09375 247.140625 113 236.429688 L 117.410156 236.25 M 113.183594 208.261719 C 114.441406 208.171875 115.703125 208.171875 116.960938 208.171875 C 120.472656 208.171875 127.402344 208.171875 127.402344 216.089844 C 127.402344 218.609375 126.773438 221.941406 123.441406 224.011719 C 120.921875 225.539062 117.683594 225.71875 113.183594 225.808594 Z M 199.132812 237.058594 C 199.132812 233.550781 199.132812 218.96875 186.53125 214.019531 C 182.570312 212.488281 177.890625 212.308594 175.550781 212.308594 C 159.890625 212.308594 151.070312 220.679688 151.070312 237.238281 C 151.070312 243 151.972656 248.851562 155.300781 253.710938 C 157.640625 257.21875 162.050781 262.078125 174.921875 262.078125 C 194 262.078125 199.132812 250.558594 199.132812 237.058594 M 183.5625 236.96875 C 183.5625 244.351562 182.570312 252.539062 175.101562 252.539062 C 172.761719 252.539062 171.140625 251.460938 170.0625 250.46875 C 168.53125 248.941406 166.820312 245.878906 166.820312 237.148438 C 166.820312 234.539062 166.820312 228.78125 168.621094 225.628906 C 169.972656 223.199219 172.3125 221.578125 175.191406 221.578125 C 177.710938 221.578125 179.78125 222.929688 180.953125 224.371094 C 183.113281 226.980469 183.5625 232.109375 183.5625 236.96875 Z M 242.871094 248.039062 C 240.441406 249.480469 238.101562 250.921875 233.511719 250.921875 C 223.339844 250.921875 221.269531 242.460938 221.269531 237.058594 C 221.269531 230.488281 224.152344 222.929688 232.882812 222.929688 C 236.839844 222.929688 239 224.371094 241.703125 226.171875 L 242.601562 225.898438 C 242.960938 221.128906 243.050781 219.871094 243.769531 215.101562 L 243.320312 214.558594 C 239.359375 213.300781 235.941406 212.21875 230.722656 212.21875 C 209.570312 212.21875 205.429688 228.238281 205.429688 237.421875 C 205.429688 247.769531 210.832031 261.808594 231.082031 261.808594 C 235.851562 261.808594 238.910156 260.910156 242.691406 259.828125 L 243.230469 259.289062 L 243.589844 248.488281 Z M 297.050781 259.828125 C 288.589844 245.519531 287.691406 243.898438 280.851562 231.570312 C 287.0625 223.109375 287.691406 222.210938 294.082031 214.019531 L 293.628906 213.121094 L 278.960938 213.300781 L 278.0625 213.929688 C 271.039062 226.078125 270.140625 227.519531 266 233.730469 L 266 223.738281 C 266.089844 206.910156 266.179688 203.308594 266.628906 189.71875 L 265.910156 189.179688 L 250.25 191.519531 L 249.710938 192.148438 C 250.339844 200.878906 250.609375 205.109375 250.789062 216.898438 C 250.96875 231.480469 250.96875 246.058594 250.878906 260.640625 L 251.511719 261.269531 C 257.539062 261 259.25 261 266.089844 261 L 266.628906 260.371094 L 266.089844 245.160156 L 266 234.808594 C 273.832031 249.210938 274.820312 251.191406 279.410156 260.730469 L 280.21875 261.269531 L 296.421875 260.640625 Z M 353.660156 222.300781 C 346.101562 219.148438 342.140625 217.53125 342.140625 213.480469 C 342.140625 210.691406 344.75 207.179688 350.691406 207.179688 C 357.53125 207.179688 361.578125 209.96875 364.910156 212.21875 L 365.71875 211.859375 L 366.441406 200.070312 L 365.988281 199.441406 C 362.121094 197.820312 358.070312 196.109375 349.339844 196.109375 C 332.421875 196.109375 326.570312 205.648438 326.570312 215.28125 C 326.570312 226.171875 335.03125 230.128906 340.070312 232.558594 L 343.039062 233.910156 C 349.25 236.519531 354.019531 238.769531 354.019531 243.539062 C 354.019531 246.960938 351.050781 251.011719 343.21875 251.011719 C 335.03125 251.011719 330.441406 247.410156 327.828125 245.339844 L 326.929688 245.609375 L 326.300781 258.300781 L 326.839844 259.019531 C 327.828125 259.378906 328.820312 259.828125 329.808594 260.101562 C 331.878906 260.820312 337.191406 262.351562 343.941406 262.351562 C 346.640625 262.351562 353.480469 262.078125 358.878906 259.558594 C 366.441406 255.871094 369.679688 249.03125 369.679688 241.378906 C 369.679688 236.25 367.699219 230.761719 362.929688 227.070312 C 360.5 225.269531 358.160156 224.191406 356 223.199219 Z M 403.433594 250.648438 C 401.902344 251.101562 400.820312 251.460938 399.292969 251.460938 C 394.703125 251.460938 394.34375 248.578125 394.160156 247.230469 C 393.890625 244.890625 393.890625 239.941406 393.980469 236.339844 L 394.160156 223.648438 L 402.261719 224.011719 L 402.800781 223.46875 L 403.703125 213.839844 L 403.160156 213.300781 L 394.160156 213.300781 L 394.433594 198.179688 L 393.800781 197.640625 C 387.683594 199.441406 386.0625 199.890625 379.671875 201.511719 L 379.3125 202.140625 L 379.402344 213.390625 L 374.542969 213.210938 L 374.003906 213.660156 L 373.191406 223.289062 L 373.730469 223.828125 L 379.402344 223.648438 L 379.132812 237.960938 C 379.042969 240.210938 378.953125 242.460938 378.953125 244.800781 C 378.953125 253.078125 379.132812 261.988281 393.171875 261.988281 C 396.683594 261.988281 399.472656 261.449219 402.621094 260.910156 L 403.253906 260.28125 L 404.152344 251.011719 Z M 450.140625 234.179688 C 450.230469 226.078125 450.230469 222.570312 447.890625 218.789062 C 446.089844 215.910156 442.492188 212.308594 430.972656 212.308594 C 423.230469 212.308594 418.460938 213.75 413.332031 215.28125 L 412.792969 216 L 412.339844 225.808594 L 413.0625 226.171875 C 416.210938 224.910156 422.0625 222.570312 428.089844 222.570312 C 431.421875 222.570312 432.769531 223.109375 433.941406 224.28125 C 434.839844 225.179688 435.113281 226.800781 435.113281 228.148438 C 424.3125 229.589844 419.269531 230.578125 413.871094 233.910156 C 408.832031 237.058594 407.121094 242.191406 407.121094 246.238281 C 407.121094 255.871094 414.050781 262.078125 422.871094 262.078125 C 429.621094 262.078125 433.492188 258.839844 435.382812 257.308594 L 435.382812 260.640625 L 435.921875 261.269531 C 442.402344 261 444.382812 260.910156 450.230469 261 L 450.679688 260.371094 C 450.050781 251.550781 450.050781 249.300781 450.050781 240.839844 L 450.140625 234.179688 M 435.292969 248.488281 C 433.402344 249.570312 430.972656 250.828125 428 250.828125 C 424.761719 250.828125 422.0625 249.121094 422.0625 245.339844 C 422.0625 239.398438 429.171875 238.410156 435.292969 237.601562 Z M 485.875 250.648438 C 484.34375 251.101562 483.261719 251.460938 481.734375 251.460938 C 477.144531 251.460938 476.785156 248.578125 476.601562 247.230469 C 476.332031 244.890625 476.332031 239.941406 476.421875 236.339844 L 476.601562 223.648438 L 484.703125 224.011719 L 485.242188 223.46875 L 486.144531 213.839844 L 485.601562 213.300781 L 476.601562 213.300781 L 476.875 198.179688 L 476.242188 197.640625 C 470.125 199.441406 468.503906 199.890625 462.113281 201.511719 L 461.753906 202.140625 L 461.84375 213.390625 L 456.984375 213.210938 L 456.445312 213.660156 L 455.632812 223.289062 L 456.171875 223.828125 L 461.84375 223.648438 L 461.574219 237.960938 C 461.484375 240.210938 461.394531 242.460938 461.394531 244.800781 C 461.394531 253.078125 461.574219 261.988281 475.613281 261.988281 C 479.125 261.988281 481.914062 261.449219 485.0625 260.910156 L 485.695312 260.28125 L 486.59375 251.011719 Z M 532.492188 247.679688 C 529.074219 249.480469 525.023438 251.550781 518.453125 251.550781 C 513.054688 251.550781 509.363281 249.839844 507.203125 246.601562 C 505.851562 244.710938 505.582031 242.910156 505.222656 241.109375 L 534.292969 240.570312 L 534.832031 239.941406 C 534.742188 235.53125 534.652344 231.03125 533.394531 226.53125 C 530.242188 215.910156 523.3125 213.75 520.253906 213.03125 C 518.003906 212.398438 515.933594 212.21875 513.863281 212.21875 C 499.734375 212.21875 490.371094 221.488281 490.371094 237.058594 C 490.371094 241.289062 491.09375 245.699219 492.53125 248.851562 C 497.753906 261 509.992188 262.078125 516.472656 262.078125 C 523.941406 262.078125 527.183594 260.730469 531.953125 258.839844 L 532.492188 258.121094 L 533.121094 247.949219 L 532.492188 247.679688 M 505.222656 231.570312 C 505.492188 228.78125 506.121094 225 509.542969 222.839844 C 510.621094 222.121094 511.882812 221.851562 513.144531 221.851562 C 516.113281 221.851562 517.914062 223.378906 518.902344 225 C 520.164062 226.980469 520.253906 229.140625 520.253906 231.210938 Z M 623.300781 197.191406 C 616.101562 197.460938 614.933594 197.460938 607.371094 197.460938 L 606.921875 198 C 607.550781 208.171875 607.550781 210.78125 607.640625 221.398438 C 603.683594 221.488281 599.722656 221.578125 595.671875 221.578125 C 592.523438 221.578125 589.28125 221.488281 586.132812 221.488281 L 586.3125 197.730469 L 585.863281 197.191406 C 578.933594 197.460938 577.582031 197.460938 569.753906 197.460938 L 569.210938 198 C 569.664062 207.269531 570.203125 218.339844 570.203125 240.660156 C 570.203125 248.761719 570.023438 253.171875 569.84375 260.730469 L 570.292969 261.269531 C 576.863281 261 578.480469 260.910156 586.402344 261 L 586.851562 260.460938 C 586.3125 249.300781 586.222656 246.058594 586.132812 233.011719 C 590.09375 232.828125 593.421875 232.738281 596.933594 232.738281 C 600.53125 232.738281 604.132812 232.828125 607.730469 232.921875 C 607.914062 245.070312 607.914062 248.039062 607.460938 260.730469 L 607.914062 261.269531 C 614.664062 261 616.460938 260.910156 624.113281 261 L 624.5625 260.460938 C 623.84375 245.339844 623.570312 230.308594 623.570312 215.191406 C 623.570312 208.890625 623.664062 204.660156 623.753906 197.730469 Z M 651.292969 260.371094 C 650.839844 253.441406 650.480469 248.128906 650.480469 235.710938 C 650.480469 228.058594 650.660156 220.320312 650.75 212.671875 L 650.121094 211.949219 L 634.640625 214.648438 L 634.101562 215.191406 C 634.820312 222.03125 635.089844 225.179688 635.089844 237.960938 C 635.089844 247.769531 634.820312 253.261719 634.550781 260.640625 L 635.089844 261.269531 C 641.570312 261 643.371094 260.910156 650.660156 261 L 651.292969 260.371094 M 649.851562 203.308594 L 650.121094 191.070312 L 649.582031 190.53125 L 634.910156 192.328125 L 634.371094 192.960938 C 634.550781 196.199219 634.640625 198.089844 634.640625 200.25 C 634.640625 201.960938 634.640625 203.761719 634.550781 205.46875 L 635.179688 206.011719 C 641.300781 204.929688 643.011719 204.75 649.402344 203.941406 Z M 680.183594 229.949219 C 677.121094 228.871094 674.691406 227.878906 674.691406 225.359375 C 674.691406 224.28125 675.414062 221.308594 680.992188 221.308594 C 686.484375 221.308594 689.992188 223.648438 692.242188 225.089844 L 693.054688 224.820312 L 693.953125 215.011719 L 693.503906 214.46875 C 689.273438 213.300781 685.582031 212.21875 679.734375 212.21875 C 675.324219 212.21875 666.503906 212.578125 661.824219 219.328125 C 660.652344 220.949219 659.394531 223.648438 659.394531 227.25 C 659.394531 236.878906 666.863281 239.761719 671.09375 241.378906 L 674.511719 242.640625 C 676.941406 243.449219 680.902344 244.800781 680.902344 248.039062 C 680.902344 250.289062 678.832031 252.71875 673.792969 252.71875 C 671.273438 252.71875 667.582031 251.910156 664.253906 250.199219 C 662.722656 249.390625 662.003906 248.761719 660.652344 247.679688 L 659.84375 248.039062 C 659.664062 252.71875 659.574219 253.710938 659.210938 258.210938 L 659.664062 259.019531 C 664.074219 260.640625 667.851562 262.078125 674.421875 262.078125 C 681.261719 262.078125 694.761719 260.820312 696.382812 247.949219 C 696.472656 247.230469 696.472656 246.601562 696.472656 245.96875 C 696.472656 236.070312 689.542969 233.460938 684.59375 231.570312 Z M 729.59375 250.648438 C 728.0625 251.101562 726.980469 251.460938 725.453125 251.460938 C 720.863281 251.460938 720.503906 248.578125 720.320312 247.230469 C 720.050781 244.890625 720.050781 239.941406 720.140625 236.339844 L 720.320312 223.648438 L 728.421875 224.011719 L 728.960938 223.46875 L 729.863281 213.839844 L 729.320312 213.300781 L 720.320312 213.300781 L 720.59375 198.179688 L 719.960938 197.640625 C 713.84375 199.441406 712.222656 199.890625 705.832031 201.511719 L 705.472656 202.140625 L 705.5625 213.390625 L 700.703125 213.210938 L 700.164062 213.660156 L 699.351562 223.289062 L 699.890625 223.828125 L 705.5625 223.648438 L 705.292969 237.960938 C 705.203125 240.210938 705.113281 242.460938 705.113281 244.800781 C 705.113281 253.078125 705.292969 261.988281 719.332031 261.988281 C 722.84375 261.988281 725.632812 261.449219 728.78125 260.910156 L 729.414062 260.28125 L 730.3125 251.011719 Z M 782.0625 237.058594 C 782.0625 233.550781 782.0625 218.96875 769.460938 214.019531 C 765.5 212.488281 760.820312 212.308594 758.480469 212.308594 C 742.820312 212.308594 734 220.679688 734 237.238281 C 734 243 734.902344 248.851562 738.230469 253.710938 C 740.570312 257.21875 744.980469 262.078125 757.851562 262.078125 C 776.929688 262.078125 782.0625 250.558594 782.0625 237.058594 M 766.492188 236.96875 C 766.492188 244.351562 765.5 252.539062 758.03125 252.539062 C 755.691406 252.539062 754.070312 251.460938 752.992188 250.46875 C 751.460938 248.941406 749.75 245.878906 749.75 237.148438 C 749.75 234.539062 749.75 228.78125 751.550781 225.628906 C 752.902344 223.199219 755.242188 221.578125 758.121094 221.578125 C 760.640625 221.578125 762.710938 222.929688 763.882812 224.371094 C 766.042969 226.980469 766.492188 232.109375 766.492188 236.96875 Z M 816.621094 227.609375 L 819.140625 212.941406 L 818.601562 212.308594 C 817.972656 212.308594 817.339844 212.21875 816.710938 212.21875 C 813.019531 212.21875 808.882812 214.289062 806 220.949219 L 806.269531 212.671875 L 805.550781 211.949219 C 798.890625 213.390625 797.179688 213.660156 790.609375 214.648438 L 790.070312 215.191406 C 790.609375 221.941406 790.882812 225.988281 790.882812 238.5 C 790.882812 245.878906 790.789062 253.261719 790.609375 260.730469 L 791.152344 261.269531 C 797.8125 261 799.25 260.910156 806.449219 261 L 806.902344 260.371094 C 806.539062 253.078125 806 242.910156 806 236.699219 C 806 232.648438 806 226.710938 812.121094 226.710938 C 813.652344 226.710938 814.550781 227.25 815.8125 227.96875 Z M 840.652344 260.371094 C 840.199219 253.441406 839.839844 248.128906 839.839844 235.710938 C 839.839844 228.058594 840.019531 220.320312 840.109375 212.671875 L 839.480469 211.949219 L 824 214.648438 L 823.460938 215.191406 C 824.179688 222.03125 824.449219 225.179688 824.449219 237.960938 C 824.449219 247.769531 824.179688 253.261719 823.910156 260.640625 L 824.449219 261.269531 C 830.929688 261 832.730469 260.910156 840.019531 261 L 840.652344 260.371094 M 839.210938 203.308594 L 839.480469 191.070312 L 838.941406 190.53125 L 824.269531 192.328125 L 823.730469 192.960938 C 823.910156 196.199219 824 198.089844 824 200.25 C 824 201.960938 824 203.761719 823.910156 205.46875 L 824.539062 206.011719 C 830.660156 204.929688 832.371094 204.75 838.761719 203.941406 Z M 885.832031 248.039062 C 883.402344 249.480469 881.0625 250.921875 876.472656 250.921875 C 866.300781 250.921875 864.230469 242.460938 864.230469 237.058594 C 864.230469 230.488281 867.113281 222.929688 875.84375 222.929688 C 879.800781 222.929688 881.960938 224.371094 884.664062 226.171875 L 885.5625 225.898438 C 885.921875 221.128906 886.011719 219.871094 886.730469 215.101562 L 886.28125 214.558594 C 882.320312 213.300781 878.902344 212.21875 873.683594 212.21875 C 852.53125 212.21875 848.390625 228.238281 848.390625 237.421875 C 848.390625 247.769531 853.792969 261.808594 874.042969 261.808594 C 878.8125 261.808594 881.871094 260.910156 885.652344 259.828125 L 886.191406 259.289062 L 886.550781 248.488281 Z M 888.351562 261 "/>
<path fill-rule="nonzero" fill="rgb(34.901961%, 14.901961%, 14.901961%)" fill-opacity="1" d="M 411.53125 317.28125 L 400.101562 317.460938 L 399.558594 318 C 399.921875 329.699219 400.191406 337.53125 400.191406 347.878906 C 400.191406 358.859375 399.921875 369.75 399.648438 380.730469 L 400.191406 381.269531 C 406.851562 381 408.289062 380.910156 415.492188 381 L 415.941406 380.460938 C 415.582031 370.648438 415.582031 368.398438 415.582031 359.21875 C 425.660156 359.308594 436.460938 359.308594 442.941406 351.390625 C 445.460938 348.328125 447.621094 343.199219 447.621094 336.898438 C 447.621094 333.03125 446.71875 324.480469 439.25 320.25 C 433.851562 317.101562 426.199219 317.101562 419.449219 317.101562 L 411.53125 317.28125 M 415.582031 328.171875 C 417.558594 328.078125 419.449219 328.078125 421.429688 328.078125 C 429.351562 328.261719 431.511719 332.308594 431.511719 337.53125 C 431.511719 338.789062 431.511719 344.011719 426.742188 346.621094 C 424.308594 347.96875 420.980469 348.148438 415.582031 348.148438 Z M 493.878906 354.179688 C 493.96875 346.078125 493.96875 342.570312 491.628906 338.789062 C 489.828125 335.910156 486.230469 332.308594 474.710938 332.308594 C 466.96875 332.308594 462.199219 333.75 457.070312 335.28125 L 456.53125 336 L 456.078125 345.808594 L 456.800781 346.171875 C 459.949219 344.910156 465.800781 342.570312 471.828125 342.570312 C 475.160156 342.570312 476.507812 343.109375 477.679688 344.28125 C 478.578125 345.179688 478.851562 346.800781 478.851562 348.148438 C 468.050781 349.589844 463.007812 350.578125 457.609375 353.910156 C 452.570312 357.058594 450.859375 362.191406 450.859375 366.238281 C 450.859375 375.871094 457.789062 382.078125 466.609375 382.078125 C 473.359375 382.078125 477.230469 378.839844 479.121094 377.308594 L 479.121094 380.640625 L 479.660156 381.269531 C 486.140625 381 488.121094 380.910156 493.96875 381 L 494.417969 380.371094 C 493.789062 371.550781 493.789062 369.300781 493.789062 360.839844 L 493.878906 354.179688 M 479.03125 368.488281 C 477.140625 369.570312 474.710938 370.828125 471.738281 370.828125 C 468.5 370.828125 465.800781 369.121094 465.800781 365.339844 C 465.800781 359.398438 472.910156 358.410156 479.03125 357.601562 Z M 530.421875 347.609375 L 532.941406 332.941406 L 532.402344 332.308594 C 531.773438 332.308594 531.140625 332.21875 530.511719 332.21875 C 526.820312 332.21875 522.683594 334.289062 519.800781 340.949219 L 520.070312 332.671875 L 519.351562 331.949219 C 512.691406 333.390625 510.980469 333.660156 504.410156 334.648438 L 503.871094 335.191406 C 504.410156 341.941406 504.683594 345.988281 504.683594 358.5 C 504.683594 365.878906 504.589844 373.261719 504.410156 380.730469 L 504.953125 381.269531 C 511.613281 381 513.050781 380.910156 520.25 381 L 520.703125 380.371094 C 520.339844 373.078125 519.800781 362.910156 519.800781 356.699219 C 519.800781 352.648438 519.800781 346.710938 525.921875 346.710938 C 527.453125 346.710938 528.351562 347.25 529.613281 347.96875 Z M 584.421875 379.828125 C 575.960938 365.519531 575.0625 363.898438 568.222656 351.570312 C 574.433594 343.109375 575.0625 342.210938 581.453125 334.019531 L 581 333.121094 L 566.332031 333.300781 L 565.433594 333.929688 C 558.410156 346.078125 557.511719 347.519531 553.371094 353.730469 L 553.371094 343.738281 C 553.460938 326.910156 553.550781 323.308594 554 309.71875 L 553.28125 309.179688 L 537.621094 311.519531 L 537.082031 312.148438 C 537.710938 320.878906 537.980469 325.109375 538.160156 336.898438 C 538.339844 351.480469 538.339844 366.058594 538.25 380.640625 L 538.882812 381.269531 C 544.910156 381 546.621094 381 553.460938 381 L 554 380.371094 L 553.460938 365.160156 L 553.371094 354.808594 C 561.203125 369.210938 562.191406 371.191406 566.78125 380.730469 L 567.589844 381.269531 L 583.792969 380.640625 Z M 583.339844 381 "/>
</svg>
