<?xml version="1.0" encoding="UTF-8"?>
<svg xmlns="http://www.w3.org/2000/svg" xmlns:xlink="http://www.w3.org/1999/xlink" width="975" height="1300" viewBox="0 0 975 1300">
<path fill-rule="nonzero" fill="rgb(98.823529%, 78.823529%, 9.019608%)" fill-opacity="1" d="M 50 50 L 925 50 L 925 290 L 50 290 Z M 50 50 "/>
<path fill-rule="nonzero" fill="rgb(34.901961%, 14.901961%, 14.901961%)" fill-opacity="1" d="M 165.246094 124.890625 C 163.175781 126.511719 158.585938 129.929688 151.117188 129.929688 C 140.855469 129.929688 133.65625 122.28125 133.65625 109.5 C 133.65625 101.761719 136.355469 88.171875 151.027344 88.171875 C 157.777344 88.171875 161.464844 90.78125 163.714844 92.488281 L 164.527344 92.308594 L 165.335938 79.890625 L 164.976562 79.441406 C 161.738281 78.179688 156.246094 76.109375 148.328125 76.109375 C 125.015625 76.109375 116.917969 94.109375 116.917969 109.859375 C 116.917969 127.140625 127.445312 142.351562 149.40625 142.351562 C 156.964844 142.351562 161.917969 140.371094 164.796875 139.199219 L 165.246094 138.660156 L 165.875 125.25 Z M 212.945312 114.179688 C 213.035156 106.078125 213.035156 102.570312 210.695312 98.789062 C 208.894531 95.910156 205.296875 92.308594 193.777344 92.308594 C 186.035156 92.308594 181.265625 93.75 176.136719 95.28125 L 175.597656 96 L 175.144531 105.808594 L 175.867188 106.171875 C 179.015625 104.910156 184.867188 102.570312 190.894531 102.570312 C 194.226562 102.570312 195.574219 103.109375 196.746094 104.28125 C 197.644531 105.179688 197.917969 106.800781 197.917969 108.148438 C 187.117188 109.589844 182.074219 110.578125 176.675781 113.910156 C 171.636719 117.058594 169.925781 122.191406 169.925781 126.238281 C 169.925781 135.871094 176.855469 142.078125 185.675781 142.078125 C 192.425781 142.078125 196.296875 138.839844 198.1875 137.308594 L 198.1875 140.640625 L 198.726562 141.269531 C 205.207031 141 207.1875 140.910156 213.035156 141 L 213.484375 140.371094 C 212.855469 131.550781 212.855469 129.300781 212.855469 120.839844 L 212.945312 114.179688 M 198.097656 128.488281 C 196.207031 129.570312 193.777344 130.828125 190.804688 130.828125 C 187.566406 130.828125 184.867188 129.121094 184.867188 125.339844 C 184.867188 119.398438 191.976562 118.410156 198.097656 117.601562 Z M 242.378906 109.949219 C 239.316406 108.871094 236.886719 107.878906 236.886719 105.359375 C 236.886719 104.28125 237.609375 101.308594 243.1875 101.308594 C 248.679688 101.308594 252.1875 103.648438 254.4375 105.089844 L 255.25 104.820312 L 256.148438 95.011719 L 255.699219 94.46875 C 251.46875 93.300781 247.777344 92.21875 241.929688 92.21875 C 237.519531 92.21875 228.699219 92.578125 224.019531 99.328125 C 222.847656 100.949219 221.589844 103.648438 221.589844 107.25 C 221.589844 116.878906 229.058594 119.761719 233.289062 121.378906 L 236.707031 122.640625 C 239.136719 123.449219 243.097656 124.800781 243.097656 128.039062 C 243.097656 130.289062 241.027344 132.71875 235.988281 132.71875 C 233.46875 132.71875 229.777344 131.910156 226.449219 130.199219 C 224.917969 129.390625 224.199219 128.761719 222.847656 127.679688 L 222.039062 128.039062 C 221.859375 132.71875 221.769531 133.710938 221.40625 138.210938 L 221.859375 139.019531 C 226.269531 140.640625 230.046875 142.078125 236.617188 142.078125 C 243.457031 142.078125 256.957031 140.820312 258.578125 127.949219 C 258.667969 127.230469 258.667969 126.601562 258.667969 125.96875 C 258.667969 116.070312 251.738281 113.460938 246.789062 111.570312 Z M 322.207031 140.371094 C 325.808594 126.421875 326.4375 124.261719 331.835938 104.910156 C 332.917969 101.21875 333.90625 97.441406 334.898438 93.75 L 334.359375 93.03125 L 322.65625 93.300781 L 322.027344 93.929688 L 319.417969 107.429688 L 316.898438 118.320312 L 315.1875 126.601562 L 313.65625 118.589844 L 311.675781 109.230469 L 308.527344 93.660156 L 307.988281 93.03125 L 290.707031 93.300781 L 290.078125 93.929688 L 287.109375 108.691406 L 284.949219 118.589844 L 283.238281 126.871094 L 281.527344 117.960938 L 279.367188 108.238281 L 276.308594 93.300781 L 275.765625 92.851562 L 261.1875 93.929688 L 260.648438 94.648438 C 269.109375 124.351562 270.457031 129.660156 272.976562 140.730469 L 273.609375 141.269531 C 279.816406 141 282.066406 140.910156 290.347656 141 L 290.886719 140.371094 L 293.226562 129.390625 L 295.746094 118.5 L 297.996094 107.609375 L 299.347656 114.449219 L 300.699219 121.109375 L 304.476562 140.640625 L 305.109375 141.269531 C 311.765625 141 314.46875 140.910156 321.667969 141 Z M 379.625 127.679688 C 376.207031 129.480469 372.15625 131.550781 365.585938 131.550781 C 360.1875 131.550781 356.496094 129.839844 354.335938 126.601562 C 352.984375 124.710938 352.714844 122.910156 352.355469 121.109375 L 381.425781 120.570312 L 381.964844 119.941406 C 381.875 115.53125 381.785156 111.03125 380.527344 106.53125 C 377.375 95.910156 370.445312 93.75 367.386719 93.03125 C 365.136719 92.398438 363.066406 92.21875 360.996094 92.21875 C 346.867188 92.21875 337.503906 101.488281 337.503906 117.058594 C 337.503906 121.289062 338.226562 125.699219 339.664062 128.851562 C 344.886719 141 357.125 142.078125 363.605469 142.078125 C 371.074219 142.078125 374.316406 140.730469 379.085938 138.839844 L 379.625 138.121094 L 380.253906 127.949219 L 379.625 127.679688 M 352.355469 111.570312 C 352.625 108.78125 353.253906 105 356.675781 102.839844 C 357.753906 102.121094 359.015625 101.851562 360.277344 101.851562 C 363.246094 101.851562 365.046875 103.378906 366.035156 105 C 367.296875 106.980469 367.386719 109.140625 367.386719 111.210938 Z M 406.085938 140.371094 C 405.636719 130.019531 405.1875 120.570312 405.1875 92.128906 C 405.1875 83.578125 405.277344 79.53125 405.636719 69.808594 L 405.007812 69.179688 L 389.617188 71.609375 L 389.257812 72.148438 C 390.15625 83.128906 390.246094 86.101562 390.425781 100.679688 C 390.519531 105.988281 390.519531 111.300781 390.519531 116.609375 C 390.519531 126.328125 390.335938 131.730469 389.976562 140.640625 L 390.519531 141.269531 C 396.546875 141 398.976562 140.910156 405.546875 141 Z M 432.363281 140.371094 C 431.914062 130.019531 431.464844 120.570312 431.464844 92.128906 C 431.464844 83.578125 431.554688 79.53125 431.914062 69.808594 L 431.285156 69.179688 L 415.894531 71.609375 L 415.535156 72.148438 C 416.433594 83.128906 416.523438 86.101562 416.703125 100.679688 C 416.796875 105.988281 416.796875 111.300781 416.796875 116.609375 C 416.796875 126.328125 416.613281 131.730469 416.253906 140.640625 L 416.796875 141.269531 C 422.824219 141 425.253906 140.910156 431.824219 141 Z M 538.117188 77.191406 C 528.757812 77.460938 527.226562 77.460938 517.238281 77.460938 L 516.699219 78 L 512.558594 92.578125 L 508.957031 105.628906 L 504.726562 121.289062 L 500.765625 105.179688 L 498.246094 95.011719 L 493.746094 77.730469 L 493.296875 77.191406 C 483.667969 77.460938 482.046875 77.460938 471.96875 77.460938 L 471.425781 78 C 470.527344 104.910156 470.167969 111.839844 468.1875 140.730469 L 468.636719 141.269531 C 474.398438 141 476.109375 140.910156 481.328125 141 L 481.867188 140.460938 L 482.136719 123.269531 L 482.675781 105.808594 L 483.039062 88.800781 L 486.996094 104.730469 L 490.417969 117.511719 L 496.449219 140.730469 L 496.988281 141.269531 C 502.566406 141 504.097656 140.910156 510.398438 141 L 510.9375 140.460938 L 516.15625 121.289062 L 519.757812 108.148438 L 524.796875 89.25 L 524.796875 105.359375 L 524.976562 119.128906 L 524.976562 140.730469 L 525.425781 141.269531 C 531.636719 141 534.066406 140.910156 540.996094 141 L 541.449219 140.460938 C 540.90625 130.199219 540.277344 119.851562 539.917969 109.5 C 539.648438 103.828125 539.46875 98.160156 539.199219 92.488281 C 538.746094 84.121094 538.65625 83.039062 538.65625 77.730469 Z M 591.574219 127.679688 C 588.15625 129.480469 584.105469 131.550781 577.535156 131.550781 C 572.136719 131.550781 568.445312 129.839844 566.285156 126.601562 C 564.933594 124.710938 564.664062 122.910156 564.304688 121.109375 L 593.375 120.570312 L 593.914062 119.941406 C 593.824219 115.53125 593.734375 111.03125 592.476562 106.53125 C 589.324219 95.910156 582.394531 93.75 579.335938 93.03125 C 577.085938 92.398438 575.015625 92.21875 572.945312 92.21875 C 558.816406 92.21875 549.453125 101.488281 549.453125 117.058594 C 549.453125 121.289062 550.175781 125.699219 551.613281 128.851562 C 556.835938 141 569.074219 142.078125 575.554688 142.078125 C 583.023438 142.078125 586.265625 140.730469 591.035156 138.839844 L 591.574219 138.121094 L 592.203125 127.949219 L 591.574219 127.679688 M 564.304688 111.570312 C 564.574219 108.78125 565.203125 105 568.625 102.839844 C 569.703125 102.121094 570.964844 101.851562 572.226562 101.851562 C 575.195312 101.851562 576.996094 103.378906 577.984375 105 C 579.246094 106.980469 579.335938 109.140625 579.335938 111.210938 Z M 672.488281 140.371094 C 672.035156 132 671.945312 129.660156 671.945312 119.488281 L 671.945312 112.738281 C 672.035156 106.710938 672.125 101.128906 669.515625 97.351562 C 666.007812 92.21875 659.796875 92.21875 658.355469 92.21875 C 650.976562 92.21875 646.027344 95.550781 642.425781 98.070312 C 641.167969 96 638.917969 92.21875 631.71875 92.21875 C 625.777344 92.21875 621.90625 94.921875 617.765625 97.800781 L 617.765625 92.761719 L 616.957031 91.949219 C 609.9375 93.300781 607.957031 93.660156 601.65625 94.558594 L 601.117188 95.191406 C 601.835938 102.390625 602.375 107.339844 602.375 125.160156 C 602.375 130.289062 602.285156 135.511719 602.285156 140.640625 L 602.738281 141.179688 C 608.496094 141 610.476562 140.910156 617.945312 140.910156 L 618.488281 140.371094 C 617.855469 126.511719 617.765625 122.371094 617.675781 106.710938 C 619.566406 105.359375 621.636719 104.191406 623.886719 104.191406 C 629.46875 104.191406 629.648438 110.578125 629.648438 118.320312 C 629.648438 131.371094 629.558594 133.351562 629.375 140.640625 L 629.917969 141.269531 C 636.757812 140.910156 638.648438 140.910156 644.855469 140.910156 L 645.398438 140.371094 C 644.855469 131.820312 644.765625 129.300781 644.675781 118.410156 L 644.675781 115.078125 L 644.585938 105.988281 C 646.117188 105 648.097656 103.738281 650.796875 103.738281 C 655.925781 103.738281 656.738281 108.601562 656.738281 116.339844 C 656.738281 118.050781 656.648438 119.761719 656.648438 121.46875 C 656.558594 124.53125 656.46875 137.941406 656.375 140.640625 L 656.917969 141.179688 C 663.667969 140.910156 665.648438 140.910156 671.945312 140.910156 Z M 728.648438 117.058594 C 728.648438 113.550781 728.648438 98.96875 716.046875 94.019531 C 712.085938 92.488281 707.40625 92.308594 705.066406 92.308594 C 689.40625 92.308594 680.585938 100.679688 680.585938 117.238281 C 680.585938 123 681.488281 128.851562 684.816406 133.710938 C 687.15625 137.21875 691.566406 142.078125 704.4375 142.078125 C 723.515625 142.078125 728.648438 130.558594 728.648438 117.058594 M 713.078125 116.96875 C 713.078125 124.351562 712.085938 132.539062 704.617188 132.539062 C 702.277344 132.539062 700.65625 131.460938 699.578125 130.46875 C 698.046875 128.941406 696.335938 125.878906 696.335938 117.148438 C 696.335938 114.539062 696.335938 108.78125 698.136719 105.628906 C 699.488281 103.199219 701.828125 101.578125 704.707031 101.578125 C 707.226562 101.578125 709.296875 102.929688 710.46875 104.371094 C 712.628906 106.980469 713.078125 112.109375 713.078125 116.96875 Z M 763.207031 107.609375 L 765.726562 92.941406 L 765.1875 92.308594 C 764.558594 92.308594 763.925781 92.21875 763.296875 92.21875 C 759.605469 92.21875 755.46875 94.289062 752.585938 100.949219 L 752.855469 92.671875 L 752.136719 91.949219 C 745.476562 93.390625 743.765625 93.660156 737.195312 94.648438 L 736.65625 95.191406 C 737.195312 101.941406 737.46875 105.988281 737.46875 118.5 C 737.46875 125.878906 737.375 133.261719 737.195312 140.730469 L 737.738281 141.269531 C 744.398438 141 745.835938 140.910156 753.035156 141 L 753.488281 140.371094 C 753.125 133.078125 752.585938 122.910156 752.585938 116.699219 C 752.585938 112.648438 752.585938 106.710938 758.707031 106.710938 C 760.238281 106.710938 761.136719 107.25 762.398438 107.96875 Z M 787.238281 140.371094 C 786.785156 133.441406 786.425781 128.128906 786.425781 115.710938 C 786.425781 108.058594 786.605469 100.320312 786.695312 92.671875 L 786.066406 91.949219 L 770.585938 94.648438 L 770.046875 95.191406 C 770.765625 102.03125 771.035156 105.179688 771.035156 117.960938 C 771.035156 127.769531 770.765625 133.261719 770.496094 140.640625 L 771.035156 141.269531 C 777.515625 141 779.316406 140.910156 786.605469 141 L 787.238281 140.371094 M 785.796875 83.308594 L 786.066406 71.070312 L 785.527344 70.53125 L 770.855469 72.328125 L 770.316406 72.960938 C 770.496094 76.199219 770.585938 78.089844 770.585938 80.25 C 770.585938 81.960938 770.585938 83.761719 770.496094 85.46875 L 771.125 86.011719 C 777.246094 84.929688 778.957031 84.75 785.347656 83.941406 Z M 837.277344 114.179688 C 837.367188 106.078125 837.367188 102.570312 835.027344 98.789062 C 833.226562 95.910156 829.628906 92.308594 818.109375 92.308594 C 810.367188 92.308594 805.597656 93.75 800.46875 95.28125 L 799.929688 96 L 799.476562 105.808594 L 800.199219 106.171875 C 803.347656 104.910156 809.199219 102.570312 815.226562 102.570312 C 818.558594 102.570312 819.90625 103.109375 821.078125 104.28125 C 821.976562 105.179688 822.25 106.800781 822.25 108.148438 C 811.449219 109.589844 806.40625 110.578125 801.007812 113.910156 C 795.96875 117.058594 794.257812 122.191406 794.257812 126.238281 C 794.257812 135.871094 801.1875 142.078125 810.007812 142.078125 C 816.757812 142.078125 820.628906 138.839844 822.519531 137.308594 L 822.519531 140.640625 L 823.058594 141.269531 C 829.539062 141 831.519531 140.910156 837.367188 141 L 837.816406 140.371094 C 837.1875 131.550781 837.1875 129.300781 837.1875 120.839844 L 837.277344 114.179688 M 822.429688 128.488281 C 820.539062 129.570312 818.109375 130.828125 815.136719 130.828125 C 811.898438 130.828125 809.199219 129.121094 809.199219 125.339844 C 809.199219 119.398438 816.308594 118.410156 822.429688 117.601562 Z M 863.644531 140.371094 C 863.195312 130.019531 862.746094 120.570312 862.746094 92.128906 C 862.746094 83.578125 862.835938 79.53125 863.195312 69.808594 L 862.566406 69.179688 L 847.175781 71.609375 L 846.816406 72.148438 C 847.714844 83.128906 847.804688 86.101562 847.984375 100.679688 C 848.078125 105.988281 848.078125 111.300781 848.078125 116.609375 C 848.078125 126.328125 847.894531 131.730469 847.535156 140.640625 L 848.078125 141.269531 C 854.105469 141 856.535156 140.910156 863.105469 141 Z M 868.6875 141 "/>
<path fill-rule="nonzero" fill="rgb(34.901961%, 14.901961%, 14.901961%)" fill-opacity="1" d="M 303.890625 222.300781 C 296.332031 219.148438 292.371094 217.53125 292.371094 213.480469 C 292.371094 210.691406 294.980469 207.179688 300.921875 207.179688 C 307.761719 207.179688 311.808594 209.96875 315.140625 212.21875 L 315.949219 211.859375 L 316.671875 200.070312 L 316.21875 199.441406 C 312.351562 197.820312 308.300781 196.109375 299.570312 196.109375 C 282.652344 196.109375 276.800781 205.648438 276.800781 215.28125 C 276.800781 226.171875 285.261719 230.128906 290.300781 232.558594 L 293.269531 233.910156 C 299.480469 236.519531 304.25 238.769531 304.25 243.539062 C 304.25 246.960938 301.28125 251.011719 293.449219 251.011719 C 285.261719 251.011719 280.671875 247.410156 278.058594 245.339844 L 277.160156 245.609375 L 276.53125 258.300781 L 277.070312 259.019531 C 278.058594 259.378906 279.050781 259.828125 280.039062 260.101562 C 282.109375 260.820312 287.421875 262.351562 294.171875 262.351562 C 296.871094 262.351562 303.710938 262.078125 309.109375 259.558594 C 316.671875 255.871094 319.910156 249.03125 319.910156 241.378906 C 319.910156 236.25 317.929688 230.761719 313.160156 227.070312 C 310.730469 225.269531 308.390625 224.191406 306.230469 223.199219 Z M 353.660156 250.648438 C 352.128906 251.101562 351.046875 251.460938 349.519531 251.460938 C 344.929688 251.460938 344.570312 248.578125 344.386719 247.230469 C 344.117188 244.890625 344.117188 239.941406 344.207031 236.339844 L 344.386719 223.648438 L 352.488281 224.011719 L 353.027344 223.46875 L 353.929688 213.839844 L 353.386719 213.300781 L 344.386719 213.300781 L 344.660156 198.179688 L 344.027344 197.640625 C 337.910156 199.441406 336.289062 199.890625 329.898438 201.511719 L 329.539062 202.140625 L 329.628906 213.390625 L 324.769531 213.210938 L 324.230469 213.660156 L 323.417969 223.289062 L 323.957031 223.828125 L 329.628906 223.648438 L 329.359375 237.960938 C 329.269531 240.210938 329.179688 242.460938 329.179688 244.800781 C 329.179688 253.078125 329.359375 261.988281 343.398438 261.988281 C 346.910156 261.988281 349.699219 261.449219 352.847656 260.910156 L 353.480469 260.28125 L 354.378906 251.011719 Z M 400.371094 234.179688 C 400.460938 226.078125 400.460938 222.570312 398.121094 218.789062 C 396.320312 215.910156 392.722656 212.308594 381.203125 212.308594 C 373.460938 212.308594 368.691406 213.75 363.5625 215.28125 L 363.023438 216 L 362.570312 225.808594 L 363.292969 226.171875 C 366.441406 224.910156 372.292969 222.570312 378.320312 222.570312 C 381.652344 222.570312 383 223.109375 384.171875 224.28125 C 385.070312 225.179688 385.34375 226.800781 385.34375 228.148438 C 374.542969 229.589844 369.5 230.578125 364.101562 233.910156 C 359.0625 237.058594 357.351562 242.191406 357.351562 246.238281 C 357.351562 255.871094 364.28125 262.078125 373.101562 262.078125 C 379.851562 262.078125 383.722656 258.839844 385.613281 257.308594 L 385.613281 260.640625 L 386.152344 261.269531 C 392.632812 261 394.613281 260.910156 400.460938 261 L 400.910156 260.371094 C 400.28125 251.550781 400.28125 249.300781 400.28125 240.839844 L 400.371094 234.179688 M 385.523438 248.488281 C 383.632812 249.570312 381.203125 250.828125 378.230469 250.828125 C 374.992188 250.828125 372.292969 249.121094 372.292969 245.339844 C 372.292969 239.398438 379.402344 238.410156 385.523438 237.601562 Z M 436.101562 250.648438 C 434.570312 251.101562 433.488281 251.460938 431.960938 251.460938 C 427.371094 251.460938 427.011719 248.578125 426.828125 247.230469 C 426.558594 244.890625 426.558594 239.941406 426.648438 236.339844 L 426.828125 223.648438 L 434.929688 224.011719 L 435.46875 223.46875 L 436.371094 213.839844 L 435.828125 213.300781 L 426.828125 213.300781 L 427.101562 198.179688 L 426.46875 197.640625 C 420.351562 199.441406 418.730469 199.890625 412.339844 201.511719 L 411.980469 202.140625 L 412.070312 213.390625 L 407.210938 213.210938 L 406.671875 213.660156 L 405.859375 223.289062 L 406.398438 223.828125 L 412.070312 223.648438 L 411.800781 237.960938 C 411.710938 240.210938 411.621094 242.460938 411.621094 244.800781 C 411.621094 253.078125 411.800781 261.988281 425.839844 261.988281 C 429.351562 261.988281 432.140625 261.449219 435.289062 260.910156 L 435.921875 260.28125 L 436.820312 251.011719 Z M 482.71875 247.679688 C 479.300781 249.480469 475.25 251.550781 468.679688 251.550781 C 463.28125 251.550781 459.589844 249.839844 457.429688 246.601562 C 456.078125 244.710938 455.808594 242.910156 455.449219 241.109375 L 484.519531 240.570312 L 485.058594 239.941406 C 484.96875 235.53125 484.878906 231.03125 483.621094 226.53125 C 480.46875 215.910156 473.539062 213.75 470.480469 213.03125 C 468.230469 212.398438 466.160156 212.21875 464.089844 212.21875 C 449.960938 212.21875 440.597656 221.488281 440.597656 237.058594 C 440.597656 241.289062 441.320312 245.699219 442.757812 248.851562 C 447.980469 261 460.21875 262.078125 466.699219 262.078125 C 474.167969 262.078125 477.410156 260.730469 482.179688 258.839844 L 482.71875 258.121094 L 483.347656 247.949219 L 482.71875 247.679688 M 455.449219 231.570312 C 455.71875 228.78125 456.347656 225 459.769531 222.839844 C 460.847656 222.121094 462.109375 221.851562 463.371094 221.851562 C 466.339844 221.851562 468.140625 223.378906 469.128906 225 C 470.390625 226.980469 470.480469 229.140625 470.480469 231.210938 Z M 531.679688 197.28125 L 520.25 197.460938 L 519.707031 198 C 520.070312 209.699219 520.339844 217.53125 520.339844 227.878906 C 520.339844 238.859375 520.070312 249.75 519.796875 260.730469 L 520.339844 261.269531 C 527 261 528.4375 260.910156 535.640625 261 L 536.089844 260.460938 C 535.730469 250.648438 535.730469 248.398438 535.730469 239.21875 C 545.808594 239.308594 556.609375 239.308594 563.089844 231.390625 C 565.609375 228.328125 567.769531 223.199219 567.769531 216.898438 C 567.769531 213.03125 566.867188 204.480469 559.398438 200.25 C 554 197.101562 546.347656 197.101562 539.597656 197.101562 L 531.679688 197.28125 M 535.730469 208.171875 C 537.707031 208.078125 539.597656 208.078125 541.578125 208.078125 C 549.5 208.261719 551.660156 212.308594 551.660156 217.53125 C 551.660156 218.789062 551.660156 224.011719 546.890625 226.621094 C 544.457031 227.96875 541.128906 228.148438 535.730469 228.148438 Z M 614.03125 234.179688 C 614.121094 226.078125 614.121094 222.570312 611.78125 218.789062 C 609.980469 215.910156 606.382812 212.308594 594.863281 212.308594 C 587.121094 212.308594 582.351562 213.75 577.222656 215.28125 L 576.683594 216 L 576.230469 225.808594 L 576.953125 226.171875 C 580.101562 224.910156 585.953125 222.570312 591.980469 222.570312 C 595.3125 222.570312 596.660156 223.109375 597.832031 224.28125 C 598.730469 225.179688 599.003906 226.800781 599.003906 228.148438 C 588.203125 229.589844 583.160156 230.578125 577.761719 233.910156 C 572.722656 237.058594 571.011719 242.191406 571.011719 246.238281 C 571.011719 255.871094 577.941406 262.078125 586.761719 262.078125 C 593.511719 262.078125 597.382812 258.839844 599.273438 257.308594 L 599.273438 260.640625 L 599.8125 261.269531 C 606.292969 261 608.273438 260.910156 614.121094 261 L 614.570312 260.371094 C 613.941406 251.550781 613.941406 249.300781 613.941406 240.839844 L 614.03125 234.179688 M 599.183594 248.488281 C 597.292969 249.570312 594.863281 250.828125 591.890625 250.828125 C 588.652344 250.828125 585.953125 249.121094 585.953125 245.339844 C 585.953125 239.398438 593.0625 238.410156 599.183594 237.601562 Z M 650.570312 227.609375 L 653.089844 212.941406 L 652.550781 212.308594 C 651.921875 212.308594 651.289062 212.21875 650.660156 212.21875 C 646.96875 212.21875 642.832031 214.289062 639.949219 220.949219 L 640.21875 212.671875 L 639.5 211.949219 C 632.839844 213.390625 631.128906 213.660156 624.558594 214.648438 L 624.019531 215.191406 C 624.558594 221.941406 624.832031 225.988281 624.832031 238.5 C 624.832031 245.878906 624.738281 253.261719 624.558594 260.730469 L 625.101562 261.269531 C 631.761719 261 633.199219 260.910156 640.398438 261 L 640.851562 260.371094 C 640.488281 253.078125 639.949219 242.910156 639.949219 236.699219 C 639.949219 232.648438 639.949219 226.710938 646.070312 226.710938 C 647.601562 226.710938 648.5 227.25 649.761719 227.96875 Z M 704.570312 259.828125 C 696.109375 245.519531 695.210938 243.898438 688.371094 231.570312 C 694.582031 223.109375 695.210938 222.210938 701.601562 214.019531 L 701.148438 213.121094 L 686.480469 213.300781 L 685.582031 213.929688 C 678.558594 226.078125 677.660156 227.519531 673.519531 233.730469 L 673.519531 223.738281 C 673.609375 206.910156 673.699219 203.308594 674.148438 189.71875 L 673.429688 189.179688 L 657.769531 191.519531 L 657.230469 192.148438 C 657.859375 200.878906 658.128906 205.109375 658.308594 216.898438 C 658.488281 231.480469 658.488281 246.058594 658.398438 260.640625 L 659.03125 261.269531 C 665.058594 261 666.769531 261 673.609375 261 L 674.148438 260.371094 L 673.609375 245.160156 L 673.519531 234.808594 C 681.351562 249.210938 682.339844 251.191406 686.929688 260.730469 L 687.738281 261.269531 L 703.941406 260.640625 Z M 703.492188 261 "/>
</svg>
