<?xml version="1.0" encoding="UTF-8"?>
<svg xmlns="http://www.w3.org/2000/svg" xmlns:xlink="http://www.w3.org/1999/xlink" width="975" height="1300" viewBox="0 0 975 1300">
<path fill-rule="nonzero" fill="rgb(98.823529%, 78.823529%, 9.019608%)" fill-opacity="1" d="M 50 50 L 925 50 L 925 290 L 50 290 Z M 50 50 "/>
<path fill-rule="nonzero" fill="rgb(34.901961%, 14.901961%, 14.901961%)" fill-opacity="1" d="M 171.273438 140.460938 L 172.082031 129.480469 L 171.542969 128.851562 C 160.023438 129.300781 157.234375 129.300781 147.511719 129.390625 L 172.261719 77.910156 L 171.8125 77.460938 L 128.792969 77.460938 L 128.253906 78 L 127.441406 88.800781 L 127.984375 89.339844 L 150.214844 88.980469 L 146.433594 96.808594 L 141.394531 107.609375 C 132.753906 125.519531 127.351562 136.859375 125.554688 140.460938 L 126.09375 141 L 170.644531 141 Z M 250.382812 140.371094 C 249.929688 132 249.839844 129.660156 249.839844 119.488281 L 249.839844 112.738281 C 249.929688 106.710938 250.019531 101.128906 247.410156 97.351562 C 243.902344 92.21875 237.691406 92.21875 236.25 92.21875 C 228.871094 92.21875 223.921875 95.550781 220.320312 98.070312 C 219.0625 96 216.8125 92.21875 209.613281 92.21875 C 203.671875 92.21875 199.800781 94.921875 195.660156 97.800781 L 195.660156 92.761719 L 194.851562 91.949219 C 187.832031 93.300781 185.851562 93.660156 179.550781 94.558594 L 179.011719 95.191406 C 179.730469 102.390625 180.269531 107.339844 180.269531 125.160156 C 180.269531 130.289062 180.179688 135.511719 180.179688 140.640625 L 180.632812 141.179688 C 186.390625 141 188.371094 140.910156 195.839844 140.910156 L 196.382812 140.371094 C 195.75 126.511719 195.660156 122.371094 195.570312 106.710938 C 197.460938 105.359375 199.53125 104.191406 201.78125 104.191406 C 207.363281 104.191406 207.542969 110.578125 207.542969 118.320312 C 207.542969 131.371094 207.453125 133.351562 207.269531 140.640625 L 207.8125 141.269531 C 214.652344 140.910156 216.542969 140.910156 222.75 140.910156 L 223.292969 140.371094 C 222.75 131.820312 222.660156 129.300781 222.570312 118.410156 L 222.570312 115.078125 L 222.480469 105.988281 C 224.011719 105 225.992188 103.738281 228.691406 103.738281 C 233.820312 103.738281 234.632812 108.601562 234.632812 116.339844 C 234.632812 118.050781 234.542969 119.761719 234.542969 121.46875 C 234.453125 124.53125 234.363281 137.941406 234.269531 140.640625 L 234.8125 141.179688 C 241.5625 140.910156 243.542969 140.910156 249.839844 140.910156 Z M 303.933594 92.851562 L 289.261719 93.570312 L 288.632812 94.109375 C 289.261719 104.28125 289.261719 118.679688 289.261719 120.121094 C 289.261719 122.730469 289.261719 124.171875 289.171875 127.769531 C 286.742188 129.390625 284.851562 130.738281 282.421875 130.738281 C 275.941406 130.738281 275.941406 123.898438 275.941406 118.589844 C 275.941406 116.339844 275.941406 114 276.03125 111.75 L 276.210938 93.570312 L 275.582031 92.851562 L 260.730469 93.570312 L 260.101562 94.109375 C 260.640625 101.671875 260.730469 104.191406 260.730469 113.28125 L 260.730469 119.578125 C 260.640625 129.390625 261.09375 133.53125 264.332031 137.308594 C 267.300781 140.640625 271.621094 142.078125 276.121094 142.078125 C 282.511719 142.078125 286.203125 139.199219 289.441406 136.679688 L 289.351562 140.730469 L 289.980469 141.269531 C 296.550781 141 298.53125 141 304.382812 141 L 304.921875 140.460938 C 304.472656 134.070312 304.292969 130.648438 304.292969 118.949219 C 304.292969 110.488281 304.382812 102.03125 304.5625 93.570312 Z M 359.191406 140.460938 C 358.832031 132.359375 358.5625 126.960938 358.5625 115.171875 C 358.5625 91.410156 358.921875 81.601562 359.28125 69.71875 L 358.652344 69.179688 L 343.800781 71.519531 L 343.351562 72.058594 C 343.890625 80.519531 343.980469 82.769531 343.890625 93.03125 C 337.140625 92.851562 328.679688 92.671875 321.839844 98.070312 C 315.542969 102.929688 312.929688 110.398438 312.929688 119.671875 C 312.929688 126.691406 314.820312 133.710938 320.132812 138.121094 C 324.089844 141.359375 328.953125 142.078125 331.921875 142.078125 C 338.3125 142.078125 341.640625 139.109375 343.800781 137.21875 L 343.621094 140.730469 L 344.070312 141.269531 C 350.28125 141 351.992188 141 358.742188 141 L 359.191406 140.460938 M 343.890625 103.828125 C 343.980469 115.800781 343.890625 118.140625 343.621094 129.03125 C 341.820312 130.109375 340.019531 131.191406 337.5 131.191406 C 328.769531 131.191406 328.769531 120.03125 328.769531 118.230469 C 328.769531 111.300781 330.75 103.558594 340.832031 103.558594 C 341.820312 103.558594 342.632812 103.648438 343.890625 103.828125 Z M 415.265625 117.058594 C 415.265625 113.550781 415.265625 98.96875 402.664062 94.019531 C 398.703125 92.488281 394.023438 92.308594 391.683594 92.308594 C 376.023438 92.308594 367.203125 100.679688 367.203125 117.238281 C 367.203125 123 368.105469 128.851562 371.433594 133.710938 C 373.773438 137.21875 378.183594 142.078125 391.054688 142.078125 C 410.132812 142.078125 415.265625 130.558594 415.265625 117.058594 M 399.695312 116.96875 C 399.695312 124.351562 398.703125 132.539062 391.234375 132.539062 C 388.894531 132.539062 387.273438 131.460938 386.195312 130.46875 C 384.664062 128.941406 382.953125 125.878906 382.953125 117.148438 C 382.953125 114.539062 382.953125 108.78125 384.753906 105.628906 C 386.105469 103.199219 388.445312 101.578125 391.324219 101.578125 C 393.84375 101.578125 395.914062 102.929688 397.085938 104.371094 C 399.246094 106.980469 399.695312 112.109375 399.695312 116.96875 Z M 479.433594 140.371094 C 483.035156 126.421875 483.664062 124.261719 489.0625 104.910156 C 490.144531 101.21875 491.132812 97.441406 492.125 93.75 L 491.585938 93.03125 L 479.882812 93.300781 L 479.253906 93.929688 L 476.644531 107.429688 L 474.125 118.320312 L 472.414062 126.601562 L 470.882812 118.589844 L 468.902344 109.230469 L 465.753906 93.660156 L 465.214844 93.03125 L 447.933594 93.300781 L 447.304688 93.929688 L 444.335938 108.691406 L 442.175781 118.589844 L 440.464844 126.871094 L 438.753906 117.960938 L 436.59375 108.238281 L 433.535156 93.300781 L 432.992188 92.851562 L 418.414062 93.929688 L 417.875 94.648438 C 426.335938 124.351562 427.683594 129.660156 430.203125 140.730469 L 430.835938 141.269531 C 437.042969 141 439.292969 140.910156 447.574219 141 L 448.113281 140.371094 L 450.453125 129.390625 L 452.972656 118.5 L 455.222656 107.609375 L 456.574219 114.449219 L 457.925781 121.109375 L 461.703125 140.640625 L 462.335938 141.269531 C 468.992188 141 471.695312 140.910156 478.894531 141 Z M 515.792969 109.949219 C 512.730469 108.871094 510.300781 107.878906 510.300781 105.359375 C 510.300781 104.28125 511.023438 101.308594 516.601562 101.308594 C 522.09375 101.308594 525.601562 103.648438 527.851562 105.089844 L 528.664062 104.820312 L 529.5625 95.011719 L 529.113281 94.46875 C 524.882812 93.300781 521.191406 92.21875 515.34375 92.21875 C 510.933594 92.21875 502.113281 92.578125 497.433594 99.328125 C 496.261719 100.949219 495.003906 103.648438 495.003906 107.25 C 495.003906 116.878906 502.472656 119.761719 506.703125 121.378906 L 510.121094 122.640625 C 512.550781 123.449219 516.511719 124.800781 516.511719 128.039062 C 516.511719 130.289062 514.441406 132.71875 509.402344 132.71875 C 506.882812 132.71875 503.191406 131.910156 499.863281 130.199219 C 498.332031 129.390625 497.613281 128.761719 496.261719 127.679688 L 495.453125 128.039062 C 495.273438 132.71875 495.183594 133.710938 494.820312 138.210938 L 495.273438 139.019531 C 499.683594 140.640625 503.460938 142.078125 510.03125 142.078125 C 516.871094 142.078125 530.371094 140.820312 531.992188 127.949219 C 532.082031 127.230469 532.082031 126.601562 532.082031 125.96875 C 532.082031 116.070312 525.152344 113.460938 520.203125 111.570312 Z M 586.261719 139.828125 C 577.800781 125.519531 576.902344 123.898438 570.0625 111.570312 C 576.273438 103.109375 576.902344 102.210938 583.292969 94.019531 L 582.839844 93.121094 L 568.171875 93.300781 L 567.273438 93.929688 C 560.25 106.078125 559.351562 107.519531 555.210938 113.730469 L 555.210938 103.738281 C 555.300781 86.910156 555.390625 83.308594 555.839844 69.71875 L 555.121094 69.179688 L 539.460938 71.519531 L 538.921875 72.148438 C 539.550781 80.878906 539.820312 85.109375 540 96.898438 C 540.179688 111.480469 540.179688 126.058594 540.089844 140.640625 L 540.722656 141.269531 C 546.75 141 548.460938 141 555.300781 141 L 555.839844 140.371094 L 555.300781 125.160156 L 555.210938 114.808594 C 563.042969 129.210938 564.03125 131.191406 568.621094 140.730469 L 569.429688 141.269531 L 585.632812 140.640625 Z M 606.875 140.371094 C 606.421875 133.441406 606.0625 128.128906 606.0625 115.710938 C 606.0625 108.058594 606.242188 100.320312 606.332031 92.671875 L 605.703125 91.949219 L 590.222656 94.648438 L 589.683594 95.191406 C 590.402344 102.03125 590.671875 105.179688 590.671875 117.960938 C 590.671875 127.769531 590.402344 133.261719 590.132812 140.640625 L 590.671875 141.269531 C 597.152344 141 598.953125 140.910156 606.242188 141 L 606.875 140.371094 M 605.433594 83.308594 L 605.703125 71.070312 L 605.164062 70.53125 L 590.492188 72.328125 L 589.953125 72.960938 C 590.132812 76.199219 590.222656 78.089844 590.222656 80.25 C 590.222656 81.960938 590.222656 83.761719 590.132812 85.46875 L 590.761719 86.011719 C 596.882812 84.929688 598.59375 84.75 604.984375 83.941406 Z M 669.152344 102.300781 C 661.59375 99.148438 657.632812 97.53125 657.632812 93.480469 C 657.632812 90.691406 660.242188 87.179688 666.183594 87.179688 C 673.023438 87.179688 677.070312 89.96875 680.402344 92.21875 L 681.210938 91.859375 L 681.933594 80.070312 L 681.480469 79.441406 C 677.613281 77.820312 673.5625 76.109375 664.832031 76.109375 C 647.914062 76.109375 642.0625 85.648438 642.0625 95.28125 C 642.0625 106.171875 650.523438 110.128906 655.5625 112.558594 L 658.53125 113.910156 C 664.742188 116.519531 669.511719 118.769531 669.511719 123.539062 C 669.511719 126.960938 666.542969 131.011719 658.710938 131.011719 C 650.523438 131.011719 645.933594 127.410156 643.320312 125.339844 L 642.421875 125.609375 L 641.792969 138.300781 L 642.332031 139.019531 C 643.320312 139.378906 644.3125 139.828125 645.300781 140.101562 C 647.371094 140.820312 652.683594 142.351562 659.433594 142.351562 C 662.132812 142.351562 668.972656 142.078125 674.371094 139.558594 C 681.933594 135.871094 685.171875 129.03125 685.171875 121.378906 C 685.171875 116.25 683.191406 110.761719 678.421875 107.070312 C 675.992188 105.269531 673.652344 104.191406 671.492188 103.199219 Z M 718.925781 130.648438 C 717.394531 131.101562 716.3125 131.460938 714.785156 131.460938 C 710.195312 131.460938 709.835938 128.578125 709.652344 127.230469 C 709.382812 124.890625 709.382812 119.941406 709.472656 116.339844 L 709.652344 103.648438 L 717.753906 104.011719 L 718.292969 103.46875 L 719.195312 93.839844 L 718.652344 93.300781 L 709.652344 93.300781 L 709.925781 78.179688 L 709.292969 77.640625 C 703.175781 79.441406 701.554688 79.890625 695.164062 81.511719 L 694.804688 82.140625 L 694.894531 93.390625 L 690.035156 93.210938 L 689.496094 93.660156 L 688.683594 103.289062 L 689.222656 103.828125 L 694.894531 103.648438 L 694.625 117.960938 C 694.535156 120.210938 694.445312 122.460938 694.445312 124.800781 C 694.445312 133.078125 694.625 141.988281 708.664062 141.988281 C 712.175781 141.988281 714.964844 141.449219 718.113281 140.910156 L 718.746094 140.28125 L 719.644531 131.011719 Z M 765.632812 114.179688 C 765.722656 106.078125 765.722656 102.570312 763.382812 98.789062 C 761.582031 95.910156 757.984375 92.308594 746.464844 92.308594 C 738.722656 92.308594 733.953125 93.75 728.824219 95.28125 L 728.285156 96 L 727.832031 105.808594 L 728.554688 106.171875 C 731.703125 104.910156 737.554688 102.570312 743.582031 102.570312 C 746.914062 102.570312 748.261719 103.109375 749.433594 104.28125 C 750.332031 105.179688 750.605469 106.800781 750.605469 108.148438 C 739.804688 109.589844 734.761719 110.578125 729.363281 113.910156 C 724.324219 117.058594 722.613281 122.191406 722.613281 126.238281 C 722.613281 135.871094 729.542969 142.078125 738.363281 142.078125 C 745.113281 142.078125 748.984375 138.839844 750.875 137.308594 L 750.875 140.640625 L 751.414062 141.269531 C 757.894531 141 759.875 140.910156 765.722656 141 L 766.171875 140.371094 C 765.542969 131.550781 765.542969 129.300781 765.542969 120.839844 L 765.632812 114.179688 M 750.785156 128.488281 C 748.894531 129.570312 746.464844 130.828125 743.492188 130.828125 C 740.253906 130.828125 737.554688 129.121094 737.554688 125.339844 C 737.554688 119.398438 744.664062 118.410156 750.785156 117.601562 Z M 801.363281 130.648438 C 799.832031 131.101562 798.75 131.460938 797.222656 131.460938 C 792.632812 131.460938 792.273438 128.578125 792.089844 127.230469 C 791.820312 124.890625 791.820312 119.941406 791.910156 116.339844 L 792.089844 103.648438 L 800.191406 104.011719 L 800.730469 103.46875 L 801.632812 93.839844 L 801.089844 93.300781 L 792.089844 93.300781 L 792.363281 78.179688 L 791.730469 77.640625 C 785.613281 79.441406 783.992188 79.890625 777.601562 81.511719 L 777.242188 82.140625 L 777.332031 93.390625 L 772.472656 93.210938 L 771.933594 93.660156 L 771.121094 103.289062 L 771.660156 103.828125 L 777.332031 103.648438 L 777.0625 117.960938 C 776.972656 120.210938 776.882812 122.460938 776.882812 124.800781 C 776.882812 133.078125 777.0625 141.988281 791.101562 141.988281 C 794.613281 141.988281 797.402344 141.449219 800.550781 140.910156 L 801.183594 140.28125 L 802.082031 131.011719 Z M 847.984375 127.679688 C 844.566406 129.480469 840.515625 131.550781 833.945312 131.550781 C 828.546875 131.550781 824.855469 129.839844 822.695312 126.601562 C 821.34375 124.710938 821.074219 122.910156 820.714844 121.109375 L 849.785156 120.570312 L 850.324219 119.941406 C 850.234375 115.53125 850.144531 111.03125 848.886719 106.53125 C 845.734375 95.910156 838.804688 93.75 835.746094 93.03125 C 833.496094 92.398438 831.425781 92.21875 829.355469 92.21875 C 815.226562 92.21875 805.863281 101.488281 805.863281 117.058594 C 805.863281 121.289062 806.585938 125.699219 808.023438 128.851562 C 813.246094 141 825.484375 142.078125 831.964844 142.078125 C 839.433594 142.078125 842.675781 140.730469 847.445312 138.839844 L 847.984375 138.121094 L 848.613281 127.949219 L 847.984375 127.679688 M 820.714844 111.570312 C 820.984375 108.78125 821.613281 105 825.035156 102.839844 C 826.113281 102.121094 827.375 101.851562 828.636719 101.851562 C 831.605469 101.851562 833.40625 103.378906 834.394531 105 C 835.65625 106.980469 835.746094 109.140625 835.746094 111.210938 Z M 853.203125 141 "/>
<path fill-rule="nonzero" fill="rgb(34.901961%, 14.901961%, 14.901961%)" fill-opacity="1" d="M 385.519531 261 C 393.890625 261.179688 404.238281 261.359375 410.988281 256.679688 C 416.929688 252.449219 418.550781 246.511719 418.550781 241.46875 C 418.550781 235.710938 416.117188 230.398438 410.988281 227.878906 C 409.277344 226.980469 407.300781 226.621094 405.410156 226.261719 C 408.46875 225 412.070312 223.378906 414.410156 218.609375 C 415.398438 216.539062 415.847656 214.378906 415.847656 212.308594 C 415.847656 209.429688 415.128906 205.46875 412.25 202.230469 C 408.46875 198.179688 402.617188 197.101562 393.800781 197.101562 C 390.738281 197.101562 385.25 197.191406 382.1875 197.28125 L 369.589844 197.460938 L 369.050781 198 C 369.410156 206.640625 369.5 209.96875 369.5 222.390625 C 369.5 235.171875 369.410156 247.859375 369.230469 260.640625 L 369.859375 261 L 385.519531 261 M 384.890625 233.640625 C 391.730469 233.460938 395.6875 233.460938 398.300781 234.988281 C 400.910156 236.609375 401.898438 239.488281 401.898438 242.371094 C 401.898438 246.421875 399.648438 248.941406 396.320312 250.109375 C 393.617188 251.011719 388.757812 251.011719 384.890625 250.921875 L 384.890625 233.640625 M 384.890625 207.179688 C 386.777344 207.179688 389.300781 207.089844 390.828125 207.089844 C 395.6875 207.089844 400.097656 208.800781 400.097656 214.648438 C 400.097656 219.421875 396.589844 221.398438 395.507812 221.941406 C 393.257812 222.929688 388.488281 222.929688 384.890625 222.929688 Z M 466.878906 247.679688 C 463.460938 249.480469 459.410156 251.550781 452.839844 251.550781 C 447.441406 251.550781 443.75 249.839844 441.589844 246.601562 C 440.238281 244.710938 439.96875 242.910156 439.609375 241.109375 L 468.679688 240.570312 L 469.21875 239.941406 C 469.128906 235.53125 469.039062 231.03125 467.78125 226.53125 C 464.628906 215.910156 457.699219 213.75 454.640625 213.03125 C 452.390625 212.398438 450.320312 212.21875 448.25 212.21875 C 434.121094 212.21875 424.757812 221.488281 424.757812 237.058594 C 424.757812 241.289062 425.480469 245.699219 426.917969 248.851562 C 432.140625 261 444.378906 262.078125 450.859375 262.078125 C 458.328125 262.078125 461.570312 260.730469 466.339844 258.839844 L 466.878906 258.121094 L 467.507812 247.949219 L 466.878906 247.679688 M 439.609375 231.570312 C 439.878906 228.78125 440.507812 225 443.929688 222.839844 C 445.007812 222.121094 446.269531 221.851562 447.53125 221.851562 C 450.5 221.851562 452.300781 223.378906 453.289062 225 C 454.550781 226.980469 454.640625 229.140625 454.640625 231.210938 Z M 517.546875 234.179688 C 517.636719 226.078125 517.636719 222.570312 515.296875 218.789062 C 513.496094 215.910156 509.898438 212.308594 498.378906 212.308594 C 490.636719 212.308594 485.867188 213.75 480.738281 215.28125 L 480.199219 216 L 479.746094 225.808594 L 480.46875 226.171875 C 483.617188 224.910156 489.46875 222.570312 495.496094 222.570312 C 498.828125 222.570312 500.175781 223.109375 501.347656 224.28125 C 502.246094 225.179688 502.519531 226.800781 502.519531 228.148438 C 491.71875 229.589844 486.675781 230.578125 481.277344 233.910156 C 476.238281 237.058594 474.527344 242.191406 474.527344 246.238281 C 474.527344 255.871094 481.457031 262.078125 490.277344 262.078125 C 497.027344 262.078125 500.898438 258.839844 502.789062 257.308594 L 502.789062 260.640625 L 503.328125 261.269531 C 509.808594 261 511.789062 260.910156 517.636719 261 L 518.085938 260.371094 C 517.457031 251.550781 517.457031 249.300781 517.457031 240.839844 L 517.546875 234.179688 M 502.699219 248.488281 C 500.808594 249.570312 498.378906 250.828125 495.40625 250.828125 C 492.167969 250.828125 489.46875 249.121094 489.46875 245.339844 C 489.46875 239.398438 496.578125 238.410156 502.699219 237.601562 Z M 563.269531 248.039062 C 560.839844 249.480469 558.5 250.921875 553.910156 250.921875 C 543.738281 250.921875 541.667969 242.460938 541.667969 237.058594 C 541.667969 230.488281 544.550781 222.929688 553.28125 222.929688 C 557.238281 222.929688 559.398438 224.371094 562.101562 226.171875 L 563 225.898438 C 563.359375 221.128906 563.449219 219.871094 564.167969 215.101562 L 563.71875 214.558594 C 559.757812 213.300781 556.339844 212.21875 551.121094 212.21875 C 529.96875 212.21875 525.828125 228.238281 525.828125 237.421875 C 525.828125 247.769531 531.230469 261.808594 551.480469 261.808594 C 556.25 261.808594 559.308594 260.910156 563.089844 259.828125 L 563.628906 259.289062 L 563.988281 248.488281 Z M 615.289062 260.371094 C 614.929688 252.988281 614.839844 250.46875 614.660156 241.109375 L 614.660156 234.359375 C 614.570312 225.808594 614.480469 220.859375 611.867188 217.078125 C 609.257812 213.390625 605.480469 212.21875 601.519531 212.21875 C 594.949219 212.21875 589.820312 215.371094 586.21875 217.53125 L 586.488281 189.808594 L 585.949219 189.179688 L 570.558594 191.609375 L 570.109375 192.148438 C 570.917969 200.878906 571.097656 204.121094 571.277344 215.730469 C 571.460938 223.019531 571.550781 230.308594 571.550781 237.601562 C 571.550781 246.511719 571.367188 251.820312 571.1875 260.640625 L 571.640625 261.269531 C 578.300781 260.910156 579.648438 260.910156 586.9375 260.910156 L 587.480469 260.371094 C 586.847656 246.871094 586.757812 242.820312 586.667969 226.890625 C 588.378906 225.71875 590.539062 224.191406 593.597656 224.191406 C 598.550781 224.191406 598.910156 229.320312 599.269531 232.921875 C 599.449219 235.710938 599.539062 248.488281 599.539062 251.820312 C 599.539062 254.789062 599.449219 257.671875 599.449219 260.640625 L 599.898438 261.269531 C 606.378906 260.910156 607.820312 260.910156 614.75 260.910156 Z M 620.148438 261 "/>
</svg>
