<?xml version="1.0" encoding="UTF-8"?>
<svg xmlns="http://www.w3.org/2000/svg" xmlns:xlink="http://www.w3.org/1999/xlink" width="975" height="1300" viewBox="0 0 975 1300">
<path fill-rule="nonzero" fill="rgb(98.823529%, 78.823529%, 9.019608%)" fill-opacity="1" d="M 50 50 L 925 50 L 925 290 L 50 290 Z M 50 50 "/>
<path fill-rule="nonzero" fill="rgb(34.901961%, 14.901961%, 14.901961%)" fill-opacity="1" d="M 151.25 77.191406 C 141.890625 77.460938 140.359375 77.460938 130.371094 77.460938 L 129.832031 78 L 125.691406 92.578125 L 122.089844 105.628906 L 117.859375 121.289062 L 113.898438 105.179688 L 111.378906 95.011719 L 106.878906 77.730469 L 106.429688 77.191406 C 96.800781 77.460938 95.179688 77.460938 85.101562 77.460938 L 84.558594 78 C 83.660156 104.910156 83.300781 111.839844 81.320312 140.730469 L 81.769531 141.269531 C 87.53125 141 89.242188 140.910156 94.460938 141 L 95 140.460938 L 95.269531 123.269531 L 95.808594 105.808594 L 96.171875 88.800781 L 100.128906 104.730469 L 103.550781 117.511719 L 109.582031 140.730469 L 110.121094 141.269531 C 115.699219 141 117.230469 140.910156 123.53125 141 L 124.070312 140.460938 L 129.289062 121.289062 L 132.890625 108.148438 L 137.929688 89.25 L 137.929688 105.359375 L 138.109375 119.128906 L 138.109375 140.730469 L 138.558594 141.269531 C 144.769531 141 147.199219 140.910156 154.128906 141 L 154.582031 140.460938 C 154.039062 130.199219 153.410156 119.851562 153.050781 109.5 C 152.78125 103.828125 152.601562 98.160156 152.332031 92.488281 C 151.878906 84.121094 151.789062 83.039062 151.789062 77.730469 Z M 210.5625 117.058594 C 210.5625 113.550781 210.5625 98.96875 197.960938 94.019531 C 194 92.488281 189.320312 92.308594 186.980469 92.308594 C 171.320312 92.308594 162.5 100.679688 162.5 117.238281 C 162.5 123 163.402344 128.851562 166.730469 133.710938 C 169.070312 137.21875 173.480469 142.078125 186.351562 142.078125 C 205.429688 142.078125 210.5625 130.558594 210.5625 117.058594 M 194.992188 116.96875 C 194.992188 124.351562 194 132.539062 186.53125 132.539062 C 184.191406 132.539062 182.570312 131.460938 181.492188 130.46875 C 179.960938 128.941406 178.25 125.878906 178.25 117.148438 C 178.25 114.539062 178.25 108.78125 180.050781 105.628906 C 181.402344 103.199219 183.742188 101.578125 186.621094 101.578125 C 189.140625 101.578125 191.210938 102.929688 192.382812 104.371094 C 194.542969 106.980469 194.992188 112.109375 194.992188 116.96875 Z M 238.011719 109.949219 C 234.949219 108.871094 232.519531 107.878906 232.519531 105.359375 C 232.519531 104.28125 233.242188 101.308594 238.820312 101.308594 C 244.3125 101.308594 247.820312 103.648438 250.070312 105.089844 L 250.882812 104.820312 L 251.78125 95.011719 L 251.332031 94.46875 C 247.101562 93.300781 243.410156 92.21875 237.5625 92.21875 C 233.152344 92.21875 224.332031 92.578125 219.652344 99.328125 C 218.480469 100.949219 217.222656 103.648438 217.222656 107.25 C 217.222656 116.878906 224.691406 119.761719 228.921875 121.378906 L 232.339844 122.640625 C 234.769531 123.449219 238.730469 124.800781 238.730469 128.039062 C 238.730469 130.289062 236.660156 132.71875 231.621094 132.71875 C 229.101562 132.71875 225.410156 131.910156 222.082031 130.199219 C 220.550781 129.390625 219.832031 128.761719 218.480469 127.679688 L 217.671875 128.039062 C 217.492188 132.71875 217.402344 133.710938 217.039062 138.210938 L 217.492188 139.019531 C 221.902344 140.640625 225.679688 142.078125 232.25 142.078125 C 239.089844 142.078125 252.589844 140.820312 254.210938 127.949219 C 254.300781 127.230469 254.300781 126.601562 254.300781 125.96875 C 254.300781 116.070312 247.371094 113.460938 242.421875 111.570312 Z M 281.121094 109.949219 C 278.058594 108.871094 275.628906 107.878906 275.628906 105.359375 C 275.628906 104.28125 276.351562 101.308594 281.929688 101.308594 C 287.421875 101.308594 290.929688 103.648438 293.179688 105.089844 L 293.992188 104.820312 L 294.890625 95.011719 L 294.441406 94.46875 C 290.210938 93.300781 286.519531 92.21875 280.671875 92.21875 C 276.261719 92.21875 267.441406 92.578125 262.761719 99.328125 C 261.589844 100.949219 260.332031 103.648438 260.332031 107.25 C 260.332031 116.878906 267.800781 119.761719 272.03125 121.378906 L 275.449219 122.640625 C 277.878906 123.449219 281.839844 124.800781 281.839844 128.039062 C 281.839844 130.289062 279.769531 132.71875 274.730469 132.71875 C 272.210938 132.71875 268.519531 131.910156 265.191406 130.199219 C 263.660156 129.390625 262.941406 128.761719 261.589844 127.679688 L 260.78125 128.039062 C 260.601562 132.71875 260.511719 133.710938 260.148438 138.210938 L 260.601562 139.019531 C 265.011719 140.640625 268.789062 142.078125 275.359375 142.078125 C 282.199219 142.078125 295.699219 140.820312 297.320312 127.949219 C 297.410156 127.230469 297.410156 126.601562 297.410156 125.96875 C 297.410156 116.070312 290.480469 113.460938 285.53125 111.570312 Z M 370.3125 128.671875 C 360.5 129.210938 352.671875 129.390625 349.972656 129.390625 L 348.171875 129.390625 C 347.992188 105.359375 348.082031 99.238281 348.800781 77.730469 L 348.261719 77.191406 C 340.519531 77.550781 338.449219 77.550781 332.242188 77.460938 L 331.699219 78 C 332.0625 85.199219 332.152344 87.359375 332.152344 98.070312 C 332.152344 112.289062 332.0625 126.511719 332.0625 140.730469 L 332.511719 141.269531 C 350.152344 141 353.390625 141 369.589844 141 L 370.039062 140.460938 L 370.761719 129.121094 Z M 418.550781 114.179688 C 418.640625 106.078125 418.640625 102.570312 416.300781 98.789062 C 414.5 95.910156 410.902344 92.308594 399.382812 92.308594 C 391.640625 92.308594 386.871094 93.75 381.742188 95.28125 L 381.203125 96 L 380.75 105.808594 L 381.472656 106.171875 C 384.621094 104.910156 390.472656 102.570312 396.5 102.570312 C 399.832031 102.570312 401.179688 103.109375 402.351562 104.28125 C 403.25 105.179688 403.523438 106.800781 403.523438 108.148438 C 392.722656 109.589844 387.679688 110.578125 382.28125 113.910156 C 377.242188 117.058594 375.53125 122.191406 375.53125 126.238281 C 375.53125 135.871094 382.460938 142.078125 391.28125 142.078125 C 398.03125 142.078125 401.902344 138.839844 403.792969 137.308594 L 403.792969 140.640625 L 404.332031 141.269531 C 410.8125 141 412.792969 140.910156 418.640625 141 L 419.089844 140.371094 C 418.460938 131.550781 418.460938 129.300781 418.460938 120.839844 L 418.550781 114.179688 M 403.703125 128.488281 C 401.8125 129.570312 399.382812 130.828125 396.410156 130.828125 C 393.171875 130.828125 390.472656 129.121094 390.472656 125.339844 C 390.472656 119.398438 397.582031 118.410156 403.703125 117.601562 Z M 473.179688 140.371094 C 472.730469 132.449219 472.730469 129.929688 472.550781 121.109375 L 472.550781 114.089844 C 472.460938 105.449219 472.371094 101.308594 470.121094 97.621094 C 467.328125 92.941406 462.199219 92.21875 458.960938 92.21875 C 453.46875 92.21875 448.699219 95.101562 444.558594 97.53125 L 444.738281 92.578125 L 443.839844 91.949219 C 436.910156 93.390625 435.378906 93.660156 428.628906 94.558594 L 428.089844 95.191406 C 428.808594 103.019531 429.351562 108.691406 429.351562 123.359375 C 429.351562 129.121094 429.257812 134.878906 429.167969 140.640625 L 429.710938 141.179688 C 436.191406 140.910156 437.539062 140.910156 444.738281 140.910156 L 445.28125 140.371094 C 444.738281 126.511719 444.648438 123 444.558594 106.890625 C 446.449219 105.628906 448.609375 104.101562 451.488281 104.101562 C 456.441406 104.101562 456.890625 109.410156 457.160156 112.648438 C 457.339844 115.621094 457.429688 127.949219 457.429688 131.371094 C 457.429688 134.429688 457.339844 137.578125 457.339844 140.640625 L 457.878906 141.179688 C 463.820312 141 465.351562 140.910156 472.550781 140.910156 Z M 527.539062 140.460938 C 527.179688 132.359375 526.910156 126.960938 526.910156 115.171875 C 526.910156 91.410156 527.269531 81.601562 527.628906 69.71875 L 527 69.179688 L 512.148438 71.519531 L 511.699219 72.058594 C 512.238281 80.519531 512.328125 82.769531 512.238281 93.03125 C 505.488281 92.851562 497.027344 92.671875 490.1875 98.070312 C 483.890625 102.929688 481.277344 110.398438 481.277344 119.671875 C 481.277344 126.691406 483.167969 133.710938 488.480469 138.121094 C 492.4375 141.359375 497.300781 142.078125 500.269531 142.078125 C 506.660156 142.078125 509.988281 139.109375 512.148438 137.21875 L 511.96875 140.730469 L 512.417969 141.269531 C 518.628906 141 520.339844 141 527.089844 141 L 527.539062 140.460938 M 512.238281 103.828125 C 512.328125 115.800781 512.238281 118.140625 511.96875 129.03125 C 510.167969 130.109375 508.367188 131.191406 505.847656 131.191406 C 497.117188 131.191406 497.117188 120.03125 497.117188 118.230469 C 497.117188 111.300781 499.097656 103.558594 509.179688 103.558594 C 510.167969 103.558594 510.980469 103.648438 512.238281 103.828125 Z M 554.089844 140.371094 C 553.636719 133.441406 553.277344 128.128906 553.277344 115.710938 C 553.277344 108.058594 553.457031 100.320312 553.546875 92.671875 L 552.917969 91.949219 L 537.4375 94.648438 L 536.898438 95.191406 C 537.617188 102.03125 537.886719 105.179688 537.886719 117.960938 C 537.886719 127.769531 537.617188 133.261719 537.347656 140.640625 L 537.886719 141.269531 C 544.367188 141 546.167969 140.910156 553.457031 141 L 554.089844 140.371094 M 552.648438 83.308594 L 552.917969 71.070312 L 552.378906 70.53125 L 537.707031 72.328125 L 537.167969 72.960938 C 537.347656 76.199219 537.4375 78.089844 537.4375 80.25 C 537.4375 81.960938 537.4375 83.761719 537.347656 85.46875 L 537.976562 86.011719 C 544.097656 84.929688 545.808594 84.75 552.199219 83.941406 Z M 608.179688 140.371094 C 607.730469 132.449219 607.730469 129.929688 607.550781 121.109375 L 607.550781 114.089844 C 607.460938 105.449219 607.371094 101.308594 605.121094 97.621094 C 602.328125 92.941406 597.199219 92.21875 593.960938 92.21875 C 588.46875 92.21875 583.699219 95.101562 579.558594 97.53125 L 579.738281 92.578125 L 578.839844 91.949219 C 571.910156 93.390625 570.378906 93.660156 563.628906 94.558594 L 563.089844 95.191406 C 563.808594 103.019531 564.351562 108.691406 564.351562 123.359375 C 564.351562 129.121094 564.257812 134.878906 564.167969 140.640625 L 564.710938 141.179688 C 571.191406 140.910156 572.539062 140.910156 579.738281 140.910156 L 580.28125 140.371094 C 579.738281 126.511719 579.648438 123 579.558594 106.890625 C 581.449219 105.628906 583.609375 104.101562 586.488281 104.101562 C 591.441406 104.101562 591.890625 109.410156 592.160156 112.648438 C 592.339844 115.621094 592.429688 127.949219 592.429688 131.371094 C 592.429688 134.429688 592.339844 137.578125 592.339844 140.640625 L 592.878906 141.179688 C 598.820312 141 600.351562 140.910156 607.550781 140.910156 Z M 635 125.789062 C 637.878906 125.878906 640.757812 126.058594 645.078125 124.621094 C 649.757812 123 656.597656 119.128906 656.597656 110.398438 C 656.597656 106.078125 655.339844 104.28125 654.167969 102.570312 L 660.378906 102.929688 L 660.917969 102.480469 L 661.550781 93.480469 L 661.007812 93.03125 C 654.078125 93.300781 652.1875 93.390625 646.519531 93.300781 L 642.378906 93.210938 C 635.988281 93.03125 627.4375 92.851562 621.589844 97.710938 C 619.609375 99.238281 615.828125 103.109375 615.828125 109.859375 C 615.828125 113.460938 616.820312 116.339844 618.4375 118.589844 C 620.417969 121.378906 622.21875 122.371094 624.46875 123.628906 C 621.949219 128.488281 620.597656 130.921875 618.527344 134.609375 L 618.527344 135.421875 L 622.308594 138.121094 C 619.609375 140.191406 615.378906 143.609375 615.378906 149.460938 C 615.378906 153.601562 617.628906 157.199219 620.960938 159.628906 C 626 163.230469 632.839844 163.410156 636.347656 163.410156 C 652.820312 163.410156 660.378906 155.128906 660.378906 146.398438 C 660.378906 135.058594 650.480469 132.898438 644.628906 131.550781 L 642.46875 131.191406 C 638.058594 130.46875 637.070312 130.199219 633.558594 128.941406 L 635 125.789062 M 642.378906 109.589844 C 642.289062 116.878906 637.878906 117.511719 636.617188 117.511719 C 635.898438 117.511719 632.75 117.328125 631.21875 113.730469 C 630.410156 111.839844 630.410156 109.679688 630.410156 109.050781 C 630.410156 104.550781 633.109375 101.671875 636.4375 101.671875 C 640.578125 101.671875 642.46875 105.628906 642.378906 109.589844 M 634.730469 143.160156 C 642.738281 145.230469 642.828125 145.230469 643.910156 146.128906 C 644.808594 146.761719 645.710938 147.75 645.710938 149.640625 C 645.710938 152.339844 643.460938 155.128906 637.519531 155.128906 C 630.859375 155.128906 628.609375 151.351562 628.609375 148.199219 C 628.609375 145.230469 630.140625 143.519531 631.21875 142.261719 Z M 719.511719 102.300781 C 711.953125 99.148438 707.992188 97.53125 707.992188 93.480469 C 707.992188 90.691406 710.601562 87.179688 716.542969 87.179688 C 723.382812 87.179688 727.429688 89.96875 730.761719 92.21875 L 731.570312 91.859375 L 732.292969 80.070312 L 731.839844 79.441406 C 727.972656 77.820312 723.921875 76.109375 715.191406 76.109375 C 698.273438 76.109375 692.421875 85.648438 692.421875 95.28125 C 692.421875 106.171875 700.882812 110.128906 705.921875 112.558594 L 708.890625 113.910156 C 715.101562 116.519531 719.871094 118.769531 719.871094 123.539062 C 719.871094 126.960938 716.902344 131.011719 709.070312 131.011719 C 700.882812 131.011719 696.292969 127.410156 693.679688 125.339844 L 692.78125 125.609375 L 692.152344 138.300781 L 692.691406 139.019531 C 693.679688 139.378906 694.671875 139.828125 695.660156 140.101562 C 697.730469 140.820312 703.042969 142.351562 709.792969 142.351562 C 712.492188 142.351562 719.332031 142.078125 724.730469 139.558594 C 732.292969 135.871094 735.53125 129.03125 735.53125 121.378906 C 735.53125 116.25 733.550781 110.761719 728.78125 107.070312 C 726.351562 105.269531 724.011719 104.191406 721.851562 103.199219 Z M 769.28125 130.648438 C 767.75 131.101562 766.667969 131.460938 765.140625 131.460938 C 760.550781 131.460938 760.191406 128.578125 760.007812 127.230469 C 759.738281 124.890625 759.738281 119.941406 759.828125 116.339844 L 760.007812 103.648438 L 768.109375 104.011719 L 768.648438 103.46875 L 769.550781 93.839844 L 769.007812 93.300781 L 760.007812 93.300781 L 760.28125 78.179688 L 759.648438 77.640625 C 753.53125 79.441406 751.910156 79.890625 745.519531 81.511719 L 745.160156 82.140625 L 745.25 93.390625 L 740.390625 93.210938 L 739.851562 93.660156 L 739.039062 103.289062 L 739.578125 103.828125 L 745.25 103.648438 L 744.980469 117.960938 C 744.890625 120.210938 744.800781 122.460938 744.800781 124.800781 C 744.800781 133.078125 744.980469 141.988281 759.019531 141.988281 C 762.53125 141.988281 765.320312 141.449219 768.46875 140.910156 L 769.101562 140.28125 L 770 131.011719 Z M 815.988281 114.179688 C 816.078125 106.078125 816.078125 102.570312 813.738281 98.789062 C 811.9375 95.910156 808.339844 92.308594 796.820312 92.308594 C 789.078125 92.308594 784.308594 93.75 779.179688 95.28125 L 778.640625 96 L 778.1875 105.808594 L 778.910156 106.171875 C 782.058594 104.910156 787.910156 102.570312 793.9375 102.570312 C 797.269531 102.570312 798.617188 103.109375 799.789062 104.28125 C 800.6875 105.179688 800.960938 106.800781 800.960938 108.148438 C 790.160156 109.589844 785.117188 110.578125 779.71875 113.910156 C 774.679688 117.058594 772.96875 122.191406 772.96875 126.238281 C 772.96875 135.871094 779.898438 142.078125 788.71875 142.078125 C 795.46875 142.078125 799.339844 138.839844 801.230469 137.308594 L 801.230469 140.640625 L 801.769531 141.269531 C 808.25 141 810.230469 140.910156 816.078125 141 L 816.527344 140.371094 C 815.898438 131.550781 815.898438 129.300781 815.898438 120.839844 L 815.988281 114.179688 M 801.140625 128.488281 C 799.25 129.570312 796.820312 130.828125 793.847656 130.828125 C 790.609375 130.828125 787.910156 129.121094 787.910156 125.339844 C 787.910156 119.398438 795.019531 118.410156 801.140625 117.601562 Z M 851.722656 130.648438 C 850.191406 131.101562 849.109375 131.460938 847.582031 131.460938 C 842.992188 131.460938 842.632812 128.578125 842.449219 127.230469 C 842.179688 124.890625 842.179688 119.941406 842.269531 116.339844 L 842.449219 103.648438 L 850.550781 104.011719 L 851.089844 103.46875 L 851.992188 93.839844 L 851.449219 93.300781 L 842.449219 93.300781 L 842.722656 78.179688 L 842.089844 77.640625 C 835.972656 79.441406 834.351562 79.890625 827.960938 81.511719 L 827.601562 82.140625 L 827.691406 93.390625 L 822.832031 93.210938 L 822.292969 93.660156 L 821.480469 103.289062 L 822.019531 103.828125 L 827.691406 103.648438 L 827.421875 117.960938 C 827.332031 120.210938 827.242188 122.460938 827.242188 124.800781 C 827.242188 133.078125 827.421875 141.988281 841.460938 141.988281 C 844.972656 141.988281 847.761719 141.449219 850.910156 140.910156 L 851.542969 140.28125 L 852.441406 131.011719 Z M 898.339844 127.679688 C 894.921875 129.480469 890.871094 131.550781 884.300781 131.550781 C 878.902344 131.550781 875.210938 129.839844 873.050781 126.601562 C 871.699219 124.710938 871.429688 122.910156 871.070312 121.109375 L 900.140625 120.570312 L 900.679688 119.941406 C 900.589844 115.53125 900.5 111.03125 899.242188 106.53125 C 896.089844 95.910156 889.160156 93.75 886.101562 93.03125 C 883.851562 92.398438 881.78125 92.21875 879.710938 92.21875 C 865.582031 92.21875 856.21875 101.488281 856.21875 117.058594 C 856.21875 121.289062 856.941406 125.699219 858.378906 128.851562 C 863.601562 141 875.839844 142.078125 882.320312 142.078125 C 889.789062 142.078125 893.03125 140.730469 897.800781 138.839844 L 898.339844 138.121094 L 898.96875 127.949219 L 898.339844 127.679688 M 871.070312 111.570312 C 871.339844 108.78125 871.96875 105 875.390625 102.839844 C 876.46875 102.121094 877.730469 101.851562 878.992188 101.851562 C 881.960938 101.851562 883.761719 103.378906 884.75 105 C 886.011719 106.980469 886.101562 109.140625 886.101562 111.210938 Z M 903.558594 141 "/>
<path fill-rule="nonzero" fill="rgb(34.901961%, 14.901961%, 14.901961%)" fill-opacity="1" d="M 385.519531 261 C 393.890625 261.179688 404.238281 261.359375 410.988281 256.679688 C 416.929688 252.449219 418.550781 246.511719 418.550781 241.46875 C 418.550781 235.710938 416.117188 230.398438 410.988281 227.878906 C 409.277344 226.980469 407.300781 226.621094 405.410156 226.261719 C 408.46875 225 412.070312 223.378906 414.410156 218.609375 C 415.398438 216.539062 415.847656 214.378906 415.847656 212.308594 C 415.847656 209.429688 415.128906 205.46875 412.25 202.230469 C 408.46875 198.179688 402.617188 197.101562 393.800781 197.101562 C 390.738281 197.101562 385.25 197.191406 382.1875 197.28125 L 369.589844 197.460938 L 369.050781 198 C 369.410156 206.640625 369.5 209.96875 369.5 222.390625 C 369.5 235.171875 369.410156 247.859375 369.230469 260.640625 L 369.859375 261 L 385.519531 261 M 384.890625 233.640625 C 391.730469 233.460938 395.6875 233.460938 398.300781 234.988281 C 400.910156 236.609375 401.898438 239.488281 401.898438 242.371094 C 401.898438 246.421875 399.648438 248.941406 396.320312 250.109375 C 393.617188 251.011719 388.757812 251.011719 384.890625 250.921875 L 384.890625 233.640625 M 384.890625 207.179688 C 386.777344 207.179688 389.300781 207.089844 390.828125 207.089844 C 395.6875 207.089844 400.097656 208.800781 400.097656 214.648438 C 400.097656 219.421875 396.589844 221.398438 395.507812 221.941406 C 393.257812 222.929688 388.488281 222.929688 384.890625 222.929688 Z M 466.878906 247.679688 C 463.460938 249.480469 459.410156 251.550781 452.839844 251.550781 C 447.441406 251.550781 443.75 249.839844 441.589844 246.601562 C 440.238281 244.710938 439.96875 242.910156 439.609375 241.109375 L 468.679688 240.570312 L 469.21875 239.941406 C 469.128906 235.53125 469.039062 231.03125 467.78125 226.53125 C 464.628906 215.910156 457.699219 213.75 454.640625 213.03125 C 452.390625 212.398438 450.320312 212.21875 448.25 212.21875 C 434.121094 212.21875 424.757812 221.488281 424.757812 237.058594 C 424.757812 241.289062 425.480469 245.699219 426.917969 248.851562 C 432.140625 261 444.378906 262.078125 450.859375 262.078125 C 458.328125 262.078125 461.570312 260.730469 466.339844 258.839844 L 466.878906 258.121094 L 467.507812 247.949219 L 466.878906 247.679688 M 439.609375 231.570312 C 439.878906 228.78125 440.507812 225 443.929688 222.839844 C 445.007812 222.121094 446.269531 221.851562 447.53125 221.851562 C 450.5 221.851562 452.300781 223.378906 453.289062 225 C 454.550781 226.980469 454.640625 229.140625 454.640625 231.210938 Z M 517.546875 234.179688 C 517.636719 226.078125 517.636719 222.570312 515.296875 218.789062 C 513.496094 215.910156 509.898438 212.308594 498.378906 212.308594 C 490.636719 212.308594 485.867188 213.75 480.738281 215.28125 L 480.199219 216 L 479.746094 225.808594 L 480.46875 226.171875 C 483.617188 224.910156 489.46875 222.570312 495.496094 222.570312 C 498.828125 222.570312 500.175781 223.109375 501.347656 224.28125 C 502.246094 225.179688 502.519531 226.800781 502.519531 228.148438 C 491.71875 229.589844 486.675781 230.578125 481.277344 233.910156 C 476.238281 237.058594 474.527344 242.191406 474.527344 246.238281 C 474.527344 255.871094 481.457031 262.078125 490.277344 262.078125 C 497.027344 262.078125 500.898438 258.839844 502.789062 257.308594 L 502.789062 260.640625 L 503.328125 261.269531 C 509.808594 261 511.789062 260.910156 517.636719 261 L 518.085938 260.371094 C 517.457031 251.550781 517.457031 249.300781 517.457031 240.839844 L 517.546875 234.179688 M 502.699219 248.488281 C 500.808594 249.570312 498.378906 250.828125 495.40625 250.828125 C 492.167969 250.828125 489.46875 249.121094 489.46875 245.339844 C 489.46875 239.398438 496.578125 238.410156 502.699219 237.601562 Z M 563.269531 248.039062 C 560.839844 249.480469 558.5 250.921875 553.910156 250.921875 C 543.738281 250.921875 541.667969 242.460938 541.667969 237.058594 C 541.667969 230.488281 544.550781 222.929688 553.28125 222.929688 C 557.238281 222.929688 559.398438 224.371094 562.101562 226.171875 L 563 225.898438 C 563.359375 221.128906 563.449219 219.871094 564.167969 215.101562 L 563.71875 214.558594 C 559.757812 213.300781 556.339844 212.21875 551.121094 212.21875 C 529.96875 212.21875 525.828125 228.238281 525.828125 237.421875 C 525.828125 247.769531 531.230469 261.808594 551.480469 261.808594 C 556.25 261.808594 559.308594 260.910156 563.089844 259.828125 L 563.628906 259.289062 L 563.988281 248.488281 Z M 615.289062 260.371094 C 614.929688 252.988281 614.839844 250.46875 614.660156 241.109375 L 614.660156 234.359375 C 614.570312 225.808594 614.480469 220.859375 611.867188 217.078125 C 609.257812 213.390625 605.480469 212.21875 601.519531 212.21875 C 594.949219 212.21875 589.820312 215.371094 586.21875 217.53125 L 586.488281 189.808594 L 585.949219 189.179688 L 570.558594 191.609375 L 570.109375 192.148438 C 570.917969 200.878906 571.097656 204.121094 571.277344 215.730469 C 571.460938 223.019531 571.550781 230.308594 571.550781 237.601562 C 571.550781 246.511719 571.367188 251.820312 571.1875 260.640625 L 571.640625 261.269531 C 578.300781 260.910156 579.648438 260.910156 586.9375 260.910156 L 587.480469 260.371094 C 586.847656 246.871094 586.757812 242.820312 586.667969 226.890625 C 588.378906 225.71875 590.539062 224.191406 593.597656 224.191406 C 598.550781 224.191406 598.910156 229.320312 599.269531 232.921875 C 599.449219 235.710938 599.539062 248.488281 599.539062 251.820312 C 599.539062 254.789062 599.449219 257.671875 599.449219 260.640625 L 599.898438 261.269531 C 606.378906 260.910156 607.820312 260.910156 614.75 260.910156 Z M 620.148438 261 "/>
</svg>
