<?xml version="1.0" encoding="UTF-8"?>
<svg xmlns="http://www.w3.org/2000/svg" xmlns:xlink="http://www.w3.org/1999/xlink" width="975" height="1300" viewBox="0 0 975 1300">
<path fill-rule="nonzero" fill="rgb(98.823529%, 78.823529%, 9.019608%)" fill-opacity="1" d="M 50 50 L 925 50 L 925 290 L 50 290 Z M 50 50 "/>
<path fill-rule="nonzero" fill="rgb(34.901961%, 14.901961%, 14.901961%)" fill-opacity="1" d="M 242.238281 77.191406 C 232.878906 77.460938 231.347656 77.460938 221.359375 77.460938 L 220.820312 78 L 216.679688 92.578125 L 213.078125 105.628906 L 208.847656 121.289062 L 204.886719 105.179688 L 202.367188 95.011719 L 197.867188 77.730469 L 197.417969 77.191406 C 187.789062 77.460938 186.167969 77.460938 176.089844 77.460938 L 175.546875 78 C 174.648438 104.910156 174.289062 111.839844 172.308594 140.730469 L 172.757812 141.269531 C 178.519531 141 180.230469 140.910156 185.449219 141 L 185.988281 140.460938 L 186.257812 123.269531 L 186.796875 105.808594 L 187.160156 88.800781 L 191.117188 104.730469 L 194.539062 117.511719 L 200.570312 140.730469 L 201.109375 141.269531 C 206.6875 141 208.21875 140.910156 214.519531 141 L 215.058594 140.460938 L 220.277344 121.289062 L 223.878906 108.148438 L 228.917969 89.25 L 228.917969 105.359375 L 229.097656 119.128906 L 229.097656 140.730469 L 229.546875 141.269531 C 235.757812 141 238.1875 140.910156 245.117188 141 L 245.570312 140.460938 C 245.027344 130.199219 244.398438 119.851562 244.039062 109.5 C 243.769531 103.828125 243.589844 98.160156 243.320312 92.488281 C 242.867188 84.121094 242.777344 83.039062 242.777344 77.730469 Z M 301.550781 117.058594 C 301.550781 113.550781 301.550781 98.96875 288.949219 94.019531 C 284.988281 92.488281 280.308594 92.308594 277.96875 92.308594 C 262.308594 92.308594 253.488281 100.679688 253.488281 117.238281 C 253.488281 123 254.390625 128.851562 257.71875 133.710938 C 260.058594 137.21875 264.46875 142.078125 277.339844 142.078125 C 296.417969 142.078125 301.550781 130.558594 301.550781 117.058594 M 285.980469 116.96875 C 285.980469 124.351562 284.988281 132.539062 277.519531 132.539062 C 275.179688 132.539062 273.558594 131.460938 272.480469 130.46875 C 270.949219 128.941406 269.238281 125.878906 269.238281 117.148438 C 269.238281 114.539062 269.238281 108.78125 271.039062 105.628906 C 272.390625 103.199219 274.730469 101.578125 277.609375 101.578125 C 280.128906 101.578125 282.199219 102.929688 283.371094 104.371094 C 285.53125 106.980469 285.980469 112.109375 285.980469 116.96875 Z M 354.199219 140.371094 C 353.75 132.449219 353.75 129.929688 353.570312 121.109375 L 353.570312 114.089844 C 353.480469 105.449219 353.390625 101.308594 351.140625 97.621094 C 348.347656 92.941406 343.21875 92.21875 339.980469 92.21875 C 334.488281 92.21875 329.71875 95.101562 325.578125 97.53125 L 325.757812 92.578125 L 324.859375 91.949219 C 317.929688 93.390625 316.398438 93.660156 309.648438 94.558594 L 309.109375 95.191406 C 309.828125 103.019531 310.371094 108.691406 310.371094 123.359375 C 310.371094 129.121094 310.277344 134.878906 310.1875 140.640625 L 310.730469 141.179688 C 317.210938 140.910156 318.558594 140.910156 325.757812 140.910156 L 326.300781 140.371094 C 325.757812 126.511719 325.667969 123 325.578125 106.890625 C 327.46875 105.628906 329.628906 104.101562 332.507812 104.101562 C 337.460938 104.101562 337.910156 109.410156 338.179688 112.648438 C 338.359375 115.621094 338.449219 127.949219 338.449219 131.371094 C 338.449219 134.429688 338.359375 137.578125 338.359375 140.640625 L 338.898438 141.179688 C 344.839844 141 346.371094 140.910156 353.570312 140.910156 Z M 389.660156 130.648438 C 388.128906 131.101562 387.046875 131.460938 385.519531 131.460938 C 380.929688 131.460938 380.570312 128.578125 380.386719 127.230469 C 380.117188 124.890625 380.117188 119.941406 380.207031 116.339844 L 380.386719 103.648438 L 388.488281 104.011719 L 389.027344 103.46875 L 389.929688 93.839844 L 389.386719 93.300781 L 380.386719 93.300781 L 380.660156 78.179688 L 380.027344 77.640625 C 373.910156 79.441406 372.289062 79.890625 365.898438 81.511719 L 365.539062 82.140625 L 365.628906 93.390625 L 360.769531 93.210938 L 360.230469 93.660156 L 359.417969 103.289062 L 359.957031 103.828125 L 365.628906 103.648438 L 365.359375 117.960938 C 365.269531 120.210938 365.179688 122.460938 365.179688 124.800781 C 365.179688 133.078125 365.359375 141.988281 379.398438 141.988281 C 382.910156 141.988281 385.699219 141.449219 388.847656 140.910156 L 389.480469 140.28125 L 390.378906 131.011719 Z M 436.277344 127.679688 C 432.859375 129.480469 428.808594 131.550781 422.238281 131.550781 C 416.839844 131.550781 413.148438 129.839844 410.988281 126.601562 C 409.636719 124.710938 409.367188 122.910156 409.007812 121.109375 L 438.078125 120.570312 L 438.617188 119.941406 C 438.527344 115.53125 438.4375 111.03125 437.179688 106.53125 C 434.027344 95.910156 427.097656 93.75 424.039062 93.03125 C 421.789062 92.398438 419.71875 92.21875 417.648438 92.21875 C 403.519531 92.21875 394.15625 101.488281 394.15625 117.058594 C 394.15625 121.289062 394.878906 125.699219 396.316406 128.851562 C 401.539062 141 413.777344 142.078125 420.257812 142.078125 C 427.726562 142.078125 430.96875 140.730469 435.738281 138.839844 L 436.277344 138.121094 L 436.90625 127.949219 L 436.277344 127.679688 M 409.007812 111.570312 C 409.277344 108.78125 409.90625 105 413.328125 102.839844 C 414.40625 102.121094 415.667969 101.851562 416.929688 101.851562 C 419.898438 101.851562 421.699219 103.378906 422.6875 105 C 423.949219 106.980469 424.039062 109.140625 424.039062 111.210938 Z M 472.910156 107.609375 L 475.429688 92.941406 L 474.890625 92.308594 C 474.261719 92.308594 473.628906 92.21875 473 92.21875 C 469.308594 92.21875 465.171875 94.289062 462.289062 100.949219 L 462.558594 92.671875 L 461.839844 91.949219 C 455.179688 93.390625 453.46875 93.660156 446.898438 94.648438 L 446.359375 95.191406 C 446.898438 101.941406 447.171875 105.988281 447.171875 118.5 C 447.171875 125.878906 447.078125 133.261719 446.898438 140.730469 L 447.441406 141.269531 C 454.101562 141 455.539062 140.910156 462.738281 141 L 463.191406 140.371094 C 462.828125 133.078125 462.289062 122.910156 462.289062 116.699219 C 462.289062 112.648438 462.289062 106.710938 468.410156 106.710938 C 469.941406 106.710938 470.839844 107.25 472.101562 107.96875 Z M 520.609375 127.679688 C 517.191406 129.480469 513.140625 131.550781 506.570312 131.550781 C 501.171875 131.550781 497.480469 129.839844 495.320312 126.601562 C 493.96875 124.710938 493.699219 122.910156 493.339844 121.109375 L 522.410156 120.570312 L 522.949219 119.941406 C 522.859375 115.53125 522.769531 111.03125 521.511719 106.53125 C 518.359375 95.910156 511.429688 93.75 508.371094 93.03125 C 506.121094 92.398438 504.050781 92.21875 501.980469 92.21875 C 487.851562 92.21875 478.488281 101.488281 478.488281 117.058594 C 478.488281 121.289062 479.210938 125.699219 480.648438 128.851562 C 485.871094 141 498.109375 142.078125 504.589844 142.078125 C 512.058594 142.078125 515.300781 140.730469 520.070312 138.839844 L 520.609375 138.121094 L 521.238281 127.949219 L 520.609375 127.679688 M 493.339844 111.570312 C 493.609375 108.78125 494.238281 105 497.660156 102.839844 C 498.738281 102.121094 500 101.851562 501.261719 101.851562 C 504.230469 101.851562 506.03125 103.378906 507.019531 105 C 508.28125 106.980469 508.371094 109.140625 508.371094 111.210938 Z M 571.457031 93.03125 L 558.949219 93.300781 L 558.226562 93.929688 C 556.699219 100.140625 556.339844 101.488281 554.179688 108.511719 L 551.839844 116.25 L 549.859375 123 L 548.148438 116.609375 L 545.539062 107.070312 L 541.9375 93.390625 L 541.21875 92.851562 C 534.199219 93.390625 532.667969 93.480469 525.289062 93.660156 L 524.839844 94.289062 C 528.078125 102.839844 536.449219 125.429688 542.027344 142.710938 C 538.339844 152.070312 537.617188 153.691406 533.566406 162.601562 L 534.019531 163.320312 C 536.269531 163.230469 538.789062 163.140625 541.128906 163.140625 C 543.378906 163.140625 545.71875 163.230469 547.96875 163.230469 L 548.597656 162.691406 C 553.546875 143.25 555.976562 135.691406 567.859375 104.371094 C 569.207031 100.769531 570.558594 97.261719 571.816406 93.75 Z M 628.519531 102.300781 C 620.960938 99.148438 617 97.53125 617 93.480469 C 617 90.691406 619.609375 87.179688 625.550781 87.179688 C 632.390625 87.179688 636.4375 89.96875 639.769531 92.21875 L 640.578125 91.859375 L 641.300781 80.070312 L 640.847656 79.441406 C 636.980469 77.820312 632.929688 76.109375 624.199219 76.109375 C 607.28125 76.109375 601.429688 85.648438 601.429688 95.28125 C 601.429688 106.171875 609.890625 110.128906 614.929688 112.558594 L 617.898438 113.910156 C 624.109375 116.519531 628.878906 118.769531 628.878906 123.539062 C 628.878906 126.960938 625.910156 131.011719 618.078125 131.011719 C 609.890625 131.011719 605.300781 127.410156 602.6875 125.339844 L 601.789062 125.609375 L 601.160156 138.300781 L 601.699219 139.019531 C 602.6875 139.378906 603.679688 139.828125 604.667969 140.101562 C 606.738281 140.820312 612.050781 142.351562 618.800781 142.351562 C 621.5 142.351562 628.339844 142.078125 633.738281 139.558594 C 641.300781 135.871094 644.539062 129.03125 644.539062 121.378906 C 644.539062 116.25 642.558594 110.761719 637.789062 107.070312 C 635.359375 105.269531 633.019531 104.191406 630.859375 103.199219 Z M 678.289062 130.648438 C 676.757812 131.101562 675.675781 131.460938 674.148438 131.460938 C 669.558594 131.460938 669.199219 128.578125 669.015625 127.230469 C 668.746094 124.890625 668.746094 119.941406 668.835938 116.339844 L 669.015625 103.648438 L 677.117188 104.011719 L 677.65625 103.46875 L 678.558594 93.839844 L 678.015625 93.300781 L 669.015625 93.300781 L 669.289062 78.179688 L 668.65625 77.640625 C 662.539062 79.441406 660.917969 79.890625 654.527344 81.511719 L 654.167969 82.140625 L 654.257812 93.390625 L 649.398438 93.210938 L 648.859375 93.660156 L 648.046875 103.289062 L 648.585938 103.828125 L 654.257812 103.648438 L 653.988281 117.960938 C 653.898438 120.210938 653.808594 122.460938 653.808594 124.800781 C 653.808594 133.078125 653.988281 141.988281 668.027344 141.988281 C 671.539062 141.988281 674.328125 141.449219 677.476562 140.910156 L 678.109375 140.28125 L 679.007812 131.011719 Z M 724.996094 114.179688 C 725.085938 106.078125 725.085938 102.570312 722.746094 98.789062 C 720.945312 95.910156 717.347656 92.308594 705.828125 92.308594 C 698.085938 92.308594 693.316406 93.75 688.1875 95.28125 L 687.648438 96 L 687.195312 105.808594 L 687.917969 106.171875 C 691.066406 104.910156 696.917969 102.570312 702.945312 102.570312 C 706.277344 102.570312 707.625 103.109375 708.796875 104.28125 C 709.695312 105.179688 709.96875 106.800781 709.96875 108.148438 C 699.167969 109.589844 694.125 110.578125 688.726562 113.910156 C 683.6875 117.058594 681.976562 122.191406 681.976562 126.238281 C 681.976562 135.871094 688.90625 142.078125 697.726562 142.078125 C 704.476562 142.078125 708.347656 138.839844 710.238281 137.308594 L 710.238281 140.640625 L 710.777344 141.269531 C 717.257812 141 719.238281 140.910156 725.085938 141 L 725.535156 140.371094 C 724.90625 131.550781 724.90625 129.300781 724.90625 120.839844 L 724.996094 114.179688 M 710.148438 128.488281 C 708.257812 129.570312 705.828125 130.828125 702.855469 130.828125 C 699.617188 130.828125 696.917969 129.121094 696.917969 125.339844 C 696.917969 119.398438 704.027344 118.410156 710.148438 117.601562 Z M 760.730469 130.648438 C 759.199219 131.101562 758.117188 131.460938 756.589844 131.460938 C 752 131.460938 751.640625 128.578125 751.457031 127.230469 C 751.1875 124.890625 751.1875 119.941406 751.277344 116.339844 L 751.457031 103.648438 L 759.558594 104.011719 L 760.097656 103.46875 L 761 93.839844 L 760.457031 93.300781 L 751.457031 93.300781 L 751.730469 78.179688 L 751.097656 77.640625 C 744.980469 79.441406 743.359375 79.890625 736.96875 81.511719 L 736.609375 82.140625 L 736.699219 93.390625 L 731.839844 93.210938 L 731.300781 93.660156 L 730.488281 103.289062 L 731.027344 103.828125 L 736.699219 103.648438 L 736.429688 117.960938 C 736.339844 120.210938 736.25 122.460938 736.25 124.800781 C 736.25 133.078125 736.429688 141.988281 750.46875 141.988281 C 753.980469 141.988281 756.769531 141.449219 759.917969 140.910156 L 760.550781 140.28125 L 761.449219 131.011719 Z M 807.347656 127.679688 C 803.929688 129.480469 799.878906 131.550781 793.308594 131.550781 C 787.910156 131.550781 784.21875 129.839844 782.058594 126.601562 C 780.707031 124.710938 780.4375 122.910156 780.078125 121.109375 L 809.148438 120.570312 L 809.6875 119.941406 C 809.597656 115.53125 809.507812 111.03125 808.25 106.53125 C 805.097656 95.910156 798.167969 93.75 795.109375 93.03125 C 792.859375 92.398438 790.789062 92.21875 788.71875 92.21875 C 774.589844 92.21875 765.226562 101.488281 765.226562 117.058594 C 765.226562 121.289062 765.949219 125.699219 767.386719 128.851562 C 772.609375 141 784.847656 142.078125 791.328125 142.078125 C 798.796875 142.078125 802.039062 140.730469 806.808594 138.839844 L 807.347656 138.121094 L 807.976562 127.949219 L 807.347656 127.679688 M 780.078125 111.570312 C 780.347656 108.78125 780.976562 105 784.398438 102.839844 C 785.476562 102.121094 786.738281 101.851562 788 101.851562 C 790.96875 101.851562 792.769531 103.378906 793.757812 105 C 795.019531 106.980469 795.109375 109.140625 795.109375 111.210938 Z M 812.570312 141 "/>
<path fill-rule="nonzero" fill="rgb(34.901961%, 14.901961%, 14.901961%)" fill-opacity="1" d="M 385.519531 261 C 393.890625 261.179688 404.238281 261.359375 410.988281 256.679688 C 416.929688 252.449219 418.550781 246.511719 418.550781 241.46875 C 418.550781 235.710938 416.117188 230.398438 410.988281 227.878906 C 409.277344 226.980469 407.300781 226.621094 405.410156 226.261719 C 408.46875 225 412.070312 223.378906 414.410156 218.609375 C 415.398438 216.539062 415.847656 214.378906 415.847656 212.308594 C 415.847656 209.429688 415.128906 205.46875 412.25 202.230469 C 408.46875 198.179688 402.617188 197.101562 393.800781 197.101562 C 390.738281 197.101562 385.25 197.191406 382.1875 197.28125 L 369.589844 197.460938 L 369.050781 198 C 369.410156 206.640625 369.5 209.96875 369.5 222.390625 C 369.5 235.171875 369.410156 247.859375 369.230469 260.640625 L 369.859375 261 L 385.519531 261 M 384.890625 233.640625 C 391.730469 233.460938 395.6875 233.460938 398.300781 234.988281 C 400.910156 236.609375 401.898438 239.488281 401.898438 242.371094 C 401.898438 246.421875 399.648438 248.941406 396.320312 250.109375 C 393.617188 251.011719 388.757812 251.011719 384.890625 250.921875 L 384.890625 233.640625 M 384.890625 207.179688 C 386.777344 207.179688 389.300781 207.089844 390.828125 207.089844 C 395.6875 207.089844 400.097656 208.800781 400.097656 214.648438 C 400.097656 219.421875 396.589844 221.398438 395.507812 221.941406 C 393.257812 222.929688 388.488281 222.929688 384.890625 222.929688 Z M 466.878906 247.679688 C 463.460938 249.480469 459.410156 251.550781 452.839844 251.550781 C 447.441406 251.550781 443.75 249.839844 441.589844 246.601562 C 440.238281 244.710938 439.96875 242.910156 439.609375 241.109375 L 468.679688 240.570312 L 469.21875 239.941406 C 469.128906 235.53125 469.039062 231.03125 467.78125 226.53125 C 464.628906 215.910156 457.699219 213.75 454.640625 213.03125 C 452.390625 212.398438 450.320312 212.21875 448.25 212.21875 C 434.121094 212.21875 424.757812 221.488281 424.757812 237.058594 C 424.757812 241.289062 425.480469 245.699219 426.917969 248.851562 C 432.140625 261 444.378906 262.078125 450.859375 262.078125 C 458.328125 262.078125 461.570312 260.730469 466.339844 258.839844 L 466.878906 258.121094 L 467.507812 247.949219 L 466.878906 247.679688 M 439.609375 231.570312 C 439.878906 228.78125 440.507812 225 443.929688 222.839844 C 445.007812 222.121094 446.269531 221.851562 447.53125 221.851562 C 450.5 221.851562 452.300781 223.378906 453.289062 225 C 454.550781 226.980469 454.640625 229.140625 454.640625 231.210938 Z M 517.546875 234.179688 C 517.636719 226.078125 517.636719 222.570312 515.296875 218.789062 C 513.496094 215.910156 509.898438 212.308594 498.378906 212.308594 C 490.636719 212.308594 485.867188 213.75 480.738281 215.28125 L 480.199219 216 L 479.746094 225.808594 L 480.46875 226.171875 C 483.617188 224.910156 489.46875 222.570312 495.496094 222.570312 C 498.828125 222.570312 500.175781 223.109375 501.347656 224.28125 C 502.246094 225.179688 502.519531 226.800781 502.519531 228.148438 C 491.71875 229.589844 486.675781 230.578125 481.277344 233.910156 C 476.238281 237.058594 474.527344 242.191406 474.527344 246.238281 C 474.527344 255.871094 481.457031 262.078125 490.277344 262.078125 C 497.027344 262.078125 500.898438 258.839844 502.789062 257.308594 L 502.789062 260.640625 L 503.328125 261.269531 C 509.808594 261 511.789062 260.910156 517.636719 261 L 518.085938 260.371094 C 517.457031 251.550781 517.457031 249.300781 517.457031 240.839844 L 517.546875 234.179688 M 502.699219 248.488281 C 500.808594 249.570312 498.378906 250.828125 495.40625 250.828125 C 492.167969 250.828125 489.46875 249.121094 489.46875 245.339844 C 489.46875 239.398438 496.578125 238.410156 502.699219 237.601562 Z M 563.269531 248.039062 C 560.839844 249.480469 558.5 250.921875 553.910156 250.921875 C 543.738281 250.921875 541.667969 242.460938 541.667969 237.058594 C 541.667969 230.488281 544.550781 222.929688 553.28125 222.929688 C 557.238281 222.929688 559.398438 224.371094 562.101562 226.171875 L 563 225.898438 C 563.359375 221.128906 563.449219 219.871094 564.167969 215.101562 L 563.71875 214.558594 C 559.757812 213.300781 556.339844 212.21875 551.121094 212.21875 C 529.96875 212.21875 525.828125 228.238281 525.828125 237.421875 C 525.828125 247.769531 531.230469 261.808594 551.480469 261.808594 C 556.25 261.808594 559.308594 260.910156 563.089844 259.828125 L 563.628906 259.289062 L 563.988281 248.488281 Z M 615.289062 260.371094 C 614.929688 252.988281 614.839844 250.46875 614.660156 241.109375 L 614.660156 234.359375 C 614.570312 225.808594 614.480469 220.859375 611.867188 217.078125 C 609.257812 213.390625 605.480469 212.21875 601.519531 212.21875 C 594.949219 212.21875 589.820312 215.371094 586.21875 217.53125 L 586.488281 189.808594 L 585.949219 189.179688 L 570.558594 191.609375 L 570.109375 192.148438 C 570.917969 200.878906 571.097656 204.121094 571.277344 215.730469 C 571.460938 223.019531 571.550781 230.308594 571.550781 237.601562 C 571.550781 246.511719 571.367188 251.820312 571.1875 260.640625 L 571.640625 261.269531 C 578.300781 260.910156 579.648438 260.910156 586.9375 260.910156 L 587.480469 260.371094 C 586.847656 246.871094 586.757812 242.820312 586.667969 226.890625 C 588.378906 225.71875 590.539062 224.191406 593.597656 224.191406 C 598.550781 224.191406 598.910156 229.320312 599.269531 232.921875 C 599.449219 235.710938 599.539062 248.488281 599.539062 251.820312 C 599.539062 254.789062 599.449219 257.671875 599.449219 260.640625 L 599.898438 261.269531 C 606.378906 260.910156 607.820312 260.910156 614.75 260.910156 Z M 620.148438 261 "/>
</svg>
