<?xml version="1.0" encoding="UTF-8"?>
<svg xmlns="http://www.w3.org/2000/svg" xmlns:xlink="http://www.w3.org/1999/xlink" width="975" height="1300" viewBox="0 0 975 1300">
<path fill-rule="nonzero" fill="rgb(98.823529%, 78.823529%, 9.019608%)" fill-opacity="1" d="M 50 50 L 925 50 L 925 170 L 50 170 Z M 50 50 "/>
<path fill-rule="nonzero" fill="rgb(34.901961%, 14.901961%, 14.901961%)" fill-opacity="1" d="M 123.214844 128.671875 C 113.402344 129.210938 105.574219 129.390625 102.875 129.390625 L 101.074219 129.390625 C 100.894531 105.359375 100.984375 99.238281 101.703125 77.730469 L 101.164062 77.191406 C 93.421875 77.550781 91.351562 77.550781 85.144531 77.460938 L 84.601562 78 C 84.964844 85.199219 85.054688 87.359375 85.054688 98.070312 C 85.054688 112.289062 84.964844 126.511719 84.964844 140.730469 L 85.414062 141.269531 C 103.054688 141 106.292969 141 122.492188 141 L 122.941406 140.460938 L 123.664062 129.121094 Z M 147.695312 140.371094 C 147.242188 133.441406 146.882812 128.128906 146.882812 115.710938 C 146.882812 108.058594 147.0625 100.320312 147.152344 92.671875 L 146.523438 91.949219 L 131.042969 94.648438 L 130.503906 95.191406 C 131.222656 102.03125 131.492188 105.179688 131.492188 117.960938 C 131.492188 127.769531 131.222656 133.261719 130.953125 140.640625 L 131.492188 141.269531 C 137.972656 141 139.773438 140.910156 147.0625 141 L 147.695312 140.371094 M 146.253906 83.308594 L 146.523438 71.070312 L 145.984375 70.53125 L 131.3125 72.328125 L 130.773438 72.960938 C 130.953125 76.199219 131.042969 78.089844 131.042969 80.25 C 131.042969 81.960938 131.042969 83.761719 130.953125 85.46875 L 131.582031 86.011719 C 137.703125 84.929688 139.414062 84.75 145.804688 83.941406 Z M 227.976562 140.371094 C 227.523438 132 227.433594 129.660156 227.433594 119.488281 L 227.433594 112.738281 C 227.523438 106.710938 227.613281 101.128906 225.003906 97.351562 C 221.496094 92.21875 215.285156 92.21875 213.84375 92.21875 C 206.464844 92.21875 201.515625 95.550781 197.914062 98.070312 C 196.65625 96 194.40625 92.21875 187.207031 92.21875 C 181.265625 92.21875 177.394531 94.921875 173.253906 97.800781 L 173.253906 92.761719 L 172.445312 91.949219 C 165.425781 93.300781 163.445312 93.660156 157.144531 94.558594 L 156.605469 95.191406 C 157.324219 102.390625 157.863281 107.339844 157.863281 125.160156 C 157.863281 130.289062 157.773438 135.511719 157.773438 140.640625 L 158.226562 141.179688 C 163.984375 141 165.964844 140.910156 173.433594 140.910156 L 173.976562 140.371094 C 173.34375 126.511719 173.253906 122.371094 173.164062 106.710938 C 175.054688 105.359375 177.125 104.191406 179.375 104.191406 C 184.957031 104.191406 185.136719 110.578125 185.136719 118.320312 C 185.136719 131.371094 185.046875 133.351562 184.863281 140.640625 L 185.40625 141.269531 C 192.246094 140.910156 194.136719 140.910156 200.34375 140.910156 L 200.886719 140.371094 C 200.34375 131.820312 200.253906 129.300781 200.164062 118.410156 L 200.164062 115.078125 L 200.074219 105.988281 C 201.605469 105 203.585938 103.738281 206.285156 103.738281 C 211.414062 103.738281 212.226562 108.601562 212.226562 116.339844 C 212.226562 118.050781 212.136719 119.761719 212.136719 121.46875 C 212.046875 124.53125 211.957031 137.941406 211.863281 140.640625 L 212.40625 141.179688 C 219.15625 140.910156 221.136719 140.910156 227.433594 140.910156 Z M 278.28125 127.679688 C 274.863281 129.480469 270.8125 131.550781 264.242188 131.550781 C 258.84375 131.550781 255.152344 129.839844 252.992188 126.601562 C 251.640625 124.710938 251.371094 122.910156 251.011719 121.109375 L 280.082031 120.570312 L 280.621094 119.941406 C 280.53125 115.53125 280.441406 111.03125 279.183594 106.53125 C 276.03125 95.910156 269.101562 93.75 266.042969 93.03125 C 263.792969 92.398438 261.722656 92.21875 259.652344 92.21875 C 245.523438 92.21875 236.160156 101.488281 236.160156 117.058594 C 236.160156 121.289062 236.882812 125.699219 238.320312 128.851562 C 243.542969 141 255.78125 142.078125 262.261719 142.078125 C 269.730469 142.078125 272.972656 140.730469 277.742188 138.839844 L 278.28125 138.121094 L 278.910156 127.949219 L 278.28125 127.679688 M 251.011719 111.570312 C 251.28125 108.78125 251.910156 105 255.332031 102.839844 C 256.410156 102.121094 257.671875 101.851562 258.933594 101.851562 C 261.902344 101.851562 263.703125 103.378906 264.691406 105 C 265.953125 106.980469 266.042969 109.140625 266.042969 111.210938 Z M 335.164062 139.828125 C 326.703125 125.519531 325.804688 123.898438 318.964844 111.570312 C 325.175781 103.109375 325.804688 102.210938 332.195312 94.019531 L 331.742188 93.121094 L 317.074219 93.300781 L 316.175781 93.929688 C 309.152344 106.078125 308.253906 107.519531 304.113281 113.730469 L 304.113281 103.738281 C 304.203125 86.910156 304.292969 83.308594 304.742188 69.71875 L 304.023438 69.179688 L 288.363281 71.519531 L 287.824219 72.148438 C 288.453125 80.878906 288.722656 85.109375 288.902344 96.898438 C 289.082031 111.480469 289.082031 126.058594 288.992188 140.640625 L 289.625 141.269531 C 295.652344 141 297.363281 141 304.203125 141 L 304.742188 140.371094 L 304.203125 125.160156 L 304.113281 114.808594 C 311.945312 129.210938 312.933594 131.191406 317.523438 140.730469 L 318.332031 141.269531 L 334.535156 140.640625 Z M 355.773438 140.371094 C 355.320312 133.441406 354.960938 128.128906 354.960938 115.710938 C 354.960938 108.058594 355.140625 100.320312 355.230469 92.671875 L 354.601562 91.949219 L 339.121094 94.648438 L 338.582031 95.191406 C 339.300781 102.03125 339.570312 105.179688 339.570312 117.960938 C 339.570312 127.769531 339.300781 133.261719 339.03125 140.640625 L 339.570312 141.269531 C 346.050781 141 347.851562 140.910156 355.140625 141 L 355.773438 140.371094 M 354.332031 83.308594 L 354.601562 71.070312 L 354.0625 70.53125 L 339.390625 72.328125 L 338.851562 72.960938 C 339.03125 76.199219 339.121094 78.089844 339.121094 80.25 C 339.121094 81.960938 339.121094 83.761719 339.03125 85.46875 L 339.660156 86.011719 C 345.78125 84.929688 347.492188 84.75 353.882812 83.941406 Z M 381.601562 140.371094 C 381.152344 130.019531 380.703125 120.570312 380.703125 92.128906 C 380.703125 83.578125 380.792969 79.53125 381.152344 69.808594 L 380.523438 69.179688 L 365.132812 71.609375 L 364.773438 72.148438 C 365.671875 83.128906 365.761719 86.101562 365.941406 100.679688 C 366.035156 105.988281 366.035156 111.300781 366.035156 116.609375 C 366.035156 126.328125 365.851562 131.730469 365.492188 140.640625 L 366.035156 141.269531 C 372.0625 141 374.492188 140.910156 381.0625 141 Z M 436.144531 140.371094 C 435.695312 132.449219 435.695312 129.929688 435.515625 121.109375 L 435.515625 114.089844 C 435.425781 105.449219 435.335938 101.308594 433.085938 97.621094 C 430.292969 92.941406 425.164062 92.21875 421.925781 92.21875 C 416.433594 92.21875 411.664062 95.101562 407.523438 97.53125 L 407.703125 92.578125 L 406.804688 91.949219 C 399.875 93.390625 398.34375 93.660156 391.59375 94.558594 L 391.054688 95.191406 C 391.773438 103.019531 392.316406 108.691406 392.316406 123.359375 C 392.316406 129.121094 392.222656 134.878906 392.132812 140.640625 L 392.675781 141.179688 C 399.15625 140.910156 400.503906 140.910156 407.703125 140.910156 L 408.246094 140.371094 C 407.703125 126.511719 407.613281 123 407.523438 106.890625 C 409.414062 105.628906 411.574219 104.101562 414.453125 104.101562 C 419.40625 104.101562 419.855469 109.410156 420.125 112.648438 C 420.304688 115.621094 420.394531 127.949219 420.394531 131.371094 C 420.394531 134.429688 420.304688 137.578125 420.304688 140.640625 L 420.84375 141.179688 C 426.785156 141 428.316406 140.910156 435.515625 140.910156 Z M 498.695312 102.300781 C 491.136719 99.148438 487.175781 97.53125 487.175781 93.480469 C 487.175781 90.691406 489.785156 87.179688 495.726562 87.179688 C 502.566406 87.179688 506.613281 89.96875 509.945312 92.21875 L 510.753906 91.859375 L 511.476562 80.070312 L 511.023438 79.441406 C 507.15625 77.820312 503.105469 76.109375 494.375 76.109375 C 477.457031 76.109375 471.605469 85.648438 471.605469 95.28125 C 471.605469 106.171875 480.066406 110.128906 485.105469 112.558594 L 488.074219 113.910156 C 494.285156 116.519531 499.054688 118.769531 499.054688 123.539062 C 499.054688 126.960938 496.085938 131.011719 488.253906 131.011719 C 480.066406 131.011719 475.476562 127.410156 472.863281 125.339844 L 471.964844 125.609375 L 471.335938 138.300781 L 471.875 139.019531 C 472.863281 139.378906 473.855469 139.828125 474.84375 140.101562 C 476.914062 140.820312 482.226562 142.351562 488.976562 142.351562 C 491.675781 142.351562 498.515625 142.078125 503.914062 139.558594 C 511.476562 135.871094 514.714844 129.03125 514.714844 121.378906 C 514.714844 116.25 512.734375 110.761719 507.964844 107.070312 C 505.535156 105.269531 503.195312 104.191406 501.035156 103.199219 Z M 548.464844 130.648438 C 546.933594 131.101562 545.851562 131.460938 544.324219 131.460938 C 539.734375 131.460938 539.375 128.578125 539.191406 127.230469 C 538.921875 124.890625 538.921875 119.941406 539.011719 116.339844 L 539.191406 103.648438 L 547.292969 104.011719 L 547.832031 103.46875 L 548.734375 93.839844 L 548.191406 93.300781 L 539.191406 93.300781 L 539.464844 78.179688 L 538.832031 77.640625 C 532.714844 79.441406 531.09375 79.890625 524.703125 81.511719 L 524.34375 82.140625 L 524.433594 93.390625 L 519.574219 93.210938 L 519.035156 93.660156 L 518.222656 103.289062 L 518.761719 103.828125 L 524.433594 103.648438 L 524.164062 117.960938 C 524.074219 120.210938 523.984375 122.460938 523.984375 124.800781 C 523.984375 133.078125 524.164062 141.988281 538.203125 141.988281 C 541.714844 141.988281 544.503906 141.449219 547.652344 140.910156 L 548.285156 140.28125 L 549.183594 131.011719 Z M 595.171875 114.179688 C 595.261719 106.078125 595.261719 102.570312 592.921875 98.789062 C 591.121094 95.910156 587.523438 92.308594 576.003906 92.308594 C 568.261719 92.308594 563.492188 93.75 558.363281 95.28125 L 557.824219 96 L 557.371094 105.808594 L 558.09375 106.171875 C 561.242188 104.910156 567.09375 102.570312 573.121094 102.570312 C 576.453125 102.570312 577.800781 103.109375 578.972656 104.28125 C 579.871094 105.179688 580.144531 106.800781 580.144531 108.148438 C 569.34375 109.589844 564.300781 110.578125 558.902344 113.910156 C 553.863281 117.058594 552.152344 122.191406 552.152344 126.238281 C 552.152344 135.871094 559.082031 142.078125 567.902344 142.078125 C 574.652344 142.078125 578.523438 138.839844 580.414062 137.308594 L 580.414062 140.640625 L 580.953125 141.269531 C 587.433594 141 589.414062 140.910156 595.261719 141 L 595.710938 140.371094 C 595.082031 131.550781 595.082031 129.300781 595.082031 120.839844 L 595.171875 114.179688 M 580.324219 128.488281 C 578.433594 129.570312 576.003906 130.828125 573.03125 130.828125 C 569.792969 130.828125 567.09375 129.121094 567.09375 125.339844 C 567.09375 119.398438 574.203125 118.410156 580.324219 117.601562 Z M 630.90625 130.648438 C 629.375 131.101562 628.292969 131.460938 626.765625 131.460938 C 622.175781 131.460938 621.816406 128.578125 621.632812 127.230469 C 621.363281 124.890625 621.363281 119.941406 621.453125 116.339844 L 621.632812 103.648438 L 629.734375 104.011719 L 630.273438 103.46875 L 631.175781 93.839844 L 630.632812 93.300781 L 621.632812 93.300781 L 621.90625 78.179688 L 621.273438 77.640625 C 615.15625 79.441406 613.535156 79.890625 607.144531 81.511719 L 606.785156 82.140625 L 606.875 93.390625 L 602.015625 93.210938 L 601.476562 93.660156 L 600.664062 103.289062 L 601.203125 103.828125 L 606.875 103.648438 L 606.605469 117.960938 C 606.515625 120.210938 606.425781 122.460938 606.425781 124.800781 C 606.425781 133.078125 606.605469 141.988281 620.644531 141.988281 C 624.15625 141.988281 626.945312 141.449219 630.09375 140.910156 L 630.726562 140.28125 L 631.625 131.011719 Z M 677.523438 127.679688 C 674.105469 129.480469 670.054688 131.550781 663.484375 131.550781 C 658.085938 131.550781 654.394531 129.839844 652.234375 126.601562 C 650.882812 124.710938 650.613281 122.910156 650.253906 121.109375 L 679.324219 120.570312 L 679.863281 119.941406 C 679.773438 115.53125 679.683594 111.03125 678.425781 106.53125 C 675.273438 95.910156 668.34375 93.75 665.285156 93.03125 C 663.035156 92.398438 660.964844 92.21875 658.894531 92.21875 C 644.765625 92.21875 635.402344 101.488281 635.402344 117.058594 C 635.402344 121.289062 636.125 125.699219 637.5625 128.851562 C 642.785156 141 655.023438 142.078125 661.503906 142.078125 C 668.972656 142.078125 672.214844 140.730469 676.984375 138.839844 L 677.523438 138.121094 L 678.152344 127.949219 L 677.523438 127.679688 M 650.253906 111.570312 C 650.523438 108.78125 651.152344 105 654.574219 102.839844 C 655.652344 102.121094 656.914062 101.851562 658.175781 101.851562 C 661.144531 101.851562 662.945312 103.378906 663.933594 105 C 665.195312 106.980469 665.285156 109.140625 665.285156 111.210938 Z M 726.484375 77.28125 L 715.054688 77.460938 L 714.511719 78 C 714.875 89.699219 715.144531 97.53125 715.144531 107.878906 C 715.144531 118.859375 714.875 129.75 714.601562 140.730469 L 715.144531 141.269531 C 721.804688 141 723.242188 140.910156 730.445312 141 L 730.894531 140.460938 C 730.535156 130.648438 730.535156 128.398438 730.535156 119.21875 C 740.613281 119.308594 751.414062 119.308594 757.894531 111.390625 C 760.414062 108.328125 762.574219 103.199219 762.574219 96.898438 C 762.574219 93.03125 761.671875 84.480469 754.203125 80.25 C 748.804688 77.101562 741.152344 77.101562 734.402344 77.101562 L 726.484375 77.28125 M 730.535156 88.171875 C 732.511719 88.078125 734.402344 88.078125 736.382812 88.078125 C 744.304688 88.261719 746.464844 92.308594 746.464844 97.53125 C 746.464844 98.789062 746.464844 104.011719 741.695312 106.621094 C 739.261719 107.96875 735.933594 108.148438 730.535156 108.148438 Z M 808.832031 114.179688 C 808.921875 106.078125 808.921875 102.570312 806.582031 98.789062 C 804.78125 95.910156 801.183594 92.308594 789.664062 92.308594 C 781.921875 92.308594 777.152344 93.75 772.023438 95.28125 L 771.484375 96 L 771.03125 105.808594 L 771.753906 106.171875 C 774.902344 104.910156 780.753906 102.570312 786.78125 102.570312 C 790.113281 102.570312 791.460938 103.109375 792.632812 104.28125 C 793.53125 105.179688 793.804688 106.800781 793.804688 108.148438 C 783.003906 109.589844 777.960938 110.578125 772.5625 113.910156 C 767.523438 117.058594 765.8125 122.191406 765.8125 126.238281 C 765.8125 135.871094 772.742188 142.078125 781.5625 142.078125 C 788.3125 142.078125 792.183594 138.839844 794.074219 137.308594 L 794.074219 140.640625 L 794.613281 141.269531 C 801.09375 141 803.074219 140.910156 808.921875 141 L 809.371094 140.371094 C 808.742188 131.550781 808.742188 129.300781 808.742188 120.839844 L 808.832031 114.179688 M 793.984375 128.488281 C 792.09375 129.570312 789.664062 130.828125 786.691406 130.828125 C 783.453125 130.828125 780.753906 129.121094 780.753906 125.339844 C 780.753906 119.398438 787.863281 118.410156 793.984375 117.601562 Z M 845.375 107.609375 L 847.894531 92.941406 L 847.355469 92.308594 C 846.726562 92.308594 846.09375 92.21875 845.464844 92.21875 C 841.773438 92.21875 837.636719 94.289062 834.753906 100.949219 L 835.023438 92.671875 L 834.304688 91.949219 C 827.644531 93.390625 825.933594 93.660156 819.363281 94.648438 L 818.824219 95.191406 C 819.363281 101.941406 819.636719 105.988281 819.636719 118.5 C 819.636719 125.878906 819.542969 133.261719 819.363281 140.730469 L 819.90625 141.269531 C 826.566406 141 828.003906 140.910156 835.203125 141 L 835.65625 140.371094 C 835.292969 133.078125 834.753906 122.910156 834.753906 116.699219 C 834.753906 112.648438 834.753906 106.710938 840.875 106.710938 C 842.40625 106.710938 843.304688 107.25 844.566406 107.96875 Z M 899.375 139.828125 C 890.914062 125.519531 890.015625 123.898438 883.175781 111.570312 C 889.386719 103.109375 890.015625 102.210938 896.40625 94.019531 L 895.953125 93.121094 L 881.285156 93.300781 L 880.386719 93.929688 C 873.363281 106.078125 872.464844 107.519531 868.324219 113.730469 L 868.324219 103.738281 C 868.414062 86.910156 868.503906 83.308594 868.953125 69.71875 L 868.234375 69.179688 L 852.574219 71.519531 L 852.035156 72.148438 C 852.664062 80.878906 852.933594 85.109375 853.113281 96.898438 C 853.292969 111.480469 853.292969 126.058594 853.203125 140.640625 L 853.835938 141.269531 C 859.863281 141 861.574219 141 868.414062 141 L 868.953125 140.371094 L 868.414062 125.160156 L 868.324219 114.808594 C 876.15625 129.210938 877.144531 131.191406 881.734375 140.730469 L 882.542969 141.269531 L 898.746094 140.640625 Z M 898.292969 141 "/>
</svg>
