<?xml version="1.0" encoding="UTF-8"?>
<svg xmlns="http://www.w3.org/2000/svg" xmlns:xlink="http://www.w3.org/1999/xlink" width="975" height="1300" viewBox="0 0 975 1300">
<path fill-rule="nonzero" fill="rgb(98.823529%, 78.823529%, 9.019608%)" fill-opacity="1" d="M 50 50 L 925 50 L 925 290 L 50 290 Z M 50 50 "/>
<path fill-rule="nonzero" fill="rgb(34.901961%, 14.901961%, 14.901961%)" fill-opacity="1" d="M 89.554688 141.179688 C 91.804688 141.359375 93.515625 141.539062 95.585938 141.539062 C 115.925781 141.539062 115.925781 129.300781 115.925781 120.300781 C 115.925781 118.050781 115.835938 115.800781 115.746094 113.550781 L 115.746094 77.730469 L 115.296875 77.191406 C 108.363281 77.460938 106.925781 77.460938 99.457031 77.460938 L 99.003906 78 C 99.457031 90.78125 99.816406 101.851562 99.816406 114.898438 C 99.816406 123.179688 99.816406 129.570312 92.886719 129.570312 C 91.535156 129.570312 90.816406 129.300781 89.644531 128.941406 L 89.105469 129.480469 L 89.105469 140.550781 Z M 169.746094 92.851562 L 155.074219 93.570312 L 154.445312 94.109375 C 155.074219 104.28125 155.074219 118.679688 155.074219 120.121094 C 155.074219 122.730469 155.074219 124.171875 154.984375 127.769531 C 152.554688 129.390625 150.664062 130.738281 148.234375 130.738281 C 141.753906 130.738281 141.753906 123.898438 141.753906 118.589844 C 141.753906 116.339844 141.753906 114 141.84375 111.75 L 142.023438 93.570312 L 141.394531 92.851562 L 126.542969 93.570312 L 125.914062 94.109375 C 126.453125 101.671875 126.542969 104.191406 126.542969 113.28125 L 126.542969 119.578125 C 126.453125 129.390625 126.90625 133.53125 130.144531 137.308594 C 133.113281 140.640625 137.433594 142.078125 141.933594 142.078125 C 148.324219 142.078125 152.015625 139.199219 155.253906 136.679688 L 155.164062 140.730469 L 155.792969 141.269531 C 162.363281 141 164.34375 141 170.195312 141 L 170.734375 140.460938 C 170.285156 134.070312 170.105469 130.648438 170.105469 118.949219 C 170.105469 110.488281 170.195312 102.03125 170.375 93.570312 Z M 196.742188 140.371094 C 196.292969 130.019531 195.84375 120.570312 195.84375 92.128906 C 195.84375 83.578125 195.933594 79.53125 196.292969 69.808594 L 195.664062 69.179688 L 180.273438 71.609375 L 179.914062 72.148438 C 180.8125 83.128906 180.902344 86.101562 181.082031 100.679688 C 181.175781 105.988281 181.175781 111.300781 181.175781 116.609375 C 181.175781 126.328125 180.992188 131.730469 180.632812 140.640625 L 181.175781 141.269531 C 187.203125 141 189.632812 140.910156 196.203125 141 Z M 223.476562 140.371094 C 223.023438 133.441406 222.664062 128.128906 222.664062 115.710938 C 222.664062 108.058594 222.84375 100.320312 222.933594 92.671875 L 222.304688 91.949219 L 206.824219 94.648438 L 206.285156 95.191406 C 207.003906 102.03125 207.273438 105.179688 207.273438 117.960938 C 207.273438 127.769531 207.003906 133.261719 206.734375 140.640625 L 207.273438 141.269531 C 213.753906 141 215.554688 140.910156 222.84375 141 L 223.476562 140.371094 M 222.035156 83.308594 L 222.304688 71.070312 L 221.765625 70.53125 L 207.09375 72.328125 L 206.554688 72.960938 C 206.734375 76.199219 206.824219 78.089844 206.824219 80.25 C 206.824219 81.960938 206.824219 83.761719 206.734375 85.46875 L 207.363281 86.011719 C 213.484375 84.929688 215.195312 84.75 221.585938 83.941406 Z M 273.515625 114.179688 C 273.605469 106.078125 273.605469 102.570312 271.265625 98.789062 C 269.464844 95.910156 265.867188 92.308594 254.347656 92.308594 C 246.605469 92.308594 241.835938 93.75 236.707031 95.28125 L 236.167969 96 L 235.714844 105.808594 L 236.4375 106.171875 C 239.585938 104.910156 245.4375 102.570312 251.464844 102.570312 C 254.796875 102.570312 256.144531 103.109375 257.316406 104.28125 C 258.214844 105.179688 258.488281 106.800781 258.488281 108.148438 C 247.6875 109.589844 242.644531 110.578125 237.246094 113.910156 C 232.207031 117.058594 230.496094 122.191406 230.496094 126.238281 C 230.496094 135.871094 237.425781 142.078125 246.246094 142.078125 C 252.996094 142.078125 256.867188 138.839844 258.757812 137.308594 L 258.757812 140.640625 L 259.296875 141.269531 C 265.777344 141 267.757812 140.910156 273.605469 141 L 274.054688 140.371094 C 273.425781 131.550781 273.425781 129.300781 273.425781 120.839844 L 273.515625 114.179688 M 258.667969 128.488281 C 256.777344 129.570312 254.347656 130.828125 251.375 130.828125 C 248.136719 130.828125 245.4375 129.121094 245.4375 125.339844 C 245.4375 119.398438 252.546875 118.410156 258.667969 117.601562 Z M 322.386719 77.28125 L 310.957031 77.460938 L 310.414062 78 C 310.777344 89.699219 311.046875 97.53125 311.046875 107.878906 C 311.046875 118.859375 310.777344 129.75 310.503906 140.730469 L 311.046875 141.269531 C 317.707031 141 319.144531 140.910156 326.347656 141 L 326.796875 140.460938 C 326.4375 130.648438 326.4375 128.398438 326.4375 119.21875 C 336.515625 119.308594 347.316406 119.308594 353.796875 111.390625 C 356.316406 108.328125 358.476562 103.199219 358.476562 96.898438 C 358.476562 93.03125 357.574219 84.480469 350.105469 80.25 C 344.707031 77.101562 337.054688 77.101562 330.304688 77.101562 L 322.386719 77.28125 M 326.4375 88.171875 C 328.414062 88.078125 330.304688 88.078125 332.285156 88.078125 C 340.207031 88.261719 342.367188 92.308594 342.367188 97.53125 C 342.367188 98.789062 342.367188 104.011719 337.597656 106.621094 C 335.164062 107.96875 331.835938 108.148438 326.4375 108.148438 Z M 382.683594 140.371094 C 381.785156 123.988281 381.695312 119.578125 381.785156 103.648438 L 388.894531 104.011719 L 389.523438 103.378906 L 390.335938 93.839844 L 389.886719 93.300781 L 381.695312 93.300781 L 381.785156 91.230469 C 381.785156 85.738281 381.875 80.699219 387.726562 80.699219 C 388.625 80.699219 389.523438 80.878906 390.425781 80.96875 L 391.054688 80.609375 L 391.863281 70.441406 L 391.414062 69.808594 C 389.253906 69.628906 387.183594 69.539062 385.113281 69.539062 C 380.523438 69.539062 375.84375 70.078125 372.246094 72.78125 C 366.664062 76.921875 366.753906 83.398438 366.753906 87.898438 L 366.84375 93.300781 L 360.996094 93.210938 L 360.457031 93.660156 L 359.554688 103.199219 L 360.09375 103.738281 L 366.933594 103.558594 C 366.933594 120.570312 366.933594 124.621094 366.394531 140.640625 L 366.933594 141.269531 C 373.054688 141 375.394531 140.910156 382.144531 140.910156 Z M 436.503906 127.679688 C 433.085938 129.480469 429.035156 131.550781 422.464844 131.550781 C 417.066406 131.550781 413.375 129.839844 411.214844 126.601562 C 409.863281 124.710938 409.59375 122.910156 409.234375 121.109375 L 438.304688 120.570312 L 438.84375 119.941406 C 438.753906 115.53125 438.664062 111.03125 437.40625 106.53125 C 434.253906 95.910156 427.324219 93.75 424.265625 93.03125 C 422.015625 92.398438 419.945312 92.21875 417.875 92.21875 C 403.746094 92.21875 394.382812 101.488281 394.382812 117.058594 C 394.382812 121.289062 395.105469 125.699219 396.542969 128.851562 C 401.765625 141 414.003906 142.078125 420.484375 142.078125 C 427.953125 142.078125 431.195312 140.730469 435.964844 138.839844 L 436.503906 138.121094 L 437.132812 127.949219 L 436.503906 127.679688 M 409.234375 111.570312 C 409.503906 108.78125 410.132812 105 413.554688 102.839844 C 414.632812 102.121094 415.894531 101.851562 417.15625 101.851562 C 420.125 101.851562 421.925781 103.378906 422.914062 105 C 424.175781 106.980469 424.265625 109.140625 424.265625 111.210938 Z M 463.417969 140.371094 C 462.964844 133.441406 462.605469 128.128906 462.605469 115.710938 C 462.605469 108.058594 462.785156 100.320312 462.875 92.671875 L 462.246094 91.949219 L 446.765625 94.648438 L 446.226562 95.191406 C 446.945312 102.03125 447.214844 105.179688 447.214844 117.960938 C 447.214844 127.769531 446.945312 133.261719 446.675781 140.640625 L 447.214844 141.269531 C 453.695312 141 455.496094 140.910156 462.785156 141 L 463.417969 140.371094 M 461.976562 83.308594 L 462.246094 71.070312 L 461.707031 70.53125 L 447.035156 72.328125 L 446.496094 72.960938 C 446.675781 76.199219 446.765625 78.089844 446.765625 80.25 C 446.765625 81.960938 446.765625 83.761719 446.675781 85.46875 L 447.304688 86.011719 C 453.425781 84.929688 455.136719 84.75 461.527344 83.941406 Z M 491.402344 140.371094 C 490.503906 123.988281 490.414062 119.578125 490.503906 103.648438 L 497.613281 104.011719 L 498.242188 103.378906 L 499.054688 93.839844 L 498.605469 93.300781 L 490.414062 93.300781 L 490.503906 91.230469 C 490.503906 85.738281 490.59375 80.699219 496.445312 80.699219 C 497.34375 80.699219 498.242188 80.878906 499.144531 80.96875 L 499.773438 80.609375 L 500.582031 70.441406 L 500.132812 69.808594 C 497.972656 69.628906 495.902344 69.539062 493.832031 69.539062 C 489.242188 69.539062 484.5625 70.078125 480.964844 72.78125 C 475.382812 76.921875 475.472656 83.398438 475.472656 87.898438 L 475.5625 93.300781 L 469.714844 93.210938 L 469.175781 93.660156 L 468.273438 103.199219 L 468.8125 103.738281 L 475.652344 103.558594 C 475.652344 120.570312 475.652344 124.621094 475.113281 140.640625 L 475.652344 141.269531 C 481.773438 141 484.113281 140.910156 490.863281 140.910156 Z M 523.261719 140.371094 C 522.363281 123.988281 522.273438 119.578125 522.363281 103.648438 L 529.472656 104.011719 L 530.101562 103.378906 L 530.914062 93.839844 L 530.464844 93.300781 L 522.273438 93.300781 L 522.363281 91.230469 C 522.363281 85.738281 522.453125 80.699219 528.304688 80.699219 C 529.203125 80.699219 530.101562 80.878906 531.003906 80.96875 L 531.632812 80.609375 L 532.441406 70.441406 L 531.992188 69.808594 C 529.832031 69.628906 527.761719 69.539062 525.691406 69.539062 C 521.101562 69.539062 516.421875 70.078125 512.824219 72.78125 C 507.242188 76.921875 507.332031 83.398438 507.332031 87.898438 L 507.421875 93.300781 L 501.574219 93.210938 L 501.035156 93.660156 L 500.132812 103.199219 L 500.671875 103.738281 L 507.511719 103.558594 C 507.511719 120.570312 507.511719 124.621094 506.972656 140.640625 L 507.511719 141.269531 C 513.632812 141 515.972656 140.910156 522.722656 140.910156 Z M 577.085938 127.679688 C 573.667969 129.480469 569.617188 131.550781 563.046875 131.550781 C 557.648438 131.550781 553.957031 129.839844 551.796875 126.601562 C 550.445312 124.710938 550.175781 122.910156 549.816406 121.109375 L 578.886719 120.570312 L 579.425781 119.941406 C 579.335938 115.53125 579.246094 111.03125 577.988281 106.53125 C 574.835938 95.910156 567.90625 93.75 564.847656 93.03125 C 562.597656 92.398438 560.527344 92.21875 558.457031 92.21875 C 544.328125 92.21875 534.964844 101.488281 534.964844 117.058594 C 534.964844 121.289062 535.6875 125.699219 537.125 128.851562 C 542.347656 141 554.585938 142.078125 561.066406 142.078125 C 568.535156 142.078125 571.777344 140.730469 576.546875 138.839844 L 577.085938 138.121094 L 577.714844 127.949219 L 577.085938 127.679688 M 549.816406 111.570312 C 550.085938 108.78125 550.714844 105 554.136719 102.839844 C 555.214844 102.121094 556.476562 101.851562 557.738281 101.851562 C 560.707031 101.851562 562.507812 103.378906 563.496094 105 C 564.757812 106.980469 564.847656 109.140625 564.847656 111.210938 Z M 613.714844 107.609375 L 616.234375 92.941406 L 615.695312 92.308594 C 615.066406 92.308594 614.433594 92.21875 613.804688 92.21875 C 610.113281 92.21875 605.976562 94.289062 603.09375 100.949219 L 603.363281 92.671875 L 602.644531 91.949219 C 595.984375 93.390625 594.273438 93.660156 587.703125 94.648438 L 587.164062 95.191406 C 587.703125 101.941406 587.976562 105.988281 587.976562 118.5 C 587.976562 125.878906 587.882812 133.261719 587.703125 140.730469 L 588.246094 141.269531 C 594.90625 141 596.34375 140.910156 603.542969 141 L 603.996094 140.371094 C 603.632812 133.078125 603.09375 122.910156 603.09375 116.699219 C 603.09375 112.648438 603.09375 106.710938 609.214844 106.710938 C 610.746094 106.710938 611.644531 107.25 612.90625 107.96875 Z M 664.476562 141 C 672.847656 141.179688 683.195312 141.359375 689.945312 136.679688 C 695.886719 132.449219 697.507812 126.511719 697.507812 121.46875 C 697.507812 115.710938 695.074219 110.398438 689.945312 107.878906 C 688.234375 106.980469 686.257812 106.621094 684.367188 106.261719 C 687.425781 105 691.027344 103.378906 693.367188 98.609375 C 694.355469 96.539062 694.804688 94.378906 694.804688 92.308594 C 694.804688 89.429688 694.085938 85.46875 691.207031 82.230469 C 687.425781 78.179688 681.574219 77.101562 672.757812 77.101562 C 669.695312 77.101562 664.207031 77.191406 661.144531 77.28125 L 648.546875 77.460938 L 648.007812 78 C 648.367188 86.640625 648.457031 89.96875 648.457031 102.390625 C 648.457031 115.171875 648.367188 127.859375 648.1875 140.640625 L 648.816406 141 L 664.476562 141 M 663.847656 113.640625 C 670.6875 113.460938 674.644531 113.460938 677.257812 114.988281 C 679.867188 116.609375 680.855469 119.488281 680.855469 122.371094 C 680.855469 126.421875 678.605469 128.941406 675.277344 130.109375 C 672.574219 131.011719 667.714844 131.011719 663.847656 130.921875 L 663.847656 113.640625 M 663.847656 87.179688 C 665.734375 87.179688 668.257812 87.089844 669.785156 87.089844 C 674.644531 87.089844 679.054688 88.800781 679.054688 94.648438 C 679.054688 99.421875 675.546875 101.398438 674.464844 101.941406 C 672.214844 102.929688 667.445312 102.929688 663.847656 102.929688 Z M 749.078125 92.851562 L 734.40625 93.570312 L 733.777344 94.109375 C 734.40625 104.28125 734.40625 118.679688 734.40625 120.121094 C 734.40625 122.730469 734.40625 124.171875 734.316406 127.769531 C 731.886719 129.390625 729.996094 130.738281 727.566406 130.738281 C 721.085938 130.738281 721.085938 123.898438 721.085938 118.589844 C 721.085938 116.339844 721.085938 114 721.175781 111.75 L 721.355469 93.570312 L 720.726562 92.851562 L 705.875 93.570312 L 705.246094 94.109375 C 705.785156 101.671875 705.875 104.191406 705.875 113.28125 L 705.875 119.578125 C 705.785156 129.390625 706.238281 133.53125 709.476562 137.308594 C 712.445312 140.640625 716.765625 142.078125 721.265625 142.078125 C 727.65625 142.078125 731.347656 139.199219 734.585938 136.679688 L 734.496094 140.730469 L 735.125 141.269531 C 741.695312 141 743.675781 141 749.527344 141 L 750.066406 140.460938 C 749.617188 134.070312 749.4375 130.648438 749.4375 118.949219 C 749.4375 110.488281 749.527344 102.03125 749.707031 93.570312 Z M 786.246094 107.609375 L 788.765625 92.941406 L 788.226562 92.308594 C 787.597656 92.308594 786.964844 92.21875 786.335938 92.21875 C 782.644531 92.21875 778.507812 94.289062 775.625 100.949219 L 775.894531 92.671875 L 775.175781 91.949219 C 768.515625 93.390625 766.804688 93.660156 760.234375 94.648438 L 759.695312 95.191406 C 760.234375 101.941406 760.507812 105.988281 760.507812 118.5 C 760.507812 125.878906 760.414062 133.261719 760.234375 140.730469 L 760.777344 141.269531 C 767.4375 141 768.875 140.910156 776.074219 141 L 776.527344 140.371094 C 776.164062 133.078125 775.625 122.910156 775.625 116.699219 C 775.625 112.648438 775.625 106.710938 781.746094 106.710938 C 783.277344 106.710938 784.175781 107.25 785.4375 107.96875 Z M 838.085938 140.371094 C 837.636719 132.449219 837.636719 129.929688 837.457031 121.109375 L 837.457031 114.089844 C 837.367188 105.449219 837.277344 101.308594 835.027344 97.621094 C 832.234375 92.941406 827.105469 92.21875 823.867188 92.21875 C 818.375 92.21875 813.605469 95.101562 809.464844 97.53125 L 809.644531 92.578125 L 808.746094 91.949219 C 801.816406 93.390625 800.285156 93.660156 793.535156 94.558594 L 792.996094 95.191406 C 793.714844 103.019531 794.257812 108.691406 794.257812 123.359375 C 794.257812 129.121094 794.164062 134.878906 794.074219 140.640625 L 794.617188 141.179688 C 801.097656 140.910156 802.445312 140.910156 809.644531 140.910156 L 810.1875 140.371094 C 809.644531 126.511719 809.554688 123 809.464844 106.890625 C 811.355469 105.628906 813.515625 104.101562 816.394531 104.101562 C 821.347656 104.101562 821.796875 109.410156 822.066406 112.648438 C 822.246094 115.621094 822.335938 127.949219 822.335938 131.371094 C 822.335938 134.429688 822.246094 137.578125 822.246094 140.640625 L 822.785156 141.179688 C 828.726562 141 830.257812 140.910156 837.457031 140.910156 Z M 867.246094 109.949219 C 864.183594 108.871094 861.753906 107.878906 861.753906 105.359375 C 861.753906 104.28125 862.476562 101.308594 868.054688 101.308594 C 873.546875 101.308594 877.054688 103.648438 879.304688 105.089844 L 880.117188 104.820312 L 881.015625 95.011719 L 880.566406 94.46875 C 876.335938 93.300781 872.644531 92.21875 866.796875 92.21875 C 862.386719 92.21875 853.566406 92.578125 848.886719 99.328125 C 847.714844 100.949219 846.457031 103.648438 846.457031 107.25 C 846.457031 116.878906 853.925781 119.761719 858.15625 121.378906 L 861.574219 122.640625 C 864.003906 123.449219 867.964844 124.800781 867.964844 128.039062 C 867.964844 130.289062 865.894531 132.71875 860.855469 132.71875 C 858.335938 132.71875 854.644531 131.910156 851.316406 130.199219 C 849.785156 129.390625 849.066406 128.761719 847.714844 127.679688 L 846.90625 128.039062 C 846.726562 132.71875 846.636719 133.710938 846.273438 138.210938 L 846.726562 139.019531 C 851.136719 140.640625 854.914062 142.078125 861.484375 142.078125 C 868.324219 142.078125 881.824219 140.820312 883.445312 127.949219 C 883.535156 127.230469 883.535156 126.601562 883.535156 125.96875 C 883.535156 116.070312 876.605469 113.460938 871.65625 111.570312 Z M 886.054688 141 "/>
<path fill-rule="nonzero" fill="rgb(34.901961%, 14.901961%, 14.901961%)" fill-opacity="1" d="M 303.890625 222.300781 C 296.332031 219.148438 292.371094 217.53125 292.371094 213.480469 C 292.371094 210.691406 294.980469 207.179688 300.921875 207.179688 C 307.761719 207.179688 311.808594 209.96875 315.140625 212.21875 L 315.949219 211.859375 L 316.671875 200.070312 L 316.21875 199.441406 C 312.351562 197.820312 308.300781 196.109375 299.570312 196.109375 C 282.652344 196.109375 276.800781 205.648438 276.800781 215.28125 C 276.800781 226.171875 285.261719 230.128906 290.300781 232.558594 L 293.269531 233.910156 C 299.480469 236.519531 304.25 238.769531 304.25 243.539062 C 304.25 246.960938 301.28125 251.011719 293.449219 251.011719 C 285.261719 251.011719 280.671875 247.410156 278.058594 245.339844 L 277.160156 245.609375 L 276.53125 258.300781 L 277.070312 259.019531 C 278.058594 259.378906 279.050781 259.828125 280.039062 260.101562 C 282.109375 260.820312 287.421875 262.351562 294.171875 262.351562 C 296.871094 262.351562 303.710938 262.078125 309.109375 259.558594 C 316.671875 255.871094 319.910156 249.03125 319.910156 241.378906 C 319.910156 236.25 317.929688 230.761719 313.160156 227.070312 C 310.730469 225.269531 308.390625 224.191406 306.230469 223.199219 Z M 353.660156 250.648438 C 352.128906 251.101562 351.046875 251.460938 349.519531 251.460938 C 344.929688 251.460938 344.570312 248.578125 344.386719 247.230469 C 344.117188 244.890625 344.117188 239.941406 344.207031 236.339844 L 344.386719 223.648438 L 352.488281 224.011719 L 353.027344 223.46875 L 353.929688 213.839844 L 353.386719 213.300781 L 344.386719 213.300781 L 344.660156 198.179688 L 344.027344 197.640625 C 337.910156 199.441406 336.289062 199.890625 329.898438 201.511719 L 329.539062 202.140625 L 329.628906 213.390625 L 324.769531 213.210938 L 324.230469 213.660156 L 323.417969 223.289062 L 323.957031 223.828125 L 329.628906 223.648438 L 329.359375 237.960938 C 329.269531 240.210938 329.179688 242.460938 329.179688 244.800781 C 329.179688 253.078125 329.359375 261.988281 343.398438 261.988281 C 346.910156 261.988281 349.699219 261.449219 352.847656 260.910156 L 353.480469 260.28125 L 354.378906 251.011719 Z M 400.371094 234.179688 C 400.460938 226.078125 400.460938 222.570312 398.121094 218.789062 C 396.320312 215.910156 392.722656 212.308594 381.203125 212.308594 C 373.460938 212.308594 368.691406 213.75 363.5625 215.28125 L 363.023438 216 L 362.570312 225.808594 L 363.292969 226.171875 C 366.441406 224.910156 372.292969 222.570312 378.320312 222.570312 C 381.652344 222.570312 383 223.109375 384.171875 224.28125 C 385.070312 225.179688 385.34375 226.800781 385.34375 228.148438 C 374.542969 229.589844 369.5 230.578125 364.101562 233.910156 C 359.0625 237.058594 357.351562 242.191406 357.351562 246.238281 C 357.351562 255.871094 364.28125 262.078125 373.101562 262.078125 C 379.851562 262.078125 383.722656 258.839844 385.613281 257.308594 L 385.613281 260.640625 L 386.152344 261.269531 C 392.632812 261 394.613281 260.910156 400.460938 261 L 400.910156 260.371094 C 400.28125 251.550781 400.28125 249.300781 400.28125 240.839844 L 400.371094 234.179688 M 385.523438 248.488281 C 383.632812 249.570312 381.203125 250.828125 378.230469 250.828125 C 374.992188 250.828125 372.292969 249.121094 372.292969 245.339844 C 372.292969 239.398438 379.402344 238.410156 385.523438 237.601562 Z M 436.101562 250.648438 C 434.570312 251.101562 433.488281 251.460938 431.960938 251.460938 C 427.371094 251.460938 427.011719 248.578125 426.828125 247.230469 C 426.558594 244.890625 426.558594 239.941406 426.648438 236.339844 L 426.828125 223.648438 L 434.929688 224.011719 L 435.46875 223.46875 L 436.371094 213.839844 L 435.828125 213.300781 L 426.828125 213.300781 L 427.101562 198.179688 L 426.46875 197.640625 C 420.351562 199.441406 418.730469 199.890625 412.339844 201.511719 L 411.980469 202.140625 L 412.070312 213.390625 L 407.210938 213.210938 L 406.671875 213.660156 L 405.859375 223.289062 L 406.398438 223.828125 L 412.070312 223.648438 L 411.800781 237.960938 C 411.710938 240.210938 411.621094 242.460938 411.621094 244.800781 C 411.621094 253.078125 411.800781 261.988281 425.839844 261.988281 C 429.351562 261.988281 432.140625 261.449219 435.289062 260.910156 L 435.921875 260.28125 L 436.820312 251.011719 Z M 482.71875 247.679688 C 479.300781 249.480469 475.25 251.550781 468.679688 251.550781 C 463.28125 251.550781 459.589844 249.839844 457.429688 246.601562 C 456.078125 244.710938 455.808594 242.910156 455.449219 241.109375 L 484.519531 240.570312 L 485.058594 239.941406 C 484.96875 235.53125 484.878906 231.03125 483.621094 226.53125 C 480.46875 215.910156 473.539062 213.75 470.480469 213.03125 C 468.230469 212.398438 466.160156 212.21875 464.089844 212.21875 C 449.960938 212.21875 440.597656 221.488281 440.597656 237.058594 C 440.597656 241.289062 441.320312 245.699219 442.757812 248.851562 C 447.980469 261 460.21875 262.078125 466.699219 262.078125 C 474.167969 262.078125 477.410156 260.730469 482.179688 258.839844 L 482.71875 258.121094 L 483.347656 247.949219 L 482.71875 247.679688 M 455.449219 231.570312 C 455.71875 228.78125 456.347656 225 459.769531 222.839844 C 460.847656 222.121094 462.109375 221.851562 463.371094 221.851562 C 466.339844 221.851562 468.140625 223.378906 469.128906 225 C 470.390625 226.980469 470.480469 229.140625 470.480469 231.210938 Z M 531.679688 197.28125 L 520.25 197.460938 L 519.707031 198 C 520.070312 209.699219 520.339844 217.53125 520.339844 227.878906 C 520.339844 238.859375 520.070312 249.75 519.796875 260.730469 L 520.339844 261.269531 C 527 261 528.4375 260.910156 535.640625 261 L 536.089844 260.460938 C 535.730469 250.648438 535.730469 248.398438 535.730469 239.21875 C 545.808594 239.308594 556.609375 239.308594 563.089844 231.390625 C 565.609375 228.328125 567.769531 223.199219 567.769531 216.898438 C 567.769531 213.03125 566.867188 204.480469 559.398438 200.25 C 554 197.101562 546.347656 197.101562 539.597656 197.101562 L 531.679688 197.28125 M 535.730469 208.171875 C 537.707031 208.078125 539.597656 208.078125 541.578125 208.078125 C 549.5 208.261719 551.660156 212.308594 551.660156 217.53125 C 551.660156 218.789062 551.660156 224.011719 546.890625 226.621094 C 544.457031 227.96875 541.128906 228.148438 535.730469 228.148438 Z M 614.03125 234.179688 C 614.121094 226.078125 614.121094 222.570312 611.78125 218.789062 C 609.980469 215.910156 606.382812 212.308594 594.863281 212.308594 C 587.121094 212.308594 582.351562 213.75 577.222656 215.28125 L 576.683594 216 L 576.230469 225.808594 L 576.953125 226.171875 C 580.101562 224.910156 585.953125 222.570312 591.980469 222.570312 C 595.3125 222.570312 596.660156 223.109375 597.832031 224.28125 C 598.730469 225.179688 599.003906 226.800781 599.003906 228.148438 C 588.203125 229.589844 583.160156 230.578125 577.761719 233.910156 C 572.722656 237.058594 571.011719 242.191406 571.011719 246.238281 C 571.011719 255.871094 577.941406 262.078125 586.761719 262.078125 C 593.511719 262.078125 597.382812 258.839844 599.273438 257.308594 L 599.273438 260.640625 L 599.8125 261.269531 C 606.292969 261 608.273438 260.910156 614.121094 261 L 614.570312 260.371094 C 613.941406 251.550781 613.941406 249.300781 613.941406 240.839844 L 614.03125 234.179688 M 599.183594 248.488281 C 597.292969 249.570312 594.863281 250.828125 591.890625 250.828125 C 588.652344 250.828125 585.953125 249.121094 585.953125 245.339844 C 585.953125 239.398438 593.0625 238.410156 599.183594 237.601562 Z M 650.570312 227.609375 L 653.089844 212.941406 L 652.550781 212.308594 C 651.921875 212.308594 651.289062 212.21875 650.660156 212.21875 C 646.96875 212.21875 642.832031 214.289062 639.949219 220.949219 L 640.21875 212.671875 L 639.5 211.949219 C 632.839844 213.390625 631.128906 213.660156 624.558594 214.648438 L 624.019531 215.191406 C 624.558594 221.941406 624.832031 225.988281 624.832031 238.5 C 624.832031 245.878906 624.738281 253.261719 624.558594 260.730469 L 625.101562 261.269531 C 631.761719 261 633.199219 260.910156 640.398438 261 L 640.851562 260.371094 C 640.488281 253.078125 639.949219 242.910156 639.949219 236.699219 C 639.949219 232.648438 639.949219 226.710938 646.070312 226.710938 C 647.601562 226.710938 648.5 227.25 649.761719 227.96875 Z M 704.570312 259.828125 C 696.109375 245.519531 695.210938 243.898438 688.371094 231.570312 C 694.582031 223.109375 695.210938 222.210938 701.601562 214.019531 L 701.148438 213.121094 L 686.480469 213.300781 L 685.582031 213.929688 C 678.558594 226.078125 677.660156 227.519531 673.519531 233.730469 L 673.519531 223.738281 C 673.609375 206.910156 673.699219 203.308594 674.148438 189.71875 L 673.429688 189.179688 L 657.769531 191.519531 L 657.230469 192.148438 C 657.859375 200.878906 658.128906 205.109375 658.308594 216.898438 C 658.488281 231.480469 658.488281 246.058594 658.398438 260.640625 L 659.03125 261.269531 C 665.058594 261 666.769531 261 673.609375 261 L 674.148438 260.371094 L 673.609375 245.160156 L 673.519531 234.808594 C 681.351562 249.210938 682.339844 251.191406 686.929688 260.730469 L 687.738281 261.269531 L 703.941406 260.640625 Z M 703.492188 261 "/>
</svg>
