<?xml version="1.0" encoding="UTF-8"?>
<svg xmlns="http://www.w3.org/2000/svg" xmlns:xlink="http://www.w3.org/1999/xlink" width="975" height="1300" viewBox="0 0 975 1300">
<path fill-rule="nonzero" fill="rgb(98.823529%, 78.823529%, 9.019608%)" fill-opacity="1" d="M 50 50 L 925 50 L 925 290 L 50 290 Z M 50 50 "/>
<path fill-rule="nonzero" fill="rgb(34.901961%, 14.901961%, 14.901961%)" fill-opacity="1" d="M 211.324219 115.078125 L 211.957031 114.539062 L 212.675781 104.011719 L 212.226562 103.46875 L 191.707031 104.191406 L 191.707031 89.160156 L 213.757812 89.429688 L 214.296875 88.800781 L 215.285156 77.640625 L 214.746094 77.191406 C 199.894531 77.460938 195.125 77.460938 175.6875 77.371094 L 175.144531 77.910156 C 175.6875 86.730469 176.046875 93.839844 176.046875 109.769531 C 176.046875 120.121094 175.867188 130.46875 175.6875 140.820312 L 176.136719 141.269531 C 182.707031 141 184.234375 141 192.15625 141 L 192.605469 140.460938 C 191.976562 130.109375 191.886719 126.960938 191.617188 115.078125 Z M 267.9375 117.058594 C 267.9375 113.550781 267.9375 98.96875 255.335938 94.019531 C 251.375 92.488281 246.695312 92.308594 244.355469 92.308594 C 228.695312 92.308594 219.875 100.679688 219.875 117.238281 C 219.875 123 220.777344 128.851562 224.105469 133.710938 C 226.445312 137.21875 230.855469 142.078125 243.726562 142.078125 C 262.804688 142.078125 267.9375 130.558594 267.9375 117.058594 M 252.367188 116.96875 C 252.367188 124.351562 251.375 132.539062 243.90625 132.539062 C 241.566406 132.539062 239.945312 131.460938 238.867188 130.46875 C 237.335938 128.941406 235.625 125.878906 235.625 117.148438 C 235.625 114.539062 235.625 108.78125 237.425781 105.628906 C 238.777344 103.199219 241.117188 101.578125 243.996094 101.578125 C 246.515625 101.578125 248.585938 102.929688 249.757812 104.371094 C 251.917969 106.980469 252.367188 112.109375 252.367188 116.96875 Z M 302.496094 107.609375 L 305.015625 92.941406 L 304.476562 92.308594 C 303.847656 92.308594 303.214844 92.21875 302.585938 92.21875 C 298.894531 92.21875 294.757812 94.289062 291.875 100.949219 L 292.144531 92.671875 L 291.425781 91.949219 C 284.765625 93.390625 283.054688 93.660156 276.484375 94.648438 L 275.945312 95.191406 C 276.484375 101.941406 276.757812 105.988281 276.757812 118.5 C 276.757812 125.878906 276.664062 133.261719 276.484375 140.730469 L 277.027344 141.269531 C 283.6875 141 285.125 140.910156 292.324219 141 L 292.777344 140.371094 C 292.414062 133.078125 291.875 122.910156 291.875 116.699219 C 291.875 112.648438 291.875 106.710938 297.996094 106.710938 C 299.527344 106.710938 300.425781 107.25 301.6875 107.96875 Z M 335.4375 130.648438 C 333.90625 131.101562 332.824219 131.460938 331.296875 131.460938 C 326.707031 131.460938 326.347656 128.578125 326.164062 127.230469 C 325.894531 124.890625 325.894531 119.941406 325.984375 116.339844 L 326.164062 103.648438 L 334.265625 104.011719 L 334.804688 103.46875 L 335.707031 93.839844 L 335.164062 93.300781 L 326.164062 93.300781 L 326.4375 78.179688 L 325.804688 77.640625 C 319.6875 79.441406 318.066406 79.890625 311.675781 81.511719 L 311.316406 82.140625 L 311.40625 93.390625 L 306.546875 93.210938 L 306.007812 93.660156 L 305.195312 103.289062 L 305.734375 103.828125 L 311.40625 103.648438 L 311.136719 117.960938 C 311.046875 120.210938 310.957031 122.460938 310.957031 124.800781 C 310.957031 133.078125 311.136719 141.988281 325.175781 141.988281 C 328.6875 141.988281 331.476562 141.449219 334.625 140.910156 L 335.257812 140.28125 L 336.15625 131.011719 Z M 419.945312 85.738281 C 418.417969 83.761719 416.617188 82.050781 414.546875 80.699219 C 409.957031 77.640625 403.65625 76.109375 397.355469 76.109375 C 391.777344 76.109375 386.105469 77.101562 381.246094 79.890625 C 370.265625 86.191406 368.285156 96.628906 367.566406 100.410156 C 367.027344 103.46875 366.757812 106.53125 366.757812 109.589844 C 366.757812 115.710938 367.476562 127.230469 375.9375 135.058594 C 382.777344 141.449219 392.136719 142.351562 396.726562 142.351562 C 403.65625 142.351562 410.675781 140.730469 415.988281 136.320312 C 424.898438 128.941406 426.695312 116.699219 426.695312 109.050781 C 426.695312 94.921875 422.195312 88.53125 419.945312 85.738281 M 405.726562 91.5 C 407.527344 93.570312 408.335938 96.179688 408.875 98.789062 C 409.597656 102.210938 409.777344 105.449219 409.867188 107.699219 C 410.226562 121.199219 407.347656 130.921875 396.90625 130.921875 C 384.398438 130.921875 383.585938 116.339844 383.585938 108.238281 C 383.585938 97.441406 386.195312 91.859375 390.425781 89.160156 C 392.855469 87.71875 395.285156 87.359375 396.996094 87.359375 C 400.417969 87.359375 403.566406 88.890625 405.726562 91.5 Z M 461.886719 107.609375 L 464.40625 92.941406 L 463.867188 92.308594 C 463.238281 92.308594 462.605469 92.21875 461.976562 92.21875 C 458.285156 92.21875 454.148438 94.289062 451.265625 100.949219 L 451.535156 92.671875 L 450.816406 91.949219 C 444.15625 93.390625 442.445312 93.660156 435.875 94.648438 L 435.335938 95.191406 C 435.875 101.941406 436.148438 105.988281 436.148438 118.5 C 436.148438 125.878906 436.054688 133.261719 435.875 140.730469 L 436.417969 141.269531 C 443.078125 141 444.515625 140.910156 451.714844 141 L 452.167969 140.371094 C 451.804688 133.078125 451.265625 122.910156 451.265625 116.699219 C 451.265625 112.648438 451.265625 106.710938 457.386719 106.710938 C 458.917969 106.710938 459.816406 107.25 461.078125 107.96875 Z M 513.726562 140.460938 C 513.367188 132.359375 513.097656 126.960938 513.097656 115.171875 C 513.097656 91.410156 513.457031 81.601562 513.816406 69.71875 L 513.1875 69.179688 L 498.335938 71.519531 L 497.886719 72.058594 C 498.425781 80.519531 498.515625 82.769531 498.425781 93.03125 C 491.675781 92.851562 483.214844 92.671875 476.375 98.070312 C 470.078125 102.929688 467.464844 110.398438 467.464844 119.671875 C 467.464844 126.691406 469.355469 133.710938 474.667969 138.121094 C 478.625 141.359375 483.488281 142.078125 486.457031 142.078125 C 492.847656 142.078125 496.175781 139.109375 498.335938 137.21875 L 498.15625 140.730469 L 498.605469 141.269531 C 504.816406 141 506.527344 141 513.277344 141 L 513.726562 140.460938 M 498.425781 103.828125 C 498.515625 115.800781 498.425781 118.140625 498.15625 129.03125 C 496.355469 130.109375 494.554688 131.191406 492.035156 131.191406 C 483.304688 131.191406 483.304688 120.03125 483.304688 118.230469 C 483.304688 111.300781 485.285156 103.558594 495.367188 103.558594 C 496.355469 103.558594 497.167969 103.648438 498.425781 103.828125 Z M 561.789062 141 C 564.128906 141.089844 566.558594 141.089844 568.898438 141.089844 C 578.976562 141.089844 595.265625 140.730469 601.835938 124.710938 C 604.265625 118.769531 604.808594 111.570312 604.808594 107.519531 C 604.808594 99.058594 602.917969 92.578125 600.667969 88.53125 C 594.546875 77.371094 582.9375 77.011719 572.675781 77.011719 C 568.539062 77.011719 564.398438 77.191406 560.257812 77.371094 L 550.71875 77.460938 L 550.175781 78 C 550.539062 86.640625 550.898438 94.199219 550.898438 119.128906 C 550.898438 127.949219 550.808594 133.261719 550.628906 140.640625 L 551.167969 141 L 561.789062 141 M 566.738281 129.390625 C 566.558594 120.570312 566.46875 112.199219 566.46875 103.558594 C 566.46875 98.699219 566.46875 93.839844 566.558594 88.980469 C 568.355469 88.890625 570.246094 88.800781 572.046875 88.800781 C 577.539062 88.800781 588.246094 88.800781 588.246094 107.96875 C 588.246094 119.21875 584.015625 124.261719 581.855469 126.058594 C 577.808594 129.390625 571.597656 129.390625 566.738281 129.390625 Z M 657.1875 92.851562 L 642.515625 93.570312 L 641.886719 94.109375 C 642.515625 104.28125 642.515625 118.679688 642.515625 120.121094 C 642.515625 122.730469 642.515625 124.171875 642.425781 127.769531 C 639.996094 129.390625 638.105469 130.738281 635.675781 130.738281 C 629.195312 130.738281 629.195312 123.898438 629.195312 118.589844 C 629.195312 116.339844 629.195312 114 629.285156 111.75 L 629.464844 93.570312 L 628.835938 92.851562 L 613.984375 93.570312 L 613.355469 94.109375 C 613.894531 101.671875 613.984375 104.191406 613.984375 113.28125 L 613.984375 119.578125 C 613.894531 129.390625 614.347656 133.53125 617.585938 137.308594 C 620.554688 140.640625 624.875 142.078125 629.375 142.078125 C 635.765625 142.078125 639.457031 139.199219 642.695312 136.679688 L 642.605469 140.730469 L 643.234375 141.269531 C 649.804688 141 651.785156 141 657.636719 141 L 658.175781 140.460938 C 657.726562 134.070312 657.546875 130.648438 657.546875 118.949219 C 657.546875 110.488281 657.636719 102.03125 657.816406 93.570312 Z M 712.445312 140.371094 C 711.996094 132.449219 711.996094 129.929688 711.816406 121.109375 L 711.816406 114.089844 C 711.726562 105.449219 711.636719 101.308594 709.386719 97.621094 C 706.59375 92.941406 701.464844 92.21875 698.226562 92.21875 C 692.734375 92.21875 687.964844 95.101562 683.824219 97.53125 L 684.003906 92.578125 L 683.105469 91.949219 C 676.175781 93.390625 674.644531 93.660156 667.894531 94.558594 L 667.355469 95.191406 C 668.074219 103.019531 668.617188 108.691406 668.617188 123.359375 C 668.617188 129.121094 668.523438 134.878906 668.433594 140.640625 L 668.976562 141.179688 C 675.457031 140.910156 676.804688 140.910156 684.003906 140.910156 L 684.546875 140.371094 C 684.003906 126.511719 683.914062 123 683.824219 106.890625 C 685.714844 105.628906 687.875 104.101562 690.753906 104.101562 C 695.707031 104.101562 696.15625 109.410156 696.425781 112.648438 C 696.605469 115.621094 696.695312 127.949219 696.695312 131.371094 C 696.695312 134.429688 696.605469 137.578125 696.605469 140.640625 L 697.144531 141.179688 C 703.085938 141 704.617188 140.910156 711.816406 140.910156 Z M 762.664062 127.679688 C 759.246094 129.480469 755.195312 131.550781 748.625 131.550781 C 743.226562 131.550781 739.535156 129.839844 737.375 126.601562 C 736.023438 124.710938 735.753906 122.910156 735.394531 121.109375 L 764.464844 120.570312 L 765.003906 119.941406 C 764.914062 115.53125 764.824219 111.03125 763.566406 106.53125 C 760.414062 95.910156 753.484375 93.75 750.425781 93.03125 C 748.175781 92.398438 746.105469 92.21875 744.035156 92.21875 C 729.90625 92.21875 720.542969 101.488281 720.542969 117.058594 C 720.542969 121.289062 721.265625 125.699219 722.703125 128.851562 C 727.925781 141 740.164062 142.078125 746.644531 142.078125 C 754.113281 142.078125 757.355469 140.730469 762.125 138.839844 L 762.664062 138.121094 L 763.292969 127.949219 L 762.664062 127.679688 M 735.394531 111.570312 C 735.664062 108.78125 736.292969 105 739.714844 102.839844 C 740.792969 102.121094 742.054688 101.851562 743.316406 101.851562 C 746.285156 101.851562 748.085938 103.378906 749.074219 105 C 750.335938 106.980469 750.425781 109.140625 750.425781 111.210938 Z M 792.1875 109.949219 C 789.125 108.871094 786.695312 107.878906 786.695312 105.359375 C 786.695312 104.28125 787.417969 101.308594 792.996094 101.308594 C 798.488281 101.308594 801.996094 103.648438 804.246094 105.089844 L 805.058594 104.820312 L 805.957031 95.011719 L 805.507812 94.46875 C 801.277344 93.300781 797.585938 92.21875 791.738281 92.21875 C 787.328125 92.21875 778.507812 92.578125 773.828125 99.328125 C 772.65625 100.949219 771.398438 103.648438 771.398438 107.25 C 771.398438 116.878906 778.867188 119.761719 783.097656 121.378906 L 786.515625 122.640625 C 788.945312 123.449219 792.90625 124.800781 792.90625 128.039062 C 792.90625 130.289062 790.835938 132.71875 785.796875 132.71875 C 783.277344 132.71875 779.585938 131.910156 776.257812 130.199219 C 774.726562 129.390625 774.007812 128.761719 772.65625 127.679688 L 771.847656 128.039062 C 771.667969 132.71875 771.578125 133.710938 771.214844 138.210938 L 771.667969 139.019531 C 776.078125 140.640625 779.855469 142.078125 786.425781 142.078125 C 793.265625 142.078125 806.765625 140.820312 808.386719 127.949219 C 808.476562 127.230469 808.476562 126.601562 808.476562 125.96875 C 808.476562 116.070312 801.546875 113.460938 796.597656 111.570312 Z M 810.996094 141 "/>
<path fill-rule="nonzero" fill="rgb(34.901961%, 14.901961%, 14.901961%)" fill-opacity="1" d="M 303.890625 222.300781 C 296.332031 219.148438 292.371094 217.53125 292.371094 213.480469 C 292.371094 210.691406 294.980469 207.179688 300.921875 207.179688 C 307.761719 207.179688 311.808594 209.96875 315.140625 212.21875 L 315.949219 211.859375 L 316.671875 200.070312 L 316.21875 199.441406 C 312.351562 197.820312 308.300781 196.109375 299.570312 196.109375 C 282.652344 196.109375 276.800781 205.648438 276.800781 215.28125 C 276.800781 226.171875 285.261719 230.128906 290.300781 232.558594 L 293.269531 233.910156 C 299.480469 236.519531 304.25 238.769531 304.25 243.539062 C 304.25 246.960938 301.28125 251.011719 293.449219 251.011719 C 285.261719 251.011719 280.671875 247.410156 278.058594 245.339844 L 277.160156 245.609375 L 276.53125 258.300781 L 277.070312 259.019531 C 278.058594 259.378906 279.050781 259.828125 280.039062 260.101562 C 282.109375 260.820312 287.421875 262.351562 294.171875 262.351562 C 296.871094 262.351562 303.710938 262.078125 309.109375 259.558594 C 316.671875 255.871094 319.910156 249.03125 319.910156 241.378906 C 319.910156 236.25 317.929688 230.761719 313.160156 227.070312 C 310.730469 225.269531 308.390625 224.191406 306.230469 223.199219 Z M 353.660156 250.648438 C 352.128906 251.101562 351.046875 251.460938 349.519531 251.460938 C 344.929688 251.460938 344.570312 248.578125 344.386719 247.230469 C 344.117188 244.890625 344.117188 239.941406 344.207031 236.339844 L 344.386719 223.648438 L 352.488281 224.011719 L 353.027344 223.46875 L 353.929688 213.839844 L 353.386719 213.300781 L 344.386719 213.300781 L 344.660156 198.179688 L 344.027344 197.640625 C 337.910156 199.441406 336.289062 199.890625 329.898438 201.511719 L 329.539062 202.140625 L 329.628906 213.390625 L 324.769531 213.210938 L 324.230469 213.660156 L 323.417969 223.289062 L 323.957031 223.828125 L 329.628906 223.648438 L 329.359375 237.960938 C 329.269531 240.210938 329.179688 242.460938 329.179688 244.800781 C 329.179688 253.078125 329.359375 261.988281 343.398438 261.988281 C 346.910156 261.988281 349.699219 261.449219 352.847656 260.910156 L 353.480469 260.28125 L 354.378906 251.011719 Z M 400.371094 234.179688 C 400.460938 226.078125 400.460938 222.570312 398.121094 218.789062 C 396.320312 215.910156 392.722656 212.308594 381.203125 212.308594 C 373.460938 212.308594 368.691406 213.75 363.5625 215.28125 L 363.023438 216 L 362.570312 225.808594 L 363.292969 226.171875 C 366.441406 224.910156 372.292969 222.570312 378.320312 222.570312 C 381.652344 222.570312 383 223.109375 384.171875 224.28125 C 385.070312 225.179688 385.34375 226.800781 385.34375 228.148438 C 374.542969 229.589844 369.5 230.578125 364.101562 233.910156 C 359.0625 237.058594 357.351562 242.191406 357.351562 246.238281 C 357.351562 255.871094 364.28125 262.078125 373.101562 262.078125 C 379.851562 262.078125 383.722656 258.839844 385.613281 257.308594 L 385.613281 260.640625 L 386.152344 261.269531 C 392.632812 261 394.613281 260.910156 400.460938 261 L 400.910156 260.371094 C 400.28125 251.550781 400.28125 249.300781 400.28125 240.839844 L 400.371094 234.179688 M 385.523438 248.488281 C 383.632812 249.570312 381.203125 250.828125 378.230469 250.828125 C 374.992188 250.828125 372.292969 249.121094 372.292969 245.339844 C 372.292969 239.398438 379.402344 238.410156 385.523438 237.601562 Z M 436.101562 250.648438 C 434.570312 251.101562 433.488281 251.460938 431.960938 251.460938 C 427.371094 251.460938 427.011719 248.578125 426.828125 247.230469 C 426.558594 244.890625 426.558594 239.941406 426.648438 236.339844 L 426.828125 223.648438 L 434.929688 224.011719 L 435.46875 223.46875 L 436.371094 213.839844 L 435.828125 213.300781 L 426.828125 213.300781 L 427.101562 198.179688 L 426.46875 197.640625 C 420.351562 199.441406 418.730469 199.890625 412.339844 201.511719 L 411.980469 202.140625 L 412.070312 213.390625 L 407.210938 213.210938 L 406.671875 213.660156 L 405.859375 223.289062 L 406.398438 223.828125 L 412.070312 223.648438 L 411.800781 237.960938 C 411.710938 240.210938 411.621094 242.460938 411.621094 244.800781 C 411.621094 253.078125 411.800781 261.988281 425.839844 261.988281 C 429.351562 261.988281 432.140625 261.449219 435.289062 260.910156 L 435.921875 260.28125 L 436.820312 251.011719 Z M 482.71875 247.679688 C 479.300781 249.480469 475.25 251.550781 468.679688 251.550781 C 463.28125 251.550781 459.589844 249.839844 457.429688 246.601562 C 456.078125 244.710938 455.808594 242.910156 455.449219 241.109375 L 484.519531 240.570312 L 485.058594 239.941406 C 484.96875 235.53125 484.878906 231.03125 483.621094 226.53125 C 480.46875 215.910156 473.539062 213.75 470.480469 213.03125 C 468.230469 212.398438 466.160156 212.21875 464.089844 212.21875 C 449.960938 212.21875 440.597656 221.488281 440.597656 237.058594 C 440.597656 241.289062 441.320312 245.699219 442.757812 248.851562 C 447.980469 261 460.21875 262.078125 466.699219 262.078125 C 474.167969 262.078125 477.410156 260.730469 482.179688 258.839844 L 482.71875 258.121094 L 483.347656 247.949219 L 482.71875 247.679688 M 455.449219 231.570312 C 455.71875 228.78125 456.347656 225 459.769531 222.839844 C 460.847656 222.121094 462.109375 221.851562 463.371094 221.851562 C 466.339844 221.851562 468.140625 223.378906 469.128906 225 C 470.390625 226.980469 470.480469 229.140625 470.480469 231.210938 Z M 531.679688 197.28125 L 520.25 197.460938 L 519.707031 198 C 520.070312 209.699219 520.339844 217.53125 520.339844 227.878906 C 520.339844 238.859375 520.070312 249.75 519.796875 260.730469 L 520.339844 261.269531 C 527 261 528.4375 260.910156 535.640625 261 L 536.089844 260.460938 C 535.730469 250.648438 535.730469 248.398438 535.730469 239.21875 C 545.808594 239.308594 556.609375 239.308594 563.089844 231.390625 C 565.609375 228.328125 567.769531 223.199219 567.769531 216.898438 C 567.769531 213.03125 566.867188 204.480469 559.398438 200.25 C 554 197.101562 546.347656 197.101562 539.597656 197.101562 L 531.679688 197.28125 M 535.730469 208.171875 C 537.707031 208.078125 539.597656 208.078125 541.578125 208.078125 C 549.5 208.261719 551.660156 212.308594 551.660156 217.53125 C 551.660156 218.789062 551.660156 224.011719 546.890625 226.621094 C 544.457031 227.96875 541.128906 228.148438 535.730469 228.148438 Z M 614.03125 234.179688 C 614.121094 226.078125 614.121094 222.570312 611.78125 218.789062 C 609.980469 215.910156 606.382812 212.308594 594.863281 212.308594 C 587.121094 212.308594 582.351562 213.75 577.222656 215.28125 L 576.683594 216 L 576.230469 225.808594 L 576.953125 226.171875 C 580.101562 224.910156 585.953125 222.570312 591.980469 222.570312 C 595.3125 222.570312 596.660156 223.109375 597.832031 224.28125 C 598.730469 225.179688 599.003906 226.800781 599.003906 228.148438 C 588.203125 229.589844 583.160156 230.578125 577.761719 233.910156 C 572.722656 237.058594 571.011719 242.191406 571.011719 246.238281 C 571.011719 255.871094 577.941406 262.078125 586.761719 262.078125 C 593.511719 262.078125 597.382812 258.839844 599.273438 257.308594 L 599.273438 260.640625 L 599.8125 261.269531 C 606.292969 261 608.273438 260.910156 614.121094 261 L 614.570312 260.371094 C 613.941406 251.550781 613.941406 249.300781 613.941406 240.839844 L 614.03125 234.179688 M 599.183594 248.488281 C 597.292969 249.570312 594.863281 250.828125 591.890625 250.828125 C 588.652344 250.828125 585.953125 249.121094 585.953125 245.339844 C 585.953125 239.398438 593.0625 238.410156 599.183594 237.601562 Z M 650.570312 227.609375 L 653.089844 212.941406 L 652.550781 212.308594 C 651.921875 212.308594 651.289062 212.21875 650.660156 212.21875 C 646.96875 212.21875 642.832031 214.289062 639.949219 220.949219 L 640.21875 212.671875 L 639.5 211.949219 C 632.839844 213.390625 631.128906 213.660156 624.558594 214.648438 L 624.019531 215.191406 C 624.558594 221.941406 624.832031 225.988281 624.832031 238.5 C 624.832031 245.878906 624.738281 253.261719 624.558594 260.730469 L 625.101562 261.269531 C 631.761719 261 633.199219 260.910156 640.398438 261 L 640.851562 260.371094 C 640.488281 253.078125 639.949219 242.910156 639.949219 236.699219 C 639.949219 232.648438 639.949219 226.710938 646.070312 226.710938 C 647.601562 226.710938 648.5 227.25 649.761719 227.96875 Z M 704.570312 259.828125 C 696.109375 245.519531 695.210938 243.898438 688.371094 231.570312 C 694.582031 223.109375 695.210938 222.210938 701.601562 214.019531 L 701.148438 213.121094 L 686.480469 213.300781 L 685.582031 213.929688 C 678.558594 226.078125 677.660156 227.519531 673.519531 233.730469 L 673.519531 223.738281 C 673.609375 206.910156 673.699219 203.308594 674.148438 189.71875 L 673.429688 189.179688 L 657.769531 191.519531 L 657.230469 192.148438 C 657.859375 200.878906 658.128906 205.109375 658.308594 216.898438 C 658.488281 231.480469 658.488281 246.058594 658.398438 260.640625 L 659.03125 261.269531 C 665.058594 261 666.769531 261 673.609375 261 L 674.148438 260.371094 L 673.609375 245.160156 L 673.519531 234.808594 C 681.351562 249.210938 682.339844 251.191406 686.929688 260.730469 L 687.738281 261.269531 L 703.941406 260.640625 Z M 703.492188 261 "/>
</svg>
