<?xml version="1.0" encoding="UTF-8"?>
<svg xmlns="http://www.w3.org/2000/svg" xmlns:xlink="http://www.w3.org/1999/xlink" width="975" height="1300" viewBox="0 0 975 1300">
<path fill-rule="nonzero" fill="rgb(98.823529%, 78.823529%, 9.019608%)" fill-opacity="1" d="M 50 50 L 925 50 L 925 290 L 50 290 Z M 50 50 "/>
<path fill-rule="nonzero" fill="rgb(34.901961%, 14.901961%, 14.901961%)" fill-opacity="1" d="M 205.386719 77.191406 C 196.746094 77.460938 194.945312 77.460938 185.316406 77.460938 L 184.683594 78 C 179.914062 93.300781 177.035156 102.390625 163.804688 140.371094 L 164.164062 141 L 178.203125 141 L 178.835938 140.460938 L 183.246094 124.078125 L 202.683594 124.078125 L 206.554688 140.730469 L 207.183594 141.269531 C 213.753906 141 215.554688 140.910156 222.84375 141 L 223.296875 140.28125 C 212.40625 101.761719 211.144531 97.53125 206.015625 77.730469 L 205.386719 77.191406 M 186.394531 113.191406 L 190.894531 97.980469 L 194.046875 87.449219 L 196.746094 99.148438 L 200.074219 113.191406 Z M 273.15625 140.371094 C 272.707031 132.449219 272.707031 129.929688 272.527344 121.109375 L 272.527344 114.089844 C 272.4375 105.449219 272.347656 101.308594 270.097656 97.621094 C 267.304688 92.941406 262.175781 92.21875 258.9375 92.21875 C 253.445312 92.21875 248.675781 95.101562 244.535156 97.53125 L 244.714844 92.578125 L 243.816406 91.949219 C 236.886719 93.390625 235.355469 93.660156 228.605469 94.558594 L 228.066406 95.191406 C 228.785156 103.019531 229.328125 108.691406 229.328125 123.359375 C 229.328125 129.121094 229.234375 134.878906 229.144531 140.640625 L 229.6875 141.179688 C 236.167969 140.910156 237.515625 140.910156 244.714844 140.910156 L 245.257812 140.371094 C 244.714844 126.511719 244.625 123 244.535156 106.890625 C 246.425781 105.628906 248.585938 104.101562 251.464844 104.101562 C 256.417969 104.101562 256.867188 109.410156 257.136719 112.648438 C 257.316406 115.621094 257.40625 127.949219 257.40625 131.371094 C 257.40625 134.429688 257.316406 137.578125 257.316406 140.640625 L 257.855469 141.179688 C 263.796875 141 265.328125 140.910156 272.527344 140.910156 Z M 327.515625 140.460938 C 327.15625 132.359375 326.886719 126.960938 326.886719 115.171875 C 326.886719 91.410156 327.246094 81.601562 327.605469 69.71875 L 326.976562 69.179688 L 312.125 71.519531 L 311.675781 72.058594 C 312.214844 80.519531 312.304688 82.769531 312.214844 93.03125 C 305.464844 92.851562 297.003906 92.671875 290.164062 98.070312 C 283.867188 102.929688 281.253906 110.398438 281.253906 119.671875 C 281.253906 126.691406 283.144531 133.710938 288.457031 138.121094 C 292.414062 141.359375 297.277344 142.078125 300.246094 142.078125 C 306.636719 142.078125 309.964844 139.109375 312.125 137.21875 L 311.945312 140.730469 L 312.394531 141.269531 C 318.605469 141 320.316406 141 327.066406 141 L 327.515625 140.460938 M 312.214844 103.828125 C 312.304688 115.800781 312.214844 118.140625 311.945312 129.03125 C 310.144531 130.109375 308.34375 131.191406 305.824219 131.191406 C 297.09375 131.191406 297.09375 120.03125 297.09375 118.230469 C 297.09375 111.300781 299.074219 103.558594 309.15625 103.558594 C 310.144531 103.558594 310.957031 103.648438 312.214844 103.828125 Z M 363.785156 107.609375 L 366.304688 92.941406 L 365.765625 92.308594 C 365.136719 92.308594 364.503906 92.21875 363.875 92.21875 C 360.183594 92.21875 356.046875 94.289062 353.164062 100.949219 L 353.433594 92.671875 L 352.714844 91.949219 C 346.054688 93.390625 344.34375 93.660156 337.773438 94.648438 L 337.234375 95.191406 C 337.773438 101.941406 338.046875 105.988281 338.046875 118.5 C 338.046875 125.878906 337.953125 133.261719 337.773438 140.730469 L 338.316406 141.269531 C 344.976562 141 346.414062 140.910156 353.613281 141 L 354.066406 140.371094 C 353.703125 133.078125 353.164062 122.910156 353.164062 116.699219 C 353.164062 112.648438 353.164062 106.710938 359.285156 106.710938 C 360.816406 106.710938 361.714844 107.25 362.976562 107.96875 Z M 411.484375 127.679688 C 408.066406 129.480469 404.015625 131.550781 397.445312 131.550781 C 392.046875 131.550781 388.355469 129.839844 386.195312 126.601562 C 384.84375 124.710938 384.574219 122.910156 384.214844 121.109375 L 413.285156 120.570312 L 413.824219 119.941406 C 413.734375 115.53125 413.644531 111.03125 412.386719 106.53125 C 409.234375 95.910156 402.304688 93.75 399.246094 93.03125 C 396.996094 92.398438 394.925781 92.21875 392.855469 92.21875 C 378.726562 92.21875 369.363281 101.488281 369.363281 117.058594 C 369.363281 121.289062 370.085938 125.699219 371.523438 128.851562 C 376.746094 141 388.984375 142.078125 395.464844 142.078125 C 402.933594 142.078125 406.175781 140.730469 410.945312 138.839844 L 411.484375 138.121094 L 412.113281 127.949219 L 411.484375 127.679688 M 384.214844 111.570312 C 384.484375 108.78125 385.113281 105 388.535156 102.839844 C 389.613281 102.121094 390.875 101.851562 392.136719 101.851562 C 395.105469 101.851562 396.90625 103.378906 397.894531 105 C 399.15625 106.980469 399.246094 109.140625 399.246094 111.210938 Z M 477.722656 140.371094 C 481.324219 126.421875 481.953125 124.261719 487.351562 104.910156 C 488.433594 101.21875 489.421875 97.441406 490.414062 93.75 L 489.875 93.03125 L 478.171875 93.300781 L 477.542969 93.929688 L 474.933594 107.429688 L 472.414062 118.320312 L 470.703125 126.601562 L 469.171875 118.589844 L 467.191406 109.230469 L 464.042969 93.660156 L 463.503906 93.03125 L 446.222656 93.300781 L 445.59375 93.929688 L 442.625 108.691406 L 440.464844 118.589844 L 438.753906 126.871094 L 437.042969 117.960938 L 434.882812 108.238281 L 431.824219 93.300781 L 431.28125 92.851562 L 416.703125 93.929688 L 416.164062 94.648438 C 424.625 124.351562 425.972656 129.660156 428.492188 140.730469 L 429.125 141.269531 C 435.332031 141 437.582031 140.910156 445.863281 141 L 446.402344 140.371094 L 448.742188 129.390625 L 451.261719 118.5 L 453.511719 107.609375 L 454.863281 114.449219 L 456.214844 121.109375 L 459.992188 140.640625 L 460.625 141.269531 C 467.28125 141 469.984375 140.910156 477.183594 141 Z M 590.496094 77.191406 C 581.136719 77.460938 579.605469 77.460938 569.617188 77.460938 L 569.078125 78 L 564.9375 92.578125 L 561.335938 105.628906 L 557.105469 121.289062 L 553.144531 105.179688 L 550.625 95.011719 L 546.125 77.730469 L 545.675781 77.191406 C 536.046875 77.460938 534.425781 77.460938 524.347656 77.460938 L 523.804688 78 C 522.90625 104.910156 522.546875 111.839844 520.566406 140.730469 L 521.015625 141.269531 C 526.777344 141 528.488281 140.910156 533.707031 141 L 534.246094 140.460938 L 534.515625 123.269531 L 535.054688 105.808594 L 535.417969 88.800781 L 539.375 104.730469 L 542.796875 117.511719 L 548.828125 140.730469 L 549.367188 141.269531 C 554.945312 141 556.476562 140.910156 562.777344 141 L 563.316406 140.460938 L 568.535156 121.289062 L 572.136719 108.148438 L 577.175781 89.25 L 577.175781 105.359375 L 577.355469 119.128906 L 577.355469 140.730469 L 577.804688 141.269531 C 584.015625 141 586.445312 140.910156 593.375 141 L 593.828125 140.460938 C 593.285156 130.199219 592.65625 119.851562 592.296875 109.5 C 592.027344 103.828125 591.847656 98.160156 591.578125 92.488281 C 591.125 84.121094 591.035156 83.039062 591.035156 77.730469 Z M 649.804688 117.058594 C 649.804688 113.550781 649.804688 98.96875 637.203125 94.019531 C 633.242188 92.488281 628.5625 92.308594 626.222656 92.308594 C 610.5625 92.308594 601.742188 100.679688 601.742188 117.238281 C 601.742188 123 602.644531 128.851562 605.972656 133.710938 C 608.3125 137.21875 612.722656 142.078125 625.59375 142.078125 C 644.671875 142.078125 649.804688 130.558594 649.804688 117.058594 M 634.234375 116.96875 C 634.234375 124.351562 633.242188 132.539062 625.773438 132.539062 C 623.433594 132.539062 621.8125 131.460938 620.734375 130.46875 C 619.203125 128.941406 617.492188 125.878906 617.492188 117.148438 C 617.492188 114.539062 617.492188 108.78125 619.292969 105.628906 C 620.644531 103.199219 622.984375 101.578125 625.863281 101.578125 C 628.382812 101.578125 630.453125 102.929688 631.625 104.371094 C 633.785156 106.980469 634.234375 112.109375 634.234375 116.96875 Z M 674.191406 140.371094 C 673.742188 130.019531 673.292969 120.570312 673.292969 92.128906 C 673.292969 83.578125 673.382812 79.53125 673.742188 69.808594 L 673.113281 69.179688 L 657.722656 71.609375 L 657.363281 72.148438 C 658.261719 83.128906 658.351562 86.101562 658.53125 100.679688 C 658.625 105.988281 658.625 111.300781 658.625 116.609375 C 658.625 126.328125 658.441406 131.730469 658.082031 140.640625 L 658.625 141.269531 C 664.652344 141 667.082031 140.910156 673.652344 141 Z M 724.59375 127.679688 C 721.175781 129.480469 717.125 131.550781 710.554688 131.550781 C 705.15625 131.550781 701.464844 129.839844 699.304688 126.601562 C 697.953125 124.710938 697.683594 122.910156 697.324219 121.109375 L 726.394531 120.570312 L 726.933594 119.941406 C 726.84375 115.53125 726.753906 111.03125 725.496094 106.53125 C 722.34375 95.910156 715.414062 93.75 712.355469 93.03125 C 710.105469 92.398438 708.035156 92.21875 705.964844 92.21875 C 691.835938 92.21875 682.472656 101.488281 682.472656 117.058594 C 682.472656 121.289062 683.195312 125.699219 684.632812 128.851562 C 689.855469 141 702.09375 142.078125 708.574219 142.078125 C 716.042969 142.078125 719.285156 140.730469 724.054688 138.839844 L 724.59375 138.121094 L 725.222656 127.949219 L 724.59375 127.679688 M 697.324219 111.570312 C 697.59375 108.78125 698.222656 105 701.644531 102.839844 C 702.722656 102.121094 703.984375 101.851562 705.246094 101.851562 C 708.214844 101.851562 710.015625 103.378906 711.003906 105 C 712.265625 106.980469 712.355469 109.140625 712.355469 111.210938 Z M 761.226562 107.609375 L 763.746094 92.941406 L 763.207031 92.308594 C 762.578125 92.308594 761.945312 92.21875 761.316406 92.21875 C 757.625 92.21875 753.488281 94.289062 750.605469 100.949219 L 750.875 92.671875 L 750.15625 91.949219 C 743.496094 93.390625 741.785156 93.660156 735.214844 94.648438 L 734.675781 95.191406 C 735.214844 101.941406 735.488281 105.988281 735.488281 118.5 C 735.488281 125.878906 735.394531 133.261719 735.214844 140.730469 L 735.757812 141.269531 C 742.417969 141 743.855469 140.910156 751.054688 141 L 751.507812 140.371094 C 751.144531 133.078125 750.605469 122.910156 750.605469 116.699219 C 750.605469 112.648438 750.605469 106.710938 756.726562 106.710938 C 758.257812 106.710938 759.15625 107.25 760.417969 107.96875 Z M 809.015625 114.179688 C 809.105469 106.078125 809.105469 102.570312 806.765625 98.789062 C 804.964844 95.910156 801.367188 92.308594 789.847656 92.308594 C 782.105469 92.308594 777.335938 93.75 772.207031 95.28125 L 771.667969 96 L 771.214844 105.808594 L 771.9375 106.171875 C 775.085938 104.910156 780.9375 102.570312 786.964844 102.570312 C 790.296875 102.570312 791.644531 103.109375 792.816406 104.28125 C 793.714844 105.179688 793.988281 106.800781 793.988281 108.148438 C 783.1875 109.589844 778.144531 110.578125 772.746094 113.910156 C 767.707031 117.058594 765.996094 122.191406 765.996094 126.238281 C 765.996094 135.871094 772.925781 142.078125 781.746094 142.078125 C 788.496094 142.078125 792.367188 138.839844 794.257812 137.308594 L 794.257812 140.640625 L 794.796875 141.269531 C 801.277344 141 803.257812 140.910156 809.105469 141 L 809.554688 140.371094 C 808.925781 131.550781 808.925781 129.300781 808.925781 120.839844 L 809.015625 114.179688 M 794.167969 128.488281 C 792.277344 129.570312 789.847656 130.828125 786.875 130.828125 C 783.636719 130.828125 780.9375 129.121094 780.9375 125.339844 C 780.9375 119.398438 788.046875 118.410156 794.167969 117.601562 Z M 814.144531 141 "/>
<path fill-rule="nonzero" fill="rgb(34.901961%, 14.901961%, 14.901961%)" fill-opacity="1" d="M 303.890625 222.300781 C 296.332031 219.148438 292.371094 217.53125 292.371094 213.480469 C 292.371094 210.691406 294.980469 207.179688 300.921875 207.179688 C 307.761719 207.179688 311.808594 209.96875 315.140625 212.21875 L 315.949219 211.859375 L 316.671875 200.070312 L 316.21875 199.441406 C 312.351562 197.820312 308.300781 196.109375 299.570312 196.109375 C 282.652344 196.109375 276.800781 205.648438 276.800781 215.28125 C 276.800781 226.171875 285.261719 230.128906 290.300781 232.558594 L 293.269531 233.910156 C 299.480469 236.519531 304.25 238.769531 304.25 243.539062 C 304.25 246.960938 301.28125 251.011719 293.449219 251.011719 C 285.261719 251.011719 280.671875 247.410156 278.058594 245.339844 L 277.160156 245.609375 L 276.53125 258.300781 L 277.070312 259.019531 C 278.058594 259.378906 279.050781 259.828125 280.039062 260.101562 C 282.109375 260.820312 287.421875 262.351562 294.171875 262.351562 C 296.871094 262.351562 303.710938 262.078125 309.109375 259.558594 C 316.671875 255.871094 319.910156 249.03125 319.910156 241.378906 C 319.910156 236.25 317.929688 230.761719 313.160156 227.070312 C 310.730469 225.269531 308.390625 224.191406 306.230469 223.199219 Z M 353.660156 250.648438 C 352.128906 251.101562 351.046875 251.460938 349.519531 251.460938 C 344.929688 251.460938 344.570312 248.578125 344.386719 247.230469 C 344.117188 244.890625 344.117188 239.941406 344.207031 236.339844 L 344.386719 223.648438 L 352.488281 224.011719 L 353.027344 223.46875 L 353.929688 213.839844 L 353.386719 213.300781 L 344.386719 213.300781 L 344.660156 198.179688 L 344.027344 197.640625 C 337.910156 199.441406 336.289062 199.890625 329.898438 201.511719 L 329.539062 202.140625 L 329.628906 213.390625 L 324.769531 213.210938 L 324.230469 213.660156 L 323.417969 223.289062 L 323.957031 223.828125 L 329.628906 223.648438 L 329.359375 237.960938 C 329.269531 240.210938 329.179688 242.460938 329.179688 244.800781 C 329.179688 253.078125 329.359375 261.988281 343.398438 261.988281 C 346.910156 261.988281 349.699219 261.449219 352.847656 260.910156 L 353.480469 260.28125 L 354.378906 251.011719 Z M 400.371094 234.179688 C 400.460938 226.078125 400.460938 222.570312 398.121094 218.789062 C 396.320312 215.910156 392.722656 212.308594 381.203125 212.308594 C 373.460938 212.308594 368.691406 213.75 363.5625 215.28125 L 363.023438 216 L 362.570312 225.808594 L 363.292969 226.171875 C 366.441406 224.910156 372.292969 222.570312 378.320312 222.570312 C 381.652344 222.570312 383 223.109375 384.171875 224.28125 C 385.070312 225.179688 385.34375 226.800781 385.34375 228.148438 C 374.542969 229.589844 369.5 230.578125 364.101562 233.910156 C 359.0625 237.058594 357.351562 242.191406 357.351562 246.238281 C 357.351562 255.871094 364.28125 262.078125 373.101562 262.078125 C 379.851562 262.078125 383.722656 258.839844 385.613281 257.308594 L 385.613281 260.640625 L 386.152344 261.269531 C 392.632812 261 394.613281 260.910156 400.460938 261 L 400.910156 260.371094 C 400.28125 251.550781 400.28125 249.300781 400.28125 240.839844 L 400.371094 234.179688 M 385.523438 248.488281 C 383.632812 249.570312 381.203125 250.828125 378.230469 250.828125 C 374.992188 250.828125 372.292969 249.121094 372.292969 245.339844 C 372.292969 239.398438 379.402344 238.410156 385.523438 237.601562 Z M 436.101562 250.648438 C 434.570312 251.101562 433.488281 251.460938 431.960938 251.460938 C 427.371094 251.460938 427.011719 248.578125 426.828125 247.230469 C 426.558594 244.890625 426.558594 239.941406 426.648438 236.339844 L 426.828125 223.648438 L 434.929688 224.011719 L 435.46875 223.46875 L 436.371094 213.839844 L 435.828125 213.300781 L 426.828125 213.300781 L 427.101562 198.179688 L 426.46875 197.640625 C 420.351562 199.441406 418.730469 199.890625 412.339844 201.511719 L 411.980469 202.140625 L 412.070312 213.390625 L 407.210938 213.210938 L 406.671875 213.660156 L 405.859375 223.289062 L 406.398438 223.828125 L 412.070312 223.648438 L 411.800781 237.960938 C 411.710938 240.210938 411.621094 242.460938 411.621094 244.800781 C 411.621094 253.078125 411.800781 261.988281 425.839844 261.988281 C 429.351562 261.988281 432.140625 261.449219 435.289062 260.910156 L 435.921875 260.28125 L 436.820312 251.011719 Z M 482.71875 247.679688 C 479.300781 249.480469 475.25 251.550781 468.679688 251.550781 C 463.28125 251.550781 459.589844 249.839844 457.429688 246.601562 C 456.078125 244.710938 455.808594 242.910156 455.449219 241.109375 L 484.519531 240.570312 L 485.058594 239.941406 C 484.96875 235.53125 484.878906 231.03125 483.621094 226.53125 C 480.46875 215.910156 473.539062 213.75 470.480469 213.03125 C 468.230469 212.398438 466.160156 212.21875 464.089844 212.21875 C 449.960938 212.21875 440.597656 221.488281 440.597656 237.058594 C 440.597656 241.289062 441.320312 245.699219 442.757812 248.851562 C 447.980469 261 460.21875 262.078125 466.699219 262.078125 C 474.167969 262.078125 477.410156 260.730469 482.179688 258.839844 L 482.71875 258.121094 L 483.347656 247.949219 L 482.71875 247.679688 M 455.449219 231.570312 C 455.71875 228.78125 456.347656 225 459.769531 222.839844 C 460.847656 222.121094 462.109375 221.851562 463.371094 221.851562 C 466.339844 221.851562 468.140625 223.378906 469.128906 225 C 470.390625 226.980469 470.480469 229.140625 470.480469 231.210938 Z M 531.679688 197.28125 L 520.25 197.460938 L 519.707031 198 C 520.070312 209.699219 520.339844 217.53125 520.339844 227.878906 C 520.339844 238.859375 520.070312 249.75 519.796875 260.730469 L 520.339844 261.269531 C 527 261 528.4375 260.910156 535.640625 261 L 536.089844 260.460938 C 535.730469 250.648438 535.730469 248.398438 535.730469 239.21875 C 545.808594 239.308594 556.609375 239.308594 563.089844 231.390625 C 565.609375 228.328125 567.769531 223.199219 567.769531 216.898438 C 567.769531 213.03125 566.867188 204.480469 559.398438 200.25 C 554 197.101562 546.347656 197.101562 539.597656 197.101562 L 531.679688 197.28125 M 535.730469 208.171875 C 537.707031 208.078125 539.597656 208.078125 541.578125 208.078125 C 549.5 208.261719 551.660156 212.308594 551.660156 217.53125 C 551.660156 218.789062 551.660156 224.011719 546.890625 226.621094 C 544.457031 227.96875 541.128906 228.148438 535.730469 228.148438 Z M 614.03125 234.179688 C 614.121094 226.078125 614.121094 222.570312 611.78125 218.789062 C 609.980469 215.910156 606.382812 212.308594 594.863281 212.308594 C 587.121094 212.308594 582.351562 213.75 577.222656 215.28125 L 576.683594 216 L 576.230469 225.808594 L 576.953125 226.171875 C 580.101562 224.910156 585.953125 222.570312 591.980469 222.570312 C 595.3125 222.570312 596.660156 223.109375 597.832031 224.28125 C 598.730469 225.179688 599.003906 226.800781 599.003906 228.148438 C 588.203125 229.589844 583.160156 230.578125 577.761719 233.910156 C 572.722656 237.058594 571.011719 242.191406 571.011719 246.238281 C 571.011719 255.871094 577.941406 262.078125 586.761719 262.078125 C 593.511719 262.078125 597.382812 258.839844 599.273438 257.308594 L 599.273438 260.640625 L 599.8125 261.269531 C 606.292969 261 608.273438 260.910156 614.121094 261 L 614.570312 260.371094 C 613.941406 251.550781 613.941406 249.300781 613.941406 240.839844 L 614.03125 234.179688 M 599.183594 248.488281 C 597.292969 249.570312 594.863281 250.828125 591.890625 250.828125 C 588.652344 250.828125 585.953125 249.121094 585.953125 245.339844 C 585.953125 239.398438 593.0625 238.410156 599.183594 237.601562 Z M 650.570312 227.609375 L 653.089844 212.941406 L 652.550781 212.308594 C 651.921875 212.308594 651.289062 212.21875 650.660156 212.21875 C 646.96875 212.21875 642.832031 214.289062 639.949219 220.949219 L 640.21875 212.671875 L 639.5 211.949219 C 632.839844 213.390625 631.128906 213.660156 624.558594 214.648438 L 624.019531 215.191406 C 624.558594 221.941406 624.832031 225.988281 624.832031 238.5 C 624.832031 245.878906 624.738281 253.261719 624.558594 260.730469 L 625.101562 261.269531 C 631.761719 261 633.199219 260.910156 640.398438 261 L 640.851562 260.371094 C 640.488281 253.078125 639.949219 242.910156 639.949219 236.699219 C 639.949219 232.648438 639.949219 226.710938 646.070312 226.710938 C 647.601562 226.710938 648.5 227.25 649.761719 227.96875 Z M 704.570312 259.828125 C 696.109375 245.519531 695.210938 243.898438 688.371094 231.570312 C 694.582031 223.109375 695.210938 222.210938 701.601562 214.019531 L 701.148438 213.121094 L 686.480469 213.300781 L 685.582031 213.929688 C 678.558594 226.078125 677.660156 227.519531 673.519531 233.730469 L 673.519531 223.738281 C 673.609375 206.910156 673.699219 203.308594 674.148438 189.71875 L 673.429688 189.179688 L 657.769531 191.519531 L 657.230469 192.148438 C 657.859375 200.878906 658.128906 205.109375 658.308594 216.898438 C 658.488281 231.480469 658.488281 246.058594 658.398438 260.640625 L 659.03125 261.269531 C 665.058594 261 666.769531 261 673.609375 261 L 674.148438 260.371094 L 673.609375 245.160156 L 673.519531 234.808594 C 681.351562 249.210938 682.339844 251.191406 686.929688 260.730469 L 687.738281 261.269531 L 703.941406 260.640625 Z M 703.492188 261 "/>
</svg>
