<?xml version="1.0" encoding="UTF-8"?>
<svg xmlns="http://www.w3.org/2000/svg" xmlns:xlink="http://www.w3.org/1999/xlink" width="975" height="1300" viewBox="0 0 975 1300">
<path fill-rule="nonzero" fill="rgb(98.823529%, 78.823529%, 9.019608%)" fill-opacity="1" d="M 50 50 L 925 50 L 925 290 L 50 290 Z M 50 50 "/>
<path fill-rule="nonzero" fill="rgb(34.901961%, 14.901961%, 14.901961%)" fill-opacity="1" d="M 138.15625 77.191406 C 128.796875 77.460938 127.265625 77.460938 117.277344 77.460938 L 116.738281 78 L 112.597656 92.578125 L 108.996094 105.628906 L 104.765625 121.289062 L 100.804688 105.179688 L 98.285156 95.011719 L 93.785156 77.730469 L 93.335938 77.191406 C 83.707031 77.460938 82.085938 77.460938 72.007812 77.460938 L 71.464844 78 C 70.566406 104.910156 70.207031 111.839844 68.226562 140.730469 L 68.675781 141.269531 C 74.4375 141 76.148438 140.910156 81.367188 141 L 81.90625 140.460938 L 82.175781 123.269531 L 82.714844 105.808594 L 83.078125 88.800781 L 87.035156 104.730469 L 90.457031 117.511719 L 96.488281 140.730469 L 97.027344 141.269531 C 102.605469 141 104.136719 140.910156 110.4375 141 L 110.976562 140.460938 L 116.195312 121.289062 L 119.796875 108.148438 L 124.835938 89.25 L 124.835938 105.359375 L 125.015625 119.128906 L 125.015625 140.730469 L 125.464844 141.269531 C 131.675781 141 134.105469 140.910156 141.035156 141 L 141.488281 140.460938 C 140.945312 130.199219 140.316406 119.851562 139.957031 109.5 C 139.6875 103.828125 139.507812 98.160156 139.238281 92.488281 C 138.785156 84.121094 138.695312 83.039062 138.695312 77.730469 Z M 167.949219 140.371094 C 167.496094 133.441406 167.136719 128.128906 167.136719 115.710938 C 167.136719 108.058594 167.316406 100.320312 167.40625 92.671875 L 166.777344 91.949219 L 151.296875 94.648438 L 150.757812 95.191406 C 151.476562 102.03125 151.746094 105.179688 151.746094 117.960938 C 151.746094 127.769531 151.476562 133.261719 151.207031 140.640625 L 151.746094 141.269531 C 158.226562 141 160.027344 140.910156 167.316406 141 L 167.949219 140.371094 M 166.507812 83.308594 L 166.777344 71.070312 L 166.238281 70.53125 L 151.566406 72.328125 L 151.027344 72.960938 C 151.207031 76.199219 151.296875 78.089844 151.296875 80.25 C 151.296875 81.960938 151.296875 83.761719 151.207031 85.46875 L 151.835938 86.011719 C 157.957031 84.929688 159.667969 84.75 166.058594 83.941406 Z M 193.773438 140.371094 C 193.324219 130.019531 192.875 120.570312 192.875 92.128906 C 192.875 83.578125 192.964844 79.53125 193.324219 69.808594 L 192.695312 69.179688 L 177.304688 71.609375 L 176.945312 72.148438 C 177.84375 83.128906 177.933594 86.101562 178.113281 100.679688 C 178.207031 105.988281 178.207031 111.300781 178.207031 116.609375 C 178.207031 126.328125 178.023438 131.730469 177.664062 140.640625 L 178.207031 141.269531 C 184.234375 141 186.664062 140.910156 193.234375 141 Z M 220.054688 140.371094 C 219.605469 130.019531 219.15625 120.570312 219.15625 92.128906 C 219.15625 83.578125 219.246094 79.53125 219.605469 69.808594 L 218.976562 69.179688 L 203.585938 71.609375 L 203.226562 72.148438 C 204.125 83.128906 204.214844 86.101562 204.394531 100.679688 C 204.488281 105.988281 204.488281 111.300781 204.488281 116.609375 C 204.488281 126.328125 204.304688 131.730469 203.945312 140.640625 L 204.488281 141.269531 C 210.515625 141 212.945312 140.910156 219.515625 141 Z M 270.457031 127.679688 C 267.039062 129.480469 262.988281 131.550781 256.417969 131.550781 C 251.019531 131.550781 247.328125 129.839844 245.167969 126.601562 C 243.816406 124.710938 243.546875 122.910156 243.1875 121.109375 L 272.257812 120.570312 L 272.796875 119.941406 C 272.707031 115.53125 272.617188 111.03125 271.359375 106.53125 C 268.207031 95.910156 261.277344 93.75 258.21875 93.03125 C 255.96875 92.398438 253.898438 92.21875 251.828125 92.21875 C 237.699219 92.21875 228.335938 101.488281 228.335938 117.058594 C 228.335938 121.289062 229.058594 125.699219 230.496094 128.851562 C 235.71875 141 247.957031 142.078125 254.4375 142.078125 C 261.90625 142.078125 265.148438 140.730469 269.917969 138.839844 L 270.457031 138.121094 L 271.085938 127.949219 L 270.457031 127.679688 M 243.1875 111.570312 C 243.457031 108.78125 244.085938 105 247.507812 102.839844 C 248.585938 102.121094 249.847656 101.851562 251.109375 101.851562 C 254.078125 101.851562 255.878906 103.378906 256.867188 105 C 258.128906 106.980469 258.21875 109.140625 258.21875 111.210938 Z M 307.085938 107.609375 L 309.605469 92.941406 L 309.066406 92.308594 C 308.4375 92.308594 307.804688 92.21875 307.175781 92.21875 C 303.484375 92.21875 299.347656 94.289062 296.464844 100.949219 L 296.734375 92.671875 L 296.015625 91.949219 C 289.355469 93.390625 287.644531 93.660156 281.074219 94.648438 L 280.535156 95.191406 C 281.074219 101.941406 281.347656 105.988281 281.347656 118.5 C 281.347656 125.878906 281.253906 133.261719 281.074219 140.730469 L 281.617188 141.269531 C 288.277344 141 289.714844 140.910156 296.914062 141 L 297.367188 140.371094 C 297.003906 133.078125 296.464844 122.910156 296.464844 116.699219 C 296.464844 112.648438 296.464844 106.710938 302.585938 106.710938 C 304.117188 106.710938 305.015625 107.25 306.277344 107.96875 Z M 340.027344 130.648438 C 338.496094 131.101562 337.414062 131.460938 335.886719 131.460938 C 331.296875 131.460938 330.9375 128.578125 330.753906 127.230469 C 330.484375 124.890625 330.484375 119.941406 330.574219 116.339844 L 330.753906 103.648438 L 338.855469 104.011719 L 339.394531 103.46875 L 340.296875 93.839844 L 339.753906 93.300781 L 330.753906 93.300781 L 331.027344 78.179688 L 330.394531 77.640625 C 324.277344 79.441406 322.65625 79.890625 316.265625 81.511719 L 315.90625 82.140625 L 315.996094 93.390625 L 311.136719 93.210938 L 310.597656 93.660156 L 309.785156 103.289062 L 310.324219 103.828125 L 315.996094 103.648438 L 315.726562 117.960938 C 315.636719 120.210938 315.546875 122.460938 315.546875 124.800781 C 315.546875 133.078125 315.726562 141.988281 329.765625 141.988281 C 333.277344 141.988281 336.066406 141.449219 339.214844 140.910156 L 339.847656 140.28125 L 340.746094 131.011719 Z M 392.496094 117.058594 C 392.496094 113.550781 392.496094 98.96875 379.894531 94.019531 C 375.933594 92.488281 371.253906 92.308594 368.914062 92.308594 C 353.253906 92.308594 344.433594 100.679688 344.433594 117.238281 C 344.433594 123 345.335938 128.851562 348.664062 133.710938 C 351.003906 137.21875 355.414062 142.078125 368.285156 142.078125 C 387.363281 142.078125 392.496094 130.558594 392.496094 117.058594 M 376.925781 116.96875 C 376.925781 124.351562 375.933594 132.539062 368.464844 132.539062 C 366.125 132.539062 364.503906 131.460938 363.425781 130.46875 C 361.894531 128.941406 360.183594 125.878906 360.183594 117.148438 C 360.183594 114.539062 360.183594 108.78125 361.984375 105.628906 C 363.335938 103.199219 365.675781 101.578125 368.554688 101.578125 C 371.074219 101.578125 373.144531 102.929688 374.316406 104.371094 C 376.476562 106.980469 376.925781 112.109375 376.925781 116.96875 Z M 445.148438 140.371094 C 444.699219 132.449219 444.699219 129.929688 444.519531 121.109375 L 444.519531 114.089844 C 444.429688 105.449219 444.339844 101.308594 442.089844 97.621094 C 439.296875 92.941406 434.167969 92.21875 430.929688 92.21875 C 425.4375 92.21875 420.667969 95.101562 416.527344 97.53125 L 416.707031 92.578125 L 415.808594 91.949219 C 408.878906 93.390625 407.347656 93.660156 400.597656 94.558594 L 400.058594 95.191406 C 400.777344 103.019531 401.320312 108.691406 401.320312 123.359375 C 401.320312 129.121094 401.226562 134.878906 401.136719 140.640625 L 401.679688 141.179688 C 408.160156 140.910156 409.507812 140.910156 416.707031 140.910156 L 417.25 140.371094 C 416.707031 126.511719 416.617188 123 416.527344 106.890625 C 418.417969 105.628906 420.578125 104.101562 423.457031 104.101562 C 428.410156 104.101562 428.859375 109.410156 429.128906 112.648438 C 429.308594 115.621094 429.398438 127.949219 429.398438 131.371094 C 429.398438 134.429688 429.308594 137.578125 429.308594 140.640625 L 429.847656 141.179688 C 435.789062 141 437.320312 140.910156 444.519531 140.910156 Z M 520.386719 128.671875 C 510.574219 129.210938 502.746094 129.390625 500.046875 129.390625 L 498.246094 129.390625 C 498.066406 105.359375 498.15625 99.238281 498.875 77.730469 L 498.335938 77.191406 C 490.59375 77.550781 488.523438 77.550781 482.316406 77.460938 L 481.773438 78 C 482.136719 85.199219 482.226562 87.359375 482.226562 98.070312 C 482.226562 112.289062 482.136719 126.511719 482.136719 140.730469 L 482.585938 141.269531 C 500.226562 141 503.464844 141 519.664062 141 L 520.113281 140.460938 L 520.835938 129.121094 Z M 568.625 114.179688 C 568.714844 106.078125 568.714844 102.570312 566.375 98.789062 C 564.574219 95.910156 560.976562 92.308594 549.457031 92.308594 C 541.714844 92.308594 536.945312 93.75 531.816406 95.28125 L 531.277344 96 L 530.824219 105.808594 L 531.546875 106.171875 C 534.695312 104.910156 540.546875 102.570312 546.574219 102.570312 C 549.90625 102.570312 551.253906 103.109375 552.425781 104.28125 C 553.324219 105.179688 553.597656 106.800781 553.597656 108.148438 C 542.796875 109.589844 537.753906 110.578125 532.355469 113.910156 C 527.316406 117.058594 525.605469 122.191406 525.605469 126.238281 C 525.605469 135.871094 532.535156 142.078125 541.355469 142.078125 C 548.105469 142.078125 551.976562 138.839844 553.867188 137.308594 L 553.867188 140.640625 L 554.40625 141.269531 C 560.886719 141 562.867188 140.910156 568.714844 141 L 569.164062 140.371094 C 568.535156 131.550781 568.535156 129.300781 568.535156 120.839844 L 568.625 114.179688 M 553.777344 128.488281 C 551.886719 129.570312 549.457031 130.828125 546.484375 130.828125 C 543.246094 130.828125 540.546875 129.121094 540.546875 125.339844 C 540.546875 119.398438 547.65625 118.410156 553.777344 117.601562 Z M 625.417969 139.828125 C 616.957031 125.519531 616.058594 123.898438 609.21875 111.570312 C 615.429688 103.109375 616.058594 102.210938 622.449219 94.019531 L 621.996094 93.121094 L 607.328125 93.300781 L 606.429688 93.929688 C 599.40625 106.078125 598.507812 107.519531 594.367188 113.730469 L 594.367188 103.738281 C 594.457031 86.910156 594.546875 83.308594 594.996094 69.71875 L 594.277344 69.179688 L 578.617188 71.519531 L 578.078125 72.148438 C 578.707031 80.878906 578.976562 85.109375 579.15625 96.898438 C 579.335938 111.480469 579.335938 126.058594 579.246094 140.640625 L 579.878906 141.269531 C 585.90625 141 587.617188 141 594.457031 141 L 594.996094 140.371094 L 594.457031 125.160156 L 594.367188 114.808594 C 602.199219 129.210938 603.1875 131.191406 607.777344 140.730469 L 608.585938 141.269531 L 624.789062 140.640625 Z M 669.695312 127.679688 C 666.277344 129.480469 662.226562 131.550781 655.65625 131.550781 C 650.257812 131.550781 646.566406 129.839844 644.40625 126.601562 C 643.054688 124.710938 642.785156 122.910156 642.425781 121.109375 L 671.496094 120.570312 L 672.035156 119.941406 C 671.945312 115.53125 671.855469 111.03125 670.597656 106.53125 C 667.445312 95.910156 660.515625 93.75 657.457031 93.03125 C 655.207031 92.398438 653.136719 92.21875 651.066406 92.21875 C 636.9375 92.21875 627.574219 101.488281 627.574219 117.058594 C 627.574219 121.289062 628.296875 125.699219 629.734375 128.851562 C 634.957031 141 647.195312 142.078125 653.675781 142.078125 C 661.144531 142.078125 664.386719 140.730469 669.15625 138.839844 L 669.695312 138.121094 L 670.324219 127.949219 L 669.695312 127.679688 M 642.425781 111.570312 C 642.695312 108.78125 643.324219 105 646.746094 102.839844 C 647.824219 102.121094 649.085938 101.851562 650.347656 101.851562 C 653.316406 101.851562 655.117188 103.378906 656.105469 105 C 657.367188 106.980469 657.457031 109.140625 657.457031 111.210938 Z M 732.605469 102.300781 C 725.046875 99.148438 721.085938 97.53125 721.085938 93.480469 C 721.085938 90.691406 723.695312 87.179688 729.636719 87.179688 C 736.476562 87.179688 740.523438 89.96875 743.855469 92.21875 L 744.664062 91.859375 L 745.386719 80.070312 L 744.933594 79.441406 C 741.066406 77.820312 737.015625 76.109375 728.285156 76.109375 C 711.367188 76.109375 705.515625 85.648438 705.515625 95.28125 C 705.515625 106.171875 713.976562 110.128906 719.015625 112.558594 L 721.984375 113.910156 C 728.195312 116.519531 732.964844 118.769531 732.964844 123.539062 C 732.964844 126.960938 729.996094 131.011719 722.164062 131.011719 C 713.976562 131.011719 709.386719 127.410156 706.773438 125.339844 L 705.875 125.609375 L 705.246094 138.300781 L 705.785156 139.019531 C 706.773438 139.378906 707.765625 139.828125 708.753906 140.101562 C 710.824219 140.820312 716.136719 142.351562 722.886719 142.351562 C 725.585938 142.351562 732.425781 142.078125 737.824219 139.558594 C 745.386719 135.871094 748.625 129.03125 748.625 121.378906 C 748.625 116.25 746.644531 110.761719 741.875 107.070312 C 739.445312 105.269531 737.105469 104.191406 734.945312 103.199219 Z M 782.378906 130.648438 C 780.847656 131.101562 779.765625 131.460938 778.238281 131.460938 C 773.648438 131.460938 773.289062 128.578125 773.105469 127.230469 C 772.835938 124.890625 772.835938 119.941406 772.925781 116.339844 L 773.105469 103.648438 L 781.207031 104.011719 L 781.746094 103.46875 L 782.648438 93.839844 L 782.105469 93.300781 L 773.105469 93.300781 L 773.378906 78.179688 L 772.746094 77.640625 C 766.628906 79.441406 765.007812 79.890625 758.617188 81.511719 L 758.257812 82.140625 L 758.347656 93.390625 L 753.488281 93.210938 L 752.949219 93.660156 L 752.136719 103.289062 L 752.675781 103.828125 L 758.347656 103.648438 L 758.078125 117.960938 C 757.988281 120.210938 757.898438 122.460938 757.898438 124.800781 C 757.898438 133.078125 758.078125 141.988281 772.117188 141.988281 C 775.628906 141.988281 778.417969 141.449219 781.566406 140.910156 L 782.199219 140.28125 L 783.097656 131.011719 Z M 829.085938 114.179688 C 829.175781 106.078125 829.175781 102.570312 826.835938 98.789062 C 825.035156 95.910156 821.4375 92.308594 809.917969 92.308594 C 802.175781 92.308594 797.40625 93.75 792.277344 95.28125 L 791.738281 96 L 791.285156 105.808594 L 792.007812 106.171875 C 795.15625 104.910156 801.007812 102.570312 807.035156 102.570312 C 810.367188 102.570312 811.714844 103.109375 812.886719 104.28125 C 813.785156 105.179688 814.058594 106.800781 814.058594 108.148438 C 803.257812 109.589844 798.214844 110.578125 792.816406 113.910156 C 787.777344 117.058594 786.066406 122.191406 786.066406 126.238281 C 786.066406 135.871094 792.996094 142.078125 801.816406 142.078125 C 808.566406 142.078125 812.4375 138.839844 814.328125 137.308594 L 814.328125 140.640625 L 814.867188 141.269531 C 821.347656 141 823.328125 140.910156 829.175781 141 L 829.625 140.371094 C 828.996094 131.550781 828.996094 129.300781 828.996094 120.839844 L 829.085938 114.179688 M 814.238281 128.488281 C 812.347656 129.570312 809.917969 130.828125 806.945312 130.828125 C 803.707031 130.828125 801.007812 129.121094 801.007812 125.339844 C 801.007812 119.398438 808.117188 118.410156 814.238281 117.601562 Z M 864.816406 130.648438 C 863.285156 131.101562 862.203125 131.460938 860.675781 131.460938 C 856.085938 131.460938 855.726562 128.578125 855.542969 127.230469 C 855.273438 124.890625 855.273438 119.941406 855.363281 116.339844 L 855.542969 103.648438 L 863.644531 104.011719 L 864.183594 103.46875 L 865.085938 93.839844 L 864.542969 93.300781 L 855.542969 93.300781 L 855.816406 78.179688 L 855.183594 77.640625 C 849.066406 79.441406 847.445312 79.890625 841.054688 81.511719 L 840.695312 82.140625 L 840.785156 93.390625 L 835.925781 93.210938 L 835.386719 93.660156 L 834.574219 103.289062 L 835.113281 103.828125 L 840.785156 103.648438 L 840.515625 117.960938 C 840.425781 120.210938 840.335938 122.460938 840.335938 124.800781 C 840.335938 133.078125 840.515625 141.988281 854.554688 141.988281 C 858.066406 141.988281 860.855469 141.449219 864.003906 140.910156 L 864.636719 140.28125 L 865.535156 131.011719 Z M 911.4375 127.679688 C 908.019531 129.480469 903.96875 131.550781 897.398438 131.550781 C 892 131.550781 888.308594 129.839844 886.148438 126.601562 C 884.796875 124.710938 884.527344 122.910156 884.167969 121.109375 L 913.238281 120.570312 L 913.777344 119.941406 C 913.6875 115.53125 913.597656 111.03125 912.339844 106.53125 C 909.1875 95.910156 902.257812 93.75 899.199219 93.03125 C 896.949219 92.398438 894.878906 92.21875 892.808594 92.21875 C 878.679688 92.21875 869.316406 101.488281 869.316406 117.058594 C 869.316406 121.289062 870.039062 125.699219 871.476562 128.851562 C 876.699219 141 888.9375 142.078125 895.417969 142.078125 C 902.886719 142.078125 906.128906 140.730469 910.898438 138.839844 L 911.4375 138.121094 L 912.066406 127.949219 L 911.4375 127.679688 M 884.167969 111.570312 C 884.4375 108.78125 885.066406 105 888.488281 102.839844 C 889.566406 102.121094 890.828125 101.851562 892.089844 101.851562 C 895.058594 101.851562 896.859375 103.378906 897.847656 105 C 899.109375 106.980469 899.199219 109.140625 899.199219 111.210938 Z M 916.65625 141 "/>
<path fill-rule="nonzero" fill="rgb(34.901961%, 14.901961%, 14.901961%)" fill-opacity="1" d="M 180.769531 236.25 C 186.800781 246.511719 188.152344 249.210938 193.910156 261 L 194.632812 261.449219 C 197.421875 261.269531 200.121094 261.089844 202.910156 261 C 205.703125 260.910156 208.582031 260.820312 211.371094 260.820312 L 211.910156 259.738281 C 208.492188 255.328125 207.5 253.980469 201.019531 243.628906 C 198.140625 239.039062 196.703125 236.609375 194.453125 232.648438 C 198.5 230.851562 206.691406 227.070312 206.691406 215.640625 C 206.691406 211.679688 205.609375 203.488281 198.230469 199.621094 C 193.550781 197.191406 188.691406 197.101562 178.160156 197.28125 L 171.859375 197.371094 L 160.882812 197.371094 L 160.429688 197.910156 C 160.792969 207 161.152344 216.359375 161.152344 240.839844 C 161.152344 249.210938 161.0625 253.261719 160.792969 260.730469 L 161.332031 261.269531 C 167.902344 261 169.339844 260.910156 176.722656 261 L 177.261719 260.460938 C 176.542969 250.019531 176.453125 247.140625 176.359375 236.429688 L 180.769531 236.25 M 176.542969 208.261719 C 177.800781 208.171875 179.0625 208.171875 180.320312 208.171875 C 183.832031 208.171875 190.761719 208.171875 190.761719 216.089844 C 190.761719 218.609375 190.132812 221.941406 186.800781 224.011719 C 184.28125 225.539062 181.042969 225.71875 176.542969 225.808594 Z M 256.640625 247.679688 C 253.222656 249.480469 249.171875 251.550781 242.601562 251.550781 C 237.203125 251.550781 233.511719 249.839844 231.351562 246.601562 C 230 244.710938 229.730469 242.910156 229.371094 241.109375 L 258.441406 240.570312 L 258.980469 239.941406 C 258.890625 235.53125 258.800781 231.03125 257.542969 226.53125 C 254.390625 215.910156 247.460938 213.75 244.402344 213.03125 C 242.152344 212.398438 240.082031 212.21875 238.011719 212.21875 C 223.882812 212.21875 214.519531 221.488281 214.519531 237.058594 C 214.519531 241.289062 215.242188 245.699219 216.679688 248.851562 C 221.902344 261 234.140625 262.078125 240.621094 262.078125 C 248.089844 262.078125 251.332031 260.730469 256.101562 258.839844 L 256.640625 258.121094 L 257.269531 247.949219 L 256.640625 247.679688 M 229.371094 231.570312 C 229.640625 228.78125 230.269531 225 233.691406 222.839844 C 234.769531 222.121094 236.03125 221.851562 237.292969 221.851562 C 240.261719 221.851562 242.0625 223.378906 243.050781 225 C 244.3125 226.980469 244.402344 229.140625 244.402344 231.210938 Z M 302.449219 248.039062 C 300.019531 249.480469 297.679688 250.921875 293.089844 250.921875 C 282.917969 250.921875 280.847656 242.460938 280.847656 237.058594 C 280.847656 230.488281 283.730469 222.929688 292.460938 222.929688 C 296.417969 222.929688 298.578125 224.371094 301.28125 226.171875 L 302.179688 225.898438 C 302.539062 221.128906 302.628906 219.871094 303.347656 215.101562 L 302.898438 214.558594 C 298.9375 213.300781 295.519531 212.21875 290.300781 212.21875 C 269.148438 212.21875 265.007812 228.238281 265.007812 237.421875 C 265.007812 247.769531 270.410156 261.808594 290.660156 261.808594 C 295.429688 261.808594 298.488281 260.910156 302.269531 259.828125 L 302.808594 259.289062 L 303.167969 248.488281 Z M 336.382812 227.609375 L 338.902344 212.941406 L 338.363281 212.308594 C 337.734375 212.308594 337.101562 212.21875 336.472656 212.21875 C 332.78125 212.21875 328.644531 214.289062 325.761719 220.949219 L 326.03125 212.671875 L 325.3125 211.949219 C 318.652344 213.390625 316.941406 213.660156 310.371094 214.648438 L 309.832031 215.191406 C 310.371094 221.941406 310.644531 225.988281 310.644531 238.5 C 310.644531 245.878906 310.550781 253.261719 310.371094 260.730469 L 310.914062 261.269531 C 317.574219 261 319.011719 260.910156 326.210938 261 L 326.664062 260.371094 C 326.300781 253.078125 325.761719 242.910156 325.761719 236.699219 C 325.761719 232.648438 325.761719 226.710938 331.882812 226.710938 C 333.414062 226.710938 334.3125 227.25 335.574219 227.96875 Z M 384.082031 247.679688 C 380.664062 249.480469 376.613281 251.550781 370.042969 251.550781 C 364.644531 251.550781 360.953125 249.839844 358.792969 246.601562 C 357.441406 244.710938 357.171875 242.910156 356.8125 241.109375 L 385.882812 240.570312 L 386.421875 239.941406 C 386.332031 235.53125 386.242188 231.03125 384.984375 226.53125 C 381.832031 215.910156 374.902344 213.75 371.84375 213.03125 C 369.59375 212.398438 367.523438 212.21875 365.453125 212.21875 C 351.324219 212.21875 341.960938 221.488281 341.960938 237.058594 C 341.960938 241.289062 342.683594 245.699219 344.121094 248.851562 C 349.34375 261 361.582031 262.078125 368.0625 262.078125 C 375.53125 262.078125 378.773438 260.730469 383.542969 258.839844 L 384.082031 258.121094 L 384.710938 247.949219 L 384.082031 247.679688 M 356.8125 231.570312 C 357.082031 228.78125 357.710938 225 361.132812 222.839844 C 362.210938 222.121094 363.472656 221.851562 364.734375 221.851562 C 367.703125 221.851562 369.503906 223.378906 370.492188 225 C 371.753906 226.980469 371.84375 229.140625 371.84375 231.210938 Z M 434.75 234.179688 C 434.839844 226.078125 434.839844 222.570312 432.5 218.789062 C 430.699219 215.910156 427.101562 212.308594 415.582031 212.308594 C 407.839844 212.308594 403.070312 213.75 397.941406 215.28125 L 397.402344 216 L 396.949219 225.808594 L 397.671875 226.171875 C 400.820312 224.910156 406.671875 222.570312 412.699219 222.570312 C 416.03125 222.570312 417.378906 223.109375 418.550781 224.28125 C 419.449219 225.179688 419.722656 226.800781 419.722656 228.148438 C 408.921875 229.589844 403.878906 230.578125 398.480469 233.910156 C 393.441406 237.058594 391.730469 242.191406 391.730469 246.238281 C 391.730469 255.871094 398.660156 262.078125 407.480469 262.078125 C 414.230469 262.078125 418.101562 258.839844 419.992188 257.308594 L 419.992188 260.640625 L 420.53125 261.269531 C 427.011719 261 428.992188 260.910156 434.839844 261 L 435.289062 260.371094 C 434.660156 251.550781 434.660156 249.300781 434.660156 240.839844 L 434.75 234.179688 M 419.902344 248.488281 C 418.011719 249.570312 415.582031 250.828125 412.609375 250.828125 C 409.371094 250.828125 406.671875 249.121094 406.671875 245.339844 C 406.671875 239.398438 413.78125 238.410156 419.902344 237.601562 Z M 470.484375 250.648438 C 468.953125 251.101562 467.871094 251.460938 466.34375 251.460938 C 461.753906 251.460938 461.394531 248.578125 461.210938 247.230469 C 460.941406 244.890625 460.941406 239.941406 461.03125 236.339844 L 461.210938 223.648438 L 469.3125 224.011719 L 469.851562 223.46875 L 470.753906 213.839844 L 470.210938 213.300781 L 461.210938 213.300781 L 461.484375 198.179688 L 460.851562 197.640625 C 454.734375 199.441406 453.113281 199.890625 446.722656 201.511719 L 446.363281 202.140625 L 446.453125 213.390625 L 441.59375 213.210938 L 441.054688 213.660156 L 440.242188 223.289062 L 440.78125 223.828125 L 446.453125 223.648438 L 446.183594 237.960938 C 446.09375 240.210938 446.003906 242.460938 446.003906 244.800781 C 446.003906 253.078125 446.183594 261.988281 460.222656 261.988281 C 463.734375 261.988281 466.523438 261.449219 469.671875 260.910156 L 470.304688 260.28125 L 471.203125 251.011719 Z M 493.433594 260.371094 C 492.980469 253.441406 492.621094 248.128906 492.621094 235.710938 C 492.621094 228.058594 492.800781 220.320312 492.890625 212.671875 L 492.261719 211.949219 L 476.78125 214.648438 L 476.242188 215.191406 C 476.960938 222.03125 477.230469 225.179688 477.230469 237.960938 C 477.230469 247.769531 476.960938 253.261719 476.691406 260.640625 L 477.230469 261.269531 C 483.710938 261 485.511719 260.910156 492.800781 261 L 493.433594 260.371094 M 491.992188 203.308594 L 492.261719 191.070312 L 491.722656 190.53125 L 477.050781 192.328125 L 476.511719 192.960938 C 476.691406 196.199219 476.78125 198.089844 476.78125 200.25 C 476.78125 201.960938 476.78125 203.761719 476.691406 205.46875 L 477.320312 206.011719 C 483.441406 204.929688 485.152344 204.75 491.542969 203.941406 Z M 549.230469 237.058594 C 549.230469 233.550781 549.230469 218.96875 536.628906 214.019531 C 532.667969 212.488281 527.988281 212.308594 525.648438 212.308594 C 509.988281 212.308594 501.167969 220.679688 501.167969 237.238281 C 501.167969 243 502.070312 248.851562 505.398438 253.710938 C 507.738281 257.21875 512.148438 262.078125 525.019531 262.078125 C 544.097656 262.078125 549.230469 250.558594 549.230469 237.058594 M 533.660156 236.96875 C 533.660156 244.351562 532.667969 252.539062 525.199219 252.539062 C 522.859375 252.539062 521.238281 251.460938 520.160156 250.46875 C 518.628906 248.941406 516.917969 245.878906 516.917969 237.148438 C 516.917969 234.539062 516.917969 228.78125 518.71875 225.628906 C 520.070312 223.199219 522.410156 221.578125 525.289062 221.578125 C 527.808594 221.578125 529.878906 222.929688 531.050781 224.371094 C 533.210938 226.980469 533.660156 232.109375 533.660156 236.96875 Z M 601.882812 260.371094 C 601.433594 252.449219 601.433594 249.929688 601.253906 241.109375 L 601.253906 234.089844 C 601.164062 225.449219 601.074219 221.308594 598.824219 217.621094 C 596.03125 212.941406 590.902344 212.21875 587.664062 212.21875 C 582.171875 212.21875 577.402344 215.101562 573.261719 217.53125 L 573.441406 212.578125 L 572.542969 211.949219 C 565.613281 213.390625 564.082031 213.660156 557.332031 214.558594 L 556.792969 215.191406 C 557.511719 223.019531 558.054688 228.691406 558.054688 243.359375 C 558.054688 249.121094 557.960938 254.878906 557.871094 260.640625 L 558.414062 261.179688 C 564.894531 260.910156 566.242188 260.910156 573.441406 260.910156 L 573.984375 260.371094 C 573.441406 246.511719 573.351562 243 573.261719 226.890625 C 575.152344 225.628906 577.3125 224.101562 580.191406 224.101562 C 585.144531 224.101562 585.59375 229.410156 585.863281 232.648438 C 586.042969 235.621094 586.132812 247.949219 586.132812 251.371094 C 586.132812 254.429688 586.042969 257.578125 586.042969 260.640625 L 586.582031 261.179688 C 592.523438 261 594.054688 260.910156 601.253906 260.910156 Z M 674.78125 197.191406 C 666.140625 197.460938 664.339844 197.460938 654.710938 197.460938 L 654.078125 198 C 649.308594 213.300781 646.429688 222.390625 633.199219 260.371094 L 633.558594 261 L 647.597656 261 L 648.230469 260.460938 L 652.640625 244.078125 L 672.078125 244.078125 L 675.949219 260.730469 L 676.578125 261.269531 C 683.148438 261 684.949219 260.910156 692.238281 261 L 692.691406 260.28125 C 681.800781 221.761719 680.539062 217.53125 675.410156 197.730469 L 674.78125 197.191406 M 655.789062 233.191406 L 660.289062 217.980469 L 663.441406 207.449219 L 666.140625 219.148438 L 669.46875 233.191406 Z M 724.460938 227.609375 L 726.980469 212.941406 L 726.441406 212.308594 C 725.8125 212.308594 725.179688 212.21875 724.550781 212.21875 C 720.859375 212.21875 716.722656 214.289062 713.839844 220.949219 L 714.109375 212.671875 L 713.390625 211.949219 C 706.730469 213.390625 705.019531 213.660156 698.449219 214.648438 L 697.910156 215.191406 C 698.449219 221.941406 698.722656 225.988281 698.722656 238.5 C 698.722656 245.878906 698.628906 253.261719 698.449219 260.730469 L 698.992188 261.269531 C 705.652344 261 707.089844 260.910156 714.289062 261 L 714.742188 260.371094 C 714.378906 253.078125 713.839844 242.910156 713.839844 236.699219 C 713.839844 232.648438 713.839844 226.710938 719.960938 226.710938 C 721.492188 226.710938 722.390625 227.25 723.652344 227.96875 Z M 772.160156 247.679688 C 768.742188 249.480469 764.691406 251.550781 758.121094 251.550781 C 752.722656 251.550781 749.03125 249.839844 746.871094 246.601562 C 745.519531 244.710938 745.25 242.910156 744.890625 241.109375 L 773.960938 240.570312 L 774.5 239.941406 C 774.410156 235.53125 774.320312 231.03125 773.0625 226.53125 C 769.910156 215.910156 762.980469 213.75 759.921875 213.03125 C 757.671875 212.398438 755.601562 212.21875 753.53125 212.21875 C 739.402344 212.21875 730.039062 221.488281 730.039062 237.058594 C 730.039062 241.289062 730.761719 245.699219 732.199219 248.851562 C 737.421875 261 749.660156 262.078125 756.140625 262.078125 C 763.609375 262.078125 766.851562 260.730469 771.621094 258.839844 L 772.160156 258.121094 L 772.789062 247.949219 L 772.160156 247.679688 M 744.890625 231.570312 C 745.160156 228.78125 745.789062 225 749.210938 222.839844 C 750.289062 222.121094 751.550781 221.851562 752.8125 221.851562 C 755.78125 221.851562 757.582031 223.378906 758.570312 225 C 759.832031 226.980469 759.921875 229.140625 759.921875 231.210938 Z M 822.832031 234.179688 C 822.921875 226.078125 822.921875 222.570312 820.582031 218.789062 C 818.78125 215.910156 815.183594 212.308594 803.664062 212.308594 C 795.921875 212.308594 791.152344 213.75 786.023438 215.28125 L 785.484375 216 L 785.03125 225.808594 L 785.753906 226.171875 C 788.902344 224.910156 794.753906 222.570312 800.78125 222.570312 C 804.113281 222.570312 805.460938 223.109375 806.632812 224.28125 C 807.53125 225.179688 807.804688 226.800781 807.804688 228.148438 C 797.003906 229.589844 791.960938 230.578125 786.5625 233.910156 C 781.523438 237.058594 779.8125 242.191406 779.8125 246.238281 C 779.8125 255.871094 786.742188 262.078125 795.5625 262.078125 C 802.3125 262.078125 806.183594 258.839844 808.074219 257.308594 L 808.074219 260.640625 L 808.613281 261.269531 C 815.09375 261 817.074219 260.910156 822.921875 261 L 823.371094 260.371094 C 822.742188 251.550781 822.742188 249.300781 822.742188 240.839844 L 822.832031 234.179688 M 807.984375 248.488281 C 806.09375 249.570312 803.664062 250.828125 800.691406 250.828125 C 797.453125 250.828125 794.753906 249.121094 794.753906 245.339844 C 794.753906 239.398438 801.863281 238.410156 807.984375 237.601562 Z M 827.960938 261 "/>
</svg>
