<?xml version="1.0" encoding="UTF-8"?>
<svg xmlns="http://www.w3.org/2000/svg" xmlns:xlink="http://www.w3.org/1999/xlink" width="975" height="1300" viewBox="0 0 975 1300">
<path fill-rule="nonzero" fill="rgb(98.823529%, 78.823529%, 9.019608%)" fill-opacity="1" d="M 50 50 L 925 50 L 925 410 L 50 410 Z M 50 50 "/>
<path fill-rule="nonzero" fill="rgb(34.901961%, 14.901961%, 14.901961%)" fill-opacity="1" d="M 216.722656 124.890625 C 214.652344 126.511719 210.0625 129.929688 202.59375 129.929688 C 192.332031 129.929688 185.132812 122.28125 185.132812 109.5 C 185.132812 101.761719 187.832031 88.171875 202.503906 88.171875 C 209.253906 88.171875 212.941406 90.78125 215.191406 92.488281 L 216.003906 92.308594 L 216.8125 79.890625 L 216.453125 79.441406 C 213.214844 78.179688 207.722656 76.109375 199.804688 76.109375 C 176.492188 76.109375 168.394531 94.109375 168.394531 109.859375 C 168.394531 127.140625 178.921875 142.351562 200.882812 142.351562 C 208.441406 142.351562 213.394531 140.371094 216.273438 139.199219 L 216.722656 138.660156 L 217.351562 125.25 Z M 264.421875 114.179688 C 264.511719 106.078125 264.511719 102.570312 262.171875 98.789062 C 260.371094 95.910156 256.773438 92.308594 245.253906 92.308594 C 237.511719 92.308594 232.742188 93.75 227.613281 95.28125 L 227.074219 96 L 226.621094 105.808594 L 227.34375 106.171875 C 230.492188 104.910156 236.34375 102.570312 242.371094 102.570312 C 245.703125 102.570312 247.050781 103.109375 248.222656 104.28125 C 249.121094 105.179688 249.394531 106.800781 249.394531 108.148438 C 238.59375 109.589844 233.550781 110.578125 228.152344 113.910156 C 223.113281 117.058594 221.402344 122.191406 221.402344 126.238281 C 221.402344 135.871094 228.332031 142.078125 237.152344 142.078125 C 243.902344 142.078125 247.773438 138.839844 249.664062 137.308594 L 249.664062 140.640625 L 250.203125 141.269531 C 256.683594 141 258.664062 140.910156 264.511719 141 L 264.960938 140.371094 C 264.332031 131.550781 264.332031 129.300781 264.332031 120.839844 L 264.421875 114.179688 M 249.574219 128.488281 C 247.683594 129.570312 245.253906 130.828125 242.28125 130.828125 C 239.042969 130.828125 236.34375 129.121094 236.34375 125.339844 C 236.34375 119.398438 243.453125 118.410156 249.574219 117.601562 Z M 290.792969 140.371094 C 290.34375 130.019531 289.894531 120.570312 289.894531 92.128906 C 289.894531 83.578125 289.984375 79.53125 290.34375 69.808594 L 289.714844 69.179688 L 274.324219 71.609375 L 273.964844 72.148438 C 274.863281 83.128906 274.953125 86.101562 275.132812 100.679688 C 275.226562 105.988281 275.226562 111.300781 275.226562 116.609375 C 275.226562 126.328125 275.042969 131.730469 274.683594 140.640625 L 275.226562 141.269531 C 281.253906 141 283.683594 140.910156 290.253906 141 Z M 317.523438 140.371094 C 317.070312 133.441406 316.710938 128.128906 316.710938 115.710938 C 316.710938 108.058594 316.890625 100.320312 316.980469 92.671875 L 316.351562 91.949219 L 300.871094 94.648438 L 300.332031 95.191406 C 301.050781 102.03125 301.320312 105.179688 301.320312 117.960938 C 301.320312 127.769531 301.050781 133.261719 300.78125 140.640625 L 301.320312 141.269531 C 307.800781 141 309.601562 140.910156 316.890625 141 L 317.523438 140.371094 M 316.082031 83.308594 L 316.351562 71.070312 L 315.8125 70.53125 L 301.140625 72.328125 L 300.601562 72.960938 C 300.78125 76.199219 300.871094 78.089844 300.871094 80.25 C 300.871094 81.960938 300.871094 83.761719 300.78125 85.46875 L 301.410156 86.011719 C 307.53125 84.929688 309.242188 84.75 315.632812 83.941406 Z M 345.511719 140.371094 C 344.613281 123.988281 344.523438 119.578125 344.613281 103.648438 L 351.722656 104.011719 L 352.351562 103.378906 L 353.164062 93.839844 L 352.714844 93.300781 L 344.523438 93.300781 L 344.613281 91.230469 C 344.613281 85.738281 344.703125 80.699219 350.554688 80.699219 C 351.453125 80.699219 352.351562 80.878906 353.253906 80.96875 L 353.882812 80.609375 L 354.691406 70.441406 L 354.242188 69.808594 C 352.082031 69.628906 350.011719 69.539062 347.941406 69.539062 C 343.351562 69.539062 338.671875 70.078125 335.074219 72.78125 C 329.492188 76.921875 329.582031 83.398438 329.582031 87.898438 L 329.671875 93.300781 L 323.824219 93.210938 L 323.285156 93.660156 L 322.382812 103.199219 L 322.921875 103.738281 L 329.761719 103.558594 C 329.761719 120.570312 329.761719 124.621094 329.222656 140.640625 L 329.761719 141.269531 C 335.882812 141 338.222656 140.910156 344.972656 140.910156 Z M 405.183594 117.058594 C 405.183594 113.550781 405.183594 98.96875 392.582031 94.019531 C 388.621094 92.488281 383.941406 92.308594 381.601562 92.308594 C 365.941406 92.308594 357.121094 100.679688 357.121094 117.238281 C 357.121094 123 358.023438 128.851562 361.351562 133.710938 C 363.691406 137.21875 368.101562 142.078125 380.972656 142.078125 C 400.050781 142.078125 405.183594 130.558594 405.183594 117.058594 M 389.613281 116.96875 C 389.613281 124.351562 388.621094 132.539062 381.152344 132.539062 C 378.8125 132.539062 377.191406 131.460938 376.113281 130.46875 C 374.582031 128.941406 372.871094 125.878906 372.871094 117.148438 C 372.871094 114.539062 372.871094 108.78125 374.671875 105.628906 C 376.023438 103.199219 378.363281 101.578125 381.242188 101.578125 C 383.761719 101.578125 385.832031 102.929688 387.003906 104.371094 C 389.164062 106.980469 389.613281 112.109375 389.613281 116.96875 Z M 439.742188 107.609375 L 442.261719 92.941406 L 441.722656 92.308594 C 441.09375 92.308594 440.460938 92.21875 439.832031 92.21875 C 436.140625 92.21875 432.003906 94.289062 429.121094 100.949219 L 429.390625 92.671875 L 428.671875 91.949219 C 422.011719 93.390625 420.300781 93.660156 413.730469 94.648438 L 413.191406 95.191406 C 413.730469 101.941406 414.003906 105.988281 414.003906 118.5 C 414.003906 125.878906 413.910156 133.261719 413.730469 140.730469 L 414.273438 141.269531 C 420.933594 141 422.371094 140.910156 429.570312 141 L 430.023438 140.371094 C 429.660156 133.078125 429.121094 122.910156 429.121094 116.699219 C 429.121094 112.648438 429.121094 106.710938 435.242188 106.710938 C 436.773438 106.710938 437.671875 107.25 438.933594 107.96875 Z M 491.582031 140.371094 C 491.132812 132.449219 491.132812 129.929688 490.953125 121.109375 L 490.953125 114.089844 C 490.863281 105.449219 490.773438 101.308594 488.523438 97.621094 C 485.730469 92.941406 480.601562 92.21875 477.363281 92.21875 C 471.871094 92.21875 467.101562 95.101562 462.960938 97.53125 L 463.140625 92.578125 L 462.242188 91.949219 C 455.3125 93.390625 453.78125 93.660156 447.03125 94.558594 L 446.492188 95.191406 C 447.210938 103.019531 447.753906 108.691406 447.753906 123.359375 C 447.753906 129.121094 447.660156 134.878906 447.570312 140.640625 L 448.113281 141.179688 C 454.59375 140.910156 455.941406 140.910156 463.140625 140.910156 L 463.683594 140.371094 C 463.140625 126.511719 463.050781 123 462.960938 106.890625 C 464.851562 105.628906 467.011719 104.101562 469.890625 104.101562 C 474.84375 104.101562 475.292969 109.410156 475.5625 112.648438 C 475.742188 115.621094 475.832031 127.949219 475.832031 131.371094 C 475.832031 134.429688 475.742188 137.578125 475.742188 140.640625 L 476.28125 141.179688 C 482.222656 141 483.753906 140.910156 490.953125 140.910156 Z M 518.132812 140.371094 C 517.679688 133.441406 517.320312 128.128906 517.320312 115.710938 C 517.320312 108.058594 517.5 100.320312 517.589844 92.671875 L 516.960938 91.949219 L 501.480469 94.648438 L 500.941406 95.191406 C 501.660156 102.03125 501.929688 105.179688 501.929688 117.960938 C 501.929688 127.769531 501.660156 133.261719 501.390625 140.640625 L 501.929688 141.269531 C 508.410156 141 510.210938 140.910156 517.5 141 L 518.132812 140.371094 M 516.691406 83.308594 L 516.960938 71.070312 L 516.421875 70.53125 L 501.75 72.328125 L 501.210938 72.960938 C 501.390625 76.199219 501.480469 78.089844 501.480469 80.25 C 501.480469 81.960938 501.480469 83.761719 501.390625 85.46875 L 502.019531 86.011719 C 508.140625 84.929688 509.851562 84.75 516.242188 83.941406 Z M 568.171875 114.179688 C 568.261719 106.078125 568.261719 102.570312 565.921875 98.789062 C 564.121094 95.910156 560.523438 92.308594 549.003906 92.308594 C 541.261719 92.308594 536.492188 93.75 531.363281 95.28125 L 530.824219 96 L 530.371094 105.808594 L 531.09375 106.171875 C 534.242188 104.910156 540.09375 102.570312 546.121094 102.570312 C 549.453125 102.570312 550.800781 103.109375 551.972656 104.28125 C 552.871094 105.179688 553.144531 106.800781 553.144531 108.148438 C 542.34375 109.589844 537.300781 110.578125 531.902344 113.910156 C 526.863281 117.058594 525.152344 122.191406 525.152344 126.238281 C 525.152344 135.871094 532.082031 142.078125 540.902344 142.078125 C 547.652344 142.078125 551.523438 138.839844 553.414062 137.308594 L 553.414062 140.640625 L 553.953125 141.269531 C 560.433594 141 562.414062 140.910156 568.261719 141 L 568.710938 140.371094 C 568.082031 131.550781 568.082031 129.300781 568.082031 120.839844 L 568.171875 114.179688 M 553.324219 128.488281 C 551.433594 129.570312 549.003906 130.828125 546.03125 130.828125 C 542.792969 130.828125 540.09375 129.121094 540.09375 125.339844 C 540.09375 119.398438 547.203125 118.410156 553.324219 117.601562 Z M 630.992188 102.300781 C 623.433594 99.148438 619.472656 97.53125 619.472656 93.480469 C 619.472656 90.691406 622.082031 87.179688 628.023438 87.179688 C 634.863281 87.179688 638.910156 89.96875 642.242188 92.21875 L 643.050781 91.859375 L 643.773438 80.070312 L 643.320312 79.441406 C 639.453125 77.820312 635.402344 76.109375 626.671875 76.109375 C 609.753906 76.109375 603.902344 85.648438 603.902344 95.28125 C 603.902344 106.171875 612.363281 110.128906 617.402344 112.558594 L 620.371094 113.910156 C 626.582031 116.519531 631.351562 118.769531 631.351562 123.539062 C 631.351562 126.960938 628.382812 131.011719 620.550781 131.011719 C 612.363281 131.011719 607.773438 127.410156 605.160156 125.339844 L 604.261719 125.609375 L 603.632812 138.300781 L 604.171875 139.019531 C 605.160156 139.378906 606.152344 139.828125 607.140625 140.101562 C 609.210938 140.820312 614.523438 142.351562 621.273438 142.351562 C 623.972656 142.351562 630.8125 142.078125 636.210938 139.558594 C 643.773438 135.871094 647.011719 129.03125 647.011719 121.378906 C 647.011719 116.25 645.03125 110.761719 640.261719 107.070312 C 637.832031 105.269531 635.492188 104.191406 633.332031 103.199219 Z M 680.765625 130.648438 C 679.234375 131.101562 678.152344 131.460938 676.625 131.460938 C 672.035156 131.460938 671.675781 128.578125 671.492188 127.230469 C 671.222656 124.890625 671.222656 119.941406 671.3125 116.339844 L 671.492188 103.648438 L 679.59375 104.011719 L 680.132812 103.46875 L 681.035156 93.839844 L 680.492188 93.300781 L 671.492188 93.300781 L 671.765625 78.179688 L 671.132812 77.640625 C 665.015625 79.441406 663.394531 79.890625 657.003906 81.511719 L 656.644531 82.140625 L 656.734375 93.390625 L 651.875 93.210938 L 651.335938 93.660156 L 650.523438 103.289062 L 651.0625 103.828125 L 656.734375 103.648438 L 656.464844 117.960938 C 656.375 120.210938 656.285156 122.460938 656.285156 124.800781 C 656.285156 133.078125 656.464844 141.988281 670.503906 141.988281 C 674.015625 141.988281 676.804688 141.449219 679.953125 140.910156 L 680.585938 140.28125 L 681.484375 131.011719 Z M 727.472656 114.179688 C 727.5625 106.078125 727.5625 102.570312 725.222656 98.789062 C 723.421875 95.910156 719.824219 92.308594 708.304688 92.308594 C 700.5625 92.308594 695.792969 93.75 690.664062 95.28125 L 690.125 96 L 689.671875 105.808594 L 690.394531 106.171875 C 693.542969 104.910156 699.394531 102.570312 705.421875 102.570312 C 708.753906 102.570312 710.101562 103.109375 711.273438 104.28125 C 712.171875 105.179688 712.445312 106.800781 712.445312 108.148438 C 701.644531 109.589844 696.601562 110.578125 691.203125 113.910156 C 686.164062 117.058594 684.453125 122.191406 684.453125 126.238281 C 684.453125 135.871094 691.382812 142.078125 700.203125 142.078125 C 706.953125 142.078125 710.824219 138.839844 712.714844 137.308594 L 712.714844 140.640625 L 713.253906 141.269531 C 719.734375 141 721.714844 140.910156 727.5625 141 L 728.011719 140.371094 C 727.382812 131.550781 727.382812 129.300781 727.382812 120.839844 L 727.472656 114.179688 M 712.625 128.488281 C 710.734375 129.570312 708.304688 130.828125 705.332031 130.828125 C 702.09375 130.828125 699.394531 129.121094 699.394531 125.339844 C 699.394531 119.398438 706.503906 118.410156 712.625 117.601562 Z M 763.203125 130.648438 C 761.671875 131.101562 760.589844 131.460938 759.0625 131.460938 C 754.472656 131.460938 754.113281 128.578125 753.929688 127.230469 C 753.660156 124.890625 753.660156 119.941406 753.75 116.339844 L 753.929688 103.648438 L 762.03125 104.011719 L 762.570312 103.46875 L 763.472656 93.839844 L 762.929688 93.300781 L 753.929688 93.300781 L 754.203125 78.179688 L 753.570312 77.640625 C 747.453125 79.441406 745.832031 79.890625 739.441406 81.511719 L 739.082031 82.140625 L 739.171875 93.390625 L 734.3125 93.210938 L 733.773438 93.660156 L 732.960938 103.289062 L 733.5 103.828125 L 739.171875 103.648438 L 738.902344 117.960938 C 738.8125 120.210938 738.722656 122.460938 738.722656 124.800781 C 738.722656 133.078125 738.902344 141.988281 752.941406 141.988281 C 756.453125 141.988281 759.242188 141.449219 762.390625 140.910156 L 763.023438 140.28125 L 763.921875 131.011719 Z M 809.824219 127.679688 C 806.40625 129.480469 802.355469 131.550781 795.785156 131.550781 C 790.386719 131.550781 786.695312 129.839844 784.535156 126.601562 C 783.183594 124.710938 782.914062 122.910156 782.554688 121.109375 L 811.625 120.570312 L 812.164062 119.941406 C 812.074219 115.53125 811.984375 111.03125 810.726562 106.53125 C 807.574219 95.910156 800.644531 93.75 797.585938 93.03125 C 795.335938 92.398438 793.265625 92.21875 791.195312 92.21875 C 777.066406 92.21875 767.703125 101.488281 767.703125 117.058594 C 767.703125 121.289062 768.425781 125.699219 769.863281 128.851562 C 775.085938 141 787.324219 142.078125 793.804688 142.078125 C 801.273438 142.078125 804.515625 140.730469 809.285156 138.839844 L 809.824219 138.121094 L 810.453125 127.949219 L 809.824219 127.679688 M 782.554688 111.570312 C 782.824219 108.78125 783.453125 105 786.875 102.839844 C 787.953125 102.121094 789.214844 101.851562 790.476562 101.851562 C 793.445312 101.851562 795.246094 103.378906 796.234375 105 C 797.496094 106.980469 797.585938 109.140625 797.585938 111.210938 Z M 815.042969 141 "/>
<path fill-rule="nonzero" fill="rgb(34.901961%, 14.901961%, 14.901961%)" fill-opacity="1" d="M 151.292969 197.191406 C 141.933594 197.460938 140.402344 197.460938 130.414062 197.460938 L 129.875 198 L 125.734375 212.578125 L 122.132812 225.628906 L 117.902344 241.289062 L 113.941406 225.179688 L 111.421875 215.011719 L 106.921875 197.730469 L 106.472656 197.191406 C 96.84375 197.460938 95.222656 197.460938 85.144531 197.460938 L 84.601562 198 C 83.703125 224.910156 83.34375 231.839844 81.363281 260.730469 L 81.8125 261.269531 C 87.574219 261 89.285156 260.910156 94.503906 261 L 95.042969 260.460938 L 95.3125 243.269531 L 95.851562 225.808594 L 96.214844 208.800781 L 100.171875 224.730469 L 103.59375 237.511719 L 109.625 260.730469 L 110.164062 261.269531 C 115.742188 261 117.273438 260.910156 123.574219 261 L 124.113281 260.460938 L 129.332031 241.289062 L 132.933594 228.148438 L 137.972656 209.25 L 137.972656 225.359375 L 138.152344 239.128906 L 138.152344 260.730469 L 138.601562 261.269531 C 144.8125 261 147.242188 260.910156 154.171875 261 L 154.625 260.460938 C 154.082031 250.199219 153.453125 239.851562 153.09375 229.5 C 152.824219 223.828125 152.644531 218.160156 152.375 212.488281 C 151.921875 204.121094 151.832031 203.039062 151.832031 197.730469 Z M 181.085938 260.371094 C 180.632812 253.441406 180.273438 248.128906 180.273438 235.710938 C 180.273438 228.058594 180.453125 220.320312 180.542969 212.671875 L 179.914062 211.949219 L 164.433594 214.648438 L 163.894531 215.191406 C 164.613281 222.03125 164.882812 225.179688 164.882812 237.960938 C 164.882812 247.769531 164.613281 253.261719 164.34375 260.640625 L 164.882812 261.269531 C 171.363281 261 173.164062 260.910156 180.453125 261 L 181.085938 260.371094 M 179.644531 203.308594 L 179.914062 191.070312 L 179.375 190.53125 L 164.703125 192.328125 L 164.164062 192.960938 C 164.34375 196.199219 164.433594 198.089844 164.433594 200.25 C 164.433594 201.960938 164.433594 203.761719 164.34375 205.46875 L 164.972656 206.011719 C 171.09375 204.929688 172.804688 204.75 179.195312 203.941406 Z M 235.171875 260.371094 C 234.722656 252.449219 234.722656 249.929688 234.542969 241.109375 L 234.542969 234.089844 C 234.453125 225.449219 234.363281 221.308594 232.113281 217.621094 C 229.320312 212.941406 224.191406 212.21875 220.953125 212.21875 C 215.460938 212.21875 210.691406 215.101562 206.550781 217.53125 L 206.730469 212.578125 L 205.832031 211.949219 C 198.902344 213.390625 197.371094 213.660156 190.621094 214.558594 L 190.082031 215.191406 C 190.800781 223.019531 191.34375 228.691406 191.34375 243.359375 C 191.34375 249.121094 191.25 254.878906 191.160156 260.640625 L 191.703125 261.179688 C 198.183594 260.910156 199.53125 260.910156 206.730469 260.910156 L 207.273438 260.371094 C 206.730469 246.511719 206.640625 243 206.550781 226.890625 C 208.441406 225.628906 210.601562 224.101562 213.480469 224.101562 C 218.433594 224.101562 218.882812 229.410156 219.152344 232.648438 C 219.332031 235.621094 219.421875 247.949219 219.421875 251.371094 C 219.421875 254.429688 219.332031 257.578125 219.332031 260.640625 L 219.871094 261.179688 C 225.8125 261 227.34375 260.910156 234.542969 260.910156 Z M 261.726562 260.371094 C 261.273438 253.441406 260.914062 248.128906 260.914062 235.710938 C 260.914062 228.058594 261.09375 220.320312 261.183594 212.671875 L 260.554688 211.949219 L 245.074219 214.648438 L 244.535156 215.191406 C 245.253906 222.03125 245.523438 225.179688 245.523438 237.960938 C 245.523438 247.769531 245.253906 253.261719 244.984375 260.640625 L 245.523438 261.269531 C 252.003906 261 253.804688 260.910156 261.09375 261 L 261.726562 260.371094 M 260.285156 203.308594 L 260.554688 191.070312 L 260.015625 190.53125 L 245.34375 192.328125 L 244.804688 192.960938 C 244.984375 196.199219 245.074219 198.089844 245.074219 200.25 C 245.074219 201.960938 245.074219 203.761719 244.984375 205.46875 L 245.613281 206.011719 C 251.734375 204.929688 253.445312 204.75 259.835938 203.941406 Z M 315.8125 260.371094 C 315.363281 252.449219 315.363281 249.929688 315.183594 241.109375 L 315.183594 234.089844 C 315.09375 225.449219 315.003906 221.308594 312.753906 217.621094 C 309.960938 212.941406 304.832031 212.21875 301.59375 212.21875 C 296.101562 212.21875 291.332031 215.101562 287.191406 217.53125 L 287.371094 212.578125 L 286.472656 211.949219 C 279.542969 213.390625 278.011719 213.660156 271.261719 214.558594 L 270.722656 215.191406 C 271.441406 223.019531 271.984375 228.691406 271.984375 243.359375 C 271.984375 249.121094 271.890625 254.878906 271.800781 260.640625 L 272.34375 261.179688 C 278.824219 260.910156 280.171875 260.910156 287.371094 260.910156 L 287.914062 260.371094 C 287.371094 246.511719 287.28125 243 287.191406 226.890625 C 289.082031 225.628906 291.242188 224.101562 294.121094 224.101562 C 299.074219 224.101562 299.523438 229.410156 299.792969 232.648438 C 299.972656 235.621094 300.0625 247.949219 300.0625 251.371094 C 300.0625 254.429688 299.972656 257.578125 299.972656 260.640625 L 300.511719 261.179688 C 306.453125 261 307.984375 260.910156 315.183594 260.910156 Z M 342.632812 245.789062 C 345.511719 245.878906 348.390625 246.058594 352.710938 244.621094 C 357.390625 243 364.230469 239.128906 364.230469 230.398438 C 364.230469 226.078125 362.972656 224.28125 361.800781 222.570312 L 368.011719 222.929688 L 368.550781 222.480469 L 369.183594 213.480469 L 368.640625 213.03125 C 361.710938 213.300781 359.820312 213.390625 354.152344 213.300781 L 350.011719 213.210938 C 343.621094 213.03125 335.070312 212.851562 329.222656 217.710938 C 327.242188 219.238281 323.460938 223.109375 323.460938 229.859375 C 323.460938 233.460938 324.453125 236.339844 326.070312 238.589844 C 328.050781 241.378906 329.851562 242.371094 332.101562 243.628906 C 329.582031 248.488281 328.230469 250.921875 326.160156 254.609375 L 326.160156 255.421875 L 329.941406 258.121094 C 327.242188 260.191406 323.011719 263.609375 323.011719 269.460938 C 323.011719 273.601562 325.261719 277.199219 328.59375 279.628906 C 333.632812 283.230469 340.472656 283.410156 343.980469 283.410156 C 360.453125 283.410156 368.011719 275.128906 368.011719 266.398438 C 368.011719 255.058594 358.113281 252.898438 352.261719 251.550781 L 350.101562 251.191406 C 345.691406 250.46875 344.703125 250.199219 341.191406 248.941406 L 342.632812 245.789062 M 350.011719 229.589844 C 349.921875 236.878906 345.511719 237.511719 344.25 237.511719 C 343.53125 237.511719 340.382812 237.328125 338.851562 233.730469 C 338.042969 231.839844 338.042969 229.679688 338.042969 229.050781 C 338.042969 224.550781 340.742188 221.671875 344.070312 221.671875 C 348.210938 221.671875 350.101562 225.628906 350.011719 229.589844 M 342.363281 263.160156 C 350.371094 265.230469 350.460938 265.230469 351.542969 266.128906 C 352.441406 266.761719 353.34375 267.75 353.34375 269.640625 C 353.34375 272.339844 351.09375 275.128906 345.152344 275.128906 C 338.492188 275.128906 336.242188 271.351562 336.242188 268.199219 C 336.242188 265.230469 337.773438 263.519531 338.851562 262.261719 Z M 441.183594 234.179688 C 441.273438 226.078125 441.273438 222.570312 438.933594 218.789062 C 437.132812 215.910156 433.535156 212.308594 422.015625 212.308594 C 414.273438 212.308594 409.503906 213.75 404.375 215.28125 L 403.835938 216 L 403.382812 225.808594 L 404.105469 226.171875 C 407.253906 224.910156 413.105469 222.570312 419.132812 222.570312 C 422.464844 222.570312 423.8125 223.109375 424.984375 224.28125 C 425.882812 225.179688 426.15625 226.800781 426.15625 228.148438 C 415.355469 229.589844 410.3125 230.578125 404.914062 233.910156 C 399.875 237.058594 398.164062 242.191406 398.164062 246.238281 C 398.164062 255.871094 405.09375 262.078125 413.914062 262.078125 C 420.664062 262.078125 424.535156 258.839844 426.425781 257.308594 L 426.425781 260.640625 L 426.964844 261.269531 C 433.445312 261 435.425781 260.910156 441.273438 261 L 441.722656 260.371094 C 441.09375 251.550781 441.09375 249.300781 441.09375 240.839844 L 441.183594 234.179688 M 426.335938 248.488281 C 424.445312 249.570312 422.015625 250.828125 419.042969 250.828125 C 415.804688 250.828125 413.105469 249.121094 413.105469 245.339844 C 413.105469 239.398438 420.214844 238.410156 426.335938 237.601562 Z M 495.8125 260.371094 C 495.363281 252.449219 495.363281 249.929688 495.183594 241.109375 L 495.183594 234.089844 C 495.09375 225.449219 495.003906 221.308594 492.753906 217.621094 C 489.960938 212.941406 484.832031 212.21875 481.59375 212.21875 C 476.101562 212.21875 471.332031 215.101562 467.191406 217.53125 L 467.371094 212.578125 L 466.472656 211.949219 C 459.542969 213.390625 458.011719 213.660156 451.261719 214.558594 L 450.722656 215.191406 C 451.441406 223.019531 451.984375 228.691406 451.984375 243.359375 C 451.984375 249.121094 451.890625 254.878906 451.800781 260.640625 L 452.34375 261.179688 C 458.824219 260.910156 460.171875 260.910156 467.371094 260.910156 L 467.914062 260.371094 C 467.371094 246.511719 467.28125 243 467.191406 226.890625 C 469.082031 225.628906 471.242188 224.101562 474.121094 224.101562 C 479.074219 224.101562 479.523438 229.410156 479.792969 232.648438 C 479.972656 235.621094 480.0625 247.949219 480.0625 251.371094 C 480.0625 254.429688 479.972656 257.578125 479.972656 260.640625 L 480.511719 261.179688 C 486.453125 261 487.984375 260.910156 495.183594 260.910156 Z M 550.171875 260.460938 C 549.8125 252.359375 549.542969 246.960938 549.542969 235.171875 C 549.542969 211.410156 549.902344 201.601562 550.261719 189.71875 L 549.632812 189.179688 L 534.78125 191.519531 L 534.332031 192.058594 C 534.871094 200.519531 534.960938 202.769531 534.871094 213.03125 C 528.121094 212.851562 519.660156 212.671875 512.820312 218.070312 C 506.523438 222.929688 503.910156 230.398438 503.910156 239.671875 C 503.910156 246.691406 505.800781 253.710938 511.113281 258.121094 C 515.070312 261.359375 519.933594 262.078125 522.902344 262.078125 C 529.292969 262.078125 532.621094 259.109375 534.78125 257.21875 L 534.601562 260.730469 L 535.050781 261.269531 C 541.261719 261 542.972656 261 549.722656 261 L 550.171875 260.460938 M 534.871094 223.828125 C 534.960938 235.800781 534.871094 238.140625 534.601562 249.03125 C 532.800781 250.109375 531 251.191406 528.480469 251.191406 C 519.75 251.191406 519.75 240.03125 519.75 238.230469 C 519.75 231.300781 521.730469 223.558594 531.8125 223.558594 C 532.800781 223.558594 533.613281 223.648438 534.871094 223.828125 Z M 655.742188 197.191406 C 646.382812 197.460938 644.851562 197.460938 634.863281 197.460938 L 634.324219 198 L 630.183594 212.578125 L 626.582031 225.628906 L 622.351562 241.289062 L 618.390625 225.179688 L 615.871094 215.011719 L 611.371094 197.730469 L 610.921875 197.191406 C 601.292969 197.460938 599.671875 197.460938 589.59375 197.460938 L 589.050781 198 C 588.152344 224.910156 587.792969 231.839844 585.8125 260.730469 L 586.261719 261.269531 C 592.023438 261 593.734375 260.910156 598.953125 261 L 599.492188 260.460938 L 599.761719 243.269531 L 600.300781 225.808594 L 600.664062 208.800781 L 604.621094 224.730469 L 608.042969 237.511719 L 614.074219 260.730469 L 614.613281 261.269531 C 620.191406 261 621.722656 260.910156 628.023438 261 L 628.5625 260.460938 L 633.78125 241.289062 L 637.382812 228.148438 L 642.421875 209.25 L 642.421875 225.359375 L 642.601562 239.128906 L 642.601562 260.730469 L 643.050781 261.269531 C 649.261719 261 651.691406 260.910156 658.621094 261 L 659.074219 260.460938 C 658.53125 250.199219 657.902344 239.851562 657.542969 229.5 C 657.273438 223.828125 657.09375 218.160156 656.824219 212.488281 C 656.371094 204.121094 656.28125 203.039062 656.28125 197.730469 Z M 685.535156 260.371094 C 685.082031 253.441406 684.722656 248.128906 684.722656 235.710938 C 684.722656 228.058594 684.902344 220.320312 684.992188 212.671875 L 684.363281 211.949219 L 668.882812 214.648438 L 668.34375 215.191406 C 669.0625 222.03125 669.332031 225.179688 669.332031 237.960938 C 669.332031 247.769531 669.0625 253.261719 668.792969 260.640625 L 669.332031 261.269531 C 675.8125 261 677.613281 260.910156 684.902344 261 L 685.535156 260.371094 M 684.09375 203.308594 L 684.363281 191.070312 L 683.824219 190.53125 L 669.152344 192.328125 L 668.613281 192.960938 C 668.792969 196.199219 668.882812 198.089844 668.882812 200.25 C 668.882812 201.960938 668.882812 203.761719 668.792969 205.46875 L 669.421875 206.011719 C 675.542969 204.929688 677.253906 204.75 683.644531 203.941406 Z M 739.625 260.371094 C 739.175781 252.449219 739.175781 249.929688 738.996094 241.109375 L 738.996094 234.089844 C 738.90625 225.449219 738.816406 221.308594 736.566406 217.621094 C 733.773438 212.941406 728.644531 212.21875 725.40625 212.21875 C 719.914062 212.21875 715.144531 215.101562 711.003906 217.53125 L 711.183594 212.578125 L 710.285156 211.949219 C 703.355469 213.390625 701.824219 213.660156 695.074219 214.558594 L 694.535156 215.191406 C 695.253906 223.019531 695.796875 228.691406 695.796875 243.359375 C 695.796875 249.121094 695.703125 254.878906 695.613281 260.640625 L 696.15625 261.179688 C 702.636719 260.910156 703.984375 260.910156 711.183594 260.910156 L 711.726562 260.371094 C 711.183594 246.511719 711.09375 243 711.003906 226.890625 C 712.894531 225.628906 715.054688 224.101562 717.933594 224.101562 C 722.886719 224.101562 723.335938 229.410156 723.605469 232.648438 C 723.785156 235.621094 723.875 247.949219 723.875 251.371094 C 723.875 254.429688 723.785156 257.578125 723.785156 260.640625 L 724.324219 261.179688 C 730.265625 261 731.796875 260.910156 738.996094 260.910156 Z M 789.84375 247.679688 C 786.425781 249.480469 782.375 251.550781 775.804688 251.550781 C 770.40625 251.550781 766.714844 249.839844 764.554688 246.601562 C 763.203125 244.710938 762.933594 242.910156 762.574219 241.109375 L 791.644531 240.570312 L 792.183594 239.941406 C 792.09375 235.53125 792.003906 231.03125 790.746094 226.53125 C 787.59375 215.910156 780.664062 213.75 777.605469 213.03125 C 775.355469 212.398438 773.285156 212.21875 771.214844 212.21875 C 757.085938 212.21875 747.722656 221.488281 747.722656 237.058594 C 747.722656 241.289062 748.445312 245.699219 749.882812 248.851562 C 755.105469 261 767.34375 262.078125 773.824219 262.078125 C 781.292969 262.078125 784.535156 260.730469 789.304688 258.839844 L 789.84375 258.121094 L 790.472656 247.949219 L 789.84375 247.679688 M 762.574219 231.570312 C 762.84375 228.78125 763.472656 225 766.894531 222.839844 C 767.972656 222.121094 769.234375 221.851562 770.496094 221.851562 C 773.464844 221.851562 775.265625 223.378906 776.253906 225 C 777.515625 226.980469 777.605469 229.140625 777.605469 231.210938 Z M 826.472656 227.609375 L 828.992188 212.941406 L 828.453125 212.308594 C 827.824219 212.308594 827.191406 212.21875 826.5625 212.21875 C 822.871094 212.21875 818.734375 214.289062 815.851562 220.949219 L 816.121094 212.671875 L 815.402344 211.949219 C 808.742188 213.390625 807.03125 213.660156 800.460938 214.648438 L 799.921875 215.191406 C 800.460938 221.941406 800.734375 225.988281 800.734375 238.5 C 800.734375 245.878906 800.640625 253.261719 800.460938 260.730469 L 801.003906 261.269531 C 807.664062 261 809.101562 260.910156 816.300781 261 L 816.753906 260.371094 C 816.390625 253.078125 815.851562 242.910156 815.851562 236.699219 C 815.851562 232.648438 815.851562 226.710938 821.972656 226.710938 C 823.503906 226.710938 824.402344 227.25 825.664062 227.96875 Z M 874.261719 234.179688 C 874.351562 226.078125 874.351562 222.570312 872.011719 218.789062 C 870.210938 215.910156 866.613281 212.308594 855.09375 212.308594 C 847.351562 212.308594 842.582031 213.75 837.453125 215.28125 L 836.914062 216 L 836.460938 225.808594 L 837.183594 226.171875 C 840.332031 224.910156 846.183594 222.570312 852.210938 222.570312 C 855.542969 222.570312 856.890625 223.109375 858.0625 224.28125 C 858.960938 225.179688 859.234375 226.800781 859.234375 228.148438 C 848.433594 229.589844 843.390625 230.578125 837.992188 233.910156 C 832.953125 237.058594 831.242188 242.191406 831.242188 246.238281 C 831.242188 255.871094 838.171875 262.078125 846.992188 262.078125 C 853.742188 262.078125 857.613281 258.839844 859.503906 257.308594 L 859.503906 260.640625 L 860.042969 261.269531 C 866.523438 261 868.503906 260.910156 874.351562 261 L 874.800781 260.371094 C 874.171875 251.550781 874.171875 249.300781 874.171875 240.839844 L 874.261719 234.179688 M 859.414062 248.488281 C 857.523438 249.570312 855.09375 250.828125 852.121094 250.828125 C 848.882812 250.828125 846.183594 249.121094 846.183594 245.339844 C 846.183594 239.398438 853.292969 238.410156 859.414062 237.601562 Z M 900.632812 260.371094 C 900.183594 250.019531 899.734375 240.570312 899.734375 212.128906 C 899.734375 203.578125 899.824219 199.53125 900.183594 189.808594 L 899.554688 189.179688 L 884.164062 191.609375 L 883.804688 192.148438 C 884.703125 203.128906 884.792969 206.101562 884.972656 220.679688 C 885.066406 225.988281 885.066406 231.300781 885.066406 236.609375 C 885.066406 246.328125 884.882812 251.730469 884.523438 260.640625 L 885.066406 261.269531 C 891.09375 261 893.523438 260.910156 900.09375 261 Z M 905.671875 261 "/>
<path fill-rule="nonzero" fill="rgb(34.901961%, 14.901961%, 14.901961%)" fill-opacity="1" d="M 382.863281 317.191406 C 373.503906 317.460938 371.972656 317.460938 361.984375 317.460938 L 361.445312 318 L 357.304688 332.578125 L 353.703125 345.628906 L 349.472656 361.289062 L 345.511719 345.179688 L 342.992188 335.011719 L 338.492188 317.730469 L 338.042969 317.191406 C 328.414062 317.460938 326.792969 317.460938 316.714844 317.460938 L 316.171875 318 C 315.273438 344.910156 314.914062 351.839844 312.933594 380.730469 L 313.382812 381.269531 C 319.144531 381 320.855469 380.910156 326.074219 381 L 326.613281 380.460938 L 326.882812 363.269531 L 327.421875 345.808594 L 327.785156 328.800781 L 331.742188 344.730469 L 335.164062 357.511719 L 341.195312 380.730469 L 341.734375 381.269531 C 347.3125 381 348.84375 380.910156 355.144531 381 L 355.683594 380.460938 L 360.902344 361.289062 L 364.503906 348.148438 L 369.542969 329.25 L 369.542969 345.359375 L 369.722656 359.128906 L 369.722656 380.730469 L 370.171875 381.269531 C 376.382812 381 378.8125 380.910156 385.742188 381 L 386.195312 380.460938 C 385.652344 370.199219 385.023438 359.851562 384.664062 349.5 C 384.394531 343.828125 384.214844 338.160156 383.945312 332.488281 C 383.492188 324.121094 383.402344 323.039062 383.402344 317.730469 Z M 439.566406 332.851562 L 424.894531 333.570312 L 424.265625 334.109375 C 424.894531 344.28125 424.894531 358.679688 424.894531 360.121094 C 424.894531 362.730469 424.894531 364.171875 424.804688 367.769531 C 422.375 369.390625 420.484375 370.738281 418.054688 370.738281 C 411.574219 370.738281 411.574219 363.898438 411.574219 358.589844 C 411.574219 356.339844 411.574219 354 411.664062 351.75 L 411.84375 333.570312 L 411.214844 332.851562 L 396.363281 333.570312 L 395.734375 334.109375 C 396.273438 341.671875 396.363281 344.191406 396.363281 353.28125 L 396.363281 359.578125 C 396.273438 369.390625 396.726562 373.53125 399.964844 377.308594 C 402.933594 380.640625 407.253906 382.078125 411.753906 382.078125 C 418.144531 382.078125 421.835938 379.199219 425.074219 376.679688 L 424.984375 380.730469 L 425.613281 381.269531 C 432.183594 381 434.164062 381 440.015625 381 L 440.554688 380.460938 C 440.105469 374.070312 439.925781 370.648438 439.925781 358.949219 C 439.925781 350.488281 440.015625 342.03125 440.195312 333.570312 Z M 469.625 349.949219 C 466.5625 348.871094 464.132812 347.878906 464.132812 345.359375 C 464.132812 344.28125 464.855469 341.308594 470.433594 341.308594 C 475.925781 341.308594 479.433594 343.648438 481.683594 345.089844 L 482.496094 344.820312 L 483.394531 335.011719 L 482.945312 334.46875 C 478.714844 333.300781 475.023438 332.21875 469.175781 332.21875 C 464.765625 332.21875 455.945312 332.578125 451.265625 339.328125 C 450.09375 340.949219 448.835938 343.648438 448.835938 347.25 C 448.835938 356.878906 456.304688 359.761719 460.535156 361.378906 L 463.953125 362.640625 C 466.382812 363.449219 470.34375 364.800781 470.34375 368.039062 C 470.34375 370.289062 468.273438 372.71875 463.234375 372.71875 C 460.714844 372.71875 457.023438 371.910156 453.695312 370.199219 C 452.164062 369.390625 451.445312 368.761719 450.09375 367.679688 L 449.285156 368.039062 C 449.105469 372.71875 449.015625 373.710938 448.652344 378.210938 L 449.105469 379.019531 C 453.515625 380.640625 457.292969 382.078125 463.863281 382.078125 C 470.703125 382.078125 484.203125 380.820312 485.824219 367.949219 C 485.914062 367.230469 485.914062 366.601562 485.914062 365.96875 C 485.914062 356.070312 478.984375 353.460938 474.035156 351.570312 Z M 533.792969 367.679688 C 530.375 369.480469 526.324219 371.550781 519.753906 371.550781 C 514.355469 371.550781 510.664062 369.839844 508.503906 366.601562 C 507.152344 364.710938 506.882812 362.910156 506.523438 361.109375 L 535.59375 360.570312 L 536.132812 359.941406 C 536.042969 355.53125 535.953125 351.03125 534.695312 346.53125 C 531.542969 335.910156 524.613281 333.75 521.554688 333.03125 C 519.304688 332.398438 517.234375 332.21875 515.164062 332.21875 C 501.035156 332.21875 491.671875 341.488281 491.671875 357.058594 C 491.671875 361.289062 492.394531 365.699219 493.832031 368.851562 C 499.054688 381 511.292969 382.078125 517.773438 382.078125 C 525.242188 382.078125 528.484375 380.730469 533.253906 378.839844 L 533.792969 378.121094 L 534.421875 367.949219 L 533.792969 367.679688 M 506.523438 351.570312 C 506.792969 348.78125 507.421875 345 510.84375 342.839844 C 511.921875 342.121094 513.183594 341.851562 514.445312 341.851562 C 517.414062 341.851562 519.214844 343.378906 520.203125 345 C 521.464844 346.980469 521.554688 349.140625 521.554688 351.210938 Z M 587.613281 332.851562 L 572.941406 333.570312 L 572.3125 334.109375 C 572.941406 344.28125 572.941406 358.679688 572.941406 360.121094 C 572.941406 362.730469 572.941406 364.171875 572.851562 367.769531 C 570.421875 369.390625 568.53125 370.738281 566.101562 370.738281 C 559.621094 370.738281 559.621094 363.898438 559.621094 358.589844 C 559.621094 356.339844 559.621094 354 559.710938 351.75 L 559.890625 333.570312 L 559.261719 332.851562 L 544.410156 333.570312 L 543.78125 334.109375 C 544.320312 341.671875 544.410156 344.191406 544.410156 353.28125 L 544.410156 359.578125 C 544.320312 369.390625 544.773438 373.53125 548.011719 377.308594 C 550.980469 380.640625 555.300781 382.078125 559.800781 382.078125 C 566.191406 382.078125 569.882812 379.199219 573.121094 376.679688 L 573.03125 380.730469 L 573.660156 381.269531 C 580.230469 381 582.210938 381 588.0625 381 L 588.601562 380.460938 C 588.152344 374.070312 587.972656 370.648438 587.972656 358.949219 C 587.972656 350.488281 588.0625 342.03125 588.242188 333.570312 Z M 669.066406 380.371094 C 668.613281 372 668.523438 369.660156 668.523438 359.488281 L 668.523438 352.738281 C 668.613281 346.710938 668.703125 341.128906 666.09375 337.351562 C 662.585938 332.21875 656.375 332.21875 654.933594 332.21875 C 647.554688 332.21875 642.605469 335.550781 639.003906 338.070312 C 637.746094 336 635.496094 332.21875 628.296875 332.21875 C 622.355469 332.21875 618.484375 334.921875 614.34375 337.800781 L 614.34375 332.761719 L 613.535156 331.949219 C 606.515625 333.300781 604.535156 333.660156 598.234375 334.558594 L 597.695312 335.191406 C 598.414062 342.390625 598.953125 347.339844 598.953125 365.160156 C 598.953125 370.289062 598.863281 375.511719 598.863281 380.640625 L 599.316406 381.179688 C 605.074219 381 607.054688 380.910156 614.523438 380.910156 L 615.066406 380.371094 C 614.433594 366.511719 614.34375 362.371094 614.253906 346.710938 C 616.144531 345.359375 618.214844 344.191406 620.464844 344.191406 C 626.046875 344.191406 626.226562 350.578125 626.226562 358.320312 C 626.226562 371.371094 626.136719 373.351562 625.953125 380.640625 L 626.496094 381.269531 C 633.335938 380.910156 635.226562 380.910156 641.433594 380.910156 L 641.976562 380.371094 C 641.433594 371.820312 641.34375 369.300781 641.253906 358.410156 L 641.253906 355.078125 L 641.164062 345.988281 C 642.695312 345 644.675781 343.738281 647.375 343.738281 C 652.503906 343.738281 653.316406 348.601562 653.316406 356.339844 C 653.316406 358.050781 653.226562 359.761719 653.226562 361.46875 C 653.136719 364.53125 653.046875 377.941406 652.953125 380.640625 L 653.496094 381.179688 C 660.246094 380.910156 662.226562 380.910156 668.523438 380.910156 Z M 674.011719 381 "/>
</svg>
