<?xml version="1.0" encoding="UTF-8"?>
<svg xmlns="http://www.w3.org/2000/svg" xmlns:xlink="http://www.w3.org/1999/xlink" width="975" height="1300" viewBox="0 0 975 1300">
<path fill-rule="nonzero" fill="rgb(98.823529%, 78.823529%, 9.019608%)" fill-opacity="1" d="M 50 50 L 925 50 L 925 290 L 50 290 Z M 50 50 "/>
<path fill-rule="nonzero" fill="rgb(34.901961%, 14.901961%, 14.901961%)" fill-opacity="1" d="M 150.664062 77.191406 C 143.464844 77.460938 142.296875 77.460938 134.734375 77.460938 L 134.285156 78 C 134.914062 88.171875 134.914062 90.78125 135.003906 101.398438 C 131.046875 101.488281 127.085938 101.578125 123.035156 101.578125 C 119.886719 101.578125 116.644531 101.488281 113.496094 101.488281 L 113.675781 77.730469 L 113.226562 77.191406 C 106.296875 77.460938 104.945312 77.460938 97.117188 77.460938 L 96.574219 78 C 97.027344 87.269531 97.566406 98.339844 97.566406 120.660156 C 97.566406 128.761719 97.386719 133.171875 97.207031 140.730469 L 97.65625 141.269531 C 104.226562 141 105.84375 140.910156 113.765625 141 L 114.214844 140.460938 C 113.675781 129.300781 113.585938 126.058594 113.496094 113.011719 C 117.457031 112.828125 120.785156 112.738281 124.296875 112.738281 C 127.894531 112.738281 131.496094 112.828125 135.09375 112.921875 C 135.277344 125.070312 135.277344 128.039062 134.824219 140.730469 L 135.277344 141.269531 C 142.027344 141 143.824219 140.910156 151.476562 141 L 151.925781 140.460938 C 151.207031 125.339844 150.933594 110.308594 150.933594 95.191406 C 150.933594 88.890625 151.027344 84.660156 151.117188 77.730469 Z M 202.324219 127.679688 C 198.90625 129.480469 194.855469 131.550781 188.285156 131.550781 C 182.886719 131.550781 179.195312 129.839844 177.035156 126.601562 C 175.683594 124.710938 175.414062 122.910156 175.054688 121.109375 L 204.125 120.570312 L 204.664062 119.941406 C 204.574219 115.53125 204.484375 111.03125 203.226562 106.53125 C 200.074219 95.910156 193.144531 93.75 190.085938 93.03125 C 187.835938 92.398438 185.765625 92.21875 183.695312 92.21875 C 169.566406 92.21875 160.203125 101.488281 160.203125 117.058594 C 160.203125 121.289062 160.925781 125.699219 162.363281 128.851562 C 167.585938 141 179.824219 142.078125 186.304688 142.078125 C 193.773438 142.078125 197.015625 140.730469 201.785156 138.839844 L 202.324219 138.121094 L 202.953125 127.949219 L 202.324219 127.679688 M 175.054688 111.570312 C 175.324219 108.78125 175.953125 105 179.375 102.839844 C 180.453125 102.121094 181.714844 101.851562 182.976562 101.851562 C 185.945312 101.851562 187.746094 103.378906 188.734375 105 C 189.996094 106.980469 190.085938 109.140625 190.085938 111.210938 Z M 252.996094 114.179688 C 253.085938 106.078125 253.085938 102.570312 250.746094 98.789062 C 248.945312 95.910156 245.347656 92.308594 233.828125 92.308594 C 226.085938 92.308594 221.316406 93.75 216.1875 95.28125 L 215.648438 96 L 215.195312 105.808594 L 215.917969 106.171875 C 219.066406 104.910156 224.917969 102.570312 230.945312 102.570312 C 234.277344 102.570312 235.625 103.109375 236.796875 104.28125 C 237.695312 105.179688 237.96875 106.800781 237.96875 108.148438 C 227.167969 109.589844 222.125 110.578125 216.726562 113.910156 C 211.6875 117.058594 209.976562 122.191406 209.976562 126.238281 C 209.976562 135.871094 216.90625 142.078125 225.726562 142.078125 C 232.476562 142.078125 236.347656 138.839844 238.238281 137.308594 L 238.238281 140.640625 L 238.777344 141.269531 C 245.257812 141 247.238281 140.910156 253.085938 141 L 253.535156 140.371094 C 252.90625 131.550781 252.90625 129.300781 252.90625 120.839844 L 252.996094 114.179688 M 238.148438 128.488281 C 236.257812 129.570312 233.828125 130.828125 230.855469 130.828125 C 227.617188 130.828125 224.917969 129.121094 224.917969 125.339844 C 224.917969 119.398438 232.027344 118.410156 238.148438 117.601562 Z M 289.535156 107.609375 L 292.054688 92.941406 L 291.515625 92.308594 C 290.886719 92.308594 290.253906 92.21875 289.625 92.21875 C 285.933594 92.21875 281.796875 94.289062 278.914062 100.949219 L 279.183594 92.671875 L 278.464844 91.949219 C 271.804688 93.390625 270.09375 93.660156 263.523438 94.648438 L 262.984375 95.191406 C 263.523438 101.941406 263.796875 105.988281 263.796875 118.5 C 263.796875 125.878906 263.703125 133.261719 263.523438 140.730469 L 264.066406 141.269531 C 270.726562 141 272.164062 140.910156 279.363281 141 L 279.816406 140.371094 C 279.453125 133.078125 278.914062 122.910156 278.914062 116.699219 C 278.914062 112.648438 278.914062 106.710938 285.035156 106.710938 C 286.566406 106.710938 287.464844 107.25 288.726562 107.96875 Z M 316.175781 109.949219 C 313.113281 108.871094 310.683594 107.878906 310.683594 105.359375 C 310.683594 104.28125 311.40625 101.308594 316.984375 101.308594 C 322.476562 101.308594 325.984375 103.648438 328.234375 105.089844 L 329.046875 104.820312 L 329.945312 95.011719 L 329.496094 94.46875 C 325.265625 93.300781 321.574219 92.21875 315.726562 92.21875 C 311.316406 92.21875 302.496094 92.578125 297.816406 99.328125 C 296.644531 100.949219 295.386719 103.648438 295.386719 107.25 C 295.386719 116.878906 302.855469 119.761719 307.085938 121.378906 L 310.503906 122.640625 C 312.933594 123.449219 316.894531 124.800781 316.894531 128.039062 C 316.894531 130.289062 314.824219 132.71875 309.785156 132.71875 C 307.265625 132.71875 303.574219 131.910156 300.246094 130.199219 C 298.714844 129.390625 297.996094 128.761719 296.644531 127.679688 L 295.835938 128.039062 C 295.65625 132.71875 295.566406 133.710938 295.203125 138.210938 L 295.65625 139.019531 C 300.066406 140.640625 303.84375 142.078125 310.414062 142.078125 C 317.253906 142.078125 330.753906 140.820312 332.375 127.949219 C 332.464844 127.230469 332.464844 126.601562 332.464844 125.96875 C 332.464844 116.070312 325.535156 113.460938 320.585938 111.570312 Z M 365.585938 130.648438 C 364.054688 131.101562 362.972656 131.460938 361.445312 131.460938 C 356.855469 131.460938 356.496094 128.578125 356.3125 127.230469 C 356.042969 124.890625 356.042969 119.941406 356.132812 116.339844 L 356.3125 103.648438 L 364.414062 104.011719 L 364.953125 103.46875 L 365.855469 93.839844 L 365.3125 93.300781 L 356.3125 93.300781 L 356.585938 78.179688 L 355.953125 77.640625 C 349.835938 79.441406 348.214844 79.890625 341.824219 81.511719 L 341.464844 82.140625 L 341.554688 93.390625 L 336.695312 93.210938 L 336.15625 93.660156 L 335.34375 103.289062 L 335.882812 103.828125 L 341.554688 103.648438 L 341.285156 117.960938 C 341.195312 120.210938 341.105469 122.460938 341.105469 124.800781 C 341.105469 133.078125 341.285156 141.988281 355.324219 141.988281 C 358.835938 141.988281 361.625 141.449219 364.773438 140.910156 L 365.40625 140.28125 L 366.304688 131.011719 Z M 424.535156 102.300781 C 416.976562 99.148438 413.015625 97.53125 413.015625 93.480469 C 413.015625 90.691406 415.625 87.179688 421.566406 87.179688 C 428.40625 87.179688 432.453125 89.96875 435.785156 92.21875 L 436.59375 91.859375 L 437.316406 80.070312 L 436.863281 79.441406 C 432.996094 77.820312 428.945312 76.109375 420.214844 76.109375 C 403.296875 76.109375 397.445312 85.648438 397.445312 95.28125 C 397.445312 106.171875 405.90625 110.128906 410.945312 112.558594 L 413.914062 113.910156 C 420.125 116.519531 424.894531 118.769531 424.894531 123.539062 C 424.894531 126.960938 421.925781 131.011719 414.09375 131.011719 C 405.90625 131.011719 401.316406 127.410156 398.703125 125.339844 L 397.804688 125.609375 L 397.175781 138.300781 L 397.714844 139.019531 C 398.703125 139.378906 399.695312 139.828125 400.683594 140.101562 C 402.753906 140.820312 408.066406 142.351562 414.816406 142.351562 C 417.515625 142.351562 424.355469 142.078125 429.753906 139.558594 C 437.316406 135.871094 440.554688 129.03125 440.554688 121.378906 C 440.554688 116.25 438.574219 110.761719 433.804688 107.070312 C 431.375 105.269531 429.035156 104.191406 426.875 103.199219 Z M 489.15625 114.179688 C 489.246094 106.078125 489.246094 102.570312 486.90625 98.789062 C 485.105469 95.910156 481.507812 92.308594 469.988281 92.308594 C 462.246094 92.308594 457.476562 93.75 452.347656 95.28125 L 451.808594 96 L 451.355469 105.808594 L 452.078125 106.171875 C 455.226562 104.910156 461.078125 102.570312 467.105469 102.570312 C 470.4375 102.570312 471.785156 103.109375 472.957031 104.28125 C 473.855469 105.179688 474.128906 106.800781 474.128906 108.148438 C 463.328125 109.589844 458.285156 110.578125 452.886719 113.910156 C 447.847656 117.058594 446.136719 122.191406 446.136719 126.238281 C 446.136719 135.871094 453.066406 142.078125 461.886719 142.078125 C 468.636719 142.078125 472.507812 138.839844 474.398438 137.308594 L 474.398438 140.640625 L 474.9375 141.269531 C 481.417969 141 483.398438 140.910156 489.246094 141 L 489.695312 140.371094 C 489.066406 131.550781 489.066406 129.300781 489.066406 120.839844 L 489.15625 114.179688 M 474.308594 128.488281 C 472.417969 129.570312 469.988281 130.828125 467.015625 130.828125 C 463.777344 130.828125 461.078125 129.121094 461.078125 125.339844 C 461.078125 119.398438 468.1875 118.410156 474.308594 117.601562 Z M 543.785156 140.371094 C 543.335938 132.449219 543.335938 129.929688 543.15625 121.109375 L 543.15625 114.089844 C 543.066406 105.449219 542.976562 101.308594 540.726562 97.621094 C 537.933594 92.941406 532.804688 92.21875 529.566406 92.21875 C 524.074219 92.21875 519.304688 95.101562 515.164062 97.53125 L 515.34375 92.578125 L 514.445312 91.949219 C 507.515625 93.390625 505.984375 93.660156 499.234375 94.558594 L 498.695312 95.191406 C 499.414062 103.019531 499.957031 108.691406 499.957031 123.359375 C 499.957031 129.121094 499.863281 134.878906 499.773438 140.640625 L 500.316406 141.179688 C 506.796875 140.910156 508.144531 140.910156 515.34375 140.910156 L 515.886719 140.371094 C 515.34375 126.511719 515.253906 123 515.164062 106.890625 C 517.054688 105.628906 519.214844 104.101562 522.09375 104.101562 C 527.046875 104.101562 527.496094 109.410156 527.765625 112.648438 C 527.945312 115.621094 528.035156 127.949219 528.035156 131.371094 C 528.035156 134.429688 527.945312 137.578125 527.945312 140.640625 L 528.484375 141.179688 C 534.425781 141 535.957031 140.910156 543.15625 140.910156 Z M 606.335938 102.300781 C 598.777344 99.148438 594.816406 97.53125 594.816406 93.480469 C 594.816406 90.691406 597.425781 87.179688 603.367188 87.179688 C 610.207031 87.179688 614.253906 89.96875 617.585938 92.21875 L 618.394531 91.859375 L 619.117188 80.070312 L 618.664062 79.441406 C 614.796875 77.820312 610.746094 76.109375 602.015625 76.109375 C 585.097656 76.109375 579.246094 85.648438 579.246094 95.28125 C 579.246094 106.171875 587.707031 110.128906 592.746094 112.558594 L 595.714844 113.910156 C 601.925781 116.519531 606.695312 118.769531 606.695312 123.539062 C 606.695312 126.960938 603.726562 131.011719 595.894531 131.011719 C 587.707031 131.011719 583.117188 127.410156 580.503906 125.339844 L 579.605469 125.609375 L 578.976562 138.300781 L 579.515625 139.019531 C 580.503906 139.378906 581.496094 139.828125 582.484375 140.101562 C 584.554688 140.820312 589.867188 142.351562 596.617188 142.351562 C 599.316406 142.351562 606.15625 142.078125 611.554688 139.558594 C 619.117188 135.871094 622.355469 129.03125 622.355469 121.378906 C 622.355469 116.25 620.375 110.761719 615.605469 107.070312 C 613.175781 105.269531 610.835938 104.191406 608.675781 103.199219 Z M 647.195312 140.371094 C 646.742188 133.441406 646.382812 128.128906 646.382812 115.710938 C 646.382812 108.058594 646.5625 100.320312 646.652344 92.671875 L 646.023438 91.949219 L 630.542969 94.648438 L 630.003906 95.191406 C 630.722656 102.03125 630.992188 105.179688 630.992188 117.960938 C 630.992188 127.769531 630.722656 133.261719 630.453125 140.640625 L 630.992188 141.269531 C 637.472656 141 639.273438 140.910156 646.5625 141 L 647.195312 140.371094 M 645.753906 83.308594 L 646.023438 71.070312 L 645.484375 70.53125 L 630.8125 72.328125 L 630.273438 72.960938 C 630.453125 76.199219 630.542969 78.089844 630.542969 80.25 C 630.542969 81.960938 630.542969 83.761719 630.453125 85.46875 L 631.082031 86.011719 C 637.203125 84.929688 638.914062 84.75 645.304688 83.941406 Z M 727.476562 140.371094 C 727.023438 132 726.933594 129.660156 726.933594 119.488281 L 726.933594 112.738281 C 727.023438 106.710938 727.113281 101.128906 724.503906 97.351562 C 720.996094 92.21875 714.785156 92.21875 713.34375 92.21875 C 705.964844 92.21875 701.015625 95.550781 697.414062 98.070312 C 696.15625 96 693.90625 92.21875 686.707031 92.21875 C 680.765625 92.21875 676.894531 94.921875 672.753906 97.800781 L 672.753906 92.761719 L 671.945312 91.949219 C 664.925781 93.300781 662.945312 93.660156 656.644531 94.558594 L 656.105469 95.191406 C 656.824219 102.390625 657.363281 107.339844 657.363281 125.160156 C 657.363281 130.289062 657.273438 135.511719 657.273438 140.640625 L 657.726562 141.179688 C 663.484375 141 665.464844 140.910156 672.933594 140.910156 L 673.476562 140.371094 C 672.84375 126.511719 672.753906 122.371094 672.664062 106.710938 C 674.554688 105.359375 676.625 104.191406 678.875 104.191406 C 684.457031 104.191406 684.636719 110.578125 684.636719 118.320312 C 684.636719 131.371094 684.546875 133.351562 684.363281 140.640625 L 684.90625 141.269531 C 691.746094 140.910156 693.636719 140.910156 699.84375 140.910156 L 700.386719 140.371094 C 699.84375 131.820312 699.753906 129.300781 699.664062 118.410156 L 699.664062 115.078125 L 699.574219 105.988281 C 701.105469 105 703.085938 103.738281 705.785156 103.738281 C 710.914062 103.738281 711.726562 108.601562 711.726562 116.339844 C 711.726562 118.050781 711.636719 119.761719 711.636719 121.46875 C 711.546875 124.53125 711.457031 137.941406 711.363281 140.640625 L 711.90625 141.179688 C 718.65625 140.910156 720.636719 140.910156 726.933594 140.910156 Z M 777.785156 127.679688 C 774.367188 129.480469 770.316406 131.550781 763.746094 131.550781 C 758.347656 131.550781 754.65625 129.839844 752.496094 126.601562 C 751.144531 124.710938 750.875 122.910156 750.515625 121.109375 L 779.585938 120.570312 L 780.125 119.941406 C 780.035156 115.53125 779.945312 111.03125 778.6875 106.53125 C 775.535156 95.910156 768.605469 93.75 765.546875 93.03125 C 763.296875 92.398438 761.226562 92.21875 759.15625 92.21875 C 745.027344 92.21875 735.664062 101.488281 735.664062 117.058594 C 735.664062 121.289062 736.386719 125.699219 737.824219 128.851562 C 743.046875 141 755.285156 142.078125 761.765625 142.078125 C 769.234375 142.078125 772.476562 140.730469 777.246094 138.839844 L 777.785156 138.121094 L 778.414062 127.949219 L 777.785156 127.679688 M 750.515625 111.570312 C 750.785156 108.78125 751.414062 105 754.835938 102.839844 C 755.914062 102.121094 757.175781 101.851562 758.4375 101.851562 C 761.40625 101.851562 763.207031 103.378906 764.195312 105 C 765.457031 106.980469 765.546875 109.140625 765.546875 111.210938 Z M 834.214844 117.058594 C 834.214844 113.550781 834.214844 98.96875 821.613281 94.019531 C 817.652344 92.488281 812.972656 92.308594 810.632812 92.308594 C 794.972656 92.308594 786.152344 100.679688 786.152344 117.238281 C 786.152344 123 787.054688 128.851562 790.382812 133.710938 C 792.722656 137.21875 797.132812 142.078125 810.003906 142.078125 C 829.082031 142.078125 834.214844 130.558594 834.214844 117.058594 M 818.644531 116.96875 C 818.644531 124.351562 817.652344 132.539062 810.183594 132.539062 C 807.84375 132.539062 806.222656 131.460938 805.144531 130.46875 C 803.613281 128.941406 801.902344 125.878906 801.902344 117.148438 C 801.902344 114.539062 801.902344 108.78125 803.703125 105.628906 C 805.054688 103.199219 807.394531 101.578125 810.273438 101.578125 C 812.792969 101.578125 814.863281 102.929688 816.035156 104.371094 C 818.195312 106.980469 818.644531 112.109375 818.644531 116.96875 Z M 886.867188 140.371094 C 886.417969 132.449219 886.417969 129.929688 886.238281 121.109375 L 886.238281 114.089844 C 886.148438 105.449219 886.058594 101.308594 883.808594 97.621094 C 881.015625 92.941406 875.886719 92.21875 872.648438 92.21875 C 867.15625 92.21875 862.386719 95.101562 858.246094 97.53125 L 858.425781 92.578125 L 857.527344 91.949219 C 850.597656 93.390625 849.066406 93.660156 842.316406 94.558594 L 841.777344 95.191406 C 842.496094 103.019531 843.039062 108.691406 843.039062 123.359375 C 843.039062 129.121094 842.945312 134.878906 842.855469 140.640625 L 843.398438 141.179688 C 849.878906 140.910156 851.226562 140.910156 858.425781 140.910156 L 858.96875 140.371094 C 858.425781 126.511719 858.335938 123 858.246094 106.890625 C 860.136719 105.628906 862.296875 104.101562 865.175781 104.101562 C 870.128906 104.101562 870.578125 109.410156 870.847656 112.648438 C 871.027344 115.621094 871.117188 127.949219 871.117188 131.371094 C 871.117188 134.429688 871.027344 137.578125 871.027344 140.640625 L 871.566406 141.179688 C 877.507812 141 879.039062 140.910156 886.238281 140.910156 Z M 891.726562 141 "/>
<path fill-rule="nonzero" fill="rgb(34.901961%, 14.901961%, 14.901961%)" fill-opacity="1" d="M 303.890625 222.300781 C 296.332031 219.148438 292.371094 217.53125 292.371094 213.480469 C 292.371094 210.691406 294.980469 207.179688 300.921875 207.179688 C 307.761719 207.179688 311.808594 209.96875 315.140625 212.21875 L 315.949219 211.859375 L 316.671875 200.070312 L 316.21875 199.441406 C 312.351562 197.820312 308.300781 196.109375 299.570312 196.109375 C 282.652344 196.109375 276.800781 205.648438 276.800781 215.28125 C 276.800781 226.171875 285.261719 230.128906 290.300781 232.558594 L 293.269531 233.910156 C 299.480469 236.519531 304.25 238.769531 304.25 243.539062 C 304.25 246.960938 301.28125 251.011719 293.449219 251.011719 C 285.261719 251.011719 280.671875 247.410156 278.058594 245.339844 L 277.160156 245.609375 L 276.53125 258.300781 L 277.070312 259.019531 C 278.058594 259.378906 279.050781 259.828125 280.039062 260.101562 C 282.109375 260.820312 287.421875 262.351562 294.171875 262.351562 C 296.871094 262.351562 303.710938 262.078125 309.109375 259.558594 C 316.671875 255.871094 319.910156 249.03125 319.910156 241.378906 C 319.910156 236.25 317.929688 230.761719 313.160156 227.070312 C 310.730469 225.269531 308.390625 224.191406 306.230469 223.199219 Z M 353.660156 250.648438 C 352.128906 251.101562 351.046875 251.460938 349.519531 251.460938 C 344.929688 251.460938 344.570312 248.578125 344.386719 247.230469 C 344.117188 244.890625 344.117188 239.941406 344.207031 236.339844 L 344.386719 223.648438 L 352.488281 224.011719 L 353.027344 223.46875 L 353.929688 213.839844 L 353.386719 213.300781 L 344.386719 213.300781 L 344.660156 198.179688 L 344.027344 197.640625 C 337.910156 199.441406 336.289062 199.890625 329.898438 201.511719 L 329.539062 202.140625 L 329.628906 213.390625 L 324.769531 213.210938 L 324.230469 213.660156 L 323.417969 223.289062 L 323.957031 223.828125 L 329.628906 223.648438 L 329.359375 237.960938 C 329.269531 240.210938 329.179688 242.460938 329.179688 244.800781 C 329.179688 253.078125 329.359375 261.988281 343.398438 261.988281 C 346.910156 261.988281 349.699219 261.449219 352.847656 260.910156 L 353.480469 260.28125 L 354.378906 251.011719 Z M 400.371094 234.179688 C 400.460938 226.078125 400.460938 222.570312 398.121094 218.789062 C 396.320312 215.910156 392.722656 212.308594 381.203125 212.308594 C 373.460938 212.308594 368.691406 213.75 363.5625 215.28125 L 363.023438 216 L 362.570312 225.808594 L 363.292969 226.171875 C 366.441406 224.910156 372.292969 222.570312 378.320312 222.570312 C 381.652344 222.570312 383 223.109375 384.171875 224.28125 C 385.070312 225.179688 385.34375 226.800781 385.34375 228.148438 C 374.542969 229.589844 369.5 230.578125 364.101562 233.910156 C 359.0625 237.058594 357.351562 242.191406 357.351562 246.238281 C 357.351562 255.871094 364.28125 262.078125 373.101562 262.078125 C 379.851562 262.078125 383.722656 258.839844 385.613281 257.308594 L 385.613281 260.640625 L 386.152344 261.269531 C 392.632812 261 394.613281 260.910156 400.460938 261 L 400.910156 260.371094 C 400.28125 251.550781 400.28125 249.300781 400.28125 240.839844 L 400.371094 234.179688 M 385.523438 248.488281 C 383.632812 249.570312 381.203125 250.828125 378.230469 250.828125 C 374.992188 250.828125 372.292969 249.121094 372.292969 245.339844 C 372.292969 239.398438 379.402344 238.410156 385.523438 237.601562 Z M 436.101562 250.648438 C 434.570312 251.101562 433.488281 251.460938 431.960938 251.460938 C 427.371094 251.460938 427.011719 248.578125 426.828125 247.230469 C 426.558594 244.890625 426.558594 239.941406 426.648438 236.339844 L 426.828125 223.648438 L 434.929688 224.011719 L 435.46875 223.46875 L 436.371094 213.839844 L 435.828125 213.300781 L 426.828125 213.300781 L 427.101562 198.179688 L 426.46875 197.640625 C 420.351562 199.441406 418.730469 199.890625 412.339844 201.511719 L 411.980469 202.140625 L 412.070312 213.390625 L 407.210938 213.210938 L 406.671875 213.660156 L 405.859375 223.289062 L 406.398438 223.828125 L 412.070312 223.648438 L 411.800781 237.960938 C 411.710938 240.210938 411.621094 242.460938 411.621094 244.800781 C 411.621094 253.078125 411.800781 261.988281 425.839844 261.988281 C 429.351562 261.988281 432.140625 261.449219 435.289062 260.910156 L 435.921875 260.28125 L 436.820312 251.011719 Z M 482.71875 247.679688 C 479.300781 249.480469 475.25 251.550781 468.679688 251.550781 C 463.28125 251.550781 459.589844 249.839844 457.429688 246.601562 C 456.078125 244.710938 455.808594 242.910156 455.449219 241.109375 L 484.519531 240.570312 L 485.058594 239.941406 C 484.96875 235.53125 484.878906 231.03125 483.621094 226.53125 C 480.46875 215.910156 473.539062 213.75 470.480469 213.03125 C 468.230469 212.398438 466.160156 212.21875 464.089844 212.21875 C 449.960938 212.21875 440.597656 221.488281 440.597656 237.058594 C 440.597656 241.289062 441.320312 245.699219 442.757812 248.851562 C 447.980469 261 460.21875 262.078125 466.699219 262.078125 C 474.167969 262.078125 477.410156 260.730469 482.179688 258.839844 L 482.71875 258.121094 L 483.347656 247.949219 L 482.71875 247.679688 M 455.449219 231.570312 C 455.71875 228.78125 456.347656 225 459.769531 222.839844 C 460.847656 222.121094 462.109375 221.851562 463.371094 221.851562 C 466.339844 221.851562 468.140625 223.378906 469.128906 225 C 470.390625 226.980469 470.480469 229.140625 470.480469 231.210938 Z M 531.679688 197.28125 L 520.25 197.460938 L 519.707031 198 C 520.070312 209.699219 520.339844 217.53125 520.339844 227.878906 C 520.339844 238.859375 520.070312 249.75 519.796875 260.730469 L 520.339844 261.269531 C 527 261 528.4375 260.910156 535.640625 261 L 536.089844 260.460938 C 535.730469 250.648438 535.730469 248.398438 535.730469 239.21875 C 545.808594 239.308594 556.609375 239.308594 563.089844 231.390625 C 565.609375 228.328125 567.769531 223.199219 567.769531 216.898438 C 567.769531 213.03125 566.867188 204.480469 559.398438 200.25 C 554 197.101562 546.347656 197.101562 539.597656 197.101562 L 531.679688 197.28125 M 535.730469 208.171875 C 537.707031 208.078125 539.597656 208.078125 541.578125 208.078125 C 549.5 208.261719 551.660156 212.308594 551.660156 217.53125 C 551.660156 218.789062 551.660156 224.011719 546.890625 226.621094 C 544.457031 227.96875 541.128906 228.148438 535.730469 228.148438 Z M 614.03125 234.179688 C 614.121094 226.078125 614.121094 222.570312 611.78125 218.789062 C 609.980469 215.910156 606.382812 212.308594 594.863281 212.308594 C 587.121094 212.308594 582.351562 213.75 577.222656 215.28125 L 576.683594 216 L 576.230469 225.808594 L 576.953125 226.171875 C 580.101562 224.910156 585.953125 222.570312 591.980469 222.570312 C 595.3125 222.570312 596.660156 223.109375 597.832031 224.28125 C 598.730469 225.179688 599.003906 226.800781 599.003906 228.148438 C 588.203125 229.589844 583.160156 230.578125 577.761719 233.910156 C 572.722656 237.058594 571.011719 242.191406 571.011719 246.238281 C 571.011719 255.871094 577.941406 262.078125 586.761719 262.078125 C 593.511719 262.078125 597.382812 258.839844 599.273438 257.308594 L 599.273438 260.640625 L 599.8125 261.269531 C 606.292969 261 608.273438 260.910156 614.121094 261 L 614.570312 260.371094 C 613.941406 251.550781 613.941406 249.300781 613.941406 240.839844 L 614.03125 234.179688 M 599.183594 248.488281 C 597.292969 249.570312 594.863281 250.828125 591.890625 250.828125 C 588.652344 250.828125 585.953125 249.121094 585.953125 245.339844 C 585.953125 239.398438 593.0625 238.410156 599.183594 237.601562 Z M 650.570312 227.609375 L 653.089844 212.941406 L 652.550781 212.308594 C 651.921875 212.308594 651.289062 212.21875 650.660156 212.21875 C 646.96875 212.21875 642.832031 214.289062 639.949219 220.949219 L 640.21875 212.671875 L 639.5 211.949219 C 632.839844 213.390625 631.128906 213.660156 624.558594 214.648438 L 624.019531 215.191406 C 624.558594 221.941406 624.832031 225.988281 624.832031 238.5 C 624.832031 245.878906 624.738281 253.261719 624.558594 260.730469 L 625.101562 261.269531 C 631.761719 261 633.199219 260.910156 640.398438 261 L 640.851562 260.371094 C 640.488281 253.078125 639.949219 242.910156 639.949219 236.699219 C 639.949219 232.648438 639.949219 226.710938 646.070312 226.710938 C 647.601562 226.710938 648.5 227.25 649.761719 227.96875 Z M 704.570312 259.828125 C 696.109375 245.519531 695.210938 243.898438 688.371094 231.570312 C 694.582031 223.109375 695.210938 222.210938 701.601562 214.019531 L 701.148438 213.121094 L 686.480469 213.300781 L 685.582031 213.929688 C 678.558594 226.078125 677.660156 227.519531 673.519531 233.730469 L 673.519531 223.738281 C 673.609375 206.910156 673.699219 203.308594 674.148438 189.71875 L 673.429688 189.179688 L 657.769531 191.519531 L 657.230469 192.148438 C 657.859375 200.878906 658.128906 205.109375 658.308594 216.898438 C 658.488281 231.480469 658.488281 246.058594 658.398438 260.640625 L 659.03125 261.269531 C 665.058594 261 666.769531 261 673.609375 261 L 674.148438 260.371094 L 673.609375 245.160156 L 673.519531 234.808594 C 681.351562 249.210938 682.339844 251.191406 686.929688 260.730469 L 687.738281 261.269531 L 703.941406 260.640625 Z M 703.492188 261 "/>
</svg>
