<?xml version="1.0" encoding="UTF-8"?>
<svg xmlns="http://www.w3.org/2000/svg" xmlns:xlink="http://www.w3.org/1999/xlink" width="975" height="1300" viewBox="0 0 975 1300">
<path fill-rule="nonzero" fill="rgb(98.823529%, 78.823529%, 9.019608%)" fill-opacity="1" d="M 50 50 L 925 50 L 925 290 L 50 290 Z M 50 50 "/>
<path fill-rule="nonzero" fill="rgb(34.901961%, 14.901961%, 14.901961%)" fill-opacity="1" d="M 218.882812 77.191406 C 209.523438 77.460938 207.992188 77.460938 198.003906 77.460938 L 197.464844 78 L 193.324219 92.578125 L 189.722656 105.628906 L 185.492188 121.289062 L 181.53125 105.179688 L 179.011719 95.011719 L 174.511719 77.730469 L 174.0625 77.191406 C 164.433594 77.460938 162.8125 77.460938 152.734375 77.460938 L 152.191406 78 C 151.292969 104.910156 150.933594 111.839844 148.953125 140.730469 L 149.402344 141.269531 C 155.164062 141 156.875 140.910156 162.09375 141 L 162.632812 140.460938 L 162.902344 123.269531 L 163.441406 105.808594 L 163.804688 88.800781 L 167.761719 104.730469 L 171.183594 117.511719 L 177.214844 140.730469 L 177.753906 141.269531 C 183.332031 141 184.863281 140.910156 191.164062 141 L 191.703125 140.460938 L 196.921875 121.289062 L 200.523438 108.148438 L 205.5625 89.25 L 205.5625 105.359375 L 205.742188 119.128906 L 205.742188 140.730469 L 206.191406 141.269531 C 212.402344 141 214.832031 140.910156 221.761719 141 L 222.214844 140.460938 C 221.671875 130.199219 221.042969 119.851562 220.683594 109.5 C 220.414062 103.828125 220.234375 98.160156 219.964844 92.488281 C 219.511719 84.121094 219.421875 83.039062 219.421875 77.730469 Z M 278.195312 117.058594 C 278.195312 113.550781 278.195312 98.96875 265.59375 94.019531 C 261.632812 92.488281 256.953125 92.308594 254.613281 92.308594 C 238.953125 92.308594 230.132812 100.679688 230.132812 117.238281 C 230.132812 123 231.035156 128.851562 234.363281 133.710938 C 236.703125 137.21875 241.113281 142.078125 253.984375 142.078125 C 273.0625 142.078125 278.195312 130.558594 278.195312 117.058594 M 262.625 116.96875 C 262.625 124.351562 261.632812 132.539062 254.164062 132.539062 C 251.824219 132.539062 250.203125 131.460938 249.125 130.46875 C 247.59375 128.941406 245.882812 125.878906 245.882812 117.148438 C 245.882812 114.539062 245.882812 108.78125 247.683594 105.628906 C 249.035156 103.199219 251.375 101.578125 254.253906 101.578125 C 256.773438 101.578125 258.84375 102.929688 260.015625 104.371094 C 262.175781 106.980469 262.625 112.109375 262.625 116.96875 Z M 330.84375 140.371094 C 330.394531 132.449219 330.394531 129.929688 330.214844 121.109375 L 330.214844 114.089844 C 330.125 105.449219 330.035156 101.308594 327.785156 97.621094 C 324.992188 92.941406 319.863281 92.21875 316.625 92.21875 C 311.132812 92.21875 306.363281 95.101562 302.222656 97.53125 L 302.402344 92.578125 L 301.503906 91.949219 C 294.574219 93.390625 293.042969 93.660156 286.292969 94.558594 L 285.753906 95.191406 C 286.472656 103.019531 287.015625 108.691406 287.015625 123.359375 C 287.015625 129.121094 286.921875 134.878906 286.832031 140.640625 L 287.375 141.179688 C 293.855469 140.910156 295.203125 140.910156 302.402344 140.910156 L 302.945312 140.371094 C 302.402344 126.511719 302.3125 123 302.222656 106.890625 C 304.113281 105.628906 306.273438 104.101562 309.152344 104.101562 C 314.105469 104.101562 314.554688 109.410156 314.824219 112.648438 C 315.003906 115.621094 315.09375 127.949219 315.09375 131.371094 C 315.09375 134.429688 315.003906 137.578125 315.003906 140.640625 L 315.542969 141.179688 C 321.484375 141 323.015625 140.910156 330.214844 140.910156 Z M 366.304688 130.648438 C 364.773438 131.101562 363.691406 131.460938 362.164062 131.460938 C 357.574219 131.460938 357.214844 128.578125 357.03125 127.230469 C 356.761719 124.890625 356.761719 119.941406 356.851562 116.339844 L 357.03125 103.648438 L 365.132812 104.011719 L 365.671875 103.46875 L 366.574219 93.839844 L 366.03125 93.300781 L 357.03125 93.300781 L 357.304688 78.179688 L 356.671875 77.640625 C 350.554688 79.441406 348.933594 79.890625 342.542969 81.511719 L 342.183594 82.140625 L 342.273438 93.390625 L 337.414062 93.210938 L 336.875 93.660156 L 336.0625 103.289062 L 336.601562 103.828125 L 342.273438 103.648438 L 342.003906 117.960938 C 341.914062 120.210938 341.824219 122.460938 341.824219 124.800781 C 341.824219 133.078125 342.003906 141.988281 356.042969 141.988281 C 359.554688 141.988281 362.34375 141.449219 365.492188 140.910156 L 366.125 140.28125 L 367.023438 131.011719 Z M 413.011719 114.179688 C 413.101562 106.078125 413.101562 102.570312 410.761719 98.789062 C 408.960938 95.910156 405.363281 92.308594 393.84375 92.308594 C 386.101562 92.308594 381.332031 93.75 376.203125 95.28125 L 375.664062 96 L 375.210938 105.808594 L 375.933594 106.171875 C 379.082031 104.910156 384.933594 102.570312 390.960938 102.570312 C 394.292969 102.570312 395.640625 103.109375 396.8125 104.28125 C 397.710938 105.179688 397.984375 106.800781 397.984375 108.148438 C 387.183594 109.589844 382.140625 110.578125 376.742188 113.910156 C 371.703125 117.058594 369.992188 122.191406 369.992188 126.238281 C 369.992188 135.871094 376.921875 142.078125 385.742188 142.078125 C 392.492188 142.078125 396.363281 138.839844 398.253906 137.308594 L 398.253906 140.640625 L 398.792969 141.269531 C 405.273438 141 407.253906 140.910156 413.101562 141 L 413.550781 140.371094 C 412.921875 131.550781 412.921875 129.300781 412.921875 120.839844 L 413.011719 114.179688 M 398.164062 128.488281 C 396.273438 129.570312 393.84375 130.828125 390.871094 130.828125 C 387.632812 130.828125 384.933594 129.121094 384.933594 125.339844 C 384.933594 119.398438 392.042969 118.410156 398.164062 117.601562 Z M 467.644531 140.371094 C 467.195312 132.449219 467.195312 129.929688 467.015625 121.109375 L 467.015625 114.089844 C 466.925781 105.449219 466.835938 101.308594 464.585938 97.621094 C 461.792969 92.941406 456.664062 92.21875 453.425781 92.21875 C 447.933594 92.21875 443.164062 95.101562 439.023438 97.53125 L 439.203125 92.578125 L 438.304688 91.949219 C 431.375 93.390625 429.84375 93.660156 423.09375 94.558594 L 422.554688 95.191406 C 423.273438 103.019531 423.816406 108.691406 423.816406 123.359375 C 423.816406 129.121094 423.722656 134.878906 423.632812 140.640625 L 424.175781 141.179688 C 430.65625 140.910156 432.003906 140.910156 439.203125 140.910156 L 439.746094 140.371094 C 439.203125 126.511719 439.113281 123 439.023438 106.890625 C 440.914062 105.628906 443.074219 104.101562 445.953125 104.101562 C 450.90625 104.101562 451.355469 109.410156 451.625 112.648438 C 451.804688 115.621094 451.894531 127.949219 451.894531 131.371094 C 451.894531 134.429688 451.804688 137.578125 451.804688 140.640625 L 452.34375 141.179688 C 458.285156 141 459.816406 140.910156 467.015625 140.910156 L 467.644531 140.371094 M 459.90625 72.78125 C 457.925781 74.488281 455.316406 76.828125 452.074219 76.828125 C 450.09375 76.828125 448.203125 76.109375 446.222656 75.480469 L 442.714844 74.21875 C 441.003906 73.679688 439.746094 73.320312 437.945312 73.320312 C 433.804688 73.320312 432.003906 74.851562 430.023438 76.378906 L 429.664062 77.101562 L 429.574219 86.550781 L 430.113281 86.820312 C 432.09375 85.46875 434.613281 83.761719 437.765625 83.761719 C 439.835938 83.761719 441.816406 84.480469 443.882812 85.199219 L 446.585938 86.191406 C 448.382812 86.820312 449.734375 87.359375 451.714844 87.359375 C 455.675781 87.359375 458.105469 85.46875 460.175781 83.851562 L 460.535156 83.128906 L 460.535156 73.050781 Z M 517.953125 114.179688 C 518.042969 106.078125 518.042969 102.570312 515.703125 98.789062 C 513.902344 95.910156 510.304688 92.308594 498.785156 92.308594 C 491.042969 92.308594 486.273438 93.75 481.144531 95.28125 L 480.605469 96 L 480.152344 105.808594 L 480.875 106.171875 C 484.023438 104.910156 489.875 102.570312 495.902344 102.570312 C 499.234375 102.570312 500.582031 103.109375 501.753906 104.28125 C 502.652344 105.179688 502.925781 106.800781 502.925781 108.148438 C 492.125 109.589844 487.082031 110.578125 481.683594 113.910156 C 476.644531 117.058594 474.933594 122.191406 474.933594 126.238281 C 474.933594 135.871094 481.863281 142.078125 490.683594 142.078125 C 497.433594 142.078125 501.304688 138.839844 503.195312 137.308594 L 503.195312 140.640625 L 503.734375 141.269531 C 510.214844 141 512.195312 140.910156 518.042969 141 L 518.492188 140.371094 C 517.863281 131.550781 517.863281 129.300781 517.863281 120.839844 L 517.953125 114.179688 M 503.105469 128.488281 C 501.214844 129.570312 498.785156 130.828125 495.8125 130.828125 C 492.574219 130.828125 489.875 129.121094 489.875 125.339844 C 489.875 119.398438 496.984375 118.410156 503.105469 117.601562 Z M 598.863281 140.460938 C 598.503906 132.359375 598.234375 126.960938 598.234375 115.171875 C 598.234375 91.410156 598.59375 81.601562 598.953125 69.71875 L 598.324219 69.179688 L 583.472656 71.519531 L 583.023438 72.058594 C 583.5625 80.519531 583.652344 82.769531 583.5625 93.03125 C 576.8125 92.851562 568.351562 92.671875 561.511719 98.070312 C 555.214844 102.929688 552.601562 110.398438 552.601562 119.671875 C 552.601562 126.691406 554.492188 133.710938 559.804688 138.121094 C 563.761719 141.359375 568.625 142.078125 571.59375 142.078125 C 577.984375 142.078125 581.3125 139.109375 583.472656 137.21875 L 583.292969 140.730469 L 583.742188 141.269531 C 589.953125 141 591.664062 141 598.414062 141 L 598.863281 140.460938 M 583.5625 103.828125 C 583.652344 115.800781 583.5625 118.140625 583.292969 129.03125 C 581.492188 130.109375 579.691406 131.191406 577.171875 131.191406 C 568.441406 131.191406 568.441406 120.03125 568.441406 118.230469 C 568.441406 111.300781 570.421875 103.558594 580.503906 103.558594 C 581.492188 103.558594 582.304688 103.648438 583.5625 103.828125 Z M 649.082031 127.679688 C 645.664062 129.480469 641.613281 131.550781 635.042969 131.550781 C 629.644531 131.550781 625.953125 129.839844 623.792969 126.601562 C 622.441406 124.710938 622.171875 122.910156 621.8125 121.109375 L 650.882812 120.570312 L 651.421875 119.941406 C 651.332031 115.53125 651.242188 111.03125 649.984375 106.53125 C 646.832031 95.910156 639.902344 93.75 636.84375 93.03125 C 634.59375 92.398438 632.523438 92.21875 630.453125 92.21875 C 616.324219 92.21875 606.960938 101.488281 606.960938 117.058594 C 606.960938 121.289062 607.683594 125.699219 609.121094 128.851562 C 614.34375 141 626.582031 142.078125 633.0625 142.078125 C 640.53125 142.078125 643.773438 140.730469 648.542969 138.839844 L 649.082031 138.121094 L 649.710938 127.949219 L 649.082031 127.679688 M 621.8125 111.570312 C 622.082031 108.78125 622.710938 105 626.132812 102.839844 C 627.210938 102.121094 628.472656 101.851562 629.734375 101.851562 C 632.703125 101.851562 634.503906 103.378906 635.492188 105 C 636.753906 106.980469 636.84375 109.140625 636.84375 111.210938 Z M 737.550781 85.738281 C 736.023438 83.761719 734.222656 82.050781 732.152344 80.699219 C 727.5625 77.640625 721.261719 76.109375 714.960938 76.109375 C 709.382812 76.109375 703.710938 77.101562 698.851562 79.890625 C 687.871094 86.191406 685.890625 96.628906 685.171875 100.410156 C 684.632812 103.46875 684.363281 106.53125 684.363281 109.589844 C 684.363281 115.710938 685.082031 127.230469 693.542969 135.058594 C 700.382812 141.449219 709.742188 142.351562 714.332031 142.351562 C 721.261719 142.351562 728.28125 140.730469 733.59375 136.320312 C 742.503906 128.941406 744.300781 116.699219 744.300781 109.050781 C 744.300781 94.921875 739.800781 88.53125 737.550781 85.738281 M 723.332031 91.5 C 725.132812 93.570312 725.941406 96.179688 726.480469 98.789062 C 727.203125 102.210938 727.382812 105.449219 727.472656 107.699219 C 727.832031 121.199219 724.953125 130.921875 714.511719 130.921875 C 702.003906 130.921875 701.191406 116.339844 701.191406 108.238281 C 701.191406 97.441406 703.800781 91.859375 708.03125 89.160156 C 710.460938 87.71875 712.890625 87.359375 714.601562 87.359375 C 718.023438 87.359375 721.171875 88.890625 723.332031 91.5 Z M 779.492188 107.609375 L 782.011719 92.941406 L 781.472656 92.308594 C 780.84375 92.308594 780.210938 92.21875 779.582031 92.21875 C 775.890625 92.21875 771.753906 94.289062 768.871094 100.949219 L 769.140625 92.671875 L 768.421875 91.949219 C 761.761719 93.390625 760.050781 93.660156 753.480469 94.648438 L 752.941406 95.191406 C 753.480469 101.941406 753.753906 105.988281 753.753906 118.5 C 753.753906 125.878906 753.660156 133.261719 753.480469 140.730469 L 754.023438 141.269531 C 760.683594 141 762.121094 140.910156 769.320312 141 L 769.773438 140.371094 C 769.410156 133.078125 768.871094 122.910156 768.871094 116.699219 C 768.871094 112.648438 768.871094 106.710938 774.992188 106.710938 C 776.523438 106.710938 777.421875 107.25 778.683594 107.96875 Z M 833.042969 117.058594 C 833.042969 113.550781 833.042969 98.96875 820.441406 94.019531 C 816.480469 92.488281 811.800781 92.308594 809.460938 92.308594 C 793.800781 92.308594 784.980469 100.679688 784.980469 117.238281 C 784.980469 123 785.882812 128.851562 789.210938 133.710938 C 791.550781 137.21875 795.960938 142.078125 808.832031 142.078125 C 827.910156 142.078125 833.042969 130.558594 833.042969 117.058594 M 817.472656 116.96875 C 817.472656 124.351562 816.480469 132.539062 809.011719 132.539062 C 806.671875 132.539062 805.050781 131.460938 803.972656 130.46875 C 802.441406 128.941406 800.730469 125.878906 800.730469 117.148438 C 800.730469 114.539062 800.730469 108.78125 802.53125 105.628906 C 803.882812 103.199219 806.222656 101.578125 809.101562 101.578125 C 811.621094 101.578125 813.691406 102.929688 814.863281 104.371094 C 817.023438 106.980469 817.472656 112.109375 817.472656 116.96875 Z M 836.191406 141 "/>
<path fill-rule="nonzero" fill="rgb(34.901961%, 14.901961%, 14.901961%)" fill-opacity="1" d="M 303.890625 222.300781 C 296.332031 219.148438 292.371094 217.53125 292.371094 213.480469 C 292.371094 210.691406 294.980469 207.179688 300.921875 207.179688 C 307.761719 207.179688 311.808594 209.96875 315.140625 212.21875 L 315.949219 211.859375 L 316.671875 200.070312 L 316.21875 199.441406 C 312.351562 197.820312 308.300781 196.109375 299.570312 196.109375 C 282.652344 196.109375 276.800781 205.648438 276.800781 215.28125 C 276.800781 226.171875 285.261719 230.128906 290.300781 232.558594 L 293.269531 233.910156 C 299.480469 236.519531 304.25 238.769531 304.25 243.539062 C 304.25 246.960938 301.28125 251.011719 293.449219 251.011719 C 285.261719 251.011719 280.671875 247.410156 278.058594 245.339844 L 277.160156 245.609375 L 276.53125 258.300781 L 277.070312 259.019531 C 278.058594 259.378906 279.050781 259.828125 280.039062 260.101562 C 282.109375 260.820312 287.421875 262.351562 294.171875 262.351562 C 296.871094 262.351562 303.710938 262.078125 309.109375 259.558594 C 316.671875 255.871094 319.910156 249.03125 319.910156 241.378906 C 319.910156 236.25 317.929688 230.761719 313.160156 227.070312 C 310.730469 225.269531 308.390625 224.191406 306.230469 223.199219 Z M 353.660156 250.648438 C 352.128906 251.101562 351.046875 251.460938 349.519531 251.460938 C 344.929688 251.460938 344.570312 248.578125 344.386719 247.230469 C 344.117188 244.890625 344.117188 239.941406 344.207031 236.339844 L 344.386719 223.648438 L 352.488281 224.011719 L 353.027344 223.46875 L 353.929688 213.839844 L 353.386719 213.300781 L 344.386719 213.300781 L 344.660156 198.179688 L 344.027344 197.640625 C 337.910156 199.441406 336.289062 199.890625 329.898438 201.511719 L 329.539062 202.140625 L 329.628906 213.390625 L 324.769531 213.210938 L 324.230469 213.660156 L 323.417969 223.289062 L 323.957031 223.828125 L 329.628906 223.648438 L 329.359375 237.960938 C 329.269531 240.210938 329.179688 242.460938 329.179688 244.800781 C 329.179688 253.078125 329.359375 261.988281 343.398438 261.988281 C 346.910156 261.988281 349.699219 261.449219 352.847656 260.910156 L 353.480469 260.28125 L 354.378906 251.011719 Z M 400.371094 234.179688 C 400.460938 226.078125 400.460938 222.570312 398.121094 218.789062 C 396.320312 215.910156 392.722656 212.308594 381.203125 212.308594 C 373.460938 212.308594 368.691406 213.75 363.5625 215.28125 L 363.023438 216 L 362.570312 225.808594 L 363.292969 226.171875 C 366.441406 224.910156 372.292969 222.570312 378.320312 222.570312 C 381.652344 222.570312 383 223.109375 384.171875 224.28125 C 385.070312 225.179688 385.34375 226.800781 385.34375 228.148438 C 374.542969 229.589844 369.5 230.578125 364.101562 233.910156 C 359.0625 237.058594 357.351562 242.191406 357.351562 246.238281 C 357.351562 255.871094 364.28125 262.078125 373.101562 262.078125 C 379.851562 262.078125 383.722656 258.839844 385.613281 257.308594 L 385.613281 260.640625 L 386.152344 261.269531 C 392.632812 261 394.613281 260.910156 400.460938 261 L 400.910156 260.371094 C 400.28125 251.550781 400.28125 249.300781 400.28125 240.839844 L 400.371094 234.179688 M 385.523438 248.488281 C 383.632812 249.570312 381.203125 250.828125 378.230469 250.828125 C 374.992188 250.828125 372.292969 249.121094 372.292969 245.339844 C 372.292969 239.398438 379.402344 238.410156 385.523438 237.601562 Z M 436.101562 250.648438 C 434.570312 251.101562 433.488281 251.460938 431.960938 251.460938 C 427.371094 251.460938 427.011719 248.578125 426.828125 247.230469 C 426.558594 244.890625 426.558594 239.941406 426.648438 236.339844 L 426.828125 223.648438 L 434.929688 224.011719 L 435.46875 223.46875 L 436.371094 213.839844 L 435.828125 213.300781 L 426.828125 213.300781 L 427.101562 198.179688 L 426.46875 197.640625 C 420.351562 199.441406 418.730469 199.890625 412.339844 201.511719 L 411.980469 202.140625 L 412.070312 213.390625 L 407.210938 213.210938 L 406.671875 213.660156 L 405.859375 223.289062 L 406.398438 223.828125 L 412.070312 223.648438 L 411.800781 237.960938 C 411.710938 240.210938 411.621094 242.460938 411.621094 244.800781 C 411.621094 253.078125 411.800781 261.988281 425.839844 261.988281 C 429.351562 261.988281 432.140625 261.449219 435.289062 260.910156 L 435.921875 260.28125 L 436.820312 251.011719 Z M 482.71875 247.679688 C 479.300781 249.480469 475.25 251.550781 468.679688 251.550781 C 463.28125 251.550781 459.589844 249.839844 457.429688 246.601562 C 456.078125 244.710938 455.808594 242.910156 455.449219 241.109375 L 484.519531 240.570312 L 485.058594 239.941406 C 484.96875 235.53125 484.878906 231.03125 483.621094 226.53125 C 480.46875 215.910156 473.539062 213.75 470.480469 213.03125 C 468.230469 212.398438 466.160156 212.21875 464.089844 212.21875 C 449.960938 212.21875 440.597656 221.488281 440.597656 237.058594 C 440.597656 241.289062 441.320312 245.699219 442.757812 248.851562 C 447.980469 261 460.21875 262.078125 466.699219 262.078125 C 474.167969 262.078125 477.410156 260.730469 482.179688 258.839844 L 482.71875 258.121094 L 483.347656 247.949219 L 482.71875 247.679688 M 455.449219 231.570312 C 455.71875 228.78125 456.347656 225 459.769531 222.839844 C 460.847656 222.121094 462.109375 221.851562 463.371094 221.851562 C 466.339844 221.851562 468.140625 223.378906 469.128906 225 C 470.390625 226.980469 470.480469 229.140625 470.480469 231.210938 Z M 531.679688 197.28125 L 520.25 197.460938 L 519.707031 198 C 520.070312 209.699219 520.339844 217.53125 520.339844 227.878906 C 520.339844 238.859375 520.070312 249.75 519.796875 260.730469 L 520.339844 261.269531 C 527 261 528.4375 260.910156 535.640625 261 L 536.089844 260.460938 C 535.730469 250.648438 535.730469 248.398438 535.730469 239.21875 C 545.808594 239.308594 556.609375 239.308594 563.089844 231.390625 C 565.609375 228.328125 567.769531 223.199219 567.769531 216.898438 C 567.769531 213.03125 566.867188 204.480469 559.398438 200.25 C 554 197.101562 546.347656 197.101562 539.597656 197.101562 L 531.679688 197.28125 M 535.730469 208.171875 C 537.707031 208.078125 539.597656 208.078125 541.578125 208.078125 C 549.5 208.261719 551.660156 212.308594 551.660156 217.53125 C 551.660156 218.789062 551.660156 224.011719 546.890625 226.621094 C 544.457031 227.96875 541.128906 228.148438 535.730469 228.148438 Z M 614.03125 234.179688 C 614.121094 226.078125 614.121094 222.570312 611.78125 218.789062 C 609.980469 215.910156 606.382812 212.308594 594.863281 212.308594 C 587.121094 212.308594 582.351562 213.75 577.222656 215.28125 L 576.683594 216 L 576.230469 225.808594 L 576.953125 226.171875 C 580.101562 224.910156 585.953125 222.570312 591.980469 222.570312 C 595.3125 222.570312 596.660156 223.109375 597.832031 224.28125 C 598.730469 225.179688 599.003906 226.800781 599.003906 228.148438 C 588.203125 229.589844 583.160156 230.578125 577.761719 233.910156 C 572.722656 237.058594 571.011719 242.191406 571.011719 246.238281 C 571.011719 255.871094 577.941406 262.078125 586.761719 262.078125 C 593.511719 262.078125 597.382812 258.839844 599.273438 257.308594 L 599.273438 260.640625 L 599.8125 261.269531 C 606.292969 261 608.273438 260.910156 614.121094 261 L 614.570312 260.371094 C 613.941406 251.550781 613.941406 249.300781 613.941406 240.839844 L 614.03125 234.179688 M 599.183594 248.488281 C 597.292969 249.570312 594.863281 250.828125 591.890625 250.828125 C 588.652344 250.828125 585.953125 249.121094 585.953125 245.339844 C 585.953125 239.398438 593.0625 238.410156 599.183594 237.601562 Z M 650.570312 227.609375 L 653.089844 212.941406 L 652.550781 212.308594 C 651.921875 212.308594 651.289062 212.21875 650.660156 212.21875 C 646.96875 212.21875 642.832031 214.289062 639.949219 220.949219 L 640.21875 212.671875 L 639.5 211.949219 C 632.839844 213.390625 631.128906 213.660156 624.558594 214.648438 L 624.019531 215.191406 C 624.558594 221.941406 624.832031 225.988281 624.832031 238.5 C 624.832031 245.878906 624.738281 253.261719 624.558594 260.730469 L 625.101562 261.269531 C 631.761719 261 633.199219 260.910156 640.398438 261 L 640.851562 260.371094 C 640.488281 253.078125 639.949219 242.910156 639.949219 236.699219 C 639.949219 232.648438 639.949219 226.710938 646.070312 226.710938 C 647.601562 226.710938 648.5 227.25 649.761719 227.96875 Z M 704.570312 259.828125 C 696.109375 245.519531 695.210938 243.898438 688.371094 231.570312 C 694.582031 223.109375 695.210938 222.210938 701.601562 214.019531 L 701.148438 213.121094 L 686.480469 213.300781 L 685.582031 213.929688 C 678.558594 226.078125 677.660156 227.519531 673.519531 233.730469 L 673.519531 223.738281 C 673.609375 206.910156 673.699219 203.308594 674.148438 189.71875 L 673.429688 189.179688 L 657.769531 191.519531 L 657.230469 192.148438 C 657.859375 200.878906 658.128906 205.109375 658.308594 216.898438 C 658.488281 231.480469 658.488281 246.058594 658.398438 260.640625 L 659.03125 261.269531 C 665.058594 261 666.769531 261 673.609375 261 L 674.148438 260.371094 L 673.609375 245.160156 L 673.519531 234.808594 C 681.351562 249.210938 682.339844 251.191406 686.929688 260.730469 L 687.738281 261.269531 L 703.941406 260.640625 Z M 703.492188 261 "/>
</svg>
