<?xml version="1.0" encoding="UTF-8"?>
<svg xmlns="http://www.w3.org/2000/svg" xmlns:xlink="http://www.w3.org/1999/xlink" width="975" height="1300" viewBox="0 0 975 1300">
<path fill-rule="nonzero" fill="rgb(98.823529%, 78.823529%, 9.019608%)" fill-opacity="1" d="M 50 50 L 925 50 L 925 290 L 50 290 Z M 50 50 "/>
<path fill-rule="nonzero" fill="rgb(34.901961%, 14.901961%, 14.901961%)" fill-opacity="1" d="M 163.488281 77.191406 C 154.128906 77.460938 152.597656 77.460938 142.609375 77.460938 L 142.070312 78 L 137.929688 92.578125 L 134.328125 105.628906 L 130.097656 121.289062 L 126.136719 105.179688 L 123.617188 95.011719 L 119.117188 77.730469 L 118.667969 77.191406 C 109.039062 77.460938 107.417969 77.460938 97.339844 77.460938 L 96.796875 78 C 95.898438 104.910156 95.539062 111.839844 93.558594 140.730469 L 94.007812 141.269531 C 99.769531 141 101.480469 140.910156 106.699219 141 L 107.238281 140.460938 L 107.507812 123.269531 L 108.046875 105.808594 L 108.410156 88.800781 L 112.367188 104.730469 L 115.789062 117.511719 L 121.820312 140.730469 L 122.359375 141.269531 C 127.9375 141 129.46875 140.910156 135.769531 141 L 136.308594 140.460938 L 141.527344 121.289062 L 145.128906 108.148438 L 150.167969 89.25 L 150.167969 105.359375 L 150.347656 119.128906 L 150.347656 140.730469 L 150.796875 141.269531 C 157.007812 141 159.4375 140.910156 166.367188 141 L 166.820312 140.460938 C 166.277344 130.199219 165.648438 119.851562 165.289062 109.5 C 165.019531 103.828125 164.839844 98.160156 164.570312 92.488281 C 164.117188 84.121094 164.027344 83.039062 164.027344 77.730469 Z M 222.800781 117.058594 C 222.800781 113.550781 222.800781 98.96875 210.199219 94.019531 C 206.238281 92.488281 201.558594 92.308594 199.21875 92.308594 C 183.558594 92.308594 174.738281 100.679688 174.738281 117.238281 C 174.738281 123 175.640625 128.851562 178.96875 133.710938 C 181.308594 137.21875 185.71875 142.078125 198.589844 142.078125 C 217.667969 142.078125 222.800781 130.558594 222.800781 117.058594 M 207.230469 116.96875 C 207.230469 124.351562 206.238281 132.539062 198.769531 132.539062 C 196.429688 132.539062 194.808594 131.460938 193.730469 130.46875 C 192.199219 128.941406 190.488281 125.878906 190.488281 117.148438 C 190.488281 114.539062 190.488281 108.78125 192.289062 105.628906 C 193.640625 103.199219 195.980469 101.578125 198.859375 101.578125 C 201.378906 101.578125 203.449219 102.929688 204.621094 104.371094 C 206.78125 106.980469 207.230469 112.109375 207.230469 116.96875 Z M 257.359375 107.609375 L 259.878906 92.941406 L 259.339844 92.308594 C 258.710938 92.308594 258.078125 92.21875 257.449219 92.21875 C 253.757812 92.21875 249.621094 94.289062 246.738281 100.949219 L 247.007812 92.671875 L 246.289062 91.949219 C 239.628906 93.390625 237.917969 93.660156 231.347656 94.648438 L 230.808594 95.191406 C 231.347656 101.941406 231.621094 105.988281 231.621094 118.5 C 231.621094 125.878906 231.527344 133.261719 231.347656 140.730469 L 231.890625 141.269531 C 238.550781 141 239.988281 140.910156 247.1875 141 L 247.640625 140.371094 C 247.277344 133.078125 246.738281 122.910156 246.738281 116.699219 C 246.738281 112.648438 246.738281 106.710938 252.859375 106.710938 C 254.390625 106.710938 255.289062 107.25 256.550781 107.96875 Z M 291.109375 107.609375 L 293.628906 92.941406 L 293.089844 92.308594 C 292.460938 92.308594 291.828125 92.21875 291.199219 92.21875 C 287.507812 92.21875 283.371094 94.289062 280.488281 100.949219 L 280.757812 92.671875 L 280.039062 91.949219 C 273.378906 93.390625 271.667969 93.660156 265.097656 94.648438 L 264.558594 95.191406 C 265.097656 101.941406 265.371094 105.988281 265.371094 118.5 C 265.371094 125.878906 265.277344 133.261719 265.097656 140.730469 L 265.640625 141.269531 C 272.300781 141 273.738281 140.910156 280.9375 141 L 281.390625 140.371094 C 281.027344 133.078125 280.488281 122.910156 280.488281 116.699219 C 280.488281 112.648438 280.488281 106.710938 286.609375 106.710938 C 288.140625 106.710938 289.039062 107.25 290.300781 107.96875 Z M 344.660156 117.058594 C 344.660156 113.550781 344.660156 98.96875 332.058594 94.019531 C 328.097656 92.488281 323.417969 92.308594 321.078125 92.308594 C 305.417969 92.308594 296.597656 100.679688 296.597656 117.238281 C 296.597656 123 297.5 128.851562 300.828125 133.710938 C 303.167969 137.21875 307.578125 142.078125 320.449219 142.078125 C 339.527344 142.078125 344.660156 130.558594 344.660156 117.058594 M 329.089844 116.96875 C 329.089844 124.351562 328.097656 132.539062 320.628906 132.539062 C 318.289062 132.539062 316.667969 131.460938 315.589844 130.46875 C 314.058594 128.941406 312.347656 125.878906 312.347656 117.148438 C 312.347656 114.539062 312.347656 108.78125 314.148438 105.628906 C 315.5 103.199219 317.839844 101.578125 320.71875 101.578125 C 323.238281 101.578125 325.308594 102.929688 326.480469 104.371094 C 328.640625 106.980469 329.089844 112.109375 329.089844 116.96875 Z M 405.5 102.300781 C 397.941406 99.148438 393.980469 97.53125 393.980469 93.480469 C 393.980469 90.691406 396.589844 87.179688 402.53125 87.179688 C 409.371094 87.179688 413.417969 89.96875 416.75 92.21875 L 417.558594 91.859375 L 418.28125 80.070312 L 417.828125 79.441406 C 413.960938 77.820312 409.910156 76.109375 401.179688 76.109375 C 384.261719 76.109375 378.410156 85.648438 378.410156 95.28125 C 378.410156 106.171875 386.871094 110.128906 391.910156 112.558594 L 394.878906 113.910156 C 401.089844 116.519531 405.859375 118.769531 405.859375 123.539062 C 405.859375 126.960938 402.890625 131.011719 395.058594 131.011719 C 386.871094 131.011719 382.28125 127.410156 379.667969 125.339844 L 378.769531 125.609375 L 378.140625 138.300781 L 378.679688 139.019531 C 379.667969 139.378906 380.660156 139.828125 381.648438 140.101562 C 383.71875 140.820312 389.03125 142.351562 395.78125 142.351562 C 398.480469 142.351562 405.320312 142.078125 410.71875 139.558594 C 418.28125 135.871094 421.519531 129.03125 421.519531 121.378906 C 421.519531 116.25 419.539062 110.761719 414.769531 107.070312 C 412.339844 105.269531 410 104.191406 407.839844 103.199219 Z M 455.269531 130.648438 C 453.738281 131.101562 452.65625 131.460938 451.128906 131.460938 C 446.539062 131.460938 446.179688 128.578125 445.996094 127.230469 C 445.726562 124.890625 445.726562 119.941406 445.816406 116.339844 L 445.996094 103.648438 L 454.097656 104.011719 L 454.636719 103.46875 L 455.539062 93.839844 L 454.996094 93.300781 L 445.996094 93.300781 L 446.269531 78.179688 L 445.636719 77.640625 C 439.519531 79.441406 437.898438 79.890625 431.507812 81.511719 L 431.148438 82.140625 L 431.238281 93.390625 L 426.378906 93.210938 L 425.839844 93.660156 L 425.027344 103.289062 L 425.566406 103.828125 L 431.238281 103.648438 L 430.96875 117.960938 C 430.878906 120.210938 430.789062 122.460938 430.789062 124.800781 C 430.789062 133.078125 430.96875 141.988281 445.007812 141.988281 C 448.519531 141.988281 451.308594 141.449219 454.457031 140.910156 L 455.089844 140.28125 L 455.988281 131.011719 Z M 487.9375 107.609375 L 490.457031 92.941406 L 489.917969 92.308594 C 489.289062 92.308594 488.65625 92.21875 488.027344 92.21875 C 484.335938 92.21875 480.199219 94.289062 477.316406 100.949219 L 477.585938 92.671875 L 476.867188 91.949219 C 470.207031 93.390625 468.496094 93.660156 461.925781 94.648438 L 461.386719 95.191406 C 461.925781 101.941406 462.199219 105.988281 462.199219 118.5 C 462.199219 125.878906 462.105469 133.261719 461.925781 140.730469 L 462.46875 141.269531 C 469.128906 141 470.566406 140.910156 477.765625 141 L 478.21875 140.371094 C 477.855469 133.078125 477.316406 122.910156 477.316406 116.699219 C 477.316406 112.648438 477.316406 106.710938 483.4375 106.710938 C 484.96875 106.710938 485.867188 107.25 487.128906 107.96875 Z M 535.726562 114.179688 C 535.816406 106.078125 535.816406 102.570312 533.476562 98.789062 C 531.675781 95.910156 528.078125 92.308594 516.558594 92.308594 C 508.816406 92.308594 504.046875 93.75 498.917969 95.28125 L 498.378906 96 L 497.925781 105.808594 L 498.648438 106.171875 C 501.796875 104.910156 507.648438 102.570312 513.675781 102.570312 C 517.007812 102.570312 518.355469 103.109375 519.527344 104.28125 C 520.425781 105.179688 520.699219 106.800781 520.699219 108.148438 C 509.898438 109.589844 504.855469 110.578125 499.457031 113.910156 C 494.417969 117.058594 492.707031 122.191406 492.707031 126.238281 C 492.707031 135.871094 499.636719 142.078125 508.457031 142.078125 C 515.207031 142.078125 519.078125 138.839844 520.96875 137.308594 L 520.96875 140.640625 L 521.507812 141.269531 C 527.988281 141 529.96875 140.910156 535.816406 141 L 536.265625 140.371094 C 535.636719 131.550781 535.636719 129.300781 535.636719 120.839844 L 535.726562 114.179688 M 520.878906 128.488281 C 518.988281 129.570312 516.558594 130.828125 513.585938 130.828125 C 510.347656 130.828125 507.648438 129.121094 507.648438 125.339844 C 507.648438 119.398438 514.757812 118.410156 520.878906 117.601562 Z M 590.359375 140.371094 C 589.910156 132.449219 589.910156 129.929688 589.730469 121.109375 L 589.730469 114.089844 C 589.640625 105.449219 589.550781 101.308594 587.300781 97.621094 C 584.507812 92.941406 579.378906 92.21875 576.140625 92.21875 C 570.648438 92.21875 565.878906 95.101562 561.738281 97.53125 L 561.917969 92.578125 L 561.019531 91.949219 C 554.089844 93.390625 552.558594 93.660156 545.808594 94.558594 L 545.269531 95.191406 C 545.988281 103.019531 546.53125 108.691406 546.53125 123.359375 C 546.53125 129.121094 546.4375 134.878906 546.347656 140.640625 L 546.890625 141.179688 C 553.371094 140.910156 554.71875 140.910156 561.917969 140.910156 L 562.460938 140.371094 C 561.917969 126.511719 561.828125 123 561.738281 106.890625 C 563.628906 105.628906 565.789062 104.101562 568.667969 104.101562 C 573.621094 104.101562 574.070312 109.410156 574.339844 112.648438 C 574.519531 115.621094 574.609375 127.949219 574.609375 131.371094 C 574.609375 134.429688 574.519531 137.578125 574.519531 140.640625 L 575.058594 141.179688 C 581 141 582.53125 140.910156 589.730469 140.910156 Z M 644.71875 140.460938 C 644.359375 132.359375 644.089844 126.960938 644.089844 115.171875 C 644.089844 91.410156 644.449219 81.601562 644.808594 69.71875 L 644.179688 69.179688 L 629.328125 71.519531 L 628.878906 72.058594 C 629.417969 80.519531 629.507812 82.769531 629.417969 93.03125 C 622.667969 92.851562 614.207031 92.671875 607.367188 98.070312 C 601.070312 102.929688 598.457031 110.398438 598.457031 119.671875 C 598.457031 126.691406 600.347656 133.710938 605.660156 138.121094 C 609.617188 141.359375 614.480469 142.078125 617.449219 142.078125 C 623.839844 142.078125 627.167969 139.109375 629.328125 137.21875 L 629.148438 140.730469 L 629.597656 141.269531 C 635.808594 141 637.519531 141 644.269531 141 L 644.71875 140.460938 M 629.417969 103.828125 C 629.507812 115.800781 629.417969 118.140625 629.148438 129.03125 C 627.347656 130.109375 625.546875 131.191406 623.027344 131.191406 C 614.296875 131.191406 614.296875 120.03125 614.296875 118.230469 C 614.296875 111.300781 616.277344 103.558594 626.359375 103.558594 C 627.347656 103.558594 628.160156 103.648438 629.417969 103.828125 Z M 707.269531 102.300781 C 699.710938 99.148438 695.75 97.53125 695.75 93.480469 C 695.75 90.691406 698.359375 87.179688 704.300781 87.179688 C 711.140625 87.179688 715.1875 89.96875 718.519531 92.21875 L 719.328125 91.859375 L 720.050781 80.070312 L 719.597656 79.441406 C 715.730469 77.820312 711.679688 76.109375 702.949219 76.109375 C 686.03125 76.109375 680.179688 85.648438 680.179688 95.28125 C 680.179688 106.171875 688.640625 110.128906 693.679688 112.558594 L 696.648438 113.910156 C 702.859375 116.519531 707.628906 118.769531 707.628906 123.539062 C 707.628906 126.960938 704.660156 131.011719 696.828125 131.011719 C 688.640625 131.011719 684.050781 127.410156 681.4375 125.339844 L 680.539062 125.609375 L 679.910156 138.300781 L 680.449219 139.019531 C 681.4375 139.378906 682.429688 139.828125 683.417969 140.101562 C 685.488281 140.820312 690.800781 142.351562 697.550781 142.351562 C 700.25 142.351562 707.089844 142.078125 712.488281 139.558594 C 720.050781 135.871094 723.289062 129.03125 723.289062 121.378906 C 723.289062 116.25 721.308594 110.761719 716.539062 107.070312 C 714.109375 105.269531 711.769531 104.191406 709.609375 103.199219 Z M 757.039062 130.648438 C 755.507812 131.101562 754.425781 131.460938 752.898438 131.460938 C 748.308594 131.460938 747.949219 128.578125 747.765625 127.230469 C 747.496094 124.890625 747.496094 119.941406 747.585938 116.339844 L 747.765625 103.648438 L 755.867188 104.011719 L 756.40625 103.46875 L 757.308594 93.839844 L 756.765625 93.300781 L 747.765625 93.300781 L 748.039062 78.179688 L 747.40625 77.640625 C 741.289062 79.441406 739.667969 79.890625 733.277344 81.511719 L 732.917969 82.140625 L 733.007812 93.390625 L 728.148438 93.210938 L 727.609375 93.660156 L 726.796875 103.289062 L 727.335938 103.828125 L 733.007812 103.648438 L 732.738281 117.960938 C 732.648438 120.210938 732.558594 122.460938 732.558594 124.800781 C 732.558594 133.078125 732.738281 141.988281 746.777344 141.988281 C 750.289062 141.988281 753.078125 141.449219 756.226562 140.910156 L 756.859375 140.28125 L 757.757812 131.011719 Z M 803.746094 114.179688 C 803.835938 106.078125 803.835938 102.570312 801.496094 98.789062 C 799.695312 95.910156 796.097656 92.308594 784.578125 92.308594 C 776.835938 92.308594 772.066406 93.75 766.9375 95.28125 L 766.398438 96 L 765.945312 105.808594 L 766.667969 106.171875 C 769.816406 104.910156 775.667969 102.570312 781.695312 102.570312 C 785.027344 102.570312 786.375 103.109375 787.546875 104.28125 C 788.445312 105.179688 788.71875 106.800781 788.71875 108.148438 C 777.917969 109.589844 772.875 110.578125 767.476562 113.910156 C 762.4375 117.058594 760.726562 122.191406 760.726562 126.238281 C 760.726562 135.871094 767.65625 142.078125 776.476562 142.078125 C 783.226562 142.078125 787.097656 138.839844 788.988281 137.308594 L 788.988281 140.640625 L 789.527344 141.269531 C 796.007812 141 797.988281 140.910156 803.835938 141 L 804.285156 140.371094 C 803.65625 131.550781 803.65625 129.300781 803.65625 120.839844 L 803.746094 114.179688 M 788.898438 128.488281 C 787.007812 129.570312 784.578125 130.828125 781.605469 130.828125 C 778.367188 130.828125 775.667969 129.121094 775.667969 125.339844 C 775.667969 119.398438 782.777344 118.410156 788.898438 117.601562 Z M 839.480469 130.648438 C 837.949219 131.101562 836.867188 131.460938 835.339844 131.460938 C 830.75 131.460938 830.390625 128.578125 830.207031 127.230469 C 829.9375 124.890625 829.9375 119.941406 830.027344 116.339844 L 830.207031 103.648438 L 838.308594 104.011719 L 838.847656 103.46875 L 839.75 93.839844 L 839.207031 93.300781 L 830.207031 93.300781 L 830.480469 78.179688 L 829.847656 77.640625 C 823.730469 79.441406 822.109375 79.890625 815.71875 81.511719 L 815.359375 82.140625 L 815.449219 93.390625 L 810.589844 93.210938 L 810.050781 93.660156 L 809.238281 103.289062 L 809.777344 103.828125 L 815.449219 103.648438 L 815.179688 117.960938 C 815.089844 120.210938 815 122.460938 815 124.800781 C 815 133.078125 815.179688 141.988281 829.21875 141.988281 C 832.730469 141.988281 835.519531 141.449219 838.667969 140.910156 L 839.300781 140.28125 L 840.199219 131.011719 Z M 886.097656 127.679688 C 882.679688 129.480469 878.628906 131.550781 872.058594 131.550781 C 866.660156 131.550781 862.96875 129.839844 860.808594 126.601562 C 859.457031 124.710938 859.1875 122.910156 858.828125 121.109375 L 887.898438 120.570312 L 888.4375 119.941406 C 888.347656 115.53125 888.257812 111.03125 887 106.53125 C 883.847656 95.910156 876.917969 93.75 873.859375 93.03125 C 871.609375 92.398438 869.539062 92.21875 867.46875 92.21875 C 853.339844 92.21875 843.976562 101.488281 843.976562 117.058594 C 843.976562 121.289062 844.699219 125.699219 846.136719 128.851562 C 851.359375 141 863.597656 142.078125 870.078125 142.078125 C 877.546875 142.078125 880.789062 140.730469 885.558594 138.839844 L 886.097656 138.121094 L 886.726562 127.949219 L 886.097656 127.679688 M 858.828125 111.570312 C 859.097656 108.78125 859.726562 105 863.148438 102.839844 C 864.226562 102.121094 865.488281 101.851562 866.75 101.851562 C 869.71875 101.851562 871.519531 103.378906 872.507812 105 C 873.769531 106.980469 873.859375 109.140625 873.859375 111.210938 Z M 891.320312 141 "/>
<path fill-rule="nonzero" fill="rgb(34.901961%, 14.901961%, 14.901961%)" fill-opacity="1" d="M 385.519531 261 C 393.890625 261.179688 404.238281 261.359375 410.988281 256.679688 C 416.929688 252.449219 418.550781 246.511719 418.550781 241.46875 C 418.550781 235.710938 416.117188 230.398438 410.988281 227.878906 C 409.277344 226.980469 407.300781 226.621094 405.410156 226.261719 C 408.46875 225 412.070312 223.378906 414.410156 218.609375 C 415.398438 216.539062 415.847656 214.378906 415.847656 212.308594 C 415.847656 209.429688 415.128906 205.46875 412.25 202.230469 C 408.46875 198.179688 402.617188 197.101562 393.800781 197.101562 C 390.738281 197.101562 385.25 197.191406 382.1875 197.28125 L 369.589844 197.460938 L 369.050781 198 C 369.410156 206.640625 369.5 209.96875 369.5 222.390625 C 369.5 235.171875 369.410156 247.859375 369.230469 260.640625 L 369.859375 261 L 385.519531 261 M 384.890625 233.640625 C 391.730469 233.460938 395.6875 233.460938 398.300781 234.988281 C 400.910156 236.609375 401.898438 239.488281 401.898438 242.371094 C 401.898438 246.421875 399.648438 248.941406 396.320312 250.109375 C 393.617188 251.011719 388.757812 251.011719 384.890625 250.921875 L 384.890625 233.640625 M 384.890625 207.179688 C 386.777344 207.179688 389.300781 207.089844 390.828125 207.089844 C 395.6875 207.089844 400.097656 208.800781 400.097656 214.648438 C 400.097656 219.421875 396.589844 221.398438 395.507812 221.941406 C 393.257812 222.929688 388.488281 222.929688 384.890625 222.929688 Z M 466.878906 247.679688 C 463.460938 249.480469 459.410156 251.550781 452.839844 251.550781 C 447.441406 251.550781 443.75 249.839844 441.589844 246.601562 C 440.238281 244.710938 439.96875 242.910156 439.609375 241.109375 L 468.679688 240.570312 L 469.21875 239.941406 C 469.128906 235.53125 469.039062 231.03125 467.78125 226.53125 C 464.628906 215.910156 457.699219 213.75 454.640625 213.03125 C 452.390625 212.398438 450.320312 212.21875 448.25 212.21875 C 434.121094 212.21875 424.757812 221.488281 424.757812 237.058594 C 424.757812 241.289062 425.480469 245.699219 426.917969 248.851562 C 432.140625 261 444.378906 262.078125 450.859375 262.078125 C 458.328125 262.078125 461.570312 260.730469 466.339844 258.839844 L 466.878906 258.121094 L 467.507812 247.949219 L 466.878906 247.679688 M 439.609375 231.570312 C 439.878906 228.78125 440.507812 225 443.929688 222.839844 C 445.007812 222.121094 446.269531 221.851562 447.53125 221.851562 C 450.5 221.851562 452.300781 223.378906 453.289062 225 C 454.550781 226.980469 454.640625 229.140625 454.640625 231.210938 Z M 517.546875 234.179688 C 517.636719 226.078125 517.636719 222.570312 515.296875 218.789062 C 513.496094 215.910156 509.898438 212.308594 498.378906 212.308594 C 490.636719 212.308594 485.867188 213.75 480.738281 215.28125 L 480.199219 216 L 479.746094 225.808594 L 480.46875 226.171875 C 483.617188 224.910156 489.46875 222.570312 495.496094 222.570312 C 498.828125 222.570312 500.175781 223.109375 501.347656 224.28125 C 502.246094 225.179688 502.519531 226.800781 502.519531 228.148438 C 491.71875 229.589844 486.675781 230.578125 481.277344 233.910156 C 476.238281 237.058594 474.527344 242.191406 474.527344 246.238281 C 474.527344 255.871094 481.457031 262.078125 490.277344 262.078125 C 497.027344 262.078125 500.898438 258.839844 502.789062 257.308594 L 502.789062 260.640625 L 503.328125 261.269531 C 509.808594 261 511.789062 260.910156 517.636719 261 L 518.085938 260.371094 C 517.457031 251.550781 517.457031 249.300781 517.457031 240.839844 L 517.546875 234.179688 M 502.699219 248.488281 C 500.808594 249.570312 498.378906 250.828125 495.40625 250.828125 C 492.167969 250.828125 489.46875 249.121094 489.46875 245.339844 C 489.46875 239.398438 496.578125 238.410156 502.699219 237.601562 Z M 563.269531 248.039062 C 560.839844 249.480469 558.5 250.921875 553.910156 250.921875 C 543.738281 250.921875 541.667969 242.460938 541.667969 237.058594 C 541.667969 230.488281 544.550781 222.929688 553.28125 222.929688 C 557.238281 222.929688 559.398438 224.371094 562.101562 226.171875 L 563 225.898438 C 563.359375 221.128906 563.449219 219.871094 564.167969 215.101562 L 563.71875 214.558594 C 559.757812 213.300781 556.339844 212.21875 551.121094 212.21875 C 529.96875 212.21875 525.828125 228.238281 525.828125 237.421875 C 525.828125 247.769531 531.230469 261.808594 551.480469 261.808594 C 556.25 261.808594 559.308594 260.910156 563.089844 259.828125 L 563.628906 259.289062 L 563.988281 248.488281 Z M 615.289062 260.371094 C 614.929688 252.988281 614.839844 250.46875 614.660156 241.109375 L 614.660156 234.359375 C 614.570312 225.808594 614.480469 220.859375 611.867188 217.078125 C 609.257812 213.390625 605.480469 212.21875 601.519531 212.21875 C 594.949219 212.21875 589.820312 215.371094 586.21875 217.53125 L 586.488281 189.808594 L 585.949219 189.179688 L 570.558594 191.609375 L 570.109375 192.148438 C 570.917969 200.878906 571.097656 204.121094 571.277344 215.730469 C 571.460938 223.019531 571.550781 230.308594 571.550781 237.601562 C 571.550781 246.511719 571.367188 251.820312 571.1875 260.640625 L 571.640625 261.269531 C 578.300781 260.910156 579.648438 260.910156 586.9375 260.910156 L 587.480469 260.371094 C 586.847656 246.871094 586.757812 242.820312 586.667969 226.890625 C 588.378906 225.71875 590.539062 224.191406 593.597656 224.191406 C 598.550781 224.191406 598.910156 229.320312 599.269531 232.921875 C 599.449219 235.710938 599.539062 248.488281 599.539062 251.820312 C 599.539062 254.789062 599.449219 257.671875 599.449219 260.640625 L 599.898438 261.269531 C 606.378906 260.910156 607.820312 260.910156 614.75 260.910156 Z M 620.148438 261 "/>
</svg>
