<?xml version="1.0" encoding="UTF-8"?>
<svg xmlns="http://www.w3.org/2000/svg" xmlns:xlink="http://www.w3.org/1999/xlink" width="975" height="1300" viewBox="0 0 975 1300">
<path fill-rule="nonzero" fill="rgb(98.823529%, 78.823529%, 9.019608%)" fill-opacity="1" d="M 50 50 L 925 50 L 925 290 L 50 290 Z M 50 50 "/>
<path fill-rule="nonzero" fill="rgb(34.901961%, 14.901961%, 14.901961%)" fill-opacity="1" d="M 224.375 77.191406 C 215.015625 77.460938 213.484375 77.460938 203.496094 77.460938 L 202.957031 78 L 198.816406 92.578125 L 195.214844 105.628906 L 190.984375 121.289062 L 187.023438 105.179688 L 184.503906 95.011719 L 180.003906 77.730469 L 179.554688 77.191406 C 169.925781 77.460938 168.304688 77.460938 158.226562 77.460938 L 157.683594 78 C 156.785156 104.910156 156.425781 111.839844 154.445312 140.730469 L 154.894531 141.269531 C 160.65625 141 162.367188 140.910156 167.585938 141 L 168.125 140.460938 L 168.394531 123.269531 L 168.933594 105.808594 L 169.296875 88.800781 L 173.253906 104.730469 L 176.675781 117.511719 L 182.707031 140.730469 L 183.246094 141.269531 C 188.824219 141 190.355469 140.910156 196.65625 141 L 197.195312 140.460938 L 202.414062 121.289062 L 206.015625 108.148438 L 211.054688 89.25 L 211.054688 105.359375 L 211.234375 119.128906 L 211.234375 140.730469 L 211.683594 141.269531 C 217.894531 141 220.324219 140.910156 227.253906 141 L 227.707031 140.460938 C 227.164062 130.199219 226.535156 119.851562 226.175781 109.5 C 225.90625 103.828125 225.726562 98.160156 225.457031 92.488281 C 225.003906 84.121094 224.914062 83.039062 224.914062 77.730469 Z M 283.6875 117.058594 C 283.6875 113.550781 283.6875 98.96875 271.085938 94.019531 C 267.125 92.488281 262.445312 92.308594 260.105469 92.308594 C 244.445312 92.308594 235.625 100.679688 235.625 117.238281 C 235.625 123 236.527344 128.851562 239.855469 133.710938 C 242.195312 137.21875 246.605469 142.078125 259.476562 142.078125 C 278.554688 142.078125 283.6875 130.558594 283.6875 117.058594 M 268.117188 116.96875 C 268.117188 124.351562 267.125 132.539062 259.65625 132.539062 C 257.316406 132.539062 255.695312 131.460938 254.617188 130.46875 C 253.085938 128.941406 251.375 125.878906 251.375 117.148438 C 251.375 114.539062 251.375 108.78125 253.175781 105.628906 C 254.527344 103.199219 256.867188 101.578125 259.746094 101.578125 C 262.265625 101.578125 264.335938 102.929688 265.507812 104.371094 C 267.667969 106.980469 268.117188 112.109375 268.117188 116.96875 Z M 318.246094 107.609375 L 320.765625 92.941406 L 320.226562 92.308594 C 319.597656 92.308594 318.964844 92.21875 318.335938 92.21875 C 314.644531 92.21875 310.507812 94.289062 307.625 100.949219 L 307.894531 92.671875 L 307.175781 91.949219 C 300.515625 93.390625 298.804688 93.660156 292.234375 94.648438 L 291.695312 95.191406 C 292.234375 101.941406 292.507812 105.988281 292.507812 118.5 C 292.507812 125.878906 292.414062 133.261719 292.234375 140.730469 L 292.777344 141.269531 C 299.4375 141 300.875 140.910156 308.074219 141 L 308.527344 140.371094 C 308.164062 133.078125 307.625 122.910156 307.625 116.699219 C 307.625 112.648438 307.625 106.710938 313.746094 106.710938 C 315.277344 106.710938 316.175781 107.25 317.4375 107.96875 Z M 351.996094 107.609375 L 354.515625 92.941406 L 353.976562 92.308594 C 353.347656 92.308594 352.714844 92.21875 352.085938 92.21875 C 348.394531 92.21875 344.257812 94.289062 341.375 100.949219 L 341.644531 92.671875 L 340.925781 91.949219 C 334.265625 93.390625 332.554688 93.660156 325.984375 94.648438 L 325.445312 95.191406 C 325.984375 101.941406 326.257812 105.988281 326.257812 118.5 C 326.257812 125.878906 326.164062 133.261719 325.984375 140.730469 L 326.527344 141.269531 C 333.1875 141 334.625 140.910156 341.824219 141 L 342.277344 140.371094 C 341.914062 133.078125 341.375 122.910156 341.375 116.699219 C 341.375 112.648438 341.375 106.710938 347.496094 106.710938 C 349.027344 106.710938 349.925781 107.25 351.1875 107.96875 Z M 405.546875 117.058594 C 405.546875 113.550781 405.546875 98.96875 392.945312 94.019531 C 388.984375 92.488281 384.304688 92.308594 381.964844 92.308594 C 366.304688 92.308594 357.484375 100.679688 357.484375 117.238281 C 357.484375 123 358.386719 128.851562 361.714844 133.710938 C 364.054688 137.21875 368.464844 142.078125 381.335938 142.078125 C 400.414062 142.078125 405.546875 130.558594 405.546875 117.058594 M 389.976562 116.96875 C 389.976562 124.351562 388.984375 132.539062 381.515625 132.539062 C 379.175781 132.539062 377.554688 131.460938 376.476562 130.46875 C 374.945312 128.941406 373.234375 125.878906 373.234375 117.148438 C 373.234375 114.539062 373.234375 108.78125 375.035156 105.628906 C 376.386719 103.199219 378.726562 101.578125 381.605469 101.578125 C 384.125 101.578125 386.195312 102.929688 387.367188 104.371094 C 389.527344 106.980469 389.976562 112.109375 389.976562 116.96875 Z M 457.117188 141 C 465.488281 141.179688 475.835938 141.359375 482.585938 136.679688 C 488.527344 132.449219 490.148438 126.511719 490.148438 121.46875 C 490.148438 115.710938 487.714844 110.398438 482.585938 107.878906 C 480.875 106.980469 478.898438 106.621094 477.007812 106.261719 C 480.066406 105 483.667969 103.378906 486.007812 98.609375 C 486.996094 96.539062 487.445312 94.378906 487.445312 92.308594 C 487.445312 89.429688 486.726562 85.46875 483.847656 82.230469 C 480.066406 78.179688 474.214844 77.101562 465.398438 77.101562 C 462.335938 77.101562 456.847656 77.191406 453.785156 77.28125 L 441.1875 77.460938 L 440.648438 78 C 441.007812 86.640625 441.097656 89.96875 441.097656 102.390625 C 441.097656 115.171875 441.007812 127.859375 440.828125 140.640625 L 441.457031 141 L 457.117188 141 M 456.488281 113.640625 C 463.328125 113.460938 467.285156 113.460938 469.898438 114.988281 C 472.507812 116.609375 473.496094 119.488281 473.496094 122.371094 C 473.496094 126.421875 471.246094 128.941406 467.917969 130.109375 C 465.214844 131.011719 460.355469 131.011719 456.488281 130.921875 L 456.488281 113.640625 M 456.488281 87.179688 C 458.375 87.179688 460.898438 87.089844 462.425781 87.089844 C 467.285156 87.089844 471.695312 88.800781 471.695312 94.648438 C 471.695312 99.421875 468.1875 101.398438 467.105469 101.941406 C 464.855469 102.929688 460.085938 102.929688 456.488281 102.929688 Z M 538.566406 114.179688 C 538.65625 106.078125 538.65625 102.570312 536.316406 98.789062 C 534.515625 95.910156 530.917969 92.308594 519.398438 92.308594 C 511.65625 92.308594 506.886719 93.75 501.757812 95.28125 L 501.21875 96 L 500.765625 105.808594 L 501.488281 106.171875 C 504.636719 104.910156 510.488281 102.570312 516.515625 102.570312 C 519.847656 102.570312 521.195312 103.109375 522.367188 104.28125 C 523.265625 105.179688 523.539062 106.800781 523.539062 108.148438 C 512.738281 109.589844 507.695312 110.578125 502.296875 113.910156 C 497.257812 117.058594 495.546875 122.191406 495.546875 126.238281 C 495.546875 135.871094 502.476562 142.078125 511.296875 142.078125 C 518.046875 142.078125 521.917969 138.839844 523.808594 137.308594 L 523.808594 140.640625 L 524.347656 141.269531 C 530.828125 141 532.808594 140.910156 538.65625 141 L 539.105469 140.371094 C 538.476562 131.550781 538.476562 129.300781 538.476562 120.839844 L 538.566406 114.179688 M 523.71875 128.488281 C 521.828125 129.570312 519.398438 130.828125 516.425781 130.828125 C 513.1875 130.828125 510.488281 129.121094 510.488281 125.339844 C 510.488281 119.398438 517.597656 118.410156 523.71875 117.601562 Z M 589.324219 93.03125 L 576.816406 93.300781 L 576.09375 93.929688 C 574.566406 100.140625 574.207031 101.488281 572.046875 108.511719 L 569.707031 116.25 L 567.726562 123 L 566.015625 116.609375 L 563.40625 107.070312 L 559.804688 93.390625 L 559.085938 92.851562 C 552.066406 93.390625 550.535156 93.480469 543.15625 93.660156 L 542.707031 94.289062 C 545.945312 102.839844 554.316406 125.429688 559.894531 142.710938 C 556.207031 152.070312 555.484375 153.691406 551.433594 162.601562 L 551.886719 163.320312 C 554.136719 163.230469 556.65625 163.140625 558.996094 163.140625 C 561.246094 163.140625 563.585938 163.230469 565.835938 163.230469 L 566.464844 162.691406 C 571.414062 143.25 573.84375 135.691406 585.726562 104.371094 C 587.074219 100.769531 588.425781 97.261719 589.683594 93.75 Z M 646.386719 102.300781 C 638.828125 99.148438 634.867188 97.53125 634.867188 93.480469 C 634.867188 90.691406 637.476562 87.179688 643.417969 87.179688 C 650.257812 87.179688 654.304688 89.96875 657.636719 92.21875 L 658.445312 91.859375 L 659.167969 80.070312 L 658.714844 79.441406 C 654.847656 77.820312 650.796875 76.109375 642.066406 76.109375 C 625.148438 76.109375 619.296875 85.648438 619.296875 95.28125 C 619.296875 106.171875 627.757812 110.128906 632.796875 112.558594 L 635.765625 113.910156 C 641.976562 116.519531 646.746094 118.769531 646.746094 123.539062 C 646.746094 126.960938 643.777344 131.011719 635.945312 131.011719 C 627.757812 131.011719 623.167969 127.410156 620.554688 125.339844 L 619.65625 125.609375 L 619.027344 138.300781 L 619.566406 139.019531 C 620.554688 139.378906 621.546875 139.828125 622.535156 140.101562 C 624.605469 140.820312 629.917969 142.351562 636.667969 142.351562 C 639.367188 142.351562 646.207031 142.078125 651.605469 139.558594 C 659.167969 135.871094 662.40625 129.03125 662.40625 121.378906 C 662.40625 116.25 660.425781 110.761719 655.65625 107.070312 C 653.226562 105.269531 650.886719 104.191406 648.726562 103.199219 Z M 696.15625 130.648438 C 694.625 131.101562 693.542969 131.460938 692.015625 131.460938 C 687.425781 131.460938 687.066406 128.578125 686.882812 127.230469 C 686.613281 124.890625 686.613281 119.941406 686.703125 116.339844 L 686.882812 103.648438 L 694.984375 104.011719 L 695.523438 103.46875 L 696.425781 93.839844 L 695.882812 93.300781 L 686.882812 93.300781 L 687.15625 78.179688 L 686.523438 77.640625 C 680.40625 79.441406 678.785156 79.890625 672.394531 81.511719 L 672.035156 82.140625 L 672.125 93.390625 L 667.265625 93.210938 L 666.726562 93.660156 L 665.914062 103.289062 L 666.453125 103.828125 L 672.125 103.648438 L 671.855469 117.960938 C 671.765625 120.210938 671.675781 122.460938 671.675781 124.800781 C 671.675781 133.078125 671.855469 141.988281 685.894531 141.988281 C 689.40625 141.988281 692.195312 141.449219 695.34375 140.910156 L 695.976562 140.28125 L 696.875 131.011719 Z M 742.863281 114.179688 C 742.953125 106.078125 742.953125 102.570312 740.613281 98.789062 C 738.8125 95.910156 735.214844 92.308594 723.695312 92.308594 C 715.953125 92.308594 711.183594 93.75 706.054688 95.28125 L 705.515625 96 L 705.0625 105.808594 L 705.785156 106.171875 C 708.933594 104.910156 714.785156 102.570312 720.8125 102.570312 C 724.144531 102.570312 725.492188 103.109375 726.664062 104.28125 C 727.5625 105.179688 727.835938 106.800781 727.835938 108.148438 C 717.035156 109.589844 711.992188 110.578125 706.59375 113.910156 C 701.554688 117.058594 699.84375 122.191406 699.84375 126.238281 C 699.84375 135.871094 706.773438 142.078125 715.59375 142.078125 C 722.34375 142.078125 726.214844 138.839844 728.105469 137.308594 L 728.105469 140.640625 L 728.644531 141.269531 C 735.125 141 737.105469 140.910156 742.953125 141 L 743.402344 140.371094 C 742.773438 131.550781 742.773438 129.300781 742.773438 120.839844 L 742.863281 114.179688 M 728.015625 128.488281 C 726.125 129.570312 723.695312 130.828125 720.722656 130.828125 C 717.484375 130.828125 714.785156 129.121094 714.785156 125.339844 C 714.785156 119.398438 721.894531 118.410156 728.015625 117.601562 Z M 778.597656 130.648438 C 777.066406 131.101562 775.984375 131.460938 774.457031 131.460938 C 769.867188 131.460938 769.507812 128.578125 769.324219 127.230469 C 769.054688 124.890625 769.054688 119.941406 769.144531 116.339844 L 769.324219 103.648438 L 777.425781 104.011719 L 777.964844 103.46875 L 778.867188 93.839844 L 778.324219 93.300781 L 769.324219 93.300781 L 769.597656 78.179688 L 768.964844 77.640625 C 762.847656 79.441406 761.226562 79.890625 754.835938 81.511719 L 754.476562 82.140625 L 754.566406 93.390625 L 749.707031 93.210938 L 749.167969 93.660156 L 748.355469 103.289062 L 748.894531 103.828125 L 754.566406 103.648438 L 754.296875 117.960938 C 754.207031 120.210938 754.117188 122.460938 754.117188 124.800781 C 754.117188 133.078125 754.296875 141.988281 768.335938 141.988281 C 771.847656 141.988281 774.636719 141.449219 777.785156 140.910156 L 778.417969 140.28125 L 779.316406 131.011719 Z M 825.214844 127.679688 C 821.796875 129.480469 817.746094 131.550781 811.175781 131.550781 C 805.777344 131.550781 802.085938 129.839844 799.925781 126.601562 C 798.574219 124.710938 798.304688 122.910156 797.945312 121.109375 L 827.015625 120.570312 L 827.554688 119.941406 C 827.464844 115.53125 827.375 111.03125 826.117188 106.53125 C 822.964844 95.910156 816.035156 93.75 812.976562 93.03125 C 810.726562 92.398438 808.65625 92.21875 806.585938 92.21875 C 792.457031 92.21875 783.09375 101.488281 783.09375 117.058594 C 783.09375 121.289062 783.816406 125.699219 785.253906 128.851562 C 790.476562 141 802.714844 142.078125 809.195312 142.078125 C 816.664062 142.078125 819.90625 140.730469 824.675781 138.839844 L 825.214844 138.121094 L 825.84375 127.949219 L 825.214844 127.679688 M 797.945312 111.570312 C 798.214844 108.78125 798.84375 105 802.265625 102.839844 C 803.34375 102.121094 804.605469 101.851562 805.867188 101.851562 C 808.835938 101.851562 810.636719 103.378906 811.625 105 C 812.886719 106.980469 812.976562 109.140625 812.976562 111.210938 Z M 830.433594 141 "/>
<path fill-rule="nonzero" fill="rgb(34.901961%, 14.901961%, 14.901961%)" fill-opacity="1" d="M 411.53125 197.28125 L 400.101562 197.460938 L 399.558594 198 C 399.921875 209.699219 400.191406 217.53125 400.191406 227.878906 C 400.191406 238.859375 399.921875 249.75 399.648438 260.730469 L 400.191406 261.269531 C 406.851562 261 408.289062 260.910156 415.492188 261 L 415.941406 260.460938 C 415.582031 250.648438 415.582031 248.398438 415.582031 239.21875 C 425.660156 239.308594 436.460938 239.308594 442.941406 231.390625 C 445.460938 228.328125 447.621094 223.199219 447.621094 216.898438 C 447.621094 213.03125 446.71875 204.480469 439.25 200.25 C 433.851562 197.101562 426.199219 197.101562 419.449219 197.101562 L 411.53125 197.28125 M 415.582031 208.171875 C 417.558594 208.078125 419.449219 208.078125 421.429688 208.078125 C 429.351562 208.261719 431.511719 212.308594 431.511719 217.53125 C 431.511719 218.789062 431.511719 224.011719 426.742188 226.621094 C 424.308594 227.96875 420.980469 228.148438 415.582031 228.148438 Z M 493.878906 234.179688 C 493.96875 226.078125 493.96875 222.570312 491.628906 218.789062 C 489.828125 215.910156 486.230469 212.308594 474.710938 212.308594 C 466.96875 212.308594 462.199219 213.75 457.070312 215.28125 L 456.53125 216 L 456.078125 225.808594 L 456.800781 226.171875 C 459.949219 224.910156 465.800781 222.570312 471.828125 222.570312 C 475.160156 222.570312 476.507812 223.109375 477.679688 224.28125 C 478.578125 225.179688 478.851562 226.800781 478.851562 228.148438 C 468.050781 229.589844 463.007812 230.578125 457.609375 233.910156 C 452.570312 237.058594 450.859375 242.191406 450.859375 246.238281 C 450.859375 255.871094 457.789062 262.078125 466.609375 262.078125 C 473.359375 262.078125 477.230469 258.839844 479.121094 257.308594 L 479.121094 260.640625 L 479.660156 261.269531 C 486.140625 261 488.121094 260.910156 493.96875 261 L 494.417969 260.371094 C 493.789062 251.550781 493.789062 249.300781 493.789062 240.839844 L 493.878906 234.179688 M 479.03125 248.488281 C 477.140625 249.570312 474.710938 250.828125 471.738281 250.828125 C 468.5 250.828125 465.800781 249.121094 465.800781 245.339844 C 465.800781 239.398438 472.910156 238.410156 479.03125 237.601562 Z M 530.421875 227.609375 L 532.941406 212.941406 L 532.402344 212.308594 C 531.773438 212.308594 531.140625 212.21875 530.511719 212.21875 C 526.820312 212.21875 522.683594 214.289062 519.800781 220.949219 L 520.070312 212.671875 L 519.351562 211.949219 C 512.691406 213.390625 510.980469 213.660156 504.410156 214.648438 L 503.871094 215.191406 C 504.410156 221.941406 504.683594 225.988281 504.683594 238.5 C 504.683594 245.878906 504.589844 253.261719 504.410156 260.730469 L 504.953125 261.269531 C 511.613281 261 513.050781 260.910156 520.25 261 L 520.703125 260.371094 C 520.339844 253.078125 519.800781 242.910156 519.800781 236.699219 C 519.800781 232.648438 519.800781 226.710938 525.921875 226.710938 C 527.453125 226.710938 528.351562 227.25 529.613281 227.96875 Z M 584.421875 259.828125 C 575.960938 245.519531 575.0625 243.898438 568.222656 231.570312 C 574.433594 223.109375 575.0625 222.210938 581.453125 214.019531 L 581 213.121094 L 566.332031 213.300781 L 565.433594 213.929688 C 558.410156 226.078125 557.511719 227.519531 553.371094 233.730469 L 553.371094 223.738281 C 553.460938 206.910156 553.550781 203.308594 554 189.71875 L 553.28125 189.179688 L 537.621094 191.519531 L 537.082031 192.148438 C 537.710938 200.878906 537.980469 205.109375 538.160156 216.898438 C 538.339844 231.480469 538.339844 246.058594 538.25 260.640625 L 538.882812 261.269531 C 544.910156 261 546.621094 261 553.460938 261 L 554 260.371094 L 553.460938 245.160156 L 553.371094 234.808594 C 561.203125 249.210938 562.191406 251.191406 566.78125 260.730469 L 567.589844 261.269531 L 583.792969 260.640625 Z M 583.339844 261 "/>
</svg>
