<?xml version="1.0" encoding="UTF-8"?>
<svg xmlns="http://www.w3.org/2000/svg" xmlns:xlink="http://www.w3.org/1999/xlink" width="975" height="1300" viewBox="0 0 975 1300">
<path fill-rule="nonzero" fill="rgb(98.823529%, 78.823529%, 9.019608%)" fill-opacity="1" d="M 50 50 L 925 50 L 925 170 L 50 170 Z M 50 50 "/>
<path fill-rule="nonzero" fill="rgb(34.901961%, 14.901961%, 14.901961%)" fill-opacity="1" d="M 108.09375 124.890625 C 106.023438 126.511719 101.433594 129.929688 93.964844 129.929688 C 83.703125 129.929688 76.503906 122.28125 76.503906 109.5 C 76.503906 101.761719 79.203125 88.171875 93.875 88.171875 C 100.625 88.171875 104.3125 90.78125 106.5625 92.488281 L 107.375 92.308594 L 108.183594 79.890625 L 107.824219 79.441406 C 104.585938 78.179688 99.09375 76.109375 91.175781 76.109375 C 67.863281 76.109375 59.765625 94.109375 59.765625 109.859375 C 59.765625 127.140625 70.292969 142.351562 92.253906 142.351562 C 99.8125 142.351562 104.765625 140.371094 107.644531 139.199219 L 108.09375 138.660156 L 108.722656 125.25 Z M 155.792969 114.179688 C 155.882812 106.078125 155.882812 102.570312 153.542969 98.789062 C 151.742188 95.910156 148.144531 92.308594 136.625 92.308594 C 128.882812 92.308594 124.113281 93.75 118.984375 95.28125 L 118.445312 96 L 117.992188 105.808594 L 118.714844 106.171875 C 121.863281 104.910156 127.714844 102.570312 133.742188 102.570312 C 137.074219 102.570312 138.421875 103.109375 139.59375 104.28125 C 140.492188 105.179688 140.765625 106.800781 140.765625 108.148438 C 129.964844 109.589844 124.921875 110.578125 119.523438 113.910156 C 114.484375 117.058594 112.773438 122.191406 112.773438 126.238281 C 112.773438 135.871094 119.703125 142.078125 128.523438 142.078125 C 135.273438 142.078125 139.144531 138.839844 141.035156 137.308594 L 141.035156 140.640625 L 141.574219 141.269531 C 148.054688 141 150.035156 140.910156 155.882812 141 L 156.332031 140.371094 C 155.703125 131.550781 155.703125 129.300781 155.703125 120.839844 L 155.792969 114.179688 M 140.945312 128.488281 C 139.054688 129.570312 136.625 130.828125 133.652344 130.828125 C 130.414062 130.828125 127.714844 129.121094 127.714844 125.339844 C 127.714844 119.398438 134.824219 118.410156 140.945312 117.601562 Z M 206.554688 93.03125 L 194.046875 93.300781 L 193.324219 93.929688 C 191.796875 100.140625 191.4375 101.488281 189.277344 108.511719 L 186.9375 116.25 L 184.957031 123 L 183.246094 116.609375 L 180.636719 107.070312 L 177.035156 93.390625 L 176.316406 92.851562 C 169.296875 93.390625 167.765625 93.480469 160.386719 93.660156 L 159.9375 94.289062 C 163.175781 102.839844 171.546875 125.429688 177.125 142.710938 C 173.4375 152.070312 172.714844 153.691406 168.664062 162.601562 L 169.117188 163.320312 C 171.367188 163.230469 173.886719 163.140625 176.226562 163.140625 C 178.476562 163.140625 180.816406 163.230469 183.066406 163.230469 L 183.695312 162.691406 C 188.644531 143.25 191.074219 135.691406 202.957031 104.371094 C 204.304688 100.769531 205.65625 97.261719 206.914062 93.75 Z M 254.527344 92.851562 L 239.855469 93.570312 L 239.226562 94.109375 C 239.855469 104.28125 239.855469 118.679688 239.855469 120.121094 C 239.855469 122.730469 239.855469 124.171875 239.765625 127.769531 C 237.335938 129.390625 235.445312 130.738281 233.015625 130.738281 C 226.535156 130.738281 226.535156 123.898438 226.535156 118.589844 C 226.535156 116.339844 226.535156 114 226.625 111.75 L 226.804688 93.570312 L 226.175781 92.851562 L 211.324219 93.570312 L 210.695312 94.109375 C 211.234375 101.671875 211.324219 104.191406 211.324219 113.28125 L 211.324219 119.578125 C 211.234375 129.390625 211.6875 133.53125 214.925781 137.308594 C 217.894531 140.640625 222.214844 142.078125 226.714844 142.078125 C 233.105469 142.078125 236.796875 139.199219 240.035156 136.679688 L 239.945312 140.730469 L 240.574219 141.269531 C 247.144531 141 249.125 141 254.976562 141 L 255.515625 140.460938 C 255.066406 134.070312 254.886719 130.648438 254.886719 118.949219 C 254.886719 110.488281 254.976562 102.03125 255.15625 93.570312 Z M 300.875 128.039062 C 298.445312 129.480469 296.105469 130.921875 291.515625 130.921875 C 281.34375 130.921875 279.273438 122.460938 279.273438 117.058594 C 279.273438 110.488281 282.15625 102.929688 290.886719 102.929688 C 294.84375 102.929688 297.003906 104.371094 299.707031 106.171875 L 300.605469 105.898438 C 300.964844 101.128906 301.054688 99.871094 301.773438 95.101562 L 301.324219 94.558594 C 297.363281 93.300781 293.945312 92.21875 288.726562 92.21875 C 267.574219 92.21875 263.433594 108.238281 263.433594 117.421875 C 263.433594 127.769531 268.835938 141.808594 289.085938 141.808594 C 293.855469 141.808594 296.914062 140.910156 300.695312 139.828125 L 301.234375 139.289062 L 301.59375 128.488281 Z M 354.605469 117.058594 C 354.605469 113.550781 354.605469 98.96875 342.003906 94.019531 C 338.042969 92.488281 333.363281 92.308594 331.023438 92.308594 C 315.363281 92.308594 306.542969 100.679688 306.542969 117.238281 C 306.542969 123 307.445312 128.851562 310.773438 133.710938 C 313.113281 137.21875 317.523438 142.078125 330.394531 142.078125 C 349.472656 142.078125 354.605469 130.558594 354.605469 117.058594 M 339.035156 116.96875 C 339.035156 124.351562 338.042969 132.539062 330.574219 132.539062 C 328.234375 132.539062 326.613281 131.460938 325.535156 130.46875 C 324.003906 128.941406 322.292969 125.878906 322.292969 117.148438 C 322.292969 114.539062 322.292969 108.78125 324.09375 105.628906 C 325.445312 103.199219 327.785156 101.578125 330.664062 101.578125 C 333.183594 101.578125 335.253906 102.929688 336.425781 104.371094 C 338.585938 106.980469 339.035156 112.109375 339.035156 116.96875 Z M 382.054688 109.949219 C 378.992188 108.871094 376.5625 107.878906 376.5625 105.359375 C 376.5625 104.28125 377.285156 101.308594 382.863281 101.308594 C 388.355469 101.308594 391.863281 103.648438 394.113281 105.089844 L 394.925781 104.820312 L 395.824219 95.011719 L 395.375 94.46875 C 391.144531 93.300781 387.453125 92.21875 381.605469 92.21875 C 377.195312 92.21875 368.375 92.578125 363.695312 99.328125 C 362.523438 100.949219 361.265625 103.648438 361.265625 107.25 C 361.265625 116.878906 368.734375 119.761719 372.964844 121.378906 L 376.382812 122.640625 C 378.8125 123.449219 382.773438 124.800781 382.773438 128.039062 C 382.773438 130.289062 380.703125 132.71875 375.664062 132.71875 C 373.144531 132.71875 369.453125 131.910156 366.125 130.199219 C 364.59375 129.390625 363.875 128.761719 362.523438 127.679688 L 361.714844 128.039062 C 361.535156 132.71875 361.445312 133.710938 361.082031 138.210938 L 361.535156 139.019531 C 365.945312 140.640625 369.722656 142.078125 376.292969 142.078125 C 383.132812 142.078125 396.632812 140.820312 398.253906 127.949219 C 398.34375 127.230469 398.34375 126.601562 398.34375 125.96875 C 398.34375 116.070312 391.414062 113.460938 386.464844 111.570312 Z M 458.554688 102.300781 C 450.996094 99.148438 447.035156 97.53125 447.035156 93.480469 C 447.035156 90.691406 449.644531 87.179688 455.585938 87.179688 C 462.425781 87.179688 466.472656 89.96875 469.804688 92.21875 L 470.613281 91.859375 L 471.335938 80.070312 L 470.882812 79.441406 C 467.015625 77.820312 462.964844 76.109375 454.234375 76.109375 C 437.316406 76.109375 431.464844 85.648438 431.464844 95.28125 C 431.464844 106.171875 439.925781 110.128906 444.964844 112.558594 L 447.933594 113.910156 C 454.144531 116.519531 458.914062 118.769531 458.914062 123.539062 C 458.914062 126.960938 455.945312 131.011719 448.113281 131.011719 C 439.925781 131.011719 435.335938 127.410156 432.722656 125.339844 L 431.824219 125.609375 L 431.195312 138.300781 L 431.734375 139.019531 C 432.722656 139.378906 433.714844 139.828125 434.703125 140.101562 C 436.773438 140.820312 442.085938 142.351562 448.835938 142.351562 C 451.535156 142.351562 458.375 142.078125 463.773438 139.558594 C 471.335938 135.871094 474.574219 129.03125 474.574219 121.378906 C 474.574219 116.25 472.59375 110.761719 467.824219 107.070312 C 465.394531 105.269531 463.054688 104.191406 460.894531 103.199219 Z M 508.324219 130.648438 C 506.792969 131.101562 505.710938 131.460938 504.183594 131.460938 C 499.59375 131.460938 499.234375 128.578125 499.050781 127.230469 C 498.78125 124.890625 498.78125 119.941406 498.871094 116.339844 L 499.050781 103.648438 L 507.152344 104.011719 L 507.691406 103.46875 L 508.59375 93.839844 L 508.050781 93.300781 L 499.050781 93.300781 L 499.324219 78.179688 L 498.691406 77.640625 C 492.574219 79.441406 490.953125 79.890625 484.5625 81.511719 L 484.203125 82.140625 L 484.292969 93.390625 L 479.433594 93.210938 L 478.894531 93.660156 L 478.082031 103.289062 L 478.621094 103.828125 L 484.292969 103.648438 L 484.023438 117.960938 C 483.933594 120.210938 483.84375 122.460938 483.84375 124.800781 C 483.84375 133.078125 484.023438 141.988281 498.0625 141.988281 C 501.574219 141.988281 504.363281 141.449219 507.511719 140.910156 L 508.144531 140.28125 L 509.042969 131.011719 Z M 555.035156 114.179688 C 555.125 106.078125 555.125 102.570312 552.785156 98.789062 C 550.984375 95.910156 547.386719 92.308594 535.867188 92.308594 C 528.125 92.308594 523.355469 93.75 518.226562 95.28125 L 517.6875 96 L 517.234375 105.808594 L 517.957031 106.171875 C 521.105469 104.910156 526.957031 102.570312 532.984375 102.570312 C 536.316406 102.570312 537.664062 103.109375 538.835938 104.28125 C 539.734375 105.179688 540.007812 106.800781 540.007812 108.148438 C 529.207031 109.589844 524.164062 110.578125 518.765625 113.910156 C 513.726562 117.058594 512.015625 122.191406 512.015625 126.238281 C 512.015625 135.871094 518.945312 142.078125 527.765625 142.078125 C 534.515625 142.078125 538.386719 138.839844 540.277344 137.308594 L 540.277344 140.640625 L 540.816406 141.269531 C 547.296875 141 549.277344 140.910156 555.125 141 L 555.574219 140.371094 C 554.945312 131.550781 554.945312 129.300781 554.945312 120.839844 L 555.035156 114.179688 M 540.1875 128.488281 C 538.296875 129.570312 535.867188 130.828125 532.894531 130.828125 C 529.65625 130.828125 526.957031 129.121094 526.957031 125.339844 C 526.957031 119.398438 534.066406 118.410156 540.1875 117.601562 Z M 590.765625 130.648438 C 589.234375 131.101562 588.152344 131.460938 586.625 131.460938 C 582.035156 131.460938 581.675781 128.578125 581.492188 127.230469 C 581.222656 124.890625 581.222656 119.941406 581.3125 116.339844 L 581.492188 103.648438 L 589.59375 104.011719 L 590.132812 103.46875 L 591.035156 93.839844 L 590.492188 93.300781 L 581.492188 93.300781 L 581.765625 78.179688 L 581.132812 77.640625 C 575.015625 79.441406 573.394531 79.890625 567.003906 81.511719 L 566.644531 82.140625 L 566.734375 93.390625 L 561.875 93.210938 L 561.335938 93.660156 L 560.523438 103.289062 L 561.0625 103.828125 L 566.734375 103.648438 L 566.464844 117.960938 C 566.375 120.210938 566.285156 122.460938 566.285156 124.800781 C 566.285156 133.078125 566.464844 141.988281 580.503906 141.988281 C 584.015625 141.988281 586.804688 141.449219 589.953125 140.910156 L 590.585938 140.28125 L 591.484375 131.011719 Z M 637.382812 127.679688 C 633.964844 129.480469 629.914062 131.550781 623.34375 131.550781 C 617.945312 131.550781 614.253906 129.839844 612.09375 126.601562 C 610.742188 124.710938 610.472656 122.910156 610.113281 121.109375 L 639.183594 120.570312 L 639.722656 119.941406 C 639.632812 115.53125 639.542969 111.03125 638.285156 106.53125 C 635.132812 95.910156 628.203125 93.75 625.144531 93.03125 C 622.894531 92.398438 620.824219 92.21875 618.753906 92.21875 C 604.625 92.21875 595.261719 101.488281 595.261719 117.058594 C 595.261719 121.289062 595.984375 125.699219 597.421875 128.851562 C 602.644531 141 614.882812 142.078125 621.363281 142.078125 C 628.832031 142.078125 632.074219 140.730469 636.84375 138.839844 L 637.382812 138.121094 L 638.011719 127.949219 L 637.382812 127.679688 M 610.113281 111.570312 C 610.382812 108.78125 611.011719 105 614.433594 102.839844 C 615.511719 102.121094 616.773438 101.851562 618.035156 101.851562 C 621.003906 101.851562 622.804688 103.378906 623.792969 105 C 625.054688 106.980469 625.144531 109.140625 625.144531 111.210938 Z M 691.023438 141 C 699.394531 141.179688 709.742188 141.359375 716.492188 136.679688 C 722.433594 132.449219 724.054688 126.511719 724.054688 121.46875 C 724.054688 115.710938 721.621094 110.398438 716.492188 107.878906 C 714.78125 106.980469 712.804688 106.621094 710.914062 106.261719 C 713.972656 105 717.574219 103.378906 719.914062 98.609375 C 720.902344 96.539062 721.351562 94.378906 721.351562 92.308594 C 721.351562 89.429688 720.632812 85.46875 717.753906 82.230469 C 713.972656 78.179688 708.121094 77.101562 699.304688 77.101562 C 696.242188 77.101562 690.753906 77.191406 687.691406 77.28125 L 675.09375 77.460938 L 674.554688 78 C 674.914062 86.640625 675.003906 89.96875 675.003906 102.390625 C 675.003906 115.171875 674.914062 127.859375 674.734375 140.640625 L 675.363281 141 L 691.023438 141 M 690.394531 113.640625 C 697.234375 113.460938 701.191406 113.460938 703.804688 114.988281 C 706.414062 116.609375 707.402344 119.488281 707.402344 122.371094 C 707.402344 126.421875 705.152344 128.941406 701.824219 130.109375 C 699.121094 131.011719 694.261719 131.011719 690.394531 130.921875 L 690.394531 113.640625 M 690.394531 87.179688 C 692.28125 87.179688 694.804688 87.089844 696.332031 87.089844 C 701.191406 87.089844 705.601562 88.800781 705.601562 94.648438 C 705.601562 99.421875 702.09375 101.398438 701.011719 101.941406 C 698.761719 102.929688 693.992188 102.929688 690.394531 102.929688 Z M 772.382812 127.679688 C 768.964844 129.480469 764.914062 131.550781 758.34375 131.550781 C 752.945312 131.550781 749.253906 129.839844 747.09375 126.601562 C 745.742188 124.710938 745.472656 122.910156 745.113281 121.109375 L 774.183594 120.570312 L 774.722656 119.941406 C 774.632812 115.53125 774.542969 111.03125 773.285156 106.53125 C 770.132812 95.910156 763.203125 93.75 760.144531 93.03125 C 757.894531 92.398438 755.824219 92.21875 753.753906 92.21875 C 739.625 92.21875 730.261719 101.488281 730.261719 117.058594 C 730.261719 121.289062 730.984375 125.699219 732.421875 128.851562 C 737.644531 141 749.882812 142.078125 756.363281 142.078125 C 763.832031 142.078125 767.074219 140.730469 771.84375 138.839844 L 772.382812 138.121094 L 773.011719 127.949219 L 772.382812 127.679688 M 745.113281 111.570312 C 745.382812 108.78125 746.011719 105 749.433594 102.839844 C 750.511719 102.121094 751.773438 101.851562 753.035156 101.851562 C 756.003906 101.851562 757.804688 103.378906 758.792969 105 C 760.054688 106.980469 760.144531 109.140625 760.144531 111.210938 Z M 823.054688 114.179688 C 823.144531 106.078125 823.144531 102.570312 820.804688 98.789062 C 819.003906 95.910156 815.40625 92.308594 803.886719 92.308594 C 796.144531 92.308594 791.375 93.75 786.246094 95.28125 L 785.707031 96 L 785.253906 105.808594 L 785.976562 106.171875 C 789.125 104.910156 794.976562 102.570312 801.003906 102.570312 C 804.335938 102.570312 805.683594 103.109375 806.855469 104.28125 C 807.753906 105.179688 808.027344 106.800781 808.027344 108.148438 C 797.226562 109.589844 792.183594 110.578125 786.785156 113.910156 C 781.746094 117.058594 780.035156 122.191406 780.035156 126.238281 C 780.035156 135.871094 786.964844 142.078125 795.785156 142.078125 C 802.535156 142.078125 806.40625 138.839844 808.296875 137.308594 L 808.296875 140.640625 L 808.835938 141.269531 C 815.316406 141 817.296875 140.910156 823.144531 141 L 823.59375 140.371094 C 822.964844 131.550781 822.964844 129.300781 822.964844 120.839844 L 823.054688 114.179688 M 808.207031 128.488281 C 806.316406 129.570312 803.886719 130.828125 800.914062 130.828125 C 797.675781 130.828125 794.976562 129.121094 794.976562 125.339844 C 794.976562 119.398438 802.085938 118.410156 808.207031 117.601562 Z M 868.773438 128.039062 C 866.34375 129.480469 864.003906 130.921875 859.414062 130.921875 C 849.242188 130.921875 847.171875 122.460938 847.171875 117.058594 C 847.171875 110.488281 850.054688 102.929688 858.785156 102.929688 C 862.742188 102.929688 864.902344 104.371094 867.605469 106.171875 L 868.503906 105.898438 C 868.863281 101.128906 868.953125 99.871094 869.671875 95.101562 L 869.222656 94.558594 C 865.261719 93.300781 861.84375 92.21875 856.625 92.21875 C 835.472656 92.21875 831.332031 108.238281 831.332031 117.421875 C 831.332031 127.769531 836.734375 141.808594 856.984375 141.808594 C 861.753906 141.808594 864.8125 140.910156 868.59375 139.828125 L 869.132812 139.289062 L 869.492188 128.488281 Z M 920.792969 140.371094 C 920.433594 132.988281 920.34375 130.46875 920.164062 121.109375 L 920.164062 114.359375 C 920.074219 105.808594 919.984375 100.859375 917.371094 97.078125 C 914.761719 93.390625 910.984375 92.21875 907.023438 92.21875 C 900.453125 92.21875 895.324219 95.371094 891.722656 97.53125 L 891.992188 69.808594 L 891.453125 69.179688 L 876.0625 71.609375 L 875.613281 72.148438 C 876.421875 80.878906 876.601562 84.121094 876.78125 95.730469 C 876.964844 103.019531 877.054688 110.308594 877.054688 117.601562 C 877.054688 126.511719 876.871094 131.820312 876.691406 140.640625 L 877.144531 141.269531 C 883.804688 140.910156 885.152344 140.910156 892.441406 140.910156 L 892.984375 140.371094 C 892.351562 126.871094 892.261719 122.820312 892.171875 106.890625 C 893.882812 105.71875 896.042969 104.191406 899.101562 104.191406 C 904.054688 104.191406 904.414062 109.320312 904.773438 112.921875 C 904.953125 115.710938 905.042969 128.488281 905.042969 131.820312 C 905.042969 134.789062 904.953125 137.671875 904.953125 140.640625 L 905.402344 141.269531 C 911.882812 140.910156 913.324219 140.910156 920.253906 140.910156 Z M 925.65625 141 "/>
</svg>
