<?xml version="1.0" encoding="UTF-8"?>
<svg xmlns="http://www.w3.org/2000/svg" xmlns:xlink="http://www.w3.org/1999/xlink" width="975" height="1300" viewBox="0 0 975 1300">
<path fill-rule="nonzero" fill="rgb(98.823529%, 78.823529%, 9.019608%)" fill-opacity="1" d="M 50 50 L 925 50 L 925 290 L 50 290 Z M 50 50 "/>
<path fill-rule="nonzero" fill="rgb(34.901961%, 14.901961%, 14.901961%)" fill-opacity="1" d="M 105.53125 128.671875 C 95.71875 129.210938 87.890625 129.390625 85.191406 129.390625 L 83.390625 129.390625 C 83.210938 105.359375 83.300781 99.238281 84.019531 77.730469 L 83.480469 77.191406 C 75.738281 77.550781 73.667969 77.550781 67.460938 77.460938 L 66.917969 78 C 67.28125 85.199219 67.371094 87.359375 67.371094 98.070312 C 67.371094 112.289062 67.28125 126.511719 67.28125 140.730469 L 67.730469 141.269531 C 85.371094 141 88.609375 141 104.808594 141 L 105.257812 140.460938 L 105.980469 129.121094 Z M 159.53125 117.058594 C 159.53125 113.550781 159.53125 98.96875 146.929688 94.019531 C 142.96875 92.488281 138.289062 92.308594 135.949219 92.308594 C 120.289062 92.308594 111.46875 100.679688 111.46875 117.238281 C 111.46875 123 112.371094 128.851562 115.699219 133.710938 C 118.039062 137.21875 122.449219 142.078125 135.320312 142.078125 C 154.398438 142.078125 159.53125 130.558594 159.53125 117.058594 M 143.960938 116.96875 C 143.960938 124.351562 142.96875 132.539062 135.5 132.539062 C 133.160156 132.539062 131.539062 131.460938 130.460938 130.46875 C 128.929688 128.941406 127.21875 125.878906 127.21875 117.148438 C 127.21875 114.539062 127.21875 108.78125 129.019531 105.628906 C 130.371094 103.199219 132.710938 101.578125 135.589844 101.578125 C 138.109375 101.578125 140.179688 102.929688 141.351562 104.371094 C 143.511719 106.980469 143.960938 112.109375 143.960938 116.96875 Z M 186.980469 109.949219 C 183.917969 108.871094 181.488281 107.878906 181.488281 105.359375 C 181.488281 104.28125 182.210938 101.308594 187.789062 101.308594 C 193.28125 101.308594 196.789062 103.648438 199.039062 105.089844 L 199.851562 104.820312 L 200.75 95.011719 L 200.300781 94.46875 C 196.070312 93.300781 192.378906 92.21875 186.53125 92.21875 C 182.121094 92.21875 173.300781 92.578125 168.621094 99.328125 C 167.449219 100.949219 166.191406 103.648438 166.191406 107.25 C 166.191406 116.878906 173.660156 119.761719 177.890625 121.378906 L 181.308594 122.640625 C 183.738281 123.449219 187.699219 124.800781 187.699219 128.039062 C 187.699219 130.289062 185.628906 132.71875 180.589844 132.71875 C 178.070312 132.71875 174.378906 131.910156 171.050781 130.199219 C 169.519531 129.390625 168.800781 128.761719 167.449219 127.679688 L 166.640625 128.039062 C 166.460938 132.71875 166.371094 133.710938 166.007812 138.210938 L 166.460938 139.019531 C 170.871094 140.640625 174.648438 142.078125 181.21875 142.078125 C 188.058594 142.078125 201.558594 140.820312 203.179688 127.949219 C 203.269531 127.230469 203.269531 126.601562 203.269531 125.96875 C 203.269531 116.070312 196.339844 113.460938 191.390625 111.570312 Z M 289.039062 85.738281 C 287.511719 83.761719 285.710938 82.050781 283.640625 80.699219 C 279.050781 77.640625 272.75 76.109375 266.449219 76.109375 C 260.871094 76.109375 255.199219 77.101562 250.339844 79.890625 C 239.359375 86.191406 237.378906 96.628906 236.660156 100.410156 C 236.121094 103.46875 235.851562 106.53125 235.851562 109.589844 C 235.851562 115.710938 236.570312 127.230469 245.03125 135.058594 C 251.871094 141.449219 261.230469 142.351562 265.820312 142.351562 C 272.75 142.351562 279.769531 140.730469 285.082031 136.320312 C 293.992188 128.941406 295.789062 116.699219 295.789062 109.050781 C 295.789062 94.921875 291.289062 88.53125 289.039062 85.738281 M 274.820312 91.5 C 276.621094 93.570312 277.429688 96.179688 277.96875 98.789062 C 278.691406 102.210938 278.871094 105.449219 278.960938 107.699219 C 279.320312 121.199219 276.441406 130.921875 266 130.921875 C 253.492188 130.921875 252.679688 116.339844 252.679688 108.238281 C 252.679688 97.441406 255.289062 91.859375 259.519531 89.160156 C 261.949219 87.71875 264.378906 87.359375 266.089844 87.359375 C 269.511719 87.359375 272.660156 88.890625 274.820312 91.5 Z M 323.871094 109.949219 C 320.808594 108.871094 318.378906 107.878906 318.378906 105.359375 C 318.378906 104.28125 319.101562 101.308594 324.679688 101.308594 C 330.171875 101.308594 333.679688 103.648438 335.929688 105.089844 L 336.742188 104.820312 L 337.640625 95.011719 L 337.191406 94.46875 C 332.960938 93.300781 329.269531 92.21875 323.421875 92.21875 C 319.011719 92.21875 310.191406 92.578125 305.511719 99.328125 C 304.339844 100.949219 303.082031 103.648438 303.082031 107.25 C 303.082031 116.878906 310.550781 119.761719 314.78125 121.378906 L 318.199219 122.640625 C 320.628906 123.449219 324.589844 124.800781 324.589844 128.039062 C 324.589844 130.289062 322.519531 132.71875 317.480469 132.71875 C 314.960938 132.71875 311.269531 131.910156 307.941406 130.199219 C 306.410156 129.390625 305.691406 128.761719 304.339844 127.679688 L 303.53125 128.039062 C 303.351562 132.71875 303.261719 133.710938 302.898438 138.210938 L 303.351562 139.019531 C 307.761719 140.640625 311.539062 142.078125 318.109375 142.078125 C 324.949219 142.078125 338.449219 140.820312 340.070312 127.949219 C 340.160156 127.230469 340.160156 126.601562 340.160156 125.96875 C 340.160156 116.070312 333.230469 113.460938 328.28125 111.570312 Z M 393.890625 117.058594 C 393.890625 113.550781 393.890625 98.96875 381.289062 94.019531 C 377.328125 92.488281 372.648438 92.308594 370.308594 92.308594 C 354.648438 92.308594 345.828125 100.679688 345.828125 117.238281 C 345.828125 123 346.730469 128.851562 350.058594 133.710938 C 352.398438 137.21875 356.808594 142.078125 369.679688 142.078125 C 388.757812 142.078125 393.890625 130.558594 393.890625 117.058594 M 378.320312 116.96875 C 378.320312 124.351562 377.328125 132.539062 369.859375 132.539062 C 367.519531 132.539062 365.898438 131.460938 364.820312 130.46875 C 363.289062 128.941406 361.578125 125.878906 361.578125 117.148438 C 361.578125 114.539062 361.578125 108.78125 363.378906 105.628906 C 364.730469 103.199219 367.070312 101.578125 369.949219 101.578125 C 372.46875 101.578125 374.539062 102.929688 375.710938 104.371094 C 377.871094 106.980469 378.320312 112.109375 378.320312 116.96875 Z M 421.339844 109.949219 C 418.277344 108.871094 415.847656 107.878906 415.847656 105.359375 C 415.847656 104.28125 416.570312 101.308594 422.148438 101.308594 C 427.640625 101.308594 431.148438 103.648438 433.398438 105.089844 L 434.210938 104.820312 L 435.109375 95.011719 L 434.660156 94.46875 C 430.429688 93.300781 426.738281 92.21875 420.890625 92.21875 C 416.480469 92.21875 407.660156 92.578125 402.980469 99.328125 C 401.808594 100.949219 400.550781 103.648438 400.550781 107.25 C 400.550781 116.878906 408.019531 119.761719 412.25 121.378906 L 415.667969 122.640625 C 418.097656 123.449219 422.058594 124.800781 422.058594 128.039062 C 422.058594 130.289062 419.988281 132.71875 414.949219 132.71875 C 412.429688 132.71875 408.738281 131.910156 405.410156 130.199219 C 403.878906 129.390625 403.160156 128.761719 401.808594 127.679688 L 401 128.039062 C 400.820312 132.71875 400.730469 133.710938 400.367188 138.210938 L 400.820312 139.019531 C 405.230469 140.640625 409.007812 142.078125 415.578125 142.078125 C 422.417969 142.078125 435.917969 140.820312 437.539062 127.949219 C 437.628906 127.230469 437.628906 126.601562 437.628906 125.96875 C 437.628906 116.070312 430.699219 113.460938 425.75 111.570312 Z M 523.398438 85.738281 C 521.871094 83.761719 520.070312 82.050781 518 80.699219 C 513.410156 77.640625 507.109375 76.109375 500.808594 76.109375 C 495.230469 76.109375 489.558594 77.101562 484.699219 79.890625 C 473.71875 86.191406 471.738281 96.628906 471.019531 100.410156 C 470.480469 103.46875 470.210938 106.53125 470.210938 109.589844 C 470.210938 115.710938 470.929688 127.230469 479.390625 135.058594 C 486.230469 141.449219 495.589844 142.351562 500.179688 142.351562 C 507.109375 142.351562 514.128906 140.730469 519.441406 136.320312 C 528.351562 128.941406 530.148438 116.699219 530.148438 109.050781 C 530.148438 94.921875 525.648438 88.53125 523.398438 85.738281 M 509.179688 91.5 C 510.980469 93.570312 511.789062 96.179688 512.328125 98.789062 C 513.050781 102.210938 513.230469 105.449219 513.320312 107.699219 C 513.679688 121.199219 510.800781 130.921875 500.359375 130.921875 C 487.851562 130.921875 487.039062 116.339844 487.039062 108.238281 C 487.039062 97.441406 489.648438 91.859375 493.878906 89.160156 C 496.308594 87.71875 498.738281 87.359375 500.449219 87.359375 C 503.871094 87.359375 507.019531 88.890625 509.179688 91.5 Z M 579.378906 114.179688 C 579.46875 106.078125 579.46875 102.570312 577.128906 98.789062 C 575.328125 95.910156 571.730469 92.308594 560.210938 92.308594 C 552.46875 92.308594 547.699219 93.75 542.570312 95.28125 L 542.03125 96 L 541.578125 105.808594 L 542.300781 106.171875 C 545.449219 104.910156 551.300781 102.570312 557.328125 102.570312 C 560.660156 102.570312 562.007812 103.109375 563.179688 104.28125 C 564.078125 105.179688 564.351562 106.800781 564.351562 108.148438 C 553.550781 109.589844 548.507812 110.578125 543.109375 113.910156 C 538.070312 117.058594 536.359375 122.191406 536.359375 126.238281 C 536.359375 135.871094 543.289062 142.078125 552.109375 142.078125 C 558.859375 142.078125 562.730469 138.839844 564.621094 137.308594 L 564.621094 140.640625 L 565.160156 141.269531 C 571.640625 141 573.621094 140.910156 579.46875 141 L 579.917969 140.371094 C 579.289062 131.550781 579.289062 129.300781 579.289062 120.839844 L 579.378906 114.179688 M 564.53125 128.488281 C 562.640625 129.570312 560.210938 130.828125 557.238281 130.828125 C 554 130.828125 551.300781 129.121094 551.300781 125.339844 C 551.300781 119.398438 558.410156 118.410156 564.53125 117.601562 Z M 636.167969 139.828125 C 627.707031 125.519531 626.808594 123.898438 619.96875 111.570312 C 626.179688 103.109375 626.808594 102.210938 633.199219 94.019531 L 632.746094 93.121094 L 618.078125 93.300781 L 617.179688 93.929688 C 610.15625 106.078125 609.257812 107.519531 605.117188 113.730469 L 605.117188 103.738281 C 605.207031 86.910156 605.296875 83.308594 605.746094 69.71875 L 605.027344 69.179688 L 589.367188 71.519531 L 588.828125 72.148438 C 589.457031 80.878906 589.726562 85.109375 589.90625 96.898438 C 590.085938 111.480469 590.085938 126.058594 589.996094 140.640625 L 590.628906 141.269531 C 596.65625 141 598.367188 141 605.207031 141 L 605.746094 140.371094 L 605.207031 125.160156 L 605.117188 114.808594 C 612.949219 129.210938 613.9375 131.191406 618.527344 140.730469 L 619.335938 141.269531 L 635.539062 140.640625 Z M 659.390625 109.949219 C 656.328125 108.871094 653.898438 107.878906 653.898438 105.359375 C 653.898438 104.28125 654.621094 101.308594 660.199219 101.308594 C 665.691406 101.308594 669.199219 103.648438 671.449219 105.089844 L 672.261719 104.820312 L 673.160156 95.011719 L 672.710938 94.46875 C 668.480469 93.300781 664.789062 92.21875 658.941406 92.21875 C 654.53125 92.21875 645.710938 92.578125 641.03125 99.328125 C 639.859375 100.949219 638.601562 103.648438 638.601562 107.25 C 638.601562 116.878906 646.070312 119.761719 650.300781 121.378906 L 653.71875 122.640625 C 656.148438 123.449219 660.109375 124.800781 660.109375 128.039062 C 660.109375 130.289062 658.039062 132.71875 653 132.71875 C 650.480469 132.71875 646.789062 131.910156 643.460938 130.199219 C 641.929688 129.390625 641.210938 128.761719 639.859375 127.679688 L 639.050781 128.039062 C 638.871094 132.71875 638.78125 133.710938 638.417969 138.210938 L 638.871094 139.019531 C 643.28125 140.640625 647.058594 142.078125 653.628906 142.078125 C 660.46875 142.078125 673.96875 140.820312 675.589844 127.949219 C 675.679688 127.230469 675.679688 126.601562 675.679688 125.96875 C 675.679688 116.070312 668.75 113.460938 663.800781 111.570312 Z M 735.890625 102.300781 C 728.332031 99.148438 724.371094 97.53125 724.371094 93.480469 C 724.371094 90.691406 726.980469 87.179688 732.921875 87.179688 C 739.761719 87.179688 743.808594 89.96875 747.140625 92.21875 L 747.949219 91.859375 L 748.671875 80.070312 L 748.21875 79.441406 C 744.351562 77.820312 740.300781 76.109375 731.570312 76.109375 C 714.652344 76.109375 708.800781 85.648438 708.800781 95.28125 C 708.800781 106.171875 717.261719 110.128906 722.300781 112.558594 L 725.269531 113.910156 C 731.480469 116.519531 736.25 118.769531 736.25 123.539062 C 736.25 126.960938 733.28125 131.011719 725.449219 131.011719 C 717.261719 131.011719 712.671875 127.410156 710.058594 125.339844 L 709.160156 125.609375 L 708.53125 138.300781 L 709.070312 139.019531 C 710.058594 139.378906 711.050781 139.828125 712.039062 140.101562 C 714.109375 140.820312 719.421875 142.351562 726.171875 142.351562 C 728.871094 142.351562 735.710938 142.078125 741.109375 139.558594 C 748.671875 135.871094 751.910156 129.03125 751.910156 121.378906 C 751.910156 116.25 749.929688 110.761719 745.160156 107.070312 C 742.730469 105.269531 740.390625 104.191406 738.230469 103.199219 Z M 785.660156 130.648438 C 784.128906 131.101562 783.046875 131.460938 781.519531 131.460938 C 776.929688 131.460938 776.570312 128.578125 776.386719 127.230469 C 776.117188 124.890625 776.117188 119.941406 776.207031 116.339844 L 776.386719 103.648438 L 784.488281 104.011719 L 785.027344 103.46875 L 785.929688 93.839844 L 785.386719 93.300781 L 776.386719 93.300781 L 776.660156 78.179688 L 776.027344 77.640625 C 769.910156 79.441406 768.289062 79.890625 761.898438 81.511719 L 761.539062 82.140625 L 761.628906 93.390625 L 756.769531 93.210938 L 756.230469 93.660156 L 755.417969 103.289062 L 755.957031 103.828125 L 761.628906 103.648438 L 761.359375 117.960938 C 761.269531 120.210938 761.179688 122.460938 761.179688 124.800781 C 761.179688 133.078125 761.359375 141.988281 775.398438 141.988281 C 778.910156 141.988281 781.699219 141.449219 784.847656 140.910156 L 785.480469 140.28125 L 786.378906 131.011719 Z M 832.367188 114.179688 C 832.457031 106.078125 832.457031 102.570312 830.117188 98.789062 C 828.316406 95.910156 824.71875 92.308594 813.199219 92.308594 C 805.457031 92.308594 800.6875 93.75 795.558594 95.28125 L 795.019531 96 L 794.566406 105.808594 L 795.289062 106.171875 C 798.4375 104.910156 804.289062 102.570312 810.316406 102.570312 C 813.648438 102.570312 814.996094 103.109375 816.167969 104.28125 C 817.066406 105.179688 817.339844 106.800781 817.339844 108.148438 C 806.539062 109.589844 801.496094 110.578125 796.097656 113.910156 C 791.058594 117.058594 789.347656 122.191406 789.347656 126.238281 C 789.347656 135.871094 796.277344 142.078125 805.097656 142.078125 C 811.847656 142.078125 815.71875 138.839844 817.609375 137.308594 L 817.609375 140.640625 L 818.148438 141.269531 C 824.628906 141 826.609375 140.910156 832.457031 141 L 832.90625 140.371094 C 832.277344 131.550781 832.277344 129.300781 832.277344 120.839844 L 832.367188 114.179688 M 817.519531 128.488281 C 815.628906 129.570312 813.199219 130.828125 810.226562 130.828125 C 806.988281 130.828125 804.289062 129.121094 804.289062 125.339844 C 804.289062 119.398438 811.398438 118.410156 817.519531 117.601562 Z M 868.101562 130.648438 C 866.570312 131.101562 865.488281 131.460938 863.960938 131.460938 C 859.371094 131.460938 859.011719 128.578125 858.828125 127.230469 C 858.558594 124.890625 858.558594 119.941406 858.648438 116.339844 L 858.828125 103.648438 L 866.929688 104.011719 L 867.46875 103.46875 L 868.371094 93.839844 L 867.828125 93.300781 L 858.828125 93.300781 L 859.101562 78.179688 L 858.46875 77.640625 C 852.351562 79.441406 850.730469 79.890625 844.339844 81.511719 L 843.980469 82.140625 L 844.070312 93.390625 L 839.210938 93.210938 L 838.671875 93.660156 L 837.859375 103.289062 L 838.398438 103.828125 L 844.070312 103.648438 L 843.800781 117.960938 C 843.710938 120.210938 843.621094 122.460938 843.621094 124.800781 C 843.621094 133.078125 843.800781 141.988281 857.839844 141.988281 C 861.351562 141.988281 864.140625 141.449219 867.289062 140.910156 L 867.921875 140.28125 L 868.820312 131.011719 Z M 914.71875 127.679688 C 911.300781 129.480469 907.25 131.550781 900.679688 131.550781 C 895.28125 131.550781 891.589844 129.839844 889.429688 126.601562 C 888.078125 124.710938 887.808594 122.910156 887.449219 121.109375 L 916.519531 120.570312 L 917.058594 119.941406 C 916.96875 115.53125 916.878906 111.03125 915.621094 106.53125 C 912.46875 95.910156 905.539062 93.75 902.480469 93.03125 C 900.230469 92.398438 898.160156 92.21875 896.089844 92.21875 C 881.960938 92.21875 872.597656 101.488281 872.597656 117.058594 C 872.597656 121.289062 873.320312 125.699219 874.757812 128.851562 C 879.980469 141 892.21875 142.078125 898.699219 142.078125 C 906.167969 142.078125 909.410156 140.730469 914.179688 138.839844 L 914.71875 138.121094 L 915.347656 127.949219 L 914.71875 127.679688 M 887.449219 111.570312 C 887.71875 108.78125 888.347656 105 891.769531 102.839844 C 892.847656 102.121094 894.109375 101.851562 895.371094 101.851562 C 898.339844 101.851562 900.140625 103.378906 901.128906 105 C 902.390625 106.980469 902.480469 109.140625 902.480469 111.210938 Z M 919.941406 141 "/>
<path fill-rule="nonzero" fill="rgb(34.901961%, 14.901961%, 14.901961%)" fill-opacity="1" d="M 215.597656 197.191406 C 209.929688 197.460938 208.398438 197.550781 202.820312 197.460938 L 202.371094 198 L 203 210.148438 L 203.359375 222.570312 L 203.71875 237.421875 C 201.109375 233.011719 200.660156 232.289062 196.070312 225.449219 L 187.878906 213.480469 C 181.128906 203.21875 179.78125 201.238281 177.53125 197.640625 L 176.898438 197.191406 C 169.789062 197.550781 168.621094 197.550781 162.050781 197.460938 L 161.597656 198 C 162.050781 211.949219 162.320312 222.300781 162.320312 234.359375 C 162.320312 243.179688 162.140625 252 162.050781 260.730469 L 162.5 261.269531 C 168.53125 261 170.417969 261 175.640625 261 L 176.089844 260.460938 L 175.1875 240.75 L 174.917969 229.679688 L 174.378906 217.621094 C 178.609375 224.640625 180.050781 226.980469 186.167969 235.890625 L 195.167969 249.121094 L 203.179688 260.820312 L 203.808594 261.269531 C 209.300781 261 210.917969 261 215.6875 261 L 216.140625 260.550781 C 216.050781 247.5 215.960938 238.679688 215.960938 227.878906 C 215.960938 217.800781 216.050781 207.808594 216.140625 197.730469 Z M 267.167969 234.179688 C 267.257812 226.078125 267.257812 222.570312 264.917969 218.789062 C 263.117188 215.910156 259.519531 212.308594 248 212.308594 C 240.257812 212.308594 235.488281 213.75 230.359375 215.28125 L 229.820312 216 L 229.367188 225.808594 L 230.089844 226.171875 C 233.238281 224.910156 239.089844 222.570312 245.117188 222.570312 C 248.449219 222.570312 249.796875 223.109375 250.96875 224.28125 C 251.867188 225.179688 252.140625 226.800781 252.140625 228.148438 C 241.339844 229.589844 236.296875 230.578125 230.898438 233.910156 C 225.859375 237.058594 224.148438 242.191406 224.148438 246.238281 C 224.148438 255.871094 231.078125 262.078125 239.898438 262.078125 C 246.648438 262.078125 250.519531 258.839844 252.410156 257.308594 L 252.410156 260.640625 L 252.949219 261.269531 C 259.429688 261 261.410156 260.910156 267.257812 261 L 267.707031 260.371094 C 267.078125 251.550781 267.078125 249.300781 267.078125 240.839844 L 267.167969 234.179688 M 252.320312 248.488281 C 250.429688 249.570312 248 250.828125 245.027344 250.828125 C 241.789062 250.828125 239.089844 249.121094 239.089844 245.339844 C 239.089844 239.398438 246.199219 238.410156 252.320312 237.601562 Z M 302.902344 250.648438 C 301.371094 251.101562 300.289062 251.460938 298.761719 251.460938 C 294.171875 251.460938 293.8125 248.578125 293.628906 247.230469 C 293.359375 244.890625 293.359375 239.941406 293.449219 236.339844 L 293.628906 223.648438 L 301.730469 224.011719 L 302.269531 223.46875 L 303.171875 213.839844 L 302.628906 213.300781 L 293.628906 213.300781 L 293.902344 198.179688 L 293.269531 197.640625 C 287.152344 199.441406 285.53125 199.890625 279.140625 201.511719 L 278.78125 202.140625 L 278.871094 213.390625 L 274.011719 213.210938 L 273.472656 213.660156 L 272.660156 223.289062 L 273.199219 223.828125 L 278.871094 223.648438 L 278.601562 237.960938 C 278.511719 240.210938 278.421875 242.460938 278.421875 244.800781 C 278.421875 253.078125 278.601562 261.988281 292.640625 261.988281 C 296.152344 261.988281 298.941406 261.449219 302.089844 260.910156 L 302.722656 260.28125 L 303.621094 251.011719 Z M 352.761719 212.851562 L 338.089844 213.570312 L 337.460938 214.109375 C 338.089844 224.28125 338.089844 238.679688 338.089844 240.121094 C 338.089844 242.730469 338.089844 244.171875 338 247.769531 C 335.570312 249.390625 333.679688 250.738281 331.25 250.738281 C 324.769531 250.738281 324.769531 243.898438 324.769531 238.589844 C 324.769531 236.339844 324.769531 234 324.859375 231.75 L 325.039062 213.570312 L 324.410156 212.851562 L 309.558594 213.570312 L 308.929688 214.109375 C 309.46875 221.671875 309.558594 224.191406 309.558594 233.28125 L 309.558594 239.578125 C 309.46875 249.390625 309.921875 253.53125 313.160156 257.308594 C 316.128906 260.640625 320.449219 262.078125 324.949219 262.078125 C 331.339844 262.078125 335.03125 259.199219 338.269531 256.679688 L 338.179688 260.730469 L 338.808594 261.269531 C 345.378906 261 347.359375 261 353.210938 261 L 353.75 260.460938 C 353.300781 254.070312 353.121094 250.648438 353.121094 238.949219 C 353.121094 230.488281 353.210938 222.03125 353.390625 213.570312 Z M 389.929688 227.609375 L 392.449219 212.941406 L 391.910156 212.308594 C 391.28125 212.308594 390.648438 212.21875 390.019531 212.21875 C 386.328125 212.21875 382.191406 214.289062 379.308594 220.949219 L 379.578125 212.671875 L 378.859375 211.949219 C 372.199219 213.390625 370.488281 213.660156 363.917969 214.648438 L 363.378906 215.191406 C 363.917969 221.941406 364.191406 225.988281 364.191406 238.5 C 364.191406 245.878906 364.097656 253.261719 363.917969 260.730469 L 364.460938 261.269531 C 371.121094 261 372.558594 260.910156 379.757812 261 L 380.210938 260.371094 C 379.847656 253.078125 379.308594 242.910156 379.308594 236.699219 C 379.308594 232.648438 379.308594 226.710938 385.429688 226.710938 C 386.960938 226.710938 387.859375 227.25 389.121094 227.96875 Z M 437.71875 234.179688 C 437.808594 226.078125 437.808594 222.570312 435.46875 218.789062 C 433.667969 215.910156 430.070312 212.308594 418.550781 212.308594 C 410.808594 212.308594 406.039062 213.75 400.910156 215.28125 L 400.371094 216 L 399.917969 225.808594 L 400.640625 226.171875 C 403.789062 224.910156 409.640625 222.570312 415.667969 222.570312 C 419 222.570312 420.347656 223.109375 421.519531 224.28125 C 422.417969 225.179688 422.691406 226.800781 422.691406 228.148438 C 411.890625 229.589844 406.847656 230.578125 401.449219 233.910156 C 396.410156 237.058594 394.699219 242.191406 394.699219 246.238281 C 394.699219 255.871094 401.628906 262.078125 410.449219 262.078125 C 417.199219 262.078125 421.070312 258.839844 422.960938 257.308594 L 422.960938 260.640625 L 423.5 261.269531 C 429.980469 261 431.960938 260.910156 437.808594 261 L 438.257812 260.371094 C 437.628906 251.550781 437.628906 249.300781 437.628906 240.839844 L 437.71875 234.179688 M 422.871094 248.488281 C 420.980469 249.570312 418.550781 250.828125 415.578125 250.828125 C 412.339844 250.828125 409.640625 249.121094 409.640625 245.339844 C 409.640625 239.398438 416.75 238.410156 422.871094 237.601562 Z M 464.085938 260.371094 C 463.636719 250.019531 463.1875 240.570312 463.1875 212.128906 C 463.1875 203.578125 463.277344 199.53125 463.636719 189.808594 L 463.007812 189.179688 L 447.617188 191.609375 L 447.257812 192.148438 C 448.15625 203.128906 448.246094 206.101562 448.425781 220.679688 C 448.519531 225.988281 448.519531 231.300781 448.519531 236.609375 C 448.519531 246.328125 448.335938 251.730469 447.976562 260.640625 L 448.519531 261.269531 C 454.546875 261 456.976562 260.910156 463.546875 261 Z M 521.148438 236.25 C 527.179688 246.511719 528.53125 249.210938 534.289062 261 L 535.011719 261.449219 C 537.800781 261.269531 540.5 261.089844 543.289062 261 C 546.082031 260.910156 548.960938 260.820312 551.75 260.820312 L 552.289062 259.738281 C 548.871094 255.328125 547.878906 253.980469 541.398438 243.628906 C 538.519531 239.039062 537.082031 236.609375 534.832031 232.648438 C 538.878906 230.851562 547.070312 227.070312 547.070312 215.640625 C 547.070312 211.679688 545.988281 203.488281 538.609375 199.621094 C 533.929688 197.191406 529.070312 197.101562 518.539062 197.28125 L 512.238281 197.371094 L 501.261719 197.371094 L 500.808594 197.910156 C 501.171875 207 501.53125 216.359375 501.53125 240.839844 C 501.53125 249.210938 501.441406 253.261719 501.171875 260.730469 L 501.710938 261.269531 C 508.28125 261 509.71875 260.910156 517.101562 261 L 517.640625 260.460938 C 516.921875 250.019531 516.832031 247.140625 516.738281 236.429688 L 521.148438 236.25 M 516.921875 208.261719 C 518.179688 208.171875 519.441406 208.171875 520.699219 208.171875 C 524.210938 208.171875 531.140625 208.171875 531.140625 216.089844 C 531.140625 218.609375 530.511719 221.941406 527.179688 224.011719 C 524.660156 225.539062 521.421875 225.71875 516.921875 225.808594 Z M 597.019531 247.679688 C 593.601562 249.480469 589.550781 251.550781 582.980469 251.550781 C 577.582031 251.550781 573.890625 249.839844 571.730469 246.601562 C 570.378906 244.710938 570.109375 242.910156 569.75 241.109375 L 598.820312 240.570312 L 599.359375 239.941406 C 599.269531 235.53125 599.179688 231.03125 597.921875 226.53125 C 594.769531 215.910156 587.839844 213.75 584.78125 213.03125 C 582.53125 212.398438 580.460938 212.21875 578.390625 212.21875 C 564.261719 212.21875 554.898438 221.488281 554.898438 237.058594 C 554.898438 241.289062 555.621094 245.699219 557.058594 248.851562 C 562.28125 261 574.519531 262.078125 581 262.078125 C 588.46875 262.078125 591.710938 260.730469 596.480469 258.839844 L 597.019531 258.121094 L 597.648438 247.949219 L 597.019531 247.679688 M 569.75 231.570312 C 570.019531 228.78125 570.648438 225 574.070312 222.839844 C 575.148438 222.121094 576.410156 221.851562 577.671875 221.851562 C 580.640625 221.851562 582.441406 223.378906 583.429688 225 C 584.691406 226.980469 584.78125 229.140625 584.78125 231.210938 Z M 626.539062 229.949219 C 623.476562 228.871094 621.046875 227.878906 621.046875 225.359375 C 621.046875 224.28125 621.769531 221.308594 627.347656 221.308594 C 632.839844 221.308594 636.347656 223.648438 638.597656 225.089844 L 639.410156 224.820312 L 640.308594 215.011719 L 639.859375 214.46875 C 635.628906 213.300781 631.9375 212.21875 626.089844 212.21875 C 621.679688 212.21875 612.859375 212.578125 608.179688 219.328125 C 607.007812 220.949219 605.75 223.648438 605.75 227.25 C 605.75 236.878906 613.21875 239.761719 617.449219 241.378906 L 620.867188 242.640625 C 623.296875 243.449219 627.257812 244.800781 627.257812 248.039062 C 627.257812 250.289062 625.1875 252.71875 620.148438 252.71875 C 617.628906 252.71875 613.9375 251.910156 610.609375 250.199219 C 609.078125 249.390625 608.359375 248.761719 607.007812 247.679688 L 606.199219 248.039062 C 606.019531 252.71875 605.929688 253.710938 605.566406 258.210938 L 606.019531 259.019531 C 610.429688 260.640625 614.207031 262.078125 620.777344 262.078125 C 627.617188 262.078125 641.117188 260.820312 642.738281 247.949219 C 642.828125 247.230469 642.828125 246.601562 642.828125 245.96875 C 642.828125 236.070312 635.898438 233.460938 630.949219 231.570312 Z M 690.707031 247.679688 C 687.289062 249.480469 683.238281 251.550781 676.667969 251.550781 C 671.269531 251.550781 667.578125 249.839844 665.417969 246.601562 C 664.066406 244.710938 663.796875 242.910156 663.4375 241.109375 L 692.507812 240.570312 L 693.046875 239.941406 C 692.957031 235.53125 692.867188 231.03125 691.609375 226.53125 C 688.457031 215.910156 681.527344 213.75 678.46875 213.03125 C 676.21875 212.398438 674.148438 212.21875 672.078125 212.21875 C 657.949219 212.21875 648.585938 221.488281 648.585938 237.058594 C 648.585938 241.289062 649.308594 245.699219 650.746094 248.851562 C 655.96875 261 668.207031 262.078125 674.6875 262.078125 C 682.15625 262.078125 685.398438 260.730469 690.167969 258.839844 L 690.707031 258.121094 L 691.335938 247.949219 L 690.707031 247.679688 M 663.4375 231.570312 C 663.707031 228.78125 664.335938 225 667.757812 222.839844 C 668.835938 222.121094 670.097656 221.851562 671.359375 221.851562 C 674.328125 221.851562 676.128906 223.378906 677.117188 225 C 678.378906 226.980469 678.46875 229.140625 678.46875 231.210938 Z M 727.339844 227.609375 L 729.859375 212.941406 L 729.320312 212.308594 C 728.691406 212.308594 728.058594 212.21875 727.429688 212.21875 C 723.738281 212.21875 719.601562 214.289062 716.71875 220.949219 L 716.988281 212.671875 L 716.269531 211.949219 C 709.609375 213.390625 707.898438 213.660156 701.328125 214.648438 L 700.789062 215.191406 C 701.328125 221.941406 701.601562 225.988281 701.601562 238.5 C 701.601562 245.878906 701.507812 253.261719 701.328125 260.730469 L 701.871094 261.269531 C 708.53125 261 709.96875 260.910156 717.167969 261 L 717.621094 260.371094 C 717.257812 253.078125 716.71875 242.910156 716.71875 236.699219 C 716.71875 232.648438 716.71875 226.710938 722.839844 226.710938 C 724.371094 226.710938 725.269531 227.25 726.53125 227.96875 Z M 759.917969 260.28125 C 762.800781 251.28125 764.507812 245.699219 766.398438 240.03125 C 768.828125 232.738281 772.789062 221.039062 775.308594 213.660156 L 774.859375 213.03125 L 762.257812 213.300781 L 761.628906 213.929688 C 760.371094 219.960938 760.101562 221.21875 758.300781 228.238281 L 753.710938 245.96875 L 751.460938 236.25 L 749.75 229.320312 C 747.5 220.949219 747.140625 219.238281 745.878906 213.300781 L 745.25 212.761719 C 738.140625 213.570312 736.339844 213.660156 729.5 213.75 L 729.140625 214.46875 C 741.109375 249.929688 742.101562 253.261719 744.078125 260.640625 L 744.710938 261.269531 C 750.558594 261 752.898438 260.910156 759.378906 261 Z M 820.039062 247.679688 C 816.621094 249.480469 812.570312 251.550781 806 251.550781 C 800.601562 251.550781 796.910156 249.839844 794.75 246.601562 C 793.398438 244.710938 793.128906 242.910156 792.769531 241.109375 L 821.839844 240.570312 L 822.378906 239.941406 C 822.289062 235.53125 822.199219 231.03125 820.941406 226.53125 C 817.789062 215.910156 810.859375 213.75 807.800781 213.03125 C 805.550781 212.398438 803.480469 212.21875 801.410156 212.21875 C 787.28125 212.21875 777.917969 221.488281 777.917969 237.058594 C 777.917969 241.289062 778.640625 245.699219 780.078125 248.851562 C 785.300781 261 797.539062 262.078125 804.019531 262.078125 C 811.488281 262.078125 814.730469 260.730469 819.5 258.839844 L 820.039062 258.121094 L 820.667969 247.949219 L 820.039062 247.679688 M 792.769531 231.570312 C 793.039062 228.78125 793.667969 225 797.089844 222.839844 C 798.167969 222.121094 799.429688 221.851562 800.691406 221.851562 C 803.660156 221.851562 805.460938 223.378906 806.449219 225 C 807.710938 226.980469 807.800781 229.140625 807.800781 231.210938 Z M 825.257812 261 "/>
</svg>
