<?xml version="1.0" encoding="UTF-8"?>
<svg xmlns="http://www.w3.org/2000/svg" xmlns:xlink="http://www.w3.org/1999/xlink" width="975" height="1300" viewBox="0 0 975 1300">
<path fill-rule="nonzero" fill="rgb(98.823529%, 78.823529%, 9.019608%)" fill-opacity="1" d="M 50 50 L 925 50 L 925 410 L 50 410 Z M 50 50 "/>
<path fill-rule="nonzero" fill="rgb(34.901961%, 14.901961%, 14.901961%)" fill-opacity="1" d="M 172.667969 124.890625 C 170.597656 126.511719 166.007812 129.929688 158.539062 129.929688 C 148.277344 129.929688 141.078125 122.28125 141.078125 109.5 C 141.078125 101.761719 143.777344 88.171875 158.449219 88.171875 C 165.199219 88.171875 168.886719 90.78125 171.136719 92.488281 L 171.949219 92.308594 L 172.757812 79.890625 L 172.398438 79.441406 C 169.160156 78.179688 163.667969 76.109375 155.75 76.109375 C 132.4375 76.109375 124.339844 94.109375 124.339844 109.859375 C 124.339844 127.140625 134.867188 142.351562 156.828125 142.351562 C 164.386719 142.351562 169.339844 140.371094 172.21875 139.199219 L 172.667969 138.660156 L 173.296875 125.25 Z M 224.417969 140.371094 C 224.058594 132.988281 223.96875 130.46875 223.789062 121.109375 L 223.789062 114.359375 C 223.699219 105.808594 223.609375 100.859375 220.996094 97.078125 C 218.386719 93.390625 214.609375 92.21875 210.648438 92.21875 C 204.078125 92.21875 198.949219 95.371094 195.347656 97.53125 L 195.617188 69.808594 L 195.078125 69.179688 L 179.6875 71.609375 L 179.238281 72.148438 C 180.046875 80.878906 180.226562 84.121094 180.40625 95.730469 C 180.589844 103.019531 180.679688 110.308594 180.679688 117.601562 C 180.679688 126.511719 180.496094 131.820312 180.316406 140.640625 L 180.769531 141.269531 C 187.429688 140.910156 188.777344 140.910156 196.066406 140.910156 L 196.609375 140.371094 C 195.976562 126.871094 195.886719 122.820312 195.796875 106.890625 C 197.507812 105.71875 199.667969 104.191406 202.726562 104.191406 C 207.679688 104.191406 208.039062 109.320312 208.398438 112.921875 C 208.578125 115.710938 208.667969 128.488281 208.667969 131.820312 C 208.667969 134.789062 208.578125 137.671875 208.578125 140.640625 L 209.027344 141.269531 C 215.507812 140.910156 216.949219 140.910156 223.878906 140.910156 Z M 277.878906 92.851562 L 263.207031 93.570312 L 262.578125 94.109375 C 263.207031 104.28125 263.207031 118.679688 263.207031 120.121094 C 263.207031 122.730469 263.207031 124.171875 263.117188 127.769531 C 260.6875 129.390625 258.796875 130.738281 256.367188 130.738281 C 249.886719 130.738281 249.886719 123.898438 249.886719 118.589844 C 249.886719 116.339844 249.886719 114 249.976562 111.75 L 250.15625 93.570312 L 249.527344 92.851562 L 234.675781 93.570312 L 234.046875 94.109375 C 234.585938 101.671875 234.675781 104.191406 234.675781 113.28125 L 234.675781 119.578125 C 234.585938 129.390625 235.039062 133.53125 238.277344 137.308594 C 241.246094 140.640625 245.566406 142.078125 250.066406 142.078125 C 256.457031 142.078125 260.148438 139.199219 263.386719 136.679688 L 263.296875 140.730469 L 263.925781 141.269531 C 270.496094 141 272.476562 141 278.328125 141 L 278.867188 140.460938 C 278.417969 134.070312 278.238281 130.648438 278.238281 118.949219 C 278.238281 110.488281 278.328125 102.03125 278.507812 93.570312 Z M 359.328125 140.371094 C 358.875 132 358.785156 129.660156 358.785156 119.488281 L 358.785156 112.738281 C 358.875 106.710938 358.964844 101.128906 356.355469 97.351562 C 352.847656 92.21875 346.636719 92.21875 345.195312 92.21875 C 337.816406 92.21875 332.867188 95.550781 329.265625 98.070312 C 328.007812 96 325.757812 92.21875 318.558594 92.21875 C 312.617188 92.21875 308.746094 94.921875 304.605469 97.800781 L 304.605469 92.761719 L 303.796875 91.949219 C 296.777344 93.300781 294.796875 93.660156 288.496094 94.558594 L 287.957031 95.191406 C 288.675781 102.390625 289.214844 107.339844 289.214844 125.160156 C 289.214844 130.289062 289.125 135.511719 289.125 140.640625 L 289.578125 141.179688 C 295.335938 141 297.316406 140.910156 304.785156 140.910156 L 305.328125 140.371094 C 304.695312 126.511719 304.605469 122.371094 304.515625 106.710938 C 306.40625 105.359375 308.476562 104.191406 310.726562 104.191406 C 316.308594 104.191406 316.488281 110.578125 316.488281 118.320312 C 316.488281 131.371094 316.398438 133.351562 316.214844 140.640625 L 316.757812 141.269531 C 323.597656 140.910156 325.488281 140.910156 331.695312 140.910156 L 332.238281 140.371094 C 331.695312 131.820312 331.605469 129.300781 331.515625 118.410156 L 331.515625 115.078125 L 331.425781 105.988281 C 332.957031 105 334.9375 103.738281 337.636719 103.738281 C 342.765625 103.738281 343.578125 108.601562 343.578125 116.339844 C 343.578125 118.050781 343.488281 119.761719 343.488281 121.46875 C 343.398438 124.53125 343.308594 137.941406 343.214844 140.640625 L 343.757812 141.179688 C 350.507812 140.910156 352.488281 140.910156 358.785156 140.910156 Z M 409.726562 114.179688 C 409.816406 106.078125 409.816406 102.570312 407.476562 98.789062 C 405.675781 95.910156 402.078125 92.308594 390.558594 92.308594 C 382.816406 92.308594 378.046875 93.75 372.917969 95.28125 L 372.378906 96 L 371.925781 105.808594 L 372.648438 106.171875 C 375.796875 104.910156 381.648438 102.570312 387.675781 102.570312 C 391.007812 102.570312 392.355469 103.109375 393.527344 104.28125 C 394.425781 105.179688 394.699219 106.800781 394.699219 108.148438 C 383.898438 109.589844 378.855469 110.578125 373.457031 113.910156 C 368.417969 117.058594 366.707031 122.191406 366.707031 126.238281 C 366.707031 135.871094 373.636719 142.078125 382.457031 142.078125 C 389.207031 142.078125 393.078125 138.839844 394.96875 137.308594 L 394.96875 140.640625 L 395.507812 141.269531 C 401.988281 141 403.96875 140.910156 409.816406 141 L 410.265625 140.371094 C 409.636719 131.550781 409.636719 129.300781 409.636719 120.839844 L 409.726562 114.179688 M 394.878906 128.488281 C 392.988281 129.570312 390.558594 130.828125 387.585938 130.828125 C 384.347656 130.828125 381.648438 129.121094 381.648438 125.339844 C 381.648438 119.398438 388.757812 118.410156 394.878906 117.601562 Z M 439.160156 109.949219 C 436.097656 108.871094 433.667969 107.878906 433.667969 105.359375 C 433.667969 104.28125 434.390625 101.308594 439.96875 101.308594 C 445.460938 101.308594 448.96875 103.648438 451.21875 105.089844 L 452.03125 104.820312 L 452.929688 95.011719 L 452.480469 94.46875 C 448.25 93.300781 444.558594 92.21875 438.710938 92.21875 C 434.300781 92.21875 425.480469 92.578125 420.800781 99.328125 C 419.628906 100.949219 418.371094 103.648438 418.371094 107.25 C 418.371094 116.878906 425.839844 119.761719 430.070312 121.378906 L 433.488281 122.640625 C 435.917969 123.449219 439.878906 124.800781 439.878906 128.039062 C 439.878906 130.289062 437.808594 132.71875 432.769531 132.71875 C 430.25 132.71875 426.558594 131.910156 423.230469 130.199219 C 421.699219 129.390625 420.980469 128.761719 419.628906 127.679688 L 418.820312 128.039062 C 418.640625 132.71875 418.550781 133.710938 418.1875 138.210938 L 418.640625 139.019531 C 423.050781 140.640625 426.828125 142.078125 433.398438 142.078125 C 440.238281 142.078125 453.738281 140.820312 455.359375 127.949219 C 455.449219 127.230469 455.449219 126.601562 455.449219 125.96875 C 455.449219 116.070312 448.519531 113.460938 443.570312 111.570312 Z M 507.46875 140.371094 C 507.109375 132.988281 507.019531 130.46875 506.839844 121.109375 L 506.839844 114.359375 C 506.75 105.808594 506.660156 100.859375 504.046875 97.078125 C 501.4375 93.390625 497.660156 92.21875 493.699219 92.21875 C 487.128906 92.21875 482 95.371094 478.398438 97.53125 L 478.667969 69.808594 L 478.128906 69.179688 L 462.738281 71.609375 L 462.289062 72.148438 C 463.097656 80.878906 463.277344 84.121094 463.457031 95.730469 C 463.640625 103.019531 463.730469 110.308594 463.730469 117.601562 C 463.730469 126.511719 463.546875 131.820312 463.367188 140.640625 L 463.820312 141.269531 C 470.480469 140.910156 471.828125 140.910156 479.117188 140.910156 L 479.660156 140.371094 C 479.027344 126.871094 478.9375 122.820312 478.847656 106.890625 C 480.558594 105.71875 482.71875 104.191406 485.777344 104.191406 C 490.730469 104.191406 491.089844 109.320312 491.449219 112.921875 C 491.628906 115.710938 491.71875 128.488281 491.71875 131.820312 C 491.71875 134.789062 491.628906 137.671875 491.628906 140.640625 L 492.078125 141.269531 C 498.558594 140.910156 500 140.910156 506.929688 140.910156 Z M 556.070312 77.28125 L 544.640625 77.460938 L 544.097656 78 C 544.460938 89.699219 544.730469 97.53125 544.730469 107.878906 C 544.730469 118.859375 544.460938 129.75 544.1875 140.730469 L 544.730469 141.269531 C 551.390625 141 552.828125 140.910156 560.03125 141 L 560.480469 140.460938 C 560.121094 130.648438 560.121094 128.398438 560.121094 119.21875 C 570.199219 119.308594 581 119.308594 587.480469 111.390625 C 590 108.328125 592.160156 103.199219 592.160156 96.898438 C 592.160156 93.03125 591.257812 84.480469 583.789062 80.25 C 578.390625 77.101562 570.738281 77.101562 563.988281 77.101562 L 556.070312 77.28125 M 560.121094 88.171875 C 562.097656 88.078125 563.988281 88.078125 565.96875 88.078125 C 573.890625 88.261719 576.050781 92.308594 576.050781 97.53125 C 576.050781 98.789062 576.050781 104.011719 571.28125 106.621094 C 568.847656 107.96875 565.519531 108.148438 560.121094 108.148438 Z M 638.417969 114.179688 C 638.507812 106.078125 638.507812 102.570312 636.167969 98.789062 C 634.367188 95.910156 630.769531 92.308594 619.25 92.308594 C 611.507812 92.308594 606.738281 93.75 601.609375 95.28125 L 601.070312 96 L 600.617188 105.808594 L 601.339844 106.171875 C 604.488281 104.910156 610.339844 102.570312 616.367188 102.570312 C 619.699219 102.570312 621.046875 103.109375 622.21875 104.28125 C 623.117188 105.179688 623.390625 106.800781 623.390625 108.148438 C 612.589844 109.589844 607.546875 110.578125 602.148438 113.910156 C 597.109375 117.058594 595.398438 122.191406 595.398438 126.238281 C 595.398438 135.871094 602.328125 142.078125 611.148438 142.078125 C 617.898438 142.078125 621.769531 138.839844 623.660156 137.308594 L 623.660156 140.640625 L 624.199219 141.269531 C 630.679688 141 632.660156 140.910156 638.507812 141 L 638.957031 140.371094 C 638.328125 131.550781 638.328125 129.300781 638.328125 120.839844 L 638.417969 114.179688 M 623.570312 128.488281 C 621.679688 129.570312 619.25 130.828125 616.277344 130.828125 C 613.039062 130.828125 610.339844 129.121094 610.339844 125.339844 C 610.339844 119.398438 617.449219 118.410156 623.570312 117.601562 Z M 665.238281 140.371094 C 664.785156 133.441406 664.425781 128.128906 664.425781 115.710938 C 664.425781 108.058594 664.605469 100.320312 664.695312 92.671875 L 664.066406 91.949219 L 648.585938 94.648438 L 648.046875 95.191406 C 648.765625 102.03125 649.035156 105.179688 649.035156 117.960938 C 649.035156 127.769531 648.765625 133.261719 648.496094 140.640625 L 649.035156 141.269531 C 655.515625 141 657.316406 140.910156 664.605469 141 L 665.238281 140.371094 M 663.796875 83.308594 L 664.066406 71.070312 L 663.527344 70.53125 L 648.855469 72.328125 L 648.316406 72.960938 C 648.496094 76.199219 648.585938 78.089844 648.585938 80.25 C 648.585938 81.960938 648.585938 83.761719 648.496094 85.46875 L 649.125 86.011719 C 655.246094 84.929688 656.957031 84.75 663.347656 83.941406 Z M 719.328125 140.371094 C 718.878906 132.449219 718.878906 129.929688 718.699219 121.109375 L 718.699219 114.089844 C 718.609375 105.449219 718.519531 101.308594 716.269531 97.621094 C 713.476562 92.941406 708.347656 92.21875 705.109375 92.21875 C 699.617188 92.21875 694.847656 95.101562 690.707031 97.53125 L 690.886719 92.578125 L 689.988281 91.949219 C 683.058594 93.390625 681.527344 93.660156 674.777344 94.558594 L 674.238281 95.191406 C 674.957031 103.019531 675.5 108.691406 675.5 123.359375 C 675.5 129.121094 675.40625 134.878906 675.316406 140.640625 L 675.859375 141.179688 C 682.339844 140.910156 683.6875 140.910156 690.886719 140.910156 L 691.429688 140.371094 C 690.886719 126.511719 690.796875 123 690.707031 106.890625 C 692.597656 105.628906 694.757812 104.101562 697.636719 104.101562 C 702.589844 104.101562 703.039062 109.410156 703.308594 112.648438 C 703.488281 115.621094 703.578125 127.949219 703.578125 131.371094 C 703.578125 134.429688 703.488281 137.578125 703.488281 140.640625 L 704.027344 141.179688 C 709.96875 141 711.5 140.910156 718.699219 140.910156 Z M 754.789062 130.648438 C 753.257812 131.101562 752.175781 131.460938 750.648438 131.460938 C 746.058594 131.460938 745.699219 128.578125 745.515625 127.230469 C 745.246094 124.890625 745.246094 119.941406 745.335938 116.339844 L 745.515625 103.648438 L 753.617188 104.011719 L 754.15625 103.46875 L 755.058594 93.839844 L 754.515625 93.300781 L 745.515625 93.300781 L 745.789062 78.179688 L 745.15625 77.640625 C 739.039062 79.441406 737.417969 79.890625 731.027344 81.511719 L 730.667969 82.140625 L 730.757812 93.390625 L 725.898438 93.210938 L 725.359375 93.660156 L 724.546875 103.289062 L 725.085938 103.828125 L 730.757812 103.648438 L 730.488281 117.960938 C 730.398438 120.210938 730.308594 122.460938 730.308594 124.800781 C 730.308594 133.078125 730.488281 141.988281 744.527344 141.988281 C 748.039062 141.988281 750.828125 141.449219 753.976562 140.910156 L 754.609375 140.28125 L 755.507812 131.011719 Z M 801.40625 127.679688 C 797.988281 129.480469 793.9375 131.550781 787.367188 131.550781 C 781.96875 131.550781 778.277344 129.839844 776.117188 126.601562 C 774.765625 124.710938 774.496094 122.910156 774.136719 121.109375 L 803.207031 120.570312 L 803.746094 119.941406 C 803.65625 115.53125 803.566406 111.03125 802.308594 106.53125 C 799.15625 95.910156 792.226562 93.75 789.167969 93.03125 C 786.917969 92.398438 784.847656 92.21875 782.777344 92.21875 C 768.648438 92.21875 759.285156 101.488281 759.285156 117.058594 C 759.285156 121.289062 760.007812 125.699219 761.445312 128.851562 C 766.667969 141 778.90625 142.078125 785.386719 142.078125 C 792.855469 142.078125 796.097656 140.730469 800.867188 138.839844 L 801.40625 138.121094 L 802.035156 127.949219 L 801.40625 127.679688 M 774.136719 111.570312 C 774.40625 108.78125 775.035156 105 778.457031 102.839844 C 779.535156 102.121094 780.796875 101.851562 782.058594 101.851562 C 785.027344 101.851562 786.828125 103.378906 787.816406 105 C 789.078125 106.980469 789.167969 109.140625 789.167969 111.210938 Z M 856.128906 140.460938 C 855.769531 132.359375 855.5 126.960938 855.5 115.171875 C 855.5 91.410156 855.859375 81.601562 856.21875 69.71875 L 855.589844 69.179688 L 840.738281 71.519531 L 840.289062 72.058594 C 840.828125 80.519531 840.917969 82.769531 840.828125 93.03125 C 834.078125 92.851562 825.617188 92.671875 818.777344 98.070312 C 812.480469 102.929688 809.867188 110.398438 809.867188 119.671875 C 809.867188 126.691406 811.757812 133.710938 817.070312 138.121094 C 821.027344 141.359375 825.890625 142.078125 828.859375 142.078125 C 835.25 142.078125 838.578125 139.109375 840.738281 137.21875 L 840.558594 140.730469 L 841.007812 141.269531 C 847.21875 141 848.929688 141 855.679688 141 L 856.128906 140.460938 M 840.828125 103.828125 C 840.917969 115.800781 840.828125 118.140625 840.558594 129.03125 C 838.757812 130.109375 836.957031 131.191406 834.4375 131.191406 C 825.707031 131.191406 825.707031 120.03125 825.707031 118.230469 C 825.707031 111.300781 827.6875 103.558594 837.769531 103.558594 C 838.757812 103.558594 839.570312 103.648438 840.828125 103.828125 Z M 860.988281 141 "/>
<path fill-rule="nonzero" fill="rgb(34.901961%, 14.901961%, 14.901961%)" fill-opacity="1" d="M 144.859375 244.890625 C 142.789062 246.511719 138.199219 249.929688 130.730469 249.929688 C 120.46875 249.929688 113.269531 242.28125 113.269531 229.5 C 113.269531 221.761719 115.96875 208.171875 130.640625 208.171875 C 137.390625 208.171875 141.078125 210.78125 143.328125 212.488281 L 144.140625 212.308594 L 144.949219 199.890625 L 144.589844 199.441406 C 141.351562 198.179688 135.859375 196.109375 127.941406 196.109375 C 104.628906 196.109375 96.53125 214.109375 96.53125 229.859375 C 96.53125 247.140625 107.058594 262.351562 129.019531 262.351562 C 136.578125 262.351562 141.53125 260.371094 144.410156 259.199219 L 144.859375 258.660156 L 145.488281 245.25 Z M 192.558594 234.179688 C 192.648438 226.078125 192.648438 222.570312 190.308594 218.789062 C 188.507812 215.910156 184.910156 212.308594 173.390625 212.308594 C 165.648438 212.308594 160.878906 213.75 155.75 215.28125 L 155.210938 216 L 154.757812 225.808594 L 155.480469 226.171875 C 158.628906 224.910156 164.480469 222.570312 170.507812 222.570312 C 173.839844 222.570312 175.1875 223.109375 176.359375 224.28125 C 177.257812 225.179688 177.53125 226.800781 177.53125 228.148438 C 166.730469 229.589844 161.6875 230.578125 156.289062 233.910156 C 151.25 237.058594 149.539062 242.191406 149.539062 246.238281 C 149.539062 255.871094 156.46875 262.078125 165.289062 262.078125 C 172.039062 262.078125 175.910156 258.839844 177.800781 257.308594 L 177.800781 260.640625 L 178.339844 261.269531 C 184.820312 261 186.800781 260.910156 192.648438 261 L 193.097656 260.371094 C 192.46875 251.550781 192.46875 249.300781 192.46875 240.839844 L 192.558594 234.179688 M 177.710938 248.488281 C 175.820312 249.570312 173.390625 250.828125 170.417969 250.828125 C 167.179688 250.828125 164.480469 249.121094 164.480469 245.339844 C 164.480469 239.398438 171.589844 238.410156 177.710938 237.601562 Z M 227.929688 260.28125 C 230.8125 251.28125 232.519531 245.699219 234.410156 240.03125 C 236.839844 232.738281 240.800781 221.039062 243.320312 213.660156 L 242.871094 213.03125 L 230.269531 213.300781 L 229.640625 213.929688 C 228.382812 219.960938 228.113281 221.21875 226.3125 228.238281 L 221.722656 245.96875 L 219.472656 236.25 L 217.761719 229.320312 C 215.511719 220.949219 215.152344 219.238281 213.890625 213.300781 L 213.261719 212.761719 C 206.152344 213.570312 204.351562 213.660156 197.511719 213.75 L 197.152344 214.46875 C 209.121094 249.929688 210.113281 253.261719 212.089844 260.640625 L 212.722656 261.269531 C 218.570312 261 220.910156 260.910156 227.390625 261 Z M 288.050781 247.679688 C 284.632812 249.480469 280.582031 251.550781 274.011719 251.550781 C 268.613281 251.550781 264.921875 249.839844 262.761719 246.601562 C 261.410156 244.710938 261.140625 242.910156 260.78125 241.109375 L 289.851562 240.570312 L 290.390625 239.941406 C 290.300781 235.53125 290.210938 231.03125 288.953125 226.53125 C 285.800781 215.910156 278.871094 213.75 275.8125 213.03125 C 273.5625 212.398438 271.492188 212.21875 269.421875 212.21875 C 255.292969 212.21875 245.929688 221.488281 245.929688 237.058594 C 245.929688 241.289062 246.652344 245.699219 248.089844 248.851562 C 253.3125 261 265.550781 262.078125 272.03125 262.078125 C 279.5 262.078125 282.742188 260.730469 287.511719 258.839844 L 288.050781 258.121094 L 288.679688 247.949219 L 288.050781 247.679688 M 260.78125 231.570312 C 261.050781 228.78125 261.679688 225 265.101562 222.839844 C 266.179688 222.121094 267.441406 221.851562 268.703125 221.851562 C 271.671875 221.851562 273.472656 223.378906 274.460938 225 C 275.722656 226.980469 275.8125 229.140625 275.8125 231.210938 Z M 350.960938 222.300781 C 343.402344 219.148438 339.441406 217.53125 339.441406 213.480469 C 339.441406 210.691406 342.050781 207.179688 347.992188 207.179688 C 354.832031 207.179688 358.878906 209.96875 362.210938 212.21875 L 363.019531 211.859375 L 363.742188 200.070312 L 363.289062 199.441406 C 359.421875 197.820312 355.371094 196.109375 346.640625 196.109375 C 329.722656 196.109375 323.871094 205.648438 323.871094 215.28125 C 323.871094 226.171875 332.332031 230.128906 337.371094 232.558594 L 340.339844 233.910156 C 346.550781 236.519531 351.320312 238.769531 351.320312 243.539062 C 351.320312 246.960938 348.351562 251.011719 340.519531 251.011719 C 332.332031 251.011719 327.742188 247.410156 325.128906 245.339844 L 324.230469 245.609375 L 323.601562 258.300781 L 324.140625 259.019531 C 325.128906 259.378906 326.121094 259.828125 327.109375 260.101562 C 329.179688 260.820312 334.492188 262.351562 341.242188 262.351562 C 343.941406 262.351562 350.78125 262.078125 356.179688 259.558594 C 363.742188 255.871094 366.980469 249.03125 366.980469 241.378906 C 366.980469 236.25 365 230.761719 360.230469 227.070312 C 357.800781 225.269531 355.460938 224.191406 353.300781 223.199219 Z M 400.730469 250.648438 C 399.199219 251.101562 398.117188 251.460938 396.589844 251.460938 C 392 251.460938 391.640625 248.578125 391.457031 247.230469 C 391.1875 244.890625 391.1875 239.941406 391.277344 236.339844 L 391.457031 223.648438 L 399.558594 224.011719 L 400.097656 223.46875 L 401 213.839844 L 400.457031 213.300781 L 391.457031 213.300781 L 391.730469 198.179688 L 391.097656 197.640625 C 384.980469 199.441406 383.359375 199.890625 376.96875 201.511719 L 376.609375 202.140625 L 376.699219 213.390625 L 371.839844 213.210938 L 371.300781 213.660156 L 370.488281 223.289062 L 371.027344 223.828125 L 376.699219 223.648438 L 376.429688 237.960938 C 376.339844 240.210938 376.25 242.460938 376.25 244.800781 C 376.25 253.078125 376.429688 261.988281 390.46875 261.988281 C 393.980469 261.988281 396.769531 261.449219 399.917969 260.910156 L 400.550781 260.28125 L 401.449219 251.011719 Z M 447.4375 234.179688 C 447.527344 226.078125 447.527344 222.570312 445.1875 218.789062 C 443.386719 215.910156 439.789062 212.308594 428.269531 212.308594 C 420.527344 212.308594 415.757812 213.75 410.628906 215.28125 L 410.089844 216 L 409.636719 225.808594 L 410.359375 226.171875 C 413.507812 224.910156 419.359375 222.570312 425.386719 222.570312 C 428.71875 222.570312 430.066406 223.109375 431.238281 224.28125 C 432.136719 225.179688 432.410156 226.800781 432.410156 228.148438 C 421.609375 229.589844 416.566406 230.578125 411.167969 233.910156 C 406.128906 237.058594 404.417969 242.191406 404.417969 246.238281 C 404.417969 255.871094 411.347656 262.078125 420.167969 262.078125 C 426.917969 262.078125 430.789062 258.839844 432.679688 257.308594 L 432.679688 260.640625 L 433.21875 261.269531 C 439.699219 261 441.679688 260.910156 447.527344 261 L 447.976562 260.371094 C 447.347656 251.550781 447.347656 249.300781 447.347656 240.839844 L 447.4375 234.179688 M 432.589844 248.488281 C 430.699219 249.570312 428.269531 250.828125 425.296875 250.828125 C 422.058594 250.828125 419.359375 249.121094 419.359375 245.339844 C 419.359375 239.398438 426.46875 238.410156 432.589844 237.601562 Z M 483.171875 250.648438 C 481.640625 251.101562 480.558594 251.460938 479.03125 251.460938 C 474.441406 251.460938 474.082031 248.578125 473.898438 247.230469 C 473.628906 244.890625 473.628906 239.941406 473.71875 236.339844 L 473.898438 223.648438 L 482 224.011719 L 482.539062 223.46875 L 483.441406 213.839844 L 482.898438 213.300781 L 473.898438 213.300781 L 474.171875 198.179688 L 473.539062 197.640625 C 467.421875 199.441406 465.800781 199.890625 459.410156 201.511719 L 459.050781 202.140625 L 459.140625 213.390625 L 454.28125 213.210938 L 453.742188 213.660156 L 452.929688 223.289062 L 453.46875 223.828125 L 459.140625 223.648438 L 458.871094 237.960938 C 458.78125 240.210938 458.691406 242.460938 458.691406 244.800781 C 458.691406 253.078125 458.871094 261.988281 472.910156 261.988281 C 476.421875 261.988281 479.210938 261.449219 482.359375 260.910156 L 482.992188 260.28125 L 483.890625 251.011719 Z M 529.789062 247.679688 C 526.371094 249.480469 522.320312 251.550781 515.75 251.550781 C 510.351562 251.550781 506.660156 249.839844 504.5 246.601562 C 503.148438 244.710938 502.878906 242.910156 502.519531 241.109375 L 531.589844 240.570312 L 532.128906 239.941406 C 532.039062 235.53125 531.949219 231.03125 530.691406 226.53125 C 527.539062 215.910156 520.609375 213.75 517.550781 213.03125 C 515.300781 212.398438 513.230469 212.21875 511.160156 212.21875 C 497.03125 212.21875 487.667969 221.488281 487.667969 237.058594 C 487.667969 241.289062 488.390625 245.699219 489.828125 248.851562 C 495.050781 261 507.289062 262.078125 513.769531 262.078125 C 521.238281 262.078125 524.480469 260.730469 529.25 258.839844 L 529.789062 258.121094 L 530.417969 247.949219 L 529.789062 247.679688 M 502.519531 231.570312 C 502.789062 228.78125 503.417969 225 506.839844 222.839844 C 507.917969 222.121094 509.179688 221.851562 510.441406 221.851562 C 513.410156 221.851562 515.210938 223.378906 516.199219 225 C 517.460938 226.980469 517.550781 229.140625 517.550781 231.210938 Z M 620.597656 197.191406 C 613.398438 197.460938 612.230469 197.460938 604.667969 197.460938 L 604.21875 198 C 604.847656 208.171875 604.847656 210.78125 604.9375 221.398438 C 600.980469 221.488281 597.019531 221.578125 592.96875 221.578125 C 589.820312 221.578125 586.578125 221.488281 583.429688 221.488281 L 583.609375 197.730469 L 583.160156 197.191406 C 576.230469 197.460938 574.878906 197.460938 567.050781 197.460938 L 566.507812 198 C 566.960938 207.269531 567.5 218.339844 567.5 240.660156 C 567.5 248.761719 567.320312 253.171875 567.140625 260.730469 L 567.589844 261.269531 C 574.160156 261 575.777344 260.910156 583.699219 261 L 584.148438 260.460938 C 583.609375 249.300781 583.519531 246.058594 583.429688 233.011719 C 587.390625 232.828125 590.71875 232.738281 594.230469 232.738281 C 597.828125 232.738281 601.429688 232.828125 605.027344 232.921875 C 605.210938 245.070312 605.210938 248.039062 604.757812 260.730469 L 605.210938 261.269531 C 611.960938 261 613.757812 260.910156 621.410156 261 L 621.859375 260.460938 C 621.140625 245.339844 620.867188 230.308594 620.867188 215.191406 C 620.867188 208.890625 620.960938 204.660156 621.050781 197.730469 Z M 648.589844 260.371094 C 648.136719 253.441406 647.777344 248.128906 647.777344 235.710938 C 647.777344 228.058594 647.957031 220.320312 648.046875 212.671875 L 647.417969 211.949219 L 631.9375 214.648438 L 631.398438 215.191406 C 632.117188 222.03125 632.386719 225.179688 632.386719 237.960938 C 632.386719 247.769531 632.117188 253.261719 631.847656 260.640625 L 632.386719 261.269531 C 638.867188 261 640.667969 260.910156 647.957031 261 L 648.589844 260.371094 M 647.148438 203.308594 L 647.417969 191.070312 L 646.878906 190.53125 L 632.207031 192.328125 L 631.667969 192.960938 C 631.847656 196.199219 631.9375 198.089844 631.9375 200.25 C 631.9375 201.960938 631.9375 203.761719 631.847656 205.46875 L 632.476562 206.011719 C 638.597656 204.929688 640.308594 204.75 646.699219 203.941406 Z M 677.480469 229.949219 C 674.417969 228.871094 671.988281 227.878906 671.988281 225.359375 C 671.988281 224.28125 672.710938 221.308594 678.289062 221.308594 C 683.78125 221.308594 687.289062 223.648438 689.539062 225.089844 L 690.351562 224.820312 L 691.25 215.011719 L 690.800781 214.46875 C 686.570312 213.300781 682.878906 212.21875 677.03125 212.21875 C 672.621094 212.21875 663.800781 212.578125 659.121094 219.328125 C 657.949219 220.949219 656.691406 223.648438 656.691406 227.25 C 656.691406 236.878906 664.160156 239.761719 668.390625 241.378906 L 671.808594 242.640625 C 674.238281 243.449219 678.199219 244.800781 678.199219 248.039062 C 678.199219 250.289062 676.128906 252.71875 671.089844 252.71875 C 668.570312 252.71875 664.878906 251.910156 661.550781 250.199219 C 660.019531 249.390625 659.300781 248.761719 657.949219 247.679688 L 657.140625 248.039062 C 656.960938 252.71875 656.871094 253.710938 656.507812 258.210938 L 656.960938 259.019531 C 661.371094 260.640625 665.148438 262.078125 671.71875 262.078125 C 678.558594 262.078125 692.058594 260.820312 693.679688 247.949219 C 693.769531 247.230469 693.769531 246.601562 693.769531 245.96875 C 693.769531 236.070312 686.839844 233.460938 681.890625 231.570312 Z M 726.890625 250.648438 C 725.359375 251.101562 724.277344 251.460938 722.75 251.460938 C 718.160156 251.460938 717.800781 248.578125 717.617188 247.230469 C 717.347656 244.890625 717.347656 239.941406 717.4375 236.339844 L 717.617188 223.648438 L 725.71875 224.011719 L 726.257812 223.46875 L 727.160156 213.839844 L 726.617188 213.300781 L 717.617188 213.300781 L 717.890625 198.179688 L 717.257812 197.640625 C 711.140625 199.441406 709.519531 199.890625 703.128906 201.511719 L 702.769531 202.140625 L 702.859375 213.390625 L 698 213.210938 L 697.460938 213.660156 L 696.648438 223.289062 L 697.1875 223.828125 L 702.859375 223.648438 L 702.589844 237.960938 C 702.5 240.210938 702.410156 242.460938 702.410156 244.800781 C 702.410156 253.078125 702.589844 261.988281 716.628906 261.988281 C 720.140625 261.988281 722.929688 261.449219 726.078125 260.910156 L 726.710938 260.28125 L 727.609375 251.011719 Z M 779.359375 237.058594 C 779.359375 233.550781 779.359375 218.96875 766.757812 214.019531 C 762.796875 212.488281 758.117188 212.308594 755.777344 212.308594 C 740.117188 212.308594 731.296875 220.679688 731.296875 237.238281 C 731.296875 243 732.199219 248.851562 735.527344 253.710938 C 737.867188 257.21875 742.277344 262.078125 755.148438 262.078125 C 774.226562 262.078125 779.359375 250.558594 779.359375 237.058594 M 763.789062 236.96875 C 763.789062 244.351562 762.796875 252.539062 755.328125 252.539062 C 752.988281 252.539062 751.367188 251.460938 750.289062 250.46875 C 748.757812 248.941406 747.046875 245.878906 747.046875 237.148438 C 747.046875 234.539062 747.046875 228.78125 748.847656 225.628906 C 750.199219 223.199219 752.539062 221.578125 755.417969 221.578125 C 757.9375 221.578125 760.007812 222.929688 761.179688 224.371094 C 763.339844 226.980469 763.789062 232.109375 763.789062 236.96875 Z M 813.921875 227.609375 L 816.441406 212.941406 L 815.902344 212.308594 C 815.273438 212.308594 814.640625 212.21875 814.011719 212.21875 C 810.320312 212.21875 806.183594 214.289062 803.300781 220.949219 L 803.570312 212.671875 L 802.851562 211.949219 C 796.191406 213.390625 794.480469 213.660156 787.910156 214.648438 L 787.371094 215.191406 C 787.910156 221.941406 788.183594 225.988281 788.183594 238.5 C 788.183594 245.878906 788.089844 253.261719 787.910156 260.730469 L 788.453125 261.269531 C 795.113281 261 796.550781 260.910156 803.75 261 L 804.203125 260.371094 C 803.839844 253.078125 803.300781 242.910156 803.300781 236.699219 C 803.300781 232.648438 803.300781 226.710938 809.421875 226.710938 C 810.953125 226.710938 811.851562 227.25 813.113281 227.96875 Z M 837.953125 260.371094 C 837.5 253.441406 837.140625 248.128906 837.140625 235.710938 C 837.140625 228.058594 837.320312 220.320312 837.410156 212.671875 L 836.78125 211.949219 L 821.300781 214.648438 L 820.761719 215.191406 C 821.480469 222.03125 821.75 225.179688 821.75 237.960938 C 821.75 247.769531 821.480469 253.261719 821.210938 260.640625 L 821.75 261.269531 C 828.230469 261 830.03125 260.910156 837.320312 261 L 837.953125 260.371094 M 836.511719 203.308594 L 836.78125 191.070312 L 836.242188 190.53125 L 821.570312 192.328125 L 821.03125 192.960938 C 821.210938 196.199219 821.300781 198.089844 821.300781 200.25 C 821.300781 201.960938 821.300781 203.761719 821.210938 205.46875 L 821.839844 206.011719 C 827.960938 204.929688 829.671875 204.75 836.0625 203.941406 Z M 883.128906 248.039062 C 880.699219 249.480469 878.359375 250.921875 873.769531 250.921875 C 863.597656 250.921875 861.527344 242.460938 861.527344 237.058594 C 861.527344 230.488281 864.410156 222.929688 873.140625 222.929688 C 877.097656 222.929688 879.257812 224.371094 881.960938 226.171875 L 882.859375 225.898438 C 883.21875 221.128906 883.308594 219.871094 884.027344 215.101562 L 883.578125 214.558594 C 879.617188 213.300781 876.199219 212.21875 870.980469 212.21875 C 849.828125 212.21875 845.6875 228.238281 845.6875 237.421875 C 845.6875 247.769531 851.089844 261.808594 871.339844 261.808594 C 876.109375 261.808594 879.167969 260.910156 882.949219 259.828125 L 883.488281 259.289062 L 883.847656 248.488281 Z M 885.648438 261 "/>
<path fill-rule="nonzero" fill="rgb(34.901961%, 14.901961%, 14.901961%)" fill-opacity="1" d="M 411.53125 317.28125 L 400.101562 317.460938 L 399.558594 318 C 399.921875 329.699219 400.191406 337.53125 400.191406 347.878906 C 400.191406 358.859375 399.921875 369.75 399.648438 380.730469 L 400.191406 381.269531 C 406.851562 381 408.289062 380.910156 415.492188 381 L 415.941406 380.460938 C 415.582031 370.648438 415.582031 368.398438 415.582031 359.21875 C 425.660156 359.308594 436.460938 359.308594 442.941406 351.390625 C 445.460938 348.328125 447.621094 343.199219 447.621094 336.898438 C 447.621094 333.03125 446.71875 324.480469 439.25 320.25 C 433.851562 317.101562 426.199219 317.101562 419.449219 317.101562 L 411.53125 317.28125 M 415.582031 328.171875 C 417.558594 328.078125 419.449219 328.078125 421.429688 328.078125 C 429.351562 328.261719 431.511719 332.308594 431.511719 337.53125 C 431.511719 338.789062 431.511719 344.011719 426.742188 346.621094 C 424.308594 347.96875 420.980469 348.148438 415.582031 348.148438 Z M 493.878906 354.179688 C 493.96875 346.078125 493.96875 342.570312 491.628906 338.789062 C 489.828125 335.910156 486.230469 332.308594 474.710938 332.308594 C 466.96875 332.308594 462.199219 333.75 457.070312 335.28125 L 456.53125 336 L 456.078125 345.808594 L 456.800781 346.171875 C 459.949219 344.910156 465.800781 342.570312 471.828125 342.570312 C 475.160156 342.570312 476.507812 343.109375 477.679688 344.28125 C 478.578125 345.179688 478.851562 346.800781 478.851562 348.148438 C 468.050781 349.589844 463.007812 350.578125 457.609375 353.910156 C 452.570312 357.058594 450.859375 362.191406 450.859375 366.238281 C 450.859375 375.871094 457.789062 382.078125 466.609375 382.078125 C 473.359375 382.078125 477.230469 378.839844 479.121094 377.308594 L 479.121094 380.640625 L 479.660156 381.269531 C 486.140625 381 488.121094 380.910156 493.96875 381 L 494.417969 380.371094 C 493.789062 371.550781 493.789062 369.300781 493.789062 360.839844 L 493.878906 354.179688 M 479.03125 368.488281 C 477.140625 369.570312 474.710938 370.828125 471.738281 370.828125 C 468.5 370.828125 465.800781 369.121094 465.800781 365.339844 C 465.800781 359.398438 472.910156 358.410156 479.03125 357.601562 Z M 530.421875 347.609375 L 532.941406 332.941406 L 532.402344 332.308594 C 531.773438 332.308594 531.140625 332.21875 530.511719 332.21875 C 526.820312 332.21875 522.683594 334.289062 519.800781 340.949219 L 520.070312 332.671875 L 519.351562 331.949219 C 512.691406 333.390625 510.980469 333.660156 504.410156 334.648438 L 503.871094 335.191406 C 504.410156 341.941406 504.683594 345.988281 504.683594 358.5 C 504.683594 365.878906 504.589844 373.261719 504.410156 380.730469 L 504.953125 381.269531 C 511.613281 381 513.050781 380.910156 520.25 381 L 520.703125 380.371094 C 520.339844 373.078125 519.800781 362.910156 519.800781 356.699219 C 519.800781 352.648438 519.800781 346.710938 525.921875 346.710938 C 527.453125 346.710938 528.351562 347.25 529.613281 347.96875 Z M 584.421875 379.828125 C 575.960938 365.519531 575.0625 363.898438 568.222656 351.570312 C 574.433594 343.109375 575.0625 342.210938 581.453125 334.019531 L 581 333.121094 L 566.332031 333.300781 L 565.433594 333.929688 C 558.410156 346.078125 557.511719 347.519531 553.371094 353.730469 L 553.371094 343.738281 C 553.460938 326.910156 553.550781 323.308594 554 309.71875 L 553.28125 309.179688 L 537.621094 311.519531 L 537.082031 312.148438 C 537.710938 320.878906 537.980469 325.109375 538.160156 336.898438 C 538.339844 351.480469 538.339844 366.058594 538.25 380.640625 L 538.882812 381.269531 C 544.910156 381 546.621094 381 553.460938 381 L 554 380.371094 L 553.460938 365.160156 L 553.371094 354.808594 C 561.203125 369.210938 562.191406 371.191406 566.78125 380.730469 L 567.589844 381.269531 L 583.792969 380.640625 Z M 583.339844 381 "/>
</svg>
