<?xml version="1.0" encoding="UTF-8"?>
<svg xmlns="http://www.w3.org/2000/svg" xmlns:xlink="http://www.w3.org/1999/xlink" width="975" height="1300" viewBox="0 0 975 1300">
<path fill-rule="nonzero" fill="rgb(98.823529%, 78.823529%, 9.019608%)" fill-opacity="1" d="M 50 50 L 925 50 L 925 290 L 50 290 Z M 50 50 "/>
<path fill-rule="nonzero" fill="rgb(34.901961%, 14.901961%, 14.901961%)" fill-opacity="1" d="M 199.804688 77.28125 L 188.375 77.460938 L 187.832031 78 C 188.195312 89.699219 188.464844 97.53125 188.464844 107.878906 C 188.464844 118.859375 188.195312 129.75 187.921875 140.730469 L 188.464844 141.269531 C 195.125 141 196.5625 140.910156 203.765625 141 L 204.214844 140.460938 C 203.855469 130.648438 203.855469 128.398438 203.855469 119.21875 C 213.933594 119.308594 224.734375 119.308594 231.214844 111.390625 C 233.734375 108.328125 235.894531 103.199219 235.894531 96.898438 C 235.894531 93.03125 234.992188 84.480469 227.523438 80.25 C 222.125 77.101562 214.472656 77.101562 207.722656 77.101562 L 199.804688 77.28125 M 203.855469 88.171875 C 205.832031 88.078125 207.722656 88.078125 209.703125 88.078125 C 217.625 88.261719 219.785156 92.308594 219.785156 97.53125 C 219.785156 98.789062 219.785156 104.011719 215.015625 106.621094 C 212.582031 107.96875 209.253906 108.148438 203.855469 108.148438 Z M 287.914062 117.058594 C 287.914062 113.550781 287.914062 98.96875 275.3125 94.019531 C 271.351562 92.488281 266.671875 92.308594 264.332031 92.308594 C 248.671875 92.308594 239.851562 100.679688 239.851562 117.238281 C 239.851562 123 240.753906 128.851562 244.082031 133.710938 C 246.421875 137.21875 250.832031 142.078125 263.703125 142.078125 C 282.78125 142.078125 287.914062 130.558594 287.914062 117.058594 M 272.34375 116.96875 C 272.34375 124.351562 271.351562 132.539062 263.882812 132.539062 C 261.542969 132.539062 259.921875 131.460938 258.84375 130.46875 C 257.3125 128.941406 255.601562 125.878906 255.601562 117.148438 C 255.601562 114.539062 255.601562 108.78125 257.402344 105.628906 C 258.753906 103.199219 261.09375 101.578125 263.972656 101.578125 C 266.492188 101.578125 268.5625 102.929688 269.734375 104.371094 C 271.894531 106.980469 272.34375 112.109375 272.34375 116.96875 Z M 312.753906 140.371094 C 312.300781 133.441406 311.941406 128.128906 311.941406 115.710938 C 311.941406 108.058594 312.121094 100.320312 312.210938 92.671875 L 311.582031 91.949219 L 296.101562 94.648438 L 295.5625 95.191406 C 296.28125 102.03125 296.550781 105.179688 296.550781 117.960938 C 296.550781 127.769531 296.28125 133.261719 296.011719 140.640625 L 296.550781 141.269531 C 303.03125 141 304.832031 140.910156 312.121094 141 L 312.753906 140.371094 M 311.3125 83.308594 L 311.582031 71.070312 L 311.042969 70.53125 L 296.371094 72.328125 L 295.832031 72.960938 C 296.011719 76.199219 296.101562 78.089844 296.101562 80.25 C 296.101562 81.960938 296.101562 83.761719 296.011719 85.46875 L 296.640625 86.011719 C 302.761719 84.929688 304.472656 84.75 310.863281 83.941406 Z M 366.84375 140.371094 C 366.394531 132.449219 366.394531 129.929688 366.214844 121.109375 L 366.214844 114.089844 C 366.125 105.449219 366.035156 101.308594 363.785156 97.621094 C 360.992188 92.941406 355.863281 92.21875 352.625 92.21875 C 347.132812 92.21875 342.363281 95.101562 338.222656 97.53125 L 338.402344 92.578125 L 337.503906 91.949219 C 330.574219 93.390625 329.042969 93.660156 322.292969 94.558594 L 321.753906 95.191406 C 322.472656 103.019531 323.015625 108.691406 323.015625 123.359375 C 323.015625 129.121094 322.921875 134.878906 322.832031 140.640625 L 323.375 141.179688 C 329.855469 140.910156 331.203125 140.910156 338.402344 140.910156 L 338.945312 140.371094 C 338.402344 126.511719 338.3125 123 338.222656 106.890625 C 340.113281 105.628906 342.273438 104.101562 345.152344 104.101562 C 350.105469 104.101562 350.554688 109.410156 350.824219 112.648438 C 351.003906 115.621094 351.09375 127.949219 351.09375 131.371094 C 351.09375 134.429688 351.003906 137.578125 351.003906 140.640625 L 351.542969 141.179688 C 357.484375 141 359.015625 140.910156 366.214844 140.910156 Z M 402.304688 130.648438 C 400.773438 131.101562 399.691406 131.460938 398.164062 131.460938 C 393.574219 131.460938 393.214844 128.578125 393.03125 127.230469 C 392.761719 124.890625 392.761719 119.941406 392.851562 116.339844 L 393.03125 103.648438 L 401.132812 104.011719 L 401.671875 103.46875 L 402.574219 93.839844 L 402.03125 93.300781 L 393.03125 93.300781 L 393.304688 78.179688 L 392.671875 77.640625 C 386.554688 79.441406 384.933594 79.890625 378.542969 81.511719 L 378.183594 82.140625 L 378.273438 93.390625 L 373.414062 93.210938 L 372.875 93.660156 L 372.0625 103.289062 L 372.601562 103.828125 L 378.273438 103.648438 L 378.003906 117.960938 C 377.914062 120.210938 377.824219 122.460938 377.824219 124.800781 C 377.824219 133.078125 378.003906 141.988281 392.042969 141.988281 C 395.554688 141.988281 398.34375 141.449219 401.492188 140.910156 L 402.125 140.28125 L 403.023438 131.011719 Z M 461.253906 102.300781 C 453.695312 99.148438 449.734375 97.53125 449.734375 93.480469 C 449.734375 90.691406 452.34375 87.179688 458.285156 87.179688 C 465.125 87.179688 469.171875 89.96875 472.503906 92.21875 L 473.3125 91.859375 L 474.035156 80.070312 L 473.582031 79.441406 C 469.714844 77.820312 465.664062 76.109375 456.933594 76.109375 C 440.015625 76.109375 434.164062 85.648438 434.164062 95.28125 C 434.164062 106.171875 442.625 110.128906 447.664062 112.558594 L 450.632812 113.910156 C 456.84375 116.519531 461.613281 118.769531 461.613281 123.539062 C 461.613281 126.960938 458.644531 131.011719 450.8125 131.011719 C 442.625 131.011719 438.035156 127.410156 435.421875 125.339844 L 434.523438 125.609375 L 433.894531 138.300781 L 434.433594 139.019531 C 435.421875 139.378906 436.414062 139.828125 437.402344 140.101562 C 439.472656 140.820312 444.785156 142.351562 451.535156 142.351562 C 454.234375 142.351562 461.074219 142.078125 466.472656 139.558594 C 474.035156 135.871094 477.273438 129.03125 477.273438 121.378906 C 477.273438 116.25 475.292969 110.761719 470.523438 107.070312 C 468.09375 105.269531 465.753906 104.191406 463.59375 103.199219 Z M 525.871094 114.179688 C 525.960938 106.078125 525.960938 102.570312 523.621094 98.789062 C 521.820312 95.910156 518.222656 92.308594 506.703125 92.308594 C 498.960938 92.308594 494.191406 93.75 489.0625 95.28125 L 488.523438 96 L 488.070312 105.808594 L 488.792969 106.171875 C 491.941406 104.910156 497.792969 102.570312 503.820312 102.570312 C 507.152344 102.570312 508.5 103.109375 509.671875 104.28125 C 510.570312 105.179688 510.84375 106.800781 510.84375 108.148438 C 500.042969 109.589844 495 110.578125 489.601562 113.910156 C 484.5625 117.058594 482.851562 122.191406 482.851562 126.238281 C 482.851562 135.871094 489.78125 142.078125 498.601562 142.078125 C 505.351562 142.078125 509.222656 138.839844 511.113281 137.308594 L 511.113281 140.640625 L 511.652344 141.269531 C 518.132812 141 520.113281 140.910156 525.960938 141 L 526.410156 140.371094 C 525.78125 131.550781 525.78125 129.300781 525.78125 120.839844 L 525.871094 114.179688 M 511.023438 128.488281 C 509.132812 129.570312 506.703125 130.828125 503.730469 130.828125 C 500.492188 130.828125 497.792969 129.121094 497.792969 125.339844 C 497.792969 119.398438 504.902344 118.410156 511.023438 117.601562 Z M 552.242188 140.371094 C 551.792969 130.019531 551.34375 120.570312 551.34375 92.128906 C 551.34375 83.578125 551.433594 79.53125 551.792969 69.808594 L 551.164062 69.179688 L 535.773438 71.609375 L 535.414062 72.148438 C 536.3125 83.128906 536.402344 86.101562 536.582031 100.679688 C 536.675781 105.988281 536.675781 111.300781 536.675781 116.609375 C 536.675781 126.328125 536.492188 131.730469 536.132812 140.640625 L 536.675781 141.269531 C 542.703125 141 545.132812 140.910156 551.703125 141 Z M 614.972656 102.300781 C 607.414062 99.148438 603.453125 97.53125 603.453125 93.480469 C 603.453125 90.691406 606.0625 87.179688 612.003906 87.179688 C 618.84375 87.179688 622.890625 89.96875 626.222656 92.21875 L 627.03125 91.859375 L 627.753906 80.070312 L 627.300781 79.441406 C 623.433594 77.820312 619.382812 76.109375 610.652344 76.109375 C 593.734375 76.109375 587.882812 85.648438 587.882812 95.28125 C 587.882812 106.171875 596.34375 110.128906 601.382812 112.558594 L 604.351562 113.910156 C 610.5625 116.519531 615.332031 118.769531 615.332031 123.539062 C 615.332031 126.960938 612.363281 131.011719 604.53125 131.011719 C 596.34375 131.011719 591.753906 127.410156 589.140625 125.339844 L 588.242188 125.609375 L 587.613281 138.300781 L 588.152344 139.019531 C 589.140625 139.378906 590.132812 139.828125 591.121094 140.101562 C 593.191406 140.820312 598.503906 142.351562 605.253906 142.351562 C 607.953125 142.351562 614.792969 142.078125 620.191406 139.558594 C 627.753906 135.871094 630.992188 129.03125 630.992188 121.378906 C 630.992188 116.25 629.011719 110.761719 624.242188 107.070312 C 621.8125 105.269531 619.472656 104.191406 617.3125 103.199219 Z M 664.746094 130.648438 C 663.214844 131.101562 662.132812 131.460938 660.605469 131.460938 C 656.015625 131.460938 655.65625 128.578125 655.472656 127.230469 C 655.203125 124.890625 655.203125 119.941406 655.292969 116.339844 L 655.472656 103.648438 L 663.574219 104.011719 L 664.113281 103.46875 L 665.015625 93.839844 L 664.472656 93.300781 L 655.472656 93.300781 L 655.746094 78.179688 L 655.113281 77.640625 C 648.996094 79.441406 647.375 79.890625 640.984375 81.511719 L 640.625 82.140625 L 640.714844 93.390625 L 635.855469 93.210938 L 635.316406 93.660156 L 634.503906 103.289062 L 635.042969 103.828125 L 640.714844 103.648438 L 640.445312 117.960938 C 640.355469 120.210938 640.265625 122.460938 640.265625 124.800781 C 640.265625 133.078125 640.445312 141.988281 654.484375 141.988281 C 657.996094 141.988281 660.785156 141.449219 663.933594 140.910156 L 664.566406 140.28125 L 665.464844 131.011719 Z M 711.453125 114.179688 C 711.542969 106.078125 711.542969 102.570312 709.203125 98.789062 C 707.402344 95.910156 703.804688 92.308594 692.285156 92.308594 C 684.542969 92.308594 679.773438 93.75 674.644531 95.28125 L 674.105469 96 L 673.652344 105.808594 L 674.375 106.171875 C 677.523438 104.910156 683.375 102.570312 689.402344 102.570312 C 692.734375 102.570312 694.082031 103.109375 695.253906 104.28125 C 696.152344 105.179688 696.425781 106.800781 696.425781 108.148438 C 685.625 109.589844 680.582031 110.578125 675.183594 113.910156 C 670.144531 117.058594 668.433594 122.191406 668.433594 126.238281 C 668.433594 135.871094 675.363281 142.078125 684.183594 142.078125 C 690.933594 142.078125 694.804688 138.839844 696.695312 137.308594 L 696.695312 140.640625 L 697.234375 141.269531 C 703.714844 141 705.695312 140.910156 711.542969 141 L 711.992188 140.371094 C 711.363281 131.550781 711.363281 129.300781 711.363281 120.839844 L 711.453125 114.179688 M 696.605469 128.488281 C 694.714844 129.570312 692.285156 130.828125 689.3125 130.828125 C 686.074219 130.828125 683.375 129.121094 683.375 125.339844 C 683.375 119.398438 690.484375 118.410156 696.605469 117.601562 Z M 747.183594 130.648438 C 745.652344 131.101562 744.570312 131.460938 743.042969 131.460938 C 738.453125 131.460938 738.09375 128.578125 737.910156 127.230469 C 737.640625 124.890625 737.640625 119.941406 737.730469 116.339844 L 737.910156 103.648438 L 746.011719 104.011719 L 746.550781 103.46875 L 747.453125 93.839844 L 746.910156 93.300781 L 737.910156 93.300781 L 738.183594 78.179688 L 737.550781 77.640625 C 731.433594 79.441406 729.8125 79.890625 723.421875 81.511719 L 723.0625 82.140625 L 723.152344 93.390625 L 718.292969 93.210938 L 717.753906 93.660156 L 716.941406 103.289062 L 717.480469 103.828125 L 723.152344 103.648438 L 722.882812 117.960938 C 722.792969 120.210938 722.703125 122.460938 722.703125 124.800781 C 722.703125 133.078125 722.882812 141.988281 736.921875 141.988281 C 740.433594 141.988281 743.222656 141.449219 746.371094 140.910156 L 747.003906 140.28125 L 747.902344 131.011719 Z M 793.804688 127.679688 C 790.386719 129.480469 786.335938 131.550781 779.765625 131.550781 C 774.367188 131.550781 770.675781 129.839844 768.515625 126.601562 C 767.164062 124.710938 766.894531 122.910156 766.535156 121.109375 L 795.605469 120.570312 L 796.144531 119.941406 C 796.054688 115.53125 795.964844 111.03125 794.707031 106.53125 C 791.554688 95.910156 784.625 93.75 781.566406 93.03125 C 779.316406 92.398438 777.246094 92.21875 775.175781 92.21875 C 761.046875 92.21875 751.683594 101.488281 751.683594 117.058594 C 751.683594 121.289062 752.40625 125.699219 753.84375 128.851562 C 759.066406 141 771.304688 142.078125 777.785156 142.078125 C 785.253906 142.078125 788.496094 140.730469 793.265625 138.839844 L 793.804688 138.121094 L 794.433594 127.949219 L 793.804688 127.679688 M 766.535156 111.570312 C 766.804688 108.78125 767.433594 105 770.855469 102.839844 C 771.933594 102.121094 773.195312 101.851562 774.457031 101.851562 C 777.425781 101.851562 779.226562 103.378906 780.214844 105 C 781.476562 106.980469 781.566406 109.140625 781.566406 111.210938 Z M 799.023438 141 "/>
<path fill-rule="nonzero" fill="rgb(34.901961%, 14.901961%, 14.901961%)" fill-opacity="1" d="M 385.519531 261 C 393.890625 261.179688 404.238281 261.359375 410.988281 256.679688 C 416.929688 252.449219 418.550781 246.511719 418.550781 241.46875 C 418.550781 235.710938 416.117188 230.398438 410.988281 227.878906 C 409.277344 226.980469 407.300781 226.621094 405.410156 226.261719 C 408.46875 225 412.070312 223.378906 414.410156 218.609375 C 415.398438 216.539062 415.847656 214.378906 415.847656 212.308594 C 415.847656 209.429688 415.128906 205.46875 412.25 202.230469 C 408.46875 198.179688 402.617188 197.101562 393.800781 197.101562 C 390.738281 197.101562 385.25 197.191406 382.1875 197.28125 L 369.589844 197.460938 L 369.050781 198 C 369.410156 206.640625 369.5 209.96875 369.5 222.390625 C 369.5 235.171875 369.410156 247.859375 369.230469 260.640625 L 369.859375 261 L 385.519531 261 M 384.890625 233.640625 C 391.730469 233.460938 395.6875 233.460938 398.300781 234.988281 C 400.910156 236.609375 401.898438 239.488281 401.898438 242.371094 C 401.898438 246.421875 399.648438 248.941406 396.320312 250.109375 C 393.617188 251.011719 388.757812 251.011719 384.890625 250.921875 L 384.890625 233.640625 M 384.890625 207.179688 C 386.777344 207.179688 389.300781 207.089844 390.828125 207.089844 C 395.6875 207.089844 400.097656 208.800781 400.097656 214.648438 C 400.097656 219.421875 396.589844 221.398438 395.507812 221.941406 C 393.257812 222.929688 388.488281 222.929688 384.890625 222.929688 Z M 466.878906 247.679688 C 463.460938 249.480469 459.410156 251.550781 452.839844 251.550781 C 447.441406 251.550781 443.75 249.839844 441.589844 246.601562 C 440.238281 244.710938 439.96875 242.910156 439.609375 241.109375 L 468.679688 240.570312 L 469.21875 239.941406 C 469.128906 235.53125 469.039062 231.03125 467.78125 226.53125 C 464.628906 215.910156 457.699219 213.75 454.640625 213.03125 C 452.390625 212.398438 450.320312 212.21875 448.25 212.21875 C 434.121094 212.21875 424.757812 221.488281 424.757812 237.058594 C 424.757812 241.289062 425.480469 245.699219 426.917969 248.851562 C 432.140625 261 444.378906 262.078125 450.859375 262.078125 C 458.328125 262.078125 461.570312 260.730469 466.339844 258.839844 L 466.878906 258.121094 L 467.507812 247.949219 L 466.878906 247.679688 M 439.609375 231.570312 C 439.878906 228.78125 440.507812 225 443.929688 222.839844 C 445.007812 222.121094 446.269531 221.851562 447.53125 221.851562 C 450.5 221.851562 452.300781 223.378906 453.289062 225 C 454.550781 226.980469 454.640625 229.140625 454.640625 231.210938 Z M 517.546875 234.179688 C 517.636719 226.078125 517.636719 222.570312 515.296875 218.789062 C 513.496094 215.910156 509.898438 212.308594 498.378906 212.308594 C 490.636719 212.308594 485.867188 213.75 480.738281 215.28125 L 480.199219 216 L 479.746094 225.808594 L 480.46875 226.171875 C 483.617188 224.910156 489.46875 222.570312 495.496094 222.570312 C 498.828125 222.570312 500.175781 223.109375 501.347656 224.28125 C 502.246094 225.179688 502.519531 226.800781 502.519531 228.148438 C 491.71875 229.589844 486.675781 230.578125 481.277344 233.910156 C 476.238281 237.058594 474.527344 242.191406 474.527344 246.238281 C 474.527344 255.871094 481.457031 262.078125 490.277344 262.078125 C 497.027344 262.078125 500.898438 258.839844 502.789062 257.308594 L 502.789062 260.640625 L 503.328125 261.269531 C 509.808594 261 511.789062 260.910156 517.636719 261 L 518.085938 260.371094 C 517.457031 251.550781 517.457031 249.300781 517.457031 240.839844 L 517.546875 234.179688 M 502.699219 248.488281 C 500.808594 249.570312 498.378906 250.828125 495.40625 250.828125 C 492.167969 250.828125 489.46875 249.121094 489.46875 245.339844 C 489.46875 239.398438 496.578125 238.410156 502.699219 237.601562 Z M 563.269531 248.039062 C 560.839844 249.480469 558.5 250.921875 553.910156 250.921875 C 543.738281 250.921875 541.667969 242.460938 541.667969 237.058594 C 541.667969 230.488281 544.550781 222.929688 553.28125 222.929688 C 557.238281 222.929688 559.398438 224.371094 562.101562 226.171875 L 563 225.898438 C 563.359375 221.128906 563.449219 219.871094 564.167969 215.101562 L 563.71875 214.558594 C 559.757812 213.300781 556.339844 212.21875 551.121094 212.21875 C 529.96875 212.21875 525.828125 228.238281 525.828125 237.421875 C 525.828125 247.769531 531.230469 261.808594 551.480469 261.808594 C 556.25 261.808594 559.308594 260.910156 563.089844 259.828125 L 563.628906 259.289062 L 563.988281 248.488281 Z M 615.289062 260.371094 C 614.929688 252.988281 614.839844 250.46875 614.660156 241.109375 L 614.660156 234.359375 C 614.570312 225.808594 614.480469 220.859375 611.867188 217.078125 C 609.257812 213.390625 605.480469 212.21875 601.519531 212.21875 C 594.949219 212.21875 589.820312 215.371094 586.21875 217.53125 L 586.488281 189.808594 L 585.949219 189.179688 L 570.558594 191.609375 L 570.109375 192.148438 C 570.917969 200.878906 571.097656 204.121094 571.277344 215.730469 C 571.460938 223.019531 571.550781 230.308594 571.550781 237.601562 C 571.550781 246.511719 571.367188 251.820312 571.1875 260.640625 L 571.640625 261.269531 C 578.300781 260.910156 579.648438 260.910156 586.9375 260.910156 L 587.480469 260.371094 C 586.847656 246.871094 586.757812 242.820312 586.667969 226.890625 C 588.378906 225.71875 590.539062 224.191406 593.597656 224.191406 C 598.550781 224.191406 598.910156 229.320312 599.269531 232.921875 C 599.449219 235.710938 599.539062 248.488281 599.539062 251.820312 C 599.539062 254.789062 599.449219 257.671875 599.449219 260.640625 L 599.898438 261.269531 C 606.378906 260.910156 607.820312 260.910156 614.75 260.910156 Z M 620.148438 261 "/>
</svg>
