<?xml version="1.0" encoding="UTF-8"?>
<svg xmlns="http://www.w3.org/2000/svg" xmlns:xlink="http://www.w3.org/1999/xlink" width="975" height="1300" viewBox="0 0 975 1300">
<path fill-rule="nonzero" fill="rgb(98.823529%, 78.823529%, 9.019608%)" fill-opacity="1" d="M 50 50 L 925 50 L 925 170 L 50 170 Z M 50 50 "/>
<path fill-rule="nonzero" fill="rgb(34.901961%, 14.901961%, 14.901961%)" fill-opacity="1" d="M 156.964844 123.179688 C 156.964844 118.679688 157.054688 114.179688 157.144531 109.589844 L 156.695312 109.050781 L 141.394531 109.320312 L 140.945312 109.859375 C 141.753906 118.679688 141.84375 120.839844 141.664062 129.03125 C 139.234375 129.570312 137.4375 130.019531 134.914062 130.019531 C 120.964844 130.019531 118.445312 116.699219 118.445312 109.949219 C 118.445312 95.730469 126.09375 87.988281 137.4375 87.988281 C 144.277344 87.988281 148.324219 90.691406 152.554688 93.480469 L 153.277344 93.210938 C 153.726562 87.628906 153.90625 86.191406 154.625 80.789062 L 154.175781 80.25 C 150.394531 78.628906 144.367188 76.109375 135.003906 76.109375 C 124.746094 76.109375 113.496094 78.988281 106.386719 91.050781 C 103.144531 96.71875 101.796875 104.011719 101.796875 110.039062 C 101.796875 118.5 104.046875 125.609375 108.09375 130.828125 C 113.40625 137.671875 119.976562 139.828125 123.484375 140.820312 C 126.09375 141.539062 129.964844 142.351562 135.546875 142.351562 C 144.816406 142.351562 150.484375 140.460938 156.785156 138.390625 L 157.234375 137.671875 C 157.144531 133.53125 156.964844 129.390625 156.964844 125.25 Z M 207.183594 114.179688 C 207.273438 106.078125 207.273438 102.570312 204.933594 98.789062 C 203.132812 95.910156 199.535156 92.308594 188.015625 92.308594 C 180.273438 92.308594 175.503906 93.75 170.375 95.28125 L 169.835938 96 L 169.382812 105.808594 L 170.105469 106.171875 C 173.253906 104.910156 179.105469 102.570312 185.132812 102.570312 C 188.464844 102.570312 189.8125 103.109375 190.984375 104.28125 C 191.882812 105.179688 192.15625 106.800781 192.15625 108.148438 C 181.355469 109.589844 176.3125 110.578125 170.914062 113.910156 C 165.875 117.058594 164.164062 122.191406 164.164062 126.238281 C 164.164062 135.871094 171.09375 142.078125 179.914062 142.078125 C 186.664062 142.078125 190.535156 138.839844 192.425781 137.308594 L 192.425781 140.640625 L 192.964844 141.269531 C 199.445312 141 201.425781 140.910156 207.273438 141 L 207.722656 140.371094 C 207.09375 131.550781 207.09375 129.300781 207.09375 120.839844 L 207.183594 114.179688 M 192.335938 128.488281 C 190.445312 129.570312 188.015625 130.828125 185.042969 130.828125 C 181.804688 130.828125 179.105469 129.121094 179.105469 125.339844 C 179.105469 119.398438 186.214844 118.410156 192.335938 117.601562 Z M 242.554688 140.28125 C 245.4375 131.28125 247.144531 125.699219 249.035156 120.03125 C 251.464844 112.738281 255.425781 101.039062 257.945312 93.660156 L 257.496094 93.03125 L 244.894531 93.300781 L 244.265625 93.929688 C 243.007812 99.960938 242.738281 101.21875 240.9375 108.238281 L 236.347656 125.96875 L 234.097656 116.25 L 232.386719 109.320312 C 230.136719 100.949219 229.777344 99.238281 228.515625 93.300781 L 227.886719 92.761719 C 220.777344 93.570312 218.976562 93.660156 212.136719 93.75 L 211.777344 94.46875 C 223.746094 129.929688 224.738281 133.261719 226.714844 140.640625 L 227.347656 141.269531 C 233.195312 141 235.535156 140.910156 242.015625 141 Z M 279.007812 140.371094 C 278.554688 133.441406 278.195312 128.128906 278.195312 115.710938 C 278.195312 108.058594 278.375 100.320312 278.464844 92.671875 L 277.835938 91.949219 L 262.355469 94.648438 L 261.816406 95.191406 C 262.535156 102.03125 262.804688 105.179688 262.804688 117.960938 C 262.804688 127.769531 262.535156 133.261719 262.265625 140.640625 L 262.804688 141.269531 C 269.285156 141 271.085938 140.910156 278.375 141 L 279.007812 140.371094 M 277.566406 83.308594 L 277.835938 71.070312 L 277.296875 70.53125 L 262.625 72.328125 L 262.085938 72.960938 C 262.265625 76.199219 262.355469 78.089844 262.355469 80.25 C 262.355469 81.960938 262.355469 83.761719 262.265625 85.46875 L 262.894531 86.011719 C 269.015625 84.929688 270.726562 84.75 277.117188 83.941406 Z M 334.804688 117.058594 C 334.804688 113.550781 334.804688 98.96875 322.203125 94.019531 C 318.242188 92.488281 313.5625 92.308594 311.222656 92.308594 C 295.5625 92.308594 286.742188 100.679688 286.742188 117.238281 C 286.742188 123 287.644531 128.851562 290.972656 133.710938 C 293.3125 137.21875 297.722656 142.078125 310.59375 142.078125 C 329.671875 142.078125 334.804688 130.558594 334.804688 117.058594 M 319.234375 116.96875 C 319.234375 124.351562 318.242188 132.539062 310.773438 132.539062 C 308.433594 132.539062 306.8125 131.460938 305.734375 130.46875 C 304.203125 128.941406 302.492188 125.878906 302.492188 117.148438 C 302.492188 114.539062 302.492188 108.78125 304.292969 105.628906 C 305.644531 103.199219 307.984375 101.578125 310.863281 101.578125 C 313.382812 101.578125 315.453125 102.929688 316.625 104.371094 C 318.785156 106.980469 319.234375 112.109375 319.234375 116.96875 Z M 368.558594 130.648438 C 367.027344 131.101562 365.945312 131.460938 364.417969 131.460938 C 359.828125 131.460938 359.46875 128.578125 359.285156 127.230469 C 359.015625 124.890625 359.015625 119.941406 359.105469 116.339844 L 359.285156 103.648438 L 367.386719 104.011719 L 367.925781 103.46875 L 368.828125 93.839844 L 368.285156 93.300781 L 359.285156 93.300781 L 359.558594 78.179688 L 358.925781 77.640625 C 352.808594 79.441406 351.1875 79.890625 344.796875 81.511719 L 344.4375 82.140625 L 344.527344 93.390625 L 339.667969 93.210938 L 339.128906 93.660156 L 338.316406 103.289062 L 338.855469 103.828125 L 344.527344 103.648438 L 344.257812 117.960938 C 344.167969 120.210938 344.078125 122.460938 344.078125 124.800781 C 344.078125 133.078125 344.257812 141.988281 358.296875 141.988281 C 361.808594 141.988281 364.597656 141.449219 367.746094 140.910156 L 368.378906 140.28125 L 369.277344 131.011719 Z M 415.265625 114.179688 C 415.355469 106.078125 415.355469 102.570312 413.015625 98.789062 C 411.214844 95.910156 407.617188 92.308594 396.097656 92.308594 C 388.355469 92.308594 383.585938 93.75 378.457031 95.28125 L 377.917969 96 L 377.464844 105.808594 L 378.1875 106.171875 C 381.335938 104.910156 387.1875 102.570312 393.214844 102.570312 C 396.546875 102.570312 397.894531 103.109375 399.066406 104.28125 C 399.964844 105.179688 400.238281 106.800781 400.238281 108.148438 C 389.4375 109.589844 384.394531 110.578125 378.996094 113.910156 C 373.957031 117.058594 372.246094 122.191406 372.246094 126.238281 C 372.246094 135.871094 379.175781 142.078125 387.996094 142.078125 C 394.746094 142.078125 398.617188 138.839844 400.507812 137.308594 L 400.507812 140.640625 L 401.046875 141.269531 C 407.527344 141 409.507812 140.910156 415.355469 141 L 415.804688 140.371094 C 415.175781 131.550781 415.175781 129.300781 415.175781 120.839844 L 415.265625 114.179688 M 400.417969 128.488281 C 398.527344 129.570312 396.097656 130.828125 393.125 130.828125 C 389.886719 130.828125 387.1875 129.121094 387.1875 125.339844 C 387.1875 119.398438 394.296875 118.410156 400.417969 117.601562 Z M 478.085938 102.300781 C 470.527344 99.148438 466.566406 97.53125 466.566406 93.480469 C 466.566406 90.691406 469.175781 87.179688 475.117188 87.179688 C 481.957031 87.179688 486.003906 89.96875 489.335938 92.21875 L 490.144531 91.859375 L 490.867188 80.070312 L 490.414062 79.441406 C 486.546875 77.820312 482.496094 76.109375 473.765625 76.109375 C 456.847656 76.109375 450.996094 85.648438 450.996094 95.28125 C 450.996094 106.171875 459.457031 110.128906 464.496094 112.558594 L 467.464844 113.910156 C 473.675781 116.519531 478.445312 118.769531 478.445312 123.539062 C 478.445312 126.960938 475.476562 131.011719 467.644531 131.011719 C 459.457031 131.011719 454.867188 127.410156 452.253906 125.339844 L 451.355469 125.609375 L 450.726562 138.300781 L 451.265625 139.019531 C 452.253906 139.378906 453.246094 139.828125 454.234375 140.101562 C 456.304688 140.820312 461.617188 142.351562 468.367188 142.351562 C 471.066406 142.351562 477.90625 142.078125 483.304688 139.558594 C 490.867188 135.871094 494.105469 129.03125 494.105469 121.378906 C 494.105469 116.25 492.125 110.761719 487.355469 107.070312 C 484.925781 105.269531 482.585938 104.191406 480.425781 103.199219 Z M 527.855469 130.648438 C 526.324219 131.101562 525.242188 131.460938 523.714844 131.460938 C 519.125 131.460938 518.765625 128.578125 518.582031 127.230469 C 518.3125 124.890625 518.3125 119.941406 518.402344 116.339844 L 518.582031 103.648438 L 526.683594 104.011719 L 527.222656 103.46875 L 528.125 93.839844 L 527.582031 93.300781 L 518.582031 93.300781 L 518.855469 78.179688 L 518.222656 77.640625 C 512.105469 79.441406 510.484375 79.890625 504.09375 81.511719 L 503.734375 82.140625 L 503.824219 93.390625 L 498.964844 93.210938 L 498.425781 93.660156 L 497.613281 103.289062 L 498.152344 103.828125 L 503.824219 103.648438 L 503.554688 117.960938 C 503.464844 120.210938 503.375 122.460938 503.375 124.800781 C 503.375 133.078125 503.554688 141.988281 517.59375 141.988281 C 521.105469 141.988281 523.894531 141.449219 527.042969 140.910156 L 527.675781 140.28125 L 528.574219 131.011719 Z M 574.566406 114.179688 C 574.65625 106.078125 574.65625 102.570312 572.316406 98.789062 C 570.515625 95.910156 566.917969 92.308594 555.398438 92.308594 C 547.65625 92.308594 542.886719 93.75 537.757812 95.28125 L 537.21875 96 L 536.765625 105.808594 L 537.488281 106.171875 C 540.636719 104.910156 546.488281 102.570312 552.515625 102.570312 C 555.847656 102.570312 557.195312 103.109375 558.367188 104.28125 C 559.265625 105.179688 559.539062 106.800781 559.539062 108.148438 C 548.738281 109.589844 543.695312 110.578125 538.296875 113.910156 C 533.257812 117.058594 531.546875 122.191406 531.546875 126.238281 C 531.546875 135.871094 538.476562 142.078125 547.296875 142.078125 C 554.046875 142.078125 557.917969 138.839844 559.808594 137.308594 L 559.808594 140.640625 L 560.347656 141.269531 C 566.828125 141 568.808594 140.910156 574.65625 141 L 575.105469 140.371094 C 574.476562 131.550781 574.476562 129.300781 574.476562 120.839844 L 574.566406 114.179688 M 559.71875 128.488281 C 557.828125 129.570312 555.398438 130.828125 552.425781 130.828125 C 549.1875 130.828125 546.488281 129.121094 546.488281 125.339844 C 546.488281 119.398438 553.597656 118.410156 559.71875 117.601562 Z M 610.296875 130.648438 C 608.765625 131.101562 607.683594 131.460938 606.15625 131.460938 C 601.566406 131.460938 601.207031 128.578125 601.023438 127.230469 C 600.753906 124.890625 600.753906 119.941406 600.84375 116.339844 L 601.023438 103.648438 L 609.125 104.011719 L 609.664062 103.46875 L 610.566406 93.839844 L 610.023438 93.300781 L 601.023438 93.300781 L 601.296875 78.179688 L 600.664062 77.640625 C 594.546875 79.441406 592.925781 79.890625 586.535156 81.511719 L 586.175781 82.140625 L 586.265625 93.390625 L 581.40625 93.210938 L 580.867188 93.660156 L 580.054688 103.289062 L 580.59375 103.828125 L 586.265625 103.648438 L 585.996094 117.960938 C 585.90625 120.210938 585.816406 122.460938 585.816406 124.800781 C 585.816406 133.078125 585.996094 141.988281 600.035156 141.988281 C 603.546875 141.988281 606.335938 141.449219 609.484375 140.910156 L 610.117188 140.28125 L 611.015625 131.011719 Z M 656.914062 127.679688 C 653.496094 129.480469 649.445312 131.550781 642.875 131.550781 C 637.476562 131.550781 633.785156 129.839844 631.625 126.601562 C 630.273438 124.710938 630.003906 122.910156 629.644531 121.109375 L 658.714844 120.570312 L 659.253906 119.941406 C 659.164062 115.53125 659.074219 111.03125 657.816406 106.53125 C 654.664062 95.910156 647.734375 93.75 644.675781 93.03125 C 642.425781 92.398438 640.355469 92.21875 638.285156 92.21875 C 624.15625 92.21875 614.792969 101.488281 614.792969 117.058594 C 614.792969 121.289062 615.515625 125.699219 616.953125 128.851562 C 622.175781 141 634.414062 142.078125 640.894531 142.078125 C 648.363281 142.078125 651.605469 140.730469 656.375 138.839844 L 656.914062 138.121094 L 657.542969 127.949219 L 656.914062 127.679688 M 629.644531 111.570312 C 629.914062 108.78125 630.542969 105 633.964844 102.839844 C 635.042969 102.121094 636.304688 101.851562 637.566406 101.851562 C 640.535156 101.851562 642.335938 103.378906 643.324219 105 C 644.585938 106.980469 644.675781 109.140625 644.675781 111.210938 Z M 705.875 77.28125 L 694.445312 77.460938 L 693.902344 78 C 694.265625 89.699219 694.535156 97.53125 694.535156 107.878906 C 694.535156 118.859375 694.265625 129.75 693.992188 140.730469 L 694.535156 141.269531 C 701.195312 141 702.632812 140.910156 709.835938 141 L 710.285156 140.460938 C 709.925781 130.648438 709.925781 128.398438 709.925781 119.21875 C 720.003906 119.308594 730.804688 119.308594 737.285156 111.390625 C 739.804688 108.328125 741.964844 103.199219 741.964844 96.898438 C 741.964844 93.03125 741.0625 84.480469 733.59375 80.25 C 728.195312 77.101562 720.542969 77.101562 713.792969 77.101562 L 705.875 77.28125 M 709.925781 88.171875 C 711.902344 88.078125 713.792969 88.078125 715.773438 88.078125 C 723.695312 88.261719 725.855469 92.308594 725.855469 97.53125 C 725.855469 98.789062 725.855469 104.011719 721.085938 106.621094 C 718.652344 107.96875 715.324219 108.148438 709.925781 108.148438 Z M 788.226562 114.179688 C 788.316406 106.078125 788.316406 102.570312 785.976562 98.789062 C 784.175781 95.910156 780.578125 92.308594 769.058594 92.308594 C 761.316406 92.308594 756.546875 93.75 751.417969 95.28125 L 750.878906 96 L 750.425781 105.808594 L 751.148438 106.171875 C 754.296875 104.910156 760.148438 102.570312 766.175781 102.570312 C 769.507812 102.570312 770.855469 103.109375 772.027344 104.28125 C 772.925781 105.179688 773.199219 106.800781 773.199219 108.148438 C 762.398438 109.589844 757.355469 110.578125 751.957031 113.910156 C 746.917969 117.058594 745.207031 122.191406 745.207031 126.238281 C 745.207031 135.871094 752.136719 142.078125 760.957031 142.078125 C 767.707031 142.078125 771.578125 138.839844 773.46875 137.308594 L 773.46875 140.640625 L 774.007812 141.269531 C 780.488281 141 782.46875 140.910156 788.316406 141 L 788.765625 140.371094 C 788.136719 131.550781 788.136719 129.300781 788.136719 120.839844 L 788.226562 114.179688 M 773.378906 128.488281 C 771.488281 129.570312 769.058594 130.828125 766.085938 130.828125 C 762.847656 130.828125 760.148438 129.121094 760.148438 125.339844 C 760.148438 119.398438 767.257812 118.410156 773.378906 117.601562 Z M 824.765625 107.609375 L 827.285156 92.941406 L 826.746094 92.308594 C 826.117188 92.308594 825.484375 92.21875 824.855469 92.21875 C 821.164062 92.21875 817.027344 94.289062 814.144531 100.949219 L 814.414062 92.671875 L 813.695312 91.949219 C 807.035156 93.390625 805.324219 93.660156 798.753906 94.648438 L 798.214844 95.191406 C 798.753906 101.941406 799.027344 105.988281 799.027344 118.5 C 799.027344 125.878906 798.933594 133.261719 798.753906 140.730469 L 799.296875 141.269531 C 805.957031 141 807.394531 140.910156 814.59375 141 L 815.046875 140.371094 C 814.683594 133.078125 814.144531 122.910156 814.144531 116.699219 C 814.144531 112.648438 814.144531 106.710938 820.265625 106.710938 C 821.796875 106.710938 822.695312 107.25 823.957031 107.96875 Z M 878.765625 139.828125 C 870.304688 125.519531 869.40625 123.898438 862.566406 111.570312 C 868.777344 103.109375 869.40625 102.210938 875.796875 94.019531 L 875.34375 93.121094 L 860.675781 93.300781 L 859.777344 93.929688 C 852.753906 106.078125 851.855469 107.519531 847.714844 113.730469 L 847.714844 103.738281 C 847.804688 86.910156 847.894531 83.308594 848.34375 69.71875 L 847.625 69.179688 L 831.964844 71.519531 L 831.425781 72.148438 C 832.054688 80.878906 832.324219 85.109375 832.503906 96.898438 C 832.683594 111.480469 832.683594 126.058594 832.59375 140.640625 L 833.226562 141.269531 C 839.253906 141 840.964844 141 847.804688 141 L 848.34375 140.371094 L 847.804688 125.160156 L 847.714844 114.808594 C 855.546875 129.210938 856.535156 131.191406 861.125 140.730469 L 861.933594 141.269531 L 878.136719 140.640625 Z M 877.6875 141 "/>
</svg>
