<?xml version="1.0" encoding="UTF-8"?>
<svg xmlns="http://www.w3.org/2000/svg" xmlns:xlink="http://www.w3.org/1999/xlink" width="975" height="1300" viewBox="0 0 975 1300">
<path fill-rule="nonzero" fill="rgb(98.823529%, 78.823529%, 9.019608%)" fill-opacity="1" d="M 50 50 L 925 50 L 925 410 L 50 410 Z M 50 50 "/>
<path fill-rule="nonzero" fill="rgb(34.901961%, 14.901961%, 14.901961%)" fill-opacity="1" d="M 144.769531 77.28125 L 133.339844 77.460938 L 132.796875 78 C 133.160156 89.699219 133.429688 97.53125 133.429688 107.878906 C 133.429688 118.859375 133.160156 129.75 132.886719 140.730469 L 133.429688 141.269531 C 140.089844 141 141.527344 140.910156 148.730469 141 L 149.179688 140.460938 C 148.820312 130.648438 148.820312 128.398438 148.820312 119.21875 C 158.898438 119.308594 169.699219 119.308594 176.179688 111.390625 C 178.699219 108.328125 180.859375 103.199219 180.859375 96.898438 C 180.859375 93.03125 179.957031 84.480469 172.488281 80.25 C 167.089844 77.101562 159.4375 77.101562 152.6875 77.101562 L 144.769531 77.28125 M 148.820312 88.171875 C 150.796875 88.078125 152.6875 88.078125 154.667969 88.078125 C 162.589844 88.261719 164.75 92.308594 164.75 97.53125 C 164.75 98.789062 164.75 104.011719 159.980469 106.621094 C 157.546875 107.96875 154.21875 108.148438 148.820312 108.148438 Z M 213.078125 107.609375 L 215.597656 92.941406 L 215.058594 92.308594 C 214.429688 92.308594 213.796875 92.21875 213.167969 92.21875 C 209.476562 92.21875 205.339844 94.289062 202.457031 100.949219 L 202.726562 92.671875 L 202.007812 91.949219 C 195.347656 93.390625 193.636719 93.660156 187.066406 94.648438 L 186.527344 95.191406 C 187.066406 101.941406 187.339844 105.988281 187.339844 118.5 C 187.339844 125.878906 187.246094 133.261719 187.066406 140.730469 L 187.609375 141.269531 C 194.269531 141 195.707031 140.910156 202.90625 141 L 203.359375 140.371094 C 202.996094 133.078125 202.457031 122.910156 202.457031 116.699219 C 202.457031 112.648438 202.457031 106.710938 208.578125 106.710938 C 210.109375 106.710938 211.007812 107.25 212.269531 107.96875 Z M 266.628906 117.058594 C 266.628906 113.550781 266.628906 98.96875 254.027344 94.019531 C 250.066406 92.488281 245.386719 92.308594 243.046875 92.308594 C 227.386719 92.308594 218.566406 100.679688 218.566406 117.238281 C 218.566406 123 219.46875 128.851562 222.796875 133.710938 C 225.136719 137.21875 229.546875 142.078125 242.417969 142.078125 C 261.496094 142.078125 266.628906 130.558594 266.628906 117.058594 M 251.058594 116.96875 C 251.058594 124.351562 250.066406 132.539062 242.597656 132.539062 C 240.257812 132.539062 238.636719 131.460938 237.558594 130.46875 C 236.027344 128.941406 234.316406 125.878906 234.316406 117.148438 C 234.316406 114.539062 234.316406 108.78125 236.117188 105.628906 C 237.46875 103.199219 239.808594 101.578125 242.6875 101.578125 C 245.207031 101.578125 247.277344 102.929688 248.449219 104.371094 C 250.609375 106.980469 251.058594 112.109375 251.058594 116.96875 Z M 300.015625 140.28125 C 302.898438 131.28125 304.605469 125.699219 306.496094 120.03125 C 308.925781 112.738281 312.886719 101.039062 315.40625 93.660156 L 314.957031 93.03125 L 302.355469 93.300781 L 301.726562 93.929688 C 300.46875 99.960938 300.199219 101.21875 298.398438 108.238281 L 293.808594 125.96875 L 291.558594 116.25 L 289.847656 109.320312 C 287.597656 100.949219 287.238281 99.238281 285.976562 93.300781 L 285.347656 92.761719 C 278.238281 93.570312 276.4375 93.660156 269.597656 93.75 L 269.238281 94.46875 C 281.207031 129.929688 282.199219 133.261719 284.175781 140.640625 L 284.808594 141.269531 C 290.65625 141 292.996094 140.910156 299.476562 141 Z M 336.46875 140.371094 C 336.015625 133.441406 335.65625 128.128906 335.65625 115.710938 C 335.65625 108.058594 335.835938 100.320312 335.925781 92.671875 L 335.296875 91.949219 L 319.816406 94.648438 L 319.277344 95.191406 C 319.996094 102.03125 320.265625 105.179688 320.265625 117.960938 C 320.265625 127.769531 319.996094 133.261719 319.726562 140.640625 L 320.265625 141.269531 C 326.746094 141 328.546875 140.910156 335.835938 141 L 336.46875 140.371094 M 335.027344 83.308594 L 335.296875 71.070312 L 334.757812 70.53125 L 320.085938 72.328125 L 319.546875 72.960938 C 319.726562 76.199219 319.816406 78.089844 319.816406 80.25 C 319.816406 81.960938 319.816406 83.761719 319.726562 85.46875 L 320.355469 86.011719 C 326.476562 84.929688 328.1875 84.75 334.578125 83.941406 Z M 390.558594 140.460938 C 390.199219 132.359375 389.929688 126.960938 389.929688 115.171875 C 389.929688 91.410156 390.289062 81.601562 390.648438 69.71875 L 390.019531 69.179688 L 375.167969 71.519531 L 374.71875 72.058594 C 375.257812 80.519531 375.347656 82.769531 375.257812 93.03125 C 368.507812 92.851562 360.046875 92.671875 353.207031 98.070312 C 346.910156 102.929688 344.296875 110.398438 344.296875 119.671875 C 344.296875 126.691406 346.1875 133.710938 351.5 138.121094 C 355.457031 141.359375 360.320312 142.078125 363.289062 142.078125 C 369.679688 142.078125 373.007812 139.109375 375.167969 137.21875 L 374.988281 140.730469 L 375.4375 141.269531 C 381.648438 141 383.359375 141 390.109375 141 L 390.558594 140.460938 M 375.257812 103.828125 C 375.347656 115.800781 375.257812 118.140625 374.988281 129.03125 C 373.1875 130.109375 371.386719 131.191406 368.867188 131.191406 C 360.136719 131.191406 360.136719 120.03125 360.136719 118.230469 C 360.136719 111.300781 362.117188 103.558594 372.199219 103.558594 C 373.1875 103.558594 374 103.648438 375.257812 103.828125 Z M 440.777344 127.679688 C 437.359375 129.480469 433.308594 131.550781 426.738281 131.550781 C 421.339844 131.550781 417.648438 129.839844 415.488281 126.601562 C 414.136719 124.710938 413.867188 122.910156 413.507812 121.109375 L 442.578125 120.570312 L 443.117188 119.941406 C 443.027344 115.53125 442.9375 111.03125 441.679688 106.53125 C 438.527344 95.910156 431.597656 93.75 428.539062 93.03125 C 426.289062 92.398438 424.21875 92.21875 422.148438 92.21875 C 408.019531 92.21875 398.65625 101.488281 398.65625 117.058594 C 398.65625 121.289062 399.378906 125.699219 400.816406 128.851562 C 406.039062 141 418.277344 142.078125 424.757812 142.078125 C 432.226562 142.078125 435.46875 140.730469 440.238281 138.839844 L 440.777344 138.121094 L 441.40625 127.949219 L 440.777344 127.679688 M 413.507812 111.570312 C 413.777344 108.78125 414.40625 105 417.828125 102.839844 C 418.90625 102.121094 420.167969 101.851562 421.429688 101.851562 C 424.398438 101.851562 426.199219 103.378906 427.1875 105 C 428.449219 106.980469 428.539062 109.140625 428.539062 111.210938 Z M 495.5 140.371094 C 495.050781 132.449219 495.050781 129.929688 494.871094 121.109375 L 494.871094 114.089844 C 494.78125 105.449219 494.691406 101.308594 492.441406 97.621094 C 489.648438 92.941406 484.519531 92.21875 481.28125 92.21875 C 475.789062 92.21875 471.019531 95.101562 466.878906 97.53125 L 467.058594 92.578125 L 466.160156 91.949219 C 459.230469 93.390625 457.699219 93.660156 450.949219 94.558594 L 450.410156 95.191406 C 451.128906 103.019531 451.671875 108.691406 451.671875 123.359375 C 451.671875 129.121094 451.578125 134.878906 451.488281 140.640625 L 452.03125 141.179688 C 458.511719 140.910156 459.859375 140.910156 467.058594 140.910156 L 467.601562 140.371094 C 467.058594 126.511719 466.96875 123 466.878906 106.890625 C 468.769531 105.628906 470.929688 104.101562 473.808594 104.101562 C 478.761719 104.101562 479.210938 109.410156 479.480469 112.648438 C 479.660156 115.621094 479.75 127.949219 479.75 131.371094 C 479.75 134.429688 479.660156 137.578125 479.660156 140.640625 L 480.199219 141.179688 C 486.140625 141 487.671875 140.910156 494.871094 140.910156 Z M 540.949219 128.039062 C 538.519531 129.480469 536.179688 130.921875 531.589844 130.921875 C 521.417969 130.921875 519.347656 122.460938 519.347656 117.058594 C 519.347656 110.488281 522.230469 102.929688 530.960938 102.929688 C 534.917969 102.929688 537.078125 104.371094 539.78125 106.171875 L 540.679688 105.898438 C 541.039062 101.128906 541.128906 99.871094 541.847656 95.101562 L 541.398438 94.558594 C 537.4375 93.300781 534.019531 92.21875 528.800781 92.21875 C 507.648438 92.21875 503.507812 108.238281 503.507812 117.421875 C 503.507812 127.769531 508.910156 141.808594 529.160156 141.808594 C 533.929688 141.808594 536.988281 140.910156 540.769531 139.828125 L 541.308594 139.289062 L 541.667969 128.488281 Z M 588.828125 127.679688 C 585.410156 129.480469 581.359375 131.550781 574.789062 131.550781 C 569.390625 131.550781 565.699219 129.839844 563.539062 126.601562 C 562.1875 124.710938 561.917969 122.910156 561.558594 121.109375 L 590.628906 120.570312 L 591.167969 119.941406 C 591.078125 115.53125 590.988281 111.03125 589.730469 106.53125 C 586.578125 95.910156 579.648438 93.75 576.589844 93.03125 C 574.339844 92.398438 572.269531 92.21875 570.199219 92.21875 C 556.070312 92.21875 546.707031 101.488281 546.707031 117.058594 C 546.707031 121.289062 547.429688 125.699219 548.867188 128.851562 C 554.089844 141 566.328125 142.078125 572.808594 142.078125 C 580.277344 142.078125 583.519531 140.730469 588.289062 138.839844 L 588.828125 138.121094 L 589.457031 127.949219 L 588.828125 127.679688 M 561.558594 111.570312 C 561.828125 108.78125 562.457031 105 565.878906 102.839844 C 566.957031 102.121094 568.21875 101.851562 569.480469 101.851562 C 572.449219 101.851562 574.25 103.378906 575.238281 105 C 576.5 106.980469 576.589844 109.140625 576.589844 111.210938 Z M 694.757812 77.191406 C 685.398438 77.460938 683.867188 77.460938 673.878906 77.460938 L 673.339844 78 L 669.199219 92.578125 L 665.597656 105.628906 L 661.367188 121.289062 L 657.40625 105.179688 L 654.886719 95.011719 L 650.386719 77.730469 L 649.9375 77.191406 C 640.308594 77.460938 638.6875 77.460938 628.609375 77.460938 L 628.066406 78 C 627.167969 104.910156 626.808594 111.839844 624.828125 140.730469 L 625.277344 141.269531 C 631.039062 141 632.75 140.910156 637.96875 141 L 638.507812 140.460938 L 638.777344 123.269531 L 639.316406 105.808594 L 639.679688 88.800781 L 643.636719 104.730469 L 647.058594 117.511719 L 653.089844 140.730469 L 653.628906 141.269531 C 659.207031 141 660.738281 140.910156 667.039062 141 L 667.578125 140.460938 L 672.796875 121.289062 L 676.398438 108.148438 L 681.4375 89.25 L 681.4375 105.359375 L 681.617188 119.128906 L 681.617188 140.730469 L 682.066406 141.269531 C 688.277344 141 690.707031 140.910156 697.636719 141 L 698.089844 140.460938 C 697.546875 130.199219 696.917969 119.851562 696.558594 109.5 C 696.289062 103.828125 696.109375 98.160156 695.839844 92.488281 C 695.386719 84.121094 695.296875 83.039062 695.296875 77.730469 Z M 733.460938 130.648438 C 731.929688 131.101562 730.847656 131.460938 729.320312 131.460938 C 724.730469 131.460938 724.371094 128.578125 724.1875 127.230469 C 723.917969 124.890625 723.917969 119.941406 724.007812 116.339844 L 724.1875 103.648438 L 732.289062 104.011719 L 732.828125 103.46875 L 733.730469 93.839844 L 733.1875 93.300781 L 724.1875 93.300781 L 724.460938 78.179688 L 723.828125 77.640625 C 717.710938 79.441406 716.089844 79.890625 709.699219 81.511719 L 709.339844 82.140625 L 709.429688 93.390625 L 704.570312 93.210938 L 704.03125 93.660156 L 703.21875 103.289062 L 703.757812 103.828125 L 709.429688 103.648438 L 709.160156 117.960938 C 709.070312 120.210938 708.980469 122.460938 708.980469 124.800781 C 708.980469 133.078125 709.160156 141.988281 723.199219 141.988281 C 726.710938 141.988281 729.5 141.449219 732.648438 140.910156 L 733.28125 140.28125 L 734.179688 131.011719 Z M 784.21875 140.371094 C 783.769531 132.449219 783.769531 129.929688 783.589844 121.109375 L 783.589844 114.089844 C 783.5 105.449219 783.410156 101.308594 781.160156 97.621094 C 778.367188 92.941406 773.238281 92.21875 770 92.21875 C 764.507812 92.21875 759.738281 95.101562 755.597656 97.53125 L 755.777344 92.578125 L 754.878906 91.949219 C 747.949219 93.390625 746.417969 93.660156 739.667969 94.558594 L 739.128906 95.191406 C 739.847656 103.019531 740.390625 108.691406 740.390625 123.359375 C 740.390625 129.121094 740.296875 134.878906 740.207031 140.640625 L 740.75 141.179688 C 747.230469 140.910156 748.578125 140.910156 755.777344 140.910156 L 756.320312 140.371094 C 755.777344 126.511719 755.6875 123 755.597656 106.890625 C 757.488281 105.628906 759.648438 104.101562 762.527344 104.101562 C 767.480469 104.101562 767.929688 109.410156 768.199219 112.648438 C 768.378906 115.621094 768.46875 127.949219 768.46875 131.371094 C 768.46875 134.429688 768.378906 137.578125 768.378906 140.640625 L 768.917969 141.179688 C 774.859375 141 776.390625 140.910156 783.589844 140.910156 Z M 813.378906 109.949219 C 810.316406 108.871094 807.886719 107.878906 807.886719 105.359375 C 807.886719 104.28125 808.609375 101.308594 814.1875 101.308594 C 819.679688 101.308594 823.1875 103.648438 825.4375 105.089844 L 826.25 104.820312 L 827.148438 95.011719 L 826.699219 94.46875 C 822.46875 93.300781 818.777344 92.21875 812.929688 92.21875 C 808.519531 92.21875 799.699219 92.578125 795.019531 99.328125 C 793.847656 100.949219 792.589844 103.648438 792.589844 107.25 C 792.589844 116.878906 800.058594 119.761719 804.289062 121.378906 L 807.707031 122.640625 C 810.136719 123.449219 814.097656 124.800781 814.097656 128.039062 C 814.097656 130.289062 812.027344 132.71875 806.988281 132.71875 C 804.46875 132.71875 800.777344 131.910156 797.449219 130.199219 C 795.917969 129.390625 795.199219 128.761719 793.847656 127.679688 L 793.039062 128.039062 C 792.859375 132.71875 792.769531 133.710938 792.40625 138.210938 L 792.859375 139.019531 C 797.269531 140.640625 801.046875 142.078125 807.617188 142.078125 C 814.457031 142.078125 827.957031 140.820312 829.578125 127.949219 C 829.667969 127.230469 829.667969 126.601562 829.667969 125.96875 C 829.667969 116.070312 822.738281 113.460938 817.789062 111.570312 Z M 850.546875 127.140625 L 836.148438 127.410156 L 835.699219 128.128906 L 835.878906 140.640625 L 836.328125 141.269531 L 850.726562 140.910156 L 851.175781 140.371094 L 850.996094 127.679688 Z M 854.6875 141 "/>
<path fill-rule="nonzero" fill="rgb(34.901961%, 14.901961%, 14.901961%)" fill-opacity="1" d="M 175.640625 222.300781 C 168.082031 219.148438 164.121094 217.53125 164.121094 213.480469 C 164.121094 210.691406 166.730469 207.179688 172.671875 207.179688 C 179.511719 207.179688 183.558594 209.96875 186.890625 212.21875 L 187.699219 211.859375 L 188.421875 200.070312 L 187.96875 199.441406 C 184.101562 197.820312 180.050781 196.109375 171.320312 196.109375 C 154.402344 196.109375 148.550781 205.648438 148.550781 215.28125 C 148.550781 226.171875 157.011719 230.128906 162.050781 232.558594 L 165.019531 233.910156 C 171.230469 236.519531 176 238.769531 176 243.539062 C 176 246.960938 173.03125 251.011719 165.199219 251.011719 C 157.011719 251.011719 152.421875 247.410156 149.808594 245.339844 L 148.910156 245.609375 L 148.28125 258.300781 L 148.820312 259.019531 C 149.808594 259.378906 150.800781 259.828125 151.789062 260.101562 C 153.859375 260.820312 159.171875 262.351562 165.921875 262.351562 C 168.621094 262.351562 175.460938 262.078125 180.859375 259.558594 C 188.421875 255.871094 191.660156 249.03125 191.660156 241.378906 C 191.660156 236.25 189.679688 230.761719 184.910156 227.070312 C 182.480469 225.269531 180.140625 224.191406 177.980469 223.199219 Z M 225.410156 250.648438 C 223.878906 251.101562 222.796875 251.460938 221.269531 251.460938 C 216.679688 251.460938 216.320312 248.578125 216.136719 247.230469 C 215.867188 244.890625 215.867188 239.941406 215.957031 236.339844 L 216.136719 223.648438 L 224.238281 224.011719 L 224.777344 223.46875 L 225.679688 213.839844 L 225.136719 213.300781 L 216.136719 213.300781 L 216.410156 198.179688 L 215.777344 197.640625 C 209.660156 199.441406 208.039062 199.890625 201.648438 201.511719 L 201.289062 202.140625 L 201.378906 213.390625 L 196.519531 213.210938 L 195.980469 213.660156 L 195.167969 223.289062 L 195.707031 223.828125 L 201.378906 223.648438 L 201.109375 237.960938 C 201.019531 240.210938 200.929688 242.460938 200.929688 244.800781 C 200.929688 253.078125 201.109375 261.988281 215.148438 261.988281 C 218.660156 261.988281 221.449219 261.449219 224.597656 260.910156 L 225.230469 260.28125 L 226.128906 251.011719 Z M 272.121094 234.179688 C 272.210938 226.078125 272.210938 222.570312 269.871094 218.789062 C 268.070312 215.910156 264.472656 212.308594 252.953125 212.308594 C 245.210938 212.308594 240.441406 213.75 235.3125 215.28125 L 234.773438 216 L 234.320312 225.808594 L 235.042969 226.171875 C 238.191406 224.910156 244.042969 222.570312 250.070312 222.570312 C 253.402344 222.570312 254.75 223.109375 255.921875 224.28125 C 256.820312 225.179688 257.09375 226.800781 257.09375 228.148438 C 246.292969 229.589844 241.25 230.578125 235.851562 233.910156 C 230.8125 237.058594 229.101562 242.191406 229.101562 246.238281 C 229.101562 255.871094 236.03125 262.078125 244.851562 262.078125 C 251.601562 262.078125 255.472656 258.839844 257.363281 257.308594 L 257.363281 260.640625 L 257.902344 261.269531 C 264.382812 261 266.363281 260.910156 272.210938 261 L 272.660156 260.371094 C 272.03125 251.550781 272.03125 249.300781 272.03125 240.839844 L 272.121094 234.179688 M 257.273438 248.488281 C 255.382812 249.570312 252.953125 250.828125 249.980469 250.828125 C 246.742188 250.828125 244.042969 249.121094 244.042969 245.339844 C 244.042969 239.398438 251.152344 238.410156 257.273438 237.601562 Z M 307.851562 250.648438 C 306.320312 251.101562 305.238281 251.460938 303.710938 251.460938 C 299.121094 251.460938 298.761719 248.578125 298.578125 247.230469 C 298.308594 244.890625 298.308594 239.941406 298.398438 236.339844 L 298.578125 223.648438 L 306.679688 224.011719 L 307.21875 223.46875 L 308.121094 213.839844 L 307.578125 213.300781 L 298.578125 213.300781 L 298.851562 198.179688 L 298.21875 197.640625 C 292.101562 199.441406 290.480469 199.890625 284.089844 201.511719 L 283.730469 202.140625 L 283.820312 213.390625 L 278.960938 213.210938 L 278.421875 213.660156 L 277.609375 223.289062 L 278.148438 223.828125 L 283.820312 223.648438 L 283.550781 237.960938 C 283.460938 240.210938 283.371094 242.460938 283.371094 244.800781 C 283.371094 253.078125 283.550781 261.988281 297.589844 261.988281 C 301.101562 261.988281 303.890625 261.449219 307.039062 260.910156 L 307.671875 260.28125 L 308.570312 251.011719 Z M 354.46875 247.679688 C 351.050781 249.480469 347 251.550781 340.429688 251.550781 C 335.03125 251.550781 331.339844 249.839844 329.179688 246.601562 C 327.828125 244.710938 327.558594 242.910156 327.199219 241.109375 L 356.269531 240.570312 L 356.808594 239.941406 C 356.71875 235.53125 356.628906 231.03125 355.371094 226.53125 C 352.21875 215.910156 345.289062 213.75 342.230469 213.03125 C 339.980469 212.398438 337.910156 212.21875 335.839844 212.21875 C 321.710938 212.21875 312.347656 221.488281 312.347656 237.058594 C 312.347656 241.289062 313.070312 245.699219 314.507812 248.851562 C 319.730469 261 331.96875 262.078125 338.449219 262.078125 C 345.917969 262.078125 349.160156 260.730469 353.929688 258.839844 L 354.46875 258.121094 L 355.097656 247.949219 L 354.46875 247.679688 M 327.199219 231.570312 C 327.46875 228.78125 328.097656 225 331.519531 222.839844 C 332.597656 222.121094 333.859375 221.851562 335.121094 221.851562 C 338.089844 221.851562 339.890625 223.378906 340.878906 225 C 342.140625 226.980469 342.230469 229.140625 342.230469 231.210938 Z M 411.707031 236.25 C 417.738281 246.511719 419.089844 249.210938 424.847656 261 L 425.570312 261.449219 C 428.359375 261.269531 431.058594 261.089844 433.847656 261 C 436.640625 260.910156 439.519531 260.820312 442.308594 260.820312 L 442.847656 259.738281 C 439.429688 255.328125 438.4375 253.980469 431.957031 243.628906 C 429.078125 239.039062 427.640625 236.609375 425.390625 232.648438 C 429.4375 230.851562 437.628906 227.070312 437.628906 215.640625 C 437.628906 211.679688 436.546875 203.488281 429.167969 199.621094 C 424.488281 197.191406 419.628906 197.101562 409.097656 197.28125 L 402.796875 197.371094 L 391.820312 197.371094 L 391.367188 197.910156 C 391.730469 207 392.089844 216.359375 392.089844 240.839844 C 392.089844 249.210938 392 253.261719 391.730469 260.730469 L 392.269531 261.269531 C 398.839844 261 400.277344 260.910156 407.660156 261 L 408.199219 260.460938 C 407.480469 250.019531 407.390625 247.140625 407.296875 236.429688 L 411.707031 236.25 M 407.480469 208.261719 C 408.738281 208.171875 410 208.171875 411.257812 208.171875 C 414.769531 208.171875 421.699219 208.171875 421.699219 216.089844 C 421.699219 218.609375 421.070312 221.941406 417.738281 224.011719 C 415.21875 225.539062 411.980469 225.71875 407.480469 225.808594 Z M 487.578125 247.679688 C 484.160156 249.480469 480.109375 251.550781 473.539062 251.550781 C 468.140625 251.550781 464.449219 249.839844 462.289062 246.601562 C 460.9375 244.710938 460.667969 242.910156 460.308594 241.109375 L 489.378906 240.570312 L 489.917969 239.941406 C 489.828125 235.53125 489.738281 231.03125 488.480469 226.53125 C 485.328125 215.910156 478.398438 213.75 475.339844 213.03125 C 473.089844 212.398438 471.019531 212.21875 468.949219 212.21875 C 454.820312 212.21875 445.457031 221.488281 445.457031 237.058594 C 445.457031 241.289062 446.179688 245.699219 447.617188 248.851562 C 452.839844 261 465.078125 262.078125 471.558594 262.078125 C 479.027344 262.078125 482.269531 260.730469 487.039062 258.839844 L 487.578125 258.121094 L 488.207031 247.949219 L 487.578125 247.679688 M 460.308594 231.570312 C 460.578125 228.78125 461.207031 225 464.628906 222.839844 C 465.707031 222.121094 466.96875 221.851562 468.230469 221.851562 C 471.199219 221.851562 473 223.378906 473.988281 225 C 475.25 226.980469 475.339844 229.140625 475.339844 231.210938 Z M 533.390625 248.039062 C 530.960938 249.480469 528.621094 250.921875 524.03125 250.921875 C 513.859375 250.921875 511.789062 242.460938 511.789062 237.058594 C 511.789062 230.488281 514.671875 222.929688 523.402344 222.929688 C 527.359375 222.929688 529.519531 224.371094 532.222656 226.171875 L 533.121094 225.898438 C 533.480469 221.128906 533.570312 219.871094 534.289062 215.101562 L 533.839844 214.558594 C 529.878906 213.300781 526.460938 212.21875 521.242188 212.21875 C 500.089844 212.21875 495.949219 228.238281 495.949219 237.421875 C 495.949219 247.769531 501.351562 261.808594 521.601562 261.808594 C 526.371094 261.808594 529.429688 260.910156 533.210938 259.828125 L 533.75 259.289062 L 534.109375 248.488281 Z M 567.320312 227.609375 L 569.839844 212.941406 L 569.300781 212.308594 C 568.671875 212.308594 568.039062 212.21875 567.410156 212.21875 C 563.71875 212.21875 559.582031 214.289062 556.699219 220.949219 L 556.96875 212.671875 L 556.25 211.949219 C 549.589844 213.390625 547.878906 213.660156 541.308594 214.648438 L 540.769531 215.191406 C 541.308594 221.941406 541.582031 225.988281 541.582031 238.5 C 541.582031 245.878906 541.488281 253.261719 541.308594 260.730469 L 541.851562 261.269531 C 548.511719 261 549.949219 260.910156 557.148438 261 L 557.601562 260.371094 C 557.238281 253.078125 556.699219 242.910156 556.699219 236.699219 C 556.699219 232.648438 556.699219 226.710938 562.820312 226.710938 C 564.351562 226.710938 565.25 227.25 566.511719 227.96875 Z M 615.019531 247.679688 C 611.601562 249.480469 607.550781 251.550781 600.980469 251.550781 C 595.582031 251.550781 591.890625 249.839844 589.730469 246.601562 C 588.378906 244.710938 588.109375 242.910156 587.75 241.109375 L 616.820312 240.570312 L 617.359375 239.941406 C 617.269531 235.53125 617.179688 231.03125 615.921875 226.53125 C 612.769531 215.910156 605.839844 213.75 602.78125 213.03125 C 600.53125 212.398438 598.460938 212.21875 596.390625 212.21875 C 582.261719 212.21875 572.898438 221.488281 572.898438 237.058594 C 572.898438 241.289062 573.621094 245.699219 575.058594 248.851562 C 580.28125 261 592.519531 262.078125 599 262.078125 C 606.46875 262.078125 609.710938 260.730469 614.480469 258.839844 L 615.019531 258.121094 L 615.648438 247.949219 L 615.019531 247.679688 M 587.75 231.570312 C 588.019531 228.78125 588.648438 225 592.070312 222.839844 C 593.148438 222.121094 594.410156 221.851562 595.671875 221.851562 C 598.640625 221.851562 600.441406 223.378906 601.429688 225 C 602.691406 226.980469 602.78125 229.140625 602.78125 231.210938 Z M 665.691406 234.179688 C 665.78125 226.078125 665.78125 222.570312 663.441406 218.789062 C 661.640625 215.910156 658.042969 212.308594 646.523438 212.308594 C 638.78125 212.308594 634.011719 213.75 628.882812 215.28125 L 628.34375 216 L 627.890625 225.808594 L 628.613281 226.171875 C 631.761719 224.910156 637.613281 222.570312 643.640625 222.570312 C 646.972656 222.570312 648.320312 223.109375 649.492188 224.28125 C 650.390625 225.179688 650.664062 226.800781 650.664062 228.148438 C 639.863281 229.589844 634.820312 230.578125 629.421875 233.910156 C 624.382812 237.058594 622.671875 242.191406 622.671875 246.238281 C 622.671875 255.871094 629.601562 262.078125 638.421875 262.078125 C 645.171875 262.078125 649.042969 258.839844 650.933594 257.308594 L 650.933594 260.640625 L 651.472656 261.269531 C 657.953125 261 659.933594 260.910156 665.78125 261 L 666.230469 260.371094 C 665.601562 251.550781 665.601562 249.300781 665.601562 240.839844 L 665.691406 234.179688 M 650.84375 248.488281 C 648.953125 249.570312 646.523438 250.828125 643.550781 250.828125 C 640.3125 250.828125 637.613281 249.121094 637.613281 245.339844 C 637.613281 239.398438 644.722656 238.410156 650.84375 237.601562 Z M 701.421875 250.648438 C 699.890625 251.101562 698.808594 251.460938 697.28125 251.460938 C 692.691406 251.460938 692.332031 248.578125 692.148438 247.230469 C 691.878906 244.890625 691.878906 239.941406 691.96875 236.339844 L 692.148438 223.648438 L 700.25 224.011719 L 700.789062 223.46875 L 701.691406 213.839844 L 701.148438 213.300781 L 692.148438 213.300781 L 692.421875 198.179688 L 691.789062 197.640625 C 685.671875 199.441406 684.050781 199.890625 677.660156 201.511719 L 677.300781 202.140625 L 677.390625 213.390625 L 672.53125 213.210938 L 671.992188 213.660156 L 671.179688 223.289062 L 671.71875 223.828125 L 677.390625 223.648438 L 677.121094 237.960938 C 677.03125 240.210938 676.941406 242.460938 676.941406 244.800781 C 676.941406 253.078125 677.121094 261.988281 691.160156 261.988281 C 694.671875 261.988281 697.460938 261.449219 700.609375 260.910156 L 701.242188 260.28125 L 702.140625 251.011719 Z M 724.371094 260.371094 C 723.917969 253.441406 723.558594 248.128906 723.558594 235.710938 C 723.558594 228.058594 723.738281 220.320312 723.828125 212.671875 L 723.199219 211.949219 L 707.71875 214.648438 L 707.179688 215.191406 C 707.898438 222.03125 708.167969 225.179688 708.167969 237.960938 C 708.167969 247.769531 707.898438 253.261719 707.628906 260.640625 L 708.167969 261.269531 C 714.648438 261 716.449219 260.910156 723.738281 261 L 724.371094 260.371094 M 722.929688 203.308594 L 723.199219 191.070312 L 722.660156 190.53125 L 707.988281 192.328125 L 707.449219 192.960938 C 707.628906 196.199219 707.71875 198.089844 707.71875 200.25 C 707.71875 201.960938 707.71875 203.761719 707.628906 205.46875 L 708.257812 206.011719 C 714.378906 204.929688 716.089844 204.75 722.480469 203.941406 Z M 780.171875 237.058594 C 780.171875 233.550781 780.171875 218.96875 767.570312 214.019531 C 763.609375 212.488281 758.929688 212.308594 756.589844 212.308594 C 740.929688 212.308594 732.109375 220.679688 732.109375 237.238281 C 732.109375 243 733.011719 248.851562 736.339844 253.710938 C 738.679688 257.21875 743.089844 262.078125 755.960938 262.078125 C 775.039062 262.078125 780.171875 250.558594 780.171875 237.058594 M 764.601562 236.96875 C 764.601562 244.351562 763.609375 252.539062 756.140625 252.539062 C 753.800781 252.539062 752.179688 251.460938 751.101562 250.46875 C 749.570312 248.941406 747.859375 245.878906 747.859375 237.148438 C 747.859375 234.539062 747.859375 228.78125 749.660156 225.628906 C 751.011719 223.199219 753.351562 221.578125 756.230469 221.578125 C 758.75 221.578125 760.820312 222.929688 761.992188 224.371094 C 764.152344 226.980469 764.601562 232.109375 764.601562 236.96875 Z M 832.820312 260.371094 C 832.371094 252.449219 832.371094 249.929688 832.191406 241.109375 L 832.191406 234.089844 C 832.101562 225.449219 832.011719 221.308594 829.761719 217.621094 C 826.96875 212.941406 821.839844 212.21875 818.601562 212.21875 C 813.109375 212.21875 808.339844 215.101562 804.199219 217.53125 L 804.378906 212.578125 L 803.480469 211.949219 C 796.550781 213.390625 795.019531 213.660156 788.269531 214.558594 L 787.730469 215.191406 C 788.449219 223.019531 788.992188 228.691406 788.992188 243.359375 C 788.992188 249.121094 788.898438 254.878906 788.808594 260.640625 L 789.351562 261.179688 C 795.832031 260.910156 797.179688 260.910156 804.378906 260.910156 L 804.921875 260.371094 C 804.378906 246.511719 804.289062 243 804.199219 226.890625 C 806.089844 225.628906 808.25 224.101562 811.128906 224.101562 C 816.082031 224.101562 816.53125 229.410156 816.800781 232.648438 C 816.980469 235.621094 817.070312 247.949219 817.070312 251.371094 C 817.070312 254.429688 816.980469 257.578125 816.980469 260.640625 L 817.519531 261.179688 C 823.460938 261 824.992188 260.910156 832.191406 260.910156 Z M 837.679688 261 "/>
<path fill-rule="nonzero" fill="rgb(34.901961%, 14.901961%, 14.901961%)" fill-opacity="1" d="M 433.175781 317.191406 C 424.535156 317.460938 422.734375 317.460938 413.105469 317.460938 L 412.472656 318 C 407.703125 333.300781 404.824219 342.390625 391.59375 380.371094 L 391.953125 381 L 405.992188 381 L 406.625 380.460938 L 411.035156 364.078125 L 430.472656 364.078125 L 434.34375 380.730469 L 434.972656 381.269531 C 441.542969 381 443.34375 380.910156 450.632812 381 L 451.085938 380.28125 C 440.195312 341.761719 438.933594 337.53125 433.804688 317.730469 L 433.175781 317.191406 M 414.183594 353.191406 L 418.683594 337.980469 L 421.835938 327.449219 L 424.535156 339.148438 L 427.863281 353.191406 Z M 482.855469 347.609375 L 485.375 332.941406 L 484.835938 332.308594 C 484.207031 332.308594 483.574219 332.21875 482.945312 332.21875 C 479.253906 332.21875 475.117188 334.289062 472.234375 340.949219 L 472.503906 332.671875 L 471.785156 331.949219 C 465.125 333.390625 463.414062 333.660156 456.84375 334.648438 L 456.304688 335.191406 C 456.84375 341.941406 457.117188 345.988281 457.117188 358.5 C 457.117188 365.878906 457.023438 373.261719 456.84375 380.730469 L 457.386719 381.269531 C 464.046875 381 465.484375 380.910156 472.683594 381 L 473.136719 380.371094 C 472.773438 373.078125 472.234375 362.910156 472.234375 356.699219 C 472.234375 352.648438 472.234375 346.710938 478.355469 346.710938 C 479.886719 346.710938 480.785156 347.25 482.046875 347.96875 Z M 530.554688 367.679688 C 527.136719 369.480469 523.085938 371.550781 516.515625 371.550781 C 511.117188 371.550781 507.425781 369.839844 505.265625 366.601562 C 503.914062 364.710938 503.644531 362.910156 503.285156 361.109375 L 532.355469 360.570312 L 532.894531 359.941406 C 532.804688 355.53125 532.714844 351.03125 531.457031 346.53125 C 528.304688 335.910156 521.375 333.75 518.316406 333.03125 C 516.066406 332.398438 513.996094 332.21875 511.925781 332.21875 C 497.796875 332.21875 488.433594 341.488281 488.433594 357.058594 C 488.433594 361.289062 489.15625 365.699219 490.59375 368.851562 C 495.816406 381 508.054688 382.078125 514.535156 382.078125 C 522.003906 382.078125 525.246094 380.730469 530.015625 378.839844 L 530.554688 378.121094 L 531.183594 367.949219 L 530.554688 367.679688 M 503.285156 351.570312 C 503.554688 348.78125 504.183594 345 507.605469 342.839844 C 508.683594 342.121094 509.945312 341.851562 511.207031 341.851562 C 514.175781 341.851562 515.976562 343.378906 516.964844 345 C 518.226562 346.980469 518.316406 349.140625 518.316406 351.210938 Z M 581.222656 354.179688 C 581.3125 346.078125 581.3125 342.570312 578.972656 338.789062 C 577.171875 335.910156 573.574219 332.308594 562.054688 332.308594 C 554.3125 332.308594 549.542969 333.75 544.414062 335.28125 L 543.875 336 L 543.421875 345.808594 L 544.144531 346.171875 C 547.292969 344.910156 553.144531 342.570312 559.171875 342.570312 C 562.503906 342.570312 563.851562 343.109375 565.023438 344.28125 C 565.921875 345.179688 566.195312 346.800781 566.195312 348.148438 C 555.394531 349.589844 550.351562 350.578125 544.953125 353.910156 C 539.914062 357.058594 538.203125 362.191406 538.203125 366.238281 C 538.203125 375.871094 545.132812 382.078125 553.953125 382.078125 C 560.703125 382.078125 564.574219 378.839844 566.464844 377.308594 L 566.464844 380.640625 L 567.003906 381.269531 C 573.484375 381 575.464844 380.910156 581.3125 381 L 581.761719 380.371094 C 581.132812 371.550781 581.132812 369.300781 581.132812 360.839844 L 581.222656 354.179688 M 566.375 368.488281 C 564.484375 369.570312 562.054688 370.828125 559.082031 370.828125 C 555.84375 370.828125 553.144531 369.121094 553.144531 365.339844 C 553.144531 359.398438 560.253906 358.410156 566.375 357.601562 Z M 586.355469 381 "/>
</svg>
