<?xml version="1.0" encoding="UTF-8"?>
<svg xmlns="http://www.w3.org/2000/svg" xmlns:xlink="http://www.w3.org/1999/xlink" width="975" height="1300" viewBox="0 0 975 1300">
<path fill-rule="nonzero" fill="rgb(98.823529%, 78.823529%, 9.019608%)" fill-opacity="1" d="M 50 50 L 925 50 L 925 290 L 50 290 Z M 50 50 "/>
<path fill-rule="nonzero" fill="rgb(34.901961%, 14.901961%, 14.901961%)" fill-opacity="1" d="M 165.515625 128.671875 C 155.703125 129.210938 147.875 129.390625 145.175781 129.390625 L 143.375 129.390625 C 143.195312 105.359375 143.285156 99.238281 144.003906 77.730469 L 143.464844 77.191406 C 135.722656 77.550781 133.652344 77.550781 127.445312 77.460938 L 126.902344 78 C 127.265625 85.199219 127.355469 87.359375 127.355469 98.070312 C 127.355469 112.289062 127.265625 126.511719 127.265625 140.730469 L 127.714844 141.269531 C 145.355469 141 148.59375 141 164.792969 141 L 165.242188 140.460938 L 165.964844 129.121094 Z M 219.515625 117.058594 C 219.515625 113.550781 219.515625 98.96875 206.914062 94.019531 C 202.953125 92.488281 198.273438 92.308594 195.933594 92.308594 C 180.273438 92.308594 171.453125 100.679688 171.453125 117.238281 C 171.453125 123 172.355469 128.851562 175.683594 133.710938 C 178.023438 137.21875 182.433594 142.078125 195.304688 142.078125 C 214.382812 142.078125 219.515625 130.558594 219.515625 117.058594 M 203.945312 116.96875 C 203.945312 124.351562 202.953125 132.539062 195.484375 132.539062 C 193.144531 132.539062 191.523438 131.460938 190.445312 130.46875 C 188.914062 128.941406 187.203125 125.878906 187.203125 117.148438 C 187.203125 114.539062 187.203125 108.78125 189.003906 105.628906 C 190.355469 103.199219 192.695312 101.578125 195.574219 101.578125 C 198.09375 101.578125 200.164062 102.929688 201.335938 104.371094 C 203.496094 106.980469 203.945312 112.109375 203.945312 116.96875 Z M 246.964844 109.949219 C 243.902344 108.871094 241.472656 107.878906 241.472656 105.359375 C 241.472656 104.28125 242.195312 101.308594 247.773438 101.308594 C 253.265625 101.308594 256.773438 103.648438 259.023438 105.089844 L 259.835938 104.820312 L 260.734375 95.011719 L 260.285156 94.46875 C 256.054688 93.300781 252.363281 92.21875 246.515625 92.21875 C 242.105469 92.21875 233.285156 92.578125 228.605469 99.328125 C 227.433594 100.949219 226.175781 103.648438 226.175781 107.25 C 226.175781 116.878906 233.644531 119.761719 237.875 121.378906 L 241.292969 122.640625 C 243.722656 123.449219 247.683594 124.800781 247.683594 128.039062 C 247.683594 130.289062 245.613281 132.71875 240.574219 132.71875 C 238.054688 132.71875 234.363281 131.910156 231.035156 130.199219 C 229.503906 129.390625 228.785156 128.761719 227.433594 127.679688 L 226.625 128.039062 C 226.445312 132.71875 226.355469 133.710938 225.992188 138.210938 L 226.445312 139.019531 C 230.855469 140.640625 234.632812 142.078125 241.203125 142.078125 C 248.042969 142.078125 261.542969 140.820312 263.164062 127.949219 C 263.253906 127.230469 263.253906 126.601562 263.253906 125.96875 C 263.253906 116.070312 256.324219 113.460938 251.375 111.570312 Z M 338.765625 128.851562 C 328.144531 129.390625 325.625 129.480469 314.105469 129.480469 L 313.925781 113.730469 L 334.984375 113.730469 L 335.613281 113.191406 L 336.15625 103.019531 L 335.703125 102.480469 L 313.925781 102.839844 L 313.925781 88.53125 C 324.09375 88.53125 326.164062 88.53125 337.054688 88.800781 L 337.503906 88.261719 L 338.132812 77.820312 L 337.683594 77.460938 L 298.175781 77.460938 L 297.632812 78 C 298.175781 86.730469 298.355469 90.058594 298.355469 114.179688 C 298.355469 125.519531 298.175781 131.191406 297.90625 140.640625 L 298.355469 141 L 337.953125 141 L 338.675781 140.460938 L 339.304688 129.480469 Z M 392.132812 140.371094 C 391.683594 132.449219 391.683594 129.929688 391.503906 121.109375 L 391.503906 114.089844 C 391.414062 105.449219 391.324219 101.308594 389.074219 97.621094 C 386.28125 92.941406 381.152344 92.21875 377.914062 92.21875 C 372.421875 92.21875 367.652344 95.101562 363.511719 97.53125 L 363.691406 92.578125 L 362.792969 91.949219 C 355.863281 93.390625 354.332031 93.660156 347.582031 94.558594 L 347.042969 95.191406 C 347.761719 103.019531 348.304688 108.691406 348.304688 123.359375 C 348.304688 129.121094 348.210938 134.878906 348.121094 140.640625 L 348.664062 141.179688 C 355.144531 140.910156 356.492188 140.910156 363.691406 140.910156 L 364.234375 140.371094 C 363.691406 126.511719 363.601562 123 363.511719 106.890625 C 365.402344 105.628906 367.5625 104.101562 370.441406 104.101562 C 375.394531 104.101562 375.84375 109.410156 376.113281 112.648438 C 376.292969 115.621094 376.382812 127.949219 376.382812 131.371094 C 376.382812 134.429688 376.292969 137.578125 376.292969 140.640625 L 376.832031 141.179688 C 382.773438 141 384.304688 140.910156 391.503906 140.910156 Z M 437.582031 128.039062 C 435.152344 129.480469 432.8125 130.921875 428.222656 130.921875 C 418.050781 130.921875 415.980469 122.460938 415.980469 117.058594 C 415.980469 110.488281 418.863281 102.929688 427.59375 102.929688 C 431.550781 102.929688 433.710938 104.371094 436.414062 106.171875 L 437.3125 105.898438 C 437.671875 101.128906 437.761719 99.871094 438.480469 95.101562 L 438.03125 94.558594 C 434.070312 93.300781 430.652344 92.21875 425.433594 92.21875 C 404.28125 92.21875 400.140625 108.238281 400.140625 117.421875 C 400.140625 127.769531 405.542969 141.808594 425.792969 141.808594 C 430.5625 141.808594 433.621094 140.910156 437.402344 139.828125 L 437.941406 139.289062 L 438.300781 128.488281 Z M 461.796875 140.371094 C 461.34375 133.441406 460.984375 128.128906 460.984375 115.710938 C 460.984375 108.058594 461.164062 100.320312 461.253906 92.671875 L 460.625 91.949219 L 445.144531 94.648438 L 444.605469 95.191406 C 445.324219 102.03125 445.59375 105.179688 445.59375 117.960938 C 445.59375 127.769531 445.324219 133.261719 445.054688 140.640625 L 445.59375 141.269531 C 452.074219 141 453.875 140.910156 461.164062 141 L 461.796875 140.371094 M 460.355469 83.308594 L 460.625 71.070312 L 460.085938 70.53125 L 445.414062 72.328125 L 444.875 72.960938 C 445.054688 76.199219 445.144531 78.089844 445.144531 80.25 C 445.144531 81.960938 445.144531 83.761719 445.054688 85.46875 L 445.683594 86.011719 C 451.804688 84.929688 453.515625 84.75 459.90625 83.941406 Z M 515.882812 140.371094 C 515.433594 132.449219 515.433594 129.929688 515.253906 121.109375 L 515.253906 114.089844 C 515.164062 105.449219 515.074219 101.308594 512.824219 97.621094 C 510.03125 92.941406 504.902344 92.21875 501.664062 92.21875 C 496.171875 92.21875 491.402344 95.101562 487.261719 97.53125 L 487.441406 92.578125 L 486.542969 91.949219 C 479.613281 93.390625 478.082031 93.660156 471.332031 94.558594 L 470.792969 95.191406 C 471.511719 103.019531 472.054688 108.691406 472.054688 123.359375 C 472.054688 129.121094 471.960938 134.878906 471.871094 140.640625 L 472.414062 141.179688 C 478.894531 140.910156 480.242188 140.910156 487.441406 140.910156 L 487.984375 140.371094 C 487.441406 126.511719 487.351562 123 487.261719 106.890625 C 489.152344 105.628906 491.3125 104.101562 494.191406 104.101562 C 499.144531 104.101562 499.59375 109.410156 499.863281 112.648438 C 500.042969 115.621094 500.132812 127.949219 500.132812 131.371094 C 500.132812 134.429688 500.042969 137.578125 500.042969 140.640625 L 500.582031 141.179688 C 506.523438 141 508.054688 140.910156 515.253906 140.910156 Z M 571.953125 117.058594 C 571.953125 113.550781 571.953125 98.96875 559.351562 94.019531 C 555.390625 92.488281 550.710938 92.308594 548.371094 92.308594 C 532.710938 92.308594 523.890625 100.679688 523.890625 117.238281 C 523.890625 123 524.792969 128.851562 528.121094 133.710938 C 530.460938 137.21875 534.871094 142.078125 547.742188 142.078125 C 566.820312 142.078125 571.953125 130.558594 571.953125 117.058594 M 556.382812 116.96875 C 556.382812 124.351562 555.390625 132.539062 547.921875 132.539062 C 545.582031 132.539062 543.960938 131.460938 542.882812 130.46875 C 541.351562 128.941406 539.640625 125.878906 539.640625 117.148438 C 539.640625 114.539062 539.640625 108.78125 541.441406 105.628906 C 542.792969 103.199219 545.132812 101.578125 548.011719 101.578125 C 550.53125 101.578125 552.601562 102.929688 553.773438 104.371094 C 555.933594 106.980469 556.382812 112.109375 556.382812 116.96875 Z M 599.40625 109.949219 C 596.34375 108.871094 593.914062 107.878906 593.914062 105.359375 C 593.914062 104.28125 594.636719 101.308594 600.214844 101.308594 C 605.707031 101.308594 609.214844 103.648438 611.464844 105.089844 L 612.277344 104.820312 L 613.175781 95.011719 L 612.726562 94.46875 C 608.496094 93.300781 604.804688 92.21875 598.957031 92.21875 C 594.546875 92.21875 585.726562 92.578125 581.046875 99.328125 C 579.875 100.949219 578.617188 103.648438 578.617188 107.25 C 578.617188 116.878906 586.085938 119.761719 590.316406 121.378906 L 593.734375 122.640625 C 596.164062 123.449219 600.125 124.800781 600.125 128.039062 C 600.125 130.289062 598.054688 132.71875 593.015625 132.71875 C 590.496094 132.71875 586.804688 131.910156 583.476562 130.199219 C 581.945312 129.390625 581.226562 128.761719 579.875 127.679688 L 579.066406 128.039062 C 578.886719 132.71875 578.796875 133.710938 578.433594 138.210938 L 578.886719 139.019531 C 583.296875 140.640625 587.074219 142.078125 593.644531 142.078125 C 600.484375 142.078125 613.984375 140.820312 615.605469 127.949219 C 615.695312 127.230469 615.695312 126.601562 615.695312 125.96875 C 615.695312 116.070312 608.765625 113.460938 603.816406 111.570312 Z M 675.902344 102.300781 C 668.34375 99.148438 664.382812 97.53125 664.382812 93.480469 C 664.382812 90.691406 666.992188 87.179688 672.933594 87.179688 C 679.773438 87.179688 683.820312 89.96875 687.152344 92.21875 L 687.960938 91.859375 L 688.683594 80.070312 L 688.230469 79.441406 C 684.363281 77.820312 680.3125 76.109375 671.582031 76.109375 C 654.664062 76.109375 648.8125 85.648438 648.8125 95.28125 C 648.8125 106.171875 657.273438 110.128906 662.3125 112.558594 L 665.28125 113.910156 C 671.492188 116.519531 676.261719 118.769531 676.261719 123.539062 C 676.261719 126.960938 673.292969 131.011719 665.460938 131.011719 C 657.273438 131.011719 652.683594 127.410156 650.070312 125.339844 L 649.171875 125.609375 L 648.542969 138.300781 L 649.082031 139.019531 C 650.070312 139.378906 651.0625 139.828125 652.050781 140.101562 C 654.121094 140.820312 659.433594 142.351562 666.183594 142.351562 C 668.882812 142.351562 675.722656 142.078125 681.121094 139.558594 C 688.683594 135.871094 691.921875 129.03125 691.921875 121.378906 C 691.921875 116.25 689.941406 110.761719 685.171875 107.070312 C 682.742188 105.269531 680.402344 104.191406 678.242188 103.199219 Z M 725.675781 130.648438 C 724.144531 131.101562 723.0625 131.460938 721.535156 131.460938 C 716.945312 131.460938 716.585938 128.578125 716.402344 127.230469 C 716.132812 124.890625 716.132812 119.941406 716.222656 116.339844 L 716.402344 103.648438 L 724.503906 104.011719 L 725.042969 103.46875 L 725.945312 93.839844 L 725.402344 93.300781 L 716.402344 93.300781 L 716.675781 78.179688 L 716.042969 77.640625 C 709.925781 79.441406 708.304688 79.890625 701.914062 81.511719 L 701.554688 82.140625 L 701.644531 93.390625 L 696.785156 93.210938 L 696.246094 93.660156 L 695.433594 103.289062 L 695.972656 103.828125 L 701.644531 103.648438 L 701.375 117.960938 C 701.285156 120.210938 701.195312 122.460938 701.195312 124.800781 C 701.195312 133.078125 701.375 141.988281 715.414062 141.988281 C 718.925781 141.988281 721.714844 141.449219 724.863281 140.910156 L 725.496094 140.28125 L 726.394531 131.011719 Z M 772.382812 114.179688 C 772.472656 106.078125 772.472656 102.570312 770.132812 98.789062 C 768.332031 95.910156 764.734375 92.308594 753.214844 92.308594 C 745.472656 92.308594 740.703125 93.75 735.574219 95.28125 L 735.035156 96 L 734.582031 105.808594 L 735.304688 106.171875 C 738.453125 104.910156 744.304688 102.570312 750.332031 102.570312 C 753.664062 102.570312 755.011719 103.109375 756.183594 104.28125 C 757.082031 105.179688 757.355469 106.800781 757.355469 108.148438 C 746.554688 109.589844 741.511719 110.578125 736.113281 113.910156 C 731.074219 117.058594 729.363281 122.191406 729.363281 126.238281 C 729.363281 135.871094 736.292969 142.078125 745.113281 142.078125 C 751.863281 142.078125 755.734375 138.839844 757.625 137.308594 L 757.625 140.640625 L 758.164062 141.269531 C 764.644531 141 766.625 140.910156 772.472656 141 L 772.921875 140.371094 C 772.292969 131.550781 772.292969 129.300781 772.292969 120.839844 L 772.382812 114.179688 M 757.535156 128.488281 C 755.644531 129.570312 753.214844 130.828125 750.242188 130.828125 C 747.003906 130.828125 744.304688 129.121094 744.304688 125.339844 C 744.304688 119.398438 751.414062 118.410156 757.535156 117.601562 Z M 808.117188 130.648438 C 806.585938 131.101562 805.503906 131.460938 803.976562 131.460938 C 799.386719 131.460938 799.027344 128.578125 798.84375 127.230469 C 798.574219 124.890625 798.574219 119.941406 798.664062 116.339844 L 798.84375 103.648438 L 806.945312 104.011719 L 807.484375 103.46875 L 808.386719 93.839844 L 807.84375 93.300781 L 798.84375 93.300781 L 799.117188 78.179688 L 798.484375 77.640625 C 792.367188 79.441406 790.746094 79.890625 784.355469 81.511719 L 783.996094 82.140625 L 784.085938 93.390625 L 779.226562 93.210938 L 778.6875 93.660156 L 777.875 103.289062 L 778.414062 103.828125 L 784.085938 103.648438 L 783.816406 117.960938 C 783.726562 120.210938 783.636719 122.460938 783.636719 124.800781 C 783.636719 133.078125 783.816406 141.988281 797.855469 141.988281 C 801.367188 141.988281 804.15625 141.449219 807.304688 140.910156 L 807.9375 140.28125 L 808.835938 131.011719 Z M 854.734375 127.679688 C 851.316406 129.480469 847.265625 131.550781 840.695312 131.550781 C 835.296875 131.550781 831.605469 129.839844 829.445312 126.601562 C 828.09375 124.710938 827.824219 122.910156 827.464844 121.109375 L 856.535156 120.570312 L 857.074219 119.941406 C 856.984375 115.53125 856.894531 111.03125 855.636719 106.53125 C 852.484375 95.910156 845.554688 93.75 842.496094 93.03125 C 840.246094 92.398438 838.175781 92.21875 836.105469 92.21875 C 821.976562 92.21875 812.613281 101.488281 812.613281 117.058594 C 812.613281 121.289062 813.335938 125.699219 814.773438 128.851562 C 819.996094 141 832.234375 142.078125 838.714844 142.078125 C 846.183594 142.078125 849.425781 140.730469 854.195312 138.839844 L 854.734375 138.121094 L 855.363281 127.949219 L 854.734375 127.679688 M 827.464844 111.570312 C 827.734375 108.78125 828.363281 105 831.785156 102.839844 C 832.863281 102.121094 834.125 101.851562 835.386719 101.851562 C 838.355469 101.851562 840.15625 103.378906 841.144531 105 C 842.40625 106.980469 842.496094 109.140625 842.496094 111.210938 Z M 859.953125 141 "/>
<path fill-rule="nonzero" fill="rgb(34.901961%, 14.901961%, 14.901961%)" fill-opacity="1" d="M 277.921875 197.191406 C 270.722656 197.460938 269.554688 197.460938 261.992188 197.460938 L 261.542969 198 C 262.171875 208.171875 262.171875 210.78125 262.261719 221.398438 C 258.304688 221.488281 254.34375 221.578125 250.292969 221.578125 C 247.144531 221.578125 243.902344 221.488281 240.753906 221.488281 L 240.933594 197.730469 L 240.484375 197.191406 C 233.554688 197.460938 232.203125 197.460938 224.375 197.460938 L 223.832031 198 C 224.285156 207.269531 224.824219 218.339844 224.824219 240.660156 C 224.824219 248.761719 224.644531 253.171875 224.464844 260.730469 L 224.914062 261.269531 C 231.484375 261 233.101562 260.910156 241.023438 261 L 241.472656 260.460938 C 240.933594 249.300781 240.84375 246.058594 240.753906 233.011719 C 244.714844 232.828125 248.042969 232.738281 251.554688 232.738281 C 255.152344 232.738281 258.753906 232.828125 262.351562 232.921875 C 262.535156 245.070312 262.535156 248.039062 262.082031 260.730469 L 262.535156 261.269531 C 269.285156 261 271.082031 260.910156 278.734375 261 L 279.183594 260.460938 C 278.464844 245.339844 278.191406 230.308594 278.191406 215.191406 C 278.191406 208.890625 278.285156 204.660156 278.375 197.730469 Z M 305.914062 260.371094 C 305.460938 253.441406 305.101562 248.128906 305.101562 235.710938 C 305.101562 228.058594 305.28125 220.320312 305.371094 212.671875 L 304.742188 211.949219 L 289.261719 214.648438 L 288.722656 215.191406 C 289.441406 222.03125 289.710938 225.179688 289.710938 237.960938 C 289.710938 247.769531 289.441406 253.261719 289.171875 260.640625 L 289.710938 261.269531 C 296.191406 261 297.992188 260.910156 305.28125 261 L 305.914062 260.371094 M 304.472656 203.308594 L 304.742188 191.070312 L 304.203125 190.53125 L 289.53125 192.328125 L 288.992188 192.960938 C 289.171875 196.199219 289.261719 198.089844 289.261719 200.25 C 289.261719 201.960938 289.261719 203.761719 289.171875 205.46875 L 289.800781 206.011719 C 295.921875 204.929688 297.632812 204.75 304.023438 203.941406 Z M 334.804688 229.949219 C 331.742188 228.871094 329.3125 227.878906 329.3125 225.359375 C 329.3125 224.28125 330.035156 221.308594 335.613281 221.308594 C 341.105469 221.308594 344.613281 223.648438 346.863281 225.089844 L 347.675781 224.820312 L 348.574219 215.011719 L 348.125 214.46875 C 343.894531 213.300781 340.203125 212.21875 334.355469 212.21875 C 329.945312 212.21875 321.125 212.578125 316.445312 219.328125 C 315.273438 220.949219 314.015625 223.648438 314.015625 227.25 C 314.015625 236.878906 321.484375 239.761719 325.714844 241.378906 L 329.132812 242.640625 C 331.5625 243.449219 335.523438 244.800781 335.523438 248.039062 C 335.523438 250.289062 333.453125 252.71875 328.414062 252.71875 C 325.894531 252.71875 322.203125 251.910156 318.875 250.199219 C 317.34375 249.390625 316.625 248.761719 315.273438 247.679688 L 314.464844 248.039062 C 314.285156 252.71875 314.195312 253.710938 313.832031 258.210938 L 314.285156 259.019531 C 318.695312 260.640625 322.472656 262.078125 329.042969 262.078125 C 335.882812 262.078125 349.382812 260.820312 351.003906 247.949219 C 351.09375 247.230469 351.09375 246.601562 351.09375 245.96875 C 351.09375 236.070312 344.164062 233.460938 339.214844 231.570312 Z M 384.214844 250.648438 C 382.683594 251.101562 381.601562 251.460938 380.074219 251.460938 C 375.484375 251.460938 375.125 248.578125 374.941406 247.230469 C 374.671875 244.890625 374.671875 239.941406 374.761719 236.339844 L 374.941406 223.648438 L 383.042969 224.011719 L 383.582031 223.46875 L 384.484375 213.839844 L 383.941406 213.300781 L 374.941406 213.300781 L 375.214844 198.179688 L 374.582031 197.640625 C 368.464844 199.441406 366.84375 199.890625 360.453125 201.511719 L 360.09375 202.140625 L 360.183594 213.390625 L 355.324219 213.210938 L 354.785156 213.660156 L 353.972656 223.289062 L 354.511719 223.828125 L 360.183594 223.648438 L 359.914062 237.960938 C 359.824219 240.210938 359.734375 242.460938 359.734375 244.800781 C 359.734375 253.078125 359.914062 261.988281 373.953125 261.988281 C 377.464844 261.988281 380.253906 261.449219 383.402344 260.910156 L 384.035156 260.28125 L 384.933594 251.011719 Z M 436.683594 237.058594 C 436.683594 233.550781 436.683594 218.96875 424.082031 214.019531 C 420.121094 212.488281 415.441406 212.308594 413.101562 212.308594 C 397.441406 212.308594 388.621094 220.679688 388.621094 237.238281 C 388.621094 243 389.523438 248.851562 392.851562 253.710938 C 395.191406 257.21875 399.601562 262.078125 412.472656 262.078125 C 431.550781 262.078125 436.683594 250.558594 436.683594 237.058594 M 421.113281 236.96875 C 421.113281 244.351562 420.121094 252.539062 412.652344 252.539062 C 410.3125 252.539062 408.691406 251.460938 407.613281 250.46875 C 406.082031 248.941406 404.371094 245.878906 404.371094 237.148438 C 404.371094 234.539062 404.371094 228.78125 406.171875 225.628906 C 407.523438 223.199219 409.863281 221.578125 412.742188 221.578125 C 415.261719 221.578125 417.332031 222.929688 418.503906 224.371094 C 420.664062 226.980469 421.113281 232.109375 421.113281 236.96875 Z M 471.242188 227.609375 L 473.761719 212.941406 L 473.222656 212.308594 C 472.59375 212.308594 471.960938 212.21875 471.332031 212.21875 C 467.640625 212.21875 463.503906 214.289062 460.621094 220.949219 L 460.890625 212.671875 L 460.171875 211.949219 C 453.511719 213.390625 451.800781 213.660156 445.230469 214.648438 L 444.691406 215.191406 C 445.230469 221.941406 445.503906 225.988281 445.503906 238.5 C 445.503906 245.878906 445.410156 253.261719 445.230469 260.730469 L 445.773438 261.269531 C 452.433594 261 453.871094 260.910156 461.070312 261 L 461.523438 260.371094 C 461.160156 253.078125 460.621094 242.910156 460.621094 236.699219 C 460.621094 232.648438 460.621094 226.710938 466.742188 226.710938 C 468.273438 226.710938 469.171875 227.25 470.433594 227.96875 Z M 495.273438 260.371094 C 494.820312 253.441406 494.460938 248.128906 494.460938 235.710938 C 494.460938 228.058594 494.640625 220.320312 494.730469 212.671875 L 494.101562 211.949219 L 478.621094 214.648438 L 478.082031 215.191406 C 478.800781 222.03125 479.070312 225.179688 479.070312 237.960938 C 479.070312 247.769531 478.800781 253.261719 478.53125 260.640625 L 479.070312 261.269531 C 485.550781 261 487.351562 260.910156 494.640625 261 L 495.273438 260.371094 M 493.832031 203.308594 L 494.101562 191.070312 L 493.5625 190.53125 L 478.890625 192.328125 L 478.351562 192.960938 C 478.53125 196.199219 478.621094 198.089844 478.621094 200.25 C 478.621094 201.960938 478.621094 203.761719 478.53125 205.46875 L 479.160156 206.011719 C 485.28125 204.929688 486.992188 204.75 493.382812 203.941406 Z M 540.453125 248.039062 C 538.023438 249.480469 535.683594 250.921875 531.09375 250.921875 C 520.921875 250.921875 518.851562 242.460938 518.851562 237.058594 C 518.851562 230.488281 521.734375 222.929688 530.464844 222.929688 C 534.421875 222.929688 536.582031 224.371094 539.285156 226.171875 L 540.183594 225.898438 C 540.542969 221.128906 540.632812 219.871094 541.351562 215.101562 L 540.902344 214.558594 C 536.941406 213.300781 533.523438 212.21875 528.304688 212.21875 C 507.152344 212.21875 503.011719 228.238281 503.011719 237.421875 C 503.011719 247.769531 508.414062 261.808594 528.664062 261.808594 C 533.433594 261.808594 536.492188 260.910156 540.273438 259.828125 L 540.8125 259.289062 L 541.171875 248.488281 Z M 586.714844 197.28125 L 575.285156 197.460938 L 574.742188 198 C 575.105469 209.699219 575.375 217.53125 575.375 227.878906 C 575.375 238.859375 575.105469 249.75 574.832031 260.730469 L 575.375 261.269531 C 582.035156 261 583.472656 260.910156 590.675781 261 L 591.125 260.460938 C 590.765625 250.648438 590.765625 248.398438 590.765625 239.21875 C 600.84375 239.308594 611.644531 239.308594 618.125 231.390625 C 620.644531 228.328125 622.804688 223.199219 622.804688 216.898438 C 622.804688 213.03125 621.902344 204.480469 614.433594 200.25 C 609.035156 197.101562 601.382812 197.101562 594.632812 197.101562 L 586.714844 197.28125 M 590.765625 208.171875 C 592.742188 208.078125 594.632812 208.078125 596.613281 208.078125 C 604.535156 208.261719 606.695312 212.308594 606.695312 217.53125 C 606.695312 218.789062 606.695312 224.011719 601.925781 226.621094 C 599.492188 227.96875 596.164062 228.148438 590.765625 228.148438 Z M 669.0625 234.179688 C 669.152344 226.078125 669.152344 222.570312 666.8125 218.789062 C 665.011719 215.910156 661.414062 212.308594 649.894531 212.308594 C 642.152344 212.308594 637.382812 213.75 632.253906 215.28125 L 631.714844 216 L 631.261719 225.808594 L 631.984375 226.171875 C 635.132812 224.910156 640.984375 222.570312 647.011719 222.570312 C 650.34375 222.570312 651.691406 223.109375 652.863281 224.28125 C 653.761719 225.179688 654.035156 226.800781 654.035156 228.148438 C 643.234375 229.589844 638.191406 230.578125 632.792969 233.910156 C 627.753906 237.058594 626.042969 242.191406 626.042969 246.238281 C 626.042969 255.871094 632.972656 262.078125 641.792969 262.078125 C 648.542969 262.078125 652.414062 258.839844 654.304688 257.308594 L 654.304688 260.640625 L 654.84375 261.269531 C 661.324219 261 663.304688 260.910156 669.152344 261 L 669.601562 260.371094 C 668.972656 251.550781 668.972656 249.300781 668.972656 240.839844 L 669.0625 234.179688 M 654.214844 248.488281 C 652.324219 249.570312 649.894531 250.828125 646.921875 250.828125 C 643.683594 250.828125 640.984375 249.121094 640.984375 245.339844 C 640.984375 239.398438 648.09375 238.410156 654.214844 237.601562 Z M 705.601562 227.609375 L 708.121094 212.941406 L 707.582031 212.308594 C 706.953125 212.308594 706.320312 212.21875 705.691406 212.21875 C 702 212.21875 697.863281 214.289062 694.980469 220.949219 L 695.25 212.671875 L 694.53125 211.949219 C 687.871094 213.390625 686.160156 213.660156 679.589844 214.648438 L 679.050781 215.191406 C 679.589844 221.941406 679.863281 225.988281 679.863281 238.5 C 679.863281 245.878906 679.769531 253.261719 679.589844 260.730469 L 680.132812 261.269531 C 686.792969 261 688.230469 260.910156 695.429688 261 L 695.882812 260.371094 C 695.519531 253.078125 694.980469 242.910156 694.980469 236.699219 C 694.980469 232.648438 694.980469 226.710938 701.101562 226.710938 C 702.632812 226.710938 703.53125 227.25 704.792969 227.96875 Z M 759.601562 259.828125 C 751.140625 245.519531 750.242188 243.898438 743.402344 231.570312 C 749.613281 223.109375 750.242188 222.210938 756.632812 214.019531 L 756.179688 213.121094 L 741.511719 213.300781 L 740.613281 213.929688 C 733.589844 226.078125 732.691406 227.519531 728.550781 233.730469 L 728.550781 223.738281 C 728.640625 206.910156 728.730469 203.308594 729.179688 189.71875 L 728.460938 189.179688 L 712.800781 191.519531 L 712.261719 192.148438 C 712.890625 200.878906 713.160156 205.109375 713.339844 216.898438 C 713.519531 231.480469 713.519531 246.058594 713.429688 260.640625 L 714.0625 261.269531 C 720.089844 261 721.800781 261 728.640625 261 L 729.179688 260.371094 L 728.640625 245.160156 L 728.550781 234.808594 C 736.382812 249.210938 737.371094 251.191406 741.960938 260.730469 L 742.769531 261.269531 L 758.972656 260.640625 Z M 758.523438 261 "/>
</svg>
