<?xml version="1.0" encoding="UTF-8"?>
<svg xmlns="http://www.w3.org/2000/svg" xmlns:xlink="http://www.w3.org/1999/xlink" width="975" height="1300" viewBox="0 0 975 1300">
<path fill-rule="nonzero" fill="rgb(98.823529%, 78.823529%, 9.019608%)" fill-opacity="1" d="M 50 50 L 925 50 L 925 290 L 50 290 Z M 50 50 "/>
<path fill-rule="nonzero" fill="rgb(34.901961%, 14.901961%, 14.901961%)" fill-opacity="1" d="M 155.796875 77.28125 L 144.367188 77.460938 L 143.824219 78 C 144.1875 89.699219 144.457031 97.53125 144.457031 107.878906 C 144.457031 118.859375 144.1875 129.75 143.914062 140.730469 L 144.457031 141.269531 C 151.117188 141 152.554688 140.910156 159.757812 141 L 160.207031 140.460938 C 159.847656 130.648438 159.847656 128.398438 159.847656 119.21875 C 169.925781 119.308594 180.726562 119.308594 187.207031 111.390625 C 189.726562 108.328125 191.886719 103.199219 191.886719 96.898438 C 191.886719 93.03125 190.984375 84.480469 183.515625 80.25 C 178.117188 77.101562 170.464844 77.101562 163.714844 77.101562 L 155.796875 77.28125 M 159.847656 88.171875 C 161.824219 88.078125 163.714844 88.078125 165.695312 88.078125 C 173.617188 88.261719 175.777344 92.308594 175.777344 97.53125 C 175.777344 98.789062 175.777344 104.011719 171.007812 106.621094 C 168.574219 107.96875 165.246094 108.148438 159.847656 108.148438 Z M 213.933594 140.371094 C 213.484375 130.019531 213.035156 120.570312 213.035156 92.128906 C 213.035156 83.578125 213.125 79.53125 213.484375 69.808594 L 212.855469 69.179688 L 197.464844 71.609375 L 197.105469 72.148438 C 198.003906 83.128906 198.09375 86.101562 198.273438 100.679688 C 198.367188 105.988281 198.367188 111.300781 198.367188 116.609375 C 198.367188 126.328125 198.183594 131.730469 197.824219 140.640625 L 198.367188 141.269531 C 204.394531 141 206.824219 140.910156 213.394531 141 Z M 264.425781 114.179688 C 264.515625 106.078125 264.515625 102.570312 262.175781 98.789062 C 260.375 95.910156 256.777344 92.308594 245.257812 92.308594 C 237.515625 92.308594 232.746094 93.75 227.617188 95.28125 L 227.078125 96 L 226.625 105.808594 L 227.347656 106.171875 C 230.496094 104.910156 236.347656 102.570312 242.375 102.570312 C 245.707031 102.570312 247.054688 103.109375 248.226562 104.28125 C 249.125 105.179688 249.398438 106.800781 249.398438 108.148438 C 238.597656 109.589844 233.554688 110.578125 228.15625 113.910156 C 223.117188 117.058594 221.40625 122.191406 221.40625 126.238281 C 221.40625 135.871094 228.335938 142.078125 237.15625 142.078125 C 243.90625 142.078125 247.777344 138.839844 249.667969 137.308594 L 249.667969 140.640625 L 250.207031 141.269531 C 256.6875 141 258.667969 140.910156 264.515625 141 L 264.964844 140.371094 C 264.335938 131.550781 264.335938 129.300781 264.335938 120.839844 L 264.425781 114.179688 M 249.578125 128.488281 C 247.6875 129.570312 245.257812 130.828125 242.285156 130.828125 C 239.046875 130.828125 236.347656 129.121094 236.347656 125.339844 C 236.347656 119.398438 243.457031 118.410156 249.578125 117.601562 Z M 310.144531 128.039062 C 307.714844 129.480469 305.375 130.921875 300.785156 130.921875 C 290.613281 130.921875 288.542969 122.460938 288.542969 117.058594 C 288.542969 110.488281 291.425781 102.929688 300.15625 102.929688 C 304.113281 102.929688 306.273438 104.371094 308.976562 106.171875 L 309.875 105.898438 C 310.234375 101.128906 310.324219 99.871094 311.042969 95.101562 L 310.59375 94.558594 C 306.632812 93.300781 303.214844 92.21875 297.996094 92.21875 C 276.84375 92.21875 272.703125 108.238281 272.703125 117.421875 C 272.703125 127.769531 278.105469 141.808594 298.355469 141.808594 C 303.125 141.808594 306.183594 140.910156 309.964844 139.828125 L 310.503906 139.289062 L 310.863281 128.488281 Z M 358.023438 127.679688 C 354.605469 129.480469 350.554688 131.550781 343.984375 131.550781 C 338.585938 131.550781 334.894531 129.839844 332.734375 126.601562 C 331.382812 124.710938 331.113281 122.910156 330.753906 121.109375 L 359.824219 120.570312 L 360.363281 119.941406 C 360.273438 115.53125 360.183594 111.03125 358.925781 106.53125 C 355.773438 95.910156 348.84375 93.75 345.785156 93.03125 C 343.535156 92.398438 341.464844 92.21875 339.394531 92.21875 C 325.265625 92.21875 315.902344 101.488281 315.902344 117.058594 C 315.902344 121.289062 316.625 125.699219 318.0625 128.851562 C 323.285156 141 335.523438 142.078125 342.003906 142.078125 C 349.472656 142.078125 352.714844 140.730469 357.484375 138.839844 L 358.023438 138.121094 L 358.652344 127.949219 L 358.023438 127.679688 M 330.753906 111.570312 C 331.023438 108.78125 331.652344 105 335.074219 102.839844 C 336.152344 102.121094 337.414062 101.851562 338.675781 101.851562 C 341.644531 101.851562 343.445312 103.378906 344.433594 105 C 345.695312 106.980469 345.785156 109.140625 345.785156 111.210938 Z M 394.65625 107.609375 L 397.175781 92.941406 L 396.636719 92.308594 C 396.007812 92.308594 395.375 92.21875 394.746094 92.21875 C 391.054688 92.21875 386.917969 94.289062 384.035156 100.949219 L 384.304688 92.671875 L 383.585938 91.949219 C 376.925781 93.390625 375.214844 93.660156 368.644531 94.648438 L 368.105469 95.191406 C 368.644531 101.941406 368.917969 105.988281 368.917969 118.5 C 368.917969 125.878906 368.824219 133.261719 368.644531 140.730469 L 369.1875 141.269531 C 375.847656 141 377.285156 140.910156 384.484375 141 L 384.9375 140.371094 C 384.574219 133.078125 384.035156 122.910156 384.035156 116.699219 C 384.035156 112.648438 384.035156 106.710938 390.15625 106.710938 C 391.6875 106.710938 392.585938 107.25 393.847656 107.96875 Z M 418.6875 140.371094 C 418.234375 133.441406 417.875 128.128906 417.875 115.710938 C 417.875 108.058594 418.054688 100.320312 418.144531 92.671875 L 417.515625 91.949219 L 402.035156 94.648438 L 401.496094 95.191406 C 402.214844 102.03125 402.484375 105.179688 402.484375 117.960938 C 402.484375 127.769531 402.214844 133.261719 401.945312 140.640625 L 402.484375 141.269531 C 408.964844 141 410.765625 140.910156 418.054688 141 L 418.6875 140.371094 M 417.246094 83.308594 L 417.515625 71.070312 L 416.976562 70.53125 L 402.304688 72.328125 L 401.765625 72.960938 C 401.945312 76.199219 402.035156 78.089844 402.035156 80.25 C 402.035156 81.960938 402.035156 83.761719 401.945312 85.46875 L 402.574219 86.011719 C 408.695312 84.929688 410.40625 84.75 416.796875 83.941406 Z M 453.878906 130.648438 C 452.347656 131.101562 451.265625 131.460938 449.738281 131.460938 C 445.148438 131.460938 444.789062 128.578125 444.605469 127.230469 C 444.335938 124.890625 444.335938 119.941406 444.425781 116.339844 L 444.605469 103.648438 L 452.707031 104.011719 L 453.246094 103.46875 L 454.148438 93.839844 L 453.605469 93.300781 L 444.605469 93.300781 L 444.878906 78.179688 L 444.246094 77.640625 C 438.128906 79.441406 436.507812 79.890625 430.117188 81.511719 L 429.757812 82.140625 L 429.847656 93.390625 L 424.988281 93.210938 L 424.449219 93.660156 L 423.636719 103.289062 L 424.175781 103.828125 L 429.847656 103.648438 L 429.578125 117.960938 C 429.488281 120.210938 429.398438 122.460938 429.398438 124.800781 C 429.398438 133.078125 429.578125 141.988281 443.617188 141.988281 C 447.128906 141.988281 449.917969 141.449219 453.066406 140.910156 L 453.699219 140.28125 L 454.597656 131.011719 Z M 500.585938 114.179688 C 500.675781 106.078125 500.675781 102.570312 498.335938 98.789062 C 496.535156 95.910156 492.9375 92.308594 481.417969 92.308594 C 473.675781 92.308594 468.90625 93.75 463.777344 95.28125 L 463.238281 96 L 462.785156 105.808594 L 463.507812 106.171875 C 466.65625 104.910156 472.507812 102.570312 478.535156 102.570312 C 481.867188 102.570312 483.214844 103.109375 484.386719 104.28125 C 485.285156 105.179688 485.558594 106.800781 485.558594 108.148438 C 474.757812 109.589844 469.714844 110.578125 464.316406 113.910156 C 459.277344 117.058594 457.566406 122.191406 457.566406 126.238281 C 457.566406 135.871094 464.496094 142.078125 473.316406 142.078125 C 480.066406 142.078125 483.9375 138.839844 485.828125 137.308594 L 485.828125 140.640625 L 486.367188 141.269531 C 492.847656 141 494.828125 140.910156 500.675781 141 L 501.125 140.371094 C 500.496094 131.550781 500.496094 129.300781 500.496094 120.839844 L 500.585938 114.179688 M 485.738281 128.488281 C 483.847656 129.570312 481.417969 130.828125 478.445312 130.828125 C 475.207031 130.828125 472.507812 129.121094 472.507812 125.339844 C 472.507812 119.398438 479.617188 118.410156 485.738281 117.601562 Z M 584.105469 124.890625 C 582.035156 126.511719 577.445312 129.929688 569.976562 129.929688 C 559.714844 129.929688 552.515625 122.28125 552.515625 109.5 C 552.515625 101.761719 555.214844 88.171875 569.886719 88.171875 C 576.636719 88.171875 580.324219 90.78125 582.574219 92.488281 L 583.386719 92.308594 L 584.195312 79.890625 L 583.835938 79.441406 C 580.597656 78.179688 575.105469 76.109375 567.1875 76.109375 C 543.875 76.109375 535.777344 94.109375 535.777344 109.859375 C 535.777344 127.140625 546.304688 142.351562 568.265625 142.351562 C 575.824219 142.351562 580.777344 140.371094 583.65625 139.199219 L 584.105469 138.660156 L 584.734375 125.25 Z M 631.804688 114.179688 C 631.894531 106.078125 631.894531 102.570312 629.554688 98.789062 C 627.753906 95.910156 624.15625 92.308594 612.636719 92.308594 C 604.894531 92.308594 600.125 93.75 594.996094 95.28125 L 594.457031 96 L 594.003906 105.808594 L 594.726562 106.171875 C 597.875 104.910156 603.726562 102.570312 609.753906 102.570312 C 613.085938 102.570312 614.433594 103.109375 615.605469 104.28125 C 616.503906 105.179688 616.777344 106.800781 616.777344 108.148438 C 605.976562 109.589844 600.933594 110.578125 595.535156 113.910156 C 590.496094 117.058594 588.785156 122.191406 588.785156 126.238281 C 588.785156 135.871094 595.714844 142.078125 604.535156 142.078125 C 611.285156 142.078125 615.15625 138.839844 617.046875 137.308594 L 617.046875 140.640625 L 617.585938 141.269531 C 624.066406 141 626.046875 140.910156 631.894531 141 L 632.34375 140.371094 C 631.714844 131.550781 631.714844 129.300781 631.714844 120.839844 L 631.804688 114.179688 M 616.957031 128.488281 C 615.066406 129.570312 612.636719 130.828125 609.664062 130.828125 C 606.425781 130.828125 603.726562 129.121094 603.726562 125.339844 C 603.726562 119.398438 610.835938 118.410156 616.957031 117.601562 Z M 686.4375 140.371094 C 685.988281 132.449219 685.988281 129.929688 685.808594 121.109375 L 685.808594 114.089844 C 685.71875 105.449219 685.628906 101.308594 683.378906 97.621094 C 680.585938 92.941406 675.457031 92.21875 672.21875 92.21875 C 666.726562 92.21875 661.957031 95.101562 657.816406 97.53125 L 657.996094 92.578125 L 657.097656 91.949219 C 650.167969 93.390625 648.636719 93.660156 641.886719 94.558594 L 641.347656 95.191406 C 642.066406 103.019531 642.609375 108.691406 642.609375 123.359375 C 642.609375 129.121094 642.515625 134.878906 642.425781 140.640625 L 642.96875 141.179688 C 649.449219 140.910156 650.796875 140.910156 657.996094 140.910156 L 658.539062 140.371094 C 657.996094 126.511719 657.90625 123 657.816406 106.890625 C 659.707031 105.628906 661.867188 104.101562 664.746094 104.101562 C 669.699219 104.101562 670.148438 109.410156 670.417969 112.648438 C 670.597656 115.621094 670.6875 127.949219 670.6875 131.371094 C 670.6875 134.429688 670.597656 137.578125 670.597656 140.640625 L 671.136719 141.179688 C 677.078125 141 678.609375 140.910156 685.808594 140.910156 Z M 736.925781 93.03125 L 724.417969 93.300781 L 723.695312 93.929688 C 722.167969 100.140625 721.808594 101.488281 719.648438 108.511719 L 717.308594 116.25 L 715.328125 123 L 713.617188 116.609375 L 711.007812 107.070312 L 707.40625 93.390625 L 706.6875 92.851562 C 699.667969 93.390625 698.136719 93.480469 690.757812 93.660156 L 690.308594 94.289062 C 693.546875 102.839844 701.917969 125.429688 707.496094 142.710938 C 703.808594 152.070312 703.085938 153.691406 699.035156 162.601562 L 699.488281 163.320312 C 701.738281 163.230469 704.257812 163.140625 706.597656 163.140625 C 708.847656 163.140625 711.1875 163.230469 713.4375 163.230469 L 714.066406 162.691406 C 719.015625 143.25 721.445312 135.691406 733.328125 104.371094 C 734.675781 100.769531 736.027344 97.261719 737.285156 93.75 Z M 787.507812 117.058594 C 787.507812 113.550781 787.507812 98.96875 774.90625 94.019531 C 770.945312 92.488281 766.265625 92.308594 763.925781 92.308594 C 748.265625 92.308594 739.445312 100.679688 739.445312 117.238281 C 739.445312 123 740.347656 128.851562 743.675781 133.710938 C 746.015625 137.21875 750.425781 142.078125 763.296875 142.078125 C 782.375 142.078125 787.507812 130.558594 787.507812 117.058594 M 771.9375 116.96875 C 771.9375 124.351562 770.945312 132.539062 763.476562 132.539062 C 761.136719 132.539062 759.515625 131.460938 758.4375 130.46875 C 756.90625 128.941406 755.195312 125.878906 755.195312 117.148438 C 755.195312 114.539062 755.195312 108.78125 756.996094 105.628906 C 758.347656 103.199219 760.6875 101.578125 763.566406 101.578125 C 766.085938 101.578125 768.15625 102.929688 769.328125 104.371094 C 771.488281 106.980469 771.9375 112.109375 771.9375 116.96875 Z M 840.15625 140.371094 C 839.707031 132.449219 839.707031 129.929688 839.527344 121.109375 L 839.527344 114.089844 C 839.4375 105.449219 839.347656 101.308594 837.097656 97.621094 C 834.304688 92.941406 829.175781 92.21875 825.9375 92.21875 C 820.445312 92.21875 815.675781 95.101562 811.535156 97.53125 L 811.714844 92.578125 L 810.816406 91.949219 C 803.886719 93.390625 802.355469 93.660156 795.605469 94.558594 L 795.066406 95.191406 C 795.785156 103.019531 796.328125 108.691406 796.328125 123.359375 C 796.328125 129.121094 796.234375 134.878906 796.144531 140.640625 L 796.6875 141.179688 C 803.167969 140.910156 804.515625 140.910156 811.714844 140.910156 L 812.257812 140.371094 C 811.714844 126.511719 811.625 123 811.535156 106.890625 C 813.425781 105.628906 815.585938 104.101562 818.464844 104.101562 C 823.417969 104.101562 823.867188 109.410156 824.136719 112.648438 C 824.316406 115.621094 824.40625 127.949219 824.40625 131.371094 C 824.40625 134.429688 824.316406 137.578125 824.316406 140.640625 L 824.855469 141.179688 C 830.796875 141 832.328125 140.910156 839.527344 140.910156 Z M 845.015625 141 "/>
<path fill-rule="nonzero" fill="rgb(34.901961%, 14.901961%, 14.901961%)" fill-opacity="1" d="M 303.890625 222.300781 C 296.332031 219.148438 292.371094 217.53125 292.371094 213.480469 C 292.371094 210.691406 294.980469 207.179688 300.921875 207.179688 C 307.761719 207.179688 311.808594 209.96875 315.140625 212.21875 L 315.949219 211.859375 L 316.671875 200.070312 L 316.21875 199.441406 C 312.351562 197.820312 308.300781 196.109375 299.570312 196.109375 C 282.652344 196.109375 276.800781 205.648438 276.800781 215.28125 C 276.800781 226.171875 285.261719 230.128906 290.300781 232.558594 L 293.269531 233.910156 C 299.480469 236.519531 304.25 238.769531 304.25 243.539062 C 304.25 246.960938 301.28125 251.011719 293.449219 251.011719 C 285.261719 251.011719 280.671875 247.410156 278.058594 245.339844 L 277.160156 245.609375 L 276.53125 258.300781 L 277.070312 259.019531 C 278.058594 259.378906 279.050781 259.828125 280.039062 260.101562 C 282.109375 260.820312 287.421875 262.351562 294.171875 262.351562 C 296.871094 262.351562 303.710938 262.078125 309.109375 259.558594 C 316.671875 255.871094 319.910156 249.03125 319.910156 241.378906 C 319.910156 236.25 317.929688 230.761719 313.160156 227.070312 C 310.730469 225.269531 308.390625 224.191406 306.230469 223.199219 Z M 353.660156 250.648438 C 352.128906 251.101562 351.046875 251.460938 349.519531 251.460938 C 344.929688 251.460938 344.570312 248.578125 344.386719 247.230469 C 344.117188 244.890625 344.117188 239.941406 344.207031 236.339844 L 344.386719 223.648438 L 352.488281 224.011719 L 353.027344 223.46875 L 353.929688 213.839844 L 353.386719 213.300781 L 344.386719 213.300781 L 344.660156 198.179688 L 344.027344 197.640625 C 337.910156 199.441406 336.289062 199.890625 329.898438 201.511719 L 329.539062 202.140625 L 329.628906 213.390625 L 324.769531 213.210938 L 324.230469 213.660156 L 323.417969 223.289062 L 323.957031 223.828125 L 329.628906 223.648438 L 329.359375 237.960938 C 329.269531 240.210938 329.179688 242.460938 329.179688 244.800781 C 329.179688 253.078125 329.359375 261.988281 343.398438 261.988281 C 346.910156 261.988281 349.699219 261.449219 352.847656 260.910156 L 353.480469 260.28125 L 354.378906 251.011719 Z M 400.371094 234.179688 C 400.460938 226.078125 400.460938 222.570312 398.121094 218.789062 C 396.320312 215.910156 392.722656 212.308594 381.203125 212.308594 C 373.460938 212.308594 368.691406 213.75 363.5625 215.28125 L 363.023438 216 L 362.570312 225.808594 L 363.292969 226.171875 C 366.441406 224.910156 372.292969 222.570312 378.320312 222.570312 C 381.652344 222.570312 383 223.109375 384.171875 224.28125 C 385.070312 225.179688 385.34375 226.800781 385.34375 228.148438 C 374.542969 229.589844 369.5 230.578125 364.101562 233.910156 C 359.0625 237.058594 357.351562 242.191406 357.351562 246.238281 C 357.351562 255.871094 364.28125 262.078125 373.101562 262.078125 C 379.851562 262.078125 383.722656 258.839844 385.613281 257.308594 L 385.613281 260.640625 L 386.152344 261.269531 C 392.632812 261 394.613281 260.910156 400.460938 261 L 400.910156 260.371094 C 400.28125 251.550781 400.28125 249.300781 400.28125 240.839844 L 400.371094 234.179688 M 385.523438 248.488281 C 383.632812 249.570312 381.203125 250.828125 378.230469 250.828125 C 374.992188 250.828125 372.292969 249.121094 372.292969 245.339844 C 372.292969 239.398438 379.402344 238.410156 385.523438 237.601562 Z M 436.101562 250.648438 C 434.570312 251.101562 433.488281 251.460938 431.960938 251.460938 C 427.371094 251.460938 427.011719 248.578125 426.828125 247.230469 C 426.558594 244.890625 426.558594 239.941406 426.648438 236.339844 L 426.828125 223.648438 L 434.929688 224.011719 L 435.46875 223.46875 L 436.371094 213.839844 L 435.828125 213.300781 L 426.828125 213.300781 L 427.101562 198.179688 L 426.46875 197.640625 C 420.351562 199.441406 418.730469 199.890625 412.339844 201.511719 L 411.980469 202.140625 L 412.070312 213.390625 L 407.210938 213.210938 L 406.671875 213.660156 L 405.859375 223.289062 L 406.398438 223.828125 L 412.070312 223.648438 L 411.800781 237.960938 C 411.710938 240.210938 411.621094 242.460938 411.621094 244.800781 C 411.621094 253.078125 411.800781 261.988281 425.839844 261.988281 C 429.351562 261.988281 432.140625 261.449219 435.289062 260.910156 L 435.921875 260.28125 L 436.820312 251.011719 Z M 482.71875 247.679688 C 479.300781 249.480469 475.25 251.550781 468.679688 251.550781 C 463.28125 251.550781 459.589844 249.839844 457.429688 246.601562 C 456.078125 244.710938 455.808594 242.910156 455.449219 241.109375 L 484.519531 240.570312 L 485.058594 239.941406 C 484.96875 235.53125 484.878906 231.03125 483.621094 226.53125 C 480.46875 215.910156 473.539062 213.75 470.480469 213.03125 C 468.230469 212.398438 466.160156 212.21875 464.089844 212.21875 C 449.960938 212.21875 440.597656 221.488281 440.597656 237.058594 C 440.597656 241.289062 441.320312 245.699219 442.757812 248.851562 C 447.980469 261 460.21875 262.078125 466.699219 262.078125 C 474.167969 262.078125 477.410156 260.730469 482.179688 258.839844 L 482.71875 258.121094 L 483.347656 247.949219 L 482.71875 247.679688 M 455.449219 231.570312 C 455.71875 228.78125 456.347656 225 459.769531 222.839844 C 460.847656 222.121094 462.109375 221.851562 463.371094 221.851562 C 466.339844 221.851562 468.140625 223.378906 469.128906 225 C 470.390625 226.980469 470.480469 229.140625 470.480469 231.210938 Z M 531.679688 197.28125 L 520.25 197.460938 L 519.707031 198 C 520.070312 209.699219 520.339844 217.53125 520.339844 227.878906 C 520.339844 238.859375 520.070312 249.75 519.796875 260.730469 L 520.339844 261.269531 C 527 261 528.4375 260.910156 535.640625 261 L 536.089844 260.460938 C 535.730469 250.648438 535.730469 248.398438 535.730469 239.21875 C 545.808594 239.308594 556.609375 239.308594 563.089844 231.390625 C 565.609375 228.328125 567.769531 223.199219 567.769531 216.898438 C 567.769531 213.03125 566.867188 204.480469 559.398438 200.25 C 554 197.101562 546.347656 197.101562 539.597656 197.101562 L 531.679688 197.28125 M 535.730469 208.171875 C 537.707031 208.078125 539.597656 208.078125 541.578125 208.078125 C 549.5 208.261719 551.660156 212.308594 551.660156 217.53125 C 551.660156 218.789062 551.660156 224.011719 546.890625 226.621094 C 544.457031 227.96875 541.128906 228.148438 535.730469 228.148438 Z M 614.03125 234.179688 C 614.121094 226.078125 614.121094 222.570312 611.78125 218.789062 C 609.980469 215.910156 606.382812 212.308594 594.863281 212.308594 C 587.121094 212.308594 582.351562 213.75 577.222656 215.28125 L 576.683594 216 L 576.230469 225.808594 L 576.953125 226.171875 C 580.101562 224.910156 585.953125 222.570312 591.980469 222.570312 C 595.3125 222.570312 596.660156 223.109375 597.832031 224.28125 C 598.730469 225.179688 599.003906 226.800781 599.003906 228.148438 C 588.203125 229.589844 583.160156 230.578125 577.761719 233.910156 C 572.722656 237.058594 571.011719 242.191406 571.011719 246.238281 C 571.011719 255.871094 577.941406 262.078125 586.761719 262.078125 C 593.511719 262.078125 597.382812 258.839844 599.273438 257.308594 L 599.273438 260.640625 L 599.8125 261.269531 C 606.292969 261 608.273438 260.910156 614.121094 261 L 614.570312 260.371094 C 613.941406 251.550781 613.941406 249.300781 613.941406 240.839844 L 614.03125 234.179688 M 599.183594 248.488281 C 597.292969 249.570312 594.863281 250.828125 591.890625 250.828125 C 588.652344 250.828125 585.953125 249.121094 585.953125 245.339844 C 585.953125 239.398438 593.0625 238.410156 599.183594 237.601562 Z M 650.570312 227.609375 L 653.089844 212.941406 L 652.550781 212.308594 C 651.921875 212.308594 651.289062 212.21875 650.660156 212.21875 C 646.96875 212.21875 642.832031 214.289062 639.949219 220.949219 L 640.21875 212.671875 L 639.5 211.949219 C 632.839844 213.390625 631.128906 213.660156 624.558594 214.648438 L 624.019531 215.191406 C 624.558594 221.941406 624.832031 225.988281 624.832031 238.5 C 624.832031 245.878906 624.738281 253.261719 624.558594 260.730469 L 625.101562 261.269531 C 631.761719 261 633.199219 260.910156 640.398438 261 L 640.851562 260.371094 C 640.488281 253.078125 639.949219 242.910156 639.949219 236.699219 C 639.949219 232.648438 639.949219 226.710938 646.070312 226.710938 C 647.601562 226.710938 648.5 227.25 649.761719 227.96875 Z M 704.570312 259.828125 C 696.109375 245.519531 695.210938 243.898438 688.371094 231.570312 C 694.582031 223.109375 695.210938 222.210938 701.601562 214.019531 L 701.148438 213.121094 L 686.480469 213.300781 L 685.582031 213.929688 C 678.558594 226.078125 677.660156 227.519531 673.519531 233.730469 L 673.519531 223.738281 C 673.609375 206.910156 673.699219 203.308594 674.148438 189.71875 L 673.429688 189.179688 L 657.769531 191.519531 L 657.230469 192.148438 C 657.859375 200.878906 658.128906 205.109375 658.308594 216.898438 C 658.488281 231.480469 658.488281 246.058594 658.398438 260.640625 L 659.03125 261.269531 C 665.058594 261 666.769531 261 673.609375 261 L 674.148438 260.371094 L 673.609375 245.160156 L 673.519531 234.808594 C 681.351562 249.210938 682.339844 251.191406 686.929688 260.730469 L 687.738281 261.269531 L 703.941406 260.640625 Z M 703.492188 261 "/>
</svg>
