<?xml version="1.0" encoding="UTF-8"?>
<svg xmlns="http://www.w3.org/2000/svg" xmlns:xlink="http://www.w3.org/1999/xlink" width="975" height="1300" viewBox="0 0 975 1300">
<path fill-rule="nonzero" fill="rgb(98.823529%, 78.823529%, 9.019608%)" fill-opacity="1" d="M 50 50 L 925 50 L 925 290 L 50 290 Z M 50 50 "/>
<path fill-rule="nonzero" fill="rgb(34.901961%, 14.901961%, 14.901961%)" fill-opacity="1" d="M 138.875 77.28125 L 127.445312 77.460938 L 126.902344 78 C 127.265625 89.699219 127.535156 97.53125 127.535156 107.878906 C 127.535156 118.859375 127.265625 129.75 126.992188 140.730469 L 127.535156 141.269531 C 134.195312 141 135.632812 140.910156 142.835938 141 L 143.285156 140.460938 C 142.925781 130.648438 142.925781 128.398438 142.925781 119.21875 C 153.003906 119.308594 163.804688 119.308594 170.285156 111.390625 C 172.804688 108.328125 174.964844 103.199219 174.964844 96.898438 C 174.964844 93.03125 174.0625 84.480469 166.59375 80.25 C 161.195312 77.101562 153.542969 77.101562 146.792969 77.101562 L 138.875 77.28125 M 142.925781 88.171875 C 144.902344 88.078125 146.792969 88.078125 148.773438 88.078125 C 156.695312 88.261719 158.855469 92.308594 158.855469 97.53125 C 158.855469 98.789062 158.855469 104.011719 154.085938 106.621094 C 151.652344 107.96875 148.324219 108.148438 142.925781 108.148438 Z M 226.984375 117.058594 C 226.984375 113.550781 226.984375 98.96875 214.382812 94.019531 C 210.421875 92.488281 205.742188 92.308594 203.402344 92.308594 C 187.742188 92.308594 178.921875 100.679688 178.921875 117.238281 C 178.921875 123 179.824219 128.851562 183.152344 133.710938 C 185.492188 137.21875 189.902344 142.078125 202.773438 142.078125 C 221.851562 142.078125 226.984375 130.558594 226.984375 117.058594 M 211.414062 116.96875 C 211.414062 124.351562 210.421875 132.539062 202.953125 132.539062 C 200.613281 132.539062 198.992188 131.460938 197.914062 130.46875 C 196.382812 128.941406 194.671875 125.878906 194.671875 117.148438 C 194.671875 114.539062 194.671875 108.78125 196.472656 105.628906 C 197.824219 103.199219 200.164062 101.578125 203.042969 101.578125 C 205.5625 101.578125 207.632812 102.929688 208.804688 104.371094 C 210.964844 106.980469 211.414062 112.109375 211.414062 116.96875 Z M 251.824219 140.371094 C 251.371094 133.441406 251.011719 128.128906 251.011719 115.710938 C 251.011719 108.058594 251.191406 100.320312 251.28125 92.671875 L 250.652344 91.949219 L 235.171875 94.648438 L 234.632812 95.191406 C 235.351562 102.03125 235.621094 105.179688 235.621094 117.960938 C 235.621094 127.769531 235.351562 133.261719 235.082031 140.640625 L 235.621094 141.269531 C 242.101562 141 243.902344 140.910156 251.191406 141 L 251.824219 140.371094 M 250.382812 83.308594 L 250.652344 71.070312 L 250.113281 70.53125 L 235.441406 72.328125 L 234.902344 72.960938 C 235.082031 76.199219 235.171875 78.089844 235.171875 80.25 C 235.171875 81.960938 235.171875 83.761719 235.082031 85.46875 L 235.710938 86.011719 C 241.832031 84.929688 243.542969 84.75 249.933594 83.941406 Z M 305.914062 140.371094 C 305.464844 132.449219 305.464844 129.929688 305.285156 121.109375 L 305.285156 114.089844 C 305.195312 105.449219 305.105469 101.308594 302.855469 97.621094 C 300.0625 92.941406 294.933594 92.21875 291.695312 92.21875 C 286.203125 92.21875 281.433594 95.101562 277.292969 97.53125 L 277.472656 92.578125 L 276.574219 91.949219 C 269.644531 93.390625 268.113281 93.660156 261.363281 94.558594 L 260.824219 95.191406 C 261.542969 103.019531 262.085938 108.691406 262.085938 123.359375 C 262.085938 129.121094 261.992188 134.878906 261.902344 140.640625 L 262.445312 141.179688 C 268.925781 140.910156 270.273438 140.910156 277.472656 140.910156 L 278.015625 140.371094 C 277.472656 126.511719 277.382812 123 277.292969 106.890625 C 279.183594 105.628906 281.34375 104.101562 284.222656 104.101562 C 289.175781 104.101562 289.625 109.410156 289.894531 112.648438 C 290.074219 115.621094 290.164062 127.949219 290.164062 131.371094 C 290.164062 134.429688 290.074219 137.578125 290.074219 140.640625 L 290.613281 141.179688 C 296.554688 141 298.085938 140.910156 305.285156 140.910156 Z M 341.375 130.648438 C 339.84375 131.101562 338.761719 131.460938 337.234375 131.460938 C 332.644531 131.460938 332.285156 128.578125 332.101562 127.230469 C 331.832031 124.890625 331.832031 119.941406 331.921875 116.339844 L 332.101562 103.648438 L 340.203125 104.011719 L 340.742188 103.46875 L 341.644531 93.839844 L 341.101562 93.300781 L 332.101562 93.300781 L 332.375 78.179688 L 331.742188 77.640625 C 325.625 79.441406 324.003906 79.890625 317.613281 81.511719 L 317.253906 82.140625 L 317.34375 93.390625 L 312.484375 93.210938 L 311.945312 93.660156 L 311.132812 103.289062 L 311.671875 103.828125 L 317.34375 103.648438 L 317.074219 117.960938 C 316.984375 120.210938 316.894531 122.460938 316.894531 124.800781 C 316.894531 133.078125 317.074219 141.988281 331.113281 141.988281 C 334.625 141.988281 337.414062 141.449219 340.5625 140.910156 L 341.195312 140.28125 L 342.09375 131.011719 Z M 385.835938 141 C 388.175781 141.089844 390.605469 141.089844 392.945312 141.089844 C 403.023438 141.089844 419.3125 140.730469 425.882812 124.710938 C 428.3125 118.769531 428.855469 111.570312 428.855469 107.519531 C 428.855469 99.058594 426.964844 92.578125 424.714844 88.53125 C 418.59375 77.371094 406.984375 77.011719 396.722656 77.011719 C 392.585938 77.011719 388.445312 77.191406 384.304688 77.371094 L 374.765625 77.460938 L 374.222656 78 C 374.585938 86.640625 374.945312 94.199219 374.945312 119.128906 C 374.945312 127.949219 374.855469 133.261719 374.675781 140.640625 L 375.214844 141 L 385.835938 141 M 390.785156 129.390625 C 390.605469 120.570312 390.515625 112.199219 390.515625 103.558594 C 390.515625 98.699219 390.515625 93.839844 390.605469 88.980469 C 392.402344 88.890625 394.292969 88.800781 396.09375 88.800781 C 401.585938 88.800781 412.292969 88.800781 412.292969 107.96875 C 412.292969 119.21875 408.0625 124.261719 405.902344 126.058594 C 401.855469 129.390625 395.644531 129.390625 390.785156 129.390625 Z M 481.234375 92.851562 L 466.5625 93.570312 L 465.933594 94.109375 C 466.5625 104.28125 466.5625 118.679688 466.5625 120.121094 C 466.5625 122.730469 466.5625 124.171875 466.472656 127.769531 C 464.042969 129.390625 462.152344 130.738281 459.722656 130.738281 C 453.242188 130.738281 453.242188 123.898438 453.242188 118.589844 C 453.242188 116.339844 453.242188 114 453.332031 111.75 L 453.511719 93.570312 L 452.882812 92.851562 L 438.03125 93.570312 L 437.402344 94.109375 C 437.941406 101.671875 438.03125 104.191406 438.03125 113.28125 L 438.03125 119.578125 C 437.941406 129.390625 438.394531 133.53125 441.632812 137.308594 C 444.601562 140.640625 448.921875 142.078125 453.421875 142.078125 C 459.8125 142.078125 463.503906 139.199219 466.742188 136.679688 L 466.652344 140.730469 L 467.28125 141.269531 C 473.851562 141 475.832031 141 481.683594 141 L 482.222656 140.460938 C 481.773438 134.070312 481.59375 130.648438 481.59375 118.949219 C 481.59375 110.488281 481.683594 102.03125 481.863281 93.570312 Z M 562.683594 140.371094 C 562.230469 132 562.140625 129.660156 562.140625 119.488281 L 562.140625 112.738281 C 562.230469 106.710938 562.320312 101.128906 559.710938 97.351562 C 556.203125 92.21875 549.992188 92.21875 548.550781 92.21875 C 541.171875 92.21875 536.222656 95.550781 532.621094 98.070312 C 531.363281 96 529.113281 92.21875 521.914062 92.21875 C 515.972656 92.21875 512.101562 94.921875 507.960938 97.800781 L 507.960938 92.761719 L 507.152344 91.949219 C 500.132812 93.300781 498.152344 93.660156 491.851562 94.558594 L 491.3125 95.191406 C 492.03125 102.390625 492.570312 107.339844 492.570312 125.160156 C 492.570312 130.289062 492.480469 135.511719 492.480469 140.640625 L 492.933594 141.179688 C 498.691406 141 500.671875 140.910156 508.140625 140.910156 L 508.683594 140.371094 C 508.050781 126.511719 507.960938 122.371094 507.871094 106.710938 C 509.761719 105.359375 511.832031 104.191406 514.082031 104.191406 C 519.664062 104.191406 519.84375 110.578125 519.84375 118.320312 C 519.84375 131.371094 519.753906 133.351562 519.570312 140.640625 L 520.113281 141.269531 C 526.953125 140.910156 528.84375 140.910156 535.050781 140.910156 L 535.59375 140.371094 C 535.050781 131.820312 534.960938 129.300781 534.871094 118.410156 L 534.871094 115.078125 L 534.78125 105.988281 C 536.3125 105 538.292969 103.738281 540.992188 103.738281 C 546.121094 103.738281 546.933594 108.601562 546.933594 116.339844 C 546.933594 118.050781 546.84375 119.761719 546.84375 121.46875 C 546.753906 124.53125 546.664062 137.941406 546.570312 140.640625 L 547.113281 141.179688 C 553.863281 140.910156 555.84375 140.910156 562.140625 140.910156 Z M 612.992188 127.679688 C 609.574219 129.480469 605.523438 131.550781 598.953125 131.550781 C 593.554688 131.550781 589.863281 129.839844 587.703125 126.601562 C 586.351562 124.710938 586.082031 122.910156 585.722656 121.109375 L 614.792969 120.570312 L 615.332031 119.941406 C 615.242188 115.53125 615.152344 111.03125 613.894531 106.53125 C 610.742188 95.910156 603.8125 93.75 600.753906 93.03125 C 598.503906 92.398438 596.433594 92.21875 594.363281 92.21875 C 580.234375 92.21875 570.871094 101.488281 570.871094 117.058594 C 570.871094 121.289062 571.59375 125.699219 573.03125 128.851562 C 578.253906 141 590.492188 142.078125 596.972656 142.078125 C 604.441406 142.078125 607.683594 140.730469 612.453125 138.839844 L 612.992188 138.121094 L 613.621094 127.949219 L 612.992188 127.679688 M 585.722656 111.570312 C 585.992188 108.78125 586.621094 105 590.042969 102.839844 C 591.121094 102.121094 592.382812 101.851562 593.644531 101.851562 C 596.613281 101.851562 598.414062 103.378906 599.402344 105 C 600.664062 106.980469 600.753906 109.140625 600.753906 111.210938 Z M 675.902344 102.300781 C 668.34375 99.148438 664.382812 97.53125 664.382812 93.480469 C 664.382812 90.691406 666.992188 87.179688 672.933594 87.179688 C 679.773438 87.179688 683.820312 89.96875 687.152344 92.21875 L 687.960938 91.859375 L 688.683594 80.070312 L 688.230469 79.441406 C 684.363281 77.820312 680.3125 76.109375 671.582031 76.109375 C 654.664062 76.109375 648.8125 85.648438 648.8125 95.28125 C 648.8125 106.171875 657.273438 110.128906 662.3125 112.558594 L 665.28125 113.910156 C 671.492188 116.519531 676.261719 118.769531 676.261719 123.539062 C 676.261719 126.960938 673.292969 131.011719 665.460938 131.011719 C 657.273438 131.011719 652.683594 127.410156 650.070312 125.339844 L 649.171875 125.609375 L 648.542969 138.300781 L 649.082031 139.019531 C 650.070312 139.378906 651.0625 139.828125 652.050781 140.101562 C 654.121094 140.820312 659.433594 142.351562 666.183594 142.351562 C 668.882812 142.351562 675.722656 142.078125 681.121094 139.558594 C 688.683594 135.871094 691.921875 129.03125 691.921875 121.378906 C 691.921875 116.25 689.941406 110.761719 685.171875 107.070312 C 682.742188 105.269531 680.402344 104.191406 678.242188 103.199219 Z M 725.675781 130.648438 C 724.144531 131.101562 723.0625 131.460938 721.535156 131.460938 C 716.945312 131.460938 716.585938 128.578125 716.402344 127.230469 C 716.132812 124.890625 716.132812 119.941406 716.222656 116.339844 L 716.402344 103.648438 L 724.503906 104.011719 L 725.042969 103.46875 L 725.945312 93.839844 L 725.402344 93.300781 L 716.402344 93.300781 L 716.675781 78.179688 L 716.042969 77.640625 C 709.925781 79.441406 708.304688 79.890625 701.914062 81.511719 L 701.554688 82.140625 L 701.644531 93.390625 L 696.785156 93.210938 L 696.246094 93.660156 L 695.433594 103.289062 L 695.972656 103.828125 L 701.644531 103.648438 L 701.375 117.960938 C 701.285156 120.210938 701.195312 122.460938 701.195312 124.800781 C 701.195312 133.078125 701.375 141.988281 715.414062 141.988281 C 718.925781 141.988281 721.714844 141.449219 724.863281 140.910156 L 725.496094 140.28125 L 726.394531 131.011719 Z M 772.382812 114.179688 C 772.472656 106.078125 772.472656 102.570312 770.132812 98.789062 C 768.332031 95.910156 764.734375 92.308594 753.214844 92.308594 C 745.472656 92.308594 740.703125 93.75 735.574219 95.28125 L 735.035156 96 L 734.582031 105.808594 L 735.304688 106.171875 C 738.453125 104.910156 744.304688 102.570312 750.332031 102.570312 C 753.664062 102.570312 755.011719 103.109375 756.183594 104.28125 C 757.082031 105.179688 757.355469 106.800781 757.355469 108.148438 C 746.554688 109.589844 741.511719 110.578125 736.113281 113.910156 C 731.074219 117.058594 729.363281 122.191406 729.363281 126.238281 C 729.363281 135.871094 736.292969 142.078125 745.113281 142.078125 C 751.863281 142.078125 755.734375 138.839844 757.625 137.308594 L 757.625 140.640625 L 758.164062 141.269531 C 764.644531 141 766.625 140.910156 772.472656 141 L 772.921875 140.371094 C 772.292969 131.550781 772.292969 129.300781 772.292969 120.839844 L 772.382812 114.179688 M 757.535156 128.488281 C 755.644531 129.570312 753.214844 130.828125 750.242188 130.828125 C 747.003906 130.828125 744.304688 129.121094 744.304688 125.339844 C 744.304688 119.398438 751.414062 118.410156 757.535156 117.601562 Z M 808.117188 130.648438 C 806.585938 131.101562 805.503906 131.460938 803.976562 131.460938 C 799.386719 131.460938 799.027344 128.578125 798.84375 127.230469 C 798.574219 124.890625 798.574219 119.941406 798.664062 116.339844 L 798.84375 103.648438 L 806.945312 104.011719 L 807.484375 103.46875 L 808.386719 93.839844 L 807.84375 93.300781 L 798.84375 93.300781 L 799.117188 78.179688 L 798.484375 77.640625 C 792.367188 79.441406 790.746094 79.890625 784.355469 81.511719 L 783.996094 82.140625 L 784.085938 93.390625 L 779.226562 93.210938 L 778.6875 93.660156 L 777.875 103.289062 L 778.414062 103.828125 L 784.085938 103.648438 L 783.816406 117.960938 C 783.726562 120.210938 783.636719 122.460938 783.636719 124.800781 C 783.636719 133.078125 783.816406 141.988281 797.855469 141.988281 C 801.367188 141.988281 804.15625 141.449219 807.304688 140.910156 L 807.9375 140.28125 L 808.835938 131.011719 Z M 854.734375 127.679688 C 851.316406 129.480469 847.265625 131.550781 840.695312 131.550781 C 835.296875 131.550781 831.605469 129.839844 829.445312 126.601562 C 828.09375 124.710938 827.824219 122.910156 827.464844 121.109375 L 856.535156 120.570312 L 857.074219 119.941406 C 856.984375 115.53125 856.894531 111.03125 855.636719 106.53125 C 852.484375 95.910156 845.554688 93.75 842.496094 93.03125 C 840.246094 92.398438 838.175781 92.21875 836.105469 92.21875 C 821.976562 92.21875 812.613281 101.488281 812.613281 117.058594 C 812.613281 121.289062 813.335938 125.699219 814.773438 128.851562 C 819.996094 141 832.234375 142.078125 838.714844 142.078125 C 846.183594 142.078125 849.425781 140.730469 854.195312 138.839844 L 854.734375 138.121094 L 855.363281 127.949219 L 854.734375 127.679688 M 827.464844 111.570312 C 827.734375 108.78125 828.363281 105 831.785156 102.839844 C 832.863281 102.121094 834.125 101.851562 835.386719 101.851562 C 838.355469 101.851562 840.15625 103.378906 841.144531 105 C 842.40625 106.980469 842.496094 109.140625 842.496094 111.210938 Z M 859.953125 141 "/>
<path fill-rule="nonzero" fill="rgb(34.901961%, 14.901961%, 14.901961%)" fill-opacity="1" d="M 385.519531 261 C 393.890625 261.179688 404.238281 261.359375 410.988281 256.679688 C 416.929688 252.449219 418.550781 246.511719 418.550781 241.46875 C 418.550781 235.710938 416.117188 230.398438 410.988281 227.878906 C 409.277344 226.980469 407.300781 226.621094 405.410156 226.261719 C 408.46875 225 412.070312 223.378906 414.410156 218.609375 C 415.398438 216.539062 415.847656 214.378906 415.847656 212.308594 C 415.847656 209.429688 415.128906 205.46875 412.25 202.230469 C 408.46875 198.179688 402.617188 197.101562 393.800781 197.101562 C 390.738281 197.101562 385.25 197.191406 382.1875 197.28125 L 369.589844 197.460938 L 369.050781 198 C 369.410156 206.640625 369.5 209.96875 369.5 222.390625 C 369.5 235.171875 369.410156 247.859375 369.230469 260.640625 L 369.859375 261 L 385.519531 261 M 384.890625 233.640625 C 391.730469 233.460938 395.6875 233.460938 398.300781 234.988281 C 400.910156 236.609375 401.898438 239.488281 401.898438 242.371094 C 401.898438 246.421875 399.648438 248.941406 396.320312 250.109375 C 393.617188 251.011719 388.757812 251.011719 384.890625 250.921875 L 384.890625 233.640625 M 384.890625 207.179688 C 386.777344 207.179688 389.300781 207.089844 390.828125 207.089844 C 395.6875 207.089844 400.097656 208.800781 400.097656 214.648438 C 400.097656 219.421875 396.589844 221.398438 395.507812 221.941406 C 393.257812 222.929688 388.488281 222.929688 384.890625 222.929688 Z M 466.878906 247.679688 C 463.460938 249.480469 459.410156 251.550781 452.839844 251.550781 C 447.441406 251.550781 443.75 249.839844 441.589844 246.601562 C 440.238281 244.710938 439.96875 242.910156 439.609375 241.109375 L 468.679688 240.570312 L 469.21875 239.941406 C 469.128906 235.53125 469.039062 231.03125 467.78125 226.53125 C 464.628906 215.910156 457.699219 213.75 454.640625 213.03125 C 452.390625 212.398438 450.320312 212.21875 448.25 212.21875 C 434.121094 212.21875 424.757812 221.488281 424.757812 237.058594 C 424.757812 241.289062 425.480469 245.699219 426.917969 248.851562 C 432.140625 261 444.378906 262.078125 450.859375 262.078125 C 458.328125 262.078125 461.570312 260.730469 466.339844 258.839844 L 466.878906 258.121094 L 467.507812 247.949219 L 466.878906 247.679688 M 439.609375 231.570312 C 439.878906 228.78125 440.507812 225 443.929688 222.839844 C 445.007812 222.121094 446.269531 221.851562 447.53125 221.851562 C 450.5 221.851562 452.300781 223.378906 453.289062 225 C 454.550781 226.980469 454.640625 229.140625 454.640625 231.210938 Z M 517.546875 234.179688 C 517.636719 226.078125 517.636719 222.570312 515.296875 218.789062 C 513.496094 215.910156 509.898438 212.308594 498.378906 212.308594 C 490.636719 212.308594 485.867188 213.75 480.738281 215.28125 L 480.199219 216 L 479.746094 225.808594 L 480.46875 226.171875 C 483.617188 224.910156 489.46875 222.570312 495.496094 222.570312 C 498.828125 222.570312 500.175781 223.109375 501.347656 224.28125 C 502.246094 225.179688 502.519531 226.800781 502.519531 228.148438 C 491.71875 229.589844 486.675781 230.578125 481.277344 233.910156 C 476.238281 237.058594 474.527344 242.191406 474.527344 246.238281 C 474.527344 255.871094 481.457031 262.078125 490.277344 262.078125 C 497.027344 262.078125 500.898438 258.839844 502.789062 257.308594 L 502.789062 260.640625 L 503.328125 261.269531 C 509.808594 261 511.789062 260.910156 517.636719 261 L 518.085938 260.371094 C 517.457031 251.550781 517.457031 249.300781 517.457031 240.839844 L 517.546875 234.179688 M 502.699219 248.488281 C 500.808594 249.570312 498.378906 250.828125 495.40625 250.828125 C 492.167969 250.828125 489.46875 249.121094 489.46875 245.339844 C 489.46875 239.398438 496.578125 238.410156 502.699219 237.601562 Z M 563.269531 248.039062 C 560.839844 249.480469 558.5 250.921875 553.910156 250.921875 C 543.738281 250.921875 541.667969 242.460938 541.667969 237.058594 C 541.667969 230.488281 544.550781 222.929688 553.28125 222.929688 C 557.238281 222.929688 559.398438 224.371094 562.101562 226.171875 L 563 225.898438 C 563.359375 221.128906 563.449219 219.871094 564.167969 215.101562 L 563.71875 214.558594 C 559.757812 213.300781 556.339844 212.21875 551.121094 212.21875 C 529.96875 212.21875 525.828125 228.238281 525.828125 237.421875 C 525.828125 247.769531 531.230469 261.808594 551.480469 261.808594 C 556.25 261.808594 559.308594 260.910156 563.089844 259.828125 L 563.628906 259.289062 L 563.988281 248.488281 Z M 615.289062 260.371094 C 614.929688 252.988281 614.839844 250.46875 614.660156 241.109375 L 614.660156 234.359375 C 614.570312 225.808594 614.480469 220.859375 611.867188 217.078125 C 609.257812 213.390625 605.480469 212.21875 601.519531 212.21875 C 594.949219 212.21875 589.820312 215.371094 586.21875 217.53125 L 586.488281 189.808594 L 585.949219 189.179688 L 570.558594 191.609375 L 570.109375 192.148438 C 570.917969 200.878906 571.097656 204.121094 571.277344 215.730469 C 571.460938 223.019531 571.550781 230.308594 571.550781 237.601562 C 571.550781 246.511719 571.367188 251.820312 571.1875 260.640625 L 571.640625 261.269531 C 578.300781 260.910156 579.648438 260.910156 586.9375 260.910156 L 587.480469 260.371094 C 586.847656 246.871094 586.757812 242.820312 586.667969 226.890625 C 588.378906 225.71875 590.539062 224.191406 593.597656 224.191406 C 598.550781 224.191406 598.910156 229.320312 599.269531 232.921875 C 599.449219 235.710938 599.539062 248.488281 599.539062 251.820312 C 599.539062 254.789062 599.449219 257.671875 599.449219 260.640625 L 599.898438 261.269531 C 606.378906 260.910156 607.820312 260.910156 614.75 260.910156 Z M 620.148438 261 "/>
</svg>
