<?xml version="1.0" encoding="UTF-8"?>
<svg xmlns="http://www.w3.org/2000/svg" xmlns:xlink="http://www.w3.org/1999/xlink" width="975" height="1300" viewBox="0 0 975 1300">
<path fill-rule="nonzero" fill="rgb(98.823529%, 78.823529%, 9.019608%)" fill-opacity="1" d="M 50 50 L 925 50 L 925 290 L 50 290 Z M 50 50 "/>
<path fill-rule="nonzero" fill="rgb(34.901961%, 14.901961%, 14.901961%)" fill-opacity="1" d="M 158.675781 124.890625 C 156.605469 126.511719 152.015625 129.929688 144.546875 129.929688 C 134.285156 129.929688 127.085938 122.28125 127.085938 109.5 C 127.085938 101.761719 129.785156 88.171875 144.457031 88.171875 C 151.207031 88.171875 154.894531 90.78125 157.144531 92.488281 L 157.957031 92.308594 L 158.765625 79.890625 L 158.40625 79.441406 C 155.167969 78.179688 149.675781 76.109375 141.757812 76.109375 C 118.445312 76.109375 110.347656 94.109375 110.347656 109.859375 C 110.347656 127.140625 120.875 142.351562 142.835938 142.351562 C 150.394531 142.351562 155.347656 140.371094 158.226562 139.199219 L 158.675781 138.660156 L 159.304688 125.25 Z M 206.375 114.179688 C 206.464844 106.078125 206.464844 102.570312 204.125 98.789062 C 202.324219 95.910156 198.726562 92.308594 187.207031 92.308594 C 179.464844 92.308594 174.695312 93.75 169.566406 95.28125 L 169.027344 96 L 168.574219 105.808594 L 169.296875 106.171875 C 172.445312 104.910156 178.296875 102.570312 184.324219 102.570312 C 187.65625 102.570312 189.003906 103.109375 190.175781 104.28125 C 191.074219 105.179688 191.347656 106.800781 191.347656 108.148438 C 180.546875 109.589844 175.503906 110.578125 170.105469 113.910156 C 165.066406 117.058594 163.355469 122.191406 163.355469 126.238281 C 163.355469 135.871094 170.285156 142.078125 179.105469 142.078125 C 185.855469 142.078125 189.726562 138.839844 191.617188 137.308594 L 191.617188 140.640625 L 192.15625 141.269531 C 198.636719 141 200.617188 140.910156 206.464844 141 L 206.914062 140.371094 C 206.285156 131.550781 206.285156 129.300781 206.285156 120.839844 L 206.375 114.179688 M 191.527344 128.488281 C 189.636719 129.570312 187.207031 130.828125 184.234375 130.828125 C 180.996094 130.828125 178.296875 129.121094 178.296875 125.339844 C 178.296875 119.398438 185.40625 118.410156 191.527344 117.601562 Z M 235.808594 109.949219 C 232.746094 108.871094 230.316406 107.878906 230.316406 105.359375 C 230.316406 104.28125 231.039062 101.308594 236.617188 101.308594 C 242.109375 101.308594 245.617188 103.648438 247.867188 105.089844 L 248.679688 104.820312 L 249.578125 95.011719 L 249.128906 94.46875 C 244.898438 93.300781 241.207031 92.21875 235.359375 92.21875 C 230.949219 92.21875 222.128906 92.578125 217.449219 99.328125 C 216.277344 100.949219 215.019531 103.648438 215.019531 107.25 C 215.019531 116.878906 222.488281 119.761719 226.71875 121.378906 L 230.136719 122.640625 C 232.566406 123.449219 236.527344 124.800781 236.527344 128.039062 C 236.527344 130.289062 234.457031 132.71875 229.417969 132.71875 C 226.898438 132.71875 223.207031 131.910156 219.878906 130.199219 C 218.347656 129.390625 217.628906 128.761719 216.277344 127.679688 L 215.46875 128.039062 C 215.289062 132.71875 215.199219 133.710938 214.835938 138.210938 L 215.289062 139.019531 C 219.699219 140.640625 223.476562 142.078125 230.046875 142.078125 C 236.886719 142.078125 250.386719 140.820312 252.007812 127.949219 C 252.097656 127.230469 252.097656 126.601562 252.097656 125.96875 C 252.097656 116.070312 245.167969 113.460938 240.21875 111.570312 Z M 285.21875 130.648438 C 283.6875 131.101562 282.605469 131.460938 281.078125 131.460938 C 276.488281 131.460938 276.128906 128.578125 275.945312 127.230469 C 275.675781 124.890625 275.675781 119.941406 275.765625 116.339844 L 275.945312 103.648438 L 284.046875 104.011719 L 284.585938 103.46875 L 285.488281 93.839844 L 284.945312 93.300781 L 275.945312 93.300781 L 276.21875 78.179688 L 275.585938 77.640625 C 269.46875 79.441406 267.847656 79.890625 261.457031 81.511719 L 261.097656 82.140625 L 261.1875 93.390625 L 256.328125 93.210938 L 255.789062 93.660156 L 254.976562 103.289062 L 255.515625 103.828125 L 261.1875 103.648438 L 260.917969 117.960938 C 260.828125 120.210938 260.738281 122.460938 260.738281 124.800781 C 260.738281 133.078125 260.917969 141.988281 274.957031 141.988281 C 278.46875 141.988281 281.257812 141.449219 284.40625 140.910156 L 285.039062 140.28125 L 285.9375 131.011719 Z M 331.925781 114.179688 C 332.015625 106.078125 332.015625 102.570312 329.675781 98.789062 C 327.875 95.910156 324.277344 92.308594 312.757812 92.308594 C 305.015625 92.308594 300.246094 93.75 295.117188 95.28125 L 294.578125 96 L 294.125 105.808594 L 294.847656 106.171875 C 297.996094 104.910156 303.847656 102.570312 309.875 102.570312 C 313.207031 102.570312 314.554688 103.109375 315.726562 104.28125 C 316.625 105.179688 316.898438 106.800781 316.898438 108.148438 C 306.097656 109.589844 301.054688 110.578125 295.65625 113.910156 C 290.617188 117.058594 288.90625 122.191406 288.90625 126.238281 C 288.90625 135.871094 295.835938 142.078125 304.65625 142.078125 C 311.40625 142.078125 315.277344 138.839844 317.167969 137.308594 L 317.167969 140.640625 L 317.707031 141.269531 C 324.1875 141 326.167969 140.910156 332.015625 141 L 332.464844 140.371094 C 331.835938 131.550781 331.835938 129.300781 331.835938 120.839844 L 331.925781 114.179688 M 317.078125 128.488281 C 315.1875 129.570312 312.757812 130.828125 309.785156 130.828125 C 306.546875 130.828125 303.847656 129.121094 303.847656 125.339844 C 303.847656 119.398438 310.957031 118.410156 317.078125 117.601562 Z M 358.746094 140.371094 C 358.292969 133.441406 357.933594 128.128906 357.933594 115.710938 C 357.933594 108.058594 358.113281 100.320312 358.203125 92.671875 L 357.574219 91.949219 L 342.09375 94.648438 L 341.554688 95.191406 C 342.273438 102.03125 342.542969 105.179688 342.542969 117.960938 C 342.542969 127.769531 342.273438 133.261719 342.003906 140.640625 L 342.542969 141.269531 C 349.023438 141 350.824219 140.910156 358.113281 141 L 358.746094 140.371094 M 357.304688 83.308594 L 357.574219 71.070312 L 357.035156 70.53125 L 342.363281 72.328125 L 341.824219 72.960938 C 342.003906 76.199219 342.09375 78.089844 342.09375 80.25 C 342.09375 81.960938 342.09375 83.761719 342.003906 85.46875 L 342.632812 86.011719 C 348.753906 84.929688 350.464844 84.75 356.855469 83.941406 Z M 403.925781 128.039062 C 401.496094 129.480469 399.15625 130.921875 394.566406 130.921875 C 384.394531 130.921875 382.324219 122.460938 382.324219 117.058594 C 382.324219 110.488281 385.207031 102.929688 393.9375 102.929688 C 397.894531 102.929688 400.054688 104.371094 402.757812 106.171875 L 403.65625 105.898438 C 404.015625 101.128906 404.105469 99.871094 404.824219 95.101562 L 404.375 94.558594 C 400.414062 93.300781 396.996094 92.21875 391.777344 92.21875 C 370.625 92.21875 366.484375 108.238281 366.484375 117.421875 C 366.484375 127.769531 371.886719 141.808594 392.136719 141.808594 C 396.90625 141.808594 399.964844 140.910156 403.746094 139.828125 L 404.285156 139.289062 L 404.644531 128.488281 Z M 476.828125 128.671875 C 467.015625 129.210938 459.1875 129.390625 456.488281 129.390625 L 454.6875 129.390625 C 454.507812 105.359375 454.597656 99.238281 455.316406 77.730469 L 454.777344 77.191406 C 447.035156 77.550781 444.964844 77.550781 438.757812 77.460938 L 438.214844 78 C 438.578125 85.199219 438.667969 87.359375 438.667969 98.070312 C 438.667969 112.289062 438.578125 126.511719 438.578125 140.730469 L 439.027344 141.269531 C 456.667969 141 459.90625 141 476.105469 141 L 476.554688 140.460938 L 477.277344 129.121094 Z M 525.066406 114.179688 C 525.15625 106.078125 525.15625 102.570312 522.816406 98.789062 C 521.015625 95.910156 517.417969 92.308594 505.898438 92.308594 C 498.15625 92.308594 493.386719 93.75 488.257812 95.28125 L 487.71875 96 L 487.265625 105.808594 L 487.988281 106.171875 C 491.136719 104.910156 496.988281 102.570312 503.015625 102.570312 C 506.347656 102.570312 507.695312 103.109375 508.867188 104.28125 C 509.765625 105.179688 510.039062 106.800781 510.039062 108.148438 C 499.238281 109.589844 494.195312 110.578125 488.796875 113.910156 C 483.757812 117.058594 482.046875 122.191406 482.046875 126.238281 C 482.046875 135.871094 488.976562 142.078125 497.796875 142.078125 C 504.546875 142.078125 508.417969 138.839844 510.308594 137.308594 L 510.308594 140.640625 L 510.847656 141.269531 C 517.328125 141 519.308594 140.910156 525.15625 141 L 525.605469 140.371094 C 524.976562 131.550781 524.976562 129.300781 524.976562 120.839844 L 525.066406 114.179688 M 510.21875 128.488281 C 508.328125 129.570312 505.898438 130.828125 502.925781 130.828125 C 499.6875 130.828125 496.988281 129.121094 496.988281 125.339844 C 496.988281 119.398438 504.097656 118.410156 510.21875 117.601562 Z M 581.855469 139.828125 C 573.394531 125.519531 572.496094 123.898438 565.65625 111.570312 C 571.867188 103.109375 572.496094 102.210938 578.886719 94.019531 L 578.433594 93.121094 L 563.765625 93.300781 L 562.867188 93.929688 C 555.84375 106.078125 554.945312 107.519531 550.804688 113.730469 L 550.804688 103.738281 C 550.894531 86.910156 550.984375 83.308594 551.433594 69.71875 L 550.714844 69.179688 L 535.054688 71.519531 L 534.515625 72.148438 C 535.144531 80.878906 535.414062 85.109375 535.59375 96.898438 C 535.773438 111.480469 535.773438 126.058594 535.683594 140.640625 L 536.316406 141.269531 C 542.34375 141 544.054688 141 550.894531 141 L 551.433594 140.371094 L 550.894531 125.160156 L 550.804688 114.808594 C 558.636719 129.210938 559.625 131.191406 564.214844 140.730469 L 565.023438 141.269531 L 581.226562 140.640625 Z M 626.136719 127.679688 C 622.71875 129.480469 618.667969 131.550781 612.097656 131.550781 C 606.699219 131.550781 603.007812 129.839844 600.847656 126.601562 C 599.496094 124.710938 599.226562 122.910156 598.867188 121.109375 L 627.9375 120.570312 L 628.476562 119.941406 C 628.386719 115.53125 628.296875 111.03125 627.039062 106.53125 C 623.886719 95.910156 616.957031 93.75 613.898438 93.03125 C 611.648438 92.398438 609.578125 92.21875 607.507812 92.21875 C 593.378906 92.21875 584.015625 101.488281 584.015625 117.058594 C 584.015625 121.289062 584.738281 125.699219 586.175781 128.851562 C 591.398438 141 603.636719 142.078125 610.117188 142.078125 C 617.585938 142.078125 620.828125 140.730469 625.597656 138.839844 L 626.136719 138.121094 L 626.765625 127.949219 L 626.136719 127.679688 M 598.867188 111.570312 C 599.136719 108.78125 599.765625 105 603.1875 102.839844 C 604.265625 102.121094 605.527344 101.851562 606.789062 101.851562 C 609.757812 101.851562 611.558594 103.378906 612.546875 105 C 613.808594 106.980469 613.898438 109.140625 613.898438 111.210938 Z M 689.046875 102.300781 C 681.488281 99.148438 677.527344 97.53125 677.527344 93.480469 C 677.527344 90.691406 680.136719 87.179688 686.078125 87.179688 C 692.917969 87.179688 696.964844 89.96875 700.296875 92.21875 L 701.105469 91.859375 L 701.828125 80.070312 L 701.375 79.441406 C 697.507812 77.820312 693.457031 76.109375 684.726562 76.109375 C 667.808594 76.109375 661.957031 85.648438 661.957031 95.28125 C 661.957031 106.171875 670.417969 110.128906 675.457031 112.558594 L 678.425781 113.910156 C 684.636719 116.519531 689.40625 118.769531 689.40625 123.539062 C 689.40625 126.960938 686.4375 131.011719 678.605469 131.011719 C 670.417969 131.011719 665.828125 127.410156 663.214844 125.339844 L 662.316406 125.609375 L 661.6875 138.300781 L 662.226562 139.019531 C 663.214844 139.378906 664.207031 139.828125 665.195312 140.101562 C 667.265625 140.820312 672.578125 142.351562 679.328125 142.351562 C 682.027344 142.351562 688.867188 142.078125 694.265625 139.558594 C 701.828125 135.871094 705.066406 129.03125 705.066406 121.378906 C 705.066406 116.25 703.085938 110.761719 698.316406 107.070312 C 695.886719 105.269531 693.546875 104.191406 691.386719 103.199219 Z M 738.816406 130.648438 C 737.285156 131.101562 736.203125 131.460938 734.675781 131.460938 C 730.085938 131.460938 729.726562 128.578125 729.542969 127.230469 C 729.273438 124.890625 729.273438 119.941406 729.363281 116.339844 L 729.542969 103.648438 L 737.644531 104.011719 L 738.183594 103.46875 L 739.085938 93.839844 L 738.542969 93.300781 L 729.542969 93.300781 L 729.816406 78.179688 L 729.183594 77.640625 C 723.066406 79.441406 721.445312 79.890625 715.054688 81.511719 L 714.695312 82.140625 L 714.785156 93.390625 L 709.925781 93.210938 L 709.386719 93.660156 L 708.574219 103.289062 L 709.113281 103.828125 L 714.785156 103.648438 L 714.515625 117.960938 C 714.425781 120.210938 714.335938 122.460938 714.335938 124.800781 C 714.335938 133.078125 714.515625 141.988281 728.554688 141.988281 C 732.066406 141.988281 734.855469 141.449219 738.003906 140.910156 L 738.636719 140.28125 L 739.535156 131.011719 Z M 785.527344 114.179688 C 785.617188 106.078125 785.617188 102.570312 783.277344 98.789062 C 781.476562 95.910156 777.878906 92.308594 766.359375 92.308594 C 758.617188 92.308594 753.847656 93.75 748.71875 95.28125 L 748.179688 96 L 747.726562 105.808594 L 748.449219 106.171875 C 751.597656 104.910156 757.449219 102.570312 763.476562 102.570312 C 766.808594 102.570312 768.15625 103.109375 769.328125 104.28125 C 770.226562 105.179688 770.5 106.800781 770.5 108.148438 C 759.699219 109.589844 754.65625 110.578125 749.257812 113.910156 C 744.21875 117.058594 742.507812 122.191406 742.507812 126.238281 C 742.507812 135.871094 749.4375 142.078125 758.257812 142.078125 C 765.007812 142.078125 768.878906 138.839844 770.769531 137.308594 L 770.769531 140.640625 L 771.308594 141.269531 C 777.789062 141 779.769531 140.910156 785.617188 141 L 786.066406 140.371094 C 785.4375 131.550781 785.4375 129.300781 785.4375 120.839844 L 785.527344 114.179688 M 770.679688 128.488281 C 768.789062 129.570312 766.359375 130.828125 763.386719 130.828125 C 760.148438 130.828125 757.449219 129.121094 757.449219 125.339844 C 757.449219 119.398438 764.558594 118.410156 770.679688 117.601562 Z M 821.257812 130.648438 C 819.726562 131.101562 818.644531 131.460938 817.117188 131.460938 C 812.527344 131.460938 812.167969 128.578125 811.984375 127.230469 C 811.714844 124.890625 811.714844 119.941406 811.804688 116.339844 L 811.984375 103.648438 L 820.085938 104.011719 L 820.625 103.46875 L 821.527344 93.839844 L 820.984375 93.300781 L 811.984375 93.300781 L 812.257812 78.179688 L 811.625 77.640625 C 805.507812 79.441406 803.886719 79.890625 797.496094 81.511719 L 797.136719 82.140625 L 797.226562 93.390625 L 792.367188 93.210938 L 791.828125 93.660156 L 791.015625 103.289062 L 791.554688 103.828125 L 797.226562 103.648438 L 796.957031 117.960938 C 796.867188 120.210938 796.777344 122.460938 796.777344 124.800781 C 796.777344 133.078125 796.957031 141.988281 810.996094 141.988281 C 814.507812 141.988281 817.296875 141.449219 820.445312 140.910156 L 821.078125 140.28125 L 821.976562 131.011719 Z M 867.875 127.679688 C 864.457031 129.480469 860.40625 131.550781 853.835938 131.550781 C 848.4375 131.550781 844.746094 129.839844 842.585938 126.601562 C 841.234375 124.710938 840.964844 122.910156 840.605469 121.109375 L 869.675781 120.570312 L 870.214844 119.941406 C 870.125 115.53125 870.035156 111.03125 868.777344 106.53125 C 865.625 95.910156 858.695312 93.75 855.636719 93.03125 C 853.386719 92.398438 851.316406 92.21875 849.246094 92.21875 C 835.117188 92.21875 825.753906 101.488281 825.753906 117.058594 C 825.753906 121.289062 826.476562 125.699219 827.914062 128.851562 C 833.136719 141 845.375 142.078125 851.855469 142.078125 C 859.324219 142.078125 862.566406 140.730469 867.335938 138.839844 L 867.875 138.121094 L 868.503906 127.949219 L 867.875 127.679688 M 840.605469 111.570312 C 840.875 108.78125 841.503906 105 844.925781 102.839844 C 846.003906 102.121094 847.265625 101.851562 848.527344 101.851562 C 851.496094 101.851562 853.296875 103.378906 854.285156 105 C 855.546875 106.980469 855.636719 109.140625 855.636719 111.210938 Z M 873.097656 141 "/>
<path fill-rule="nonzero" fill="rgb(34.901961%, 14.901961%, 14.901961%)" fill-opacity="1" d="M 180.769531 236.25 C 186.800781 246.511719 188.152344 249.210938 193.910156 261 L 194.632812 261.449219 C 197.421875 261.269531 200.121094 261.089844 202.910156 261 C 205.703125 260.910156 208.582031 260.820312 211.371094 260.820312 L 211.910156 259.738281 C 208.492188 255.328125 207.5 253.980469 201.019531 243.628906 C 198.140625 239.039062 196.703125 236.609375 194.453125 232.648438 C 198.5 230.851562 206.691406 227.070312 206.691406 215.640625 C 206.691406 211.679688 205.609375 203.488281 198.230469 199.621094 C 193.550781 197.191406 188.691406 197.101562 178.160156 197.28125 L 171.859375 197.371094 L 160.882812 197.371094 L 160.429688 197.910156 C 160.792969 207 161.152344 216.359375 161.152344 240.839844 C 161.152344 249.210938 161.0625 253.261719 160.792969 260.730469 L 161.332031 261.269531 C 167.902344 261 169.339844 260.910156 176.722656 261 L 177.261719 260.460938 C 176.542969 250.019531 176.453125 247.140625 176.359375 236.429688 L 180.769531 236.25 M 176.542969 208.261719 C 177.800781 208.171875 179.0625 208.171875 180.320312 208.171875 C 183.832031 208.171875 190.761719 208.171875 190.761719 216.089844 C 190.761719 218.609375 190.132812 221.941406 186.800781 224.011719 C 184.28125 225.539062 181.042969 225.71875 176.542969 225.808594 Z M 256.640625 247.679688 C 253.222656 249.480469 249.171875 251.550781 242.601562 251.550781 C 237.203125 251.550781 233.511719 249.839844 231.351562 246.601562 C 230 244.710938 229.730469 242.910156 229.371094 241.109375 L 258.441406 240.570312 L 258.980469 239.941406 C 258.890625 235.53125 258.800781 231.03125 257.542969 226.53125 C 254.390625 215.910156 247.460938 213.75 244.402344 213.03125 C 242.152344 212.398438 240.082031 212.21875 238.011719 212.21875 C 223.882812 212.21875 214.519531 221.488281 214.519531 237.058594 C 214.519531 241.289062 215.242188 245.699219 216.679688 248.851562 C 221.902344 261 234.140625 262.078125 240.621094 262.078125 C 248.089844 262.078125 251.332031 260.730469 256.101562 258.839844 L 256.640625 258.121094 L 257.269531 247.949219 L 256.640625 247.679688 M 229.371094 231.570312 C 229.640625 228.78125 230.269531 225 233.691406 222.839844 C 234.769531 222.121094 236.03125 221.851562 237.292969 221.851562 C 240.261719 221.851562 242.0625 223.378906 243.050781 225 C 244.3125 226.980469 244.402344 229.140625 244.402344 231.210938 Z M 302.449219 248.039062 C 300.019531 249.480469 297.679688 250.921875 293.089844 250.921875 C 282.917969 250.921875 280.847656 242.460938 280.847656 237.058594 C 280.847656 230.488281 283.730469 222.929688 292.460938 222.929688 C 296.417969 222.929688 298.578125 224.371094 301.28125 226.171875 L 302.179688 225.898438 C 302.539062 221.128906 302.628906 219.871094 303.347656 215.101562 L 302.898438 214.558594 C 298.9375 213.300781 295.519531 212.21875 290.300781 212.21875 C 269.148438 212.21875 265.007812 228.238281 265.007812 237.421875 C 265.007812 247.769531 270.410156 261.808594 290.660156 261.808594 C 295.429688 261.808594 298.488281 260.910156 302.269531 259.828125 L 302.808594 259.289062 L 303.167969 248.488281 Z M 336.382812 227.609375 L 338.902344 212.941406 L 338.363281 212.308594 C 337.734375 212.308594 337.101562 212.21875 336.472656 212.21875 C 332.78125 212.21875 328.644531 214.289062 325.761719 220.949219 L 326.03125 212.671875 L 325.3125 211.949219 C 318.652344 213.390625 316.941406 213.660156 310.371094 214.648438 L 309.832031 215.191406 C 310.371094 221.941406 310.644531 225.988281 310.644531 238.5 C 310.644531 245.878906 310.550781 253.261719 310.371094 260.730469 L 310.914062 261.269531 C 317.574219 261 319.011719 260.910156 326.210938 261 L 326.664062 260.371094 C 326.300781 253.078125 325.761719 242.910156 325.761719 236.699219 C 325.761719 232.648438 325.761719 226.710938 331.882812 226.710938 C 333.414062 226.710938 334.3125 227.25 335.574219 227.96875 Z M 384.082031 247.679688 C 380.664062 249.480469 376.613281 251.550781 370.042969 251.550781 C 364.644531 251.550781 360.953125 249.839844 358.792969 246.601562 C 357.441406 244.710938 357.171875 242.910156 356.8125 241.109375 L 385.882812 240.570312 L 386.421875 239.941406 C 386.332031 235.53125 386.242188 231.03125 384.984375 226.53125 C 381.832031 215.910156 374.902344 213.75 371.84375 213.03125 C 369.59375 212.398438 367.523438 212.21875 365.453125 212.21875 C 351.324219 212.21875 341.960938 221.488281 341.960938 237.058594 C 341.960938 241.289062 342.683594 245.699219 344.121094 248.851562 C 349.34375 261 361.582031 262.078125 368.0625 262.078125 C 375.53125 262.078125 378.773438 260.730469 383.542969 258.839844 L 384.082031 258.121094 L 384.710938 247.949219 L 384.082031 247.679688 M 356.8125 231.570312 C 357.082031 228.78125 357.710938 225 361.132812 222.839844 C 362.210938 222.121094 363.472656 221.851562 364.734375 221.851562 C 367.703125 221.851562 369.503906 223.378906 370.492188 225 C 371.753906 226.980469 371.84375 229.140625 371.84375 231.210938 Z M 434.75 234.179688 C 434.839844 226.078125 434.839844 222.570312 432.5 218.789062 C 430.699219 215.910156 427.101562 212.308594 415.582031 212.308594 C 407.839844 212.308594 403.070312 213.75 397.941406 215.28125 L 397.402344 216 L 396.949219 225.808594 L 397.671875 226.171875 C 400.820312 224.910156 406.671875 222.570312 412.699219 222.570312 C 416.03125 222.570312 417.378906 223.109375 418.550781 224.28125 C 419.449219 225.179688 419.722656 226.800781 419.722656 228.148438 C 408.921875 229.589844 403.878906 230.578125 398.480469 233.910156 C 393.441406 237.058594 391.730469 242.191406 391.730469 246.238281 C 391.730469 255.871094 398.660156 262.078125 407.480469 262.078125 C 414.230469 262.078125 418.101562 258.839844 419.992188 257.308594 L 419.992188 260.640625 L 420.53125 261.269531 C 427.011719 261 428.992188 260.910156 434.839844 261 L 435.289062 260.371094 C 434.660156 251.550781 434.660156 249.300781 434.660156 240.839844 L 434.75 234.179688 M 419.902344 248.488281 C 418.011719 249.570312 415.582031 250.828125 412.609375 250.828125 C 409.371094 250.828125 406.671875 249.121094 406.671875 245.339844 C 406.671875 239.398438 413.78125 238.410156 419.902344 237.601562 Z M 470.484375 250.648438 C 468.953125 251.101562 467.871094 251.460938 466.34375 251.460938 C 461.753906 251.460938 461.394531 248.578125 461.210938 247.230469 C 460.941406 244.890625 460.941406 239.941406 461.03125 236.339844 L 461.210938 223.648438 L 469.3125 224.011719 L 469.851562 223.46875 L 470.753906 213.839844 L 470.210938 213.300781 L 461.210938 213.300781 L 461.484375 198.179688 L 460.851562 197.640625 C 454.734375 199.441406 453.113281 199.890625 446.722656 201.511719 L 446.363281 202.140625 L 446.453125 213.390625 L 441.59375 213.210938 L 441.054688 213.660156 L 440.242188 223.289062 L 440.78125 223.828125 L 446.453125 223.648438 L 446.183594 237.960938 C 446.09375 240.210938 446.003906 242.460938 446.003906 244.800781 C 446.003906 253.078125 446.183594 261.988281 460.222656 261.988281 C 463.734375 261.988281 466.523438 261.449219 469.671875 260.910156 L 470.304688 260.28125 L 471.203125 251.011719 Z M 493.433594 260.371094 C 492.980469 253.441406 492.621094 248.128906 492.621094 235.710938 C 492.621094 228.058594 492.800781 220.320312 492.890625 212.671875 L 492.261719 211.949219 L 476.78125 214.648438 L 476.242188 215.191406 C 476.960938 222.03125 477.230469 225.179688 477.230469 237.960938 C 477.230469 247.769531 476.960938 253.261719 476.691406 260.640625 L 477.230469 261.269531 C 483.710938 261 485.511719 260.910156 492.800781 261 L 493.433594 260.371094 M 491.992188 203.308594 L 492.261719 191.070312 L 491.722656 190.53125 L 477.050781 192.328125 L 476.511719 192.960938 C 476.691406 196.199219 476.78125 198.089844 476.78125 200.25 C 476.78125 201.960938 476.78125 203.761719 476.691406 205.46875 L 477.320312 206.011719 C 483.441406 204.929688 485.152344 204.75 491.542969 203.941406 Z M 549.230469 237.058594 C 549.230469 233.550781 549.230469 218.96875 536.628906 214.019531 C 532.667969 212.488281 527.988281 212.308594 525.648438 212.308594 C 509.988281 212.308594 501.167969 220.679688 501.167969 237.238281 C 501.167969 243 502.070312 248.851562 505.398438 253.710938 C 507.738281 257.21875 512.148438 262.078125 525.019531 262.078125 C 544.097656 262.078125 549.230469 250.558594 549.230469 237.058594 M 533.660156 236.96875 C 533.660156 244.351562 532.667969 252.539062 525.199219 252.539062 C 522.859375 252.539062 521.238281 251.460938 520.160156 250.46875 C 518.628906 248.941406 516.917969 245.878906 516.917969 237.148438 C 516.917969 234.539062 516.917969 228.78125 518.71875 225.628906 C 520.070312 223.199219 522.410156 221.578125 525.289062 221.578125 C 527.808594 221.578125 529.878906 222.929688 531.050781 224.371094 C 533.210938 226.980469 533.660156 232.109375 533.660156 236.96875 Z M 601.882812 260.371094 C 601.433594 252.449219 601.433594 249.929688 601.253906 241.109375 L 601.253906 234.089844 C 601.164062 225.449219 601.074219 221.308594 598.824219 217.621094 C 596.03125 212.941406 590.902344 212.21875 587.664062 212.21875 C 582.171875 212.21875 577.402344 215.101562 573.261719 217.53125 L 573.441406 212.578125 L 572.542969 211.949219 C 565.613281 213.390625 564.082031 213.660156 557.332031 214.558594 L 556.792969 215.191406 C 557.511719 223.019531 558.054688 228.691406 558.054688 243.359375 C 558.054688 249.121094 557.960938 254.878906 557.871094 260.640625 L 558.414062 261.179688 C 564.894531 260.910156 566.242188 260.910156 573.441406 260.910156 L 573.984375 260.371094 C 573.441406 246.511719 573.351562 243 573.261719 226.890625 C 575.152344 225.628906 577.3125 224.101562 580.191406 224.101562 C 585.144531 224.101562 585.59375 229.410156 585.863281 232.648438 C 586.042969 235.621094 586.132812 247.949219 586.132812 251.371094 C 586.132812 254.429688 586.042969 257.578125 586.042969 260.640625 L 586.582031 261.179688 C 592.523438 261 594.054688 260.910156 601.253906 260.910156 Z M 674.78125 197.191406 C 666.140625 197.460938 664.339844 197.460938 654.710938 197.460938 L 654.078125 198 C 649.308594 213.300781 646.429688 222.390625 633.199219 260.371094 L 633.558594 261 L 647.597656 261 L 648.230469 260.460938 L 652.640625 244.078125 L 672.078125 244.078125 L 675.949219 260.730469 L 676.578125 261.269531 C 683.148438 261 684.949219 260.910156 692.238281 261 L 692.691406 260.28125 C 681.800781 221.761719 680.539062 217.53125 675.410156 197.730469 L 674.78125 197.191406 M 655.789062 233.191406 L 660.289062 217.980469 L 663.441406 207.449219 L 666.140625 219.148438 L 669.46875 233.191406 Z M 724.460938 227.609375 L 726.980469 212.941406 L 726.441406 212.308594 C 725.8125 212.308594 725.179688 212.21875 724.550781 212.21875 C 720.859375 212.21875 716.722656 214.289062 713.839844 220.949219 L 714.109375 212.671875 L 713.390625 211.949219 C 706.730469 213.390625 705.019531 213.660156 698.449219 214.648438 L 697.910156 215.191406 C 698.449219 221.941406 698.722656 225.988281 698.722656 238.5 C 698.722656 245.878906 698.628906 253.261719 698.449219 260.730469 L 698.992188 261.269531 C 705.652344 261 707.089844 260.910156 714.289062 261 L 714.742188 260.371094 C 714.378906 253.078125 713.839844 242.910156 713.839844 236.699219 C 713.839844 232.648438 713.839844 226.710938 719.960938 226.710938 C 721.492188 226.710938 722.390625 227.25 723.652344 227.96875 Z M 772.160156 247.679688 C 768.742188 249.480469 764.691406 251.550781 758.121094 251.550781 C 752.722656 251.550781 749.03125 249.839844 746.871094 246.601562 C 745.519531 244.710938 745.25 242.910156 744.890625 241.109375 L 773.960938 240.570312 L 774.5 239.941406 C 774.410156 235.53125 774.320312 231.03125 773.0625 226.53125 C 769.910156 215.910156 762.980469 213.75 759.921875 213.03125 C 757.671875 212.398438 755.601562 212.21875 753.53125 212.21875 C 739.402344 212.21875 730.039062 221.488281 730.039062 237.058594 C 730.039062 241.289062 730.761719 245.699219 732.199219 248.851562 C 737.421875 261 749.660156 262.078125 756.140625 262.078125 C 763.609375 262.078125 766.851562 260.730469 771.621094 258.839844 L 772.160156 258.121094 L 772.789062 247.949219 L 772.160156 247.679688 M 744.890625 231.570312 C 745.160156 228.78125 745.789062 225 749.210938 222.839844 C 750.289062 222.121094 751.550781 221.851562 752.8125 221.851562 C 755.78125 221.851562 757.582031 223.378906 758.570312 225 C 759.832031 226.980469 759.921875 229.140625 759.921875 231.210938 Z M 822.832031 234.179688 C 822.921875 226.078125 822.921875 222.570312 820.582031 218.789062 C 818.78125 215.910156 815.183594 212.308594 803.664062 212.308594 C 795.921875 212.308594 791.152344 213.75 786.023438 215.28125 L 785.484375 216 L 785.03125 225.808594 L 785.753906 226.171875 C 788.902344 224.910156 794.753906 222.570312 800.78125 222.570312 C 804.113281 222.570312 805.460938 223.109375 806.632812 224.28125 C 807.53125 225.179688 807.804688 226.800781 807.804688 228.148438 C 797.003906 229.589844 791.960938 230.578125 786.5625 233.910156 C 781.523438 237.058594 779.8125 242.191406 779.8125 246.238281 C 779.8125 255.871094 786.742188 262.078125 795.5625 262.078125 C 802.3125 262.078125 806.183594 258.839844 808.074219 257.308594 L 808.074219 260.640625 L 808.613281 261.269531 C 815.09375 261 817.074219 260.910156 822.921875 261 L 823.371094 260.371094 C 822.742188 251.550781 822.742188 249.300781 822.742188 240.839844 L 822.832031 234.179688 M 807.984375 248.488281 C 806.09375 249.570312 803.664062 250.828125 800.691406 250.828125 C 797.453125 250.828125 794.753906 249.121094 794.753906 245.339844 C 794.753906 239.398438 801.863281 238.410156 807.984375 237.601562 Z M 827.960938 261 "/>
</svg>
