<?xml version="1.0" encoding="UTF-8"?>
<svg xmlns="http://www.w3.org/2000/svg" xmlns:xlink="http://www.w3.org/1999/xlink" width="975" height="1300" viewBox="0 0 975 1300">
<path fill-rule="nonzero" fill="rgb(98.823529%, 78.823529%, 9.019608%)" fill-opacity="1" d="M 50 50 L 925 50 L 925 410 L 50 410 Z M 50 50 "/>
<path fill-rule="nonzero" fill="rgb(34.901961%, 14.901961%, 14.901961%)" fill-opacity="1" d="M 172.714844 116.25 C 178.746094 126.511719 180.097656 129.210938 185.855469 141 L 186.578125 141.449219 C 189.367188 141.269531 192.066406 141.089844 194.855469 141 C 197.648438 140.910156 200.527344 140.820312 203.316406 140.820312 L 203.855469 139.738281 C 200.4375 135.328125 199.445312 133.980469 192.964844 123.628906 C 190.085938 119.039062 188.648438 116.609375 186.398438 112.648438 C 190.445312 110.851562 198.636719 107.070312 198.636719 95.640625 C 198.636719 91.679688 197.554688 83.488281 190.175781 79.621094 C 185.496094 77.191406 180.636719 77.101562 170.105469 77.28125 L 163.804688 77.371094 L 152.828125 77.371094 L 152.375 77.910156 C 152.738281 87 153.097656 96.359375 153.097656 120.839844 C 153.097656 129.210938 153.007812 133.261719 152.738281 140.730469 L 153.277344 141.269531 C 159.847656 141 161.285156 140.910156 168.667969 141 L 169.207031 140.460938 C 168.488281 130.019531 168.398438 127.140625 168.304688 116.429688 L 172.714844 116.25 M 168.488281 88.261719 C 169.746094 88.171875 171.007812 88.171875 172.265625 88.171875 C 175.777344 88.171875 182.707031 88.171875 182.707031 96.089844 C 182.707031 98.609375 182.078125 101.941406 178.746094 104.011719 C 176.226562 105.539062 172.988281 105.71875 168.488281 105.808594 Z M 254.4375 117.058594 C 254.4375 113.550781 254.4375 98.96875 241.835938 94.019531 C 237.875 92.488281 233.195312 92.308594 230.855469 92.308594 C 215.195312 92.308594 206.375 100.679688 206.375 117.238281 C 206.375 123 207.277344 128.851562 210.605469 133.710938 C 212.945312 137.21875 217.355469 142.078125 230.226562 142.078125 C 249.304688 142.078125 254.4375 130.558594 254.4375 117.058594 M 238.867188 116.96875 C 238.867188 124.351562 237.875 132.539062 230.40625 132.539062 C 228.066406 132.539062 226.445312 131.460938 225.367188 130.46875 C 223.835938 128.941406 222.125 125.878906 222.125 117.148438 C 222.125 114.539062 222.125 108.78125 223.925781 105.628906 C 225.277344 103.199219 227.617188 101.578125 230.496094 101.578125 C 233.015625 101.578125 235.085938 102.929688 236.257812 104.371094 C 238.417969 106.980469 238.867188 112.109375 238.867188 116.96875 Z M 269.464844 141.179688 L 271.265625 141.179688 C 285.664062 141.179688 294.9375 140.460938 301.777344 133.171875 C 308.164062 126.328125 308.796875 118.230469 308.796875 114.449219 C 308.796875 101.941406 301.597656 92.21875 289.355469 92.21875 C 283.414062 92.21875 280.265625 94.199219 277.746094 95.820312 L 278.285156 69.71875 L 277.566406 69.179688 L 262.625 71.519531 L 262.085938 72.148438 C 262.804688 79.710938 263.074219 82.769531 263.074219 100.859375 C 263.074219 108.601562 262.984375 123.898438 262.894531 140.640625 L 263.527344 141.269531 L 269.464844 141.179688 M 278.105469 104.730469 C 279.90625 103.828125 281.617188 102.929688 283.957031 102.929688 C 289.894531 102.929688 293.316406 108.238281 293.316406 116.519531 C 293.316406 123 290.4375 127.230469 288.007812 128.941406 C 285.035156 131.011719 281.164062 131.101562 278.105469 131.191406 Z M 357.304688 127.679688 C 353.886719 129.480469 349.835938 131.550781 343.265625 131.550781 C 337.867188 131.550781 334.175781 129.839844 332.015625 126.601562 C 330.664062 124.710938 330.394531 122.910156 330.035156 121.109375 L 359.105469 120.570312 L 359.644531 119.941406 C 359.554688 115.53125 359.464844 111.03125 358.207031 106.53125 C 355.054688 95.910156 348.125 93.75 345.066406 93.03125 C 342.816406 92.398438 340.746094 92.21875 338.675781 92.21875 C 324.546875 92.21875 315.183594 101.488281 315.183594 117.058594 C 315.183594 121.289062 315.90625 125.699219 317.34375 128.851562 C 322.566406 141 334.804688 142.078125 341.285156 142.078125 C 348.753906 142.078125 351.996094 140.730469 356.765625 138.839844 L 357.304688 138.121094 L 357.933594 127.949219 L 357.304688 127.679688 M 330.035156 111.570312 C 330.304688 108.78125 330.933594 105 334.355469 102.839844 C 335.433594 102.121094 336.695312 101.851562 337.957031 101.851562 C 340.925781 101.851562 342.726562 103.378906 343.714844 105 C 344.976562 106.980469 345.066406 109.140625 345.066406 111.210938 Z M 393.9375 107.609375 L 396.457031 92.941406 L 395.917969 92.308594 C 395.289062 92.308594 394.65625 92.21875 394.027344 92.21875 C 390.335938 92.21875 386.199219 94.289062 383.316406 100.949219 L 383.585938 92.671875 L 382.867188 91.949219 C 376.207031 93.390625 374.496094 93.660156 367.925781 94.648438 L 367.386719 95.191406 C 367.925781 101.941406 368.199219 105.988281 368.199219 118.5 C 368.199219 125.878906 368.105469 133.261719 367.925781 140.730469 L 368.46875 141.269531 C 375.128906 141 376.566406 140.910156 383.765625 141 L 384.21875 140.371094 C 383.855469 133.078125 383.316406 122.910156 383.316406 116.699219 C 383.316406 112.648438 383.316406 106.710938 389.4375 106.710938 C 390.96875 106.710938 391.867188 107.25 393.128906 107.96875 Z M 426.878906 130.648438 C 425.347656 131.101562 424.265625 131.460938 422.738281 131.460938 C 418.148438 131.460938 417.789062 128.578125 417.605469 127.230469 C 417.335938 124.890625 417.335938 119.941406 417.425781 116.339844 L 417.605469 103.648438 L 425.707031 104.011719 L 426.246094 103.46875 L 427.148438 93.839844 L 426.605469 93.300781 L 417.605469 93.300781 L 417.878906 78.179688 L 417.246094 77.640625 C 411.128906 79.441406 409.507812 79.890625 403.117188 81.511719 L 402.757812 82.140625 L 402.847656 93.390625 L 397.988281 93.210938 L 397.449219 93.660156 L 396.636719 103.289062 L 397.175781 103.828125 L 402.847656 103.648438 L 402.578125 117.960938 C 402.488281 120.210938 402.398438 122.460938 402.398438 124.800781 C 402.398438 133.078125 402.578125 141.988281 416.617188 141.988281 C 420.128906 141.988281 422.917969 141.449219 426.066406 140.910156 L 426.699219 140.28125 L 427.597656 131.011719 Z M 513.726562 77.191406 C 506.527344 77.460938 505.359375 77.460938 497.796875 77.460938 L 497.347656 78 C 497.976562 88.171875 497.976562 90.78125 498.066406 101.398438 C 494.109375 101.488281 490.148438 101.578125 486.097656 101.578125 C 482.949219 101.578125 479.707031 101.488281 476.558594 101.488281 L 476.738281 77.730469 L 476.289062 77.191406 C 469.359375 77.460938 468.007812 77.460938 460.179688 77.460938 L 459.636719 78 C 460.089844 87.269531 460.628906 98.339844 460.628906 120.660156 C 460.628906 128.761719 460.449219 133.171875 460.269531 140.730469 L 460.71875 141.269531 C 467.289062 141 468.90625 140.910156 476.828125 141 L 477.277344 140.460938 C 476.738281 129.300781 476.648438 126.058594 476.558594 113.011719 C 480.519531 112.828125 483.847656 112.738281 487.359375 112.738281 C 490.957031 112.738281 494.558594 112.828125 498.15625 112.921875 C 498.339844 125.070312 498.339844 128.039062 497.886719 140.730469 L 498.339844 141.269531 C 505.089844 141 506.886719 140.910156 514.539062 141 L 514.988281 140.460938 C 514.269531 125.339844 513.996094 110.308594 513.996094 95.191406 C 513.996094 88.890625 514.089844 84.660156 514.179688 77.730469 Z M 538.386719 127.140625 L 523.988281 127.410156 L 523.539062 128.128906 L 523.71875 140.640625 L 524.167969 141.269531 L 538.566406 140.910156 L 539.015625 140.371094 L 538.835938 127.679688 Z M 643.234375 77.191406 C 633.875 77.460938 632.34375 77.460938 622.355469 77.460938 L 621.816406 78 L 617.675781 92.578125 L 614.074219 105.628906 L 609.84375 121.289062 L 605.882812 105.179688 L 603.363281 95.011719 L 598.863281 77.730469 L 598.414062 77.191406 C 588.785156 77.460938 587.164062 77.460938 577.085938 77.460938 L 576.542969 78 C 575.644531 104.910156 575.285156 111.839844 573.304688 140.730469 L 573.753906 141.269531 C 579.515625 141 581.226562 140.910156 586.445312 141 L 586.984375 140.460938 L 587.253906 123.269531 L 587.792969 105.808594 L 588.15625 88.800781 L 592.113281 104.730469 L 595.535156 117.511719 L 601.566406 140.730469 L 602.105469 141.269531 C 607.683594 141 609.214844 140.910156 615.515625 141 L 616.054688 140.460938 L 621.273438 121.289062 L 624.875 108.148438 L 629.914062 89.25 L 629.914062 105.359375 L 630.09375 119.128906 L 630.09375 140.730469 L 630.542969 141.269531 C 636.753906 141 639.183594 140.910156 646.113281 141 L 646.566406 140.460938 C 646.023438 130.199219 645.394531 119.851562 645.035156 109.5 C 644.765625 103.828125 644.585938 98.160156 644.316406 92.488281 C 643.863281 84.121094 643.773438 83.039062 643.773438 77.730469 Z M 696.695312 127.679688 C 693.277344 129.480469 689.226562 131.550781 682.65625 131.550781 C 677.257812 131.550781 673.566406 129.839844 671.40625 126.601562 C 670.054688 124.710938 669.785156 122.910156 669.425781 121.109375 L 698.496094 120.570312 L 699.035156 119.941406 C 698.945312 115.53125 698.855469 111.03125 697.597656 106.53125 C 694.445312 95.910156 687.515625 93.75 684.457031 93.03125 C 682.207031 92.398438 680.136719 92.21875 678.066406 92.21875 C 663.9375 92.21875 654.574219 101.488281 654.574219 117.058594 C 654.574219 121.289062 655.296875 125.699219 656.734375 128.851562 C 661.957031 141 674.195312 142.078125 680.675781 142.078125 C 688.144531 142.078125 691.386719 140.730469 696.15625 138.839844 L 696.695312 138.121094 L 697.324219 127.949219 L 696.695312 127.679688 M 669.425781 111.570312 C 669.695312 108.78125 670.324219 105 673.746094 102.839844 C 674.824219 102.121094 676.085938 101.851562 677.347656 101.851562 C 680.316406 101.851562 682.117188 103.378906 683.105469 105 C 684.367188 106.980469 684.457031 109.140625 684.457031 111.210938 Z M 747.546875 93.03125 L 735.039062 93.300781 L 734.316406 93.929688 C 732.789062 100.140625 732.429688 101.488281 730.269531 108.511719 L 727.929688 116.25 L 725.949219 123 L 724.238281 116.609375 L 721.628906 107.070312 L 718.027344 93.390625 L 717.308594 92.851562 C 710.289062 93.390625 708.757812 93.480469 701.378906 93.660156 L 700.929688 94.289062 C 704.167969 102.839844 712.539062 125.429688 718.117188 142.710938 C 714.429688 152.070312 713.707031 153.691406 709.65625 162.601562 L 710.109375 163.320312 C 712.359375 163.230469 714.878906 163.140625 717.21875 163.140625 C 719.46875 163.140625 721.808594 163.230469 724.058594 163.230469 L 724.6875 162.691406 C 729.636719 143.25 732.066406 135.691406 743.949219 104.371094 C 745.296875 100.769531 746.648438 97.261719 747.90625 93.75 Z M 792.277344 127.679688 C 788.859375 129.480469 784.808594 131.550781 778.238281 131.550781 C 772.839844 131.550781 769.148438 129.839844 766.988281 126.601562 C 765.636719 124.710938 765.367188 122.910156 765.007812 121.109375 L 794.078125 120.570312 L 794.617188 119.941406 C 794.527344 115.53125 794.4375 111.03125 793.179688 106.53125 C 790.027344 95.910156 783.097656 93.75 780.039062 93.03125 C 777.789062 92.398438 775.71875 92.21875 773.648438 92.21875 C 759.519531 92.21875 750.15625 101.488281 750.15625 117.058594 C 750.15625 121.289062 750.878906 125.699219 752.316406 128.851562 C 757.539062 141 769.777344 142.078125 776.257812 142.078125 C 783.726562 142.078125 786.96875 140.730469 791.738281 138.839844 L 792.277344 138.121094 L 792.90625 127.949219 L 792.277344 127.679688 M 765.007812 111.570312 C 765.277344 108.78125 765.90625 105 769.328125 102.839844 C 770.40625 102.121094 771.667969 101.851562 772.929688 101.851562 C 775.898438 101.851562 777.699219 103.378906 778.6875 105 C 779.949219 106.980469 780.039062 109.140625 780.039062 111.210938 Z M 828.90625 107.609375 L 831.425781 92.941406 L 830.886719 92.308594 C 830.257812 92.308594 829.625 92.21875 828.996094 92.21875 C 825.304688 92.21875 821.167969 94.289062 818.285156 100.949219 L 818.554688 92.671875 L 817.835938 91.949219 C 811.175781 93.390625 809.464844 93.660156 802.894531 94.648438 L 802.355469 95.191406 C 802.894531 101.941406 803.167969 105.988281 803.167969 118.5 C 803.167969 125.878906 803.074219 133.261719 802.894531 140.730469 L 803.4375 141.269531 C 810.097656 141 811.535156 140.910156 818.734375 141 L 819.1875 140.371094 C 818.824219 133.078125 818.285156 122.910156 818.285156 116.699219 C 818.285156 112.648438 818.285156 106.710938 824.40625 106.710938 C 825.9375 106.710938 826.835938 107.25 828.097656 107.96875 Z M 831.246094 141 "/>
<path fill-rule="nonzero" fill="rgb(34.901961%, 14.901961%, 14.901961%)" fill-opacity="1" d="M 241.25 197.191406 C 231.890625 197.460938 230.359375 197.460938 220.371094 197.460938 L 219.832031 198 L 215.691406 212.578125 L 212.089844 225.628906 L 207.859375 241.289062 L 203.898438 225.179688 L 201.378906 215.011719 L 196.878906 197.730469 L 196.429688 197.191406 C 186.800781 197.460938 185.179688 197.460938 175.101562 197.460938 L 174.558594 198 C 173.660156 224.910156 173.300781 231.839844 171.320312 260.730469 L 171.769531 261.269531 C 177.53125 261 179.242188 260.910156 184.460938 261 L 185 260.460938 L 185.269531 243.269531 L 185.808594 225.808594 L 186.171875 208.800781 L 190.128906 224.730469 L 193.550781 237.511719 L 199.582031 260.730469 L 200.121094 261.269531 C 205.699219 261 207.230469 260.910156 213.53125 261 L 214.070312 260.460938 L 219.289062 241.289062 L 222.890625 228.148438 L 227.929688 209.25 L 227.929688 225.359375 L 228.109375 239.128906 L 228.109375 260.730469 L 228.558594 261.269531 C 234.769531 261 237.199219 260.910156 244.128906 261 L 244.582031 260.460938 C 244.039062 250.199219 243.410156 239.851562 243.050781 229.5 C 242.78125 223.828125 242.601562 218.160156 242.332031 212.488281 C 241.878906 204.121094 241.789062 203.039062 241.789062 197.730469 Z M 294.710938 247.679688 C 291.292969 249.480469 287.242188 251.550781 280.671875 251.550781 C 275.273438 251.550781 271.582031 249.839844 269.421875 246.601562 C 268.070312 244.710938 267.800781 242.910156 267.441406 241.109375 L 296.511719 240.570312 L 297.050781 239.941406 C 296.960938 235.53125 296.871094 231.03125 295.613281 226.53125 C 292.460938 215.910156 285.53125 213.75 282.472656 213.03125 C 280.222656 212.398438 278.152344 212.21875 276.082031 212.21875 C 261.953125 212.21875 252.589844 221.488281 252.589844 237.058594 C 252.589844 241.289062 253.3125 245.699219 254.75 248.851562 C 259.972656 261 272.210938 262.078125 278.691406 262.078125 C 286.160156 262.078125 289.402344 260.730469 294.171875 258.839844 L 294.710938 258.121094 L 295.339844 247.949219 L 294.710938 247.679688 M 267.441406 231.570312 C 267.710938 228.78125 268.339844 225 271.761719 222.839844 C 272.839844 222.121094 274.101562 221.851562 275.363281 221.851562 C 278.332031 221.851562 280.132812 223.378906 281.121094 225 C 282.382812 226.980469 282.472656 229.140625 282.472656 231.210938 Z M 375.621094 260.371094 C 375.167969 252 375.078125 249.660156 375.078125 239.488281 L 375.078125 232.738281 C 375.167969 226.710938 375.257812 221.128906 372.648438 217.351562 C 369.140625 212.21875 362.929688 212.21875 361.488281 212.21875 C 354.109375 212.21875 349.160156 215.550781 345.558594 218.070312 C 344.300781 216 342.050781 212.21875 334.851562 212.21875 C 328.910156 212.21875 325.039062 214.921875 320.898438 217.800781 L 320.898438 212.761719 L 320.089844 211.949219 C 313.070312 213.300781 311.089844 213.660156 304.789062 214.558594 L 304.25 215.191406 C 304.96875 222.390625 305.507812 227.339844 305.507812 245.160156 C 305.507812 250.289062 305.417969 255.511719 305.417969 260.640625 L 305.871094 261.179688 C 311.628906 261 313.609375 260.910156 321.078125 260.910156 L 321.621094 260.371094 C 320.988281 246.511719 320.898438 242.371094 320.808594 226.710938 C 322.699219 225.359375 324.769531 224.191406 327.019531 224.191406 C 332.601562 224.191406 332.78125 230.578125 332.78125 238.320312 C 332.78125 251.371094 332.691406 253.351562 332.507812 260.640625 L 333.050781 261.269531 C 339.890625 260.910156 341.78125 260.910156 347.988281 260.910156 L 348.53125 260.371094 C 347.988281 251.820312 347.898438 249.300781 347.808594 238.410156 L 347.808594 235.078125 L 347.71875 225.988281 C 349.25 225 351.230469 223.738281 353.929688 223.738281 C 359.058594 223.738281 359.871094 228.601562 359.871094 236.339844 C 359.871094 238.050781 359.78125 239.761719 359.78125 241.46875 C 359.691406 244.53125 359.601562 257.941406 359.507812 260.640625 L 360.050781 261.179688 C 366.800781 260.910156 368.78125 260.910156 375.078125 260.910156 Z M 431.78125 237.058594 C 431.78125 233.550781 431.78125 218.96875 419.179688 214.019531 C 415.21875 212.488281 410.539062 212.308594 408.199219 212.308594 C 392.539062 212.308594 383.71875 220.679688 383.71875 237.238281 C 383.71875 243 384.621094 248.851562 387.949219 253.710938 C 390.289062 257.21875 394.699219 262.078125 407.570312 262.078125 C 426.648438 262.078125 431.78125 250.558594 431.78125 237.058594 M 416.210938 236.96875 C 416.210938 244.351562 415.21875 252.539062 407.75 252.539062 C 405.410156 252.539062 403.789062 251.460938 402.710938 250.46875 C 401.179688 248.941406 399.46875 245.878906 399.46875 237.148438 C 399.46875 234.539062 399.46875 228.78125 401.269531 225.628906 C 402.621094 223.199219 404.960938 221.578125 407.839844 221.578125 C 410.359375 221.578125 412.429688 222.929688 413.601562 224.371094 C 415.761719 226.980469 416.210938 232.109375 416.210938 236.96875 Z M 466.339844 227.609375 L 468.859375 212.941406 L 468.320312 212.308594 C 467.691406 212.308594 467.058594 212.21875 466.429688 212.21875 C 462.738281 212.21875 458.601562 214.289062 455.71875 220.949219 L 455.988281 212.671875 L 455.269531 211.949219 C 448.609375 213.390625 446.898438 213.660156 440.328125 214.648438 L 439.789062 215.191406 C 440.328125 221.941406 440.601562 225.988281 440.601562 238.5 C 440.601562 245.878906 440.507812 253.261719 440.328125 260.730469 L 440.871094 261.269531 C 447.53125 261 448.96875 260.910156 456.167969 261 L 456.621094 260.371094 C 456.257812 253.078125 455.71875 242.910156 455.71875 236.699219 C 455.71875 232.648438 455.71875 226.710938 461.839844 226.710938 C 463.371094 226.710938 464.269531 227.25 465.53125 227.96875 Z M 490.371094 260.371094 C 489.917969 253.441406 489.558594 248.128906 489.558594 235.710938 C 489.558594 228.058594 489.738281 220.320312 489.828125 212.671875 L 489.199219 211.949219 L 473.71875 214.648438 L 473.179688 215.191406 C 473.898438 222.03125 474.167969 225.179688 474.167969 237.960938 C 474.167969 247.769531 473.898438 253.261719 473.628906 260.640625 L 474.167969 261.269531 C 480.648438 261 482.449219 260.910156 489.738281 261 L 490.371094 260.371094 M 488.929688 203.308594 L 489.199219 191.070312 L 488.660156 190.53125 L 473.988281 192.328125 L 473.449219 192.960938 C 473.628906 196.199219 473.71875 198.089844 473.71875 200.25 C 473.71875 201.960938 473.71875 203.761719 473.628906 205.46875 L 474.257812 206.011719 C 480.378906 204.929688 482.089844 204.75 488.480469 203.941406 Z M 540.410156 234.179688 C 540.5 226.078125 540.5 222.570312 538.160156 218.789062 C 536.359375 215.910156 532.761719 212.308594 521.242188 212.308594 C 513.5 212.308594 508.730469 213.75 503.601562 215.28125 L 503.0625 216 L 502.609375 225.808594 L 503.332031 226.171875 C 506.480469 224.910156 512.332031 222.570312 518.359375 222.570312 C 521.691406 222.570312 523.039062 223.109375 524.210938 224.28125 C 525.109375 225.179688 525.382812 226.800781 525.382812 228.148438 C 514.582031 229.589844 509.539062 230.578125 504.140625 233.910156 C 499.101562 237.058594 497.390625 242.191406 497.390625 246.238281 C 497.390625 255.871094 504.320312 262.078125 513.140625 262.078125 C 519.890625 262.078125 523.761719 258.839844 525.652344 257.308594 L 525.652344 260.640625 L 526.191406 261.269531 C 532.671875 261 534.652344 260.910156 540.5 261 L 540.949219 260.371094 C 540.320312 251.550781 540.320312 249.300781 540.320312 240.839844 L 540.410156 234.179688 M 525.5625 248.488281 C 523.671875 249.570312 521.242188 250.828125 518.269531 250.828125 C 515.03125 250.828125 512.332031 249.121094 512.332031 245.339844 C 512.332031 239.398438 519.441406 238.410156 525.5625 237.601562 Z M 566.777344 260.371094 C 566.328125 250.019531 565.878906 240.570312 565.878906 212.128906 C 565.878906 203.578125 565.96875 199.53125 566.328125 189.808594 L 565.699219 189.179688 L 550.308594 191.609375 L 549.949219 192.148438 C 550.847656 203.128906 550.9375 206.101562 551.117188 220.679688 C 551.210938 225.988281 551.210938 231.300781 551.210938 236.609375 C 551.210938 246.328125 551.027344 251.730469 550.667969 260.640625 L 551.210938 261.269531 C 557.238281 261 559.667969 260.910156 566.238281 261 Z M 629.511719 222.300781 C 621.953125 219.148438 617.992188 217.53125 617.992188 213.480469 C 617.992188 210.691406 620.601562 207.179688 626.542969 207.179688 C 633.382812 207.179688 637.429688 209.96875 640.761719 212.21875 L 641.570312 211.859375 L 642.292969 200.070312 L 641.839844 199.441406 C 637.972656 197.820312 633.921875 196.109375 625.191406 196.109375 C 608.273438 196.109375 602.421875 205.648438 602.421875 215.28125 C 602.421875 226.171875 610.882812 230.128906 615.921875 232.558594 L 618.890625 233.910156 C 625.101562 236.519531 629.871094 238.769531 629.871094 243.539062 C 629.871094 246.960938 626.902344 251.011719 619.070312 251.011719 C 610.882812 251.011719 606.292969 247.410156 603.679688 245.339844 L 602.78125 245.609375 L 602.152344 258.300781 L 602.691406 259.019531 C 603.679688 259.378906 604.671875 259.828125 605.660156 260.101562 C 607.730469 260.820312 613.042969 262.351562 619.792969 262.351562 C 622.492188 262.351562 629.332031 262.078125 634.730469 259.558594 C 642.292969 255.871094 645.53125 249.03125 645.53125 241.378906 C 645.53125 236.25 643.550781 230.761719 638.78125 227.070312 C 636.351562 225.269531 634.011719 224.191406 631.851562 223.199219 Z M 679.28125 250.648438 C 677.75 251.101562 676.667969 251.460938 675.140625 251.460938 C 670.550781 251.460938 670.191406 248.578125 670.007812 247.230469 C 669.738281 244.890625 669.738281 239.941406 669.828125 236.339844 L 670.007812 223.648438 L 678.109375 224.011719 L 678.648438 223.46875 L 679.550781 213.839844 L 679.007812 213.300781 L 670.007812 213.300781 L 670.28125 198.179688 L 669.648438 197.640625 C 663.53125 199.441406 661.910156 199.890625 655.519531 201.511719 L 655.160156 202.140625 L 655.25 213.390625 L 650.390625 213.210938 L 649.851562 213.660156 L 649.039062 223.289062 L 649.578125 223.828125 L 655.25 223.648438 L 654.980469 237.960938 C 654.890625 240.210938 654.800781 242.460938 654.800781 244.800781 C 654.800781 253.078125 654.980469 261.988281 669.019531 261.988281 C 672.53125 261.988281 675.320312 261.449219 678.46875 260.910156 L 679.101562 260.28125 L 680 251.011719 Z M 725.988281 234.179688 C 726.078125 226.078125 726.078125 222.570312 723.738281 218.789062 C 721.9375 215.910156 718.339844 212.308594 706.820312 212.308594 C 699.078125 212.308594 694.308594 213.75 689.179688 215.28125 L 688.640625 216 L 688.1875 225.808594 L 688.910156 226.171875 C 692.058594 224.910156 697.910156 222.570312 703.9375 222.570312 C 707.269531 222.570312 708.617188 223.109375 709.789062 224.28125 C 710.6875 225.179688 710.960938 226.800781 710.960938 228.148438 C 700.160156 229.589844 695.117188 230.578125 689.71875 233.910156 C 684.679688 237.058594 682.96875 242.191406 682.96875 246.238281 C 682.96875 255.871094 689.898438 262.078125 698.71875 262.078125 C 705.46875 262.078125 709.339844 258.839844 711.230469 257.308594 L 711.230469 260.640625 L 711.769531 261.269531 C 718.25 261 720.230469 260.910156 726.078125 261 L 726.527344 260.371094 C 725.898438 251.550781 725.898438 249.300781 725.898438 240.839844 L 725.988281 234.179688 M 711.140625 248.488281 C 709.25 249.570312 706.820312 250.828125 703.847656 250.828125 C 700.609375 250.828125 697.910156 249.121094 697.910156 245.339844 C 697.910156 239.398438 705.019531 238.410156 711.140625 237.601562 Z M 761.722656 250.648438 C 760.191406 251.101562 759.109375 251.460938 757.582031 251.460938 C 752.992188 251.460938 752.632812 248.578125 752.449219 247.230469 C 752.179688 244.890625 752.179688 239.941406 752.269531 236.339844 L 752.449219 223.648438 L 760.550781 224.011719 L 761.089844 223.46875 L 761.992188 213.839844 L 761.449219 213.300781 L 752.449219 213.300781 L 752.722656 198.179688 L 752.089844 197.640625 C 745.972656 199.441406 744.351562 199.890625 737.960938 201.511719 L 737.601562 202.140625 L 737.691406 213.390625 L 732.832031 213.210938 L 732.292969 213.660156 L 731.480469 223.289062 L 732.019531 223.828125 L 737.691406 223.648438 L 737.421875 237.960938 C 737.332031 240.210938 737.242188 242.460938 737.242188 244.800781 C 737.242188 253.078125 737.421875 261.988281 751.460938 261.988281 C 754.972656 261.988281 757.761719 261.449219 760.910156 260.910156 L 761.542969 260.28125 L 762.441406 251.011719 Z M 808.339844 247.679688 C 804.921875 249.480469 800.871094 251.550781 794.300781 251.550781 C 788.902344 251.550781 785.210938 249.839844 783.050781 246.601562 C 781.699219 244.710938 781.429688 242.910156 781.070312 241.109375 L 810.140625 240.570312 L 810.679688 239.941406 C 810.589844 235.53125 810.5 231.03125 809.242188 226.53125 C 806.089844 215.910156 799.160156 213.75 796.101562 213.03125 C 793.851562 212.398438 791.78125 212.21875 789.710938 212.21875 C 775.582031 212.21875 766.21875 221.488281 766.21875 237.058594 C 766.21875 241.289062 766.941406 245.699219 768.378906 248.851562 C 773.601562 261 785.839844 262.078125 792.320312 262.078125 C 799.789062 262.078125 803.03125 260.730469 807.800781 258.839844 L 808.339844 258.121094 L 808.96875 247.949219 L 808.339844 247.679688 M 781.070312 231.570312 C 781.339844 228.78125 781.96875 225 785.390625 222.839844 C 786.46875 222.121094 787.730469 221.851562 788.992188 221.851562 C 791.960938 221.851562 793.761719 223.378906 794.75 225 C 796.011719 226.980469 796.101562 229.140625 796.101562 231.210938 Z M 813.558594 261 "/>
<path fill-rule="nonzero" fill="rgb(34.901961%, 14.901961%, 14.901961%)" fill-opacity="1" d="M 385.519531 381 C 393.890625 381.179688 404.238281 381.359375 410.988281 376.679688 C 416.929688 372.449219 418.550781 366.511719 418.550781 361.46875 C 418.550781 355.710938 416.117188 350.398438 410.988281 347.878906 C 409.277344 346.980469 407.300781 346.621094 405.410156 346.261719 C 408.46875 345 412.070312 343.378906 414.410156 338.609375 C 415.398438 336.539062 415.847656 334.378906 415.847656 332.308594 C 415.847656 329.429688 415.128906 325.46875 412.25 322.230469 C 408.46875 318.179688 402.617188 317.101562 393.800781 317.101562 C 390.738281 317.101562 385.25 317.191406 382.1875 317.28125 L 369.589844 317.460938 L 369.050781 318 C 369.410156 326.640625 369.5 329.96875 369.5 342.390625 C 369.5 355.171875 369.410156 367.859375 369.230469 380.640625 L 369.859375 381 L 385.519531 381 M 384.890625 353.640625 C 391.730469 353.460938 395.6875 353.460938 398.300781 354.988281 C 400.910156 356.609375 401.898438 359.488281 401.898438 362.371094 C 401.898438 366.421875 399.648438 368.941406 396.320312 370.109375 C 393.617188 371.011719 388.757812 371.011719 384.890625 370.921875 L 384.890625 353.640625 M 384.890625 327.179688 C 386.777344 327.179688 389.300781 327.089844 390.828125 327.089844 C 395.6875 327.089844 400.097656 328.800781 400.097656 334.648438 C 400.097656 339.421875 396.589844 341.398438 395.507812 341.941406 C 393.257812 342.929688 388.488281 342.929688 384.890625 342.929688 Z M 466.878906 367.679688 C 463.460938 369.480469 459.410156 371.550781 452.839844 371.550781 C 447.441406 371.550781 443.75 369.839844 441.589844 366.601562 C 440.238281 364.710938 439.96875 362.910156 439.609375 361.109375 L 468.679688 360.570312 L 469.21875 359.941406 C 469.128906 355.53125 469.039062 351.03125 467.78125 346.53125 C 464.628906 335.910156 457.699219 333.75 454.640625 333.03125 C 452.390625 332.398438 450.320312 332.21875 448.25 332.21875 C 434.121094 332.21875 424.757812 341.488281 424.757812 357.058594 C 424.757812 361.289062 425.480469 365.699219 426.917969 368.851562 C 432.140625 381 444.378906 382.078125 450.859375 382.078125 C 458.328125 382.078125 461.570312 380.730469 466.339844 378.839844 L 466.878906 378.121094 L 467.507812 367.949219 L 466.878906 367.679688 M 439.609375 351.570312 C 439.878906 348.78125 440.507812 345 443.929688 342.839844 C 445.007812 342.121094 446.269531 341.851562 447.53125 341.851562 C 450.5 341.851562 452.300781 343.378906 453.289062 345 C 454.550781 346.980469 454.640625 349.140625 454.640625 351.210938 Z M 517.546875 354.179688 C 517.636719 346.078125 517.636719 342.570312 515.296875 338.789062 C 513.496094 335.910156 509.898438 332.308594 498.378906 332.308594 C 490.636719 332.308594 485.867188 333.75 480.738281 335.28125 L 480.199219 336 L 479.746094 345.808594 L 480.46875 346.171875 C 483.617188 344.910156 489.46875 342.570312 495.496094 342.570312 C 498.828125 342.570312 500.175781 343.109375 501.347656 344.28125 C 502.246094 345.179688 502.519531 346.800781 502.519531 348.148438 C 491.71875 349.589844 486.675781 350.578125 481.277344 353.910156 C 476.238281 357.058594 474.527344 362.191406 474.527344 366.238281 C 474.527344 375.871094 481.457031 382.078125 490.277344 382.078125 C 497.027344 382.078125 500.898438 378.839844 502.789062 377.308594 L 502.789062 380.640625 L 503.328125 381.269531 C 509.808594 381 511.789062 380.910156 517.636719 381 L 518.085938 380.371094 C 517.457031 371.550781 517.457031 369.300781 517.457031 360.839844 L 517.546875 354.179688 M 502.699219 368.488281 C 500.808594 369.570312 498.378906 370.828125 495.40625 370.828125 C 492.167969 370.828125 489.46875 369.121094 489.46875 365.339844 C 489.46875 359.398438 496.578125 358.410156 502.699219 357.601562 Z M 563.269531 368.039062 C 560.839844 369.480469 558.5 370.921875 553.910156 370.921875 C 543.738281 370.921875 541.667969 362.460938 541.667969 357.058594 C 541.667969 350.488281 544.550781 342.929688 553.28125 342.929688 C 557.238281 342.929688 559.398438 344.371094 562.101562 346.171875 L 563 345.898438 C 563.359375 341.128906 563.449219 339.871094 564.167969 335.101562 L 563.71875 334.558594 C 559.757812 333.300781 556.339844 332.21875 551.121094 332.21875 C 529.96875 332.21875 525.828125 348.238281 525.828125 357.421875 C 525.828125 367.769531 531.230469 381.808594 551.480469 381.808594 C 556.25 381.808594 559.308594 380.910156 563.089844 379.828125 L 563.628906 379.289062 L 563.988281 368.488281 Z M 615.289062 380.371094 C 614.929688 372.988281 614.839844 370.46875 614.660156 361.109375 L 614.660156 354.359375 C 614.570312 345.808594 614.480469 340.859375 611.867188 337.078125 C 609.257812 333.390625 605.480469 332.21875 601.519531 332.21875 C 594.949219 332.21875 589.820312 335.371094 586.21875 337.53125 L 586.488281 309.808594 L 585.949219 309.179688 L 570.558594 311.609375 L 570.109375 312.148438 C 570.917969 320.878906 571.097656 324.121094 571.277344 335.730469 C 571.460938 343.019531 571.550781 350.308594 571.550781 357.601562 C 571.550781 366.511719 571.367188 371.820312 571.1875 380.640625 L 571.640625 381.269531 C 578.300781 380.910156 579.648438 380.910156 586.9375 380.910156 L 587.480469 380.371094 C 586.847656 366.871094 586.757812 362.820312 586.667969 346.890625 C 588.378906 345.71875 590.539062 344.191406 593.597656 344.191406 C 598.550781 344.191406 598.910156 349.320312 599.269531 352.921875 C 599.449219 355.710938 599.539062 368.488281 599.539062 371.820312 C 599.539062 374.789062 599.449219 377.671875 599.449219 380.640625 L 599.898438 381.269531 C 606.378906 380.910156 607.820312 380.910156 614.75 380.910156 Z M 620.148438 381 "/>
</svg>
