<?xml version="1.0" encoding="UTF-8"?>
<svg xmlns="http://www.w3.org/2000/svg" xmlns:xlink="http://www.w3.org/1999/xlink" width="975" height="1300" viewBox="0 0 975 1300">
<path fill-rule="nonzero" fill="rgb(98.823529%, 78.823529%, 9.019608%)" fill-opacity="1" d="M 50 50 L 925 50 L 925 410 L 50 410 Z M 50 50 "/>
<path fill-rule="nonzero" fill="rgb(34.901961%, 14.901961%, 14.901961%)" fill-opacity="1" d="M 197.828125 77.191406 C 189.1875 77.460938 187.386719 77.460938 177.757812 77.460938 L 177.125 78 C 172.355469 93.300781 169.476562 102.390625 156.246094 140.371094 L 156.605469 141 L 170.644531 141 L 171.277344 140.460938 L 175.6875 124.078125 L 195.125 124.078125 L 198.996094 140.730469 L 199.625 141.269531 C 206.195312 141 207.996094 140.910156 215.285156 141 L 215.738281 140.28125 C 204.847656 101.761719 203.585938 97.53125 198.457031 77.730469 L 197.828125 77.191406 M 178.835938 113.191406 L 183.335938 97.980469 L 186.488281 87.449219 L 189.1875 99.148438 L 192.515625 113.191406 Z M 247.507812 107.609375 L 250.027344 92.941406 L 249.488281 92.308594 C 248.859375 92.308594 248.226562 92.21875 247.597656 92.21875 C 243.90625 92.21875 239.769531 94.289062 236.886719 100.949219 L 237.15625 92.671875 L 236.4375 91.949219 C 229.777344 93.390625 228.066406 93.660156 221.496094 94.648438 L 220.957031 95.191406 C 221.496094 101.941406 221.769531 105.988281 221.769531 118.5 C 221.769531 125.878906 221.675781 133.261719 221.496094 140.730469 L 222.039062 141.269531 C 228.699219 141 230.136719 140.910156 237.335938 141 L 237.789062 140.371094 C 237.425781 133.078125 236.886719 122.910156 236.886719 116.699219 C 236.886719 112.648438 236.886719 106.710938 243.007812 106.710938 C 244.539062 106.710938 245.4375 107.25 246.699219 107.96875 Z M 280.449219 130.648438 C 278.917969 131.101562 277.835938 131.460938 276.308594 131.460938 C 271.71875 131.460938 271.359375 128.578125 271.175781 127.230469 C 270.90625 124.890625 270.90625 119.941406 270.996094 116.339844 L 271.175781 103.648438 L 279.277344 104.011719 L 279.816406 103.46875 L 280.71875 93.839844 L 280.175781 93.300781 L 271.175781 93.300781 L 271.449219 78.179688 L 270.816406 77.640625 C 264.699219 79.441406 263.078125 79.890625 256.6875 81.511719 L 256.328125 82.140625 L 256.417969 93.390625 L 251.558594 93.210938 L 251.019531 93.660156 L 250.207031 103.289062 L 250.746094 103.828125 L 256.417969 103.648438 L 256.148438 117.960938 C 256.058594 120.210938 255.96875 122.460938 255.96875 124.800781 C 255.96875 133.078125 256.148438 141.988281 270.1875 141.988281 C 273.699219 141.988281 276.488281 141.449219 279.636719 140.910156 L 280.269531 140.28125 L 281.167969 131.011719 Z M 331.207031 140.371094 C 330.847656 132.988281 330.757812 130.46875 330.578125 121.109375 L 330.578125 114.359375 C 330.488281 105.808594 330.398438 100.859375 327.785156 97.078125 C 325.175781 93.390625 321.398438 92.21875 317.4375 92.21875 C 310.867188 92.21875 305.738281 95.371094 302.136719 97.53125 L 302.40625 69.808594 L 301.867188 69.179688 L 286.476562 71.609375 L 286.027344 72.148438 C 286.835938 80.878906 287.015625 84.121094 287.195312 95.730469 C 287.378906 103.019531 287.46875 110.308594 287.46875 117.601562 C 287.46875 126.511719 287.285156 131.820312 287.105469 140.640625 L 287.558594 141.269531 C 294.21875 140.910156 295.566406 140.910156 302.855469 140.910156 L 303.398438 140.371094 C 302.765625 126.871094 302.675781 122.820312 302.585938 106.890625 C 304.296875 105.71875 306.457031 104.191406 309.515625 104.191406 C 314.46875 104.191406 314.828125 109.320312 315.1875 112.921875 C 315.367188 115.710938 315.457031 128.488281 315.457031 131.820312 C 315.457031 134.789062 315.367188 137.671875 315.367188 140.640625 L 315.816406 141.269531 C 322.296875 140.910156 323.738281 140.910156 330.667969 140.910156 Z M 384.667969 92.851562 L 369.996094 93.570312 L 369.367188 94.109375 C 369.996094 104.28125 369.996094 118.679688 369.996094 120.121094 C 369.996094 122.730469 369.996094 124.171875 369.90625 127.769531 C 367.476562 129.390625 365.585938 130.738281 363.15625 130.738281 C 356.675781 130.738281 356.675781 123.898438 356.675781 118.589844 C 356.675781 116.339844 356.675781 114 356.765625 111.75 L 356.945312 93.570312 L 356.316406 92.851562 L 341.464844 93.570312 L 340.835938 94.109375 C 341.375 101.671875 341.464844 104.191406 341.464844 113.28125 L 341.464844 119.578125 C 341.375 129.390625 341.828125 133.53125 345.066406 137.308594 C 348.035156 140.640625 352.355469 142.078125 356.855469 142.078125 C 363.246094 142.078125 366.9375 139.199219 370.175781 136.679688 L 370.085938 140.730469 L 370.714844 141.269531 C 377.285156 141 379.265625 141 385.117188 141 L 385.65625 140.460938 C 385.207031 134.070312 385.027344 130.648438 385.027344 118.949219 C 385.027344 110.488281 385.117188 102.03125 385.296875 93.570312 Z M 421.835938 107.609375 L 424.355469 92.941406 L 423.816406 92.308594 C 423.1875 92.308594 422.554688 92.21875 421.925781 92.21875 C 418.234375 92.21875 414.097656 94.289062 411.214844 100.949219 L 411.484375 92.671875 L 410.765625 91.949219 C 404.105469 93.390625 402.394531 93.660156 395.824219 94.648438 L 395.285156 95.191406 C 395.824219 101.941406 396.097656 105.988281 396.097656 118.5 C 396.097656 125.878906 396.003906 133.261719 395.824219 140.730469 L 396.367188 141.269531 C 403.027344 141 404.464844 140.910156 411.664062 141 L 412.117188 140.371094 C 411.753906 133.078125 411.214844 122.910156 411.214844 116.699219 C 411.214844 112.648438 411.214844 106.710938 417.335938 106.710938 C 418.867188 106.710938 419.765625 107.25 421.027344 107.96875 Z M 472.597656 141 C 480.96875 141.179688 491.316406 141.359375 498.066406 136.679688 C 504.007812 132.449219 505.628906 126.511719 505.628906 121.46875 C 505.628906 115.710938 503.195312 110.398438 498.066406 107.878906 C 496.355469 106.980469 494.378906 106.621094 492.488281 106.261719 C 495.546875 105 499.148438 103.378906 501.488281 98.609375 C 502.476562 96.539062 502.925781 94.378906 502.925781 92.308594 C 502.925781 89.429688 502.207031 85.46875 499.328125 82.230469 C 495.546875 78.179688 489.695312 77.101562 480.878906 77.101562 C 477.816406 77.101562 472.328125 77.191406 469.265625 77.28125 L 456.667969 77.460938 L 456.128906 78 C 456.488281 86.640625 456.578125 89.96875 456.578125 102.390625 C 456.578125 115.171875 456.488281 127.859375 456.308594 140.640625 L 456.9375 141 L 472.597656 141 M 471.96875 113.640625 C 478.808594 113.460938 482.765625 113.460938 485.378906 114.988281 C 487.988281 116.609375 488.976562 119.488281 488.976562 122.371094 C 488.976562 126.421875 486.726562 128.941406 483.398438 130.109375 C 480.695312 131.011719 475.835938 131.011719 471.96875 130.921875 L 471.96875 113.640625 M 471.96875 87.179688 C 473.855469 87.179688 476.378906 87.089844 477.90625 87.089844 C 482.765625 87.089844 487.175781 88.800781 487.175781 94.648438 C 487.175781 99.421875 483.667969 101.398438 482.585938 101.941406 C 480.335938 102.929688 475.566406 102.929688 471.96875 102.929688 Z M 526.957031 127.140625 L 512.558594 127.410156 L 512.109375 128.128906 L 512.289062 140.640625 L 512.738281 141.269531 L 527.136719 140.910156 L 527.585938 140.371094 L 527.40625 127.679688 Z M 583.113281 116.25 C 589.144531 126.511719 590.496094 129.210938 596.253906 141 L 596.976562 141.449219 C 599.765625 141.269531 602.464844 141.089844 605.253906 141 C 608.046875 140.910156 610.925781 140.820312 613.714844 140.820312 L 614.253906 139.738281 C 610.835938 135.328125 609.84375 133.980469 603.363281 123.628906 C 600.484375 119.039062 599.046875 116.609375 596.796875 112.648438 C 600.84375 110.851562 609.035156 107.070312 609.035156 95.640625 C 609.035156 91.679688 607.953125 83.488281 600.574219 79.621094 C 595.894531 77.191406 591.035156 77.101562 580.503906 77.28125 L 574.203125 77.371094 L 563.226562 77.371094 L 562.773438 77.910156 C 563.136719 87 563.496094 96.359375 563.496094 120.839844 C 563.496094 129.210938 563.40625 133.261719 563.136719 140.730469 L 563.675781 141.269531 C 570.246094 141 571.683594 140.910156 579.066406 141 L 579.605469 140.460938 C 578.886719 130.019531 578.796875 127.140625 578.703125 116.429688 L 583.113281 116.25 M 578.886719 88.261719 C 580.144531 88.171875 581.40625 88.171875 582.664062 88.171875 C 586.175781 88.171875 593.105469 88.171875 593.105469 96.089844 C 593.105469 98.609375 592.476562 101.941406 589.144531 104.011719 C 586.625 105.539062 583.386719 105.71875 578.886719 105.808594 Z M 635.316406 140.371094 C 634.863281 133.441406 634.503906 128.128906 634.503906 115.710938 C 634.503906 108.058594 634.683594 100.320312 634.773438 92.671875 L 634.144531 91.949219 L 618.664062 94.648438 L 618.125 95.191406 C 618.84375 102.03125 619.113281 105.179688 619.113281 117.960938 C 619.113281 127.769531 618.84375 133.261719 618.574219 140.640625 L 619.113281 141.269531 C 625.59375 141 627.394531 140.910156 634.683594 141 L 635.316406 140.371094 M 633.875 83.308594 L 634.144531 71.070312 L 633.605469 70.53125 L 618.933594 72.328125 L 618.394531 72.960938 C 618.574219 76.199219 618.664062 78.089844 618.664062 80.25 C 618.664062 81.960938 618.664062 83.761719 618.574219 85.46875 L 619.203125 86.011719 C 625.324219 84.929688 627.035156 84.75 633.425781 83.941406 Z M 660.246094 92.851562 L 659.527344 92.039062 C 652.957031 93.480469 651.066406 93.839844 644.585938 94.648438 L 644.046875 95.28125 C 645.035156 105.988281 645.394531 110.128906 645.394531 136.050781 C 645.394531 146.761719 645.214844 152.878906 644.945312 163.050781 L 645.484375 163.5 C 651.875 163.230469 653.765625 163.140625 660.605469 163.230469 L 661.144531 162.78125 L 660.515625 141.359375 C 667.085938 141.269531 676.175781 141.179688 683.464844 134.339844 C 689.226562 128.941406 691.117188 121.289062 691.117188 115.171875 C 691.117188 100.859375 682.386719 92.21875 672.304688 92.21875 C 666.097656 92.21875 662.585938 94.738281 660.066406 96.449219 L 660.246094 92.851562 M 660.425781 105.089844 C 662.40625 103.921875 663.578125 103.289062 665.828125 103.289062 C 667.175781 103.289062 669.875 103.46875 672.125 105.988281 C 674.917969 109.050781 675.367188 113.640625 675.367188 116.699219 C 675.367188 121.921875 673.65625 126.601562 670.054688 129.121094 C 667.175781 131.101562 663.578125 131.28125 660.425781 131.371094 Z M 715.503906 140.371094 C 715.054688 130.019531 714.605469 120.570312 714.605469 92.128906 C 714.605469 83.578125 714.695312 79.53125 715.054688 69.808594 L 714.425781 69.179688 L 699.035156 71.609375 L 698.675781 72.148438 C 699.574219 83.128906 699.664062 86.101562 699.84375 100.679688 C 699.9375 105.988281 699.9375 111.300781 699.9375 116.609375 C 699.9375 126.328125 699.753906 131.730469 699.394531 140.640625 L 699.9375 141.269531 C 705.964844 141 708.394531 140.910156 714.964844 141 Z M 765.90625 127.679688 C 762.488281 129.480469 758.4375 131.550781 751.867188 131.550781 C 746.46875 131.550781 742.777344 129.839844 740.617188 126.601562 C 739.265625 124.710938 738.996094 122.910156 738.636719 121.109375 L 767.707031 120.570312 L 768.246094 119.941406 C 768.15625 115.53125 768.066406 111.03125 766.808594 106.53125 C 763.65625 95.910156 756.726562 93.75 753.667969 93.03125 C 751.417969 92.398438 749.347656 92.21875 747.277344 92.21875 C 733.148438 92.21875 723.785156 101.488281 723.785156 117.058594 C 723.785156 121.289062 724.507812 125.699219 725.945312 128.851562 C 731.167969 141 743.40625 142.078125 749.886719 142.078125 C 757.355469 142.078125 760.597656 140.730469 765.367188 138.839844 L 765.90625 138.121094 L 766.535156 127.949219 L 765.90625 127.679688 M 738.636719 111.570312 C 738.90625 108.78125 739.535156 105 742.957031 102.839844 C 744.035156 102.121094 745.296875 101.851562 746.558594 101.851562 C 749.527344 101.851562 751.328125 103.378906 752.316406 105 C 753.578125 106.980469 753.667969 109.140625 753.667969 111.210938 Z M 816.753906 93.03125 L 804.246094 93.300781 L 803.523438 93.929688 C 801.996094 100.140625 801.636719 101.488281 799.476562 108.511719 L 797.136719 116.25 L 795.15625 123 L 793.445312 116.609375 L 790.835938 107.070312 L 787.234375 93.390625 L 786.515625 92.851562 C 779.496094 93.390625 777.964844 93.480469 770.585938 93.660156 L 770.136719 94.289062 C 773.375 102.839844 781.746094 125.429688 787.324219 142.710938 C 783.636719 152.070312 782.914062 153.691406 778.863281 162.601562 L 779.316406 163.320312 C 781.566406 163.230469 784.085938 163.140625 786.425781 163.140625 C 788.675781 163.140625 791.015625 163.230469 793.265625 163.230469 L 793.894531 162.691406 C 798.84375 143.25 801.273438 135.691406 813.15625 104.371094 C 814.503906 100.769531 815.855469 97.261719 817.113281 93.75 Z M 816.125 141 "/>
<path fill-rule="nonzero" fill="rgb(34.901961%, 14.901961%, 14.901961%)" fill-opacity="1" d="M 141.980469 261 C 144.320312 261.089844 146.75 261.089844 149.089844 261.089844 C 159.167969 261.089844 175.457031 260.730469 182.027344 244.710938 C 184.457031 238.769531 185 231.570312 185 227.519531 C 185 219.058594 183.109375 212.578125 180.859375 208.53125 C 174.738281 197.371094 163.128906 197.011719 152.867188 197.011719 C 148.730469 197.011719 144.589844 197.191406 140.449219 197.371094 L 130.910156 197.460938 L 130.367188 198 C 130.730469 206.640625 131.089844 214.199219 131.089844 239.128906 C 131.089844 247.949219 131 253.261719 130.820312 260.640625 L 131.359375 261 L 141.980469 261 M 146.929688 249.390625 C 146.75 240.570312 146.660156 232.199219 146.660156 223.558594 C 146.660156 218.699219 146.660156 213.839844 146.75 208.980469 C 148.546875 208.890625 150.4375 208.800781 152.238281 208.800781 C 157.730469 208.800781 168.4375 208.800781 168.4375 227.96875 C 168.4375 239.21875 164.207031 244.261719 162.046875 246.058594 C 158 249.390625 151.789062 249.390625 146.929688 249.390625 Z M 234.136719 247.679688 C 230.71875 249.480469 226.667969 251.550781 220.097656 251.550781 C 214.699219 251.550781 211.007812 249.839844 208.847656 246.601562 C 207.496094 244.710938 207.226562 242.910156 206.867188 241.109375 L 235.9375 240.570312 L 236.476562 239.941406 C 236.386719 235.53125 236.296875 231.03125 235.039062 226.53125 C 231.886719 215.910156 224.957031 213.75 221.898438 213.03125 C 219.648438 212.398438 217.578125 212.21875 215.507812 212.21875 C 201.378906 212.21875 192.015625 221.488281 192.015625 237.058594 C 192.015625 241.289062 192.738281 245.699219 194.175781 248.851562 C 199.398438 261 211.636719 262.078125 218.117188 262.078125 C 225.585938 262.078125 228.828125 260.730469 233.597656 258.839844 L 234.136719 258.121094 L 234.765625 247.949219 L 234.136719 247.679688 M 206.867188 231.570312 C 207.136719 228.78125 207.765625 225 211.1875 222.839844 C 212.265625 222.121094 213.527344 221.851562 214.789062 221.851562 C 217.757812 221.851562 219.558594 223.378906 220.546875 225 C 221.808594 226.980469 221.898438 229.140625 221.898438 231.210938 Z M 263.660156 229.949219 C 260.597656 228.871094 258.167969 227.878906 258.167969 225.359375 C 258.167969 224.28125 258.890625 221.308594 264.46875 221.308594 C 269.960938 221.308594 273.46875 223.648438 275.71875 225.089844 L 276.53125 224.820312 L 277.429688 215.011719 L 276.980469 214.46875 C 272.75 213.300781 269.058594 212.21875 263.210938 212.21875 C 258.800781 212.21875 249.980469 212.578125 245.300781 219.328125 C 244.128906 220.949219 242.871094 223.648438 242.871094 227.25 C 242.871094 236.878906 250.339844 239.761719 254.570312 241.378906 L 257.988281 242.640625 C 260.417969 243.449219 264.378906 244.800781 264.378906 248.039062 C 264.378906 250.289062 262.308594 252.71875 257.269531 252.71875 C 254.75 252.71875 251.058594 251.910156 247.730469 250.199219 C 246.199219 249.390625 245.480469 248.761719 244.128906 247.679688 L 243.320312 248.039062 C 243.140625 252.71875 243.050781 253.710938 242.6875 258.210938 L 243.140625 259.019531 C 247.550781 260.640625 251.328125 262.078125 257.898438 262.078125 C 264.738281 262.078125 278.238281 260.820312 279.859375 247.949219 C 279.949219 247.230469 279.949219 246.601562 279.949219 245.96875 C 279.949219 236.070312 273.019531 233.460938 268.070312 231.570312 Z M 327.828125 247.679688 C 324.410156 249.480469 320.359375 251.550781 313.789062 251.550781 C 308.390625 251.550781 304.699219 249.839844 302.539062 246.601562 C 301.1875 244.710938 300.917969 242.910156 300.558594 241.109375 L 329.628906 240.570312 L 330.167969 239.941406 C 330.078125 235.53125 329.988281 231.03125 328.730469 226.53125 C 325.578125 215.910156 318.648438 213.75 315.589844 213.03125 C 313.339844 212.398438 311.269531 212.21875 309.199219 212.21875 C 295.070312 212.21875 285.707031 221.488281 285.707031 237.058594 C 285.707031 241.289062 286.429688 245.699219 287.867188 248.851562 C 293.089844 261 305.328125 262.078125 311.808594 262.078125 C 319.277344 262.078125 322.519531 260.730469 327.289062 258.839844 L 327.828125 258.121094 L 328.457031 247.949219 L 327.828125 247.679688 M 300.558594 231.570312 C 300.828125 228.78125 301.457031 225 304.878906 222.839844 C 305.957031 222.121094 307.21875 221.851562 308.480469 221.851562 C 311.449219 221.851562 313.25 223.378906 314.238281 225 C 315.5 226.980469 315.589844 229.140625 315.589844 231.210938 Z M 364.457031 227.609375 L 366.976562 212.941406 L 366.4375 212.308594 C 365.808594 212.308594 365.175781 212.21875 364.546875 212.21875 C 360.855469 212.21875 356.71875 214.289062 353.835938 220.949219 L 354.105469 212.671875 L 353.386719 211.949219 C 346.726562 213.390625 345.015625 213.660156 338.445312 214.648438 L 337.90625 215.191406 C 338.445312 221.941406 338.71875 225.988281 338.71875 238.5 C 338.71875 245.878906 338.625 253.261719 338.445312 260.730469 L 338.988281 261.269531 C 345.648438 261 347.085938 260.910156 354.285156 261 L 354.738281 260.371094 C 354.375 253.078125 353.835938 242.910156 353.835938 236.699219 C 353.835938 232.648438 353.835938 226.710938 359.957031 226.710938 C 361.488281 226.710938 362.386719 227.25 363.648438 227.96875 Z M 397.398438 250.648438 C 395.867188 251.101562 394.785156 251.460938 393.257812 251.460938 C 388.667969 251.460938 388.308594 248.578125 388.125 247.230469 C 387.855469 244.890625 387.855469 239.941406 387.945312 236.339844 L 388.125 223.648438 L 396.226562 224.011719 L 396.765625 223.46875 L 397.667969 213.839844 L 397.125 213.300781 L 388.125 213.300781 L 388.398438 198.179688 L 387.765625 197.640625 C 381.648438 199.441406 380.027344 199.890625 373.636719 201.511719 L 373.277344 202.140625 L 373.367188 213.390625 L 368.507812 213.210938 L 367.96875 213.660156 L 367.15625 223.289062 L 367.695312 223.828125 L 373.367188 223.648438 L 373.097656 237.960938 C 373.007812 240.210938 372.917969 242.460938 372.917969 244.800781 C 372.917969 253.078125 373.097656 261.988281 387.136719 261.988281 C 390.648438 261.988281 393.4375 261.449219 396.585938 260.910156 L 397.21875 260.28125 L 398.117188 251.011719 Z M 495.765625 260.460938 C 499.097656 244.078125 500.539062 237.238281 510.078125 197.730469 L 509.628906 197.191406 C 503.238281 197.460938 501.976562 197.460938 495.949219 197.460938 L 495.40625 198 C 493.96875 207.269531 493.515625 210.421875 491.539062 220.769531 L 488.925781 234.539062 L 486.046875 250.019531 C 484.699219 239.941406 484.246094 236.878906 482.449219 226.441406 L 479.835938 211.320312 L 477.585938 197.460938 L 477.046875 196.828125 L 459.226562 197.28125 L 458.6875 197.820312 L 455.085938 218.519531 L 451.578125 236.96875 L 449.328125 249.390625 C 448.246094 241.558594 447.886719 238.949219 445.996094 228.058594 L 443.65625 214.921875 L 440.6875 197.101562 L 440.148438 196.648438 C 432.40625 197.191406 431.148438 197.191406 424.578125 197.371094 L 424.128906 198 C 430.699219 227.789062 432.136719 234.628906 436.996094 260.730469 L 437.539062 261.269531 C 446.628906 260.910156 449.058594 260.910156 457.878906 261 L 458.507812 260.460938 L 460.398438 249.300781 L 463.367188 232.828125 L 466.609375 213.570312 C 467.6875 222.390625 467.957031 224.640625 469.578125 234.359375 L 471.828125 248.398438 L 473.71875 260.730469 L 474.167969 261.269531 C 482.808594 261 485.777344 260.910156 495.316406 261 Z M 560.570312 237.058594 C 560.570312 233.550781 560.570312 218.96875 547.96875 214.019531 C 544.007812 212.488281 539.328125 212.308594 536.988281 212.308594 C 521.328125 212.308594 512.507812 220.679688 512.507812 237.238281 C 512.507812 243 513.410156 248.851562 516.738281 253.710938 C 519.078125 257.21875 523.488281 262.078125 536.359375 262.078125 C 555.4375 262.078125 560.570312 250.558594 560.570312 237.058594 M 545 236.96875 C 545 244.351562 544.007812 252.539062 536.539062 252.539062 C 534.199219 252.539062 532.578125 251.460938 531.5 250.46875 C 529.96875 248.941406 528.257812 245.878906 528.257812 237.148438 C 528.257812 234.539062 528.257812 228.78125 530.058594 225.628906 C 531.410156 223.199219 533.75 221.578125 536.628906 221.578125 C 539.148438 221.578125 541.21875 222.929688 542.390625 224.371094 C 544.550781 226.980469 545 232.109375 545 236.96875 Z M 614.929688 237.058594 C 614.929688 233.550781 614.929688 218.96875 602.328125 214.019531 C 598.367188 212.488281 593.6875 212.308594 591.347656 212.308594 C 575.6875 212.308594 566.867188 220.679688 566.867188 237.238281 C 566.867188 243 567.769531 248.851562 571.097656 253.710938 C 573.4375 257.21875 577.847656 262.078125 590.71875 262.078125 C 609.796875 262.078125 614.929688 250.558594 614.929688 237.058594 M 599.359375 236.96875 C 599.359375 244.351562 598.367188 252.539062 590.898438 252.539062 C 588.558594 252.539062 586.9375 251.460938 585.859375 250.46875 C 584.328125 248.941406 582.617188 245.878906 582.617188 237.148438 C 582.617188 234.539062 582.617188 228.78125 584.417969 225.628906 C 585.769531 223.199219 588.109375 221.578125 590.988281 221.578125 C 593.507812 221.578125 595.578125 222.929688 596.75 224.371094 C 598.910156 226.980469 599.359375 232.109375 599.359375 236.96875 Z M 667.578125 260.460938 C 667.21875 252.359375 666.949219 246.960938 666.949219 235.171875 C 666.949219 211.410156 667.308594 201.601562 667.667969 189.71875 L 667.039062 189.179688 L 652.1875 191.519531 L 651.738281 192.058594 C 652.277344 200.519531 652.367188 202.769531 652.277344 213.03125 C 645.527344 212.851562 637.066406 212.671875 630.226562 218.070312 C 623.929688 222.929688 621.316406 230.398438 621.316406 239.671875 C 621.316406 246.691406 623.207031 253.710938 628.519531 258.121094 C 632.476562 261.359375 637.339844 262.078125 640.308594 262.078125 C 646.699219 262.078125 650.027344 259.109375 652.1875 257.21875 L 652.007812 260.730469 L 652.457031 261.269531 C 658.667969 261 660.378906 261 667.128906 261 L 667.578125 260.460938 M 652.277344 223.828125 C 652.367188 235.800781 652.277344 238.140625 652.007812 249.03125 C 650.207031 250.109375 648.40625 251.191406 645.886719 251.191406 C 637.15625 251.191406 637.15625 240.03125 637.15625 238.230469 C 637.15625 231.300781 639.136719 223.558594 649.21875 223.558594 C 650.207031 223.558594 651.019531 223.648438 652.277344 223.828125 Z M 693.675781 260.371094 C 693.226562 250.019531 692.777344 240.570312 692.777344 212.128906 C 692.777344 203.578125 692.867188 199.53125 693.226562 189.808594 L 692.597656 189.179688 L 677.207031 191.609375 L 676.847656 192.148438 C 677.746094 203.128906 677.835938 206.101562 678.015625 220.679688 C 678.109375 225.988281 678.109375 231.300781 678.109375 236.609375 C 678.109375 246.328125 677.925781 251.730469 677.566406 260.640625 L 678.109375 261.269531 C 684.136719 261 686.566406 260.910156 693.136719 261 Z M 744.167969 234.179688 C 744.257812 226.078125 744.257812 222.570312 741.917969 218.789062 C 740.117188 215.910156 736.519531 212.308594 725 212.308594 C 717.257812 212.308594 712.488281 213.75 707.359375 215.28125 L 706.820312 216 L 706.367188 225.808594 L 707.089844 226.171875 C 710.238281 224.910156 716.089844 222.570312 722.117188 222.570312 C 725.449219 222.570312 726.796875 223.109375 727.96875 224.28125 C 728.867188 225.179688 729.140625 226.800781 729.140625 228.148438 C 718.339844 229.589844 713.296875 230.578125 707.898438 233.910156 C 702.859375 237.058594 701.148438 242.191406 701.148438 246.238281 C 701.148438 255.871094 708.078125 262.078125 716.898438 262.078125 C 723.648438 262.078125 727.519531 258.839844 729.410156 257.308594 L 729.410156 260.640625 L 729.949219 261.269531 C 736.429688 261 738.410156 260.910156 744.257812 261 L 744.707031 260.371094 C 744.078125 251.550781 744.078125 249.300781 744.078125 240.839844 L 744.167969 234.179688 M 729.320312 248.488281 C 727.429688 249.570312 725 250.828125 722.027344 250.828125 C 718.789062 250.828125 716.089844 249.121094 716.089844 245.339844 C 716.089844 239.398438 723.199219 238.410156 729.320312 237.601562 Z M 798.796875 260.371094 C 798.347656 252.449219 798.347656 249.929688 798.167969 241.109375 L 798.167969 234.089844 C 798.078125 225.449219 797.988281 221.308594 795.738281 217.621094 C 792.945312 212.941406 787.816406 212.21875 784.578125 212.21875 C 779.085938 212.21875 774.316406 215.101562 770.175781 217.53125 L 770.355469 212.578125 L 769.457031 211.949219 C 762.527344 213.390625 760.996094 213.660156 754.246094 214.558594 L 753.707031 215.191406 C 754.425781 223.019531 754.96875 228.691406 754.96875 243.359375 C 754.96875 249.121094 754.875 254.878906 754.785156 260.640625 L 755.328125 261.179688 C 761.808594 260.910156 763.15625 260.910156 770.355469 260.910156 L 770.898438 260.371094 C 770.355469 246.511719 770.265625 243 770.175781 226.890625 C 772.066406 225.628906 774.226562 224.101562 777.105469 224.101562 C 782.058594 224.101562 782.507812 229.410156 782.777344 232.648438 C 782.957031 235.621094 783.046875 247.949219 783.046875 251.371094 C 783.046875 254.429688 782.957031 257.578125 782.957031 260.640625 L 783.496094 261.179688 C 789.4375 261 790.96875 260.910156 798.167969 260.910156 Z M 853.160156 260.460938 C 852.800781 252.359375 852.53125 246.960938 852.53125 235.171875 C 852.53125 211.410156 852.890625 201.601562 853.25 189.71875 L 852.621094 189.179688 L 837.769531 191.519531 L 837.320312 192.058594 C 837.859375 200.519531 837.949219 202.769531 837.859375 213.03125 C 831.109375 212.851562 822.648438 212.671875 815.808594 218.070312 C 809.511719 222.929688 806.898438 230.398438 806.898438 239.671875 C 806.898438 246.691406 808.789062 253.710938 814.101562 258.121094 C 818.058594 261.359375 822.921875 262.078125 825.890625 262.078125 C 832.28125 262.078125 835.609375 259.109375 837.769531 257.21875 L 837.589844 260.730469 L 838.039062 261.269531 C 844.25 261 845.960938 261 852.710938 261 L 853.160156 260.460938 M 837.859375 223.828125 C 837.949219 235.800781 837.859375 238.140625 837.589844 249.03125 C 835.789062 250.109375 833.988281 251.191406 831.46875 251.191406 C 822.738281 251.191406 822.738281 240.03125 822.738281 238.230469 C 822.738281 231.300781 824.71875 223.558594 834.800781 223.558594 C 835.789062 223.558594 836.601562 223.648438 837.859375 223.828125 Z M 858.019531 261 "/>
<path fill-rule="nonzero" fill="rgb(34.901961%, 14.901961%, 14.901961%)" fill-opacity="1" d="M 303.890625 342.300781 C 296.332031 339.148438 292.371094 337.53125 292.371094 333.480469 C 292.371094 330.691406 294.980469 327.179688 300.921875 327.179688 C 307.761719 327.179688 311.808594 329.96875 315.140625 332.21875 L 315.949219 331.859375 L 316.671875 320.070312 L 316.21875 319.441406 C 312.351562 317.820312 308.300781 316.109375 299.570312 316.109375 C 282.652344 316.109375 276.800781 325.648438 276.800781 335.28125 C 276.800781 346.171875 285.261719 350.128906 290.300781 352.558594 L 293.269531 353.910156 C 299.480469 356.519531 304.25 358.769531 304.25 363.539062 C 304.25 366.960938 301.28125 371.011719 293.449219 371.011719 C 285.261719 371.011719 280.671875 367.410156 278.058594 365.339844 L 277.160156 365.609375 L 276.53125 378.300781 L 277.070312 379.019531 C 278.058594 379.378906 279.050781 379.828125 280.039062 380.101562 C 282.109375 380.820312 287.421875 382.351562 294.171875 382.351562 C 296.871094 382.351562 303.710938 382.078125 309.109375 379.558594 C 316.671875 375.871094 319.910156 369.03125 319.910156 361.378906 C 319.910156 356.25 317.929688 350.761719 313.160156 347.070312 C 310.730469 345.269531 308.390625 344.191406 306.230469 343.199219 Z M 353.660156 370.648438 C 352.128906 371.101562 351.046875 371.460938 349.519531 371.460938 C 344.929688 371.460938 344.570312 368.578125 344.386719 367.230469 C 344.117188 364.890625 344.117188 359.941406 344.207031 356.339844 L 344.386719 343.648438 L 352.488281 344.011719 L 353.027344 343.46875 L 353.929688 333.839844 L 353.386719 333.300781 L 344.386719 333.300781 L 344.660156 318.179688 L 344.027344 317.640625 C 337.910156 319.441406 336.289062 319.890625 329.898438 321.511719 L 329.539062 322.140625 L 329.628906 333.390625 L 324.769531 333.210938 L 324.230469 333.660156 L 323.417969 343.289062 L 323.957031 343.828125 L 329.628906 343.648438 L 329.359375 357.960938 C 329.269531 360.210938 329.179688 362.460938 329.179688 364.800781 C 329.179688 373.078125 329.359375 381.988281 343.398438 381.988281 C 346.910156 381.988281 349.699219 381.449219 352.847656 380.910156 L 353.480469 380.28125 L 354.378906 371.011719 Z M 400.371094 354.179688 C 400.460938 346.078125 400.460938 342.570312 398.121094 338.789062 C 396.320312 335.910156 392.722656 332.308594 381.203125 332.308594 C 373.460938 332.308594 368.691406 333.75 363.5625 335.28125 L 363.023438 336 L 362.570312 345.808594 L 363.292969 346.171875 C 366.441406 344.910156 372.292969 342.570312 378.320312 342.570312 C 381.652344 342.570312 383 343.109375 384.171875 344.28125 C 385.070312 345.179688 385.34375 346.800781 385.34375 348.148438 C 374.542969 349.589844 369.5 350.578125 364.101562 353.910156 C 359.0625 357.058594 357.351562 362.191406 357.351562 366.238281 C 357.351562 375.871094 364.28125 382.078125 373.101562 382.078125 C 379.851562 382.078125 383.722656 378.839844 385.613281 377.308594 L 385.613281 380.640625 L 386.152344 381.269531 C 392.632812 381 394.613281 380.910156 400.460938 381 L 400.910156 380.371094 C 400.28125 371.550781 400.28125 369.300781 400.28125 360.839844 L 400.371094 354.179688 M 385.523438 368.488281 C 383.632812 369.570312 381.203125 370.828125 378.230469 370.828125 C 374.992188 370.828125 372.292969 369.121094 372.292969 365.339844 C 372.292969 359.398438 379.402344 358.410156 385.523438 357.601562 Z M 436.101562 370.648438 C 434.570312 371.101562 433.488281 371.460938 431.960938 371.460938 C 427.371094 371.460938 427.011719 368.578125 426.828125 367.230469 C 426.558594 364.890625 426.558594 359.941406 426.648438 356.339844 L 426.828125 343.648438 L 434.929688 344.011719 L 435.46875 343.46875 L 436.371094 333.839844 L 435.828125 333.300781 L 426.828125 333.300781 L 427.101562 318.179688 L 426.46875 317.640625 C 420.351562 319.441406 418.730469 319.890625 412.339844 321.511719 L 411.980469 322.140625 L 412.070312 333.390625 L 407.210938 333.210938 L 406.671875 333.660156 L 405.859375 343.289062 L 406.398438 343.828125 L 412.070312 343.648438 L 411.800781 357.960938 C 411.710938 360.210938 411.621094 362.460938 411.621094 364.800781 C 411.621094 373.078125 411.800781 381.988281 425.839844 381.988281 C 429.351562 381.988281 432.140625 381.449219 435.289062 380.910156 L 435.921875 380.28125 L 436.820312 371.011719 Z M 482.71875 367.679688 C 479.300781 369.480469 475.25 371.550781 468.679688 371.550781 C 463.28125 371.550781 459.589844 369.839844 457.429688 366.601562 C 456.078125 364.710938 455.808594 362.910156 455.449219 361.109375 L 484.519531 360.570312 L 485.058594 359.941406 C 484.96875 355.53125 484.878906 351.03125 483.621094 346.53125 C 480.46875 335.910156 473.539062 333.75 470.480469 333.03125 C 468.230469 332.398438 466.160156 332.21875 464.089844 332.21875 C 449.960938 332.21875 440.597656 341.488281 440.597656 357.058594 C 440.597656 361.289062 441.320312 365.699219 442.757812 368.851562 C 447.980469 381 460.21875 382.078125 466.699219 382.078125 C 474.167969 382.078125 477.410156 380.730469 482.179688 378.839844 L 482.71875 378.121094 L 483.347656 367.949219 L 482.71875 367.679688 M 455.449219 351.570312 C 455.71875 348.78125 456.347656 345 459.769531 342.839844 C 460.847656 342.121094 462.109375 341.851562 463.371094 341.851562 C 466.339844 341.851562 468.140625 343.378906 469.128906 345 C 470.390625 346.980469 470.480469 349.140625 470.480469 351.210938 Z M 531.679688 317.28125 L 520.25 317.460938 L 519.707031 318 C 520.070312 329.699219 520.339844 337.53125 520.339844 347.878906 C 520.339844 358.859375 520.070312 369.75 519.796875 380.730469 L 520.339844 381.269531 C 527 381 528.4375 380.910156 535.640625 381 L 536.089844 380.460938 C 535.730469 370.648438 535.730469 368.398438 535.730469 359.21875 C 545.808594 359.308594 556.609375 359.308594 563.089844 351.390625 C 565.609375 348.328125 567.769531 343.199219 567.769531 336.898438 C 567.769531 333.03125 566.867188 324.480469 559.398438 320.25 C 554 317.101562 546.347656 317.101562 539.597656 317.101562 L 531.679688 317.28125 M 535.730469 328.171875 C 537.707031 328.078125 539.597656 328.078125 541.578125 328.078125 C 549.5 328.261719 551.660156 332.308594 551.660156 337.53125 C 551.660156 338.789062 551.660156 344.011719 546.890625 346.621094 C 544.457031 347.96875 541.128906 348.148438 535.730469 348.148438 Z M 614.03125 354.179688 C 614.121094 346.078125 614.121094 342.570312 611.78125 338.789062 C 609.980469 335.910156 606.382812 332.308594 594.863281 332.308594 C 587.121094 332.308594 582.351562 333.75 577.222656 335.28125 L 576.683594 336 L 576.230469 345.808594 L 576.953125 346.171875 C 580.101562 344.910156 585.953125 342.570312 591.980469 342.570312 C 595.3125 342.570312 596.660156 343.109375 597.832031 344.28125 C 598.730469 345.179688 599.003906 346.800781 599.003906 348.148438 C 588.203125 349.589844 583.160156 350.578125 577.761719 353.910156 C 572.722656 357.058594 571.011719 362.191406 571.011719 366.238281 C 571.011719 375.871094 577.941406 382.078125 586.761719 382.078125 C 593.511719 382.078125 597.382812 378.839844 599.273438 377.308594 L 599.273438 380.640625 L 599.8125 381.269531 C 606.292969 381 608.273438 380.910156 614.121094 381 L 614.570312 380.371094 C 613.941406 371.550781 613.941406 369.300781 613.941406 360.839844 L 614.03125 354.179688 M 599.183594 368.488281 C 597.292969 369.570312 594.863281 370.828125 591.890625 370.828125 C 588.652344 370.828125 585.953125 369.121094 585.953125 365.339844 C 585.953125 359.398438 593.0625 358.410156 599.183594 357.601562 Z M 650.570312 347.609375 L 653.089844 332.941406 L 652.550781 332.308594 C 651.921875 332.308594 651.289062 332.21875 650.660156 332.21875 C 646.96875 332.21875 642.832031 334.289062 639.949219 340.949219 L 640.21875 332.671875 L 639.5 331.949219 C 632.839844 333.390625 631.128906 333.660156 624.558594 334.648438 L 624.019531 335.191406 C 624.558594 341.941406 624.832031 345.988281 624.832031 358.5 C 624.832031 365.878906 624.738281 373.261719 624.558594 380.730469 L 625.101562 381.269531 C 631.761719 381 633.199219 380.910156 640.398438 381 L 640.851562 380.371094 C 640.488281 373.078125 639.949219 362.910156 639.949219 356.699219 C 639.949219 352.648438 639.949219 346.710938 646.070312 346.710938 C 647.601562 346.710938 648.5 347.25 649.761719 347.96875 Z M 704.570312 379.828125 C 696.109375 365.519531 695.210938 363.898438 688.371094 351.570312 C 694.582031 343.109375 695.210938 342.210938 701.601562 334.019531 L 701.148438 333.121094 L 686.480469 333.300781 L 685.582031 333.929688 C 678.558594 346.078125 677.660156 347.519531 673.519531 353.730469 L 673.519531 343.738281 C 673.609375 326.910156 673.699219 323.308594 674.148438 309.71875 L 673.429688 309.179688 L 657.769531 311.519531 L 657.230469 312.148438 C 657.859375 320.878906 658.128906 325.109375 658.308594 336.898438 C 658.488281 351.480469 658.488281 366.058594 658.398438 380.640625 L 659.03125 381.269531 C 665.058594 381 666.769531 381 673.609375 381 L 674.148438 380.371094 L 673.609375 365.160156 L 673.519531 354.808594 C 681.351562 369.210938 682.339844 371.191406 686.929688 380.730469 L 687.738281 381.269531 L 703.941406 380.640625 Z M 703.492188 381 "/>
</svg>
