<?xml version="1.0" encoding="UTF-8"?>
<svg xmlns="http://www.w3.org/2000/svg" xmlns:xlink="http://www.w3.org/1999/xlink" width="975" height="1300" viewBox="0 0 975 1300">
<path fill-rule="nonzero" fill="rgb(98.823529%, 78.823529%, 9.019608%)" fill-opacity="1" d="M 50 50 L 925 50 L 925 290 L 50 290 Z M 50 50 "/>
<path fill-rule="nonzero" fill="rgb(34.901961%, 14.901961%, 14.901961%)" fill-opacity="1" d="M 110.074219 140.371094 C 113.945312 124.078125 115.292969 119.398438 127.535156 77.640625 L 127.085938 77.191406 C 120.335938 77.460938 118.535156 77.460938 113.132812 77.460938 L 112.59375 78 C 110.882812 86.820312 110.433594 89.160156 107.914062 99.148438 L 105.035156 110.941406 L 101.164062 127.589844 L 96.394531 106.351562 L 94.503906 98.25 C 92.253906 88.980469 91.625 85.921875 89.734375 77.191406 L 89.195312 76.738281 C 81.726562 77.28125 80.105469 77.371094 73.085938 77.371094 L 72.632812 77.910156 C 78.664062 98.699219 84.066406 117.78125 87.125 129.660156 C 88.023438 133.351562 88.925781 137.039062 89.824219 140.730469 L 90.363281 141.269531 C 98.195312 141 100.175781 140.910156 109.535156 141 Z M 171.632812 127.679688 C 168.214844 129.480469 164.164062 131.550781 157.59375 131.550781 C 152.195312 131.550781 148.503906 129.839844 146.34375 126.601562 C 144.992188 124.710938 144.722656 122.910156 144.363281 121.109375 L 173.433594 120.570312 L 173.972656 119.941406 C 173.882812 115.53125 173.792969 111.03125 172.535156 106.53125 C 169.382812 95.910156 162.453125 93.75 159.394531 93.03125 C 157.144531 92.398438 155.074219 92.21875 153.003906 92.21875 C 138.875 92.21875 129.511719 101.488281 129.511719 117.058594 C 129.511719 121.289062 130.234375 125.699219 131.671875 128.851562 C 136.894531 141 149.132812 142.078125 155.613281 142.078125 C 163.082031 142.078125 166.324219 140.730469 171.09375 138.839844 L 171.632812 138.121094 L 172.261719 127.949219 L 171.632812 127.679688 M 144.363281 111.570312 C 144.632812 108.78125 145.261719 105 148.683594 102.839844 C 149.761719 102.121094 151.023438 101.851562 152.285156 101.851562 C 155.253906 101.851562 157.054688 103.378906 158.042969 105 C 159.304688 106.980469 159.394531 109.140625 159.394531 111.210938 Z M 208.265625 107.609375 L 210.785156 92.941406 L 210.246094 92.308594 C 209.617188 92.308594 208.984375 92.21875 208.355469 92.21875 C 204.664062 92.21875 200.527344 94.289062 197.644531 100.949219 L 197.914062 92.671875 L 197.195312 91.949219 C 190.535156 93.390625 188.824219 93.660156 182.253906 94.648438 L 181.714844 95.191406 C 182.253906 101.941406 182.527344 105.988281 182.527344 118.5 C 182.527344 125.878906 182.433594 133.261719 182.253906 140.730469 L 182.796875 141.269531 C 189.457031 141 190.894531 140.910156 198.09375 141 L 198.546875 140.371094 C 198.183594 133.078125 197.644531 122.910156 197.644531 116.699219 C 197.644531 112.648438 197.644531 106.710938 203.765625 106.710938 C 205.296875 106.710938 206.195312 107.25 207.457031 107.96875 Z M 260.105469 140.460938 C 259.746094 132.359375 259.476562 126.960938 259.476562 115.171875 C 259.476562 91.410156 259.835938 81.601562 260.195312 69.71875 L 259.566406 69.179688 L 244.714844 71.519531 L 244.265625 72.058594 C 244.804688 80.519531 244.894531 82.769531 244.804688 93.03125 C 238.054688 92.851562 229.59375 92.671875 222.753906 98.070312 C 216.457031 102.929688 213.84375 110.398438 213.84375 119.671875 C 213.84375 126.691406 215.734375 133.710938 221.046875 138.121094 C 225.003906 141.359375 229.867188 142.078125 232.835938 142.078125 C 239.226562 142.078125 242.554688 139.109375 244.714844 137.21875 L 244.535156 140.730469 L 244.984375 141.269531 C 251.195312 141 252.90625 141 259.65625 141 L 260.105469 140.460938 M 244.804688 103.828125 C 244.894531 115.800781 244.804688 118.140625 244.535156 129.03125 C 242.734375 130.109375 240.933594 131.191406 238.414062 131.191406 C 229.683594 131.191406 229.683594 120.03125 229.683594 118.230469 C 229.683594 111.300781 231.664062 103.558594 241.746094 103.558594 C 242.734375 103.558594 243.546875 103.648438 244.804688 103.828125 Z M 313.566406 92.851562 L 298.894531 93.570312 L 298.265625 94.109375 C 298.894531 104.28125 298.894531 118.679688 298.894531 120.121094 C 298.894531 122.730469 298.894531 124.171875 298.804688 127.769531 C 296.375 129.390625 294.484375 130.738281 292.054688 130.738281 C 285.574219 130.738281 285.574219 123.898438 285.574219 118.589844 C 285.574219 116.339844 285.574219 114 285.664062 111.75 L 285.84375 93.570312 L 285.214844 92.851562 L 270.363281 93.570312 L 269.734375 94.109375 C 270.273438 101.671875 270.363281 104.191406 270.363281 113.28125 L 270.363281 119.578125 C 270.273438 129.390625 270.726562 133.53125 273.964844 137.308594 C 276.933594 140.640625 281.253906 142.078125 285.753906 142.078125 C 292.144531 142.078125 295.835938 139.199219 299.074219 136.679688 L 298.984375 140.730469 L 299.613281 141.269531 C 306.183594 141 308.164062 141 314.015625 141 L 314.554688 140.460938 C 314.105469 134.070312 313.925781 130.648438 313.925781 118.949219 C 313.925781 110.488281 314.015625 102.03125 314.195312 93.570312 Z M 341.285156 125.789062 C 344.164062 125.878906 347.042969 126.058594 351.363281 124.621094 C 356.042969 123 362.882812 119.128906 362.882812 110.398438 C 362.882812 106.078125 361.625 104.28125 360.453125 102.570312 L 366.664062 102.929688 L 367.203125 102.480469 L 367.835938 93.480469 L 367.292969 93.03125 C 360.363281 93.300781 358.472656 93.390625 352.804688 93.300781 L 348.664062 93.210938 C 342.273438 93.03125 333.722656 92.851562 327.875 97.710938 C 325.894531 99.238281 322.113281 103.109375 322.113281 109.859375 C 322.113281 113.460938 323.105469 116.339844 324.722656 118.589844 C 326.703125 121.378906 328.503906 122.371094 330.753906 123.628906 C 328.234375 128.488281 326.882812 130.921875 324.8125 134.609375 L 324.8125 135.421875 L 328.59375 138.121094 C 325.894531 140.191406 321.664062 143.609375 321.664062 149.460938 C 321.664062 153.601562 323.914062 157.199219 327.246094 159.628906 C 332.285156 163.230469 339.125 163.410156 342.632812 163.410156 C 359.105469 163.410156 366.664062 155.128906 366.664062 146.398438 C 366.664062 135.058594 356.765625 132.898438 350.914062 131.550781 L 348.753906 131.191406 C 344.34375 130.46875 343.355469 130.199219 339.84375 128.941406 L 341.285156 125.789062 M 348.664062 109.589844 C 348.574219 116.878906 344.164062 117.511719 342.902344 117.511719 C 342.183594 117.511719 339.035156 117.328125 337.503906 113.730469 C 336.695312 111.839844 336.695312 109.679688 336.695312 109.050781 C 336.695312 104.550781 339.394531 101.671875 342.722656 101.671875 C 346.863281 101.671875 348.753906 105.628906 348.664062 109.589844 M 341.015625 143.160156 C 349.023438 145.230469 349.113281 145.230469 350.195312 146.128906 C 351.09375 146.761719 351.996094 147.75 351.996094 149.640625 C 351.996094 152.339844 349.746094 155.128906 343.804688 155.128906 C 337.144531 155.128906 334.894531 151.351562 334.894531 148.199219 C 334.894531 145.230469 336.425781 143.519531 337.503906 142.261719 Z M 419.316406 117.058594 C 419.316406 113.550781 419.316406 98.96875 406.714844 94.019531 C 402.753906 92.488281 398.074219 92.308594 395.734375 92.308594 C 380.074219 92.308594 371.253906 100.679688 371.253906 117.238281 C 371.253906 123 372.15625 128.851562 375.484375 133.710938 C 377.824219 137.21875 382.234375 142.078125 395.105469 142.078125 C 414.183594 142.078125 419.316406 130.558594 419.316406 117.058594 M 403.746094 116.96875 C 403.746094 124.351562 402.753906 132.539062 395.285156 132.539062 C 392.945312 132.539062 391.324219 131.460938 390.246094 130.46875 C 388.714844 128.941406 387.003906 125.878906 387.003906 117.148438 C 387.003906 114.539062 387.003906 108.78125 388.804688 105.628906 C 390.15625 103.199219 392.496094 101.578125 395.375 101.578125 C 397.894531 101.578125 399.964844 102.929688 401.136719 104.371094 C 403.296875 106.980469 403.746094 112.109375 403.746094 116.96875 Z M 523.175781 77.191406 C 513.816406 77.460938 512.285156 77.460938 502.296875 77.460938 L 501.757812 78 L 497.617188 92.578125 L 494.015625 105.628906 L 489.785156 121.289062 L 485.824219 105.179688 L 483.304688 95.011719 L 478.804688 77.730469 L 478.355469 77.191406 C 468.726562 77.460938 467.105469 77.460938 457.027344 77.460938 L 456.484375 78 C 455.585938 104.910156 455.226562 111.839844 453.246094 140.730469 L 453.695312 141.269531 C 459.457031 141 461.167969 140.910156 466.386719 141 L 466.925781 140.460938 L 467.195312 123.269531 L 467.734375 105.808594 L 468.097656 88.800781 L 472.054688 104.730469 L 475.476562 117.511719 L 481.507812 140.730469 L 482.046875 141.269531 C 487.625 141 489.15625 140.910156 495.457031 141 L 495.996094 140.460938 L 501.214844 121.289062 L 504.816406 108.148438 L 509.855469 89.25 L 509.855469 105.359375 L 510.035156 119.128906 L 510.035156 140.730469 L 510.484375 141.269531 C 516.695312 141 519.125 140.910156 526.054688 141 L 526.507812 140.460938 C 525.964844 130.199219 525.335938 119.851562 524.976562 109.5 C 524.707031 103.828125 524.527344 98.160156 524.257812 92.488281 C 523.804688 84.121094 523.714844 83.039062 523.714844 77.730469 Z M 582.484375 117.058594 C 582.484375 113.550781 582.484375 98.96875 569.882812 94.019531 C 565.921875 92.488281 561.242188 92.308594 558.902344 92.308594 C 543.242188 92.308594 534.421875 100.679688 534.421875 117.238281 C 534.421875 123 535.324219 128.851562 538.652344 133.710938 C 540.992188 137.21875 545.402344 142.078125 558.273438 142.078125 C 577.351562 142.078125 582.484375 130.558594 582.484375 117.058594 M 566.914062 116.96875 C 566.914062 124.351562 565.921875 132.539062 558.453125 132.539062 C 556.113281 132.539062 554.492188 131.460938 553.414062 130.46875 C 551.882812 128.941406 550.171875 125.878906 550.171875 117.148438 C 550.171875 114.539062 550.171875 108.78125 551.972656 105.628906 C 553.324219 103.199219 555.664062 101.578125 558.542969 101.578125 C 561.0625 101.578125 563.132812 102.929688 564.304688 104.371094 C 566.464844 106.980469 566.914062 112.109375 566.914062 116.96875 Z M 634.234375 92.851562 L 619.5625 93.570312 L 618.933594 94.109375 C 619.5625 104.28125 619.5625 118.679688 619.5625 120.121094 C 619.5625 122.730469 619.5625 124.171875 619.472656 127.769531 C 617.042969 129.390625 615.152344 130.738281 612.722656 130.738281 C 606.242188 130.738281 606.242188 123.898438 606.242188 118.589844 C 606.242188 116.339844 606.242188 114 606.332031 111.75 L 606.511719 93.570312 L 605.882812 92.851562 L 591.03125 93.570312 L 590.402344 94.109375 C 590.941406 101.671875 591.03125 104.191406 591.03125 113.28125 L 591.03125 119.578125 C 590.941406 129.390625 591.394531 133.53125 594.632812 137.308594 C 597.601562 140.640625 601.921875 142.078125 606.421875 142.078125 C 612.8125 142.078125 616.503906 139.199219 619.742188 136.679688 L 619.652344 140.730469 L 620.28125 141.269531 C 626.851562 141 628.832031 141 634.683594 141 L 635.222656 140.460938 C 634.773438 134.070312 634.59375 130.648438 634.59375 118.949219 C 634.59375 110.488281 634.683594 102.03125 634.863281 93.570312 Z M 689.496094 140.371094 C 689.046875 132.449219 689.046875 129.929688 688.867188 121.109375 L 688.867188 114.089844 C 688.777344 105.449219 688.6875 101.308594 686.4375 97.621094 C 683.644531 92.941406 678.515625 92.21875 675.277344 92.21875 C 669.785156 92.21875 665.015625 95.101562 660.875 97.53125 L 661.054688 92.578125 L 660.15625 91.949219 C 653.226562 93.390625 651.695312 93.660156 644.945312 94.558594 L 644.40625 95.191406 C 645.125 103.019531 645.667969 108.691406 645.667969 123.359375 C 645.667969 129.121094 645.574219 134.878906 645.484375 140.640625 L 646.027344 141.179688 C 652.507812 140.910156 653.855469 140.910156 661.054688 140.910156 L 661.597656 140.371094 C 661.054688 126.511719 660.964844 123 660.875 106.890625 C 662.765625 105.628906 664.925781 104.101562 667.804688 104.101562 C 672.757812 104.101562 673.207031 109.410156 673.476562 112.648438 C 673.65625 115.621094 673.746094 127.949219 673.746094 131.371094 C 673.746094 134.429688 673.65625 137.578125 673.65625 140.640625 L 674.195312 141.179688 C 680.136719 141 681.667969 140.910156 688.867188 140.910156 Z M 724.957031 130.648438 C 723.425781 131.101562 722.34375 131.460938 720.816406 131.460938 C 716.226562 131.460938 715.867188 128.578125 715.683594 127.230469 C 715.414062 124.890625 715.414062 119.941406 715.503906 116.339844 L 715.683594 103.648438 L 723.785156 104.011719 L 724.324219 103.46875 L 725.226562 93.839844 L 724.683594 93.300781 L 715.683594 93.300781 L 715.957031 78.179688 L 715.324219 77.640625 C 709.207031 79.441406 707.585938 79.890625 701.195312 81.511719 L 700.835938 82.140625 L 700.925781 93.390625 L 696.066406 93.210938 L 695.527344 93.660156 L 694.714844 103.289062 L 695.253906 103.828125 L 700.925781 103.648438 L 700.65625 117.960938 C 700.566406 120.210938 700.476562 122.460938 700.476562 124.800781 C 700.476562 133.078125 700.65625 141.988281 714.695312 141.988281 C 718.207031 141.988281 720.996094 141.449219 724.144531 140.910156 L 724.777344 140.28125 L 725.675781 131.011719 Z M 771.664062 114.179688 C 771.753906 106.078125 771.753906 102.570312 769.414062 98.789062 C 767.613281 95.910156 764.015625 92.308594 752.496094 92.308594 C 744.753906 92.308594 739.984375 93.75 734.855469 95.28125 L 734.316406 96 L 733.863281 105.808594 L 734.585938 106.171875 C 737.734375 104.910156 743.585938 102.570312 749.613281 102.570312 C 752.945312 102.570312 754.292969 103.109375 755.464844 104.28125 C 756.363281 105.179688 756.636719 106.800781 756.636719 108.148438 C 745.835938 109.589844 740.792969 110.578125 735.394531 113.910156 C 730.355469 117.058594 728.644531 122.191406 728.644531 126.238281 C 728.644531 135.871094 735.574219 142.078125 744.394531 142.078125 C 751.144531 142.078125 755.015625 138.839844 756.90625 137.308594 L 756.90625 140.640625 L 757.445312 141.269531 C 763.925781 141 765.90625 140.910156 771.753906 141 L 772.203125 140.371094 C 771.574219 131.550781 771.574219 129.300781 771.574219 120.839844 L 771.664062 114.179688 M 756.816406 128.488281 C 754.925781 129.570312 752.496094 130.828125 749.523438 130.828125 C 746.285156 130.828125 743.585938 129.121094 743.585938 125.339844 C 743.585938 119.398438 750.695312 118.410156 756.816406 117.601562 Z M 798.484375 140.371094 C 798.03125 133.441406 797.671875 128.128906 797.671875 115.710938 C 797.671875 108.058594 797.851562 100.320312 797.941406 92.671875 L 797.3125 91.949219 L 781.832031 94.648438 L 781.292969 95.191406 C 782.011719 102.03125 782.28125 105.179688 782.28125 117.960938 C 782.28125 127.769531 782.011719 133.261719 781.742188 140.640625 L 782.28125 141.269531 C 788.761719 141 790.5625 140.910156 797.851562 141 L 798.484375 140.371094 M 797.042969 83.308594 L 797.3125 71.070312 L 796.773438 70.53125 L 782.101562 72.328125 L 781.5625 72.960938 C 781.742188 76.199219 781.832031 78.089844 781.832031 80.25 C 781.832031 81.960938 781.832031 83.761719 781.742188 85.46875 L 782.371094 86.011719 C 788.492188 84.929688 790.203125 84.75 796.59375 83.941406 Z M 852.574219 140.371094 C 852.125 132.449219 852.125 129.929688 851.945312 121.109375 L 851.945312 114.089844 C 851.855469 105.449219 851.765625 101.308594 849.515625 97.621094 C 846.722656 92.941406 841.59375 92.21875 838.355469 92.21875 C 832.863281 92.21875 828.09375 95.101562 823.953125 97.53125 L 824.132812 92.578125 L 823.234375 91.949219 C 816.304688 93.390625 814.773438 93.660156 808.023438 94.558594 L 807.484375 95.191406 C 808.203125 103.019531 808.746094 108.691406 808.746094 123.359375 C 808.746094 129.121094 808.652344 134.878906 808.5625 140.640625 L 809.105469 141.179688 C 815.585938 140.910156 816.933594 140.910156 824.132812 140.910156 L 824.675781 140.371094 C 824.132812 126.511719 824.042969 123 823.953125 106.890625 C 825.84375 105.628906 828.003906 104.101562 830.882812 104.101562 C 835.835938 104.101562 836.285156 109.410156 836.554688 112.648438 C 836.734375 115.621094 836.824219 127.949219 836.824219 131.371094 C 836.824219 134.429688 836.734375 137.578125 836.734375 140.640625 L 837.273438 141.179688 C 843.214844 141 844.746094 140.910156 851.945312 140.910156 Z M 881.734375 109.949219 C 878.671875 108.871094 876.242188 107.878906 876.242188 105.359375 C 876.242188 104.28125 876.964844 101.308594 882.542969 101.308594 C 888.035156 101.308594 891.542969 103.648438 893.792969 105.089844 L 894.605469 104.820312 L 895.503906 95.011719 L 895.054688 94.46875 C 890.824219 93.300781 887.132812 92.21875 881.285156 92.21875 C 876.875 92.21875 868.054688 92.578125 863.375 99.328125 C 862.203125 100.949219 860.945312 103.648438 860.945312 107.25 C 860.945312 116.878906 868.414062 119.761719 872.644531 121.378906 L 876.0625 122.640625 C 878.492188 123.449219 882.453125 124.800781 882.453125 128.039062 C 882.453125 130.289062 880.382812 132.71875 875.34375 132.71875 C 872.824219 132.71875 869.132812 131.910156 865.804688 130.199219 C 864.273438 129.390625 863.554688 128.761719 862.203125 127.679688 L 861.394531 128.039062 C 861.214844 132.71875 861.125 133.710938 860.761719 138.210938 L 861.214844 139.019531 C 865.625 140.640625 869.402344 142.078125 875.972656 142.078125 C 882.8125 142.078125 896.3125 140.820312 897.933594 127.949219 C 898.023438 127.230469 898.023438 126.601562 898.023438 125.96875 C 898.023438 116.070312 891.09375 113.460938 886.144531 111.570312 Z M 900.542969 141 "/>
<path fill-rule="nonzero" fill="rgb(34.901961%, 14.901961%, 14.901961%)" fill-opacity="1" d="M 219.425781 197.28125 L 207.996094 197.460938 L 207.453125 198 C 207.816406 209.699219 208.085938 217.53125 208.085938 227.878906 C 208.085938 238.859375 207.816406 249.75 207.542969 260.730469 L 208.085938 261.269531 C 214.746094 261 216.183594 260.910156 223.386719 261 L 223.835938 260.460938 C 223.476562 250.648438 223.476562 248.398438 223.476562 239.21875 C 233.554688 239.308594 244.355469 239.308594 250.835938 231.390625 C 253.355469 228.328125 255.515625 223.199219 255.515625 216.898438 C 255.515625 213.03125 254.613281 204.480469 247.144531 200.25 C 241.746094 197.101562 234.09375 197.101562 227.34375 197.101562 L 219.425781 197.28125 M 223.476562 208.171875 C 225.453125 208.078125 227.34375 208.078125 229.324219 208.078125 C 237.246094 208.261719 239.40625 212.308594 239.40625 217.53125 C 239.40625 218.789062 239.40625 224.011719 234.636719 226.621094 C 232.203125 227.96875 228.875 228.148438 223.476562 228.148438 Z M 301.773438 234.179688 C 301.863281 226.078125 301.863281 222.570312 299.523438 218.789062 C 297.722656 215.910156 294.125 212.308594 282.605469 212.308594 C 274.863281 212.308594 270.09375 213.75 264.964844 215.28125 L 264.425781 216 L 263.972656 225.808594 L 264.695312 226.171875 C 267.84375 224.910156 273.695312 222.570312 279.722656 222.570312 C 283.054688 222.570312 284.402344 223.109375 285.574219 224.28125 C 286.472656 225.179688 286.746094 226.800781 286.746094 228.148438 C 275.945312 229.589844 270.902344 230.578125 265.503906 233.910156 C 260.464844 237.058594 258.753906 242.191406 258.753906 246.238281 C 258.753906 255.871094 265.683594 262.078125 274.503906 262.078125 C 281.253906 262.078125 285.125 258.839844 287.015625 257.308594 L 287.015625 260.640625 L 287.554688 261.269531 C 294.035156 261 296.015625 260.910156 301.863281 261 L 302.3125 260.371094 C 301.683594 251.550781 301.683594 249.300781 301.683594 240.839844 L 301.773438 234.179688 M 286.925781 248.488281 C 285.035156 249.570312 282.605469 250.828125 279.632812 250.828125 C 276.394531 250.828125 273.695312 249.121094 273.695312 245.339844 C 273.695312 239.398438 280.804688 238.410156 286.925781 237.601562 Z M 338.316406 227.609375 L 340.835938 212.941406 L 340.296875 212.308594 C 339.667969 212.308594 339.035156 212.21875 338.40625 212.21875 C 334.714844 212.21875 330.578125 214.289062 327.695312 220.949219 L 327.964844 212.671875 L 327.246094 211.949219 C 320.585938 213.390625 318.875 213.660156 312.304688 214.648438 L 311.765625 215.191406 C 312.304688 221.941406 312.578125 225.988281 312.578125 238.5 C 312.578125 245.878906 312.484375 253.261719 312.304688 260.730469 L 312.847656 261.269531 C 319.507812 261 320.945312 260.910156 328.144531 261 L 328.597656 260.371094 C 328.234375 253.078125 327.695312 242.910156 327.695312 236.699219 C 327.695312 232.648438 327.695312 226.710938 333.816406 226.710938 C 335.347656 226.710938 336.246094 227.25 337.507812 227.96875 Z M 392.316406 259.828125 C 383.855469 245.519531 382.957031 243.898438 376.117188 231.570312 C 382.328125 223.109375 382.957031 222.210938 389.347656 214.019531 L 388.894531 213.121094 L 374.226562 213.300781 L 373.328125 213.929688 C 366.304688 226.078125 365.40625 227.519531 361.265625 233.730469 L 361.265625 223.738281 C 361.355469 206.910156 361.445312 203.308594 361.894531 189.71875 L 361.175781 189.179688 L 345.515625 191.519531 L 344.976562 192.148438 C 345.605469 200.878906 345.875 205.109375 346.054688 216.898438 C 346.234375 231.480469 346.234375 246.058594 346.144531 260.640625 L 346.777344 261.269531 C 352.804688 261 354.515625 261 361.355469 261 L 361.894531 260.371094 L 361.355469 245.160156 L 361.265625 234.808594 C 369.097656 249.210938 370.085938 251.191406 374.675781 260.730469 L 375.484375 261.269531 L 391.6875 260.640625 Z M 434.976562 197.28125 L 423.546875 197.460938 L 423.003906 198 C 423.367188 209.699219 423.636719 217.53125 423.636719 227.878906 C 423.636719 238.859375 423.367188 249.75 423.09375 260.730469 L 423.636719 261.269531 C 430.296875 261 431.734375 260.910156 438.9375 261 L 439.386719 260.460938 C 439.027344 250.648438 439.027344 248.398438 439.027344 239.21875 C 449.105469 239.308594 459.90625 239.308594 466.386719 231.390625 C 468.90625 228.328125 471.066406 223.199219 471.066406 216.898438 C 471.066406 213.03125 470.164062 204.480469 462.695312 200.25 C 457.296875 197.101562 449.644531 197.101562 442.894531 197.101562 L 434.976562 197.28125 M 439.027344 208.171875 C 441.003906 208.078125 442.894531 208.078125 444.875 208.078125 C 452.796875 208.261719 454.957031 212.308594 454.957031 217.53125 C 454.957031 218.789062 454.957031 224.011719 450.1875 226.621094 C 447.753906 227.96875 444.425781 228.148438 439.027344 228.148438 Z M 503.285156 227.609375 L 505.804688 212.941406 L 505.265625 212.308594 C 504.636719 212.308594 504.003906 212.21875 503.375 212.21875 C 499.683594 212.21875 495.546875 214.289062 492.664062 220.949219 L 492.933594 212.671875 L 492.214844 211.949219 C 485.554688 213.390625 483.84375 213.660156 477.273438 214.648438 L 476.734375 215.191406 C 477.273438 221.941406 477.546875 225.988281 477.546875 238.5 C 477.546875 245.878906 477.453125 253.261719 477.273438 260.730469 L 477.816406 261.269531 C 484.476562 261 485.914062 260.910156 493.113281 261 L 493.566406 260.371094 C 493.203125 253.078125 492.664062 242.910156 492.664062 236.699219 C 492.664062 232.648438 492.664062 226.710938 498.785156 226.710938 C 500.316406 226.710938 501.214844 227.25 502.476562 227.96875 Z M 556.835938 237.058594 C 556.835938 233.550781 556.835938 218.96875 544.234375 214.019531 C 540.273438 212.488281 535.59375 212.308594 533.253906 212.308594 C 517.59375 212.308594 508.773438 220.679688 508.773438 237.238281 C 508.773438 243 509.675781 248.851562 513.003906 253.710938 C 515.34375 257.21875 519.753906 262.078125 532.625 262.078125 C 551.703125 262.078125 556.835938 250.558594 556.835938 237.058594 M 541.265625 236.96875 C 541.265625 244.351562 540.273438 252.539062 532.804688 252.539062 C 530.464844 252.539062 528.84375 251.460938 527.765625 250.46875 C 526.234375 248.941406 524.523438 245.878906 524.523438 237.148438 C 524.523438 234.539062 524.523438 228.78125 526.324219 225.628906 C 527.675781 223.199219 530.015625 221.578125 532.894531 221.578125 C 535.414062 221.578125 537.484375 222.929688 538.65625 224.371094 C 540.816406 226.980469 541.265625 232.109375 541.265625 236.96875 Z M 580.324219 212.851562 L 579.605469 212.039062 C 573.035156 213.480469 571.144531 213.839844 564.664062 214.648438 L 564.125 215.28125 C 565.113281 225.988281 565.472656 230.128906 565.472656 256.050781 C 565.472656 266.761719 565.292969 272.878906 565.023438 283.050781 L 565.5625 283.5 C 571.953125 283.230469 573.84375 283.140625 580.683594 283.230469 L 581.222656 282.78125 L 580.59375 261.359375 C 587.164062 261.269531 596.253906 261.179688 603.542969 254.339844 C 609.304688 248.941406 611.195312 241.289062 611.195312 235.171875 C 611.195312 220.859375 602.464844 212.21875 592.382812 212.21875 C 586.175781 212.21875 582.664062 214.738281 580.144531 216.449219 L 580.324219 212.851562 M 580.503906 225.089844 C 582.484375 223.921875 583.65625 223.289062 585.90625 223.289062 C 587.253906 223.289062 589.953125 223.46875 592.203125 225.988281 C 594.996094 229.050781 595.445312 233.640625 595.445312 236.699219 C 595.445312 241.921875 593.734375 246.601562 590.132812 249.121094 C 587.253906 251.101562 583.65625 251.28125 580.503906 251.371094 Z M 659.703125 247.679688 C 656.285156 249.480469 652.234375 251.550781 645.664062 251.550781 C 640.265625 251.550781 636.574219 249.839844 634.414062 246.601562 C 633.0625 244.710938 632.792969 242.910156 632.433594 241.109375 L 661.503906 240.570312 L 662.042969 239.941406 C 661.953125 235.53125 661.863281 231.03125 660.605469 226.53125 C 657.453125 215.910156 650.523438 213.75 647.464844 213.03125 C 645.214844 212.398438 643.144531 212.21875 641.074219 212.21875 C 626.945312 212.21875 617.582031 221.488281 617.582031 237.058594 C 617.582031 241.289062 618.304688 245.699219 619.742188 248.851562 C 624.964844 261 637.203125 262.078125 643.683594 262.078125 C 651.152344 262.078125 654.394531 260.730469 659.164062 258.839844 L 659.703125 258.121094 L 660.332031 247.949219 L 659.703125 247.679688 M 632.433594 231.570312 C 632.703125 228.78125 633.332031 225 636.753906 222.839844 C 637.832031 222.121094 639.09375 221.851562 640.355469 221.851562 C 643.324219 221.851562 645.125 223.378906 646.113281 225 C 647.375 226.980469 647.464844 229.140625 647.464844 231.210938 Z M 696.335938 227.609375 L 698.855469 212.941406 L 698.316406 212.308594 C 697.6875 212.308594 697.054688 212.21875 696.425781 212.21875 C 692.734375 212.21875 688.597656 214.289062 685.714844 220.949219 L 685.984375 212.671875 L 685.265625 211.949219 C 678.605469 213.390625 676.894531 213.660156 670.324219 214.648438 L 669.785156 215.191406 C 670.324219 221.941406 670.597656 225.988281 670.597656 238.5 C 670.597656 245.878906 670.503906 253.261719 670.324219 260.730469 L 670.867188 261.269531 C 677.527344 261 678.964844 260.910156 686.164062 261 L 686.617188 260.371094 C 686.253906 253.078125 685.714844 242.910156 685.714844 236.699219 C 685.714844 232.648438 685.714844 226.710938 691.835938 226.710938 C 693.367188 226.710938 694.265625 227.25 695.527344 227.96875 Z M 729.277344 250.648438 C 727.746094 251.101562 726.664062 251.460938 725.136719 251.460938 C 720.546875 251.460938 720.1875 248.578125 720.003906 247.230469 C 719.734375 244.890625 719.734375 239.941406 719.824219 236.339844 L 720.003906 223.648438 L 728.105469 224.011719 L 728.644531 223.46875 L 729.546875 213.839844 L 729.003906 213.300781 L 720.003906 213.300781 L 720.277344 198.179688 L 719.644531 197.640625 C 713.527344 199.441406 711.90625 199.890625 705.515625 201.511719 L 705.15625 202.140625 L 705.246094 213.390625 L 700.386719 213.210938 L 699.847656 213.660156 L 699.035156 223.289062 L 699.574219 223.828125 L 705.246094 223.648438 L 704.976562 237.960938 C 704.886719 240.210938 704.796875 242.460938 704.796875 244.800781 C 704.796875 253.078125 704.976562 261.988281 719.015625 261.988281 C 722.527344 261.988281 725.316406 261.449219 728.464844 260.910156 L 729.097656 260.28125 L 729.996094 251.011719 Z M 776.164062 213.03125 L 763.65625 213.300781 L 762.933594 213.929688 C 761.40625 220.140625 761.046875 221.488281 758.886719 228.511719 L 756.546875 236.25 L 754.566406 243 L 752.855469 236.609375 L 750.246094 227.070312 L 746.644531 213.390625 L 745.925781 212.851562 C 738.90625 213.390625 737.375 213.480469 729.996094 213.660156 L 729.546875 214.289062 C 732.785156 222.839844 741.15625 245.429688 746.734375 262.710938 C 743.046875 272.070312 742.324219 273.691406 738.273438 282.601562 L 738.726562 283.320312 C 740.976562 283.230469 743.496094 283.140625 745.835938 283.140625 C 748.085938 283.140625 750.425781 283.230469 752.675781 283.230469 L 753.304688 282.691406 C 758.253906 263.25 760.683594 255.691406 772.566406 224.371094 C 773.914062 220.769531 775.265625 217.261719 776.523438 213.75 Z M 775.535156 261 "/>
</svg>
