<?xml version="1.0" encoding="UTF-8"?>
<svg xmlns="http://www.w3.org/2000/svg" xmlns:xlink="http://www.w3.org/1999/xlink" width="975" height="1300" viewBox="0 0 975 1300">
<path fill-rule="nonzero" fill="rgb(98.823529%, 78.823529%, 9.019608%)" fill-opacity="1" d="M 50 50 L 925 50 L 925 290 L 50 290 Z M 50 50 "/>
<path fill-rule="nonzero" fill="rgb(34.901961%, 14.901961%, 14.901961%)" fill-opacity="1" d="M 148.324219 141 C 156.695312 141.179688 167.042969 141.359375 173.792969 136.679688 C 179.734375 132.449219 181.355469 126.511719 181.355469 121.46875 C 181.355469 115.710938 178.921875 110.398438 173.792969 107.878906 C 172.082031 106.980469 170.105469 106.621094 168.214844 106.261719 C 171.273438 105 174.875 103.378906 177.214844 98.609375 C 178.203125 96.539062 178.652344 94.378906 178.652344 92.308594 C 178.652344 89.429688 177.933594 85.46875 175.054688 82.230469 C 171.273438 78.179688 165.421875 77.101562 156.605469 77.101562 C 153.542969 77.101562 148.054688 77.191406 144.992188 77.28125 L 132.394531 77.460938 L 131.855469 78 C 132.214844 86.640625 132.304688 89.96875 132.304688 102.390625 C 132.304688 115.171875 132.214844 127.859375 132.035156 140.640625 L 132.664062 141 L 148.324219 141 M 147.695312 113.640625 C 154.535156 113.460938 158.492188 113.460938 161.105469 114.988281 C 163.714844 116.609375 164.703125 119.488281 164.703125 122.371094 C 164.703125 126.421875 162.453125 128.941406 159.125 130.109375 C 156.421875 131.011719 151.5625 131.011719 147.695312 130.921875 L 147.695312 113.640625 M 147.695312 87.179688 C 149.582031 87.179688 152.105469 87.089844 153.632812 87.089844 C 158.492188 87.089844 162.902344 88.800781 162.902344 94.648438 C 162.902344 99.421875 159.394531 101.398438 158.3125 101.941406 C 156.0625 102.929688 151.292969 102.929688 147.695312 102.929688 Z M 235.535156 117.058594 C 235.535156 113.550781 235.535156 98.96875 222.933594 94.019531 C 218.972656 92.488281 214.292969 92.308594 211.953125 92.308594 C 196.292969 92.308594 187.472656 100.679688 187.472656 117.238281 C 187.472656 123 188.375 128.851562 191.703125 133.710938 C 194.042969 137.21875 198.453125 142.078125 211.324219 142.078125 C 230.402344 142.078125 235.535156 130.558594 235.535156 117.058594 M 219.964844 116.96875 C 219.964844 124.351562 218.972656 132.539062 211.503906 132.539062 C 209.164062 132.539062 207.542969 131.460938 206.464844 130.46875 C 204.933594 128.941406 203.222656 125.878906 203.222656 117.148438 C 203.222656 114.539062 203.222656 108.78125 205.023438 105.628906 C 206.375 103.199219 208.714844 101.578125 211.59375 101.578125 C 214.113281 101.578125 216.183594 102.929688 217.355469 104.371094 C 219.515625 106.980469 219.964844 112.109375 219.964844 116.96875 Z M 259.921875 140.371094 C 259.472656 130.019531 259.023438 120.570312 259.023438 92.128906 C 259.023438 83.578125 259.113281 79.53125 259.472656 69.808594 L 258.84375 69.179688 L 243.453125 71.609375 L 243.09375 72.148438 C 243.992188 83.128906 244.082031 86.101562 244.261719 100.679688 C 244.355469 105.988281 244.355469 111.300781 244.355469 116.609375 C 244.355469 126.328125 244.171875 131.730469 243.8125 140.640625 L 244.355469 141.269531 C 250.382812 141 252.8125 140.910156 259.382812 141 Z M 289.265625 109.949219 C 286.203125 108.871094 283.773438 107.878906 283.773438 105.359375 C 283.773438 104.28125 284.496094 101.308594 290.074219 101.308594 C 295.566406 101.308594 299.074219 103.648438 301.324219 105.089844 L 302.136719 104.820312 L 303.035156 95.011719 L 302.585938 94.46875 C 298.355469 93.300781 294.664062 92.21875 288.816406 92.21875 C 284.40625 92.21875 275.585938 92.578125 270.90625 99.328125 C 269.734375 100.949219 268.476562 103.648438 268.476562 107.25 C 268.476562 116.878906 275.945312 119.761719 280.175781 121.378906 L 283.59375 122.640625 C 286.023438 123.449219 289.984375 124.800781 289.984375 128.039062 C 289.984375 130.289062 287.914062 132.71875 282.875 132.71875 C 280.355469 132.71875 276.664062 131.910156 273.335938 130.199219 C 271.804688 129.390625 271.085938 128.761719 269.734375 127.679688 L 268.925781 128.039062 C 268.746094 132.71875 268.65625 133.710938 268.292969 138.210938 L 268.746094 139.019531 C 273.15625 140.640625 276.933594 142.078125 283.503906 142.078125 C 290.34375 142.078125 303.84375 140.820312 305.464844 127.949219 C 305.554688 127.230469 305.554688 126.601562 305.554688 125.96875 C 305.554688 116.070312 298.625 113.460938 293.675781 111.570312 Z M 353.523438 114.179688 C 353.613281 106.078125 353.613281 102.570312 351.273438 98.789062 C 349.472656 95.910156 345.875 92.308594 334.355469 92.308594 C 326.613281 92.308594 321.84375 93.75 316.714844 95.28125 L 316.175781 96 L 315.722656 105.808594 L 316.445312 106.171875 C 319.59375 104.910156 325.445312 102.570312 331.472656 102.570312 C 334.804688 102.570312 336.152344 103.109375 337.324219 104.28125 C 338.222656 105.179688 338.496094 106.800781 338.496094 108.148438 C 327.695312 109.589844 322.652344 110.578125 317.253906 113.910156 C 312.214844 117.058594 310.503906 122.191406 310.503906 126.238281 C 310.503906 135.871094 317.433594 142.078125 326.253906 142.078125 C 333.003906 142.078125 336.875 138.839844 338.765625 137.308594 L 338.765625 140.640625 L 339.304688 141.269531 C 345.785156 141 347.765625 140.910156 353.613281 141 L 354.0625 140.371094 C 353.433594 131.550781 353.433594 129.300781 353.433594 120.839844 L 353.523438 114.179688 M 338.675781 128.488281 C 336.785156 129.570312 334.355469 130.828125 331.382812 130.828125 C 328.144531 130.828125 325.445312 129.121094 325.445312 125.339844 C 325.445312 119.398438 332.554688 118.410156 338.675781 117.601562 Z M 437.042969 124.890625 C 434.972656 126.511719 430.382812 129.929688 422.914062 129.929688 C 412.652344 129.929688 405.453125 122.28125 405.453125 109.5 C 405.453125 101.761719 408.152344 88.171875 422.824219 88.171875 C 429.574219 88.171875 433.261719 90.78125 435.511719 92.488281 L 436.324219 92.308594 L 437.132812 79.890625 L 436.773438 79.441406 C 433.535156 78.179688 428.042969 76.109375 420.125 76.109375 C 396.8125 76.109375 388.714844 94.109375 388.714844 109.859375 C 388.714844 127.140625 399.242188 142.351562 421.203125 142.351562 C 428.761719 142.351562 433.714844 140.371094 436.59375 139.199219 L 437.042969 138.660156 L 437.671875 125.25 Z M 488.792969 140.371094 C 488.433594 132.988281 488.34375 130.46875 488.164062 121.109375 L 488.164062 114.359375 C 488.074219 105.808594 487.984375 100.859375 485.371094 97.078125 C 482.761719 93.390625 478.984375 92.21875 475.023438 92.21875 C 468.453125 92.21875 463.324219 95.371094 459.722656 97.53125 L 459.992188 69.808594 L 459.453125 69.179688 L 444.0625 71.609375 L 443.613281 72.148438 C 444.421875 80.878906 444.601562 84.121094 444.78125 95.730469 C 444.964844 103.019531 445.054688 110.308594 445.054688 117.601562 C 445.054688 126.511719 444.871094 131.820312 444.691406 140.640625 L 445.144531 141.269531 C 451.804688 140.910156 453.152344 140.910156 460.441406 140.910156 L 460.984375 140.371094 C 460.351562 126.871094 460.261719 122.820312 460.171875 106.890625 C 461.882812 105.71875 464.042969 104.191406 467.101562 104.191406 C 472.054688 104.191406 472.414062 109.320312 472.773438 112.921875 C 472.953125 115.710938 473.042969 128.488281 473.042969 131.820312 C 473.042969 134.789062 472.953125 137.671875 472.953125 140.640625 L 473.402344 141.269531 C 479.882812 140.910156 481.324219 140.910156 488.253906 140.910156 Z M 515.34375 140.371094 C 514.890625 133.441406 514.53125 128.128906 514.53125 115.710938 C 514.53125 108.058594 514.710938 100.320312 514.800781 92.671875 L 514.171875 91.949219 L 498.691406 94.648438 L 498.152344 95.191406 C 498.871094 102.03125 499.140625 105.179688 499.140625 117.960938 C 499.140625 127.769531 498.871094 133.261719 498.601562 140.640625 L 499.140625 141.269531 C 505.621094 141 507.421875 140.910156 514.710938 141 L 515.34375 140.371094 M 513.902344 83.308594 L 514.171875 71.070312 L 513.632812 70.53125 L 498.960938 72.328125 L 498.421875 72.960938 C 498.601562 76.199219 498.691406 78.089844 498.691406 80.25 C 498.691406 81.960938 498.691406 83.761719 498.601562 85.46875 L 499.230469 86.011719 C 505.351562 84.929688 507.0625 84.75 513.453125 83.941406 Z M 560.523438 128.039062 C 558.09375 129.480469 555.753906 130.921875 551.164062 130.921875 C 540.992188 130.921875 538.921875 122.460938 538.921875 117.058594 C 538.921875 110.488281 541.804688 102.929688 550.535156 102.929688 C 554.492188 102.929688 556.652344 104.371094 559.355469 106.171875 L 560.253906 105.898438 C 560.613281 101.128906 560.703125 99.871094 561.421875 95.101562 L 560.972656 94.558594 C 557.011719 93.300781 553.59375 92.21875 548.375 92.21875 C 527.222656 92.21875 523.082031 108.238281 523.082031 117.421875 C 523.082031 127.769531 528.484375 141.808594 548.734375 141.808594 C 553.503906 141.808594 556.5625 140.910156 560.34375 139.828125 L 560.882812 139.289062 L 561.242188 128.488281 Z M 608.492188 114.179688 C 608.582031 106.078125 608.582031 102.570312 606.242188 98.789062 C 604.441406 95.910156 600.84375 92.308594 589.324219 92.308594 C 581.582031 92.308594 576.8125 93.75 571.683594 95.28125 L 571.144531 96 L 570.691406 105.808594 L 571.414062 106.171875 C 574.5625 104.910156 580.414062 102.570312 586.441406 102.570312 C 589.773438 102.570312 591.121094 103.109375 592.292969 104.28125 C 593.191406 105.179688 593.464844 106.800781 593.464844 108.148438 C 582.664062 109.589844 577.621094 110.578125 572.222656 113.910156 C 567.183594 117.058594 565.472656 122.191406 565.472656 126.238281 C 565.472656 135.871094 572.402344 142.078125 581.222656 142.078125 C 587.972656 142.078125 591.84375 138.839844 593.734375 137.308594 L 593.734375 140.640625 L 594.273438 141.269531 C 600.753906 141 602.734375 140.910156 608.582031 141 L 609.03125 140.371094 C 608.402344 131.550781 608.402344 129.300781 608.402344 120.839844 L 608.492188 114.179688 M 593.644531 128.488281 C 591.753906 129.570312 589.324219 130.828125 586.351562 130.828125 C 583.113281 130.828125 580.414062 129.121094 580.414062 125.339844 C 580.414062 119.398438 587.523438 118.410156 593.644531 117.601562 Z M 671.3125 102.300781 C 663.753906 99.148438 659.792969 97.53125 659.792969 93.480469 C 659.792969 90.691406 662.402344 87.179688 668.34375 87.179688 C 675.183594 87.179688 679.230469 89.96875 682.5625 92.21875 L 683.371094 91.859375 L 684.09375 80.070312 L 683.640625 79.441406 C 679.773438 77.820312 675.722656 76.109375 666.992188 76.109375 C 650.074219 76.109375 644.222656 85.648438 644.222656 95.28125 C 644.222656 106.171875 652.683594 110.128906 657.722656 112.558594 L 660.691406 113.910156 C 666.902344 116.519531 671.671875 118.769531 671.671875 123.539062 C 671.671875 126.960938 668.703125 131.011719 660.871094 131.011719 C 652.683594 131.011719 648.09375 127.410156 645.480469 125.339844 L 644.582031 125.609375 L 643.953125 138.300781 L 644.492188 139.019531 C 645.480469 139.378906 646.472656 139.828125 647.460938 140.101562 C 649.53125 140.820312 654.84375 142.351562 661.59375 142.351562 C 664.292969 142.351562 671.132812 142.078125 676.53125 139.558594 C 684.09375 135.871094 687.332031 129.03125 687.332031 121.378906 C 687.332031 116.25 685.351562 110.761719 680.582031 107.070312 C 678.152344 105.269531 675.8125 104.191406 673.652344 103.199219 Z M 721.085938 130.648438 C 719.554688 131.101562 718.472656 131.460938 716.945312 131.460938 C 712.355469 131.460938 711.996094 128.578125 711.8125 127.230469 C 711.542969 124.890625 711.542969 119.941406 711.632812 116.339844 L 711.8125 103.648438 L 719.914062 104.011719 L 720.453125 103.46875 L 721.355469 93.839844 L 720.8125 93.300781 L 711.8125 93.300781 L 712.085938 78.179688 L 711.453125 77.640625 C 705.335938 79.441406 703.714844 79.890625 697.324219 81.511719 L 696.964844 82.140625 L 697.054688 93.390625 L 692.195312 93.210938 L 691.65625 93.660156 L 690.84375 103.289062 L 691.382812 103.828125 L 697.054688 103.648438 L 696.785156 117.960938 C 696.695312 120.210938 696.605469 122.460938 696.605469 124.800781 C 696.605469 133.078125 696.785156 141.988281 710.824219 141.988281 C 714.335938 141.988281 717.125 141.449219 720.273438 140.910156 L 720.90625 140.28125 L 721.804688 131.011719 Z M 767.792969 114.179688 C 767.882812 106.078125 767.882812 102.570312 765.542969 98.789062 C 763.742188 95.910156 760.144531 92.308594 748.625 92.308594 C 740.882812 92.308594 736.113281 93.75 730.984375 95.28125 L 730.445312 96 L 729.992188 105.808594 L 730.714844 106.171875 C 733.863281 104.910156 739.714844 102.570312 745.742188 102.570312 C 749.074219 102.570312 750.421875 103.109375 751.59375 104.28125 C 752.492188 105.179688 752.765625 106.800781 752.765625 108.148438 C 741.964844 109.589844 736.921875 110.578125 731.523438 113.910156 C 726.484375 117.058594 724.773438 122.191406 724.773438 126.238281 C 724.773438 135.871094 731.703125 142.078125 740.523438 142.078125 C 747.273438 142.078125 751.144531 138.839844 753.035156 137.308594 L 753.035156 140.640625 L 753.574219 141.269531 C 760.054688 141 762.035156 140.910156 767.882812 141 L 768.332031 140.371094 C 767.703125 131.550781 767.703125 129.300781 767.703125 120.839844 L 767.792969 114.179688 M 752.945312 128.488281 C 751.054688 129.570312 748.625 130.828125 745.652344 130.828125 C 742.414062 130.828125 739.714844 129.121094 739.714844 125.339844 C 739.714844 119.398438 746.824219 118.410156 752.945312 117.601562 Z M 803.523438 130.648438 C 801.992188 131.101562 800.910156 131.460938 799.382812 131.460938 C 794.792969 131.460938 794.433594 128.578125 794.25 127.230469 C 793.980469 124.890625 793.980469 119.941406 794.070312 116.339844 L 794.25 103.648438 L 802.351562 104.011719 L 802.890625 103.46875 L 803.792969 93.839844 L 803.25 93.300781 L 794.25 93.300781 L 794.523438 78.179688 L 793.890625 77.640625 C 787.773438 79.441406 786.152344 79.890625 779.761719 81.511719 L 779.402344 82.140625 L 779.492188 93.390625 L 774.632812 93.210938 L 774.09375 93.660156 L 773.28125 103.289062 L 773.820312 103.828125 L 779.492188 103.648438 L 779.222656 117.960938 C 779.132812 120.210938 779.042969 122.460938 779.042969 124.800781 C 779.042969 133.078125 779.222656 141.988281 793.261719 141.988281 C 796.773438 141.988281 799.5625 141.449219 802.710938 140.910156 L 803.34375 140.28125 L 804.242188 131.011719 Z M 850.144531 127.679688 C 846.726562 129.480469 842.675781 131.550781 836.105469 131.550781 C 830.707031 131.550781 827.015625 129.839844 824.855469 126.601562 C 823.503906 124.710938 823.234375 122.910156 822.875 121.109375 L 851.945312 120.570312 L 852.484375 119.941406 C 852.394531 115.53125 852.304688 111.03125 851.046875 106.53125 C 847.894531 95.910156 840.964844 93.75 837.90625 93.03125 C 835.65625 92.398438 833.585938 92.21875 831.515625 92.21875 C 817.386719 92.21875 808.023438 101.488281 808.023438 117.058594 C 808.023438 121.289062 808.746094 125.699219 810.183594 128.851562 C 815.40625 141 827.644531 142.078125 834.125 142.078125 C 841.59375 142.078125 844.835938 140.730469 849.605469 138.839844 L 850.144531 138.121094 L 850.773438 127.949219 L 850.144531 127.679688 M 822.875 111.570312 C 823.144531 108.78125 823.773438 105 827.195312 102.839844 C 828.273438 102.121094 829.535156 101.851562 830.796875 101.851562 C 833.765625 101.851562 835.566406 103.378906 836.554688 105 C 837.816406 106.980469 837.90625 109.140625 837.90625 111.210938 Z M 855.363281 141 "/>
<path fill-rule="nonzero" fill="rgb(34.901961%, 14.901961%, 14.901961%)" fill-opacity="1" d="M 385.519531 261 C 393.890625 261.179688 404.238281 261.359375 410.988281 256.679688 C 416.929688 252.449219 418.550781 246.511719 418.550781 241.46875 C 418.550781 235.710938 416.117188 230.398438 410.988281 227.878906 C 409.277344 226.980469 407.300781 226.621094 405.410156 226.261719 C 408.46875 225 412.070312 223.378906 414.410156 218.609375 C 415.398438 216.539062 415.847656 214.378906 415.847656 212.308594 C 415.847656 209.429688 415.128906 205.46875 412.25 202.230469 C 408.46875 198.179688 402.617188 197.101562 393.800781 197.101562 C 390.738281 197.101562 385.25 197.191406 382.1875 197.28125 L 369.589844 197.460938 L 369.050781 198 C 369.410156 206.640625 369.5 209.96875 369.5 222.390625 C 369.5 235.171875 369.410156 247.859375 369.230469 260.640625 L 369.859375 261 L 385.519531 261 M 384.890625 233.640625 C 391.730469 233.460938 395.6875 233.460938 398.300781 234.988281 C 400.910156 236.609375 401.898438 239.488281 401.898438 242.371094 C 401.898438 246.421875 399.648438 248.941406 396.320312 250.109375 C 393.617188 251.011719 388.757812 251.011719 384.890625 250.921875 L 384.890625 233.640625 M 384.890625 207.179688 C 386.777344 207.179688 389.300781 207.089844 390.828125 207.089844 C 395.6875 207.089844 400.097656 208.800781 400.097656 214.648438 C 400.097656 219.421875 396.589844 221.398438 395.507812 221.941406 C 393.257812 222.929688 388.488281 222.929688 384.890625 222.929688 Z M 466.878906 247.679688 C 463.460938 249.480469 459.410156 251.550781 452.839844 251.550781 C 447.441406 251.550781 443.75 249.839844 441.589844 246.601562 C 440.238281 244.710938 439.96875 242.910156 439.609375 241.109375 L 468.679688 240.570312 L 469.21875 239.941406 C 469.128906 235.53125 469.039062 231.03125 467.78125 226.53125 C 464.628906 215.910156 457.699219 213.75 454.640625 213.03125 C 452.390625 212.398438 450.320312 212.21875 448.25 212.21875 C 434.121094 212.21875 424.757812 221.488281 424.757812 237.058594 C 424.757812 241.289062 425.480469 245.699219 426.917969 248.851562 C 432.140625 261 444.378906 262.078125 450.859375 262.078125 C 458.328125 262.078125 461.570312 260.730469 466.339844 258.839844 L 466.878906 258.121094 L 467.507812 247.949219 L 466.878906 247.679688 M 439.609375 231.570312 C 439.878906 228.78125 440.507812 225 443.929688 222.839844 C 445.007812 222.121094 446.269531 221.851562 447.53125 221.851562 C 450.5 221.851562 452.300781 223.378906 453.289062 225 C 454.550781 226.980469 454.640625 229.140625 454.640625 231.210938 Z M 517.546875 234.179688 C 517.636719 226.078125 517.636719 222.570312 515.296875 218.789062 C 513.496094 215.910156 509.898438 212.308594 498.378906 212.308594 C 490.636719 212.308594 485.867188 213.75 480.738281 215.28125 L 480.199219 216 L 479.746094 225.808594 L 480.46875 226.171875 C 483.617188 224.910156 489.46875 222.570312 495.496094 222.570312 C 498.828125 222.570312 500.175781 223.109375 501.347656 224.28125 C 502.246094 225.179688 502.519531 226.800781 502.519531 228.148438 C 491.71875 229.589844 486.675781 230.578125 481.277344 233.910156 C 476.238281 237.058594 474.527344 242.191406 474.527344 246.238281 C 474.527344 255.871094 481.457031 262.078125 490.277344 262.078125 C 497.027344 262.078125 500.898438 258.839844 502.789062 257.308594 L 502.789062 260.640625 L 503.328125 261.269531 C 509.808594 261 511.789062 260.910156 517.636719 261 L 518.085938 260.371094 C 517.457031 251.550781 517.457031 249.300781 517.457031 240.839844 L 517.546875 234.179688 M 502.699219 248.488281 C 500.808594 249.570312 498.378906 250.828125 495.40625 250.828125 C 492.167969 250.828125 489.46875 249.121094 489.46875 245.339844 C 489.46875 239.398438 496.578125 238.410156 502.699219 237.601562 Z M 563.269531 248.039062 C 560.839844 249.480469 558.5 250.921875 553.910156 250.921875 C 543.738281 250.921875 541.667969 242.460938 541.667969 237.058594 C 541.667969 230.488281 544.550781 222.929688 553.28125 222.929688 C 557.238281 222.929688 559.398438 224.371094 562.101562 226.171875 L 563 225.898438 C 563.359375 221.128906 563.449219 219.871094 564.167969 215.101562 L 563.71875 214.558594 C 559.757812 213.300781 556.339844 212.21875 551.121094 212.21875 C 529.96875 212.21875 525.828125 228.238281 525.828125 237.421875 C 525.828125 247.769531 531.230469 261.808594 551.480469 261.808594 C 556.25 261.808594 559.308594 260.910156 563.089844 259.828125 L 563.628906 259.289062 L 563.988281 248.488281 Z M 615.289062 260.371094 C 614.929688 252.988281 614.839844 250.46875 614.660156 241.109375 L 614.660156 234.359375 C 614.570312 225.808594 614.480469 220.859375 611.867188 217.078125 C 609.257812 213.390625 605.480469 212.21875 601.519531 212.21875 C 594.949219 212.21875 589.820312 215.371094 586.21875 217.53125 L 586.488281 189.808594 L 585.949219 189.179688 L 570.558594 191.609375 L 570.109375 192.148438 C 570.917969 200.878906 571.097656 204.121094 571.277344 215.730469 C 571.460938 223.019531 571.550781 230.308594 571.550781 237.601562 C 571.550781 246.511719 571.367188 251.820312 571.1875 260.640625 L 571.640625 261.269531 C 578.300781 260.910156 579.648438 260.910156 586.9375 260.910156 L 587.480469 260.371094 C 586.847656 246.871094 586.757812 242.820312 586.667969 226.890625 C 588.378906 225.71875 590.539062 224.191406 593.597656 224.191406 C 598.550781 224.191406 598.910156 229.320312 599.269531 232.921875 C 599.449219 235.710938 599.539062 248.488281 599.539062 251.820312 C 599.539062 254.789062 599.449219 257.671875 599.449219 260.640625 L 599.898438 261.269531 C 606.378906 260.910156 607.820312 260.910156 614.75 260.910156 Z M 620.148438 261 "/>
</svg>
