<?xml version="1.0" encoding="UTF-8"?>
<svg xmlns="http://www.w3.org/2000/svg" xmlns:xlink="http://www.w3.org/1999/xlink" width="975" height="1300" viewBox="0 0 975 1300">
<path fill-rule="nonzero" fill="rgb(98.823529%, 78.823529%, 9.019608%)" fill-opacity="1" d="M 50 50 L 925 50 L 925 290 L 50 290 Z M 50 50 "/>
<path fill-rule="nonzero" fill="rgb(34.901961%, 14.901961%, 14.901961%)" fill-opacity="1" d="M 109.984375 102.300781 C 102.425781 99.148438 98.464844 97.53125 98.464844 93.480469 C 98.464844 90.691406 101.074219 87.179688 107.015625 87.179688 C 113.855469 87.179688 117.902344 89.96875 121.234375 92.21875 L 122.042969 91.859375 L 122.765625 80.070312 L 122.3125 79.441406 C 118.445312 77.820312 114.394531 76.109375 105.664062 76.109375 C 88.746094 76.109375 82.894531 85.648438 82.894531 95.28125 C 82.894531 106.171875 91.355469 110.128906 96.394531 112.558594 L 99.363281 113.910156 C 105.574219 116.519531 110.34375 118.769531 110.34375 123.539062 C 110.34375 126.960938 107.375 131.011719 99.542969 131.011719 C 91.355469 131.011719 86.765625 127.410156 84.152344 125.339844 L 83.253906 125.609375 L 82.625 138.300781 L 83.164062 139.019531 C 84.152344 139.378906 85.144531 139.828125 86.132812 140.101562 C 88.203125 140.820312 93.515625 142.351562 100.265625 142.351562 C 102.964844 142.351562 109.804688 142.078125 115.203125 139.558594 C 122.765625 135.871094 126.003906 129.03125 126.003906 121.378906 C 126.003906 116.25 124.023438 110.761719 119.253906 107.070312 C 116.824219 105.269531 114.484375 104.191406 112.324219 103.199219 Z M 174.601562 114.179688 C 174.691406 106.078125 174.691406 102.570312 172.351562 98.789062 C 170.550781 95.910156 166.953125 92.308594 155.433594 92.308594 C 147.691406 92.308594 142.921875 93.75 137.792969 95.28125 L 137.253906 96 L 136.800781 105.808594 L 137.523438 106.171875 C 140.671875 104.910156 146.523438 102.570312 152.550781 102.570312 C 155.882812 102.570312 157.230469 103.109375 158.402344 104.28125 C 159.300781 105.179688 159.574219 106.800781 159.574219 108.148438 C 148.773438 109.589844 143.730469 110.578125 138.332031 113.910156 C 133.292969 117.058594 131.582031 122.191406 131.582031 126.238281 C 131.582031 135.871094 138.511719 142.078125 147.332031 142.078125 C 154.082031 142.078125 157.953125 138.839844 159.84375 137.308594 L 159.84375 140.640625 L 160.382812 141.269531 C 166.863281 141 168.84375 140.910156 174.691406 141 L 175.140625 140.371094 C 174.511719 131.550781 174.511719 129.300781 174.511719 120.839844 L 174.601562 114.179688 M 159.753906 128.488281 C 157.863281 129.570312 155.433594 130.828125 152.460938 130.828125 C 149.222656 130.828125 146.523438 129.121094 146.523438 125.339844 C 146.523438 119.398438 153.632812 118.410156 159.753906 117.601562 Z M 229.234375 140.371094 C 228.785156 132.449219 228.785156 129.929688 228.605469 121.109375 L 228.605469 114.089844 C 228.515625 105.449219 228.425781 101.308594 226.175781 97.621094 C 223.382812 92.941406 218.253906 92.21875 215.015625 92.21875 C 209.523438 92.21875 204.753906 95.101562 200.613281 97.53125 L 200.792969 92.578125 L 199.894531 91.949219 C 192.964844 93.390625 191.433594 93.660156 184.683594 94.558594 L 184.144531 95.191406 C 184.863281 103.019531 185.40625 108.691406 185.40625 123.359375 C 185.40625 129.121094 185.3125 134.878906 185.222656 140.640625 L 185.765625 141.179688 C 192.246094 140.910156 193.59375 140.910156 200.792969 140.910156 L 201.335938 140.371094 C 200.792969 126.511719 200.703125 123 200.613281 106.890625 C 202.503906 105.628906 204.664062 104.101562 207.542969 104.101562 C 212.496094 104.101562 212.945312 109.410156 213.214844 112.648438 C 213.394531 115.621094 213.484375 127.949219 213.484375 131.371094 C 213.484375 134.429688 213.394531 137.578125 213.394531 140.640625 L 213.933594 141.179688 C 219.875 141 221.40625 140.910156 228.605469 140.910156 Z M 312.484375 124.890625 C 310.414062 126.511719 305.824219 129.929688 298.355469 129.929688 C 288.09375 129.929688 280.894531 122.28125 280.894531 109.5 C 280.894531 101.761719 283.59375 88.171875 298.265625 88.171875 C 305.015625 88.171875 308.703125 90.78125 310.953125 92.488281 L 311.765625 92.308594 L 312.574219 79.890625 L 312.214844 79.441406 C 308.976562 78.179688 303.484375 76.109375 295.566406 76.109375 C 272.253906 76.109375 264.15625 94.109375 264.15625 109.859375 C 264.15625 127.140625 274.683594 142.351562 296.644531 142.351562 C 304.203125 142.351562 309.15625 140.371094 312.035156 139.199219 L 312.484375 138.660156 L 313.113281 125.25 Z M 335.972656 140.371094 C 335.523438 130.019531 335.074219 120.570312 335.074219 92.128906 C 335.074219 83.578125 335.164062 79.53125 335.523438 69.808594 L 334.894531 69.179688 L 319.503906 71.609375 L 319.144531 72.148438 C 320.042969 83.128906 320.132812 86.101562 320.3125 100.679688 C 320.40625 105.988281 320.40625 111.300781 320.40625 116.609375 C 320.40625 126.328125 320.222656 131.730469 319.863281 140.640625 L 320.40625 141.269531 C 326.433594 141 328.863281 140.910156 335.433594 141 Z M 386.375 127.679688 C 382.957031 129.480469 378.90625 131.550781 372.335938 131.550781 C 366.9375 131.550781 363.246094 129.839844 361.085938 126.601562 C 359.734375 124.710938 359.464844 122.910156 359.105469 121.109375 L 388.175781 120.570312 L 388.714844 119.941406 C 388.625 115.53125 388.535156 111.03125 387.277344 106.53125 C 384.125 95.910156 377.195312 93.75 374.136719 93.03125 C 371.886719 92.398438 369.816406 92.21875 367.746094 92.21875 C 353.617188 92.21875 344.253906 101.488281 344.253906 117.058594 C 344.253906 121.289062 344.976562 125.699219 346.414062 128.851562 C 351.636719 141 363.875 142.078125 370.355469 142.078125 C 377.824219 142.078125 381.066406 140.730469 385.835938 138.839844 L 386.375 138.121094 L 387.003906 127.949219 L 386.375 127.679688 M 359.105469 111.570312 C 359.375 108.78125 360.003906 105 363.425781 102.839844 C 364.503906 102.121094 365.765625 101.851562 367.027344 101.851562 C 369.996094 101.851562 371.796875 103.378906 372.785156 105 C 374.046875 106.980469 374.136719 109.140625 374.136719 111.210938 Z M 467.285156 140.371094 C 466.832031 132 466.742188 129.660156 466.742188 119.488281 L 466.742188 112.738281 C 466.832031 106.710938 466.921875 101.128906 464.3125 97.351562 C 460.804688 92.21875 454.59375 92.21875 453.152344 92.21875 C 445.773438 92.21875 440.824219 95.550781 437.222656 98.070312 C 435.964844 96 433.714844 92.21875 426.515625 92.21875 C 420.574219 92.21875 416.703125 94.921875 412.5625 97.800781 L 412.5625 92.761719 L 411.753906 91.949219 C 404.734375 93.300781 402.753906 93.660156 396.453125 94.558594 L 395.914062 95.191406 C 396.632812 102.390625 397.171875 107.339844 397.171875 125.160156 C 397.171875 130.289062 397.082031 135.511719 397.082031 140.640625 L 397.535156 141.179688 C 403.292969 141 405.273438 140.910156 412.742188 140.910156 L 413.285156 140.371094 C 412.652344 126.511719 412.5625 122.371094 412.472656 106.710938 C 414.363281 105.359375 416.433594 104.191406 418.683594 104.191406 C 424.265625 104.191406 424.445312 110.578125 424.445312 118.320312 C 424.445312 131.371094 424.355469 133.351562 424.171875 140.640625 L 424.714844 141.269531 C 431.554688 140.910156 433.445312 140.910156 439.652344 140.910156 L 440.195312 140.371094 C 439.652344 131.820312 439.5625 129.300781 439.472656 118.410156 L 439.472656 115.078125 L 439.382812 105.988281 C 440.914062 105 442.894531 103.738281 445.59375 103.738281 C 450.722656 103.738281 451.535156 108.601562 451.535156 116.339844 C 451.535156 118.050781 451.445312 119.761719 451.445312 121.46875 C 451.355469 124.53125 451.265625 137.941406 451.171875 140.640625 L 451.714844 141.179688 C 458.464844 140.910156 460.445312 140.910156 466.742188 140.910156 Z M 517.59375 127.679688 C 514.175781 129.480469 510.125 131.550781 503.554688 131.550781 C 498.15625 131.550781 494.464844 129.839844 492.304688 126.601562 C 490.953125 124.710938 490.683594 122.910156 490.324219 121.109375 L 519.394531 120.570312 L 519.933594 119.941406 C 519.84375 115.53125 519.753906 111.03125 518.496094 106.53125 C 515.34375 95.910156 508.414062 93.75 505.355469 93.03125 C 503.105469 92.398438 501.035156 92.21875 498.964844 92.21875 C 484.835938 92.21875 475.472656 101.488281 475.472656 117.058594 C 475.472656 121.289062 476.195312 125.699219 477.632812 128.851562 C 482.855469 141 495.09375 142.078125 501.574219 142.078125 C 509.042969 142.078125 512.285156 140.730469 517.054688 138.839844 L 517.59375 138.121094 L 518.222656 127.949219 L 517.59375 127.679688 M 490.324219 111.570312 C 490.59375 108.78125 491.222656 105 494.644531 102.839844 C 495.722656 102.121094 496.984375 101.851562 498.246094 101.851562 C 501.214844 101.851562 503.015625 103.378906 504.003906 105 C 505.265625 106.980469 505.355469 109.140625 505.355469 111.210938 Z M 572.3125 140.371094 C 571.863281 132.449219 571.863281 129.929688 571.683594 121.109375 L 571.683594 114.089844 C 571.59375 105.449219 571.503906 101.308594 569.253906 97.621094 C 566.460938 92.941406 561.332031 92.21875 558.09375 92.21875 C 552.601562 92.21875 547.832031 95.101562 543.691406 97.53125 L 543.871094 92.578125 L 542.972656 91.949219 C 536.042969 93.390625 534.511719 93.660156 527.761719 94.558594 L 527.222656 95.191406 C 527.941406 103.019531 528.484375 108.691406 528.484375 123.359375 C 528.484375 129.121094 528.390625 134.878906 528.300781 140.640625 L 528.84375 141.179688 C 535.324219 140.910156 536.671875 140.910156 543.871094 140.910156 L 544.414062 140.371094 C 543.871094 126.511719 543.78125 123 543.691406 106.890625 C 545.582031 105.628906 547.742188 104.101562 550.621094 104.101562 C 555.574219 104.101562 556.023438 109.410156 556.292969 112.648438 C 556.472656 115.621094 556.5625 127.949219 556.5625 131.371094 C 556.5625 134.429688 556.472656 137.578125 556.472656 140.640625 L 557.011719 141.179688 C 562.953125 141 564.484375 140.910156 571.683594 140.910156 Z M 607.777344 130.648438 C 606.246094 131.101562 605.164062 131.460938 603.636719 131.460938 C 599.046875 131.460938 598.6875 128.578125 598.503906 127.230469 C 598.234375 124.890625 598.234375 119.941406 598.324219 116.339844 L 598.503906 103.648438 L 606.605469 104.011719 L 607.144531 103.46875 L 608.046875 93.839844 L 607.503906 93.300781 L 598.503906 93.300781 L 598.777344 78.179688 L 598.144531 77.640625 C 592.027344 79.441406 590.40625 79.890625 584.015625 81.511719 L 583.65625 82.140625 L 583.746094 93.390625 L 578.886719 93.210938 L 578.347656 93.660156 L 577.535156 103.289062 L 578.074219 103.828125 L 583.746094 103.648438 L 583.476562 117.960938 C 583.386719 120.210938 583.296875 122.460938 583.296875 124.800781 C 583.296875 133.078125 583.476562 141.988281 597.515625 141.988281 C 601.027344 141.988281 603.816406 141.449219 606.964844 140.910156 L 607.597656 140.28125 L 608.496094 131.011719 Z M 654.394531 127.679688 C 650.976562 129.480469 646.925781 131.550781 640.355469 131.550781 C 634.957031 131.550781 631.265625 129.839844 629.105469 126.601562 C 627.753906 124.710938 627.484375 122.910156 627.125 121.109375 L 656.195312 120.570312 L 656.734375 119.941406 C 656.644531 115.53125 656.554688 111.03125 655.296875 106.53125 C 652.144531 95.910156 645.214844 93.75 642.15625 93.03125 C 639.90625 92.398438 637.835938 92.21875 635.765625 92.21875 C 621.636719 92.21875 612.273438 101.488281 612.273438 117.058594 C 612.273438 121.289062 612.996094 125.699219 614.433594 128.851562 C 619.65625 141 631.894531 142.078125 638.375 142.078125 C 645.84375 142.078125 649.085938 140.730469 653.855469 138.839844 L 654.394531 138.121094 L 655.023438 127.949219 L 654.394531 127.679688 M 627.125 111.570312 C 627.394531 108.78125 628.023438 105 631.445312 102.839844 C 632.523438 102.121094 633.785156 101.851562 635.046875 101.851562 C 638.015625 101.851562 639.816406 103.378906 640.804688 105 C 642.066406 106.980469 642.15625 109.140625 642.15625 111.210938 Z M 717.304688 102.300781 C 709.746094 99.148438 705.785156 97.53125 705.785156 93.480469 C 705.785156 90.691406 708.394531 87.179688 714.335938 87.179688 C 721.175781 87.179688 725.222656 89.96875 728.554688 92.21875 L 729.363281 91.859375 L 730.085938 80.070312 L 729.632812 79.441406 C 725.765625 77.820312 721.714844 76.109375 712.984375 76.109375 C 696.066406 76.109375 690.214844 85.648438 690.214844 95.28125 C 690.214844 106.171875 698.675781 110.128906 703.714844 112.558594 L 706.683594 113.910156 C 712.894531 116.519531 717.664062 118.769531 717.664062 123.539062 C 717.664062 126.960938 714.695312 131.011719 706.863281 131.011719 C 698.675781 131.011719 694.085938 127.410156 691.472656 125.339844 L 690.574219 125.609375 L 689.945312 138.300781 L 690.484375 139.019531 C 691.472656 139.378906 692.464844 139.828125 693.453125 140.101562 C 695.523438 140.820312 700.835938 142.351562 707.585938 142.351562 C 710.285156 142.351562 717.125 142.078125 722.523438 139.558594 C 730.085938 135.871094 733.324219 129.03125 733.324219 121.378906 C 733.324219 116.25 731.34375 110.761719 726.574219 107.070312 C 724.144531 105.269531 721.804688 104.191406 719.644531 103.199219 Z M 767.074219 130.648438 C 765.542969 131.101562 764.460938 131.460938 762.933594 131.460938 C 758.34375 131.460938 757.984375 128.578125 757.800781 127.230469 C 757.53125 124.890625 757.53125 119.941406 757.621094 116.339844 L 757.800781 103.648438 L 765.902344 104.011719 L 766.441406 103.46875 L 767.34375 93.839844 L 766.800781 93.300781 L 757.800781 93.300781 L 758.074219 78.179688 L 757.441406 77.640625 C 751.324219 79.441406 749.703125 79.890625 743.3125 81.511719 L 742.953125 82.140625 L 743.042969 93.390625 L 738.183594 93.210938 L 737.644531 93.660156 L 736.832031 103.289062 L 737.371094 103.828125 L 743.042969 103.648438 L 742.773438 117.960938 C 742.683594 120.210938 742.59375 122.460938 742.59375 124.800781 C 742.59375 133.078125 742.773438 141.988281 756.8125 141.988281 C 760.324219 141.988281 763.113281 141.449219 766.261719 140.910156 L 766.894531 140.28125 L 767.792969 131.011719 Z M 813.785156 114.179688 C 813.875 106.078125 813.875 102.570312 811.535156 98.789062 C 809.734375 95.910156 806.136719 92.308594 794.617188 92.308594 C 786.875 92.308594 782.105469 93.75 776.976562 95.28125 L 776.4375 96 L 775.984375 105.808594 L 776.707031 106.171875 C 779.855469 104.910156 785.707031 102.570312 791.734375 102.570312 C 795.066406 102.570312 796.414062 103.109375 797.585938 104.28125 C 798.484375 105.179688 798.757812 106.800781 798.757812 108.148438 C 787.957031 109.589844 782.914062 110.578125 777.515625 113.910156 C 772.476562 117.058594 770.765625 122.191406 770.765625 126.238281 C 770.765625 135.871094 777.695312 142.078125 786.515625 142.078125 C 793.265625 142.078125 797.136719 138.839844 799.027344 137.308594 L 799.027344 140.640625 L 799.566406 141.269531 C 806.046875 141 808.027344 140.910156 813.875 141 L 814.324219 140.371094 C 813.695312 131.550781 813.695312 129.300781 813.695312 120.839844 L 813.785156 114.179688 M 798.9375 128.488281 C 797.046875 129.570312 794.617188 130.828125 791.644531 130.828125 C 788.40625 130.828125 785.707031 129.121094 785.707031 125.339844 C 785.707031 119.398438 792.816406 118.410156 798.9375 117.601562 Z M 849.515625 130.648438 C 847.984375 131.101562 846.902344 131.460938 845.375 131.460938 C 840.785156 131.460938 840.425781 128.578125 840.242188 127.230469 C 839.972656 124.890625 839.972656 119.941406 840.0625 116.339844 L 840.242188 103.648438 L 848.34375 104.011719 L 848.882812 103.46875 L 849.785156 93.839844 L 849.242188 93.300781 L 840.242188 93.300781 L 840.515625 78.179688 L 839.882812 77.640625 C 833.765625 79.441406 832.144531 79.890625 825.753906 81.511719 L 825.394531 82.140625 L 825.484375 93.390625 L 820.625 93.210938 L 820.085938 93.660156 L 819.273438 103.289062 L 819.8125 103.828125 L 825.484375 103.648438 L 825.214844 117.960938 C 825.125 120.210938 825.035156 122.460938 825.035156 124.800781 C 825.035156 133.078125 825.214844 141.988281 839.253906 141.988281 C 842.765625 141.988281 845.554688 141.449219 848.703125 140.910156 L 849.335938 140.28125 L 850.234375 131.011719 Z M 896.132812 127.679688 C 892.714844 129.480469 888.664062 131.550781 882.09375 131.550781 C 876.695312 131.550781 873.003906 129.839844 870.84375 126.601562 C 869.492188 124.710938 869.222656 122.910156 868.863281 121.109375 L 897.933594 120.570312 L 898.472656 119.941406 C 898.382812 115.53125 898.292969 111.03125 897.035156 106.53125 C 893.882812 95.910156 886.953125 93.75 883.894531 93.03125 C 881.644531 92.398438 879.574219 92.21875 877.503906 92.21875 C 863.375 92.21875 854.011719 101.488281 854.011719 117.058594 C 854.011719 121.289062 854.734375 125.699219 856.171875 128.851562 C 861.394531 141 873.632812 142.078125 880.113281 142.078125 C 887.582031 142.078125 890.824219 140.730469 895.59375 138.839844 L 896.132812 138.121094 L 896.761719 127.949219 L 896.132812 127.679688 M 868.863281 111.570312 C 869.132812 108.78125 869.761719 105 873.183594 102.839844 C 874.261719 102.121094 875.523438 101.851562 876.785156 101.851562 C 879.753906 101.851562 881.554688 103.378906 882.542969 105 C 883.804688 106.980469 883.894531 109.140625 883.894531 111.210938 Z M 901.355469 141 "/>
<path fill-rule="nonzero" fill="rgb(34.901961%, 14.901961%, 14.901961%)" fill-opacity="1" d="M 385.519531 261 C 393.890625 261.179688 404.238281 261.359375 410.988281 256.679688 C 416.929688 252.449219 418.550781 246.511719 418.550781 241.46875 C 418.550781 235.710938 416.117188 230.398438 410.988281 227.878906 C 409.277344 226.980469 407.300781 226.621094 405.410156 226.261719 C 408.46875 225 412.070312 223.378906 414.410156 218.609375 C 415.398438 216.539062 415.847656 214.378906 415.847656 212.308594 C 415.847656 209.429688 415.128906 205.46875 412.25 202.230469 C 408.46875 198.179688 402.617188 197.101562 393.800781 197.101562 C 390.738281 197.101562 385.25 197.191406 382.1875 197.28125 L 369.589844 197.460938 L 369.050781 198 C 369.410156 206.640625 369.5 209.96875 369.5 222.390625 C 369.5 235.171875 369.410156 247.859375 369.230469 260.640625 L 369.859375 261 L 385.519531 261 M 384.890625 233.640625 C 391.730469 233.460938 395.6875 233.460938 398.300781 234.988281 C 400.910156 236.609375 401.898438 239.488281 401.898438 242.371094 C 401.898438 246.421875 399.648438 248.941406 396.320312 250.109375 C 393.617188 251.011719 388.757812 251.011719 384.890625 250.921875 L 384.890625 233.640625 M 384.890625 207.179688 C 386.777344 207.179688 389.300781 207.089844 390.828125 207.089844 C 395.6875 207.089844 400.097656 208.800781 400.097656 214.648438 C 400.097656 219.421875 396.589844 221.398438 395.507812 221.941406 C 393.257812 222.929688 388.488281 222.929688 384.890625 222.929688 Z M 466.878906 247.679688 C 463.460938 249.480469 459.410156 251.550781 452.839844 251.550781 C 447.441406 251.550781 443.75 249.839844 441.589844 246.601562 C 440.238281 244.710938 439.96875 242.910156 439.609375 241.109375 L 468.679688 240.570312 L 469.21875 239.941406 C 469.128906 235.53125 469.039062 231.03125 467.78125 226.53125 C 464.628906 215.910156 457.699219 213.75 454.640625 213.03125 C 452.390625 212.398438 450.320312 212.21875 448.25 212.21875 C 434.121094 212.21875 424.757812 221.488281 424.757812 237.058594 C 424.757812 241.289062 425.480469 245.699219 426.917969 248.851562 C 432.140625 261 444.378906 262.078125 450.859375 262.078125 C 458.328125 262.078125 461.570312 260.730469 466.339844 258.839844 L 466.878906 258.121094 L 467.507812 247.949219 L 466.878906 247.679688 M 439.609375 231.570312 C 439.878906 228.78125 440.507812 225 443.929688 222.839844 C 445.007812 222.121094 446.269531 221.851562 447.53125 221.851562 C 450.5 221.851562 452.300781 223.378906 453.289062 225 C 454.550781 226.980469 454.640625 229.140625 454.640625 231.210938 Z M 517.546875 234.179688 C 517.636719 226.078125 517.636719 222.570312 515.296875 218.789062 C 513.496094 215.910156 509.898438 212.308594 498.378906 212.308594 C 490.636719 212.308594 485.867188 213.75 480.738281 215.28125 L 480.199219 216 L 479.746094 225.808594 L 480.46875 226.171875 C 483.617188 224.910156 489.46875 222.570312 495.496094 222.570312 C 498.828125 222.570312 500.175781 223.109375 501.347656 224.28125 C 502.246094 225.179688 502.519531 226.800781 502.519531 228.148438 C 491.71875 229.589844 486.675781 230.578125 481.277344 233.910156 C 476.238281 237.058594 474.527344 242.191406 474.527344 246.238281 C 474.527344 255.871094 481.457031 262.078125 490.277344 262.078125 C 497.027344 262.078125 500.898438 258.839844 502.789062 257.308594 L 502.789062 260.640625 L 503.328125 261.269531 C 509.808594 261 511.789062 260.910156 517.636719 261 L 518.085938 260.371094 C 517.457031 251.550781 517.457031 249.300781 517.457031 240.839844 L 517.546875 234.179688 M 502.699219 248.488281 C 500.808594 249.570312 498.378906 250.828125 495.40625 250.828125 C 492.167969 250.828125 489.46875 249.121094 489.46875 245.339844 C 489.46875 239.398438 496.578125 238.410156 502.699219 237.601562 Z M 563.269531 248.039062 C 560.839844 249.480469 558.5 250.921875 553.910156 250.921875 C 543.738281 250.921875 541.667969 242.460938 541.667969 237.058594 C 541.667969 230.488281 544.550781 222.929688 553.28125 222.929688 C 557.238281 222.929688 559.398438 224.371094 562.101562 226.171875 L 563 225.898438 C 563.359375 221.128906 563.449219 219.871094 564.167969 215.101562 L 563.71875 214.558594 C 559.757812 213.300781 556.339844 212.21875 551.121094 212.21875 C 529.96875 212.21875 525.828125 228.238281 525.828125 237.421875 C 525.828125 247.769531 531.230469 261.808594 551.480469 261.808594 C 556.25 261.808594 559.308594 260.910156 563.089844 259.828125 L 563.628906 259.289062 L 563.988281 248.488281 Z M 615.289062 260.371094 C 614.929688 252.988281 614.839844 250.46875 614.660156 241.109375 L 614.660156 234.359375 C 614.570312 225.808594 614.480469 220.859375 611.867188 217.078125 C 609.257812 213.390625 605.480469 212.21875 601.519531 212.21875 C 594.949219 212.21875 589.820312 215.371094 586.21875 217.53125 L 586.488281 189.808594 L 585.949219 189.179688 L 570.558594 191.609375 L 570.109375 192.148438 C 570.917969 200.878906 571.097656 204.121094 571.277344 215.730469 C 571.460938 223.019531 571.550781 230.308594 571.550781 237.601562 C 571.550781 246.511719 571.367188 251.820312 571.1875 260.640625 L 571.640625 261.269531 C 578.300781 260.910156 579.648438 260.910156 586.9375 260.910156 L 587.480469 260.371094 C 586.847656 246.871094 586.757812 242.820312 586.667969 226.890625 C 588.378906 225.71875 590.539062 224.191406 593.597656 224.191406 C 598.550781 224.191406 598.910156 229.320312 599.269531 232.921875 C 599.449219 235.710938 599.539062 248.488281 599.539062 251.820312 C 599.539062 254.789062 599.449219 257.671875 599.449219 260.640625 L 599.898438 261.269531 C 606.378906 260.910156 607.820312 260.910156 614.75 260.910156 Z M 620.148438 261 "/>
</svg>
