<?xml version="1.0" encoding="UTF-8"?>
<svg xmlns="http://www.w3.org/2000/svg" xmlns:xlink="http://www.w3.org/1999/xlink" width="975" height="1300" viewBox="0 0 975 1300">
<path fill-rule="nonzero" fill="rgb(98.823529%, 78.823529%, 9.019608%)" fill-opacity="1" d="M 50 50 L 925 50 L 925 290 L 50 290 Z M 50 50 "/>
<path fill-rule="nonzero" fill="rgb(34.901961%, 14.901961%, 14.901961%)" fill-opacity="1" d="M 163.398438 102.300781 C 155.839844 99.148438 151.878906 97.53125 151.878906 93.480469 C 151.878906 90.691406 154.488281 87.179688 160.429688 87.179688 C 167.269531 87.179688 171.316406 89.96875 174.648438 92.21875 L 175.457031 91.859375 L 176.179688 80.070312 L 175.726562 79.441406 C 171.859375 77.820312 167.808594 76.109375 159.078125 76.109375 C 142.160156 76.109375 136.308594 85.648438 136.308594 95.28125 C 136.308594 106.171875 144.769531 110.128906 149.808594 112.558594 L 152.777344 113.910156 C 158.988281 116.519531 163.757812 118.769531 163.757812 123.539062 C 163.757812 126.960938 160.789062 131.011719 152.957031 131.011719 C 144.769531 131.011719 140.179688 127.410156 137.566406 125.339844 L 136.667969 125.609375 L 136.039062 138.300781 L 136.578125 139.019531 C 137.566406 139.378906 138.558594 139.828125 139.546875 140.101562 C 141.617188 140.820312 146.929688 142.351562 153.679688 142.351562 C 156.378906 142.351562 163.21875 142.078125 168.617188 139.558594 C 176.179688 135.871094 179.417969 129.03125 179.417969 121.378906 C 179.417969 116.25 177.4375 110.761719 172.667969 107.070312 C 170.238281 105.269531 167.898438 104.191406 165.738281 103.199219 Z M 228.015625 114.179688 C 228.105469 106.078125 228.105469 102.570312 225.765625 98.789062 C 223.964844 95.910156 220.367188 92.308594 208.847656 92.308594 C 201.105469 92.308594 196.335938 93.75 191.207031 95.28125 L 190.667969 96 L 190.214844 105.808594 L 190.9375 106.171875 C 194.085938 104.910156 199.9375 102.570312 205.964844 102.570312 C 209.296875 102.570312 210.644531 103.109375 211.816406 104.28125 C 212.714844 105.179688 212.988281 106.800781 212.988281 108.148438 C 202.1875 109.589844 197.144531 110.578125 191.746094 113.910156 C 186.707031 117.058594 184.996094 122.191406 184.996094 126.238281 C 184.996094 135.871094 191.925781 142.078125 200.746094 142.078125 C 207.496094 142.078125 211.367188 138.839844 213.257812 137.308594 L 213.257812 140.640625 L 213.796875 141.269531 C 220.277344 141 222.257812 140.910156 228.105469 141 L 228.554688 140.371094 C 227.925781 131.550781 227.925781 129.300781 227.925781 120.839844 L 228.015625 114.179688 M 213.167969 128.488281 C 211.277344 129.570312 208.847656 130.828125 205.875 130.828125 C 202.636719 130.828125 199.9375 129.121094 199.9375 125.339844 C 199.9375 119.398438 207.046875 118.410156 213.167969 117.601562 Z M 282.648438 140.371094 C 282.199219 132.449219 282.199219 129.929688 282.019531 121.109375 L 282.019531 114.089844 C 281.929688 105.449219 281.839844 101.308594 279.589844 97.621094 C 276.796875 92.941406 271.667969 92.21875 268.429688 92.21875 C 262.9375 92.21875 258.167969 95.101562 254.027344 97.53125 L 254.207031 92.578125 L 253.308594 91.949219 C 246.378906 93.390625 244.847656 93.660156 238.097656 94.558594 L 237.558594 95.191406 C 238.277344 103.019531 238.820312 108.691406 238.820312 123.359375 C 238.820312 129.121094 238.726562 134.878906 238.636719 140.640625 L 239.179688 141.179688 C 245.660156 140.910156 247.007812 140.910156 254.207031 140.910156 L 254.75 140.371094 C 254.207031 126.511719 254.117188 123 254.027344 106.890625 C 255.917969 105.628906 258.078125 104.101562 260.957031 104.101562 C 265.910156 104.101562 266.359375 109.410156 266.628906 112.648438 C 266.808594 115.621094 266.898438 127.949219 266.898438 131.371094 C 266.898438 134.429688 266.808594 137.578125 266.808594 140.640625 L 267.347656 141.179688 C 273.289062 141 274.820312 140.910156 282.019531 140.910156 Z M 370.757812 85.738281 C 369.230469 83.761719 367.429688 82.050781 365.359375 80.699219 C 360.769531 77.640625 354.46875 76.109375 348.167969 76.109375 C 342.589844 76.109375 336.917969 77.101562 332.058594 79.890625 C 321.078125 86.191406 319.097656 96.628906 318.378906 100.410156 C 317.839844 103.46875 317.570312 106.53125 317.570312 109.589844 C 317.570312 115.710938 318.289062 127.230469 326.75 135.058594 C 333.589844 141.449219 342.949219 142.351562 347.539062 142.351562 C 354.46875 142.351562 361.488281 140.730469 366.800781 136.320312 C 375.710938 128.941406 377.507812 116.699219 377.507812 109.050781 C 377.507812 94.921875 373.007812 88.53125 370.757812 85.738281 M 356.539062 91.5 C 358.339844 93.570312 359.148438 96.179688 359.6875 98.789062 C 360.410156 102.210938 360.589844 105.449219 360.679688 107.699219 C 361.039062 121.199219 358.160156 130.921875 347.71875 130.921875 C 335.210938 130.921875 334.398438 116.339844 334.398438 108.238281 C 334.398438 97.441406 337.007812 91.859375 341.238281 89.160156 C 343.667969 87.71875 346.097656 87.359375 347.808594 87.359375 C 351.230469 87.359375 354.378906 88.890625 356.539062 91.5 Z M 430.789062 140.371094 C 430.339844 132.449219 430.339844 129.929688 430.160156 121.109375 L 430.160156 114.089844 C 430.070312 105.449219 429.980469 101.308594 427.730469 97.621094 C 424.9375 92.941406 419.808594 92.21875 416.570312 92.21875 C 411.078125 92.21875 406.308594 95.101562 402.167969 97.53125 L 402.347656 92.578125 L 401.449219 91.949219 C 394.519531 93.390625 392.988281 93.660156 386.238281 94.558594 L 385.699219 95.191406 C 386.417969 103.019531 386.960938 108.691406 386.960938 123.359375 C 386.960938 129.121094 386.867188 134.878906 386.777344 140.640625 L 387.320312 141.179688 C 393.800781 140.910156 395.148438 140.910156 402.347656 140.910156 L 402.890625 140.371094 C 402.347656 126.511719 402.257812 123 402.167969 106.890625 C 404.058594 105.628906 406.21875 104.101562 409.097656 104.101562 C 414.050781 104.101562 414.5 109.410156 414.769531 112.648438 C 414.949219 115.621094 415.039062 127.949219 415.039062 131.371094 C 415.039062 134.429688 414.949219 137.578125 414.949219 140.640625 L 415.488281 141.179688 C 421.429688 141 422.960938 140.910156 430.160156 140.910156 Z M 486.859375 117.058594 C 486.859375 113.550781 486.859375 98.96875 474.257812 94.019531 C 470.296875 92.488281 465.617188 92.308594 463.277344 92.308594 C 447.617188 92.308594 438.796875 100.679688 438.796875 117.238281 C 438.796875 123 439.699219 128.851562 443.027344 133.710938 C 445.367188 137.21875 449.777344 142.078125 462.648438 142.078125 C 481.726562 142.078125 486.859375 130.558594 486.859375 117.058594 M 471.289062 116.96875 C 471.289062 124.351562 470.296875 132.539062 462.828125 132.539062 C 460.488281 132.539062 458.867188 131.460938 457.789062 130.46875 C 456.257812 128.941406 454.546875 125.878906 454.546875 117.148438 C 454.546875 114.539062 454.546875 108.78125 456.347656 105.628906 C 457.699219 103.199219 460.039062 101.578125 462.917969 101.578125 C 465.4375 101.578125 467.507812 102.929688 468.679688 104.371094 C 470.839844 106.980469 471.289062 112.109375 471.289062 116.96875 Z M 513.40625 140.371094 C 512.507812 123.988281 512.417969 119.578125 512.507812 103.648438 L 519.617188 104.011719 L 520.246094 103.378906 L 521.058594 93.839844 L 520.609375 93.300781 L 512.417969 93.300781 L 512.507812 91.230469 C 512.507812 85.738281 512.597656 80.699219 518.449219 80.699219 C 519.347656 80.699219 520.246094 80.878906 521.148438 80.96875 L 521.777344 80.609375 L 522.585938 70.441406 L 522.136719 69.808594 C 519.976562 69.628906 517.90625 69.539062 515.835938 69.539062 C 511.246094 69.539062 506.566406 70.078125 502.96875 72.78125 C 497.386719 76.921875 497.476562 83.398438 497.476562 87.898438 L 497.566406 93.300781 L 491.71875 93.210938 L 491.179688 93.660156 L 490.277344 103.199219 L 490.816406 103.738281 L 497.65625 103.558594 C 497.65625 120.570312 497.65625 124.621094 497.117188 140.640625 L 497.65625 141.269531 C 503.777344 141 506.117188 140.910156 512.867188 140.910156 Z M 553.277344 107.609375 L 555.796875 92.941406 L 555.257812 92.308594 C 554.628906 92.308594 553.996094 92.21875 553.367188 92.21875 C 549.675781 92.21875 545.539062 94.289062 542.65625 100.949219 L 542.925781 92.671875 L 542.207031 91.949219 C 535.546875 93.390625 533.835938 93.660156 527.265625 94.648438 L 526.726562 95.191406 C 527.265625 101.941406 527.539062 105.988281 527.539062 118.5 C 527.539062 125.878906 527.445312 133.261719 527.265625 140.730469 L 527.808594 141.269531 C 534.46875 141 535.90625 140.910156 543.105469 141 L 543.558594 140.371094 C 543.195312 133.078125 542.65625 122.910156 542.65625 116.699219 C 542.65625 112.648438 542.65625 106.710938 548.777344 106.710938 C 550.308594 106.710938 551.207031 107.25 552.46875 107.96875 Z M 600.976562 127.679688 C 597.558594 129.480469 593.507812 131.550781 586.9375 131.550781 C 581.539062 131.550781 577.847656 129.839844 575.6875 126.601562 C 574.335938 124.710938 574.066406 122.910156 573.707031 121.109375 L 602.777344 120.570312 L 603.316406 119.941406 C 603.226562 115.53125 603.136719 111.03125 601.878906 106.53125 C 598.726562 95.910156 591.796875 93.75 588.738281 93.03125 C 586.488281 92.398438 584.417969 92.21875 582.347656 92.21875 C 568.21875 92.21875 558.855469 101.488281 558.855469 117.058594 C 558.855469 121.289062 559.578125 125.699219 561.015625 128.851562 C 566.238281 141 578.476562 142.078125 584.957031 142.078125 C 592.425781 142.078125 595.667969 140.730469 600.4375 138.839844 L 600.976562 138.121094 L 601.605469 127.949219 L 600.976562 127.679688 M 573.707031 111.570312 C 573.976562 108.78125 574.605469 105 578.027344 102.839844 C 579.105469 102.121094 580.367188 101.851562 581.628906 101.851562 C 584.597656 101.851562 586.398438 103.378906 587.386719 105 C 588.648438 106.980469 588.738281 109.140625 588.738281 111.210938 Z M 663.886719 102.300781 C 656.328125 99.148438 652.367188 97.53125 652.367188 93.480469 C 652.367188 90.691406 654.976562 87.179688 660.917969 87.179688 C 667.757812 87.179688 671.804688 89.96875 675.136719 92.21875 L 675.945312 91.859375 L 676.667969 80.070312 L 676.214844 79.441406 C 672.347656 77.820312 668.296875 76.109375 659.566406 76.109375 C 642.648438 76.109375 636.796875 85.648438 636.796875 95.28125 C 636.796875 106.171875 645.257812 110.128906 650.296875 112.558594 L 653.265625 113.910156 C 659.476562 116.519531 664.246094 118.769531 664.246094 123.539062 C 664.246094 126.960938 661.277344 131.011719 653.445312 131.011719 C 645.257812 131.011719 640.667969 127.410156 638.054688 125.339844 L 637.15625 125.609375 L 636.527344 138.300781 L 637.066406 139.019531 C 638.054688 139.378906 639.046875 139.828125 640.035156 140.101562 C 642.105469 140.820312 647.417969 142.351562 654.167969 142.351562 C 656.867188 142.351562 663.707031 142.078125 669.105469 139.558594 C 676.667969 135.871094 679.90625 129.03125 679.90625 121.378906 C 679.90625 116.25 677.925781 110.761719 673.15625 107.070312 C 670.726562 105.269531 668.386719 104.191406 666.226562 103.199219 Z M 713.660156 130.648438 C 712.128906 131.101562 711.046875 131.460938 709.519531 131.460938 C 704.929688 131.460938 704.570312 128.578125 704.386719 127.230469 C 704.117188 124.890625 704.117188 119.941406 704.207031 116.339844 L 704.386719 103.648438 L 712.488281 104.011719 L 713.027344 103.46875 L 713.929688 93.839844 L 713.386719 93.300781 L 704.386719 93.300781 L 704.660156 78.179688 L 704.027344 77.640625 C 697.910156 79.441406 696.289062 79.890625 689.898438 81.511719 L 689.539062 82.140625 L 689.628906 93.390625 L 684.769531 93.210938 L 684.230469 93.660156 L 683.417969 103.289062 L 683.957031 103.828125 L 689.628906 103.648438 L 689.359375 117.960938 C 689.269531 120.210938 689.179688 122.460938 689.179688 124.800781 C 689.179688 133.078125 689.359375 141.988281 703.398438 141.988281 C 706.910156 141.988281 709.699219 141.449219 712.847656 140.910156 L 713.480469 140.28125 L 714.378906 131.011719 Z M 760.367188 114.179688 C 760.457031 106.078125 760.457031 102.570312 758.117188 98.789062 C 756.316406 95.910156 752.71875 92.308594 741.199219 92.308594 C 733.457031 92.308594 728.6875 93.75 723.558594 95.28125 L 723.019531 96 L 722.566406 105.808594 L 723.289062 106.171875 C 726.4375 104.910156 732.289062 102.570312 738.316406 102.570312 C 741.648438 102.570312 742.996094 103.109375 744.167969 104.28125 C 745.066406 105.179688 745.339844 106.800781 745.339844 108.148438 C 734.539062 109.589844 729.496094 110.578125 724.097656 113.910156 C 719.058594 117.058594 717.347656 122.191406 717.347656 126.238281 C 717.347656 135.871094 724.277344 142.078125 733.097656 142.078125 C 739.847656 142.078125 743.71875 138.839844 745.609375 137.308594 L 745.609375 140.640625 L 746.148438 141.269531 C 752.628906 141 754.609375 140.910156 760.457031 141 L 760.90625 140.371094 C 760.277344 131.550781 760.277344 129.300781 760.277344 120.839844 L 760.367188 114.179688 M 745.519531 128.488281 C 743.628906 129.570312 741.199219 130.828125 738.226562 130.828125 C 734.988281 130.828125 732.289062 129.121094 732.289062 125.339844 C 732.289062 119.398438 739.398438 118.410156 745.519531 117.601562 Z M 796.101562 130.648438 C 794.570312 131.101562 793.488281 131.460938 791.960938 131.460938 C 787.371094 131.460938 787.011719 128.578125 786.828125 127.230469 C 786.558594 124.890625 786.558594 119.941406 786.648438 116.339844 L 786.828125 103.648438 L 794.929688 104.011719 L 795.46875 103.46875 L 796.371094 93.839844 L 795.828125 93.300781 L 786.828125 93.300781 L 787.101562 78.179688 L 786.46875 77.640625 C 780.351562 79.441406 778.730469 79.890625 772.339844 81.511719 L 771.980469 82.140625 L 772.070312 93.390625 L 767.210938 93.210938 L 766.671875 93.660156 L 765.859375 103.289062 L 766.398438 103.828125 L 772.070312 103.648438 L 771.800781 117.960938 C 771.710938 120.210938 771.621094 122.460938 771.621094 124.800781 C 771.621094 133.078125 771.800781 141.988281 785.839844 141.988281 C 789.351562 141.988281 792.140625 141.449219 795.289062 140.910156 L 795.921875 140.28125 L 796.820312 131.011719 Z M 842.71875 127.679688 C 839.300781 129.480469 835.25 131.550781 828.679688 131.550781 C 823.28125 131.550781 819.589844 129.839844 817.429688 126.601562 C 816.078125 124.710938 815.808594 122.910156 815.449219 121.109375 L 844.519531 120.570312 L 845.058594 119.941406 C 844.96875 115.53125 844.878906 111.03125 843.621094 106.53125 C 840.46875 95.910156 833.539062 93.75 830.480469 93.03125 C 828.230469 92.398438 826.160156 92.21875 824.089844 92.21875 C 809.960938 92.21875 800.597656 101.488281 800.597656 117.058594 C 800.597656 121.289062 801.320312 125.699219 802.757812 128.851562 C 807.980469 141 820.21875 142.078125 826.699219 142.078125 C 834.167969 142.078125 837.410156 140.730469 842.179688 138.839844 L 842.71875 138.121094 L 843.347656 127.949219 L 842.71875 127.679688 M 815.449219 111.570312 C 815.71875 108.78125 816.347656 105 819.769531 102.839844 C 820.847656 102.121094 822.109375 101.851562 823.371094 101.851562 C 826.339844 101.851562 828.140625 103.378906 829.128906 105 C 830.390625 106.980469 830.480469 109.140625 830.480469 111.210938 Z M 847.9375 141 "/>
<path fill-rule="nonzero" fill="rgb(34.901961%, 14.901961%, 14.901961%)" fill-opacity="1" d="M 385.519531 261 C 393.890625 261.179688 404.238281 261.359375 410.988281 256.679688 C 416.929688 252.449219 418.550781 246.511719 418.550781 241.46875 C 418.550781 235.710938 416.117188 230.398438 410.988281 227.878906 C 409.277344 226.980469 407.300781 226.621094 405.410156 226.261719 C 408.46875 225 412.070312 223.378906 414.410156 218.609375 C 415.398438 216.539062 415.847656 214.378906 415.847656 212.308594 C 415.847656 209.429688 415.128906 205.46875 412.25 202.230469 C 408.46875 198.179688 402.617188 197.101562 393.800781 197.101562 C 390.738281 197.101562 385.25 197.191406 382.1875 197.28125 L 369.589844 197.460938 L 369.050781 198 C 369.410156 206.640625 369.5 209.96875 369.5 222.390625 C 369.5 235.171875 369.410156 247.859375 369.230469 260.640625 L 369.859375 261 L 385.519531 261 M 384.890625 233.640625 C 391.730469 233.460938 395.6875 233.460938 398.300781 234.988281 C 400.910156 236.609375 401.898438 239.488281 401.898438 242.371094 C 401.898438 246.421875 399.648438 248.941406 396.320312 250.109375 C 393.617188 251.011719 388.757812 251.011719 384.890625 250.921875 L 384.890625 233.640625 M 384.890625 207.179688 C 386.777344 207.179688 389.300781 207.089844 390.828125 207.089844 C 395.6875 207.089844 400.097656 208.800781 400.097656 214.648438 C 400.097656 219.421875 396.589844 221.398438 395.507812 221.941406 C 393.257812 222.929688 388.488281 222.929688 384.890625 222.929688 Z M 466.878906 247.679688 C 463.460938 249.480469 459.410156 251.550781 452.839844 251.550781 C 447.441406 251.550781 443.75 249.839844 441.589844 246.601562 C 440.238281 244.710938 439.96875 242.910156 439.609375 241.109375 L 468.679688 240.570312 L 469.21875 239.941406 C 469.128906 235.53125 469.039062 231.03125 467.78125 226.53125 C 464.628906 215.910156 457.699219 213.75 454.640625 213.03125 C 452.390625 212.398438 450.320312 212.21875 448.25 212.21875 C 434.121094 212.21875 424.757812 221.488281 424.757812 237.058594 C 424.757812 241.289062 425.480469 245.699219 426.917969 248.851562 C 432.140625 261 444.378906 262.078125 450.859375 262.078125 C 458.328125 262.078125 461.570312 260.730469 466.339844 258.839844 L 466.878906 258.121094 L 467.507812 247.949219 L 466.878906 247.679688 M 439.609375 231.570312 C 439.878906 228.78125 440.507812 225 443.929688 222.839844 C 445.007812 222.121094 446.269531 221.851562 447.53125 221.851562 C 450.5 221.851562 452.300781 223.378906 453.289062 225 C 454.550781 226.980469 454.640625 229.140625 454.640625 231.210938 Z M 517.546875 234.179688 C 517.636719 226.078125 517.636719 222.570312 515.296875 218.789062 C 513.496094 215.910156 509.898438 212.308594 498.378906 212.308594 C 490.636719 212.308594 485.867188 213.75 480.738281 215.28125 L 480.199219 216 L 479.746094 225.808594 L 480.46875 226.171875 C 483.617188 224.910156 489.46875 222.570312 495.496094 222.570312 C 498.828125 222.570312 500.175781 223.109375 501.347656 224.28125 C 502.246094 225.179688 502.519531 226.800781 502.519531 228.148438 C 491.71875 229.589844 486.675781 230.578125 481.277344 233.910156 C 476.238281 237.058594 474.527344 242.191406 474.527344 246.238281 C 474.527344 255.871094 481.457031 262.078125 490.277344 262.078125 C 497.027344 262.078125 500.898438 258.839844 502.789062 257.308594 L 502.789062 260.640625 L 503.328125 261.269531 C 509.808594 261 511.789062 260.910156 517.636719 261 L 518.085938 260.371094 C 517.457031 251.550781 517.457031 249.300781 517.457031 240.839844 L 517.546875 234.179688 M 502.699219 248.488281 C 500.808594 249.570312 498.378906 250.828125 495.40625 250.828125 C 492.167969 250.828125 489.46875 249.121094 489.46875 245.339844 C 489.46875 239.398438 496.578125 238.410156 502.699219 237.601562 Z M 563.269531 248.039062 C 560.839844 249.480469 558.5 250.921875 553.910156 250.921875 C 543.738281 250.921875 541.667969 242.460938 541.667969 237.058594 C 541.667969 230.488281 544.550781 222.929688 553.28125 222.929688 C 557.238281 222.929688 559.398438 224.371094 562.101562 226.171875 L 563 225.898438 C 563.359375 221.128906 563.449219 219.871094 564.167969 215.101562 L 563.71875 214.558594 C 559.757812 213.300781 556.339844 212.21875 551.121094 212.21875 C 529.96875 212.21875 525.828125 228.238281 525.828125 237.421875 C 525.828125 247.769531 531.230469 261.808594 551.480469 261.808594 C 556.25 261.808594 559.308594 260.910156 563.089844 259.828125 L 563.628906 259.289062 L 563.988281 248.488281 Z M 615.289062 260.371094 C 614.929688 252.988281 614.839844 250.46875 614.660156 241.109375 L 614.660156 234.359375 C 614.570312 225.808594 614.480469 220.859375 611.867188 217.078125 C 609.257812 213.390625 605.480469 212.21875 601.519531 212.21875 C 594.949219 212.21875 589.820312 215.371094 586.21875 217.53125 L 586.488281 189.808594 L 585.949219 189.179688 L 570.558594 191.609375 L 570.109375 192.148438 C 570.917969 200.878906 571.097656 204.121094 571.277344 215.730469 C 571.460938 223.019531 571.550781 230.308594 571.550781 237.601562 C 571.550781 246.511719 571.367188 251.820312 571.1875 260.640625 L 571.640625 261.269531 C 578.300781 260.910156 579.648438 260.910156 586.9375 260.910156 L 587.480469 260.371094 C 586.847656 246.871094 586.757812 242.820312 586.667969 226.890625 C 588.378906 225.71875 590.539062 224.191406 593.597656 224.191406 C 598.550781 224.191406 598.910156 229.320312 599.269531 232.921875 C 599.449219 235.710938 599.539062 248.488281 599.539062 251.820312 C 599.539062 254.789062 599.449219 257.671875 599.449219 260.640625 L 599.898438 261.269531 C 606.378906 260.910156 607.820312 260.910156 614.75 260.910156 Z M 620.148438 261 "/>
</svg>
