<?xml version="1.0" encoding="UTF-8"?>
<svg xmlns="http://www.w3.org/2000/svg" xmlns:xlink="http://www.w3.org/1999/xlink" width="975" height="1300" viewBox="0 0 975 1300">
<path fill-rule="nonzero" fill="rgb(98.823529%, 78.823529%, 9.019608%)" fill-opacity="1" d="M 50 50 L 925 50 L 925 290 L 50 290 Z M 50 50 "/>
<path fill-rule="nonzero" fill="rgb(34.901961%, 14.901961%, 14.901961%)" fill-opacity="1" d="M 180.546875 128.671875 C 170.734375 129.210938 162.90625 129.390625 160.207031 129.390625 L 158.40625 129.390625 C 158.226562 105.359375 158.316406 99.238281 159.035156 77.730469 L 158.496094 77.191406 C 150.753906 77.550781 148.683594 77.550781 142.476562 77.460938 L 141.933594 78 C 142.296875 85.199219 142.386719 87.359375 142.386719 98.070312 C 142.386719 112.289062 142.296875 126.511719 142.296875 140.730469 L 142.746094 141.269531 C 160.386719 141 163.625 141 179.824219 141 L 180.273438 140.460938 L 180.996094 129.121094 Z M 228.785156 114.179688 C 228.875 106.078125 228.875 102.570312 226.535156 98.789062 C 224.734375 95.910156 221.136719 92.308594 209.617188 92.308594 C 201.875 92.308594 197.105469 93.75 191.976562 95.28125 L 191.4375 96 L 190.984375 105.808594 L 191.707031 106.171875 C 194.855469 104.910156 200.707031 102.570312 206.734375 102.570312 C 210.066406 102.570312 211.414062 103.109375 212.585938 104.28125 C 213.484375 105.179688 213.757812 106.800781 213.757812 108.148438 C 202.957031 109.589844 197.914062 110.578125 192.515625 113.910156 C 187.476562 117.058594 185.765625 122.191406 185.765625 126.238281 C 185.765625 135.871094 192.695312 142.078125 201.515625 142.078125 C 208.265625 142.078125 212.136719 138.839844 214.027344 137.308594 L 214.027344 140.640625 L 214.566406 141.269531 C 221.046875 141 223.027344 140.910156 228.875 141 L 229.324219 140.371094 C 228.695312 131.550781 228.695312 129.300781 228.695312 120.839844 L 228.785156 114.179688 M 213.9375 128.488281 C 212.046875 129.570312 209.617188 130.828125 206.644531 130.828125 C 203.40625 130.828125 200.707031 129.121094 200.707031 125.339844 C 200.707031 119.398438 207.816406 118.410156 213.9375 117.601562 Z M 285.574219 139.828125 C 277.113281 125.519531 276.214844 123.898438 269.375 111.570312 C 275.585938 103.109375 276.214844 102.210938 282.605469 94.019531 L 282.152344 93.121094 L 267.484375 93.300781 L 266.585938 93.929688 C 259.5625 106.078125 258.664062 107.519531 254.523438 113.730469 L 254.523438 103.738281 C 254.613281 86.910156 254.703125 83.308594 255.152344 69.71875 L 254.433594 69.179688 L 238.773438 71.519531 L 238.234375 72.148438 C 238.863281 80.878906 239.132812 85.109375 239.3125 96.898438 C 239.492188 111.480469 239.492188 126.058594 239.402344 140.640625 L 240.035156 141.269531 C 246.0625 141 247.773438 141 254.613281 141 L 255.152344 140.371094 L 254.613281 125.160156 L 254.523438 114.808594 C 262.355469 129.210938 263.34375 131.191406 267.933594 140.730469 L 268.742188 141.269531 L 284.945312 140.640625 Z M 329.855469 127.679688 C 326.4375 129.480469 322.386719 131.550781 315.816406 131.550781 C 310.417969 131.550781 306.726562 129.839844 304.566406 126.601562 C 303.214844 124.710938 302.945312 122.910156 302.585938 121.109375 L 331.65625 120.570312 L 332.195312 119.941406 C 332.105469 115.53125 332.015625 111.03125 330.757812 106.53125 C 327.605469 95.910156 320.675781 93.75 317.617188 93.03125 C 315.367188 92.398438 313.296875 92.21875 311.226562 92.21875 C 297.097656 92.21875 287.734375 101.488281 287.734375 117.058594 C 287.734375 121.289062 288.457031 125.699219 289.894531 128.851562 C 295.117188 141 307.355469 142.078125 313.835938 142.078125 C 321.304688 142.078125 324.546875 140.730469 329.316406 138.839844 L 329.855469 138.121094 L 330.484375 127.949219 L 329.855469 127.679688 M 302.585938 111.570312 C 302.855469 108.78125 303.484375 105 306.90625 102.839844 C 307.984375 102.121094 309.246094 101.851562 310.507812 101.851562 C 313.476562 101.851562 315.277344 103.378906 316.265625 105 C 317.527344 106.980469 317.617188 109.140625 317.617188 111.210938 Z M 378.816406 77.28125 L 367.386719 77.460938 L 366.84375 78 C 367.207031 89.699219 367.476562 97.53125 367.476562 107.878906 C 367.476562 118.859375 367.207031 129.75 366.933594 140.730469 L 367.476562 141.269531 C 374.136719 141 375.574219 140.910156 382.777344 141 L 383.226562 140.460938 C 382.867188 130.648438 382.867188 128.398438 382.867188 119.21875 C 392.945312 119.308594 403.746094 119.308594 410.226562 111.390625 C 412.746094 108.328125 414.90625 103.199219 414.90625 96.898438 C 414.90625 93.03125 414.003906 84.480469 406.535156 80.25 C 401.136719 77.101562 393.484375 77.101562 386.734375 77.101562 L 378.816406 77.28125 M 382.867188 88.171875 C 384.84375 88.078125 386.734375 88.078125 388.714844 88.078125 C 396.636719 88.261719 398.796875 92.308594 398.796875 97.53125 C 398.796875 98.789062 398.796875 104.011719 394.027344 106.621094 C 391.59375 107.96875 388.265625 108.148438 382.867188 108.148438 Z M 461.074219 127.679688 C 457.65625 129.480469 453.605469 131.550781 447.035156 131.550781 C 441.636719 131.550781 437.945312 129.839844 435.785156 126.601562 C 434.433594 124.710938 434.164062 122.910156 433.804688 121.109375 L 462.875 120.570312 L 463.414062 119.941406 C 463.324219 115.53125 463.234375 111.03125 461.976562 106.53125 C 458.824219 95.910156 451.894531 93.75 448.835938 93.03125 C 446.585938 92.398438 444.515625 92.21875 442.445312 92.21875 C 428.316406 92.21875 418.953125 101.488281 418.953125 117.058594 C 418.953125 121.289062 419.675781 125.699219 421.113281 128.851562 C 426.335938 141 438.574219 142.078125 445.054688 142.078125 C 452.523438 142.078125 455.765625 140.730469 460.535156 138.839844 L 461.074219 138.121094 L 461.703125 127.949219 L 461.074219 127.679688 M 433.804688 111.570312 C 434.074219 108.78125 434.703125 105 438.125 102.839844 C 439.203125 102.121094 440.464844 101.851562 441.726562 101.851562 C 444.695312 101.851562 446.496094 103.378906 447.484375 105 C 448.746094 106.980469 448.835938 109.140625 448.835938 111.210938 Z M 497.707031 107.609375 L 500.226562 92.941406 L 499.6875 92.308594 C 499.058594 92.308594 498.425781 92.21875 497.796875 92.21875 C 494.105469 92.21875 489.96875 94.289062 487.085938 100.949219 L 487.355469 92.671875 L 486.636719 91.949219 C 479.976562 93.390625 478.265625 93.660156 471.695312 94.648438 L 471.15625 95.191406 C 471.695312 101.941406 471.96875 105.988281 471.96875 118.5 C 471.96875 125.878906 471.875 133.261719 471.695312 140.730469 L 472.238281 141.269531 C 478.898438 141 480.335938 140.910156 487.535156 141 L 487.988281 140.371094 C 487.625 133.078125 487.085938 122.910156 487.085938 116.699219 C 487.085938 112.648438 487.085938 106.710938 493.207031 106.710938 C 494.738281 106.710938 495.636719 107.25 496.898438 107.96875 Z M 531.457031 107.609375 L 533.976562 92.941406 L 533.4375 92.308594 C 532.808594 92.308594 532.175781 92.21875 531.546875 92.21875 C 527.855469 92.21875 523.71875 94.289062 520.835938 100.949219 L 521.105469 92.671875 L 520.386719 91.949219 C 513.726562 93.390625 512.015625 93.660156 505.445312 94.648438 L 504.90625 95.191406 C 505.445312 101.941406 505.71875 105.988281 505.71875 118.5 C 505.71875 125.878906 505.625 133.261719 505.445312 140.730469 L 505.988281 141.269531 C 512.648438 141 514.085938 140.910156 521.285156 141 L 521.738281 140.371094 C 521.375 133.078125 520.835938 122.910156 520.835938 116.699219 C 520.835938 112.648438 520.835938 106.710938 526.957031 106.710938 C 528.488281 106.710938 529.386719 107.25 530.648438 107.96875 Z M 555.488281 140.371094 C 555.035156 133.441406 554.675781 128.128906 554.675781 115.710938 C 554.675781 108.058594 554.855469 100.320312 554.945312 92.671875 L 554.316406 91.949219 L 538.835938 94.648438 L 538.296875 95.191406 C 539.015625 102.03125 539.285156 105.179688 539.285156 117.960938 C 539.285156 127.769531 539.015625 133.261719 538.746094 140.640625 L 539.285156 141.269531 C 545.765625 141 547.566406 140.910156 554.855469 141 L 555.488281 140.371094 M 554.046875 83.308594 L 554.316406 71.070312 L 553.777344 70.53125 L 539.105469 72.328125 L 538.566406 72.960938 C 538.746094 76.199219 538.835938 78.089844 538.835938 80.25 C 538.835938 81.960938 538.835938 83.761719 538.746094 85.46875 L 539.375 86.011719 C 545.496094 84.929688 547.207031 84.75 553.597656 83.941406 Z M 584.375 109.949219 C 581.3125 108.871094 578.882812 107.878906 578.882812 105.359375 C 578.882812 104.28125 579.605469 101.308594 585.183594 101.308594 C 590.675781 101.308594 594.183594 103.648438 596.433594 105.089844 L 597.246094 104.820312 L 598.144531 95.011719 L 597.695312 94.46875 C 593.464844 93.300781 589.773438 92.21875 583.925781 92.21875 C 579.515625 92.21875 570.695312 92.578125 566.015625 99.328125 C 564.84375 100.949219 563.585938 103.648438 563.585938 107.25 C 563.585938 116.878906 571.054688 119.761719 575.285156 121.378906 L 578.703125 122.640625 C 581.132812 123.449219 585.09375 124.800781 585.09375 128.039062 C 585.09375 130.289062 583.023438 132.71875 577.984375 132.71875 C 575.464844 132.71875 571.773438 131.910156 568.445312 130.199219 C 566.914062 129.390625 566.195312 128.761719 564.84375 127.679688 L 564.035156 128.039062 C 563.855469 132.71875 563.765625 133.710938 563.402344 138.210938 L 563.855469 139.019531 C 568.265625 140.640625 572.042969 142.078125 578.613281 142.078125 C 585.453125 142.078125 598.953125 140.820312 600.574219 127.949219 C 600.664062 127.230469 600.664062 126.601562 600.664062 125.96875 C 600.664062 116.070312 593.734375 113.460938 588.785156 111.570312 Z M 660.875 102.300781 C 653.316406 99.148438 649.355469 97.53125 649.355469 93.480469 C 649.355469 90.691406 651.964844 87.179688 657.90625 87.179688 C 664.746094 87.179688 668.792969 89.96875 672.125 92.21875 L 672.933594 91.859375 L 673.65625 80.070312 L 673.203125 79.441406 C 669.335938 77.820312 665.285156 76.109375 656.554688 76.109375 C 639.636719 76.109375 633.785156 85.648438 633.785156 95.28125 C 633.785156 106.171875 642.246094 110.128906 647.285156 112.558594 L 650.253906 113.910156 C 656.464844 116.519531 661.234375 118.769531 661.234375 123.539062 C 661.234375 126.960938 658.265625 131.011719 650.433594 131.011719 C 642.246094 131.011719 637.65625 127.410156 635.042969 125.339844 L 634.144531 125.609375 L 633.515625 138.300781 L 634.054688 139.019531 C 635.042969 139.378906 636.035156 139.828125 637.023438 140.101562 C 639.09375 140.820312 644.40625 142.351562 651.15625 142.351562 C 653.855469 142.351562 660.695312 142.078125 666.09375 139.558594 C 673.65625 135.871094 676.894531 129.03125 676.894531 121.378906 C 676.894531 116.25 674.914062 110.761719 670.144531 107.070312 C 667.714844 105.269531 665.375 104.191406 663.214844 103.199219 Z M 710.648438 130.648438 C 709.117188 131.101562 708.035156 131.460938 706.507812 131.460938 C 701.917969 131.460938 701.558594 128.578125 701.375 127.230469 C 701.105469 124.890625 701.105469 119.941406 701.195312 116.339844 L 701.375 103.648438 L 709.476562 104.011719 L 710.015625 103.46875 L 710.917969 93.839844 L 710.375 93.300781 L 701.375 93.300781 L 701.648438 78.179688 L 701.015625 77.640625 C 694.898438 79.441406 693.277344 79.890625 686.886719 81.511719 L 686.527344 82.140625 L 686.617188 93.390625 L 681.757812 93.210938 L 681.21875 93.660156 L 680.40625 103.289062 L 680.945312 103.828125 L 686.617188 103.648438 L 686.347656 117.960938 C 686.257812 120.210938 686.167969 122.460938 686.167969 124.800781 C 686.167969 133.078125 686.347656 141.988281 700.386719 141.988281 C 703.898438 141.988281 706.6875 141.449219 709.835938 140.910156 L 710.46875 140.28125 L 711.367188 131.011719 Z M 757.355469 114.179688 C 757.445312 106.078125 757.445312 102.570312 755.105469 98.789062 C 753.304688 95.910156 749.707031 92.308594 738.1875 92.308594 C 730.445312 92.308594 725.675781 93.75 720.546875 95.28125 L 720.007812 96 L 719.554688 105.808594 L 720.277344 106.171875 C 723.425781 104.910156 729.277344 102.570312 735.304688 102.570312 C 738.636719 102.570312 739.984375 103.109375 741.15625 104.28125 C 742.054688 105.179688 742.328125 106.800781 742.328125 108.148438 C 731.527344 109.589844 726.484375 110.578125 721.085938 113.910156 C 716.046875 117.058594 714.335938 122.191406 714.335938 126.238281 C 714.335938 135.871094 721.265625 142.078125 730.085938 142.078125 C 736.835938 142.078125 740.707031 138.839844 742.597656 137.308594 L 742.597656 140.640625 L 743.136719 141.269531 C 749.617188 141 751.597656 140.910156 757.445312 141 L 757.894531 140.371094 C 757.265625 131.550781 757.265625 129.300781 757.265625 120.839844 L 757.355469 114.179688 M 742.507812 128.488281 C 740.617188 129.570312 738.1875 130.828125 735.214844 130.828125 C 731.976562 130.828125 729.277344 129.121094 729.277344 125.339844 C 729.277344 119.398438 736.386719 118.410156 742.507812 117.601562 Z M 793.085938 130.648438 C 791.554688 131.101562 790.472656 131.460938 788.945312 131.460938 C 784.355469 131.460938 783.996094 128.578125 783.8125 127.230469 C 783.542969 124.890625 783.542969 119.941406 783.632812 116.339844 L 783.8125 103.648438 L 791.914062 104.011719 L 792.453125 103.46875 L 793.355469 93.839844 L 792.8125 93.300781 L 783.8125 93.300781 L 784.085938 78.179688 L 783.453125 77.640625 C 777.335938 79.441406 775.714844 79.890625 769.324219 81.511719 L 768.964844 82.140625 L 769.054688 93.390625 L 764.195312 93.210938 L 763.65625 93.660156 L 762.84375 103.289062 L 763.382812 103.828125 L 769.054688 103.648438 L 768.785156 117.960938 C 768.695312 120.210938 768.605469 122.460938 768.605469 124.800781 C 768.605469 133.078125 768.785156 141.988281 782.824219 141.988281 C 786.335938 141.988281 789.125 141.449219 792.273438 140.910156 L 792.90625 140.28125 L 793.804688 131.011719 Z M 839.703125 127.679688 C 836.285156 129.480469 832.234375 131.550781 825.664062 131.550781 C 820.265625 131.550781 816.574219 129.839844 814.414062 126.601562 C 813.0625 124.710938 812.792969 122.910156 812.433594 121.109375 L 841.503906 120.570312 L 842.042969 119.941406 C 841.953125 115.53125 841.863281 111.03125 840.605469 106.53125 C 837.453125 95.910156 830.523438 93.75 827.464844 93.03125 C 825.214844 92.398438 823.144531 92.21875 821.074219 92.21875 C 806.945312 92.21875 797.582031 101.488281 797.582031 117.058594 C 797.582031 121.289062 798.304688 125.699219 799.742188 128.851562 C 804.964844 141 817.203125 142.078125 823.683594 142.078125 C 831.152344 142.078125 834.394531 140.730469 839.164062 138.839844 L 839.703125 138.121094 L 840.332031 127.949219 L 839.703125 127.679688 M 812.433594 111.570312 C 812.703125 108.78125 813.332031 105 816.753906 102.839844 C 817.832031 102.121094 819.09375 101.851562 820.355469 101.851562 C 823.324219 101.851562 825.125 103.378906 826.113281 105 C 827.375 106.980469 827.464844 109.140625 827.464844 111.210938 Z M 844.925781 141 "/>
<path fill-rule="nonzero" fill="rgb(34.901961%, 14.901961%, 14.901961%)" fill-opacity="1" d="M 180.769531 236.25 C 186.800781 246.511719 188.152344 249.210938 193.910156 261 L 194.632812 261.449219 C 197.421875 261.269531 200.121094 261.089844 202.910156 261 C 205.703125 260.910156 208.582031 260.820312 211.371094 260.820312 L 211.910156 259.738281 C 208.492188 255.328125 207.5 253.980469 201.019531 243.628906 C 198.140625 239.039062 196.703125 236.609375 194.453125 232.648438 C 198.5 230.851562 206.691406 227.070312 206.691406 215.640625 C 206.691406 211.679688 205.609375 203.488281 198.230469 199.621094 C 193.550781 197.191406 188.691406 197.101562 178.160156 197.28125 L 171.859375 197.371094 L 160.882812 197.371094 L 160.429688 197.910156 C 160.792969 207 161.152344 216.359375 161.152344 240.839844 C 161.152344 249.210938 161.0625 253.261719 160.792969 260.730469 L 161.332031 261.269531 C 167.902344 261 169.339844 260.910156 176.722656 261 L 177.261719 260.460938 C 176.542969 250.019531 176.453125 247.140625 176.359375 236.429688 L 180.769531 236.25 M 176.542969 208.261719 C 177.800781 208.171875 179.0625 208.171875 180.320312 208.171875 C 183.832031 208.171875 190.761719 208.171875 190.761719 216.089844 C 190.761719 218.609375 190.132812 221.941406 186.800781 224.011719 C 184.28125 225.539062 181.042969 225.71875 176.542969 225.808594 Z M 256.640625 247.679688 C 253.222656 249.480469 249.171875 251.550781 242.601562 251.550781 C 237.203125 251.550781 233.511719 249.839844 231.351562 246.601562 C 230 244.710938 229.730469 242.910156 229.371094 241.109375 L 258.441406 240.570312 L 258.980469 239.941406 C 258.890625 235.53125 258.800781 231.03125 257.542969 226.53125 C 254.390625 215.910156 247.460938 213.75 244.402344 213.03125 C 242.152344 212.398438 240.082031 212.21875 238.011719 212.21875 C 223.882812 212.21875 214.519531 221.488281 214.519531 237.058594 C 214.519531 241.289062 215.242188 245.699219 216.679688 248.851562 C 221.902344 261 234.140625 262.078125 240.621094 262.078125 C 248.089844 262.078125 251.332031 260.730469 256.101562 258.839844 L 256.640625 258.121094 L 257.269531 247.949219 L 256.640625 247.679688 M 229.371094 231.570312 C 229.640625 228.78125 230.269531 225 233.691406 222.839844 C 234.769531 222.121094 236.03125 221.851562 237.292969 221.851562 C 240.261719 221.851562 242.0625 223.378906 243.050781 225 C 244.3125 226.980469 244.402344 229.140625 244.402344 231.210938 Z M 302.449219 248.039062 C 300.019531 249.480469 297.679688 250.921875 293.089844 250.921875 C 282.917969 250.921875 280.847656 242.460938 280.847656 237.058594 C 280.847656 230.488281 283.730469 222.929688 292.460938 222.929688 C 296.417969 222.929688 298.578125 224.371094 301.28125 226.171875 L 302.179688 225.898438 C 302.539062 221.128906 302.628906 219.871094 303.347656 215.101562 L 302.898438 214.558594 C 298.9375 213.300781 295.519531 212.21875 290.300781 212.21875 C 269.148438 212.21875 265.007812 228.238281 265.007812 237.421875 C 265.007812 247.769531 270.410156 261.808594 290.660156 261.808594 C 295.429688 261.808594 298.488281 260.910156 302.269531 259.828125 L 302.808594 259.289062 L 303.167969 248.488281 Z M 336.382812 227.609375 L 338.902344 212.941406 L 338.363281 212.308594 C 337.734375 212.308594 337.101562 212.21875 336.472656 212.21875 C 332.78125 212.21875 328.644531 214.289062 325.761719 220.949219 L 326.03125 212.671875 L 325.3125 211.949219 C 318.652344 213.390625 316.941406 213.660156 310.371094 214.648438 L 309.832031 215.191406 C 310.371094 221.941406 310.644531 225.988281 310.644531 238.5 C 310.644531 245.878906 310.550781 253.261719 310.371094 260.730469 L 310.914062 261.269531 C 317.574219 261 319.011719 260.910156 326.210938 261 L 326.664062 260.371094 C 326.300781 253.078125 325.761719 242.910156 325.761719 236.699219 C 325.761719 232.648438 325.761719 226.710938 331.882812 226.710938 C 333.414062 226.710938 334.3125 227.25 335.574219 227.96875 Z M 384.082031 247.679688 C 380.664062 249.480469 376.613281 251.550781 370.042969 251.550781 C 364.644531 251.550781 360.953125 249.839844 358.792969 246.601562 C 357.441406 244.710938 357.171875 242.910156 356.8125 241.109375 L 385.882812 240.570312 L 386.421875 239.941406 C 386.332031 235.53125 386.242188 231.03125 384.984375 226.53125 C 381.832031 215.910156 374.902344 213.75 371.84375 213.03125 C 369.59375 212.398438 367.523438 212.21875 365.453125 212.21875 C 351.324219 212.21875 341.960938 221.488281 341.960938 237.058594 C 341.960938 241.289062 342.683594 245.699219 344.121094 248.851562 C 349.34375 261 361.582031 262.078125 368.0625 262.078125 C 375.53125 262.078125 378.773438 260.730469 383.542969 258.839844 L 384.082031 258.121094 L 384.710938 247.949219 L 384.082031 247.679688 M 356.8125 231.570312 C 357.082031 228.78125 357.710938 225 361.132812 222.839844 C 362.210938 222.121094 363.472656 221.851562 364.734375 221.851562 C 367.703125 221.851562 369.503906 223.378906 370.492188 225 C 371.753906 226.980469 371.84375 229.140625 371.84375 231.210938 Z M 434.75 234.179688 C 434.839844 226.078125 434.839844 222.570312 432.5 218.789062 C 430.699219 215.910156 427.101562 212.308594 415.582031 212.308594 C 407.839844 212.308594 403.070312 213.75 397.941406 215.28125 L 397.402344 216 L 396.949219 225.808594 L 397.671875 226.171875 C 400.820312 224.910156 406.671875 222.570312 412.699219 222.570312 C 416.03125 222.570312 417.378906 223.109375 418.550781 224.28125 C 419.449219 225.179688 419.722656 226.800781 419.722656 228.148438 C 408.921875 229.589844 403.878906 230.578125 398.480469 233.910156 C 393.441406 237.058594 391.730469 242.191406 391.730469 246.238281 C 391.730469 255.871094 398.660156 262.078125 407.480469 262.078125 C 414.230469 262.078125 418.101562 258.839844 419.992188 257.308594 L 419.992188 260.640625 L 420.53125 261.269531 C 427.011719 261 428.992188 260.910156 434.839844 261 L 435.289062 260.371094 C 434.660156 251.550781 434.660156 249.300781 434.660156 240.839844 L 434.75 234.179688 M 419.902344 248.488281 C 418.011719 249.570312 415.582031 250.828125 412.609375 250.828125 C 409.371094 250.828125 406.671875 249.121094 406.671875 245.339844 C 406.671875 239.398438 413.78125 238.410156 419.902344 237.601562 Z M 470.484375 250.648438 C 468.953125 251.101562 467.871094 251.460938 466.34375 251.460938 C 461.753906 251.460938 461.394531 248.578125 461.210938 247.230469 C 460.941406 244.890625 460.941406 239.941406 461.03125 236.339844 L 461.210938 223.648438 L 469.3125 224.011719 L 469.851562 223.46875 L 470.753906 213.839844 L 470.210938 213.300781 L 461.210938 213.300781 L 461.484375 198.179688 L 460.851562 197.640625 C 454.734375 199.441406 453.113281 199.890625 446.722656 201.511719 L 446.363281 202.140625 L 446.453125 213.390625 L 441.59375 213.210938 L 441.054688 213.660156 L 440.242188 223.289062 L 440.78125 223.828125 L 446.453125 223.648438 L 446.183594 237.960938 C 446.09375 240.210938 446.003906 242.460938 446.003906 244.800781 C 446.003906 253.078125 446.183594 261.988281 460.222656 261.988281 C 463.734375 261.988281 466.523438 261.449219 469.671875 260.910156 L 470.304688 260.28125 L 471.203125 251.011719 Z M 493.433594 260.371094 C 492.980469 253.441406 492.621094 248.128906 492.621094 235.710938 C 492.621094 228.058594 492.800781 220.320312 492.890625 212.671875 L 492.261719 211.949219 L 476.78125 214.648438 L 476.242188 215.191406 C 476.960938 222.03125 477.230469 225.179688 477.230469 237.960938 C 477.230469 247.769531 476.960938 253.261719 476.691406 260.640625 L 477.230469 261.269531 C 483.710938 261 485.511719 260.910156 492.800781 261 L 493.433594 260.371094 M 491.992188 203.308594 L 492.261719 191.070312 L 491.722656 190.53125 L 477.050781 192.328125 L 476.511719 192.960938 C 476.691406 196.199219 476.78125 198.089844 476.78125 200.25 C 476.78125 201.960938 476.78125 203.761719 476.691406 205.46875 L 477.320312 206.011719 C 483.441406 204.929688 485.152344 204.75 491.542969 203.941406 Z M 549.230469 237.058594 C 549.230469 233.550781 549.230469 218.96875 536.628906 214.019531 C 532.667969 212.488281 527.988281 212.308594 525.648438 212.308594 C 509.988281 212.308594 501.167969 220.679688 501.167969 237.238281 C 501.167969 243 502.070312 248.851562 505.398438 253.710938 C 507.738281 257.21875 512.148438 262.078125 525.019531 262.078125 C 544.097656 262.078125 549.230469 250.558594 549.230469 237.058594 M 533.660156 236.96875 C 533.660156 244.351562 532.667969 252.539062 525.199219 252.539062 C 522.859375 252.539062 521.238281 251.460938 520.160156 250.46875 C 518.628906 248.941406 516.917969 245.878906 516.917969 237.148438 C 516.917969 234.539062 516.917969 228.78125 518.71875 225.628906 C 520.070312 223.199219 522.410156 221.578125 525.289062 221.578125 C 527.808594 221.578125 529.878906 222.929688 531.050781 224.371094 C 533.210938 226.980469 533.660156 232.109375 533.660156 236.96875 Z M 601.882812 260.371094 C 601.433594 252.449219 601.433594 249.929688 601.253906 241.109375 L 601.253906 234.089844 C 601.164062 225.449219 601.074219 221.308594 598.824219 217.621094 C 596.03125 212.941406 590.902344 212.21875 587.664062 212.21875 C 582.171875 212.21875 577.402344 215.101562 573.261719 217.53125 L 573.441406 212.578125 L 572.542969 211.949219 C 565.613281 213.390625 564.082031 213.660156 557.332031 214.558594 L 556.792969 215.191406 C 557.511719 223.019531 558.054688 228.691406 558.054688 243.359375 C 558.054688 249.121094 557.960938 254.878906 557.871094 260.640625 L 558.414062 261.179688 C 564.894531 260.910156 566.242188 260.910156 573.441406 260.910156 L 573.984375 260.371094 C 573.441406 246.511719 573.351562 243 573.261719 226.890625 C 575.152344 225.628906 577.3125 224.101562 580.191406 224.101562 C 585.144531 224.101562 585.59375 229.410156 585.863281 232.648438 C 586.042969 235.621094 586.132812 247.949219 586.132812 251.371094 C 586.132812 254.429688 586.042969 257.578125 586.042969 260.640625 L 586.582031 261.179688 C 592.523438 261 594.054688 260.910156 601.253906 260.910156 Z M 674.78125 197.191406 C 666.140625 197.460938 664.339844 197.460938 654.710938 197.460938 L 654.078125 198 C 649.308594 213.300781 646.429688 222.390625 633.199219 260.371094 L 633.558594 261 L 647.597656 261 L 648.230469 260.460938 L 652.640625 244.078125 L 672.078125 244.078125 L 675.949219 260.730469 L 676.578125 261.269531 C 683.148438 261 684.949219 260.910156 692.238281 261 L 692.691406 260.28125 C 681.800781 221.761719 680.539062 217.53125 675.410156 197.730469 L 674.78125 197.191406 M 655.789062 233.191406 L 660.289062 217.980469 L 663.441406 207.449219 L 666.140625 219.148438 L 669.46875 233.191406 Z M 724.460938 227.609375 L 726.980469 212.941406 L 726.441406 212.308594 C 725.8125 212.308594 725.179688 212.21875 724.550781 212.21875 C 720.859375 212.21875 716.722656 214.289062 713.839844 220.949219 L 714.109375 212.671875 L 713.390625 211.949219 C 706.730469 213.390625 705.019531 213.660156 698.449219 214.648438 L 697.910156 215.191406 C 698.449219 221.941406 698.722656 225.988281 698.722656 238.5 C 698.722656 245.878906 698.628906 253.261719 698.449219 260.730469 L 698.992188 261.269531 C 705.652344 261 707.089844 260.910156 714.289062 261 L 714.742188 260.371094 C 714.378906 253.078125 713.839844 242.910156 713.839844 236.699219 C 713.839844 232.648438 713.839844 226.710938 719.960938 226.710938 C 721.492188 226.710938 722.390625 227.25 723.652344 227.96875 Z M 772.160156 247.679688 C 768.742188 249.480469 764.691406 251.550781 758.121094 251.550781 C 752.722656 251.550781 749.03125 249.839844 746.871094 246.601562 C 745.519531 244.710938 745.25 242.910156 744.890625 241.109375 L 773.960938 240.570312 L 774.5 239.941406 C 774.410156 235.53125 774.320312 231.03125 773.0625 226.53125 C 769.910156 215.910156 762.980469 213.75 759.921875 213.03125 C 757.671875 212.398438 755.601562 212.21875 753.53125 212.21875 C 739.402344 212.21875 730.039062 221.488281 730.039062 237.058594 C 730.039062 241.289062 730.761719 245.699219 732.199219 248.851562 C 737.421875 261 749.660156 262.078125 756.140625 262.078125 C 763.609375 262.078125 766.851562 260.730469 771.621094 258.839844 L 772.160156 258.121094 L 772.789062 247.949219 L 772.160156 247.679688 M 744.890625 231.570312 C 745.160156 228.78125 745.789062 225 749.210938 222.839844 C 750.289062 222.121094 751.550781 221.851562 752.8125 221.851562 C 755.78125 221.851562 757.582031 223.378906 758.570312 225 C 759.832031 226.980469 759.921875 229.140625 759.921875 231.210938 Z M 822.832031 234.179688 C 822.921875 226.078125 822.921875 222.570312 820.582031 218.789062 C 818.78125 215.910156 815.183594 212.308594 803.664062 212.308594 C 795.921875 212.308594 791.152344 213.75 786.023438 215.28125 L 785.484375 216 L 785.03125 225.808594 L 785.753906 226.171875 C 788.902344 224.910156 794.753906 222.570312 800.78125 222.570312 C 804.113281 222.570312 805.460938 223.109375 806.632812 224.28125 C 807.53125 225.179688 807.804688 226.800781 807.804688 228.148438 C 797.003906 229.589844 791.960938 230.578125 786.5625 233.910156 C 781.523438 237.058594 779.8125 242.191406 779.8125 246.238281 C 779.8125 255.871094 786.742188 262.078125 795.5625 262.078125 C 802.3125 262.078125 806.183594 258.839844 808.074219 257.308594 L 808.074219 260.640625 L 808.613281 261.269531 C 815.09375 261 817.074219 260.910156 822.921875 261 L 823.371094 260.371094 C 822.742188 251.550781 822.742188 249.300781 822.742188 240.839844 L 822.832031 234.179688 M 807.984375 248.488281 C 806.09375 249.570312 803.664062 250.828125 800.691406 250.828125 C 797.453125 250.828125 794.753906 249.121094 794.753906 245.339844 C 794.753906 239.398438 801.863281 238.410156 807.984375 237.601562 Z M 827.960938 261 "/>
</svg>
