<?xml version="1.0" encoding="UTF-8"?>
<svg xmlns="http://www.w3.org/2000/svg" xmlns:xlink="http://www.w3.org/1999/xlink" width="975" height="1300" viewBox="0 0 975 1300">
<path fill-rule="nonzero" fill="rgb(98.823529%, 78.823529%, 9.019608%)" fill-opacity="1" d="M 50 50 L 925 50 L 925 290 L 50 290 Z M 50 50 "/>
<path fill-rule="nonzero" fill="rgb(34.901961%, 14.901961%, 14.901961%)" fill-opacity="1" d="M 214.203125 124.890625 C 212.132812 126.511719 207.542969 129.929688 200.074219 129.929688 C 189.8125 129.929688 182.613281 122.28125 182.613281 109.5 C 182.613281 101.761719 185.3125 88.171875 199.984375 88.171875 C 206.734375 88.171875 210.421875 90.78125 212.671875 92.488281 L 213.484375 92.308594 L 214.292969 79.890625 L 213.933594 79.441406 C 210.695312 78.179688 205.203125 76.109375 197.285156 76.109375 C 173.972656 76.109375 165.875 94.109375 165.875 109.859375 C 165.875 127.140625 176.402344 142.351562 198.363281 142.351562 C 205.921875 142.351562 210.875 140.371094 213.753906 139.199219 L 214.203125 138.660156 L 214.832031 125.25 Z M 267.664062 117.058594 C 267.664062 113.550781 267.664062 98.96875 255.0625 94.019531 C 251.101562 92.488281 246.421875 92.308594 244.082031 92.308594 C 228.421875 92.308594 219.601562 100.679688 219.601562 117.238281 C 219.601562 123 220.503906 128.851562 223.832031 133.710938 C 226.171875 137.21875 230.582031 142.078125 243.453125 142.078125 C 262.53125 142.078125 267.664062 130.558594 267.664062 117.058594 M 252.09375 116.96875 C 252.09375 124.351562 251.101562 132.539062 243.632812 132.539062 C 241.292969 132.539062 239.671875 131.460938 238.59375 130.46875 C 237.0625 128.941406 235.351562 125.878906 235.351562 117.148438 C 235.351562 114.539062 235.351562 108.78125 237.152344 105.628906 C 238.503906 103.199219 240.84375 101.578125 243.722656 101.578125 C 246.242188 101.578125 248.3125 102.929688 249.484375 104.371094 C 251.644531 106.980469 252.09375 112.109375 252.09375 116.96875 Z M 302.222656 107.609375 L 304.742188 92.941406 L 304.203125 92.308594 C 303.574219 92.308594 302.941406 92.21875 302.3125 92.21875 C 298.621094 92.21875 294.484375 94.289062 291.601562 100.949219 L 291.871094 92.671875 L 291.152344 91.949219 C 284.492188 93.390625 282.78125 93.660156 276.210938 94.648438 L 275.671875 95.191406 C 276.210938 101.941406 276.484375 105.988281 276.484375 118.5 C 276.484375 125.878906 276.390625 133.261719 276.210938 140.730469 L 276.753906 141.269531 C 283.414062 141 284.851562 140.910156 292.050781 141 L 292.503906 140.371094 C 292.140625 133.078125 291.601562 122.910156 291.601562 116.699219 C 291.601562 112.648438 291.601562 106.710938 297.722656 106.710938 C 299.253906 106.710938 300.152344 107.25 301.414062 107.96875 Z M 355.773438 117.058594 C 355.773438 113.550781 355.773438 98.96875 343.171875 94.019531 C 339.210938 92.488281 334.53125 92.308594 332.191406 92.308594 C 316.53125 92.308594 307.710938 100.679688 307.710938 117.238281 C 307.710938 123 308.613281 128.851562 311.941406 133.710938 C 314.28125 137.21875 318.691406 142.078125 331.5625 142.078125 C 350.640625 142.078125 355.773438 130.558594 355.773438 117.058594 M 340.203125 116.96875 C 340.203125 124.351562 339.210938 132.539062 331.742188 132.539062 C 329.402344 132.539062 327.78125 131.460938 326.703125 130.46875 C 325.171875 128.941406 323.460938 125.878906 323.460938 117.148438 C 323.460938 114.539062 323.460938 108.78125 325.261719 105.628906 C 326.613281 103.199219 328.953125 101.578125 331.832031 101.578125 C 334.351562 101.578125 336.421875 102.929688 337.59375 104.371094 C 339.753906 106.980469 340.203125 112.109375 340.203125 116.96875 Z M 408.421875 140.371094 C 407.972656 132.449219 407.972656 129.929688 407.792969 121.109375 L 407.792969 114.089844 C 407.703125 105.449219 407.613281 101.308594 405.363281 97.621094 C 402.570312 92.941406 397.441406 92.21875 394.203125 92.21875 C 388.710938 92.21875 383.941406 95.101562 379.800781 97.53125 L 379.980469 92.578125 L 379.082031 91.949219 C 372.152344 93.390625 370.621094 93.660156 363.871094 94.558594 L 363.332031 95.191406 C 364.050781 103.019531 364.59375 108.691406 364.59375 123.359375 C 364.59375 129.121094 364.5 134.878906 364.410156 140.640625 L 364.953125 141.179688 C 371.433594 140.910156 372.78125 140.910156 379.980469 140.910156 L 380.523438 140.371094 C 379.980469 126.511719 379.890625 123 379.800781 106.890625 C 381.691406 105.628906 383.851562 104.101562 386.730469 104.101562 C 391.683594 104.101562 392.132812 109.410156 392.402344 112.648438 C 392.582031 115.621094 392.671875 127.949219 392.671875 131.371094 C 392.671875 134.429688 392.582031 137.578125 392.582031 140.640625 L 393.121094 141.179688 C 399.0625 141 400.59375 140.910156 407.792969 140.910156 Z M 458.734375 114.179688 C 458.824219 106.078125 458.824219 102.570312 456.484375 98.789062 C 454.683594 95.910156 451.085938 92.308594 439.566406 92.308594 C 431.824219 92.308594 427.054688 93.75 421.925781 95.28125 L 421.386719 96 L 420.933594 105.808594 L 421.65625 106.171875 C 424.804688 104.910156 430.65625 102.570312 436.683594 102.570312 C 440.015625 102.570312 441.363281 103.109375 442.535156 104.28125 C 443.433594 105.179688 443.707031 106.800781 443.707031 108.148438 C 432.90625 109.589844 427.863281 110.578125 422.464844 113.910156 C 417.425781 117.058594 415.714844 122.191406 415.714844 126.238281 C 415.714844 135.871094 422.644531 142.078125 431.464844 142.078125 C 438.214844 142.078125 442.085938 138.839844 443.976562 137.308594 L 443.976562 140.640625 L 444.515625 141.269531 C 450.996094 141 452.976562 140.910156 458.824219 141 L 459.273438 140.371094 C 458.644531 131.550781 458.644531 129.300781 458.644531 120.839844 L 458.734375 114.179688 M 443.886719 128.488281 C 441.996094 129.570312 439.566406 130.828125 436.59375 130.828125 C 433.355469 130.828125 430.65625 129.121094 430.65625 125.339844 C 430.65625 119.398438 437.765625 118.410156 443.886719 117.601562 Z M 539.644531 140.460938 C 539.285156 132.359375 539.015625 126.960938 539.015625 115.171875 C 539.015625 91.410156 539.375 81.601562 539.734375 69.71875 L 539.105469 69.179688 L 524.253906 71.519531 L 523.804688 72.058594 C 524.34375 80.519531 524.433594 82.769531 524.34375 93.03125 C 517.59375 92.851562 509.132812 92.671875 502.292969 98.070312 C 495.996094 102.929688 493.382812 110.398438 493.382812 119.671875 C 493.382812 126.691406 495.273438 133.710938 500.585938 138.121094 C 504.542969 141.359375 509.40625 142.078125 512.375 142.078125 C 518.765625 142.078125 522.09375 139.109375 524.253906 137.21875 L 524.074219 140.730469 L 524.523438 141.269531 C 530.734375 141 532.445312 141 539.195312 141 L 539.644531 140.460938 M 524.34375 103.828125 C 524.433594 115.800781 524.34375 118.140625 524.074219 129.03125 C 522.273438 130.109375 520.472656 131.191406 517.953125 131.191406 C 509.222656 131.191406 509.222656 120.03125 509.222656 118.230469 C 509.222656 111.300781 511.203125 103.558594 521.285156 103.558594 C 522.273438 103.558594 523.085938 103.648438 524.34375 103.828125 Z M 589.863281 127.679688 C 586.445312 129.480469 582.394531 131.550781 575.824219 131.550781 C 570.425781 131.550781 566.734375 129.839844 564.574219 126.601562 C 563.222656 124.710938 562.953125 122.910156 562.59375 121.109375 L 591.664062 120.570312 L 592.203125 119.941406 C 592.113281 115.53125 592.023438 111.03125 590.765625 106.53125 C 587.613281 95.910156 580.683594 93.75 577.625 93.03125 C 575.375 92.398438 573.304688 92.21875 571.234375 92.21875 C 557.105469 92.21875 547.742188 101.488281 547.742188 117.058594 C 547.742188 121.289062 548.464844 125.699219 549.902344 128.851562 C 555.125 141 567.363281 142.078125 573.84375 142.078125 C 581.3125 142.078125 584.554688 140.730469 589.324219 138.839844 L 589.863281 138.121094 L 590.492188 127.949219 L 589.863281 127.679688 M 562.59375 111.570312 C 562.863281 108.78125 563.492188 105 566.914062 102.839844 C 567.992188 102.121094 569.253906 101.851562 570.515625 101.851562 C 573.484375 101.851562 575.285156 103.378906 576.273438 105 C 577.535156 106.980469 577.625 109.140625 577.625 111.210938 Z M 616.320312 140.371094 C 615.871094 130.019531 615.421875 120.570312 615.421875 92.128906 C 615.421875 83.578125 615.511719 79.53125 615.871094 69.808594 L 615.242188 69.179688 L 599.851562 71.609375 L 599.492188 72.148438 C 600.390625 83.128906 600.480469 86.101562 600.660156 100.679688 C 600.753906 105.988281 600.753906 111.300781 600.753906 116.609375 C 600.753906 126.328125 600.570312 131.730469 600.210938 140.640625 L 600.753906 141.269531 C 606.78125 141 609.210938 140.910156 615.78125 141 Z M 722.074219 77.191406 C 712.714844 77.460938 711.183594 77.460938 701.195312 77.460938 L 700.65625 78 L 696.515625 92.578125 L 692.914062 105.628906 L 688.683594 121.289062 L 684.722656 105.179688 L 682.203125 95.011719 L 677.703125 77.730469 L 677.253906 77.191406 C 667.625 77.460938 666.003906 77.460938 655.925781 77.460938 L 655.382812 78 C 654.484375 104.910156 654.125 111.839844 652.144531 140.730469 L 652.59375 141.269531 C 658.355469 141 660.066406 140.910156 665.285156 141 L 665.824219 140.460938 L 666.09375 123.269531 L 666.632812 105.808594 L 666.996094 88.800781 L 670.953125 104.730469 L 674.375 117.511719 L 680.40625 140.730469 L 680.945312 141.269531 C 686.523438 141 688.054688 140.910156 694.355469 141 L 694.894531 140.460938 L 700.113281 121.289062 L 703.714844 108.148438 L 708.753906 89.25 L 708.753906 105.359375 L 708.933594 119.128906 L 708.933594 140.730469 L 709.382812 141.269531 C 715.59375 141 718.023438 140.910156 724.953125 141 L 725.40625 140.460938 C 724.863281 130.199219 724.234375 119.851562 723.875 109.5 C 723.605469 103.828125 723.425781 98.160156 723.15625 92.488281 C 722.703125 84.121094 722.613281 83.039062 722.613281 77.730469 Z M 775.621094 114.179688 C 775.710938 106.078125 775.710938 102.570312 773.371094 98.789062 C 771.570312 95.910156 767.972656 92.308594 756.453125 92.308594 C 748.710938 92.308594 743.941406 93.75 738.8125 95.28125 L 738.273438 96 L 737.820312 105.808594 L 738.542969 106.171875 C 741.691406 104.910156 747.542969 102.570312 753.570312 102.570312 C 756.902344 102.570312 758.25 103.109375 759.421875 104.28125 C 760.320312 105.179688 760.59375 106.800781 760.59375 108.148438 C 749.792969 109.589844 744.75 110.578125 739.351562 113.910156 C 734.3125 117.058594 732.601562 122.191406 732.601562 126.238281 C 732.601562 135.871094 739.53125 142.078125 748.351562 142.078125 C 755.101562 142.078125 758.972656 138.839844 760.863281 137.308594 L 760.863281 140.640625 L 761.402344 141.269531 C 767.882812 141 769.863281 140.910156 775.710938 141 L 776.160156 140.371094 C 775.53125 131.550781 775.53125 129.300781 775.53125 120.839844 L 775.621094 114.179688 M 760.773438 128.488281 C 758.882812 129.570312 756.453125 130.828125 753.480469 130.828125 C 750.242188 130.828125 747.542969 129.121094 747.542969 125.339844 C 747.542969 119.398438 754.652344 118.410156 760.773438 117.601562 Z M 812.164062 107.609375 L 814.683594 92.941406 L 814.144531 92.308594 C 813.515625 92.308594 812.882812 92.21875 812.253906 92.21875 C 808.5625 92.21875 804.425781 94.289062 801.542969 100.949219 L 801.8125 92.671875 L 801.09375 91.949219 C 794.433594 93.390625 792.722656 93.660156 786.152344 94.648438 L 785.613281 95.191406 C 786.152344 101.941406 786.425781 105.988281 786.425781 118.5 C 786.425781 125.878906 786.332031 133.261719 786.152344 140.730469 L 786.695312 141.269531 C 793.355469 141 794.792969 140.910156 801.992188 141 L 802.445312 140.371094 C 802.082031 133.078125 801.542969 122.910156 801.542969 116.699219 C 801.542969 112.648438 801.542969 106.710938 807.664062 106.710938 C 809.195312 106.710938 810.09375 107.25 811.355469 107.96875 Z M 814.503906 141 "/>
<path fill-rule="nonzero" fill="rgb(34.901961%, 14.901961%, 14.901961%)" fill-opacity="1" d="M 273.109375 222.300781 C 265.550781 219.148438 261.589844 217.53125 261.589844 213.480469 C 261.589844 210.691406 264.199219 207.179688 270.140625 207.179688 C 276.980469 207.179688 281.027344 209.96875 284.359375 212.21875 L 285.167969 211.859375 L 285.890625 200.070312 L 285.4375 199.441406 C 281.570312 197.820312 277.519531 196.109375 268.789062 196.109375 C 251.871094 196.109375 246.019531 205.648438 246.019531 215.28125 C 246.019531 226.171875 254.480469 230.128906 259.519531 232.558594 L 262.488281 233.910156 C 268.699219 236.519531 273.46875 238.769531 273.46875 243.539062 C 273.46875 246.960938 270.5 251.011719 262.667969 251.011719 C 254.480469 251.011719 249.890625 247.410156 247.277344 245.339844 L 246.378906 245.609375 L 245.75 258.300781 L 246.289062 259.019531 C 247.277344 259.378906 248.269531 259.828125 249.257812 260.101562 C 251.328125 260.820312 256.640625 262.351562 263.390625 262.351562 C 266.089844 262.351562 272.929688 262.078125 278.328125 259.558594 C 285.890625 255.871094 289.128906 249.03125 289.128906 241.378906 C 289.128906 236.25 287.148438 230.761719 282.378906 227.070312 C 279.949219 225.269531 277.609375 224.191406 275.449219 223.199219 Z M 322.878906 250.648438 C 321.347656 251.101562 320.265625 251.460938 318.738281 251.460938 C 314.148438 251.460938 313.789062 248.578125 313.605469 247.230469 C 313.335938 244.890625 313.335938 239.941406 313.425781 236.339844 L 313.605469 223.648438 L 321.707031 224.011719 L 322.246094 223.46875 L 323.148438 213.839844 L 322.605469 213.300781 L 313.605469 213.300781 L 313.878906 198.179688 L 313.246094 197.640625 C 307.128906 199.441406 305.507812 199.890625 299.117188 201.511719 L 298.757812 202.140625 L 298.847656 213.390625 L 293.988281 213.210938 L 293.449219 213.660156 L 292.636719 223.289062 L 293.175781 223.828125 L 298.847656 223.648438 L 298.578125 237.960938 C 298.488281 240.210938 298.398438 242.460938 298.398438 244.800781 C 298.398438 253.078125 298.578125 261.988281 312.617188 261.988281 C 316.128906 261.988281 318.917969 261.449219 322.066406 260.910156 L 322.699219 260.28125 L 323.597656 251.011719 Z M 369.589844 234.179688 C 369.679688 226.078125 369.679688 222.570312 367.339844 218.789062 C 365.539062 215.910156 361.941406 212.308594 350.421875 212.308594 C 342.679688 212.308594 337.910156 213.75 332.78125 215.28125 L 332.242188 216 L 331.789062 225.808594 L 332.511719 226.171875 C 335.660156 224.910156 341.511719 222.570312 347.539062 222.570312 C 350.871094 222.570312 352.21875 223.109375 353.390625 224.28125 C 354.289062 225.179688 354.5625 226.800781 354.5625 228.148438 C 343.761719 229.589844 338.71875 230.578125 333.320312 233.910156 C 328.28125 237.058594 326.570312 242.191406 326.570312 246.238281 C 326.570312 255.871094 333.5 262.078125 342.320312 262.078125 C 349.070312 262.078125 352.941406 258.839844 354.832031 257.308594 L 354.832031 260.640625 L 355.371094 261.269531 C 361.851562 261 363.832031 260.910156 369.679688 261 L 370.128906 260.371094 C 369.5 251.550781 369.5 249.300781 369.5 240.839844 L 369.589844 234.179688 M 354.742188 248.488281 C 352.851562 249.570312 350.421875 250.828125 347.449219 250.828125 C 344.210938 250.828125 341.511719 249.121094 341.511719 245.339844 C 341.511719 239.398438 348.621094 238.410156 354.742188 237.601562 Z M 405.320312 250.648438 C 403.789062 251.101562 402.707031 251.460938 401.179688 251.460938 C 396.589844 251.460938 396.230469 248.578125 396.046875 247.230469 C 395.777344 244.890625 395.777344 239.941406 395.867188 236.339844 L 396.046875 223.648438 L 404.148438 224.011719 L 404.6875 223.46875 L 405.589844 213.839844 L 405.046875 213.300781 L 396.046875 213.300781 L 396.320312 198.179688 L 395.6875 197.640625 C 389.570312 199.441406 387.949219 199.890625 381.558594 201.511719 L 381.199219 202.140625 L 381.289062 213.390625 L 376.429688 213.210938 L 375.890625 213.660156 L 375.078125 223.289062 L 375.617188 223.828125 L 381.289062 223.648438 L 381.019531 237.960938 C 380.929688 240.210938 380.839844 242.460938 380.839844 244.800781 C 380.839844 253.078125 381.019531 261.988281 395.058594 261.988281 C 398.570312 261.988281 401.359375 261.449219 404.507812 260.910156 L 405.140625 260.28125 L 406.039062 251.011719 Z M 451.9375 247.679688 C 448.519531 249.480469 444.46875 251.550781 437.898438 251.550781 C 432.5 251.550781 428.808594 249.839844 426.648438 246.601562 C 425.296875 244.710938 425.027344 242.910156 424.667969 241.109375 L 453.738281 240.570312 L 454.277344 239.941406 C 454.1875 235.53125 454.097656 231.03125 452.839844 226.53125 C 449.6875 215.910156 442.757812 213.75 439.699219 213.03125 C 437.449219 212.398438 435.378906 212.21875 433.308594 212.21875 C 419.179688 212.21875 409.816406 221.488281 409.816406 237.058594 C 409.816406 241.289062 410.539062 245.699219 411.976562 248.851562 C 417.199219 261 429.4375 262.078125 435.917969 262.078125 C 443.386719 262.078125 446.628906 260.730469 451.398438 258.839844 L 451.9375 258.121094 L 452.566406 247.949219 L 451.9375 247.679688 M 424.667969 231.570312 C 424.9375 228.78125 425.566406 225 428.988281 222.839844 C 430.066406 222.121094 431.328125 221.851562 432.589844 221.851562 C 435.558594 221.851562 437.359375 223.378906 438.347656 225 C 439.609375 226.980469 439.699219 229.140625 439.699219 231.210938 Z M 505.578125 261 C 513.949219 261.179688 524.296875 261.359375 531.046875 256.679688 C 536.988281 252.449219 538.609375 246.511719 538.609375 241.46875 C 538.609375 235.710938 536.175781 230.398438 531.046875 227.878906 C 529.335938 226.980469 527.359375 226.621094 525.46875 226.261719 C 528.527344 225 532.128906 223.378906 534.46875 218.609375 C 535.457031 216.539062 535.90625 214.378906 535.90625 212.308594 C 535.90625 209.429688 535.1875 205.46875 532.308594 202.230469 C 528.527344 198.179688 522.675781 197.101562 513.859375 197.101562 C 510.796875 197.101562 505.308594 197.191406 502.246094 197.28125 L 489.648438 197.460938 L 489.109375 198 C 489.46875 206.640625 489.558594 209.96875 489.558594 222.390625 C 489.558594 235.171875 489.46875 247.859375 489.289062 260.640625 L 489.917969 261 L 505.578125 261 M 504.949219 233.640625 C 511.789062 233.460938 515.746094 233.460938 518.359375 234.988281 C 520.96875 236.609375 521.957031 239.488281 521.957031 242.371094 C 521.957031 246.421875 519.707031 248.941406 516.378906 250.109375 C 513.675781 251.011719 508.816406 251.011719 504.949219 250.921875 L 504.949219 233.640625 M 504.949219 207.179688 C 506.835938 207.179688 509.359375 207.089844 510.886719 207.089844 C 515.746094 207.089844 520.15625 208.800781 520.15625 214.648438 C 520.15625 219.421875 516.648438 221.398438 515.566406 221.941406 C 513.316406 222.929688 508.546875 222.929688 504.949219 222.929688 Z M 586.9375 247.679688 C 583.519531 249.480469 579.46875 251.550781 572.898438 251.550781 C 567.5 251.550781 563.808594 249.839844 561.648438 246.601562 C 560.296875 244.710938 560.027344 242.910156 559.667969 241.109375 L 588.738281 240.570312 L 589.277344 239.941406 C 589.1875 235.53125 589.097656 231.03125 587.839844 226.53125 C 584.6875 215.910156 577.757812 213.75 574.699219 213.03125 C 572.449219 212.398438 570.378906 212.21875 568.308594 212.21875 C 554.179688 212.21875 544.816406 221.488281 544.816406 237.058594 C 544.816406 241.289062 545.539062 245.699219 546.976562 248.851562 C 552.199219 261 564.4375 262.078125 570.917969 262.078125 C 578.386719 262.078125 581.628906 260.730469 586.398438 258.839844 L 586.9375 258.121094 L 587.566406 247.949219 L 586.9375 247.679688 M 559.667969 231.570312 C 559.9375 228.78125 560.566406 225 563.988281 222.839844 C 565.066406 222.121094 566.328125 221.851562 567.589844 221.851562 C 570.558594 221.851562 572.359375 223.378906 573.347656 225 C 574.609375 226.980469 574.699219 229.140625 574.699219 231.210938 Z M 637.609375 234.179688 C 637.699219 226.078125 637.699219 222.570312 635.359375 218.789062 C 633.558594 215.910156 629.960938 212.308594 618.441406 212.308594 C 610.699219 212.308594 605.929688 213.75 600.800781 215.28125 L 600.261719 216 L 599.808594 225.808594 L 600.53125 226.171875 C 603.679688 224.910156 609.53125 222.570312 615.558594 222.570312 C 618.890625 222.570312 620.238281 223.109375 621.410156 224.28125 C 622.308594 225.179688 622.582031 226.800781 622.582031 228.148438 C 611.78125 229.589844 606.738281 230.578125 601.339844 233.910156 C 596.300781 237.058594 594.589844 242.191406 594.589844 246.238281 C 594.589844 255.871094 601.519531 262.078125 610.339844 262.078125 C 617.089844 262.078125 620.960938 258.839844 622.851562 257.308594 L 622.851562 260.640625 L 623.390625 261.269531 C 629.871094 261 631.851562 260.910156 637.699219 261 L 638.148438 260.371094 C 637.519531 251.550781 637.519531 249.300781 637.519531 240.839844 L 637.609375 234.179688 M 622.761719 248.488281 C 620.871094 249.570312 618.441406 250.828125 615.46875 250.828125 C 612.230469 250.828125 609.53125 249.121094 609.53125 245.339844 C 609.53125 239.398438 616.640625 238.410156 622.761719 237.601562 Z M 683.328125 248.039062 C 680.898438 249.480469 678.558594 250.921875 673.96875 250.921875 C 663.796875 250.921875 661.726562 242.460938 661.726562 237.058594 C 661.726562 230.488281 664.609375 222.929688 673.339844 222.929688 C 677.296875 222.929688 679.457031 224.371094 682.160156 226.171875 L 683.058594 225.898438 C 683.417969 221.128906 683.507812 219.871094 684.226562 215.101562 L 683.777344 214.558594 C 679.816406 213.300781 676.398438 212.21875 671.179688 212.21875 C 650.027344 212.21875 645.886719 228.238281 645.886719 237.421875 C 645.886719 247.769531 651.289062 261.808594 671.539062 261.808594 C 676.308594 261.808594 679.367188 260.910156 683.148438 259.828125 L 683.6875 259.289062 L 684.046875 248.488281 Z M 735.347656 260.371094 C 734.988281 252.988281 734.898438 250.46875 734.71875 241.109375 L 734.71875 234.359375 C 734.628906 225.808594 734.539062 220.859375 731.925781 217.078125 C 729.316406 213.390625 725.539062 212.21875 721.578125 212.21875 C 715.007812 212.21875 709.878906 215.371094 706.277344 217.53125 L 706.546875 189.808594 L 706.007812 189.179688 L 690.617188 191.609375 L 690.167969 192.148438 C 690.976562 200.878906 691.15625 204.121094 691.335938 215.730469 C 691.519531 223.019531 691.609375 230.308594 691.609375 237.601562 C 691.609375 246.511719 691.425781 251.820312 691.246094 260.640625 L 691.699219 261.269531 C 698.359375 260.910156 699.707031 260.910156 706.996094 260.910156 L 707.539062 260.371094 C 706.90625 246.871094 706.816406 242.820312 706.726562 226.890625 C 708.4375 225.71875 710.597656 224.191406 713.65625 224.191406 C 718.609375 224.191406 718.96875 229.320312 719.328125 232.921875 C 719.507812 235.710938 719.597656 248.488281 719.597656 251.820312 C 719.597656 254.789062 719.507812 257.671875 719.507812 260.640625 L 719.957031 261.269531 C 726.4375 260.910156 727.878906 260.910156 734.808594 260.910156 Z M 740.210938 261 "/>
</svg>
