<?xml version="1.0" encoding="UTF-8"?>
<svg xmlns="http://www.w3.org/2000/svg" xmlns:xlink="http://www.w3.org/1999/xlink" width="975" height="1300" viewBox="0 0 975 1300">
<path fill-rule="nonzero" fill="rgb(98.823529%, 78.823529%, 9.019608%)" fill-opacity="1" d="M 50 50 L 925 50 L 925 290 L 50 290 Z M 50 50 "/>
<path fill-rule="nonzero" fill="rgb(34.901961%, 14.901961%, 14.901961%)" fill-opacity="1" d="M 237.378906 124.890625 C 235.308594 126.511719 230.71875 129.929688 223.25 129.929688 C 212.988281 129.929688 205.789062 122.28125 205.789062 109.5 C 205.789062 101.761719 208.488281 88.171875 223.160156 88.171875 C 229.910156 88.171875 233.597656 90.78125 235.847656 92.488281 L 236.660156 92.308594 L 237.46875 79.890625 L 237.109375 79.441406 C 233.871094 78.179688 228.378906 76.109375 220.460938 76.109375 C 197.148438 76.109375 189.050781 94.109375 189.050781 109.859375 C 189.050781 127.140625 199.578125 142.351562 221.539062 142.351562 C 229.097656 142.351562 234.050781 140.371094 236.929688 139.199219 L 237.378906 138.660156 L 238.007812 125.25 Z M 285.078125 114.179688 C 285.167969 106.078125 285.167969 102.570312 282.828125 98.789062 C 281.027344 95.910156 277.429688 92.308594 265.910156 92.308594 C 258.167969 92.308594 253.398438 93.75 248.269531 95.28125 L 247.730469 96 L 247.277344 105.808594 L 248 106.171875 C 251.148438 104.910156 257 102.570312 263.027344 102.570312 C 266.359375 102.570312 267.707031 103.109375 268.878906 104.28125 C 269.777344 105.179688 270.050781 106.800781 270.050781 108.148438 C 259.25 109.589844 254.207031 110.578125 248.808594 113.910156 C 243.769531 117.058594 242.058594 122.191406 242.058594 126.238281 C 242.058594 135.871094 248.988281 142.078125 257.808594 142.078125 C 264.558594 142.078125 268.429688 138.839844 270.320312 137.308594 L 270.320312 140.640625 L 270.859375 141.269531 C 277.339844 141 279.320312 140.910156 285.167969 141 L 285.617188 140.371094 C 284.988281 131.550781 284.988281 129.300781 284.988281 120.839844 L 285.078125 114.179688 M 270.230469 128.488281 C 268.339844 129.570312 265.910156 130.828125 262.9375 130.828125 C 259.699219 130.828125 257 129.121094 257 125.339844 C 257 119.398438 264.109375 118.410156 270.230469 117.601562 Z M 321.621094 107.609375 L 324.140625 92.941406 L 323.601562 92.308594 C 322.972656 92.308594 322.339844 92.21875 321.710938 92.21875 C 318.019531 92.21875 313.882812 94.289062 311 100.949219 L 311.269531 92.671875 L 310.550781 91.949219 C 303.890625 93.390625 302.179688 93.660156 295.609375 94.648438 L 295.070312 95.191406 C 295.609375 101.941406 295.882812 105.988281 295.882812 118.5 C 295.882812 125.878906 295.789062 133.261719 295.609375 140.730469 L 296.152344 141.269531 C 302.8125 141 304.25 140.910156 311.449219 141 L 311.902344 140.371094 C 311.539062 133.078125 311 122.910156 311 116.699219 C 311 112.648438 311 106.710938 317.121094 106.710938 C 318.652344 106.710938 319.550781 107.25 320.8125 107.96875 Z M 345.199219 140.371094 C 344.75 130.019531 344.300781 120.570312 344.300781 92.128906 C 344.300781 83.578125 344.390625 79.53125 344.75 69.808594 L 344.121094 69.179688 L 328.730469 71.609375 L 328.371094 72.148438 C 329.269531 83.128906 329.359375 86.101562 329.539062 100.679688 C 329.632812 105.988281 329.632812 111.300781 329.632812 116.609375 C 329.632812 126.328125 329.449219 131.730469 329.089844 140.640625 L 329.632812 141.269531 C 335.660156 141 338.089844 140.910156 344.660156 141 Z M 374.539062 109.949219 C 371.476562 108.871094 369.046875 107.878906 369.046875 105.359375 C 369.046875 104.28125 369.769531 101.308594 375.347656 101.308594 C 380.839844 101.308594 384.347656 103.648438 386.597656 105.089844 L 387.410156 104.820312 L 388.308594 95.011719 L 387.859375 94.46875 C 383.628906 93.300781 379.9375 92.21875 374.089844 92.21875 C 369.679688 92.21875 360.859375 92.578125 356.179688 99.328125 C 355.007812 100.949219 353.75 103.648438 353.75 107.25 C 353.75 116.878906 361.21875 119.761719 365.449219 121.378906 L 368.867188 122.640625 C 371.296875 123.449219 375.257812 124.800781 375.257812 128.039062 C 375.257812 130.289062 373.1875 132.71875 368.148438 132.71875 C 365.628906 132.71875 361.9375 131.910156 358.609375 130.199219 C 357.078125 129.390625 356.359375 128.761719 355.007812 127.679688 L 354.199219 128.039062 C 354.019531 132.71875 353.929688 133.710938 353.566406 138.210938 L 354.019531 139.019531 C 358.429688 140.640625 362.207031 142.078125 368.777344 142.078125 C 375.617188 142.078125 389.117188 140.820312 390.738281 127.949219 C 390.828125 127.230469 390.828125 126.601562 390.828125 125.96875 C 390.828125 116.070312 383.898438 113.460938 378.949219 111.570312 Z M 405.226562 141.179688 L 407.027344 141.179688 C 421.425781 141.179688 430.699219 140.460938 437.539062 133.171875 C 443.925781 126.328125 444.558594 118.230469 444.558594 114.449219 C 444.558594 101.941406 437.359375 92.21875 425.117188 92.21875 C 419.175781 92.21875 416.027344 94.199219 413.507812 95.820312 L 414.046875 69.71875 L 413.328125 69.179688 L 398.386719 71.519531 L 397.847656 72.148438 C 398.566406 79.710938 398.835938 82.769531 398.835938 100.859375 C 398.835938 108.601562 398.746094 123.898438 398.65625 140.640625 L 399.289062 141.269531 L 405.226562 141.179688 M 413.867188 104.730469 C 415.667969 103.828125 417.378906 102.929688 419.71875 102.929688 C 425.65625 102.929688 429.078125 108.238281 429.078125 116.519531 C 429.078125 123 426.199219 127.230469 423.769531 128.941406 C 420.796875 131.011719 416.925781 131.101562 413.867188 131.191406 Z M 493.160156 114.179688 C 493.25 106.078125 493.25 102.570312 490.910156 98.789062 C 489.109375 95.910156 485.511719 92.308594 473.992188 92.308594 C 466.25 92.308594 461.480469 93.75 456.351562 95.28125 L 455.8125 96 L 455.359375 105.808594 L 456.082031 106.171875 C 459.230469 104.910156 465.082031 102.570312 471.109375 102.570312 C 474.441406 102.570312 475.789062 103.109375 476.960938 104.28125 C 477.859375 105.179688 478.132812 106.800781 478.132812 108.148438 C 467.332031 109.589844 462.289062 110.578125 456.890625 113.910156 C 451.851562 117.058594 450.140625 122.191406 450.140625 126.238281 C 450.140625 135.871094 457.070312 142.078125 465.890625 142.078125 C 472.640625 142.078125 476.511719 138.839844 478.402344 137.308594 L 478.402344 140.640625 L 478.941406 141.269531 C 485.421875 141 487.402344 140.910156 493.25 141 L 493.699219 140.371094 C 493.070312 131.550781 493.070312 129.300781 493.070312 120.839844 L 493.160156 114.179688 M 478.3125 128.488281 C 476.421875 129.570312 473.992188 130.828125 471.019531 130.828125 C 467.78125 130.828125 465.082031 129.121094 465.082031 125.339844 C 465.082031 119.398438 472.191406 118.410156 478.3125 117.601562 Z M 547.789062 140.460938 C 547.429688 132.359375 547.160156 126.960938 547.160156 115.171875 C 547.160156 91.410156 547.519531 81.601562 547.878906 69.71875 L 547.25 69.179688 L 532.398438 71.519531 L 531.949219 72.058594 C 532.488281 80.519531 532.578125 82.769531 532.488281 93.03125 C 525.738281 92.851562 517.277344 92.671875 510.4375 98.070312 C 504.140625 102.929688 501.527344 110.398438 501.527344 119.671875 C 501.527344 126.691406 503.417969 133.710938 508.730469 138.121094 C 512.6875 141.359375 517.550781 142.078125 520.519531 142.078125 C 526.910156 142.078125 530.238281 139.109375 532.398438 137.21875 L 532.21875 140.730469 L 532.667969 141.269531 C 538.878906 141 540.589844 141 547.339844 141 L 547.789062 140.460938 M 532.488281 103.828125 C 532.578125 115.800781 532.488281 118.140625 532.21875 129.03125 C 530.417969 130.109375 528.617188 131.191406 526.097656 131.191406 C 517.367188 131.191406 517.367188 120.03125 517.367188 118.230469 C 517.367188 111.300781 519.347656 103.558594 529.429688 103.558594 C 530.417969 103.558594 531.230469 103.648438 532.488281 103.828125 Z M 610.339844 102.300781 C 602.78125 99.148438 598.820312 97.53125 598.820312 93.480469 C 598.820312 90.691406 601.429688 87.179688 607.371094 87.179688 C 614.210938 87.179688 618.257812 89.96875 621.589844 92.21875 L 622.398438 91.859375 L 623.121094 80.070312 L 622.667969 79.441406 C 618.800781 77.820312 614.75 76.109375 606.019531 76.109375 C 589.101562 76.109375 583.25 85.648438 583.25 95.28125 C 583.25 106.171875 591.710938 110.128906 596.75 112.558594 L 599.71875 113.910156 C 605.929688 116.519531 610.699219 118.769531 610.699219 123.539062 C 610.699219 126.960938 607.730469 131.011719 599.898438 131.011719 C 591.710938 131.011719 587.121094 127.410156 584.507812 125.339844 L 583.609375 125.609375 L 582.980469 138.300781 L 583.519531 139.019531 C 584.507812 139.378906 585.5 139.828125 586.488281 140.101562 C 588.558594 140.820312 593.871094 142.351562 600.621094 142.351562 C 603.320312 142.351562 610.160156 142.078125 615.558594 139.558594 C 623.121094 135.871094 626.359375 129.03125 626.359375 121.378906 C 626.359375 116.25 624.378906 110.761719 619.609375 107.070312 C 617.179688 105.269531 614.839844 104.191406 612.679688 103.199219 Z M 660.109375 130.648438 C 658.578125 131.101562 657.496094 131.460938 655.96875 131.460938 C 651.378906 131.460938 651.019531 128.578125 650.835938 127.230469 C 650.566406 124.890625 650.566406 119.941406 650.65625 116.339844 L 650.835938 103.648438 L 658.9375 104.011719 L 659.476562 103.46875 L 660.378906 93.839844 L 659.835938 93.300781 L 650.835938 93.300781 L 651.109375 78.179688 L 650.476562 77.640625 C 644.359375 79.441406 642.738281 79.890625 636.347656 81.511719 L 635.988281 82.140625 L 636.078125 93.390625 L 631.21875 93.210938 L 630.679688 93.660156 L 629.867188 103.289062 L 630.40625 103.828125 L 636.078125 103.648438 L 635.808594 117.960938 C 635.71875 120.210938 635.628906 122.460938 635.628906 124.800781 C 635.628906 133.078125 635.808594 141.988281 649.847656 141.988281 C 653.359375 141.988281 656.148438 141.449219 659.296875 140.910156 L 659.929688 140.28125 L 660.828125 131.011719 Z M 706.820312 114.179688 C 706.910156 106.078125 706.910156 102.570312 704.570312 98.789062 C 702.769531 95.910156 699.171875 92.308594 687.652344 92.308594 C 679.910156 92.308594 675.140625 93.75 670.011719 95.28125 L 669.472656 96 L 669.019531 105.808594 L 669.742188 106.171875 C 672.890625 104.910156 678.742188 102.570312 684.769531 102.570312 C 688.101562 102.570312 689.449219 103.109375 690.621094 104.28125 C 691.519531 105.179688 691.792969 106.800781 691.792969 108.148438 C 680.992188 109.589844 675.949219 110.578125 670.550781 113.910156 C 665.511719 117.058594 663.800781 122.191406 663.800781 126.238281 C 663.800781 135.871094 670.730469 142.078125 679.550781 142.078125 C 686.300781 142.078125 690.171875 138.839844 692.0625 137.308594 L 692.0625 140.640625 L 692.601562 141.269531 C 699.082031 141 701.0625 140.910156 706.910156 141 L 707.359375 140.371094 C 706.730469 131.550781 706.730469 129.300781 706.730469 120.839844 L 706.820312 114.179688 M 691.972656 128.488281 C 690.082031 129.570312 687.652344 130.828125 684.679688 130.828125 C 681.441406 130.828125 678.742188 129.121094 678.742188 125.339844 C 678.742188 119.398438 685.851562 118.410156 691.972656 117.601562 Z M 742.550781 130.648438 C 741.019531 131.101562 739.9375 131.460938 738.410156 131.460938 C 733.820312 131.460938 733.460938 128.578125 733.277344 127.230469 C 733.007812 124.890625 733.007812 119.941406 733.097656 116.339844 L 733.277344 103.648438 L 741.378906 104.011719 L 741.917969 103.46875 L 742.820312 93.839844 L 742.277344 93.300781 L 733.277344 93.300781 L 733.550781 78.179688 L 732.917969 77.640625 C 726.800781 79.441406 725.179688 79.890625 718.789062 81.511719 L 718.429688 82.140625 L 718.519531 93.390625 L 713.660156 93.210938 L 713.121094 93.660156 L 712.308594 103.289062 L 712.847656 103.828125 L 718.519531 103.648438 L 718.25 117.960938 C 718.160156 120.210938 718.070312 122.460938 718.070312 124.800781 C 718.070312 133.078125 718.25 141.988281 732.289062 141.988281 C 735.800781 141.988281 738.589844 141.449219 741.738281 140.910156 L 742.371094 140.28125 L 743.269531 131.011719 Z M 789.167969 127.679688 C 785.75 129.480469 781.699219 131.550781 775.128906 131.550781 C 769.730469 131.550781 766.039062 129.839844 763.878906 126.601562 C 762.527344 124.710938 762.257812 122.910156 761.898438 121.109375 L 790.96875 120.570312 L 791.507812 119.941406 C 791.417969 115.53125 791.328125 111.03125 790.070312 106.53125 C 786.917969 95.910156 779.988281 93.75 776.929688 93.03125 C 774.679688 92.398438 772.609375 92.21875 770.539062 92.21875 C 756.410156 92.21875 747.046875 101.488281 747.046875 117.058594 C 747.046875 121.289062 747.769531 125.699219 749.207031 128.851562 C 754.429688 141 766.667969 142.078125 773.148438 142.078125 C 780.617188 142.078125 783.859375 140.730469 788.628906 138.839844 L 789.167969 138.121094 L 789.796875 127.949219 L 789.167969 127.679688 M 761.898438 111.570312 C 762.167969 108.78125 762.796875 105 766.21875 102.839844 C 767.296875 102.121094 768.558594 101.851562 769.820312 101.851562 C 772.789062 101.851562 774.589844 103.378906 775.578125 105 C 776.839844 106.980469 776.929688 109.140625 776.929688 111.210938 Z M 794.390625 141 "/>
<path fill-rule="nonzero" fill="rgb(34.901961%, 14.901961%, 14.901961%)" fill-opacity="1" d="M 385.519531 261 C 393.890625 261.179688 404.238281 261.359375 410.988281 256.679688 C 416.929688 252.449219 418.550781 246.511719 418.550781 241.46875 C 418.550781 235.710938 416.117188 230.398438 410.988281 227.878906 C 409.277344 226.980469 407.300781 226.621094 405.410156 226.261719 C 408.46875 225 412.070312 223.378906 414.410156 218.609375 C 415.398438 216.539062 415.847656 214.378906 415.847656 212.308594 C 415.847656 209.429688 415.128906 205.46875 412.25 202.230469 C 408.46875 198.179688 402.617188 197.101562 393.800781 197.101562 C 390.738281 197.101562 385.25 197.191406 382.1875 197.28125 L 369.589844 197.460938 L 369.050781 198 C 369.410156 206.640625 369.5 209.96875 369.5 222.390625 C 369.5 235.171875 369.410156 247.859375 369.230469 260.640625 L 369.859375 261 L 385.519531 261 M 384.890625 233.640625 C 391.730469 233.460938 395.6875 233.460938 398.300781 234.988281 C 400.910156 236.609375 401.898438 239.488281 401.898438 242.371094 C 401.898438 246.421875 399.648438 248.941406 396.320312 250.109375 C 393.617188 251.011719 388.757812 251.011719 384.890625 250.921875 L 384.890625 233.640625 M 384.890625 207.179688 C 386.777344 207.179688 389.300781 207.089844 390.828125 207.089844 C 395.6875 207.089844 400.097656 208.800781 400.097656 214.648438 C 400.097656 219.421875 396.589844 221.398438 395.507812 221.941406 C 393.257812 222.929688 388.488281 222.929688 384.890625 222.929688 Z M 466.878906 247.679688 C 463.460938 249.480469 459.410156 251.550781 452.839844 251.550781 C 447.441406 251.550781 443.75 249.839844 441.589844 246.601562 C 440.238281 244.710938 439.96875 242.910156 439.609375 241.109375 L 468.679688 240.570312 L 469.21875 239.941406 C 469.128906 235.53125 469.039062 231.03125 467.78125 226.53125 C 464.628906 215.910156 457.699219 213.75 454.640625 213.03125 C 452.390625 212.398438 450.320312 212.21875 448.25 212.21875 C 434.121094 212.21875 424.757812 221.488281 424.757812 237.058594 C 424.757812 241.289062 425.480469 245.699219 426.917969 248.851562 C 432.140625 261 444.378906 262.078125 450.859375 262.078125 C 458.328125 262.078125 461.570312 260.730469 466.339844 258.839844 L 466.878906 258.121094 L 467.507812 247.949219 L 466.878906 247.679688 M 439.609375 231.570312 C 439.878906 228.78125 440.507812 225 443.929688 222.839844 C 445.007812 222.121094 446.269531 221.851562 447.53125 221.851562 C 450.5 221.851562 452.300781 223.378906 453.289062 225 C 454.550781 226.980469 454.640625 229.140625 454.640625 231.210938 Z M 517.546875 234.179688 C 517.636719 226.078125 517.636719 222.570312 515.296875 218.789062 C 513.496094 215.910156 509.898438 212.308594 498.378906 212.308594 C 490.636719 212.308594 485.867188 213.75 480.738281 215.28125 L 480.199219 216 L 479.746094 225.808594 L 480.46875 226.171875 C 483.617188 224.910156 489.46875 222.570312 495.496094 222.570312 C 498.828125 222.570312 500.175781 223.109375 501.347656 224.28125 C 502.246094 225.179688 502.519531 226.800781 502.519531 228.148438 C 491.71875 229.589844 486.675781 230.578125 481.277344 233.910156 C 476.238281 237.058594 474.527344 242.191406 474.527344 246.238281 C 474.527344 255.871094 481.457031 262.078125 490.277344 262.078125 C 497.027344 262.078125 500.898438 258.839844 502.789062 257.308594 L 502.789062 260.640625 L 503.328125 261.269531 C 509.808594 261 511.789062 260.910156 517.636719 261 L 518.085938 260.371094 C 517.457031 251.550781 517.457031 249.300781 517.457031 240.839844 L 517.546875 234.179688 M 502.699219 248.488281 C 500.808594 249.570312 498.378906 250.828125 495.40625 250.828125 C 492.167969 250.828125 489.46875 249.121094 489.46875 245.339844 C 489.46875 239.398438 496.578125 238.410156 502.699219 237.601562 Z M 563.269531 248.039062 C 560.839844 249.480469 558.5 250.921875 553.910156 250.921875 C 543.738281 250.921875 541.667969 242.460938 541.667969 237.058594 C 541.667969 230.488281 544.550781 222.929688 553.28125 222.929688 C 557.238281 222.929688 559.398438 224.371094 562.101562 226.171875 L 563 225.898438 C 563.359375 221.128906 563.449219 219.871094 564.167969 215.101562 L 563.71875 214.558594 C 559.757812 213.300781 556.339844 212.21875 551.121094 212.21875 C 529.96875 212.21875 525.828125 228.238281 525.828125 237.421875 C 525.828125 247.769531 531.230469 261.808594 551.480469 261.808594 C 556.25 261.808594 559.308594 260.910156 563.089844 259.828125 L 563.628906 259.289062 L 563.988281 248.488281 Z M 615.289062 260.371094 C 614.929688 252.988281 614.839844 250.46875 614.660156 241.109375 L 614.660156 234.359375 C 614.570312 225.808594 614.480469 220.859375 611.867188 217.078125 C 609.257812 213.390625 605.480469 212.21875 601.519531 212.21875 C 594.949219 212.21875 589.820312 215.371094 586.21875 217.53125 L 586.488281 189.808594 L 585.949219 189.179688 L 570.558594 191.609375 L 570.109375 192.148438 C 570.917969 200.878906 571.097656 204.121094 571.277344 215.730469 C 571.460938 223.019531 571.550781 230.308594 571.550781 237.601562 C 571.550781 246.511719 571.367188 251.820312 571.1875 260.640625 L 571.640625 261.269531 C 578.300781 260.910156 579.648438 260.910156 586.9375 260.910156 L 587.480469 260.371094 C 586.847656 246.871094 586.757812 242.820312 586.667969 226.890625 C 588.378906 225.71875 590.539062 224.191406 593.597656 224.191406 C 598.550781 224.191406 598.910156 229.320312 599.269531 232.921875 C 599.449219 235.710938 599.539062 248.488281 599.539062 251.820312 C 599.539062 254.789062 599.449219 257.671875 599.449219 260.640625 L 599.898438 261.269531 C 606.378906 260.910156 607.820312 260.910156 614.75 260.910156 Z M 620.148438 261 "/>
</svg>
