<?xml version="1.0" encoding="UTF-8"?>
<svg xmlns="http://www.w3.org/2000/svg" xmlns:xlink="http://www.w3.org/1999/xlink" width="975" height="1300" viewBox="0 0 975 1300">
<path fill-rule="nonzero" fill="rgb(98.823529%, 78.823529%, 9.019608%)" fill-opacity="1" d="M 50 50 L 925 50 L 925 170 L 50 170 Z M 50 50 "/>
<path fill-rule="nonzero" fill="rgb(34.901961%, 14.901961%, 14.901961%)" fill-opacity="1" d="M 139.007812 124.890625 C 136.9375 126.511719 132.347656 129.929688 124.878906 129.929688 C 114.617188 129.929688 107.417969 122.28125 107.417969 109.5 C 107.417969 101.761719 110.117188 88.171875 124.789062 88.171875 C 131.539062 88.171875 135.226562 90.78125 137.476562 92.488281 L 138.289062 92.308594 L 139.097656 79.890625 L 138.738281 79.441406 C 135.5 78.179688 130.007812 76.109375 122.089844 76.109375 C 98.777344 76.109375 90.679688 94.109375 90.679688 109.859375 C 90.679688 127.140625 101.207031 142.351562 123.167969 142.351562 C 130.726562 142.351562 135.679688 140.371094 138.558594 139.199219 L 139.007812 138.660156 L 139.636719 125.25 Z M 186.707031 114.179688 C 186.796875 106.078125 186.796875 102.570312 184.457031 98.789062 C 182.65625 95.910156 179.058594 92.308594 167.539062 92.308594 C 159.796875 92.308594 155.027344 93.75 149.898438 95.28125 L 149.359375 96 L 148.90625 105.808594 L 149.628906 106.171875 C 152.777344 104.910156 158.628906 102.570312 164.65625 102.570312 C 167.988281 102.570312 169.335938 103.109375 170.507812 104.28125 C 171.40625 105.179688 171.679688 106.800781 171.679688 108.148438 C 160.878906 109.589844 155.835938 110.578125 150.4375 113.910156 C 145.398438 117.058594 143.6875 122.191406 143.6875 126.238281 C 143.6875 135.871094 150.617188 142.078125 159.4375 142.078125 C 166.1875 142.078125 170.058594 138.839844 171.949219 137.308594 L 171.949219 140.640625 L 172.488281 141.269531 C 178.96875 141 180.949219 140.910156 186.796875 141 L 187.246094 140.371094 C 186.617188 131.550781 186.617188 129.300781 186.617188 120.839844 L 186.707031 114.179688 M 171.859375 128.488281 C 169.96875 129.570312 167.539062 130.828125 164.566406 130.828125 C 161.328125 130.828125 158.628906 129.121094 158.628906 125.339844 C 158.628906 119.398438 165.738281 118.410156 171.859375 117.601562 Z M 223.25 107.609375 L 225.769531 92.941406 L 225.230469 92.308594 C 224.601562 92.308594 223.96875 92.21875 223.339844 92.21875 C 219.648438 92.21875 215.511719 94.289062 212.628906 100.949219 L 212.898438 92.671875 L 212.179688 91.949219 C 205.519531 93.390625 203.808594 93.660156 197.238281 94.648438 L 196.699219 95.191406 C 197.238281 101.941406 197.511719 105.988281 197.511719 118.5 C 197.511719 125.878906 197.417969 133.261719 197.238281 140.730469 L 197.78125 141.269531 C 204.441406 141 205.878906 140.910156 213.078125 141 L 213.53125 140.371094 C 213.167969 133.078125 212.628906 122.910156 212.628906 116.699219 C 212.628906 112.648438 212.628906 106.710938 218.75 106.710938 C 220.28125 106.710938 221.179688 107.25 222.441406 107.96875 Z M 275.089844 140.460938 C 274.730469 132.359375 274.460938 126.960938 274.460938 115.171875 C 274.460938 91.410156 274.820312 81.601562 275.179688 69.71875 L 274.550781 69.179688 L 259.699219 71.519531 L 259.25 72.058594 C 259.789062 80.519531 259.878906 82.769531 259.789062 93.03125 C 253.039062 92.851562 244.578125 92.671875 237.738281 98.070312 C 231.441406 102.929688 228.828125 110.398438 228.828125 119.671875 C 228.828125 126.691406 230.71875 133.710938 236.03125 138.121094 C 239.988281 141.359375 244.851562 142.078125 247.820312 142.078125 C 254.210938 142.078125 257.539062 139.109375 259.699219 137.21875 L 259.519531 140.730469 L 259.96875 141.269531 C 266.179688 141 267.890625 141 274.640625 141 L 275.089844 140.460938 M 259.789062 103.828125 C 259.878906 115.800781 259.789062 118.140625 259.519531 129.03125 C 257.71875 130.109375 255.917969 131.191406 253.398438 131.191406 C 244.667969 131.191406 244.667969 120.03125 244.667969 118.230469 C 244.667969 111.300781 246.648438 103.558594 256.730469 103.558594 C 257.71875 103.558594 258.53125 103.648438 259.789062 103.828125 Z M 301.640625 140.371094 C 301.1875 133.441406 300.828125 128.128906 300.828125 115.710938 C 300.828125 108.058594 301.007812 100.320312 301.097656 92.671875 L 300.46875 91.949219 L 284.988281 94.648438 L 284.449219 95.191406 C 285.167969 102.03125 285.4375 105.179688 285.4375 117.960938 C 285.4375 127.769531 285.167969 133.261719 284.898438 140.640625 L 285.4375 141.269531 C 291.917969 141 293.71875 140.910156 301.007812 141 L 301.640625 140.371094 M 300.199219 83.308594 L 300.46875 71.070312 L 299.929688 70.53125 L 285.257812 72.328125 L 284.71875 72.960938 C 284.898438 76.199219 284.988281 78.089844 284.988281 80.25 C 284.988281 81.960938 284.988281 83.761719 284.898438 85.46875 L 285.527344 86.011719 C 291.648438 84.929688 293.359375 84.75 299.75 83.941406 Z M 329.625 140.371094 C 328.726562 123.988281 328.636719 119.578125 328.726562 103.648438 L 335.835938 104.011719 L 336.464844 103.378906 L 337.277344 93.839844 L 336.828125 93.300781 L 328.636719 93.300781 L 328.726562 91.230469 C 328.726562 85.738281 328.816406 80.699219 334.667969 80.699219 C 335.566406 80.699219 336.464844 80.878906 337.367188 80.96875 L 337.996094 80.609375 L 338.804688 70.441406 L 338.355469 69.808594 C 336.195312 69.628906 334.125 69.539062 332.054688 69.539062 C 327.464844 69.539062 322.785156 70.078125 319.1875 72.78125 C 313.605469 76.921875 313.695312 83.398438 313.695312 87.898438 L 313.785156 93.300781 L 307.9375 93.210938 L 307.398438 93.660156 L 306.496094 103.199219 L 307.035156 103.738281 L 313.875 103.558594 C 313.875 120.570312 313.875 124.621094 313.335938 140.640625 L 313.875 141.269531 C 319.996094 141 322.335938 140.910156 329.085938 140.910156 Z M 361.488281 140.371094 C 360.589844 123.988281 360.5 119.578125 360.589844 103.648438 L 367.699219 104.011719 L 368.328125 103.378906 L 369.140625 93.839844 L 368.691406 93.300781 L 360.5 93.300781 L 360.589844 91.230469 C 360.589844 85.738281 360.679688 80.699219 366.53125 80.699219 C 367.429688 80.699219 368.328125 80.878906 369.230469 80.96875 L 369.859375 80.609375 L 370.667969 70.441406 L 370.21875 69.808594 C 368.058594 69.628906 365.988281 69.539062 363.917969 69.539062 C 359.328125 69.539062 354.648438 70.078125 351.050781 72.78125 C 345.46875 76.921875 345.558594 83.398438 345.558594 87.898438 L 345.648438 93.300781 L 339.800781 93.210938 L 339.261719 93.660156 L 338.359375 103.199219 L 338.898438 103.738281 L 345.738281 103.558594 C 345.738281 120.570312 345.738281 124.621094 345.199219 140.640625 L 345.738281 141.269531 C 351.859375 141 354.199219 140.910156 360.949219 140.910156 Z M 427.636719 102.300781 C 420.078125 99.148438 416.117188 97.53125 416.117188 93.480469 C 416.117188 90.691406 418.726562 87.179688 424.667969 87.179688 C 431.507812 87.179688 435.554688 89.96875 438.886719 92.21875 L 439.695312 91.859375 L 440.417969 80.070312 L 439.964844 79.441406 C 436.097656 77.820312 432.046875 76.109375 423.316406 76.109375 C 406.398438 76.109375 400.546875 85.648438 400.546875 95.28125 C 400.546875 106.171875 409.007812 110.128906 414.046875 112.558594 L 417.015625 113.910156 C 423.226562 116.519531 427.996094 118.769531 427.996094 123.539062 C 427.996094 126.960938 425.027344 131.011719 417.195312 131.011719 C 409.007812 131.011719 404.417969 127.410156 401.804688 125.339844 L 400.90625 125.609375 L 400.277344 138.300781 L 400.816406 139.019531 C 401.804688 139.378906 402.796875 139.828125 403.785156 140.101562 C 405.855469 140.820312 411.167969 142.351562 417.917969 142.351562 C 420.617188 142.351562 427.457031 142.078125 432.855469 139.558594 C 440.417969 135.871094 443.65625 129.03125 443.65625 121.378906 C 443.65625 116.25 441.675781 110.761719 436.90625 107.070312 C 434.476562 105.269531 432.136719 104.191406 429.976562 103.199219 Z M 477.410156 130.648438 C 475.878906 131.101562 474.796875 131.460938 473.269531 131.460938 C 468.679688 131.460938 468.320312 128.578125 468.136719 127.230469 C 467.867188 124.890625 467.867188 119.941406 467.957031 116.339844 L 468.136719 103.648438 L 476.238281 104.011719 L 476.777344 103.46875 L 477.679688 93.839844 L 477.136719 93.300781 L 468.136719 93.300781 L 468.410156 78.179688 L 467.777344 77.640625 C 461.660156 79.441406 460.039062 79.890625 453.648438 81.511719 L 453.289062 82.140625 L 453.378906 93.390625 L 448.519531 93.210938 L 447.980469 93.660156 L 447.167969 103.289062 L 447.707031 103.828125 L 453.378906 103.648438 L 453.109375 117.960938 C 453.019531 120.210938 452.929688 122.460938 452.929688 124.800781 C 452.929688 133.078125 453.109375 141.988281 467.148438 141.988281 C 470.660156 141.988281 473.449219 141.449219 476.597656 140.910156 L 477.230469 140.28125 L 478.128906 131.011719 Z M 524.117188 114.179688 C 524.207031 106.078125 524.207031 102.570312 521.867188 98.789062 C 520.066406 95.910156 516.46875 92.308594 504.949219 92.308594 C 497.207031 92.308594 492.4375 93.75 487.308594 95.28125 L 486.769531 96 L 486.316406 105.808594 L 487.039062 106.171875 C 490.1875 104.910156 496.039062 102.570312 502.066406 102.570312 C 505.398438 102.570312 506.746094 103.109375 507.917969 104.28125 C 508.816406 105.179688 509.089844 106.800781 509.089844 108.148438 C 498.289062 109.589844 493.246094 110.578125 487.847656 113.910156 C 482.808594 117.058594 481.097656 122.191406 481.097656 126.238281 C 481.097656 135.871094 488.027344 142.078125 496.847656 142.078125 C 503.597656 142.078125 507.46875 138.839844 509.359375 137.308594 L 509.359375 140.640625 L 509.898438 141.269531 C 516.378906 141 518.359375 140.910156 524.207031 141 L 524.65625 140.371094 C 524.027344 131.550781 524.027344 129.300781 524.027344 120.839844 L 524.117188 114.179688 M 509.269531 128.488281 C 507.378906 129.570312 504.949219 130.828125 501.976562 130.828125 C 498.738281 130.828125 496.039062 129.121094 496.039062 125.339844 C 496.039062 119.398438 503.148438 118.410156 509.269531 117.601562 Z M 559.851562 130.648438 C 558.320312 131.101562 557.238281 131.460938 555.710938 131.460938 C 551.121094 131.460938 550.761719 128.578125 550.578125 127.230469 C 550.308594 124.890625 550.308594 119.941406 550.398438 116.339844 L 550.578125 103.648438 L 558.679688 104.011719 L 559.21875 103.46875 L 560.121094 93.839844 L 559.578125 93.300781 L 550.578125 93.300781 L 550.851562 78.179688 L 550.21875 77.640625 C 544.101562 79.441406 542.480469 79.890625 536.089844 81.511719 L 535.730469 82.140625 L 535.820312 93.390625 L 530.960938 93.210938 L 530.421875 93.660156 L 529.609375 103.289062 L 530.148438 103.828125 L 535.820312 103.648438 L 535.550781 117.960938 C 535.460938 120.210938 535.371094 122.460938 535.371094 124.800781 C 535.371094 133.078125 535.550781 141.988281 549.589844 141.988281 C 553.101562 141.988281 555.890625 141.449219 559.039062 140.910156 L 559.671875 140.28125 L 560.570312 131.011719 Z M 606.46875 127.679688 C 603.050781 129.480469 599 131.550781 592.429688 131.550781 C 587.03125 131.550781 583.339844 129.839844 581.179688 126.601562 C 579.828125 124.710938 579.558594 122.910156 579.199219 121.109375 L 608.269531 120.570312 L 608.808594 119.941406 C 608.71875 115.53125 608.628906 111.03125 607.371094 106.53125 C 604.21875 95.910156 597.289062 93.75 594.230469 93.03125 C 591.980469 92.398438 589.910156 92.21875 587.839844 92.21875 C 573.710938 92.21875 564.347656 101.488281 564.347656 117.058594 C 564.347656 121.289062 565.070312 125.699219 566.507812 128.851562 C 571.730469 141 583.96875 142.078125 590.449219 142.078125 C 597.917969 142.078125 601.160156 140.730469 605.929688 138.839844 L 606.46875 138.121094 L 607.097656 127.949219 L 606.46875 127.679688 M 579.199219 111.570312 C 579.46875 108.78125 580.097656 105 583.519531 102.839844 C 584.597656 102.121094 585.859375 101.851562 587.121094 101.851562 C 590.089844 101.851562 591.890625 103.378906 592.878906 105 C 594.140625 106.980469 594.230469 109.140625 594.230469 111.210938 Z M 660.109375 141 C 668.480469 141.179688 678.828125 141.359375 685.578125 136.679688 C 691.519531 132.449219 693.140625 126.511719 693.140625 121.46875 C 693.140625 115.710938 690.707031 110.398438 685.578125 107.878906 C 683.867188 106.980469 681.890625 106.621094 680 106.261719 C 683.058594 105 686.660156 103.378906 689 98.609375 C 689.988281 96.539062 690.4375 94.378906 690.4375 92.308594 C 690.4375 89.429688 689.71875 85.46875 686.839844 82.230469 C 683.058594 78.179688 677.207031 77.101562 668.390625 77.101562 C 665.328125 77.101562 659.839844 77.191406 656.777344 77.28125 L 644.179688 77.460938 L 643.640625 78 C 644 86.640625 644.089844 89.96875 644.089844 102.390625 C 644.089844 115.171875 644 127.859375 643.820312 140.640625 L 644.449219 141 L 660.109375 141 M 659.480469 113.640625 C 666.320312 113.460938 670.277344 113.460938 672.890625 114.988281 C 675.5 116.609375 676.488281 119.488281 676.488281 122.371094 C 676.488281 126.421875 674.238281 128.941406 670.910156 130.109375 C 668.207031 131.011719 663.347656 131.011719 659.480469 130.921875 L 659.480469 113.640625 M 659.480469 87.179688 C 661.367188 87.179688 663.890625 87.089844 665.417969 87.089844 C 670.277344 87.089844 674.6875 88.800781 674.6875 94.648438 C 674.6875 99.421875 671.179688 101.398438 670.097656 101.941406 C 667.847656 102.929688 663.078125 102.929688 659.480469 102.929688 Z M 741.46875 127.679688 C 738.050781 129.480469 734 131.550781 727.429688 131.550781 C 722.03125 131.550781 718.339844 129.839844 716.179688 126.601562 C 714.828125 124.710938 714.558594 122.910156 714.199219 121.109375 L 743.269531 120.570312 L 743.808594 119.941406 C 743.71875 115.53125 743.628906 111.03125 742.371094 106.53125 C 739.21875 95.910156 732.289062 93.75 729.230469 93.03125 C 726.980469 92.398438 724.910156 92.21875 722.839844 92.21875 C 708.710938 92.21875 699.347656 101.488281 699.347656 117.058594 C 699.347656 121.289062 700.070312 125.699219 701.507812 128.851562 C 706.730469 141 718.96875 142.078125 725.449219 142.078125 C 732.917969 142.078125 736.160156 140.730469 740.929688 138.839844 L 741.46875 138.121094 L 742.097656 127.949219 L 741.46875 127.679688 M 714.199219 111.570312 C 714.46875 108.78125 715.097656 105 718.519531 102.839844 C 719.597656 102.121094 720.859375 101.851562 722.121094 101.851562 C 725.089844 101.851562 726.890625 103.378906 727.878906 105 C 729.140625 106.980469 729.230469 109.140625 729.230469 111.210938 Z M 792.136719 114.179688 C 792.226562 106.078125 792.226562 102.570312 789.886719 98.789062 C 788.085938 95.910156 784.488281 92.308594 772.96875 92.308594 C 765.226562 92.308594 760.457031 93.75 755.328125 95.28125 L 754.789062 96 L 754.335938 105.808594 L 755.058594 106.171875 C 758.207031 104.910156 764.058594 102.570312 770.085938 102.570312 C 773.417969 102.570312 774.765625 103.109375 775.9375 104.28125 C 776.835938 105.179688 777.109375 106.800781 777.109375 108.148438 C 766.308594 109.589844 761.265625 110.578125 755.867188 113.910156 C 750.828125 117.058594 749.117188 122.191406 749.117188 126.238281 C 749.117188 135.871094 756.046875 142.078125 764.867188 142.078125 C 771.617188 142.078125 775.488281 138.839844 777.378906 137.308594 L 777.378906 140.640625 L 777.917969 141.269531 C 784.398438 141 786.378906 140.910156 792.226562 141 L 792.675781 140.371094 C 792.046875 131.550781 792.046875 129.300781 792.046875 120.839844 L 792.136719 114.179688 M 777.289062 128.488281 C 775.398438 129.570312 772.96875 130.828125 769.996094 130.828125 C 766.757812 130.828125 764.058594 129.121094 764.058594 125.339844 C 764.058594 119.398438 771.167969 118.410156 777.289062 117.601562 Z M 837.859375 128.039062 C 835.429688 129.480469 833.089844 130.921875 828.5 130.921875 C 818.328125 130.921875 816.257812 122.460938 816.257812 117.058594 C 816.257812 110.488281 819.140625 102.929688 827.871094 102.929688 C 831.828125 102.929688 833.988281 104.371094 836.691406 106.171875 L 837.589844 105.898438 C 837.949219 101.128906 838.039062 99.871094 838.757812 95.101562 L 838.308594 94.558594 C 834.347656 93.300781 830.929688 92.21875 825.710938 92.21875 C 804.558594 92.21875 800.417969 108.238281 800.417969 117.421875 C 800.417969 127.769531 805.820312 141.808594 826.070312 141.808594 C 830.839844 141.808594 833.898438 140.910156 837.679688 139.828125 L 838.21875 139.289062 L 838.578125 128.488281 Z M 889.878906 140.371094 C 889.519531 132.988281 889.429688 130.46875 889.25 121.109375 L 889.25 114.359375 C 889.160156 105.808594 889.070312 100.859375 886.457031 97.078125 C 883.847656 93.390625 880.070312 92.21875 876.109375 92.21875 C 869.539062 92.21875 864.410156 95.371094 860.808594 97.53125 L 861.078125 69.808594 L 860.539062 69.179688 L 845.148438 71.609375 L 844.699219 72.148438 C 845.507812 80.878906 845.6875 84.121094 845.867188 95.730469 C 846.050781 103.019531 846.140625 110.308594 846.140625 117.601562 C 846.140625 126.511719 845.957031 131.820312 845.777344 140.640625 L 846.230469 141.269531 C 852.890625 140.910156 854.238281 140.910156 861.527344 140.910156 L 862.070312 140.371094 C 861.4375 126.871094 861.347656 122.820312 861.257812 106.890625 C 862.96875 105.71875 865.128906 104.191406 868.1875 104.191406 C 873.140625 104.191406 873.5 109.320312 873.859375 112.921875 C 874.039062 115.710938 874.128906 128.488281 874.128906 131.820312 C 874.128906 134.789062 874.039062 137.671875 874.039062 140.640625 L 874.488281 141.269531 C 880.96875 140.910156 882.410156 140.910156 889.339844 140.910156 Z M 894.738281 141 "/>
</svg>
