<?xml version="1.0" encoding="UTF-8"?>
<svg xmlns="http://www.w3.org/2000/svg" xmlns:xlink="http://www.w3.org/1999/xlink" width="975" height="1300" viewBox="0 0 975 1300">
<path fill-rule="nonzero" fill="rgb(98.823529%, 78.823529%, 9.019608%)" fill-opacity="1" d="M 50 50 L 925 50 L 925 290 L 50 290 Z M 50 50 "/>
<path fill-rule="nonzero" fill="rgb(34.901961%, 14.901961%, 14.901961%)" fill-opacity="1" d="M 152.914062 89.339844 L 153.453125 88.890625 L 154.085938 77.640625 L 153.632812 77.371094 L 109.085938 77.371094 L 108.453125 77.910156 L 107.824219 88.980469 L 108.273438 89.519531 L 122.945312 89.160156 C 123.035156 112.738281 123.035156 118.410156 122.316406 140.730469 L 122.855469 141.269531 C 129.515625 141 131.316406 140.910156 138.785156 140.910156 L 139.324219 140.371094 C 138.875 127.769531 138.695312 115.171875 138.695312 102.480469 C 138.695312 97.53125 138.785156 94.738281 138.964844 88.980469 Z M 205.65625 117.058594 C 205.65625 113.550781 205.65625 98.96875 193.054688 94.019531 C 189.09375 92.488281 184.414062 92.308594 182.074219 92.308594 C 166.414062 92.308594 157.59375 100.679688 157.59375 117.238281 C 157.59375 123 158.496094 128.851562 161.824219 133.710938 C 164.164062 137.21875 168.574219 142.078125 181.445312 142.078125 C 200.523438 142.078125 205.65625 130.558594 205.65625 117.058594 M 190.085938 116.96875 C 190.085938 124.351562 189.09375 132.539062 181.625 132.539062 C 179.285156 132.539062 177.664062 131.460938 176.585938 130.46875 C 175.054688 128.941406 173.34375 125.878906 173.34375 117.148438 C 173.34375 114.539062 173.34375 108.78125 175.144531 105.628906 C 176.496094 103.199219 178.835938 101.578125 181.714844 101.578125 C 184.234375 101.578125 186.304688 102.929688 187.476562 104.371094 C 189.636719 106.980469 190.085938 112.109375 190.085938 116.96875 Z M 240.214844 107.609375 L 242.734375 92.941406 L 242.195312 92.308594 C 241.566406 92.308594 240.933594 92.21875 240.304688 92.21875 C 236.613281 92.21875 232.476562 94.289062 229.59375 100.949219 L 229.863281 92.671875 L 229.144531 91.949219 C 222.484375 93.390625 220.773438 93.660156 214.203125 94.648438 L 213.664062 95.191406 C 214.203125 101.941406 214.476562 105.988281 214.476562 118.5 C 214.476562 125.878906 214.382812 133.261719 214.203125 140.730469 L 214.746094 141.269531 C 221.40625 141 222.84375 140.910156 230.042969 141 L 230.496094 140.371094 C 230.132812 133.078125 229.59375 122.910156 229.59375 116.699219 C 229.59375 112.648438 229.59375 106.710938 235.714844 106.710938 C 237.246094 106.710938 238.144531 107.25 239.40625 107.96875 Z M 273.964844 107.609375 L 276.484375 92.941406 L 275.945312 92.308594 C 275.316406 92.308594 274.683594 92.21875 274.054688 92.21875 C 270.363281 92.21875 266.226562 94.289062 263.34375 100.949219 L 263.613281 92.671875 L 262.894531 91.949219 C 256.234375 93.390625 254.523438 93.660156 247.953125 94.648438 L 247.414062 95.191406 C 247.953125 101.941406 248.226562 105.988281 248.226562 118.5 C 248.226562 125.878906 248.132812 133.261719 247.953125 140.730469 L 248.496094 141.269531 C 255.15625 141 256.59375 140.910156 263.792969 141 L 264.246094 140.371094 C 263.882812 133.078125 263.34375 122.910156 263.34375 116.699219 C 263.34375 112.648438 263.34375 106.710938 269.464844 106.710938 C 270.996094 106.710938 271.894531 107.25 273.15625 107.96875 Z M 321.664062 127.679688 C 318.246094 129.480469 314.195312 131.550781 307.625 131.550781 C 302.226562 131.550781 298.535156 129.839844 296.375 126.601562 C 295.023438 124.710938 294.753906 122.910156 294.394531 121.109375 L 323.464844 120.570312 L 324.003906 119.941406 C 323.914062 115.53125 323.824219 111.03125 322.566406 106.53125 C 319.414062 95.910156 312.484375 93.75 309.425781 93.03125 C 307.175781 92.398438 305.105469 92.21875 303.035156 92.21875 C 288.90625 92.21875 279.542969 101.488281 279.542969 117.058594 C 279.542969 121.289062 280.265625 125.699219 281.703125 128.851562 C 286.925781 141 299.164062 142.078125 305.644531 142.078125 C 313.113281 142.078125 316.355469 140.730469 321.125 138.839844 L 321.664062 138.121094 L 322.292969 127.949219 L 321.664062 127.679688 M 294.394531 111.570312 C 294.664062 108.78125 295.292969 105 298.714844 102.839844 C 299.792969 102.121094 301.054688 101.851562 302.316406 101.851562 C 305.285156 101.851562 307.085938 103.378906 308.074219 105 C 309.335938 106.980469 309.425781 109.140625 309.425781 111.210938 Z M 372.511719 93.03125 L 360.003906 93.300781 L 359.28125 93.929688 C 357.753906 100.140625 357.394531 101.488281 355.234375 108.511719 L 352.894531 116.25 L 350.914062 123 L 349.203125 116.609375 L 346.59375 107.070312 L 342.992188 93.390625 L 342.273438 92.851562 C 335.253906 93.390625 333.722656 93.480469 326.34375 93.660156 L 325.894531 94.289062 C 329.132812 102.839844 337.503906 125.429688 343.082031 142.710938 C 339.394531 152.070312 338.671875 153.691406 334.621094 162.601562 L 335.074219 163.320312 C 337.324219 163.230469 339.84375 163.140625 342.183594 163.140625 C 344.433594 163.140625 346.773438 163.230469 349.023438 163.230469 L 349.652344 162.691406 C 354.601562 143.25 357.03125 135.691406 368.914062 104.371094 C 370.261719 100.769531 371.613281 97.261719 372.871094 93.75 Z M 415.625 77.28125 L 404.195312 77.460938 L 403.652344 78 C 404.015625 89.699219 404.285156 97.53125 404.285156 107.878906 C 404.285156 118.859375 404.015625 129.75 403.742188 140.730469 L 404.285156 141.269531 C 410.945312 141 412.382812 140.910156 419.585938 141 L 420.035156 140.460938 C 419.675781 130.648438 419.675781 128.398438 419.675781 119.21875 C 429.753906 119.308594 440.554688 119.308594 447.035156 111.390625 C 449.554688 108.328125 451.714844 103.199219 451.714844 96.898438 C 451.714844 93.03125 450.8125 84.480469 443.34375 80.25 C 437.945312 77.101562 430.292969 77.101562 423.542969 77.101562 L 415.625 77.28125 M 419.675781 88.171875 C 421.652344 88.078125 423.542969 88.078125 425.523438 88.078125 C 433.445312 88.261719 435.605469 92.308594 435.605469 97.53125 C 435.605469 98.789062 435.605469 104.011719 430.835938 106.621094 C 428.402344 107.96875 425.074219 108.148438 419.675781 108.148438 Z M 474.214844 140.371094 C 473.761719 133.441406 473.402344 128.128906 473.402344 115.710938 C 473.402344 108.058594 473.582031 100.320312 473.671875 92.671875 L 473.042969 91.949219 L 457.5625 94.648438 L 457.023438 95.191406 C 457.742188 102.03125 458.011719 105.179688 458.011719 117.960938 C 458.011719 127.769531 457.742188 133.261719 457.472656 140.640625 L 458.011719 141.269531 C 464.492188 141 466.292969 140.910156 473.582031 141 L 474.214844 140.371094 M 472.773438 83.308594 L 473.042969 71.070312 L 472.503906 70.53125 L 457.832031 72.328125 L 457.292969 72.960938 C 457.472656 76.199219 457.5625 78.089844 457.5625 80.25 C 457.5625 81.960938 457.5625 83.761719 457.472656 85.46875 L 458.101562 86.011719 C 464.222656 84.929688 465.933594 84.75 472.324219 83.941406 Z M 528.304688 140.371094 C 527.855469 132.449219 527.855469 129.929688 527.675781 121.109375 L 527.675781 114.089844 C 527.585938 105.449219 527.496094 101.308594 525.246094 97.621094 C 522.453125 92.941406 517.324219 92.21875 514.085938 92.21875 C 508.59375 92.21875 503.824219 95.101562 499.683594 97.53125 L 499.863281 92.578125 L 498.964844 91.949219 C 492.035156 93.390625 490.503906 93.660156 483.753906 94.558594 L 483.214844 95.191406 C 483.933594 103.019531 484.476562 108.691406 484.476562 123.359375 C 484.476562 129.121094 484.382812 134.878906 484.292969 140.640625 L 484.835938 141.179688 C 491.316406 140.910156 492.664062 140.910156 499.863281 140.910156 L 500.40625 140.371094 C 499.863281 126.511719 499.773438 123 499.683594 106.890625 C 501.574219 105.628906 503.734375 104.101562 506.613281 104.101562 C 511.566406 104.101562 512.015625 109.410156 512.285156 112.648438 C 512.464844 115.621094 512.554688 127.949219 512.554688 131.371094 C 512.554688 134.429688 512.464844 137.578125 512.464844 140.640625 L 513.003906 141.179688 C 518.945312 141 520.476562 140.910156 527.675781 140.910156 Z M 578.523438 127.679688 C 575.105469 129.480469 571.054688 131.550781 564.484375 131.550781 C 559.085938 131.550781 555.394531 129.839844 553.234375 126.601562 C 551.882812 124.710938 551.613281 122.910156 551.253906 121.109375 L 580.324219 120.570312 L 580.863281 119.941406 C 580.773438 115.53125 580.683594 111.03125 579.425781 106.53125 C 576.273438 95.910156 569.34375 93.75 566.285156 93.03125 C 564.035156 92.398438 561.964844 92.21875 559.894531 92.21875 C 545.765625 92.21875 536.402344 101.488281 536.402344 117.058594 C 536.402344 121.289062 537.125 125.699219 538.5625 128.851562 C 543.785156 141 556.023438 142.078125 562.503906 142.078125 C 569.972656 142.078125 573.214844 140.730469 577.984375 138.839844 L 578.523438 138.121094 L 579.152344 127.949219 L 578.523438 127.679688 M 551.253906 111.570312 C 551.523438 108.78125 552.152344 105 555.574219 102.839844 C 556.652344 102.121094 557.914062 101.851562 559.175781 101.851562 C 562.144531 101.851562 563.945312 103.378906 564.933594 105 C 566.195312 106.980469 566.285156 109.140625 566.285156 111.210938 Z M 608.046875 109.949219 C 604.984375 108.871094 602.554688 107.878906 602.554688 105.359375 C 602.554688 104.28125 603.277344 101.308594 608.855469 101.308594 C 614.347656 101.308594 617.855469 103.648438 620.105469 105.089844 L 620.917969 104.820312 L 621.816406 95.011719 L 621.367188 94.46875 C 617.136719 93.300781 613.445312 92.21875 607.597656 92.21875 C 603.1875 92.21875 594.367188 92.578125 589.6875 99.328125 C 588.515625 100.949219 587.257812 103.648438 587.257812 107.25 C 587.257812 116.878906 594.726562 119.761719 598.957031 121.378906 L 602.375 122.640625 C 604.804688 123.449219 608.765625 124.800781 608.765625 128.039062 C 608.765625 130.289062 606.695312 132.71875 601.65625 132.71875 C 599.136719 132.71875 595.445312 131.910156 592.117188 130.199219 C 590.585938 129.390625 589.867188 128.761719 588.515625 127.679688 L 587.707031 128.039062 C 587.527344 132.71875 587.4375 133.710938 587.074219 138.210938 L 587.527344 139.019531 C 591.9375 140.640625 595.714844 142.078125 602.285156 142.078125 C 609.125 142.078125 622.625 140.820312 624.246094 127.949219 C 624.335938 127.230469 624.335938 126.601562 624.335938 125.96875 C 624.335938 116.070312 617.40625 113.460938 612.457031 111.570312 Z M 684.542969 102.300781 C 676.984375 99.148438 673.023438 97.53125 673.023438 93.480469 C 673.023438 90.691406 675.632812 87.179688 681.574219 87.179688 C 688.414062 87.179688 692.460938 89.96875 695.792969 92.21875 L 696.601562 91.859375 L 697.324219 80.070312 L 696.871094 79.441406 C 693.003906 77.820312 688.953125 76.109375 680.222656 76.109375 C 663.304688 76.109375 657.453125 85.648438 657.453125 95.28125 C 657.453125 106.171875 665.914062 110.128906 670.953125 112.558594 L 673.921875 113.910156 C 680.132812 116.519531 684.902344 118.769531 684.902344 123.539062 C 684.902344 126.960938 681.933594 131.011719 674.101562 131.011719 C 665.914062 131.011719 661.324219 127.410156 658.710938 125.339844 L 657.8125 125.609375 L 657.183594 138.300781 L 657.722656 139.019531 C 658.710938 139.378906 659.703125 139.828125 660.691406 140.101562 C 662.761719 140.820312 668.074219 142.351562 674.824219 142.351562 C 677.523438 142.351562 684.363281 142.078125 689.761719 139.558594 C 697.324219 135.871094 700.5625 129.03125 700.5625 121.378906 C 700.5625 116.25 698.582031 110.761719 693.8125 107.070312 C 691.382812 105.269531 689.042969 104.191406 686.882812 103.199219 Z M 734.316406 130.648438 C 732.785156 131.101562 731.703125 131.460938 730.175781 131.460938 C 725.585938 131.460938 725.226562 128.578125 725.042969 127.230469 C 724.773438 124.890625 724.773438 119.941406 724.863281 116.339844 L 725.042969 103.648438 L 733.144531 104.011719 L 733.683594 103.46875 L 734.585938 93.839844 L 734.042969 93.300781 L 725.042969 93.300781 L 725.316406 78.179688 L 724.683594 77.640625 C 718.566406 79.441406 716.945312 79.890625 710.554688 81.511719 L 710.195312 82.140625 L 710.285156 93.390625 L 705.425781 93.210938 L 704.886719 93.660156 L 704.074219 103.289062 L 704.613281 103.828125 L 710.285156 103.648438 L 710.015625 117.960938 C 709.925781 120.210938 709.835938 122.460938 709.835938 124.800781 C 709.835938 133.078125 710.015625 141.988281 724.054688 141.988281 C 727.566406 141.988281 730.355469 141.449219 733.503906 140.910156 L 734.136719 140.28125 L 735.035156 131.011719 Z M 781.023438 114.179688 C 781.113281 106.078125 781.113281 102.570312 778.773438 98.789062 C 776.972656 95.910156 773.375 92.308594 761.855469 92.308594 C 754.113281 92.308594 749.34375 93.75 744.214844 95.28125 L 743.675781 96 L 743.222656 105.808594 L 743.945312 106.171875 C 747.09375 104.910156 752.945312 102.570312 758.972656 102.570312 C 762.304688 102.570312 763.652344 103.109375 764.824219 104.28125 C 765.722656 105.179688 765.996094 106.800781 765.996094 108.148438 C 755.195312 109.589844 750.152344 110.578125 744.753906 113.910156 C 739.714844 117.058594 738.003906 122.191406 738.003906 126.238281 C 738.003906 135.871094 744.933594 142.078125 753.753906 142.078125 C 760.503906 142.078125 764.375 138.839844 766.265625 137.308594 L 766.265625 140.640625 L 766.804688 141.269531 C 773.285156 141 775.265625 140.910156 781.113281 141 L 781.5625 140.371094 C 780.933594 131.550781 780.933594 129.300781 780.933594 120.839844 L 781.023438 114.179688 M 766.175781 128.488281 C 764.285156 129.570312 761.855469 130.828125 758.882812 130.828125 C 755.644531 130.828125 752.945312 129.121094 752.945312 125.339844 C 752.945312 119.398438 760.054688 118.410156 766.175781 117.601562 Z M 816.757812 130.648438 C 815.226562 131.101562 814.144531 131.460938 812.617188 131.460938 C 808.027344 131.460938 807.667969 128.578125 807.484375 127.230469 C 807.214844 124.890625 807.214844 119.941406 807.304688 116.339844 L 807.484375 103.648438 L 815.585938 104.011719 L 816.125 103.46875 L 817.027344 93.839844 L 816.484375 93.300781 L 807.484375 93.300781 L 807.757812 78.179688 L 807.125 77.640625 C 801.007812 79.441406 799.386719 79.890625 792.996094 81.511719 L 792.636719 82.140625 L 792.726562 93.390625 L 787.867188 93.210938 L 787.328125 93.660156 L 786.515625 103.289062 L 787.054688 103.828125 L 792.726562 103.648438 L 792.457031 117.960938 C 792.367188 120.210938 792.277344 122.460938 792.277344 124.800781 C 792.277344 133.078125 792.457031 141.988281 806.496094 141.988281 C 810.007812 141.988281 812.796875 141.449219 815.945312 140.910156 L 816.578125 140.28125 L 817.476562 131.011719 Z M 863.375 127.679688 C 859.957031 129.480469 855.90625 131.550781 849.335938 131.550781 C 843.9375 131.550781 840.246094 129.839844 838.085938 126.601562 C 836.734375 124.710938 836.464844 122.910156 836.105469 121.109375 L 865.175781 120.570312 L 865.714844 119.941406 C 865.625 115.53125 865.535156 111.03125 864.277344 106.53125 C 861.125 95.910156 854.195312 93.75 851.136719 93.03125 C 848.886719 92.398438 846.816406 92.21875 844.746094 92.21875 C 830.617188 92.21875 821.253906 101.488281 821.253906 117.058594 C 821.253906 121.289062 821.976562 125.699219 823.414062 128.851562 C 828.636719 141 840.875 142.078125 847.355469 142.078125 C 854.824219 142.078125 858.066406 140.730469 862.835938 138.839844 L 863.375 138.121094 L 864.003906 127.949219 L 863.375 127.679688 M 836.105469 111.570312 C 836.375 108.78125 837.003906 105 840.425781 102.839844 C 841.503906 102.121094 842.765625 101.851562 844.027344 101.851562 C 846.996094 101.851562 848.796875 103.378906 849.785156 105 C 851.046875 106.980469 851.136719 109.140625 851.136719 111.210938 Z M 868.59375 141 "/>
<path fill-rule="nonzero" fill="rgb(34.901961%, 14.901961%, 14.901961%)" fill-opacity="1" d="M 215.597656 197.191406 C 209.929688 197.460938 208.398438 197.550781 202.820312 197.460938 L 202.371094 198 L 203 210.148438 L 203.359375 222.570312 L 203.71875 237.421875 C 201.109375 233.011719 200.660156 232.289062 196.070312 225.449219 L 187.878906 213.480469 C 181.128906 203.21875 179.78125 201.238281 177.53125 197.640625 L 176.898438 197.191406 C 169.789062 197.550781 168.621094 197.550781 162.050781 197.460938 L 161.597656 198 C 162.050781 211.949219 162.320312 222.300781 162.320312 234.359375 C 162.320312 243.179688 162.140625 252 162.050781 260.730469 L 162.5 261.269531 C 168.53125 261 170.417969 261 175.640625 261 L 176.089844 260.460938 L 175.1875 240.75 L 174.917969 229.679688 L 174.378906 217.621094 C 178.609375 224.640625 180.050781 226.980469 186.167969 235.890625 L 195.167969 249.121094 L 203.179688 260.820312 L 203.808594 261.269531 C 209.300781 261 210.917969 261 215.6875 261 L 216.140625 260.550781 C 216.050781 247.5 215.960938 238.679688 215.960938 227.878906 C 215.960938 217.800781 216.050781 207.808594 216.140625 197.730469 Z M 267.167969 234.179688 C 267.257812 226.078125 267.257812 222.570312 264.917969 218.789062 C 263.117188 215.910156 259.519531 212.308594 248 212.308594 C 240.257812 212.308594 235.488281 213.75 230.359375 215.28125 L 229.820312 216 L 229.367188 225.808594 L 230.089844 226.171875 C 233.238281 224.910156 239.089844 222.570312 245.117188 222.570312 C 248.449219 222.570312 249.796875 223.109375 250.96875 224.28125 C 251.867188 225.179688 252.140625 226.800781 252.140625 228.148438 C 241.339844 229.589844 236.296875 230.578125 230.898438 233.910156 C 225.859375 237.058594 224.148438 242.191406 224.148438 246.238281 C 224.148438 255.871094 231.078125 262.078125 239.898438 262.078125 C 246.648438 262.078125 250.519531 258.839844 252.410156 257.308594 L 252.410156 260.640625 L 252.949219 261.269531 C 259.429688 261 261.410156 260.910156 267.257812 261 L 267.707031 260.371094 C 267.078125 251.550781 267.078125 249.300781 267.078125 240.839844 L 267.167969 234.179688 M 252.320312 248.488281 C 250.429688 249.570312 248 250.828125 245.027344 250.828125 C 241.789062 250.828125 239.089844 249.121094 239.089844 245.339844 C 239.089844 239.398438 246.199219 238.410156 252.320312 237.601562 Z M 302.902344 250.648438 C 301.371094 251.101562 300.289062 251.460938 298.761719 251.460938 C 294.171875 251.460938 293.8125 248.578125 293.628906 247.230469 C 293.359375 244.890625 293.359375 239.941406 293.449219 236.339844 L 293.628906 223.648438 L 301.730469 224.011719 L 302.269531 223.46875 L 303.171875 213.839844 L 302.628906 213.300781 L 293.628906 213.300781 L 293.902344 198.179688 L 293.269531 197.640625 C 287.152344 199.441406 285.53125 199.890625 279.140625 201.511719 L 278.78125 202.140625 L 278.871094 213.390625 L 274.011719 213.210938 L 273.472656 213.660156 L 272.660156 223.289062 L 273.199219 223.828125 L 278.871094 223.648438 L 278.601562 237.960938 C 278.511719 240.210938 278.421875 242.460938 278.421875 244.800781 C 278.421875 253.078125 278.601562 261.988281 292.640625 261.988281 C 296.152344 261.988281 298.941406 261.449219 302.089844 260.910156 L 302.722656 260.28125 L 303.621094 251.011719 Z M 352.761719 212.851562 L 338.089844 213.570312 L 337.460938 214.109375 C 338.089844 224.28125 338.089844 238.679688 338.089844 240.121094 C 338.089844 242.730469 338.089844 244.171875 338 247.769531 C 335.570312 249.390625 333.679688 250.738281 331.25 250.738281 C 324.769531 250.738281 324.769531 243.898438 324.769531 238.589844 C 324.769531 236.339844 324.769531 234 324.859375 231.75 L 325.039062 213.570312 L 324.410156 212.851562 L 309.558594 213.570312 L 308.929688 214.109375 C 309.46875 221.671875 309.558594 224.191406 309.558594 233.28125 L 309.558594 239.578125 C 309.46875 249.390625 309.921875 253.53125 313.160156 257.308594 C 316.128906 260.640625 320.449219 262.078125 324.949219 262.078125 C 331.339844 262.078125 335.03125 259.199219 338.269531 256.679688 L 338.179688 260.730469 L 338.808594 261.269531 C 345.378906 261 347.359375 261 353.210938 261 L 353.75 260.460938 C 353.300781 254.070312 353.121094 250.648438 353.121094 238.949219 C 353.121094 230.488281 353.210938 222.03125 353.390625 213.570312 Z M 389.929688 227.609375 L 392.449219 212.941406 L 391.910156 212.308594 C 391.28125 212.308594 390.648438 212.21875 390.019531 212.21875 C 386.328125 212.21875 382.191406 214.289062 379.308594 220.949219 L 379.578125 212.671875 L 378.859375 211.949219 C 372.199219 213.390625 370.488281 213.660156 363.917969 214.648438 L 363.378906 215.191406 C 363.917969 221.941406 364.191406 225.988281 364.191406 238.5 C 364.191406 245.878906 364.097656 253.261719 363.917969 260.730469 L 364.460938 261.269531 C 371.121094 261 372.558594 260.910156 379.757812 261 L 380.210938 260.371094 C 379.847656 253.078125 379.308594 242.910156 379.308594 236.699219 C 379.308594 232.648438 379.308594 226.710938 385.429688 226.710938 C 386.960938 226.710938 387.859375 227.25 389.121094 227.96875 Z M 437.71875 234.179688 C 437.808594 226.078125 437.808594 222.570312 435.46875 218.789062 C 433.667969 215.910156 430.070312 212.308594 418.550781 212.308594 C 410.808594 212.308594 406.039062 213.75 400.910156 215.28125 L 400.371094 216 L 399.917969 225.808594 L 400.640625 226.171875 C 403.789062 224.910156 409.640625 222.570312 415.667969 222.570312 C 419 222.570312 420.347656 223.109375 421.519531 224.28125 C 422.417969 225.179688 422.691406 226.800781 422.691406 228.148438 C 411.890625 229.589844 406.847656 230.578125 401.449219 233.910156 C 396.410156 237.058594 394.699219 242.191406 394.699219 246.238281 C 394.699219 255.871094 401.628906 262.078125 410.449219 262.078125 C 417.199219 262.078125 421.070312 258.839844 422.960938 257.308594 L 422.960938 260.640625 L 423.5 261.269531 C 429.980469 261 431.960938 260.910156 437.808594 261 L 438.257812 260.371094 C 437.628906 251.550781 437.628906 249.300781 437.628906 240.839844 L 437.71875 234.179688 M 422.871094 248.488281 C 420.980469 249.570312 418.550781 250.828125 415.578125 250.828125 C 412.339844 250.828125 409.640625 249.121094 409.640625 245.339844 C 409.640625 239.398438 416.75 238.410156 422.871094 237.601562 Z M 464.085938 260.371094 C 463.636719 250.019531 463.1875 240.570312 463.1875 212.128906 C 463.1875 203.578125 463.277344 199.53125 463.636719 189.808594 L 463.007812 189.179688 L 447.617188 191.609375 L 447.257812 192.148438 C 448.15625 203.128906 448.246094 206.101562 448.425781 220.679688 C 448.519531 225.988281 448.519531 231.300781 448.519531 236.609375 C 448.519531 246.328125 448.335938 251.730469 447.976562 260.640625 L 448.519531 261.269531 C 454.546875 261 456.976562 260.910156 463.546875 261 Z M 521.148438 236.25 C 527.179688 246.511719 528.53125 249.210938 534.289062 261 L 535.011719 261.449219 C 537.800781 261.269531 540.5 261.089844 543.289062 261 C 546.082031 260.910156 548.960938 260.820312 551.75 260.820312 L 552.289062 259.738281 C 548.871094 255.328125 547.878906 253.980469 541.398438 243.628906 C 538.519531 239.039062 537.082031 236.609375 534.832031 232.648438 C 538.878906 230.851562 547.070312 227.070312 547.070312 215.640625 C 547.070312 211.679688 545.988281 203.488281 538.609375 199.621094 C 533.929688 197.191406 529.070312 197.101562 518.539062 197.28125 L 512.238281 197.371094 L 501.261719 197.371094 L 500.808594 197.910156 C 501.171875 207 501.53125 216.359375 501.53125 240.839844 C 501.53125 249.210938 501.441406 253.261719 501.171875 260.730469 L 501.710938 261.269531 C 508.28125 261 509.71875 260.910156 517.101562 261 L 517.640625 260.460938 C 516.921875 250.019531 516.832031 247.140625 516.738281 236.429688 L 521.148438 236.25 M 516.921875 208.261719 C 518.179688 208.171875 519.441406 208.171875 520.699219 208.171875 C 524.210938 208.171875 531.140625 208.171875 531.140625 216.089844 C 531.140625 218.609375 530.511719 221.941406 527.179688 224.011719 C 524.660156 225.539062 521.421875 225.71875 516.921875 225.808594 Z M 597.019531 247.679688 C 593.601562 249.480469 589.550781 251.550781 582.980469 251.550781 C 577.582031 251.550781 573.890625 249.839844 571.730469 246.601562 C 570.378906 244.710938 570.109375 242.910156 569.75 241.109375 L 598.820312 240.570312 L 599.359375 239.941406 C 599.269531 235.53125 599.179688 231.03125 597.921875 226.53125 C 594.769531 215.910156 587.839844 213.75 584.78125 213.03125 C 582.53125 212.398438 580.460938 212.21875 578.390625 212.21875 C 564.261719 212.21875 554.898438 221.488281 554.898438 237.058594 C 554.898438 241.289062 555.621094 245.699219 557.058594 248.851562 C 562.28125 261 574.519531 262.078125 581 262.078125 C 588.46875 262.078125 591.710938 260.730469 596.480469 258.839844 L 597.019531 258.121094 L 597.648438 247.949219 L 597.019531 247.679688 M 569.75 231.570312 C 570.019531 228.78125 570.648438 225 574.070312 222.839844 C 575.148438 222.121094 576.410156 221.851562 577.671875 221.851562 C 580.640625 221.851562 582.441406 223.378906 583.429688 225 C 584.691406 226.980469 584.78125 229.140625 584.78125 231.210938 Z M 626.539062 229.949219 C 623.476562 228.871094 621.046875 227.878906 621.046875 225.359375 C 621.046875 224.28125 621.769531 221.308594 627.347656 221.308594 C 632.839844 221.308594 636.347656 223.648438 638.597656 225.089844 L 639.410156 224.820312 L 640.308594 215.011719 L 639.859375 214.46875 C 635.628906 213.300781 631.9375 212.21875 626.089844 212.21875 C 621.679688 212.21875 612.859375 212.578125 608.179688 219.328125 C 607.007812 220.949219 605.75 223.648438 605.75 227.25 C 605.75 236.878906 613.21875 239.761719 617.449219 241.378906 L 620.867188 242.640625 C 623.296875 243.449219 627.257812 244.800781 627.257812 248.039062 C 627.257812 250.289062 625.1875 252.71875 620.148438 252.71875 C 617.628906 252.71875 613.9375 251.910156 610.609375 250.199219 C 609.078125 249.390625 608.359375 248.761719 607.007812 247.679688 L 606.199219 248.039062 C 606.019531 252.71875 605.929688 253.710938 605.566406 258.210938 L 606.019531 259.019531 C 610.429688 260.640625 614.207031 262.078125 620.777344 262.078125 C 627.617188 262.078125 641.117188 260.820312 642.738281 247.949219 C 642.828125 247.230469 642.828125 246.601562 642.828125 245.96875 C 642.828125 236.070312 635.898438 233.460938 630.949219 231.570312 Z M 690.707031 247.679688 C 687.289062 249.480469 683.238281 251.550781 676.667969 251.550781 C 671.269531 251.550781 667.578125 249.839844 665.417969 246.601562 C 664.066406 244.710938 663.796875 242.910156 663.4375 241.109375 L 692.507812 240.570312 L 693.046875 239.941406 C 692.957031 235.53125 692.867188 231.03125 691.609375 226.53125 C 688.457031 215.910156 681.527344 213.75 678.46875 213.03125 C 676.21875 212.398438 674.148438 212.21875 672.078125 212.21875 C 657.949219 212.21875 648.585938 221.488281 648.585938 237.058594 C 648.585938 241.289062 649.308594 245.699219 650.746094 248.851562 C 655.96875 261 668.207031 262.078125 674.6875 262.078125 C 682.15625 262.078125 685.398438 260.730469 690.167969 258.839844 L 690.707031 258.121094 L 691.335938 247.949219 L 690.707031 247.679688 M 663.4375 231.570312 C 663.707031 228.78125 664.335938 225 667.757812 222.839844 C 668.835938 222.121094 670.097656 221.851562 671.359375 221.851562 C 674.328125 221.851562 676.128906 223.378906 677.117188 225 C 678.378906 226.980469 678.46875 229.140625 678.46875 231.210938 Z M 727.339844 227.609375 L 729.859375 212.941406 L 729.320312 212.308594 C 728.691406 212.308594 728.058594 212.21875 727.429688 212.21875 C 723.738281 212.21875 719.601562 214.289062 716.71875 220.949219 L 716.988281 212.671875 L 716.269531 211.949219 C 709.609375 213.390625 707.898438 213.660156 701.328125 214.648438 L 700.789062 215.191406 C 701.328125 221.941406 701.601562 225.988281 701.601562 238.5 C 701.601562 245.878906 701.507812 253.261719 701.328125 260.730469 L 701.871094 261.269531 C 708.53125 261 709.96875 260.910156 717.167969 261 L 717.621094 260.371094 C 717.257812 253.078125 716.71875 242.910156 716.71875 236.699219 C 716.71875 232.648438 716.71875 226.710938 722.839844 226.710938 C 724.371094 226.710938 725.269531 227.25 726.53125 227.96875 Z M 759.917969 260.28125 C 762.800781 251.28125 764.507812 245.699219 766.398438 240.03125 C 768.828125 232.738281 772.789062 221.039062 775.308594 213.660156 L 774.859375 213.03125 L 762.257812 213.300781 L 761.628906 213.929688 C 760.371094 219.960938 760.101562 221.21875 758.300781 228.238281 L 753.710938 245.96875 L 751.460938 236.25 L 749.75 229.320312 C 747.5 220.949219 747.140625 219.238281 745.878906 213.300781 L 745.25 212.761719 C 738.140625 213.570312 736.339844 213.660156 729.5 213.75 L 729.140625 214.46875 C 741.109375 249.929688 742.101562 253.261719 744.078125 260.640625 L 744.710938 261.269531 C 750.558594 261 752.898438 260.910156 759.378906 261 Z M 820.039062 247.679688 C 816.621094 249.480469 812.570312 251.550781 806 251.550781 C 800.601562 251.550781 796.910156 249.839844 794.75 246.601562 C 793.398438 244.710938 793.128906 242.910156 792.769531 241.109375 L 821.839844 240.570312 L 822.378906 239.941406 C 822.289062 235.53125 822.199219 231.03125 820.941406 226.53125 C 817.789062 215.910156 810.859375 213.75 807.800781 213.03125 C 805.550781 212.398438 803.480469 212.21875 801.410156 212.21875 C 787.28125 212.21875 777.917969 221.488281 777.917969 237.058594 C 777.917969 241.289062 778.640625 245.699219 780.078125 248.851562 C 785.300781 261 797.539062 262.078125 804.019531 262.078125 C 811.488281 262.078125 814.730469 260.730469 819.5 258.839844 L 820.039062 258.121094 L 820.667969 247.949219 L 820.039062 247.679688 M 792.769531 231.570312 C 793.039062 228.78125 793.667969 225 797.089844 222.839844 C 798.167969 222.121094 799.429688 221.851562 800.691406 221.851562 C 803.660156 221.851562 805.460938 223.378906 806.449219 225 C 807.710938 226.980469 807.800781 229.140625 807.800781 231.210938 Z M 825.257812 261 "/>
</svg>
