<?xml version="1.0" encoding="UTF-8"?>
<svg xmlns="http://www.w3.org/2000/svg" xmlns:xlink="http://www.w3.org/1999/xlink" width="975" height="1300" viewBox="0 0 975 1300">
<path fill-rule="nonzero" fill="rgb(98.823529%, 78.823529%, 9.019608%)" fill-opacity="1" d="M 50 50 L 925 50 L 925 290 L 50 290 Z M 50 50 "/>
<path fill-rule="nonzero" fill="rgb(34.901961%, 14.901961%, 14.901961%)" fill-opacity="1" d="M 202.730469 102.300781 C 195.171875 99.148438 191.210938 97.53125 191.210938 93.480469 C 191.210938 90.691406 193.820312 87.179688 199.761719 87.179688 C 206.601562 87.179688 210.648438 89.96875 213.980469 92.21875 L 214.789062 91.859375 L 215.511719 80.070312 L 215.058594 79.441406 C 211.191406 77.820312 207.140625 76.109375 198.410156 76.109375 C 181.492188 76.109375 175.640625 85.648438 175.640625 95.28125 C 175.640625 106.171875 184.101562 110.128906 189.140625 112.558594 L 192.109375 113.910156 C 198.320312 116.519531 203.089844 118.769531 203.089844 123.539062 C 203.089844 126.960938 200.121094 131.011719 192.289062 131.011719 C 184.101562 131.011719 179.511719 127.410156 176.898438 125.339844 L 176 125.609375 L 175.371094 138.300781 L 175.910156 139.019531 C 176.898438 139.378906 177.890625 139.828125 178.878906 140.101562 C 180.949219 140.820312 186.261719 142.351562 193.011719 142.351562 C 195.710938 142.351562 202.550781 142.078125 207.949219 139.558594 C 215.511719 135.871094 218.75 129.03125 218.75 121.378906 C 218.75 116.25 216.769531 110.761719 212 107.070312 C 209.570312 105.269531 207.230469 104.191406 205.070312 103.199219 Z M 273.109375 117.058594 C 273.109375 113.550781 273.109375 98.96875 260.507812 94.019531 C 256.546875 92.488281 251.867188 92.308594 249.527344 92.308594 C 233.867188 92.308594 225.046875 100.679688 225.046875 117.238281 C 225.046875 123 225.949219 128.851562 229.277344 133.710938 C 231.617188 137.21875 236.027344 142.078125 248.898438 142.078125 C 267.976562 142.078125 273.109375 130.558594 273.109375 117.058594 M 257.539062 116.96875 C 257.539062 124.351562 256.546875 132.539062 249.078125 132.539062 C 246.738281 132.539062 245.117188 131.460938 244.039062 130.46875 C 242.507812 128.941406 240.796875 125.878906 240.796875 117.148438 C 240.796875 114.539062 240.796875 108.78125 242.597656 105.628906 C 243.949219 103.199219 246.289062 101.578125 249.167969 101.578125 C 251.6875 101.578125 253.757812 102.929688 254.929688 104.371094 C 257.089844 106.980469 257.539062 112.109375 257.539062 116.96875 Z M 324.863281 92.851562 L 310.191406 93.570312 L 309.5625 94.109375 C 310.191406 104.28125 310.191406 118.679688 310.191406 120.121094 C 310.191406 122.730469 310.191406 124.171875 310.101562 127.769531 C 307.671875 129.390625 305.78125 130.738281 303.351562 130.738281 C 296.871094 130.738281 296.871094 123.898438 296.871094 118.589844 C 296.871094 116.339844 296.871094 114 296.960938 111.75 L 297.140625 93.570312 L 296.511719 92.851562 L 281.660156 93.570312 L 281.03125 94.109375 C 281.570312 101.671875 281.660156 104.191406 281.660156 113.28125 L 281.660156 119.578125 C 281.570312 129.390625 282.023438 133.53125 285.261719 137.308594 C 288.230469 140.640625 292.550781 142.078125 297.050781 142.078125 C 303.441406 142.078125 307.132812 139.199219 310.371094 136.679688 L 310.28125 140.730469 L 310.910156 141.269531 C 317.480469 141 319.460938 141 325.3125 141 L 325.851562 140.460938 C 325.402344 134.070312 325.222656 130.648438 325.222656 118.949219 C 325.222656 110.488281 325.3125 102.03125 325.492188 93.570312 Z M 361.222656 130.648438 C 359.691406 131.101562 358.609375 131.460938 357.082031 131.460938 C 352.492188 131.460938 352.132812 128.578125 351.949219 127.230469 C 351.679688 124.890625 351.679688 119.941406 351.769531 116.339844 L 351.949219 103.648438 L 360.050781 104.011719 L 360.589844 103.46875 L 361.492188 93.839844 L 360.949219 93.300781 L 351.949219 93.300781 L 352.222656 78.179688 L 351.589844 77.640625 C 345.472656 79.441406 343.851562 79.890625 337.460938 81.511719 L 337.101562 82.140625 L 337.191406 93.390625 L 332.332031 93.210938 L 331.792969 93.660156 L 330.980469 103.289062 L 331.519531 103.828125 L 337.191406 103.648438 L 336.921875 117.960938 C 336.832031 120.210938 336.742188 122.460938 336.742188 124.800781 C 336.742188 133.078125 336.921875 141.988281 350.960938 141.988281 C 354.472656 141.988281 357.261719 141.449219 360.410156 140.910156 L 361.042969 140.28125 L 361.941406 131.011719 Z M 411.980469 140.371094 C 411.621094 132.988281 411.53125 130.46875 411.351562 121.109375 L 411.351562 114.359375 C 411.261719 105.808594 411.171875 100.859375 408.558594 97.078125 C 405.949219 93.390625 402.171875 92.21875 398.210938 92.21875 C 391.640625 92.21875 386.511719 95.371094 382.910156 97.53125 L 383.179688 69.808594 L 382.640625 69.179688 L 367.25 71.609375 L 366.800781 72.148438 C 367.609375 80.878906 367.789062 84.121094 367.96875 95.730469 C 368.152344 103.019531 368.242188 110.308594 368.242188 117.601562 C 368.242188 126.511719 368.058594 131.820312 367.878906 140.640625 L 368.332031 141.269531 C 374.992188 140.910156 376.339844 140.910156 383.628906 140.910156 L 384.171875 140.371094 C 383.539062 126.871094 383.449219 122.820312 383.359375 106.890625 C 385.070312 105.71875 387.230469 104.191406 390.289062 104.191406 C 395.242188 104.191406 395.601562 109.320312 395.960938 112.921875 C 396.140625 115.710938 396.230469 128.488281 396.230469 131.820312 C 396.230469 134.789062 396.140625 137.671875 396.140625 140.640625 L 396.589844 141.269531 C 403.070312 140.910156 404.511719 140.910156 411.441406 140.910156 Z M 495.230469 124.890625 C 493.160156 126.511719 488.570312 129.929688 481.101562 129.929688 C 470.839844 129.929688 463.640625 122.28125 463.640625 109.5 C 463.640625 101.761719 466.339844 88.171875 481.011719 88.171875 C 487.761719 88.171875 491.449219 90.78125 493.699219 92.488281 L 494.511719 92.308594 L 495.320312 79.890625 L 494.960938 79.441406 C 491.722656 78.179688 486.230469 76.109375 478.3125 76.109375 C 455 76.109375 446.902344 94.109375 446.902344 109.859375 C 446.902344 127.140625 457.429688 142.351562 479.390625 142.351562 C 486.949219 142.351562 491.902344 140.371094 494.78125 139.199219 L 495.230469 138.660156 L 495.859375 125.25 Z M 542.929688 114.179688 C 543.019531 106.078125 543.019531 102.570312 540.679688 98.789062 C 538.878906 95.910156 535.28125 92.308594 523.761719 92.308594 C 516.019531 92.308594 511.25 93.75 506.121094 95.28125 L 505.582031 96 L 505.128906 105.808594 L 505.851562 106.171875 C 509 104.910156 514.851562 102.570312 520.878906 102.570312 C 524.210938 102.570312 525.558594 103.109375 526.730469 104.28125 C 527.628906 105.179688 527.902344 106.800781 527.902344 108.148438 C 517.101562 109.589844 512.058594 110.578125 506.660156 113.910156 C 501.621094 117.058594 499.910156 122.191406 499.910156 126.238281 C 499.910156 135.871094 506.839844 142.078125 515.660156 142.078125 C 522.410156 142.078125 526.28125 138.839844 528.171875 137.308594 L 528.171875 140.640625 L 528.710938 141.269531 C 535.191406 141 537.171875 140.910156 543.019531 141 L 543.46875 140.371094 C 542.839844 131.550781 542.839844 129.300781 542.839844 120.839844 L 542.929688 114.179688 M 528.082031 128.488281 C 526.191406 129.570312 523.761719 130.828125 520.789062 130.828125 C 517.550781 130.828125 514.851562 129.121094 514.851562 125.339844 C 514.851562 119.398438 521.960938 118.410156 528.082031 117.601562 Z M 579.46875 107.609375 L 581.988281 92.941406 L 581.449219 92.308594 C 580.820312 92.308594 580.1875 92.21875 579.558594 92.21875 C 575.867188 92.21875 571.730469 94.289062 568.847656 100.949219 L 569.117188 92.671875 L 568.398438 91.949219 C 561.738281 93.390625 560.027344 93.660156 553.457031 94.648438 L 552.917969 95.191406 C 553.457031 101.941406 553.730469 105.988281 553.730469 118.5 C 553.730469 125.878906 553.636719 133.261719 553.457031 140.730469 L 554 141.269531 C 560.660156 141 562.097656 140.910156 569.296875 141 L 569.75 140.371094 C 569.386719 133.078125 568.847656 122.910156 568.847656 116.699219 C 568.847656 112.648438 568.847656 106.710938 574.96875 106.710938 C 576.5 106.710938 577.398438 107.25 578.660156 107.96875 Z M 603.046875 140.371094 C 602.597656 130.019531 602.148438 120.570312 602.148438 92.128906 C 602.148438 83.578125 602.238281 79.53125 602.597656 69.808594 L 601.96875 69.179688 L 586.578125 71.609375 L 586.21875 72.148438 C 587.117188 83.128906 587.207031 86.101562 587.386719 100.679688 C 587.480469 105.988281 587.480469 111.300781 587.480469 116.609375 C 587.480469 126.328125 587.296875 131.730469 586.9375 140.640625 L 587.480469 141.269531 C 593.507812 141 595.9375 140.910156 602.507812 141 Z M 632.390625 109.949219 C 629.328125 108.871094 626.898438 107.878906 626.898438 105.359375 C 626.898438 104.28125 627.621094 101.308594 633.199219 101.308594 C 638.691406 101.308594 642.199219 103.648438 644.449219 105.089844 L 645.261719 104.820312 L 646.160156 95.011719 L 645.710938 94.46875 C 641.480469 93.300781 637.789062 92.21875 631.941406 92.21875 C 627.53125 92.21875 618.710938 92.578125 614.03125 99.328125 C 612.859375 100.949219 611.601562 103.648438 611.601562 107.25 C 611.601562 116.878906 619.070312 119.761719 623.300781 121.378906 L 626.71875 122.640625 C 629.148438 123.449219 633.109375 124.800781 633.109375 128.039062 C 633.109375 130.289062 631.039062 132.71875 626 132.71875 C 623.480469 132.71875 619.789062 131.910156 616.460938 130.199219 C 614.929688 129.390625 614.210938 128.761719 612.859375 127.679688 L 612.050781 128.039062 C 611.871094 132.71875 611.78125 133.710938 611.417969 138.210938 L 611.871094 139.019531 C 616.28125 140.640625 620.058594 142.078125 626.628906 142.078125 C 633.46875 142.078125 646.96875 140.820312 648.589844 127.949219 C 648.679688 127.230469 648.679688 126.601562 648.679688 125.96875 C 648.679688 116.070312 641.75 113.460938 636.800781 111.570312 Z M 663.078125 141.179688 L 664.878906 141.179688 C 679.277344 141.179688 688.550781 140.460938 695.390625 133.171875 C 701.777344 126.328125 702.410156 118.230469 702.410156 114.449219 C 702.410156 101.941406 695.210938 92.21875 682.96875 92.21875 C 677.027344 92.21875 673.878906 94.199219 671.359375 95.820312 L 671.898438 69.71875 L 671.179688 69.179688 L 656.238281 71.519531 L 655.699219 72.148438 C 656.417969 79.710938 656.6875 82.769531 656.6875 100.859375 C 656.6875 108.601562 656.597656 123.898438 656.507812 140.640625 L 657.140625 141.269531 L 663.078125 141.179688 M 671.71875 104.730469 C 673.519531 103.828125 675.230469 102.929688 677.570312 102.929688 C 683.507812 102.929688 686.929688 108.238281 686.929688 116.519531 C 686.929688 123 684.050781 127.230469 681.621094 128.941406 C 678.648438 131.011719 674.777344 131.101562 671.71875 131.191406 Z M 751.007812 114.179688 C 751.097656 106.078125 751.097656 102.570312 748.757812 98.789062 C 746.957031 95.910156 743.359375 92.308594 731.839844 92.308594 C 724.097656 92.308594 719.328125 93.75 714.199219 95.28125 L 713.660156 96 L 713.207031 105.808594 L 713.929688 106.171875 C 717.078125 104.910156 722.929688 102.570312 728.957031 102.570312 C 732.289062 102.570312 733.636719 103.109375 734.808594 104.28125 C 735.707031 105.179688 735.980469 106.800781 735.980469 108.148438 C 725.179688 109.589844 720.136719 110.578125 714.738281 113.910156 C 709.699219 117.058594 707.988281 122.191406 707.988281 126.238281 C 707.988281 135.871094 714.917969 142.078125 723.738281 142.078125 C 730.488281 142.078125 734.359375 138.839844 736.25 137.308594 L 736.25 140.640625 L 736.789062 141.269531 C 743.269531 141 745.25 140.910156 751.097656 141 L 751.546875 140.371094 C 750.917969 131.550781 750.917969 129.300781 750.917969 120.839844 L 751.007812 114.179688 M 736.160156 128.488281 C 734.269531 129.570312 731.839844 130.828125 728.867188 130.828125 C 725.628906 130.828125 722.929688 129.121094 722.929688 125.339844 C 722.929688 119.398438 730.039062 118.410156 736.160156 117.601562 Z M 805.640625 140.460938 C 805.28125 132.359375 805.011719 126.960938 805.011719 115.171875 C 805.011719 91.410156 805.371094 81.601562 805.730469 69.71875 L 805.101562 69.179688 L 790.25 71.519531 L 789.800781 72.058594 C 790.339844 80.519531 790.429688 82.769531 790.339844 93.03125 C 783.589844 92.851562 775.128906 92.671875 768.289062 98.070312 C 761.992188 102.929688 759.378906 110.398438 759.378906 119.671875 C 759.378906 126.691406 761.269531 133.710938 766.582031 138.121094 C 770.539062 141.359375 775.402344 142.078125 778.371094 142.078125 C 784.761719 142.078125 788.089844 139.109375 790.25 137.21875 L 790.070312 140.730469 L 790.519531 141.269531 C 796.730469 141 798.441406 141 805.191406 141 L 805.640625 140.460938 M 790.339844 103.828125 C 790.429688 115.800781 790.339844 118.140625 790.070312 129.03125 C 788.269531 130.109375 786.46875 131.191406 783.949219 131.191406 C 775.21875 131.191406 775.21875 120.03125 775.21875 118.230469 C 775.21875 111.300781 777.199219 103.558594 787.28125 103.558594 C 788.269531 103.558594 789.082031 103.648438 790.339844 103.828125 Z M 810.5 141 "/>
<path fill-rule="nonzero" fill="rgb(34.901961%, 14.901961%, 14.901961%)" fill-opacity="1" d="M 273.109375 222.300781 C 265.550781 219.148438 261.589844 217.53125 261.589844 213.480469 C 261.589844 210.691406 264.199219 207.179688 270.140625 207.179688 C 276.980469 207.179688 281.027344 209.96875 284.359375 212.21875 L 285.167969 211.859375 L 285.890625 200.070312 L 285.4375 199.441406 C 281.570312 197.820312 277.519531 196.109375 268.789062 196.109375 C 251.871094 196.109375 246.019531 205.648438 246.019531 215.28125 C 246.019531 226.171875 254.480469 230.128906 259.519531 232.558594 L 262.488281 233.910156 C 268.699219 236.519531 273.46875 238.769531 273.46875 243.539062 C 273.46875 246.960938 270.5 251.011719 262.667969 251.011719 C 254.480469 251.011719 249.890625 247.410156 247.277344 245.339844 L 246.378906 245.609375 L 245.75 258.300781 L 246.289062 259.019531 C 247.277344 259.378906 248.269531 259.828125 249.257812 260.101562 C 251.328125 260.820312 256.640625 262.351562 263.390625 262.351562 C 266.089844 262.351562 272.929688 262.078125 278.328125 259.558594 C 285.890625 255.871094 289.128906 249.03125 289.128906 241.378906 C 289.128906 236.25 287.148438 230.761719 282.378906 227.070312 C 279.949219 225.269531 277.609375 224.191406 275.449219 223.199219 Z M 322.878906 250.648438 C 321.347656 251.101562 320.265625 251.460938 318.738281 251.460938 C 314.148438 251.460938 313.789062 248.578125 313.605469 247.230469 C 313.335938 244.890625 313.335938 239.941406 313.425781 236.339844 L 313.605469 223.648438 L 321.707031 224.011719 L 322.246094 223.46875 L 323.148438 213.839844 L 322.605469 213.300781 L 313.605469 213.300781 L 313.878906 198.179688 L 313.246094 197.640625 C 307.128906 199.441406 305.507812 199.890625 299.117188 201.511719 L 298.757812 202.140625 L 298.847656 213.390625 L 293.988281 213.210938 L 293.449219 213.660156 L 292.636719 223.289062 L 293.175781 223.828125 L 298.847656 223.648438 L 298.578125 237.960938 C 298.488281 240.210938 298.398438 242.460938 298.398438 244.800781 C 298.398438 253.078125 298.578125 261.988281 312.617188 261.988281 C 316.128906 261.988281 318.917969 261.449219 322.066406 260.910156 L 322.699219 260.28125 L 323.597656 251.011719 Z M 369.589844 234.179688 C 369.679688 226.078125 369.679688 222.570312 367.339844 218.789062 C 365.539062 215.910156 361.941406 212.308594 350.421875 212.308594 C 342.679688 212.308594 337.910156 213.75 332.78125 215.28125 L 332.242188 216 L 331.789062 225.808594 L 332.511719 226.171875 C 335.660156 224.910156 341.511719 222.570312 347.539062 222.570312 C 350.871094 222.570312 352.21875 223.109375 353.390625 224.28125 C 354.289062 225.179688 354.5625 226.800781 354.5625 228.148438 C 343.761719 229.589844 338.71875 230.578125 333.320312 233.910156 C 328.28125 237.058594 326.570312 242.191406 326.570312 246.238281 C 326.570312 255.871094 333.5 262.078125 342.320312 262.078125 C 349.070312 262.078125 352.941406 258.839844 354.832031 257.308594 L 354.832031 260.640625 L 355.371094 261.269531 C 361.851562 261 363.832031 260.910156 369.679688 261 L 370.128906 260.371094 C 369.5 251.550781 369.5 249.300781 369.5 240.839844 L 369.589844 234.179688 M 354.742188 248.488281 C 352.851562 249.570312 350.421875 250.828125 347.449219 250.828125 C 344.210938 250.828125 341.511719 249.121094 341.511719 245.339844 C 341.511719 239.398438 348.621094 238.410156 354.742188 237.601562 Z M 405.320312 250.648438 C 403.789062 251.101562 402.707031 251.460938 401.179688 251.460938 C 396.589844 251.460938 396.230469 248.578125 396.046875 247.230469 C 395.777344 244.890625 395.777344 239.941406 395.867188 236.339844 L 396.046875 223.648438 L 404.148438 224.011719 L 404.6875 223.46875 L 405.589844 213.839844 L 405.046875 213.300781 L 396.046875 213.300781 L 396.320312 198.179688 L 395.6875 197.640625 C 389.570312 199.441406 387.949219 199.890625 381.558594 201.511719 L 381.199219 202.140625 L 381.289062 213.390625 L 376.429688 213.210938 L 375.890625 213.660156 L 375.078125 223.289062 L 375.617188 223.828125 L 381.289062 223.648438 L 381.019531 237.960938 C 380.929688 240.210938 380.839844 242.460938 380.839844 244.800781 C 380.839844 253.078125 381.019531 261.988281 395.058594 261.988281 C 398.570312 261.988281 401.359375 261.449219 404.507812 260.910156 L 405.140625 260.28125 L 406.039062 251.011719 Z M 451.9375 247.679688 C 448.519531 249.480469 444.46875 251.550781 437.898438 251.550781 C 432.5 251.550781 428.808594 249.839844 426.648438 246.601562 C 425.296875 244.710938 425.027344 242.910156 424.667969 241.109375 L 453.738281 240.570312 L 454.277344 239.941406 C 454.1875 235.53125 454.097656 231.03125 452.839844 226.53125 C 449.6875 215.910156 442.757812 213.75 439.699219 213.03125 C 437.449219 212.398438 435.378906 212.21875 433.308594 212.21875 C 419.179688 212.21875 409.816406 221.488281 409.816406 237.058594 C 409.816406 241.289062 410.539062 245.699219 411.976562 248.851562 C 417.199219 261 429.4375 262.078125 435.917969 262.078125 C 443.386719 262.078125 446.628906 260.730469 451.398438 258.839844 L 451.9375 258.121094 L 452.566406 247.949219 L 451.9375 247.679688 M 424.667969 231.570312 C 424.9375 228.78125 425.566406 225 428.988281 222.839844 C 430.066406 222.121094 431.328125 221.851562 432.589844 221.851562 C 435.558594 221.851562 437.359375 223.378906 438.347656 225 C 439.609375 226.980469 439.699219 229.140625 439.699219 231.210938 Z M 505.578125 261 C 513.949219 261.179688 524.296875 261.359375 531.046875 256.679688 C 536.988281 252.449219 538.609375 246.511719 538.609375 241.46875 C 538.609375 235.710938 536.175781 230.398438 531.046875 227.878906 C 529.335938 226.980469 527.359375 226.621094 525.46875 226.261719 C 528.527344 225 532.128906 223.378906 534.46875 218.609375 C 535.457031 216.539062 535.90625 214.378906 535.90625 212.308594 C 535.90625 209.429688 535.1875 205.46875 532.308594 202.230469 C 528.527344 198.179688 522.675781 197.101562 513.859375 197.101562 C 510.796875 197.101562 505.308594 197.191406 502.246094 197.28125 L 489.648438 197.460938 L 489.109375 198 C 489.46875 206.640625 489.558594 209.96875 489.558594 222.390625 C 489.558594 235.171875 489.46875 247.859375 489.289062 260.640625 L 489.917969 261 L 505.578125 261 M 504.949219 233.640625 C 511.789062 233.460938 515.746094 233.460938 518.359375 234.988281 C 520.96875 236.609375 521.957031 239.488281 521.957031 242.371094 C 521.957031 246.421875 519.707031 248.941406 516.378906 250.109375 C 513.675781 251.011719 508.816406 251.011719 504.949219 250.921875 L 504.949219 233.640625 M 504.949219 207.179688 C 506.835938 207.179688 509.359375 207.089844 510.886719 207.089844 C 515.746094 207.089844 520.15625 208.800781 520.15625 214.648438 C 520.15625 219.421875 516.648438 221.398438 515.566406 221.941406 C 513.316406 222.929688 508.546875 222.929688 504.949219 222.929688 Z M 586.9375 247.679688 C 583.519531 249.480469 579.46875 251.550781 572.898438 251.550781 C 567.5 251.550781 563.808594 249.839844 561.648438 246.601562 C 560.296875 244.710938 560.027344 242.910156 559.667969 241.109375 L 588.738281 240.570312 L 589.277344 239.941406 C 589.1875 235.53125 589.097656 231.03125 587.839844 226.53125 C 584.6875 215.910156 577.757812 213.75 574.699219 213.03125 C 572.449219 212.398438 570.378906 212.21875 568.308594 212.21875 C 554.179688 212.21875 544.816406 221.488281 544.816406 237.058594 C 544.816406 241.289062 545.539062 245.699219 546.976562 248.851562 C 552.199219 261 564.4375 262.078125 570.917969 262.078125 C 578.386719 262.078125 581.628906 260.730469 586.398438 258.839844 L 586.9375 258.121094 L 587.566406 247.949219 L 586.9375 247.679688 M 559.667969 231.570312 C 559.9375 228.78125 560.566406 225 563.988281 222.839844 C 565.066406 222.121094 566.328125 221.851562 567.589844 221.851562 C 570.558594 221.851562 572.359375 223.378906 573.347656 225 C 574.609375 226.980469 574.699219 229.140625 574.699219 231.210938 Z M 637.609375 234.179688 C 637.699219 226.078125 637.699219 222.570312 635.359375 218.789062 C 633.558594 215.910156 629.960938 212.308594 618.441406 212.308594 C 610.699219 212.308594 605.929688 213.75 600.800781 215.28125 L 600.261719 216 L 599.808594 225.808594 L 600.53125 226.171875 C 603.679688 224.910156 609.53125 222.570312 615.558594 222.570312 C 618.890625 222.570312 620.238281 223.109375 621.410156 224.28125 C 622.308594 225.179688 622.582031 226.800781 622.582031 228.148438 C 611.78125 229.589844 606.738281 230.578125 601.339844 233.910156 C 596.300781 237.058594 594.589844 242.191406 594.589844 246.238281 C 594.589844 255.871094 601.519531 262.078125 610.339844 262.078125 C 617.089844 262.078125 620.960938 258.839844 622.851562 257.308594 L 622.851562 260.640625 L 623.390625 261.269531 C 629.871094 261 631.851562 260.910156 637.699219 261 L 638.148438 260.371094 C 637.519531 251.550781 637.519531 249.300781 637.519531 240.839844 L 637.609375 234.179688 M 622.761719 248.488281 C 620.871094 249.570312 618.441406 250.828125 615.46875 250.828125 C 612.230469 250.828125 609.53125 249.121094 609.53125 245.339844 C 609.53125 239.398438 616.640625 238.410156 622.761719 237.601562 Z M 683.328125 248.039062 C 680.898438 249.480469 678.558594 250.921875 673.96875 250.921875 C 663.796875 250.921875 661.726562 242.460938 661.726562 237.058594 C 661.726562 230.488281 664.609375 222.929688 673.339844 222.929688 C 677.296875 222.929688 679.457031 224.371094 682.160156 226.171875 L 683.058594 225.898438 C 683.417969 221.128906 683.507812 219.871094 684.226562 215.101562 L 683.777344 214.558594 C 679.816406 213.300781 676.398438 212.21875 671.179688 212.21875 C 650.027344 212.21875 645.886719 228.238281 645.886719 237.421875 C 645.886719 247.769531 651.289062 261.808594 671.539062 261.808594 C 676.308594 261.808594 679.367188 260.910156 683.148438 259.828125 L 683.6875 259.289062 L 684.046875 248.488281 Z M 735.347656 260.371094 C 734.988281 252.988281 734.898438 250.46875 734.71875 241.109375 L 734.71875 234.359375 C 734.628906 225.808594 734.539062 220.859375 731.925781 217.078125 C 729.316406 213.390625 725.539062 212.21875 721.578125 212.21875 C 715.007812 212.21875 709.878906 215.371094 706.277344 217.53125 L 706.546875 189.808594 L 706.007812 189.179688 L 690.617188 191.609375 L 690.167969 192.148438 C 690.976562 200.878906 691.15625 204.121094 691.335938 215.730469 C 691.519531 223.019531 691.609375 230.308594 691.609375 237.601562 C 691.609375 246.511719 691.425781 251.820312 691.246094 260.640625 L 691.699219 261.269531 C 698.359375 260.910156 699.707031 260.910156 706.996094 260.910156 L 707.539062 260.371094 C 706.90625 246.871094 706.816406 242.820312 706.726562 226.890625 C 708.4375 225.71875 710.597656 224.191406 713.65625 224.191406 C 718.609375 224.191406 718.96875 229.320312 719.328125 232.921875 C 719.507812 235.710938 719.597656 248.488281 719.597656 251.820312 C 719.597656 254.789062 719.507812 257.671875 719.507812 260.640625 L 719.957031 261.269531 C 726.4375 260.910156 727.878906 260.910156 734.808594 260.910156 Z M 740.210938 261 "/>
</svg>
