<?xml version="1.0" encoding="UTF-8"?>
<svg xmlns="http://www.w3.org/2000/svg" xmlns:xlink="http://www.w3.org/1999/xlink" width="975" height="1300" viewBox="0 0 975 1300">
<path fill-rule="nonzero" fill="rgb(98.823529%, 78.823529%, 9.019608%)" fill-opacity="1" d="M 50 50 L 925 50 L 925 290 L 50 290 Z M 50 50 "/>
<path fill-rule="nonzero" fill="rgb(34.901961%, 14.901961%, 14.901961%)" fill-opacity="1" d="M 225.546875 128.671875 C 215.734375 129.210938 207.90625 129.390625 205.207031 129.390625 L 203.40625 129.390625 C 203.226562 105.359375 203.316406 99.238281 204.035156 77.730469 L 203.496094 77.191406 C 195.753906 77.550781 193.683594 77.550781 187.476562 77.460938 L 186.933594 78 C 187.296875 85.199219 187.386719 87.359375 187.386719 98.070312 C 187.386719 112.289062 187.296875 126.511719 187.296875 140.730469 L 187.746094 141.269531 C 205.386719 141 208.625 141 224.824219 141 L 225.273438 140.460938 L 225.996094 129.121094 Z M 273.695312 127.679688 C 270.277344 129.480469 266.226562 131.550781 259.65625 131.550781 C 254.257812 131.550781 250.566406 129.839844 248.40625 126.601562 C 247.054688 124.710938 246.785156 122.910156 246.425781 121.109375 L 275.496094 120.570312 L 276.035156 119.941406 C 275.945312 115.53125 275.855469 111.03125 274.597656 106.53125 C 271.445312 95.910156 264.515625 93.75 261.457031 93.03125 C 259.207031 92.398438 257.136719 92.21875 255.066406 92.21875 C 240.9375 92.21875 231.574219 101.488281 231.574219 117.058594 C 231.574219 121.289062 232.296875 125.699219 233.734375 128.851562 C 238.957031 141 251.195312 142.078125 257.675781 142.078125 C 265.144531 142.078125 268.386719 140.730469 273.15625 138.839844 L 273.695312 138.121094 L 274.324219 127.949219 L 273.695312 127.679688 M 246.425781 111.570312 C 246.695312 108.78125 247.324219 105 250.746094 102.839844 C 251.824219 102.121094 253.085938 101.851562 254.347656 101.851562 C 257.316406 101.851562 259.117188 103.378906 260.105469 105 C 261.367188 106.980469 261.457031 109.140625 261.457031 111.210938 Z M 327.515625 92.851562 L 312.84375 93.570312 L 312.214844 94.109375 C 312.84375 104.28125 312.84375 118.679688 312.84375 120.121094 C 312.84375 122.730469 312.84375 124.171875 312.753906 127.769531 C 310.324219 129.390625 308.433594 130.738281 306.003906 130.738281 C 299.523438 130.738281 299.523438 123.898438 299.523438 118.589844 C 299.523438 116.339844 299.523438 114 299.613281 111.75 L 299.792969 93.570312 L 299.164062 92.851562 L 284.3125 93.570312 L 283.683594 94.109375 C 284.222656 101.671875 284.3125 104.191406 284.3125 113.28125 L 284.3125 119.578125 C 284.222656 129.390625 284.675781 133.53125 287.914062 137.308594 C 290.882812 140.640625 295.203125 142.078125 299.703125 142.078125 C 306.09375 142.078125 309.785156 139.199219 313.023438 136.679688 L 312.933594 140.730469 L 313.5625 141.269531 C 320.132812 141 322.113281 141 327.964844 141 L 328.503906 140.460938 C 328.054688 134.070312 327.875 130.648438 327.875 118.949219 C 327.875 110.488281 327.964844 102.03125 328.144531 93.570312 Z M 373.863281 128.039062 C 371.433594 129.480469 369.09375 130.921875 364.503906 130.921875 C 354.332031 130.921875 352.261719 122.460938 352.261719 117.058594 C 352.261719 110.488281 355.144531 102.929688 363.875 102.929688 C 367.832031 102.929688 369.992188 104.371094 372.695312 106.171875 L 373.59375 105.898438 C 373.953125 101.128906 374.042969 99.871094 374.761719 95.101562 L 374.3125 94.558594 C 370.351562 93.300781 366.933594 92.21875 361.714844 92.21875 C 340.5625 92.21875 336.421875 108.238281 336.421875 117.421875 C 336.421875 127.769531 341.824219 141.808594 362.074219 141.808594 C 366.84375 141.808594 369.902344 140.910156 373.683594 139.828125 L 374.222656 139.289062 L 374.582031 128.488281 Z M 421.835938 114.179688 C 421.925781 106.078125 421.925781 102.570312 419.585938 98.789062 C 417.785156 95.910156 414.1875 92.308594 402.667969 92.308594 C 394.925781 92.308594 390.15625 93.75 385.027344 95.28125 L 384.488281 96 L 384.035156 105.808594 L 384.757812 106.171875 C 387.90625 104.910156 393.757812 102.570312 399.785156 102.570312 C 403.117188 102.570312 404.464844 103.109375 405.636719 104.28125 C 406.535156 105.179688 406.808594 106.800781 406.808594 108.148438 C 396.007812 109.589844 390.964844 110.578125 385.566406 113.910156 C 380.527344 117.058594 378.816406 122.191406 378.816406 126.238281 C 378.816406 135.871094 385.746094 142.078125 394.566406 142.078125 C 401.316406 142.078125 405.1875 138.839844 407.078125 137.308594 L 407.078125 140.640625 L 407.617188 141.269531 C 414.097656 141 416.078125 140.910156 421.925781 141 L 422.375 140.371094 C 421.746094 131.550781 421.746094 129.300781 421.746094 120.839844 L 421.835938 114.179688 M 406.988281 128.488281 C 405.097656 129.570312 402.667969 130.828125 399.695312 130.828125 C 396.457031 130.828125 393.757812 129.121094 393.757812 125.339844 C 393.757812 119.398438 400.867188 118.410156 406.988281 117.601562 Z M 476.464844 140.460938 C 476.105469 132.359375 475.835938 126.960938 475.835938 115.171875 C 475.835938 91.410156 476.195312 81.601562 476.554688 69.71875 L 475.925781 69.179688 L 461.074219 71.519531 L 460.625 72.058594 C 461.164062 80.519531 461.253906 82.769531 461.164062 93.03125 C 454.414062 92.851562 445.953125 92.671875 439.113281 98.070312 C 432.816406 102.929688 430.203125 110.398438 430.203125 119.671875 C 430.203125 126.691406 432.09375 133.710938 437.40625 138.121094 C 441.363281 141.359375 446.226562 142.078125 449.195312 142.078125 C 455.585938 142.078125 458.914062 139.109375 461.074219 137.21875 L 460.894531 140.730469 L 461.34375 141.269531 C 467.554688 141 469.265625 141 476.015625 141 L 476.464844 140.460938 M 461.164062 103.828125 C 461.253906 115.800781 461.164062 118.140625 460.894531 129.03125 C 459.09375 130.109375 457.292969 131.191406 454.773438 131.191406 C 446.042969 131.191406 446.042969 120.03125 446.042969 118.230469 C 446.042969 111.300781 448.023438 103.558594 458.105469 103.558594 C 459.09375 103.558594 459.90625 103.648438 461.164062 103.828125 Z M 503.015625 140.371094 C 502.5625 133.441406 502.203125 128.128906 502.203125 115.710938 C 502.203125 108.058594 502.382812 100.320312 502.472656 92.671875 L 501.84375 91.949219 L 486.363281 94.648438 L 485.824219 95.191406 C 486.542969 102.03125 486.8125 105.179688 486.8125 117.960938 C 486.8125 127.769531 486.542969 133.261719 486.273438 140.640625 L 486.8125 141.269531 C 493.292969 141 495.09375 140.910156 502.382812 141 L 503.015625 140.371094 M 501.574219 83.308594 L 501.84375 71.070312 L 501.304688 70.53125 L 486.632812 72.328125 L 486.09375 72.960938 C 486.273438 76.199219 486.363281 78.089844 486.363281 80.25 C 486.363281 81.960938 486.363281 83.761719 486.273438 85.46875 L 486.902344 86.011719 C 493.023438 84.929688 494.734375 84.75 501.125 83.941406 Z M 553.054688 114.179688 C 553.144531 106.078125 553.144531 102.570312 550.804688 98.789062 C 549.003906 95.910156 545.40625 92.308594 533.886719 92.308594 C 526.144531 92.308594 521.375 93.75 516.246094 95.28125 L 515.707031 96 L 515.253906 105.808594 L 515.976562 106.171875 C 519.125 104.910156 524.976562 102.570312 531.003906 102.570312 C 534.335938 102.570312 535.683594 103.109375 536.855469 104.28125 C 537.753906 105.179688 538.027344 106.800781 538.027344 108.148438 C 527.226562 109.589844 522.183594 110.578125 516.785156 113.910156 C 511.746094 117.058594 510.035156 122.191406 510.035156 126.238281 C 510.035156 135.871094 516.964844 142.078125 525.785156 142.078125 C 532.535156 142.078125 536.40625 138.839844 538.296875 137.308594 L 538.296875 140.640625 L 538.835938 141.269531 C 545.316406 141 547.296875 140.910156 553.144531 141 L 553.59375 140.371094 C 552.964844 131.550781 552.964844 129.300781 552.964844 120.839844 L 553.054688 114.179688 M 538.207031 128.488281 C 536.316406 129.570312 533.886719 130.828125 530.914062 130.828125 C 527.675781 130.828125 524.976562 129.121094 524.976562 125.339844 C 524.976562 119.398438 532.085938 118.410156 538.207031 117.601562 Z M 615.875 102.300781 C 608.316406 99.148438 604.355469 97.53125 604.355469 93.480469 C 604.355469 90.691406 606.964844 87.179688 612.90625 87.179688 C 619.746094 87.179688 623.792969 89.96875 627.125 92.21875 L 627.933594 91.859375 L 628.65625 80.070312 L 628.203125 79.441406 C 624.335938 77.820312 620.285156 76.109375 611.554688 76.109375 C 594.636719 76.109375 588.785156 85.648438 588.785156 95.28125 C 588.785156 106.171875 597.246094 110.128906 602.285156 112.558594 L 605.253906 113.910156 C 611.464844 116.519531 616.234375 118.769531 616.234375 123.539062 C 616.234375 126.960938 613.265625 131.011719 605.433594 131.011719 C 597.246094 131.011719 592.65625 127.410156 590.042969 125.339844 L 589.144531 125.609375 L 588.515625 138.300781 L 589.054688 139.019531 C 590.042969 139.378906 591.035156 139.828125 592.023438 140.101562 C 594.09375 140.820312 599.40625 142.351562 606.15625 142.351562 C 608.855469 142.351562 615.695312 142.078125 621.09375 139.558594 C 628.65625 135.871094 631.894531 129.03125 631.894531 121.378906 C 631.894531 116.25 629.914062 110.761719 625.144531 107.070312 C 622.714844 105.269531 620.375 104.191406 618.214844 103.199219 Z M 665.648438 130.648438 C 664.117188 131.101562 663.035156 131.460938 661.507812 131.460938 C 656.917969 131.460938 656.558594 128.578125 656.375 127.230469 C 656.105469 124.890625 656.105469 119.941406 656.195312 116.339844 L 656.375 103.648438 L 664.476562 104.011719 L 665.015625 103.46875 L 665.917969 93.839844 L 665.375 93.300781 L 656.375 93.300781 L 656.648438 78.179688 L 656.015625 77.640625 C 649.898438 79.441406 648.277344 79.890625 641.886719 81.511719 L 641.527344 82.140625 L 641.617188 93.390625 L 636.757812 93.210938 L 636.21875 93.660156 L 635.40625 103.289062 L 635.945312 103.828125 L 641.617188 103.648438 L 641.347656 117.960938 C 641.257812 120.210938 641.167969 122.460938 641.167969 124.800781 C 641.167969 133.078125 641.347656 141.988281 655.386719 141.988281 C 658.898438 141.988281 661.6875 141.449219 664.835938 140.910156 L 665.46875 140.28125 L 666.367188 131.011719 Z M 712.355469 114.179688 C 712.445312 106.078125 712.445312 102.570312 710.105469 98.789062 C 708.304688 95.910156 704.707031 92.308594 693.1875 92.308594 C 685.445312 92.308594 680.675781 93.75 675.546875 95.28125 L 675.007812 96 L 674.554688 105.808594 L 675.277344 106.171875 C 678.425781 104.910156 684.277344 102.570312 690.304688 102.570312 C 693.636719 102.570312 694.984375 103.109375 696.15625 104.28125 C 697.054688 105.179688 697.328125 106.800781 697.328125 108.148438 C 686.527344 109.589844 681.484375 110.578125 676.085938 113.910156 C 671.046875 117.058594 669.335938 122.191406 669.335938 126.238281 C 669.335938 135.871094 676.265625 142.078125 685.085938 142.078125 C 691.835938 142.078125 695.707031 138.839844 697.597656 137.308594 L 697.597656 140.640625 L 698.136719 141.269531 C 704.617188 141 706.597656 140.910156 712.445312 141 L 712.894531 140.371094 C 712.265625 131.550781 712.265625 129.300781 712.265625 120.839844 L 712.355469 114.179688 M 697.507812 128.488281 C 695.617188 129.570312 693.1875 130.828125 690.214844 130.828125 C 686.976562 130.828125 684.277344 129.121094 684.277344 125.339844 C 684.277344 119.398438 691.386719 118.410156 697.507812 117.601562 Z M 748.085938 130.648438 C 746.554688 131.101562 745.472656 131.460938 743.945312 131.460938 C 739.355469 131.460938 738.996094 128.578125 738.8125 127.230469 C 738.542969 124.890625 738.542969 119.941406 738.632812 116.339844 L 738.8125 103.648438 L 746.914062 104.011719 L 747.453125 103.46875 L 748.355469 93.839844 L 747.8125 93.300781 L 738.8125 93.300781 L 739.085938 78.179688 L 738.453125 77.640625 C 732.335938 79.441406 730.714844 79.890625 724.324219 81.511719 L 723.964844 82.140625 L 724.054688 93.390625 L 719.195312 93.210938 L 718.65625 93.660156 L 717.84375 103.289062 L 718.382812 103.828125 L 724.054688 103.648438 L 723.785156 117.960938 C 723.695312 120.210938 723.605469 122.460938 723.605469 124.800781 C 723.605469 133.078125 723.785156 141.988281 737.824219 141.988281 C 741.335938 141.988281 744.125 141.449219 747.273438 140.910156 L 747.90625 140.28125 L 748.804688 131.011719 Z M 794.703125 127.679688 C 791.285156 129.480469 787.234375 131.550781 780.664062 131.550781 C 775.265625 131.550781 771.574219 129.839844 769.414062 126.601562 C 768.0625 124.710938 767.792969 122.910156 767.433594 121.109375 L 796.503906 120.570312 L 797.042969 119.941406 C 796.953125 115.53125 796.863281 111.03125 795.605469 106.53125 C 792.453125 95.910156 785.523438 93.75 782.464844 93.03125 C 780.214844 92.398438 778.144531 92.21875 776.074219 92.21875 C 761.945312 92.21875 752.582031 101.488281 752.582031 117.058594 C 752.582031 121.289062 753.304688 125.699219 754.742188 128.851562 C 759.964844 141 772.203125 142.078125 778.683594 142.078125 C 786.152344 142.078125 789.394531 140.730469 794.164062 138.839844 L 794.703125 138.121094 L 795.332031 127.949219 L 794.703125 127.679688 M 767.433594 111.570312 C 767.703125 108.78125 768.332031 105 771.753906 102.839844 C 772.832031 102.121094 774.09375 101.851562 775.355469 101.851562 C 778.324219 101.851562 780.125 103.378906 781.113281 105 C 782.375 106.980469 782.464844 109.140625 782.464844 111.210938 Z M 799.925781 141 "/>
<path fill-rule="nonzero" fill="rgb(34.901961%, 14.901961%, 14.901961%)" fill-opacity="1" d="M 385.519531 261 C 393.890625 261.179688 404.238281 261.359375 410.988281 256.679688 C 416.929688 252.449219 418.550781 246.511719 418.550781 241.46875 C 418.550781 235.710938 416.117188 230.398438 410.988281 227.878906 C 409.277344 226.980469 407.300781 226.621094 405.410156 226.261719 C 408.46875 225 412.070312 223.378906 414.410156 218.609375 C 415.398438 216.539062 415.847656 214.378906 415.847656 212.308594 C 415.847656 209.429688 415.128906 205.46875 412.25 202.230469 C 408.46875 198.179688 402.617188 197.101562 393.800781 197.101562 C 390.738281 197.101562 385.25 197.191406 382.1875 197.28125 L 369.589844 197.460938 L 369.050781 198 C 369.410156 206.640625 369.5 209.96875 369.5 222.390625 C 369.5 235.171875 369.410156 247.859375 369.230469 260.640625 L 369.859375 261 L 385.519531 261 M 384.890625 233.640625 C 391.730469 233.460938 395.6875 233.460938 398.300781 234.988281 C 400.910156 236.609375 401.898438 239.488281 401.898438 242.371094 C 401.898438 246.421875 399.648438 248.941406 396.320312 250.109375 C 393.617188 251.011719 388.757812 251.011719 384.890625 250.921875 L 384.890625 233.640625 M 384.890625 207.179688 C 386.777344 207.179688 389.300781 207.089844 390.828125 207.089844 C 395.6875 207.089844 400.097656 208.800781 400.097656 214.648438 C 400.097656 219.421875 396.589844 221.398438 395.507812 221.941406 C 393.257812 222.929688 388.488281 222.929688 384.890625 222.929688 Z M 466.878906 247.679688 C 463.460938 249.480469 459.410156 251.550781 452.839844 251.550781 C 447.441406 251.550781 443.75 249.839844 441.589844 246.601562 C 440.238281 244.710938 439.96875 242.910156 439.609375 241.109375 L 468.679688 240.570312 L 469.21875 239.941406 C 469.128906 235.53125 469.039062 231.03125 467.78125 226.53125 C 464.628906 215.910156 457.699219 213.75 454.640625 213.03125 C 452.390625 212.398438 450.320312 212.21875 448.25 212.21875 C 434.121094 212.21875 424.757812 221.488281 424.757812 237.058594 C 424.757812 241.289062 425.480469 245.699219 426.917969 248.851562 C 432.140625 261 444.378906 262.078125 450.859375 262.078125 C 458.328125 262.078125 461.570312 260.730469 466.339844 258.839844 L 466.878906 258.121094 L 467.507812 247.949219 L 466.878906 247.679688 M 439.609375 231.570312 C 439.878906 228.78125 440.507812 225 443.929688 222.839844 C 445.007812 222.121094 446.269531 221.851562 447.53125 221.851562 C 450.5 221.851562 452.300781 223.378906 453.289062 225 C 454.550781 226.980469 454.640625 229.140625 454.640625 231.210938 Z M 517.546875 234.179688 C 517.636719 226.078125 517.636719 222.570312 515.296875 218.789062 C 513.496094 215.910156 509.898438 212.308594 498.378906 212.308594 C 490.636719 212.308594 485.867188 213.75 480.738281 215.28125 L 480.199219 216 L 479.746094 225.808594 L 480.46875 226.171875 C 483.617188 224.910156 489.46875 222.570312 495.496094 222.570312 C 498.828125 222.570312 500.175781 223.109375 501.347656 224.28125 C 502.246094 225.179688 502.519531 226.800781 502.519531 228.148438 C 491.71875 229.589844 486.675781 230.578125 481.277344 233.910156 C 476.238281 237.058594 474.527344 242.191406 474.527344 246.238281 C 474.527344 255.871094 481.457031 262.078125 490.277344 262.078125 C 497.027344 262.078125 500.898438 258.839844 502.789062 257.308594 L 502.789062 260.640625 L 503.328125 261.269531 C 509.808594 261 511.789062 260.910156 517.636719 261 L 518.085938 260.371094 C 517.457031 251.550781 517.457031 249.300781 517.457031 240.839844 L 517.546875 234.179688 M 502.699219 248.488281 C 500.808594 249.570312 498.378906 250.828125 495.40625 250.828125 C 492.167969 250.828125 489.46875 249.121094 489.46875 245.339844 C 489.46875 239.398438 496.578125 238.410156 502.699219 237.601562 Z M 563.269531 248.039062 C 560.839844 249.480469 558.5 250.921875 553.910156 250.921875 C 543.738281 250.921875 541.667969 242.460938 541.667969 237.058594 C 541.667969 230.488281 544.550781 222.929688 553.28125 222.929688 C 557.238281 222.929688 559.398438 224.371094 562.101562 226.171875 L 563 225.898438 C 563.359375 221.128906 563.449219 219.871094 564.167969 215.101562 L 563.71875 214.558594 C 559.757812 213.300781 556.339844 212.21875 551.121094 212.21875 C 529.96875 212.21875 525.828125 228.238281 525.828125 237.421875 C 525.828125 247.769531 531.230469 261.808594 551.480469 261.808594 C 556.25 261.808594 559.308594 260.910156 563.089844 259.828125 L 563.628906 259.289062 L 563.988281 248.488281 Z M 615.289062 260.371094 C 614.929688 252.988281 614.839844 250.46875 614.660156 241.109375 L 614.660156 234.359375 C 614.570312 225.808594 614.480469 220.859375 611.867188 217.078125 C 609.257812 213.390625 605.480469 212.21875 601.519531 212.21875 C 594.949219 212.21875 589.820312 215.371094 586.21875 217.53125 L 586.488281 189.808594 L 585.949219 189.179688 L 570.558594 191.609375 L 570.109375 192.148438 C 570.917969 200.878906 571.097656 204.121094 571.277344 215.730469 C 571.460938 223.019531 571.550781 230.308594 571.550781 237.601562 C 571.550781 246.511719 571.367188 251.820312 571.1875 260.640625 L 571.640625 261.269531 C 578.300781 260.910156 579.648438 260.910156 586.9375 260.910156 L 587.480469 260.371094 C 586.847656 246.871094 586.757812 242.820312 586.667969 226.890625 C 588.378906 225.71875 590.539062 224.191406 593.597656 224.191406 C 598.550781 224.191406 598.910156 229.320312 599.269531 232.921875 C 599.449219 235.710938 599.539062 248.488281 599.539062 251.820312 C 599.539062 254.789062 599.449219 257.671875 599.449219 260.640625 L 599.898438 261.269531 C 606.378906 260.910156 607.820312 260.910156 614.75 260.910156 Z M 620.148438 261 "/>
</svg>
