<?xml version="1.0" encoding="UTF-8"?>
<svg xmlns="http://www.w3.org/2000/svg" xmlns:xlink="http://www.w3.org/1999/xlink" width="975" height="1300" viewBox="0 0 975 1300">
<path fill-rule="nonzero" fill="rgb(98.823529%, 78.823529%, 9.019608%)" fill-opacity="1" d="M 50 50 L 925 50 L 925 290 L 50 290 Z M 50 50 "/>
<path fill-rule="nonzero" fill="rgb(34.901961%, 14.901961%, 14.901961%)" fill-opacity="1" d="M 157.820312 124.890625 C 155.75 126.511719 151.160156 129.929688 143.691406 129.929688 C 133.429688 129.929688 126.230469 122.28125 126.230469 109.5 C 126.230469 101.761719 128.929688 88.171875 143.601562 88.171875 C 150.351562 88.171875 154.039062 90.78125 156.289062 92.488281 L 157.101562 92.308594 L 157.910156 79.890625 L 157.550781 79.441406 C 154.3125 78.179688 148.820312 76.109375 140.902344 76.109375 C 117.589844 76.109375 109.492188 94.109375 109.492188 109.859375 C 109.492188 127.140625 120.019531 142.351562 141.980469 142.351562 C 149.539062 142.351562 154.492188 140.371094 157.371094 139.199219 L 157.820312 138.660156 L 158.449219 125.25 Z M 208.671875 92.851562 L 194 93.570312 L 193.371094 94.109375 C 194 104.28125 194 118.679688 194 120.121094 C 194 122.730469 194 124.171875 193.910156 127.769531 C 191.480469 129.390625 189.589844 130.738281 187.160156 130.738281 C 180.679688 130.738281 180.679688 123.898438 180.679688 118.589844 C 180.679688 116.339844 180.679688 114 180.769531 111.75 L 180.949219 93.570312 L 180.320312 92.851562 L 165.46875 93.570312 L 164.839844 94.109375 C 165.378906 101.671875 165.46875 104.191406 165.46875 113.28125 L 165.46875 119.578125 C 165.378906 129.390625 165.832031 133.53125 169.070312 137.308594 C 172.039062 140.640625 176.359375 142.078125 180.859375 142.078125 C 187.25 142.078125 190.941406 139.199219 194.179688 136.679688 L 194.089844 140.730469 L 194.71875 141.269531 C 201.289062 141 203.269531 141 209.121094 141 L 209.660156 140.460938 C 209.210938 134.070312 209.03125 130.648438 209.03125 118.949219 C 209.03125 110.488281 209.121094 102.03125 209.300781 93.570312 Z M 260.058594 93.03125 L 247.550781 93.300781 L 246.828125 93.929688 C 245.300781 100.140625 244.941406 101.488281 242.78125 108.511719 L 240.441406 116.25 L 238.460938 123 L 236.75 116.609375 L 234.140625 107.070312 L 230.539062 93.390625 L 229.820312 92.851562 C 222.800781 93.390625 221.269531 93.480469 213.890625 93.660156 L 213.441406 94.289062 C 216.679688 102.839844 225.050781 125.429688 230.628906 142.710938 C 226.941406 152.070312 226.21875 153.691406 222.167969 162.601562 L 222.621094 163.320312 C 224.871094 163.230469 227.390625 163.140625 229.730469 163.140625 C 231.980469 163.140625 234.320312 163.230469 236.570312 163.230469 L 237.199219 162.691406 C 242.148438 143.25 244.578125 135.691406 256.460938 104.371094 C 257.808594 100.769531 259.160156 97.261719 260.417969 93.75 Z M 304.878906 114.179688 C 304.96875 106.078125 304.96875 102.570312 302.628906 98.789062 C 300.828125 95.910156 297.230469 92.308594 285.710938 92.308594 C 277.96875 92.308594 273.199219 93.75 268.070312 95.28125 L 267.53125 96 L 267.078125 105.808594 L 267.800781 106.171875 C 270.949219 104.910156 276.800781 102.570312 282.828125 102.570312 C 286.160156 102.570312 287.507812 103.109375 288.679688 104.28125 C 289.578125 105.179688 289.851562 106.800781 289.851562 108.148438 C 279.050781 109.589844 274.007812 110.578125 268.609375 113.910156 C 263.570312 117.058594 261.859375 122.191406 261.859375 126.238281 C 261.859375 135.871094 268.789062 142.078125 277.609375 142.078125 C 284.359375 142.078125 288.230469 138.839844 290.121094 137.308594 L 290.121094 140.640625 L 290.660156 141.269531 C 297.140625 141 299.121094 140.910156 304.96875 141 L 305.417969 140.371094 C 304.789062 131.550781 304.789062 129.300781 304.789062 120.839844 L 304.878906 114.179688 M 290.03125 128.488281 C 288.140625 129.570312 285.710938 130.828125 282.738281 130.828125 C 279.5 130.828125 276.800781 129.121094 276.800781 125.339844 C 276.800781 119.398438 283.910156 118.410156 290.03125 117.601562 Z M 385.703125 140.371094 C 385.25 132 385.160156 129.660156 385.160156 119.488281 L 385.160156 112.738281 C 385.25 106.710938 385.339844 101.128906 382.730469 97.351562 C 379.222656 92.21875 373.011719 92.21875 371.570312 92.21875 C 364.191406 92.21875 359.242188 95.550781 355.640625 98.070312 C 354.382812 96 352.132812 92.21875 344.933594 92.21875 C 338.992188 92.21875 335.121094 94.921875 330.980469 97.800781 L 330.980469 92.761719 L 330.171875 91.949219 C 323.152344 93.300781 321.171875 93.660156 314.871094 94.558594 L 314.332031 95.191406 C 315.050781 102.390625 315.589844 107.339844 315.589844 125.160156 C 315.589844 130.289062 315.5 135.511719 315.5 140.640625 L 315.953125 141.179688 C 321.710938 141 323.691406 140.910156 331.160156 140.910156 L 331.703125 140.371094 C 331.070312 126.511719 330.980469 122.371094 330.890625 106.710938 C 332.78125 105.359375 334.851562 104.191406 337.101562 104.191406 C 342.683594 104.191406 342.863281 110.578125 342.863281 118.320312 C 342.863281 131.371094 342.773438 133.351562 342.589844 140.640625 L 343.132812 141.269531 C 349.972656 140.910156 351.863281 140.910156 358.070312 140.910156 L 358.613281 140.371094 C 358.070312 131.820312 357.980469 129.300781 357.890625 118.410156 L 357.890625 115.078125 L 357.800781 105.988281 C 359.332031 105 361.3125 103.738281 364.011719 103.738281 C 369.140625 103.738281 369.953125 108.601562 369.953125 116.339844 C 369.953125 118.050781 369.863281 119.761719 369.863281 121.46875 C 369.773438 124.53125 369.683594 137.941406 369.589844 140.640625 L 370.132812 141.179688 C 376.882812 140.910156 378.863281 140.910156 385.160156 140.910156 Z M 436.101562 114.179688 C 436.191406 106.078125 436.191406 102.570312 433.851562 98.789062 C 432.050781 95.910156 428.453125 92.308594 416.933594 92.308594 C 409.191406 92.308594 404.421875 93.75 399.292969 95.28125 L 398.753906 96 L 398.300781 105.808594 L 399.023438 106.171875 C 402.171875 104.910156 408.023438 102.570312 414.050781 102.570312 C 417.382812 102.570312 418.730469 103.109375 419.902344 104.28125 C 420.800781 105.179688 421.074219 106.800781 421.074219 108.148438 C 410.273438 109.589844 405.230469 110.578125 399.832031 113.910156 C 394.792969 117.058594 393.082031 122.191406 393.082031 126.238281 C 393.082031 135.871094 400.011719 142.078125 408.832031 142.078125 C 415.582031 142.078125 419.453125 138.839844 421.34375 137.308594 L 421.34375 140.640625 L 421.882812 141.269531 C 428.363281 141 430.34375 140.910156 436.191406 141 L 436.640625 140.371094 C 436.011719 131.550781 436.011719 129.300781 436.011719 120.839844 L 436.101562 114.179688 M 421.253906 128.488281 C 419.363281 129.570312 416.933594 130.828125 413.960938 130.828125 C 410.722656 130.828125 408.023438 129.121094 408.023438 125.339844 C 408.023438 119.398438 415.132812 118.410156 421.253906 117.601562 Z M 481.820312 128.039062 C 479.390625 129.480469 477.050781 130.921875 472.460938 130.921875 C 462.289062 130.921875 460.21875 122.460938 460.21875 117.058594 C 460.21875 110.488281 463.101562 102.929688 471.832031 102.929688 C 475.789062 102.929688 477.949219 104.371094 480.652344 106.171875 L 481.550781 105.898438 C 481.910156 101.128906 482 99.871094 482.71875 95.101562 L 482.269531 94.558594 C 478.308594 93.300781 474.890625 92.21875 469.671875 92.21875 C 448.519531 92.21875 444.378906 108.238281 444.378906 117.421875 C 444.378906 127.769531 449.78125 141.808594 470.03125 141.808594 C 474.800781 141.808594 477.859375 140.910156 481.640625 139.828125 L 482.179688 139.289062 L 482.539062 128.488281 Z M 529.789062 114.179688 C 529.878906 106.078125 529.878906 102.570312 527.539062 98.789062 C 525.738281 95.910156 522.140625 92.308594 510.621094 92.308594 C 502.878906 92.308594 498.109375 93.75 492.980469 95.28125 L 492.441406 96 L 491.988281 105.808594 L 492.710938 106.171875 C 495.859375 104.910156 501.710938 102.570312 507.738281 102.570312 C 511.070312 102.570312 512.417969 103.109375 513.589844 104.28125 C 514.488281 105.179688 514.761719 106.800781 514.761719 108.148438 C 503.960938 109.589844 498.917969 110.578125 493.519531 113.910156 C 488.480469 117.058594 486.769531 122.191406 486.769531 126.238281 C 486.769531 135.871094 493.699219 142.078125 502.519531 142.078125 C 509.269531 142.078125 513.140625 138.839844 515.03125 137.308594 L 515.03125 140.640625 L 515.570312 141.269531 C 522.050781 141 524.03125 140.910156 529.878906 141 L 530.328125 140.371094 C 529.699219 131.550781 529.699219 129.300781 529.699219 120.839844 L 529.789062 114.179688 M 514.941406 128.488281 C 513.050781 129.570312 510.621094 130.828125 507.648438 130.828125 C 504.410156 130.828125 501.710938 129.121094 501.710938 125.339844 C 501.710938 119.398438 508.820312 118.410156 514.941406 117.601562 Z M 586.9375 116.25 C 592.96875 126.511719 594.320312 129.210938 600.078125 141 L 600.800781 141.449219 C 603.589844 141.269531 606.289062 141.089844 609.078125 141 C 611.871094 140.910156 614.75 140.820312 617.539062 140.820312 L 618.078125 139.738281 C 614.660156 135.328125 613.667969 133.980469 607.1875 123.628906 C 604.308594 119.039062 602.871094 116.609375 600.621094 112.648438 C 604.667969 110.851562 612.859375 107.070312 612.859375 95.640625 C 612.859375 91.679688 611.777344 83.488281 604.398438 79.621094 C 599.71875 77.191406 594.859375 77.101562 584.328125 77.28125 L 578.027344 77.371094 L 567.050781 77.371094 L 566.597656 77.910156 C 566.960938 87 567.320312 96.359375 567.320312 120.839844 C 567.320312 129.210938 567.230469 133.261719 566.960938 140.730469 L 567.5 141.269531 C 574.070312 141 575.507812 140.910156 582.890625 141 L 583.429688 140.460938 C 582.710938 130.019531 582.621094 127.140625 582.527344 116.429688 L 586.9375 116.25 M 582.710938 88.261719 C 583.96875 88.171875 585.230469 88.171875 586.488281 88.171875 C 590 88.171875 596.929688 88.171875 596.929688 96.089844 C 596.929688 98.609375 596.300781 101.941406 592.96875 104.011719 C 590.449219 105.539062 587.210938 105.71875 582.710938 105.808594 Z M 662.898438 114.179688 C 662.988281 106.078125 662.988281 102.570312 660.648438 98.789062 C 658.847656 95.910156 655.25 92.308594 643.730469 92.308594 C 635.988281 92.308594 631.21875 93.75 626.089844 95.28125 L 625.550781 96 L 625.097656 105.808594 L 625.820312 106.171875 C 628.96875 104.910156 634.820312 102.570312 640.847656 102.570312 C 644.179688 102.570312 645.527344 103.109375 646.699219 104.28125 C 647.597656 105.179688 647.871094 106.800781 647.871094 108.148438 C 637.070312 109.589844 632.027344 110.578125 626.628906 113.910156 C 621.589844 117.058594 619.878906 122.191406 619.878906 126.238281 C 619.878906 135.871094 626.808594 142.078125 635.628906 142.078125 C 642.378906 142.078125 646.25 138.839844 648.140625 137.308594 L 648.140625 140.640625 L 648.679688 141.269531 C 655.160156 141 657.140625 140.910156 662.988281 141 L 663.4375 140.371094 C 662.808594 131.550781 662.808594 129.300781 662.808594 120.839844 L 662.898438 114.179688 M 648.050781 128.488281 C 646.160156 129.570312 643.730469 130.828125 640.757812 130.828125 C 637.519531 130.828125 634.820312 129.121094 634.820312 125.339844 C 634.820312 119.398438 641.929688 118.410156 648.050781 117.601562 Z M 717.53125 140.371094 C 717.082031 132.449219 717.082031 129.929688 716.902344 121.109375 L 716.902344 114.089844 C 716.8125 105.449219 716.722656 101.308594 714.472656 97.621094 C 711.679688 92.941406 706.550781 92.21875 703.3125 92.21875 C 697.820312 92.21875 693.050781 95.101562 688.910156 97.53125 L 689.089844 92.578125 L 688.191406 91.949219 C 681.261719 93.390625 679.730469 93.660156 672.980469 94.558594 L 672.441406 95.191406 C 673.160156 103.019531 673.703125 108.691406 673.703125 123.359375 C 673.703125 129.121094 673.609375 134.878906 673.519531 140.640625 L 674.0625 141.179688 C 680.542969 140.910156 681.890625 140.910156 689.089844 140.910156 L 689.632812 140.371094 C 689.089844 126.511719 689 123 688.910156 106.890625 C 690.800781 105.628906 692.960938 104.101562 695.839844 104.101562 C 700.792969 104.101562 701.242188 109.410156 701.511719 112.648438 C 701.691406 115.621094 701.78125 127.949219 701.78125 131.371094 C 701.78125 134.429688 701.691406 137.578125 701.691406 140.640625 L 702.230469 141.179688 C 708.171875 141 709.703125 140.910156 716.902344 140.910156 Z M 762.980469 128.039062 C 760.550781 129.480469 758.210938 130.921875 753.621094 130.921875 C 743.449219 130.921875 741.378906 122.460938 741.378906 117.058594 C 741.378906 110.488281 744.261719 102.929688 752.992188 102.929688 C 756.949219 102.929688 759.109375 104.371094 761.8125 106.171875 L 762.710938 105.898438 C 763.070312 101.128906 763.160156 99.871094 763.878906 95.101562 L 763.429688 94.558594 C 759.46875 93.300781 756.050781 92.21875 750.832031 92.21875 C 729.679688 92.21875 725.539062 108.238281 725.539062 117.421875 C 725.539062 127.769531 730.941406 141.808594 751.191406 141.808594 C 755.960938 141.808594 759.019531 140.910156 762.800781 139.828125 L 763.339844 139.289062 L 763.699219 128.488281 Z M 815 140.371094 C 814.640625 132.988281 814.550781 130.46875 814.371094 121.109375 L 814.371094 114.359375 C 814.28125 105.808594 814.191406 100.859375 811.578125 97.078125 C 808.96875 93.390625 805.191406 92.21875 801.230469 92.21875 C 794.660156 92.21875 789.53125 95.371094 785.929688 97.53125 L 786.199219 69.808594 L 785.660156 69.179688 L 770.269531 71.609375 L 769.820312 72.148438 C 770.628906 80.878906 770.808594 84.121094 770.988281 95.730469 C 771.171875 103.019531 771.261719 110.308594 771.261719 117.601562 C 771.261719 126.511719 771.078125 131.820312 770.898438 140.640625 L 771.351562 141.269531 C 778.011719 140.910156 779.359375 140.910156 786.648438 140.910156 L 787.191406 140.371094 C 786.558594 126.871094 786.46875 122.820312 786.378906 106.890625 C 788.089844 105.71875 790.25 104.191406 793.308594 104.191406 C 798.261719 104.191406 798.621094 109.320312 798.980469 112.921875 C 799.160156 115.710938 799.25 128.488281 799.25 131.820312 C 799.25 134.789062 799.160156 137.671875 799.160156 140.640625 L 799.609375 141.269531 C 806.089844 140.910156 807.53125 140.910156 814.460938 140.910156 Z M 871.070312 117.058594 C 871.070312 113.550781 871.070312 98.96875 858.46875 94.019531 C 854.507812 92.488281 849.828125 92.308594 847.488281 92.308594 C 831.828125 92.308594 823.007812 100.679688 823.007812 117.238281 C 823.007812 123 823.910156 128.851562 827.238281 133.710938 C 829.578125 137.21875 833.988281 142.078125 846.859375 142.078125 C 865.9375 142.078125 871.070312 130.558594 871.070312 117.058594 M 855.5 116.96875 C 855.5 124.351562 854.507812 132.539062 847.039062 132.539062 C 844.699219 132.539062 843.078125 131.460938 842 130.46875 C 840.46875 128.941406 838.757812 125.878906 838.757812 117.148438 C 838.757812 114.539062 838.757812 108.78125 840.558594 105.628906 C 841.910156 103.199219 844.25 101.578125 847.128906 101.578125 C 849.648438 101.578125 851.71875 102.929688 852.890625 104.371094 C 855.050781 106.980469 855.5 112.109375 855.5 116.96875 Z M 874.222656 141 "/>
<path fill-rule="nonzero" fill="rgb(34.901961%, 14.901961%, 14.901961%)" fill-opacity="1" d="M 303.890625 222.300781 C 296.332031 219.148438 292.371094 217.53125 292.371094 213.480469 C 292.371094 210.691406 294.980469 207.179688 300.921875 207.179688 C 307.761719 207.179688 311.808594 209.96875 315.140625 212.21875 L 315.949219 211.859375 L 316.671875 200.070312 L 316.21875 199.441406 C 312.351562 197.820312 308.300781 196.109375 299.570312 196.109375 C 282.652344 196.109375 276.800781 205.648438 276.800781 215.28125 C 276.800781 226.171875 285.261719 230.128906 290.300781 232.558594 L 293.269531 233.910156 C 299.480469 236.519531 304.25 238.769531 304.25 243.539062 C 304.25 246.960938 301.28125 251.011719 293.449219 251.011719 C 285.261719 251.011719 280.671875 247.410156 278.058594 245.339844 L 277.160156 245.609375 L 276.53125 258.300781 L 277.070312 259.019531 C 278.058594 259.378906 279.050781 259.828125 280.039062 260.101562 C 282.109375 260.820312 287.421875 262.351562 294.171875 262.351562 C 296.871094 262.351562 303.710938 262.078125 309.109375 259.558594 C 316.671875 255.871094 319.910156 249.03125 319.910156 241.378906 C 319.910156 236.25 317.929688 230.761719 313.160156 227.070312 C 310.730469 225.269531 308.390625 224.191406 306.230469 223.199219 Z M 353.660156 250.648438 C 352.128906 251.101562 351.046875 251.460938 349.519531 251.460938 C 344.929688 251.460938 344.570312 248.578125 344.386719 247.230469 C 344.117188 244.890625 344.117188 239.941406 344.207031 236.339844 L 344.386719 223.648438 L 352.488281 224.011719 L 353.027344 223.46875 L 353.929688 213.839844 L 353.386719 213.300781 L 344.386719 213.300781 L 344.660156 198.179688 L 344.027344 197.640625 C 337.910156 199.441406 336.289062 199.890625 329.898438 201.511719 L 329.539062 202.140625 L 329.628906 213.390625 L 324.769531 213.210938 L 324.230469 213.660156 L 323.417969 223.289062 L 323.957031 223.828125 L 329.628906 223.648438 L 329.359375 237.960938 C 329.269531 240.210938 329.179688 242.460938 329.179688 244.800781 C 329.179688 253.078125 329.359375 261.988281 343.398438 261.988281 C 346.910156 261.988281 349.699219 261.449219 352.847656 260.910156 L 353.480469 260.28125 L 354.378906 251.011719 Z M 400.371094 234.179688 C 400.460938 226.078125 400.460938 222.570312 398.121094 218.789062 C 396.320312 215.910156 392.722656 212.308594 381.203125 212.308594 C 373.460938 212.308594 368.691406 213.75 363.5625 215.28125 L 363.023438 216 L 362.570312 225.808594 L 363.292969 226.171875 C 366.441406 224.910156 372.292969 222.570312 378.320312 222.570312 C 381.652344 222.570312 383 223.109375 384.171875 224.28125 C 385.070312 225.179688 385.34375 226.800781 385.34375 228.148438 C 374.542969 229.589844 369.5 230.578125 364.101562 233.910156 C 359.0625 237.058594 357.351562 242.191406 357.351562 246.238281 C 357.351562 255.871094 364.28125 262.078125 373.101562 262.078125 C 379.851562 262.078125 383.722656 258.839844 385.613281 257.308594 L 385.613281 260.640625 L 386.152344 261.269531 C 392.632812 261 394.613281 260.910156 400.460938 261 L 400.910156 260.371094 C 400.28125 251.550781 400.28125 249.300781 400.28125 240.839844 L 400.371094 234.179688 M 385.523438 248.488281 C 383.632812 249.570312 381.203125 250.828125 378.230469 250.828125 C 374.992188 250.828125 372.292969 249.121094 372.292969 245.339844 C 372.292969 239.398438 379.402344 238.410156 385.523438 237.601562 Z M 436.101562 250.648438 C 434.570312 251.101562 433.488281 251.460938 431.960938 251.460938 C 427.371094 251.460938 427.011719 248.578125 426.828125 247.230469 C 426.558594 244.890625 426.558594 239.941406 426.648438 236.339844 L 426.828125 223.648438 L 434.929688 224.011719 L 435.46875 223.46875 L 436.371094 213.839844 L 435.828125 213.300781 L 426.828125 213.300781 L 427.101562 198.179688 L 426.46875 197.640625 C 420.351562 199.441406 418.730469 199.890625 412.339844 201.511719 L 411.980469 202.140625 L 412.070312 213.390625 L 407.210938 213.210938 L 406.671875 213.660156 L 405.859375 223.289062 L 406.398438 223.828125 L 412.070312 223.648438 L 411.800781 237.960938 C 411.710938 240.210938 411.621094 242.460938 411.621094 244.800781 C 411.621094 253.078125 411.800781 261.988281 425.839844 261.988281 C 429.351562 261.988281 432.140625 261.449219 435.289062 260.910156 L 435.921875 260.28125 L 436.820312 251.011719 Z M 482.71875 247.679688 C 479.300781 249.480469 475.25 251.550781 468.679688 251.550781 C 463.28125 251.550781 459.589844 249.839844 457.429688 246.601562 C 456.078125 244.710938 455.808594 242.910156 455.449219 241.109375 L 484.519531 240.570312 L 485.058594 239.941406 C 484.96875 235.53125 484.878906 231.03125 483.621094 226.53125 C 480.46875 215.910156 473.539062 213.75 470.480469 213.03125 C 468.230469 212.398438 466.160156 212.21875 464.089844 212.21875 C 449.960938 212.21875 440.597656 221.488281 440.597656 237.058594 C 440.597656 241.289062 441.320312 245.699219 442.757812 248.851562 C 447.980469 261 460.21875 262.078125 466.699219 262.078125 C 474.167969 262.078125 477.410156 260.730469 482.179688 258.839844 L 482.71875 258.121094 L 483.347656 247.949219 L 482.71875 247.679688 M 455.449219 231.570312 C 455.71875 228.78125 456.347656 225 459.769531 222.839844 C 460.847656 222.121094 462.109375 221.851562 463.371094 221.851562 C 466.339844 221.851562 468.140625 223.378906 469.128906 225 C 470.390625 226.980469 470.480469 229.140625 470.480469 231.210938 Z M 531.679688 197.28125 L 520.25 197.460938 L 519.707031 198 C 520.070312 209.699219 520.339844 217.53125 520.339844 227.878906 C 520.339844 238.859375 520.070312 249.75 519.796875 260.730469 L 520.339844 261.269531 C 527 261 528.4375 260.910156 535.640625 261 L 536.089844 260.460938 C 535.730469 250.648438 535.730469 248.398438 535.730469 239.21875 C 545.808594 239.308594 556.609375 239.308594 563.089844 231.390625 C 565.609375 228.328125 567.769531 223.199219 567.769531 216.898438 C 567.769531 213.03125 566.867188 204.480469 559.398438 200.25 C 554 197.101562 546.347656 197.101562 539.597656 197.101562 L 531.679688 197.28125 M 535.730469 208.171875 C 537.707031 208.078125 539.597656 208.078125 541.578125 208.078125 C 549.5 208.261719 551.660156 212.308594 551.660156 217.53125 C 551.660156 218.789062 551.660156 224.011719 546.890625 226.621094 C 544.457031 227.96875 541.128906 228.148438 535.730469 228.148438 Z M 614.03125 234.179688 C 614.121094 226.078125 614.121094 222.570312 611.78125 218.789062 C 609.980469 215.910156 606.382812 212.308594 594.863281 212.308594 C 587.121094 212.308594 582.351562 213.75 577.222656 215.28125 L 576.683594 216 L 576.230469 225.808594 L 576.953125 226.171875 C 580.101562 224.910156 585.953125 222.570312 591.980469 222.570312 C 595.3125 222.570312 596.660156 223.109375 597.832031 224.28125 C 598.730469 225.179688 599.003906 226.800781 599.003906 228.148438 C 588.203125 229.589844 583.160156 230.578125 577.761719 233.910156 C 572.722656 237.058594 571.011719 242.191406 571.011719 246.238281 C 571.011719 255.871094 577.941406 262.078125 586.761719 262.078125 C 593.511719 262.078125 597.382812 258.839844 599.273438 257.308594 L 599.273438 260.640625 L 599.8125 261.269531 C 606.292969 261 608.273438 260.910156 614.121094 261 L 614.570312 260.371094 C 613.941406 251.550781 613.941406 249.300781 613.941406 240.839844 L 614.03125 234.179688 M 599.183594 248.488281 C 597.292969 249.570312 594.863281 250.828125 591.890625 250.828125 C 588.652344 250.828125 585.953125 249.121094 585.953125 245.339844 C 585.953125 239.398438 593.0625 238.410156 599.183594 237.601562 Z M 650.570312 227.609375 L 653.089844 212.941406 L 652.550781 212.308594 C 651.921875 212.308594 651.289062 212.21875 650.660156 212.21875 C 646.96875 212.21875 642.832031 214.289062 639.949219 220.949219 L 640.21875 212.671875 L 639.5 211.949219 C 632.839844 213.390625 631.128906 213.660156 624.558594 214.648438 L 624.019531 215.191406 C 624.558594 221.941406 624.832031 225.988281 624.832031 238.5 C 624.832031 245.878906 624.738281 253.261719 624.558594 260.730469 L 625.101562 261.269531 C 631.761719 261 633.199219 260.910156 640.398438 261 L 640.851562 260.371094 C 640.488281 253.078125 639.949219 242.910156 639.949219 236.699219 C 639.949219 232.648438 639.949219 226.710938 646.070312 226.710938 C 647.601562 226.710938 648.5 227.25 649.761719 227.96875 Z M 704.570312 259.828125 C 696.109375 245.519531 695.210938 243.898438 688.371094 231.570312 C 694.582031 223.109375 695.210938 222.210938 701.601562 214.019531 L 701.148438 213.121094 L 686.480469 213.300781 L 685.582031 213.929688 C 678.558594 226.078125 677.660156 227.519531 673.519531 233.730469 L 673.519531 223.738281 C 673.609375 206.910156 673.699219 203.308594 674.148438 189.71875 L 673.429688 189.179688 L 657.769531 191.519531 L 657.230469 192.148438 C 657.859375 200.878906 658.128906 205.109375 658.308594 216.898438 C 658.488281 231.480469 658.488281 246.058594 658.398438 260.640625 L 659.03125 261.269531 C 665.058594 261 666.769531 261 673.609375 261 L 674.148438 260.371094 L 673.609375 245.160156 L 673.519531 234.808594 C 681.351562 249.210938 682.339844 251.191406 686.929688 260.730469 L 687.738281 261.269531 L 703.941406 260.640625 Z M 703.492188 261 "/>
</svg>
