<?xml version="1.0" encoding="UTF-8"?>
<svg xmlns="http://www.w3.org/2000/svg" xmlns:xlink="http://www.w3.org/1999/xlink" width="975" height="1300" viewBox="0 0 975 1300">
<path fill-rule="nonzero" fill="rgb(34.901961%, 14.901961%, 14.901961%)" fill-opacity="1" d="M 177.0625 531.375 C 167.0625 531.75 165.4375 531.75 154.9375 531.75 L 154.3125 532.5 C 155.1875 546.625 155.1875 550.25 155.3125 565 C 149.8125 565.125 144.3125 565.25 138.6875 565.25 C 134.3125 565.25 129.8125 565.125 125.4375 565.125 L 125.6875 532.125 L 125.0625 531.375 C 115.4375 531.75 113.5625 531.75 102.6875 531.75 L 101.9375 532.5 C 102.5625 545.375 103.3125 560.75 103.3125 591.75 C 103.3125 603 103.0625 609.125 102.8125 619.625 L 103.4375 620.375 C 112.5625 620 114.8125 619.875 125.8125 620 L 126.4375 619.25 C 125.6875 603.75 125.5625 599.25 125.4375 581.125 C 130.9375 580.875 135.5625 580.75 140.4375 580.75 C 145.4375 580.75 150.4375 580.875 155.4375 581 C 155.6875 597.875 155.6875 602 155.0625 619.625 L 155.6875 620.375 C 165.0625 620 167.5625 619.875 178.1875 620 L 178.8125 619.25 C 177.8125 598.25 177.4375 577.375 177.4375 556.375 C 177.4375 547.625 177.5625 541.75 177.6875 532.125 Z M 256.9375 586.75 C 256.9375 581.875 256.9375 561.625 239.4375 554.75 C 233.9375 552.625 227.4375 552.375 224.1875 552.375 C 202.4375 552.375 190.1875 564 190.1875 587 C 190.1875 595 191.4375 603.125 196.0625 609.875 C 199.3125 614.75 205.4375 621.5 223.3125 621.5 C 249.8125 621.5 256.9375 605.5 256.9375 586.75 M 235.3125 586.625 C 235.3125 596.875 233.9375 608.25 223.5625 608.25 C 220.3125 608.25 218.0625 606.75 216.5625 605.375 C 214.4375 603.25 212.0625 599 212.0625 586.875 C 212.0625 583.25 212.0625 575.25 214.5625 570.875 C 216.4375 567.5 219.6875 565.25 223.6875 565.25 C 227.1875 565.25 230.0625 567.125 231.6875 569.125 C 234.6875 572.75 235.3125 579.875 235.3125 586.625 Z M 290.8125 619.125 C 290.1875 604.75 289.5625 591.625 289.5625 552.125 C 289.5625 540.25 289.6875 534.625 290.1875 521.125 L 289.3125 520.25 L 267.9375 523.625 L 267.4375 524.375 C 268.6875 539.625 268.8125 543.75 269.0625 564 C 269.1875 571.375 269.1875 578.75 269.1875 586.125 C 269.1875 599.625 268.9375 607.125 268.4375 619.5 L 269.1875 620.375 C 277.5625 620 280.9375 619.875 290.0625 620 Z M 327.3125 619.125 C 326.6875 604.75 326.0625 591.625 326.0625 552.125 C 326.0625 540.25 326.1875 534.625 326.6875 521.125 L 325.8125 520.25 L 304.4375 523.625 L 303.9375 524.375 C 305.1875 539.625 305.3125 543.75 305.5625 564 C 305.6875 571.375 305.6875 578.75 305.6875 586.125 C 305.6875 599.625 305.4375 607.125 304.9375 619.5 L 305.6875 620.375 C 314.0625 620 317.4375 619.875 326.5625 620 Z M 364.4375 619.125 C 363.8125 609.5 363.3125 602.125 363.3125 584.875 C 363.3125 574.25 363.5625 563.5 363.6875 552.875 L 362.8125 551.875 L 341.3125 555.625 L 340.5625 556.375 C 341.5625 565.875 341.9375 570.25 341.9375 588 C 341.9375 601.625 341.5625 609.25 341.1875 619.5 L 341.9375 620.375 C 350.9375 620 353.4375 619.875 363.5625 620 L 364.4375 619.125 M 362.4375 539.875 L 362.8125 522.875 L 362.0625 522.125 L 341.6875 524.625 L 340.9375 525.5 C 341.1875 530 341.3125 532.625 341.3125 535.625 C 341.3125 538 341.3125 540.5 341.1875 542.875 L 342.0625 543.625 C 350.5625 542.125 352.9375 541.875 361.8125 540.75 Z M 404.5625 576.875 C 400.3125 575.375 396.9375 574 396.9375 570.5 C 396.9375 569 397.9375 564.875 405.6875 564.875 C 413.3125 564.875 418.1875 568.125 421.3125 570.125 L 422.4375 569.75 L 423.6875 556.125 L 423.0625 555.375 C 417.1875 553.75 412.0625 552.25 403.9375 552.25 C 397.8125 552.25 385.5625 552.75 379.0625 562.125 C 377.4375 564.375 375.6875 568.125 375.6875 573.125 C 375.6875 586.5 386.0625 590.5 391.9375 592.75 L 396.6875 594.5 C 400.0625 595.625 405.5625 597.5 405.5625 602 C 405.5625 605.125 402.6875 608.5 395.6875 608.5 C 392.1875 608.5 387.0625 607.375 382.4375 605 C 380.3125 603.875 379.3125 603 377.4375 601.5 L 376.3125 602 C 376.0625 608.5 375.9375 609.875 375.4375 616.125 L 376.0625 617.25 C 382.1875 619.5 387.4375 621.5 396.5625 621.5 C 406.0625 621.5 424.8125 619.75 427.0625 601.875 C 427.1875 600.875 427.1875 600 427.1875 599.125 C 427.1875 585.375 417.5625 581.75 410.6875 579.125 Z M 473.1875 605.625 C 471.0625 606.25 469.5625 606.75 467.4375 606.75 C 461.0625 606.75 460.5625 602.75 460.3125 600.875 C 459.9375 597.625 459.9375 590.75 460.0625 585.75 L 460.3125 568.125 L 471.5625 568.625 L 472.3125 567.875 L 473.5625 554.5 L 472.8125 553.75 L 460.3125 553.75 L 460.6875 532.75 L 459.8125 532 C 451.3125 534.5 449.0625 535.125 440.1875 537.375 L 439.6875 538.25 L 439.8125 553.875 L 433.0625 553.625 L 432.3125 554.25 L 431.1875 567.625 L 431.9375 568.375 L 439.8125 568.125 L 439.4375 588 C 439.3125 591.125 439.1875 594.25 439.1875 597.5 C 439.1875 609 439.4375 621.375 458.9375 621.375 C 463.8125 621.375 467.6875 620.625 472.0625 619.875 L 472.9375 619 L 474.1875 606.125 Z M 537.9375 601.5 C 533.1875 604 527.5625 606.875 518.4375 606.875 C 510.9375 606.875 505.8125 604.5 502.8125 600 C 500.9375 597.375 500.5625 594.875 500.0625 592.375 L 540.4375 591.625 L 541.1875 590.75 C 541.0625 584.625 540.9375 578.375 539.1875 572.125 C 534.8125 557.375 525.1875 554.375 520.9375 553.375 C 517.8125 552.5 514.9375 552.25 512.0625 552.25 C 492.4375 552.25 479.4375 565.125 479.4375 586.75 C 479.4375 592.625 480.4375 598.75 482.4375 603.125 C 489.6875 620 506.6875 621.5 515.6875 621.5 C 526.0625 621.5 530.5625 619.625 537.1875 617 L 537.9375 616 L 538.8125 601.875 L 537.9375 601.5 M 500.0625 579.125 C 500.4375 575.25 501.3125 570 506.0625 567 C 507.5625 566 509.3125 565.625 511.0625 565.625 C 515.1875 565.625 517.6875 567.75 519.0625 570 C 520.8125 572.75 520.9375 575.75 520.9375 578.625 Z M 588.8125 573.625 L 592.3125 553.25 L 591.5625 552.375 C 590.6875 552.375 589.8125 552.25 588.9375 552.25 C 583.8125 552.25 578.0625 555.125 574.0625 564.375 L 574.4375 552.875 L 573.4375 551.875 C 564.1875 553.875 561.8125 554.25 552.6875 555.625 L 551.9375 556.375 C 552.6875 565.75 553.0625 571.375 553.0625 588.75 C 553.0625 599 552.9375 609.25 552.6875 619.625 L 553.4375 620.375 C 562.6875 620 564.6875 619.875 574.6875 620 L 575.3125 619.125 C 574.8125 609 574.0625 594.875 574.0625 586.25 C 574.0625 580.625 574.0625 572.375 582.5625 572.375 C 584.6875 572.375 585.9375 573.125 587.6875 574.125 Z M 710.9375 531.375 C 700.9375 531.75 699.3125 531.75 688.8125 531.75 L 688.1875 532.5 C 689.0625 546.625 689.0625 550.25 689.1875 565 C 683.6875 565.125 678.1875 565.25 672.5625 565.25 C 668.1875 565.25 663.6875 565.125 659.3125 565.125 L 659.5625 532.125 L 658.9375 531.375 C 649.3125 531.75 647.4375 531.75 636.5625 531.75 L 635.8125 532.5 C 636.4375 545.375 637.1875 560.75 637.1875 591.75 C 637.1875 603 636.9375 609.125 636.6875 619.625 L 637.3125 620.375 C 646.4375 620 648.6875 619.875 659.6875 620 L 660.3125 619.25 C 659.5625 603.75 659.4375 599.25 659.3125 581.125 C 664.8125 580.875 669.4375 580.75 674.3125 580.75 C 679.3125 580.75 684.3125 580.875 689.3125 581 C 689.5625 597.875 689.5625 602 688.9375 619.625 L 689.5625 620.375 C 698.9375 620 701.4375 619.875 712.0625 620 L 712.6875 619.25 C 711.6875 598.25 711.3125 577.375 711.3125 556.375 C 711.3125 547.625 711.4375 541.75 711.5625 532.125 Z M 749.8125 619.125 C 749.1875 609.5 748.6875 602.125 748.6875 584.875 C 748.6875 574.25 748.9375 563.5 749.0625 552.875 L 748.1875 551.875 L 726.6875 555.625 L 725.9375 556.375 C 726.9375 565.875 727.3125 570.25 727.3125 588 C 727.3125 601.625 726.9375 609.25 726.5625 619.5 L 727.3125 620.375 C 736.3125 620 738.8125 619.875 748.9375 620 L 749.8125 619.125 M 747.8125 539.875 L 748.1875 522.875 L 747.4375 522.125 L 727.0625 524.625 L 726.3125 525.5 C 726.5625 530 726.6875 532.625 726.6875 535.625 C 726.6875 538 726.6875 540.5 726.5625 542.875 L 727.4375 543.625 C 735.9375 542.125 738.3125 541.875 747.1875 540.75 Z M 785.6875 619.125 C 785.0625 604.75 784.4375 591.625 784.4375 552.125 C 784.4375 540.25 784.5625 534.625 785.0625 521.125 L 784.1875 520.25 L 762.8125 523.625 L 762.3125 524.375 C 763.5625 539.625 763.6875 543.75 763.9375 564 C 764.0625 571.375 764.0625 578.75 764.0625 586.125 C 764.0625 599.625 763.8125 607.125 763.3125 619.5 L 764.0625 620.375 C 772.4375 620 775.8125 619.875 784.9375 620 Z M 822.1875 619.125 C 821.5625 604.75 820.9375 591.625 820.9375 552.125 C 820.9375 540.25 821.0625 534.625 821.5625 521.125 L 820.6875 520.25 L 799.3125 523.625 L 798.8125 524.375 C 800.0625 539.625 800.1875 543.75 800.4375 564 C 800.5625 571.375 800.5625 578.75 800.5625 586.125 C 800.5625 599.625 800.3125 607.125 799.8125 619.5 L 800.5625 620.375 C 808.9375 620 812.3125 619.875 821.4375 620 Z M 862.9375 576.875 C 858.6875 575.375 855.3125 574 855.3125 570.5 C 855.3125 569 856.3125 564.875 864.0625 564.875 C 871.6875 564.875 876.5625 568.125 879.6875 570.125 L 880.8125 569.75 L 882.0625 556.125 L 881.4375 555.375 C 875.5625 553.75 870.4375 552.25 862.3125 552.25 C 856.1875 552.25 843.9375 552.75 837.4375 562.125 C 835.8125 564.375 834.0625 568.125 834.0625 573.125 C 834.0625 586.5 844.4375 590.5 850.3125 592.75 L 855.0625 594.5 C 858.4375 595.625 863.9375 597.5 863.9375 602 C 863.9375 605.125 861.0625 608.5 854.0625 608.5 C 850.5625 608.5 845.4375 607.375 840.8125 605 C 838.6875 603.875 837.6875 603 835.8125 601.5 L 834.6875 602 C 834.4375 608.5 834.3125 609.875 833.8125 616.125 L 834.4375 617.25 C 840.5625 619.5 845.8125 621.5 854.9375 621.5 C 864.4375 621.5 883.1875 619.75 885.4375 601.875 C 885.5625 600.875 885.5625 600 885.5625 599.125 C 885.5625 585.375 875.9375 581.75 869.0625 579.125 Z M 889.0625 620 "/>
<path fill-rule="nonzero" fill="rgb(34.901961%, 14.901961%, 14.901961%)" fill-opacity="1" d="M 380.875 716.25 C 370.375 711.875 364.875 709.625 364.875 704 C 364.875 700.125 368.5 695.25 376.75 695.25 C 386.25 695.25 391.875 699.125 396.5 702.25 L 397.625 701.75 L 398.625 685.375 L 398 684.5 C 392.625 682.25 387 679.875 374.875 679.875 C 351.375 679.875 343.25 693.125 343.25 706.5 C 343.25 721.625 355 727.125 362 730.5 L 366.125 732.375 C 374.75 736 381.375 739.125 381.375 745.75 C 381.375 750.5 377.25 756.125 366.375 756.125 C 355 756.125 348.625 751.125 345 748.25 L 343.75 748.625 L 342.875 766.25 L 343.625 767.25 C 345 767.75 346.375 768.375 347.75 768.75 C 350.625 769.75 358 771.875 367.375 771.875 C 371.125 771.875 380.625 771.5 388.125 768 C 398.625 762.875 403.125 753.375 403.125 742.75 C 403.125 735.625 400.375 728 393.75 722.875 C 390.375 720.375 387.125 718.875 384.125 717.5 Z M 457.875 769.125 C 463.25 746.5 465.125 740 482.125 682 L 481.5 681.375 C 472.125 681.75 469.625 681.75 462.125 681.75 L 461.375 682.5 C 459 694.75 458.375 698 454.875 711.875 L 450.875 728.25 L 445.5 751.375 L 438.875 721.875 L 436.25 710.625 C 433.125 697.75 432.25 693.5 429.625 681.375 L 428.875 680.75 C 418.5 681.5 416.25 681.625 406.5 681.625 L 405.875 682.375 C 414.25 711.25 421.75 737.75 426 754.25 C 427.25 759.375 428.5 764.5 429.75 769.625 L 430.5 770.375 C 441.375 770 444.125 769.875 457.125 770 Z M 516.125 735.625 C 524.5 749.875 526.375 753.625 534.375 770 L 535.375 770.625 C 539.25 770.375 543 770.125 546.875 770 C 550.75 769.875 554.75 769.75 558.625 769.75 L 559.375 768.25 C 554.625 762.125 553.25 760.25 544.25 745.875 C 540.25 739.5 538.25 736.125 535.125 730.625 C 540.75 728.125 552.125 722.875 552.125 707 C 552.125 701.5 550.625 690.125 540.375 684.75 C 533.875 681.375 527.125 681.25 512.5 681.5 L 503.75 681.625 L 488.5 681.625 L 487.875 682.375 C 488.375 695 488.875 708 488.875 742 C 488.875 753.625 488.75 759.25 488.375 769.625 L 489.125 770.375 C 498.25 770 500.25 769.875 510.5 770 L 511.25 769.25 C 510.25 754.75 510.125 750.75 510 735.875 L 516.125 735.625 M 510.25 696.75 C 512 696.625 513.75 696.625 515.5 696.625 C 520.375 696.625 530 696.625 530 707.625 C 530 711.125 529.125 715.75 524.5 718.625 C 521 720.75 516.5 721 510.25 721.125 Z M 616.5 681.375 C 604.5 681.75 602 681.75 588.625 681.75 L 587.75 682.5 C 581.125 703.75 577.125 716.375 558.75 769.125 L 559.25 770 L 578.75 770 L 579.625 769.25 L 585.75 746.5 L 612.75 746.5 L 618.125 769.625 L 619 770.375 C 628.125 770 630.625 769.875 640.75 770 L 641.375 769 C 626.25 715.5 624.5 709.625 617.375 682.125 L 616.5 681.375 M 590.125 731.375 L 596.375 710.25 L 600.75 695.625 L 604.5 711.875 L 609.125 731.375 Z M 641.875 770 "/>
</svg>
