<?xml version="1.0" encoding="UTF-8"?>
<svg xmlns="http://www.w3.org/2000/svg" xmlns:xlink="http://www.w3.org/1999/xlink" width="975" height="1300" viewBox="0 0 975 1300">
<path fill-rule="nonzero" fill="rgb(34.901961%, 14.901961%, 14.901961%)" fill-opacity="1" d="M 144.375 543.25 C 142.25 540.5 139.75 538.125 136.875 536.25 C 130.5 532 121.75 529.875 113 529.875 C 105.25 529.875 97.375 531.25 90.625 535.125 C 75.375 543.875 72.625 558.375 71.625 563.625 C 70.875 567.875 70.5 572.125 70.5 576.375 C 70.5 584.875 71.5 600.875 83.25 611.75 C 92.75 620.625 105.75 621.875 112.125 621.875 C 121.75 621.875 131.5 619.625 138.875 613.5 C 151.25 603.25 153.75 586.25 153.75 575.625 C 153.75 556 147.5 547.125 144.375 543.25 M 124.625 551.25 C 127.125 554.125 128.25 557.75 129 561.375 C 130 566.125 130.25 570.625 130.375 573.75 C 130.875 592.5 126.875 606 112.375 606 C 95 606 93.875 585.75 93.875 574.5 C 93.875 559.5 97.5 551.75 103.375 548 C 106.75 546 110.125 545.5 112.5 545.5 C 117.25 545.5 121.625 547.625 124.625 551.25 Z M 215.375 602 C 212 604 208.75 606 202.375 606 C 188.25 606 185.375 594.25 185.375 586.75 C 185.375 577.625 189.375 567.125 201.5 567.125 C 207 567.125 210 569.125 213.75 571.625 L 215 571.25 C 215.5 564.625 215.625 562.875 216.625 556.25 L 216 555.5 C 210.5 553.75 205.75 552.25 198.5 552.25 C 169.125 552.25 163.375 574.5 163.375 587.25 C 163.375 601.625 170.875 621.125 199 621.125 C 205.625 621.125 209.875 619.875 215.125 618.375 L 215.875 617.625 L 216.375 602.625 Z M 281.875 601.5 C 277.125 604 271.5 606.875 262.375 606.875 C 254.875 606.875 249.75 604.5 246.75 600 C 244.875 597.375 244.5 594.875 244 592.375 L 284.375 591.625 L 285.125 590.75 C 285 584.625 284.875 578.375 283.125 572.125 C 278.75 557.375 269.125 554.375 264.875 553.375 C 261.75 552.5 258.875 552.25 256 552.25 C 236.375 552.25 223.375 565.125 223.375 586.75 C 223.375 592.625 224.375 598.75 226.375 603.125 C 233.625 620 250.625 621.5 259.625 621.5 C 270 621.5 274.5 619.625 281.125 617 L 281.875 616 L 282.75 601.875 L 281.875 601.5 M 244 579.125 C 244.375 575.25 245.25 570 250 567 C 251.5 566 253.25 565.625 255 565.625 C 259.125 565.625 261.625 567.75 263 570 C 264.75 572.75 264.875 575.75 264.875 578.625 Z M 352.25 582.75 C 352.375 571.5 352.375 566.625 349.125 561.375 C 346.625 557.375 341.625 552.375 325.625 552.375 C 314.875 552.375 308.25 554.375 301.125 556.5 L 300.375 557.5 L 299.75 571.125 L 300.75 571.625 C 305.125 569.875 313.25 566.625 321.625 566.625 C 326.25 566.625 328.125 567.375 329.75 569 C 331 570.25 331.375 572.5 331.375 574.375 C 316.375 576.375 309.375 577.75 301.875 582.375 C 294.875 586.75 292.5 593.875 292.5 599.5 C 292.5 612.875 302.125 621.5 314.375 621.5 C 323.75 621.5 329.125 617 331.75 614.875 L 331.75 619.5 L 332.5 620.375 C 341.5 620 344.25 619.875 352.375 620 L 353 619.125 C 352.125 606.875 352.125 603.75 352.125 592 L 352.25 582.75 M 331.625 602.625 C 329 604.125 325.625 605.875 321.5 605.875 C 317 605.875 313.25 603.5 313.25 598.25 C 313.25 590 323.125 588.625 331.625 587.5 Z M 428.125 619.125 C 427.5 608.125 427.5 604.625 427.25 592.375 L 427.25 582.625 C 427.125 570.625 427 564.875 423.875 559.75 C 420 553.25 412.875 552.25 408.375 552.25 C 400.75 552.25 394.125 556.25 388.375 559.625 L 388.625 552.75 L 387.375 551.875 C 377.75 553.875 375.625 554.25 366.25 555.5 L 365.5 556.375 C 366.5 567.25 367.25 575.125 367.25 595.5 C 367.25 603.5 367.125 611.5 367 619.5 L 367.75 620.25 C 376.75 619.875 378.625 619.875 388.625 619.875 L 389.375 619.125 C 388.625 599.875 388.5 595 388.375 572.625 C 391 570.875 394 568.75 398 568.75 C 404.875 568.75 405.5 576.125 405.875 580.625 C 406.125 584.75 406.25 601.875 406.25 606.625 C 406.25 610.875 406.125 615.25 406.125 619.5 L 406.875 620.25 C 415.125 620 417.25 619.875 427.25 619.875 Z M 506 586.75 C 506 581.875 506 561.625 488.5 554.75 C 483 552.625 476.5 552.375 473.25 552.375 C 451.5 552.375 439.25 564 439.25 587 C 439.25 595 440.5 603.125 445.125 609.875 C 448.375 614.75 454.5 621.5 472.375 621.5 C 498.875 621.5 506 605.5 506 586.75 M 484.375 586.625 C 484.375 596.875 483 608.25 472.625 608.25 C 469.375 608.25 467.125 606.75 465.625 605.375 C 463.5 603.25 461.125 599 461.125 586.875 C 461.125 583.25 461.125 575.25 463.625 570.875 C 465.5 567.5 468.75 565.25 472.75 565.25 C 476.25 565.25 479.125 567.125 480.75 569.125 C 483.75 572.75 484.375 579.875 484.375 586.625 Z M 570.375 620 C 573.625 620.125 577 620.125 580.25 620.125 C 594.25 620.125 616.875 619.625 626 597.375 C 629.375 589.125 630.125 579.125 630.125 573.5 C 630.125 561.75 627.5 552.75 624.375 547.125 C 615.875 531.625 599.75 531.125 585.5 531.125 C 579.75 531.125 574 531.375 568.25 531.625 L 555 531.75 L 554.25 532.5 C 554.75 544.5 555.25 555 555.25 589.625 C 555.25 601.875 555.125 609.25 554.875 619.5 L 555.625 620 L 570.375 620 M 577.25 603.875 C 577 591.625 576.875 580 576.875 568 C 576.875 561.25 576.875 554.5 577 547.75 C 579.5 547.625 582.125 547.5 584.625 547.5 C 592.25 547.5 607.125 547.5 607.125 574.125 C 607.125 589.75 601.25 596.75 598.25 599.25 C 592.625 603.875 584 603.875 577.25 603.875 Z M 702.875 553.125 L 682.5 554.125 L 681.625 554.875 C 682.5 569 682.5 589 682.5 591 C 682.5 594.625 682.5 596.625 682.375 601.625 C 679 603.875 676.375 605.75 673 605.75 C 664 605.75 664 596.25 664 588.875 C 664 585.75 664 582.5 664.125 579.375 L 664.375 554.125 L 663.5 553.125 L 642.875 554.125 L 642 554.875 C 642.75 565.375 642.875 568.875 642.875 581.5 L 642.875 590.25 C 642.75 603.875 643.375 609.625 647.875 614.875 C 652 619.5 658 621.5 664.25 621.5 C 673.125 621.5 678.25 617.5 682.75 614 L 682.625 619.625 L 683.5 620.375 C 692.625 620 695.375 620 703.5 620 L 704.25 619.25 C 703.625 610.375 703.375 605.625 703.375 589.375 C 703.375 577.625 703.5 565.875 703.75 554.125 Z M 779.625 619.125 C 779 608.125 779 604.625 778.75 592.375 L 778.75 582.625 C 778.625 570.625 778.5 564.875 775.375 559.75 C 771.5 553.25 764.375 552.25 759.875 552.25 C 752.25 552.25 745.625 556.25 739.875 559.625 L 740.125 552.75 L 738.875 551.875 C 729.25 553.875 727.125 554.25 717.75 555.5 L 717 556.375 C 718 567.25 718.75 575.125 718.75 595.5 C 718.75 603.5 718.625 611.5 718.5 619.5 L 719.25 620.25 C 728.25 619.875 730.125 619.875 740.125 619.875 L 740.875 619.125 C 740.125 599.875 740 595 739.875 572.625 C 742.5 570.875 745.5 568.75 749.5 568.75 C 756.375 568.75 757 576.125 757.375 580.625 C 757.625 584.75 757.75 601.875 757.75 606.625 C 757.75 610.875 757.625 615.25 757.625 619.5 L 758.375 620.25 C 766.625 620 768.75 619.875 778.75 619.875 Z M 849.375 601.5 C 844.625 604 839 606.875 829.875 606.875 C 822.375 606.875 817.25 604.5 814.25 600 C 812.375 597.375 812 594.875 811.5 592.375 L 851.875 591.625 L 852.625 590.75 C 852.5 584.625 852.375 578.375 850.625 572.125 C 846.25 557.375 836.625 554.375 832.375 553.375 C 829.25 552.5 826.375 552.25 823.5 552.25 C 803.875 552.25 790.875 565.125 790.875 586.75 C 790.875 592.625 791.875 598.75 793.875 603.125 C 801.125 620 818.125 621.5 827.125 621.5 C 837.5 621.5 842 619.625 848.625 617 L 849.375 616 L 850.25 601.875 L 849.375 601.5 M 811.5 579.125 C 811.875 575.25 812.75 570 817.5 567 C 819 566 820.75 565.625 822.5 565.625 C 826.625 565.625 829.125 567.75 830.5 570 C 832.25 572.75 832.375 575.75 832.375 578.625 Z M 890.375 576.875 C 886.125 575.375 882.75 574 882.75 570.5 C 882.75 569 883.75 564.875 891.5 564.875 C 899.125 564.875 904 568.125 907.125 570.125 L 908.25 569.75 L 909.5 556.125 L 908.875 555.375 C 903 553.75 897.875 552.25 889.75 552.25 C 883.625 552.25 871.375 552.75 864.875 562.125 C 863.25 564.375 861.5 568.125 861.5 573.125 C 861.5 586.5 871.875 590.5 877.75 592.75 L 882.5 594.5 C 885.875 595.625 891.375 597.5 891.375 602 C 891.375 605.125 888.5 608.5 881.5 608.5 C 878 608.5 872.875 607.375 868.25 605 C 866.125 603.875 865.125 603 863.25 601.5 L 862.125 602 C 861.875 608.5 861.75 609.875 861.25 616.125 L 861.875 617.25 C 868 619.5 873.25 621.5 882.375 621.5 C 891.875 621.5 910.625 619.75 912.875 601.875 C 913 600.875 913 600 913 599.125 C 913 585.375 903.375 581.75 896.5 579.125 Z M 916.5 620 "/>
<path fill-rule="nonzero" fill="rgb(34.901961%, 14.901961%, 14.901961%)" fill-opacity="1" d="M 380.875 716.25 C 370.375 711.875 364.875 709.625 364.875 704 C 364.875 700.125 368.5 695.25 376.75 695.25 C 386.25 695.25 391.875 699.125 396.5 702.25 L 397.625 701.75 L 398.625 685.375 L 398 684.5 C 392.625 682.25 387 679.875 374.875 679.875 C 351.375 679.875 343.25 693.125 343.25 706.5 C 343.25 721.625 355 727.125 362 730.5 L 366.125 732.375 C 374.75 736 381.375 739.125 381.375 745.75 C 381.375 750.5 377.25 756.125 366.375 756.125 C 355 756.125 348.625 751.125 345 748.25 L 343.75 748.625 L 342.875 766.25 L 343.625 767.25 C 345 767.75 346.375 768.375 347.75 768.75 C 350.625 769.75 358 771.875 367.375 771.875 C 371.125 771.875 380.625 771.5 388.125 768 C 398.625 762.875 403.125 753.375 403.125 742.75 C 403.125 735.625 400.375 728 393.75 722.875 C 390.375 720.375 387.125 718.875 384.125 717.5 Z M 457.875 769.125 C 463.25 746.5 465.125 740 482.125 682 L 481.5 681.375 C 472.125 681.75 469.625 681.75 462.125 681.75 L 461.375 682.5 C 459 694.75 458.375 698 454.875 711.875 L 450.875 728.25 L 445.5 751.375 L 438.875 721.875 L 436.25 710.625 C 433.125 697.75 432.25 693.5 429.625 681.375 L 428.875 680.75 C 418.5 681.5 416.25 681.625 406.5 681.625 L 405.875 682.375 C 414.25 711.25 421.75 737.75 426 754.25 C 427.25 759.375 428.5 764.5 429.75 769.625 L 430.5 770.375 C 441.375 770 444.125 769.875 457.125 770 Z M 516.125 735.625 C 524.5 749.875 526.375 753.625 534.375 770 L 535.375 770.625 C 539.25 770.375 543 770.125 546.875 770 C 550.75 769.875 554.75 769.75 558.625 769.75 L 559.375 768.25 C 554.625 762.125 553.25 760.25 544.25 745.875 C 540.25 739.5 538.25 736.125 535.125 730.625 C 540.75 728.125 552.125 722.875 552.125 707 C 552.125 701.5 550.625 690.125 540.375 684.75 C 533.875 681.375 527.125 681.25 512.5 681.5 L 503.75 681.625 L 488.5 681.625 L 487.875 682.375 C 488.375 695 488.875 708 488.875 742 C 488.875 753.625 488.75 759.25 488.375 769.625 L 489.125 770.375 C 498.25 770 500.25 769.875 510.5 770 L 511.25 769.25 C 510.25 754.75 510.125 750.75 510 735.875 L 516.125 735.625 M 510.25 696.75 C 512 696.625 513.75 696.625 515.5 696.625 C 520.375 696.625 530 696.625 530 707.625 C 530 711.125 529.125 715.75 524.5 718.625 C 521 720.75 516.5 721 510.25 721.125 Z M 616.5 681.375 C 604.5 681.75 602 681.75 588.625 681.75 L 587.75 682.5 C 581.125 703.75 577.125 716.375 558.75 769.125 L 559.25 770 L 578.75 770 L 579.625 769.25 L 585.75 746.5 L 612.75 746.5 L 618.125 769.625 L 619 770.375 C 628.125 770 630.625 769.875 640.75 770 L 641.375 769 C 626.25 715.5 624.5 709.625 617.375 682.125 L 616.5 681.375 M 590.125 731.375 L 596.375 710.25 L 600.75 695.625 L 604.5 711.875 L 609.125 731.375 Z M 641.875 770 "/>
</svg>
