<?xml version="1.0" encoding="UTF-8"?>
<svg xmlns="http://www.w3.org/2000/svg" xmlns:xlink="http://www.w3.org/1999/xlink" width="975" height="1300" viewBox="0 0 975 1300">
<path fill-rule="nonzero" fill="rgb(34.901961%, 14.901961%, 14.901961%)" fill-opacity="1" d="M 118.3125 381.5 L 102.4375 381.75 L 101.6875 382.5 C 102.1875 398.75 102.5625 409.625 102.5625 424 C 102.5625 439.25 102.1875 454.375 101.8125 469.625 L 102.5625 470.375 C 111.8125 470 113.8125 469.875 123.8125 470 L 124.4375 469.25 C 123.9375 455.625 123.9375 452.5 123.9375 439.75 C 137.9375 439.875 152.9375 439.875 161.9375 428.875 C 165.4375 424.625 168.4375 417.5 168.4375 408.75 C 168.4375 403.375 167.1875 391.5 156.8125 385.625 C 149.3125 381.25 138.6875 381.25 129.3125 381.25 L 118.3125 381.5 M 123.9375 396.625 C 126.6875 396.5 129.3125 396.5 132.0625 396.5 C 143.0625 396.75 146.0625 402.375 146.0625 409.625 C 146.0625 411.375 146.0625 418.625 139.4375 422.25 C 136.0625 424.125 131.4375 424.375 123.9375 424.375 Z M 240.6875 436.75 C 240.6875 431.875 240.6875 411.625 223.1875 404.75 C 217.6875 402.625 211.1875 402.375 207.9375 402.375 C 186.1875 402.375 173.9375 414 173.9375 437 C 173.9375 445 175.1875 453.125 179.8125 459.875 C 183.0625 464.75 189.1875 471.5 207.0625 471.5 C 233.5625 471.5 240.6875 455.5 240.6875 436.75 M 219.0625 436.625 C 219.0625 446.875 217.6875 458.25 207.3125 458.25 C 204.0625 458.25 201.8125 456.75 200.3125 455.375 C 198.1875 453.25 195.8125 449 195.8125 436.875 C 195.8125 433.25 195.8125 425.25 198.3125 420.875 C 200.1875 417.5 203.4375 415.25 207.4375 415.25 C 210.9375 415.25 213.8125 417.125 215.4375 419.125 C 218.4375 422.75 219.0625 429.875 219.0625 436.625 Z M 275.1875 469.125 C 274.5625 459.5 274.0625 452.125 274.0625 434.875 C 274.0625 424.25 274.3125 413.5 274.4375 402.875 L 273.5625 401.875 L 252.0625 405.625 L 251.3125 406.375 C 252.3125 415.875 252.6875 420.25 252.6875 438 C 252.6875 451.625 252.3125 459.25 251.9375 469.5 L 252.6875 470.375 C 261.6875 470 264.1875 469.875 274.3125 470 L 275.1875 469.125 M 273.1875 389.875 L 273.5625 372.875 L 272.8125 372.125 L 252.4375 374.625 L 251.6875 375.5 C 251.9375 380 252.0625 382.625 252.0625 385.625 C 252.0625 388 252.0625 390.5 251.9375 392.875 L 252.8125 393.625 C 261.3125 392.125 263.6875 391.875 272.5625 390.75 Z M 350.3125 469.125 C 349.6875 458.125 349.6875 454.625 349.4375 442.375 L 349.4375 432.625 C 349.3125 420.625 349.1875 414.875 346.0625 409.75 C 342.1875 403.25 335.0625 402.25 330.5625 402.25 C 322.9375 402.25 316.3125 406.25 310.5625 409.625 L 310.8125 402.75 L 309.5625 401.875 C 299.9375 403.875 297.8125 404.25 288.4375 405.5 L 287.6875 406.375 C 288.6875 417.25 289.4375 425.125 289.4375 445.5 C 289.4375 453.5 289.3125 461.5 289.1875 469.5 L 289.9375 470.25 C 298.9375 469.875 300.8125 469.875 310.8125 469.875 L 311.5625 469.125 C 310.8125 449.875 310.6875 445 310.5625 422.625 C 313.1875 420.875 316.1875 418.75 320.1875 418.75 C 327.0625 418.75 327.6875 426.125 328.0625 430.625 C 328.3125 434.75 328.4375 451.875 328.4375 456.625 C 328.4375 460.875 328.3125 465.25 328.3125 469.5 L 329.0625 470.25 C 337.3125 470 339.4375 469.875 349.4375 469.875 Z M 399.5625 455.625 C 397.4375 456.25 395.9375 456.75 393.8125 456.75 C 387.4375 456.75 386.9375 452.75 386.6875 450.875 C 386.3125 447.625 386.3125 440.75 386.4375 435.75 L 386.6875 418.125 L 397.9375 418.625 L 398.6875 417.875 L 399.9375 404.5 L 399.1875 403.75 L 386.6875 403.75 L 387.0625 382.75 L 386.1875 382 C 377.6875 384.5 375.4375 385.125 366.5625 387.375 L 366.0625 388.25 L 366.1875 403.875 L 359.4375 403.625 L 358.6875 404.25 L 357.5625 417.625 L 358.3125 418.375 L 366.1875 418.125 L 365.8125 438 C 365.6875 441.125 365.5625 444.25 365.5625 447.5 C 365.5625 459 365.8125 471.375 385.3125 471.375 C 390.1875 471.375 394.0625 470.625 398.4375 469.875 L 399.3125 469 L 400.5625 456.125 Z M 510.1875 447.625 C 507.3125 449.875 500.9375 454.625 490.5625 454.625 C 476.3125 454.625 466.3125 444 466.3125 426.25 C 466.3125 415.5 470.0625 396.625 490.4375 396.625 C 499.8125 396.625 504.9375 400.25 508.0625 402.625 L 509.1875 402.375 L 510.3125 385.125 L 509.8125 384.5 C 505.3125 382.75 497.6875 379.875 486.6875 379.875 C 454.3125 379.875 443.0625 404.875 443.0625 426.75 C 443.0625 450.75 457.6875 471.875 488.1875 471.875 C 498.6875 471.875 505.5625 469.125 509.5625 467.5 L 510.1875 466.75 L 511.0625 448.125 Z M 576.4375 432.75 C 576.5625 421.5 576.5625 416.625 573.3125 411.375 C 570.8125 407.375 565.8125 402.375 549.8125 402.375 C 539.0625 402.375 532.4375 404.375 525.3125 406.5 L 524.5625 407.5 L 523.9375 421.125 L 524.9375 421.625 C 529.3125 419.875 537.4375 416.625 545.8125 416.625 C 550.4375 416.625 552.3125 417.375 553.9375 419 C 555.1875 420.25 555.5625 422.5 555.5625 424.375 C 540.5625 426.375 533.5625 427.75 526.0625 432.375 C 519.0625 436.75 516.6875 443.875 516.6875 449.5 C 516.6875 462.875 526.3125 471.5 538.5625 471.5 C 547.9375 471.5 553.3125 467 555.9375 464.875 L 555.9375 469.5 L 556.6875 470.375 C 565.6875 470 568.4375 469.875 576.5625 470 L 577.1875 469.125 C 576.3125 456.875 576.3125 453.75 576.3125 442 L 576.4375 432.75 M 555.8125 452.625 C 553.1875 454.125 549.8125 455.875 545.6875 455.875 C 541.1875 455.875 537.4375 453.5 537.4375 448.25 C 537.4375 440 547.3125 438.625 555.8125 437.5 Z M 600.0625 470.25 L 602.5625 470.25 C 622.5625 470.25 635.4375 469.25 644.9375 459.125 C 653.8125 449.625 654.6875 438.375 654.6875 433.125 C 654.6875 415.75 644.6875 402.25 627.6875 402.25 C 619.4375 402.25 615.0625 405 611.5625 407.25 L 612.3125 371 L 611.3125 370.25 L 590.5625 373.5 L 589.8125 374.375 C 590.8125 384.875 591.1875 389.125 591.1875 414.25 C 591.1875 425 591.0625 446.25 590.9375 469.5 L 591.8125 470.375 L 600.0625 470.25 M 612.0625 419.625 C 614.5625 418.375 616.9375 417.125 620.1875 417.125 C 628.4375 417.125 633.1875 424.5 633.1875 436 C 633.1875 445 629.1875 450.875 625.8125 453.25 C 621.6875 456.125 616.3125 456.25 612.0625 456.375 Z M 702.6875 423.625 L 706.1875 403.25 L 705.4375 402.375 C 704.5625 402.375 703.6875 402.25 702.8125 402.25 C 697.6875 402.25 691.9375 405.125 687.9375 414.375 L 688.3125 402.875 L 687.3125 401.875 C 678.0625 403.875 675.6875 404.25 666.5625 405.625 L 665.8125 406.375 C 666.5625 415.75 666.9375 421.375 666.9375 438.75 C 666.9375 449 666.8125 459.25 666.5625 469.625 L 667.3125 470.375 C 676.5625 470 678.5625 469.875 688.5625 470 L 689.1875 469.125 C 688.6875 459 687.9375 444.875 687.9375 436.25 C 687.9375 430.625 687.9375 422.375 696.4375 422.375 C 698.5625 422.375 699.8125 423.125 701.5625 424.125 Z M 736.0625 469.125 C 735.4375 459.5 734.9375 452.125 734.9375 434.875 C 734.9375 424.25 735.1875 413.5 735.3125 402.875 L 734.4375 401.875 L 712.9375 405.625 L 712.1875 406.375 C 713.1875 415.875 713.5625 420.25 713.5625 438 C 713.5625 451.625 713.1875 459.25 712.8125 469.5 L 713.5625 470.375 C 722.5625 470 725.0625 469.875 735.1875 470 L 736.0625 469.125 M 734.0625 389.875 L 734.4375 372.875 L 733.6875 372.125 L 713.3125 374.625 L 712.5625 375.5 C 712.8125 380 712.9375 382.625 712.9375 385.625 C 712.9375 388 712.9375 390.5 712.8125 392.875 L 713.6875 393.625 C 722.1875 392.125 724.5625 391.875 733.4375 390.75 Z M 771.9375 469.125 C 771.3125 454.75 770.6875 441.625 770.6875 402.125 C 770.6875 390.25 770.8125 384.625 771.3125 371.125 L 770.4375 370.25 L 749.0625 373.625 L 748.5625 374.375 C 749.8125 389.625 749.9375 393.75 750.1875 414 C 750.3125 421.375 750.3125 428.75 750.3125 436.125 C 750.3125 449.625 750.0625 457.125 749.5625 469.5 L 750.3125 470.375 C 758.6875 470 762.0625 469.875 771.1875 470 Z M 808.4375 469.125 C 807.8125 454.75 807.1875 441.625 807.1875 402.125 C 807.1875 390.25 807.3125 384.625 807.8125 371.125 L 806.9375 370.25 L 785.5625 373.625 L 785.0625 374.375 C 786.3125 389.625 786.4375 393.75 786.6875 414 C 786.8125 421.375 786.8125 428.75 786.8125 436.125 C 786.8125 449.625 786.5625 457.125 786.0625 469.5 L 786.8125 470.375 C 795.1875 470 798.5625 469.875 807.6875 470 Z M 886.5625 436.75 C 886.5625 431.875 886.5625 411.625 869.0625 404.75 C 863.5625 402.625 857.0625 402.375 853.8125 402.375 C 832.0625 402.375 819.8125 414 819.8125 437 C 819.8125 445 821.0625 453.125 825.6875 459.875 C 828.9375 464.75 835.0625 471.5 852.9375 471.5 C 879.4375 471.5 886.5625 455.5 886.5625 436.75 M 864.9375 436.625 C 864.9375 446.875 863.5625 458.25 853.1875 458.25 C 849.9375 458.25 847.6875 456.75 846.1875 455.375 C 844.0625 453.25 841.6875 449 841.6875 436.875 C 841.6875 433.25 841.6875 425.25 844.1875 420.875 C 846.0625 417.5 849.3125 415.25 853.3125 415.25 C 856.8125 415.25 859.6875 417.125 861.3125 419.125 C 864.3125 422.75 864.9375 429.875 864.9375 436.625 Z M 890.9375 470 "/>
<path fill-rule="nonzero" fill="rgb(34.901961%, 14.901961%, 14.901961%)" fill-opacity="1" d="M 183.875 602.875 C 170.25 603.625 159.375 603.875 155.625 603.875 L 153.125 603.875 C 152.875 570.5 153 562 154 532.125 L 153.25 531.375 C 142.5 531.875 139.625 531.875 131 531.75 L 130.25 532.5 C 130.75 542.5 130.875 545.5 130.875 560.375 C 130.875 580.125 130.75 599.875 130.75 619.625 L 131.375 620.375 C 155.875 620 160.375 620 182.875 620 L 183.5 619.25 L 184.5 603.5 Z M 217.875 619.125 C 217.25 609.5 216.75 602.125 216.75 584.875 C 216.75 574.25 217 563.5 217.125 552.875 L 216.25 551.875 L 194.75 555.625 L 194 556.375 C 195 565.875 195.375 570.25 195.375 588 C 195.375 601.625 195 609.25 194.625 619.5 L 195.375 620.375 C 204.375 620 206.875 619.875 217 620 L 217.875 619.125 M 215.875 539.875 L 216.25 522.875 L 215.5 522.125 L 195.125 524.625 L 194.375 525.5 C 194.625 530 194.75 532.625 194.75 535.625 C 194.75 538 194.75 540.5 194.625 542.875 L 195.5 543.625 C 204 542.125 206.375 541.875 215.25 540.75 Z M 254.75 598.875 C 258.75 599 262.75 599.25 268.75 597.25 C 275.25 595 284.75 589.625 284.75 577.5 C 284.75 571.5 283 569 281.375 566.625 L 290 567.125 L 290.75 566.5 L 291.625 554 L 290.875 553.375 C 281.25 553.75 278.625 553.875 270.75 553.75 L 265 553.625 C 256.125 553.375 244.25 553.125 236.125 559.875 C 233.375 562 228.125 567.375 228.125 576.75 C 228.125 581.75 229.5 585.75 231.75 588.875 C 234.5 592.75 237 594.125 240.125 595.875 C 236.625 602.625 234.75 606 231.875 611.125 L 231.875 612.25 L 237.125 616 C 233.375 618.875 227.5 623.625 227.5 631.75 C 227.5 637.5 230.625 642.5 235.25 645.875 C 242.25 650.875 251.75 651.125 256.625 651.125 C 279.5 651.125 290 639.625 290 627.5 C 290 611.75 276.25 608.75 268.125 606.875 L 265.125 606.375 C 259 605.375 257.625 605 252.75 603.25 L 254.75 598.875 M 265 576.375 C 264.875 586.5 258.75 587.375 257 587.375 C 256 587.375 251.625 587.125 249.5 582.125 C 248.375 579.5 248.375 576.5 248.375 575.625 C 248.375 569.375 252.125 565.375 256.75 565.375 C 262.5 565.375 265.125 570.875 265 576.375 M 254.375 623 C 265.5 625.875 265.625 625.875 267.125 627.125 C 268.375 628 269.625 629.375 269.625 632 C 269.625 635.75 266.5 639.625 258.25 639.625 C 249 639.625 245.875 634.375 245.875 630 C 245.875 625.875 248 623.5 249.5 621.75 Z M 360.75 619.125 C 360.25 608.875 360.125 605.375 359.875 592.375 L 359.875 583 C 359.75 571.125 359.625 564.25 356 559 C 352.375 553.875 347.125 552.25 341.625 552.25 C 332.5 552.25 325.375 556.625 320.375 559.625 L 320.75 521.125 L 320 520.25 L 298.625 523.625 L 298 524.375 C 299.125 536.5 299.375 541 299.625 557.125 C 299.875 567.25 300 577.375 300 587.5 C 300 599.875 299.75 607.25 299.5 619.5 L 300.125 620.375 C 309.375 619.875 311.25 619.875 321.375 619.875 L 322.125 619.125 C 321.25 600.375 321.125 594.75 321 572.625 C 323.375 571 326.375 568.875 330.625 568.875 C 337.5 568.875 338 576 338.5 581 C 338.75 584.875 338.875 602.625 338.875 607.25 C 338.875 611.375 338.75 615.375 338.75 619.5 L 339.375 620.375 C 348.375 619.875 350.375 619.875 360 619.875 Z M 410 605.625 C 407.875 606.25 406.375 606.75 404.25 606.75 C 397.875 606.75 397.375 602.75 397.125 600.875 C 396.75 597.625 396.75 590.75 396.875 585.75 L 397.125 568.125 L 408.375 568.625 L 409.125 567.875 L 410.375 554.5 L 409.625 553.75 L 397.125 553.75 L 397.5 532.75 L 396.625 532 C 388.125 534.5 385.875 535.125 377 537.375 L 376.5 538.25 L 376.625 553.875 L 369.875 553.625 L 369.125 554.25 L 368 567.625 L 368.75 568.375 L 376.625 568.125 L 376.25 588 C 376.125 591.125 376 594.25 376 597.5 C 376 609 376.25 621.375 395.75 621.375 C 400.625 621.375 404.5 620.625 408.875 619.875 L 409.75 619 L 411 606.125 Z M 491.875 566.25 C 481.375 561.875 475.875 559.625 475.875 554 C 475.875 550.125 479.5 545.25 487.75 545.25 C 497.25 545.25 502.875 549.125 507.5 552.25 L 508.625 551.75 L 509.625 535.375 L 509 534.5 C 503.625 532.25 498 529.875 485.875 529.875 C 462.375 529.875 454.25 543.125 454.25 556.5 C 454.25 571.625 466 577.125 473 580.5 L 477.125 582.375 C 485.75 586 492.375 589.125 492.375 595.75 C 492.375 600.5 488.25 606.125 477.375 606.125 C 466 606.125 459.625 601.125 456 598.25 L 454.75 598.625 L 453.875 616.25 L 454.625 617.25 C 456 617.75 457.375 618.375 458.75 618.75 C 461.625 619.75 469 621.875 478.375 621.875 C 482.125 621.875 491.625 621.5 499.125 618 C 509.625 612.875 514.125 603.375 514.125 592.75 C 514.125 585.625 511.375 578 504.75 572.875 C 501.375 570.375 498.125 568.875 495.125 567.5 Z M 561 605.625 C 558.875 606.25 557.375 606.75 555.25 606.75 C 548.875 606.75 548.375 602.75 548.125 600.875 C 547.75 597.625 547.75 590.75 547.875 585.75 L 548.125 568.125 L 559.375 568.625 L 560.125 567.875 L 561.375 554.5 L 560.625 553.75 L 548.125 553.75 L 548.5 532.75 L 547.625 532 C 539.125 534.5 536.875 535.125 528 537.375 L 527.5 538.25 L 527.625 553.875 L 520.875 553.625 L 520.125 554.25 L 519 567.625 L 519.75 568.375 L 527.625 568.125 L 527.25 588 C 527.125 591.125 527 594.25 527 597.5 C 527 609 527.25 621.375 546.75 621.375 C 551.625 621.375 555.5 620.625 559.875 619.875 L 560.75 619 L 562 606.125 Z M 625.875 582.75 C 626 571.5 626 566.625 622.75 561.375 C 620.25 557.375 615.25 552.375 599.25 552.375 C 588.5 552.375 581.875 554.375 574.75 556.5 L 574 557.5 L 573.375 571.125 L 574.375 571.625 C 578.75 569.875 586.875 566.625 595.25 566.625 C 599.875 566.625 601.75 567.375 603.375 569 C 604.625 570.25 605 572.5 605 574.375 C 590 576.375 583 577.75 575.5 582.375 C 568.5 586.75 566.125 593.875 566.125 599.5 C 566.125 612.875 575.75 621.5 588 621.5 C 597.375 621.5 602.75 617 605.375 614.875 L 605.375 619.5 L 606.125 620.375 C 615.125 620 617.875 619.875 626 620 L 626.625 619.125 C 625.75 606.875 625.75 603.75 625.75 592 L 625.875 582.75 M 605.25 602.625 C 602.625 604.125 599.25 605.875 595.125 605.875 C 590.625 605.875 586.875 603.5 586.875 598.25 C 586.875 590 596.75 588.625 605.25 587.5 Z M 675.5 605.625 C 673.375 606.25 671.875 606.75 669.75 606.75 C 663.375 606.75 662.875 602.75 662.625 600.875 C 662.25 597.625 662.25 590.75 662.375 585.75 L 662.625 568.125 L 673.875 568.625 L 674.625 567.875 L 675.875 554.5 L 675.125 553.75 L 662.625 553.75 L 663 532.75 L 662.125 532 C 653.625 534.5 651.375 535.125 642.5 537.375 L 642 538.25 L 642.125 553.875 L 635.375 553.625 L 634.625 554.25 L 633.5 567.625 L 634.25 568.375 L 642.125 568.125 L 641.75 588 C 641.625 591.125 641.5 594.25 641.5 597.5 C 641.5 609 641.75 621.375 661.25 621.375 C 666.125 621.375 670 620.625 674.375 619.875 L 675.25 619 L 676.5 606.125 Z M 707.375 619.125 C 706.75 609.5 706.25 602.125 706.25 584.875 C 706.25 574.25 706.5 563.5 706.625 552.875 L 705.75 551.875 L 684.25 555.625 L 683.5 556.375 C 684.5 565.875 684.875 570.25 684.875 588 C 684.875 601.625 684.5 609.25 684.125 619.5 L 684.875 620.375 C 693.875 620 696.375 619.875 706.5 620 L 707.375 619.125 M 705.375 539.875 L 705.75 522.875 L 705 522.125 L 684.625 524.625 L 683.875 525.5 C 684.125 530 684.25 532.625 684.25 535.625 C 684.25 538 684.25 540.5 684.125 542.875 L 685 543.625 C 693.5 542.125 695.875 541.875 704.75 540.75 Z M 784.875 586.75 C 784.875 581.875 784.875 561.625 767.375 554.75 C 761.875 552.625 755.375 552.375 752.125 552.375 C 730.375 552.375 718.125 564 718.125 587 C 718.125 595 719.375 603.125 724 609.875 C 727.25 614.75 733.375 621.5 751.25 621.5 C 777.75 621.5 784.875 605.5 784.875 586.75 M 763.25 586.625 C 763.25 596.875 761.875 608.25 751.5 608.25 C 748.25 608.25 746 606.75 744.5 605.375 C 742.375 603.25 740 599 740 586.875 C 740 583.25 740 575.25 742.5 570.875 C 744.375 567.5 747.625 565.25 751.625 565.25 C 755.125 565.25 758 567.125 759.625 569.125 C 762.625 572.75 763.25 579.875 763.25 586.625 Z M 858 619.125 C 857.375 608.125 857.375 604.625 857.125 592.375 L 857.125 582.625 C 857 570.625 856.875 564.875 853.75 559.75 C 849.875 553.25 842.75 552.25 838.25 552.25 C 830.625 552.25 824 556.25 818.25 559.625 L 818.5 552.75 L 817.25 551.875 C 807.625 553.875 805.5 554.25 796.125 555.5 L 795.375 556.375 C 796.375 567.25 797.125 575.125 797.125 595.5 C 797.125 603.5 797 611.5 796.875 619.5 L 797.625 620.25 C 806.625 619.875 808.5 619.875 818.5 619.875 L 819.25 619.125 C 818.5 599.875 818.375 595 818.25 572.625 C 820.875 570.875 823.875 568.75 827.875 568.75 C 834.75 568.75 835.375 576.125 835.75 580.625 C 836 584.75 836.125 601.875 836.125 606.625 C 836.125 610.875 836 615.25 836 619.5 L 836.75 620.25 C 845 620 847.125 619.875 857.125 619.875 Z M 864.75 620 "/>
<path fill-rule="nonzero" fill="rgb(34.901961%, 14.901961%, 14.901961%)" fill-opacity="1" d="M 140.9375 716.25 C 130.4375 711.875 124.9375 709.625 124.9375 704 C 124.9375 700.125 128.5625 695.25 136.8125 695.25 C 146.3125 695.25 151.9375 699.125 156.5625 702.25 L 157.6875 701.75 L 158.6875 685.375 L 158.0625 684.5 C 152.6875 682.25 147.0625 679.875 134.9375 679.875 C 111.4375 679.875 103.3125 693.125 103.3125 706.5 C 103.3125 721.625 115.0625 727.125 122.0625 730.5 L 126.1875 732.375 C 134.8125 736 141.4375 739.125 141.4375 745.75 C 141.4375 750.5 137.3125 756.125 126.4375 756.125 C 115.0625 756.125 108.6875 751.125 105.0625 748.25 L 103.8125 748.625 L 102.9375 766.25 L 103.6875 767.25 C 105.0625 767.75 106.4375 768.375 107.8125 768.75 C 110.6875 769.75 118.0625 771.875 127.4375 771.875 C 131.1875 771.875 140.6875 771.5 148.1875 768 C 158.6875 762.875 163.1875 753.375 163.1875 742.75 C 163.1875 735.625 160.4375 728 153.8125 722.875 C 150.4375 720.375 147.1875 718.875 144.1875 717.5 Z M 210.0625 755.625 C 207.9375 756.25 206.4375 756.75 204.3125 756.75 C 197.9375 756.75 197.4375 752.75 197.1875 750.875 C 196.8125 747.625 196.8125 740.75 196.9375 735.75 L 197.1875 718.125 L 208.4375 718.625 L 209.1875 717.875 L 210.4375 704.5 L 209.6875 703.75 L 197.1875 703.75 L 197.5625 682.75 L 196.6875 682 C 188.1875 684.5 185.9375 685.125 177.0625 687.375 L 176.5625 688.25 L 176.6875 703.875 L 169.9375 703.625 L 169.1875 704.25 L 168.0625 717.625 L 168.8125 718.375 L 176.6875 718.125 L 176.3125 738 C 176.1875 741.125 176.0625 744.25 176.0625 747.5 C 176.0625 759 176.3125 771.375 195.8125 771.375 C 200.6875 771.375 204.5625 770.625 208.9375 769.875 L 209.8125 769 L 211.0625 756.125 Z M 274.9375 732.75 C 275.0625 721.5 275.0625 716.625 271.8125 711.375 C 269.3125 707.375 264.3125 702.375 248.3125 702.375 C 237.5625 702.375 230.9375 704.375 223.8125 706.5 L 223.0625 707.5 L 222.4375 721.125 L 223.4375 721.625 C 227.8125 719.875 235.9375 716.625 244.3125 716.625 C 248.9375 716.625 250.8125 717.375 252.4375 719 C 253.6875 720.25 254.0625 722.5 254.0625 724.375 C 239.0625 726.375 232.0625 727.75 224.5625 732.375 C 217.5625 736.75 215.1875 743.875 215.1875 749.5 C 215.1875 762.875 224.8125 771.5 237.0625 771.5 C 246.4375 771.5 251.8125 767 254.4375 764.875 L 254.4375 769.5 L 255.1875 770.375 C 264.1875 770 266.9375 769.875 275.0625 770 L 275.6875 769.125 C 274.8125 756.875 274.8125 753.75 274.8125 742 L 274.9375 732.75 M 254.3125 752.625 C 251.6875 754.125 248.3125 755.875 244.1875 755.875 C 239.6875 755.875 235.9375 753.5 235.9375 748.25 C 235.9375 740 245.8125 738.625 254.3125 737.5 Z M 324.5625 755.625 C 322.4375 756.25 320.9375 756.75 318.8125 756.75 C 312.4375 756.75 311.9375 752.75 311.6875 750.875 C 311.3125 747.625 311.3125 740.75 311.4375 735.75 L 311.6875 718.125 L 322.9375 718.625 L 323.6875 717.875 L 324.9375 704.5 L 324.1875 703.75 L 311.6875 703.75 L 312.0625 682.75 L 311.1875 682 C 302.6875 684.5 300.4375 685.125 291.5625 687.375 L 291.0625 688.25 L 291.1875 703.875 L 284.4375 703.625 L 283.6875 704.25 L 282.5625 717.625 L 283.3125 718.375 L 291.1875 718.125 L 290.8125 738 C 290.6875 741.125 290.5625 744.25 290.5625 747.5 C 290.5625 759 290.8125 771.375 310.3125 771.375 C 315.1875 771.375 319.0625 770.625 323.4375 769.875 L 324.3125 769 L 325.5625 756.125 Z M 389.3125 751.5 C 384.5625 754 378.9375 756.875 369.8125 756.875 C 362.3125 756.875 357.1875 754.5 354.1875 750 C 352.3125 747.375 351.9375 744.875 351.4375 742.375 L 391.8125 741.625 L 392.5625 740.75 C 392.4375 734.625 392.3125 728.375 390.5625 722.125 C 386.1875 707.375 376.5625 704.375 372.3125 703.375 C 369.1875 702.5 366.3125 702.25 363.4375 702.25 C 343.8125 702.25 330.8125 715.125 330.8125 736.75 C 330.8125 742.625 331.8125 748.75 333.8125 753.125 C 341.0625 770 358.0625 771.5 367.0625 771.5 C 377.4375 771.5 381.9375 769.625 388.5625 767 L 389.3125 766 L 390.1875 751.875 L 389.3125 751.5 M 351.4375 729.125 C 351.8125 725.25 352.6875 720 357.4375 717 C 358.9375 716 360.6875 715.625 362.4375 715.625 C 366.5625 715.625 369.0625 717.75 370.4375 720 C 372.1875 722.75 372.3125 725.75 372.3125 728.625 Z M 515.4375 681.375 C 505.4375 681.75 503.8125 681.75 493.3125 681.75 L 492.6875 682.5 C 493.5625 696.625 493.5625 700.25 493.6875 715 C 488.1875 715.125 482.6875 715.25 477.0625 715.25 C 472.6875 715.25 468.1875 715.125 463.8125 715.125 L 464.0625 682.125 L 463.4375 681.375 C 453.8125 681.75 451.9375 681.75 441.0625 681.75 L 440.3125 682.5 C 440.9375 695.375 441.6875 710.75 441.6875 741.75 C 441.6875 753 441.4375 759.125 441.1875 769.625 L 441.8125 770.375 C 450.9375 770 453.1875 769.875 464.1875 770 L 464.8125 769.25 C 464.0625 753.75 463.9375 749.25 463.8125 731.125 C 469.3125 730.875 473.9375 730.75 478.8125 730.75 C 483.8125 730.75 488.8125 730.875 493.8125 731 C 494.0625 747.875 494.0625 752 493.4375 769.625 L 494.0625 770.375 C 503.4375 770 505.9375 769.875 516.5625 770 L 517.1875 769.25 C 516.1875 748.25 515.8125 727.375 515.8125 706.375 C 515.8125 697.625 515.9375 691.75 516.0625 682.125 Z M 554.3125 769.125 C 553.6875 759.5 553.1875 752.125 553.1875 734.875 C 553.1875 724.25 553.4375 713.5 553.5625 702.875 L 552.6875 701.875 L 531.1875 705.625 L 530.4375 706.375 C 531.4375 715.875 531.8125 720.25 531.8125 738 C 531.8125 751.625 531.4375 759.25 531.0625 769.5 L 531.8125 770.375 C 540.8125 770 543.3125 769.875 553.4375 770 L 554.3125 769.125 M 552.3125 689.875 L 552.6875 672.875 L 551.9375 672.125 L 531.5625 674.625 L 530.8125 675.5 C 531.0625 680 531.1875 682.625 531.1875 685.625 C 531.1875 688 531.1875 690.5 531.0625 692.875 L 531.9375 693.625 C 540.4375 692.125 542.8125 691.875 551.6875 690.75 Z M 594.4375 726.875 C 590.1875 725.375 586.8125 724 586.8125 720.5 C 586.8125 719 587.8125 714.875 595.5625 714.875 C 603.1875 714.875 608.0625 718.125 611.1875 720.125 L 612.3125 719.75 L 613.5625 706.125 L 612.9375 705.375 C 607.0625 703.75 601.9375 702.25 593.8125 702.25 C 587.6875 702.25 575.4375 702.75 568.9375 712.125 C 567.3125 714.375 565.5625 718.125 565.5625 723.125 C 565.5625 736.5 575.9375 740.5 581.8125 742.75 L 586.5625 744.5 C 589.9375 745.625 595.4375 747.5 595.4375 752 C 595.4375 755.125 592.5625 758.5 585.5625 758.5 C 582.0625 758.5 576.9375 757.375 572.3125 755 C 570.1875 753.875 569.1875 753 567.3125 751.5 L 566.1875 752 C 565.9375 758.5 565.8125 759.875 565.3125 766.125 L 565.9375 767.25 C 572.0625 769.5 577.3125 771.5 586.4375 771.5 C 595.9375 771.5 614.6875 769.75 616.9375 751.875 C 617.0625 750.875 617.0625 750 617.0625 749.125 C 617.0625 735.375 607.4375 731.75 600.5625 729.125 Z M 663.0625 755.625 C 660.9375 756.25 659.4375 756.75 657.3125 756.75 C 650.9375 756.75 650.4375 752.75 650.1875 750.875 C 649.8125 747.625 649.8125 740.75 649.9375 735.75 L 650.1875 718.125 L 661.4375 718.625 L 662.1875 717.875 L 663.4375 704.5 L 662.6875 703.75 L 650.1875 703.75 L 650.5625 682.75 L 649.6875 682 C 641.1875 684.5 638.9375 685.125 630.0625 687.375 L 629.5625 688.25 L 629.6875 703.875 L 622.9375 703.625 L 622.1875 704.25 L 621.0625 717.625 L 621.8125 718.375 L 629.6875 718.125 L 629.3125 738 C 629.1875 741.125 629.0625 744.25 629.0625 747.5 C 629.0625 759 629.3125 771.375 648.8125 771.375 C 653.6875 771.375 657.5625 770.625 661.9375 769.875 L 662.8125 769 L 664.0625 756.125 Z M 735.9375 736.75 C 735.9375 731.875 735.9375 711.625 718.4375 704.75 C 712.9375 702.625 706.4375 702.375 703.1875 702.375 C 681.4375 702.375 669.1875 714 669.1875 737 C 669.1875 745 670.4375 753.125 675.0625 759.875 C 678.3125 764.75 684.4375 771.5 702.3125 771.5 C 728.8125 771.5 735.9375 755.5 735.9375 736.75 M 714.3125 736.625 C 714.3125 746.875 712.9375 758.25 702.5625 758.25 C 699.3125 758.25 697.0625 756.75 695.5625 755.375 C 693.4375 753.25 691.0625 749 691.0625 736.875 C 691.0625 733.25 691.0625 725.25 693.5625 720.875 C 695.4375 717.5 698.6875 715.25 702.6875 715.25 C 706.1875 715.25 709.0625 717.125 710.6875 719.125 C 713.6875 722.75 714.3125 729.875 714.3125 736.625 Z M 783.9375 723.625 L 787.4375 703.25 L 786.6875 702.375 C 785.8125 702.375 784.9375 702.25 784.0625 702.25 C 778.9375 702.25 773.1875 705.125 769.1875 714.375 L 769.5625 702.875 L 768.5625 701.875 C 759.3125 703.875 756.9375 704.25 747.8125 705.625 L 747.0625 706.375 C 747.8125 715.75 748.1875 721.375 748.1875 738.75 C 748.1875 749 748.0625 759.25 747.8125 769.625 L 748.5625 770.375 C 757.8125 770 759.8125 769.875 769.8125 770 L 770.4375 769.125 C 769.9375 759 769.1875 744.875 769.1875 736.25 C 769.1875 730.625 769.1875 722.375 777.6875 722.375 C 779.8125 722.375 781.0625 723.125 782.8125 724.125 Z M 817.3125 769.125 C 816.6875 759.5 816.1875 752.125 816.1875 734.875 C 816.1875 724.25 816.4375 713.5 816.5625 702.875 L 815.6875 701.875 L 794.1875 705.625 L 793.4375 706.375 C 794.4375 715.875 794.8125 720.25 794.8125 738 C 794.8125 751.625 794.4375 759.25 794.0625 769.5 L 794.8125 770.375 C 803.8125 770 806.3125 769.875 816.4375 770 L 817.3125 769.125 M 815.3125 689.875 L 815.6875 672.875 L 814.9375 672.125 L 794.5625 674.625 L 793.8125 675.5 C 794.0625 680 794.1875 682.625 794.1875 685.625 C 794.1875 688 794.1875 690.5 794.0625 692.875 L 794.9375 693.625 C 803.4375 692.125 805.8125 691.875 814.6875 690.75 Z M 880.0625 752 C 876.6875 754 873.4375 756 867.0625 756 C 852.9375 756 850.0625 744.25 850.0625 736.75 C 850.0625 727.625 854.0625 717.125 866.1875 717.125 C 871.6875 717.125 874.6875 719.125 878.4375 721.625 L 879.6875 721.25 C 880.1875 714.625 880.3125 712.875 881.3125 706.25 L 880.6875 705.5 C 875.1875 703.75 870.4375 702.25 863.1875 702.25 C 833.8125 702.25 828.0625 724.5 828.0625 737.25 C 828.0625 751.625 835.5625 771.125 863.6875 771.125 C 870.3125 771.125 874.5625 769.875 879.8125 768.375 L 880.5625 767.625 L 881.0625 752.625 Z M 883.5625 770 "/>
<path fill-rule="nonzero" fill="rgb(34.901961%, 14.901961%, 14.901961%)" fill-opacity="1" d="M 382.375 831.5 L 366.5 831.75 L 365.75 832.5 C 366.25 848.75 366.625 859.625 366.625 874 C 366.625 889.25 366.25 904.375 365.875 919.625 L 366.625 920.375 C 375.875 920 377.875 919.875 387.875 920 L 388.5 919.25 C 388 905.625 388 902.5 388 889.75 C 402 889.875 417 889.875 426 878.875 C 429.5 874.625 432.5 867.5 432.5 858.75 C 432.5 853.375 431.25 841.5 420.875 835.625 C 413.375 831.25 402.75 831.25 393.375 831.25 L 382.375 831.5 M 388 846.625 C 390.75 846.5 393.375 846.5 396.125 846.5 C 407.125 846.75 410.125 852.375 410.125 859.625 C 410.125 861.375 410.125 868.625 403.5 872.25 C 400.125 874.125 395.5 874.375 388 874.375 Z M 496.75 882.75 C 496.875 871.5 496.875 866.625 493.625 861.375 C 491.125 857.375 486.125 852.375 470.125 852.375 C 459.375 852.375 452.75 854.375 445.625 856.5 L 444.875 857.5 L 444.25 871.125 L 445.25 871.625 C 449.625 869.875 457.75 866.625 466.125 866.625 C 470.75 866.625 472.625 867.375 474.25 869 C 475.5 870.25 475.875 872.5 475.875 874.375 C 460.875 876.375 453.875 877.75 446.375 882.375 C 439.375 886.75 437 893.875 437 899.5 C 437 912.875 446.625 921.5 458.875 921.5 C 468.25 921.5 473.625 917 476.25 914.875 L 476.25 919.5 L 477 920.375 C 486 920 488.75 919.875 496.875 920 L 497.5 919.125 C 496.625 906.875 496.625 903.75 496.625 892 L 496.75 882.75 M 476.125 902.625 C 473.5 904.125 470.125 905.875 466 905.875 C 461.5 905.875 457.75 903.5 457.75 898.25 C 457.75 890 467.625 888.625 476.125 887.5 Z M 547.5 873.625 L 551 853.25 L 550.25 852.375 C 549.375 852.375 548.5 852.25 547.625 852.25 C 542.5 852.25 536.75 855.125 532.75 864.375 L 533.125 852.875 L 532.125 851.875 C 522.875 853.875 520.5 854.25 511.375 855.625 L 510.625 856.375 C 511.375 865.75 511.75 871.375 511.75 888.75 C 511.75 899 511.625 909.25 511.375 919.625 L 512.125 920.375 C 521.375 920 523.375 919.875 533.375 920 L 534 919.125 C 533.5 909 532.75 894.875 532.75 886.25 C 532.75 880.625 532.75 872.375 541.25 872.375 C 543.375 872.375 544.625 873.125 546.375 874.125 Z M 622.5 918.375 C 610.75 898.5 609.5 896.25 600 879.125 C 608.625 867.375 609.5 866.125 618.375 854.75 L 617.75 853.5 L 597.375 853.75 L 596.125 854.625 C 586.375 871.5 585.125 873.5 579.375 882.125 L 579.375 868.25 C 579.5 844.875 579.625 839.875 580.25 821 L 579.25 820.25 L 557.5 823.5 L 556.75 824.375 C 557.625 836.5 558 842.375 558.25 858.75 C 558.5 879 558.5 899.25 558.375 919.5 L 559.25 920.375 C 567.625 920 570 920 579.5 920 L 580.25 919.125 L 579.5 898 L 579.375 883.625 C 590.25 903.625 591.625 906.375 598 919.625 L 599.125 920.375 L 621.625 919.5 Z M 621 920 "/>
</svg>
