<?xml version="1.0" encoding="UTF-8"?>
<svg xmlns="http://www.w3.org/2000/svg" xmlns:xlink="http://www.w3.org/1999/xlink" width="975" height="1300" viewBox="0 0 975 1300">
<path fill-rule="nonzero" fill="rgb(34.901961%, 14.901961%, 14.901961%)" fill-opacity="1" d="M 280.875 447.625 C 278 449.875 271.625 454.625 261.25 454.625 C 247 454.625 237 444 237 426.25 C 237 415.5 240.75 396.625 261.125 396.625 C 270.5 396.625 275.625 400.25 278.75 402.625 L 279.875 402.375 L 281 385.125 L 280.5 384.5 C 276 382.75 268.375 379.875 257.375 379.875 C 225 379.875 213.75 404.875 213.75 426.75 C 213.75 450.75 228.375 471.875 258.875 471.875 C 269.375 471.875 276.25 469.125 280.25 467.5 L 280.875 466.75 L 281.75 448.125 Z M 347.125 432.75 C 347.25 421.5 347.25 416.625 344 411.375 C 341.5 407.375 336.5 402.375 320.5 402.375 C 309.75 402.375 303.125 404.375 296 406.5 L 295.25 407.5 L 294.625 421.125 L 295.625 421.625 C 300 419.875 308.125 416.625 316.5 416.625 C 321.125 416.625 323 417.375 324.625 419 C 325.875 420.25 326.25 422.5 326.25 424.375 C 311.25 426.375 304.25 427.75 296.75 432.375 C 289.75 436.75 287.375 443.875 287.375 449.5 C 287.375 462.875 297 471.5 309.25 471.5 C 318.625 471.5 324 467 326.625 464.875 L 326.625 469.5 L 327.375 470.375 C 336.375 470 339.125 469.875 347.25 470 L 347.875 469.125 C 347 456.875 347 453.75 347 442 L 347.125 432.75 M 326.5 452.625 C 323.875 454.125 320.5 455.875 316.375 455.875 C 311.875 455.875 308.125 453.5 308.125 448.25 C 308.125 440 318 438.625 326.5 437.5 Z M 383.75 469.125 C 383.125 454.75 382.5 441.625 382.5 402.125 C 382.5 390.25 382.625 384.625 383.125 371.125 L 382.25 370.25 L 360.875 373.625 L 360.375 374.375 C 361.625 389.625 361.75 393.75 362 414 C 362.125 421.375 362.125 428.75 362.125 436.125 C 362.125 449.625 361.875 457.125 361.375 469.5 L 362.125 470.375 C 370.5 470 373.875 469.875 383 470 Z M 420.875 469.125 C 420.25 459.5 419.75 452.125 419.75 434.875 C 419.75 424.25 420 413.5 420.125 402.875 L 419.25 401.875 L 397.75 405.625 L 397 406.375 C 398 415.875 398.375 420.25 398.375 438 C 398.375 451.625 398 459.25 397.625 469.5 L 398.375 470.375 C 407.375 470 409.875 469.875 420 470 L 420.875 469.125 M 418.875 389.875 L 419.25 372.875 L 418.5 372.125 L 398.125 374.625 L 397.375 375.5 C 397.625 380 397.75 382.625 397.75 385.625 C 397.75 388 397.75 390.5 397.625 392.875 L 398.5 393.625 C 407 392.125 409.375 391.875 418.25 390.75 Z M 459.75 469.125 C 458.5 446.375 458.375 440.25 458.5 418.125 L 468.375 418.625 L 469.25 417.75 L 470.375 404.5 L 469.75 403.75 L 458.375 403.75 L 458.5 400.875 C 458.5 393.25 458.625 386.25 466.75 386.25 C 468 386.25 469.25 386.5 470.5 386.625 L 471.375 386.125 L 472.5 372 L 471.875 371.125 C 468.875 370.875 466 370.75 463.125 370.75 C 456.75 370.75 450.25 371.5 445.25 375.25 C 437.5 381 437.625 390 437.625 396.25 L 437.75 403.75 L 429.625 403.625 L 428.875 404.25 L 427.625 417.5 L 428.375 418.25 L 437.875 418 C 437.875 441.625 437.875 447.25 437.125 469.5 L 437.875 470.375 C 446.375 470 449.625 469.875 459 469.875 Z M 542.625 436.75 C 542.625 431.875 542.625 411.625 525.125 404.75 C 519.625 402.625 513.125 402.375 509.875 402.375 C 488.125 402.375 475.875 414 475.875 437 C 475.875 445 477.125 453.125 481.75 459.875 C 485 464.75 491.125 471.5 509 471.5 C 535.5 471.5 542.625 455.5 542.625 436.75 M 521 436.625 C 521 446.875 519.625 458.25 509.25 458.25 C 506 458.25 503.75 456.75 502.25 455.375 C 500.125 453.25 497.75 449 497.75 436.875 C 497.75 433.25 497.75 425.25 500.25 420.875 C 502.125 417.5 505.375 415.25 509.375 415.25 C 512.875 415.25 515.75 417.125 517.375 419.125 C 520.375 422.75 521 429.875 521 436.625 Z M 590.625 423.625 L 594.125 403.25 L 593.375 402.375 C 592.5 402.375 591.625 402.25 590.75 402.25 C 585.625 402.25 579.875 405.125 575.875 414.375 L 576.25 402.875 L 575.25 401.875 C 566 403.875 563.625 404.25 554.5 405.625 L 553.75 406.375 C 554.5 415.75 554.875 421.375 554.875 438.75 C 554.875 449 554.75 459.25 554.5 469.625 L 555.25 470.375 C 564.5 470 566.5 469.875 576.5 470 L 577.125 469.125 C 576.625 459 575.875 444.875 575.875 436.25 C 575.875 430.625 575.875 422.375 584.375 422.375 C 586.5 422.375 587.75 423.125 589.5 424.125 Z M 662.625 469.125 C 662 458.125 662 454.625 661.75 442.375 L 661.75 432.625 C 661.625 420.625 661.5 414.875 658.375 409.75 C 654.5 403.25 647.375 402.25 642.875 402.25 C 635.25 402.25 628.625 406.25 622.875 409.625 L 623.125 402.75 L 621.875 401.875 C 612.25 403.875 610.125 404.25 600.75 405.5 L 600 406.375 C 601 417.25 601.75 425.125 601.75 445.5 C 601.75 453.5 601.625 461.5 601.5 469.5 L 602.25 470.25 C 611.25 469.875 613.125 469.875 623.125 469.875 L 623.875 469.125 C 623.125 449.875 623 445 622.875 422.625 C 625.5 420.875 628.5 418.75 632.5 418.75 C 639.375 418.75 640 426.125 640.375 430.625 C 640.625 434.75 640.75 451.875 640.75 456.625 C 640.75 460.875 640.625 465.25 640.625 469.5 L 641.375 470.25 C 649.625 470 651.75 469.875 661.75 469.875 Z M 699.5 469.125 C 698.875 459.5 698.375 452.125 698.375 434.875 C 698.375 424.25 698.625 413.5 698.75 402.875 L 697.875 401.875 L 676.375 405.625 L 675.625 406.375 C 676.625 415.875 677 420.25 677 438 C 677 451.625 676.625 459.25 676.25 469.5 L 677 470.375 C 686 470 688.5 469.875 698.625 470 L 699.5 469.125 M 697.5 389.875 L 697.875 372.875 L 697.125 372.125 L 676.75 374.625 L 676 375.5 C 676.25 380 676.375 382.625 676.375 385.625 C 676.375 388 676.375 390.5 676.25 392.875 L 677.125 393.625 C 685.625 392.125 688 391.875 696.875 390.75 Z M 769 432.75 C 769.125 421.5 769.125 416.625 765.875 411.375 C 763.375 407.375 758.375 402.375 742.375 402.375 C 731.625 402.375 725 404.375 717.875 406.5 L 717.125 407.5 L 716.5 421.125 L 717.5 421.625 C 721.875 419.875 730 416.625 738.375 416.625 C 743 416.625 744.875 417.375 746.5 419 C 747.75 420.25 748.125 422.5 748.125 424.375 C 733.125 426.375 726.125 427.75 718.625 432.375 C 711.625 436.75 709.25 443.875 709.25 449.5 C 709.25 462.875 718.875 471.5 731.125 471.5 C 740.5 471.5 745.875 467 748.5 464.875 L 748.5 469.5 L 749.25 470.375 C 758.25 470 761 469.875 769.125 470 L 769.75 469.125 C 768.875 456.875 768.875 453.75 768.875 442 L 769 432.75 M 748.375 452.625 C 745.75 454.125 742.375 455.875 738.25 455.875 C 733.75 455.875 730 453.5 730 448.25 C 730 440 739.875 438.625 748.375 437.5 Z M 776.125 470 "/>
<path fill-rule="nonzero" fill="rgb(34.901961%, 14.901961%, 14.901961%)" fill-opacity="1" d="M 338.0625 531.375 C 327.3125 531.875 324.4375 531.875 315.4375 531.75 L 314.9375 532.5 C 315.6875 546 316.0625 552.375 316.0625 584.25 C 316.0625 599 315.8125 606.625 315.3125 619.625 L 315.9375 620.375 C 325.3125 620 327.8125 620 338.1875 620 L 338.9375 619.25 C 338.3125 607.75 338.0625 602 338.0625 583.875 C 338.0625 566.625 338.3125 549.375 338.6875 532.125 Z M 415.3125 619.125 C 414.6875 608.125 414.6875 604.625 414.4375 592.375 L 414.4375 582.625 C 414.3125 570.625 414.1875 564.875 411.0625 559.75 C 407.1875 553.25 400.0625 552.25 395.5625 552.25 C 387.9375 552.25 381.3125 556.25 375.5625 559.625 L 375.8125 552.75 L 374.5625 551.875 C 364.9375 553.875 362.8125 554.25 353.4375 555.5 L 352.6875 556.375 C 353.6875 567.25 354.4375 575.125 354.4375 595.5 C 354.4375 603.5 354.3125 611.5 354.1875 619.5 L 354.9375 620.25 C 363.9375 619.875 365.8125 619.875 375.8125 619.875 L 376.5625 619.125 C 375.8125 599.875 375.6875 595 375.5625 572.625 C 378.1875 570.875 381.1875 568.75 385.1875 568.75 C 392.0625 568.75 392.6875 576.125 393.0625 580.625 C 393.3125 584.75 393.4375 601.875 393.4375 606.625 C 393.4375 610.875 393.3125 615.25 393.3125 619.5 L 394.0625 620.25 C 402.3125 620 404.4375 619.875 414.4375 619.875 Z M 490.8125 619.25 C 490.3125 608 489.9375 600.5 489.9375 584.125 C 489.9375 551.125 490.4375 537.5 490.9375 521 L 490.0625 520.25 L 469.4375 523.5 L 468.8125 524.25 C 469.5625 536 469.6875 539.125 469.5625 553.375 C 460.1875 553.125 448.4375 552.875 438.9375 560.375 C 430.1875 567.125 426.5625 577.5 426.5625 590.375 C 426.5625 600.125 429.1875 609.875 436.5625 616 C 442.0625 620.5 448.8125 621.5 452.9375 621.5 C 461.8125 621.5 466.4375 617.375 469.4375 614.75 L 469.1875 619.625 L 469.8125 620.375 C 478.4375 620 480.8125 620 490.1875 620 L 490.8125 619.25 M 469.5625 568.375 C 469.6875 585 469.5625 588.25 469.1875 603.375 C 466.6875 604.875 464.1875 606.375 460.6875 606.375 C 448.5625 606.375 448.5625 590.875 448.5625 588.375 C 448.5625 578.75 451.3125 568 465.3125 568 C 466.6875 568 467.8125 568.125 469.5625 568.375 Z M 527.6875 619.125 C 527.0625 609.5 526.5625 602.125 526.5625 584.875 C 526.5625 574.25 526.8125 563.5 526.9375 552.875 L 526.0625 551.875 L 504.5625 555.625 L 503.8125 556.375 C 504.8125 565.875 505.1875 570.25 505.1875 588 C 505.1875 601.625 504.8125 609.25 504.4375 619.5 L 505.1875 620.375 C 514.1875 620 516.6875 619.875 526.8125 620 L 527.6875 619.125 M 525.6875 539.875 L 526.0625 522.875 L 525.3125 522.125 L 504.9375 524.625 L 504.1875 525.5 C 504.4375 530 504.5625 532.625 504.5625 535.625 C 504.5625 538 504.5625 540.5 504.4375 542.875 L 505.3125 543.625 C 513.8125 542.125 516.1875 541.875 525.0625 540.75 Z M 597.1875 582.75 C 597.3125 571.5 597.3125 566.625 594.0625 561.375 C 591.5625 557.375 586.5625 552.375 570.5625 552.375 C 559.8125 552.375 553.1875 554.375 546.0625 556.5 L 545.3125 557.5 L 544.6875 571.125 L 545.6875 571.625 C 550.0625 569.875 558.1875 566.625 566.5625 566.625 C 571.1875 566.625 573.0625 567.375 574.6875 569 C 575.9375 570.25 576.3125 572.5 576.3125 574.375 C 561.3125 576.375 554.3125 577.75 546.8125 582.375 C 539.8125 586.75 537.4375 593.875 537.4375 599.5 C 537.4375 612.875 547.0625 621.5 559.3125 621.5 C 568.6875 621.5 574.0625 617 576.6875 614.875 L 576.6875 619.5 L 577.4375 620.375 C 586.4375 620 589.1875 619.875 597.3125 620 L 597.9375 619.125 C 597.0625 606.875 597.0625 603.75 597.0625 592 L 597.1875 582.75 M 576.5625 602.625 C 573.9375 604.125 570.5625 605.875 566.4375 605.875 C 561.9375 605.875 558.1875 603.5 558.1875 598.25 C 558.1875 590 568.0625 588.625 576.5625 587.5 Z M 673.0625 619.125 C 672.4375 608.125 672.4375 604.625 672.1875 592.375 L 672.1875 582.625 C 672.0625 570.625 671.9375 564.875 668.8125 559.75 C 664.9375 553.25 657.8125 552.25 653.3125 552.25 C 645.6875 552.25 639.0625 556.25 633.3125 559.625 L 633.5625 552.75 L 632.3125 551.875 C 622.6875 553.875 620.5625 554.25 611.1875 555.5 L 610.4375 556.375 C 611.4375 567.25 612.1875 575.125 612.1875 595.5 C 612.1875 603.5 612.0625 611.5 611.9375 619.5 L 612.6875 620.25 C 621.6875 619.875 623.5625 619.875 633.5625 619.875 L 634.3125 619.125 C 633.5625 599.875 633.4375 595 633.3125 572.625 C 635.9375 570.875 638.9375 568.75 642.9375 568.75 C 649.8125 568.75 650.4375 576.125 650.8125 580.625 C 651.0625 584.75 651.1875 601.875 651.1875 606.625 C 651.1875 610.875 651.0625 615.25 651.0625 619.5 L 651.8125 620.25 C 660.0625 620 662.1875 619.875 672.1875 619.875 Z M 679.8125 620 "/>
<path fill-rule="nonzero" fill="rgb(34.901961%, 14.901961%, 14.901961%)" fill-opacity="1" d="M 325.875 681.375 C 315.875 681.75 314.25 681.75 303.75 681.75 L 303.125 682.5 C 304 696.625 304 700.25 304.125 715 C 298.625 715.125 293.125 715.25 287.5 715.25 C 283.125 715.25 278.625 715.125 274.25 715.125 L 274.5 682.125 L 273.875 681.375 C 264.25 681.75 262.375 681.75 251.5 681.75 L 250.75 682.5 C 251.375 695.375 252.125 710.75 252.125 741.75 C 252.125 753 251.875 759.125 251.625 769.625 L 252.25 770.375 C 261.375 770 263.625 769.875 274.625 770 L 275.25 769.25 C 274.5 753.75 274.375 749.25 274.25 731.125 C 279.75 730.875 284.375 730.75 289.25 730.75 C 294.25 730.75 299.25 730.875 304.25 731 C 304.5 747.875 304.5 752 303.875 769.625 L 304.5 770.375 C 313.875 770 316.375 769.875 327 770 L 327.625 769.25 C 326.625 748.25 326.25 727.375 326.25 706.375 C 326.25 697.625 326.375 691.75 326.5 682.125 Z M 397.625 751.5 C 392.875 754 387.25 756.875 378.125 756.875 C 370.625 756.875 365.5 754.5 362.5 750 C 360.625 747.375 360.25 744.875 359.75 742.375 L 400.125 741.625 L 400.875 740.75 C 400.75 734.625 400.625 728.375 398.875 722.125 C 394.5 707.375 384.875 704.375 380.625 703.375 C 377.5 702.5 374.625 702.25 371.75 702.25 C 352.125 702.25 339.125 715.125 339.125 736.75 C 339.125 742.625 340.125 748.75 342.125 753.125 C 349.375 770 366.375 771.5 375.375 771.5 C 385.75 771.5 390.25 769.625 396.875 767 L 397.625 766 L 398.5 751.875 L 397.625 751.5 M 359.75 729.125 C 360.125 725.25 361 720 365.75 717 C 367.25 716 369 715.625 370.75 715.625 C 374.875 715.625 377.375 717.75 378.75 720 C 380.5 722.75 380.625 725.75 380.625 728.625 Z M 448.5 723.625 L 452 703.25 L 451.25 702.375 C 450.375 702.375 449.5 702.25 448.625 702.25 C 443.5 702.25 437.75 705.125 433.75 714.375 L 434.125 702.875 L 433.125 701.875 C 423.875 703.875 421.5 704.25 412.375 705.625 L 411.625 706.375 C 412.375 715.75 412.75 721.375 412.75 738.75 C 412.75 749 412.625 759.25 412.375 769.625 L 413.125 770.375 C 422.375 770 424.375 769.875 434.375 770 L 435 769.125 C 434.5 759 433.75 744.875 433.75 736.25 C 433.75 730.625 433.75 722.375 442.25 722.375 C 444.375 722.375 445.625 723.125 447.375 724.125 Z M 481.875 769.125 C 481.25 759.5 480.75 752.125 480.75 734.875 C 480.75 724.25 481 713.5 481.125 702.875 L 480.25 701.875 L 458.75 705.625 L 458 706.375 C 459 715.875 459.375 720.25 459.375 738 C 459.375 751.625 459 759.25 458.625 769.5 L 459.375 770.375 C 468.375 770 470.875 769.875 481 770 L 481.875 769.125 M 479.875 689.875 L 480.25 672.875 L 479.5 672.125 L 459.125 674.625 L 458.375 675.5 C 458.625 680 458.75 682.625 458.75 685.625 C 458.75 688 458.75 690.5 458.625 692.875 L 459.5 693.625 C 468 692.125 470.375 691.875 479.25 690.75 Z M 530.75 755.625 C 528.625 756.25 527.125 756.75 525 756.75 C 518.625 756.75 518.125 752.75 517.875 750.875 C 517.5 747.625 517.5 740.75 517.625 735.75 L 517.875 718.125 L 529.125 718.625 L 529.875 717.875 L 531.125 704.5 L 530.375 703.75 L 517.875 703.75 L 518.25 682.75 L 517.375 682 C 508.875 684.5 506.625 685.125 497.75 687.375 L 497.25 688.25 L 497.375 703.875 L 490.625 703.625 L 489.875 704.25 L 488.75 717.625 L 489.5 718.375 L 497.375 718.125 L 497 738 C 496.875 741.125 496.75 744.25 496.75 747.5 C 496.75 759 497 771.375 516.5 771.375 C 521.375 771.375 525.25 770.625 529.625 769.875 L 530.5 769 L 531.75 756.125 Z M 595.625 732.75 C 595.75 721.5 595.75 716.625 592.5 711.375 C 590 707.375 585 702.375 569 702.375 C 558.25 702.375 551.625 704.375 544.5 706.5 L 543.75 707.5 L 543.125 721.125 L 544.125 721.625 C 548.5 719.875 556.625 716.625 565 716.625 C 569.625 716.625 571.5 717.375 573.125 719 C 574.375 720.25 574.75 722.5 574.75 724.375 C 559.75 726.375 552.75 727.75 545.25 732.375 C 538.25 736.75 535.875 743.875 535.875 749.5 C 535.875 762.875 545.5 771.5 557.75 771.5 C 567.125 771.5 572.5 767 575.125 764.875 L 575.125 769.5 L 575.875 770.375 C 584.875 770 587.625 769.875 595.75 770 L 596.375 769.125 C 595.5 756.875 595.5 753.75 595.5 742 L 595.625 732.75 M 575 752.625 C 572.375 754.125 569 755.875 564.875 755.875 C 560.375 755.875 556.625 753.5 556.625 748.25 C 556.625 740 566.5 738.625 575 737.5 Z M 633.25 748.875 C 637.25 749 641.25 749.25 647.25 747.25 C 653.75 745 663.25 739.625 663.25 727.5 C 663.25 721.5 661.5 719 659.875 716.625 L 668.5 717.125 L 669.25 716.5 L 670.125 704 L 669.375 703.375 C 659.75 703.75 657.125 703.875 649.25 703.75 L 643.5 703.625 C 634.625 703.375 622.75 703.125 614.625 709.875 C 611.875 712 606.625 717.375 606.625 726.75 C 606.625 731.75 608 735.75 610.25 738.875 C 613 742.75 615.5 744.125 618.625 745.875 C 615.125 752.625 613.25 756 610.375 761.125 L 610.375 762.25 L 615.625 766 C 611.875 768.875 606 773.625 606 781.75 C 606 787.5 609.125 792.5 613.75 795.875 C 620.75 800.875 630.25 801.125 635.125 801.125 C 658 801.125 668.5 789.625 668.5 777.5 C 668.5 761.75 654.75 758.75 646.625 756.875 L 643.625 756.375 C 637.5 755.375 636.125 755 631.25 753.25 L 633.25 748.875 M 643.5 726.375 C 643.375 736.5 637.25 737.375 635.5 737.375 C 634.5 737.375 630.125 737.125 628 732.125 C 626.875 729.5 626.875 726.5 626.875 725.625 C 626.875 719.375 630.625 715.375 635.25 715.375 C 641 715.375 643.625 720.875 643.5 726.375 M 632.875 773 C 644 775.875 644.125 775.875 645.625 777.125 C 646.875 778 648.125 779.375 648.125 782 C 648.125 785.75 645 789.625 636.75 789.625 C 627.5 789.625 624.375 784.375 624.375 780 C 624.375 775.875 626.5 773.5 628 771.75 Z M 733.5 751.5 C 728.75 754 723.125 756.875 714 756.875 C 706.5 756.875 701.375 754.5 698.375 750 C 696.5 747.375 696.125 744.875 695.625 742.375 L 736 741.625 L 736.75 740.75 C 736.625 734.625 736.5 728.375 734.75 722.125 C 730.375 707.375 720.75 704.375 716.5 703.375 C 713.375 702.5 710.5 702.25 707.625 702.25 C 688 702.25 675 715.125 675 736.75 C 675 742.625 676 748.75 678 753.125 C 685.25 770 702.25 771.5 711.25 771.5 C 721.625 771.5 726.125 769.625 732.75 767 L 733.5 766 L 734.375 751.875 L 733.5 751.5 M 695.625 729.125 C 696 725.25 696.875 720 701.625 717 C 703.125 716 704.875 715.625 706.625 715.625 C 710.75 715.625 713.25 717.75 714.625 720 C 716.375 722.75 716.5 725.75 716.5 728.625 Z M 740.75 770 "/>
<path fill-rule="nonzero" fill="rgb(34.901961%, 14.901961%, 14.901961%)" fill-opacity="1" d="M 370.0625 897.625 C 367.1875 899.875 360.8125 904.625 350.4375 904.625 C 336.1875 904.625 326.1875 894 326.1875 876.25 C 326.1875 865.5 329.9375 846.625 350.3125 846.625 C 359.6875 846.625 364.8125 850.25 367.9375 852.625 L 369.0625 852.375 L 370.1875 835.125 L 369.6875 834.5 C 365.1875 832.75 357.5625 829.875 346.5625 829.875 C 314.1875 829.875 302.9375 854.875 302.9375 876.75 C 302.9375 900.75 317.5625 921.875 348.0625 921.875 C 358.5625 921.875 365.4375 919.125 369.4375 917.5 L 370.0625 916.75 L 370.9375 898.125 Z M 436.1875 901.5 C 431.4375 904 425.8125 906.875 416.6875 906.875 C 409.1875 906.875 404.0625 904.5 401.0625 900 C 399.1875 897.375 398.8125 894.875 398.3125 892.375 L 438.6875 891.625 L 439.4375 890.75 C 439.3125 884.625 439.1875 878.375 437.4375 872.125 C 433.0625 857.375 423.4375 854.375 419.1875 853.375 C 416.0625 852.5 413.1875 852.25 410.3125 852.25 C 390.6875 852.25 377.6875 865.125 377.6875 886.75 C 377.6875 892.625 378.6875 898.75 380.6875 903.125 C 387.9375 920 404.9375 921.5 413.9375 921.5 C 424.3125 921.5 428.8125 919.625 435.4375 917 L 436.1875 916 L 437.0625 901.875 L 436.1875 901.5 M 398.3125 879.125 C 398.6875 875.25 399.5625 870 404.3125 867 C 405.8125 866 407.5625 865.625 409.3125 865.625 C 413.4375 865.625 415.9375 867.75 417.3125 870 C 419.0625 872.75 419.1875 875.75 419.1875 878.625 Z M 512.1875 919.125 C 511.5625 908.125 511.5625 904.625 511.3125 892.375 L 511.3125 882.625 C 511.1875 870.625 511.0625 864.875 507.9375 859.75 C 504.0625 853.25 496.9375 852.25 492.4375 852.25 C 484.8125 852.25 478.1875 856.25 472.4375 859.625 L 472.6875 852.75 L 471.4375 851.875 C 461.8125 853.875 459.6875 854.25 450.3125 855.5 L 449.5625 856.375 C 450.5625 867.25 451.3125 875.125 451.3125 895.5 C 451.3125 903.5 451.1875 911.5 451.0625 919.5 L 451.8125 920.25 C 460.8125 919.875 462.6875 919.875 472.6875 919.875 L 473.4375 919.125 C 472.6875 899.875 472.5625 895 472.4375 872.625 C 475.0625 870.875 478.0625 868.75 482.0625 868.75 C 488.9375 868.75 489.5625 876.125 489.9375 880.625 C 490.1875 884.75 490.3125 901.875 490.3125 906.625 C 490.3125 910.875 490.1875 915.25 490.1875 919.5 L 490.9375 920.25 C 499.1875 920 501.3125 919.875 511.3125 919.875 Z M 561.4375 905.625 C 559.3125 906.25 557.8125 906.75 555.6875 906.75 C 549.3125 906.75 548.8125 902.75 548.5625 900.875 C 548.1875 897.625 548.1875 890.75 548.3125 885.75 L 548.5625 868.125 L 559.8125 868.625 L 560.5625 867.875 L 561.8125 854.5 L 561.0625 853.75 L 548.5625 853.75 L 548.9375 832.75 L 548.0625 832 C 539.5625 834.5 537.3125 835.125 528.4375 837.375 L 527.9375 838.25 L 528.0625 853.875 L 521.3125 853.625 L 520.5625 854.25 L 519.4375 867.625 L 520.1875 868.375 L 528.0625 868.125 L 527.6875 888 C 527.5625 891.125 527.4375 894.25 527.4375 897.5 C 527.4375 909 527.6875 921.375 547.1875 921.375 C 552.0625 921.375 555.9375 920.625 560.3125 919.875 L 561.1875 919 L 562.4375 906.125 Z M 626.1875 901.5 C 621.4375 904 615.8125 906.875 606.6875 906.875 C 599.1875 906.875 594.0625 904.5 591.0625 900 C 589.1875 897.375 588.8125 894.875 588.3125 892.375 L 628.6875 891.625 L 629.4375 890.75 C 629.3125 884.625 629.1875 878.375 627.4375 872.125 C 623.0625 857.375 613.4375 854.375 609.1875 853.375 C 606.0625 852.5 603.1875 852.25 600.3125 852.25 C 580.6875 852.25 567.6875 865.125 567.6875 886.75 C 567.6875 892.625 568.6875 898.75 570.6875 903.125 C 577.9375 920 594.9375 921.5 603.9375 921.5 C 614.3125 921.5 618.8125 919.625 625.4375 917 L 626.1875 916 L 627.0625 901.875 L 626.1875 901.5 M 588.3125 879.125 C 588.6875 875.25 589.5625 870 594.3125 867 C 595.8125 866 597.5625 865.625 599.3125 865.625 C 603.4375 865.625 605.9375 867.75 607.3125 870 C 609.0625 872.75 609.1875 875.75 609.1875 878.625 Z M 677.0625 873.625 L 680.5625 853.25 L 679.8125 852.375 C 678.9375 852.375 678.0625 852.25 677.1875 852.25 C 672.0625 852.25 666.3125 855.125 662.3125 864.375 L 662.6875 852.875 L 661.6875 851.875 C 652.4375 853.875 650.0625 854.25 640.9375 855.625 L 640.1875 856.375 C 640.9375 865.75 641.3125 871.375 641.3125 888.75 C 641.3125 899 641.1875 909.25 640.9375 919.625 L 641.6875 920.375 C 650.9375 920 652.9375 919.875 662.9375 920 L 663.5625 919.125 C 663.0625 909 662.3125 894.875 662.3125 886.25 C 662.3125 880.625 662.3125 872.375 670.8125 872.375 C 672.9375 872.375 674.1875 873.125 675.9375 874.125 Z M 680.3125 920 "/>
</svg>
