<?xml version="1.0" encoding="UTF-8"?>
<svg xmlns="http://www.w3.org/2000/svg" xmlns:xlink="http://www.w3.org/1999/xlink" width="975" height="1300" viewBox="0 0 975 1300">
<path fill-rule="nonzero" fill="rgb(34.901961%, 14.901961%, 14.901961%)" fill-opacity="1" d="M 255.1875 453.125 C 240.4375 453.875 236.9375 454 220.9375 454 L 220.6875 432.125 L 249.9375 432.125 L 250.8125 431.375 L 251.5625 417.25 L 250.9375 416.5 L 220.6875 417 L 220.6875 397.125 C 234.8125 397.125 237.6875 397.125 252.8125 397.5 L 253.4375 396.75 L 254.3125 382.25 L 253.6875 381.75 L 198.8125 381.75 L 198.0625 382.5 C 198.8125 394.625 199.0625 399.25 199.0625 432.75 C 199.0625 448.5 198.8125 456.375 198.4375 469.5 L 199.0625 470 L 254.0625 470 L 255.0625 469.25 L 255.9375 454 Z M 365.6875 469.125 C 365.0625 457.5 364.9375 454.25 364.9375 440.125 L 364.9375 430.75 C 365.0625 422.375 365.1875 414.625 361.5625 409.375 C 356.6875 402.25 348.0625 402.25 346.0625 402.25 C 335.8125 402.25 328.9375 406.875 323.9375 410.375 C 322.1875 407.5 319.0625 402.25 309.0625 402.25 C 300.8125 402.25 295.4375 406 289.6875 410 L 289.6875 403 L 288.5625 401.875 C 278.8125 403.75 276.0625 404.25 267.3125 405.5 L 266.5625 406.375 C 267.5625 416.375 268.3125 423.25 268.3125 448 C 268.3125 455.125 268.1875 462.375 268.1875 469.5 L 268.8125 470.25 C 276.8125 470 279.5625 469.875 289.9375 469.875 L 290.6875 469.125 C 289.8125 449.875 289.6875 444.125 289.5625 422.375 C 292.1875 420.5 295.0625 418.875 298.1875 418.875 C 305.9375 418.875 306.1875 427.75 306.1875 438.5 C 306.1875 456.625 306.0625 459.375 305.8125 469.5 L 306.5625 470.375 C 316.0625 469.875 318.6875 469.875 327.3125 469.875 L 328.0625 469.125 C 327.3125 457.25 327.1875 453.75 327.0625 438.625 L 327.0625 434 L 326.9375 421.375 C 329.0625 420 331.8125 418.25 335.5625 418.25 C 342.6875 418.25 343.8125 425 343.8125 435.75 C 343.8125 438.125 343.6875 440.5 343.6875 442.875 C 343.5625 447.125 343.4375 465.75 343.3125 469.5 L 344.0625 470.25 C 353.4375 469.875 356.1875 469.875 364.9375 469.875 Z M 435.5625 451.5 C 430.8125 454 425.1875 456.875 416.0625 456.875 C 408.5625 456.875 403.4375 454.5 400.4375 450 C 398.5625 447.375 398.1875 444.875 397.6875 442.375 L 438.0625 441.625 L 438.8125 440.75 C 438.6875 434.625 438.5625 428.375 436.8125 422.125 C 432.4375 407.375 422.8125 404.375 418.5625 403.375 C 415.4375 402.5 412.5625 402.25 409.6875 402.25 C 390.0625 402.25 377.0625 415.125 377.0625 436.75 C 377.0625 442.625 378.0625 448.75 380.0625 453.125 C 387.3125 470 404.3125 471.5 413.3125 471.5 C 423.6875 471.5 428.1875 469.625 434.8125 467 L 435.5625 466 L 436.4375 451.875 L 435.5625 451.5 M 397.6875 429.125 C 398.0625 425.25 398.9375 420 403.6875 417 C 405.1875 416 406.9375 415.625 408.6875 415.625 C 412.8125 415.625 415.3125 417.75 416.6875 420 C 418.4375 422.75 418.5625 425.75 418.5625 428.625 Z M 486.4375 423.625 L 489.9375 403.25 L 489.1875 402.375 C 488.3125 402.375 487.4375 402.25 486.5625 402.25 C 481.4375 402.25 475.6875 405.125 471.6875 414.375 L 472.0625 402.875 L 471.0625 401.875 C 461.8125 403.875 459.4375 404.25 450.3125 405.625 L 449.5625 406.375 C 450.3125 415.75 450.6875 421.375 450.6875 438.75 C 450.6875 449 450.5625 459.25 450.3125 469.625 L 451.0625 470.375 C 460.3125 470 462.3125 469.875 472.3125 470 L 472.9375 469.125 C 472.4375 459 471.6875 444.875 471.6875 436.25 C 471.6875 430.625 471.6875 422.375 480.1875 422.375 C 482.3125 422.375 483.5625 423.125 485.3125 424.125 Z M 553.0625 403.375 L 535.6875 403.75 L 534.6875 404.625 C 532.5625 413.25 532.0625 415.125 529.0625 424.875 L 525.8125 435.625 L 523.0625 445 L 520.6875 436.125 L 517.0625 422.875 L 512.0625 403.875 L 511.0625 403.125 C 501.3125 403.875 499.1875 404 488.9375 404.25 L 488.3125 405.125 C 492.8125 417 504.4375 448.375 512.1875 472.375 C 507.0625 485.375 506.0625 487.625 500.4375 500 L 501.0625 501 C 504.1875 500.875 507.6875 500.75 510.9375 500.75 C 514.0625 500.75 517.3125 500.875 520.4375 500.875 L 521.3125 500.125 C 528.1875 473.125 531.5625 462.625 548.0625 419.125 C 549.9375 414.125 551.8125 409.25 553.5625 404.375 Z M 594.1875 469 C 598.1875 456.5 600.5625 448.75 603.1875 440.875 C 606.5625 430.75 612.0625 414.5 615.5625 404.25 L 614.9375 403.375 L 597.4375 403.75 L 596.5625 404.625 C 594.8125 413 594.4375 414.75 591.9375 424.5 L 585.5625 449.125 L 582.4375 435.625 L 580.0625 426 C 576.9375 414.375 576.4375 412 574.6875 403.75 L 573.8125 403 C 563.9375 404.125 561.4375 404.25 551.9375 404.375 L 551.4375 405.375 C 568.0625 454.625 569.4375 459.25 572.1875 469.5 L 573.0625 470.375 C 581.1875 470 584.4375 469.875 593.4375 470 Z M 644.8125 469.125 C 644.1875 459.5 643.6875 452.125 643.6875 434.875 C 643.6875 424.25 643.9375 413.5 644.0625 402.875 L 643.1875 401.875 L 621.6875 405.625 L 620.9375 406.375 C 621.9375 415.875 622.3125 420.25 622.3125 438 C 622.3125 451.625 621.9375 459.25 621.5625 469.5 L 622.3125 470.375 C 631.3125 470 633.8125 469.875 643.9375 470 L 644.8125 469.125 M 642.8125 389.875 L 643.1875 372.875 L 642.4375 372.125 L 622.0625 374.625 L 621.3125 375.5 C 621.5625 380 621.6875 382.625 621.6875 385.625 C 621.6875 388 621.6875 390.5 621.5625 392.875 L 622.4375 393.625 C 630.9375 392.125 633.3125 391.875 642.1875 390.75 Z M 680.6875 469.125 C 680.0625 454.75 679.4375 441.625 679.4375 402.125 C 679.4375 390.25 679.5625 384.625 680.0625 371.125 L 679.1875 370.25 L 657.8125 373.625 L 657.3125 374.375 C 658.5625 389.625 658.6875 393.75 658.9375 414 C 659.0625 421.375 659.0625 428.75 659.0625 436.125 C 659.0625 449.625 658.8125 457.125 658.3125 469.5 L 659.0625 470.375 C 667.4375 470 670.8125 469.875 679.9375 470 Z M 717.1875 469.125 C 716.5625 454.75 715.9375 441.625 715.9375 402.125 C 715.9375 390.25 716.0625 384.625 716.5625 371.125 L 715.6875 370.25 L 694.3125 373.625 L 693.8125 374.375 C 695.0625 389.625 695.1875 393.75 695.4375 414 C 695.5625 421.375 695.5625 428.75 695.5625 436.125 C 695.5625 449.625 695.3125 457.125 694.8125 469.5 L 695.5625 470.375 C 703.9375 470 707.3125 469.875 716.4375 470 Z M 787.1875 451.5 C 782.4375 454 776.8125 456.875 767.6875 456.875 C 760.1875 456.875 755.0625 454.5 752.0625 450 C 750.1875 447.375 749.8125 444.875 749.3125 442.375 L 789.6875 441.625 L 790.4375 440.75 C 790.3125 434.625 790.1875 428.375 788.4375 422.125 C 784.0625 407.375 774.4375 404.375 770.1875 403.375 C 767.0625 402.5 764.1875 402.25 761.3125 402.25 C 741.6875 402.25 728.6875 415.125 728.6875 436.75 C 728.6875 442.625 729.6875 448.75 731.6875 453.125 C 738.9375 470 755.9375 471.5 764.9375 471.5 C 775.3125 471.5 779.8125 469.625 786.4375 467 L 787.1875 466 L 788.0625 451.875 L 787.1875 451.5 M 749.3125 429.125 C 749.6875 425.25 750.5625 420 755.3125 417 C 756.8125 416 758.5625 415.625 760.3125 415.625 C 764.4375 415.625 766.9375 417.75 768.3125 420 C 770.0625 422.75 770.1875 425.75 770.1875 428.625 Z M 794.4375 470 "/>
<path fill-rule="nonzero" fill="rgb(34.901961%, 14.901961%, 14.901961%)" fill-opacity="1" d="M 144.4375 597.625 C 141.5625 599.875 135.1875 604.625 124.8125 604.625 C 110.5625 604.625 100.5625 594 100.5625 576.25 C 100.5625 565.5 104.3125 546.625 124.6875 546.625 C 134.0625 546.625 139.1875 550.25 142.3125 552.625 L 143.4375 552.375 L 144.5625 535.125 L 144.0625 534.5 C 139.5625 532.75 131.9375 529.875 120.9375 529.875 C 88.5625 529.875 77.3125 554.875 77.3125 576.75 C 77.3125 600.75 91.9375 621.875 122.4375 621.875 C 132.9375 621.875 139.8125 619.125 143.8125 617.5 L 144.4375 616.75 L 145.3125 598.125 Z M 191.1875 573.625 L 194.6875 553.25 L 193.9375 552.375 C 193.0625 552.375 192.1875 552.25 191.3125 552.25 C 186.1875 552.25 180.4375 555.125 176.4375 564.375 L 176.8125 552.875 L 175.8125 551.875 C 166.5625 553.875 164.1875 554.25 155.0625 555.625 L 154.3125 556.375 C 155.0625 565.75 155.4375 571.375 155.4375 588.75 C 155.4375 599 155.3125 609.25 155.0625 619.625 L 155.8125 620.375 C 165.0625 620 167.0625 619.875 177.0625 620 L 177.6875 619.125 C 177.1875 609 176.4375 594.875 176.4375 586.25 C 176.4375 580.625 176.4375 572.375 184.9375 572.375 C 187.0625 572.375 188.3125 573.125 190.0625 574.125 Z M 257.4375 601.5 C 252.6875 604 247.0625 606.875 237.9375 606.875 C 230.4375 606.875 225.3125 604.5 222.3125 600 C 220.4375 597.375 220.0625 594.875 219.5625 592.375 L 259.9375 591.625 L 260.6875 590.75 C 260.5625 584.625 260.4375 578.375 258.6875 572.125 C 254.3125 557.375 244.6875 554.375 240.4375 553.375 C 237.3125 552.5 234.4375 552.25 231.5625 552.25 C 211.9375 552.25 198.9375 565.125 198.9375 586.75 C 198.9375 592.625 199.9375 598.75 201.9375 603.125 C 209.1875 620 226.1875 621.5 235.1875 621.5 C 245.5625 621.5 250.0625 619.625 256.6875 617 L 257.4375 616 L 258.3125 601.875 L 257.4375 601.5 M 219.5625 579.125 C 219.9375 575.25 220.8125 570 225.5625 567 C 227.0625 566 228.8125 565.625 230.5625 565.625 C 234.6875 565.625 237.1875 567.75 238.5625 570 C 240.3125 572.75 240.4375 575.75 240.4375 578.625 Z M 298.4375 576.875 C 294.1875 575.375 290.8125 574 290.8125 570.5 C 290.8125 569 291.8125 564.875 299.5625 564.875 C 307.1875 564.875 312.0625 568.125 315.1875 570.125 L 316.3125 569.75 L 317.5625 556.125 L 316.9375 555.375 C 311.0625 553.75 305.9375 552.25 297.8125 552.25 C 291.6875 552.25 279.4375 552.75 272.9375 562.125 C 271.3125 564.375 269.5625 568.125 269.5625 573.125 C 269.5625 586.5 279.9375 590.5 285.8125 592.75 L 290.5625 594.5 C 293.9375 595.625 299.4375 597.5 299.4375 602 C 299.4375 605.125 296.5625 608.5 289.5625 608.5 C 286.0625 608.5 280.9375 607.375 276.3125 605 C 274.1875 603.875 273.1875 603 271.3125 601.5 L 270.1875 602 C 269.9375 608.5 269.8125 609.875 269.3125 616.125 L 269.9375 617.25 C 276.0625 619.5 281.3125 621.5 290.4375 621.5 C 299.9375 621.5 318.6875 619.75 320.9375 601.875 C 321.0625 600.875 321.0625 600 321.0625 599.125 C 321.0625 585.375 311.4375 581.75 304.5625 579.125 Z M 380.9375 602 C 377.5625 604 374.3125 606 367.9375 606 C 353.8125 606 350.9375 594.25 350.9375 586.75 C 350.9375 577.625 354.9375 567.125 367.0625 567.125 C 372.5625 567.125 375.5625 569.125 379.3125 571.625 L 380.5625 571.25 C 381.0625 564.625 381.1875 562.875 382.1875 556.25 L 381.5625 555.5 C 376.0625 553.75 371.3125 552.25 364.0625 552.25 C 334.6875 552.25 328.9375 574.5 328.9375 587.25 C 328.9375 601.625 336.4375 621.125 364.5625 621.125 C 371.1875 621.125 375.4375 619.875 380.6875 618.375 L 381.4375 617.625 L 381.9375 602.625 Z M 447.4375 601.5 C 442.6875 604 437.0625 606.875 427.9375 606.875 C 420.4375 606.875 415.3125 604.5 412.3125 600 C 410.4375 597.375 410.0625 594.875 409.5625 592.375 L 449.9375 591.625 L 450.6875 590.75 C 450.5625 584.625 450.4375 578.375 448.6875 572.125 C 444.3125 557.375 434.6875 554.375 430.4375 553.375 C 427.3125 552.5 424.4375 552.25 421.5625 552.25 C 401.9375 552.25 388.9375 565.125 388.9375 586.75 C 388.9375 592.625 389.9375 598.75 391.9375 603.125 C 399.1875 620 416.1875 621.5 425.1875 621.5 C 435.5625 621.5 440.0625 619.625 446.6875 617 L 447.4375 616 L 448.3125 601.875 L 447.4375 601.5 M 409.5625 579.125 C 409.9375 575.25 410.8125 570 415.5625 567 C 417.0625 566 418.8125 565.625 420.5625 565.625 C 424.6875 565.625 427.1875 567.75 428.5625 570 C 430.3125 572.75 430.4375 575.75 430.4375 578.625 Z M 523.4375 619.125 C 522.8125 608.125 522.8125 604.625 522.5625 592.375 L 522.5625 582.625 C 522.4375 570.625 522.3125 564.875 519.1875 559.75 C 515.3125 553.25 508.1875 552.25 503.6875 552.25 C 496.0625 552.25 489.4375 556.25 483.6875 559.625 L 483.9375 552.75 L 482.6875 551.875 C 473.0625 553.875 470.9375 554.25 461.5625 555.5 L 460.8125 556.375 C 461.8125 567.25 462.5625 575.125 462.5625 595.5 C 462.5625 603.5 462.4375 611.5 462.3125 619.5 L 463.0625 620.25 C 472.0625 619.875 473.9375 619.875 483.9375 619.875 L 484.6875 619.125 C 483.9375 599.875 483.8125 595 483.6875 572.625 C 486.3125 570.875 489.3125 568.75 493.3125 568.75 C 500.1875 568.75 500.8125 576.125 501.1875 580.625 C 501.4375 584.75 501.5625 601.875 501.5625 606.625 C 501.5625 610.875 501.4375 615.25 501.4375 619.5 L 502.1875 620.25 C 510.4375 620 512.5625 619.875 522.5625 619.875 Z M 572.6875 605.625 C 570.5625 606.25 569.0625 606.75 566.9375 606.75 C 560.5625 606.75 560.0625 602.75 559.8125 600.875 C 559.4375 597.625 559.4375 590.75 559.5625 585.75 L 559.8125 568.125 L 571.0625 568.625 L 571.8125 567.875 L 573.0625 554.5 L 572.3125 553.75 L 559.8125 553.75 L 560.1875 532.75 L 559.3125 532 C 550.8125 534.5 548.5625 535.125 539.6875 537.375 L 539.1875 538.25 L 539.3125 553.875 L 532.5625 553.625 L 531.8125 554.25 L 530.6875 567.625 L 531.4375 568.375 L 539.3125 568.125 L 538.9375 588 C 538.8125 591.125 538.6875 594.25 538.6875 597.5 C 538.6875 609 538.9375 621.375 558.4375 621.375 C 563.3125 621.375 567.1875 620.625 571.5625 619.875 L 572.4375 619 L 573.6875 606.125 Z M 654.5625 566.25 C 644.0625 561.875 638.5625 559.625 638.5625 554 C 638.5625 550.125 642.1875 545.25 650.4375 545.25 C 659.9375 545.25 665.5625 549.125 670.1875 552.25 L 671.3125 551.75 L 672.3125 535.375 L 671.6875 534.5 C 666.3125 532.25 660.6875 529.875 648.5625 529.875 C 625.0625 529.875 616.9375 543.125 616.9375 556.5 C 616.9375 571.625 628.6875 577.125 635.6875 580.5 L 639.8125 582.375 C 648.4375 586 655.0625 589.125 655.0625 595.75 C 655.0625 600.5 650.9375 606.125 640.0625 606.125 C 628.6875 606.125 622.3125 601.125 618.6875 598.25 L 617.4375 598.625 L 616.5625 616.25 L 617.3125 617.25 C 618.6875 617.75 620.0625 618.375 621.4375 618.75 C 624.3125 619.75 631.6875 621.875 641.0625 621.875 C 644.8125 621.875 654.3125 621.5 661.8125 618 C 672.3125 612.875 676.8125 603.375 676.8125 592.75 C 676.8125 585.625 674.0625 578 667.4375 572.875 C 664.0625 570.375 660.8125 568.875 657.8125 567.5 Z M 723.6875 605.625 C 721.5625 606.25 720.0625 606.75 717.9375 606.75 C 711.5625 606.75 711.0625 602.75 710.8125 600.875 C 710.4375 597.625 710.4375 590.75 710.5625 585.75 L 710.8125 568.125 L 722.0625 568.625 L 722.8125 567.875 L 724.0625 554.5 L 723.3125 553.75 L 710.8125 553.75 L 711.1875 532.75 L 710.3125 532 C 701.8125 534.5 699.5625 535.125 690.6875 537.375 L 690.1875 538.25 L 690.3125 553.875 L 683.5625 553.625 L 682.8125 554.25 L 681.6875 567.625 L 682.4375 568.375 L 690.3125 568.125 L 689.9375 588 C 689.8125 591.125 689.6875 594.25 689.6875 597.5 C 689.6875 609 689.9375 621.375 709.4375 621.375 C 714.3125 621.375 718.1875 620.625 722.5625 619.875 L 723.4375 619 L 724.6875 606.125 Z M 788.5625 582.75 C 788.6875 571.5 788.6875 566.625 785.4375 561.375 C 782.9375 557.375 777.9375 552.375 761.9375 552.375 C 751.1875 552.375 744.5625 554.375 737.4375 556.5 L 736.6875 557.5 L 736.0625 571.125 L 737.0625 571.625 C 741.4375 569.875 749.5625 566.625 757.9375 566.625 C 762.5625 566.625 764.4375 567.375 766.0625 569 C 767.3125 570.25 767.6875 572.5 767.6875 574.375 C 752.6875 576.375 745.6875 577.75 738.1875 582.375 C 731.1875 586.75 728.8125 593.875 728.8125 599.5 C 728.8125 612.875 738.4375 621.5 750.6875 621.5 C 760.0625 621.5 765.4375 617 768.0625 614.875 L 768.0625 619.5 L 768.8125 620.375 C 777.8125 620 780.5625 619.875 788.6875 620 L 789.3125 619.125 C 788.4375 606.875 788.4375 603.75 788.4375 592 L 788.5625 582.75 M 767.9375 602.625 C 765.3125 604.125 761.9375 605.875 757.8125 605.875 C 753.3125 605.875 749.5625 603.5 749.5625 598.25 C 749.5625 590 759.4375 588.625 767.9375 587.5 Z M 838.1875 605.625 C 836.0625 606.25 834.5625 606.75 832.4375 606.75 C 826.0625 606.75 825.5625 602.75 825.3125 600.875 C 824.9375 597.625 824.9375 590.75 825.0625 585.75 L 825.3125 568.125 L 836.5625 568.625 L 837.3125 567.875 L 838.5625 554.5 L 837.8125 553.75 L 825.3125 553.75 L 825.6875 532.75 L 824.8125 532 C 816.3125 534.5 814.0625 535.125 805.1875 537.375 L 804.6875 538.25 L 804.8125 553.875 L 798.0625 553.625 L 797.3125 554.25 L 796.1875 567.625 L 796.9375 568.375 L 804.8125 568.125 L 804.4375 588 C 804.3125 591.125 804.1875 594.25 804.1875 597.5 C 804.1875 609 804.4375 621.375 823.9375 621.375 C 828.8125 621.375 832.6875 620.625 837.0625 619.875 L 837.9375 619 L 839.1875 606.125 Z M 902.9375 601.5 C 898.1875 604 892.5625 606.875 883.4375 606.875 C 875.9375 606.875 870.8125 604.5 867.8125 600 C 865.9375 597.375 865.5625 594.875 865.0625 592.375 L 905.4375 591.625 L 906.1875 590.75 C 906.0625 584.625 905.9375 578.375 904.1875 572.125 C 899.8125 557.375 890.1875 554.375 885.9375 553.375 C 882.8125 552.5 879.9375 552.25 877.0625 552.25 C 857.4375 552.25 844.4375 565.125 844.4375 586.75 C 844.4375 592.625 845.4375 598.75 847.4375 603.125 C 854.6875 620 871.6875 621.5 880.6875 621.5 C 891.0625 621.5 895.5625 619.625 902.1875 617 L 902.9375 616 L 903.8125 601.875 L 902.9375 601.5 M 865.0625 579.125 C 865.4375 575.25 866.3125 570 871.0625 567 C 872.5625 566 874.3125 565.625 876.0625 565.625 C 880.1875 565.625 882.6875 567.75 884.0625 570 C 885.8125 572.75 885.9375 575.75 885.9375 578.625 Z M 910.1875 620 "/>
<path fill-rule="nonzero" fill="rgb(34.901961%, 14.901961%, 14.901961%)" fill-opacity="1" d="M 388 681.375 C 375 681.75 372.875 681.75 359 681.75 L 358.25 682.5 L 352.5 702.75 L 347.5 720.875 L 341.625 742.625 L 336.125 720.25 L 332.625 706.125 L 326.375 682.125 L 325.75 681.375 C 312.375 681.75 310.125 681.75 296.125 681.75 L 295.375 682.5 C 294.125 719.875 293.625 729.5 290.875 769.625 L 291.5 770.375 C 299.5 770 301.875 769.875 309.125 770 L 309.875 769.25 L 310.25 745.375 L 311 721.125 L 311.5 697.5 L 317 719.625 L 321.75 737.375 L 330.125 769.625 L 330.875 770.375 C 338.625 770 340.75 769.875 349.5 770 L 350.25 769.25 L 357.5 742.625 L 362.5 724.375 L 369.5 698.125 L 369.5 720.5 L 369.75 739.625 L 369.75 769.625 L 370.375 770.375 C 379 770 382.375 769.875 392 770 L 392.625 769.25 C 391.875 755 391 740.625 390.5 726.25 C 390.125 718.375 389.875 710.5 389.5 702.625 C 388.875 691 388.75 689.5 388.75 682.125 Z M 462.375 732.75 C 462.5 721.5 462.5 716.625 459.25 711.375 C 456.75 707.375 451.75 702.375 435.75 702.375 C 425 702.375 418.375 704.375 411.25 706.5 L 410.5 707.5 L 409.875 721.125 L 410.875 721.625 C 415.25 719.875 423.375 716.625 431.75 716.625 C 436.375 716.625 438.25 717.375 439.875 719 C 441.125 720.25 441.5 722.5 441.5 724.375 C 426.5 726.375 419.5 727.75 412 732.375 C 405 736.75 402.625 743.875 402.625 749.5 C 402.625 762.875 412.25 771.5 424.5 771.5 C 433.875 771.5 439.25 767 441.875 764.875 L 441.875 769.5 L 442.625 770.375 C 451.625 770 454.375 769.875 462.5 770 L 463.125 769.125 C 462.25 756.875 462.25 753.75 462.25 742 L 462.375 732.75 M 441.75 752.625 C 439.125 754.125 435.75 755.875 431.625 755.875 C 427.125 755.875 423.375 753.5 423.375 748.25 C 423.375 740 433.25 738.625 441.75 737.5 Z M 513.125 723.625 L 516.625 703.25 L 515.875 702.375 C 515 702.375 514.125 702.25 513.25 702.25 C 508.125 702.25 502.375 705.125 498.375 714.375 L 498.75 702.875 L 497.75 701.875 C 488.5 703.875 486.125 704.25 477 705.625 L 476.25 706.375 C 477 715.75 477.375 721.375 477.375 738.75 C 477.375 749 477.25 759.25 477 769.625 L 477.75 770.375 C 487 770 489 769.875 499 770 L 499.625 769.125 C 499.125 759 498.375 744.875 498.375 736.25 C 498.375 730.625 498.375 722.375 506.875 722.375 C 509 722.375 510.25 723.125 512 724.125 Z M 546.5 769.125 C 545.875 759.5 545.375 752.125 545.375 734.875 C 545.375 724.25 545.625 713.5 545.75 702.875 L 544.875 701.875 L 523.375 705.625 L 522.625 706.375 C 523.625 715.875 524 720.25 524 738 C 524 751.625 523.625 759.25 523.25 769.5 L 524 770.375 C 533 770 535.5 769.875 545.625 770 L 546.5 769.125 M 544.5 689.875 L 544.875 672.875 L 544.125 672.125 L 523.75 674.625 L 523 675.5 C 523.25 680 523.375 682.625 523.375 685.625 C 523.375 688 523.375 690.5 523.25 692.875 L 524.125 693.625 C 532.625 692.125 535 691.875 543.875 690.75 Z M 621.625 769.125 C 621 758.125 621 754.625 620.75 742.375 L 620.75 732.625 C 620.625 720.625 620.5 714.875 617.375 709.75 C 613.5 703.25 606.375 702.25 601.875 702.25 C 594.25 702.25 587.625 706.25 581.875 709.625 L 582.125 702.75 L 580.875 701.875 C 571.25 703.875 569.125 704.25 559.75 705.5 L 559 706.375 C 560 717.25 560.75 725.125 560.75 745.5 C 560.75 753.5 560.625 761.5 560.5 769.5 L 561.25 770.25 C 570.25 769.875 572.125 769.875 582.125 769.875 L 582.875 769.125 C 582.125 749.875 582 745 581.875 722.625 C 584.5 720.875 587.5 718.75 591.5 718.75 C 598.375 718.75 599 726.125 599.375 730.625 C 599.625 734.75 599.75 751.875 599.75 756.625 C 599.75 760.875 599.625 765.25 599.625 769.5 L 600.375 770.25 C 608.625 770 610.75 769.875 620.75 769.875 Z M 691.375 751.5 C 686.625 754 681 756.875 671.875 756.875 C 664.375 756.875 659.25 754.5 656.25 750 C 654.375 747.375 654 744.875 653.5 742.375 L 693.875 741.625 L 694.625 740.75 C 694.5 734.625 694.375 728.375 692.625 722.125 C 688.25 707.375 678.625 704.375 674.375 703.375 C 671.25 702.5 668.375 702.25 665.5 702.25 C 645.875 702.25 632.875 715.125 632.875 736.75 C 632.875 742.625 633.875 748.75 635.875 753.125 C 643.125 770 660.125 771.5 669.125 771.5 C 679.5 771.5 684 769.625 690.625 767 L 691.375 766 L 692.25 751.875 L 691.375 751.5 M 653.5 729.125 C 653.875 725.25 654.75 720 659.5 717 C 661 716 662.75 715.625 664.5 715.625 C 668.625 715.625 671.125 717.75 672.5 720 C 674.25 722.75 674.375 725.75 674.375 728.625 Z M 698.625 770 "/>
<path fill-rule="nonzero" fill="rgb(34.901961%, 14.901961%, 14.901961%)" fill-opacity="1" d="M 298.9375 885.625 C 307.3125 899.875 309.1875 903.625 317.1875 920 L 318.1875 920.625 C 322.0625 920.375 325.8125 920.125 329.6875 920 C 333.5625 919.875 337.5625 919.75 341.4375 919.75 L 342.1875 918.25 C 337.4375 912.125 336.0625 910.25 327.0625 895.875 C 323.0625 889.5 321.0625 886.125 317.9375 880.625 C 323.5625 878.125 334.9375 872.875 334.9375 857 C 334.9375 851.5 333.4375 840.125 323.1875 834.75 C 316.6875 831.375 309.9375 831.25 295.3125 831.5 L 286.5625 831.625 L 271.3125 831.625 L 270.6875 832.375 C 271.1875 845 271.6875 858 271.6875 892 C 271.6875 903.625 271.5625 909.25 271.1875 919.625 L 271.9375 920.375 C 281.0625 920 283.0625 919.875 293.3125 920 L 294.0625 919.25 C 293.0625 904.75 292.9375 900.75 292.8125 885.875 L 298.9375 885.625 M 293.0625 846.75 C 294.8125 846.625 296.5625 846.625 298.3125 846.625 C 303.1875 846.625 312.8125 846.625 312.8125 857.625 C 312.8125 861.125 311.9375 865.75 307.3125 868.625 C 303.8125 870.75 299.3125 871 293.0625 871.125 Z M 404.3125 901.5 C 399.5625 904 393.9375 906.875 384.8125 906.875 C 377.3125 906.875 372.1875 904.5 369.1875 900 C 367.3125 897.375 366.9375 894.875 366.4375 892.375 L 406.8125 891.625 L 407.5625 890.75 C 407.4375 884.625 407.3125 878.375 405.5625 872.125 C 401.1875 857.375 391.5625 854.375 387.3125 853.375 C 384.1875 852.5 381.3125 852.25 378.4375 852.25 C 358.8125 852.25 345.8125 865.125 345.8125 886.75 C 345.8125 892.625 346.8125 898.75 348.8125 903.125 C 356.0625 920 373.0625 921.5 382.0625 921.5 C 392.4375 921.5 396.9375 919.625 403.5625 917 L 404.3125 916 L 405.1875 901.875 L 404.3125 901.5 M 366.4375 879.125 C 366.8125 875.25 367.6875 870 372.4375 867 C 373.9375 866 375.6875 865.625 377.4375 865.625 C 381.5625 865.625 384.0625 867.75 385.4375 870 C 387.1875 872.75 387.3125 875.75 387.3125 878.625 Z M 445.3125 876.875 C 441.0625 875.375 437.6875 874 437.6875 870.5 C 437.6875 869 438.6875 864.875 446.4375 864.875 C 454.0625 864.875 458.9375 868.125 462.0625 870.125 L 463.1875 869.75 L 464.4375 856.125 L 463.8125 855.375 C 457.9375 853.75 452.8125 852.25 444.6875 852.25 C 438.5625 852.25 426.3125 852.75 419.8125 862.125 C 418.1875 864.375 416.4375 868.125 416.4375 873.125 C 416.4375 886.5 426.8125 890.5 432.6875 892.75 L 437.4375 894.5 C 440.8125 895.625 446.3125 897.5 446.3125 902 C 446.3125 905.125 443.4375 908.5 436.4375 908.5 C 432.9375 908.5 427.8125 907.375 423.1875 905 C 421.0625 903.875 420.0625 903 418.1875 901.5 L 417.0625 902 C 416.8125 908.5 416.6875 909.875 416.1875 916.125 L 416.8125 917.25 C 422.9375 919.5 428.1875 921.5 437.3125 921.5 C 446.8125 921.5 465.5625 919.75 467.8125 901.875 C 467.9375 900.875 467.9375 900 467.9375 899.125 C 467.9375 885.375 458.3125 881.75 451.4375 879.125 Z M 534.4375 901.5 C 529.6875 904 524.0625 906.875 514.9375 906.875 C 507.4375 906.875 502.3125 904.5 499.3125 900 C 497.4375 897.375 497.0625 894.875 496.5625 892.375 L 536.9375 891.625 L 537.6875 890.75 C 537.5625 884.625 537.4375 878.375 535.6875 872.125 C 531.3125 857.375 521.6875 854.375 517.4375 853.375 C 514.3125 852.5 511.4375 852.25 508.5625 852.25 C 488.9375 852.25 475.9375 865.125 475.9375 886.75 C 475.9375 892.625 476.9375 898.75 478.9375 903.125 C 486.1875 920 503.1875 921.5 512.1875 921.5 C 522.5625 921.5 527.0625 919.625 533.6875 917 L 534.4375 916 L 535.3125 901.875 L 534.4375 901.5 M 496.5625 879.125 C 496.9375 875.25 497.8125 870 502.5625 867 C 504.0625 866 505.8125 865.625 507.5625 865.625 C 511.6875 865.625 514.1875 867.75 515.5625 870 C 517.3125 872.75 517.4375 875.75 517.4375 878.625 Z M 585.3125 873.625 L 588.8125 853.25 L 588.0625 852.375 C 587.1875 852.375 586.3125 852.25 585.4375 852.25 C 580.3125 852.25 574.5625 855.125 570.5625 864.375 L 570.9375 852.875 L 569.9375 851.875 C 560.6875 853.875 558.3125 854.25 549.1875 855.625 L 548.4375 856.375 C 549.1875 865.75 549.5625 871.375 549.5625 888.75 C 549.5625 899 549.4375 909.25 549.1875 919.625 L 549.9375 920.375 C 559.1875 920 561.1875 919.875 571.1875 920 L 571.8125 919.125 C 571.3125 909 570.5625 894.875 570.5625 886.25 C 570.5625 880.625 570.5625 872.375 579.0625 872.375 C 581.1875 872.375 582.4375 873.125 584.1875 874.125 Z M 630.5625 919 C 634.5625 906.5 636.9375 898.75 639.5625 890.875 C 642.9375 880.75 648.4375 864.5 651.9375 854.25 L 651.3125 853.375 L 633.8125 853.75 L 632.9375 854.625 C 631.1875 863 630.8125 864.75 628.3125 874.5 L 621.9375 899.125 L 618.8125 885.625 L 616.4375 876 C 613.3125 864.375 612.8125 862 611.0625 853.75 L 610.1875 853 C 600.3125 854.125 597.8125 854.25 588.3125 854.375 L 587.8125 855.375 C 604.4375 904.625 605.8125 909.25 608.5625 919.5 L 609.4375 920.375 C 617.5625 920 620.8125 919.875 629.8125 920 Z M 714.0625 901.5 C 709.3125 904 703.6875 906.875 694.5625 906.875 C 687.0625 906.875 681.9375 904.5 678.9375 900 C 677.0625 897.375 676.6875 894.875 676.1875 892.375 L 716.5625 891.625 L 717.3125 890.75 C 717.1875 884.625 717.0625 878.375 715.3125 872.125 C 710.9375 857.375 701.3125 854.375 697.0625 853.375 C 693.9375 852.5 691.0625 852.25 688.1875 852.25 C 668.5625 852.25 655.5625 865.125 655.5625 886.75 C 655.5625 892.625 656.5625 898.75 658.5625 903.125 C 665.8125 920 682.8125 921.5 691.8125 921.5 C 702.1875 921.5 706.6875 919.625 713.3125 917 L 714.0625 916 L 714.9375 901.875 L 714.0625 901.5 M 676.1875 879.125 C 676.5625 875.25 677.4375 870 682.1875 867 C 683.6875 866 685.4375 865.625 687.1875 865.625 C 691.3125 865.625 693.8125 867.75 695.1875 870 C 696.9375 872.75 697.0625 875.75 697.0625 878.625 Z M 721.3125 920 "/>
</svg>
