<?xml version="1.0" encoding="UTF-8"?>
<svg xmlns="http://www.w3.org/2000/svg" xmlns:xlink="http://www.w3.org/1999/xlink" width="975" height="1300" viewBox="0 0 975 1300">
<path fill-rule="nonzero" fill="rgb(34.901961%, 14.901961%, 14.901961%)" fill-opacity="1" d="M 383.0625 452.875 C 369.4375 453.625 358.5625 453.875 354.8125 453.875 L 352.3125 453.875 C 352.0625 420.5 352.1875 412 353.1875 382.125 L 352.4375 381.375 C 341.6875 381.875 338.8125 381.875 330.1875 381.75 L 329.4375 382.5 C 329.9375 392.5 330.0625 395.5 330.0625 410.375 C 330.0625 430.125 329.9375 449.875 329.9375 469.625 L 330.5625 470.375 C 355.0625 470 359.5625 470 382.0625 470 L 382.6875 469.25 L 383.6875 453.5 Z M 458.0625 436.75 C 458.0625 431.875 458.0625 411.625 440.5625 404.75 C 435.0625 402.625 428.5625 402.375 425.3125 402.375 C 403.5625 402.375 391.3125 414 391.3125 437 C 391.3125 445 392.5625 453.125 397.1875 459.875 C 400.4375 464.75 406.5625 471.5 424.4375 471.5 C 450.9375 471.5 458.0625 455.5 458.0625 436.75 M 436.4375 436.625 C 436.4375 446.875 435.0625 458.25 424.6875 458.25 C 421.4375 458.25 419.1875 456.75 417.6875 455.375 C 415.5625 453.25 413.1875 449 413.1875 436.875 C 413.1875 433.25 413.1875 425.25 415.6875 420.875 C 417.5625 417.5 420.8125 415.25 424.8125 415.25 C 428.3125 415.25 431.1875 417.125 432.8125 419.125 C 435.8125 422.75 436.4375 429.875 436.4375 436.625 Z M 518.8125 452 C 515.4375 454 512.1875 456 505.8125 456 C 491.6875 456 488.8125 444.25 488.8125 436.75 C 488.8125 427.625 492.8125 417.125 504.9375 417.125 C 510.4375 417.125 513.4375 419.125 517.1875 421.625 L 518.4375 421.25 C 518.9375 414.625 519.0625 412.875 520.0625 406.25 L 519.4375 405.5 C 513.9375 403.75 509.1875 402.25 501.9375 402.25 C 472.5625 402.25 466.8125 424.5 466.8125 437.25 C 466.8125 451.625 474.3125 471.125 502.4375 471.125 C 509.0625 471.125 513.3125 469.875 518.5625 468.375 L 519.3125 467.625 L 519.8125 452.625 Z M 594.0625 468.375 C 582.3125 448.5 581.0625 446.25 571.5625 429.125 C 580.1875 417.375 581.0625 416.125 589.9375 404.75 L 589.3125 403.5 L 568.9375 403.75 L 567.6875 404.625 C 557.9375 421.5 556.6875 423.5 550.9375 432.125 L 550.9375 418.25 C 551.0625 394.875 551.1875 389.875 551.8125 371 L 550.8125 370.25 L 529.0625 373.5 L 528.3125 374.375 C 529.1875 386.5 529.5625 392.375 529.8125 408.75 C 530.0625 429 530.0625 449.25 529.9375 469.5 L 530.8125 470.375 C 539.1875 470 541.5625 470 551.0625 470 L 551.8125 469.125 L 551.0625 448 L 550.9375 433.625 C 561.8125 453.625 563.1875 456.375 569.5625 469.625 L 570.6875 470.375 L 593.1875 469.5 Z M 655.5625 451.5 C 650.8125 454 645.1875 456.875 636.0625 456.875 C 628.5625 456.875 623.4375 454.5 620.4375 450 C 618.5625 447.375 618.1875 444.875 617.6875 442.375 L 658.0625 441.625 L 658.8125 440.75 C 658.6875 434.625 658.5625 428.375 656.8125 422.125 C 652.4375 407.375 642.8125 404.375 638.5625 403.375 C 635.4375 402.5 632.5625 402.25 629.6875 402.25 C 610.0625 402.25 597.0625 415.125 597.0625 436.75 C 597.0625 442.625 598.0625 448.75 600.0625 453.125 C 607.3125 470 624.3125 471.5 633.3125 471.5 C 643.6875 471.5 648.1875 469.625 654.8125 467 L 655.5625 466 L 656.4375 451.875 L 655.5625 451.5 M 617.6875 429.125 C 618.0625 425.25 618.9375 420 623.6875 417 C 625.1875 416 626.9375 415.625 628.6875 415.625 C 632.8125 415.625 635.3125 417.75 636.6875 420 C 638.4375 422.75 638.5625 425.75 638.5625 428.625 Z M 662.8125 470 "/>
<path fill-rule="nonzero" fill="rgb(34.901961%, 14.901961%, 14.901961%)" fill-opacity="1" d="M 257.0625 620 C 268.6875 620.25 283.0625 620.5 292.4375 614 C 300.6875 608.125 302.9375 599.875 302.9375 592.875 C 302.9375 584.875 299.5625 577.5 292.4375 574 C 290.0625 572.75 287.3125 572.25 284.6875 571.75 C 288.9375 570 293.9375 567.75 297.1875 561.125 C 298.5625 558.25 299.1875 555.25 299.1875 552.375 C 299.1875 548.375 298.1875 542.875 294.1875 538.375 C 288.9375 532.75 280.8125 531.25 268.5625 531.25 C 264.3125 531.25 256.6875 531.375 252.4375 531.5 L 234.9375 531.75 L 234.1875 532.5 C 234.6875 544.5 234.8125 549.125 234.8125 566.375 C 234.8125 584.125 234.6875 601.75 234.4375 619.5 L 235.3125 620 L 257.0625 620 M 256.1875 582 C 265.6875 581.75 271.1875 581.75 274.8125 583.875 C 278.4375 586.125 279.8125 590.125 279.8125 594.125 C 279.8125 599.75 276.6875 603.25 272.0625 604.875 C 268.3125 606.125 261.5625 606.125 256.1875 606 L 256.1875 582 M 256.1875 545.25 C 258.8125 545.25 262.3125 545.125 264.4375 545.125 C 271.1875 545.125 277.3125 547.5 277.3125 555.625 C 277.3125 562.25 272.4375 565 270.9375 565.75 C 267.8125 567.125 261.1875 567.125 256.1875 567.125 Z M 378.1875 586.75 C 378.1875 581.875 378.1875 561.625 360.6875 554.75 C 355.1875 552.625 348.6875 552.375 345.4375 552.375 C 323.6875 552.375 311.4375 564 311.4375 587 C 311.4375 595 312.6875 603.125 317.3125 609.875 C 320.5625 614.75 326.6875 621.5 344.5625 621.5 C 371.0625 621.5 378.1875 605.5 378.1875 586.75 M 356.5625 586.625 C 356.5625 596.875 355.1875 608.25 344.8125 608.25 C 341.5625 608.25 339.3125 606.75 337.8125 605.375 C 335.6875 603.25 333.3125 599 333.3125 586.875 C 333.3125 583.25 333.3125 575.25 335.8125 570.875 C 337.6875 567.5 340.9375 565.25 344.9375 565.25 C 348.4375 565.25 351.3125 567.125 352.9375 569.125 C 355.9375 572.75 356.5625 579.875 356.5625 586.625 Z M 445.6875 582.75 C 445.8125 571.5 445.8125 566.625 442.5625 561.375 C 440.0625 557.375 435.0625 552.375 419.0625 552.375 C 408.3125 552.375 401.6875 554.375 394.5625 556.5 L 393.8125 557.5 L 393.1875 571.125 L 394.1875 571.625 C 398.5625 569.875 406.6875 566.625 415.0625 566.625 C 419.6875 566.625 421.5625 567.375 423.1875 569 C 424.4375 570.25 424.8125 572.5 424.8125 574.375 C 409.8125 576.375 402.8125 577.75 395.3125 582.375 C 388.3125 586.75 385.9375 593.875 385.9375 599.5 C 385.9375 612.875 395.5625 621.5 407.8125 621.5 C 417.1875 621.5 422.5625 617 425.1875 614.875 L 425.1875 619.5 L 425.9375 620.375 C 434.9375 620 437.6875 619.875 445.8125 620 L 446.4375 619.125 C 445.5625 606.875 445.5625 603.75 445.5625 592 L 445.6875 582.75 M 425.0625 602.625 C 422.4375 604.125 419.0625 605.875 414.9375 605.875 C 410.4375 605.875 406.6875 603.5 406.6875 598.25 C 406.6875 590 416.5625 588.625 425.0625 587.5 Z M 496.4375 573.625 L 499.9375 553.25 L 499.1875 552.375 C 498.3125 552.375 497.4375 552.25 496.5625 552.25 C 491.4375 552.25 485.6875 555.125 481.6875 564.375 L 482.0625 552.875 L 481.0625 551.875 C 471.8125 553.875 469.4375 554.25 460.3125 555.625 L 459.5625 556.375 C 460.3125 565.75 460.6875 571.375 460.6875 588.75 C 460.6875 599 460.5625 609.25 460.3125 619.625 L 461.0625 620.375 C 470.3125 620 472.3125 619.875 482.3125 620 L 482.9375 619.125 C 482.4375 609 481.6875 594.875 481.6875 586.25 C 481.6875 580.625 481.6875 572.375 490.1875 572.375 C 492.3125 572.375 493.5625 573.125 495.3125 574.125 Z M 568.4375 619.25 C 567.9375 608 567.5625 600.5 567.5625 584.125 C 567.5625 551.125 568.0625 537.5 568.5625 521 L 567.6875 520.25 L 547.0625 523.5 L 546.4375 524.25 C 547.1875 536 547.3125 539.125 547.1875 553.375 C 537.8125 553.125 526.0625 552.875 516.5625 560.375 C 507.8125 567.125 504.1875 577.5 504.1875 590.375 C 504.1875 600.125 506.8125 609.875 514.1875 616 C 519.6875 620.5 526.4375 621.5 530.5625 621.5 C 539.4375 621.5 544.0625 617.375 547.0625 614.75 L 546.8125 619.625 L 547.4375 620.375 C 556.0625 620 558.4375 620 567.8125 620 L 568.4375 619.25 M 547.1875 568.375 C 547.3125 585 547.1875 588.25 546.8125 603.375 C 544.3125 604.875 541.8125 606.375 538.3125 606.375 C 526.1875 606.375 526.1875 590.875 526.1875 588.375 C 526.1875 578.75 528.9375 568 542.9375 568 C 544.3125 568 545.4375 568.125 547.1875 568.375 Z M 605.3125 619.125 C 604.6875 609.5 604.1875 602.125 604.1875 584.875 C 604.1875 574.25 604.4375 563.5 604.5625 552.875 L 603.6875 551.875 L 582.1875 555.625 L 581.4375 556.375 C 582.4375 565.875 582.8125 570.25 582.8125 588 C 582.8125 601.625 582.4375 609.25 582.0625 619.5 L 582.8125 620.375 C 591.8125 620 594.3125 619.875 604.4375 620 L 605.3125 619.125 M 603.3125 539.875 L 603.6875 522.875 L 602.9375 522.125 L 582.5625 524.625 L 581.8125 525.5 C 582.0625 530 582.1875 532.625 582.1875 535.625 C 582.1875 538 582.1875 540.5 582.0625 542.875 L 582.9375 543.625 C 591.4375 542.125 593.8125 541.875 602.6875 540.75 Z M 680.4375 619.125 C 679.8125 608.125 679.8125 604.625 679.5625 592.375 L 679.5625 582.625 C 679.4375 570.625 679.3125 564.875 676.1875 559.75 C 672.3125 553.25 665.1875 552.25 660.6875 552.25 C 653.0625 552.25 646.4375 556.25 640.6875 559.625 L 640.9375 552.75 L 639.6875 551.875 C 630.0625 553.875 627.9375 554.25 618.5625 555.5 L 617.8125 556.375 C 618.8125 567.25 619.5625 575.125 619.5625 595.5 C 619.5625 603.5 619.4375 611.5 619.3125 619.5 L 620.0625 620.25 C 629.0625 619.875 630.9375 619.875 640.9375 619.875 L 641.6875 619.125 C 640.9375 599.875 640.8125 595 640.6875 572.625 C 643.3125 570.875 646.3125 568.75 650.3125 568.75 C 657.1875 568.75 657.8125 576.125 658.1875 580.625 C 658.4375 584.75 658.5625 601.875 658.5625 606.625 C 658.5625 610.875 658.4375 615.25 658.4375 619.5 L 659.1875 620.25 C 667.4375 620 669.5625 619.875 679.5625 619.875 Z M 717.6875 598.875 C 721.6875 599 725.6875 599.25 731.6875 597.25 C 738.1875 595 747.6875 589.625 747.6875 577.5 C 747.6875 571.5 745.9375 569 744.3125 566.625 L 752.9375 567.125 L 753.6875 566.5 L 754.5625 554 L 753.8125 553.375 C 744.1875 553.75 741.5625 553.875 733.6875 553.75 L 727.9375 553.625 C 719.0625 553.375 707.1875 553.125 699.0625 559.875 C 696.3125 562 691.0625 567.375 691.0625 576.75 C 691.0625 581.75 692.4375 585.75 694.6875 588.875 C 697.4375 592.75 699.9375 594.125 703.0625 595.875 C 699.5625 602.625 697.6875 606 694.8125 611.125 L 694.8125 612.25 L 700.0625 616 C 696.3125 618.875 690.4375 623.625 690.4375 631.75 C 690.4375 637.5 693.5625 642.5 698.1875 645.875 C 705.1875 650.875 714.6875 651.125 719.5625 651.125 C 742.4375 651.125 752.9375 639.625 752.9375 627.5 C 752.9375 611.75 739.1875 608.75 731.0625 606.875 L 728.0625 606.375 C 721.9375 605.375 720.5625 605 715.6875 603.25 L 717.6875 598.875 M 727.9375 576.375 C 727.8125 586.5 721.6875 587.375 719.9375 587.375 C 718.9375 587.375 714.5625 587.125 712.4375 582.125 C 711.3125 579.5 711.3125 576.5 711.3125 575.625 C 711.3125 569.375 715.0625 565.375 719.6875 565.375 C 725.4375 565.375 728.0625 570.875 727.9375 576.375 M 717.3125 623 C 728.4375 625.875 728.5625 625.875 730.0625 627.125 C 731.3125 628 732.5625 629.375 732.5625 632 C 732.5625 635.75 729.4375 639.625 721.1875 639.625 C 711.9375 639.625 708.8125 634.375 708.8125 630 C 708.8125 625.875 710.9375 623.5 712.4375 621.75 Z M 754.9375 620 "/>
<path fill-rule="nonzero" fill="rgb(34.901961%, 14.901961%, 14.901961%)" fill-opacity="1" d="M 388.375 681.375 C 378.375 681.75 376.75 681.75 366.25 681.75 L 365.625 682.5 C 366.5 696.625 366.5 700.25 366.625 715 C 361.125 715.125 355.625 715.25 350 715.25 C 345.625 715.25 341.125 715.125 336.75 715.125 L 337 682.125 L 336.375 681.375 C 326.75 681.75 324.875 681.75 314 681.75 L 313.25 682.5 C 313.875 695.375 314.625 710.75 314.625 741.75 C 314.625 753 314.375 759.125 314.125 769.625 L 314.75 770.375 C 323.875 770 326.125 769.875 337.125 770 L 337.75 769.25 C 337 753.75 336.875 749.25 336.75 731.125 C 342.25 730.875 346.875 730.75 351.75 730.75 C 356.75 730.75 361.75 730.875 366.75 731 C 367 747.875 367 752 366.375 769.625 L 367 770.375 C 376.375 770 378.875 769.875 389.5 770 L 390.125 769.25 C 389.125 748.25 388.75 727.375 388.75 706.375 C 388.75 697.625 388.875 691.75 389 682.125 Z M 468.25 736.75 C 468.25 731.875 468.25 711.625 450.75 704.75 C 445.25 702.625 438.75 702.375 435.5 702.375 C 413.75 702.375 401.5 714 401.5 737 C 401.5 745 402.75 753.125 407.375 759.875 C 410.625 764.75 416.75 771.5 434.625 771.5 C 461.125 771.5 468.25 755.5 468.25 736.75 M 446.625 736.625 C 446.625 746.875 445.25 758.25 434.875 758.25 C 431.625 758.25 429.375 756.75 427.875 755.375 C 425.75 753.25 423.375 749 423.375 736.875 C 423.375 733.25 423.375 725.25 425.875 720.875 C 427.75 717.5 431 715.25 435 715.25 C 438.5 715.25 441.375 717.125 443 719.125 C 446 722.75 446.625 729.875 446.625 736.625 Z M 540.125 703.125 L 519.75 704.125 L 518.875 704.875 C 519.75 719 519.75 739 519.75 741 C 519.75 744.625 519.75 746.625 519.625 751.625 C 516.25 753.875 513.625 755.75 510.25 755.75 C 501.25 755.75 501.25 746.25 501.25 738.875 C 501.25 735.75 501.25 732.5 501.375 729.375 L 501.625 704.125 L 500.75 703.125 L 480.125 704.125 L 479.25 704.875 C 480 715.375 480.125 718.875 480.125 731.5 L 480.125 740.25 C 480 753.875 480.625 759.625 485.125 764.875 C 489.25 769.5 495.25 771.5 501.5 771.5 C 510.375 771.5 515.5 767.5 520 764 L 519.875 769.625 L 520.75 770.375 C 529.875 770 532.625 770 540.75 770 L 541.5 769.25 C 540.875 760.375 540.625 755.625 540.625 739.375 C 540.625 727.625 540.75 715.875 541 704.125 Z M 581.875 726.875 C 577.625 725.375 574.25 724 574.25 720.5 C 574.25 719 575.25 714.875 583 714.875 C 590.625 714.875 595.5 718.125 598.625 720.125 L 599.75 719.75 L 601 706.125 L 600.375 705.375 C 594.5 703.75 589.375 702.25 581.25 702.25 C 575.125 702.25 562.875 702.75 556.375 712.125 C 554.75 714.375 553 718.125 553 723.125 C 553 736.5 563.375 740.5 569.25 742.75 L 574 744.5 C 577.375 745.625 582.875 747.5 582.875 752 C 582.875 755.125 580 758.5 573 758.5 C 569.5 758.5 564.375 757.375 559.75 755 C 557.625 753.875 556.625 753 554.75 751.5 L 553.625 752 C 553.375 758.5 553.25 759.875 552.75 766.125 L 553.375 767.25 C 559.5 769.5 564.75 771.5 573.875 771.5 C 583.375 771.5 602.125 769.75 604.375 751.875 C 604.5 750.875 604.5 750 604.5 749.125 C 604.5 735.375 594.875 731.75 588 729.125 Z M 671 751.5 C 666.25 754 660.625 756.875 651.5 756.875 C 644 756.875 638.875 754.5 635.875 750 C 634 747.375 633.625 744.875 633.125 742.375 L 673.5 741.625 L 674.25 740.75 C 674.125 734.625 674 728.375 672.25 722.125 C 667.875 707.375 658.25 704.375 654 703.375 C 650.875 702.5 648 702.25 645.125 702.25 C 625.5 702.25 612.5 715.125 612.5 736.75 C 612.5 742.625 613.5 748.75 615.5 753.125 C 622.75 770 639.75 771.5 648.75 771.5 C 659.125 771.5 663.625 769.625 670.25 767 L 671 766 L 671.875 751.875 L 671 751.5 M 633.125 729.125 C 633.5 725.25 634.375 720 639.125 717 C 640.625 716 642.375 715.625 644.125 715.625 C 648.25 715.625 650.75 717.75 652.125 720 C 653.875 722.75 654 725.75 654 728.625 Z M 678.25 770 "/>
<path fill-rule="nonzero" fill="rgb(34.901961%, 14.901961%, 14.901961%)" fill-opacity="1" d="M 342.5625 831.375 C 329.5625 831.75 327.4375 831.75 313.5625 831.75 L 312.8125 832.5 L 307.0625 852.75 L 302.0625 870.875 L 296.1875 892.625 L 290.6875 870.25 L 287.1875 856.125 L 280.9375 832.125 L 280.3125 831.375 C 266.9375 831.75 264.6875 831.75 250.6875 831.75 L 249.9375 832.5 C 248.6875 869.875 248.1875 879.5 245.4375 919.625 L 246.0625 920.375 C 254.0625 920 256.4375 919.875 263.6875 920 L 264.4375 919.25 L 264.8125 895.375 L 265.5625 871.125 L 266.0625 847.5 L 271.5625 869.625 L 276.3125 887.375 L 284.6875 919.625 L 285.4375 920.375 C 293.1875 920 295.3125 919.875 304.0625 920 L 304.8125 919.25 L 312.0625 892.625 L 317.0625 874.375 L 324.0625 848.125 L 324.0625 870.5 L 324.3125 889.625 L 324.3125 919.625 L 324.9375 920.375 C 333.5625 920 336.9375 919.875 346.5625 920 L 347.1875 919.25 C 346.4375 905 345.5625 890.625 345.0625 876.25 C 344.6875 868.375 344.4375 860.5 344.0625 852.625 C 343.4375 841 343.3125 839.5 343.3125 832.125 Z M 421.3125 853.125 L 400.9375 854.125 L 400.0625 854.875 C 400.9375 869 400.9375 889 400.9375 891 C 400.9375 894.625 400.9375 896.625 400.8125 901.625 C 397.4375 903.875 394.8125 905.75 391.4375 905.75 C 382.4375 905.75 382.4375 896.25 382.4375 888.875 C 382.4375 885.75 382.4375 882.5 382.5625 879.375 L 382.8125 854.125 L 381.9375 853.125 L 361.3125 854.125 L 360.4375 854.875 C 361.1875 865.375 361.3125 868.875 361.3125 881.5 L 361.3125 890.25 C 361.1875 903.875 361.8125 909.625 366.3125 914.875 C 370.4375 919.5 376.4375 921.5 382.6875 921.5 C 391.5625 921.5 396.6875 917.5 401.1875 914 L 401.0625 919.625 L 401.9375 920.375 C 411.0625 920 413.8125 920 421.9375 920 L 422.6875 919.25 C 422.0625 910.375 421.8125 905.625 421.8125 889.375 C 421.8125 877.625 421.9375 865.875 422.1875 854.125 Z M 463.0625 876.875 C 458.8125 875.375 455.4375 874 455.4375 870.5 C 455.4375 869 456.4375 864.875 464.1875 864.875 C 471.8125 864.875 476.6875 868.125 479.8125 870.125 L 480.9375 869.75 L 482.1875 856.125 L 481.5625 855.375 C 475.6875 853.75 470.5625 852.25 462.4375 852.25 C 456.3125 852.25 444.0625 852.75 437.5625 862.125 C 435.9375 864.375 434.1875 868.125 434.1875 873.125 C 434.1875 886.5 444.5625 890.5 450.4375 892.75 L 455.1875 894.5 C 458.5625 895.625 464.0625 897.5 464.0625 902 C 464.0625 905.125 461.1875 908.5 454.1875 908.5 C 450.6875 908.5 445.5625 907.375 440.9375 905 C 438.8125 903.875 437.8125 903 435.9375 901.5 L 434.8125 902 C 434.5625 908.5 434.4375 909.875 433.9375 916.125 L 434.5625 917.25 C 440.6875 919.5 445.9375 921.5 455.0625 921.5 C 464.5625 921.5 483.3125 919.75 485.5625 901.875 C 485.6875 900.875 485.6875 900 485.6875 899.125 C 485.6875 885.375 476.0625 881.75 469.1875 879.125 Z M 552.1875 901.5 C 547.4375 904 541.8125 906.875 532.6875 906.875 C 525.1875 906.875 520.0625 904.5 517.0625 900 C 515.1875 897.375 514.8125 894.875 514.3125 892.375 L 554.6875 891.625 L 555.4375 890.75 C 555.3125 884.625 555.1875 878.375 553.4375 872.125 C 549.0625 857.375 539.4375 854.375 535.1875 853.375 C 532.0625 852.5 529.1875 852.25 526.3125 852.25 C 506.6875 852.25 493.6875 865.125 493.6875 886.75 C 493.6875 892.625 494.6875 898.75 496.6875 903.125 C 503.9375 920 520.9375 921.5 529.9375 921.5 C 540.3125 921.5 544.8125 919.625 551.4375 917 L 552.1875 916 L 553.0625 901.875 L 552.1875 901.5 M 514.3125 879.125 C 514.6875 875.25 515.5625 870 520.3125 867 C 521.8125 866 523.5625 865.625 525.3125 865.625 C 529.4375 865.625 531.9375 867.75 533.3125 870 C 535.0625 872.75 535.1875 875.75 535.1875 878.625 Z M 626.9375 853.125 L 606.5625 854.125 L 605.6875 854.875 C 606.5625 869 606.5625 889 606.5625 891 C 606.5625 894.625 606.5625 896.625 606.4375 901.625 C 603.0625 903.875 600.4375 905.75 597.0625 905.75 C 588.0625 905.75 588.0625 896.25 588.0625 888.875 C 588.0625 885.75 588.0625 882.5 588.1875 879.375 L 588.4375 854.125 L 587.5625 853.125 L 566.9375 854.125 L 566.0625 854.875 C 566.8125 865.375 566.9375 868.875 566.9375 881.5 L 566.9375 890.25 C 566.8125 903.875 567.4375 909.625 571.9375 914.875 C 576.0625 919.5 582.0625 921.5 588.3125 921.5 C 597.1875 921.5 602.3125 917.5 606.8125 914 L 606.6875 919.625 L 607.5625 920.375 C 616.6875 920 619.4375 920 627.5625 920 L 628.3125 919.25 C 627.6875 910.375 627.4375 905.625 627.4375 889.375 C 627.4375 877.625 627.5625 865.875 627.8125 854.125 Z M 740.0625 919.125 C 739.4375 907.5 739.3125 904.25 739.3125 890.125 L 739.3125 880.75 C 739.4375 872.375 739.5625 864.625 735.9375 859.375 C 731.0625 852.25 722.4375 852.25 720.4375 852.25 C 710.1875 852.25 703.3125 856.875 698.3125 860.375 C 696.5625 857.5 693.4375 852.25 683.4375 852.25 C 675.1875 852.25 669.8125 856 664.0625 860 L 664.0625 853 L 662.9375 851.875 C 653.1875 853.75 650.4375 854.25 641.6875 855.5 L 640.9375 856.375 C 641.9375 866.375 642.6875 873.25 642.6875 898 C 642.6875 905.125 642.5625 912.375 642.5625 919.5 L 643.1875 920.25 C 651.1875 920 653.9375 919.875 664.3125 919.875 L 665.0625 919.125 C 664.1875 899.875 664.0625 894.125 663.9375 872.375 C 666.5625 870.5 669.4375 868.875 672.5625 868.875 C 680.3125 868.875 680.5625 877.75 680.5625 888.5 C 680.5625 906.625 680.4375 909.375 680.1875 919.5 L 680.9375 920.375 C 690.4375 919.875 693.0625 919.875 701.6875 919.875 L 702.4375 919.125 C 701.6875 907.25 701.5625 903.75 701.4375 888.625 L 701.4375 884 L 701.3125 871.375 C 703.4375 870 706.1875 868.25 709.9375 868.25 C 717.0625 868.25 718.1875 875 718.1875 885.75 C 718.1875 888.125 718.0625 890.5 718.0625 892.875 C 717.9375 897.125 717.8125 915.75 717.6875 919.5 L 718.4375 920.25 C 727.8125 919.875 730.5625 919.875 739.3125 919.875 Z M 746.9375 920 "/>
</svg>
