<?xml version="1.0" encoding="UTF-8"?>
<svg xmlns="http://www.w3.org/2000/svg" xmlns:xlink="http://www.w3.org/1999/xlink" width="975" height="1300" viewBox="0 0 975 1300">
<path fill-rule="nonzero" fill="rgb(34.901961%, 14.901961%, 14.901961%)" fill-opacity="1" d="M 172.4375 672.625 C 169.5625 674.875 163.1875 679.625 152.8125 679.625 C 138.5625 679.625 128.5625 669 128.5625 651.25 C 128.5625 640.5 132.3125 621.625 152.6875 621.625 C 162.0625 621.625 167.1875 625.25 170.3125 627.625 L 171.4375 627.375 L 172.5625 610.125 L 172.0625 609.5 C 167.5625 607.75 159.9375 604.875 148.9375 604.875 C 116.5625 604.875 105.3125 629.875 105.3125 651.75 C 105.3125 675.75 119.9375 696.875 150.4375 696.875 C 160.9375 696.875 167.8125 694.125 171.8125 692.5 L 172.4375 691.75 L 173.3125 673.125 Z M 205.0625 694.125 C 204.4375 679.75 203.8125 666.625 203.8125 627.125 C 203.8125 615.25 203.9375 609.625 204.4375 596.125 L 203.5625 595.25 L 182.1875 598.625 L 181.6875 599.375 C 182.9375 614.625 183.0625 618.75 183.3125 639 C 183.4375 646.375 183.4375 653.75 183.4375 661.125 C 183.4375 674.625 183.1875 682.125 182.6875 694.5 L 183.4375 695.375 C 191.8125 695 195.1875 694.875 204.3125 695 Z M 275.1875 657.75 C 275.3125 646.5 275.3125 641.625 272.0625 636.375 C 269.5625 632.375 264.5625 627.375 248.5625 627.375 C 237.8125 627.375 231.1875 629.375 224.0625 631.5 L 223.3125 632.5 L 222.6875 646.125 L 223.6875 646.625 C 228.0625 644.875 236.1875 641.625 244.5625 641.625 C 249.1875 641.625 251.0625 642.375 252.6875 644 C 253.9375 645.25 254.3125 647.5 254.3125 649.375 C 239.3125 651.375 232.3125 652.75 224.8125 657.375 C 217.8125 661.75 215.4375 668.875 215.4375 674.5 C 215.4375 687.875 225.0625 696.5 237.3125 696.5 C 246.6875 696.5 252.0625 692 254.6875 689.875 L 254.6875 694.5 L 255.4375 695.375 C 264.4375 695 267.1875 694.875 275.3125 695 L 275.9375 694.125 C 275.0625 681.875 275.0625 678.75 275.0625 667 L 275.1875 657.75 M 254.5625 677.625 C 251.9375 679.125 248.5625 680.875 244.4375 680.875 C 239.9375 680.875 236.1875 678.5 236.1875 673.25 C 236.1875 665 246.0625 663.625 254.5625 662.5 Z M 345.6875 628.375 L 328.3125 628.75 L 327.3125 629.625 C 325.1875 638.25 324.6875 640.125 321.6875 649.875 L 318.4375 660.625 L 315.6875 670 L 313.3125 661.125 L 309.6875 647.875 L 304.6875 628.875 L 303.6875 628.125 C 293.9375 628.875 291.8125 629 281.5625 629.25 L 280.9375 630.125 C 285.4375 642 297.0625 673.375 304.8125 697.375 C 299.6875 710.375 298.6875 712.625 293.0625 725 L 293.6875 726 C 296.8125 725.875 300.3125 725.75 303.5625 725.75 C 306.6875 725.75 309.9375 725.875 313.0625 725.875 L 313.9375 725.125 C 320.8125 698.125 324.1875 687.625 340.6875 644.125 C 342.5625 639.125 344.4375 634.25 346.1875 629.375 Z M 405.5625 606.5 L 389.6875 606.75 L 388.9375 607.5 C 389.4375 623.75 389.8125 634.625 389.8125 649 C 389.8125 664.25 389.4375 679.375 389.0625 694.625 L 389.8125 695.375 C 399.0625 695 401.0625 694.875 411.0625 695 L 411.6875 694.25 C 411.1875 680.625 411.1875 677.5 411.1875 664.75 C 425.1875 664.875 440.1875 664.875 449.1875 653.875 C 452.6875 649.625 455.6875 642.5 455.6875 633.75 C 455.6875 628.375 454.4375 616.5 444.0625 610.625 C 436.5625 606.25 425.9375 606.25 416.5625 606.25 L 405.5625 606.5 M 411.1875 621.625 C 413.9375 621.5 416.5625 621.5 419.3125 621.5 C 430.3125 621.75 433.3125 627.375 433.3125 634.625 C 433.3125 636.375 433.3125 643.625 426.6875 647.25 C 423.3125 649.125 418.6875 649.375 411.1875 649.375 Z M 486.9375 694.125 C 486.3125 684.5 485.8125 677.125 485.8125 659.875 C 485.8125 649.25 486.0625 638.5 486.1875 627.875 L 485.3125 626.875 L 463.8125 630.625 L 463.0625 631.375 C 464.0625 640.875 464.4375 645.25 464.4375 663 C 464.4375 676.625 464.0625 684.25 463.6875 694.5 L 464.4375 695.375 C 473.4375 695 475.9375 694.875 486.0625 695 L 486.9375 694.125 M 484.9375 614.875 L 485.3125 597.875 L 484.5625 597.125 L 464.1875 599.625 L 463.4375 600.5 C 463.6875 605 463.8125 607.625 463.8125 610.625 C 463.8125 613 463.8125 615.5 463.6875 617.875 L 464.5625 618.625 C 473.0625 617.125 475.4375 616.875 484.3125 615.75 Z M 535.8125 680.625 C 533.6875 681.25 532.1875 681.75 530.0625 681.75 C 523.6875 681.75 523.1875 677.75 522.9375 675.875 C 522.5625 672.625 522.5625 665.75 522.6875 660.75 L 522.9375 643.125 L 534.1875 643.625 L 534.9375 642.875 L 536.1875 629.5 L 535.4375 628.75 L 522.9375 628.75 L 523.3125 607.75 L 522.4375 607 C 513.9375 609.5 511.6875 610.125 502.8125 612.375 L 502.3125 613.25 L 502.4375 628.875 L 495.6875 628.625 L 494.9375 629.25 L 493.8125 642.625 L 494.5625 643.375 L 502.4375 643.125 L 502.0625 663 C 501.9375 666.125 501.8125 669.25 501.8125 672.5 C 501.8125 684 502.0625 696.375 521.5625 696.375 C 526.4375 696.375 530.3125 695.625 534.6875 694.875 L 535.5625 694 L 536.8125 681.125 Z M 617.6875 641.25 C 607.1875 636.875 601.6875 634.625 601.6875 629 C 601.6875 625.125 605.3125 620.25 613.5625 620.25 C 623.0625 620.25 628.6875 624.125 633.3125 627.25 L 634.4375 626.75 L 635.4375 610.375 L 634.8125 609.5 C 629.4375 607.25 623.8125 604.875 611.6875 604.875 C 588.1875 604.875 580.0625 618.125 580.0625 631.5 C 580.0625 646.625 591.8125 652.125 598.8125 655.5 L 602.9375 657.375 C 611.5625 661 618.1875 664.125 618.1875 670.75 C 618.1875 675.5 614.0625 681.125 603.1875 681.125 C 591.8125 681.125 585.4375 676.125 581.8125 673.25 L 580.5625 673.625 L 579.6875 691.25 L 580.4375 692.25 C 581.8125 692.75 583.1875 693.375 584.5625 693.75 C 587.4375 694.75 594.8125 696.875 604.1875 696.875 C 607.9375 696.875 617.4375 696.5 624.9375 693 C 635.4375 687.875 639.9375 678.375 639.9375 667.75 C 639.9375 660.625 637.1875 653 630.5625 647.875 C 627.1875 645.375 623.9375 643.875 620.9375 642.5 Z M 694.6875 694.125 C 700.0625 671.5 701.9375 665 718.9375 607 L 718.3125 606.375 C 708.9375 606.75 706.4375 606.75 698.9375 606.75 L 698.1875 607.5 C 695.8125 619.75 695.1875 623 691.6875 636.875 L 687.6875 653.25 L 682.3125 676.375 L 675.6875 646.875 L 673.0625 635.625 C 669.9375 622.75 669.0625 618.5 666.4375 606.375 L 665.6875 605.75 C 655.3125 606.5 653.0625 606.625 643.3125 606.625 L 642.6875 607.375 C 651.0625 636.25 658.5625 662.75 662.8125 679.25 C 664.0625 684.375 665.3125 689.5 666.5625 694.625 L 667.3125 695.375 C 678.1875 695 680.9375 694.875 693.9375 695 Z M 752.9375 660.625 C 761.3125 674.875 763.1875 678.625 771.1875 695 L 772.1875 695.625 C 776.0625 695.375 779.8125 695.125 783.6875 695 C 787.5625 694.875 791.5625 694.75 795.4375 694.75 L 796.1875 693.25 C 791.4375 687.125 790.0625 685.25 781.0625 670.875 C 777.0625 664.5 775.0625 661.125 771.9375 655.625 C 777.5625 653.125 788.9375 647.875 788.9375 632 C 788.9375 626.5 787.4375 615.125 777.1875 609.75 C 770.6875 606.375 763.9375 606.25 749.3125 606.5 L 740.5625 606.625 L 725.3125 606.625 L 724.6875 607.375 C 725.1875 620 725.6875 633 725.6875 667 C 725.6875 678.625 725.5625 684.25 725.1875 694.625 L 725.9375 695.375 C 735.0625 695 737.0625 694.875 747.3125 695 L 748.0625 694.25 C 747.0625 679.75 746.9375 675.75 746.8125 660.875 L 752.9375 660.625 M 747.0625 621.75 C 748.8125 621.625 750.5625 621.625 752.3125 621.625 C 757.1875 621.625 766.8125 621.625 766.8125 632.625 C 766.8125 636.125 765.9375 640.75 761.3125 643.625 C 757.8125 645.75 753.3125 646 747.0625 646.125 Z M 853.3125 606.375 C 841.3125 606.75 838.8125 606.75 825.4375 606.75 L 824.5625 607.5 C 817.9375 628.75 813.9375 641.375 795.5625 694.125 L 796.0625 695 L 815.5625 695 L 816.4375 694.25 L 822.5625 671.5 L 849.5625 671.5 L 854.9375 694.625 L 855.8125 695.375 C 864.9375 695 867.4375 694.875 877.5625 695 L 878.1875 694 C 863.0625 640.5 861.3125 634.625 854.1875 607.125 L 853.3125 606.375 M 826.9375 656.375 L 833.1875 635.25 L 837.5625 620.625 L 841.3125 636.875 L 845.9375 656.375 Z M 878.6875 695 "/>
</svg>
