<?xml version="1.0" encoding="UTF-8"?>
<svg xmlns="http://www.w3.org/2000/svg" xmlns:xlink="http://www.w3.org/1999/xlink" width="975" height="1300" viewBox="0 0 975 1300">
<path fill-rule="nonzero" fill="rgb(34.901961%, 14.901961%, 14.901961%)" fill-opacity="1" d="M 304.9375 456.375 C 294.9375 456.75 293.3125 456.75 282.8125 456.75 L 282.1875 457.5 C 283.0625 471.625 283.0625 475.25 283.1875 490 C 277.6875 490.125 272.1875 490.25 266.5625 490.25 C 262.1875 490.25 257.6875 490.125 253.3125 490.125 L 253.5625 457.125 L 252.9375 456.375 C 243.3125 456.75 241.4375 456.75 230.5625 456.75 L 229.8125 457.5 C 230.4375 470.375 231.1875 485.75 231.1875 516.75 C 231.1875 528 230.9375 534.125 230.6875 544.625 L 231.3125 545.375 C 240.4375 545 242.6875 544.875 253.6875 545 L 254.3125 544.25 C 253.5625 528.75 253.4375 524.25 253.3125 506.125 C 258.8125 505.875 263.4375 505.75 268.3125 505.75 C 273.3125 505.75 278.3125 505.875 283.3125 506 C 283.5625 522.875 283.5625 527 282.9375 544.625 L 283.5625 545.375 C 292.9375 545 295.4375 544.875 306.0625 545 L 306.6875 544.25 C 305.6875 523.25 305.3125 502.375 305.3125 481.375 C 305.3125 472.625 305.4375 466.75 305.5625 457.125 Z M 376.8125 507.75 C 376.9375 496.5 376.9375 491.625 373.6875 486.375 C 371.1875 482.375 366.1875 477.375 350.1875 477.375 C 339.4375 477.375 332.8125 479.375 325.6875 481.5 L 324.9375 482.5 L 324.3125 496.125 L 325.3125 496.625 C 329.6875 494.875 337.8125 491.625 346.1875 491.625 C 350.8125 491.625 352.6875 492.375 354.3125 494 C 355.5625 495.25 355.9375 497.5 355.9375 499.375 C 340.9375 501.375 333.9375 502.75 326.4375 507.375 C 319.4375 511.75 317.0625 518.875 317.0625 524.5 C 317.0625 537.875 326.6875 546.5 338.9375 546.5 C 348.3125 546.5 353.6875 542 356.3125 539.875 L 356.3125 544.5 L 357.0625 545.375 C 366.0625 545 368.8125 544.875 376.9375 545 L 377.5625 544.125 C 376.6875 531.875 376.6875 528.75 376.6875 517 L 376.8125 507.75 M 356.1875 527.625 C 353.5625 529.125 350.1875 530.875 346.0625 530.875 C 341.5625 530.875 337.8125 528.5 337.8125 523.25 C 337.8125 515 347.6875 513.625 356.1875 512.5 Z M 427.5625 498.625 L 431.0625 478.25 L 430.3125 477.375 C 429.4375 477.375 428.5625 477.25 427.6875 477.25 C 422.5625 477.25 416.8125 480.125 412.8125 489.375 L 413.1875 477.875 L 412.1875 476.875 C 402.9375 478.875 400.5625 479.25 391.4375 480.625 L 390.6875 481.375 C 391.4375 490.75 391.8125 496.375 391.8125 513.75 C 391.8125 524 391.6875 534.25 391.4375 544.625 L 392.1875 545.375 C 401.4375 545 403.4375 544.875 413.4375 545 L 414.0625 544.125 C 413.5625 534 412.8125 519.875 412.8125 511.25 C 412.8125 505.625 412.8125 497.375 421.3125 497.375 C 423.4375 497.375 424.6875 498.125 426.4375 499.125 Z M 535.9375 544.125 C 535.3125 532.5 535.1875 529.25 535.1875 515.125 L 535.1875 505.75 C 535.3125 497.375 535.4375 489.625 531.8125 484.375 C 526.9375 477.25 518.3125 477.25 516.3125 477.25 C 506.0625 477.25 499.1875 481.875 494.1875 485.375 C 492.4375 482.5 489.3125 477.25 479.3125 477.25 C 471.0625 477.25 465.6875 481 459.9375 485 L 459.9375 478 L 458.8125 476.875 C 449.0625 478.75 446.3125 479.25 437.5625 480.5 L 436.8125 481.375 C 437.8125 491.375 438.5625 498.25 438.5625 523 C 438.5625 530.125 438.4375 537.375 438.4375 544.5 L 439.0625 545.25 C 447.0625 545 449.8125 544.875 460.1875 544.875 L 460.9375 544.125 C 460.0625 524.875 459.9375 519.125 459.8125 497.375 C 462.4375 495.5 465.3125 493.875 468.4375 493.875 C 476.1875 493.875 476.4375 502.75 476.4375 513.5 C 476.4375 531.625 476.3125 534.375 476.0625 544.5 L 476.8125 545.375 C 486.3125 544.875 488.9375 544.875 497.5625 544.875 L 498.3125 544.125 C 497.5625 532.25 497.4375 528.75 497.3125 513.625 L 497.3125 509 L 497.1875 496.375 C 499.3125 495 502.0625 493.25 505.8125 493.25 C 512.9375 493.25 514.0625 500 514.0625 510.75 C 514.0625 513.125 513.9375 515.5 513.9375 517.875 C 513.8125 522.125 513.6875 540.75 513.5625 544.5 L 514.3125 545.25 C 523.6875 544.875 526.4375 544.875 535.1875 544.875 Z M 613.9375 511.75 C 613.9375 506.875 613.9375 486.625 596.4375 479.75 C 590.9375 477.625 584.4375 477.375 581.1875 477.375 C 559.4375 477.375 547.1875 489 547.1875 512 C 547.1875 520 548.4375 528.125 553.0625 534.875 C 556.3125 539.75 562.4375 546.5 580.3125 546.5 C 606.8125 546.5 613.9375 530.5 613.9375 511.75 M 592.3125 511.625 C 592.3125 521.875 590.9375 533.25 580.5625 533.25 C 577.3125 533.25 575.0625 531.75 573.5625 530.375 C 571.4375 528.25 569.0625 524 569.0625 511.875 C 569.0625 508.25 569.0625 500.25 571.5625 495.875 C 573.4375 492.5 576.6875 490.25 580.6875 490.25 C 584.1875 490.25 587.0625 492.125 588.6875 494.125 C 591.6875 497.75 592.3125 504.875 592.3125 511.625 Z M 687.0625 544.125 C 686.4375 533.125 686.4375 529.625 686.1875 517.375 L 686.1875 507.625 C 686.0625 495.625 685.9375 489.875 682.8125 484.75 C 678.9375 478.25 671.8125 477.25 667.3125 477.25 C 659.6875 477.25 653.0625 481.25 647.3125 484.625 L 647.5625 477.75 L 646.3125 476.875 C 636.6875 478.875 634.5625 479.25 625.1875 480.5 L 624.4375 481.375 C 625.4375 492.25 626.1875 500.125 626.1875 520.5 C 626.1875 528.5 626.0625 536.5 625.9375 544.5 L 626.6875 545.25 C 635.6875 544.875 637.5625 544.875 647.5625 544.875 L 648.3125 544.125 C 647.5625 524.875 647.4375 520 647.3125 497.625 C 649.9375 495.875 652.9375 493.75 656.9375 493.75 C 663.8125 493.75 664.4375 501.125 664.8125 505.625 C 665.0625 509.75 665.1875 526.875 665.1875 531.625 C 665.1875 535.875 665.0625 540.25 665.0625 544.5 L 665.8125 545.25 C 674.0625 545 676.1875 544.875 686.1875 544.875 Z M 757.1875 478.375 L 739.8125 478.75 L 738.8125 479.625 C 736.6875 488.25 736.1875 490.125 733.1875 499.875 L 729.9375 510.625 L 727.1875 520 L 724.8125 511.125 L 721.1875 497.875 L 716.1875 478.875 L 715.1875 478.125 C 705.4375 478.875 703.3125 479 693.0625 479.25 L 692.4375 480.125 C 696.9375 492 708.5625 523.375 716.3125 547.375 C 711.1875 560.375 710.1875 562.625 704.5625 575 L 705.1875 576 C 708.3125 575.875 711.8125 575.75 715.0625 575.75 C 718.1875 575.75 721.4375 575.875 724.5625 575.875 L 725.4375 575.125 C 732.3125 548.125 735.6875 537.625 752.1875 494.125 C 754.0625 489.125 755.9375 484.25 757.6875 479.375 Z M 756.3125 545 "/>
<path fill-rule="nonzero" fill="rgb(34.901961%, 14.901961%, 14.901961%)" fill-opacity="1" d="M 261.875 606.375 C 251.875 606.75 250.25 606.75 239.75 606.75 L 239.125 607.5 C 240 621.625 240 625.25 240.125 640 C 234.625 640.125 229.125 640.25 223.5 640.25 C 219.125 640.25 214.625 640.125 210.25 640.125 L 210.5 607.125 L 209.875 606.375 C 200.25 606.75 198.375 606.75 187.5 606.75 L 186.75 607.5 C 187.375 620.375 188.125 635.75 188.125 666.75 C 188.125 678 187.875 684.125 187.625 694.625 L 188.25 695.375 C 197.375 695 199.625 694.875 210.625 695 L 211.25 694.25 C 210.5 678.75 210.375 674.25 210.25 656.125 C 215.75 655.875 220.375 655.75 225.25 655.75 C 230.25 655.75 235.25 655.875 240.25 656 C 240.5 672.875 240.5 677 239.875 694.625 L 240.5 695.375 C 249.875 695 252.375 694.875 263 695 L 263.625 694.25 C 262.625 673.25 262.25 652.375 262.25 631.375 C 262.25 622.625 262.375 616.75 262.5 607.125 Z M 333.625 676.5 C 328.875 679 323.25 681.875 314.125 681.875 C 306.625 681.875 301.5 679.5 298.5 675 C 296.625 672.375 296.25 669.875 295.75 667.375 L 336.125 666.625 L 336.875 665.75 C 336.75 659.625 336.625 653.375 334.875 647.125 C 330.5 632.375 320.875 629.375 316.625 628.375 C 313.5 627.5 310.625 627.25 307.75 627.25 C 288.125 627.25 275.125 640.125 275.125 661.75 C 275.125 667.625 276.125 673.75 278.125 678.125 C 285.375 695 302.375 696.5 311.375 696.5 C 321.75 696.5 326.25 694.625 332.875 692 L 333.625 691 L 334.5 676.875 L 333.625 676.5 M 295.75 654.125 C 296.125 650.25 297 645 301.75 642 C 303.25 641 305 640.625 306.75 640.625 C 310.875 640.625 313.375 642.75 314.75 645 C 316.5 647.75 316.625 650.75 316.625 653.625 Z M 404 657.75 C 404.125 646.5 404.125 641.625 400.875 636.375 C 398.375 632.375 393.375 627.375 377.375 627.375 C 366.625 627.375 360 629.375 352.875 631.5 L 352.125 632.5 L 351.5 646.125 L 352.5 646.625 C 356.875 644.875 365 641.625 373.375 641.625 C 378 641.625 379.875 642.375 381.5 644 C 382.75 645.25 383.125 647.5 383.125 649.375 C 368.125 651.375 361.125 652.75 353.625 657.375 C 346.625 661.75 344.25 668.875 344.25 674.5 C 344.25 687.875 353.875 696.5 366.125 696.5 C 375.5 696.5 380.875 692 383.5 689.875 L 383.5 694.5 L 384.25 695.375 C 393.25 695 396 694.875 404.125 695 L 404.75 694.125 C 403.875 681.875 403.875 678.75 403.875 667 L 404 657.75 M 383.375 677.625 C 380.75 679.125 377.375 680.875 373.25 680.875 C 368.75 680.875 365 678.5 365 673.25 C 365 665 374.875 663.625 383.375 662.5 Z M 479.875 694.25 C 479.375 683 479 675.5 479 659.125 C 479 626.125 479.5 612.5 480 596 L 479.125 595.25 L 458.5 598.5 L 457.875 599.25 C 458.625 611 458.75 614.125 458.625 628.375 C 449.25 628.125 437.5 627.875 428 635.375 C 419.25 642.125 415.625 652.5 415.625 665.375 C 415.625 675.125 418.25 684.875 425.625 691 C 431.125 695.5 437.875 696.5 442 696.5 C 450.875 696.5 455.5 692.375 458.5 689.75 L 458.25 694.625 L 458.875 695.375 C 467.5 695 469.875 695 479.25 695 L 479.875 694.25 M 458.625 643.375 C 458.75 660 458.625 663.25 458.25 678.375 C 455.75 679.875 453.25 681.375 449.75 681.375 C 437.625 681.375 437.625 665.875 437.625 663.375 C 437.625 653.75 440.375 643 454.375 643 C 455.75 643 456.875 643.125 458.625 643.375 Z M 516.125 694.125 C 515.5 679.75 514.875 666.625 514.875 627.125 C 514.875 615.25 515 609.625 515.5 596.125 L 514.625 595.25 L 493.25 598.625 L 492.75 599.375 C 494 614.625 494.125 618.75 494.375 639 C 494.5 646.375 494.5 653.75 494.5 661.125 C 494.5 674.625 494.25 682.125 493.75 694.5 L 494.5 695.375 C 502.875 695 506.25 694.875 515.375 695 Z M 586.25 657.75 C 586.375 646.5 586.375 641.625 583.125 636.375 C 580.625 632.375 575.625 627.375 559.625 627.375 C 548.875 627.375 542.25 629.375 535.125 631.5 L 534.375 632.5 L 533.75 646.125 L 534.75 646.625 C 539.125 644.875 547.25 641.625 555.625 641.625 C 560.25 641.625 562.125 642.375 563.75 644 C 565 645.25 565.375 647.5 565.375 649.375 C 550.375 651.375 543.375 652.75 535.875 657.375 C 528.875 661.75 526.5 668.875 526.5 674.5 C 526.5 687.875 536.125 696.5 548.375 696.5 C 557.75 696.5 563.125 692 565.75 689.875 L 565.75 694.5 L 566.5 695.375 C 575.5 695 578.25 694.875 586.375 695 L 587 694.125 C 586.125 681.875 586.125 678.75 586.125 667 L 586.25 657.75 M 565.625 677.625 C 563 679.125 559.625 680.875 555.5 680.875 C 551 680.875 547.25 678.5 547.25 673.25 C 547.25 665 557.125 663.625 565.625 662.5 Z M 662.125 694.125 C 661.5 683.125 661.5 679.625 661.25 667.375 L 661.25 657.625 C 661.125 645.625 661 639.875 657.875 634.75 C 654 628.25 646.875 627.25 642.375 627.25 C 634.75 627.25 628.125 631.25 622.375 634.625 L 622.625 627.75 L 621.375 626.875 C 611.75 628.875 609.625 629.25 600.25 630.5 L 599.5 631.375 C 600.5 642.25 601.25 650.125 601.25 670.5 C 601.25 678.5 601.125 686.5 601 694.5 L 601.75 695.25 C 610.75 694.875 612.625 694.875 622.625 694.875 L 623.375 694.125 C 622.625 674.875 622.5 670 622.375 647.625 C 625 645.875 628 643.75 632 643.75 C 638.875 643.75 639.5 651.125 639.875 655.625 C 640.125 659.75 640.25 676.875 640.25 681.625 C 640.25 685.875 640.125 690.25 640.125 694.5 L 640.875 695.25 C 649.125 695 651.25 694.875 661.25 694.875 Z M 737.625 694.25 C 737.125 683 736.75 675.5 736.75 659.125 C 736.75 626.125 737.25 612.5 737.75 596 L 736.875 595.25 L 716.25 598.5 L 715.625 599.25 C 716.375 611 716.5 614.125 716.375 628.375 C 707 628.125 695.25 627.875 685.75 635.375 C 677 642.125 673.375 652.5 673.375 665.375 C 673.375 675.125 676 684.875 683.375 691 C 688.875 695.5 695.625 696.5 699.75 696.5 C 708.625 696.5 713.25 692.375 716.25 689.75 L 716 694.625 L 716.625 695.375 C 725.25 695 727.625 695 737 695 L 737.625 694.25 M 716.375 643.375 C 716.5 660 716.375 663.25 716 678.375 C 713.5 679.875 711 681.375 707.5 681.375 C 695.375 681.375 695.375 665.875 695.375 663.375 C 695.375 653.75 698.125 643 712.125 643 C 713.5 643 714.625 643.125 716.375 643.375 Z M 778.125 651.875 C 773.875 650.375 770.5 649 770.5 645.5 C 770.5 644 771.5 639.875 779.25 639.875 C 786.875 639.875 791.75 643.125 794.875 645.125 L 796 644.75 L 797.25 631.125 L 796.625 630.375 C 790.75 628.75 785.625 627.25 777.5 627.25 C 771.375 627.25 759.125 627.75 752.625 637.125 C 751 639.375 749.25 643.125 749.25 648.125 C 749.25 661.5 759.625 665.5 765.5 667.75 L 770.25 669.5 C 773.625 670.625 779.125 672.5 779.125 677 C 779.125 680.125 776.25 683.5 769.25 683.5 C 765.75 683.5 760.625 682.375 756 680 C 753.875 678.875 752.875 678 751 676.5 L 749.875 677 C 749.625 683.5 749.5 684.875 749 691.125 L 749.625 692.25 C 755.75 694.5 761 696.5 770.125 696.5 C 779.625 696.5 798.375 694.75 800.625 676.875 C 800.75 675.875 800.75 675 800.75 674.125 C 800.75 660.375 791.125 656.75 784.25 654.125 Z M 804.25 695 "/>
<path fill-rule="nonzero" fill="rgb(34.901961%, 14.901961%, 14.901961%)" fill-opacity="1" d="M 232.875 791.25 C 222.375 786.875 216.875 784.625 216.875 779 C 216.875 775.125 220.5 770.25 228.75 770.25 C 238.25 770.25 243.875 774.125 248.5 777.25 L 249.625 776.75 L 250.625 760.375 L 250 759.5 C 244.625 757.25 239 754.875 226.875 754.875 C 203.375 754.875 195.25 768.125 195.25 781.5 C 195.25 796.625 207 802.125 214 805.5 L 218.125 807.375 C 226.75 811 233.375 814.125 233.375 820.75 C 233.375 825.5 229.25 831.125 218.375 831.125 C 207 831.125 200.625 826.125 197 823.25 L 195.75 823.625 L 194.875 841.25 L 195.625 842.25 C 197 842.75 198.375 843.375 199.75 843.75 C 202.625 844.75 210 846.875 219.375 846.875 C 223.125 846.875 232.625 846.5 240.125 843 C 250.625 837.875 255.125 828.375 255.125 817.75 C 255.125 810.625 252.375 803 245.75 797.875 C 242.375 795.375 239.125 793.875 236.125 792.5 Z M 302 830.625 C 299.875 831.25 298.375 831.75 296.25 831.75 C 289.875 831.75 289.375 827.75 289.125 825.875 C 288.75 822.625 288.75 815.75 288.875 810.75 L 289.125 793.125 L 300.375 793.625 L 301.125 792.875 L 302.375 779.5 L 301.625 778.75 L 289.125 778.75 L 289.5 757.75 L 288.625 757 C 280.125 759.5 277.875 760.125 269 762.375 L 268.5 763.25 L 268.625 778.875 L 261.875 778.625 L 261.125 779.25 L 260 792.625 L 260.75 793.375 L 268.625 793.125 L 268.25 813 C 268.125 816.125 268 819.25 268 822.5 C 268 834 268.25 846.375 287.75 846.375 C 292.625 846.375 296.5 845.625 300.875 844.875 L 301.75 844 L 303 831.125 Z M 366.875 807.75 C 367 796.5 367 791.625 363.75 786.375 C 361.25 782.375 356.25 777.375 340.25 777.375 C 329.5 777.375 322.875 779.375 315.75 781.5 L 315 782.5 L 314.375 796.125 L 315.375 796.625 C 319.75 794.875 327.875 791.625 336.25 791.625 C 340.875 791.625 342.75 792.375 344.375 794 C 345.625 795.25 346 797.5 346 799.375 C 331 801.375 324 802.75 316.5 807.375 C 309.5 811.75 307.125 818.875 307.125 824.5 C 307.125 837.875 316.75 846.5 329 846.5 C 338.375 846.5 343.75 842 346.375 839.875 L 346.375 844.5 L 347.125 845.375 C 356.125 845 358.875 844.875 367 845 L 367.625 844.125 C 366.75 831.875 366.75 828.75 366.75 817 L 366.875 807.75 M 346.25 827.625 C 343.625 829.125 340.25 830.875 336.125 830.875 C 331.625 830.875 327.875 828.5 327.875 823.25 C 327.875 815 337.75 813.625 346.25 812.5 Z M 416.5 830.625 C 414.375 831.25 412.875 831.75 410.75 831.75 C 404.375 831.75 403.875 827.75 403.625 825.875 C 403.25 822.625 403.25 815.75 403.375 810.75 L 403.625 793.125 L 414.875 793.625 L 415.625 792.875 L 416.875 779.5 L 416.125 778.75 L 403.625 778.75 L 404 757.75 L 403.125 757 C 394.625 759.5 392.375 760.125 383.5 762.375 L 383 763.25 L 383.125 778.875 L 376.375 778.625 L 375.625 779.25 L 374.5 792.625 L 375.25 793.375 L 383.125 793.125 L 382.75 813 C 382.625 816.125 382.5 819.25 382.5 822.5 C 382.5 834 382.75 846.375 402.25 846.375 C 407.125 846.375 411 845.625 415.375 844.875 L 416.25 844 L 417.5 831.125 Z M 481.25 826.5 C 476.5 829 470.875 831.875 461.75 831.875 C 454.25 831.875 449.125 829.5 446.125 825 C 444.25 822.375 443.875 819.875 443.375 817.375 L 483.75 816.625 L 484.5 815.75 C 484.375 809.625 484.25 803.375 482.5 797.125 C 478.125 782.375 468.5 779.375 464.25 778.375 C 461.125 777.5 458.25 777.25 455.375 777.25 C 435.75 777.25 422.75 790.125 422.75 811.75 C 422.75 817.625 423.75 823.75 425.75 828.125 C 433 845 450 846.5 459 846.5 C 469.375 846.5 473.875 844.625 480.5 842 L 481.25 841 L 482.125 826.875 L 481.25 826.5 M 443.375 804.125 C 443.75 800.25 444.625 795 449.375 792 C 450.875 791 452.625 790.625 454.375 790.625 C 458.5 790.625 461 792.75 462.375 795 C 464.125 797.75 464.25 800.75 464.25 803.625 Z M 549.25 756.5 L 533.375 756.75 L 532.625 757.5 C 533.125 773.75 533.5 784.625 533.5 799 C 533.5 814.25 533.125 829.375 532.75 844.625 L 533.5 845.375 C 542.75 845 544.75 844.875 554.75 845 L 555.375 844.25 C 554.875 830.625 554.875 827.5 554.875 814.75 C 568.875 814.875 583.875 814.875 592.875 803.875 C 596.375 799.625 599.375 792.5 599.375 783.75 C 599.375 778.375 598.125 766.5 587.75 760.625 C 580.25 756.25 569.625 756.25 560.25 756.25 L 549.25 756.5 M 554.875 771.625 C 557.625 771.5 560.25 771.5 563 771.5 C 574 771.75 577 777.375 577 784.625 C 577 786.375 577 793.625 570.375 797.25 C 567 799.125 562.375 799.375 554.875 799.375 Z M 663.625 807.75 C 663.75 796.5 663.75 791.625 660.5 786.375 C 658 782.375 653 777.375 637 777.375 C 626.25 777.375 619.625 779.375 612.5 781.5 L 611.75 782.5 L 611.125 796.125 L 612.125 796.625 C 616.5 794.875 624.625 791.625 633 791.625 C 637.625 791.625 639.5 792.375 641.125 794 C 642.375 795.25 642.75 797.5 642.75 799.375 C 627.75 801.375 620.75 802.75 613.25 807.375 C 606.25 811.75 603.875 818.875 603.875 824.5 C 603.875 837.875 613.5 846.5 625.75 846.5 C 635.125 846.5 640.5 842 643.125 839.875 L 643.125 844.5 L 643.875 845.375 C 652.875 845 655.625 844.875 663.75 845 L 664.375 844.125 C 663.5 831.875 663.5 828.75 663.5 817 L 663.625 807.75 M 643 827.625 C 640.375 829.125 637 830.875 632.875 830.875 C 628.375 830.875 624.625 828.5 624.625 823.25 C 624.625 815 634.5 813.625 643 812.5 Z M 714.375 798.625 L 717.875 778.25 L 717.125 777.375 C 716.25 777.375 715.375 777.25 714.5 777.25 C 709.375 777.25 703.625 780.125 699.625 789.375 L 700 777.875 L 699 776.875 C 689.75 778.875 687.375 779.25 678.25 780.625 L 677.5 781.375 C 678.25 790.75 678.625 796.375 678.625 813.75 C 678.625 824 678.5 834.25 678.25 844.625 L 679 845.375 C 688.25 845 690.25 844.875 700.25 845 L 700.875 844.125 C 700.375 834 699.625 819.875 699.625 811.25 C 699.625 805.625 699.625 797.375 708.125 797.375 C 710.25 797.375 711.5 798.125 713.25 799.125 Z M 789.375 843.375 C 777.625 823.5 776.375 821.25 766.875 804.125 C 775.5 792.375 776.375 791.125 785.25 779.75 L 784.625 778.5 L 764.25 778.75 L 763 779.625 C 753.25 796.5 752 798.5 746.25 807.125 L 746.25 793.25 C 746.375 769.875 746.5 764.875 747.125 746 L 746.125 745.25 L 724.375 748.5 L 723.625 749.375 C 724.5 761.5 724.875 767.375 725.125 783.75 C 725.375 804 725.375 824.25 725.25 844.5 L 726.125 845.375 C 734.5 845 736.875 845 746.375 845 L 747.125 844.125 L 746.375 823 L 746.25 808.625 C 757.125 828.625 758.5 831.375 764.875 844.625 L 766 845.375 L 788.5 844.5 Z M 787.875 845 "/>
</svg>
