<?xml version="1.0" encoding="UTF-8"?>
<svg xmlns="http://www.w3.org/2000/svg" xmlns:xlink="http://www.w3.org/1999/xlink" width="975" height="1300" viewBox="0 0 975 1300">
<path fill-rule="nonzero" fill="rgb(34.901961%, 14.901961%, 14.901961%)" fill-opacity="1" d="M 279.9375 456.375 C 269.9375 456.75 268.3125 456.75 257.8125 456.75 L 257.1875 457.5 C 258.0625 471.625 258.0625 475.25 258.1875 490 C 252.6875 490.125 247.1875 490.25 241.5625 490.25 C 237.1875 490.25 232.6875 490.125 228.3125 490.125 L 228.5625 457.125 L 227.9375 456.375 C 218.3125 456.75 216.4375 456.75 205.5625 456.75 L 204.8125 457.5 C 205.4375 470.375 206.1875 485.75 206.1875 516.75 C 206.1875 528 205.9375 534.125 205.6875 544.625 L 206.3125 545.375 C 215.4375 545 217.6875 544.875 228.6875 545 L 229.3125 544.25 C 228.5625 528.75 228.4375 524.25 228.3125 506.125 C 233.8125 505.875 238.4375 505.75 243.3125 505.75 C 248.3125 505.75 253.3125 505.875 258.3125 506 C 258.5625 522.875 258.5625 527 257.9375 544.625 L 258.5625 545.375 C 267.9375 545 270.4375 544.875 281.0625 545 L 281.6875 544.25 C 280.6875 523.25 280.3125 502.375 280.3125 481.375 C 280.3125 472.625 280.4375 466.75 280.5625 457.125 Z M 356.1875 478.125 L 335.8125 479.125 L 334.9375 479.875 C 335.8125 494 335.8125 514 335.8125 516 C 335.8125 519.625 335.8125 521.625 335.6875 526.625 C 332.3125 528.875 329.6875 530.75 326.3125 530.75 C 317.3125 530.75 317.3125 521.25 317.3125 513.875 C 317.3125 510.75 317.3125 507.5 317.4375 504.375 L 317.6875 479.125 L 316.8125 478.125 L 296.1875 479.125 L 295.3125 479.875 C 296.0625 490.375 296.1875 493.875 296.1875 506.5 L 296.1875 515.25 C 296.0625 528.875 296.6875 534.625 301.1875 539.875 C 305.3125 544.5 311.3125 546.5 317.5625 546.5 C 326.4375 546.5 331.5625 542.5 336.0625 539 L 335.9375 544.625 L 336.8125 545.375 C 345.9375 545 348.6875 545 356.8125 545 L 357.5625 544.25 C 356.9375 535.375 356.6875 530.625 356.6875 514.375 C 356.6875 502.625 356.8125 490.875 357.0625 479.125 Z M 469.3125 544.125 C 468.6875 532.5 468.5625 529.25 468.5625 515.125 L 468.5625 505.75 C 468.6875 497.375 468.8125 489.625 465.1875 484.375 C 460.3125 477.25 451.6875 477.25 449.6875 477.25 C 439.4375 477.25 432.5625 481.875 427.5625 485.375 C 425.8125 482.5 422.6875 477.25 412.6875 477.25 C 404.4375 477.25 399.0625 481 393.3125 485 L 393.3125 478 L 392.1875 476.875 C 382.4375 478.75 379.6875 479.25 370.9375 480.5 L 370.1875 481.375 C 371.1875 491.375 371.9375 498.25 371.9375 523 C 371.9375 530.125 371.8125 537.375 371.8125 544.5 L 372.4375 545.25 C 380.4375 545 383.1875 544.875 393.5625 544.875 L 394.3125 544.125 C 393.4375 524.875 393.3125 519.125 393.1875 497.375 C 395.8125 495.5 398.6875 493.875 401.8125 493.875 C 409.5625 493.875 409.8125 502.75 409.8125 513.5 C 409.8125 531.625 409.6875 534.375 409.4375 544.5 L 410.1875 545.375 C 419.6875 544.875 422.3125 544.875 430.9375 544.875 L 431.6875 544.125 C 430.9375 532.25 430.8125 528.75 430.6875 513.625 L 430.6875 509 L 430.5625 496.375 C 432.6875 495 435.4375 493.25 439.1875 493.25 C 446.3125 493.25 447.4375 500 447.4375 510.75 C 447.4375 513.125 447.3125 515.5 447.3125 517.875 C 447.1875 522.125 447.0625 540.75 446.9375 544.5 L 447.6875 545.25 C 457.0625 544.875 459.8125 544.875 468.5625 544.875 Z M 492.6875 545.25 L 495.1875 545.25 C 515.1875 545.25 528.0625 544.25 537.5625 534.125 C 546.4375 524.625 547.3125 513.375 547.3125 508.125 C 547.3125 490.75 537.3125 477.25 520.3125 477.25 C 512.0625 477.25 507.6875 480 504.1875 482.25 L 504.9375 446 L 503.9375 445.25 L 483.1875 448.5 L 482.4375 449.375 C 483.4375 459.875 483.8125 464.125 483.8125 489.25 C 483.8125 500 483.6875 521.25 483.5625 544.5 L 484.4375 545.375 L 492.6875 545.25 M 504.6875 494.625 C 507.1875 493.375 509.5625 492.125 512.8125 492.125 C 521.0625 492.125 525.8125 499.5 525.8125 511 C 525.8125 520 521.8125 525.875 518.4375 528.25 C 514.3125 531.125 508.9375 531.25 504.6875 531.375 Z M 622.8125 511.75 C 622.8125 506.875 622.8125 486.625 605.3125 479.75 C 599.8125 477.625 593.3125 477.375 590.0625 477.375 C 568.3125 477.375 556.0625 489 556.0625 512 C 556.0625 520 557.3125 528.125 561.9375 534.875 C 565.1875 539.75 571.3125 546.5 589.1875 546.5 C 615.6875 546.5 622.8125 530.5 622.8125 511.75 M 601.1875 511.625 C 601.1875 521.875 599.8125 533.25 589.4375 533.25 C 586.1875 533.25 583.9375 531.75 582.4375 530.375 C 580.3125 528.25 577.9375 524 577.9375 511.875 C 577.9375 508.25 577.9375 500.25 580.4375 495.875 C 582.3125 492.5 585.5625 490.25 589.5625 490.25 C 593.0625 490.25 595.9375 492.125 597.5625 494.125 C 600.5625 497.75 601.1875 504.875 601.1875 511.625 Z M 656.6875 544.125 C 656.0625 529.75 655.4375 516.625 655.4375 477.125 C 655.4375 465.25 655.5625 459.625 656.0625 446.125 L 655.1875 445.25 L 633.8125 448.625 L 633.3125 449.375 C 634.5625 464.625 634.6875 468.75 634.9375 489 C 635.0625 496.375 635.0625 503.75 635.0625 511.125 C 635.0625 524.625 634.8125 532.125 634.3125 544.5 L 635.0625 545.375 C 643.4375 545 646.8125 544.875 655.9375 545 Z M 732.4375 544.25 C 731.9375 533 731.5625 525.5 731.5625 509.125 C 731.5625 476.125 732.0625 462.5 732.5625 446 L 731.6875 445.25 L 711.0625 448.5 L 710.4375 449.25 C 711.1875 461 711.3125 464.125 711.1875 478.375 C 701.8125 478.125 690.0625 477.875 680.5625 485.375 C 671.8125 492.125 668.1875 502.5 668.1875 515.375 C 668.1875 525.125 670.8125 534.875 678.1875 541 C 683.6875 545.5 690.4375 546.5 694.5625 546.5 C 703.4375 546.5 708.0625 542.375 711.0625 539.75 L 710.8125 544.625 L 711.4375 545.375 C 720.0625 545 722.4375 545 731.8125 545 L 732.4375 544.25 M 711.1875 493.375 C 711.3125 510 711.1875 513.25 710.8125 528.375 C 708.3125 529.875 705.8125 531.375 702.3125 531.375 C 690.1875 531.375 690.1875 515.875 690.1875 513.375 C 690.1875 503.75 692.9375 493 706.9375 493 C 708.3125 493 709.4375 493.125 711.1875 493.375 Z M 781.6875 530.625 C 779.5625 531.25 778.0625 531.75 775.9375 531.75 C 769.5625 531.75 769.0625 527.75 768.8125 525.875 C 768.4375 522.625 768.4375 515.75 768.5625 510.75 L 768.8125 493.125 L 780.0625 493.625 L 780.8125 492.875 L 782.0625 479.5 L 781.3125 478.75 L 768.8125 478.75 L 769.1875 457.75 L 768.3125 457 C 759.8125 459.5 757.5625 460.125 748.6875 462.375 L 748.1875 463.25 L 748.3125 478.875 L 741.5625 478.625 L 740.8125 479.25 L 739.6875 492.625 L 740.4375 493.375 L 748.3125 493.125 L 747.9375 513 C 747.8125 516.125 747.6875 519.25 747.6875 522.5 C 747.6875 534 747.9375 546.375 767.4375 546.375 C 772.3125 546.375 776.1875 545.625 780.5625 544.875 L 781.4375 544 L 782.6875 531.125 Z M 783.4375 545 "/>
<path fill-rule="nonzero" fill="rgb(34.901961%, 14.901961%, 14.901961%)" fill-opacity="1" d="M 140.9375 677.875 C 127.3125 678.625 116.4375 678.875 112.6875 678.875 L 110.1875 678.875 C 109.9375 645.5 110.0625 637 111.0625 607.125 L 110.3125 606.375 C 99.5625 606.875 96.6875 606.875 88.0625 606.75 L 87.3125 607.5 C 87.8125 617.5 87.9375 620.5 87.9375 635.375 C 87.9375 655.125 87.8125 674.875 87.8125 694.625 L 88.4375 695.375 C 112.9375 695 117.4375 695 139.9375 695 L 140.5625 694.25 L 141.5625 678.5 Z M 207.9375 657.75 C 208.0625 646.5 208.0625 641.625 204.8125 636.375 C 202.3125 632.375 197.3125 627.375 181.3125 627.375 C 170.5625 627.375 163.9375 629.375 156.8125 631.5 L 156.0625 632.5 L 155.4375 646.125 L 156.4375 646.625 C 160.8125 644.875 168.9375 641.625 177.3125 641.625 C 181.9375 641.625 183.8125 642.375 185.4375 644 C 186.6875 645.25 187.0625 647.5 187.0625 649.375 C 172.0625 651.375 165.0625 652.75 157.5625 657.375 C 150.5625 661.75 148.1875 668.875 148.1875 674.5 C 148.1875 687.875 157.8125 696.5 170.0625 696.5 C 179.4375 696.5 184.8125 692 187.4375 689.875 L 187.4375 694.5 L 188.1875 695.375 C 197.1875 695 199.9375 694.875 208.0625 695 L 208.6875 694.125 C 207.8125 681.875 207.8125 678.75 207.8125 667 L 207.9375 657.75 M 187.3125 677.625 C 184.6875 679.125 181.3125 680.875 177.1875 680.875 C 172.6875 680.875 168.9375 678.5 168.9375 673.25 C 168.9375 665 178.8125 663.625 187.3125 662.5 Z M 245.5625 673.875 C 249.5625 674 253.5625 674.25 259.5625 672.25 C 266.0625 670 275.5625 664.625 275.5625 652.5 C 275.5625 646.5 273.8125 644 272.1875 641.625 L 280.8125 642.125 L 281.5625 641.5 L 282.4375 629 L 281.6875 628.375 C 272.0625 628.75 269.4375 628.875 261.5625 628.75 L 255.8125 628.625 C 246.9375 628.375 235.0625 628.125 226.9375 634.875 C 224.1875 637 218.9375 642.375 218.9375 651.75 C 218.9375 656.75 220.3125 660.75 222.5625 663.875 C 225.3125 667.75 227.8125 669.125 230.9375 670.875 C 227.4375 677.625 225.5625 681 222.6875 686.125 L 222.6875 687.25 L 227.9375 691 C 224.1875 693.875 218.3125 698.625 218.3125 706.75 C 218.3125 712.5 221.4375 717.5 226.0625 720.875 C 233.0625 725.875 242.5625 726.125 247.4375 726.125 C 270.3125 726.125 280.8125 714.625 280.8125 702.5 C 280.8125 686.75 267.0625 683.75 258.9375 681.875 L 255.9375 681.375 C 249.8125 680.375 248.4375 680 243.5625 678.25 L 245.5625 673.875 M 255.8125 651.375 C 255.6875 661.5 249.5625 662.375 247.8125 662.375 C 246.8125 662.375 242.4375 662.125 240.3125 657.125 C 239.1875 654.5 239.1875 651.5 239.1875 650.625 C 239.1875 644.375 242.9375 640.375 247.5625 640.375 C 253.3125 640.375 255.9375 645.875 255.8125 651.375 M 245.1875 698 C 256.3125 700.875 256.4375 700.875 257.9375 702.125 C 259.1875 703 260.4375 704.375 260.4375 707 C 260.4375 710.75 257.3125 714.625 249.0625 714.625 C 239.8125 714.625 236.6875 709.375 236.6875 705 C 236.6875 700.875 238.8125 698.5 240.3125 696.75 Z M 353.9375 661.75 C 353.9375 656.875 353.9375 636.625 336.4375 629.75 C 330.9375 627.625 324.4375 627.375 321.1875 627.375 C 299.4375 627.375 287.1875 639 287.1875 662 C 287.1875 670 288.4375 678.125 293.0625 684.875 C 296.3125 689.75 302.4375 696.5 320.3125 696.5 C 346.8125 696.5 353.9375 680.5 353.9375 661.75 M 332.3125 661.625 C 332.3125 671.875 330.9375 683.25 320.5625 683.25 C 317.3125 683.25 315.0625 681.75 313.5625 680.375 C 311.4375 678.25 309.0625 674 309.0625 661.875 C 309.0625 658.25 309.0625 650.25 311.5625 645.875 C 313.4375 642.5 316.6875 640.25 320.6875 640.25 C 324.1875 640.25 327.0625 642.125 328.6875 644.125 C 331.6875 647.75 332.3125 654.875 332.3125 661.625 Z M 429.4375 661.75 C 429.4375 656.875 429.4375 636.625 411.9375 629.75 C 406.4375 627.625 399.9375 627.375 396.6875 627.375 C 374.9375 627.375 362.6875 639 362.6875 662 C 362.6875 670 363.9375 678.125 368.5625 684.875 C 371.8125 689.75 377.9375 696.5 395.8125 696.5 C 422.3125 696.5 429.4375 680.5 429.4375 661.75 M 407.8125 661.625 C 407.8125 671.875 406.4375 683.25 396.0625 683.25 C 392.8125 683.25 390.5625 681.75 389.0625 680.375 C 386.9375 678.25 384.5625 674 384.5625 661.875 C 384.5625 658.25 384.5625 650.25 387.0625 645.875 C 388.9375 642.5 392.1875 640.25 396.1875 640.25 C 399.6875 640.25 402.5625 642.125 404.1875 644.125 C 407.1875 647.75 407.8125 654.875 407.8125 661.625 Z M 502.5625 694.125 C 501.9375 683.125 501.9375 679.625 501.6875 667.375 L 501.6875 657.625 C 501.5625 645.625 501.4375 639.875 498.3125 634.75 C 494.4375 628.25 487.3125 627.25 482.8125 627.25 C 475.1875 627.25 468.5625 631.25 462.8125 634.625 L 463.0625 627.75 L 461.8125 626.875 C 452.1875 628.875 450.0625 629.25 440.6875 630.5 L 439.9375 631.375 C 440.9375 642.25 441.6875 650.125 441.6875 670.5 C 441.6875 678.5 441.5625 686.5 441.4375 694.5 L 442.1875 695.25 C 451.1875 694.875 453.0625 694.875 463.0625 694.875 L 463.8125 694.125 C 463.0625 674.875 462.9375 670 462.8125 647.625 C 465.4375 645.875 468.4375 643.75 472.4375 643.75 C 479.3125 643.75 479.9375 651.125 480.3125 655.625 C 480.5625 659.75 480.6875 676.875 480.6875 681.625 C 480.6875 685.875 480.5625 690.25 480.5625 694.5 L 481.3125 695.25 C 489.5625 695 491.6875 694.875 501.6875 694.875 Z M 543.0625 651.875 C 538.8125 650.375 535.4375 649 535.4375 645.5 C 535.4375 644 536.4375 639.875 544.1875 639.875 C 551.8125 639.875 556.6875 643.125 559.8125 645.125 L 560.9375 644.75 L 562.1875 631.125 L 561.5625 630.375 C 555.6875 628.75 550.5625 627.25 542.4375 627.25 C 536.3125 627.25 524.0625 627.75 517.5625 637.125 C 515.9375 639.375 514.1875 643.125 514.1875 648.125 C 514.1875 661.5 524.5625 665.5 530.4375 667.75 L 535.1875 669.5 C 538.5625 670.625 544.0625 672.5 544.0625 677 C 544.0625 680.125 541.1875 683.5 534.1875 683.5 C 530.6875 683.5 525.5625 682.375 520.9375 680 C 518.8125 678.875 517.8125 678 515.9375 676.5 L 514.8125 677 C 514.5625 683.5 514.4375 684.875 513.9375 691.125 L 514.5625 692.25 C 520.6875 694.5 525.9375 696.5 535.0625 696.5 C 544.5625 696.5 563.3125 694.75 565.5625 676.875 C 565.6875 675.875 565.6875 675 565.6875 674.125 C 565.6875 660.375 556.0625 656.75 549.1875 654.125 Z M 649.3125 641.25 C 638.8125 636.875 633.3125 634.625 633.3125 629 C 633.3125 625.125 636.9375 620.25 645.1875 620.25 C 654.6875 620.25 660.3125 624.125 664.9375 627.25 L 666.0625 626.75 L 667.0625 610.375 L 666.4375 609.5 C 661.0625 607.25 655.4375 604.875 643.3125 604.875 C 619.8125 604.875 611.6875 618.125 611.6875 631.5 C 611.6875 646.625 623.4375 652.125 630.4375 655.5 L 634.5625 657.375 C 643.1875 661 649.8125 664.125 649.8125 670.75 C 649.8125 675.5 645.6875 681.125 634.8125 681.125 C 623.4375 681.125 617.0625 676.125 613.4375 673.25 L 612.1875 673.625 L 611.3125 691.25 L 612.0625 692.25 C 613.4375 692.75 614.8125 693.375 616.1875 693.75 C 619.0625 694.75 626.4375 696.875 635.8125 696.875 C 639.5625 696.875 649.0625 696.5 656.5625 693 C 667.0625 687.875 671.5625 678.375 671.5625 667.75 C 671.5625 660.625 668.8125 653 662.1875 647.875 C 658.8125 645.375 655.5625 643.875 652.5625 642.5 Z M 718.4375 680.625 C 716.3125 681.25 714.8125 681.75 712.6875 681.75 C 706.3125 681.75 705.8125 677.75 705.5625 675.875 C 705.1875 672.625 705.1875 665.75 705.3125 660.75 L 705.5625 643.125 L 716.8125 643.625 L 717.5625 642.875 L 718.8125 629.5 L 718.0625 628.75 L 705.5625 628.75 L 705.9375 607.75 L 705.0625 607 C 696.5625 609.5 694.3125 610.125 685.4375 612.375 L 684.9375 613.25 L 685.0625 628.875 L 678.3125 628.625 L 677.5625 629.25 L 676.4375 642.625 L 677.1875 643.375 L 685.0625 643.125 L 684.6875 663 C 684.5625 666.125 684.4375 669.25 684.4375 672.5 C 684.4375 684 684.6875 696.375 704.1875 696.375 C 709.0625 696.375 712.9375 695.625 717.3125 694.875 L 718.1875 694 L 719.4375 681.125 Z M 783.3125 657.75 C 783.4375 646.5 783.4375 641.625 780.1875 636.375 C 777.6875 632.375 772.6875 627.375 756.6875 627.375 C 745.9375 627.375 739.3125 629.375 732.1875 631.5 L 731.4375 632.5 L 730.8125 646.125 L 731.8125 646.625 C 736.1875 644.875 744.3125 641.625 752.6875 641.625 C 757.3125 641.625 759.1875 642.375 760.8125 644 C 762.0625 645.25 762.4375 647.5 762.4375 649.375 C 747.4375 651.375 740.4375 652.75 732.9375 657.375 C 725.9375 661.75 723.5625 668.875 723.5625 674.5 C 723.5625 687.875 733.1875 696.5 745.4375 696.5 C 754.8125 696.5 760.1875 692 762.8125 689.875 L 762.8125 694.5 L 763.5625 695.375 C 772.5625 695 775.3125 694.875 783.4375 695 L 784.0625 694.125 C 783.1875 681.875 783.1875 678.75 783.1875 667 L 783.3125 657.75 M 762.6875 677.625 C 760.0625 679.125 756.6875 680.875 752.5625 680.875 C 748.0625 680.875 744.3125 678.5 744.3125 673.25 C 744.3125 665 754.1875 663.625 762.6875 662.5 Z M 832.9375 680.625 C 830.8125 681.25 829.3125 681.75 827.1875 681.75 C 820.8125 681.75 820.3125 677.75 820.0625 675.875 C 819.6875 672.625 819.6875 665.75 819.8125 660.75 L 820.0625 643.125 L 831.3125 643.625 L 832.0625 642.875 L 833.3125 629.5 L 832.5625 628.75 L 820.0625 628.75 L 820.4375 607.75 L 819.5625 607 C 811.0625 609.5 808.8125 610.125 799.9375 612.375 L 799.4375 613.25 L 799.5625 628.875 L 792.8125 628.625 L 792.0625 629.25 L 790.9375 642.625 L 791.6875 643.375 L 799.5625 643.125 L 799.1875 663 C 799.0625 666.125 798.9375 669.25 798.9375 672.5 C 798.9375 684 799.1875 696.375 818.6875 696.375 C 823.5625 696.375 827.4375 695.625 831.8125 694.875 L 832.6875 694 L 833.9375 681.125 Z M 897.6875 676.5 C 892.9375 679 887.3125 681.875 878.1875 681.875 C 870.6875 681.875 865.5625 679.5 862.5625 675 C 860.6875 672.375 860.3125 669.875 859.8125 667.375 L 900.1875 666.625 L 900.9375 665.75 C 900.8125 659.625 900.6875 653.375 898.9375 647.125 C 894.5625 632.375 884.9375 629.375 880.6875 628.375 C 877.5625 627.5 874.6875 627.25 871.8125 627.25 C 852.1875 627.25 839.1875 640.125 839.1875 661.75 C 839.1875 667.625 840.1875 673.75 842.1875 678.125 C 849.4375 695 866.4375 696.5 875.4375 696.5 C 885.8125 696.5 890.3125 694.625 896.9375 692 L 897.6875 691 L 898.5625 676.875 L 897.6875 676.5 M 859.8125 654.125 C 860.1875 650.25 861.0625 645 865.8125 642 C 867.3125 641 869.0625 640.625 870.8125 640.625 C 874.9375 640.625 877.4375 642.75 878.8125 645 C 880.5625 647.75 880.6875 650.75 880.6875 653.625 Z M 904.9375 695 "/>
<path fill-rule="nonzero" fill="rgb(34.901961%, 14.901961%, 14.901961%)" fill-opacity="1" d="M 382.375 756.5 L 366.5 756.75 L 365.75 757.5 C 366.25 773.75 366.625 784.625 366.625 799 C 366.625 814.25 366.25 829.375 365.875 844.625 L 366.625 845.375 C 375.875 845 377.875 844.875 387.875 845 L 388.5 844.25 C 388 830.625 388 827.5 388 814.75 C 402 814.875 417 814.875 426 803.875 C 429.5 799.625 432.5 792.5 432.5 783.75 C 432.5 778.375 431.25 766.5 420.875 760.625 C 413.375 756.25 402.75 756.25 393.375 756.25 L 382.375 756.5 M 388 771.625 C 390.75 771.5 393.375 771.5 396.125 771.5 C 407.125 771.75 410.125 777.375 410.125 784.625 C 410.125 786.375 410.125 793.625 403.5 797.25 C 400.125 799.125 395.5 799.375 388 799.375 Z M 496.75 807.75 C 496.875 796.5 496.875 791.625 493.625 786.375 C 491.125 782.375 486.125 777.375 470.125 777.375 C 459.375 777.375 452.75 779.375 445.625 781.5 L 444.875 782.5 L 444.25 796.125 L 445.25 796.625 C 449.625 794.875 457.75 791.625 466.125 791.625 C 470.75 791.625 472.625 792.375 474.25 794 C 475.5 795.25 475.875 797.5 475.875 799.375 C 460.875 801.375 453.875 802.75 446.375 807.375 C 439.375 811.75 437 818.875 437 824.5 C 437 837.875 446.625 846.5 458.875 846.5 C 468.25 846.5 473.625 842 476.25 839.875 L 476.25 844.5 L 477 845.375 C 486 845 488.75 844.875 496.875 845 L 497.5 844.125 C 496.625 831.875 496.625 828.75 496.625 817 L 496.75 807.75 M 476.125 827.625 C 473.5 829.125 470.125 830.875 466 830.875 C 461.5 830.875 457.75 828.5 457.75 823.25 C 457.75 815 467.625 813.625 476.125 812.5 Z M 547.5 798.625 L 551 778.25 L 550.25 777.375 C 549.375 777.375 548.5 777.25 547.625 777.25 C 542.5 777.25 536.75 780.125 532.75 789.375 L 533.125 777.875 L 532.125 776.875 C 522.875 778.875 520.5 779.25 511.375 780.625 L 510.625 781.375 C 511.375 790.75 511.75 796.375 511.75 813.75 C 511.75 824 511.625 834.25 511.375 844.625 L 512.125 845.375 C 521.375 845 523.375 844.875 533.375 845 L 534 844.125 C 533.5 834 532.75 819.875 532.75 811.25 C 532.75 805.625 532.75 797.375 541.25 797.375 C 543.375 797.375 544.625 798.125 546.375 799.125 Z M 622.5 843.375 C 610.75 823.5 609.5 821.25 600 804.125 C 608.625 792.375 609.5 791.125 618.375 779.75 L 617.75 778.5 L 597.375 778.75 L 596.125 779.625 C 586.375 796.5 585.125 798.5 579.375 807.125 L 579.375 793.25 C 579.5 769.875 579.625 764.875 580.25 746 L 579.25 745.25 L 557.5 748.5 L 556.75 749.375 C 557.625 761.5 558 767.375 558.25 783.75 C 558.5 804 558.5 824.25 558.375 844.5 L 559.25 845.375 C 567.625 845 570 845 579.5 845 L 580.25 844.125 L 579.5 823 L 579.375 808.625 C 590.25 828.625 591.625 831.375 598 844.625 L 599.125 845.375 L 621.625 844.5 Z M 621 845 "/>
</svg>
