<?xml version="1.0" encoding="UTF-8"?>
<svg xmlns="http://www.w3.org/2000/svg" xmlns:xlink="http://www.w3.org/1999/xlink" width="975" height="1300" viewBox="0 0 975 1300">
<path fill-rule="nonzero" fill="rgb(34.901961%, 14.901961%, 14.901961%)" fill-opacity="1" d="M 142.9375 548.25 L 143.6875 547.625 L 144.5625 532 L 143.9375 531.625 L 82.0625 531.625 L 81.1875 532.375 L 80.3125 547.75 L 80.9375 548.5 L 101.3125 548 C 101.4375 580.75 101.4375 588.625 100.4375 619.625 L 101.1875 620.375 C 110.4375 620 112.9375 619.875 123.3125 619.875 L 124.0625 619.125 C 123.4375 601.625 123.1875 584.125 123.1875 566.5 C 123.1875 559.625 123.3125 555.75 123.5625 547.75 Z M 188.6875 573.625 L 192.1875 553.25 L 191.4375 552.375 C 190.5625 552.375 189.6875 552.25 188.8125 552.25 C 183.6875 552.25 177.9375 555.125 173.9375 564.375 L 174.3125 552.875 L 173.3125 551.875 C 164.0625 553.875 161.6875 554.25 152.5625 555.625 L 151.8125 556.375 C 152.5625 565.75 152.9375 571.375 152.9375 588.75 C 152.9375 599 152.8125 609.25 152.5625 619.625 L 153.3125 620.375 C 162.5625 620 164.5625 619.875 174.5625 620 L 175.1875 619.125 C 174.6875 609 173.9375 594.875 173.9375 586.25 C 173.9375 580.625 173.9375 572.375 182.4375 572.375 C 184.5625 572.375 185.8125 573.125 187.5625 574.125 Z M 222.0625 619.125 C 221.4375 609.5 220.9375 602.125 220.9375 584.875 C 220.9375 574.25 221.1875 563.5 221.3125 552.875 L 220.4375 551.875 L 198.9375 555.625 L 198.1875 556.375 C 199.1875 565.875 199.5625 570.25 199.5625 588 C 199.5625 601.625 199.1875 609.25 198.8125 619.5 L 199.5625 620.375 C 208.5625 620 211.0625 619.875 221.1875 620 L 222.0625 619.125 M 220.0625 539.875 L 220.4375 522.875 L 219.6875 522.125 L 199.3125 524.625 L 198.5625 525.5 C 198.8125 530 198.9375 532.625 198.9375 535.625 C 198.9375 538 198.9375 540.5 198.8125 542.875 L 199.6875 543.625 C 208.1875 542.125 210.5625 541.875 219.4375 540.75 Z M 297.1875 619.125 C 296.5625 608.125 296.5625 604.625 296.3125 592.375 L 296.3125 582.625 C 296.1875 570.625 296.0625 564.875 292.9375 559.75 C 289.0625 553.25 281.9375 552.25 277.4375 552.25 C 269.8125 552.25 263.1875 556.25 257.4375 559.625 L 257.6875 552.75 L 256.4375 551.875 C 246.8125 553.875 244.6875 554.25 235.3125 555.5 L 234.5625 556.375 C 235.5625 567.25 236.3125 575.125 236.3125 595.5 C 236.3125 603.5 236.1875 611.5 236.0625 619.5 L 236.8125 620.25 C 245.8125 619.875 247.6875 619.875 257.6875 619.875 L 258.4375 619.125 C 257.6875 599.875 257.5625 595 257.4375 572.625 C 260.0625 570.875 263.0625 568.75 267.0625 568.75 C 273.9375 568.75 274.5625 576.125 274.9375 580.625 C 275.1875 584.75 275.3125 601.875 275.3125 606.625 C 275.3125 610.875 275.1875 615.25 275.1875 619.5 L 275.9375 620.25 C 284.1875 620 286.3125 619.875 296.3125 619.875 Z M 334.0625 619.125 C 333.4375 609.5 332.9375 602.125 332.9375 584.875 C 332.9375 574.25 333.1875 563.5 333.3125 552.875 L 332.4375 551.875 L 310.9375 555.625 L 310.1875 556.375 C 311.1875 565.875 311.5625 570.25 311.5625 588 C 311.5625 601.625 311.1875 609.25 310.8125 619.5 L 311.5625 620.375 C 320.5625 620 323.0625 619.875 333.1875 620 L 334.0625 619.125 M 332.0625 539.875 L 332.4375 522.875 L 331.6875 522.125 L 311.3125 524.625 L 310.5625 525.5 C 310.8125 530 310.9375 532.625 310.9375 535.625 C 310.9375 538 310.9375 540.5 310.8125 542.875 L 311.6875 543.625 C 320.1875 542.125 322.5625 541.875 331.4375 540.75 Z M 409.1875 619.25 C 408.6875 608 408.3125 600.5 408.3125 584.125 C 408.3125 551.125 408.8125 537.5 409.3125 521 L 408.4375 520.25 L 387.8125 523.5 L 387.1875 524.25 C 387.9375 536 388.0625 539.125 387.9375 553.375 C 378.5625 553.125 366.8125 552.875 357.3125 560.375 C 348.5625 567.125 344.9375 577.5 344.9375 590.375 C 344.9375 600.125 347.5625 609.875 354.9375 616 C 360.4375 620.5 367.1875 621.5 371.3125 621.5 C 380.1875 621.5 384.8125 617.375 387.8125 614.75 L 387.5625 619.625 L 388.1875 620.375 C 396.8125 620 399.1875 620 408.5625 620 L 409.1875 619.25 M 387.9375 568.375 C 388.0625 585 387.9375 588.25 387.5625 603.375 C 385.0625 604.875 382.5625 606.375 379.0625 606.375 C 366.9375 606.375 366.9375 590.875 366.9375 588.375 C 366.9375 578.75 369.6875 568 383.6875 568 C 385.0625 568 386.1875 568.125 387.9375 568.375 Z M 479.0625 582.75 C 479.1875 571.5 479.1875 566.625 475.9375 561.375 C 473.4375 557.375 468.4375 552.375 452.4375 552.375 C 441.6875 552.375 435.0625 554.375 427.9375 556.5 L 427.1875 557.5 L 426.5625 571.125 L 427.5625 571.625 C 431.9375 569.875 440.0625 566.625 448.4375 566.625 C 453.0625 566.625 454.9375 567.375 456.5625 569 C 457.8125 570.25 458.1875 572.5 458.1875 574.375 C 443.1875 576.375 436.1875 577.75 428.6875 582.375 C 421.6875 586.75 419.3125 593.875 419.3125 599.5 C 419.3125 612.875 428.9375 621.5 441.1875 621.5 C 450.5625 621.5 455.9375 617 458.5625 614.875 L 458.5625 619.5 L 459.3125 620.375 C 468.3125 620 471.0625 619.875 479.1875 620 L 479.8125 619.125 C 478.9375 606.875 478.9375 603.75 478.9375 592 L 479.0625 582.75 M 458.4375 602.625 C 455.8125 604.125 452.4375 605.875 448.3125 605.875 C 443.8125 605.875 440.0625 603.5 440.0625 598.25 C 440.0625 590 449.9375 588.625 458.4375 587.5 Z M 554.9375 619.25 C 554.4375 608 554.0625 600.5 554.0625 584.125 C 554.0625 551.125 554.5625 537.5 555.0625 521 L 554.1875 520.25 L 533.5625 523.5 L 532.9375 524.25 C 533.6875 536 533.8125 539.125 533.6875 553.375 C 524.3125 553.125 512.5625 552.875 503.0625 560.375 C 494.3125 567.125 490.6875 577.5 490.6875 590.375 C 490.6875 600.125 493.3125 609.875 500.6875 616 C 506.1875 620.5 512.9375 621.5 517.0625 621.5 C 525.9375 621.5 530.5625 617.375 533.5625 614.75 L 533.3125 619.625 L 533.9375 620.375 C 542.5625 620 544.9375 620 554.3125 620 L 554.9375 619.25 M 533.6875 568.375 C 533.8125 585 533.6875 588.25 533.3125 603.375 C 530.8125 604.875 528.3125 606.375 524.8125 606.375 C 512.6875 606.375 512.6875 590.875 512.6875 588.375 C 512.6875 578.75 515.4375 568 529.4375 568 C 530.8125 568 531.9375 568.125 533.6875 568.375 Z M 641.8125 566.25 C 631.3125 561.875 625.8125 559.625 625.8125 554 C 625.8125 550.125 629.4375 545.25 637.6875 545.25 C 647.1875 545.25 652.8125 549.125 657.4375 552.25 L 658.5625 551.75 L 659.5625 535.375 L 658.9375 534.5 C 653.5625 532.25 647.9375 529.875 635.8125 529.875 C 612.3125 529.875 604.1875 543.125 604.1875 556.5 C 604.1875 571.625 615.9375 577.125 622.9375 580.5 L 627.0625 582.375 C 635.6875 586 642.3125 589.125 642.3125 595.75 C 642.3125 600.5 638.1875 606.125 627.3125 606.125 C 615.9375 606.125 609.5625 601.125 605.9375 598.25 L 604.6875 598.625 L 603.8125 616.25 L 604.5625 617.25 C 605.9375 617.75 607.3125 618.375 608.6875 618.75 C 611.5625 619.75 618.9375 621.875 628.3125 621.875 C 632.0625 621.875 641.5625 621.5 649.0625 618 C 659.5625 612.875 664.0625 603.375 664.0625 592.75 C 664.0625 585.625 661.3125 578 654.6875 572.875 C 651.3125 570.375 648.0625 568.875 645.0625 567.5 Z M 710.9375 605.625 C 708.8125 606.25 707.3125 606.75 705.1875 606.75 C 698.8125 606.75 698.3125 602.75 698.0625 600.875 C 697.6875 597.625 697.6875 590.75 697.8125 585.75 L 698.0625 568.125 L 709.3125 568.625 L 710.0625 567.875 L 711.3125 554.5 L 710.5625 553.75 L 698.0625 553.75 L 698.4375 532.75 L 697.5625 532 C 689.0625 534.5 686.8125 535.125 677.9375 537.375 L 677.4375 538.25 L 677.5625 553.875 L 670.8125 553.625 L 670.0625 554.25 L 668.9375 567.625 L 669.6875 568.375 L 677.5625 568.125 L 677.1875 588 C 677.0625 591.125 676.9375 594.25 676.9375 597.5 C 676.9375 609 677.1875 621.375 696.6875 621.375 C 701.5625 621.375 705.4375 620.625 709.8125 619.875 L 710.6875 619 L 711.9375 606.125 Z M 775.8125 582.75 C 775.9375 571.5 775.9375 566.625 772.6875 561.375 C 770.1875 557.375 765.1875 552.375 749.1875 552.375 C 738.4375 552.375 731.8125 554.375 724.6875 556.5 L 723.9375 557.5 L 723.3125 571.125 L 724.3125 571.625 C 728.6875 569.875 736.8125 566.625 745.1875 566.625 C 749.8125 566.625 751.6875 567.375 753.3125 569 C 754.5625 570.25 754.9375 572.5 754.9375 574.375 C 739.9375 576.375 732.9375 577.75 725.4375 582.375 C 718.4375 586.75 716.0625 593.875 716.0625 599.5 C 716.0625 612.875 725.6875 621.5 737.9375 621.5 C 747.3125 621.5 752.6875 617 755.3125 614.875 L 755.3125 619.5 L 756.0625 620.375 C 765.0625 620 767.8125 619.875 775.9375 620 L 776.5625 619.125 C 775.6875 606.875 775.6875 603.75 775.6875 592 L 775.8125 582.75 M 755.1875 602.625 C 752.5625 604.125 749.1875 605.875 745.0625 605.875 C 740.5625 605.875 736.8125 603.5 736.8125 598.25 C 736.8125 590 746.6875 588.625 755.1875 587.5 Z M 825.4375 605.625 C 823.3125 606.25 821.8125 606.75 819.6875 606.75 C 813.3125 606.75 812.8125 602.75 812.5625 600.875 C 812.1875 597.625 812.1875 590.75 812.3125 585.75 L 812.5625 568.125 L 823.8125 568.625 L 824.5625 567.875 L 825.8125 554.5 L 825.0625 553.75 L 812.5625 553.75 L 812.9375 532.75 L 812.0625 532 C 803.5625 534.5 801.3125 535.125 792.4375 537.375 L 791.9375 538.25 L 792.0625 553.875 L 785.3125 553.625 L 784.5625 554.25 L 783.4375 567.625 L 784.1875 568.375 L 792.0625 568.125 L 791.6875 588 C 791.5625 591.125 791.4375 594.25 791.4375 597.5 C 791.4375 609 791.6875 621.375 811.1875 621.375 C 816.0625 621.375 819.9375 620.625 824.3125 619.875 L 825.1875 619 L 826.4375 606.125 Z M 890.1875 601.5 C 885.4375 604 879.8125 606.875 870.6875 606.875 C 863.1875 606.875 858.0625 604.5 855.0625 600 C 853.1875 597.375 852.8125 594.875 852.3125 592.375 L 892.6875 591.625 L 893.4375 590.75 C 893.3125 584.625 893.1875 578.375 891.4375 572.125 C 887.0625 557.375 877.4375 554.375 873.1875 553.375 C 870.0625 552.5 867.1875 552.25 864.3125 552.25 C 844.6875 552.25 831.6875 565.125 831.6875 586.75 C 831.6875 592.625 832.6875 598.75 834.6875 603.125 C 841.9375 620 858.9375 621.5 867.9375 621.5 C 878.3125 621.5 882.8125 619.625 889.4375 617 L 890.1875 616 L 891.0625 601.875 L 890.1875 601.5 M 852.3125 579.125 C 852.6875 575.25 853.5625 570 858.3125 567 C 859.8125 566 861.5625 565.625 863.3125 565.625 C 867.4375 565.625 869.9375 567.75 871.3125 570 C 873.0625 572.75 873.1875 575.75 873.1875 578.625 Z M 897.4375 620 "/>
<path fill-rule="nonzero" fill="rgb(34.901961%, 14.901961%, 14.901961%)" fill-opacity="1" d="M 346.25 770 C 357.875 770.25 372.25 770.5 381.625 764 C 389.875 758.125 392.125 749.875 392.125 742.875 C 392.125 734.875 388.75 727.5 381.625 724 C 379.25 722.75 376.5 722.25 373.875 721.75 C 378.125 720 383.125 717.75 386.375 711.125 C 387.75 708.25 388.375 705.25 388.375 702.375 C 388.375 698.375 387.375 692.875 383.375 688.375 C 378.125 682.75 370 681.25 357.75 681.25 C 353.5 681.25 345.875 681.375 341.625 681.5 L 324.125 681.75 L 323.375 682.5 C 323.875 694.5 324 699.125 324 716.375 C 324 734.125 323.875 751.75 323.625 769.5 L 324.5 770 L 346.25 770 M 345.375 732 C 354.875 731.75 360.375 731.75 364 733.875 C 367.625 736.125 369 740.125 369 744.125 C 369 749.75 365.875 753.25 361.25 754.875 C 357.5 756.125 350.75 756.125 345.375 756 L 345.375 732 M 345.375 695.25 C 348 695.25 351.5 695.125 353.625 695.125 C 360.375 695.125 366.5 697.5 366.5 705.625 C 366.5 712.25 361.625 715 360.125 715.75 C 357 717.125 350.375 717.125 345.375 717.125 Z M 459.25 751.5 C 454.5 754 448.875 756.875 439.75 756.875 C 432.25 756.875 427.125 754.5 424.125 750 C 422.25 747.375 421.875 744.875 421.375 742.375 L 461.75 741.625 L 462.5 740.75 C 462.375 734.625 462.25 728.375 460.5 722.125 C 456.125 707.375 446.5 704.375 442.25 703.375 C 439.125 702.5 436.25 702.25 433.375 702.25 C 413.75 702.25 400.75 715.125 400.75 736.75 C 400.75 742.625 401.75 748.75 403.75 753.125 C 411 770 428 771.5 437 771.5 C 447.375 771.5 451.875 769.625 458.5 767 L 459.25 766 L 460.125 751.875 L 459.25 751.5 M 421.375 729.125 C 421.75 725.25 422.625 720 427.375 717 C 428.875 716 430.625 715.625 432.375 715.625 C 436.5 715.625 439 717.75 440.375 720 C 442.125 722.75 442.25 725.75 442.25 728.625 Z M 529.625 732.75 C 529.75 721.5 529.75 716.625 526.5 711.375 C 524 707.375 519 702.375 503 702.375 C 492.25 702.375 485.625 704.375 478.5 706.5 L 477.75 707.5 L 477.125 721.125 L 478.125 721.625 C 482.5 719.875 490.625 716.625 499 716.625 C 503.625 716.625 505.5 717.375 507.125 719 C 508.375 720.25 508.75 722.5 508.75 724.375 C 493.75 726.375 486.75 727.75 479.25 732.375 C 472.25 736.75 469.875 743.875 469.875 749.5 C 469.875 762.875 479.5 771.5 491.75 771.5 C 501.125 771.5 506.5 767 509.125 764.875 L 509.125 769.5 L 509.875 770.375 C 518.875 770 521.625 769.875 529.75 770 L 530.375 769.125 C 529.5 756.875 529.5 753.75 529.5 742 L 529.625 732.75 M 509 752.625 C 506.375 754.125 503 755.875 498.875 755.875 C 494.375 755.875 490.625 753.5 490.625 748.25 C 490.625 740 500.5 738.625 509 737.5 Z M 593.125 752 C 589.75 754 586.5 756 580.125 756 C 566 756 563.125 744.25 563.125 736.75 C 563.125 727.625 567.125 717.125 579.25 717.125 C 584.75 717.125 587.75 719.125 591.5 721.625 L 592.75 721.25 C 593.25 714.625 593.375 712.875 594.375 706.25 L 593.75 705.5 C 588.25 703.75 583.5 702.25 576.25 702.25 C 546.875 702.25 541.125 724.5 541.125 737.25 C 541.125 751.625 548.625 771.125 576.75 771.125 C 583.375 771.125 587.625 769.875 592.875 768.375 L 593.625 767.625 L 594.125 752.625 Z M 665.375 769.125 C 664.875 758.875 664.75 755.375 664.5 742.375 L 664.5 733 C 664.375 721.125 664.25 714.25 660.625 709 C 657 703.875 651.75 702.25 646.25 702.25 C 637.125 702.25 630 706.625 625 709.625 L 625.375 671.125 L 624.625 670.25 L 603.25 673.625 L 602.625 674.375 C 603.75 686.5 604 691 604.25 707.125 C 604.5 717.25 604.625 727.375 604.625 737.5 C 604.625 749.875 604.375 757.25 604.125 769.5 L 604.75 770.375 C 614 769.875 615.875 769.875 626 769.875 L 626.75 769.125 C 625.875 750.375 625.75 744.75 625.625 722.625 C 628 721 631 718.875 635.25 718.875 C 642.125 718.875 642.625 726 643.125 731 C 643.375 734.875 643.5 752.625 643.5 757.25 C 643.5 761.375 643.375 765.375 643.375 769.5 L 644 770.375 C 653 769.875 655 769.875 664.625 769.875 Z M 672.125 770 "/>
</svg>
