<?xml version="1.0" encoding="UTF-8"?>
<svg xmlns="http://www.w3.org/2000/svg" xmlns:xlink="http://www.w3.org/1999/xlink" width="975" height="1300" viewBox="0 0 975 1300">
<path fill-rule="nonzero" fill="rgb(34.901961%, 14.901961%, 14.901961%)" fill-opacity="1" d="M 183.5 456.375 C 171.5 456.75 169 456.75 155.625 456.75 L 154.75 457.5 C 148.125 478.75 144.125 491.375 125.75 544.125 L 126.25 545 L 145.75 545 L 146.625 544.25 L 152.75 521.5 L 179.75 521.5 L 185.125 544.625 L 186 545.375 C 195.125 545 197.625 544.875 207.75 545 L 208.375 544 C 193.25 490.5 191.5 484.625 184.375 457.125 L 183.5 456.375 M 157.125 506.375 L 163.375 485.25 L 167.75 470.625 L 171.5 486.875 L 176.125 506.375 Z M 264.375 544.5 L 265.625 530.75 L 264.875 530.125 L 240.75 531 C 244.625 522.25 246.75 517.625 253 505.125 C 257.375 496.75 262.125 487.375 265.875 479.75 L 265.25 478.625 L 215.75 478.625 L 215.125 479.5 L 213.875 492.5 L 214.5 493.25 L 236.75 493 C 229.875 507.625 228 511.375 211.25 544.125 L 211.75 545 L 263.375 545 Z M 331.875 507.75 C 332 496.5 332 491.625 328.75 486.375 C 326.25 482.375 321.25 477.375 305.25 477.375 C 294.5 477.375 287.875 479.375 280.75 481.5 L 280 482.5 L 279.375 496.125 L 280.375 496.625 C 284.75 494.875 292.875 491.625 301.25 491.625 C 305.875 491.625 307.75 492.375 309.375 494 C 310.625 495.25 311 497.5 311 499.375 C 296 501.375 289 502.75 281.5 507.375 C 274.5 511.75 272.125 518.875 272.125 524.5 C 272.125 537.875 281.75 546.5 294 546.5 C 303.375 546.5 308.75 542 311.375 539.875 L 311.375 544.5 L 312.125 545.375 C 321.125 545 323.875 544.875 332 545 L 332.625 544.125 C 331.75 531.875 331.75 528.75 331.75 517 L 331.875 507.75 M 311.25 527.625 C 308.625 529.125 305.25 530.875 301.125 530.875 C 296.625 530.875 292.875 528.5 292.875 523.25 C 292.875 515 302.75 513.625 311.25 512.5 Z M 368.5 544.125 C 367.875 529.75 367.25 516.625 367.25 477.125 C 367.25 465.25 367.375 459.625 367.875 446.125 L 367 445.25 L 345.625 448.625 L 345.125 449.375 C 346.375 464.625 346.5 468.75 346.75 489 C 346.875 496.375 346.875 503.75 346.875 511.125 C 346.875 524.625 346.625 532.125 346.125 544.5 L 346.875 545.375 C 355.25 545 358.625 544.875 367.75 545 Z M 438.5 526.5 C 433.75 529 428.125 531.875 419 531.875 C 411.5 531.875 406.375 529.5 403.375 525 C 401.5 522.375 401.125 519.875 400.625 517.375 L 441 516.625 L 441.75 515.75 C 441.625 509.625 441.5 503.375 439.75 497.125 C 435.375 482.375 425.75 479.375 421.5 478.375 C 418.375 477.5 415.5 477.25 412.625 477.25 C 393 477.25 380 490.125 380 511.75 C 380 517.625 381 523.75 383 528.125 C 390.25 545 407.25 546.5 416.25 546.5 C 426.625 546.5 431.125 544.625 437.75 542 L 438.5 541 L 439.375 526.875 L 438.5 526.5 M 400.625 504.125 C 401 500.25 401.875 495 406.625 492 C 408.125 491 409.875 490.625 411.625 490.625 C 415.75 490.625 418.25 492.75 419.625 495 C 421.375 497.75 421.5 500.75 421.5 503.625 Z M 508.875 507.75 C 509 496.5 509 491.625 505.75 486.375 C 503.25 482.375 498.25 477.375 482.25 477.375 C 471.5 477.375 464.875 479.375 457.75 481.5 L 457 482.5 L 456.375 496.125 L 457.375 496.625 C 461.75 494.875 469.875 491.625 478.25 491.625 C 482.875 491.625 484.75 492.375 486.375 494 C 487.625 495.25 488 497.5 488 499.375 C 473 501.375 466 502.75 458.5 507.375 C 451.5 511.75 449.125 518.875 449.125 524.5 C 449.125 537.875 458.75 546.5 471 546.5 C 480.375 546.5 485.75 542 488.375 539.875 L 488.375 544.5 L 489.125 545.375 C 498.125 545 500.875 544.875 509 545 L 509.625 544.125 C 508.75 531.875 508.75 528.75 508.75 517 L 508.875 507.75 M 488.25 527.625 C 485.625 529.125 482.25 530.875 478.125 530.875 C 473.625 530.875 469.875 528.5 469.875 523.25 C 469.875 515 479.75 513.625 488.25 512.5 Z M 596.125 491.25 C 585.625 486.875 580.125 484.625 580.125 479 C 580.125 475.125 583.75 470.25 592 470.25 C 601.5 470.25 607.125 474.125 611.75 477.25 L 612.875 476.75 L 613.875 460.375 L 613.25 459.5 C 607.875 457.25 602.25 454.875 590.125 454.875 C 566.625 454.875 558.5 468.125 558.5 481.5 C 558.5 496.625 570.25 502.125 577.25 505.5 L 581.375 507.375 C 590 511 596.625 514.125 596.625 520.75 C 596.625 525.5 592.5 531.125 581.625 531.125 C 570.25 531.125 563.875 526.125 560.25 523.25 L 559 523.625 L 558.125 541.25 L 558.875 542.25 C 560.25 542.75 561.625 543.375 563 543.75 C 565.875 544.75 573.25 546.875 582.625 546.875 C 586.375 546.875 595.875 546.5 603.375 543 C 613.875 537.875 618.375 528.375 618.375 517.75 C 618.375 510.625 615.625 503 609 497.875 C 605.625 495.375 602.375 493.875 599.375 492.5 Z M 665.25 530.625 C 663.125 531.25 661.625 531.75 659.5 531.75 C 653.125 531.75 652.625 527.75 652.375 525.875 C 652 522.625 652 515.75 652.125 510.75 L 652.375 493.125 L 663.625 493.625 L 664.375 492.875 L 665.625 479.5 L 664.875 478.75 L 652.375 478.75 L 652.75 457.75 L 651.875 457 C 643.375 459.5 641.125 460.125 632.25 462.375 L 631.75 463.25 L 631.875 478.875 L 625.125 478.625 L 624.375 479.25 L 623.25 492.625 L 624 493.375 L 631.875 493.125 L 631.5 513 C 631.375 516.125 631.25 519.25 631.25 522.5 C 631.25 534 631.5 546.375 651 546.375 C 655.875 546.375 659.75 545.625 664.125 544.875 L 665 544 L 666.25 531.125 Z M 730.125 507.75 C 730.25 496.5 730.25 491.625 727 486.375 C 724.5 482.375 719.5 477.375 703.5 477.375 C 692.75 477.375 686.125 479.375 679 481.5 L 678.25 482.5 L 677.625 496.125 L 678.625 496.625 C 683 494.875 691.125 491.625 699.5 491.625 C 704.125 491.625 706 492.375 707.625 494 C 708.875 495.25 709.25 497.5 709.25 499.375 C 694.25 501.375 687.25 502.75 679.75 507.375 C 672.75 511.75 670.375 518.875 670.375 524.5 C 670.375 537.875 680 546.5 692.25 546.5 C 701.625 546.5 707 542 709.625 539.875 L 709.625 544.5 L 710.375 545.375 C 719.375 545 722.125 544.875 730.25 545 L 730.875 544.125 C 730 531.875 730 528.75 730 517 L 730.125 507.75 M 709.5 527.625 C 706.875 529.125 703.5 530.875 699.375 530.875 C 694.875 530.875 691.125 528.5 691.125 523.25 C 691.125 515 701 513.625 709.5 512.5 Z M 779.75 530.625 C 777.625 531.25 776.125 531.75 774 531.75 C 767.625 531.75 767.125 527.75 766.875 525.875 C 766.5 522.625 766.5 515.75 766.625 510.75 L 766.875 493.125 L 778.125 493.625 L 778.875 492.875 L 780.125 479.5 L 779.375 478.75 L 766.875 478.75 L 767.25 457.75 L 766.375 457 C 757.875 459.5 755.625 460.125 746.75 462.375 L 746.25 463.25 L 746.375 478.875 L 739.625 478.625 L 738.875 479.25 L 737.75 492.625 L 738.5 493.375 L 746.375 493.125 L 746 513 C 745.875 516.125 745.75 519.25 745.75 522.5 C 745.75 534 746 546.375 765.5 546.375 C 770.375 546.375 774.25 545.625 778.625 544.875 L 779.5 544 L 780.75 531.125 Z M 844.5 526.5 C 839.75 529 834.125 531.875 825 531.875 C 817.5 531.875 812.375 529.5 809.375 525 C 807.5 522.375 807.125 519.875 806.625 517.375 L 847 516.625 L 847.75 515.75 C 847.625 509.625 847.5 503.375 845.75 497.125 C 841.375 482.375 831.75 479.375 827.5 478.375 C 824.375 477.5 821.5 477.25 818.625 477.25 C 799 477.25 786 490.125 786 511.75 C 786 517.625 787 523.75 789 528.125 C 796.25 545 813.25 546.5 822.25 546.5 C 832.625 546.5 837.125 544.625 843.75 542 L 844.5 541 L 845.375 526.875 L 844.5 526.5 M 806.625 504.125 C 807 500.25 807.875 495 812.625 492 C 814.125 491 815.875 490.625 817.625 490.625 C 821.75 490.625 824.25 492.75 825.625 495 C 827.375 497.75 827.5 500.75 827.5 503.625 Z M 851.75 545 "/>
<path fill-rule="nonzero" fill="rgb(34.901961%, 14.901961%, 14.901961%)" fill-opacity="1" d="M 359.0625 606.375 C 351.1875 606.75 349.0625 606.875 341.3125 606.75 L 340.6875 607.5 L 341.5625 624.375 L 342.0625 641.625 L 342.5625 662.25 C 338.9375 656.125 338.3125 655.125 331.9375 645.625 L 320.5625 629 C 311.1875 614.75 309.3125 612 306.1875 607 L 305.3125 606.375 C 295.4375 606.875 293.8125 606.875 284.6875 606.75 L 284.0625 607.5 C 284.6875 626.875 285.0625 641.25 285.0625 658 C 285.0625 670.25 284.8125 682.5 284.6875 694.625 L 285.3125 695.375 C 293.6875 695 296.3125 695 303.5625 695 L 304.1875 694.25 L 302.9375 666.875 L 302.5625 651.5 L 301.8125 634.75 C 307.6875 644.5 309.6875 647.75 318.1875 660.125 L 330.6875 678.5 L 341.8125 694.75 L 342.6875 695.375 C 350.3125 695 352.5625 695 359.1875 695 L 359.8125 694.375 C 359.6875 676.25 359.5625 664 359.5625 649 C 359.5625 635 359.6875 621.125 359.8125 607.125 Z M 430.6875 657.75 C 430.8125 646.5 430.8125 641.625 427.5625 636.375 C 425.0625 632.375 420.0625 627.375 404.0625 627.375 C 393.3125 627.375 386.6875 629.375 379.5625 631.5 L 378.8125 632.5 L 378.1875 646.125 L 379.1875 646.625 C 383.5625 644.875 391.6875 641.625 400.0625 641.625 C 404.6875 641.625 406.5625 642.375 408.1875 644 C 409.4375 645.25 409.8125 647.5 409.8125 649.375 C 394.8125 651.375 387.8125 652.75 380.3125 657.375 C 373.3125 661.75 370.9375 668.875 370.9375 674.5 C 370.9375 687.875 380.5625 696.5 392.8125 696.5 C 402.1875 696.5 407.5625 692 410.1875 689.875 L 410.1875 694.5 L 410.9375 695.375 C 419.9375 695 422.6875 694.875 430.8125 695 L 431.4375 694.125 C 430.5625 681.875 430.5625 678.75 430.5625 667 L 430.6875 657.75 M 410.0625 677.625 C 407.4375 679.125 404.0625 680.875 399.9375 680.875 C 395.4375 680.875 391.6875 678.5 391.6875 673.25 C 391.6875 665 401.5625 663.625 410.0625 662.5 Z M 480.3125 680.625 C 478.1875 681.25 476.6875 681.75 474.5625 681.75 C 468.1875 681.75 467.6875 677.75 467.4375 675.875 C 467.0625 672.625 467.0625 665.75 467.1875 660.75 L 467.4375 643.125 L 478.6875 643.625 L 479.4375 642.875 L 480.6875 629.5 L 479.9375 628.75 L 467.4375 628.75 L 467.8125 607.75 L 466.9375 607 C 458.4375 609.5 456.1875 610.125 447.3125 612.375 L 446.8125 613.25 L 446.9375 628.875 L 440.1875 628.625 L 439.4375 629.25 L 438.3125 642.625 L 439.0625 643.375 L 446.9375 643.125 L 446.5625 663 C 446.4375 666.125 446.3125 669.25 446.3125 672.5 C 446.3125 684 446.5625 696.375 466.0625 696.375 C 470.9375 696.375 474.8125 695.625 479.1875 694.875 L 480.0625 694 L 481.3125 681.125 Z M 549.5625 628.125 L 529.1875 629.125 L 528.3125 629.875 C 529.1875 644 529.1875 664 529.1875 666 C 529.1875 669.625 529.1875 671.625 529.0625 676.625 C 525.6875 678.875 523.0625 680.75 519.6875 680.75 C 510.6875 680.75 510.6875 671.25 510.6875 663.875 C 510.6875 660.75 510.6875 657.5 510.8125 654.375 L 511.0625 629.125 L 510.1875 628.125 L 489.5625 629.125 L 488.6875 629.875 C 489.4375 640.375 489.5625 643.875 489.5625 656.5 L 489.5625 665.25 C 489.4375 678.875 490.0625 684.625 494.5625 689.875 C 498.6875 694.5 504.6875 696.5 510.9375 696.5 C 519.8125 696.5 524.9375 692.5 529.4375 689 L 529.3125 694.625 L 530.1875 695.375 C 539.3125 695 542.0625 695 550.1875 695 L 550.9375 694.25 C 550.3125 685.375 550.0625 680.625 550.0625 664.375 C 550.0625 652.625 550.1875 640.875 550.4375 629.125 Z M 601.1875 648.625 L 604.6875 628.25 L 603.9375 627.375 C 603.0625 627.375 602.1875 627.25 601.3125 627.25 C 596.1875 627.25 590.4375 630.125 586.4375 639.375 L 586.8125 627.875 L 585.8125 626.875 C 576.5625 628.875 574.1875 629.25 565.0625 630.625 L 564.3125 631.375 C 565.0625 640.75 565.4375 646.375 565.4375 663.75 C 565.4375 674 565.3125 684.25 565.0625 694.625 L 565.8125 695.375 C 575.0625 695 577.0625 694.875 587.0625 695 L 587.6875 694.125 C 587.1875 684 586.4375 669.875 586.4375 661.25 C 586.4375 655.625 586.4375 647.375 594.9375 647.375 C 597.0625 647.375 598.3125 648.125 600.0625 649.125 Z M 667.5625 657.75 C 667.6875 646.5 667.6875 641.625 664.4375 636.375 C 661.9375 632.375 656.9375 627.375 640.9375 627.375 C 630.1875 627.375 623.5625 629.375 616.4375 631.5 L 615.6875 632.5 L 615.0625 646.125 L 616.0625 646.625 C 620.4375 644.875 628.5625 641.625 636.9375 641.625 C 641.5625 641.625 643.4375 642.375 645.0625 644 C 646.3125 645.25 646.6875 647.5 646.6875 649.375 C 631.6875 651.375 624.6875 652.75 617.1875 657.375 C 610.1875 661.75 607.8125 668.875 607.8125 674.5 C 607.8125 687.875 617.4375 696.5 629.6875 696.5 C 639.0625 696.5 644.4375 692 647.0625 689.875 L 647.0625 694.5 L 647.8125 695.375 C 656.8125 695 659.5625 694.875 667.6875 695 L 668.3125 694.125 C 667.4375 681.875 667.4375 678.75 667.4375 667 L 667.5625 657.75 M 646.9375 677.625 C 644.3125 679.125 640.9375 680.875 636.8125 680.875 C 632.3125 680.875 628.5625 678.5 628.5625 673.25 C 628.5625 665 638.4375 663.625 646.9375 662.5 Z M 704.1875 694.125 C 703.5625 679.75 702.9375 666.625 702.9375 627.125 C 702.9375 615.25 703.0625 609.625 703.5625 596.125 L 702.6875 595.25 L 681.3125 598.625 L 680.8125 599.375 C 682.0625 614.625 682.1875 618.75 682.4375 639 C 682.5625 646.375 682.5625 653.75 682.5625 661.125 C 682.5625 674.625 682.3125 682.125 681.8125 694.5 L 682.5625 695.375 C 690.9375 695 694.3125 694.875 703.4375 695 Z M 711.1875 695 "/>
<path fill-rule="nonzero" fill="rgb(34.901961%, 14.901961%, 14.901961%)" fill-opacity="1" d="M 298.9375 810.625 C 307.3125 824.875 309.1875 828.625 317.1875 845 L 318.1875 845.625 C 322.0625 845.375 325.8125 845.125 329.6875 845 C 333.5625 844.875 337.5625 844.75 341.4375 844.75 L 342.1875 843.25 C 337.4375 837.125 336.0625 835.25 327.0625 820.875 C 323.0625 814.5 321.0625 811.125 317.9375 805.625 C 323.5625 803.125 334.9375 797.875 334.9375 782 C 334.9375 776.5 333.4375 765.125 323.1875 759.75 C 316.6875 756.375 309.9375 756.25 295.3125 756.5 L 286.5625 756.625 L 271.3125 756.625 L 270.6875 757.375 C 271.1875 770 271.6875 783 271.6875 817 C 271.6875 828.625 271.5625 834.25 271.1875 844.625 L 271.9375 845.375 C 281.0625 845 283.0625 844.875 293.3125 845 L 294.0625 844.25 C 293.0625 829.75 292.9375 825.75 292.8125 810.875 L 298.9375 810.625 M 293.0625 771.75 C 294.8125 771.625 296.5625 771.625 298.3125 771.625 C 303.1875 771.625 312.8125 771.625 312.8125 782.625 C 312.8125 786.125 311.9375 790.75 307.3125 793.625 C 303.8125 795.75 299.3125 796 293.0625 796.125 Z M 404.3125 826.5 C 399.5625 829 393.9375 831.875 384.8125 831.875 C 377.3125 831.875 372.1875 829.5 369.1875 825 C 367.3125 822.375 366.9375 819.875 366.4375 817.375 L 406.8125 816.625 L 407.5625 815.75 C 407.4375 809.625 407.3125 803.375 405.5625 797.125 C 401.1875 782.375 391.5625 779.375 387.3125 778.375 C 384.1875 777.5 381.3125 777.25 378.4375 777.25 C 358.8125 777.25 345.8125 790.125 345.8125 811.75 C 345.8125 817.625 346.8125 823.75 348.8125 828.125 C 356.0625 845 373.0625 846.5 382.0625 846.5 C 392.4375 846.5 396.9375 844.625 403.5625 842 L 404.3125 841 L 405.1875 826.875 L 404.3125 826.5 M 366.4375 804.125 C 366.8125 800.25 367.6875 795 372.4375 792 C 373.9375 791 375.6875 790.625 377.4375 790.625 C 381.5625 790.625 384.0625 792.75 385.4375 795 C 387.1875 797.75 387.3125 800.75 387.3125 803.625 Z M 445.3125 801.875 C 441.0625 800.375 437.6875 799 437.6875 795.5 C 437.6875 794 438.6875 789.875 446.4375 789.875 C 454.0625 789.875 458.9375 793.125 462.0625 795.125 L 463.1875 794.75 L 464.4375 781.125 L 463.8125 780.375 C 457.9375 778.75 452.8125 777.25 444.6875 777.25 C 438.5625 777.25 426.3125 777.75 419.8125 787.125 C 418.1875 789.375 416.4375 793.125 416.4375 798.125 C 416.4375 811.5 426.8125 815.5 432.6875 817.75 L 437.4375 819.5 C 440.8125 820.625 446.3125 822.5 446.3125 827 C 446.3125 830.125 443.4375 833.5 436.4375 833.5 C 432.9375 833.5 427.8125 832.375 423.1875 830 C 421.0625 828.875 420.0625 828 418.1875 826.5 L 417.0625 827 C 416.8125 833.5 416.6875 834.875 416.1875 841.125 L 416.8125 842.25 C 422.9375 844.5 428.1875 846.5 437.3125 846.5 C 446.8125 846.5 465.5625 844.75 467.8125 826.875 C 467.9375 825.875 467.9375 825 467.9375 824.125 C 467.9375 810.375 458.3125 806.75 451.4375 804.125 Z M 534.4375 826.5 C 529.6875 829 524.0625 831.875 514.9375 831.875 C 507.4375 831.875 502.3125 829.5 499.3125 825 C 497.4375 822.375 497.0625 819.875 496.5625 817.375 L 536.9375 816.625 L 537.6875 815.75 C 537.5625 809.625 537.4375 803.375 535.6875 797.125 C 531.3125 782.375 521.6875 779.375 517.4375 778.375 C 514.3125 777.5 511.4375 777.25 508.5625 777.25 C 488.9375 777.25 475.9375 790.125 475.9375 811.75 C 475.9375 817.625 476.9375 823.75 478.9375 828.125 C 486.1875 845 503.1875 846.5 512.1875 846.5 C 522.5625 846.5 527.0625 844.625 533.6875 842 L 534.4375 841 L 535.3125 826.875 L 534.4375 826.5 M 496.5625 804.125 C 496.9375 800.25 497.8125 795 502.5625 792 C 504.0625 791 505.8125 790.625 507.5625 790.625 C 511.6875 790.625 514.1875 792.75 515.5625 795 C 517.3125 797.75 517.4375 800.75 517.4375 803.625 Z M 585.3125 798.625 L 588.8125 778.25 L 588.0625 777.375 C 587.1875 777.375 586.3125 777.25 585.4375 777.25 C 580.3125 777.25 574.5625 780.125 570.5625 789.375 L 570.9375 777.875 L 569.9375 776.875 C 560.6875 778.875 558.3125 779.25 549.1875 780.625 L 548.4375 781.375 C 549.1875 790.75 549.5625 796.375 549.5625 813.75 C 549.5625 824 549.4375 834.25 549.1875 844.625 L 549.9375 845.375 C 559.1875 845 561.1875 844.875 571.1875 845 L 571.8125 844.125 C 571.3125 834 570.5625 819.875 570.5625 811.25 C 570.5625 805.625 570.5625 797.375 579.0625 797.375 C 581.1875 797.375 582.4375 798.125 584.1875 799.125 Z M 630.5625 844 C 634.5625 831.5 636.9375 823.75 639.5625 815.875 C 642.9375 805.75 648.4375 789.5 651.9375 779.25 L 651.3125 778.375 L 633.8125 778.75 L 632.9375 779.625 C 631.1875 788 630.8125 789.75 628.3125 799.5 L 621.9375 824.125 L 618.8125 810.625 L 616.4375 801 C 613.3125 789.375 612.8125 787 611.0625 778.75 L 610.1875 778 C 600.3125 779.125 597.8125 779.25 588.3125 779.375 L 587.8125 780.375 C 604.4375 829.625 605.8125 834.25 608.5625 844.5 L 609.4375 845.375 C 617.5625 845 620.8125 844.875 629.8125 845 Z M 714.0625 826.5 C 709.3125 829 703.6875 831.875 694.5625 831.875 C 687.0625 831.875 681.9375 829.5 678.9375 825 C 677.0625 822.375 676.6875 819.875 676.1875 817.375 L 716.5625 816.625 L 717.3125 815.75 C 717.1875 809.625 717.0625 803.375 715.3125 797.125 C 710.9375 782.375 701.3125 779.375 697.0625 778.375 C 693.9375 777.5 691.0625 777.25 688.1875 777.25 C 668.5625 777.25 655.5625 790.125 655.5625 811.75 C 655.5625 817.625 656.5625 823.75 658.5625 828.125 C 665.8125 845 682.8125 846.5 691.8125 846.5 C 702.1875 846.5 706.6875 844.625 713.3125 842 L 714.0625 841 L 714.9375 826.875 L 714.0625 826.5 M 676.1875 804.125 C 676.5625 800.25 677.4375 795 682.1875 792 C 683.6875 791 685.4375 790.625 687.1875 790.625 C 691.3125 790.625 693.8125 792.75 695.1875 795 C 696.9375 797.75 697.0625 800.75 697.0625 803.625 Z M 721.3125 845 "/>
</svg>
