<?xml version="1.0" encoding="UTF-8"?>
<svg xmlns="http://www.w3.org/2000/svg" xmlns:xlink="http://www.w3.org/1999/xlink" width="975" height="1300" viewBox="0 0 975 1300">
<path fill-rule="nonzero" fill="rgb(34.901961%, 14.901961%, 14.901961%)" fill-opacity="1" d="M 330.5625 416.25 C 320.0625 411.875 314.5625 409.625 314.5625 404 C 314.5625 400.125 318.1875 395.25 326.4375 395.25 C 335.9375 395.25 341.5625 399.125 346.1875 402.25 L 347.3125 401.75 L 348.3125 385.375 L 347.6875 384.5 C 342.3125 382.25 336.6875 379.875 324.5625 379.875 C 301.0625 379.875 292.9375 393.125 292.9375 406.5 C 292.9375 421.625 304.6875 427.125 311.6875 430.5 L 315.8125 432.375 C 324.4375 436 331.0625 439.125 331.0625 445.75 C 331.0625 450.5 326.9375 456.125 316.0625 456.125 C 304.6875 456.125 298.3125 451.125 294.6875 448.25 L 293.4375 448.625 L 292.5625 466.25 L 293.3125 467.25 C 294.6875 467.75 296.0625 468.375 297.4375 468.75 C 300.3125 469.75 307.6875 471.875 317.0625 471.875 C 320.8125 471.875 330.3125 471.5 337.8125 468 C 348.3125 462.875 352.8125 453.375 352.8125 442.75 C 352.8125 435.625 350.0625 428 343.4375 422.875 C 340.0625 420.375 336.8125 418.875 333.8125 417.5 Z M 462.3125 469.125 C 461.6875 457.5 461.5625 454.25 461.5625 440.125 L 461.5625 430.75 C 461.6875 422.375 461.8125 414.625 458.1875 409.375 C 453.3125 402.25 444.6875 402.25 442.6875 402.25 C 432.4375 402.25 425.5625 406.875 420.5625 410.375 C 418.8125 407.5 415.6875 402.25 405.6875 402.25 C 397.4375 402.25 392.0625 406 386.3125 410 L 386.3125 403 L 385.1875 401.875 C 375.4375 403.75 372.6875 404.25 363.9375 405.5 L 363.1875 406.375 C 364.1875 416.375 364.9375 423.25 364.9375 448 C 364.9375 455.125 364.8125 462.375 364.8125 469.5 L 365.4375 470.25 C 373.4375 470 376.1875 469.875 386.5625 469.875 L 387.3125 469.125 C 386.4375 449.875 386.3125 444.125 386.1875 422.375 C 388.8125 420.5 391.6875 418.875 394.8125 418.875 C 402.5625 418.875 402.8125 427.75 402.8125 438.5 C 402.8125 456.625 402.6875 459.375 402.4375 469.5 L 403.1875 470.375 C 412.6875 469.875 415.3125 469.875 423.9375 469.875 L 424.6875 469.125 C 423.9375 457.25 423.8125 453.75 423.6875 438.625 L 423.6875 434 L 423.5625 421.375 C 425.6875 420 428.4375 418.25 432.1875 418.25 C 439.3125 418.25 440.4375 425 440.4375 435.75 C 440.4375 438.125 440.3125 440.5 440.3125 442.875 C 440.1875 447.125 440.0625 465.75 439.9375 469.5 L 440.6875 470.25 C 450.0625 469.875 452.8125 469.875 461.5625 469.875 Z M 499.3125 469.125 C 498.6875 459.5 498.1875 452.125 498.1875 434.875 C 498.1875 424.25 498.4375 413.5 498.5625 402.875 L 497.6875 401.875 L 476.1875 405.625 L 475.4375 406.375 C 476.4375 415.875 476.8125 420.25 476.8125 438 C 476.8125 451.625 476.4375 459.25 476.0625 469.5 L 476.8125 470.375 C 485.8125 470 488.3125 469.875 498.4375 470 L 499.3125 469.125 M 497.3125 389.875 L 497.6875 372.875 L 496.9375 372.125 L 476.5625 374.625 L 475.8125 375.5 C 476.0625 380 476.1875 382.625 476.1875 385.625 C 476.1875 388 476.1875 390.5 476.0625 392.875 L 476.9375 393.625 C 485.4375 392.125 487.8125 391.875 496.6875 390.75 Z M 548.1875 455.625 C 546.0625 456.25 544.5625 456.75 542.4375 456.75 C 536.0625 456.75 535.5625 452.75 535.3125 450.875 C 534.9375 447.625 534.9375 440.75 535.0625 435.75 L 535.3125 418.125 L 546.5625 418.625 L 547.3125 417.875 L 548.5625 404.5 L 547.8125 403.75 L 535.3125 403.75 L 535.6875 382.75 L 534.8125 382 C 526.3125 384.5 524.0625 385.125 515.1875 387.375 L 514.6875 388.25 L 514.8125 403.875 L 508.0625 403.625 L 507.3125 404.25 L 506.1875 417.625 L 506.9375 418.375 L 514.8125 418.125 L 514.4375 438 C 514.3125 441.125 514.1875 444.25 514.1875 447.5 C 514.1875 459 514.4375 471.375 533.9375 471.375 C 538.8125 471.375 542.6875 470.625 547.0625 469.875 L 547.9375 469 L 549.1875 456.125 Z M 618.6875 469.125 C 618.1875 458.875 618.0625 455.375 617.8125 442.375 L 617.8125 433 C 617.6875 421.125 617.5625 414.25 613.9375 409 C 610.3125 403.875 605.0625 402.25 599.5625 402.25 C 590.4375 402.25 583.3125 406.625 578.3125 409.625 L 578.6875 371.125 L 577.9375 370.25 L 556.5625 373.625 L 555.9375 374.375 C 557.0625 386.5 557.3125 391 557.5625 407.125 C 557.8125 417.25 557.9375 427.375 557.9375 437.5 C 557.9375 449.875 557.6875 457.25 557.4375 469.5 L 558.0625 470.375 C 567.3125 469.875 569.1875 469.875 579.3125 469.875 L 580.0625 469.125 C 579.1875 450.375 579.0625 444.75 578.9375 422.625 C 581.3125 421 584.3125 418.875 588.5625 418.875 C 595.4375 418.875 595.9375 426 596.4375 431 C 596.6875 434.875 596.8125 452.625 596.8125 457.25 C 596.8125 461.375 596.6875 465.375 596.6875 469.5 L 597.3125 470.375 C 606.3125 469.875 608.3125 469.875 617.9375 469.875 Z M 688.4375 451.5 C 683.6875 454 678.0625 456.875 668.9375 456.875 C 661.4375 456.875 656.3125 454.5 653.3125 450 C 651.4375 447.375 651.0625 444.875 650.5625 442.375 L 690.9375 441.625 L 691.6875 440.75 C 691.5625 434.625 691.4375 428.375 689.6875 422.125 C 685.3125 407.375 675.6875 404.375 671.4375 403.375 C 668.3125 402.5 665.4375 402.25 662.5625 402.25 C 642.9375 402.25 629.9375 415.125 629.9375 436.75 C 629.9375 442.625 630.9375 448.75 632.9375 453.125 C 640.1875 470 657.1875 471.5 666.1875 471.5 C 676.5625 471.5 681.0625 469.625 687.6875 467 L 688.4375 466 L 689.3125 451.875 L 688.4375 451.5 M 650.5625 429.125 C 650.9375 425.25 651.8125 420 656.5625 417 C 658.0625 416 659.8125 415.625 661.5625 415.625 C 665.6875 415.625 668.1875 417.75 669.5625 420 C 671.3125 422.75 671.4375 425.75 671.4375 428.625 Z M 695.6875 470 "/>
<path fill-rule="nonzero" fill="rgb(34.901961%, 14.901961%, 14.901961%)" fill-opacity="1" d="M 221.875 585.625 C 230.25 599.875 232.125 603.625 240.125 620 L 241.125 620.625 C 245 620.375 248.75 620.125 252.625 620 C 256.5 619.875 260.5 619.75 264.375 619.75 L 265.125 618.25 C 260.375 612.125 259 610.25 250 595.875 C 246 589.5 244 586.125 240.875 580.625 C 246.5 578.125 257.875 572.875 257.875 557 C 257.875 551.5 256.375 540.125 246.125 534.75 C 239.625 531.375 232.875 531.25 218.25 531.5 L 209.5 531.625 L 194.25 531.625 L 193.625 532.375 C 194.125 545 194.625 558 194.625 592 C 194.625 603.625 194.5 609.25 194.125 619.625 L 194.875 620.375 C 204 620 206 619.875 216.25 620 L 217 619.25 C 216 604.75 215.875 600.75 215.75 585.875 L 221.875 585.625 M 216 546.75 C 217.75 546.625 219.5 546.625 221.25 546.625 C 226.125 546.625 235.75 546.625 235.75 557.625 C 235.75 561.125 234.875 565.75 230.25 568.625 C 226.75 570.75 222.25 571 216 571.125 Z M 327.25 601.5 C 322.5 604 316.875 606.875 307.75 606.875 C 300.25 606.875 295.125 604.5 292.125 600 C 290.25 597.375 289.875 594.875 289.375 592.375 L 329.75 591.625 L 330.5 590.75 C 330.375 584.625 330.25 578.375 328.5 572.125 C 324.125 557.375 314.5 554.375 310.25 553.375 C 307.125 552.5 304.25 552.25 301.375 552.25 C 281.75 552.25 268.75 565.125 268.75 586.75 C 268.75 592.625 269.75 598.75 271.75 603.125 C 279 620 296 621.5 305 621.5 C 315.375 621.5 319.875 619.625 326.5 617 L 327.25 616 L 328.125 601.875 L 327.25 601.5 M 289.375 579.125 C 289.75 575.25 290.625 570 295.375 567 C 296.875 566 298.625 565.625 300.375 565.625 C 304.5 565.625 307 567.75 308.375 570 C 310.125 572.75 310.25 575.75 310.25 578.625 Z M 403.25 619.25 C 402.75 608 402.375 600.5 402.375 584.125 C 402.375 551.125 402.875 537.5 403.375 521 L 402.5 520.25 L 381.875 523.5 L 381.25 524.25 C 382 536 382.125 539.125 382 553.375 C 372.625 553.125 360.875 552.875 351.375 560.375 C 342.625 567.125 339 577.5 339 590.375 C 339 600.125 341.625 609.875 349 616 C 354.5 620.5 361.25 621.5 365.375 621.5 C 374.25 621.5 378.875 617.375 381.875 614.75 L 381.625 619.625 L 382.25 620.375 C 390.875 620 393.25 620 402.625 620 L 403.25 619.25 M 382 568.375 C 382.125 585 382 588.25 381.625 603.375 C 379.125 604.875 376.625 606.375 373.125 606.375 C 361 606.375 361 590.875 361 588.375 C 361 578.75 363.75 568 377.75 568 C 379.125 568 380.25 568.125 382 568.375 Z M 494.75 619.125 C 499.75 599.75 500.625 596.75 508.125 569.875 C 509.625 564.75 511 559.5 512.375 554.375 L 511.625 553.375 L 495.375 553.75 L 494.5 554.625 L 490.875 573.375 L 487.375 588.5 L 485 600 L 482.875 588.875 L 480.125 575.875 L 475.75 554.25 L 475 553.375 L 451 553.75 L 450.125 554.625 L 446 575.125 L 443 588.875 L 440.625 600.375 L 438.25 588 L 435.25 574.5 L 431 553.75 L 430.25 553.125 L 410 554.625 L 409.25 555.625 C 421 596.875 422.875 604.25 426.375 619.625 L 427.25 620.375 C 435.875 620 439 619.875 450.5 620 L 451.25 619.125 L 454.5 603.875 L 458 588.75 L 461.125 573.625 L 463 583.125 L 464.875 592.375 L 470.125 619.5 L 471 620.375 C 480.25 620 484 619.875 494 620 Z M 582.625 586.75 C 582.625 581.875 582.625 561.625 565.125 554.75 C 559.625 552.625 553.125 552.375 549.875 552.375 C 528.125 552.375 515.875 564 515.875 587 C 515.875 595 517.125 603.125 521.75 609.875 C 525 614.75 531.125 621.5 549 621.5 C 575.5 621.5 582.625 605.5 582.625 586.75 M 561 586.625 C 561 596.875 559.625 608.25 549.25 608.25 C 546 608.25 543.75 606.75 542.25 605.375 C 540.125 603.25 537.75 599 537.75 586.875 C 537.75 583.25 537.75 575.25 540.25 570.875 C 542.125 567.5 545.375 565.25 549.375 565.25 C 552.875 565.25 555.75 567.125 557.375 569.125 C 560.375 572.75 561 579.875 561 586.625 Z M 658.125 586.75 C 658.125 581.875 658.125 561.625 640.625 554.75 C 635.125 552.625 628.625 552.375 625.375 552.375 C 603.625 552.375 591.375 564 591.375 587 C 591.375 595 592.625 603.125 597.25 609.875 C 600.5 614.75 606.625 621.5 624.5 621.5 C 651 621.5 658.125 605.5 658.125 586.75 M 636.5 586.625 C 636.5 596.875 635.125 608.25 624.75 608.25 C 621.5 608.25 619.25 606.75 617.75 605.375 C 615.625 603.25 613.25 599 613.25 586.875 C 613.25 583.25 613.25 575.25 615.75 570.875 C 617.625 567.5 620.875 565.25 624.875 565.25 C 628.375 565.25 631.25 567.125 632.875 569.125 C 635.875 572.75 636.5 579.875 636.5 586.625 Z M 731.25 619.25 C 730.75 608 730.375 600.5 730.375 584.125 C 730.375 551.125 730.875 537.5 731.375 521 L 730.5 520.25 L 709.875 523.5 L 709.25 524.25 C 710 536 710.125 539.125 710 553.375 C 700.625 553.125 688.875 552.875 679.375 560.375 C 670.625 567.125 667 577.5 667 590.375 C 667 600.125 669.625 609.875 677 616 C 682.5 620.5 689.25 621.5 693.375 621.5 C 702.25 621.5 706.875 617.375 709.875 614.75 L 709.625 619.625 L 710.25 620.375 C 718.875 620 721.25 620 730.625 620 L 731.25 619.25 M 710 568.375 C 710.125 585 710 588.25 709.625 603.375 C 707.125 604.875 704.625 606.375 701.125 606.375 C 689 606.375 689 590.875 689 588.375 C 689 578.75 691.75 568 705.75 568 C 707.125 568 708.25 568.125 710 568.375 Z M 771.75 576.875 C 767.5 575.375 764.125 574 764.125 570.5 C 764.125 569 765.125 564.875 772.875 564.875 C 780.5 564.875 785.375 568.125 788.5 570.125 L 789.625 569.75 L 790.875 556.125 L 790.25 555.375 C 784.375 553.75 779.25 552.25 771.125 552.25 C 765 552.25 752.75 552.75 746.25 562.125 C 744.625 564.375 742.875 568.125 742.875 573.125 C 742.875 586.5 753.25 590.5 759.125 592.75 L 763.875 594.5 C 767.25 595.625 772.75 597.5 772.75 602 C 772.75 605.125 769.875 608.5 762.875 608.5 C 759.375 608.5 754.25 607.375 749.625 605 C 747.5 603.875 746.5 603 744.625 601.5 L 743.5 602 C 743.25 608.5 743.125 609.875 742.625 616.125 L 743.25 617.25 C 749.375 619.5 754.625 621.5 763.75 621.5 C 773.25 621.5 792 619.75 794.25 601.875 C 794.375 600.875 794.375 600 794.375 599.125 C 794.375 585.375 784.75 581.75 777.875 579.125 Z M 797.875 620 "/>
<path fill-rule="nonzero" fill="rgb(34.901961%, 14.901961%, 14.901961%)" fill-opacity="1" d="M 151.1875 716.25 C 140.6875 711.875 135.1875 709.625 135.1875 704 C 135.1875 700.125 138.8125 695.25 147.0625 695.25 C 156.5625 695.25 162.1875 699.125 166.8125 702.25 L 167.9375 701.75 L 168.9375 685.375 L 168.3125 684.5 C 162.9375 682.25 157.3125 679.875 145.1875 679.875 C 121.6875 679.875 113.5625 693.125 113.5625 706.5 C 113.5625 721.625 125.3125 727.125 132.3125 730.5 L 136.4375 732.375 C 145.0625 736 151.6875 739.125 151.6875 745.75 C 151.6875 750.5 147.5625 756.125 136.6875 756.125 C 125.3125 756.125 118.9375 751.125 115.3125 748.25 L 114.0625 748.625 L 113.1875 766.25 L 113.9375 767.25 C 115.3125 767.75 116.6875 768.375 118.0625 768.75 C 120.9375 769.75 128.3125 771.875 137.6875 771.875 C 141.4375 771.875 150.9375 771.5 158.4375 768 C 168.9375 762.875 173.4375 753.375 173.4375 742.75 C 173.4375 735.625 170.6875 728 164.0625 722.875 C 160.6875 720.375 157.4375 718.875 154.4375 717.5 Z M 220.3125 755.625 C 218.1875 756.25 216.6875 756.75 214.5625 756.75 C 208.1875 756.75 207.6875 752.75 207.4375 750.875 C 207.0625 747.625 207.0625 740.75 207.1875 735.75 L 207.4375 718.125 L 218.6875 718.625 L 219.4375 717.875 L 220.6875 704.5 L 219.9375 703.75 L 207.4375 703.75 L 207.8125 682.75 L 206.9375 682 C 198.4375 684.5 196.1875 685.125 187.3125 687.375 L 186.8125 688.25 L 186.9375 703.875 L 180.1875 703.625 L 179.4375 704.25 L 178.3125 717.625 L 179.0625 718.375 L 186.9375 718.125 L 186.5625 738 C 186.4375 741.125 186.3125 744.25 186.3125 747.5 C 186.3125 759 186.5625 771.375 206.0625 771.375 C 210.9375 771.375 214.8125 770.625 219.1875 769.875 L 220.0625 769 L 221.3125 756.125 Z M 285.1875 732.75 C 285.3125 721.5 285.3125 716.625 282.0625 711.375 C 279.5625 707.375 274.5625 702.375 258.5625 702.375 C 247.8125 702.375 241.1875 704.375 234.0625 706.5 L 233.3125 707.5 L 232.6875 721.125 L 233.6875 721.625 C 238.0625 719.875 246.1875 716.625 254.5625 716.625 C 259.1875 716.625 261.0625 717.375 262.6875 719 C 263.9375 720.25 264.3125 722.5 264.3125 724.375 C 249.3125 726.375 242.3125 727.75 234.8125 732.375 C 227.8125 736.75 225.4375 743.875 225.4375 749.5 C 225.4375 762.875 235.0625 771.5 247.3125 771.5 C 256.6875 771.5 262.0625 767 264.6875 764.875 L 264.6875 769.5 L 265.4375 770.375 C 274.4375 770 277.1875 769.875 285.3125 770 L 285.9375 769.125 C 285.0625 756.875 285.0625 753.75 285.0625 742 L 285.1875 732.75 M 264.5625 752.625 C 261.9375 754.125 258.5625 755.875 254.4375 755.875 C 249.9375 755.875 246.1875 753.5 246.1875 748.25 C 246.1875 740 256.0625 738.625 264.5625 737.5 Z M 334.8125 755.625 C 332.6875 756.25 331.1875 756.75 329.0625 756.75 C 322.6875 756.75 322.1875 752.75 321.9375 750.875 C 321.5625 747.625 321.5625 740.75 321.6875 735.75 L 321.9375 718.125 L 333.1875 718.625 L 333.9375 717.875 L 335.1875 704.5 L 334.4375 703.75 L 321.9375 703.75 L 322.3125 682.75 L 321.4375 682 C 312.9375 684.5 310.6875 685.125 301.8125 687.375 L 301.3125 688.25 L 301.4375 703.875 L 294.6875 703.625 L 293.9375 704.25 L 292.8125 717.625 L 293.5625 718.375 L 301.4375 718.125 L 301.0625 738 C 300.9375 741.125 300.8125 744.25 300.8125 747.5 C 300.8125 759 301.0625 771.375 320.5625 771.375 C 325.4375 771.375 329.3125 770.625 333.6875 769.875 L 334.5625 769 L 335.8125 756.125 Z M 399.5625 751.5 C 394.8125 754 389.1875 756.875 380.0625 756.875 C 372.5625 756.875 367.4375 754.5 364.4375 750 C 362.5625 747.375 362.1875 744.875 361.6875 742.375 L 402.0625 741.625 L 402.8125 740.75 C 402.6875 734.625 402.5625 728.375 400.8125 722.125 C 396.4375 707.375 386.8125 704.375 382.5625 703.375 C 379.4375 702.5 376.5625 702.25 373.6875 702.25 C 354.0625 702.25 341.0625 715.125 341.0625 736.75 C 341.0625 742.625 342.0625 748.75 344.0625 753.125 C 351.3125 770 368.3125 771.5 377.3125 771.5 C 387.6875 771.5 392.1875 769.625 398.8125 767 L 399.5625 766 L 400.4375 751.875 L 399.5625 751.5 M 361.6875 729.125 C 362.0625 725.25 362.9375 720 367.6875 717 C 369.1875 716 370.9375 715.625 372.6875 715.625 C 376.8125 715.625 379.3125 717.75 380.6875 720 C 382.4375 722.75 382.5625 725.75 382.5625 728.625 Z M 525.9375 681.375 C 518.0625 681.75 515.9375 681.875 508.1875 681.75 L 507.5625 682.5 L 508.4375 699.375 L 508.9375 716.625 L 509.4375 737.25 C 505.8125 731.125 505.1875 730.125 498.8125 720.625 L 487.4375 704 C 478.0625 689.75 476.1875 687 473.0625 682 L 472.1875 681.375 C 462.3125 681.875 460.6875 681.875 451.5625 681.75 L 450.9375 682.5 C 451.5625 701.875 451.9375 716.25 451.9375 733 C 451.9375 745.25 451.6875 757.5 451.5625 769.625 L 452.1875 770.375 C 460.5625 770 463.1875 770 470.4375 770 L 471.0625 769.25 L 469.8125 741.875 L 469.4375 726.5 L 468.6875 709.75 C 474.5625 719.5 476.5625 722.75 485.0625 735.125 L 497.5625 753.5 L 508.6875 769.75 L 509.5625 770.375 C 517.1875 770 519.4375 770 526.0625 770 L 526.6875 769.375 C 526.5625 751.25 526.4375 739 526.4375 724 C 526.4375 710 526.5625 696.125 526.6875 682.125 Z M 597.5625 732.75 C 597.6875 721.5 597.6875 716.625 594.4375 711.375 C 591.9375 707.375 586.9375 702.375 570.9375 702.375 C 560.1875 702.375 553.5625 704.375 546.4375 706.5 L 545.6875 707.5 L 545.0625 721.125 L 546.0625 721.625 C 550.4375 719.875 558.5625 716.625 566.9375 716.625 C 571.5625 716.625 573.4375 717.375 575.0625 719 C 576.3125 720.25 576.6875 722.5 576.6875 724.375 C 561.6875 726.375 554.6875 727.75 547.1875 732.375 C 540.1875 736.75 537.8125 743.875 537.8125 749.5 C 537.8125 762.875 547.4375 771.5 559.6875 771.5 C 569.0625 771.5 574.4375 767 577.0625 764.875 L 577.0625 769.5 L 577.8125 770.375 C 586.8125 770 589.5625 769.875 597.6875 770 L 598.3125 769.125 C 597.4375 756.875 597.4375 753.75 597.4375 742 L 597.5625 732.75 M 576.9375 752.625 C 574.3125 754.125 570.9375 755.875 566.8125 755.875 C 562.3125 755.875 558.5625 753.5 558.5625 748.25 C 558.5625 740 568.4375 738.625 576.9375 737.5 Z M 647.1875 755.625 C 645.0625 756.25 643.5625 756.75 641.4375 756.75 C 635.0625 756.75 634.5625 752.75 634.3125 750.875 C 633.9375 747.625 633.9375 740.75 634.0625 735.75 L 634.3125 718.125 L 645.5625 718.625 L 646.3125 717.875 L 647.5625 704.5 L 646.8125 703.75 L 634.3125 703.75 L 634.6875 682.75 L 633.8125 682 C 625.3125 684.5 623.0625 685.125 614.1875 687.375 L 613.6875 688.25 L 613.8125 703.875 L 607.0625 703.625 L 606.3125 704.25 L 605.1875 717.625 L 605.9375 718.375 L 613.8125 718.125 L 613.4375 738 C 613.3125 741.125 613.1875 744.25 613.1875 747.5 C 613.1875 759 613.4375 771.375 632.9375 771.375 C 637.8125 771.375 641.6875 770.625 646.0625 769.875 L 646.9375 769 L 648.1875 756.125 Z M 716.4375 703.125 L 696.0625 704.125 L 695.1875 704.875 C 696.0625 719 696.0625 739 696.0625 741 C 696.0625 744.625 696.0625 746.625 695.9375 751.625 C 692.5625 753.875 689.9375 755.75 686.5625 755.75 C 677.5625 755.75 677.5625 746.25 677.5625 738.875 C 677.5625 735.75 677.5625 732.5 677.6875 729.375 L 677.9375 704.125 L 677.0625 703.125 L 656.4375 704.125 L 655.5625 704.875 C 656.3125 715.375 656.4375 718.875 656.4375 731.5 L 656.4375 740.25 C 656.3125 753.875 656.9375 759.625 661.4375 764.875 C 665.5625 769.5 671.5625 771.5 677.8125 771.5 C 686.6875 771.5 691.8125 767.5 696.3125 764 L 696.1875 769.625 L 697.0625 770.375 C 706.1875 770 708.9375 770 717.0625 770 L 717.8125 769.25 C 717.1875 760.375 716.9375 755.625 716.9375 739.375 C 716.9375 727.625 717.0625 715.875 717.3125 704.125 Z M 768.0625 723.625 L 771.5625 703.25 L 770.8125 702.375 C 769.9375 702.375 769.0625 702.25 768.1875 702.25 C 763.0625 702.25 757.3125 705.125 753.3125 714.375 L 753.6875 702.875 L 752.6875 701.875 C 743.4375 703.875 741.0625 704.25 731.9375 705.625 L 731.1875 706.375 C 731.9375 715.75 732.3125 721.375 732.3125 738.75 C 732.3125 749 732.1875 759.25 731.9375 769.625 L 732.6875 770.375 C 741.9375 770 743.9375 769.875 753.9375 770 L 754.5625 769.125 C 754.0625 759 753.3125 744.875 753.3125 736.25 C 753.3125 730.625 753.3125 722.375 761.8125 722.375 C 763.9375 722.375 765.1875 723.125 766.9375 724.125 Z M 834.4375 732.75 C 834.5625 721.5 834.5625 716.625 831.3125 711.375 C 828.8125 707.375 823.8125 702.375 807.8125 702.375 C 797.0625 702.375 790.4375 704.375 783.3125 706.5 L 782.5625 707.5 L 781.9375 721.125 L 782.9375 721.625 C 787.3125 719.875 795.4375 716.625 803.8125 716.625 C 808.4375 716.625 810.3125 717.375 811.9375 719 C 813.1875 720.25 813.5625 722.5 813.5625 724.375 C 798.5625 726.375 791.5625 727.75 784.0625 732.375 C 777.0625 736.75 774.6875 743.875 774.6875 749.5 C 774.6875 762.875 784.3125 771.5 796.5625 771.5 C 805.9375 771.5 811.3125 767 813.9375 764.875 L 813.9375 769.5 L 814.6875 770.375 C 823.6875 770 826.4375 769.875 834.5625 770 L 835.1875 769.125 C 834.3125 756.875 834.3125 753.75 834.3125 742 L 834.4375 732.75 M 813.8125 752.625 C 811.1875 754.125 807.8125 755.875 803.6875 755.875 C 799.1875 755.875 795.4375 753.5 795.4375 748.25 C 795.4375 740 805.3125 738.625 813.8125 737.5 Z M 871.0625 769.125 C 870.4375 754.75 869.8125 741.625 869.8125 702.125 C 869.8125 690.25 869.9375 684.625 870.4375 671.125 L 869.5625 670.25 L 848.1875 673.625 L 847.6875 674.375 C 848.9375 689.625 849.0625 693.75 849.3125 714 C 849.4375 721.375 849.4375 728.75 849.4375 736.125 C 849.4375 749.625 849.1875 757.125 848.6875 769.5 L 849.4375 770.375 C 857.8125 770 861.1875 769.875 870.3125 770 Z M 878.0625 770 "/>
<path fill-rule="nonzero" fill="rgb(34.901961%, 14.901961%, 14.901961%)" fill-opacity="1" d="M 298.9375 885.625 C 307.3125 899.875 309.1875 903.625 317.1875 920 L 318.1875 920.625 C 322.0625 920.375 325.8125 920.125 329.6875 920 C 333.5625 919.875 337.5625 919.75 341.4375 919.75 L 342.1875 918.25 C 337.4375 912.125 336.0625 910.25 327.0625 895.875 C 323.0625 889.5 321.0625 886.125 317.9375 880.625 C 323.5625 878.125 334.9375 872.875 334.9375 857 C 334.9375 851.5 333.4375 840.125 323.1875 834.75 C 316.6875 831.375 309.9375 831.25 295.3125 831.5 L 286.5625 831.625 L 271.3125 831.625 L 270.6875 832.375 C 271.1875 845 271.6875 858 271.6875 892 C 271.6875 903.625 271.5625 909.25 271.1875 919.625 L 271.9375 920.375 C 281.0625 920 283.0625 919.875 293.3125 920 L 294.0625 919.25 C 293.0625 904.75 292.9375 900.75 292.8125 885.875 L 298.9375 885.625 M 293.0625 846.75 C 294.8125 846.625 296.5625 846.625 298.3125 846.625 C 303.1875 846.625 312.8125 846.625 312.8125 857.625 C 312.8125 861.125 311.9375 865.75 307.3125 868.625 C 303.8125 870.75 299.3125 871 293.0625 871.125 Z M 404.3125 901.5 C 399.5625 904 393.9375 906.875 384.8125 906.875 C 377.3125 906.875 372.1875 904.5 369.1875 900 C 367.3125 897.375 366.9375 894.875 366.4375 892.375 L 406.8125 891.625 L 407.5625 890.75 C 407.4375 884.625 407.3125 878.375 405.5625 872.125 C 401.1875 857.375 391.5625 854.375 387.3125 853.375 C 384.1875 852.5 381.3125 852.25 378.4375 852.25 C 358.8125 852.25 345.8125 865.125 345.8125 886.75 C 345.8125 892.625 346.8125 898.75 348.8125 903.125 C 356.0625 920 373.0625 921.5 382.0625 921.5 C 392.4375 921.5 396.9375 919.625 403.5625 917 L 404.3125 916 L 405.1875 901.875 L 404.3125 901.5 M 366.4375 879.125 C 366.8125 875.25 367.6875 870 372.4375 867 C 373.9375 866 375.6875 865.625 377.4375 865.625 C 381.5625 865.625 384.0625 867.75 385.4375 870 C 387.1875 872.75 387.3125 875.75 387.3125 878.625 Z M 445.3125 876.875 C 441.0625 875.375 437.6875 874 437.6875 870.5 C 437.6875 869 438.6875 864.875 446.4375 864.875 C 454.0625 864.875 458.9375 868.125 462.0625 870.125 L 463.1875 869.75 L 464.4375 856.125 L 463.8125 855.375 C 457.9375 853.75 452.8125 852.25 444.6875 852.25 C 438.5625 852.25 426.3125 852.75 419.8125 862.125 C 418.1875 864.375 416.4375 868.125 416.4375 873.125 C 416.4375 886.5 426.8125 890.5 432.6875 892.75 L 437.4375 894.5 C 440.8125 895.625 446.3125 897.5 446.3125 902 C 446.3125 905.125 443.4375 908.5 436.4375 908.5 C 432.9375 908.5 427.8125 907.375 423.1875 905 C 421.0625 903.875 420.0625 903 418.1875 901.5 L 417.0625 902 C 416.8125 908.5 416.6875 909.875 416.1875 916.125 L 416.8125 917.25 C 422.9375 919.5 428.1875 921.5 437.3125 921.5 C 446.8125 921.5 465.5625 919.75 467.8125 901.875 C 467.9375 900.875 467.9375 900 467.9375 899.125 C 467.9375 885.375 458.3125 881.75 451.4375 879.125 Z M 534.4375 901.5 C 529.6875 904 524.0625 906.875 514.9375 906.875 C 507.4375 906.875 502.3125 904.5 499.3125 900 C 497.4375 897.375 497.0625 894.875 496.5625 892.375 L 536.9375 891.625 L 537.6875 890.75 C 537.5625 884.625 537.4375 878.375 535.6875 872.125 C 531.3125 857.375 521.6875 854.375 517.4375 853.375 C 514.3125 852.5 511.4375 852.25 508.5625 852.25 C 488.9375 852.25 475.9375 865.125 475.9375 886.75 C 475.9375 892.625 476.9375 898.75 478.9375 903.125 C 486.1875 920 503.1875 921.5 512.1875 921.5 C 522.5625 921.5 527.0625 919.625 533.6875 917 L 534.4375 916 L 535.3125 901.875 L 534.4375 901.5 M 496.5625 879.125 C 496.9375 875.25 497.8125 870 502.5625 867 C 504.0625 866 505.8125 865.625 507.5625 865.625 C 511.6875 865.625 514.1875 867.75 515.5625 870 C 517.3125 872.75 517.4375 875.75 517.4375 878.625 Z M 585.3125 873.625 L 588.8125 853.25 L 588.0625 852.375 C 587.1875 852.375 586.3125 852.25 585.4375 852.25 C 580.3125 852.25 574.5625 855.125 570.5625 864.375 L 570.9375 852.875 L 569.9375 851.875 C 560.6875 853.875 558.3125 854.25 549.1875 855.625 L 548.4375 856.375 C 549.1875 865.75 549.5625 871.375 549.5625 888.75 C 549.5625 899 549.4375 909.25 549.1875 919.625 L 549.9375 920.375 C 559.1875 920 561.1875 919.875 571.1875 920 L 571.8125 919.125 C 571.3125 909 570.5625 894.875 570.5625 886.25 C 570.5625 880.625 570.5625 872.375 579.0625 872.375 C 581.1875 872.375 582.4375 873.125 584.1875 874.125 Z M 630.5625 919 C 634.5625 906.5 636.9375 898.75 639.5625 890.875 C 642.9375 880.75 648.4375 864.5 651.9375 854.25 L 651.3125 853.375 L 633.8125 853.75 L 632.9375 854.625 C 631.1875 863 630.8125 864.75 628.3125 874.5 L 621.9375 899.125 L 618.8125 885.625 L 616.4375 876 C 613.3125 864.375 612.8125 862 611.0625 853.75 L 610.1875 853 C 600.3125 854.125 597.8125 854.25 588.3125 854.375 L 587.8125 855.375 C 604.4375 904.625 605.8125 909.25 608.5625 919.5 L 609.4375 920.375 C 617.5625 920 620.8125 919.875 629.8125 920 Z M 714.0625 901.5 C 709.3125 904 703.6875 906.875 694.5625 906.875 C 687.0625 906.875 681.9375 904.5 678.9375 900 C 677.0625 897.375 676.6875 894.875 676.1875 892.375 L 716.5625 891.625 L 717.3125 890.75 C 717.1875 884.625 717.0625 878.375 715.3125 872.125 C 710.9375 857.375 701.3125 854.375 697.0625 853.375 C 693.9375 852.5 691.0625 852.25 688.1875 852.25 C 668.5625 852.25 655.5625 865.125 655.5625 886.75 C 655.5625 892.625 656.5625 898.75 658.5625 903.125 C 665.8125 920 682.8125 921.5 691.8125 921.5 C 702.1875 921.5 706.6875 919.625 713.3125 917 L 714.0625 916 L 714.9375 901.875 L 714.0625 901.5 M 676.1875 879.125 C 676.5625 875.25 677.4375 870 682.1875 867 C 683.6875 866 685.4375 865.625 687.1875 865.625 C 691.3125 865.625 693.8125 867.75 695.1875 870 C 696.9375 872.75 697.0625 875.75 697.0625 878.625 Z M 721.3125 920 "/>
</svg>
