<?xml version="1.0" encoding="UTF-8"?>
<svg xmlns="http://www.w3.org/2000/svg" xmlns:xlink="http://www.w3.org/1999/xlink" width="975" height="1300" viewBox="0 0 975 1300">
<path fill-rule="nonzero" fill="rgb(34.901961%, 14.901961%, 14.901961%)" fill-opacity="1" d="M 219.9375 381.375 C 206.9375 381.75 204.8125 381.75 190.9375 381.75 L 190.1875 382.5 L 184.4375 402.75 L 179.4375 420.875 L 173.5625 442.625 L 168.0625 420.25 L 164.5625 406.125 L 158.3125 382.125 L 157.6875 381.375 C 144.3125 381.75 142.0625 381.75 128.0625 381.75 L 127.3125 382.5 C 126.0625 419.875 125.5625 429.5 122.8125 469.625 L 123.4375 470.375 C 131.4375 470 133.8125 469.875 141.0625 470 L 141.8125 469.25 L 142.1875 445.375 L 142.9375 421.125 L 143.4375 397.5 L 148.9375 419.625 L 153.6875 437.375 L 162.0625 469.625 L 162.8125 470.375 C 170.5625 470 172.6875 469.875 181.4375 470 L 182.1875 469.25 L 189.4375 442.625 L 194.4375 424.375 L 201.4375 398.125 L 201.4375 420.5 L 201.6875 439.625 L 201.6875 469.625 L 202.3125 470.375 C 210.9375 470 214.3125 469.875 223.9375 470 L 224.5625 469.25 C 223.8125 455 222.9375 440.625 222.4375 426.25 C 222.0625 418.375 221.8125 410.5 221.4375 402.625 C 220.8125 391 220.6875 389.5 220.6875 382.125 Z M 302.3125 436.75 C 302.3125 431.875 302.3125 411.625 284.8125 404.75 C 279.3125 402.625 272.8125 402.375 269.5625 402.375 C 247.8125 402.375 235.5625 414 235.5625 437 C 235.5625 445 236.8125 453.125 241.4375 459.875 C 244.6875 464.75 250.8125 471.5 268.6875 471.5 C 295.1875 471.5 302.3125 455.5 302.3125 436.75 M 280.6875 436.625 C 280.6875 446.875 279.3125 458.25 268.9375 458.25 C 265.6875 458.25 263.4375 456.75 261.9375 455.375 C 259.8125 453.25 257.4375 449 257.4375 436.875 C 257.4375 433.25 257.4375 425.25 259.9375 420.875 C 261.8125 417.5 265.0625 415.25 269.0625 415.25 C 272.5625 415.25 275.4375 417.125 277.0625 419.125 C 280.0625 422.75 280.6875 429.875 280.6875 436.625 Z M 375.4375 469.125 C 374.8125 458.125 374.8125 454.625 374.5625 442.375 L 374.5625 432.625 C 374.4375 420.625 374.3125 414.875 371.1875 409.75 C 367.3125 403.25 360.1875 402.25 355.6875 402.25 C 348.0625 402.25 341.4375 406.25 335.6875 409.625 L 335.9375 402.75 L 334.6875 401.875 C 325.0625 403.875 322.9375 404.25 313.5625 405.5 L 312.8125 406.375 C 313.8125 417.25 314.5625 425.125 314.5625 445.5 C 314.5625 453.5 314.4375 461.5 314.3125 469.5 L 315.0625 470.25 C 324.0625 469.875 325.9375 469.875 335.9375 469.875 L 336.6875 469.125 C 335.9375 449.875 335.8125 445 335.6875 422.625 C 338.3125 420.875 341.3125 418.75 345.3125 418.75 C 352.1875 418.75 352.8125 426.125 353.1875 430.625 C 353.4375 434.75 353.5625 451.875 353.5625 456.625 C 353.5625 460.875 353.4375 465.25 353.4375 469.5 L 354.1875 470.25 C 362.4375 470 364.5625 469.875 374.5625 469.875 Z M 424.6875 455.625 C 422.5625 456.25 421.0625 456.75 418.9375 456.75 C 412.5625 456.75 412.0625 452.75 411.8125 450.875 C 411.4375 447.625 411.4375 440.75 411.5625 435.75 L 411.8125 418.125 L 423.0625 418.625 L 423.8125 417.875 L 425.0625 404.5 L 424.3125 403.75 L 411.8125 403.75 L 412.1875 382.75 L 411.3125 382 C 402.8125 384.5 400.5625 385.125 391.6875 387.375 L 391.1875 388.25 L 391.3125 403.875 L 384.5625 403.625 L 383.8125 404.25 L 382.6875 417.625 L 383.4375 418.375 L 391.3125 418.125 L 390.9375 438 C 390.8125 441.125 390.6875 444.25 390.6875 447.5 C 390.6875 459 390.9375 471.375 410.4375 471.375 C 415.3125 471.375 419.1875 470.625 423.5625 469.875 L 424.4375 469 L 425.6875 456.125 Z M 456.9375 448.875 C 460.9375 449 464.9375 449.25 470.9375 447.25 C 477.4375 445 486.9375 439.625 486.9375 427.5 C 486.9375 421.5 485.1875 419 483.5625 416.625 L 492.1875 417.125 L 492.9375 416.5 L 493.8125 404 L 493.0625 403.375 C 483.4375 403.75 480.8125 403.875 472.9375 403.75 L 467.1875 403.625 C 458.3125 403.375 446.4375 403.125 438.3125 409.875 C 435.5625 412 430.3125 417.375 430.3125 426.75 C 430.3125 431.75 431.6875 435.75 433.9375 438.875 C 436.6875 442.75 439.1875 444.125 442.3125 445.875 C 438.8125 452.625 436.9375 456 434.0625 461.125 L 434.0625 462.25 L 439.3125 466 C 435.5625 468.875 429.6875 473.625 429.6875 481.75 C 429.6875 487.5 432.8125 492.5 437.4375 495.875 C 444.4375 500.875 453.9375 501.125 458.8125 501.125 C 481.6875 501.125 492.1875 489.625 492.1875 477.5 C 492.1875 461.75 478.4375 458.75 470.3125 456.875 L 467.3125 456.375 C 461.1875 455.375 459.8125 455 454.9375 453.25 L 456.9375 448.875 M 467.1875 426.375 C 467.0625 436.5 460.9375 437.375 459.1875 437.375 C 458.1875 437.375 453.8125 437.125 451.6875 432.125 C 450.5625 429.5 450.5625 426.5 450.5625 425.625 C 450.5625 419.375 454.3125 415.375 458.9375 415.375 C 464.6875 415.375 467.3125 420.875 467.1875 426.375 M 456.5625 473 C 467.6875 475.875 467.8125 475.875 469.3125 477.125 C 470.5625 478 471.8125 479.375 471.8125 482 C 471.8125 485.75 468.6875 489.625 460.4375 489.625 C 451.1875 489.625 448.0625 484.375 448.0625 480 C 448.0625 475.875 450.1875 473.5 451.6875 471.75 Z M 565.3125 436.75 C 565.3125 431.875 565.3125 411.625 547.8125 404.75 C 542.3125 402.625 535.8125 402.375 532.5625 402.375 C 510.8125 402.375 498.5625 414 498.5625 437 C 498.5625 445 499.8125 453.125 504.4375 459.875 C 507.6875 464.75 513.8125 471.5 531.6875 471.5 C 558.1875 471.5 565.3125 455.5 565.3125 436.75 M 543.6875 436.625 C 543.6875 446.875 542.3125 458.25 531.9375 458.25 C 528.6875 458.25 526.4375 456.75 524.9375 455.375 C 522.8125 453.25 520.4375 449 520.4375 436.875 C 520.4375 433.25 520.4375 425.25 522.9375 420.875 C 524.8125 417.5 528.0625 415.25 532.0625 415.25 C 535.5625 415.25 538.4375 417.125 540.0625 419.125 C 543.0625 422.75 543.6875 429.875 543.6875 436.625 Z M 674.8125 469.125 C 674.1875 457.5 674.0625 454.25 674.0625 440.125 L 674.0625 430.75 C 674.1875 422.375 674.3125 414.625 670.6875 409.375 C 665.8125 402.25 657.1875 402.25 655.1875 402.25 C 644.9375 402.25 638.0625 406.875 633.0625 410.375 C 631.3125 407.5 628.1875 402.25 618.1875 402.25 C 609.9375 402.25 604.5625 406 598.8125 410 L 598.8125 403 L 597.6875 401.875 C 587.9375 403.75 585.1875 404.25 576.4375 405.5 L 575.6875 406.375 C 576.6875 416.375 577.4375 423.25 577.4375 448 C 577.4375 455.125 577.3125 462.375 577.3125 469.5 L 577.9375 470.25 C 585.9375 470 588.6875 469.875 599.0625 469.875 L 599.8125 469.125 C 598.9375 449.875 598.8125 444.125 598.6875 422.375 C 601.3125 420.5 604.1875 418.875 607.3125 418.875 C 615.0625 418.875 615.3125 427.75 615.3125 438.5 C 615.3125 456.625 615.1875 459.375 614.9375 469.5 L 615.6875 470.375 C 625.1875 469.875 627.8125 469.875 636.4375 469.875 L 637.1875 469.125 C 636.4375 457.25 636.3125 453.75 636.1875 438.625 L 636.1875 434 L 636.0625 421.375 C 638.1875 420 640.9375 418.25 644.6875 418.25 C 651.8125 418.25 652.9375 425 652.9375 435.75 C 652.9375 438.125 652.8125 440.5 652.8125 442.875 C 652.6875 447.125 652.5625 465.75 652.4375 469.5 L 653.1875 470.25 C 662.5625 469.875 665.3125 469.875 674.0625 469.875 Z M 744.6875 451.5 C 739.9375 454 734.3125 456.875 725.1875 456.875 C 717.6875 456.875 712.5625 454.5 709.5625 450 C 707.6875 447.375 707.3125 444.875 706.8125 442.375 L 747.1875 441.625 L 747.9375 440.75 C 747.8125 434.625 747.6875 428.375 745.9375 422.125 C 741.5625 407.375 731.9375 404.375 727.6875 403.375 C 724.5625 402.5 721.6875 402.25 718.8125 402.25 C 699.1875 402.25 686.1875 415.125 686.1875 436.75 C 686.1875 442.625 687.1875 448.75 689.1875 453.125 C 696.4375 470 713.4375 471.5 722.4375 471.5 C 732.8125 471.5 737.3125 469.625 743.9375 467 L 744.6875 466 L 745.5625 451.875 L 744.6875 451.5 M 706.8125 429.125 C 707.1875 425.25 708.0625 420 712.8125 417 C 714.3125 416 716.0625 415.625 717.8125 415.625 C 721.9375 415.625 724.4375 417.75 725.8125 420 C 727.5625 422.75 727.6875 425.75 727.6875 428.625 Z M 795.5625 423.625 L 799.0625 403.25 L 798.3125 402.375 C 797.4375 402.375 796.5625 402.25 795.6875 402.25 C 790.5625 402.25 784.8125 405.125 780.8125 414.375 L 781.1875 402.875 L 780.1875 401.875 C 770.9375 403.875 768.5625 404.25 759.4375 405.625 L 758.6875 406.375 C 759.4375 415.75 759.8125 421.375 759.8125 438.75 C 759.8125 449 759.6875 459.25 759.4375 469.625 L 760.1875 470.375 C 769.4375 470 771.4375 469.875 781.4375 470 L 782.0625 469.125 C 781.5625 459 780.8125 444.875 780.8125 436.25 C 780.8125 430.625 780.8125 422.375 789.3125 422.375 C 791.4375 422.375 792.6875 423.125 794.4375 424.125 Z M 862.1875 403.375 L 844.8125 403.75 L 843.8125 404.625 C 841.6875 413.25 841.1875 415.125 838.1875 424.875 L 834.9375 435.625 L 832.1875 445 L 829.8125 436.125 L 826.1875 422.875 L 821.1875 403.875 L 820.1875 403.125 C 810.4375 403.875 808.3125 404 798.0625 404.25 L 797.4375 405.125 C 801.9375 417 813.5625 448.375 821.3125 472.375 C 816.1875 485.375 815.1875 487.625 809.5625 500 L 810.1875 501 C 813.3125 500.875 816.8125 500.75 820.0625 500.75 C 823.1875 500.75 826.4375 500.875 829.5625 500.875 L 830.4375 500.125 C 837.3125 473.125 840.6875 462.625 857.1875 419.125 C 859.0625 414.125 860.9375 409.25 862.6875 404.375 Z M 861.3125 470 "/>
<path fill-rule="nonzero" fill="rgb(34.901961%, 14.901961%, 14.901961%)" fill-opacity="1" d="M 216.625 619.25 C 221.25 596.5 223.25 587 236.5 532.125 L 235.875 531.375 C 227 531.75 225.25 531.75 216.875 531.75 L 216.125 532.5 C 214.125 545.375 213.5 549.75 210.75 564.125 L 207.125 583.25 L 203.125 604.75 C 201.25 590.75 200.625 586.5 198.125 572 L 194.5 551 L 191.375 531.75 L 190.625 530.875 L 165.875 531.5 L 165.125 532.25 L 160.125 561 L 155.25 586.625 L 152.125 603.875 C 150.625 593 150.125 589.375 147.5 574.25 L 144.25 556 L 140.125 531.25 L 139.375 530.625 C 128.625 531.375 126.875 531.375 117.75 531.625 L 117.125 532.5 C 126.25 573.875 128.25 583.375 135 619.625 L 135.75 620.375 C 148.375 619.875 151.75 619.875 164 620 L 164.875 619.25 L 167.5 603.75 L 171.625 580.875 L 176.125 554.125 C 177.625 566.375 178 569.5 180.25 583 L 183.375 602.5 L 186 619.625 L 186.625 620.375 C 198.625 620 202.75 619.875 216 620 Z M 306.625 586.75 C 306.625 581.875 306.625 561.625 289.125 554.75 C 283.625 552.625 277.125 552.375 273.875 552.375 C 252.125 552.375 239.875 564 239.875 587 C 239.875 595 241.125 603.125 245.75 609.875 C 249 614.75 255.125 621.5 273 621.5 C 299.5 621.5 306.625 605.5 306.625 586.75 M 285 586.625 C 285 596.875 283.625 608.25 273.25 608.25 C 270 608.25 267.75 606.75 266.25 605.375 C 264.125 603.25 261.75 599 261.75 586.875 C 261.75 583.25 261.75 575.25 264.25 570.875 C 266.125 567.5 269.375 565.25 273.375 565.25 C 276.875 565.25 279.75 567.125 281.375 569.125 C 284.375 572.75 285 579.875 285 586.625 Z M 382.125 586.75 C 382.125 581.875 382.125 561.625 364.625 554.75 C 359.125 552.625 352.625 552.375 349.375 552.375 C 327.625 552.375 315.375 564 315.375 587 C 315.375 595 316.625 603.125 321.25 609.875 C 324.5 614.75 330.625 621.5 348.5 621.5 C 375 621.5 382.125 605.5 382.125 586.75 M 360.5 586.625 C 360.5 596.875 359.125 608.25 348.75 608.25 C 345.5 608.25 343.25 606.75 341.75 605.375 C 339.625 603.25 337.25 599 337.25 586.875 C 337.25 583.25 337.25 575.25 339.75 570.875 C 341.625 567.5 344.875 565.25 348.875 565.25 C 352.375 565.25 355.25 567.125 356.875 569.125 C 359.875 572.75 360.5 579.875 360.5 586.625 Z M 455.25 619.25 C 454.75 608 454.375 600.5 454.375 584.125 C 454.375 551.125 454.875 537.5 455.375 521 L 454.5 520.25 L 433.875 523.5 L 433.25 524.25 C 434 536 434.125 539.125 434 553.375 C 424.625 553.125 412.875 552.875 403.375 560.375 C 394.625 567.125 391 577.5 391 590.375 C 391 600.125 393.625 609.875 401 616 C 406.5 620.5 413.25 621.5 417.375 621.5 C 426.25 621.5 430.875 617.375 433.875 614.75 L 433.625 619.625 L 434.25 620.375 C 442.875 620 445.25 620 454.625 620 L 455.25 619.25 M 434 568.375 C 434.125 585 434 588.25 433.625 603.375 C 431.125 604.875 428.625 606.375 425.125 606.375 C 413 606.375 413 590.875 413 588.375 C 413 578.75 415.75 568 429.75 568 C 431.125 568 432.25 568.125 434 568.375 Z M 495.75 576.875 C 491.5 575.375 488.125 574 488.125 570.5 C 488.125 569 489.125 564.875 496.875 564.875 C 504.5 564.875 509.375 568.125 512.5 570.125 L 513.625 569.75 L 514.875 556.125 L 514.25 555.375 C 508.375 553.75 503.25 552.25 495.125 552.25 C 489 552.25 476.75 552.75 470.25 562.125 C 468.625 564.375 466.875 568.125 466.875 573.125 C 466.875 586.5 477.25 590.5 483.125 592.75 L 487.875 594.5 C 491.25 595.625 496.75 597.5 496.75 602 C 496.75 605.125 493.875 608.5 486.875 608.5 C 483.375 608.5 478.25 607.375 473.625 605 C 471.5 603.875 470.5 603 468.625 601.5 L 467.5 602 C 467.25 608.5 467.125 609.875 466.625 616.125 L 467.25 617.25 C 473.375 619.5 478.625 621.5 487.75 621.5 C 497.25 621.5 516 619.75 518.25 601.875 C 518.375 600.875 518.375 600 518.375 599.125 C 518.375 585.375 508.75 581.75 501.875 579.125 Z M 602 566.25 C 591.5 561.875 586 559.625 586 554 C 586 550.125 589.625 545.25 597.875 545.25 C 607.375 545.25 613 549.125 617.625 552.25 L 618.75 551.75 L 619.75 535.375 L 619.125 534.5 C 613.75 532.25 608.125 529.875 596 529.875 C 572.5 529.875 564.375 543.125 564.375 556.5 C 564.375 571.625 576.125 577.125 583.125 580.5 L 587.25 582.375 C 595.875 586 602.5 589.125 602.5 595.75 C 602.5 600.5 598.375 606.125 587.5 606.125 C 576.125 606.125 569.75 601.125 566.125 598.25 L 564.875 598.625 L 564 616.25 L 564.75 617.25 C 566.125 617.75 567.5 618.375 568.875 618.75 C 571.75 619.75 579.125 621.875 588.5 621.875 C 592.25 621.875 601.75 621.5 609.25 618 C 619.75 612.875 624.25 603.375 624.25 592.75 C 624.25 585.625 621.5 578 614.875 572.875 C 611.5 570.375 608.25 568.875 605.25 567.5 Z M 671.125 605.625 C 669 606.25 667.5 606.75 665.375 606.75 C 659 606.75 658.5 602.75 658.25 600.875 C 657.875 597.625 657.875 590.75 658 585.75 L 658.25 568.125 L 669.5 568.625 L 670.25 567.875 L 671.5 554.5 L 670.75 553.75 L 658.25 553.75 L 658.625 532.75 L 657.75 532 C 649.25 534.5 647 535.125 638.125 537.375 L 637.625 538.25 L 637.75 553.875 L 631 553.625 L 630.25 554.25 L 629.125 567.625 L 629.875 568.375 L 637.75 568.125 L 637.375 588 C 637.25 591.125 637.125 594.25 637.125 597.5 C 637.125 609 637.375 621.375 656.875 621.375 C 661.75 621.375 665.625 620.625 670 619.875 L 670.875 619 L 672.125 606.125 Z M 736 582.75 C 736.125 571.5 736.125 566.625 732.875 561.375 C 730.375 557.375 725.375 552.375 709.375 552.375 C 698.625 552.375 692 554.375 684.875 556.5 L 684.125 557.5 L 683.5 571.125 L 684.5 571.625 C 688.875 569.875 697 566.625 705.375 566.625 C 710 566.625 711.875 567.375 713.5 569 C 714.75 570.25 715.125 572.5 715.125 574.375 C 700.125 576.375 693.125 577.75 685.625 582.375 C 678.625 586.75 676.25 593.875 676.25 599.5 C 676.25 612.875 685.875 621.5 698.125 621.5 C 707.5 621.5 712.875 617 715.5 614.875 L 715.5 619.5 L 716.25 620.375 C 725.25 620 728 619.875 736.125 620 L 736.75 619.125 C 735.875 606.875 735.875 603.75 735.875 592 L 736 582.75 M 715.375 602.625 C 712.75 604.125 709.375 605.875 705.25 605.875 C 700.75 605.875 697 603.5 697 598.25 C 697 590 706.875 588.625 715.375 587.5 Z M 785.625 605.625 C 783.5 606.25 782 606.75 779.875 606.75 C 773.5 606.75 773 602.75 772.75 600.875 C 772.375 597.625 772.375 590.75 772.5 585.75 L 772.75 568.125 L 784 568.625 L 784.75 567.875 L 786 554.5 L 785.25 553.75 L 772.75 553.75 L 773.125 532.75 L 772.25 532 C 763.75 534.5 761.5 535.125 752.625 537.375 L 752.125 538.25 L 752.25 553.875 L 745.5 553.625 L 744.75 554.25 L 743.625 567.625 L 744.375 568.375 L 752.25 568.125 L 751.875 588 C 751.75 591.125 751.625 594.25 751.625 597.5 C 751.625 609 751.875 621.375 771.375 621.375 C 776.25 621.375 780.125 620.625 784.5 619.875 L 785.375 619 L 786.625 606.125 Z M 850.375 601.5 C 845.625 604 840 606.875 830.875 606.875 C 823.375 606.875 818.25 604.5 815.25 600 C 813.375 597.375 813 594.875 812.5 592.375 L 852.875 591.625 L 853.625 590.75 C 853.5 584.625 853.375 578.375 851.625 572.125 C 847.25 557.375 837.625 554.375 833.375 553.375 C 830.25 552.5 827.375 552.25 824.5 552.25 C 804.875 552.25 791.875 565.125 791.875 586.75 C 791.875 592.625 792.875 598.75 794.875 603.125 C 802.125 620 819.125 621.5 828.125 621.5 C 838.5 621.5 843 619.625 849.625 617 L 850.375 616 L 851.25 601.875 L 850.375 601.5 M 812.5 579.125 C 812.875 575.25 813.75 570 818.5 567 C 820 566 821.75 565.625 823.5 565.625 C 827.625 565.625 830.125 567.75 831.5 570 C 833.25 572.75 833.375 575.75 833.375 578.625 Z M 857.625 620 "/>
<path fill-rule="nonzero" fill="rgb(34.901961%, 14.901961%, 14.901961%)" fill-opacity="1" d="M 359.0625 681.375 C 351.1875 681.75 349.0625 681.875 341.3125 681.75 L 340.6875 682.5 L 341.5625 699.375 L 342.0625 716.625 L 342.5625 737.25 C 338.9375 731.125 338.3125 730.125 331.9375 720.625 L 320.5625 704 C 311.1875 689.75 309.3125 687 306.1875 682 L 305.3125 681.375 C 295.4375 681.875 293.8125 681.875 284.6875 681.75 L 284.0625 682.5 C 284.6875 701.875 285.0625 716.25 285.0625 733 C 285.0625 745.25 284.8125 757.5 284.6875 769.625 L 285.3125 770.375 C 293.6875 770 296.3125 770 303.5625 770 L 304.1875 769.25 L 302.9375 741.875 L 302.5625 726.5 L 301.8125 709.75 C 307.6875 719.5 309.6875 722.75 318.1875 735.125 L 330.6875 753.5 L 341.8125 769.75 L 342.6875 770.375 C 350.3125 770 352.5625 770 359.1875 770 L 359.8125 769.375 C 359.6875 751.25 359.5625 739 359.5625 724 C 359.5625 710 359.6875 696.125 359.8125 682.125 Z M 430.6875 732.75 C 430.8125 721.5 430.8125 716.625 427.5625 711.375 C 425.0625 707.375 420.0625 702.375 404.0625 702.375 C 393.3125 702.375 386.6875 704.375 379.5625 706.5 L 378.8125 707.5 L 378.1875 721.125 L 379.1875 721.625 C 383.5625 719.875 391.6875 716.625 400.0625 716.625 C 404.6875 716.625 406.5625 717.375 408.1875 719 C 409.4375 720.25 409.8125 722.5 409.8125 724.375 C 394.8125 726.375 387.8125 727.75 380.3125 732.375 C 373.3125 736.75 370.9375 743.875 370.9375 749.5 C 370.9375 762.875 380.5625 771.5 392.8125 771.5 C 402.1875 771.5 407.5625 767 410.1875 764.875 L 410.1875 769.5 L 410.9375 770.375 C 419.9375 770 422.6875 769.875 430.8125 770 L 431.4375 769.125 C 430.5625 756.875 430.5625 753.75 430.5625 742 L 430.6875 732.75 M 410.0625 752.625 C 407.4375 754.125 404.0625 755.875 399.9375 755.875 C 395.4375 755.875 391.6875 753.5 391.6875 748.25 C 391.6875 740 401.5625 738.625 410.0625 737.5 Z M 480.3125 755.625 C 478.1875 756.25 476.6875 756.75 474.5625 756.75 C 468.1875 756.75 467.6875 752.75 467.4375 750.875 C 467.0625 747.625 467.0625 740.75 467.1875 735.75 L 467.4375 718.125 L 478.6875 718.625 L 479.4375 717.875 L 480.6875 704.5 L 479.9375 703.75 L 467.4375 703.75 L 467.8125 682.75 L 466.9375 682 C 458.4375 684.5 456.1875 685.125 447.3125 687.375 L 446.8125 688.25 L 446.9375 703.875 L 440.1875 703.625 L 439.4375 704.25 L 438.3125 717.625 L 439.0625 718.375 L 446.9375 718.125 L 446.5625 738 C 446.4375 741.125 446.3125 744.25 446.3125 747.5 C 446.3125 759 446.5625 771.375 466.0625 771.375 C 470.9375 771.375 474.8125 770.625 479.1875 769.875 L 480.0625 769 L 481.3125 756.125 Z M 549.5625 703.125 L 529.1875 704.125 L 528.3125 704.875 C 529.1875 719 529.1875 739 529.1875 741 C 529.1875 744.625 529.1875 746.625 529.0625 751.625 C 525.6875 753.875 523.0625 755.75 519.6875 755.75 C 510.6875 755.75 510.6875 746.25 510.6875 738.875 C 510.6875 735.75 510.6875 732.5 510.8125 729.375 L 511.0625 704.125 L 510.1875 703.125 L 489.5625 704.125 L 488.6875 704.875 C 489.4375 715.375 489.5625 718.875 489.5625 731.5 L 489.5625 740.25 C 489.4375 753.875 490.0625 759.625 494.5625 764.875 C 498.6875 769.5 504.6875 771.5 510.9375 771.5 C 519.8125 771.5 524.9375 767.5 529.4375 764 L 529.3125 769.625 L 530.1875 770.375 C 539.3125 770 542.0625 770 550.1875 770 L 550.9375 769.25 C 550.3125 760.375 550.0625 755.625 550.0625 739.375 C 550.0625 727.625 550.1875 715.875 550.4375 704.125 Z M 601.1875 723.625 L 604.6875 703.25 L 603.9375 702.375 C 603.0625 702.375 602.1875 702.25 601.3125 702.25 C 596.1875 702.25 590.4375 705.125 586.4375 714.375 L 586.8125 702.875 L 585.8125 701.875 C 576.5625 703.875 574.1875 704.25 565.0625 705.625 L 564.3125 706.375 C 565.0625 715.75 565.4375 721.375 565.4375 738.75 C 565.4375 749 565.3125 759.25 565.0625 769.625 L 565.8125 770.375 C 575.0625 770 577.0625 769.875 587.0625 770 L 587.6875 769.125 C 587.1875 759 586.4375 744.875 586.4375 736.25 C 586.4375 730.625 586.4375 722.375 594.9375 722.375 C 597.0625 722.375 598.3125 723.125 600.0625 724.125 Z M 667.5625 732.75 C 667.6875 721.5 667.6875 716.625 664.4375 711.375 C 661.9375 707.375 656.9375 702.375 640.9375 702.375 C 630.1875 702.375 623.5625 704.375 616.4375 706.5 L 615.6875 707.5 L 615.0625 721.125 L 616.0625 721.625 C 620.4375 719.875 628.5625 716.625 636.9375 716.625 C 641.5625 716.625 643.4375 717.375 645.0625 719 C 646.3125 720.25 646.6875 722.5 646.6875 724.375 C 631.6875 726.375 624.6875 727.75 617.1875 732.375 C 610.1875 736.75 607.8125 743.875 607.8125 749.5 C 607.8125 762.875 617.4375 771.5 629.6875 771.5 C 639.0625 771.5 644.4375 767 647.0625 764.875 L 647.0625 769.5 L 647.8125 770.375 C 656.8125 770 659.5625 769.875 667.6875 770 L 668.3125 769.125 C 667.4375 756.875 667.4375 753.75 667.4375 742 L 667.5625 732.75 M 646.9375 752.625 C 644.3125 754.125 640.9375 755.875 636.8125 755.875 C 632.3125 755.875 628.5625 753.5 628.5625 748.25 C 628.5625 740 638.4375 738.625 646.9375 737.5 Z M 704.1875 769.125 C 703.5625 754.75 702.9375 741.625 702.9375 702.125 C 702.9375 690.25 703.0625 684.625 703.5625 671.125 L 702.6875 670.25 L 681.3125 673.625 L 680.8125 674.375 C 682.0625 689.625 682.1875 693.75 682.4375 714 C 682.5625 721.375 682.5625 728.75 682.5625 736.125 C 682.5625 749.625 682.3125 757.125 681.8125 769.5 L 682.5625 770.375 C 690.9375 770 694.3125 769.875 703.4375 770 Z M 711.1875 770 "/>
<path fill-rule="nonzero" fill="rgb(34.901961%, 14.901961%, 14.901961%)" fill-opacity="1" d="M 298.9375 885.625 C 307.3125 899.875 309.1875 903.625 317.1875 920 L 318.1875 920.625 C 322.0625 920.375 325.8125 920.125 329.6875 920 C 333.5625 919.875 337.5625 919.75 341.4375 919.75 L 342.1875 918.25 C 337.4375 912.125 336.0625 910.25 327.0625 895.875 C 323.0625 889.5 321.0625 886.125 317.9375 880.625 C 323.5625 878.125 334.9375 872.875 334.9375 857 C 334.9375 851.5 333.4375 840.125 323.1875 834.75 C 316.6875 831.375 309.9375 831.25 295.3125 831.5 L 286.5625 831.625 L 271.3125 831.625 L 270.6875 832.375 C 271.1875 845 271.6875 858 271.6875 892 C 271.6875 903.625 271.5625 909.25 271.1875 919.625 L 271.9375 920.375 C 281.0625 920 283.0625 919.875 293.3125 920 L 294.0625 919.25 C 293.0625 904.75 292.9375 900.75 292.8125 885.875 L 298.9375 885.625 M 293.0625 846.75 C 294.8125 846.625 296.5625 846.625 298.3125 846.625 C 303.1875 846.625 312.8125 846.625 312.8125 857.625 C 312.8125 861.125 311.9375 865.75 307.3125 868.625 C 303.8125 870.75 299.3125 871 293.0625 871.125 Z M 404.3125 901.5 C 399.5625 904 393.9375 906.875 384.8125 906.875 C 377.3125 906.875 372.1875 904.5 369.1875 900 C 367.3125 897.375 366.9375 894.875 366.4375 892.375 L 406.8125 891.625 L 407.5625 890.75 C 407.4375 884.625 407.3125 878.375 405.5625 872.125 C 401.1875 857.375 391.5625 854.375 387.3125 853.375 C 384.1875 852.5 381.3125 852.25 378.4375 852.25 C 358.8125 852.25 345.8125 865.125 345.8125 886.75 C 345.8125 892.625 346.8125 898.75 348.8125 903.125 C 356.0625 920 373.0625 921.5 382.0625 921.5 C 392.4375 921.5 396.9375 919.625 403.5625 917 L 404.3125 916 L 405.1875 901.875 L 404.3125 901.5 M 366.4375 879.125 C 366.8125 875.25 367.6875 870 372.4375 867 C 373.9375 866 375.6875 865.625 377.4375 865.625 C 381.5625 865.625 384.0625 867.75 385.4375 870 C 387.1875 872.75 387.3125 875.75 387.3125 878.625 Z M 445.3125 876.875 C 441.0625 875.375 437.6875 874 437.6875 870.5 C 437.6875 869 438.6875 864.875 446.4375 864.875 C 454.0625 864.875 458.9375 868.125 462.0625 870.125 L 463.1875 869.75 L 464.4375 856.125 L 463.8125 855.375 C 457.9375 853.75 452.8125 852.25 444.6875 852.25 C 438.5625 852.25 426.3125 852.75 419.8125 862.125 C 418.1875 864.375 416.4375 868.125 416.4375 873.125 C 416.4375 886.5 426.8125 890.5 432.6875 892.75 L 437.4375 894.5 C 440.8125 895.625 446.3125 897.5 446.3125 902 C 446.3125 905.125 443.4375 908.5 436.4375 908.5 C 432.9375 908.5 427.8125 907.375 423.1875 905 C 421.0625 903.875 420.0625 903 418.1875 901.5 L 417.0625 902 C 416.8125 908.5 416.6875 909.875 416.1875 916.125 L 416.8125 917.25 C 422.9375 919.5 428.1875 921.5 437.3125 921.5 C 446.8125 921.5 465.5625 919.75 467.8125 901.875 C 467.9375 900.875 467.9375 900 467.9375 899.125 C 467.9375 885.375 458.3125 881.75 451.4375 879.125 Z M 534.4375 901.5 C 529.6875 904 524.0625 906.875 514.9375 906.875 C 507.4375 906.875 502.3125 904.5 499.3125 900 C 497.4375 897.375 497.0625 894.875 496.5625 892.375 L 536.9375 891.625 L 537.6875 890.75 C 537.5625 884.625 537.4375 878.375 535.6875 872.125 C 531.3125 857.375 521.6875 854.375 517.4375 853.375 C 514.3125 852.5 511.4375 852.25 508.5625 852.25 C 488.9375 852.25 475.9375 865.125 475.9375 886.75 C 475.9375 892.625 476.9375 898.75 478.9375 903.125 C 486.1875 920 503.1875 921.5 512.1875 921.5 C 522.5625 921.5 527.0625 919.625 533.6875 917 L 534.4375 916 L 535.3125 901.875 L 534.4375 901.5 M 496.5625 879.125 C 496.9375 875.25 497.8125 870 502.5625 867 C 504.0625 866 505.8125 865.625 507.5625 865.625 C 511.6875 865.625 514.1875 867.75 515.5625 870 C 517.3125 872.75 517.4375 875.75 517.4375 878.625 Z M 585.3125 873.625 L 588.8125 853.25 L 588.0625 852.375 C 587.1875 852.375 586.3125 852.25 585.4375 852.25 C 580.3125 852.25 574.5625 855.125 570.5625 864.375 L 570.9375 852.875 L 569.9375 851.875 C 560.6875 853.875 558.3125 854.25 549.1875 855.625 L 548.4375 856.375 C 549.1875 865.75 549.5625 871.375 549.5625 888.75 C 549.5625 899 549.4375 909.25 549.1875 919.625 L 549.9375 920.375 C 559.1875 920 561.1875 919.875 571.1875 920 L 571.8125 919.125 C 571.3125 909 570.5625 894.875 570.5625 886.25 C 570.5625 880.625 570.5625 872.375 579.0625 872.375 C 581.1875 872.375 582.4375 873.125 584.1875 874.125 Z M 630.5625 919 C 634.5625 906.5 636.9375 898.75 639.5625 890.875 C 642.9375 880.75 648.4375 864.5 651.9375 854.25 L 651.3125 853.375 L 633.8125 853.75 L 632.9375 854.625 C 631.1875 863 630.8125 864.75 628.3125 874.5 L 621.9375 899.125 L 618.8125 885.625 L 616.4375 876 C 613.3125 864.375 612.8125 862 611.0625 853.75 L 610.1875 853 C 600.3125 854.125 597.8125 854.25 588.3125 854.375 L 587.8125 855.375 C 604.4375 904.625 605.8125 909.25 608.5625 919.5 L 609.4375 920.375 C 617.5625 920 620.8125 919.875 629.8125 920 Z M 714.0625 901.5 C 709.3125 904 703.6875 906.875 694.5625 906.875 C 687.0625 906.875 681.9375 904.5 678.9375 900 C 677.0625 897.375 676.6875 894.875 676.1875 892.375 L 716.5625 891.625 L 717.3125 890.75 C 717.1875 884.625 717.0625 878.375 715.3125 872.125 C 710.9375 857.375 701.3125 854.375 697.0625 853.375 C 693.9375 852.5 691.0625 852.25 688.1875 852.25 C 668.5625 852.25 655.5625 865.125 655.5625 886.75 C 655.5625 892.625 656.5625 898.75 658.5625 903.125 C 665.8125 920 682.8125 921.5 691.8125 921.5 C 702.1875 921.5 706.6875 919.625 713.3125 917 L 714.0625 916 L 714.9375 901.875 L 714.0625 901.5 M 676.1875 879.125 C 676.5625 875.25 677.4375 870 682.1875 867 C 683.6875 866 685.4375 865.625 687.1875 865.625 C 691.3125 865.625 693.8125 867.75 695.1875 870 C 696.9375 872.75 697.0625 875.75 697.0625 878.625 Z M 721.3125 920 "/>
</svg>
