<?xml version="1.0" encoding="UTF-8"?>
<svg xmlns="http://www.w3.org/2000/svg" xmlns:xlink="http://www.w3.org/1999/xlink" width="975" height="1300" viewBox="0 0 975 1300">
<path fill-rule="nonzero" fill="rgb(34.901961%, 14.901961%, 14.901961%)" fill-opacity="1" d="M 249.25 531.375 C 236.25 531.75 234.125 531.75 220.25 531.75 L 219.5 532.5 L 213.75 552.75 L 208.75 570.875 L 202.875 592.625 L 197.375 570.25 L 193.875 556.125 L 187.625 532.125 L 187 531.375 C 173.625 531.75 171.375 531.75 157.375 531.75 L 156.625 532.5 C 155.375 569.875 154.875 579.5 152.125 619.625 L 152.75 620.375 C 160.75 620 163.125 619.875 170.375 620 L 171.125 619.25 L 171.5 595.375 L 172.25 571.125 L 172.75 547.5 L 178.25 569.625 L 183 587.375 L 191.375 619.625 L 192.125 620.375 C 199.875 620 202 619.875 210.75 620 L 211.5 619.25 L 218.75 592.625 L 223.75 574.375 L 230.75 548.125 L 230.75 570.5 L 231 589.625 L 231 619.625 L 231.625 620.375 C 240.25 620 243.625 619.875 253.25 620 L 253.875 619.25 C 253.125 605 252.25 590.625 251.75 576.25 C 251.375 568.375 251.125 560.5 250.75 552.625 C 250.125 541 250 539.5 250 532.125 Z M 323.625 582.75 C 323.75 571.5 323.75 566.625 320.5 561.375 C 318 557.375 313 552.375 297 552.375 C 286.25 552.375 279.625 554.375 272.5 556.5 L 271.75 557.5 L 271.125 571.125 L 272.125 571.625 C 276.5 569.875 284.625 566.625 293 566.625 C 297.625 566.625 299.5 567.375 301.125 569 C 302.375 570.25 302.75 572.5 302.75 574.375 C 287.75 576.375 280.75 577.75 273.25 582.375 C 266.25 586.75 263.875 593.875 263.875 599.5 C 263.875 612.875 273.5 621.5 285.75 621.5 C 295.125 621.5 300.5 617 303.125 614.875 L 303.125 619.5 L 303.875 620.375 C 312.875 620 315.625 619.875 323.75 620 L 324.375 619.125 C 323.5 606.875 323.5 603.75 323.5 592 L 323.625 582.75 M 303 602.625 C 300.375 604.125 297 605.875 292.875 605.875 C 288.375 605.875 284.625 603.5 284.625 598.25 C 284.625 590 294.5 588.625 303 587.5 Z M 399.5 619.125 C 398.875 608.125 398.875 604.625 398.625 592.375 L 398.625 582.625 C 398.5 570.625 398.375 564.875 395.25 559.75 C 391.375 553.25 384.25 552.25 379.75 552.25 C 372.125 552.25 365.5 556.25 359.75 559.625 L 360 552.75 L 358.75 551.875 C 349.125 553.875 347 554.25 337.625 555.5 L 336.875 556.375 C 337.875 567.25 338.625 575.125 338.625 595.5 C 338.625 603.5 338.5 611.5 338.375 619.5 L 339.125 620.25 C 348.125 619.875 350 619.875 360 619.875 L 360.75 619.125 C 360 599.875 359.875 595 359.75 572.625 C 362.375 570.875 365.375 568.75 369.375 568.75 C 376.25 568.75 376.875 576.125 377.25 580.625 C 377.5 584.75 377.625 601.875 377.625 606.625 C 377.625 610.875 377.5 615.25 377.5 619.5 L 378.25 620.25 C 386.5 620 388.625 619.875 398.625 619.875 Z M 462.625 602 C 459.25 604 456 606 449.625 606 C 435.5 606 432.625 594.25 432.625 586.75 C 432.625 577.625 436.625 567.125 448.75 567.125 C 454.25 567.125 457.25 569.125 461 571.625 L 462.25 571.25 C 462.75 564.625 462.875 562.875 463.875 556.25 L 463.25 555.5 C 457.75 553.75 453 552.25 445.75 552.25 C 416.375 552.25 410.625 574.5 410.625 587.25 C 410.625 601.625 418.125 621.125 446.25 621.125 C 452.875 621.125 457.125 619.875 462.375 618.375 L 463.125 617.625 L 463.625 602.625 Z M 534.875 619.125 C 534.375 608.875 534.25 605.375 534 592.375 L 534 583 C 533.875 571.125 533.75 564.25 530.125 559 C 526.5 553.875 521.25 552.25 515.75 552.25 C 506.625 552.25 499.5 556.625 494.5 559.625 L 494.875 521.125 L 494.125 520.25 L 472.75 523.625 L 472.125 524.375 C 473.25 536.5 473.5 541 473.75 557.125 C 474 567.25 474.125 577.375 474.125 587.5 C 474.125 599.875 473.875 607.25 473.625 619.5 L 474.25 620.375 C 483.5 619.875 485.375 619.875 495.5 619.875 L 496.25 619.125 C 495.375 600.375 495.25 594.75 495.125 572.625 C 497.5 571 500.5 568.875 504.75 568.875 C 511.625 568.875 512.125 576 512.625 581 C 512.875 584.875 513 602.625 513 607.25 C 513 611.375 512.875 615.375 512.875 619.5 L 513.5 620.375 C 522.5 619.875 524.5 619.875 534.125 619.875 Z M 604.625 601.5 C 599.875 604 594.25 606.875 585.125 606.875 C 577.625 606.875 572.5 604.5 569.5 600 C 567.625 597.375 567.25 594.875 566.75 592.375 L 607.125 591.625 L 607.875 590.75 C 607.75 584.625 607.625 578.375 605.875 572.125 C 601.5 557.375 591.875 554.375 587.625 553.375 C 584.5 552.5 581.625 552.25 578.75 552.25 C 559.125 552.25 546.125 565.125 546.125 586.75 C 546.125 592.625 547.125 598.75 549.125 603.125 C 556.375 620 573.375 621.5 582.375 621.5 C 592.75 621.5 597.25 619.625 603.875 617 L 604.625 616 L 605.5 601.875 L 604.625 601.5 M 566.75 579.125 C 567.125 575.25 568 570 572.75 567 C 574.25 566 576 565.625 577.75 565.625 C 581.875 565.625 584.375 567.75 585.75 570 C 587.5 572.75 587.625 575.75 587.625 578.625 Z M 645.625 576.875 C 641.375 575.375 638 574 638 570.5 C 638 569 639 564.875 646.75 564.875 C 654.375 564.875 659.25 568.125 662.375 570.125 L 663.5 569.75 L 664.75 556.125 L 664.125 555.375 C 658.25 553.75 653.125 552.25 645 552.25 C 638.875 552.25 626.625 552.75 620.125 562.125 C 618.5 564.375 616.75 568.125 616.75 573.125 C 616.75 586.5 627.125 590.5 633 592.75 L 637.75 594.5 C 641.125 595.625 646.625 597.5 646.625 602 C 646.625 605.125 643.75 608.5 636.75 608.5 C 633.25 608.5 628.125 607.375 623.5 605 C 621.375 603.875 620.375 603 618.5 601.5 L 617.375 602 C 617.125 608.5 617 609.875 616.5 616.125 L 617.125 617.25 C 623.25 619.5 628.5 621.5 637.625 621.5 C 647.125 621.5 665.875 619.75 668.125 601.875 C 668.25 600.875 668.25 600 668.25 599.125 C 668.25 585.375 658.625 581.75 651.75 579.125 Z M 714.25 605.625 C 712.125 606.25 710.625 606.75 708.5 606.75 C 702.125 606.75 701.625 602.75 701.375 600.875 C 701 597.625 701 590.75 701.125 585.75 L 701.375 568.125 L 712.625 568.625 L 713.375 567.875 L 714.625 554.5 L 713.875 553.75 L 701.375 553.75 L 701.75 532.75 L 700.875 532 C 692.375 534.5 690.125 535.125 681.25 537.375 L 680.75 538.25 L 680.875 553.875 L 674.125 553.625 L 673.375 554.25 L 672.25 567.625 L 673 568.375 L 680.875 568.125 L 680.5 588 C 680.375 591.125 680.25 594.25 680.25 597.5 C 680.25 609 680.5 621.375 700 621.375 C 704.875 621.375 708.75 620.625 713.125 619.875 L 714 619 L 715.25 606.125 Z M 779 601.5 C 774.25 604 768.625 606.875 759.5 606.875 C 752 606.875 746.875 604.5 743.875 600 C 742 597.375 741.625 594.875 741.125 592.375 L 781.5 591.625 L 782.25 590.75 C 782.125 584.625 782 578.375 780.25 572.125 C 775.875 557.375 766.25 554.375 762 553.375 C 758.875 552.5 756 552.25 753.125 552.25 C 733.5 552.25 720.5 565.125 720.5 586.75 C 720.5 592.625 721.5 598.75 723.5 603.125 C 730.75 620 747.75 621.5 756.75 621.5 C 767.125 621.5 771.625 619.625 778.25 617 L 779 616 L 779.875 601.875 L 779 601.5 M 741.125 579.125 C 741.5 575.25 742.375 570 747.125 567 C 748.625 566 750.375 565.625 752.125 565.625 C 756.25 565.625 758.75 567.75 760.125 570 C 761.875 572.75 762 575.75 762 578.625 Z M 829.875 573.625 L 833.375 553.25 L 832.625 552.375 C 831.75 552.375 830.875 552.25 830 552.25 C 824.875 552.25 819.125 555.125 815.125 564.375 L 815.5 552.875 L 814.5 551.875 C 805.25 553.875 802.875 554.25 793.75 555.625 L 793 556.375 C 793.75 565.75 794.125 571.375 794.125 588.75 C 794.125 599 794 609.25 793.75 619.625 L 794.5 620.375 C 803.75 620 805.75 619.875 815.75 620 L 816.375 619.125 C 815.875 609 815.125 594.875 815.125 586.25 C 815.125 580.625 815.125 572.375 823.625 572.375 C 825.75 572.375 827 573.125 828.75 574.125 Z M 833.125 620 "/>
<path fill-rule="nonzero" fill="rgb(34.901961%, 14.901961%, 14.901961%)" fill-opacity="1" d="M 232.875 716.25 C 222.375 711.875 216.875 709.625 216.875 704 C 216.875 700.125 220.5 695.25 228.75 695.25 C 238.25 695.25 243.875 699.125 248.5 702.25 L 249.625 701.75 L 250.625 685.375 L 250 684.5 C 244.625 682.25 239 679.875 226.875 679.875 C 203.375 679.875 195.25 693.125 195.25 706.5 C 195.25 721.625 207 727.125 214 730.5 L 218.125 732.375 C 226.75 736 233.375 739.125 233.375 745.75 C 233.375 750.5 229.25 756.125 218.375 756.125 C 207 756.125 200.625 751.125 197 748.25 L 195.75 748.625 L 194.875 766.25 L 195.625 767.25 C 197 767.75 198.375 768.375 199.75 768.75 C 202.625 769.75 210 771.875 219.375 771.875 C 223.125 771.875 232.625 771.5 240.125 768 C 250.625 762.875 255.125 753.375 255.125 742.75 C 255.125 735.625 252.375 728 245.75 722.875 C 242.375 720.375 239.125 718.875 236.125 717.5 Z M 302 755.625 C 299.875 756.25 298.375 756.75 296.25 756.75 C 289.875 756.75 289.375 752.75 289.125 750.875 C 288.75 747.625 288.75 740.75 288.875 735.75 L 289.125 718.125 L 300.375 718.625 L 301.125 717.875 L 302.375 704.5 L 301.625 703.75 L 289.125 703.75 L 289.5 682.75 L 288.625 682 C 280.125 684.5 277.875 685.125 269 687.375 L 268.5 688.25 L 268.625 703.875 L 261.875 703.625 L 261.125 704.25 L 260 717.625 L 260.75 718.375 L 268.625 718.125 L 268.25 738 C 268.125 741.125 268 744.25 268 747.5 C 268 759 268.25 771.375 287.75 771.375 C 292.625 771.375 296.5 770.625 300.875 769.875 L 301.75 769 L 303 756.125 Z M 366.875 732.75 C 367 721.5 367 716.625 363.75 711.375 C 361.25 707.375 356.25 702.375 340.25 702.375 C 329.5 702.375 322.875 704.375 315.75 706.5 L 315 707.5 L 314.375 721.125 L 315.375 721.625 C 319.75 719.875 327.875 716.625 336.25 716.625 C 340.875 716.625 342.75 717.375 344.375 719 C 345.625 720.25 346 722.5 346 724.375 C 331 726.375 324 727.75 316.5 732.375 C 309.5 736.75 307.125 743.875 307.125 749.5 C 307.125 762.875 316.75 771.5 329 771.5 C 338.375 771.5 343.75 767 346.375 764.875 L 346.375 769.5 L 347.125 770.375 C 356.125 770 358.875 769.875 367 770 L 367.625 769.125 C 366.75 756.875 366.75 753.75 366.75 742 L 366.875 732.75 M 346.25 752.625 C 343.625 754.125 340.25 755.875 336.125 755.875 C 331.625 755.875 327.875 753.5 327.875 748.25 C 327.875 740 337.75 738.625 346.25 737.5 Z M 416.5 755.625 C 414.375 756.25 412.875 756.75 410.75 756.75 C 404.375 756.75 403.875 752.75 403.625 750.875 C 403.25 747.625 403.25 740.75 403.375 735.75 L 403.625 718.125 L 414.875 718.625 L 415.625 717.875 L 416.875 704.5 L 416.125 703.75 L 403.625 703.75 L 404 682.75 L 403.125 682 C 394.625 684.5 392.375 685.125 383.5 687.375 L 383 688.25 L 383.125 703.875 L 376.375 703.625 L 375.625 704.25 L 374.5 717.625 L 375.25 718.375 L 383.125 718.125 L 382.75 738 C 382.625 741.125 382.5 744.25 382.5 747.5 C 382.5 759 382.75 771.375 402.25 771.375 C 407.125 771.375 411 770.625 415.375 769.875 L 416.25 769 L 417.5 756.125 Z M 481.25 751.5 C 476.5 754 470.875 756.875 461.75 756.875 C 454.25 756.875 449.125 754.5 446.125 750 C 444.25 747.375 443.875 744.875 443.375 742.375 L 483.75 741.625 L 484.5 740.75 C 484.375 734.625 484.25 728.375 482.5 722.125 C 478.125 707.375 468.5 704.375 464.25 703.375 C 461.125 702.5 458.25 702.25 455.375 702.25 C 435.75 702.25 422.75 715.125 422.75 736.75 C 422.75 742.625 423.75 748.75 425.75 753.125 C 433 770 450 771.5 459 771.5 C 469.375 771.5 473.875 769.625 480.5 767 L 481.25 766 L 482.125 751.875 L 481.25 751.5 M 443.375 729.125 C 443.75 725.25 444.625 720 449.375 717 C 450.875 716 452.625 715.625 454.375 715.625 C 458.5 715.625 461 717.75 462.375 720 C 464.125 722.75 464.25 725.75 464.25 728.625 Z M 549.25 681.5 L 533.375 681.75 L 532.625 682.5 C 533.125 698.75 533.5 709.625 533.5 724 C 533.5 739.25 533.125 754.375 532.75 769.625 L 533.5 770.375 C 542.75 770 544.75 769.875 554.75 770 L 555.375 769.25 C 554.875 755.625 554.875 752.5 554.875 739.75 C 568.875 739.875 583.875 739.875 592.875 728.875 C 596.375 724.625 599.375 717.5 599.375 708.75 C 599.375 703.375 598.125 691.5 587.75 685.625 C 580.25 681.25 569.625 681.25 560.25 681.25 L 549.25 681.5 M 554.875 696.625 C 557.625 696.5 560.25 696.5 563 696.5 C 574 696.75 577 702.375 577 709.625 C 577 711.375 577 718.625 570.375 722.25 C 567 724.125 562.375 724.375 554.875 724.375 Z M 663.625 732.75 C 663.75 721.5 663.75 716.625 660.5 711.375 C 658 707.375 653 702.375 637 702.375 C 626.25 702.375 619.625 704.375 612.5 706.5 L 611.75 707.5 L 611.125 721.125 L 612.125 721.625 C 616.5 719.875 624.625 716.625 633 716.625 C 637.625 716.625 639.5 717.375 641.125 719 C 642.375 720.25 642.75 722.5 642.75 724.375 C 627.75 726.375 620.75 727.75 613.25 732.375 C 606.25 736.75 603.875 743.875 603.875 749.5 C 603.875 762.875 613.5 771.5 625.75 771.5 C 635.125 771.5 640.5 767 643.125 764.875 L 643.125 769.5 L 643.875 770.375 C 652.875 770 655.625 769.875 663.75 770 L 664.375 769.125 C 663.5 756.875 663.5 753.75 663.5 742 L 663.625 732.75 M 643 752.625 C 640.375 754.125 637 755.875 632.875 755.875 C 628.375 755.875 624.625 753.5 624.625 748.25 C 624.625 740 634.5 738.625 643 737.5 Z M 714.375 723.625 L 717.875 703.25 L 717.125 702.375 C 716.25 702.375 715.375 702.25 714.5 702.25 C 709.375 702.25 703.625 705.125 699.625 714.375 L 700 702.875 L 699 701.875 C 689.75 703.875 687.375 704.25 678.25 705.625 L 677.5 706.375 C 678.25 715.75 678.625 721.375 678.625 738.75 C 678.625 749 678.5 759.25 678.25 769.625 L 679 770.375 C 688.25 770 690.25 769.875 700.25 770 L 700.875 769.125 C 700.375 759 699.625 744.875 699.625 736.25 C 699.625 730.625 699.625 722.375 708.125 722.375 C 710.25 722.375 711.5 723.125 713.25 724.125 Z M 789.375 768.375 C 777.625 748.5 776.375 746.25 766.875 729.125 C 775.5 717.375 776.375 716.125 785.25 704.75 L 784.625 703.5 L 764.25 703.75 L 763 704.625 C 753.25 721.5 752 723.5 746.25 732.125 L 746.25 718.25 C 746.375 694.875 746.5 689.875 747.125 671 L 746.125 670.25 L 724.375 673.5 L 723.625 674.375 C 724.5 686.5 724.875 692.375 725.125 708.75 C 725.375 729 725.375 749.25 725.25 769.5 L 726.125 770.375 C 734.5 770 736.875 770 746.375 770 L 747.125 769.125 L 746.375 748 L 746.25 733.625 C 757.125 753.625 758.5 756.375 764.875 769.625 L 766 770.375 L 788.5 769.5 Z M 787.875 770 "/>
</svg>
