<?xml version="1.0" encoding="UTF-8"?>
<svg xmlns="http://www.w3.org/2000/svg" xmlns:xlink="http://www.w3.org/1999/xlink" width="975" height="1300" viewBox="0 0 975 1300">
<path fill-rule="nonzero" fill="rgb(34.901961%, 14.901961%, 14.901961%)" fill-opacity="1" d="M 265.8125 456.375 C 252.8125 456.75 250.6875 456.75 236.8125 456.75 L 236.0625 457.5 L 230.3125 477.75 L 225.3125 495.875 L 219.4375 517.625 L 213.9375 495.25 L 210.4375 481.125 L 204.1875 457.125 L 203.5625 456.375 C 190.1875 456.75 187.9375 456.75 173.9375 456.75 L 173.1875 457.5 C 171.9375 494.875 171.4375 504.5 168.6875 544.625 L 169.3125 545.375 C 177.3125 545 179.6875 544.875 186.9375 545 L 187.6875 544.25 L 188.0625 520.375 L 188.8125 496.125 L 189.3125 472.5 L 194.8125 494.625 L 199.5625 512.375 L 207.9375 544.625 L 208.6875 545.375 C 216.4375 545 218.5625 544.875 227.3125 545 L 228.0625 544.25 L 235.3125 517.625 L 240.3125 499.375 L 247.3125 473.125 L 247.3125 495.5 L 247.5625 514.625 L 247.5625 544.625 L 248.1875 545.375 C 256.8125 545 260.1875 544.875 269.8125 545 L 270.4375 544.25 C 269.6875 530 268.8125 515.625 268.3125 501.25 C 267.9375 493.375 267.6875 485.5 267.3125 477.625 C 266.6875 466 266.5625 464.5 266.5625 457.125 Z M 340.0625 526.5 C 335.3125 529 329.6875 531.875 320.5625 531.875 C 313.0625 531.875 307.9375 529.5 304.9375 525 C 303.0625 522.375 302.6875 519.875 302.1875 517.375 L 342.5625 516.625 L 343.3125 515.75 C 343.1875 509.625 343.0625 503.375 341.3125 497.125 C 336.9375 482.375 327.3125 479.375 323.0625 478.375 C 319.9375 477.5 317.0625 477.25 314.1875 477.25 C 294.5625 477.25 281.5625 490.125 281.5625 511.75 C 281.5625 517.625 282.5625 523.75 284.5625 528.125 C 291.8125 545 308.8125 546.5 317.8125 546.5 C 328.1875 546.5 332.6875 544.625 339.3125 542 L 340.0625 541 L 340.9375 526.875 L 340.0625 526.5 M 302.1875 504.125 C 302.5625 500.25 303.4375 495 308.1875 492 C 309.6875 491 311.4375 490.625 313.1875 490.625 C 317.3125 490.625 319.8125 492.75 321.1875 495 C 322.9375 497.75 323.0625 500.75 323.0625 503.625 Z M 416.0625 544.125 C 415.4375 533.125 415.4375 529.625 415.1875 517.375 L 415.1875 507.625 C 415.0625 495.625 414.9375 489.875 411.8125 484.75 C 407.9375 478.25 400.8125 477.25 396.3125 477.25 C 388.6875 477.25 382.0625 481.25 376.3125 484.625 L 376.5625 477.75 L 375.3125 476.875 C 365.6875 478.875 363.5625 479.25 354.1875 480.5 L 353.4375 481.375 C 354.4375 492.25 355.1875 500.125 355.1875 520.5 C 355.1875 528.5 355.0625 536.5 354.9375 544.5 L 355.6875 545.25 C 364.6875 544.875 366.5625 544.875 376.5625 544.875 L 377.3125 544.125 C 376.5625 524.875 376.4375 520 376.3125 497.625 C 378.9375 495.875 381.9375 493.75 385.9375 493.75 C 392.8125 493.75 393.4375 501.125 393.8125 505.625 C 394.0625 509.75 394.1875 526.875 394.1875 531.625 C 394.1875 535.875 394.0625 540.25 394.0625 544.5 L 394.8125 545.25 C 403.0625 545 405.1875 544.875 415.1875 544.875 Z M 491.5625 544.25 C 491.0625 533 490.6875 525.5 490.6875 509.125 C 490.6875 476.125 491.1875 462.5 491.6875 446 L 490.8125 445.25 L 470.1875 448.5 L 469.5625 449.25 C 470.3125 461 470.4375 464.125 470.3125 478.375 C 460.9375 478.125 449.1875 477.875 439.6875 485.375 C 430.9375 492.125 427.3125 502.5 427.3125 515.375 C 427.3125 525.125 429.9375 534.875 437.3125 541 C 442.8125 545.5 449.5625 546.5 453.6875 546.5 C 462.5625 546.5 467.1875 542.375 470.1875 539.75 L 469.9375 544.625 L 470.5625 545.375 C 479.1875 545 481.5625 545 490.9375 545 L 491.5625 544.25 M 470.3125 493.375 C 470.4375 510 470.3125 513.25 469.9375 528.375 C 467.4375 529.875 464.9375 531.375 461.4375 531.375 C 449.3125 531.375 449.3125 515.875 449.3125 513.375 C 449.3125 503.75 452.0625 493 466.0625 493 C 467.4375 493 468.5625 493.125 470.3125 493.375 Z M 569.4375 511.75 C 569.4375 506.875 569.4375 486.625 551.9375 479.75 C 546.4375 477.625 539.9375 477.375 536.6875 477.375 C 514.9375 477.375 502.6875 489 502.6875 512 C 502.6875 520 503.9375 528.125 508.5625 534.875 C 511.8125 539.75 517.9375 546.5 535.8125 546.5 C 562.3125 546.5 569.4375 530.5 569.4375 511.75 M 547.8125 511.625 C 547.8125 521.875 546.4375 533.25 536.0625 533.25 C 532.8125 533.25 530.5625 531.75 529.0625 530.375 C 526.9375 528.25 524.5625 524 524.5625 511.875 C 524.5625 508.25 524.5625 500.25 527.0625 495.875 C 528.9375 492.5 532.1875 490.25 536.1875 490.25 C 539.6875 490.25 542.5625 492.125 544.1875 494.125 C 547.1875 497.75 547.8125 504.875 547.8125 511.625 Z M 630.1875 527 C 626.8125 529 623.5625 531 617.1875 531 C 603.0625 531 600.1875 519.25 600.1875 511.75 C 600.1875 502.625 604.1875 492.125 616.3125 492.125 C 621.8125 492.125 624.8125 494.125 628.5625 496.625 L 629.8125 496.25 C 630.3125 489.625 630.4375 487.875 631.4375 481.25 L 630.8125 480.5 C 625.3125 478.75 620.5625 477.25 613.3125 477.25 C 583.9375 477.25 578.1875 499.5 578.1875 512.25 C 578.1875 526.625 585.6875 546.125 613.8125 546.125 C 620.4375 546.125 624.6875 544.875 629.9375 543.375 L 630.6875 542.625 L 631.1875 527.625 Z M 663.8125 544.125 C 663.1875 534.5 662.6875 527.125 662.6875 509.875 C 662.6875 499.25 662.9375 488.5 663.0625 477.875 L 662.1875 476.875 L 640.6875 480.625 L 639.9375 481.375 C 640.9375 490.875 641.3125 495.25 641.3125 513 C 641.3125 526.625 640.9375 534.25 640.5625 544.5 L 641.3125 545.375 C 650.3125 545 652.8125 544.875 662.9375 545 L 663.8125 544.125 M 661.8125 464.875 L 662.1875 447.875 L 661.4375 447.125 L 641.0625 449.625 L 640.3125 450.5 C 640.5625 455 640.6875 457.625 640.6875 460.625 C 640.6875 463 640.6875 465.5 640.5625 467.875 L 641.4375 468.625 C 649.9375 467.125 652.3125 466.875 661.1875 465.75 Z M 738.9375 544.125 C 738.3125 533.125 738.3125 529.625 738.0625 517.375 L 738.0625 507.625 C 737.9375 495.625 737.8125 489.875 734.6875 484.75 C 730.8125 478.25 723.6875 477.25 719.1875 477.25 C 711.5625 477.25 704.9375 481.25 699.1875 484.625 L 699.4375 477.75 L 698.1875 476.875 C 688.5625 478.875 686.4375 479.25 677.0625 480.5 L 676.3125 481.375 C 677.3125 492.25 678.0625 500.125 678.0625 520.5 C 678.0625 528.5 677.9375 536.5 677.8125 544.5 L 678.5625 545.25 C 687.5625 544.875 689.4375 544.875 699.4375 544.875 L 700.1875 544.125 C 699.4375 524.875 699.3125 520 699.1875 497.625 C 701.8125 495.875 704.8125 493.75 708.8125 493.75 C 715.6875 493.75 716.3125 501.125 716.6875 505.625 C 716.9375 509.75 717.0625 526.875 717.0625 531.625 C 717.0625 535.875 716.9375 540.25 716.9375 544.5 L 717.6875 545.25 C 725.9375 545 728.0625 544.875 738.0625 544.875 Z M 816.8125 511.75 C 816.8125 506.875 816.8125 486.625 799.3125 479.75 C 793.8125 477.625 787.3125 477.375 784.0625 477.375 C 762.3125 477.375 750.0625 489 750.0625 512 C 750.0625 520 751.3125 528.125 755.9375 534.875 C 759.1875 539.75 765.3125 546.5 783.1875 546.5 C 809.6875 546.5 816.8125 530.5 816.8125 511.75 M 795.1875 511.625 C 795.1875 521.875 793.8125 533.25 783.4375 533.25 C 780.1875 533.25 777.9375 531.75 776.4375 530.375 C 774.3125 528.25 771.9375 524 771.9375 511.875 C 771.9375 508.25 771.9375 500.25 774.4375 495.875 C 776.3125 492.5 779.5625 490.25 783.5625 490.25 C 787.0625 490.25 789.9375 492.125 791.5625 494.125 C 794.5625 497.75 795.1875 504.875 795.1875 511.625 Z M 821.1875 545 "/>
<path fill-rule="nonzero" fill="rgb(34.901961%, 14.901961%, 14.901961%)" fill-opacity="1" d="M 261.875 606.375 C 251.875 606.75 250.25 606.75 239.75 606.75 L 239.125 607.5 C 240 621.625 240 625.25 240.125 640 C 234.625 640.125 229.125 640.25 223.5 640.25 C 219.125 640.25 214.625 640.125 210.25 640.125 L 210.5 607.125 L 209.875 606.375 C 200.25 606.75 198.375 606.75 187.5 606.75 L 186.75 607.5 C 187.375 620.375 188.125 635.75 188.125 666.75 C 188.125 678 187.875 684.125 187.625 694.625 L 188.25 695.375 C 197.375 695 199.625 694.875 210.625 695 L 211.25 694.25 C 210.5 678.75 210.375 674.25 210.25 656.125 C 215.75 655.875 220.375 655.75 225.25 655.75 C 230.25 655.75 235.25 655.875 240.25 656 C 240.5 672.875 240.5 677 239.875 694.625 L 240.5 695.375 C 249.875 695 252.375 694.875 263 695 L 263.625 694.25 C 262.625 673.25 262.25 652.375 262.25 631.375 C 262.25 622.625 262.375 616.75 262.5 607.125 Z M 333.625 676.5 C 328.875 679 323.25 681.875 314.125 681.875 C 306.625 681.875 301.5 679.5 298.5 675 C 296.625 672.375 296.25 669.875 295.75 667.375 L 336.125 666.625 L 336.875 665.75 C 336.75 659.625 336.625 653.375 334.875 647.125 C 330.5 632.375 320.875 629.375 316.625 628.375 C 313.5 627.5 310.625 627.25 307.75 627.25 C 288.125 627.25 275.125 640.125 275.125 661.75 C 275.125 667.625 276.125 673.75 278.125 678.125 C 285.375 695 302.375 696.5 311.375 696.5 C 321.75 696.5 326.25 694.625 332.875 692 L 333.625 691 L 334.5 676.875 L 333.625 676.5 M 295.75 654.125 C 296.125 650.25 297 645 301.75 642 C 303.25 641 305 640.625 306.75 640.625 C 310.875 640.625 313.375 642.75 314.75 645 C 316.5 647.75 316.625 650.75 316.625 653.625 Z M 404 657.75 C 404.125 646.5 404.125 641.625 400.875 636.375 C 398.375 632.375 393.375 627.375 377.375 627.375 C 366.625 627.375 360 629.375 352.875 631.5 L 352.125 632.5 L 351.5 646.125 L 352.5 646.625 C 356.875 644.875 365 641.625 373.375 641.625 C 378 641.625 379.875 642.375 381.5 644 C 382.75 645.25 383.125 647.5 383.125 649.375 C 368.125 651.375 361.125 652.75 353.625 657.375 C 346.625 661.75 344.25 668.875 344.25 674.5 C 344.25 687.875 353.875 696.5 366.125 696.5 C 375.5 696.5 380.875 692 383.5 689.875 L 383.5 694.5 L 384.25 695.375 C 393.25 695 396 694.875 404.125 695 L 404.75 694.125 C 403.875 681.875 403.875 678.75 403.875 667 L 404 657.75 M 383.375 677.625 C 380.75 679.125 377.375 680.875 373.25 680.875 C 368.75 680.875 365 678.5 365 673.25 C 365 665 374.875 663.625 383.375 662.5 Z M 479.875 694.25 C 479.375 683 479 675.5 479 659.125 C 479 626.125 479.5 612.5 480 596 L 479.125 595.25 L 458.5 598.5 L 457.875 599.25 C 458.625 611 458.75 614.125 458.625 628.375 C 449.25 628.125 437.5 627.875 428 635.375 C 419.25 642.125 415.625 652.5 415.625 665.375 C 415.625 675.125 418.25 684.875 425.625 691 C 431.125 695.5 437.875 696.5 442 696.5 C 450.875 696.5 455.5 692.375 458.5 689.75 L 458.25 694.625 L 458.875 695.375 C 467.5 695 469.875 695 479.25 695 L 479.875 694.25 M 458.625 643.375 C 458.75 660 458.625 663.25 458.25 678.375 C 455.75 679.875 453.25 681.375 449.75 681.375 C 437.625 681.375 437.625 665.875 437.625 663.375 C 437.625 653.75 440.375 643 454.375 643 C 455.75 643 456.875 643.125 458.625 643.375 Z M 516.125 694.125 C 515.5 679.75 514.875 666.625 514.875 627.125 C 514.875 615.25 515 609.625 515.5 596.125 L 514.625 595.25 L 493.25 598.625 L 492.75 599.375 C 494 614.625 494.125 618.75 494.375 639 C 494.5 646.375 494.5 653.75 494.5 661.125 C 494.5 674.625 494.25 682.125 493.75 694.5 L 494.5 695.375 C 502.875 695 506.25 694.875 515.375 695 Z M 586.25 657.75 C 586.375 646.5 586.375 641.625 583.125 636.375 C 580.625 632.375 575.625 627.375 559.625 627.375 C 548.875 627.375 542.25 629.375 535.125 631.5 L 534.375 632.5 L 533.75 646.125 L 534.75 646.625 C 539.125 644.875 547.25 641.625 555.625 641.625 C 560.25 641.625 562.125 642.375 563.75 644 C 565 645.25 565.375 647.5 565.375 649.375 C 550.375 651.375 543.375 652.75 535.875 657.375 C 528.875 661.75 526.5 668.875 526.5 674.5 C 526.5 687.875 536.125 696.5 548.375 696.5 C 557.75 696.5 563.125 692 565.75 689.875 L 565.75 694.5 L 566.5 695.375 C 575.5 695 578.25 694.875 586.375 695 L 587 694.125 C 586.125 681.875 586.125 678.75 586.125 667 L 586.25 657.75 M 565.625 677.625 C 563 679.125 559.625 680.875 555.5 680.875 C 551 680.875 547.25 678.5 547.25 673.25 C 547.25 665 557.125 663.625 565.625 662.5 Z M 662.125 694.125 C 661.5 683.125 661.5 679.625 661.25 667.375 L 661.25 657.625 C 661.125 645.625 661 639.875 657.875 634.75 C 654 628.25 646.875 627.25 642.375 627.25 C 634.75 627.25 628.125 631.25 622.375 634.625 L 622.625 627.75 L 621.375 626.875 C 611.75 628.875 609.625 629.25 600.25 630.5 L 599.5 631.375 C 600.5 642.25 601.25 650.125 601.25 670.5 C 601.25 678.5 601.125 686.5 601 694.5 L 601.75 695.25 C 610.75 694.875 612.625 694.875 622.625 694.875 L 623.375 694.125 C 622.625 674.875 622.5 670 622.375 647.625 C 625 645.875 628 643.75 632 643.75 C 638.875 643.75 639.5 651.125 639.875 655.625 C 640.125 659.75 640.25 676.875 640.25 681.625 C 640.25 685.875 640.125 690.25 640.125 694.5 L 640.875 695.25 C 649.125 695 651.25 694.875 661.25 694.875 Z M 737.625 694.25 C 737.125 683 736.75 675.5 736.75 659.125 C 736.75 626.125 737.25 612.5 737.75 596 L 736.875 595.25 L 716.25 598.5 L 715.625 599.25 C 716.375 611 716.5 614.125 716.375 628.375 C 707 628.125 695.25 627.875 685.75 635.375 C 677 642.125 673.375 652.5 673.375 665.375 C 673.375 675.125 676 684.875 683.375 691 C 688.875 695.5 695.625 696.5 699.75 696.5 C 708.625 696.5 713.25 692.375 716.25 689.75 L 716 694.625 L 716.625 695.375 C 725.25 695 727.625 695 737 695 L 737.625 694.25 M 716.375 643.375 C 716.5 660 716.375 663.25 716 678.375 C 713.5 679.875 711 681.375 707.5 681.375 C 695.375 681.375 695.375 665.875 695.375 663.375 C 695.375 653.75 698.125 643 712.125 643 C 713.5 643 714.625 643.125 716.375 643.375 Z M 778.125 651.875 C 773.875 650.375 770.5 649 770.5 645.5 C 770.5 644 771.5 639.875 779.25 639.875 C 786.875 639.875 791.75 643.125 794.875 645.125 L 796 644.75 L 797.25 631.125 L 796.625 630.375 C 790.75 628.75 785.625 627.25 777.5 627.25 C 771.375 627.25 759.125 627.75 752.625 637.125 C 751 639.375 749.25 643.125 749.25 648.125 C 749.25 661.5 759.625 665.5 765.5 667.75 L 770.25 669.5 C 773.625 670.625 779.125 672.5 779.125 677 C 779.125 680.125 776.25 683.5 769.25 683.5 C 765.75 683.5 760.625 682.375 756 680 C 753.875 678.875 752.875 678 751 676.5 L 749.875 677 C 749.625 683.5 749.5 684.875 749 691.125 L 749.625 692.25 C 755.75 694.5 761 696.5 770.125 696.5 C 779.625 696.5 798.375 694.75 800.625 676.875 C 800.75 675.875 800.75 675 800.75 674.125 C 800.75 660.375 791.125 656.75 784.25 654.125 Z M 804.25 695 "/>
<path fill-rule="nonzero" fill="rgb(34.901961%, 14.901961%, 14.901961%)" fill-opacity="1" d="M 232.875 791.25 C 222.375 786.875 216.875 784.625 216.875 779 C 216.875 775.125 220.5 770.25 228.75 770.25 C 238.25 770.25 243.875 774.125 248.5 777.25 L 249.625 776.75 L 250.625 760.375 L 250 759.5 C 244.625 757.25 239 754.875 226.875 754.875 C 203.375 754.875 195.25 768.125 195.25 781.5 C 195.25 796.625 207 802.125 214 805.5 L 218.125 807.375 C 226.75 811 233.375 814.125 233.375 820.75 C 233.375 825.5 229.25 831.125 218.375 831.125 C 207 831.125 200.625 826.125 197 823.25 L 195.75 823.625 L 194.875 841.25 L 195.625 842.25 C 197 842.75 198.375 843.375 199.75 843.75 C 202.625 844.75 210 846.875 219.375 846.875 C 223.125 846.875 232.625 846.5 240.125 843 C 250.625 837.875 255.125 828.375 255.125 817.75 C 255.125 810.625 252.375 803 245.75 797.875 C 242.375 795.375 239.125 793.875 236.125 792.5 Z M 302 830.625 C 299.875 831.25 298.375 831.75 296.25 831.75 C 289.875 831.75 289.375 827.75 289.125 825.875 C 288.75 822.625 288.75 815.75 288.875 810.75 L 289.125 793.125 L 300.375 793.625 L 301.125 792.875 L 302.375 779.5 L 301.625 778.75 L 289.125 778.75 L 289.5 757.75 L 288.625 757 C 280.125 759.5 277.875 760.125 269 762.375 L 268.5 763.25 L 268.625 778.875 L 261.875 778.625 L 261.125 779.25 L 260 792.625 L 260.75 793.375 L 268.625 793.125 L 268.25 813 C 268.125 816.125 268 819.25 268 822.5 C 268 834 268.25 846.375 287.75 846.375 C 292.625 846.375 296.5 845.625 300.875 844.875 L 301.75 844 L 303 831.125 Z M 366.875 807.75 C 367 796.5 367 791.625 363.75 786.375 C 361.25 782.375 356.25 777.375 340.25 777.375 C 329.5 777.375 322.875 779.375 315.75 781.5 L 315 782.5 L 314.375 796.125 L 315.375 796.625 C 319.75 794.875 327.875 791.625 336.25 791.625 C 340.875 791.625 342.75 792.375 344.375 794 C 345.625 795.25 346 797.5 346 799.375 C 331 801.375 324 802.75 316.5 807.375 C 309.5 811.75 307.125 818.875 307.125 824.5 C 307.125 837.875 316.75 846.5 329 846.5 C 338.375 846.5 343.75 842 346.375 839.875 L 346.375 844.5 L 347.125 845.375 C 356.125 845 358.875 844.875 367 845 L 367.625 844.125 C 366.75 831.875 366.75 828.75 366.75 817 L 366.875 807.75 M 346.25 827.625 C 343.625 829.125 340.25 830.875 336.125 830.875 C 331.625 830.875 327.875 828.5 327.875 823.25 C 327.875 815 337.75 813.625 346.25 812.5 Z M 416.5 830.625 C 414.375 831.25 412.875 831.75 410.75 831.75 C 404.375 831.75 403.875 827.75 403.625 825.875 C 403.25 822.625 403.25 815.75 403.375 810.75 L 403.625 793.125 L 414.875 793.625 L 415.625 792.875 L 416.875 779.5 L 416.125 778.75 L 403.625 778.75 L 404 757.75 L 403.125 757 C 394.625 759.5 392.375 760.125 383.5 762.375 L 383 763.25 L 383.125 778.875 L 376.375 778.625 L 375.625 779.25 L 374.5 792.625 L 375.25 793.375 L 383.125 793.125 L 382.75 813 C 382.625 816.125 382.5 819.25 382.5 822.5 C 382.5 834 382.75 846.375 402.25 846.375 C 407.125 846.375 411 845.625 415.375 844.875 L 416.25 844 L 417.5 831.125 Z M 481.25 826.5 C 476.5 829 470.875 831.875 461.75 831.875 C 454.25 831.875 449.125 829.5 446.125 825 C 444.25 822.375 443.875 819.875 443.375 817.375 L 483.75 816.625 L 484.5 815.75 C 484.375 809.625 484.25 803.375 482.5 797.125 C 478.125 782.375 468.5 779.375 464.25 778.375 C 461.125 777.5 458.25 777.25 455.375 777.25 C 435.75 777.25 422.75 790.125 422.75 811.75 C 422.75 817.625 423.75 823.75 425.75 828.125 C 433 845 450 846.5 459 846.5 C 469.375 846.5 473.875 844.625 480.5 842 L 481.25 841 L 482.125 826.875 L 481.25 826.5 M 443.375 804.125 C 443.75 800.25 444.625 795 449.375 792 C 450.875 791 452.625 790.625 454.375 790.625 C 458.5 790.625 461 792.75 462.375 795 C 464.125 797.75 464.25 800.75 464.25 803.625 Z M 549.25 756.5 L 533.375 756.75 L 532.625 757.5 C 533.125 773.75 533.5 784.625 533.5 799 C 533.5 814.25 533.125 829.375 532.75 844.625 L 533.5 845.375 C 542.75 845 544.75 844.875 554.75 845 L 555.375 844.25 C 554.875 830.625 554.875 827.5 554.875 814.75 C 568.875 814.875 583.875 814.875 592.875 803.875 C 596.375 799.625 599.375 792.5 599.375 783.75 C 599.375 778.375 598.125 766.5 587.75 760.625 C 580.25 756.25 569.625 756.25 560.25 756.25 L 549.25 756.5 M 554.875 771.625 C 557.625 771.5 560.25 771.5 563 771.5 C 574 771.75 577 777.375 577 784.625 C 577 786.375 577 793.625 570.375 797.25 C 567 799.125 562.375 799.375 554.875 799.375 Z M 663.625 807.75 C 663.75 796.5 663.75 791.625 660.5 786.375 C 658 782.375 653 777.375 637 777.375 C 626.25 777.375 619.625 779.375 612.5 781.5 L 611.75 782.5 L 611.125 796.125 L 612.125 796.625 C 616.5 794.875 624.625 791.625 633 791.625 C 637.625 791.625 639.5 792.375 641.125 794 C 642.375 795.25 642.75 797.5 642.75 799.375 C 627.75 801.375 620.75 802.75 613.25 807.375 C 606.25 811.75 603.875 818.875 603.875 824.5 C 603.875 837.875 613.5 846.5 625.75 846.5 C 635.125 846.5 640.5 842 643.125 839.875 L 643.125 844.5 L 643.875 845.375 C 652.875 845 655.625 844.875 663.75 845 L 664.375 844.125 C 663.5 831.875 663.5 828.75 663.5 817 L 663.625 807.75 M 643 827.625 C 640.375 829.125 637 830.875 632.875 830.875 C 628.375 830.875 624.625 828.5 624.625 823.25 C 624.625 815 634.5 813.625 643 812.5 Z M 714.375 798.625 L 717.875 778.25 L 717.125 777.375 C 716.25 777.375 715.375 777.25 714.5 777.25 C 709.375 777.25 703.625 780.125 699.625 789.375 L 700 777.875 L 699 776.875 C 689.75 778.875 687.375 779.25 678.25 780.625 L 677.5 781.375 C 678.25 790.75 678.625 796.375 678.625 813.75 C 678.625 824 678.5 834.25 678.25 844.625 L 679 845.375 C 688.25 845 690.25 844.875 700.25 845 L 700.875 844.125 C 700.375 834 699.625 819.875 699.625 811.25 C 699.625 805.625 699.625 797.375 708.125 797.375 C 710.25 797.375 711.5 798.125 713.25 799.125 Z M 789.375 843.375 C 777.625 823.5 776.375 821.25 766.875 804.125 C 775.5 792.375 776.375 791.125 785.25 779.75 L 784.625 778.5 L 764.25 778.75 L 763 779.625 C 753.25 796.5 752 798.5 746.25 807.125 L 746.25 793.25 C 746.375 769.875 746.5 764.875 747.125 746 L 746.125 745.25 L 724.375 748.5 L 723.625 749.375 C 724.5 761.5 724.875 767.375 725.125 783.75 C 725.375 804 725.375 824.25 725.25 844.5 L 726.125 845.375 C 734.5 845 736.875 845 746.375 845 L 747.125 844.125 L 746.375 823 L 746.25 808.625 C 757.125 828.625 758.5 831.375 764.875 844.625 L 766 845.375 L 788.5 844.5 Z M 787.875 845 "/>
</svg>
