<?xml version="1.0" encoding="UTF-8"?>
<svg xmlns="http://www.w3.org/2000/svg" xmlns:xlink="http://www.w3.org/1999/xlink" width="975" height="1300" viewBox="0 0 975 1300">
<path fill-rule="nonzero" fill="rgb(34.901961%, 14.901961%, 14.901961%)" fill-opacity="1" d="M 362.25 522.625 C 359.375 524.875 353 529.625 342.625 529.625 C 328.375 529.625 318.375 519 318.375 501.25 C 318.375 490.5 322.125 471.625 342.5 471.625 C 351.875 471.625 357 475.25 360.125 477.625 L 361.25 477.375 L 362.375 460.125 L 361.875 459.5 C 357.375 457.75 349.75 454.875 338.75 454.875 C 306.375 454.875 295.125 479.875 295.125 501.75 C 295.125 525.75 309.75 546.875 340.25 546.875 C 350.75 546.875 357.625 544.125 361.625 542.5 L 362.25 541.75 L 363.125 523.125 Z M 428.5 507.75 C 428.625 496.5 428.625 491.625 425.375 486.375 C 422.875 482.375 417.875 477.375 401.875 477.375 C 391.125 477.375 384.5 479.375 377.375 481.5 L 376.625 482.5 L 376 496.125 L 377 496.625 C 381.375 494.875 389.5 491.625 397.875 491.625 C 402.5 491.625 404.375 492.375 406 494 C 407.25 495.25 407.625 497.5 407.625 499.375 C 392.625 501.375 385.625 502.75 378.125 507.375 C 371.125 511.75 368.75 518.875 368.75 524.5 C 368.75 537.875 378.375 546.5 390.625 546.5 C 400 546.5 405.375 542 408 539.875 L 408 544.5 L 408.75 545.375 C 417.75 545 420.5 544.875 428.625 545 L 429.25 544.125 C 428.375 531.875 428.375 528.75 428.375 517 L 428.5 507.75 M 407.875 527.625 C 405.25 529.125 401.875 530.875 397.75 530.875 C 393.25 530.875 389.5 528.5 389.5 523.25 C 389.5 515 399.375 513.625 407.875 512.5 Z M 469.375 501.875 C 465.125 500.375 461.75 499 461.75 495.5 C 461.75 494 462.75 489.875 470.5 489.875 C 478.125 489.875 483 493.125 486.125 495.125 L 487.25 494.75 L 488.5 481.125 L 487.875 480.375 C 482 478.75 476.875 477.25 468.75 477.25 C 462.625 477.25 450.375 477.75 443.875 487.125 C 442.25 489.375 440.5 493.125 440.5 498.125 C 440.5 511.5 450.875 515.5 456.75 517.75 L 461.5 519.5 C 464.875 520.625 470.375 522.5 470.375 527 C 470.375 530.125 467.5 533.5 460.5 533.5 C 457 533.5 451.875 532.375 447.25 530 C 445.125 528.875 444.125 528 442.25 526.5 L 441.125 527 C 440.875 533.5 440.75 534.875 440.25 541.125 L 440.875 542.25 C 447 544.5 452.25 546.5 461.375 546.5 C 470.875 546.5 489.625 544.75 491.875 526.875 C 492 525.875 492 525 492 524.125 C 492 510.375 482.375 506.75 475.5 504.125 Z M 523.75 478.125 L 522.75 477 C 513.625 479 511 479.5 502 480.625 L 501.25 481.5 C 502.625 496.375 503.125 502.125 503.125 538.125 C 503.125 553 502.875 561.5 502.5 575.625 L 503.25 576.25 C 512.125 575.875 514.75 575.75 524.25 575.875 L 525 575.25 L 524.125 545.5 C 533.25 545.375 545.875 545.25 556 535.75 C 564 528.25 566.625 517.625 566.625 509.125 C 566.625 489.25 554.5 477.25 540.5 477.25 C 531.875 477.25 527 480.75 523.5 483.125 L 523.75 478.125 M 524 495.125 C 526.75 493.5 528.375 492.625 531.5 492.625 C 533.375 492.625 537.125 492.875 540.25 496.375 C 544.125 500.625 544.75 507 544.75 511.25 C 544.75 518.5 542.375 525 537.375 528.5 C 533.375 531.25 528.375 531.5 524 531.625 Z M 634.125 507.75 C 634.25 496.5 634.25 491.625 631 486.375 C 628.5 482.375 623.5 477.375 607.5 477.375 C 596.75 477.375 590.125 479.375 583 481.5 L 582.25 482.5 L 581.625 496.125 L 582.625 496.625 C 587 494.875 595.125 491.625 603.5 491.625 C 608.125 491.625 610 492.375 611.625 494 C 612.875 495.25 613.25 497.5 613.25 499.375 C 598.25 501.375 591.25 502.75 583.75 507.375 C 576.75 511.75 574.375 518.875 574.375 524.5 C 574.375 537.875 584 546.5 596.25 546.5 C 605.625 546.5 611 542 613.625 539.875 L 613.625 544.5 L 614.375 545.375 C 623.375 545 626.125 544.875 634.25 545 L 634.875 544.125 C 634 531.875 634 528.75 634 517 L 634.125 507.75 M 613.5 527.625 C 610.875 529.125 607.5 530.875 603.375 530.875 C 598.875 530.875 595.125 528.5 595.125 523.25 C 595.125 515 605 513.625 613.5 512.5 Z M 684.875 498.625 L 688.375 478.25 L 687.625 477.375 C 686.75 477.375 685.875 477.25 685 477.25 C 679.875 477.25 674.125 480.125 670.125 489.375 L 670.5 477.875 L 669.5 476.875 C 660.25 478.875 657.875 479.25 648.75 480.625 L 648 481.375 C 648.75 490.75 649.125 496.375 649.125 513.75 C 649.125 524 649 534.25 648.75 544.625 L 649.5 545.375 C 658.75 545 660.75 544.875 670.75 545 L 671.375 544.125 C 670.875 534 670.125 519.875 670.125 511.25 C 670.125 505.625 670.125 497.375 678.625 497.375 C 680.75 497.375 682 498.125 683.75 499.125 Z M 688.125 545 "/>
<path fill-rule="nonzero" fill="rgb(34.901961%, 14.901961%, 14.901961%)" fill-opacity="1" d="M 261.875 606.375 C 251.875 606.75 250.25 606.75 239.75 606.75 L 239.125 607.5 C 240 621.625 240 625.25 240.125 640 C 234.625 640.125 229.125 640.25 223.5 640.25 C 219.125 640.25 214.625 640.125 210.25 640.125 L 210.5 607.125 L 209.875 606.375 C 200.25 606.75 198.375 606.75 187.5 606.75 L 186.75 607.5 C 187.375 620.375 188.125 635.75 188.125 666.75 C 188.125 678 187.875 684.125 187.625 694.625 L 188.25 695.375 C 197.375 695 199.625 694.875 210.625 695 L 211.25 694.25 C 210.5 678.75 210.375 674.25 210.25 656.125 C 215.75 655.875 220.375 655.75 225.25 655.75 C 230.25 655.75 235.25 655.875 240.25 656 C 240.5 672.875 240.5 677 239.875 694.625 L 240.5 695.375 C 249.875 695 252.375 694.875 263 695 L 263.625 694.25 C 262.625 673.25 262.25 652.375 262.25 631.375 C 262.25 622.625 262.375 616.75 262.5 607.125 Z M 333.625 676.5 C 328.875 679 323.25 681.875 314.125 681.875 C 306.625 681.875 301.5 679.5 298.5 675 C 296.625 672.375 296.25 669.875 295.75 667.375 L 336.125 666.625 L 336.875 665.75 C 336.75 659.625 336.625 653.375 334.875 647.125 C 330.5 632.375 320.875 629.375 316.625 628.375 C 313.5 627.5 310.625 627.25 307.75 627.25 C 288.125 627.25 275.125 640.125 275.125 661.75 C 275.125 667.625 276.125 673.75 278.125 678.125 C 285.375 695 302.375 696.5 311.375 696.5 C 321.75 696.5 326.25 694.625 332.875 692 L 333.625 691 L 334.5 676.875 L 333.625 676.5 M 295.75 654.125 C 296.125 650.25 297 645 301.75 642 C 303.25 641 305 640.625 306.75 640.625 C 310.875 640.625 313.375 642.75 314.75 645 C 316.5 647.75 316.625 650.75 316.625 653.625 Z M 404 657.75 C 404.125 646.5 404.125 641.625 400.875 636.375 C 398.375 632.375 393.375 627.375 377.375 627.375 C 366.625 627.375 360 629.375 352.875 631.5 L 352.125 632.5 L 351.5 646.125 L 352.5 646.625 C 356.875 644.875 365 641.625 373.375 641.625 C 378 641.625 379.875 642.375 381.5 644 C 382.75 645.25 383.125 647.5 383.125 649.375 C 368.125 651.375 361.125 652.75 353.625 657.375 C 346.625 661.75 344.25 668.875 344.25 674.5 C 344.25 687.875 353.875 696.5 366.125 696.5 C 375.5 696.5 380.875 692 383.5 689.875 L 383.5 694.5 L 384.25 695.375 C 393.25 695 396 694.875 404.125 695 L 404.75 694.125 C 403.875 681.875 403.875 678.75 403.875 667 L 404 657.75 M 383.375 677.625 C 380.75 679.125 377.375 680.875 373.25 680.875 C 368.75 680.875 365 678.5 365 673.25 C 365 665 374.875 663.625 383.375 662.5 Z M 479.875 694.25 C 479.375 683 479 675.5 479 659.125 C 479 626.125 479.5 612.5 480 596 L 479.125 595.25 L 458.5 598.5 L 457.875 599.25 C 458.625 611 458.75 614.125 458.625 628.375 C 449.25 628.125 437.5 627.875 428 635.375 C 419.25 642.125 415.625 652.5 415.625 665.375 C 415.625 675.125 418.25 684.875 425.625 691 C 431.125 695.5 437.875 696.5 442 696.5 C 450.875 696.5 455.5 692.375 458.5 689.75 L 458.25 694.625 L 458.875 695.375 C 467.5 695 469.875 695 479.25 695 L 479.875 694.25 M 458.625 643.375 C 458.75 660 458.625 663.25 458.25 678.375 C 455.75 679.875 453.25 681.375 449.75 681.375 C 437.625 681.375 437.625 665.875 437.625 663.375 C 437.625 653.75 440.375 643 454.375 643 C 455.75 643 456.875 643.125 458.625 643.375 Z M 516.125 694.125 C 515.5 679.75 514.875 666.625 514.875 627.125 C 514.875 615.25 515 609.625 515.5 596.125 L 514.625 595.25 L 493.25 598.625 L 492.75 599.375 C 494 614.625 494.125 618.75 494.375 639 C 494.5 646.375 494.5 653.75 494.5 661.125 C 494.5 674.625 494.25 682.125 493.75 694.5 L 494.5 695.375 C 502.875 695 506.25 694.875 515.375 695 Z M 586.25 657.75 C 586.375 646.5 586.375 641.625 583.125 636.375 C 580.625 632.375 575.625 627.375 559.625 627.375 C 548.875 627.375 542.25 629.375 535.125 631.5 L 534.375 632.5 L 533.75 646.125 L 534.75 646.625 C 539.125 644.875 547.25 641.625 555.625 641.625 C 560.25 641.625 562.125 642.375 563.75 644 C 565 645.25 565.375 647.5 565.375 649.375 C 550.375 651.375 543.375 652.75 535.875 657.375 C 528.875 661.75 526.5 668.875 526.5 674.5 C 526.5 687.875 536.125 696.5 548.375 696.5 C 557.75 696.5 563.125 692 565.75 689.875 L 565.75 694.5 L 566.5 695.375 C 575.5 695 578.25 694.875 586.375 695 L 587 694.125 C 586.125 681.875 586.125 678.75 586.125 667 L 586.25 657.75 M 565.625 677.625 C 563 679.125 559.625 680.875 555.5 680.875 C 551 680.875 547.25 678.5 547.25 673.25 C 547.25 665 557.125 663.625 565.625 662.5 Z M 662.125 694.125 C 661.5 683.125 661.5 679.625 661.25 667.375 L 661.25 657.625 C 661.125 645.625 661 639.875 657.875 634.75 C 654 628.25 646.875 627.25 642.375 627.25 C 634.75 627.25 628.125 631.25 622.375 634.625 L 622.625 627.75 L 621.375 626.875 C 611.75 628.875 609.625 629.25 600.25 630.5 L 599.5 631.375 C 600.5 642.25 601.25 650.125 601.25 670.5 C 601.25 678.5 601.125 686.5 601 694.5 L 601.75 695.25 C 610.75 694.875 612.625 694.875 622.625 694.875 L 623.375 694.125 C 622.625 674.875 622.5 670 622.375 647.625 C 625 645.875 628 643.75 632 643.75 C 638.875 643.75 639.5 651.125 639.875 655.625 C 640.125 659.75 640.25 676.875 640.25 681.625 C 640.25 685.875 640.125 690.25 640.125 694.5 L 640.875 695.25 C 649.125 695 651.25 694.875 661.25 694.875 Z M 737.625 694.25 C 737.125 683 736.75 675.5 736.75 659.125 C 736.75 626.125 737.25 612.5 737.75 596 L 736.875 595.25 L 716.25 598.5 L 715.625 599.25 C 716.375 611 716.5 614.125 716.375 628.375 C 707 628.125 695.25 627.875 685.75 635.375 C 677 642.125 673.375 652.5 673.375 665.375 C 673.375 675.125 676 684.875 683.375 691 C 688.875 695.5 695.625 696.5 699.75 696.5 C 708.625 696.5 713.25 692.375 716.25 689.75 L 716 694.625 L 716.625 695.375 C 725.25 695 727.625 695 737 695 L 737.625 694.25 M 716.375 643.375 C 716.5 660 716.375 663.25 716 678.375 C 713.5 679.875 711 681.375 707.5 681.375 C 695.375 681.375 695.375 665.875 695.375 663.375 C 695.375 653.75 698.125 643 712.125 643 C 713.5 643 714.625 643.125 716.375 643.375 Z M 778.125 651.875 C 773.875 650.375 770.5 649 770.5 645.5 C 770.5 644 771.5 639.875 779.25 639.875 C 786.875 639.875 791.75 643.125 794.875 645.125 L 796 644.75 L 797.25 631.125 L 796.625 630.375 C 790.75 628.75 785.625 627.25 777.5 627.25 C 771.375 627.25 759.125 627.75 752.625 637.125 C 751 639.375 749.25 643.125 749.25 648.125 C 749.25 661.5 759.625 665.5 765.5 667.75 L 770.25 669.5 C 773.625 670.625 779.125 672.5 779.125 677 C 779.125 680.125 776.25 683.5 769.25 683.5 C 765.75 683.5 760.625 682.375 756 680 C 753.875 678.875 752.875 678 751 676.5 L 749.875 677 C 749.625 683.5 749.5 684.875 749 691.125 L 749.625 692.25 C 755.75 694.5 761 696.5 770.125 696.5 C 779.625 696.5 798.375 694.75 800.625 676.875 C 800.75 675.875 800.75 675 800.75 674.125 C 800.75 660.375 791.125 656.75 784.25 654.125 Z M 804.25 695 "/>
<path fill-rule="nonzero" fill="rgb(34.901961%, 14.901961%, 14.901961%)" fill-opacity="1" d="M 190.125 791.25 C 179.625 786.875 174.125 784.625 174.125 779 C 174.125 775.125 177.75 770.25 186 770.25 C 195.5 770.25 201.125 774.125 205.75 777.25 L 206.875 776.75 L 207.875 760.375 L 207.25 759.5 C 201.875 757.25 196.25 754.875 184.125 754.875 C 160.625 754.875 152.5 768.125 152.5 781.5 C 152.5 796.625 164.25 802.125 171.25 805.5 L 175.375 807.375 C 184 811 190.625 814.125 190.625 820.75 C 190.625 825.5 186.5 831.125 175.625 831.125 C 164.25 831.125 157.875 826.125 154.25 823.25 L 153 823.625 L 152.125 841.25 L 152.875 842.25 C 154.25 842.75 155.625 843.375 157 843.75 C 159.875 844.75 167.25 846.875 176.625 846.875 C 180.375 846.875 189.875 846.5 197.375 843 C 207.875 837.875 212.375 828.375 212.375 817.75 C 212.375 810.625 209.625 803 203 797.875 C 199.625 795.375 196.375 793.875 193.375 792.5 Z M 259.25 830.625 C 257.125 831.25 255.625 831.75 253.5 831.75 C 247.125 831.75 246.625 827.75 246.375 825.875 C 246 822.625 246 815.75 246.125 810.75 L 246.375 793.125 L 257.625 793.625 L 258.375 792.875 L 259.625 779.5 L 258.875 778.75 L 246.375 778.75 L 246.75 757.75 L 245.875 757 C 237.375 759.5 235.125 760.125 226.25 762.375 L 225.75 763.25 L 225.875 778.875 L 219.125 778.625 L 218.375 779.25 L 217.25 792.625 L 218 793.375 L 225.875 793.125 L 225.5 813 C 225.375 816.125 225.25 819.25 225.25 822.5 C 225.25 834 225.5 846.375 245 846.375 C 249.875 846.375 253.75 845.625 258.125 844.875 L 259 844 L 260.25 831.125 Z M 324.125 807.75 C 324.25 796.5 324.25 791.625 321 786.375 C 318.5 782.375 313.5 777.375 297.5 777.375 C 286.75 777.375 280.125 779.375 273 781.5 L 272.25 782.5 L 271.625 796.125 L 272.625 796.625 C 277 794.875 285.125 791.625 293.5 791.625 C 298.125 791.625 300 792.375 301.625 794 C 302.875 795.25 303.25 797.5 303.25 799.375 C 288.25 801.375 281.25 802.75 273.75 807.375 C 266.75 811.75 264.375 818.875 264.375 824.5 C 264.375 837.875 274 846.5 286.25 846.5 C 295.625 846.5 301 842 303.625 839.875 L 303.625 844.5 L 304.375 845.375 C 313.375 845 316.125 844.875 324.25 845 L 324.875 844.125 C 324 831.875 324 828.75 324 817 L 324.125 807.75 M 303.5 827.625 C 300.875 829.125 297.5 830.875 293.375 830.875 C 288.875 830.875 285.125 828.5 285.125 823.25 C 285.125 815 295 813.625 303.5 812.5 Z M 373.75 830.625 C 371.625 831.25 370.125 831.75 368 831.75 C 361.625 831.75 361.125 827.75 360.875 825.875 C 360.5 822.625 360.5 815.75 360.625 810.75 L 360.875 793.125 L 372.125 793.625 L 372.875 792.875 L 374.125 779.5 L 373.375 778.75 L 360.875 778.75 L 361.25 757.75 L 360.375 757 C 351.875 759.5 349.625 760.125 340.75 762.375 L 340.25 763.25 L 340.375 778.875 L 333.625 778.625 L 332.875 779.25 L 331.75 792.625 L 332.5 793.375 L 340.375 793.125 L 340 813 C 339.875 816.125 339.75 819.25 339.75 822.5 C 339.75 834 340 846.375 359.5 846.375 C 364.375 846.375 368.25 845.625 372.625 844.875 L 373.5 844 L 374.75 831.125 Z M 438.5 826.5 C 433.75 829 428.125 831.875 419 831.875 C 411.5 831.875 406.375 829.5 403.375 825 C 401.5 822.375 401.125 819.875 400.625 817.375 L 441 816.625 L 441.75 815.75 C 441.625 809.625 441.5 803.375 439.75 797.125 C 435.375 782.375 425.75 779.375 421.5 778.375 C 418.375 777.5 415.5 777.25 412.625 777.25 C 393 777.25 380 790.125 380 811.75 C 380 817.625 381 823.75 383 828.125 C 390.25 845 407.25 846.5 416.25 846.5 C 426.625 846.5 431.125 844.625 437.75 842 L 438.5 841 L 439.375 826.875 L 438.5 826.5 M 400.625 804.125 C 401 800.25 401.875 795 406.625 792 C 408.125 791 409.875 790.625 411.625 790.625 C 415.75 790.625 418.25 792.75 419.625 795 C 421.375 797.75 421.5 800.75 421.5 803.625 Z M 513 845 C 524.625 845.25 539 845.5 548.375 839 C 556.625 833.125 558.875 824.875 558.875 817.875 C 558.875 809.875 555.5 802.5 548.375 799 C 546 797.75 543.25 797.25 540.625 796.75 C 544.875 795 549.875 792.75 553.125 786.125 C 554.5 783.25 555.125 780.25 555.125 777.375 C 555.125 773.375 554.125 767.875 550.125 763.375 C 544.875 757.75 536.75 756.25 524.5 756.25 C 520.25 756.25 512.625 756.375 508.375 756.5 L 490.875 756.75 L 490.125 757.5 C 490.625 769.5 490.75 774.125 490.75 791.375 C 490.75 809.125 490.625 826.75 490.375 844.5 L 491.25 845 L 513 845 M 512.125 807 C 521.625 806.75 527.125 806.75 530.75 808.875 C 534.375 811.125 535.75 815.125 535.75 819.125 C 535.75 824.75 532.625 828.25 528 829.875 C 524.25 831.125 517.5 831.125 512.125 831 L 512.125 807 M 512.125 770.25 C 514.75 770.25 518.25 770.125 520.375 770.125 C 527.125 770.125 533.25 772.5 533.25 780.625 C 533.25 787.25 528.375 790 526.875 790.75 C 523.75 792.125 517.125 792.125 512.125 792.125 Z M 626 826.5 C 621.25 829 615.625 831.875 606.5 831.875 C 599 831.875 593.875 829.5 590.875 825 C 589 822.375 588.625 819.875 588.125 817.375 L 628.5 816.625 L 629.25 815.75 C 629.125 809.625 629 803.375 627.25 797.125 C 622.875 782.375 613.25 779.375 609 778.375 C 605.875 777.5 603 777.25 600.125 777.25 C 580.5 777.25 567.5 790.125 567.5 811.75 C 567.5 817.625 568.5 823.75 570.5 828.125 C 577.75 845 594.75 846.5 603.75 846.5 C 614.125 846.5 618.625 844.625 625.25 842 L 626 841 L 626.875 826.875 L 626 826.5 M 588.125 804.125 C 588.5 800.25 589.375 795 594.125 792 C 595.625 791 597.375 790.625 599.125 790.625 C 603.25 790.625 605.75 792.75 607.125 795 C 608.875 797.75 609 800.75 609 803.625 Z M 696.375 807.75 C 696.5 796.5 696.5 791.625 693.25 786.375 C 690.75 782.375 685.75 777.375 669.75 777.375 C 659 777.375 652.375 779.375 645.25 781.5 L 644.5 782.5 L 643.875 796.125 L 644.875 796.625 C 649.25 794.875 657.375 791.625 665.75 791.625 C 670.375 791.625 672.25 792.375 673.875 794 C 675.125 795.25 675.5 797.5 675.5 799.375 C 660.5 801.375 653.5 802.75 646 807.375 C 639 811.75 636.625 818.875 636.625 824.5 C 636.625 837.875 646.25 846.5 658.5 846.5 C 667.875 846.5 673.25 842 675.875 839.875 L 675.875 844.5 L 676.625 845.375 C 685.625 845 688.375 844.875 696.5 845 L 697.125 844.125 C 696.25 831.875 696.25 828.75 696.25 817 L 696.375 807.75 M 675.75 827.625 C 673.125 829.125 669.75 830.875 665.625 830.875 C 661.125 830.875 657.375 828.5 657.375 823.25 C 657.375 815 667.25 813.625 675.75 812.5 Z M 759.875 827 C 756.5 829 753.25 831 746.875 831 C 732.75 831 729.875 819.25 729.875 811.75 C 729.875 802.625 733.875 792.125 746 792.125 C 751.5 792.125 754.5 794.125 758.25 796.625 L 759.5 796.25 C 760 789.625 760.125 787.875 761.125 781.25 L 760.5 780.5 C 755 778.75 750.25 777.25 743 777.25 C 713.625 777.25 707.875 799.5 707.875 812.25 C 707.875 826.625 715.375 846.125 743.5 846.125 C 750.125 846.125 754.375 844.875 759.625 843.375 L 760.375 842.625 L 760.875 827.625 Z M 832.125 844.125 C 831.625 833.875 831.5 830.375 831.25 817.375 L 831.25 808 C 831.125 796.125 831 789.25 827.375 784 C 823.75 778.875 818.5 777.25 813 777.25 C 803.875 777.25 796.75 781.625 791.75 784.625 L 792.125 746.125 L 791.375 745.25 L 770 748.625 L 769.375 749.375 C 770.5 761.5 770.75 766 771 782.125 C 771.25 792.25 771.375 802.375 771.375 812.5 C 771.375 824.875 771.125 832.25 770.875 844.5 L 771.5 845.375 C 780.75 844.875 782.625 844.875 792.75 844.875 L 793.5 844.125 C 792.625 825.375 792.5 819.75 792.375 797.625 C 794.75 796 797.75 793.875 802 793.875 C 808.875 793.875 809.375 801 809.875 806 C 810.125 809.875 810.25 827.625 810.25 832.25 C 810.25 836.375 810.125 840.375 810.125 844.5 L 810.75 845.375 C 819.75 844.875 821.75 844.875 831.375 844.875 Z M 838.875 845 "/>
</svg>
