<?xml version="1.0" encoding="UTF-8"?>
<svg xmlns="http://www.w3.org/2000/svg" xmlns:xlink="http://www.w3.org/1999/xlink" width="975" height="1300" viewBox="0 0 975 1300">
<path fill-rule="nonzero" fill="rgb(34.901961%, 14.901961%, 14.901961%)" fill-opacity="1" d="M 234.625 595.25 C 234.625 589 234.75 582.75 234.875 576.375 L 234.25 575.625 L 213 576 L 212.375 576.75 C 213.5 589 213.625 592 213.375 603.375 C 210 604.125 207.5 604.75 204 604.75 C 184.625 604.75 181.125 586.25 181.125 576.875 C 181.125 557.125 191.75 546.375 207.5 546.375 C 217 546.375 222.625 550.125 228.5 554 L 229.5 553.625 C 230.125 545.875 230.375 543.875 231.375 536.375 L 230.75 535.625 C 225.5 533.375 217.125 529.875 204.125 529.875 C 189.875 529.875 174.25 533.875 164.375 550.625 C 159.875 558.5 158 568.625 158 577 C 158 588.75 161.125 598.625 166.75 605.875 C 174.125 615.375 183.25 618.375 188.125 619.75 C 191.75 620.75 197.125 621.875 204.875 621.875 C 217.75 621.875 225.625 619.25 234.375 616.375 L 235 615.375 C 234.875 609.625 234.625 603.875 234.625 598.125 Z M 284.875 573.625 L 288.375 553.25 L 287.625 552.375 C 286.75 552.375 285.875 552.25 285 552.25 C 279.875 552.25 274.125 555.125 270.125 564.375 L 270.5 552.875 L 269.5 551.875 C 260.25 553.875 257.875 554.25 248.75 555.625 L 248 556.375 C 248.75 565.75 249.125 571.375 249.125 588.75 C 249.125 599 249 609.25 248.75 619.625 L 249.5 620.375 C 258.75 620 260.75 619.875 270.75 620 L 271.375 619.125 C 270.875 609 270.125 594.875 270.125 586.25 C 270.125 580.625 270.125 572.375 278.625 572.375 C 280.75 572.375 282 573.125 283.75 574.125 Z M 351.125 601.5 C 346.375 604 340.75 606.875 331.625 606.875 C 324.125 606.875 319 604.5 316 600 C 314.125 597.375 313.75 594.875 313.25 592.375 L 353.625 591.625 L 354.375 590.75 C 354.25 584.625 354.125 578.375 352.375 572.125 C 348 557.375 338.375 554.375 334.125 553.375 C 331 552.5 328.125 552.25 325.25 552.25 C 305.625 552.25 292.625 565.125 292.625 586.75 C 292.625 592.625 293.625 598.75 295.625 603.125 C 302.875 620 319.875 621.5 328.875 621.5 C 339.25 621.5 343.75 619.625 350.375 617 L 351.125 616 L 352 601.875 L 351.125 601.5 M 313.25 579.125 C 313.625 575.25 314.5 570 319.25 567 C 320.75 566 322.5 565.625 324.25 565.625 C 328.375 565.625 330.875 567.75 332.25 570 C 334 572.75 334.125 575.75 334.125 578.625 Z M 421.375 601.5 C 416.625 604 411 606.875 401.875 606.875 C 394.375 606.875 389.25 604.5 386.25 600 C 384.375 597.375 384 594.875 383.5 592.375 L 423.875 591.625 L 424.625 590.75 C 424.5 584.625 424.375 578.375 422.625 572.125 C 418.25 557.375 408.625 554.375 404.375 553.375 C 401.25 552.5 398.375 552.25 395.5 552.25 C 375.875 552.25 362.875 565.125 362.875 586.75 C 362.875 592.625 363.875 598.75 365.875 603.125 C 373.125 620 390.125 621.5 399.125 621.5 C 409.5 621.5 414 619.625 420.625 617 L 421.375 616 L 422.25 601.875 L 421.375 601.5 M 383.5 579.125 C 383.875 575.25 384.75 570 389.5 567 C 391 566 392.75 565.625 394.5 565.625 C 398.625 565.625 401.125 567.75 402.5 570 C 404.25 572.75 404.375 575.75 404.375 578.625 Z M 497.375 619.125 C 496.75 608.125 496.75 604.625 496.5 592.375 L 496.5 582.625 C 496.375 570.625 496.25 564.875 493.125 559.75 C 489.25 553.25 482.125 552.25 477.625 552.25 C 470 552.25 463.375 556.25 457.625 559.625 L 457.875 552.75 L 456.625 551.875 C 447 553.875 444.875 554.25 435.5 555.5 L 434.75 556.375 C 435.75 567.25 436.5 575.125 436.5 595.5 C 436.5 603.5 436.375 611.5 436.25 619.5 L 437 620.25 C 446 619.875 447.875 619.875 457.875 619.875 L 458.625 619.125 C 457.875 599.875 457.75 595 457.625 572.625 C 460.25 570.875 463.25 568.75 467.25 568.75 C 474.125 568.75 474.75 576.125 475.125 580.625 C 475.375 584.75 475.5 601.875 475.5 606.625 C 475.5 610.875 475.375 615.25 475.375 619.5 L 476.125 620.25 C 484.375 620 486.5 619.875 496.5 619.875 Z M 588.875 619.125 C 593.875 599.75 594.75 596.75 602.25 569.875 C 603.75 564.75 605.125 559.5 606.5 554.375 L 605.75 553.375 L 589.5 553.75 L 588.625 554.625 L 585 573.375 L 581.5 588.5 L 579.125 600 L 577 588.875 L 574.25 575.875 L 569.875 554.25 L 569.125 553.375 L 545.125 553.75 L 544.25 554.625 L 540.125 575.125 L 537.125 588.875 L 534.75 600.375 L 532.375 588 L 529.375 574.5 L 525.125 553.75 L 524.375 553.125 L 504.125 554.625 L 503.375 555.625 C 515.125 596.875 517 604.25 520.5 619.625 L 521.375 620.375 C 530 620 533.125 619.875 544.625 620 L 545.375 619.125 L 548.625 603.875 L 552.125 588.75 L 555.25 573.625 L 557.125 583.125 L 559 592.375 L 564.25 619.5 L 565.125 620.375 C 574.375 620 578.125 619.875 588.125 620 Z M 676.75 586.75 C 676.75 581.875 676.75 561.625 659.25 554.75 C 653.75 552.625 647.25 552.375 644 552.375 C 622.25 552.375 610 564 610 587 C 610 595 611.25 603.125 615.875 609.875 C 619.125 614.75 625.25 621.5 643.125 621.5 C 669.625 621.5 676.75 605.5 676.75 586.75 M 655.125 586.625 C 655.125 596.875 653.75 608.25 643.375 608.25 C 640.125 608.25 637.875 606.75 636.375 605.375 C 634.25 603.25 631.875 599 631.875 586.875 C 631.875 583.25 631.875 575.25 634.375 570.875 C 636.25 567.5 639.5 565.25 643.5 565.25 C 647 565.25 649.875 567.125 651.5 569.125 C 654.5 572.75 655.125 579.875 655.125 586.625 Z M 752.25 586.75 C 752.25 581.875 752.25 561.625 734.75 554.75 C 729.25 552.625 722.75 552.375 719.5 552.375 C 697.75 552.375 685.5 564 685.5 587 C 685.5 595 686.75 603.125 691.375 609.875 C 694.625 614.75 700.75 621.5 718.625 621.5 C 745.125 621.5 752.25 605.5 752.25 586.75 M 730.625 586.625 C 730.625 596.875 729.25 608.25 718.875 608.25 C 715.625 608.25 713.375 606.75 711.875 605.375 C 709.75 603.25 707.375 599 707.375 586.875 C 707.375 583.25 707.375 575.25 709.875 570.875 C 711.75 567.5 715 565.25 719 565.25 C 722.5 565.25 725.375 567.125 727 569.125 C 730 572.75 730.625 579.875 730.625 586.625 Z M 825.375 619.25 C 824.875 608 824.5 600.5 824.5 584.125 C 824.5 551.125 825 537.5 825.5 521 L 824.625 520.25 L 804 523.5 L 803.375 524.25 C 804.125 536 804.25 539.125 804.125 553.375 C 794.75 553.125 783 552.875 773.5 560.375 C 764.75 567.125 761.125 577.5 761.125 590.375 C 761.125 600.125 763.75 609.875 771.125 616 C 776.625 620.5 783.375 621.5 787.5 621.5 C 796.375 621.5 801 617.375 804 614.75 L 803.75 619.625 L 804.375 620.375 C 813 620 815.375 620 824.75 620 L 825.375 619.25 M 804.125 568.375 C 804.25 585 804.125 588.25 803.75 603.375 C 801.25 604.875 798.75 606.375 795.25 606.375 C 783.125 606.375 783.125 590.875 783.125 588.375 C 783.125 578.75 785.875 568 799.875 568 C 801.25 568 802.375 568.125 804.125 568.375 Z M 832.125 620 "/>
<path fill-rule="nonzero" fill="rgb(34.901961%, 14.901961%, 14.901961%)" fill-opacity="1" d="M 190.125 716.25 C 179.625 711.875 174.125 709.625 174.125 704 C 174.125 700.125 177.75 695.25 186 695.25 C 195.5 695.25 201.125 699.125 205.75 702.25 L 206.875 701.75 L 207.875 685.375 L 207.25 684.5 C 201.875 682.25 196.25 679.875 184.125 679.875 C 160.625 679.875 152.5 693.125 152.5 706.5 C 152.5 721.625 164.25 727.125 171.25 730.5 L 175.375 732.375 C 184 736 190.625 739.125 190.625 745.75 C 190.625 750.5 186.5 756.125 175.625 756.125 C 164.25 756.125 157.875 751.125 154.25 748.25 L 153 748.625 L 152.125 766.25 L 152.875 767.25 C 154.25 767.75 155.625 768.375 157 768.75 C 159.875 769.75 167.25 771.875 176.625 771.875 C 180.375 771.875 189.875 771.5 197.375 768 C 207.875 762.875 212.375 753.375 212.375 742.75 C 212.375 735.625 209.625 728 203 722.875 C 199.625 720.375 196.375 718.875 193.375 717.5 Z M 259.25 755.625 C 257.125 756.25 255.625 756.75 253.5 756.75 C 247.125 756.75 246.625 752.75 246.375 750.875 C 246 747.625 246 740.75 246.125 735.75 L 246.375 718.125 L 257.625 718.625 L 258.375 717.875 L 259.625 704.5 L 258.875 703.75 L 246.375 703.75 L 246.75 682.75 L 245.875 682 C 237.375 684.5 235.125 685.125 226.25 687.375 L 225.75 688.25 L 225.875 703.875 L 219.125 703.625 L 218.375 704.25 L 217.25 717.625 L 218 718.375 L 225.875 718.125 L 225.5 738 C 225.375 741.125 225.25 744.25 225.25 747.5 C 225.25 759 225.5 771.375 245 771.375 C 249.875 771.375 253.75 770.625 258.125 769.875 L 259 769 L 260.25 756.125 Z M 324.125 732.75 C 324.25 721.5 324.25 716.625 321 711.375 C 318.5 707.375 313.5 702.375 297.5 702.375 C 286.75 702.375 280.125 704.375 273 706.5 L 272.25 707.5 L 271.625 721.125 L 272.625 721.625 C 277 719.875 285.125 716.625 293.5 716.625 C 298.125 716.625 300 717.375 301.625 719 C 302.875 720.25 303.25 722.5 303.25 724.375 C 288.25 726.375 281.25 727.75 273.75 732.375 C 266.75 736.75 264.375 743.875 264.375 749.5 C 264.375 762.875 274 771.5 286.25 771.5 C 295.625 771.5 301 767 303.625 764.875 L 303.625 769.5 L 304.375 770.375 C 313.375 770 316.125 769.875 324.25 770 L 324.875 769.125 C 324 756.875 324 753.75 324 742 L 324.125 732.75 M 303.5 752.625 C 300.875 754.125 297.5 755.875 293.375 755.875 C 288.875 755.875 285.125 753.5 285.125 748.25 C 285.125 740 295 738.625 303.5 737.5 Z M 373.75 755.625 C 371.625 756.25 370.125 756.75 368 756.75 C 361.625 756.75 361.125 752.75 360.875 750.875 C 360.5 747.625 360.5 740.75 360.625 735.75 L 360.875 718.125 L 372.125 718.625 L 372.875 717.875 L 374.125 704.5 L 373.375 703.75 L 360.875 703.75 L 361.25 682.75 L 360.375 682 C 351.875 684.5 349.625 685.125 340.75 687.375 L 340.25 688.25 L 340.375 703.875 L 333.625 703.625 L 332.875 704.25 L 331.75 717.625 L 332.5 718.375 L 340.375 718.125 L 340 738 C 339.875 741.125 339.75 744.25 339.75 747.5 C 339.75 759 340 771.375 359.5 771.375 C 364.375 771.375 368.25 770.625 372.625 769.875 L 373.5 769 L 374.75 756.125 Z M 438.5 751.5 C 433.75 754 428.125 756.875 419 756.875 C 411.5 756.875 406.375 754.5 403.375 750 C 401.5 747.375 401.125 744.875 400.625 742.375 L 441 741.625 L 441.75 740.75 C 441.625 734.625 441.5 728.375 439.75 722.125 C 435.375 707.375 425.75 704.375 421.5 703.375 C 418.375 702.5 415.5 702.25 412.625 702.25 C 393 702.25 380 715.125 380 736.75 C 380 742.625 381 748.75 383 753.125 C 390.25 770 407.25 771.5 416.25 771.5 C 426.625 771.5 431.125 769.625 437.75 767 L 438.5 766 L 439.375 751.875 L 438.5 751.5 M 400.625 729.125 C 401 725.25 401.875 720 406.625 717 C 408.125 716 409.875 715.625 411.625 715.625 C 415.75 715.625 418.25 717.75 419.625 720 C 421.375 722.75 421.5 725.75 421.5 728.625 Z M 513 770 C 524.625 770.25 539 770.5 548.375 764 C 556.625 758.125 558.875 749.875 558.875 742.875 C 558.875 734.875 555.5 727.5 548.375 724 C 546 722.75 543.25 722.25 540.625 721.75 C 544.875 720 549.875 717.75 553.125 711.125 C 554.5 708.25 555.125 705.25 555.125 702.375 C 555.125 698.375 554.125 692.875 550.125 688.375 C 544.875 682.75 536.75 681.25 524.5 681.25 C 520.25 681.25 512.625 681.375 508.375 681.5 L 490.875 681.75 L 490.125 682.5 C 490.625 694.5 490.75 699.125 490.75 716.375 C 490.75 734.125 490.625 751.75 490.375 769.5 L 491.25 770 L 513 770 M 512.125 732 C 521.625 731.75 527.125 731.75 530.75 733.875 C 534.375 736.125 535.75 740.125 535.75 744.125 C 535.75 749.75 532.625 753.25 528 754.875 C 524.25 756.125 517.5 756.125 512.125 756 L 512.125 732 M 512.125 695.25 C 514.75 695.25 518.25 695.125 520.375 695.125 C 527.125 695.125 533.25 697.5 533.25 705.625 C 533.25 712.25 528.375 715 526.875 715.75 C 523.75 717.125 517.125 717.125 512.125 717.125 Z M 626 751.5 C 621.25 754 615.625 756.875 606.5 756.875 C 599 756.875 593.875 754.5 590.875 750 C 589 747.375 588.625 744.875 588.125 742.375 L 628.5 741.625 L 629.25 740.75 C 629.125 734.625 629 728.375 627.25 722.125 C 622.875 707.375 613.25 704.375 609 703.375 C 605.875 702.5 603 702.25 600.125 702.25 C 580.5 702.25 567.5 715.125 567.5 736.75 C 567.5 742.625 568.5 748.75 570.5 753.125 C 577.75 770 594.75 771.5 603.75 771.5 C 614.125 771.5 618.625 769.625 625.25 767 L 626 766 L 626.875 751.875 L 626 751.5 M 588.125 729.125 C 588.5 725.25 589.375 720 594.125 717 C 595.625 716 597.375 715.625 599.125 715.625 C 603.25 715.625 605.75 717.75 607.125 720 C 608.875 722.75 609 725.75 609 728.625 Z M 696.375 732.75 C 696.5 721.5 696.5 716.625 693.25 711.375 C 690.75 707.375 685.75 702.375 669.75 702.375 C 659 702.375 652.375 704.375 645.25 706.5 L 644.5 707.5 L 643.875 721.125 L 644.875 721.625 C 649.25 719.875 657.375 716.625 665.75 716.625 C 670.375 716.625 672.25 717.375 673.875 719 C 675.125 720.25 675.5 722.5 675.5 724.375 C 660.5 726.375 653.5 727.75 646 732.375 C 639 736.75 636.625 743.875 636.625 749.5 C 636.625 762.875 646.25 771.5 658.5 771.5 C 667.875 771.5 673.25 767 675.875 764.875 L 675.875 769.5 L 676.625 770.375 C 685.625 770 688.375 769.875 696.5 770 L 697.125 769.125 C 696.25 756.875 696.25 753.75 696.25 742 L 696.375 732.75 M 675.75 752.625 C 673.125 754.125 669.75 755.875 665.625 755.875 C 661.125 755.875 657.375 753.5 657.375 748.25 C 657.375 740 667.25 738.625 675.75 737.5 Z M 759.875 752 C 756.5 754 753.25 756 746.875 756 C 732.75 756 729.875 744.25 729.875 736.75 C 729.875 727.625 733.875 717.125 746 717.125 C 751.5 717.125 754.5 719.125 758.25 721.625 L 759.5 721.25 C 760 714.625 760.125 712.875 761.125 706.25 L 760.5 705.5 C 755 703.75 750.25 702.25 743 702.25 C 713.625 702.25 707.875 724.5 707.875 737.25 C 707.875 751.625 715.375 771.125 743.5 771.125 C 750.125 771.125 754.375 769.875 759.625 768.375 L 760.375 767.625 L 760.875 752.625 Z M 832.125 769.125 C 831.625 758.875 831.5 755.375 831.25 742.375 L 831.25 733 C 831.125 721.125 831 714.25 827.375 709 C 823.75 703.875 818.5 702.25 813 702.25 C 803.875 702.25 796.75 706.625 791.75 709.625 L 792.125 671.125 L 791.375 670.25 L 770 673.625 L 769.375 674.375 C 770.5 686.5 770.75 691 771 707.125 C 771.25 717.25 771.375 727.375 771.375 737.5 C 771.375 749.875 771.125 757.25 770.875 769.5 L 771.5 770.375 C 780.75 769.875 782.625 769.875 792.75 769.875 L 793.5 769.125 C 792.625 750.375 792.5 744.75 792.375 722.625 C 794.75 721 797.75 718.875 802 718.875 C 808.875 718.875 809.375 726 809.875 731 C 810.125 734.875 810.25 752.625 810.25 757.25 C 810.25 761.375 810.125 765.375 810.125 769.5 L 810.75 770.375 C 819.75 769.875 821.75 769.875 831.375 769.875 Z M 838.875 770 "/>
</svg>
