<?xml version="1.0" encoding="UTF-8"?>
<svg xmlns="http://www.w3.org/2000/svg" xmlns:xlink="http://www.w3.org/1999/xlink" width="975" height="1300" viewBox="0 0 975 1300">
<path fill-rule="nonzero" fill="rgb(34.901961%, 14.901961%, 14.901961%)" fill-opacity="1" d="M 111.125 584 L 112 583.25 L 113 568.625 L 112.375 567.875 L 83.875 568.875 L 83.875 548 L 114.5 548.375 L 115.25 547.5 L 116.625 532 L 115.875 531.375 C 95.25 531.75 88.625 531.75 61.625 531.625 L 60.875 532.375 C 61.625 544.625 62.125 554.5 62.125 576.625 C 62.125 591 61.875 605.375 61.625 619.75 L 62.25 620.375 C 71.375 620 73.5 620 84.5 620 L 85.125 619.25 C 84.25 604.875 84.125 600.5 83.75 584 Z M 189.75 586.75 C 189.75 581.875 189.75 561.625 172.25 554.75 C 166.75 552.625 160.25 552.375 157 552.375 C 135.25 552.375 123 564 123 587 C 123 595 124.25 603.125 128.875 609.875 C 132.125 614.75 138.25 621.5 156.125 621.5 C 182.625 621.5 189.75 605.5 189.75 586.75 M 168.125 586.625 C 168.125 596.875 166.75 608.25 156.375 608.25 C 153.125 608.25 150.875 606.75 149.375 605.375 C 147.25 603.25 144.875 599 144.875 586.875 C 144.875 583.25 144.875 575.25 147.375 570.875 C 149.25 567.5 152.5 565.25 156.5 565.25 C 160 565.25 162.875 567.125 164.5 569.125 C 167.5 572.75 168.125 579.875 168.125 586.625 Z M 237.75 573.625 L 241.25 553.25 L 240.5 552.375 C 239.625 552.375 238.75 552.25 237.875 552.25 C 232.75 552.25 227 555.125 223 564.375 L 223.375 552.875 L 222.375 551.875 C 213.125 553.875 210.75 554.25 201.625 555.625 L 200.875 556.375 C 201.625 565.75 202 571.375 202 588.75 C 202 599 201.875 609.25 201.625 619.625 L 202.375 620.375 C 211.625 620 213.625 619.875 223.625 620 L 224.25 619.125 C 223.75 609 223 594.875 223 586.25 C 223 580.625 223 572.375 231.5 572.375 C 233.625 572.375 234.875 573.125 236.625 574.125 Z M 283.5 605.625 C 281.375 606.25 279.875 606.75 277.75 606.75 C 271.375 606.75 270.875 602.75 270.625 600.875 C 270.25 597.625 270.25 590.75 270.375 585.75 L 270.625 568.125 L 281.875 568.625 L 282.625 567.875 L 283.875 554.5 L 283.125 553.75 L 270.625 553.75 L 271 532.75 L 270.125 532 C 261.625 534.5 259.375 535.125 250.5 537.375 L 250 538.25 L 250.125 553.875 L 243.375 553.625 L 242.625 554.25 L 241.5 567.625 L 242.25 568.375 L 250.125 568.125 L 249.75 588 C 249.625 591.125 249.5 594.25 249.5 597.5 C 249.5 609 249.75 621.375 269.25 621.375 C 274.125 621.375 278 620.625 282.375 619.875 L 283.25 619 L 284.5 606.125 Z M 357.5 585.625 C 365.875 599.875 367.75 603.625 375.75 620 L 376.75 620.625 C 380.625 620.375 384.375 620.125 388.25 620 C 392.125 619.875 396.125 619.75 400 619.75 L 400.75 618.25 C 396 612.125 394.625 610.25 385.625 595.875 C 381.625 589.5 379.625 586.125 376.5 580.625 C 382.125 578.125 393.5 572.875 393.5 557 C 393.5 551.5 392 540.125 381.75 534.75 C 375.25 531.375 368.5 531.25 353.875 531.5 L 345.125 531.625 L 329.875 531.625 L 329.25 532.375 C 329.75 545 330.25 558 330.25 592 C 330.25 603.625 330.125 609.25 329.75 619.625 L 330.5 620.375 C 339.625 620 341.625 619.875 351.875 620 L 352.625 619.25 C 351.625 604.75 351.5 600.75 351.375 585.875 L 357.5 585.625 M 351.625 546.75 C 353.375 546.625 355.125 546.625 356.875 546.625 C 361.75 546.625 371.375 546.625 371.375 557.625 C 371.375 561.125 370.5 565.75 365.875 568.625 C 362.375 570.75 357.875 571 351.625 571.125 Z M 471 586.75 C 471 581.875 471 561.625 453.5 554.75 C 448 552.625 441.5 552.375 438.25 552.375 C 416.5 552.375 404.25 564 404.25 587 C 404.25 595 405.5 603.125 410.125 609.875 C 413.375 614.75 419.5 621.5 437.375 621.5 C 463.875 621.5 471 605.5 471 586.75 M 449.375 586.625 C 449.375 596.875 448 608.25 437.625 608.25 C 434.375 608.25 432.125 606.75 430.625 605.375 C 428.5 603.25 426.125 599 426.125 586.875 C 426.125 583.25 426.125 575.25 428.625 570.875 C 430.5 567.5 433.75 565.25 437.75 565.25 C 441.25 565.25 444.125 567.125 445.75 569.125 C 448.75 572.75 449.375 579.875 449.375 586.625 Z M 509.125 576.875 C 504.875 575.375 501.5 574 501.5 570.5 C 501.5 569 502.5 564.875 510.25 564.875 C 517.875 564.875 522.75 568.125 525.875 570.125 L 527 569.75 L 528.25 556.125 L 527.625 555.375 C 521.75 553.75 516.625 552.25 508.5 552.25 C 502.375 552.25 490.125 552.75 483.625 562.125 C 482 564.375 480.25 568.125 480.25 573.125 C 480.25 586.5 490.625 590.5 496.5 592.75 L 501.25 594.5 C 504.625 595.625 510.125 597.5 510.125 602 C 510.125 605.125 507.25 608.5 500.25 608.5 C 496.75 608.5 491.625 607.375 487 605 C 484.875 603.875 483.875 603 482 601.5 L 480.875 602 C 480.625 608.5 480.5 609.875 480 616.125 L 480.625 617.25 C 486.75 619.5 492 621.5 501.125 621.5 C 510.625 621.5 529.375 619.75 531.625 601.875 C 531.75 600.875 531.75 600 531.75 599.125 C 531.75 585.375 522.125 581.75 515.25 579.125 Z M 569 576.875 C 564.75 575.375 561.375 574 561.375 570.5 C 561.375 569 562.375 564.875 570.125 564.875 C 577.75 564.875 582.625 568.125 585.75 570.125 L 586.875 569.75 L 588.125 556.125 L 587.5 555.375 C 581.625 553.75 576.5 552.25 568.375 552.25 C 562.25 552.25 550 552.75 543.5 562.125 C 541.875 564.375 540.125 568.125 540.125 573.125 C 540.125 586.5 550.5 590.5 556.375 592.75 L 561.125 594.5 C 564.5 595.625 570 597.5 570 602 C 570 605.125 567.125 608.5 560.125 608.5 C 556.625 608.5 551.5 607.375 546.875 605 C 544.75 603.875 543.75 603 541.875 601.5 L 540.75 602 C 540.5 608.5 540.375 609.875 539.875 616.125 L 540.5 617.25 C 546.625 619.5 551.875 621.5 561 621.5 C 570.5 621.5 589.25 619.75 591.5 601.875 C 591.625 600.875 591.625 600 591.625 599.125 C 591.625 585.375 582 581.75 575.125 579.125 Z M 675.25 566.25 C 664.75 561.875 659.25 559.625 659.25 554 C 659.25 550.125 662.875 545.25 671.125 545.25 C 680.625 545.25 686.25 549.125 690.875 552.25 L 692 551.75 L 693 535.375 L 692.375 534.5 C 687 532.25 681.375 529.875 669.25 529.875 C 645.75 529.875 637.625 543.125 637.625 556.5 C 637.625 571.625 649.375 577.125 656.375 580.5 L 660.5 582.375 C 669.125 586 675.75 589.125 675.75 595.75 C 675.75 600.5 671.625 606.125 660.75 606.125 C 649.375 606.125 643 601.125 639.375 598.25 L 638.125 598.625 L 637.25 616.25 L 638 617.25 C 639.375 617.75 640.75 618.375 642.125 618.75 C 645 619.75 652.375 621.875 661.75 621.875 C 665.5 621.875 675 621.5 682.5 618 C 693 612.875 697.5 603.375 697.5 592.75 C 697.5 585.625 694.75 578 688.125 572.875 C 684.75 570.375 681.5 568.875 678.5 567.5 Z M 744.375 605.625 C 742.25 606.25 740.75 606.75 738.625 606.75 C 732.25 606.75 731.75 602.75 731.5 600.875 C 731.125 597.625 731.125 590.75 731.25 585.75 L 731.5 568.125 L 742.75 568.625 L 743.5 567.875 L 744.75 554.5 L 744 553.75 L 731.5 553.75 L 731.875 532.75 L 731 532 C 722.5 534.5 720.25 535.125 711.375 537.375 L 710.875 538.25 L 711 553.875 L 704.25 553.625 L 703.5 554.25 L 702.375 567.625 L 703.125 568.375 L 711 568.125 L 710.625 588 C 710.5 591.125 710.375 594.25 710.375 597.5 C 710.375 609 710.625 621.375 730.125 621.375 C 735 621.375 738.875 620.625 743.25 619.875 L 744.125 619 L 745.375 606.125 Z M 809.25 582.75 C 809.375 571.5 809.375 566.625 806.125 561.375 C 803.625 557.375 798.625 552.375 782.625 552.375 C 771.875 552.375 765.25 554.375 758.125 556.5 L 757.375 557.5 L 756.75 571.125 L 757.75 571.625 C 762.125 569.875 770.25 566.625 778.625 566.625 C 783.25 566.625 785.125 567.375 786.75 569 C 788 570.25 788.375 572.5 788.375 574.375 C 773.375 576.375 766.375 577.75 758.875 582.375 C 751.875 586.75 749.5 593.875 749.5 599.5 C 749.5 612.875 759.125 621.5 771.375 621.5 C 780.75 621.5 786.125 617 788.75 614.875 L 788.75 619.5 L 789.5 620.375 C 798.5 620 801.25 619.875 809.375 620 L 810 619.125 C 809.125 606.875 809.125 603.75 809.125 592 L 809.25 582.75 M 788.625 602.625 C 786 604.125 782.625 605.875 778.5 605.875 C 774 605.875 770.25 603.5 770.25 598.25 C 770.25 590 780.125 588.625 788.625 587.5 Z M 858.875 605.625 C 856.75 606.25 855.25 606.75 853.125 606.75 C 846.75 606.75 846.25 602.75 846 600.875 C 845.625 597.625 845.625 590.75 845.75 585.75 L 846 568.125 L 857.25 568.625 L 858 567.875 L 859.25 554.5 L 858.5 553.75 L 846 553.75 L 846.375 532.75 L 845.5 532 C 837 534.5 834.75 535.125 825.875 537.375 L 825.375 538.25 L 825.5 553.875 L 818.75 553.625 L 818 554.25 L 816.875 567.625 L 817.625 568.375 L 825.5 568.125 L 825.125 588 C 825 591.125 824.875 594.25 824.875 597.5 C 824.875 609 825.125 621.375 844.625 621.375 C 849.5 621.375 853.375 620.625 857.75 619.875 L 858.625 619 L 859.875 606.125 Z M 923.625 601.5 C 918.875 604 913.25 606.875 904.125 606.875 C 896.625 606.875 891.5 604.5 888.5 600 C 886.625 597.375 886.25 594.875 885.75 592.375 L 926.125 591.625 L 926.875 590.75 C 926.75 584.625 926.625 578.375 924.875 572.125 C 920.5 557.375 910.875 554.375 906.625 553.375 C 903.5 552.5 900.625 552.25 897.75 552.25 C 878.125 552.25 865.125 565.125 865.125 586.75 C 865.125 592.625 866.125 598.75 868.125 603.125 C 875.375 620 892.375 621.5 901.375 621.5 C 911.75 621.5 916.25 619.625 922.875 617 L 923.625 616 L 924.5 601.875 L 923.625 601.5 M 885.75 579.125 C 886.125 575.25 887 570 891.75 567 C 893.25 566 895 565.625 896.75 565.625 C 900.875 565.625 903.375 567.75 904.75 570 C 906.5 572.75 906.625 575.75 906.625 578.625 Z M 930.875 620 "/>
<path fill-rule="nonzero" fill="rgb(34.901961%, 14.901961%, 14.901961%)" fill-opacity="1" d="M 196.8125 681.375 C 186.8125 681.75 185.1875 681.75 174.6875 681.75 L 174.0625 682.5 C 174.9375 696.625 174.9375 700.25 175.0625 715 C 169.5625 715.125 164.0625 715.25 158.4375 715.25 C 154.0625 715.25 149.5625 715.125 145.1875 715.125 L 145.4375 682.125 L 144.8125 681.375 C 135.1875 681.75 133.3125 681.75 122.4375 681.75 L 121.6875 682.5 C 122.3125 695.375 123.0625 710.75 123.0625 741.75 C 123.0625 753 122.8125 759.125 122.5625 769.625 L 123.1875 770.375 C 132.3125 770 134.5625 769.875 145.5625 770 L 146.1875 769.25 C 145.4375 753.75 145.3125 749.25 145.1875 731.125 C 150.6875 730.875 155.3125 730.75 160.1875 730.75 C 165.1875 730.75 170.1875 730.875 175.1875 731 C 175.4375 747.875 175.4375 752 174.8125 769.625 L 175.4375 770.375 C 184.8125 770 187.3125 769.875 197.9375 770 L 198.5625 769.25 C 197.5625 748.25 197.1875 727.375 197.1875 706.375 C 197.1875 697.625 197.3125 691.75 197.4375 682.125 Z M 235.6875 769.125 C 235.0625 759.5 234.5625 752.125 234.5625 734.875 C 234.5625 724.25 234.8125 713.5 234.9375 702.875 L 234.0625 701.875 L 212.5625 705.625 L 211.8125 706.375 C 212.8125 715.875 213.1875 720.25 213.1875 738 C 213.1875 751.625 212.8125 759.25 212.4375 769.5 L 213.1875 770.375 C 222.1875 770 224.6875 769.875 234.8125 770 L 235.6875 769.125 M 233.6875 689.875 L 234.0625 672.875 L 233.3125 672.125 L 212.9375 674.625 L 212.1875 675.5 C 212.4375 680 212.5625 682.625 212.5625 685.625 C 212.5625 688 212.5625 690.5 212.4375 692.875 L 213.3125 693.625 C 221.8125 692.125 224.1875 691.875 233.0625 690.75 Z M 275.8125 726.875 C 271.5625 725.375 268.1875 724 268.1875 720.5 C 268.1875 719 269.1875 714.875 276.9375 714.875 C 284.5625 714.875 289.4375 718.125 292.5625 720.125 L 293.6875 719.75 L 294.9375 706.125 L 294.3125 705.375 C 288.4375 703.75 283.3125 702.25 275.1875 702.25 C 269.0625 702.25 256.8125 702.75 250.3125 712.125 C 248.6875 714.375 246.9375 718.125 246.9375 723.125 C 246.9375 736.5 257.3125 740.5 263.1875 742.75 L 267.9375 744.5 C 271.3125 745.625 276.8125 747.5 276.8125 752 C 276.8125 755.125 273.9375 758.5 266.9375 758.5 C 263.4375 758.5 258.3125 757.375 253.6875 755 C 251.5625 753.875 250.5625 753 248.6875 751.5 L 247.5625 752 C 247.3125 758.5 247.1875 759.875 246.6875 766.125 L 247.3125 767.25 C 253.4375 769.5 258.6875 771.5 267.8125 771.5 C 277.3125 771.5 296.0625 769.75 298.3125 751.875 C 298.4375 750.875 298.4375 750 298.4375 749.125 C 298.4375 735.375 288.8125 731.75 281.9375 729.125 Z M 344.4375 755.625 C 342.3125 756.25 340.8125 756.75 338.6875 756.75 C 332.3125 756.75 331.8125 752.75 331.5625 750.875 C 331.1875 747.625 331.1875 740.75 331.3125 735.75 L 331.5625 718.125 L 342.8125 718.625 L 343.5625 717.875 L 344.8125 704.5 L 344.0625 703.75 L 331.5625 703.75 L 331.9375 682.75 L 331.0625 682 C 322.5625 684.5 320.3125 685.125 311.4375 687.375 L 310.9375 688.25 L 311.0625 703.875 L 304.3125 703.625 L 303.5625 704.25 L 302.4375 717.625 L 303.1875 718.375 L 311.0625 718.125 L 310.6875 738 C 310.5625 741.125 310.4375 744.25 310.4375 747.5 C 310.4375 759 310.6875 771.375 330.1875 771.375 C 335.0625 771.375 338.9375 770.625 343.3125 769.875 L 344.1875 769 L 345.4375 756.125 Z M 417.3125 736.75 C 417.3125 731.875 417.3125 711.625 399.8125 704.75 C 394.3125 702.625 387.8125 702.375 384.5625 702.375 C 362.8125 702.375 350.5625 714 350.5625 737 C 350.5625 745 351.8125 753.125 356.4375 759.875 C 359.6875 764.75 365.8125 771.5 383.6875 771.5 C 410.1875 771.5 417.3125 755.5 417.3125 736.75 M 395.6875 736.625 C 395.6875 746.875 394.3125 758.25 383.9375 758.25 C 380.6875 758.25 378.4375 756.75 376.9375 755.375 C 374.8125 753.25 372.4375 749 372.4375 736.875 C 372.4375 733.25 372.4375 725.25 374.9375 720.875 C 376.8125 717.5 380.0625 715.25 384.0625 715.25 C 387.5625 715.25 390.4375 717.125 392.0625 719.125 C 395.0625 722.75 395.6875 729.875 395.6875 736.625 Z M 465.3125 723.625 L 468.8125 703.25 L 468.0625 702.375 C 467.1875 702.375 466.3125 702.25 465.4375 702.25 C 460.3125 702.25 454.5625 705.125 450.5625 714.375 L 450.9375 702.875 L 449.9375 701.875 C 440.6875 703.875 438.3125 704.25 429.1875 705.625 L 428.4375 706.375 C 429.1875 715.75 429.5625 721.375 429.5625 738.75 C 429.5625 749 429.4375 759.25 429.1875 769.625 L 429.9375 770.375 C 439.1875 770 441.1875 769.875 451.1875 770 L 451.8125 769.125 C 451.3125 759 450.5625 744.875 450.5625 736.25 C 450.5625 730.625 450.5625 722.375 459.0625 722.375 C 461.1875 722.375 462.4375 723.125 464.1875 724.125 Z M 498.6875 769.125 C 498.0625 759.5 497.5625 752.125 497.5625 734.875 C 497.5625 724.25 497.8125 713.5 497.9375 702.875 L 497.0625 701.875 L 475.5625 705.625 L 474.8125 706.375 C 475.8125 715.875 476.1875 720.25 476.1875 738 C 476.1875 751.625 475.8125 759.25 475.4375 769.5 L 476.1875 770.375 C 485.1875 770 487.6875 769.875 497.8125 770 L 498.6875 769.125 M 496.6875 689.875 L 497.0625 672.875 L 496.3125 672.125 L 475.9375 674.625 L 475.1875 675.5 C 475.4375 680 475.5625 682.625 475.5625 685.625 C 475.5625 688 475.5625 690.5 475.4375 692.875 L 476.3125 693.625 C 484.8125 692.125 487.1875 691.875 496.0625 690.75 Z M 561.4375 752 C 558.0625 754 554.8125 756 548.4375 756 C 534.3125 756 531.4375 744.25 531.4375 736.75 C 531.4375 727.625 535.4375 717.125 547.5625 717.125 C 553.0625 717.125 556.0625 719.125 559.8125 721.625 L 561.0625 721.25 C 561.5625 714.625 561.6875 712.875 562.6875 706.25 L 562.0625 705.5 C 556.5625 703.75 551.8125 702.25 544.5625 702.25 C 515.1875 702.25 509.4375 724.5 509.4375 737.25 C 509.4375 751.625 516.9375 771.125 545.0625 771.125 C 551.6875 771.125 555.9375 769.875 561.1875 768.375 L 561.9375 767.625 L 562.4375 752.625 Z M 625.6875 681.5 L 609.8125 681.75 L 609.0625 682.5 C 609.5625 698.75 609.9375 709.625 609.9375 724 C 609.9375 739.25 609.5625 754.375 609.1875 769.625 L 609.9375 770.375 C 619.1875 770 621.1875 769.875 631.1875 770 L 631.8125 769.25 C 631.3125 755.625 631.3125 752.5 631.3125 739.75 C 645.3125 739.875 660.3125 739.875 669.3125 728.875 C 672.8125 724.625 675.8125 717.5 675.8125 708.75 C 675.8125 703.375 674.5625 691.5 664.1875 685.625 C 656.6875 681.25 646.0625 681.25 636.6875 681.25 L 625.6875 681.5 M 631.3125 696.625 C 634.0625 696.5 636.6875 696.5 639.4375 696.5 C 650.4375 696.75 653.4375 702.375 653.4375 709.625 C 653.4375 711.375 653.4375 718.625 646.8125 722.25 C 643.4375 724.125 638.8125 724.375 631.3125 724.375 Z M 740.0625 732.75 C 740.1875 721.5 740.1875 716.625 736.9375 711.375 C 734.4375 707.375 729.4375 702.375 713.4375 702.375 C 702.6875 702.375 696.0625 704.375 688.9375 706.5 L 688.1875 707.5 L 687.5625 721.125 L 688.5625 721.625 C 692.9375 719.875 701.0625 716.625 709.4375 716.625 C 714.0625 716.625 715.9375 717.375 717.5625 719 C 718.8125 720.25 719.1875 722.5 719.1875 724.375 C 704.1875 726.375 697.1875 727.75 689.6875 732.375 C 682.6875 736.75 680.3125 743.875 680.3125 749.5 C 680.3125 762.875 689.9375 771.5 702.1875 771.5 C 711.5625 771.5 716.9375 767 719.5625 764.875 L 719.5625 769.5 L 720.3125 770.375 C 729.3125 770 732.0625 769.875 740.1875 770 L 740.8125 769.125 C 739.9375 756.875 739.9375 753.75 739.9375 742 L 740.0625 732.75 M 719.4375 752.625 C 716.8125 754.125 713.4375 755.875 709.3125 755.875 C 704.8125 755.875 701.0625 753.5 701.0625 748.25 C 701.0625 740 710.9375 738.625 719.4375 737.5 Z M 790.8125 723.625 L 794.3125 703.25 L 793.5625 702.375 C 792.6875 702.375 791.8125 702.25 790.9375 702.25 C 785.8125 702.25 780.0625 705.125 776.0625 714.375 L 776.4375 702.875 L 775.4375 701.875 C 766.1875 703.875 763.8125 704.25 754.6875 705.625 L 753.9375 706.375 C 754.6875 715.75 755.0625 721.375 755.0625 738.75 C 755.0625 749 754.9375 759.25 754.6875 769.625 L 755.4375 770.375 C 764.6875 770 766.6875 769.875 776.6875 770 L 777.3125 769.125 C 776.8125 759 776.0625 744.875 776.0625 736.25 C 776.0625 730.625 776.0625 722.375 784.5625 722.375 C 786.6875 722.375 787.9375 723.125 789.6875 724.125 Z M 865.8125 768.375 C 854.0625 748.5 852.8125 746.25 843.3125 729.125 C 851.9375 717.375 852.8125 716.125 861.6875 704.75 L 861.0625 703.5 L 840.6875 703.75 L 839.4375 704.625 C 829.6875 721.5 828.4375 723.5 822.6875 732.125 L 822.6875 718.25 C 822.8125 694.875 822.9375 689.875 823.5625 671 L 822.5625 670.25 L 800.8125 673.5 L 800.0625 674.375 C 800.9375 686.5 801.3125 692.375 801.5625 708.75 C 801.8125 729 801.8125 749.25 801.6875 769.5 L 802.5625 770.375 C 810.9375 770 813.3125 770 822.8125 770 L 823.5625 769.125 L 822.8125 748 L 822.6875 733.625 C 833.5625 753.625 834.9375 756.375 841.3125 769.625 L 842.4375 770.375 L 864.9375 769.5 Z M 864.3125 770 "/>
</svg>
