<?xml version="1.0" encoding="UTF-8"?>
<svg xmlns="http://www.w3.org/2000/svg" xmlns:xlink="http://www.w3.org/1999/xlink" width="975" height="1300" viewBox="0 0 975 1300">
<path fill-rule="nonzero" fill="rgb(34.901961%, 14.901961%, 14.901961%)" fill-opacity="1" d="M 250.8125 566.25 C 240.3125 561.875 234.8125 559.625 234.8125 554 C 234.8125 550.125 238.4375 545.25 246.6875 545.25 C 256.1875 545.25 261.8125 549.125 266.4375 552.25 L 267.5625 551.75 L 268.5625 535.375 L 267.9375 534.5 C 262.5625 532.25 256.9375 529.875 244.8125 529.875 C 221.3125 529.875 213.1875 543.125 213.1875 556.5 C 213.1875 571.625 224.9375 577.125 231.9375 580.5 L 236.0625 582.375 C 244.6875 586 251.3125 589.125 251.3125 595.75 C 251.3125 600.5 247.1875 606.125 236.3125 606.125 C 224.9375 606.125 218.5625 601.125 214.9375 598.25 L 213.6875 598.625 L 212.8125 616.25 L 213.5625 617.25 C 214.9375 617.75 216.3125 618.375 217.6875 618.75 C 220.5625 619.75 227.9375 621.875 237.3125 621.875 C 241.0625 621.875 250.5625 621.5 258.0625 618 C 268.5625 612.875 273.0625 603.375 273.0625 592.75 C 273.0625 585.625 270.3125 578 263.6875 572.875 C 260.3125 570.375 257.0625 568.875 254.0625 567.5 Z M 340.5625 582.75 C 340.6875 571.5 340.6875 566.625 337.4375 561.375 C 334.9375 557.375 329.9375 552.375 313.9375 552.375 C 303.1875 552.375 296.5625 554.375 289.4375 556.5 L 288.6875 557.5 L 288.0625 571.125 L 289.0625 571.625 C 293.4375 569.875 301.5625 566.625 309.9375 566.625 C 314.5625 566.625 316.4375 567.375 318.0625 569 C 319.3125 570.25 319.6875 572.5 319.6875 574.375 C 304.6875 576.375 297.6875 577.75 290.1875 582.375 C 283.1875 586.75 280.8125 593.875 280.8125 599.5 C 280.8125 612.875 290.4375 621.5 302.6875 621.5 C 312.0625 621.5 317.4375 617 320.0625 614.875 L 320.0625 619.5 L 320.8125 620.375 C 329.8125 620 332.5625 619.875 340.6875 620 L 341.3125 619.125 C 340.4375 606.875 340.4375 603.75 340.4375 592 L 340.5625 582.75 M 319.9375 602.625 C 317.3125 604.125 313.9375 605.875 309.8125 605.875 C 305.3125 605.875 301.5625 603.5 301.5625 598.25 C 301.5625 590 311.4375 588.625 319.9375 587.5 Z M 377.1875 619.125 C 376.5625 604.75 375.9375 591.625 375.9375 552.125 C 375.9375 540.25 376.0625 534.625 376.5625 521.125 L 375.6875 520.25 L 354.3125 523.625 L 353.8125 524.375 C 355.0625 539.625 355.1875 543.75 355.4375 564 C 355.5625 571.375 355.5625 578.75 355.5625 586.125 C 355.5625 599.625 355.3125 607.125 354.8125 619.5 L 355.5625 620.375 C 363.9375 620 367.3125 619.875 376.4375 620 Z M 426.6875 605.625 C 424.5625 606.25 423.0625 606.75 420.9375 606.75 C 414.5625 606.75 414.0625 602.75 413.8125 600.875 C 413.4375 597.625 413.4375 590.75 413.5625 585.75 L 413.8125 568.125 L 425.0625 568.625 L 425.8125 567.875 L 427.0625 554.5 L 426.3125 553.75 L 413.8125 553.75 L 414.1875 532.75 L 413.3125 532 C 404.8125 534.5 402.5625 535.125 393.6875 537.375 L 393.1875 538.25 L 393.3125 553.875 L 386.5625 553.625 L 385.8125 554.25 L 384.6875 567.625 L 385.4375 568.375 L 393.3125 568.125 L 392.9375 588 C 392.8125 591.125 392.6875 594.25 392.6875 597.5 C 392.6875 609 392.9375 621.375 412.4375 621.375 C 417.3125 621.375 421.1875 620.625 425.5625 619.875 L 426.4375 619 L 427.6875 606.125 Z M 489.1875 531.5 L 473.3125 531.75 L 472.5625 532.5 C 473.0625 548.75 473.4375 559.625 473.4375 574 C 473.4375 589.25 473.0625 604.375 472.6875 619.625 L 473.4375 620.375 C 482.6875 620 484.6875 619.875 494.6875 620 L 495.3125 619.25 C 494.8125 605.625 494.8125 602.5 494.8125 589.75 C 508.8125 589.875 523.8125 589.875 532.8125 578.875 C 536.3125 574.625 539.3125 567.5 539.3125 558.75 C 539.3125 553.375 538.0625 541.5 527.6875 535.625 C 520.1875 531.25 509.5625 531.25 500.1875 531.25 L 489.1875 531.5 M 494.8125 546.625 C 497.5625 546.5 500.1875 546.5 502.9375 546.5 C 513.9375 546.75 516.9375 552.375 516.9375 559.625 C 516.9375 561.375 516.9375 568.625 510.3125 572.25 C 506.9375 574.125 502.3125 574.375 494.8125 574.375 Z M 611.5625 586.75 C 611.5625 581.875 611.5625 561.625 594.0625 554.75 C 588.5625 552.625 582.0625 552.375 578.8125 552.375 C 557.0625 552.375 544.8125 564 544.8125 587 C 544.8125 595 546.0625 603.125 550.6875 609.875 C 553.9375 614.75 560.0625 621.5 577.9375 621.5 C 604.4375 621.5 611.5625 605.5 611.5625 586.75 M 589.9375 586.625 C 589.9375 596.875 588.5625 608.25 578.1875 608.25 C 574.9375 608.25 572.6875 606.75 571.1875 605.375 C 569.0625 603.25 566.6875 599 566.6875 586.875 C 566.6875 583.25 566.6875 575.25 569.1875 570.875 C 571.0625 567.5 574.3125 565.25 578.3125 565.25 C 581.8125 565.25 584.6875 567.125 586.3125 569.125 C 589.3125 572.75 589.9375 579.875 589.9375 586.625 Z M 646.0625 619.125 C 645.4375 609.5 644.9375 602.125 644.9375 584.875 C 644.9375 574.25 645.1875 563.5 645.3125 552.875 L 644.4375 551.875 L 622.9375 555.625 L 622.1875 556.375 C 623.1875 565.875 623.5625 570.25 623.5625 588 C 623.5625 601.625 623.1875 609.25 622.8125 619.5 L 623.5625 620.375 C 632.5625 620 635.0625 619.875 645.1875 620 L 646.0625 619.125 M 644.0625 539.875 L 644.4375 522.875 L 643.6875 522.125 L 623.3125 524.625 L 622.5625 525.5 C 622.8125 530 622.9375 532.625 622.9375 535.625 C 622.9375 538 622.9375 540.5 622.8125 542.875 L 623.6875 543.625 C 632.1875 542.125 634.5625 541.875 643.4375 540.75 Z M 721.1875 619.125 C 720.5625 608.125 720.5625 604.625 720.3125 592.375 L 720.3125 582.625 C 720.1875 570.625 720.0625 564.875 716.9375 559.75 C 713.0625 553.25 705.9375 552.25 701.4375 552.25 C 693.8125 552.25 687.1875 556.25 681.4375 559.625 L 681.6875 552.75 L 680.4375 551.875 C 670.8125 553.875 668.6875 554.25 659.3125 555.5 L 658.5625 556.375 C 659.5625 567.25 660.3125 575.125 660.3125 595.5 C 660.3125 603.5 660.1875 611.5 660.0625 619.5 L 660.8125 620.25 C 669.8125 619.875 671.6875 619.875 681.6875 619.875 L 682.4375 619.125 C 681.6875 599.875 681.5625 595 681.4375 572.625 C 684.0625 570.875 687.0625 568.75 691.0625 568.75 C 697.9375 568.75 698.5625 576.125 698.9375 580.625 C 699.1875 584.75 699.3125 601.875 699.3125 606.625 C 699.3125 610.875 699.1875 615.25 699.1875 619.5 L 699.9375 620.25 C 708.1875 620 710.3125 619.875 720.3125 619.875 Z M 770.4375 605.625 C 768.3125 606.25 766.8125 606.75 764.6875 606.75 C 758.3125 606.75 757.8125 602.75 757.5625 600.875 C 757.1875 597.625 757.1875 590.75 757.3125 585.75 L 757.5625 568.125 L 768.8125 568.625 L 769.5625 567.875 L 770.8125 554.5 L 770.0625 553.75 L 757.5625 553.75 L 757.9375 532.75 L 757.0625 532 C 748.5625 534.5 746.3125 535.125 737.4375 537.375 L 736.9375 538.25 L 737.0625 553.875 L 730.3125 553.625 L 729.5625 554.25 L 728.4375 567.625 L 729.1875 568.375 L 737.0625 568.125 L 736.6875 588 C 736.5625 591.125 736.4375 594.25 736.4375 597.5 C 736.4375 609 736.6875 621.375 756.1875 621.375 C 761.0625 621.375 764.9375 620.625 769.3125 619.875 L 770.1875 619 L 771.4375 606.125 Z M 772.1875 620 "/>
<path fill-rule="nonzero" fill="rgb(34.901961%, 14.901961%, 14.901961%)" fill-opacity="1" d="M 232.875 716.25 C 222.375 711.875 216.875 709.625 216.875 704 C 216.875 700.125 220.5 695.25 228.75 695.25 C 238.25 695.25 243.875 699.125 248.5 702.25 L 249.625 701.75 L 250.625 685.375 L 250 684.5 C 244.625 682.25 239 679.875 226.875 679.875 C 203.375 679.875 195.25 693.125 195.25 706.5 C 195.25 721.625 207 727.125 214 730.5 L 218.125 732.375 C 226.75 736 233.375 739.125 233.375 745.75 C 233.375 750.5 229.25 756.125 218.375 756.125 C 207 756.125 200.625 751.125 197 748.25 L 195.75 748.625 L 194.875 766.25 L 195.625 767.25 C 197 767.75 198.375 768.375 199.75 768.75 C 202.625 769.75 210 771.875 219.375 771.875 C 223.125 771.875 232.625 771.5 240.125 768 C 250.625 762.875 255.125 753.375 255.125 742.75 C 255.125 735.625 252.375 728 245.75 722.875 C 242.375 720.375 239.125 718.875 236.125 717.5 Z M 302 755.625 C 299.875 756.25 298.375 756.75 296.25 756.75 C 289.875 756.75 289.375 752.75 289.125 750.875 C 288.75 747.625 288.75 740.75 288.875 735.75 L 289.125 718.125 L 300.375 718.625 L 301.125 717.875 L 302.375 704.5 L 301.625 703.75 L 289.125 703.75 L 289.5 682.75 L 288.625 682 C 280.125 684.5 277.875 685.125 269 687.375 L 268.5 688.25 L 268.625 703.875 L 261.875 703.625 L 261.125 704.25 L 260 717.625 L 260.75 718.375 L 268.625 718.125 L 268.25 738 C 268.125 741.125 268 744.25 268 747.5 C 268 759 268.25 771.375 287.75 771.375 C 292.625 771.375 296.5 770.625 300.875 769.875 L 301.75 769 L 303 756.125 Z M 366.875 732.75 C 367 721.5 367 716.625 363.75 711.375 C 361.25 707.375 356.25 702.375 340.25 702.375 C 329.5 702.375 322.875 704.375 315.75 706.5 L 315 707.5 L 314.375 721.125 L 315.375 721.625 C 319.75 719.875 327.875 716.625 336.25 716.625 C 340.875 716.625 342.75 717.375 344.375 719 C 345.625 720.25 346 722.5 346 724.375 C 331 726.375 324 727.75 316.5 732.375 C 309.5 736.75 307.125 743.875 307.125 749.5 C 307.125 762.875 316.75 771.5 329 771.5 C 338.375 771.5 343.75 767 346.375 764.875 L 346.375 769.5 L 347.125 770.375 C 356.125 770 358.875 769.875 367 770 L 367.625 769.125 C 366.75 756.875 366.75 753.75 366.75 742 L 366.875 732.75 M 346.25 752.625 C 343.625 754.125 340.25 755.875 336.125 755.875 C 331.625 755.875 327.875 753.5 327.875 748.25 C 327.875 740 337.75 738.625 346.25 737.5 Z M 416.5 755.625 C 414.375 756.25 412.875 756.75 410.75 756.75 C 404.375 756.75 403.875 752.75 403.625 750.875 C 403.25 747.625 403.25 740.75 403.375 735.75 L 403.625 718.125 L 414.875 718.625 L 415.625 717.875 L 416.875 704.5 L 416.125 703.75 L 403.625 703.75 L 404 682.75 L 403.125 682 C 394.625 684.5 392.375 685.125 383.5 687.375 L 383 688.25 L 383.125 703.875 L 376.375 703.625 L 375.625 704.25 L 374.5 717.625 L 375.25 718.375 L 383.125 718.125 L 382.75 738 C 382.625 741.125 382.5 744.25 382.5 747.5 C 382.5 759 382.75 771.375 402.25 771.375 C 407.125 771.375 411 770.625 415.375 769.875 L 416.25 769 L 417.5 756.125 Z M 481.25 751.5 C 476.5 754 470.875 756.875 461.75 756.875 C 454.25 756.875 449.125 754.5 446.125 750 C 444.25 747.375 443.875 744.875 443.375 742.375 L 483.75 741.625 L 484.5 740.75 C 484.375 734.625 484.25 728.375 482.5 722.125 C 478.125 707.375 468.5 704.375 464.25 703.375 C 461.125 702.5 458.25 702.25 455.375 702.25 C 435.75 702.25 422.75 715.125 422.75 736.75 C 422.75 742.625 423.75 748.75 425.75 753.125 C 433 770 450 771.5 459 771.5 C 469.375 771.5 473.875 769.625 480.5 767 L 481.25 766 L 482.125 751.875 L 481.25 751.5 M 443.375 729.125 C 443.75 725.25 444.625 720 449.375 717 C 450.875 716 452.625 715.625 454.375 715.625 C 458.5 715.625 461 717.75 462.375 720 C 464.125 722.75 464.25 725.75 464.25 728.625 Z M 549.25 681.5 L 533.375 681.75 L 532.625 682.5 C 533.125 698.75 533.5 709.625 533.5 724 C 533.5 739.25 533.125 754.375 532.75 769.625 L 533.5 770.375 C 542.75 770 544.75 769.875 554.75 770 L 555.375 769.25 C 554.875 755.625 554.875 752.5 554.875 739.75 C 568.875 739.875 583.875 739.875 592.875 728.875 C 596.375 724.625 599.375 717.5 599.375 708.75 C 599.375 703.375 598.125 691.5 587.75 685.625 C 580.25 681.25 569.625 681.25 560.25 681.25 L 549.25 681.5 M 554.875 696.625 C 557.625 696.5 560.25 696.5 563 696.5 C 574 696.75 577 702.375 577 709.625 C 577 711.375 577 718.625 570.375 722.25 C 567 724.125 562.375 724.375 554.875 724.375 Z M 663.625 732.75 C 663.75 721.5 663.75 716.625 660.5 711.375 C 658 707.375 653 702.375 637 702.375 C 626.25 702.375 619.625 704.375 612.5 706.5 L 611.75 707.5 L 611.125 721.125 L 612.125 721.625 C 616.5 719.875 624.625 716.625 633 716.625 C 637.625 716.625 639.5 717.375 641.125 719 C 642.375 720.25 642.75 722.5 642.75 724.375 C 627.75 726.375 620.75 727.75 613.25 732.375 C 606.25 736.75 603.875 743.875 603.875 749.5 C 603.875 762.875 613.5 771.5 625.75 771.5 C 635.125 771.5 640.5 767 643.125 764.875 L 643.125 769.5 L 643.875 770.375 C 652.875 770 655.625 769.875 663.75 770 L 664.375 769.125 C 663.5 756.875 663.5 753.75 663.5 742 L 663.625 732.75 M 643 752.625 C 640.375 754.125 637 755.875 632.875 755.875 C 628.375 755.875 624.625 753.5 624.625 748.25 C 624.625 740 634.5 738.625 643 737.5 Z M 714.375 723.625 L 717.875 703.25 L 717.125 702.375 C 716.25 702.375 715.375 702.25 714.5 702.25 C 709.375 702.25 703.625 705.125 699.625 714.375 L 700 702.875 L 699 701.875 C 689.75 703.875 687.375 704.25 678.25 705.625 L 677.5 706.375 C 678.25 715.75 678.625 721.375 678.625 738.75 C 678.625 749 678.5 759.25 678.25 769.625 L 679 770.375 C 688.25 770 690.25 769.875 700.25 770 L 700.875 769.125 C 700.375 759 699.625 744.875 699.625 736.25 C 699.625 730.625 699.625 722.375 708.125 722.375 C 710.25 722.375 711.5 723.125 713.25 724.125 Z M 789.375 768.375 C 777.625 748.5 776.375 746.25 766.875 729.125 C 775.5 717.375 776.375 716.125 785.25 704.75 L 784.625 703.5 L 764.25 703.75 L 763 704.625 C 753.25 721.5 752 723.5 746.25 732.125 L 746.25 718.25 C 746.375 694.875 746.5 689.875 747.125 671 L 746.125 670.25 L 724.375 673.5 L 723.625 674.375 C 724.5 686.5 724.875 692.375 725.125 708.75 C 725.375 729 725.375 749.25 725.25 769.5 L 726.125 770.375 C 734.5 770 736.875 770 746.375 770 L 747.125 769.125 L 746.375 748 L 746.25 733.625 C 757.125 753.625 758.5 756.375 764.875 769.625 L 766 770.375 L 788.5 769.5 Z M 787.875 770 "/>
</svg>
