<?xml version="1.0" encoding="UTF-8"?>
<svg xmlns="http://www.w3.org/2000/svg" xmlns:xlink="http://www.w3.org/1999/xlink" width="975" height="1300" viewBox="0 0 975 1300">
<path fill-rule="nonzero" fill="rgb(34.901961%, 14.901961%, 14.901961%)" fill-opacity="1" d="M 252.25 456.375 C 240.25 456.75 237.75 456.75 224.375 456.75 L 223.5 457.5 C 216.875 478.75 212.875 491.375 194.5 544.125 L 195 545 L 214.5 545 L 215.375 544.25 L 221.5 521.5 L 248.5 521.5 L 253.875 544.625 L 254.75 545.375 C 263.875 545 266.375 544.875 276.5 545 L 277.125 544 C 262 490.5 260.25 484.625 253.125 457.125 L 252.25 456.375 M 225.875 506.375 L 232.125 485.25 L 236.5 470.625 L 240.25 486.875 L 244.875 506.375 Z M 346.375 544.125 C 345.875 533.875 345.75 530.375 345.5 517.375 L 345.5 508 C 345.375 496.125 345.25 489.25 341.625 484 C 338 478.875 332.75 477.25 327.25 477.25 C 318.125 477.25 311 481.625 306 484.625 L 306.375 446.125 L 305.625 445.25 L 284.25 448.625 L 283.625 449.375 C 284.75 461.5 285 466 285.25 482.125 C 285.5 492.25 285.625 502.375 285.625 512.5 C 285.625 524.875 285.375 532.25 285.125 544.5 L 285.75 545.375 C 295 544.875 296.875 544.875 307 544.875 L 307.75 544.125 C 306.875 525.375 306.75 519.75 306.625 497.625 C 309 496 312 493.875 316.25 493.875 C 323.125 493.875 323.625 501 324.125 506 C 324.375 509.875 324.5 527.625 324.5 532.25 C 324.5 536.375 324.375 540.375 324.375 544.5 L 325 545.375 C 334 544.875 336 544.875 345.625 544.875 Z M 381.25 476.875 C 372 478.75 370.125 479.125 360 480.625 L 359.25 481.375 C 360.25 494.375 360.75 510.5 360.875 521.25 C 361 525.5 361.25 540.25 361.25 543.875 C 361.25 553.875 360 559.75 349.75 561.875 L 349.125 562.875 L 352.375 575.875 L 353.25 576.375 C 358 575.375 370 572.875 377.375 563.25 C 382.5 556.375 382.625 549.25 382.375 539.375 L 382.25 530.625 C 382 522.5 381.875 514.375 381.875 506.25 C 381.875 496.875 382.125 487.625 382.25 478 L 381.25 476.875 M 381.75 465.25 L 381.75 448.125 L 381 447.25 L 360.75 449.75 L 359.875 450.625 L 360.25 467.75 L 361.125 468.375 C 370.375 467.125 373.125 466.75 381 465.875 Z M 457.125 478.125 L 436.75 479.125 L 435.875 479.875 C 436.75 494 436.75 514 436.75 516 C 436.75 519.625 436.75 521.625 436.625 526.625 C 433.25 528.875 430.625 530.75 427.25 530.75 C 418.25 530.75 418.25 521.25 418.25 513.875 C 418.25 510.75 418.25 507.5 418.375 504.375 L 418.625 479.125 L 417.75 478.125 L 397.125 479.125 L 396.25 479.875 C 397 490.375 397.125 493.875 397.125 506.5 L 397.125 515.25 C 397 528.875 397.625 534.625 402.125 539.875 C 406.25 544.5 412.25 546.5 418.5 546.5 C 427.375 546.5 432.5 542.5 437 539 L 436.875 544.625 L 437.75 545.375 C 446.875 545 449.625 545 457.75 545 L 458.5 544.25 C 457.875 535.375 457.625 530.625 457.625 514.375 C 457.625 502.625 457.75 490.875 458 479.125 Z M 570.25 544.125 C 569.625 532.5 569.5 529.25 569.5 515.125 L 569.5 505.75 C 569.625 497.375 569.75 489.625 566.125 484.375 C 561.25 477.25 552.625 477.25 550.625 477.25 C 540.375 477.25 533.5 481.875 528.5 485.375 C 526.75 482.5 523.625 477.25 513.625 477.25 C 505.375 477.25 500 481 494.25 485 L 494.25 478 L 493.125 476.875 C 483.375 478.75 480.625 479.25 471.875 480.5 L 471.125 481.375 C 472.125 491.375 472.875 498.25 472.875 523 C 472.875 530.125 472.75 537.375 472.75 544.5 L 473.375 545.25 C 481.375 545 484.125 544.875 494.5 544.875 L 495.25 544.125 C 494.375 524.875 494.25 519.125 494.125 497.375 C 496.75 495.5 499.625 493.875 502.75 493.875 C 510.5 493.875 510.75 502.75 510.75 513.5 C 510.75 531.625 510.625 534.375 510.375 544.5 L 511.125 545.375 C 520.625 544.875 523.25 544.875 531.875 544.875 L 532.625 544.125 C 531.875 532.25 531.75 528.75 531.625 513.625 L 531.625 509 L 531.5 496.375 C 533.625 495 536.375 493.25 540.125 493.25 C 547.25 493.25 548.375 500 548.375 510.75 C 548.375 513.125 548.25 515.5 548.25 517.875 C 548.125 522.125 548 540.75 547.875 544.5 L 548.625 545.25 C 558 544.875 560.75 544.875 569.5 544.875 Z M 640.25 507.75 C 640.375 496.5 640.375 491.625 637.125 486.375 C 634.625 482.375 629.625 477.375 613.625 477.375 C 602.875 477.375 596.25 479.375 589.125 481.5 L 588.375 482.5 L 587.75 496.125 L 588.75 496.625 C 593.125 494.875 601.25 491.625 609.625 491.625 C 614.25 491.625 616.125 492.375 617.75 494 C 619 495.25 619.375 497.5 619.375 499.375 C 604.375 501.375 597.375 502.75 589.875 507.375 C 582.875 511.75 580.5 518.875 580.5 524.5 C 580.5 537.875 590.125 546.5 602.375 546.5 C 611.75 546.5 617.125 542 619.75 539.875 L 619.75 544.5 L 620.5 545.375 C 629.5 545 632.25 544.875 640.375 545 L 641 544.125 C 640.125 531.875 640.125 528.75 640.125 517 L 640.25 507.75 M 619.625 527.625 C 617 529.125 613.625 530.875 609.5 530.875 C 605 530.875 601.25 528.5 601.25 523.25 C 601.25 515 611.125 513.625 619.625 512.5 Z M 732.125 544.125 C 737.125 524.75 738 521.75 745.5 494.875 C 747 489.75 748.375 484.5 749.75 479.375 L 749 478.375 L 732.75 478.75 L 731.875 479.625 L 728.25 498.375 L 724.75 513.5 L 722.375 525 L 720.25 513.875 L 717.5 500.875 L 713.125 479.25 L 712.375 478.375 L 688.375 478.75 L 687.5 479.625 L 683.375 500.125 L 680.375 513.875 L 678 525.375 L 675.625 513 L 672.625 499.5 L 668.375 478.75 L 667.625 478.125 L 647.375 479.625 L 646.625 480.625 C 658.375 521.875 660.25 529.25 663.75 544.625 L 664.625 545.375 C 673.25 545 676.375 544.875 687.875 545 L 688.625 544.125 L 691.875 528.875 L 695.375 513.75 L 698.5 498.625 L 700.375 508.125 L 702.25 517.375 L 707.5 544.5 L 708.375 545.375 C 717.625 545 721.375 544.875 731.375 545 Z M 779 544.125 C 778.375 534.5 777.875 527.125 777.875 509.875 C 777.875 499.25 778.125 488.5 778.25 477.875 L 777.375 476.875 L 755.875 480.625 L 755.125 481.375 C 756.125 490.875 756.5 495.25 756.5 513 C 756.5 526.625 756.125 534.25 755.75 544.5 L 756.5 545.375 C 765.5 545 768 544.875 778.125 545 L 779 544.125 M 777 464.875 L 777.375 447.875 L 776.625 447.125 L 756.25 449.625 L 755.5 450.5 C 755.75 455 755.875 457.625 755.875 460.625 C 755.875 463 755.875 465.5 755.75 467.875 L 756.625 468.625 C 765.125 467.125 767.5 466.875 776.375 465.75 Z M 785.375 545 "/>
<path fill-rule="nonzero" fill="rgb(34.901961%, 14.901961%, 14.901961%)" fill-opacity="1" d="M 184.875 677.875 C 171.25 678.625 160.375 678.875 156.625 678.875 L 154.125 678.875 C 153.875 645.5 154 637 155 607.125 L 154.25 606.375 C 143.5 606.875 140.625 606.875 132 606.75 L 131.25 607.5 C 131.75 617.5 131.875 620.5 131.875 635.375 C 131.875 655.125 131.75 674.875 131.75 694.625 L 132.375 695.375 C 156.875 695 161.375 695 183.875 695 L 184.5 694.25 L 185.5 678.5 Z M 251.875 657.75 C 252 646.5 252 641.625 248.75 636.375 C 246.25 632.375 241.25 627.375 225.25 627.375 C 214.5 627.375 207.875 629.375 200.75 631.5 L 200 632.5 L 199.375 646.125 L 200.375 646.625 C 204.75 644.875 212.875 641.625 221.25 641.625 C 225.875 641.625 227.75 642.375 229.375 644 C 230.625 645.25 231 647.5 231 649.375 C 216 651.375 209 652.75 201.5 657.375 C 194.5 661.75 192.125 668.875 192.125 674.5 C 192.125 687.875 201.75 696.5 214 696.5 C 223.375 696.5 228.75 692 231.375 689.875 L 231.375 694.5 L 232.125 695.375 C 241.125 695 243.875 694.875 252 695 L 252.625 694.125 C 251.75 681.875 251.75 678.75 251.75 667 L 251.875 657.75 M 231.25 677.625 C 228.625 679.125 225.25 680.875 221.125 680.875 C 216.625 680.875 212.875 678.5 212.875 673.25 C 212.875 665 222.75 663.625 231.25 662.5 Z M 301 694 C 305 681.5 307.375 673.75 310 665.875 C 313.375 655.75 318.875 639.5 322.375 629.25 L 321.75 628.375 L 304.25 628.75 L 303.375 629.625 C 301.625 638 301.25 639.75 298.75 649.5 L 292.375 674.125 L 289.25 660.625 L 286.875 651 C 283.75 639.375 283.25 637 281.5 628.75 L 280.625 628 C 270.75 629.125 268.25 629.25 258.75 629.375 L 258.25 630.375 C 274.875 679.625 276.25 684.25 279 694.5 L 279.875 695.375 C 288 695 291.25 694.875 300.25 695 Z M 384.625 657.75 C 384.75 646.5 384.75 641.625 381.5 636.375 C 379 632.375 374 627.375 358 627.375 C 347.25 627.375 340.625 629.375 333.5 631.5 L 332.75 632.5 L 332.125 646.125 L 333.125 646.625 C 337.5 644.875 345.625 641.625 354 641.625 C 358.625 641.625 360.5 642.375 362.125 644 C 363.375 645.25 363.75 647.5 363.75 649.375 C 348.75 651.375 341.75 652.75 334.25 657.375 C 327.25 661.75 324.875 668.875 324.875 674.5 C 324.875 687.875 334.5 696.5 346.75 696.5 C 356.125 696.5 361.5 692 364.125 689.875 L 364.125 694.5 L 364.875 695.375 C 373.875 695 376.625 694.875 384.75 695 L 385.375 694.125 C 384.5 681.875 384.5 678.75 384.5 667 L 384.625 657.75 M 364 677.625 C 361.375 679.125 358 680.875 353.875 680.875 C 349.375 680.875 345.625 678.5 345.625 673.25 C 345.625 665 355.5 663.625 364 662.5 Z M 471.875 641.25 C 461.375 636.875 455.875 634.625 455.875 629 C 455.875 625.125 459.5 620.25 467.75 620.25 C 477.25 620.25 482.875 624.125 487.5 627.25 L 488.625 626.75 L 489.625 610.375 L 489 609.5 C 483.625 607.25 478 604.875 465.875 604.875 C 442.375 604.875 434.25 618.125 434.25 631.5 C 434.25 646.625 446 652.125 453 655.5 L 457.125 657.375 C 465.75 661 472.375 664.125 472.375 670.75 C 472.375 675.5 468.25 681.125 457.375 681.125 C 446 681.125 439.625 676.125 436 673.25 L 434.75 673.625 L 433.875 691.25 L 434.625 692.25 C 436 692.75 437.375 693.375 438.75 693.75 C 441.625 694.75 449 696.875 458.375 696.875 C 462.125 696.875 471.625 696.5 479.125 693 C 489.625 687.875 494.125 678.375 494.125 667.75 C 494.125 660.625 491.375 653 484.75 647.875 C 481.375 645.375 478.125 643.875 475.125 642.5 Z M 526.75 628.125 L 525.75 627 C 516.625 629 514 629.5 505 630.625 L 504.25 631.5 C 505.625 646.375 506.125 652.125 506.125 688.125 C 506.125 703 505.875 711.5 505.5 725.625 L 506.25 726.25 C 515.125 725.875 517.75 725.75 527.25 725.875 L 528 725.25 L 527.125 695.5 C 536.25 695.375 548.875 695.25 559 685.75 C 567 678.25 569.625 667.625 569.625 659.125 C 569.625 639.25 557.5 627.25 543.5 627.25 C 534.875 627.25 530 630.75 526.5 633.125 L 526.75 628.125 M 527 645.125 C 529.75 643.5 531.375 642.625 534.5 642.625 C 536.375 642.625 540.125 642.875 543.25 646.375 C 547.125 650.625 547.75 657 547.75 661.25 C 547.75 668.5 545.375 675 540.375 678.5 C 536.375 681.25 531.375 681.5 527 681.625 Z M 617.625 648.625 L 621.125 628.25 L 620.375 627.375 C 619.5 627.375 618.625 627.25 617.75 627.25 C 612.625 627.25 606.875 630.125 602.875 639.375 L 603.25 627.875 L 602.25 626.875 C 593 628.875 590.625 629.25 581.5 630.625 L 580.75 631.375 C 581.5 640.75 581.875 646.375 581.875 663.75 C 581.875 674 581.75 684.25 581.5 694.625 L 582.25 695.375 C 591.5 695 593.5 694.875 603.5 695 L 604.125 694.125 C 603.625 684 602.875 669.875 602.875 661.25 C 602.875 655.625 602.875 647.375 611.375 647.375 C 613.5 647.375 614.75 648.125 616.5 649.125 Z M 651 694.125 C 650.375 684.5 649.875 677.125 649.875 659.875 C 649.875 649.25 650.125 638.5 650.25 627.875 L 649.375 626.875 L 627.875 630.625 L 627.125 631.375 C 628.125 640.875 628.5 645.25 628.5 663 C 628.5 676.625 628.125 684.25 627.75 694.5 L 628.5 695.375 C 637.5 695 640 694.875 650.125 695 L 651 694.125 M 649 614.875 L 649.375 597.875 L 648.625 597.125 L 628.25 599.625 L 627.5 600.5 C 627.75 605 627.875 607.625 627.875 610.625 C 627.875 613 627.875 615.5 627.75 617.875 L 628.625 618.625 C 637.125 617.125 639.5 616.875 648.375 615.75 Z M 726.125 694.125 C 725.5 683.125 725.5 679.625 725.25 667.375 L 725.25 657.625 C 725.125 645.625 725 639.875 721.875 634.75 C 718 628.25 710.875 627.25 706.375 627.25 C 698.75 627.25 692.125 631.25 686.375 634.625 L 686.625 627.75 L 685.375 626.875 C 675.75 628.875 673.625 629.25 664.25 630.5 L 663.5 631.375 C 664.5 642.25 665.25 650.125 665.25 670.5 C 665.25 678.5 665.125 686.5 665 694.5 L 665.75 695.25 C 674.75 694.875 676.625 694.875 686.625 694.875 L 687.375 694.125 C 686.625 674.875 686.5 670 686.375 647.625 C 689 645.875 692 643.75 696 643.75 C 702.875 643.75 703.5 651.125 703.875 655.625 C 704.125 659.75 704.25 676.875 704.25 681.625 C 704.25 685.875 704.125 690.25 704.125 694.5 L 704.875 695.25 C 713.125 695 715.25 694.875 725.25 694.875 Z M 763.375 673.875 C 767.375 674 771.375 674.25 777.375 672.25 C 783.875 670 793.375 664.625 793.375 652.5 C 793.375 646.5 791.625 644 790 641.625 L 798.625 642.125 L 799.375 641.5 L 800.25 629 L 799.5 628.375 C 789.875 628.75 787.25 628.875 779.375 628.75 L 773.625 628.625 C 764.75 628.375 752.875 628.125 744.75 634.875 C 742 637 736.75 642.375 736.75 651.75 C 736.75 656.75 738.125 660.75 740.375 663.875 C 743.125 667.75 745.625 669.125 748.75 670.875 C 745.25 677.625 743.375 681 740.5 686.125 L 740.5 687.25 L 745.75 691 C 742 693.875 736.125 698.625 736.125 706.75 C 736.125 712.5 739.25 717.5 743.875 720.875 C 750.875 725.875 760.375 726.125 765.25 726.125 C 788.125 726.125 798.625 714.625 798.625 702.5 C 798.625 686.75 784.875 683.75 776.75 681.875 L 773.75 681.375 C 767.625 680.375 766.25 680 761.375 678.25 L 763.375 673.875 M 773.625 651.375 C 773.5 661.5 767.375 662.375 765.625 662.375 C 764.625 662.375 760.25 662.125 758.125 657.125 C 757 654.5 757 651.5 757 650.625 C 757 644.375 760.75 640.375 765.375 640.375 C 771.125 640.375 773.75 645.875 773.625 651.375 M 763 698 C 774.125 700.875 774.25 700.875 775.75 702.125 C 777 703 778.25 704.375 778.25 707 C 778.25 710.75 775.125 714.625 766.875 714.625 C 757.625 714.625 754.5 709.375 754.5 705 C 754.5 700.875 756.625 698.5 758.125 696.75 Z M 834.375 651.875 C 830.125 650.375 826.75 649 826.75 645.5 C 826.75 644 827.75 639.875 835.5 639.875 C 843.125 639.875 848 643.125 851.125 645.125 L 852.25 644.75 L 853.5 631.125 L 852.875 630.375 C 847 628.75 841.875 627.25 833.75 627.25 C 827.625 627.25 815.375 627.75 808.875 637.125 C 807.25 639.375 805.5 643.125 805.5 648.125 C 805.5 661.5 815.875 665.5 821.75 667.75 L 826.5 669.5 C 829.875 670.625 835.375 672.5 835.375 677 C 835.375 680.125 832.5 683.5 825.5 683.5 C 822 683.5 816.875 682.375 812.25 680 C 810.125 678.875 809.125 678 807.25 676.5 L 806.125 677 C 805.875 683.5 805.75 684.875 805.25 691.125 L 805.875 692.25 C 812 694.5 817.25 696.5 826.375 696.5 C 835.875 696.5 854.625 694.75 856.875 676.875 C 857 675.875 857 675 857 674.125 C 857 660.375 847.375 656.75 840.5 654.125 Z M 860.5 695 "/>
<path fill-rule="nonzero" fill="rgb(34.901961%, 14.901961%, 14.901961%)" fill-opacity="1" d="M 232.875 791.25 C 222.375 786.875 216.875 784.625 216.875 779 C 216.875 775.125 220.5 770.25 228.75 770.25 C 238.25 770.25 243.875 774.125 248.5 777.25 L 249.625 776.75 L 250.625 760.375 L 250 759.5 C 244.625 757.25 239 754.875 226.875 754.875 C 203.375 754.875 195.25 768.125 195.25 781.5 C 195.25 796.625 207 802.125 214 805.5 L 218.125 807.375 C 226.75 811 233.375 814.125 233.375 820.75 C 233.375 825.5 229.25 831.125 218.375 831.125 C 207 831.125 200.625 826.125 197 823.25 L 195.75 823.625 L 194.875 841.25 L 195.625 842.25 C 197 842.75 198.375 843.375 199.75 843.75 C 202.625 844.75 210 846.875 219.375 846.875 C 223.125 846.875 232.625 846.5 240.125 843 C 250.625 837.875 255.125 828.375 255.125 817.75 C 255.125 810.625 252.375 803 245.75 797.875 C 242.375 795.375 239.125 793.875 236.125 792.5 Z M 302 830.625 C 299.875 831.25 298.375 831.75 296.25 831.75 C 289.875 831.75 289.375 827.75 289.125 825.875 C 288.75 822.625 288.75 815.75 288.875 810.75 L 289.125 793.125 L 300.375 793.625 L 301.125 792.875 L 302.375 779.5 L 301.625 778.75 L 289.125 778.75 L 289.5 757.75 L 288.625 757 C 280.125 759.5 277.875 760.125 269 762.375 L 268.5 763.25 L 268.625 778.875 L 261.875 778.625 L 261.125 779.25 L 260 792.625 L 260.75 793.375 L 268.625 793.125 L 268.25 813 C 268.125 816.125 268 819.25 268 822.5 C 268 834 268.25 846.375 287.75 846.375 C 292.625 846.375 296.5 845.625 300.875 844.875 L 301.75 844 L 303 831.125 Z M 366.875 807.75 C 367 796.5 367 791.625 363.75 786.375 C 361.25 782.375 356.25 777.375 340.25 777.375 C 329.5 777.375 322.875 779.375 315.75 781.5 L 315 782.5 L 314.375 796.125 L 315.375 796.625 C 319.75 794.875 327.875 791.625 336.25 791.625 C 340.875 791.625 342.75 792.375 344.375 794 C 345.625 795.25 346 797.5 346 799.375 C 331 801.375 324 802.75 316.5 807.375 C 309.5 811.75 307.125 818.875 307.125 824.5 C 307.125 837.875 316.75 846.5 329 846.5 C 338.375 846.5 343.75 842 346.375 839.875 L 346.375 844.5 L 347.125 845.375 C 356.125 845 358.875 844.875 367 845 L 367.625 844.125 C 366.75 831.875 366.75 828.75 366.75 817 L 366.875 807.75 M 346.25 827.625 C 343.625 829.125 340.25 830.875 336.125 830.875 C 331.625 830.875 327.875 828.5 327.875 823.25 C 327.875 815 337.75 813.625 346.25 812.5 Z M 416.5 830.625 C 414.375 831.25 412.875 831.75 410.75 831.75 C 404.375 831.75 403.875 827.75 403.625 825.875 C 403.25 822.625 403.25 815.75 403.375 810.75 L 403.625 793.125 L 414.875 793.625 L 415.625 792.875 L 416.875 779.5 L 416.125 778.75 L 403.625 778.75 L 404 757.75 L 403.125 757 C 394.625 759.5 392.375 760.125 383.5 762.375 L 383 763.25 L 383.125 778.875 L 376.375 778.625 L 375.625 779.25 L 374.5 792.625 L 375.25 793.375 L 383.125 793.125 L 382.75 813 C 382.625 816.125 382.5 819.25 382.5 822.5 C 382.5 834 382.75 846.375 402.25 846.375 C 407.125 846.375 411 845.625 415.375 844.875 L 416.25 844 L 417.5 831.125 Z M 481.25 826.5 C 476.5 829 470.875 831.875 461.75 831.875 C 454.25 831.875 449.125 829.5 446.125 825 C 444.25 822.375 443.875 819.875 443.375 817.375 L 483.75 816.625 L 484.5 815.75 C 484.375 809.625 484.25 803.375 482.5 797.125 C 478.125 782.375 468.5 779.375 464.25 778.375 C 461.125 777.5 458.25 777.25 455.375 777.25 C 435.75 777.25 422.75 790.125 422.75 811.75 C 422.75 817.625 423.75 823.75 425.75 828.125 C 433 845 450 846.5 459 846.5 C 469.375 846.5 473.875 844.625 480.5 842 L 481.25 841 L 482.125 826.875 L 481.25 826.5 M 443.375 804.125 C 443.75 800.25 444.625 795 449.375 792 C 450.875 791 452.625 790.625 454.375 790.625 C 458.5 790.625 461 792.75 462.375 795 C 464.125 797.75 464.25 800.75 464.25 803.625 Z M 549.25 756.5 L 533.375 756.75 L 532.625 757.5 C 533.125 773.75 533.5 784.625 533.5 799 C 533.5 814.25 533.125 829.375 532.75 844.625 L 533.5 845.375 C 542.75 845 544.75 844.875 554.75 845 L 555.375 844.25 C 554.875 830.625 554.875 827.5 554.875 814.75 C 568.875 814.875 583.875 814.875 592.875 803.875 C 596.375 799.625 599.375 792.5 599.375 783.75 C 599.375 778.375 598.125 766.5 587.75 760.625 C 580.25 756.25 569.625 756.25 560.25 756.25 L 549.25 756.5 M 554.875 771.625 C 557.625 771.5 560.25 771.5 563 771.5 C 574 771.75 577 777.375 577 784.625 C 577 786.375 577 793.625 570.375 797.25 C 567 799.125 562.375 799.375 554.875 799.375 Z M 663.625 807.75 C 663.75 796.5 663.75 791.625 660.5 786.375 C 658 782.375 653 777.375 637 777.375 C 626.25 777.375 619.625 779.375 612.5 781.5 L 611.75 782.5 L 611.125 796.125 L 612.125 796.625 C 616.5 794.875 624.625 791.625 633 791.625 C 637.625 791.625 639.5 792.375 641.125 794 C 642.375 795.25 642.75 797.5 642.75 799.375 C 627.75 801.375 620.75 802.75 613.25 807.375 C 606.25 811.75 603.875 818.875 603.875 824.5 C 603.875 837.875 613.5 846.5 625.75 846.5 C 635.125 846.5 640.5 842 643.125 839.875 L 643.125 844.5 L 643.875 845.375 C 652.875 845 655.625 844.875 663.75 845 L 664.375 844.125 C 663.5 831.875 663.5 828.75 663.5 817 L 663.625 807.75 M 643 827.625 C 640.375 829.125 637 830.875 632.875 830.875 C 628.375 830.875 624.625 828.5 624.625 823.25 C 624.625 815 634.5 813.625 643 812.5 Z M 714.375 798.625 L 717.875 778.25 L 717.125 777.375 C 716.25 777.375 715.375 777.25 714.5 777.25 C 709.375 777.25 703.625 780.125 699.625 789.375 L 700 777.875 L 699 776.875 C 689.75 778.875 687.375 779.25 678.25 780.625 L 677.5 781.375 C 678.25 790.75 678.625 796.375 678.625 813.75 C 678.625 824 678.5 834.25 678.25 844.625 L 679 845.375 C 688.25 845 690.25 844.875 700.25 845 L 700.875 844.125 C 700.375 834 699.625 819.875 699.625 811.25 C 699.625 805.625 699.625 797.375 708.125 797.375 C 710.25 797.375 711.5 798.125 713.25 799.125 Z M 789.375 843.375 C 777.625 823.5 776.375 821.25 766.875 804.125 C 775.5 792.375 776.375 791.125 785.25 779.75 L 784.625 778.5 L 764.25 778.75 L 763 779.625 C 753.25 796.5 752 798.5 746.25 807.125 L 746.25 793.25 C 746.375 769.875 746.5 764.875 747.125 746 L 746.125 745.25 L 724.375 748.5 L 723.625 749.375 C 724.5 761.5 724.875 767.375 725.125 783.75 C 725.375 804 725.375 824.25 725.25 844.5 L 726.125 845.375 C 734.5 845 736.875 845 746.375 845 L 747.125 844.125 L 746.375 823 L 746.25 808.625 C 757.125 828.625 758.5 831.375 764.875 844.625 L 766 845.375 L 788.5 844.5 Z M 787.875 845 "/>
</svg>
