<?xml version="1.0" encoding="UTF-8"?>
<svg xmlns="http://www.w3.org/2000/svg" xmlns:xlink="http://www.w3.org/1999/xlink" width="975" height="1300" viewBox="0 0 975 1300">
<path fill-rule="nonzero" fill="rgb(34.901961%, 14.901961%, 14.901961%)" fill-opacity="1" d="M 246.375 491.25 C 235.875 486.875 230.375 484.625 230.375 479 C 230.375 475.125 234 470.25 242.25 470.25 C 251.75 470.25 257.375 474.125 262 477.25 L 263.125 476.75 L 264.125 460.375 L 263.5 459.5 C 258.125 457.25 252.5 454.875 240.375 454.875 C 216.875 454.875 208.75 468.125 208.75 481.5 C 208.75 496.625 220.5 502.125 227.5 505.5 L 231.625 507.375 C 240.25 511 246.875 514.125 246.875 520.75 C 246.875 525.5 242.75 531.125 231.875 531.125 C 220.5 531.125 214.125 526.125 210.5 523.25 L 209.25 523.625 L 208.375 541.25 L 209.125 542.25 C 210.5 542.75 211.875 543.375 213.25 543.75 C 216.125 544.75 223.5 546.875 232.875 546.875 C 236.625 546.875 246.125 546.5 253.625 543 C 264.125 537.875 268.625 528.375 268.625 517.75 C 268.625 510.625 265.875 503 259.25 497.875 C 255.875 495.375 252.625 493.875 249.625 492.5 Z M 336.125 507.75 C 336.25 496.5 336.25 491.625 333 486.375 C 330.5 482.375 325.5 477.375 309.5 477.375 C 298.75 477.375 292.125 479.375 285 481.5 L 284.25 482.5 L 283.625 496.125 L 284.625 496.625 C 289 494.875 297.125 491.625 305.5 491.625 C 310.125 491.625 312 492.375 313.625 494 C 314.875 495.25 315.25 497.5 315.25 499.375 C 300.25 501.375 293.25 502.75 285.75 507.375 C 278.75 511.75 276.375 518.875 276.375 524.5 C 276.375 537.875 286 546.5 298.25 546.5 C 307.625 546.5 313 542 315.625 539.875 L 315.625 544.5 L 316.375 545.375 C 325.375 545 328.125 544.875 336.25 545 L 336.875 544.125 C 336 531.875 336 528.75 336 517 L 336.125 507.75 M 315.5 527.625 C 312.875 529.125 309.5 530.875 305.375 530.875 C 300.875 530.875 297.125 528.5 297.125 523.25 C 297.125 515 307 513.625 315.5 512.5 Z M 448.375 544.125 C 447.75 532.5 447.625 529.25 447.625 515.125 L 447.625 505.75 C 447.75 497.375 447.875 489.625 444.25 484.375 C 439.375 477.25 430.75 477.25 428.75 477.25 C 418.5 477.25 411.625 481.875 406.625 485.375 C 404.875 482.5 401.75 477.25 391.75 477.25 C 383.5 477.25 378.125 481 372.375 485 L 372.375 478 L 371.25 476.875 C 361.5 478.75 358.75 479.25 350 480.5 L 349.25 481.375 C 350.25 491.375 351 498.25 351 523 C 351 530.125 350.875 537.375 350.875 544.5 L 351.5 545.25 C 359.5 545 362.25 544.875 372.625 544.875 L 373.375 544.125 C 372.5 524.875 372.375 519.125 372.25 497.375 C 374.875 495.5 377.75 493.875 380.875 493.875 C 388.625 493.875 388.875 502.75 388.875 513.5 C 388.875 531.625 388.75 534.375 388.5 544.5 L 389.25 545.375 C 398.75 544.875 401.375 544.875 410 544.875 L 410.75 544.125 C 410 532.25 409.875 528.75 409.75 513.625 L 409.75 509 L 409.625 496.375 C 411.75 495 414.5 493.25 418.25 493.25 C 425.375 493.25 426.5 500 426.5 510.75 C 426.5 513.125 426.375 515.5 426.375 517.875 C 426.25 522.125 426.125 540.75 426 544.5 L 426.75 545.25 C 436.125 544.875 438.875 544.875 447.625 544.875 Z M 522.75 478.125 L 502.375 479.125 L 501.5 479.875 C 502.375 494 502.375 514 502.375 516 C 502.375 519.625 502.375 521.625 502.25 526.625 C 498.875 528.875 496.25 530.75 492.875 530.75 C 483.875 530.75 483.875 521.25 483.875 513.875 C 483.875 510.75 483.875 507.5 484 504.375 L 484.25 479.125 L 483.375 478.125 L 462.75 479.125 L 461.875 479.875 C 462.625 490.375 462.75 493.875 462.75 506.5 L 462.75 515.25 C 462.625 528.875 463.25 534.625 467.75 539.875 C 471.875 544.5 477.875 546.5 484.125 546.5 C 493 546.5 498.125 542.5 502.625 539 L 502.5 544.625 L 503.375 545.375 C 512.5 545 515.25 545 523.375 545 L 524.125 544.25 C 523.5 535.375 523.25 530.625 523.25 514.375 C 523.25 502.625 523.375 490.875 523.625 479.125 Z M 593.75 526.5 C 589 529 583.375 531.875 574.25 531.875 C 566.75 531.875 561.625 529.5 558.625 525 C 556.75 522.375 556.375 519.875 555.875 517.375 L 596.25 516.625 L 597 515.75 C 596.875 509.625 596.75 503.375 595 497.125 C 590.625 482.375 581 479.375 576.75 478.375 C 573.625 477.5 570.75 477.25 567.875 477.25 C 548.25 477.25 535.25 490.125 535.25 511.75 C 535.25 517.625 536.25 523.75 538.25 528.125 C 545.5 545 562.5 546.5 571.5 546.5 C 581.875 546.5 586.375 544.625 593 542 L 593.75 541 L 594.625 526.875 L 593.75 526.5 M 555.875 504.125 C 556.25 500.25 557.125 495 561.875 492 C 563.375 491 565.125 490.625 566.875 490.625 C 571 490.625 573.5 492.75 574.875 495 C 576.625 497.75 576.75 500.75 576.75 503.625 Z M 630.5 544.125 C 629.875 529.75 629.25 516.625 629.25 477.125 C 629.25 465.25 629.375 459.625 629.875 446.125 L 629 445.25 L 607.625 448.625 L 607.125 449.375 C 608.375 464.625 608.5 468.75 608.75 489 C 608.875 496.375 608.875 503.75 608.875 511.125 C 608.875 524.625 608.625 532.125 608.125 544.5 L 608.875 545.375 C 617.25 545 620.625 544.875 629.75 545 Z M 698.25 456.5 L 682.375 456.75 L 681.625 457.5 C 682.125 473.75 682.5 484.625 682.5 499 C 682.5 514.25 682.125 529.375 681.75 544.625 L 682.5 545.375 C 691.75 545 693.75 544.875 703.75 545 L 704.375 544.25 C 703.875 530.625 703.875 527.5 703.875 514.75 C 717.875 514.875 732.875 514.875 741.875 503.875 C 745.375 499.625 748.375 492.5 748.375 483.75 C 748.375 478.375 747.125 466.5 736.75 460.625 C 729.25 456.25 718.625 456.25 709.25 456.25 L 698.25 456.5 M 703.875 471.625 C 706.625 471.5 709.25 471.5 712 471.5 C 723 471.75 726 477.375 726 484.625 C 726 486.375 726 493.625 719.375 497.25 C 716 499.125 711.375 499.375 703.875 499.375 Z M 775 525.75 L 755 526.125 L 754.375 527.125 L 754.625 544.5 L 755.25 545.375 L 775.25 544.875 L 775.875 544.125 L 775.625 526.5 Z M 780.75 545 "/>
<path fill-rule="nonzero" fill="rgb(34.901961%, 14.901961%, 14.901961%)" fill-opacity="1" d="M 205.4375 623.25 L 206.1875 622.625 L 207.0625 607 L 206.4375 606.625 L 144.5625 606.625 L 143.6875 607.375 L 142.8125 622.75 L 143.4375 623.5 L 163.8125 623 C 163.9375 655.75 163.9375 663.625 162.9375 694.625 L 163.6875 695.375 C 172.9375 695 175.4375 694.875 185.8125 694.875 L 186.5625 694.125 C 185.9375 676.625 185.6875 659.125 185.6875 641.5 C 185.6875 634.625 185.8125 630.75 186.0625 622.75 Z M 270.6875 657.75 C 270.8125 646.5 270.8125 641.625 267.5625 636.375 C 265.0625 632.375 260.0625 627.375 244.0625 627.375 C 233.3125 627.375 226.6875 629.375 219.5625 631.5 L 218.8125 632.5 L 218.1875 646.125 L 219.1875 646.625 C 223.5625 644.875 231.6875 641.625 240.0625 641.625 C 244.6875 641.625 246.5625 642.375 248.1875 644 C 249.4375 645.25 249.8125 647.5 249.8125 649.375 C 234.8125 651.375 227.8125 652.75 220.3125 657.375 C 213.3125 661.75 210.9375 668.875 210.9375 674.5 C 210.9375 687.875 220.5625 696.5 232.8125 696.5 C 242.1875 696.5 247.5625 692 250.1875 689.875 L 250.1875 694.5 L 250.9375 695.375 C 259.9375 695 262.6875 694.875 270.8125 695 L 271.4375 694.125 C 270.5625 681.875 270.5625 678.75 270.5625 667 L 270.6875 657.75 M 250.0625 677.625 C 247.4375 679.125 244.0625 680.875 239.9375 680.875 C 235.4375 680.875 231.6875 678.5 231.6875 673.25 C 231.6875 665 241.5625 663.625 250.0625 662.5 Z M 341.1875 628.375 L 323.8125 628.75 L 322.8125 629.625 C 320.6875 638.25 320.1875 640.125 317.1875 649.875 L 313.9375 660.625 L 311.1875 670 L 308.8125 661.125 L 305.1875 647.875 L 300.1875 628.875 L 299.1875 628.125 C 289.4375 628.875 287.3125 629 277.0625 629.25 L 276.4375 630.125 C 280.9375 642 292.5625 673.375 300.3125 697.375 C 295.1875 710.375 294.1875 712.625 288.5625 725 L 289.1875 726 C 292.3125 725.875 295.8125 725.75 299.0625 725.75 C 302.1875 725.75 305.4375 725.875 308.5625 725.875 L 309.4375 725.125 C 316.3125 698.125 319.6875 687.625 336.1875 644.125 C 338.0625 639.125 339.9375 634.25 341.6875 629.375 Z M 369.8125 694.125 C 369.1875 679.75 368.5625 666.625 368.5625 627.125 C 368.5625 615.25 368.6875 609.625 369.1875 596.125 L 368.3125 595.25 L 346.9375 598.625 L 346.4375 599.375 C 347.6875 614.625 347.8125 618.75 348.0625 639 C 348.1875 646.375 348.1875 653.75 348.1875 661.125 C 348.1875 674.625 347.9375 682.125 347.4375 694.5 L 348.1875 695.375 C 356.5625 695 359.9375 694.875 369.0625 695 Z M 447.9375 661.75 C 447.9375 656.875 447.9375 636.625 430.4375 629.75 C 424.9375 627.625 418.4375 627.375 415.1875 627.375 C 393.4375 627.375 381.1875 639 381.1875 662 C 381.1875 670 382.4375 678.125 387.0625 684.875 C 390.3125 689.75 396.4375 696.5 414.3125 696.5 C 440.8125 696.5 447.9375 680.5 447.9375 661.75 M 426.3125 661.625 C 426.3125 671.875 424.9375 683.25 414.5625 683.25 C 411.3125 683.25 409.0625 681.75 407.5625 680.375 C 405.4375 678.25 403.0625 674 403.0625 661.875 C 403.0625 658.25 403.0625 650.25 405.5625 645.875 C 407.4375 642.5 410.6875 640.25 414.6875 640.25 C 418.1875 640.25 421.0625 642.125 422.6875 644.125 C 425.6875 647.75 426.3125 654.875 426.3125 661.625 Z M 495.9375 648.625 L 499.4375 628.25 L 498.6875 627.375 C 497.8125 627.375 496.9375 627.25 496.0625 627.25 C 490.9375 627.25 485.1875 630.125 481.1875 639.375 L 481.5625 627.875 L 480.5625 626.875 C 471.3125 628.875 468.9375 629.25 459.8125 630.625 L 459.0625 631.375 C 459.8125 640.75 460.1875 646.375 460.1875 663.75 C 460.1875 674 460.0625 684.25 459.8125 694.625 L 460.5625 695.375 C 469.8125 695 471.8125 694.875 481.8125 695 L 482.4375 694.125 C 481.9375 684 481.1875 669.875 481.1875 661.25 C 481.1875 655.625 481.1875 647.375 489.6875 647.375 C 491.8125 647.375 493.0625 648.125 494.8125 649.125 Z M 579.3125 641.25 C 568.8125 636.875 563.3125 634.625 563.3125 629 C 563.3125 625.125 566.9375 620.25 575.1875 620.25 C 584.6875 620.25 590.3125 624.125 594.9375 627.25 L 596.0625 626.75 L 597.0625 610.375 L 596.4375 609.5 C 591.0625 607.25 585.4375 604.875 573.3125 604.875 C 549.8125 604.875 541.6875 618.125 541.6875 631.5 C 541.6875 646.625 553.4375 652.125 560.4375 655.5 L 564.5625 657.375 C 573.1875 661 579.8125 664.125 579.8125 670.75 C 579.8125 675.5 575.6875 681.125 564.8125 681.125 C 553.4375 681.125 547.0625 676.125 543.4375 673.25 L 542.1875 673.625 L 541.3125 691.25 L 542.0625 692.25 C 543.4375 692.75 544.8125 693.375 546.1875 693.75 C 549.0625 694.75 556.4375 696.875 565.8125 696.875 C 569.5625 696.875 579.0625 696.5 586.5625 693 C 597.0625 687.875 601.5625 678.375 601.5625 667.75 C 601.5625 660.625 598.8125 653 592.1875 647.875 C 588.8125 645.375 585.5625 643.875 582.5625 642.5 Z M 648.4375 680.625 C 646.3125 681.25 644.8125 681.75 642.6875 681.75 C 636.3125 681.75 635.8125 677.75 635.5625 675.875 C 635.1875 672.625 635.1875 665.75 635.3125 660.75 L 635.5625 643.125 L 646.8125 643.625 L 647.5625 642.875 L 648.8125 629.5 L 648.0625 628.75 L 635.5625 628.75 L 635.9375 607.75 L 635.0625 607 C 626.5625 609.5 624.3125 610.125 615.4375 612.375 L 614.9375 613.25 L 615.0625 628.875 L 608.3125 628.625 L 607.5625 629.25 L 606.4375 642.625 L 607.1875 643.375 L 615.0625 643.125 L 614.6875 663 C 614.5625 666.125 614.4375 669.25 614.4375 672.5 C 614.4375 684 614.6875 696.375 634.1875 696.375 C 639.0625 696.375 642.9375 695.625 647.3125 694.875 L 648.1875 694 L 649.4375 681.125 Z M 713.3125 657.75 C 713.4375 646.5 713.4375 641.625 710.1875 636.375 C 707.6875 632.375 702.6875 627.375 686.6875 627.375 C 675.9375 627.375 669.3125 629.375 662.1875 631.5 L 661.4375 632.5 L 660.8125 646.125 L 661.8125 646.625 C 666.1875 644.875 674.3125 641.625 682.6875 641.625 C 687.3125 641.625 689.1875 642.375 690.8125 644 C 692.0625 645.25 692.4375 647.5 692.4375 649.375 C 677.4375 651.375 670.4375 652.75 662.9375 657.375 C 655.9375 661.75 653.5625 668.875 653.5625 674.5 C 653.5625 687.875 663.1875 696.5 675.4375 696.5 C 684.8125 696.5 690.1875 692 692.8125 689.875 L 692.8125 694.5 L 693.5625 695.375 C 702.5625 695 705.3125 694.875 713.4375 695 L 714.0625 694.125 C 713.1875 681.875 713.1875 678.75 713.1875 667 L 713.3125 657.75 M 692.6875 677.625 C 690.0625 679.125 686.6875 680.875 682.5625 680.875 C 678.0625 680.875 674.3125 678.5 674.3125 673.25 C 674.3125 665 684.1875 663.625 692.6875 662.5 Z M 762.9375 680.625 C 760.8125 681.25 759.3125 681.75 757.1875 681.75 C 750.8125 681.75 750.3125 677.75 750.0625 675.875 C 749.6875 672.625 749.6875 665.75 749.8125 660.75 L 750.0625 643.125 L 761.3125 643.625 L 762.0625 642.875 L 763.3125 629.5 L 762.5625 628.75 L 750.0625 628.75 L 750.4375 607.75 L 749.5625 607 C 741.0625 609.5 738.8125 610.125 729.9375 612.375 L 729.4375 613.25 L 729.5625 628.875 L 722.8125 628.625 L 722.0625 629.25 L 720.9375 642.625 L 721.6875 643.375 L 729.5625 643.125 L 729.1875 663 C 729.0625 666.125 728.9375 669.25 728.9375 672.5 C 728.9375 684 729.1875 696.375 748.6875 696.375 C 753.5625 696.375 757.4375 695.625 761.8125 694.875 L 762.6875 694 L 763.9375 681.125 Z M 827.6875 676.5 C 822.9375 679 817.3125 681.875 808.1875 681.875 C 800.6875 681.875 795.5625 679.5 792.5625 675 C 790.6875 672.375 790.3125 669.875 789.8125 667.375 L 830.1875 666.625 L 830.9375 665.75 C 830.8125 659.625 830.6875 653.375 828.9375 647.125 C 824.5625 632.375 814.9375 629.375 810.6875 628.375 C 807.5625 627.5 804.6875 627.25 801.8125 627.25 C 782.1875 627.25 769.1875 640.125 769.1875 661.75 C 769.1875 667.625 770.1875 673.75 772.1875 678.125 C 779.4375 695 796.4375 696.5 805.4375 696.5 C 815.8125 696.5 820.3125 694.625 826.9375 692 L 827.6875 691 L 828.5625 676.875 L 827.6875 676.5 M 789.8125 654.125 C 790.1875 650.25 791.0625 645 795.8125 642 C 797.3125 641 799.0625 640.625 800.8125 640.625 C 804.9375 640.625 807.4375 642.75 808.8125 645 C 810.5625 647.75 810.6875 650.75 810.6875 653.625 Z M 834.9375 695 "/>
<path fill-rule="nonzero" fill="rgb(34.901961%, 14.901961%, 14.901961%)" fill-opacity="1" d="M 382.375 756.5 L 366.5 756.75 L 365.75 757.5 C 366.25 773.75 366.625 784.625 366.625 799 C 366.625 814.25 366.25 829.375 365.875 844.625 L 366.625 845.375 C 375.875 845 377.875 844.875 387.875 845 L 388.5 844.25 C 388 830.625 388 827.5 388 814.75 C 402 814.875 417 814.875 426 803.875 C 429.5 799.625 432.5 792.5 432.5 783.75 C 432.5 778.375 431.25 766.5 420.875 760.625 C 413.375 756.25 402.75 756.25 393.375 756.25 L 382.375 756.5 M 388 771.625 C 390.75 771.5 393.375 771.5 396.125 771.5 C 407.125 771.75 410.125 777.375 410.125 784.625 C 410.125 786.375 410.125 793.625 403.5 797.25 C 400.125 799.125 395.5 799.375 388 799.375 Z M 496.75 807.75 C 496.875 796.5 496.875 791.625 493.625 786.375 C 491.125 782.375 486.125 777.375 470.125 777.375 C 459.375 777.375 452.75 779.375 445.625 781.5 L 444.875 782.5 L 444.25 796.125 L 445.25 796.625 C 449.625 794.875 457.75 791.625 466.125 791.625 C 470.75 791.625 472.625 792.375 474.25 794 C 475.5 795.25 475.875 797.5 475.875 799.375 C 460.875 801.375 453.875 802.75 446.375 807.375 C 439.375 811.75 437 818.875 437 824.5 C 437 837.875 446.625 846.5 458.875 846.5 C 468.25 846.5 473.625 842 476.25 839.875 L 476.25 844.5 L 477 845.375 C 486 845 488.75 844.875 496.875 845 L 497.5 844.125 C 496.625 831.875 496.625 828.75 496.625 817 L 496.75 807.75 M 476.125 827.625 C 473.5 829.125 470.125 830.875 466 830.875 C 461.5 830.875 457.75 828.5 457.75 823.25 C 457.75 815 467.625 813.625 476.125 812.5 Z M 547.5 798.625 L 551 778.25 L 550.25 777.375 C 549.375 777.375 548.5 777.25 547.625 777.25 C 542.5 777.25 536.75 780.125 532.75 789.375 L 533.125 777.875 L 532.125 776.875 C 522.875 778.875 520.5 779.25 511.375 780.625 L 510.625 781.375 C 511.375 790.75 511.75 796.375 511.75 813.75 C 511.75 824 511.625 834.25 511.375 844.625 L 512.125 845.375 C 521.375 845 523.375 844.875 533.375 845 L 534 844.125 C 533.5 834 532.75 819.875 532.75 811.25 C 532.75 805.625 532.75 797.375 541.25 797.375 C 543.375 797.375 544.625 798.125 546.375 799.125 Z M 622.5 843.375 C 610.75 823.5 609.5 821.25 600 804.125 C 608.625 792.375 609.5 791.125 618.375 779.75 L 617.75 778.5 L 597.375 778.75 L 596.125 779.625 C 586.375 796.5 585.125 798.5 579.375 807.125 L 579.375 793.25 C 579.5 769.875 579.625 764.875 580.25 746 L 579.25 745.25 L 557.5 748.5 L 556.75 749.375 C 557.625 761.5 558 767.375 558.25 783.75 C 558.5 804 558.5 824.25 558.375 844.5 L 559.25 845.375 C 567.625 845 570 845 579.5 845 L 580.25 844.125 L 579.5 823 L 579.375 808.625 C 590.25 828.625 591.625 831.375 598 844.625 L 599.125 845.375 L 621.625 844.5 Z M 621 845 "/>
</svg>
