<?xml version="1.0" encoding="UTF-8"?>
<svg xmlns="http://www.w3.org/2000/svg" xmlns:xlink="http://www.w3.org/1999/xlink" width="975" height="1300" viewBox="0 0 975 1300">
<path fill-rule="nonzero" fill="rgb(34.901961%, 14.901961%, 14.901961%)" fill-opacity="1" d="M 179.25 548.25 L 180 547.625 L 180.875 532 L 180.25 531.625 L 118.375 531.625 L 117.5 532.375 L 116.625 547.75 L 117.25 548.5 L 137.625 548 C 137.75 580.75 137.75 588.625 136.75 619.625 L 137.5 620.375 C 146.75 620 149.25 619.875 159.625 619.875 L 160.375 619.125 C 159.75 601.625 159.5 584.125 159.5 566.5 C 159.5 559.625 159.625 555.75 159.875 547.75 Z M 252.5 586.75 C 252.5 581.875 252.5 561.625 235 554.75 C 229.5 552.625 223 552.375 219.75 552.375 C 198 552.375 185.75 564 185.75 587 C 185.75 595 187 603.125 191.625 609.875 C 194.875 614.75 201 621.5 218.875 621.5 C 245.375 621.5 252.5 605.5 252.5 586.75 M 230.875 586.625 C 230.875 596.875 229.5 608.25 219.125 608.25 C 215.875 608.25 213.625 606.75 212.125 605.375 C 210 603.25 207.625 599 207.625 586.875 C 207.625 583.25 207.625 575.25 210.125 570.875 C 212 567.5 215.25 565.25 219.25 565.25 C 222.75 565.25 225.625 567.125 227.25 569.125 C 230.25 572.75 230.875 579.875 230.875 586.625 Z M 362 619.125 C 361.375 607.5 361.25 604.25 361.25 590.125 L 361.25 580.75 C 361.375 572.375 361.5 564.625 357.875 559.375 C 353 552.25 344.375 552.25 342.375 552.25 C 332.125 552.25 325.25 556.875 320.25 560.375 C 318.5 557.5 315.375 552.25 305.375 552.25 C 297.125 552.25 291.75 556 286 560 L 286 553 L 284.875 551.875 C 275.125 553.75 272.375 554.25 263.625 555.5 L 262.875 556.375 C 263.875 566.375 264.625 573.25 264.625 598 C 264.625 605.125 264.5 612.375 264.5 619.5 L 265.125 620.25 C 273.125 620 275.875 619.875 286.25 619.875 L 287 619.125 C 286.125 599.875 286 594.125 285.875 572.375 C 288.5 570.5 291.375 568.875 294.5 568.875 C 302.25 568.875 302.5 577.75 302.5 588.5 C 302.5 606.625 302.375 609.375 302.125 619.5 L 302.875 620.375 C 312.375 619.875 315 619.875 323.625 619.875 L 324.375 619.125 C 323.625 607.25 323.5 603.75 323.375 588.625 L 323.375 584 L 323.25 571.375 C 325.375 570 328.125 568.25 331.875 568.25 C 339 568.25 340.125 575 340.125 585.75 C 340.125 588.125 340 590.5 340 592.875 C 339.875 597.125 339.75 615.75 339.625 619.5 L 340.375 620.25 C 349.75 619.875 352.5 619.875 361.25 619.875 Z M 432 582.75 C 432.125 571.5 432.125 566.625 428.875 561.375 C 426.375 557.375 421.375 552.375 405.375 552.375 C 394.625 552.375 388 554.375 380.875 556.5 L 380.125 557.5 L 379.5 571.125 L 380.5 571.625 C 384.875 569.875 393 566.625 401.375 566.625 C 406 566.625 407.875 567.375 409.5 569 C 410.75 570.25 411.125 572.5 411.125 574.375 C 396.125 576.375 389.125 577.75 381.625 582.375 C 374.625 586.75 372.25 593.875 372.25 599.5 C 372.25 612.875 381.875 621.5 394.125 621.5 C 403.5 621.5 408.875 617 411.5 614.875 L 411.5 619.5 L 412.25 620.375 C 421.25 620 424 619.875 432.125 620 L 432.75 619.125 C 431.875 606.875 431.875 603.75 431.875 592 L 432 582.75 M 411.375 602.625 C 408.75 604.125 405.375 605.875 401.25 605.875 C 396.75 605.875 393 603.5 393 598.25 C 393 590 402.875 588.625 411.375 587.5 Z M 468.625 619.125 C 468 604.75 467.375 591.625 467.375 552.125 C 467.375 540.25 467.5 534.625 468 521.125 L 467.125 520.25 L 445.75 523.625 L 445.25 524.375 C 446.5 539.625 446.625 543.75 446.875 564 C 447 571.375 447 578.75 447 586.125 C 447 599.625 446.75 607.125 446.25 619.5 L 447 620.375 C 455.375 620 458.75 619.875 467.875 620 Z M 538.625 601.5 C 533.875 604 528.25 606.875 519.125 606.875 C 511.625 606.875 506.5 604.5 503.5 600 C 501.625 597.375 501.25 594.875 500.75 592.375 L 541.125 591.625 L 541.875 590.75 C 541.75 584.625 541.625 578.375 539.875 572.125 C 535.5 557.375 525.875 554.375 521.625 553.375 C 518.5 552.5 515.625 552.25 512.75 552.25 C 493.125 552.25 480.125 565.125 480.125 586.75 C 480.125 592.625 481.125 598.75 483.125 603.125 C 490.375 620 507.375 621.5 516.375 621.5 C 526.75 621.5 531.25 619.625 537.875 617 L 538.625 616 L 539.5 601.875 L 538.625 601.5 M 500.75 579.125 C 501.125 575.25 502 570 506.75 567 C 508.25 566 510 565.625 511.75 565.625 C 515.875 565.625 518.375 567.75 519.75 570 C 521.5 572.75 521.625 575.75 521.625 578.625 Z M 579.625 576.875 C 575.375 575.375 572 574 572 570.5 C 572 569 573 564.875 580.75 564.875 C 588.375 564.875 593.25 568.125 596.375 570.125 L 597.5 569.75 L 598.75 556.125 L 598.125 555.375 C 592.25 553.75 587.125 552.25 579 552.25 C 572.875 552.25 560.625 552.75 554.125 562.125 C 552.5 564.375 550.75 568.125 550.75 573.125 C 550.75 586.5 561.125 590.5 567 592.75 L 571.75 594.5 C 575.125 595.625 580.625 597.5 580.625 602 C 580.625 605.125 577.75 608.5 570.75 608.5 C 567.25 608.5 562.125 607.375 557.5 605 C 555.375 603.875 554.375 603 552.5 601.5 L 551.375 602 C 551.125 608.5 551 609.875 550.5 616.125 L 551.125 617.25 C 557.25 619.5 562.5 621.5 571.625 621.5 C 581.125 621.5 599.875 619.75 602.125 601.875 C 602.25 600.875 602.25 600 602.25 599.125 C 602.25 585.375 592.625 581.75 585.75 579.125 Z M 673 620 C 684.625 620.25 699 620.5 708.375 614 C 716.625 608.125 718.875 599.875 718.875 592.875 C 718.875 584.875 715.5 577.5 708.375 574 C 706 572.75 703.25 572.25 700.625 571.75 C 704.875 570 709.875 567.75 713.125 561.125 C 714.5 558.25 715.125 555.25 715.125 552.375 C 715.125 548.375 714.125 542.875 710.125 538.375 C 704.875 532.75 696.75 531.25 684.5 531.25 C 680.25 531.25 672.625 531.375 668.375 531.5 L 650.875 531.75 L 650.125 532.5 C 650.625 544.5 650.75 549.125 650.75 566.375 C 650.75 584.125 650.625 601.75 650.375 619.5 L 651.25 620 L 673 620 M 672.125 582 C 681.625 581.75 687.125 581.75 690.75 583.875 C 694.375 586.125 695.75 590.125 695.75 594.125 C 695.75 599.75 692.625 603.25 688 604.875 C 684.25 606.125 677.5 606.125 672.125 606 L 672.125 582 M 672.125 545.25 C 674.75 545.25 678.25 545.125 680.375 545.125 C 687.125 545.125 693.25 547.5 693.25 555.625 C 693.25 562.25 688.375 565 686.875 565.75 C 683.75 567.125 677.125 567.125 672.125 567.125 Z M 786.125 582.75 C 786.25 571.5 786.25 566.625 783 561.375 C 780.5 557.375 775.5 552.375 759.5 552.375 C 748.75 552.375 742.125 554.375 735 556.5 L 734.25 557.5 L 733.625 571.125 L 734.625 571.625 C 739 569.875 747.125 566.625 755.5 566.625 C 760.125 566.625 762 567.375 763.625 569 C 764.875 570.25 765.25 572.5 765.25 574.375 C 750.25 576.375 743.25 577.75 735.75 582.375 C 728.75 586.75 726.375 593.875 726.375 599.5 C 726.375 612.875 736 621.5 748.25 621.5 C 757.625 621.5 763 617 765.625 614.875 L 765.625 619.5 L 766.375 620.375 C 775.375 620 778.125 619.875 786.25 620 L 786.875 619.125 C 786 606.875 786 603.75 786 592 L 786.125 582.75 M 765.5 602.625 C 762.875 604.125 759.5 605.875 755.375 605.875 C 750.875 605.875 747.125 603.5 747.125 598.25 C 747.125 590 757 588.625 765.5 587.5 Z M 856.625 553.375 L 839.25 553.75 L 838.25 554.625 C 836.125 563.25 835.625 565.125 832.625 574.875 L 829.375 585.625 L 826.625 595 L 824.25 586.125 L 820.625 572.875 L 815.625 553.875 L 814.625 553.125 C 804.875 553.875 802.75 554 792.5 554.25 L 791.875 555.125 C 796.375 567 808 598.375 815.75 622.375 C 810.625 635.375 809.625 637.625 804 650 L 804.625 651 C 807.75 650.875 811.25 650.75 814.5 650.75 C 817.625 650.75 820.875 650.875 824 650.875 L 824.875 650.125 C 831.75 623.125 835.125 612.625 851.625 569.125 C 853.5 564.125 855.375 559.25 857.125 554.375 Z M 855.75 620 "/>
<path fill-rule="nonzero" fill="rgb(34.901961%, 14.901961%, 14.901961%)" fill-opacity="1" d="M 232.875 716.25 C 222.375 711.875 216.875 709.625 216.875 704 C 216.875 700.125 220.5 695.25 228.75 695.25 C 238.25 695.25 243.875 699.125 248.5 702.25 L 249.625 701.75 L 250.625 685.375 L 250 684.5 C 244.625 682.25 239 679.875 226.875 679.875 C 203.375 679.875 195.25 693.125 195.25 706.5 C 195.25 721.625 207 727.125 214 730.5 L 218.125 732.375 C 226.75 736 233.375 739.125 233.375 745.75 C 233.375 750.5 229.25 756.125 218.375 756.125 C 207 756.125 200.625 751.125 197 748.25 L 195.75 748.625 L 194.875 766.25 L 195.625 767.25 C 197 767.75 198.375 768.375 199.75 768.75 C 202.625 769.75 210 771.875 219.375 771.875 C 223.125 771.875 232.625 771.5 240.125 768 C 250.625 762.875 255.125 753.375 255.125 742.75 C 255.125 735.625 252.375 728 245.75 722.875 C 242.375 720.375 239.125 718.875 236.125 717.5 Z M 302 755.625 C 299.875 756.25 298.375 756.75 296.25 756.75 C 289.875 756.75 289.375 752.75 289.125 750.875 C 288.75 747.625 288.75 740.75 288.875 735.75 L 289.125 718.125 L 300.375 718.625 L 301.125 717.875 L 302.375 704.5 L 301.625 703.75 L 289.125 703.75 L 289.5 682.75 L 288.625 682 C 280.125 684.5 277.875 685.125 269 687.375 L 268.5 688.25 L 268.625 703.875 L 261.875 703.625 L 261.125 704.25 L 260 717.625 L 260.75 718.375 L 268.625 718.125 L 268.25 738 C 268.125 741.125 268 744.25 268 747.5 C 268 759 268.25 771.375 287.75 771.375 C 292.625 771.375 296.5 770.625 300.875 769.875 L 301.75 769 L 303 756.125 Z M 366.875 732.75 C 367 721.5 367 716.625 363.75 711.375 C 361.25 707.375 356.25 702.375 340.25 702.375 C 329.5 702.375 322.875 704.375 315.75 706.5 L 315 707.5 L 314.375 721.125 L 315.375 721.625 C 319.75 719.875 327.875 716.625 336.25 716.625 C 340.875 716.625 342.75 717.375 344.375 719 C 345.625 720.25 346 722.5 346 724.375 C 331 726.375 324 727.75 316.5 732.375 C 309.5 736.75 307.125 743.875 307.125 749.5 C 307.125 762.875 316.75 771.5 329 771.5 C 338.375 771.5 343.75 767 346.375 764.875 L 346.375 769.5 L 347.125 770.375 C 356.125 770 358.875 769.875 367 770 L 367.625 769.125 C 366.75 756.875 366.75 753.75 366.75 742 L 366.875 732.75 M 346.25 752.625 C 343.625 754.125 340.25 755.875 336.125 755.875 C 331.625 755.875 327.875 753.5 327.875 748.25 C 327.875 740 337.75 738.625 346.25 737.5 Z M 416.5 755.625 C 414.375 756.25 412.875 756.75 410.75 756.75 C 404.375 756.75 403.875 752.75 403.625 750.875 C 403.25 747.625 403.25 740.75 403.375 735.75 L 403.625 718.125 L 414.875 718.625 L 415.625 717.875 L 416.875 704.5 L 416.125 703.75 L 403.625 703.75 L 404 682.75 L 403.125 682 C 394.625 684.5 392.375 685.125 383.5 687.375 L 383 688.25 L 383.125 703.875 L 376.375 703.625 L 375.625 704.25 L 374.5 717.625 L 375.25 718.375 L 383.125 718.125 L 382.75 738 C 382.625 741.125 382.5 744.25 382.5 747.5 C 382.5 759 382.75 771.375 402.25 771.375 C 407.125 771.375 411 770.625 415.375 769.875 L 416.25 769 L 417.5 756.125 Z M 481.25 751.5 C 476.5 754 470.875 756.875 461.75 756.875 C 454.25 756.875 449.125 754.5 446.125 750 C 444.25 747.375 443.875 744.875 443.375 742.375 L 483.75 741.625 L 484.5 740.75 C 484.375 734.625 484.25 728.375 482.5 722.125 C 478.125 707.375 468.5 704.375 464.25 703.375 C 461.125 702.5 458.25 702.25 455.375 702.25 C 435.75 702.25 422.75 715.125 422.75 736.75 C 422.75 742.625 423.75 748.75 425.75 753.125 C 433 770 450 771.5 459 771.5 C 469.375 771.5 473.875 769.625 480.5 767 L 481.25 766 L 482.125 751.875 L 481.25 751.5 M 443.375 729.125 C 443.75 725.25 444.625 720 449.375 717 C 450.875 716 452.625 715.625 454.375 715.625 C 458.5 715.625 461 717.75 462.375 720 C 464.125 722.75 464.25 725.75 464.25 728.625 Z M 549.25 681.5 L 533.375 681.75 L 532.625 682.5 C 533.125 698.75 533.5 709.625 533.5 724 C 533.5 739.25 533.125 754.375 532.75 769.625 L 533.5 770.375 C 542.75 770 544.75 769.875 554.75 770 L 555.375 769.25 C 554.875 755.625 554.875 752.5 554.875 739.75 C 568.875 739.875 583.875 739.875 592.875 728.875 C 596.375 724.625 599.375 717.5 599.375 708.75 C 599.375 703.375 598.125 691.5 587.75 685.625 C 580.25 681.25 569.625 681.25 560.25 681.25 L 549.25 681.5 M 554.875 696.625 C 557.625 696.5 560.25 696.5 563 696.5 C 574 696.75 577 702.375 577 709.625 C 577 711.375 577 718.625 570.375 722.25 C 567 724.125 562.375 724.375 554.875 724.375 Z M 663.625 732.75 C 663.75 721.5 663.75 716.625 660.5 711.375 C 658 707.375 653 702.375 637 702.375 C 626.25 702.375 619.625 704.375 612.5 706.5 L 611.75 707.5 L 611.125 721.125 L 612.125 721.625 C 616.5 719.875 624.625 716.625 633 716.625 C 637.625 716.625 639.5 717.375 641.125 719 C 642.375 720.25 642.75 722.5 642.75 724.375 C 627.75 726.375 620.75 727.75 613.25 732.375 C 606.25 736.75 603.875 743.875 603.875 749.5 C 603.875 762.875 613.5 771.5 625.75 771.5 C 635.125 771.5 640.5 767 643.125 764.875 L 643.125 769.5 L 643.875 770.375 C 652.875 770 655.625 769.875 663.75 770 L 664.375 769.125 C 663.5 756.875 663.5 753.75 663.5 742 L 663.625 732.75 M 643 752.625 C 640.375 754.125 637 755.875 632.875 755.875 C 628.375 755.875 624.625 753.5 624.625 748.25 C 624.625 740 634.5 738.625 643 737.5 Z M 714.375 723.625 L 717.875 703.25 L 717.125 702.375 C 716.25 702.375 715.375 702.25 714.5 702.25 C 709.375 702.25 703.625 705.125 699.625 714.375 L 700 702.875 L 699 701.875 C 689.75 703.875 687.375 704.25 678.25 705.625 L 677.5 706.375 C 678.25 715.75 678.625 721.375 678.625 738.75 C 678.625 749 678.5 759.25 678.25 769.625 L 679 770.375 C 688.25 770 690.25 769.875 700.25 770 L 700.875 769.125 C 700.375 759 699.625 744.875 699.625 736.25 C 699.625 730.625 699.625 722.375 708.125 722.375 C 710.25 722.375 711.5 723.125 713.25 724.125 Z M 789.375 768.375 C 777.625 748.5 776.375 746.25 766.875 729.125 C 775.5 717.375 776.375 716.125 785.25 704.75 L 784.625 703.5 L 764.25 703.75 L 763 704.625 C 753.25 721.5 752 723.5 746.25 732.125 L 746.25 718.25 C 746.375 694.875 746.5 689.875 747.125 671 L 746.125 670.25 L 724.375 673.5 L 723.625 674.375 C 724.5 686.5 724.875 692.375 725.125 708.75 C 725.375 729 725.375 749.25 725.25 769.5 L 726.125 770.375 C 734.5 770 736.875 770 746.375 770 L 747.125 769.125 L 746.375 748 L 746.25 733.625 C 757.125 753.625 758.5 756.375 764.875 769.625 L 766 770.375 L 788.5 769.5 Z M 787.875 770 "/>
</svg>
