<?xml version="1.0" encoding="UTF-8"?>
<svg xmlns="http://www.w3.org/2000/svg" xmlns:xlink="http://www.w3.org/1999/xlink" width="975" height="1300" viewBox="0 0 975 1300">
<path fill-rule="nonzero" fill="rgb(34.901961%, 14.901961%, 14.901961%)" fill-opacity="1" d="M 158 510.625 C 166.375 524.875 168.25 528.625 176.25 545 L 177.25 545.625 C 181.125 545.375 184.875 545.125 188.75 545 C 192.625 544.875 196.625 544.75 200.5 544.75 L 201.25 543.25 C 196.5 537.125 195.125 535.25 186.125 520.875 C 182.125 514.5 180.125 511.125 177 505.625 C 182.625 503.125 194 497.875 194 482 C 194 476.5 192.5 465.125 182.25 459.75 C 175.75 456.375 169 456.25 154.375 456.5 L 145.625 456.625 L 130.375 456.625 L 129.75 457.375 C 130.25 470 130.75 483 130.75 517 C 130.75 528.625 130.625 534.25 130.25 544.625 L 131 545.375 C 140.125 545 142.125 544.875 152.375 545 L 153.125 544.25 C 152.125 529.75 152 525.75 151.875 510.875 L 158 510.625 M 152.125 471.75 C 153.875 471.625 155.625 471.625 157.375 471.625 C 162.25 471.625 171.875 471.625 171.875 482.625 C 171.875 486.125 171 490.75 166.375 493.625 C 162.875 495.75 158.375 496 152.125 496.125 Z M 271.5 511.75 C 271.5 506.875 271.5 486.625 254 479.75 C 248.5 477.625 242 477.375 238.75 477.375 C 217 477.375 204.75 489 204.75 512 C 204.75 520 206 528.125 210.625 534.875 C 213.875 539.75 220 546.5 237.875 546.5 C 264.375 546.5 271.5 530.5 271.5 511.75 M 249.875 511.625 C 249.875 521.875 248.5 533.25 238.125 533.25 C 234.875 533.25 232.625 531.75 231.125 530.375 C 229 528.25 226.625 524 226.625 511.875 C 226.625 508.25 226.625 500.25 229.125 495.875 C 231 492.5 234.25 490.25 238.25 490.25 C 241.75 490.25 244.625 492.125 246.25 494.125 C 249.25 497.75 249.875 504.875 249.875 511.625 Z M 292.375 545.25 L 294.875 545.25 C 314.875 545.25 327.75 544.25 337.25 534.125 C 346.125 524.625 347 513.375 347 508.125 C 347 490.75 337 477.25 320 477.25 C 311.75 477.25 307.375 480 303.875 482.25 L 304.625 446 L 303.625 445.25 L 282.875 448.5 L 282.125 449.375 C 283.125 459.875 283.5 464.125 283.5 489.25 C 283.5 500 283.375 521.25 283.25 544.5 L 284.125 545.375 L 292.375 545.25 M 304.375 494.625 C 306.875 493.375 309.25 492.125 312.5 492.125 C 320.75 492.125 325.5 499.5 325.5 511 C 325.5 520 321.5 525.875 318.125 528.25 C 314 531.125 308.625 531.25 304.375 531.375 Z M 414.375 526.5 C 409.625 529 404 531.875 394.875 531.875 C 387.375 531.875 382.25 529.5 379.25 525 C 377.375 522.375 377 519.875 376.5 517.375 L 416.875 516.625 L 417.625 515.75 C 417.5 509.625 417.375 503.375 415.625 497.125 C 411.25 482.375 401.625 479.375 397.375 478.375 C 394.25 477.5 391.375 477.25 388.5 477.25 C 368.875 477.25 355.875 490.125 355.875 511.75 C 355.875 517.625 356.875 523.75 358.875 528.125 C 366.125 545 383.125 546.5 392.125 546.5 C 402.5 546.5 407 544.625 413.625 542 L 414.375 541 L 415.25 526.875 L 414.375 526.5 M 376.5 504.125 C 376.875 500.25 377.75 495 382.5 492 C 384 491 385.75 490.625 387.5 490.625 C 391.625 490.625 394.125 492.75 395.5 495 C 397.25 497.75 397.375 500.75 397.375 503.625 Z M 465.25 498.625 L 468.75 478.25 L 468 477.375 C 467.125 477.375 466.25 477.25 465.375 477.25 C 460.25 477.25 454.5 480.125 450.5 489.375 L 450.875 477.875 L 449.875 476.875 C 440.625 478.875 438.25 479.25 429.125 480.625 L 428.375 481.375 C 429.125 490.75 429.5 496.375 429.5 513.75 C 429.5 524 429.375 534.25 429.125 544.625 L 429.875 545.375 C 439.125 545 441.125 544.875 451.125 545 L 451.75 544.125 C 451.25 534 450.5 519.875 450.5 511.25 C 450.5 505.625 450.5 497.375 459 497.375 C 461.125 497.375 462.375 498.125 464.125 499.125 Z M 511 530.625 C 508.875 531.25 507.375 531.75 505.25 531.75 C 498.875 531.75 498.375 527.75 498.125 525.875 C 497.75 522.625 497.75 515.75 497.875 510.75 L 498.125 493.125 L 509.375 493.625 L 510.125 492.875 L 511.375 479.5 L 510.625 478.75 L 498.125 478.75 L 498.5 457.75 L 497.625 457 C 489.125 459.5 486.875 460.125 478 462.375 L 477.5 463.25 L 477.625 478.875 L 470.875 478.625 L 470.125 479.25 L 469 492.625 L 469.75 493.375 L 477.625 493.125 L 477.25 513 C 477.125 516.125 477 519.25 477 522.5 C 477 534 477.25 546.375 496.75 546.375 C 501.625 546.375 505.5 545.625 509.875 544.875 L 510.75 544 L 512 531.125 Z M 610.5 527.875 C 596.875 528.625 586 528.875 582.25 528.875 L 579.75 528.875 C 579.5 495.5 579.625 487 580.625 457.125 L 579.875 456.375 C 569.125 456.875 566.25 456.875 557.625 456.75 L 556.875 457.5 C 557.375 467.5 557.5 470.5 557.5 485.375 C 557.5 505.125 557.375 524.875 557.375 544.625 L 558 545.375 C 582.5 545 587 545 609.5 545 L 610.125 544.25 L 611.125 528.5 Z M 685.5 511.75 C 685.5 506.875 685.5 486.625 668 479.75 C 662.5 477.625 656 477.375 652.75 477.375 C 631 477.375 618.75 489 618.75 512 C 618.75 520 620 528.125 624.625 534.875 C 627.875 539.75 634 546.5 651.875 546.5 C 678.375 546.5 685.5 530.5 685.5 511.75 M 663.875 511.625 C 663.875 521.875 662.5 533.25 652.125 533.25 C 648.875 533.25 646.625 531.75 645.125 530.375 C 643 528.25 640.625 524 640.625 511.875 C 640.625 508.25 640.625 500.25 643.125 495.875 C 645 492.5 648.25 490.25 652.25 490.25 C 655.75 490.25 658.625 492.125 660.25 494.125 C 663.25 497.75 663.875 504.875 663.875 511.625 Z M 757.375 478.125 L 737 479.125 L 736.125 479.875 C 737 494 737 514 737 516 C 737 519.625 737 521.625 736.875 526.625 C 733.5 528.875 730.875 530.75 727.5 530.75 C 718.5 530.75 718.5 521.25 718.5 513.875 C 718.5 510.75 718.5 507.5 718.625 504.375 L 718.875 479.125 L 718 478.125 L 697.375 479.125 L 696.5 479.875 C 697.25 490.375 697.375 493.875 697.375 506.5 L 697.375 515.25 C 697.25 528.875 697.875 534.625 702.375 539.875 C 706.5 544.5 712.5 546.5 718.75 546.5 C 727.625 546.5 732.75 542.5 737.25 539 L 737.125 544.625 L 738 545.375 C 747.125 545 749.875 545 758 545 L 758.75 544.25 C 758.125 535.375 757.875 530.625 757.875 514.375 C 757.875 502.625 758 490.875 758.25 479.125 Z M 795.5 544.125 C 794.875 534.5 794.375 527.125 794.375 509.875 C 794.375 499.25 794.625 488.5 794.75 477.875 L 793.875 476.875 L 772.375 480.625 L 771.625 481.375 C 772.625 490.875 773 495.25 773 513 C 773 526.625 772.625 534.25 772.25 544.5 L 773 545.375 C 782 545 784.5 544.875 794.625 545 L 795.5 544.125 M 793.5 464.875 L 793.875 447.875 L 793.125 447.125 L 772.75 449.625 L 772 450.5 C 772.25 455 772.375 457.625 772.375 460.625 C 772.375 463 772.375 465.5 772.25 467.875 L 773.125 468.625 C 781.625 467.125 784 466.875 792.875 465.75 Z M 835.625 501.875 C 831.375 500.375 828 499 828 495.5 C 828 494 829 489.875 836.75 489.875 C 844.375 489.875 849.25 493.125 852.375 495.125 L 853.5 494.75 L 854.75 481.125 L 854.125 480.375 C 848.25 478.75 843.125 477.25 835 477.25 C 828.875 477.25 816.625 477.75 810.125 487.125 C 808.5 489.375 806.75 493.125 806.75 498.125 C 806.75 511.5 817.125 515.5 823 517.75 L 827.75 519.5 C 831.125 520.625 836.625 522.5 836.625 527 C 836.625 530.125 833.75 533.5 826.75 533.5 C 823.25 533.5 818.125 532.375 813.5 530 C 811.375 528.875 810.375 528 808.5 526.5 L 807.375 527 C 807.125 533.5 807 534.875 806.5 541.125 L 807.125 542.25 C 813.25 544.5 818.5 546.5 827.625 546.5 C 837.125 546.5 855.875 544.75 858.125 526.875 C 858.25 525.875 858.25 525 858.25 524.125 C 858.25 510.375 848.625 506.75 841.75 504.125 Z M 861.75 545 "/>
<path fill-rule="nonzero" fill="rgb(34.901961%, 14.901961%, 14.901961%)" fill-opacity="1" d="M 234.375 641.25 C 223.875 636.875 218.375 634.625 218.375 629 C 218.375 625.125 222 620.25 230.25 620.25 C 239.75 620.25 245.375 624.125 250 627.25 L 251.125 626.75 L 252.125 610.375 L 251.5 609.5 C 246.125 607.25 240.5 604.875 228.375 604.875 C 204.875 604.875 196.75 618.125 196.75 631.5 C 196.75 646.625 208.5 652.125 215.5 655.5 L 219.625 657.375 C 228.25 661 234.875 664.125 234.875 670.75 C 234.875 675.5 230.75 681.125 219.875 681.125 C 208.5 681.125 202.125 676.125 198.5 673.25 L 197.25 673.625 L 196.375 691.25 L 197.125 692.25 C 198.5 692.75 199.875 693.375 201.25 693.75 C 204.125 694.75 211.5 696.875 220.875 696.875 C 224.625 696.875 234.125 696.5 241.625 693 C 252.125 687.875 256.625 678.375 256.625 667.75 C 256.625 660.625 253.875 653 247.25 647.875 C 243.875 645.375 240.625 643.875 237.625 642.5 Z M 303.5 680.625 C 301.375 681.25 299.875 681.75 297.75 681.75 C 291.375 681.75 290.875 677.75 290.625 675.875 C 290.25 672.625 290.25 665.75 290.375 660.75 L 290.625 643.125 L 301.875 643.625 L 302.625 642.875 L 303.875 629.5 L 303.125 628.75 L 290.625 628.75 L 291 607.75 L 290.125 607 C 281.625 609.5 279.375 610.125 270.5 612.375 L 270 613.25 L 270.125 628.875 L 263.375 628.625 L 262.625 629.25 L 261.5 642.625 L 262.25 643.375 L 270.125 643.125 L 269.75 663 C 269.625 666.125 269.5 669.25 269.5 672.5 C 269.5 684 269.75 696.375 289.25 696.375 C 294.125 696.375 298 695.625 302.375 694.875 L 303.25 694 L 304.5 681.125 Z M 368.25 676.5 C 363.5 679 357.875 681.875 348.75 681.875 C 341.25 681.875 336.125 679.5 333.125 675 C 331.25 672.375 330.875 669.875 330.375 667.375 L 370.75 666.625 L 371.5 665.75 C 371.375 659.625 371.25 653.375 369.5 647.125 C 365.125 632.375 355.5 629.375 351.25 628.375 C 348.125 627.5 345.25 627.25 342.375 627.25 C 322.75 627.25 309.75 640.125 309.75 661.75 C 309.75 667.625 310.75 673.75 312.75 678.125 C 320 695 337 696.5 346 696.5 C 356.375 696.5 360.875 694.625 367.5 692 L 368.25 691 L 369.125 676.875 L 368.25 676.5 M 330.375 654.125 C 330.75 650.25 331.625 645 336.375 642 C 337.875 641 339.625 640.625 341.375 640.625 C 345.5 640.625 348 642.75 349.375 645 C 351.125 647.75 351.25 650.75 351.25 653.625 Z M 417.5 694 C 421.5 681.5 423.875 673.75 426.5 665.875 C 429.875 655.75 435.375 639.5 438.875 629.25 L 438.25 628.375 L 420.75 628.75 L 419.875 629.625 C 418.125 638 417.75 639.75 415.25 649.5 L 408.875 674.125 L 405.75 660.625 L 403.375 651 C 400.25 639.375 399.75 637 398 628.75 L 397.125 628 C 387.25 629.125 384.75 629.25 375.25 629.375 L 374.75 630.375 C 391.375 679.625 392.75 684.25 395.5 694.5 L 396.375 695.375 C 404.5 695 407.75 694.875 416.75 695 Z M 501 676.5 C 496.25 679 490.625 681.875 481.5 681.875 C 474 681.875 468.875 679.5 465.875 675 C 464 672.375 463.625 669.875 463.125 667.375 L 503.5 666.625 L 504.25 665.75 C 504.125 659.625 504 653.375 502.25 647.125 C 497.875 632.375 488.25 629.375 484 628.375 C 480.875 627.5 478 627.25 475.125 627.25 C 455.5 627.25 442.5 640.125 442.5 661.75 C 442.5 667.625 443.5 673.75 445.5 678.125 C 452.75 695 469.75 696.5 478.75 696.5 C 489.125 696.5 493.625 694.625 500.25 692 L 501 691 L 501.875 676.875 L 501 676.5 M 463.125 654.125 C 463.5 650.25 464.375 645 469.125 642 C 470.625 641 472.375 640.625 474.125 640.625 C 478.25 640.625 480.75 642.75 482.125 645 C 483.875 647.75 484 650.75 484 653.625 Z M 577 694.125 C 576.375 683.125 576.375 679.625 576.125 667.375 L 576.125 657.625 C 576 645.625 575.875 639.875 572.75 634.75 C 568.875 628.25 561.75 627.25 557.25 627.25 C 549.625 627.25 543 631.25 537.25 634.625 L 537.5 627.75 L 536.25 626.875 C 526.625 628.875 524.5 629.25 515.125 630.5 L 514.375 631.375 C 515.375 642.25 516.125 650.125 516.125 670.5 C 516.125 678.5 516 686.5 515.875 694.5 L 516.625 695.25 C 525.625 694.875 527.5 694.875 537.5 694.875 L 538.25 694.125 C 537.5 674.875 537.375 670 537.25 647.625 C 539.875 645.875 542.875 643.75 546.875 643.75 C 553.75 643.75 554.375 651.125 554.75 655.625 C 555 659.75 555.125 676.875 555.125 681.625 C 555.125 685.875 555 690.25 555 694.5 L 555.75 695.25 C 564 695 566.125 694.875 576.125 694.875 Z M 617.5 651.875 C 613.25 650.375 609.875 649 609.875 645.5 C 609.875 644 610.875 639.875 618.625 639.875 C 626.25 639.875 631.125 643.125 634.25 645.125 L 635.375 644.75 L 636.625 631.125 L 636 630.375 C 630.125 628.75 625 627.25 616.875 627.25 C 610.75 627.25 598.5 627.75 592 637.125 C 590.375 639.375 588.625 643.125 588.625 648.125 C 588.625 661.5 599 665.5 604.875 667.75 L 609.625 669.5 C 613 670.625 618.5 672.5 618.5 677 C 618.5 680.125 615.625 683.5 608.625 683.5 C 605.125 683.5 600 682.375 595.375 680 C 593.25 678.875 592.25 678 590.375 676.5 L 589.25 677 C 589 683.5 588.875 684.875 588.375 691.125 L 589 692.25 C 595.125 694.5 600.375 696.5 609.5 696.5 C 619 696.5 637.75 694.75 640 676.875 C 640.125 675.875 640.125 675 640.125 674.125 C 640.125 660.375 630.5 656.75 623.625 654.125 Z M 714.75 661.75 C 714.75 656.875 714.75 636.625 697.25 629.75 C 691.75 627.625 685.25 627.375 682 627.375 C 660.25 627.375 648 639 648 662 C 648 670 649.25 678.125 653.875 684.875 C 657.125 689.75 663.25 696.5 681.125 696.5 C 707.625 696.5 714.75 680.5 714.75 661.75 M 693.125 661.625 C 693.125 671.875 691.75 683.25 681.375 683.25 C 678.125 683.25 675.875 681.75 674.375 680.375 C 672.25 678.25 669.875 674 669.875 661.875 C 669.875 658.25 669.875 650.25 672.375 645.875 C 674.25 642.5 677.5 640.25 681.5 640.25 C 685 640.25 687.875 642.125 689.5 644.125 C 692.5 647.75 693.125 654.875 693.125 661.625 Z M 787.875 694.125 C 787.25 683.125 787.25 679.625 787 667.375 L 787 657.625 C 786.875 645.625 786.75 639.875 783.625 634.75 C 779.75 628.25 772.625 627.25 768.125 627.25 C 760.5 627.25 753.875 631.25 748.125 634.625 L 748.375 627.75 L 747.125 626.875 C 737.5 628.875 735.375 629.25 726 630.5 L 725.25 631.375 C 726.25 642.25 727 650.125 727 670.5 C 727 678.5 726.875 686.5 726.75 694.5 L 727.5 695.25 C 736.5 694.875 738.375 694.875 748.375 694.875 L 749.125 694.125 C 748.375 674.875 748.25 670 748.125 647.625 C 750.75 645.875 753.75 643.75 757.75 643.75 C 764.625 643.75 765.25 651.125 765.625 655.625 C 765.875 659.75 766 676.875 766 681.625 C 766 685.875 765.875 690.25 765.875 694.5 L 766.625 695.25 C 774.875 695 777 694.875 787 694.875 Z M 794.625 695 "/>
<path fill-rule="nonzero" fill="rgb(34.901961%, 14.901961%, 14.901961%)" fill-opacity="1" d="M 232.875 791.25 C 222.375 786.875 216.875 784.625 216.875 779 C 216.875 775.125 220.5 770.25 228.75 770.25 C 238.25 770.25 243.875 774.125 248.5 777.25 L 249.625 776.75 L 250.625 760.375 L 250 759.5 C 244.625 757.25 239 754.875 226.875 754.875 C 203.375 754.875 195.25 768.125 195.25 781.5 C 195.25 796.625 207 802.125 214 805.5 L 218.125 807.375 C 226.75 811 233.375 814.125 233.375 820.75 C 233.375 825.5 229.25 831.125 218.375 831.125 C 207 831.125 200.625 826.125 197 823.25 L 195.75 823.625 L 194.875 841.25 L 195.625 842.25 C 197 842.75 198.375 843.375 199.75 843.75 C 202.625 844.75 210 846.875 219.375 846.875 C 223.125 846.875 232.625 846.5 240.125 843 C 250.625 837.875 255.125 828.375 255.125 817.75 C 255.125 810.625 252.375 803 245.75 797.875 C 242.375 795.375 239.125 793.875 236.125 792.5 Z M 302 830.625 C 299.875 831.25 298.375 831.75 296.25 831.75 C 289.875 831.75 289.375 827.75 289.125 825.875 C 288.75 822.625 288.75 815.75 288.875 810.75 L 289.125 793.125 L 300.375 793.625 L 301.125 792.875 L 302.375 779.5 L 301.625 778.75 L 289.125 778.75 L 289.5 757.75 L 288.625 757 C 280.125 759.5 277.875 760.125 269 762.375 L 268.5 763.25 L 268.625 778.875 L 261.875 778.625 L 261.125 779.25 L 260 792.625 L 260.75 793.375 L 268.625 793.125 L 268.25 813 C 268.125 816.125 268 819.25 268 822.5 C 268 834 268.25 846.375 287.75 846.375 C 292.625 846.375 296.5 845.625 300.875 844.875 L 301.75 844 L 303 831.125 Z M 366.875 807.75 C 367 796.5 367 791.625 363.75 786.375 C 361.25 782.375 356.25 777.375 340.25 777.375 C 329.5 777.375 322.875 779.375 315.75 781.5 L 315 782.5 L 314.375 796.125 L 315.375 796.625 C 319.75 794.875 327.875 791.625 336.25 791.625 C 340.875 791.625 342.75 792.375 344.375 794 C 345.625 795.25 346 797.5 346 799.375 C 331 801.375 324 802.75 316.5 807.375 C 309.5 811.75 307.125 818.875 307.125 824.5 C 307.125 837.875 316.75 846.5 329 846.5 C 338.375 846.5 343.75 842 346.375 839.875 L 346.375 844.5 L 347.125 845.375 C 356.125 845 358.875 844.875 367 845 L 367.625 844.125 C 366.75 831.875 366.75 828.75 366.75 817 L 366.875 807.75 M 346.25 827.625 C 343.625 829.125 340.25 830.875 336.125 830.875 C 331.625 830.875 327.875 828.5 327.875 823.25 C 327.875 815 337.75 813.625 346.25 812.5 Z M 416.5 830.625 C 414.375 831.25 412.875 831.75 410.75 831.75 C 404.375 831.75 403.875 827.75 403.625 825.875 C 403.25 822.625 403.25 815.75 403.375 810.75 L 403.625 793.125 L 414.875 793.625 L 415.625 792.875 L 416.875 779.5 L 416.125 778.75 L 403.625 778.75 L 404 757.75 L 403.125 757 C 394.625 759.5 392.375 760.125 383.5 762.375 L 383 763.25 L 383.125 778.875 L 376.375 778.625 L 375.625 779.25 L 374.5 792.625 L 375.25 793.375 L 383.125 793.125 L 382.75 813 C 382.625 816.125 382.5 819.25 382.5 822.5 C 382.5 834 382.75 846.375 402.25 846.375 C 407.125 846.375 411 845.625 415.375 844.875 L 416.25 844 L 417.5 831.125 Z M 481.25 826.5 C 476.5 829 470.875 831.875 461.75 831.875 C 454.25 831.875 449.125 829.5 446.125 825 C 444.25 822.375 443.875 819.875 443.375 817.375 L 483.75 816.625 L 484.5 815.75 C 484.375 809.625 484.25 803.375 482.5 797.125 C 478.125 782.375 468.5 779.375 464.25 778.375 C 461.125 777.5 458.25 777.25 455.375 777.25 C 435.75 777.25 422.75 790.125 422.75 811.75 C 422.75 817.625 423.75 823.75 425.75 828.125 C 433 845 450 846.5 459 846.5 C 469.375 846.5 473.875 844.625 480.5 842 L 481.25 841 L 482.125 826.875 L 481.25 826.5 M 443.375 804.125 C 443.75 800.25 444.625 795 449.375 792 C 450.875 791 452.625 790.625 454.375 790.625 C 458.5 790.625 461 792.75 462.375 795 C 464.125 797.75 464.25 800.75 464.25 803.625 Z M 549.25 756.5 L 533.375 756.75 L 532.625 757.5 C 533.125 773.75 533.5 784.625 533.5 799 C 533.5 814.25 533.125 829.375 532.75 844.625 L 533.5 845.375 C 542.75 845 544.75 844.875 554.75 845 L 555.375 844.25 C 554.875 830.625 554.875 827.5 554.875 814.75 C 568.875 814.875 583.875 814.875 592.875 803.875 C 596.375 799.625 599.375 792.5 599.375 783.75 C 599.375 778.375 598.125 766.5 587.75 760.625 C 580.25 756.25 569.625 756.25 560.25 756.25 L 549.25 756.5 M 554.875 771.625 C 557.625 771.5 560.25 771.5 563 771.5 C 574 771.75 577 777.375 577 784.625 C 577 786.375 577 793.625 570.375 797.25 C 567 799.125 562.375 799.375 554.875 799.375 Z M 663.625 807.75 C 663.75 796.5 663.75 791.625 660.5 786.375 C 658 782.375 653 777.375 637 777.375 C 626.25 777.375 619.625 779.375 612.5 781.5 L 611.75 782.5 L 611.125 796.125 L 612.125 796.625 C 616.5 794.875 624.625 791.625 633 791.625 C 637.625 791.625 639.5 792.375 641.125 794 C 642.375 795.25 642.75 797.5 642.75 799.375 C 627.75 801.375 620.75 802.75 613.25 807.375 C 606.25 811.75 603.875 818.875 603.875 824.5 C 603.875 837.875 613.5 846.5 625.75 846.5 C 635.125 846.5 640.5 842 643.125 839.875 L 643.125 844.5 L 643.875 845.375 C 652.875 845 655.625 844.875 663.75 845 L 664.375 844.125 C 663.5 831.875 663.5 828.75 663.5 817 L 663.625 807.75 M 643 827.625 C 640.375 829.125 637 830.875 632.875 830.875 C 628.375 830.875 624.625 828.5 624.625 823.25 C 624.625 815 634.5 813.625 643 812.5 Z M 714.375 798.625 L 717.875 778.25 L 717.125 777.375 C 716.25 777.375 715.375 777.25 714.5 777.25 C 709.375 777.25 703.625 780.125 699.625 789.375 L 700 777.875 L 699 776.875 C 689.75 778.875 687.375 779.25 678.25 780.625 L 677.5 781.375 C 678.25 790.75 678.625 796.375 678.625 813.75 C 678.625 824 678.5 834.25 678.25 844.625 L 679 845.375 C 688.25 845 690.25 844.875 700.25 845 L 700.875 844.125 C 700.375 834 699.625 819.875 699.625 811.25 C 699.625 805.625 699.625 797.375 708.125 797.375 C 710.25 797.375 711.5 798.125 713.25 799.125 Z M 789.375 843.375 C 777.625 823.5 776.375 821.25 766.875 804.125 C 775.5 792.375 776.375 791.125 785.25 779.75 L 784.625 778.5 L 764.25 778.75 L 763 779.625 C 753.25 796.5 752 798.5 746.25 807.125 L 746.25 793.25 C 746.375 769.875 746.5 764.875 747.125 746 L 746.125 745.25 L 724.375 748.5 L 723.625 749.375 C 724.5 761.5 724.875 767.375 725.125 783.75 C 725.375 804 725.375 824.25 725.25 844.5 L 726.125 845.375 C 734.5 845 736.875 845 746.375 845 L 747.125 844.125 L 746.375 823 L 746.25 808.625 C 757.125 828.625 758.5 831.375 764.875 844.625 L 766 845.375 L 788.5 844.5 Z M 787.875 845 "/>
</svg>
