<?xml version="1.0" encoding="UTF-8"?>
<svg xmlns="http://www.w3.org/2000/svg" xmlns:xlink="http://www.w3.org/1999/xlink" width="975" height="1300" viewBox="0 0 975 1300">
<path fill-rule="nonzero" fill="rgb(34.901961%, 14.901961%, 14.901961%)" fill-opacity="1" d="M 240.5 456.5 L 224.625 456.75 L 223.875 457.5 C 224.375 473.75 224.75 484.625 224.75 499 C 224.75 514.25 224.375 529.375 224 544.625 L 224.75 545.375 C 234 545 236 544.875 246 545 L 246.625 544.25 C 246.125 530.625 246.125 527.5 246.125 514.75 C 260.125 514.875 275.125 514.875 284.125 503.875 C 287.625 499.625 290.625 492.5 290.625 483.75 C 290.625 478.375 289.375 466.5 279 460.625 C 271.5 456.25 260.875 456.25 251.5 456.25 L 240.5 456.5 M 246.125 471.625 C 248.875 471.5 251.5 471.5 254.25 471.5 C 265.25 471.75 268.25 477.375 268.25 484.625 C 268.25 486.375 268.25 493.625 261.625 497.25 C 258.25 499.125 253.625 499.375 246.125 499.375 Z M 354.75 526.5 C 350 529 344.375 531.875 335.25 531.875 C 327.75 531.875 322.625 529.5 319.625 525 C 317.75 522.375 317.375 519.875 316.875 517.375 L 357.25 516.625 L 358 515.75 C 357.875 509.625 357.75 503.375 356 497.125 C 351.625 482.375 342 479.375 337.75 478.375 C 334.625 477.5 331.75 477.25 328.875 477.25 C 309.25 477.25 296.25 490.125 296.25 511.75 C 296.25 517.625 297.25 523.75 299.25 528.125 C 306.5 545 323.5 546.5 332.5 546.5 C 342.875 546.5 347.375 544.625 354 542 L 354.75 541 L 355.625 526.875 L 354.75 526.5 M 316.875 504.125 C 317.25 500.25 318.125 495 322.875 492 C 324.375 491 326.125 490.625 327.875 490.625 C 332 490.625 334.5 492.75 335.875 495 C 337.625 497.75 337.75 500.75 337.75 503.625 Z M 404.5 530.625 C 402.375 531.25 400.875 531.75 398.75 531.75 C 392.375 531.75 391.875 527.75 391.625 525.875 C 391.25 522.625 391.25 515.75 391.375 510.75 L 391.625 493.125 L 402.875 493.625 L 403.625 492.875 L 404.875 479.5 L 404.125 478.75 L 391.625 478.75 L 392 457.75 L 391.125 457 C 382.625 459.5 380.375 460.125 371.5 462.375 L 371 463.25 L 371.125 478.875 L 364.375 478.625 L 363.625 479.25 L 362.5 492.625 L 363.25 493.375 L 371.125 493.125 L 370.75 513 C 370.625 516.125 370.5 519.25 370.5 522.5 C 370.5 534 370.75 546.375 390.25 546.375 C 395.125 546.375 399 545.625 403.375 544.875 L 404.25 544 L 405.5 531.125 Z M 469.375 507.75 C 469.5 496.5 469.5 491.625 466.25 486.375 C 463.75 482.375 458.75 477.375 442.75 477.375 C 432 477.375 425.375 479.375 418.25 481.5 L 417.5 482.5 L 416.875 496.125 L 417.875 496.625 C 422.25 494.875 430.375 491.625 438.75 491.625 C 443.375 491.625 445.25 492.375 446.875 494 C 448.125 495.25 448.5 497.5 448.5 499.375 C 433.5 501.375 426.5 502.75 419 507.375 C 412 511.75 409.625 518.875 409.625 524.5 C 409.625 537.875 419.25 546.5 431.5 546.5 C 440.875 546.5 446.25 542 448.875 539.875 L 448.875 544.5 L 449.625 545.375 C 458.625 545 461.375 544.875 469.5 545 L 470.125 544.125 C 469.25 531.875 469.25 528.75 469.25 517 L 469.375 507.75 M 448.75 527.625 C 446.125 529.125 442.75 530.875 438.625 530.875 C 434.125 530.875 430.375 528.5 430.375 523.25 C 430.375 515 440.25 513.625 448.75 512.5 Z M 506 544.125 C 505.375 529.75 504.75 516.625 504.75 477.125 C 504.75 465.25 504.875 459.625 505.375 446.125 L 504.5 445.25 L 483.125 448.625 L 482.625 449.375 C 483.875 464.625 484 468.75 484.25 489 C 484.375 496.375 484.375 503.75 484.375 511.125 C 484.375 524.625 484.125 532.125 483.625 544.5 L 484.375 545.375 C 492.75 545 496.125 544.875 505.25 545 Z M 580.5 478.125 L 560.125 479.125 L 559.25 479.875 C 560.125 494 560.125 514 560.125 516 C 560.125 519.625 560.125 521.625 560 526.625 C 556.625 528.875 554 530.75 550.625 530.75 C 541.625 530.75 541.625 521.25 541.625 513.875 C 541.625 510.75 541.625 507.5 541.75 504.375 L 542 479.125 L 541.125 478.125 L 520.5 479.125 L 519.625 479.875 C 520.375 490.375 520.5 493.875 520.5 506.5 L 520.5 515.25 C 520.375 528.875 521 534.625 525.5 539.875 C 529.625 544.5 535.625 546.5 541.875 546.5 C 550.75 546.5 555.875 542.5 560.375 539 L 560.25 544.625 L 561.125 545.375 C 570.25 545 573 545 581.125 545 L 581.875 544.25 C 581.25 535.375 581 530.625 581 514.375 C 581 502.625 581.125 490.875 581.375 479.125 Z M 693.625 544.125 C 693 532.5 692.875 529.25 692.875 515.125 L 692.875 505.75 C 693 497.375 693.125 489.625 689.5 484.375 C 684.625 477.25 676 477.25 674 477.25 C 663.75 477.25 656.875 481.875 651.875 485.375 C 650.125 482.5 647 477.25 637 477.25 C 628.75 477.25 623.375 481 617.625 485 L 617.625 478 L 616.5 476.875 C 606.75 478.75 604 479.25 595.25 480.5 L 594.5 481.375 C 595.5 491.375 596.25 498.25 596.25 523 C 596.25 530.125 596.125 537.375 596.125 544.5 L 596.75 545.25 C 604.75 545 607.5 544.875 617.875 544.875 L 618.625 544.125 C 617.75 524.875 617.625 519.125 617.5 497.375 C 620.125 495.5 623 493.875 626.125 493.875 C 633.875 493.875 634.125 502.75 634.125 513.5 C 634.125 531.625 634 534.375 633.75 544.5 L 634.5 545.375 C 644 544.875 646.625 544.875 655.25 544.875 L 656 544.125 C 655.25 532.25 655.125 528.75 655 513.625 L 655 509 L 654.875 496.375 C 657 495 659.75 493.25 663.5 493.25 C 670.625 493.25 671.75 500 671.75 510.75 C 671.75 513.125 671.625 515.5 671.625 517.875 C 671.5 522.125 671.375 540.75 671.25 544.5 L 672 545.25 C 681.375 544.875 684.125 544.875 692.875 544.875 Z M 763.625 507.75 C 763.75 496.5 763.75 491.625 760.5 486.375 C 758 482.375 753 477.375 737 477.375 C 726.25 477.375 719.625 479.375 712.5 481.5 L 711.75 482.5 L 711.125 496.125 L 712.125 496.625 C 716.5 494.875 724.625 491.625 733 491.625 C 737.625 491.625 739.5 492.375 741.125 494 C 742.375 495.25 742.75 497.5 742.75 499.375 C 727.75 501.375 720.75 502.75 713.25 507.375 C 706.25 511.75 703.875 518.875 703.875 524.5 C 703.875 537.875 713.5 546.5 725.75 546.5 C 735.125 546.5 740.5 542 743.125 539.875 L 743.125 544.5 L 743.875 545.375 C 752.875 545 755.625 544.875 763.75 545 L 764.375 544.125 C 763.5 531.875 763.5 528.75 763.5 517 L 763.625 507.75 M 743 527.625 C 740.375 529.125 737 530.875 732.875 530.875 C 728.375 530.875 724.625 528.5 724.625 523.25 C 724.625 515 734.5 513.625 743 512.5 Z M 770.75 545 "/>
<path fill-rule="nonzero" fill="rgb(34.901961%, 14.901961%, 14.901961%)" fill-opacity="1" d="M 188.6875 606.375 C 176.6875 606.75 174.1875 606.75 160.8125 606.75 L 159.9375 607.5 C 153.3125 628.75 149.3125 641.375 130.9375 694.125 L 131.4375 695 L 150.9375 695 L 151.8125 694.25 L 157.9375 671.5 L 184.9375 671.5 L 190.3125 694.625 L 191.1875 695.375 C 200.3125 695 202.8125 694.875 212.9375 695 L 213.5625 694 C 198.4375 640.5 196.6875 634.625 189.5625 607.125 L 188.6875 606.375 M 162.3125 656.375 L 168.5625 635.25 L 172.9375 620.625 L 176.6875 636.875 L 181.3125 656.375 Z M 282.8125 694.25 C 282.3125 683 281.9375 675.5 281.9375 659.125 C 281.9375 626.125 282.4375 612.5 282.9375 596 L 282.0625 595.25 L 261.4375 598.5 L 260.8125 599.25 C 261.5625 611 261.6875 614.125 261.5625 628.375 C 252.1875 628.125 240.4375 627.875 230.9375 635.375 C 222.1875 642.125 218.5625 652.5 218.5625 665.375 C 218.5625 675.125 221.1875 684.875 228.5625 691 C 234.0625 695.5 240.8125 696.5 244.9375 696.5 C 253.8125 696.5 258.4375 692.375 261.4375 689.75 L 261.1875 694.625 L 261.8125 695.375 C 270.4375 695 272.8125 695 282.1875 695 L 282.8125 694.25 M 261.5625 643.375 C 261.6875 660 261.5625 663.25 261.1875 678.375 C 258.6875 679.875 256.1875 681.375 252.6875 681.375 C 240.5625 681.375 240.5625 665.875 240.5625 663.375 C 240.5625 653.75 243.3125 643 257.3125 643 C 258.6875 643 259.8125 643.125 261.5625 643.375 Z M 360.6875 661.75 C 360.6875 656.875 360.6875 636.625 343.1875 629.75 C 337.6875 627.625 331.1875 627.375 327.9375 627.375 C 306.1875 627.375 293.9375 639 293.9375 662 C 293.9375 670 295.1875 678.125 299.8125 684.875 C 303.0625 689.75 309.1875 696.5 327.0625 696.5 C 353.5625 696.5 360.6875 680.5 360.6875 661.75 M 339.0625 661.625 C 339.0625 671.875 337.6875 683.25 327.3125 683.25 C 324.0625 683.25 321.8125 681.75 320.3125 680.375 C 318.1875 678.25 315.8125 674 315.8125 661.875 C 315.8125 658.25 315.8125 650.25 318.3125 645.875 C 320.1875 642.5 323.4375 640.25 327.4375 640.25 C 330.9375 640.25 333.8125 642.125 335.4375 644.125 C 338.4375 647.75 339.0625 654.875 339.0625 661.625 Z M 381.5625 695.25 L 384.0625 695.25 C 404.0625 695.25 416.9375 694.25 426.4375 684.125 C 435.3125 674.625 436.1875 663.375 436.1875 658.125 C 436.1875 640.75 426.1875 627.25 409.1875 627.25 C 400.9375 627.25 396.5625 630 393.0625 632.25 L 393.8125 596 L 392.8125 595.25 L 372.0625 598.5 L 371.3125 599.375 C 372.3125 609.875 372.6875 614.125 372.6875 639.25 C 372.6875 650 372.5625 671.25 372.4375 694.5 L 373.3125 695.375 L 381.5625 695.25 M 393.5625 644.625 C 396.0625 643.375 398.4375 642.125 401.6875 642.125 C 409.9375 642.125 414.6875 649.5 414.6875 661 C 414.6875 670 410.6875 675.875 407.3125 678.25 C 403.1875 681.125 397.8125 681.25 393.5625 681.375 Z M 503.5625 676.5 C 498.8125 679 493.1875 681.875 484.0625 681.875 C 476.5625 681.875 471.4375 679.5 468.4375 675 C 466.5625 672.375 466.1875 669.875 465.6875 667.375 L 506.0625 666.625 L 506.8125 665.75 C 506.6875 659.625 506.5625 653.375 504.8125 647.125 C 500.4375 632.375 490.8125 629.375 486.5625 628.375 C 483.4375 627.5 480.5625 627.25 477.6875 627.25 C 458.0625 627.25 445.0625 640.125 445.0625 661.75 C 445.0625 667.625 446.0625 673.75 448.0625 678.125 C 455.3125 695 472.3125 696.5 481.3125 696.5 C 491.6875 696.5 496.1875 694.625 502.8125 692 L 503.5625 691 L 504.4375 676.875 L 503.5625 676.5 M 465.6875 654.125 C 466.0625 650.25 466.9375 645 471.6875 642 C 473.1875 641 474.9375 640.625 476.6875 640.625 C 480.8125 640.625 483.3125 642.75 484.6875 645 C 486.4375 647.75 486.5625 650.75 486.5625 653.625 Z M 590.9375 641.25 C 580.4375 636.875 574.9375 634.625 574.9375 629 C 574.9375 625.125 578.5625 620.25 586.8125 620.25 C 596.3125 620.25 601.9375 624.125 606.5625 627.25 L 607.6875 626.75 L 608.6875 610.375 L 608.0625 609.5 C 602.6875 607.25 597.0625 604.875 584.9375 604.875 C 561.4375 604.875 553.3125 618.125 553.3125 631.5 C 553.3125 646.625 565.0625 652.125 572.0625 655.5 L 576.1875 657.375 C 584.8125 661 591.4375 664.125 591.4375 670.75 C 591.4375 675.5 587.3125 681.125 576.4375 681.125 C 565.0625 681.125 558.6875 676.125 555.0625 673.25 L 553.8125 673.625 L 552.9375 691.25 L 553.6875 692.25 C 555.0625 692.75 556.4375 693.375 557.8125 693.75 C 560.6875 694.75 568.0625 696.875 577.4375 696.875 C 581.1875 696.875 590.6875 696.5 598.1875 693 C 608.6875 687.875 613.1875 678.375 613.1875 667.75 C 613.1875 660.625 610.4375 653 603.8125 647.875 C 600.4375 645.375 597.1875 643.875 594.1875 642.5 Z M 660.0625 680.625 C 657.9375 681.25 656.4375 681.75 654.3125 681.75 C 647.9375 681.75 647.4375 677.75 647.1875 675.875 C 646.8125 672.625 646.8125 665.75 646.9375 660.75 L 647.1875 643.125 L 658.4375 643.625 L 659.1875 642.875 L 660.4375 629.5 L 659.6875 628.75 L 647.1875 628.75 L 647.5625 607.75 L 646.6875 607 C 638.1875 609.5 635.9375 610.125 627.0625 612.375 L 626.5625 613.25 L 626.6875 628.875 L 619.9375 628.625 L 619.1875 629.25 L 618.0625 642.625 L 618.8125 643.375 L 626.6875 643.125 L 626.3125 663 C 626.1875 666.125 626.0625 669.25 626.0625 672.5 C 626.0625 684 626.3125 696.375 645.8125 696.375 C 650.6875 696.375 654.5625 695.625 658.9375 694.875 L 659.8125 694 L 661.0625 681.125 Z M 724.9375 657.75 C 725.0625 646.5 725.0625 641.625 721.8125 636.375 C 719.3125 632.375 714.3125 627.375 698.3125 627.375 C 687.5625 627.375 680.9375 629.375 673.8125 631.5 L 673.0625 632.5 L 672.4375 646.125 L 673.4375 646.625 C 677.8125 644.875 685.9375 641.625 694.3125 641.625 C 698.9375 641.625 700.8125 642.375 702.4375 644 C 703.6875 645.25 704.0625 647.5 704.0625 649.375 C 689.0625 651.375 682.0625 652.75 674.5625 657.375 C 667.5625 661.75 665.1875 668.875 665.1875 674.5 C 665.1875 687.875 674.8125 696.5 687.0625 696.5 C 696.4375 696.5 701.8125 692 704.4375 689.875 L 704.4375 694.5 L 705.1875 695.375 C 714.1875 695 716.9375 694.875 725.0625 695 L 725.6875 694.125 C 724.8125 681.875 724.8125 678.75 724.8125 667 L 724.9375 657.75 M 704.3125 677.625 C 701.6875 679.125 698.3125 680.875 694.1875 680.875 C 689.6875 680.875 685.9375 678.5 685.9375 673.25 C 685.9375 665 695.8125 663.625 704.3125 662.5 Z M 774.5625 680.625 C 772.4375 681.25 770.9375 681.75 768.8125 681.75 C 762.4375 681.75 761.9375 677.75 761.6875 675.875 C 761.3125 672.625 761.3125 665.75 761.4375 660.75 L 761.6875 643.125 L 772.9375 643.625 L 773.6875 642.875 L 774.9375 629.5 L 774.1875 628.75 L 761.6875 628.75 L 762.0625 607.75 L 761.1875 607 C 752.6875 609.5 750.4375 610.125 741.5625 612.375 L 741.0625 613.25 L 741.1875 628.875 L 734.4375 628.625 L 733.6875 629.25 L 732.5625 642.625 L 733.3125 643.375 L 741.1875 643.125 L 740.8125 663 C 740.6875 666.125 740.5625 669.25 740.5625 672.5 C 740.5625 684 740.8125 696.375 760.3125 696.375 C 765.1875 696.375 769.0625 695.625 773.4375 694.875 L 774.3125 694 L 775.5625 681.125 Z M 839.3125 676.5 C 834.5625 679 828.9375 681.875 819.8125 681.875 C 812.3125 681.875 807.1875 679.5 804.1875 675 C 802.3125 672.375 801.9375 669.875 801.4375 667.375 L 841.8125 666.625 L 842.5625 665.75 C 842.4375 659.625 842.3125 653.375 840.5625 647.125 C 836.1875 632.375 826.5625 629.375 822.3125 628.375 C 819.1875 627.5 816.3125 627.25 813.4375 627.25 C 793.8125 627.25 780.8125 640.125 780.8125 661.75 C 780.8125 667.625 781.8125 673.75 783.8125 678.125 C 791.0625 695 808.0625 696.5 817.0625 696.5 C 827.4375 696.5 831.9375 694.625 838.5625 692 L 839.3125 691 L 840.1875 676.875 L 839.3125 676.5 M 801.4375 654.125 C 801.8125 650.25 802.6875 645 807.4375 642 C 808.9375 641 810.6875 640.625 812.4375 640.625 C 816.5625 640.625 819.0625 642.75 820.4375 645 C 822.1875 647.75 822.3125 650.75 822.3125 653.625 Z M 846.5625 695 "/>
<path fill-rule="nonzero" fill="rgb(34.901961%, 14.901961%, 14.901961%)" fill-opacity="1" d="M 196.8125 756.375 C 186.8125 756.75 185.1875 756.75 174.6875 756.75 L 174.0625 757.5 C 174.9375 771.625 174.9375 775.25 175.0625 790 C 169.5625 790.125 164.0625 790.25 158.4375 790.25 C 154.0625 790.25 149.5625 790.125 145.1875 790.125 L 145.4375 757.125 L 144.8125 756.375 C 135.1875 756.75 133.3125 756.75 122.4375 756.75 L 121.6875 757.5 C 122.3125 770.375 123.0625 785.75 123.0625 816.75 C 123.0625 828 122.8125 834.125 122.5625 844.625 L 123.1875 845.375 C 132.3125 845 134.5625 844.875 145.5625 845 L 146.1875 844.25 C 145.4375 828.75 145.3125 824.25 145.1875 806.125 C 150.6875 805.875 155.3125 805.75 160.1875 805.75 C 165.1875 805.75 170.1875 805.875 175.1875 806 C 175.4375 822.875 175.4375 827 174.8125 844.625 L 175.4375 845.375 C 184.8125 845 187.3125 844.875 197.9375 845 L 198.5625 844.25 C 197.5625 823.25 197.1875 802.375 197.1875 781.375 C 197.1875 772.625 197.3125 766.75 197.4375 757.125 Z M 235.6875 844.125 C 235.0625 834.5 234.5625 827.125 234.5625 809.875 C 234.5625 799.25 234.8125 788.5 234.9375 777.875 L 234.0625 776.875 L 212.5625 780.625 L 211.8125 781.375 C 212.8125 790.875 213.1875 795.25 213.1875 813 C 213.1875 826.625 212.8125 834.25 212.4375 844.5 L 213.1875 845.375 C 222.1875 845 224.6875 844.875 234.8125 845 L 235.6875 844.125 M 233.6875 764.875 L 234.0625 747.875 L 233.3125 747.125 L 212.9375 749.625 L 212.1875 750.5 C 212.4375 755 212.5625 757.625 212.5625 760.625 C 212.5625 763 212.5625 765.5 212.4375 767.875 L 213.3125 768.625 C 221.8125 767.125 224.1875 766.875 233.0625 765.75 Z M 275.8125 801.875 C 271.5625 800.375 268.1875 799 268.1875 795.5 C 268.1875 794 269.1875 789.875 276.9375 789.875 C 284.5625 789.875 289.4375 793.125 292.5625 795.125 L 293.6875 794.75 L 294.9375 781.125 L 294.3125 780.375 C 288.4375 778.75 283.3125 777.25 275.1875 777.25 C 269.0625 777.25 256.8125 777.75 250.3125 787.125 C 248.6875 789.375 246.9375 793.125 246.9375 798.125 C 246.9375 811.5 257.3125 815.5 263.1875 817.75 L 267.9375 819.5 C 271.3125 820.625 276.8125 822.5 276.8125 827 C 276.8125 830.125 273.9375 833.5 266.9375 833.5 C 263.4375 833.5 258.3125 832.375 253.6875 830 C 251.5625 828.875 250.5625 828 248.6875 826.5 L 247.5625 827 C 247.3125 833.5 247.1875 834.875 246.6875 841.125 L 247.3125 842.25 C 253.4375 844.5 258.6875 846.5 267.8125 846.5 C 277.3125 846.5 296.0625 844.75 298.3125 826.875 C 298.4375 825.875 298.4375 825 298.4375 824.125 C 298.4375 810.375 288.8125 806.75 281.9375 804.125 Z M 344.4375 830.625 C 342.3125 831.25 340.8125 831.75 338.6875 831.75 C 332.3125 831.75 331.8125 827.75 331.5625 825.875 C 331.1875 822.625 331.1875 815.75 331.3125 810.75 L 331.5625 793.125 L 342.8125 793.625 L 343.5625 792.875 L 344.8125 779.5 L 344.0625 778.75 L 331.5625 778.75 L 331.9375 757.75 L 331.0625 757 C 322.5625 759.5 320.3125 760.125 311.4375 762.375 L 310.9375 763.25 L 311.0625 778.875 L 304.3125 778.625 L 303.5625 779.25 L 302.4375 792.625 L 303.1875 793.375 L 311.0625 793.125 L 310.6875 813 C 310.5625 816.125 310.4375 819.25 310.4375 822.5 C 310.4375 834 310.6875 846.375 330.1875 846.375 C 335.0625 846.375 338.9375 845.625 343.3125 844.875 L 344.1875 844 L 345.4375 831.125 Z M 417.3125 811.75 C 417.3125 806.875 417.3125 786.625 399.8125 779.75 C 394.3125 777.625 387.8125 777.375 384.5625 777.375 C 362.8125 777.375 350.5625 789 350.5625 812 C 350.5625 820 351.8125 828.125 356.4375 834.875 C 359.6875 839.75 365.8125 846.5 383.6875 846.5 C 410.1875 846.5 417.3125 830.5 417.3125 811.75 M 395.6875 811.625 C 395.6875 821.875 394.3125 833.25 383.9375 833.25 C 380.6875 833.25 378.4375 831.75 376.9375 830.375 C 374.8125 828.25 372.4375 824 372.4375 811.875 C 372.4375 808.25 372.4375 800.25 374.9375 795.875 C 376.8125 792.5 380.0625 790.25 384.0625 790.25 C 387.5625 790.25 390.4375 792.125 392.0625 794.125 C 395.0625 797.75 395.6875 804.875 395.6875 811.625 Z M 465.3125 798.625 L 468.8125 778.25 L 468.0625 777.375 C 467.1875 777.375 466.3125 777.25 465.4375 777.25 C 460.3125 777.25 454.5625 780.125 450.5625 789.375 L 450.9375 777.875 L 449.9375 776.875 C 440.6875 778.875 438.3125 779.25 429.1875 780.625 L 428.4375 781.375 C 429.1875 790.75 429.5625 796.375 429.5625 813.75 C 429.5625 824 429.4375 834.25 429.1875 844.625 L 429.9375 845.375 C 439.1875 845 441.1875 844.875 451.1875 845 L 451.8125 844.125 C 451.3125 834 450.5625 819.875 450.5625 811.25 C 450.5625 805.625 450.5625 797.375 459.0625 797.375 C 461.1875 797.375 462.4375 798.125 464.1875 799.125 Z M 498.6875 844.125 C 498.0625 834.5 497.5625 827.125 497.5625 809.875 C 497.5625 799.25 497.8125 788.5 497.9375 777.875 L 497.0625 776.875 L 475.5625 780.625 L 474.8125 781.375 C 475.8125 790.875 476.1875 795.25 476.1875 813 C 476.1875 826.625 475.8125 834.25 475.4375 844.5 L 476.1875 845.375 C 485.1875 845 487.6875 844.875 497.8125 845 L 498.6875 844.125 M 496.6875 764.875 L 497.0625 747.875 L 496.3125 747.125 L 475.9375 749.625 L 475.1875 750.5 C 475.4375 755 475.5625 757.625 475.5625 760.625 C 475.5625 763 475.5625 765.5 475.4375 767.875 L 476.3125 768.625 C 484.8125 767.125 487.1875 766.875 496.0625 765.75 Z M 561.4375 827 C 558.0625 829 554.8125 831 548.4375 831 C 534.3125 831 531.4375 819.25 531.4375 811.75 C 531.4375 802.625 535.4375 792.125 547.5625 792.125 C 553.0625 792.125 556.0625 794.125 559.8125 796.625 L 561.0625 796.25 C 561.5625 789.625 561.6875 787.875 562.6875 781.25 L 562.0625 780.5 C 556.5625 778.75 551.8125 777.25 544.5625 777.25 C 515.1875 777.25 509.4375 799.5 509.4375 812.25 C 509.4375 826.625 516.9375 846.125 545.0625 846.125 C 551.6875 846.125 555.9375 844.875 561.1875 843.375 L 561.9375 842.625 L 562.4375 827.625 Z M 625.6875 756.5 L 609.8125 756.75 L 609.0625 757.5 C 609.5625 773.75 609.9375 784.625 609.9375 799 C 609.9375 814.25 609.5625 829.375 609.1875 844.625 L 609.9375 845.375 C 619.1875 845 621.1875 844.875 631.1875 845 L 631.8125 844.25 C 631.3125 830.625 631.3125 827.5 631.3125 814.75 C 645.3125 814.875 660.3125 814.875 669.3125 803.875 C 672.8125 799.625 675.8125 792.5 675.8125 783.75 C 675.8125 778.375 674.5625 766.5 664.1875 760.625 C 656.6875 756.25 646.0625 756.25 636.6875 756.25 L 625.6875 756.5 M 631.3125 771.625 C 634.0625 771.5 636.6875 771.5 639.4375 771.5 C 650.4375 771.75 653.4375 777.375 653.4375 784.625 C 653.4375 786.375 653.4375 793.625 646.8125 797.25 C 643.4375 799.125 638.8125 799.375 631.3125 799.375 Z M 740.0625 807.75 C 740.1875 796.5 740.1875 791.625 736.9375 786.375 C 734.4375 782.375 729.4375 777.375 713.4375 777.375 C 702.6875 777.375 696.0625 779.375 688.9375 781.5 L 688.1875 782.5 L 687.5625 796.125 L 688.5625 796.625 C 692.9375 794.875 701.0625 791.625 709.4375 791.625 C 714.0625 791.625 715.9375 792.375 717.5625 794 C 718.8125 795.25 719.1875 797.5 719.1875 799.375 C 704.1875 801.375 697.1875 802.75 689.6875 807.375 C 682.6875 811.75 680.3125 818.875 680.3125 824.5 C 680.3125 837.875 689.9375 846.5 702.1875 846.5 C 711.5625 846.5 716.9375 842 719.5625 839.875 L 719.5625 844.5 L 720.3125 845.375 C 729.3125 845 732.0625 844.875 740.1875 845 L 740.8125 844.125 C 739.9375 831.875 739.9375 828.75 739.9375 817 L 740.0625 807.75 M 719.4375 827.625 C 716.8125 829.125 713.4375 830.875 709.3125 830.875 C 704.8125 830.875 701.0625 828.5 701.0625 823.25 C 701.0625 815 710.9375 813.625 719.4375 812.5 Z M 790.8125 798.625 L 794.3125 778.25 L 793.5625 777.375 C 792.6875 777.375 791.8125 777.25 790.9375 777.25 C 785.8125 777.25 780.0625 780.125 776.0625 789.375 L 776.4375 777.875 L 775.4375 776.875 C 766.1875 778.875 763.8125 779.25 754.6875 780.625 L 753.9375 781.375 C 754.6875 790.75 755.0625 796.375 755.0625 813.75 C 755.0625 824 754.9375 834.25 754.6875 844.625 L 755.4375 845.375 C 764.6875 845 766.6875 844.875 776.6875 845 L 777.3125 844.125 C 776.8125 834 776.0625 819.875 776.0625 811.25 C 776.0625 805.625 776.0625 797.375 784.5625 797.375 C 786.6875 797.375 787.9375 798.125 789.6875 799.125 Z M 865.8125 843.375 C 854.0625 823.5 852.8125 821.25 843.3125 804.125 C 851.9375 792.375 852.8125 791.125 861.6875 779.75 L 861.0625 778.5 L 840.6875 778.75 L 839.4375 779.625 C 829.6875 796.5 828.4375 798.5 822.6875 807.125 L 822.6875 793.25 C 822.8125 769.875 822.9375 764.875 823.5625 746 L 822.5625 745.25 L 800.8125 748.5 L 800.0625 749.375 C 800.9375 761.5 801.3125 767.375 801.5625 783.75 C 801.8125 804 801.8125 824.25 801.6875 844.5 L 802.5625 845.375 C 810.9375 845 813.3125 845 822.8125 845 L 823.5625 844.125 L 822.8125 823 L 822.6875 808.625 C 833.5625 828.625 834.9375 831.375 841.3125 844.625 L 842.4375 845.375 L 864.9375 844.5 Z M 864.3125 845 "/>
</svg>
