<?xml version="1.0" encoding="UTF-8"?>
<svg xmlns="http://www.w3.org/2000/svg" xmlns:xlink="http://www.w3.org/1999/xlink" width="975" height="1300" viewBox="0 0 975 1300">
<path fill-rule="nonzero" fill="rgb(34.901961%, 14.901961%, 14.901961%)" fill-opacity="1" d="M 128.25 545.25 C 131.375 545.5 133.75 545.75 136.625 545.75 C 164.875 545.75 164.875 528.75 164.875 516.25 C 164.875 513.125 164.75 510 164.625 506.875 L 164.625 457.125 L 164 456.375 C 154.375 456.75 152.375 456.75 142 456.75 L 141.375 457.5 C 142 475.25 142.5 490.625 142.5 508.75 C 142.5 520.25 142.5 529.125 132.875 529.125 C 131 529.125 130 528.75 128.375 528.25 L 127.625 529 L 127.625 544.375 Z M 235.25 507.75 C 235.375 496.5 235.375 491.625 232.125 486.375 C 229.625 482.375 224.625 477.375 208.625 477.375 C 197.875 477.375 191.25 479.375 184.125 481.5 L 183.375 482.5 L 182.75 496.125 L 183.75 496.625 C 188.125 494.875 196.25 491.625 204.625 491.625 C 209.25 491.625 211.125 492.375 212.75 494 C 214 495.25 214.375 497.5 214.375 499.375 C 199.375 501.375 192.375 502.75 184.875 507.375 C 177.875 511.75 175.5 518.875 175.5 524.5 C 175.5 537.875 185.125 546.5 197.375 546.5 C 206.75 546.5 212.125 542 214.75 539.875 L 214.75 544.5 L 215.5 545.375 C 224.5 545 227.25 544.875 235.375 545 L 236 544.125 C 235.125 531.875 235.125 528.75 235.125 517 L 235.25 507.75 M 214.625 527.625 C 212 529.125 208.625 530.875 204.5 530.875 C 200 530.875 196.25 528.5 196.25 523.25 C 196.25 515 206.125 513.625 214.625 512.5 Z M 298.75 527 C 295.375 529 292.125 531 285.75 531 C 271.625 531 268.75 519.25 268.75 511.75 C 268.75 502.625 272.75 492.125 284.875 492.125 C 290.375 492.125 293.375 494.125 297.125 496.625 L 298.375 496.25 C 298.875 489.625 299 487.875 300 481.25 L 299.375 480.5 C 293.875 478.75 289.125 477.25 281.875 477.25 C 252.5 477.25 246.75 499.5 246.75 512.25 C 246.75 526.625 254.25 546.125 282.375 546.125 C 289 546.125 293.25 544.875 298.5 543.375 L 299.25 542.625 L 299.75 527.625 Z M 374 543.375 C 362.25 523.5 361 521.25 351.5 504.125 C 360.125 492.375 361 491.125 369.875 479.75 L 369.25 478.5 L 348.875 478.75 L 347.625 479.625 C 337.875 496.5 336.625 498.5 330.875 507.125 L 330.875 493.25 C 331 469.875 331.125 464.875 331.75 446 L 330.75 445.25 L 309 448.5 L 308.25 449.375 C 309.125 461.5 309.5 467.375 309.75 483.75 C 310 504 310 524.25 309.875 544.5 L 310.75 545.375 C 319.125 545 321.5 545 331 545 L 331.75 544.125 L 331 523 L 330.875 508.625 C 341.75 528.625 343.125 531.375 349.5 544.625 L 350.625 545.375 L 373.125 544.5 Z M 470.25 527.875 C 456.625 528.625 445.75 528.875 442 528.875 L 439.5 528.875 C 439.25 495.5 439.375 487 440.375 457.125 L 439.625 456.375 C 428.875 456.875 426 456.875 417.375 456.75 L 416.625 457.5 C 417.125 467.5 417.25 470.5 417.25 485.375 C 417.25 505.125 417.125 524.875 417.125 544.625 L 417.75 545.375 C 442.25 545 446.75 545 469.25 545 L 469.875 544.25 L 470.875 528.5 Z M 545.25 511.75 C 545.25 506.875 545.25 486.625 527.75 479.75 C 522.25 477.625 515.75 477.375 512.5 477.375 C 490.75 477.375 478.5 489 478.5 512 C 478.5 520 479.75 528.125 484.375 534.875 C 487.625 539.75 493.75 546.5 511.625 546.5 C 538.125 546.5 545.25 530.5 545.25 511.75 M 523.625 511.625 C 523.625 521.875 522.25 533.25 511.875 533.25 C 508.625 533.25 506.375 531.75 504.875 530.375 C 502.75 528.25 500.375 524 500.375 511.875 C 500.375 508.25 500.375 500.25 502.875 495.875 C 504.75 492.5 508 490.25 512 490.25 C 515.5 490.25 518.375 492.125 520 494.125 C 523 497.75 523.625 504.875 523.625 511.625 Z M 618.375 544.125 C 617.75 533.125 617.75 529.625 617.5 517.375 L 617.5 507.625 C 617.375 495.625 617.25 489.875 614.125 484.75 C 610.25 478.25 603.125 477.25 598.625 477.25 C 591 477.25 584.375 481.25 578.625 484.625 L 578.875 477.75 L 577.625 476.875 C 568 478.875 565.875 479.25 556.5 480.5 L 555.75 481.375 C 556.75 492.25 557.5 500.125 557.5 520.5 C 557.5 528.5 557.375 536.5 557.25 544.5 L 558 545.25 C 567 544.875 568.875 544.875 578.875 544.875 L 579.625 544.125 C 578.875 524.875 578.75 520 578.625 497.625 C 581.25 495.875 584.25 493.75 588.25 493.75 C 595.125 493.75 595.75 501.125 596.125 505.625 C 596.375 509.75 596.5 526.875 596.5 531.625 C 596.5 535.875 596.375 540.25 596.375 544.5 L 597.125 545.25 C 605.375 545 607.5 544.875 617.5 544.875 Z M 693.875 544.25 C 693.375 533 693 525.5 693 509.125 C 693 476.125 693.5 462.5 694 446 L 693.125 445.25 L 672.5 448.5 L 671.875 449.25 C 672.625 461 672.75 464.125 672.625 478.375 C 663.25 478.125 651.5 477.875 642 485.375 C 633.25 492.125 629.625 502.5 629.625 515.375 C 629.625 525.125 632.25 534.875 639.625 541 C 645.125 545.5 651.875 546.5 656 546.5 C 664.875 546.5 669.5 542.375 672.5 539.75 L 672.25 544.625 L 672.875 545.375 C 681.5 545 683.875 545 693.25 545 L 693.875 544.25 M 672.625 493.375 C 672.75 510 672.625 513.25 672.25 528.375 C 669.75 529.875 667.25 531.375 663.75 531.375 C 651.625 531.375 651.625 515.875 651.625 513.375 C 651.625 503.75 654.375 493 668.375 493 C 669.75 493 670.875 493.125 672.625 493.375 Z M 771.75 511.75 C 771.75 506.875 771.75 486.625 754.25 479.75 C 748.75 477.625 742.25 477.375 739 477.375 C 717.25 477.375 705 489 705 512 C 705 520 706.25 528.125 710.875 534.875 C 714.125 539.75 720.25 546.5 738.125 546.5 C 764.625 546.5 771.75 530.5 771.75 511.75 M 750.125 511.625 C 750.125 521.875 748.75 533.25 738.375 533.25 C 735.125 533.25 732.875 531.75 731.375 530.375 C 729.25 528.25 726.875 524 726.875 511.875 C 726.875 508.25 726.875 500.25 729.375 495.875 C 731.25 492.5 734.5 490.25 738.5 490.25 C 742 490.25 744.875 492.125 746.5 494.125 C 749.5 497.75 750.125 504.875 750.125 511.625 Z M 844.875 544.125 C 844.25 533.125 844.25 529.625 844 517.375 L 844 507.625 C 843.875 495.625 843.75 489.875 840.625 484.75 C 836.75 478.25 829.625 477.25 825.125 477.25 C 817.5 477.25 810.875 481.25 805.125 484.625 L 805.375 477.75 L 804.125 476.875 C 794.5 478.875 792.375 479.25 783 480.5 L 782.25 481.375 C 783.25 492.25 784 500.125 784 520.5 C 784 528.5 783.875 536.5 783.75 544.5 L 784.5 545.25 C 793.5 544.875 795.375 544.875 805.375 544.875 L 806.125 544.125 C 805.375 524.875 805.25 520 805.125 497.625 C 807.75 495.875 810.75 493.75 814.75 493.75 C 821.625 493.75 822.25 501.125 822.625 505.625 C 822.875 509.75 823 526.875 823 531.625 C 823 535.875 822.875 540.25 822.875 544.5 L 823.625 545.25 C 831.875 545 834 544.875 844 544.875 Z M 851.625 545 "/>
<path fill-rule="nonzero" fill="rgb(34.901961%, 14.901961%, 14.901961%)" fill-opacity="1" d="M 140.9375 641.25 C 130.4375 636.875 124.9375 634.625 124.9375 629 C 124.9375 625.125 128.5625 620.25 136.8125 620.25 C 146.3125 620.25 151.9375 624.125 156.5625 627.25 L 157.6875 626.75 L 158.6875 610.375 L 158.0625 609.5 C 152.6875 607.25 147.0625 604.875 134.9375 604.875 C 111.4375 604.875 103.3125 618.125 103.3125 631.5 C 103.3125 646.625 115.0625 652.125 122.0625 655.5 L 126.1875 657.375 C 134.8125 661 141.4375 664.125 141.4375 670.75 C 141.4375 675.5 137.3125 681.125 126.4375 681.125 C 115.0625 681.125 108.6875 676.125 105.0625 673.25 L 103.8125 673.625 L 102.9375 691.25 L 103.6875 692.25 C 105.0625 692.75 106.4375 693.375 107.8125 693.75 C 110.6875 694.75 118.0625 696.875 127.4375 696.875 C 131.1875 696.875 140.6875 696.5 148.1875 693 C 158.6875 687.875 163.1875 678.375 163.1875 667.75 C 163.1875 660.625 160.4375 653 153.8125 647.875 C 150.4375 645.375 147.1875 643.875 144.1875 642.5 Z M 210.0625 680.625 C 207.9375 681.25 206.4375 681.75 204.3125 681.75 C 197.9375 681.75 197.4375 677.75 197.1875 675.875 C 196.8125 672.625 196.8125 665.75 196.9375 660.75 L 197.1875 643.125 L 208.4375 643.625 L 209.1875 642.875 L 210.4375 629.5 L 209.6875 628.75 L 197.1875 628.75 L 197.5625 607.75 L 196.6875 607 C 188.1875 609.5 185.9375 610.125 177.0625 612.375 L 176.5625 613.25 L 176.6875 628.875 L 169.9375 628.625 L 169.1875 629.25 L 168.0625 642.625 L 168.8125 643.375 L 176.6875 643.125 L 176.3125 663 C 176.1875 666.125 176.0625 669.25 176.0625 672.5 C 176.0625 684 176.3125 696.375 195.8125 696.375 C 200.6875 696.375 204.5625 695.625 208.9375 694.875 L 209.8125 694 L 211.0625 681.125 Z M 274.9375 657.75 C 275.0625 646.5 275.0625 641.625 271.8125 636.375 C 269.3125 632.375 264.3125 627.375 248.3125 627.375 C 237.5625 627.375 230.9375 629.375 223.8125 631.5 L 223.0625 632.5 L 222.4375 646.125 L 223.4375 646.625 C 227.8125 644.875 235.9375 641.625 244.3125 641.625 C 248.9375 641.625 250.8125 642.375 252.4375 644 C 253.6875 645.25 254.0625 647.5 254.0625 649.375 C 239.0625 651.375 232.0625 652.75 224.5625 657.375 C 217.5625 661.75 215.1875 668.875 215.1875 674.5 C 215.1875 687.875 224.8125 696.5 237.0625 696.5 C 246.4375 696.5 251.8125 692 254.4375 689.875 L 254.4375 694.5 L 255.1875 695.375 C 264.1875 695 266.9375 694.875 275.0625 695 L 275.6875 694.125 C 274.8125 681.875 274.8125 678.75 274.8125 667 L 274.9375 657.75 M 254.3125 677.625 C 251.6875 679.125 248.3125 680.875 244.1875 680.875 C 239.6875 680.875 235.9375 678.5 235.9375 673.25 C 235.9375 665 245.8125 663.625 254.3125 662.5 Z M 324.5625 680.625 C 322.4375 681.25 320.9375 681.75 318.8125 681.75 C 312.4375 681.75 311.9375 677.75 311.6875 675.875 C 311.3125 672.625 311.3125 665.75 311.4375 660.75 L 311.6875 643.125 L 322.9375 643.625 L 323.6875 642.875 L 324.9375 629.5 L 324.1875 628.75 L 311.6875 628.75 L 312.0625 607.75 L 311.1875 607 C 302.6875 609.5 300.4375 610.125 291.5625 612.375 L 291.0625 613.25 L 291.1875 628.875 L 284.4375 628.625 L 283.6875 629.25 L 282.5625 642.625 L 283.3125 643.375 L 291.1875 643.125 L 290.8125 663 C 290.6875 666.125 290.5625 669.25 290.5625 672.5 C 290.5625 684 290.8125 696.375 310.3125 696.375 C 315.1875 696.375 319.0625 695.625 323.4375 694.875 L 324.3125 694 L 325.5625 681.125 Z M 389.3125 676.5 C 384.5625 679 378.9375 681.875 369.8125 681.875 C 362.3125 681.875 357.1875 679.5 354.1875 675 C 352.3125 672.375 351.9375 669.875 351.4375 667.375 L 391.8125 666.625 L 392.5625 665.75 C 392.4375 659.625 392.3125 653.375 390.5625 647.125 C 386.1875 632.375 376.5625 629.375 372.3125 628.375 C 369.1875 627.5 366.3125 627.25 363.4375 627.25 C 343.8125 627.25 330.8125 640.125 330.8125 661.75 C 330.8125 667.625 331.8125 673.75 333.8125 678.125 C 341.0625 695 358.0625 696.5 367.0625 696.5 C 377.4375 696.5 381.9375 694.625 388.5625 692 L 389.3125 691 L 390.1875 676.875 L 389.3125 676.5 M 351.4375 654.125 C 351.8125 650.25 352.6875 645 357.4375 642 C 358.9375 641 360.6875 640.625 362.4375 640.625 C 366.5625 640.625 369.0625 642.75 370.4375 645 C 372.1875 647.75 372.3125 650.75 372.3125 653.625 Z M 515.4375 606.375 C 505.4375 606.75 503.8125 606.75 493.3125 606.75 L 492.6875 607.5 C 493.5625 621.625 493.5625 625.25 493.6875 640 C 488.1875 640.125 482.6875 640.25 477.0625 640.25 C 472.6875 640.25 468.1875 640.125 463.8125 640.125 L 464.0625 607.125 L 463.4375 606.375 C 453.8125 606.75 451.9375 606.75 441.0625 606.75 L 440.3125 607.5 C 440.9375 620.375 441.6875 635.75 441.6875 666.75 C 441.6875 678 441.4375 684.125 441.1875 694.625 L 441.8125 695.375 C 450.9375 695 453.1875 694.875 464.1875 695 L 464.8125 694.25 C 464.0625 678.75 463.9375 674.25 463.8125 656.125 C 469.3125 655.875 473.9375 655.75 478.8125 655.75 C 483.8125 655.75 488.8125 655.875 493.8125 656 C 494.0625 672.875 494.0625 677 493.4375 694.625 L 494.0625 695.375 C 503.4375 695 505.9375 694.875 516.5625 695 L 517.1875 694.25 C 516.1875 673.25 515.8125 652.375 515.8125 631.375 C 515.8125 622.625 515.9375 616.75 516.0625 607.125 Z M 554.3125 694.125 C 553.6875 684.5 553.1875 677.125 553.1875 659.875 C 553.1875 649.25 553.4375 638.5 553.5625 627.875 L 552.6875 626.875 L 531.1875 630.625 L 530.4375 631.375 C 531.4375 640.875 531.8125 645.25 531.8125 663 C 531.8125 676.625 531.4375 684.25 531.0625 694.5 L 531.8125 695.375 C 540.8125 695 543.3125 694.875 553.4375 695 L 554.3125 694.125 M 552.3125 614.875 L 552.6875 597.875 L 551.9375 597.125 L 531.5625 599.625 L 530.8125 600.5 C 531.0625 605 531.1875 607.625 531.1875 610.625 C 531.1875 613 531.1875 615.5 531.0625 617.875 L 531.9375 618.625 C 540.4375 617.125 542.8125 616.875 551.6875 615.75 Z M 594.4375 651.875 C 590.1875 650.375 586.8125 649 586.8125 645.5 C 586.8125 644 587.8125 639.875 595.5625 639.875 C 603.1875 639.875 608.0625 643.125 611.1875 645.125 L 612.3125 644.75 L 613.5625 631.125 L 612.9375 630.375 C 607.0625 628.75 601.9375 627.25 593.8125 627.25 C 587.6875 627.25 575.4375 627.75 568.9375 637.125 C 567.3125 639.375 565.5625 643.125 565.5625 648.125 C 565.5625 661.5 575.9375 665.5 581.8125 667.75 L 586.5625 669.5 C 589.9375 670.625 595.4375 672.5 595.4375 677 C 595.4375 680.125 592.5625 683.5 585.5625 683.5 C 582.0625 683.5 576.9375 682.375 572.3125 680 C 570.1875 678.875 569.1875 678 567.3125 676.5 L 566.1875 677 C 565.9375 683.5 565.8125 684.875 565.3125 691.125 L 565.9375 692.25 C 572.0625 694.5 577.3125 696.5 586.4375 696.5 C 595.9375 696.5 614.6875 694.75 616.9375 676.875 C 617.0625 675.875 617.0625 675 617.0625 674.125 C 617.0625 660.375 607.4375 656.75 600.5625 654.125 Z M 663.0625 680.625 C 660.9375 681.25 659.4375 681.75 657.3125 681.75 C 650.9375 681.75 650.4375 677.75 650.1875 675.875 C 649.8125 672.625 649.8125 665.75 649.9375 660.75 L 650.1875 643.125 L 661.4375 643.625 L 662.1875 642.875 L 663.4375 629.5 L 662.6875 628.75 L 650.1875 628.75 L 650.5625 607.75 L 649.6875 607 C 641.1875 609.5 638.9375 610.125 630.0625 612.375 L 629.5625 613.25 L 629.6875 628.875 L 622.9375 628.625 L 622.1875 629.25 L 621.0625 642.625 L 621.8125 643.375 L 629.6875 643.125 L 629.3125 663 C 629.1875 666.125 629.0625 669.25 629.0625 672.5 C 629.0625 684 629.3125 696.375 648.8125 696.375 C 653.6875 696.375 657.5625 695.625 661.9375 694.875 L 662.8125 694 L 664.0625 681.125 Z M 735.9375 661.75 C 735.9375 656.875 735.9375 636.625 718.4375 629.75 C 712.9375 627.625 706.4375 627.375 703.1875 627.375 C 681.4375 627.375 669.1875 639 669.1875 662 C 669.1875 670 670.4375 678.125 675.0625 684.875 C 678.3125 689.75 684.4375 696.5 702.3125 696.5 C 728.8125 696.5 735.9375 680.5 735.9375 661.75 M 714.3125 661.625 C 714.3125 671.875 712.9375 683.25 702.5625 683.25 C 699.3125 683.25 697.0625 681.75 695.5625 680.375 C 693.4375 678.25 691.0625 674 691.0625 661.875 C 691.0625 658.25 691.0625 650.25 693.5625 645.875 C 695.4375 642.5 698.6875 640.25 702.6875 640.25 C 706.1875 640.25 709.0625 642.125 710.6875 644.125 C 713.6875 647.75 714.3125 654.875 714.3125 661.625 Z M 783.9375 648.625 L 787.4375 628.25 L 786.6875 627.375 C 785.8125 627.375 784.9375 627.25 784.0625 627.25 C 778.9375 627.25 773.1875 630.125 769.1875 639.375 L 769.5625 627.875 L 768.5625 626.875 C 759.3125 628.875 756.9375 629.25 747.8125 630.625 L 747.0625 631.375 C 747.8125 640.75 748.1875 646.375 748.1875 663.75 C 748.1875 674 748.0625 684.25 747.8125 694.625 L 748.5625 695.375 C 757.8125 695 759.8125 694.875 769.8125 695 L 770.4375 694.125 C 769.9375 684 769.1875 669.875 769.1875 661.25 C 769.1875 655.625 769.1875 647.375 777.6875 647.375 C 779.8125 647.375 781.0625 648.125 782.8125 649.125 Z M 817.3125 694.125 C 816.6875 684.5 816.1875 677.125 816.1875 659.875 C 816.1875 649.25 816.4375 638.5 816.5625 627.875 L 815.6875 626.875 L 794.1875 630.625 L 793.4375 631.375 C 794.4375 640.875 794.8125 645.25 794.8125 663 C 794.8125 676.625 794.4375 684.25 794.0625 694.5 L 794.8125 695.375 C 803.8125 695 806.3125 694.875 816.4375 695 L 817.3125 694.125 M 815.3125 614.875 L 815.6875 597.875 L 814.9375 597.125 L 794.5625 599.625 L 793.8125 600.5 C 794.0625 605 794.1875 607.625 794.1875 610.625 C 794.1875 613 794.1875 615.5 794.0625 617.875 L 794.9375 618.625 C 803.4375 617.125 805.8125 616.875 814.6875 615.75 Z M 880.0625 677 C 876.6875 679 873.4375 681 867.0625 681 C 852.9375 681 850.0625 669.25 850.0625 661.75 C 850.0625 652.625 854.0625 642.125 866.1875 642.125 C 871.6875 642.125 874.6875 644.125 878.4375 646.625 L 879.6875 646.25 C 880.1875 639.625 880.3125 637.875 881.3125 631.25 L 880.6875 630.5 C 875.1875 628.75 870.4375 627.25 863.1875 627.25 C 833.8125 627.25 828.0625 649.5 828.0625 662.25 C 828.0625 676.625 835.5625 696.125 863.6875 696.125 C 870.3125 696.125 874.5625 694.875 879.8125 693.375 L 880.5625 692.625 L 881.0625 677.625 Z M 883.5625 695 "/>
<path fill-rule="nonzero" fill="rgb(34.901961%, 14.901961%, 14.901961%)" fill-opacity="1" d="M 382.375 756.5 L 366.5 756.75 L 365.75 757.5 C 366.25 773.75 366.625 784.625 366.625 799 C 366.625 814.25 366.25 829.375 365.875 844.625 L 366.625 845.375 C 375.875 845 377.875 844.875 387.875 845 L 388.5 844.25 C 388 830.625 388 827.5 388 814.75 C 402 814.875 417 814.875 426 803.875 C 429.5 799.625 432.5 792.5 432.5 783.75 C 432.5 778.375 431.25 766.5 420.875 760.625 C 413.375 756.25 402.75 756.25 393.375 756.25 L 382.375 756.5 M 388 771.625 C 390.75 771.5 393.375 771.5 396.125 771.5 C 407.125 771.75 410.125 777.375 410.125 784.625 C 410.125 786.375 410.125 793.625 403.5 797.25 C 400.125 799.125 395.5 799.375 388 799.375 Z M 496.75 807.75 C 496.875 796.5 496.875 791.625 493.625 786.375 C 491.125 782.375 486.125 777.375 470.125 777.375 C 459.375 777.375 452.75 779.375 445.625 781.5 L 444.875 782.5 L 444.25 796.125 L 445.25 796.625 C 449.625 794.875 457.75 791.625 466.125 791.625 C 470.75 791.625 472.625 792.375 474.25 794 C 475.5 795.25 475.875 797.5 475.875 799.375 C 460.875 801.375 453.875 802.75 446.375 807.375 C 439.375 811.75 437 818.875 437 824.5 C 437 837.875 446.625 846.5 458.875 846.5 C 468.25 846.5 473.625 842 476.25 839.875 L 476.25 844.5 L 477 845.375 C 486 845 488.75 844.875 496.875 845 L 497.5 844.125 C 496.625 831.875 496.625 828.75 496.625 817 L 496.75 807.75 M 476.125 827.625 C 473.5 829.125 470.125 830.875 466 830.875 C 461.5 830.875 457.75 828.5 457.75 823.25 C 457.75 815 467.625 813.625 476.125 812.5 Z M 547.5 798.625 L 551 778.25 L 550.25 777.375 C 549.375 777.375 548.5 777.25 547.625 777.25 C 542.5 777.25 536.75 780.125 532.75 789.375 L 533.125 777.875 L 532.125 776.875 C 522.875 778.875 520.5 779.25 511.375 780.625 L 510.625 781.375 C 511.375 790.75 511.75 796.375 511.75 813.75 C 511.75 824 511.625 834.25 511.375 844.625 L 512.125 845.375 C 521.375 845 523.375 844.875 533.375 845 L 534 844.125 C 533.5 834 532.75 819.875 532.75 811.25 C 532.75 805.625 532.75 797.375 541.25 797.375 C 543.375 797.375 544.625 798.125 546.375 799.125 Z M 622.5 843.375 C 610.75 823.5 609.5 821.25 600 804.125 C 608.625 792.375 609.5 791.125 618.375 779.75 L 617.75 778.5 L 597.375 778.75 L 596.125 779.625 C 586.375 796.5 585.125 798.5 579.375 807.125 L 579.375 793.25 C 579.5 769.875 579.625 764.875 580.25 746 L 579.25 745.25 L 557.5 748.5 L 556.75 749.375 C 557.625 761.5 558 767.375 558.25 783.75 C 558.5 804 558.5 824.25 558.375 844.5 L 559.25 845.375 C 567.625 845 570 845 579.5 845 L 580.25 844.125 L 579.5 823 L 579.375 808.625 C 590.25 828.625 591.625 831.375 598 844.625 L 599.125 845.375 L 621.625 844.5 Z M 621 845 "/>
</svg>
