<?xml version="1.0" encoding="UTF-8"?>
<svg xmlns="http://www.w3.org/2000/svg" xmlns:xlink="http://www.w3.org/1999/xlink" width="975" height="1300" viewBox="0 0 975 1300">
<path fill-rule="nonzero" fill="rgb(34.901961%, 14.901961%, 14.901961%)" fill-opacity="1" d="M 182.25 491.25 C 171.75 486.875 166.25 484.625 166.25 479 C 166.25 475.125 169.875 470.25 178.125 470.25 C 187.625 470.25 193.25 474.125 197.875 477.25 L 199 476.75 L 200 460.375 L 199.375 459.5 C 194 457.25 188.375 454.875 176.25 454.875 C 152.75 454.875 144.625 468.125 144.625 481.5 C 144.625 496.625 156.375 502.125 163.375 505.5 L 167.5 507.375 C 176.125 511 182.75 514.125 182.75 520.75 C 182.75 525.5 178.625 531.125 167.75 531.125 C 156.375 531.125 150 526.125 146.375 523.25 L 145.125 523.625 L 144.25 541.25 L 145 542.25 C 146.375 542.75 147.75 543.375 149.125 543.75 C 152 544.75 159.375 546.875 168.75 546.875 C 172.5 546.875 182 546.5 189.5 543 C 200 537.875 204.5 528.375 204.5 517.75 C 204.5 510.625 201.75 503 195.125 497.875 C 191.75 495.375 188.5 493.875 185.5 492.5 Z M 251.375 530.625 C 249.25 531.25 247.75 531.75 245.625 531.75 C 239.25 531.75 238.75 527.75 238.5 525.875 C 238.125 522.625 238.125 515.75 238.25 510.75 L 238.5 493.125 L 249.75 493.625 L 250.5 492.875 L 251.75 479.5 L 251 478.75 L 238.5 478.75 L 238.875 457.75 L 238 457 C 229.5 459.5 227.25 460.125 218.375 462.375 L 217.875 463.25 L 218 478.875 L 211.25 478.625 L 210.5 479.25 L 209.375 492.625 L 210.125 493.375 L 218 493.125 L 217.625 513 C 217.5 516.125 217.375 519.25 217.375 522.5 C 217.375 534 217.625 546.375 237.125 546.375 C 242 546.375 245.875 545.625 250.25 544.875 L 251.125 544 L 252.375 531.125 Z M 316.25 507.75 C 316.375 496.5 316.375 491.625 313.125 486.375 C 310.625 482.375 305.625 477.375 289.625 477.375 C 278.875 477.375 272.25 479.375 265.125 481.5 L 264.375 482.5 L 263.75 496.125 L 264.75 496.625 C 269.125 494.875 277.25 491.625 285.625 491.625 C 290.25 491.625 292.125 492.375 293.75 494 C 295 495.25 295.375 497.5 295.375 499.375 C 280.375 501.375 273.375 502.75 265.875 507.375 C 258.875 511.75 256.5 518.875 256.5 524.5 C 256.5 537.875 266.125 546.5 278.375 546.5 C 287.75 546.5 293.125 542 295.75 539.875 L 295.75 544.5 L 296.5 545.375 C 305.5 545 308.25 544.875 316.375 545 L 317 544.125 C 316.125 531.875 316.125 528.75 316.125 517 L 316.25 507.75 M 295.625 527.625 C 293 529.125 289.625 530.875 285.5 530.875 C 281 530.875 277.25 528.5 277.25 523.25 C 277.25 515 287.125 513.625 295.625 512.5 Z M 365.875 530.625 C 363.75 531.25 362.25 531.75 360.125 531.75 C 353.75 531.75 353.25 527.75 353 525.875 C 352.625 522.625 352.625 515.75 352.75 510.75 L 353 493.125 L 364.25 493.625 L 365 492.875 L 366.25 479.5 L 365.5 478.75 L 353 478.75 L 353.375 457.75 L 352.5 457 C 344 459.5 341.75 460.125 332.875 462.375 L 332.375 463.25 L 332.5 478.875 L 325.75 478.625 L 325 479.25 L 323.875 492.625 L 324.625 493.375 L 332.5 493.125 L 332.125 513 C 332 516.125 331.875 519.25 331.875 522.5 C 331.875 534 332.125 546.375 351.625 546.375 C 356.5 546.375 360.375 545.625 364.75 544.875 L 365.625 544 L 366.875 531.125 Z M 430.625 526.5 C 425.875 529 420.25 531.875 411.125 531.875 C 403.625 531.875 398.5 529.5 395.5 525 C 393.625 522.375 393.25 519.875 392.75 517.375 L 433.125 516.625 L 433.875 515.75 C 433.75 509.625 433.625 503.375 431.875 497.125 C 427.5 482.375 417.875 479.375 413.625 478.375 C 410.5 477.5 407.625 477.25 404.75 477.25 C 385.125 477.25 372.125 490.125 372.125 511.75 C 372.125 517.625 373.125 523.75 375.125 528.125 C 382.375 545 399.375 546.5 408.375 546.5 C 418.75 546.5 423.25 544.625 429.875 542 L 430.625 541 L 431.5 526.875 L 430.625 526.5 M 392.75 504.125 C 393.125 500.25 394 495 398.75 492 C 400.25 491 402 490.625 403.75 490.625 C 407.875 490.625 410.375 492.75 411.75 495 C 413.5 497.75 413.625 500.75 413.625 503.625 Z M 505 456.375 C 494.25 456.875 491.375 456.875 482.375 456.75 L 481.875 457.5 C 482.625 471 483 477.375 483 509.25 C 483 524 482.75 531.625 482.25 544.625 L 482.875 545.375 C 492.25 545 494.75 545 505.125 545 L 505.875 544.25 C 505.25 532.75 505 527 505 508.875 C 505 491.625 505.25 474.375 505.625 457.125 Z M 582.25 544.125 C 581.625 533.125 581.625 529.625 581.375 517.375 L 581.375 507.625 C 581.25 495.625 581.125 489.875 578 484.75 C 574.125 478.25 567 477.25 562.5 477.25 C 554.875 477.25 548.25 481.25 542.5 484.625 L 542.75 477.75 L 541.5 476.875 C 531.875 478.875 529.75 479.25 520.375 480.5 L 519.625 481.375 C 520.625 492.25 521.375 500.125 521.375 520.5 C 521.375 528.5 521.25 536.5 521.125 544.5 L 521.875 545.25 C 530.875 544.875 532.75 544.875 542.75 544.875 L 543.5 544.125 C 542.75 524.875 542.625 520 542.5 497.625 C 545.125 495.875 548.125 493.75 552.125 493.75 C 559 493.75 559.625 501.125 560 505.625 C 560.25 509.75 560.375 526.875 560.375 531.625 C 560.375 535.875 560.25 540.25 560.25 544.5 L 561 545.25 C 569.25 545 571.375 544.875 581.375 544.875 Z M 657.75 544.25 C 657.25 533 656.875 525.5 656.875 509.125 C 656.875 476.125 657.375 462.5 657.875 446 L 657 445.25 L 636.375 448.5 L 635.75 449.25 C 636.5 461 636.625 464.125 636.5 478.375 C 627.125 478.125 615.375 477.875 605.875 485.375 C 597.125 492.125 593.5 502.5 593.5 515.375 C 593.5 525.125 596.125 534.875 603.5 541 C 609 545.5 615.75 546.5 619.875 546.5 C 628.75 546.5 633.375 542.375 636.375 539.75 L 636.125 544.625 L 636.75 545.375 C 645.375 545 647.75 545 657.125 545 L 657.75 544.25 M 636.5 493.375 C 636.625 510 636.5 513.25 636.125 528.375 C 633.625 529.875 631.125 531.375 627.625 531.375 C 615.5 531.375 615.5 515.875 615.5 513.375 C 615.5 503.75 618.25 493 632.25 493 C 633.625 493 634.75 493.125 636.5 493.375 Z M 694.625 544.125 C 694 534.5 693.5 527.125 693.5 509.875 C 693.5 499.25 693.75 488.5 693.875 477.875 L 693 476.875 L 671.5 480.625 L 670.75 481.375 C 671.75 490.875 672.125 495.25 672.125 513 C 672.125 526.625 671.75 534.25 671.375 544.5 L 672.125 545.375 C 681.125 545 683.625 544.875 693.75 545 L 694.625 544.125 M 692.625 464.875 L 693 447.875 L 692.25 447.125 L 671.875 449.625 L 671.125 450.5 C 671.375 455 671.5 457.625 671.5 460.625 C 671.5 463 671.5 465.5 671.375 467.875 L 672.25 468.625 C 680.75 467.125 683.125 466.875 692 465.75 Z M 764.125 507.75 C 764.25 496.5 764.25 491.625 761 486.375 C 758.5 482.375 753.5 477.375 737.5 477.375 C 726.75 477.375 720.125 479.375 713 481.5 L 712.25 482.5 L 711.625 496.125 L 712.625 496.625 C 717 494.875 725.125 491.625 733.5 491.625 C 738.125 491.625 740 492.375 741.625 494 C 742.875 495.25 743.25 497.5 743.25 499.375 C 728.25 501.375 721.25 502.75 713.75 507.375 C 706.75 511.75 704.375 518.875 704.375 524.5 C 704.375 537.875 714 546.5 726.25 546.5 C 735.625 546.5 741 542 743.625 539.875 L 743.625 544.5 L 744.375 545.375 C 753.375 545 756.125 544.875 764.25 545 L 764.875 544.125 C 764 531.875 764 528.75 764 517 L 764.125 507.75 M 743.5 527.625 C 740.875 529.125 737.5 530.875 733.375 530.875 C 728.875 530.875 725.125 528.5 725.125 523.25 C 725.125 515 735 513.625 743.5 512.5 Z M 840 544.125 C 839.375 533.125 839.375 529.625 839.125 517.375 L 839.125 507.625 C 839 495.625 838.875 489.875 835.75 484.75 C 831.875 478.25 824.75 477.25 820.25 477.25 C 812.625 477.25 806 481.25 800.25 484.625 L 800.5 477.75 L 799.25 476.875 C 789.625 478.875 787.5 479.25 778.125 480.5 L 777.375 481.375 C 778.375 492.25 779.125 500.125 779.125 520.5 C 779.125 528.5 779 536.5 778.875 544.5 L 779.625 545.25 C 788.625 544.875 790.5 544.875 800.5 544.875 L 801.25 544.125 C 800.5 524.875 800.375 520 800.25 497.625 C 802.875 495.875 805.875 493.75 809.875 493.75 C 816.75 493.75 817.375 501.125 817.75 505.625 C 818 509.75 818.125 526.875 818.125 531.625 C 818.125 535.875 818 540.25 818 544.5 L 818.75 545.25 C 827 545 829.125 544.875 839.125 544.875 Z M 846.75 545 "/>
<path fill-rule="nonzero" fill="rgb(34.901961%, 14.901961%, 14.901961%)" fill-opacity="1" d="M 173.25 606.375 C 160.25 606.75 158.125 606.75 144.25 606.75 L 143.5 607.5 L 137.75 627.75 L 132.75 645.875 L 126.875 667.625 L 121.375 645.25 L 117.875 631.125 L 111.625 607.125 L 111 606.375 C 97.625 606.75 95.375 606.75 81.375 606.75 L 80.625 607.5 C 79.375 644.875 78.875 654.5 76.125 694.625 L 76.75 695.375 C 84.75 695 87.125 694.875 94.375 695 L 95.125 694.25 L 95.5 670.375 L 96.25 646.125 L 96.75 622.5 L 102.25 644.625 L 107 662.375 L 115.375 694.625 L 116.125 695.375 C 123.875 695 126 694.875 134.75 695 L 135.5 694.25 L 142.75 667.625 L 147.75 649.375 L 154.75 623.125 L 154.75 645.5 L 155 664.625 L 155 694.625 L 155.625 695.375 C 164.25 695 167.625 694.875 177.25 695 L 177.875 694.25 C 177.125 680 176.25 665.625 175.75 651.25 C 175.375 643.375 175.125 635.5 174.75 627.625 C 174.125 616 174 614.5 174 607.125 Z M 252 628.125 L 231.625 629.125 L 230.75 629.875 C 231.625 644 231.625 664 231.625 666 C 231.625 669.625 231.625 671.625 231.5 676.625 C 228.125 678.875 225.5 680.75 222.125 680.75 C 213.125 680.75 213.125 671.25 213.125 663.875 C 213.125 660.75 213.125 657.5 213.25 654.375 L 213.5 629.125 L 212.625 628.125 L 192 629.125 L 191.125 629.875 C 191.875 640.375 192 643.875 192 656.5 L 192 665.25 C 191.875 678.875 192.5 684.625 197 689.875 C 201.125 694.5 207.125 696.5 213.375 696.5 C 222.25 696.5 227.375 692.5 231.875 689 L 231.75 694.625 L 232.625 695.375 C 241.75 695 244.5 695 252.625 695 L 253.375 694.25 C 252.75 685.375 252.5 680.625 252.5 664.375 C 252.5 652.625 252.625 640.875 252.875 629.125 Z M 293.75 651.875 C 289.5 650.375 286.125 649 286.125 645.5 C 286.125 644 287.125 639.875 294.875 639.875 C 302.5 639.875 307.375 643.125 310.5 645.125 L 311.625 644.75 L 312.875 631.125 L 312.25 630.375 C 306.375 628.75 301.25 627.25 293.125 627.25 C 287 627.25 274.75 627.75 268.25 637.125 C 266.625 639.375 264.875 643.125 264.875 648.125 C 264.875 661.5 275.25 665.5 281.125 667.75 L 285.875 669.5 C 289.25 670.625 294.75 672.5 294.75 677 C 294.75 680.125 291.875 683.5 284.875 683.5 C 281.375 683.5 276.25 682.375 271.625 680 C 269.5 678.875 268.5 678 266.625 676.5 L 265.5 677 C 265.25 683.5 265.125 684.875 264.625 691.125 L 265.25 692.25 C 271.375 694.5 276.625 696.5 285.75 696.5 C 295.25 696.5 314 694.75 316.25 676.875 C 316.375 675.875 316.375 675 316.375 674.125 C 316.375 660.375 306.75 656.75 299.875 654.125 Z M 382.875 676.5 C 378.125 679 372.5 681.875 363.375 681.875 C 355.875 681.875 350.75 679.5 347.75 675 C 345.875 672.375 345.5 669.875 345 667.375 L 385.375 666.625 L 386.125 665.75 C 386 659.625 385.875 653.375 384.125 647.125 C 379.75 632.375 370.125 629.375 365.875 628.375 C 362.75 627.5 359.875 627.25 357 627.25 C 337.375 627.25 324.375 640.125 324.375 661.75 C 324.375 667.625 325.375 673.75 327.375 678.125 C 334.625 695 351.625 696.5 360.625 696.5 C 371 696.5 375.5 694.625 382.125 692 L 382.875 691 L 383.75 676.875 L 382.875 676.5 M 345 654.125 C 345.375 650.25 346.25 645 351 642 C 352.5 641 354.25 640.625 356 640.625 C 360.125 640.625 362.625 642.75 364 645 C 365.75 647.75 365.875 650.75 365.875 653.625 Z M 457.625 628.125 L 437.25 629.125 L 436.375 629.875 C 437.25 644 437.25 664 437.25 666 C 437.25 669.625 437.25 671.625 437.125 676.625 C 433.75 678.875 431.125 680.75 427.75 680.75 C 418.75 680.75 418.75 671.25 418.75 663.875 C 418.75 660.75 418.75 657.5 418.875 654.375 L 419.125 629.125 L 418.25 628.125 L 397.625 629.125 L 396.75 629.875 C 397.5 640.375 397.625 643.875 397.625 656.5 L 397.625 665.25 C 397.5 678.875 398.125 684.625 402.625 689.875 C 406.75 694.5 412.75 696.5 419 696.5 C 427.875 696.5 433 692.5 437.5 689 L 437.375 694.625 L 438.25 695.375 C 447.375 695 450.125 695 458.25 695 L 459 694.25 C 458.375 685.375 458.125 680.625 458.125 664.375 C 458.125 652.625 458.25 640.875 458.5 629.125 Z M 570.75 694.125 C 570.125 682.5 570 679.25 570 665.125 L 570 655.75 C 570.125 647.375 570.25 639.625 566.625 634.375 C 561.75 627.25 553.125 627.25 551.125 627.25 C 540.875 627.25 534 631.875 529 635.375 C 527.25 632.5 524.125 627.25 514.125 627.25 C 505.875 627.25 500.5 631 494.75 635 L 494.75 628 L 493.625 626.875 C 483.875 628.75 481.125 629.25 472.375 630.5 L 471.625 631.375 C 472.625 641.375 473.375 648.25 473.375 673 C 473.375 680.125 473.25 687.375 473.25 694.5 L 473.875 695.25 C 481.875 695 484.625 694.875 495 694.875 L 495.75 694.125 C 494.875 674.875 494.75 669.125 494.625 647.375 C 497.25 645.5 500.125 643.875 503.25 643.875 C 511 643.875 511.25 652.75 511.25 663.5 C 511.25 681.625 511.125 684.375 510.875 694.5 L 511.625 695.375 C 521.125 694.875 523.75 694.875 532.375 694.875 L 533.125 694.125 C 532.375 682.25 532.25 678.75 532.125 663.625 L 532.125 659 L 532 646.375 C 534.125 645 536.875 643.25 540.625 643.25 C 547.75 643.25 548.875 650 548.875 660.75 C 548.875 663.125 548.75 665.5 548.75 667.875 C 548.625 672.125 548.5 690.75 548.375 694.5 L 549.125 695.25 C 558.5 694.875 561.25 694.875 570 694.875 Z M 657.75 641.25 C 647.25 636.875 641.75 634.625 641.75 629 C 641.75 625.125 645.375 620.25 653.625 620.25 C 663.125 620.25 668.75 624.125 673.375 627.25 L 674.5 626.75 L 675.5 610.375 L 674.875 609.5 C 669.5 607.25 663.875 604.875 651.75 604.875 C 628.25 604.875 620.125 618.125 620.125 631.5 C 620.125 646.625 631.875 652.125 638.875 655.5 L 643 657.375 C 651.625 661 658.25 664.125 658.25 670.75 C 658.25 675.5 654.125 681.125 643.25 681.125 C 631.875 681.125 625.5 676.125 621.875 673.25 L 620.625 673.625 L 619.75 691.25 L 620.5 692.25 C 621.875 692.75 623.25 693.375 624.625 693.75 C 627.5 694.75 634.875 696.875 644.25 696.875 C 648 696.875 657.5 696.5 665 693 C 675.5 687.875 680 678.375 680 667.75 C 680 660.625 677.25 653 670.625 647.875 C 667.25 645.375 664 643.875 661 642.5 Z M 726.875 680.625 C 724.75 681.25 723.25 681.75 721.125 681.75 C 714.75 681.75 714.25 677.75 714 675.875 C 713.625 672.625 713.625 665.75 713.75 660.75 L 714 643.125 L 725.25 643.625 L 726 642.875 L 727.25 629.5 L 726.5 628.75 L 714 628.75 L 714.375 607.75 L 713.5 607 C 705 609.5 702.75 610.125 693.875 612.375 L 693.375 613.25 L 693.5 628.875 L 686.75 628.625 L 686 629.25 L 684.875 642.625 L 685.625 643.375 L 693.5 643.125 L 693.125 663 C 693 666.125 692.875 669.25 692.875 672.5 C 692.875 684 693.125 696.375 712.625 696.375 C 717.5 696.375 721.375 695.625 725.75 694.875 L 726.625 694 L 727.875 681.125 Z M 791.75 657.75 C 791.875 646.5 791.875 641.625 788.625 636.375 C 786.125 632.375 781.125 627.375 765.125 627.375 C 754.375 627.375 747.75 629.375 740.625 631.5 L 739.875 632.5 L 739.25 646.125 L 740.25 646.625 C 744.625 644.875 752.75 641.625 761.125 641.625 C 765.75 641.625 767.625 642.375 769.25 644 C 770.5 645.25 770.875 647.5 770.875 649.375 C 755.875 651.375 748.875 652.75 741.375 657.375 C 734.375 661.75 732 668.875 732 674.5 C 732 687.875 741.625 696.5 753.875 696.5 C 763.25 696.5 768.625 692 771.25 689.875 L 771.25 694.5 L 772 695.375 C 781 695 783.75 694.875 791.875 695 L 792.5 694.125 C 791.625 681.875 791.625 678.75 791.625 667 L 791.75 657.75 M 771.125 677.625 C 768.5 679.125 765.125 680.875 761 680.875 C 756.5 680.875 752.75 678.5 752.75 673.25 C 752.75 665 762.625 663.625 771.125 662.5 Z M 841.375 680.625 C 839.25 681.25 837.75 681.75 835.625 681.75 C 829.25 681.75 828.75 677.75 828.5 675.875 C 828.125 672.625 828.125 665.75 828.25 660.75 L 828.5 643.125 L 839.75 643.625 L 840.5 642.875 L 841.75 629.5 L 841 628.75 L 828.5 628.75 L 828.875 607.75 L 828 607 C 819.5 609.5 817.25 610.125 808.375 612.375 L 807.875 613.25 L 808 628.875 L 801.25 628.625 L 800.5 629.25 L 799.375 642.625 L 800.125 643.375 L 808 643.125 L 807.625 663 C 807.5 666.125 807.375 669.25 807.375 672.5 C 807.375 684 807.625 696.375 827.125 696.375 C 832 696.375 835.875 695.625 840.25 694.875 L 841.125 694 L 842.375 681.125 Z M 906.125 676.5 C 901.375 679 895.75 681.875 886.625 681.875 C 879.125 681.875 874 679.5 871 675 C 869.125 672.375 868.75 669.875 868.25 667.375 L 908.625 666.625 L 909.375 665.75 C 909.25 659.625 909.125 653.375 907.375 647.125 C 903 632.375 893.375 629.375 889.125 628.375 C 886 627.5 883.125 627.25 880.25 627.25 C 860.625 627.25 847.625 640.125 847.625 661.75 C 847.625 667.625 848.625 673.75 850.625 678.125 C 857.875 695 874.875 696.5 883.875 696.5 C 894.25 696.5 898.75 694.625 905.375 692 L 906.125 691 L 907 676.875 L 906.125 676.5 M 868.25 654.125 C 868.625 650.25 869.5 645 874.25 642 C 875.75 641 877.5 640.625 879.25 640.625 C 883.375 640.625 885.875 642.75 887.25 645 C 889 647.75 889.125 650.75 889.125 653.625 Z M 913.375 695 "/>
<path fill-rule="nonzero" fill="rgb(34.901961%, 14.901961%, 14.901961%)" fill-opacity="1" d="M 196.8125 756.375 C 186.8125 756.75 185.1875 756.75 174.6875 756.75 L 174.0625 757.5 C 174.9375 771.625 174.9375 775.25 175.0625 790 C 169.5625 790.125 164.0625 790.25 158.4375 790.25 C 154.0625 790.25 149.5625 790.125 145.1875 790.125 L 145.4375 757.125 L 144.8125 756.375 C 135.1875 756.75 133.3125 756.75 122.4375 756.75 L 121.6875 757.5 C 122.3125 770.375 123.0625 785.75 123.0625 816.75 C 123.0625 828 122.8125 834.125 122.5625 844.625 L 123.1875 845.375 C 132.3125 845 134.5625 844.875 145.5625 845 L 146.1875 844.25 C 145.4375 828.75 145.3125 824.25 145.1875 806.125 C 150.6875 805.875 155.3125 805.75 160.1875 805.75 C 165.1875 805.75 170.1875 805.875 175.1875 806 C 175.4375 822.875 175.4375 827 174.8125 844.625 L 175.4375 845.375 C 184.8125 845 187.3125 844.875 197.9375 845 L 198.5625 844.25 C 197.5625 823.25 197.1875 802.375 197.1875 781.375 C 197.1875 772.625 197.3125 766.75 197.4375 757.125 Z M 235.6875 844.125 C 235.0625 834.5 234.5625 827.125 234.5625 809.875 C 234.5625 799.25 234.8125 788.5 234.9375 777.875 L 234.0625 776.875 L 212.5625 780.625 L 211.8125 781.375 C 212.8125 790.875 213.1875 795.25 213.1875 813 C 213.1875 826.625 212.8125 834.25 212.4375 844.5 L 213.1875 845.375 C 222.1875 845 224.6875 844.875 234.8125 845 L 235.6875 844.125 M 233.6875 764.875 L 234.0625 747.875 L 233.3125 747.125 L 212.9375 749.625 L 212.1875 750.5 C 212.4375 755 212.5625 757.625 212.5625 760.625 C 212.5625 763 212.5625 765.5 212.4375 767.875 L 213.3125 768.625 C 221.8125 767.125 224.1875 766.875 233.0625 765.75 Z M 275.8125 801.875 C 271.5625 800.375 268.1875 799 268.1875 795.5 C 268.1875 794 269.1875 789.875 276.9375 789.875 C 284.5625 789.875 289.4375 793.125 292.5625 795.125 L 293.6875 794.75 L 294.9375 781.125 L 294.3125 780.375 C 288.4375 778.75 283.3125 777.25 275.1875 777.25 C 269.0625 777.25 256.8125 777.75 250.3125 787.125 C 248.6875 789.375 246.9375 793.125 246.9375 798.125 C 246.9375 811.5 257.3125 815.5 263.1875 817.75 L 267.9375 819.5 C 271.3125 820.625 276.8125 822.5 276.8125 827 C 276.8125 830.125 273.9375 833.5 266.9375 833.5 C 263.4375 833.5 258.3125 832.375 253.6875 830 C 251.5625 828.875 250.5625 828 248.6875 826.5 L 247.5625 827 C 247.3125 833.5 247.1875 834.875 246.6875 841.125 L 247.3125 842.25 C 253.4375 844.5 258.6875 846.5 267.8125 846.5 C 277.3125 846.5 296.0625 844.75 298.3125 826.875 C 298.4375 825.875 298.4375 825 298.4375 824.125 C 298.4375 810.375 288.8125 806.75 281.9375 804.125 Z M 344.4375 830.625 C 342.3125 831.25 340.8125 831.75 338.6875 831.75 C 332.3125 831.75 331.8125 827.75 331.5625 825.875 C 331.1875 822.625 331.1875 815.75 331.3125 810.75 L 331.5625 793.125 L 342.8125 793.625 L 343.5625 792.875 L 344.8125 779.5 L 344.0625 778.75 L 331.5625 778.75 L 331.9375 757.75 L 331.0625 757 C 322.5625 759.5 320.3125 760.125 311.4375 762.375 L 310.9375 763.25 L 311.0625 778.875 L 304.3125 778.625 L 303.5625 779.25 L 302.4375 792.625 L 303.1875 793.375 L 311.0625 793.125 L 310.6875 813 C 310.5625 816.125 310.4375 819.25 310.4375 822.5 C 310.4375 834 310.6875 846.375 330.1875 846.375 C 335.0625 846.375 338.9375 845.625 343.3125 844.875 L 344.1875 844 L 345.4375 831.125 Z M 417.3125 811.75 C 417.3125 806.875 417.3125 786.625 399.8125 779.75 C 394.3125 777.625 387.8125 777.375 384.5625 777.375 C 362.8125 777.375 350.5625 789 350.5625 812 C 350.5625 820 351.8125 828.125 356.4375 834.875 C 359.6875 839.75 365.8125 846.5 383.6875 846.5 C 410.1875 846.5 417.3125 830.5 417.3125 811.75 M 395.6875 811.625 C 395.6875 821.875 394.3125 833.25 383.9375 833.25 C 380.6875 833.25 378.4375 831.75 376.9375 830.375 C 374.8125 828.25 372.4375 824 372.4375 811.875 C 372.4375 808.25 372.4375 800.25 374.9375 795.875 C 376.8125 792.5 380.0625 790.25 384.0625 790.25 C 387.5625 790.25 390.4375 792.125 392.0625 794.125 C 395.0625 797.75 395.6875 804.875 395.6875 811.625 Z M 465.3125 798.625 L 468.8125 778.25 L 468.0625 777.375 C 467.1875 777.375 466.3125 777.25 465.4375 777.25 C 460.3125 777.25 454.5625 780.125 450.5625 789.375 L 450.9375 777.875 L 449.9375 776.875 C 440.6875 778.875 438.3125 779.25 429.1875 780.625 L 428.4375 781.375 C 429.1875 790.75 429.5625 796.375 429.5625 813.75 C 429.5625 824 429.4375 834.25 429.1875 844.625 L 429.9375 845.375 C 439.1875 845 441.1875 844.875 451.1875 845 L 451.8125 844.125 C 451.3125 834 450.5625 819.875 450.5625 811.25 C 450.5625 805.625 450.5625 797.375 459.0625 797.375 C 461.1875 797.375 462.4375 798.125 464.1875 799.125 Z M 498.6875 844.125 C 498.0625 834.5 497.5625 827.125 497.5625 809.875 C 497.5625 799.25 497.8125 788.5 497.9375 777.875 L 497.0625 776.875 L 475.5625 780.625 L 474.8125 781.375 C 475.8125 790.875 476.1875 795.25 476.1875 813 C 476.1875 826.625 475.8125 834.25 475.4375 844.5 L 476.1875 845.375 C 485.1875 845 487.6875 844.875 497.8125 845 L 498.6875 844.125 M 496.6875 764.875 L 497.0625 747.875 L 496.3125 747.125 L 475.9375 749.625 L 475.1875 750.5 C 475.4375 755 475.5625 757.625 475.5625 760.625 C 475.5625 763 475.5625 765.5 475.4375 767.875 L 476.3125 768.625 C 484.8125 767.125 487.1875 766.875 496.0625 765.75 Z M 561.4375 827 C 558.0625 829 554.8125 831 548.4375 831 C 534.3125 831 531.4375 819.25 531.4375 811.75 C 531.4375 802.625 535.4375 792.125 547.5625 792.125 C 553.0625 792.125 556.0625 794.125 559.8125 796.625 L 561.0625 796.25 C 561.5625 789.625 561.6875 787.875 562.6875 781.25 L 562.0625 780.5 C 556.5625 778.75 551.8125 777.25 544.5625 777.25 C 515.1875 777.25 509.4375 799.5 509.4375 812.25 C 509.4375 826.625 516.9375 846.125 545.0625 846.125 C 551.6875 846.125 555.9375 844.875 561.1875 843.375 L 561.9375 842.625 L 562.4375 827.625 Z M 625.6875 756.5 L 609.8125 756.75 L 609.0625 757.5 C 609.5625 773.75 609.9375 784.625 609.9375 799 C 609.9375 814.25 609.5625 829.375 609.1875 844.625 L 609.9375 845.375 C 619.1875 845 621.1875 844.875 631.1875 845 L 631.8125 844.25 C 631.3125 830.625 631.3125 827.5 631.3125 814.75 C 645.3125 814.875 660.3125 814.875 669.3125 803.875 C 672.8125 799.625 675.8125 792.5 675.8125 783.75 C 675.8125 778.375 674.5625 766.5 664.1875 760.625 C 656.6875 756.25 646.0625 756.25 636.6875 756.25 L 625.6875 756.5 M 631.3125 771.625 C 634.0625 771.5 636.6875 771.5 639.4375 771.5 C 650.4375 771.75 653.4375 777.375 653.4375 784.625 C 653.4375 786.375 653.4375 793.625 646.8125 797.25 C 643.4375 799.125 638.8125 799.375 631.3125 799.375 Z M 740.0625 807.75 C 740.1875 796.5 740.1875 791.625 736.9375 786.375 C 734.4375 782.375 729.4375 777.375 713.4375 777.375 C 702.6875 777.375 696.0625 779.375 688.9375 781.5 L 688.1875 782.5 L 687.5625 796.125 L 688.5625 796.625 C 692.9375 794.875 701.0625 791.625 709.4375 791.625 C 714.0625 791.625 715.9375 792.375 717.5625 794 C 718.8125 795.25 719.1875 797.5 719.1875 799.375 C 704.1875 801.375 697.1875 802.75 689.6875 807.375 C 682.6875 811.75 680.3125 818.875 680.3125 824.5 C 680.3125 837.875 689.9375 846.5 702.1875 846.5 C 711.5625 846.5 716.9375 842 719.5625 839.875 L 719.5625 844.5 L 720.3125 845.375 C 729.3125 845 732.0625 844.875 740.1875 845 L 740.8125 844.125 C 739.9375 831.875 739.9375 828.75 739.9375 817 L 740.0625 807.75 M 719.4375 827.625 C 716.8125 829.125 713.4375 830.875 709.3125 830.875 C 704.8125 830.875 701.0625 828.5 701.0625 823.25 C 701.0625 815 710.9375 813.625 719.4375 812.5 Z M 790.8125 798.625 L 794.3125 778.25 L 793.5625 777.375 C 792.6875 777.375 791.8125 777.25 790.9375 777.25 C 785.8125 777.25 780.0625 780.125 776.0625 789.375 L 776.4375 777.875 L 775.4375 776.875 C 766.1875 778.875 763.8125 779.25 754.6875 780.625 L 753.9375 781.375 C 754.6875 790.75 755.0625 796.375 755.0625 813.75 C 755.0625 824 754.9375 834.25 754.6875 844.625 L 755.4375 845.375 C 764.6875 845 766.6875 844.875 776.6875 845 L 777.3125 844.125 C 776.8125 834 776.0625 819.875 776.0625 811.25 C 776.0625 805.625 776.0625 797.375 784.5625 797.375 C 786.6875 797.375 787.9375 798.125 789.6875 799.125 Z M 865.8125 843.375 C 854.0625 823.5 852.8125 821.25 843.3125 804.125 C 851.9375 792.375 852.8125 791.125 861.6875 779.75 L 861.0625 778.5 L 840.6875 778.75 L 839.4375 779.625 C 829.6875 796.5 828.4375 798.5 822.6875 807.125 L 822.6875 793.25 C 822.8125 769.875 822.9375 764.875 823.5625 746 L 822.5625 745.25 L 800.8125 748.5 L 800.0625 749.375 C 800.9375 761.5 801.3125 767.375 801.5625 783.75 C 801.8125 804 801.8125 824.25 801.6875 844.5 L 802.5625 845.375 C 810.9375 845 813.3125 845 822.8125 845 L 823.5625 844.125 L 822.8125 823 L 822.6875 808.625 C 833.5625 828.625 834.9375 831.375 841.3125 844.625 L 842.4375 845.375 L 864.9375 844.5 Z M 864.3125 845 "/>
</svg>
