<?xml version="1.0" encoding="UTF-8"?>
<svg xmlns="http://www.w3.org/2000/svg" xmlns:xlink="http://www.w3.org/1999/xlink" width="975" height="1300" viewBox="0 0 975 1300">
<path fill-rule="nonzero" fill="rgb(34.901961%, 14.901961%, 14.901961%)" fill-opacity="1" d="M 280.875 522.625 C 278 524.875 271.625 529.625 261.25 529.625 C 247 529.625 237 519 237 501.25 C 237 490.5 240.75 471.625 261.125 471.625 C 270.5 471.625 275.625 475.25 278.75 477.625 L 279.875 477.375 L 281 460.125 L 280.5 459.5 C 276 457.75 268.375 454.875 257.375 454.875 C 225 454.875 213.75 479.875 213.75 501.75 C 213.75 525.75 228.375 546.875 258.875 546.875 C 269.375 546.875 276.25 544.125 280.25 542.5 L 280.875 541.75 L 281.75 523.125 Z M 347.125 507.75 C 347.25 496.5 347.25 491.625 344 486.375 C 341.5 482.375 336.5 477.375 320.5 477.375 C 309.75 477.375 303.125 479.375 296 481.5 L 295.25 482.5 L 294.625 496.125 L 295.625 496.625 C 300 494.875 308.125 491.625 316.5 491.625 C 321.125 491.625 323 492.375 324.625 494 C 325.875 495.25 326.25 497.5 326.25 499.375 C 311.25 501.375 304.25 502.75 296.75 507.375 C 289.75 511.75 287.375 518.875 287.375 524.5 C 287.375 537.875 297 546.5 309.25 546.5 C 318.625 546.5 324 542 326.625 539.875 L 326.625 544.5 L 327.375 545.375 C 336.375 545 339.125 544.875 347.25 545 L 347.875 544.125 C 347 531.875 347 528.75 347 517 L 347.125 507.75 M 326.5 527.625 C 323.875 529.125 320.5 530.875 316.375 530.875 C 311.875 530.875 308.125 528.5 308.125 523.25 C 308.125 515 318 513.625 326.5 512.5 Z M 383.75 544.125 C 383.125 529.75 382.5 516.625 382.5 477.125 C 382.5 465.25 382.625 459.625 383.125 446.125 L 382.25 445.25 L 360.875 448.625 L 360.375 449.375 C 361.625 464.625 361.75 468.75 362 489 C 362.125 496.375 362.125 503.75 362.125 511.125 C 362.125 524.625 361.875 532.125 361.375 544.5 L 362.125 545.375 C 370.5 545 373.875 544.875 383 545 Z M 420.875 544.125 C 420.25 534.5 419.75 527.125 419.75 509.875 C 419.75 499.25 420 488.5 420.125 477.875 L 419.25 476.875 L 397.75 480.625 L 397 481.375 C 398 490.875 398.375 495.25 398.375 513 C 398.375 526.625 398 534.25 397.625 544.5 L 398.375 545.375 C 407.375 545 409.875 544.875 420 545 L 420.875 544.125 M 418.875 464.875 L 419.25 447.875 L 418.5 447.125 L 398.125 449.625 L 397.375 450.5 C 397.625 455 397.75 457.625 397.75 460.625 C 397.75 463 397.75 465.5 397.625 467.875 L 398.5 468.625 C 407 467.125 409.375 466.875 418.25 465.75 Z M 459.75 544.125 C 458.5 521.375 458.375 515.25 458.5 493.125 L 468.375 493.625 L 469.25 492.75 L 470.375 479.5 L 469.75 478.75 L 458.375 478.75 L 458.5 475.875 C 458.5 468.25 458.625 461.25 466.75 461.25 C 468 461.25 469.25 461.5 470.5 461.625 L 471.375 461.125 L 472.5 447 L 471.875 446.125 C 468.875 445.875 466 445.75 463.125 445.75 C 456.75 445.75 450.25 446.5 445.25 450.25 C 437.5 456 437.625 465 437.625 471.25 L 437.75 478.75 L 429.625 478.625 L 428.875 479.25 L 427.625 492.5 L 428.375 493.25 L 437.875 493 C 437.875 516.625 437.875 522.25 437.125 544.5 L 437.875 545.375 C 446.375 545 449.625 544.875 459 544.875 Z M 542.625 511.75 C 542.625 506.875 542.625 486.625 525.125 479.75 C 519.625 477.625 513.125 477.375 509.875 477.375 C 488.125 477.375 475.875 489 475.875 512 C 475.875 520 477.125 528.125 481.75 534.875 C 485 539.75 491.125 546.5 509 546.5 C 535.5 546.5 542.625 530.5 542.625 511.75 M 521 511.625 C 521 521.875 519.625 533.25 509.25 533.25 C 506 533.25 503.75 531.75 502.25 530.375 C 500.125 528.25 497.75 524 497.75 511.875 C 497.75 508.25 497.75 500.25 500.25 495.875 C 502.125 492.5 505.375 490.25 509.375 490.25 C 512.875 490.25 515.75 492.125 517.375 494.125 C 520.375 497.75 521 504.875 521 511.625 Z M 590.625 498.625 L 594.125 478.25 L 593.375 477.375 C 592.5 477.375 591.625 477.25 590.75 477.25 C 585.625 477.25 579.875 480.125 575.875 489.375 L 576.25 477.875 L 575.25 476.875 C 566 478.875 563.625 479.25 554.5 480.625 L 553.75 481.375 C 554.5 490.75 554.875 496.375 554.875 513.75 C 554.875 524 554.75 534.25 554.5 544.625 L 555.25 545.375 C 564.5 545 566.5 544.875 576.5 545 L 577.125 544.125 C 576.625 534 575.875 519.875 575.875 511.25 C 575.875 505.625 575.875 497.375 584.375 497.375 C 586.5 497.375 587.75 498.125 589.5 499.125 Z M 662.625 544.125 C 662 533.125 662 529.625 661.75 517.375 L 661.75 507.625 C 661.625 495.625 661.5 489.875 658.375 484.75 C 654.5 478.25 647.375 477.25 642.875 477.25 C 635.25 477.25 628.625 481.25 622.875 484.625 L 623.125 477.75 L 621.875 476.875 C 612.25 478.875 610.125 479.25 600.75 480.5 L 600 481.375 C 601 492.25 601.75 500.125 601.75 520.5 C 601.75 528.5 601.625 536.5 601.5 544.5 L 602.25 545.25 C 611.25 544.875 613.125 544.875 623.125 544.875 L 623.875 544.125 C 623.125 524.875 623 520 622.875 497.625 C 625.5 495.875 628.5 493.75 632.5 493.75 C 639.375 493.75 640 501.125 640.375 505.625 C 640.625 509.75 640.75 526.875 640.75 531.625 C 640.75 535.875 640.625 540.25 640.625 544.5 L 641.375 545.25 C 649.625 545 651.75 544.875 661.75 544.875 Z M 699.5 544.125 C 698.875 534.5 698.375 527.125 698.375 509.875 C 698.375 499.25 698.625 488.5 698.75 477.875 L 697.875 476.875 L 676.375 480.625 L 675.625 481.375 C 676.625 490.875 677 495.25 677 513 C 677 526.625 676.625 534.25 676.25 544.5 L 677 545.375 C 686 545 688.5 544.875 698.625 545 L 699.5 544.125 M 697.5 464.875 L 697.875 447.875 L 697.125 447.125 L 676.75 449.625 L 676 450.5 C 676.25 455 676.375 457.625 676.375 460.625 C 676.375 463 676.375 465.5 676.25 467.875 L 677.125 468.625 C 685.625 467.125 688 466.875 696.875 465.75 Z M 769 507.75 C 769.125 496.5 769.125 491.625 765.875 486.375 C 763.375 482.375 758.375 477.375 742.375 477.375 C 731.625 477.375 725 479.375 717.875 481.5 L 717.125 482.5 L 716.5 496.125 L 717.5 496.625 C 721.875 494.875 730 491.625 738.375 491.625 C 743 491.625 744.875 492.375 746.5 494 C 747.75 495.25 748.125 497.5 748.125 499.375 C 733.125 501.375 726.125 502.75 718.625 507.375 C 711.625 511.75 709.25 518.875 709.25 524.5 C 709.25 537.875 718.875 546.5 731.125 546.5 C 740.5 546.5 745.875 542 748.5 539.875 L 748.5 544.5 L 749.25 545.375 C 758.25 545 761 544.875 769.125 545 L 769.75 544.125 C 768.875 531.875 768.875 528.75 768.875 517 L 769 507.75 M 748.375 527.625 C 745.75 529.125 742.375 530.875 738.25 530.875 C 733.75 530.875 730 528.5 730 523.25 C 730 515 739.875 513.625 748.375 512.5 Z M 776.125 545 "/>
<path fill-rule="nonzero" fill="rgb(34.901961%, 14.901961%, 14.901961%)" fill-opacity="1" d="M 161.5625 641.25 C 151.0625 636.875 145.5625 634.625 145.5625 629 C 145.5625 625.125 149.1875 620.25 157.4375 620.25 C 166.9375 620.25 172.5625 624.125 177.1875 627.25 L 178.3125 626.75 L 179.3125 610.375 L 178.6875 609.5 C 173.3125 607.25 167.6875 604.875 155.5625 604.875 C 132.0625 604.875 123.9375 618.125 123.9375 631.5 C 123.9375 646.625 135.6875 652.125 142.6875 655.5 L 146.8125 657.375 C 155.4375 661 162.0625 664.125 162.0625 670.75 C 162.0625 675.5 157.9375 681.125 147.0625 681.125 C 135.6875 681.125 129.3125 676.125 125.6875 673.25 L 124.4375 673.625 L 123.5625 691.25 L 124.3125 692.25 C 125.6875 692.75 127.0625 693.375 128.4375 693.75 C 131.3125 694.75 138.6875 696.875 148.0625 696.875 C 151.8125 696.875 161.3125 696.5 168.8125 693 C 179.3125 687.875 183.8125 678.375 183.8125 667.75 C 183.8125 660.625 181.0625 653 174.4375 647.875 C 171.0625 645.375 167.8125 643.875 164.8125 642.5 Z M 230.6875 680.625 C 228.5625 681.25 227.0625 681.75 224.9375 681.75 C 218.5625 681.75 218.0625 677.75 217.8125 675.875 C 217.4375 672.625 217.4375 665.75 217.5625 660.75 L 217.8125 643.125 L 229.0625 643.625 L 229.8125 642.875 L 231.0625 629.5 L 230.3125 628.75 L 217.8125 628.75 L 218.1875 607.75 L 217.3125 607 C 208.8125 609.5 206.5625 610.125 197.6875 612.375 L 197.1875 613.25 L 197.3125 628.875 L 190.5625 628.625 L 189.8125 629.25 L 188.6875 642.625 L 189.4375 643.375 L 197.3125 643.125 L 196.9375 663 C 196.8125 666.125 196.6875 669.25 196.6875 672.5 C 196.6875 684 196.9375 696.375 216.4375 696.375 C 221.3125 696.375 225.1875 695.625 229.5625 694.875 L 230.4375 694 L 231.6875 681.125 Z M 295.5625 657.75 C 295.6875 646.5 295.6875 641.625 292.4375 636.375 C 289.9375 632.375 284.9375 627.375 268.9375 627.375 C 258.1875 627.375 251.5625 629.375 244.4375 631.5 L 243.6875 632.5 L 243.0625 646.125 L 244.0625 646.625 C 248.4375 644.875 256.5625 641.625 264.9375 641.625 C 269.5625 641.625 271.4375 642.375 273.0625 644 C 274.3125 645.25 274.6875 647.5 274.6875 649.375 C 259.6875 651.375 252.6875 652.75 245.1875 657.375 C 238.1875 661.75 235.8125 668.875 235.8125 674.5 C 235.8125 687.875 245.4375 696.5 257.6875 696.5 C 267.0625 696.5 272.4375 692 275.0625 689.875 L 275.0625 694.5 L 275.8125 695.375 C 284.8125 695 287.5625 694.875 295.6875 695 L 296.3125 694.125 C 295.4375 681.875 295.4375 678.75 295.4375 667 L 295.5625 657.75 M 274.9375 677.625 C 272.3125 679.125 268.9375 680.875 264.8125 680.875 C 260.3125 680.875 256.5625 678.5 256.5625 673.25 C 256.5625 665 266.4375 663.625 274.9375 662.5 Z M 345.1875 680.625 C 343.0625 681.25 341.5625 681.75 339.4375 681.75 C 333.0625 681.75 332.5625 677.75 332.3125 675.875 C 331.9375 672.625 331.9375 665.75 332.0625 660.75 L 332.3125 643.125 L 343.5625 643.625 L 344.3125 642.875 L 345.5625 629.5 L 344.8125 628.75 L 332.3125 628.75 L 332.6875 607.75 L 331.8125 607 C 323.3125 609.5 321.0625 610.125 312.1875 612.375 L 311.6875 613.25 L 311.8125 628.875 L 305.0625 628.625 L 304.3125 629.25 L 303.1875 642.625 L 303.9375 643.375 L 311.8125 643.125 L 311.4375 663 C 311.3125 666.125 311.1875 669.25 311.1875 672.5 C 311.1875 684 311.4375 696.375 330.9375 696.375 C 335.8125 696.375 339.6875 695.625 344.0625 694.875 L 344.9375 694 L 346.1875 681.125 Z M 409.9375 676.5 C 405.1875 679 399.5625 681.875 390.4375 681.875 C 382.9375 681.875 377.8125 679.5 374.8125 675 C 372.9375 672.375 372.5625 669.875 372.0625 667.375 L 412.4375 666.625 L 413.1875 665.75 C 413.0625 659.625 412.9375 653.375 411.1875 647.125 C 406.8125 632.375 397.1875 629.375 392.9375 628.375 C 389.8125 627.5 386.9375 627.25 384.0625 627.25 C 364.4375 627.25 351.4375 640.125 351.4375 661.75 C 351.4375 667.625 352.4375 673.75 354.4375 678.125 C 361.6875 695 378.6875 696.5 387.6875 696.5 C 398.0625 696.5 402.5625 694.625 409.1875 692 L 409.9375 691 L 410.8125 676.875 L 409.9375 676.5 M 372.0625 654.125 C 372.4375 650.25 373.3125 645 378.0625 642 C 379.5625 641 381.3125 640.625 383.0625 640.625 C 387.1875 640.625 389.6875 642.75 391.0625 645 C 392.8125 647.75 392.9375 650.75 392.9375 653.625 Z M 526.0625 672.625 C 523.1875 674.875 516.8125 679.625 506.4375 679.625 C 492.1875 679.625 482.1875 669 482.1875 651.25 C 482.1875 640.5 485.9375 621.625 506.3125 621.625 C 515.6875 621.625 520.8125 625.25 523.9375 627.625 L 525.0625 627.375 L 526.1875 610.125 L 525.6875 609.5 C 521.1875 607.75 513.5625 604.875 502.5625 604.875 C 470.1875 604.875 458.9375 629.875 458.9375 651.75 C 458.9375 675.75 473.5625 696.875 504.0625 696.875 C 514.5625 696.875 521.4375 694.125 525.4375 692.5 L 526.0625 691.75 L 526.9375 673.125 Z M 592.3125 657.75 C 592.4375 646.5 592.4375 641.625 589.1875 636.375 C 586.6875 632.375 581.6875 627.375 565.6875 627.375 C 554.9375 627.375 548.3125 629.375 541.1875 631.5 L 540.4375 632.5 L 539.8125 646.125 L 540.8125 646.625 C 545.1875 644.875 553.3125 641.625 561.6875 641.625 C 566.3125 641.625 568.1875 642.375 569.8125 644 C 571.0625 645.25 571.4375 647.5 571.4375 649.375 C 556.4375 651.375 549.4375 652.75 541.9375 657.375 C 534.9375 661.75 532.5625 668.875 532.5625 674.5 C 532.5625 687.875 542.1875 696.5 554.4375 696.5 C 563.8125 696.5 569.1875 692 571.8125 689.875 L 571.8125 694.5 L 572.5625 695.375 C 581.5625 695 584.3125 694.875 592.4375 695 L 593.0625 694.125 C 592.1875 681.875 592.1875 678.75 592.1875 667 L 592.3125 657.75 M 571.6875 677.625 C 569.0625 679.125 565.6875 680.875 561.5625 680.875 C 557.0625 680.875 553.3125 678.5 553.3125 673.25 C 553.3125 665 563.1875 663.625 571.6875 662.5 Z M 627.6875 628.125 L 626.6875 627 C 617.5625 629 614.9375 629.5 605.9375 630.625 L 605.1875 631.5 C 606.5625 646.375 607.0625 652.125 607.0625 688.125 C 607.0625 703 606.8125 711.5 606.4375 725.625 L 607.1875 726.25 C 616.0625 725.875 618.6875 725.75 628.1875 725.875 L 628.9375 725.25 L 628.0625 695.5 C 637.1875 695.375 649.8125 695.25 659.9375 685.75 C 667.9375 678.25 670.5625 667.625 670.5625 659.125 C 670.5625 639.25 658.4375 627.25 644.4375 627.25 C 635.8125 627.25 630.9375 630.75 627.4375 633.125 L 627.6875 628.125 M 627.9375 645.125 C 630.6875 643.5 632.3125 642.625 635.4375 642.625 C 637.3125 642.625 641.0625 642.875 644.1875 646.375 C 648.0625 650.625 648.6875 657 648.6875 661.25 C 648.6875 668.5 646.3125 675 641.3125 678.5 C 637.3125 681.25 632.3125 681.5 627.9375 681.625 Z M 705.0625 694.125 C 704.4375 684.5 703.9375 677.125 703.9375 659.875 C 703.9375 649.25 704.1875 638.5 704.3125 627.875 L 703.4375 626.875 L 681.9375 630.625 L 681.1875 631.375 C 682.1875 640.875 682.5625 645.25 682.5625 663 C 682.5625 676.625 682.1875 684.25 681.8125 694.5 L 682.5625 695.375 C 691.5625 695 694.0625 694.875 704.1875 695 L 705.0625 694.125 M 703.0625 614.875 L 703.4375 597.875 L 702.6875 597.125 L 682.3125 599.625 L 681.5625 600.5 C 681.8125 605 681.9375 607.625 681.9375 610.625 C 681.9375 613 681.9375 615.5 681.8125 617.875 L 682.6875 618.625 C 691.1875 617.125 693.5625 616.875 702.4375 615.75 Z M 753.9375 680.625 C 751.8125 681.25 750.3125 681.75 748.1875 681.75 C 741.8125 681.75 741.3125 677.75 741.0625 675.875 C 740.6875 672.625 740.6875 665.75 740.8125 660.75 L 741.0625 643.125 L 752.3125 643.625 L 753.0625 642.875 L 754.3125 629.5 L 753.5625 628.75 L 741.0625 628.75 L 741.4375 607.75 L 740.5625 607 C 732.0625 609.5 729.8125 610.125 720.9375 612.375 L 720.4375 613.25 L 720.5625 628.875 L 713.8125 628.625 L 713.0625 629.25 L 711.9375 642.625 L 712.6875 643.375 L 720.5625 643.125 L 720.1875 663 C 720.0625 666.125 719.9375 669.25 719.9375 672.5 C 719.9375 684 720.1875 696.375 739.6875 696.375 C 744.5625 696.375 748.4375 695.625 752.8125 694.875 L 753.6875 694 L 754.9375 681.125 Z M 826.8125 661.75 C 826.8125 656.875 826.8125 636.625 809.3125 629.75 C 803.8125 627.625 797.3125 627.375 794.0625 627.375 C 772.3125 627.375 760.0625 639 760.0625 662 C 760.0625 670 761.3125 678.125 765.9375 684.875 C 769.1875 689.75 775.3125 696.5 793.1875 696.5 C 819.6875 696.5 826.8125 680.5 826.8125 661.75 M 805.1875 661.625 C 805.1875 671.875 803.8125 683.25 793.4375 683.25 C 790.1875 683.25 787.9375 681.75 786.4375 680.375 C 784.3125 678.25 781.9375 674 781.9375 661.875 C 781.9375 658.25 781.9375 650.25 784.4375 645.875 C 786.3125 642.5 789.5625 640.25 793.5625 640.25 C 797.0625 640.25 799.9375 642.125 801.5625 644.125 C 804.5625 647.75 805.1875 654.875 805.1875 661.625 Z M 860.6875 694.125 C 860.0625 679.75 859.4375 666.625 859.4375 627.125 C 859.4375 615.25 859.5625 609.625 860.0625 596.125 L 859.1875 595.25 L 837.8125 598.625 L 837.3125 599.375 C 838.5625 614.625 838.6875 618.75 838.9375 639 C 839.0625 646.375 839.0625 653.75 839.0625 661.125 C 839.0625 674.625 838.8125 682.125 838.3125 694.5 L 839.0625 695.375 C 847.4375 695 850.8125 694.875 859.9375 695 Z M 867.6875 695 "/>
<path fill-rule="nonzero" fill="rgb(34.901961%, 14.901961%, 14.901961%)" fill-opacity="1" d="M 342.5625 756.375 C 329.5625 756.75 327.4375 756.75 313.5625 756.75 L 312.8125 757.5 L 307.0625 777.75 L 302.0625 795.875 L 296.1875 817.625 L 290.6875 795.25 L 287.1875 781.125 L 280.9375 757.125 L 280.3125 756.375 C 266.9375 756.75 264.6875 756.75 250.6875 756.75 L 249.9375 757.5 C 248.6875 794.875 248.1875 804.5 245.4375 844.625 L 246.0625 845.375 C 254.0625 845 256.4375 844.875 263.6875 845 L 264.4375 844.25 L 264.8125 820.375 L 265.5625 796.125 L 266.0625 772.5 L 271.5625 794.625 L 276.3125 812.375 L 284.6875 844.625 L 285.4375 845.375 C 293.1875 845 295.3125 844.875 304.0625 845 L 304.8125 844.25 L 312.0625 817.625 L 317.0625 799.375 L 324.0625 773.125 L 324.0625 795.5 L 324.3125 814.625 L 324.3125 844.625 L 324.9375 845.375 C 333.5625 845 336.9375 844.875 346.5625 845 L 347.1875 844.25 C 346.4375 830 345.5625 815.625 345.0625 801.25 C 344.6875 793.375 344.4375 785.5 344.0625 777.625 C 343.4375 766 343.3125 764.5 343.3125 757.125 Z M 421.3125 778.125 L 400.9375 779.125 L 400.0625 779.875 C 400.9375 794 400.9375 814 400.9375 816 C 400.9375 819.625 400.9375 821.625 400.8125 826.625 C 397.4375 828.875 394.8125 830.75 391.4375 830.75 C 382.4375 830.75 382.4375 821.25 382.4375 813.875 C 382.4375 810.75 382.4375 807.5 382.5625 804.375 L 382.8125 779.125 L 381.9375 778.125 L 361.3125 779.125 L 360.4375 779.875 C 361.1875 790.375 361.3125 793.875 361.3125 806.5 L 361.3125 815.25 C 361.1875 828.875 361.8125 834.625 366.3125 839.875 C 370.4375 844.5 376.4375 846.5 382.6875 846.5 C 391.5625 846.5 396.6875 842.5 401.1875 839 L 401.0625 844.625 L 401.9375 845.375 C 411.0625 845 413.8125 845 421.9375 845 L 422.6875 844.25 C 422.0625 835.375 421.8125 830.625 421.8125 814.375 C 421.8125 802.625 421.9375 790.875 422.1875 779.125 Z M 463.0625 801.875 C 458.8125 800.375 455.4375 799 455.4375 795.5 C 455.4375 794 456.4375 789.875 464.1875 789.875 C 471.8125 789.875 476.6875 793.125 479.8125 795.125 L 480.9375 794.75 L 482.1875 781.125 L 481.5625 780.375 C 475.6875 778.75 470.5625 777.25 462.4375 777.25 C 456.3125 777.25 444.0625 777.75 437.5625 787.125 C 435.9375 789.375 434.1875 793.125 434.1875 798.125 C 434.1875 811.5 444.5625 815.5 450.4375 817.75 L 455.1875 819.5 C 458.5625 820.625 464.0625 822.5 464.0625 827 C 464.0625 830.125 461.1875 833.5 454.1875 833.5 C 450.6875 833.5 445.5625 832.375 440.9375 830 C 438.8125 828.875 437.8125 828 435.9375 826.5 L 434.8125 827 C 434.5625 833.5 434.4375 834.875 433.9375 841.125 L 434.5625 842.25 C 440.6875 844.5 445.9375 846.5 455.0625 846.5 C 464.5625 846.5 483.3125 844.75 485.5625 826.875 C 485.6875 825.875 485.6875 825 485.6875 824.125 C 485.6875 810.375 476.0625 806.75 469.1875 804.125 Z M 552.1875 826.5 C 547.4375 829 541.8125 831.875 532.6875 831.875 C 525.1875 831.875 520.0625 829.5 517.0625 825 C 515.1875 822.375 514.8125 819.875 514.3125 817.375 L 554.6875 816.625 L 555.4375 815.75 C 555.3125 809.625 555.1875 803.375 553.4375 797.125 C 549.0625 782.375 539.4375 779.375 535.1875 778.375 C 532.0625 777.5 529.1875 777.25 526.3125 777.25 C 506.6875 777.25 493.6875 790.125 493.6875 811.75 C 493.6875 817.625 494.6875 823.75 496.6875 828.125 C 503.9375 845 520.9375 846.5 529.9375 846.5 C 540.3125 846.5 544.8125 844.625 551.4375 842 L 552.1875 841 L 553.0625 826.875 L 552.1875 826.5 M 514.3125 804.125 C 514.6875 800.25 515.5625 795 520.3125 792 C 521.8125 791 523.5625 790.625 525.3125 790.625 C 529.4375 790.625 531.9375 792.75 533.3125 795 C 535.0625 797.75 535.1875 800.75 535.1875 803.625 Z M 626.9375 778.125 L 606.5625 779.125 L 605.6875 779.875 C 606.5625 794 606.5625 814 606.5625 816 C 606.5625 819.625 606.5625 821.625 606.4375 826.625 C 603.0625 828.875 600.4375 830.75 597.0625 830.75 C 588.0625 830.75 588.0625 821.25 588.0625 813.875 C 588.0625 810.75 588.0625 807.5 588.1875 804.375 L 588.4375 779.125 L 587.5625 778.125 L 566.9375 779.125 L 566.0625 779.875 C 566.8125 790.375 566.9375 793.875 566.9375 806.5 L 566.9375 815.25 C 566.8125 828.875 567.4375 834.625 571.9375 839.875 C 576.0625 844.5 582.0625 846.5 588.3125 846.5 C 597.1875 846.5 602.3125 842.5 606.8125 839 L 606.6875 844.625 L 607.5625 845.375 C 616.6875 845 619.4375 845 627.5625 845 L 628.3125 844.25 C 627.6875 835.375 627.4375 830.625 627.4375 814.375 C 627.4375 802.625 627.5625 790.875 627.8125 779.125 Z M 740.0625 844.125 C 739.4375 832.5 739.3125 829.25 739.3125 815.125 L 739.3125 805.75 C 739.4375 797.375 739.5625 789.625 735.9375 784.375 C 731.0625 777.25 722.4375 777.25 720.4375 777.25 C 710.1875 777.25 703.3125 781.875 698.3125 785.375 C 696.5625 782.5 693.4375 777.25 683.4375 777.25 C 675.1875 777.25 669.8125 781 664.0625 785 L 664.0625 778 L 662.9375 776.875 C 653.1875 778.75 650.4375 779.25 641.6875 780.5 L 640.9375 781.375 C 641.9375 791.375 642.6875 798.25 642.6875 823 C 642.6875 830.125 642.5625 837.375 642.5625 844.5 L 643.1875 845.25 C 651.1875 845 653.9375 844.875 664.3125 844.875 L 665.0625 844.125 C 664.1875 824.875 664.0625 819.125 663.9375 797.375 C 666.5625 795.5 669.4375 793.875 672.5625 793.875 C 680.3125 793.875 680.5625 802.75 680.5625 813.5 C 680.5625 831.625 680.4375 834.375 680.1875 844.5 L 680.9375 845.375 C 690.4375 844.875 693.0625 844.875 701.6875 844.875 L 702.4375 844.125 C 701.6875 832.25 701.5625 828.75 701.4375 813.625 L 701.4375 809 L 701.3125 796.375 C 703.4375 795 706.1875 793.25 709.9375 793.25 C 717.0625 793.25 718.1875 800 718.1875 810.75 C 718.1875 813.125 718.0625 815.5 718.0625 817.875 C 717.9375 822.125 717.8125 840.75 717.6875 844.5 L 718.4375 845.25 C 727.8125 844.875 730.5625 844.875 739.3125 844.875 Z M 746.9375 845 "/>
</svg>
