<?xml version="1.0" encoding="UTF-8"?>
<svg xmlns="http://www.w3.org/2000/svg" xmlns:xlink="http://www.w3.org/1999/xlink" width="975" height="1300" viewBox="0 0 975 1300">
<path fill-rule="nonzero" fill="rgb(34.901961%, 14.901961%, 14.901961%)" fill-opacity="1" d="M 199 491.25 C 188.5 486.875 183 484.625 183 479 C 183 475.125 186.625 470.25 194.875 470.25 C 204.375 470.25 210 474.125 214.625 477.25 L 215.75 476.75 L 216.75 460.375 L 216.125 459.5 C 210.75 457.25 205.125 454.875 193 454.875 C 169.5 454.875 161.375 468.125 161.375 481.5 C 161.375 496.625 173.125 502.125 180.125 505.5 L 184.25 507.375 C 192.875 511 199.5 514.125 199.5 520.75 C 199.5 525.5 195.375 531.125 184.5 531.125 C 173.125 531.125 166.75 526.125 163.125 523.25 L 161.875 523.625 L 161 541.25 L 161.75 542.25 C 163.125 542.75 164.5 543.375 165.875 543.75 C 168.75 544.75 176.125 546.875 185.5 546.875 C 189.25 546.875 198.75 546.5 206.25 543 C 216.75 537.875 221.25 528.375 221.25 517.75 C 221.25 510.625 218.5 503 211.875 497.875 C 208.5 495.375 205.25 493.875 202.25 492.5 Z M 296.75 511.75 C 296.75 506.875 296.75 486.625 279.25 479.75 C 273.75 477.625 267.25 477.375 264 477.375 C 242.25 477.375 230 489 230 512 C 230 520 231.25 528.125 235.875 534.875 C 239.125 539.75 245.25 546.5 263.125 546.5 C 289.625 546.5 296.75 530.5 296.75 511.75 M 275.125 511.625 C 275.125 521.875 273.75 533.25 263.375 533.25 C 260.125 533.25 257.875 531.75 256.375 530.375 C 254.25 528.25 251.875 524 251.875 511.875 C 251.875 508.25 251.875 500.25 254.375 495.875 C 256.25 492.5 259.5 490.25 263.5 490.25 C 267 490.25 269.875 492.125 271.5 494.125 C 274.5 497.75 275.125 504.875 275.125 511.625 Z M 368.625 478.125 L 348.25 479.125 L 347.375 479.875 C 348.25 494 348.25 514 348.25 516 C 348.25 519.625 348.25 521.625 348.125 526.625 C 344.75 528.875 342.125 530.75 338.75 530.75 C 329.75 530.75 329.75 521.25 329.75 513.875 C 329.75 510.75 329.75 507.5 329.875 504.375 L 330.125 479.125 L 329.25 478.125 L 308.625 479.125 L 307.75 479.875 C 308.5 490.375 308.625 493.875 308.625 506.5 L 308.625 515.25 C 308.5 528.875 309.125 534.625 313.625 539.875 C 317.75 544.5 323.75 546.5 330 546.5 C 338.875 546.5 344 542.5 348.5 539 L 348.375 544.625 L 349.25 545.375 C 358.375 545 361.125 545 369.25 545 L 370 544.25 C 369.375 535.375 369.125 530.625 369.125 514.375 C 369.125 502.625 369.25 490.875 369.5 479.125 Z M 419.125 530.625 C 417 531.25 415.5 531.75 413.375 531.75 C 407 531.75 406.5 527.75 406.25 525.875 C 405.875 522.625 405.875 515.75 406 510.75 L 406.25 493.125 L 417.5 493.625 L 418.25 492.875 L 419.5 479.5 L 418.75 478.75 L 406.25 478.75 L 406.625 457.75 L 405.75 457 C 397.25 459.5 395 460.125 386.125 462.375 L 385.625 463.25 L 385.75 478.875 L 379 478.625 L 378.25 479.25 L 377.125 492.625 L 377.875 493.375 L 385.75 493.125 L 385.375 513 C 385.25 516.125 385.125 519.25 385.125 522.5 C 385.125 534 385.375 546.375 404.875 546.375 C 409.75 546.375 413.625 545.625 418 544.875 L 418.875 544 L 420.125 531.125 Z M 489.625 544.125 C 489.125 533.875 489 530.375 488.75 517.375 L 488.75 508 C 488.625 496.125 488.5 489.25 484.875 484 C 481.25 478.875 476 477.25 470.5 477.25 C 461.375 477.25 454.25 481.625 449.25 484.625 L 449.625 446.125 L 448.875 445.25 L 427.5 448.625 L 426.875 449.375 C 428 461.5 428.25 466 428.5 482.125 C 428.75 492.25 428.875 502.375 428.875 512.5 C 428.875 524.875 428.625 532.25 428.375 544.5 L 429 545.375 C 438.25 544.875 440.125 544.875 450.25 544.875 L 451 544.125 C 450.125 525.375 450 519.75 449.875 497.625 C 452.25 496 455.25 493.875 459.5 493.875 C 466.375 493.875 466.875 501 467.375 506 C 467.625 509.875 467.75 527.625 467.75 532.25 C 467.75 536.375 467.625 540.375 467.625 544.5 L 468.25 545.375 C 477.25 544.875 479.25 544.875 488.875 544.875 Z M 583 544.25 C 582.375 528 582.25 523.5 582.25 507.5 L 609.875 457.25 L 609.375 456.375 C 600 456.75 597.5 456.75 589.875 456.75 L 589.125 457.5 C 581.875 473.125 578.5 479.75 573.25 490 C 571.875 487.25 565.5 475.125 564.25 472.75 C 562 468.25 560.25 464.5 556.5 456.5 L 555.625 455.875 C 545 456.5 542.375 456.625 531.875 456.75 L 531.5 457.75 C 535.125 464.25 551.75 492.5 555 498.25 C 556.75 501.5 558.5 504.75 560.375 508 L 560.375 512 C 560.375 524.375 560.25 529.875 559.5 544.625 L 560.125 545.375 C 570.625 545 573.375 545 582.25 545 Z M 675.875 478.125 L 655.5 479.125 L 654.625 479.875 C 655.5 494 655.5 514 655.5 516 C 655.5 519.625 655.5 521.625 655.375 526.625 C 652 528.875 649.375 530.75 646 530.75 C 637 530.75 637 521.25 637 513.875 C 637 510.75 637 507.5 637.125 504.375 L 637.375 479.125 L 636.5 478.125 L 615.875 479.125 L 615 479.875 C 615.75 490.375 615.875 493.875 615.875 506.5 L 615.875 515.25 C 615.75 528.875 616.375 534.625 620.875 539.875 C 625 544.5 631 546.5 637.25 546.5 C 646.125 546.5 651.25 542.5 655.75 539 L 655.625 544.625 L 656.5 545.375 C 665.625 545 668.375 545 676.5 545 L 677.25 544.25 C 676.625 535.375 676.375 530.625 676.375 514.375 C 676.375 502.625 676.5 490.875 676.75 479.125 Z M 700.375 545.25 L 702.875 545.25 C 722.875 545.25 735.75 544.25 745.25 534.125 C 754.125 524.625 755 513.375 755 508.125 C 755 490.75 745 477.25 728 477.25 C 719.75 477.25 715.375 480 711.875 482.25 L 712.625 446 L 711.625 445.25 L 690.875 448.5 L 690.125 449.375 C 691.125 459.875 691.5 464.125 691.5 489.25 C 691.5 500 691.375 521.25 691.25 544.5 L 692.125 545.375 L 700.375 545.25 M 712.375 494.625 C 714.875 493.375 717.25 492.125 720.5 492.125 C 728.75 492.125 733.5 499.5 733.5 511 C 733.5 520 729.5 525.875 726.125 528.25 C 722 531.125 716.625 531.25 712.375 531.375 Z M 822.5 507.75 C 822.625 496.5 822.625 491.625 819.375 486.375 C 816.875 482.375 811.875 477.375 795.875 477.375 C 785.125 477.375 778.5 479.375 771.375 481.5 L 770.625 482.5 L 770 496.125 L 771 496.625 C 775.375 494.875 783.5 491.625 791.875 491.625 C 796.5 491.625 798.375 492.375 800 494 C 801.25 495.25 801.625 497.5 801.625 499.375 C 786.625 501.375 779.625 502.75 772.125 507.375 C 765.125 511.75 762.75 518.875 762.75 524.5 C 762.75 537.875 772.375 546.5 784.625 546.5 C 794 546.5 799.375 542 802 539.875 L 802 544.5 L 802.75 545.375 C 811.75 545 814.5 544.875 822.625 545 L 823.25 544.125 C 822.375 531.875 822.375 528.75 822.375 517 L 822.5 507.75 M 801.875 527.625 C 799.25 529.125 795.875 530.875 791.75 530.875 C 787.25 530.875 783.5 528.5 783.5 523.25 C 783.5 515 793.375 513.625 801.875 512.5 Z M 829.625 545 "/>
<path fill-rule="nonzero" fill="rgb(34.901961%, 14.901961%, 14.901961%)" fill-opacity="1" d="M 213 660.625 C 221.375 674.875 223.25 678.625 231.25 695 L 232.25 695.625 C 236.125 695.375 239.875 695.125 243.75 695 C 247.625 694.875 251.625 694.75 255.5 694.75 L 256.25 693.25 C 251.5 687.125 250.125 685.25 241.125 670.875 C 237.125 664.5 235.125 661.125 232 655.625 C 237.625 653.125 249 647.875 249 632 C 249 626.5 247.5 615.125 237.25 609.75 C 230.75 606.375 224 606.25 209.375 606.5 L 200.625 606.625 L 185.375 606.625 L 184.75 607.375 C 185.25 620 185.75 633 185.75 667 C 185.75 678.625 185.625 684.25 185.25 694.625 L 186 695.375 C 195.125 695 197.125 694.875 207.375 695 L 208.125 694.25 C 207.125 679.75 207 675.75 206.875 660.875 L 213 660.625 M 207.125 621.75 C 208.875 621.625 210.625 621.625 212.375 621.625 C 217.25 621.625 226.875 621.625 226.875 632.625 C 226.875 636.125 226 640.75 221.375 643.625 C 217.875 645.75 213.375 646 207.125 646.125 Z M 285.5 694.125 C 284.875 684.5 284.375 677.125 284.375 659.875 C 284.375 649.25 284.625 638.5 284.75 627.875 L 283.875 626.875 L 262.375 630.625 L 261.625 631.375 C 262.625 640.875 263 645.25 263 663 C 263 676.625 262.625 684.25 262.25 694.5 L 263 695.375 C 272 695 274.5 694.875 284.625 695 L 285.5 694.125 M 283.5 614.875 L 283.875 597.875 L 283.125 597.125 L 262.75 599.625 L 262 600.5 C 262.25 605 262.375 607.625 262.375 610.625 C 262.375 613 262.375 615.5 262.25 617.875 L 263.125 618.625 C 271.625 617.125 274 616.875 282.875 615.75 Z M 333.875 694 C 337.875 681.5 340.25 673.75 342.875 665.875 C 346.25 655.75 351.75 639.5 355.25 629.25 L 354.625 628.375 L 337.125 628.75 L 336.25 629.625 C 334.5 638 334.125 639.75 331.625 649.5 L 325.25 674.125 L 322.125 660.625 L 319.75 651 C 316.625 639.375 316.125 637 314.375 628.75 L 313.5 628 C 303.625 629.125 301.125 629.25 291.625 629.375 L 291.125 630.375 C 307.75 679.625 309.125 684.25 311.875 694.5 L 312.75 695.375 C 320.875 695 324.125 694.875 333.125 695 Z M 417.375 676.5 C 412.625 679 407 681.875 397.875 681.875 C 390.375 681.875 385.25 679.5 382.25 675 C 380.375 672.375 380 669.875 379.5 667.375 L 419.875 666.625 L 420.625 665.75 C 420.5 659.625 420.375 653.375 418.625 647.125 C 414.25 632.375 404.625 629.375 400.375 628.375 C 397.25 627.5 394.375 627.25 391.5 627.25 C 371.875 627.25 358.875 640.125 358.875 661.75 C 358.875 667.625 359.875 673.75 361.875 678.125 C 369.125 695 386.125 696.5 395.125 696.5 C 405.5 696.5 410 694.625 416.625 692 L 417.375 691 L 418.25 676.875 L 417.375 676.5 M 379.5 654.125 C 379.875 650.25 380.75 645 385.5 642 C 387 641 388.75 640.625 390.5 640.625 C 394.625 640.625 397.125 642.75 398.5 645 C 400.25 647.75 400.375 650.75 400.375 653.625 Z M 468.25 648.625 L 471.75 628.25 L 471 627.375 C 470.125 627.375 469.25 627.25 468.375 627.25 C 463.25 627.25 457.5 630.125 453.5 639.375 L 453.875 627.875 L 452.875 626.875 C 443.625 628.875 441.25 629.25 432.125 630.625 L 431.375 631.375 C 432.125 640.75 432.5 646.375 432.5 663.75 C 432.5 674 432.375 684.25 432.125 694.625 L 432.875 695.375 C 442.125 695 444.125 694.875 454.125 695 L 454.75 694.125 C 454.25 684 453.5 669.875 453.5 661.25 C 453.5 655.625 453.5 647.375 462 647.375 C 464.125 647.375 465.375 648.125 467.125 649.125 Z M 551.625 641.25 C 541.125 636.875 535.625 634.625 535.625 629 C 535.625 625.125 539.25 620.25 547.5 620.25 C 557 620.25 562.625 624.125 567.25 627.25 L 568.375 626.75 L 569.375 610.375 L 568.75 609.5 C 563.375 607.25 557.75 604.875 545.625 604.875 C 522.125 604.875 514 618.125 514 631.5 C 514 646.625 525.75 652.125 532.75 655.5 L 536.875 657.375 C 545.5 661 552.125 664.125 552.125 670.75 C 552.125 675.5 548 681.125 537.125 681.125 C 525.75 681.125 519.375 676.125 515.75 673.25 L 514.5 673.625 L 513.625 691.25 L 514.375 692.25 C 515.75 692.75 517.125 693.375 518.5 693.75 C 521.375 694.75 528.75 696.875 538.125 696.875 C 541.875 696.875 551.375 696.5 558.875 693 C 569.375 687.875 573.875 678.375 573.875 667.75 C 573.875 660.625 571.125 653 564.5 647.875 C 561.125 645.375 557.875 643.875 554.875 642.5 Z M 620.75 680.625 C 618.625 681.25 617.125 681.75 615 681.75 C 608.625 681.75 608.125 677.75 607.875 675.875 C 607.5 672.625 607.5 665.75 607.625 660.75 L 607.875 643.125 L 619.125 643.625 L 619.875 642.875 L 621.125 629.5 L 620.375 628.75 L 607.875 628.75 L 608.25 607.75 L 607.375 607 C 598.875 609.5 596.625 610.125 587.75 612.375 L 587.25 613.25 L 587.375 628.875 L 580.625 628.625 L 579.875 629.25 L 578.75 642.625 L 579.5 643.375 L 587.375 643.125 L 587 663 C 586.875 666.125 586.75 669.25 586.75 672.5 C 586.75 684 587 696.375 606.5 696.375 C 611.375 696.375 615.25 695.625 619.625 694.875 L 620.5 694 L 621.75 681.125 Z M 685.625 657.75 C 685.75 646.5 685.75 641.625 682.5 636.375 C 680 632.375 675 627.375 659 627.375 C 648.25 627.375 641.625 629.375 634.5 631.5 L 633.75 632.5 L 633.125 646.125 L 634.125 646.625 C 638.5 644.875 646.625 641.625 655 641.625 C 659.625 641.625 661.5 642.375 663.125 644 C 664.375 645.25 664.75 647.5 664.75 649.375 C 649.75 651.375 642.75 652.75 635.25 657.375 C 628.25 661.75 625.875 668.875 625.875 674.5 C 625.875 687.875 635.5 696.5 647.75 696.5 C 657.125 696.5 662.5 692 665.125 689.875 L 665.125 694.5 L 665.875 695.375 C 674.875 695 677.625 694.875 685.75 695 L 686.375 694.125 C 685.5 681.875 685.5 678.75 685.5 667 L 685.625 657.75 M 665 677.625 C 662.375 679.125 659 680.875 654.875 680.875 C 650.375 680.875 646.625 678.5 646.625 673.25 C 646.625 665 656.5 663.625 665 662.5 Z M 735.25 680.625 C 733.125 681.25 731.625 681.75 729.5 681.75 C 723.125 681.75 722.625 677.75 722.375 675.875 C 722 672.625 722 665.75 722.125 660.75 L 722.375 643.125 L 733.625 643.625 L 734.375 642.875 L 735.625 629.5 L 734.875 628.75 L 722.375 628.75 L 722.75 607.75 L 721.875 607 C 713.375 609.5 711.125 610.125 702.25 612.375 L 701.75 613.25 L 701.875 628.875 L 695.125 628.625 L 694.375 629.25 L 693.25 642.625 L 694 643.375 L 701.875 643.125 L 701.5 663 C 701.375 666.125 701.25 669.25 701.25 672.5 C 701.25 684 701.5 696.375 721 696.375 C 725.875 696.375 729.75 695.625 734.125 694.875 L 735 694 L 736.25 681.125 Z M 800 676.5 C 795.25 679 789.625 681.875 780.5 681.875 C 773 681.875 767.875 679.5 764.875 675 C 763 672.375 762.625 669.875 762.125 667.375 L 802.5 666.625 L 803.25 665.75 C 803.125 659.625 803 653.375 801.25 647.125 C 796.875 632.375 787.25 629.375 783 628.375 C 779.875 627.5 777 627.25 774.125 627.25 C 754.5 627.25 741.5 640.125 741.5 661.75 C 741.5 667.625 742.5 673.75 744.5 678.125 C 751.75 695 768.75 696.5 777.75 696.5 C 788.125 696.5 792.625 694.625 799.25 692 L 800 691 L 800.875 676.875 L 800 676.5 M 762.125 654.125 C 762.5 650.25 763.375 645 768.125 642 C 769.625 641 771.375 640.625 773.125 640.625 C 777.25 640.625 779.75 642.75 781.125 645 C 782.875 647.75 783 650.75 783 653.625 Z M 807.25 695 "/>
<path fill-rule="nonzero" fill="rgb(34.901961%, 14.901961%, 14.901961%)" fill-opacity="1" d="M 382.375 756.5 L 366.5 756.75 L 365.75 757.5 C 366.25 773.75 366.625 784.625 366.625 799 C 366.625 814.25 366.25 829.375 365.875 844.625 L 366.625 845.375 C 375.875 845 377.875 844.875 387.875 845 L 388.5 844.25 C 388 830.625 388 827.5 388 814.75 C 402 814.875 417 814.875 426 803.875 C 429.5 799.625 432.5 792.5 432.5 783.75 C 432.5 778.375 431.25 766.5 420.875 760.625 C 413.375 756.25 402.75 756.25 393.375 756.25 L 382.375 756.5 M 388 771.625 C 390.75 771.5 393.375 771.5 396.125 771.5 C 407.125 771.75 410.125 777.375 410.125 784.625 C 410.125 786.375 410.125 793.625 403.5 797.25 C 400.125 799.125 395.5 799.375 388 799.375 Z M 496.75 807.75 C 496.875 796.5 496.875 791.625 493.625 786.375 C 491.125 782.375 486.125 777.375 470.125 777.375 C 459.375 777.375 452.75 779.375 445.625 781.5 L 444.875 782.5 L 444.25 796.125 L 445.25 796.625 C 449.625 794.875 457.75 791.625 466.125 791.625 C 470.75 791.625 472.625 792.375 474.25 794 C 475.5 795.25 475.875 797.5 475.875 799.375 C 460.875 801.375 453.875 802.75 446.375 807.375 C 439.375 811.75 437 818.875 437 824.5 C 437 837.875 446.625 846.5 458.875 846.5 C 468.25 846.5 473.625 842 476.25 839.875 L 476.25 844.5 L 477 845.375 C 486 845 488.75 844.875 496.875 845 L 497.5 844.125 C 496.625 831.875 496.625 828.75 496.625 817 L 496.75 807.75 M 476.125 827.625 C 473.5 829.125 470.125 830.875 466 830.875 C 461.5 830.875 457.75 828.5 457.75 823.25 C 457.75 815 467.625 813.625 476.125 812.5 Z M 547.5 798.625 L 551 778.25 L 550.25 777.375 C 549.375 777.375 548.5 777.25 547.625 777.25 C 542.5 777.25 536.75 780.125 532.75 789.375 L 533.125 777.875 L 532.125 776.875 C 522.875 778.875 520.5 779.25 511.375 780.625 L 510.625 781.375 C 511.375 790.75 511.75 796.375 511.75 813.75 C 511.75 824 511.625 834.25 511.375 844.625 L 512.125 845.375 C 521.375 845 523.375 844.875 533.375 845 L 534 844.125 C 533.5 834 532.75 819.875 532.75 811.25 C 532.75 805.625 532.75 797.375 541.25 797.375 C 543.375 797.375 544.625 798.125 546.375 799.125 Z M 622.5 843.375 C 610.75 823.5 609.5 821.25 600 804.125 C 608.625 792.375 609.5 791.125 618.375 779.75 L 617.75 778.5 L 597.375 778.75 L 596.125 779.625 C 586.375 796.5 585.125 798.5 579.375 807.125 L 579.375 793.25 C 579.5 769.875 579.625 764.875 580.25 746 L 579.25 745.25 L 557.5 748.5 L 556.75 749.375 C 557.625 761.5 558 767.375 558.25 783.75 C 558.5 804 558.5 824.25 558.375 844.5 L 559.25 845.375 C 567.625 845 570 845 579.5 845 L 580.25 844.125 L 579.5 823 L 579.375 808.625 C 590.25 828.625 591.625 831.375 598 844.625 L 599.125 845.375 L 621.625 844.5 Z M 621 845 "/>
</svg>
