<?xml version="1.0" encoding="UTF-8"?>
<svg xmlns="http://www.w3.org/2000/svg" xmlns:xlink="http://www.w3.org/1999/xlink" width="975" height="1300" viewBox="0 0 975 1300">
<path fill-rule="nonzero" fill="rgb(34.901961%, 14.901961%, 14.901961%)" fill-opacity="1" d="M 259.0625 520.25 C 259.0625 514 259.1875 507.75 259.3125 501.375 L 258.6875 500.625 L 237.4375 501 L 236.8125 501.75 C 237.9375 514 238.0625 517 237.8125 528.375 C 234.4375 529.125 231.9375 529.75 228.4375 529.75 C 209.0625 529.75 205.5625 511.25 205.5625 501.875 C 205.5625 482.125 216.1875 471.375 231.9375 471.375 C 241.4375 471.375 247.0625 475.125 252.9375 479 L 253.9375 478.625 C 254.5625 470.875 254.8125 468.875 255.8125 461.375 L 255.1875 460.625 C 249.9375 458.375 241.5625 454.875 228.5625 454.875 C 214.3125 454.875 198.6875 458.875 188.8125 475.625 C 184.3125 483.5 182.4375 493.625 182.4375 502 C 182.4375 513.75 185.5625 523.625 191.1875 530.875 C 198.5625 540.375 207.6875 543.375 212.5625 544.75 C 216.1875 545.75 221.5625 546.875 229.3125 546.875 C 242.1875 546.875 250.0625 544.25 258.8125 541.375 L 259.4375 540.375 C 259.3125 534.625 259.0625 528.875 259.0625 523.125 Z M 336.8125 511.75 C 336.8125 506.875 336.8125 486.625 319.3125 479.75 C 313.8125 477.625 307.3125 477.375 304.0625 477.375 C 282.3125 477.375 270.0625 489 270.0625 512 C 270.0625 520 271.3125 528.125 275.9375 534.875 C 279.1875 539.75 285.3125 546.5 303.1875 546.5 C 329.6875 546.5 336.8125 530.5 336.8125 511.75 M 315.1875 511.625 C 315.1875 521.875 313.8125 533.25 303.4375 533.25 C 300.1875 533.25 297.9375 531.75 296.4375 530.375 C 294.3125 528.25 291.9375 524 291.9375 511.875 C 291.9375 508.25 291.9375 500.25 294.4375 495.875 C 296.3125 492.5 299.5625 490.25 303.5625 490.25 C 307.0625 490.25 309.9375 492.125 311.5625 494.125 C 314.5625 497.75 315.1875 504.875 315.1875 511.625 Z M 383.1875 544 C 387.1875 531.5 389.5625 523.75 392.1875 515.875 C 395.5625 505.75 401.0625 489.5 404.5625 479.25 L 403.9375 478.375 L 386.4375 478.75 L 385.5625 479.625 C 383.8125 488 383.4375 489.75 380.9375 499.5 L 374.5625 524.125 L 371.4375 510.625 L 369.0625 501 C 365.9375 489.375 365.4375 487 363.6875 478.75 L 362.8125 478 C 352.9375 479.125 350.4375 479.25 340.9375 479.375 L 340.4375 480.375 C 357.0625 529.625 358.4375 534.25 361.1875 544.5 L 362.0625 545.375 C 370.1875 545 373.4375 544.875 382.4375 545 Z M 466.6875 526.5 C 461.9375 529 456.3125 531.875 447.1875 531.875 C 439.6875 531.875 434.5625 529.5 431.5625 525 C 429.6875 522.375 429.3125 519.875 428.8125 517.375 L 469.1875 516.625 L 469.9375 515.75 C 469.8125 509.625 469.6875 503.375 467.9375 497.125 C 463.5625 482.375 453.9375 479.375 449.6875 478.375 C 446.5625 477.5 443.6875 477.25 440.8125 477.25 C 421.1875 477.25 408.1875 490.125 408.1875 511.75 C 408.1875 517.625 409.1875 523.75 411.1875 528.125 C 418.4375 545 435.4375 546.5 444.4375 546.5 C 454.8125 546.5 459.3125 544.625 465.9375 542 L 466.6875 541 L 467.5625 526.875 L 466.6875 526.5 M 428.8125 504.125 C 429.1875 500.25 430.0625 495 434.8125 492 C 436.3125 491 438.0625 490.625 439.8125 490.625 C 443.9375 490.625 446.4375 492.75 447.8125 495 C 449.5625 497.75 449.6875 500.75 449.6875 503.625 Z M 517.5625 498.625 L 521.0625 478.25 L 520.3125 477.375 C 519.4375 477.375 518.5625 477.25 517.6875 477.25 C 512.5625 477.25 506.8125 480.125 502.8125 489.375 L 503.1875 477.875 L 502.1875 476.875 C 492.9375 478.875 490.5625 479.25 481.4375 480.625 L 480.6875 481.375 C 481.4375 490.75 481.8125 496.375 481.8125 513.75 C 481.8125 524 481.6875 534.25 481.4375 544.625 L 482.1875 545.375 C 491.4375 545 493.4375 544.875 503.4375 545 L 504.0625 544.125 C 503.5625 534 502.8125 519.875 502.8125 511.25 C 502.8125 505.625 502.8125 497.375 511.3125 497.375 C 513.4375 497.375 514.6875 498.125 516.4375 499.125 Z M 589.5625 544.125 C 588.9375 533.125 588.9375 529.625 588.6875 517.375 L 588.6875 507.625 C 588.5625 495.625 588.4375 489.875 585.3125 484.75 C 581.4375 478.25 574.3125 477.25 569.8125 477.25 C 562.1875 477.25 555.5625 481.25 549.8125 484.625 L 550.0625 477.75 L 548.8125 476.875 C 539.1875 478.875 537.0625 479.25 527.6875 480.5 L 526.9375 481.375 C 527.9375 492.25 528.6875 500.125 528.6875 520.5 C 528.6875 528.5 528.5625 536.5 528.4375 544.5 L 529.1875 545.25 C 538.1875 544.875 540.0625 544.875 550.0625 544.875 L 550.8125 544.125 C 550.0625 524.875 549.9375 520 549.8125 497.625 C 552.4375 495.875 555.4375 493.75 559.4375 493.75 C 566.3125 493.75 566.9375 501.125 567.3125 505.625 C 567.5625 509.75 567.6875 526.875 567.6875 531.625 C 567.6875 535.875 567.5625 540.25 567.5625 544.5 L 568.3125 545.25 C 576.5625 545 578.6875 544.875 588.6875 544.875 Z M 667.4375 511.75 C 667.4375 506.875 667.4375 486.625 649.9375 479.75 C 644.4375 477.625 637.9375 477.375 634.6875 477.375 C 612.9375 477.375 600.6875 489 600.6875 512 C 600.6875 520 601.9375 528.125 606.5625 534.875 C 609.8125 539.75 615.9375 546.5 633.8125 546.5 C 660.3125 546.5 667.4375 530.5 667.4375 511.75 M 645.8125 511.625 C 645.8125 521.875 644.4375 533.25 634.0625 533.25 C 630.8125 533.25 628.5625 531.75 627.0625 530.375 C 624.9375 528.25 622.5625 524 622.5625 511.875 C 622.5625 508.25 622.5625 500.25 625.0625 495.875 C 626.9375 492.5 630.1875 490.25 634.1875 490.25 C 637.6875 490.25 640.5625 492.125 642.1875 494.125 C 645.1875 497.75 645.8125 504.875 645.8125 511.625 Z M 715.4375 498.625 L 718.9375 478.25 L 718.1875 477.375 C 717.3125 477.375 716.4375 477.25 715.5625 477.25 C 710.4375 477.25 704.6875 480.125 700.6875 489.375 L 701.0625 477.875 L 700.0625 476.875 C 690.8125 478.875 688.4375 479.25 679.3125 480.625 L 678.5625 481.375 C 679.3125 490.75 679.6875 496.375 679.6875 513.75 C 679.6875 524 679.5625 534.25 679.3125 544.625 L 680.0625 545.375 C 689.3125 545 691.3125 544.875 701.3125 545 L 701.9375 544.125 C 701.4375 534 700.6875 519.875 700.6875 511.25 C 700.6875 505.625 700.6875 497.375 709.1875 497.375 C 711.3125 497.375 712.5625 498.125 714.3125 499.125 Z M 739.3125 460 C 739.4375 458.25 739.6875 456.125 738.3125 454.25 C 737.8125 453.625 735.8125 451.375 732.1875 451.375 C 728.6875 451.375 724.0625 453.5 724.0625 458.75 C 724.0625 459.625 724.0625 460.5 724.1875 461.5 L 730.0625 492.375 L 733.4375 492.375 Z M 778.4375 501.875 C 774.1875 500.375 770.8125 499 770.8125 495.5 C 770.8125 494 771.8125 489.875 779.5625 489.875 C 787.1875 489.875 792.0625 493.125 795.1875 495.125 L 796.3125 494.75 L 797.5625 481.125 L 796.9375 480.375 C 791.0625 478.75 785.9375 477.25 777.8125 477.25 C 771.6875 477.25 759.4375 477.75 752.9375 487.125 C 751.3125 489.375 749.5625 493.125 749.5625 498.125 C 749.5625 511.5 759.9375 515.5 765.8125 517.75 L 770.5625 519.5 C 773.9375 520.625 779.4375 522.5 779.4375 527 C 779.4375 530.125 776.5625 533.5 769.5625 533.5 C 766.0625 533.5 760.9375 532.375 756.3125 530 C 754.1875 528.875 753.1875 528 751.3125 526.5 L 750.1875 527 C 749.9375 533.5 749.8125 534.875 749.3125 541.125 L 749.9375 542.25 C 756.0625 544.5 761.3125 546.5 770.4375 546.5 C 779.9375 546.5 798.6875 544.75 800.9375 526.875 C 801.0625 525.875 801.0625 525 801.0625 524.125 C 801.0625 510.375 791.4375 506.75 784.5625 504.125 Z M 804.5625 545 "/>
<path fill-rule="nonzero" fill="rgb(34.901961%, 14.901961%, 14.901961%)" fill-opacity="1" d="M 173.25 606.375 C 160.25 606.75 158.125 606.75 144.25 606.75 L 143.5 607.5 L 137.75 627.75 L 132.75 645.875 L 126.875 667.625 L 121.375 645.25 L 117.875 631.125 L 111.625 607.125 L 111 606.375 C 97.625 606.75 95.375 606.75 81.375 606.75 L 80.625 607.5 C 79.375 644.875 78.875 654.5 76.125 694.625 L 76.75 695.375 C 84.75 695 87.125 694.875 94.375 695 L 95.125 694.25 L 95.5 670.375 L 96.25 646.125 L 96.75 622.5 L 102.25 644.625 L 107 662.375 L 115.375 694.625 L 116.125 695.375 C 123.875 695 126 694.875 134.75 695 L 135.5 694.25 L 142.75 667.625 L 147.75 649.375 L 154.75 623.125 L 154.75 645.5 L 155 664.625 L 155 694.625 L 155.625 695.375 C 164.25 695 167.625 694.875 177.25 695 L 177.875 694.25 C 177.125 680 176.25 665.625 175.75 651.25 C 175.375 643.375 175.125 635.5 174.75 627.625 C 174.125 616 174 614.5 174 607.125 Z M 247.625 657.75 C 247.75 646.5 247.75 641.625 244.5 636.375 C 242 632.375 237 627.375 221 627.375 C 210.25 627.375 203.625 629.375 196.5 631.5 L 195.75 632.5 L 195.125 646.125 L 196.125 646.625 C 200.5 644.875 208.625 641.625 217 641.625 C 221.625 641.625 223.5 642.375 225.125 644 C 226.375 645.25 226.75 647.5 226.75 649.375 C 211.75 651.375 204.75 652.75 197.25 657.375 C 190.25 661.75 187.875 668.875 187.875 674.5 C 187.875 687.875 197.5 696.5 209.75 696.5 C 219.125 696.5 224.5 692 227.125 689.875 L 227.125 694.5 L 227.875 695.375 C 236.875 695 239.625 694.875 247.75 695 L 248.375 694.125 C 247.5 681.875 247.5 678.75 247.5 667 L 247.625 657.75 M 227 677.625 C 224.375 679.125 221 680.875 216.875 680.875 C 212.375 680.875 208.625 678.5 208.625 673.25 C 208.625 665 218.5 663.625 227 662.5 Z M 323.5 694.125 C 322.875 683.125 322.875 679.625 322.625 667.375 L 322.625 657.625 C 322.5 645.625 322.375 639.875 319.25 634.75 C 315.375 628.25 308.25 627.25 303.75 627.25 C 296.125 627.25 289.5 631.25 283.75 634.625 L 284 627.75 L 282.75 626.875 C 273.125 628.875 271 629.25 261.625 630.5 L 260.875 631.375 C 261.875 642.25 262.625 650.125 262.625 670.5 C 262.625 678.5 262.5 686.5 262.375 694.5 L 263.125 695.25 C 272.125 694.875 274 694.875 284 694.875 L 284.75 694.125 C 284 674.875 283.875 670 283.75 647.625 C 286.375 645.875 289.375 643.75 293.375 643.75 C 300.25 643.75 300.875 651.125 301.25 655.625 C 301.5 659.75 301.625 676.875 301.625 681.625 C 301.625 685.875 301.5 690.25 301.5 694.5 L 302.25 695.25 C 310.5 695 312.625 694.875 322.625 694.875 Z M 364 651.875 C 359.75 650.375 356.375 649 356.375 645.5 C 356.375 644 357.375 639.875 365.125 639.875 C 372.75 639.875 377.625 643.125 380.75 645.125 L 381.875 644.75 L 383.125 631.125 L 382.5 630.375 C 376.625 628.75 371.5 627.25 363.375 627.25 C 357.25 627.25 345 627.75 338.5 637.125 C 336.875 639.375 335.125 643.125 335.125 648.125 C 335.125 661.5 345.5 665.5 351.375 667.75 L 356.125 669.5 C 359.5 670.625 365 672.5 365 677 C 365 680.125 362.125 683.5 355.125 683.5 C 351.625 683.5 346.5 682.375 341.875 680 C 339.75 678.875 338.75 678 336.875 676.5 L 335.75 677 C 335.5 683.5 335.375 684.875 334.875 691.125 L 335.5 692.25 C 341.625 694.5 346.875 696.5 356 696.5 C 365.5 696.5 384.25 694.75 386.5 676.875 C 386.625 675.875 386.625 675 386.625 674.125 C 386.625 660.375 377 656.75 370.125 654.125 Z M 420.25 694.125 C 419.625 684.5 419.125 677.125 419.125 659.875 C 419.125 649.25 419.375 638.5 419.5 627.875 L 418.625 626.875 L 397.125 630.625 L 396.375 631.375 C 397.375 640.875 397.75 645.25 397.75 663 C 397.75 676.625 397.375 684.25 397 694.5 L 397.75 695.375 C 406.75 695 409.25 694.875 419.375 695 L 420.25 694.125 M 418.25 614.875 L 418.625 597.875 L 417.875 597.125 L 397.5 599.625 L 396.75 600.5 C 397 605 397.125 607.625 397.125 610.625 C 397.125 613 397.125 615.5 397 617.875 L 397.875 618.625 C 406.375 617.125 408.75 616.875 417.625 615.75 Z M 497.75 661.75 C 497.75 656.875 497.75 636.625 480.25 629.75 C 474.75 627.625 468.25 627.375 465 627.375 C 443.25 627.375 431 639 431 662 C 431 670 432.25 678.125 436.875 684.875 C 440.125 689.75 446.25 696.5 464.125 696.5 C 490.625 696.5 497.75 680.5 497.75 661.75 M 476.125 661.625 C 476.125 671.875 474.75 683.25 464.375 683.25 C 461.125 683.25 458.875 681.75 457.375 680.375 C 455.25 678.25 452.875 674 452.875 661.875 C 452.875 658.25 452.875 650.25 455.375 645.875 C 457.25 642.5 460.5 640.25 464.5 640.25 C 468 640.25 470.875 642.125 472.5 644.125 C 475.5 647.75 476.125 654.875 476.125 661.625 Z M 570.875 694.125 C 570.25 683.125 570.25 679.625 570 667.375 L 570 657.625 C 569.875 645.625 569.75 639.875 566.625 634.75 C 562.75 628.25 555.625 627.25 551.125 627.25 C 543.5 627.25 536.875 631.25 531.125 634.625 L 531.375 627.75 L 530.125 626.875 C 520.5 628.875 518.375 629.25 509 630.5 L 508.25 631.375 C 509.25 642.25 510 650.125 510 670.5 C 510 678.5 509.875 686.5 509.75 694.5 L 510.5 695.25 C 519.5 694.875 521.375 694.875 531.375 694.875 L 532.125 694.125 C 531.375 674.875 531.25 670 531.125 647.625 C 533.75 645.875 536.75 643.75 540.75 643.75 C 547.625 643.75 548.25 651.125 548.625 655.625 C 548.875 659.75 549 676.875 549 681.625 C 549 685.875 548.875 690.25 548.875 694.5 L 549.625 695.25 C 557.875 695 560 694.875 570 694.875 Z M 657.75 641.25 C 647.25 636.875 641.75 634.625 641.75 629 C 641.75 625.125 645.375 620.25 653.625 620.25 C 663.125 620.25 668.75 624.125 673.375 627.25 L 674.5 626.75 L 675.5 610.375 L 674.875 609.5 C 669.5 607.25 663.875 604.875 651.75 604.875 C 628.25 604.875 620.125 618.125 620.125 631.5 C 620.125 646.625 631.875 652.125 638.875 655.5 L 643 657.375 C 651.625 661 658.25 664.125 658.25 670.75 C 658.25 675.5 654.125 681.125 643.25 681.125 C 631.875 681.125 625.5 676.125 621.875 673.25 L 620.625 673.625 L 619.75 691.25 L 620.5 692.25 C 621.875 692.75 623.25 693.375 624.625 693.75 C 627.5 694.75 634.875 696.875 644.25 696.875 C 648 696.875 657.5 696.5 665 693 C 675.5 687.875 680 678.375 680 667.75 C 680 660.625 677.25 653 670.625 647.875 C 667.25 645.375 664 643.875 661 642.5 Z M 726.875 680.625 C 724.75 681.25 723.25 681.75 721.125 681.75 C 714.75 681.75 714.25 677.75 714 675.875 C 713.625 672.625 713.625 665.75 713.75 660.75 L 714 643.125 L 725.25 643.625 L 726 642.875 L 727.25 629.5 L 726.5 628.75 L 714 628.75 L 714.375 607.75 L 713.5 607 C 705 609.5 702.75 610.125 693.875 612.375 L 693.375 613.25 L 693.5 628.875 L 686.75 628.625 L 686 629.25 L 684.875 642.625 L 685.625 643.375 L 693.5 643.125 L 693.125 663 C 693 666.125 692.875 669.25 692.875 672.5 C 692.875 684 693.125 696.375 712.625 696.375 C 717.5 696.375 721.375 695.625 725.75 694.875 L 726.625 694 L 727.875 681.125 Z M 791.75 657.75 C 791.875 646.5 791.875 641.625 788.625 636.375 C 786.125 632.375 781.125 627.375 765.125 627.375 C 754.375 627.375 747.75 629.375 740.625 631.5 L 739.875 632.5 L 739.25 646.125 L 740.25 646.625 C 744.625 644.875 752.75 641.625 761.125 641.625 C 765.75 641.625 767.625 642.375 769.25 644 C 770.5 645.25 770.875 647.5 770.875 649.375 C 755.875 651.375 748.875 652.75 741.375 657.375 C 734.375 661.75 732 668.875 732 674.5 C 732 687.875 741.625 696.5 753.875 696.5 C 763.25 696.5 768.625 692 771.25 689.875 L 771.25 694.5 L 772 695.375 C 781 695 783.75 694.875 791.875 695 L 792.5 694.125 C 791.625 681.875 791.625 678.75 791.625 667 L 791.75 657.75 M 771.125 677.625 C 768.5 679.125 765.125 680.875 761 680.875 C 756.5 680.875 752.75 678.5 752.75 673.25 C 752.75 665 762.625 663.625 771.125 662.5 Z M 841.375 680.625 C 839.25 681.25 837.75 681.75 835.625 681.75 C 829.25 681.75 828.75 677.75 828.5 675.875 C 828.125 672.625 828.125 665.75 828.25 660.75 L 828.5 643.125 L 839.75 643.625 L 840.5 642.875 L 841.75 629.5 L 841 628.75 L 828.5 628.75 L 828.875 607.75 L 828 607 C 819.5 609.5 817.25 610.125 808.375 612.375 L 807.875 613.25 L 808 628.875 L 801.25 628.625 L 800.5 629.25 L 799.375 642.625 L 800.125 643.375 L 808 643.125 L 807.625 663 C 807.5 666.125 807.375 669.25 807.375 672.5 C 807.375 684 807.625 696.375 827.125 696.375 C 832 696.375 835.875 695.625 840.25 694.875 L 841.125 694 L 842.375 681.125 Z M 906.125 676.5 C 901.375 679 895.75 681.875 886.625 681.875 C 879.125 681.875 874 679.5 871 675 C 869.125 672.375 868.75 669.875 868.25 667.375 L 908.625 666.625 L 909.375 665.75 C 909.25 659.625 909.125 653.375 907.375 647.125 C 903 632.375 893.375 629.375 889.125 628.375 C 886 627.5 883.125 627.25 880.25 627.25 C 860.625 627.25 847.625 640.125 847.625 661.75 C 847.625 667.625 848.625 673.75 850.625 678.125 C 857.875 695 874.875 696.5 883.875 696.5 C 894.25 696.5 898.75 694.625 905.375 692 L 906.125 691 L 907 676.875 L 906.125 676.5 M 868.25 654.125 C 868.625 650.25 869.5 645 874.25 642 C 875.75 641 877.5 640.625 879.25 640.625 C 883.375 640.625 885.875 642.75 887.25 645 C 889 647.75 889.125 650.75 889.125 653.625 Z M 913.375 695 "/>
<path fill-rule="nonzero" fill="rgb(34.901961%, 14.901961%, 14.901961%)" fill-opacity="1" d="M 196.8125 756.375 C 186.8125 756.75 185.1875 756.75 174.6875 756.75 L 174.0625 757.5 C 174.9375 771.625 174.9375 775.25 175.0625 790 C 169.5625 790.125 164.0625 790.25 158.4375 790.25 C 154.0625 790.25 149.5625 790.125 145.1875 790.125 L 145.4375 757.125 L 144.8125 756.375 C 135.1875 756.75 133.3125 756.75 122.4375 756.75 L 121.6875 757.5 C 122.3125 770.375 123.0625 785.75 123.0625 816.75 C 123.0625 828 122.8125 834.125 122.5625 844.625 L 123.1875 845.375 C 132.3125 845 134.5625 844.875 145.5625 845 L 146.1875 844.25 C 145.4375 828.75 145.3125 824.25 145.1875 806.125 C 150.6875 805.875 155.3125 805.75 160.1875 805.75 C 165.1875 805.75 170.1875 805.875 175.1875 806 C 175.4375 822.875 175.4375 827 174.8125 844.625 L 175.4375 845.375 C 184.8125 845 187.3125 844.875 197.9375 845 L 198.5625 844.25 C 197.5625 823.25 197.1875 802.375 197.1875 781.375 C 197.1875 772.625 197.3125 766.75 197.4375 757.125 Z M 235.6875 844.125 C 235.0625 834.5 234.5625 827.125 234.5625 809.875 C 234.5625 799.25 234.8125 788.5 234.9375 777.875 L 234.0625 776.875 L 212.5625 780.625 L 211.8125 781.375 C 212.8125 790.875 213.1875 795.25 213.1875 813 C 213.1875 826.625 212.8125 834.25 212.4375 844.5 L 213.1875 845.375 C 222.1875 845 224.6875 844.875 234.8125 845 L 235.6875 844.125 M 233.6875 764.875 L 234.0625 747.875 L 233.3125 747.125 L 212.9375 749.625 L 212.1875 750.5 C 212.4375 755 212.5625 757.625 212.5625 760.625 C 212.5625 763 212.5625 765.5 212.4375 767.875 L 213.3125 768.625 C 221.8125 767.125 224.1875 766.875 233.0625 765.75 Z M 275.8125 801.875 C 271.5625 800.375 268.1875 799 268.1875 795.5 C 268.1875 794 269.1875 789.875 276.9375 789.875 C 284.5625 789.875 289.4375 793.125 292.5625 795.125 L 293.6875 794.75 L 294.9375 781.125 L 294.3125 780.375 C 288.4375 778.75 283.3125 777.25 275.1875 777.25 C 269.0625 777.25 256.8125 777.75 250.3125 787.125 C 248.6875 789.375 246.9375 793.125 246.9375 798.125 C 246.9375 811.5 257.3125 815.5 263.1875 817.75 L 267.9375 819.5 C 271.3125 820.625 276.8125 822.5 276.8125 827 C 276.8125 830.125 273.9375 833.5 266.9375 833.5 C 263.4375 833.5 258.3125 832.375 253.6875 830 C 251.5625 828.875 250.5625 828 248.6875 826.5 L 247.5625 827 C 247.3125 833.5 247.1875 834.875 246.6875 841.125 L 247.3125 842.25 C 253.4375 844.5 258.6875 846.5 267.8125 846.5 C 277.3125 846.5 296.0625 844.75 298.3125 826.875 C 298.4375 825.875 298.4375 825 298.4375 824.125 C 298.4375 810.375 288.8125 806.75 281.9375 804.125 Z M 344.4375 830.625 C 342.3125 831.25 340.8125 831.75 338.6875 831.75 C 332.3125 831.75 331.8125 827.75 331.5625 825.875 C 331.1875 822.625 331.1875 815.75 331.3125 810.75 L 331.5625 793.125 L 342.8125 793.625 L 343.5625 792.875 L 344.8125 779.5 L 344.0625 778.75 L 331.5625 778.75 L 331.9375 757.75 L 331.0625 757 C 322.5625 759.5 320.3125 760.125 311.4375 762.375 L 310.9375 763.25 L 311.0625 778.875 L 304.3125 778.625 L 303.5625 779.25 L 302.4375 792.625 L 303.1875 793.375 L 311.0625 793.125 L 310.6875 813 C 310.5625 816.125 310.4375 819.25 310.4375 822.5 C 310.4375 834 310.6875 846.375 330.1875 846.375 C 335.0625 846.375 338.9375 845.625 343.3125 844.875 L 344.1875 844 L 345.4375 831.125 Z M 417.3125 811.75 C 417.3125 806.875 417.3125 786.625 399.8125 779.75 C 394.3125 777.625 387.8125 777.375 384.5625 777.375 C 362.8125 777.375 350.5625 789 350.5625 812 C 350.5625 820 351.8125 828.125 356.4375 834.875 C 359.6875 839.75 365.8125 846.5 383.6875 846.5 C 410.1875 846.5 417.3125 830.5 417.3125 811.75 M 395.6875 811.625 C 395.6875 821.875 394.3125 833.25 383.9375 833.25 C 380.6875 833.25 378.4375 831.75 376.9375 830.375 C 374.8125 828.25 372.4375 824 372.4375 811.875 C 372.4375 808.25 372.4375 800.25 374.9375 795.875 C 376.8125 792.5 380.0625 790.25 384.0625 790.25 C 387.5625 790.25 390.4375 792.125 392.0625 794.125 C 395.0625 797.75 395.6875 804.875 395.6875 811.625 Z M 465.3125 798.625 L 468.8125 778.25 L 468.0625 777.375 C 467.1875 777.375 466.3125 777.25 465.4375 777.25 C 460.3125 777.25 454.5625 780.125 450.5625 789.375 L 450.9375 777.875 L 449.9375 776.875 C 440.6875 778.875 438.3125 779.25 429.1875 780.625 L 428.4375 781.375 C 429.1875 790.75 429.5625 796.375 429.5625 813.75 C 429.5625 824 429.4375 834.25 429.1875 844.625 L 429.9375 845.375 C 439.1875 845 441.1875 844.875 451.1875 845 L 451.8125 844.125 C 451.3125 834 450.5625 819.875 450.5625 811.25 C 450.5625 805.625 450.5625 797.375 459.0625 797.375 C 461.1875 797.375 462.4375 798.125 464.1875 799.125 Z M 498.6875 844.125 C 498.0625 834.5 497.5625 827.125 497.5625 809.875 C 497.5625 799.25 497.8125 788.5 497.9375 777.875 L 497.0625 776.875 L 475.5625 780.625 L 474.8125 781.375 C 475.8125 790.875 476.1875 795.25 476.1875 813 C 476.1875 826.625 475.8125 834.25 475.4375 844.5 L 476.1875 845.375 C 485.1875 845 487.6875 844.875 497.8125 845 L 498.6875 844.125 M 496.6875 764.875 L 497.0625 747.875 L 496.3125 747.125 L 475.9375 749.625 L 475.1875 750.5 C 475.4375 755 475.5625 757.625 475.5625 760.625 C 475.5625 763 475.5625 765.5 475.4375 767.875 L 476.3125 768.625 C 484.8125 767.125 487.1875 766.875 496.0625 765.75 Z M 561.4375 827 C 558.0625 829 554.8125 831 548.4375 831 C 534.3125 831 531.4375 819.25 531.4375 811.75 C 531.4375 802.625 535.4375 792.125 547.5625 792.125 C 553.0625 792.125 556.0625 794.125 559.8125 796.625 L 561.0625 796.25 C 561.5625 789.625 561.6875 787.875 562.6875 781.25 L 562.0625 780.5 C 556.5625 778.75 551.8125 777.25 544.5625 777.25 C 515.1875 777.25 509.4375 799.5 509.4375 812.25 C 509.4375 826.625 516.9375 846.125 545.0625 846.125 C 551.6875 846.125 555.9375 844.875 561.1875 843.375 L 561.9375 842.625 L 562.4375 827.625 Z M 625.6875 756.5 L 609.8125 756.75 L 609.0625 757.5 C 609.5625 773.75 609.9375 784.625 609.9375 799 C 609.9375 814.25 609.5625 829.375 609.1875 844.625 L 609.9375 845.375 C 619.1875 845 621.1875 844.875 631.1875 845 L 631.8125 844.25 C 631.3125 830.625 631.3125 827.5 631.3125 814.75 C 645.3125 814.875 660.3125 814.875 669.3125 803.875 C 672.8125 799.625 675.8125 792.5 675.8125 783.75 C 675.8125 778.375 674.5625 766.5 664.1875 760.625 C 656.6875 756.25 646.0625 756.25 636.6875 756.25 L 625.6875 756.5 M 631.3125 771.625 C 634.0625 771.5 636.6875 771.5 639.4375 771.5 C 650.4375 771.75 653.4375 777.375 653.4375 784.625 C 653.4375 786.375 653.4375 793.625 646.8125 797.25 C 643.4375 799.125 638.8125 799.375 631.3125 799.375 Z M 740.0625 807.75 C 740.1875 796.5 740.1875 791.625 736.9375 786.375 C 734.4375 782.375 729.4375 777.375 713.4375 777.375 C 702.6875 777.375 696.0625 779.375 688.9375 781.5 L 688.1875 782.5 L 687.5625 796.125 L 688.5625 796.625 C 692.9375 794.875 701.0625 791.625 709.4375 791.625 C 714.0625 791.625 715.9375 792.375 717.5625 794 C 718.8125 795.25 719.1875 797.5 719.1875 799.375 C 704.1875 801.375 697.1875 802.75 689.6875 807.375 C 682.6875 811.75 680.3125 818.875 680.3125 824.5 C 680.3125 837.875 689.9375 846.5 702.1875 846.5 C 711.5625 846.5 716.9375 842 719.5625 839.875 L 719.5625 844.5 L 720.3125 845.375 C 729.3125 845 732.0625 844.875 740.1875 845 L 740.8125 844.125 C 739.9375 831.875 739.9375 828.75 739.9375 817 L 740.0625 807.75 M 719.4375 827.625 C 716.8125 829.125 713.4375 830.875 709.3125 830.875 C 704.8125 830.875 701.0625 828.5 701.0625 823.25 C 701.0625 815 710.9375 813.625 719.4375 812.5 Z M 790.8125 798.625 L 794.3125 778.25 L 793.5625 777.375 C 792.6875 777.375 791.8125 777.25 790.9375 777.25 C 785.8125 777.25 780.0625 780.125 776.0625 789.375 L 776.4375 777.875 L 775.4375 776.875 C 766.1875 778.875 763.8125 779.25 754.6875 780.625 L 753.9375 781.375 C 754.6875 790.75 755.0625 796.375 755.0625 813.75 C 755.0625 824 754.9375 834.25 754.6875 844.625 L 755.4375 845.375 C 764.6875 845 766.6875 844.875 776.6875 845 L 777.3125 844.125 C 776.8125 834 776.0625 819.875 776.0625 811.25 C 776.0625 805.625 776.0625 797.375 784.5625 797.375 C 786.6875 797.375 787.9375 798.125 789.6875 799.125 Z M 865.8125 843.375 C 854.0625 823.5 852.8125 821.25 843.3125 804.125 C 851.9375 792.375 852.8125 791.125 861.6875 779.75 L 861.0625 778.5 L 840.6875 778.75 L 839.4375 779.625 C 829.6875 796.5 828.4375 798.5 822.6875 807.125 L 822.6875 793.25 C 822.8125 769.875 822.9375 764.875 823.5625 746 L 822.5625 745.25 L 800.8125 748.5 L 800.0625 749.375 C 800.9375 761.5 801.3125 767.375 801.5625 783.75 C 801.8125 804 801.8125 824.25 801.6875 844.5 L 802.5625 845.375 C 810.9375 845 813.3125 845 822.8125 845 L 823.5625 844.125 L 822.8125 823 L 822.6875 808.625 C 833.5625 828.625 834.9375 831.375 841.3125 844.625 L 842.4375 845.375 L 864.9375 844.5 Z M 864.3125 845 "/>
</svg>
