<?xml version="1.0" encoding="UTF-8"?>
<svg xmlns="http://www.w3.org/2000/svg" xmlns:xlink="http://www.w3.org/1999/xlink" width="975" height="1300" viewBox="0 0 975 1300">
<path fill-rule="nonzero" fill="rgb(34.901961%, 14.901961%, 14.901961%)" fill-opacity="1" d="M 339 434 L 339.875 433.25 L 340.875 418.625 L 340.25 417.875 L 311.75 418.875 L 311.75 398 L 342.375 398.375 L 343.125 397.5 L 344.5 382 L 343.75 381.375 C 323.125 381.75 316.5 381.75 289.5 381.625 L 288.75 382.375 C 289.5 394.625 290 404.5 290 426.625 C 290 441 289.75 455.375 289.5 469.75 L 290.125 470.375 C 299.25 470 301.375 470 312.375 470 L 313 469.25 C 312.125 454.875 312 450.5 311.625 434 Z M 417.625 436.75 C 417.625 431.875 417.625 411.625 400.125 404.75 C 394.625 402.625 388.125 402.375 384.875 402.375 C 363.125 402.375 350.875 414 350.875 437 C 350.875 445 352.125 453.125 356.75 459.875 C 360 464.75 366.125 471.5 384 471.5 C 410.5 471.5 417.625 455.5 417.625 436.75 M 396 436.625 C 396 446.875 394.625 458.25 384.25 458.25 C 381 458.25 378.75 456.75 377.25 455.375 C 375.125 453.25 372.75 449 372.75 436.875 C 372.75 433.25 372.75 425.25 375.25 420.875 C 377.125 417.5 380.375 415.25 384.375 415.25 C 387.875 415.25 390.75 417.125 392.375 419.125 C 395.375 422.75 396 429.875 396 436.625 Z M 451.5 469.125 C 450.875 454.75 450.25 441.625 450.25 402.125 C 450.25 390.25 450.375 384.625 450.875 371.125 L 450 370.25 L 428.625 373.625 L 428.125 374.375 C 429.375 389.625 429.5 393.75 429.75 414 C 429.875 421.375 429.875 428.75 429.875 436.125 C 429.875 449.625 429.625 457.125 429.125 469.5 L 429.875 470.375 C 438.25 470 441.625 469.875 450.75 470 Z M 492.25 426.875 C 488 425.375 484.625 424 484.625 420.5 C 484.625 419 485.625 414.875 493.375 414.875 C 501 414.875 505.875 418.125 509 420.125 L 510.125 419.75 L 511.375 406.125 L 510.75 405.375 C 504.875 403.75 499.75 402.25 491.625 402.25 C 485.5 402.25 473.25 402.75 466.75 412.125 C 465.125 414.375 463.375 418.125 463.375 423.125 C 463.375 436.5 473.75 440.5 479.625 442.75 L 484.375 444.5 C 487.75 445.625 493.25 447.5 493.25 452 C 493.25 455.125 490.375 458.5 483.375 458.5 C 479.875 458.5 474.75 457.375 470.125 455 C 468 453.875 467 453 465.125 451.5 L 464 452 C 463.75 458.5 463.625 459.875 463.125 466.125 L 463.75 467.25 C 469.875 469.5 475.125 471.5 484.25 471.5 C 493.75 471.5 512.5 469.75 514.75 451.875 C 514.875 450.875 514.875 450 514.875 449.125 C 514.875 435.375 505.25 431.75 498.375 429.125 Z M 589.5 436.75 C 589.5 431.875 589.5 411.625 572 404.75 C 566.5 402.625 560 402.375 556.75 402.375 C 535 402.375 522.75 414 522.75 437 C 522.75 445 524 453.125 528.625 459.875 C 531.875 464.75 538 471.5 555.875 471.5 C 582.375 471.5 589.5 455.5 589.5 436.75 M 567.875 436.625 C 567.875 446.875 566.5 458.25 556.125 458.25 C 552.875 458.25 550.625 456.75 549.125 455.375 C 547 453.25 544.625 449 544.625 436.875 C 544.625 433.25 544.625 425.25 547.125 420.875 C 549 417.5 552.25 415.25 556.25 415.25 C 559.75 415.25 562.625 417.125 564.25 419.125 C 567.25 422.75 567.875 429.875 567.875 436.625 Z M 699 469.125 C 698.375 457.5 698.25 454.25 698.25 440.125 L 698.25 430.75 C 698.375 422.375 698.5 414.625 694.875 409.375 C 690 402.25 681.375 402.25 679.375 402.25 C 669.125 402.25 662.25 406.875 657.25 410.375 C 655.5 407.5 652.375 402.25 642.375 402.25 C 634.125 402.25 628.75 406 623 410 L 623 403 L 621.875 401.875 C 612.125 403.75 609.375 404.25 600.625 405.5 L 599.875 406.375 C 600.875 416.375 601.625 423.25 601.625 448 C 601.625 455.125 601.5 462.375 601.5 469.5 L 602.125 470.25 C 610.125 470 612.875 469.875 623.25 469.875 L 624 469.125 C 623.125 449.875 623 444.125 622.875 422.375 C 625.5 420.5 628.375 418.875 631.5 418.875 C 639.25 418.875 639.5 427.75 639.5 438.5 C 639.5 456.625 639.375 459.375 639.125 469.5 L 639.875 470.375 C 649.375 469.875 652 469.875 660.625 469.875 L 661.375 469.125 C 660.625 457.25 660.5 453.75 660.375 438.625 L 660.375 434 L 660.25 421.375 C 662.375 420 665.125 418.25 668.875 418.25 C 676 418.25 677.125 425 677.125 435.75 C 677.125 438.125 677 440.5 677 442.875 C 676.875 447.125 676.75 465.75 676.625 469.5 L 677.375 470.25 C 686.75 469.875 689.5 469.875 698.25 469.875 Z M 705.875 470 "/>
<path fill-rule="nonzero" fill="rgb(34.901961%, 14.901961%, 14.901961%)" fill-opacity="1" d="M 153.4375 531.5 L 137.5625 531.75 L 136.8125 532.5 C 137.3125 548.75 137.6875 559.625 137.6875 574 C 137.6875 589.25 137.3125 604.375 136.9375 619.625 L 137.6875 620.375 C 146.9375 620 148.9375 619.875 158.9375 620 L 159.5625 619.25 C 159.0625 605.625 159.0625 602.5 159.0625 589.75 C 173.0625 589.875 188.0625 589.875 197.0625 578.875 C 200.5625 574.625 203.5625 567.5 203.5625 558.75 C 203.5625 553.375 202.3125 541.5 191.9375 535.625 C 184.4375 531.25 173.8125 531.25 164.4375 531.25 L 153.4375 531.5 M 159.0625 546.625 C 161.8125 546.5 164.4375 546.5 167.1875 546.5 C 178.1875 546.75 181.1875 552.375 181.1875 559.625 C 181.1875 561.375 181.1875 568.625 174.5625 572.25 C 171.1875 574.125 166.5625 574.375 159.0625 574.375 Z M 275.8125 586.75 C 275.8125 581.875 275.8125 561.625 258.3125 554.75 C 252.8125 552.625 246.3125 552.375 243.0625 552.375 C 221.3125 552.375 209.0625 564 209.0625 587 C 209.0625 595 210.3125 603.125 214.9375 609.875 C 218.1875 614.75 224.3125 621.5 242.1875 621.5 C 268.6875 621.5 275.8125 605.5 275.8125 586.75 M 254.1875 586.625 C 254.1875 596.875 252.8125 608.25 242.4375 608.25 C 239.1875 608.25 236.9375 606.75 235.4375 605.375 C 233.3125 603.25 230.9375 599 230.9375 586.875 C 230.9375 583.25 230.9375 575.25 233.4375 570.875 C 235.3125 567.5 238.5625 565.25 242.5625 565.25 C 246.0625 565.25 248.9375 567.125 250.5625 569.125 C 253.5625 572.75 254.1875 579.875 254.1875 586.625 Z M 364.9375 619.125 C 369.9375 599.75 370.8125 596.75 378.3125 569.875 C 379.8125 564.75 381.1875 559.5 382.5625 554.375 L 381.8125 553.375 L 365.5625 553.75 L 364.6875 554.625 L 361.0625 573.375 L 357.5625 588.5 L 355.1875 600 L 353.0625 588.875 L 350.3125 575.875 L 345.9375 554.25 L 345.1875 553.375 L 321.1875 553.75 L 320.3125 554.625 L 316.1875 575.125 L 313.1875 588.875 L 310.8125 600.375 L 308.4375 588 L 305.4375 574.5 L 301.1875 553.75 L 300.4375 553.125 L 280.1875 554.625 L 279.4375 555.625 C 291.1875 596.875 293.0625 604.25 296.5625 619.625 L 297.4375 620.375 C 306.0625 620 309.1875 619.875 320.6875 620 L 321.4375 619.125 L 324.6875 603.875 L 328.1875 588.75 L 331.3125 573.625 L 333.1875 583.125 L 335.0625 592.375 L 340.3125 619.5 L 341.1875 620.375 C 350.4375 620 354.1875 619.875 364.1875 620 Z M 444.6875 601.5 C 439.9375 604 434.3125 606.875 425.1875 606.875 C 417.6875 606.875 412.5625 604.5 409.5625 600 C 407.6875 597.375 407.3125 594.875 406.8125 592.375 L 447.1875 591.625 L 447.9375 590.75 C 447.8125 584.625 447.6875 578.375 445.9375 572.125 C 441.5625 557.375 431.9375 554.375 427.6875 553.375 C 424.5625 552.5 421.6875 552.25 418.8125 552.25 C 399.1875 552.25 386.1875 565.125 386.1875 586.75 C 386.1875 592.625 387.1875 598.75 389.1875 603.125 C 396.4375 620 413.4375 621.5 422.4375 621.5 C 432.8125 621.5 437.3125 619.625 443.9375 617 L 444.6875 616 L 445.5625 601.875 L 444.6875 601.5 M 406.8125 579.125 C 407.1875 575.25 408.0625 570 412.8125 567 C 414.3125 566 416.0625 565.625 417.8125 565.625 C 421.9375 565.625 424.4375 567.75 425.8125 570 C 427.5625 572.75 427.6875 575.75 427.6875 578.625 Z M 495.5625 573.625 L 499.0625 553.25 L 498.3125 552.375 C 497.4375 552.375 496.5625 552.25 495.6875 552.25 C 490.5625 552.25 484.8125 555.125 480.8125 564.375 L 481.1875 552.875 L 480.1875 551.875 C 470.9375 553.875 468.5625 554.25 459.4375 555.625 L 458.6875 556.375 C 459.4375 565.75 459.8125 571.375 459.8125 588.75 C 459.8125 599 459.6875 609.25 459.4375 619.625 L 460.1875 620.375 C 469.4375 620 471.4375 619.875 481.4375 620 L 482.0625 619.125 C 481.5625 609 480.8125 594.875 480.8125 586.25 C 480.8125 580.625 480.8125 572.375 489.3125 572.375 C 491.4375 572.375 492.6875 573.125 494.4375 574.125 Z M 567.5625 619.125 C 567.0625 608.875 566.9375 605.375 566.6875 592.375 L 566.6875 583 C 566.5625 571.125 566.4375 564.25 562.8125 559 C 559.1875 553.875 553.9375 552.25 548.4375 552.25 C 539.3125 552.25 532.1875 556.625 527.1875 559.625 L 527.5625 521.125 L 526.8125 520.25 L 505.4375 523.625 L 504.8125 524.375 C 505.9375 536.5 506.1875 541 506.4375 557.125 C 506.6875 567.25 506.8125 577.375 506.8125 587.5 C 506.8125 599.875 506.5625 607.25 506.3125 619.5 L 506.9375 620.375 C 516.1875 619.875 518.0625 619.875 528.1875 619.875 L 528.9375 619.125 C 528.0625 600.375 527.9375 594.75 527.8125 572.625 C 530.1875 571 533.1875 568.875 537.4375 568.875 C 544.3125 568.875 544.8125 576 545.3125 581 C 545.5625 584.875 545.6875 602.625 545.6875 607.25 C 545.6875 611.375 545.5625 615.375 545.5625 619.5 L 546.1875 620.375 C 555.1875 619.875 557.1875 619.875 566.8125 619.875 Z M 645.4375 586.75 C 645.4375 581.875 645.4375 561.625 627.9375 554.75 C 622.4375 552.625 615.9375 552.375 612.6875 552.375 C 590.9375 552.375 578.6875 564 578.6875 587 C 578.6875 595 579.9375 603.125 584.5625 609.875 C 587.8125 614.75 593.9375 621.5 611.8125 621.5 C 638.3125 621.5 645.4375 605.5 645.4375 586.75 M 623.8125 586.625 C 623.8125 596.875 622.4375 608.25 612.0625 608.25 C 608.8125 608.25 606.5625 606.75 605.0625 605.375 C 602.9375 603.25 600.5625 599 600.5625 586.875 C 600.5625 583.25 600.5625 575.25 603.0625 570.875 C 604.9375 567.5 608.1875 565.25 612.1875 565.25 C 615.6875 565.25 618.5625 567.125 620.1875 569.125 C 623.1875 572.75 623.8125 579.875 623.8125 586.625 Z M 717.3125 553.125 L 696.9375 554.125 L 696.0625 554.875 C 696.9375 569 696.9375 589 696.9375 591 C 696.9375 594.625 696.9375 596.625 696.8125 601.625 C 693.4375 603.875 690.8125 605.75 687.4375 605.75 C 678.4375 605.75 678.4375 596.25 678.4375 588.875 C 678.4375 585.75 678.4375 582.5 678.5625 579.375 L 678.8125 554.125 L 677.9375 553.125 L 657.3125 554.125 L 656.4375 554.875 C 657.1875 565.375 657.3125 568.875 657.3125 581.5 L 657.3125 590.25 C 657.1875 603.875 657.8125 609.625 662.3125 614.875 C 666.4375 619.5 672.4375 621.5 678.6875 621.5 C 687.5625 621.5 692.6875 617.5 697.1875 614 L 697.0625 619.625 L 697.9375 620.375 C 707.0625 620 709.8125 620 717.9375 620 L 718.6875 619.25 C 718.0625 610.375 717.8125 605.625 717.8125 589.375 C 717.8125 577.625 717.9375 565.875 718.1875 554.125 Z M 759.0625 576.875 C 754.8125 575.375 751.4375 574 751.4375 570.5 C 751.4375 569 752.4375 564.875 760.1875 564.875 C 767.8125 564.875 772.6875 568.125 775.8125 570.125 L 776.9375 569.75 L 778.1875 556.125 L 777.5625 555.375 C 771.6875 553.75 766.5625 552.25 758.4375 552.25 C 752.3125 552.25 740.0625 552.75 733.5625 562.125 C 731.9375 564.375 730.1875 568.125 730.1875 573.125 C 730.1875 586.5 740.5625 590.5 746.4375 592.75 L 751.1875 594.5 C 754.5625 595.625 760.0625 597.5 760.0625 602 C 760.0625 605.125 757.1875 608.5 750.1875 608.5 C 746.6875 608.5 741.5625 607.375 736.9375 605 C 734.8125 603.875 733.8125 603 731.9375 601.5 L 730.8125 602 C 730.5625 608.5 730.4375 609.875 729.9375 616.125 L 730.5625 617.25 C 736.6875 619.5 741.9375 621.5 751.0625 621.5 C 760.5625 621.5 779.3125 619.75 781.5625 601.875 C 781.6875 600.875 781.6875 600 781.6875 599.125 C 781.6875 585.375 772.0625 581.75 765.1875 579.125 Z M 848.1875 601.5 C 843.4375 604 837.8125 606.875 828.6875 606.875 C 821.1875 606.875 816.0625 604.5 813.0625 600 C 811.1875 597.375 810.8125 594.875 810.3125 592.375 L 850.6875 591.625 L 851.4375 590.75 C 851.3125 584.625 851.1875 578.375 849.4375 572.125 C 845.0625 557.375 835.4375 554.375 831.1875 553.375 C 828.0625 552.5 825.1875 552.25 822.3125 552.25 C 802.6875 552.25 789.6875 565.125 789.6875 586.75 C 789.6875 592.625 790.6875 598.75 792.6875 603.125 C 799.9375 620 816.9375 621.5 825.9375 621.5 C 836.3125 621.5 840.8125 619.625 847.4375 617 L 848.1875 616 L 849.0625 601.875 L 848.1875 601.5 M 810.3125 579.125 C 810.6875 575.25 811.5625 570 816.3125 567 C 817.8125 566 819.5625 565.625 821.3125 565.625 C 825.4375 565.625 827.9375 567.75 829.3125 570 C 831.0625 572.75 831.1875 575.75 831.1875 578.625 Z M 855.4375 620 "/>
<path fill-rule="nonzero" fill="rgb(34.901961%, 14.901961%, 14.901961%)" fill-opacity="1" d="M 140.9375 716.25 C 130.4375 711.875 124.9375 709.625 124.9375 704 C 124.9375 700.125 128.5625 695.25 136.8125 695.25 C 146.3125 695.25 151.9375 699.125 156.5625 702.25 L 157.6875 701.75 L 158.6875 685.375 L 158.0625 684.5 C 152.6875 682.25 147.0625 679.875 134.9375 679.875 C 111.4375 679.875 103.3125 693.125 103.3125 706.5 C 103.3125 721.625 115.0625 727.125 122.0625 730.5 L 126.1875 732.375 C 134.8125 736 141.4375 739.125 141.4375 745.75 C 141.4375 750.5 137.3125 756.125 126.4375 756.125 C 115.0625 756.125 108.6875 751.125 105.0625 748.25 L 103.8125 748.625 L 102.9375 766.25 L 103.6875 767.25 C 105.0625 767.75 106.4375 768.375 107.8125 768.75 C 110.6875 769.75 118.0625 771.875 127.4375 771.875 C 131.1875 771.875 140.6875 771.5 148.1875 768 C 158.6875 762.875 163.1875 753.375 163.1875 742.75 C 163.1875 735.625 160.4375 728 153.8125 722.875 C 150.4375 720.375 147.1875 718.875 144.1875 717.5 Z M 210.0625 755.625 C 207.9375 756.25 206.4375 756.75 204.3125 756.75 C 197.9375 756.75 197.4375 752.75 197.1875 750.875 C 196.8125 747.625 196.8125 740.75 196.9375 735.75 L 197.1875 718.125 L 208.4375 718.625 L 209.1875 717.875 L 210.4375 704.5 L 209.6875 703.75 L 197.1875 703.75 L 197.5625 682.75 L 196.6875 682 C 188.1875 684.5 185.9375 685.125 177.0625 687.375 L 176.5625 688.25 L 176.6875 703.875 L 169.9375 703.625 L 169.1875 704.25 L 168.0625 717.625 L 168.8125 718.375 L 176.6875 718.125 L 176.3125 738 C 176.1875 741.125 176.0625 744.25 176.0625 747.5 C 176.0625 759 176.3125 771.375 195.8125 771.375 C 200.6875 771.375 204.5625 770.625 208.9375 769.875 L 209.8125 769 L 211.0625 756.125 Z M 274.9375 732.75 C 275.0625 721.5 275.0625 716.625 271.8125 711.375 C 269.3125 707.375 264.3125 702.375 248.3125 702.375 C 237.5625 702.375 230.9375 704.375 223.8125 706.5 L 223.0625 707.5 L 222.4375 721.125 L 223.4375 721.625 C 227.8125 719.875 235.9375 716.625 244.3125 716.625 C 248.9375 716.625 250.8125 717.375 252.4375 719 C 253.6875 720.25 254.0625 722.5 254.0625 724.375 C 239.0625 726.375 232.0625 727.75 224.5625 732.375 C 217.5625 736.75 215.1875 743.875 215.1875 749.5 C 215.1875 762.875 224.8125 771.5 237.0625 771.5 C 246.4375 771.5 251.8125 767 254.4375 764.875 L 254.4375 769.5 L 255.1875 770.375 C 264.1875 770 266.9375 769.875 275.0625 770 L 275.6875 769.125 C 274.8125 756.875 274.8125 753.75 274.8125 742 L 274.9375 732.75 M 254.3125 752.625 C 251.6875 754.125 248.3125 755.875 244.1875 755.875 C 239.6875 755.875 235.9375 753.5 235.9375 748.25 C 235.9375 740 245.8125 738.625 254.3125 737.5 Z M 324.5625 755.625 C 322.4375 756.25 320.9375 756.75 318.8125 756.75 C 312.4375 756.75 311.9375 752.75 311.6875 750.875 C 311.3125 747.625 311.3125 740.75 311.4375 735.75 L 311.6875 718.125 L 322.9375 718.625 L 323.6875 717.875 L 324.9375 704.5 L 324.1875 703.75 L 311.6875 703.75 L 312.0625 682.75 L 311.1875 682 C 302.6875 684.5 300.4375 685.125 291.5625 687.375 L 291.0625 688.25 L 291.1875 703.875 L 284.4375 703.625 L 283.6875 704.25 L 282.5625 717.625 L 283.3125 718.375 L 291.1875 718.125 L 290.8125 738 C 290.6875 741.125 290.5625 744.25 290.5625 747.5 C 290.5625 759 290.8125 771.375 310.3125 771.375 C 315.1875 771.375 319.0625 770.625 323.4375 769.875 L 324.3125 769 L 325.5625 756.125 Z M 389.3125 751.5 C 384.5625 754 378.9375 756.875 369.8125 756.875 C 362.3125 756.875 357.1875 754.5 354.1875 750 C 352.3125 747.375 351.9375 744.875 351.4375 742.375 L 391.8125 741.625 L 392.5625 740.75 C 392.4375 734.625 392.3125 728.375 390.5625 722.125 C 386.1875 707.375 376.5625 704.375 372.3125 703.375 C 369.1875 702.5 366.3125 702.25 363.4375 702.25 C 343.8125 702.25 330.8125 715.125 330.8125 736.75 C 330.8125 742.625 331.8125 748.75 333.8125 753.125 C 341.0625 770 358.0625 771.5 367.0625 771.5 C 377.4375 771.5 381.9375 769.625 388.5625 767 L 389.3125 766 L 390.1875 751.875 L 389.3125 751.5 M 351.4375 729.125 C 351.8125 725.25 352.6875 720 357.4375 717 C 358.9375 716 360.6875 715.625 362.4375 715.625 C 366.5625 715.625 369.0625 717.75 370.4375 720 C 372.1875 722.75 372.3125 725.75 372.3125 728.625 Z M 515.4375 681.375 C 505.4375 681.75 503.8125 681.75 493.3125 681.75 L 492.6875 682.5 C 493.5625 696.625 493.5625 700.25 493.6875 715 C 488.1875 715.125 482.6875 715.25 477.0625 715.25 C 472.6875 715.25 468.1875 715.125 463.8125 715.125 L 464.0625 682.125 L 463.4375 681.375 C 453.8125 681.75 451.9375 681.75 441.0625 681.75 L 440.3125 682.5 C 440.9375 695.375 441.6875 710.75 441.6875 741.75 C 441.6875 753 441.4375 759.125 441.1875 769.625 L 441.8125 770.375 C 450.9375 770 453.1875 769.875 464.1875 770 L 464.8125 769.25 C 464.0625 753.75 463.9375 749.25 463.8125 731.125 C 469.3125 730.875 473.9375 730.75 478.8125 730.75 C 483.8125 730.75 488.8125 730.875 493.8125 731 C 494.0625 747.875 494.0625 752 493.4375 769.625 L 494.0625 770.375 C 503.4375 770 505.9375 769.875 516.5625 770 L 517.1875 769.25 C 516.1875 748.25 515.8125 727.375 515.8125 706.375 C 515.8125 697.625 515.9375 691.75 516.0625 682.125 Z M 554.3125 769.125 C 553.6875 759.5 553.1875 752.125 553.1875 734.875 C 553.1875 724.25 553.4375 713.5 553.5625 702.875 L 552.6875 701.875 L 531.1875 705.625 L 530.4375 706.375 C 531.4375 715.875 531.8125 720.25 531.8125 738 C 531.8125 751.625 531.4375 759.25 531.0625 769.5 L 531.8125 770.375 C 540.8125 770 543.3125 769.875 553.4375 770 L 554.3125 769.125 M 552.3125 689.875 L 552.6875 672.875 L 551.9375 672.125 L 531.5625 674.625 L 530.8125 675.5 C 531.0625 680 531.1875 682.625 531.1875 685.625 C 531.1875 688 531.1875 690.5 531.0625 692.875 L 531.9375 693.625 C 540.4375 692.125 542.8125 691.875 551.6875 690.75 Z M 594.4375 726.875 C 590.1875 725.375 586.8125 724 586.8125 720.5 C 586.8125 719 587.8125 714.875 595.5625 714.875 C 603.1875 714.875 608.0625 718.125 611.1875 720.125 L 612.3125 719.75 L 613.5625 706.125 L 612.9375 705.375 C 607.0625 703.75 601.9375 702.25 593.8125 702.25 C 587.6875 702.25 575.4375 702.75 568.9375 712.125 C 567.3125 714.375 565.5625 718.125 565.5625 723.125 C 565.5625 736.5 575.9375 740.5 581.8125 742.75 L 586.5625 744.5 C 589.9375 745.625 595.4375 747.5 595.4375 752 C 595.4375 755.125 592.5625 758.5 585.5625 758.5 C 582.0625 758.5 576.9375 757.375 572.3125 755 C 570.1875 753.875 569.1875 753 567.3125 751.5 L 566.1875 752 C 565.9375 758.5 565.8125 759.875 565.3125 766.125 L 565.9375 767.25 C 572.0625 769.5 577.3125 771.5 586.4375 771.5 C 595.9375 771.5 614.6875 769.75 616.9375 751.875 C 617.0625 750.875 617.0625 750 617.0625 749.125 C 617.0625 735.375 607.4375 731.75 600.5625 729.125 Z M 663.0625 755.625 C 660.9375 756.25 659.4375 756.75 657.3125 756.75 C 650.9375 756.75 650.4375 752.75 650.1875 750.875 C 649.8125 747.625 649.8125 740.75 649.9375 735.75 L 650.1875 718.125 L 661.4375 718.625 L 662.1875 717.875 L 663.4375 704.5 L 662.6875 703.75 L 650.1875 703.75 L 650.5625 682.75 L 649.6875 682 C 641.1875 684.5 638.9375 685.125 630.0625 687.375 L 629.5625 688.25 L 629.6875 703.875 L 622.9375 703.625 L 622.1875 704.25 L 621.0625 717.625 L 621.8125 718.375 L 629.6875 718.125 L 629.3125 738 C 629.1875 741.125 629.0625 744.25 629.0625 747.5 C 629.0625 759 629.3125 771.375 648.8125 771.375 C 653.6875 771.375 657.5625 770.625 661.9375 769.875 L 662.8125 769 L 664.0625 756.125 Z M 735.9375 736.75 C 735.9375 731.875 735.9375 711.625 718.4375 704.75 C 712.9375 702.625 706.4375 702.375 703.1875 702.375 C 681.4375 702.375 669.1875 714 669.1875 737 C 669.1875 745 670.4375 753.125 675.0625 759.875 C 678.3125 764.75 684.4375 771.5 702.3125 771.5 C 728.8125 771.5 735.9375 755.5 735.9375 736.75 M 714.3125 736.625 C 714.3125 746.875 712.9375 758.25 702.5625 758.25 C 699.3125 758.25 697.0625 756.75 695.5625 755.375 C 693.4375 753.25 691.0625 749 691.0625 736.875 C 691.0625 733.25 691.0625 725.25 693.5625 720.875 C 695.4375 717.5 698.6875 715.25 702.6875 715.25 C 706.1875 715.25 709.0625 717.125 710.6875 719.125 C 713.6875 722.75 714.3125 729.875 714.3125 736.625 Z M 783.9375 723.625 L 787.4375 703.25 L 786.6875 702.375 C 785.8125 702.375 784.9375 702.25 784.0625 702.25 C 778.9375 702.25 773.1875 705.125 769.1875 714.375 L 769.5625 702.875 L 768.5625 701.875 C 759.3125 703.875 756.9375 704.25 747.8125 705.625 L 747.0625 706.375 C 747.8125 715.75 748.1875 721.375 748.1875 738.75 C 748.1875 749 748.0625 759.25 747.8125 769.625 L 748.5625 770.375 C 757.8125 770 759.8125 769.875 769.8125 770 L 770.4375 769.125 C 769.9375 759 769.1875 744.875 769.1875 736.25 C 769.1875 730.625 769.1875 722.375 777.6875 722.375 C 779.8125 722.375 781.0625 723.125 782.8125 724.125 Z M 817.3125 769.125 C 816.6875 759.5 816.1875 752.125 816.1875 734.875 C 816.1875 724.25 816.4375 713.5 816.5625 702.875 L 815.6875 701.875 L 794.1875 705.625 L 793.4375 706.375 C 794.4375 715.875 794.8125 720.25 794.8125 738 C 794.8125 751.625 794.4375 759.25 794.0625 769.5 L 794.8125 770.375 C 803.8125 770 806.3125 769.875 816.4375 770 L 817.3125 769.125 M 815.3125 689.875 L 815.6875 672.875 L 814.9375 672.125 L 794.5625 674.625 L 793.8125 675.5 C 794.0625 680 794.1875 682.625 794.1875 685.625 C 794.1875 688 794.1875 690.5 794.0625 692.875 L 794.9375 693.625 C 803.4375 692.125 805.8125 691.875 814.6875 690.75 Z M 880.0625 752 C 876.6875 754 873.4375 756 867.0625 756 C 852.9375 756 850.0625 744.25 850.0625 736.75 C 850.0625 727.625 854.0625 717.125 866.1875 717.125 C 871.6875 717.125 874.6875 719.125 878.4375 721.625 L 879.6875 721.25 C 880.1875 714.625 880.3125 712.875 881.3125 706.25 L 880.6875 705.5 C 875.1875 703.75 870.4375 702.25 863.1875 702.25 C 833.8125 702.25 828.0625 724.5 828.0625 737.25 C 828.0625 751.625 835.5625 771.125 863.6875 771.125 C 870.3125 771.125 874.5625 769.875 879.8125 768.375 L 880.5625 767.625 L 881.0625 752.625 Z M 883.5625 770 "/>
<path fill-rule="nonzero" fill="rgb(34.901961%, 14.901961%, 14.901961%)" fill-opacity="1" d="M 382.375 831.5 L 366.5 831.75 L 365.75 832.5 C 366.25 848.75 366.625 859.625 366.625 874 C 366.625 889.25 366.25 904.375 365.875 919.625 L 366.625 920.375 C 375.875 920 377.875 919.875 387.875 920 L 388.5 919.25 C 388 905.625 388 902.5 388 889.75 C 402 889.875 417 889.875 426 878.875 C 429.5 874.625 432.5 867.5 432.5 858.75 C 432.5 853.375 431.25 841.5 420.875 835.625 C 413.375 831.25 402.75 831.25 393.375 831.25 L 382.375 831.5 M 388 846.625 C 390.75 846.5 393.375 846.5 396.125 846.5 C 407.125 846.75 410.125 852.375 410.125 859.625 C 410.125 861.375 410.125 868.625 403.5 872.25 C 400.125 874.125 395.5 874.375 388 874.375 Z M 496.75 882.75 C 496.875 871.5 496.875 866.625 493.625 861.375 C 491.125 857.375 486.125 852.375 470.125 852.375 C 459.375 852.375 452.75 854.375 445.625 856.5 L 444.875 857.5 L 444.25 871.125 L 445.25 871.625 C 449.625 869.875 457.75 866.625 466.125 866.625 C 470.75 866.625 472.625 867.375 474.25 869 C 475.5 870.25 475.875 872.5 475.875 874.375 C 460.875 876.375 453.875 877.75 446.375 882.375 C 439.375 886.75 437 893.875 437 899.5 C 437 912.875 446.625 921.5 458.875 921.5 C 468.25 921.5 473.625 917 476.25 914.875 L 476.25 919.5 L 477 920.375 C 486 920 488.75 919.875 496.875 920 L 497.5 919.125 C 496.625 906.875 496.625 903.75 496.625 892 L 496.75 882.75 M 476.125 902.625 C 473.5 904.125 470.125 905.875 466 905.875 C 461.5 905.875 457.75 903.5 457.75 898.25 C 457.75 890 467.625 888.625 476.125 887.5 Z M 547.5 873.625 L 551 853.25 L 550.25 852.375 C 549.375 852.375 548.5 852.25 547.625 852.25 C 542.5 852.25 536.75 855.125 532.75 864.375 L 533.125 852.875 L 532.125 851.875 C 522.875 853.875 520.5 854.25 511.375 855.625 L 510.625 856.375 C 511.375 865.75 511.75 871.375 511.75 888.75 C 511.75 899 511.625 909.25 511.375 919.625 L 512.125 920.375 C 521.375 920 523.375 919.875 533.375 920 L 534 919.125 C 533.5 909 532.75 894.875 532.75 886.25 C 532.75 880.625 532.75 872.375 541.25 872.375 C 543.375 872.375 544.625 873.125 546.375 874.125 Z M 622.5 918.375 C 610.75 898.5 609.5 896.25 600 879.125 C 608.625 867.375 609.5 866.125 618.375 854.75 L 617.75 853.5 L 597.375 853.75 L 596.125 854.625 C 586.375 871.5 585.125 873.5 579.375 882.125 L 579.375 868.25 C 579.5 844.875 579.625 839.875 580.25 821 L 579.25 820.25 L 557.5 823.5 L 556.75 824.375 C 557.625 836.5 558 842.375 558.25 858.75 C 558.5 879 558.5 899.25 558.375 919.5 L 559.25 920.375 C 567.625 920 570 920 579.5 920 L 580.25 919.125 L 579.5 898 L 579.375 883.625 C 590.25 903.625 591.625 906.375 598 919.625 L 599.125 920.375 L 621.625 919.5 Z M 621 920 "/>
</svg>
