<?xml version="1.0" encoding="UTF-8"?>
<svg xmlns="http://www.w3.org/2000/svg" xmlns:xlink="http://www.w3.org/1999/xlink" width="975" height="1300" viewBox="0 0 975 1300">
<path fill-rule="nonzero" fill="rgb(34.901961%, 14.901961%, 14.901961%)" fill-opacity="1" d="M 186.0625 620 C 197.6875 620.25 212.0625 620.5 221.4375 614 C 229.6875 608.125 231.9375 599.875 231.9375 592.875 C 231.9375 584.875 228.5625 577.5 221.4375 574 C 219.0625 572.75 216.3125 572.25 213.6875 571.75 C 217.9375 570 222.9375 567.75 226.1875 561.125 C 227.5625 558.25 228.1875 555.25 228.1875 552.375 C 228.1875 548.375 227.1875 542.875 223.1875 538.375 C 217.9375 532.75 209.8125 531.25 197.5625 531.25 C 193.3125 531.25 185.6875 531.375 181.4375 531.5 L 163.9375 531.75 L 163.1875 532.5 C 163.6875 544.5 163.8125 549.125 163.8125 566.375 C 163.8125 584.125 163.6875 601.75 163.4375 619.5 L 164.3125 620 L 186.0625 620 M 185.1875 582 C 194.6875 581.75 200.1875 581.75 203.8125 583.875 C 207.4375 586.125 208.8125 590.125 208.8125 594.125 C 208.8125 599.75 205.6875 603.25 201.0625 604.875 C 197.3125 606.125 190.5625 606.125 185.1875 606 L 185.1875 582 M 185.1875 545.25 C 187.8125 545.25 191.3125 545.125 193.4375 545.125 C 200.1875 545.125 206.3125 547.5 206.3125 555.625 C 206.3125 562.25 201.4375 565 199.9375 565.75 C 196.8125 567.125 190.1875 567.125 185.1875 567.125 Z M 307.1875 586.75 C 307.1875 581.875 307.1875 561.625 289.6875 554.75 C 284.1875 552.625 277.6875 552.375 274.4375 552.375 C 252.6875 552.375 240.4375 564 240.4375 587 C 240.4375 595 241.6875 603.125 246.3125 609.875 C 249.5625 614.75 255.6875 621.5 273.5625 621.5 C 300.0625 621.5 307.1875 605.5 307.1875 586.75 M 285.5625 586.625 C 285.5625 596.875 284.1875 608.25 273.8125 608.25 C 270.5625 608.25 268.3125 606.75 266.8125 605.375 C 264.6875 603.25 262.3125 599 262.3125 586.875 C 262.3125 583.25 262.3125 575.25 264.8125 570.875 C 266.6875 567.5 269.9375 565.25 273.9375 565.25 C 277.4375 565.25 280.3125 567.125 281.9375 569.125 C 284.9375 572.75 285.5625 579.875 285.5625 586.625 Z M 380.3125 619.25 C 379.8125 608 379.4375 600.5 379.4375 584.125 C 379.4375 551.125 379.9375 537.5 380.4375 521 L 379.5625 520.25 L 358.9375 523.5 L 358.3125 524.25 C 359.0625 536 359.1875 539.125 359.0625 553.375 C 349.6875 553.125 337.9375 552.875 328.4375 560.375 C 319.6875 567.125 316.0625 577.5 316.0625 590.375 C 316.0625 600.125 318.6875 609.875 326.0625 616 C 331.5625 620.5 338.3125 621.5 342.4375 621.5 C 351.3125 621.5 355.9375 617.375 358.9375 614.75 L 358.6875 619.625 L 359.3125 620.375 C 367.9375 620 370.3125 620 379.6875 620 L 380.3125 619.25 M 359.0625 568.375 C 359.1875 585 359.0625 588.25 358.6875 603.375 C 356.1875 604.875 353.6875 606.375 350.1875 606.375 C 338.0625 606.375 338.0625 590.875 338.0625 588.375 C 338.0625 578.75 340.8125 568 354.8125 568 C 356.1875 568 357.3125 568.125 359.0625 568.375 Z M 417.1875 619.125 C 416.5625 609.5 416.0625 602.125 416.0625 584.875 C 416.0625 574.25 416.3125 563.5 416.4375 552.875 L 415.5625 551.875 L 394.0625 555.625 L 393.3125 556.375 C 394.3125 565.875 394.6875 570.25 394.6875 588 C 394.6875 601.625 394.3125 609.25 393.9375 619.5 L 394.6875 620.375 C 403.6875 620 406.1875 619.875 416.3125 620 L 417.1875 619.125 M 415.1875 539.875 L 415.5625 522.875 L 414.8125 522.125 L 394.4375 524.625 L 393.6875 525.5 C 393.9375 530 394.0625 532.625 394.0625 535.625 C 394.0625 538 394.0625 540.5 393.9375 542.875 L 394.8125 543.625 C 403.3125 542.125 405.6875 541.875 414.5625 540.75 Z M 486.5625 601.5 C 481.8125 604 476.1875 606.875 467.0625 606.875 C 459.5625 606.875 454.4375 604.5 451.4375 600 C 449.5625 597.375 449.1875 594.875 448.6875 592.375 L 489.0625 591.625 L 489.8125 590.75 C 489.6875 584.625 489.5625 578.375 487.8125 572.125 C 483.4375 557.375 473.8125 554.375 469.5625 553.375 C 466.4375 552.5 463.5625 552.25 460.6875 552.25 C 441.0625 552.25 428.0625 565.125 428.0625 586.75 C 428.0625 592.625 429.0625 598.75 431.0625 603.125 C 438.3125 620 455.3125 621.5 464.3125 621.5 C 474.6875 621.5 479.1875 619.625 485.8125 617 L 486.5625 616 L 487.4375 601.875 L 486.5625 601.5 M 448.6875 579.125 C 449.0625 575.25 449.9375 570 454.6875 567 C 456.1875 566 457.9375 565.625 459.6875 565.625 C 463.8125 565.625 466.3125 567.75 467.6875 570 C 469.4375 572.75 469.5625 575.75 469.5625 578.625 Z M 573.9375 566.25 C 563.4375 561.875 557.9375 559.625 557.9375 554 C 557.9375 550.125 561.5625 545.25 569.8125 545.25 C 579.3125 545.25 584.9375 549.125 589.5625 552.25 L 590.6875 551.75 L 591.6875 535.375 L 591.0625 534.5 C 585.6875 532.25 580.0625 529.875 567.9375 529.875 C 544.4375 529.875 536.3125 543.125 536.3125 556.5 C 536.3125 571.625 548.0625 577.125 555.0625 580.5 L 559.1875 582.375 C 567.8125 586 574.4375 589.125 574.4375 595.75 C 574.4375 600.5 570.3125 606.125 559.4375 606.125 C 548.0625 606.125 541.6875 601.125 538.0625 598.25 L 536.8125 598.625 L 535.9375 616.25 L 536.6875 617.25 C 538.0625 617.75 539.4375 618.375 540.8125 618.75 C 543.6875 619.75 551.0625 621.875 560.4375 621.875 C 564.1875 621.875 573.6875 621.5 581.1875 618 C 591.6875 612.875 596.1875 603.375 596.1875 592.75 C 596.1875 585.625 593.4375 578 586.8125 572.875 C 583.4375 570.375 580.1875 568.875 577.1875 567.5 Z M 643.0625 605.625 C 640.9375 606.25 639.4375 606.75 637.3125 606.75 C 630.9375 606.75 630.4375 602.75 630.1875 600.875 C 629.8125 597.625 629.8125 590.75 629.9375 585.75 L 630.1875 568.125 L 641.4375 568.625 L 642.1875 567.875 L 643.4375 554.5 L 642.6875 553.75 L 630.1875 553.75 L 630.5625 532.75 L 629.6875 532 C 621.1875 534.5 618.9375 535.125 610.0625 537.375 L 609.5625 538.25 L 609.6875 553.875 L 602.9375 553.625 L 602.1875 554.25 L 601.0625 567.625 L 601.8125 568.375 L 609.6875 568.125 L 609.3125 588 C 609.1875 591.125 609.0625 594.25 609.0625 597.5 C 609.0625 609 609.3125 621.375 628.8125 621.375 C 633.6875 621.375 637.5625 620.625 641.9375 619.875 L 642.8125 619 L 644.0625 606.125 Z M 707.9375 582.75 C 708.0625 571.5 708.0625 566.625 704.8125 561.375 C 702.3125 557.375 697.3125 552.375 681.3125 552.375 C 670.5625 552.375 663.9375 554.375 656.8125 556.5 L 656.0625 557.5 L 655.4375 571.125 L 656.4375 571.625 C 660.8125 569.875 668.9375 566.625 677.3125 566.625 C 681.9375 566.625 683.8125 567.375 685.4375 569 C 686.6875 570.25 687.0625 572.5 687.0625 574.375 C 672.0625 576.375 665.0625 577.75 657.5625 582.375 C 650.5625 586.75 648.1875 593.875 648.1875 599.5 C 648.1875 612.875 657.8125 621.5 670.0625 621.5 C 679.4375 621.5 684.8125 617 687.4375 614.875 L 687.4375 619.5 L 688.1875 620.375 C 697.1875 620 699.9375 619.875 708.0625 620 L 708.6875 619.125 C 707.8125 606.875 707.8125 603.75 707.8125 592 L 707.9375 582.75 M 687.3125 602.625 C 684.6875 604.125 681.3125 605.875 677.1875 605.875 C 672.6875 605.875 668.9375 603.5 668.9375 598.25 C 668.9375 590 678.8125 588.625 687.3125 587.5 Z M 757.5625 605.625 C 755.4375 606.25 753.9375 606.75 751.8125 606.75 C 745.4375 606.75 744.9375 602.75 744.6875 600.875 C 744.3125 597.625 744.3125 590.75 744.4375 585.75 L 744.6875 568.125 L 755.9375 568.625 L 756.6875 567.875 L 757.9375 554.5 L 757.1875 553.75 L 744.6875 553.75 L 745.0625 532.75 L 744.1875 532 C 735.6875 534.5 733.4375 535.125 724.5625 537.375 L 724.0625 538.25 L 724.1875 553.875 L 717.4375 553.625 L 716.6875 554.25 L 715.5625 567.625 L 716.3125 568.375 L 724.1875 568.125 L 723.8125 588 C 723.6875 591.125 723.5625 594.25 723.5625 597.5 C 723.5625 609 723.8125 621.375 743.3125 621.375 C 748.1875 621.375 752.0625 620.625 756.4375 619.875 L 757.3125 619 L 758.5625 606.125 Z M 822.3125 601.5 C 817.5625 604 811.9375 606.875 802.8125 606.875 C 795.3125 606.875 790.1875 604.5 787.1875 600 C 785.3125 597.375 784.9375 594.875 784.4375 592.375 L 824.8125 591.625 L 825.5625 590.75 C 825.4375 584.625 825.3125 578.375 823.5625 572.125 C 819.1875 557.375 809.5625 554.375 805.3125 553.375 C 802.1875 552.5 799.3125 552.25 796.4375 552.25 C 776.8125 552.25 763.8125 565.125 763.8125 586.75 C 763.8125 592.625 764.8125 598.75 766.8125 603.125 C 774.0625 620 791.0625 621.5 800.0625 621.5 C 810.4375 621.5 814.9375 619.625 821.5625 617 L 822.3125 616 L 823.1875 601.875 L 822.3125 601.5 M 784.4375 579.125 C 784.8125 575.25 785.6875 570 790.4375 567 C 791.9375 566 793.6875 565.625 795.4375 565.625 C 799.5625 565.625 802.0625 567.75 803.4375 570 C 805.1875 572.75 805.3125 575.75 805.3125 578.625 Z M 829.5625 620 "/>
<path fill-rule="nonzero" fill="rgb(34.901961%, 14.901961%, 14.901961%)" fill-opacity="1" d="M 196.8125 681.375 C 186.8125 681.75 185.1875 681.75 174.6875 681.75 L 174.0625 682.5 C 174.9375 696.625 174.9375 700.25 175.0625 715 C 169.5625 715.125 164.0625 715.25 158.4375 715.25 C 154.0625 715.25 149.5625 715.125 145.1875 715.125 L 145.4375 682.125 L 144.8125 681.375 C 135.1875 681.75 133.3125 681.75 122.4375 681.75 L 121.6875 682.5 C 122.3125 695.375 123.0625 710.75 123.0625 741.75 C 123.0625 753 122.8125 759.125 122.5625 769.625 L 123.1875 770.375 C 132.3125 770 134.5625 769.875 145.5625 770 L 146.1875 769.25 C 145.4375 753.75 145.3125 749.25 145.1875 731.125 C 150.6875 730.875 155.3125 730.75 160.1875 730.75 C 165.1875 730.75 170.1875 730.875 175.1875 731 C 175.4375 747.875 175.4375 752 174.8125 769.625 L 175.4375 770.375 C 184.8125 770 187.3125 769.875 197.9375 770 L 198.5625 769.25 C 197.5625 748.25 197.1875 727.375 197.1875 706.375 C 197.1875 697.625 197.3125 691.75 197.4375 682.125 Z M 235.6875 769.125 C 235.0625 759.5 234.5625 752.125 234.5625 734.875 C 234.5625 724.25 234.8125 713.5 234.9375 702.875 L 234.0625 701.875 L 212.5625 705.625 L 211.8125 706.375 C 212.8125 715.875 213.1875 720.25 213.1875 738 C 213.1875 751.625 212.8125 759.25 212.4375 769.5 L 213.1875 770.375 C 222.1875 770 224.6875 769.875 234.8125 770 L 235.6875 769.125 M 233.6875 689.875 L 234.0625 672.875 L 233.3125 672.125 L 212.9375 674.625 L 212.1875 675.5 C 212.4375 680 212.5625 682.625 212.5625 685.625 C 212.5625 688 212.5625 690.5 212.4375 692.875 L 213.3125 693.625 C 221.8125 692.125 224.1875 691.875 233.0625 690.75 Z M 275.8125 726.875 C 271.5625 725.375 268.1875 724 268.1875 720.5 C 268.1875 719 269.1875 714.875 276.9375 714.875 C 284.5625 714.875 289.4375 718.125 292.5625 720.125 L 293.6875 719.75 L 294.9375 706.125 L 294.3125 705.375 C 288.4375 703.75 283.3125 702.25 275.1875 702.25 C 269.0625 702.25 256.8125 702.75 250.3125 712.125 C 248.6875 714.375 246.9375 718.125 246.9375 723.125 C 246.9375 736.5 257.3125 740.5 263.1875 742.75 L 267.9375 744.5 C 271.3125 745.625 276.8125 747.5 276.8125 752 C 276.8125 755.125 273.9375 758.5 266.9375 758.5 C 263.4375 758.5 258.3125 757.375 253.6875 755 C 251.5625 753.875 250.5625 753 248.6875 751.5 L 247.5625 752 C 247.3125 758.5 247.1875 759.875 246.6875 766.125 L 247.3125 767.25 C 253.4375 769.5 258.6875 771.5 267.8125 771.5 C 277.3125 771.5 296.0625 769.75 298.3125 751.875 C 298.4375 750.875 298.4375 750 298.4375 749.125 C 298.4375 735.375 288.8125 731.75 281.9375 729.125 Z M 344.4375 755.625 C 342.3125 756.25 340.8125 756.75 338.6875 756.75 C 332.3125 756.75 331.8125 752.75 331.5625 750.875 C 331.1875 747.625 331.1875 740.75 331.3125 735.75 L 331.5625 718.125 L 342.8125 718.625 L 343.5625 717.875 L 344.8125 704.5 L 344.0625 703.75 L 331.5625 703.75 L 331.9375 682.75 L 331.0625 682 C 322.5625 684.5 320.3125 685.125 311.4375 687.375 L 310.9375 688.25 L 311.0625 703.875 L 304.3125 703.625 L 303.5625 704.25 L 302.4375 717.625 L 303.1875 718.375 L 311.0625 718.125 L 310.6875 738 C 310.5625 741.125 310.4375 744.25 310.4375 747.5 C 310.4375 759 310.6875 771.375 330.1875 771.375 C 335.0625 771.375 338.9375 770.625 343.3125 769.875 L 344.1875 769 L 345.4375 756.125 Z M 417.3125 736.75 C 417.3125 731.875 417.3125 711.625 399.8125 704.75 C 394.3125 702.625 387.8125 702.375 384.5625 702.375 C 362.8125 702.375 350.5625 714 350.5625 737 C 350.5625 745 351.8125 753.125 356.4375 759.875 C 359.6875 764.75 365.8125 771.5 383.6875 771.5 C 410.1875 771.5 417.3125 755.5 417.3125 736.75 M 395.6875 736.625 C 395.6875 746.875 394.3125 758.25 383.9375 758.25 C 380.6875 758.25 378.4375 756.75 376.9375 755.375 C 374.8125 753.25 372.4375 749 372.4375 736.875 C 372.4375 733.25 372.4375 725.25 374.9375 720.875 C 376.8125 717.5 380.0625 715.25 384.0625 715.25 C 387.5625 715.25 390.4375 717.125 392.0625 719.125 C 395.0625 722.75 395.6875 729.875 395.6875 736.625 Z M 465.3125 723.625 L 468.8125 703.25 L 468.0625 702.375 C 467.1875 702.375 466.3125 702.25 465.4375 702.25 C 460.3125 702.25 454.5625 705.125 450.5625 714.375 L 450.9375 702.875 L 449.9375 701.875 C 440.6875 703.875 438.3125 704.25 429.1875 705.625 L 428.4375 706.375 C 429.1875 715.75 429.5625 721.375 429.5625 738.75 C 429.5625 749 429.4375 759.25 429.1875 769.625 L 429.9375 770.375 C 439.1875 770 441.1875 769.875 451.1875 770 L 451.8125 769.125 C 451.3125 759 450.5625 744.875 450.5625 736.25 C 450.5625 730.625 450.5625 722.375 459.0625 722.375 C 461.1875 722.375 462.4375 723.125 464.1875 724.125 Z M 498.6875 769.125 C 498.0625 759.5 497.5625 752.125 497.5625 734.875 C 497.5625 724.25 497.8125 713.5 497.9375 702.875 L 497.0625 701.875 L 475.5625 705.625 L 474.8125 706.375 C 475.8125 715.875 476.1875 720.25 476.1875 738 C 476.1875 751.625 475.8125 759.25 475.4375 769.5 L 476.1875 770.375 C 485.1875 770 487.6875 769.875 497.8125 770 L 498.6875 769.125 M 496.6875 689.875 L 497.0625 672.875 L 496.3125 672.125 L 475.9375 674.625 L 475.1875 675.5 C 475.4375 680 475.5625 682.625 475.5625 685.625 C 475.5625 688 475.5625 690.5 475.4375 692.875 L 476.3125 693.625 C 484.8125 692.125 487.1875 691.875 496.0625 690.75 Z M 561.4375 752 C 558.0625 754 554.8125 756 548.4375 756 C 534.3125 756 531.4375 744.25 531.4375 736.75 C 531.4375 727.625 535.4375 717.125 547.5625 717.125 C 553.0625 717.125 556.0625 719.125 559.8125 721.625 L 561.0625 721.25 C 561.5625 714.625 561.6875 712.875 562.6875 706.25 L 562.0625 705.5 C 556.5625 703.75 551.8125 702.25 544.5625 702.25 C 515.1875 702.25 509.4375 724.5 509.4375 737.25 C 509.4375 751.625 516.9375 771.125 545.0625 771.125 C 551.6875 771.125 555.9375 769.875 561.1875 768.375 L 561.9375 767.625 L 562.4375 752.625 Z M 625.6875 681.5 L 609.8125 681.75 L 609.0625 682.5 C 609.5625 698.75 609.9375 709.625 609.9375 724 C 609.9375 739.25 609.5625 754.375 609.1875 769.625 L 609.9375 770.375 C 619.1875 770 621.1875 769.875 631.1875 770 L 631.8125 769.25 C 631.3125 755.625 631.3125 752.5 631.3125 739.75 C 645.3125 739.875 660.3125 739.875 669.3125 728.875 C 672.8125 724.625 675.8125 717.5 675.8125 708.75 C 675.8125 703.375 674.5625 691.5 664.1875 685.625 C 656.6875 681.25 646.0625 681.25 636.6875 681.25 L 625.6875 681.5 M 631.3125 696.625 C 634.0625 696.5 636.6875 696.5 639.4375 696.5 C 650.4375 696.75 653.4375 702.375 653.4375 709.625 C 653.4375 711.375 653.4375 718.625 646.8125 722.25 C 643.4375 724.125 638.8125 724.375 631.3125 724.375 Z M 740.0625 732.75 C 740.1875 721.5 740.1875 716.625 736.9375 711.375 C 734.4375 707.375 729.4375 702.375 713.4375 702.375 C 702.6875 702.375 696.0625 704.375 688.9375 706.5 L 688.1875 707.5 L 687.5625 721.125 L 688.5625 721.625 C 692.9375 719.875 701.0625 716.625 709.4375 716.625 C 714.0625 716.625 715.9375 717.375 717.5625 719 C 718.8125 720.25 719.1875 722.5 719.1875 724.375 C 704.1875 726.375 697.1875 727.75 689.6875 732.375 C 682.6875 736.75 680.3125 743.875 680.3125 749.5 C 680.3125 762.875 689.9375 771.5 702.1875 771.5 C 711.5625 771.5 716.9375 767 719.5625 764.875 L 719.5625 769.5 L 720.3125 770.375 C 729.3125 770 732.0625 769.875 740.1875 770 L 740.8125 769.125 C 739.9375 756.875 739.9375 753.75 739.9375 742 L 740.0625 732.75 M 719.4375 752.625 C 716.8125 754.125 713.4375 755.875 709.3125 755.875 C 704.8125 755.875 701.0625 753.5 701.0625 748.25 C 701.0625 740 710.9375 738.625 719.4375 737.5 Z M 790.8125 723.625 L 794.3125 703.25 L 793.5625 702.375 C 792.6875 702.375 791.8125 702.25 790.9375 702.25 C 785.8125 702.25 780.0625 705.125 776.0625 714.375 L 776.4375 702.875 L 775.4375 701.875 C 766.1875 703.875 763.8125 704.25 754.6875 705.625 L 753.9375 706.375 C 754.6875 715.75 755.0625 721.375 755.0625 738.75 C 755.0625 749 754.9375 759.25 754.6875 769.625 L 755.4375 770.375 C 764.6875 770 766.6875 769.875 776.6875 770 L 777.3125 769.125 C 776.8125 759 776.0625 744.875 776.0625 736.25 C 776.0625 730.625 776.0625 722.375 784.5625 722.375 C 786.6875 722.375 787.9375 723.125 789.6875 724.125 Z M 865.8125 768.375 C 854.0625 748.5 852.8125 746.25 843.3125 729.125 C 851.9375 717.375 852.8125 716.125 861.6875 704.75 L 861.0625 703.5 L 840.6875 703.75 L 839.4375 704.625 C 829.6875 721.5 828.4375 723.5 822.6875 732.125 L 822.6875 718.25 C 822.8125 694.875 822.9375 689.875 823.5625 671 L 822.5625 670.25 L 800.8125 673.5 L 800.0625 674.375 C 800.9375 686.5 801.3125 692.375 801.5625 708.75 C 801.8125 729 801.8125 749.25 801.6875 769.5 L 802.5625 770.375 C 810.9375 770 813.3125 770 822.8125 770 L 823.5625 769.125 L 822.8125 748 L 822.6875 733.625 C 833.5625 753.625 834.9375 756.375 841.3125 769.625 L 842.4375 770.375 L 864.9375 769.5 Z M 864.3125 770 "/>
</svg>
