<?xml version="1.0" encoding="UTF-8"?>
<svg xmlns="http://www.w3.org/2000/svg" xmlns:xlink="http://www.w3.org/1999/xlink" width="975" height="1300" viewBox="0 0 975 1300">
<path fill-rule="nonzero" fill="rgb(34.901961%, 14.901961%, 14.901961%)" fill-opacity="1" d="M 286 453.125 C 271.25 453.875 267.75 454 251.75 454 L 251.5 432.125 L 280.75 432.125 L 281.625 431.375 L 282.375 417.25 L 281.75 416.5 L 251.5 417 L 251.5 397.125 C 265.625 397.125 268.5 397.125 283.625 397.5 L 284.25 396.75 L 285.125 382.25 L 284.5 381.75 L 229.625 381.75 L 228.875 382.5 C 229.625 394.625 229.875 399.25 229.875 432.75 C 229.875 448.5 229.625 456.375 229.25 469.5 L 229.875 470 L 284.875 470 L 285.875 469.25 L 286.75 454 Z M 360.125 469.25 C 359.625 458 359.25 450.5 359.25 434.125 C 359.25 401.125 359.75 387.5 360.25 371 L 359.375 370.25 L 338.75 373.5 L 338.125 374.25 C 338.875 386 339 389.125 338.875 403.375 C 329.5 403.125 317.75 402.875 308.25 410.375 C 299.5 417.125 295.875 427.5 295.875 440.375 C 295.875 450.125 298.5 459.875 305.875 466 C 311.375 470.5 318.125 471.5 322.25 471.5 C 331.125 471.5 335.75 467.375 338.75 464.75 L 338.5 469.625 L 339.125 470.375 C 347.75 470 350.125 470 359.5 470 L 360.125 469.25 M 338.875 418.375 C 339 435 338.875 438.25 338.5 453.375 C 336 454.875 333.5 456.375 330 456.375 C 317.875 456.375 317.875 440.875 317.875 438.375 C 317.875 428.75 320.625 418 334.625 418 C 336 418 337.125 418.125 338.875 418.375 Z M 468.875 469.25 L 470 454 L 469.25 453.125 C 453.25 453.75 449.375 453.75 435.875 453.875 L 470.25 382.375 L 469.625 381.75 L 409.875 381.75 L 409.125 382.5 L 408 397.5 L 408.75 398.25 L 439.625 397.75 L 434.375 408.625 L 427.375 423.625 C 415.375 448.5 407.875 464.25 405.375 469.25 L 406.125 470 L 468 470 Z M 494.25 385 C 494.375 383.25 494.625 381.125 493.25 379.25 C 492.75 378.625 490.75 376.375 487.125 376.375 C 483.625 376.375 479 378.5 479 383.75 C 479 384.625 479 385.5 479.125 386.5 L 485 417.375 L 488.375 417.375 Z M 516.125 470.25 L 518.625 470.25 C 538.625 470.25 551.5 469.25 561 459.125 C 569.875 449.625 570.75 438.375 570.75 433.125 C 570.75 415.75 560.75 402.25 543.75 402.25 C 535.5 402.25 531.125 405 527.625 407.25 L 528.375 371 L 527.375 370.25 L 506.625 373.5 L 505.875 374.375 C 506.875 384.875 507.25 389.125 507.25 414.25 C 507.25 425 507.125 446.25 507 469.5 L 507.875 470.375 L 516.125 470.25 M 528.125 419.625 C 530.625 418.375 533 417.125 536.25 417.125 C 544.5 417.125 549.25 424.5 549.25 436 C 549.25 445 545.25 450.875 541.875 453.25 C 537.75 456.125 532.375 456.25 528.125 456.375 Z M 638.125 451.5 C 633.375 454 627.75 456.875 618.625 456.875 C 611.125 456.875 606 454.5 603 450 C 601.125 447.375 600.75 444.875 600.25 442.375 L 640.625 441.625 L 641.375 440.75 C 641.25 434.625 641.125 428.375 639.375 422.125 C 635 407.375 625.375 404.375 621.125 403.375 C 618 402.5 615.125 402.25 612.25 402.25 C 592.625 402.25 579.625 415.125 579.625 436.75 C 579.625 442.625 580.625 448.75 582.625 453.125 C 589.875 470 606.875 471.5 615.875 471.5 C 626.25 471.5 630.75 469.625 637.375 467 L 638.125 466 L 639 451.875 L 638.125 451.5 M 600.25 429.125 C 600.625 425.25 601.5 420 606.25 417 C 607.75 416 609.5 415.625 611.25 415.625 C 615.375 415.625 617.875 417.75 619.25 420 C 621 422.75 621.125 425.75 621.125 428.625 Z M 689 423.625 L 692.5 403.25 L 691.75 402.375 C 690.875 402.375 690 402.25 689.125 402.25 C 684 402.25 678.25 405.125 674.25 414.375 L 674.625 402.875 L 673.625 401.875 C 664.375 403.875 662 404.25 652.875 405.625 L 652.125 406.375 C 652.875 415.75 653.25 421.375 653.25 438.75 C 653.25 449 653.125 459.25 652.875 469.625 L 653.625 470.375 C 662.875 470 664.875 469.875 674.875 470 L 675.5 469.125 C 675 459 674.25 444.875 674.25 436.25 C 674.25 430.625 674.25 422.375 682.75 422.375 C 684.875 422.375 686.125 423.125 687.875 424.125 Z M 722.75 448.875 C 726.75 449 730.75 449.25 736.75 447.25 C 743.25 445 752.75 439.625 752.75 427.5 C 752.75 421.5 751 419 749.375 416.625 L 758 417.125 L 758.75 416.5 L 759.625 404 L 758.875 403.375 C 749.25 403.75 746.625 403.875 738.75 403.75 L 733 403.625 C 724.125 403.375 712.25 403.125 704.125 409.875 C 701.375 412 696.125 417.375 696.125 426.75 C 696.125 431.75 697.5 435.75 699.75 438.875 C 702.5 442.75 705 444.125 708.125 445.875 C 704.625 452.625 702.75 456 699.875 461.125 L 699.875 462.25 L 705.125 466 C 701.375 468.875 695.5 473.625 695.5 481.75 C 695.5 487.5 698.625 492.5 703.25 495.875 C 710.25 500.875 719.75 501.125 724.625 501.125 C 747.5 501.125 758 489.625 758 477.5 C 758 461.75 744.25 458.75 736.125 456.875 L 733.125 456.375 C 727 455.375 725.625 455 720.75 453.25 L 722.75 448.875 M 733 426.375 C 732.875 436.5 726.75 437.375 725 437.375 C 724 437.375 719.625 437.125 717.5 432.125 C 716.375 429.5 716.375 426.5 716.375 425.625 C 716.375 419.375 720.125 415.375 724.75 415.375 C 730.5 415.375 733.125 420.875 733 426.375 M 722.375 473 C 733.5 475.875 733.625 475.875 735.125 477.125 C 736.375 478 737.625 479.375 737.625 482 C 737.625 485.75 734.5 489.625 726.25 489.625 C 717 489.625 713.875 484.375 713.875 480 C 713.875 475.875 716 473.5 717.5 471.75 Z M 760 470 "/>
<path fill-rule="nonzero" fill="rgb(34.901961%, 14.901961%, 14.901961%)" fill-opacity="1" d="M 222.5 566.25 C 212 561.875 206.5 559.625 206.5 554 C 206.5 550.125 210.125 545.25 218.375 545.25 C 227.875 545.25 233.5 549.125 238.125 552.25 L 239.25 551.75 L 240.25 535.375 L 239.625 534.5 C 234.25 532.25 228.625 529.875 216.5 529.875 C 193 529.875 184.875 543.125 184.875 556.5 C 184.875 571.625 196.625 577.125 203.625 580.5 L 207.75 582.375 C 216.375 586 223 589.125 223 595.75 C 223 600.5 218.875 606.125 208 606.125 C 196.625 606.125 190.25 601.125 186.625 598.25 L 185.375 598.625 L 184.5 616.25 L 185.25 617.25 C 186.625 617.75 188 618.375 189.375 618.75 C 192.25 619.75 199.625 621.875 209 621.875 C 212.75 621.875 222.25 621.5 229.75 618 C 240.25 612.875 244.75 603.375 244.75 592.75 C 244.75 585.625 242 578 235.375 572.875 C 232 570.375 228.75 568.875 225.75 567.5 Z M 316.625 553.125 L 296.25 554.125 L 295.375 554.875 C 296.25 569 296.25 589 296.25 591 C 296.25 594.625 296.25 596.625 296.125 601.625 C 292.75 603.875 290.125 605.75 286.75 605.75 C 277.75 605.75 277.75 596.25 277.75 588.875 C 277.75 585.75 277.75 582.5 277.875 579.375 L 278.125 554.125 L 277.25 553.125 L 256.625 554.125 L 255.75 554.875 C 256.5 565.375 256.625 568.875 256.625 581.5 L 256.625 590.25 C 256.5 603.875 257.125 609.625 261.625 614.875 C 265.75 619.5 271.75 621.5 278 621.5 C 286.875 621.5 292 617.5 296.5 614 L 296.375 619.625 L 297.25 620.375 C 306.375 620 309.125 620 317.25 620 L 318 619.25 C 317.375 610.375 317.125 605.625 317.125 589.375 C 317.125 577.625 317.25 565.875 317.5 554.125 Z M 355.125 598.875 C 359.125 599 363.125 599.25 369.125 597.25 C 375.625 595 385.125 589.625 385.125 577.5 C 385.125 571.5 383.375 569 381.75 566.625 L 390.375 567.125 L 391.125 566.5 L 392 554 L 391.25 553.375 C 381.625 553.75 379 553.875 371.125 553.75 L 365.375 553.625 C 356.5 553.375 344.625 553.125 336.5 559.875 C 333.75 562 328.5 567.375 328.5 576.75 C 328.5 581.75 329.875 585.75 332.125 588.875 C 334.875 592.75 337.375 594.125 340.5 595.875 C 337 602.625 335.125 606 332.25 611.125 L 332.25 612.25 L 337.5 616 C 333.75 618.875 327.875 623.625 327.875 631.75 C 327.875 637.5 331 642.5 335.625 645.875 C 342.625 650.875 352.125 651.125 357 651.125 C 379.875 651.125 390.375 639.625 390.375 627.5 C 390.375 611.75 376.625 608.75 368.5 606.875 L 365.5 606.375 C 359.375 605.375 358 605 353.125 603.25 L 355.125 598.875 M 365.375 576.375 C 365.25 586.5 359.125 587.375 357.375 587.375 C 356.375 587.375 352 587.125 349.875 582.125 C 348.75 579.5 348.75 576.5 348.75 575.625 C 348.75 569.375 352.5 565.375 357.125 565.375 C 362.875 565.375 365.5 570.875 365.375 576.375 M 354.75 623 C 365.875 625.875 366 625.875 367.5 627.125 C 368.75 628 370 629.375 370 632 C 370 635.75 366.875 639.625 358.625 639.625 C 349.375 639.625 346.25 634.375 346.25 630 C 346.25 625.875 348.375 623.5 349.875 621.75 Z M 455.5 582.75 C 455.625 571.5 455.625 566.625 452.375 561.375 C 449.875 557.375 444.875 552.375 428.875 552.375 C 418.125 552.375 411.5 554.375 404.375 556.5 L 403.625 557.5 L 403 571.125 L 404 571.625 C 408.375 569.875 416.5 566.625 424.875 566.625 C 429.5 566.625 431.375 567.375 433 569 C 434.25 570.25 434.625 572.5 434.625 574.375 C 419.625 576.375 412.625 577.75 405.125 582.375 C 398.125 586.75 395.75 593.875 395.75 599.5 C 395.75 612.875 405.375 621.5 417.625 621.5 C 427 621.5 432.375 617 435 614.875 L 435 619.5 L 435.75 620.375 C 444.75 620 447.5 619.875 455.625 620 L 456.25 619.125 C 455.375 606.875 455.375 603.75 455.375 592 L 455.5 582.75 M 434.875 602.625 C 432.25 604.125 428.875 605.875 424.75 605.875 C 420.25 605.875 416.5 603.5 416.5 598.25 C 416.5 590 426.375 588.625 434.875 587.5 Z M 506.25 573.625 L 509.75 553.25 L 509 552.375 C 508.125 552.375 507.25 552.25 506.375 552.25 C 501.25 552.25 495.5 555.125 491.5 564.375 L 491.875 552.875 L 490.875 551.875 C 481.625 553.875 479.25 554.25 470.125 555.625 L 469.375 556.375 C 470.125 565.75 470.5 571.375 470.5 588.75 C 470.5 599 470.375 609.25 470.125 619.625 L 470.875 620.375 C 480.125 620 482.125 619.875 492.125 620 L 492.75 619.125 C 492.25 609 491.5 594.875 491.5 586.25 C 491.5 580.625 491.5 572.375 500 572.375 C 502.125 572.375 503.375 573.125 505.125 574.125 Z M 570.25 531.5 L 554.375 531.75 L 553.625 532.5 C 554.125 548.75 554.5 559.625 554.5 574 C 554.5 589.25 554.125 604.375 553.75 619.625 L 554.5 620.375 C 563.75 620 565.75 619.875 575.75 620 L 576.375 619.25 C 575.875 605.625 575.875 602.5 575.875 589.75 C 589.875 589.875 604.875 589.875 613.875 578.875 C 617.375 574.625 620.375 567.5 620.375 558.75 C 620.375 553.375 619.125 541.5 608.75 535.625 C 601.25 531.25 590.625 531.25 581.25 531.25 L 570.25 531.5 M 575.875 546.625 C 578.625 546.5 581.25 546.5 584 546.5 C 595 546.75 598 552.375 598 559.625 C 598 561.375 598 568.625 591.375 572.25 C 588 574.125 583.375 574.375 575.875 574.375 Z M 651.625 619.125 C 651 609.5 650.5 602.125 650.5 584.875 C 650.5 574.25 650.75 563.5 650.875 552.875 L 650 551.875 L 628.5 555.625 L 627.75 556.375 C 628.75 565.875 629.125 570.25 629.125 588 C 629.125 601.625 628.75 609.25 628.375 619.5 L 629.125 620.375 C 638.125 620 640.625 619.875 650.75 620 L 651.625 619.125 M 649.625 539.875 L 650 522.875 L 649.25 522.125 L 628.875 524.625 L 628.125 525.5 C 628.375 530 628.5 532.625 628.5 535.625 C 628.5 538 628.5 540.5 628.375 542.875 L 629.25 543.625 C 637.75 542.125 640.125 541.875 649 540.75 Z M 726.75 619.125 C 726.125 608.125 726.125 604.625 725.875 592.375 L 725.875 582.625 C 725.75 570.625 725.625 564.875 722.5 559.75 C 718.625 553.25 711.5 552.25 707 552.25 C 699.375 552.25 692.75 556.25 687 559.625 L 687.25 552.75 L 686 551.875 C 676.375 553.875 674.25 554.25 664.875 555.5 L 664.125 556.375 C 665.125 567.25 665.875 575.125 665.875 595.5 C 665.875 603.5 665.75 611.5 665.625 619.5 L 666.375 620.25 C 675.375 619.875 677.25 619.875 687.25 619.875 L 688 619.125 C 687.25 599.875 687.125 595 687 572.625 C 689.625 570.875 692.625 568.75 696.625 568.75 C 703.5 568.75 704.125 576.125 704.5 580.625 C 704.75 584.75 704.875 601.875 704.875 606.625 C 704.875 610.875 704.75 615.25 704.75 619.5 L 705.5 620.25 C 713.75 620 715.875 619.875 725.875 619.875 Z M 796.5 601.5 C 791.75 604 786.125 606.875 777 606.875 C 769.5 606.875 764.375 604.5 761.375 600 C 759.5 597.375 759.125 594.875 758.625 592.375 L 799 591.625 L 799.75 590.75 C 799.625 584.625 799.5 578.375 797.75 572.125 C 793.375 557.375 783.75 554.375 779.5 553.375 C 776.375 552.5 773.5 552.25 770.625 552.25 C 751 552.25 738 565.125 738 586.75 C 738 592.625 739 598.75 741 603.125 C 748.25 620 765.25 621.5 774.25 621.5 C 784.625 621.5 789.125 619.625 795.75 617 L 796.5 616 L 797.375 601.875 L 796.5 601.5 M 758.625 579.125 C 759 575.25 759.875 570 764.625 567 C 766.125 566 767.875 565.625 769.625 565.625 C 773.75 565.625 776.25 567.75 777.625 570 C 779.375 572.75 779.5 575.75 779.5 578.625 Z M 803.75 620 "/>
<path fill-rule="nonzero" fill="rgb(34.901961%, 14.901961%, 14.901961%)" fill-opacity="1" d="M 195.0625 681.5 L 179.1875 681.75 L 178.4375 682.5 C 178.9375 698.75 179.3125 709.625 179.3125 724 C 179.3125 739.25 178.9375 754.375 178.5625 769.625 L 179.3125 770.375 C 188.5625 770 190.5625 769.875 200.5625 770 L 201.1875 769.25 C 200.6875 755.625 200.6875 752.5 200.6875 739.75 C 214.6875 739.875 229.6875 739.875 238.6875 728.875 C 242.1875 724.625 245.1875 717.5 245.1875 708.75 C 245.1875 703.375 243.9375 691.5 233.5625 685.625 C 226.0625 681.25 215.4375 681.25 206.0625 681.25 L 195.0625 681.5 M 200.6875 696.625 C 203.4375 696.5 206.0625 696.5 208.8125 696.5 C 219.8125 696.75 222.8125 702.375 222.8125 709.625 C 222.8125 711.375 222.8125 718.625 216.1875 722.25 C 212.8125 724.125 208.1875 724.375 200.6875 724.375 Z M 317.4375 736.75 C 317.4375 731.875 317.4375 711.625 299.9375 704.75 C 294.4375 702.625 287.9375 702.375 284.6875 702.375 C 262.9375 702.375 250.6875 714 250.6875 737 C 250.6875 745 251.9375 753.125 256.5625 759.875 C 259.8125 764.75 265.9375 771.5 283.8125 771.5 C 310.3125 771.5 317.4375 755.5 317.4375 736.75 M 295.8125 736.625 C 295.8125 746.875 294.4375 758.25 284.0625 758.25 C 280.8125 758.25 278.5625 756.75 277.0625 755.375 C 274.9375 753.25 272.5625 749 272.5625 736.875 C 272.5625 733.25 272.5625 725.25 275.0625 720.875 C 276.9375 717.5 280.1875 715.25 284.1875 715.25 C 287.6875 715.25 290.5625 717.125 292.1875 719.125 C 295.1875 722.75 295.8125 729.875 295.8125 736.625 Z M 351.9375 769.125 C 351.3125 759.5 350.8125 752.125 350.8125 734.875 C 350.8125 724.25 351.0625 713.5 351.1875 702.875 L 350.3125 701.875 L 328.8125 705.625 L 328.0625 706.375 C 329.0625 715.875 329.4375 720.25 329.4375 738 C 329.4375 751.625 329.0625 759.25 328.6875 769.5 L 329.4375 770.375 C 338.4375 770 340.9375 769.875 351.0625 770 L 351.9375 769.125 M 349.9375 689.875 L 350.3125 672.875 L 349.5625 672.125 L 329.1875 674.625 L 328.4375 675.5 C 328.6875 680 328.8125 682.625 328.8125 685.625 C 328.8125 688 328.8125 690.5 328.6875 692.875 L 329.5625 693.625 C 338.0625 692.125 340.4375 691.875 349.3125 690.75 Z M 427.0625 769.125 C 426.4375 758.125 426.4375 754.625 426.1875 742.375 L 426.1875 732.625 C 426.0625 720.625 425.9375 714.875 422.8125 709.75 C 418.9375 703.25 411.8125 702.25 407.3125 702.25 C 399.6875 702.25 393.0625 706.25 387.3125 709.625 L 387.5625 702.75 L 386.3125 701.875 C 376.6875 703.875 374.5625 704.25 365.1875 705.5 L 364.4375 706.375 C 365.4375 717.25 366.1875 725.125 366.1875 745.5 C 366.1875 753.5 366.0625 761.5 365.9375 769.5 L 366.6875 770.25 C 375.6875 769.875 377.5625 769.875 387.5625 769.875 L 388.3125 769.125 C 387.5625 749.875 387.4375 745 387.3125 722.625 C 389.9375 720.875 392.9375 718.75 396.9375 718.75 C 403.8125 718.75 404.4375 726.125 404.8125 730.625 C 405.0625 734.75 405.1875 751.875 405.1875 756.625 C 405.1875 760.875 405.0625 765.25 405.0625 769.5 L 405.8125 770.25 C 414.0625 770 416.1875 769.875 426.1875 769.875 Z M 476.3125 755.625 C 474.1875 756.25 472.6875 756.75 470.5625 756.75 C 464.1875 756.75 463.6875 752.75 463.4375 750.875 C 463.0625 747.625 463.0625 740.75 463.1875 735.75 L 463.4375 718.125 L 474.6875 718.625 L 475.4375 717.875 L 476.6875 704.5 L 475.9375 703.75 L 463.4375 703.75 L 463.8125 682.75 L 462.9375 682 C 454.4375 684.5 452.1875 685.125 443.3125 687.375 L 442.8125 688.25 L 442.9375 703.875 L 436.1875 703.625 L 435.4375 704.25 L 434.3125 717.625 L 435.0625 718.375 L 442.9375 718.125 L 442.5625 738 C 442.4375 741.125 442.3125 744.25 442.3125 747.5 C 442.3125 759 442.5625 771.375 462.0625 771.375 C 466.9375 771.375 470.8125 770.625 475.1875 769.875 L 476.0625 769 L 477.3125 756.125 Z M 558.1875 716.25 C 547.6875 711.875 542.1875 709.625 542.1875 704 C 542.1875 700.125 545.8125 695.25 554.0625 695.25 C 563.5625 695.25 569.1875 699.125 573.8125 702.25 L 574.9375 701.75 L 575.9375 685.375 L 575.3125 684.5 C 569.9375 682.25 564.3125 679.875 552.1875 679.875 C 528.6875 679.875 520.5625 693.125 520.5625 706.5 C 520.5625 721.625 532.3125 727.125 539.3125 730.5 L 543.4375 732.375 C 552.0625 736 558.6875 739.125 558.6875 745.75 C 558.6875 750.5 554.5625 756.125 543.6875 756.125 C 532.3125 756.125 525.9375 751.125 522.3125 748.25 L 521.0625 748.625 L 520.1875 766.25 L 520.9375 767.25 C 522.3125 767.75 523.6875 768.375 525.0625 768.75 C 527.9375 769.75 535.3125 771.875 544.6875 771.875 C 548.4375 771.875 557.9375 771.5 565.4375 768 C 575.9375 762.875 580.4375 753.375 580.4375 742.75 C 580.4375 735.625 577.6875 728 571.0625 722.875 C 567.6875 720.375 564.4375 718.875 561.4375 717.5 Z M 627.3125 755.625 C 625.1875 756.25 623.6875 756.75 621.5625 756.75 C 615.1875 756.75 614.6875 752.75 614.4375 750.875 C 614.0625 747.625 614.0625 740.75 614.1875 735.75 L 614.4375 718.125 L 625.6875 718.625 L 626.4375 717.875 L 627.6875 704.5 L 626.9375 703.75 L 614.4375 703.75 L 614.8125 682.75 L 613.9375 682 C 605.4375 684.5 603.1875 685.125 594.3125 687.375 L 593.8125 688.25 L 593.9375 703.875 L 587.1875 703.625 L 586.4375 704.25 L 585.3125 717.625 L 586.0625 718.375 L 593.9375 718.125 L 593.5625 738 C 593.4375 741.125 593.3125 744.25 593.3125 747.5 C 593.3125 759 593.5625 771.375 613.0625 771.375 C 617.9375 771.375 621.8125 770.625 626.1875 769.875 L 627.0625 769 L 628.3125 756.125 Z M 692.1875 732.75 C 692.3125 721.5 692.3125 716.625 689.0625 711.375 C 686.5625 707.375 681.5625 702.375 665.5625 702.375 C 654.8125 702.375 648.1875 704.375 641.0625 706.5 L 640.3125 707.5 L 639.6875 721.125 L 640.6875 721.625 C 645.0625 719.875 653.1875 716.625 661.5625 716.625 C 666.1875 716.625 668.0625 717.375 669.6875 719 C 670.9375 720.25 671.3125 722.5 671.3125 724.375 C 656.3125 726.375 649.3125 727.75 641.8125 732.375 C 634.8125 736.75 632.4375 743.875 632.4375 749.5 C 632.4375 762.875 642.0625 771.5 654.3125 771.5 C 663.6875 771.5 669.0625 767 671.6875 764.875 L 671.6875 769.5 L 672.4375 770.375 C 681.4375 770 684.1875 769.875 692.3125 770 L 692.9375 769.125 C 692.0625 756.875 692.0625 753.75 692.0625 742 L 692.1875 732.75 M 671.5625 752.625 C 668.9375 754.125 665.5625 755.875 661.4375 755.875 C 656.9375 755.875 653.1875 753.5 653.1875 748.25 C 653.1875 740 663.0625 738.625 671.5625 737.5 Z M 741.8125 755.625 C 739.6875 756.25 738.1875 756.75 736.0625 756.75 C 729.6875 756.75 729.1875 752.75 728.9375 750.875 C 728.5625 747.625 728.5625 740.75 728.6875 735.75 L 728.9375 718.125 L 740.1875 718.625 L 740.9375 717.875 L 742.1875 704.5 L 741.4375 703.75 L 728.9375 703.75 L 729.3125 682.75 L 728.4375 682 C 719.9375 684.5 717.6875 685.125 708.8125 687.375 L 708.3125 688.25 L 708.4375 703.875 L 701.6875 703.625 L 700.9375 704.25 L 699.8125 717.625 L 700.5625 718.375 L 708.4375 718.125 L 708.0625 738 C 707.9375 741.125 707.8125 744.25 707.8125 747.5 C 707.8125 759 708.0625 771.375 727.5625 771.375 C 732.4375 771.375 736.3125 770.625 740.6875 769.875 L 741.5625 769 L 742.8125 756.125 Z M 806.5625 751.5 C 801.8125 754 796.1875 756.875 787.0625 756.875 C 779.5625 756.875 774.4375 754.5 771.4375 750 C 769.5625 747.375 769.1875 744.875 768.6875 742.375 L 809.0625 741.625 L 809.8125 740.75 C 809.6875 734.625 809.5625 728.375 807.8125 722.125 C 803.4375 707.375 793.8125 704.375 789.5625 703.375 C 786.4375 702.5 783.5625 702.25 780.6875 702.25 C 761.0625 702.25 748.0625 715.125 748.0625 736.75 C 748.0625 742.625 749.0625 748.75 751.0625 753.125 C 758.3125 770 775.3125 771.5 784.3125 771.5 C 794.6875 771.5 799.1875 769.625 805.8125 767 L 806.5625 766 L 807.4375 751.875 L 806.5625 751.5 M 768.6875 729.125 C 769.0625 725.25 769.9375 720 774.6875 717 C 776.1875 716 777.9375 715.625 779.6875 715.625 C 783.8125 715.625 786.3125 717.75 787.6875 720 C 789.4375 722.75 789.5625 725.75 789.5625 728.625 Z M 813.8125 770 "/>
<path fill-rule="nonzero" fill="rgb(34.901961%, 14.901961%, 14.901961%)" fill-opacity="1" d="M 382.375 831.5 L 366.5 831.75 L 365.75 832.5 C 366.25 848.75 366.625 859.625 366.625 874 C 366.625 889.25 366.25 904.375 365.875 919.625 L 366.625 920.375 C 375.875 920 377.875 919.875 387.875 920 L 388.5 919.25 C 388 905.625 388 902.5 388 889.75 C 402 889.875 417 889.875 426 878.875 C 429.5 874.625 432.5 867.5 432.5 858.75 C 432.5 853.375 431.25 841.5 420.875 835.625 C 413.375 831.25 402.75 831.25 393.375 831.25 L 382.375 831.5 M 388 846.625 C 390.75 846.5 393.375 846.5 396.125 846.5 C 407.125 846.75 410.125 852.375 410.125 859.625 C 410.125 861.375 410.125 868.625 403.5 872.25 C 400.125 874.125 395.5 874.375 388 874.375 Z M 496.75 882.75 C 496.875 871.5 496.875 866.625 493.625 861.375 C 491.125 857.375 486.125 852.375 470.125 852.375 C 459.375 852.375 452.75 854.375 445.625 856.5 L 444.875 857.5 L 444.25 871.125 L 445.25 871.625 C 449.625 869.875 457.75 866.625 466.125 866.625 C 470.75 866.625 472.625 867.375 474.25 869 C 475.5 870.25 475.875 872.5 475.875 874.375 C 460.875 876.375 453.875 877.75 446.375 882.375 C 439.375 886.75 437 893.875 437 899.5 C 437 912.875 446.625 921.5 458.875 921.5 C 468.25 921.5 473.625 917 476.25 914.875 L 476.25 919.5 L 477 920.375 C 486 920 488.75 919.875 496.875 920 L 497.5 919.125 C 496.625 906.875 496.625 903.75 496.625 892 L 496.75 882.75 M 476.125 902.625 C 473.5 904.125 470.125 905.875 466 905.875 C 461.5 905.875 457.75 903.5 457.75 898.25 C 457.75 890 467.625 888.625 476.125 887.5 Z M 547.5 873.625 L 551 853.25 L 550.25 852.375 C 549.375 852.375 548.5 852.25 547.625 852.25 C 542.5 852.25 536.75 855.125 532.75 864.375 L 533.125 852.875 L 532.125 851.875 C 522.875 853.875 520.5 854.25 511.375 855.625 L 510.625 856.375 C 511.375 865.75 511.75 871.375 511.75 888.75 C 511.75 899 511.625 909.25 511.375 919.625 L 512.125 920.375 C 521.375 920 523.375 919.875 533.375 920 L 534 919.125 C 533.5 909 532.75 894.875 532.75 886.25 C 532.75 880.625 532.75 872.375 541.25 872.375 C 543.375 872.375 544.625 873.125 546.375 874.125 Z M 622.5 918.375 C 610.75 898.5 609.5 896.25 600 879.125 C 608.625 867.375 609.5 866.125 618.375 854.75 L 617.75 853.5 L 597.375 853.75 L 596.125 854.625 C 586.375 871.5 585.125 873.5 579.375 882.125 L 579.375 868.25 C 579.5 844.875 579.625 839.875 580.25 821 L 579.25 820.25 L 557.5 823.5 L 556.75 824.375 C 557.625 836.5 558 842.375 558.25 858.75 C 558.5 879 558.5 899.25 558.375 919.5 L 559.25 920.375 C 567.625 920 570 920 579.5 920 L 580.25 919.125 L 579.5 898 L 579.375 883.625 C 590.25 903.625 591.625 906.375 598 919.625 L 599.125 920.375 L 621.625 919.5 Z M 621 920 "/>
</svg>
