<?xml version="1.0" encoding="UTF-8"?>
<svg xmlns="http://www.w3.org/2000/svg" xmlns:xlink="http://www.w3.org/1999/xlink" width="975" height="1300" viewBox="0 0 975 1300">
<path fill-rule="nonzero" fill="rgb(34.901961%, 14.901961%, 14.901961%)" fill-opacity="1" d="M 192.875 531.375 C 179.875 531.75 177.75 531.75 163.875 531.75 L 163.125 532.5 L 157.375 552.75 L 152.375 570.875 L 146.5 592.625 L 141 570.25 L 137.5 556.125 L 131.25 532.125 L 130.625 531.375 C 117.25 531.75 115 531.75 101 531.75 L 100.25 532.5 C 99 569.875 98.5 579.5 95.75 619.625 L 96.375 620.375 C 104.375 620 106.75 619.875 114 620 L 114.75 619.25 L 115.125 595.375 L 115.875 571.125 L 116.375 547.5 L 121.875 569.625 L 126.625 587.375 L 135 619.625 L 135.75 620.375 C 143.5 620 145.625 619.875 154.375 620 L 155.125 619.25 L 162.375 592.625 L 167.375 574.375 L 174.375 548.125 L 174.375 570.5 L 174.625 589.625 L 174.625 619.625 L 175.25 620.375 C 183.875 620 187.25 619.875 196.875 620 L 197.5 619.25 C 196.75 605 195.875 590.625 195.375 576.25 C 195 568.375 194.75 560.5 194.375 552.625 C 193.75 541 193.625 539.5 193.625 532.125 Z M 275.25 586.75 C 275.25 581.875 275.25 561.625 257.75 554.75 C 252.25 552.625 245.75 552.375 242.5 552.375 C 220.75 552.375 208.5 564 208.5 587 C 208.5 595 209.75 603.125 214.375 609.875 C 217.625 614.75 223.75 621.5 241.625 621.5 C 268.125 621.5 275.25 605.5 275.25 586.75 M 253.625 586.625 C 253.625 596.875 252.25 608.25 241.875 608.25 C 238.625 608.25 236.375 606.75 234.875 605.375 C 232.75 603.25 230.375 599 230.375 586.875 C 230.375 583.25 230.375 575.25 232.875 570.875 C 234.75 567.5 238 565.25 242 565.25 C 245.5 565.25 248.375 567.125 250 569.125 C 253 572.75 253.625 579.875 253.625 586.625 Z M 347.125 553.125 L 326.75 554.125 L 325.875 554.875 C 326.75 569 326.75 589 326.75 591 C 326.75 594.625 326.75 596.625 326.625 601.625 C 323.25 603.875 320.625 605.75 317.25 605.75 C 308.25 605.75 308.25 596.25 308.25 588.875 C 308.25 585.75 308.25 582.5 308.375 579.375 L 308.625 554.125 L 307.75 553.125 L 287.125 554.125 L 286.25 554.875 C 287 565.375 287.125 568.875 287.125 581.5 L 287.125 590.25 C 287 603.875 287.625 609.625 292.125 614.875 C 296.25 619.5 302.25 621.5 308.5 621.5 C 317.375 621.5 322.5 617.5 327 614 L 326.875 619.625 L 327.75 620.375 C 336.875 620 339.625 620 347.75 620 L 348.5 619.25 C 347.875 610.375 347.625 605.625 347.625 589.375 C 347.625 577.625 347.75 565.875 348 554.125 Z M 423.875 619.125 C 423.25 608.125 423.25 604.625 423 592.375 L 423 582.625 C 422.875 570.625 422.75 564.875 419.625 559.75 C 415.75 553.25 408.625 552.25 404.125 552.25 C 396.5 552.25 389.875 556.25 384.125 559.625 L 384.375 552.75 L 383.125 551.875 C 373.5 553.875 371.375 554.25 362 555.5 L 361.25 556.375 C 362.25 567.25 363 575.125 363 595.5 C 363 603.5 362.875 611.5 362.75 619.5 L 363.5 620.25 C 372.5 619.875 374.375 619.875 384.375 619.875 L 385.125 619.125 C 384.375 599.875 384.25 595 384.125 572.625 C 386.75 570.875 389.75 568.75 393.75 568.75 C 400.625 568.75 401.25 576.125 401.625 580.625 C 401.875 584.75 402 601.875 402 606.625 C 402 610.875 401.875 615.25 401.875 619.5 L 402.625 620.25 C 410.875 620 413 619.875 423 619.875 Z M 473.125 605.625 C 471 606.25 469.5 606.75 467.375 606.75 C 461 606.75 460.5 602.75 460.25 600.875 C 459.875 597.625 459.875 590.75 460 585.75 L 460.25 568.125 L 471.5 568.625 L 472.25 567.875 L 473.5 554.5 L 472.75 553.75 L 460.25 553.75 L 460.625 532.75 L 459.75 532 C 451.25 534.5 449 535.125 440.125 537.375 L 439.625 538.25 L 439.75 553.875 L 433 553.625 L 432.25 554.25 L 431.125 567.625 L 431.875 568.375 L 439.75 568.125 L 439.375 588 C 439.25 591.125 439.125 594.25 439.125 597.5 C 439.125 609 439.375 621.375 458.875 621.375 C 463.75 621.375 467.625 620.625 472 619.875 L 472.875 619 L 474.125 606.125 Z M 534.875 620 C 538.125 620.125 541.5 620.125 544.75 620.125 C 558.75 620.125 581.375 619.625 590.5 597.375 C 593.875 589.125 594.625 579.125 594.625 573.5 C 594.625 561.75 592 552.75 588.875 547.125 C 580.375 531.625 564.25 531.125 550 531.125 C 544.25 531.125 538.5 531.375 532.75 531.625 L 519.5 531.75 L 518.75 532.5 C 519.25 544.5 519.75 555 519.75 589.625 C 519.75 601.875 519.625 609.25 519.375 619.5 L 520.125 620 L 534.875 620 M 541.75 603.875 C 541.5 591.625 541.375 580 541.375 568 C 541.375 561.25 541.375 554.5 541.5 547.75 C 544 547.625 546.625 547.5 549.125 547.5 C 556.75 547.5 571.625 547.5 571.625 574.125 C 571.625 589.75 565.75 596.75 562.75 599.25 C 557.125 603.875 548.5 603.875 541.75 603.875 Z M 630 619.125 C 629.375 609.5 628.875 602.125 628.875 584.875 C 628.875 574.25 629.125 563.5 629.25 552.875 L 628.375 551.875 L 606.875 555.625 L 606.125 556.375 C 607.125 565.875 607.5 570.25 607.5 588 C 607.5 601.625 607.125 609.25 606.75 619.5 L 607.5 620.375 C 616.5 620 619 619.875 629.125 620 L 630 619.125 M 628 539.875 L 628.375 522.875 L 627.625 522.125 L 607.25 524.625 L 606.5 525.5 C 606.75 530 606.875 532.625 606.875 535.625 C 606.875 538 606.875 540.5 606.75 542.875 L 607.625 543.625 C 616.125 542.125 618.5 541.875 627.375 540.75 Z M 699.5 582.75 C 699.625 571.5 699.625 566.625 696.375 561.375 C 693.875 557.375 688.875 552.375 672.875 552.375 C 662.125 552.375 655.5 554.375 648.375 556.5 L 647.625 557.5 L 647 571.125 L 648 571.625 C 652.375 569.875 660.5 566.625 668.875 566.625 C 673.5 566.625 675.375 567.375 677 569 C 678.25 570.25 678.625 572.5 678.625 574.375 C 663.625 576.375 656.625 577.75 649.125 582.375 C 642.125 586.75 639.75 593.875 639.75 599.5 C 639.75 612.875 649.375 621.5 661.625 621.5 C 671 621.5 676.375 617 679 614.875 L 679 619.5 L 679.75 620.375 C 688.75 620 691.5 619.875 699.625 620 L 700.25 619.125 C 699.375 606.875 699.375 603.75 699.375 592 L 699.5 582.75 M 678.875 602.625 C 676.25 604.125 672.875 605.875 668.75 605.875 C 664.25 605.875 660.5 603.5 660.5 598.25 C 660.5 590 670.375 588.625 678.875 587.5 Z M 723.125 620.25 L 725.625 620.25 C 745.625 620.25 758.5 619.25 768 609.125 C 776.875 599.625 777.75 588.375 777.75 583.125 C 777.75 565.75 767.75 552.25 750.75 552.25 C 742.5 552.25 738.125 555 734.625 557.25 L 735.375 521 L 734.375 520.25 L 713.625 523.5 L 712.875 524.375 C 713.875 534.875 714.25 539.125 714.25 564.25 C 714.25 575 714.125 596.25 714 619.5 L 714.875 620.375 L 723.125 620.25 M 735.125 569.625 C 737.625 568.375 740 567.125 743.25 567.125 C 751.5 567.125 756.25 574.5 756.25 586 C 756.25 595 752.25 600.875 748.875 603.25 C 744.75 606.125 739.375 606.25 735.125 606.375 Z M 811.625 619.125 C 811 604.75 810.375 591.625 810.375 552.125 C 810.375 540.25 810.5 534.625 811 521.125 L 810.125 520.25 L 788.75 523.625 L 788.25 524.375 C 789.5 539.625 789.625 543.75 789.875 564 C 790 571.375 790 578.75 790 586.125 C 790 599.625 789.75 607.125 789.25 619.5 L 790 620.375 C 798.375 620 801.75 619.875 810.875 620 Z M 889.75 586.75 C 889.75 581.875 889.75 561.625 872.25 554.75 C 866.75 552.625 860.25 552.375 857 552.375 C 835.25 552.375 823 564 823 587 C 823 595 824.25 603.125 828.875 609.875 C 832.125 614.75 838.25 621.5 856.125 621.5 C 882.625 621.5 889.75 605.5 889.75 586.75 M 868.125 586.625 C 868.125 596.875 866.75 608.25 856.375 608.25 C 853.125 608.25 850.875 606.75 849.375 605.375 C 847.25 603.25 844.875 599 844.875 586.875 C 844.875 583.25 844.875 575.25 847.375 570.875 C 849.25 567.5 852.5 565.25 856.5 565.25 C 860 565.25 862.875 567.125 864.5 569.125 C 867.5 572.75 868.125 579.875 868.125 586.625 Z M 894.125 620 "/>
<path fill-rule="nonzero" fill="rgb(34.901961%, 14.901961%, 14.901961%)" fill-opacity="1" d="M 232.875 716.25 C 222.375 711.875 216.875 709.625 216.875 704 C 216.875 700.125 220.5 695.25 228.75 695.25 C 238.25 695.25 243.875 699.125 248.5 702.25 L 249.625 701.75 L 250.625 685.375 L 250 684.5 C 244.625 682.25 239 679.875 226.875 679.875 C 203.375 679.875 195.25 693.125 195.25 706.5 C 195.25 721.625 207 727.125 214 730.5 L 218.125 732.375 C 226.75 736 233.375 739.125 233.375 745.75 C 233.375 750.5 229.25 756.125 218.375 756.125 C 207 756.125 200.625 751.125 197 748.25 L 195.75 748.625 L 194.875 766.25 L 195.625 767.25 C 197 767.75 198.375 768.375 199.75 768.75 C 202.625 769.75 210 771.875 219.375 771.875 C 223.125 771.875 232.625 771.5 240.125 768 C 250.625 762.875 255.125 753.375 255.125 742.75 C 255.125 735.625 252.375 728 245.75 722.875 C 242.375 720.375 239.125 718.875 236.125 717.5 Z M 302 755.625 C 299.875 756.25 298.375 756.75 296.25 756.75 C 289.875 756.75 289.375 752.75 289.125 750.875 C 288.75 747.625 288.75 740.75 288.875 735.75 L 289.125 718.125 L 300.375 718.625 L 301.125 717.875 L 302.375 704.5 L 301.625 703.75 L 289.125 703.75 L 289.5 682.75 L 288.625 682 C 280.125 684.5 277.875 685.125 269 687.375 L 268.5 688.25 L 268.625 703.875 L 261.875 703.625 L 261.125 704.25 L 260 717.625 L 260.75 718.375 L 268.625 718.125 L 268.25 738 C 268.125 741.125 268 744.25 268 747.5 C 268 759 268.25 771.375 287.75 771.375 C 292.625 771.375 296.5 770.625 300.875 769.875 L 301.75 769 L 303 756.125 Z M 366.875 732.75 C 367 721.5 367 716.625 363.75 711.375 C 361.25 707.375 356.25 702.375 340.25 702.375 C 329.5 702.375 322.875 704.375 315.75 706.5 L 315 707.5 L 314.375 721.125 L 315.375 721.625 C 319.75 719.875 327.875 716.625 336.25 716.625 C 340.875 716.625 342.75 717.375 344.375 719 C 345.625 720.25 346 722.5 346 724.375 C 331 726.375 324 727.75 316.5 732.375 C 309.5 736.75 307.125 743.875 307.125 749.5 C 307.125 762.875 316.75 771.5 329 771.5 C 338.375 771.5 343.75 767 346.375 764.875 L 346.375 769.5 L 347.125 770.375 C 356.125 770 358.875 769.875 367 770 L 367.625 769.125 C 366.75 756.875 366.75 753.75 366.75 742 L 366.875 732.75 M 346.25 752.625 C 343.625 754.125 340.25 755.875 336.125 755.875 C 331.625 755.875 327.875 753.5 327.875 748.25 C 327.875 740 337.75 738.625 346.25 737.5 Z M 416.5 755.625 C 414.375 756.25 412.875 756.75 410.75 756.75 C 404.375 756.75 403.875 752.75 403.625 750.875 C 403.25 747.625 403.25 740.75 403.375 735.75 L 403.625 718.125 L 414.875 718.625 L 415.625 717.875 L 416.875 704.5 L 416.125 703.75 L 403.625 703.75 L 404 682.75 L 403.125 682 C 394.625 684.5 392.375 685.125 383.5 687.375 L 383 688.25 L 383.125 703.875 L 376.375 703.625 L 375.625 704.25 L 374.5 717.625 L 375.25 718.375 L 383.125 718.125 L 382.75 738 C 382.625 741.125 382.5 744.25 382.5 747.5 C 382.5 759 382.75 771.375 402.25 771.375 C 407.125 771.375 411 770.625 415.375 769.875 L 416.25 769 L 417.5 756.125 Z M 481.25 751.5 C 476.5 754 470.875 756.875 461.75 756.875 C 454.25 756.875 449.125 754.5 446.125 750 C 444.25 747.375 443.875 744.875 443.375 742.375 L 483.75 741.625 L 484.5 740.75 C 484.375 734.625 484.25 728.375 482.5 722.125 C 478.125 707.375 468.5 704.375 464.25 703.375 C 461.125 702.5 458.25 702.25 455.375 702.25 C 435.75 702.25 422.75 715.125 422.75 736.75 C 422.75 742.625 423.75 748.75 425.75 753.125 C 433 770 450 771.5 459 771.5 C 469.375 771.5 473.875 769.625 480.5 767 L 481.25 766 L 482.125 751.875 L 481.25 751.5 M 443.375 729.125 C 443.75 725.25 444.625 720 449.375 717 C 450.875 716 452.625 715.625 454.375 715.625 C 458.5 715.625 461 717.75 462.375 720 C 464.125 722.75 464.25 725.75 464.25 728.625 Z M 549.25 681.5 L 533.375 681.75 L 532.625 682.5 C 533.125 698.75 533.5 709.625 533.5 724 C 533.5 739.25 533.125 754.375 532.75 769.625 L 533.5 770.375 C 542.75 770 544.75 769.875 554.75 770 L 555.375 769.25 C 554.875 755.625 554.875 752.5 554.875 739.75 C 568.875 739.875 583.875 739.875 592.875 728.875 C 596.375 724.625 599.375 717.5 599.375 708.75 C 599.375 703.375 598.125 691.5 587.75 685.625 C 580.25 681.25 569.625 681.25 560.25 681.25 L 549.25 681.5 M 554.875 696.625 C 557.625 696.5 560.25 696.5 563 696.5 C 574 696.75 577 702.375 577 709.625 C 577 711.375 577 718.625 570.375 722.25 C 567 724.125 562.375 724.375 554.875 724.375 Z M 663.625 732.75 C 663.75 721.5 663.75 716.625 660.5 711.375 C 658 707.375 653 702.375 637 702.375 C 626.25 702.375 619.625 704.375 612.5 706.5 L 611.75 707.5 L 611.125 721.125 L 612.125 721.625 C 616.5 719.875 624.625 716.625 633 716.625 C 637.625 716.625 639.5 717.375 641.125 719 C 642.375 720.25 642.75 722.5 642.75 724.375 C 627.75 726.375 620.75 727.75 613.25 732.375 C 606.25 736.75 603.875 743.875 603.875 749.5 C 603.875 762.875 613.5 771.5 625.75 771.5 C 635.125 771.5 640.5 767 643.125 764.875 L 643.125 769.5 L 643.875 770.375 C 652.875 770 655.625 769.875 663.75 770 L 664.375 769.125 C 663.5 756.875 663.5 753.75 663.5 742 L 663.625 732.75 M 643 752.625 C 640.375 754.125 637 755.875 632.875 755.875 C 628.375 755.875 624.625 753.5 624.625 748.25 C 624.625 740 634.5 738.625 643 737.5 Z M 714.375 723.625 L 717.875 703.25 L 717.125 702.375 C 716.25 702.375 715.375 702.25 714.5 702.25 C 709.375 702.25 703.625 705.125 699.625 714.375 L 700 702.875 L 699 701.875 C 689.75 703.875 687.375 704.25 678.25 705.625 L 677.5 706.375 C 678.25 715.75 678.625 721.375 678.625 738.75 C 678.625 749 678.5 759.25 678.25 769.625 L 679 770.375 C 688.25 770 690.25 769.875 700.25 770 L 700.875 769.125 C 700.375 759 699.625 744.875 699.625 736.25 C 699.625 730.625 699.625 722.375 708.125 722.375 C 710.25 722.375 711.5 723.125 713.25 724.125 Z M 789.375 768.375 C 777.625 748.5 776.375 746.25 766.875 729.125 C 775.5 717.375 776.375 716.125 785.25 704.75 L 784.625 703.5 L 764.25 703.75 L 763 704.625 C 753.25 721.5 752 723.5 746.25 732.125 L 746.25 718.25 C 746.375 694.875 746.5 689.875 747.125 671 L 746.125 670.25 L 724.375 673.5 L 723.625 674.375 C 724.5 686.5 724.875 692.375 725.125 708.75 C 725.375 729 725.375 749.25 725.25 769.5 L 726.125 770.375 C 734.5 770 736.875 770 746.375 770 L 747.125 769.125 L 746.375 748 L 746.25 733.625 C 757.125 753.625 758.5 756.375 764.875 769.625 L 766 770.375 L 788.5 769.5 Z M 787.875 770 "/>
</svg>
