<?xml version="1.0" encoding="UTF-8"?>
<svg xmlns="http://www.w3.org/2000/svg" xmlns:xlink="http://www.w3.org/1999/xlink" width="975" height="1300" viewBox="0 0 975 1300">
<path fill-rule="nonzero" fill="rgb(34.901961%, 14.901961%, 14.901961%)" fill-opacity="1" d="M 231.8125 491.25 C 221.3125 486.875 215.8125 484.625 215.8125 479 C 215.8125 475.125 219.4375 470.25 227.6875 470.25 C 237.1875 470.25 242.8125 474.125 247.4375 477.25 L 248.5625 476.75 L 249.5625 460.375 L 248.9375 459.5 C 243.5625 457.25 237.9375 454.875 225.8125 454.875 C 202.3125 454.875 194.1875 468.125 194.1875 481.5 C 194.1875 496.625 205.9375 502.125 212.9375 505.5 L 217.0625 507.375 C 225.6875 511 232.3125 514.125 232.3125 520.75 C 232.3125 525.5 228.1875 531.125 217.3125 531.125 C 205.9375 531.125 199.5625 526.125 195.9375 523.25 L 194.6875 523.625 L 193.8125 541.25 L 194.5625 542.25 C 195.9375 542.75 197.3125 543.375 198.6875 543.75 C 201.5625 544.75 208.9375 546.875 218.3125 546.875 C 222.0625 546.875 231.5625 546.5 239.0625 543 C 249.5625 537.875 254.0625 528.375 254.0625 517.75 C 254.0625 510.625 251.3125 503 244.6875 497.875 C 241.3125 495.375 238.0625 493.875 235.0625 492.5 Z M 321.5625 507.75 C 321.6875 496.5 321.6875 491.625 318.4375 486.375 C 315.9375 482.375 310.9375 477.375 294.9375 477.375 C 284.1875 477.375 277.5625 479.375 270.4375 481.5 L 269.6875 482.5 L 269.0625 496.125 L 270.0625 496.625 C 274.4375 494.875 282.5625 491.625 290.9375 491.625 C 295.5625 491.625 297.4375 492.375 299.0625 494 C 300.3125 495.25 300.6875 497.5 300.6875 499.375 C 285.6875 501.375 278.6875 502.75 271.1875 507.375 C 264.1875 511.75 261.8125 518.875 261.8125 524.5 C 261.8125 537.875 271.4375 546.5 283.6875 546.5 C 293.0625 546.5 298.4375 542 301.0625 539.875 L 301.0625 544.5 L 301.8125 545.375 C 310.8125 545 313.5625 544.875 321.6875 545 L 322.3125 544.125 C 321.4375 531.875 321.4375 528.75 321.4375 517 L 321.5625 507.75 M 300.9375 527.625 C 298.3125 529.125 294.9375 530.875 290.8125 530.875 C 286.3125 530.875 282.5625 528.5 282.5625 523.25 C 282.5625 515 292.4375 513.625 300.9375 512.5 Z M 397.4375 544.125 C 396.8125 533.125 396.8125 529.625 396.5625 517.375 L 396.5625 507.625 C 396.4375 495.625 396.3125 489.875 393.1875 484.75 C 389.3125 478.25 382.1875 477.25 377.6875 477.25 C 370.0625 477.25 363.4375 481.25 357.6875 484.625 L 357.9375 477.75 L 356.6875 476.875 C 347.0625 478.875 344.9375 479.25 335.5625 480.5 L 334.8125 481.375 C 335.8125 492.25 336.5625 500.125 336.5625 520.5 C 336.5625 528.5 336.4375 536.5 336.3125 544.5 L 337.0625 545.25 C 346.0625 544.875 347.9375 544.875 357.9375 544.875 L 358.6875 544.125 C 357.9375 524.875 357.8125 520 357.6875 497.625 C 360.3125 495.875 363.3125 493.75 367.3125 493.75 C 374.1875 493.75 374.8125 501.125 375.1875 505.625 C 375.4375 509.75 375.5625 526.875 375.5625 531.625 C 375.5625 535.875 375.4375 540.25 375.4375 544.5 L 376.1875 545.25 C 384.4375 545 386.5625 544.875 396.5625 544.875 Z M 471.4375 545 C 483.0625 545.25 497.4375 545.5 506.8125 539 C 515.0625 533.125 517.3125 524.875 517.3125 517.875 C 517.3125 509.875 513.9375 502.5 506.8125 499 C 504.4375 497.75 501.6875 497.25 499.0625 496.75 C 503.3125 495 508.3125 492.75 511.5625 486.125 C 512.9375 483.25 513.5625 480.25 513.5625 477.375 C 513.5625 473.375 512.5625 467.875 508.5625 463.375 C 503.3125 457.75 495.1875 456.25 482.9375 456.25 C 478.6875 456.25 471.0625 456.375 466.8125 456.5 L 449.3125 456.75 L 448.5625 457.5 C 449.0625 469.5 449.1875 474.125 449.1875 491.375 C 449.1875 509.125 449.0625 526.75 448.8125 544.5 L 449.6875 545 L 471.4375 545 M 470.5625 507 C 480.0625 506.75 485.5625 506.75 489.1875 508.875 C 492.8125 511.125 494.1875 515.125 494.1875 519.125 C 494.1875 524.75 491.0625 528.25 486.4375 529.875 C 482.6875 531.125 475.9375 531.125 470.5625 531 L 470.5625 507 M 470.5625 470.25 C 473.1875 470.25 476.6875 470.125 478.8125 470.125 C 485.5625 470.125 491.6875 472.5 491.6875 480.625 C 491.6875 487.25 486.8125 490 485.3125 490.75 C 482.1875 492.125 475.5625 492.125 470.5625 492.125 Z M 565.0625 498.625 L 568.5625 478.25 L 567.8125 477.375 C 566.9375 477.375 566.0625 477.25 565.1875 477.25 C 560.0625 477.25 554.3125 480.125 550.3125 489.375 L 550.6875 477.875 L 549.6875 476.875 C 540.4375 478.875 538.0625 479.25 528.9375 480.625 L 528.1875 481.375 C 528.9375 490.75 529.3125 496.375 529.3125 513.75 C 529.3125 524 529.1875 534.25 528.9375 544.625 L 529.6875 545.375 C 538.9375 545 540.9375 544.875 550.9375 545 L 551.5625 544.125 C 551.0625 534 550.3125 519.875 550.3125 511.25 C 550.3125 505.625 550.3125 497.375 558.8125 497.375 C 560.9375 497.375 562.1875 498.125 563.9375 499.125 Z M 635.8125 478.125 L 615.4375 479.125 L 614.5625 479.875 C 615.4375 494 615.4375 514 615.4375 516 C 615.4375 519.625 615.4375 521.625 615.3125 526.625 C 611.9375 528.875 609.3125 530.75 605.9375 530.75 C 596.9375 530.75 596.9375 521.25 596.9375 513.875 C 596.9375 510.75 596.9375 507.5 597.0625 504.375 L 597.3125 479.125 L 596.4375 478.125 L 575.8125 479.125 L 574.9375 479.875 C 575.6875 490.375 575.8125 493.875 575.8125 506.5 L 575.8125 515.25 C 575.6875 528.875 576.3125 534.625 580.8125 539.875 C 584.9375 544.5 590.9375 546.5 597.1875 546.5 C 606.0625 546.5 611.1875 542.5 615.6875 539 L 615.5625 544.625 L 616.4375 545.375 C 625.5625 545 628.3125 545 636.4375 545 L 637.1875 544.25 C 636.5625 535.375 636.3125 530.625 636.3125 514.375 C 636.3125 502.625 636.4375 490.875 636.6875 479.125 Z M 712.5625 544.125 C 711.9375 533.125 711.9375 529.625 711.6875 517.375 L 711.6875 507.625 C 711.5625 495.625 711.4375 489.875 708.3125 484.75 C 704.4375 478.25 697.3125 477.25 692.8125 477.25 C 685.1875 477.25 678.5625 481.25 672.8125 484.625 L 673.0625 477.75 L 671.8125 476.875 C 662.1875 478.875 660.0625 479.25 650.6875 480.5 L 649.9375 481.375 C 650.9375 492.25 651.6875 500.125 651.6875 520.5 C 651.6875 528.5 651.5625 536.5 651.4375 544.5 L 652.1875 545.25 C 661.1875 544.875 663.0625 544.875 673.0625 544.875 L 673.8125 544.125 C 673.0625 524.875 672.9375 520 672.8125 497.625 C 675.4375 495.875 678.4375 493.75 682.4375 493.75 C 689.3125 493.75 689.9375 501.125 690.3125 505.625 C 690.5625 509.75 690.6875 526.875 690.6875 531.625 C 690.6875 535.875 690.5625 540.25 690.5625 544.5 L 691.3125 545.25 C 699.5625 545 701.6875 544.875 711.6875 544.875 Z M 790.4375 511.75 C 790.4375 506.875 790.4375 486.625 772.9375 479.75 C 767.4375 477.625 760.9375 477.375 757.6875 477.375 C 735.9375 477.375 723.6875 489 723.6875 512 C 723.6875 520 724.9375 528.125 729.5625 534.875 C 732.8125 539.75 738.9375 546.5 756.8125 546.5 C 783.3125 546.5 790.4375 530.5 790.4375 511.75 M 768.8125 511.625 C 768.8125 521.875 767.4375 533.25 757.0625 533.25 C 753.8125 533.25 751.5625 531.75 750.0625 530.375 C 747.9375 528.25 745.5625 524 745.5625 511.875 C 745.5625 508.25 745.5625 500.25 748.0625 495.875 C 749.9375 492.5 753.1875 490.25 757.1875 490.25 C 760.6875 490.25 763.5625 492.125 765.1875 494.125 C 768.1875 497.75 768.8125 504.875 768.8125 511.625 Z M 794.8125 545 "/>
<path fill-rule="nonzero" fill="rgb(34.901961%, 14.901961%, 14.901961%)" fill-opacity="1" d="M 312.5625 606.375 C 299.5625 606.75 297.4375 606.75 283.5625 606.75 L 282.8125 607.5 L 277.0625 627.75 L 272.0625 645.875 L 266.1875 667.625 L 260.6875 645.25 L 257.1875 631.125 L 250.9375 607.125 L 250.3125 606.375 C 236.9375 606.75 234.6875 606.75 220.6875 606.75 L 219.9375 607.5 C 218.6875 644.875 218.1875 654.5 215.4375 694.625 L 216.0625 695.375 C 224.0625 695 226.4375 694.875 233.6875 695 L 234.4375 694.25 L 234.8125 670.375 L 235.5625 646.125 L 236.0625 622.5 L 241.5625 644.625 L 246.3125 662.375 L 254.6875 694.625 L 255.4375 695.375 C 263.1875 695 265.3125 694.875 274.0625 695 L 274.8125 694.25 L 282.0625 667.625 L 287.0625 649.375 L 294.0625 623.125 L 294.0625 645.5 L 294.3125 664.625 L 294.3125 694.625 L 294.9375 695.375 C 303.5625 695 306.9375 694.875 316.5625 695 L 317.1875 694.25 C 316.4375 680 315.5625 665.625 315.0625 651.25 C 314.6875 643.375 314.4375 635.5 314.0625 627.625 C 313.4375 616 313.3125 614.5 313.3125 607.125 Z M 394.9375 661.75 C 394.9375 656.875 394.9375 636.625 377.4375 629.75 C 371.9375 627.625 365.4375 627.375 362.1875 627.375 C 340.4375 627.375 328.1875 639 328.1875 662 C 328.1875 670 329.4375 678.125 334.0625 684.875 C 337.3125 689.75 343.4375 696.5 361.3125 696.5 C 387.8125 696.5 394.9375 680.5 394.9375 661.75 M 373.3125 661.625 C 373.3125 671.875 371.9375 683.25 361.5625 683.25 C 358.3125 683.25 356.0625 681.75 354.5625 680.375 C 352.4375 678.25 350.0625 674 350.0625 661.875 C 350.0625 658.25 350.0625 650.25 352.5625 645.875 C 354.4375 642.5 357.6875 640.25 361.6875 640.25 C 365.1875 640.25 368.0625 642.125 369.6875 644.125 C 372.6875 647.75 373.3125 654.875 373.3125 661.625 Z M 466.8125 628.125 L 446.4375 629.125 L 445.5625 629.875 C 446.4375 644 446.4375 664 446.4375 666 C 446.4375 669.625 446.4375 671.625 446.3125 676.625 C 442.9375 678.875 440.3125 680.75 436.9375 680.75 C 427.9375 680.75 427.9375 671.25 427.9375 663.875 C 427.9375 660.75 427.9375 657.5 428.0625 654.375 L 428.3125 629.125 L 427.4375 628.125 L 406.8125 629.125 L 405.9375 629.875 C 406.6875 640.375 406.8125 643.875 406.8125 656.5 L 406.8125 665.25 C 406.6875 678.875 407.3125 684.625 411.8125 689.875 C 415.9375 694.5 421.9375 696.5 428.1875 696.5 C 437.0625 696.5 442.1875 692.5 446.6875 689 L 446.5625 694.625 L 447.4375 695.375 C 456.5625 695 459.3125 695 467.4375 695 L 468.1875 694.25 C 467.5625 685.375 467.3125 680.625 467.3125 664.375 C 467.3125 652.625 467.4375 640.875 467.6875 629.125 Z M 543.5625 694.125 C 542.9375 683.125 542.9375 679.625 542.6875 667.375 L 542.6875 657.625 C 542.5625 645.625 542.4375 639.875 539.3125 634.75 C 535.4375 628.25 528.3125 627.25 523.8125 627.25 C 516.1875 627.25 509.5625 631.25 503.8125 634.625 L 504.0625 627.75 L 502.8125 626.875 C 493.1875 628.875 491.0625 629.25 481.6875 630.5 L 480.9375 631.375 C 481.9375 642.25 482.6875 650.125 482.6875 670.5 C 482.6875 678.5 482.5625 686.5 482.4375 694.5 L 483.1875 695.25 C 492.1875 694.875 494.0625 694.875 504.0625 694.875 L 504.8125 694.125 C 504.0625 674.875 503.9375 670 503.8125 647.625 C 506.4375 645.875 509.4375 643.75 513.4375 643.75 C 520.3125 643.75 520.9375 651.125 521.3125 655.625 C 521.5625 659.75 521.6875 676.875 521.6875 681.625 C 521.6875 685.875 521.5625 690.25 521.5625 694.5 L 522.3125 695.25 C 530.5625 695 532.6875 694.875 542.6875 694.875 Z M 592.8125 680.625 C 590.6875 681.25 589.1875 681.75 587.0625 681.75 C 580.6875 681.75 580.1875 677.75 579.9375 675.875 C 579.5625 672.625 579.5625 665.75 579.6875 660.75 L 579.9375 643.125 L 591.1875 643.625 L 591.9375 642.875 L 593.1875 629.5 L 592.4375 628.75 L 579.9375 628.75 L 580.3125 607.75 L 579.4375 607 C 570.9375 609.5 568.6875 610.125 559.8125 612.375 L 559.3125 613.25 L 559.4375 628.875 L 552.6875 628.625 L 551.9375 629.25 L 550.8125 642.625 L 551.5625 643.375 L 559.4375 643.125 L 559.0625 663 C 558.9375 666.125 558.8125 669.25 558.8125 672.5 C 558.8125 684 559.0625 696.375 578.5625 696.375 C 583.4375 696.375 587.3125 695.625 591.6875 694.875 L 592.5625 694 L 593.8125 681.125 Z M 657.6875 657.75 C 657.8125 646.5 657.8125 641.625 654.5625 636.375 C 652.0625 632.375 647.0625 627.375 631.0625 627.375 C 620.3125 627.375 613.6875 629.375 606.5625 631.5 L 605.8125 632.5 L 605.1875 646.125 L 606.1875 646.625 C 610.5625 644.875 618.6875 641.625 627.0625 641.625 C 631.6875 641.625 633.5625 642.375 635.1875 644 C 636.4375 645.25 636.8125 647.5 636.8125 649.375 C 621.8125 651.375 614.8125 652.75 607.3125 657.375 C 600.3125 661.75 597.9375 668.875 597.9375 674.5 C 597.9375 687.875 607.5625 696.5 619.8125 696.5 C 629.1875 696.5 634.5625 692 637.1875 689.875 L 637.1875 694.5 L 637.9375 695.375 C 646.9375 695 649.6875 694.875 657.8125 695 L 658.4375 694.125 C 657.5625 681.875 657.5625 678.75 657.5625 667 L 657.6875 657.75 M 637.0625 677.625 C 634.4375 679.125 631.0625 680.875 626.9375 680.875 C 622.4375 680.875 618.6875 678.5 618.6875 673.25 C 618.6875 665 628.5625 663.625 637.0625 662.5 Z M 694.9375 694.125 C 694.3125 684.5 693.8125 677.125 693.8125 659.875 C 693.8125 649.25 694.0625 638.5 694.1875 627.875 L 693.3125 626.875 L 671.8125 630.625 L 671.0625 631.375 C 672.0625 640.875 672.4375 645.25 672.4375 663 C 672.4375 676.625 672.0625 684.25 671.6875 694.5 L 672.4375 695.375 C 681.4375 695 683.9375 694.875 694.0625 695 L 694.9375 694.125 M 692.9375 614.875 L 693.3125 597.875 L 692.5625 597.125 L 672.1875 599.625 L 671.4375 600.5 C 671.6875 605 671.8125 607.625 671.8125 610.625 C 671.8125 613 671.8125 615.5 671.6875 617.875 L 672.5625 618.625 C 681.0625 617.125 683.4375 616.875 692.3125 615.75 Z M 770.0625 694.125 C 769.4375 683.125 769.4375 679.625 769.1875 667.375 L 769.1875 657.625 C 769.0625 645.625 768.9375 639.875 765.8125 634.75 C 761.9375 628.25 754.8125 627.25 750.3125 627.25 C 742.6875 627.25 736.0625 631.25 730.3125 634.625 L 730.5625 627.75 L 729.3125 626.875 C 719.6875 628.875 717.5625 629.25 708.1875 630.5 L 707.4375 631.375 C 708.4375 642.25 709.1875 650.125 709.1875 670.5 C 709.1875 678.5 709.0625 686.5 708.9375 694.5 L 709.6875 695.25 C 718.6875 694.875 720.5625 694.875 730.5625 694.875 L 731.3125 694.125 C 730.5625 674.875 730.4375 670 730.3125 647.625 C 732.9375 645.875 735.9375 643.75 739.9375 643.75 C 746.8125 643.75 747.4375 651.125 747.8125 655.625 C 748.0625 659.75 748.1875 676.875 748.1875 681.625 C 748.1875 685.875 748.0625 690.25 748.0625 694.5 L 748.8125 695.25 C 757.0625 695 759.1875 694.875 769.1875 694.875 Z M 776.8125 695 "/>
<path fill-rule="nonzero" fill="rgb(34.901961%, 14.901961%, 14.901961%)" fill-opacity="1" d="M 232.875 791.25 C 222.375 786.875 216.875 784.625 216.875 779 C 216.875 775.125 220.5 770.25 228.75 770.25 C 238.25 770.25 243.875 774.125 248.5 777.25 L 249.625 776.75 L 250.625 760.375 L 250 759.5 C 244.625 757.25 239 754.875 226.875 754.875 C 203.375 754.875 195.25 768.125 195.25 781.5 C 195.25 796.625 207 802.125 214 805.5 L 218.125 807.375 C 226.75 811 233.375 814.125 233.375 820.75 C 233.375 825.5 229.25 831.125 218.375 831.125 C 207 831.125 200.625 826.125 197 823.25 L 195.75 823.625 L 194.875 841.25 L 195.625 842.25 C 197 842.75 198.375 843.375 199.75 843.75 C 202.625 844.75 210 846.875 219.375 846.875 C 223.125 846.875 232.625 846.5 240.125 843 C 250.625 837.875 255.125 828.375 255.125 817.75 C 255.125 810.625 252.375 803 245.75 797.875 C 242.375 795.375 239.125 793.875 236.125 792.5 Z M 302 830.625 C 299.875 831.25 298.375 831.75 296.25 831.75 C 289.875 831.75 289.375 827.75 289.125 825.875 C 288.75 822.625 288.75 815.75 288.875 810.75 L 289.125 793.125 L 300.375 793.625 L 301.125 792.875 L 302.375 779.5 L 301.625 778.75 L 289.125 778.75 L 289.5 757.75 L 288.625 757 C 280.125 759.5 277.875 760.125 269 762.375 L 268.5 763.25 L 268.625 778.875 L 261.875 778.625 L 261.125 779.25 L 260 792.625 L 260.75 793.375 L 268.625 793.125 L 268.25 813 C 268.125 816.125 268 819.25 268 822.5 C 268 834 268.25 846.375 287.75 846.375 C 292.625 846.375 296.5 845.625 300.875 844.875 L 301.75 844 L 303 831.125 Z M 366.875 807.75 C 367 796.5 367 791.625 363.75 786.375 C 361.25 782.375 356.25 777.375 340.25 777.375 C 329.5 777.375 322.875 779.375 315.75 781.5 L 315 782.5 L 314.375 796.125 L 315.375 796.625 C 319.75 794.875 327.875 791.625 336.25 791.625 C 340.875 791.625 342.75 792.375 344.375 794 C 345.625 795.25 346 797.5 346 799.375 C 331 801.375 324 802.75 316.5 807.375 C 309.5 811.75 307.125 818.875 307.125 824.5 C 307.125 837.875 316.75 846.5 329 846.5 C 338.375 846.5 343.75 842 346.375 839.875 L 346.375 844.5 L 347.125 845.375 C 356.125 845 358.875 844.875 367 845 L 367.625 844.125 C 366.75 831.875 366.75 828.75 366.75 817 L 366.875 807.75 M 346.25 827.625 C 343.625 829.125 340.25 830.875 336.125 830.875 C 331.625 830.875 327.875 828.5 327.875 823.25 C 327.875 815 337.75 813.625 346.25 812.5 Z M 416.5 830.625 C 414.375 831.25 412.875 831.75 410.75 831.75 C 404.375 831.75 403.875 827.75 403.625 825.875 C 403.25 822.625 403.25 815.75 403.375 810.75 L 403.625 793.125 L 414.875 793.625 L 415.625 792.875 L 416.875 779.5 L 416.125 778.75 L 403.625 778.75 L 404 757.75 L 403.125 757 C 394.625 759.5 392.375 760.125 383.5 762.375 L 383 763.25 L 383.125 778.875 L 376.375 778.625 L 375.625 779.25 L 374.5 792.625 L 375.25 793.375 L 383.125 793.125 L 382.75 813 C 382.625 816.125 382.5 819.25 382.5 822.5 C 382.5 834 382.75 846.375 402.25 846.375 C 407.125 846.375 411 845.625 415.375 844.875 L 416.25 844 L 417.5 831.125 Z M 481.25 826.5 C 476.5 829 470.875 831.875 461.75 831.875 C 454.25 831.875 449.125 829.5 446.125 825 C 444.25 822.375 443.875 819.875 443.375 817.375 L 483.75 816.625 L 484.5 815.75 C 484.375 809.625 484.25 803.375 482.5 797.125 C 478.125 782.375 468.5 779.375 464.25 778.375 C 461.125 777.5 458.25 777.25 455.375 777.25 C 435.75 777.25 422.75 790.125 422.75 811.75 C 422.75 817.625 423.75 823.75 425.75 828.125 C 433 845 450 846.5 459 846.5 C 469.375 846.5 473.875 844.625 480.5 842 L 481.25 841 L 482.125 826.875 L 481.25 826.5 M 443.375 804.125 C 443.75 800.25 444.625 795 449.375 792 C 450.875 791 452.625 790.625 454.375 790.625 C 458.5 790.625 461 792.75 462.375 795 C 464.125 797.75 464.25 800.75 464.25 803.625 Z M 549.25 756.5 L 533.375 756.75 L 532.625 757.5 C 533.125 773.75 533.5 784.625 533.5 799 C 533.5 814.25 533.125 829.375 532.75 844.625 L 533.5 845.375 C 542.75 845 544.75 844.875 554.75 845 L 555.375 844.25 C 554.875 830.625 554.875 827.5 554.875 814.75 C 568.875 814.875 583.875 814.875 592.875 803.875 C 596.375 799.625 599.375 792.5 599.375 783.75 C 599.375 778.375 598.125 766.5 587.75 760.625 C 580.25 756.25 569.625 756.25 560.25 756.25 L 549.25 756.5 M 554.875 771.625 C 557.625 771.5 560.25 771.5 563 771.5 C 574 771.75 577 777.375 577 784.625 C 577 786.375 577 793.625 570.375 797.25 C 567 799.125 562.375 799.375 554.875 799.375 Z M 663.625 807.75 C 663.75 796.5 663.75 791.625 660.5 786.375 C 658 782.375 653 777.375 637 777.375 C 626.25 777.375 619.625 779.375 612.5 781.5 L 611.75 782.5 L 611.125 796.125 L 612.125 796.625 C 616.5 794.875 624.625 791.625 633 791.625 C 637.625 791.625 639.5 792.375 641.125 794 C 642.375 795.25 642.75 797.5 642.75 799.375 C 627.75 801.375 620.75 802.75 613.25 807.375 C 606.25 811.75 603.875 818.875 603.875 824.5 C 603.875 837.875 613.5 846.5 625.75 846.5 C 635.125 846.5 640.5 842 643.125 839.875 L 643.125 844.5 L 643.875 845.375 C 652.875 845 655.625 844.875 663.75 845 L 664.375 844.125 C 663.5 831.875 663.5 828.75 663.5 817 L 663.625 807.75 M 643 827.625 C 640.375 829.125 637 830.875 632.875 830.875 C 628.375 830.875 624.625 828.5 624.625 823.25 C 624.625 815 634.5 813.625 643 812.5 Z M 714.375 798.625 L 717.875 778.25 L 717.125 777.375 C 716.25 777.375 715.375 777.25 714.5 777.25 C 709.375 777.25 703.625 780.125 699.625 789.375 L 700 777.875 L 699 776.875 C 689.75 778.875 687.375 779.25 678.25 780.625 L 677.5 781.375 C 678.25 790.75 678.625 796.375 678.625 813.75 C 678.625 824 678.5 834.25 678.25 844.625 L 679 845.375 C 688.25 845 690.25 844.875 700.25 845 L 700.875 844.125 C 700.375 834 699.625 819.875 699.625 811.25 C 699.625 805.625 699.625 797.375 708.125 797.375 C 710.25 797.375 711.5 798.125 713.25 799.125 Z M 789.375 843.375 C 777.625 823.5 776.375 821.25 766.875 804.125 C 775.5 792.375 776.375 791.125 785.25 779.75 L 784.625 778.5 L 764.25 778.75 L 763 779.625 C 753.25 796.5 752 798.5 746.25 807.125 L 746.25 793.25 C 746.375 769.875 746.5 764.875 747.125 746 L 746.125 745.25 L 724.375 748.5 L 723.625 749.375 C 724.5 761.5 724.875 767.375 725.125 783.75 C 725.375 804 725.375 824.25 725.25 844.5 L 726.125 845.375 C 734.5 845 736.875 845 746.375 845 L 747.125 844.125 L 746.375 823 L 746.25 808.625 C 757.125 828.625 758.5 831.375 764.875 844.625 L 766 845.375 L 788.5 844.5 Z M 787.875 845 "/>
</svg>
