<?xml version="1.0" encoding="UTF-8"?>
<svg xmlns="http://www.w3.org/2000/svg" xmlns:xlink="http://www.w3.org/1999/xlink" width="975" height="1300" viewBox="0 0 975 1300">
<path fill-rule="nonzero" fill="rgb(34.901961%, 14.901961%, 14.901961%)" fill-opacity="1" d="M 223.625 447.625 C 220.75 449.875 214.375 454.625 204 454.625 C 189.75 454.625 179.75 444 179.75 426.25 C 179.75 415.5 183.5 396.625 203.875 396.625 C 213.25 396.625 218.375 400.25 221.5 402.625 L 222.625 402.375 L 223.75 385.125 L 223.25 384.5 C 218.75 382.75 211.125 379.875 200.125 379.875 C 167.75 379.875 156.5 404.875 156.5 426.75 C 156.5 450.75 171.125 471.875 201.625 471.875 C 212.125 471.875 219 469.125 223 467.5 L 223.625 466.75 L 224.5 448.125 Z M 289.875 432.75 C 290 421.5 290 416.625 286.75 411.375 C 284.25 407.375 279.25 402.375 263.25 402.375 C 252.5 402.375 245.875 404.375 238.75 406.5 L 238 407.5 L 237.375 421.125 L 238.375 421.625 C 242.75 419.875 250.875 416.625 259.25 416.625 C 263.875 416.625 265.75 417.375 267.375 419 C 268.625 420.25 269 422.5 269 424.375 C 254 426.375 247 427.75 239.5 432.375 C 232.5 436.75 230.125 443.875 230.125 449.5 C 230.125 462.875 239.75 471.5 252 471.5 C 261.375 471.5 266.75 467 269.375 464.875 L 269.375 469.5 L 270.125 470.375 C 279.125 470 281.875 469.875 290 470 L 290.625 469.125 C 289.75 456.875 289.75 453.75 289.75 442 L 289.875 432.75 M 269.25 452.625 C 266.625 454.125 263.25 455.875 259.125 455.875 C 254.625 455.875 250.875 453.5 250.875 448.25 C 250.875 440 260.75 438.625 269.25 437.5 Z M 365.75 469.125 C 365.125 458.125 365.125 454.625 364.875 442.375 L 364.875 432.625 C 364.75 420.625 364.625 414.875 361.5 409.75 C 357.625 403.25 350.5 402.25 346 402.25 C 338.375 402.25 331.75 406.25 326 409.625 L 326.25 402.75 L 325 401.875 C 315.375 403.875 313.25 404.25 303.875 405.5 L 303.125 406.375 C 304.125 417.25 304.875 425.125 304.875 445.5 C 304.875 453.5 304.75 461.5 304.625 469.5 L 305.375 470.25 C 314.375 469.875 316.25 469.875 326.25 469.875 L 327 469.125 C 326.25 449.875 326.125 445 326 422.625 C 328.625 420.875 331.625 418.75 335.625 418.75 C 342.5 418.75 343.125 426.125 343.5 430.625 C 343.75 434.75 343.875 451.875 343.875 456.625 C 343.875 460.875 343.75 465.25 343.75 469.5 L 344.5 470.25 C 352.75 470 354.875 469.875 364.875 469.875 Z M 441.25 469.25 C 440.75 458 440.375 450.5 440.375 434.125 C 440.375 401.125 440.875 387.5 441.375 371 L 440.5 370.25 L 419.875 373.5 L 419.25 374.25 C 420 386 420.125 389.125 420 403.375 C 410.625 403.125 398.875 402.875 389.375 410.375 C 380.625 417.125 377 427.5 377 440.375 C 377 450.125 379.625 459.875 387 466 C 392.5 470.5 399.25 471.5 403.375 471.5 C 412.25 471.5 416.875 467.375 419.875 464.75 L 419.625 469.625 L 420.25 470.375 C 428.875 470 431.25 470 440.625 470 L 441.25 469.25 M 420 418.375 C 420.125 435 420 438.25 419.625 453.375 C 417.125 454.875 414.625 456.375 411.125 456.375 C 399 456.375 399 440.875 399 438.375 C 399 428.75 401.75 418 415.75 418 C 417.125 418 418.25 418.125 420 418.375 Z M 477.5 469.125 C 476.875 454.75 476.25 441.625 476.25 402.125 C 476.25 390.25 476.375 384.625 476.875 371.125 L 476 370.25 L 454.625 373.625 L 454.125 374.375 C 455.375 389.625 455.5 393.75 455.75 414 C 455.875 421.375 455.875 428.75 455.875 436.125 C 455.875 449.625 455.625 457.125 455.125 469.5 L 455.875 470.375 C 464.25 470 467.625 469.875 476.75 470 Z M 547.5 451.5 C 542.75 454 537.125 456.875 528 456.875 C 520.5 456.875 515.375 454.5 512.375 450 C 510.5 447.375 510.125 444.875 509.625 442.375 L 550 441.625 L 550.75 440.75 C 550.625 434.625 550.5 428.375 548.75 422.125 C 544.375 407.375 534.75 404.375 530.5 403.375 C 527.375 402.5 524.5 402.25 521.625 402.25 C 502 402.25 489 415.125 489 436.75 C 489 442.625 490 448.75 492 453.125 C 499.25 470 516.25 471.5 525.25 471.5 C 535.625 471.5 540.125 469.625 546.75 467 L 547.5 466 L 548.375 451.875 L 547.5 451.5 M 509.625 429.125 C 510 425.25 510.875 420 515.625 417 C 517.125 416 518.875 415.625 520.625 415.625 C 524.75 415.625 527.25 417.75 528.625 420 C 530.375 422.75 530.5 425.75 530.5 428.625 Z M 588.5 426.875 C 584.25 425.375 580.875 424 580.875 420.5 C 580.875 419 581.875 414.875 589.625 414.875 C 597.25 414.875 602.125 418.125 605.25 420.125 L 606.375 419.75 L 607.625 406.125 L 607 405.375 C 601.125 403.75 596 402.25 587.875 402.25 C 581.75 402.25 569.5 402.75 563 412.125 C 561.375 414.375 559.625 418.125 559.625 423.125 C 559.625 436.5 570 440.5 575.875 442.75 L 580.625 444.5 C 584 445.625 589.5 447.5 589.5 452 C 589.5 455.125 586.625 458.5 579.625 458.5 C 576.125 458.5 571 457.375 566.375 455 C 564.25 453.875 563.25 453 561.375 451.5 L 560.25 452 C 560 458.5 559.875 459.875 559.375 466.125 L 560 467.25 C 566.125 469.5 571.375 471.5 580.5 471.5 C 590 471.5 608.75 469.75 611 451.875 C 611.125 450.875 611.125 450 611.125 449.125 C 611.125 435.375 601.5 431.75 594.625 429.125 Z M 657.125 455.625 C 655 456.25 653.5 456.75 651.375 456.75 C 645 456.75 644.5 452.75 644.25 450.875 C 643.875 447.625 643.875 440.75 644 435.75 L 644.25 418.125 L 655.5 418.625 L 656.25 417.875 L 657.5 404.5 L 656.75 403.75 L 644.25 403.75 L 644.625 382.75 L 643.75 382 C 635.25 384.5 633 385.125 624.125 387.375 L 623.625 388.25 L 623.75 403.875 L 617 403.625 L 616.25 404.25 L 615.125 417.625 L 615.875 418.375 L 623.75 418.125 L 623.375 438 C 623.25 441.125 623.125 444.25 623.125 447.5 C 623.125 459 623.375 471.375 642.875 471.375 C 647.75 471.375 651.625 470.625 656 469.875 L 656.875 469 L 658.125 456.125 Z M 689 469.125 C 688.375 459.5 687.875 452.125 687.875 434.875 C 687.875 424.25 688.125 413.5 688.25 402.875 L 687.375 401.875 L 665.875 405.625 L 665.125 406.375 C 666.125 415.875 666.5 420.25 666.5 438 C 666.5 451.625 666.125 459.25 665.75 469.5 L 666.5 470.375 C 675.5 470 678 469.875 688.125 470 L 689 469.125 M 687 389.875 L 687.375 372.875 L 686.625 372.125 L 666.25 374.625 L 665.5 375.5 C 665.75 380 665.875 382.625 665.875 385.625 C 665.875 388 665.875 390.5 665.75 392.875 L 666.625 393.625 C 675.125 392.125 677.5 391.875 686.375 390.75 Z M 751.75 452 C 748.375 454 745.125 456 738.75 456 C 724.625 456 721.75 444.25 721.75 436.75 C 721.75 427.625 725.75 417.125 737.875 417.125 C 743.375 417.125 746.375 419.125 750.125 421.625 L 751.375 421.25 C 751.875 414.625 752 412.875 753 406.25 L 752.375 405.5 C 746.875 403.75 742.125 402.25 734.875 402.25 C 705.5 402.25 699.75 424.5 699.75 437.25 C 699.75 451.625 707.25 471.125 735.375 471.125 C 742 471.125 746.25 469.875 751.5 468.375 L 752.25 467.625 L 752.75 452.625 Z M 827 468.375 C 815.25 448.5 814 446.25 804.5 429.125 C 813.125 417.375 814 416.125 822.875 404.75 L 822.25 403.5 L 801.875 403.75 L 800.625 404.625 C 790.875 421.5 789.625 423.5 783.875 432.125 L 783.875 418.25 C 784 394.875 784.125 389.875 784.75 371 L 783.75 370.25 L 762 373.5 L 761.25 374.375 C 762.125 386.5 762.5 392.375 762.75 408.75 C 763 429 763 449.25 762.875 469.5 L 763.75 470.375 C 772.125 470 774.5 470 784 470 L 784.75 469.125 L 784 448 L 783.875 433.625 C 794.75 453.625 796.125 456.375 802.5 469.625 L 803.625 470.375 L 826.125 469.5 Z M 825.5 470 "/>
<path fill-rule="nonzero" fill="rgb(34.901961%, 14.901961%, 14.901961%)" fill-opacity="1" d="M 195.0625 531.5 L 179.1875 531.75 L 178.4375 532.5 C 178.9375 548.75 179.3125 559.625 179.3125 574 C 179.3125 589.25 178.9375 604.375 178.5625 619.625 L 179.3125 620.375 C 188.5625 620 190.5625 619.875 200.5625 620 L 201.1875 619.25 C 200.6875 605.625 200.6875 602.5 200.6875 589.75 C 214.6875 589.875 229.6875 589.875 238.6875 578.875 C 242.1875 574.625 245.1875 567.5 245.1875 558.75 C 245.1875 553.375 243.9375 541.5 233.5625 535.625 C 226.0625 531.25 215.4375 531.25 206.0625 531.25 L 195.0625 531.5 M 200.6875 546.625 C 203.4375 546.5 206.0625 546.5 208.8125 546.5 C 219.8125 546.75 222.8125 552.375 222.8125 559.625 C 222.8125 561.375 222.8125 568.625 216.1875 572.25 C 212.8125 574.125 208.1875 574.375 200.6875 574.375 Z M 317.4375 586.75 C 317.4375 581.875 317.4375 561.625 299.9375 554.75 C 294.4375 552.625 287.9375 552.375 284.6875 552.375 C 262.9375 552.375 250.6875 564 250.6875 587 C 250.6875 595 251.9375 603.125 256.5625 609.875 C 259.8125 614.75 265.9375 621.5 283.8125 621.5 C 310.3125 621.5 317.4375 605.5 317.4375 586.75 M 295.8125 586.625 C 295.8125 596.875 294.4375 608.25 284.0625 608.25 C 280.8125 608.25 278.5625 606.75 277.0625 605.375 C 274.9375 603.25 272.5625 599 272.5625 586.875 C 272.5625 583.25 272.5625 575.25 275.0625 570.875 C 276.9375 567.5 280.1875 565.25 284.1875 565.25 C 287.6875 565.25 290.5625 567.125 292.1875 569.125 C 295.1875 572.75 295.8125 579.875 295.8125 586.625 Z M 351.9375 619.125 C 351.3125 609.5 350.8125 602.125 350.8125 584.875 C 350.8125 574.25 351.0625 563.5 351.1875 552.875 L 350.3125 551.875 L 328.8125 555.625 L 328.0625 556.375 C 329.0625 565.875 329.4375 570.25 329.4375 588 C 329.4375 601.625 329.0625 609.25 328.6875 619.5 L 329.4375 620.375 C 338.4375 620 340.9375 619.875 351.0625 620 L 351.9375 619.125 M 349.9375 539.875 L 350.3125 522.875 L 349.5625 522.125 L 329.1875 524.625 L 328.4375 525.5 C 328.6875 530 328.8125 532.625 328.8125 535.625 C 328.8125 538 328.8125 540.5 328.6875 542.875 L 329.5625 543.625 C 338.0625 542.125 340.4375 541.875 349.3125 540.75 Z M 427.0625 619.125 C 426.4375 608.125 426.4375 604.625 426.1875 592.375 L 426.1875 582.625 C 426.0625 570.625 425.9375 564.875 422.8125 559.75 C 418.9375 553.25 411.8125 552.25 407.3125 552.25 C 399.6875 552.25 393.0625 556.25 387.3125 559.625 L 387.5625 552.75 L 386.3125 551.875 C 376.6875 553.875 374.5625 554.25 365.1875 555.5 L 364.4375 556.375 C 365.4375 567.25 366.1875 575.125 366.1875 595.5 C 366.1875 603.5 366.0625 611.5 365.9375 619.5 L 366.6875 620.25 C 375.6875 619.875 377.5625 619.875 387.5625 619.875 L 388.3125 619.125 C 387.5625 599.875 387.4375 595 387.3125 572.625 C 389.9375 570.875 392.9375 568.75 396.9375 568.75 C 403.8125 568.75 404.4375 576.125 404.8125 580.625 C 405.0625 584.75 405.1875 601.875 405.1875 606.625 C 405.1875 610.875 405.0625 615.25 405.0625 619.5 L 405.8125 620.25 C 414.0625 620 416.1875 619.875 426.1875 619.875 Z M 476.3125 605.625 C 474.1875 606.25 472.6875 606.75 470.5625 606.75 C 464.1875 606.75 463.6875 602.75 463.4375 600.875 C 463.0625 597.625 463.0625 590.75 463.1875 585.75 L 463.4375 568.125 L 474.6875 568.625 L 475.4375 567.875 L 476.6875 554.5 L 475.9375 553.75 L 463.4375 553.75 L 463.8125 532.75 L 462.9375 532 C 454.4375 534.5 452.1875 535.125 443.3125 537.375 L 442.8125 538.25 L 442.9375 553.875 L 436.1875 553.625 L 435.4375 554.25 L 434.3125 567.625 L 435.0625 568.375 L 442.9375 568.125 L 442.5625 588 C 442.4375 591.125 442.3125 594.25 442.3125 597.5 C 442.3125 609 442.5625 621.375 462.0625 621.375 C 466.9375 621.375 470.8125 620.625 475.1875 619.875 L 476.0625 619 L 477.3125 606.125 Z M 558.1875 566.25 C 547.6875 561.875 542.1875 559.625 542.1875 554 C 542.1875 550.125 545.8125 545.25 554.0625 545.25 C 563.5625 545.25 569.1875 549.125 573.8125 552.25 L 574.9375 551.75 L 575.9375 535.375 L 575.3125 534.5 C 569.9375 532.25 564.3125 529.875 552.1875 529.875 C 528.6875 529.875 520.5625 543.125 520.5625 556.5 C 520.5625 571.625 532.3125 577.125 539.3125 580.5 L 543.4375 582.375 C 552.0625 586 558.6875 589.125 558.6875 595.75 C 558.6875 600.5 554.5625 606.125 543.6875 606.125 C 532.3125 606.125 525.9375 601.125 522.3125 598.25 L 521.0625 598.625 L 520.1875 616.25 L 520.9375 617.25 C 522.3125 617.75 523.6875 618.375 525.0625 618.75 C 527.9375 619.75 535.3125 621.875 544.6875 621.875 C 548.4375 621.875 557.9375 621.5 565.4375 618 C 575.9375 612.875 580.4375 603.375 580.4375 592.75 C 580.4375 585.625 577.6875 578 571.0625 572.875 C 567.6875 570.375 564.4375 568.875 561.4375 567.5 Z M 627.3125 605.625 C 625.1875 606.25 623.6875 606.75 621.5625 606.75 C 615.1875 606.75 614.6875 602.75 614.4375 600.875 C 614.0625 597.625 614.0625 590.75 614.1875 585.75 L 614.4375 568.125 L 625.6875 568.625 L 626.4375 567.875 L 627.6875 554.5 L 626.9375 553.75 L 614.4375 553.75 L 614.8125 532.75 L 613.9375 532 C 605.4375 534.5 603.1875 535.125 594.3125 537.375 L 593.8125 538.25 L 593.9375 553.875 L 587.1875 553.625 L 586.4375 554.25 L 585.3125 567.625 L 586.0625 568.375 L 593.9375 568.125 L 593.5625 588 C 593.4375 591.125 593.3125 594.25 593.3125 597.5 C 593.3125 609 593.5625 621.375 613.0625 621.375 C 617.9375 621.375 621.8125 620.625 626.1875 619.875 L 627.0625 619 L 628.3125 606.125 Z M 692.1875 582.75 C 692.3125 571.5 692.3125 566.625 689.0625 561.375 C 686.5625 557.375 681.5625 552.375 665.5625 552.375 C 654.8125 552.375 648.1875 554.375 641.0625 556.5 L 640.3125 557.5 L 639.6875 571.125 L 640.6875 571.625 C 645.0625 569.875 653.1875 566.625 661.5625 566.625 C 666.1875 566.625 668.0625 567.375 669.6875 569 C 670.9375 570.25 671.3125 572.5 671.3125 574.375 C 656.3125 576.375 649.3125 577.75 641.8125 582.375 C 634.8125 586.75 632.4375 593.875 632.4375 599.5 C 632.4375 612.875 642.0625 621.5 654.3125 621.5 C 663.6875 621.5 669.0625 617 671.6875 614.875 L 671.6875 619.5 L 672.4375 620.375 C 681.4375 620 684.1875 619.875 692.3125 620 L 692.9375 619.125 C 692.0625 606.875 692.0625 603.75 692.0625 592 L 692.1875 582.75 M 671.5625 602.625 C 668.9375 604.125 665.5625 605.875 661.4375 605.875 C 656.9375 605.875 653.1875 603.5 653.1875 598.25 C 653.1875 590 663.0625 588.625 671.5625 587.5 Z M 741.8125 605.625 C 739.6875 606.25 738.1875 606.75 736.0625 606.75 C 729.6875 606.75 729.1875 602.75 728.9375 600.875 C 728.5625 597.625 728.5625 590.75 728.6875 585.75 L 728.9375 568.125 L 740.1875 568.625 L 740.9375 567.875 L 742.1875 554.5 L 741.4375 553.75 L 728.9375 553.75 L 729.3125 532.75 L 728.4375 532 C 719.9375 534.5 717.6875 535.125 708.8125 537.375 L 708.3125 538.25 L 708.4375 553.875 L 701.6875 553.625 L 700.9375 554.25 L 699.8125 567.625 L 700.5625 568.375 L 708.4375 568.125 L 708.0625 588 C 707.9375 591.125 707.8125 594.25 707.8125 597.5 C 707.8125 609 708.0625 621.375 727.5625 621.375 C 732.4375 621.375 736.3125 620.625 740.6875 619.875 L 741.5625 619 L 742.8125 606.125 Z M 806.5625 601.5 C 801.8125 604 796.1875 606.875 787.0625 606.875 C 779.5625 606.875 774.4375 604.5 771.4375 600 C 769.5625 597.375 769.1875 594.875 768.6875 592.375 L 809.0625 591.625 L 809.8125 590.75 C 809.6875 584.625 809.5625 578.375 807.8125 572.125 C 803.4375 557.375 793.8125 554.375 789.5625 553.375 C 786.4375 552.5 783.5625 552.25 780.6875 552.25 C 761.0625 552.25 748.0625 565.125 748.0625 586.75 C 748.0625 592.625 749.0625 598.75 751.0625 603.125 C 758.3125 620 775.3125 621.5 784.3125 621.5 C 794.6875 621.5 799.1875 619.625 805.8125 617 L 806.5625 616 L 807.4375 601.875 L 806.5625 601.5 M 768.6875 579.125 C 769.0625 575.25 769.9375 570 774.6875 567 C 776.1875 566 777.9375 565.625 779.6875 565.625 C 783.8125 565.625 786.3125 567.75 787.6875 570 C 789.4375 572.75 789.5625 575.75 789.5625 578.625 Z M 813.8125 620 "/>
<path fill-rule="nonzero" fill="rgb(34.901961%, 14.901961%, 14.901961%)" fill-opacity="1" d="M 215.6875 735.625 C 224.0625 749.875 225.9375 753.625 233.9375 770 L 234.9375 770.625 C 238.8125 770.375 242.5625 770.125 246.4375 770 C 250.3125 769.875 254.3125 769.75 258.1875 769.75 L 258.9375 768.25 C 254.1875 762.125 252.8125 760.25 243.8125 745.875 C 239.8125 739.5 237.8125 736.125 234.6875 730.625 C 240.3125 728.125 251.6875 722.875 251.6875 707 C 251.6875 701.5 250.1875 690.125 239.9375 684.75 C 233.4375 681.375 226.6875 681.25 212.0625 681.5 L 203.3125 681.625 L 188.0625 681.625 L 187.4375 682.375 C 187.9375 695 188.4375 708 188.4375 742 C 188.4375 753.625 188.3125 759.25 187.9375 769.625 L 188.6875 770.375 C 197.8125 770 199.8125 769.875 210.0625 770 L 210.8125 769.25 C 209.8125 754.75 209.6875 750.75 209.5625 735.875 L 215.6875 735.625 M 209.8125 696.75 C 211.5625 696.625 213.3125 696.625 215.0625 696.625 C 219.9375 696.625 229.5625 696.625 229.5625 707.625 C 229.5625 711.125 228.6875 715.75 224.0625 718.625 C 220.5625 720.75 216.0625 721 209.8125 721.125 Z M 321.0625 751.5 C 316.3125 754 310.6875 756.875 301.5625 756.875 C 294.0625 756.875 288.9375 754.5 285.9375 750 C 284.0625 747.375 283.6875 744.875 283.1875 742.375 L 323.5625 741.625 L 324.3125 740.75 C 324.1875 734.625 324.0625 728.375 322.3125 722.125 C 317.9375 707.375 308.3125 704.375 304.0625 703.375 C 300.9375 702.5 298.0625 702.25 295.1875 702.25 C 275.5625 702.25 262.5625 715.125 262.5625 736.75 C 262.5625 742.625 263.5625 748.75 265.5625 753.125 C 272.8125 770 289.8125 771.5 298.8125 771.5 C 309.1875 771.5 313.6875 769.625 320.3125 767 L 321.0625 766 L 321.9375 751.875 L 321.0625 751.5 M 283.1875 729.125 C 283.5625 725.25 284.4375 720 289.1875 717 C 290.6875 716 292.4375 715.625 294.1875 715.625 C 298.3125 715.625 300.8125 717.75 302.1875 720 C 303.9375 722.75 304.0625 725.75 304.0625 728.625 Z M 384.6875 752 C 381.3125 754 378.0625 756 371.6875 756 C 357.5625 756 354.6875 744.25 354.6875 736.75 C 354.6875 727.625 358.6875 717.125 370.8125 717.125 C 376.3125 717.125 379.3125 719.125 383.0625 721.625 L 384.3125 721.25 C 384.8125 714.625 384.9375 712.875 385.9375 706.25 L 385.3125 705.5 C 379.8125 703.75 375.0625 702.25 367.8125 702.25 C 338.4375 702.25 332.6875 724.5 332.6875 737.25 C 332.6875 751.625 340.1875 771.125 368.3125 771.125 C 374.9375 771.125 379.1875 769.875 384.4375 768.375 L 385.1875 767.625 L 385.6875 752.625 Z M 431.8125 723.625 L 435.3125 703.25 L 434.5625 702.375 C 433.6875 702.375 432.8125 702.25 431.9375 702.25 C 426.8125 702.25 421.0625 705.125 417.0625 714.375 L 417.4375 702.875 L 416.4375 701.875 C 407.1875 703.875 404.8125 704.25 395.6875 705.625 L 394.9375 706.375 C 395.6875 715.75 396.0625 721.375 396.0625 738.75 C 396.0625 749 395.9375 759.25 395.6875 769.625 L 396.4375 770.375 C 405.6875 770 407.6875 769.875 417.6875 770 L 418.3125 769.125 C 417.8125 759 417.0625 744.875 417.0625 736.25 C 417.0625 730.625 417.0625 722.375 425.5625 722.375 C 427.6875 722.375 428.9375 723.125 430.6875 724.125 Z M 498.0625 751.5 C 493.3125 754 487.6875 756.875 478.5625 756.875 C 471.0625 756.875 465.9375 754.5 462.9375 750 C 461.0625 747.375 460.6875 744.875 460.1875 742.375 L 500.5625 741.625 L 501.3125 740.75 C 501.1875 734.625 501.0625 728.375 499.3125 722.125 C 494.9375 707.375 485.3125 704.375 481.0625 703.375 C 477.9375 702.5 475.0625 702.25 472.1875 702.25 C 452.5625 702.25 439.5625 715.125 439.5625 736.75 C 439.5625 742.625 440.5625 748.75 442.5625 753.125 C 449.8125 770 466.8125 771.5 475.8125 771.5 C 486.1875 771.5 490.6875 769.625 497.3125 767 L 498.0625 766 L 498.9375 751.875 L 498.0625 751.5 M 460.1875 729.125 C 460.5625 725.25 461.4375 720 466.1875 717 C 467.6875 716 469.4375 715.625 471.1875 715.625 C 475.3125 715.625 477.8125 717.75 479.1875 720 C 480.9375 722.75 481.0625 725.75 481.0625 728.625 Z M 568.4375 732.75 C 568.5625 721.5 568.5625 716.625 565.3125 711.375 C 562.8125 707.375 557.8125 702.375 541.8125 702.375 C 531.0625 702.375 524.4375 704.375 517.3125 706.5 L 516.5625 707.5 L 515.9375 721.125 L 516.9375 721.625 C 521.3125 719.875 529.4375 716.625 537.8125 716.625 C 542.4375 716.625 544.3125 717.375 545.9375 719 C 547.1875 720.25 547.5625 722.5 547.5625 724.375 C 532.5625 726.375 525.5625 727.75 518.0625 732.375 C 511.0625 736.75 508.6875 743.875 508.6875 749.5 C 508.6875 762.875 518.3125 771.5 530.5625 771.5 C 539.9375 771.5 545.3125 767 547.9375 764.875 L 547.9375 769.5 L 548.6875 770.375 C 557.6875 770 560.4375 769.875 568.5625 770 L 569.1875 769.125 C 568.3125 756.875 568.3125 753.75 568.3125 742 L 568.4375 732.75 M 547.8125 752.625 C 545.1875 754.125 541.8125 755.875 537.6875 755.875 C 533.1875 755.875 529.4375 753.5 529.4375 748.25 C 529.4375 740 539.3125 738.625 547.8125 737.5 Z M 618.0625 755.625 C 615.9375 756.25 614.4375 756.75 612.3125 756.75 C 605.9375 756.75 605.4375 752.75 605.1875 750.875 C 604.8125 747.625 604.8125 740.75 604.9375 735.75 L 605.1875 718.125 L 616.4375 718.625 L 617.1875 717.875 L 618.4375 704.5 L 617.6875 703.75 L 605.1875 703.75 L 605.5625 682.75 L 604.6875 682 C 596.1875 684.5 593.9375 685.125 585.0625 687.375 L 584.5625 688.25 L 584.6875 703.875 L 577.9375 703.625 L 577.1875 704.25 L 576.0625 717.625 L 576.8125 718.375 L 584.6875 718.125 L 584.3125 738 C 584.1875 741.125 584.0625 744.25 584.0625 747.5 C 584.0625 759 584.3125 771.375 603.8125 771.375 C 608.6875 771.375 612.5625 770.625 616.9375 769.875 L 617.8125 769 L 619.0625 756.125 Z M 649.9375 769.125 C 649.3125 759.5 648.8125 752.125 648.8125 734.875 C 648.8125 724.25 649.0625 713.5 649.1875 702.875 L 648.3125 701.875 L 626.8125 705.625 L 626.0625 706.375 C 627.0625 715.875 627.4375 720.25 627.4375 738 C 627.4375 751.625 627.0625 759.25 626.6875 769.5 L 627.4375 770.375 C 636.4375 770 638.9375 769.875 649.0625 770 L 649.9375 769.125 M 647.9375 689.875 L 648.3125 672.875 L 647.5625 672.125 L 627.1875 674.625 L 626.4375 675.5 C 626.6875 680 626.8125 682.625 626.8125 685.625 C 626.8125 688 626.8125 690.5 626.6875 692.875 L 627.5625 693.625 C 636.0625 692.125 638.4375 691.875 647.3125 690.75 Z M 727.4375 736.75 C 727.4375 731.875 727.4375 711.625 709.9375 704.75 C 704.4375 702.625 697.9375 702.375 694.6875 702.375 C 672.9375 702.375 660.6875 714 660.6875 737 C 660.6875 745 661.9375 753.125 666.5625 759.875 C 669.8125 764.75 675.9375 771.5 693.8125 771.5 C 720.3125 771.5 727.4375 755.5 727.4375 736.75 M 705.8125 736.625 C 705.8125 746.875 704.4375 758.25 694.0625 758.25 C 690.8125 758.25 688.5625 756.75 687.0625 755.375 C 684.9375 753.25 682.5625 749 682.5625 736.875 C 682.5625 733.25 682.5625 725.25 685.0625 720.875 C 686.9375 717.5 690.1875 715.25 694.1875 715.25 C 697.6875 715.25 700.5625 717.125 702.1875 719.125 C 705.1875 722.75 705.8125 729.875 705.8125 736.625 Z M 800.5625 769.125 C 799.9375 758.125 799.9375 754.625 799.6875 742.375 L 799.6875 732.625 C 799.5625 720.625 799.4375 714.875 796.3125 709.75 C 792.4375 703.25 785.3125 702.25 780.8125 702.25 C 773.1875 702.25 766.5625 706.25 760.8125 709.625 L 761.0625 702.75 L 759.8125 701.875 C 750.1875 703.875 748.0625 704.25 738.6875 705.5 L 737.9375 706.375 C 738.9375 717.25 739.6875 725.125 739.6875 745.5 C 739.6875 753.5 739.5625 761.5 739.4375 769.5 L 740.1875 770.25 C 749.1875 769.875 751.0625 769.875 761.0625 769.875 L 761.8125 769.125 C 761.0625 749.875 760.9375 745 760.8125 722.625 C 763.4375 720.875 766.4375 718.75 770.4375 718.75 C 777.3125 718.75 777.9375 726.125 778.3125 730.625 C 778.5625 734.75 778.6875 751.875 778.6875 756.625 C 778.6875 760.875 778.5625 765.25 778.5625 769.5 L 779.3125 770.25 C 787.5625 770 789.6875 769.875 799.6875 769.875 Z M 807.3125 770 "/>
<path fill-rule="nonzero" fill="rgb(34.901961%, 14.901961%, 14.901961%)" fill-opacity="1" d="M 412.4375 831.375 C 400.4375 831.75 397.9375 831.75 384.5625 831.75 L 383.6875 832.5 C 377.0625 853.75 373.0625 866.375 354.6875 919.125 L 355.1875 920 L 374.6875 920 L 375.5625 919.25 L 381.6875 896.5 L 408.6875 896.5 L 414.0625 919.625 L 414.9375 920.375 C 424.0625 920 426.5625 919.875 436.6875 920 L 437.3125 919 C 422.1875 865.5 420.4375 859.625 413.3125 832.125 L 412.4375 831.375 M 386.0625 881.375 L 392.3125 860.25 L 396.6875 845.625 L 400.4375 861.875 L 405.0625 881.375 Z M 481.4375 873.625 L 484.9375 853.25 L 484.1875 852.375 C 483.3125 852.375 482.4375 852.25 481.5625 852.25 C 476.4375 852.25 470.6875 855.125 466.6875 864.375 L 467.0625 852.875 L 466.0625 851.875 C 456.8125 853.875 454.4375 854.25 445.3125 855.625 L 444.5625 856.375 C 445.3125 865.75 445.6875 871.375 445.6875 888.75 C 445.6875 899 445.5625 909.25 445.3125 919.625 L 446.0625 920.375 C 455.3125 920 457.3125 919.875 467.3125 920 L 467.9375 919.125 C 467.4375 909 466.6875 894.875 466.6875 886.25 C 466.6875 880.625 466.6875 872.375 475.1875 872.375 C 477.3125 872.375 478.5625 873.125 480.3125 874.125 Z M 547.6875 901.5 C 542.9375 904 537.3125 906.875 528.1875 906.875 C 520.6875 906.875 515.5625 904.5 512.5625 900 C 510.6875 897.375 510.3125 894.875 509.8125 892.375 L 550.1875 891.625 L 550.9375 890.75 C 550.8125 884.625 550.6875 878.375 548.9375 872.125 C 544.5625 857.375 534.9375 854.375 530.6875 853.375 C 527.5625 852.5 524.6875 852.25 521.8125 852.25 C 502.1875 852.25 489.1875 865.125 489.1875 886.75 C 489.1875 892.625 490.1875 898.75 492.1875 903.125 C 499.4375 920 516.4375 921.5 525.4375 921.5 C 535.8125 921.5 540.3125 919.625 546.9375 917 L 547.6875 916 L 548.5625 901.875 L 547.6875 901.5 M 509.8125 879.125 C 510.1875 875.25 511.0625 870 515.8125 867 C 517.3125 866 519.0625 865.625 520.8125 865.625 C 524.9375 865.625 527.4375 867.75 528.8125 870 C 530.5625 872.75 530.6875 875.75 530.6875 878.625 Z M 618.0625 882.75 C 618.1875 871.5 618.1875 866.625 614.9375 861.375 C 612.4375 857.375 607.4375 852.375 591.4375 852.375 C 580.6875 852.375 574.0625 854.375 566.9375 856.5 L 566.1875 857.5 L 565.5625 871.125 L 566.5625 871.625 C 570.9375 869.875 579.0625 866.625 587.4375 866.625 C 592.0625 866.625 593.9375 867.375 595.5625 869 C 596.8125 870.25 597.1875 872.5 597.1875 874.375 C 582.1875 876.375 575.1875 877.75 567.6875 882.375 C 560.6875 886.75 558.3125 893.875 558.3125 899.5 C 558.3125 912.875 567.9375 921.5 580.1875 921.5 C 589.5625 921.5 594.9375 917 597.5625 914.875 L 597.5625 919.5 L 598.3125 920.375 C 607.3125 920 610.0625 919.875 618.1875 920 L 618.8125 919.125 C 617.9375 906.875 617.9375 903.75 617.9375 892 L 618.0625 882.75 M 597.4375 902.625 C 594.8125 904.125 591.4375 905.875 587.3125 905.875 C 582.8125 905.875 579.0625 903.5 579.0625 898.25 C 579.0625 890 588.9375 888.625 597.4375 887.5 Z M 625.1875 920 "/>
</svg>
