<?xml version="1.0" encoding="UTF-8"?>
<svg xmlns="http://www.w3.org/2000/svg" xmlns:xlink="http://www.w3.org/1999/xlink" width="975" height="1300" viewBox="0 0 975 1300">
<path fill-rule="nonzero" fill="rgb(34.901961%, 14.901961%, 14.901961%)" fill-opacity="1" d="M 223.9375 531.375 C 211.9375 531.75 209.4375 531.75 196.0625 531.75 L 195.1875 532.5 C 188.5625 553.75 184.5625 566.375 166.1875 619.125 L 166.6875 620 L 186.1875 620 L 187.0625 619.25 L 193.1875 596.5 L 220.1875 596.5 L 225.5625 619.625 L 226.4375 620.375 C 235.5625 620 238.0625 619.875 248.1875 620 L 248.8125 619 C 233.6875 565.5 231.9375 559.625 224.8125 532.125 L 223.9375 531.375 M 197.5625 581.375 L 203.8125 560.25 L 208.1875 545.625 L 211.9375 561.875 L 216.5625 581.375 Z M 318.0625 619.125 C 317.4375 608.125 317.4375 604.625 317.1875 592.375 L 317.1875 582.625 C 317.0625 570.625 316.9375 564.875 313.8125 559.75 C 309.9375 553.25 302.8125 552.25 298.3125 552.25 C 290.6875 552.25 284.0625 556.25 278.3125 559.625 L 278.5625 552.75 L 277.3125 551.875 C 267.6875 553.875 265.5625 554.25 256.1875 555.5 L 255.4375 556.375 C 256.4375 567.25 257.1875 575.125 257.1875 595.5 C 257.1875 603.5 257.0625 611.5 256.9375 619.5 L 257.6875 620.25 C 266.6875 619.875 268.5625 619.875 278.5625 619.875 L 279.3125 619.125 C 278.5625 599.875 278.4375 595 278.3125 572.625 C 280.9375 570.875 283.9375 568.75 287.9375 568.75 C 294.8125 568.75 295.4375 576.125 295.8125 580.625 C 296.0625 584.75 296.1875 601.875 296.1875 606.625 C 296.1875 610.875 296.0625 615.25 296.0625 619.5 L 296.8125 620.25 C 305.0625 620 307.1875 619.875 317.1875 619.875 L 318.0625 619.125 M 307.3125 525.25 C 304.5625 527.625 300.9375 530.875 296.4375 530.875 C 293.6875 530.875 291.0625 529.875 288.3125 529 L 283.4375 527.25 C 281.0625 526.5 279.3125 526 276.8125 526 C 271.0625 526 268.5625 528.125 265.8125 530.25 L 265.3125 531.25 L 265.1875 544.375 L 265.9375 544.75 C 268.6875 542.875 272.1875 540.5 276.5625 540.5 C 279.4375 540.5 282.1875 541.5 285.0625 542.5 L 288.8125 543.875 C 291.3125 544.75 293.1875 545.5 295.9375 545.5 C 301.4375 545.5 304.8125 542.875 307.6875 540.625 L 308.1875 539.625 L 308.1875 525.625 Z M 395.9375 586.75 C 395.9375 581.875 395.9375 561.625 378.4375 554.75 C 372.9375 552.625 366.4375 552.375 363.1875 552.375 C 341.4375 552.375 329.1875 564 329.1875 587 C 329.1875 595 330.4375 603.125 335.0625 609.875 C 338.3125 614.75 344.4375 621.5 362.3125 621.5 C 388.8125 621.5 395.9375 605.5 395.9375 586.75 M 374.3125 586.625 C 374.3125 596.875 372.9375 608.25 362.5625 608.25 C 359.3125 608.25 357.0625 606.75 355.5625 605.375 C 353.4375 603.25 351.0625 599 351.0625 586.875 C 351.0625 583.25 351.0625 575.25 353.5625 570.875 C 355.4375 567.5 358.6875 565.25 362.6875 565.25 C 366.1875 565.25 369.0625 567.125 370.6875 569.125 C 373.6875 572.75 374.3125 579.875 374.3125 586.625 Z M 519.4375 531.375 C 511.5625 531.75 509.4375 531.875 501.6875 531.75 L 501.0625 532.5 L 501.9375 549.375 L 502.4375 566.625 L 502.9375 587.25 C 499.3125 581.125 498.6875 580.125 492.3125 570.625 L 480.9375 554 C 471.5625 539.75 469.6875 537 466.5625 532 L 465.6875 531.375 C 455.8125 531.875 454.1875 531.875 445.0625 531.75 L 444.4375 532.5 C 445.0625 551.875 445.4375 566.25 445.4375 583 C 445.4375 595.25 445.1875 607.5 445.0625 619.625 L 445.6875 620.375 C 454.0625 620 456.6875 620 463.9375 620 L 464.5625 619.25 L 463.3125 591.875 L 462.9375 576.5 L 462.1875 559.75 C 468.0625 569.5 470.0625 572.75 478.5625 585.125 L 491.0625 603.5 L 502.1875 619.75 L 503.0625 620.375 C 510.6875 620 512.9375 620 519.5625 620 L 520.1875 619.375 C 520.0625 601.25 519.9375 589 519.9375 574 C 519.9375 560 520.0625 546.125 520.1875 532.125 Z M 595.4375 553.125 L 575.0625 554.125 L 574.1875 554.875 C 575.0625 569 575.0625 589 575.0625 591 C 575.0625 594.625 575.0625 596.625 574.9375 601.625 C 571.5625 603.875 568.9375 605.75 565.5625 605.75 C 556.5625 605.75 556.5625 596.25 556.5625 588.875 C 556.5625 585.75 556.5625 582.5 556.6875 579.375 L 556.9375 554.125 L 556.0625 553.125 L 535.4375 554.125 L 534.5625 554.875 C 535.3125 565.375 535.4375 568.875 535.4375 581.5 L 535.4375 590.25 C 535.3125 603.875 535.9375 609.625 540.4375 614.875 C 544.5625 619.5 550.5625 621.5 556.8125 621.5 C 565.6875 621.5 570.8125 617.5 575.3125 614 L 575.1875 619.625 L 576.0625 620.375 C 585.1875 620 587.9375 620 596.0625 620 L 596.8125 619.25 C 596.1875 610.375 595.9375 605.625 595.9375 589.375 C 595.9375 577.625 596.0625 565.875 596.3125 554.125 Z M 666.4375 601.5 C 661.6875 604 656.0625 606.875 646.9375 606.875 C 639.4375 606.875 634.3125 604.5 631.3125 600 C 629.4375 597.375 629.0625 594.875 628.5625 592.375 L 668.9375 591.625 L 669.6875 590.75 C 669.5625 584.625 669.4375 578.375 667.6875 572.125 C 663.3125 557.375 653.6875 554.375 649.4375 553.375 C 646.3125 552.5 643.4375 552.25 640.5625 552.25 C 620.9375 552.25 607.9375 565.125 607.9375 586.75 C 607.9375 592.625 608.9375 598.75 610.9375 603.125 C 618.1875 620 635.1875 621.5 644.1875 621.5 C 654.5625 621.5 659.0625 619.625 665.6875 617 L 666.4375 616 L 667.3125 601.875 L 666.4375 601.5 M 628.5625 579.125 C 628.9375 575.25 629.8125 570 634.5625 567 C 636.0625 566 637.8125 565.625 639.5625 565.625 C 643.6875 565.625 646.1875 567.75 647.5625 570 C 649.3125 572.75 649.4375 575.75 649.4375 578.625 Z M 715.6875 619 C 719.6875 606.5 722.0625 598.75 724.6875 590.875 C 728.0625 580.75 733.5625 564.5 737.0625 554.25 L 736.4375 553.375 L 718.9375 553.75 L 718.0625 554.625 C 716.3125 563 715.9375 564.75 713.4375 574.5 L 707.0625 599.125 L 703.9375 585.625 L 701.5625 576 C 698.4375 564.375 697.9375 562 696.1875 553.75 L 695.3125 553 C 685.4375 554.125 682.9375 554.25 673.4375 554.375 L 672.9375 555.375 C 689.5625 604.625 690.9375 609.25 693.6875 619.5 L 694.5625 620.375 C 702.6875 620 705.9375 619.875 714.9375 620 Z M 807.3125 586.75 C 807.3125 581.875 807.3125 561.625 789.8125 554.75 C 784.3125 552.625 777.8125 552.375 774.5625 552.375 C 752.8125 552.375 740.5625 564 740.5625 587 C 740.5625 595 741.8125 603.125 746.4375 609.875 C 749.6875 614.75 755.8125 621.5 773.6875 621.5 C 800.1875 621.5 807.3125 605.5 807.3125 586.75 M 785.6875 586.625 C 785.6875 596.875 784.3125 608.25 773.9375 608.25 C 770.6875 608.25 768.4375 606.75 766.9375 605.375 C 764.8125 603.25 762.4375 599 762.4375 586.875 C 762.4375 583.25 762.4375 575.25 764.9375 570.875 C 766.8125 567.5 770.0625 565.25 774.0625 565.25 C 777.5625 565.25 780.4375 567.125 782.0625 569.125 C 785.0625 572.75 785.6875 579.875 785.6875 586.625 Z M 811.6875 620 "/>
<path fill-rule="nonzero" fill="rgb(34.901961%, 14.901961%, 14.901961%)" fill-opacity="1" d="M 232.875 716.25 C 222.375 711.875 216.875 709.625 216.875 704 C 216.875 700.125 220.5 695.25 228.75 695.25 C 238.25 695.25 243.875 699.125 248.5 702.25 L 249.625 701.75 L 250.625 685.375 L 250 684.5 C 244.625 682.25 239 679.875 226.875 679.875 C 203.375 679.875 195.25 693.125 195.25 706.5 C 195.25 721.625 207 727.125 214 730.5 L 218.125 732.375 C 226.75 736 233.375 739.125 233.375 745.75 C 233.375 750.5 229.25 756.125 218.375 756.125 C 207 756.125 200.625 751.125 197 748.25 L 195.75 748.625 L 194.875 766.25 L 195.625 767.25 C 197 767.75 198.375 768.375 199.75 768.75 C 202.625 769.75 210 771.875 219.375 771.875 C 223.125 771.875 232.625 771.5 240.125 768 C 250.625 762.875 255.125 753.375 255.125 742.75 C 255.125 735.625 252.375 728 245.75 722.875 C 242.375 720.375 239.125 718.875 236.125 717.5 Z M 302 755.625 C 299.875 756.25 298.375 756.75 296.25 756.75 C 289.875 756.75 289.375 752.75 289.125 750.875 C 288.75 747.625 288.75 740.75 288.875 735.75 L 289.125 718.125 L 300.375 718.625 L 301.125 717.875 L 302.375 704.5 L 301.625 703.75 L 289.125 703.75 L 289.5 682.75 L 288.625 682 C 280.125 684.5 277.875 685.125 269 687.375 L 268.5 688.25 L 268.625 703.875 L 261.875 703.625 L 261.125 704.25 L 260 717.625 L 260.75 718.375 L 268.625 718.125 L 268.25 738 C 268.125 741.125 268 744.25 268 747.5 C 268 759 268.25 771.375 287.75 771.375 C 292.625 771.375 296.5 770.625 300.875 769.875 L 301.75 769 L 303 756.125 Z M 366.875 732.75 C 367 721.5 367 716.625 363.75 711.375 C 361.25 707.375 356.25 702.375 340.25 702.375 C 329.5 702.375 322.875 704.375 315.75 706.5 L 315 707.5 L 314.375 721.125 L 315.375 721.625 C 319.75 719.875 327.875 716.625 336.25 716.625 C 340.875 716.625 342.75 717.375 344.375 719 C 345.625 720.25 346 722.5 346 724.375 C 331 726.375 324 727.75 316.5 732.375 C 309.5 736.75 307.125 743.875 307.125 749.5 C 307.125 762.875 316.75 771.5 329 771.5 C 338.375 771.5 343.75 767 346.375 764.875 L 346.375 769.5 L 347.125 770.375 C 356.125 770 358.875 769.875 367 770 L 367.625 769.125 C 366.75 756.875 366.75 753.75 366.75 742 L 366.875 732.75 M 346.25 752.625 C 343.625 754.125 340.25 755.875 336.125 755.875 C 331.625 755.875 327.875 753.5 327.875 748.25 C 327.875 740 337.75 738.625 346.25 737.5 Z M 416.5 755.625 C 414.375 756.25 412.875 756.75 410.75 756.75 C 404.375 756.75 403.875 752.75 403.625 750.875 C 403.25 747.625 403.25 740.75 403.375 735.75 L 403.625 718.125 L 414.875 718.625 L 415.625 717.875 L 416.875 704.5 L 416.125 703.75 L 403.625 703.75 L 404 682.75 L 403.125 682 C 394.625 684.5 392.375 685.125 383.5 687.375 L 383 688.25 L 383.125 703.875 L 376.375 703.625 L 375.625 704.25 L 374.5 717.625 L 375.25 718.375 L 383.125 718.125 L 382.75 738 C 382.625 741.125 382.5 744.25 382.5 747.5 C 382.5 759 382.75 771.375 402.25 771.375 C 407.125 771.375 411 770.625 415.375 769.875 L 416.25 769 L 417.5 756.125 Z M 481.25 751.5 C 476.5 754 470.875 756.875 461.75 756.875 C 454.25 756.875 449.125 754.5 446.125 750 C 444.25 747.375 443.875 744.875 443.375 742.375 L 483.75 741.625 L 484.5 740.75 C 484.375 734.625 484.25 728.375 482.5 722.125 C 478.125 707.375 468.5 704.375 464.25 703.375 C 461.125 702.5 458.25 702.25 455.375 702.25 C 435.75 702.25 422.75 715.125 422.75 736.75 C 422.75 742.625 423.75 748.75 425.75 753.125 C 433 770 450 771.5 459 771.5 C 469.375 771.5 473.875 769.625 480.5 767 L 481.25 766 L 482.125 751.875 L 481.25 751.5 M 443.375 729.125 C 443.75 725.25 444.625 720 449.375 717 C 450.875 716 452.625 715.625 454.375 715.625 C 458.5 715.625 461 717.75 462.375 720 C 464.125 722.75 464.25 725.75 464.25 728.625 Z M 549.25 681.5 L 533.375 681.75 L 532.625 682.5 C 533.125 698.75 533.5 709.625 533.5 724 C 533.5 739.25 533.125 754.375 532.75 769.625 L 533.5 770.375 C 542.75 770 544.75 769.875 554.75 770 L 555.375 769.25 C 554.875 755.625 554.875 752.5 554.875 739.75 C 568.875 739.875 583.875 739.875 592.875 728.875 C 596.375 724.625 599.375 717.5 599.375 708.75 C 599.375 703.375 598.125 691.5 587.75 685.625 C 580.25 681.25 569.625 681.25 560.25 681.25 L 549.25 681.5 M 554.875 696.625 C 557.625 696.5 560.25 696.5 563 696.5 C 574 696.75 577 702.375 577 709.625 C 577 711.375 577 718.625 570.375 722.25 C 567 724.125 562.375 724.375 554.875 724.375 Z M 663.625 732.75 C 663.75 721.5 663.75 716.625 660.5 711.375 C 658 707.375 653 702.375 637 702.375 C 626.25 702.375 619.625 704.375 612.5 706.5 L 611.75 707.5 L 611.125 721.125 L 612.125 721.625 C 616.5 719.875 624.625 716.625 633 716.625 C 637.625 716.625 639.5 717.375 641.125 719 C 642.375 720.25 642.75 722.5 642.75 724.375 C 627.75 726.375 620.75 727.75 613.25 732.375 C 606.25 736.75 603.875 743.875 603.875 749.5 C 603.875 762.875 613.5 771.5 625.75 771.5 C 635.125 771.5 640.5 767 643.125 764.875 L 643.125 769.5 L 643.875 770.375 C 652.875 770 655.625 769.875 663.75 770 L 664.375 769.125 C 663.5 756.875 663.5 753.75 663.5 742 L 663.625 732.75 M 643 752.625 C 640.375 754.125 637 755.875 632.875 755.875 C 628.375 755.875 624.625 753.5 624.625 748.25 C 624.625 740 634.5 738.625 643 737.5 Z M 714.375 723.625 L 717.875 703.25 L 717.125 702.375 C 716.25 702.375 715.375 702.25 714.5 702.25 C 709.375 702.25 703.625 705.125 699.625 714.375 L 700 702.875 L 699 701.875 C 689.75 703.875 687.375 704.25 678.25 705.625 L 677.5 706.375 C 678.25 715.75 678.625 721.375 678.625 738.75 C 678.625 749 678.5 759.25 678.25 769.625 L 679 770.375 C 688.25 770 690.25 769.875 700.25 770 L 700.875 769.125 C 700.375 759 699.625 744.875 699.625 736.25 C 699.625 730.625 699.625 722.375 708.125 722.375 C 710.25 722.375 711.5 723.125 713.25 724.125 Z M 789.375 768.375 C 777.625 748.5 776.375 746.25 766.875 729.125 C 775.5 717.375 776.375 716.125 785.25 704.75 L 784.625 703.5 L 764.25 703.75 L 763 704.625 C 753.25 721.5 752 723.5 746.25 732.125 L 746.25 718.25 C 746.375 694.875 746.5 689.875 747.125 671 L 746.125 670.25 L 724.375 673.5 L 723.625 674.375 C 724.5 686.5 724.875 692.375 725.125 708.75 C 725.375 729 725.375 749.25 725.25 769.5 L 726.125 770.375 C 734.5 770 736.875 770 746.375 770 L 747.125 769.125 L 746.375 748 L 746.25 733.625 C 757.125 753.625 758.5 756.375 764.875 769.625 L 766 770.375 L 788.5 769.5 Z M 787.875 770 "/>
</svg>
