<?xml version="1.0" encoding="UTF-8"?>
<svg xmlns="http://www.w3.org/2000/svg" xmlns:xlink="http://www.w3.org/1999/xlink" width="975" height="1300" viewBox="0 0 975 1300">
<path fill-rule="nonzero" fill="rgb(34.901961%, 14.901961%, 14.901961%)" fill-opacity="1" d="M 178.5 531.375 C 165.5 531.75 163.375 531.75 149.5 531.75 L 148.75 532.5 L 143 552.75 L 138 570.875 L 132.125 592.625 L 126.625 570.25 L 123.125 556.125 L 116.875 532.125 L 116.25 531.375 C 102.875 531.75 100.625 531.75 86.625 531.75 L 85.875 532.5 C 84.625 569.875 84.125 579.5 81.375 619.625 L 82 620.375 C 90 620 92.375 619.875 99.625 620 L 100.375 619.25 L 100.75 595.375 L 101.5 571.125 L 102 547.5 L 107.5 569.625 L 112.25 587.375 L 120.625 619.625 L 121.375 620.375 C 129.125 620 131.25 619.875 140 620 L 140.75 619.25 L 148 592.625 L 153 574.375 L 160 548.125 L 160 570.5 L 160.25 589.625 L 160.25 619.625 L 160.875 620.375 C 169.5 620 172.875 619.875 182.5 620 L 183.125 619.25 C 182.375 605 181.5 590.625 181 576.25 C 180.625 568.375 180.375 560.5 180 552.625 C 179.375 541 179.25 539.5 179.25 532.125 Z M 260.875 586.75 C 260.875 581.875 260.875 561.625 243.375 554.75 C 237.875 552.625 231.375 552.375 228.125 552.375 C 206.375 552.375 194.125 564 194.125 587 C 194.125 595 195.375 603.125 200 609.875 C 203.25 614.75 209.375 621.5 227.25 621.5 C 253.75 621.5 260.875 605.5 260.875 586.75 M 239.25 586.625 C 239.25 596.875 237.875 608.25 227.5 608.25 C 224.25 608.25 222 606.75 220.5 605.375 C 218.375 603.25 216 599 216 586.875 C 216 583.25 216 575.25 218.5 570.875 C 220.375 567.5 223.625 565.25 227.625 565.25 C 231.125 565.25 234 567.125 235.625 569.125 C 238.625 572.75 239.25 579.875 239.25 586.625 Z M 334 619.125 C 333.375 608.125 333.375 604.625 333.125 592.375 L 333.125 582.625 C 333 570.625 332.875 564.875 329.75 559.75 C 325.875 553.25 318.75 552.25 314.25 552.25 C 306.625 552.25 300 556.25 294.25 559.625 L 294.5 552.75 L 293.25 551.875 C 283.625 553.875 281.5 554.25 272.125 555.5 L 271.375 556.375 C 272.375 567.25 273.125 575.125 273.125 595.5 C 273.125 603.5 273 611.5 272.875 619.5 L 273.625 620.25 C 282.625 619.875 284.5 619.875 294.5 619.875 L 295.25 619.125 C 294.5 599.875 294.375 595 294.25 572.625 C 296.875 570.875 299.875 568.75 303.875 568.75 C 310.75 568.75 311.375 576.125 311.75 580.625 C 312 584.75 312.125 601.875 312.125 606.625 C 312.125 610.875 312 615.25 312 619.5 L 312.75 620.25 C 321 620 323.125 619.875 333.125 619.875 Z M 383.25 605.625 C 381.125 606.25 379.625 606.75 377.5 606.75 C 371.125 606.75 370.625 602.75 370.375 600.875 C 370 597.625 370 590.75 370.125 585.75 L 370.375 568.125 L 381.625 568.625 L 382.375 567.875 L 383.625 554.5 L 382.875 553.75 L 370.375 553.75 L 370.75 532.75 L 369.875 532 C 361.375 534.5 359.125 535.125 350.25 537.375 L 349.75 538.25 L 349.875 553.875 L 343.125 553.625 L 342.375 554.25 L 341.25 567.625 L 342 568.375 L 349.875 568.125 L 349.5 588 C 349.375 591.125 349.25 594.25 349.25 597.5 C 349.25 609 349.5 621.375 369 621.375 C 373.875 621.375 377.75 620.625 382.125 619.875 L 383 619 L 384.25 606.125 Z M 448.125 582.75 C 448.25 571.5 448.25 566.625 445 561.375 C 442.5 557.375 437.5 552.375 421.5 552.375 C 410.75 552.375 404.125 554.375 397 556.5 L 396.25 557.5 L 395.625 571.125 L 396.625 571.625 C 401 569.875 409.125 566.625 417.5 566.625 C 422.125 566.625 424 567.375 425.625 569 C 426.875 570.25 427.25 572.5 427.25 574.375 C 412.25 576.375 405.25 577.75 397.75 582.375 C 390.75 586.75 388.375 593.875 388.375 599.5 C 388.375 612.875 398 621.5 410.25 621.5 C 419.625 621.5 425 617 427.625 614.875 L 427.625 619.5 L 428.375 620.375 C 437.375 620 440.125 619.875 448.25 620 L 448.875 619.125 C 448 606.875 448 603.75 448 592 L 448.125 582.75 M 427.5 602.625 C 424.875 604.125 421.5 605.875 417.375 605.875 C 412.875 605.875 409.125 603.5 409.125 598.25 C 409.125 590 419 588.625 427.5 587.5 Z M 498.875 573.625 L 502.375 553.25 L 501.625 552.375 C 500.75 552.375 499.875 552.25 499 552.25 C 493.875 552.25 488.125 555.125 484.125 564.375 L 484.5 552.875 L 483.5 551.875 C 474.25 553.875 471.875 554.25 462.75 555.625 L 462 556.375 C 462.75 565.75 463.125 571.375 463.125 588.75 C 463.125 599 463 609.25 462.75 619.625 L 463.5 620.375 C 472.75 620 474.75 619.875 484.75 620 L 485.375 619.125 C 484.875 609 484.125 594.875 484.125 586.25 C 484.125 580.625 484.125 572.375 492.625 572.375 C 494.75 572.375 496 573.125 497.75 574.125 Z M 565.25 582.75 C 565.375 571.5 565.375 566.625 562.125 561.375 C 559.625 557.375 554.625 552.375 538.625 552.375 C 527.875 552.375 521.25 554.375 514.125 556.5 L 513.375 557.5 L 512.75 571.125 L 513.75 571.625 C 518.125 569.875 526.25 566.625 534.625 566.625 C 539.25 566.625 541.125 567.375 542.75 569 C 544 570.25 544.375 572.5 544.375 574.375 C 529.375 576.375 522.375 577.75 514.875 582.375 C 507.875 586.75 505.5 593.875 505.5 599.5 C 505.5 612.875 515.125 621.5 527.375 621.5 C 536.75 621.5 542.125 617 544.75 614.875 L 544.75 619.5 L 545.5 620.375 C 554.5 620 557.25 619.875 565.375 620 L 566 619.125 C 565.125 606.875 565.125 603.75 565.125 592 L 565.25 582.75 M 544.625 602.625 C 542 604.125 538.625 605.875 534.5 605.875 C 530 605.875 526.25 603.5 526.25 598.25 C 526.25 590 536.125 588.625 544.625 587.5 Z M 652.5 566.25 C 642 561.875 636.5 559.625 636.5 554 C 636.5 550.125 640.125 545.25 648.375 545.25 C 657.875 545.25 663.5 549.125 668.125 552.25 L 669.25 551.75 L 670.25 535.375 L 669.625 534.5 C 664.25 532.25 658.625 529.875 646.5 529.875 C 623 529.875 614.875 543.125 614.875 556.5 C 614.875 571.625 626.625 577.125 633.625 580.5 L 637.75 582.375 C 646.375 586 653 589.125 653 595.75 C 653 600.5 648.875 606.125 638 606.125 C 626.625 606.125 620.25 601.125 616.625 598.25 L 615.375 598.625 L 614.5 616.25 L 615.25 617.25 C 616.625 617.75 618 618.375 619.375 618.75 C 622.25 619.75 629.625 621.875 639 621.875 C 642.75 621.875 652.25 621.5 659.75 618 C 670.25 612.875 674.75 603.375 674.75 592.75 C 674.75 585.625 672 578 665.375 572.875 C 662 570.375 658.75 568.875 655.75 567.5 Z M 721.625 605.625 C 719.5 606.25 718 606.75 715.875 606.75 C 709.5 606.75 709 602.75 708.75 600.875 C 708.375 597.625 708.375 590.75 708.5 585.75 L 708.75 568.125 L 720 568.625 L 720.75 567.875 L 722 554.5 L 721.25 553.75 L 708.75 553.75 L 709.125 532.75 L 708.25 532 C 699.75 534.5 697.5 535.125 688.625 537.375 L 688.125 538.25 L 688.25 553.875 L 681.5 553.625 L 680.75 554.25 L 679.625 567.625 L 680.375 568.375 L 688.25 568.125 L 687.875 588 C 687.75 591.125 687.625 594.25 687.625 597.5 C 687.625 609 687.875 621.375 707.375 621.375 C 712.25 621.375 716.125 620.625 720.5 619.875 L 721.375 619 L 722.625 606.125 Z M 786.5 582.75 C 786.625 571.5 786.625 566.625 783.375 561.375 C 780.875 557.375 775.875 552.375 759.875 552.375 C 749.125 552.375 742.5 554.375 735.375 556.5 L 734.625 557.5 L 734 571.125 L 735 571.625 C 739.375 569.875 747.5 566.625 755.875 566.625 C 760.5 566.625 762.375 567.375 764 569 C 765.25 570.25 765.625 572.5 765.625 574.375 C 750.625 576.375 743.625 577.75 736.125 582.375 C 729.125 586.75 726.75 593.875 726.75 599.5 C 726.75 612.875 736.375 621.5 748.625 621.5 C 758 621.5 763.375 617 766 614.875 L 766 619.5 L 766.75 620.375 C 775.75 620 778.5 619.875 786.625 620 L 787.25 619.125 C 786.375 606.875 786.375 603.75 786.375 592 L 786.5 582.75 M 765.875 602.625 C 763.25 604.125 759.875 605.875 755.75 605.875 C 751.25 605.875 747.5 603.5 747.5 598.25 C 747.5 590 757.375 588.625 765.875 587.5 Z M 836.125 605.625 C 834 606.25 832.5 606.75 830.375 606.75 C 824 606.75 823.5 602.75 823.25 600.875 C 822.875 597.625 822.875 590.75 823 585.75 L 823.25 568.125 L 834.5 568.625 L 835.25 567.875 L 836.5 554.5 L 835.75 553.75 L 823.25 553.75 L 823.625 532.75 L 822.75 532 C 814.25 534.5 812 535.125 803.125 537.375 L 802.625 538.25 L 802.75 553.875 L 796 553.625 L 795.25 554.25 L 794.125 567.625 L 794.875 568.375 L 802.75 568.125 L 802.375 588 C 802.25 591.125 802.125 594.25 802.125 597.5 C 802.125 609 802.375 621.375 821.875 621.375 C 826.75 621.375 830.625 620.625 835 619.875 L 835.875 619 L 837.125 606.125 Z M 900.875 601.5 C 896.125 604 890.5 606.875 881.375 606.875 C 873.875 606.875 868.75 604.5 865.75 600 C 863.875 597.375 863.5 594.875 863 592.375 L 903.375 591.625 L 904.125 590.75 C 904 584.625 903.875 578.375 902.125 572.125 C 897.75 557.375 888.125 554.375 883.875 553.375 C 880.75 552.5 877.875 552.25 875 552.25 C 855.375 552.25 842.375 565.125 842.375 586.75 C 842.375 592.625 843.375 598.75 845.375 603.125 C 852.625 620 869.625 621.5 878.625 621.5 C 889 621.5 893.5 619.625 900.125 617 L 900.875 616 L 901.75 601.875 L 900.875 601.5 M 863 579.125 C 863.375 575.25 864.25 570 869 567 C 870.5 566 872.25 565.625 874 565.625 C 878.125 565.625 880.625 567.75 882 570 C 883.75 572.75 883.875 575.75 883.875 578.625 Z M 908.125 620 "/>
<path fill-rule="nonzero" fill="rgb(34.901961%, 14.901961%, 14.901961%)" fill-opacity="1" d="M 346.25 770 C 357.875 770.25 372.25 770.5 381.625 764 C 389.875 758.125 392.125 749.875 392.125 742.875 C 392.125 734.875 388.75 727.5 381.625 724 C 379.25 722.75 376.5 722.25 373.875 721.75 C 378.125 720 383.125 717.75 386.375 711.125 C 387.75 708.25 388.375 705.25 388.375 702.375 C 388.375 698.375 387.375 692.875 383.375 688.375 C 378.125 682.75 370 681.25 357.75 681.25 C 353.5 681.25 345.875 681.375 341.625 681.5 L 324.125 681.75 L 323.375 682.5 C 323.875 694.5 324 699.125 324 716.375 C 324 734.125 323.875 751.75 323.625 769.5 L 324.5 770 L 346.25 770 M 345.375 732 C 354.875 731.75 360.375 731.75 364 733.875 C 367.625 736.125 369 740.125 369 744.125 C 369 749.75 365.875 753.25 361.25 754.875 C 357.5 756.125 350.75 756.125 345.375 756 L 345.375 732 M 345.375 695.25 C 348 695.25 351.5 695.125 353.625 695.125 C 360.375 695.125 366.5 697.5 366.5 705.625 C 366.5 712.25 361.625 715 360.125 715.75 C 357 717.125 350.375 717.125 345.375 717.125 Z M 459.25 751.5 C 454.5 754 448.875 756.875 439.75 756.875 C 432.25 756.875 427.125 754.5 424.125 750 C 422.25 747.375 421.875 744.875 421.375 742.375 L 461.75 741.625 L 462.5 740.75 C 462.375 734.625 462.25 728.375 460.5 722.125 C 456.125 707.375 446.5 704.375 442.25 703.375 C 439.125 702.5 436.25 702.25 433.375 702.25 C 413.75 702.25 400.75 715.125 400.75 736.75 C 400.75 742.625 401.75 748.75 403.75 753.125 C 411 770 428 771.5 437 771.5 C 447.375 771.5 451.875 769.625 458.5 767 L 459.25 766 L 460.125 751.875 L 459.25 751.5 M 421.375 729.125 C 421.75 725.25 422.625 720 427.375 717 C 428.875 716 430.625 715.625 432.375 715.625 C 436.5 715.625 439 717.75 440.375 720 C 442.125 722.75 442.25 725.75 442.25 728.625 Z M 529.625 732.75 C 529.75 721.5 529.75 716.625 526.5 711.375 C 524 707.375 519 702.375 503 702.375 C 492.25 702.375 485.625 704.375 478.5 706.5 L 477.75 707.5 L 477.125 721.125 L 478.125 721.625 C 482.5 719.875 490.625 716.625 499 716.625 C 503.625 716.625 505.5 717.375 507.125 719 C 508.375 720.25 508.75 722.5 508.75 724.375 C 493.75 726.375 486.75 727.75 479.25 732.375 C 472.25 736.75 469.875 743.875 469.875 749.5 C 469.875 762.875 479.5 771.5 491.75 771.5 C 501.125 771.5 506.5 767 509.125 764.875 L 509.125 769.5 L 509.875 770.375 C 518.875 770 521.625 769.875 529.75 770 L 530.375 769.125 C 529.5 756.875 529.5 753.75 529.5 742 L 529.625 732.75 M 509 752.625 C 506.375 754.125 503 755.875 498.875 755.875 C 494.375 755.875 490.625 753.5 490.625 748.25 C 490.625 740 500.5 738.625 509 737.5 Z M 593.125 752 C 589.75 754 586.5 756 580.125 756 C 566 756 563.125 744.25 563.125 736.75 C 563.125 727.625 567.125 717.125 579.25 717.125 C 584.75 717.125 587.75 719.125 591.5 721.625 L 592.75 721.25 C 593.25 714.625 593.375 712.875 594.375 706.25 L 593.75 705.5 C 588.25 703.75 583.5 702.25 576.25 702.25 C 546.875 702.25 541.125 724.5 541.125 737.25 C 541.125 751.625 548.625 771.125 576.75 771.125 C 583.375 771.125 587.625 769.875 592.875 768.375 L 593.625 767.625 L 594.125 752.625 Z M 665.375 769.125 C 664.875 758.875 664.75 755.375 664.5 742.375 L 664.5 733 C 664.375 721.125 664.25 714.25 660.625 709 C 657 703.875 651.75 702.25 646.25 702.25 C 637.125 702.25 630 706.625 625 709.625 L 625.375 671.125 L 624.625 670.25 L 603.25 673.625 L 602.625 674.375 C 603.75 686.5 604 691 604.25 707.125 C 604.5 717.25 604.625 727.375 604.625 737.5 C 604.625 749.875 604.375 757.25 604.125 769.5 L 604.75 770.375 C 614 769.875 615.875 769.875 626 769.875 L 626.75 769.125 C 625.875 750.375 625.75 744.75 625.625 722.625 C 628 721 631 718.875 635.25 718.875 C 642.125 718.875 642.625 726 643.125 731 C 643.375 734.875 643.5 752.625 643.5 757.25 C 643.5 761.375 643.375 765.375 643.375 769.5 L 644 770.375 C 653 769.875 655 769.875 664.625 769.875 Z M 672.125 770 "/>
</svg>
