<?xml version="1.0" encoding="UTF-8"?>
<svg xmlns="http://www.w3.org/2000/svg" xmlns:xlink="http://www.w3.org/1999/xlink" width="975" height="1300" viewBox="0 0 975 1300">
<path fill-rule="nonzero" fill="rgb(34.901961%, 14.901961%, 14.901961%)" fill-opacity="1" d="M 169.25 566.25 C 158.75 561.875 153.25 559.625 153.25 554 C 153.25 550.125 156.875 545.25 165.125 545.25 C 174.625 545.25 180.25 549.125 184.875 552.25 L 186 551.75 L 187 535.375 L 186.375 534.5 C 181 532.25 175.375 529.875 163.25 529.875 C 139.75 529.875 131.625 543.125 131.625 556.5 C 131.625 571.625 143.375 577.125 150.375 580.5 L 154.5 582.375 C 163.125 586 169.75 589.125 169.75 595.75 C 169.75 600.5 165.625 606.125 154.75 606.125 C 143.375 606.125 137 601.125 133.375 598.25 L 132.125 598.625 L 131.25 616.25 L 132 617.25 C 133.375 617.75 134.75 618.375 136.125 618.75 C 139 619.75 146.375 621.875 155.75 621.875 C 159.5 621.875 169 621.5 176.5 618 C 187 612.875 191.5 603.375 191.5 592.75 C 191.5 585.625 188.75 578 182.125 572.875 C 178.75 570.375 175.5 568.875 172.5 567.5 Z M 263.375 553.125 L 243 554.125 L 242.125 554.875 C 243 569 243 589 243 591 C 243 594.625 243 596.625 242.875 601.625 C 239.5 603.875 236.875 605.75 233.5 605.75 C 224.5 605.75 224.5 596.25 224.5 588.875 C 224.5 585.75 224.5 582.5 224.625 579.375 L 224.875 554.125 L 224 553.125 L 203.375 554.125 L 202.5 554.875 C 203.25 565.375 203.375 568.875 203.375 581.5 L 203.375 590.25 C 203.25 603.875 203.875 609.625 208.375 614.875 C 212.5 619.5 218.5 621.5 224.75 621.5 C 233.625 621.5 238.75 617.5 243.25 614 L 243.125 619.625 L 244 620.375 C 253.125 620 255.875 620 264 620 L 264.75 619.25 C 264.125 610.375 263.875 605.625 263.875 589.375 C 263.875 577.625 264 565.875 264.25 554.125 Z M 340.125 619.125 C 339.5 608.125 339.5 604.625 339.25 592.375 L 339.25 582.625 C 339.125 570.625 339 564.875 335.875 559.75 C 332 553.25 324.875 552.25 320.375 552.25 C 312.75 552.25 306.125 556.25 300.375 559.625 L 300.625 552.75 L 299.375 551.875 C 289.75 553.875 287.625 554.25 278.25 555.5 L 277.5 556.375 C 278.5 567.25 279.25 575.125 279.25 595.5 C 279.25 603.5 279.125 611.5 279 619.5 L 279.75 620.25 C 288.75 619.875 290.625 619.875 300.625 619.875 L 301.375 619.125 C 300.625 599.875 300.5 595 300.375 572.625 C 303 570.875 306 568.75 310 568.75 C 316.875 568.75 317.5 576.125 317.875 580.625 C 318.125 584.75 318.25 601.875 318.25 606.625 C 318.25 610.875 318.125 615.25 318.125 619.5 L 318.875 620.25 C 327.125 620 329.25 619.875 339.25 619.875 Z M 380.625 576.875 C 376.375 575.375 373 574 373 570.5 C 373 569 374 564.875 381.75 564.875 C 389.375 564.875 394.25 568.125 397.375 570.125 L 398.5 569.75 L 399.75 556.125 L 399.125 555.375 C 393.25 553.75 388.125 552.25 380 552.25 C 373.875 552.25 361.625 552.75 355.125 562.125 C 353.5 564.375 351.75 568.125 351.75 573.125 C 351.75 586.5 362.125 590.5 368 592.75 L 372.75 594.5 C 376.125 595.625 381.625 597.5 381.625 602 C 381.625 605.125 378.75 608.5 371.75 608.5 C 368.25 608.5 363.125 607.375 358.5 605 C 356.375 603.875 355.375 603 353.5 601.5 L 352.375 602 C 352.125 608.5 352 609.875 351.5 616.125 L 352.125 617.25 C 358.25 619.5 363.5 621.5 372.625 621.5 C 382.125 621.5 400.875 619.75 403.125 601.875 C 403.25 600.875 403.25 600 403.25 599.125 C 403.25 585.375 393.625 581.75 386.75 579.125 Z M 469.75 601.5 C 465 604 459.375 606.875 450.25 606.875 C 442.75 606.875 437.625 604.5 434.625 600 C 432.75 597.375 432.375 594.875 431.875 592.375 L 472.25 591.625 L 473 590.75 C 472.875 584.625 472.75 578.375 471 572.125 C 466.625 557.375 457 554.375 452.75 553.375 C 449.625 552.5 446.75 552.25 443.875 552.25 C 424.25 552.25 411.25 565.125 411.25 586.75 C 411.25 592.625 412.25 598.75 414.25 603.125 C 421.5 620 438.5 621.5 447.5 621.5 C 457.875 621.5 462.375 619.625 469 617 L 469.75 616 L 470.625 601.875 L 469.75 601.5 M 431.875 579.125 C 432.25 575.25 433.125 570 437.875 567 C 439.375 566 441.125 565.625 442.875 565.625 C 447 565.625 449.5 567.75 450.875 570 C 452.625 572.75 452.75 575.75 452.75 578.625 Z M 519.5 605.625 C 517.375 606.25 515.875 606.75 513.75 606.75 C 507.375 606.75 506.875 602.75 506.625 600.875 C 506.25 597.625 506.25 590.75 506.375 585.75 L 506.625 568.125 L 517.875 568.625 L 518.625 567.875 L 519.875 554.5 L 519.125 553.75 L 506.625 553.75 L 507 532.75 L 506.125 532 C 497.625 534.5 495.375 535.125 486.5 537.375 L 486 538.25 L 486.125 553.875 L 479.375 553.625 L 478.625 554.25 L 477.5 567.625 L 478.25 568.375 L 486.125 568.125 L 485.75 588 C 485.625 591.125 485.5 594.25 485.5 597.5 C 485.5 609 485.75 621.375 505.25 621.375 C 510.125 621.375 514 620.625 518.375 619.875 L 519.25 619 L 520.5 606.125 Z M 601.375 566.25 C 590.875 561.875 585.375 559.625 585.375 554 C 585.375 550.125 589 545.25 597.25 545.25 C 606.75 545.25 612.375 549.125 617 552.25 L 618.125 551.75 L 619.125 535.375 L 618.5 534.5 C 613.125 532.25 607.5 529.875 595.375 529.875 C 571.875 529.875 563.75 543.125 563.75 556.5 C 563.75 571.625 575.5 577.125 582.5 580.5 L 586.625 582.375 C 595.25 586 601.875 589.125 601.875 595.75 C 601.875 600.5 597.75 606.125 586.875 606.125 C 575.5 606.125 569.125 601.125 565.5 598.25 L 564.25 598.625 L 563.375 616.25 L 564.125 617.25 C 565.5 617.75 566.875 618.375 568.25 618.75 C 571.125 619.75 578.5 621.875 587.875 621.875 C 591.625 621.875 601.125 621.5 608.625 618 C 619.125 612.875 623.625 603.375 623.625 592.75 C 623.625 585.625 620.875 578 614.25 572.875 C 610.875 570.375 607.625 568.875 604.625 567.5 Z M 670.5 605.625 C 668.375 606.25 666.875 606.75 664.75 606.75 C 658.375 606.75 657.875 602.75 657.625 600.875 C 657.25 597.625 657.25 590.75 657.375 585.75 L 657.625 568.125 L 668.875 568.625 L 669.625 567.875 L 670.875 554.5 L 670.125 553.75 L 657.625 553.75 L 658 532.75 L 657.125 532 C 648.625 534.5 646.375 535.125 637.5 537.375 L 637 538.25 L 637.125 553.875 L 630.375 553.625 L 629.625 554.25 L 628.5 567.625 L 629.25 568.375 L 637.125 568.125 L 636.75 588 C 636.625 591.125 636.5 594.25 636.5 597.5 C 636.5 609 636.75 621.375 656.25 621.375 C 661.125 621.375 665 620.625 669.375 619.875 L 670.25 619 L 671.5 606.125 Z M 735.375 582.75 C 735.5 571.5 735.5 566.625 732.25 561.375 C 729.75 557.375 724.75 552.375 708.75 552.375 C 698 552.375 691.375 554.375 684.25 556.5 L 683.5 557.5 L 682.875 571.125 L 683.875 571.625 C 688.25 569.875 696.375 566.625 704.75 566.625 C 709.375 566.625 711.25 567.375 712.875 569 C 714.125 570.25 714.5 572.5 714.5 574.375 C 699.5 576.375 692.5 577.75 685 582.375 C 678 586.75 675.625 593.875 675.625 599.5 C 675.625 612.875 685.25 621.5 697.5 621.5 C 706.875 621.5 712.25 617 714.875 614.875 L 714.875 619.5 L 715.625 620.375 C 724.625 620 727.375 619.875 735.5 620 L 736.125 619.125 C 735.25 606.875 735.25 603.75 735.25 592 L 735.375 582.75 M 714.75 602.625 C 712.125 604.125 708.75 605.875 704.625 605.875 C 700.125 605.875 696.375 603.5 696.375 598.25 C 696.375 590 706.25 588.625 714.75 587.5 Z M 785 605.625 C 782.875 606.25 781.375 606.75 779.25 606.75 C 772.875 606.75 772.375 602.75 772.125 600.875 C 771.75 597.625 771.75 590.75 771.875 585.75 L 772.125 568.125 L 783.375 568.625 L 784.125 567.875 L 785.375 554.5 L 784.625 553.75 L 772.125 553.75 L 772.5 532.75 L 771.625 532 C 763.125 534.5 760.875 535.125 752 537.375 L 751.5 538.25 L 751.625 553.875 L 744.875 553.625 L 744.125 554.25 L 743 567.625 L 743.75 568.375 L 751.625 568.125 L 751.25 588 C 751.125 591.125 751 594.25 751 597.5 C 751 609 751.25 621.375 770.75 621.375 C 775.625 621.375 779.5 620.625 783.875 619.875 L 784.75 619 L 786 606.125 Z M 849.75 601.5 C 845 604 839.375 606.875 830.25 606.875 C 822.75 606.875 817.625 604.5 814.625 600 C 812.75 597.375 812.375 594.875 811.875 592.375 L 852.25 591.625 L 853 590.75 C 852.875 584.625 852.75 578.375 851 572.125 C 846.625 557.375 837 554.375 832.75 553.375 C 829.625 552.5 826.75 552.25 823.875 552.25 C 804.25 552.25 791.25 565.125 791.25 586.75 C 791.25 592.625 792.25 598.75 794.25 603.125 C 801.5 620 818.5 621.5 827.5 621.5 C 837.875 621.5 842.375 619.625 849 617 L 849.75 616 L 850.625 601.875 L 849.75 601.5 M 811.875 579.125 C 812.25 575.25 813.125 570 817.875 567 C 819.375 566 821.125 565.625 822.875 565.625 C 827 565.625 829.5 567.75 830.875 570 C 832.625 572.75 832.75 575.75 832.75 578.625 Z M 857 620 "/>
<path fill-rule="nonzero" fill="rgb(34.901961%, 14.901961%, 14.901961%)" fill-opacity="1" d="M 346.25 770 C 357.875 770.25 372.25 770.5 381.625 764 C 389.875 758.125 392.125 749.875 392.125 742.875 C 392.125 734.875 388.75 727.5 381.625 724 C 379.25 722.75 376.5 722.25 373.875 721.75 C 378.125 720 383.125 717.75 386.375 711.125 C 387.75 708.25 388.375 705.25 388.375 702.375 C 388.375 698.375 387.375 692.875 383.375 688.375 C 378.125 682.75 370 681.25 357.75 681.25 C 353.5 681.25 345.875 681.375 341.625 681.5 L 324.125 681.75 L 323.375 682.5 C 323.875 694.5 324 699.125 324 716.375 C 324 734.125 323.875 751.75 323.625 769.5 L 324.5 770 L 346.25 770 M 345.375 732 C 354.875 731.75 360.375 731.75 364 733.875 C 367.625 736.125 369 740.125 369 744.125 C 369 749.75 365.875 753.25 361.25 754.875 C 357.5 756.125 350.75 756.125 345.375 756 L 345.375 732 M 345.375 695.25 C 348 695.25 351.5 695.125 353.625 695.125 C 360.375 695.125 366.5 697.5 366.5 705.625 C 366.5 712.25 361.625 715 360.125 715.75 C 357 717.125 350.375 717.125 345.375 717.125 Z M 459.25 751.5 C 454.5 754 448.875 756.875 439.75 756.875 C 432.25 756.875 427.125 754.5 424.125 750 C 422.25 747.375 421.875 744.875 421.375 742.375 L 461.75 741.625 L 462.5 740.75 C 462.375 734.625 462.25 728.375 460.5 722.125 C 456.125 707.375 446.5 704.375 442.25 703.375 C 439.125 702.5 436.25 702.25 433.375 702.25 C 413.75 702.25 400.75 715.125 400.75 736.75 C 400.75 742.625 401.75 748.75 403.75 753.125 C 411 770 428 771.5 437 771.5 C 447.375 771.5 451.875 769.625 458.5 767 L 459.25 766 L 460.125 751.875 L 459.25 751.5 M 421.375 729.125 C 421.75 725.25 422.625 720 427.375 717 C 428.875 716 430.625 715.625 432.375 715.625 C 436.5 715.625 439 717.75 440.375 720 C 442.125 722.75 442.25 725.75 442.25 728.625 Z M 529.625 732.75 C 529.75 721.5 529.75 716.625 526.5 711.375 C 524 707.375 519 702.375 503 702.375 C 492.25 702.375 485.625 704.375 478.5 706.5 L 477.75 707.5 L 477.125 721.125 L 478.125 721.625 C 482.5 719.875 490.625 716.625 499 716.625 C 503.625 716.625 505.5 717.375 507.125 719 C 508.375 720.25 508.75 722.5 508.75 724.375 C 493.75 726.375 486.75 727.75 479.25 732.375 C 472.25 736.75 469.875 743.875 469.875 749.5 C 469.875 762.875 479.5 771.5 491.75 771.5 C 501.125 771.5 506.5 767 509.125 764.875 L 509.125 769.5 L 509.875 770.375 C 518.875 770 521.625 769.875 529.75 770 L 530.375 769.125 C 529.5 756.875 529.5 753.75 529.5 742 L 529.625 732.75 M 509 752.625 C 506.375 754.125 503 755.875 498.875 755.875 C 494.375 755.875 490.625 753.5 490.625 748.25 C 490.625 740 500.5 738.625 509 737.5 Z M 593.125 752 C 589.75 754 586.5 756 580.125 756 C 566 756 563.125 744.25 563.125 736.75 C 563.125 727.625 567.125 717.125 579.25 717.125 C 584.75 717.125 587.75 719.125 591.5 721.625 L 592.75 721.25 C 593.25 714.625 593.375 712.875 594.375 706.25 L 593.75 705.5 C 588.25 703.75 583.5 702.25 576.25 702.25 C 546.875 702.25 541.125 724.5 541.125 737.25 C 541.125 751.625 548.625 771.125 576.75 771.125 C 583.375 771.125 587.625 769.875 592.875 768.375 L 593.625 767.625 L 594.125 752.625 Z M 665.375 769.125 C 664.875 758.875 664.75 755.375 664.5 742.375 L 664.5 733 C 664.375 721.125 664.25 714.25 660.625 709 C 657 703.875 651.75 702.25 646.25 702.25 C 637.125 702.25 630 706.625 625 709.625 L 625.375 671.125 L 624.625 670.25 L 603.25 673.625 L 602.625 674.375 C 603.75 686.5 604 691 604.25 707.125 C 604.5 717.25 604.625 727.375 604.625 737.5 C 604.625 749.875 604.375 757.25 604.125 769.5 L 604.75 770.375 C 614 769.875 615.875 769.875 626 769.875 L 626.75 769.125 C 625.875 750.375 625.75 744.75 625.625 722.625 C 628 721 631 718.875 635.25 718.875 C 642.125 718.875 642.625 726 643.125 731 C 643.375 734.875 643.5 752.625 643.5 757.25 C 643.5 761.375 643.375 765.375 643.375 769.5 L 644 770.375 C 653 769.875 655 769.875 664.625 769.875 Z M 672.125 770 "/>
</svg>
