<?xml version="1.0" encoding="UTF-8"?>
<svg xmlns="http://www.w3.org/2000/svg" xmlns:xlink="http://www.w3.org/1999/xlink" width="975" height="1300" viewBox="0 0 975 1300">
<path fill-rule="nonzero" fill="rgb(34.901961%, 14.901961%, 14.901961%)" fill-opacity="1" d="M 286.625 381.375 C 273.625 381.75 271.5 381.75 257.625 381.75 L 256.875 382.5 L 251.125 402.75 L 246.125 420.875 L 240.25 442.625 L 234.75 420.25 L 231.25 406.125 L 225 382.125 L 224.375 381.375 C 211 381.75 208.75 381.75 194.75 381.75 L 194 382.5 C 192.75 419.875 192.25 429.5 189.5 469.625 L 190.125 470.375 C 198.125 470 200.5 469.875 207.75 470 L 208.5 469.25 L 208.875 445.375 L 209.625 421.125 L 210.125 397.5 L 215.625 419.625 L 220.375 437.375 L 228.75 469.625 L 229.5 470.375 C 237.25 470 239.375 469.875 248.125 470 L 248.875 469.25 L 256.125 442.625 L 261.125 424.375 L 268.125 398.125 L 268.125 420.5 L 268.375 439.625 L 268.375 469.625 L 269 470.375 C 277.625 470 281 469.875 290.625 470 L 291.25 469.25 C 290.5 455 289.625 440.625 289.125 426.25 C 288.75 418.375 288.5 410.5 288.125 402.625 C 287.5 391 287.375 389.5 287.375 382.125 Z M 354.25 452 C 350.875 454 347.625 456 341.25 456 C 327.125 456 324.25 444.25 324.25 436.75 C 324.25 427.625 328.25 417.125 340.375 417.125 C 345.875 417.125 348.875 419.125 352.625 421.625 L 353.875 421.25 C 354.375 414.625 354.5 412.875 355.5 406.25 L 354.875 405.5 C 349.375 403.75 344.625 402.25 337.375 402.25 C 308 402.25 302.25 424.5 302.25 437.25 C 302.25 451.625 309.75 471.125 337.875 471.125 C 344.5 471.125 348.75 469.875 354 468.375 L 354.75 467.625 L 355.25 452.625 Z M 430.125 447.625 C 427.25 449.875 420.875 454.625 410.5 454.625 C 396.25 454.625 386.25 444 386.25 426.25 C 386.25 415.5 390 396.625 410.375 396.625 C 419.75 396.625 424.875 400.25 428 402.625 L 429.125 402.375 L 430.25 385.125 L 429.75 384.5 C 425.25 382.75 417.625 379.875 406.625 379.875 C 374.25 379.875 363 404.875 363 426.75 C 363 450.75 377.625 471.875 408.125 471.875 C 418.625 471.875 425.5 469.125 429.5 467.5 L 430.125 466.75 L 431 448.125 Z M 504.375 436.75 C 504.375 431.875 504.375 411.625 486.875 404.75 C 481.375 402.625 474.875 402.375 471.625 402.375 C 449.875 402.375 437.625 414 437.625 437 C 437.625 445 438.875 453.125 443.5 459.875 C 446.75 464.75 452.875 471.5 470.75 471.5 C 497.25 471.5 504.375 455.5 504.375 436.75 M 482.75 436.625 C 482.75 446.875 481.375 458.25 471 458.25 C 467.75 458.25 465.5 456.75 464 455.375 C 461.875 453.25 459.5 449 459.5 436.875 C 459.5 433.25 459.5 425.25 462 420.875 C 463.875 417.5 467.125 415.25 471.125 415.25 C 474.625 415.25 477.5 417.125 479.125 419.125 C 482.125 422.75 482.75 429.875 482.75 436.625 Z M 577.5 469.125 C 576.875 458.125 576.875 454.625 576.625 442.375 L 576.625 432.625 C 576.5 420.625 576.375 414.875 573.25 409.75 C 569.375 403.25 562.25 402.25 557.75 402.25 C 550.125 402.25 543.5 406.25 537.75 409.625 L 538 402.75 L 536.75 401.875 C 527.125 403.875 525 404.25 515.625 405.5 L 514.875 406.375 C 515.875 417.25 516.625 425.125 516.625 445.5 C 516.625 453.5 516.5 461.5 516.375 469.5 L 517.125 470.25 C 526.125 469.875 528 469.875 538 469.875 L 538.75 469.125 C 538 449.875 537.875 445 537.75 422.625 C 540.375 420.875 543.375 418.75 547.375 418.75 C 554.25 418.75 554.875 426.125 555.25 430.625 C 555.5 434.75 555.625 451.875 555.625 456.625 C 555.625 460.875 555.5 465.25 555.5 469.5 L 556.25 470.25 C 564.5 470 566.625 469.875 576.625 469.875 Z M 653 469.125 C 652.375 458.125 652.375 454.625 652.125 442.375 L 652.125 432.625 C 652 420.625 651.875 414.875 648.75 409.75 C 644.875 403.25 637.75 402.25 633.25 402.25 C 625.625 402.25 619 406.25 613.25 409.625 L 613.5 402.75 L 612.25 401.875 C 602.625 403.875 600.5 404.25 591.125 405.5 L 590.375 406.375 C 591.375 417.25 592.125 425.125 592.125 445.5 C 592.125 453.5 592 461.5 591.875 469.5 L 592.625 470.25 C 601.625 469.875 603.5 469.875 613.5 469.875 L 614.25 469.125 C 613.5 449.875 613.375 445 613.25 422.625 C 615.875 420.875 618.875 418.75 622.875 418.75 C 629.75 418.75 630.375 426.125 630.75 430.625 C 631 434.75 631.125 451.875 631.125 456.625 C 631.125 460.875 631 465.25 631 469.5 L 631.75 470.25 C 640 470 642.125 469.875 652.125 469.875 Z M 722.75 451.5 C 718 454 712.375 456.875 703.25 456.875 C 695.75 456.875 690.625 454.5 687.625 450 C 685.75 447.375 685.375 444.875 684.875 442.375 L 725.25 441.625 L 726 440.75 C 725.875 434.625 725.75 428.375 724 422.125 C 719.625 407.375 710 404.375 705.75 403.375 C 702.625 402.5 699.75 402.25 696.875 402.25 C 677.25 402.25 664.25 415.125 664.25 436.75 C 664.25 442.625 665.25 448.75 667.25 453.125 C 674.5 470 691.5 471.5 700.5 471.5 C 710.875 471.5 715.375 469.625 722 467 L 722.75 466 L 723.625 451.875 L 722.75 451.5 M 684.875 429.125 C 685.25 425.25 686.125 420 690.875 417 C 692.375 416 694.125 415.625 695.875 415.625 C 700 415.625 702.5 417.75 703.875 420 C 705.625 422.75 705.75 425.75 705.75 428.625 Z M 759.5 469.125 C 758.875 454.75 758.25 441.625 758.25 402.125 C 758.25 390.25 758.375 384.625 758.875 371.125 L 758 370.25 L 736.625 373.625 L 736.125 374.375 C 737.375 389.625 737.5 393.75 737.75 414 C 737.875 421.375 737.875 428.75 737.875 436.125 C 737.875 449.625 737.625 457.125 737.125 469.5 L 737.875 470.375 C 746.25 470 749.625 469.875 758.75 470 Z M 796 469.125 C 795.375 454.75 794.75 441.625 794.75 402.125 C 794.75 390.25 794.875 384.625 795.375 371.125 L 794.5 370.25 L 773.125 373.625 L 772.625 374.375 C 773.875 389.625 774 393.75 774.25 414 C 774.375 421.375 774.375 428.75 774.375 436.125 C 774.375 449.625 774.125 457.125 773.625 469.5 L 774.375 470.375 C 782.75 470 786.125 469.875 795.25 470 Z M 803 470 "/>
<path fill-rule="nonzero" fill="rgb(34.901961%, 14.901961%, 14.901961%)" fill-opacity="1" d="M 385.3125 566.25 C 374.8125 561.875 369.3125 559.625 369.3125 554 C 369.3125 550.125 372.9375 545.25 381.1875 545.25 C 390.6875 545.25 396.3125 549.125 400.9375 552.25 L 402.0625 551.75 L 403.0625 535.375 L 402.4375 534.5 C 397.0625 532.25 391.4375 529.875 379.3125 529.875 C 355.8125 529.875 347.6875 543.125 347.6875 556.5 C 347.6875 571.625 359.4375 577.125 366.4375 580.5 L 370.5625 582.375 C 379.1875 586 385.8125 589.125 385.8125 595.75 C 385.8125 600.5 381.6875 606.125 370.8125 606.125 C 359.4375 606.125 353.0625 601.125 349.4375 598.25 L 348.1875 598.625 L 347.3125 616.25 L 348.0625 617.25 C 349.4375 617.75 350.8125 618.375 352.1875 618.75 C 355.0625 619.75 362.4375 621.875 371.8125 621.875 C 375.5625 621.875 385.0625 621.5 392.5625 618 C 403.0625 612.875 407.5625 603.375 407.5625 592.75 C 407.5625 585.625 404.8125 578 398.1875 572.875 C 394.8125 570.375 391.5625 568.875 388.5625 567.5 Z M 454.4375 605.625 C 452.3125 606.25 450.8125 606.75 448.6875 606.75 C 442.3125 606.75 441.8125 602.75 441.5625 600.875 C 441.1875 597.625 441.1875 590.75 441.3125 585.75 L 441.5625 568.125 L 452.8125 568.625 L 453.5625 567.875 L 454.8125 554.5 L 454.0625 553.75 L 441.5625 553.75 L 441.9375 532.75 L 441.0625 532 C 432.5625 534.5 430.3125 535.125 421.4375 537.375 L 420.9375 538.25 L 421.0625 553.875 L 414.3125 553.625 L 413.5625 554.25 L 412.4375 567.625 L 413.1875 568.375 L 421.0625 568.125 L 420.6875 588 C 420.5625 591.125 420.4375 594.25 420.4375 597.5 C 420.4375 609 420.6875 621.375 440.1875 621.375 C 445.0625 621.375 448.9375 620.625 453.3125 619.875 L 454.1875 619 L 455.4375 606.125 Z M 519.3125 582.75 C 519.4375 571.5 519.4375 566.625 516.1875 561.375 C 513.6875 557.375 508.6875 552.375 492.6875 552.375 C 481.9375 552.375 475.3125 554.375 468.1875 556.5 L 467.4375 557.5 L 466.8125 571.125 L 467.8125 571.625 C 472.1875 569.875 480.3125 566.625 488.6875 566.625 C 493.3125 566.625 495.1875 567.375 496.8125 569 C 498.0625 570.25 498.4375 572.5 498.4375 574.375 C 483.4375 576.375 476.4375 577.75 468.9375 582.375 C 461.9375 586.75 459.5625 593.875 459.5625 599.5 C 459.5625 612.875 469.1875 621.5 481.4375 621.5 C 490.8125 621.5 496.1875 617 498.8125 614.875 L 498.8125 619.5 L 499.5625 620.375 C 508.5625 620 511.3125 619.875 519.4375 620 L 520.0625 619.125 C 519.1875 606.875 519.1875 603.75 519.1875 592 L 519.3125 582.75 M 498.6875 602.625 C 496.0625 604.125 492.6875 605.875 488.5625 605.875 C 484.0625 605.875 480.3125 603.5 480.3125 598.25 C 480.3125 590 490.1875 588.625 498.6875 587.5 Z M 568.9375 605.625 C 566.8125 606.25 565.3125 606.75 563.1875 606.75 C 556.8125 606.75 556.3125 602.75 556.0625 600.875 C 555.6875 597.625 555.6875 590.75 555.8125 585.75 L 556.0625 568.125 L 567.3125 568.625 L 568.0625 567.875 L 569.3125 554.5 L 568.5625 553.75 L 556.0625 553.75 L 556.4375 532.75 L 555.5625 532 C 547.0625 534.5 544.8125 535.125 535.9375 537.375 L 535.4375 538.25 L 535.5625 553.875 L 528.8125 553.625 L 528.0625 554.25 L 526.9375 567.625 L 527.6875 568.375 L 535.5625 568.125 L 535.1875 588 C 535.0625 591.125 534.9375 594.25 534.9375 597.5 C 534.9375 609 535.1875 621.375 554.6875 621.375 C 559.5625 621.375 563.4375 620.625 567.8125 619.875 L 568.6875 619 L 569.9375 606.125 Z M 633.6875 601.5 C 628.9375 604 623.3125 606.875 614.1875 606.875 C 606.6875 606.875 601.5625 604.5 598.5625 600 C 596.6875 597.375 596.3125 594.875 595.8125 592.375 L 636.1875 591.625 L 636.9375 590.75 C 636.8125 584.625 636.6875 578.375 634.9375 572.125 C 630.5625 557.375 620.9375 554.375 616.6875 553.375 C 613.5625 552.5 610.6875 552.25 607.8125 552.25 C 588.1875 552.25 575.1875 565.125 575.1875 586.75 C 575.1875 592.625 576.1875 598.75 578.1875 603.125 C 585.4375 620 602.4375 621.5 611.4375 621.5 C 621.8125 621.5 626.3125 619.625 632.9375 617 L 633.6875 616 L 634.5625 601.875 L 633.6875 601.5 M 595.8125 579.125 C 596.1875 575.25 597.0625 570 601.8125 567 C 603.3125 566 605.0625 565.625 606.8125 565.625 C 610.9375 565.625 613.4375 567.75 614.8125 570 C 616.5625 572.75 616.6875 575.75 616.6875 578.625 Z M 640.9375 620 "/>
<path fill-rule="nonzero" fill="rgb(34.901961%, 14.901961%, 14.901961%)" fill-opacity="1" d="M 215.6875 735.625 C 224.0625 749.875 225.9375 753.625 233.9375 770 L 234.9375 770.625 C 238.8125 770.375 242.5625 770.125 246.4375 770 C 250.3125 769.875 254.3125 769.75 258.1875 769.75 L 258.9375 768.25 C 254.1875 762.125 252.8125 760.25 243.8125 745.875 C 239.8125 739.5 237.8125 736.125 234.6875 730.625 C 240.3125 728.125 251.6875 722.875 251.6875 707 C 251.6875 701.5 250.1875 690.125 239.9375 684.75 C 233.4375 681.375 226.6875 681.25 212.0625 681.5 L 203.3125 681.625 L 188.0625 681.625 L 187.4375 682.375 C 187.9375 695 188.4375 708 188.4375 742 C 188.4375 753.625 188.3125 759.25 187.9375 769.625 L 188.6875 770.375 C 197.8125 770 199.8125 769.875 210.0625 770 L 210.8125 769.25 C 209.8125 754.75 209.6875 750.75 209.5625 735.875 L 215.6875 735.625 M 209.8125 696.75 C 211.5625 696.625 213.3125 696.625 215.0625 696.625 C 219.9375 696.625 229.5625 696.625 229.5625 707.625 C 229.5625 711.125 228.6875 715.75 224.0625 718.625 C 220.5625 720.75 216.0625 721 209.8125 721.125 Z M 321.0625 751.5 C 316.3125 754 310.6875 756.875 301.5625 756.875 C 294.0625 756.875 288.9375 754.5 285.9375 750 C 284.0625 747.375 283.6875 744.875 283.1875 742.375 L 323.5625 741.625 L 324.3125 740.75 C 324.1875 734.625 324.0625 728.375 322.3125 722.125 C 317.9375 707.375 308.3125 704.375 304.0625 703.375 C 300.9375 702.5 298.0625 702.25 295.1875 702.25 C 275.5625 702.25 262.5625 715.125 262.5625 736.75 C 262.5625 742.625 263.5625 748.75 265.5625 753.125 C 272.8125 770 289.8125 771.5 298.8125 771.5 C 309.1875 771.5 313.6875 769.625 320.3125 767 L 321.0625 766 L 321.9375 751.875 L 321.0625 751.5 M 283.1875 729.125 C 283.5625 725.25 284.4375 720 289.1875 717 C 290.6875 716 292.4375 715.625 294.1875 715.625 C 298.3125 715.625 300.8125 717.75 302.1875 720 C 303.9375 722.75 304.0625 725.75 304.0625 728.625 Z M 384.6875 752 C 381.3125 754 378.0625 756 371.6875 756 C 357.5625 756 354.6875 744.25 354.6875 736.75 C 354.6875 727.625 358.6875 717.125 370.8125 717.125 C 376.3125 717.125 379.3125 719.125 383.0625 721.625 L 384.3125 721.25 C 384.8125 714.625 384.9375 712.875 385.9375 706.25 L 385.3125 705.5 C 379.8125 703.75 375.0625 702.25 367.8125 702.25 C 338.4375 702.25 332.6875 724.5 332.6875 737.25 C 332.6875 751.625 340.1875 771.125 368.3125 771.125 C 374.9375 771.125 379.1875 769.875 384.4375 768.375 L 385.1875 767.625 L 385.6875 752.625 Z M 431.8125 723.625 L 435.3125 703.25 L 434.5625 702.375 C 433.6875 702.375 432.8125 702.25 431.9375 702.25 C 426.8125 702.25 421.0625 705.125 417.0625 714.375 L 417.4375 702.875 L 416.4375 701.875 C 407.1875 703.875 404.8125 704.25 395.6875 705.625 L 394.9375 706.375 C 395.6875 715.75 396.0625 721.375 396.0625 738.75 C 396.0625 749 395.9375 759.25 395.6875 769.625 L 396.4375 770.375 C 405.6875 770 407.6875 769.875 417.6875 770 L 418.3125 769.125 C 417.8125 759 417.0625 744.875 417.0625 736.25 C 417.0625 730.625 417.0625 722.375 425.5625 722.375 C 427.6875 722.375 428.9375 723.125 430.6875 724.125 Z M 498.0625 751.5 C 493.3125 754 487.6875 756.875 478.5625 756.875 C 471.0625 756.875 465.9375 754.5 462.9375 750 C 461.0625 747.375 460.6875 744.875 460.1875 742.375 L 500.5625 741.625 L 501.3125 740.75 C 501.1875 734.625 501.0625 728.375 499.3125 722.125 C 494.9375 707.375 485.3125 704.375 481.0625 703.375 C 477.9375 702.5 475.0625 702.25 472.1875 702.25 C 452.5625 702.25 439.5625 715.125 439.5625 736.75 C 439.5625 742.625 440.5625 748.75 442.5625 753.125 C 449.8125 770 466.8125 771.5 475.8125 771.5 C 486.1875 771.5 490.6875 769.625 497.3125 767 L 498.0625 766 L 498.9375 751.875 L 498.0625 751.5 M 460.1875 729.125 C 460.5625 725.25 461.4375 720 466.1875 717 C 467.6875 716 469.4375 715.625 471.1875 715.625 C 475.3125 715.625 477.8125 717.75 479.1875 720 C 480.9375 722.75 481.0625 725.75 481.0625 728.625 Z M 568.4375 732.75 C 568.5625 721.5 568.5625 716.625 565.3125 711.375 C 562.8125 707.375 557.8125 702.375 541.8125 702.375 C 531.0625 702.375 524.4375 704.375 517.3125 706.5 L 516.5625 707.5 L 515.9375 721.125 L 516.9375 721.625 C 521.3125 719.875 529.4375 716.625 537.8125 716.625 C 542.4375 716.625 544.3125 717.375 545.9375 719 C 547.1875 720.25 547.5625 722.5 547.5625 724.375 C 532.5625 726.375 525.5625 727.75 518.0625 732.375 C 511.0625 736.75 508.6875 743.875 508.6875 749.5 C 508.6875 762.875 518.3125 771.5 530.5625 771.5 C 539.9375 771.5 545.3125 767 547.9375 764.875 L 547.9375 769.5 L 548.6875 770.375 C 557.6875 770 560.4375 769.875 568.5625 770 L 569.1875 769.125 C 568.3125 756.875 568.3125 753.75 568.3125 742 L 568.4375 732.75 M 547.8125 752.625 C 545.1875 754.125 541.8125 755.875 537.6875 755.875 C 533.1875 755.875 529.4375 753.5 529.4375 748.25 C 529.4375 740 539.3125 738.625 547.8125 737.5 Z M 618.0625 755.625 C 615.9375 756.25 614.4375 756.75 612.3125 756.75 C 605.9375 756.75 605.4375 752.75 605.1875 750.875 C 604.8125 747.625 604.8125 740.75 604.9375 735.75 L 605.1875 718.125 L 616.4375 718.625 L 617.1875 717.875 L 618.4375 704.5 L 617.6875 703.75 L 605.1875 703.75 L 605.5625 682.75 L 604.6875 682 C 596.1875 684.5 593.9375 685.125 585.0625 687.375 L 584.5625 688.25 L 584.6875 703.875 L 577.9375 703.625 L 577.1875 704.25 L 576.0625 717.625 L 576.8125 718.375 L 584.6875 718.125 L 584.3125 738 C 584.1875 741.125 584.0625 744.25 584.0625 747.5 C 584.0625 759 584.3125 771.375 603.8125 771.375 C 608.6875 771.375 612.5625 770.625 616.9375 769.875 L 617.8125 769 L 619.0625 756.125 Z M 649.9375 769.125 C 649.3125 759.5 648.8125 752.125 648.8125 734.875 C 648.8125 724.25 649.0625 713.5 649.1875 702.875 L 648.3125 701.875 L 626.8125 705.625 L 626.0625 706.375 C 627.0625 715.875 627.4375 720.25 627.4375 738 C 627.4375 751.625 627.0625 759.25 626.6875 769.5 L 627.4375 770.375 C 636.4375 770 638.9375 769.875 649.0625 770 L 649.9375 769.125 M 647.9375 689.875 L 648.3125 672.875 L 647.5625 672.125 L 627.1875 674.625 L 626.4375 675.5 C 626.6875 680 626.8125 682.625 626.8125 685.625 C 626.8125 688 626.8125 690.5 626.6875 692.875 L 627.5625 693.625 C 636.0625 692.125 638.4375 691.875 647.3125 690.75 Z M 727.4375 736.75 C 727.4375 731.875 727.4375 711.625 709.9375 704.75 C 704.4375 702.625 697.9375 702.375 694.6875 702.375 C 672.9375 702.375 660.6875 714 660.6875 737 C 660.6875 745 661.9375 753.125 666.5625 759.875 C 669.8125 764.75 675.9375 771.5 693.8125 771.5 C 720.3125 771.5 727.4375 755.5 727.4375 736.75 M 705.8125 736.625 C 705.8125 746.875 704.4375 758.25 694.0625 758.25 C 690.8125 758.25 688.5625 756.75 687.0625 755.375 C 684.9375 753.25 682.5625 749 682.5625 736.875 C 682.5625 733.25 682.5625 725.25 685.0625 720.875 C 686.9375 717.5 690.1875 715.25 694.1875 715.25 C 697.6875 715.25 700.5625 717.125 702.1875 719.125 C 705.1875 722.75 705.8125 729.875 705.8125 736.625 Z M 800.5625 769.125 C 799.9375 758.125 799.9375 754.625 799.6875 742.375 L 799.6875 732.625 C 799.5625 720.625 799.4375 714.875 796.3125 709.75 C 792.4375 703.25 785.3125 702.25 780.8125 702.25 C 773.1875 702.25 766.5625 706.25 760.8125 709.625 L 761.0625 702.75 L 759.8125 701.875 C 750.1875 703.875 748.0625 704.25 738.6875 705.5 L 737.9375 706.375 C 738.9375 717.25 739.6875 725.125 739.6875 745.5 C 739.6875 753.5 739.5625 761.5 739.4375 769.5 L 740.1875 770.25 C 749.1875 769.875 751.0625 769.875 761.0625 769.875 L 761.8125 769.125 C 761.0625 749.875 760.9375 745 760.8125 722.625 C 763.4375 720.875 766.4375 718.75 770.4375 718.75 C 777.3125 718.75 777.9375 726.125 778.3125 730.625 C 778.5625 734.75 778.6875 751.875 778.6875 756.625 C 778.6875 760.875 778.5625 765.25 778.5625 769.5 L 779.3125 770.25 C 787.5625 770 789.6875 769.875 799.6875 769.875 Z M 807.3125 770 "/>
<path fill-rule="nonzero" fill="rgb(34.901961%, 14.901961%, 14.901961%)" fill-opacity="1" d="M 412.4375 831.375 C 400.4375 831.75 397.9375 831.75 384.5625 831.75 L 383.6875 832.5 C 377.0625 853.75 373.0625 866.375 354.6875 919.125 L 355.1875 920 L 374.6875 920 L 375.5625 919.25 L 381.6875 896.5 L 408.6875 896.5 L 414.0625 919.625 L 414.9375 920.375 C 424.0625 920 426.5625 919.875 436.6875 920 L 437.3125 919 C 422.1875 865.5 420.4375 859.625 413.3125 832.125 L 412.4375 831.375 M 386.0625 881.375 L 392.3125 860.25 L 396.6875 845.625 L 400.4375 861.875 L 405.0625 881.375 Z M 481.4375 873.625 L 484.9375 853.25 L 484.1875 852.375 C 483.3125 852.375 482.4375 852.25 481.5625 852.25 C 476.4375 852.25 470.6875 855.125 466.6875 864.375 L 467.0625 852.875 L 466.0625 851.875 C 456.8125 853.875 454.4375 854.25 445.3125 855.625 L 444.5625 856.375 C 445.3125 865.75 445.6875 871.375 445.6875 888.75 C 445.6875 899 445.5625 909.25 445.3125 919.625 L 446.0625 920.375 C 455.3125 920 457.3125 919.875 467.3125 920 L 467.9375 919.125 C 467.4375 909 466.6875 894.875 466.6875 886.25 C 466.6875 880.625 466.6875 872.375 475.1875 872.375 C 477.3125 872.375 478.5625 873.125 480.3125 874.125 Z M 547.6875 901.5 C 542.9375 904 537.3125 906.875 528.1875 906.875 C 520.6875 906.875 515.5625 904.5 512.5625 900 C 510.6875 897.375 510.3125 894.875 509.8125 892.375 L 550.1875 891.625 L 550.9375 890.75 C 550.8125 884.625 550.6875 878.375 548.9375 872.125 C 544.5625 857.375 534.9375 854.375 530.6875 853.375 C 527.5625 852.5 524.6875 852.25 521.8125 852.25 C 502.1875 852.25 489.1875 865.125 489.1875 886.75 C 489.1875 892.625 490.1875 898.75 492.1875 903.125 C 499.4375 920 516.4375 921.5 525.4375 921.5 C 535.8125 921.5 540.3125 919.625 546.9375 917 L 547.6875 916 L 548.5625 901.875 L 547.6875 901.5 M 509.8125 879.125 C 510.1875 875.25 511.0625 870 515.8125 867 C 517.3125 866 519.0625 865.625 520.8125 865.625 C 524.9375 865.625 527.4375 867.75 528.8125 870 C 530.5625 872.75 530.6875 875.75 530.6875 878.625 Z M 618.0625 882.75 C 618.1875 871.5 618.1875 866.625 614.9375 861.375 C 612.4375 857.375 607.4375 852.375 591.4375 852.375 C 580.6875 852.375 574.0625 854.375 566.9375 856.5 L 566.1875 857.5 L 565.5625 871.125 L 566.5625 871.625 C 570.9375 869.875 579.0625 866.625 587.4375 866.625 C 592.0625 866.625 593.9375 867.375 595.5625 869 C 596.8125 870.25 597.1875 872.5 597.1875 874.375 C 582.1875 876.375 575.1875 877.75 567.6875 882.375 C 560.6875 886.75 558.3125 893.875 558.3125 899.5 C 558.3125 912.875 567.9375 921.5 580.1875 921.5 C 589.5625 921.5 594.9375 917 597.5625 914.875 L 597.5625 919.5 L 598.3125 920.375 C 607.3125 920 610.0625 919.875 618.1875 920 L 618.8125 919.125 C 617.9375 906.875 617.9375 903.75 617.9375 892 L 618.0625 882.75 M 597.4375 902.625 C 594.8125 904.125 591.4375 905.875 587.3125 905.875 C 582.8125 905.875 579.0625 903.5 579.0625 898.25 C 579.0625 890 588.9375 888.625 597.4375 887.5 Z M 625.1875 920 "/>
</svg>
