<?xml version="1.0" encoding="UTF-8"?>
<svg xmlns="http://www.w3.org/2000/svg" xmlns:xlink="http://www.w3.org/1999/xlink" width="975" height="1300" viewBox="0 0 975 1300">
<path fill-rule="nonzero" fill="rgb(34.901961%, 14.901961%, 14.901961%)" fill-opacity="1" d="M 339.8125 522.625 C 336.9375 524.875 330.5625 529.625 320.1875 529.625 C 305.9375 529.625 295.9375 519 295.9375 501.25 C 295.9375 490.5 299.6875 471.625 320.0625 471.625 C 329.4375 471.625 334.5625 475.25 337.6875 477.625 L 338.8125 477.375 L 339.9375 460.125 L 339.4375 459.5 C 334.9375 457.75 327.3125 454.875 316.3125 454.875 C 283.9375 454.875 272.6875 479.875 272.6875 501.75 C 272.6875 525.75 287.3125 546.875 317.8125 546.875 C 328.3125 546.875 335.1875 544.125 339.1875 542.5 L 339.8125 541.75 L 340.6875 523.125 Z M 406.0625 507.75 C 406.1875 496.5 406.1875 491.625 402.9375 486.375 C 400.4375 482.375 395.4375 477.375 379.4375 477.375 C 368.6875 477.375 362.0625 479.375 354.9375 481.5 L 354.1875 482.5 L 353.5625 496.125 L 354.5625 496.625 C 358.9375 494.875 367.0625 491.625 375.4375 491.625 C 380.0625 491.625 381.9375 492.375 383.5625 494 C 384.8125 495.25 385.1875 497.5 385.1875 499.375 C 370.1875 501.375 363.1875 502.75 355.6875 507.375 C 348.6875 511.75 346.3125 518.875 346.3125 524.5 C 346.3125 537.875 355.9375 546.5 368.1875 546.5 C 377.5625 546.5 382.9375 542 385.5625 539.875 L 385.5625 544.5 L 386.3125 545.375 C 395.3125 545 398.0625 544.875 406.1875 545 L 406.8125 544.125 C 405.9375 531.875 405.9375 528.75 405.9375 517 L 406.0625 507.75 M 385.4375 527.625 C 382.8125 529.125 379.4375 530.875 375.3125 530.875 C 370.8125 530.875 367.0625 528.5 367.0625 523.25 C 367.0625 515 376.9375 513.625 385.4375 512.5 Z M 446.9375 501.875 C 442.6875 500.375 439.3125 499 439.3125 495.5 C 439.3125 494 440.3125 489.875 448.0625 489.875 C 455.6875 489.875 460.5625 493.125 463.6875 495.125 L 464.8125 494.75 L 466.0625 481.125 L 465.4375 480.375 C 459.5625 478.75 454.4375 477.25 446.3125 477.25 C 440.1875 477.25 427.9375 477.75 421.4375 487.125 C 419.8125 489.375 418.0625 493.125 418.0625 498.125 C 418.0625 511.5 428.4375 515.5 434.3125 517.75 L 439.0625 519.5 C 442.4375 520.625 447.9375 522.5 447.9375 527 C 447.9375 530.125 445.0625 533.5 438.0625 533.5 C 434.5625 533.5 429.4375 532.375 424.8125 530 C 422.6875 528.875 421.6875 528 419.8125 526.5 L 418.6875 527 C 418.4375 533.5 418.3125 534.875 417.8125 541.125 L 418.4375 542.25 C 424.5625 544.5 429.8125 546.5 438.9375 546.5 C 448.4375 546.5 467.1875 544.75 469.4375 526.875 C 469.5625 525.875 469.5625 525 469.5625 524.125 C 469.5625 510.375 459.9375 506.75 453.0625 504.125 Z M 557.8125 544.125 C 562.8125 524.75 563.6875 521.75 571.1875 494.875 C 572.6875 489.75 574.0625 484.5 575.4375 479.375 L 574.6875 478.375 L 558.4375 478.75 L 557.5625 479.625 L 553.9375 498.375 L 550.4375 513.5 L 548.0625 525 L 545.9375 513.875 L 543.1875 500.875 L 538.8125 479.25 L 538.0625 478.375 L 514.0625 478.75 L 513.1875 479.625 L 509.0625 500.125 L 506.0625 513.875 L 503.6875 525.375 L 501.3125 513 L 498.3125 499.5 L 494.0625 478.75 L 493.3125 478.125 L 473.0625 479.625 L 472.3125 480.625 C 484.0625 521.875 485.9375 529.25 489.4375 544.625 L 490.3125 545.375 C 498.9375 545 502.0625 544.875 513.5625 545 L 514.3125 544.125 L 517.5625 528.875 L 521.0625 513.75 L 524.1875 498.625 L 526.0625 508.125 L 527.9375 517.375 L 533.1875 544.5 L 534.0625 545.375 C 543.3125 545 547.0625 544.875 557.0625 545 Z M 637.5625 526.5 C 632.8125 529 627.1875 531.875 618.0625 531.875 C 610.5625 531.875 605.4375 529.5 602.4375 525 C 600.5625 522.375 600.1875 519.875 599.6875 517.375 L 640.0625 516.625 L 640.8125 515.75 C 640.6875 509.625 640.5625 503.375 638.8125 497.125 C 634.4375 482.375 624.8125 479.375 620.5625 478.375 C 617.4375 477.5 614.5625 477.25 611.6875 477.25 C 592.0625 477.25 579.0625 490.125 579.0625 511.75 C 579.0625 517.625 580.0625 523.75 582.0625 528.125 C 589.3125 545 606.3125 546.5 615.3125 546.5 C 625.6875 546.5 630.1875 544.625 636.8125 542 L 637.5625 541 L 638.4375 526.875 L 637.5625 526.5 M 599.6875 504.125 C 600.0625 500.25 600.9375 495 605.6875 492 C 607.1875 491 608.9375 490.625 610.6875 490.625 C 614.8125 490.625 617.3125 492.75 618.6875 495 C 620.4375 497.75 620.5625 500.75 620.5625 503.625 Z M 674.3125 544.125 C 673.6875 529.75 673.0625 516.625 673.0625 477.125 C 673.0625 465.25 673.1875 459.625 673.6875 446.125 L 672.8125 445.25 L 651.4375 448.625 L 650.9375 449.375 C 652.1875 464.625 652.3125 468.75 652.5625 489 C 652.6875 496.375 652.6875 503.75 652.6875 511.125 C 652.6875 524.625 652.4375 532.125 651.9375 544.5 L 652.6875 545.375 C 661.0625 545 664.4375 544.875 673.5625 545 Z M 710.8125 544.125 C 710.1875 529.75 709.5625 516.625 709.5625 477.125 C 709.5625 465.25 709.6875 459.625 710.1875 446.125 L 709.3125 445.25 L 687.9375 448.625 L 687.4375 449.375 C 688.6875 464.625 688.8125 468.75 689.0625 489 C 689.1875 496.375 689.1875 503.75 689.1875 511.125 C 689.1875 524.625 688.9375 532.125 688.4375 544.5 L 689.1875 545.375 C 697.5625 545 700.9375 544.875 710.0625 545 Z M 717.8125 545 "/>
<path fill-rule="nonzero" fill="rgb(34.901961%, 14.901961%, 14.901961%)" fill-opacity="1" d="M 315.25 606.375 C 302.25 606.75 300.125 606.75 286.25 606.75 L 285.5 607.5 L 279.75 627.75 L 274.75 645.875 L 268.875 667.625 L 263.375 645.25 L 259.875 631.125 L 253.625 607.125 L 253 606.375 C 239.625 606.75 237.375 606.75 223.375 606.75 L 222.625 607.5 C 221.375 644.875 220.875 654.5 218.125 694.625 L 218.75 695.375 C 226.75 695 229.125 694.875 236.375 695 L 237.125 694.25 L 237.5 670.375 L 238.25 646.125 L 238.75 622.5 L 244.25 644.625 L 249 662.375 L 257.375 694.625 L 258.125 695.375 C 265.875 695 268 694.875 276.75 695 L 277.5 694.25 L 284.75 667.625 L 289.75 649.375 L 296.75 623.125 L 296.75 645.5 L 297 664.625 L 297 694.625 L 297.625 695.375 C 306.25 695 309.625 694.875 319.25 695 L 319.875 694.25 C 319.125 680 318.25 665.625 317.75 651.25 C 317.375 643.375 317.125 635.5 316.75 627.625 C 316.125 616 316 614.5 316 607.125 Z M 389.5 676.5 C 384.75 679 379.125 681.875 370 681.875 C 362.5 681.875 357.375 679.5 354.375 675 C 352.5 672.375 352.125 669.875 351.625 667.375 L 392 666.625 L 392.75 665.75 C 392.625 659.625 392.5 653.375 390.75 647.125 C 386.375 632.375 376.75 629.375 372.5 628.375 C 369.375 627.5 366.5 627.25 363.625 627.25 C 344 627.25 331 640.125 331 661.75 C 331 667.625 332 673.75 334 678.125 C 341.25 695 358.25 696.5 367.25 696.5 C 377.625 696.5 382.125 694.625 388.75 692 L 389.5 691 L 390.375 676.875 L 389.5 676.5 M 351.625 654.125 C 352 650.25 352.875 645 357.625 642 C 359.125 641 360.875 640.625 362.625 640.625 C 366.75 640.625 369.25 642.75 370.625 645 C 372.375 647.75 372.5 650.75 372.5 653.625 Z M 501.875 694.125 C 501.25 682.5 501.125 679.25 501.125 665.125 L 501.125 655.75 C 501.25 647.375 501.375 639.625 497.75 634.375 C 492.875 627.25 484.25 627.25 482.25 627.25 C 472 627.25 465.125 631.875 460.125 635.375 C 458.375 632.5 455.25 627.25 445.25 627.25 C 437 627.25 431.625 631 425.875 635 L 425.875 628 L 424.75 626.875 C 415 628.75 412.25 629.25 403.5 630.5 L 402.75 631.375 C 403.75 641.375 404.5 648.25 404.5 673 C 404.5 680.125 404.375 687.375 404.375 694.5 L 405 695.25 C 413 695 415.75 694.875 426.125 694.875 L 426.875 694.125 C 426 674.875 425.875 669.125 425.75 647.375 C 428.375 645.5 431.25 643.875 434.375 643.875 C 442.125 643.875 442.375 652.75 442.375 663.5 C 442.375 681.625 442.25 684.375 442 694.5 L 442.75 695.375 C 452.25 694.875 454.875 694.875 463.5 694.875 L 464.25 694.125 C 463.5 682.25 463.375 678.75 463.25 663.625 L 463.25 659 L 463.125 646.375 C 465.25 645 468 643.25 471.75 643.25 C 478.875 643.25 480 650 480 660.75 C 480 663.125 479.875 665.5 479.875 667.875 C 479.75 672.125 479.625 690.75 479.5 694.5 L 480.25 695.25 C 489.625 694.875 492.375 694.875 501.125 694.875 Z M 579.875 661.75 C 579.875 656.875 579.875 636.625 562.375 629.75 C 556.875 627.625 550.375 627.375 547.125 627.375 C 525.375 627.375 513.125 639 513.125 662 C 513.125 670 514.375 678.125 519 684.875 C 522.25 689.75 528.375 696.5 546.25 696.5 C 572.75 696.5 579.875 680.5 579.875 661.75 M 558.25 661.625 C 558.25 671.875 556.875 683.25 546.5 683.25 C 543.25 683.25 541 681.75 539.5 680.375 C 537.375 678.25 535 674 535 661.875 C 535 658.25 535 650.25 537.5 645.875 C 539.375 642.5 542.625 640.25 546.625 640.25 C 550.125 640.25 553 642.125 554.625 644.125 C 557.625 647.75 558.25 654.875 558.25 661.625 Z M 627.875 648.625 L 631.375 628.25 L 630.625 627.375 C 629.75 627.375 628.875 627.25 628 627.25 C 622.875 627.25 617.125 630.125 613.125 639.375 L 613.5 627.875 L 612.5 626.875 C 603.25 628.875 600.875 629.25 591.75 630.625 L 591 631.375 C 591.75 640.75 592.125 646.375 592.125 663.75 C 592.125 674 592 684.25 591.75 694.625 L 592.5 695.375 C 601.75 695 603.75 694.875 613.75 695 L 614.375 694.125 C 613.875 684 613.125 669.875 613.125 661.25 C 613.125 655.625 613.125 647.375 621.625 647.375 C 623.75 647.375 625 648.125 626.75 649.125 Z M 661.25 694.125 C 660.625 684.5 660.125 677.125 660.125 659.875 C 660.125 649.25 660.375 638.5 660.5 627.875 L 659.625 626.875 L 638.125 630.625 L 637.375 631.375 C 638.375 640.875 638.75 645.25 638.75 663 C 638.75 676.625 638.375 684.25 638 694.5 L 638.75 695.375 C 647.75 695 650.25 694.875 660.375 695 L 661.25 694.125 M 659.25 614.875 L 659.625 597.875 L 658.875 597.125 L 638.5 599.625 L 637.75 600.5 C 638 605 638.125 607.625 638.125 610.625 C 638.125 613 638.125 615.5 638 617.875 L 638.875 618.625 C 647.375 617.125 649.75 616.875 658.625 615.75 Z M 730.75 657.75 C 730.875 646.5 730.875 641.625 727.625 636.375 C 725.125 632.375 720.125 627.375 704.125 627.375 C 693.375 627.375 686.75 629.375 679.625 631.5 L 678.875 632.5 L 678.25 646.125 L 679.25 646.625 C 683.625 644.875 691.75 641.625 700.125 641.625 C 704.75 641.625 706.625 642.375 708.25 644 C 709.5 645.25 709.875 647.5 709.875 649.375 C 694.875 651.375 687.875 652.75 680.375 657.375 C 673.375 661.75 671 668.875 671 674.5 C 671 687.875 680.625 696.5 692.875 696.5 C 702.25 696.5 707.625 692 710.25 689.875 L 710.25 694.5 L 711 695.375 C 720 695 722.75 694.875 730.875 695 L 731.5 694.125 C 730.625 681.875 730.625 678.75 730.625 667 L 730.75 657.75 M 710.125 677.625 C 707.5 679.125 704.125 680.875 700 680.875 C 695.5 680.875 691.75 678.5 691.75 673.25 C 691.75 665 701.625 663.625 710.125 662.5 Z M 767.375 694.125 C 766.75 679.75 766.125 666.625 766.125 627.125 C 766.125 615.25 766.25 609.625 766.75 596.125 L 765.875 595.25 L 744.5 598.625 L 744 599.375 C 745.25 614.625 745.375 618.75 745.625 639 C 745.75 646.375 745.75 653.75 745.75 661.125 C 745.75 674.625 745.5 682.125 745 694.5 L 745.75 695.375 C 754.125 695 757.5 694.875 766.625 695 Z M 774.375 695 "/>
<path fill-rule="nonzero" fill="rgb(34.901961%, 14.901961%, 14.901961%)" fill-opacity="1" d="M 232.875 791.25 C 222.375 786.875 216.875 784.625 216.875 779 C 216.875 775.125 220.5 770.25 228.75 770.25 C 238.25 770.25 243.875 774.125 248.5 777.25 L 249.625 776.75 L 250.625 760.375 L 250 759.5 C 244.625 757.25 239 754.875 226.875 754.875 C 203.375 754.875 195.25 768.125 195.25 781.5 C 195.25 796.625 207 802.125 214 805.5 L 218.125 807.375 C 226.75 811 233.375 814.125 233.375 820.75 C 233.375 825.5 229.25 831.125 218.375 831.125 C 207 831.125 200.625 826.125 197 823.25 L 195.75 823.625 L 194.875 841.25 L 195.625 842.25 C 197 842.75 198.375 843.375 199.75 843.75 C 202.625 844.75 210 846.875 219.375 846.875 C 223.125 846.875 232.625 846.5 240.125 843 C 250.625 837.875 255.125 828.375 255.125 817.75 C 255.125 810.625 252.375 803 245.75 797.875 C 242.375 795.375 239.125 793.875 236.125 792.5 Z M 302 830.625 C 299.875 831.25 298.375 831.75 296.25 831.75 C 289.875 831.75 289.375 827.75 289.125 825.875 C 288.75 822.625 288.75 815.75 288.875 810.75 L 289.125 793.125 L 300.375 793.625 L 301.125 792.875 L 302.375 779.5 L 301.625 778.75 L 289.125 778.75 L 289.5 757.75 L 288.625 757 C 280.125 759.5 277.875 760.125 269 762.375 L 268.5 763.25 L 268.625 778.875 L 261.875 778.625 L 261.125 779.25 L 260 792.625 L 260.75 793.375 L 268.625 793.125 L 268.25 813 C 268.125 816.125 268 819.25 268 822.5 C 268 834 268.25 846.375 287.75 846.375 C 292.625 846.375 296.5 845.625 300.875 844.875 L 301.75 844 L 303 831.125 Z M 366.875 807.75 C 367 796.5 367 791.625 363.75 786.375 C 361.25 782.375 356.25 777.375 340.25 777.375 C 329.5 777.375 322.875 779.375 315.75 781.5 L 315 782.5 L 314.375 796.125 L 315.375 796.625 C 319.75 794.875 327.875 791.625 336.25 791.625 C 340.875 791.625 342.75 792.375 344.375 794 C 345.625 795.25 346 797.5 346 799.375 C 331 801.375 324 802.75 316.5 807.375 C 309.5 811.75 307.125 818.875 307.125 824.5 C 307.125 837.875 316.75 846.5 329 846.5 C 338.375 846.5 343.75 842 346.375 839.875 L 346.375 844.5 L 347.125 845.375 C 356.125 845 358.875 844.875 367 845 L 367.625 844.125 C 366.75 831.875 366.75 828.75 366.75 817 L 366.875 807.75 M 346.25 827.625 C 343.625 829.125 340.25 830.875 336.125 830.875 C 331.625 830.875 327.875 828.5 327.875 823.25 C 327.875 815 337.75 813.625 346.25 812.5 Z M 416.5 830.625 C 414.375 831.25 412.875 831.75 410.75 831.75 C 404.375 831.75 403.875 827.75 403.625 825.875 C 403.25 822.625 403.25 815.75 403.375 810.75 L 403.625 793.125 L 414.875 793.625 L 415.625 792.875 L 416.875 779.5 L 416.125 778.75 L 403.625 778.75 L 404 757.75 L 403.125 757 C 394.625 759.5 392.375 760.125 383.5 762.375 L 383 763.25 L 383.125 778.875 L 376.375 778.625 L 375.625 779.25 L 374.5 792.625 L 375.25 793.375 L 383.125 793.125 L 382.75 813 C 382.625 816.125 382.5 819.25 382.5 822.5 C 382.5 834 382.75 846.375 402.25 846.375 C 407.125 846.375 411 845.625 415.375 844.875 L 416.25 844 L 417.5 831.125 Z M 481.25 826.5 C 476.5 829 470.875 831.875 461.75 831.875 C 454.25 831.875 449.125 829.5 446.125 825 C 444.25 822.375 443.875 819.875 443.375 817.375 L 483.75 816.625 L 484.5 815.75 C 484.375 809.625 484.25 803.375 482.5 797.125 C 478.125 782.375 468.5 779.375 464.25 778.375 C 461.125 777.5 458.25 777.25 455.375 777.25 C 435.75 777.25 422.75 790.125 422.75 811.75 C 422.75 817.625 423.75 823.75 425.75 828.125 C 433 845 450 846.5 459 846.5 C 469.375 846.5 473.875 844.625 480.5 842 L 481.25 841 L 482.125 826.875 L 481.25 826.5 M 443.375 804.125 C 443.75 800.25 444.625 795 449.375 792 C 450.875 791 452.625 790.625 454.375 790.625 C 458.5 790.625 461 792.75 462.375 795 C 464.125 797.75 464.25 800.75 464.25 803.625 Z M 549.25 756.5 L 533.375 756.75 L 532.625 757.5 C 533.125 773.75 533.5 784.625 533.5 799 C 533.5 814.25 533.125 829.375 532.75 844.625 L 533.5 845.375 C 542.75 845 544.75 844.875 554.75 845 L 555.375 844.25 C 554.875 830.625 554.875 827.5 554.875 814.75 C 568.875 814.875 583.875 814.875 592.875 803.875 C 596.375 799.625 599.375 792.5 599.375 783.75 C 599.375 778.375 598.125 766.5 587.75 760.625 C 580.25 756.25 569.625 756.25 560.25 756.25 L 549.25 756.5 M 554.875 771.625 C 557.625 771.5 560.25 771.5 563 771.5 C 574 771.75 577 777.375 577 784.625 C 577 786.375 577 793.625 570.375 797.25 C 567 799.125 562.375 799.375 554.875 799.375 Z M 663.625 807.75 C 663.75 796.5 663.75 791.625 660.5 786.375 C 658 782.375 653 777.375 637 777.375 C 626.25 777.375 619.625 779.375 612.5 781.5 L 611.75 782.5 L 611.125 796.125 L 612.125 796.625 C 616.5 794.875 624.625 791.625 633 791.625 C 637.625 791.625 639.5 792.375 641.125 794 C 642.375 795.25 642.75 797.5 642.75 799.375 C 627.75 801.375 620.75 802.75 613.25 807.375 C 606.25 811.75 603.875 818.875 603.875 824.5 C 603.875 837.875 613.5 846.5 625.75 846.5 C 635.125 846.5 640.5 842 643.125 839.875 L 643.125 844.5 L 643.875 845.375 C 652.875 845 655.625 844.875 663.75 845 L 664.375 844.125 C 663.5 831.875 663.5 828.75 663.5 817 L 663.625 807.75 M 643 827.625 C 640.375 829.125 637 830.875 632.875 830.875 C 628.375 830.875 624.625 828.5 624.625 823.25 C 624.625 815 634.5 813.625 643 812.5 Z M 714.375 798.625 L 717.875 778.25 L 717.125 777.375 C 716.25 777.375 715.375 777.25 714.5 777.25 C 709.375 777.25 703.625 780.125 699.625 789.375 L 700 777.875 L 699 776.875 C 689.75 778.875 687.375 779.25 678.25 780.625 L 677.5 781.375 C 678.25 790.75 678.625 796.375 678.625 813.75 C 678.625 824 678.5 834.25 678.25 844.625 L 679 845.375 C 688.25 845 690.25 844.875 700.25 845 L 700.875 844.125 C 700.375 834 699.625 819.875 699.625 811.25 C 699.625 805.625 699.625 797.375 708.125 797.375 C 710.25 797.375 711.5 798.125 713.25 799.125 Z M 789.375 843.375 C 777.625 823.5 776.375 821.25 766.875 804.125 C 775.5 792.375 776.375 791.125 785.25 779.75 L 784.625 778.5 L 764.25 778.75 L 763 779.625 C 753.25 796.5 752 798.5 746.25 807.125 L 746.25 793.25 C 746.375 769.875 746.5 764.875 747.125 746 L 746.125 745.25 L 724.375 748.5 L 723.625 749.375 C 724.5 761.5 724.875 767.375 725.125 783.75 C 725.375 804 725.375 824.25 725.25 844.5 L 726.125 845.375 C 734.5 845 736.875 845 746.375 845 L 747.125 844.125 L 746.375 823 L 746.25 808.625 C 757.125 828.625 758.5 831.375 764.875 844.625 L 766 845.375 L 788.5 844.5 Z M 787.875 845 "/>
</svg>
