<?xml version="1.0" encoding="UTF-8"?>
<svg xmlns="http://www.w3.org/2000/svg" xmlns:xlink="http://www.w3.org/1999/xlink" width="975" height="1300" viewBox="0 0 975 1300">
<path fill-rule="nonzero" fill="rgb(34.901961%, 14.901961%, 14.901961%)" fill-opacity="1" d="M 105.3125 531.5 L 89.4375 531.75 L 88.6875 532.5 C 89.1875 548.75 89.5625 559.625 89.5625 574 C 89.5625 589.25 89.1875 604.375 88.8125 619.625 L 89.5625 620.375 C 98.8125 620 100.8125 619.875 110.8125 620 L 111.4375 619.25 C 110.9375 605.625 110.9375 602.5 110.9375 589.75 C 124.9375 589.875 139.9375 589.875 148.9375 578.875 C 152.4375 574.625 155.4375 567.5 155.4375 558.75 C 155.4375 553.375 154.1875 541.5 143.8125 535.625 C 136.3125 531.25 125.6875 531.25 116.3125 531.25 L 105.3125 531.5 M 110.9375 546.625 C 113.6875 546.5 116.3125 546.5 119.0625 546.5 C 130.0625 546.75 133.0625 552.375 133.0625 559.625 C 133.0625 561.375 133.0625 568.625 126.4375 572.25 C 123.0625 574.125 118.4375 574.375 110.9375 574.375 Z M 219.6875 582.75 C 219.8125 571.5 219.8125 566.625 216.5625 561.375 C 214.0625 557.375 209.0625 552.375 193.0625 552.375 C 182.3125 552.375 175.6875 554.375 168.5625 556.5 L 167.8125 557.5 L 167.1875 571.125 L 168.1875 571.625 C 172.5625 569.875 180.6875 566.625 189.0625 566.625 C 193.6875 566.625 195.5625 567.375 197.1875 569 C 198.4375 570.25 198.8125 572.5 198.8125 574.375 C 183.8125 576.375 176.8125 577.75 169.3125 582.375 C 162.3125 586.75 159.9375 593.875 159.9375 599.5 C 159.9375 612.875 169.5625 621.5 181.8125 621.5 C 191.1875 621.5 196.5625 617 199.1875 614.875 L 199.1875 619.5 L 199.9375 620.375 C 208.9375 620 211.6875 619.875 219.8125 620 L 220.4375 619.125 C 219.5625 606.875 219.5625 603.75 219.5625 592 L 219.6875 582.75 M 199.0625 602.625 C 196.4375 604.125 193.0625 605.875 188.9375 605.875 C 184.4375 605.875 180.6875 603.5 180.6875 598.25 C 180.6875 590 190.5625 588.625 199.0625 587.5 Z M 283.1875 602 C 279.8125 604 276.5625 606 270.1875 606 C 256.0625 606 253.1875 594.25 253.1875 586.75 C 253.1875 577.625 257.1875 567.125 269.3125 567.125 C 274.8125 567.125 277.8125 569.125 281.5625 571.625 L 282.8125 571.25 C 283.3125 564.625 283.4375 562.875 284.4375 556.25 L 283.8125 555.5 C 278.3125 553.75 273.5625 552.25 266.3125 552.25 C 236.9375 552.25 231.1875 574.5 231.1875 587.25 C 231.1875 601.625 238.6875 621.125 266.8125 621.125 C 273.4375 621.125 277.6875 619.875 282.9375 618.375 L 283.6875 617.625 L 284.1875 602.625 Z M 355.4375 619.125 C 354.9375 608.875 354.8125 605.375 354.5625 592.375 L 354.5625 583 C 354.4375 571.125 354.3125 564.25 350.6875 559 C 347.0625 553.875 341.8125 552.25 336.3125 552.25 C 327.1875 552.25 320.0625 556.625 315.0625 559.625 L 315.4375 521.125 L 314.6875 520.25 L 293.3125 523.625 L 292.6875 524.375 C 293.8125 536.5 294.0625 541 294.3125 557.125 C 294.5625 567.25 294.6875 577.375 294.6875 587.5 C 294.6875 599.875 294.4375 607.25 294.1875 619.5 L 294.8125 620.375 C 304.0625 619.875 305.9375 619.875 316.0625 619.875 L 316.8125 619.125 C 315.9375 600.375 315.8125 594.75 315.6875 572.625 C 318.0625 571 321.0625 568.875 325.3125 568.875 C 332.1875 568.875 332.6875 576 333.1875 581 C 333.4375 584.875 333.5625 602.625 333.5625 607.25 C 333.5625 611.375 333.4375 615.375 333.4375 619.5 L 334.0625 620.375 C 343.0625 619.875 345.0625 619.875 354.6875 619.875 Z M 425.1875 601.5 C 420.4375 604 414.8125 606.875 405.6875 606.875 C 398.1875 606.875 393.0625 604.5 390.0625 600 C 388.1875 597.375 387.8125 594.875 387.3125 592.375 L 427.6875 591.625 L 428.4375 590.75 C 428.3125 584.625 428.1875 578.375 426.4375 572.125 C 422.0625 557.375 412.4375 554.375 408.1875 553.375 C 405.0625 552.5 402.1875 552.25 399.3125 552.25 C 379.6875 552.25 366.6875 565.125 366.6875 586.75 C 366.6875 592.625 367.6875 598.75 369.6875 603.125 C 376.9375 620 393.9375 621.5 402.9375 621.5 C 413.3125 621.5 417.8125 619.625 424.4375 617 L 425.1875 616 L 426.0625 601.875 L 425.1875 601.5 M 387.3125 579.125 C 387.6875 575.25 388.5625 570 393.3125 567 C 394.8125 566 396.5625 565.625 398.3125 565.625 C 402.4375 565.625 404.9375 567.75 406.3125 570 C 408.0625 572.75 408.1875 575.75 408.1875 578.625 Z M 488.8125 602 C 485.4375 604 482.1875 606 475.8125 606 C 461.6875 606 458.8125 594.25 458.8125 586.75 C 458.8125 577.625 462.8125 567.125 474.9375 567.125 C 480.4375 567.125 483.4375 569.125 487.1875 571.625 L 488.4375 571.25 C 488.9375 564.625 489.0625 562.875 490.0625 556.25 L 489.4375 555.5 C 483.9375 553.75 479.1875 552.25 471.9375 552.25 C 442.5625 552.25 436.8125 574.5 436.8125 587.25 C 436.8125 601.625 444.3125 621.125 472.4375 621.125 C 479.0625 621.125 483.3125 619.875 488.5625 618.375 L 489.3125 617.625 L 489.8125 602.625 Z M 563.4375 586.75 C 563.4375 581.875 563.4375 561.625 545.9375 554.75 C 540.4375 552.625 533.9375 552.375 530.6875 552.375 C 508.9375 552.375 496.6875 564 496.6875 587 C 496.6875 595 497.9375 603.125 502.5625 609.875 C 505.8125 614.75 511.9375 621.5 529.8125 621.5 C 556.3125 621.5 563.4375 605.5 563.4375 586.75 M 541.8125 586.625 C 541.8125 596.875 540.4375 608.25 530.0625 608.25 C 526.8125 608.25 524.5625 606.75 523.0625 605.375 C 520.9375 603.25 518.5625 599 518.5625 586.875 C 518.5625 583.25 518.5625 575.25 521.0625 570.875 C 522.9375 567.5 526.1875 565.25 530.1875 565.25 C 533.6875 565.25 536.5625 567.125 538.1875 569.125 C 541.1875 572.75 541.8125 579.875 541.8125 586.625 Z M 647.9375 566.25 C 637.4375 561.875 631.9375 559.625 631.9375 554 C 631.9375 550.125 635.5625 545.25 643.8125 545.25 C 653.3125 545.25 658.9375 549.125 663.5625 552.25 L 664.6875 551.75 L 665.6875 535.375 L 665.0625 534.5 C 659.6875 532.25 654.0625 529.875 641.9375 529.875 C 618.4375 529.875 610.3125 543.125 610.3125 556.5 C 610.3125 571.625 622.0625 577.125 629.0625 580.5 L 633.1875 582.375 C 641.8125 586 648.4375 589.125 648.4375 595.75 C 648.4375 600.5 644.3125 606.125 633.4375 606.125 C 622.0625 606.125 615.6875 601.125 612.0625 598.25 L 610.8125 598.625 L 609.9375 616.25 L 610.6875 617.25 C 612.0625 617.75 613.4375 618.375 614.8125 618.75 C 617.6875 619.75 625.0625 621.875 634.4375 621.875 C 638.1875 621.875 647.6875 621.5 655.1875 618 C 665.6875 612.875 670.1875 603.375 670.1875 592.75 C 670.1875 585.625 667.4375 578 660.8125 572.875 C 657.4375 570.375 654.1875 568.875 651.1875 567.5 Z M 717.0625 605.625 C 714.9375 606.25 713.4375 606.75 711.3125 606.75 C 704.9375 606.75 704.4375 602.75 704.1875 600.875 C 703.8125 597.625 703.8125 590.75 703.9375 585.75 L 704.1875 568.125 L 715.4375 568.625 L 716.1875 567.875 L 717.4375 554.5 L 716.6875 553.75 L 704.1875 553.75 L 704.5625 532.75 L 703.6875 532 C 695.1875 534.5 692.9375 535.125 684.0625 537.375 L 683.5625 538.25 L 683.6875 553.875 L 676.9375 553.625 L 676.1875 554.25 L 675.0625 567.625 L 675.8125 568.375 L 683.6875 568.125 L 683.3125 588 C 683.1875 591.125 683.0625 594.25 683.0625 597.5 C 683.0625 609 683.3125 621.375 702.8125 621.375 C 707.6875 621.375 711.5625 620.625 715.9375 619.875 L 716.8125 619 L 718.0625 606.125 Z M 781.9375 582.75 C 782.0625 571.5 782.0625 566.625 778.8125 561.375 C 776.3125 557.375 771.3125 552.375 755.3125 552.375 C 744.5625 552.375 737.9375 554.375 730.8125 556.5 L 730.0625 557.5 L 729.4375 571.125 L 730.4375 571.625 C 734.8125 569.875 742.9375 566.625 751.3125 566.625 C 755.9375 566.625 757.8125 567.375 759.4375 569 C 760.6875 570.25 761.0625 572.5 761.0625 574.375 C 746.0625 576.375 739.0625 577.75 731.5625 582.375 C 724.5625 586.75 722.1875 593.875 722.1875 599.5 C 722.1875 612.875 731.8125 621.5 744.0625 621.5 C 753.4375 621.5 758.8125 617 761.4375 614.875 L 761.4375 619.5 L 762.1875 620.375 C 771.1875 620 773.9375 619.875 782.0625 620 L 782.6875 619.125 C 781.8125 606.875 781.8125 603.75 781.8125 592 L 781.9375 582.75 M 761.3125 602.625 C 758.6875 604.125 755.3125 605.875 751.1875 605.875 C 746.6875 605.875 742.9375 603.5 742.9375 598.25 C 742.9375 590 752.8125 588.625 761.3125 587.5 Z M 831.5625 605.625 C 829.4375 606.25 827.9375 606.75 825.8125 606.75 C 819.4375 606.75 818.9375 602.75 818.6875 600.875 C 818.3125 597.625 818.3125 590.75 818.4375 585.75 L 818.6875 568.125 L 829.9375 568.625 L 830.6875 567.875 L 831.9375 554.5 L 831.1875 553.75 L 818.6875 553.75 L 819.0625 532.75 L 818.1875 532 C 809.6875 534.5 807.4375 535.125 798.5625 537.375 L 798.0625 538.25 L 798.1875 553.875 L 791.4375 553.625 L 790.6875 554.25 L 789.5625 567.625 L 790.3125 568.375 L 798.1875 568.125 L 797.8125 588 C 797.6875 591.125 797.5625 594.25 797.5625 597.5 C 797.5625 609 797.8125 621.375 817.3125 621.375 C 822.1875 621.375 826.0625 620.625 830.4375 619.875 L 831.3125 619 L 832.5625 606.125 Z M 896.3125 601.5 C 891.5625 604 885.9375 606.875 876.8125 606.875 C 869.3125 606.875 864.1875 604.5 861.1875 600 C 859.3125 597.375 858.9375 594.875 858.4375 592.375 L 898.8125 591.625 L 899.5625 590.75 C 899.4375 584.625 899.3125 578.375 897.5625 572.125 C 893.1875 557.375 883.5625 554.375 879.3125 553.375 C 876.1875 552.5 873.3125 552.25 870.4375 552.25 C 850.8125 552.25 837.8125 565.125 837.8125 586.75 C 837.8125 592.625 838.8125 598.75 840.8125 603.125 C 848.0625 620 865.0625 621.5 874.0625 621.5 C 884.4375 621.5 888.9375 619.625 895.5625 617 L 896.3125 616 L 897.1875 601.875 L 896.3125 601.5 M 858.4375 579.125 C 858.8125 575.25 859.6875 570 864.4375 567 C 865.9375 566 867.6875 565.625 869.4375 565.625 C 873.5625 565.625 876.0625 567.75 877.4375 570 C 879.1875 572.75 879.3125 575.75 879.3125 578.625 Z M 903.5625 620 "/>
<path fill-rule="nonzero" fill="rgb(34.901961%, 14.901961%, 14.901961%)" fill-opacity="1" d="M 382.375 681.5 L 366.5 681.75 L 365.75 682.5 C 366.25 698.75 366.625 709.625 366.625 724 C 366.625 739.25 366.25 754.375 365.875 769.625 L 366.625 770.375 C 375.875 770 377.875 769.875 387.875 770 L 388.5 769.25 C 388 755.625 388 752.5 388 739.75 C 402 739.875 417 739.875 426 728.875 C 429.5 724.625 432.5 717.5 432.5 708.75 C 432.5 703.375 431.25 691.5 420.875 685.625 C 413.375 681.25 402.75 681.25 393.375 681.25 L 382.375 681.5 M 388 696.625 C 390.75 696.5 393.375 696.5 396.125 696.5 C 407.125 696.75 410.125 702.375 410.125 709.625 C 410.125 711.375 410.125 718.625 403.5 722.25 C 400.125 724.125 395.5 724.375 388 724.375 Z M 496.75 732.75 C 496.875 721.5 496.875 716.625 493.625 711.375 C 491.125 707.375 486.125 702.375 470.125 702.375 C 459.375 702.375 452.75 704.375 445.625 706.5 L 444.875 707.5 L 444.25 721.125 L 445.25 721.625 C 449.625 719.875 457.75 716.625 466.125 716.625 C 470.75 716.625 472.625 717.375 474.25 719 C 475.5 720.25 475.875 722.5 475.875 724.375 C 460.875 726.375 453.875 727.75 446.375 732.375 C 439.375 736.75 437 743.875 437 749.5 C 437 762.875 446.625 771.5 458.875 771.5 C 468.25 771.5 473.625 767 476.25 764.875 L 476.25 769.5 L 477 770.375 C 486 770 488.75 769.875 496.875 770 L 497.5 769.125 C 496.625 756.875 496.625 753.75 496.625 742 L 496.75 732.75 M 476.125 752.625 C 473.5 754.125 470.125 755.875 466 755.875 C 461.5 755.875 457.75 753.5 457.75 748.25 C 457.75 740 467.625 738.625 476.125 737.5 Z M 547.5 723.625 L 551 703.25 L 550.25 702.375 C 549.375 702.375 548.5 702.25 547.625 702.25 C 542.5 702.25 536.75 705.125 532.75 714.375 L 533.125 702.875 L 532.125 701.875 C 522.875 703.875 520.5 704.25 511.375 705.625 L 510.625 706.375 C 511.375 715.75 511.75 721.375 511.75 738.75 C 511.75 749 511.625 759.25 511.375 769.625 L 512.125 770.375 C 521.375 770 523.375 769.875 533.375 770 L 534 769.125 C 533.5 759 532.75 744.875 532.75 736.25 C 532.75 730.625 532.75 722.375 541.25 722.375 C 543.375 722.375 544.625 723.125 546.375 724.125 Z M 622.5 768.375 C 610.75 748.5 609.5 746.25 600 729.125 C 608.625 717.375 609.5 716.125 618.375 704.75 L 617.75 703.5 L 597.375 703.75 L 596.125 704.625 C 586.375 721.5 585.125 723.5 579.375 732.125 L 579.375 718.25 C 579.5 694.875 579.625 689.875 580.25 671 L 579.25 670.25 L 557.5 673.5 L 556.75 674.375 C 557.625 686.5 558 692.375 558.25 708.75 C 558.5 729 558.5 749.25 558.375 769.5 L 559.25 770.375 C 567.625 770 570 770 579.5 770 L 580.25 769.125 L 579.5 748 L 579.375 733.625 C 590.25 753.625 591.625 756.375 598 769.625 L 599.125 770.375 L 621.625 769.5 Z M 621 770 "/>
</svg>
