<?xml version="1.0" encoding="UTF-8"?>
<svg xmlns="http://www.w3.org/2000/svg" xmlns:xlink="http://www.w3.org/1999/xlink" width="975" height="1300" viewBox="0 0 975 1300">
<path fill-rule="nonzero" fill="rgb(34.901961%, 14.901961%, 14.901961%)" fill-opacity="1" d="M 281 470 C 292.625 470.25 307 470.5 316.375 464 C 324.625 458.125 326.875 449.875 326.875 442.875 C 326.875 434.875 323.5 427.5 316.375 424 C 314 422.75 311.25 422.25 308.625 421.75 C 312.875 420 317.875 417.75 321.125 411.125 C 322.5 408.25 323.125 405.25 323.125 402.375 C 323.125 398.375 322.125 392.875 318.125 388.375 C 312.875 382.75 304.75 381.25 292.5 381.25 C 288.25 381.25 280.625 381.375 276.375 381.5 L 258.875 381.75 L 258.125 382.5 C 258.625 394.5 258.75 399.125 258.75 416.375 C 258.75 434.125 258.625 451.75 258.375 469.5 L 259.25 470 L 281 470 M 280.125 432 C 289.625 431.75 295.125 431.75 298.75 433.875 C 302.375 436.125 303.75 440.125 303.75 444.125 C 303.75 449.75 300.625 453.25 296 454.875 C 292.25 456.125 285.5 456.125 280.125 456 L 280.125 432 M 280.125 395.25 C 282.75 395.25 286.25 395.125 288.375 395.125 C 295.125 395.125 301.25 397.5 301.25 405.625 C 301.25 412.25 296.375 415 294.875 415.75 C 291.75 417.125 285.125 417.125 280.125 417.125 Z M 394 451.5 C 389.25 454 383.625 456.875 374.5 456.875 C 367 456.875 361.875 454.5 358.875 450 C 357 447.375 356.625 444.875 356.125 442.375 L 396.5 441.625 L 397.25 440.75 C 397.125 434.625 397 428.375 395.25 422.125 C 390.875 407.375 381.25 404.375 377 403.375 C 373.875 402.5 371 402.25 368.125 402.25 C 348.5 402.25 335.5 415.125 335.5 436.75 C 335.5 442.625 336.5 448.75 338.5 453.125 C 345.75 470 362.75 471.5 371.75 471.5 C 382.125 471.5 386.625 469.625 393.25 467 L 394 466 L 394.875 451.875 L 394 451.5 M 356.125 429.125 C 356.5 425.25 357.375 420 362.125 417 C 363.625 416 365.375 415.625 367.125 415.625 C 371.25 415.625 373.75 417.75 375.125 420 C 376.875 422.75 377 425.75 377 428.625 Z M 443.75 455.625 C 441.625 456.25 440.125 456.75 438 456.75 C 431.625 456.75 431.125 452.75 430.875 450.875 C 430.5 447.625 430.5 440.75 430.625 435.75 L 430.875 418.125 L 442.125 418.625 L 442.875 417.875 L 444.125 404.5 L 443.375 403.75 L 430.875 403.75 L 431.25 382.75 L 430.375 382 C 421.875 384.5 419.625 385.125 410.75 387.375 L 410.25 388.25 L 410.375 403.875 L 403.625 403.625 L 402.875 404.25 L 401.75 417.625 L 402.5 418.375 L 410.375 418.125 L 410 438 C 409.875 441.125 409.75 444.25 409.75 447.5 C 409.75 459 410 471.375 429.5 471.375 C 434.375 471.375 438.25 470.625 442.625 469.875 L 443.5 469 L 444.75 456.125 Z M 514.25 469.125 C 513.75 458.875 513.625 455.375 513.375 442.375 L 513.375 433 C 513.25 421.125 513.125 414.25 509.5 409 C 505.875 403.875 500.625 402.25 495.125 402.25 C 486 402.25 478.875 406.625 473.875 409.625 L 474.25 371.125 L 473.5 370.25 L 452.125 373.625 L 451.5 374.375 C 452.625 386.5 452.875 391 453.125 407.125 C 453.375 417.25 453.5 427.375 453.5 437.5 C 453.5 449.875 453.25 457.25 453 469.5 L 453.625 470.375 C 462.875 469.875 464.75 469.875 474.875 469.875 L 475.625 469.125 C 474.75 450.375 474.625 444.75 474.5 422.625 C 476.875 421 479.875 418.875 484.125 418.875 C 491 418.875 491.5 426 492 431 C 492.25 434.875 492.375 452.625 492.375 457.25 C 492.375 461.375 492.25 465.375 492.25 469.5 L 492.875 470.375 C 501.875 469.875 503.875 469.875 513.5 469.875 Z M 584.125 432.75 C 584.25 421.5 584.25 416.625 581 411.375 C 578.5 407.375 573.5 402.375 557.5 402.375 C 546.75 402.375 540.125 404.375 533 406.5 L 532.25 407.5 L 531.625 421.125 L 532.625 421.625 C 537 419.875 545.125 416.625 553.5 416.625 C 558.125 416.625 560 417.375 561.625 419 C 562.875 420.25 563.25 422.5 563.25 424.375 C 548.25 426.375 541.25 427.75 533.75 432.375 C 526.75 436.75 524.375 443.875 524.375 449.5 C 524.375 462.875 534 471.5 546.25 471.5 C 555.625 471.5 561 467 563.625 464.875 L 563.625 469.5 L 564.375 470.375 C 573.375 470 576.125 469.875 584.25 470 L 584.875 469.125 C 584 456.875 584 453.75 584 442 L 584.125 432.75 M 563.5 452.625 C 560.875 454.125 557.5 455.875 553.375 455.875 C 548.875 455.875 545.125 453.5 545.125 448.25 C 545.125 440 555 438.625 563.5 437.5 Z M 660 469.125 C 659.375 458.125 659.375 454.625 659.125 442.375 L 659.125 432.625 C 659 420.625 658.875 414.875 655.75 409.75 C 651.875 403.25 644.75 402.25 640.25 402.25 C 632.625 402.25 626 406.25 620.25 409.625 L 620.5 402.75 L 619.25 401.875 C 609.625 403.875 607.5 404.25 598.125 405.5 L 597.375 406.375 C 598.375 417.25 599.125 425.125 599.125 445.5 C 599.125 453.5 599 461.5 598.875 469.5 L 599.625 470.25 C 608.625 469.875 610.5 469.875 620.5 469.875 L 621.25 469.125 C 620.5 449.875 620.375 445 620.25 422.625 C 622.875 420.875 625.875 418.75 629.875 418.75 C 636.75 418.75 637.375 426.125 637.75 430.625 C 638 434.75 638.125 451.875 638.125 456.625 C 638.125 460.875 638 465.25 638 469.5 L 638.75 470.25 C 647 470 649.125 469.875 659.125 469.875 Z M 730.125 403.375 L 712.75 403.75 L 711.75 404.625 C 709.625 413.25 709.125 415.125 706.125 424.875 L 702.875 435.625 L 700.125 445 L 697.75 436.125 L 694.125 422.875 L 689.125 403.875 L 688.125 403.125 C 678.375 403.875 676.25 404 666 404.25 L 665.375 405.125 C 669.875 417 681.5 448.375 689.25 472.375 C 684.125 485.375 683.125 487.625 677.5 500 L 678.125 501 C 681.25 500.875 684.75 500.75 688 500.75 C 691.125 500.75 694.375 500.875 697.5 500.875 L 698.375 500.125 C 705.25 473.125 708.625 462.625 725.125 419.125 C 727 414.125 728.875 409.25 730.625 404.375 Z M 729.25 470 "/>
<path fill-rule="nonzero" fill="rgb(34.901961%, 14.901961%, 14.901961%)" fill-opacity="1" d="M 86.75 585.625 C 95.125 599.875 97 603.625 105 620 L 106 620.625 C 109.875 620.375 113.625 620.125 117.5 620 C 121.375 619.875 125.375 619.75 129.25 619.75 L 130 618.25 C 125.25 612.125 123.875 610.25 114.875 595.875 C 110.875 589.5 108.875 586.125 105.75 580.625 C 111.375 578.125 122.75 572.875 122.75 557 C 122.75 551.5 121.25 540.125 111 534.75 C 104.5 531.375 97.75 531.25 83.125 531.5 L 74.375 531.625 L 59.125 531.625 L 58.5 532.375 C 59 545 59.5 558 59.5 592 C 59.5 603.625 59.375 609.25 59 619.625 L 59.75 620.375 C 68.875 620 70.875 619.875 81.125 620 L 81.875 619.25 C 80.875 604.75 80.75 600.75 80.625 585.875 L 86.75 585.625 M 80.875 546.75 C 82.625 546.625 84.375 546.625 86.125 546.625 C 91 546.625 100.625 546.625 100.625 557.625 C 100.625 561.125 99.75 565.75 95.125 568.625 C 91.625 570.75 87.125 571 80.875 571.125 Z M 192.125 601.5 C 187.375 604 181.75 606.875 172.625 606.875 C 165.125 606.875 160 604.5 157 600 C 155.125 597.375 154.75 594.875 154.25 592.375 L 194.625 591.625 L 195.375 590.75 C 195.25 584.625 195.125 578.375 193.375 572.125 C 189 557.375 179.375 554.375 175.125 553.375 C 172 552.5 169.125 552.25 166.25 552.25 C 146.625 552.25 133.625 565.125 133.625 586.75 C 133.625 592.625 134.625 598.75 136.625 603.125 C 143.875 620 160.875 621.5 169.875 621.5 C 180.25 621.5 184.75 619.625 191.375 617 L 192.125 616 L 193 601.875 L 192.125 601.5 M 154.25 579.125 C 154.625 575.25 155.5 570 160.25 567 C 161.75 566 163.5 565.625 165.25 565.625 C 169.375 565.625 171.875 567.75 173.25 570 C 175 572.75 175.125 575.75 175.125 578.625 Z M 233.125 576.875 C 228.875 575.375 225.5 574 225.5 570.5 C 225.5 569 226.5 564.875 234.25 564.875 C 241.875 564.875 246.75 568.125 249.875 570.125 L 251 569.75 L 252.25 556.125 L 251.625 555.375 C 245.75 553.75 240.625 552.25 232.5 552.25 C 226.375 552.25 214.125 552.75 207.625 562.125 C 206 564.375 204.25 568.125 204.25 573.125 C 204.25 586.5 214.625 590.5 220.5 592.75 L 225.25 594.5 C 228.625 595.625 234.125 597.5 234.125 602 C 234.125 605.125 231.25 608.5 224.25 608.5 C 220.75 608.5 215.625 607.375 211 605 C 208.875 603.875 207.875 603 206 601.5 L 204.875 602 C 204.625 608.5 204.5 609.875 204 616.125 L 204.625 617.25 C 210.75 619.5 216 621.5 225.125 621.5 C 234.625 621.5 253.375 619.75 255.625 601.875 C 255.75 600.875 255.75 600 255.75 599.125 C 255.75 585.375 246.125 581.75 239.25 579.125 Z M 322.25 601.5 C 317.5 604 311.875 606.875 302.75 606.875 C 295.25 606.875 290.125 604.5 287.125 600 C 285.25 597.375 284.875 594.875 284.375 592.375 L 324.75 591.625 L 325.5 590.75 C 325.375 584.625 325.25 578.375 323.5 572.125 C 319.125 557.375 309.5 554.375 305.25 553.375 C 302.125 552.5 299.25 552.25 296.375 552.25 C 276.75 552.25 263.75 565.125 263.75 586.75 C 263.75 592.625 264.75 598.75 266.75 603.125 C 274 620 291 621.5 300 621.5 C 310.375 621.5 314.875 619.625 321.5 617 L 322.25 616 L 323.125 601.875 L 322.25 601.5 M 284.375 579.125 C 284.75 575.25 285.625 570 290.375 567 C 291.875 566 293.625 565.625 295.375 565.625 C 299.5 565.625 302 567.75 303.375 570 C 305.125 572.75 305.25 575.75 305.25 578.625 Z M 373.125 573.625 L 376.625 553.25 L 375.875 552.375 C 375 552.375 374.125 552.25 373.25 552.25 C 368.125 552.25 362.375 555.125 358.375 564.375 L 358.75 552.875 L 357.75 551.875 C 348.5 553.875 346.125 554.25 337 555.625 L 336.25 556.375 C 337 565.75 337.375 571.375 337.375 588.75 C 337.375 599 337.25 609.25 337 619.625 L 337.75 620.375 C 347 620 349 619.875 359 620 L 359.625 619.125 C 359.125 609 358.375 594.875 358.375 586.25 C 358.375 580.625 358.375 572.375 366.875 572.375 C 369 572.375 370.25 573.125 372 574.125 Z M 418.375 619 C 422.375 606.5 424.75 598.75 427.375 590.875 C 430.75 580.75 436.25 564.5 439.75 554.25 L 439.125 553.375 L 421.625 553.75 L 420.75 554.625 C 419 563 418.625 564.75 416.125 574.5 L 409.75 599.125 L 406.625 585.625 L 404.25 576 C 401.125 564.375 400.625 562 398.875 553.75 L 398 553 C 388.125 554.125 385.625 554.25 376.125 554.375 L 375.625 555.375 C 392.25 604.625 393.625 609.25 396.375 619.5 L 397.25 620.375 C 405.375 620 408.625 619.875 417.625 620 Z M 510 586.75 C 510 581.875 510 561.625 492.5 554.75 C 487 552.625 480.5 552.375 477.25 552.375 C 455.5 552.375 443.25 564 443.25 587 C 443.25 595 444.5 603.125 449.125 609.875 C 452.375 614.75 458.5 621.5 476.375 621.5 C 502.875 621.5 510 605.5 510 586.75 M 488.375 586.625 C 488.375 596.875 487 608.25 476.625 608.25 C 473.375 608.25 471.125 606.75 469.625 605.375 C 467.5 603.25 465.125 599 465.125 586.875 C 465.125 583.25 465.125 575.25 467.625 570.875 C 469.5 567.5 472.75 565.25 476.75 565.25 C 480.25 565.25 483.125 567.125 484.75 569.125 C 487.75 572.75 488.375 579.875 488.375 586.625 Z M 544.5 619.125 C 543.875 609.5 543.375 602.125 543.375 584.875 C 543.375 574.25 543.625 563.5 543.75 552.875 L 542.875 551.875 L 521.375 555.625 L 520.625 556.375 C 521.625 565.875 522 570.25 522 588 C 522 601.625 521.625 609.25 521.25 619.5 L 522 620.375 C 531 620 533.5 619.875 543.625 620 L 544.5 619.125 M 542.5 539.875 L 542.875 522.875 L 542.125 522.125 L 521.75 524.625 L 521 525.5 C 521.25 530 521.375 532.625 521.375 535.625 C 521.375 538 521.375 540.5 521.25 542.875 L 522.125 543.625 C 530.625 542.125 533 541.875 541.875 540.75 Z M 594.5 573.625 L 598 553.25 L 597.25 552.375 C 596.375 552.375 595.5 552.25 594.625 552.25 C 589.5 552.25 583.75 555.125 579.75 564.375 L 580.125 552.875 L 579.125 551.875 C 569.875 553.875 567.5 554.25 558.375 555.625 L 557.625 556.375 C 558.375 565.75 558.75 571.375 558.75 588.75 C 558.75 599 558.625 609.25 558.375 619.625 L 559.125 620.375 C 568.375 620 570.375 619.875 580.375 620 L 581 619.125 C 580.5 609 579.75 594.875 579.75 586.25 C 579.75 580.625 579.75 572.375 588.25 572.375 C 590.375 572.375 591.625 573.125 593.375 574.125 Z M 677.875 566.25 C 667.375 561.875 661.875 559.625 661.875 554 C 661.875 550.125 665.5 545.25 673.75 545.25 C 683.25 545.25 688.875 549.125 693.5 552.25 L 694.625 551.75 L 695.625 535.375 L 695 534.5 C 689.625 532.25 684 529.875 671.875 529.875 C 648.375 529.875 640.25 543.125 640.25 556.5 C 640.25 571.625 652 577.125 659 580.5 L 663.125 582.375 C 671.75 586 678.375 589.125 678.375 595.75 C 678.375 600.5 674.25 606.125 663.375 606.125 C 652 606.125 645.625 601.125 642 598.25 L 640.75 598.625 L 639.875 616.25 L 640.625 617.25 C 642 617.75 643.375 618.375 644.75 618.75 C 647.625 619.75 655 621.875 664.375 621.875 C 668.125 621.875 677.625 621.5 685.125 618 C 695.625 612.875 700.125 603.375 700.125 592.75 C 700.125 585.625 697.375 578 690.75 572.875 C 687.375 570.375 684.125 568.875 681.125 567.5 Z M 747 605.625 C 744.875 606.25 743.375 606.75 741.25 606.75 C 734.875 606.75 734.375 602.75 734.125 600.875 C 733.75 597.625 733.75 590.75 733.875 585.75 L 734.125 568.125 L 745.375 568.625 L 746.125 567.875 L 747.375 554.5 L 746.625 553.75 L 734.125 553.75 L 734.5 532.75 L 733.625 532 C 725.125 534.5 722.875 535.125 714 537.375 L 713.5 538.25 L 713.625 553.875 L 706.875 553.625 L 706.125 554.25 L 705 567.625 L 705.75 568.375 L 713.625 568.125 L 713.25 588 C 713.125 591.125 713 594.25 713 597.5 C 713 609 713.25 621.375 732.75 621.375 C 737.625 621.375 741.5 620.625 745.875 619.875 L 746.75 619 L 748 606.125 Z M 811.875 582.75 C 812 571.5 812 566.625 808.75 561.375 C 806.25 557.375 801.25 552.375 785.25 552.375 C 774.5 552.375 767.875 554.375 760.75 556.5 L 760 557.5 L 759.375 571.125 L 760.375 571.625 C 764.75 569.875 772.875 566.625 781.25 566.625 C 785.875 566.625 787.75 567.375 789.375 569 C 790.625 570.25 791 572.5 791 574.375 C 776 576.375 769 577.75 761.5 582.375 C 754.5 586.75 752.125 593.875 752.125 599.5 C 752.125 612.875 761.75 621.5 774 621.5 C 783.375 621.5 788.75 617 791.375 614.875 L 791.375 619.5 L 792.125 620.375 C 801.125 620 803.875 619.875 812 620 L 812.625 619.125 C 811.75 606.875 811.75 603.75 811.75 592 L 811.875 582.75 M 791.25 602.625 C 788.625 604.125 785.25 605.875 781.125 605.875 C 776.625 605.875 772.875 603.5 772.875 598.25 C 772.875 590 782.75 588.625 791.25 587.5 Z M 861.5 605.625 C 859.375 606.25 857.875 606.75 855.75 606.75 C 849.375 606.75 848.875 602.75 848.625 600.875 C 848.25 597.625 848.25 590.75 848.375 585.75 L 848.625 568.125 L 859.875 568.625 L 860.625 567.875 L 861.875 554.5 L 861.125 553.75 L 848.625 553.75 L 849 532.75 L 848.125 532 C 839.625 534.5 837.375 535.125 828.5 537.375 L 828 538.25 L 828.125 553.875 L 821.375 553.625 L 820.625 554.25 L 819.5 567.625 L 820.25 568.375 L 828.125 568.125 L 827.75 588 C 827.625 591.125 827.5 594.25 827.5 597.5 C 827.5 609 827.75 621.375 847.25 621.375 C 852.125 621.375 856 620.625 860.375 619.875 L 861.25 619 L 862.5 606.125 Z M 926.25 601.5 C 921.5 604 915.875 606.875 906.75 606.875 C 899.25 606.875 894.125 604.5 891.125 600 C 889.25 597.375 888.875 594.875 888.375 592.375 L 928.75 591.625 L 929.5 590.75 C 929.375 584.625 929.25 578.375 927.5 572.125 C 923.125 557.375 913.5 554.375 909.25 553.375 C 906.125 552.5 903.25 552.25 900.375 552.25 C 880.75 552.25 867.75 565.125 867.75 586.75 C 867.75 592.625 868.75 598.75 870.75 603.125 C 878 620 895 621.5 904 621.5 C 914.375 621.5 918.875 619.625 925.5 617 L 926.25 616 L 927.125 601.875 L 926.25 601.5 M 888.375 579.125 C 888.75 575.25 889.625 570 894.375 567 C 895.875 566 897.625 565.625 899.375 565.625 C 903.5 565.625 906 567.75 907.375 570 C 909.125 572.75 909.25 575.75 909.25 578.625 Z M 933.5 620 "/>
<path fill-rule="nonzero" fill="rgb(34.901961%, 14.901961%, 14.901961%)" fill-opacity="1" d="M 215.6875 735.625 C 224.0625 749.875 225.9375 753.625 233.9375 770 L 234.9375 770.625 C 238.8125 770.375 242.5625 770.125 246.4375 770 C 250.3125 769.875 254.3125 769.75 258.1875 769.75 L 258.9375 768.25 C 254.1875 762.125 252.8125 760.25 243.8125 745.875 C 239.8125 739.5 237.8125 736.125 234.6875 730.625 C 240.3125 728.125 251.6875 722.875 251.6875 707 C 251.6875 701.5 250.1875 690.125 239.9375 684.75 C 233.4375 681.375 226.6875 681.25 212.0625 681.5 L 203.3125 681.625 L 188.0625 681.625 L 187.4375 682.375 C 187.9375 695 188.4375 708 188.4375 742 C 188.4375 753.625 188.3125 759.25 187.9375 769.625 L 188.6875 770.375 C 197.8125 770 199.8125 769.875 210.0625 770 L 210.8125 769.25 C 209.8125 754.75 209.6875 750.75 209.5625 735.875 L 215.6875 735.625 M 209.8125 696.75 C 211.5625 696.625 213.3125 696.625 215.0625 696.625 C 219.9375 696.625 229.5625 696.625 229.5625 707.625 C 229.5625 711.125 228.6875 715.75 224.0625 718.625 C 220.5625 720.75 216.0625 721 209.8125 721.125 Z M 321.0625 751.5 C 316.3125 754 310.6875 756.875 301.5625 756.875 C 294.0625 756.875 288.9375 754.5 285.9375 750 C 284.0625 747.375 283.6875 744.875 283.1875 742.375 L 323.5625 741.625 L 324.3125 740.75 C 324.1875 734.625 324.0625 728.375 322.3125 722.125 C 317.9375 707.375 308.3125 704.375 304.0625 703.375 C 300.9375 702.5 298.0625 702.25 295.1875 702.25 C 275.5625 702.25 262.5625 715.125 262.5625 736.75 C 262.5625 742.625 263.5625 748.75 265.5625 753.125 C 272.8125 770 289.8125 771.5 298.8125 771.5 C 309.1875 771.5 313.6875 769.625 320.3125 767 L 321.0625 766 L 321.9375 751.875 L 321.0625 751.5 M 283.1875 729.125 C 283.5625 725.25 284.4375 720 289.1875 717 C 290.6875 716 292.4375 715.625 294.1875 715.625 C 298.3125 715.625 300.8125 717.75 302.1875 720 C 303.9375 722.75 304.0625 725.75 304.0625 728.625 Z M 384.6875 752 C 381.3125 754 378.0625 756 371.6875 756 C 357.5625 756 354.6875 744.25 354.6875 736.75 C 354.6875 727.625 358.6875 717.125 370.8125 717.125 C 376.3125 717.125 379.3125 719.125 383.0625 721.625 L 384.3125 721.25 C 384.8125 714.625 384.9375 712.875 385.9375 706.25 L 385.3125 705.5 C 379.8125 703.75 375.0625 702.25 367.8125 702.25 C 338.4375 702.25 332.6875 724.5 332.6875 737.25 C 332.6875 751.625 340.1875 771.125 368.3125 771.125 C 374.9375 771.125 379.1875 769.875 384.4375 768.375 L 385.1875 767.625 L 385.6875 752.625 Z M 431.8125 723.625 L 435.3125 703.25 L 434.5625 702.375 C 433.6875 702.375 432.8125 702.25 431.9375 702.25 C 426.8125 702.25 421.0625 705.125 417.0625 714.375 L 417.4375 702.875 L 416.4375 701.875 C 407.1875 703.875 404.8125 704.25 395.6875 705.625 L 394.9375 706.375 C 395.6875 715.75 396.0625 721.375 396.0625 738.75 C 396.0625 749 395.9375 759.25 395.6875 769.625 L 396.4375 770.375 C 405.6875 770 407.6875 769.875 417.6875 770 L 418.3125 769.125 C 417.8125 759 417.0625 744.875 417.0625 736.25 C 417.0625 730.625 417.0625 722.375 425.5625 722.375 C 427.6875 722.375 428.9375 723.125 430.6875 724.125 Z M 498.0625 751.5 C 493.3125 754 487.6875 756.875 478.5625 756.875 C 471.0625 756.875 465.9375 754.5 462.9375 750 C 461.0625 747.375 460.6875 744.875 460.1875 742.375 L 500.5625 741.625 L 501.3125 740.75 C 501.1875 734.625 501.0625 728.375 499.3125 722.125 C 494.9375 707.375 485.3125 704.375 481.0625 703.375 C 477.9375 702.5 475.0625 702.25 472.1875 702.25 C 452.5625 702.25 439.5625 715.125 439.5625 736.75 C 439.5625 742.625 440.5625 748.75 442.5625 753.125 C 449.8125 770 466.8125 771.5 475.8125 771.5 C 486.1875 771.5 490.6875 769.625 497.3125 767 L 498.0625 766 L 498.9375 751.875 L 498.0625 751.5 M 460.1875 729.125 C 460.5625 725.25 461.4375 720 466.1875 717 C 467.6875 716 469.4375 715.625 471.1875 715.625 C 475.3125 715.625 477.8125 717.75 479.1875 720 C 480.9375 722.75 481.0625 725.75 481.0625 728.625 Z M 568.4375 732.75 C 568.5625 721.5 568.5625 716.625 565.3125 711.375 C 562.8125 707.375 557.8125 702.375 541.8125 702.375 C 531.0625 702.375 524.4375 704.375 517.3125 706.5 L 516.5625 707.5 L 515.9375 721.125 L 516.9375 721.625 C 521.3125 719.875 529.4375 716.625 537.8125 716.625 C 542.4375 716.625 544.3125 717.375 545.9375 719 C 547.1875 720.25 547.5625 722.5 547.5625 724.375 C 532.5625 726.375 525.5625 727.75 518.0625 732.375 C 511.0625 736.75 508.6875 743.875 508.6875 749.5 C 508.6875 762.875 518.3125 771.5 530.5625 771.5 C 539.9375 771.5 545.3125 767 547.9375 764.875 L 547.9375 769.5 L 548.6875 770.375 C 557.6875 770 560.4375 769.875 568.5625 770 L 569.1875 769.125 C 568.3125 756.875 568.3125 753.75 568.3125 742 L 568.4375 732.75 M 547.8125 752.625 C 545.1875 754.125 541.8125 755.875 537.6875 755.875 C 533.1875 755.875 529.4375 753.5 529.4375 748.25 C 529.4375 740 539.3125 738.625 547.8125 737.5 Z M 618.0625 755.625 C 615.9375 756.25 614.4375 756.75 612.3125 756.75 C 605.9375 756.75 605.4375 752.75 605.1875 750.875 C 604.8125 747.625 604.8125 740.75 604.9375 735.75 L 605.1875 718.125 L 616.4375 718.625 L 617.1875 717.875 L 618.4375 704.5 L 617.6875 703.75 L 605.1875 703.75 L 605.5625 682.75 L 604.6875 682 C 596.1875 684.5 593.9375 685.125 585.0625 687.375 L 584.5625 688.25 L 584.6875 703.875 L 577.9375 703.625 L 577.1875 704.25 L 576.0625 717.625 L 576.8125 718.375 L 584.6875 718.125 L 584.3125 738 C 584.1875 741.125 584.0625 744.25 584.0625 747.5 C 584.0625 759 584.3125 771.375 603.8125 771.375 C 608.6875 771.375 612.5625 770.625 616.9375 769.875 L 617.8125 769 L 619.0625 756.125 Z M 649.9375 769.125 C 649.3125 759.5 648.8125 752.125 648.8125 734.875 C 648.8125 724.25 649.0625 713.5 649.1875 702.875 L 648.3125 701.875 L 626.8125 705.625 L 626.0625 706.375 C 627.0625 715.875 627.4375 720.25 627.4375 738 C 627.4375 751.625 627.0625 759.25 626.6875 769.5 L 627.4375 770.375 C 636.4375 770 638.9375 769.875 649.0625 770 L 649.9375 769.125 M 647.9375 689.875 L 648.3125 672.875 L 647.5625 672.125 L 627.1875 674.625 L 626.4375 675.5 C 626.6875 680 626.8125 682.625 626.8125 685.625 C 626.8125 688 626.8125 690.5 626.6875 692.875 L 627.5625 693.625 C 636.0625 692.125 638.4375 691.875 647.3125 690.75 Z M 727.4375 736.75 C 727.4375 731.875 727.4375 711.625 709.9375 704.75 C 704.4375 702.625 697.9375 702.375 694.6875 702.375 C 672.9375 702.375 660.6875 714 660.6875 737 C 660.6875 745 661.9375 753.125 666.5625 759.875 C 669.8125 764.75 675.9375 771.5 693.8125 771.5 C 720.3125 771.5 727.4375 755.5 727.4375 736.75 M 705.8125 736.625 C 705.8125 746.875 704.4375 758.25 694.0625 758.25 C 690.8125 758.25 688.5625 756.75 687.0625 755.375 C 684.9375 753.25 682.5625 749 682.5625 736.875 C 682.5625 733.25 682.5625 725.25 685.0625 720.875 C 686.9375 717.5 690.1875 715.25 694.1875 715.25 C 697.6875 715.25 700.5625 717.125 702.1875 719.125 C 705.1875 722.75 705.8125 729.875 705.8125 736.625 Z M 800.5625 769.125 C 799.9375 758.125 799.9375 754.625 799.6875 742.375 L 799.6875 732.625 C 799.5625 720.625 799.4375 714.875 796.3125 709.75 C 792.4375 703.25 785.3125 702.25 780.8125 702.25 C 773.1875 702.25 766.5625 706.25 760.8125 709.625 L 761.0625 702.75 L 759.8125 701.875 C 750.1875 703.875 748.0625 704.25 738.6875 705.5 L 737.9375 706.375 C 738.9375 717.25 739.6875 725.125 739.6875 745.5 C 739.6875 753.5 739.5625 761.5 739.4375 769.5 L 740.1875 770.25 C 749.1875 769.875 751.0625 769.875 761.0625 769.875 L 761.8125 769.125 C 761.0625 749.875 760.9375 745 760.8125 722.625 C 763.4375 720.875 766.4375 718.75 770.4375 718.75 C 777.3125 718.75 777.9375 726.125 778.3125 730.625 C 778.5625 734.75 778.6875 751.875 778.6875 756.625 C 778.6875 760.875 778.5625 765.25 778.5625 769.5 L 779.3125 770.25 C 787.5625 770 789.6875 769.875 799.6875 769.875 Z M 807.3125 770 "/>
<path fill-rule="nonzero" fill="rgb(34.901961%, 14.901961%, 14.901961%)" fill-opacity="1" d="M 412.4375 831.375 C 400.4375 831.75 397.9375 831.75 384.5625 831.75 L 383.6875 832.5 C 377.0625 853.75 373.0625 866.375 354.6875 919.125 L 355.1875 920 L 374.6875 920 L 375.5625 919.25 L 381.6875 896.5 L 408.6875 896.5 L 414.0625 919.625 L 414.9375 920.375 C 424.0625 920 426.5625 919.875 436.6875 920 L 437.3125 919 C 422.1875 865.5 420.4375 859.625 413.3125 832.125 L 412.4375 831.375 M 386.0625 881.375 L 392.3125 860.25 L 396.6875 845.625 L 400.4375 861.875 L 405.0625 881.375 Z M 481.4375 873.625 L 484.9375 853.25 L 484.1875 852.375 C 483.3125 852.375 482.4375 852.25 481.5625 852.25 C 476.4375 852.25 470.6875 855.125 466.6875 864.375 L 467.0625 852.875 L 466.0625 851.875 C 456.8125 853.875 454.4375 854.25 445.3125 855.625 L 444.5625 856.375 C 445.3125 865.75 445.6875 871.375 445.6875 888.75 C 445.6875 899 445.5625 909.25 445.3125 919.625 L 446.0625 920.375 C 455.3125 920 457.3125 919.875 467.3125 920 L 467.9375 919.125 C 467.4375 909 466.6875 894.875 466.6875 886.25 C 466.6875 880.625 466.6875 872.375 475.1875 872.375 C 477.3125 872.375 478.5625 873.125 480.3125 874.125 Z M 547.6875 901.5 C 542.9375 904 537.3125 906.875 528.1875 906.875 C 520.6875 906.875 515.5625 904.5 512.5625 900 C 510.6875 897.375 510.3125 894.875 509.8125 892.375 L 550.1875 891.625 L 550.9375 890.75 C 550.8125 884.625 550.6875 878.375 548.9375 872.125 C 544.5625 857.375 534.9375 854.375 530.6875 853.375 C 527.5625 852.5 524.6875 852.25 521.8125 852.25 C 502.1875 852.25 489.1875 865.125 489.1875 886.75 C 489.1875 892.625 490.1875 898.75 492.1875 903.125 C 499.4375 920 516.4375 921.5 525.4375 921.5 C 535.8125 921.5 540.3125 919.625 546.9375 917 L 547.6875 916 L 548.5625 901.875 L 547.6875 901.5 M 509.8125 879.125 C 510.1875 875.25 511.0625 870 515.8125 867 C 517.3125 866 519.0625 865.625 520.8125 865.625 C 524.9375 865.625 527.4375 867.75 528.8125 870 C 530.5625 872.75 530.6875 875.75 530.6875 878.625 Z M 618.0625 882.75 C 618.1875 871.5 618.1875 866.625 614.9375 861.375 C 612.4375 857.375 607.4375 852.375 591.4375 852.375 C 580.6875 852.375 574.0625 854.375 566.9375 856.5 L 566.1875 857.5 L 565.5625 871.125 L 566.5625 871.625 C 570.9375 869.875 579.0625 866.625 587.4375 866.625 C 592.0625 866.625 593.9375 867.375 595.5625 869 C 596.8125 870.25 597.1875 872.5 597.1875 874.375 C 582.1875 876.375 575.1875 877.75 567.6875 882.375 C 560.6875 886.75 558.3125 893.875 558.3125 899.5 C 558.3125 912.875 567.9375 921.5 580.1875 921.5 C 589.5625 921.5 594.9375 917 597.5625 914.875 L 597.5625 919.5 L 598.3125 920.375 C 607.3125 920 610.0625 919.875 618.1875 920 L 618.8125 919.125 C 617.9375 906.875 617.9375 903.75 617.9375 892 L 618.0625 882.75 M 597.4375 902.625 C 594.8125 904.125 591.4375 905.875 587.3125 905.875 C 582.8125 905.875 579.0625 903.5 579.0625 898.25 C 579.0625 890 588.9375 888.625 597.4375 887.5 Z M 625.1875 920 "/>
</svg>
