<?xml version="1.0" encoding="UTF-8"?>
<svg xmlns="http://www.w3.org/2000/svg" xmlns:xlink="http://www.w3.org/1999/xlink" width="975" height="1300" viewBox="0 0 975 1300">
<path fill-rule="nonzero" fill="rgb(34.901961%, 14.901961%, 14.901961%)" fill-opacity="1" d="M 277.3125 491.25 C 266.8125 486.875 261.3125 484.625 261.3125 479 C 261.3125 475.125 264.9375 470.25 273.1875 470.25 C 282.6875 470.25 288.3125 474.125 292.9375 477.25 L 294.0625 476.75 L 295.0625 460.375 L 294.4375 459.5 C 289.0625 457.25 283.4375 454.875 271.3125 454.875 C 247.8125 454.875 239.6875 468.125 239.6875 481.5 C 239.6875 496.625 251.4375 502.125 258.4375 505.5 L 262.5625 507.375 C 271.1875 511 277.8125 514.125 277.8125 520.75 C 277.8125 525.5 273.6875 531.125 262.8125 531.125 C 251.4375 531.125 245.0625 526.125 241.4375 523.25 L 240.1875 523.625 L 239.3125 541.25 L 240.0625 542.25 C 241.4375 542.75 242.8125 543.375 244.1875 543.75 C 247.0625 544.75 254.4375 546.875 263.8125 546.875 C 267.5625 546.875 277.0625 546.5 284.5625 543 C 295.0625 537.875 299.5625 528.375 299.5625 517.75 C 299.5625 510.625 296.8125 503 290.1875 497.875 C 286.8125 495.375 283.5625 493.875 280.5625 492.5 Z M 367.0625 507.75 C 367.1875 496.5 367.1875 491.625 363.9375 486.375 C 361.4375 482.375 356.4375 477.375 340.4375 477.375 C 329.6875 477.375 323.0625 479.375 315.9375 481.5 L 315.1875 482.5 L 314.5625 496.125 L 315.5625 496.625 C 319.9375 494.875 328.0625 491.625 336.4375 491.625 C 341.0625 491.625 342.9375 492.375 344.5625 494 C 345.8125 495.25 346.1875 497.5 346.1875 499.375 C 331.1875 501.375 324.1875 502.75 316.6875 507.375 C 309.6875 511.75 307.3125 518.875 307.3125 524.5 C 307.3125 537.875 316.9375 546.5 329.1875 546.5 C 338.5625 546.5 343.9375 542 346.5625 539.875 L 346.5625 544.5 L 347.3125 545.375 C 356.3125 545 359.0625 544.875 367.1875 545 L 367.8125 544.125 C 366.9375 531.875 366.9375 528.75 366.9375 517 L 367.0625 507.75 M 346.4375 527.625 C 343.8125 529.125 340.4375 530.875 336.3125 530.875 C 331.8125 530.875 328.0625 528.5 328.0625 523.25 C 328.0625 515 337.9375 513.625 346.4375 512.5 Z M 442.9375 544.125 C 442.3125 533.125 442.3125 529.625 442.0625 517.375 L 442.0625 507.625 C 441.9375 495.625 441.8125 489.875 438.6875 484.75 C 434.8125 478.25 427.6875 477.25 423.1875 477.25 C 415.5625 477.25 408.9375 481.25 403.1875 484.625 L 403.4375 477.75 L 402.1875 476.875 C 392.5625 478.875 390.4375 479.25 381.0625 480.5 L 380.3125 481.375 C 381.3125 492.25 382.0625 500.125 382.0625 520.5 C 382.0625 528.5 381.9375 536.5 381.8125 544.5 L 382.5625 545.25 C 391.5625 544.875 393.4375 544.875 403.4375 544.875 L 404.1875 544.125 C 403.4375 524.875 403.3125 520 403.1875 497.625 C 405.8125 495.875 408.8125 493.75 412.8125 493.75 C 419.6875 493.75 420.3125 501.125 420.6875 505.625 C 420.9375 509.75 421.0625 526.875 421.0625 531.625 C 421.0625 535.875 420.9375 540.25 420.9375 544.5 L 421.6875 545.25 C 429.9375 545 432.0625 544.875 442.0625 544.875 Z M 486.5625 545.25 C 489.6875 545.5 492.0625 545.75 494.9375 545.75 C 523.1875 545.75 523.1875 528.75 523.1875 516.25 C 523.1875 513.125 523.0625 510 522.9375 506.875 L 522.9375 457.125 L 522.3125 456.375 C 512.6875 456.75 510.6875 456.75 500.3125 456.75 L 499.6875 457.5 C 500.3125 475.25 500.8125 490.625 500.8125 508.75 C 500.8125 520.25 500.8125 529.125 491.1875 529.125 C 489.3125 529.125 488.3125 528.75 486.6875 528.25 L 485.9375 529 L 485.9375 544.375 Z M 597.9375 478.125 L 577.5625 479.125 L 576.6875 479.875 C 577.5625 494 577.5625 514 577.5625 516 C 577.5625 519.625 577.5625 521.625 577.4375 526.625 C 574.0625 528.875 571.4375 530.75 568.0625 530.75 C 559.0625 530.75 559.0625 521.25 559.0625 513.875 C 559.0625 510.75 559.0625 507.5 559.1875 504.375 L 559.4375 479.125 L 558.5625 478.125 L 537.9375 479.125 L 537.0625 479.875 C 537.8125 490.375 537.9375 493.875 537.9375 506.5 L 537.9375 515.25 C 537.8125 528.875 538.4375 534.625 542.9375 539.875 C 547.0625 544.5 553.0625 546.5 559.3125 546.5 C 568.1875 546.5 573.3125 542.5 577.8125 539 L 577.6875 544.625 L 578.5625 545.375 C 587.6875 545 590.4375 545 598.5625 545 L 599.3125 544.25 C 598.6875 535.375 598.4375 530.625 598.4375 514.375 C 598.4375 502.625 598.5625 490.875 598.8125 479.125 Z M 669.0625 507.75 C 669.1875 496.5 669.1875 491.625 665.9375 486.375 C 663.4375 482.375 658.4375 477.375 642.4375 477.375 C 631.6875 477.375 625.0625 479.375 617.9375 481.5 L 617.1875 482.5 L 616.5625 496.125 L 617.5625 496.625 C 621.9375 494.875 630.0625 491.625 638.4375 491.625 C 643.0625 491.625 644.9375 492.375 646.5625 494 C 647.8125 495.25 648.1875 497.5 648.1875 499.375 C 633.1875 501.375 626.1875 502.75 618.6875 507.375 C 611.6875 511.75 609.3125 518.875 609.3125 524.5 C 609.3125 537.875 618.9375 546.5 631.1875 546.5 C 640.5625 546.5 645.9375 542 648.5625 539.875 L 648.5625 544.5 L 649.3125 545.375 C 658.3125 545 661.0625 544.875 669.1875 545 L 669.8125 544.125 C 668.9375 531.875 668.9375 528.75 668.9375 517 L 669.0625 507.75 M 648.4375 527.625 C 645.8125 529.125 642.4375 530.875 638.3125 530.875 C 633.8125 530.875 630.0625 528.5 630.0625 523.25 C 630.0625 515 639.9375 513.625 648.4375 512.5 Z M 744.9375 544.125 C 744.3125 533.125 744.3125 529.625 744.0625 517.375 L 744.0625 507.625 C 743.9375 495.625 743.8125 489.875 740.6875 484.75 C 736.8125 478.25 729.6875 477.25 725.1875 477.25 C 717.5625 477.25 710.9375 481.25 705.1875 484.625 L 705.4375 477.75 L 704.1875 476.875 C 694.5625 478.875 692.4375 479.25 683.0625 480.5 L 682.3125 481.375 C 683.3125 492.25 684.0625 500.125 684.0625 520.5 C 684.0625 528.5 683.9375 536.5 683.8125 544.5 L 684.5625 545.25 C 693.5625 544.875 695.4375 544.875 705.4375 544.875 L 706.1875 544.125 C 705.4375 524.875 705.3125 520 705.1875 497.625 C 707.8125 495.875 710.8125 493.75 714.8125 493.75 C 721.6875 493.75 722.3125 501.125 722.6875 505.625 C 722.9375 509.75 723.0625 526.875 723.0625 531.625 C 723.0625 535.875 722.9375 540.25 722.9375 544.5 L 723.6875 545.25 C 731.9375 545 734.0625 544.875 744.0625 544.875 Z M 751.6875 545 "/>
<path fill-rule="nonzero" fill="rgb(34.901961%, 14.901961%, 14.901961%)" fill-opacity="1" d="M 114.5 695 C 126.125 695.25 140.5 695.5 149.875 689 C 158.125 683.125 160.375 674.875 160.375 667.875 C 160.375 659.875 157 652.5 149.875 649 C 147.5 647.75 144.75 647.25 142.125 646.75 C 146.375 645 151.375 642.75 154.625 636.125 C 156 633.25 156.625 630.25 156.625 627.375 C 156.625 623.375 155.625 617.875 151.625 613.375 C 146.375 607.75 138.25 606.25 126 606.25 C 121.75 606.25 114.125 606.375 109.875 606.5 L 92.375 606.75 L 91.625 607.5 C 92.125 619.5 92.25 624.125 92.25 641.375 C 92.25 659.125 92.125 676.75 91.875 694.5 L 92.75 695 L 114.5 695 M 113.625 657 C 123.125 656.75 128.625 656.75 132.25 658.875 C 135.875 661.125 137.25 665.125 137.25 669.125 C 137.25 674.75 134.125 678.25 129.5 679.875 C 125.75 681.125 119 681.125 113.625 681 L 113.625 657 M 113.625 620.25 C 116.25 620.25 119.75 620.125 121.875 620.125 C 128.625 620.125 134.75 622.5 134.75 630.625 C 134.75 637.25 129.875 640 128.375 640.75 C 125.25 642.125 118.625 642.125 113.625 642.125 Z M 227.625 657.75 C 227.75 646.5 227.75 641.625 224.5 636.375 C 222 632.375 217 627.375 201 627.375 C 190.25 627.375 183.625 629.375 176.5 631.5 L 175.75 632.5 L 175.125 646.125 L 176.125 646.625 C 180.5 644.875 188.625 641.625 197 641.625 C 201.625 641.625 203.5 642.375 205.125 644 C 206.375 645.25 206.75 647.5 206.75 649.375 C 191.75 651.375 184.75 652.75 177.25 657.375 C 170.25 661.75 167.875 668.875 167.875 674.5 C 167.875 687.875 177.5 696.5 189.75 696.5 C 199.125 696.5 204.5 692 207.125 689.875 L 207.125 694.5 L 207.875 695.375 C 216.875 695 219.625 694.875 227.75 695 L 228.375 694.125 C 227.5 681.875 227.5 678.75 227.5 667 L 227.625 657.75 M 207 677.625 C 204.375 679.125 201 680.875 196.875 680.875 C 192.375 680.875 188.625 678.5 188.625 673.25 C 188.625 665 198.5 663.625 207 662.5 Z M 302.25 628.125 L 281.875 629.125 L 281 629.875 C 281.875 644 281.875 664 281.875 666 C 281.875 669.625 281.875 671.625 281.75 676.625 C 278.375 678.875 275.75 680.75 272.375 680.75 C 263.375 680.75 263.375 671.25 263.375 663.875 C 263.375 660.75 263.375 657.5 263.5 654.375 L 263.75 629.125 L 262.875 628.125 L 242.25 629.125 L 241.375 629.875 C 242.125 640.375 242.25 643.875 242.25 656.5 L 242.25 665.25 C 242.125 678.875 242.75 684.625 247.25 689.875 C 251.375 694.5 257.375 696.5 263.625 696.5 C 272.5 696.5 277.625 692.5 282.125 689 L 282 694.625 L 282.875 695.375 C 292 695 294.75 695 302.875 695 L 303.625 694.25 C 303 685.375 302.75 680.625 302.75 664.375 C 302.75 652.625 302.875 640.875 303.125 629.125 Z M 352.75 680.625 C 350.625 681.25 349.125 681.75 347 681.75 C 340.625 681.75 340.125 677.75 339.875 675.875 C 339.5 672.625 339.5 665.75 339.625 660.75 L 339.875 643.125 L 351.125 643.625 L 351.875 642.875 L 353.125 629.5 L 352.375 628.75 L 339.875 628.75 L 340.25 607.75 L 339.375 607 C 330.875 609.5 328.625 610.125 319.75 612.375 L 319.25 613.25 L 319.375 628.875 L 312.625 628.625 L 311.875 629.25 L 310.75 642.625 L 311.5 643.375 L 319.375 643.125 L 319 663 C 318.875 666.125 318.75 669.25 318.75 672.5 C 318.75 684 319 696.375 338.5 696.375 C 343.375 696.375 347.25 695.625 351.625 694.875 L 352.5 694 L 353.75 681.125 Z M 384.625 694.125 C 384 684.5 383.5 677.125 383.5 659.875 C 383.5 649.25 383.75 638.5 383.875 627.875 L 383 626.875 L 361.5 630.625 L 360.75 631.375 C 361.75 640.875 362.125 645.25 362.125 663 C 362.125 676.625 361.75 684.25 361.375 694.5 L 362.125 695.375 C 371.125 695 373.625 694.875 383.75 695 L 384.625 694.125 M 382.625 614.875 L 383 597.875 L 382.25 597.125 L 361.875 599.625 L 361.125 600.5 C 361.375 605 361.5 607.625 361.5 610.625 C 361.5 613 361.5 615.5 361.375 617.875 L 362.25 618.625 C 370.75 617.125 373.125 616.875 382 615.75 Z M 424.75 651.875 C 420.5 650.375 417.125 649 417.125 645.5 C 417.125 644 418.125 639.875 425.875 639.875 C 433.5 639.875 438.375 643.125 441.5 645.125 L 442.625 644.75 L 443.875 631.125 L 443.25 630.375 C 437.375 628.75 432.25 627.25 424.125 627.25 C 418 627.25 405.75 627.75 399.25 637.125 C 397.625 639.375 395.875 643.125 395.875 648.125 C 395.875 661.5 406.25 665.5 412.125 667.75 L 416.875 669.5 C 420.25 670.625 425.75 672.5 425.75 677 C 425.75 680.125 422.875 683.5 415.875 683.5 C 412.375 683.5 407.25 682.375 402.625 680 C 400.5 678.875 399.5 678 397.625 676.5 L 396.5 677 C 396.25 683.5 396.125 684.875 395.625 691.125 L 396.25 692.25 C 402.375 694.5 407.625 696.5 416.75 696.5 C 426.25 696.5 445 694.75 447.25 676.875 C 447.375 675.875 447.375 675 447.375 674.125 C 447.375 660.375 437.75 656.75 430.875 654.125 Z M 493.375 680.625 C 491.25 681.25 489.75 681.75 487.625 681.75 C 481.25 681.75 480.75 677.75 480.5 675.875 C 480.125 672.625 480.125 665.75 480.25 660.75 L 480.5 643.125 L 491.75 643.625 L 492.5 642.875 L 493.75 629.5 L 493 628.75 L 480.5 628.75 L 480.875 607.75 L 480 607 C 471.5 609.5 469.25 610.125 460.375 612.375 L 459.875 613.25 L 460 628.875 L 453.25 628.625 L 452.5 629.25 L 451.375 642.625 L 452.125 643.375 L 460 643.125 L 459.625 663 C 459.5 666.125 459.375 669.25 459.375 672.5 C 459.375 684 459.625 696.375 479.125 696.375 C 484 696.375 487.875 695.625 492.25 694.875 L 493.125 694 L 494.375 681.125 Z M 558.25 657.75 C 558.375 646.5 558.375 641.625 555.125 636.375 C 552.625 632.375 547.625 627.375 531.625 627.375 C 520.875 627.375 514.25 629.375 507.125 631.5 L 506.375 632.5 L 505.75 646.125 L 506.75 646.625 C 511.125 644.875 519.25 641.625 527.625 641.625 C 532.25 641.625 534.125 642.375 535.75 644 C 537 645.25 537.375 647.5 537.375 649.375 C 522.375 651.375 515.375 652.75 507.875 657.375 C 500.875 661.75 498.5 668.875 498.5 674.5 C 498.5 687.875 508.125 696.5 520.375 696.5 C 529.75 696.5 535.125 692 537.75 689.875 L 537.75 694.5 L 538.5 695.375 C 547.5 695 550.25 694.875 558.375 695 L 559 694.125 C 558.125 681.875 558.125 678.75 558.125 667 L 558.25 657.75 M 537.625 677.625 C 535 679.125 531.625 680.875 527.5 680.875 C 523 680.875 519.25 678.5 519.25 673.25 C 519.25 665 529.125 663.625 537.625 662.5 Z M 645.5 641.25 C 635 636.875 629.5 634.625 629.5 629 C 629.5 625.125 633.125 620.25 641.375 620.25 C 650.875 620.25 656.5 624.125 661.125 627.25 L 662.25 626.75 L 663.25 610.375 L 662.625 609.5 C 657.25 607.25 651.625 604.875 639.5 604.875 C 616 604.875 607.875 618.125 607.875 631.5 C 607.875 646.625 619.625 652.125 626.625 655.5 L 630.75 657.375 C 639.375 661 646 664.125 646 670.75 C 646 675.5 641.875 681.125 631 681.125 C 619.625 681.125 613.25 676.125 609.625 673.25 L 608.375 673.625 L 607.5 691.25 L 608.25 692.25 C 609.625 692.75 611 693.375 612.375 693.75 C 615.25 694.75 622.625 696.875 632 696.875 C 635.75 696.875 645.25 696.5 652.75 693 C 663.25 687.875 667.75 678.375 667.75 667.75 C 667.75 660.625 665 653 658.375 647.875 C 655 645.375 651.75 643.875 648.75 642.5 Z M 714.625 680.625 C 712.5 681.25 711 681.75 708.875 681.75 C 702.5 681.75 702 677.75 701.75 675.875 C 701.375 672.625 701.375 665.75 701.5 660.75 L 701.75 643.125 L 713 643.625 L 713.75 642.875 L 715 629.5 L 714.25 628.75 L 701.75 628.75 L 702.125 607.75 L 701.25 607 C 692.75 609.5 690.5 610.125 681.625 612.375 L 681.125 613.25 L 681.25 628.875 L 674.5 628.625 L 673.75 629.25 L 672.625 642.625 L 673.375 643.375 L 681.25 643.125 L 680.875 663 C 680.75 666.125 680.625 669.25 680.625 672.5 C 680.625 684 680.875 696.375 700.375 696.375 C 705.25 696.375 709.125 695.625 713.5 694.875 L 714.375 694 L 715.625 681.125 Z M 779.5 657.75 C 779.625 646.5 779.625 641.625 776.375 636.375 C 773.875 632.375 768.875 627.375 752.875 627.375 C 742.125 627.375 735.5 629.375 728.375 631.5 L 727.625 632.5 L 727 646.125 L 728 646.625 C 732.375 644.875 740.5 641.625 748.875 641.625 C 753.5 641.625 755.375 642.375 757 644 C 758.25 645.25 758.625 647.5 758.625 649.375 C 743.625 651.375 736.625 652.75 729.125 657.375 C 722.125 661.75 719.75 668.875 719.75 674.5 C 719.75 687.875 729.375 696.5 741.625 696.5 C 751 696.5 756.375 692 759 689.875 L 759 694.5 L 759.75 695.375 C 768.75 695 771.5 694.875 779.625 695 L 780.25 694.125 C 779.375 681.875 779.375 678.75 779.375 667 L 779.5 657.75 M 758.875 677.625 C 756.25 679.125 752.875 680.875 748.75 680.875 C 744.25 680.875 740.5 678.5 740.5 673.25 C 740.5 665 750.375 663.625 758.875 662.5 Z M 829.125 680.625 C 827 681.25 825.5 681.75 823.375 681.75 C 817 681.75 816.5 677.75 816.25 675.875 C 815.875 672.625 815.875 665.75 816 660.75 L 816.25 643.125 L 827.5 643.625 L 828.25 642.875 L 829.5 629.5 L 828.75 628.75 L 816.25 628.75 L 816.625 607.75 L 815.75 607 C 807.25 609.5 805 610.125 796.125 612.375 L 795.625 613.25 L 795.75 628.875 L 789 628.625 L 788.25 629.25 L 787.125 642.625 L 787.875 643.375 L 795.75 643.125 L 795.375 663 C 795.25 666.125 795.125 669.25 795.125 672.5 C 795.125 684 795.375 696.375 814.875 696.375 C 819.75 696.375 823.625 695.625 828 694.875 L 828.875 694 L 830.125 681.125 Z M 893.875 676.5 C 889.125 679 883.5 681.875 874.375 681.875 C 866.875 681.875 861.75 679.5 858.75 675 C 856.875 672.375 856.5 669.875 856 667.375 L 896.375 666.625 L 897.125 665.75 C 897 659.625 896.875 653.375 895.125 647.125 C 890.75 632.375 881.125 629.375 876.875 628.375 C 873.75 627.5 870.875 627.25 868 627.25 C 848.375 627.25 835.375 640.125 835.375 661.75 C 835.375 667.625 836.375 673.75 838.375 678.125 C 845.625 695 862.625 696.5 871.625 696.5 C 882 696.5 886.5 694.625 893.125 692 L 893.875 691 L 894.75 676.875 L 893.875 676.5 M 856 654.125 C 856.375 650.25 857.25 645 862 642 C 863.5 641 865.25 640.625 867 640.625 C 871.125 640.625 873.625 642.75 875 645 C 876.75 647.75 876.875 650.75 876.875 653.625 Z M 901.125 695 "/>
<path fill-rule="nonzero" fill="rgb(34.901961%, 14.901961%, 14.901961%)" fill-opacity="1" d="M 196.8125 756.375 C 186.8125 756.75 185.1875 756.75 174.6875 756.75 L 174.0625 757.5 C 174.9375 771.625 174.9375 775.25 175.0625 790 C 169.5625 790.125 164.0625 790.25 158.4375 790.25 C 154.0625 790.25 149.5625 790.125 145.1875 790.125 L 145.4375 757.125 L 144.8125 756.375 C 135.1875 756.75 133.3125 756.75 122.4375 756.75 L 121.6875 757.5 C 122.3125 770.375 123.0625 785.75 123.0625 816.75 C 123.0625 828 122.8125 834.125 122.5625 844.625 L 123.1875 845.375 C 132.3125 845 134.5625 844.875 145.5625 845 L 146.1875 844.25 C 145.4375 828.75 145.3125 824.25 145.1875 806.125 C 150.6875 805.875 155.3125 805.75 160.1875 805.75 C 165.1875 805.75 170.1875 805.875 175.1875 806 C 175.4375 822.875 175.4375 827 174.8125 844.625 L 175.4375 845.375 C 184.8125 845 187.3125 844.875 197.9375 845 L 198.5625 844.25 C 197.5625 823.25 197.1875 802.375 197.1875 781.375 C 197.1875 772.625 197.3125 766.75 197.4375 757.125 Z M 235.6875 844.125 C 235.0625 834.5 234.5625 827.125 234.5625 809.875 C 234.5625 799.25 234.8125 788.5 234.9375 777.875 L 234.0625 776.875 L 212.5625 780.625 L 211.8125 781.375 C 212.8125 790.875 213.1875 795.25 213.1875 813 C 213.1875 826.625 212.8125 834.25 212.4375 844.5 L 213.1875 845.375 C 222.1875 845 224.6875 844.875 234.8125 845 L 235.6875 844.125 M 233.6875 764.875 L 234.0625 747.875 L 233.3125 747.125 L 212.9375 749.625 L 212.1875 750.5 C 212.4375 755 212.5625 757.625 212.5625 760.625 C 212.5625 763 212.5625 765.5 212.4375 767.875 L 213.3125 768.625 C 221.8125 767.125 224.1875 766.875 233.0625 765.75 Z M 275.8125 801.875 C 271.5625 800.375 268.1875 799 268.1875 795.5 C 268.1875 794 269.1875 789.875 276.9375 789.875 C 284.5625 789.875 289.4375 793.125 292.5625 795.125 L 293.6875 794.75 L 294.9375 781.125 L 294.3125 780.375 C 288.4375 778.75 283.3125 777.25 275.1875 777.25 C 269.0625 777.25 256.8125 777.75 250.3125 787.125 C 248.6875 789.375 246.9375 793.125 246.9375 798.125 C 246.9375 811.5 257.3125 815.5 263.1875 817.75 L 267.9375 819.5 C 271.3125 820.625 276.8125 822.5 276.8125 827 C 276.8125 830.125 273.9375 833.5 266.9375 833.5 C 263.4375 833.5 258.3125 832.375 253.6875 830 C 251.5625 828.875 250.5625 828 248.6875 826.5 L 247.5625 827 C 247.3125 833.5 247.1875 834.875 246.6875 841.125 L 247.3125 842.25 C 253.4375 844.5 258.6875 846.5 267.8125 846.5 C 277.3125 846.5 296.0625 844.75 298.3125 826.875 C 298.4375 825.875 298.4375 825 298.4375 824.125 C 298.4375 810.375 288.8125 806.75 281.9375 804.125 Z M 344.4375 830.625 C 342.3125 831.25 340.8125 831.75 338.6875 831.75 C 332.3125 831.75 331.8125 827.75 331.5625 825.875 C 331.1875 822.625 331.1875 815.75 331.3125 810.75 L 331.5625 793.125 L 342.8125 793.625 L 343.5625 792.875 L 344.8125 779.5 L 344.0625 778.75 L 331.5625 778.75 L 331.9375 757.75 L 331.0625 757 C 322.5625 759.5 320.3125 760.125 311.4375 762.375 L 310.9375 763.25 L 311.0625 778.875 L 304.3125 778.625 L 303.5625 779.25 L 302.4375 792.625 L 303.1875 793.375 L 311.0625 793.125 L 310.6875 813 C 310.5625 816.125 310.4375 819.25 310.4375 822.5 C 310.4375 834 310.6875 846.375 330.1875 846.375 C 335.0625 846.375 338.9375 845.625 343.3125 844.875 L 344.1875 844 L 345.4375 831.125 Z M 417.3125 811.75 C 417.3125 806.875 417.3125 786.625 399.8125 779.75 C 394.3125 777.625 387.8125 777.375 384.5625 777.375 C 362.8125 777.375 350.5625 789 350.5625 812 C 350.5625 820 351.8125 828.125 356.4375 834.875 C 359.6875 839.75 365.8125 846.5 383.6875 846.5 C 410.1875 846.5 417.3125 830.5 417.3125 811.75 M 395.6875 811.625 C 395.6875 821.875 394.3125 833.25 383.9375 833.25 C 380.6875 833.25 378.4375 831.75 376.9375 830.375 C 374.8125 828.25 372.4375 824 372.4375 811.875 C 372.4375 808.25 372.4375 800.25 374.9375 795.875 C 376.8125 792.5 380.0625 790.25 384.0625 790.25 C 387.5625 790.25 390.4375 792.125 392.0625 794.125 C 395.0625 797.75 395.6875 804.875 395.6875 811.625 Z M 465.3125 798.625 L 468.8125 778.25 L 468.0625 777.375 C 467.1875 777.375 466.3125 777.25 465.4375 777.25 C 460.3125 777.25 454.5625 780.125 450.5625 789.375 L 450.9375 777.875 L 449.9375 776.875 C 440.6875 778.875 438.3125 779.25 429.1875 780.625 L 428.4375 781.375 C 429.1875 790.75 429.5625 796.375 429.5625 813.75 C 429.5625 824 429.4375 834.25 429.1875 844.625 L 429.9375 845.375 C 439.1875 845 441.1875 844.875 451.1875 845 L 451.8125 844.125 C 451.3125 834 450.5625 819.875 450.5625 811.25 C 450.5625 805.625 450.5625 797.375 459.0625 797.375 C 461.1875 797.375 462.4375 798.125 464.1875 799.125 Z M 498.6875 844.125 C 498.0625 834.5 497.5625 827.125 497.5625 809.875 C 497.5625 799.25 497.8125 788.5 497.9375 777.875 L 497.0625 776.875 L 475.5625 780.625 L 474.8125 781.375 C 475.8125 790.875 476.1875 795.25 476.1875 813 C 476.1875 826.625 475.8125 834.25 475.4375 844.5 L 476.1875 845.375 C 485.1875 845 487.6875 844.875 497.8125 845 L 498.6875 844.125 M 496.6875 764.875 L 497.0625 747.875 L 496.3125 747.125 L 475.9375 749.625 L 475.1875 750.5 C 475.4375 755 475.5625 757.625 475.5625 760.625 C 475.5625 763 475.5625 765.5 475.4375 767.875 L 476.3125 768.625 C 484.8125 767.125 487.1875 766.875 496.0625 765.75 Z M 561.4375 827 C 558.0625 829 554.8125 831 548.4375 831 C 534.3125 831 531.4375 819.25 531.4375 811.75 C 531.4375 802.625 535.4375 792.125 547.5625 792.125 C 553.0625 792.125 556.0625 794.125 559.8125 796.625 L 561.0625 796.25 C 561.5625 789.625 561.6875 787.875 562.6875 781.25 L 562.0625 780.5 C 556.5625 778.75 551.8125 777.25 544.5625 777.25 C 515.1875 777.25 509.4375 799.5 509.4375 812.25 C 509.4375 826.625 516.9375 846.125 545.0625 846.125 C 551.6875 846.125 555.9375 844.875 561.1875 843.375 L 561.9375 842.625 L 562.4375 827.625 Z M 625.6875 756.5 L 609.8125 756.75 L 609.0625 757.5 C 609.5625 773.75 609.9375 784.625 609.9375 799 C 609.9375 814.25 609.5625 829.375 609.1875 844.625 L 609.9375 845.375 C 619.1875 845 621.1875 844.875 631.1875 845 L 631.8125 844.25 C 631.3125 830.625 631.3125 827.5 631.3125 814.75 C 645.3125 814.875 660.3125 814.875 669.3125 803.875 C 672.8125 799.625 675.8125 792.5 675.8125 783.75 C 675.8125 778.375 674.5625 766.5 664.1875 760.625 C 656.6875 756.25 646.0625 756.25 636.6875 756.25 L 625.6875 756.5 M 631.3125 771.625 C 634.0625 771.5 636.6875 771.5 639.4375 771.5 C 650.4375 771.75 653.4375 777.375 653.4375 784.625 C 653.4375 786.375 653.4375 793.625 646.8125 797.25 C 643.4375 799.125 638.8125 799.375 631.3125 799.375 Z M 740.0625 807.75 C 740.1875 796.5 740.1875 791.625 736.9375 786.375 C 734.4375 782.375 729.4375 777.375 713.4375 777.375 C 702.6875 777.375 696.0625 779.375 688.9375 781.5 L 688.1875 782.5 L 687.5625 796.125 L 688.5625 796.625 C 692.9375 794.875 701.0625 791.625 709.4375 791.625 C 714.0625 791.625 715.9375 792.375 717.5625 794 C 718.8125 795.25 719.1875 797.5 719.1875 799.375 C 704.1875 801.375 697.1875 802.75 689.6875 807.375 C 682.6875 811.75 680.3125 818.875 680.3125 824.5 C 680.3125 837.875 689.9375 846.5 702.1875 846.5 C 711.5625 846.5 716.9375 842 719.5625 839.875 L 719.5625 844.5 L 720.3125 845.375 C 729.3125 845 732.0625 844.875 740.1875 845 L 740.8125 844.125 C 739.9375 831.875 739.9375 828.75 739.9375 817 L 740.0625 807.75 M 719.4375 827.625 C 716.8125 829.125 713.4375 830.875 709.3125 830.875 C 704.8125 830.875 701.0625 828.5 701.0625 823.25 C 701.0625 815 710.9375 813.625 719.4375 812.5 Z M 790.8125 798.625 L 794.3125 778.25 L 793.5625 777.375 C 792.6875 777.375 791.8125 777.25 790.9375 777.25 C 785.8125 777.25 780.0625 780.125 776.0625 789.375 L 776.4375 777.875 L 775.4375 776.875 C 766.1875 778.875 763.8125 779.25 754.6875 780.625 L 753.9375 781.375 C 754.6875 790.75 755.0625 796.375 755.0625 813.75 C 755.0625 824 754.9375 834.25 754.6875 844.625 L 755.4375 845.375 C 764.6875 845 766.6875 844.875 776.6875 845 L 777.3125 844.125 C 776.8125 834 776.0625 819.875 776.0625 811.25 C 776.0625 805.625 776.0625 797.375 784.5625 797.375 C 786.6875 797.375 787.9375 798.125 789.6875 799.125 Z M 865.8125 843.375 C 854.0625 823.5 852.8125 821.25 843.3125 804.125 C 851.9375 792.375 852.8125 791.125 861.6875 779.75 L 861.0625 778.5 L 840.6875 778.75 L 839.4375 779.625 C 829.6875 796.5 828.4375 798.5 822.6875 807.125 L 822.6875 793.25 C 822.8125 769.875 822.9375 764.875 823.5625 746 L 822.5625 745.25 L 800.8125 748.5 L 800.0625 749.375 C 800.9375 761.5 801.3125 767.375 801.5625 783.75 C 801.8125 804 801.8125 824.25 801.6875 844.5 L 802.5625 845.375 C 810.9375 845 813.3125 845 822.8125 845 L 823.5625 844.125 L 822.8125 823 L 822.6875 808.625 C 833.5625 828.625 834.9375 831.375 841.3125 844.625 L 842.4375 845.375 L 864.9375 844.5 Z M 864.3125 845 "/>
</svg>
