<?xml version="1.0" encoding="UTF-8"?>
<svg xmlns="http://www.w3.org/2000/svg" xmlns:xlink="http://www.w3.org/1999/xlink" width="975" height="1300" viewBox="0 0 975 1300">
<path fill-rule="nonzero" fill="rgb(34.901961%, 14.901961%, 14.901961%)" fill-opacity="1" d="M 140.9375 584 L 141.8125 583.25 L 142.8125 568.625 L 142.1875 567.875 L 113.6875 568.875 L 113.6875 548 L 144.3125 548.375 L 145.0625 547.5 L 146.4375 532 L 145.6875 531.375 C 125.0625 531.75 118.4375 531.75 91.4375 531.625 L 90.6875 532.375 C 91.4375 544.625 91.9375 554.5 91.9375 576.625 C 91.9375 591 91.6875 605.375 91.4375 619.75 L 92.0625 620.375 C 101.1875 620 103.3125 620 114.3125 620 L 114.9375 619.25 C 114.0625 604.875 113.9375 600.5 113.5625 584 Z M 192.0625 573.625 L 195.5625 553.25 L 194.8125 552.375 C 193.9375 552.375 193.0625 552.25 192.1875 552.25 C 187.0625 552.25 181.3125 555.125 177.3125 564.375 L 177.6875 552.875 L 176.6875 551.875 C 167.4375 553.875 165.0625 554.25 155.9375 555.625 L 155.1875 556.375 C 155.9375 565.75 156.3125 571.375 156.3125 588.75 C 156.3125 599 156.1875 609.25 155.9375 619.625 L 156.6875 620.375 C 165.9375 620 167.9375 619.875 177.9375 620 L 178.5625 619.125 C 178.0625 609 177.3125 594.875 177.3125 586.25 C 177.3125 580.625 177.3125 572.375 185.8125 572.375 C 187.9375 572.375 189.1875 573.125 190.9375 574.125 Z M 258.3125 601.5 C 253.5625 604 247.9375 606.875 238.8125 606.875 C 231.3125 606.875 226.1875 604.5 223.1875 600 C 221.3125 597.375 220.9375 594.875 220.4375 592.375 L 260.8125 591.625 L 261.5625 590.75 C 261.4375 584.625 261.3125 578.375 259.5625 572.125 C 255.1875 557.375 245.5625 554.375 241.3125 553.375 C 238.1875 552.5 235.3125 552.25 232.4375 552.25 C 212.8125 552.25 199.8125 565.125 199.8125 586.75 C 199.8125 592.625 200.8125 598.75 202.8125 603.125 C 210.0625 620 227.0625 621.5 236.0625 621.5 C 246.4375 621.5 250.9375 619.625 257.5625 617 L 258.3125 616 L 259.1875 601.875 L 258.3125 601.5 M 220.4375 579.125 C 220.8125 575.25 221.6875 570 226.4375 567 C 227.9375 566 229.6875 565.625 231.4375 565.625 C 235.5625 565.625 238.0625 567.75 239.4375 570 C 241.1875 572.75 241.3125 575.75 241.3125 578.625 Z M 370.6875 619.125 C 370.0625 607.5 369.9375 604.25 369.9375 590.125 L 369.9375 580.75 C 370.0625 572.375 370.1875 564.625 366.5625 559.375 C 361.6875 552.25 353.0625 552.25 351.0625 552.25 C 340.8125 552.25 333.9375 556.875 328.9375 560.375 C 327.1875 557.5 324.0625 552.25 314.0625 552.25 C 305.8125 552.25 300.4375 556 294.6875 560 L 294.6875 553 L 293.5625 551.875 C 283.8125 553.75 281.0625 554.25 272.3125 555.5 L 271.5625 556.375 C 272.5625 566.375 273.3125 573.25 273.3125 598 C 273.3125 605.125 273.1875 612.375 273.1875 619.5 L 273.8125 620.25 C 281.8125 620 284.5625 619.875 294.9375 619.875 L 295.6875 619.125 C 294.8125 599.875 294.6875 594.125 294.5625 572.375 C 297.1875 570.5 300.0625 568.875 303.1875 568.875 C 310.9375 568.875 311.1875 577.75 311.1875 588.5 C 311.1875 606.625 311.0625 609.375 310.8125 619.5 L 311.5625 620.375 C 321.0625 619.875 323.6875 619.875 332.3125 619.875 L 333.0625 619.125 C 332.3125 607.25 332.1875 603.75 332.0625 588.625 L 332.0625 584 L 331.9375 571.375 C 334.0625 570 336.8125 568.25 340.5625 568.25 C 347.6875 568.25 348.8125 575 348.8125 585.75 C 348.8125 588.125 348.6875 590.5 348.6875 592.875 C 348.5625 597.125 348.4375 615.75 348.3125 619.5 L 349.0625 620.25 C 358.4375 619.875 361.1875 619.875 369.9375 619.875 Z M 448.6875 586.75 C 448.6875 581.875 448.6875 561.625 431.1875 554.75 C 425.6875 552.625 419.1875 552.375 415.9375 552.375 C 394.1875 552.375 381.9375 564 381.9375 587 C 381.9375 595 383.1875 603.125 387.8125 609.875 C 391.0625 614.75 397.1875 621.5 415.0625 621.5 C 441.5625 621.5 448.6875 605.5 448.6875 586.75 M 427.0625 586.625 C 427.0625 596.875 425.6875 608.25 415.3125 608.25 C 412.0625 608.25 409.8125 606.75 408.3125 605.375 C 406.1875 603.25 403.8125 599 403.8125 586.875 C 403.8125 583.25 403.8125 575.25 406.3125 570.875 C 408.1875 567.5 411.4375 565.25 415.4375 565.25 C 418.9375 565.25 421.8125 567.125 423.4375 569.125 C 426.4375 572.75 427.0625 579.875 427.0625 586.625 Z M 521.8125 619.125 C 521.1875 608.125 521.1875 604.625 520.9375 592.375 L 520.9375 582.625 C 520.8125 570.625 520.6875 564.875 517.5625 559.75 C 513.6875 553.25 506.5625 552.25 502.0625 552.25 C 494.4375 552.25 487.8125 556.25 482.0625 559.625 L 482.3125 552.75 L 481.0625 551.875 C 471.4375 553.875 469.3125 554.25 459.9375 555.5 L 459.1875 556.375 C 460.1875 567.25 460.9375 575.125 460.9375 595.5 C 460.9375 603.5 460.8125 611.5 460.6875 619.5 L 461.4375 620.25 C 470.4375 619.875 472.3125 619.875 482.3125 619.875 L 483.0625 619.125 C 482.3125 599.875 482.1875 595 482.0625 572.625 C 484.6875 570.875 487.6875 568.75 491.6875 568.75 C 498.5625 568.75 499.1875 576.125 499.5625 580.625 C 499.8125 584.75 499.9375 601.875 499.9375 606.625 C 499.9375 610.875 499.8125 615.25 499.8125 619.5 L 500.5625 620.25 C 508.8125 620 510.9375 619.875 520.9375 619.875 Z M 571.0625 605.625 C 568.9375 606.25 567.4375 606.75 565.3125 606.75 C 558.9375 606.75 558.4375 602.75 558.1875 600.875 C 557.8125 597.625 557.8125 590.75 557.9375 585.75 L 558.1875 568.125 L 569.4375 568.625 L 570.1875 567.875 L 571.4375 554.5 L 570.6875 553.75 L 558.1875 553.75 L 558.5625 532.75 L 557.6875 532 C 549.1875 534.5 546.9375 535.125 538.0625 537.375 L 537.5625 538.25 L 537.6875 553.875 L 530.9375 553.625 L 530.1875 554.25 L 529.0625 567.625 L 529.8125 568.375 L 537.6875 568.125 L 537.3125 588 C 537.1875 591.125 537.0625 594.25 537.0625 597.5 C 537.0625 609 537.3125 621.375 556.8125 621.375 C 561.6875 621.375 565.5625 620.625 569.9375 619.875 L 570.8125 619 L 572.0625 606.125 Z M 633.5625 531.5 L 617.6875 531.75 L 616.9375 532.5 C 617.4375 548.75 617.8125 559.625 617.8125 574 C 617.8125 589.25 617.4375 604.375 617.0625 619.625 L 617.8125 620.375 C 627.0625 620 629.0625 619.875 639.0625 620 L 639.6875 619.25 C 639.1875 605.625 639.1875 602.5 639.1875 589.75 C 653.1875 589.875 668.1875 589.875 677.1875 578.875 C 680.6875 574.625 683.6875 567.5 683.6875 558.75 C 683.6875 553.375 682.4375 541.5 672.0625 535.625 C 664.5625 531.25 653.9375 531.25 644.5625 531.25 L 633.5625 531.5 M 639.1875 546.625 C 641.9375 546.5 644.5625 546.5 647.3125 546.5 C 658.3125 546.75 661.3125 552.375 661.3125 559.625 C 661.3125 561.375 661.3125 568.625 654.6875 572.25 C 651.3125 574.125 646.6875 574.375 639.1875 574.375 Z M 747.8125 601.5 C 743.0625 604 737.4375 606.875 728.3125 606.875 C 720.8125 606.875 715.6875 604.5 712.6875 600 C 710.8125 597.375 710.4375 594.875 709.9375 592.375 L 750.3125 591.625 L 751.0625 590.75 C 750.9375 584.625 750.8125 578.375 749.0625 572.125 C 744.6875 557.375 735.0625 554.375 730.8125 553.375 C 727.6875 552.5 724.8125 552.25 721.9375 552.25 C 702.3125 552.25 689.3125 565.125 689.3125 586.75 C 689.3125 592.625 690.3125 598.75 692.3125 603.125 C 699.5625 620 716.5625 621.5 725.5625 621.5 C 735.9375 621.5 740.4375 619.625 747.0625 617 L 747.8125 616 L 748.6875 601.875 L 747.8125 601.5 M 709.9375 579.125 C 710.3125 575.25 711.1875 570 715.9375 567 C 717.4375 566 719.1875 565.625 720.9375 565.625 C 725.0625 565.625 727.5625 567.75 728.9375 570 C 730.6875 572.75 730.8125 575.75 730.8125 578.625 Z M 818.1875 582.75 C 818.3125 571.5 818.3125 566.625 815.0625 561.375 C 812.5625 557.375 807.5625 552.375 791.5625 552.375 C 780.8125 552.375 774.1875 554.375 767.0625 556.5 L 766.3125 557.5 L 765.6875 571.125 L 766.6875 571.625 C 771.0625 569.875 779.1875 566.625 787.5625 566.625 C 792.1875 566.625 794.0625 567.375 795.6875 569 C 796.9375 570.25 797.3125 572.5 797.3125 574.375 C 782.3125 576.375 775.3125 577.75 767.8125 582.375 C 760.8125 586.75 758.4375 593.875 758.4375 599.5 C 758.4375 612.875 768.0625 621.5 780.3125 621.5 C 789.6875 621.5 795.0625 617 797.6875 614.875 L 797.6875 619.5 L 798.4375 620.375 C 807.4375 620 810.1875 619.875 818.3125 620 L 818.9375 619.125 C 818.0625 606.875 818.0625 603.75 818.0625 592 L 818.1875 582.75 M 797.5625 602.625 C 794.9375 604.125 791.5625 605.875 787.4375 605.875 C 782.9375 605.875 779.1875 603.5 779.1875 598.25 C 779.1875 590 789.0625 588.625 797.5625 587.5 Z M 897.0625 618.375 C 885.3125 598.5 884.0625 596.25 874.5625 579.125 C 883.1875 567.375 884.0625 566.125 892.9375 554.75 L 892.3125 553.5 L 871.9375 553.75 L 870.6875 554.625 C 860.9375 571.5 859.6875 573.5 853.9375 582.125 L 853.9375 568.25 C 854.0625 544.875 854.1875 539.875 854.8125 521 L 853.8125 520.25 L 832.0625 523.5 L 831.3125 524.375 C 832.1875 536.5 832.5625 542.375 832.8125 558.75 C 833.0625 579 833.0625 599.25 832.9375 619.5 L 833.8125 620.375 C 842.1875 620 844.5625 620 854.0625 620 L 854.8125 619.125 L 854.0625 598 L 853.9375 583.625 C 864.8125 603.625 866.1875 606.375 872.5625 619.625 L 873.6875 620.375 L 896.1875 619.5 Z M 895.5625 620 "/>
<path fill-rule="nonzero" fill="rgb(34.901961%, 14.901961%, 14.901961%)" fill-opacity="1" d="M 232.875 716.25 C 222.375 711.875 216.875 709.625 216.875 704 C 216.875 700.125 220.5 695.25 228.75 695.25 C 238.25 695.25 243.875 699.125 248.5 702.25 L 249.625 701.75 L 250.625 685.375 L 250 684.5 C 244.625 682.25 239 679.875 226.875 679.875 C 203.375 679.875 195.25 693.125 195.25 706.5 C 195.25 721.625 207 727.125 214 730.5 L 218.125 732.375 C 226.75 736 233.375 739.125 233.375 745.75 C 233.375 750.5 229.25 756.125 218.375 756.125 C 207 756.125 200.625 751.125 197 748.25 L 195.75 748.625 L 194.875 766.25 L 195.625 767.25 C 197 767.75 198.375 768.375 199.75 768.75 C 202.625 769.75 210 771.875 219.375 771.875 C 223.125 771.875 232.625 771.5 240.125 768 C 250.625 762.875 255.125 753.375 255.125 742.75 C 255.125 735.625 252.375 728 245.75 722.875 C 242.375 720.375 239.125 718.875 236.125 717.5 Z M 302 755.625 C 299.875 756.25 298.375 756.75 296.25 756.75 C 289.875 756.75 289.375 752.75 289.125 750.875 C 288.75 747.625 288.75 740.75 288.875 735.75 L 289.125 718.125 L 300.375 718.625 L 301.125 717.875 L 302.375 704.5 L 301.625 703.75 L 289.125 703.75 L 289.5 682.75 L 288.625 682 C 280.125 684.5 277.875 685.125 269 687.375 L 268.5 688.25 L 268.625 703.875 L 261.875 703.625 L 261.125 704.25 L 260 717.625 L 260.75 718.375 L 268.625 718.125 L 268.25 738 C 268.125 741.125 268 744.25 268 747.5 C 268 759 268.25 771.375 287.75 771.375 C 292.625 771.375 296.5 770.625 300.875 769.875 L 301.75 769 L 303 756.125 Z M 366.875 732.75 C 367 721.5 367 716.625 363.75 711.375 C 361.25 707.375 356.25 702.375 340.25 702.375 C 329.5 702.375 322.875 704.375 315.75 706.5 L 315 707.5 L 314.375 721.125 L 315.375 721.625 C 319.75 719.875 327.875 716.625 336.25 716.625 C 340.875 716.625 342.75 717.375 344.375 719 C 345.625 720.25 346 722.5 346 724.375 C 331 726.375 324 727.75 316.5 732.375 C 309.5 736.75 307.125 743.875 307.125 749.5 C 307.125 762.875 316.75 771.5 329 771.5 C 338.375 771.5 343.75 767 346.375 764.875 L 346.375 769.5 L 347.125 770.375 C 356.125 770 358.875 769.875 367 770 L 367.625 769.125 C 366.75 756.875 366.75 753.75 366.75 742 L 366.875 732.75 M 346.25 752.625 C 343.625 754.125 340.25 755.875 336.125 755.875 C 331.625 755.875 327.875 753.5 327.875 748.25 C 327.875 740 337.75 738.625 346.25 737.5 Z M 416.5 755.625 C 414.375 756.25 412.875 756.75 410.75 756.75 C 404.375 756.75 403.875 752.75 403.625 750.875 C 403.25 747.625 403.25 740.75 403.375 735.75 L 403.625 718.125 L 414.875 718.625 L 415.625 717.875 L 416.875 704.5 L 416.125 703.75 L 403.625 703.75 L 404 682.75 L 403.125 682 C 394.625 684.5 392.375 685.125 383.5 687.375 L 383 688.25 L 383.125 703.875 L 376.375 703.625 L 375.625 704.25 L 374.5 717.625 L 375.25 718.375 L 383.125 718.125 L 382.75 738 C 382.625 741.125 382.5 744.25 382.5 747.5 C 382.5 759 382.75 771.375 402.25 771.375 C 407.125 771.375 411 770.625 415.375 769.875 L 416.25 769 L 417.5 756.125 Z M 481.25 751.5 C 476.5 754 470.875 756.875 461.75 756.875 C 454.25 756.875 449.125 754.5 446.125 750 C 444.25 747.375 443.875 744.875 443.375 742.375 L 483.75 741.625 L 484.5 740.75 C 484.375 734.625 484.25 728.375 482.5 722.125 C 478.125 707.375 468.5 704.375 464.25 703.375 C 461.125 702.5 458.25 702.25 455.375 702.25 C 435.75 702.25 422.75 715.125 422.75 736.75 C 422.75 742.625 423.75 748.75 425.75 753.125 C 433 770 450 771.5 459 771.5 C 469.375 771.5 473.875 769.625 480.5 767 L 481.25 766 L 482.125 751.875 L 481.25 751.5 M 443.375 729.125 C 443.75 725.25 444.625 720 449.375 717 C 450.875 716 452.625 715.625 454.375 715.625 C 458.5 715.625 461 717.75 462.375 720 C 464.125 722.75 464.25 725.75 464.25 728.625 Z M 549.25 681.5 L 533.375 681.75 L 532.625 682.5 C 533.125 698.75 533.5 709.625 533.5 724 C 533.5 739.25 533.125 754.375 532.75 769.625 L 533.5 770.375 C 542.75 770 544.75 769.875 554.75 770 L 555.375 769.25 C 554.875 755.625 554.875 752.5 554.875 739.75 C 568.875 739.875 583.875 739.875 592.875 728.875 C 596.375 724.625 599.375 717.5 599.375 708.75 C 599.375 703.375 598.125 691.5 587.75 685.625 C 580.25 681.25 569.625 681.25 560.25 681.25 L 549.25 681.5 M 554.875 696.625 C 557.625 696.5 560.25 696.5 563 696.5 C 574 696.75 577 702.375 577 709.625 C 577 711.375 577 718.625 570.375 722.25 C 567 724.125 562.375 724.375 554.875 724.375 Z M 663.625 732.75 C 663.75 721.5 663.75 716.625 660.5 711.375 C 658 707.375 653 702.375 637 702.375 C 626.25 702.375 619.625 704.375 612.5 706.5 L 611.75 707.5 L 611.125 721.125 L 612.125 721.625 C 616.5 719.875 624.625 716.625 633 716.625 C 637.625 716.625 639.5 717.375 641.125 719 C 642.375 720.25 642.75 722.5 642.75 724.375 C 627.75 726.375 620.75 727.75 613.25 732.375 C 606.25 736.75 603.875 743.875 603.875 749.5 C 603.875 762.875 613.5 771.5 625.75 771.5 C 635.125 771.5 640.5 767 643.125 764.875 L 643.125 769.5 L 643.875 770.375 C 652.875 770 655.625 769.875 663.75 770 L 664.375 769.125 C 663.5 756.875 663.5 753.75 663.5 742 L 663.625 732.75 M 643 752.625 C 640.375 754.125 637 755.875 632.875 755.875 C 628.375 755.875 624.625 753.5 624.625 748.25 C 624.625 740 634.5 738.625 643 737.5 Z M 714.375 723.625 L 717.875 703.25 L 717.125 702.375 C 716.25 702.375 715.375 702.25 714.5 702.25 C 709.375 702.25 703.625 705.125 699.625 714.375 L 700 702.875 L 699 701.875 C 689.75 703.875 687.375 704.25 678.25 705.625 L 677.5 706.375 C 678.25 715.75 678.625 721.375 678.625 738.75 C 678.625 749 678.5 759.25 678.25 769.625 L 679 770.375 C 688.25 770 690.25 769.875 700.25 770 L 700.875 769.125 C 700.375 759 699.625 744.875 699.625 736.25 C 699.625 730.625 699.625 722.375 708.125 722.375 C 710.25 722.375 711.5 723.125 713.25 724.125 Z M 789.375 768.375 C 777.625 748.5 776.375 746.25 766.875 729.125 C 775.5 717.375 776.375 716.125 785.25 704.75 L 784.625 703.5 L 764.25 703.75 L 763 704.625 C 753.25 721.5 752 723.5 746.25 732.125 L 746.25 718.25 C 746.375 694.875 746.5 689.875 747.125 671 L 746.125 670.25 L 724.375 673.5 L 723.625 674.375 C 724.5 686.5 724.875 692.375 725.125 708.75 C 725.375 729 725.375 749.25 725.25 769.5 L 726.125 770.375 C 734.5 770 736.875 770 746.375 770 L 747.125 769.125 L 746.375 748 L 746.25 733.625 C 757.125 753.625 758.5 756.375 764.875 769.625 L 766 770.375 L 788.5 769.5 Z M 787.875 770 "/>
</svg>
