<?xml version="1.0" encoding="UTF-8"?>
<svg xmlns="http://www.w3.org/2000/svg" xmlns:xlink="http://www.w3.org/1999/xlink" width="975" height="1300" viewBox="0 0 975 1300">
<path fill-rule="nonzero" fill="rgb(34.901961%, 14.901961%, 14.901961%)" fill-opacity="1" d="M 186.6875 545.25 C 189.8125 545.5 192.1875 545.75 195.0625 545.75 C 223.3125 545.75 223.3125 528.75 223.3125 516.25 C 223.3125 513.125 223.1875 510 223.0625 506.875 L 223.0625 457.125 L 222.4375 456.375 C 212.8125 456.75 210.8125 456.75 200.4375 456.75 L 199.8125 457.5 C 200.4375 475.25 200.9375 490.625 200.9375 508.75 C 200.9375 520.25 200.9375 529.125 191.3125 529.125 C 189.4375 529.125 188.4375 528.75 186.8125 528.25 L 186.0625 529 L 186.0625 544.375 Z M 301.6875 511.75 C 301.6875 506.875 301.6875 486.625 284.1875 479.75 C 278.6875 477.625 272.1875 477.375 268.9375 477.375 C 247.1875 477.375 234.9375 489 234.9375 512 C 234.9375 520 236.1875 528.125 240.8125 534.875 C 244.0625 539.75 250.1875 546.5 268.0625 546.5 C 294.5625 546.5 301.6875 530.5 301.6875 511.75 M 280.0625 511.625 C 280.0625 521.875 278.6875 533.25 268.3125 533.25 C 265.0625 533.25 262.8125 531.75 261.3125 530.375 C 259.1875 528.25 256.8125 524 256.8125 511.875 C 256.8125 508.25 256.8125 500.25 259.3125 495.875 C 261.1875 492.5 264.4375 490.25 268.4375 490.25 C 271.9375 490.25 274.8125 492.125 276.4375 494.125 C 279.4375 497.75 280.0625 504.875 280.0625 511.625 Z M 374.8125 544.125 C 374.3125 533.875 374.1875 530.375 373.9375 517.375 L 373.9375 508 C 373.8125 496.125 373.6875 489.25 370.0625 484 C 366.4375 478.875 361.1875 477.25 355.6875 477.25 C 346.5625 477.25 339.4375 481.625 334.4375 484.625 L 334.8125 446.125 L 334.0625 445.25 L 312.6875 448.625 L 312.0625 449.375 C 313.1875 461.5 313.4375 466 313.6875 482.125 C 313.9375 492.25 314.0625 502.375 314.0625 512.5 C 314.0625 524.875 313.8125 532.25 313.5625 544.5 L 314.1875 545.375 C 323.4375 544.875 325.3125 544.875 335.4375 544.875 L 336.1875 544.125 C 335.3125 525.375 335.1875 519.75 335.0625 497.625 C 337.4375 496 340.4375 493.875 344.6875 493.875 C 351.5625 493.875 352.0625 501 352.5625 506 C 352.8125 509.875 352.9375 527.625 352.9375 532.25 C 352.9375 536.375 352.8125 540.375 352.8125 544.5 L 353.4375 545.375 C 362.4375 544.875 364.4375 544.875 374.0625 544.875 Z M 450.3125 544.125 C 449.6875 533.125 449.6875 529.625 449.4375 517.375 L 449.4375 507.625 C 449.3125 495.625 449.1875 489.875 446.0625 484.75 C 442.1875 478.25 435.0625 477.25 430.5625 477.25 C 422.9375 477.25 416.3125 481.25 410.5625 484.625 L 410.8125 477.75 L 409.5625 476.875 C 399.9375 478.875 397.8125 479.25 388.4375 480.5 L 387.6875 481.375 C 388.6875 492.25 389.4375 500.125 389.4375 520.5 C 389.4375 528.5 389.3125 536.5 389.1875 544.5 L 389.9375 545.25 C 398.9375 544.875 400.8125 544.875 410.8125 544.875 L 411.5625 544.125 C 410.8125 524.875 410.6875 520 410.5625 497.625 C 413.1875 495.875 416.1875 493.75 420.1875 493.75 C 427.0625 493.75 427.6875 501.125 428.0625 505.625 C 428.3125 509.75 428.4375 526.875 428.4375 531.625 C 428.4375 535.875 428.3125 540.25 428.3125 544.5 L 429.0625 545.25 C 437.3125 545 439.4375 544.875 449.4375 544.875 Z M 554.8125 527.875 C 541.1875 528.625 530.3125 528.875 526.5625 528.875 L 524.0625 528.875 C 523.8125 495.5 523.9375 487 524.9375 457.125 L 524.1875 456.375 C 513.4375 456.875 510.5625 456.875 501.9375 456.75 L 501.1875 457.5 C 501.6875 467.5 501.8125 470.5 501.8125 485.375 C 501.8125 505.125 501.6875 524.875 501.6875 544.625 L 502.3125 545.375 C 526.8125 545 531.3125 545 553.8125 545 L 554.4375 544.25 L 555.4375 528.5 Z M 588.8125 544.125 C 588.1875 534.5 587.6875 527.125 587.6875 509.875 C 587.6875 499.25 587.9375 488.5 588.0625 477.875 L 587.1875 476.875 L 565.6875 480.625 L 564.9375 481.375 C 565.9375 490.875 566.3125 495.25 566.3125 513 C 566.3125 526.625 565.9375 534.25 565.5625 544.5 L 566.3125 545.375 C 575.3125 545 577.8125 544.875 587.9375 545 L 588.8125 544.125 M 586.8125 464.875 L 587.1875 447.875 L 586.4375 447.125 L 566.0625 449.625 L 565.3125 450.5 C 565.5625 455 565.6875 457.625 565.6875 460.625 C 565.6875 463 565.6875 465.5 565.5625 467.875 L 566.4375 468.625 C 574.9375 467.125 577.3125 466.875 586.1875 465.75 Z M 637.6875 530.625 C 635.5625 531.25 634.0625 531.75 631.9375 531.75 C 625.5625 531.75 625.0625 527.75 624.8125 525.875 C 624.4375 522.625 624.4375 515.75 624.5625 510.75 L 624.8125 493.125 L 636.0625 493.625 L 636.8125 492.875 L 638.0625 479.5 L 637.3125 478.75 L 624.8125 478.75 L 625.1875 457.75 L 624.3125 457 C 615.8125 459.5 613.5625 460.125 604.6875 462.375 L 604.1875 463.25 L 604.3125 478.875 L 597.5625 478.625 L 596.8125 479.25 L 595.6875 492.625 L 596.4375 493.375 L 604.3125 493.125 L 603.9375 513 C 603.8125 516.125 603.6875 519.25 603.6875 522.5 C 603.6875 534 603.9375 546.375 623.4375 546.375 C 628.3125 546.375 632.1875 545.625 636.5625 544.875 L 637.4375 544 L 638.6875 531.125 Z M 681.9375 530.625 C 679.8125 531.25 678.3125 531.75 676.1875 531.75 C 669.8125 531.75 669.3125 527.75 669.0625 525.875 C 668.6875 522.625 668.6875 515.75 668.8125 510.75 L 669.0625 493.125 L 680.3125 493.625 L 681.0625 492.875 L 682.3125 479.5 L 681.5625 478.75 L 669.0625 478.75 L 669.4375 457.75 L 668.5625 457 C 660.0625 459.5 657.8125 460.125 648.9375 462.375 L 648.4375 463.25 L 648.5625 478.875 L 641.8125 478.625 L 641.0625 479.25 L 639.9375 492.625 L 640.6875 493.375 L 648.5625 493.125 L 648.1875 513 C 648.0625 516.125 647.9375 519.25 647.9375 522.5 C 647.9375 534 648.1875 546.375 667.6875 546.375 C 672.5625 546.375 676.4375 545.625 680.8125 544.875 L 681.6875 544 L 682.9375 531.125 Z M 713.1875 544.125 C 712.5625 529.75 711.9375 516.625 711.9375 477.125 C 711.9375 465.25 712.0625 459.625 712.5625 446.125 L 711.6875 445.25 L 690.3125 448.625 L 689.8125 449.375 C 691.0625 464.625 691.1875 468.75 691.4375 489 C 691.5625 496.375 691.5625 503.75 691.5625 511.125 C 691.5625 524.625 691.3125 532.125 690.8125 544.5 L 691.5625 545.375 C 699.9375 545 703.3125 544.875 712.4375 545 Z M 783.1875 526.5 C 778.4375 529 772.8125 531.875 763.6875 531.875 C 756.1875 531.875 751.0625 529.5 748.0625 525 C 746.1875 522.375 745.8125 519.875 745.3125 517.375 L 785.6875 516.625 L 786.4375 515.75 C 786.3125 509.625 786.1875 503.375 784.4375 497.125 C 780.0625 482.375 770.4375 479.375 766.1875 478.375 C 763.0625 477.5 760.1875 477.25 757.3125 477.25 C 737.6875 477.25 724.6875 490.125 724.6875 511.75 C 724.6875 517.625 725.6875 523.75 727.6875 528.125 C 734.9375 545 751.9375 546.5 760.9375 546.5 C 771.3125 546.5 775.8125 544.625 782.4375 542 L 783.1875 541 L 784.0625 526.875 L 783.1875 526.5 M 745.3125 504.125 C 745.6875 500.25 746.5625 495 751.3125 492 C 752.8125 491 754.5625 490.625 756.3125 490.625 C 760.4375 490.625 762.9375 492.75 764.3125 495 C 766.0625 497.75 766.1875 500.75 766.1875 503.625 Z M 790.4375 545 "/>
<path fill-rule="nonzero" fill="rgb(34.901961%, 14.901961%, 14.901961%)" fill-opacity="1" d="M 151.1875 641.25 C 140.6875 636.875 135.1875 634.625 135.1875 629 C 135.1875 625.125 138.8125 620.25 147.0625 620.25 C 156.5625 620.25 162.1875 624.125 166.8125 627.25 L 167.9375 626.75 L 168.9375 610.375 L 168.3125 609.5 C 162.9375 607.25 157.3125 604.875 145.1875 604.875 C 121.6875 604.875 113.5625 618.125 113.5625 631.5 C 113.5625 646.625 125.3125 652.125 132.3125 655.5 L 136.4375 657.375 C 145.0625 661 151.6875 664.125 151.6875 670.75 C 151.6875 675.5 147.5625 681.125 136.6875 681.125 C 125.3125 681.125 118.9375 676.125 115.3125 673.25 L 114.0625 673.625 L 113.1875 691.25 L 113.9375 692.25 C 115.3125 692.75 116.6875 693.375 118.0625 693.75 C 120.9375 694.75 128.3125 696.875 137.6875 696.875 C 141.4375 696.875 150.9375 696.5 158.4375 693 C 168.9375 687.875 173.4375 678.375 173.4375 667.75 C 173.4375 660.625 170.6875 653 164.0625 647.875 C 160.6875 645.375 157.4375 643.875 154.4375 642.5 Z M 220.3125 680.625 C 218.1875 681.25 216.6875 681.75 214.5625 681.75 C 208.1875 681.75 207.6875 677.75 207.4375 675.875 C 207.0625 672.625 207.0625 665.75 207.1875 660.75 L 207.4375 643.125 L 218.6875 643.625 L 219.4375 642.875 L 220.6875 629.5 L 219.9375 628.75 L 207.4375 628.75 L 207.8125 607.75 L 206.9375 607 C 198.4375 609.5 196.1875 610.125 187.3125 612.375 L 186.8125 613.25 L 186.9375 628.875 L 180.1875 628.625 L 179.4375 629.25 L 178.3125 642.625 L 179.0625 643.375 L 186.9375 643.125 L 186.5625 663 C 186.4375 666.125 186.3125 669.25 186.3125 672.5 C 186.3125 684 186.5625 696.375 206.0625 696.375 C 210.9375 696.375 214.8125 695.625 219.1875 694.875 L 220.0625 694 L 221.3125 681.125 Z M 285.1875 657.75 C 285.3125 646.5 285.3125 641.625 282.0625 636.375 C 279.5625 632.375 274.5625 627.375 258.5625 627.375 C 247.8125 627.375 241.1875 629.375 234.0625 631.5 L 233.3125 632.5 L 232.6875 646.125 L 233.6875 646.625 C 238.0625 644.875 246.1875 641.625 254.5625 641.625 C 259.1875 641.625 261.0625 642.375 262.6875 644 C 263.9375 645.25 264.3125 647.5 264.3125 649.375 C 249.3125 651.375 242.3125 652.75 234.8125 657.375 C 227.8125 661.75 225.4375 668.875 225.4375 674.5 C 225.4375 687.875 235.0625 696.5 247.3125 696.5 C 256.6875 696.5 262.0625 692 264.6875 689.875 L 264.6875 694.5 L 265.4375 695.375 C 274.4375 695 277.1875 694.875 285.3125 695 L 285.9375 694.125 C 285.0625 681.875 285.0625 678.75 285.0625 667 L 285.1875 657.75 M 264.5625 677.625 C 261.9375 679.125 258.5625 680.875 254.4375 680.875 C 249.9375 680.875 246.1875 678.5 246.1875 673.25 C 246.1875 665 256.0625 663.625 264.5625 662.5 Z M 334.8125 680.625 C 332.6875 681.25 331.1875 681.75 329.0625 681.75 C 322.6875 681.75 322.1875 677.75 321.9375 675.875 C 321.5625 672.625 321.5625 665.75 321.6875 660.75 L 321.9375 643.125 L 333.1875 643.625 L 333.9375 642.875 L 335.1875 629.5 L 334.4375 628.75 L 321.9375 628.75 L 322.3125 607.75 L 321.4375 607 C 312.9375 609.5 310.6875 610.125 301.8125 612.375 L 301.3125 613.25 L 301.4375 628.875 L 294.6875 628.625 L 293.9375 629.25 L 292.8125 642.625 L 293.5625 643.375 L 301.4375 643.125 L 301.0625 663 C 300.9375 666.125 300.8125 669.25 300.8125 672.5 C 300.8125 684 301.0625 696.375 320.5625 696.375 C 325.4375 696.375 329.3125 695.625 333.6875 694.875 L 334.5625 694 L 335.8125 681.125 Z M 399.5625 676.5 C 394.8125 679 389.1875 681.875 380.0625 681.875 C 372.5625 681.875 367.4375 679.5 364.4375 675 C 362.5625 672.375 362.1875 669.875 361.6875 667.375 L 402.0625 666.625 L 402.8125 665.75 C 402.6875 659.625 402.5625 653.375 400.8125 647.125 C 396.4375 632.375 386.8125 629.375 382.5625 628.375 C 379.4375 627.5 376.5625 627.25 373.6875 627.25 C 354.0625 627.25 341.0625 640.125 341.0625 661.75 C 341.0625 667.625 342.0625 673.75 344.0625 678.125 C 351.3125 695 368.3125 696.5 377.3125 696.5 C 387.6875 696.5 392.1875 694.625 398.8125 692 L 399.5625 691 L 400.4375 676.875 L 399.5625 676.5 M 361.6875 654.125 C 362.0625 650.25 362.9375 645 367.6875 642 C 369.1875 641 370.9375 640.625 372.6875 640.625 C 376.8125 640.625 379.3125 642.75 380.6875 645 C 382.4375 647.75 382.5625 650.75 382.5625 653.625 Z M 525.9375 606.375 C 518.0625 606.75 515.9375 606.875 508.1875 606.75 L 507.5625 607.5 L 508.4375 624.375 L 508.9375 641.625 L 509.4375 662.25 C 505.8125 656.125 505.1875 655.125 498.8125 645.625 L 487.4375 629 C 478.0625 614.75 476.1875 612 473.0625 607 L 472.1875 606.375 C 462.3125 606.875 460.6875 606.875 451.5625 606.75 L 450.9375 607.5 C 451.5625 626.875 451.9375 641.25 451.9375 658 C 451.9375 670.25 451.6875 682.5 451.5625 694.625 L 452.1875 695.375 C 460.5625 695 463.1875 695 470.4375 695 L 471.0625 694.25 L 469.8125 666.875 L 469.4375 651.5 L 468.6875 634.75 C 474.5625 644.5 476.5625 647.75 485.0625 660.125 L 497.5625 678.5 L 508.6875 694.75 L 509.5625 695.375 C 517.1875 695 519.4375 695 526.0625 695 L 526.6875 694.375 C 526.5625 676.25 526.4375 664 526.4375 649 C 526.4375 635 526.5625 621.125 526.6875 607.125 Z M 597.5625 657.75 C 597.6875 646.5 597.6875 641.625 594.4375 636.375 C 591.9375 632.375 586.9375 627.375 570.9375 627.375 C 560.1875 627.375 553.5625 629.375 546.4375 631.5 L 545.6875 632.5 L 545.0625 646.125 L 546.0625 646.625 C 550.4375 644.875 558.5625 641.625 566.9375 641.625 C 571.5625 641.625 573.4375 642.375 575.0625 644 C 576.3125 645.25 576.6875 647.5 576.6875 649.375 C 561.6875 651.375 554.6875 652.75 547.1875 657.375 C 540.1875 661.75 537.8125 668.875 537.8125 674.5 C 537.8125 687.875 547.4375 696.5 559.6875 696.5 C 569.0625 696.5 574.4375 692 577.0625 689.875 L 577.0625 694.5 L 577.8125 695.375 C 586.8125 695 589.5625 694.875 597.6875 695 L 598.3125 694.125 C 597.4375 681.875 597.4375 678.75 597.4375 667 L 597.5625 657.75 M 576.9375 677.625 C 574.3125 679.125 570.9375 680.875 566.8125 680.875 C 562.3125 680.875 558.5625 678.5 558.5625 673.25 C 558.5625 665 568.4375 663.625 576.9375 662.5 Z M 647.1875 680.625 C 645.0625 681.25 643.5625 681.75 641.4375 681.75 C 635.0625 681.75 634.5625 677.75 634.3125 675.875 C 633.9375 672.625 633.9375 665.75 634.0625 660.75 L 634.3125 643.125 L 645.5625 643.625 L 646.3125 642.875 L 647.5625 629.5 L 646.8125 628.75 L 634.3125 628.75 L 634.6875 607.75 L 633.8125 607 C 625.3125 609.5 623.0625 610.125 614.1875 612.375 L 613.6875 613.25 L 613.8125 628.875 L 607.0625 628.625 L 606.3125 629.25 L 605.1875 642.625 L 605.9375 643.375 L 613.8125 643.125 L 613.4375 663 C 613.3125 666.125 613.1875 669.25 613.1875 672.5 C 613.1875 684 613.4375 696.375 632.9375 696.375 C 637.8125 696.375 641.6875 695.625 646.0625 694.875 L 646.9375 694 L 648.1875 681.125 Z M 716.4375 628.125 L 696.0625 629.125 L 695.1875 629.875 C 696.0625 644 696.0625 664 696.0625 666 C 696.0625 669.625 696.0625 671.625 695.9375 676.625 C 692.5625 678.875 689.9375 680.75 686.5625 680.75 C 677.5625 680.75 677.5625 671.25 677.5625 663.875 C 677.5625 660.75 677.5625 657.5 677.6875 654.375 L 677.9375 629.125 L 677.0625 628.125 L 656.4375 629.125 L 655.5625 629.875 C 656.3125 640.375 656.4375 643.875 656.4375 656.5 L 656.4375 665.25 C 656.3125 678.875 656.9375 684.625 661.4375 689.875 C 665.5625 694.5 671.5625 696.5 677.8125 696.5 C 686.6875 696.5 691.8125 692.5 696.3125 689 L 696.1875 694.625 L 697.0625 695.375 C 706.1875 695 708.9375 695 717.0625 695 L 717.8125 694.25 C 717.1875 685.375 716.9375 680.625 716.9375 664.375 C 716.9375 652.625 717.0625 640.875 717.3125 629.125 Z M 768.0625 648.625 L 771.5625 628.25 L 770.8125 627.375 C 769.9375 627.375 769.0625 627.25 768.1875 627.25 C 763.0625 627.25 757.3125 630.125 753.3125 639.375 L 753.6875 627.875 L 752.6875 626.875 C 743.4375 628.875 741.0625 629.25 731.9375 630.625 L 731.1875 631.375 C 731.9375 640.75 732.3125 646.375 732.3125 663.75 C 732.3125 674 732.1875 684.25 731.9375 694.625 L 732.6875 695.375 C 741.9375 695 743.9375 694.875 753.9375 695 L 754.5625 694.125 C 754.0625 684 753.3125 669.875 753.3125 661.25 C 753.3125 655.625 753.3125 647.375 761.8125 647.375 C 763.9375 647.375 765.1875 648.125 766.9375 649.125 Z M 834.4375 657.75 C 834.5625 646.5 834.5625 641.625 831.3125 636.375 C 828.8125 632.375 823.8125 627.375 807.8125 627.375 C 797.0625 627.375 790.4375 629.375 783.3125 631.5 L 782.5625 632.5 L 781.9375 646.125 L 782.9375 646.625 C 787.3125 644.875 795.4375 641.625 803.8125 641.625 C 808.4375 641.625 810.3125 642.375 811.9375 644 C 813.1875 645.25 813.5625 647.5 813.5625 649.375 C 798.5625 651.375 791.5625 652.75 784.0625 657.375 C 777.0625 661.75 774.6875 668.875 774.6875 674.5 C 774.6875 687.875 784.3125 696.5 796.5625 696.5 C 805.9375 696.5 811.3125 692 813.9375 689.875 L 813.9375 694.5 L 814.6875 695.375 C 823.6875 695 826.4375 694.875 834.5625 695 L 835.1875 694.125 C 834.3125 681.875 834.3125 678.75 834.3125 667 L 834.4375 657.75 M 813.8125 677.625 C 811.1875 679.125 807.8125 680.875 803.6875 680.875 C 799.1875 680.875 795.4375 678.5 795.4375 673.25 C 795.4375 665 805.3125 663.625 813.8125 662.5 Z M 871.0625 694.125 C 870.4375 679.75 869.8125 666.625 869.8125 627.125 C 869.8125 615.25 869.9375 609.625 870.4375 596.125 L 869.5625 595.25 L 848.1875 598.625 L 847.6875 599.375 C 848.9375 614.625 849.0625 618.75 849.3125 639 C 849.4375 646.375 849.4375 653.75 849.4375 661.125 C 849.4375 674.625 849.1875 682.125 848.6875 694.5 L 849.4375 695.375 C 857.8125 695 861.1875 694.875 870.3125 695 Z M 878.0625 695 "/>
<path fill-rule="nonzero" fill="rgb(34.901961%, 14.901961%, 14.901961%)" fill-opacity="1" d="M 298.9375 810.625 C 307.3125 824.875 309.1875 828.625 317.1875 845 L 318.1875 845.625 C 322.0625 845.375 325.8125 845.125 329.6875 845 C 333.5625 844.875 337.5625 844.75 341.4375 844.75 L 342.1875 843.25 C 337.4375 837.125 336.0625 835.25 327.0625 820.875 C 323.0625 814.5 321.0625 811.125 317.9375 805.625 C 323.5625 803.125 334.9375 797.875 334.9375 782 C 334.9375 776.5 333.4375 765.125 323.1875 759.75 C 316.6875 756.375 309.9375 756.25 295.3125 756.5 L 286.5625 756.625 L 271.3125 756.625 L 270.6875 757.375 C 271.1875 770 271.6875 783 271.6875 817 C 271.6875 828.625 271.5625 834.25 271.1875 844.625 L 271.9375 845.375 C 281.0625 845 283.0625 844.875 293.3125 845 L 294.0625 844.25 C 293.0625 829.75 292.9375 825.75 292.8125 810.875 L 298.9375 810.625 M 293.0625 771.75 C 294.8125 771.625 296.5625 771.625 298.3125 771.625 C 303.1875 771.625 312.8125 771.625 312.8125 782.625 C 312.8125 786.125 311.9375 790.75 307.3125 793.625 C 303.8125 795.75 299.3125 796 293.0625 796.125 Z M 404.3125 826.5 C 399.5625 829 393.9375 831.875 384.8125 831.875 C 377.3125 831.875 372.1875 829.5 369.1875 825 C 367.3125 822.375 366.9375 819.875 366.4375 817.375 L 406.8125 816.625 L 407.5625 815.75 C 407.4375 809.625 407.3125 803.375 405.5625 797.125 C 401.1875 782.375 391.5625 779.375 387.3125 778.375 C 384.1875 777.5 381.3125 777.25 378.4375 777.25 C 358.8125 777.25 345.8125 790.125 345.8125 811.75 C 345.8125 817.625 346.8125 823.75 348.8125 828.125 C 356.0625 845 373.0625 846.5 382.0625 846.5 C 392.4375 846.5 396.9375 844.625 403.5625 842 L 404.3125 841 L 405.1875 826.875 L 404.3125 826.5 M 366.4375 804.125 C 366.8125 800.25 367.6875 795 372.4375 792 C 373.9375 791 375.6875 790.625 377.4375 790.625 C 381.5625 790.625 384.0625 792.75 385.4375 795 C 387.1875 797.75 387.3125 800.75 387.3125 803.625 Z M 445.3125 801.875 C 441.0625 800.375 437.6875 799 437.6875 795.5 C 437.6875 794 438.6875 789.875 446.4375 789.875 C 454.0625 789.875 458.9375 793.125 462.0625 795.125 L 463.1875 794.75 L 464.4375 781.125 L 463.8125 780.375 C 457.9375 778.75 452.8125 777.25 444.6875 777.25 C 438.5625 777.25 426.3125 777.75 419.8125 787.125 C 418.1875 789.375 416.4375 793.125 416.4375 798.125 C 416.4375 811.5 426.8125 815.5 432.6875 817.75 L 437.4375 819.5 C 440.8125 820.625 446.3125 822.5 446.3125 827 C 446.3125 830.125 443.4375 833.5 436.4375 833.5 C 432.9375 833.5 427.8125 832.375 423.1875 830 C 421.0625 828.875 420.0625 828 418.1875 826.5 L 417.0625 827 C 416.8125 833.5 416.6875 834.875 416.1875 841.125 L 416.8125 842.25 C 422.9375 844.5 428.1875 846.5 437.3125 846.5 C 446.8125 846.5 465.5625 844.75 467.8125 826.875 C 467.9375 825.875 467.9375 825 467.9375 824.125 C 467.9375 810.375 458.3125 806.75 451.4375 804.125 Z M 534.4375 826.5 C 529.6875 829 524.0625 831.875 514.9375 831.875 C 507.4375 831.875 502.3125 829.5 499.3125 825 C 497.4375 822.375 497.0625 819.875 496.5625 817.375 L 536.9375 816.625 L 537.6875 815.75 C 537.5625 809.625 537.4375 803.375 535.6875 797.125 C 531.3125 782.375 521.6875 779.375 517.4375 778.375 C 514.3125 777.5 511.4375 777.25 508.5625 777.25 C 488.9375 777.25 475.9375 790.125 475.9375 811.75 C 475.9375 817.625 476.9375 823.75 478.9375 828.125 C 486.1875 845 503.1875 846.5 512.1875 846.5 C 522.5625 846.5 527.0625 844.625 533.6875 842 L 534.4375 841 L 535.3125 826.875 L 534.4375 826.5 M 496.5625 804.125 C 496.9375 800.25 497.8125 795 502.5625 792 C 504.0625 791 505.8125 790.625 507.5625 790.625 C 511.6875 790.625 514.1875 792.75 515.5625 795 C 517.3125 797.75 517.4375 800.75 517.4375 803.625 Z M 585.3125 798.625 L 588.8125 778.25 L 588.0625 777.375 C 587.1875 777.375 586.3125 777.25 585.4375 777.25 C 580.3125 777.25 574.5625 780.125 570.5625 789.375 L 570.9375 777.875 L 569.9375 776.875 C 560.6875 778.875 558.3125 779.25 549.1875 780.625 L 548.4375 781.375 C 549.1875 790.75 549.5625 796.375 549.5625 813.75 C 549.5625 824 549.4375 834.25 549.1875 844.625 L 549.9375 845.375 C 559.1875 845 561.1875 844.875 571.1875 845 L 571.8125 844.125 C 571.3125 834 570.5625 819.875 570.5625 811.25 C 570.5625 805.625 570.5625 797.375 579.0625 797.375 C 581.1875 797.375 582.4375 798.125 584.1875 799.125 Z M 630.5625 844 C 634.5625 831.5 636.9375 823.75 639.5625 815.875 C 642.9375 805.75 648.4375 789.5 651.9375 779.25 L 651.3125 778.375 L 633.8125 778.75 L 632.9375 779.625 C 631.1875 788 630.8125 789.75 628.3125 799.5 L 621.9375 824.125 L 618.8125 810.625 L 616.4375 801 C 613.3125 789.375 612.8125 787 611.0625 778.75 L 610.1875 778 C 600.3125 779.125 597.8125 779.25 588.3125 779.375 L 587.8125 780.375 C 604.4375 829.625 605.8125 834.25 608.5625 844.5 L 609.4375 845.375 C 617.5625 845 620.8125 844.875 629.8125 845 Z M 714.0625 826.5 C 709.3125 829 703.6875 831.875 694.5625 831.875 C 687.0625 831.875 681.9375 829.5 678.9375 825 C 677.0625 822.375 676.6875 819.875 676.1875 817.375 L 716.5625 816.625 L 717.3125 815.75 C 717.1875 809.625 717.0625 803.375 715.3125 797.125 C 710.9375 782.375 701.3125 779.375 697.0625 778.375 C 693.9375 777.5 691.0625 777.25 688.1875 777.25 C 668.5625 777.25 655.5625 790.125 655.5625 811.75 C 655.5625 817.625 656.5625 823.75 658.5625 828.125 C 665.8125 845 682.8125 846.5 691.8125 846.5 C 702.1875 846.5 706.6875 844.625 713.3125 842 L 714.0625 841 L 714.9375 826.875 L 714.0625 826.5 M 676.1875 804.125 C 676.5625 800.25 677.4375 795 682.1875 792 C 683.6875 791 685.4375 790.625 687.1875 790.625 C 691.3125 790.625 693.8125 792.75 695.1875 795 C 696.9375 797.75 697.0625 800.75 697.0625 803.625 Z M 721.3125 845 "/>
</svg>
