<?xml version="1.0" encoding="UTF-8"?>
<svg xmlns="http://www.w3.org/2000/svg" xmlns:xlink="http://www.w3.org/1999/xlink" width="975" height="1300" viewBox="0 0 975 1300">
<path fill-rule="nonzero" fill="rgb(34.901961%, 14.901961%, 14.901961%)" fill-opacity="1" d="M 217.75 619.25 L 218.875 604 L 218.125 603.125 C 202.125 603.75 198.25 603.75 184.75 603.875 L 219.125 532.375 L 218.5 531.75 L 158.75 531.75 L 158 532.5 L 156.875 547.5 L 157.625 548.25 L 188.5 547.75 L 183.25 558.625 L 176.25 573.625 C 164.25 598.5 156.75 614.25 154.25 619.25 L 155 620 L 216.875 620 Z M 327.625 619.125 C 327 607.5 326.875 604.25 326.875 590.125 L 326.875 580.75 C 327 572.375 327.125 564.625 323.5 559.375 C 318.625 552.25 310 552.25 308 552.25 C 297.75 552.25 290.875 556.875 285.875 560.375 C 284.125 557.5 281 552.25 271 552.25 C 262.75 552.25 257.375 556 251.625 560 L 251.625 553 L 250.5 551.875 C 240.75 553.75 238 554.25 229.25 555.5 L 228.5 556.375 C 229.5 566.375 230.25 573.25 230.25 598 C 230.25 605.125 230.125 612.375 230.125 619.5 L 230.75 620.25 C 238.75 620 241.5 619.875 251.875 619.875 L 252.625 619.125 C 251.75 599.875 251.625 594.125 251.5 572.375 C 254.125 570.5 257 568.875 260.125 568.875 C 267.875 568.875 268.125 577.75 268.125 588.5 C 268.125 606.625 268 609.375 267.75 619.5 L 268.5 620.375 C 278 619.875 280.625 619.875 289.25 619.875 L 290 619.125 C 289.25 607.25 289.125 603.75 289 588.625 L 289 584 L 288.875 571.375 C 291 570 293.75 568.25 297.5 568.25 C 304.625 568.25 305.75 575 305.75 585.75 C 305.75 588.125 305.625 590.5 305.625 592.875 C 305.5 597.125 305.375 615.75 305.25 619.5 L 306 620.25 C 315.375 619.875 318.125 619.875 326.875 619.875 Z M 402 553.125 L 381.625 554.125 L 380.75 554.875 C 381.625 569 381.625 589 381.625 591 C 381.625 594.625 381.625 596.625 381.5 601.625 C 378.125 603.875 375.5 605.75 372.125 605.75 C 363.125 605.75 363.125 596.25 363.125 588.875 C 363.125 585.75 363.125 582.5 363.25 579.375 L 363.5 554.125 L 362.625 553.125 L 342 554.125 L 341.125 554.875 C 341.875 565.375 342 568.875 342 581.5 L 342 590.25 C 341.875 603.875 342.5 609.625 347 614.875 C 351.125 619.5 357.125 621.5 363.375 621.5 C 372.25 621.5 377.375 617.5 381.875 614 L 381.75 619.625 L 382.625 620.375 C 391.75 620 394.5 620 402.625 620 L 403.375 619.25 C 402.75 610.375 402.5 605.625 402.5 589.375 C 402.5 577.625 402.625 565.875 402.875 554.125 Z M 478.75 619.25 C 478.25 608 477.875 600.5 477.875 584.125 C 477.875 551.125 478.375 537.5 478.875 521 L 478 520.25 L 457.375 523.5 L 456.75 524.25 C 457.5 536 457.625 539.125 457.5 553.375 C 448.125 553.125 436.375 552.875 426.875 560.375 C 418.125 567.125 414.5 577.5 414.5 590.375 C 414.5 600.125 417.125 609.875 424.5 616 C 430 620.5 436.75 621.5 440.875 621.5 C 449.75 621.5 454.375 617.375 457.375 614.75 L 457.125 619.625 L 457.75 620.375 C 466.375 620 468.75 620 478.125 620 L 478.75 619.25 M 457.5 568.375 C 457.625 585 457.5 588.25 457.125 603.375 C 454.625 604.875 452.125 606.375 448.625 606.375 C 436.5 606.375 436.5 590.875 436.5 588.375 C 436.5 578.75 439.25 568 453.25 568 C 454.625 568 455.75 568.125 457.5 568.375 Z M 556.625 586.75 C 556.625 581.875 556.625 561.625 539.125 554.75 C 533.625 552.625 527.125 552.375 523.875 552.375 C 502.125 552.375 489.875 564 489.875 587 C 489.875 595 491.125 603.125 495.75 609.875 C 499 614.75 505.125 621.5 523 621.5 C 549.5 621.5 556.625 605.5 556.625 586.75 M 535 586.625 C 535 596.875 533.625 608.25 523.25 608.25 C 520 608.25 517.75 606.75 516.25 605.375 C 514.125 603.25 511.75 599 511.75 586.875 C 511.75 583.25 511.75 575.25 514.25 570.875 C 516.125 567.5 519.375 565.25 523.375 565.25 C 526.875 565.25 529.75 567.125 531.375 569.125 C 534.375 572.75 535 579.875 535 586.625 Z M 645.75 619.125 C 650.75 599.75 651.625 596.75 659.125 569.875 C 660.625 564.75 662 559.5 663.375 554.375 L 662.625 553.375 L 646.375 553.75 L 645.5 554.625 L 641.875 573.375 L 638.375 588.5 L 636 600 L 633.875 588.875 L 631.125 575.875 L 626.75 554.25 L 626 553.375 L 602 553.75 L 601.125 554.625 L 597 575.125 L 594 588.875 L 591.625 600.375 L 589.25 588 L 586.25 574.5 L 582 553.75 L 581.25 553.125 L 561 554.625 L 560.25 555.625 C 572 596.875 573.875 604.25 577.375 619.625 L 578.25 620.375 C 586.875 620 590 619.875 601.5 620 L 602.25 619.125 L 605.5 603.875 L 609 588.75 L 612.125 573.625 L 614 583.125 L 615.875 592.375 L 621.125 619.5 L 622 620.375 C 631.25 620 635 619.875 645 620 Z M 696.25 576.875 C 692 575.375 688.625 574 688.625 570.5 C 688.625 569 689.625 564.875 697.375 564.875 C 705 564.875 709.875 568.125 713 570.125 L 714.125 569.75 L 715.375 556.125 L 714.75 555.375 C 708.875 553.75 703.75 552.25 695.625 552.25 C 689.5 552.25 677.25 552.75 670.75 562.125 C 669.125 564.375 667.375 568.125 667.375 573.125 C 667.375 586.5 677.75 590.5 683.625 592.75 L 688.375 594.5 C 691.75 595.625 697.25 597.5 697.25 602 C 697.25 605.125 694.375 608.5 687.375 608.5 C 683.875 608.5 678.75 607.375 674.125 605 C 672 603.875 671 603 669.125 601.5 L 668 602 C 667.75 608.5 667.625 609.875 667.125 616.125 L 667.75 617.25 C 673.875 619.5 679.125 621.5 688.25 621.5 C 697.75 621.5 716.5 619.75 718.75 601.875 C 718.875 600.875 718.875 600 718.875 599.125 C 718.875 585.375 709.25 581.75 702.375 579.125 Z M 794.125 618.375 C 782.375 598.5 781.125 596.25 771.625 579.125 C 780.25 567.375 781.125 566.125 790 554.75 L 789.375 553.5 L 769 553.75 L 767.75 554.625 C 758 571.5 756.75 573.5 751 582.125 L 751 568.25 C 751.125 544.875 751.25 539.875 751.875 521 L 750.875 520.25 L 729.125 523.5 L 728.375 524.375 C 729.25 536.5 729.625 542.375 729.875 558.75 C 730.125 579 730.125 599.25 730 619.5 L 730.875 620.375 C 739.25 620 741.625 620 751.125 620 L 751.875 619.125 L 751.125 598 L 751 583.625 C 761.875 603.625 763.25 606.375 769.625 619.625 L 770.75 620.375 L 793.25 619.5 Z M 822.75 619.125 C 822.125 609.5 821.625 602.125 821.625 584.875 C 821.625 574.25 821.875 563.5 822 552.875 L 821.125 551.875 L 799.625 555.625 L 798.875 556.375 C 799.875 565.875 800.25 570.25 800.25 588 C 800.25 601.625 799.875 609.25 799.5 619.5 L 800.25 620.375 C 809.25 620 811.75 619.875 821.875 620 L 822.75 619.125 M 820.75 539.875 L 821.125 522.875 L 820.375 522.125 L 800 524.625 L 799.25 525.5 C 799.5 530 799.625 532.625 799.625 535.625 C 799.625 538 799.625 540.5 799.5 542.875 L 800.375 543.625 C 808.875 542.125 811.25 541.875 820.125 540.75 Z M 829.125 620 "/>
<path fill-rule="nonzero" fill="rgb(34.901961%, 14.901961%, 14.901961%)" fill-opacity="1" d="M 190.125 716.25 C 179.625 711.875 174.125 709.625 174.125 704 C 174.125 700.125 177.75 695.25 186 695.25 C 195.5 695.25 201.125 699.125 205.75 702.25 L 206.875 701.75 L 207.875 685.375 L 207.25 684.5 C 201.875 682.25 196.25 679.875 184.125 679.875 C 160.625 679.875 152.5 693.125 152.5 706.5 C 152.5 721.625 164.25 727.125 171.25 730.5 L 175.375 732.375 C 184 736 190.625 739.125 190.625 745.75 C 190.625 750.5 186.5 756.125 175.625 756.125 C 164.25 756.125 157.875 751.125 154.25 748.25 L 153 748.625 L 152.125 766.25 L 152.875 767.25 C 154.25 767.75 155.625 768.375 157 768.75 C 159.875 769.75 167.25 771.875 176.625 771.875 C 180.375 771.875 189.875 771.5 197.375 768 C 207.875 762.875 212.375 753.375 212.375 742.75 C 212.375 735.625 209.625 728 203 722.875 C 199.625 720.375 196.375 718.875 193.375 717.5 Z M 259.25 755.625 C 257.125 756.25 255.625 756.75 253.5 756.75 C 247.125 756.75 246.625 752.75 246.375 750.875 C 246 747.625 246 740.75 246.125 735.75 L 246.375 718.125 L 257.625 718.625 L 258.375 717.875 L 259.625 704.5 L 258.875 703.75 L 246.375 703.75 L 246.75 682.75 L 245.875 682 C 237.375 684.5 235.125 685.125 226.25 687.375 L 225.75 688.25 L 225.875 703.875 L 219.125 703.625 L 218.375 704.25 L 217.25 717.625 L 218 718.375 L 225.875 718.125 L 225.5 738 C 225.375 741.125 225.25 744.25 225.25 747.5 C 225.25 759 225.5 771.375 245 771.375 C 249.875 771.375 253.75 770.625 258.125 769.875 L 259 769 L 260.25 756.125 Z M 324.125 732.75 C 324.25 721.5 324.25 716.625 321 711.375 C 318.5 707.375 313.5 702.375 297.5 702.375 C 286.75 702.375 280.125 704.375 273 706.5 L 272.25 707.5 L 271.625 721.125 L 272.625 721.625 C 277 719.875 285.125 716.625 293.5 716.625 C 298.125 716.625 300 717.375 301.625 719 C 302.875 720.25 303.25 722.5 303.25 724.375 C 288.25 726.375 281.25 727.75 273.75 732.375 C 266.75 736.75 264.375 743.875 264.375 749.5 C 264.375 762.875 274 771.5 286.25 771.5 C 295.625 771.5 301 767 303.625 764.875 L 303.625 769.5 L 304.375 770.375 C 313.375 770 316.125 769.875 324.25 770 L 324.875 769.125 C 324 756.875 324 753.75 324 742 L 324.125 732.75 M 303.5 752.625 C 300.875 754.125 297.5 755.875 293.375 755.875 C 288.875 755.875 285.125 753.5 285.125 748.25 C 285.125 740 295 738.625 303.5 737.5 Z M 373.75 755.625 C 371.625 756.25 370.125 756.75 368 756.75 C 361.625 756.75 361.125 752.75 360.875 750.875 C 360.5 747.625 360.5 740.75 360.625 735.75 L 360.875 718.125 L 372.125 718.625 L 372.875 717.875 L 374.125 704.5 L 373.375 703.75 L 360.875 703.75 L 361.25 682.75 L 360.375 682 C 351.875 684.5 349.625 685.125 340.75 687.375 L 340.25 688.25 L 340.375 703.875 L 333.625 703.625 L 332.875 704.25 L 331.75 717.625 L 332.5 718.375 L 340.375 718.125 L 340 738 C 339.875 741.125 339.75 744.25 339.75 747.5 C 339.75 759 340 771.375 359.5 771.375 C 364.375 771.375 368.25 770.625 372.625 769.875 L 373.5 769 L 374.75 756.125 Z M 438.5 751.5 C 433.75 754 428.125 756.875 419 756.875 C 411.5 756.875 406.375 754.5 403.375 750 C 401.5 747.375 401.125 744.875 400.625 742.375 L 441 741.625 L 441.75 740.75 C 441.625 734.625 441.5 728.375 439.75 722.125 C 435.375 707.375 425.75 704.375 421.5 703.375 C 418.375 702.5 415.5 702.25 412.625 702.25 C 393 702.25 380 715.125 380 736.75 C 380 742.625 381 748.75 383 753.125 C 390.25 770 407.25 771.5 416.25 771.5 C 426.625 771.5 431.125 769.625 437.75 767 L 438.5 766 L 439.375 751.875 L 438.5 751.5 M 400.625 729.125 C 401 725.25 401.875 720 406.625 717 C 408.125 716 409.875 715.625 411.625 715.625 C 415.75 715.625 418.25 717.75 419.625 720 C 421.375 722.75 421.5 725.75 421.5 728.625 Z M 513 770 C 524.625 770.25 539 770.5 548.375 764 C 556.625 758.125 558.875 749.875 558.875 742.875 C 558.875 734.875 555.5 727.5 548.375 724 C 546 722.75 543.25 722.25 540.625 721.75 C 544.875 720 549.875 717.75 553.125 711.125 C 554.5 708.25 555.125 705.25 555.125 702.375 C 555.125 698.375 554.125 692.875 550.125 688.375 C 544.875 682.75 536.75 681.25 524.5 681.25 C 520.25 681.25 512.625 681.375 508.375 681.5 L 490.875 681.75 L 490.125 682.5 C 490.625 694.5 490.75 699.125 490.75 716.375 C 490.75 734.125 490.625 751.75 490.375 769.5 L 491.25 770 L 513 770 M 512.125 732 C 521.625 731.75 527.125 731.75 530.75 733.875 C 534.375 736.125 535.75 740.125 535.75 744.125 C 535.75 749.75 532.625 753.25 528 754.875 C 524.25 756.125 517.5 756.125 512.125 756 L 512.125 732 M 512.125 695.25 C 514.75 695.25 518.25 695.125 520.375 695.125 C 527.125 695.125 533.25 697.5 533.25 705.625 C 533.25 712.25 528.375 715 526.875 715.75 C 523.75 717.125 517.125 717.125 512.125 717.125 Z M 626 751.5 C 621.25 754 615.625 756.875 606.5 756.875 C 599 756.875 593.875 754.5 590.875 750 C 589 747.375 588.625 744.875 588.125 742.375 L 628.5 741.625 L 629.25 740.75 C 629.125 734.625 629 728.375 627.25 722.125 C 622.875 707.375 613.25 704.375 609 703.375 C 605.875 702.5 603 702.25 600.125 702.25 C 580.5 702.25 567.5 715.125 567.5 736.75 C 567.5 742.625 568.5 748.75 570.5 753.125 C 577.75 770 594.75 771.5 603.75 771.5 C 614.125 771.5 618.625 769.625 625.25 767 L 626 766 L 626.875 751.875 L 626 751.5 M 588.125 729.125 C 588.5 725.25 589.375 720 594.125 717 C 595.625 716 597.375 715.625 599.125 715.625 C 603.25 715.625 605.75 717.75 607.125 720 C 608.875 722.75 609 725.75 609 728.625 Z M 696.375 732.75 C 696.5 721.5 696.5 716.625 693.25 711.375 C 690.75 707.375 685.75 702.375 669.75 702.375 C 659 702.375 652.375 704.375 645.25 706.5 L 644.5 707.5 L 643.875 721.125 L 644.875 721.625 C 649.25 719.875 657.375 716.625 665.75 716.625 C 670.375 716.625 672.25 717.375 673.875 719 C 675.125 720.25 675.5 722.5 675.5 724.375 C 660.5 726.375 653.5 727.75 646 732.375 C 639 736.75 636.625 743.875 636.625 749.5 C 636.625 762.875 646.25 771.5 658.5 771.5 C 667.875 771.5 673.25 767 675.875 764.875 L 675.875 769.5 L 676.625 770.375 C 685.625 770 688.375 769.875 696.5 770 L 697.125 769.125 C 696.25 756.875 696.25 753.75 696.25 742 L 696.375 732.75 M 675.75 752.625 C 673.125 754.125 669.75 755.875 665.625 755.875 C 661.125 755.875 657.375 753.5 657.375 748.25 C 657.375 740 667.25 738.625 675.75 737.5 Z M 759.875 752 C 756.5 754 753.25 756 746.875 756 C 732.75 756 729.875 744.25 729.875 736.75 C 729.875 727.625 733.875 717.125 746 717.125 C 751.5 717.125 754.5 719.125 758.25 721.625 L 759.5 721.25 C 760 714.625 760.125 712.875 761.125 706.25 L 760.5 705.5 C 755 703.75 750.25 702.25 743 702.25 C 713.625 702.25 707.875 724.5 707.875 737.25 C 707.875 751.625 715.375 771.125 743.5 771.125 C 750.125 771.125 754.375 769.875 759.625 768.375 L 760.375 767.625 L 760.875 752.625 Z M 832.125 769.125 C 831.625 758.875 831.5 755.375 831.25 742.375 L 831.25 733 C 831.125 721.125 831 714.25 827.375 709 C 823.75 703.875 818.5 702.25 813 702.25 C 803.875 702.25 796.75 706.625 791.75 709.625 L 792.125 671.125 L 791.375 670.25 L 770 673.625 L 769.375 674.375 C 770.5 686.5 770.75 691 771 707.125 C 771.25 717.25 771.375 727.375 771.375 737.5 C 771.375 749.875 771.125 757.25 770.875 769.5 L 771.5 770.375 C 780.75 769.875 782.625 769.875 792.75 769.875 L 793.5 769.125 C 792.625 750.375 792.5 744.75 792.375 722.625 C 794.75 721 797.75 718.875 802 718.875 C 808.875 718.875 809.375 726 809.875 731 C 810.125 734.875 810.25 752.625 810.25 757.25 C 810.25 761.375 810.125 765.375 810.125 769.5 L 810.75 770.375 C 819.75 769.875 821.75 769.875 831.375 769.875 Z M 838.875 770 "/>
</svg>
