<?xml version="1.0" encoding="UTF-8"?>
<svg xmlns="http://www.w3.org/2000/svg" xmlns:xlink="http://www.w3.org/1999/xlink" width="975" height="1300" viewBox="0 0 975 1300">
<path fill-rule="nonzero" fill="rgb(34.901961%, 14.901961%, 14.901961%)" fill-opacity="1" d="M 157.875 566.25 C 147.375 561.875 141.875 559.625 141.875 554 C 141.875 550.125 145.5 545.25 153.75 545.25 C 163.25 545.25 168.875 549.125 173.5 552.25 L 174.625 551.75 L 175.625 535.375 L 175 534.5 C 169.625 532.25 164 529.875 151.875 529.875 C 128.375 529.875 120.25 543.125 120.25 556.5 C 120.25 571.625 132 577.125 139 580.5 L 143.125 582.375 C 151.75 586 158.375 589.125 158.375 595.75 C 158.375 600.5 154.25 606.125 143.375 606.125 C 132 606.125 125.625 601.125 122 598.25 L 120.75 598.625 L 119.875 616.25 L 120.625 617.25 C 122 617.75 123.375 618.375 124.75 618.75 C 127.625 619.75 135 621.875 144.375 621.875 C 148.125 621.875 157.625 621.5 165.125 618 C 175.625 612.875 180.125 603.375 180.125 592.75 C 180.125 585.625 177.375 578 170.75 572.875 C 167.375 570.375 164.125 568.875 161.125 567.5 Z M 247.625 582.75 C 247.75 571.5 247.75 566.625 244.5 561.375 C 242 557.375 237 552.375 221 552.375 C 210.25 552.375 203.625 554.375 196.5 556.5 L 195.75 557.5 L 195.125 571.125 L 196.125 571.625 C 200.5 569.875 208.625 566.625 217 566.625 C 221.625 566.625 223.5 567.375 225.125 569 C 226.375 570.25 226.75 572.5 226.75 574.375 C 211.75 576.375 204.75 577.75 197.25 582.375 C 190.25 586.75 187.875 593.875 187.875 599.5 C 187.875 612.875 197.5 621.5 209.75 621.5 C 219.125 621.5 224.5 617 227.125 614.875 L 227.125 619.5 L 227.875 620.375 C 236.875 620 239.625 619.875 247.75 620 L 248.375 619.125 C 247.5 606.875 247.5 603.75 247.5 592 L 247.625 582.75 M 227 602.625 C 224.375 604.125 221 605.875 216.875 605.875 C 212.375 605.875 208.625 603.5 208.625 598.25 C 208.625 590 218.5 588.625 227 587.5 Z M 284.25 619.125 C 283.625 604.75 283 591.625 283 552.125 C 283 540.25 283.125 534.625 283.625 521.125 L 282.75 520.25 L 261.375 523.625 L 260.875 524.375 C 262.125 539.625 262.25 543.75 262.5 564 C 262.625 571.375 262.625 578.75 262.625 586.125 C 262.625 599.625 262.375 607.125 261.875 619.5 L 262.625 620.375 C 271 620 274.375 619.875 283.5 620 Z M 321.375 619.125 C 320.75 609.5 320.25 602.125 320.25 584.875 C 320.25 574.25 320.5 563.5 320.625 552.875 L 319.75 551.875 L 298.25 555.625 L 297.5 556.375 C 298.5 565.875 298.875 570.25 298.875 588 C 298.875 601.625 298.5 609.25 298.125 619.5 L 298.875 620.375 C 307.875 620 310.375 619.875 320.5 620 L 321.375 619.125 M 319.375 539.875 L 319.75 522.875 L 319 522.125 L 298.625 524.625 L 297.875 525.5 C 298.125 530 298.25 532.625 298.25 535.625 C 298.25 538 298.25 540.5 298.125 542.875 L 299 543.625 C 307.5 542.125 309.875 541.875 318.75 540.75 Z M 396.5 619.125 C 395.875 608.125 395.875 604.625 395.625 592.375 L 395.625 582.625 C 395.5 570.625 395.375 564.875 392.25 559.75 C 388.375 553.25 381.25 552.25 376.75 552.25 C 369.125 552.25 362.5 556.25 356.75 559.625 L 357 552.75 L 355.75 551.875 C 346.125 553.875 344 554.25 334.625 555.5 L 333.875 556.375 C 334.875 567.25 335.625 575.125 335.625 595.5 C 335.625 603.5 335.5 611.5 335.375 619.5 L 336.125 620.25 C 345.125 619.875 347 619.875 357 619.875 L 357.75 619.125 C 357 599.875 356.875 595 356.75 572.625 C 359.375 570.875 362.375 568.75 366.375 568.75 C 373.25 568.75 373.875 576.125 374.25 580.625 C 374.5 584.75 374.625 601.875 374.625 606.625 C 374.625 610.875 374.5 615.25 374.5 619.5 L 375.25 620.25 C 383.5 620 385.625 619.875 395.625 619.875 Z M 466.375 582.75 C 466.5 571.5 466.5 566.625 463.25 561.375 C 460.75 557.375 455.75 552.375 439.75 552.375 C 429 552.375 422.375 554.375 415.25 556.5 L 414.5 557.5 L 413.875 571.125 L 414.875 571.625 C 419.25 569.875 427.375 566.625 435.75 566.625 C 440.375 566.625 442.25 567.375 443.875 569 C 445.125 570.25 445.5 572.5 445.5 574.375 C 430.5 576.375 423.5 577.75 416 582.375 C 409 586.75 406.625 593.875 406.625 599.5 C 406.625 612.875 416.25 621.5 428.5 621.5 C 437.875 621.5 443.25 617 445.875 614.875 L 445.875 619.5 L 446.625 620.375 C 455.625 620 458.375 619.875 466.5 620 L 467.125 619.125 C 466.25 606.875 466.25 603.75 466.25 592 L 466.375 582.75 M 445.75 602.625 C 443.125 604.125 439.75 605.875 435.625 605.875 C 431.125 605.875 427.375 603.5 427.375 598.25 C 427.375 590 437.25 588.625 445.75 587.5 Z M 507.25 576.875 C 503 575.375 499.625 574 499.625 570.5 C 499.625 569 500.625 564.875 508.375 564.875 C 516 564.875 520.875 568.125 524 570.125 L 525.125 569.75 L 526.375 556.125 L 525.75 555.375 C 519.875 553.75 514.75 552.25 506.625 552.25 C 500.5 552.25 488.25 552.75 481.75 562.125 C 480.125 564.375 478.375 568.125 478.375 573.125 C 478.375 586.5 488.75 590.5 494.625 592.75 L 499.375 594.5 C 502.75 595.625 508.25 597.5 508.25 602 C 508.25 605.125 505.375 608.5 498.375 608.5 C 494.875 608.5 489.75 607.375 485.125 605 C 483 603.875 482 603 480.125 601.5 L 479 602 C 478.75 608.5 478.625 609.875 478.125 616.125 L 478.75 617.25 C 484.875 619.5 490.125 621.5 499.25 621.5 C 508.75 621.5 527.5 619.75 529.75 601.875 C 529.875 600.875 529.875 600 529.875 599.125 C 529.875 585.375 520.25 581.75 513.375 579.125 Z M 605.625 585.625 C 614 599.875 615.875 603.625 623.875 620 L 624.875 620.625 C 628.75 620.375 632.5 620.125 636.375 620 C 640.25 619.875 644.25 619.75 648.125 619.75 L 648.875 618.25 C 644.125 612.125 642.75 610.25 633.75 595.875 C 629.75 589.5 627.75 586.125 624.625 580.625 C 630.25 578.125 641.625 572.875 641.625 557 C 641.625 551.5 640.125 540.125 629.875 534.75 C 623.375 531.375 616.625 531.25 602 531.5 L 593.25 531.625 L 578 531.625 L 577.375 532.375 C 577.875 545 578.375 558 578.375 592 C 578.375 603.625 578.25 609.25 577.875 619.625 L 578.625 620.375 C 587.75 620 589.75 619.875 600 620 L 600.75 619.25 C 599.75 604.75 599.625 600.75 599.5 585.875 L 605.625 585.625 M 599.75 546.75 C 601.5 546.625 603.25 546.625 605 546.625 C 609.875 546.625 619.5 546.625 619.5 557.625 C 619.5 561.125 618.625 565.75 614 568.625 C 610.5 570.75 606 571 599.75 571.125 Z M 678.125 619.125 C 677.5 609.5 677 602.125 677 584.875 C 677 574.25 677.25 563.5 677.375 552.875 L 676.5 551.875 L 655 555.625 L 654.25 556.375 C 655.25 565.875 655.625 570.25 655.625 588 C 655.625 601.625 655.25 609.25 654.875 619.5 L 655.625 620.375 C 664.625 620 667.125 619.875 677.25 620 L 678.125 619.125 M 676.125 539.875 L 676.5 522.875 L 675.75 522.125 L 655.375 524.625 L 654.625 525.5 C 654.875 530 655 532.625 655 535.625 C 655 538 655 540.5 654.875 542.875 L 655.75 543.625 C 664.25 542.125 666.625 541.875 675.5 540.75 Z M 726.5 619 C 730.5 606.5 732.875 598.75 735.5 590.875 C 738.875 580.75 744.375 564.5 747.875 554.25 L 747.25 553.375 L 729.75 553.75 L 728.875 554.625 C 727.125 563 726.75 564.75 724.25 574.5 L 717.875 599.125 L 714.75 585.625 L 712.375 576 C 709.25 564.375 708.75 562 707 553.75 L 706.125 553 C 696.25 554.125 693.75 554.25 684.25 554.375 L 683.75 555.375 C 700.375 604.625 701.75 609.25 704.5 619.5 L 705.375 620.375 C 713.5 620 716.75 619.875 725.75 620 Z M 810 601.5 C 805.25 604 799.625 606.875 790.5 606.875 C 783 606.875 777.875 604.5 774.875 600 C 773 597.375 772.625 594.875 772.125 592.375 L 812.5 591.625 L 813.25 590.75 C 813.125 584.625 813 578.375 811.25 572.125 C 806.875 557.375 797.25 554.375 793 553.375 C 789.875 552.5 787 552.25 784.125 552.25 C 764.5 552.25 751.5 565.125 751.5 586.75 C 751.5 592.625 752.5 598.75 754.5 603.125 C 761.75 620 778.75 621.5 787.75 621.5 C 798.125 621.5 802.625 619.625 809.25 617 L 810 616 L 810.875 601.875 L 810 601.5 M 772.125 579.125 C 772.5 575.25 773.375 570 778.125 567 C 779.625 566 781.375 565.625 783.125 565.625 C 787.25 565.625 789.75 567.75 791.125 570 C 792.875 572.75 793 575.75 793 578.625 Z M 860.875 573.625 L 864.375 553.25 L 863.625 552.375 C 862.75 552.375 861.875 552.25 861 552.25 C 855.875 552.25 850.125 555.125 846.125 564.375 L 846.5 552.875 L 845.5 551.875 C 836.25 553.875 833.875 554.25 824.75 555.625 L 824 556.375 C 824.75 565.75 825.125 571.375 825.125 588.75 C 825.125 599 825 609.25 824.75 619.625 L 825.5 620.375 C 834.75 620 836.75 619.875 846.75 620 L 847.375 619.125 C 846.875 609 846.125 594.875 846.125 586.25 C 846.125 580.625 846.125 572.375 854.625 572.375 C 856.75 572.375 858 573.125 859.75 574.125 Z M 864.125 620 "/>
<path fill-rule="nonzero" fill="rgb(34.901961%, 14.901961%, 14.901961%)" fill-opacity="1" d="M 190.125 716.25 C 179.625 711.875 174.125 709.625 174.125 704 C 174.125 700.125 177.75 695.25 186 695.25 C 195.5 695.25 201.125 699.125 205.75 702.25 L 206.875 701.75 L 207.875 685.375 L 207.25 684.5 C 201.875 682.25 196.25 679.875 184.125 679.875 C 160.625 679.875 152.5 693.125 152.5 706.5 C 152.5 721.625 164.25 727.125 171.25 730.5 L 175.375 732.375 C 184 736 190.625 739.125 190.625 745.75 C 190.625 750.5 186.5 756.125 175.625 756.125 C 164.25 756.125 157.875 751.125 154.25 748.25 L 153 748.625 L 152.125 766.25 L 152.875 767.25 C 154.25 767.75 155.625 768.375 157 768.75 C 159.875 769.75 167.25 771.875 176.625 771.875 C 180.375 771.875 189.875 771.5 197.375 768 C 207.875 762.875 212.375 753.375 212.375 742.75 C 212.375 735.625 209.625 728 203 722.875 C 199.625 720.375 196.375 718.875 193.375 717.5 Z M 259.25 755.625 C 257.125 756.25 255.625 756.75 253.5 756.75 C 247.125 756.75 246.625 752.75 246.375 750.875 C 246 747.625 246 740.75 246.125 735.75 L 246.375 718.125 L 257.625 718.625 L 258.375 717.875 L 259.625 704.5 L 258.875 703.75 L 246.375 703.75 L 246.75 682.75 L 245.875 682 C 237.375 684.5 235.125 685.125 226.25 687.375 L 225.75 688.25 L 225.875 703.875 L 219.125 703.625 L 218.375 704.25 L 217.25 717.625 L 218 718.375 L 225.875 718.125 L 225.5 738 C 225.375 741.125 225.25 744.25 225.25 747.5 C 225.25 759 225.5 771.375 245 771.375 C 249.875 771.375 253.75 770.625 258.125 769.875 L 259 769 L 260.25 756.125 Z M 324.125 732.75 C 324.25 721.5 324.25 716.625 321 711.375 C 318.5 707.375 313.5 702.375 297.5 702.375 C 286.75 702.375 280.125 704.375 273 706.5 L 272.25 707.5 L 271.625 721.125 L 272.625 721.625 C 277 719.875 285.125 716.625 293.5 716.625 C 298.125 716.625 300 717.375 301.625 719 C 302.875 720.25 303.25 722.5 303.25 724.375 C 288.25 726.375 281.25 727.75 273.75 732.375 C 266.75 736.75 264.375 743.875 264.375 749.5 C 264.375 762.875 274 771.5 286.25 771.5 C 295.625 771.5 301 767 303.625 764.875 L 303.625 769.5 L 304.375 770.375 C 313.375 770 316.125 769.875 324.25 770 L 324.875 769.125 C 324 756.875 324 753.75 324 742 L 324.125 732.75 M 303.5 752.625 C 300.875 754.125 297.5 755.875 293.375 755.875 C 288.875 755.875 285.125 753.5 285.125 748.25 C 285.125 740 295 738.625 303.5 737.5 Z M 373.75 755.625 C 371.625 756.25 370.125 756.75 368 756.75 C 361.625 756.75 361.125 752.75 360.875 750.875 C 360.5 747.625 360.5 740.75 360.625 735.75 L 360.875 718.125 L 372.125 718.625 L 372.875 717.875 L 374.125 704.5 L 373.375 703.75 L 360.875 703.75 L 361.25 682.75 L 360.375 682 C 351.875 684.5 349.625 685.125 340.75 687.375 L 340.25 688.25 L 340.375 703.875 L 333.625 703.625 L 332.875 704.25 L 331.75 717.625 L 332.5 718.375 L 340.375 718.125 L 340 738 C 339.875 741.125 339.75 744.25 339.75 747.5 C 339.75 759 340 771.375 359.5 771.375 C 364.375 771.375 368.25 770.625 372.625 769.875 L 373.5 769 L 374.75 756.125 Z M 438.5 751.5 C 433.75 754 428.125 756.875 419 756.875 C 411.5 756.875 406.375 754.5 403.375 750 C 401.5 747.375 401.125 744.875 400.625 742.375 L 441 741.625 L 441.75 740.75 C 441.625 734.625 441.5 728.375 439.75 722.125 C 435.375 707.375 425.75 704.375 421.5 703.375 C 418.375 702.5 415.5 702.25 412.625 702.25 C 393 702.25 380 715.125 380 736.75 C 380 742.625 381 748.75 383 753.125 C 390.25 770 407.25 771.5 416.25 771.5 C 426.625 771.5 431.125 769.625 437.75 767 L 438.5 766 L 439.375 751.875 L 438.5 751.5 M 400.625 729.125 C 401 725.25 401.875 720 406.625 717 C 408.125 716 409.875 715.625 411.625 715.625 C 415.75 715.625 418.25 717.75 419.625 720 C 421.375 722.75 421.5 725.75 421.5 728.625 Z M 513 770 C 524.625 770.25 539 770.5 548.375 764 C 556.625 758.125 558.875 749.875 558.875 742.875 C 558.875 734.875 555.5 727.5 548.375 724 C 546 722.75 543.25 722.25 540.625 721.75 C 544.875 720 549.875 717.75 553.125 711.125 C 554.5 708.25 555.125 705.25 555.125 702.375 C 555.125 698.375 554.125 692.875 550.125 688.375 C 544.875 682.75 536.75 681.25 524.5 681.25 C 520.25 681.25 512.625 681.375 508.375 681.5 L 490.875 681.75 L 490.125 682.5 C 490.625 694.5 490.75 699.125 490.75 716.375 C 490.75 734.125 490.625 751.75 490.375 769.5 L 491.25 770 L 513 770 M 512.125 732 C 521.625 731.75 527.125 731.75 530.75 733.875 C 534.375 736.125 535.75 740.125 535.75 744.125 C 535.75 749.75 532.625 753.25 528 754.875 C 524.25 756.125 517.5 756.125 512.125 756 L 512.125 732 M 512.125 695.25 C 514.75 695.25 518.25 695.125 520.375 695.125 C 527.125 695.125 533.25 697.5 533.25 705.625 C 533.25 712.25 528.375 715 526.875 715.75 C 523.75 717.125 517.125 717.125 512.125 717.125 Z M 626 751.5 C 621.25 754 615.625 756.875 606.5 756.875 C 599 756.875 593.875 754.5 590.875 750 C 589 747.375 588.625 744.875 588.125 742.375 L 628.5 741.625 L 629.25 740.75 C 629.125 734.625 629 728.375 627.25 722.125 C 622.875 707.375 613.25 704.375 609 703.375 C 605.875 702.5 603 702.25 600.125 702.25 C 580.5 702.25 567.5 715.125 567.5 736.75 C 567.5 742.625 568.5 748.75 570.5 753.125 C 577.75 770 594.75 771.5 603.75 771.5 C 614.125 771.5 618.625 769.625 625.25 767 L 626 766 L 626.875 751.875 L 626 751.5 M 588.125 729.125 C 588.5 725.25 589.375 720 594.125 717 C 595.625 716 597.375 715.625 599.125 715.625 C 603.25 715.625 605.75 717.75 607.125 720 C 608.875 722.75 609 725.75 609 728.625 Z M 696.375 732.75 C 696.5 721.5 696.5 716.625 693.25 711.375 C 690.75 707.375 685.75 702.375 669.75 702.375 C 659 702.375 652.375 704.375 645.25 706.5 L 644.5 707.5 L 643.875 721.125 L 644.875 721.625 C 649.25 719.875 657.375 716.625 665.75 716.625 C 670.375 716.625 672.25 717.375 673.875 719 C 675.125 720.25 675.5 722.5 675.5 724.375 C 660.5 726.375 653.5 727.75 646 732.375 C 639 736.75 636.625 743.875 636.625 749.5 C 636.625 762.875 646.25 771.5 658.5 771.5 C 667.875 771.5 673.25 767 675.875 764.875 L 675.875 769.5 L 676.625 770.375 C 685.625 770 688.375 769.875 696.5 770 L 697.125 769.125 C 696.25 756.875 696.25 753.75 696.25 742 L 696.375 732.75 M 675.75 752.625 C 673.125 754.125 669.75 755.875 665.625 755.875 C 661.125 755.875 657.375 753.5 657.375 748.25 C 657.375 740 667.25 738.625 675.75 737.5 Z M 759.875 752 C 756.5 754 753.25 756 746.875 756 C 732.75 756 729.875 744.25 729.875 736.75 C 729.875 727.625 733.875 717.125 746 717.125 C 751.5 717.125 754.5 719.125 758.25 721.625 L 759.5 721.25 C 760 714.625 760.125 712.875 761.125 706.25 L 760.5 705.5 C 755 703.75 750.25 702.25 743 702.25 C 713.625 702.25 707.875 724.5 707.875 737.25 C 707.875 751.625 715.375 771.125 743.5 771.125 C 750.125 771.125 754.375 769.875 759.625 768.375 L 760.375 767.625 L 760.875 752.625 Z M 832.125 769.125 C 831.625 758.875 831.5 755.375 831.25 742.375 L 831.25 733 C 831.125 721.125 831 714.25 827.375 709 C 823.75 703.875 818.5 702.25 813 702.25 C 803.875 702.25 796.75 706.625 791.75 709.625 L 792.125 671.125 L 791.375 670.25 L 770 673.625 L 769.375 674.375 C 770.5 686.5 770.75 691 771 707.125 C 771.25 717.25 771.375 727.375 771.375 737.5 C 771.375 749.875 771.125 757.25 770.875 769.5 L 771.5 770.375 C 780.75 769.875 782.625 769.875 792.75 769.875 L 793.5 769.125 C 792.625 750.375 792.5 744.75 792.375 722.625 C 794.75 721 797.75 718.875 802 718.875 C 808.875 718.875 809.375 726 809.875 731 C 810.125 734.875 810.25 752.625 810.25 757.25 C 810.25 761.375 810.125 765.375 810.125 769.5 L 810.75 770.375 C 819.75 769.875 821.75 769.875 831.375 769.875 Z M 838.875 770 "/>
</svg>
