<?xml version="1.0" encoding="UTF-8"?>
<svg xmlns="http://www.w3.org/2000/svg" xmlns:xlink="http://www.w3.org/1999/xlink" width="975" height="1300" viewBox="0 0 975 1300">
<path fill-rule="nonzero" fill="rgb(34.901961%, 14.901961%, 14.901961%)" fill-opacity="1" d="M 134.375 602.875 C 120.75 603.625 109.875 603.875 106.125 603.875 L 103.625 603.875 C 103.375 570.5 103.5 562 104.5 532.125 L 103.75 531.375 C 93 531.875 90.125 531.875 81.5 531.75 L 80.75 532.5 C 81.25 542.5 81.375 545.5 81.375 560.375 C 81.375 580.125 81.25 599.875 81.25 619.625 L 81.875 620.375 C 106.375 620 110.875 620 133.375 620 L 134 619.25 L 135 603.5 Z M 168.375 619.125 C 167.75 609.5 167.25 602.125 167.25 584.875 C 167.25 574.25 167.5 563.5 167.625 552.875 L 166.75 551.875 L 145.25 555.625 L 144.5 556.375 C 145.5 565.875 145.875 570.25 145.875 588 C 145.875 601.625 145.5 609.25 145.125 619.5 L 145.875 620.375 C 154.875 620 157.375 619.875 167.5 620 L 168.375 619.125 M 166.375 539.875 L 166.75 522.875 L 166 522.125 L 145.625 524.625 L 144.875 525.5 C 145.125 530 145.25 532.625 145.25 535.625 C 145.25 538 145.25 540.5 145.125 542.875 L 146 543.625 C 154.5 542.125 156.875 541.875 165.75 540.75 Z M 279.875 619.125 C 279.25 607.5 279.125 604.25 279.125 590.125 L 279.125 580.75 C 279.25 572.375 279.375 564.625 275.75 559.375 C 270.875 552.25 262.25 552.25 260.25 552.25 C 250 552.25 243.125 556.875 238.125 560.375 C 236.375 557.5 233.25 552.25 223.25 552.25 C 215 552.25 209.625 556 203.875 560 L 203.875 553 L 202.75 551.875 C 193 553.75 190.25 554.25 181.5 555.5 L 180.75 556.375 C 181.75 566.375 182.5 573.25 182.5 598 C 182.5 605.125 182.375 612.375 182.375 619.5 L 183 620.25 C 191 620 193.75 619.875 204.125 619.875 L 204.875 619.125 C 204 599.875 203.875 594.125 203.75 572.375 C 206.375 570.5 209.25 568.875 212.375 568.875 C 220.125 568.875 220.375 577.75 220.375 588.5 C 220.375 606.625 220.25 609.375 220 619.5 L 220.75 620.375 C 230.25 619.875 232.875 619.875 241.5 619.875 L 242.25 619.125 C 241.5 607.25 241.375 603.75 241.25 588.625 L 241.25 584 L 241.125 571.375 C 243.25 570 246 568.25 249.75 568.25 C 256.875 568.25 258 575 258 585.75 C 258 588.125 257.875 590.5 257.875 592.875 C 257.75 597.125 257.625 615.75 257.5 619.5 L 258.25 620.25 C 267.625 619.875 270.375 619.875 279.125 619.875 Z M 349.75 601.5 C 345 604 339.375 606.875 330.25 606.875 C 322.75 606.875 317.625 604.5 314.625 600 C 312.75 597.375 312.375 594.875 311.875 592.375 L 352.25 591.625 L 353 590.75 C 352.875 584.625 352.75 578.375 351 572.125 C 346.625 557.375 337 554.375 332.75 553.375 C 329.625 552.5 326.75 552.25 323.875 552.25 C 304.25 552.25 291.25 565.125 291.25 586.75 C 291.25 592.625 292.25 598.75 294.25 603.125 C 301.5 620 318.5 621.5 327.5 621.5 C 337.875 621.5 342.375 619.625 349 617 L 349.75 616 L 350.625 601.875 L 349.75 601.5 M 311.875 579.125 C 312.25 575.25 313.125 570 317.875 567 C 319.375 566 321.125 565.625 322.875 565.625 C 327 565.625 329.5 567.75 330.875 570 C 332.625 572.75 332.75 575.75 332.75 578.625 Z M 428.75 618.375 C 417 598.5 415.75 596.25 406.25 579.125 C 414.875 567.375 415.75 566.125 424.625 554.75 L 424 553.5 L 403.625 553.75 L 402.375 554.625 C 392.625 571.5 391.375 573.5 385.625 582.125 L 385.625 568.25 C 385.75 544.875 385.875 539.875 386.5 521 L 385.5 520.25 L 363.75 523.5 L 363 524.375 C 363.875 536.5 364.25 542.375 364.5 558.75 C 364.75 579 364.75 599.25 364.625 619.5 L 365.5 620.375 C 373.875 620 376.25 620 385.75 620 L 386.5 619.125 L 385.75 598 L 385.625 583.625 C 396.5 603.625 397.875 606.375 404.25 619.625 L 405.375 620.375 L 427.875 619.5 Z M 457.375 619.125 C 456.75 609.5 456.25 602.125 456.25 584.875 C 456.25 574.25 456.5 563.5 456.625 552.875 L 455.75 551.875 L 434.25 555.625 L 433.5 556.375 C 434.5 565.875 434.875 570.25 434.875 588 C 434.875 601.625 434.5 609.25 434.125 619.5 L 434.875 620.375 C 443.875 620 446.375 619.875 456.5 620 L 457.375 619.125 M 455.375 539.875 L 455.75 522.875 L 455 522.125 L 434.625 524.625 L 433.875 525.5 C 434.125 530 434.25 532.625 434.25 535.625 C 434.25 538 434.25 540.5 434.125 542.875 L 435 543.625 C 443.5 542.125 445.875 541.875 454.75 540.75 Z M 493.25 619.125 C 492.625 604.75 492 591.625 492 552.125 C 492 540.25 492.125 534.625 492.625 521.125 L 491.75 520.25 L 470.375 523.625 L 469.875 524.375 C 471.125 539.625 471.25 543.75 471.5 564 C 471.625 571.375 471.625 578.75 471.625 586.125 C 471.625 599.625 471.375 607.125 470.875 619.5 L 471.625 620.375 C 480 620 483.375 619.875 492.5 620 Z M 569 619.125 C 568.375 608.125 568.375 604.625 568.125 592.375 L 568.125 582.625 C 568 570.625 567.875 564.875 564.75 559.75 C 560.875 553.25 553.75 552.25 549.25 552.25 C 541.625 552.25 535 556.25 529.25 559.625 L 529.5 552.75 L 528.25 551.875 C 518.625 553.875 516.5 554.25 507.125 555.5 L 506.375 556.375 C 507.375 567.25 508.125 575.125 508.125 595.5 C 508.125 603.5 508 611.5 507.875 619.5 L 508.625 620.25 C 517.625 619.875 519.5 619.875 529.5 619.875 L 530.25 619.125 C 529.5 599.875 529.375 595 529.25 572.625 C 531.875 570.875 534.875 568.75 538.875 568.75 C 545.75 568.75 546.375 576.125 546.75 580.625 C 547 584.75 547.125 601.875 547.125 606.625 C 547.125 610.875 547 615.25 547 619.5 L 547.75 620.25 C 556 620 558.125 619.875 568.125 619.875 Z M 655.875 566.25 C 645.375 561.875 639.875 559.625 639.875 554 C 639.875 550.125 643.5 545.25 651.75 545.25 C 661.25 545.25 666.875 549.125 671.5 552.25 L 672.625 551.75 L 673.625 535.375 L 673 534.5 C 667.625 532.25 662 529.875 649.875 529.875 C 626.375 529.875 618.25 543.125 618.25 556.5 C 618.25 571.625 630 577.125 637 580.5 L 641.125 582.375 C 649.75 586 656.375 589.125 656.375 595.75 C 656.375 600.5 652.25 606.125 641.375 606.125 C 630 606.125 623.625 601.125 620 598.25 L 618.75 598.625 L 617.875 616.25 L 618.625 617.25 C 620 617.75 621.375 618.375 622.75 618.75 C 625.625 619.75 633 621.875 642.375 621.875 C 646.125 621.875 655.625 621.5 663.125 618 C 673.625 612.875 678.125 603.375 678.125 592.75 C 678.125 585.625 675.375 578 668.75 572.875 C 665.375 570.375 662.125 568.875 659.125 567.5 Z M 725 605.625 C 722.875 606.25 721.375 606.75 719.25 606.75 C 712.875 606.75 712.375 602.75 712.125 600.875 C 711.75 597.625 711.75 590.75 711.875 585.75 L 712.125 568.125 L 723.375 568.625 L 724.125 567.875 L 725.375 554.5 L 724.625 553.75 L 712.125 553.75 L 712.5 532.75 L 711.625 532 C 703.125 534.5 700.875 535.125 692 537.375 L 691.5 538.25 L 691.625 553.875 L 684.875 553.625 L 684.125 554.25 L 683 567.625 L 683.75 568.375 L 691.625 568.125 L 691.25 588 C 691.125 591.125 691 594.25 691 597.5 C 691 609 691.25 621.375 710.75 621.375 C 715.625 621.375 719.5 620.625 723.875 619.875 L 724.75 619 L 726 606.125 Z M 789.875 582.75 C 790 571.5 790 566.625 786.75 561.375 C 784.25 557.375 779.25 552.375 763.25 552.375 C 752.5 552.375 745.875 554.375 738.75 556.5 L 738 557.5 L 737.375 571.125 L 738.375 571.625 C 742.75 569.875 750.875 566.625 759.25 566.625 C 763.875 566.625 765.75 567.375 767.375 569 C 768.625 570.25 769 572.5 769 574.375 C 754 576.375 747 577.75 739.5 582.375 C 732.5 586.75 730.125 593.875 730.125 599.5 C 730.125 612.875 739.75 621.5 752 621.5 C 761.375 621.5 766.75 617 769.375 614.875 L 769.375 619.5 L 770.125 620.375 C 779.125 620 781.875 619.875 790 620 L 790.625 619.125 C 789.75 606.875 789.75 603.75 789.75 592 L 789.875 582.75 M 769.25 602.625 C 766.625 604.125 763.25 605.875 759.125 605.875 C 754.625 605.875 750.875 603.5 750.875 598.25 C 750.875 590 760.75 588.625 769.25 587.5 Z M 839.5 605.625 C 837.375 606.25 835.875 606.75 833.75 606.75 C 827.375 606.75 826.875 602.75 826.625 600.875 C 826.25 597.625 826.25 590.75 826.375 585.75 L 826.625 568.125 L 837.875 568.625 L 838.625 567.875 L 839.875 554.5 L 839.125 553.75 L 826.625 553.75 L 827 532.75 L 826.125 532 C 817.625 534.5 815.375 535.125 806.5 537.375 L 806 538.25 L 806.125 553.875 L 799.375 553.625 L 798.625 554.25 L 797.5 567.625 L 798.25 568.375 L 806.125 568.125 L 805.75 588 C 805.625 591.125 805.5 594.25 805.5 597.5 C 805.5 609 805.75 621.375 825.25 621.375 C 830.125 621.375 834 620.625 838.375 619.875 L 839.25 619 L 840.5 606.125 Z M 904.25 601.5 C 899.5 604 893.875 606.875 884.75 606.875 C 877.25 606.875 872.125 604.5 869.125 600 C 867.25 597.375 866.875 594.875 866.375 592.375 L 906.75 591.625 L 907.5 590.75 C 907.375 584.625 907.25 578.375 905.5 572.125 C 901.125 557.375 891.5 554.375 887.25 553.375 C 884.125 552.5 881.25 552.25 878.375 552.25 C 858.75 552.25 845.75 565.125 845.75 586.75 C 845.75 592.625 846.75 598.75 848.75 603.125 C 856 620 873 621.5 882 621.5 C 892.375 621.5 896.875 619.625 903.5 617 L 904.25 616 L 905.125 601.875 L 904.25 601.5 M 866.375 579.125 C 866.75 575.25 867.625 570 872.375 567 C 873.875 566 875.625 565.625 877.375 565.625 C 881.5 565.625 884 567.75 885.375 570 C 887.125 572.75 887.25 575.75 887.25 578.625 Z M 911.5 620 "/>
<path fill-rule="nonzero" fill="rgb(34.901961%, 14.901961%, 14.901961%)" fill-opacity="1" d="M 382.375 681.5 L 366.5 681.75 L 365.75 682.5 C 366.25 698.75 366.625 709.625 366.625 724 C 366.625 739.25 366.25 754.375 365.875 769.625 L 366.625 770.375 C 375.875 770 377.875 769.875 387.875 770 L 388.5 769.25 C 388 755.625 388 752.5 388 739.75 C 402 739.875 417 739.875 426 728.875 C 429.5 724.625 432.5 717.5 432.5 708.75 C 432.5 703.375 431.25 691.5 420.875 685.625 C 413.375 681.25 402.75 681.25 393.375 681.25 L 382.375 681.5 M 388 696.625 C 390.75 696.5 393.375 696.5 396.125 696.5 C 407.125 696.75 410.125 702.375 410.125 709.625 C 410.125 711.375 410.125 718.625 403.5 722.25 C 400.125 724.125 395.5 724.375 388 724.375 Z M 496.75 732.75 C 496.875 721.5 496.875 716.625 493.625 711.375 C 491.125 707.375 486.125 702.375 470.125 702.375 C 459.375 702.375 452.75 704.375 445.625 706.5 L 444.875 707.5 L 444.25 721.125 L 445.25 721.625 C 449.625 719.875 457.75 716.625 466.125 716.625 C 470.75 716.625 472.625 717.375 474.25 719 C 475.5 720.25 475.875 722.5 475.875 724.375 C 460.875 726.375 453.875 727.75 446.375 732.375 C 439.375 736.75 437 743.875 437 749.5 C 437 762.875 446.625 771.5 458.875 771.5 C 468.25 771.5 473.625 767 476.25 764.875 L 476.25 769.5 L 477 770.375 C 486 770 488.75 769.875 496.875 770 L 497.5 769.125 C 496.625 756.875 496.625 753.75 496.625 742 L 496.75 732.75 M 476.125 752.625 C 473.5 754.125 470.125 755.875 466 755.875 C 461.5 755.875 457.75 753.5 457.75 748.25 C 457.75 740 467.625 738.625 476.125 737.5 Z M 547.5 723.625 L 551 703.25 L 550.25 702.375 C 549.375 702.375 548.5 702.25 547.625 702.25 C 542.5 702.25 536.75 705.125 532.75 714.375 L 533.125 702.875 L 532.125 701.875 C 522.875 703.875 520.5 704.25 511.375 705.625 L 510.625 706.375 C 511.375 715.75 511.75 721.375 511.75 738.75 C 511.75 749 511.625 759.25 511.375 769.625 L 512.125 770.375 C 521.375 770 523.375 769.875 533.375 770 L 534 769.125 C 533.5 759 532.75 744.875 532.75 736.25 C 532.75 730.625 532.75 722.375 541.25 722.375 C 543.375 722.375 544.625 723.125 546.375 724.125 Z M 622.5 768.375 C 610.75 748.5 609.5 746.25 600 729.125 C 608.625 717.375 609.5 716.125 618.375 704.75 L 617.75 703.5 L 597.375 703.75 L 596.125 704.625 C 586.375 721.5 585.125 723.5 579.375 732.125 L 579.375 718.25 C 579.5 694.875 579.625 689.875 580.25 671 L 579.25 670.25 L 557.5 673.5 L 556.75 674.375 C 557.625 686.5 558 692.375 558.25 708.75 C 558.5 729 558.5 749.25 558.375 769.5 L 559.25 770.375 C 567.625 770 570 770 579.5 770 L 580.25 769.125 L 579.5 748 L 579.375 733.625 C 590.25 753.625 591.625 756.375 598 769.625 L 599.125 770.375 L 621.625 769.5 Z M 621 770 "/>
</svg>
