<?xml version="1.0" encoding="UTF-8"?>
<svg xmlns="http://www.w3.org/2000/svg" xmlns:xlink="http://www.w3.org/1999/xlink" width="975" height="1300" viewBox="0 0 975 1300">
<path fill-rule="nonzero" fill="rgb(34.901961%, 14.901961%, 14.901961%)" fill-opacity="1" d="M 153.375 473.25 L 154.125 472.625 L 155 457 L 154.375 456.625 L 92.5 456.625 L 91.625 457.375 L 90.75 472.75 L 91.375 473.5 L 111.75 473 C 111.875 505.75 111.875 513.625 110.875 544.625 L 111.625 545.375 C 120.875 545 123.375 544.875 133.75 544.875 L 134.5 544.125 C 133.875 526.625 133.625 509.125 133.625 491.5 C 133.625 484.625 133.75 480.75 134 472.75 Z M 223 478.125 L 202.625 479.125 L 201.75 479.875 C 202.625 494 202.625 514 202.625 516 C 202.625 519.625 202.625 521.625 202.5 526.625 C 199.125 528.875 196.5 530.75 193.125 530.75 C 184.125 530.75 184.125 521.25 184.125 513.875 C 184.125 510.75 184.125 507.5 184.25 504.375 L 184.5 479.125 L 183.625 478.125 L 163 479.125 L 162.125 479.875 C 162.875 490.375 163 493.875 163 506.5 L 163 515.25 C 162.875 528.875 163.5 534.625 168 539.875 C 172.125 544.5 178.125 546.5 184.375 546.5 C 193.25 546.5 198.375 542.5 202.875 539 L 202.75 544.625 L 203.625 545.375 C 212.75 545 215.5 545 223.625 545 L 224.375 544.25 C 223.75 535.375 223.5 530.625 223.5 514.375 C 223.5 502.625 223.625 490.875 223.875 479.125 Z M 260.5 544.125 C 259.875 529.75 259.25 516.625 259.25 477.125 C 259.25 465.25 259.375 459.625 259.875 446.125 L 259 445.25 L 237.625 448.625 L 237.125 449.375 C 238.375 464.625 238.5 468.75 238.75 489 C 238.875 496.375 238.875 503.75 238.875 511.125 C 238.875 524.625 238.625 532.125 238.125 544.5 L 238.875 545.375 C 247.25 545 250.625 544.875 259.75 545 Z M 330.5 526.5 C 325.75 529 320.125 531.875 311 531.875 C 303.5 531.875 298.375 529.5 295.375 525 C 293.5 522.375 293.125 519.875 292.625 517.375 L 333 516.625 L 333.75 515.75 C 333.625 509.625 333.5 503.375 331.75 497.125 C 327.375 482.375 317.75 479.375 313.5 478.375 C 310.375 477.5 307.5 477.25 304.625 477.25 C 285 477.25 272 490.125 272 511.75 C 272 517.625 273 523.75 275 528.125 C 282.25 545 299.25 546.5 308.25 546.5 C 318.625 546.5 323.125 544.625 329.75 542 L 330.5 541 L 331.375 526.875 L 330.5 526.5 M 292.625 504.125 C 293 500.25 293.875 495 298.625 492 C 300.125 491 301.875 490.625 303.625 490.625 C 307.75 490.625 310.25 492.75 311.625 495 C 313.375 497.75 313.5 500.75 313.5 503.625 Z M 439.125 528.125 C 424.375 528.875 420.875 529 404.875 529 L 404.625 507.125 L 433.875 507.125 L 434.75 506.375 L 435.5 492.25 L 434.875 491.5 L 404.625 492 L 404.625 472.125 C 418.75 472.125 421.625 472.125 436.75 472.5 L 437.375 471.75 L 438.25 457.25 L 437.625 456.75 L 382.75 456.75 L 382 457.5 C 382.75 469.625 383 474.25 383 507.75 C 383 523.5 382.75 531.375 382.375 544.5 L 383 545 L 438 545 L 439 544.25 L 439.875 529 Z M 474 544.125 C 473.375 529.75 472.75 516.625 472.75 477.125 C 472.75 465.25 472.875 459.625 473.375 446.125 L 472.5 445.25 L 451.125 448.625 L 450.625 449.375 C 451.875 464.625 452 468.75 452.25 489 C 452.375 496.375 452.375 503.75 452.375 511.125 C 452.375 524.625 452.125 532.125 451.625 544.5 L 452.375 545.375 C 460.75 545 464.125 544.875 473.25 545 Z M 552.75 543.375 C 541 523.5 539.75 521.25 530.25 504.125 C 538.875 492.375 539.75 491.125 548.625 479.75 L 548 478.5 L 527.625 478.75 L 526.375 479.625 C 516.625 496.5 515.375 498.5 509.625 507.125 L 509.625 493.25 C 509.75 469.875 509.875 464.875 510.5 446 L 509.5 445.25 L 487.75 448.5 L 487 449.375 C 487.875 461.5 488.25 467.375 488.5 483.75 C 488.75 504 488.75 524.25 488.625 544.5 L 489.5 545.375 C 497.875 545 500.25 545 509.75 545 L 510.5 544.125 L 509.75 523 L 509.625 508.625 C 520.5 528.625 521.875 531.375 528.25 544.625 L 529.375 545.375 L 551.875 544.5 Z M 631.375 491.25 C 620.875 486.875 615.375 484.625 615.375 479 C 615.375 475.125 619 470.25 627.25 470.25 C 636.75 470.25 642.375 474.125 647 477.25 L 648.125 476.75 L 649.125 460.375 L 648.5 459.5 C 643.125 457.25 637.5 454.875 625.375 454.875 C 601.875 454.875 593.75 468.125 593.75 481.5 C 593.75 496.625 605.5 502.125 612.5 505.5 L 616.625 507.375 C 625.25 511 631.875 514.125 631.875 520.75 C 631.875 525.5 627.75 531.125 616.875 531.125 C 605.5 531.125 599.125 526.125 595.5 523.25 L 594.25 523.625 L 593.375 541.25 L 594.125 542.25 C 595.5 542.75 596.875 543.375 598.25 543.75 C 601.125 544.75 608.5 546.875 617.875 546.875 C 621.625 546.875 631.125 546.5 638.625 543 C 649.125 537.875 653.625 528.375 653.625 517.75 C 653.625 510.625 650.875 503 644.25 497.875 C 640.875 495.375 637.625 493.875 634.625 492.5 Z M 700.5 530.625 C 698.375 531.25 696.875 531.75 694.75 531.75 C 688.375 531.75 687.875 527.75 687.625 525.875 C 687.25 522.625 687.25 515.75 687.375 510.75 L 687.625 493.125 L 698.875 493.625 L 699.625 492.875 L 700.875 479.5 L 700.125 478.75 L 687.625 478.75 L 688 457.75 L 687.125 457 C 678.625 459.5 676.375 460.125 667.5 462.375 L 667 463.25 L 667.125 478.875 L 660.375 478.625 L 659.625 479.25 L 658.5 492.625 L 659.25 493.375 L 667.125 493.125 L 666.75 513 C 666.625 516.125 666.5 519.25 666.5 522.5 C 666.5 534 666.75 546.375 686.25 546.375 C 691.125 546.375 695 545.625 699.375 544.875 L 700.25 544 L 701.5 531.125 Z M 765.375 507.75 C 765.5 496.5 765.5 491.625 762.25 486.375 C 759.75 482.375 754.75 477.375 738.75 477.375 C 728 477.375 721.375 479.375 714.25 481.5 L 713.5 482.5 L 712.875 496.125 L 713.875 496.625 C 718.25 494.875 726.375 491.625 734.75 491.625 C 739.375 491.625 741.25 492.375 742.875 494 C 744.125 495.25 744.5 497.5 744.5 499.375 C 729.5 501.375 722.5 502.75 715 507.375 C 708 511.75 705.625 518.875 705.625 524.5 C 705.625 537.875 715.25 546.5 727.5 546.5 C 736.875 546.5 742.25 542 744.875 539.875 L 744.875 544.5 L 745.625 545.375 C 754.625 545 757.375 544.875 765.5 545 L 766.125 544.125 C 765.25 531.875 765.25 528.75 765.25 517 L 765.375 507.75 M 744.75 527.625 C 742.125 529.125 738.75 530.875 734.625 530.875 C 730.125 530.875 726.375 528.5 726.375 523.25 C 726.375 515 736.25 513.625 744.75 512.5 Z M 815 530.625 C 812.875 531.25 811.375 531.75 809.25 531.75 C 802.875 531.75 802.375 527.75 802.125 525.875 C 801.75 522.625 801.75 515.75 801.875 510.75 L 802.125 493.125 L 813.375 493.625 L 814.125 492.875 L 815.375 479.5 L 814.625 478.75 L 802.125 478.75 L 802.5 457.75 L 801.625 457 C 793.125 459.5 790.875 460.125 782 462.375 L 781.5 463.25 L 781.625 478.875 L 774.875 478.625 L 774.125 479.25 L 773 492.625 L 773.75 493.375 L 781.625 493.125 L 781.25 513 C 781.125 516.125 781 519.25 781 522.5 C 781 534 781.25 546.375 800.75 546.375 C 805.625 546.375 809.5 545.625 813.875 544.875 L 814.75 544 L 816 531.125 Z M 879.75 526.5 C 875 529 869.375 531.875 860.25 531.875 C 852.75 531.875 847.625 529.5 844.625 525 C 842.75 522.375 842.375 519.875 841.875 517.375 L 882.25 516.625 L 883 515.75 C 882.875 509.625 882.75 503.375 881 497.125 C 876.625 482.375 867 479.375 862.75 478.375 C 859.625 477.5 856.75 477.25 853.875 477.25 C 834.25 477.25 821.25 490.125 821.25 511.75 C 821.25 517.625 822.25 523.75 824.25 528.125 C 831.5 545 848.5 546.5 857.5 546.5 C 867.875 546.5 872.375 544.625 879 542 L 879.75 541 L 880.625 526.875 L 879.75 526.5 M 841.875 504.125 C 842.25 500.25 843.125 495 847.875 492 C 849.375 491 851.125 490.625 852.875 490.625 C 857 490.625 859.5 492.75 860.875 495 C 862.625 497.75 862.75 500.75 862.75 503.625 Z M 887 545 "/>
<path fill-rule="nonzero" fill="rgb(34.901961%, 14.901961%, 14.901961%)" fill-opacity="1" d="M 359.0625 606.375 C 351.1875 606.75 349.0625 606.875 341.3125 606.75 L 340.6875 607.5 L 341.5625 624.375 L 342.0625 641.625 L 342.5625 662.25 C 338.9375 656.125 338.3125 655.125 331.9375 645.625 L 320.5625 629 C 311.1875 614.75 309.3125 612 306.1875 607 L 305.3125 606.375 C 295.4375 606.875 293.8125 606.875 284.6875 606.75 L 284.0625 607.5 C 284.6875 626.875 285.0625 641.25 285.0625 658 C 285.0625 670.25 284.8125 682.5 284.6875 694.625 L 285.3125 695.375 C 293.6875 695 296.3125 695 303.5625 695 L 304.1875 694.25 L 302.9375 666.875 L 302.5625 651.5 L 301.8125 634.75 C 307.6875 644.5 309.6875 647.75 318.1875 660.125 L 330.6875 678.5 L 341.8125 694.75 L 342.6875 695.375 C 350.3125 695 352.5625 695 359.1875 695 L 359.8125 694.375 C 359.6875 676.25 359.5625 664 359.5625 649 C 359.5625 635 359.6875 621.125 359.8125 607.125 Z M 430.6875 657.75 C 430.8125 646.5 430.8125 641.625 427.5625 636.375 C 425.0625 632.375 420.0625 627.375 404.0625 627.375 C 393.3125 627.375 386.6875 629.375 379.5625 631.5 L 378.8125 632.5 L 378.1875 646.125 L 379.1875 646.625 C 383.5625 644.875 391.6875 641.625 400.0625 641.625 C 404.6875 641.625 406.5625 642.375 408.1875 644 C 409.4375 645.25 409.8125 647.5 409.8125 649.375 C 394.8125 651.375 387.8125 652.75 380.3125 657.375 C 373.3125 661.75 370.9375 668.875 370.9375 674.5 C 370.9375 687.875 380.5625 696.5 392.8125 696.5 C 402.1875 696.5 407.5625 692 410.1875 689.875 L 410.1875 694.5 L 410.9375 695.375 C 419.9375 695 422.6875 694.875 430.8125 695 L 431.4375 694.125 C 430.5625 681.875 430.5625 678.75 430.5625 667 L 430.6875 657.75 M 410.0625 677.625 C 407.4375 679.125 404.0625 680.875 399.9375 680.875 C 395.4375 680.875 391.6875 678.5 391.6875 673.25 C 391.6875 665 401.5625 663.625 410.0625 662.5 Z M 480.3125 680.625 C 478.1875 681.25 476.6875 681.75 474.5625 681.75 C 468.1875 681.75 467.6875 677.75 467.4375 675.875 C 467.0625 672.625 467.0625 665.75 467.1875 660.75 L 467.4375 643.125 L 478.6875 643.625 L 479.4375 642.875 L 480.6875 629.5 L 479.9375 628.75 L 467.4375 628.75 L 467.8125 607.75 L 466.9375 607 C 458.4375 609.5 456.1875 610.125 447.3125 612.375 L 446.8125 613.25 L 446.9375 628.875 L 440.1875 628.625 L 439.4375 629.25 L 438.3125 642.625 L 439.0625 643.375 L 446.9375 643.125 L 446.5625 663 C 446.4375 666.125 446.3125 669.25 446.3125 672.5 C 446.3125 684 446.5625 696.375 466.0625 696.375 C 470.9375 696.375 474.8125 695.625 479.1875 694.875 L 480.0625 694 L 481.3125 681.125 Z M 549.5625 628.125 L 529.1875 629.125 L 528.3125 629.875 C 529.1875 644 529.1875 664 529.1875 666 C 529.1875 669.625 529.1875 671.625 529.0625 676.625 C 525.6875 678.875 523.0625 680.75 519.6875 680.75 C 510.6875 680.75 510.6875 671.25 510.6875 663.875 C 510.6875 660.75 510.6875 657.5 510.8125 654.375 L 511.0625 629.125 L 510.1875 628.125 L 489.5625 629.125 L 488.6875 629.875 C 489.4375 640.375 489.5625 643.875 489.5625 656.5 L 489.5625 665.25 C 489.4375 678.875 490.0625 684.625 494.5625 689.875 C 498.6875 694.5 504.6875 696.5 510.9375 696.5 C 519.8125 696.5 524.9375 692.5 529.4375 689 L 529.3125 694.625 L 530.1875 695.375 C 539.3125 695 542.0625 695 550.1875 695 L 550.9375 694.25 C 550.3125 685.375 550.0625 680.625 550.0625 664.375 C 550.0625 652.625 550.1875 640.875 550.4375 629.125 Z M 601.1875 648.625 L 604.6875 628.25 L 603.9375 627.375 C 603.0625 627.375 602.1875 627.25 601.3125 627.25 C 596.1875 627.25 590.4375 630.125 586.4375 639.375 L 586.8125 627.875 L 585.8125 626.875 C 576.5625 628.875 574.1875 629.25 565.0625 630.625 L 564.3125 631.375 C 565.0625 640.75 565.4375 646.375 565.4375 663.75 C 565.4375 674 565.3125 684.25 565.0625 694.625 L 565.8125 695.375 C 575.0625 695 577.0625 694.875 587.0625 695 L 587.6875 694.125 C 587.1875 684 586.4375 669.875 586.4375 661.25 C 586.4375 655.625 586.4375 647.375 594.9375 647.375 C 597.0625 647.375 598.3125 648.125 600.0625 649.125 Z M 667.5625 657.75 C 667.6875 646.5 667.6875 641.625 664.4375 636.375 C 661.9375 632.375 656.9375 627.375 640.9375 627.375 C 630.1875 627.375 623.5625 629.375 616.4375 631.5 L 615.6875 632.5 L 615.0625 646.125 L 616.0625 646.625 C 620.4375 644.875 628.5625 641.625 636.9375 641.625 C 641.5625 641.625 643.4375 642.375 645.0625 644 C 646.3125 645.25 646.6875 647.5 646.6875 649.375 C 631.6875 651.375 624.6875 652.75 617.1875 657.375 C 610.1875 661.75 607.8125 668.875 607.8125 674.5 C 607.8125 687.875 617.4375 696.5 629.6875 696.5 C 639.0625 696.5 644.4375 692 647.0625 689.875 L 647.0625 694.5 L 647.8125 695.375 C 656.8125 695 659.5625 694.875 667.6875 695 L 668.3125 694.125 C 667.4375 681.875 667.4375 678.75 667.4375 667 L 667.5625 657.75 M 646.9375 677.625 C 644.3125 679.125 640.9375 680.875 636.8125 680.875 C 632.3125 680.875 628.5625 678.5 628.5625 673.25 C 628.5625 665 638.4375 663.625 646.9375 662.5 Z M 704.1875 694.125 C 703.5625 679.75 702.9375 666.625 702.9375 627.125 C 702.9375 615.25 703.0625 609.625 703.5625 596.125 L 702.6875 595.25 L 681.3125 598.625 L 680.8125 599.375 C 682.0625 614.625 682.1875 618.75 682.4375 639 C 682.5625 646.375 682.5625 653.75 682.5625 661.125 C 682.5625 674.625 682.3125 682.125 681.8125 694.5 L 682.5625 695.375 C 690.9375 695 694.3125 694.875 703.4375 695 Z M 711.1875 695 "/>
<path fill-rule="nonzero" fill="rgb(34.901961%, 14.901961%, 14.901961%)" fill-opacity="1" d="M 298.9375 810.625 C 307.3125 824.875 309.1875 828.625 317.1875 845 L 318.1875 845.625 C 322.0625 845.375 325.8125 845.125 329.6875 845 C 333.5625 844.875 337.5625 844.75 341.4375 844.75 L 342.1875 843.25 C 337.4375 837.125 336.0625 835.25 327.0625 820.875 C 323.0625 814.5 321.0625 811.125 317.9375 805.625 C 323.5625 803.125 334.9375 797.875 334.9375 782 C 334.9375 776.5 333.4375 765.125 323.1875 759.75 C 316.6875 756.375 309.9375 756.25 295.3125 756.5 L 286.5625 756.625 L 271.3125 756.625 L 270.6875 757.375 C 271.1875 770 271.6875 783 271.6875 817 C 271.6875 828.625 271.5625 834.25 271.1875 844.625 L 271.9375 845.375 C 281.0625 845 283.0625 844.875 293.3125 845 L 294.0625 844.25 C 293.0625 829.75 292.9375 825.75 292.8125 810.875 L 298.9375 810.625 M 293.0625 771.75 C 294.8125 771.625 296.5625 771.625 298.3125 771.625 C 303.1875 771.625 312.8125 771.625 312.8125 782.625 C 312.8125 786.125 311.9375 790.75 307.3125 793.625 C 303.8125 795.75 299.3125 796 293.0625 796.125 Z M 404.3125 826.5 C 399.5625 829 393.9375 831.875 384.8125 831.875 C 377.3125 831.875 372.1875 829.5 369.1875 825 C 367.3125 822.375 366.9375 819.875 366.4375 817.375 L 406.8125 816.625 L 407.5625 815.75 C 407.4375 809.625 407.3125 803.375 405.5625 797.125 C 401.1875 782.375 391.5625 779.375 387.3125 778.375 C 384.1875 777.5 381.3125 777.25 378.4375 777.25 C 358.8125 777.25 345.8125 790.125 345.8125 811.75 C 345.8125 817.625 346.8125 823.75 348.8125 828.125 C 356.0625 845 373.0625 846.5 382.0625 846.5 C 392.4375 846.5 396.9375 844.625 403.5625 842 L 404.3125 841 L 405.1875 826.875 L 404.3125 826.5 M 366.4375 804.125 C 366.8125 800.25 367.6875 795 372.4375 792 C 373.9375 791 375.6875 790.625 377.4375 790.625 C 381.5625 790.625 384.0625 792.75 385.4375 795 C 387.1875 797.75 387.3125 800.75 387.3125 803.625 Z M 445.3125 801.875 C 441.0625 800.375 437.6875 799 437.6875 795.5 C 437.6875 794 438.6875 789.875 446.4375 789.875 C 454.0625 789.875 458.9375 793.125 462.0625 795.125 L 463.1875 794.75 L 464.4375 781.125 L 463.8125 780.375 C 457.9375 778.75 452.8125 777.25 444.6875 777.25 C 438.5625 777.25 426.3125 777.75 419.8125 787.125 C 418.1875 789.375 416.4375 793.125 416.4375 798.125 C 416.4375 811.5 426.8125 815.5 432.6875 817.75 L 437.4375 819.5 C 440.8125 820.625 446.3125 822.5 446.3125 827 C 446.3125 830.125 443.4375 833.5 436.4375 833.5 C 432.9375 833.5 427.8125 832.375 423.1875 830 C 421.0625 828.875 420.0625 828 418.1875 826.5 L 417.0625 827 C 416.8125 833.5 416.6875 834.875 416.1875 841.125 L 416.8125 842.25 C 422.9375 844.5 428.1875 846.5 437.3125 846.5 C 446.8125 846.5 465.5625 844.75 467.8125 826.875 C 467.9375 825.875 467.9375 825 467.9375 824.125 C 467.9375 810.375 458.3125 806.75 451.4375 804.125 Z M 534.4375 826.5 C 529.6875 829 524.0625 831.875 514.9375 831.875 C 507.4375 831.875 502.3125 829.5 499.3125 825 C 497.4375 822.375 497.0625 819.875 496.5625 817.375 L 536.9375 816.625 L 537.6875 815.75 C 537.5625 809.625 537.4375 803.375 535.6875 797.125 C 531.3125 782.375 521.6875 779.375 517.4375 778.375 C 514.3125 777.5 511.4375 777.25 508.5625 777.25 C 488.9375 777.25 475.9375 790.125 475.9375 811.75 C 475.9375 817.625 476.9375 823.75 478.9375 828.125 C 486.1875 845 503.1875 846.5 512.1875 846.5 C 522.5625 846.5 527.0625 844.625 533.6875 842 L 534.4375 841 L 535.3125 826.875 L 534.4375 826.5 M 496.5625 804.125 C 496.9375 800.25 497.8125 795 502.5625 792 C 504.0625 791 505.8125 790.625 507.5625 790.625 C 511.6875 790.625 514.1875 792.75 515.5625 795 C 517.3125 797.75 517.4375 800.75 517.4375 803.625 Z M 585.3125 798.625 L 588.8125 778.25 L 588.0625 777.375 C 587.1875 777.375 586.3125 777.25 585.4375 777.25 C 580.3125 777.25 574.5625 780.125 570.5625 789.375 L 570.9375 777.875 L 569.9375 776.875 C 560.6875 778.875 558.3125 779.25 549.1875 780.625 L 548.4375 781.375 C 549.1875 790.75 549.5625 796.375 549.5625 813.75 C 549.5625 824 549.4375 834.25 549.1875 844.625 L 549.9375 845.375 C 559.1875 845 561.1875 844.875 571.1875 845 L 571.8125 844.125 C 571.3125 834 570.5625 819.875 570.5625 811.25 C 570.5625 805.625 570.5625 797.375 579.0625 797.375 C 581.1875 797.375 582.4375 798.125 584.1875 799.125 Z M 630.5625 844 C 634.5625 831.5 636.9375 823.75 639.5625 815.875 C 642.9375 805.75 648.4375 789.5 651.9375 779.25 L 651.3125 778.375 L 633.8125 778.75 L 632.9375 779.625 C 631.1875 788 630.8125 789.75 628.3125 799.5 L 621.9375 824.125 L 618.8125 810.625 L 616.4375 801 C 613.3125 789.375 612.8125 787 611.0625 778.75 L 610.1875 778 C 600.3125 779.125 597.8125 779.25 588.3125 779.375 L 587.8125 780.375 C 604.4375 829.625 605.8125 834.25 608.5625 844.5 L 609.4375 845.375 C 617.5625 845 620.8125 844.875 629.8125 845 Z M 714.0625 826.5 C 709.3125 829 703.6875 831.875 694.5625 831.875 C 687.0625 831.875 681.9375 829.5 678.9375 825 C 677.0625 822.375 676.6875 819.875 676.1875 817.375 L 716.5625 816.625 L 717.3125 815.75 C 717.1875 809.625 717.0625 803.375 715.3125 797.125 C 710.9375 782.375 701.3125 779.375 697.0625 778.375 C 693.9375 777.5 691.0625 777.25 688.1875 777.25 C 668.5625 777.25 655.5625 790.125 655.5625 811.75 C 655.5625 817.625 656.5625 823.75 658.5625 828.125 C 665.8125 845 682.8125 846.5 691.8125 846.5 C 702.1875 846.5 706.6875 844.625 713.3125 842 L 714.0625 841 L 714.9375 826.875 L 714.0625 826.5 M 676.1875 804.125 C 676.5625 800.25 677.4375 795 682.1875 792 C 683.6875 791 685.4375 790.625 687.1875 790.625 C 691.3125 790.625 693.8125 792.75 695.1875 795 C 696.9375 797.75 697.0625 800.75 697.0625 803.625 Z M 721.3125 845 "/>
</svg>
