<?xml version="1.0" encoding="UTF-8"?>
<svg xmlns="http://www.w3.org/2000/svg" xmlns:xlink="http://www.w3.org/1999/xlink" width="975" height="1300" viewBox="0 0 975 1300">
<path fill-rule="nonzero" fill="rgb(34.901961%, 14.901961%, 14.901961%)" fill-opacity="1" d="M 170.5625 381.375 C 157.5625 381.75 155.4375 381.75 141.5625 381.75 L 140.8125 382.5 L 135.0625 402.75 L 130.0625 420.875 L 124.1875 442.625 L 118.6875 420.25 L 115.1875 406.125 L 108.9375 382.125 L 108.3125 381.375 C 94.9375 381.75 92.6875 381.75 78.6875 381.75 L 77.9375 382.5 C 76.6875 419.875 76.1875 429.5 73.4375 469.625 L 74.0625 470.375 C 82.0625 470 84.4375 469.875 91.6875 470 L 92.4375 469.25 L 92.8125 445.375 L 93.5625 421.125 L 94.0625 397.5 L 99.5625 419.625 L 104.3125 437.375 L 112.6875 469.625 L 113.4375 470.375 C 121.1875 470 123.3125 469.875 132.0625 470 L 132.8125 469.25 L 140.0625 442.625 L 145.0625 424.375 L 152.0625 398.125 L 152.0625 420.5 L 152.3125 439.625 L 152.3125 469.625 L 152.9375 470.375 C 161.5625 470 164.9375 469.875 174.5625 470 L 175.1875 469.25 C 174.4375 455 173.5625 440.625 173.0625 426.25 C 172.6875 418.375 172.4375 410.5 172.0625 402.625 C 171.4375 391 171.3125 389.5 171.3125 382.125 Z M 211.9375 469.125 C 211.3125 459.5 210.8125 452.125 210.8125 434.875 C 210.8125 424.25 211.0625 413.5 211.1875 402.875 L 210.3125 401.875 L 188.8125 405.625 L 188.0625 406.375 C 189.0625 415.875 189.4375 420.25 189.4375 438 C 189.4375 451.625 189.0625 459.25 188.6875 469.5 L 189.4375 470.375 C 198.4375 470 200.9375 469.875 211.0625 470 L 211.9375 469.125 M 209.9375 389.875 L 210.3125 372.875 L 209.5625 372.125 L 189.1875 374.625 L 188.4375 375.5 C 188.6875 380 188.8125 382.625 188.8125 385.625 C 188.8125 388 188.8125 390.5 188.6875 392.875 L 189.5625 393.625 C 198.0625 392.125 200.4375 391.875 209.3125 390.75 Z M 247.8125 469.125 C 247.1875 454.75 246.5625 441.625 246.5625 402.125 C 246.5625 390.25 246.6875 384.625 247.1875 371.125 L 246.3125 370.25 L 224.9375 373.625 L 224.4375 374.375 C 225.6875 389.625 225.8125 393.75 226.0625 414 C 226.1875 421.375 226.1875 428.75 226.1875 436.125 C 226.1875 449.625 225.9375 457.125 225.4375 469.5 L 226.1875 470.375 C 234.5625 470 237.9375 469.875 247.0625 470 Z M 284.3125 469.125 C 283.6875 454.75 283.0625 441.625 283.0625 402.125 C 283.0625 390.25 283.1875 384.625 283.6875 371.125 L 282.8125 370.25 L 261.4375 373.625 L 260.9375 374.375 C 262.1875 389.625 262.3125 393.75 262.5625 414 C 262.6875 421.375 262.6875 428.75 262.6875 436.125 C 262.6875 449.625 262.4375 457.125 261.9375 469.5 L 262.6875 470.375 C 271.0625 470 274.4375 469.875 283.5625 470 Z M 354.3125 451.5 C 349.5625 454 343.9375 456.875 334.8125 456.875 C 327.3125 456.875 322.1875 454.5 319.1875 450 C 317.3125 447.375 316.9375 444.875 316.4375 442.375 L 356.8125 441.625 L 357.5625 440.75 C 357.4375 434.625 357.3125 428.375 355.5625 422.125 C 351.1875 407.375 341.5625 404.375 337.3125 403.375 C 334.1875 402.5 331.3125 402.25 328.4375 402.25 C 308.8125 402.25 295.8125 415.125 295.8125 436.75 C 295.8125 442.625 296.8125 448.75 298.8125 453.125 C 306.0625 470 323.0625 471.5 332.0625 471.5 C 342.4375 471.5 346.9375 469.625 353.5625 467 L 354.3125 466 L 355.1875 451.875 L 354.3125 451.5 M 316.4375 429.125 C 316.8125 425.25 317.6875 420 322.4375 417 C 323.9375 416 325.6875 415.625 327.4375 415.625 C 331.5625 415.625 334.0625 417.75 335.4375 420 C 337.1875 422.75 337.3125 425.75 337.3125 428.625 Z M 405.1875 423.625 L 408.6875 403.25 L 407.9375 402.375 C 407.0625 402.375 406.1875 402.25 405.3125 402.25 C 400.1875 402.25 394.4375 405.125 390.4375 414.375 L 390.8125 402.875 L 389.8125 401.875 C 380.5625 403.875 378.1875 404.25 369.0625 405.625 L 368.3125 406.375 C 369.0625 415.75 369.4375 421.375 369.4375 438.75 C 369.4375 449 369.3125 459.25 369.0625 469.625 L 369.8125 470.375 C 379.0625 470 381.0625 469.875 391.0625 470 L 391.6875 469.125 C 391.1875 459 390.4375 444.875 390.4375 436.25 C 390.4375 430.625 390.4375 422.375 398.9375 422.375 C 401.0625 422.375 402.3125 423.125 404.0625 424.125 Z M 450.9375 455.625 C 448.8125 456.25 447.3125 456.75 445.1875 456.75 C 438.8125 456.75 438.3125 452.75 438.0625 450.875 C 437.6875 447.625 437.6875 440.75 437.8125 435.75 L 438.0625 418.125 L 449.3125 418.625 L 450.0625 417.875 L 451.3125 404.5 L 450.5625 403.75 L 438.0625 403.75 L 438.4375 382.75 L 437.5625 382 C 429.0625 384.5 426.8125 385.125 417.9375 387.375 L 417.4375 388.25 L 417.5625 403.875 L 410.8125 403.625 L 410.0625 404.25 L 408.9375 417.625 L 409.6875 418.375 L 417.5625 418.125 L 417.1875 438 C 417.0625 441.125 416.9375 444.25 416.9375 447.5 C 416.9375 459 417.1875 471.375 436.6875 471.375 C 441.5625 471.375 445.4375 470.625 449.8125 469.875 L 450.6875 469 L 451.9375 456.125 Z M 523.8125 436.75 C 523.8125 431.875 523.8125 411.625 506.3125 404.75 C 500.8125 402.625 494.3125 402.375 491.0625 402.375 C 469.3125 402.375 457.0625 414 457.0625 437 C 457.0625 445 458.3125 453.125 462.9375 459.875 C 466.1875 464.75 472.3125 471.5 490.1875 471.5 C 516.6875 471.5 523.8125 455.5 523.8125 436.75 M 502.1875 436.625 C 502.1875 446.875 500.8125 458.25 490.4375 458.25 C 487.1875 458.25 484.9375 456.75 483.4375 455.375 C 481.3125 453.25 478.9375 449 478.9375 436.875 C 478.9375 433.25 478.9375 425.25 481.4375 420.875 C 483.3125 417.5 486.5625 415.25 490.5625 415.25 C 494.0625 415.25 496.9375 417.125 498.5625 419.125 C 501.5625 422.75 502.1875 429.875 502.1875 436.625 Z M 596.9375 469.125 C 596.3125 458.125 596.3125 454.625 596.0625 442.375 L 596.0625 432.625 C 595.9375 420.625 595.8125 414.875 592.6875 409.75 C 588.8125 403.25 581.6875 402.25 577.1875 402.25 C 569.5625 402.25 562.9375 406.25 557.1875 409.625 L 557.4375 402.75 L 556.1875 401.875 C 546.5625 403.875 544.4375 404.25 535.0625 405.5 L 534.3125 406.375 C 535.3125 417.25 536.0625 425.125 536.0625 445.5 C 536.0625 453.5 535.9375 461.5 535.8125 469.5 L 536.5625 470.25 C 545.5625 469.875 547.4375 469.875 557.4375 469.875 L 558.1875 469.125 C 557.4375 449.875 557.3125 445 557.1875 422.625 C 559.8125 420.875 562.8125 418.75 566.8125 418.75 C 573.6875 418.75 574.3125 426.125 574.6875 430.625 C 574.9375 434.75 575.0625 451.875 575.0625 456.625 C 575.0625 460.875 574.9375 465.25 574.9375 469.5 L 575.6875 470.25 C 583.9375 470 586.0625 469.875 596.0625 469.875 Z M 701.4375 452.875 C 687.8125 453.625 676.9375 453.875 673.1875 453.875 L 670.6875 453.875 C 670.4375 420.5 670.5625 412 671.5625 382.125 L 670.8125 381.375 C 660.0625 381.875 657.1875 381.875 648.5625 381.75 L 647.8125 382.5 C 648.3125 392.5 648.4375 395.5 648.4375 410.375 C 648.4375 430.125 648.3125 449.875 648.3125 469.625 L 648.9375 470.375 C 673.4375 470 677.9375 470 700.4375 470 L 701.0625 469.25 L 702.0625 453.5 Z M 768.4375 432.75 C 768.5625 421.5 768.5625 416.625 765.3125 411.375 C 762.8125 407.375 757.8125 402.375 741.8125 402.375 C 731.0625 402.375 724.4375 404.375 717.3125 406.5 L 716.5625 407.5 L 715.9375 421.125 L 716.9375 421.625 C 721.3125 419.875 729.4375 416.625 737.8125 416.625 C 742.4375 416.625 744.3125 417.375 745.9375 419 C 747.1875 420.25 747.5625 422.5 747.5625 424.375 C 732.5625 426.375 725.5625 427.75 718.0625 432.375 C 711.0625 436.75 708.6875 443.875 708.6875 449.5 C 708.6875 462.875 718.3125 471.5 730.5625 471.5 C 739.9375 471.5 745.3125 467 747.9375 464.875 L 747.9375 469.5 L 748.6875 470.375 C 757.6875 470 760.4375 469.875 768.5625 470 L 769.1875 469.125 C 768.3125 456.875 768.3125 453.75 768.3125 442 L 768.4375 432.75 M 747.8125 452.625 C 745.1875 454.125 741.8125 455.875 737.6875 455.875 C 733.1875 455.875 729.4375 453.5 729.4375 448.25 C 729.4375 440 739.3125 438.625 747.8125 437.5 Z M 847.3125 468.375 C 835.5625 448.5 834.3125 446.25 824.8125 429.125 C 833.4375 417.375 834.3125 416.125 843.1875 404.75 L 842.5625 403.5 L 822.1875 403.75 L 820.9375 404.625 C 811.1875 421.5 809.9375 423.5 804.1875 432.125 L 804.1875 418.25 C 804.3125 394.875 804.4375 389.875 805.0625 371 L 804.0625 370.25 L 782.3125 373.5 L 781.5625 374.375 C 782.4375 386.5 782.8125 392.375 783.0625 408.75 C 783.3125 429 783.3125 449.25 783.1875 469.5 L 784.0625 470.375 C 792.4375 470 794.8125 470 804.3125 470 L 805.0625 469.125 L 804.3125 448 L 804.1875 433.625 C 815.0625 453.625 816.4375 456.375 822.8125 469.625 L 823.9375 470.375 L 846.4375 469.5 Z M 908.8125 451.5 C 904.0625 454 898.4375 456.875 889.3125 456.875 C 881.8125 456.875 876.6875 454.5 873.6875 450 C 871.8125 447.375 871.4375 444.875 870.9375 442.375 L 911.3125 441.625 L 912.0625 440.75 C 911.9375 434.625 911.8125 428.375 910.0625 422.125 C 905.6875 407.375 896.0625 404.375 891.8125 403.375 C 888.6875 402.5 885.8125 402.25 882.9375 402.25 C 863.3125 402.25 850.3125 415.125 850.3125 436.75 C 850.3125 442.625 851.3125 448.75 853.3125 453.125 C 860.5625 470 877.5625 471.5 886.5625 471.5 C 896.9375 471.5 901.4375 469.625 908.0625 467 L 908.8125 466 L 909.6875 451.875 L 908.8125 451.5 M 870.9375 429.125 C 871.3125 425.25 872.1875 420 876.9375 417 C 878.4375 416 880.1875 415.625 881.9375 415.625 C 886.0625 415.625 888.5625 417.75 889.9375 420 C 891.6875 422.75 891.8125 425.75 891.8125 428.625 Z M 916.0625 470 "/>
<path fill-rule="nonzero" fill="rgb(34.901961%, 14.901961%, 14.901961%)" fill-opacity="1" d="M 385.3125 566.25 C 374.8125 561.875 369.3125 559.625 369.3125 554 C 369.3125 550.125 372.9375 545.25 381.1875 545.25 C 390.6875 545.25 396.3125 549.125 400.9375 552.25 L 402.0625 551.75 L 403.0625 535.375 L 402.4375 534.5 C 397.0625 532.25 391.4375 529.875 379.3125 529.875 C 355.8125 529.875 347.6875 543.125 347.6875 556.5 C 347.6875 571.625 359.4375 577.125 366.4375 580.5 L 370.5625 582.375 C 379.1875 586 385.8125 589.125 385.8125 595.75 C 385.8125 600.5 381.6875 606.125 370.8125 606.125 C 359.4375 606.125 353.0625 601.125 349.4375 598.25 L 348.1875 598.625 L 347.3125 616.25 L 348.0625 617.25 C 349.4375 617.75 350.8125 618.375 352.1875 618.75 C 355.0625 619.75 362.4375 621.875 371.8125 621.875 C 375.5625 621.875 385.0625 621.5 392.5625 618 C 403.0625 612.875 407.5625 603.375 407.5625 592.75 C 407.5625 585.625 404.8125 578 398.1875 572.875 C 394.8125 570.375 391.5625 568.875 388.5625 567.5 Z M 454.4375 605.625 C 452.3125 606.25 450.8125 606.75 448.6875 606.75 C 442.3125 606.75 441.8125 602.75 441.5625 600.875 C 441.1875 597.625 441.1875 590.75 441.3125 585.75 L 441.5625 568.125 L 452.8125 568.625 L 453.5625 567.875 L 454.8125 554.5 L 454.0625 553.75 L 441.5625 553.75 L 441.9375 532.75 L 441.0625 532 C 432.5625 534.5 430.3125 535.125 421.4375 537.375 L 420.9375 538.25 L 421.0625 553.875 L 414.3125 553.625 L 413.5625 554.25 L 412.4375 567.625 L 413.1875 568.375 L 421.0625 568.125 L 420.6875 588 C 420.5625 591.125 420.4375 594.25 420.4375 597.5 C 420.4375 609 420.6875 621.375 440.1875 621.375 C 445.0625 621.375 448.9375 620.625 453.3125 619.875 L 454.1875 619 L 455.4375 606.125 Z M 519.3125 582.75 C 519.4375 571.5 519.4375 566.625 516.1875 561.375 C 513.6875 557.375 508.6875 552.375 492.6875 552.375 C 481.9375 552.375 475.3125 554.375 468.1875 556.5 L 467.4375 557.5 L 466.8125 571.125 L 467.8125 571.625 C 472.1875 569.875 480.3125 566.625 488.6875 566.625 C 493.3125 566.625 495.1875 567.375 496.8125 569 C 498.0625 570.25 498.4375 572.5 498.4375 574.375 C 483.4375 576.375 476.4375 577.75 468.9375 582.375 C 461.9375 586.75 459.5625 593.875 459.5625 599.5 C 459.5625 612.875 469.1875 621.5 481.4375 621.5 C 490.8125 621.5 496.1875 617 498.8125 614.875 L 498.8125 619.5 L 499.5625 620.375 C 508.5625 620 511.3125 619.875 519.4375 620 L 520.0625 619.125 C 519.1875 606.875 519.1875 603.75 519.1875 592 L 519.3125 582.75 M 498.6875 602.625 C 496.0625 604.125 492.6875 605.875 488.5625 605.875 C 484.0625 605.875 480.3125 603.5 480.3125 598.25 C 480.3125 590 490.1875 588.625 498.6875 587.5 Z M 568.9375 605.625 C 566.8125 606.25 565.3125 606.75 563.1875 606.75 C 556.8125 606.75 556.3125 602.75 556.0625 600.875 C 555.6875 597.625 555.6875 590.75 555.8125 585.75 L 556.0625 568.125 L 567.3125 568.625 L 568.0625 567.875 L 569.3125 554.5 L 568.5625 553.75 L 556.0625 553.75 L 556.4375 532.75 L 555.5625 532 C 547.0625 534.5 544.8125 535.125 535.9375 537.375 L 535.4375 538.25 L 535.5625 553.875 L 528.8125 553.625 L 528.0625 554.25 L 526.9375 567.625 L 527.6875 568.375 L 535.5625 568.125 L 535.1875 588 C 535.0625 591.125 534.9375 594.25 534.9375 597.5 C 534.9375 609 535.1875 621.375 554.6875 621.375 C 559.5625 621.375 563.4375 620.625 567.8125 619.875 L 568.6875 619 L 569.9375 606.125 Z M 633.6875 601.5 C 628.9375 604 623.3125 606.875 614.1875 606.875 C 606.6875 606.875 601.5625 604.5 598.5625 600 C 596.6875 597.375 596.3125 594.875 595.8125 592.375 L 636.1875 591.625 L 636.9375 590.75 C 636.8125 584.625 636.6875 578.375 634.9375 572.125 C 630.5625 557.375 620.9375 554.375 616.6875 553.375 C 613.5625 552.5 610.6875 552.25 607.8125 552.25 C 588.1875 552.25 575.1875 565.125 575.1875 586.75 C 575.1875 592.625 576.1875 598.75 578.1875 603.125 C 585.4375 620 602.4375 621.5 611.4375 621.5 C 621.8125 621.5 626.3125 619.625 632.9375 617 L 633.6875 616 L 634.5625 601.875 L 633.6875 601.5 M 595.8125 579.125 C 596.1875 575.25 597.0625 570 601.8125 567 C 603.3125 566 605.0625 565.625 606.8125 565.625 C 610.9375 565.625 613.4375 567.75 614.8125 570 C 616.5625 572.75 616.6875 575.75 616.6875 578.625 Z M 640.9375 620 "/>
<path fill-rule="nonzero" fill="rgb(34.901961%, 14.901961%, 14.901961%)" fill-opacity="1" d="M 215.6875 735.625 C 224.0625 749.875 225.9375 753.625 233.9375 770 L 234.9375 770.625 C 238.8125 770.375 242.5625 770.125 246.4375 770 C 250.3125 769.875 254.3125 769.75 258.1875 769.75 L 258.9375 768.25 C 254.1875 762.125 252.8125 760.25 243.8125 745.875 C 239.8125 739.5 237.8125 736.125 234.6875 730.625 C 240.3125 728.125 251.6875 722.875 251.6875 707 C 251.6875 701.5 250.1875 690.125 239.9375 684.75 C 233.4375 681.375 226.6875 681.25 212.0625 681.5 L 203.3125 681.625 L 188.0625 681.625 L 187.4375 682.375 C 187.9375 695 188.4375 708 188.4375 742 C 188.4375 753.625 188.3125 759.25 187.9375 769.625 L 188.6875 770.375 C 197.8125 770 199.8125 769.875 210.0625 770 L 210.8125 769.25 C 209.8125 754.75 209.6875 750.75 209.5625 735.875 L 215.6875 735.625 M 209.8125 696.75 C 211.5625 696.625 213.3125 696.625 215.0625 696.625 C 219.9375 696.625 229.5625 696.625 229.5625 707.625 C 229.5625 711.125 228.6875 715.75 224.0625 718.625 C 220.5625 720.75 216.0625 721 209.8125 721.125 Z M 321.0625 751.5 C 316.3125 754 310.6875 756.875 301.5625 756.875 C 294.0625 756.875 288.9375 754.5 285.9375 750 C 284.0625 747.375 283.6875 744.875 283.1875 742.375 L 323.5625 741.625 L 324.3125 740.75 C 324.1875 734.625 324.0625 728.375 322.3125 722.125 C 317.9375 707.375 308.3125 704.375 304.0625 703.375 C 300.9375 702.5 298.0625 702.25 295.1875 702.25 C 275.5625 702.25 262.5625 715.125 262.5625 736.75 C 262.5625 742.625 263.5625 748.75 265.5625 753.125 C 272.8125 770 289.8125 771.5 298.8125 771.5 C 309.1875 771.5 313.6875 769.625 320.3125 767 L 321.0625 766 L 321.9375 751.875 L 321.0625 751.5 M 283.1875 729.125 C 283.5625 725.25 284.4375 720 289.1875 717 C 290.6875 716 292.4375 715.625 294.1875 715.625 C 298.3125 715.625 300.8125 717.75 302.1875 720 C 303.9375 722.75 304.0625 725.75 304.0625 728.625 Z M 384.6875 752 C 381.3125 754 378.0625 756 371.6875 756 C 357.5625 756 354.6875 744.25 354.6875 736.75 C 354.6875 727.625 358.6875 717.125 370.8125 717.125 C 376.3125 717.125 379.3125 719.125 383.0625 721.625 L 384.3125 721.25 C 384.8125 714.625 384.9375 712.875 385.9375 706.25 L 385.3125 705.5 C 379.8125 703.75 375.0625 702.25 367.8125 702.25 C 338.4375 702.25 332.6875 724.5 332.6875 737.25 C 332.6875 751.625 340.1875 771.125 368.3125 771.125 C 374.9375 771.125 379.1875 769.875 384.4375 768.375 L 385.1875 767.625 L 385.6875 752.625 Z M 431.8125 723.625 L 435.3125 703.25 L 434.5625 702.375 C 433.6875 702.375 432.8125 702.25 431.9375 702.25 C 426.8125 702.25 421.0625 705.125 417.0625 714.375 L 417.4375 702.875 L 416.4375 701.875 C 407.1875 703.875 404.8125 704.25 395.6875 705.625 L 394.9375 706.375 C 395.6875 715.75 396.0625 721.375 396.0625 738.75 C 396.0625 749 395.9375 759.25 395.6875 769.625 L 396.4375 770.375 C 405.6875 770 407.6875 769.875 417.6875 770 L 418.3125 769.125 C 417.8125 759 417.0625 744.875 417.0625 736.25 C 417.0625 730.625 417.0625 722.375 425.5625 722.375 C 427.6875 722.375 428.9375 723.125 430.6875 724.125 Z M 498.0625 751.5 C 493.3125 754 487.6875 756.875 478.5625 756.875 C 471.0625 756.875 465.9375 754.5 462.9375 750 C 461.0625 747.375 460.6875 744.875 460.1875 742.375 L 500.5625 741.625 L 501.3125 740.75 C 501.1875 734.625 501.0625 728.375 499.3125 722.125 C 494.9375 707.375 485.3125 704.375 481.0625 703.375 C 477.9375 702.5 475.0625 702.25 472.1875 702.25 C 452.5625 702.25 439.5625 715.125 439.5625 736.75 C 439.5625 742.625 440.5625 748.75 442.5625 753.125 C 449.8125 770 466.8125 771.5 475.8125 771.5 C 486.1875 771.5 490.6875 769.625 497.3125 767 L 498.0625 766 L 498.9375 751.875 L 498.0625 751.5 M 460.1875 729.125 C 460.5625 725.25 461.4375 720 466.1875 717 C 467.6875 716 469.4375 715.625 471.1875 715.625 C 475.3125 715.625 477.8125 717.75 479.1875 720 C 480.9375 722.75 481.0625 725.75 481.0625 728.625 Z M 568.4375 732.75 C 568.5625 721.5 568.5625 716.625 565.3125 711.375 C 562.8125 707.375 557.8125 702.375 541.8125 702.375 C 531.0625 702.375 524.4375 704.375 517.3125 706.5 L 516.5625 707.5 L 515.9375 721.125 L 516.9375 721.625 C 521.3125 719.875 529.4375 716.625 537.8125 716.625 C 542.4375 716.625 544.3125 717.375 545.9375 719 C 547.1875 720.25 547.5625 722.5 547.5625 724.375 C 532.5625 726.375 525.5625 727.75 518.0625 732.375 C 511.0625 736.75 508.6875 743.875 508.6875 749.5 C 508.6875 762.875 518.3125 771.5 530.5625 771.5 C 539.9375 771.5 545.3125 767 547.9375 764.875 L 547.9375 769.5 L 548.6875 770.375 C 557.6875 770 560.4375 769.875 568.5625 770 L 569.1875 769.125 C 568.3125 756.875 568.3125 753.75 568.3125 742 L 568.4375 732.75 M 547.8125 752.625 C 545.1875 754.125 541.8125 755.875 537.6875 755.875 C 533.1875 755.875 529.4375 753.5 529.4375 748.25 C 529.4375 740 539.3125 738.625 547.8125 737.5 Z M 618.0625 755.625 C 615.9375 756.25 614.4375 756.75 612.3125 756.75 C 605.9375 756.75 605.4375 752.75 605.1875 750.875 C 604.8125 747.625 604.8125 740.75 604.9375 735.75 L 605.1875 718.125 L 616.4375 718.625 L 617.1875 717.875 L 618.4375 704.5 L 617.6875 703.75 L 605.1875 703.75 L 605.5625 682.75 L 604.6875 682 C 596.1875 684.5 593.9375 685.125 585.0625 687.375 L 584.5625 688.25 L 584.6875 703.875 L 577.9375 703.625 L 577.1875 704.25 L 576.0625 717.625 L 576.8125 718.375 L 584.6875 718.125 L 584.3125 738 C 584.1875 741.125 584.0625 744.25 584.0625 747.5 C 584.0625 759 584.3125 771.375 603.8125 771.375 C 608.6875 771.375 612.5625 770.625 616.9375 769.875 L 617.8125 769 L 619.0625 756.125 Z M 649.9375 769.125 C 649.3125 759.5 648.8125 752.125 648.8125 734.875 C 648.8125 724.25 649.0625 713.5 649.1875 702.875 L 648.3125 701.875 L 626.8125 705.625 L 626.0625 706.375 C 627.0625 715.875 627.4375 720.25 627.4375 738 C 627.4375 751.625 627.0625 759.25 626.6875 769.5 L 627.4375 770.375 C 636.4375 770 638.9375 769.875 649.0625 770 L 649.9375 769.125 M 647.9375 689.875 L 648.3125 672.875 L 647.5625 672.125 L 627.1875 674.625 L 626.4375 675.5 C 626.6875 680 626.8125 682.625 626.8125 685.625 C 626.8125 688 626.8125 690.5 626.6875 692.875 L 627.5625 693.625 C 636.0625 692.125 638.4375 691.875 647.3125 690.75 Z M 727.4375 736.75 C 727.4375 731.875 727.4375 711.625 709.9375 704.75 C 704.4375 702.625 697.9375 702.375 694.6875 702.375 C 672.9375 702.375 660.6875 714 660.6875 737 C 660.6875 745 661.9375 753.125 666.5625 759.875 C 669.8125 764.75 675.9375 771.5 693.8125 771.5 C 720.3125 771.5 727.4375 755.5 727.4375 736.75 M 705.8125 736.625 C 705.8125 746.875 704.4375 758.25 694.0625 758.25 C 690.8125 758.25 688.5625 756.75 687.0625 755.375 C 684.9375 753.25 682.5625 749 682.5625 736.875 C 682.5625 733.25 682.5625 725.25 685.0625 720.875 C 686.9375 717.5 690.1875 715.25 694.1875 715.25 C 697.6875 715.25 700.5625 717.125 702.1875 719.125 C 705.1875 722.75 705.8125 729.875 705.8125 736.625 Z M 800.5625 769.125 C 799.9375 758.125 799.9375 754.625 799.6875 742.375 L 799.6875 732.625 C 799.5625 720.625 799.4375 714.875 796.3125 709.75 C 792.4375 703.25 785.3125 702.25 780.8125 702.25 C 773.1875 702.25 766.5625 706.25 760.8125 709.625 L 761.0625 702.75 L 759.8125 701.875 C 750.1875 703.875 748.0625 704.25 738.6875 705.5 L 737.9375 706.375 C 738.9375 717.25 739.6875 725.125 739.6875 745.5 C 739.6875 753.5 739.5625 761.5 739.4375 769.5 L 740.1875 770.25 C 749.1875 769.875 751.0625 769.875 761.0625 769.875 L 761.8125 769.125 C 761.0625 749.875 760.9375 745 760.8125 722.625 C 763.4375 720.875 766.4375 718.75 770.4375 718.75 C 777.3125 718.75 777.9375 726.125 778.3125 730.625 C 778.5625 734.75 778.6875 751.875 778.6875 756.625 C 778.6875 760.875 778.5625 765.25 778.5625 769.5 L 779.3125 770.25 C 787.5625 770 789.6875 769.875 799.6875 769.875 Z M 807.3125 770 "/>
<path fill-rule="nonzero" fill="rgb(34.901961%, 14.901961%, 14.901961%)" fill-opacity="1" d="M 412.4375 831.375 C 400.4375 831.75 397.9375 831.75 384.5625 831.75 L 383.6875 832.5 C 377.0625 853.75 373.0625 866.375 354.6875 919.125 L 355.1875 920 L 374.6875 920 L 375.5625 919.25 L 381.6875 896.5 L 408.6875 896.5 L 414.0625 919.625 L 414.9375 920.375 C 424.0625 920 426.5625 919.875 436.6875 920 L 437.3125 919 C 422.1875 865.5 420.4375 859.625 413.3125 832.125 L 412.4375 831.375 M 386.0625 881.375 L 392.3125 860.25 L 396.6875 845.625 L 400.4375 861.875 L 405.0625 881.375 Z M 481.4375 873.625 L 484.9375 853.25 L 484.1875 852.375 C 483.3125 852.375 482.4375 852.25 481.5625 852.25 C 476.4375 852.25 470.6875 855.125 466.6875 864.375 L 467.0625 852.875 L 466.0625 851.875 C 456.8125 853.875 454.4375 854.25 445.3125 855.625 L 444.5625 856.375 C 445.3125 865.75 445.6875 871.375 445.6875 888.75 C 445.6875 899 445.5625 909.25 445.3125 919.625 L 446.0625 920.375 C 455.3125 920 457.3125 919.875 467.3125 920 L 467.9375 919.125 C 467.4375 909 466.6875 894.875 466.6875 886.25 C 466.6875 880.625 466.6875 872.375 475.1875 872.375 C 477.3125 872.375 478.5625 873.125 480.3125 874.125 Z M 547.6875 901.5 C 542.9375 904 537.3125 906.875 528.1875 906.875 C 520.6875 906.875 515.5625 904.5 512.5625 900 C 510.6875 897.375 510.3125 894.875 509.8125 892.375 L 550.1875 891.625 L 550.9375 890.75 C 550.8125 884.625 550.6875 878.375 548.9375 872.125 C 544.5625 857.375 534.9375 854.375 530.6875 853.375 C 527.5625 852.5 524.6875 852.25 521.8125 852.25 C 502.1875 852.25 489.1875 865.125 489.1875 886.75 C 489.1875 892.625 490.1875 898.75 492.1875 903.125 C 499.4375 920 516.4375 921.5 525.4375 921.5 C 535.8125 921.5 540.3125 919.625 546.9375 917 L 547.6875 916 L 548.5625 901.875 L 547.6875 901.5 M 509.8125 879.125 C 510.1875 875.25 511.0625 870 515.8125 867 C 517.3125 866 519.0625 865.625 520.8125 865.625 C 524.9375 865.625 527.4375 867.75 528.8125 870 C 530.5625 872.75 530.6875 875.75 530.6875 878.625 Z M 618.0625 882.75 C 618.1875 871.5 618.1875 866.625 614.9375 861.375 C 612.4375 857.375 607.4375 852.375 591.4375 852.375 C 580.6875 852.375 574.0625 854.375 566.9375 856.5 L 566.1875 857.5 L 565.5625 871.125 L 566.5625 871.625 C 570.9375 869.875 579.0625 866.625 587.4375 866.625 C 592.0625 866.625 593.9375 867.375 595.5625 869 C 596.8125 870.25 597.1875 872.5 597.1875 874.375 C 582.1875 876.375 575.1875 877.75 567.6875 882.375 C 560.6875 886.75 558.3125 893.875 558.3125 899.5 C 558.3125 912.875 567.9375 921.5 580.1875 921.5 C 589.5625 921.5 594.9375 917 597.5625 914.875 L 597.5625 919.5 L 598.3125 920.375 C 607.3125 920 610.0625 919.875 618.1875 920 L 618.8125 919.125 C 617.9375 906.875 617.9375 903.75 617.9375 892 L 618.0625 882.75 M 597.4375 902.625 C 594.8125 904.125 591.4375 905.875 587.3125 905.875 C 582.8125 905.875 579.0625 903.5 579.0625 898.25 C 579.0625 890 588.9375 888.625 597.4375 887.5 Z M 625.1875 920 "/>
</svg>
