<?xml version="1.0" encoding="UTF-8"?>
<svg xmlns="http://www.w3.org/2000/svg" xmlns:xlink="http://www.w3.org/1999/xlink" width="975" height="1300" viewBox="0 0 975 1300">
<path fill-rule="nonzero" fill="rgb(34.901961%, 14.901961%, 14.901961%)" fill-opacity="1" d="M 280.875 447.625 C 278 449.875 271.625 454.625 261.25 454.625 C 247 454.625 237 444 237 426.25 C 237 415.5 240.75 396.625 261.125 396.625 C 270.5 396.625 275.625 400.25 278.75 402.625 L 279.875 402.375 L 281 385.125 L 280.5 384.5 C 276 382.75 268.375 379.875 257.375 379.875 C 225 379.875 213.75 404.875 213.75 426.75 C 213.75 450.75 228.375 471.875 258.875 471.875 C 269.375 471.875 276.25 469.125 280.25 467.5 L 280.875 466.75 L 281.75 448.125 Z M 347.125 432.75 C 347.25 421.5 347.25 416.625 344 411.375 C 341.5 407.375 336.5 402.375 320.5 402.375 C 309.75 402.375 303.125 404.375 296 406.5 L 295.25 407.5 L 294.625 421.125 L 295.625 421.625 C 300 419.875 308.125 416.625 316.5 416.625 C 321.125 416.625 323 417.375 324.625 419 C 325.875 420.25 326.25 422.5 326.25 424.375 C 311.25 426.375 304.25 427.75 296.75 432.375 C 289.75 436.75 287.375 443.875 287.375 449.5 C 287.375 462.875 297 471.5 309.25 471.5 C 318.625 471.5 324 467 326.625 464.875 L 326.625 469.5 L 327.375 470.375 C 336.375 470 339.125 469.875 347.25 470 L 347.875 469.125 C 347 456.875 347 453.75 347 442 L 347.125 432.75 M 326.5 452.625 C 323.875 454.125 320.5 455.875 316.375 455.875 C 311.875 455.875 308.125 453.5 308.125 448.25 C 308.125 440 318 438.625 326.5 437.5 Z M 383.75 469.125 C 383.125 454.75 382.5 441.625 382.5 402.125 C 382.5 390.25 382.625 384.625 383.125 371.125 L 382.25 370.25 L 360.875 373.625 L 360.375 374.375 C 361.625 389.625 361.75 393.75 362 414 C 362.125 421.375 362.125 428.75 362.125 436.125 C 362.125 449.625 361.875 457.125 361.375 469.5 L 362.125 470.375 C 370.5 470 373.875 469.875 383 470 Z M 420.875 469.125 C 420.25 459.5 419.75 452.125 419.75 434.875 C 419.75 424.25 420 413.5 420.125 402.875 L 419.25 401.875 L 397.75 405.625 L 397 406.375 C 398 415.875 398.375 420.25 398.375 438 C 398.375 451.625 398 459.25 397.625 469.5 L 398.375 470.375 C 407.375 470 409.875 469.875 420 470 L 420.875 469.125 M 418.875 389.875 L 419.25 372.875 L 418.5 372.125 L 398.125 374.625 L 397.375 375.5 C 397.625 380 397.75 382.625 397.75 385.625 C 397.75 388 397.75 390.5 397.625 392.875 L 398.5 393.625 C 407 392.125 409.375 391.875 418.25 390.75 Z M 459.75 469.125 C 458.5 446.375 458.375 440.25 458.5 418.125 L 468.375 418.625 L 469.25 417.75 L 470.375 404.5 L 469.75 403.75 L 458.375 403.75 L 458.5 400.875 C 458.5 393.25 458.625 386.25 466.75 386.25 C 468 386.25 469.25 386.5 470.5 386.625 L 471.375 386.125 L 472.5 372 L 471.875 371.125 C 468.875 370.875 466 370.75 463.125 370.75 C 456.75 370.75 450.25 371.5 445.25 375.25 C 437.5 381 437.625 390 437.625 396.25 L 437.75 403.75 L 429.625 403.625 L 428.875 404.25 L 427.625 417.5 L 428.375 418.25 L 437.875 418 C 437.875 441.625 437.875 447.25 437.125 469.5 L 437.875 470.375 C 446.375 470 449.625 469.875 459 469.875 Z M 542.625 436.75 C 542.625 431.875 542.625 411.625 525.125 404.75 C 519.625 402.625 513.125 402.375 509.875 402.375 C 488.125 402.375 475.875 414 475.875 437 C 475.875 445 477.125 453.125 481.75 459.875 C 485 464.75 491.125 471.5 509 471.5 C 535.5 471.5 542.625 455.5 542.625 436.75 M 521 436.625 C 521 446.875 519.625 458.25 509.25 458.25 C 506 458.25 503.75 456.75 502.25 455.375 C 500.125 453.25 497.75 449 497.75 436.875 C 497.75 433.25 497.75 425.25 500.25 420.875 C 502.125 417.5 505.375 415.25 509.375 415.25 C 512.875 415.25 515.75 417.125 517.375 419.125 C 520.375 422.75 521 429.875 521 436.625 Z M 590.625 423.625 L 594.125 403.25 L 593.375 402.375 C 592.5 402.375 591.625 402.25 590.75 402.25 C 585.625 402.25 579.875 405.125 575.875 414.375 L 576.25 402.875 L 575.25 401.875 C 566 403.875 563.625 404.25 554.5 405.625 L 553.75 406.375 C 554.5 415.75 554.875 421.375 554.875 438.75 C 554.875 449 554.75 459.25 554.5 469.625 L 555.25 470.375 C 564.5 470 566.5 469.875 576.5 470 L 577.125 469.125 C 576.625 459 575.875 444.875 575.875 436.25 C 575.875 430.625 575.875 422.375 584.375 422.375 C 586.5 422.375 587.75 423.125 589.5 424.125 Z M 662.625 469.125 C 662 458.125 662 454.625 661.75 442.375 L 661.75 432.625 C 661.625 420.625 661.5 414.875 658.375 409.75 C 654.5 403.25 647.375 402.25 642.875 402.25 C 635.25 402.25 628.625 406.25 622.875 409.625 L 623.125 402.75 L 621.875 401.875 C 612.25 403.875 610.125 404.25 600.75 405.5 L 600 406.375 C 601 417.25 601.75 425.125 601.75 445.5 C 601.75 453.5 601.625 461.5 601.5 469.5 L 602.25 470.25 C 611.25 469.875 613.125 469.875 623.125 469.875 L 623.875 469.125 C 623.125 449.875 623 445 622.875 422.625 C 625.5 420.875 628.5 418.75 632.5 418.75 C 639.375 418.75 640 426.125 640.375 430.625 C 640.625 434.75 640.75 451.875 640.75 456.625 C 640.75 460.875 640.625 465.25 640.625 469.5 L 641.375 470.25 C 649.625 470 651.75 469.875 661.75 469.875 Z M 699.5 469.125 C 698.875 459.5 698.375 452.125 698.375 434.875 C 698.375 424.25 698.625 413.5 698.75 402.875 L 697.875 401.875 L 676.375 405.625 L 675.625 406.375 C 676.625 415.875 677 420.25 677 438 C 677 451.625 676.625 459.25 676.25 469.5 L 677 470.375 C 686 470 688.5 469.875 698.625 470 L 699.5 469.125 M 697.5 389.875 L 697.875 372.875 L 697.125 372.125 L 676.75 374.625 L 676 375.5 C 676.25 380 676.375 382.625 676.375 385.625 C 676.375 388 676.375 390.5 676.25 392.875 L 677.125 393.625 C 685.625 392.125 688 391.875 696.875 390.75 Z M 769 432.75 C 769.125 421.5 769.125 416.625 765.875 411.375 C 763.375 407.375 758.375 402.375 742.375 402.375 C 731.625 402.375 725 404.375 717.875 406.5 L 717.125 407.5 L 716.5 421.125 L 717.5 421.625 C 721.875 419.875 730 416.625 738.375 416.625 C 743 416.625 744.875 417.375 746.5 419 C 747.75 420.25 748.125 422.5 748.125 424.375 C 733.125 426.375 726.125 427.75 718.625 432.375 C 711.625 436.75 709.25 443.875 709.25 449.5 C 709.25 462.875 718.875 471.5 731.125 471.5 C 740.5 471.5 745.875 467 748.5 464.875 L 748.5 469.5 L 749.25 470.375 C 758.25 470 761 469.875 769.125 470 L 769.75 469.125 C 768.875 456.875 768.875 453.75 768.875 442 L 769 432.75 M 748.375 452.625 C 745.75 454.125 742.375 455.875 738.25 455.875 C 733.75 455.875 730 453.5 730 448.25 C 730 440 739.875 438.625 748.375 437.5 Z M 776.125 470 "/>
<path fill-rule="nonzero" fill="rgb(34.901961%, 14.901961%, 14.901961%)" fill-opacity="1" d="M 162.0625 566.25 C 151.5625 561.875 146.0625 559.625 146.0625 554 C 146.0625 550.125 149.6875 545.25 157.9375 545.25 C 167.4375 545.25 173.0625 549.125 177.6875 552.25 L 178.8125 551.75 L 179.8125 535.375 L 179.1875 534.5 C 173.8125 532.25 168.1875 529.875 156.0625 529.875 C 132.5625 529.875 124.4375 543.125 124.4375 556.5 C 124.4375 571.625 136.1875 577.125 143.1875 580.5 L 147.3125 582.375 C 155.9375 586 162.5625 589.125 162.5625 595.75 C 162.5625 600.5 158.4375 606.125 147.5625 606.125 C 136.1875 606.125 129.8125 601.125 126.1875 598.25 L 124.9375 598.625 L 124.0625 616.25 L 124.8125 617.25 C 126.1875 617.75 127.5625 618.375 128.9375 618.75 C 131.8125 619.75 139.1875 621.875 148.5625 621.875 C 152.3125 621.875 161.8125 621.5 169.3125 618 C 179.8125 612.875 184.3125 603.375 184.3125 592.75 C 184.3125 585.625 181.5625 578 174.9375 572.875 C 171.5625 570.375 168.3125 568.875 165.3125 567.5 Z M 231.1875 605.625 C 229.0625 606.25 227.5625 606.75 225.4375 606.75 C 219.0625 606.75 218.5625 602.75 218.3125 600.875 C 217.9375 597.625 217.9375 590.75 218.0625 585.75 L 218.3125 568.125 L 229.5625 568.625 L 230.3125 567.875 L 231.5625 554.5 L 230.8125 553.75 L 218.3125 553.75 L 218.6875 532.75 L 217.8125 532 C 209.3125 534.5 207.0625 535.125 198.1875 537.375 L 197.6875 538.25 L 197.8125 553.875 L 191.0625 553.625 L 190.3125 554.25 L 189.1875 567.625 L 189.9375 568.375 L 197.8125 568.125 L 197.4375 588 C 197.3125 591.125 197.1875 594.25 197.1875 597.5 C 197.1875 609 197.4375 621.375 216.9375 621.375 C 221.8125 621.375 225.6875 620.625 230.0625 619.875 L 230.9375 619 L 232.1875 606.125 Z M 296.0625 582.75 C 296.1875 571.5 296.1875 566.625 292.9375 561.375 C 290.4375 557.375 285.4375 552.375 269.4375 552.375 C 258.6875 552.375 252.0625 554.375 244.9375 556.5 L 244.1875 557.5 L 243.5625 571.125 L 244.5625 571.625 C 248.9375 569.875 257.0625 566.625 265.4375 566.625 C 270.0625 566.625 271.9375 567.375 273.5625 569 C 274.8125 570.25 275.1875 572.5 275.1875 574.375 C 260.1875 576.375 253.1875 577.75 245.6875 582.375 C 238.6875 586.75 236.3125 593.875 236.3125 599.5 C 236.3125 612.875 245.9375 621.5 258.1875 621.5 C 267.5625 621.5 272.9375 617 275.5625 614.875 L 275.5625 619.5 L 276.3125 620.375 C 285.3125 620 288.0625 619.875 296.1875 620 L 296.8125 619.125 C 295.9375 606.875 295.9375 603.75 295.9375 592 L 296.0625 582.75 M 275.4375 602.625 C 272.8125 604.125 269.4375 605.875 265.3125 605.875 C 260.8125 605.875 257.0625 603.5 257.0625 598.25 C 257.0625 590 266.9375 588.625 275.4375 587.5 Z M 345.6875 605.625 C 343.5625 606.25 342.0625 606.75 339.9375 606.75 C 333.5625 606.75 333.0625 602.75 332.8125 600.875 C 332.4375 597.625 332.4375 590.75 332.5625 585.75 L 332.8125 568.125 L 344.0625 568.625 L 344.8125 567.875 L 346.0625 554.5 L 345.3125 553.75 L 332.8125 553.75 L 333.1875 532.75 L 332.3125 532 C 323.8125 534.5 321.5625 535.125 312.6875 537.375 L 312.1875 538.25 L 312.3125 553.875 L 305.5625 553.625 L 304.8125 554.25 L 303.6875 567.625 L 304.4375 568.375 L 312.3125 568.125 L 311.9375 588 C 311.8125 591.125 311.6875 594.25 311.6875 597.5 C 311.6875 609 311.9375 621.375 331.4375 621.375 C 336.3125 621.375 340.1875 620.625 344.5625 619.875 L 345.4375 619 L 346.6875 606.125 Z M 410.4375 601.5 C 405.6875 604 400.0625 606.875 390.9375 606.875 C 383.4375 606.875 378.3125 604.5 375.3125 600 C 373.4375 597.375 373.0625 594.875 372.5625 592.375 L 412.9375 591.625 L 413.6875 590.75 C 413.5625 584.625 413.4375 578.375 411.6875 572.125 C 407.3125 557.375 397.6875 554.375 393.4375 553.375 C 390.3125 552.5 387.4375 552.25 384.5625 552.25 C 364.9375 552.25 351.9375 565.125 351.9375 586.75 C 351.9375 592.625 352.9375 598.75 354.9375 603.125 C 362.1875 620 379.1875 621.5 388.1875 621.5 C 398.5625 621.5 403.0625 619.625 409.6875 617 L 410.4375 616 L 411.3125 601.875 L 410.4375 601.5 M 372.5625 579.125 C 372.9375 575.25 373.8125 570 378.5625 567 C 380.0625 566 381.8125 565.625 383.5625 565.625 C 387.6875 565.625 390.1875 567.75 391.5625 570 C 393.3125 572.75 393.4375 575.75 393.4375 578.625 Z M 557.5625 531.375 C 544.5625 531.75 542.4375 531.75 528.5625 531.75 L 527.8125 532.5 L 522.0625 552.75 L 517.0625 570.875 L 511.1875 592.625 L 505.6875 570.25 L 502.1875 556.125 L 495.9375 532.125 L 495.3125 531.375 C 481.9375 531.75 479.6875 531.75 465.6875 531.75 L 464.9375 532.5 C 463.6875 569.875 463.1875 579.5 460.4375 619.625 L 461.0625 620.375 C 469.0625 620 471.4375 619.875 478.6875 620 L 479.4375 619.25 L 479.8125 595.375 L 480.5625 571.125 L 481.0625 547.5 L 486.5625 569.625 L 491.3125 587.375 L 499.6875 619.625 L 500.4375 620.375 C 508.1875 620 510.3125 619.875 519.0625 620 L 519.8125 619.25 L 527.0625 592.625 L 532.0625 574.375 L 539.0625 548.125 L 539.0625 570.5 L 539.3125 589.625 L 539.3125 619.625 L 539.9375 620.375 C 548.5625 620 551.9375 619.875 561.5625 620 L 562.1875 619.25 C 561.4375 605 560.5625 590.625 560.0625 576.25 C 559.6875 568.375 559.4375 560.5 559.0625 552.625 C 558.4375 541 558.3125 539.5 558.3125 532.125 Z M 598.9375 619.125 C 598.3125 609.5 597.8125 602.125 597.8125 584.875 C 597.8125 574.25 598.0625 563.5 598.1875 552.875 L 597.3125 551.875 L 575.8125 555.625 L 575.0625 556.375 C 576.0625 565.875 576.4375 570.25 576.4375 588 C 576.4375 601.625 576.0625 609.25 575.6875 619.5 L 576.4375 620.375 C 585.4375 620 587.9375 619.875 598.0625 620 L 598.9375 619.125 M 596.9375 539.875 L 597.3125 522.875 L 596.5625 522.125 L 576.1875 524.625 L 575.4375 525.5 C 575.6875 530 575.8125 532.625 575.8125 535.625 C 575.8125 538 575.8125 540.5 575.6875 542.875 L 576.5625 543.625 C 585.0625 542.125 587.4375 541.875 596.3125 540.75 Z M 674.0625 619.125 C 673.4375 608.125 673.4375 604.625 673.1875 592.375 L 673.1875 582.625 C 673.0625 570.625 672.9375 564.875 669.8125 559.75 C 665.9375 553.25 658.8125 552.25 654.3125 552.25 C 646.6875 552.25 640.0625 556.25 634.3125 559.625 L 634.5625 552.75 L 633.3125 551.875 C 623.6875 553.875 621.5625 554.25 612.1875 555.5 L 611.4375 556.375 C 612.4375 567.25 613.1875 575.125 613.1875 595.5 C 613.1875 603.5 613.0625 611.5 612.9375 619.5 L 613.6875 620.25 C 622.6875 619.875 624.5625 619.875 634.5625 619.875 L 635.3125 619.125 C 634.5625 599.875 634.4375 595 634.3125 572.625 C 636.9375 570.875 639.9375 568.75 643.9375 568.75 C 650.8125 568.75 651.4375 576.125 651.8125 580.625 C 652.0625 584.75 652.1875 601.875 652.1875 606.625 C 652.1875 610.875 652.0625 615.25 652.0625 619.5 L 652.8125 620.25 C 661.0625 620 663.1875 619.875 673.1875 619.875 Z M 710.9375 619.125 C 710.3125 609.5 709.8125 602.125 709.8125 584.875 C 709.8125 574.25 710.0625 563.5 710.1875 552.875 L 709.3125 551.875 L 687.8125 555.625 L 687.0625 556.375 C 688.0625 565.875 688.4375 570.25 688.4375 588 C 688.4375 601.625 688.0625 609.25 687.6875 619.5 L 688.4375 620.375 C 697.4375 620 699.9375 619.875 710.0625 620 L 710.9375 619.125 M 708.9375 539.875 L 709.3125 522.875 L 708.5625 522.125 L 688.1875 524.625 L 687.4375 525.5 C 687.6875 530 687.8125 532.625 687.8125 535.625 C 687.8125 538 687.8125 540.5 687.6875 542.875 L 688.5625 543.625 C 697.0625 542.125 699.4375 541.875 708.3125 540.75 Z M 786.0625 619.125 C 785.4375 608.125 785.4375 604.625 785.1875 592.375 L 785.1875 582.625 C 785.0625 570.625 784.9375 564.875 781.8125 559.75 C 777.9375 553.25 770.8125 552.25 766.3125 552.25 C 758.6875 552.25 752.0625 556.25 746.3125 559.625 L 746.5625 552.75 L 745.3125 551.875 C 735.6875 553.875 733.5625 554.25 724.1875 555.5 L 723.4375 556.375 C 724.4375 567.25 725.1875 575.125 725.1875 595.5 C 725.1875 603.5 725.0625 611.5 724.9375 619.5 L 725.6875 620.25 C 734.6875 619.875 736.5625 619.875 746.5625 619.875 L 747.3125 619.125 C 746.5625 599.875 746.4375 595 746.3125 572.625 C 748.9375 570.875 751.9375 568.75 755.9375 568.75 C 762.8125 568.75 763.4375 576.125 763.8125 580.625 C 764.0625 584.75 764.1875 601.875 764.1875 606.625 C 764.1875 610.875 764.0625 615.25 764.0625 619.5 L 764.8125 620.25 C 773.0625 620 775.1875 619.875 785.1875 619.875 Z M 823.3125 598.875 C 827.3125 599 831.3125 599.25 837.3125 597.25 C 843.8125 595 853.3125 589.625 853.3125 577.5 C 853.3125 571.5 851.5625 569 849.9375 566.625 L 858.5625 567.125 L 859.3125 566.5 L 860.1875 554 L 859.4375 553.375 C 849.8125 553.75 847.1875 553.875 839.3125 553.75 L 833.5625 553.625 C 824.6875 553.375 812.8125 553.125 804.6875 559.875 C 801.9375 562 796.6875 567.375 796.6875 576.75 C 796.6875 581.75 798.0625 585.75 800.3125 588.875 C 803.0625 592.75 805.5625 594.125 808.6875 595.875 C 805.1875 602.625 803.3125 606 800.4375 611.125 L 800.4375 612.25 L 805.6875 616 C 801.9375 618.875 796.0625 623.625 796.0625 631.75 C 796.0625 637.5 799.1875 642.5 803.8125 645.875 C 810.8125 650.875 820.3125 651.125 825.1875 651.125 C 848.0625 651.125 858.5625 639.625 858.5625 627.5 C 858.5625 611.75 844.8125 608.75 836.6875 606.875 L 833.6875 606.375 C 827.5625 605.375 826.1875 605 821.3125 603.25 L 823.3125 598.875 M 833.5625 576.375 C 833.4375 586.5 827.3125 587.375 825.5625 587.375 C 824.5625 587.375 820.1875 587.125 818.0625 582.125 C 816.9375 579.5 816.9375 576.5 816.9375 575.625 C 816.9375 569.375 820.6875 565.375 825.3125 565.375 C 831.0625 565.375 833.6875 570.875 833.5625 576.375 M 822.9375 623 C 834.0625 625.875 834.1875 625.875 835.6875 627.125 C 836.9375 628 838.1875 629.375 838.1875 632 C 838.1875 635.75 835.0625 639.625 826.8125 639.625 C 817.5625 639.625 814.4375 634.375 814.4375 630 C 814.4375 625.875 816.5625 623.5 818.0625 621.75 Z M 860.5625 620 "/>
<path fill-rule="nonzero" fill="rgb(34.901961%, 14.901961%, 14.901961%)" fill-opacity="1" d="M 200.6875 732.75 C 200.8125 721.5 200.8125 716.625 197.5625 711.375 C 195.0625 707.375 190.0625 702.375 174.0625 702.375 C 163.3125 702.375 156.6875 704.375 149.5625 706.5 L 148.8125 707.5 L 148.1875 721.125 L 149.1875 721.625 C 153.5625 719.875 161.6875 716.625 170.0625 716.625 C 174.6875 716.625 176.5625 717.375 178.1875 719 C 179.4375 720.25 179.8125 722.5 179.8125 724.375 C 164.8125 726.375 157.8125 727.75 150.3125 732.375 C 143.3125 736.75 140.9375 743.875 140.9375 749.5 C 140.9375 762.875 150.5625 771.5 162.8125 771.5 C 172.1875 771.5 177.5625 767 180.1875 764.875 L 180.1875 769.5 L 180.9375 770.375 C 189.9375 770 192.6875 769.875 200.8125 770 L 201.4375 769.125 C 200.5625 756.875 200.5625 753.75 200.5625 742 L 200.6875 732.75 M 180.0625 752.625 C 177.4375 754.125 174.0625 755.875 169.9375 755.875 C 165.4375 755.875 161.6875 753.5 161.6875 748.25 C 161.6875 740 171.5625 738.625 180.0625 737.5 Z M 276.5625 769.125 C 275.9375 758.125 275.9375 754.625 275.6875 742.375 L 275.6875 732.625 C 275.5625 720.625 275.4375 714.875 272.3125 709.75 C 268.4375 703.25 261.3125 702.25 256.8125 702.25 C 249.1875 702.25 242.5625 706.25 236.8125 709.625 L 237.0625 702.75 L 235.8125 701.875 C 226.1875 703.875 224.0625 704.25 214.6875 705.5 L 213.9375 706.375 C 214.9375 717.25 215.6875 725.125 215.6875 745.5 C 215.6875 753.5 215.5625 761.5 215.4375 769.5 L 216.1875 770.25 C 225.1875 769.875 227.0625 769.875 237.0625 769.875 L 237.8125 769.125 C 237.0625 749.875 236.9375 745 236.8125 722.625 C 239.4375 720.875 242.4375 718.75 246.4375 718.75 C 253.3125 718.75 253.9375 726.125 254.3125 730.625 C 254.5625 734.75 254.6875 751.875 254.6875 756.625 C 254.6875 760.875 254.5625 765.25 254.5625 769.5 L 255.3125 770.25 C 263.5625 770 265.6875 769.875 275.6875 769.875 Z M 352.0625 769.25 C 351.5625 758 351.1875 750.5 351.1875 734.125 C 351.1875 701.125 351.6875 687.5 352.1875 671 L 351.3125 670.25 L 330.6875 673.5 L 330.0625 674.25 C 330.8125 686 330.9375 689.125 330.8125 703.375 C 321.4375 703.125 309.6875 702.875 300.1875 710.375 C 291.4375 717.125 287.8125 727.5 287.8125 740.375 C 287.8125 750.125 290.4375 759.875 297.8125 766 C 303.3125 770.5 310.0625 771.5 314.1875 771.5 C 323.0625 771.5 327.6875 767.375 330.6875 764.75 L 330.4375 769.625 L 331.0625 770.375 C 339.6875 770 342.0625 770 351.4375 770 L 352.0625 769.25 M 330.8125 718.375 C 330.9375 735 330.8125 738.25 330.4375 753.375 C 327.9375 754.875 325.4375 756.375 321.9375 756.375 C 309.8125 756.375 309.8125 740.875 309.8125 738.375 C 309.8125 728.75 312.5625 718 326.5625 718 C 327.9375 718 329.0625 718.125 330.8125 718.375 Z M 498.6875 681.375 C 485.6875 681.75 483.5625 681.75 469.6875 681.75 L 468.9375 682.5 L 463.1875 702.75 L 458.1875 720.875 L 452.3125 742.625 L 446.8125 720.25 L 443.3125 706.125 L 437.0625 682.125 L 436.4375 681.375 C 423.0625 681.75 420.8125 681.75 406.8125 681.75 L 406.0625 682.5 C 404.8125 719.875 404.3125 729.5 401.5625 769.625 L 402.1875 770.375 C 410.1875 770 412.5625 769.875 419.8125 770 L 420.5625 769.25 L 420.9375 745.375 L 421.6875 721.125 L 422.1875 697.5 L 427.6875 719.625 L 432.4375 737.375 L 440.8125 769.625 L 441.5625 770.375 C 449.3125 770 451.4375 769.875 460.1875 770 L 460.9375 769.25 L 468.1875 742.625 L 473.1875 724.375 L 480.1875 698.125 L 480.1875 720.5 L 480.4375 739.625 L 480.4375 769.625 L 481.0625 770.375 C 489.6875 770 493.0625 769.875 502.6875 770 L 503.3125 769.25 C 502.5625 755 501.6875 740.625 501.1875 726.25 C 500.8125 718.375 500.5625 710.5 500.1875 702.625 C 499.5625 691 499.4375 689.5 499.4375 682.125 Z M 540.0625 769.125 C 539.4375 759.5 538.9375 752.125 538.9375 734.875 C 538.9375 724.25 539.1875 713.5 539.3125 702.875 L 538.4375 701.875 L 516.9375 705.625 L 516.1875 706.375 C 517.1875 715.875 517.5625 720.25 517.5625 738 C 517.5625 751.625 517.1875 759.25 516.8125 769.5 L 517.5625 770.375 C 526.5625 770 529.0625 769.875 539.1875 770 L 540.0625 769.125 M 538.0625 689.875 L 538.4375 672.875 L 537.6875 672.125 L 517.3125 674.625 L 516.5625 675.5 C 516.8125 680 516.9375 682.625 516.9375 685.625 C 516.9375 688 516.9375 690.5 516.8125 692.875 L 517.6875 693.625 C 526.1875 692.125 528.5625 691.875 537.4375 690.75 Z M 615.1875 769.125 C 614.5625 758.125 614.5625 754.625 614.3125 742.375 L 614.3125 732.625 C 614.1875 720.625 614.0625 714.875 610.9375 709.75 C 607.0625 703.25 599.9375 702.25 595.4375 702.25 C 587.8125 702.25 581.1875 706.25 575.4375 709.625 L 575.6875 702.75 L 574.4375 701.875 C 564.8125 703.875 562.6875 704.25 553.3125 705.5 L 552.5625 706.375 C 553.5625 717.25 554.3125 725.125 554.3125 745.5 C 554.3125 753.5 554.1875 761.5 554.0625 769.5 L 554.8125 770.25 C 563.8125 769.875 565.6875 769.875 575.6875 769.875 L 576.4375 769.125 C 575.6875 749.875 575.5625 745 575.4375 722.625 C 578.0625 720.875 581.0625 718.75 585.0625 718.75 C 591.9375 718.75 592.5625 726.125 592.9375 730.625 C 593.1875 734.75 593.3125 751.875 593.3125 756.625 C 593.3125 760.875 593.1875 765.25 593.1875 769.5 L 593.9375 770.25 C 602.1875 770 604.3125 769.875 614.3125 769.875 Z M 684.9375 751.5 C 680.1875 754 674.5625 756.875 665.4375 756.875 C 657.9375 756.875 652.8125 754.5 649.8125 750 C 647.9375 747.375 647.5625 744.875 647.0625 742.375 L 687.4375 741.625 L 688.1875 740.75 C 688.0625 734.625 687.9375 728.375 686.1875 722.125 C 681.8125 707.375 672.1875 704.375 667.9375 703.375 C 664.8125 702.5 661.9375 702.25 659.0625 702.25 C 639.4375 702.25 626.4375 715.125 626.4375 736.75 C 626.4375 742.625 627.4375 748.75 629.4375 753.125 C 636.6875 770 653.6875 771.5 662.6875 771.5 C 673.0625 771.5 677.5625 769.625 684.1875 767 L 684.9375 766 L 685.8125 751.875 L 684.9375 751.5 M 647.0625 729.125 C 647.4375 725.25 648.3125 720 653.0625 717 C 654.5625 716 656.3125 715.625 658.0625 715.625 C 662.1875 715.625 664.6875 717.75 666.0625 720 C 667.8125 722.75 667.9375 725.75 667.9375 728.625 Z M 735.8125 723.625 L 739.3125 703.25 L 738.5625 702.375 C 737.6875 702.375 736.8125 702.25 735.9375 702.25 C 730.8125 702.25 725.0625 705.125 721.0625 714.375 L 721.4375 702.875 L 720.4375 701.875 C 711.1875 703.875 708.8125 704.25 699.6875 705.625 L 698.9375 706.375 C 699.6875 715.75 700.0625 721.375 700.0625 738.75 C 700.0625 749 699.9375 759.25 699.6875 769.625 L 700.4375 770.375 C 709.6875 770 711.6875 769.875 721.6875 770 L 722.3125 769.125 C 721.8125 759 721.0625 744.875 721.0625 736.25 C 721.0625 730.625 721.0625 722.375 729.5625 722.375 C 731.6875 722.375 732.9375 723.125 734.6875 724.125 Z M 802.1875 732.75 C 802.3125 721.5 802.3125 716.625 799.0625 711.375 C 796.5625 707.375 791.5625 702.375 775.5625 702.375 C 764.8125 702.375 758.1875 704.375 751.0625 706.5 L 750.3125 707.5 L 749.6875 721.125 L 750.6875 721.625 C 755.0625 719.875 763.1875 716.625 771.5625 716.625 C 776.1875 716.625 778.0625 717.375 779.6875 719 C 780.9375 720.25 781.3125 722.5 781.3125 724.375 C 766.3125 726.375 759.3125 727.75 751.8125 732.375 C 744.8125 736.75 742.4375 743.875 742.4375 749.5 C 742.4375 762.875 752.0625 771.5 764.3125 771.5 C 773.6875 771.5 779.0625 767 781.6875 764.875 L 781.6875 769.5 L 782.4375 770.375 C 791.4375 770 794.1875 769.875 802.3125 770 L 802.9375 769.125 C 802.0625 756.875 802.0625 753.75 802.0625 742 L 802.1875 732.75 M 781.5625 752.625 C 778.9375 754.125 775.5625 755.875 771.4375 755.875 C 766.9375 755.875 763.1875 753.5 763.1875 748.25 C 763.1875 740 773.0625 738.625 781.5625 737.5 Z M 838.8125 769.125 C 838.1875 754.75 837.5625 741.625 837.5625 702.125 C 837.5625 690.25 837.6875 684.625 838.1875 671.125 L 837.3125 670.25 L 815.9375 673.625 L 815.4375 674.375 C 816.6875 689.625 816.8125 693.75 817.0625 714 C 817.1875 721.375 817.1875 728.75 817.1875 736.125 C 817.1875 749.625 816.9375 757.125 816.4375 769.5 L 817.1875 770.375 C 825.5625 770 828.9375 769.875 838.0625 770 Z M 845.8125 770 "/>
<path fill-rule="nonzero" fill="rgb(34.901961%, 14.901961%, 14.901961%)" fill-opacity="1" d="M 342.5625 831.375 C 329.5625 831.75 327.4375 831.75 313.5625 831.75 L 312.8125 832.5 L 307.0625 852.75 L 302.0625 870.875 L 296.1875 892.625 L 290.6875 870.25 L 287.1875 856.125 L 280.9375 832.125 L 280.3125 831.375 C 266.9375 831.75 264.6875 831.75 250.6875 831.75 L 249.9375 832.5 C 248.6875 869.875 248.1875 879.5 245.4375 919.625 L 246.0625 920.375 C 254.0625 920 256.4375 919.875 263.6875 920 L 264.4375 919.25 L 264.8125 895.375 L 265.5625 871.125 L 266.0625 847.5 L 271.5625 869.625 L 276.3125 887.375 L 284.6875 919.625 L 285.4375 920.375 C 293.1875 920 295.3125 919.875 304.0625 920 L 304.8125 919.25 L 312.0625 892.625 L 317.0625 874.375 L 324.0625 848.125 L 324.0625 870.5 L 324.3125 889.625 L 324.3125 919.625 L 324.9375 920.375 C 333.5625 920 336.9375 919.875 346.5625 920 L 347.1875 919.25 C 346.4375 905 345.5625 890.625 345.0625 876.25 C 344.6875 868.375 344.4375 860.5 344.0625 852.625 C 343.4375 841 343.3125 839.5 343.3125 832.125 Z M 421.3125 853.125 L 400.9375 854.125 L 400.0625 854.875 C 400.9375 869 400.9375 889 400.9375 891 C 400.9375 894.625 400.9375 896.625 400.8125 901.625 C 397.4375 903.875 394.8125 905.75 391.4375 905.75 C 382.4375 905.75 382.4375 896.25 382.4375 888.875 C 382.4375 885.75 382.4375 882.5 382.5625 879.375 L 382.8125 854.125 L 381.9375 853.125 L 361.3125 854.125 L 360.4375 854.875 C 361.1875 865.375 361.3125 868.875 361.3125 881.5 L 361.3125 890.25 C 361.1875 903.875 361.8125 909.625 366.3125 914.875 C 370.4375 919.5 376.4375 921.5 382.6875 921.5 C 391.5625 921.5 396.6875 917.5 401.1875 914 L 401.0625 919.625 L 401.9375 920.375 C 411.0625 920 413.8125 920 421.9375 920 L 422.6875 919.25 C 422.0625 910.375 421.8125 905.625 421.8125 889.375 C 421.8125 877.625 421.9375 865.875 422.1875 854.125 Z M 463.0625 876.875 C 458.8125 875.375 455.4375 874 455.4375 870.5 C 455.4375 869 456.4375 864.875 464.1875 864.875 C 471.8125 864.875 476.6875 868.125 479.8125 870.125 L 480.9375 869.75 L 482.1875 856.125 L 481.5625 855.375 C 475.6875 853.75 470.5625 852.25 462.4375 852.25 C 456.3125 852.25 444.0625 852.75 437.5625 862.125 C 435.9375 864.375 434.1875 868.125 434.1875 873.125 C 434.1875 886.5 444.5625 890.5 450.4375 892.75 L 455.1875 894.5 C 458.5625 895.625 464.0625 897.5 464.0625 902 C 464.0625 905.125 461.1875 908.5 454.1875 908.5 C 450.6875 908.5 445.5625 907.375 440.9375 905 C 438.8125 903.875 437.8125 903 435.9375 901.5 L 434.8125 902 C 434.5625 908.5 434.4375 909.875 433.9375 916.125 L 434.5625 917.25 C 440.6875 919.5 445.9375 921.5 455.0625 921.5 C 464.5625 921.5 483.3125 919.75 485.5625 901.875 C 485.6875 900.875 485.6875 900 485.6875 899.125 C 485.6875 885.375 476.0625 881.75 469.1875 879.125 Z M 552.1875 901.5 C 547.4375 904 541.8125 906.875 532.6875 906.875 C 525.1875 906.875 520.0625 904.5 517.0625 900 C 515.1875 897.375 514.8125 894.875 514.3125 892.375 L 554.6875 891.625 L 555.4375 890.75 C 555.3125 884.625 555.1875 878.375 553.4375 872.125 C 549.0625 857.375 539.4375 854.375 535.1875 853.375 C 532.0625 852.5 529.1875 852.25 526.3125 852.25 C 506.6875 852.25 493.6875 865.125 493.6875 886.75 C 493.6875 892.625 494.6875 898.75 496.6875 903.125 C 503.9375 920 520.9375 921.5 529.9375 921.5 C 540.3125 921.5 544.8125 919.625 551.4375 917 L 552.1875 916 L 553.0625 901.875 L 552.1875 901.5 M 514.3125 879.125 C 514.6875 875.25 515.5625 870 520.3125 867 C 521.8125 866 523.5625 865.625 525.3125 865.625 C 529.4375 865.625 531.9375 867.75 533.3125 870 C 535.0625 872.75 535.1875 875.75 535.1875 878.625 Z M 626.9375 853.125 L 606.5625 854.125 L 605.6875 854.875 C 606.5625 869 606.5625 889 606.5625 891 C 606.5625 894.625 606.5625 896.625 606.4375 901.625 C 603.0625 903.875 600.4375 905.75 597.0625 905.75 C 588.0625 905.75 588.0625 896.25 588.0625 888.875 C 588.0625 885.75 588.0625 882.5 588.1875 879.375 L 588.4375 854.125 L 587.5625 853.125 L 566.9375 854.125 L 566.0625 854.875 C 566.8125 865.375 566.9375 868.875 566.9375 881.5 L 566.9375 890.25 C 566.8125 903.875 567.4375 909.625 571.9375 914.875 C 576.0625 919.5 582.0625 921.5 588.3125 921.5 C 597.1875 921.5 602.3125 917.5 606.8125 914 L 606.6875 919.625 L 607.5625 920.375 C 616.6875 920 619.4375 920 627.5625 920 L 628.3125 919.25 C 627.6875 910.375 627.4375 905.625 627.4375 889.375 C 627.4375 877.625 627.5625 865.875 627.8125 854.125 Z M 740.0625 919.125 C 739.4375 907.5 739.3125 904.25 739.3125 890.125 L 739.3125 880.75 C 739.4375 872.375 739.5625 864.625 735.9375 859.375 C 731.0625 852.25 722.4375 852.25 720.4375 852.25 C 710.1875 852.25 703.3125 856.875 698.3125 860.375 C 696.5625 857.5 693.4375 852.25 683.4375 852.25 C 675.1875 852.25 669.8125 856 664.0625 860 L 664.0625 853 L 662.9375 851.875 C 653.1875 853.75 650.4375 854.25 641.6875 855.5 L 640.9375 856.375 C 641.9375 866.375 642.6875 873.25 642.6875 898 C 642.6875 905.125 642.5625 912.375 642.5625 919.5 L 643.1875 920.25 C 651.1875 920 653.9375 919.875 664.3125 919.875 L 665.0625 919.125 C 664.1875 899.875 664.0625 894.125 663.9375 872.375 C 666.5625 870.5 669.4375 868.875 672.5625 868.875 C 680.3125 868.875 680.5625 877.75 680.5625 888.5 C 680.5625 906.625 680.4375 909.375 680.1875 919.5 L 680.9375 920.375 C 690.4375 919.875 693.0625 919.875 701.6875 919.875 L 702.4375 919.125 C 701.6875 907.25 701.5625 903.75 701.4375 888.625 L 701.4375 884 L 701.3125 871.375 C 703.4375 870 706.1875 868.25 709.9375 868.25 C 717.0625 868.25 718.1875 875 718.1875 885.75 C 718.1875 888.125 718.0625 890.5 718.0625 892.875 C 717.9375 897.125 717.8125 915.75 717.6875 919.5 L 718.4375 920.25 C 727.8125 919.875 730.5625 919.875 739.3125 919.875 Z M 746.9375 920 "/>
</svg>
