<?xml version="1.0" encoding="UTF-8"?>
<svg xmlns="http://www.w3.org/2000/svg" xmlns:xlink="http://www.w3.org/1999/xlink" width="975" height="1300" viewBox="0 0 975 1300">
<path fill-rule="nonzero" fill="rgb(34.901961%, 14.901961%, 14.901961%)" fill-opacity="1" d="M 258.3125 381.375 C 248.3125 381.75 246.6875 381.75 236.1875 381.75 L 235.5625 382.5 C 236.4375 396.625 236.4375 400.25 236.5625 415 C 231.0625 415.125 225.5625 415.25 219.9375 415.25 C 215.5625 415.25 211.0625 415.125 206.6875 415.125 L 206.9375 382.125 L 206.3125 381.375 C 196.6875 381.75 194.8125 381.75 183.9375 381.75 L 183.1875 382.5 C 183.8125 395.375 184.5625 410.75 184.5625 441.75 C 184.5625 453 184.3125 459.125 184.0625 469.625 L 184.6875 470.375 C 193.8125 470 196.0625 469.875 207.0625 470 L 207.6875 469.25 C 206.9375 453.75 206.8125 449.25 206.6875 431.125 C 212.1875 430.875 216.8125 430.75 221.6875 430.75 C 226.6875 430.75 231.6875 430.875 236.6875 431 C 236.9375 447.875 236.9375 452 236.3125 469.625 L 236.9375 470.375 C 246.3125 470 248.8125 469.875 259.4375 470 L 260.0625 469.25 C 259.0625 448.25 258.6875 427.375 258.6875 406.375 C 258.6875 397.625 258.8125 391.75 258.9375 382.125 Z M 330.0625 451.5 C 325.3125 454 319.6875 456.875 310.5625 456.875 C 303.0625 456.875 297.9375 454.5 294.9375 450 C 293.0625 447.375 292.6875 444.875 292.1875 442.375 L 332.5625 441.625 L 333.3125 440.75 C 333.1875 434.625 333.0625 428.375 331.3125 422.125 C 326.9375 407.375 317.3125 404.375 313.0625 403.375 C 309.9375 402.5 307.0625 402.25 304.1875 402.25 C 284.5625 402.25 271.5625 415.125 271.5625 436.75 C 271.5625 442.625 272.5625 448.75 274.5625 453.125 C 281.8125 470 298.8125 471.5 307.8125 471.5 C 318.1875 471.5 322.6875 469.625 329.3125 467 L 330.0625 466 L 330.9375 451.875 L 330.0625 451.5 M 292.1875 429.125 C 292.5625 425.25 293.4375 420 298.1875 417 C 299.6875 416 301.4375 415.625 303.1875 415.625 C 307.3125 415.625 309.8125 417.75 311.1875 420 C 312.9375 422.75 313.0625 425.75 313.0625 428.625 Z M 400.4375 432.75 C 400.5625 421.5 400.5625 416.625 397.3125 411.375 C 394.8125 407.375 389.8125 402.375 373.8125 402.375 C 363.0625 402.375 356.4375 404.375 349.3125 406.5 L 348.5625 407.5 L 347.9375 421.125 L 348.9375 421.625 C 353.3125 419.875 361.4375 416.625 369.8125 416.625 C 374.4375 416.625 376.3125 417.375 377.9375 419 C 379.1875 420.25 379.5625 422.5 379.5625 424.375 C 364.5625 426.375 357.5625 427.75 350.0625 432.375 C 343.0625 436.75 340.6875 443.875 340.6875 449.5 C 340.6875 462.875 350.3125 471.5 362.5625 471.5 C 371.9375 471.5 377.3125 467 379.9375 464.875 L 379.9375 469.5 L 380.6875 470.375 C 389.6875 470 392.4375 469.875 400.5625 470 L 401.1875 469.125 C 400.3125 456.875 400.3125 453.75 400.3125 442 L 400.4375 432.75 M 379.8125 452.625 C 377.1875 454.125 373.8125 455.875 369.6875 455.875 C 365.1875 455.875 361.4375 453.5 361.4375 448.25 C 361.4375 440 371.3125 438.625 379.8125 437.5 Z M 451.1875 423.625 L 454.6875 403.25 L 453.9375 402.375 C 453.0625 402.375 452.1875 402.25 451.3125 402.25 C 446.1875 402.25 440.4375 405.125 436.4375 414.375 L 436.8125 402.875 L 435.8125 401.875 C 426.5625 403.875 424.1875 404.25 415.0625 405.625 L 414.3125 406.375 C 415.0625 415.75 415.4375 421.375 415.4375 438.75 C 415.4375 449 415.3125 459.25 415.0625 469.625 L 415.8125 470.375 C 425.0625 470 427.0625 469.875 437.0625 470 L 437.6875 469.125 C 437.1875 459 436.4375 444.875 436.4375 436.25 C 436.4375 430.625 436.4375 422.375 444.9375 422.375 C 447.0625 422.375 448.3125 423.125 450.0625 424.125 Z M 488.1875 426.875 C 483.9375 425.375 480.5625 424 480.5625 420.5 C 480.5625 419 481.5625 414.875 489.3125 414.875 C 496.9375 414.875 501.8125 418.125 504.9375 420.125 L 506.0625 419.75 L 507.3125 406.125 L 506.6875 405.375 C 500.8125 403.75 495.6875 402.25 487.5625 402.25 C 481.4375 402.25 469.1875 402.75 462.6875 412.125 C 461.0625 414.375 459.3125 418.125 459.3125 423.125 C 459.3125 436.5 469.6875 440.5 475.5625 442.75 L 480.3125 444.5 C 483.6875 445.625 489.1875 447.5 489.1875 452 C 489.1875 455.125 486.3125 458.5 479.3125 458.5 C 475.8125 458.5 470.6875 457.375 466.0625 455 C 463.9375 453.875 462.9375 453 461.0625 451.5 L 459.9375 452 C 459.6875 458.5 459.5625 459.875 459.0625 466.125 L 459.6875 467.25 C 465.8125 469.5 471.0625 471.5 480.1875 471.5 C 489.6875 471.5 508.4375 469.75 510.6875 451.875 C 510.8125 450.875 510.8125 450 510.8125 449.125 C 510.8125 435.375 501.1875 431.75 494.3125 429.125 Z M 556.8125 455.625 C 554.6875 456.25 553.1875 456.75 551.0625 456.75 C 544.6875 456.75 544.1875 452.75 543.9375 450.875 C 543.5625 447.625 543.5625 440.75 543.6875 435.75 L 543.9375 418.125 L 555.1875 418.625 L 555.9375 417.875 L 557.1875 404.5 L 556.4375 403.75 L 543.9375 403.75 L 544.3125 382.75 L 543.4375 382 C 534.9375 384.5 532.6875 385.125 523.8125 387.375 L 523.3125 388.25 L 523.4375 403.875 L 516.6875 403.625 L 515.9375 404.25 L 514.8125 417.625 L 515.5625 418.375 L 523.4375 418.125 L 523.0625 438 C 522.9375 441.125 522.8125 444.25 522.8125 447.5 C 522.8125 459 523.0625 471.375 542.5625 471.375 C 547.4375 471.375 551.3125 470.625 555.6875 469.875 L 556.5625 469 L 557.8125 456.125 Z M 638.6875 416.25 C 628.1875 411.875 622.6875 409.625 622.6875 404 C 622.6875 400.125 626.3125 395.25 634.5625 395.25 C 644.0625 395.25 649.6875 399.125 654.3125 402.25 L 655.4375 401.75 L 656.4375 385.375 L 655.8125 384.5 C 650.4375 382.25 644.8125 379.875 632.6875 379.875 C 609.1875 379.875 601.0625 393.125 601.0625 406.5 C 601.0625 421.625 612.8125 427.125 619.8125 430.5 L 623.9375 432.375 C 632.5625 436 639.1875 439.125 639.1875 445.75 C 639.1875 450.5 635.0625 456.125 624.1875 456.125 C 612.8125 456.125 606.4375 451.125 602.8125 448.25 L 601.5625 448.625 L 600.6875 466.25 L 601.4375 467.25 C 602.8125 467.75 604.1875 468.375 605.5625 468.75 C 608.4375 469.75 615.8125 471.875 625.1875 471.875 C 628.9375 471.875 638.4375 471.5 645.9375 468 C 656.4375 462.875 660.9375 453.375 660.9375 442.75 C 660.9375 435.625 658.1875 428 651.5625 422.875 C 648.1875 420.375 644.9375 418.875 641.9375 417.5 Z M 728.4375 432.75 C 728.5625 421.5 728.5625 416.625 725.3125 411.375 C 722.8125 407.375 717.8125 402.375 701.8125 402.375 C 691.0625 402.375 684.4375 404.375 677.3125 406.5 L 676.5625 407.5 L 675.9375 421.125 L 676.9375 421.625 C 681.3125 419.875 689.4375 416.625 697.8125 416.625 C 702.4375 416.625 704.3125 417.375 705.9375 419 C 707.1875 420.25 707.5625 422.5 707.5625 424.375 C 692.5625 426.375 685.5625 427.75 678.0625 432.375 C 671.0625 436.75 668.6875 443.875 668.6875 449.5 C 668.6875 462.875 678.3125 471.5 690.5625 471.5 C 699.9375 471.5 705.3125 467 707.9375 464.875 L 707.9375 469.5 L 708.6875 470.375 C 717.6875 470 720.4375 469.875 728.5625 470 L 729.1875 469.125 C 728.3125 456.875 728.3125 453.75 728.3125 442 L 728.4375 432.75 M 707.8125 452.625 C 705.1875 454.125 701.8125 455.875 697.6875 455.875 C 693.1875 455.875 689.4375 453.5 689.4375 448.25 C 689.4375 440 699.3125 438.625 707.8125 437.5 Z M 804.3125 469.125 C 803.6875 458.125 803.6875 454.625 803.4375 442.375 L 803.4375 432.625 C 803.3125 420.625 803.1875 414.875 800.0625 409.75 C 796.1875 403.25 789.0625 402.25 784.5625 402.25 C 776.9375 402.25 770.3125 406.25 764.5625 409.625 L 764.8125 402.75 L 763.5625 401.875 C 753.9375 403.875 751.8125 404.25 742.4375 405.5 L 741.6875 406.375 C 742.6875 417.25 743.4375 425.125 743.4375 445.5 C 743.4375 453.5 743.3125 461.5 743.1875 469.5 L 743.9375 470.25 C 752.9375 469.875 754.8125 469.875 764.8125 469.875 L 765.5625 469.125 C 764.8125 449.875 764.6875 445 764.5625 422.625 C 767.1875 420.875 770.1875 418.75 774.1875 418.75 C 781.0625 418.75 781.6875 426.125 782.0625 430.625 C 782.3125 434.75 782.4375 451.875 782.4375 456.625 C 782.4375 460.875 782.3125 465.25 782.3125 469.5 L 783.0625 470.25 C 791.3125 470 793.4375 469.875 803.4375 469.875 Z M 811.0625 470 "/>
<path fill-rule="nonzero" fill="rgb(34.901961%, 14.901961%, 14.901961%)" fill-opacity="1" d="M 147.0625 566.25 C 136.5625 561.875 131.0625 559.625 131.0625 554 C 131.0625 550.125 134.6875 545.25 142.9375 545.25 C 152.4375 545.25 158.0625 549.125 162.6875 552.25 L 163.8125 551.75 L 164.8125 535.375 L 164.1875 534.5 C 158.8125 532.25 153.1875 529.875 141.0625 529.875 C 117.5625 529.875 109.4375 543.125 109.4375 556.5 C 109.4375 571.625 121.1875 577.125 128.1875 580.5 L 132.3125 582.375 C 140.9375 586 147.5625 589.125 147.5625 595.75 C 147.5625 600.5 143.4375 606.125 132.5625 606.125 C 121.1875 606.125 114.8125 601.125 111.1875 598.25 L 109.9375 598.625 L 109.0625 616.25 L 109.8125 617.25 C 111.1875 617.75 112.5625 618.375 113.9375 618.75 C 116.8125 619.75 124.1875 621.875 133.5625 621.875 C 137.3125 621.875 146.8125 621.5 154.3125 618 C 164.8125 612.875 169.3125 603.375 169.3125 592.75 C 169.3125 585.625 166.5625 578 159.9375 572.875 C 156.5625 570.375 153.3125 568.875 150.3125 567.5 Z M 203.8125 619.125 C 203.1875 609.5 202.6875 602.125 202.6875 584.875 C 202.6875 574.25 202.9375 563.5 203.0625 552.875 L 202.1875 551.875 L 180.6875 555.625 L 179.9375 556.375 C 180.9375 565.875 181.3125 570.25 181.3125 588 C 181.3125 601.625 180.9375 609.25 180.5625 619.5 L 181.3125 620.375 C 190.3125 620 192.8125 619.875 202.9375 620 L 203.8125 619.125 M 201.8125 539.875 L 202.1875 522.875 L 201.4375 522.125 L 181.0625 524.625 L 180.3125 525.5 C 180.5625 530 180.6875 532.625 180.6875 535.625 C 180.6875 538 180.6875 540.5 180.5625 542.875 L 181.4375 543.625 C 189.9375 542.125 192.3125 541.875 201.1875 540.75 Z M 315.3125 619.125 C 314.6875 607.5 314.5625 604.25 314.5625 590.125 L 314.5625 580.75 C 314.6875 572.375 314.8125 564.625 311.1875 559.375 C 306.3125 552.25 297.6875 552.25 295.6875 552.25 C 285.4375 552.25 278.5625 556.875 273.5625 560.375 C 271.8125 557.5 268.6875 552.25 258.6875 552.25 C 250.4375 552.25 245.0625 556 239.3125 560 L 239.3125 553 L 238.1875 551.875 C 228.4375 553.75 225.6875 554.25 216.9375 555.5 L 216.1875 556.375 C 217.1875 566.375 217.9375 573.25 217.9375 598 C 217.9375 605.125 217.8125 612.375 217.8125 619.5 L 218.4375 620.25 C 226.4375 620 229.1875 619.875 239.5625 619.875 L 240.3125 619.125 C 239.4375 599.875 239.3125 594.125 239.1875 572.375 C 241.8125 570.5 244.6875 568.875 247.8125 568.875 C 255.5625 568.875 255.8125 577.75 255.8125 588.5 C 255.8125 606.625 255.6875 609.375 255.4375 619.5 L 256.1875 620.375 C 265.6875 619.875 268.3125 619.875 276.9375 619.875 L 277.6875 619.125 C 276.9375 607.25 276.8125 603.75 276.6875 588.625 L 276.6875 584 L 276.5625 571.375 C 278.6875 570 281.4375 568.25 285.1875 568.25 C 292.3125 568.25 293.4375 575 293.4375 585.75 C 293.4375 588.125 293.3125 590.5 293.3125 592.875 C 293.1875 597.125 293.0625 615.75 292.9375 619.5 L 293.6875 620.25 C 303.0625 619.875 305.8125 619.875 314.5625 619.875 Z M 385.1875 601.5 C 380.4375 604 374.8125 606.875 365.6875 606.875 C 358.1875 606.875 353.0625 604.5 350.0625 600 C 348.1875 597.375 347.8125 594.875 347.3125 592.375 L 387.6875 591.625 L 388.4375 590.75 C 388.3125 584.625 388.1875 578.375 386.4375 572.125 C 382.0625 557.375 372.4375 554.375 368.1875 553.375 C 365.0625 552.5 362.1875 552.25 359.3125 552.25 C 339.6875 552.25 326.6875 565.125 326.6875 586.75 C 326.6875 592.625 327.6875 598.75 329.6875 603.125 C 336.9375 620 353.9375 621.5 362.9375 621.5 C 373.3125 621.5 377.8125 619.625 384.4375 617 L 385.1875 616 L 386.0625 601.875 L 385.1875 601.5 M 347.3125 579.125 C 347.6875 575.25 348.5625 570 353.3125 567 C 354.8125 566 356.5625 565.625 358.3125 565.625 C 362.4375 565.625 364.9375 567.75 366.3125 570 C 368.0625 572.75 368.1875 575.75 368.1875 578.625 Z M 463.5625 586.75 C 463.5625 581.875 463.5625 561.625 446.0625 554.75 C 440.5625 552.625 434.0625 552.375 430.8125 552.375 C 409.0625 552.375 396.8125 564 396.8125 587 C 396.8125 595 398.0625 603.125 402.6875 609.875 C 405.9375 614.75 412.0625 621.5 429.9375 621.5 C 456.4375 621.5 463.5625 605.5 463.5625 586.75 M 441.9375 586.625 C 441.9375 596.875 440.5625 608.25 430.1875 608.25 C 426.9375 608.25 424.6875 606.75 423.1875 605.375 C 421.0625 603.25 418.6875 599 418.6875 586.875 C 418.6875 583.25 418.6875 575.25 421.1875 570.875 C 423.0625 567.5 426.3125 565.25 430.3125 565.25 C 433.8125 565.25 436.6875 567.125 438.3125 569.125 C 441.3125 572.75 441.9375 579.875 441.9375 586.625 Z M 536.6875 619.125 C 536.0625 608.125 536.0625 604.625 535.8125 592.375 L 535.8125 582.625 C 535.6875 570.625 535.5625 564.875 532.4375 559.75 C 528.5625 553.25 521.4375 552.25 516.9375 552.25 C 509.3125 552.25 502.6875 556.25 496.9375 559.625 L 497.1875 552.75 L 495.9375 551.875 C 486.3125 553.875 484.1875 554.25 474.8125 555.5 L 474.0625 556.375 C 475.0625 567.25 475.8125 575.125 475.8125 595.5 C 475.8125 603.5 475.6875 611.5 475.5625 619.5 L 476.3125 620.25 C 485.3125 619.875 487.1875 619.875 497.1875 619.875 L 497.9375 619.125 C 497.1875 599.875 497.0625 595 496.9375 572.625 C 499.5625 570.875 502.5625 568.75 506.5625 568.75 C 513.4375 568.75 514.0625 576.125 514.4375 580.625 C 514.6875 584.75 514.8125 601.875 514.8125 606.625 C 514.8125 610.875 514.6875 615.25 514.6875 619.5 L 515.4375 620.25 C 523.6875 620 525.8125 619.875 535.8125 619.875 Z M 623.5625 566.25 C 613.0625 561.875 607.5625 559.625 607.5625 554 C 607.5625 550.125 611.1875 545.25 619.4375 545.25 C 628.9375 545.25 634.5625 549.125 639.1875 552.25 L 640.3125 551.75 L 641.3125 535.375 L 640.6875 534.5 C 635.3125 532.25 629.6875 529.875 617.5625 529.875 C 594.0625 529.875 585.9375 543.125 585.9375 556.5 C 585.9375 571.625 597.6875 577.125 604.6875 580.5 L 608.8125 582.375 C 617.4375 586 624.0625 589.125 624.0625 595.75 C 624.0625 600.5 619.9375 606.125 609.0625 606.125 C 597.6875 606.125 591.3125 601.125 587.6875 598.25 L 586.4375 598.625 L 585.5625 616.25 L 586.3125 617.25 C 587.6875 617.75 589.0625 618.375 590.4375 618.75 C 593.3125 619.75 600.6875 621.875 610.0625 621.875 C 613.8125 621.875 623.3125 621.5 630.8125 618 C 641.3125 612.875 645.8125 603.375 645.8125 592.75 C 645.8125 585.625 643.0625 578 636.4375 572.875 C 633.0625 570.375 629.8125 568.875 626.8125 567.5 Z M 692.6875 605.625 C 690.5625 606.25 689.0625 606.75 686.9375 606.75 C 680.5625 606.75 680.0625 602.75 679.8125 600.875 C 679.4375 597.625 679.4375 590.75 679.5625 585.75 L 679.8125 568.125 L 691.0625 568.625 L 691.8125 567.875 L 693.0625 554.5 L 692.3125 553.75 L 679.8125 553.75 L 680.1875 532.75 L 679.3125 532 C 670.8125 534.5 668.5625 535.125 659.6875 537.375 L 659.1875 538.25 L 659.3125 553.875 L 652.5625 553.625 L 651.8125 554.25 L 650.6875 567.625 L 651.4375 568.375 L 659.3125 568.125 L 658.9375 588 C 658.8125 591.125 658.6875 594.25 658.6875 597.5 C 658.6875 609 658.9375 621.375 678.4375 621.375 C 683.3125 621.375 687.1875 620.625 691.5625 619.875 L 692.4375 619 L 693.6875 606.125 Z M 757.5625 582.75 C 757.6875 571.5 757.6875 566.625 754.4375 561.375 C 751.9375 557.375 746.9375 552.375 730.9375 552.375 C 720.1875 552.375 713.5625 554.375 706.4375 556.5 L 705.6875 557.5 L 705.0625 571.125 L 706.0625 571.625 C 710.4375 569.875 718.5625 566.625 726.9375 566.625 C 731.5625 566.625 733.4375 567.375 735.0625 569 C 736.3125 570.25 736.6875 572.5 736.6875 574.375 C 721.6875 576.375 714.6875 577.75 707.1875 582.375 C 700.1875 586.75 697.8125 593.875 697.8125 599.5 C 697.8125 612.875 707.4375 621.5 719.6875 621.5 C 729.0625 621.5 734.4375 617 737.0625 614.875 L 737.0625 619.5 L 737.8125 620.375 C 746.8125 620 749.5625 619.875 757.6875 620 L 758.3125 619.125 C 757.4375 606.875 757.4375 603.75 757.4375 592 L 757.5625 582.75 M 736.9375 602.625 C 734.3125 604.125 730.9375 605.875 726.8125 605.875 C 722.3125 605.875 718.5625 603.5 718.5625 598.25 C 718.5625 590 728.4375 588.625 736.9375 587.5 Z M 807.1875 605.625 C 805.0625 606.25 803.5625 606.75 801.4375 606.75 C 795.0625 606.75 794.5625 602.75 794.3125 600.875 C 793.9375 597.625 793.9375 590.75 794.0625 585.75 L 794.3125 568.125 L 805.5625 568.625 L 806.3125 567.875 L 807.5625 554.5 L 806.8125 553.75 L 794.3125 553.75 L 794.6875 532.75 L 793.8125 532 C 785.3125 534.5 783.0625 535.125 774.1875 537.375 L 773.6875 538.25 L 773.8125 553.875 L 767.0625 553.625 L 766.3125 554.25 L 765.1875 567.625 L 765.9375 568.375 L 773.8125 568.125 L 773.4375 588 C 773.3125 591.125 773.1875 594.25 773.1875 597.5 C 773.1875 609 773.4375 621.375 792.9375 621.375 C 797.8125 621.375 801.6875 620.625 806.0625 619.875 L 806.9375 619 L 808.1875 606.125 Z M 871.9375 601.5 C 867.1875 604 861.5625 606.875 852.4375 606.875 C 844.9375 606.875 839.8125 604.5 836.8125 600 C 834.9375 597.375 834.5625 594.875 834.0625 592.375 L 874.4375 591.625 L 875.1875 590.75 C 875.0625 584.625 874.9375 578.375 873.1875 572.125 C 868.8125 557.375 859.1875 554.375 854.9375 553.375 C 851.8125 552.5 848.9375 552.25 846.0625 552.25 C 826.4375 552.25 813.4375 565.125 813.4375 586.75 C 813.4375 592.625 814.4375 598.75 816.4375 603.125 C 823.6875 620 840.6875 621.5 849.6875 621.5 C 860.0625 621.5 864.5625 619.625 871.1875 617 L 871.9375 616 L 872.8125 601.875 L 871.9375 601.5 M 834.0625 579.125 C 834.4375 575.25 835.3125 570 840.0625 567 C 841.5625 566 843.3125 565.625 845.0625 565.625 C 849.1875 565.625 851.6875 567.75 853.0625 570 C 854.8125 572.75 854.9375 575.75 854.9375 578.625 Z M 879.1875 620 "/>
<path fill-rule="nonzero" fill="rgb(34.901961%, 14.901961%, 14.901961%)" fill-opacity="1" d="M 297.375 681.375 C 287.375 681.75 285.75 681.75 275.25 681.75 L 274.625 682.5 C 275.5 696.625 275.5 700.25 275.625 715 C 270.125 715.125 264.625 715.25 259 715.25 C 254.625 715.25 250.125 715.125 245.75 715.125 L 246 682.125 L 245.375 681.375 C 235.75 681.75 233.875 681.75 223 681.75 L 222.25 682.5 C 222.875 695.375 223.625 710.75 223.625 741.75 C 223.625 753 223.375 759.125 223.125 769.625 L 223.75 770.375 C 232.875 770 235.125 769.875 246.125 770 L 246.75 769.25 C 246 753.75 245.875 749.25 245.75 731.125 C 251.25 730.875 255.875 730.75 260.75 730.75 C 265.75 730.75 270.75 730.875 275.75 731 C 276 747.875 276 752 275.375 769.625 L 276 770.375 C 285.375 770 287.875 769.875 298.5 770 L 299.125 769.25 C 298.125 748.25 297.75 727.375 297.75 706.375 C 297.75 697.625 297.875 691.75 298 682.125 Z M 336.25 769.125 C 335.625 759.5 335.125 752.125 335.125 734.875 C 335.125 724.25 335.375 713.5 335.5 702.875 L 334.625 701.875 L 313.125 705.625 L 312.375 706.375 C 313.375 715.875 313.75 720.25 313.75 738 C 313.75 751.625 313.375 759.25 313 769.5 L 313.75 770.375 C 322.75 770 325.25 769.875 335.375 770 L 336.25 769.125 M 334.25 689.875 L 334.625 672.875 L 333.875 672.125 L 313.5 674.625 L 312.75 675.5 C 313 680 313.125 682.625 313.125 685.625 C 313.125 688 313.125 690.5 313 692.875 L 313.875 693.625 C 322.375 692.125 324.75 691.875 333.625 690.75 Z M 376.375 726.875 C 372.125 725.375 368.75 724 368.75 720.5 C 368.75 719 369.75 714.875 377.5 714.875 C 385.125 714.875 390 718.125 393.125 720.125 L 394.25 719.75 L 395.5 706.125 L 394.875 705.375 C 389 703.75 383.875 702.25 375.75 702.25 C 369.625 702.25 357.375 702.75 350.875 712.125 C 349.25 714.375 347.5 718.125 347.5 723.125 C 347.5 736.5 357.875 740.5 363.75 742.75 L 368.5 744.5 C 371.875 745.625 377.375 747.5 377.375 752 C 377.375 755.125 374.5 758.5 367.5 758.5 C 364 758.5 358.875 757.375 354.25 755 C 352.125 753.875 351.125 753 349.25 751.5 L 348.125 752 C 347.875 758.5 347.75 759.875 347.25 766.125 L 347.875 767.25 C 354 769.5 359.25 771.5 368.375 771.5 C 377.875 771.5 396.625 769.75 398.875 751.875 C 399 750.875 399 750 399 749.125 C 399 735.375 389.375 731.75 382.5 729.125 Z M 445 755.625 C 442.875 756.25 441.375 756.75 439.25 756.75 C 432.875 756.75 432.375 752.75 432.125 750.875 C 431.75 747.625 431.75 740.75 431.875 735.75 L 432.125 718.125 L 443.375 718.625 L 444.125 717.875 L 445.375 704.5 L 444.625 703.75 L 432.125 703.75 L 432.5 682.75 L 431.625 682 C 423.125 684.5 420.875 685.125 412 687.375 L 411.5 688.25 L 411.625 703.875 L 404.875 703.625 L 404.125 704.25 L 403 717.625 L 403.75 718.375 L 411.625 718.125 L 411.25 738 C 411.125 741.125 411 744.25 411 747.5 C 411 759 411.25 771.375 430.75 771.375 C 435.625 771.375 439.5 770.625 443.875 769.875 L 444.75 769 L 446 756.125 Z M 517.875 736.75 C 517.875 731.875 517.875 711.625 500.375 704.75 C 494.875 702.625 488.375 702.375 485.125 702.375 C 463.375 702.375 451.125 714 451.125 737 C 451.125 745 452.375 753.125 457 759.875 C 460.25 764.75 466.375 771.5 484.25 771.5 C 510.75 771.5 517.875 755.5 517.875 736.75 M 496.25 736.625 C 496.25 746.875 494.875 758.25 484.5 758.25 C 481.25 758.25 479 756.75 477.5 755.375 C 475.375 753.25 473 749 473 736.875 C 473 733.25 473 725.25 475.5 720.875 C 477.375 717.5 480.625 715.25 484.625 715.25 C 488.125 715.25 491 717.125 492.625 719.125 C 495.625 722.75 496.25 729.875 496.25 736.625 Z M 565.875 723.625 L 569.375 703.25 L 568.625 702.375 C 567.75 702.375 566.875 702.25 566 702.25 C 560.875 702.25 555.125 705.125 551.125 714.375 L 551.5 702.875 L 550.5 701.875 C 541.25 703.875 538.875 704.25 529.75 705.625 L 529 706.375 C 529.75 715.75 530.125 721.375 530.125 738.75 C 530.125 749 530 759.25 529.75 769.625 L 530.5 770.375 C 539.75 770 541.75 769.875 551.75 770 L 552.375 769.125 C 551.875 759 551.125 744.875 551.125 736.25 C 551.125 730.625 551.125 722.375 559.625 722.375 C 561.75 722.375 563 723.125 564.75 724.125 Z M 599.25 769.125 C 598.625 759.5 598.125 752.125 598.125 734.875 C 598.125 724.25 598.375 713.5 598.5 702.875 L 597.625 701.875 L 576.125 705.625 L 575.375 706.375 C 576.375 715.875 576.75 720.25 576.75 738 C 576.75 751.625 576.375 759.25 576 769.5 L 576.75 770.375 C 585.75 770 588.25 769.875 598.375 770 L 599.25 769.125 M 597.25 689.875 L 597.625 672.875 L 596.875 672.125 L 576.5 674.625 L 575.75 675.5 C 576 680 576.125 682.625 576.125 685.625 C 576.125 688 576.125 690.5 576 692.875 L 576.875 693.625 C 585.375 692.125 587.75 691.875 596.625 690.75 Z M 662 752 C 658.625 754 655.375 756 649 756 C 634.875 756 632 744.25 632 736.75 C 632 727.625 636 717.125 648.125 717.125 C 653.625 717.125 656.625 719.125 660.375 721.625 L 661.625 721.25 C 662.125 714.625 662.25 712.875 663.25 706.25 L 662.625 705.5 C 657.125 703.75 652.375 702.25 645.125 702.25 C 615.75 702.25 610 724.5 610 737.25 C 610 751.625 617.5 771.125 645.625 771.125 C 652.25 771.125 656.5 769.875 661.75 768.375 L 662.5 767.625 L 663 752.625 Z M 728.625 732.75 C 728.75 721.5 728.75 716.625 725.5 711.375 C 723 707.375 718 702.375 702 702.375 C 691.25 702.375 684.625 704.375 677.5 706.5 L 676.75 707.5 L 676.125 721.125 L 677.125 721.625 C 681.5 719.875 689.625 716.625 698 716.625 C 702.625 716.625 704.5 717.375 706.125 719 C 707.375 720.25 707.75 722.5 707.75 724.375 C 692.75 726.375 685.75 727.75 678.25 732.375 C 671.25 736.75 668.875 743.875 668.875 749.5 C 668.875 762.875 678.5 771.5 690.75 771.5 C 700.125 771.5 705.5 767 708.125 764.875 L 708.125 769.5 L 708.875 770.375 C 717.875 770 720.625 769.875 728.75 770 L 729.375 769.125 C 728.5 756.875 728.5 753.75 728.5 742 L 728.625 732.75 M 708 752.625 C 705.375 754.125 702 755.875 697.875 755.875 C 693.375 755.875 689.625 753.5 689.625 748.25 C 689.625 740 699.5 738.625 708 737.5 Z M 765.25 769.125 C 764.625 754.75 764 741.625 764 702.125 C 764 690.25 764.125 684.625 764.625 671.125 L 763.75 670.25 L 742.375 673.625 L 741.875 674.375 C 743.125 689.625 743.25 693.75 743.5 714 C 743.625 721.375 743.625 728.75 743.625 736.125 C 743.625 749.625 743.375 757.125 742.875 769.5 L 743.625 770.375 C 752 770 755.375 769.875 764.5 770 Z M 772.25 770 "/>
<path fill-rule="nonzero" fill="rgb(34.901961%, 14.901961%, 14.901961%)" fill-opacity="1" d="M 271.8125 831.375 C 258.8125 831.75 256.6875 831.75 242.8125 831.75 L 242.0625 832.5 L 236.3125 852.75 L 231.3125 870.875 L 225.4375 892.625 L 219.9375 870.25 L 216.4375 856.125 L 210.1875 832.125 L 209.5625 831.375 C 196.1875 831.75 193.9375 831.75 179.9375 831.75 L 179.1875 832.5 C 177.9375 869.875 177.4375 879.5 174.6875 919.625 L 175.3125 920.375 C 183.3125 920 185.6875 919.875 192.9375 920 L 193.6875 919.25 L 194.0625 895.375 L 194.8125 871.125 L 195.3125 847.5 L 200.8125 869.625 L 205.5625 887.375 L 213.9375 919.625 L 214.6875 920.375 C 222.4375 920 224.5625 919.875 233.3125 920 L 234.0625 919.25 L 241.3125 892.625 L 246.3125 874.375 L 253.3125 848.125 L 253.3125 870.5 L 253.5625 889.625 L 253.5625 919.625 L 254.1875 920.375 C 262.8125 920 266.1875 919.875 275.8125 920 L 276.4375 919.25 C 275.6875 905 274.8125 890.625 274.3125 876.25 C 273.9375 868.375 273.6875 860.5 273.3125 852.625 C 272.6875 841 272.5625 839.5 272.5625 832.125 Z M 354.1875 886.75 C 354.1875 881.875 354.1875 861.625 336.6875 854.75 C 331.1875 852.625 324.6875 852.375 321.4375 852.375 C 299.6875 852.375 287.4375 864 287.4375 887 C 287.4375 895 288.6875 903.125 293.3125 909.875 C 296.5625 914.75 302.6875 921.5 320.5625 921.5 C 347.0625 921.5 354.1875 905.5 354.1875 886.75 M 332.5625 886.625 C 332.5625 896.875 331.1875 908.25 320.8125 908.25 C 317.5625 908.25 315.3125 906.75 313.8125 905.375 C 311.6875 903.25 309.3125 899 309.3125 886.875 C 309.3125 883.25 309.3125 875.25 311.8125 870.875 C 313.6875 867.5 316.9375 865.25 320.9375 865.25 C 324.4375 865.25 327.3125 867.125 328.9375 869.125 C 331.9375 872.75 332.5625 879.875 332.5625 886.625 Z M 427.3125 919.125 C 426.6875 908.125 426.6875 904.625 426.4375 892.375 L 426.4375 882.625 C 426.3125 870.625 426.1875 864.875 423.0625 859.75 C 419.1875 853.25 412.0625 852.25 407.5625 852.25 C 399.9375 852.25 393.3125 856.25 387.5625 859.625 L 387.8125 852.75 L 386.5625 851.875 C 376.9375 853.875 374.8125 854.25 365.4375 855.5 L 364.6875 856.375 C 365.6875 867.25 366.4375 875.125 366.4375 895.5 C 366.4375 903.5 366.3125 911.5 366.1875 919.5 L 366.9375 920.25 C 375.9375 919.875 377.8125 919.875 387.8125 919.875 L 388.5625 919.125 C 387.8125 899.875 387.6875 895 387.5625 872.625 C 390.1875 870.875 393.1875 868.75 397.1875 868.75 C 404.0625 868.75 404.6875 876.125 405.0625 880.625 C 405.3125 884.75 405.4375 901.875 405.4375 906.625 C 405.4375 910.875 405.3125 915.25 405.3125 919.5 L 406.0625 920.25 C 414.3125 920 416.4375 919.875 426.4375 919.875 Z M 501.5625 853.125 L 481.1875 854.125 L 480.3125 854.875 C 481.1875 869 481.1875 889 481.1875 891 C 481.1875 894.625 481.1875 896.625 481.0625 901.625 C 477.6875 903.875 475.0625 905.75 471.6875 905.75 C 462.6875 905.75 462.6875 896.25 462.6875 888.875 C 462.6875 885.75 462.6875 882.5 462.8125 879.375 L 463.0625 854.125 L 462.1875 853.125 L 441.5625 854.125 L 440.6875 854.875 C 441.4375 865.375 441.5625 868.875 441.5625 881.5 L 441.5625 890.25 C 441.4375 903.875 442.0625 909.625 446.5625 914.875 C 450.6875 919.5 456.6875 921.5 462.9375 921.5 C 471.8125 921.5 476.9375 917.5 481.4375 914 L 481.3125 919.625 L 482.1875 920.375 C 491.3125 920 494.0625 920 502.1875 920 L 502.9375 919.25 C 502.3125 910.375 502.0625 905.625 502.0625 889.375 C 502.0625 877.625 502.1875 865.875 502.4375 854.125 Z M 614.6875 919.125 C 614.0625 907.5 613.9375 904.25 613.9375 890.125 L 613.9375 880.75 C 614.0625 872.375 614.1875 864.625 610.5625 859.375 C 605.6875 852.25 597.0625 852.25 595.0625 852.25 C 584.8125 852.25 577.9375 856.875 572.9375 860.375 C 571.1875 857.5 568.0625 852.25 558.0625 852.25 C 549.8125 852.25 544.4375 856 538.6875 860 L 538.6875 853 L 537.5625 851.875 C 527.8125 853.75 525.0625 854.25 516.3125 855.5 L 515.5625 856.375 C 516.5625 866.375 517.3125 873.25 517.3125 898 C 517.3125 905.125 517.1875 912.375 517.1875 919.5 L 517.8125 920.25 C 525.8125 920 528.5625 919.875 538.9375 919.875 L 539.6875 919.125 C 538.8125 899.875 538.6875 894.125 538.5625 872.375 C 541.1875 870.5 544.0625 868.875 547.1875 868.875 C 554.9375 868.875 555.1875 877.75 555.1875 888.5 C 555.1875 906.625 555.0625 909.375 554.8125 919.5 L 555.5625 920.375 C 565.0625 919.875 567.6875 919.875 576.3125 919.875 L 577.0625 919.125 C 576.3125 907.25 576.1875 903.75 576.0625 888.625 L 576.0625 884 L 575.9375 871.375 C 578.0625 870 580.8125 868.25 584.5625 868.25 C 591.6875 868.25 592.8125 875 592.8125 885.75 C 592.8125 888.125 592.6875 890.5 592.6875 892.875 C 592.5625 897.125 592.4375 915.75 592.3125 919.5 L 593.0625 920.25 C 602.4375 919.875 605.1875 919.875 613.9375 919.875 Z M 684.5625 901.5 C 679.8125 904 674.1875 906.875 665.0625 906.875 C 657.5625 906.875 652.4375 904.5 649.4375 900 C 647.5625 897.375 647.1875 894.875 646.6875 892.375 L 687.0625 891.625 L 687.8125 890.75 C 687.6875 884.625 687.5625 878.375 685.8125 872.125 C 681.4375 857.375 671.8125 854.375 667.5625 853.375 C 664.4375 852.5 661.5625 852.25 658.6875 852.25 C 639.0625 852.25 626.0625 865.125 626.0625 886.75 C 626.0625 892.625 627.0625 898.75 629.0625 903.125 C 636.3125 920 653.3125 921.5 662.3125 921.5 C 672.6875 921.5 677.1875 919.625 683.8125 917 L 684.5625 916 L 685.4375 901.875 L 684.5625 901.5 M 646.6875 879.125 C 647.0625 875.25 647.9375 870 652.6875 867 C 654.1875 866 655.9375 865.625 657.6875 865.625 C 661.8125 865.625 664.3125 867.75 665.6875 870 C 667.4375 872.75 667.5625 875.75 667.5625 878.625 Z M 760.5625 919.125 C 759.9375 908.125 759.9375 904.625 759.6875 892.375 L 759.6875 882.625 C 759.5625 870.625 759.4375 864.875 756.3125 859.75 C 752.4375 853.25 745.3125 852.25 740.8125 852.25 C 733.1875 852.25 726.5625 856.25 720.8125 859.625 L 721.0625 852.75 L 719.8125 851.875 C 710.1875 853.875 708.0625 854.25 698.6875 855.5 L 697.9375 856.375 C 698.9375 867.25 699.6875 875.125 699.6875 895.5 C 699.6875 903.5 699.5625 911.5 699.4375 919.5 L 700.1875 920.25 C 709.1875 919.875 711.0625 919.875 721.0625 919.875 L 721.8125 919.125 C 721.0625 899.875 720.9375 895 720.8125 872.625 C 723.4375 870.875 726.4375 868.75 730.4375 868.75 C 737.3125 868.75 737.9375 876.125 738.3125 880.625 C 738.5625 884.75 738.6875 901.875 738.6875 906.625 C 738.6875 910.875 738.5625 915.25 738.5625 919.5 L 739.3125 920.25 C 747.5625 920 749.6875 919.875 759.6875 919.875 Z M 809.8125 905.625 C 807.6875 906.25 806.1875 906.75 804.0625 906.75 C 797.6875 906.75 797.1875 902.75 796.9375 900.875 C 796.5625 897.625 796.5625 890.75 796.6875 885.75 L 796.9375 868.125 L 808.1875 868.625 L 808.9375 867.875 L 810.1875 854.5 L 809.4375 853.75 L 796.9375 853.75 L 797.3125 832.75 L 796.4375 832 C 787.9375 834.5 785.6875 835.125 776.8125 837.375 L 776.3125 838.25 L 776.4375 853.875 L 769.6875 853.625 L 768.9375 854.25 L 767.8125 867.625 L 768.5625 868.375 L 776.4375 868.125 L 776.0625 888 C 775.9375 891.125 775.8125 894.25 775.8125 897.5 C 775.8125 909 776.0625 921.375 795.5625 921.375 C 800.4375 921.375 804.3125 920.625 808.6875 919.875 L 809.5625 919 L 810.8125 906.125 Z M 811.5625 920 "/>
</svg>
