<?xml version="1.0" encoding="UTF-8"?>
<svg xmlns="http://www.w3.org/2000/svg" xmlns:xlink="http://www.w3.org/1999/xlink" width="975" height="1300" viewBox="0 0 975 1300">
<path fill-rule="nonzero" fill="rgb(34.901961%, 14.901961%, 14.901961%)" fill-opacity="1" d="M 169 531.5 L 153.125 531.75 L 152.375 532.5 C 152.875 548.75 153.25 559.625 153.25 574 C 153.25 589.25 152.875 604.375 152.5 619.625 L 153.25 620.375 C 162.5 620 164.5 619.875 174.5 620 L 175.125 619.25 C 174.625 605.625 174.625 602.5 174.625 589.75 C 188.625 589.875 203.625 589.875 212.625 578.875 C 216.125 574.625 219.125 567.5 219.125 558.75 C 219.125 553.375 217.875 541.5 207.5 535.625 C 200 531.25 189.375 531.25 180 531.25 L 169 531.5 M 174.625 546.625 C 177.375 546.5 180 546.5 182.75 546.5 C 193.75 546.75 196.75 552.375 196.75 559.625 C 196.75 561.375 196.75 568.625 190.125 572.25 C 186.75 574.125 182.125 574.375 174.625 574.375 Z M 250.375 619.125 C 249.75 609.5 249.25 602.125 249.25 584.875 C 249.25 574.25 249.5 563.5 249.625 552.875 L 248.75 551.875 L 227.25 555.625 L 226.5 556.375 C 227.5 565.875 227.875 570.25 227.875 588 C 227.875 601.625 227.5 609.25 227.125 619.5 L 227.875 620.375 C 236.875 620 239.375 619.875 249.5 620 L 250.375 619.125 M 248.375 539.875 L 248.75 522.875 L 248 522.125 L 227.625 524.625 L 226.875 525.5 C 227.125 530 227.25 532.625 227.25 535.625 C 227.25 538 227.25 540.5 227.125 542.875 L 228 543.625 C 236.5 542.125 238.875 541.875 247.75 540.75 Z M 290.5 576.875 C 286.25 575.375 282.875 574 282.875 570.5 C 282.875 569 283.875 564.875 291.625 564.875 C 299.25 564.875 304.125 568.125 307.25 570.125 L 308.375 569.75 L 309.625 556.125 L 309 555.375 C 303.125 553.75 298 552.25 289.875 552.25 C 283.75 552.25 271.5 552.75 265 562.125 C 263.375 564.375 261.625 568.125 261.625 573.125 C 261.625 586.5 272 590.5 277.875 592.75 L 282.625 594.5 C 286 595.625 291.5 597.5 291.5 602 C 291.5 605.125 288.625 608.5 281.625 608.5 C 278.125 608.5 273 607.375 268.375 605 C 266.25 603.875 265.25 603 263.375 601.5 L 262.25 602 C 262 608.5 261.875 609.875 261.375 616.125 L 262 617.25 C 268.125 619.5 273.375 621.5 282.5 621.5 C 292 621.5 310.75 619.75 313 601.875 C 313.125 600.875 313.125 600 313.125 599.125 C 313.125 585.375 303.5 581.75 296.625 579.125 Z M 421.75 619.125 C 421.125 607.5 421 604.25 421 590.125 L 421 580.75 C 421.125 572.375 421.25 564.625 417.625 559.375 C 412.75 552.25 404.125 552.25 402.125 552.25 C 391.875 552.25 385 556.875 380 560.375 C 378.25 557.5 375.125 552.25 365.125 552.25 C 356.875 552.25 351.5 556 345.75 560 L 345.75 553 L 344.625 551.875 C 334.875 553.75 332.125 554.25 323.375 555.5 L 322.625 556.375 C 323.625 566.375 324.375 573.25 324.375 598 C 324.375 605.125 324.25 612.375 324.25 619.5 L 324.875 620.25 C 332.875 620 335.625 619.875 346 619.875 L 346.75 619.125 C 345.875 599.875 345.75 594.125 345.625 572.375 C 348.25 570.5 351.125 568.875 354.25 568.875 C 362 568.875 362.25 577.75 362.25 588.5 C 362.25 606.625 362.125 609.375 361.875 619.5 L 362.625 620.375 C 372.125 619.875 374.75 619.875 383.375 619.875 L 384.125 619.125 C 383.375 607.25 383.25 603.75 383.125 588.625 L 383.125 584 L 383 571.375 C 385.125 570 387.875 568.25 391.625 568.25 C 398.75 568.25 399.875 575 399.875 585.75 C 399.875 588.125 399.75 590.5 399.75 592.875 C 399.625 597.125 399.5 615.75 399.375 619.5 L 400.125 620.25 C 409.5 619.875 412.25 619.875 421 619.875 Z M 499.75 586.75 C 499.75 581.875 499.75 561.625 482.25 554.75 C 476.75 552.625 470.25 552.375 467 552.375 C 445.25 552.375 433 564 433 587 C 433 595 434.25 603.125 438.875 609.875 C 442.125 614.75 448.25 621.5 466.125 621.5 C 492.625 621.5 499.75 605.5 499.75 586.75 M 478.125 586.625 C 478.125 596.875 476.75 608.25 466.375 608.25 C 463.125 608.25 460.875 606.75 459.375 605.375 C 457.25 603.25 454.875 599 454.875 586.875 C 454.875 583.25 454.875 575.25 457.375 570.875 C 459.25 567.5 462.5 565.25 466.5 565.25 C 470 565.25 472.875 567.125 474.5 569.125 C 477.5 572.75 478.125 579.875 478.125 586.625 Z M 584.25 566.25 C 573.75 561.875 568.25 559.625 568.25 554 C 568.25 550.125 571.875 545.25 580.125 545.25 C 589.625 545.25 595.25 549.125 599.875 552.25 L 601 551.75 L 602 535.375 L 601.375 534.5 C 596 532.25 590.375 529.875 578.25 529.875 C 554.75 529.875 546.625 543.125 546.625 556.5 C 546.625 571.625 558.375 577.125 565.375 580.5 L 569.5 582.375 C 578.125 586 584.75 589.125 584.75 595.75 C 584.75 600.5 580.625 606.125 569.75 606.125 C 558.375 606.125 552 601.125 548.375 598.25 L 547.125 598.625 L 546.25 616.25 L 547 617.25 C 548.375 617.75 549.75 618.375 551.125 618.75 C 554 619.75 561.375 621.875 570.75 621.875 C 574.5 621.875 584 621.5 591.5 618 C 602 612.875 606.5 603.375 606.5 592.75 C 606.5 585.625 603.75 578 597.125 572.875 C 593.75 570.375 590.5 568.875 587.5 567.5 Z M 653.375 605.625 C 651.25 606.25 649.75 606.75 647.625 606.75 C 641.25 606.75 640.75 602.75 640.5 600.875 C 640.125 597.625 640.125 590.75 640.25 585.75 L 640.5 568.125 L 651.75 568.625 L 652.5 567.875 L 653.75 554.5 L 653 553.75 L 640.5 553.75 L 640.875 532.75 L 640 532 C 631.5 534.5 629.25 535.125 620.375 537.375 L 619.875 538.25 L 620 553.875 L 613.25 553.625 L 612.5 554.25 L 611.375 567.625 L 612.125 568.375 L 620 568.125 L 619.625 588 C 619.5 591.125 619.375 594.25 619.375 597.5 C 619.375 609 619.625 621.375 639.125 621.375 C 644 621.375 647.875 620.625 652.25 619.875 L 653.125 619 L 654.375 606.125 Z M 718.25 582.75 C 718.375 571.5 718.375 566.625 715.125 561.375 C 712.625 557.375 707.625 552.375 691.625 552.375 C 680.875 552.375 674.25 554.375 667.125 556.5 L 666.375 557.5 L 665.75 571.125 L 666.75 571.625 C 671.125 569.875 679.25 566.625 687.625 566.625 C 692.25 566.625 694.125 567.375 695.75 569 C 697 570.25 697.375 572.5 697.375 574.375 C 682.375 576.375 675.375 577.75 667.875 582.375 C 660.875 586.75 658.5 593.875 658.5 599.5 C 658.5 612.875 668.125 621.5 680.375 621.5 C 689.75 621.5 695.125 617 697.75 614.875 L 697.75 619.5 L 698.5 620.375 C 707.5 620 710.25 619.875 718.375 620 L 719 619.125 C 718.125 606.875 718.125 603.75 718.125 592 L 718.25 582.75 M 697.625 602.625 C 695 604.125 691.625 605.875 687.5 605.875 C 683 605.875 679.25 603.5 679.25 598.25 C 679.25 590 689.125 588.625 697.625 587.5 Z M 767.875 605.625 C 765.75 606.25 764.25 606.75 762.125 606.75 C 755.75 606.75 755.25 602.75 755 600.875 C 754.625 597.625 754.625 590.75 754.75 585.75 L 755 568.125 L 766.25 568.625 L 767 567.875 L 768.25 554.5 L 767.5 553.75 L 755 553.75 L 755.375 532.75 L 754.5 532 C 746 534.5 743.75 535.125 734.875 537.375 L 734.375 538.25 L 734.5 553.875 L 727.75 553.625 L 727 554.25 L 725.875 567.625 L 726.625 568.375 L 734.5 568.125 L 734.125 588 C 734 591.125 733.875 594.25 733.875 597.5 C 733.875 609 734.125 621.375 753.625 621.375 C 758.5 621.375 762.375 620.625 766.75 619.875 L 767.625 619 L 768.875 606.125 Z M 832.625 601.5 C 827.875 604 822.25 606.875 813.125 606.875 C 805.625 606.875 800.5 604.5 797.5 600 C 795.625 597.375 795.25 594.875 794.75 592.375 L 835.125 591.625 L 835.875 590.75 C 835.75 584.625 835.625 578.375 833.875 572.125 C 829.5 557.375 819.875 554.375 815.625 553.375 C 812.5 552.5 809.625 552.25 806.75 552.25 C 787.125 552.25 774.125 565.125 774.125 586.75 C 774.125 592.625 775.125 598.75 777.125 603.125 C 784.375 620 801.375 621.5 810.375 621.5 C 820.75 621.5 825.25 619.625 831.875 617 L 832.625 616 L 833.5 601.875 L 832.625 601.5 M 794.75 579.125 C 795.125 575.25 796 570 800.75 567 C 802.25 566 804 565.625 805.75 565.625 C 809.875 565.625 812.375 567.75 813.75 570 C 815.5 572.75 815.625 575.75 815.625 578.625 Z M 839.875 620 "/>
<path fill-rule="nonzero" fill="rgb(34.901961%, 14.901961%, 14.901961%)" fill-opacity="1" d="M 346.25 770 C 357.875 770.25 372.25 770.5 381.625 764 C 389.875 758.125 392.125 749.875 392.125 742.875 C 392.125 734.875 388.75 727.5 381.625 724 C 379.25 722.75 376.5 722.25 373.875 721.75 C 378.125 720 383.125 717.75 386.375 711.125 C 387.75 708.25 388.375 705.25 388.375 702.375 C 388.375 698.375 387.375 692.875 383.375 688.375 C 378.125 682.75 370 681.25 357.75 681.25 C 353.5 681.25 345.875 681.375 341.625 681.5 L 324.125 681.75 L 323.375 682.5 C 323.875 694.5 324 699.125 324 716.375 C 324 734.125 323.875 751.75 323.625 769.5 L 324.5 770 L 346.25 770 M 345.375 732 C 354.875 731.75 360.375 731.75 364 733.875 C 367.625 736.125 369 740.125 369 744.125 C 369 749.75 365.875 753.25 361.25 754.875 C 357.5 756.125 350.75 756.125 345.375 756 L 345.375 732 M 345.375 695.25 C 348 695.25 351.5 695.125 353.625 695.125 C 360.375 695.125 366.5 697.5 366.5 705.625 C 366.5 712.25 361.625 715 360.125 715.75 C 357 717.125 350.375 717.125 345.375 717.125 Z M 459.25 751.5 C 454.5 754 448.875 756.875 439.75 756.875 C 432.25 756.875 427.125 754.5 424.125 750 C 422.25 747.375 421.875 744.875 421.375 742.375 L 461.75 741.625 L 462.5 740.75 C 462.375 734.625 462.25 728.375 460.5 722.125 C 456.125 707.375 446.5 704.375 442.25 703.375 C 439.125 702.5 436.25 702.25 433.375 702.25 C 413.75 702.25 400.75 715.125 400.75 736.75 C 400.75 742.625 401.75 748.75 403.75 753.125 C 411 770 428 771.5 437 771.5 C 447.375 771.5 451.875 769.625 458.5 767 L 459.25 766 L 460.125 751.875 L 459.25 751.5 M 421.375 729.125 C 421.75 725.25 422.625 720 427.375 717 C 428.875 716 430.625 715.625 432.375 715.625 C 436.5 715.625 439 717.75 440.375 720 C 442.125 722.75 442.25 725.75 442.25 728.625 Z M 529.625 732.75 C 529.75 721.5 529.75 716.625 526.5 711.375 C 524 707.375 519 702.375 503 702.375 C 492.25 702.375 485.625 704.375 478.5 706.5 L 477.75 707.5 L 477.125 721.125 L 478.125 721.625 C 482.5 719.875 490.625 716.625 499 716.625 C 503.625 716.625 505.5 717.375 507.125 719 C 508.375 720.25 508.75 722.5 508.75 724.375 C 493.75 726.375 486.75 727.75 479.25 732.375 C 472.25 736.75 469.875 743.875 469.875 749.5 C 469.875 762.875 479.5 771.5 491.75 771.5 C 501.125 771.5 506.5 767 509.125 764.875 L 509.125 769.5 L 509.875 770.375 C 518.875 770 521.625 769.875 529.75 770 L 530.375 769.125 C 529.5 756.875 529.5 753.75 529.5 742 L 529.625 732.75 M 509 752.625 C 506.375 754.125 503 755.875 498.875 755.875 C 494.375 755.875 490.625 753.5 490.625 748.25 C 490.625 740 500.5 738.625 509 737.5 Z M 593.125 752 C 589.75 754 586.5 756 580.125 756 C 566 756 563.125 744.25 563.125 736.75 C 563.125 727.625 567.125 717.125 579.25 717.125 C 584.75 717.125 587.75 719.125 591.5 721.625 L 592.75 721.25 C 593.25 714.625 593.375 712.875 594.375 706.25 L 593.75 705.5 C 588.25 703.75 583.5 702.25 576.25 702.25 C 546.875 702.25 541.125 724.5 541.125 737.25 C 541.125 751.625 548.625 771.125 576.75 771.125 C 583.375 771.125 587.625 769.875 592.875 768.375 L 593.625 767.625 L 594.125 752.625 Z M 665.375 769.125 C 664.875 758.875 664.75 755.375 664.5 742.375 L 664.5 733 C 664.375 721.125 664.25 714.25 660.625 709 C 657 703.875 651.75 702.25 646.25 702.25 C 637.125 702.25 630 706.625 625 709.625 L 625.375 671.125 L 624.625 670.25 L 603.25 673.625 L 602.625 674.375 C 603.75 686.5 604 691 604.25 707.125 C 604.5 717.25 604.625 727.375 604.625 737.5 C 604.625 749.875 604.375 757.25 604.125 769.5 L 604.75 770.375 C 614 769.875 615.875 769.875 626 769.875 L 626.75 769.125 C 625.875 750.375 625.75 744.75 625.625 722.625 C 628 721 631 718.875 635.25 718.875 C 642.125 718.875 642.625 726 643.125 731 C 643.375 734.875 643.5 752.625 643.5 757.25 C 643.5 761.375 643.375 765.375 643.375 769.5 L 644 770.375 C 653 769.875 655 769.875 664.625 769.875 Z M 672.125 770 "/>
</svg>
