<?xml version="1.0" encoding="UTF-8"?>
<svg xmlns="http://www.w3.org/2000/svg" xmlns:xlink="http://www.w3.org/1999/xlink" width="975" height="1300" viewBox="0 0 975 1300">
<path fill-rule="nonzero" fill="rgb(34.901961%, 14.901961%, 14.901961%)" fill-opacity="1" d="M 292.8125 447.625 C 289.9375 449.875 283.5625 454.625 273.1875 454.625 C 258.9375 454.625 248.9375 444 248.9375 426.25 C 248.9375 415.5 252.6875 396.625 273.0625 396.625 C 282.4375 396.625 287.5625 400.25 290.6875 402.625 L 291.8125 402.375 L 292.9375 385.125 L 292.4375 384.5 C 287.9375 382.75 280.3125 379.875 269.3125 379.875 C 236.9375 379.875 225.6875 404.875 225.6875 426.75 C 225.6875 450.75 240.3125 471.875 270.8125 471.875 C 281.3125 471.875 288.1875 469.125 292.1875 467.5 L 292.8125 466.75 L 293.6875 448.125 Z M 364.6875 469.125 C 364.1875 458.875 364.0625 455.375 363.8125 442.375 L 363.8125 433 C 363.6875 421.125 363.5625 414.25 359.9375 409 C 356.3125 403.875 351.0625 402.25 345.5625 402.25 C 336.4375 402.25 329.3125 406.625 324.3125 409.625 L 324.6875 371.125 L 323.9375 370.25 L 302.5625 373.625 L 301.9375 374.375 C 303.0625 386.5 303.3125 391 303.5625 407.125 C 303.8125 417.25 303.9375 427.375 303.9375 437.5 C 303.9375 449.875 303.6875 457.25 303.4375 469.5 L 304.0625 470.375 C 313.3125 469.875 315.1875 469.875 325.3125 469.875 L 326.0625 469.125 C 325.1875 450.375 325.0625 444.75 324.9375 422.625 C 327.3125 421 330.3125 418.875 334.5625 418.875 C 341.4375 418.875 341.9375 426 342.4375 431 C 342.6875 434.875 342.8125 452.625 342.8125 457.25 C 342.8125 461.375 342.6875 465.375 342.6875 469.5 L 343.3125 470.375 C 352.3125 469.875 354.3125 469.875 363.9375 469.875 Z M 438.9375 403.125 L 418.5625 404.125 L 417.6875 404.875 C 418.5625 419 418.5625 439 418.5625 441 C 418.5625 444.625 418.5625 446.625 418.4375 451.625 C 415.0625 453.875 412.4375 455.75 409.0625 455.75 C 400.0625 455.75 400.0625 446.25 400.0625 438.875 C 400.0625 435.75 400.0625 432.5 400.1875 429.375 L 400.4375 404.125 L 399.5625 403.125 L 378.9375 404.125 L 378.0625 404.875 C 378.8125 415.375 378.9375 418.875 378.9375 431.5 L 378.9375 440.25 C 378.8125 453.875 379.4375 459.625 383.9375 464.875 C 388.0625 469.5 394.0625 471.5 400.3125 471.5 C 409.1875 471.5 414.3125 467.5 418.8125 464 L 418.6875 469.625 L 419.5625 470.375 C 428.6875 470 431.4375 470 439.5625 470 L 440.3125 469.25 C 439.6875 460.375 439.4375 455.625 439.4375 439.375 C 439.4375 427.625 439.5625 415.875 439.8125 404.125 Z M 552.0625 469.125 C 551.4375 457.5 551.3125 454.25 551.3125 440.125 L 551.3125 430.75 C 551.4375 422.375 551.5625 414.625 547.9375 409.375 C 543.0625 402.25 534.4375 402.25 532.4375 402.25 C 522.1875 402.25 515.3125 406.875 510.3125 410.375 C 508.5625 407.5 505.4375 402.25 495.4375 402.25 C 487.1875 402.25 481.8125 406 476.0625 410 L 476.0625 403 L 474.9375 401.875 C 465.1875 403.75 462.4375 404.25 453.6875 405.5 L 452.9375 406.375 C 453.9375 416.375 454.6875 423.25 454.6875 448 C 454.6875 455.125 454.5625 462.375 454.5625 469.5 L 455.1875 470.25 C 463.1875 470 465.9375 469.875 476.3125 469.875 L 477.0625 469.125 C 476.1875 449.875 476.0625 444.125 475.9375 422.375 C 478.5625 420.5 481.4375 418.875 484.5625 418.875 C 492.3125 418.875 492.5625 427.75 492.5625 438.5 C 492.5625 456.625 492.4375 459.375 492.1875 469.5 L 492.9375 470.375 C 502.4375 469.875 505.0625 469.875 513.6875 469.875 L 514.4375 469.125 C 513.6875 457.25 513.5625 453.75 513.4375 438.625 L 513.4375 434 L 513.3125 421.375 C 515.4375 420 518.1875 418.25 521.9375 418.25 C 529.0625 418.25 530.1875 425 530.1875 435.75 C 530.1875 438.125 530.0625 440.5 530.0625 442.875 C 529.9375 447.125 529.8125 465.75 529.6875 469.5 L 530.4375 470.25 C 539.8125 469.875 542.5625 469.875 551.3125 469.875 Z M 622.0625 432.75 C 622.1875 421.5 622.1875 416.625 618.9375 411.375 C 616.4375 407.375 611.4375 402.375 595.4375 402.375 C 584.6875 402.375 578.0625 404.375 570.9375 406.5 L 570.1875 407.5 L 569.5625 421.125 L 570.5625 421.625 C 574.9375 419.875 583.0625 416.625 591.4375 416.625 C 596.0625 416.625 597.9375 417.375 599.5625 419 C 600.8125 420.25 601.1875 422.5 601.1875 424.375 C 586.1875 426.375 579.1875 427.75 571.6875 432.375 C 564.6875 436.75 562.3125 443.875 562.3125 449.5 C 562.3125 462.875 571.9375 471.5 584.1875 471.5 C 593.5625 471.5 598.9375 467 601.5625 464.875 L 601.5625 469.5 L 602.3125 470.375 C 611.3125 470 614.0625 469.875 622.1875 470 L 622.8125 469.125 C 621.9375 456.875 621.9375 453.75 621.9375 442 L 622.0625 432.75 M 601.4375 452.625 C 598.8125 454.125 595.4375 455.875 591.3125 455.875 C 586.8125 455.875 583.0625 453.5 583.0625 448.25 C 583.0625 440 592.9375 438.625 601.4375 437.5 Z M 662.9375 426.875 C 658.6875 425.375 655.3125 424 655.3125 420.5 C 655.3125 419 656.3125 414.875 664.0625 414.875 C 671.6875 414.875 676.5625 418.125 679.6875 420.125 L 680.8125 419.75 L 682.0625 406.125 L 681.4375 405.375 C 675.5625 403.75 670.4375 402.25 662.3125 402.25 C 656.1875 402.25 643.9375 402.75 637.4375 412.125 C 635.8125 414.375 634.0625 418.125 634.0625 423.125 C 634.0625 436.5 644.4375 440.5 650.3125 442.75 L 655.0625 444.5 C 658.4375 445.625 663.9375 447.5 663.9375 452 C 663.9375 455.125 661.0625 458.5 654.0625 458.5 C 650.5625 458.5 645.4375 457.375 640.8125 455 C 638.6875 453.875 637.6875 453 635.8125 451.5 L 634.6875 452 C 634.4375 458.5 634.3125 459.875 633.8125 466.125 L 634.4375 467.25 C 640.5625 469.5 645.8125 471.5 654.9375 471.5 C 664.4375 471.5 683.1875 469.75 685.4375 451.875 C 685.5625 450.875 685.5625 450 685.5625 449.125 C 685.5625 435.375 675.9375 431.75 669.0625 429.125 Z M 757.8125 469.125 C 757.3125 458.875 757.1875 455.375 756.9375 442.375 L 756.9375 433 C 756.8125 421.125 756.6875 414.25 753.0625 409 C 749.4375 403.875 744.1875 402.25 738.6875 402.25 C 729.5625 402.25 722.4375 406.625 717.4375 409.625 L 717.8125 371.125 L 717.0625 370.25 L 695.6875 373.625 L 695.0625 374.375 C 696.1875 386.5 696.4375 391 696.6875 407.125 C 696.9375 417.25 697.0625 427.375 697.0625 437.5 C 697.0625 449.875 696.8125 457.25 696.5625 469.5 L 697.1875 470.375 C 706.4375 469.875 708.3125 469.875 718.4375 469.875 L 719.1875 469.125 C 718.3125 450.375 718.1875 444.75 718.0625 422.625 C 720.4375 421 723.4375 418.875 727.6875 418.875 C 734.5625 418.875 735.0625 426 735.5625 431 C 735.8125 434.875 735.9375 452.625 735.9375 457.25 C 735.9375 461.375 735.8125 465.375 735.8125 469.5 L 736.4375 470.375 C 745.4375 469.875 747.4375 469.875 757.0625 469.875 Z M 764.5625 470 "/>
<path fill-rule="nonzero" fill="rgb(34.901961%, 14.901961%, 14.901961%)" fill-opacity="1" d="M 135.1875 531.5 L 119.3125 531.75 L 118.5625 532.5 C 119.0625 548.75 119.4375 559.625 119.4375 574 C 119.4375 589.25 119.0625 604.375 118.6875 619.625 L 119.4375 620.375 C 128.6875 620 130.6875 619.875 140.6875 620 L 141.3125 619.25 C 140.8125 605.625 140.8125 602.5 140.8125 589.75 C 154.8125 589.875 169.8125 589.875 178.8125 578.875 C 182.3125 574.625 185.3125 567.5 185.3125 558.75 C 185.3125 553.375 184.0625 541.5 173.6875 535.625 C 166.1875 531.25 155.5625 531.25 146.1875 531.25 L 135.1875 531.5 M 140.8125 546.625 C 143.5625 546.5 146.1875 546.5 148.9375 546.5 C 159.9375 546.75 162.9375 552.375 162.9375 559.625 C 162.9375 561.375 162.9375 568.625 156.3125 572.25 C 152.9375 574.125 148.3125 574.375 140.8125 574.375 Z M 249.5625 582.75 C 249.6875 571.5 249.6875 566.625 246.4375 561.375 C 243.9375 557.375 238.9375 552.375 222.9375 552.375 C 212.1875 552.375 205.5625 554.375 198.4375 556.5 L 197.6875 557.5 L 197.0625 571.125 L 198.0625 571.625 C 202.4375 569.875 210.5625 566.625 218.9375 566.625 C 223.5625 566.625 225.4375 567.375 227.0625 569 C 228.3125 570.25 228.6875 572.5 228.6875 574.375 C 213.6875 576.375 206.6875 577.75 199.1875 582.375 C 192.1875 586.75 189.8125 593.875 189.8125 599.5 C 189.8125 612.875 199.4375 621.5 211.6875 621.5 C 221.0625 621.5 226.4375 617 229.0625 614.875 L 229.0625 619.5 L 229.8125 620.375 C 238.8125 620 241.5625 619.875 249.6875 620 L 250.3125 619.125 C 249.4375 606.875 249.4375 603.75 249.4375 592 L 249.5625 582.75 M 228.9375 602.625 C 226.3125 604.125 222.9375 605.875 218.8125 605.875 C 214.3125 605.875 210.5625 603.5 210.5625 598.25 C 210.5625 590 220.4375 588.625 228.9375 587.5 Z M 286.8125 619.125 C 286.1875 609.5 285.6875 602.125 285.6875 584.875 C 285.6875 574.25 285.9375 563.5 286.0625 552.875 L 285.1875 551.875 L 263.6875 555.625 L 262.9375 556.375 C 263.9375 565.875 264.3125 570.25 264.3125 588 C 264.3125 601.625 263.9375 609.25 263.5625 619.5 L 264.3125 620.375 C 273.3125 620 275.8125 619.875 285.9375 620 L 286.8125 619.125 M 284.8125 539.875 L 285.1875 522.875 L 284.4375 522.125 L 264.0625 524.625 L 263.3125 525.5 C 263.5625 530 263.6875 532.625 263.6875 535.625 C 263.6875 538 263.6875 540.5 263.5625 542.875 L 264.4375 543.625 C 272.9375 542.125 275.3125 541.875 284.1875 540.75 Z M 361.9375 619.125 C 361.3125 608.125 361.3125 604.625 361.0625 592.375 L 361.0625 582.625 C 360.9375 570.625 360.8125 564.875 357.6875 559.75 C 353.8125 553.25 346.6875 552.25 342.1875 552.25 C 334.5625 552.25 327.9375 556.25 322.1875 559.625 L 322.4375 552.75 L 321.1875 551.875 C 311.5625 553.875 309.4375 554.25 300.0625 555.5 L 299.3125 556.375 C 300.3125 567.25 301.0625 575.125 301.0625 595.5 C 301.0625 603.5 300.9375 611.5 300.8125 619.5 L 301.5625 620.25 C 310.5625 619.875 312.4375 619.875 322.4375 619.875 L 323.1875 619.125 C 322.4375 599.875 322.3125 595 322.1875 572.625 C 324.8125 570.875 327.8125 568.75 331.8125 568.75 C 338.6875 568.75 339.3125 576.125 339.6875 580.625 C 339.9375 584.75 340.0625 601.875 340.0625 606.625 C 340.0625 610.875 339.9375 615.25 339.9375 619.5 L 340.6875 620.25 C 348.9375 620 351.0625 619.875 361.0625 619.875 Z M 411.1875 605.625 C 409.0625 606.25 407.5625 606.75 405.4375 606.75 C 399.0625 606.75 398.5625 602.75 398.3125 600.875 C 397.9375 597.625 397.9375 590.75 398.0625 585.75 L 398.3125 568.125 L 409.5625 568.625 L 410.3125 567.875 L 411.5625 554.5 L 410.8125 553.75 L 398.3125 553.75 L 398.6875 532.75 L 397.8125 532 C 389.3125 534.5 387.0625 535.125 378.1875 537.375 L 377.6875 538.25 L 377.8125 553.875 L 371.0625 553.625 L 370.3125 554.25 L 369.1875 567.625 L 369.9375 568.375 L 377.8125 568.125 L 377.4375 588 C 377.3125 591.125 377.1875 594.25 377.1875 597.5 C 377.1875 609 377.4375 621.375 396.9375 621.375 C 401.8125 621.375 405.6875 620.625 410.0625 619.875 L 410.9375 619 L 412.1875 606.125 Z M 475.9375 601.5 C 471.1875 604 465.5625 606.875 456.4375 606.875 C 448.9375 606.875 443.8125 604.5 440.8125 600 C 438.9375 597.375 438.5625 594.875 438.0625 592.375 L 478.4375 591.625 L 479.1875 590.75 C 479.0625 584.625 478.9375 578.375 477.1875 572.125 C 472.8125 557.375 463.1875 554.375 458.9375 553.375 C 455.8125 552.5 452.9375 552.25 450.0625 552.25 C 430.4375 552.25 417.4375 565.125 417.4375 586.75 C 417.4375 592.625 418.4375 598.75 420.4375 603.125 C 427.6875 620 444.6875 621.5 453.6875 621.5 C 464.0625 621.5 468.5625 619.625 475.1875 617 L 475.9375 616 L 476.8125 601.875 L 475.9375 601.5 M 438.0625 579.125 C 438.4375 575.25 439.3125 570 444.0625 567 C 445.5625 566 447.3125 565.625 449.0625 565.625 C 453.1875 565.625 455.6875 567.75 457.0625 570 C 458.8125 572.75 458.9375 575.75 458.9375 578.625 Z M 551.9375 619.25 C 551.4375 608 551.0625 600.5 551.0625 584.125 C 551.0625 551.125 551.5625 537.5 552.0625 521 L 551.1875 520.25 L 530.5625 523.5 L 529.9375 524.25 C 530.6875 536 530.8125 539.125 530.6875 553.375 C 521.3125 553.125 509.5625 552.875 500.0625 560.375 C 491.3125 567.125 487.6875 577.5 487.6875 590.375 C 487.6875 600.125 490.3125 609.875 497.6875 616 C 503.1875 620.5 509.9375 621.5 514.0625 621.5 C 522.9375 621.5 527.5625 617.375 530.5625 614.75 L 530.3125 619.625 L 530.9375 620.375 C 539.5625 620 541.9375 620 551.3125 620 L 551.9375 619.25 M 530.6875 568.375 C 530.8125 585 530.6875 588.25 530.3125 603.375 C 527.8125 604.875 525.3125 606.375 521.8125 606.375 C 509.6875 606.375 509.6875 590.875 509.6875 588.375 C 509.6875 578.75 512.4375 568 526.4375 568 C 527.8125 568 528.9375 568.125 530.6875 568.375 Z M 667.5625 597.625 C 664.6875 599.875 658.3125 604.625 647.9375 604.625 C 633.6875 604.625 623.6875 594 623.6875 576.25 C 623.6875 565.5 627.4375 546.625 647.8125 546.625 C 657.1875 546.625 662.3125 550.25 665.4375 552.625 L 666.5625 552.375 L 667.6875 535.125 L 667.1875 534.5 C 662.6875 532.75 655.0625 529.875 644.0625 529.875 C 611.6875 529.875 600.4375 554.875 600.4375 576.75 C 600.4375 600.75 615.0625 621.875 645.5625 621.875 C 656.0625 621.875 662.9375 619.125 666.9375 617.5 L 667.5625 616.75 L 668.4375 598.125 Z M 733.8125 582.75 C 733.9375 571.5 733.9375 566.625 730.6875 561.375 C 728.1875 557.375 723.1875 552.375 707.1875 552.375 C 696.4375 552.375 689.8125 554.375 682.6875 556.5 L 681.9375 557.5 L 681.3125 571.125 L 682.3125 571.625 C 686.6875 569.875 694.8125 566.625 703.1875 566.625 C 707.8125 566.625 709.6875 567.375 711.3125 569 C 712.5625 570.25 712.9375 572.5 712.9375 574.375 C 697.9375 576.375 690.9375 577.75 683.4375 582.375 C 676.4375 586.75 674.0625 593.875 674.0625 599.5 C 674.0625 612.875 683.6875 621.5 695.9375 621.5 C 705.3125 621.5 710.6875 617 713.3125 614.875 L 713.3125 619.5 L 714.0625 620.375 C 723.0625 620 725.8125 619.875 733.9375 620 L 734.5625 619.125 C 733.6875 606.875 733.6875 603.75 733.6875 592 L 733.8125 582.75 M 713.1875 602.625 C 710.5625 604.125 707.1875 605.875 703.0625 605.875 C 698.5625 605.875 694.8125 603.5 694.8125 598.25 C 694.8125 590 704.6875 588.625 713.1875 587.5 Z M 782.9375 619 C 786.9375 606.5 789.3125 598.75 791.9375 590.875 C 795.3125 580.75 800.8125 564.5 804.3125 554.25 L 803.6875 553.375 L 786.1875 553.75 L 785.3125 554.625 C 783.5625 563 783.1875 564.75 780.6875 574.5 L 774.3125 599.125 L 771.1875 585.625 L 768.8125 576 C 765.6875 564.375 765.1875 562 763.4375 553.75 L 762.5625 553 C 752.6875 554.125 750.1875 554.25 740.6875 554.375 L 740.1875 555.375 C 756.8125 604.625 758.1875 609.25 760.9375 619.5 L 761.8125 620.375 C 769.9375 620 773.1875 619.875 782.1875 620 Z M 866.4375 601.5 C 861.6875 604 856.0625 606.875 846.9375 606.875 C 839.4375 606.875 834.3125 604.5 831.3125 600 C 829.4375 597.375 829.0625 594.875 828.5625 592.375 L 868.9375 591.625 L 869.6875 590.75 C 869.5625 584.625 869.4375 578.375 867.6875 572.125 C 863.3125 557.375 853.6875 554.375 849.4375 553.375 C 846.3125 552.5 843.4375 552.25 840.5625 552.25 C 820.9375 552.25 807.9375 565.125 807.9375 586.75 C 807.9375 592.625 808.9375 598.75 810.9375 603.125 C 818.1875 620 835.1875 621.5 844.1875 621.5 C 854.5625 621.5 859.0625 619.625 865.6875 617 L 866.4375 616 L 867.3125 601.875 L 866.4375 601.5 M 828.5625 579.125 C 828.9375 575.25 829.8125 570 834.5625 567 C 836.0625 566 837.8125 565.625 839.5625 565.625 C 843.6875 565.625 846.1875 567.75 847.5625 570 C 849.3125 572.75 849.4375 575.75 849.4375 578.625 Z M 873.6875 620 "/>
<path fill-rule="nonzero" fill="rgb(34.901961%, 14.901961%, 14.901961%)" fill-opacity="1" d="M 140.9375 716.25 C 130.4375 711.875 124.9375 709.625 124.9375 704 C 124.9375 700.125 128.5625 695.25 136.8125 695.25 C 146.3125 695.25 151.9375 699.125 156.5625 702.25 L 157.6875 701.75 L 158.6875 685.375 L 158.0625 684.5 C 152.6875 682.25 147.0625 679.875 134.9375 679.875 C 111.4375 679.875 103.3125 693.125 103.3125 706.5 C 103.3125 721.625 115.0625 727.125 122.0625 730.5 L 126.1875 732.375 C 134.8125 736 141.4375 739.125 141.4375 745.75 C 141.4375 750.5 137.3125 756.125 126.4375 756.125 C 115.0625 756.125 108.6875 751.125 105.0625 748.25 L 103.8125 748.625 L 102.9375 766.25 L 103.6875 767.25 C 105.0625 767.75 106.4375 768.375 107.8125 768.75 C 110.6875 769.75 118.0625 771.875 127.4375 771.875 C 131.1875 771.875 140.6875 771.5 148.1875 768 C 158.6875 762.875 163.1875 753.375 163.1875 742.75 C 163.1875 735.625 160.4375 728 153.8125 722.875 C 150.4375 720.375 147.1875 718.875 144.1875 717.5 Z M 210.0625 755.625 C 207.9375 756.25 206.4375 756.75 204.3125 756.75 C 197.9375 756.75 197.4375 752.75 197.1875 750.875 C 196.8125 747.625 196.8125 740.75 196.9375 735.75 L 197.1875 718.125 L 208.4375 718.625 L 209.1875 717.875 L 210.4375 704.5 L 209.6875 703.75 L 197.1875 703.75 L 197.5625 682.75 L 196.6875 682 C 188.1875 684.5 185.9375 685.125 177.0625 687.375 L 176.5625 688.25 L 176.6875 703.875 L 169.9375 703.625 L 169.1875 704.25 L 168.0625 717.625 L 168.8125 718.375 L 176.6875 718.125 L 176.3125 738 C 176.1875 741.125 176.0625 744.25 176.0625 747.5 C 176.0625 759 176.3125 771.375 195.8125 771.375 C 200.6875 771.375 204.5625 770.625 208.9375 769.875 L 209.8125 769 L 211.0625 756.125 Z M 274.9375 732.75 C 275.0625 721.5 275.0625 716.625 271.8125 711.375 C 269.3125 707.375 264.3125 702.375 248.3125 702.375 C 237.5625 702.375 230.9375 704.375 223.8125 706.5 L 223.0625 707.5 L 222.4375 721.125 L 223.4375 721.625 C 227.8125 719.875 235.9375 716.625 244.3125 716.625 C 248.9375 716.625 250.8125 717.375 252.4375 719 C 253.6875 720.25 254.0625 722.5 254.0625 724.375 C 239.0625 726.375 232.0625 727.75 224.5625 732.375 C 217.5625 736.75 215.1875 743.875 215.1875 749.5 C 215.1875 762.875 224.8125 771.5 237.0625 771.5 C 246.4375 771.5 251.8125 767 254.4375 764.875 L 254.4375 769.5 L 255.1875 770.375 C 264.1875 770 266.9375 769.875 275.0625 770 L 275.6875 769.125 C 274.8125 756.875 274.8125 753.75 274.8125 742 L 274.9375 732.75 M 254.3125 752.625 C 251.6875 754.125 248.3125 755.875 244.1875 755.875 C 239.6875 755.875 235.9375 753.5 235.9375 748.25 C 235.9375 740 245.8125 738.625 254.3125 737.5 Z M 324.5625 755.625 C 322.4375 756.25 320.9375 756.75 318.8125 756.75 C 312.4375 756.75 311.9375 752.75 311.6875 750.875 C 311.3125 747.625 311.3125 740.75 311.4375 735.75 L 311.6875 718.125 L 322.9375 718.625 L 323.6875 717.875 L 324.9375 704.5 L 324.1875 703.75 L 311.6875 703.75 L 312.0625 682.75 L 311.1875 682 C 302.6875 684.5 300.4375 685.125 291.5625 687.375 L 291.0625 688.25 L 291.1875 703.875 L 284.4375 703.625 L 283.6875 704.25 L 282.5625 717.625 L 283.3125 718.375 L 291.1875 718.125 L 290.8125 738 C 290.6875 741.125 290.5625 744.25 290.5625 747.5 C 290.5625 759 290.8125 771.375 310.3125 771.375 C 315.1875 771.375 319.0625 770.625 323.4375 769.875 L 324.3125 769 L 325.5625 756.125 Z M 389.3125 751.5 C 384.5625 754 378.9375 756.875 369.8125 756.875 C 362.3125 756.875 357.1875 754.5 354.1875 750 C 352.3125 747.375 351.9375 744.875 351.4375 742.375 L 391.8125 741.625 L 392.5625 740.75 C 392.4375 734.625 392.3125 728.375 390.5625 722.125 C 386.1875 707.375 376.5625 704.375 372.3125 703.375 C 369.1875 702.5 366.3125 702.25 363.4375 702.25 C 343.8125 702.25 330.8125 715.125 330.8125 736.75 C 330.8125 742.625 331.8125 748.75 333.8125 753.125 C 341.0625 770 358.0625 771.5 367.0625 771.5 C 377.4375 771.5 381.9375 769.625 388.5625 767 L 389.3125 766 L 390.1875 751.875 L 389.3125 751.5 M 351.4375 729.125 C 351.8125 725.25 352.6875 720 357.4375 717 C 358.9375 716 360.6875 715.625 362.4375 715.625 C 366.5625 715.625 369.0625 717.75 370.4375 720 C 372.1875 722.75 372.3125 725.75 372.3125 728.625 Z M 515.4375 681.375 C 505.4375 681.75 503.8125 681.75 493.3125 681.75 L 492.6875 682.5 C 493.5625 696.625 493.5625 700.25 493.6875 715 C 488.1875 715.125 482.6875 715.25 477.0625 715.25 C 472.6875 715.25 468.1875 715.125 463.8125 715.125 L 464.0625 682.125 L 463.4375 681.375 C 453.8125 681.75 451.9375 681.75 441.0625 681.75 L 440.3125 682.5 C 440.9375 695.375 441.6875 710.75 441.6875 741.75 C 441.6875 753 441.4375 759.125 441.1875 769.625 L 441.8125 770.375 C 450.9375 770 453.1875 769.875 464.1875 770 L 464.8125 769.25 C 464.0625 753.75 463.9375 749.25 463.8125 731.125 C 469.3125 730.875 473.9375 730.75 478.8125 730.75 C 483.8125 730.75 488.8125 730.875 493.8125 731 C 494.0625 747.875 494.0625 752 493.4375 769.625 L 494.0625 770.375 C 503.4375 770 505.9375 769.875 516.5625 770 L 517.1875 769.25 C 516.1875 748.25 515.8125 727.375 515.8125 706.375 C 515.8125 697.625 515.9375 691.75 516.0625 682.125 Z M 554.3125 769.125 C 553.6875 759.5 553.1875 752.125 553.1875 734.875 C 553.1875 724.25 553.4375 713.5 553.5625 702.875 L 552.6875 701.875 L 531.1875 705.625 L 530.4375 706.375 C 531.4375 715.875 531.8125 720.25 531.8125 738 C 531.8125 751.625 531.4375 759.25 531.0625 769.5 L 531.8125 770.375 C 540.8125 770 543.3125 769.875 553.4375 770 L 554.3125 769.125 M 552.3125 689.875 L 552.6875 672.875 L 551.9375 672.125 L 531.5625 674.625 L 530.8125 675.5 C 531.0625 680 531.1875 682.625 531.1875 685.625 C 531.1875 688 531.1875 690.5 531.0625 692.875 L 531.9375 693.625 C 540.4375 692.125 542.8125 691.875 551.6875 690.75 Z M 594.4375 726.875 C 590.1875 725.375 586.8125 724 586.8125 720.5 C 586.8125 719 587.8125 714.875 595.5625 714.875 C 603.1875 714.875 608.0625 718.125 611.1875 720.125 L 612.3125 719.75 L 613.5625 706.125 L 612.9375 705.375 C 607.0625 703.75 601.9375 702.25 593.8125 702.25 C 587.6875 702.25 575.4375 702.75 568.9375 712.125 C 567.3125 714.375 565.5625 718.125 565.5625 723.125 C 565.5625 736.5 575.9375 740.5 581.8125 742.75 L 586.5625 744.5 C 589.9375 745.625 595.4375 747.5 595.4375 752 C 595.4375 755.125 592.5625 758.5 585.5625 758.5 C 582.0625 758.5 576.9375 757.375 572.3125 755 C 570.1875 753.875 569.1875 753 567.3125 751.5 L 566.1875 752 C 565.9375 758.5 565.8125 759.875 565.3125 766.125 L 565.9375 767.25 C 572.0625 769.5 577.3125 771.5 586.4375 771.5 C 595.9375 771.5 614.6875 769.75 616.9375 751.875 C 617.0625 750.875 617.0625 750 617.0625 749.125 C 617.0625 735.375 607.4375 731.75 600.5625 729.125 Z M 663.0625 755.625 C 660.9375 756.25 659.4375 756.75 657.3125 756.75 C 650.9375 756.75 650.4375 752.75 650.1875 750.875 C 649.8125 747.625 649.8125 740.75 649.9375 735.75 L 650.1875 718.125 L 661.4375 718.625 L 662.1875 717.875 L 663.4375 704.5 L 662.6875 703.75 L 650.1875 703.75 L 650.5625 682.75 L 649.6875 682 C 641.1875 684.5 638.9375 685.125 630.0625 687.375 L 629.5625 688.25 L 629.6875 703.875 L 622.9375 703.625 L 622.1875 704.25 L 621.0625 717.625 L 621.8125 718.375 L 629.6875 718.125 L 629.3125 738 C 629.1875 741.125 629.0625 744.25 629.0625 747.5 C 629.0625 759 629.3125 771.375 648.8125 771.375 C 653.6875 771.375 657.5625 770.625 661.9375 769.875 L 662.8125 769 L 664.0625 756.125 Z M 735.9375 736.75 C 735.9375 731.875 735.9375 711.625 718.4375 704.75 C 712.9375 702.625 706.4375 702.375 703.1875 702.375 C 681.4375 702.375 669.1875 714 669.1875 737 C 669.1875 745 670.4375 753.125 675.0625 759.875 C 678.3125 764.75 684.4375 771.5 702.3125 771.5 C 728.8125 771.5 735.9375 755.5 735.9375 736.75 M 714.3125 736.625 C 714.3125 746.875 712.9375 758.25 702.5625 758.25 C 699.3125 758.25 697.0625 756.75 695.5625 755.375 C 693.4375 753.25 691.0625 749 691.0625 736.875 C 691.0625 733.25 691.0625 725.25 693.5625 720.875 C 695.4375 717.5 698.6875 715.25 702.6875 715.25 C 706.1875 715.25 709.0625 717.125 710.6875 719.125 C 713.6875 722.75 714.3125 729.875 714.3125 736.625 Z M 783.9375 723.625 L 787.4375 703.25 L 786.6875 702.375 C 785.8125 702.375 784.9375 702.25 784.0625 702.25 C 778.9375 702.25 773.1875 705.125 769.1875 714.375 L 769.5625 702.875 L 768.5625 701.875 C 759.3125 703.875 756.9375 704.25 747.8125 705.625 L 747.0625 706.375 C 747.8125 715.75 748.1875 721.375 748.1875 738.75 C 748.1875 749 748.0625 759.25 747.8125 769.625 L 748.5625 770.375 C 757.8125 770 759.8125 769.875 769.8125 770 L 770.4375 769.125 C 769.9375 759 769.1875 744.875 769.1875 736.25 C 769.1875 730.625 769.1875 722.375 777.6875 722.375 C 779.8125 722.375 781.0625 723.125 782.8125 724.125 Z M 817.3125 769.125 C 816.6875 759.5 816.1875 752.125 816.1875 734.875 C 816.1875 724.25 816.4375 713.5 816.5625 702.875 L 815.6875 701.875 L 794.1875 705.625 L 793.4375 706.375 C 794.4375 715.875 794.8125 720.25 794.8125 738 C 794.8125 751.625 794.4375 759.25 794.0625 769.5 L 794.8125 770.375 C 803.8125 770 806.3125 769.875 816.4375 770 L 817.3125 769.125 M 815.3125 689.875 L 815.6875 672.875 L 814.9375 672.125 L 794.5625 674.625 L 793.8125 675.5 C 794.0625 680 794.1875 682.625 794.1875 685.625 C 794.1875 688 794.1875 690.5 794.0625 692.875 L 794.9375 693.625 C 803.4375 692.125 805.8125 691.875 814.6875 690.75 Z M 880.0625 752 C 876.6875 754 873.4375 756 867.0625 756 C 852.9375 756 850.0625 744.25 850.0625 736.75 C 850.0625 727.625 854.0625 717.125 866.1875 717.125 C 871.6875 717.125 874.6875 719.125 878.4375 721.625 L 879.6875 721.25 C 880.1875 714.625 880.3125 712.875 881.3125 706.25 L 880.6875 705.5 C 875.1875 703.75 870.4375 702.25 863.1875 702.25 C 833.8125 702.25 828.0625 724.5 828.0625 737.25 C 828.0625 751.625 835.5625 771.125 863.6875 771.125 C 870.3125 771.125 874.5625 769.875 879.8125 768.375 L 880.5625 767.625 L 881.0625 752.625 Z M 883.5625 770 "/>
<path fill-rule="nonzero" fill="rgb(34.901961%, 14.901961%, 14.901961%)" fill-opacity="1" d="M 382.375 831.5 L 366.5 831.75 L 365.75 832.5 C 366.25 848.75 366.625 859.625 366.625 874 C 366.625 889.25 366.25 904.375 365.875 919.625 L 366.625 920.375 C 375.875 920 377.875 919.875 387.875 920 L 388.5 919.25 C 388 905.625 388 902.5 388 889.75 C 402 889.875 417 889.875 426 878.875 C 429.5 874.625 432.5 867.5 432.5 858.75 C 432.5 853.375 431.25 841.5 420.875 835.625 C 413.375 831.25 402.75 831.25 393.375 831.25 L 382.375 831.5 M 388 846.625 C 390.75 846.5 393.375 846.5 396.125 846.5 C 407.125 846.75 410.125 852.375 410.125 859.625 C 410.125 861.375 410.125 868.625 403.5 872.25 C 400.125 874.125 395.5 874.375 388 874.375 Z M 496.75 882.75 C 496.875 871.5 496.875 866.625 493.625 861.375 C 491.125 857.375 486.125 852.375 470.125 852.375 C 459.375 852.375 452.75 854.375 445.625 856.5 L 444.875 857.5 L 444.25 871.125 L 445.25 871.625 C 449.625 869.875 457.75 866.625 466.125 866.625 C 470.75 866.625 472.625 867.375 474.25 869 C 475.5 870.25 475.875 872.5 475.875 874.375 C 460.875 876.375 453.875 877.75 446.375 882.375 C 439.375 886.75 437 893.875 437 899.5 C 437 912.875 446.625 921.5 458.875 921.5 C 468.25 921.5 473.625 917 476.25 914.875 L 476.25 919.5 L 477 920.375 C 486 920 488.75 919.875 496.875 920 L 497.5 919.125 C 496.625 906.875 496.625 903.75 496.625 892 L 496.75 882.75 M 476.125 902.625 C 473.5 904.125 470.125 905.875 466 905.875 C 461.5 905.875 457.75 903.5 457.75 898.25 C 457.75 890 467.625 888.625 476.125 887.5 Z M 547.5 873.625 L 551 853.25 L 550.25 852.375 C 549.375 852.375 548.5 852.25 547.625 852.25 C 542.5 852.25 536.75 855.125 532.75 864.375 L 533.125 852.875 L 532.125 851.875 C 522.875 853.875 520.5 854.25 511.375 855.625 L 510.625 856.375 C 511.375 865.75 511.75 871.375 511.75 888.75 C 511.75 899 511.625 909.25 511.375 919.625 L 512.125 920.375 C 521.375 920 523.375 919.875 533.375 920 L 534 919.125 C 533.5 909 532.75 894.875 532.75 886.25 C 532.75 880.625 532.75 872.375 541.25 872.375 C 543.375 872.375 544.625 873.125 546.375 874.125 Z M 622.5 918.375 C 610.75 898.5 609.5 896.25 600 879.125 C 608.625 867.375 609.5 866.125 618.375 854.75 L 617.75 853.5 L 597.375 853.75 L 596.125 854.625 C 586.375 871.5 585.125 873.5 579.375 882.125 L 579.375 868.25 C 579.5 844.875 579.625 839.875 580.25 821 L 579.25 820.25 L 557.5 823.5 L 556.75 824.375 C 557.625 836.5 558 842.375 558.25 858.75 C 558.5 879 558.5 899.25 558.375 919.5 L 559.25 920.375 C 567.625 920 570 920 579.5 920 L 580.25 919.125 L 579.5 898 L 579.375 883.625 C 590.25 903.625 591.625 906.375 598 919.625 L 599.125 920.375 L 621.625 919.5 Z M 621 920 "/>
</svg>
