<?xml version="1.0" encoding="UTF-8"?>
<svg xmlns="http://www.w3.org/2000/svg" xmlns:xlink="http://www.w3.org/1999/xlink" width="975" height="1300" viewBox="0 0 975 1300">
<path fill-rule="nonzero" fill="rgb(34.901961%, 14.901961%, 14.901961%)" fill-opacity="1" d="M 304.625 531.375 C 291.625 531.75 289.5 531.75 275.625 531.75 L 274.875 532.5 L 269.125 552.75 L 264.125 570.875 L 258.25 592.625 L 252.75 570.25 L 249.25 556.125 L 243 532.125 L 242.375 531.375 C 229 531.75 226.75 531.75 212.75 531.75 L 212 532.5 C 210.75 569.875 210.25 579.5 207.5 619.625 L 208.125 620.375 C 216.125 620 218.5 619.875 225.75 620 L 226.5 619.25 L 226.875 595.375 L 227.625 571.125 L 228.125 547.5 L 233.625 569.625 L 238.375 587.375 L 246.75 619.625 L 247.5 620.375 C 255.25 620 257.375 619.875 266.125 620 L 266.875 619.25 L 274.125 592.625 L 279.125 574.375 L 286.125 548.125 L 286.125 570.5 L 286.375 589.625 L 286.375 619.625 L 287 620.375 C 295.625 620 299 619.875 308.625 620 L 309.25 619.25 C 308.5 605 307.625 590.625 307.125 576.25 C 306.75 568.375 306.5 560.5 306.125 552.625 C 305.5 541 305.375 539.5 305.375 532.125 Z M 379 582.75 C 379.125 571.5 379.125 566.625 375.875 561.375 C 373.375 557.375 368.375 552.375 352.375 552.375 C 341.625 552.375 335 554.375 327.875 556.5 L 327.125 557.5 L 326.5 571.125 L 327.5 571.625 C 331.875 569.875 340 566.625 348.375 566.625 C 353 566.625 354.875 567.375 356.5 569 C 357.75 570.25 358.125 572.5 358.125 574.375 C 343.125 576.375 336.125 577.75 328.625 582.375 C 321.625 586.75 319.25 593.875 319.25 599.5 C 319.25 612.875 328.875 621.5 341.125 621.5 C 350.5 621.5 355.875 617 358.5 614.875 L 358.5 619.5 L 359.25 620.375 C 368.25 620 371 619.875 379.125 620 L 379.75 619.125 C 378.875 606.875 378.875 603.75 378.875 592 L 379 582.75 M 358.375 602.625 C 355.75 604.125 352.375 605.875 348.25 605.875 C 343.75 605.875 340 603.5 340 598.25 C 340 590 349.875 588.625 358.375 587.5 Z M 454.875 619.125 C 454.25 608.125 454.25 604.625 454 592.375 L 454 582.625 C 453.875 570.625 453.75 564.875 450.625 559.75 C 446.75 553.25 439.625 552.25 435.125 552.25 C 427.5 552.25 420.875 556.25 415.125 559.625 L 415.375 552.75 L 414.125 551.875 C 404.5 553.875 402.375 554.25 393 555.5 L 392.25 556.375 C 393.25 567.25 394 575.125 394 595.5 C 394 603.5 393.875 611.5 393.75 619.5 L 394.5 620.25 C 403.5 619.875 405.375 619.875 415.375 619.875 L 416.125 619.125 C 415.375 599.875 415.25 595 415.125 572.625 C 417.75 570.875 420.75 568.75 424.75 568.75 C 431.625 568.75 432.25 576.125 432.625 580.625 C 432.875 584.75 433 601.875 433 606.625 C 433 610.875 432.875 615.25 432.875 619.5 L 433.625 620.25 C 441.875 620 444 619.875 454 619.875 Z M 530.375 619.25 C 529.875 608 529.5 600.5 529.5 584.125 C 529.5 551.125 530 537.5 530.5 521 L 529.625 520.25 L 509 523.5 L 508.375 524.25 C 509.125 536 509.25 539.125 509.125 553.375 C 499.75 553.125 488 552.875 478.5 560.375 C 469.75 567.125 466.125 577.5 466.125 590.375 C 466.125 600.125 468.75 609.875 476.125 616 C 481.625 620.5 488.375 621.5 492.5 621.5 C 501.375 621.5 506 617.375 509 614.75 L 508.75 619.625 L 509.375 620.375 C 518 620 520.375 620 529.75 620 L 530.375 619.25 M 509.125 568.375 C 509.25 585 509.125 588.25 508.75 603.375 C 506.25 604.875 503.75 606.375 500.25 606.375 C 488.125 606.375 488.125 590.875 488.125 588.375 C 488.125 578.75 490.875 568 504.875 568 C 506.25 568 507.375 568.125 509.125 568.375 Z M 600.25 582.75 C 600.375 571.5 600.375 566.625 597.125 561.375 C 594.625 557.375 589.625 552.375 573.625 552.375 C 562.875 552.375 556.25 554.375 549.125 556.5 L 548.375 557.5 L 547.75 571.125 L 548.75 571.625 C 553.125 569.875 561.25 566.625 569.625 566.625 C 574.25 566.625 576.125 567.375 577.75 569 C 579 570.25 579.375 572.5 579.375 574.375 C 564.375 576.375 557.375 577.75 549.875 582.375 C 542.875 586.75 540.5 593.875 540.5 599.5 C 540.5 612.875 550.125 621.5 562.375 621.5 C 571.75 621.5 577.125 617 579.75 614.875 L 579.75 619.5 L 580.5 620.375 C 589.5 620 592.25 619.875 600.375 620 L 601 619.125 C 600.125 606.875 600.125 603.75 600.125 592 L 600.25 582.75 M 579.625 602.625 C 577 604.125 573.625 605.875 569.5 605.875 C 565 605.875 561.25 603.5 561.25 598.25 C 561.25 590 571.125 588.625 579.625 587.5 Z M 636.875 619.125 C 636.25 604.75 635.625 591.625 635.625 552.125 C 635.625 540.25 635.75 534.625 636.25 521.125 L 635.375 520.25 L 614 523.625 L 613.5 524.375 C 614.75 539.625 614.875 543.75 615.125 564 C 615.25 571.375 615.25 578.75 615.25 586.125 C 615.25 599.625 615 607.125 614.5 619.5 L 615.25 620.375 C 623.625 620 627 619.875 636.125 620 Z M 707 582.75 C 707.125 571.5 707.125 566.625 703.875 561.375 C 701.375 557.375 696.375 552.375 680.375 552.375 C 669.625 552.375 663 554.375 655.875 556.5 L 655.125 557.5 L 654.5 571.125 L 655.5 571.625 C 659.875 569.875 668 566.625 676.375 566.625 C 681 566.625 682.875 567.375 684.5 569 C 685.75 570.25 686.125 572.5 686.125 574.375 C 671.125 576.375 664.125 577.75 656.625 582.375 C 649.625 586.75 647.25 593.875 647.25 599.5 C 647.25 612.875 656.875 621.5 669.125 621.5 C 678.5 621.5 683.875 617 686.5 614.875 L 686.5 619.5 L 687.25 620.375 C 696.25 620 699 619.875 707.125 620 L 707.75 619.125 C 706.875 606.875 706.875 603.75 706.875 592 L 707 582.75 M 686.375 602.625 C 683.75 604.125 680.375 605.875 676.25 605.875 C 671.75 605.875 668 603.5 668 598.25 C 668 590 677.875 588.625 686.375 587.5 Z M 777.5 553.375 L 760.125 553.75 L 759.125 554.625 C 757 563.25 756.5 565.125 753.5 574.875 L 750.25 585.625 L 747.5 595 L 745.125 586.125 L 741.5 572.875 L 736.5 553.875 L 735.5 553.125 C 725.75 553.875 723.625 554 713.375 554.25 L 712.75 555.125 C 717.25 567 728.875 598.375 736.625 622.375 C 731.5 635.375 730.5 637.625 724.875 650 L 725.5 651 C 728.625 650.875 732.125 650.75 735.375 650.75 C 738.5 650.75 741.75 650.875 744.875 650.875 L 745.75 650.125 C 752.625 623.125 756 612.625 772.5 569.125 C 774.375 564.125 776.25 559.25 778 554.375 Z M 776.625 620 "/>
<path fill-rule="nonzero" fill="rgb(34.901961%, 14.901961%, 14.901961%)" fill-opacity="1" d="M 190.125 716.25 C 179.625 711.875 174.125 709.625 174.125 704 C 174.125 700.125 177.75 695.25 186 695.25 C 195.5 695.25 201.125 699.125 205.75 702.25 L 206.875 701.75 L 207.875 685.375 L 207.25 684.5 C 201.875 682.25 196.25 679.875 184.125 679.875 C 160.625 679.875 152.5 693.125 152.5 706.5 C 152.5 721.625 164.25 727.125 171.25 730.5 L 175.375 732.375 C 184 736 190.625 739.125 190.625 745.75 C 190.625 750.5 186.5 756.125 175.625 756.125 C 164.25 756.125 157.875 751.125 154.25 748.25 L 153 748.625 L 152.125 766.25 L 152.875 767.25 C 154.25 767.75 155.625 768.375 157 768.75 C 159.875 769.75 167.25 771.875 176.625 771.875 C 180.375 771.875 189.875 771.5 197.375 768 C 207.875 762.875 212.375 753.375 212.375 742.75 C 212.375 735.625 209.625 728 203 722.875 C 199.625 720.375 196.375 718.875 193.375 717.5 Z M 259.25 755.625 C 257.125 756.25 255.625 756.75 253.5 756.75 C 247.125 756.75 246.625 752.75 246.375 750.875 C 246 747.625 246 740.75 246.125 735.75 L 246.375 718.125 L 257.625 718.625 L 258.375 717.875 L 259.625 704.5 L 258.875 703.75 L 246.375 703.75 L 246.75 682.75 L 245.875 682 C 237.375 684.5 235.125 685.125 226.25 687.375 L 225.75 688.25 L 225.875 703.875 L 219.125 703.625 L 218.375 704.25 L 217.25 717.625 L 218 718.375 L 225.875 718.125 L 225.5 738 C 225.375 741.125 225.25 744.25 225.25 747.5 C 225.25 759 225.5 771.375 245 771.375 C 249.875 771.375 253.75 770.625 258.125 769.875 L 259 769 L 260.25 756.125 Z M 324.125 732.75 C 324.25 721.5 324.25 716.625 321 711.375 C 318.5 707.375 313.5 702.375 297.5 702.375 C 286.75 702.375 280.125 704.375 273 706.5 L 272.25 707.5 L 271.625 721.125 L 272.625 721.625 C 277 719.875 285.125 716.625 293.5 716.625 C 298.125 716.625 300 717.375 301.625 719 C 302.875 720.25 303.25 722.5 303.25 724.375 C 288.25 726.375 281.25 727.75 273.75 732.375 C 266.75 736.75 264.375 743.875 264.375 749.5 C 264.375 762.875 274 771.5 286.25 771.5 C 295.625 771.5 301 767 303.625 764.875 L 303.625 769.5 L 304.375 770.375 C 313.375 770 316.125 769.875 324.25 770 L 324.875 769.125 C 324 756.875 324 753.75 324 742 L 324.125 732.75 M 303.5 752.625 C 300.875 754.125 297.5 755.875 293.375 755.875 C 288.875 755.875 285.125 753.5 285.125 748.25 C 285.125 740 295 738.625 303.5 737.5 Z M 373.75 755.625 C 371.625 756.25 370.125 756.75 368 756.75 C 361.625 756.75 361.125 752.75 360.875 750.875 C 360.5 747.625 360.5 740.75 360.625 735.75 L 360.875 718.125 L 372.125 718.625 L 372.875 717.875 L 374.125 704.5 L 373.375 703.75 L 360.875 703.75 L 361.25 682.75 L 360.375 682 C 351.875 684.5 349.625 685.125 340.75 687.375 L 340.25 688.25 L 340.375 703.875 L 333.625 703.625 L 332.875 704.25 L 331.75 717.625 L 332.5 718.375 L 340.375 718.125 L 340 738 C 339.875 741.125 339.75 744.25 339.75 747.5 C 339.75 759 340 771.375 359.5 771.375 C 364.375 771.375 368.25 770.625 372.625 769.875 L 373.5 769 L 374.75 756.125 Z M 438.5 751.5 C 433.75 754 428.125 756.875 419 756.875 C 411.5 756.875 406.375 754.5 403.375 750 C 401.5 747.375 401.125 744.875 400.625 742.375 L 441 741.625 L 441.75 740.75 C 441.625 734.625 441.5 728.375 439.75 722.125 C 435.375 707.375 425.75 704.375 421.5 703.375 C 418.375 702.5 415.5 702.25 412.625 702.25 C 393 702.25 380 715.125 380 736.75 C 380 742.625 381 748.75 383 753.125 C 390.25 770 407.25 771.5 416.25 771.5 C 426.625 771.5 431.125 769.625 437.75 767 L 438.5 766 L 439.375 751.875 L 438.5 751.5 M 400.625 729.125 C 401 725.25 401.875 720 406.625 717 C 408.125 716 409.875 715.625 411.625 715.625 C 415.75 715.625 418.25 717.75 419.625 720 C 421.375 722.75 421.5 725.75 421.5 728.625 Z M 513 770 C 524.625 770.25 539 770.5 548.375 764 C 556.625 758.125 558.875 749.875 558.875 742.875 C 558.875 734.875 555.5 727.5 548.375 724 C 546 722.75 543.25 722.25 540.625 721.75 C 544.875 720 549.875 717.75 553.125 711.125 C 554.5 708.25 555.125 705.25 555.125 702.375 C 555.125 698.375 554.125 692.875 550.125 688.375 C 544.875 682.75 536.75 681.25 524.5 681.25 C 520.25 681.25 512.625 681.375 508.375 681.5 L 490.875 681.75 L 490.125 682.5 C 490.625 694.5 490.75 699.125 490.75 716.375 C 490.75 734.125 490.625 751.75 490.375 769.5 L 491.25 770 L 513 770 M 512.125 732 C 521.625 731.75 527.125 731.75 530.75 733.875 C 534.375 736.125 535.75 740.125 535.75 744.125 C 535.75 749.75 532.625 753.25 528 754.875 C 524.25 756.125 517.5 756.125 512.125 756 L 512.125 732 M 512.125 695.25 C 514.75 695.25 518.25 695.125 520.375 695.125 C 527.125 695.125 533.25 697.5 533.25 705.625 C 533.25 712.25 528.375 715 526.875 715.75 C 523.75 717.125 517.125 717.125 512.125 717.125 Z M 626 751.5 C 621.25 754 615.625 756.875 606.5 756.875 C 599 756.875 593.875 754.5 590.875 750 C 589 747.375 588.625 744.875 588.125 742.375 L 628.5 741.625 L 629.25 740.75 C 629.125 734.625 629 728.375 627.25 722.125 C 622.875 707.375 613.25 704.375 609 703.375 C 605.875 702.5 603 702.25 600.125 702.25 C 580.5 702.25 567.5 715.125 567.5 736.75 C 567.5 742.625 568.5 748.75 570.5 753.125 C 577.75 770 594.75 771.5 603.75 771.5 C 614.125 771.5 618.625 769.625 625.25 767 L 626 766 L 626.875 751.875 L 626 751.5 M 588.125 729.125 C 588.5 725.25 589.375 720 594.125 717 C 595.625 716 597.375 715.625 599.125 715.625 C 603.25 715.625 605.75 717.75 607.125 720 C 608.875 722.75 609 725.75 609 728.625 Z M 696.375 732.75 C 696.5 721.5 696.5 716.625 693.25 711.375 C 690.75 707.375 685.75 702.375 669.75 702.375 C 659 702.375 652.375 704.375 645.25 706.5 L 644.5 707.5 L 643.875 721.125 L 644.875 721.625 C 649.25 719.875 657.375 716.625 665.75 716.625 C 670.375 716.625 672.25 717.375 673.875 719 C 675.125 720.25 675.5 722.5 675.5 724.375 C 660.5 726.375 653.5 727.75 646 732.375 C 639 736.75 636.625 743.875 636.625 749.5 C 636.625 762.875 646.25 771.5 658.5 771.5 C 667.875 771.5 673.25 767 675.875 764.875 L 675.875 769.5 L 676.625 770.375 C 685.625 770 688.375 769.875 696.5 770 L 697.125 769.125 C 696.25 756.875 696.25 753.75 696.25 742 L 696.375 732.75 M 675.75 752.625 C 673.125 754.125 669.75 755.875 665.625 755.875 C 661.125 755.875 657.375 753.5 657.375 748.25 C 657.375 740 667.25 738.625 675.75 737.5 Z M 759.875 752 C 756.5 754 753.25 756 746.875 756 C 732.75 756 729.875 744.25 729.875 736.75 C 729.875 727.625 733.875 717.125 746 717.125 C 751.5 717.125 754.5 719.125 758.25 721.625 L 759.5 721.25 C 760 714.625 760.125 712.875 761.125 706.25 L 760.5 705.5 C 755 703.75 750.25 702.25 743 702.25 C 713.625 702.25 707.875 724.5 707.875 737.25 C 707.875 751.625 715.375 771.125 743.5 771.125 C 750.125 771.125 754.375 769.875 759.625 768.375 L 760.375 767.625 L 760.875 752.625 Z M 832.125 769.125 C 831.625 758.875 831.5 755.375 831.25 742.375 L 831.25 733 C 831.125 721.125 831 714.25 827.375 709 C 823.75 703.875 818.5 702.25 813 702.25 C 803.875 702.25 796.75 706.625 791.75 709.625 L 792.125 671.125 L 791.375 670.25 L 770 673.625 L 769.375 674.375 C 770.5 686.5 770.75 691 771 707.125 C 771.25 717.25 771.375 727.375 771.375 737.5 C 771.375 749.875 771.125 757.25 770.875 769.5 L 771.5 770.375 C 780.75 769.875 782.625 769.875 792.75 769.875 L 793.5 769.125 C 792.625 750.375 792.5 744.75 792.375 722.625 C 794.75 721 797.75 718.875 802 718.875 C 808.875 718.875 809.375 726 809.875 731 C 810.125 734.875 810.25 752.625 810.25 757.25 C 810.25 761.375 810.125 765.375 810.125 769.5 L 810.75 770.375 C 819.75 769.875 821.75 769.875 831.375 769.875 Z M 838.875 770 "/>
</svg>
