<?xml version="1.0" encoding="UTF-8"?>
<svg xmlns="http://www.w3.org/2000/svg" xmlns:xlink="http://www.w3.org/1999/xlink" width="975" height="1300" viewBox="0 0 975 1300">
<path fill-rule="nonzero" fill="rgb(34.901961%, 14.901961%, 14.901961%)" fill-opacity="1" d="M 152.375 381.375 C 142 381.75 139.875 381.875 128.875 381.75 L 127.875 382.5 C 114.375 404.375 111.625 408.75 103 420.5 L 103.625 382.125 L 103 381.375 C 93.125 381.75 91.375 381.875 81.125 381.75 L 80.5 382.5 C 81.25 396.125 81.75 405.375 81.75 437.5 C 81.75 450.625 81.5 457.375 81.25 469.625 L 81.875 470.375 C 91.625 470 94.625 470 103.5 470 L 104.125 469.25 C 103.375 451.75 103.25 447.25 103.125 425.5 C 106.125 430 106.875 431 111.625 438.625 C 122.5 456.125 125.125 461.125 129.875 469.875 L 130.75 470.5 L 156.125 469.625 L 156.625 468.25 C 145.125 453.875 131.75 432.75 124.25 419.75 C 139.625 397.875 143.125 393.375 152.75 382.625 Z M 216.875 451.5 C 212.125 454 206.5 456.875 197.375 456.875 C 189.875 456.875 184.75 454.5 181.75 450 C 179.875 447.375 179.5 444.875 179 442.375 L 219.375 441.625 L 220.125 440.75 C 220 434.625 219.875 428.375 218.125 422.125 C 213.75 407.375 204.125 404.375 199.875 403.375 C 196.75 402.5 193.875 402.25 191 402.25 C 171.375 402.25 158.375 415.125 158.375 436.75 C 158.375 442.625 159.375 448.75 161.375 453.125 C 168.625 470 185.625 471.5 194.625 471.5 C 205 471.5 209.5 469.625 216.125 467 L 216.875 466 L 217.75 451.875 L 216.875 451.5 M 179 429.125 C 179.375 425.25 180.25 420 185 417 C 186.5 416 188.25 415.625 190 415.625 C 194.125 415.625 196.625 417.75 198 420 C 199.75 422.75 199.875 425.75 199.875 428.625 Z M 292.875 469.125 C 292.25 458.125 292.25 454.625 292 442.375 L 292 432.625 C 291.875 420.625 291.75 414.875 288.625 409.75 C 284.75 403.25 277.625 402.25 273.125 402.25 C 265.5 402.25 258.875 406.25 253.125 409.625 L 253.375 402.75 L 252.125 401.875 C 242.5 403.875 240.375 404.25 231 405.5 L 230.25 406.375 C 231.25 417.25 232 425.125 232 445.5 C 232 453.5 231.875 461.5 231.75 469.5 L 232.5 470.25 C 241.5 469.875 243.375 469.875 253.375 469.875 L 254.125 469.125 C 253.375 449.875 253.25 445 253.125 422.625 C 255.75 420.875 258.75 418.75 262.75 418.75 C 269.625 418.75 270.25 426.125 270.625 430.625 C 270.875 434.75 271 451.875 271 456.625 C 271 460.875 270.875 465.25 270.875 469.5 L 271.625 470.25 C 279.875 470 282 469.875 292 469.875 Z M 368.375 469.125 C 367.75 458.125 367.75 454.625 367.5 442.375 L 367.5 432.625 C 367.375 420.625 367.25 414.875 364.125 409.75 C 360.25 403.25 353.125 402.25 348.625 402.25 C 341 402.25 334.375 406.25 328.625 409.625 L 328.875 402.75 L 327.625 401.875 C 318 403.875 315.875 404.25 306.5 405.5 L 305.75 406.375 C 306.75 417.25 307.5 425.125 307.5 445.5 C 307.5 453.5 307.375 461.5 307.25 469.5 L 308 470.25 C 317 469.875 318.875 469.875 328.875 469.875 L 329.625 469.125 C 328.875 449.875 328.75 445 328.625 422.625 C 331.25 420.875 334.25 418.75 338.25 418.75 C 345.125 418.75 345.75 426.125 346.125 430.625 C 346.375 434.75 346.5 451.875 346.5 456.625 C 346.5 460.875 346.375 465.25 346.375 469.5 L 347.125 470.25 C 355.375 470 357.5 469.875 367.5 469.875 Z M 438.125 451.5 C 433.375 454 427.75 456.875 418.625 456.875 C 411.125 456.875 406 454.5 403 450 C 401.125 447.375 400.75 444.875 400.25 442.375 L 440.625 441.625 L 441.375 440.75 C 441.25 434.625 441.125 428.375 439.375 422.125 C 435 407.375 425.375 404.375 421.125 403.375 C 418 402.5 415.125 402.25 412.25 402.25 C 392.625 402.25 379.625 415.125 379.625 436.75 C 379.625 442.625 380.625 448.75 382.625 453.125 C 389.875 470 406.875 471.5 415.875 471.5 C 426.25 471.5 430.75 469.625 437.375 467 L 438.125 466 L 439 451.875 L 438.125 451.5 M 400.25 429.125 C 400.625 425.25 401.5 420 406.25 417 C 407.75 416 409.5 415.625 411.25 415.625 C 415.375 415.625 417.875 417.75 419.25 420 C 421 422.75 421.125 425.75 421.125 428.625 Z M 487.875 455.625 C 485.75 456.25 484.25 456.75 482.125 456.75 C 475.75 456.75 475.25 452.75 475 450.875 C 474.625 447.625 474.625 440.75 474.75 435.75 L 475 418.125 L 486.25 418.625 L 487 417.875 L 488.25 404.5 L 487.5 403.75 L 475 403.75 L 475.375 382.75 L 474.5 382 C 466 384.5 463.75 385.125 454.875 387.375 L 454.375 388.25 L 454.5 403.875 L 447.75 403.625 L 447 404.25 L 445.875 417.625 L 446.625 418.375 L 454.5 418.125 L 454.125 438 C 454 441.125 453.875 444.25 453.875 447.5 C 453.875 459 454.125 471.375 473.625 471.375 C 478.5 471.375 482.375 470.625 486.75 469.875 L 487.625 469 L 488.875 456.125 Z M 558.375 469.125 C 557.875 458.875 557.75 455.375 557.5 442.375 L 557.5 433 C 557.375 421.125 557.25 414.25 553.625 409 C 550 403.875 544.75 402.25 539.25 402.25 C 530.125 402.25 523 406.625 518 409.625 L 518.375 371.125 L 517.625 370.25 L 496.25 373.625 L 495.625 374.375 C 496.75 386.5 497 391 497.25 407.125 C 497.5 417.25 497.625 427.375 497.625 437.5 C 497.625 449.875 497.375 457.25 497.125 469.5 L 497.75 470.375 C 507 469.875 508.875 469.875 519 469.875 L 519.75 469.125 C 518.875 450.375 518.75 444.75 518.625 422.625 C 521 421 524 418.875 528.25 418.875 C 535.125 418.875 535.625 426 536.125 431 C 536.375 434.875 536.5 452.625 536.5 457.25 C 536.5 461.375 536.375 465.375 536.375 469.5 L 537 470.375 C 546 469.875 548 469.875 557.625 469.875 Z M 684 381.375 C 674 381.75 672.375 381.75 661.875 381.75 L 661.25 382.5 C 662.125 396.625 662.125 400.25 662.25 415 C 656.75 415.125 651.25 415.25 645.625 415.25 C 641.25 415.25 636.75 415.125 632.375 415.125 L 632.625 382.125 L 632 381.375 C 622.375 381.75 620.5 381.75 609.625 381.75 L 608.875 382.5 C 609.5 395.375 610.25 410.75 610.25 441.75 C 610.25 453 610 459.125 609.75 469.625 L 610.375 470.375 C 619.5 470 621.75 469.875 632.75 470 L 633.375 469.25 C 632.625 453.75 632.5 449.25 632.375 431.125 C 637.875 430.875 642.5 430.75 647.375 430.75 C 652.375 430.75 657.375 430.875 662.375 431 C 662.625 447.875 662.625 452 662 469.625 L 662.625 470.375 C 672 470 674.5 469.875 685.125 470 L 685.75 469.25 C 684.75 448.25 684.375 427.375 684.375 406.375 C 684.375 397.625 684.5 391.75 684.625 382.125 Z M 755.875 432.75 C 756 421.5 756 416.625 752.75 411.375 C 750.25 407.375 745.25 402.375 729.25 402.375 C 718.5 402.375 711.875 404.375 704.75 406.5 L 704 407.5 L 703.375 421.125 L 704.375 421.625 C 708.75 419.875 716.875 416.625 725.25 416.625 C 729.875 416.625 731.75 417.375 733.375 419 C 734.625 420.25 735 422.5 735 424.375 C 720 426.375 713 427.75 705.5 432.375 C 698.5 436.75 696.125 443.875 696.125 449.5 C 696.125 462.875 705.75 471.5 718 471.5 C 727.375 471.5 732.75 467 735.375 464.875 L 735.375 469.5 L 736.125 470.375 C 745.125 470 747.875 469.875 756 470 L 756.625 469.125 C 755.75 456.875 755.75 453.75 755.75 442 L 755.875 432.75 M 735.25 452.625 C 732.625 454.125 729.25 455.875 725.125 455.875 C 720.625 455.875 716.875 453.5 716.875 448.25 C 716.875 440 726.75 438.625 735.25 437.5 Z M 831.75 469.125 C 831.25 458.875 831.125 455.375 830.875 442.375 L 830.875 433 C 830.75 421.125 830.625 414.25 827 409 C 823.375 403.875 818.125 402.25 812.625 402.25 C 803.5 402.25 796.375 406.625 791.375 409.625 L 791.75 371.125 L 791 370.25 L 769.625 373.625 L 769 374.375 C 770.125 386.5 770.375 391 770.625 407.125 C 770.875 417.25 771 427.375 771 437.5 C 771 449.875 770.75 457.25 770.5 469.5 L 771.125 470.375 C 780.375 469.875 782.25 469.875 792.375 469.875 L 793.125 469.125 C 792.25 450.375 792.125 444.75 792 422.625 C 794.375 421 797.375 418.875 801.625 418.875 C 808.5 418.875 809 426 809.5 431 C 809.75 434.875 809.875 452.625 809.875 457.25 C 809.875 461.375 809.75 465.375 809.75 469.5 L 810.375 470.375 C 819.375 469.875 821.375 469.875 831 469.875 Z M 907.25 469.125 C 906.625 458.125 906.625 454.625 906.375 442.375 L 906.375 432.625 C 906.25 420.625 906.125 414.875 903 409.75 C 899.125 403.25 892 402.25 887.5 402.25 C 879.875 402.25 873.25 406.25 867.5 409.625 L 867.75 402.75 L 866.5 401.875 C 856.875 403.875 854.75 404.25 845.375 405.5 L 844.625 406.375 C 845.625 417.25 846.375 425.125 846.375 445.5 C 846.375 453.5 846.25 461.5 846.125 469.5 L 846.875 470.25 C 855.875 469.875 857.75 469.875 867.75 469.875 L 868.5 469.125 C 867.75 449.875 867.625 445 867.5 422.625 C 870.125 420.875 873.125 418.75 877.125 418.75 C 884 418.75 884.625 426.125 885 430.625 C 885.25 434.75 885.375 451.875 885.375 456.625 C 885.375 460.875 885.25 465.25 885.25 469.5 L 886 470.25 C 894.25 470 896.375 469.875 906.375 469.875 Z M 914 470 "/>
<path fill-rule="nonzero" fill="rgb(34.901961%, 14.901961%, 14.901961%)" fill-opacity="1" d="M 385.3125 566.25 C 374.8125 561.875 369.3125 559.625 369.3125 554 C 369.3125 550.125 372.9375 545.25 381.1875 545.25 C 390.6875 545.25 396.3125 549.125 400.9375 552.25 L 402.0625 551.75 L 403.0625 535.375 L 402.4375 534.5 C 397.0625 532.25 391.4375 529.875 379.3125 529.875 C 355.8125 529.875 347.6875 543.125 347.6875 556.5 C 347.6875 571.625 359.4375 577.125 366.4375 580.5 L 370.5625 582.375 C 379.1875 586 385.8125 589.125 385.8125 595.75 C 385.8125 600.5 381.6875 606.125 370.8125 606.125 C 359.4375 606.125 353.0625 601.125 349.4375 598.25 L 348.1875 598.625 L 347.3125 616.25 L 348.0625 617.25 C 349.4375 617.75 350.8125 618.375 352.1875 618.75 C 355.0625 619.75 362.4375 621.875 371.8125 621.875 C 375.5625 621.875 385.0625 621.5 392.5625 618 C 403.0625 612.875 407.5625 603.375 407.5625 592.75 C 407.5625 585.625 404.8125 578 398.1875 572.875 C 394.8125 570.375 391.5625 568.875 388.5625 567.5 Z M 454.4375 605.625 C 452.3125 606.25 450.8125 606.75 448.6875 606.75 C 442.3125 606.75 441.8125 602.75 441.5625 600.875 C 441.1875 597.625 441.1875 590.75 441.3125 585.75 L 441.5625 568.125 L 452.8125 568.625 L 453.5625 567.875 L 454.8125 554.5 L 454.0625 553.75 L 441.5625 553.75 L 441.9375 532.75 L 441.0625 532 C 432.5625 534.5 430.3125 535.125 421.4375 537.375 L 420.9375 538.25 L 421.0625 553.875 L 414.3125 553.625 L 413.5625 554.25 L 412.4375 567.625 L 413.1875 568.375 L 421.0625 568.125 L 420.6875 588 C 420.5625 591.125 420.4375 594.25 420.4375 597.5 C 420.4375 609 420.6875 621.375 440.1875 621.375 C 445.0625 621.375 448.9375 620.625 453.3125 619.875 L 454.1875 619 L 455.4375 606.125 Z M 519.3125 582.75 C 519.4375 571.5 519.4375 566.625 516.1875 561.375 C 513.6875 557.375 508.6875 552.375 492.6875 552.375 C 481.9375 552.375 475.3125 554.375 468.1875 556.5 L 467.4375 557.5 L 466.8125 571.125 L 467.8125 571.625 C 472.1875 569.875 480.3125 566.625 488.6875 566.625 C 493.3125 566.625 495.1875 567.375 496.8125 569 C 498.0625 570.25 498.4375 572.5 498.4375 574.375 C 483.4375 576.375 476.4375 577.75 468.9375 582.375 C 461.9375 586.75 459.5625 593.875 459.5625 599.5 C 459.5625 612.875 469.1875 621.5 481.4375 621.5 C 490.8125 621.5 496.1875 617 498.8125 614.875 L 498.8125 619.5 L 499.5625 620.375 C 508.5625 620 511.3125 619.875 519.4375 620 L 520.0625 619.125 C 519.1875 606.875 519.1875 603.75 519.1875 592 L 519.3125 582.75 M 498.6875 602.625 C 496.0625 604.125 492.6875 605.875 488.5625 605.875 C 484.0625 605.875 480.3125 603.5 480.3125 598.25 C 480.3125 590 490.1875 588.625 498.6875 587.5 Z M 568.9375 605.625 C 566.8125 606.25 565.3125 606.75 563.1875 606.75 C 556.8125 606.75 556.3125 602.75 556.0625 600.875 C 555.6875 597.625 555.6875 590.75 555.8125 585.75 L 556.0625 568.125 L 567.3125 568.625 L 568.0625 567.875 L 569.3125 554.5 L 568.5625 553.75 L 556.0625 553.75 L 556.4375 532.75 L 555.5625 532 C 547.0625 534.5 544.8125 535.125 535.9375 537.375 L 535.4375 538.25 L 535.5625 553.875 L 528.8125 553.625 L 528.0625 554.25 L 526.9375 567.625 L 527.6875 568.375 L 535.5625 568.125 L 535.1875 588 C 535.0625 591.125 534.9375 594.25 534.9375 597.5 C 534.9375 609 535.1875 621.375 554.6875 621.375 C 559.5625 621.375 563.4375 620.625 567.8125 619.875 L 568.6875 619 L 569.9375 606.125 Z M 633.6875 601.5 C 628.9375 604 623.3125 606.875 614.1875 606.875 C 606.6875 606.875 601.5625 604.5 598.5625 600 C 596.6875 597.375 596.3125 594.875 595.8125 592.375 L 636.1875 591.625 L 636.9375 590.75 C 636.8125 584.625 636.6875 578.375 634.9375 572.125 C 630.5625 557.375 620.9375 554.375 616.6875 553.375 C 613.5625 552.5 610.6875 552.25 607.8125 552.25 C 588.1875 552.25 575.1875 565.125 575.1875 586.75 C 575.1875 592.625 576.1875 598.75 578.1875 603.125 C 585.4375 620 602.4375 621.5 611.4375 621.5 C 621.8125 621.5 626.3125 619.625 632.9375 617 L 633.6875 616 L 634.5625 601.875 L 633.6875 601.5 M 595.8125 579.125 C 596.1875 575.25 597.0625 570 601.8125 567 C 603.3125 566 605.0625 565.625 606.8125 565.625 C 610.9375 565.625 613.4375 567.75 614.8125 570 C 616.5625 572.75 616.6875 575.75 616.6875 578.625 Z M 640.9375 620 "/>
<path fill-rule="nonzero" fill="rgb(34.901961%, 14.901961%, 14.901961%)" fill-opacity="1" d="M 215.6875 735.625 C 224.0625 749.875 225.9375 753.625 233.9375 770 L 234.9375 770.625 C 238.8125 770.375 242.5625 770.125 246.4375 770 C 250.3125 769.875 254.3125 769.75 258.1875 769.75 L 258.9375 768.25 C 254.1875 762.125 252.8125 760.25 243.8125 745.875 C 239.8125 739.5 237.8125 736.125 234.6875 730.625 C 240.3125 728.125 251.6875 722.875 251.6875 707 C 251.6875 701.5 250.1875 690.125 239.9375 684.75 C 233.4375 681.375 226.6875 681.25 212.0625 681.5 L 203.3125 681.625 L 188.0625 681.625 L 187.4375 682.375 C 187.9375 695 188.4375 708 188.4375 742 C 188.4375 753.625 188.3125 759.25 187.9375 769.625 L 188.6875 770.375 C 197.8125 770 199.8125 769.875 210.0625 770 L 210.8125 769.25 C 209.8125 754.75 209.6875 750.75 209.5625 735.875 L 215.6875 735.625 M 209.8125 696.75 C 211.5625 696.625 213.3125 696.625 215.0625 696.625 C 219.9375 696.625 229.5625 696.625 229.5625 707.625 C 229.5625 711.125 228.6875 715.75 224.0625 718.625 C 220.5625 720.75 216.0625 721 209.8125 721.125 Z M 321.0625 751.5 C 316.3125 754 310.6875 756.875 301.5625 756.875 C 294.0625 756.875 288.9375 754.5 285.9375 750 C 284.0625 747.375 283.6875 744.875 283.1875 742.375 L 323.5625 741.625 L 324.3125 740.75 C 324.1875 734.625 324.0625 728.375 322.3125 722.125 C 317.9375 707.375 308.3125 704.375 304.0625 703.375 C 300.9375 702.5 298.0625 702.25 295.1875 702.25 C 275.5625 702.25 262.5625 715.125 262.5625 736.75 C 262.5625 742.625 263.5625 748.75 265.5625 753.125 C 272.8125 770 289.8125 771.5 298.8125 771.5 C 309.1875 771.5 313.6875 769.625 320.3125 767 L 321.0625 766 L 321.9375 751.875 L 321.0625 751.5 M 283.1875 729.125 C 283.5625 725.25 284.4375 720 289.1875 717 C 290.6875 716 292.4375 715.625 294.1875 715.625 C 298.3125 715.625 300.8125 717.75 302.1875 720 C 303.9375 722.75 304.0625 725.75 304.0625 728.625 Z M 384.6875 752 C 381.3125 754 378.0625 756 371.6875 756 C 357.5625 756 354.6875 744.25 354.6875 736.75 C 354.6875 727.625 358.6875 717.125 370.8125 717.125 C 376.3125 717.125 379.3125 719.125 383.0625 721.625 L 384.3125 721.25 C 384.8125 714.625 384.9375 712.875 385.9375 706.25 L 385.3125 705.5 C 379.8125 703.75 375.0625 702.25 367.8125 702.25 C 338.4375 702.25 332.6875 724.5 332.6875 737.25 C 332.6875 751.625 340.1875 771.125 368.3125 771.125 C 374.9375 771.125 379.1875 769.875 384.4375 768.375 L 385.1875 767.625 L 385.6875 752.625 Z M 431.8125 723.625 L 435.3125 703.25 L 434.5625 702.375 C 433.6875 702.375 432.8125 702.25 431.9375 702.25 C 426.8125 702.25 421.0625 705.125 417.0625 714.375 L 417.4375 702.875 L 416.4375 701.875 C 407.1875 703.875 404.8125 704.25 395.6875 705.625 L 394.9375 706.375 C 395.6875 715.75 396.0625 721.375 396.0625 738.75 C 396.0625 749 395.9375 759.25 395.6875 769.625 L 396.4375 770.375 C 405.6875 770 407.6875 769.875 417.6875 770 L 418.3125 769.125 C 417.8125 759 417.0625 744.875 417.0625 736.25 C 417.0625 730.625 417.0625 722.375 425.5625 722.375 C 427.6875 722.375 428.9375 723.125 430.6875 724.125 Z M 498.0625 751.5 C 493.3125 754 487.6875 756.875 478.5625 756.875 C 471.0625 756.875 465.9375 754.5 462.9375 750 C 461.0625 747.375 460.6875 744.875 460.1875 742.375 L 500.5625 741.625 L 501.3125 740.75 C 501.1875 734.625 501.0625 728.375 499.3125 722.125 C 494.9375 707.375 485.3125 704.375 481.0625 703.375 C 477.9375 702.5 475.0625 702.25 472.1875 702.25 C 452.5625 702.25 439.5625 715.125 439.5625 736.75 C 439.5625 742.625 440.5625 748.75 442.5625 753.125 C 449.8125 770 466.8125 771.5 475.8125 771.5 C 486.1875 771.5 490.6875 769.625 497.3125 767 L 498.0625 766 L 498.9375 751.875 L 498.0625 751.5 M 460.1875 729.125 C 460.5625 725.25 461.4375 720 466.1875 717 C 467.6875 716 469.4375 715.625 471.1875 715.625 C 475.3125 715.625 477.8125 717.75 479.1875 720 C 480.9375 722.75 481.0625 725.75 481.0625 728.625 Z M 568.4375 732.75 C 568.5625 721.5 568.5625 716.625 565.3125 711.375 C 562.8125 707.375 557.8125 702.375 541.8125 702.375 C 531.0625 702.375 524.4375 704.375 517.3125 706.5 L 516.5625 707.5 L 515.9375 721.125 L 516.9375 721.625 C 521.3125 719.875 529.4375 716.625 537.8125 716.625 C 542.4375 716.625 544.3125 717.375 545.9375 719 C 547.1875 720.25 547.5625 722.5 547.5625 724.375 C 532.5625 726.375 525.5625 727.75 518.0625 732.375 C 511.0625 736.75 508.6875 743.875 508.6875 749.5 C 508.6875 762.875 518.3125 771.5 530.5625 771.5 C 539.9375 771.5 545.3125 767 547.9375 764.875 L 547.9375 769.5 L 548.6875 770.375 C 557.6875 770 560.4375 769.875 568.5625 770 L 569.1875 769.125 C 568.3125 756.875 568.3125 753.75 568.3125 742 L 568.4375 732.75 M 547.8125 752.625 C 545.1875 754.125 541.8125 755.875 537.6875 755.875 C 533.1875 755.875 529.4375 753.5 529.4375 748.25 C 529.4375 740 539.3125 738.625 547.8125 737.5 Z M 618.0625 755.625 C 615.9375 756.25 614.4375 756.75 612.3125 756.75 C 605.9375 756.75 605.4375 752.75 605.1875 750.875 C 604.8125 747.625 604.8125 740.75 604.9375 735.75 L 605.1875 718.125 L 616.4375 718.625 L 617.1875 717.875 L 618.4375 704.5 L 617.6875 703.75 L 605.1875 703.75 L 605.5625 682.75 L 604.6875 682 C 596.1875 684.5 593.9375 685.125 585.0625 687.375 L 584.5625 688.25 L 584.6875 703.875 L 577.9375 703.625 L 577.1875 704.25 L 576.0625 717.625 L 576.8125 718.375 L 584.6875 718.125 L 584.3125 738 C 584.1875 741.125 584.0625 744.25 584.0625 747.5 C 584.0625 759 584.3125 771.375 603.8125 771.375 C 608.6875 771.375 612.5625 770.625 616.9375 769.875 L 617.8125 769 L 619.0625 756.125 Z M 649.9375 769.125 C 649.3125 759.5 648.8125 752.125 648.8125 734.875 C 648.8125 724.25 649.0625 713.5 649.1875 702.875 L 648.3125 701.875 L 626.8125 705.625 L 626.0625 706.375 C 627.0625 715.875 627.4375 720.25 627.4375 738 C 627.4375 751.625 627.0625 759.25 626.6875 769.5 L 627.4375 770.375 C 636.4375 770 638.9375 769.875 649.0625 770 L 649.9375 769.125 M 647.9375 689.875 L 648.3125 672.875 L 647.5625 672.125 L 627.1875 674.625 L 626.4375 675.5 C 626.6875 680 626.8125 682.625 626.8125 685.625 C 626.8125 688 626.8125 690.5 626.6875 692.875 L 627.5625 693.625 C 636.0625 692.125 638.4375 691.875 647.3125 690.75 Z M 727.4375 736.75 C 727.4375 731.875 727.4375 711.625 709.9375 704.75 C 704.4375 702.625 697.9375 702.375 694.6875 702.375 C 672.9375 702.375 660.6875 714 660.6875 737 C 660.6875 745 661.9375 753.125 666.5625 759.875 C 669.8125 764.75 675.9375 771.5 693.8125 771.5 C 720.3125 771.5 727.4375 755.5 727.4375 736.75 M 705.8125 736.625 C 705.8125 746.875 704.4375 758.25 694.0625 758.25 C 690.8125 758.25 688.5625 756.75 687.0625 755.375 C 684.9375 753.25 682.5625 749 682.5625 736.875 C 682.5625 733.25 682.5625 725.25 685.0625 720.875 C 686.9375 717.5 690.1875 715.25 694.1875 715.25 C 697.6875 715.25 700.5625 717.125 702.1875 719.125 C 705.1875 722.75 705.8125 729.875 705.8125 736.625 Z M 800.5625 769.125 C 799.9375 758.125 799.9375 754.625 799.6875 742.375 L 799.6875 732.625 C 799.5625 720.625 799.4375 714.875 796.3125 709.75 C 792.4375 703.25 785.3125 702.25 780.8125 702.25 C 773.1875 702.25 766.5625 706.25 760.8125 709.625 L 761.0625 702.75 L 759.8125 701.875 C 750.1875 703.875 748.0625 704.25 738.6875 705.5 L 737.9375 706.375 C 738.9375 717.25 739.6875 725.125 739.6875 745.5 C 739.6875 753.5 739.5625 761.5 739.4375 769.5 L 740.1875 770.25 C 749.1875 769.875 751.0625 769.875 761.0625 769.875 L 761.8125 769.125 C 761.0625 749.875 760.9375 745 760.8125 722.625 C 763.4375 720.875 766.4375 718.75 770.4375 718.75 C 777.3125 718.75 777.9375 726.125 778.3125 730.625 C 778.5625 734.75 778.6875 751.875 778.6875 756.625 C 778.6875 760.875 778.5625 765.25 778.5625 769.5 L 779.3125 770.25 C 787.5625 770 789.6875 769.875 799.6875 769.875 Z M 807.3125 770 "/>
<path fill-rule="nonzero" fill="rgb(34.901961%, 14.901961%, 14.901961%)" fill-opacity="1" d="M 412.4375 831.375 C 400.4375 831.75 397.9375 831.75 384.5625 831.75 L 383.6875 832.5 C 377.0625 853.75 373.0625 866.375 354.6875 919.125 L 355.1875 920 L 374.6875 920 L 375.5625 919.25 L 381.6875 896.5 L 408.6875 896.5 L 414.0625 919.625 L 414.9375 920.375 C 424.0625 920 426.5625 919.875 436.6875 920 L 437.3125 919 C 422.1875 865.5 420.4375 859.625 413.3125 832.125 L 412.4375 831.375 M 386.0625 881.375 L 392.3125 860.25 L 396.6875 845.625 L 400.4375 861.875 L 405.0625 881.375 Z M 481.4375 873.625 L 484.9375 853.25 L 484.1875 852.375 C 483.3125 852.375 482.4375 852.25 481.5625 852.25 C 476.4375 852.25 470.6875 855.125 466.6875 864.375 L 467.0625 852.875 L 466.0625 851.875 C 456.8125 853.875 454.4375 854.25 445.3125 855.625 L 444.5625 856.375 C 445.3125 865.75 445.6875 871.375 445.6875 888.75 C 445.6875 899 445.5625 909.25 445.3125 919.625 L 446.0625 920.375 C 455.3125 920 457.3125 919.875 467.3125 920 L 467.9375 919.125 C 467.4375 909 466.6875 894.875 466.6875 886.25 C 466.6875 880.625 466.6875 872.375 475.1875 872.375 C 477.3125 872.375 478.5625 873.125 480.3125 874.125 Z M 547.6875 901.5 C 542.9375 904 537.3125 906.875 528.1875 906.875 C 520.6875 906.875 515.5625 904.5 512.5625 900 C 510.6875 897.375 510.3125 894.875 509.8125 892.375 L 550.1875 891.625 L 550.9375 890.75 C 550.8125 884.625 550.6875 878.375 548.9375 872.125 C 544.5625 857.375 534.9375 854.375 530.6875 853.375 C 527.5625 852.5 524.6875 852.25 521.8125 852.25 C 502.1875 852.25 489.1875 865.125 489.1875 886.75 C 489.1875 892.625 490.1875 898.75 492.1875 903.125 C 499.4375 920 516.4375 921.5 525.4375 921.5 C 535.8125 921.5 540.3125 919.625 546.9375 917 L 547.6875 916 L 548.5625 901.875 L 547.6875 901.5 M 509.8125 879.125 C 510.1875 875.25 511.0625 870 515.8125 867 C 517.3125 866 519.0625 865.625 520.8125 865.625 C 524.9375 865.625 527.4375 867.75 528.8125 870 C 530.5625 872.75 530.6875 875.75 530.6875 878.625 Z M 618.0625 882.75 C 618.1875 871.5 618.1875 866.625 614.9375 861.375 C 612.4375 857.375 607.4375 852.375 591.4375 852.375 C 580.6875 852.375 574.0625 854.375 566.9375 856.5 L 566.1875 857.5 L 565.5625 871.125 L 566.5625 871.625 C 570.9375 869.875 579.0625 866.625 587.4375 866.625 C 592.0625 866.625 593.9375 867.375 595.5625 869 C 596.8125 870.25 597.1875 872.5 597.1875 874.375 C 582.1875 876.375 575.1875 877.75 567.6875 882.375 C 560.6875 886.75 558.3125 893.875 558.3125 899.5 C 558.3125 912.875 567.9375 921.5 580.1875 921.5 C 589.5625 921.5 594.9375 917 597.5625 914.875 L 597.5625 919.5 L 598.3125 920.375 C 607.3125 920 610.0625 919.875 618.1875 920 L 618.8125 919.125 C 617.9375 906.875 617.9375 903.75 617.9375 892 L 618.0625 882.75 M 597.4375 902.625 C 594.8125 904.125 591.4375 905.875 587.3125 905.875 C 582.8125 905.875 579.0625 903.5 579.0625 898.25 C 579.0625 890 588.9375 888.625 597.4375 887.5 Z M 625.1875 920 "/>
</svg>
