<?xml version="1.0" encoding="UTF-8"?>
<svg xmlns="http://www.w3.org/2000/svg" xmlns:xlink="http://www.w3.org/1999/xlink" width="975" height="1300" viewBox="0 0 975 1300">
<path fill-rule="nonzero" fill="rgb(34.901961%, 14.901961%, 14.901961%)" fill-opacity="1" d="M 192.4375 381.5 L 176.5625 381.75 L 175.8125 382.5 C 176.3125 398.75 176.6875 409.625 176.6875 424 C 176.6875 439.25 176.3125 454.375 175.9375 469.625 L 176.6875 470.375 C 185.9375 470 187.9375 469.875 197.9375 470 L 198.5625 469.25 C 198.0625 455.625 198.0625 452.5 198.0625 439.75 C 212.0625 439.875 227.0625 439.875 236.0625 428.875 C 239.5625 424.625 242.5625 417.5 242.5625 408.75 C 242.5625 403.375 241.3125 391.5 230.9375 385.625 C 223.4375 381.25 212.8125 381.25 203.4375 381.25 L 192.4375 381.5 M 198.0625 396.625 C 200.8125 396.5 203.4375 396.5 206.1875 396.5 C 217.1875 396.75 220.1875 402.375 220.1875 409.625 C 220.1875 411.375 220.1875 418.625 213.5625 422.25 C 210.1875 424.125 205.5625 424.375 198.0625 424.375 Z M 287.3125 423.625 L 290.8125 403.25 L 290.0625 402.375 C 289.1875 402.375 288.3125 402.25 287.4375 402.25 C 282.3125 402.25 276.5625 405.125 272.5625 414.375 L 272.9375 402.875 L 271.9375 401.875 C 262.6875 403.875 260.3125 404.25 251.1875 405.625 L 250.4375 406.375 C 251.1875 415.75 251.5625 421.375 251.5625 438.75 C 251.5625 449 251.4375 459.25 251.1875 469.625 L 251.9375 470.375 C 261.1875 470 263.1875 469.875 273.1875 470 L 273.8125 469.125 C 273.3125 459 272.5625 444.875 272.5625 436.25 C 272.5625 430.625 272.5625 422.375 281.0625 422.375 C 283.1875 422.375 284.4375 423.125 286.1875 424.125 Z M 361.6875 436.75 C 361.6875 431.875 361.6875 411.625 344.1875 404.75 C 338.6875 402.625 332.1875 402.375 328.9375 402.375 C 307.1875 402.375 294.9375 414 294.9375 437 C 294.9375 445 296.1875 453.125 300.8125 459.875 C 304.0625 464.75 310.1875 471.5 328.0625 471.5 C 354.5625 471.5 361.6875 455.5 361.6875 436.75 M 340.0625 436.625 C 340.0625 446.875 338.6875 458.25 328.3125 458.25 C 325.0625 458.25 322.8125 456.75 321.3125 455.375 C 319.1875 453.25 316.8125 449 316.8125 436.875 C 316.8125 433.25 316.8125 425.25 319.3125 420.875 C 321.1875 417.5 324.4375 415.25 328.4375 415.25 C 331.9375 415.25 334.8125 417.125 336.4375 419.125 C 339.4375 422.75 340.0625 429.875 340.0625 436.625 Z M 408.0625 469 C 412.0625 456.5 414.4375 448.75 417.0625 440.875 C 420.4375 430.75 425.9375 414.5 429.4375 404.25 L 428.8125 403.375 L 411.3125 403.75 L 410.4375 404.625 C 408.6875 413 408.3125 414.75 405.8125 424.5 L 399.4375 449.125 L 396.3125 435.625 L 393.9375 426 C 390.8125 414.375 390.3125 412 388.5625 403.75 L 387.6875 403 C 377.8125 404.125 375.3125 404.25 365.8125 404.375 L 365.3125 405.375 C 381.9375 454.625 383.3125 459.25 386.0625 469.5 L 386.9375 470.375 C 395.0625 470 398.3125 469.875 407.3125 470 Z M 458.6875 469.125 C 458.0625 459.5 457.5625 452.125 457.5625 434.875 C 457.5625 424.25 457.8125 413.5 457.9375 402.875 L 457.0625 401.875 L 435.5625 405.625 L 434.8125 406.375 C 435.8125 415.875 436.1875 420.25 436.1875 438 C 436.1875 451.625 435.8125 459.25 435.4375 469.5 L 436.1875 470.375 C 445.1875 470 447.6875 469.875 457.8125 470 L 458.6875 469.125 M 456.6875 389.875 L 457.0625 372.875 L 456.3125 372.125 L 435.9375 374.625 L 435.1875 375.5 C 435.4375 380 435.5625 382.625 435.5625 385.625 C 435.5625 388 435.5625 390.5 435.4375 392.875 L 436.3125 393.625 C 444.8125 392.125 447.1875 391.875 456.0625 390.75 Z M 533.8125 469.25 C 533.3125 458 532.9375 450.5 532.9375 434.125 C 532.9375 401.125 533.4375 387.5 533.9375 371 L 533.0625 370.25 L 512.4375 373.5 L 511.8125 374.25 C 512.5625 386 512.6875 389.125 512.5625 403.375 C 503.1875 403.125 491.4375 402.875 481.9375 410.375 C 473.1875 417.125 469.5625 427.5 469.5625 440.375 C 469.5625 450.125 472.1875 459.875 479.5625 466 C 485.0625 470.5 491.8125 471.5 495.9375 471.5 C 504.8125 471.5 509.4375 467.375 512.4375 464.75 L 512.1875 469.625 L 512.8125 470.375 C 521.4375 470 523.8125 470 533.1875 470 L 533.8125 469.25 M 512.5625 418.375 C 512.6875 435 512.5625 438.25 512.1875 453.375 C 509.6875 454.875 507.1875 456.375 503.6875 456.375 C 491.5625 456.375 491.5625 440.875 491.5625 438.375 C 491.5625 428.75 494.3125 418 508.3125 418 C 509.6875 418 510.8125 418.125 512.5625 418.375 Z M 603.5625 451.5 C 598.8125 454 593.1875 456.875 584.0625 456.875 C 576.5625 456.875 571.4375 454.5 568.4375 450 C 566.5625 447.375 566.1875 444.875 565.6875 442.375 L 606.0625 441.625 L 606.8125 440.75 C 606.6875 434.625 606.5625 428.375 604.8125 422.125 C 600.4375 407.375 590.8125 404.375 586.5625 403.375 C 583.4375 402.5 580.5625 402.25 577.6875 402.25 C 558.0625 402.25 545.0625 415.125 545.0625 436.75 C 545.0625 442.625 546.0625 448.75 548.0625 453.125 C 555.3125 470 572.3125 471.5 581.3125 471.5 C 591.6875 471.5 596.1875 469.625 602.8125 467 L 603.5625 466 L 604.4375 451.875 L 603.5625 451.5 M 565.6875 429.125 C 566.0625 425.25 566.9375 420 571.6875 417 C 573.1875 416 574.9375 415.625 576.6875 415.625 C 580.8125 415.625 583.3125 417.75 584.6875 420 C 586.4375 422.75 586.5625 425.75 586.5625 428.625 Z M 679.5625 469.125 C 678.9375 458.125 678.9375 454.625 678.6875 442.375 L 678.6875 432.625 C 678.5625 420.625 678.4375 414.875 675.3125 409.75 C 671.4375 403.25 664.3125 402.25 659.8125 402.25 C 652.1875 402.25 645.5625 406.25 639.8125 409.625 L 640.0625 402.75 L 638.8125 401.875 C 629.1875 403.875 627.0625 404.25 617.6875 405.5 L 616.9375 406.375 C 617.9375 417.25 618.6875 425.125 618.6875 445.5 C 618.6875 453.5 618.5625 461.5 618.4375 469.5 L 619.1875 470.25 C 628.1875 469.875 630.0625 469.875 640.0625 469.875 L 640.8125 469.125 C 640.0625 449.875 639.9375 445 639.8125 422.625 C 642.4375 420.875 645.4375 418.75 649.4375 418.75 C 656.3125 418.75 656.9375 426.125 657.3125 430.625 C 657.5625 434.75 657.6875 451.875 657.6875 456.625 C 657.6875 460.875 657.5625 465.25 657.5625 469.5 L 658.3125 470.25 C 666.5625 470 668.6875 469.875 678.6875 469.875 Z M 742.6875 452 C 739.3125 454 736.0625 456 729.6875 456 C 715.5625 456 712.6875 444.25 712.6875 436.75 C 712.6875 427.625 716.6875 417.125 728.8125 417.125 C 734.3125 417.125 737.3125 419.125 741.0625 421.625 L 742.3125 421.25 C 742.8125 414.625 742.9375 412.875 743.9375 406.25 L 743.3125 405.5 C 737.8125 403.75 733.0625 402.25 725.8125 402.25 C 696.4375 402.25 690.6875 424.5 690.6875 437.25 C 690.6875 451.625 698.1875 471.125 726.3125 471.125 C 732.9375 471.125 737.1875 469.875 742.4375 468.375 L 743.1875 467.625 L 743.6875 452.625 Z M 809.1875 451.5 C 804.4375 454 798.8125 456.875 789.6875 456.875 C 782.1875 456.875 777.0625 454.5 774.0625 450 C 772.1875 447.375 771.8125 444.875 771.3125 442.375 L 811.6875 441.625 L 812.4375 440.75 C 812.3125 434.625 812.1875 428.375 810.4375 422.125 C 806.0625 407.375 796.4375 404.375 792.1875 403.375 C 789.0625 402.5 786.1875 402.25 783.3125 402.25 C 763.6875 402.25 750.6875 415.125 750.6875 436.75 C 750.6875 442.625 751.6875 448.75 753.6875 453.125 C 760.9375 470 777.9375 471.5 786.9375 471.5 C 797.3125 471.5 801.8125 469.625 808.4375 467 L 809.1875 466 L 810.0625 451.875 L 809.1875 451.5 M 771.3125 429.125 C 771.6875 425.25 772.5625 420 777.3125 417 C 778.8125 416 780.5625 415.625 782.3125 415.625 C 786.4375 415.625 788.9375 417.75 790.3125 420 C 792.0625 422.75 792.1875 425.75 792.1875 428.625 Z M 816.4375 470 "/>
<path fill-rule="nonzero" fill="rgb(34.901961%, 14.901961%, 14.901961%)" fill-opacity="1" d="M 264.375 531.375 C 251.375 531.75 249.25 531.75 235.375 531.75 L 234.625 532.5 L 228.875 552.75 L 223.875 570.875 L 218 592.625 L 212.5 570.25 L 209 556.125 L 202.75 532.125 L 202.125 531.375 C 188.75 531.75 186.5 531.75 172.5 531.75 L 171.75 532.5 C 170.5 569.875 170 579.5 167.25 619.625 L 167.875 620.375 C 175.875 620 178.25 619.875 185.5 620 L 186.25 619.25 L 186.625 595.375 L 187.375 571.125 L 187.875 547.5 L 193.375 569.625 L 198.125 587.375 L 206.5 619.625 L 207.25 620.375 C 215 620 217.125 619.875 225.875 620 L 226.625 619.25 L 233.875 592.625 L 238.875 574.375 L 245.875 548.125 L 245.875 570.5 L 246.125 589.625 L 246.125 619.625 L 246.75 620.375 C 255.375 620 258.75 619.875 268.375 620 L 269 619.25 C 268.25 605 267.375 590.625 266.875 576.25 C 266.5 568.375 266.25 560.5 265.875 552.625 C 265.25 541 265.125 539.5 265.125 532.125 Z M 318.125 605.625 C 316 606.25 314.5 606.75 312.375 606.75 C 306 606.75 305.5 602.75 305.25 600.875 C 304.875 597.625 304.875 590.75 305 585.75 L 305.25 568.125 L 316.5 568.625 L 317.25 567.875 L 318.5 554.5 L 317.75 553.75 L 305.25 553.75 L 305.625 532.75 L 304.75 532 C 296.25 534.5 294 535.125 285.125 537.375 L 284.625 538.25 L 284.75 553.875 L 278 553.625 L 277.25 554.25 L 276.125 567.625 L 276.875 568.375 L 284.75 568.125 L 284.375 588 C 284.25 591.125 284.125 594.25 284.125 597.5 C 284.125 609 284.375 621.375 303.875 621.375 C 308.75 621.375 312.625 620.625 317 619.875 L 317.875 619 L 319.125 606.125 Z M 388.625 619.125 C 388 608.125 388 604.625 387.75 592.375 L 387.75 582.625 C 387.625 570.625 387.5 564.875 384.375 559.75 C 380.5 553.25 373.375 552.25 368.875 552.25 C 361.25 552.25 354.625 556.25 348.875 559.625 L 349.125 552.75 L 347.875 551.875 C 338.25 553.875 336.125 554.25 326.75 555.5 L 326 556.375 C 327 567.25 327.75 575.125 327.75 595.5 C 327.75 603.5 327.625 611.5 327.5 619.5 L 328.25 620.25 C 337.25 619.875 339.125 619.875 349.125 619.875 L 349.875 619.125 C 349.125 599.875 349 595 348.875 572.625 C 351.5 570.875 354.5 568.75 358.5 568.75 C 365.375 568.75 366 576.125 366.375 580.625 C 366.625 584.75 366.75 601.875 366.75 606.625 C 366.75 610.875 366.625 615.25 366.625 619.5 L 367.375 620.25 C 375.625 620 377.75 619.875 387.75 619.875 Z M 429.125 576.875 C 424.875 575.375 421.5 574 421.5 570.5 C 421.5 569 422.5 564.875 430.25 564.875 C 437.875 564.875 442.75 568.125 445.875 570.125 L 447 569.75 L 448.25 556.125 L 447.625 555.375 C 441.75 553.75 436.625 552.25 428.5 552.25 C 422.375 552.25 410.125 552.75 403.625 562.125 C 402 564.375 400.25 568.125 400.25 573.125 C 400.25 586.5 410.625 590.5 416.5 592.75 L 421.25 594.5 C 424.625 595.625 430.125 597.5 430.125 602 C 430.125 605.125 427.25 608.5 420.25 608.5 C 416.75 608.5 411.625 607.375 407 605 C 404.875 603.875 403.875 603 402 601.5 L 400.875 602 C 400.625 608.5 400.5 609.875 400 616.125 L 400.625 617.25 C 406.75 619.5 412 621.5 421.125 621.5 C 430.625 621.5 449.375 619.75 451.625 601.875 C 451.75 600.875 451.75 600 451.75 599.125 C 451.75 585.375 442.125 581.75 435.25 579.125 Z M 480.75 600.75 L 460.75 601.125 L 460.125 602.125 L 460.375 619.5 L 461 620.375 L 481 619.875 L 481.625 619.125 L 481.375 601.5 Z M 566.625 566.25 C 556.125 561.875 550.625 559.625 550.625 554 C 550.625 550.125 554.25 545.25 562.5 545.25 C 572 545.25 577.625 549.125 582.25 552.25 L 583.375 551.75 L 584.375 535.375 L 583.75 534.5 C 578.375 532.25 572.75 529.875 560.625 529.875 C 537.125 529.875 529 543.125 529 556.5 C 529 571.625 540.75 577.125 547.75 580.5 L 551.875 582.375 C 560.5 586 567.125 589.125 567.125 595.75 C 567.125 600.5 563 606.125 552.125 606.125 C 540.75 606.125 534.375 601.125 530.75 598.25 L 529.5 598.625 L 528.625 616.25 L 529.375 617.25 C 530.75 617.75 532.125 618.375 533.5 618.75 C 536.375 619.75 543.75 621.875 553.125 621.875 C 556.875 621.875 566.375 621.5 573.875 618 C 584.375 612.875 588.875 603.375 588.875 592.75 C 588.875 585.625 586.125 578 579.5 572.875 C 576.125 570.375 572.875 568.875 569.875 567.5 Z M 635.75 605.625 C 633.625 606.25 632.125 606.75 630 606.75 C 623.625 606.75 623.125 602.75 622.875 600.875 C 622.5 597.625 622.5 590.75 622.625 585.75 L 622.875 568.125 L 634.125 568.625 L 634.875 567.875 L 636.125 554.5 L 635.375 553.75 L 622.875 553.75 L 623.25 532.75 L 622.375 532 C 613.875 534.5 611.625 535.125 602.75 537.375 L 602.25 538.25 L 602.375 553.875 L 595.625 553.625 L 594.875 554.25 L 593.75 567.625 L 594.5 568.375 L 602.375 568.125 L 602 588 C 601.875 591.125 601.75 594.25 601.75 597.5 C 601.75 609 602 621.375 621.5 621.375 C 626.375 621.375 630.25 620.625 634.625 619.875 L 635.5 619 L 636.75 606.125 Z M 700.625 582.75 C 700.75 571.5 700.75 566.625 697.5 561.375 C 695 557.375 690 552.375 674 552.375 C 663.25 552.375 656.625 554.375 649.5 556.5 L 648.75 557.5 L 648.125 571.125 L 649.125 571.625 C 653.5 569.875 661.625 566.625 670 566.625 C 674.625 566.625 676.5 567.375 678.125 569 C 679.375 570.25 679.75 572.5 679.75 574.375 C 664.75 576.375 657.75 577.75 650.25 582.375 C 643.25 586.75 640.875 593.875 640.875 599.5 C 640.875 612.875 650.5 621.5 662.75 621.5 C 672.125 621.5 677.5 617 680.125 614.875 L 680.125 619.5 L 680.875 620.375 C 689.875 620 692.625 619.875 700.75 620 L 701.375 619.125 C 700.5 606.875 700.5 603.75 700.5 592 L 700.625 582.75 M 680 602.625 C 677.375 604.125 674 605.875 669.875 605.875 C 665.375 605.875 661.625 603.5 661.625 598.25 C 661.625 590 671.5 588.625 680 587.5 Z M 750.25 605.625 C 748.125 606.25 746.625 606.75 744.5 606.75 C 738.125 606.75 737.625 602.75 737.375 600.875 C 737 597.625 737 590.75 737.125 585.75 L 737.375 568.125 L 748.625 568.625 L 749.375 567.875 L 750.625 554.5 L 749.875 553.75 L 737.375 553.75 L 737.75 532.75 L 736.875 532 C 728.375 534.5 726.125 535.125 717.25 537.375 L 716.75 538.25 L 716.875 553.875 L 710.125 553.625 L 709.375 554.25 L 708.25 567.625 L 709 568.375 L 716.875 568.125 L 716.5 588 C 716.375 591.125 716.25 594.25 716.25 597.5 C 716.25 609 716.5 621.375 736 621.375 C 740.875 621.375 744.75 620.625 749.125 619.875 L 750 619 L 751.25 606.125 Z M 815 601.5 C 810.25 604 804.625 606.875 795.5 606.875 C 788 606.875 782.875 604.5 779.875 600 C 778 597.375 777.625 594.875 777.125 592.375 L 817.5 591.625 L 818.25 590.75 C 818.125 584.625 818 578.375 816.25 572.125 C 811.875 557.375 802.25 554.375 798 553.375 C 794.875 552.5 792 552.25 789.125 552.25 C 769.5 552.25 756.5 565.125 756.5 586.75 C 756.5 592.625 757.5 598.75 759.5 603.125 C 766.75 620 783.75 621.5 792.75 621.5 C 803.125 621.5 807.625 619.625 814.25 617 L 815 616 L 815.875 601.875 L 815 601.5 M 777.125 579.125 C 777.5 575.25 778.375 570 783.125 567 C 784.625 566 786.375 565.625 788.125 565.625 C 792.25 565.625 794.75 567.75 796.125 570 C 797.875 572.75 798 575.75 798 578.625 Z M 822.25 620 "/>
<path fill-rule="nonzero" fill="rgb(34.901961%, 14.901961%, 14.901961%)" fill-opacity="1" d="M 215.6875 735.625 C 224.0625 749.875 225.9375 753.625 233.9375 770 L 234.9375 770.625 C 238.8125 770.375 242.5625 770.125 246.4375 770 C 250.3125 769.875 254.3125 769.75 258.1875 769.75 L 258.9375 768.25 C 254.1875 762.125 252.8125 760.25 243.8125 745.875 C 239.8125 739.5 237.8125 736.125 234.6875 730.625 C 240.3125 728.125 251.6875 722.875 251.6875 707 C 251.6875 701.5 250.1875 690.125 239.9375 684.75 C 233.4375 681.375 226.6875 681.25 212.0625 681.5 L 203.3125 681.625 L 188.0625 681.625 L 187.4375 682.375 C 187.9375 695 188.4375 708 188.4375 742 C 188.4375 753.625 188.3125 759.25 187.9375 769.625 L 188.6875 770.375 C 197.8125 770 199.8125 769.875 210.0625 770 L 210.8125 769.25 C 209.8125 754.75 209.6875 750.75 209.5625 735.875 L 215.6875 735.625 M 209.8125 696.75 C 211.5625 696.625 213.3125 696.625 215.0625 696.625 C 219.9375 696.625 229.5625 696.625 229.5625 707.625 C 229.5625 711.125 228.6875 715.75 224.0625 718.625 C 220.5625 720.75 216.0625 721 209.8125 721.125 Z M 321.0625 751.5 C 316.3125 754 310.6875 756.875 301.5625 756.875 C 294.0625 756.875 288.9375 754.5 285.9375 750 C 284.0625 747.375 283.6875 744.875 283.1875 742.375 L 323.5625 741.625 L 324.3125 740.75 C 324.1875 734.625 324.0625 728.375 322.3125 722.125 C 317.9375 707.375 308.3125 704.375 304.0625 703.375 C 300.9375 702.5 298.0625 702.25 295.1875 702.25 C 275.5625 702.25 262.5625 715.125 262.5625 736.75 C 262.5625 742.625 263.5625 748.75 265.5625 753.125 C 272.8125 770 289.8125 771.5 298.8125 771.5 C 309.1875 771.5 313.6875 769.625 320.3125 767 L 321.0625 766 L 321.9375 751.875 L 321.0625 751.5 M 283.1875 729.125 C 283.5625 725.25 284.4375 720 289.1875 717 C 290.6875 716 292.4375 715.625 294.1875 715.625 C 298.3125 715.625 300.8125 717.75 302.1875 720 C 303.9375 722.75 304.0625 725.75 304.0625 728.625 Z M 384.6875 752 C 381.3125 754 378.0625 756 371.6875 756 C 357.5625 756 354.6875 744.25 354.6875 736.75 C 354.6875 727.625 358.6875 717.125 370.8125 717.125 C 376.3125 717.125 379.3125 719.125 383.0625 721.625 L 384.3125 721.25 C 384.8125 714.625 384.9375 712.875 385.9375 706.25 L 385.3125 705.5 C 379.8125 703.75 375.0625 702.25 367.8125 702.25 C 338.4375 702.25 332.6875 724.5 332.6875 737.25 C 332.6875 751.625 340.1875 771.125 368.3125 771.125 C 374.9375 771.125 379.1875 769.875 384.4375 768.375 L 385.1875 767.625 L 385.6875 752.625 Z M 431.8125 723.625 L 435.3125 703.25 L 434.5625 702.375 C 433.6875 702.375 432.8125 702.25 431.9375 702.25 C 426.8125 702.25 421.0625 705.125 417.0625 714.375 L 417.4375 702.875 L 416.4375 701.875 C 407.1875 703.875 404.8125 704.25 395.6875 705.625 L 394.9375 706.375 C 395.6875 715.75 396.0625 721.375 396.0625 738.75 C 396.0625 749 395.9375 759.25 395.6875 769.625 L 396.4375 770.375 C 405.6875 770 407.6875 769.875 417.6875 770 L 418.3125 769.125 C 417.8125 759 417.0625 744.875 417.0625 736.25 C 417.0625 730.625 417.0625 722.375 425.5625 722.375 C 427.6875 722.375 428.9375 723.125 430.6875 724.125 Z M 498.0625 751.5 C 493.3125 754 487.6875 756.875 478.5625 756.875 C 471.0625 756.875 465.9375 754.5 462.9375 750 C 461.0625 747.375 460.6875 744.875 460.1875 742.375 L 500.5625 741.625 L 501.3125 740.75 C 501.1875 734.625 501.0625 728.375 499.3125 722.125 C 494.9375 707.375 485.3125 704.375 481.0625 703.375 C 477.9375 702.5 475.0625 702.25 472.1875 702.25 C 452.5625 702.25 439.5625 715.125 439.5625 736.75 C 439.5625 742.625 440.5625 748.75 442.5625 753.125 C 449.8125 770 466.8125 771.5 475.8125 771.5 C 486.1875 771.5 490.6875 769.625 497.3125 767 L 498.0625 766 L 498.9375 751.875 L 498.0625 751.5 M 460.1875 729.125 C 460.5625 725.25 461.4375 720 466.1875 717 C 467.6875 716 469.4375 715.625 471.1875 715.625 C 475.3125 715.625 477.8125 717.75 479.1875 720 C 480.9375 722.75 481.0625 725.75 481.0625 728.625 Z M 568.4375 732.75 C 568.5625 721.5 568.5625 716.625 565.3125 711.375 C 562.8125 707.375 557.8125 702.375 541.8125 702.375 C 531.0625 702.375 524.4375 704.375 517.3125 706.5 L 516.5625 707.5 L 515.9375 721.125 L 516.9375 721.625 C 521.3125 719.875 529.4375 716.625 537.8125 716.625 C 542.4375 716.625 544.3125 717.375 545.9375 719 C 547.1875 720.25 547.5625 722.5 547.5625 724.375 C 532.5625 726.375 525.5625 727.75 518.0625 732.375 C 511.0625 736.75 508.6875 743.875 508.6875 749.5 C 508.6875 762.875 518.3125 771.5 530.5625 771.5 C 539.9375 771.5 545.3125 767 547.9375 764.875 L 547.9375 769.5 L 548.6875 770.375 C 557.6875 770 560.4375 769.875 568.5625 770 L 569.1875 769.125 C 568.3125 756.875 568.3125 753.75 568.3125 742 L 568.4375 732.75 M 547.8125 752.625 C 545.1875 754.125 541.8125 755.875 537.6875 755.875 C 533.1875 755.875 529.4375 753.5 529.4375 748.25 C 529.4375 740 539.3125 738.625 547.8125 737.5 Z M 618.0625 755.625 C 615.9375 756.25 614.4375 756.75 612.3125 756.75 C 605.9375 756.75 605.4375 752.75 605.1875 750.875 C 604.8125 747.625 604.8125 740.75 604.9375 735.75 L 605.1875 718.125 L 616.4375 718.625 L 617.1875 717.875 L 618.4375 704.5 L 617.6875 703.75 L 605.1875 703.75 L 605.5625 682.75 L 604.6875 682 C 596.1875 684.5 593.9375 685.125 585.0625 687.375 L 584.5625 688.25 L 584.6875 703.875 L 577.9375 703.625 L 577.1875 704.25 L 576.0625 717.625 L 576.8125 718.375 L 584.6875 718.125 L 584.3125 738 C 584.1875 741.125 584.0625 744.25 584.0625 747.5 C 584.0625 759 584.3125 771.375 603.8125 771.375 C 608.6875 771.375 612.5625 770.625 616.9375 769.875 L 617.8125 769 L 619.0625 756.125 Z M 649.9375 769.125 C 649.3125 759.5 648.8125 752.125 648.8125 734.875 C 648.8125 724.25 649.0625 713.5 649.1875 702.875 L 648.3125 701.875 L 626.8125 705.625 L 626.0625 706.375 C 627.0625 715.875 627.4375 720.25 627.4375 738 C 627.4375 751.625 627.0625 759.25 626.6875 769.5 L 627.4375 770.375 C 636.4375 770 638.9375 769.875 649.0625 770 L 649.9375 769.125 M 647.9375 689.875 L 648.3125 672.875 L 647.5625 672.125 L 627.1875 674.625 L 626.4375 675.5 C 626.6875 680 626.8125 682.625 626.8125 685.625 C 626.8125 688 626.8125 690.5 626.6875 692.875 L 627.5625 693.625 C 636.0625 692.125 638.4375 691.875 647.3125 690.75 Z M 727.4375 736.75 C 727.4375 731.875 727.4375 711.625 709.9375 704.75 C 704.4375 702.625 697.9375 702.375 694.6875 702.375 C 672.9375 702.375 660.6875 714 660.6875 737 C 660.6875 745 661.9375 753.125 666.5625 759.875 C 669.8125 764.75 675.9375 771.5 693.8125 771.5 C 720.3125 771.5 727.4375 755.5 727.4375 736.75 M 705.8125 736.625 C 705.8125 746.875 704.4375 758.25 694.0625 758.25 C 690.8125 758.25 688.5625 756.75 687.0625 755.375 C 684.9375 753.25 682.5625 749 682.5625 736.875 C 682.5625 733.25 682.5625 725.25 685.0625 720.875 C 686.9375 717.5 690.1875 715.25 694.1875 715.25 C 697.6875 715.25 700.5625 717.125 702.1875 719.125 C 705.1875 722.75 705.8125 729.875 705.8125 736.625 Z M 800.5625 769.125 C 799.9375 758.125 799.9375 754.625 799.6875 742.375 L 799.6875 732.625 C 799.5625 720.625 799.4375 714.875 796.3125 709.75 C 792.4375 703.25 785.3125 702.25 780.8125 702.25 C 773.1875 702.25 766.5625 706.25 760.8125 709.625 L 761.0625 702.75 L 759.8125 701.875 C 750.1875 703.875 748.0625 704.25 738.6875 705.5 L 737.9375 706.375 C 738.9375 717.25 739.6875 725.125 739.6875 745.5 C 739.6875 753.5 739.5625 761.5 739.4375 769.5 L 740.1875 770.25 C 749.1875 769.875 751.0625 769.875 761.0625 769.875 L 761.8125 769.125 C 761.0625 749.875 760.9375 745 760.8125 722.625 C 763.4375 720.875 766.4375 718.75 770.4375 718.75 C 777.3125 718.75 777.9375 726.125 778.3125 730.625 C 778.5625 734.75 778.6875 751.875 778.6875 756.625 C 778.6875 760.875 778.5625 765.25 778.5625 769.5 L 779.3125 770.25 C 787.5625 770 789.6875 769.875 799.6875 769.875 Z M 807.3125 770 "/>
<path fill-rule="nonzero" fill="rgb(34.901961%, 14.901961%, 14.901961%)" fill-opacity="1" d="M 412.4375 831.375 C 400.4375 831.75 397.9375 831.75 384.5625 831.75 L 383.6875 832.5 C 377.0625 853.75 373.0625 866.375 354.6875 919.125 L 355.1875 920 L 374.6875 920 L 375.5625 919.25 L 381.6875 896.5 L 408.6875 896.5 L 414.0625 919.625 L 414.9375 920.375 C 424.0625 920 426.5625 919.875 436.6875 920 L 437.3125 919 C 422.1875 865.5 420.4375 859.625 413.3125 832.125 L 412.4375 831.375 M 386.0625 881.375 L 392.3125 860.25 L 396.6875 845.625 L 400.4375 861.875 L 405.0625 881.375 Z M 481.4375 873.625 L 484.9375 853.25 L 484.1875 852.375 C 483.3125 852.375 482.4375 852.25 481.5625 852.25 C 476.4375 852.25 470.6875 855.125 466.6875 864.375 L 467.0625 852.875 L 466.0625 851.875 C 456.8125 853.875 454.4375 854.25 445.3125 855.625 L 444.5625 856.375 C 445.3125 865.75 445.6875 871.375 445.6875 888.75 C 445.6875 899 445.5625 909.25 445.3125 919.625 L 446.0625 920.375 C 455.3125 920 457.3125 919.875 467.3125 920 L 467.9375 919.125 C 467.4375 909 466.6875 894.875 466.6875 886.25 C 466.6875 880.625 466.6875 872.375 475.1875 872.375 C 477.3125 872.375 478.5625 873.125 480.3125 874.125 Z M 547.6875 901.5 C 542.9375 904 537.3125 906.875 528.1875 906.875 C 520.6875 906.875 515.5625 904.5 512.5625 900 C 510.6875 897.375 510.3125 894.875 509.8125 892.375 L 550.1875 891.625 L 550.9375 890.75 C 550.8125 884.625 550.6875 878.375 548.9375 872.125 C 544.5625 857.375 534.9375 854.375 530.6875 853.375 C 527.5625 852.5 524.6875 852.25 521.8125 852.25 C 502.1875 852.25 489.1875 865.125 489.1875 886.75 C 489.1875 892.625 490.1875 898.75 492.1875 903.125 C 499.4375 920 516.4375 921.5 525.4375 921.5 C 535.8125 921.5 540.3125 919.625 546.9375 917 L 547.6875 916 L 548.5625 901.875 L 547.6875 901.5 M 509.8125 879.125 C 510.1875 875.25 511.0625 870 515.8125 867 C 517.3125 866 519.0625 865.625 520.8125 865.625 C 524.9375 865.625 527.4375 867.75 528.8125 870 C 530.5625 872.75 530.6875 875.75 530.6875 878.625 Z M 618.0625 882.75 C 618.1875 871.5 618.1875 866.625 614.9375 861.375 C 612.4375 857.375 607.4375 852.375 591.4375 852.375 C 580.6875 852.375 574.0625 854.375 566.9375 856.5 L 566.1875 857.5 L 565.5625 871.125 L 566.5625 871.625 C 570.9375 869.875 579.0625 866.625 587.4375 866.625 C 592.0625 866.625 593.9375 867.375 595.5625 869 C 596.8125 870.25 597.1875 872.5 597.1875 874.375 C 582.1875 876.375 575.1875 877.75 567.6875 882.375 C 560.6875 886.75 558.3125 893.875 558.3125 899.5 C 558.3125 912.875 567.9375 921.5 580.1875 921.5 C 589.5625 921.5 594.9375 917 597.5625 914.875 L 597.5625 919.5 L 598.3125 920.375 C 607.3125 920 610.0625 919.875 618.1875 920 L 618.8125 919.125 C 617.9375 906.875 617.9375 903.75 617.9375 892 L 618.0625 882.75 M 597.4375 902.625 C 594.8125 904.125 591.4375 905.875 587.3125 905.875 C 582.8125 905.875 579.0625 903.5 579.0625 898.25 C 579.0625 890 588.9375 888.625 597.4375 887.5 Z M 625.1875 920 "/>
</svg>
