<?xml version="1.0" encoding="UTF-8"?>
<svg xmlns="http://www.w3.org/2000/svg" xmlns:xlink="http://www.w3.org/1999/xlink" width="975" height="1300" viewBox="0 0 975 1300">
<path fill-rule="nonzero" fill="rgb(34.901961%, 14.901961%, 14.901961%)" fill-opacity="1" d="M 171.5625 531.5 L 155.6875 531.75 L 154.9375 532.5 C 155.4375 548.75 155.8125 559.625 155.8125 574 C 155.8125 589.25 155.4375 604.375 155.0625 619.625 L 155.8125 620.375 C 165.0625 620 167.0625 619.875 177.0625 620 L 177.6875 619.25 C 177.1875 605.625 177.1875 602.5 177.1875 589.75 C 191.1875 589.875 206.1875 589.875 215.1875 578.875 C 218.6875 574.625 221.6875 567.5 221.6875 558.75 C 221.6875 553.375 220.4375 541.5 210.0625 535.625 C 202.5625 531.25 191.9375 531.25 182.5625 531.25 L 171.5625 531.5 M 177.1875 546.625 C 179.9375 546.5 182.5625 546.5 185.3125 546.5 C 196.3125 546.75 199.3125 552.375 199.3125 559.625 C 199.3125 561.375 199.3125 568.625 192.6875 572.25 C 189.3125 574.125 184.6875 574.375 177.1875 574.375 Z M 293.9375 586.75 C 293.9375 581.875 293.9375 561.625 276.4375 554.75 C 270.9375 552.625 264.4375 552.375 261.1875 552.375 C 239.4375 552.375 227.1875 564 227.1875 587 C 227.1875 595 228.4375 603.125 233.0625 609.875 C 236.3125 614.75 242.4375 621.5 260.3125 621.5 C 286.8125 621.5 293.9375 605.5 293.9375 586.75 M 272.3125 586.625 C 272.3125 596.875 270.9375 608.25 260.5625 608.25 C 257.3125 608.25 255.0625 606.75 253.5625 605.375 C 251.4375 603.25 249.0625 599 249.0625 586.875 C 249.0625 583.25 249.0625 575.25 251.5625 570.875 C 253.4375 567.5 256.6875 565.25 260.6875 565.25 C 264.1875 565.25 267.0625 567.125 268.6875 569.125 C 271.6875 572.75 272.3125 579.875 272.3125 586.625 Z M 328.4375 619.125 C 327.8125 609.5 327.3125 602.125 327.3125 584.875 C 327.3125 574.25 327.5625 563.5 327.6875 552.875 L 326.8125 551.875 L 305.3125 555.625 L 304.5625 556.375 C 305.5625 565.875 305.9375 570.25 305.9375 588 C 305.9375 601.625 305.5625 609.25 305.1875 619.5 L 305.9375 620.375 C 314.9375 620 317.4375 619.875 327.5625 620 L 328.4375 619.125 M 326.4375 539.875 L 326.8125 522.875 L 326.0625 522.125 L 305.6875 524.625 L 304.9375 525.5 C 305.1875 530 305.3125 532.625 305.3125 535.625 C 305.3125 538 305.3125 540.5 305.1875 542.875 L 306.0625 543.625 C 314.5625 542.125 316.9375 541.875 325.8125 540.75 Z M 403.5625 619.125 C 402.9375 608.125 402.9375 604.625 402.6875 592.375 L 402.6875 582.625 C 402.5625 570.625 402.4375 564.875 399.3125 559.75 C 395.4375 553.25 388.3125 552.25 383.8125 552.25 C 376.1875 552.25 369.5625 556.25 363.8125 559.625 L 364.0625 552.75 L 362.8125 551.875 C 353.1875 553.875 351.0625 554.25 341.6875 555.5 L 340.9375 556.375 C 341.9375 567.25 342.6875 575.125 342.6875 595.5 C 342.6875 603.5 342.5625 611.5 342.4375 619.5 L 343.1875 620.25 C 352.1875 619.875 354.0625 619.875 364.0625 619.875 L 364.8125 619.125 C 364.0625 599.875 363.9375 595 363.8125 572.625 C 366.4375 570.875 369.4375 568.75 373.4375 568.75 C 380.3125 568.75 380.9375 576.125 381.3125 580.625 C 381.5625 584.75 381.6875 601.875 381.6875 606.625 C 381.6875 610.875 381.5625 615.25 381.5625 619.5 L 382.3125 620.25 C 390.5625 620 392.6875 619.875 402.6875 619.875 Z M 452.8125 605.625 C 450.6875 606.25 449.1875 606.75 447.0625 606.75 C 440.6875 606.75 440.1875 602.75 439.9375 600.875 C 439.5625 597.625 439.5625 590.75 439.6875 585.75 L 439.9375 568.125 L 451.1875 568.625 L 451.9375 567.875 L 453.1875 554.5 L 452.4375 553.75 L 439.9375 553.75 L 440.3125 532.75 L 439.4375 532 C 430.9375 534.5 428.6875 535.125 419.8125 537.375 L 419.3125 538.25 L 419.4375 553.875 L 412.6875 553.625 L 411.9375 554.25 L 410.8125 567.625 L 411.5625 568.375 L 419.4375 568.125 L 419.0625 588 C 418.9375 591.125 418.8125 594.25 418.8125 597.5 C 418.8125 609 419.0625 621.375 438.5625 621.375 C 443.4375 621.375 447.3125 620.625 451.6875 619.875 L 452.5625 619 L 453.8125 606.125 Z M 514.5625 620 C 517.8125 620.125 521.1875 620.125 524.4375 620.125 C 538.4375 620.125 561.0625 619.625 570.1875 597.375 C 573.5625 589.125 574.3125 579.125 574.3125 573.5 C 574.3125 561.75 571.6875 552.75 568.5625 547.125 C 560.0625 531.625 543.9375 531.125 529.6875 531.125 C 523.9375 531.125 518.1875 531.375 512.4375 531.625 L 499.1875 531.75 L 498.4375 532.5 C 498.9375 544.5 499.4375 555 499.4375 589.625 C 499.4375 601.875 499.3125 609.25 499.0625 619.5 L 499.8125 620 L 514.5625 620 M 521.4375 603.875 C 521.1875 591.625 521.0625 580 521.0625 568 C 521.0625 561.25 521.0625 554.5 521.1875 547.75 C 523.6875 547.625 526.3125 547.5 528.8125 547.5 C 536.4375 547.5 551.3125 547.5 551.3125 574.125 C 551.3125 589.75 545.4375 596.75 542.4375 599.25 C 536.8125 603.875 528.1875 603.875 521.4375 603.875 Z M 647.0625 553.125 L 626.6875 554.125 L 625.8125 554.875 C 626.6875 569 626.6875 589 626.6875 591 C 626.6875 594.625 626.6875 596.625 626.5625 601.625 C 623.1875 603.875 620.5625 605.75 617.1875 605.75 C 608.1875 605.75 608.1875 596.25 608.1875 588.875 C 608.1875 585.75 608.1875 582.5 608.3125 579.375 L 608.5625 554.125 L 607.6875 553.125 L 587.0625 554.125 L 586.1875 554.875 C 586.9375 565.375 587.0625 568.875 587.0625 581.5 L 587.0625 590.25 C 586.9375 603.875 587.5625 609.625 592.0625 614.875 C 596.1875 619.5 602.1875 621.5 608.4375 621.5 C 617.3125 621.5 622.4375 617.5 626.9375 614 L 626.8125 619.625 L 627.6875 620.375 C 636.8125 620 639.5625 620 647.6875 620 L 648.4375 619.25 C 647.8125 610.375 647.5625 605.625 647.5625 589.375 C 647.5625 577.625 647.6875 565.875 647.9375 554.125 Z M 760.1875 619.125 C 759.5625 607.5 759.4375 604.25 759.4375 590.125 L 759.4375 580.75 C 759.5625 572.375 759.6875 564.625 756.0625 559.375 C 751.1875 552.25 742.5625 552.25 740.5625 552.25 C 730.3125 552.25 723.4375 556.875 718.4375 560.375 C 716.6875 557.5 713.5625 552.25 703.5625 552.25 C 695.3125 552.25 689.9375 556 684.1875 560 L 684.1875 553 L 683.0625 551.875 C 673.3125 553.75 670.5625 554.25 661.8125 555.5 L 661.0625 556.375 C 662.0625 566.375 662.8125 573.25 662.8125 598 C 662.8125 605.125 662.6875 612.375 662.6875 619.5 L 663.3125 620.25 C 671.3125 620 674.0625 619.875 684.4375 619.875 L 685.1875 619.125 C 684.3125 599.875 684.1875 594.125 684.0625 572.375 C 686.6875 570.5 689.5625 568.875 692.6875 568.875 C 700.4375 568.875 700.6875 577.75 700.6875 588.5 C 700.6875 606.625 700.5625 609.375 700.3125 619.5 L 701.0625 620.375 C 710.5625 619.875 713.1875 619.875 721.8125 619.875 L 722.5625 619.125 C 721.8125 607.25 721.6875 603.75 721.5625 588.625 L 721.5625 584 L 721.4375 571.375 C 723.5625 570 726.3125 568.25 730.0625 568.25 C 737.1875 568.25 738.3125 575 738.3125 585.75 C 738.3125 588.125 738.1875 590.5 738.1875 592.875 C 738.0625 597.125 737.9375 615.75 737.8125 619.5 L 738.5625 620.25 C 747.9375 619.875 750.6875 619.875 759.4375 619.875 Z M 830.0625 601.5 C 825.3125 604 819.6875 606.875 810.5625 606.875 C 803.0625 606.875 797.9375 604.5 794.9375 600 C 793.0625 597.375 792.6875 594.875 792.1875 592.375 L 832.5625 591.625 L 833.3125 590.75 C 833.1875 584.625 833.0625 578.375 831.3125 572.125 C 826.9375 557.375 817.3125 554.375 813.0625 553.375 C 809.9375 552.5 807.0625 552.25 804.1875 552.25 C 784.5625 552.25 771.5625 565.125 771.5625 586.75 C 771.5625 592.625 772.5625 598.75 774.5625 603.125 C 781.8125 620 798.8125 621.5 807.8125 621.5 C 818.1875 621.5 822.6875 619.625 829.3125 617 L 830.0625 616 L 830.9375 601.875 L 830.0625 601.5 M 792.1875 579.125 C 792.5625 575.25 793.4375 570 798.1875 567 C 799.6875 566 801.4375 565.625 803.1875 565.625 C 807.3125 565.625 809.8125 567.75 811.1875 570 C 812.9375 572.75 813.0625 575.75 813.0625 578.625 Z M 837.3125 620 "/>
<path fill-rule="nonzero" fill="rgb(34.901961%, 14.901961%, 14.901961%)" fill-opacity="1" d="M 190.125 716.25 C 179.625 711.875 174.125 709.625 174.125 704 C 174.125 700.125 177.75 695.25 186 695.25 C 195.5 695.25 201.125 699.125 205.75 702.25 L 206.875 701.75 L 207.875 685.375 L 207.25 684.5 C 201.875 682.25 196.25 679.875 184.125 679.875 C 160.625 679.875 152.5 693.125 152.5 706.5 C 152.5 721.625 164.25 727.125 171.25 730.5 L 175.375 732.375 C 184 736 190.625 739.125 190.625 745.75 C 190.625 750.5 186.5 756.125 175.625 756.125 C 164.25 756.125 157.875 751.125 154.25 748.25 L 153 748.625 L 152.125 766.25 L 152.875 767.25 C 154.25 767.75 155.625 768.375 157 768.75 C 159.875 769.75 167.25 771.875 176.625 771.875 C 180.375 771.875 189.875 771.5 197.375 768 C 207.875 762.875 212.375 753.375 212.375 742.75 C 212.375 735.625 209.625 728 203 722.875 C 199.625 720.375 196.375 718.875 193.375 717.5 Z M 259.25 755.625 C 257.125 756.25 255.625 756.75 253.5 756.75 C 247.125 756.75 246.625 752.75 246.375 750.875 C 246 747.625 246 740.75 246.125 735.75 L 246.375 718.125 L 257.625 718.625 L 258.375 717.875 L 259.625 704.5 L 258.875 703.75 L 246.375 703.75 L 246.75 682.75 L 245.875 682 C 237.375 684.5 235.125 685.125 226.25 687.375 L 225.75 688.25 L 225.875 703.875 L 219.125 703.625 L 218.375 704.25 L 217.25 717.625 L 218 718.375 L 225.875 718.125 L 225.5 738 C 225.375 741.125 225.25 744.25 225.25 747.5 C 225.25 759 225.5 771.375 245 771.375 C 249.875 771.375 253.75 770.625 258.125 769.875 L 259 769 L 260.25 756.125 Z M 324.125 732.75 C 324.25 721.5 324.25 716.625 321 711.375 C 318.5 707.375 313.5 702.375 297.5 702.375 C 286.75 702.375 280.125 704.375 273 706.5 L 272.25 707.5 L 271.625 721.125 L 272.625 721.625 C 277 719.875 285.125 716.625 293.5 716.625 C 298.125 716.625 300 717.375 301.625 719 C 302.875 720.25 303.25 722.5 303.25 724.375 C 288.25 726.375 281.25 727.75 273.75 732.375 C 266.75 736.75 264.375 743.875 264.375 749.5 C 264.375 762.875 274 771.5 286.25 771.5 C 295.625 771.5 301 767 303.625 764.875 L 303.625 769.5 L 304.375 770.375 C 313.375 770 316.125 769.875 324.25 770 L 324.875 769.125 C 324 756.875 324 753.75 324 742 L 324.125 732.75 M 303.5 752.625 C 300.875 754.125 297.5 755.875 293.375 755.875 C 288.875 755.875 285.125 753.5 285.125 748.25 C 285.125 740 295 738.625 303.5 737.5 Z M 373.75 755.625 C 371.625 756.25 370.125 756.75 368 756.75 C 361.625 756.75 361.125 752.75 360.875 750.875 C 360.5 747.625 360.5 740.75 360.625 735.75 L 360.875 718.125 L 372.125 718.625 L 372.875 717.875 L 374.125 704.5 L 373.375 703.75 L 360.875 703.75 L 361.25 682.75 L 360.375 682 C 351.875 684.5 349.625 685.125 340.75 687.375 L 340.25 688.25 L 340.375 703.875 L 333.625 703.625 L 332.875 704.25 L 331.75 717.625 L 332.5 718.375 L 340.375 718.125 L 340 738 C 339.875 741.125 339.75 744.25 339.75 747.5 C 339.75 759 340 771.375 359.5 771.375 C 364.375 771.375 368.25 770.625 372.625 769.875 L 373.5 769 L 374.75 756.125 Z M 438.5 751.5 C 433.75 754 428.125 756.875 419 756.875 C 411.5 756.875 406.375 754.5 403.375 750 C 401.5 747.375 401.125 744.875 400.625 742.375 L 441 741.625 L 441.75 740.75 C 441.625 734.625 441.5 728.375 439.75 722.125 C 435.375 707.375 425.75 704.375 421.5 703.375 C 418.375 702.5 415.5 702.25 412.625 702.25 C 393 702.25 380 715.125 380 736.75 C 380 742.625 381 748.75 383 753.125 C 390.25 770 407.25 771.5 416.25 771.5 C 426.625 771.5 431.125 769.625 437.75 767 L 438.5 766 L 439.375 751.875 L 438.5 751.5 M 400.625 729.125 C 401 725.25 401.875 720 406.625 717 C 408.125 716 409.875 715.625 411.625 715.625 C 415.75 715.625 418.25 717.75 419.625 720 C 421.375 722.75 421.5 725.75 421.5 728.625 Z M 513 770 C 524.625 770.25 539 770.5 548.375 764 C 556.625 758.125 558.875 749.875 558.875 742.875 C 558.875 734.875 555.5 727.5 548.375 724 C 546 722.75 543.25 722.25 540.625 721.75 C 544.875 720 549.875 717.75 553.125 711.125 C 554.5 708.25 555.125 705.25 555.125 702.375 C 555.125 698.375 554.125 692.875 550.125 688.375 C 544.875 682.75 536.75 681.25 524.5 681.25 C 520.25 681.25 512.625 681.375 508.375 681.5 L 490.875 681.75 L 490.125 682.5 C 490.625 694.5 490.75 699.125 490.75 716.375 C 490.75 734.125 490.625 751.75 490.375 769.5 L 491.25 770 L 513 770 M 512.125 732 C 521.625 731.75 527.125 731.75 530.75 733.875 C 534.375 736.125 535.75 740.125 535.75 744.125 C 535.75 749.75 532.625 753.25 528 754.875 C 524.25 756.125 517.5 756.125 512.125 756 L 512.125 732 M 512.125 695.25 C 514.75 695.25 518.25 695.125 520.375 695.125 C 527.125 695.125 533.25 697.5 533.25 705.625 C 533.25 712.25 528.375 715 526.875 715.75 C 523.75 717.125 517.125 717.125 512.125 717.125 Z M 626 751.5 C 621.25 754 615.625 756.875 606.5 756.875 C 599 756.875 593.875 754.5 590.875 750 C 589 747.375 588.625 744.875 588.125 742.375 L 628.5 741.625 L 629.25 740.75 C 629.125 734.625 629 728.375 627.25 722.125 C 622.875 707.375 613.25 704.375 609 703.375 C 605.875 702.5 603 702.25 600.125 702.25 C 580.5 702.25 567.5 715.125 567.5 736.75 C 567.5 742.625 568.5 748.75 570.5 753.125 C 577.75 770 594.75 771.5 603.75 771.5 C 614.125 771.5 618.625 769.625 625.25 767 L 626 766 L 626.875 751.875 L 626 751.5 M 588.125 729.125 C 588.5 725.25 589.375 720 594.125 717 C 595.625 716 597.375 715.625 599.125 715.625 C 603.25 715.625 605.75 717.75 607.125 720 C 608.875 722.75 609 725.75 609 728.625 Z M 696.375 732.75 C 696.5 721.5 696.5 716.625 693.25 711.375 C 690.75 707.375 685.75 702.375 669.75 702.375 C 659 702.375 652.375 704.375 645.25 706.5 L 644.5 707.5 L 643.875 721.125 L 644.875 721.625 C 649.25 719.875 657.375 716.625 665.75 716.625 C 670.375 716.625 672.25 717.375 673.875 719 C 675.125 720.25 675.5 722.5 675.5 724.375 C 660.5 726.375 653.5 727.75 646 732.375 C 639 736.75 636.625 743.875 636.625 749.5 C 636.625 762.875 646.25 771.5 658.5 771.5 C 667.875 771.5 673.25 767 675.875 764.875 L 675.875 769.5 L 676.625 770.375 C 685.625 770 688.375 769.875 696.5 770 L 697.125 769.125 C 696.25 756.875 696.25 753.75 696.25 742 L 696.375 732.75 M 675.75 752.625 C 673.125 754.125 669.75 755.875 665.625 755.875 C 661.125 755.875 657.375 753.5 657.375 748.25 C 657.375 740 667.25 738.625 675.75 737.5 Z M 759.875 752 C 756.5 754 753.25 756 746.875 756 C 732.75 756 729.875 744.25 729.875 736.75 C 729.875 727.625 733.875 717.125 746 717.125 C 751.5 717.125 754.5 719.125 758.25 721.625 L 759.5 721.25 C 760 714.625 760.125 712.875 761.125 706.25 L 760.5 705.5 C 755 703.75 750.25 702.25 743 702.25 C 713.625 702.25 707.875 724.5 707.875 737.25 C 707.875 751.625 715.375 771.125 743.5 771.125 C 750.125 771.125 754.375 769.875 759.625 768.375 L 760.375 767.625 L 760.875 752.625 Z M 832.125 769.125 C 831.625 758.875 831.5 755.375 831.25 742.375 L 831.25 733 C 831.125 721.125 831 714.25 827.375 709 C 823.75 703.875 818.5 702.25 813 702.25 C 803.875 702.25 796.75 706.625 791.75 709.625 L 792.125 671.125 L 791.375 670.25 L 770 673.625 L 769.375 674.375 C 770.5 686.5 770.75 691 771 707.125 C 771.25 717.25 771.375 727.375 771.375 737.5 C 771.375 749.875 771.125 757.25 770.875 769.5 L 771.5 770.375 C 780.75 769.875 782.625 769.875 792.75 769.875 L 793.5 769.125 C 792.625 750.375 792.5 744.75 792.375 722.625 C 794.75 721 797.75 718.875 802 718.875 C 808.875 718.875 809.375 726 809.875 731 C 810.125 734.875 810.25 752.625 810.25 757.25 C 810.25 761.375 810.125 765.375 810.125 769.5 L 810.75 770.375 C 819.75 769.875 821.75 769.875 831.375 769.875 Z M 838.875 770 "/>
</svg>
