<?xml version="1.0" encoding="UTF-8"?>
<svg xmlns="http://www.w3.org/2000/svg" xmlns:xlink="http://www.w3.org/1999/xlink" width="975" height="1300" viewBox="0 0 975 1300">
<path fill-rule="nonzero" fill="rgb(34.901961%, 14.901961%, 14.901961%)" fill-opacity="1" d="M 136.5 566.25 C 126 561.875 120.5 559.625 120.5 554 C 120.5 550.125 124.125 545.25 132.375 545.25 C 141.875 545.25 147.5 549.125 152.125 552.25 L 153.25 551.75 L 154.25 535.375 L 153.625 534.5 C 148.25 532.25 142.625 529.875 130.5 529.875 C 107 529.875 98.875 543.125 98.875 556.5 C 98.875 571.625 110.625 577.125 117.625 580.5 L 121.75 582.375 C 130.375 586 137 589.125 137 595.75 C 137 600.5 132.875 606.125 122 606.125 C 110.625 606.125 104.25 601.125 100.625 598.25 L 99.375 598.625 L 98.5 616.25 L 99.25 617.25 C 100.625 617.75 102 618.375 103.375 618.75 C 106.25 619.75 113.625 621.875 123 621.875 C 126.75 621.875 136.25 621.5 143.75 618 C 154.25 612.875 158.75 603.375 158.75 592.75 C 158.75 585.625 156 578 149.375 572.875 C 146 570.375 142.75 568.875 139.75 567.5 Z M 226.25 582.75 C 226.375 571.5 226.375 566.625 223.125 561.375 C 220.625 557.375 215.625 552.375 199.625 552.375 C 188.875 552.375 182.25 554.375 175.125 556.5 L 174.375 557.5 L 173.75 571.125 L 174.75 571.625 C 179.125 569.875 187.25 566.625 195.625 566.625 C 200.25 566.625 202.125 567.375 203.75 569 C 205 570.25 205.375 572.5 205.375 574.375 C 190.375 576.375 183.375 577.75 175.875 582.375 C 168.875 586.75 166.5 593.875 166.5 599.5 C 166.5 612.875 176.125 621.5 188.375 621.5 C 197.75 621.5 203.125 617 205.75 614.875 L 205.75 619.5 L 206.5 620.375 C 215.5 620 218.25 619.875 226.375 620 L 227 619.125 C 226.125 606.875 226.125 603.75 226.125 592 L 226.25 582.75 M 205.625 602.625 C 203 604.125 199.625 605.875 195.5 605.875 C 191 605.875 187.25 603.5 187.25 598.25 C 187.25 590 197.125 588.625 205.625 587.5 Z M 302.125 619.125 C 301.5 608.125 301.5 604.625 301.25 592.375 L 301.25 582.625 C 301.125 570.625 301 564.875 297.875 559.75 C 294 553.25 286.875 552.25 282.375 552.25 C 274.75 552.25 268.125 556.25 262.375 559.625 L 262.625 552.75 L 261.375 551.875 C 251.75 553.875 249.625 554.25 240.25 555.5 L 239.5 556.375 C 240.5 567.25 241.25 575.125 241.25 595.5 C 241.25 603.5 241.125 611.5 241 619.5 L 241.75 620.25 C 250.75 619.875 252.625 619.875 262.625 619.875 L 263.375 619.125 C 262.625 599.875 262.5 595 262.375 572.625 C 265 570.875 268 568.75 272 568.75 C 278.875 568.75 279.5 576.125 279.875 580.625 C 280.125 584.75 280.25 601.875 280.25 606.625 C 280.25 610.875 280.125 615.25 280.125 619.5 L 280.875 620.25 C 289.125 620 291.25 619.875 301.25 619.875 Z M 351.375 605.625 C 349.25 606.25 347.75 606.75 345.625 606.75 C 339.25 606.75 338.75 602.75 338.5 600.875 C 338.125 597.625 338.125 590.75 338.25 585.75 L 338.5 568.125 L 349.75 568.625 L 350.5 567.875 L 351.75 554.5 L 351 553.75 L 338.5 553.75 L 338.875 532.75 L 338 532 C 329.5 534.5 327.25 535.125 318.375 537.375 L 317.875 538.25 L 318 553.875 L 311.25 553.625 L 310.5 554.25 L 309.375 567.625 L 310.125 568.375 L 318 568.125 L 317.625 588 C 317.5 591.125 317.375 594.25 317.375 597.5 C 317.375 609 317.625 621.375 337.125 621.375 C 342 621.375 345.875 620.625 350.25 619.875 L 351.125 619 L 352.375 606.125 Z M 416.25 582.75 C 416.375 571.5 416.375 566.625 413.125 561.375 C 410.625 557.375 405.625 552.375 389.625 552.375 C 378.875 552.375 372.25 554.375 365.125 556.5 L 364.375 557.5 L 363.75 571.125 L 364.75 571.625 C 369.125 569.875 377.25 566.625 385.625 566.625 C 390.25 566.625 392.125 567.375 393.75 569 C 395 570.25 395.375 572.5 395.375 574.375 C 380.375 576.375 373.375 577.75 365.875 582.375 C 358.875 586.75 356.5 593.875 356.5 599.5 C 356.5 612.875 366.125 621.5 378.375 621.5 C 387.75 621.5 393.125 617 395.75 614.875 L 395.75 619.5 L 396.5 620.375 C 405.5 620 408.25 619.875 416.375 620 L 417 619.125 C 416.125 606.875 416.125 603.75 416.125 592 L 416.25 582.75 M 395.625 602.625 C 393 604.125 389.625 605.875 385.5 605.875 C 381 605.875 377.25 603.5 377.25 598.25 C 377.25 590 387.125 588.625 395.625 587.5 Z M 563.25 531.375 C 550.25 531.75 548.125 531.75 534.25 531.75 L 533.5 532.5 L 527.75 552.75 L 522.75 570.875 L 516.875 592.625 L 511.375 570.25 L 507.875 556.125 L 501.625 532.125 L 501 531.375 C 487.625 531.75 485.375 531.75 471.375 531.75 L 470.625 532.5 C 469.375 569.875 468.875 579.5 466.125 619.625 L 466.75 620.375 C 474.75 620 477.125 619.875 484.375 620 L 485.125 619.25 L 485.5 595.375 L 486.25 571.125 L 486.75 547.5 L 492.25 569.625 L 497 587.375 L 505.375 619.625 L 506.125 620.375 C 513.875 620 516 619.875 524.75 620 L 525.5 619.25 L 532.75 592.625 L 537.75 574.375 L 544.75 548.125 L 544.75 570.5 L 545 589.625 L 545 619.625 L 545.625 620.375 C 554.25 620 557.625 619.875 567.25 620 L 567.875 619.25 C 567.125 605 566.25 590.625 565.75 576.25 C 565.375 568.375 565.125 560.5 564.75 552.625 C 564.125 541 564 539.5 564 532.125 Z M 645.625 586.75 C 645.625 581.875 645.625 561.625 628.125 554.75 C 622.625 552.625 616.125 552.375 612.875 552.375 C 591.125 552.375 578.875 564 578.875 587 C 578.875 595 580.125 603.125 584.75 609.875 C 588 614.75 594.125 621.5 612 621.5 C 638.5 621.5 645.625 605.5 645.625 586.75 M 624 586.625 C 624 596.875 622.625 608.25 612.25 608.25 C 609 608.25 606.75 606.75 605.25 605.375 C 603.125 603.25 600.75 599 600.75 586.875 C 600.75 583.25 600.75 575.25 603.25 570.875 C 605.125 567.5 608.375 565.25 612.375 565.25 C 615.875 565.25 618.75 567.125 620.375 569.125 C 623.375 572.75 624 579.875 624 586.625 Z M 718.75 619.125 C 718.125 608.125 718.125 604.625 717.875 592.375 L 717.875 582.625 C 717.75 570.625 717.625 564.875 714.5 559.75 C 710.625 553.25 703.5 552.25 699 552.25 C 691.375 552.25 684.75 556.25 679 559.625 L 679.25 552.75 L 678 551.875 C 668.375 553.875 666.25 554.25 656.875 555.5 L 656.125 556.375 C 657.125 567.25 657.875 575.125 657.875 595.5 C 657.875 603.5 657.75 611.5 657.625 619.5 L 658.375 620.25 C 667.375 619.875 669.25 619.875 679.25 619.875 L 680 619.125 C 679.25 599.875 679.125 595 679 572.625 C 681.625 570.875 684.625 568.75 688.625 568.75 C 695.5 568.75 696.125 576.125 696.5 580.625 C 696.75 584.75 696.875 601.875 696.875 606.625 C 696.875 610.875 696.75 615.25 696.75 619.5 L 697.5 620.25 C 705.75 620 707.875 619.875 717.875 619.875 Z M 755.625 619.125 C 755 609.5 754.5 602.125 754.5 584.875 C 754.5 574.25 754.75 563.5 754.875 552.875 L 754 551.875 L 732.5 555.625 L 731.75 556.375 C 732.75 565.875 733.125 570.25 733.125 588 C 733.125 601.625 732.75 609.25 732.375 619.5 L 733.125 620.375 C 742.125 620 744.625 619.875 754.75 620 L 755.625 619.125 M 753.625 539.875 L 754 522.875 L 753.25 522.125 L 732.875 524.625 L 732.125 525.5 C 732.375 530 732.5 532.625 732.5 535.625 C 732.5 538 732.5 540.5 732.375 542.875 L 733.25 543.625 C 741.75 542.125 744.125 541.875 753 540.75 Z M 818.375 602 C 815 604 811.75 606 805.375 606 C 791.25 606 788.375 594.25 788.375 586.75 C 788.375 577.625 792.375 567.125 804.5 567.125 C 810 567.125 813 569.125 816.75 571.625 L 818 571.25 C 818.5 564.625 818.625 562.875 819.625 556.25 L 819 555.5 C 813.5 553.75 808.75 552.25 801.5 552.25 C 772.125 552.25 766.375 574.5 766.375 587.25 C 766.375 601.625 773.875 621.125 802 621.125 C 808.625 621.125 812.875 619.875 818.125 618.375 L 818.875 617.625 L 819.375 602.625 Z M 885 582.75 C 885.125 571.5 885.125 566.625 881.875 561.375 C 879.375 557.375 874.375 552.375 858.375 552.375 C 847.625 552.375 841 554.375 833.875 556.5 L 833.125 557.5 L 832.5 571.125 L 833.5 571.625 C 837.875 569.875 846 566.625 854.375 566.625 C 859 566.625 860.875 567.375 862.5 569 C 863.75 570.25 864.125 572.5 864.125 574.375 C 849.125 576.375 842.125 577.75 834.625 582.375 C 827.625 586.75 825.25 593.875 825.25 599.5 C 825.25 612.875 834.875 621.5 847.125 621.5 C 856.5 621.5 861.875 617 864.5 614.875 L 864.5 619.5 L 865.25 620.375 C 874.25 620 877 619.875 885.125 620 L 885.75 619.125 C 884.875 606.875 884.875 603.75 884.875 592 L 885 582.75 M 864.375 602.625 C 861.75 604.125 858.375 605.875 854.25 605.875 C 849.75 605.875 846 603.5 846 598.25 C 846 590 855.875 588.625 864.375 587.5 Z M 892.125 620 "/>
<path fill-rule="nonzero" fill="rgb(34.901961%, 14.901961%, 14.901961%)" fill-opacity="1" d="M 190.125 716.25 C 179.625 711.875 174.125 709.625 174.125 704 C 174.125 700.125 177.75 695.25 186 695.25 C 195.5 695.25 201.125 699.125 205.75 702.25 L 206.875 701.75 L 207.875 685.375 L 207.25 684.5 C 201.875 682.25 196.25 679.875 184.125 679.875 C 160.625 679.875 152.5 693.125 152.5 706.5 C 152.5 721.625 164.25 727.125 171.25 730.5 L 175.375 732.375 C 184 736 190.625 739.125 190.625 745.75 C 190.625 750.5 186.5 756.125 175.625 756.125 C 164.25 756.125 157.875 751.125 154.25 748.25 L 153 748.625 L 152.125 766.25 L 152.875 767.25 C 154.25 767.75 155.625 768.375 157 768.75 C 159.875 769.75 167.25 771.875 176.625 771.875 C 180.375 771.875 189.875 771.5 197.375 768 C 207.875 762.875 212.375 753.375 212.375 742.75 C 212.375 735.625 209.625 728 203 722.875 C 199.625 720.375 196.375 718.875 193.375 717.5 Z M 259.25 755.625 C 257.125 756.25 255.625 756.75 253.5 756.75 C 247.125 756.75 246.625 752.75 246.375 750.875 C 246 747.625 246 740.75 246.125 735.75 L 246.375 718.125 L 257.625 718.625 L 258.375 717.875 L 259.625 704.5 L 258.875 703.75 L 246.375 703.75 L 246.75 682.75 L 245.875 682 C 237.375 684.5 235.125 685.125 226.25 687.375 L 225.75 688.25 L 225.875 703.875 L 219.125 703.625 L 218.375 704.25 L 217.25 717.625 L 218 718.375 L 225.875 718.125 L 225.5 738 C 225.375 741.125 225.25 744.25 225.25 747.5 C 225.25 759 225.5 771.375 245 771.375 C 249.875 771.375 253.75 770.625 258.125 769.875 L 259 769 L 260.25 756.125 Z M 324.125 732.75 C 324.25 721.5 324.25 716.625 321 711.375 C 318.5 707.375 313.5 702.375 297.5 702.375 C 286.75 702.375 280.125 704.375 273 706.5 L 272.25 707.5 L 271.625 721.125 L 272.625 721.625 C 277 719.875 285.125 716.625 293.5 716.625 C 298.125 716.625 300 717.375 301.625 719 C 302.875 720.25 303.25 722.5 303.25 724.375 C 288.25 726.375 281.25 727.75 273.75 732.375 C 266.75 736.75 264.375 743.875 264.375 749.5 C 264.375 762.875 274 771.5 286.25 771.5 C 295.625 771.5 301 767 303.625 764.875 L 303.625 769.5 L 304.375 770.375 C 313.375 770 316.125 769.875 324.25 770 L 324.875 769.125 C 324 756.875 324 753.75 324 742 L 324.125 732.75 M 303.5 752.625 C 300.875 754.125 297.5 755.875 293.375 755.875 C 288.875 755.875 285.125 753.5 285.125 748.25 C 285.125 740 295 738.625 303.5 737.5 Z M 373.75 755.625 C 371.625 756.25 370.125 756.75 368 756.75 C 361.625 756.75 361.125 752.75 360.875 750.875 C 360.5 747.625 360.5 740.75 360.625 735.75 L 360.875 718.125 L 372.125 718.625 L 372.875 717.875 L 374.125 704.5 L 373.375 703.75 L 360.875 703.75 L 361.25 682.75 L 360.375 682 C 351.875 684.5 349.625 685.125 340.75 687.375 L 340.25 688.25 L 340.375 703.875 L 333.625 703.625 L 332.875 704.25 L 331.75 717.625 L 332.5 718.375 L 340.375 718.125 L 340 738 C 339.875 741.125 339.75 744.25 339.75 747.5 C 339.75 759 340 771.375 359.5 771.375 C 364.375 771.375 368.25 770.625 372.625 769.875 L 373.5 769 L 374.75 756.125 Z M 438.5 751.5 C 433.75 754 428.125 756.875 419 756.875 C 411.5 756.875 406.375 754.5 403.375 750 C 401.5 747.375 401.125 744.875 400.625 742.375 L 441 741.625 L 441.75 740.75 C 441.625 734.625 441.5 728.375 439.75 722.125 C 435.375 707.375 425.75 704.375 421.5 703.375 C 418.375 702.5 415.5 702.25 412.625 702.25 C 393 702.25 380 715.125 380 736.75 C 380 742.625 381 748.75 383 753.125 C 390.25 770 407.25 771.5 416.25 771.5 C 426.625 771.5 431.125 769.625 437.75 767 L 438.5 766 L 439.375 751.875 L 438.5 751.5 M 400.625 729.125 C 401 725.25 401.875 720 406.625 717 C 408.125 716 409.875 715.625 411.625 715.625 C 415.75 715.625 418.25 717.75 419.625 720 C 421.375 722.75 421.5 725.75 421.5 728.625 Z M 513 770 C 524.625 770.25 539 770.5 548.375 764 C 556.625 758.125 558.875 749.875 558.875 742.875 C 558.875 734.875 555.5 727.5 548.375 724 C 546 722.75 543.25 722.25 540.625 721.75 C 544.875 720 549.875 717.75 553.125 711.125 C 554.5 708.25 555.125 705.25 555.125 702.375 C 555.125 698.375 554.125 692.875 550.125 688.375 C 544.875 682.75 536.75 681.25 524.5 681.25 C 520.25 681.25 512.625 681.375 508.375 681.5 L 490.875 681.75 L 490.125 682.5 C 490.625 694.5 490.75 699.125 490.75 716.375 C 490.75 734.125 490.625 751.75 490.375 769.5 L 491.25 770 L 513 770 M 512.125 732 C 521.625 731.75 527.125 731.75 530.75 733.875 C 534.375 736.125 535.75 740.125 535.75 744.125 C 535.75 749.75 532.625 753.25 528 754.875 C 524.25 756.125 517.5 756.125 512.125 756 L 512.125 732 M 512.125 695.25 C 514.75 695.25 518.25 695.125 520.375 695.125 C 527.125 695.125 533.25 697.5 533.25 705.625 C 533.25 712.25 528.375 715 526.875 715.75 C 523.75 717.125 517.125 717.125 512.125 717.125 Z M 626 751.5 C 621.25 754 615.625 756.875 606.5 756.875 C 599 756.875 593.875 754.5 590.875 750 C 589 747.375 588.625 744.875 588.125 742.375 L 628.5 741.625 L 629.25 740.75 C 629.125 734.625 629 728.375 627.25 722.125 C 622.875 707.375 613.25 704.375 609 703.375 C 605.875 702.5 603 702.25 600.125 702.25 C 580.5 702.25 567.5 715.125 567.5 736.75 C 567.5 742.625 568.5 748.75 570.5 753.125 C 577.75 770 594.75 771.5 603.75 771.5 C 614.125 771.5 618.625 769.625 625.25 767 L 626 766 L 626.875 751.875 L 626 751.5 M 588.125 729.125 C 588.5 725.25 589.375 720 594.125 717 C 595.625 716 597.375 715.625 599.125 715.625 C 603.25 715.625 605.75 717.75 607.125 720 C 608.875 722.75 609 725.75 609 728.625 Z M 696.375 732.75 C 696.5 721.5 696.5 716.625 693.25 711.375 C 690.75 707.375 685.75 702.375 669.75 702.375 C 659 702.375 652.375 704.375 645.25 706.5 L 644.5 707.5 L 643.875 721.125 L 644.875 721.625 C 649.25 719.875 657.375 716.625 665.75 716.625 C 670.375 716.625 672.25 717.375 673.875 719 C 675.125 720.25 675.5 722.5 675.5 724.375 C 660.5 726.375 653.5 727.75 646 732.375 C 639 736.75 636.625 743.875 636.625 749.5 C 636.625 762.875 646.25 771.5 658.5 771.5 C 667.875 771.5 673.25 767 675.875 764.875 L 675.875 769.5 L 676.625 770.375 C 685.625 770 688.375 769.875 696.5 770 L 697.125 769.125 C 696.25 756.875 696.25 753.75 696.25 742 L 696.375 732.75 M 675.75 752.625 C 673.125 754.125 669.75 755.875 665.625 755.875 C 661.125 755.875 657.375 753.5 657.375 748.25 C 657.375 740 667.25 738.625 675.75 737.5 Z M 759.875 752 C 756.5 754 753.25 756 746.875 756 C 732.75 756 729.875 744.25 729.875 736.75 C 729.875 727.625 733.875 717.125 746 717.125 C 751.5 717.125 754.5 719.125 758.25 721.625 L 759.5 721.25 C 760 714.625 760.125 712.875 761.125 706.25 L 760.5 705.5 C 755 703.75 750.25 702.25 743 702.25 C 713.625 702.25 707.875 724.5 707.875 737.25 C 707.875 751.625 715.375 771.125 743.5 771.125 C 750.125 771.125 754.375 769.875 759.625 768.375 L 760.375 767.625 L 760.875 752.625 Z M 832.125 769.125 C 831.625 758.875 831.5 755.375 831.25 742.375 L 831.25 733 C 831.125 721.125 831 714.25 827.375 709 C 823.75 703.875 818.5 702.25 813 702.25 C 803.875 702.25 796.75 706.625 791.75 709.625 L 792.125 671.125 L 791.375 670.25 L 770 673.625 L 769.375 674.375 C 770.5 686.5 770.75 691 771 707.125 C 771.25 717.25 771.375 727.375 771.375 737.5 C 771.375 749.875 771.125 757.25 770.875 769.5 L 771.5 770.375 C 780.75 769.875 782.625 769.875 792.75 769.875 L 793.5 769.125 C 792.625 750.375 792.5 744.75 792.375 722.625 C 794.75 721 797.75 718.875 802 718.875 C 808.875 718.875 809.375 726 809.875 731 C 810.125 734.875 810.25 752.625 810.25 757.25 C 810.25 761.375 810.125 765.375 810.125 769.5 L 810.75 770.375 C 819.75 769.875 821.75 769.875 831.375 769.875 Z M 838.875 770 "/>
</svg>
