<?xml version="1.0" encoding="UTF-8"?>
<svg xmlns="http://www.w3.org/2000/svg" xmlns:xlink="http://www.w3.org/1999/xlink" width="975" height="1300" viewBox="0 0 975 1300">
<path fill-rule="nonzero" fill="rgb(34.901961%, 14.901961%, 14.901961%)" fill-opacity="1" d="M 281.0625 381.375 C 269.0625 381.75 266.5625 381.75 253.1875 381.75 L 252.3125 382.5 C 245.6875 403.75 241.6875 416.375 223.3125 469.125 L 223.8125 470 L 243.3125 470 L 244.1875 469.25 L 250.3125 446.5 L 277.3125 446.5 L 282.6875 469.625 L 283.5625 470.375 C 292.6875 470 295.1875 469.875 305.3125 470 L 305.9375 469 C 290.8125 415.5 289.0625 409.625 281.9375 382.125 L 281.0625 381.375 M 254.6875 431.375 L 260.9375 410.25 L 265.3125 395.625 L 269.0625 411.875 L 273.6875 431.375 Z M 375.1875 469.125 C 374.5625 458.125 374.5625 454.625 374.3125 442.375 L 374.3125 432.625 C 374.1875 420.625 374.0625 414.875 370.9375 409.75 C 367.0625 403.25 359.9375 402.25 355.4375 402.25 C 347.8125 402.25 341.1875 406.25 335.4375 409.625 L 335.6875 402.75 L 334.4375 401.875 C 324.8125 403.875 322.6875 404.25 313.3125 405.5 L 312.5625 406.375 C 313.5625 417.25 314.3125 425.125 314.3125 445.5 C 314.3125 453.5 314.1875 461.5 314.0625 469.5 L 314.8125 470.25 C 323.8125 469.875 325.6875 469.875 335.6875 469.875 L 336.4375 469.125 C 335.6875 449.875 335.5625 445 335.4375 422.625 C 338.0625 420.875 341.0625 418.75 345.0625 418.75 C 351.9375 418.75 352.5625 426.125 352.9375 430.625 C 353.1875 434.75 353.3125 451.875 353.3125 456.625 C 353.3125 460.875 353.1875 465.25 353.1875 469.5 L 353.9375 470.25 C 362.1875 470 364.3125 469.875 374.3125 469.875 Z M 424.4375 455.625 C 422.3125 456.25 420.8125 456.75 418.6875 456.75 C 412.3125 456.75 411.8125 452.75 411.5625 450.875 C 411.1875 447.625 411.1875 440.75 411.3125 435.75 L 411.5625 418.125 L 422.8125 418.625 L 423.5625 417.875 L 424.8125 404.5 L 424.0625 403.75 L 411.5625 403.75 L 411.9375 382.75 L 411.0625 382 C 402.5625 384.5 400.3125 385.125 391.4375 387.375 L 390.9375 388.25 L 391.0625 403.875 L 384.3125 403.625 L 383.5625 404.25 L 382.4375 417.625 L 383.1875 418.375 L 391.0625 418.125 L 390.6875 438 C 390.5625 441.125 390.4375 444.25 390.4375 447.5 C 390.4375 459 390.6875 471.375 410.1875 471.375 C 415.0625 471.375 418.9375 470.625 423.3125 469.875 L 424.1875 469 L 425.4375 456.125 Z M 489.1875 451.5 C 484.4375 454 478.8125 456.875 469.6875 456.875 C 462.1875 456.875 457.0625 454.5 454.0625 450 C 452.1875 447.375 451.8125 444.875 451.3125 442.375 L 491.6875 441.625 L 492.4375 440.75 C 492.3125 434.625 492.1875 428.375 490.4375 422.125 C 486.0625 407.375 476.4375 404.375 472.1875 403.375 C 469.0625 402.5 466.1875 402.25 463.3125 402.25 C 443.6875 402.25 430.6875 415.125 430.6875 436.75 C 430.6875 442.625 431.6875 448.75 433.6875 453.125 C 440.9375 470 457.9375 471.5 466.9375 471.5 C 477.3125 471.5 481.8125 469.625 488.4375 467 L 489.1875 466 L 490.0625 451.875 L 489.1875 451.5 M 451.3125 429.125 C 451.6875 425.25 452.5625 420 457.3125 417 C 458.8125 416 460.5625 415.625 462.3125 415.625 C 466.4375 415.625 468.9375 417.75 470.3125 420 C 472.0625 422.75 472.1875 425.75 472.1875 428.625 Z M 525.9375 469.125 C 525.3125 454.75 524.6875 441.625 524.6875 402.125 C 524.6875 390.25 524.8125 384.625 525.3125 371.125 L 524.4375 370.25 L 503.0625 373.625 L 502.5625 374.375 C 503.8125 389.625 503.9375 393.75 504.1875 414 C 504.3125 421.375 504.3125 428.75 504.3125 436.125 C 504.3125 449.625 504.0625 457.125 503.5625 469.5 L 504.3125 470.375 C 512.6875 470 516.0625 469.875 525.1875 470 Z M 604.0625 436.75 C 604.0625 431.875 604.0625 411.625 586.5625 404.75 C 581.0625 402.625 574.5625 402.375 571.3125 402.375 C 549.5625 402.375 537.3125 414 537.3125 437 C 537.3125 445 538.5625 453.125 543.1875 459.875 C 546.4375 464.75 552.5625 471.5 570.4375 471.5 C 596.9375 471.5 604.0625 455.5 604.0625 436.75 M 582.4375 436.625 C 582.4375 446.875 581.0625 458.25 570.6875 458.25 C 567.4375 458.25 565.1875 456.75 563.6875 455.375 C 561.5625 453.25 559.1875 449 559.1875 436.875 C 559.1875 433.25 559.1875 425.25 561.6875 420.875 C 563.5625 417.5 566.8125 415.25 570.8125 415.25 C 574.3125 415.25 577.1875 417.125 578.8125 419.125 C 581.8125 422.75 582.4375 429.875 582.4375 436.625 Z M 636.6875 403.125 L 635.6875 402 C 626.5625 404 623.9375 404.5 614.9375 405.625 L 614.1875 406.5 C 615.5625 421.375 616.0625 427.125 616.0625 463.125 C 616.0625 478 615.8125 486.5 615.4375 500.625 L 616.1875 501.25 C 625.0625 500.875 627.6875 500.75 637.1875 500.875 L 637.9375 500.25 L 637.0625 470.5 C 646.1875 470.375 658.8125 470.25 668.9375 460.75 C 676.9375 453.25 679.5625 442.625 679.5625 434.125 C 679.5625 414.25 667.4375 402.25 653.4375 402.25 C 644.8125 402.25 639.9375 405.75 636.4375 408.125 L 636.6875 403.125 M 636.9375 420.125 C 639.6875 418.5 641.3125 417.625 644.4375 417.625 C 646.3125 417.625 650.0625 417.875 653.1875 421.375 C 657.0625 425.625 657.6875 432 657.6875 436.25 C 657.6875 443.5 655.3125 450 650.3125 453.5 C 646.3125 456.25 641.3125 456.5 636.9375 456.625 Z M 746.9375 451.5 C 742.1875 454 736.5625 456.875 727.4375 456.875 C 719.9375 456.875 714.8125 454.5 711.8125 450 C 709.9375 447.375 709.5625 444.875 709.0625 442.375 L 749.4375 441.625 L 750.1875 440.75 C 750.0625 434.625 749.9375 428.375 748.1875 422.125 C 743.8125 407.375 734.1875 404.375 729.9375 403.375 C 726.8125 402.5 723.9375 402.25 721.0625 402.25 C 701.4375 402.25 688.4375 415.125 688.4375 436.75 C 688.4375 442.625 689.4375 448.75 691.4375 453.125 C 698.6875 470 715.6875 471.5 724.6875 471.5 C 735.0625 471.5 739.5625 469.625 746.1875 467 L 746.9375 466 L 747.8125 451.875 L 746.9375 451.5 M 709.0625 429.125 C 709.4375 425.25 710.3125 420 715.0625 417 C 716.5625 416 718.3125 415.625 720.0625 415.625 C 724.1875 415.625 726.6875 417.75 728.0625 420 C 729.8125 422.75 729.9375 425.75 729.9375 428.625 Z M 754.1875 470 "/>
<path fill-rule="nonzero" fill="rgb(34.901961%, 14.901961%, 14.901961%)" fill-opacity="1" d="M 160.4375 619.125 C 165.8125 596.5 167.6875 590 184.6875 532 L 184.0625 531.375 C 174.6875 531.75 172.1875 531.75 164.6875 531.75 L 163.9375 532.5 C 161.5625 544.75 160.9375 548 157.4375 561.875 L 153.4375 578.25 L 148.0625 601.375 L 141.4375 571.875 L 138.8125 560.625 C 135.6875 547.75 134.8125 543.5 132.1875 531.375 L 131.4375 530.75 C 121.0625 531.5 118.8125 531.625 109.0625 531.625 L 108.4375 532.375 C 116.8125 561.25 124.3125 587.75 128.5625 604.25 C 129.8125 609.375 131.0625 614.5 132.3125 619.625 L 133.0625 620.375 C 143.9375 620 146.6875 619.875 159.6875 620 Z M 246.0625 582.75 C 246.1875 571.5 246.1875 566.625 242.9375 561.375 C 240.4375 557.375 235.4375 552.375 219.4375 552.375 C 208.6875 552.375 202.0625 554.375 194.9375 556.5 L 194.1875 557.5 L 193.5625 571.125 L 194.5625 571.625 C 198.9375 569.875 207.0625 566.625 215.4375 566.625 C 220.0625 566.625 221.9375 567.375 223.5625 569 C 224.8125 570.25 225.1875 572.5 225.1875 574.375 C 210.1875 576.375 203.1875 577.75 195.6875 582.375 C 188.6875 586.75 186.3125 593.875 186.3125 599.5 C 186.3125 612.875 195.9375 621.5 208.1875 621.5 C 217.5625 621.5 222.9375 617 225.5625 614.875 L 225.5625 619.5 L 226.3125 620.375 C 235.3125 620 238.0625 619.875 246.1875 620 L 246.8125 619.125 C 245.9375 606.875 245.9375 603.75 245.9375 592 L 246.0625 582.75 M 225.4375 602.625 C 222.8125 604.125 219.4375 605.875 215.3125 605.875 C 210.8125 605.875 207.0625 603.5 207.0625 598.25 C 207.0625 590 216.9375 588.625 225.4375 587.5 Z M 282.6875 619.125 C 282.0625 604.75 281.4375 591.625 281.4375 552.125 C 281.4375 540.25 281.5625 534.625 282.0625 521.125 L 281.1875 520.25 L 259.8125 523.625 L 259.3125 524.375 C 260.5625 539.625 260.6875 543.75 260.9375 564 C 261.0625 571.375 261.0625 578.75 261.0625 586.125 C 261.0625 599.625 260.8125 607.125 260.3125 619.5 L 261.0625 620.375 C 269.4375 620 272.8125 619.875 281.9375 620 Z M 319.1875 619.125 C 318.5625 604.75 317.9375 591.625 317.9375 552.125 C 317.9375 540.25 318.0625 534.625 318.5625 521.125 L 317.6875 520.25 L 296.3125 523.625 L 295.8125 524.375 C 297.0625 539.625 297.1875 543.75 297.4375 564 C 297.5625 571.375 297.5625 578.75 297.5625 586.125 C 297.5625 599.625 297.3125 607.125 296.8125 619.5 L 297.5625 620.375 C 305.9375 620 309.3125 619.875 318.4375 620 Z M 389.1875 601.5 C 384.4375 604 378.8125 606.875 369.6875 606.875 C 362.1875 606.875 357.0625 604.5 354.0625 600 C 352.1875 597.375 351.8125 594.875 351.3125 592.375 L 391.6875 591.625 L 392.4375 590.75 C 392.3125 584.625 392.1875 578.375 390.4375 572.125 C 386.0625 557.375 376.4375 554.375 372.1875 553.375 C 369.0625 552.5 366.1875 552.25 363.3125 552.25 C 343.6875 552.25 330.6875 565.125 330.6875 586.75 C 330.6875 592.625 331.6875 598.75 333.6875 603.125 C 340.9375 620 357.9375 621.5 366.9375 621.5 C 377.3125 621.5 381.8125 619.625 388.4375 617 L 389.1875 616 L 390.0625 601.875 L 389.1875 601.5 M 351.3125 579.125 C 351.6875 575.25 352.5625 570 357.3125 567 C 358.8125 566 360.5625 565.625 362.3125 565.625 C 366.4375 565.625 368.9375 567.75 370.3125 570 C 372.0625 572.75 372.1875 575.75 372.1875 578.625 Z M 459.8125 553.375 L 442.4375 553.75 L 441.4375 554.625 C 439.3125 563.25 438.8125 565.125 435.8125 574.875 L 432.5625 585.625 L 429.8125 595 L 427.4375 586.125 L 423.8125 572.875 L 418.8125 553.875 L 417.8125 553.125 C 408.0625 553.875 405.9375 554 395.6875 554.25 L 395.0625 555.125 C 399.5625 567 411.1875 598.375 418.9375 622.375 C 413.8125 635.375 412.8125 637.625 407.1875 650 L 407.8125 651 C 410.9375 650.875 414.4375 650.75 417.6875 650.75 C 420.8125 650.75 424.0625 650.875 427.1875 650.875 L 428.0625 650.125 C 434.9375 623.125 438.3125 612.625 454.8125 569.125 C 456.6875 564.125 458.5625 559.25 460.3125 554.375 Z M 519.6875 531.5 L 503.8125 531.75 L 503.0625 532.5 C 503.5625 548.75 503.9375 559.625 503.9375 574 C 503.9375 589.25 503.5625 604.375 503.1875 619.625 L 503.9375 620.375 C 513.1875 620 515.1875 619.875 525.1875 620 L 525.8125 619.25 C 525.3125 605.625 525.3125 602.5 525.3125 589.75 C 539.3125 589.875 554.3125 589.875 563.3125 578.875 C 566.8125 574.625 569.8125 567.5 569.8125 558.75 C 569.8125 553.375 568.5625 541.5 558.1875 535.625 C 550.6875 531.25 540.0625 531.25 530.6875 531.25 L 519.6875 531.5 M 525.3125 546.625 C 528.0625 546.5 530.6875 546.5 533.4375 546.5 C 544.4375 546.75 547.4375 552.375 547.4375 559.625 C 547.4375 561.375 547.4375 568.625 540.8125 572.25 C 537.4375 574.125 532.8125 574.375 525.3125 574.375 Z M 642.0625 586.75 C 642.0625 581.875 642.0625 561.625 624.5625 554.75 C 619.0625 552.625 612.5625 552.375 609.3125 552.375 C 587.5625 552.375 575.3125 564 575.3125 587 C 575.3125 595 576.5625 603.125 581.1875 609.875 C 584.4375 614.75 590.5625 621.5 608.4375 621.5 C 634.9375 621.5 642.0625 605.5 642.0625 586.75 M 620.4375 586.625 C 620.4375 596.875 619.0625 608.25 608.6875 608.25 C 605.4375 608.25 603.1875 606.75 601.6875 605.375 C 599.5625 603.25 597.1875 599 597.1875 586.875 C 597.1875 583.25 597.1875 575.25 599.6875 570.875 C 601.5625 567.5 604.8125 565.25 608.8125 565.25 C 612.3125 565.25 615.1875 567.125 616.8125 569.125 C 619.8125 572.75 620.4375 579.875 620.4375 586.625 Z M 674.6875 553.125 L 673.6875 552 C 664.5625 554 661.9375 554.5 652.9375 555.625 L 652.1875 556.5 C 653.5625 571.375 654.0625 577.125 654.0625 613.125 C 654.0625 628 653.8125 636.5 653.4375 650.625 L 654.1875 651.25 C 663.0625 650.875 665.6875 650.75 675.1875 650.875 L 675.9375 650.25 L 675.0625 620.5 C 684.1875 620.375 696.8125 620.25 706.9375 610.75 C 714.9375 603.25 717.5625 592.625 717.5625 584.125 C 717.5625 564.25 705.4375 552.25 691.4375 552.25 C 682.8125 552.25 677.9375 555.75 674.4375 558.125 L 674.6875 553.125 M 674.9375 570.125 C 677.6875 568.5 679.3125 567.625 682.4375 567.625 C 684.3125 567.625 688.0625 567.875 691.1875 571.375 C 695.0625 575.625 695.6875 582 695.6875 586.25 C 695.6875 593.5 693.3125 600 688.3125 603.5 C 684.3125 606.25 679.3125 606.5 674.9375 606.625 Z M 750.1875 553.125 L 749.1875 552 C 740.0625 554 737.4375 554.5 728.4375 555.625 L 727.6875 556.5 C 729.0625 571.375 729.5625 577.125 729.5625 613.125 C 729.5625 628 729.3125 636.5 728.9375 650.625 L 729.6875 651.25 C 738.5625 650.875 741.1875 650.75 750.6875 650.875 L 751.4375 650.25 L 750.5625 620.5 C 759.6875 620.375 772.3125 620.25 782.4375 610.75 C 790.4375 603.25 793.0625 592.625 793.0625 584.125 C 793.0625 564.25 780.9375 552.25 766.9375 552.25 C 758.3125 552.25 753.4375 555.75 749.9375 558.125 L 750.1875 553.125 M 750.4375 570.125 C 753.1875 568.5 754.8125 567.625 757.9375 567.625 C 759.8125 567.625 763.5625 567.875 766.6875 571.375 C 770.5625 575.625 771.1875 582 771.1875 586.25 C 771.1875 593.5 768.8125 600 763.8125 603.5 C 759.8125 606.25 754.8125 606.5 750.4375 606.625 Z M 860.8125 553.375 L 843.4375 553.75 L 842.4375 554.625 C 840.3125 563.25 839.8125 565.125 836.8125 574.875 L 833.5625 585.625 L 830.8125 595 L 828.4375 586.125 L 824.8125 572.875 L 819.8125 553.875 L 818.8125 553.125 C 809.0625 553.875 806.9375 554 796.6875 554.25 L 796.0625 555.125 C 800.5625 567 812.1875 598.375 819.9375 622.375 C 814.8125 635.375 813.8125 637.625 808.1875 650 L 808.8125 651 C 811.9375 650.875 815.4375 650.75 818.6875 650.75 C 821.8125 650.75 825.0625 650.875 828.1875 650.875 L 829.0625 650.125 C 835.9375 623.125 839.3125 612.625 855.8125 569.125 C 857.6875 564.125 859.5625 559.25 861.3125 554.375 Z M 859.9375 620 "/>
<path fill-rule="nonzero" fill="rgb(34.901961%, 14.901961%, 14.901961%)" fill-opacity="1" d="M 151.1875 716.25 C 140.6875 711.875 135.1875 709.625 135.1875 704 C 135.1875 700.125 138.8125 695.25 147.0625 695.25 C 156.5625 695.25 162.1875 699.125 166.8125 702.25 L 167.9375 701.75 L 168.9375 685.375 L 168.3125 684.5 C 162.9375 682.25 157.3125 679.875 145.1875 679.875 C 121.6875 679.875 113.5625 693.125 113.5625 706.5 C 113.5625 721.625 125.3125 727.125 132.3125 730.5 L 136.4375 732.375 C 145.0625 736 151.6875 739.125 151.6875 745.75 C 151.6875 750.5 147.5625 756.125 136.6875 756.125 C 125.3125 756.125 118.9375 751.125 115.3125 748.25 L 114.0625 748.625 L 113.1875 766.25 L 113.9375 767.25 C 115.3125 767.75 116.6875 768.375 118.0625 768.75 C 120.9375 769.75 128.3125 771.875 137.6875 771.875 C 141.4375 771.875 150.9375 771.5 158.4375 768 C 168.9375 762.875 173.4375 753.375 173.4375 742.75 C 173.4375 735.625 170.6875 728 164.0625 722.875 C 160.6875 720.375 157.4375 718.875 154.4375 717.5 Z M 220.3125 755.625 C 218.1875 756.25 216.6875 756.75 214.5625 756.75 C 208.1875 756.75 207.6875 752.75 207.4375 750.875 C 207.0625 747.625 207.0625 740.75 207.1875 735.75 L 207.4375 718.125 L 218.6875 718.625 L 219.4375 717.875 L 220.6875 704.5 L 219.9375 703.75 L 207.4375 703.75 L 207.8125 682.75 L 206.9375 682 C 198.4375 684.5 196.1875 685.125 187.3125 687.375 L 186.8125 688.25 L 186.9375 703.875 L 180.1875 703.625 L 179.4375 704.25 L 178.3125 717.625 L 179.0625 718.375 L 186.9375 718.125 L 186.5625 738 C 186.4375 741.125 186.3125 744.25 186.3125 747.5 C 186.3125 759 186.5625 771.375 206.0625 771.375 C 210.9375 771.375 214.8125 770.625 219.1875 769.875 L 220.0625 769 L 221.3125 756.125 Z M 285.1875 732.75 C 285.3125 721.5 285.3125 716.625 282.0625 711.375 C 279.5625 707.375 274.5625 702.375 258.5625 702.375 C 247.8125 702.375 241.1875 704.375 234.0625 706.5 L 233.3125 707.5 L 232.6875 721.125 L 233.6875 721.625 C 238.0625 719.875 246.1875 716.625 254.5625 716.625 C 259.1875 716.625 261.0625 717.375 262.6875 719 C 263.9375 720.25 264.3125 722.5 264.3125 724.375 C 249.3125 726.375 242.3125 727.75 234.8125 732.375 C 227.8125 736.75 225.4375 743.875 225.4375 749.5 C 225.4375 762.875 235.0625 771.5 247.3125 771.5 C 256.6875 771.5 262.0625 767 264.6875 764.875 L 264.6875 769.5 L 265.4375 770.375 C 274.4375 770 277.1875 769.875 285.3125 770 L 285.9375 769.125 C 285.0625 756.875 285.0625 753.75 285.0625 742 L 285.1875 732.75 M 264.5625 752.625 C 261.9375 754.125 258.5625 755.875 254.4375 755.875 C 249.9375 755.875 246.1875 753.5 246.1875 748.25 C 246.1875 740 256.0625 738.625 264.5625 737.5 Z M 334.8125 755.625 C 332.6875 756.25 331.1875 756.75 329.0625 756.75 C 322.6875 756.75 322.1875 752.75 321.9375 750.875 C 321.5625 747.625 321.5625 740.75 321.6875 735.75 L 321.9375 718.125 L 333.1875 718.625 L 333.9375 717.875 L 335.1875 704.5 L 334.4375 703.75 L 321.9375 703.75 L 322.3125 682.75 L 321.4375 682 C 312.9375 684.5 310.6875 685.125 301.8125 687.375 L 301.3125 688.25 L 301.4375 703.875 L 294.6875 703.625 L 293.9375 704.25 L 292.8125 717.625 L 293.5625 718.375 L 301.4375 718.125 L 301.0625 738 C 300.9375 741.125 300.8125 744.25 300.8125 747.5 C 300.8125 759 301.0625 771.375 320.5625 771.375 C 325.4375 771.375 329.3125 770.625 333.6875 769.875 L 334.5625 769 L 335.8125 756.125 Z M 399.5625 751.5 C 394.8125 754 389.1875 756.875 380.0625 756.875 C 372.5625 756.875 367.4375 754.5 364.4375 750 C 362.5625 747.375 362.1875 744.875 361.6875 742.375 L 402.0625 741.625 L 402.8125 740.75 C 402.6875 734.625 402.5625 728.375 400.8125 722.125 C 396.4375 707.375 386.8125 704.375 382.5625 703.375 C 379.4375 702.5 376.5625 702.25 373.6875 702.25 C 354.0625 702.25 341.0625 715.125 341.0625 736.75 C 341.0625 742.625 342.0625 748.75 344.0625 753.125 C 351.3125 770 368.3125 771.5 377.3125 771.5 C 387.6875 771.5 392.1875 769.625 398.8125 767 L 399.5625 766 L 400.4375 751.875 L 399.5625 751.5 M 361.6875 729.125 C 362.0625 725.25 362.9375 720 367.6875 717 C 369.1875 716 370.9375 715.625 372.6875 715.625 C 376.8125 715.625 379.3125 717.75 380.6875 720 C 382.4375 722.75 382.5625 725.75 382.5625 728.625 Z M 525.9375 681.375 C 518.0625 681.75 515.9375 681.875 508.1875 681.75 L 507.5625 682.5 L 508.4375 699.375 L 508.9375 716.625 L 509.4375 737.25 C 505.8125 731.125 505.1875 730.125 498.8125 720.625 L 487.4375 704 C 478.0625 689.75 476.1875 687 473.0625 682 L 472.1875 681.375 C 462.3125 681.875 460.6875 681.875 451.5625 681.75 L 450.9375 682.5 C 451.5625 701.875 451.9375 716.25 451.9375 733 C 451.9375 745.25 451.6875 757.5 451.5625 769.625 L 452.1875 770.375 C 460.5625 770 463.1875 770 470.4375 770 L 471.0625 769.25 L 469.8125 741.875 L 469.4375 726.5 L 468.6875 709.75 C 474.5625 719.5 476.5625 722.75 485.0625 735.125 L 497.5625 753.5 L 508.6875 769.75 L 509.5625 770.375 C 517.1875 770 519.4375 770 526.0625 770 L 526.6875 769.375 C 526.5625 751.25 526.4375 739 526.4375 724 C 526.4375 710 526.5625 696.125 526.6875 682.125 Z M 597.5625 732.75 C 597.6875 721.5 597.6875 716.625 594.4375 711.375 C 591.9375 707.375 586.9375 702.375 570.9375 702.375 C 560.1875 702.375 553.5625 704.375 546.4375 706.5 L 545.6875 707.5 L 545.0625 721.125 L 546.0625 721.625 C 550.4375 719.875 558.5625 716.625 566.9375 716.625 C 571.5625 716.625 573.4375 717.375 575.0625 719 C 576.3125 720.25 576.6875 722.5 576.6875 724.375 C 561.6875 726.375 554.6875 727.75 547.1875 732.375 C 540.1875 736.75 537.8125 743.875 537.8125 749.5 C 537.8125 762.875 547.4375 771.5 559.6875 771.5 C 569.0625 771.5 574.4375 767 577.0625 764.875 L 577.0625 769.5 L 577.8125 770.375 C 586.8125 770 589.5625 769.875 597.6875 770 L 598.3125 769.125 C 597.4375 756.875 597.4375 753.75 597.4375 742 L 597.5625 732.75 M 576.9375 752.625 C 574.3125 754.125 570.9375 755.875 566.8125 755.875 C 562.3125 755.875 558.5625 753.5 558.5625 748.25 C 558.5625 740 568.4375 738.625 576.9375 737.5 Z M 647.1875 755.625 C 645.0625 756.25 643.5625 756.75 641.4375 756.75 C 635.0625 756.75 634.5625 752.75 634.3125 750.875 C 633.9375 747.625 633.9375 740.75 634.0625 735.75 L 634.3125 718.125 L 645.5625 718.625 L 646.3125 717.875 L 647.5625 704.5 L 646.8125 703.75 L 634.3125 703.75 L 634.6875 682.75 L 633.8125 682 C 625.3125 684.5 623.0625 685.125 614.1875 687.375 L 613.6875 688.25 L 613.8125 703.875 L 607.0625 703.625 L 606.3125 704.25 L 605.1875 717.625 L 605.9375 718.375 L 613.8125 718.125 L 613.4375 738 C 613.3125 741.125 613.1875 744.25 613.1875 747.5 C 613.1875 759 613.4375 771.375 632.9375 771.375 C 637.8125 771.375 641.6875 770.625 646.0625 769.875 L 646.9375 769 L 648.1875 756.125 Z M 716.4375 703.125 L 696.0625 704.125 L 695.1875 704.875 C 696.0625 719 696.0625 739 696.0625 741 C 696.0625 744.625 696.0625 746.625 695.9375 751.625 C 692.5625 753.875 689.9375 755.75 686.5625 755.75 C 677.5625 755.75 677.5625 746.25 677.5625 738.875 C 677.5625 735.75 677.5625 732.5 677.6875 729.375 L 677.9375 704.125 L 677.0625 703.125 L 656.4375 704.125 L 655.5625 704.875 C 656.3125 715.375 656.4375 718.875 656.4375 731.5 L 656.4375 740.25 C 656.3125 753.875 656.9375 759.625 661.4375 764.875 C 665.5625 769.5 671.5625 771.5 677.8125 771.5 C 686.6875 771.5 691.8125 767.5 696.3125 764 L 696.1875 769.625 L 697.0625 770.375 C 706.1875 770 708.9375 770 717.0625 770 L 717.8125 769.25 C 717.1875 760.375 716.9375 755.625 716.9375 739.375 C 716.9375 727.625 717.0625 715.875 717.3125 704.125 Z M 768.0625 723.625 L 771.5625 703.25 L 770.8125 702.375 C 769.9375 702.375 769.0625 702.25 768.1875 702.25 C 763.0625 702.25 757.3125 705.125 753.3125 714.375 L 753.6875 702.875 L 752.6875 701.875 C 743.4375 703.875 741.0625 704.25 731.9375 705.625 L 731.1875 706.375 C 731.9375 715.75 732.3125 721.375 732.3125 738.75 C 732.3125 749 732.1875 759.25 731.9375 769.625 L 732.6875 770.375 C 741.9375 770 743.9375 769.875 753.9375 770 L 754.5625 769.125 C 754.0625 759 753.3125 744.875 753.3125 736.25 C 753.3125 730.625 753.3125 722.375 761.8125 722.375 C 763.9375 722.375 765.1875 723.125 766.9375 724.125 Z M 834.4375 732.75 C 834.5625 721.5 834.5625 716.625 831.3125 711.375 C 828.8125 707.375 823.8125 702.375 807.8125 702.375 C 797.0625 702.375 790.4375 704.375 783.3125 706.5 L 782.5625 707.5 L 781.9375 721.125 L 782.9375 721.625 C 787.3125 719.875 795.4375 716.625 803.8125 716.625 C 808.4375 716.625 810.3125 717.375 811.9375 719 C 813.1875 720.25 813.5625 722.5 813.5625 724.375 C 798.5625 726.375 791.5625 727.75 784.0625 732.375 C 777.0625 736.75 774.6875 743.875 774.6875 749.5 C 774.6875 762.875 784.3125 771.5 796.5625 771.5 C 805.9375 771.5 811.3125 767 813.9375 764.875 L 813.9375 769.5 L 814.6875 770.375 C 823.6875 770 826.4375 769.875 834.5625 770 L 835.1875 769.125 C 834.3125 756.875 834.3125 753.75 834.3125 742 L 834.4375 732.75 M 813.8125 752.625 C 811.1875 754.125 807.8125 755.875 803.6875 755.875 C 799.1875 755.875 795.4375 753.5 795.4375 748.25 C 795.4375 740 805.3125 738.625 813.8125 737.5 Z M 871.0625 769.125 C 870.4375 754.75 869.8125 741.625 869.8125 702.125 C 869.8125 690.25 869.9375 684.625 870.4375 671.125 L 869.5625 670.25 L 848.1875 673.625 L 847.6875 674.375 C 848.9375 689.625 849.0625 693.75 849.3125 714 C 849.4375 721.375 849.4375 728.75 849.4375 736.125 C 849.4375 749.625 849.1875 757.125 848.6875 769.5 L 849.4375 770.375 C 857.8125 770 861.1875 769.875 870.3125 770 Z M 878.0625 770 "/>
<path fill-rule="nonzero" fill="rgb(34.901961%, 14.901961%, 14.901961%)" fill-opacity="1" d="M 298.9375 885.625 C 307.3125 899.875 309.1875 903.625 317.1875 920 L 318.1875 920.625 C 322.0625 920.375 325.8125 920.125 329.6875 920 C 333.5625 919.875 337.5625 919.75 341.4375 919.75 L 342.1875 918.25 C 337.4375 912.125 336.0625 910.25 327.0625 895.875 C 323.0625 889.5 321.0625 886.125 317.9375 880.625 C 323.5625 878.125 334.9375 872.875 334.9375 857 C 334.9375 851.5 333.4375 840.125 323.1875 834.75 C 316.6875 831.375 309.9375 831.25 295.3125 831.5 L 286.5625 831.625 L 271.3125 831.625 L 270.6875 832.375 C 271.1875 845 271.6875 858 271.6875 892 C 271.6875 903.625 271.5625 909.25 271.1875 919.625 L 271.9375 920.375 C 281.0625 920 283.0625 919.875 293.3125 920 L 294.0625 919.25 C 293.0625 904.75 292.9375 900.75 292.8125 885.875 L 298.9375 885.625 M 293.0625 846.75 C 294.8125 846.625 296.5625 846.625 298.3125 846.625 C 303.1875 846.625 312.8125 846.625 312.8125 857.625 C 312.8125 861.125 311.9375 865.75 307.3125 868.625 C 303.8125 870.75 299.3125 871 293.0625 871.125 Z M 404.3125 901.5 C 399.5625 904 393.9375 906.875 384.8125 906.875 C 377.3125 906.875 372.1875 904.5 369.1875 900 C 367.3125 897.375 366.9375 894.875 366.4375 892.375 L 406.8125 891.625 L 407.5625 890.75 C 407.4375 884.625 407.3125 878.375 405.5625 872.125 C 401.1875 857.375 391.5625 854.375 387.3125 853.375 C 384.1875 852.5 381.3125 852.25 378.4375 852.25 C 358.8125 852.25 345.8125 865.125 345.8125 886.75 C 345.8125 892.625 346.8125 898.75 348.8125 903.125 C 356.0625 920 373.0625 921.5 382.0625 921.5 C 392.4375 921.5 396.9375 919.625 403.5625 917 L 404.3125 916 L 405.1875 901.875 L 404.3125 901.5 M 366.4375 879.125 C 366.8125 875.25 367.6875 870 372.4375 867 C 373.9375 866 375.6875 865.625 377.4375 865.625 C 381.5625 865.625 384.0625 867.75 385.4375 870 C 387.1875 872.75 387.3125 875.75 387.3125 878.625 Z M 445.3125 876.875 C 441.0625 875.375 437.6875 874 437.6875 870.5 C 437.6875 869 438.6875 864.875 446.4375 864.875 C 454.0625 864.875 458.9375 868.125 462.0625 870.125 L 463.1875 869.75 L 464.4375 856.125 L 463.8125 855.375 C 457.9375 853.75 452.8125 852.25 444.6875 852.25 C 438.5625 852.25 426.3125 852.75 419.8125 862.125 C 418.1875 864.375 416.4375 868.125 416.4375 873.125 C 416.4375 886.5 426.8125 890.5 432.6875 892.75 L 437.4375 894.5 C 440.8125 895.625 446.3125 897.5 446.3125 902 C 446.3125 905.125 443.4375 908.5 436.4375 908.5 C 432.9375 908.5 427.8125 907.375 423.1875 905 C 421.0625 903.875 420.0625 903 418.1875 901.5 L 417.0625 902 C 416.8125 908.5 416.6875 909.875 416.1875 916.125 L 416.8125 917.25 C 422.9375 919.5 428.1875 921.5 437.3125 921.5 C 446.8125 921.5 465.5625 919.75 467.8125 901.875 C 467.9375 900.875 467.9375 900 467.9375 899.125 C 467.9375 885.375 458.3125 881.75 451.4375 879.125 Z M 534.4375 901.5 C 529.6875 904 524.0625 906.875 514.9375 906.875 C 507.4375 906.875 502.3125 904.5 499.3125 900 C 497.4375 897.375 497.0625 894.875 496.5625 892.375 L 536.9375 891.625 L 537.6875 890.75 C 537.5625 884.625 537.4375 878.375 535.6875 872.125 C 531.3125 857.375 521.6875 854.375 517.4375 853.375 C 514.3125 852.5 511.4375 852.25 508.5625 852.25 C 488.9375 852.25 475.9375 865.125 475.9375 886.75 C 475.9375 892.625 476.9375 898.75 478.9375 903.125 C 486.1875 920 503.1875 921.5 512.1875 921.5 C 522.5625 921.5 527.0625 919.625 533.6875 917 L 534.4375 916 L 535.3125 901.875 L 534.4375 901.5 M 496.5625 879.125 C 496.9375 875.25 497.8125 870 502.5625 867 C 504.0625 866 505.8125 865.625 507.5625 865.625 C 511.6875 865.625 514.1875 867.75 515.5625 870 C 517.3125 872.75 517.4375 875.75 517.4375 878.625 Z M 585.3125 873.625 L 588.8125 853.25 L 588.0625 852.375 C 587.1875 852.375 586.3125 852.25 585.4375 852.25 C 580.3125 852.25 574.5625 855.125 570.5625 864.375 L 570.9375 852.875 L 569.9375 851.875 C 560.6875 853.875 558.3125 854.25 549.1875 855.625 L 548.4375 856.375 C 549.1875 865.75 549.5625 871.375 549.5625 888.75 C 549.5625 899 549.4375 909.25 549.1875 919.625 L 549.9375 920.375 C 559.1875 920 561.1875 919.875 571.1875 920 L 571.8125 919.125 C 571.3125 909 570.5625 894.875 570.5625 886.25 C 570.5625 880.625 570.5625 872.375 579.0625 872.375 C 581.1875 872.375 582.4375 873.125 584.1875 874.125 Z M 630.5625 919 C 634.5625 906.5 636.9375 898.75 639.5625 890.875 C 642.9375 880.75 648.4375 864.5 651.9375 854.25 L 651.3125 853.375 L 633.8125 853.75 L 632.9375 854.625 C 631.1875 863 630.8125 864.75 628.3125 874.5 L 621.9375 899.125 L 618.8125 885.625 L 616.4375 876 C 613.3125 864.375 612.8125 862 611.0625 853.75 L 610.1875 853 C 600.3125 854.125 597.8125 854.25 588.3125 854.375 L 587.8125 855.375 C 604.4375 904.625 605.8125 909.25 608.5625 919.5 L 609.4375 920.375 C 617.5625 920 620.8125 919.875 629.8125 920 Z M 714.0625 901.5 C 709.3125 904 703.6875 906.875 694.5625 906.875 C 687.0625 906.875 681.9375 904.5 678.9375 900 C 677.0625 897.375 676.6875 894.875 676.1875 892.375 L 716.5625 891.625 L 717.3125 890.75 C 717.1875 884.625 717.0625 878.375 715.3125 872.125 C 710.9375 857.375 701.3125 854.375 697.0625 853.375 C 693.9375 852.5 691.0625 852.25 688.1875 852.25 C 668.5625 852.25 655.5625 865.125 655.5625 886.75 C 655.5625 892.625 656.5625 898.75 658.5625 903.125 C 665.8125 920 682.8125 921.5 691.8125 921.5 C 702.1875 921.5 706.6875 919.625 713.3125 917 L 714.0625 916 L 714.9375 901.875 L 714.0625 901.5 M 676.1875 879.125 C 676.5625 875.25 677.4375 870 682.1875 867 C 683.6875 866 685.4375 865.625 687.1875 865.625 C 691.3125 865.625 693.8125 867.75 695.1875 870 C 696.9375 872.75 697.0625 875.75 697.0625 878.625 Z M 721.3125 920 "/>
</svg>
