<?xml version="1.0" encoding="UTF-8"?>
<svg xmlns="http://www.w3.org/2000/svg" xmlns:xlink="http://www.w3.org/1999/xlink" width="975" height="1300" viewBox="0 0 975 1300">
<path fill-rule="nonzero" fill="rgb(34.901961%, 14.901961%, 14.901961%)" fill-opacity="1" d="M 179.3125 531.5 L 163.4375 531.75 L 162.6875 532.5 C 163.1875 548.75 163.5625 559.625 163.5625 574 C 163.5625 589.25 163.1875 604.375 162.8125 619.625 L 163.5625 620.375 C 172.8125 620 174.8125 619.875 184.8125 620 L 185.4375 619.25 C 184.9375 605.625 184.9375 602.5 184.9375 589.75 C 198.9375 589.875 213.9375 589.875 222.9375 578.875 C 226.4375 574.625 229.4375 567.5 229.4375 558.75 C 229.4375 553.375 228.1875 541.5 217.8125 535.625 C 210.3125 531.25 199.6875 531.25 190.3125 531.25 L 179.3125 531.5 M 184.9375 546.625 C 187.6875 546.5 190.3125 546.5 193.0625 546.5 C 204.0625 546.75 207.0625 552.375 207.0625 559.625 C 207.0625 561.375 207.0625 568.625 200.4375 572.25 C 197.0625 574.125 192.4375 574.375 184.9375 574.375 Z M 301.6875 586.75 C 301.6875 581.875 301.6875 561.625 284.1875 554.75 C 278.6875 552.625 272.1875 552.375 268.9375 552.375 C 247.1875 552.375 234.9375 564 234.9375 587 C 234.9375 595 236.1875 603.125 240.8125 609.875 C 244.0625 614.75 250.1875 621.5 268.0625 621.5 C 294.5625 621.5 301.6875 605.5 301.6875 586.75 M 280.0625 586.625 C 280.0625 596.875 278.6875 608.25 268.3125 608.25 C 265.0625 608.25 262.8125 606.75 261.3125 605.375 C 259.1875 603.25 256.8125 599 256.8125 586.875 C 256.8125 583.25 256.8125 575.25 259.3125 570.875 C 261.1875 567.5 264.4375 565.25 268.4375 565.25 C 271.9375 565.25 274.8125 567.125 276.4375 569.125 C 279.4375 572.75 280.0625 579.875 280.0625 586.625 Z M 336.1875 619.125 C 335.5625 609.5 335.0625 602.125 335.0625 584.875 C 335.0625 574.25 335.3125 563.5 335.4375 552.875 L 334.5625 551.875 L 313.0625 555.625 L 312.3125 556.375 C 313.3125 565.875 313.6875 570.25 313.6875 588 C 313.6875 601.625 313.3125 609.25 312.9375 619.5 L 313.6875 620.375 C 322.6875 620 325.1875 619.875 335.3125 620 L 336.1875 619.125 M 334.1875 539.875 L 334.5625 522.875 L 333.8125 522.125 L 313.4375 524.625 L 312.6875 525.5 C 312.9375 530 313.0625 532.625 313.0625 535.625 C 313.0625 538 313.0625 540.5 312.9375 542.875 L 313.8125 543.625 C 322.3125 542.125 324.6875 541.875 333.5625 540.75 Z M 411.3125 619.125 C 410.6875 608.125 410.6875 604.625 410.4375 592.375 L 410.4375 582.625 C 410.3125 570.625 410.1875 564.875 407.0625 559.75 C 403.1875 553.25 396.0625 552.25 391.5625 552.25 C 383.9375 552.25 377.3125 556.25 371.5625 559.625 L 371.8125 552.75 L 370.5625 551.875 C 360.9375 553.875 358.8125 554.25 349.4375 555.5 L 348.6875 556.375 C 349.6875 567.25 350.4375 575.125 350.4375 595.5 C 350.4375 603.5 350.3125 611.5 350.1875 619.5 L 350.9375 620.25 C 359.9375 619.875 361.8125 619.875 371.8125 619.875 L 372.5625 619.125 C 371.8125 599.875 371.6875 595 371.5625 572.625 C 374.1875 570.875 377.1875 568.75 381.1875 568.75 C 388.0625 568.75 388.6875 576.125 389.0625 580.625 C 389.3125 584.75 389.4375 601.875 389.4375 606.625 C 389.4375 610.875 389.3125 615.25 389.3125 619.5 L 390.0625 620.25 C 398.3125 620 400.4375 619.875 410.4375 619.875 Z M 460.5625 605.625 C 458.4375 606.25 456.9375 606.75 454.8125 606.75 C 448.4375 606.75 447.9375 602.75 447.6875 600.875 C 447.3125 597.625 447.3125 590.75 447.4375 585.75 L 447.6875 568.125 L 458.9375 568.625 L 459.6875 567.875 L 460.9375 554.5 L 460.1875 553.75 L 447.6875 553.75 L 448.0625 532.75 L 447.1875 532 C 438.6875 534.5 436.4375 535.125 427.5625 537.375 L 427.0625 538.25 L 427.1875 553.875 L 420.4375 553.625 L 419.6875 554.25 L 418.5625 567.625 L 419.3125 568.375 L 427.1875 568.125 L 426.8125 588 C 426.6875 591.125 426.5625 594.25 426.5625 597.5 C 426.5625 609 426.8125 621.375 446.3125 621.375 C 451.1875 621.375 455.0625 620.625 459.4375 619.875 L 460.3125 619 L 461.5625 606.125 Z M 602.1875 531.375 C 589.1875 531.75 587.0625 531.75 573.1875 531.75 L 572.4375 532.5 L 566.6875 552.75 L 561.6875 570.875 L 555.8125 592.625 L 550.3125 570.25 L 546.8125 556.125 L 540.5625 532.125 L 539.9375 531.375 C 526.5625 531.75 524.3125 531.75 510.3125 531.75 L 509.5625 532.5 C 508.3125 569.875 507.8125 579.5 505.0625 619.625 L 505.6875 620.375 C 513.6875 620 516.0625 619.875 523.3125 620 L 524.0625 619.25 L 524.4375 595.375 L 525.1875 571.125 L 525.6875 547.5 L 531.1875 569.625 L 535.9375 587.375 L 544.3125 619.625 L 545.0625 620.375 C 552.8125 620 554.9375 619.875 563.6875 620 L 564.4375 619.25 L 571.6875 592.625 L 576.6875 574.375 L 583.6875 548.125 L 583.6875 570.5 L 583.9375 589.625 L 583.9375 619.625 L 584.5625 620.375 C 593.1875 620 596.5625 619.875 606.1875 620 L 606.8125 619.25 C 606.0625 605 605.1875 590.625 604.6875 576.25 C 604.3125 568.375 604.0625 560.5 603.6875 552.625 C 603.0625 541 602.9375 539.5 602.9375 532.125 Z M 680.9375 553.125 L 660.5625 554.125 L 659.6875 554.875 C 660.5625 569 660.5625 589 660.5625 591 C 660.5625 594.625 660.5625 596.625 660.4375 601.625 C 657.0625 603.875 654.4375 605.75 651.0625 605.75 C 642.0625 605.75 642.0625 596.25 642.0625 588.875 C 642.0625 585.75 642.0625 582.5 642.1875 579.375 L 642.4375 554.125 L 641.5625 553.125 L 620.9375 554.125 L 620.0625 554.875 C 620.8125 565.375 620.9375 568.875 620.9375 581.5 L 620.9375 590.25 C 620.8125 603.875 621.4375 609.625 625.9375 614.875 C 630.0625 619.5 636.0625 621.5 642.3125 621.5 C 651.1875 621.5 656.3125 617.5 660.8125 614 L 660.6875 619.625 L 661.5625 620.375 C 670.6875 620 673.4375 620 681.5625 620 L 682.3125 619.25 C 681.6875 610.375 681.4375 605.625 681.4375 589.375 C 681.4375 577.625 681.5625 565.875 681.8125 554.125 Z M 719.4375 598.875 C 723.4375 599 727.4375 599.25 733.4375 597.25 C 739.9375 595 749.4375 589.625 749.4375 577.5 C 749.4375 571.5 747.6875 569 746.0625 566.625 L 754.6875 567.125 L 755.4375 566.5 L 756.3125 554 L 755.5625 553.375 C 745.9375 553.75 743.3125 553.875 735.4375 553.75 L 729.6875 553.625 C 720.8125 553.375 708.9375 553.125 700.8125 559.875 C 698.0625 562 692.8125 567.375 692.8125 576.75 C 692.8125 581.75 694.1875 585.75 696.4375 588.875 C 699.1875 592.75 701.6875 594.125 704.8125 595.875 C 701.3125 602.625 699.4375 606 696.5625 611.125 L 696.5625 612.25 L 701.8125 616 C 698.0625 618.875 692.1875 623.625 692.1875 631.75 C 692.1875 637.5 695.3125 642.5 699.9375 645.875 C 706.9375 650.875 716.4375 651.125 721.3125 651.125 C 744.1875 651.125 754.6875 639.625 754.6875 627.5 C 754.6875 611.75 740.9375 608.75 732.8125 606.875 L 729.8125 606.375 C 723.6875 605.375 722.3125 605 717.4375 603.25 L 719.4375 598.875 M 729.6875 576.375 C 729.5625 586.5 723.4375 587.375 721.6875 587.375 C 720.6875 587.375 716.3125 587.125 714.1875 582.125 C 713.0625 579.5 713.0625 576.5 713.0625 575.625 C 713.0625 569.375 716.8125 565.375 721.4375 565.375 C 727.1875 565.375 729.8125 570.875 729.6875 576.375 M 719.0625 623 C 730.1875 625.875 730.3125 625.875 731.8125 627.125 C 733.0625 628 734.3125 629.375 734.3125 632 C 734.3125 635.75 731.1875 639.625 722.9375 639.625 C 713.6875 639.625 710.5625 634.375 710.5625 630 C 710.5625 625.875 712.6875 623.5 714.1875 621.75 Z M 824.1875 553.125 L 803.8125 554.125 L 802.9375 554.875 C 803.8125 569 803.8125 589 803.8125 591 C 803.8125 594.625 803.8125 596.625 803.6875 601.625 C 800.3125 603.875 797.6875 605.75 794.3125 605.75 C 785.3125 605.75 785.3125 596.25 785.3125 588.875 C 785.3125 585.75 785.3125 582.5 785.4375 579.375 L 785.6875 554.125 L 784.8125 553.125 L 764.1875 554.125 L 763.3125 554.875 C 764.0625 565.375 764.1875 568.875 764.1875 581.5 L 764.1875 590.25 C 764.0625 603.875 764.6875 609.625 769.1875 614.875 C 773.3125 619.5 779.3125 621.5 785.5625 621.5 C 794.4375 621.5 799.5625 617.5 804.0625 614 L 803.9375 619.625 L 804.8125 620.375 C 813.9375 620 816.6875 620 824.8125 620 L 825.5625 619.25 C 824.9375 610.375 824.6875 605.625 824.6875 589.375 C 824.6875 577.625 824.8125 565.875 825.0625 554.125 Z M 832.1875 620 "/>
<path fill-rule="nonzero" fill="rgb(34.901961%, 14.901961%, 14.901961%)" fill-opacity="1" d="M 232.875 716.25 C 222.375 711.875 216.875 709.625 216.875 704 C 216.875 700.125 220.5 695.25 228.75 695.25 C 238.25 695.25 243.875 699.125 248.5 702.25 L 249.625 701.75 L 250.625 685.375 L 250 684.5 C 244.625 682.25 239 679.875 226.875 679.875 C 203.375 679.875 195.25 693.125 195.25 706.5 C 195.25 721.625 207 727.125 214 730.5 L 218.125 732.375 C 226.75 736 233.375 739.125 233.375 745.75 C 233.375 750.5 229.25 756.125 218.375 756.125 C 207 756.125 200.625 751.125 197 748.25 L 195.75 748.625 L 194.875 766.25 L 195.625 767.25 C 197 767.75 198.375 768.375 199.75 768.75 C 202.625 769.75 210 771.875 219.375 771.875 C 223.125 771.875 232.625 771.5 240.125 768 C 250.625 762.875 255.125 753.375 255.125 742.75 C 255.125 735.625 252.375 728 245.75 722.875 C 242.375 720.375 239.125 718.875 236.125 717.5 Z M 302 755.625 C 299.875 756.25 298.375 756.75 296.25 756.75 C 289.875 756.75 289.375 752.75 289.125 750.875 C 288.75 747.625 288.75 740.75 288.875 735.75 L 289.125 718.125 L 300.375 718.625 L 301.125 717.875 L 302.375 704.5 L 301.625 703.75 L 289.125 703.75 L 289.5 682.75 L 288.625 682 C 280.125 684.5 277.875 685.125 269 687.375 L 268.5 688.25 L 268.625 703.875 L 261.875 703.625 L 261.125 704.25 L 260 717.625 L 260.75 718.375 L 268.625 718.125 L 268.25 738 C 268.125 741.125 268 744.25 268 747.5 C 268 759 268.25 771.375 287.75 771.375 C 292.625 771.375 296.5 770.625 300.875 769.875 L 301.75 769 L 303 756.125 Z M 366.875 732.75 C 367 721.5 367 716.625 363.75 711.375 C 361.25 707.375 356.25 702.375 340.25 702.375 C 329.5 702.375 322.875 704.375 315.75 706.5 L 315 707.5 L 314.375 721.125 L 315.375 721.625 C 319.75 719.875 327.875 716.625 336.25 716.625 C 340.875 716.625 342.75 717.375 344.375 719 C 345.625 720.25 346 722.5 346 724.375 C 331 726.375 324 727.75 316.5 732.375 C 309.5 736.75 307.125 743.875 307.125 749.5 C 307.125 762.875 316.75 771.5 329 771.5 C 338.375 771.5 343.75 767 346.375 764.875 L 346.375 769.5 L 347.125 770.375 C 356.125 770 358.875 769.875 367 770 L 367.625 769.125 C 366.75 756.875 366.75 753.75 366.75 742 L 366.875 732.75 M 346.25 752.625 C 343.625 754.125 340.25 755.875 336.125 755.875 C 331.625 755.875 327.875 753.5 327.875 748.25 C 327.875 740 337.75 738.625 346.25 737.5 Z M 416.5 755.625 C 414.375 756.25 412.875 756.75 410.75 756.75 C 404.375 756.75 403.875 752.75 403.625 750.875 C 403.25 747.625 403.25 740.75 403.375 735.75 L 403.625 718.125 L 414.875 718.625 L 415.625 717.875 L 416.875 704.5 L 416.125 703.75 L 403.625 703.75 L 404 682.75 L 403.125 682 C 394.625 684.5 392.375 685.125 383.5 687.375 L 383 688.25 L 383.125 703.875 L 376.375 703.625 L 375.625 704.25 L 374.5 717.625 L 375.25 718.375 L 383.125 718.125 L 382.75 738 C 382.625 741.125 382.5 744.25 382.5 747.5 C 382.5 759 382.75 771.375 402.25 771.375 C 407.125 771.375 411 770.625 415.375 769.875 L 416.25 769 L 417.5 756.125 Z M 481.25 751.5 C 476.5 754 470.875 756.875 461.75 756.875 C 454.25 756.875 449.125 754.5 446.125 750 C 444.25 747.375 443.875 744.875 443.375 742.375 L 483.75 741.625 L 484.5 740.75 C 484.375 734.625 484.25 728.375 482.5 722.125 C 478.125 707.375 468.5 704.375 464.25 703.375 C 461.125 702.5 458.25 702.25 455.375 702.25 C 435.75 702.25 422.75 715.125 422.75 736.75 C 422.75 742.625 423.75 748.75 425.75 753.125 C 433 770 450 771.5 459 771.5 C 469.375 771.5 473.875 769.625 480.5 767 L 481.25 766 L 482.125 751.875 L 481.25 751.5 M 443.375 729.125 C 443.75 725.25 444.625 720 449.375 717 C 450.875 716 452.625 715.625 454.375 715.625 C 458.5 715.625 461 717.75 462.375 720 C 464.125 722.75 464.25 725.75 464.25 728.625 Z M 549.25 681.5 L 533.375 681.75 L 532.625 682.5 C 533.125 698.75 533.5 709.625 533.5 724 C 533.5 739.25 533.125 754.375 532.75 769.625 L 533.5 770.375 C 542.75 770 544.75 769.875 554.75 770 L 555.375 769.25 C 554.875 755.625 554.875 752.5 554.875 739.75 C 568.875 739.875 583.875 739.875 592.875 728.875 C 596.375 724.625 599.375 717.5 599.375 708.75 C 599.375 703.375 598.125 691.5 587.75 685.625 C 580.25 681.25 569.625 681.25 560.25 681.25 L 549.25 681.5 M 554.875 696.625 C 557.625 696.5 560.25 696.5 563 696.5 C 574 696.75 577 702.375 577 709.625 C 577 711.375 577 718.625 570.375 722.25 C 567 724.125 562.375 724.375 554.875 724.375 Z M 663.625 732.75 C 663.75 721.5 663.75 716.625 660.5 711.375 C 658 707.375 653 702.375 637 702.375 C 626.25 702.375 619.625 704.375 612.5 706.5 L 611.75 707.5 L 611.125 721.125 L 612.125 721.625 C 616.5 719.875 624.625 716.625 633 716.625 C 637.625 716.625 639.5 717.375 641.125 719 C 642.375 720.25 642.75 722.5 642.75 724.375 C 627.75 726.375 620.75 727.75 613.25 732.375 C 606.25 736.75 603.875 743.875 603.875 749.5 C 603.875 762.875 613.5 771.5 625.75 771.5 C 635.125 771.5 640.5 767 643.125 764.875 L 643.125 769.5 L 643.875 770.375 C 652.875 770 655.625 769.875 663.75 770 L 664.375 769.125 C 663.5 756.875 663.5 753.75 663.5 742 L 663.625 732.75 M 643 752.625 C 640.375 754.125 637 755.875 632.875 755.875 C 628.375 755.875 624.625 753.5 624.625 748.25 C 624.625 740 634.5 738.625 643 737.5 Z M 714.375 723.625 L 717.875 703.25 L 717.125 702.375 C 716.25 702.375 715.375 702.25 714.5 702.25 C 709.375 702.25 703.625 705.125 699.625 714.375 L 700 702.875 L 699 701.875 C 689.75 703.875 687.375 704.25 678.25 705.625 L 677.5 706.375 C 678.25 715.75 678.625 721.375 678.625 738.75 C 678.625 749 678.5 759.25 678.25 769.625 L 679 770.375 C 688.25 770 690.25 769.875 700.25 770 L 700.875 769.125 C 700.375 759 699.625 744.875 699.625 736.25 C 699.625 730.625 699.625 722.375 708.125 722.375 C 710.25 722.375 711.5 723.125 713.25 724.125 Z M 789.375 768.375 C 777.625 748.5 776.375 746.25 766.875 729.125 C 775.5 717.375 776.375 716.125 785.25 704.75 L 784.625 703.5 L 764.25 703.75 L 763 704.625 C 753.25 721.5 752 723.5 746.25 732.125 L 746.25 718.25 C 746.375 694.875 746.5 689.875 747.125 671 L 746.125 670.25 L 724.375 673.5 L 723.625 674.375 C 724.5 686.5 724.875 692.375 725.125 708.75 C 725.375 729 725.375 749.25 725.25 769.5 L 726.125 770.375 C 734.5 770 736.875 770 746.375 770 L 747.125 769.125 L 746.375 748 L 746.25 733.625 C 757.125 753.625 758.5 756.375 764.875 769.625 L 766 770.375 L 788.5 769.5 Z M 787.875 770 "/>
</svg>
