<?xml version="1.0" encoding="UTF-8"?>
<svg xmlns="http://www.w3.org/2000/svg" xmlns:xlink="http://www.w3.org/1999/xlink" width="975" height="1300" viewBox="0 0 975 1300">
<path fill-rule="nonzero" fill="rgb(34.901961%, 14.901961%, 14.901961%)" fill-opacity="1" d="M 281.0625 381.375 C 269.0625 381.75 266.5625 381.75 253.1875 381.75 L 252.3125 382.5 C 245.6875 403.75 241.6875 416.375 223.3125 469.125 L 223.8125 470 L 243.3125 470 L 244.1875 469.25 L 250.3125 446.5 L 277.3125 446.5 L 282.6875 469.625 L 283.5625 470.375 C 292.6875 470 295.1875 469.875 305.3125 470 L 305.9375 469 C 290.8125 415.5 289.0625 409.625 281.9375 382.125 L 281.0625 381.375 M 254.6875 431.375 L 260.9375 410.25 L 265.3125 395.625 L 269.0625 411.875 L 273.6875 431.375 Z M 375.1875 469.125 C 374.5625 458.125 374.5625 454.625 374.3125 442.375 L 374.3125 432.625 C 374.1875 420.625 374.0625 414.875 370.9375 409.75 C 367.0625 403.25 359.9375 402.25 355.4375 402.25 C 347.8125 402.25 341.1875 406.25 335.4375 409.625 L 335.6875 402.75 L 334.4375 401.875 C 324.8125 403.875 322.6875 404.25 313.3125 405.5 L 312.5625 406.375 C 313.5625 417.25 314.3125 425.125 314.3125 445.5 C 314.3125 453.5 314.1875 461.5 314.0625 469.5 L 314.8125 470.25 C 323.8125 469.875 325.6875 469.875 335.6875 469.875 L 336.4375 469.125 C 335.6875 449.875 335.5625 445 335.4375 422.625 C 338.0625 420.875 341.0625 418.75 345.0625 418.75 C 351.9375 418.75 352.5625 426.125 352.9375 430.625 C 353.1875 434.75 353.3125 451.875 353.3125 456.625 C 353.3125 460.875 353.1875 465.25 353.1875 469.5 L 353.9375 470.25 C 362.1875 470 364.3125 469.875 374.3125 469.875 Z M 424.4375 455.625 C 422.3125 456.25 420.8125 456.75 418.6875 456.75 C 412.3125 456.75 411.8125 452.75 411.5625 450.875 C 411.1875 447.625 411.1875 440.75 411.3125 435.75 L 411.5625 418.125 L 422.8125 418.625 L 423.5625 417.875 L 424.8125 404.5 L 424.0625 403.75 L 411.5625 403.75 L 411.9375 382.75 L 411.0625 382 C 402.5625 384.5 400.3125 385.125 391.4375 387.375 L 390.9375 388.25 L 391.0625 403.875 L 384.3125 403.625 L 383.5625 404.25 L 382.4375 417.625 L 383.1875 418.375 L 391.0625 418.125 L 390.6875 438 C 390.5625 441.125 390.4375 444.25 390.4375 447.5 C 390.4375 459 390.6875 471.375 410.1875 471.375 C 415.0625 471.375 418.9375 470.625 423.3125 469.875 L 424.1875 469 L 425.4375 456.125 Z M 489.1875 451.5 C 484.4375 454 478.8125 456.875 469.6875 456.875 C 462.1875 456.875 457.0625 454.5 454.0625 450 C 452.1875 447.375 451.8125 444.875 451.3125 442.375 L 491.6875 441.625 L 492.4375 440.75 C 492.3125 434.625 492.1875 428.375 490.4375 422.125 C 486.0625 407.375 476.4375 404.375 472.1875 403.375 C 469.0625 402.5 466.1875 402.25 463.3125 402.25 C 443.6875 402.25 430.6875 415.125 430.6875 436.75 C 430.6875 442.625 431.6875 448.75 433.6875 453.125 C 440.9375 470 457.9375 471.5 466.9375 471.5 C 477.3125 471.5 481.8125 469.625 488.4375 467 L 489.1875 466 L 490.0625 451.875 L 489.1875 451.5 M 451.3125 429.125 C 451.6875 425.25 452.5625 420 457.3125 417 C 458.8125 416 460.5625 415.625 462.3125 415.625 C 466.4375 415.625 468.9375 417.75 470.3125 420 C 472.0625 422.75 472.1875 425.75 472.1875 428.625 Z M 525.9375 469.125 C 525.3125 454.75 524.6875 441.625 524.6875 402.125 C 524.6875 390.25 524.8125 384.625 525.3125 371.125 L 524.4375 370.25 L 503.0625 373.625 L 502.5625 374.375 C 503.8125 389.625 503.9375 393.75 504.1875 414 C 504.3125 421.375 504.3125 428.75 504.3125 436.125 C 504.3125 449.625 504.0625 457.125 503.5625 469.5 L 504.3125 470.375 C 512.6875 470 516.0625 469.875 525.1875 470 Z M 604.0625 436.75 C 604.0625 431.875 604.0625 411.625 586.5625 404.75 C 581.0625 402.625 574.5625 402.375 571.3125 402.375 C 549.5625 402.375 537.3125 414 537.3125 437 C 537.3125 445 538.5625 453.125 543.1875 459.875 C 546.4375 464.75 552.5625 471.5 570.4375 471.5 C 596.9375 471.5 604.0625 455.5 604.0625 436.75 M 582.4375 436.625 C 582.4375 446.875 581.0625 458.25 570.6875 458.25 C 567.4375 458.25 565.1875 456.75 563.6875 455.375 C 561.5625 453.25 559.1875 449 559.1875 436.875 C 559.1875 433.25 559.1875 425.25 561.6875 420.875 C 563.5625 417.5 566.8125 415.25 570.8125 415.25 C 574.3125 415.25 577.1875 417.125 578.8125 419.125 C 581.8125 422.75 582.4375 429.875 582.4375 436.625 Z M 636.6875 403.125 L 635.6875 402 C 626.5625 404 623.9375 404.5 614.9375 405.625 L 614.1875 406.5 C 615.5625 421.375 616.0625 427.125 616.0625 463.125 C 616.0625 478 615.8125 486.5 615.4375 500.625 L 616.1875 501.25 C 625.0625 500.875 627.6875 500.75 637.1875 500.875 L 637.9375 500.25 L 637.0625 470.5 C 646.1875 470.375 658.8125 470.25 668.9375 460.75 C 676.9375 453.25 679.5625 442.625 679.5625 434.125 C 679.5625 414.25 667.4375 402.25 653.4375 402.25 C 644.8125 402.25 639.9375 405.75 636.4375 408.125 L 636.6875 403.125 M 636.9375 420.125 C 639.6875 418.5 641.3125 417.625 644.4375 417.625 C 646.3125 417.625 650.0625 417.875 653.1875 421.375 C 657.0625 425.625 657.6875 432 657.6875 436.25 C 657.6875 443.5 655.3125 450 650.3125 453.5 C 646.3125 456.25 641.3125 456.5 636.9375 456.625 Z M 746.9375 451.5 C 742.1875 454 736.5625 456.875 727.4375 456.875 C 719.9375 456.875 714.8125 454.5 711.8125 450 C 709.9375 447.375 709.5625 444.875 709.0625 442.375 L 749.4375 441.625 L 750.1875 440.75 C 750.0625 434.625 749.9375 428.375 748.1875 422.125 C 743.8125 407.375 734.1875 404.375 729.9375 403.375 C 726.8125 402.5 723.9375 402.25 721.0625 402.25 C 701.4375 402.25 688.4375 415.125 688.4375 436.75 C 688.4375 442.625 689.4375 448.75 691.4375 453.125 C 698.6875 470 715.6875 471.5 724.6875 471.5 C 735.0625 471.5 739.5625 469.625 746.1875 467 L 746.9375 466 L 747.8125 451.875 L 746.9375 451.5 M 709.0625 429.125 C 709.4375 425.25 710.3125 420 715.0625 417 C 716.5625 416 718.3125 415.625 720.0625 415.625 C 724.1875 415.625 726.6875 417.75 728.0625 420 C 729.8125 422.75 729.9375 425.75 729.9375 428.625 Z M 754.1875 470 "/>
<path fill-rule="nonzero" fill="rgb(34.901961%, 14.901961%, 14.901961%)" fill-opacity="1" d="M 160.5625 619.125 C 165.9375 596.5 167.8125 590 184.8125 532 L 184.1875 531.375 C 174.8125 531.75 172.3125 531.75 164.8125 531.75 L 164.0625 532.5 C 161.6875 544.75 161.0625 548 157.5625 561.875 L 153.5625 578.25 L 148.1875 601.375 L 141.5625 571.875 L 138.9375 560.625 C 135.8125 547.75 134.9375 543.5 132.3125 531.375 L 131.5625 530.75 C 121.1875 531.5 118.9375 531.625 109.1875 531.625 L 108.5625 532.375 C 116.9375 561.25 124.4375 587.75 128.6875 604.25 C 129.9375 609.375 131.1875 614.5 132.4375 619.625 L 133.1875 620.375 C 144.0625 620 146.8125 619.875 159.8125 620 Z M 246.1875 582.75 C 246.3125 571.5 246.3125 566.625 243.0625 561.375 C 240.5625 557.375 235.5625 552.375 219.5625 552.375 C 208.8125 552.375 202.1875 554.375 195.0625 556.5 L 194.3125 557.5 L 193.6875 571.125 L 194.6875 571.625 C 199.0625 569.875 207.1875 566.625 215.5625 566.625 C 220.1875 566.625 222.0625 567.375 223.6875 569 C 224.9375 570.25 225.3125 572.5 225.3125 574.375 C 210.3125 576.375 203.3125 577.75 195.8125 582.375 C 188.8125 586.75 186.4375 593.875 186.4375 599.5 C 186.4375 612.875 196.0625 621.5 208.3125 621.5 C 217.6875 621.5 223.0625 617 225.6875 614.875 L 225.6875 619.5 L 226.4375 620.375 C 235.4375 620 238.1875 619.875 246.3125 620 L 246.9375 619.125 C 246.0625 606.875 246.0625 603.75 246.0625 592 L 246.1875 582.75 M 225.5625 602.625 C 222.9375 604.125 219.5625 605.875 215.4375 605.875 C 210.9375 605.875 207.1875 603.5 207.1875 598.25 C 207.1875 590 217.0625 588.625 225.5625 587.5 Z M 282.8125 619.125 C 282.1875 604.75 281.5625 591.625 281.5625 552.125 C 281.5625 540.25 281.6875 534.625 282.1875 521.125 L 281.3125 520.25 L 259.9375 523.625 L 259.4375 524.375 C 260.6875 539.625 260.8125 543.75 261.0625 564 C 261.1875 571.375 261.1875 578.75 261.1875 586.125 C 261.1875 599.625 260.9375 607.125 260.4375 619.5 L 261.1875 620.375 C 269.5625 620 272.9375 619.875 282.0625 620 Z M 319.3125 619.125 C 318.6875 604.75 318.0625 591.625 318.0625 552.125 C 318.0625 540.25 318.1875 534.625 318.6875 521.125 L 317.8125 520.25 L 296.4375 523.625 L 295.9375 524.375 C 297.1875 539.625 297.3125 543.75 297.5625 564 C 297.6875 571.375 297.6875 578.75 297.6875 586.125 C 297.6875 599.625 297.4375 607.125 296.9375 619.5 L 297.6875 620.375 C 306.0625 620 309.4375 619.875 318.5625 620 Z M 389.3125 601.5 C 384.5625 604 378.9375 606.875 369.8125 606.875 C 362.3125 606.875 357.1875 604.5 354.1875 600 C 352.3125 597.375 351.9375 594.875 351.4375 592.375 L 391.8125 591.625 L 392.5625 590.75 C 392.4375 584.625 392.3125 578.375 390.5625 572.125 C 386.1875 557.375 376.5625 554.375 372.3125 553.375 C 369.1875 552.5 366.3125 552.25 363.4375 552.25 C 343.8125 552.25 330.8125 565.125 330.8125 586.75 C 330.8125 592.625 331.8125 598.75 333.8125 603.125 C 341.0625 620 358.0625 621.5 367.0625 621.5 C 377.4375 621.5 381.9375 619.625 388.5625 617 L 389.3125 616 L 390.1875 601.875 L 389.3125 601.5 M 351.4375 579.125 C 351.8125 575.25 352.6875 570 357.4375 567 C 358.9375 566 360.6875 565.625 362.4375 565.625 C 366.5625 565.625 369.0625 567.75 370.4375 570 C 372.1875 572.75 372.3125 575.75 372.3125 578.625 Z M 459.9375 553.375 L 442.5625 553.75 L 441.5625 554.625 C 439.4375 563.25 438.9375 565.125 435.9375 574.875 L 432.6875 585.625 L 429.9375 595 L 427.5625 586.125 L 423.9375 572.875 L 418.9375 553.875 L 417.9375 553.125 C 408.1875 553.875 406.0625 554 395.8125 554.25 L 395.1875 555.125 C 399.6875 567 411.3125 598.375 419.0625 622.375 C 413.9375 635.375 412.9375 637.625 407.3125 650 L 407.9375 651 C 411.0625 650.875 414.5625 650.75 417.8125 650.75 C 420.9375 650.75 424.1875 650.875 427.3125 650.875 L 428.1875 650.125 C 435.0625 623.125 438.4375 612.625 454.9375 569.125 C 456.8125 564.125 458.6875 559.25 460.4375 554.375 Z M 526.1875 531.375 C 515.4375 531.875 512.5625 531.875 503.5625 531.75 L 503.0625 532.5 C 503.8125 546 504.1875 552.375 504.1875 584.25 C 504.1875 599 503.9375 606.625 503.4375 619.625 L 504.0625 620.375 C 513.4375 620 515.9375 620 526.3125 620 L 527.0625 619.25 C 526.4375 607.75 526.1875 602 526.1875 583.875 C 526.1875 566.625 526.4375 549.375 526.8125 532.125 Z M 603.4375 619.125 C 602.8125 608.125 602.8125 604.625 602.5625 592.375 L 602.5625 582.625 C 602.4375 570.625 602.3125 564.875 599.1875 559.75 C 595.3125 553.25 588.1875 552.25 583.6875 552.25 C 576.0625 552.25 569.4375 556.25 563.6875 559.625 L 563.9375 552.75 L 562.6875 551.875 C 553.0625 553.875 550.9375 554.25 541.5625 555.5 L 540.8125 556.375 C 541.8125 567.25 542.5625 575.125 542.5625 595.5 C 542.5625 603.5 542.4375 611.5 542.3125 619.5 L 543.0625 620.25 C 552.0625 619.875 553.9375 619.875 563.9375 619.875 L 564.6875 619.125 C 563.9375 599.875 563.8125 595 563.6875 572.625 C 566.3125 570.875 569.3125 568.75 573.3125 568.75 C 580.1875 568.75 580.8125 576.125 581.1875 580.625 C 581.4375 584.75 581.5625 601.875 581.5625 606.625 C 581.5625 610.875 581.4375 615.25 581.4375 619.5 L 582.1875 620.25 C 590.4375 620 592.5625 619.875 602.5625 619.875 Z M 678.9375 619.25 C 678.4375 608 678.0625 600.5 678.0625 584.125 C 678.0625 551.125 678.5625 537.5 679.0625 521 L 678.1875 520.25 L 657.5625 523.5 L 656.9375 524.25 C 657.6875 536 657.8125 539.125 657.6875 553.375 C 648.3125 553.125 636.5625 552.875 627.0625 560.375 C 618.3125 567.125 614.6875 577.5 614.6875 590.375 C 614.6875 600.125 617.3125 609.875 624.6875 616 C 630.1875 620.5 636.9375 621.5 641.0625 621.5 C 649.9375 621.5 654.5625 617.375 657.5625 614.75 L 657.3125 619.625 L 657.9375 620.375 C 666.5625 620 668.9375 620 678.3125 620 L 678.9375 619.25 M 657.6875 568.375 C 657.8125 585 657.6875 588.25 657.3125 603.375 C 654.8125 604.875 652.3125 606.375 648.8125 606.375 C 636.6875 606.375 636.6875 590.875 636.6875 588.375 C 636.6875 578.75 639.4375 568 653.4375 568 C 654.8125 568 655.9375 568.125 657.6875 568.375 Z M 715.8125 619.125 C 715.1875 609.5 714.6875 602.125 714.6875 584.875 C 714.6875 574.25 714.9375 563.5 715.0625 552.875 L 714.1875 551.875 L 692.6875 555.625 L 691.9375 556.375 C 692.9375 565.875 693.3125 570.25 693.3125 588 C 693.3125 601.625 692.9375 609.25 692.5625 619.5 L 693.3125 620.375 C 702.3125 620 704.8125 619.875 714.9375 620 L 715.8125 619.125 M 713.8125 539.875 L 714.1875 522.875 L 713.4375 522.125 L 693.0625 524.625 L 692.3125 525.5 C 692.5625 530 692.6875 532.625 692.6875 535.625 C 692.6875 538 692.6875 540.5 692.5625 542.875 L 693.4375 543.625 C 701.9375 542.125 704.3125 541.875 713.1875 540.75 Z M 785.3125 582.75 C 785.4375 571.5 785.4375 566.625 782.1875 561.375 C 779.6875 557.375 774.6875 552.375 758.6875 552.375 C 747.9375 552.375 741.3125 554.375 734.1875 556.5 L 733.4375 557.5 L 732.8125 571.125 L 733.8125 571.625 C 738.1875 569.875 746.3125 566.625 754.6875 566.625 C 759.3125 566.625 761.1875 567.375 762.8125 569 C 764.0625 570.25 764.4375 572.5 764.4375 574.375 C 749.4375 576.375 742.4375 577.75 734.9375 582.375 C 727.9375 586.75 725.5625 593.875 725.5625 599.5 C 725.5625 612.875 735.1875 621.5 747.4375 621.5 C 756.8125 621.5 762.1875 617 764.8125 614.875 L 764.8125 619.5 L 765.5625 620.375 C 774.5625 620 777.3125 619.875 785.4375 620 L 786.0625 619.125 C 785.1875 606.875 785.1875 603.75 785.1875 592 L 785.3125 582.75 M 764.6875 602.625 C 762.0625 604.125 758.6875 605.875 754.5625 605.875 C 750.0625 605.875 746.3125 603.5 746.3125 598.25 C 746.3125 590 756.1875 588.625 764.6875 587.5 Z M 861.1875 619.125 C 860.5625 608.125 860.5625 604.625 860.3125 592.375 L 860.3125 582.625 C 860.1875 570.625 860.0625 564.875 856.9375 559.75 C 853.0625 553.25 845.9375 552.25 841.4375 552.25 C 833.8125 552.25 827.1875 556.25 821.4375 559.625 L 821.6875 552.75 L 820.4375 551.875 C 810.8125 553.875 808.6875 554.25 799.3125 555.5 L 798.5625 556.375 C 799.5625 567.25 800.3125 575.125 800.3125 595.5 C 800.3125 603.5 800.1875 611.5 800.0625 619.5 L 800.8125 620.25 C 809.8125 619.875 811.6875 619.875 821.6875 619.875 L 822.4375 619.125 C 821.6875 599.875 821.5625 595 821.4375 572.625 C 824.0625 570.875 827.0625 568.75 831.0625 568.75 C 837.9375 568.75 838.5625 576.125 838.9375 580.625 C 839.1875 584.75 839.3125 601.875 839.3125 606.625 C 839.3125 610.875 839.1875 615.25 839.1875 619.5 L 839.9375 620.25 C 848.1875 620 850.3125 619.875 860.3125 619.875 Z M 867.9375 620 "/>
<path fill-rule="nonzero" fill="rgb(34.901961%, 14.901961%, 14.901961%)" fill-opacity="1" d="M 173.25 681.375 C 160.25 681.75 158.125 681.75 144.25 681.75 L 143.5 682.5 L 137.75 702.75 L 132.75 720.875 L 126.875 742.625 L 121.375 720.25 L 117.875 706.125 L 111.625 682.125 L 111 681.375 C 97.625 681.75 95.375 681.75 81.375 681.75 L 80.625 682.5 C 79.375 719.875 78.875 729.5 76.125 769.625 L 76.75 770.375 C 84.75 770 87.125 769.875 94.375 770 L 95.125 769.25 L 95.5 745.375 L 96.25 721.125 L 96.75 697.5 L 102.25 719.625 L 107 737.375 L 115.375 769.625 L 116.125 770.375 C 123.875 770 126 769.875 134.75 770 L 135.5 769.25 L 142.75 742.625 L 147.75 724.375 L 154.75 698.125 L 154.75 720.5 L 155 739.625 L 155 769.625 L 155.625 770.375 C 164.25 770 167.625 769.875 177.25 770 L 177.875 769.25 C 177.125 755 176.25 740.625 175.75 726.25 C 175.375 718.375 175.125 710.5 174.75 702.625 C 174.125 691 174 689.5 174 682.125 Z M 252 703.125 L 231.625 704.125 L 230.75 704.875 C 231.625 719 231.625 739 231.625 741 C 231.625 744.625 231.625 746.625 231.5 751.625 C 228.125 753.875 225.5 755.75 222.125 755.75 C 213.125 755.75 213.125 746.25 213.125 738.875 C 213.125 735.75 213.125 732.5 213.25 729.375 L 213.5 704.125 L 212.625 703.125 L 192 704.125 L 191.125 704.875 C 191.875 715.375 192 718.875 192 731.5 L 192 740.25 C 191.875 753.875 192.5 759.625 197 764.875 C 201.125 769.5 207.125 771.5 213.375 771.5 C 222.25 771.5 227.375 767.5 231.875 764 L 231.75 769.625 L 232.625 770.375 C 241.75 770 244.5 770 252.625 770 L 253.375 769.25 C 252.75 760.375 252.5 755.625 252.5 739.375 C 252.5 727.625 252.625 715.875 252.875 704.125 Z M 293.75 726.875 C 289.5 725.375 286.125 724 286.125 720.5 C 286.125 719 287.125 714.875 294.875 714.875 C 302.5 714.875 307.375 718.125 310.5 720.125 L 311.625 719.75 L 312.875 706.125 L 312.25 705.375 C 306.375 703.75 301.25 702.25 293.125 702.25 C 287 702.25 274.75 702.75 268.25 712.125 C 266.625 714.375 264.875 718.125 264.875 723.125 C 264.875 736.5 275.25 740.5 281.125 742.75 L 285.875 744.5 C 289.25 745.625 294.75 747.5 294.75 752 C 294.75 755.125 291.875 758.5 284.875 758.5 C 281.375 758.5 276.25 757.375 271.625 755 C 269.5 753.875 268.5 753 266.625 751.5 L 265.5 752 C 265.25 758.5 265.125 759.875 264.625 766.125 L 265.25 767.25 C 271.375 769.5 276.625 771.5 285.75 771.5 C 295.25 771.5 314 769.75 316.25 751.875 C 316.375 750.875 316.375 750 316.375 749.125 C 316.375 735.375 306.75 731.75 299.875 729.125 Z M 382.875 751.5 C 378.125 754 372.5 756.875 363.375 756.875 C 355.875 756.875 350.75 754.5 347.75 750 C 345.875 747.375 345.5 744.875 345 742.375 L 385.375 741.625 L 386.125 740.75 C 386 734.625 385.875 728.375 384.125 722.125 C 379.75 707.375 370.125 704.375 365.875 703.375 C 362.75 702.5 359.875 702.25 357 702.25 C 337.375 702.25 324.375 715.125 324.375 736.75 C 324.375 742.625 325.375 748.75 327.375 753.125 C 334.625 770 351.625 771.5 360.625 771.5 C 371 771.5 375.5 769.625 382.125 767 L 382.875 766 L 383.75 751.875 L 382.875 751.5 M 345 729.125 C 345.375 725.25 346.25 720 351 717 C 352.5 716 354.25 715.625 356 715.625 C 360.125 715.625 362.625 717.75 364 720 C 365.75 722.75 365.875 725.75 365.875 728.625 Z M 457.625 703.125 L 437.25 704.125 L 436.375 704.875 C 437.25 719 437.25 739 437.25 741 C 437.25 744.625 437.25 746.625 437.125 751.625 C 433.75 753.875 431.125 755.75 427.75 755.75 C 418.75 755.75 418.75 746.25 418.75 738.875 C 418.75 735.75 418.75 732.5 418.875 729.375 L 419.125 704.125 L 418.25 703.125 L 397.625 704.125 L 396.75 704.875 C 397.5 715.375 397.625 718.875 397.625 731.5 L 397.625 740.25 C 397.5 753.875 398.125 759.625 402.625 764.875 C 406.75 769.5 412.75 771.5 419 771.5 C 427.875 771.5 433 767.5 437.5 764 L 437.375 769.625 L 438.25 770.375 C 447.375 770 450.125 770 458.25 770 L 459 769.25 C 458.375 760.375 458.125 755.625 458.125 739.375 C 458.125 727.625 458.25 715.875 458.5 704.125 Z M 570.75 769.125 C 570.125 757.5 570 754.25 570 740.125 L 570 730.75 C 570.125 722.375 570.25 714.625 566.625 709.375 C 561.75 702.25 553.125 702.25 551.125 702.25 C 540.875 702.25 534 706.875 529 710.375 C 527.25 707.5 524.125 702.25 514.125 702.25 C 505.875 702.25 500.5 706 494.75 710 L 494.75 703 L 493.625 701.875 C 483.875 703.75 481.125 704.25 472.375 705.5 L 471.625 706.375 C 472.625 716.375 473.375 723.25 473.375 748 C 473.375 755.125 473.25 762.375 473.25 769.5 L 473.875 770.25 C 481.875 770 484.625 769.875 495 769.875 L 495.75 769.125 C 494.875 749.875 494.75 744.125 494.625 722.375 C 497.25 720.5 500.125 718.875 503.25 718.875 C 511 718.875 511.25 727.75 511.25 738.5 C 511.25 756.625 511.125 759.375 510.875 769.5 L 511.625 770.375 C 521.125 769.875 523.75 769.875 532.375 769.875 L 533.125 769.125 C 532.375 757.25 532.25 753.75 532.125 738.625 L 532.125 734 L 532 721.375 C 534.125 720 536.875 718.25 540.625 718.25 C 547.75 718.25 548.875 725 548.875 735.75 C 548.875 738.125 548.75 740.5 548.75 742.875 C 548.625 747.125 548.5 765.75 548.375 769.5 L 549.125 770.25 C 558.5 769.875 561.25 769.875 570 769.875 Z M 657.75 716.25 C 647.25 711.875 641.75 709.625 641.75 704 C 641.75 700.125 645.375 695.25 653.625 695.25 C 663.125 695.25 668.75 699.125 673.375 702.25 L 674.5 701.75 L 675.5 685.375 L 674.875 684.5 C 669.5 682.25 663.875 679.875 651.75 679.875 C 628.25 679.875 620.125 693.125 620.125 706.5 C 620.125 721.625 631.875 727.125 638.875 730.5 L 643 732.375 C 651.625 736 658.25 739.125 658.25 745.75 C 658.25 750.5 654.125 756.125 643.25 756.125 C 631.875 756.125 625.5 751.125 621.875 748.25 L 620.625 748.625 L 619.75 766.25 L 620.5 767.25 C 621.875 767.75 623.25 768.375 624.625 768.75 C 627.5 769.75 634.875 771.875 644.25 771.875 C 648 771.875 657.5 771.5 665 768 C 675.5 762.875 680 753.375 680 742.75 C 680 735.625 677.25 728 670.625 722.875 C 667.25 720.375 664 718.875 661 717.5 Z M 726.875 755.625 C 724.75 756.25 723.25 756.75 721.125 756.75 C 714.75 756.75 714.25 752.75 714 750.875 C 713.625 747.625 713.625 740.75 713.75 735.75 L 714 718.125 L 725.25 718.625 L 726 717.875 L 727.25 704.5 L 726.5 703.75 L 714 703.75 L 714.375 682.75 L 713.5 682 C 705 684.5 702.75 685.125 693.875 687.375 L 693.375 688.25 L 693.5 703.875 L 686.75 703.625 L 686 704.25 L 684.875 717.625 L 685.625 718.375 L 693.5 718.125 L 693.125 738 C 693 741.125 692.875 744.25 692.875 747.5 C 692.875 759 693.125 771.375 712.625 771.375 C 717.5 771.375 721.375 770.625 725.75 769.875 L 726.625 769 L 727.875 756.125 Z M 791.75 732.75 C 791.875 721.5 791.875 716.625 788.625 711.375 C 786.125 707.375 781.125 702.375 765.125 702.375 C 754.375 702.375 747.75 704.375 740.625 706.5 L 739.875 707.5 L 739.25 721.125 L 740.25 721.625 C 744.625 719.875 752.75 716.625 761.125 716.625 C 765.75 716.625 767.625 717.375 769.25 719 C 770.5 720.25 770.875 722.5 770.875 724.375 C 755.875 726.375 748.875 727.75 741.375 732.375 C 734.375 736.75 732 743.875 732 749.5 C 732 762.875 741.625 771.5 753.875 771.5 C 763.25 771.5 768.625 767 771.25 764.875 L 771.25 769.5 L 772 770.375 C 781 770 783.75 769.875 791.875 770 L 792.5 769.125 C 791.625 756.875 791.625 753.75 791.625 742 L 791.75 732.75 M 771.125 752.625 C 768.5 754.125 765.125 755.875 761 755.875 C 756.5 755.875 752.75 753.5 752.75 748.25 C 752.75 740 762.625 738.625 771.125 737.5 Z M 841.375 755.625 C 839.25 756.25 837.75 756.75 835.625 756.75 C 829.25 756.75 828.75 752.75 828.5 750.875 C 828.125 747.625 828.125 740.75 828.25 735.75 L 828.5 718.125 L 839.75 718.625 L 840.5 717.875 L 841.75 704.5 L 841 703.75 L 828.5 703.75 L 828.875 682.75 L 828 682 C 819.5 684.5 817.25 685.125 808.375 687.375 L 807.875 688.25 L 808 703.875 L 801.25 703.625 L 800.5 704.25 L 799.375 717.625 L 800.125 718.375 L 808 718.125 L 807.625 738 C 807.5 741.125 807.375 744.25 807.375 747.5 C 807.375 759 807.625 771.375 827.125 771.375 C 832 771.375 835.875 770.625 840.25 769.875 L 841.125 769 L 842.375 756.125 Z M 906.125 751.5 C 901.375 754 895.75 756.875 886.625 756.875 C 879.125 756.875 874 754.5 871 750 C 869.125 747.375 868.75 744.875 868.25 742.375 L 908.625 741.625 L 909.375 740.75 C 909.25 734.625 909.125 728.375 907.375 722.125 C 903 707.375 893.375 704.375 889.125 703.375 C 886 702.5 883.125 702.25 880.25 702.25 C 860.625 702.25 847.625 715.125 847.625 736.75 C 847.625 742.625 848.625 748.75 850.625 753.125 C 857.875 770 874.875 771.5 883.875 771.5 C 894.25 771.5 898.75 769.625 905.375 767 L 906.125 766 L 907 751.875 L 906.125 751.5 M 868.25 729.125 C 868.625 725.25 869.5 720 874.25 717 C 875.75 716 877.5 715.625 879.25 715.625 C 883.375 715.625 885.875 717.75 887.25 720 C 889 722.75 889.125 725.75 889.125 728.625 Z M 913.375 770 "/>
<path fill-rule="nonzero" fill="rgb(34.901961%, 14.901961%, 14.901961%)" fill-opacity="1" d="M 196.8125 831.375 C 186.8125 831.75 185.1875 831.75 174.6875 831.75 L 174.0625 832.5 C 174.9375 846.625 174.9375 850.25 175.0625 865 C 169.5625 865.125 164.0625 865.25 158.4375 865.25 C 154.0625 865.25 149.5625 865.125 145.1875 865.125 L 145.4375 832.125 L 144.8125 831.375 C 135.1875 831.75 133.3125 831.75 122.4375 831.75 L 121.6875 832.5 C 122.3125 845.375 123.0625 860.75 123.0625 891.75 C 123.0625 903 122.8125 909.125 122.5625 919.625 L 123.1875 920.375 C 132.3125 920 134.5625 919.875 145.5625 920 L 146.1875 919.25 C 145.4375 903.75 145.3125 899.25 145.1875 881.125 C 150.6875 880.875 155.3125 880.75 160.1875 880.75 C 165.1875 880.75 170.1875 880.875 175.1875 881 C 175.4375 897.875 175.4375 902 174.8125 919.625 L 175.4375 920.375 C 184.8125 920 187.3125 919.875 197.9375 920 L 198.5625 919.25 C 197.5625 898.25 197.1875 877.375 197.1875 856.375 C 197.1875 847.625 197.3125 841.75 197.4375 832.125 Z M 235.6875 919.125 C 235.0625 909.5 234.5625 902.125 234.5625 884.875 C 234.5625 874.25 234.8125 863.5 234.9375 852.875 L 234.0625 851.875 L 212.5625 855.625 L 211.8125 856.375 C 212.8125 865.875 213.1875 870.25 213.1875 888 C 213.1875 901.625 212.8125 909.25 212.4375 919.5 L 213.1875 920.375 C 222.1875 920 224.6875 919.875 234.8125 920 L 235.6875 919.125 M 233.6875 839.875 L 234.0625 822.875 L 233.3125 822.125 L 212.9375 824.625 L 212.1875 825.5 C 212.4375 830 212.5625 832.625 212.5625 835.625 C 212.5625 838 212.5625 840.5 212.4375 842.875 L 213.3125 843.625 C 221.8125 842.125 224.1875 841.875 233.0625 840.75 Z M 275.8125 876.875 C 271.5625 875.375 268.1875 874 268.1875 870.5 C 268.1875 869 269.1875 864.875 276.9375 864.875 C 284.5625 864.875 289.4375 868.125 292.5625 870.125 L 293.6875 869.75 L 294.9375 856.125 L 294.3125 855.375 C 288.4375 853.75 283.3125 852.25 275.1875 852.25 C 269.0625 852.25 256.8125 852.75 250.3125 862.125 C 248.6875 864.375 246.9375 868.125 246.9375 873.125 C 246.9375 886.5 257.3125 890.5 263.1875 892.75 L 267.9375 894.5 C 271.3125 895.625 276.8125 897.5 276.8125 902 C 276.8125 905.125 273.9375 908.5 266.9375 908.5 C 263.4375 908.5 258.3125 907.375 253.6875 905 C 251.5625 903.875 250.5625 903 248.6875 901.5 L 247.5625 902 C 247.3125 908.5 247.1875 909.875 246.6875 916.125 L 247.3125 917.25 C 253.4375 919.5 258.6875 921.5 267.8125 921.5 C 277.3125 921.5 296.0625 919.75 298.3125 901.875 C 298.4375 900.875 298.4375 900 298.4375 899.125 C 298.4375 885.375 288.8125 881.75 281.9375 879.125 Z M 344.4375 905.625 C 342.3125 906.25 340.8125 906.75 338.6875 906.75 C 332.3125 906.75 331.8125 902.75 331.5625 900.875 C 331.1875 897.625 331.1875 890.75 331.3125 885.75 L 331.5625 868.125 L 342.8125 868.625 L 343.5625 867.875 L 344.8125 854.5 L 344.0625 853.75 L 331.5625 853.75 L 331.9375 832.75 L 331.0625 832 C 322.5625 834.5 320.3125 835.125 311.4375 837.375 L 310.9375 838.25 L 311.0625 853.875 L 304.3125 853.625 L 303.5625 854.25 L 302.4375 867.625 L 303.1875 868.375 L 311.0625 868.125 L 310.6875 888 C 310.5625 891.125 310.4375 894.25 310.4375 897.5 C 310.4375 909 310.6875 921.375 330.1875 921.375 C 335.0625 921.375 338.9375 920.625 343.3125 919.875 L 344.1875 919 L 345.4375 906.125 Z M 417.3125 886.75 C 417.3125 881.875 417.3125 861.625 399.8125 854.75 C 394.3125 852.625 387.8125 852.375 384.5625 852.375 C 362.8125 852.375 350.5625 864 350.5625 887 C 350.5625 895 351.8125 903.125 356.4375 909.875 C 359.6875 914.75 365.8125 921.5 383.6875 921.5 C 410.1875 921.5 417.3125 905.5 417.3125 886.75 M 395.6875 886.625 C 395.6875 896.875 394.3125 908.25 383.9375 908.25 C 380.6875 908.25 378.4375 906.75 376.9375 905.375 C 374.8125 903.25 372.4375 899 372.4375 886.875 C 372.4375 883.25 372.4375 875.25 374.9375 870.875 C 376.8125 867.5 380.0625 865.25 384.0625 865.25 C 387.5625 865.25 390.4375 867.125 392.0625 869.125 C 395.0625 872.75 395.6875 879.875 395.6875 886.625 Z M 465.3125 873.625 L 468.8125 853.25 L 468.0625 852.375 C 467.1875 852.375 466.3125 852.25 465.4375 852.25 C 460.3125 852.25 454.5625 855.125 450.5625 864.375 L 450.9375 852.875 L 449.9375 851.875 C 440.6875 853.875 438.3125 854.25 429.1875 855.625 L 428.4375 856.375 C 429.1875 865.75 429.5625 871.375 429.5625 888.75 C 429.5625 899 429.4375 909.25 429.1875 919.625 L 429.9375 920.375 C 439.1875 920 441.1875 919.875 451.1875 920 L 451.8125 919.125 C 451.3125 909 450.5625 894.875 450.5625 886.25 C 450.5625 880.625 450.5625 872.375 459.0625 872.375 C 461.1875 872.375 462.4375 873.125 464.1875 874.125 Z M 498.6875 919.125 C 498.0625 909.5 497.5625 902.125 497.5625 884.875 C 497.5625 874.25 497.8125 863.5 497.9375 852.875 L 497.0625 851.875 L 475.5625 855.625 L 474.8125 856.375 C 475.8125 865.875 476.1875 870.25 476.1875 888 C 476.1875 901.625 475.8125 909.25 475.4375 919.5 L 476.1875 920.375 C 485.1875 920 487.6875 919.875 497.8125 920 L 498.6875 919.125 M 496.6875 839.875 L 497.0625 822.875 L 496.3125 822.125 L 475.9375 824.625 L 475.1875 825.5 C 475.4375 830 475.5625 832.625 475.5625 835.625 C 475.5625 838 475.5625 840.5 475.4375 842.875 L 476.3125 843.625 C 484.8125 842.125 487.1875 841.875 496.0625 840.75 Z M 561.4375 902 C 558.0625 904 554.8125 906 548.4375 906 C 534.3125 906 531.4375 894.25 531.4375 886.75 C 531.4375 877.625 535.4375 867.125 547.5625 867.125 C 553.0625 867.125 556.0625 869.125 559.8125 871.625 L 561.0625 871.25 C 561.5625 864.625 561.6875 862.875 562.6875 856.25 L 562.0625 855.5 C 556.5625 853.75 551.8125 852.25 544.5625 852.25 C 515.1875 852.25 509.4375 874.5 509.4375 887.25 C 509.4375 901.625 516.9375 921.125 545.0625 921.125 C 551.6875 921.125 555.9375 919.875 561.1875 918.375 L 561.9375 917.625 L 562.4375 902.625 Z M 625.6875 831.5 L 609.8125 831.75 L 609.0625 832.5 C 609.5625 848.75 609.9375 859.625 609.9375 874 C 609.9375 889.25 609.5625 904.375 609.1875 919.625 L 609.9375 920.375 C 619.1875 920 621.1875 919.875 631.1875 920 L 631.8125 919.25 C 631.3125 905.625 631.3125 902.5 631.3125 889.75 C 645.3125 889.875 660.3125 889.875 669.3125 878.875 C 672.8125 874.625 675.8125 867.5 675.8125 858.75 C 675.8125 853.375 674.5625 841.5 664.1875 835.625 C 656.6875 831.25 646.0625 831.25 636.6875 831.25 L 625.6875 831.5 M 631.3125 846.625 C 634.0625 846.5 636.6875 846.5 639.4375 846.5 C 650.4375 846.75 653.4375 852.375 653.4375 859.625 C 653.4375 861.375 653.4375 868.625 646.8125 872.25 C 643.4375 874.125 638.8125 874.375 631.3125 874.375 Z M 740.0625 882.75 C 740.1875 871.5 740.1875 866.625 736.9375 861.375 C 734.4375 857.375 729.4375 852.375 713.4375 852.375 C 702.6875 852.375 696.0625 854.375 688.9375 856.5 L 688.1875 857.5 L 687.5625 871.125 L 688.5625 871.625 C 692.9375 869.875 701.0625 866.625 709.4375 866.625 C 714.0625 866.625 715.9375 867.375 717.5625 869 C 718.8125 870.25 719.1875 872.5 719.1875 874.375 C 704.1875 876.375 697.1875 877.75 689.6875 882.375 C 682.6875 886.75 680.3125 893.875 680.3125 899.5 C 680.3125 912.875 689.9375 921.5 702.1875 921.5 C 711.5625 921.5 716.9375 917 719.5625 914.875 L 719.5625 919.5 L 720.3125 920.375 C 729.3125 920 732.0625 919.875 740.1875 920 L 740.8125 919.125 C 739.9375 906.875 739.9375 903.75 739.9375 892 L 740.0625 882.75 M 719.4375 902.625 C 716.8125 904.125 713.4375 905.875 709.3125 905.875 C 704.8125 905.875 701.0625 903.5 701.0625 898.25 C 701.0625 890 710.9375 888.625 719.4375 887.5 Z M 790.8125 873.625 L 794.3125 853.25 L 793.5625 852.375 C 792.6875 852.375 791.8125 852.25 790.9375 852.25 C 785.8125 852.25 780.0625 855.125 776.0625 864.375 L 776.4375 852.875 L 775.4375 851.875 C 766.1875 853.875 763.8125 854.25 754.6875 855.625 L 753.9375 856.375 C 754.6875 865.75 755.0625 871.375 755.0625 888.75 C 755.0625 899 754.9375 909.25 754.6875 919.625 L 755.4375 920.375 C 764.6875 920 766.6875 919.875 776.6875 920 L 777.3125 919.125 C 776.8125 909 776.0625 894.875 776.0625 886.25 C 776.0625 880.625 776.0625 872.375 784.5625 872.375 C 786.6875 872.375 787.9375 873.125 789.6875 874.125 Z M 865.8125 918.375 C 854.0625 898.5 852.8125 896.25 843.3125 879.125 C 851.9375 867.375 852.8125 866.125 861.6875 854.75 L 861.0625 853.5 L 840.6875 853.75 L 839.4375 854.625 C 829.6875 871.5 828.4375 873.5 822.6875 882.125 L 822.6875 868.25 C 822.8125 844.875 822.9375 839.875 823.5625 821 L 822.5625 820.25 L 800.8125 823.5 L 800.0625 824.375 C 800.9375 836.5 801.3125 842.375 801.5625 858.75 C 801.8125 879 801.8125 899.25 801.6875 919.5 L 802.5625 920.375 C 810.9375 920 813.3125 920 822.8125 920 L 823.5625 919.125 L 822.8125 898 L 822.6875 883.625 C 833.5625 903.625 834.9375 906.375 841.3125 919.625 L 842.4375 920.375 L 864.9375 919.5 Z M 864.3125 920 "/>
</svg>
