<?xml version="1.0" encoding="UTF-8"?>
<svg xmlns="http://www.w3.org/2000/svg" xmlns:xlink="http://www.w3.org/1999/xlink" width="975" height="1300" viewBox="0 0 975 1300">
<path fill-rule="nonzero" fill="rgb(34.901961%, 14.901961%, 14.901961%)" fill-opacity="1" d="M 296.125 544.125 C 301.5 521.5 303.375 515 320.375 457 L 319.75 456.375 C 310.375 456.75 307.875 456.75 300.375 456.75 L 299.625 457.5 C 297.25 469.75 296.625 473 293.125 486.875 L 289.125 503.25 L 283.75 526.375 L 277.125 496.875 L 274.5 485.625 C 271.375 472.75 270.5 468.5 267.875 456.375 L 267.125 455.75 C 256.75 456.5 254.5 456.625 244.75 456.625 L 244.125 457.375 C 252.5 486.25 260 512.75 264.25 529.25 C 265.5 534.375 266.75 539.5 268 544.625 L 268.75 545.375 C 279.625 545 282.375 544.875 295.375 545 Z M 381.625 526.5 C 376.875 529 371.25 531.875 362.125 531.875 C 354.625 531.875 349.5 529.5 346.5 525 C 344.625 522.375 344.25 519.875 343.75 517.375 L 384.125 516.625 L 384.875 515.75 C 384.75 509.625 384.625 503.375 382.875 497.125 C 378.5 482.375 368.875 479.375 364.625 478.375 C 361.5 477.5 358.625 477.25 355.75 477.25 C 336.125 477.25 323.125 490.125 323.125 511.75 C 323.125 517.625 324.125 523.75 326.125 528.125 C 333.375 545 350.375 546.5 359.375 546.5 C 369.75 546.5 374.25 544.625 380.875 542 L 381.625 541 L 382.5 526.875 L 381.625 526.5 M 343.75 504.125 C 344.125 500.25 345 495 349.75 492 C 351.25 491 353 490.625 354.75 490.625 C 358.875 490.625 361.375 492.75 362.75 495 C 364.5 497.75 364.625 500.75 364.625 503.625 Z M 432.5 498.625 L 436 478.25 L 435.25 477.375 C 434.375 477.375 433.5 477.25 432.625 477.25 C 427.5 477.25 421.75 480.125 417.75 489.375 L 418.125 477.875 L 417.125 476.875 C 407.875 478.875 405.5 479.25 396.375 480.625 L 395.625 481.375 C 396.375 490.75 396.75 496.375 396.75 513.75 C 396.75 524 396.625 534.25 396.375 544.625 L 397.125 545.375 C 406.375 545 408.375 544.875 418.375 545 L 419 544.125 C 418.5 534 417.75 519.875 417.75 511.25 C 417.75 505.625 417.75 497.375 426.25 497.375 C 428.375 497.375 429.625 498.125 431.375 499.125 Z M 504.5 544.25 C 504 533 503.625 525.5 503.625 509.125 C 503.625 476.125 504.125 462.5 504.625 446 L 503.75 445.25 L 483.125 448.5 L 482.5 449.25 C 483.25 461 483.375 464.125 483.25 478.375 C 473.875 478.125 462.125 477.875 452.625 485.375 C 443.875 492.125 440.25 502.5 440.25 515.375 C 440.25 525.125 442.875 534.875 450.25 541 C 455.75 545.5 462.5 546.5 466.625 546.5 C 475.5 546.5 480.125 542.375 483.125 539.75 L 482.875 544.625 L 483.5 545.375 C 492.125 545 494.5 545 503.875 545 L 504.5 544.25 M 483.25 493.375 C 483.375 510 483.25 513.25 482.875 528.375 C 480.375 529.875 477.875 531.375 474.375 531.375 C 462.25 531.375 462.25 515.875 462.25 513.375 C 462.25 503.75 465 493 479 493 C 480.375 493 481.5 493.125 483.25 493.375 Z M 578.75 478.125 L 558.375 479.125 L 557.5 479.875 C 558.375 494 558.375 514 558.375 516 C 558.375 519.625 558.375 521.625 558.25 526.625 C 554.875 528.875 552.25 530.75 548.875 530.75 C 539.875 530.75 539.875 521.25 539.875 513.875 C 539.875 510.75 539.875 507.5 540 504.375 L 540.25 479.125 L 539.375 478.125 L 518.75 479.125 L 517.875 479.875 C 518.625 490.375 518.75 493.875 518.75 506.5 L 518.75 515.25 C 518.625 528.875 519.25 534.625 523.75 539.875 C 527.875 544.5 533.875 546.5 540.125 546.5 C 549 546.5 554.125 542.5 558.625 539 L 558.5 544.625 L 559.375 545.375 C 568.5 545 571.25 545 579.375 545 L 580.125 544.25 C 579.5 535.375 579.25 530.625 579.25 514.375 C 579.25 502.625 579.375 490.875 579.625 479.125 Z M 617.25 523.875 C 621.25 524 625.25 524.25 631.25 522.25 C 637.75 520 647.25 514.625 647.25 502.5 C 647.25 496.5 645.5 494 643.875 491.625 L 652.5 492.125 L 653.25 491.5 L 654.125 479 L 653.375 478.375 C 643.75 478.75 641.125 478.875 633.25 478.75 L 627.5 478.625 C 618.625 478.375 606.75 478.125 598.625 484.875 C 595.875 487 590.625 492.375 590.625 501.75 C 590.625 506.75 592 510.75 594.25 513.875 C 597 517.75 599.5 519.125 602.625 520.875 C 599.125 527.625 597.25 531 594.375 536.125 L 594.375 537.25 L 599.625 541 C 595.875 543.875 590 548.625 590 556.75 C 590 562.5 593.125 567.5 597.75 570.875 C 604.75 575.875 614.25 576.125 619.125 576.125 C 642 576.125 652.5 564.625 652.5 552.5 C 652.5 536.75 638.75 533.75 630.625 531.875 L 627.625 531.375 C 621.5 530.375 620.125 530 615.25 528.25 L 617.25 523.875 M 627.5 501.375 C 627.375 511.5 621.25 512.375 619.5 512.375 C 618.5 512.375 614.125 512.125 612 507.125 C 610.875 504.5 610.875 501.5 610.875 500.625 C 610.875 494.375 614.625 490.375 619.25 490.375 C 625 490.375 627.625 495.875 627.5 501.375 M 616.875 548 C 628 550.875 628.125 550.875 629.625 552.125 C 630.875 553 632.125 554.375 632.125 557 C 632.125 560.75 629 564.625 620.75 564.625 C 611.5 564.625 608.375 559.375 608.375 555 C 608.375 550.875 610.5 548.5 612 546.75 Z M 725.625 511.75 C 725.625 506.875 725.625 486.625 708.125 479.75 C 702.625 477.625 696.125 477.375 692.875 477.375 C 671.125 477.375 658.875 489 658.875 512 C 658.875 520 660.125 528.125 664.75 534.875 C 668 539.75 674.125 546.5 692 546.5 C 718.5 546.5 725.625 530.5 725.625 511.75 M 704 511.625 C 704 521.875 702.625 533.25 692.25 533.25 C 689 533.25 686.75 531.75 685.25 530.375 C 683.125 528.25 680.75 524 680.75 511.875 C 680.75 508.25 680.75 500.25 683.25 495.875 C 685.125 492.5 688.375 490.25 692.375 490.25 C 695.875 490.25 698.75 492.125 700.375 494.125 C 703.375 497.75 704 504.875 704 511.625 Z M 730 545 "/>
<path fill-rule="nonzero" fill="rgb(34.901961%, 14.901961%, 14.901961%)" fill-opacity="1" d="M 281 606.375 C 268 606.75 265.875 606.75 252 606.75 L 251.25 607.5 L 245.5 627.75 L 240.5 645.875 L 234.625 667.625 L 229.125 645.25 L 225.625 631.125 L 219.375 607.125 L 218.75 606.375 C 205.375 606.75 203.125 606.75 189.125 606.75 L 188.375 607.5 C 187.125 644.875 186.625 654.5 183.875 694.625 L 184.5 695.375 C 192.5 695 194.875 694.875 202.125 695 L 202.875 694.25 L 203.25 670.375 L 204 646.125 L 204.5 622.5 L 210 644.625 L 214.75 662.375 L 223.125 694.625 L 223.875 695.375 C 231.625 695 233.75 694.875 242.5 695 L 243.25 694.25 L 250.5 667.625 L 255.5 649.375 L 262.5 623.125 L 262.5 645.5 L 262.75 664.625 L 262.75 694.625 L 263.375 695.375 C 272 695 275.375 694.875 285 695 L 285.625 694.25 C 284.875 680 284 665.625 283.5 651.25 C 283.125 643.375 282.875 635.5 282.5 627.625 C 281.875 616 281.75 614.5 281.75 607.125 Z M 363.375 661.75 C 363.375 656.875 363.375 636.625 345.875 629.75 C 340.375 627.625 333.875 627.375 330.625 627.375 C 308.875 627.375 296.625 639 296.625 662 C 296.625 670 297.875 678.125 302.5 684.875 C 305.75 689.75 311.875 696.5 329.75 696.5 C 356.25 696.5 363.375 680.5 363.375 661.75 M 341.75 661.625 C 341.75 671.875 340.375 683.25 330 683.25 C 326.75 683.25 324.5 681.75 323 680.375 C 320.875 678.25 318.5 674 318.5 661.875 C 318.5 658.25 318.5 650.25 321 645.875 C 322.875 642.5 326.125 640.25 330.125 640.25 C 333.625 640.25 336.5 642.125 338.125 644.125 C 341.125 647.75 341.75 654.875 341.75 661.625 Z M 435.25 628.125 L 414.875 629.125 L 414 629.875 C 414.875 644 414.875 664 414.875 666 C 414.875 669.625 414.875 671.625 414.75 676.625 C 411.375 678.875 408.75 680.75 405.375 680.75 C 396.375 680.75 396.375 671.25 396.375 663.875 C 396.375 660.75 396.375 657.5 396.5 654.375 L 396.75 629.125 L 395.875 628.125 L 375.25 629.125 L 374.375 629.875 C 375.125 640.375 375.25 643.875 375.25 656.5 L 375.25 665.25 C 375.125 678.875 375.75 684.625 380.25 689.875 C 384.375 694.5 390.375 696.5 396.625 696.5 C 405.5 696.5 410.625 692.5 415.125 689 L 415 694.625 L 415.875 695.375 C 425 695 427.75 695 435.875 695 L 436.625 694.25 C 436 685.375 435.75 680.625 435.75 664.375 C 435.75 652.625 435.875 640.875 436.125 629.125 Z M 512 694.125 C 511.375 683.125 511.375 679.625 511.125 667.375 L 511.125 657.625 C 511 645.625 510.875 639.875 507.75 634.75 C 503.875 628.25 496.75 627.25 492.25 627.25 C 484.625 627.25 478 631.25 472.25 634.625 L 472.5 627.75 L 471.25 626.875 C 461.625 628.875 459.5 629.25 450.125 630.5 L 449.375 631.375 C 450.375 642.25 451.125 650.125 451.125 670.5 C 451.125 678.5 451 686.5 450.875 694.5 L 451.625 695.25 C 460.625 694.875 462.5 694.875 472.5 694.875 L 473.25 694.125 C 472.5 674.875 472.375 670 472.25 647.625 C 474.875 645.875 477.875 643.75 481.875 643.75 C 488.75 643.75 489.375 651.125 489.75 655.625 C 490 659.75 490.125 676.875 490.125 681.625 C 490.125 685.875 490 690.25 490 694.5 L 490.75 695.25 C 499 695 501.125 694.875 511.125 694.875 Z M 561.25 680.625 C 559.125 681.25 557.625 681.75 555.5 681.75 C 549.125 681.75 548.625 677.75 548.375 675.875 C 548 672.625 548 665.75 548.125 660.75 L 548.375 643.125 L 559.625 643.625 L 560.375 642.875 L 561.625 629.5 L 560.875 628.75 L 548.375 628.75 L 548.75 607.75 L 547.875 607 C 539.375 609.5 537.125 610.125 528.25 612.375 L 527.75 613.25 L 527.875 628.875 L 521.125 628.625 L 520.375 629.25 L 519.25 642.625 L 520 643.375 L 527.875 643.125 L 527.5 663 C 527.375 666.125 527.25 669.25 527.25 672.5 C 527.25 684 527.5 696.375 547 696.375 C 551.875 696.375 555.75 695.625 560.125 694.875 L 561 694 L 562.25 681.125 Z M 626.125 657.75 C 626.25 646.5 626.25 641.625 623 636.375 C 620.5 632.375 615.5 627.375 599.5 627.375 C 588.75 627.375 582.125 629.375 575 631.5 L 574.25 632.5 L 573.625 646.125 L 574.625 646.625 C 579 644.875 587.125 641.625 595.5 641.625 C 600.125 641.625 602 642.375 603.625 644 C 604.875 645.25 605.25 647.5 605.25 649.375 C 590.25 651.375 583.25 652.75 575.75 657.375 C 568.75 661.75 566.375 668.875 566.375 674.5 C 566.375 687.875 576 696.5 588.25 696.5 C 597.625 696.5 603 692 605.625 689.875 L 605.625 694.5 L 606.375 695.375 C 615.375 695 618.125 694.875 626.25 695 L 626.875 694.125 C 626 681.875 626 678.75 626 667 L 626.125 657.75 M 605.5 677.625 C 602.875 679.125 599.5 680.875 595.375 680.875 C 590.875 680.875 587.125 678.5 587.125 673.25 C 587.125 665 597 663.625 605.5 662.5 Z M 663.375 694.125 C 662.75 684.5 662.25 677.125 662.25 659.875 C 662.25 649.25 662.5 638.5 662.625 627.875 L 661.75 626.875 L 640.25 630.625 L 639.5 631.375 C 640.5 640.875 640.875 645.25 640.875 663 C 640.875 676.625 640.5 684.25 640.125 694.5 L 640.875 695.375 C 649.875 695 652.375 694.875 662.5 695 L 663.375 694.125 M 661.375 614.875 L 661.75 597.875 L 661 597.125 L 640.625 599.625 L 639.875 600.5 C 640.125 605 640.25 607.625 640.25 610.625 C 640.25 613 640.25 615.5 640.125 617.875 L 641 618.625 C 649.5 617.125 651.875 616.875 660.75 615.75 Z M 738.5 694.125 C 737.875 683.125 737.875 679.625 737.625 667.375 L 737.625 657.625 C 737.5 645.625 737.375 639.875 734.25 634.75 C 730.375 628.25 723.25 627.25 718.75 627.25 C 711.125 627.25 704.5 631.25 698.75 634.625 L 699 627.75 L 697.75 626.875 C 688.125 628.875 686 629.25 676.625 630.5 L 675.875 631.375 C 676.875 642.25 677.625 650.125 677.625 670.5 C 677.625 678.5 677.5 686.5 677.375 694.5 L 678.125 695.25 C 687.125 694.875 689 694.875 699 694.875 L 699.75 694.125 C 699 674.875 698.875 670 698.75 647.625 C 701.375 645.875 704.375 643.75 708.375 643.75 C 715.25 643.75 715.875 651.125 716.25 655.625 C 716.5 659.75 716.625 676.875 716.625 681.625 C 716.625 685.875 716.5 690.25 716.5 694.5 L 717.25 695.25 C 725.5 695 727.625 694.875 737.625 694.875 Z M 779 651.875 C 774.75 650.375 771.375 649 771.375 645.5 C 771.375 644 772.375 639.875 780.125 639.875 C 787.75 639.875 792.625 643.125 795.75 645.125 L 796.875 644.75 L 798.125 631.125 L 797.5 630.375 C 791.625 628.75 786.5 627.25 778.375 627.25 C 772.25 627.25 760 627.75 753.5 637.125 C 751.875 639.375 750.125 643.125 750.125 648.125 C 750.125 661.5 760.5 665.5 766.375 667.75 L 771.125 669.5 C 774.5 670.625 780 672.5 780 677 C 780 680.125 777.125 683.5 770.125 683.5 C 766.625 683.5 761.5 682.375 756.875 680 C 754.75 678.875 753.75 678 751.875 676.5 L 750.75 677 C 750.5 683.5 750.375 684.875 749.875 691.125 L 750.5 692.25 C 756.625 694.5 761.875 696.5 771 696.5 C 780.5 696.5 799.25 694.75 801.5 676.875 C 801.625 675.875 801.625 675 801.625 674.125 C 801.625 660.375 792 656.75 785.125 654.125 Z M 805.125 695 "/>
<path fill-rule="nonzero" fill="rgb(34.901961%, 14.901961%, 14.901961%)" fill-opacity="1" d="M 115.5625 756.5 L 99.6875 756.75 L 98.9375 757.5 C 99.4375 773.75 99.8125 784.625 99.8125 799 C 99.8125 814.25 99.4375 829.375 99.0625 844.625 L 99.8125 845.375 C 109.0625 845 111.0625 844.875 121.0625 845 L 121.6875 844.25 C 121.1875 830.625 121.1875 827.5 121.1875 814.75 C 135.1875 814.875 150.1875 814.875 159.1875 803.875 C 162.6875 799.625 165.6875 792.5 165.6875 783.75 C 165.6875 778.375 164.4375 766.5 154.0625 760.625 C 146.5625 756.25 135.9375 756.25 126.5625 756.25 L 115.5625 756.5 M 121.1875 771.625 C 123.9375 771.5 126.5625 771.5 129.3125 771.5 C 140.3125 771.75 143.3125 777.375 143.3125 784.625 C 143.3125 786.375 143.3125 793.625 136.6875 797.25 C 133.3125 799.125 128.6875 799.375 121.1875 799.375 Z M 229.9375 807.75 C 230.0625 796.5 230.0625 791.625 226.8125 786.375 C 224.3125 782.375 219.3125 777.375 203.3125 777.375 C 192.5625 777.375 185.9375 779.375 178.8125 781.5 L 178.0625 782.5 L 177.4375 796.125 L 178.4375 796.625 C 182.8125 794.875 190.9375 791.625 199.3125 791.625 C 203.9375 791.625 205.8125 792.375 207.4375 794 C 208.6875 795.25 209.0625 797.5 209.0625 799.375 C 194.0625 801.375 187.0625 802.75 179.5625 807.375 C 172.5625 811.75 170.1875 818.875 170.1875 824.5 C 170.1875 837.875 179.8125 846.5 192.0625 846.5 C 201.4375 846.5 206.8125 842 209.4375 839.875 L 209.4375 844.5 L 210.1875 845.375 C 219.1875 845 221.9375 844.875 230.0625 845 L 230.6875 844.125 C 229.8125 831.875 229.8125 828.75 229.8125 817 L 229.9375 807.75 M 209.3125 827.625 C 206.6875 829.125 203.3125 830.875 199.1875 830.875 C 194.6875 830.875 190.9375 828.5 190.9375 823.25 C 190.9375 815 200.8125 813.625 209.3125 812.5 Z M 280.6875 798.625 L 284.1875 778.25 L 283.4375 777.375 C 282.5625 777.375 281.6875 777.25 280.8125 777.25 C 275.6875 777.25 269.9375 780.125 265.9375 789.375 L 266.3125 777.875 L 265.3125 776.875 C 256.0625 778.875 253.6875 779.25 244.5625 780.625 L 243.8125 781.375 C 244.5625 790.75 244.9375 796.375 244.9375 813.75 C 244.9375 824 244.8125 834.25 244.5625 844.625 L 245.3125 845.375 C 254.5625 845 256.5625 844.875 266.5625 845 L 267.1875 844.125 C 266.6875 834 265.9375 819.875 265.9375 811.25 C 265.9375 805.625 265.9375 797.375 274.4375 797.375 C 276.5625 797.375 277.8125 798.125 279.5625 799.125 Z M 355.6875 843.375 C 343.9375 823.5 342.6875 821.25 333.1875 804.125 C 341.8125 792.375 342.6875 791.125 351.5625 779.75 L 350.9375 778.5 L 330.5625 778.75 L 329.3125 779.625 C 319.5625 796.5 318.3125 798.5 312.5625 807.125 L 312.5625 793.25 C 312.6875 769.875 312.8125 764.875 313.4375 746 L 312.4375 745.25 L 290.6875 748.5 L 289.9375 749.375 C 290.8125 761.5 291.1875 767.375 291.4375 783.75 C 291.6875 804 291.6875 824.25 291.5625 844.5 L 292.4375 845.375 C 300.8125 845 303.1875 845 312.6875 845 L 313.4375 844.125 L 312.6875 823 L 312.5625 808.625 C 323.4375 828.625 324.8125 831.375 331.1875 844.625 L 332.3125 845.375 L 354.8125 844.5 Z M 414.9375 756.5 L 399.0625 756.75 L 398.3125 757.5 C 398.8125 773.75 399.1875 784.625 399.1875 799 C 399.1875 814.25 398.8125 829.375 398.4375 844.625 L 399.1875 845.375 C 408.4375 845 410.4375 844.875 420.4375 845 L 421.0625 844.25 C 420.5625 830.625 420.5625 827.5 420.5625 814.75 C 434.5625 814.875 449.5625 814.875 458.5625 803.875 C 462.0625 799.625 465.0625 792.5 465.0625 783.75 C 465.0625 778.375 463.8125 766.5 453.4375 760.625 C 445.9375 756.25 435.3125 756.25 425.9375 756.25 L 414.9375 756.5 M 420.5625 771.625 C 423.3125 771.5 425.9375 771.5 428.6875 771.5 C 439.6875 771.75 442.6875 777.375 442.6875 784.625 C 442.6875 786.375 442.6875 793.625 436.0625 797.25 C 432.6875 799.125 428.0625 799.375 420.5625 799.375 Z M 509.8125 798.625 L 513.3125 778.25 L 512.5625 777.375 C 511.6875 777.375 510.8125 777.25 509.9375 777.25 C 504.8125 777.25 499.0625 780.125 495.0625 789.375 L 495.4375 777.875 L 494.4375 776.875 C 485.1875 778.875 482.8125 779.25 473.6875 780.625 L 472.9375 781.375 C 473.6875 790.75 474.0625 796.375 474.0625 813.75 C 474.0625 824 473.9375 834.25 473.6875 844.625 L 474.4375 845.375 C 483.6875 845 485.6875 844.875 495.6875 845 L 496.3125 844.125 C 495.8125 834 495.0625 819.875 495.0625 811.25 C 495.0625 805.625 495.0625 797.375 503.5625 797.375 C 505.6875 797.375 506.9375 798.125 508.6875 799.125 Z M 584.1875 811.75 C 584.1875 806.875 584.1875 786.625 566.6875 779.75 C 561.1875 777.625 554.6875 777.375 551.4375 777.375 C 529.6875 777.375 517.4375 789 517.4375 812 C 517.4375 820 518.6875 828.125 523.3125 834.875 C 526.5625 839.75 532.6875 846.5 550.5625 846.5 C 577.0625 846.5 584.1875 830.5 584.1875 811.75 M 562.5625 811.625 C 562.5625 821.875 561.1875 833.25 550.8125 833.25 C 547.5625 833.25 545.3125 831.75 543.8125 830.375 C 541.6875 828.25 539.3125 824 539.3125 811.875 C 539.3125 808.25 539.3125 800.25 541.8125 795.875 C 543.6875 792.5 546.9375 790.25 550.9375 790.25 C 554.4375 790.25 557.3125 792.125 558.9375 794.125 C 561.9375 797.75 562.5625 804.875 562.5625 811.625 Z M 616.8125 778.125 L 615.8125 777 C 606.6875 779 604.0625 779.5 595.0625 780.625 L 594.3125 781.5 C 595.6875 796.375 596.1875 802.125 596.1875 838.125 C 596.1875 853 595.9375 861.5 595.5625 875.625 L 596.3125 876.25 C 605.1875 875.875 607.8125 875.75 617.3125 875.875 L 618.0625 875.25 L 617.1875 845.5 C 626.3125 845.375 638.9375 845.25 649.0625 835.75 C 657.0625 828.25 659.6875 817.625 659.6875 809.125 C 659.6875 789.25 647.5625 777.25 633.5625 777.25 C 624.9375 777.25 620.0625 780.75 616.5625 783.125 L 616.8125 778.125 M 617.0625 795.125 C 619.8125 793.5 621.4375 792.625 624.5625 792.625 C 626.4375 792.625 630.1875 792.875 633.3125 796.375 C 637.1875 800.625 637.8125 807 637.8125 811.25 C 637.8125 818.5 635.4375 825 630.4375 828.5 C 626.4375 831.25 621.4375 831.5 617.0625 831.625 Z M 727.0625 826.5 C 722.3125 829 716.6875 831.875 707.5625 831.875 C 700.0625 831.875 694.9375 829.5 691.9375 825 C 690.0625 822.375 689.6875 819.875 689.1875 817.375 L 729.5625 816.625 L 730.3125 815.75 C 730.1875 809.625 730.0625 803.375 728.3125 797.125 C 723.9375 782.375 714.3125 779.375 710.0625 778.375 C 706.9375 777.5 704.0625 777.25 701.1875 777.25 C 681.5625 777.25 668.5625 790.125 668.5625 811.75 C 668.5625 817.625 669.5625 823.75 671.5625 828.125 C 678.8125 845 695.8125 846.5 704.8125 846.5 C 715.1875 846.5 719.6875 844.625 726.3125 842 L 727.0625 841 L 727.9375 826.875 L 727.0625 826.5 M 689.1875 804.125 C 689.5625 800.25 690.4375 795 695.1875 792 C 696.6875 791 698.4375 790.625 700.1875 790.625 C 704.3125 790.625 706.8125 792.75 708.1875 795 C 709.9375 797.75 710.0625 800.75 710.0625 803.625 Z M 777.9375 798.625 L 781.4375 778.25 L 780.6875 777.375 C 779.8125 777.375 778.9375 777.25 778.0625 777.25 C 772.9375 777.25 767.1875 780.125 763.1875 789.375 L 763.5625 777.875 L 762.5625 776.875 C 753.3125 778.875 750.9375 779.25 741.8125 780.625 L 741.0625 781.375 C 741.8125 790.75 742.1875 796.375 742.1875 813.75 C 742.1875 824 742.0625 834.25 741.8125 844.625 L 742.5625 845.375 C 751.8125 845 753.8125 844.875 763.8125 845 L 764.4375 844.125 C 763.9375 834 763.1875 819.875 763.1875 811.25 C 763.1875 805.625 763.1875 797.375 771.6875 797.375 C 773.8125 797.375 775.0625 798.125 776.8125 799.125 Z M 823.6875 830.625 C 821.5625 831.25 820.0625 831.75 817.9375 831.75 C 811.5625 831.75 811.0625 827.75 810.8125 825.875 C 810.4375 822.625 810.4375 815.75 810.5625 810.75 L 810.8125 793.125 L 822.0625 793.625 L 822.8125 792.875 L 824.0625 779.5 L 823.3125 778.75 L 810.8125 778.75 L 811.1875 757.75 L 810.3125 757 C 801.8125 759.5 799.5625 760.125 790.6875 762.375 L 790.1875 763.25 L 790.3125 778.875 L 783.5625 778.625 L 782.8125 779.25 L 781.6875 792.625 L 782.4375 793.375 L 790.3125 793.125 L 789.9375 813 C 789.8125 816.125 789.6875 819.25 789.6875 822.5 C 789.6875 834 789.9375 846.375 809.4375 846.375 C 814.3125 846.375 818.1875 845.625 822.5625 844.875 L 823.4375 844 L 824.6875 831.125 Z M 888.8125 778.375 L 871.4375 778.75 L 870.4375 779.625 C 868.3125 788.25 867.8125 790.125 864.8125 799.875 L 861.5625 810.625 L 858.8125 820 L 856.4375 811.125 L 852.8125 797.875 L 847.8125 778.875 L 846.8125 778.125 C 837.0625 778.875 834.9375 779 824.6875 779.25 L 824.0625 780.125 C 828.5625 792 840.1875 823.375 847.9375 847.375 C 842.8125 860.375 841.8125 862.625 836.1875 875 L 836.8125 876 C 839.9375 875.875 843.4375 875.75 846.6875 875.75 C 849.8125 875.75 853.0625 875.875 856.1875 875.875 L 857.0625 875.125 C 863.9375 848.125 867.3125 837.625 883.8125 794.125 C 885.6875 789.125 887.5625 784.25 889.3125 779.375 Z M 887.9375 845 "/>
</svg>
