<?xml version="1.0" encoding="UTF-8"?>
<svg xmlns="http://www.w3.org/2000/svg" xmlns:xlink="http://www.w3.org/1999/xlink" width="975" height="1300" viewBox="0 0 975 1300">
<path fill-rule="nonzero" fill="rgb(34.901961%, 14.901961%, 14.901961%)" fill-opacity="1" d="M 277.4375 456.375 C 264.4375 456.75 262.3125 456.75 248.4375 456.75 L 247.6875 457.5 L 241.9375 477.75 L 236.9375 495.875 L 231.0625 517.625 L 225.5625 495.25 L 222.0625 481.125 L 215.8125 457.125 L 215.1875 456.375 C 201.8125 456.75 199.5625 456.75 185.5625 456.75 L 184.8125 457.5 C 183.5625 494.875 183.0625 504.5 180.3125 544.625 L 180.9375 545.375 C 188.9375 545 191.3125 544.875 198.5625 545 L 199.3125 544.25 L 199.6875 520.375 L 200.4375 496.125 L 200.9375 472.5 L 206.4375 494.625 L 211.1875 512.375 L 219.5625 544.625 L 220.3125 545.375 C 228.0625 545 230.1875 544.875 238.9375 545 L 239.6875 544.25 L 246.9375 517.625 L 251.9375 499.375 L 258.9375 473.125 L 258.9375 495.5 L 259.1875 514.625 L 259.1875 544.625 L 259.8125 545.375 C 268.4375 545 271.8125 544.875 281.4375 545 L 282.0625 544.25 C 281.3125 530 280.4375 515.625 279.9375 501.25 C 279.5625 493.375 279.3125 485.5 278.9375 477.625 C 278.3125 466 278.1875 464.5 278.1875 457.125 Z M 359.8125 511.75 C 359.8125 506.875 359.8125 486.625 342.3125 479.75 C 336.8125 477.625 330.3125 477.375 327.0625 477.375 C 305.3125 477.375 293.0625 489 293.0625 512 C 293.0625 520 294.3125 528.125 298.9375 534.875 C 302.1875 539.75 308.3125 546.5 326.1875 546.5 C 352.6875 546.5 359.8125 530.5 359.8125 511.75 M 338.1875 511.625 C 338.1875 521.875 336.8125 533.25 326.4375 533.25 C 323.1875 533.25 320.9375 531.75 319.4375 530.375 C 317.3125 528.25 314.9375 524 314.9375 511.875 C 314.9375 508.25 314.9375 500.25 317.4375 495.875 C 319.3125 492.5 322.5625 490.25 326.5625 490.25 C 330.0625 490.25 332.9375 492.125 334.5625 494.125 C 337.5625 497.75 338.1875 504.875 338.1875 511.625 Z M 431.6875 478.125 L 411.3125 479.125 L 410.4375 479.875 C 411.3125 494 411.3125 514 411.3125 516 C 411.3125 519.625 411.3125 521.625 411.1875 526.625 C 407.8125 528.875 405.1875 530.75 401.8125 530.75 C 392.8125 530.75 392.8125 521.25 392.8125 513.875 C 392.8125 510.75 392.8125 507.5 392.9375 504.375 L 393.1875 479.125 L 392.3125 478.125 L 371.6875 479.125 L 370.8125 479.875 C 371.5625 490.375 371.6875 493.875 371.6875 506.5 L 371.6875 515.25 C 371.5625 528.875 372.1875 534.625 376.6875 539.875 C 380.8125 544.5 386.8125 546.5 393.0625 546.5 C 401.9375 546.5 407.0625 542.5 411.5625 539 L 411.4375 544.625 L 412.3125 545.375 C 421.4375 545 424.1875 545 432.3125 545 L 433.0625 544.25 C 432.4375 535.375 432.1875 530.625 432.1875 514.375 C 432.1875 502.625 432.3125 490.875 432.5625 479.125 Z M 508.4375 544.125 C 507.8125 533.125 507.8125 529.625 507.5625 517.375 L 507.5625 507.625 C 507.4375 495.625 507.3125 489.875 504.1875 484.75 C 500.3125 478.25 493.1875 477.25 488.6875 477.25 C 481.0625 477.25 474.4375 481.25 468.6875 484.625 L 468.9375 477.75 L 467.6875 476.875 C 458.0625 478.875 455.9375 479.25 446.5625 480.5 L 445.8125 481.375 C 446.8125 492.25 447.5625 500.125 447.5625 520.5 C 447.5625 528.5 447.4375 536.5 447.3125 544.5 L 448.0625 545.25 C 457.0625 544.875 458.9375 544.875 468.9375 544.875 L 469.6875 544.125 C 468.9375 524.875 468.8125 520 468.6875 497.625 C 471.3125 495.875 474.3125 493.75 478.3125 493.75 C 485.1875 493.75 485.8125 501.125 486.1875 505.625 C 486.4375 509.75 486.5625 526.875 486.5625 531.625 C 486.5625 535.875 486.4375 540.25 486.4375 544.5 L 487.1875 545.25 C 495.4375 545 497.5625 544.875 507.5625 544.875 Z M 557.6875 530.625 C 555.5625 531.25 554.0625 531.75 551.9375 531.75 C 545.5625 531.75 545.0625 527.75 544.8125 525.875 C 544.4375 522.625 544.4375 515.75 544.5625 510.75 L 544.8125 493.125 L 556.0625 493.625 L 556.8125 492.875 L 558.0625 479.5 L 557.3125 478.75 L 544.8125 478.75 L 545.1875 457.75 L 544.3125 457 C 535.8125 459.5 533.5625 460.125 524.6875 462.375 L 524.1875 463.25 L 524.3125 478.875 L 517.5625 478.625 L 516.8125 479.25 L 515.6875 492.625 L 516.4375 493.375 L 524.3125 493.125 L 523.9375 513 C 523.8125 516.125 523.6875 519.25 523.6875 522.5 C 523.6875 534 523.9375 546.375 543.4375 546.375 C 548.3125 546.375 552.1875 545.625 556.5625 544.875 L 557.4375 544 L 558.6875 531.125 Z M 639.5625 491.25 C 629.0625 486.875 623.5625 484.625 623.5625 479 C 623.5625 475.125 627.1875 470.25 635.4375 470.25 C 644.9375 470.25 650.5625 474.125 655.1875 477.25 L 656.3125 476.75 L 657.3125 460.375 L 656.6875 459.5 C 651.3125 457.25 645.6875 454.875 633.5625 454.875 C 610.0625 454.875 601.9375 468.125 601.9375 481.5 C 601.9375 496.625 613.6875 502.125 620.6875 505.5 L 624.8125 507.375 C 633.4375 511 640.0625 514.125 640.0625 520.75 C 640.0625 525.5 635.9375 531.125 625.0625 531.125 C 613.6875 531.125 607.3125 526.125 603.6875 523.25 L 602.4375 523.625 L 601.5625 541.25 L 602.3125 542.25 C 603.6875 542.75 605.0625 543.375 606.4375 543.75 C 609.3125 544.75 616.6875 546.875 626.0625 546.875 C 629.8125 546.875 639.3125 546.5 646.8125 543 C 657.3125 537.875 661.8125 528.375 661.8125 517.75 C 661.8125 510.625 659.0625 503 652.4375 497.875 C 649.0625 495.375 645.8125 493.875 642.8125 492.5 Z M 729.3125 507.75 C 729.4375 496.5 729.4375 491.625 726.1875 486.375 C 723.6875 482.375 718.6875 477.375 702.6875 477.375 C 691.9375 477.375 685.3125 479.375 678.1875 481.5 L 677.4375 482.5 L 676.8125 496.125 L 677.8125 496.625 C 682.1875 494.875 690.3125 491.625 698.6875 491.625 C 703.3125 491.625 705.1875 492.375 706.8125 494 C 708.0625 495.25 708.4375 497.5 708.4375 499.375 C 693.4375 501.375 686.4375 502.75 678.9375 507.375 C 671.9375 511.75 669.5625 518.875 669.5625 524.5 C 669.5625 537.875 679.1875 546.5 691.4375 546.5 C 700.8125 546.5 706.1875 542 708.8125 539.875 L 708.8125 544.5 L 709.5625 545.375 C 718.5625 545 721.3125 544.875 729.4375 545 L 730.0625 544.125 C 729.1875 531.875 729.1875 528.75 729.1875 517 L 729.3125 507.75 M 708.6875 527.625 C 706.0625 529.125 702.6875 530.875 698.5625 530.875 C 694.0625 530.875 690.3125 528.5 690.3125 523.25 C 690.3125 515 700.1875 513.625 708.6875 512.5 Z M 805.1875 544.125 C 804.5625 533.125 804.5625 529.625 804.3125 517.375 L 804.3125 507.625 C 804.1875 495.625 804.0625 489.875 800.9375 484.75 C 797.0625 478.25 789.9375 477.25 785.4375 477.25 C 777.8125 477.25 771.1875 481.25 765.4375 484.625 L 765.6875 477.75 L 764.4375 476.875 C 754.8125 478.875 752.6875 479.25 743.3125 480.5 L 742.5625 481.375 C 743.5625 492.25 744.3125 500.125 744.3125 520.5 C 744.3125 528.5 744.1875 536.5 744.0625 544.5 L 744.8125 545.25 C 753.8125 544.875 755.6875 544.875 765.6875 544.875 L 766.4375 544.125 C 765.6875 524.875 765.5625 520 765.4375 497.625 C 768.0625 495.875 771.0625 493.75 775.0625 493.75 C 781.9375 493.75 782.5625 501.125 782.9375 505.625 C 783.1875 509.75 783.3125 526.875 783.3125 531.625 C 783.3125 535.875 783.1875 540.25 783.1875 544.5 L 783.9375 545.25 C 792.1875 545 794.3125 544.875 804.3125 544.875 Z M 811.9375 545 "/>
<path fill-rule="nonzero" fill="rgb(34.901961%, 14.901961%, 14.901961%)" fill-opacity="1" d="M 117.8125 695.25 C 120.9375 695.5 123.3125 695.75 126.1875 695.75 C 154.4375 695.75 154.4375 678.75 154.4375 666.25 C 154.4375 663.125 154.3125 660 154.1875 656.875 L 154.1875 607.125 L 153.5625 606.375 C 143.9375 606.75 141.9375 606.75 131.5625 606.75 L 130.9375 607.5 C 131.5625 625.25 132.0625 640.625 132.0625 658.75 C 132.0625 670.25 132.0625 679.125 122.4375 679.125 C 120.5625 679.125 119.5625 678.75 117.9375 678.25 L 117.1875 679 L 117.1875 694.375 Z M 224.8125 657.75 C 224.9375 646.5 224.9375 641.625 221.6875 636.375 C 219.1875 632.375 214.1875 627.375 198.1875 627.375 C 187.4375 627.375 180.8125 629.375 173.6875 631.5 L 172.9375 632.5 L 172.3125 646.125 L 173.3125 646.625 C 177.6875 644.875 185.8125 641.625 194.1875 641.625 C 198.8125 641.625 200.6875 642.375 202.3125 644 C 203.5625 645.25 203.9375 647.5 203.9375 649.375 C 188.9375 651.375 181.9375 652.75 174.4375 657.375 C 167.4375 661.75 165.0625 668.875 165.0625 674.5 C 165.0625 687.875 174.6875 696.5 186.9375 696.5 C 196.3125 696.5 201.6875 692 204.3125 689.875 L 204.3125 694.5 L 205.0625 695.375 C 214.0625 695 216.8125 694.875 224.9375 695 L 225.5625 694.125 C 224.6875 681.875 224.6875 678.75 224.6875 667 L 224.8125 657.75 M 204.1875 677.625 C 201.5625 679.125 198.1875 680.875 194.0625 680.875 C 189.5625 680.875 185.8125 678.5 185.8125 673.25 C 185.8125 665 195.6875 663.625 204.1875 662.5 Z M 288.3125 677 C 284.9375 679 281.6875 681 275.3125 681 C 261.1875 681 258.3125 669.25 258.3125 661.75 C 258.3125 652.625 262.3125 642.125 274.4375 642.125 C 279.9375 642.125 282.9375 644.125 286.6875 646.625 L 287.9375 646.25 C 288.4375 639.625 288.5625 637.875 289.5625 631.25 L 288.9375 630.5 C 283.4375 628.75 278.6875 627.25 271.4375 627.25 C 242.0625 627.25 236.3125 649.5 236.3125 662.25 C 236.3125 676.625 243.8125 696.125 271.9375 696.125 C 278.5625 696.125 282.8125 694.875 288.0625 693.375 L 288.8125 692.625 L 289.3125 677.625 Z M 321.9375 694.125 C 321.3125 684.5 320.8125 677.125 320.8125 659.875 C 320.8125 649.25 321.0625 638.5 321.1875 627.875 L 320.3125 626.875 L 298.8125 630.625 L 298.0625 631.375 C 299.0625 640.875 299.4375 645.25 299.4375 663 C 299.4375 676.625 299.0625 684.25 298.6875 694.5 L 299.4375 695.375 C 308.4375 695 310.9375 694.875 321.0625 695 L 321.9375 694.125 M 319.9375 614.875 L 320.3125 597.875 L 319.5625 597.125 L 299.1875 599.625 L 298.4375 600.5 C 298.6875 605 298.8125 607.625 298.8125 610.625 C 298.8125 613 298.8125 615.5 298.6875 617.875 L 299.5625 618.625 C 308.0625 617.125 310.4375 616.875 319.3125 615.75 Z M 397.0625 694.125 C 396.4375 683.125 396.4375 679.625 396.1875 667.375 L 396.1875 657.625 C 396.0625 645.625 395.9375 639.875 392.8125 634.75 C 388.9375 628.25 381.8125 627.25 377.3125 627.25 C 369.6875 627.25 363.0625 631.25 357.3125 634.625 L 357.5625 627.75 L 356.3125 626.875 C 346.6875 628.875 344.5625 629.25 335.1875 630.5 L 334.4375 631.375 C 335.4375 642.25 336.1875 650.125 336.1875 670.5 C 336.1875 678.5 336.0625 686.5 335.9375 694.5 L 336.6875 695.25 C 345.6875 694.875 347.5625 694.875 357.5625 694.875 L 358.3125 694.125 C 357.5625 674.875 357.4375 670 357.3125 647.625 C 359.9375 645.875 362.9375 643.75 366.9375 643.75 C 373.8125 643.75 374.4375 651.125 374.8125 655.625 C 375.0625 659.75 375.1875 676.875 375.1875 681.625 C 375.1875 685.875 375.0625 690.25 375.0625 694.5 L 375.8125 695.25 C 384.0625 695 386.1875 694.875 396.1875 694.875 Z M 446.3125 680.625 C 444.1875 681.25 442.6875 681.75 440.5625 681.75 C 434.1875 681.75 433.6875 677.75 433.4375 675.875 C 433.0625 672.625 433.0625 665.75 433.1875 660.75 L 433.4375 643.125 L 444.6875 643.625 L 445.4375 642.875 L 446.6875 629.5 L 445.9375 628.75 L 433.4375 628.75 L 433.8125 607.75 L 432.9375 607 C 424.4375 609.5 422.1875 610.125 413.3125 612.375 L 412.8125 613.25 L 412.9375 628.875 L 406.1875 628.625 L 405.4375 629.25 L 404.3125 642.625 L 405.0625 643.375 L 412.9375 643.125 L 412.5625 663 C 412.4375 666.125 412.3125 669.25 412.3125 672.5 C 412.3125 684 412.5625 696.375 432.0625 696.375 C 436.9375 696.375 440.8125 695.625 445.1875 694.875 L 446.0625 694 L 447.3125 681.125 Z M 519.1875 661.75 C 519.1875 656.875 519.1875 636.625 501.6875 629.75 C 496.1875 627.625 489.6875 627.375 486.4375 627.375 C 464.6875 627.375 452.4375 639 452.4375 662 C 452.4375 670 453.6875 678.125 458.3125 684.875 C 461.5625 689.75 467.6875 696.5 485.5625 696.5 C 512.0625 696.5 519.1875 680.5 519.1875 661.75 M 497.5625 661.625 C 497.5625 671.875 496.1875 683.25 485.8125 683.25 C 482.5625 683.25 480.3125 681.75 478.8125 680.375 C 476.6875 678.25 474.3125 674 474.3125 661.875 C 474.3125 658.25 474.3125 650.25 476.8125 645.875 C 478.6875 642.5 481.9375 640.25 485.9375 640.25 C 489.4375 640.25 492.3125 642.125 493.9375 644.125 C 496.9375 647.75 497.5625 654.875 497.5625 661.625 Z M 603.6875 641.25 C 593.1875 636.875 587.6875 634.625 587.6875 629 C 587.6875 625.125 591.3125 620.25 599.5625 620.25 C 609.0625 620.25 614.6875 624.125 619.3125 627.25 L 620.4375 626.75 L 621.4375 610.375 L 620.8125 609.5 C 615.4375 607.25 609.8125 604.875 597.6875 604.875 C 574.1875 604.875 566.0625 618.125 566.0625 631.5 C 566.0625 646.625 577.8125 652.125 584.8125 655.5 L 588.9375 657.375 C 597.5625 661 604.1875 664.125 604.1875 670.75 C 604.1875 675.5 600.0625 681.125 589.1875 681.125 C 577.8125 681.125 571.4375 676.125 567.8125 673.25 L 566.5625 673.625 L 565.6875 691.25 L 566.4375 692.25 C 567.8125 692.75 569.1875 693.375 570.5625 693.75 C 573.4375 694.75 580.8125 696.875 590.1875 696.875 C 593.9375 696.875 603.4375 696.5 610.9375 693 C 621.4375 687.875 625.9375 678.375 625.9375 667.75 C 625.9375 660.625 623.1875 653 616.5625 647.875 C 613.1875 645.375 609.9375 643.875 606.9375 642.5 Z M 672.8125 680.625 C 670.6875 681.25 669.1875 681.75 667.0625 681.75 C 660.6875 681.75 660.1875 677.75 659.9375 675.875 C 659.5625 672.625 659.5625 665.75 659.6875 660.75 L 659.9375 643.125 L 671.1875 643.625 L 671.9375 642.875 L 673.1875 629.5 L 672.4375 628.75 L 659.9375 628.75 L 660.3125 607.75 L 659.4375 607 C 650.9375 609.5 648.6875 610.125 639.8125 612.375 L 639.3125 613.25 L 639.4375 628.875 L 632.6875 628.625 L 631.9375 629.25 L 630.8125 642.625 L 631.5625 643.375 L 639.4375 643.125 L 639.0625 663 C 638.9375 666.125 638.8125 669.25 638.8125 672.5 C 638.8125 684 639.0625 696.375 658.5625 696.375 C 663.4375 696.375 667.3125 695.625 671.6875 694.875 L 672.5625 694 L 673.8125 681.125 Z M 737.6875 657.75 C 737.8125 646.5 737.8125 641.625 734.5625 636.375 C 732.0625 632.375 727.0625 627.375 711.0625 627.375 C 700.3125 627.375 693.6875 629.375 686.5625 631.5 L 685.8125 632.5 L 685.1875 646.125 L 686.1875 646.625 C 690.5625 644.875 698.6875 641.625 707.0625 641.625 C 711.6875 641.625 713.5625 642.375 715.1875 644 C 716.4375 645.25 716.8125 647.5 716.8125 649.375 C 701.8125 651.375 694.8125 652.75 687.3125 657.375 C 680.3125 661.75 677.9375 668.875 677.9375 674.5 C 677.9375 687.875 687.5625 696.5 699.8125 696.5 C 709.1875 696.5 714.5625 692 717.1875 689.875 L 717.1875 694.5 L 717.9375 695.375 C 726.9375 695 729.6875 694.875 737.8125 695 L 738.4375 694.125 C 737.5625 681.875 737.5625 678.75 737.5625 667 L 737.6875 657.75 M 717.0625 677.625 C 714.4375 679.125 711.0625 680.875 706.9375 680.875 C 702.4375 680.875 698.6875 678.5 698.6875 673.25 C 698.6875 665 708.5625 663.625 717.0625 662.5 Z M 787.3125 680.625 C 785.1875 681.25 783.6875 681.75 781.5625 681.75 C 775.1875 681.75 774.6875 677.75 774.4375 675.875 C 774.0625 672.625 774.0625 665.75 774.1875 660.75 L 774.4375 643.125 L 785.6875 643.625 L 786.4375 642.875 L 787.6875 629.5 L 786.9375 628.75 L 774.4375 628.75 L 774.8125 607.75 L 773.9375 607 C 765.4375 609.5 763.1875 610.125 754.3125 612.375 L 753.8125 613.25 L 753.9375 628.875 L 747.1875 628.625 L 746.4375 629.25 L 745.3125 642.625 L 746.0625 643.375 L 753.9375 643.125 L 753.5625 663 C 753.4375 666.125 753.3125 669.25 753.3125 672.5 C 753.3125 684 753.5625 696.375 773.0625 696.375 C 777.9375 696.375 781.8125 695.625 786.1875 694.875 L 787.0625 694 L 788.3125 681.125 Z M 852.0625 676.5 C 847.3125 679 841.6875 681.875 832.5625 681.875 C 825.0625 681.875 819.9375 679.5 816.9375 675 C 815.0625 672.375 814.6875 669.875 814.1875 667.375 L 854.5625 666.625 L 855.3125 665.75 C 855.1875 659.625 855.0625 653.375 853.3125 647.125 C 848.9375 632.375 839.3125 629.375 835.0625 628.375 C 831.9375 627.5 829.0625 627.25 826.1875 627.25 C 806.5625 627.25 793.5625 640.125 793.5625 661.75 C 793.5625 667.625 794.5625 673.75 796.5625 678.125 C 803.8125 695 820.8125 696.5 829.8125 696.5 C 840.1875 696.5 844.6875 694.625 851.3125 692 L 852.0625 691 L 852.9375 676.875 L 852.0625 676.5 M 814.1875 654.125 C 814.5625 650.25 815.4375 645 820.1875 642 C 821.6875 641 823.4375 640.625 825.1875 640.625 C 829.3125 640.625 831.8125 642.75 833.1875 645 C 834.9375 647.75 835.0625 650.75 835.0625 653.625 Z M 859.3125 695 "/>
<path fill-rule="nonzero" fill="rgb(34.901961%, 14.901961%, 14.901961%)" fill-opacity="1" d="M 382.375 756.5 L 366.5 756.75 L 365.75 757.5 C 366.25 773.75 366.625 784.625 366.625 799 C 366.625 814.25 366.25 829.375 365.875 844.625 L 366.625 845.375 C 375.875 845 377.875 844.875 387.875 845 L 388.5 844.25 C 388 830.625 388 827.5 388 814.75 C 402 814.875 417 814.875 426 803.875 C 429.5 799.625 432.5 792.5 432.5 783.75 C 432.5 778.375 431.25 766.5 420.875 760.625 C 413.375 756.25 402.75 756.25 393.375 756.25 L 382.375 756.5 M 388 771.625 C 390.75 771.5 393.375 771.5 396.125 771.5 C 407.125 771.75 410.125 777.375 410.125 784.625 C 410.125 786.375 410.125 793.625 403.5 797.25 C 400.125 799.125 395.5 799.375 388 799.375 Z M 496.75 807.75 C 496.875 796.5 496.875 791.625 493.625 786.375 C 491.125 782.375 486.125 777.375 470.125 777.375 C 459.375 777.375 452.75 779.375 445.625 781.5 L 444.875 782.5 L 444.25 796.125 L 445.25 796.625 C 449.625 794.875 457.75 791.625 466.125 791.625 C 470.75 791.625 472.625 792.375 474.25 794 C 475.5 795.25 475.875 797.5 475.875 799.375 C 460.875 801.375 453.875 802.75 446.375 807.375 C 439.375 811.75 437 818.875 437 824.5 C 437 837.875 446.625 846.5 458.875 846.5 C 468.25 846.5 473.625 842 476.25 839.875 L 476.25 844.5 L 477 845.375 C 486 845 488.75 844.875 496.875 845 L 497.5 844.125 C 496.625 831.875 496.625 828.75 496.625 817 L 496.75 807.75 M 476.125 827.625 C 473.5 829.125 470.125 830.875 466 830.875 C 461.5 830.875 457.75 828.5 457.75 823.25 C 457.75 815 467.625 813.625 476.125 812.5 Z M 547.5 798.625 L 551 778.25 L 550.25 777.375 C 549.375 777.375 548.5 777.25 547.625 777.25 C 542.5 777.25 536.75 780.125 532.75 789.375 L 533.125 777.875 L 532.125 776.875 C 522.875 778.875 520.5 779.25 511.375 780.625 L 510.625 781.375 C 511.375 790.75 511.75 796.375 511.75 813.75 C 511.75 824 511.625 834.25 511.375 844.625 L 512.125 845.375 C 521.375 845 523.375 844.875 533.375 845 L 534 844.125 C 533.5 834 532.75 819.875 532.75 811.25 C 532.75 805.625 532.75 797.375 541.25 797.375 C 543.375 797.375 544.625 798.125 546.375 799.125 Z M 622.5 843.375 C 610.75 823.5 609.5 821.25 600 804.125 C 608.625 792.375 609.5 791.125 618.375 779.75 L 617.75 778.5 L 597.375 778.75 L 596.125 779.625 C 586.375 796.5 585.125 798.5 579.375 807.125 L 579.375 793.25 C 579.5 769.875 579.625 764.875 580.25 746 L 579.25 745.25 L 557.5 748.5 L 556.75 749.375 C 557.625 761.5 558 767.375 558.25 783.75 C 558.5 804 558.5 824.25 558.375 844.5 L 559.25 845.375 C 567.625 845 570 845 579.5 845 L 580.25 844.125 L 579.5 823 L 579.375 808.625 C 590.25 828.625 591.625 831.375 598 844.625 L 599.125 845.375 L 621.625 844.5 Z M 621 845 "/>
</svg>
