<?xml version="1.0" encoding="UTF-8"?>
<svg xmlns="http://www.w3.org/2000/svg" xmlns:xlink="http://www.w3.org/1999/xlink" width="975" height="1300" viewBox="0 0 975 1300">
<path fill-rule="nonzero" fill="rgb(34.901961%, 14.901961%, 14.901961%)" fill-opacity="1" d="M 223.0625 456.375 C 212.3125 456.875 209.4375 456.875 200.4375 456.75 L 199.9375 457.5 C 200.6875 471 201.0625 477.375 201.0625 509.25 C 201.0625 524 200.8125 531.625 200.3125 544.625 L 200.9375 545.375 C 210.3125 545 212.8125 545 223.1875 545 L 223.9375 544.25 C 223.3125 532.75 223.0625 527 223.0625 508.875 C 223.0625 491.625 223.3125 474.375 223.6875 457.125 Z M 300.3125 544.125 C 299.6875 533.125 299.6875 529.625 299.4375 517.375 L 299.4375 507.625 C 299.3125 495.625 299.1875 489.875 296.0625 484.75 C 292.1875 478.25 285.0625 477.25 280.5625 477.25 C 272.9375 477.25 266.3125 481.25 260.5625 484.625 L 260.8125 477.75 L 259.5625 476.875 C 249.9375 478.875 247.8125 479.25 238.4375 480.5 L 237.6875 481.375 C 238.6875 492.25 239.4375 500.125 239.4375 520.5 C 239.4375 528.5 239.3125 536.5 239.1875 544.5 L 239.9375 545.25 C 248.9375 544.875 250.8125 544.875 260.8125 544.875 L 261.5625 544.125 C 260.8125 524.875 260.6875 520 260.5625 497.625 C 263.1875 495.875 266.1875 493.75 270.1875 493.75 C 277.0625 493.75 277.6875 501.125 278.0625 505.625 C 278.3125 509.75 278.4375 526.875 278.4375 531.625 C 278.4375 535.875 278.3125 540.25 278.3125 544.5 L 279.0625 545.25 C 287.3125 545 289.4375 544.875 299.4375 544.875 Z M 375.8125 544.25 C 375.3125 533 374.9375 525.5 374.9375 509.125 C 374.9375 476.125 375.4375 462.5 375.9375 446 L 375.0625 445.25 L 354.4375 448.5 L 353.8125 449.25 C 354.5625 461 354.6875 464.125 354.5625 478.375 C 345.1875 478.125 333.4375 477.875 323.9375 485.375 C 315.1875 492.125 311.5625 502.5 311.5625 515.375 C 311.5625 525.125 314.1875 534.875 321.5625 541 C 327.0625 545.5 333.8125 546.5 337.9375 546.5 C 346.8125 546.5 351.4375 542.375 354.4375 539.75 L 354.1875 544.625 L 354.8125 545.375 C 363.4375 545 365.8125 545 375.1875 545 L 375.8125 544.25 M 354.5625 493.375 C 354.6875 510 354.5625 513.25 354.1875 528.375 C 351.6875 529.875 349.1875 531.375 345.6875 531.375 C 333.5625 531.375 333.5625 515.875 333.5625 513.375 C 333.5625 503.75 336.3125 493 350.3125 493 C 351.6875 493 352.8125 493.125 354.5625 493.375 Z M 412.6875 544.125 C 412.0625 534.5 411.5625 527.125 411.5625 509.875 C 411.5625 499.25 411.8125 488.5 411.9375 477.875 L 411.0625 476.875 L 389.5625 480.625 L 388.8125 481.375 C 389.8125 490.875 390.1875 495.25 390.1875 513 C 390.1875 526.625 389.8125 534.25 389.4375 544.5 L 390.1875 545.375 C 399.1875 545 401.6875 544.875 411.8125 545 L 412.6875 544.125 M 410.6875 464.875 L 411.0625 447.875 L 410.3125 447.125 L 389.9375 449.625 L 389.1875 450.5 C 389.4375 455 389.5625 457.625 389.5625 460.625 C 389.5625 463 389.5625 465.5 389.4375 467.875 L 390.3125 468.625 C 398.8125 467.125 401.1875 466.875 410.0625 465.75 Z M 490.1875 511.75 C 490.1875 506.875 490.1875 486.625 472.6875 479.75 C 467.1875 477.625 460.6875 477.375 457.4375 477.375 C 435.6875 477.375 423.4375 489 423.4375 512 C 423.4375 520 424.6875 528.125 429.3125 534.875 C 432.5625 539.75 438.6875 546.5 456.5625 546.5 C 483.0625 546.5 490.1875 530.5 490.1875 511.75 M 468.5625 511.625 C 468.5625 521.875 467.1875 533.25 456.8125 533.25 C 453.5625 533.25 451.3125 531.75 449.8125 530.375 C 447.6875 528.25 445.3125 524 445.3125 511.875 C 445.3125 508.25 445.3125 500.25 447.8125 495.875 C 449.6875 492.5 452.9375 490.25 456.9375 490.25 C 460.4375 490.25 463.3125 492.125 464.9375 494.125 C 467.9375 497.75 468.5625 504.875 468.5625 511.625 Z M 613.4375 456.375 C 603.4375 456.75 601.8125 456.75 591.3125 456.75 L 590.6875 457.5 C 591.5625 471.625 591.5625 475.25 591.6875 490 C 586.1875 490.125 580.6875 490.25 575.0625 490.25 C 570.6875 490.25 566.1875 490.125 561.8125 490.125 L 562.0625 457.125 L 561.4375 456.375 C 551.8125 456.75 549.9375 456.75 539.0625 456.75 L 538.3125 457.5 C 538.9375 470.375 539.6875 485.75 539.6875 516.75 C 539.6875 528 539.4375 534.125 539.1875 544.625 L 539.8125 545.375 C 548.9375 545 551.1875 544.875 562.1875 545 L 562.8125 544.25 C 562.0625 528.75 561.9375 524.25 561.8125 506.125 C 567.3125 505.875 571.9375 505.75 576.8125 505.75 C 581.8125 505.75 586.8125 505.875 591.8125 506 C 592.0625 522.875 592.0625 527 591.4375 544.625 L 592.0625 545.375 C 601.4375 545 603.9375 544.875 614.5625 545 L 615.1875 544.25 C 614.1875 523.25 613.8125 502.375 613.8125 481.375 C 613.8125 472.625 613.9375 466.75 614.0625 457.125 Z M 652.3125 544.125 C 651.6875 534.5 651.1875 527.125 651.1875 509.875 C 651.1875 499.25 651.4375 488.5 651.5625 477.875 L 650.6875 476.875 L 629.1875 480.625 L 628.4375 481.375 C 629.4375 490.875 629.8125 495.25 629.8125 513 C 629.8125 526.625 629.4375 534.25 629.0625 544.5 L 629.8125 545.375 C 638.8125 545 641.3125 544.875 651.4375 545 L 652.3125 544.125 M 650.3125 464.875 L 650.6875 447.875 L 649.9375 447.125 L 629.5625 449.625 L 628.8125 450.5 C 629.0625 455 629.1875 457.625 629.1875 460.625 C 629.1875 463 629.1875 465.5 629.0625 467.875 L 629.9375 468.625 C 638.4375 467.125 640.8125 466.875 649.6875 465.75 Z M 688.1875 544.125 C 687.5625 529.75 686.9375 516.625 686.9375 477.125 C 686.9375 465.25 687.0625 459.625 687.5625 446.125 L 686.6875 445.25 L 665.3125 448.625 L 664.8125 449.375 C 666.0625 464.625 666.1875 468.75 666.4375 489 C 666.5625 496.375 666.5625 503.75 666.5625 511.125 C 666.5625 524.625 666.3125 532.125 665.8125 544.5 L 666.5625 545.375 C 674.9375 545 678.3125 544.875 687.4375 545 Z M 724.6875 544.125 C 724.0625 529.75 723.4375 516.625 723.4375 477.125 C 723.4375 465.25 723.5625 459.625 724.0625 446.125 L 723.1875 445.25 L 701.8125 448.625 L 701.3125 449.375 C 702.5625 464.625 702.6875 468.75 702.9375 489 C 703.0625 496.375 703.0625 503.75 703.0625 511.125 C 703.0625 524.625 702.8125 532.125 702.3125 544.5 L 703.0625 545.375 C 711.4375 545 714.8125 544.875 723.9375 545 Z M 765.4375 501.875 C 761.1875 500.375 757.8125 499 757.8125 495.5 C 757.8125 494 758.8125 489.875 766.5625 489.875 C 774.1875 489.875 779.0625 493.125 782.1875 495.125 L 783.3125 494.75 L 784.5625 481.125 L 783.9375 480.375 C 778.0625 478.75 772.9375 477.25 764.8125 477.25 C 758.6875 477.25 746.4375 477.75 739.9375 487.125 C 738.3125 489.375 736.5625 493.125 736.5625 498.125 C 736.5625 511.5 746.9375 515.5 752.8125 517.75 L 757.5625 519.5 C 760.9375 520.625 766.4375 522.5 766.4375 527 C 766.4375 530.125 763.5625 533.5 756.5625 533.5 C 753.0625 533.5 747.9375 532.375 743.3125 530 C 741.1875 528.875 740.1875 528 738.3125 526.5 L 737.1875 527 C 736.9375 533.5 736.8125 534.875 736.3125 541.125 L 736.9375 542.25 C 743.0625 544.5 748.3125 546.5 757.4375 546.5 C 766.9375 546.5 785.6875 544.75 787.9375 526.875 C 788.0625 525.875 788.0625 525 788.0625 524.125 C 788.0625 510.375 778.4375 506.75 771.5625 504.125 Z M 791.5625 545 "/>
<path fill-rule="nonzero" fill="rgb(34.901961%, 14.901961%, 14.901961%)" fill-opacity="1" d="M 187.0625 606.5 L 171.1875 606.75 L 170.4375 607.5 C 170.9375 623.75 171.3125 634.625 171.3125 649 C 171.3125 664.25 170.9375 679.375 170.5625 694.625 L 171.3125 695.375 C 180.5625 695 182.5625 694.875 192.5625 695 L 193.1875 694.25 C 192.6875 680.625 192.6875 677.5 192.6875 664.75 C 206.6875 664.875 221.6875 664.875 230.6875 653.875 C 234.1875 649.625 237.1875 642.5 237.1875 633.75 C 237.1875 628.375 235.9375 616.5 225.5625 610.625 C 218.0625 606.25 207.4375 606.25 198.0625 606.25 L 187.0625 606.5 M 192.6875 621.625 C 195.4375 621.5 198.0625 621.5 200.8125 621.5 C 211.8125 621.75 214.8125 627.375 214.8125 634.625 C 214.8125 636.375 214.8125 643.625 208.1875 647.25 C 204.8125 649.125 200.1875 649.375 192.6875 649.375 Z M 301.4375 657.75 C 301.5625 646.5 301.5625 641.625 298.3125 636.375 C 295.8125 632.375 290.8125 627.375 274.8125 627.375 C 264.0625 627.375 257.4375 629.375 250.3125 631.5 L 249.5625 632.5 L 248.9375 646.125 L 249.9375 646.625 C 254.3125 644.875 262.4375 641.625 270.8125 641.625 C 275.4375 641.625 277.3125 642.375 278.9375 644 C 280.1875 645.25 280.5625 647.5 280.5625 649.375 C 265.5625 651.375 258.5625 652.75 251.0625 657.375 C 244.0625 661.75 241.6875 668.875 241.6875 674.5 C 241.6875 687.875 251.3125 696.5 263.5625 696.5 C 272.9375 696.5 278.3125 692 280.9375 689.875 L 280.9375 694.5 L 281.6875 695.375 C 290.6875 695 293.4375 694.875 301.5625 695 L 302.1875 694.125 C 301.3125 681.875 301.3125 678.75 301.3125 667 L 301.4375 657.75 M 280.8125 677.625 C 278.1875 679.125 274.8125 680.875 270.6875 680.875 C 266.1875 680.875 262.4375 678.5 262.4375 673.25 C 262.4375 665 272.3125 663.625 280.8125 662.5 Z M 338.0625 694.125 C 337.4375 679.75 336.8125 666.625 336.8125 627.125 C 336.8125 615.25 336.9375 609.625 337.4375 596.125 L 336.5625 595.25 L 315.1875 598.625 L 314.6875 599.375 C 315.9375 614.625 316.0625 618.75 316.3125 639 C 316.4375 646.375 316.4375 653.75 316.4375 661.125 C 316.4375 674.625 316.1875 682.125 315.6875 694.5 L 316.4375 695.375 C 324.8125 695 328.1875 694.875 337.3125 695 Z M 450.1875 694.125 C 449.5625 682.5 449.4375 679.25 449.4375 665.125 L 449.4375 655.75 C 449.5625 647.375 449.6875 639.625 446.0625 634.375 C 441.1875 627.25 432.5625 627.25 430.5625 627.25 C 420.3125 627.25 413.4375 631.875 408.4375 635.375 C 406.6875 632.5 403.5625 627.25 393.5625 627.25 C 385.3125 627.25 379.9375 631 374.1875 635 L 374.1875 628 L 373.0625 626.875 C 363.3125 628.75 360.5625 629.25 351.8125 630.5 L 351.0625 631.375 C 352.0625 641.375 352.8125 648.25 352.8125 673 C 352.8125 680.125 352.6875 687.375 352.6875 694.5 L 353.3125 695.25 C 361.3125 695 364.0625 694.875 374.4375 694.875 L 375.1875 694.125 C 374.3125 674.875 374.1875 669.125 374.0625 647.375 C 376.6875 645.5 379.5625 643.875 382.6875 643.875 C 390.4375 643.875 390.6875 652.75 390.6875 663.5 C 390.6875 681.625 390.5625 684.375 390.3125 694.5 L 391.0625 695.375 C 400.5625 694.875 403.1875 694.875 411.8125 694.875 L 412.5625 694.125 C 411.8125 682.25 411.6875 678.75 411.5625 663.625 L 411.5625 659 L 411.4375 646.375 C 413.5625 645 416.3125 643.25 420.0625 643.25 C 427.1875 643.25 428.3125 650 428.3125 660.75 C 428.3125 663.125 428.1875 665.5 428.1875 667.875 C 428.0625 672.125 427.9375 690.75 427.8125 694.5 L 428.5625 695.25 C 437.9375 694.875 440.6875 694.875 449.4375 694.875 Z M 490.8125 651.875 C 486.5625 650.375 483.1875 649 483.1875 645.5 C 483.1875 644 484.1875 639.875 491.9375 639.875 C 499.5625 639.875 504.4375 643.125 507.5625 645.125 L 508.6875 644.75 L 509.9375 631.125 L 509.3125 630.375 C 503.4375 628.75 498.3125 627.25 490.1875 627.25 C 484.0625 627.25 471.8125 627.75 465.3125 637.125 C 463.6875 639.375 461.9375 643.125 461.9375 648.125 C 461.9375 661.5 472.3125 665.5 478.1875 667.75 L 482.9375 669.5 C 486.3125 670.625 491.8125 672.5 491.8125 677 C 491.8125 680.125 488.9375 683.5 481.9375 683.5 C 478.4375 683.5 473.3125 682.375 468.6875 680 C 466.5625 678.875 465.5625 678 463.6875 676.5 L 462.5625 677 C 462.3125 683.5 462.1875 684.875 461.6875 691.125 L 462.3125 692.25 C 468.4375 694.5 473.6875 696.5 482.8125 696.5 C 492.3125 696.5 511.0625 694.75 513.3125 676.875 C 513.4375 675.875 513.4375 675 513.4375 674.125 C 513.4375 660.375 503.8125 656.75 496.9375 654.125 Z M 577.6875 606.5 L 561.8125 606.75 L 561.0625 607.5 C 561.5625 623.75 561.9375 634.625 561.9375 649 C 561.9375 664.25 561.5625 679.375 561.1875 694.625 L 561.9375 695.375 C 571.1875 695 573.1875 694.875 583.1875 695 L 583.8125 694.25 C 583.3125 680.625 583.3125 677.5 583.3125 664.75 C 597.3125 664.875 612.3125 664.875 621.3125 653.875 C 624.8125 649.625 627.8125 642.5 627.8125 633.75 C 627.8125 628.375 626.5625 616.5 616.1875 610.625 C 608.6875 606.25 598.0625 606.25 588.6875 606.25 L 577.6875 606.5 M 583.3125 621.625 C 586.0625 621.5 588.6875 621.5 591.4375 621.5 C 602.4375 621.75 605.4375 627.375 605.4375 634.625 C 605.4375 636.375 605.4375 643.625 598.8125 647.25 C 595.4375 649.125 590.8125 649.375 583.3125 649.375 Z M 692.0625 657.75 C 692.1875 646.5 692.1875 641.625 688.9375 636.375 C 686.4375 632.375 681.4375 627.375 665.4375 627.375 C 654.6875 627.375 648.0625 629.375 640.9375 631.5 L 640.1875 632.5 L 639.5625 646.125 L 640.5625 646.625 C 644.9375 644.875 653.0625 641.625 661.4375 641.625 C 666.0625 641.625 667.9375 642.375 669.5625 644 C 670.8125 645.25 671.1875 647.5 671.1875 649.375 C 656.1875 651.375 649.1875 652.75 641.6875 657.375 C 634.6875 661.75 632.3125 668.875 632.3125 674.5 C 632.3125 687.875 641.9375 696.5 654.1875 696.5 C 663.5625 696.5 668.9375 692 671.5625 689.875 L 671.5625 694.5 L 672.3125 695.375 C 681.3125 695 684.0625 694.875 692.1875 695 L 692.8125 694.125 C 691.9375 681.875 691.9375 678.75 691.9375 667 L 692.0625 657.75 M 671.4375 677.625 C 668.8125 679.125 665.4375 680.875 661.3125 680.875 C 656.8125 680.875 653.0625 678.5 653.0625 673.25 C 653.0625 665 662.9375 663.625 671.4375 662.5 Z M 742.8125 648.625 L 746.3125 628.25 L 745.5625 627.375 C 744.6875 627.375 743.8125 627.25 742.9375 627.25 C 737.8125 627.25 732.0625 630.125 728.0625 639.375 L 728.4375 627.875 L 727.4375 626.875 C 718.1875 628.875 715.8125 629.25 706.6875 630.625 L 705.9375 631.375 C 706.6875 640.75 707.0625 646.375 707.0625 663.75 C 707.0625 674 706.9375 684.25 706.6875 694.625 L 707.4375 695.375 C 716.6875 695 718.6875 694.875 728.6875 695 L 729.3125 694.125 C 728.8125 684 728.0625 669.875 728.0625 661.25 C 728.0625 655.625 728.0625 647.375 736.5625 647.375 C 738.6875 647.375 739.9375 648.125 741.6875 649.125 Z M 817.8125 693.375 C 806.0625 673.5 804.8125 671.25 795.3125 654.125 C 803.9375 642.375 804.8125 641.125 813.6875 629.75 L 813.0625 628.5 L 792.6875 628.75 L 791.4375 629.625 C 781.6875 646.5 780.4375 648.5 774.6875 657.125 L 774.6875 643.25 C 774.8125 619.875 774.9375 614.875 775.5625 596 L 774.5625 595.25 L 752.8125 598.5 L 752.0625 599.375 C 752.9375 611.5 753.3125 617.375 753.5625 633.75 C 753.8125 654 753.8125 674.25 753.6875 694.5 L 754.5625 695.375 C 762.9375 695 765.3125 695 774.8125 695 L 775.5625 694.125 L 774.8125 673 L 774.6875 658.625 C 785.5625 678.625 786.9375 681.375 793.3125 694.625 L 794.4375 695.375 L 816.9375 694.5 Z M 816.3125 695 "/>
<path fill-rule="nonzero" fill="rgb(34.901961%, 14.901961%, 14.901961%)" fill-opacity="1" d="M 265.25 756.5 L 249.375 756.75 L 248.625 757.5 C 249.125 773.75 249.5 784.625 249.5 799 C 249.5 814.25 249.125 829.375 248.75 844.625 L 249.5 845.375 C 258.75 845 260.75 844.875 270.75 845 L 271.375 844.25 C 270.875 830.625 270.875 827.5 270.875 814.75 C 284.875 814.875 299.875 814.875 308.875 803.875 C 312.375 799.625 315.375 792.5 315.375 783.75 C 315.375 778.375 314.125 766.5 303.75 760.625 C 296.25 756.25 285.625 756.25 276.25 756.25 L 265.25 756.5 M 270.875 771.625 C 273.625 771.5 276.25 771.5 279 771.5 C 290 771.75 293 777.375 293 784.625 C 293 786.375 293 793.625 286.375 797.25 C 283 799.125 278.375 799.375 270.875 799.375 Z M 360.125 798.625 L 363.625 778.25 L 362.875 777.375 C 362 777.375 361.125 777.25 360.25 777.25 C 355.125 777.25 349.375 780.125 345.375 789.375 L 345.75 777.875 L 344.75 776.875 C 335.5 778.875 333.125 779.25 324 780.625 L 323.25 781.375 C 324 790.75 324.375 796.375 324.375 813.75 C 324.375 824 324.25 834.25 324 844.625 L 324.75 845.375 C 334 845 336 844.875 346 845 L 346.625 844.125 C 346.125 834 345.375 819.875 345.375 811.25 C 345.375 805.625 345.375 797.375 353.875 797.375 C 356 797.375 357.25 798.125 359 799.125 Z M 434.5 811.75 C 434.5 806.875 434.5 786.625 417 779.75 C 411.5 777.625 405 777.375 401.75 777.375 C 380 777.375 367.75 789 367.75 812 C 367.75 820 369 828.125 373.625 834.875 C 376.875 839.75 383 846.5 400.875 846.5 C 427.375 846.5 434.5 830.5 434.5 811.75 M 412.875 811.625 C 412.875 821.875 411.5 833.25 401.125 833.25 C 397.875 833.25 395.625 831.75 394.125 830.375 C 392 828.25 389.625 824 389.625 811.875 C 389.625 808.25 389.625 800.25 392.125 795.875 C 394 792.5 397.25 790.25 401.25 790.25 C 404.75 790.25 407.625 792.125 409.25 794.125 C 412.25 797.75 412.875 804.875 412.875 811.625 Z M 467.125 778.125 L 466.125 777 C 457 779 454.375 779.5 445.375 780.625 L 444.625 781.5 C 446 796.375 446.5 802.125 446.5 838.125 C 446.5 853 446.25 861.5 445.875 875.625 L 446.625 876.25 C 455.5 875.875 458.125 875.75 467.625 875.875 L 468.375 875.25 L 467.5 845.5 C 476.625 845.375 489.25 845.25 499.375 835.75 C 507.375 828.25 510 817.625 510 809.125 C 510 789.25 497.875 777.25 483.875 777.25 C 475.25 777.25 470.375 780.75 466.875 783.125 L 467.125 778.125 M 467.375 795.125 C 470.125 793.5 471.75 792.625 474.875 792.625 C 476.75 792.625 480.5 792.875 483.625 796.375 C 487.5 800.625 488.125 807 488.125 811.25 C 488.125 818.5 485.75 825 480.75 828.5 C 476.75 831.25 471.75 831.5 467.375 831.625 Z M 577.375 826.5 C 572.625 829 567 831.875 557.875 831.875 C 550.375 831.875 545.25 829.5 542.25 825 C 540.375 822.375 540 819.875 539.5 817.375 L 579.875 816.625 L 580.625 815.75 C 580.5 809.625 580.375 803.375 578.625 797.125 C 574.25 782.375 564.625 779.375 560.375 778.375 C 557.25 777.5 554.375 777.25 551.5 777.25 C 531.875 777.25 518.875 790.125 518.875 811.75 C 518.875 817.625 519.875 823.75 521.875 828.125 C 529.125 845 546.125 846.5 555.125 846.5 C 565.5 846.5 570 844.625 576.625 842 L 577.375 841 L 578.25 826.875 L 577.375 826.5 M 539.5 804.125 C 539.875 800.25 540.75 795 545.5 792 C 547 791 548.75 790.625 550.5 790.625 C 554.625 790.625 557.125 792.75 558.5 795 C 560.25 797.75 560.375 800.75 560.375 803.625 Z M 628.25 798.625 L 631.75 778.25 L 631 777.375 C 630.125 777.375 629.25 777.25 628.375 777.25 C 623.25 777.25 617.5 780.125 613.5 789.375 L 613.875 777.875 L 612.875 776.875 C 603.625 778.875 601.25 779.25 592.125 780.625 L 591.375 781.375 C 592.125 790.75 592.5 796.375 592.5 813.75 C 592.5 824 592.375 834.25 592.125 844.625 L 592.875 845.375 C 602.125 845 604.125 844.875 614.125 845 L 614.75 844.125 C 614.25 834 613.5 819.875 613.5 811.25 C 613.5 805.625 613.5 797.375 622 797.375 C 624.125 797.375 625.375 798.125 627.125 799.125 Z M 674 830.625 C 671.875 831.25 670.375 831.75 668.25 831.75 C 661.875 831.75 661.375 827.75 661.125 825.875 C 660.75 822.625 660.75 815.75 660.875 810.75 L 661.125 793.125 L 672.375 793.625 L 673.125 792.875 L 674.375 779.5 L 673.625 778.75 L 661.125 778.75 L 661.5 757.75 L 660.625 757 C 652.125 759.5 649.875 760.125 641 762.375 L 640.5 763.25 L 640.625 778.875 L 633.875 778.625 L 633.125 779.25 L 632 792.625 L 632.75 793.375 L 640.625 793.125 L 640.25 813 C 640.125 816.125 640 819.25 640 822.5 C 640 834 640.25 846.375 659.75 846.375 C 664.625 846.375 668.5 845.625 672.875 844.875 L 673.75 844 L 675 831.125 Z M 739.125 778.375 L 721.75 778.75 L 720.75 779.625 C 718.625 788.25 718.125 790.125 715.125 799.875 L 711.875 810.625 L 709.125 820 L 706.75 811.125 L 703.125 797.875 L 698.125 778.875 L 697.125 778.125 C 687.375 778.875 685.25 779 675 779.25 L 674.375 780.125 C 678.875 792 690.5 823.375 698.25 847.375 C 693.125 860.375 692.125 862.625 686.5 875 L 687.125 876 C 690.25 875.875 693.75 875.75 697 875.75 C 700.125 875.75 703.375 875.875 706.5 875.875 L 707.375 875.125 C 714.25 848.125 717.625 837.625 734.125 794.125 C 736 789.125 737.875 784.25 739.625 779.375 Z M 738.25 845 "/>
</svg>
