<?xml version="1.0" encoding="UTF-8"?>
<svg xmlns="http://www.w3.org/2000/svg" xmlns:xlink="http://www.w3.org/1999/xlink" width="975" height="1300" viewBox="0 0 975 1300">
<path fill-rule="nonzero" fill="rgb(34.901961%, 14.901961%, 14.901961%)" fill-opacity="1" d="M 205.5 597.625 C 202.625 599.875 196.25 604.625 185.875 604.625 C 171.625 604.625 161.625 594 161.625 576.25 C 161.625 565.5 165.375 546.625 185.75 546.625 C 195.125 546.625 200.25 550.25 203.375 552.625 L 204.5 552.375 L 205.625 535.125 L 205.125 534.5 C 200.625 532.75 193 529.875 182 529.875 C 149.625 529.875 138.375 554.875 138.375 576.75 C 138.375 600.75 153 621.875 183.5 621.875 C 194 621.875 200.875 619.125 204.875 617.5 L 205.5 616.75 L 206.375 598.125 Z M 252.25 573.625 L 255.75 553.25 L 255 552.375 C 254.125 552.375 253.25 552.25 252.375 552.25 C 247.25 552.25 241.5 555.125 237.5 564.375 L 237.875 552.875 L 236.875 551.875 C 227.625 553.875 225.25 554.25 216.125 555.625 L 215.375 556.375 C 216.125 565.75 216.5 571.375 216.5 588.75 C 216.5 599 216.375 609.25 216.125 619.625 L 216.875 620.375 C 226.125 620 228.125 619.875 238.125 620 L 238.75 619.125 C 238.25 609 237.5 594.875 237.5 586.25 C 237.5 580.625 237.5 572.375 246 572.375 C 248.125 572.375 249.375 573.125 251.125 574.125 Z M 318.875 553.375 L 301.5 553.75 L 300.5 554.625 C 298.375 563.25 297.875 565.125 294.875 574.875 L 291.625 585.625 L 288.875 595 L 286.5 586.125 L 282.875 572.875 L 277.875 553.875 L 276.875 553.125 C 267.125 553.875 265 554 254.75 554.25 L 254.125 555.125 C 258.625 567 270.25 598.375 278 622.375 C 272.875 635.375 271.875 637.625 266.25 650 L 266.875 651 C 270 650.875 273.5 650.75 276.75 650.75 C 279.875 650.75 283.125 650.875 286.25 650.875 L 287.125 650.125 C 294 623.125 297.375 612.625 313.875 569.125 C 315.75 564.125 317.625 559.25 319.375 554.375 Z M 351.75 576.875 C 347.5 575.375 344.125 574 344.125 570.5 C 344.125 569 345.125 564.875 352.875 564.875 C 360.5 564.875 365.375 568.125 368.5 570.125 L 369.625 569.75 L 370.875 556.125 L 370.25 555.375 C 364.375 553.75 359.25 552.25 351.125 552.25 C 345 552.25 332.75 552.75 326.25 562.125 C 324.625 564.375 322.875 568.125 322.875 573.125 C 322.875 586.5 333.25 590.5 339.125 592.75 L 343.875 594.5 C 347.25 595.625 352.75 597.5 352.75 602 C 352.75 605.125 349.875 608.5 342.875 608.5 C 339.375 608.5 334.25 607.375 329.625 605 C 327.5 603.875 326.5 603 324.625 601.5 L 323.5 602 C 323.25 608.5 323.125 609.875 322.625 616.125 L 323.25 617.25 C 329.375 619.5 334.625 621.5 343.75 621.5 C 353.25 621.5 372 619.75 374.25 601.875 C 374.375 600.875 374.375 600 374.375 599.125 C 374.375 585.375 364.75 581.75 357.875 579.125 Z M 420.375 605.625 C 418.25 606.25 416.75 606.75 414.625 606.75 C 408.25 606.75 407.75 602.75 407.5 600.875 C 407.125 597.625 407.125 590.75 407.25 585.75 L 407.5 568.125 L 418.75 568.625 L 419.5 567.875 L 420.75 554.5 L 420 553.75 L 407.5 553.75 L 407.875 532.75 L 407 532 C 398.5 534.5 396.25 535.125 387.375 537.375 L 386.875 538.25 L 387 553.875 L 380.25 553.625 L 379.5 554.25 L 378.375 567.625 L 379.125 568.375 L 387 568.125 L 386.625 588 C 386.5 591.125 386.375 594.25 386.375 597.5 C 386.375 609 386.625 621.375 406.125 621.375 C 411 621.375 414.875 620.625 419.25 619.875 L 420.125 619 L 421.375 606.125 Z M 485.25 582.75 C 485.375 571.5 485.375 566.625 482.125 561.375 C 479.625 557.375 474.625 552.375 458.625 552.375 C 447.875 552.375 441.25 554.375 434.125 556.5 L 433.375 557.5 L 432.75 571.125 L 433.75 571.625 C 438.125 569.875 446.25 566.625 454.625 566.625 C 459.25 566.625 461.125 567.375 462.75 569 C 464 570.25 464.375 572.5 464.375 574.375 C 449.375 576.375 442.375 577.75 434.875 582.375 C 427.875 586.75 425.5 593.875 425.5 599.5 C 425.5 612.875 435.125 621.5 447.375 621.5 C 456.75 621.5 462.125 617 464.75 614.875 L 464.75 619.5 L 465.5 620.375 C 474.5 620 477.25 619.875 485.375 620 L 486 619.125 C 485.125 606.875 485.125 603.75 485.125 592 L 485.25 582.75 M 464.625 602.625 C 462 604.125 458.625 605.875 454.5 605.875 C 450 605.875 446.25 603.5 446.25 598.25 C 446.25 590 456.125 588.625 464.625 587.5 Z M 521.875 619.125 C 521.25 604.75 520.625 591.625 520.625 552.125 C 520.625 540.25 520.75 534.625 521.25 521.125 L 520.375 520.25 L 499 523.625 L 498.5 524.375 C 499.75 539.625 499.875 543.75 500.125 564 C 500.25 571.375 500.25 578.75 500.25 586.125 C 500.25 599.625 500 607.125 499.5 619.5 L 500.25 620.375 C 508.625 620 512 619.875 521.125 620 Z M 637.75 597.625 C 634.875 599.875 628.5 604.625 618.125 604.625 C 603.875 604.625 593.875 594 593.875 576.25 C 593.875 565.5 597.625 546.625 618 546.625 C 627.375 546.625 632.5 550.25 635.625 552.625 L 636.75 552.375 L 637.875 535.125 L 637.375 534.5 C 632.875 532.75 625.25 529.875 614.25 529.875 C 581.875 529.875 570.625 554.875 570.625 576.75 C 570.625 600.75 585.25 621.875 615.75 621.875 C 626.25 621.875 633.125 619.125 637.125 617.5 L 637.75 616.75 L 638.625 598.125 Z M 712 586.75 C 712 581.875 712 561.625 694.5 554.75 C 689 552.625 682.5 552.375 679.25 552.375 C 657.5 552.375 645.25 564 645.25 587 C 645.25 595 646.5 603.125 651.125 609.875 C 654.375 614.75 660.5 621.5 678.375 621.5 C 704.875 621.5 712 605.5 712 586.75 M 690.375 586.625 C 690.375 596.875 689 608.25 678.625 608.25 C 675.375 608.25 673.125 606.75 671.625 605.375 C 669.5 603.25 667.125 599 667.125 586.875 C 667.125 583.25 667.125 575.25 669.625 570.875 C 671.5 567.5 674.75 565.25 678.75 565.25 C 682.25 565.25 685.125 567.125 686.75 569.125 C 689.75 572.75 690.375 579.875 690.375 586.625 Z M 758.375 619 C 762.375 606.5 764.75 598.75 767.375 590.875 C 770.75 580.75 776.25 564.5 779.75 554.25 L 779.125 553.375 L 761.625 553.75 L 760.75 554.625 C 759 563 758.625 564.75 756.125 574.5 L 749.75 599.125 L 746.625 585.625 L 744.25 576 C 741.125 564.375 740.625 562 738.875 553.75 L 738 553 C 728.125 554.125 725.625 554.25 716.125 554.375 L 715.625 555.375 C 732.25 604.625 733.625 609.25 736.375 619.5 L 737.25 620.375 C 745.375 620 748.625 619.875 757.625 620 Z M 841.875 601.5 C 837.125 604 831.5 606.875 822.375 606.875 C 814.875 606.875 809.75 604.5 806.75 600 C 804.875 597.375 804.5 594.875 804 592.375 L 844.375 591.625 L 845.125 590.75 C 845 584.625 844.875 578.375 843.125 572.125 C 838.75 557.375 829.125 554.375 824.875 553.375 C 821.75 552.5 818.875 552.25 816 552.25 C 796.375 552.25 783.375 565.125 783.375 586.75 C 783.375 592.625 784.375 598.75 786.375 603.125 C 793.625 620 810.625 621.5 819.625 621.5 C 830 621.5 834.5 619.625 841.125 617 L 841.875 616 L 842.75 601.875 L 841.875 601.5 M 804 579.125 C 804.375 575.25 805.25 570 810 567 C 811.5 566 813.25 565.625 815 565.625 C 819.125 565.625 821.625 567.75 823 570 C 824.75 572.75 824.875 575.75 824.875 578.625 Z M 849.125 620 "/>
<path fill-rule="nonzero" fill="rgb(34.901961%, 14.901961%, 14.901961%)" fill-opacity="1" d="M 232.875 716.25 C 222.375 711.875 216.875 709.625 216.875 704 C 216.875 700.125 220.5 695.25 228.75 695.25 C 238.25 695.25 243.875 699.125 248.5 702.25 L 249.625 701.75 L 250.625 685.375 L 250 684.5 C 244.625 682.25 239 679.875 226.875 679.875 C 203.375 679.875 195.25 693.125 195.25 706.5 C 195.25 721.625 207 727.125 214 730.5 L 218.125 732.375 C 226.75 736 233.375 739.125 233.375 745.75 C 233.375 750.5 229.25 756.125 218.375 756.125 C 207 756.125 200.625 751.125 197 748.25 L 195.75 748.625 L 194.875 766.25 L 195.625 767.25 C 197 767.75 198.375 768.375 199.75 768.75 C 202.625 769.75 210 771.875 219.375 771.875 C 223.125 771.875 232.625 771.5 240.125 768 C 250.625 762.875 255.125 753.375 255.125 742.75 C 255.125 735.625 252.375 728 245.75 722.875 C 242.375 720.375 239.125 718.875 236.125 717.5 Z M 302 755.625 C 299.875 756.25 298.375 756.75 296.25 756.75 C 289.875 756.75 289.375 752.75 289.125 750.875 C 288.75 747.625 288.75 740.75 288.875 735.75 L 289.125 718.125 L 300.375 718.625 L 301.125 717.875 L 302.375 704.5 L 301.625 703.75 L 289.125 703.75 L 289.5 682.75 L 288.625 682 C 280.125 684.5 277.875 685.125 269 687.375 L 268.5 688.25 L 268.625 703.875 L 261.875 703.625 L 261.125 704.25 L 260 717.625 L 260.75 718.375 L 268.625 718.125 L 268.25 738 C 268.125 741.125 268 744.25 268 747.5 C 268 759 268.25 771.375 287.75 771.375 C 292.625 771.375 296.5 770.625 300.875 769.875 L 301.75 769 L 303 756.125 Z M 366.875 732.75 C 367 721.5 367 716.625 363.75 711.375 C 361.25 707.375 356.25 702.375 340.25 702.375 C 329.5 702.375 322.875 704.375 315.75 706.5 L 315 707.5 L 314.375 721.125 L 315.375 721.625 C 319.75 719.875 327.875 716.625 336.25 716.625 C 340.875 716.625 342.75 717.375 344.375 719 C 345.625 720.25 346 722.5 346 724.375 C 331 726.375 324 727.75 316.5 732.375 C 309.5 736.75 307.125 743.875 307.125 749.5 C 307.125 762.875 316.75 771.5 329 771.5 C 338.375 771.5 343.75 767 346.375 764.875 L 346.375 769.5 L 347.125 770.375 C 356.125 770 358.875 769.875 367 770 L 367.625 769.125 C 366.75 756.875 366.75 753.75 366.75 742 L 366.875 732.75 M 346.25 752.625 C 343.625 754.125 340.25 755.875 336.125 755.875 C 331.625 755.875 327.875 753.5 327.875 748.25 C 327.875 740 337.75 738.625 346.25 737.5 Z M 416.5 755.625 C 414.375 756.25 412.875 756.75 410.75 756.75 C 404.375 756.75 403.875 752.75 403.625 750.875 C 403.25 747.625 403.25 740.75 403.375 735.75 L 403.625 718.125 L 414.875 718.625 L 415.625 717.875 L 416.875 704.5 L 416.125 703.75 L 403.625 703.75 L 404 682.75 L 403.125 682 C 394.625 684.5 392.375 685.125 383.5 687.375 L 383 688.25 L 383.125 703.875 L 376.375 703.625 L 375.625 704.25 L 374.5 717.625 L 375.25 718.375 L 383.125 718.125 L 382.75 738 C 382.625 741.125 382.5 744.25 382.5 747.5 C 382.5 759 382.75 771.375 402.25 771.375 C 407.125 771.375 411 770.625 415.375 769.875 L 416.25 769 L 417.5 756.125 Z M 481.25 751.5 C 476.5 754 470.875 756.875 461.75 756.875 C 454.25 756.875 449.125 754.5 446.125 750 C 444.25 747.375 443.875 744.875 443.375 742.375 L 483.75 741.625 L 484.5 740.75 C 484.375 734.625 484.25 728.375 482.5 722.125 C 478.125 707.375 468.5 704.375 464.25 703.375 C 461.125 702.5 458.25 702.25 455.375 702.25 C 435.75 702.25 422.75 715.125 422.75 736.75 C 422.75 742.625 423.75 748.75 425.75 753.125 C 433 770 450 771.5 459 771.5 C 469.375 771.5 473.875 769.625 480.5 767 L 481.25 766 L 482.125 751.875 L 481.25 751.5 M 443.375 729.125 C 443.75 725.25 444.625 720 449.375 717 C 450.875 716 452.625 715.625 454.375 715.625 C 458.5 715.625 461 717.75 462.375 720 C 464.125 722.75 464.25 725.75 464.25 728.625 Z M 549.25 681.5 L 533.375 681.75 L 532.625 682.5 C 533.125 698.75 533.5 709.625 533.5 724 C 533.5 739.25 533.125 754.375 532.75 769.625 L 533.5 770.375 C 542.75 770 544.75 769.875 554.75 770 L 555.375 769.25 C 554.875 755.625 554.875 752.5 554.875 739.75 C 568.875 739.875 583.875 739.875 592.875 728.875 C 596.375 724.625 599.375 717.5 599.375 708.75 C 599.375 703.375 598.125 691.5 587.75 685.625 C 580.25 681.25 569.625 681.25 560.25 681.25 L 549.25 681.5 M 554.875 696.625 C 557.625 696.5 560.25 696.5 563 696.5 C 574 696.75 577 702.375 577 709.625 C 577 711.375 577 718.625 570.375 722.25 C 567 724.125 562.375 724.375 554.875 724.375 Z M 663.625 732.75 C 663.75 721.5 663.75 716.625 660.5 711.375 C 658 707.375 653 702.375 637 702.375 C 626.25 702.375 619.625 704.375 612.5 706.5 L 611.75 707.5 L 611.125 721.125 L 612.125 721.625 C 616.5 719.875 624.625 716.625 633 716.625 C 637.625 716.625 639.5 717.375 641.125 719 C 642.375 720.25 642.75 722.5 642.75 724.375 C 627.75 726.375 620.75 727.75 613.25 732.375 C 606.25 736.75 603.875 743.875 603.875 749.5 C 603.875 762.875 613.5 771.5 625.75 771.5 C 635.125 771.5 640.5 767 643.125 764.875 L 643.125 769.5 L 643.875 770.375 C 652.875 770 655.625 769.875 663.75 770 L 664.375 769.125 C 663.5 756.875 663.5 753.75 663.5 742 L 663.625 732.75 M 643 752.625 C 640.375 754.125 637 755.875 632.875 755.875 C 628.375 755.875 624.625 753.5 624.625 748.25 C 624.625 740 634.5 738.625 643 737.5 Z M 714.375 723.625 L 717.875 703.25 L 717.125 702.375 C 716.25 702.375 715.375 702.25 714.5 702.25 C 709.375 702.25 703.625 705.125 699.625 714.375 L 700 702.875 L 699 701.875 C 689.75 703.875 687.375 704.25 678.25 705.625 L 677.5 706.375 C 678.25 715.75 678.625 721.375 678.625 738.75 C 678.625 749 678.5 759.25 678.25 769.625 L 679 770.375 C 688.25 770 690.25 769.875 700.25 770 L 700.875 769.125 C 700.375 759 699.625 744.875 699.625 736.25 C 699.625 730.625 699.625 722.375 708.125 722.375 C 710.25 722.375 711.5 723.125 713.25 724.125 Z M 789.375 768.375 C 777.625 748.5 776.375 746.25 766.875 729.125 C 775.5 717.375 776.375 716.125 785.25 704.75 L 784.625 703.5 L 764.25 703.75 L 763 704.625 C 753.25 721.5 752 723.5 746.25 732.125 L 746.25 718.25 C 746.375 694.875 746.5 689.875 747.125 671 L 746.125 670.25 L 724.375 673.5 L 723.625 674.375 C 724.5 686.5 724.875 692.375 725.125 708.75 C 725.375 729 725.375 749.25 725.25 769.5 L 726.125 770.375 C 734.5 770 736.875 770 746.375 770 L 747.125 769.125 L 746.375 748 L 746.25 733.625 C 757.125 753.625 758.5 756.375 764.875 769.625 L 766 770.375 L 788.5 769.5 Z M 787.875 770 "/>
</svg>
