<?xml version="1.0" encoding="UTF-8"?>
<svg xmlns="http://www.w3.org/2000/svg" xmlns:xlink="http://www.w3.org/1999/xlink" width="975" height="1300" viewBox="0 0 975 1300">
<path fill-rule="nonzero" fill="rgb(34.901961%, 14.901961%, 14.901961%)" fill-opacity="1" d="M 210.8125 416.25 C 200.3125 411.875 194.8125 409.625 194.8125 404 C 194.8125 400.125 198.4375 395.25 206.6875 395.25 C 216.1875 395.25 221.8125 399.125 226.4375 402.25 L 227.5625 401.75 L 228.5625 385.375 L 227.9375 384.5 C 222.5625 382.25 216.9375 379.875 204.8125 379.875 C 181.3125 379.875 173.1875 393.125 173.1875 406.5 C 173.1875 421.625 184.9375 427.125 191.9375 430.5 L 196.0625 432.375 C 204.6875 436 211.3125 439.125 211.3125 445.75 C 211.3125 450.5 207.1875 456.125 196.3125 456.125 C 184.9375 456.125 178.5625 451.125 174.9375 448.25 L 173.6875 448.625 L 172.8125 466.25 L 173.5625 467.25 C 174.9375 467.75 176.3125 468.375 177.6875 468.75 C 180.5625 469.75 187.9375 471.875 197.3125 471.875 C 201.0625 471.875 210.5625 471.5 218.0625 468 C 228.5625 462.875 233.0625 453.375 233.0625 442.75 C 233.0625 435.625 230.3125 428 223.6875 422.875 C 220.3125 420.375 217.0625 418.875 214.0625 417.5 Z M 267.5625 469.125 C 266.9375 459.5 266.4375 452.125 266.4375 434.875 C 266.4375 424.25 266.6875 413.5 266.8125 402.875 L 265.9375 401.875 L 244.4375 405.625 L 243.6875 406.375 C 244.6875 415.875 245.0625 420.25 245.0625 438 C 245.0625 451.625 244.6875 459.25 244.3125 469.5 L 245.0625 470.375 C 254.0625 470 256.5625 469.875 266.6875 470 L 267.5625 469.125 M 265.5625 389.875 L 265.9375 372.875 L 265.1875 372.125 L 244.8125 374.625 L 244.0625 375.5 C 244.3125 380 244.4375 382.625 244.4375 385.625 C 244.4375 388 244.4375 390.5 244.3125 392.875 L 245.1875 393.625 C 253.6875 392.125 256.0625 391.875 264.9375 390.75 Z M 303.4375 469.125 C 302.8125 454.75 302.1875 441.625 302.1875 402.125 C 302.1875 390.25 302.3125 384.625 302.8125 371.125 L 301.9375 370.25 L 280.5625 373.625 L 280.0625 374.375 C 281.3125 389.625 281.4375 393.75 281.6875 414 C 281.8125 421.375 281.8125 428.75 281.8125 436.125 C 281.8125 449.625 281.5625 457.125 281.0625 469.5 L 281.8125 470.375 C 290.1875 470 293.5625 469.875 302.6875 470 Z M 352.4375 469 C 356.4375 456.5 358.8125 448.75 361.4375 440.875 C 364.8125 430.75 370.3125 414.5 373.8125 404.25 L 373.1875 403.375 L 355.6875 403.75 L 354.8125 404.625 C 353.0625 413 352.6875 414.75 350.1875 424.5 L 343.8125 449.125 L 340.6875 435.625 L 338.3125 426 C 335.1875 414.375 334.6875 412 332.9375 403.75 L 332.0625 403 C 322.1875 404.125 319.6875 404.25 310.1875 404.375 L 309.6875 405.375 C 326.3125 454.625 327.6875 459.25 330.4375 469.5 L 331.3125 470.375 C 339.4375 470 342.6875 469.875 351.6875 470 Z M 435.9375 451.5 C 431.1875 454 425.5625 456.875 416.4375 456.875 C 408.9375 456.875 403.8125 454.5 400.8125 450 C 398.9375 447.375 398.5625 444.875 398.0625 442.375 L 438.4375 441.625 L 439.1875 440.75 C 439.0625 434.625 438.9375 428.375 437.1875 422.125 C 432.8125 407.375 423.1875 404.375 418.9375 403.375 C 415.8125 402.5 412.9375 402.25 410.0625 402.25 C 390.4375 402.25 377.4375 415.125 377.4375 436.75 C 377.4375 442.625 378.4375 448.75 380.4375 453.125 C 387.6875 470 404.6875 471.5 413.6875 471.5 C 424.0625 471.5 428.5625 469.625 435.1875 467 L 435.9375 466 L 436.8125 451.875 L 435.9375 451.5 M 398.0625 429.125 C 398.4375 425.25 399.3125 420 404.0625 417 C 405.5625 416 407.3125 415.625 409.0625 415.625 C 413.1875 415.625 415.6875 417.75 417.0625 420 C 418.8125 422.75 418.9375 425.75 418.9375 428.625 Z M 486.8125 423.625 L 490.3125 403.25 L 489.5625 402.375 C 488.6875 402.375 487.8125 402.25 486.9375 402.25 C 481.8125 402.25 476.0625 405.125 472.0625 414.375 L 472.4375 402.875 L 471.4375 401.875 C 462.1875 403.875 459.8125 404.25 450.6875 405.625 L 449.9375 406.375 C 450.6875 415.75 451.0625 421.375 451.0625 438.75 C 451.0625 449 450.9375 459.25 450.6875 469.625 L 451.4375 470.375 C 460.6875 470 462.6875 469.875 472.6875 470 L 473.3125 469.125 C 472.8125 459 472.0625 444.875 472.0625 436.25 C 472.0625 430.625 472.0625 422.375 480.5625 422.375 C 482.6875 422.375 483.9375 423.125 485.6875 424.125 Z M 574.8125 469.125 C 579.8125 449.75 580.6875 446.75 588.1875 419.875 C 589.6875 414.75 591.0625 409.5 592.4375 404.375 L 591.6875 403.375 L 575.4375 403.75 L 574.5625 404.625 L 570.9375 423.375 L 567.4375 438.5 L 565.0625 450 L 562.9375 438.875 L 560.1875 425.875 L 555.8125 404.25 L 555.0625 403.375 L 531.0625 403.75 L 530.1875 404.625 L 526.0625 425.125 L 523.0625 438.875 L 520.6875 450.375 L 518.3125 438 L 515.3125 424.5 L 511.0625 403.75 L 510.3125 403.125 L 490.0625 404.625 L 489.3125 405.625 C 501.0625 446.875 502.9375 454.25 506.4375 469.625 L 507.3125 470.375 C 515.9375 470 519.0625 469.875 530.5625 470 L 531.3125 469.125 L 534.5625 453.875 L 538.0625 438.75 L 541.1875 423.625 L 543.0625 433.125 L 544.9375 442.375 L 550.1875 469.5 L 551.0625 470.375 C 560.3125 470 564.0625 469.875 574.0625 470 Z M 662.6875 436.75 C 662.6875 431.875 662.6875 411.625 645.1875 404.75 C 639.6875 402.625 633.1875 402.375 629.9375 402.375 C 608.1875 402.375 595.9375 414 595.9375 437 C 595.9375 445 597.1875 453.125 601.8125 459.875 C 605.0625 464.75 611.1875 471.5 629.0625 471.5 C 655.5625 471.5 662.6875 455.5 662.6875 436.75 M 641.0625 436.625 C 641.0625 446.875 639.6875 458.25 629.3125 458.25 C 626.0625 458.25 623.8125 456.75 622.3125 455.375 C 620.1875 453.25 617.8125 449 617.8125 436.875 C 617.8125 433.25 617.8125 425.25 620.3125 420.875 C 622.1875 417.5 625.4375 415.25 629.4375 415.25 C 632.9375 415.25 635.8125 417.125 637.4375 419.125 C 640.4375 422.75 641.0625 429.875 641.0625 436.625 Z M 738.1875 436.75 C 738.1875 431.875 738.1875 411.625 720.6875 404.75 C 715.1875 402.625 708.6875 402.375 705.4375 402.375 C 683.6875 402.375 671.4375 414 671.4375 437 C 671.4375 445 672.6875 453.125 677.3125 459.875 C 680.5625 464.75 686.6875 471.5 704.5625 471.5 C 731.0625 471.5 738.1875 455.5 738.1875 436.75 M 716.5625 436.625 C 716.5625 446.875 715.1875 458.25 704.8125 458.25 C 701.5625 458.25 699.3125 456.75 697.8125 455.375 C 695.6875 453.25 693.3125 449 693.3125 436.875 C 693.3125 433.25 693.3125 425.25 695.8125 420.875 C 697.6875 417.5 700.9375 415.25 704.9375 415.25 C 708.4375 415.25 711.3125 417.125 712.9375 419.125 C 715.9375 422.75 716.5625 429.875 716.5625 436.625 Z M 811.3125 469.25 C 810.8125 458 810.4375 450.5 810.4375 434.125 C 810.4375 401.125 810.9375 387.5 811.4375 371 L 810.5625 370.25 L 789.9375 373.5 L 789.3125 374.25 C 790.0625 386 790.1875 389.125 790.0625 403.375 C 780.6875 403.125 768.9375 402.875 759.4375 410.375 C 750.6875 417.125 747.0625 427.5 747.0625 440.375 C 747.0625 450.125 749.6875 459.875 757.0625 466 C 762.5625 470.5 769.3125 471.5 773.4375 471.5 C 782.3125 471.5 786.9375 467.375 789.9375 464.75 L 789.6875 469.625 L 790.3125 470.375 C 798.9375 470 801.3125 470 810.6875 470 L 811.3125 469.25 M 790.0625 418.375 C 790.1875 435 790.0625 438.25 789.6875 453.375 C 787.1875 454.875 784.6875 456.375 781.1875 456.375 C 769.0625 456.375 769.0625 440.875 769.0625 438.375 C 769.0625 428.75 771.8125 418 785.8125 418 C 787.1875 418 788.3125 418.125 790.0625 418.375 Z M 818.0625 470 "/>
<path fill-rule="nonzero" fill="rgb(34.901961%, 14.901961%, 14.901961%)" fill-opacity="1" d="M 247.75 602.875 C 234.125 603.625 223.25 603.875 219.5 603.875 L 217 603.875 C 216.75 570.5 216.875 562 217.875 532.125 L 217.125 531.375 C 206.375 531.875 203.5 531.875 194.875 531.75 L 194.125 532.5 C 194.625 542.5 194.75 545.5 194.75 560.375 C 194.75 580.125 194.625 599.875 194.625 619.625 L 195.25 620.375 C 219.75 620 224.25 620 246.75 620 L 247.375 619.25 L 248.375 603.5 Z M 314.75 582.75 C 314.875 571.5 314.875 566.625 311.625 561.375 C 309.125 557.375 304.125 552.375 288.125 552.375 C 277.375 552.375 270.75 554.375 263.625 556.5 L 262.875 557.5 L 262.25 571.125 L 263.25 571.625 C 267.625 569.875 275.75 566.625 284.125 566.625 C 288.75 566.625 290.625 567.375 292.25 569 C 293.5 570.25 293.875 572.5 293.875 574.375 C 278.875 576.375 271.875 577.75 264.375 582.375 C 257.375 586.75 255 593.875 255 599.5 C 255 612.875 264.625 621.5 276.875 621.5 C 286.25 621.5 291.625 617 294.25 614.875 L 294.25 619.5 L 295 620.375 C 304 620 306.75 619.875 314.875 620 L 315.5 619.125 C 314.625 606.875 314.625 603.75 314.625 592 L 314.75 582.75 M 294.125 602.625 C 291.5 604.125 288.125 605.875 284 605.875 C 279.5 605.875 275.75 603.5 275.75 598.25 C 275.75 590 285.625 588.625 294.125 587.5 Z M 393.625 618.375 C 381.875 598.5 380.625 596.25 371.125 579.125 C 379.75 567.375 380.625 566.125 389.5 554.75 L 388.875 553.5 L 368.5 553.75 L 367.25 554.625 C 357.5 571.5 356.25 573.5 350.5 582.125 L 350.5 568.25 C 350.625 544.875 350.75 539.875 351.375 521 L 350.375 520.25 L 328.625 523.5 L 327.875 524.375 C 328.75 536.5 329.125 542.375 329.375 558.75 C 329.625 579 329.625 599.25 329.5 619.5 L 330.375 620.375 C 338.75 620 341.125 620 350.625 620 L 351.375 619.125 L 350.625 598 L 350.5 583.625 C 361.375 603.625 362.75 606.375 369.125 619.625 L 370.25 620.375 L 392.75 619.5 Z M 455.125 601.5 C 450.375 604 444.75 606.875 435.625 606.875 C 428.125 606.875 423 604.5 420 600 C 418.125 597.375 417.75 594.875 417.25 592.375 L 457.625 591.625 L 458.375 590.75 C 458.25 584.625 458.125 578.375 456.375 572.125 C 452 557.375 442.375 554.375 438.125 553.375 C 435 552.5 432.125 552.25 429.25 552.25 C 409.625 552.25 396.625 565.125 396.625 586.75 C 396.625 592.625 397.625 598.75 399.625 603.125 C 406.875 620 423.875 621.5 432.875 621.5 C 443.25 621.5 447.75 619.625 454.375 617 L 455.125 616 L 456 601.875 L 455.125 601.5 M 417.25 579.125 C 417.625 575.25 418.5 570 423.25 567 C 424.75 566 426.5 565.625 428.25 565.625 C 432.375 565.625 434.875 567.75 436.25 570 C 438 572.75 438.125 575.75 438.125 578.625 Z M 542.5 566.25 C 532 561.875 526.5 559.625 526.5 554 C 526.5 550.125 530.125 545.25 538.375 545.25 C 547.875 545.25 553.5 549.125 558.125 552.25 L 559.25 551.75 L 560.25 535.375 L 559.625 534.5 C 554.25 532.25 548.625 529.875 536.5 529.875 C 513 529.875 504.875 543.125 504.875 556.5 C 504.875 571.625 516.625 577.125 523.625 580.5 L 527.75 582.375 C 536.375 586 543 589.125 543 595.75 C 543 600.5 538.875 606.125 528 606.125 C 516.625 606.125 510.25 601.125 506.625 598.25 L 505.375 598.625 L 504.5 616.25 L 505.25 617.25 C 506.625 617.75 508 618.375 509.375 618.75 C 512.25 619.75 519.625 621.875 529 621.875 C 532.75 621.875 542.25 621.5 549.75 618 C 560.25 612.875 564.75 603.375 564.75 592.75 C 564.75 585.625 562 578 555.375 572.875 C 552 570.375 548.75 568.875 545.75 567.5 Z M 611.625 605.625 C 609.5 606.25 608 606.75 605.875 606.75 C 599.5 606.75 599 602.75 598.75 600.875 C 598.375 597.625 598.375 590.75 598.5 585.75 L 598.75 568.125 L 610 568.625 L 610.75 567.875 L 612 554.5 L 611.25 553.75 L 598.75 553.75 L 599.125 532.75 L 598.25 532 C 589.75 534.5 587.5 535.125 578.625 537.375 L 578.125 538.25 L 578.25 553.875 L 571.5 553.625 L 570.75 554.25 L 569.625 567.625 L 570.375 568.375 L 578.25 568.125 L 577.875 588 C 577.75 591.125 577.625 594.25 577.625 597.5 C 577.625 609 577.875 621.375 597.375 621.375 C 602.25 621.375 606.125 620.625 610.5 619.875 L 611.375 619 L 612.625 606.125 Z M 676.5 582.75 C 676.625 571.5 676.625 566.625 673.375 561.375 C 670.875 557.375 665.875 552.375 649.875 552.375 C 639.125 552.375 632.5 554.375 625.375 556.5 L 624.625 557.5 L 624 571.125 L 625 571.625 C 629.375 569.875 637.5 566.625 645.875 566.625 C 650.5 566.625 652.375 567.375 654 569 C 655.25 570.25 655.625 572.5 655.625 574.375 C 640.625 576.375 633.625 577.75 626.125 582.375 C 619.125 586.75 616.75 593.875 616.75 599.5 C 616.75 612.875 626.375 621.5 638.625 621.5 C 648 621.5 653.375 617 656 614.875 L 656 619.5 L 656.75 620.375 C 665.75 620 668.5 619.875 676.625 620 L 677.25 619.125 C 676.375 606.875 676.375 603.75 676.375 592 L 676.5 582.75 M 655.875 602.625 C 653.25 604.125 649.875 605.875 645.75 605.875 C 641.25 605.875 637.5 603.5 637.5 598.25 C 637.5 590 647.375 588.625 655.875 587.5 Z M 726.125 605.625 C 724 606.25 722.5 606.75 720.375 606.75 C 714 606.75 713.5 602.75 713.25 600.875 C 712.875 597.625 712.875 590.75 713 585.75 L 713.25 568.125 L 724.5 568.625 L 725.25 567.875 L 726.5 554.5 L 725.75 553.75 L 713.25 553.75 L 713.625 532.75 L 712.75 532 C 704.25 534.5 702 535.125 693.125 537.375 L 692.625 538.25 L 692.75 553.875 L 686 553.625 L 685.25 554.25 L 684.125 567.625 L 684.875 568.375 L 692.75 568.125 L 692.375 588 C 692.25 591.125 692.125 594.25 692.125 597.5 C 692.125 609 692.375 621.375 711.875 621.375 C 716.75 621.375 720.625 620.625 725 619.875 L 725.875 619 L 727.125 606.125 Z M 790.875 601.5 C 786.125 604 780.5 606.875 771.375 606.875 C 763.875 606.875 758.75 604.5 755.75 600 C 753.875 597.375 753.5 594.875 753 592.375 L 793.375 591.625 L 794.125 590.75 C 794 584.625 793.875 578.375 792.125 572.125 C 787.75 557.375 778.125 554.375 773.875 553.375 C 770.75 552.5 767.875 552.25 765 552.25 C 745.375 552.25 732.375 565.125 732.375 586.75 C 732.375 592.625 733.375 598.75 735.375 603.125 C 742.625 620 759.625 621.5 768.625 621.5 C 779 621.5 783.5 619.625 790.125 617 L 790.875 616 L 791.75 601.875 L 790.875 601.5 M 753 579.125 C 753.375 575.25 754.25 570 759 567 C 760.5 566 762.25 565.625 764 565.625 C 768.125 565.625 770.625 567.75 772 570 C 773.75 572.75 773.875 575.75 773.875 578.625 Z M 798.125 620 "/>
<path fill-rule="nonzero" fill="rgb(34.901961%, 14.901961%, 14.901961%)" fill-opacity="1" d="M 215.6875 735.625 C 224.0625 749.875 225.9375 753.625 233.9375 770 L 234.9375 770.625 C 238.8125 770.375 242.5625 770.125 246.4375 770 C 250.3125 769.875 254.3125 769.75 258.1875 769.75 L 258.9375 768.25 C 254.1875 762.125 252.8125 760.25 243.8125 745.875 C 239.8125 739.5 237.8125 736.125 234.6875 730.625 C 240.3125 728.125 251.6875 722.875 251.6875 707 C 251.6875 701.5 250.1875 690.125 239.9375 684.75 C 233.4375 681.375 226.6875 681.25 212.0625 681.5 L 203.3125 681.625 L 188.0625 681.625 L 187.4375 682.375 C 187.9375 695 188.4375 708 188.4375 742 C 188.4375 753.625 188.3125 759.25 187.9375 769.625 L 188.6875 770.375 C 197.8125 770 199.8125 769.875 210.0625 770 L 210.8125 769.25 C 209.8125 754.75 209.6875 750.75 209.5625 735.875 L 215.6875 735.625 M 209.8125 696.75 C 211.5625 696.625 213.3125 696.625 215.0625 696.625 C 219.9375 696.625 229.5625 696.625 229.5625 707.625 C 229.5625 711.125 228.6875 715.75 224.0625 718.625 C 220.5625 720.75 216.0625 721 209.8125 721.125 Z M 321.0625 751.5 C 316.3125 754 310.6875 756.875 301.5625 756.875 C 294.0625 756.875 288.9375 754.5 285.9375 750 C 284.0625 747.375 283.6875 744.875 283.1875 742.375 L 323.5625 741.625 L 324.3125 740.75 C 324.1875 734.625 324.0625 728.375 322.3125 722.125 C 317.9375 707.375 308.3125 704.375 304.0625 703.375 C 300.9375 702.5 298.0625 702.25 295.1875 702.25 C 275.5625 702.25 262.5625 715.125 262.5625 736.75 C 262.5625 742.625 263.5625 748.75 265.5625 753.125 C 272.8125 770 289.8125 771.5 298.8125 771.5 C 309.1875 771.5 313.6875 769.625 320.3125 767 L 321.0625 766 L 321.9375 751.875 L 321.0625 751.5 M 283.1875 729.125 C 283.5625 725.25 284.4375 720 289.1875 717 C 290.6875 716 292.4375 715.625 294.1875 715.625 C 298.3125 715.625 300.8125 717.75 302.1875 720 C 303.9375 722.75 304.0625 725.75 304.0625 728.625 Z M 384.6875 752 C 381.3125 754 378.0625 756 371.6875 756 C 357.5625 756 354.6875 744.25 354.6875 736.75 C 354.6875 727.625 358.6875 717.125 370.8125 717.125 C 376.3125 717.125 379.3125 719.125 383.0625 721.625 L 384.3125 721.25 C 384.8125 714.625 384.9375 712.875 385.9375 706.25 L 385.3125 705.5 C 379.8125 703.75 375.0625 702.25 367.8125 702.25 C 338.4375 702.25 332.6875 724.5 332.6875 737.25 C 332.6875 751.625 340.1875 771.125 368.3125 771.125 C 374.9375 771.125 379.1875 769.875 384.4375 768.375 L 385.1875 767.625 L 385.6875 752.625 Z M 431.8125 723.625 L 435.3125 703.25 L 434.5625 702.375 C 433.6875 702.375 432.8125 702.25 431.9375 702.25 C 426.8125 702.25 421.0625 705.125 417.0625 714.375 L 417.4375 702.875 L 416.4375 701.875 C 407.1875 703.875 404.8125 704.25 395.6875 705.625 L 394.9375 706.375 C 395.6875 715.75 396.0625 721.375 396.0625 738.75 C 396.0625 749 395.9375 759.25 395.6875 769.625 L 396.4375 770.375 C 405.6875 770 407.6875 769.875 417.6875 770 L 418.3125 769.125 C 417.8125 759 417.0625 744.875 417.0625 736.25 C 417.0625 730.625 417.0625 722.375 425.5625 722.375 C 427.6875 722.375 428.9375 723.125 430.6875 724.125 Z M 498.0625 751.5 C 493.3125 754 487.6875 756.875 478.5625 756.875 C 471.0625 756.875 465.9375 754.5 462.9375 750 C 461.0625 747.375 460.6875 744.875 460.1875 742.375 L 500.5625 741.625 L 501.3125 740.75 C 501.1875 734.625 501.0625 728.375 499.3125 722.125 C 494.9375 707.375 485.3125 704.375 481.0625 703.375 C 477.9375 702.5 475.0625 702.25 472.1875 702.25 C 452.5625 702.25 439.5625 715.125 439.5625 736.75 C 439.5625 742.625 440.5625 748.75 442.5625 753.125 C 449.8125 770 466.8125 771.5 475.8125 771.5 C 486.1875 771.5 490.6875 769.625 497.3125 767 L 498.0625 766 L 498.9375 751.875 L 498.0625 751.5 M 460.1875 729.125 C 460.5625 725.25 461.4375 720 466.1875 717 C 467.6875 716 469.4375 715.625 471.1875 715.625 C 475.3125 715.625 477.8125 717.75 479.1875 720 C 480.9375 722.75 481.0625 725.75 481.0625 728.625 Z M 568.4375 732.75 C 568.5625 721.5 568.5625 716.625 565.3125 711.375 C 562.8125 707.375 557.8125 702.375 541.8125 702.375 C 531.0625 702.375 524.4375 704.375 517.3125 706.5 L 516.5625 707.5 L 515.9375 721.125 L 516.9375 721.625 C 521.3125 719.875 529.4375 716.625 537.8125 716.625 C 542.4375 716.625 544.3125 717.375 545.9375 719 C 547.1875 720.25 547.5625 722.5 547.5625 724.375 C 532.5625 726.375 525.5625 727.75 518.0625 732.375 C 511.0625 736.75 508.6875 743.875 508.6875 749.5 C 508.6875 762.875 518.3125 771.5 530.5625 771.5 C 539.9375 771.5 545.3125 767 547.9375 764.875 L 547.9375 769.5 L 548.6875 770.375 C 557.6875 770 560.4375 769.875 568.5625 770 L 569.1875 769.125 C 568.3125 756.875 568.3125 753.75 568.3125 742 L 568.4375 732.75 M 547.8125 752.625 C 545.1875 754.125 541.8125 755.875 537.6875 755.875 C 533.1875 755.875 529.4375 753.5 529.4375 748.25 C 529.4375 740 539.3125 738.625 547.8125 737.5 Z M 618.0625 755.625 C 615.9375 756.25 614.4375 756.75 612.3125 756.75 C 605.9375 756.75 605.4375 752.75 605.1875 750.875 C 604.8125 747.625 604.8125 740.75 604.9375 735.75 L 605.1875 718.125 L 616.4375 718.625 L 617.1875 717.875 L 618.4375 704.5 L 617.6875 703.75 L 605.1875 703.75 L 605.5625 682.75 L 604.6875 682 C 596.1875 684.5 593.9375 685.125 585.0625 687.375 L 584.5625 688.25 L 584.6875 703.875 L 577.9375 703.625 L 577.1875 704.25 L 576.0625 717.625 L 576.8125 718.375 L 584.6875 718.125 L 584.3125 738 C 584.1875 741.125 584.0625 744.25 584.0625 747.5 C 584.0625 759 584.3125 771.375 603.8125 771.375 C 608.6875 771.375 612.5625 770.625 616.9375 769.875 L 617.8125 769 L 619.0625 756.125 Z M 649.9375 769.125 C 649.3125 759.5 648.8125 752.125 648.8125 734.875 C 648.8125 724.25 649.0625 713.5 649.1875 702.875 L 648.3125 701.875 L 626.8125 705.625 L 626.0625 706.375 C 627.0625 715.875 627.4375 720.25 627.4375 738 C 627.4375 751.625 627.0625 759.25 626.6875 769.5 L 627.4375 770.375 C 636.4375 770 638.9375 769.875 649.0625 770 L 649.9375 769.125 M 647.9375 689.875 L 648.3125 672.875 L 647.5625 672.125 L 627.1875 674.625 L 626.4375 675.5 C 626.6875 680 626.8125 682.625 626.8125 685.625 C 626.8125 688 626.8125 690.5 626.6875 692.875 L 627.5625 693.625 C 636.0625 692.125 638.4375 691.875 647.3125 690.75 Z M 727.4375 736.75 C 727.4375 731.875 727.4375 711.625 709.9375 704.75 C 704.4375 702.625 697.9375 702.375 694.6875 702.375 C 672.9375 702.375 660.6875 714 660.6875 737 C 660.6875 745 661.9375 753.125 666.5625 759.875 C 669.8125 764.75 675.9375 771.5 693.8125 771.5 C 720.3125 771.5 727.4375 755.5 727.4375 736.75 M 705.8125 736.625 C 705.8125 746.875 704.4375 758.25 694.0625 758.25 C 690.8125 758.25 688.5625 756.75 687.0625 755.375 C 684.9375 753.25 682.5625 749 682.5625 736.875 C 682.5625 733.25 682.5625 725.25 685.0625 720.875 C 686.9375 717.5 690.1875 715.25 694.1875 715.25 C 697.6875 715.25 700.5625 717.125 702.1875 719.125 C 705.1875 722.75 705.8125 729.875 705.8125 736.625 Z M 800.5625 769.125 C 799.9375 758.125 799.9375 754.625 799.6875 742.375 L 799.6875 732.625 C 799.5625 720.625 799.4375 714.875 796.3125 709.75 C 792.4375 703.25 785.3125 702.25 780.8125 702.25 C 773.1875 702.25 766.5625 706.25 760.8125 709.625 L 761.0625 702.75 L 759.8125 701.875 C 750.1875 703.875 748.0625 704.25 738.6875 705.5 L 737.9375 706.375 C 738.9375 717.25 739.6875 725.125 739.6875 745.5 C 739.6875 753.5 739.5625 761.5 739.4375 769.5 L 740.1875 770.25 C 749.1875 769.875 751.0625 769.875 761.0625 769.875 L 761.8125 769.125 C 761.0625 749.875 760.9375 745 760.8125 722.625 C 763.4375 720.875 766.4375 718.75 770.4375 718.75 C 777.3125 718.75 777.9375 726.125 778.3125 730.625 C 778.5625 734.75 778.6875 751.875 778.6875 756.625 C 778.6875 760.875 778.5625 765.25 778.5625 769.5 L 779.3125 770.25 C 787.5625 770 789.6875 769.875 799.6875 769.875 Z M 807.3125 770 "/>
<path fill-rule="nonzero" fill="rgb(34.901961%, 14.901961%, 14.901961%)" fill-opacity="1" d="M 412.4375 831.375 C 400.4375 831.75 397.9375 831.75 384.5625 831.75 L 383.6875 832.5 C 377.0625 853.75 373.0625 866.375 354.6875 919.125 L 355.1875 920 L 374.6875 920 L 375.5625 919.25 L 381.6875 896.5 L 408.6875 896.5 L 414.0625 919.625 L 414.9375 920.375 C 424.0625 920 426.5625 919.875 436.6875 920 L 437.3125 919 C 422.1875 865.5 420.4375 859.625 413.3125 832.125 L 412.4375 831.375 M 386.0625 881.375 L 392.3125 860.25 L 396.6875 845.625 L 400.4375 861.875 L 405.0625 881.375 Z M 481.4375 873.625 L 484.9375 853.25 L 484.1875 852.375 C 483.3125 852.375 482.4375 852.25 481.5625 852.25 C 476.4375 852.25 470.6875 855.125 466.6875 864.375 L 467.0625 852.875 L 466.0625 851.875 C 456.8125 853.875 454.4375 854.25 445.3125 855.625 L 444.5625 856.375 C 445.3125 865.75 445.6875 871.375 445.6875 888.75 C 445.6875 899 445.5625 909.25 445.3125 919.625 L 446.0625 920.375 C 455.3125 920 457.3125 919.875 467.3125 920 L 467.9375 919.125 C 467.4375 909 466.6875 894.875 466.6875 886.25 C 466.6875 880.625 466.6875 872.375 475.1875 872.375 C 477.3125 872.375 478.5625 873.125 480.3125 874.125 Z M 547.6875 901.5 C 542.9375 904 537.3125 906.875 528.1875 906.875 C 520.6875 906.875 515.5625 904.5 512.5625 900 C 510.6875 897.375 510.3125 894.875 509.8125 892.375 L 550.1875 891.625 L 550.9375 890.75 C 550.8125 884.625 550.6875 878.375 548.9375 872.125 C 544.5625 857.375 534.9375 854.375 530.6875 853.375 C 527.5625 852.5 524.6875 852.25 521.8125 852.25 C 502.1875 852.25 489.1875 865.125 489.1875 886.75 C 489.1875 892.625 490.1875 898.75 492.1875 903.125 C 499.4375 920 516.4375 921.5 525.4375 921.5 C 535.8125 921.5 540.3125 919.625 546.9375 917 L 547.6875 916 L 548.5625 901.875 L 547.6875 901.5 M 509.8125 879.125 C 510.1875 875.25 511.0625 870 515.8125 867 C 517.3125 866 519.0625 865.625 520.8125 865.625 C 524.9375 865.625 527.4375 867.75 528.8125 870 C 530.5625 872.75 530.6875 875.75 530.6875 878.625 Z M 618.0625 882.75 C 618.1875 871.5 618.1875 866.625 614.9375 861.375 C 612.4375 857.375 607.4375 852.375 591.4375 852.375 C 580.6875 852.375 574.0625 854.375 566.9375 856.5 L 566.1875 857.5 L 565.5625 871.125 L 566.5625 871.625 C 570.9375 869.875 579.0625 866.625 587.4375 866.625 C 592.0625 866.625 593.9375 867.375 595.5625 869 C 596.8125 870.25 597.1875 872.5 597.1875 874.375 C 582.1875 876.375 575.1875 877.75 567.6875 882.375 C 560.6875 886.75 558.3125 893.875 558.3125 899.5 C 558.3125 912.875 567.9375 921.5 580.1875 921.5 C 589.5625 921.5 594.9375 917 597.5625 914.875 L 597.5625 919.5 L 598.3125 920.375 C 607.3125 920 610.0625 919.875 618.1875 920 L 618.8125 919.125 C 617.9375 906.875 617.9375 903.75 617.9375 892 L 618.0625 882.75 M 597.4375 902.625 C 594.8125 904.125 591.4375 905.875 587.3125 905.875 C 582.8125 905.875 579.0625 903.5 579.0625 898.25 C 579.0625 890 588.9375 888.625 597.4375 887.5 Z M 625.1875 920 "/>
</svg>
