<?xml version="1.0" encoding="UTF-8"?>
<svg xmlns="http://www.w3.org/2000/svg" xmlns:xlink="http://www.w3.org/1999/xlink" width="975" height="1300" viewBox="0 0 975 1300">
<path fill-rule="nonzero" fill="rgb(34.901961%, 14.901961%, 14.901961%)" fill-opacity="1" d="M 140.5 597.625 C 137.625 599.875 131.25 604.625 120.875 604.625 C 106.625 604.625 96.625 594 96.625 576.25 C 96.625 565.5 100.375 546.625 120.75 546.625 C 130.125 546.625 135.25 550.25 138.375 552.625 L 139.5 552.375 L 140.625 535.125 L 140.125 534.5 C 135.625 532.75 128 529.875 117 529.875 C 84.625 529.875 73.375 554.875 73.375 576.75 C 73.375 600.75 88 621.875 118.5 621.875 C 129 621.875 135.875 619.125 139.875 617.5 L 140.5 616.75 L 141.375 598.125 Z M 206.75 582.75 C 206.875 571.5 206.875 566.625 203.625 561.375 C 201.125 557.375 196.125 552.375 180.125 552.375 C 169.375 552.375 162.75 554.375 155.625 556.5 L 154.875 557.5 L 154.25 571.125 L 155.25 571.625 C 159.625 569.875 167.75 566.625 176.125 566.625 C 180.75 566.625 182.625 567.375 184.25 569 C 185.5 570.25 185.875 572.5 185.875 574.375 C 170.875 576.375 163.875 577.75 156.375 582.375 C 149.375 586.75 147 593.875 147 599.5 C 147 612.875 156.625 621.5 168.875 621.5 C 178.25 621.5 183.625 617 186.25 614.875 L 186.25 619.5 L 187 620.375 C 196 620 198.75 619.875 206.875 620 L 207.5 619.125 C 206.625 606.875 206.625 603.75 206.625 592 L 206.75 582.75 M 186.125 602.625 C 183.5 604.125 180.125 605.875 176 605.875 C 171.5 605.875 167.75 603.5 167.75 598.25 C 167.75 590 177.625 588.625 186.125 587.5 Z M 257.5 573.625 L 261 553.25 L 260.25 552.375 C 259.375 552.375 258.5 552.25 257.625 552.25 C 252.5 552.25 246.75 555.125 242.75 564.375 L 243.125 552.875 L 242.125 551.875 C 232.875 553.875 230.5 554.25 221.375 555.625 L 220.625 556.375 C 221.375 565.75 221.75 571.375 221.75 588.75 C 221.75 599 221.625 609.25 221.375 619.625 L 222.125 620.375 C 231.375 620 233.375 619.875 243.375 620 L 244 619.125 C 243.5 609 242.75 594.875 242.75 586.25 C 242.75 580.625 242.75 572.375 251.25 572.375 C 253.375 572.375 254.625 573.125 256.375 574.125 Z M 290.25 619.125 C 289.625 604.75 289 591.625 289 552.125 C 289 540.25 289.125 534.625 289.625 521.125 L 288.75 520.25 L 267.375 523.625 L 266.875 524.375 C 268.125 539.625 268.25 543.75 268.5 564 C 268.625 571.375 268.625 578.75 268.625 586.125 C 268.625 599.625 268.375 607.125 267.875 619.5 L 268.625 620.375 C 277 620 280.375 619.875 289.5 620 Z M 331 576.875 C 326.75 575.375 323.375 574 323.375 570.5 C 323.375 569 324.375 564.875 332.125 564.875 C 339.75 564.875 344.625 568.125 347.75 570.125 L 348.875 569.75 L 350.125 556.125 L 349.5 555.375 C 343.625 553.75 338.5 552.25 330.375 552.25 C 324.25 552.25 312 552.75 305.5 562.125 C 303.875 564.375 302.125 568.125 302.125 573.125 C 302.125 586.5 312.5 590.5 318.375 592.75 L 323.125 594.5 C 326.5 595.625 332 597.5 332 602 C 332 605.125 329.125 608.5 322.125 608.5 C 318.625 608.5 313.5 607.375 308.875 605 C 306.75 603.875 305.75 603 303.875 601.5 L 302.75 602 C 302.5 608.5 302.375 609.875 301.875 616.125 L 302.5 617.25 C 308.625 619.5 313.875 621.5 323 621.5 C 332.5 621.5 351.25 619.75 353.5 601.875 C 353.625 600.875 353.625 600 353.625 599.125 C 353.625 585.375 344 581.75 337.125 579.125 Z M 373.625 620.25 L 376.125 620.25 C 396.125 620.25 409 619.25 418.5 609.125 C 427.375 599.625 428.25 588.375 428.25 583.125 C 428.25 565.75 418.25 552.25 401.25 552.25 C 393 552.25 388.625 555 385.125 557.25 L 385.875 521 L 384.875 520.25 L 364.125 523.5 L 363.375 524.375 C 364.375 534.875 364.75 539.125 364.75 564.25 C 364.75 575 364.625 596.25 364.5 619.5 L 365.375 620.375 L 373.625 620.25 M 385.625 569.625 C 388.125 568.375 390.5 567.125 393.75 567.125 C 402 567.125 406.75 574.5 406.75 586 C 406.75 595 402.75 600.875 399.375 603.25 C 395.25 606.125 389.875 606.25 385.625 606.375 Z M 495.75 582.75 C 495.875 571.5 495.875 566.625 492.625 561.375 C 490.125 557.375 485.125 552.375 469.125 552.375 C 458.375 552.375 451.75 554.375 444.625 556.5 L 443.875 557.5 L 443.25 571.125 L 444.25 571.625 C 448.625 569.875 456.75 566.625 465.125 566.625 C 469.75 566.625 471.625 567.375 473.25 569 C 474.5 570.25 474.875 572.5 474.875 574.375 C 459.875 576.375 452.875 577.75 445.375 582.375 C 438.375 586.75 436 593.875 436 599.5 C 436 612.875 445.625 621.5 457.875 621.5 C 467.25 621.5 472.625 617 475.25 614.875 L 475.25 619.5 L 476 620.375 C 485 620 487.75 619.875 495.875 620 L 496.5 619.125 C 495.625 606.875 495.625 603.75 495.625 592 L 495.75 582.75 M 475.125 602.625 C 472.5 604.125 469.125 605.875 465 605.875 C 460.5 605.875 456.75 603.5 456.75 598.25 C 456.75 590 466.625 588.625 475.125 587.5 Z M 571.625 619.25 C 571.125 608 570.75 600.5 570.75 584.125 C 570.75 551.125 571.25 537.5 571.75 521 L 570.875 520.25 L 550.25 523.5 L 549.625 524.25 C 550.375 536 550.5 539.125 550.375 553.375 C 541 553.125 529.25 552.875 519.75 560.375 C 511 567.125 507.375 577.5 507.375 590.375 C 507.375 600.125 510 609.875 517.375 616 C 522.875 620.5 529.625 621.5 533.75 621.5 C 542.625 621.5 547.25 617.375 550.25 614.75 L 550 619.625 L 550.625 620.375 C 559.25 620 561.625 620 571 620 L 571.625 619.25 M 550.375 568.375 C 550.5 585 550.375 588.25 550 603.375 C 547.5 604.875 545 606.375 541.5 606.375 C 529.375 606.375 529.375 590.875 529.375 588.375 C 529.375 578.75 532.125 568 546.125 568 C 547.5 568 548.625 568.125 550.375 568.375 Z M 658.5 566.25 C 648 561.875 642.5 559.625 642.5 554 C 642.5 550.125 646.125 545.25 654.375 545.25 C 663.875 545.25 669.5 549.125 674.125 552.25 L 675.25 551.75 L 676.25 535.375 L 675.625 534.5 C 670.25 532.25 664.625 529.875 652.5 529.875 C 629 529.875 620.875 543.125 620.875 556.5 C 620.875 571.625 632.625 577.125 639.625 580.5 L 643.75 582.375 C 652.375 586 659 589.125 659 595.75 C 659 600.5 654.875 606.125 644 606.125 C 632.625 606.125 626.25 601.125 622.625 598.25 L 621.375 598.625 L 620.5 616.25 L 621.25 617.25 C 622.625 617.75 624 618.375 625.375 618.75 C 628.25 619.75 635.625 621.875 645 621.875 C 648.75 621.875 658.25 621.5 665.75 618 C 676.25 612.875 680.75 603.375 680.75 592.75 C 680.75 585.625 678 578 671.375 572.875 C 668 570.375 664.75 568.875 661.75 567.5 Z M 727.625 605.625 C 725.5 606.25 724 606.75 721.875 606.75 C 715.5 606.75 715 602.75 714.75 600.875 C 714.375 597.625 714.375 590.75 714.5 585.75 L 714.75 568.125 L 726 568.625 L 726.75 567.875 L 728 554.5 L 727.25 553.75 L 714.75 553.75 L 715.125 532.75 L 714.25 532 C 705.75 534.5 703.5 535.125 694.625 537.375 L 694.125 538.25 L 694.25 553.875 L 687.5 553.625 L 686.75 554.25 L 685.625 567.625 L 686.375 568.375 L 694.25 568.125 L 693.875 588 C 693.75 591.125 693.625 594.25 693.625 597.5 C 693.625 609 693.875 621.375 713.375 621.375 C 718.25 621.375 722.125 620.625 726.5 619.875 L 727.375 619 L 728.625 606.125 Z M 792.5 582.75 C 792.625 571.5 792.625 566.625 789.375 561.375 C 786.875 557.375 781.875 552.375 765.875 552.375 C 755.125 552.375 748.5 554.375 741.375 556.5 L 740.625 557.5 L 740 571.125 L 741 571.625 C 745.375 569.875 753.5 566.625 761.875 566.625 C 766.5 566.625 768.375 567.375 770 569 C 771.25 570.25 771.625 572.5 771.625 574.375 C 756.625 576.375 749.625 577.75 742.125 582.375 C 735.125 586.75 732.75 593.875 732.75 599.5 C 732.75 612.875 742.375 621.5 754.625 621.5 C 764 621.5 769.375 617 772 614.875 L 772 619.5 L 772.75 620.375 C 781.75 620 784.5 619.875 792.625 620 L 793.25 619.125 C 792.375 606.875 792.375 603.75 792.375 592 L 792.5 582.75 M 771.875 602.625 C 769.25 604.125 765.875 605.875 761.75 605.875 C 757.25 605.875 753.5 603.5 753.5 598.25 C 753.5 590 763.375 588.625 771.875 587.5 Z M 842.125 605.625 C 840 606.25 838.5 606.75 836.375 606.75 C 830 606.75 829.5 602.75 829.25 600.875 C 828.875 597.625 828.875 590.75 829 585.75 L 829.25 568.125 L 840.5 568.625 L 841.25 567.875 L 842.5 554.5 L 841.75 553.75 L 829.25 553.75 L 829.625 532.75 L 828.75 532 C 820.25 534.5 818 535.125 809.125 537.375 L 808.625 538.25 L 808.75 553.875 L 802 553.625 L 801.25 554.25 L 800.125 567.625 L 800.875 568.375 L 808.75 568.125 L 808.375 588 C 808.25 591.125 808.125 594.25 808.125 597.5 C 808.125 609 808.375 621.375 827.875 621.375 C 832.75 621.375 836.625 620.625 841 619.875 L 841.875 619 L 843.125 606.125 Z M 906.875 601.5 C 902.125 604 896.5 606.875 887.375 606.875 C 879.875 606.875 874.75 604.5 871.75 600 C 869.875 597.375 869.5 594.875 869 592.375 L 909.375 591.625 L 910.125 590.75 C 910 584.625 909.875 578.375 908.125 572.125 C 903.75 557.375 894.125 554.375 889.875 553.375 C 886.75 552.5 883.875 552.25 881 552.25 C 861.375 552.25 848.375 565.125 848.375 586.75 C 848.375 592.625 849.375 598.75 851.375 603.125 C 858.625 620 875.625 621.5 884.625 621.5 C 895 621.5 899.5 619.625 906.125 617 L 906.875 616 L 907.75 601.875 L 906.875 601.5 M 869 579.125 C 869.375 575.25 870.25 570 875 567 C 876.5 566 878.25 565.625 880 565.625 C 884.125 565.625 886.625 567.75 888 570 C 889.75 572.75 889.875 575.75 889.875 578.625 Z M 914.125 620 "/>
<path fill-rule="nonzero" fill="rgb(34.901961%, 14.901961%, 14.901961%)" fill-opacity="1" d="M 346.25 770 C 357.875 770.25 372.25 770.5 381.625 764 C 389.875 758.125 392.125 749.875 392.125 742.875 C 392.125 734.875 388.75 727.5 381.625 724 C 379.25 722.75 376.5 722.25 373.875 721.75 C 378.125 720 383.125 717.75 386.375 711.125 C 387.75 708.25 388.375 705.25 388.375 702.375 C 388.375 698.375 387.375 692.875 383.375 688.375 C 378.125 682.75 370 681.25 357.75 681.25 C 353.5 681.25 345.875 681.375 341.625 681.5 L 324.125 681.75 L 323.375 682.5 C 323.875 694.5 324 699.125 324 716.375 C 324 734.125 323.875 751.75 323.625 769.5 L 324.5 770 L 346.25 770 M 345.375 732 C 354.875 731.75 360.375 731.75 364 733.875 C 367.625 736.125 369 740.125 369 744.125 C 369 749.75 365.875 753.25 361.25 754.875 C 357.5 756.125 350.75 756.125 345.375 756 L 345.375 732 M 345.375 695.25 C 348 695.25 351.5 695.125 353.625 695.125 C 360.375 695.125 366.5 697.5 366.5 705.625 C 366.5 712.25 361.625 715 360.125 715.75 C 357 717.125 350.375 717.125 345.375 717.125 Z M 459.25 751.5 C 454.5 754 448.875 756.875 439.75 756.875 C 432.25 756.875 427.125 754.5 424.125 750 C 422.25 747.375 421.875 744.875 421.375 742.375 L 461.75 741.625 L 462.5 740.75 C 462.375 734.625 462.25 728.375 460.5 722.125 C 456.125 707.375 446.5 704.375 442.25 703.375 C 439.125 702.5 436.25 702.25 433.375 702.25 C 413.75 702.25 400.75 715.125 400.75 736.75 C 400.75 742.625 401.75 748.75 403.75 753.125 C 411 770 428 771.5 437 771.5 C 447.375 771.5 451.875 769.625 458.5 767 L 459.25 766 L 460.125 751.875 L 459.25 751.5 M 421.375 729.125 C 421.75 725.25 422.625 720 427.375 717 C 428.875 716 430.625 715.625 432.375 715.625 C 436.5 715.625 439 717.75 440.375 720 C 442.125 722.75 442.25 725.75 442.25 728.625 Z M 529.625 732.75 C 529.75 721.5 529.75 716.625 526.5 711.375 C 524 707.375 519 702.375 503 702.375 C 492.25 702.375 485.625 704.375 478.5 706.5 L 477.75 707.5 L 477.125 721.125 L 478.125 721.625 C 482.5 719.875 490.625 716.625 499 716.625 C 503.625 716.625 505.5 717.375 507.125 719 C 508.375 720.25 508.75 722.5 508.75 724.375 C 493.75 726.375 486.75 727.75 479.25 732.375 C 472.25 736.75 469.875 743.875 469.875 749.5 C 469.875 762.875 479.5 771.5 491.75 771.5 C 501.125 771.5 506.5 767 509.125 764.875 L 509.125 769.5 L 509.875 770.375 C 518.875 770 521.625 769.875 529.75 770 L 530.375 769.125 C 529.5 756.875 529.5 753.75 529.5 742 L 529.625 732.75 M 509 752.625 C 506.375 754.125 503 755.875 498.875 755.875 C 494.375 755.875 490.625 753.5 490.625 748.25 C 490.625 740 500.5 738.625 509 737.5 Z M 593.125 752 C 589.75 754 586.5 756 580.125 756 C 566 756 563.125 744.25 563.125 736.75 C 563.125 727.625 567.125 717.125 579.25 717.125 C 584.75 717.125 587.75 719.125 591.5 721.625 L 592.75 721.25 C 593.25 714.625 593.375 712.875 594.375 706.25 L 593.75 705.5 C 588.25 703.75 583.5 702.25 576.25 702.25 C 546.875 702.25 541.125 724.5 541.125 737.25 C 541.125 751.625 548.625 771.125 576.75 771.125 C 583.375 771.125 587.625 769.875 592.875 768.375 L 593.625 767.625 L 594.125 752.625 Z M 665.375 769.125 C 664.875 758.875 664.75 755.375 664.5 742.375 L 664.5 733 C 664.375 721.125 664.25 714.25 660.625 709 C 657 703.875 651.75 702.25 646.25 702.25 C 637.125 702.25 630 706.625 625 709.625 L 625.375 671.125 L 624.625 670.25 L 603.25 673.625 L 602.625 674.375 C 603.75 686.5 604 691 604.25 707.125 C 604.5 717.25 604.625 727.375 604.625 737.5 C 604.625 749.875 604.375 757.25 604.125 769.5 L 604.75 770.375 C 614 769.875 615.875 769.875 626 769.875 L 626.75 769.125 C 625.875 750.375 625.75 744.75 625.625 722.625 C 628 721 631 718.875 635.25 718.875 C 642.125 718.875 642.625 726 643.125 731 C 643.375 734.875 643.5 752.625 643.5 757.25 C 643.5 761.375 643.375 765.375 643.375 769.5 L 644 770.375 C 653 769.875 655 769.875 664.625 769.875 Z M 672.125 770 "/>
</svg>
