<?xml version="1.0" encoding="UTF-8"?>
<svg xmlns="http://www.w3.org/2000/svg" xmlns:xlink="http://www.w3.org/1999/xlink" width="975" height="1300" viewBox="0 0 975 1300">
<path fill-rule="nonzero" fill="rgb(34.901961%, 14.901961%, 14.901961%)" fill-opacity="1" d="M 190.8125 548.25 L 191.5625 547.625 L 192.4375 532 L 191.8125 531.625 L 129.9375 531.625 L 129.0625 532.375 L 128.1875 547.75 L 128.8125 548.5 L 149.1875 548 C 149.3125 580.75 149.3125 588.625 148.3125 619.625 L 149.0625 620.375 C 158.3125 620 160.8125 619.875 171.1875 619.875 L 171.9375 619.125 C 171.3125 601.625 171.0625 584.125 171.0625 566.5 C 171.0625 559.625 171.1875 555.75 171.4375 547.75 Z M 264.0625 586.75 C 264.0625 581.875 264.0625 561.625 246.5625 554.75 C 241.0625 552.625 234.5625 552.375 231.3125 552.375 C 209.5625 552.375 197.3125 564 197.3125 587 C 197.3125 595 198.5625 603.125 203.1875 609.875 C 206.4375 614.75 212.5625 621.5 230.4375 621.5 C 256.9375 621.5 264.0625 605.5 264.0625 586.75 M 242.4375 586.625 C 242.4375 596.875 241.0625 608.25 230.6875 608.25 C 227.4375 608.25 225.1875 606.75 223.6875 605.375 C 221.5625 603.25 219.1875 599 219.1875 586.875 C 219.1875 583.25 219.1875 575.25 221.6875 570.875 C 223.5625 567.5 226.8125 565.25 230.8125 565.25 C 234.3125 565.25 237.1875 567.125 238.8125 569.125 C 241.8125 572.75 242.4375 579.875 242.4375 586.625 Z M 312.0625 573.625 L 315.5625 553.25 L 314.8125 552.375 C 313.9375 552.375 313.0625 552.25 312.1875 552.25 C 307.0625 552.25 301.3125 555.125 297.3125 564.375 L 297.6875 552.875 L 296.6875 551.875 C 287.4375 553.875 285.0625 554.25 275.9375 555.625 L 275.1875 556.375 C 275.9375 565.75 276.3125 571.375 276.3125 588.75 C 276.3125 599 276.1875 609.25 275.9375 619.625 L 276.6875 620.375 C 285.9375 620 287.9375 619.875 297.9375 620 L 298.5625 619.125 C 298.0625 609 297.3125 594.875 297.3125 586.25 C 297.3125 580.625 297.3125 572.375 305.8125 572.375 C 307.9375 572.375 309.1875 573.125 310.9375 574.125 Z M 358.9375 573.625 L 362.4375 553.25 L 361.6875 552.375 C 360.8125 552.375 359.9375 552.25 359.0625 552.25 C 353.9375 552.25 348.1875 555.125 344.1875 564.375 L 344.5625 552.875 L 343.5625 551.875 C 334.3125 553.875 331.9375 554.25 322.8125 555.625 L 322.0625 556.375 C 322.8125 565.75 323.1875 571.375 323.1875 588.75 C 323.1875 599 323.0625 609.25 322.8125 619.625 L 323.5625 620.375 C 332.8125 620 334.8125 619.875 344.8125 620 L 345.4375 619.125 C 344.9375 609 344.1875 594.875 344.1875 586.25 C 344.1875 580.625 344.1875 572.375 352.6875 572.375 C 354.8125 572.375 356.0625 573.125 357.8125 574.125 Z M 425.1875 601.5 C 420.4375 604 414.8125 606.875 405.6875 606.875 C 398.1875 606.875 393.0625 604.5 390.0625 600 C 388.1875 597.375 387.8125 594.875 387.3125 592.375 L 427.6875 591.625 L 428.4375 590.75 C 428.3125 584.625 428.1875 578.375 426.4375 572.125 C 422.0625 557.375 412.4375 554.375 408.1875 553.375 C 405.0625 552.5 402.1875 552.25 399.3125 552.25 C 379.6875 552.25 366.6875 565.125 366.6875 586.75 C 366.6875 592.625 367.6875 598.75 369.6875 603.125 C 376.9375 620 393.9375 621.5 402.9375 621.5 C 413.3125 621.5 417.8125 619.625 424.4375 617 L 425.1875 616 L 426.0625 601.875 L 425.1875 601.5 M 387.3125 579.125 C 387.6875 575.25 388.5625 570 393.3125 567 C 394.8125 566 396.5625 565.625 398.3125 565.625 C 402.4375 565.625 404.9375 567.75 406.3125 570 C 408.0625 572.75 408.1875 575.75 408.1875 578.625 Z M 495.8125 553.375 L 478.4375 553.75 L 477.4375 554.625 C 475.3125 563.25 474.8125 565.125 471.8125 574.875 L 468.5625 585.625 L 465.8125 595 L 463.4375 586.125 L 459.8125 572.875 L 454.8125 553.875 L 453.8125 553.125 C 444.0625 553.875 441.9375 554 431.6875 554.25 L 431.0625 555.125 C 435.5625 567 447.1875 598.375 454.9375 622.375 C 449.8125 635.375 448.8125 637.625 443.1875 650 L 443.8125 651 C 446.9375 650.875 450.4375 650.75 453.6875 650.75 C 456.8125 650.75 460.0625 650.875 463.1875 650.875 L 464.0625 650.125 C 470.9375 623.125 474.3125 612.625 490.8125 569.125 C 492.6875 564.125 494.5625 559.25 496.3125 554.375 Z M 555.6875 531.5 L 539.8125 531.75 L 539.0625 532.5 C 539.5625 548.75 539.9375 559.625 539.9375 574 C 539.9375 589.25 539.5625 604.375 539.1875 619.625 L 539.9375 620.375 C 549.1875 620 551.1875 619.875 561.1875 620 L 561.8125 619.25 C 561.3125 605.625 561.3125 602.5 561.3125 589.75 C 575.3125 589.875 590.3125 589.875 599.3125 578.875 C 602.8125 574.625 605.8125 567.5 605.8125 558.75 C 605.8125 553.375 604.5625 541.5 594.1875 535.625 C 586.6875 531.25 576.0625 531.25 566.6875 531.25 L 555.6875 531.5 M 561.3125 546.625 C 564.0625 546.5 566.6875 546.5 569.4375 546.5 C 580.4375 546.75 583.4375 552.375 583.4375 559.625 C 583.4375 561.375 583.4375 568.625 576.8125 572.25 C 573.4375 574.125 568.8125 574.375 561.3125 574.375 Z M 637.0625 619.125 C 636.4375 609.5 635.9375 602.125 635.9375 584.875 C 635.9375 574.25 636.1875 563.5 636.3125 552.875 L 635.4375 551.875 L 613.9375 555.625 L 613.1875 556.375 C 614.1875 565.875 614.5625 570.25 614.5625 588 C 614.5625 601.625 614.1875 609.25 613.8125 619.5 L 614.5625 620.375 C 623.5625 620 626.0625 619.875 636.1875 620 L 637.0625 619.125 M 635.0625 539.875 L 635.4375 522.875 L 634.6875 522.125 L 614.3125 524.625 L 613.5625 525.5 C 613.8125 530 613.9375 532.625 613.9375 535.625 C 613.9375 538 613.9375 540.5 613.8125 542.875 L 614.6875 543.625 C 623.1875 542.125 625.5625 541.875 634.4375 540.75 Z M 712.1875 619.125 C 711.5625 608.125 711.5625 604.625 711.3125 592.375 L 711.3125 582.625 C 711.1875 570.625 711.0625 564.875 707.9375 559.75 C 704.0625 553.25 696.9375 552.25 692.4375 552.25 C 684.8125 552.25 678.1875 556.25 672.4375 559.625 L 672.6875 552.75 L 671.4375 551.875 C 661.8125 553.875 659.6875 554.25 650.3125 555.5 L 649.5625 556.375 C 650.5625 567.25 651.3125 575.125 651.3125 595.5 C 651.3125 603.5 651.1875 611.5 651.0625 619.5 L 651.8125 620.25 C 660.8125 619.875 662.6875 619.875 672.6875 619.875 L 673.4375 619.125 C 672.6875 599.875 672.5625 595 672.4375 572.625 C 675.0625 570.875 678.0625 568.75 682.0625 568.75 C 688.9375 568.75 689.5625 576.125 689.9375 580.625 C 690.1875 584.75 690.3125 601.875 690.3125 606.625 C 690.3125 610.875 690.1875 615.25 690.1875 619.5 L 690.9375 620.25 C 699.1875 620 701.3125 619.875 711.3125 619.875 Z M 781.9375 601.5 C 777.1875 604 771.5625 606.875 762.4375 606.875 C 754.9375 606.875 749.8125 604.5 746.8125 600 C 744.9375 597.375 744.5625 594.875 744.0625 592.375 L 784.4375 591.625 L 785.1875 590.75 C 785.0625 584.625 784.9375 578.375 783.1875 572.125 C 778.8125 557.375 769.1875 554.375 764.9375 553.375 C 761.8125 552.5 758.9375 552.25 756.0625 552.25 C 736.4375 552.25 723.4375 565.125 723.4375 586.75 C 723.4375 592.625 724.4375 598.75 726.4375 603.125 C 733.6875 620 750.6875 621.5 759.6875 621.5 C 770.0625 621.5 774.5625 619.625 781.1875 617 L 781.9375 616 L 782.8125 601.875 L 781.9375 601.5 M 744.0625 579.125 C 744.4375 575.25 745.3125 570 750.0625 567 C 751.5625 566 753.3125 565.625 755.0625 565.625 C 759.1875 565.625 761.6875 567.75 763.0625 570 C 764.8125 572.75 764.9375 575.75 764.9375 578.625 Z M 822.9375 576.875 C 818.6875 575.375 815.3125 574 815.3125 570.5 C 815.3125 569 816.3125 564.875 824.0625 564.875 C 831.6875 564.875 836.5625 568.125 839.6875 570.125 L 840.8125 569.75 L 842.0625 556.125 L 841.4375 555.375 C 835.5625 553.75 830.4375 552.25 822.3125 552.25 C 816.1875 552.25 803.9375 552.75 797.4375 562.125 C 795.8125 564.375 794.0625 568.125 794.0625 573.125 C 794.0625 586.5 804.4375 590.5 810.3125 592.75 L 815.0625 594.5 C 818.4375 595.625 823.9375 597.5 823.9375 602 C 823.9375 605.125 821.0625 608.5 814.0625 608.5 C 810.5625 608.5 805.4375 607.375 800.8125 605 C 798.6875 603.875 797.6875 603 795.8125 601.5 L 794.6875 602 C 794.4375 608.5 794.3125 609.875 793.8125 616.125 L 794.4375 617.25 C 800.5625 619.5 805.8125 621.5 814.9375 621.5 C 824.4375 621.5 843.1875 619.75 845.4375 601.875 C 845.5625 600.875 845.5625 600 845.5625 599.125 C 845.5625 585.375 835.9375 581.75 829.0625 579.125 Z M 849.0625 620 "/>
<path fill-rule="nonzero" fill="rgb(34.901961%, 14.901961%, 14.901961%)" fill-opacity="1" d="M 190.125 716.25 C 179.625 711.875 174.125 709.625 174.125 704 C 174.125 700.125 177.75 695.25 186 695.25 C 195.5 695.25 201.125 699.125 205.75 702.25 L 206.875 701.75 L 207.875 685.375 L 207.25 684.5 C 201.875 682.25 196.25 679.875 184.125 679.875 C 160.625 679.875 152.5 693.125 152.5 706.5 C 152.5 721.625 164.25 727.125 171.25 730.5 L 175.375 732.375 C 184 736 190.625 739.125 190.625 745.75 C 190.625 750.5 186.5 756.125 175.625 756.125 C 164.25 756.125 157.875 751.125 154.25 748.25 L 153 748.625 L 152.125 766.25 L 152.875 767.25 C 154.25 767.75 155.625 768.375 157 768.75 C 159.875 769.75 167.25 771.875 176.625 771.875 C 180.375 771.875 189.875 771.5 197.375 768 C 207.875 762.875 212.375 753.375 212.375 742.75 C 212.375 735.625 209.625 728 203 722.875 C 199.625 720.375 196.375 718.875 193.375 717.5 Z M 259.25 755.625 C 257.125 756.25 255.625 756.75 253.5 756.75 C 247.125 756.75 246.625 752.75 246.375 750.875 C 246 747.625 246 740.75 246.125 735.75 L 246.375 718.125 L 257.625 718.625 L 258.375 717.875 L 259.625 704.5 L 258.875 703.75 L 246.375 703.75 L 246.75 682.75 L 245.875 682 C 237.375 684.5 235.125 685.125 226.25 687.375 L 225.75 688.25 L 225.875 703.875 L 219.125 703.625 L 218.375 704.25 L 217.25 717.625 L 218 718.375 L 225.875 718.125 L 225.5 738 C 225.375 741.125 225.25 744.25 225.25 747.5 C 225.25 759 225.5 771.375 245 771.375 C 249.875 771.375 253.75 770.625 258.125 769.875 L 259 769 L 260.25 756.125 Z M 324.125 732.75 C 324.25 721.5 324.25 716.625 321 711.375 C 318.5 707.375 313.5 702.375 297.5 702.375 C 286.75 702.375 280.125 704.375 273 706.5 L 272.25 707.5 L 271.625 721.125 L 272.625 721.625 C 277 719.875 285.125 716.625 293.5 716.625 C 298.125 716.625 300 717.375 301.625 719 C 302.875 720.25 303.25 722.5 303.25 724.375 C 288.25 726.375 281.25 727.75 273.75 732.375 C 266.75 736.75 264.375 743.875 264.375 749.5 C 264.375 762.875 274 771.5 286.25 771.5 C 295.625 771.5 301 767 303.625 764.875 L 303.625 769.5 L 304.375 770.375 C 313.375 770 316.125 769.875 324.25 770 L 324.875 769.125 C 324 756.875 324 753.75 324 742 L 324.125 732.75 M 303.5 752.625 C 300.875 754.125 297.5 755.875 293.375 755.875 C 288.875 755.875 285.125 753.5 285.125 748.25 C 285.125 740 295 738.625 303.5 737.5 Z M 373.75 755.625 C 371.625 756.25 370.125 756.75 368 756.75 C 361.625 756.75 361.125 752.75 360.875 750.875 C 360.5 747.625 360.5 740.75 360.625 735.75 L 360.875 718.125 L 372.125 718.625 L 372.875 717.875 L 374.125 704.5 L 373.375 703.75 L 360.875 703.75 L 361.25 682.75 L 360.375 682 C 351.875 684.5 349.625 685.125 340.75 687.375 L 340.25 688.25 L 340.375 703.875 L 333.625 703.625 L 332.875 704.25 L 331.75 717.625 L 332.5 718.375 L 340.375 718.125 L 340 738 C 339.875 741.125 339.75 744.25 339.75 747.5 C 339.75 759 340 771.375 359.5 771.375 C 364.375 771.375 368.25 770.625 372.625 769.875 L 373.5 769 L 374.75 756.125 Z M 438.5 751.5 C 433.75 754 428.125 756.875 419 756.875 C 411.5 756.875 406.375 754.5 403.375 750 C 401.5 747.375 401.125 744.875 400.625 742.375 L 441 741.625 L 441.75 740.75 C 441.625 734.625 441.5 728.375 439.75 722.125 C 435.375 707.375 425.75 704.375 421.5 703.375 C 418.375 702.5 415.5 702.25 412.625 702.25 C 393 702.25 380 715.125 380 736.75 C 380 742.625 381 748.75 383 753.125 C 390.25 770 407.25 771.5 416.25 771.5 C 426.625 771.5 431.125 769.625 437.75 767 L 438.5 766 L 439.375 751.875 L 438.5 751.5 M 400.625 729.125 C 401 725.25 401.875 720 406.625 717 C 408.125 716 409.875 715.625 411.625 715.625 C 415.75 715.625 418.25 717.75 419.625 720 C 421.375 722.75 421.5 725.75 421.5 728.625 Z M 513 770 C 524.625 770.25 539 770.5 548.375 764 C 556.625 758.125 558.875 749.875 558.875 742.875 C 558.875 734.875 555.5 727.5 548.375 724 C 546 722.75 543.25 722.25 540.625 721.75 C 544.875 720 549.875 717.75 553.125 711.125 C 554.5 708.25 555.125 705.25 555.125 702.375 C 555.125 698.375 554.125 692.875 550.125 688.375 C 544.875 682.75 536.75 681.25 524.5 681.25 C 520.25 681.25 512.625 681.375 508.375 681.5 L 490.875 681.75 L 490.125 682.5 C 490.625 694.5 490.75 699.125 490.75 716.375 C 490.75 734.125 490.625 751.75 490.375 769.5 L 491.25 770 L 513 770 M 512.125 732 C 521.625 731.75 527.125 731.75 530.75 733.875 C 534.375 736.125 535.75 740.125 535.75 744.125 C 535.75 749.75 532.625 753.25 528 754.875 C 524.25 756.125 517.5 756.125 512.125 756 L 512.125 732 M 512.125 695.25 C 514.75 695.25 518.25 695.125 520.375 695.125 C 527.125 695.125 533.25 697.5 533.25 705.625 C 533.25 712.25 528.375 715 526.875 715.75 C 523.75 717.125 517.125 717.125 512.125 717.125 Z M 626 751.5 C 621.25 754 615.625 756.875 606.5 756.875 C 599 756.875 593.875 754.5 590.875 750 C 589 747.375 588.625 744.875 588.125 742.375 L 628.5 741.625 L 629.25 740.75 C 629.125 734.625 629 728.375 627.25 722.125 C 622.875 707.375 613.25 704.375 609 703.375 C 605.875 702.5 603 702.25 600.125 702.25 C 580.5 702.25 567.5 715.125 567.5 736.75 C 567.5 742.625 568.5 748.75 570.5 753.125 C 577.75 770 594.75 771.5 603.75 771.5 C 614.125 771.5 618.625 769.625 625.25 767 L 626 766 L 626.875 751.875 L 626 751.5 M 588.125 729.125 C 588.5 725.25 589.375 720 594.125 717 C 595.625 716 597.375 715.625 599.125 715.625 C 603.25 715.625 605.75 717.75 607.125 720 C 608.875 722.75 609 725.75 609 728.625 Z M 696.375 732.75 C 696.5 721.5 696.5 716.625 693.25 711.375 C 690.75 707.375 685.75 702.375 669.75 702.375 C 659 702.375 652.375 704.375 645.25 706.5 L 644.5 707.5 L 643.875 721.125 L 644.875 721.625 C 649.25 719.875 657.375 716.625 665.75 716.625 C 670.375 716.625 672.25 717.375 673.875 719 C 675.125 720.25 675.5 722.5 675.5 724.375 C 660.5 726.375 653.5 727.75 646 732.375 C 639 736.75 636.625 743.875 636.625 749.5 C 636.625 762.875 646.25 771.5 658.5 771.5 C 667.875 771.5 673.25 767 675.875 764.875 L 675.875 769.5 L 676.625 770.375 C 685.625 770 688.375 769.875 696.5 770 L 697.125 769.125 C 696.25 756.875 696.25 753.75 696.25 742 L 696.375 732.75 M 675.75 752.625 C 673.125 754.125 669.75 755.875 665.625 755.875 C 661.125 755.875 657.375 753.5 657.375 748.25 C 657.375 740 667.25 738.625 675.75 737.5 Z M 759.875 752 C 756.5 754 753.25 756 746.875 756 C 732.75 756 729.875 744.25 729.875 736.75 C 729.875 727.625 733.875 717.125 746 717.125 C 751.5 717.125 754.5 719.125 758.25 721.625 L 759.5 721.25 C 760 714.625 760.125 712.875 761.125 706.25 L 760.5 705.5 C 755 703.75 750.25 702.25 743 702.25 C 713.625 702.25 707.875 724.5 707.875 737.25 C 707.875 751.625 715.375 771.125 743.5 771.125 C 750.125 771.125 754.375 769.875 759.625 768.375 L 760.375 767.625 L 760.875 752.625 Z M 832.125 769.125 C 831.625 758.875 831.5 755.375 831.25 742.375 L 831.25 733 C 831.125 721.125 831 714.25 827.375 709 C 823.75 703.875 818.5 702.25 813 702.25 C 803.875 702.25 796.75 706.625 791.75 709.625 L 792.125 671.125 L 791.375 670.25 L 770 673.625 L 769.375 674.375 C 770.5 686.5 770.75 691 771 707.125 C 771.25 717.25 771.375 727.375 771.375 737.5 C 771.375 749.875 771.125 757.25 770.875 769.5 L 771.5 770.375 C 780.75 769.875 782.625 769.875 792.75 769.875 L 793.5 769.125 C 792.625 750.375 792.5 744.75 792.375 722.625 C 794.75 721 797.75 718.875 802 718.875 C 808.875 718.875 809.375 726 809.875 731 C 810.125 734.875 810.25 752.625 810.25 757.25 C 810.25 761.375 810.125 765.375 810.125 769.5 L 810.75 770.375 C 819.75 769.875 821.75 769.875 831.375 769.875 Z M 838.875 770 "/>
</svg>
