<?xml version="1.0" encoding="UTF-8"?>
<svg xmlns="http://www.w3.org/2000/svg" xmlns:xlink="http://www.w3.org/1999/xlink" width="975" height="1300" viewBox="0 0 975 1300">
<path fill-rule="nonzero" fill="rgb(34.901961%, 14.901961%, 14.901961%)" fill-opacity="1" d="M 365.8125 491.25 C 355.3125 486.875 349.8125 484.625 349.8125 479 C 349.8125 475.125 353.4375 470.25 361.6875 470.25 C 371.1875 470.25 376.8125 474.125 381.4375 477.25 L 382.5625 476.75 L 383.5625 460.375 L 382.9375 459.5 C 377.5625 457.25 371.9375 454.875 359.8125 454.875 C 336.3125 454.875 328.1875 468.125 328.1875 481.5 C 328.1875 496.625 339.9375 502.125 346.9375 505.5 L 351.0625 507.375 C 359.6875 511 366.3125 514.125 366.3125 520.75 C 366.3125 525.5 362.1875 531.125 351.3125 531.125 C 339.9375 531.125 333.5625 526.125 329.9375 523.25 L 328.6875 523.625 L 327.8125 541.25 L 328.5625 542.25 C 329.9375 542.75 331.3125 543.375 332.6875 543.75 C 335.5625 544.75 342.9375 546.875 352.3125 546.875 C 356.0625 546.875 365.5625 546.5 373.0625 543 C 383.5625 537.875 388.0625 528.375 388.0625 517.75 C 388.0625 510.625 385.3125 503 378.6875 497.875 C 375.3125 495.375 372.0625 493.875 369.0625 492.5 Z M 463.5625 511.75 C 463.5625 506.875 463.5625 486.625 446.0625 479.75 C 440.5625 477.625 434.0625 477.375 430.8125 477.375 C 409.0625 477.375 396.8125 489 396.8125 512 C 396.8125 520 398.0625 528.125 402.6875 534.875 C 405.9375 539.75 412.0625 546.5 429.9375 546.5 C 456.4375 546.5 463.5625 530.5 463.5625 511.75 M 441.9375 511.625 C 441.9375 521.875 440.5625 533.25 430.1875 533.25 C 426.9375 533.25 424.6875 531.75 423.1875 530.375 C 421.0625 528.25 418.6875 524 418.6875 511.875 C 418.6875 508.25 418.6875 500.25 421.1875 495.875 C 423.0625 492.5 426.3125 490.25 430.3125 490.25 C 433.8125 490.25 436.6875 492.125 438.3125 494.125 C 441.3125 497.75 441.9375 504.875 441.9375 511.625 Z M 535.4375 478.125 L 515.0625 479.125 L 514.1875 479.875 C 515.0625 494 515.0625 514 515.0625 516 C 515.0625 519.625 515.0625 521.625 514.9375 526.625 C 511.5625 528.875 508.9375 530.75 505.5625 530.75 C 496.5625 530.75 496.5625 521.25 496.5625 513.875 C 496.5625 510.75 496.5625 507.5 496.6875 504.375 L 496.9375 479.125 L 496.0625 478.125 L 475.4375 479.125 L 474.5625 479.875 C 475.3125 490.375 475.4375 493.875 475.4375 506.5 L 475.4375 515.25 C 475.3125 528.875 475.9375 534.625 480.4375 539.875 C 484.5625 544.5 490.5625 546.5 496.8125 546.5 C 505.6875 546.5 510.8125 542.5 515.3125 539 L 515.1875 544.625 L 516.0625 545.375 C 525.1875 545 527.9375 545 536.0625 545 L 536.8125 544.25 C 536.1875 535.375 535.9375 530.625 535.9375 514.375 C 535.9375 502.625 536.0625 490.875 536.3125 479.125 Z M 585.9375 530.625 C 583.8125 531.25 582.3125 531.75 580.1875 531.75 C 573.8125 531.75 573.3125 527.75 573.0625 525.875 C 572.6875 522.625 572.6875 515.75 572.8125 510.75 L 573.0625 493.125 L 584.3125 493.625 L 585.0625 492.875 L 586.3125 479.5 L 585.5625 478.75 L 573.0625 478.75 L 573.4375 457.75 L 572.5625 457 C 564.0625 459.5 561.8125 460.125 552.9375 462.375 L 552.4375 463.25 L 552.5625 478.875 L 545.8125 478.625 L 545.0625 479.25 L 543.9375 492.625 L 544.6875 493.375 L 552.5625 493.125 L 552.1875 513 C 552.0625 516.125 551.9375 519.25 551.9375 522.5 C 551.9375 534 552.1875 546.375 571.6875 546.375 C 576.5625 546.375 580.4375 545.625 584.8125 544.875 L 585.6875 544 L 586.9375 531.125 Z M 656.4375 544.125 C 655.9375 533.875 655.8125 530.375 655.5625 517.375 L 655.5625 508 C 655.4375 496.125 655.3125 489.25 651.6875 484 C 648.0625 478.875 642.8125 477.25 637.3125 477.25 C 628.1875 477.25 621.0625 481.625 616.0625 484.625 L 616.4375 446.125 L 615.6875 445.25 L 594.3125 448.625 L 593.6875 449.375 C 594.8125 461.5 595.0625 466 595.3125 482.125 C 595.5625 492.25 595.6875 502.375 595.6875 512.5 C 595.6875 524.875 595.4375 532.25 595.1875 544.5 L 595.8125 545.375 C 605.0625 544.875 606.9375 544.875 617.0625 544.875 L 617.8125 544.125 C 616.9375 525.375 616.8125 519.75 616.6875 497.625 C 619.0625 496 622.0625 493.875 626.3125 493.875 C 633.1875 493.875 633.6875 501 634.1875 506 C 634.4375 509.875 634.5625 527.625 634.5625 532.25 C 634.5625 536.375 634.4375 540.375 634.4375 544.5 L 635.0625 545.375 C 644.0625 544.875 646.0625 544.875 655.6875 544.875 Z M 663.1875 545 "/>
<path fill-rule="nonzero" fill="rgb(34.901961%, 14.901961%, 14.901961%)" fill-opacity="1" d="M 140.5 672.625 C 137.625 674.875 131.25 679.625 120.875 679.625 C 106.625 679.625 96.625 669 96.625 651.25 C 96.625 640.5 100.375 621.625 120.75 621.625 C 130.125 621.625 135.25 625.25 138.375 627.625 L 139.5 627.375 L 140.625 610.125 L 140.125 609.5 C 135.625 607.75 128 604.875 117 604.875 C 84.625 604.875 73.375 629.875 73.375 651.75 C 73.375 675.75 88 696.875 118.5 696.875 C 129 696.875 135.875 694.125 139.875 692.5 L 140.5 691.75 L 141.375 673.125 Z M 206.75 657.75 C 206.875 646.5 206.875 641.625 203.625 636.375 C 201.125 632.375 196.125 627.375 180.125 627.375 C 169.375 627.375 162.75 629.375 155.625 631.5 L 154.875 632.5 L 154.25 646.125 L 155.25 646.625 C 159.625 644.875 167.75 641.625 176.125 641.625 C 180.75 641.625 182.625 642.375 184.25 644 C 185.5 645.25 185.875 647.5 185.875 649.375 C 170.875 651.375 163.875 652.75 156.375 657.375 C 149.375 661.75 147 668.875 147 674.5 C 147 687.875 156.625 696.5 168.875 696.5 C 178.25 696.5 183.625 692 186.25 689.875 L 186.25 694.5 L 187 695.375 C 196 695 198.75 694.875 206.875 695 L 207.5 694.125 C 206.625 681.875 206.625 678.75 206.625 667 L 206.75 657.75 M 186.125 677.625 C 183.5 679.125 180.125 680.875 176 680.875 C 171.5 680.875 167.75 678.5 167.75 673.25 C 167.75 665 177.625 663.625 186.125 662.5 Z M 257.5 648.625 L 261 628.25 L 260.25 627.375 C 259.375 627.375 258.5 627.25 257.625 627.25 C 252.5 627.25 246.75 630.125 242.75 639.375 L 243.125 627.875 L 242.125 626.875 C 232.875 628.875 230.5 629.25 221.375 630.625 L 220.625 631.375 C 221.375 640.75 221.75 646.375 221.75 663.75 C 221.75 674 221.625 684.25 221.375 694.625 L 222.125 695.375 C 231.375 695 233.375 694.875 243.375 695 L 244 694.125 C 243.5 684 242.75 669.875 242.75 661.25 C 242.75 655.625 242.75 647.375 251.25 647.375 C 253.375 647.375 254.625 648.125 256.375 649.125 Z M 290.25 694.125 C 289.625 679.75 289 666.625 289 627.125 C 289 615.25 289.125 609.625 289.625 596.125 L 288.75 595.25 L 267.375 598.625 L 266.875 599.375 C 268.125 614.625 268.25 618.75 268.5 639 C 268.625 646.375 268.625 653.75 268.625 661.125 C 268.625 674.625 268.375 682.125 267.875 694.5 L 268.625 695.375 C 277 695 280.375 694.875 289.5 695 Z M 331 651.875 C 326.75 650.375 323.375 649 323.375 645.5 C 323.375 644 324.375 639.875 332.125 639.875 C 339.75 639.875 344.625 643.125 347.75 645.125 L 348.875 644.75 L 350.125 631.125 L 349.5 630.375 C 343.625 628.75 338.5 627.25 330.375 627.25 C 324.25 627.25 312 627.75 305.5 637.125 C 303.875 639.375 302.125 643.125 302.125 648.125 C 302.125 661.5 312.5 665.5 318.375 667.75 L 323.125 669.5 C 326.5 670.625 332 672.5 332 677 C 332 680.125 329.125 683.5 322.125 683.5 C 318.625 683.5 313.5 682.375 308.875 680 C 306.75 678.875 305.75 678 303.875 676.5 L 302.75 677 C 302.5 683.5 302.375 684.875 301.875 691.125 L 302.5 692.25 C 308.625 694.5 313.875 696.5 323 696.5 C 332.5 696.5 351.25 694.75 353.5 676.875 C 353.625 675.875 353.625 675 353.625 674.125 C 353.625 660.375 344 656.75 337.125 654.125 Z M 373.625 695.25 L 376.125 695.25 C 396.125 695.25 409 694.25 418.5 684.125 C 427.375 674.625 428.25 663.375 428.25 658.125 C 428.25 640.75 418.25 627.25 401.25 627.25 C 393 627.25 388.625 630 385.125 632.25 L 385.875 596 L 384.875 595.25 L 364.125 598.5 L 363.375 599.375 C 364.375 609.875 364.75 614.125 364.75 639.25 C 364.75 650 364.625 671.25 364.5 694.5 L 365.375 695.375 L 373.625 695.25 M 385.625 644.625 C 388.125 643.375 390.5 642.125 393.75 642.125 C 402 642.125 406.75 649.5 406.75 661 C 406.75 670 402.75 675.875 399.375 678.25 C 395.25 681.125 389.875 681.25 385.625 681.375 Z M 495.75 657.75 C 495.875 646.5 495.875 641.625 492.625 636.375 C 490.125 632.375 485.125 627.375 469.125 627.375 C 458.375 627.375 451.75 629.375 444.625 631.5 L 443.875 632.5 L 443.25 646.125 L 444.25 646.625 C 448.625 644.875 456.75 641.625 465.125 641.625 C 469.75 641.625 471.625 642.375 473.25 644 C 474.5 645.25 474.875 647.5 474.875 649.375 C 459.875 651.375 452.875 652.75 445.375 657.375 C 438.375 661.75 436 668.875 436 674.5 C 436 687.875 445.625 696.5 457.875 696.5 C 467.25 696.5 472.625 692 475.25 689.875 L 475.25 694.5 L 476 695.375 C 485 695 487.75 694.875 495.875 695 L 496.5 694.125 C 495.625 681.875 495.625 678.75 495.625 667 L 495.75 657.75 M 475.125 677.625 C 472.5 679.125 469.125 680.875 465 680.875 C 460.5 680.875 456.75 678.5 456.75 673.25 C 456.75 665 466.625 663.625 475.125 662.5 Z M 571.625 694.25 C 571.125 683 570.75 675.5 570.75 659.125 C 570.75 626.125 571.25 612.5 571.75 596 L 570.875 595.25 L 550.25 598.5 L 549.625 599.25 C 550.375 611 550.5 614.125 550.375 628.375 C 541 628.125 529.25 627.875 519.75 635.375 C 511 642.125 507.375 652.5 507.375 665.375 C 507.375 675.125 510 684.875 517.375 691 C 522.875 695.5 529.625 696.5 533.75 696.5 C 542.625 696.5 547.25 692.375 550.25 689.75 L 550 694.625 L 550.625 695.375 C 559.25 695 561.625 695 571 695 L 571.625 694.25 M 550.375 643.375 C 550.5 660 550.375 663.25 550 678.375 C 547.5 679.875 545 681.375 541.5 681.375 C 529.375 681.375 529.375 665.875 529.375 663.375 C 529.375 653.75 532.125 643 546.125 643 C 547.5 643 548.625 643.125 550.375 643.375 Z M 658.5 641.25 C 648 636.875 642.5 634.625 642.5 629 C 642.5 625.125 646.125 620.25 654.375 620.25 C 663.875 620.25 669.5 624.125 674.125 627.25 L 675.25 626.75 L 676.25 610.375 L 675.625 609.5 C 670.25 607.25 664.625 604.875 652.5 604.875 C 629 604.875 620.875 618.125 620.875 631.5 C 620.875 646.625 632.625 652.125 639.625 655.5 L 643.75 657.375 C 652.375 661 659 664.125 659 670.75 C 659 675.5 654.875 681.125 644 681.125 C 632.625 681.125 626.25 676.125 622.625 673.25 L 621.375 673.625 L 620.5 691.25 L 621.25 692.25 C 622.625 692.75 624 693.375 625.375 693.75 C 628.25 694.75 635.625 696.875 645 696.875 C 648.75 696.875 658.25 696.5 665.75 693 C 676.25 687.875 680.75 678.375 680.75 667.75 C 680.75 660.625 678 653 671.375 647.875 C 668 645.375 664.75 643.875 661.75 642.5 Z M 727.625 680.625 C 725.5 681.25 724 681.75 721.875 681.75 C 715.5 681.75 715 677.75 714.75 675.875 C 714.375 672.625 714.375 665.75 714.5 660.75 L 714.75 643.125 L 726 643.625 L 726.75 642.875 L 728 629.5 L 727.25 628.75 L 714.75 628.75 L 715.125 607.75 L 714.25 607 C 705.75 609.5 703.5 610.125 694.625 612.375 L 694.125 613.25 L 694.25 628.875 L 687.5 628.625 L 686.75 629.25 L 685.625 642.625 L 686.375 643.375 L 694.25 643.125 L 693.875 663 C 693.75 666.125 693.625 669.25 693.625 672.5 C 693.625 684 693.875 696.375 713.375 696.375 C 718.25 696.375 722.125 695.625 726.5 694.875 L 727.375 694 L 728.625 681.125 Z M 792.5 657.75 C 792.625 646.5 792.625 641.625 789.375 636.375 C 786.875 632.375 781.875 627.375 765.875 627.375 C 755.125 627.375 748.5 629.375 741.375 631.5 L 740.625 632.5 L 740 646.125 L 741 646.625 C 745.375 644.875 753.5 641.625 761.875 641.625 C 766.5 641.625 768.375 642.375 770 644 C 771.25 645.25 771.625 647.5 771.625 649.375 C 756.625 651.375 749.625 652.75 742.125 657.375 C 735.125 661.75 732.75 668.875 732.75 674.5 C 732.75 687.875 742.375 696.5 754.625 696.5 C 764 696.5 769.375 692 772 689.875 L 772 694.5 L 772.75 695.375 C 781.75 695 784.5 694.875 792.625 695 L 793.25 694.125 C 792.375 681.875 792.375 678.75 792.375 667 L 792.5 657.75 M 771.875 677.625 C 769.25 679.125 765.875 680.875 761.75 680.875 C 757.25 680.875 753.5 678.5 753.5 673.25 C 753.5 665 763.375 663.625 771.875 662.5 Z M 842.125 680.625 C 840 681.25 838.5 681.75 836.375 681.75 C 830 681.75 829.5 677.75 829.25 675.875 C 828.875 672.625 828.875 665.75 829 660.75 L 829.25 643.125 L 840.5 643.625 L 841.25 642.875 L 842.5 629.5 L 841.75 628.75 L 829.25 628.75 L 829.625 607.75 L 828.75 607 C 820.25 609.5 818 610.125 809.125 612.375 L 808.625 613.25 L 808.75 628.875 L 802 628.625 L 801.25 629.25 L 800.125 642.625 L 800.875 643.375 L 808.75 643.125 L 808.375 663 C 808.25 666.125 808.125 669.25 808.125 672.5 C 808.125 684 808.375 696.375 827.875 696.375 C 832.75 696.375 836.625 695.625 841 694.875 L 841.875 694 L 843.125 681.125 Z M 906.875 676.5 C 902.125 679 896.5 681.875 887.375 681.875 C 879.875 681.875 874.75 679.5 871.75 675 C 869.875 672.375 869.5 669.875 869 667.375 L 909.375 666.625 L 910.125 665.75 C 910 659.625 909.875 653.375 908.125 647.125 C 903.75 632.375 894.125 629.375 889.875 628.375 C 886.75 627.5 883.875 627.25 881 627.25 C 861.375 627.25 848.375 640.125 848.375 661.75 C 848.375 667.625 849.375 673.75 851.375 678.125 C 858.625 695 875.625 696.5 884.625 696.5 C 895 696.5 899.5 694.625 906.125 692 L 906.875 691 L 907.75 676.875 L 906.875 676.5 M 869 654.125 C 869.375 650.25 870.25 645 875 642 C 876.5 641 878.25 640.625 880 640.625 C 884.125 640.625 886.625 642.75 888 645 C 889.75 647.75 889.875 650.75 889.875 653.625 Z M 914.125 695 "/>
<path fill-rule="nonzero" fill="rgb(34.901961%, 14.901961%, 14.901961%)" fill-opacity="1" d="M 346.25 845 C 357.875 845.25 372.25 845.5 381.625 839 C 389.875 833.125 392.125 824.875 392.125 817.875 C 392.125 809.875 388.75 802.5 381.625 799 C 379.25 797.75 376.5 797.25 373.875 796.75 C 378.125 795 383.125 792.75 386.375 786.125 C 387.75 783.25 388.375 780.25 388.375 777.375 C 388.375 773.375 387.375 767.875 383.375 763.375 C 378.125 757.75 370 756.25 357.75 756.25 C 353.5 756.25 345.875 756.375 341.625 756.5 L 324.125 756.75 L 323.375 757.5 C 323.875 769.5 324 774.125 324 791.375 C 324 809.125 323.875 826.75 323.625 844.5 L 324.5 845 L 346.25 845 M 345.375 807 C 354.875 806.75 360.375 806.75 364 808.875 C 367.625 811.125 369 815.125 369 819.125 C 369 824.75 365.875 828.25 361.25 829.875 C 357.5 831.125 350.75 831.125 345.375 831 L 345.375 807 M 345.375 770.25 C 348 770.25 351.5 770.125 353.625 770.125 C 360.375 770.125 366.5 772.5 366.5 780.625 C 366.5 787.25 361.625 790 360.125 790.75 C 357 792.125 350.375 792.125 345.375 792.125 Z M 459.25 826.5 C 454.5 829 448.875 831.875 439.75 831.875 C 432.25 831.875 427.125 829.5 424.125 825 C 422.25 822.375 421.875 819.875 421.375 817.375 L 461.75 816.625 L 462.5 815.75 C 462.375 809.625 462.25 803.375 460.5 797.125 C 456.125 782.375 446.5 779.375 442.25 778.375 C 439.125 777.5 436.25 777.25 433.375 777.25 C 413.75 777.25 400.75 790.125 400.75 811.75 C 400.75 817.625 401.75 823.75 403.75 828.125 C 411 845 428 846.5 437 846.5 C 447.375 846.5 451.875 844.625 458.5 842 L 459.25 841 L 460.125 826.875 L 459.25 826.5 M 421.375 804.125 C 421.75 800.25 422.625 795 427.375 792 C 428.875 791 430.625 790.625 432.375 790.625 C 436.5 790.625 439 792.75 440.375 795 C 442.125 797.75 442.25 800.75 442.25 803.625 Z M 529.625 807.75 C 529.75 796.5 529.75 791.625 526.5 786.375 C 524 782.375 519 777.375 503 777.375 C 492.25 777.375 485.625 779.375 478.5 781.5 L 477.75 782.5 L 477.125 796.125 L 478.125 796.625 C 482.5 794.875 490.625 791.625 499 791.625 C 503.625 791.625 505.5 792.375 507.125 794 C 508.375 795.25 508.75 797.5 508.75 799.375 C 493.75 801.375 486.75 802.75 479.25 807.375 C 472.25 811.75 469.875 818.875 469.875 824.5 C 469.875 837.875 479.5 846.5 491.75 846.5 C 501.125 846.5 506.5 842 509.125 839.875 L 509.125 844.5 L 509.875 845.375 C 518.875 845 521.625 844.875 529.75 845 L 530.375 844.125 C 529.5 831.875 529.5 828.75 529.5 817 L 529.625 807.75 M 509 827.625 C 506.375 829.125 503 830.875 498.875 830.875 C 494.375 830.875 490.625 828.5 490.625 823.25 C 490.625 815 500.5 813.625 509 812.5 Z M 593.125 827 C 589.75 829 586.5 831 580.125 831 C 566 831 563.125 819.25 563.125 811.75 C 563.125 802.625 567.125 792.125 579.25 792.125 C 584.75 792.125 587.75 794.125 591.5 796.625 L 592.75 796.25 C 593.25 789.625 593.375 787.875 594.375 781.25 L 593.75 780.5 C 588.25 778.75 583.5 777.25 576.25 777.25 C 546.875 777.25 541.125 799.5 541.125 812.25 C 541.125 826.625 548.625 846.125 576.75 846.125 C 583.375 846.125 587.625 844.875 592.875 843.375 L 593.625 842.625 L 594.125 827.625 Z M 665.375 844.125 C 664.875 833.875 664.75 830.375 664.5 817.375 L 664.5 808 C 664.375 796.125 664.25 789.25 660.625 784 C 657 778.875 651.75 777.25 646.25 777.25 C 637.125 777.25 630 781.625 625 784.625 L 625.375 746.125 L 624.625 745.25 L 603.25 748.625 L 602.625 749.375 C 603.75 761.5 604 766 604.25 782.125 C 604.5 792.25 604.625 802.375 604.625 812.5 C 604.625 824.875 604.375 832.25 604.125 844.5 L 604.75 845.375 C 614 844.875 615.875 844.875 626 844.875 L 626.75 844.125 C 625.875 825.375 625.75 819.75 625.625 797.625 C 628 796 631 793.875 635.25 793.875 C 642.125 793.875 642.625 801 643.125 806 C 643.375 809.875 643.5 827.625 643.5 832.25 C 643.5 836.375 643.375 840.375 643.375 844.5 L 644 845.375 C 653 844.875 655 844.875 664.625 844.875 Z M 672.125 845 "/>
</svg>
