<?xml version="1.0" encoding="UTF-8"?>
<svg xmlns="http://www.w3.org/2000/svg" xmlns:xlink="http://www.w3.org/1999/xlink" width="975" height="1300" viewBox="0 0 975 1300">
<path fill-rule="nonzero" fill="rgb(34.901961%, 14.901961%, 14.901961%)" fill-opacity="1" d="M 165.4375 468.25 C 163.3125 465.5 160.8125 463.125 157.9375 461.25 C 151.5625 457 142.8125 454.875 134.0625 454.875 C 126.3125 454.875 118.4375 456.25 111.6875 460.125 C 96.4375 468.875 93.6875 483.375 92.6875 488.625 C 91.9375 492.875 91.5625 497.125 91.5625 501.375 C 91.5625 509.875 92.5625 525.875 104.3125 536.75 C 113.8125 545.625 126.8125 546.875 133.1875 546.875 C 142.8125 546.875 152.5625 544.625 159.9375 538.5 C 172.3125 528.25 174.8125 511.25 174.8125 500.625 C 174.8125 481 168.5625 472.125 165.4375 468.25 M 145.6875 476.25 C 148.1875 479.125 149.3125 482.75 150.0625 486.375 C 151.0625 491.125 151.3125 495.625 151.4375 498.75 C 151.9375 517.5 147.9375 531 133.4375 531 C 116.0625 531 114.9375 510.75 114.9375 499.5 C 114.9375 484.5 118.5625 476.75 124.4375 473 C 127.8125 471 131.1875 470.5 133.5625 470.5 C 138.3125 470.5 142.6875 472.625 145.6875 476.25 Z M 209.5625 544.125 C 208.9375 529.75 208.3125 516.625 208.3125 477.125 C 208.3125 465.25 208.4375 459.625 208.9375 446.125 L 208.0625 445.25 L 186.6875 448.625 L 186.1875 449.375 C 187.4375 464.625 187.5625 468.75 187.8125 489 C 187.9375 496.375 187.9375 503.75 187.9375 511.125 C 187.9375 524.625 187.6875 532.125 187.1875 544.5 L 187.9375 545.375 C 196.3125 545 199.6875 544.875 208.8125 545 Z M 285.3125 544.25 C 284.8125 533 284.4375 525.5 284.4375 509.125 C 284.4375 476.125 284.9375 462.5 285.4375 446 L 284.5625 445.25 L 263.9375 448.5 L 263.3125 449.25 C 264.0625 461 264.1875 464.125 264.0625 478.375 C 254.6875 478.125 242.9375 477.875 233.4375 485.375 C 224.6875 492.125 221.0625 502.5 221.0625 515.375 C 221.0625 525.125 223.6875 534.875 231.0625 541 C 236.5625 545.5 243.3125 546.5 247.4375 546.5 C 256.3125 546.5 260.9375 542.375 263.9375 539.75 L 263.6875 544.625 L 264.3125 545.375 C 272.9375 545 275.3125 545 284.6875 545 L 285.3125 544.25 M 264.0625 493.375 C 264.1875 510 264.0625 513.25 263.6875 528.375 C 261.1875 529.875 258.6875 531.375 255.1875 531.375 C 243.0625 531.375 243.0625 515.875 243.0625 513.375 C 243.0625 503.75 245.8125 493 259.8125 493 C 261.1875 493 262.3125 493.125 264.0625 493.375 Z M 391.5625 473.25 L 392.3125 472.625 L 393.1875 457 L 392.5625 456.625 L 330.6875 456.625 L 329.8125 457.375 L 328.9375 472.75 L 329.5625 473.5 L 349.9375 473 C 350.0625 505.75 350.0625 513.625 349.0625 544.625 L 349.8125 545.375 C 359.0625 545 361.5625 544.875 371.9375 544.875 L 372.6875 544.125 C 372.0625 526.625 371.8125 509.125 371.8125 491.5 C 371.8125 484.625 371.9375 480.75 372.1875 472.75 Z M 464.8125 511.75 C 464.8125 506.875 464.8125 486.625 447.3125 479.75 C 441.8125 477.625 435.3125 477.375 432.0625 477.375 C 410.3125 477.375 398.0625 489 398.0625 512 C 398.0625 520 399.3125 528.125 403.9375 534.875 C 407.1875 539.75 413.3125 546.5 431.1875 546.5 C 457.6875 546.5 464.8125 530.5 464.8125 511.75 M 443.1875 511.625 C 443.1875 521.875 441.8125 533.25 431.4375 533.25 C 428.1875 533.25 425.9375 531.75 424.4375 530.375 C 422.3125 528.25 419.9375 524 419.9375 511.875 C 419.9375 508.25 419.9375 500.25 422.4375 495.875 C 424.3125 492.5 427.5625 490.25 431.5625 490.25 C 435.0625 490.25 437.9375 492.125 439.5625 494.125 C 442.5625 497.75 443.1875 504.875 443.1875 511.625 Z M 553.9375 544.125 C 558.9375 524.75 559.8125 521.75 567.3125 494.875 C 568.8125 489.75 570.1875 484.5 571.5625 479.375 L 570.8125 478.375 L 554.5625 478.75 L 553.6875 479.625 L 550.0625 498.375 L 546.5625 513.5 L 544.1875 525 L 542.0625 513.875 L 539.3125 500.875 L 534.9375 479.25 L 534.1875 478.375 L 510.1875 478.75 L 509.3125 479.625 L 505.1875 500.125 L 502.1875 513.875 L 499.8125 525.375 L 497.4375 513 L 494.4375 499.5 L 490.1875 478.75 L 489.4375 478.125 L 469.1875 479.625 L 468.4375 480.625 C 480.1875 521.875 482.0625 529.25 485.5625 544.625 L 486.4375 545.375 C 495.0625 545 498.1875 544.875 509.6875 545 L 510.4375 544.125 L 513.6875 528.875 L 517.1875 513.75 L 520.3125 498.625 L 522.1875 508.125 L 524.0625 517.375 L 529.3125 544.5 L 530.1875 545.375 C 539.4375 545 543.1875 544.875 553.1875 545 Z M 639.4375 544.125 C 638.8125 533.125 638.8125 529.625 638.5625 517.375 L 638.5625 507.625 C 638.4375 495.625 638.3125 489.875 635.1875 484.75 C 631.3125 478.25 624.1875 477.25 619.6875 477.25 C 612.0625 477.25 605.4375 481.25 599.6875 484.625 L 599.9375 477.75 L 598.6875 476.875 C 589.0625 478.875 586.9375 479.25 577.5625 480.5 L 576.8125 481.375 C 577.8125 492.25 578.5625 500.125 578.5625 520.5 C 578.5625 528.5 578.4375 536.5 578.3125 544.5 L 579.0625 545.25 C 588.0625 544.875 589.9375 544.875 599.9375 544.875 L 600.6875 544.125 C 599.9375 524.875 599.8125 520 599.6875 497.625 C 602.3125 495.875 605.3125 493.75 609.3125 493.75 C 616.1875 493.75 616.8125 501.125 617.1875 505.625 C 617.4375 509.75 617.5625 526.875 617.5625 531.625 C 617.5625 535.875 617.4375 540.25 617.4375 544.5 L 618.1875 545.25 C 626.4375 545 628.5625 544.875 638.5625 544.875 Z M 726.3125 491.25 C 715.8125 486.875 710.3125 484.625 710.3125 479 C 710.3125 475.125 713.9375 470.25 722.1875 470.25 C 731.6875 470.25 737.3125 474.125 741.9375 477.25 L 743.0625 476.75 L 744.0625 460.375 L 743.4375 459.5 C 738.0625 457.25 732.4375 454.875 720.3125 454.875 C 696.8125 454.875 688.6875 468.125 688.6875 481.5 C 688.6875 496.625 700.4375 502.125 707.4375 505.5 L 711.5625 507.375 C 720.1875 511 726.8125 514.125 726.8125 520.75 C 726.8125 525.5 722.6875 531.125 711.8125 531.125 C 700.4375 531.125 694.0625 526.125 690.4375 523.25 L 689.1875 523.625 L 688.3125 541.25 L 689.0625 542.25 C 690.4375 542.75 691.8125 543.375 693.1875 543.75 C 696.0625 544.75 703.4375 546.875 712.8125 546.875 C 716.5625 546.875 726.0625 546.5 733.5625 543 C 744.0625 537.875 748.5625 528.375 748.5625 517.75 C 748.5625 510.625 745.8125 503 739.1875 497.875 C 735.8125 495.375 732.5625 493.875 729.5625 492.5 Z M 816.0625 507.75 C 816.1875 496.5 816.1875 491.625 812.9375 486.375 C 810.4375 482.375 805.4375 477.375 789.4375 477.375 C 778.6875 477.375 772.0625 479.375 764.9375 481.5 L 764.1875 482.5 L 763.5625 496.125 L 764.5625 496.625 C 768.9375 494.875 777.0625 491.625 785.4375 491.625 C 790.0625 491.625 791.9375 492.375 793.5625 494 C 794.8125 495.25 795.1875 497.5 795.1875 499.375 C 780.1875 501.375 773.1875 502.75 765.6875 507.375 C 758.6875 511.75 756.3125 518.875 756.3125 524.5 C 756.3125 537.875 765.9375 546.5 778.1875 546.5 C 787.5625 546.5 792.9375 542 795.5625 539.875 L 795.5625 544.5 L 796.3125 545.375 C 805.3125 545 808.0625 544.875 816.1875 545 L 816.8125 544.125 C 815.9375 531.875 815.9375 528.75 815.9375 517 L 816.0625 507.75 M 795.4375 527.625 C 792.8125 529.125 789.4375 530.875 785.3125 530.875 C 780.8125 530.875 777.0625 528.5 777.0625 523.25 C 777.0625 515 786.9375 513.625 795.4375 512.5 Z M 891.9375 544.125 C 891.3125 533.125 891.3125 529.625 891.0625 517.375 L 891.0625 507.625 C 890.9375 495.625 890.8125 489.875 887.6875 484.75 C 883.8125 478.25 876.6875 477.25 872.1875 477.25 C 864.5625 477.25 857.9375 481.25 852.1875 484.625 L 852.4375 477.75 L 851.1875 476.875 C 841.5625 478.875 839.4375 479.25 830.0625 480.5 L 829.3125 481.375 C 830.3125 492.25 831.0625 500.125 831.0625 520.5 C 831.0625 528.5 830.9375 536.5 830.8125 544.5 L 831.5625 545.25 C 840.5625 544.875 842.4375 544.875 852.4375 544.875 L 853.1875 544.125 C 852.4375 524.875 852.3125 520 852.1875 497.625 C 854.8125 495.875 857.8125 493.75 861.8125 493.75 C 868.6875 493.75 869.3125 501.125 869.6875 505.625 C 869.9375 509.75 870.0625 526.875 870.0625 531.625 C 870.0625 535.875 869.9375 540.25 869.9375 544.5 L 870.6875 545.25 C 878.9375 545 881.0625 544.875 891.0625 544.875 Z M 898.6875 545 "/>
<path fill-rule="nonzero" fill="rgb(34.901961%, 14.901961%, 14.901961%)" fill-opacity="1" d="M 178.5625 695 C 181.8125 695.125 185.1875 695.125 188.4375 695.125 C 202.4375 695.125 225.0625 694.625 234.1875 672.375 C 237.5625 664.125 238.3125 654.125 238.3125 648.5 C 238.3125 636.75 235.6875 627.75 232.5625 622.125 C 224.0625 606.625 207.9375 606.125 193.6875 606.125 C 187.9375 606.125 182.1875 606.375 176.4375 606.625 L 163.1875 606.75 L 162.4375 607.5 C 162.9375 619.5 163.4375 630 163.4375 664.625 C 163.4375 676.875 163.3125 684.25 163.0625 694.5 L 163.8125 695 L 178.5625 695 M 185.4375 678.875 C 185.1875 666.625 185.0625 655 185.0625 643 C 185.0625 636.25 185.0625 629.5 185.1875 622.75 C 187.6875 622.625 190.3125 622.5 192.8125 622.5 C 200.4375 622.5 215.3125 622.5 215.3125 649.125 C 215.3125 664.75 209.4375 671.75 206.4375 674.25 C 200.8125 678.875 192.1875 678.875 185.4375 678.875 Z M 273.6875 694.125 C 273.0625 684.5 272.5625 677.125 272.5625 659.875 C 272.5625 649.25 272.8125 638.5 272.9375 627.875 L 272.0625 626.875 L 250.5625 630.625 L 249.8125 631.375 C 250.8125 640.875 251.1875 645.25 251.1875 663 C 251.1875 676.625 250.8125 684.25 250.4375 694.5 L 251.1875 695.375 C 260.1875 695 262.6875 694.875 272.8125 695 L 273.6875 694.125 M 271.6875 614.875 L 272.0625 597.875 L 271.3125 597.125 L 250.9375 599.625 L 250.1875 600.5 C 250.4375 605 250.5625 607.625 250.5625 610.625 C 250.5625 613 250.5625 615.5 250.4375 617.875 L 251.3125 618.625 C 259.8125 617.125 262.1875 616.875 271.0625 615.75 Z M 343.0625 676.5 C 338.3125 679 332.6875 681.875 323.5625 681.875 C 316.0625 681.875 310.9375 679.5 307.9375 675 C 306.0625 672.375 305.6875 669.875 305.1875 667.375 L 345.5625 666.625 L 346.3125 665.75 C 346.1875 659.625 346.0625 653.375 344.3125 647.125 C 339.9375 632.375 330.3125 629.375 326.0625 628.375 C 322.9375 627.5 320.0625 627.25 317.1875 627.25 C 297.5625 627.25 284.5625 640.125 284.5625 661.75 C 284.5625 667.625 285.5625 673.75 287.5625 678.125 C 294.8125 695 311.8125 696.5 320.8125 696.5 C 331.1875 696.5 335.6875 694.625 342.3125 692 L 343.0625 691 L 343.9375 676.875 L 343.0625 676.5 M 305.1875 654.125 C 305.5625 650.25 306.4375 645 311.1875 642 C 312.6875 641 314.4375 640.625 316.1875 640.625 C 320.3125 640.625 322.8125 642.75 324.1875 645 C 325.9375 647.75 326.0625 650.75 326.0625 653.625 Z M 380.8125 673.875 C 384.8125 674 388.8125 674.25 394.8125 672.25 C 401.3125 670 410.8125 664.625 410.8125 652.5 C 410.8125 646.5 409.0625 644 407.4375 641.625 L 416.0625 642.125 L 416.8125 641.5 L 417.6875 629 L 416.9375 628.375 C 407.3125 628.75 404.6875 628.875 396.8125 628.75 L 391.0625 628.625 C 382.1875 628.375 370.3125 628.125 362.1875 634.875 C 359.4375 637 354.1875 642.375 354.1875 651.75 C 354.1875 656.75 355.5625 660.75 357.8125 663.875 C 360.5625 667.75 363.0625 669.125 366.1875 670.875 C 362.6875 677.625 360.8125 681 357.9375 686.125 L 357.9375 687.25 L 363.1875 691 C 359.4375 693.875 353.5625 698.625 353.5625 706.75 C 353.5625 712.5 356.6875 717.5 361.3125 720.875 C 368.3125 725.875 377.8125 726.125 382.6875 726.125 C 405.5625 726.125 416.0625 714.625 416.0625 702.5 C 416.0625 686.75 402.3125 683.75 394.1875 681.875 L 391.1875 681.375 C 385.0625 680.375 383.6875 680 378.8125 678.25 L 380.8125 673.875 M 391.0625 651.375 C 390.9375 661.5 384.8125 662.375 383.0625 662.375 C 382.0625 662.375 377.6875 662.125 375.5625 657.125 C 374.4375 654.5 374.4375 651.5 374.4375 650.625 C 374.4375 644.375 378.1875 640.375 382.8125 640.375 C 388.5625 640.375 391.1875 645.875 391.0625 651.375 M 380.4375 698 C 391.5625 700.875 391.6875 700.875 393.1875 702.125 C 394.4375 703 395.6875 704.375 395.6875 707 C 395.6875 710.75 392.5625 714.625 384.3125 714.625 C 375.0625 714.625 371.9375 709.375 371.9375 705 C 371.9375 700.875 374.0625 698.5 375.5625 696.75 Z M 489.1875 661.75 C 489.1875 656.875 489.1875 636.625 471.6875 629.75 C 466.1875 627.625 459.6875 627.375 456.4375 627.375 C 434.6875 627.375 422.4375 639 422.4375 662 C 422.4375 670 423.6875 678.125 428.3125 684.875 C 431.5625 689.75 437.6875 696.5 455.5625 696.5 C 482.0625 696.5 489.1875 680.5 489.1875 661.75 M 467.5625 661.625 C 467.5625 671.875 466.1875 683.25 455.8125 683.25 C 452.5625 683.25 450.3125 681.75 448.8125 680.375 C 446.6875 678.25 444.3125 674 444.3125 661.875 C 444.3125 658.25 444.3125 650.25 446.8125 645.875 C 448.6875 642.5 451.9375 640.25 455.9375 640.25 C 459.4375 640.25 462.3125 642.125 463.9375 644.125 C 466.9375 647.75 467.5625 654.875 467.5625 661.625 Z M 573.6875 641.25 C 563.1875 636.875 557.6875 634.625 557.6875 629 C 557.6875 625.125 561.3125 620.25 569.5625 620.25 C 579.0625 620.25 584.6875 624.125 589.3125 627.25 L 590.4375 626.75 L 591.4375 610.375 L 590.8125 609.5 C 585.4375 607.25 579.8125 604.875 567.6875 604.875 C 544.1875 604.875 536.0625 618.125 536.0625 631.5 C 536.0625 646.625 547.8125 652.125 554.8125 655.5 L 558.9375 657.375 C 567.5625 661 574.1875 664.125 574.1875 670.75 C 574.1875 675.5 570.0625 681.125 559.1875 681.125 C 547.8125 681.125 541.4375 676.125 537.8125 673.25 L 536.5625 673.625 L 535.6875 691.25 L 536.4375 692.25 C 537.8125 692.75 539.1875 693.375 540.5625 693.75 C 543.4375 694.75 550.8125 696.875 560.1875 696.875 C 563.9375 696.875 573.4375 696.5 580.9375 693 C 591.4375 687.875 595.9375 678.375 595.9375 667.75 C 595.9375 660.625 593.1875 653 586.5625 647.875 C 583.1875 645.375 579.9375 643.875 576.9375 642.5 Z M 642.8125 680.625 C 640.6875 681.25 639.1875 681.75 637.0625 681.75 C 630.6875 681.75 630.1875 677.75 629.9375 675.875 C 629.5625 672.625 629.5625 665.75 629.6875 660.75 L 629.9375 643.125 L 641.1875 643.625 L 641.9375 642.875 L 643.1875 629.5 L 642.4375 628.75 L 629.9375 628.75 L 630.3125 607.75 L 629.4375 607 C 620.9375 609.5 618.6875 610.125 609.8125 612.375 L 609.3125 613.25 L 609.4375 628.875 L 602.6875 628.625 L 601.9375 629.25 L 600.8125 642.625 L 601.5625 643.375 L 609.4375 643.125 L 609.0625 663 C 608.9375 666.125 608.8125 669.25 608.8125 672.5 C 608.8125 684 609.0625 696.375 628.5625 696.375 C 633.4375 696.375 637.3125 695.625 641.6875 694.875 L 642.5625 694 L 643.8125 681.125 Z M 707.6875 657.75 C 707.8125 646.5 707.8125 641.625 704.5625 636.375 C 702.0625 632.375 697.0625 627.375 681.0625 627.375 C 670.3125 627.375 663.6875 629.375 656.5625 631.5 L 655.8125 632.5 L 655.1875 646.125 L 656.1875 646.625 C 660.5625 644.875 668.6875 641.625 677.0625 641.625 C 681.6875 641.625 683.5625 642.375 685.1875 644 C 686.4375 645.25 686.8125 647.5 686.8125 649.375 C 671.8125 651.375 664.8125 652.75 657.3125 657.375 C 650.3125 661.75 647.9375 668.875 647.9375 674.5 C 647.9375 687.875 657.5625 696.5 669.8125 696.5 C 679.1875 696.5 684.5625 692 687.1875 689.875 L 687.1875 694.5 L 687.9375 695.375 C 696.9375 695 699.6875 694.875 707.8125 695 L 708.4375 694.125 C 707.5625 681.875 707.5625 678.75 707.5625 667 L 707.6875 657.75 M 687.0625 677.625 C 684.4375 679.125 681.0625 680.875 676.9375 680.875 C 672.4375 680.875 668.6875 678.5 668.6875 673.25 C 668.6875 665 678.5625 663.625 687.0625 662.5 Z M 757.3125 680.625 C 755.1875 681.25 753.6875 681.75 751.5625 681.75 C 745.1875 681.75 744.6875 677.75 744.4375 675.875 C 744.0625 672.625 744.0625 665.75 744.1875 660.75 L 744.4375 643.125 L 755.6875 643.625 L 756.4375 642.875 L 757.6875 629.5 L 756.9375 628.75 L 744.4375 628.75 L 744.8125 607.75 L 743.9375 607 C 735.4375 609.5 733.1875 610.125 724.3125 612.375 L 723.8125 613.25 L 723.9375 628.875 L 717.1875 628.625 L 716.4375 629.25 L 715.3125 642.625 L 716.0625 643.375 L 723.9375 643.125 L 723.5625 663 C 723.4375 666.125 723.3125 669.25 723.3125 672.5 C 723.3125 684 723.5625 696.375 743.0625 696.375 C 747.9375 696.375 751.8125 695.625 756.1875 694.875 L 757.0625 694 L 758.3125 681.125 Z M 822.0625 676.5 C 817.3125 679 811.6875 681.875 802.5625 681.875 C 795.0625 681.875 789.9375 679.5 786.9375 675 C 785.0625 672.375 784.6875 669.875 784.1875 667.375 L 824.5625 666.625 L 825.3125 665.75 C 825.1875 659.625 825.0625 653.375 823.3125 647.125 C 818.9375 632.375 809.3125 629.375 805.0625 628.375 C 801.9375 627.5 799.0625 627.25 796.1875 627.25 C 776.5625 627.25 763.5625 640.125 763.5625 661.75 C 763.5625 667.625 764.5625 673.75 766.5625 678.125 C 773.8125 695 790.8125 696.5 799.8125 696.5 C 810.1875 696.5 814.6875 694.625 821.3125 692 L 822.0625 691 L 822.9375 676.875 L 822.0625 676.5 M 784.1875 654.125 C 784.5625 650.25 785.4375 645 790.1875 642 C 791.6875 641 793.4375 640.625 795.1875 640.625 C 799.3125 640.625 801.8125 642.75 803.1875 645 C 804.9375 647.75 805.0625 650.75 805.0625 653.625 Z M 829.3125 695 "/>
<path fill-rule="nonzero" fill="rgb(34.901961%, 14.901961%, 14.901961%)" fill-opacity="1" d="M 196.8125 756.375 C 186.8125 756.75 185.1875 756.75 174.6875 756.75 L 174.0625 757.5 C 174.9375 771.625 174.9375 775.25 175.0625 790 C 169.5625 790.125 164.0625 790.25 158.4375 790.25 C 154.0625 790.25 149.5625 790.125 145.1875 790.125 L 145.4375 757.125 L 144.8125 756.375 C 135.1875 756.75 133.3125 756.75 122.4375 756.75 L 121.6875 757.5 C 122.3125 770.375 123.0625 785.75 123.0625 816.75 C 123.0625 828 122.8125 834.125 122.5625 844.625 L 123.1875 845.375 C 132.3125 845 134.5625 844.875 145.5625 845 L 146.1875 844.25 C 145.4375 828.75 145.3125 824.25 145.1875 806.125 C 150.6875 805.875 155.3125 805.75 160.1875 805.75 C 165.1875 805.75 170.1875 805.875 175.1875 806 C 175.4375 822.875 175.4375 827 174.8125 844.625 L 175.4375 845.375 C 184.8125 845 187.3125 844.875 197.9375 845 L 198.5625 844.25 C 197.5625 823.25 197.1875 802.375 197.1875 781.375 C 197.1875 772.625 197.3125 766.75 197.4375 757.125 Z M 235.6875 844.125 C 235.0625 834.5 234.5625 827.125 234.5625 809.875 C 234.5625 799.25 234.8125 788.5 234.9375 777.875 L 234.0625 776.875 L 212.5625 780.625 L 211.8125 781.375 C 212.8125 790.875 213.1875 795.25 213.1875 813 C 213.1875 826.625 212.8125 834.25 212.4375 844.5 L 213.1875 845.375 C 222.1875 845 224.6875 844.875 234.8125 845 L 235.6875 844.125 M 233.6875 764.875 L 234.0625 747.875 L 233.3125 747.125 L 212.9375 749.625 L 212.1875 750.5 C 212.4375 755 212.5625 757.625 212.5625 760.625 C 212.5625 763 212.5625 765.5 212.4375 767.875 L 213.3125 768.625 C 221.8125 767.125 224.1875 766.875 233.0625 765.75 Z M 275.8125 801.875 C 271.5625 800.375 268.1875 799 268.1875 795.5 C 268.1875 794 269.1875 789.875 276.9375 789.875 C 284.5625 789.875 289.4375 793.125 292.5625 795.125 L 293.6875 794.75 L 294.9375 781.125 L 294.3125 780.375 C 288.4375 778.75 283.3125 777.25 275.1875 777.25 C 269.0625 777.25 256.8125 777.75 250.3125 787.125 C 248.6875 789.375 246.9375 793.125 246.9375 798.125 C 246.9375 811.5 257.3125 815.5 263.1875 817.75 L 267.9375 819.5 C 271.3125 820.625 276.8125 822.5 276.8125 827 C 276.8125 830.125 273.9375 833.5 266.9375 833.5 C 263.4375 833.5 258.3125 832.375 253.6875 830 C 251.5625 828.875 250.5625 828 248.6875 826.5 L 247.5625 827 C 247.3125 833.5 247.1875 834.875 246.6875 841.125 L 247.3125 842.25 C 253.4375 844.5 258.6875 846.5 267.8125 846.5 C 277.3125 846.5 296.0625 844.75 298.3125 826.875 C 298.4375 825.875 298.4375 825 298.4375 824.125 C 298.4375 810.375 288.8125 806.75 281.9375 804.125 Z M 344.4375 830.625 C 342.3125 831.25 340.8125 831.75 338.6875 831.75 C 332.3125 831.75 331.8125 827.75 331.5625 825.875 C 331.1875 822.625 331.1875 815.75 331.3125 810.75 L 331.5625 793.125 L 342.8125 793.625 L 343.5625 792.875 L 344.8125 779.5 L 344.0625 778.75 L 331.5625 778.75 L 331.9375 757.75 L 331.0625 757 C 322.5625 759.5 320.3125 760.125 311.4375 762.375 L 310.9375 763.25 L 311.0625 778.875 L 304.3125 778.625 L 303.5625 779.25 L 302.4375 792.625 L 303.1875 793.375 L 311.0625 793.125 L 310.6875 813 C 310.5625 816.125 310.4375 819.25 310.4375 822.5 C 310.4375 834 310.6875 846.375 330.1875 846.375 C 335.0625 846.375 338.9375 845.625 343.3125 844.875 L 344.1875 844 L 345.4375 831.125 Z M 417.3125 811.75 C 417.3125 806.875 417.3125 786.625 399.8125 779.75 C 394.3125 777.625 387.8125 777.375 384.5625 777.375 C 362.8125 777.375 350.5625 789 350.5625 812 C 350.5625 820 351.8125 828.125 356.4375 834.875 C 359.6875 839.75 365.8125 846.5 383.6875 846.5 C 410.1875 846.5 417.3125 830.5 417.3125 811.75 M 395.6875 811.625 C 395.6875 821.875 394.3125 833.25 383.9375 833.25 C 380.6875 833.25 378.4375 831.75 376.9375 830.375 C 374.8125 828.25 372.4375 824 372.4375 811.875 C 372.4375 808.25 372.4375 800.25 374.9375 795.875 C 376.8125 792.5 380.0625 790.25 384.0625 790.25 C 387.5625 790.25 390.4375 792.125 392.0625 794.125 C 395.0625 797.75 395.6875 804.875 395.6875 811.625 Z M 465.3125 798.625 L 468.8125 778.25 L 468.0625 777.375 C 467.1875 777.375 466.3125 777.25 465.4375 777.25 C 460.3125 777.25 454.5625 780.125 450.5625 789.375 L 450.9375 777.875 L 449.9375 776.875 C 440.6875 778.875 438.3125 779.25 429.1875 780.625 L 428.4375 781.375 C 429.1875 790.75 429.5625 796.375 429.5625 813.75 C 429.5625 824 429.4375 834.25 429.1875 844.625 L 429.9375 845.375 C 439.1875 845 441.1875 844.875 451.1875 845 L 451.8125 844.125 C 451.3125 834 450.5625 819.875 450.5625 811.25 C 450.5625 805.625 450.5625 797.375 459.0625 797.375 C 461.1875 797.375 462.4375 798.125 464.1875 799.125 Z M 498.6875 844.125 C 498.0625 834.5 497.5625 827.125 497.5625 809.875 C 497.5625 799.25 497.8125 788.5 497.9375 777.875 L 497.0625 776.875 L 475.5625 780.625 L 474.8125 781.375 C 475.8125 790.875 476.1875 795.25 476.1875 813 C 476.1875 826.625 475.8125 834.25 475.4375 844.5 L 476.1875 845.375 C 485.1875 845 487.6875 844.875 497.8125 845 L 498.6875 844.125 M 496.6875 764.875 L 497.0625 747.875 L 496.3125 747.125 L 475.9375 749.625 L 475.1875 750.5 C 475.4375 755 475.5625 757.625 475.5625 760.625 C 475.5625 763 475.5625 765.5 475.4375 767.875 L 476.3125 768.625 C 484.8125 767.125 487.1875 766.875 496.0625 765.75 Z M 561.4375 827 C 558.0625 829 554.8125 831 548.4375 831 C 534.3125 831 531.4375 819.25 531.4375 811.75 C 531.4375 802.625 535.4375 792.125 547.5625 792.125 C 553.0625 792.125 556.0625 794.125 559.8125 796.625 L 561.0625 796.25 C 561.5625 789.625 561.6875 787.875 562.6875 781.25 L 562.0625 780.5 C 556.5625 778.75 551.8125 777.25 544.5625 777.25 C 515.1875 777.25 509.4375 799.5 509.4375 812.25 C 509.4375 826.625 516.9375 846.125 545.0625 846.125 C 551.6875 846.125 555.9375 844.875 561.1875 843.375 L 561.9375 842.625 L 562.4375 827.625 Z M 625.6875 756.5 L 609.8125 756.75 L 609.0625 757.5 C 609.5625 773.75 609.9375 784.625 609.9375 799 C 609.9375 814.25 609.5625 829.375 609.1875 844.625 L 609.9375 845.375 C 619.1875 845 621.1875 844.875 631.1875 845 L 631.8125 844.25 C 631.3125 830.625 631.3125 827.5 631.3125 814.75 C 645.3125 814.875 660.3125 814.875 669.3125 803.875 C 672.8125 799.625 675.8125 792.5 675.8125 783.75 C 675.8125 778.375 674.5625 766.5 664.1875 760.625 C 656.6875 756.25 646.0625 756.25 636.6875 756.25 L 625.6875 756.5 M 631.3125 771.625 C 634.0625 771.5 636.6875 771.5 639.4375 771.5 C 650.4375 771.75 653.4375 777.375 653.4375 784.625 C 653.4375 786.375 653.4375 793.625 646.8125 797.25 C 643.4375 799.125 638.8125 799.375 631.3125 799.375 Z M 740.0625 807.75 C 740.1875 796.5 740.1875 791.625 736.9375 786.375 C 734.4375 782.375 729.4375 777.375 713.4375 777.375 C 702.6875 777.375 696.0625 779.375 688.9375 781.5 L 688.1875 782.5 L 687.5625 796.125 L 688.5625 796.625 C 692.9375 794.875 701.0625 791.625 709.4375 791.625 C 714.0625 791.625 715.9375 792.375 717.5625 794 C 718.8125 795.25 719.1875 797.5 719.1875 799.375 C 704.1875 801.375 697.1875 802.75 689.6875 807.375 C 682.6875 811.75 680.3125 818.875 680.3125 824.5 C 680.3125 837.875 689.9375 846.5 702.1875 846.5 C 711.5625 846.5 716.9375 842 719.5625 839.875 L 719.5625 844.5 L 720.3125 845.375 C 729.3125 845 732.0625 844.875 740.1875 845 L 740.8125 844.125 C 739.9375 831.875 739.9375 828.75 739.9375 817 L 740.0625 807.75 M 719.4375 827.625 C 716.8125 829.125 713.4375 830.875 709.3125 830.875 C 704.8125 830.875 701.0625 828.5 701.0625 823.25 C 701.0625 815 710.9375 813.625 719.4375 812.5 Z M 790.8125 798.625 L 794.3125 778.25 L 793.5625 777.375 C 792.6875 777.375 791.8125 777.25 790.9375 777.25 C 785.8125 777.25 780.0625 780.125 776.0625 789.375 L 776.4375 777.875 L 775.4375 776.875 C 766.1875 778.875 763.8125 779.25 754.6875 780.625 L 753.9375 781.375 C 754.6875 790.75 755.0625 796.375 755.0625 813.75 C 755.0625 824 754.9375 834.25 754.6875 844.625 L 755.4375 845.375 C 764.6875 845 766.6875 844.875 776.6875 845 L 777.3125 844.125 C 776.8125 834 776.0625 819.875 776.0625 811.25 C 776.0625 805.625 776.0625 797.375 784.5625 797.375 C 786.6875 797.375 787.9375 798.125 789.6875 799.125 Z M 865.8125 843.375 C 854.0625 823.5 852.8125 821.25 843.3125 804.125 C 851.9375 792.375 852.8125 791.125 861.6875 779.75 L 861.0625 778.5 L 840.6875 778.75 L 839.4375 779.625 C 829.6875 796.5 828.4375 798.5 822.6875 807.125 L 822.6875 793.25 C 822.8125 769.875 822.9375 764.875 823.5625 746 L 822.5625 745.25 L 800.8125 748.5 L 800.0625 749.375 C 800.9375 761.5 801.3125 767.375 801.5625 783.75 C 801.8125 804 801.8125 824.25 801.6875 844.5 L 802.5625 845.375 C 810.9375 845 813.3125 845 822.8125 845 L 823.5625 844.125 L 822.8125 823 L 822.6875 808.625 C 833.5625 828.625 834.9375 831.375 841.3125 844.625 L 842.4375 845.375 L 864.9375 844.5 Z M 864.3125 845 "/>
</svg>
