<?xml version="1.0" encoding="UTF-8"?>
<svg xmlns="http://www.w3.org/2000/svg" xmlns:xlink="http://www.w3.org/1999/xlink" width="975" height="1300" viewBox="0 0 975 1300">
<path fill-rule="nonzero" fill="rgb(34.901961%, 14.901961%, 14.901961%)" fill-opacity="1" d="M 166.4375 620 C 178.0625 620.25 192.4375 620.5 201.8125 614 C 210.0625 608.125 212.3125 599.875 212.3125 592.875 C 212.3125 584.875 208.9375 577.5 201.8125 574 C 199.4375 572.75 196.6875 572.25 194.0625 571.75 C 198.3125 570 203.3125 567.75 206.5625 561.125 C 207.9375 558.25 208.5625 555.25 208.5625 552.375 C 208.5625 548.375 207.5625 542.875 203.5625 538.375 C 198.3125 532.75 190.1875 531.25 177.9375 531.25 C 173.6875 531.25 166.0625 531.375 161.8125 531.5 L 144.3125 531.75 L 143.5625 532.5 C 144.0625 544.5 144.1875 549.125 144.1875 566.375 C 144.1875 584.125 144.0625 601.75 143.8125 619.5 L 144.6875 620 L 166.4375 620 M 165.5625 582 C 175.0625 581.75 180.5625 581.75 184.1875 583.875 C 187.8125 586.125 189.1875 590.125 189.1875 594.125 C 189.1875 599.75 186.0625 603.25 181.4375 604.875 C 177.6875 606.125 170.9375 606.125 165.5625 606 L 165.5625 582 M 165.5625 545.25 C 168.1875 545.25 171.6875 545.125 173.8125 545.125 C 180.5625 545.125 186.6875 547.5 186.6875 555.625 C 186.6875 562.25 181.8125 565 180.3125 565.75 C 177.1875 567.125 170.5625 567.125 165.5625 567.125 Z M 287.5625 586.75 C 287.5625 581.875 287.5625 561.625 270.0625 554.75 C 264.5625 552.625 258.0625 552.375 254.8125 552.375 C 233.0625 552.375 220.8125 564 220.8125 587 C 220.8125 595 222.0625 603.125 226.6875 609.875 C 229.9375 614.75 236.0625 621.5 253.9375 621.5 C 280.4375 621.5 287.5625 605.5 287.5625 586.75 M 265.9375 586.625 C 265.9375 596.875 264.5625 608.25 254.1875 608.25 C 250.9375 608.25 248.6875 606.75 247.1875 605.375 C 245.0625 603.25 242.6875 599 242.6875 586.875 C 242.6875 583.25 242.6875 575.25 245.1875 570.875 C 247.0625 567.5 250.3125 565.25 254.3125 565.25 C 257.8125 565.25 260.6875 567.125 262.3125 569.125 C 265.3125 572.75 265.9375 579.875 265.9375 586.625 Z M 335.5625 573.625 L 339.0625 553.25 L 338.3125 552.375 C 337.4375 552.375 336.5625 552.25 335.6875 552.25 C 330.5625 552.25 324.8125 555.125 320.8125 564.375 L 321.1875 552.875 L 320.1875 551.875 C 310.9375 553.875 308.5625 554.25 299.4375 555.625 L 298.6875 556.375 C 299.4375 565.75 299.8125 571.375 299.8125 588.75 C 299.8125 599 299.6875 609.25 299.4375 619.625 L 300.1875 620.375 C 309.4375 620 311.4375 619.875 321.4375 620 L 322.0625 619.125 C 321.5625 609 320.8125 594.875 320.8125 586.25 C 320.8125 580.625 320.8125 572.375 329.3125 572.375 C 331.4375 572.375 332.6875 573.125 334.4375 574.125 Z M 407.5625 619.25 C 407.0625 608 406.6875 600.5 406.6875 584.125 C 406.6875 551.125 407.1875 537.5 407.6875 521 L 406.8125 520.25 L 386.1875 523.5 L 385.5625 524.25 C 386.3125 536 386.4375 539.125 386.3125 553.375 C 376.9375 553.125 365.1875 552.875 355.6875 560.375 C 346.9375 567.125 343.3125 577.5 343.3125 590.375 C 343.3125 600.125 345.9375 609.875 353.3125 616 C 358.8125 620.5 365.5625 621.5 369.6875 621.5 C 378.5625 621.5 383.1875 617.375 386.1875 614.75 L 385.9375 619.625 L 386.5625 620.375 C 395.1875 620 397.5625 620 406.9375 620 L 407.5625 619.25 M 386.3125 568.375 C 386.4375 585 386.3125 588.25 385.9375 603.375 C 383.4375 604.875 380.9375 606.375 377.4375 606.375 C 365.3125 606.375 365.3125 590.875 365.3125 588.375 C 365.3125 578.75 368.0625 568 382.0625 568 C 383.4375 568 384.5625 568.125 386.3125 568.375 Z M 477.3125 601.5 C 472.5625 604 466.9375 606.875 457.8125 606.875 C 450.3125 606.875 445.1875 604.5 442.1875 600 C 440.3125 597.375 439.9375 594.875 439.4375 592.375 L 479.8125 591.625 L 480.5625 590.75 C 480.4375 584.625 480.3125 578.375 478.5625 572.125 C 474.1875 557.375 464.5625 554.375 460.3125 553.375 C 457.1875 552.5 454.3125 552.25 451.4375 552.25 C 431.8125 552.25 418.8125 565.125 418.8125 586.75 C 418.8125 592.625 419.8125 598.75 421.8125 603.125 C 429.0625 620 446.0625 621.5 455.0625 621.5 C 465.4375 621.5 469.9375 619.625 476.5625 617 L 477.3125 616 L 478.1875 601.875 L 477.3125 601.5 M 439.4375 579.125 C 439.8125 575.25 440.6875 570 445.4375 567 C 446.9375 566 448.6875 565.625 450.4375 565.625 C 454.5625 565.625 457.0625 567.75 458.4375 570 C 460.1875 572.75 460.3125 575.75 460.3125 578.625 Z M 528.1875 573.625 L 531.6875 553.25 L 530.9375 552.375 C 530.0625 552.375 529.1875 552.25 528.3125 552.25 C 523.1875 552.25 517.4375 555.125 513.4375 564.375 L 513.8125 552.875 L 512.8125 551.875 C 503.5625 553.875 501.1875 554.25 492.0625 555.625 L 491.3125 556.375 C 492.0625 565.75 492.4375 571.375 492.4375 588.75 C 492.4375 599 492.3125 609.25 492.0625 619.625 L 492.8125 620.375 C 502.0625 620 504.0625 619.875 514.0625 620 L 514.6875 619.125 C 514.1875 609 513.4375 594.875 513.4375 586.25 C 513.4375 580.625 513.4375 572.375 521.9375 572.375 C 524.0625 572.375 525.3125 573.125 527.0625 574.125 Z M 625.5625 584 L 626.4375 583.25 L 627.4375 568.625 L 626.8125 567.875 L 598.3125 568.875 L 598.3125 548 L 628.9375 548.375 L 629.6875 547.5 L 631.0625 532 L 630.3125 531.375 C 609.6875 531.75 603.0625 531.75 576.0625 531.625 L 575.3125 532.375 C 576.0625 544.625 576.5625 554.5 576.5625 576.625 C 576.5625 591 576.3125 605.375 576.0625 619.75 L 576.6875 620.375 C 585.8125 620 587.9375 620 598.9375 620 L 599.5625 619.25 C 598.6875 604.875 598.5625 600.5 598.1875 584 Z M 663.1875 619.125 C 662.5625 609.5 662.0625 602.125 662.0625 584.875 C 662.0625 574.25 662.3125 563.5 662.4375 552.875 L 661.5625 551.875 L 640.0625 555.625 L 639.3125 556.375 C 640.3125 565.875 640.6875 570.25 640.6875 588 C 640.6875 601.625 640.3125 609.25 639.9375 619.5 L 640.6875 620.375 C 649.6875 620 652.1875 619.875 662.3125 620 L 663.1875 619.125 M 661.1875 539.875 L 661.5625 522.875 L 660.8125 522.125 L 640.4375 524.625 L 639.6875 525.5 C 639.9375 530 640.0625 532.625 640.0625 535.625 C 640.0625 538 640.0625 540.5 639.9375 542.875 L 640.8125 543.625 C 649.3125 542.125 651.6875 541.875 660.5625 540.75 Z M 732.5625 601.5 C 727.8125 604 722.1875 606.875 713.0625 606.875 C 705.5625 606.875 700.4375 604.5 697.4375 600 C 695.5625 597.375 695.1875 594.875 694.6875 592.375 L 735.0625 591.625 L 735.8125 590.75 C 735.6875 584.625 735.5625 578.375 733.8125 572.125 C 729.4375 557.375 719.8125 554.375 715.5625 553.375 C 712.4375 552.5 709.5625 552.25 706.6875 552.25 C 687.0625 552.25 674.0625 565.125 674.0625 586.75 C 674.0625 592.625 675.0625 598.75 677.0625 603.125 C 684.3125 620 701.3125 621.5 710.3125 621.5 C 720.6875 621.5 725.1875 619.625 731.8125 617 L 732.5625 616 L 733.4375 601.875 L 732.5625 601.5 M 694.6875 579.125 C 695.0625 575.25 695.9375 570 700.6875 567 C 702.1875 566 703.9375 565.625 705.6875 565.625 C 709.8125 565.625 712.3125 567.75 713.6875 570 C 715.4375 572.75 715.5625 575.75 715.5625 578.625 Z M 769.3125 619.125 C 768.6875 604.75 768.0625 591.625 768.0625 552.125 C 768.0625 540.25 768.1875 534.625 768.6875 521.125 L 767.8125 520.25 L 746.4375 523.625 L 745.9375 524.375 C 747.1875 539.625 747.3125 543.75 747.5625 564 C 747.6875 571.375 747.6875 578.75 747.6875 586.125 C 747.6875 599.625 747.4375 607.125 746.9375 619.5 L 747.6875 620.375 C 756.0625 620 759.4375 619.875 768.5625 620 Z M 845.0625 619.25 C 844.5625 608 844.1875 600.5 844.1875 584.125 C 844.1875 551.125 844.6875 537.5 845.1875 521 L 844.3125 520.25 L 823.6875 523.5 L 823.0625 524.25 C 823.8125 536 823.9375 539.125 823.8125 553.375 C 814.4375 553.125 802.6875 552.875 793.1875 560.375 C 784.4375 567.125 780.8125 577.5 780.8125 590.375 C 780.8125 600.125 783.4375 609.875 790.8125 616 C 796.3125 620.5 803.0625 621.5 807.1875 621.5 C 816.0625 621.5 820.6875 617.375 823.6875 614.75 L 823.4375 619.625 L 824.0625 620.375 C 832.6875 620 835.0625 620 844.4375 620 L 845.0625 619.25 M 823.8125 568.375 C 823.9375 585 823.8125 588.25 823.4375 603.375 C 820.9375 604.875 818.4375 606.375 814.9375 606.375 C 802.8125 606.375 802.8125 590.875 802.8125 588.375 C 802.8125 578.75 805.5625 568 819.5625 568 C 820.9375 568 822.0625 568.125 823.8125 568.375 Z M 851.8125 620 "/>
<path fill-rule="nonzero" fill="rgb(34.901961%, 14.901961%, 14.901961%)" fill-opacity="1" d="M 232.875 716.25 C 222.375 711.875 216.875 709.625 216.875 704 C 216.875 700.125 220.5 695.25 228.75 695.25 C 238.25 695.25 243.875 699.125 248.5 702.25 L 249.625 701.75 L 250.625 685.375 L 250 684.5 C 244.625 682.25 239 679.875 226.875 679.875 C 203.375 679.875 195.25 693.125 195.25 706.5 C 195.25 721.625 207 727.125 214 730.5 L 218.125 732.375 C 226.75 736 233.375 739.125 233.375 745.75 C 233.375 750.5 229.25 756.125 218.375 756.125 C 207 756.125 200.625 751.125 197 748.25 L 195.75 748.625 L 194.875 766.25 L 195.625 767.25 C 197 767.75 198.375 768.375 199.75 768.75 C 202.625 769.75 210 771.875 219.375 771.875 C 223.125 771.875 232.625 771.5 240.125 768 C 250.625 762.875 255.125 753.375 255.125 742.75 C 255.125 735.625 252.375 728 245.75 722.875 C 242.375 720.375 239.125 718.875 236.125 717.5 Z M 302 755.625 C 299.875 756.25 298.375 756.75 296.25 756.75 C 289.875 756.75 289.375 752.75 289.125 750.875 C 288.75 747.625 288.75 740.75 288.875 735.75 L 289.125 718.125 L 300.375 718.625 L 301.125 717.875 L 302.375 704.5 L 301.625 703.75 L 289.125 703.75 L 289.5 682.75 L 288.625 682 C 280.125 684.5 277.875 685.125 269 687.375 L 268.5 688.25 L 268.625 703.875 L 261.875 703.625 L 261.125 704.25 L 260 717.625 L 260.75 718.375 L 268.625 718.125 L 268.25 738 C 268.125 741.125 268 744.25 268 747.5 C 268 759 268.25 771.375 287.75 771.375 C 292.625 771.375 296.5 770.625 300.875 769.875 L 301.75 769 L 303 756.125 Z M 366.875 732.75 C 367 721.5 367 716.625 363.75 711.375 C 361.25 707.375 356.25 702.375 340.25 702.375 C 329.5 702.375 322.875 704.375 315.75 706.5 L 315 707.5 L 314.375 721.125 L 315.375 721.625 C 319.75 719.875 327.875 716.625 336.25 716.625 C 340.875 716.625 342.75 717.375 344.375 719 C 345.625 720.25 346 722.5 346 724.375 C 331 726.375 324 727.75 316.5 732.375 C 309.5 736.75 307.125 743.875 307.125 749.5 C 307.125 762.875 316.75 771.5 329 771.5 C 338.375 771.5 343.75 767 346.375 764.875 L 346.375 769.5 L 347.125 770.375 C 356.125 770 358.875 769.875 367 770 L 367.625 769.125 C 366.75 756.875 366.75 753.75 366.75 742 L 366.875 732.75 M 346.25 752.625 C 343.625 754.125 340.25 755.875 336.125 755.875 C 331.625 755.875 327.875 753.5 327.875 748.25 C 327.875 740 337.75 738.625 346.25 737.5 Z M 416.5 755.625 C 414.375 756.25 412.875 756.75 410.75 756.75 C 404.375 756.75 403.875 752.75 403.625 750.875 C 403.25 747.625 403.25 740.75 403.375 735.75 L 403.625 718.125 L 414.875 718.625 L 415.625 717.875 L 416.875 704.5 L 416.125 703.75 L 403.625 703.75 L 404 682.75 L 403.125 682 C 394.625 684.5 392.375 685.125 383.5 687.375 L 383 688.25 L 383.125 703.875 L 376.375 703.625 L 375.625 704.25 L 374.5 717.625 L 375.25 718.375 L 383.125 718.125 L 382.75 738 C 382.625 741.125 382.5 744.25 382.5 747.5 C 382.5 759 382.75 771.375 402.25 771.375 C 407.125 771.375 411 770.625 415.375 769.875 L 416.25 769 L 417.5 756.125 Z M 481.25 751.5 C 476.5 754 470.875 756.875 461.75 756.875 C 454.25 756.875 449.125 754.5 446.125 750 C 444.25 747.375 443.875 744.875 443.375 742.375 L 483.75 741.625 L 484.5 740.75 C 484.375 734.625 484.25 728.375 482.5 722.125 C 478.125 707.375 468.5 704.375 464.25 703.375 C 461.125 702.5 458.25 702.25 455.375 702.25 C 435.75 702.25 422.75 715.125 422.75 736.75 C 422.75 742.625 423.75 748.75 425.75 753.125 C 433 770 450 771.5 459 771.5 C 469.375 771.5 473.875 769.625 480.5 767 L 481.25 766 L 482.125 751.875 L 481.25 751.5 M 443.375 729.125 C 443.75 725.25 444.625 720 449.375 717 C 450.875 716 452.625 715.625 454.375 715.625 C 458.5 715.625 461 717.75 462.375 720 C 464.125 722.75 464.25 725.75 464.25 728.625 Z M 549.25 681.5 L 533.375 681.75 L 532.625 682.5 C 533.125 698.75 533.5 709.625 533.5 724 C 533.5 739.25 533.125 754.375 532.75 769.625 L 533.5 770.375 C 542.75 770 544.75 769.875 554.75 770 L 555.375 769.25 C 554.875 755.625 554.875 752.5 554.875 739.75 C 568.875 739.875 583.875 739.875 592.875 728.875 C 596.375 724.625 599.375 717.5 599.375 708.75 C 599.375 703.375 598.125 691.5 587.75 685.625 C 580.25 681.25 569.625 681.25 560.25 681.25 L 549.25 681.5 M 554.875 696.625 C 557.625 696.5 560.25 696.5 563 696.5 C 574 696.75 577 702.375 577 709.625 C 577 711.375 577 718.625 570.375 722.25 C 567 724.125 562.375 724.375 554.875 724.375 Z M 663.625 732.75 C 663.75 721.5 663.75 716.625 660.5 711.375 C 658 707.375 653 702.375 637 702.375 C 626.25 702.375 619.625 704.375 612.5 706.5 L 611.75 707.5 L 611.125 721.125 L 612.125 721.625 C 616.5 719.875 624.625 716.625 633 716.625 C 637.625 716.625 639.5 717.375 641.125 719 C 642.375 720.25 642.75 722.5 642.75 724.375 C 627.75 726.375 620.75 727.75 613.25 732.375 C 606.25 736.75 603.875 743.875 603.875 749.5 C 603.875 762.875 613.5 771.5 625.75 771.5 C 635.125 771.5 640.5 767 643.125 764.875 L 643.125 769.5 L 643.875 770.375 C 652.875 770 655.625 769.875 663.75 770 L 664.375 769.125 C 663.5 756.875 663.5 753.75 663.5 742 L 663.625 732.75 M 643 752.625 C 640.375 754.125 637 755.875 632.875 755.875 C 628.375 755.875 624.625 753.5 624.625 748.25 C 624.625 740 634.5 738.625 643 737.5 Z M 714.375 723.625 L 717.875 703.25 L 717.125 702.375 C 716.25 702.375 715.375 702.25 714.5 702.25 C 709.375 702.25 703.625 705.125 699.625 714.375 L 700 702.875 L 699 701.875 C 689.75 703.875 687.375 704.25 678.25 705.625 L 677.5 706.375 C 678.25 715.75 678.625 721.375 678.625 738.75 C 678.625 749 678.5 759.25 678.25 769.625 L 679 770.375 C 688.25 770 690.25 769.875 700.25 770 L 700.875 769.125 C 700.375 759 699.625 744.875 699.625 736.25 C 699.625 730.625 699.625 722.375 708.125 722.375 C 710.25 722.375 711.5 723.125 713.25 724.125 Z M 789.375 768.375 C 777.625 748.5 776.375 746.25 766.875 729.125 C 775.5 717.375 776.375 716.125 785.25 704.75 L 784.625 703.5 L 764.25 703.75 L 763 704.625 C 753.25 721.5 752 723.5 746.25 732.125 L 746.25 718.25 C 746.375 694.875 746.5 689.875 747.125 671 L 746.125 670.25 L 724.375 673.5 L 723.625 674.375 C 724.5 686.5 724.875 692.375 725.125 708.75 C 725.375 729 725.375 749.25 725.25 769.5 L 726.125 770.375 C 734.5 770 736.875 770 746.375 770 L 747.125 769.125 L 746.375 748 L 746.25 733.625 C 757.125 753.625 758.5 756.375 764.875 769.625 L 766 770.375 L 788.5 769.5 Z M 787.875 770 "/>
</svg>
