<?xml version="1.0" encoding="UTF-8"?>
<svg xmlns="http://www.w3.org/2000/svg" xmlns:xlink="http://www.w3.org/1999/xlink" width="975" height="1300" viewBox="0 0 975 1300">
<path fill-rule="nonzero" fill="rgb(34.901961%, 14.901961%, 14.901961%)" fill-opacity="1" d="M 166.4375 473.25 L 167.1875 472.625 L 168.0625 457 L 167.4375 456.625 L 105.5625 456.625 L 104.6875 457.375 L 103.8125 472.75 L 104.4375 473.5 L 124.8125 473 C 124.9375 505.75 124.9375 513.625 123.9375 544.625 L 124.6875 545.375 C 133.9375 545 136.4375 544.875 146.8125 544.875 L 147.5625 544.125 C 146.9375 526.625 146.6875 509.125 146.6875 491.5 C 146.6875 484.625 146.8125 480.75 147.0625 472.75 Z M 237.3125 544.125 C 236.8125 533.875 236.6875 530.375 236.4375 517.375 L 236.4375 508 C 236.3125 496.125 236.1875 489.25 232.5625 484 C 228.9375 478.875 223.6875 477.25 218.1875 477.25 C 209.0625 477.25 201.9375 481.625 196.9375 484.625 L 197.3125 446.125 L 196.5625 445.25 L 175.1875 448.625 L 174.5625 449.375 C 175.6875 461.5 175.9375 466 176.1875 482.125 C 176.4375 492.25 176.5625 502.375 176.5625 512.5 C 176.5625 524.875 176.3125 532.25 176.0625 544.5 L 176.6875 545.375 C 185.9375 544.875 187.8125 544.875 197.9375 544.875 L 198.6875 544.125 C 197.8125 525.375 197.6875 519.75 197.5625 497.625 C 199.9375 496 202.9375 493.875 207.1875 493.875 C 214.0625 493.875 214.5625 501 215.0625 506 C 215.3125 509.875 215.4375 527.625 215.4375 532.25 C 215.4375 536.375 215.3125 540.375 215.3125 544.5 L 215.9375 545.375 C 224.9375 544.875 226.9375 544.875 236.5625 544.875 Z M 307.0625 526.5 C 302.3125 529 296.6875 531.875 287.5625 531.875 C 280.0625 531.875 274.9375 529.5 271.9375 525 C 270.0625 522.375 269.6875 519.875 269.1875 517.375 L 309.5625 516.625 L 310.3125 515.75 C 310.1875 509.625 310.0625 503.375 308.3125 497.125 C 303.9375 482.375 294.3125 479.375 290.0625 478.375 C 286.9375 477.5 284.0625 477.25 281.1875 477.25 C 261.5625 477.25 248.5625 490.125 248.5625 511.75 C 248.5625 517.625 249.5625 523.75 251.5625 528.125 C 258.8125 545 275.8125 546.5 284.8125 546.5 C 295.1875 546.5 299.6875 544.625 306.3125 542 L 307.0625 541 L 307.9375 526.875 L 307.0625 526.5 M 269.1875 504.125 C 269.5625 500.25 270.4375 495 275.1875 492 C 276.6875 491 278.4375 490.625 280.1875 490.625 C 284.3125 490.625 286.8125 492.75 288.1875 495 C 289.9375 497.75 290.0625 500.75 290.0625 503.625 Z M 408.4375 509 L 409.3125 508.25 L 410.3125 493.625 L 409.6875 492.875 L 381.1875 493.875 L 381.1875 473 L 411.8125 473.375 L 412.5625 472.5 L 413.9375 457 L 413.1875 456.375 C 392.5625 456.75 385.9375 456.75 358.9375 456.625 L 358.1875 457.375 C 358.9375 469.625 359.4375 479.5 359.4375 501.625 C 359.4375 516 359.1875 530.375 358.9375 544.75 L 359.5625 545.375 C 368.6875 545 370.8125 545 381.8125 545 L 382.4375 544.25 C 381.5625 529.875 381.4375 525.5 381.0625 509 Z M 487.0625 511.75 C 487.0625 506.875 487.0625 486.625 469.5625 479.75 C 464.0625 477.625 457.5625 477.375 454.3125 477.375 C 432.5625 477.375 420.3125 489 420.3125 512 C 420.3125 520 421.5625 528.125 426.1875 534.875 C 429.4375 539.75 435.5625 546.5 453.4375 546.5 C 479.9375 546.5 487.0625 530.5 487.0625 511.75 M 465.4375 511.625 C 465.4375 521.875 464.0625 533.25 453.6875 533.25 C 450.4375 533.25 448.1875 531.75 446.6875 530.375 C 444.5625 528.25 442.1875 524 442.1875 511.875 C 442.1875 508.25 442.1875 500.25 444.6875 495.875 C 446.5625 492.5 449.8125 490.25 453.8125 490.25 C 457.3125 490.25 460.1875 492.125 461.8125 494.125 C 464.8125 497.75 465.4375 504.875 465.4375 511.625 Z M 535.0625 498.625 L 538.5625 478.25 L 537.8125 477.375 C 536.9375 477.375 536.0625 477.25 535.1875 477.25 C 530.0625 477.25 524.3125 480.125 520.3125 489.375 L 520.6875 477.875 L 519.6875 476.875 C 510.4375 478.875 508.0625 479.25 498.9375 480.625 L 498.1875 481.375 C 498.9375 490.75 499.3125 496.375 499.3125 513.75 C 499.3125 524 499.1875 534.25 498.9375 544.625 L 499.6875 545.375 C 508.9375 545 510.9375 544.875 520.9375 545 L 521.5625 544.125 C 521.0625 534 520.3125 519.875 520.3125 511.25 C 520.3125 505.625 520.3125 497.375 528.8125 497.375 C 530.9375 497.375 532.1875 498.125 533.9375 499.125 Z M 601.3125 526.5 C 596.5625 529 590.9375 531.875 581.8125 531.875 C 574.3125 531.875 569.1875 529.5 566.1875 525 C 564.3125 522.375 563.9375 519.875 563.4375 517.375 L 603.8125 516.625 L 604.5625 515.75 C 604.4375 509.625 604.3125 503.375 602.5625 497.125 C 598.1875 482.375 588.5625 479.375 584.3125 478.375 C 581.1875 477.5 578.3125 477.25 575.4375 477.25 C 555.8125 477.25 542.8125 490.125 542.8125 511.75 C 542.8125 517.625 543.8125 523.75 545.8125 528.125 C 553.0625 545 570.0625 546.5 579.0625 546.5 C 589.4375 546.5 593.9375 544.625 600.5625 542 L 601.3125 541 L 602.1875 526.875 L 601.3125 526.5 M 563.4375 504.125 C 563.8125 500.25 564.6875 495 569.4375 492 C 570.9375 491 572.6875 490.625 574.4375 490.625 C 578.5625 490.625 581.0625 492.75 582.4375 495 C 584.1875 497.75 584.3125 500.75 584.3125 503.625 Z M 642.3125 501.875 C 638.0625 500.375 634.6875 499 634.6875 495.5 C 634.6875 494 635.6875 489.875 643.4375 489.875 C 651.0625 489.875 655.9375 493.125 659.0625 495.125 L 660.1875 494.75 L 661.4375 481.125 L 660.8125 480.375 C 654.9375 478.75 649.8125 477.25 641.6875 477.25 C 635.5625 477.25 623.3125 477.75 616.8125 487.125 C 615.1875 489.375 613.4375 493.125 613.4375 498.125 C 613.4375 511.5 623.8125 515.5 629.6875 517.75 L 634.4375 519.5 C 637.8125 520.625 643.3125 522.5 643.3125 527 C 643.3125 530.125 640.4375 533.5 633.4375 533.5 C 629.9375 533.5 624.8125 532.375 620.1875 530 C 618.0625 528.875 617.0625 528 615.1875 526.5 L 614.0625 527 C 613.8125 533.5 613.6875 534.875 613.1875 541.125 L 613.8125 542.25 C 619.9375 544.5 625.1875 546.5 634.3125 546.5 C 643.8125 546.5 662.5625 544.75 664.8125 526.875 C 664.9375 525.875 664.9375 525 664.9375 524.125 C 664.9375 510.375 655.3125 506.75 648.4375 504.125 Z M 710.9375 530.625 C 708.8125 531.25 707.3125 531.75 705.1875 531.75 C 698.8125 531.75 698.3125 527.75 698.0625 525.875 C 697.6875 522.625 697.6875 515.75 697.8125 510.75 L 698.0625 493.125 L 709.3125 493.625 L 710.0625 492.875 L 711.3125 479.5 L 710.5625 478.75 L 698.0625 478.75 L 698.4375 457.75 L 697.5625 457 C 689.0625 459.5 686.8125 460.125 677.9375 462.375 L 677.4375 463.25 L 677.5625 478.875 L 670.8125 478.625 L 670.0625 479.25 L 668.9375 492.625 L 669.6875 493.375 L 677.5625 493.125 L 677.1875 513 C 677.0625 516.125 676.9375 519.25 676.9375 522.5 C 676.9375 534 677.1875 546.375 696.6875 546.375 C 701.5625 546.375 705.4375 545.625 709.8125 544.875 L 710.6875 544 L 711.9375 531.125 Z M 820.3125 511.75 C 820.3125 506.875 820.3125 486.625 802.8125 479.75 C 797.3125 477.625 790.8125 477.375 787.5625 477.375 C 765.8125 477.375 753.5625 489 753.5625 512 C 753.5625 520 754.8125 528.125 759.4375 534.875 C 762.6875 539.75 768.8125 546.5 786.6875 546.5 C 813.1875 546.5 820.3125 530.5 820.3125 511.75 M 798.6875 511.625 C 798.6875 521.875 797.3125 533.25 786.9375 533.25 C 783.6875 533.25 781.4375 531.75 779.9375 530.375 C 777.8125 528.25 775.4375 524 775.4375 511.875 C 775.4375 508.25 775.4375 500.25 777.9375 495.875 C 779.8125 492.5 783.0625 490.25 787.0625 490.25 C 790.5625 490.25 793.4375 492.125 795.0625 494.125 C 798.0625 497.75 798.6875 504.875 798.6875 511.625 Z M 857.1875 544.125 C 855.9375 521.375 855.8125 515.25 855.9375 493.125 L 865.8125 493.625 L 866.6875 492.75 L 867.8125 479.5 L 867.1875 478.75 L 855.8125 478.75 L 855.9375 475.875 C 855.9375 468.25 856.0625 461.25 864.1875 461.25 C 865.4375 461.25 866.6875 461.5 867.9375 461.625 L 868.8125 461.125 L 869.9375 447 L 869.3125 446.125 C 866.3125 445.875 863.4375 445.75 860.5625 445.75 C 854.1875 445.75 847.6875 446.5 842.6875 450.25 C 834.9375 456 835.0625 465 835.0625 471.25 L 835.1875 478.75 L 827.0625 478.625 L 826.3125 479.25 L 825.0625 492.5 L 825.8125 493.25 L 835.3125 493 C 835.3125 516.625 835.3125 522.25 834.5625 544.5 L 835.3125 545.375 C 843.8125 545 847.0625 544.875 856.4375 544.875 Z M 868.9375 545 "/>
<path fill-rule="nonzero" fill="rgb(34.901961%, 14.901961%, 14.901961%)" fill-opacity="1" d="M 173.75 606.375 C 165.875 606.75 163.75 606.875 156 606.75 L 155.375 607.5 L 156.25 624.375 L 156.75 641.625 L 157.25 662.25 C 153.625 656.125 153 655.125 146.625 645.625 L 135.25 629 C 125.875 614.75 124 612 120.875 607 L 120 606.375 C 110.125 606.875 108.5 606.875 99.375 606.75 L 98.75 607.5 C 99.375 626.875 99.75 641.25 99.75 658 C 99.75 670.25 99.5 682.5 99.375 694.625 L 100 695.375 C 108.375 695 111 695 118.25 695 L 118.875 694.25 L 117.625 666.875 L 117.25 651.5 L 116.5 634.75 C 122.375 644.5 124.375 647.75 132.875 660.125 L 145.375 678.5 L 156.5 694.75 L 157.375 695.375 C 165 695 167.25 695 173.875 695 L 174.5 694.375 C 174.375 676.25 174.25 664 174.25 649 C 174.25 635 174.375 621.125 174.5 607.125 Z M 212.375 694.125 C 211.75 684.5 211.25 677.125 211.25 659.875 C 211.25 649.25 211.5 638.5 211.625 627.875 L 210.75 626.875 L 189.25 630.625 L 188.5 631.375 C 189.5 640.875 189.875 645.25 189.875 663 C 189.875 676.625 189.5 684.25 189.125 694.5 L 189.875 695.375 C 198.875 695 201.375 694.875 211.5 695 L 212.375 694.125 M 210.375 614.875 L 210.75 597.875 L 210 597.125 L 189.625 599.625 L 188.875 600.5 C 189.125 605 189.25 607.625 189.25 610.625 C 189.25 613 189.25 615.5 189.125 617.875 L 190 618.625 C 198.5 617.125 200.875 616.875 209.75 615.75 Z M 252.5 651.875 C 248.25 650.375 244.875 649 244.875 645.5 C 244.875 644 245.875 639.875 253.625 639.875 C 261.25 639.875 266.125 643.125 269.25 645.125 L 270.375 644.75 L 271.625 631.125 L 271 630.375 C 265.125 628.75 260 627.25 251.875 627.25 C 245.75 627.25 233.5 627.75 227 637.125 C 225.375 639.375 223.625 643.125 223.625 648.125 C 223.625 661.5 234 665.5 239.875 667.75 L 244.625 669.5 C 248 670.625 253.5 672.5 253.5 677 C 253.5 680.125 250.625 683.5 243.625 683.5 C 240.125 683.5 235 682.375 230.375 680 C 228.25 678.875 227.25 678 225.375 676.5 L 224.25 677 C 224 683.5 223.875 684.875 223.375 691.125 L 224 692.25 C 230.125 694.5 235.375 696.5 244.5 696.5 C 254 696.5 272.75 694.75 275 676.875 C 275.125 675.875 275.125 675 275.125 674.125 C 275.125 660.375 265.5 656.75 258.625 654.125 Z M 341.625 676.5 C 336.875 679 331.25 681.875 322.125 681.875 C 314.625 681.875 309.5 679.5 306.5 675 C 304.625 672.375 304.25 669.875 303.75 667.375 L 344.125 666.625 L 344.875 665.75 C 344.75 659.625 344.625 653.375 342.875 647.125 C 338.5 632.375 328.875 629.375 324.625 628.375 C 321.5 627.5 318.625 627.25 315.75 627.25 C 296.125 627.25 283.125 640.125 283.125 661.75 C 283.125 667.625 284.125 673.75 286.125 678.125 C 293.375 695 310.375 696.5 319.375 696.5 C 329.75 696.5 334.25 694.625 340.875 692 L 341.625 691 L 342.5 676.875 L 341.625 676.5 M 303.75 654.125 C 304.125 650.25 305 645 309.75 642 C 311.25 641 313 640.625 314.75 640.625 C 318.875 640.625 321.375 642.75 322.75 645 C 324.5 647.75 324.625 650.75 324.625 653.625 Z M 417.625 694.125 C 417 683.125 417 679.625 416.75 667.375 L 416.75 657.625 C 416.625 645.625 416.5 639.875 413.375 634.75 C 409.5 628.25 402.375 627.25 397.875 627.25 C 390.25 627.25 383.625 631.25 377.875 634.625 L 378.125 627.75 L 376.875 626.875 C 367.25 628.875 365.125 629.25 355.75 630.5 L 355 631.375 C 356 642.25 356.75 650.125 356.75 670.5 C 356.75 678.5 356.625 686.5 356.5 694.5 L 357.25 695.25 C 366.25 694.875 368.125 694.875 378.125 694.875 L 378.875 694.125 C 378.125 674.875 378 670 377.875 647.625 C 380.5 645.875 383.5 643.75 387.5 643.75 C 394.375 643.75 395 651.125 395.375 655.625 C 395.625 659.75 395.75 676.875 395.75 681.625 C 395.75 685.875 395.625 690.25 395.625 694.5 L 396.375 695.25 C 404.625 695 406.75 694.875 416.75 694.875 Z M 487.375 676.5 C 482.625 679 477 681.875 467.875 681.875 C 460.375 681.875 455.25 679.5 452.25 675 C 450.375 672.375 450 669.875 449.5 667.375 L 489.875 666.625 L 490.625 665.75 C 490.5 659.625 490.375 653.375 488.625 647.125 C 484.25 632.375 474.625 629.375 470.375 628.375 C 467.25 627.5 464.375 627.25 461.5 627.25 C 441.875 627.25 428.875 640.125 428.875 661.75 C 428.875 667.625 429.875 673.75 431.875 678.125 C 439.125 695 456.125 696.5 465.125 696.5 C 475.5 696.5 480 694.625 486.625 692 L 487.375 691 L 488.25 676.875 L 487.375 676.5 M 449.5 654.125 C 449.875 650.25 450.75 645 455.5 642 C 457 641 458.75 640.625 460.5 640.625 C 464.625 640.625 467.125 642.75 468.5 645 C 470.25 647.75 470.375 650.75 470.375 653.625 Z M 634.5 606.375 C 621.5 606.75 619.375 606.75 605.5 606.75 L 604.75 607.5 L 599 627.75 L 594 645.875 L 588.125 667.625 L 582.625 645.25 L 579.125 631.125 L 572.875 607.125 L 572.25 606.375 C 558.875 606.75 556.625 606.75 542.625 606.75 L 541.875 607.5 C 540.625 644.875 540.125 654.5 537.375 694.625 L 538 695.375 C 546 695 548.375 694.875 555.625 695 L 556.375 694.25 L 556.75 670.375 L 557.5 646.125 L 558 622.5 L 563.5 644.625 L 568.25 662.375 L 576.625 694.625 L 577.375 695.375 C 585.125 695 587.25 694.875 596 695 L 596.75 694.25 L 604 667.625 L 609 649.375 L 616 623.125 L 616 645.5 L 616.25 664.625 L 616.25 694.625 L 616.875 695.375 C 625.5 695 628.875 694.875 638.5 695 L 639.125 694.25 C 638.375 680 637.5 665.625 637 651.25 C 636.625 643.375 636.375 635.5 636 627.625 C 635.375 616 635.25 614.5 635.25 607.125 Z M 708.875 657.75 C 709 646.5 709 641.625 705.75 636.375 C 703.25 632.375 698.25 627.375 682.25 627.375 C 671.5 627.375 664.875 629.375 657.75 631.5 L 657 632.5 L 656.375 646.125 L 657.375 646.625 C 661.75 644.875 669.875 641.625 678.25 641.625 C 682.875 641.625 684.75 642.375 686.375 644 C 687.625 645.25 688 647.5 688 649.375 C 673 651.375 666 652.75 658.5 657.375 C 651.5 661.75 649.125 668.875 649.125 674.5 C 649.125 687.875 658.75 696.5 671 696.5 C 680.375 696.5 685.75 692 688.375 689.875 L 688.375 694.5 L 689.125 695.375 C 698.125 695 700.875 694.875 709 695 L 709.625 694.125 C 708.75 681.875 708.75 678.75 708.75 667 L 708.875 657.75 M 688.25 677.625 C 685.625 679.125 682.25 680.875 678.125 680.875 C 673.625 680.875 669.875 678.5 669.875 673.25 C 669.875 665 679.75 663.625 688.25 662.5 Z M 759.625 648.625 L 763.125 628.25 L 762.375 627.375 C 761.5 627.375 760.625 627.25 759.75 627.25 C 754.625 627.25 748.875 630.125 744.875 639.375 L 745.25 627.875 L 744.25 626.875 C 735 628.875 732.625 629.25 723.5 630.625 L 722.75 631.375 C 723.5 640.75 723.875 646.375 723.875 663.75 C 723.875 674 723.75 684.25 723.5 694.625 L 724.25 695.375 C 733.5 695 735.5 694.875 745.5 695 L 746.125 694.125 C 745.625 684 744.875 669.875 744.875 661.25 C 744.875 655.625 744.875 647.375 753.375 647.375 C 755.5 647.375 756.75 648.125 758.5 649.125 Z M 834.625 693.375 C 822.875 673.5 821.625 671.25 812.125 654.125 C 820.75 642.375 821.625 641.125 830.5 629.75 L 829.875 628.5 L 809.5 628.75 L 808.25 629.625 C 798.5 646.5 797.25 648.5 791.5 657.125 L 791.5 643.25 C 791.625 619.875 791.75 614.875 792.375 596 L 791.375 595.25 L 769.625 598.5 L 768.875 599.375 C 769.75 611.5 770.125 617.375 770.375 633.75 C 770.625 654 770.625 674.25 770.5 694.5 L 771.375 695.375 C 779.75 695 782.125 695 791.625 695 L 792.375 694.125 L 791.625 673 L 791.5 658.625 C 802.375 678.625 803.75 681.375 810.125 694.625 L 811.25 695.375 L 833.75 694.5 Z M 866.875 651.875 C 862.625 650.375 859.25 649 859.25 645.5 C 859.25 644 860.25 639.875 868 639.875 C 875.625 639.875 880.5 643.125 883.625 645.125 L 884.75 644.75 L 886 631.125 L 885.375 630.375 C 879.5 628.75 874.375 627.25 866.25 627.25 C 860.125 627.25 847.875 627.75 841.375 637.125 C 839.75 639.375 838 643.125 838 648.125 C 838 661.5 848.375 665.5 854.25 667.75 L 859 669.5 C 862.375 670.625 867.875 672.5 867.875 677 C 867.875 680.125 865 683.5 858 683.5 C 854.5 683.5 849.375 682.375 844.75 680 C 842.625 678.875 841.625 678 839.75 676.5 L 838.625 677 C 838.375 683.5 838.25 684.875 837.75 691.125 L 838.375 692.25 C 844.5 694.5 849.75 696.5 858.875 696.5 C 868.375 696.5 887.125 694.75 889.375 676.875 C 889.5 675.875 889.5 675 889.5 674.125 C 889.5 660.375 879.875 656.75 873 654.125 Z M 893 695 "/>
<path fill-rule="nonzero" fill="rgb(34.901961%, 14.901961%, 14.901961%)" fill-opacity="1" d="M 232.875 791.25 C 222.375 786.875 216.875 784.625 216.875 779 C 216.875 775.125 220.5 770.25 228.75 770.25 C 238.25 770.25 243.875 774.125 248.5 777.25 L 249.625 776.75 L 250.625 760.375 L 250 759.5 C 244.625 757.25 239 754.875 226.875 754.875 C 203.375 754.875 195.25 768.125 195.25 781.5 C 195.25 796.625 207 802.125 214 805.5 L 218.125 807.375 C 226.75 811 233.375 814.125 233.375 820.75 C 233.375 825.5 229.25 831.125 218.375 831.125 C 207 831.125 200.625 826.125 197 823.25 L 195.75 823.625 L 194.875 841.25 L 195.625 842.25 C 197 842.75 198.375 843.375 199.75 843.75 C 202.625 844.75 210 846.875 219.375 846.875 C 223.125 846.875 232.625 846.5 240.125 843 C 250.625 837.875 255.125 828.375 255.125 817.75 C 255.125 810.625 252.375 803 245.75 797.875 C 242.375 795.375 239.125 793.875 236.125 792.5 Z M 302 830.625 C 299.875 831.25 298.375 831.75 296.25 831.75 C 289.875 831.75 289.375 827.75 289.125 825.875 C 288.75 822.625 288.75 815.75 288.875 810.75 L 289.125 793.125 L 300.375 793.625 L 301.125 792.875 L 302.375 779.5 L 301.625 778.75 L 289.125 778.75 L 289.5 757.75 L 288.625 757 C 280.125 759.5 277.875 760.125 269 762.375 L 268.5 763.25 L 268.625 778.875 L 261.875 778.625 L 261.125 779.25 L 260 792.625 L 260.75 793.375 L 268.625 793.125 L 268.25 813 C 268.125 816.125 268 819.25 268 822.5 C 268 834 268.25 846.375 287.75 846.375 C 292.625 846.375 296.5 845.625 300.875 844.875 L 301.75 844 L 303 831.125 Z M 366.875 807.75 C 367 796.5 367 791.625 363.75 786.375 C 361.25 782.375 356.25 777.375 340.25 777.375 C 329.5 777.375 322.875 779.375 315.75 781.5 L 315 782.5 L 314.375 796.125 L 315.375 796.625 C 319.75 794.875 327.875 791.625 336.25 791.625 C 340.875 791.625 342.75 792.375 344.375 794 C 345.625 795.25 346 797.5 346 799.375 C 331 801.375 324 802.75 316.5 807.375 C 309.5 811.75 307.125 818.875 307.125 824.5 C 307.125 837.875 316.75 846.5 329 846.5 C 338.375 846.5 343.75 842 346.375 839.875 L 346.375 844.5 L 347.125 845.375 C 356.125 845 358.875 844.875 367 845 L 367.625 844.125 C 366.75 831.875 366.75 828.75 366.75 817 L 366.875 807.75 M 346.25 827.625 C 343.625 829.125 340.25 830.875 336.125 830.875 C 331.625 830.875 327.875 828.5 327.875 823.25 C 327.875 815 337.75 813.625 346.25 812.5 Z M 416.5 830.625 C 414.375 831.25 412.875 831.75 410.75 831.75 C 404.375 831.75 403.875 827.75 403.625 825.875 C 403.25 822.625 403.25 815.75 403.375 810.75 L 403.625 793.125 L 414.875 793.625 L 415.625 792.875 L 416.875 779.5 L 416.125 778.75 L 403.625 778.75 L 404 757.75 L 403.125 757 C 394.625 759.5 392.375 760.125 383.5 762.375 L 383 763.25 L 383.125 778.875 L 376.375 778.625 L 375.625 779.25 L 374.5 792.625 L 375.25 793.375 L 383.125 793.125 L 382.75 813 C 382.625 816.125 382.5 819.25 382.5 822.5 C 382.5 834 382.75 846.375 402.25 846.375 C 407.125 846.375 411 845.625 415.375 844.875 L 416.25 844 L 417.5 831.125 Z M 481.25 826.5 C 476.5 829 470.875 831.875 461.75 831.875 C 454.25 831.875 449.125 829.5 446.125 825 C 444.25 822.375 443.875 819.875 443.375 817.375 L 483.75 816.625 L 484.5 815.75 C 484.375 809.625 484.25 803.375 482.5 797.125 C 478.125 782.375 468.5 779.375 464.25 778.375 C 461.125 777.5 458.25 777.25 455.375 777.25 C 435.75 777.25 422.75 790.125 422.75 811.75 C 422.75 817.625 423.75 823.75 425.75 828.125 C 433 845 450 846.5 459 846.5 C 469.375 846.5 473.875 844.625 480.5 842 L 481.25 841 L 482.125 826.875 L 481.25 826.5 M 443.375 804.125 C 443.75 800.25 444.625 795 449.375 792 C 450.875 791 452.625 790.625 454.375 790.625 C 458.5 790.625 461 792.75 462.375 795 C 464.125 797.75 464.25 800.75 464.25 803.625 Z M 549.25 756.5 L 533.375 756.75 L 532.625 757.5 C 533.125 773.75 533.5 784.625 533.5 799 C 533.5 814.25 533.125 829.375 532.75 844.625 L 533.5 845.375 C 542.75 845 544.75 844.875 554.75 845 L 555.375 844.25 C 554.875 830.625 554.875 827.5 554.875 814.75 C 568.875 814.875 583.875 814.875 592.875 803.875 C 596.375 799.625 599.375 792.5 599.375 783.75 C 599.375 778.375 598.125 766.5 587.75 760.625 C 580.25 756.25 569.625 756.25 560.25 756.25 L 549.25 756.5 M 554.875 771.625 C 557.625 771.5 560.25 771.5 563 771.5 C 574 771.75 577 777.375 577 784.625 C 577 786.375 577 793.625 570.375 797.25 C 567 799.125 562.375 799.375 554.875 799.375 Z M 663.625 807.75 C 663.75 796.5 663.75 791.625 660.5 786.375 C 658 782.375 653 777.375 637 777.375 C 626.25 777.375 619.625 779.375 612.5 781.5 L 611.75 782.5 L 611.125 796.125 L 612.125 796.625 C 616.5 794.875 624.625 791.625 633 791.625 C 637.625 791.625 639.5 792.375 641.125 794 C 642.375 795.25 642.75 797.5 642.75 799.375 C 627.75 801.375 620.75 802.75 613.25 807.375 C 606.25 811.75 603.875 818.875 603.875 824.5 C 603.875 837.875 613.5 846.5 625.75 846.5 C 635.125 846.5 640.5 842 643.125 839.875 L 643.125 844.5 L 643.875 845.375 C 652.875 845 655.625 844.875 663.75 845 L 664.375 844.125 C 663.5 831.875 663.5 828.75 663.5 817 L 663.625 807.75 M 643 827.625 C 640.375 829.125 637 830.875 632.875 830.875 C 628.375 830.875 624.625 828.5 624.625 823.25 C 624.625 815 634.5 813.625 643 812.5 Z M 714.375 798.625 L 717.875 778.25 L 717.125 777.375 C 716.25 777.375 715.375 777.25 714.5 777.25 C 709.375 777.25 703.625 780.125 699.625 789.375 L 700 777.875 L 699 776.875 C 689.75 778.875 687.375 779.25 678.25 780.625 L 677.5 781.375 C 678.25 790.75 678.625 796.375 678.625 813.75 C 678.625 824 678.5 834.25 678.25 844.625 L 679 845.375 C 688.25 845 690.25 844.875 700.25 845 L 700.875 844.125 C 700.375 834 699.625 819.875 699.625 811.25 C 699.625 805.625 699.625 797.375 708.125 797.375 C 710.25 797.375 711.5 798.125 713.25 799.125 Z M 789.375 843.375 C 777.625 823.5 776.375 821.25 766.875 804.125 C 775.5 792.375 776.375 791.125 785.25 779.75 L 784.625 778.5 L 764.25 778.75 L 763 779.625 C 753.25 796.5 752 798.5 746.25 807.125 L 746.25 793.25 C 746.375 769.875 746.5 764.875 747.125 746 L 746.125 745.25 L 724.375 748.5 L 723.625 749.375 C 724.5 761.5 724.875 767.375 725.125 783.75 C 725.375 804 725.375 824.25 725.25 844.5 L 726.125 845.375 C 734.5 845 736.875 845 746.375 845 L 747.125 844.125 L 746.375 823 L 746.25 808.625 C 757.125 828.625 758.5 831.375 764.875 844.625 L 766 845.375 L 788.5 844.5 Z M 787.875 845 "/>
</svg>
