<?xml version="1.0" encoding="UTF-8"?>
<svg xmlns="http://www.w3.org/2000/svg" xmlns:xlink="http://www.w3.org/1999/xlink" width="975" height="1300" viewBox="0 0 975 1300">
<path fill-rule="nonzero" fill="rgb(34.901961%, 14.901961%, 14.901961%)" fill-opacity="1" d="M 280.875 522.625 C 278 524.875 271.625 529.625 261.25 529.625 C 247 529.625 237 519 237 501.25 C 237 490.5 240.75 471.625 261.125 471.625 C 270.5 471.625 275.625 475.25 278.75 477.625 L 279.875 477.375 L 281 460.125 L 280.5 459.5 C 276 457.75 268.375 454.875 257.375 454.875 C 225 454.875 213.75 479.875 213.75 501.75 C 213.75 525.75 228.375 546.875 258.875 546.875 C 269.375 546.875 276.25 544.125 280.25 542.5 L 280.875 541.75 L 281.75 523.125 Z M 347.125 507.75 C 347.25 496.5 347.25 491.625 344 486.375 C 341.5 482.375 336.5 477.375 320.5 477.375 C 309.75 477.375 303.125 479.375 296 481.5 L 295.25 482.5 L 294.625 496.125 L 295.625 496.625 C 300 494.875 308.125 491.625 316.5 491.625 C 321.125 491.625 323 492.375 324.625 494 C 325.875 495.25 326.25 497.5 326.25 499.375 C 311.25 501.375 304.25 502.75 296.75 507.375 C 289.75 511.75 287.375 518.875 287.375 524.5 C 287.375 537.875 297 546.5 309.25 546.5 C 318.625 546.5 324 542 326.625 539.875 L 326.625 544.5 L 327.375 545.375 C 336.375 545 339.125 544.875 347.25 545 L 347.875 544.125 C 347 531.875 347 528.75 347 517 L 347.125 507.75 M 326.5 527.625 C 323.875 529.125 320.5 530.875 316.375 530.875 C 311.875 530.875 308.125 528.5 308.125 523.25 C 308.125 515 318 513.625 326.5 512.5 Z M 383.75 544.125 C 383.125 529.75 382.5 516.625 382.5 477.125 C 382.5 465.25 382.625 459.625 383.125 446.125 L 382.25 445.25 L 360.875 448.625 L 360.375 449.375 C 361.625 464.625 361.75 468.75 362 489 C 362.125 496.375 362.125 503.75 362.125 511.125 C 362.125 524.625 361.875 532.125 361.375 544.5 L 362.125 545.375 C 370.5 545 373.875 544.875 383 545 Z M 420.875 544.125 C 420.25 534.5 419.75 527.125 419.75 509.875 C 419.75 499.25 420 488.5 420.125 477.875 L 419.25 476.875 L 397.75 480.625 L 397 481.375 C 398 490.875 398.375 495.25 398.375 513 C 398.375 526.625 398 534.25 397.625 544.5 L 398.375 545.375 C 407.375 545 409.875 544.875 420 545 L 420.875 544.125 M 418.875 464.875 L 419.25 447.875 L 418.5 447.125 L 398.125 449.625 L 397.375 450.5 C 397.625 455 397.75 457.625 397.75 460.625 C 397.75 463 397.75 465.5 397.625 467.875 L 398.5 468.625 C 407 467.125 409.375 466.875 418.25 465.75 Z M 459.75 544.125 C 458.5 521.375 458.375 515.25 458.5 493.125 L 468.375 493.625 L 469.25 492.75 L 470.375 479.5 L 469.75 478.75 L 458.375 478.75 L 458.5 475.875 C 458.5 468.25 458.625 461.25 466.75 461.25 C 468 461.25 469.25 461.5 470.5 461.625 L 471.375 461.125 L 472.5 447 L 471.875 446.125 C 468.875 445.875 466 445.75 463.125 445.75 C 456.75 445.75 450.25 446.5 445.25 450.25 C 437.5 456 437.625 465 437.625 471.25 L 437.75 478.75 L 429.625 478.625 L 428.875 479.25 L 427.625 492.5 L 428.375 493.25 L 437.875 493 C 437.875 516.625 437.875 522.25 437.125 544.5 L 437.875 545.375 C 446.375 545 449.625 544.875 459 544.875 Z M 542.625 511.75 C 542.625 506.875 542.625 486.625 525.125 479.75 C 519.625 477.625 513.125 477.375 509.875 477.375 C 488.125 477.375 475.875 489 475.875 512 C 475.875 520 477.125 528.125 481.75 534.875 C 485 539.75 491.125 546.5 509 546.5 C 535.5 546.5 542.625 530.5 542.625 511.75 M 521 511.625 C 521 521.875 519.625 533.25 509.25 533.25 C 506 533.25 503.75 531.75 502.25 530.375 C 500.125 528.25 497.75 524 497.75 511.875 C 497.75 508.25 497.75 500.25 500.25 495.875 C 502.125 492.5 505.375 490.25 509.375 490.25 C 512.875 490.25 515.75 492.125 517.375 494.125 C 520.375 497.75 521 504.875 521 511.625 Z M 590.625 498.625 L 594.125 478.25 L 593.375 477.375 C 592.5 477.375 591.625 477.25 590.75 477.25 C 585.625 477.25 579.875 480.125 575.875 489.375 L 576.25 477.875 L 575.25 476.875 C 566 478.875 563.625 479.25 554.5 480.625 L 553.75 481.375 C 554.5 490.75 554.875 496.375 554.875 513.75 C 554.875 524 554.75 534.25 554.5 544.625 L 555.25 545.375 C 564.5 545 566.5 544.875 576.5 545 L 577.125 544.125 C 576.625 534 575.875 519.875 575.875 511.25 C 575.875 505.625 575.875 497.375 584.375 497.375 C 586.5 497.375 587.75 498.125 589.5 499.125 Z M 662.625 544.125 C 662 533.125 662 529.625 661.75 517.375 L 661.75 507.625 C 661.625 495.625 661.5 489.875 658.375 484.75 C 654.5 478.25 647.375 477.25 642.875 477.25 C 635.25 477.25 628.625 481.25 622.875 484.625 L 623.125 477.75 L 621.875 476.875 C 612.25 478.875 610.125 479.25 600.75 480.5 L 600 481.375 C 601 492.25 601.75 500.125 601.75 520.5 C 601.75 528.5 601.625 536.5 601.5 544.5 L 602.25 545.25 C 611.25 544.875 613.125 544.875 623.125 544.875 L 623.875 544.125 C 623.125 524.875 623 520 622.875 497.625 C 625.5 495.875 628.5 493.75 632.5 493.75 C 639.375 493.75 640 501.125 640.375 505.625 C 640.625 509.75 640.75 526.875 640.75 531.625 C 640.75 535.875 640.625 540.25 640.625 544.5 L 641.375 545.25 C 649.625 545 651.75 544.875 661.75 544.875 Z M 699.5 544.125 C 698.875 534.5 698.375 527.125 698.375 509.875 C 698.375 499.25 698.625 488.5 698.75 477.875 L 697.875 476.875 L 676.375 480.625 L 675.625 481.375 C 676.625 490.875 677 495.25 677 513 C 677 526.625 676.625 534.25 676.25 544.5 L 677 545.375 C 686 545 688.5 544.875 698.625 545 L 699.5 544.125 M 697.5 464.875 L 697.875 447.875 L 697.125 447.125 L 676.75 449.625 L 676 450.5 C 676.25 455 676.375 457.625 676.375 460.625 C 676.375 463 676.375 465.5 676.25 467.875 L 677.125 468.625 C 685.625 467.125 688 466.875 696.875 465.75 Z M 769 507.75 C 769.125 496.5 769.125 491.625 765.875 486.375 C 763.375 482.375 758.375 477.375 742.375 477.375 C 731.625 477.375 725 479.375 717.875 481.5 L 717.125 482.5 L 716.5 496.125 L 717.5 496.625 C 721.875 494.875 730 491.625 738.375 491.625 C 743 491.625 744.875 492.375 746.5 494 C 747.75 495.25 748.125 497.5 748.125 499.375 C 733.125 501.375 726.125 502.75 718.625 507.375 C 711.625 511.75 709.25 518.875 709.25 524.5 C 709.25 537.875 718.875 546.5 731.125 546.5 C 740.5 546.5 745.875 542 748.5 539.875 L 748.5 544.5 L 749.25 545.375 C 758.25 545 761 544.875 769.125 545 L 769.75 544.125 C 768.875 531.875 768.875 528.75 768.875 517 L 769 507.75 M 748.375 527.625 C 745.75 529.125 742.375 530.875 738.25 530.875 C 733.75 530.875 730 528.5 730 523.25 C 730 515 739.875 513.625 748.375 512.5 Z M 776.125 545 "/>
<path fill-rule="nonzero" fill="rgb(34.901961%, 14.901961%, 14.901961%)" fill-opacity="1" d="M 123.625 641.25 C 113.125 636.875 107.625 634.625 107.625 629 C 107.625 625.125 111.25 620.25 119.5 620.25 C 129 620.25 134.625 624.125 139.25 627.25 L 140.375 626.75 L 141.375 610.375 L 140.75 609.5 C 135.375 607.25 129.75 604.875 117.625 604.875 C 94.125 604.875 86 618.125 86 631.5 C 86 646.625 97.75 652.125 104.75 655.5 L 108.875 657.375 C 117.5 661 124.125 664.125 124.125 670.75 C 124.125 675.5 120 681.125 109.125 681.125 C 97.75 681.125 91.375 676.125 87.75 673.25 L 86.5 673.625 L 85.625 691.25 L 86.375 692.25 C 87.75 692.75 89.125 693.375 90.5 693.75 C 93.375 694.75 100.75 696.875 110.125 696.875 C 113.875 696.875 123.375 696.5 130.875 693 C 141.375 687.875 145.875 678.375 145.875 667.75 C 145.875 660.625 143.125 653 136.5 647.875 C 133.125 645.375 129.875 643.875 126.875 642.5 Z M 192.75 680.625 C 190.625 681.25 189.125 681.75 187 681.75 C 180.625 681.75 180.125 677.75 179.875 675.875 C 179.5 672.625 179.5 665.75 179.625 660.75 L 179.875 643.125 L 191.125 643.625 L 191.875 642.875 L 193.125 629.5 L 192.375 628.75 L 179.875 628.75 L 180.25 607.75 L 179.375 607 C 170.875 609.5 168.625 610.125 159.75 612.375 L 159.25 613.25 L 159.375 628.875 L 152.625 628.625 L 151.875 629.25 L 150.75 642.625 L 151.5 643.375 L 159.375 643.125 L 159 663 C 158.875 666.125 158.75 669.25 158.75 672.5 C 158.75 684 159 696.375 178.5 696.375 C 183.375 696.375 187.25 695.625 191.625 694.875 L 192.5 694 L 193.75 681.125 Z M 257.625 657.75 C 257.75 646.5 257.75 641.625 254.5 636.375 C 252 632.375 247 627.375 231 627.375 C 220.25 627.375 213.625 629.375 206.5 631.5 L 205.75 632.5 L 205.125 646.125 L 206.125 646.625 C 210.5 644.875 218.625 641.625 227 641.625 C 231.625 641.625 233.5 642.375 235.125 644 C 236.375 645.25 236.75 647.5 236.75 649.375 C 221.75 651.375 214.75 652.75 207.25 657.375 C 200.25 661.75 197.875 668.875 197.875 674.5 C 197.875 687.875 207.5 696.5 219.75 696.5 C 229.125 696.5 234.5 692 237.125 689.875 L 237.125 694.5 L 237.875 695.375 C 246.875 695 249.625 694.875 257.75 695 L 258.375 694.125 C 257.5 681.875 257.5 678.75 257.5 667 L 257.625 657.75 M 237 677.625 C 234.375 679.125 231 680.875 226.875 680.875 C 222.375 680.875 218.625 678.5 218.625 673.25 C 218.625 665 228.5 663.625 237 662.5 Z M 307.25 680.625 C 305.125 681.25 303.625 681.75 301.5 681.75 C 295.125 681.75 294.625 677.75 294.375 675.875 C 294 672.625 294 665.75 294.125 660.75 L 294.375 643.125 L 305.625 643.625 L 306.375 642.875 L 307.625 629.5 L 306.875 628.75 L 294.375 628.75 L 294.75 607.75 L 293.875 607 C 285.375 609.5 283.125 610.125 274.25 612.375 L 273.75 613.25 L 273.875 628.875 L 267.125 628.625 L 266.375 629.25 L 265.25 642.625 L 266 643.375 L 273.875 643.125 L 273.5 663 C 273.375 666.125 273.25 669.25 273.25 672.5 C 273.25 684 273.5 696.375 293 696.375 C 297.875 696.375 301.75 695.625 306.125 694.875 L 307 694 L 308.25 681.125 Z M 372 676.5 C 367.25 679 361.625 681.875 352.5 681.875 C 345 681.875 339.875 679.5 336.875 675 C 335 672.375 334.625 669.875 334.125 667.375 L 374.5 666.625 L 375.25 665.75 C 375.125 659.625 375 653.375 373.25 647.125 C 368.875 632.375 359.25 629.375 355 628.375 C 351.875 627.5 349 627.25 346.125 627.25 C 326.5 627.25 313.5 640.125 313.5 661.75 C 313.5 667.625 314.5 673.75 316.5 678.125 C 323.75 695 340.75 696.5 349.75 696.5 C 360.125 696.5 364.625 694.625 371.25 692 L 372 691 L 372.875 676.875 L 372 676.5 M 334.125 654.125 C 334.5 650.25 335.375 645 340.125 642 C 341.625 641 343.375 640.625 345.125 640.625 C 349.25 640.625 351.75 642.75 353.125 645 C 354.875 647.75 355 650.75 355 653.625 Z M 451.5 660.625 C 459.875 674.875 461.75 678.625 469.75 695 L 470.75 695.625 C 474.625 695.375 478.375 695.125 482.25 695 C 486.125 694.875 490.125 694.75 494 694.75 L 494.75 693.25 C 490 687.125 488.625 685.25 479.625 670.875 C 475.625 664.5 473.625 661.125 470.5 655.625 C 476.125 653.125 487.5 647.875 487.5 632 C 487.5 626.5 486 615.125 475.75 609.75 C 469.25 606.375 462.5 606.25 447.875 606.5 L 439.125 606.625 L 423.875 606.625 L 423.25 607.375 C 423.75 620 424.25 633 424.25 667 C 424.25 678.625 424.125 684.25 423.75 694.625 L 424.5 695.375 C 433.625 695 435.625 694.875 445.875 695 L 446.625 694.25 C 445.625 679.75 445.5 675.75 445.375 660.875 L 451.5 660.625 M 445.625 621.75 C 447.375 621.625 449.125 621.625 450.875 621.625 C 455.75 621.625 465.375 621.625 465.375 632.625 C 465.375 636.125 464.5 640.75 459.875 643.625 C 456.375 645.75 451.875 646 445.625 646.125 Z M 557 657.75 C 557.125 646.5 557.125 641.625 553.875 636.375 C 551.375 632.375 546.375 627.375 530.375 627.375 C 519.625 627.375 513 629.375 505.875 631.5 L 505.125 632.5 L 504.5 646.125 L 505.5 646.625 C 509.875 644.875 518 641.625 526.375 641.625 C 531 641.625 532.875 642.375 534.5 644 C 535.75 645.25 536.125 647.5 536.125 649.375 C 521.125 651.375 514.125 652.75 506.625 657.375 C 499.625 661.75 497.25 668.875 497.25 674.5 C 497.25 687.875 506.875 696.5 519.125 696.5 C 528.5 696.5 533.875 692 536.5 689.875 L 536.5 694.5 L 537.25 695.375 C 546.25 695 549 694.875 557.125 695 L 557.75 694.125 C 556.875 681.875 556.875 678.75 556.875 667 L 557 657.75 M 536.375 677.625 C 533.75 679.125 530.375 680.875 526.25 680.875 C 521.75 680.875 518 678.5 518 673.25 C 518 665 527.875 663.625 536.375 662.5 Z M 594.25 694.125 C 593.625 684.5 593.125 677.125 593.125 659.875 C 593.125 649.25 593.375 638.5 593.5 627.875 L 592.625 626.875 L 571.125 630.625 L 570.375 631.375 C 571.375 640.875 571.75 645.25 571.75 663 C 571.75 676.625 571.375 684.25 571 694.5 L 571.75 695.375 C 580.75 695 583.25 694.875 593.375 695 L 594.25 694.125 M 592.25 614.875 L 592.625 597.875 L 591.875 597.125 L 571.5 599.625 L 570.75 600.5 C 571 605 571.125 607.625 571.125 610.625 C 571.125 613 571.125 615.5 571 617.875 L 571.875 618.625 C 580.375 617.125 582.75 616.875 591.625 615.75 Z M 630.125 694.125 C 629.5 679.75 628.875 666.625 628.875 627.125 C 628.875 615.25 629 609.625 629.5 596.125 L 628.625 595.25 L 607.25 598.625 L 606.75 599.375 C 608 614.625 608.125 618.75 608.375 639 C 608.5 646.375 608.5 653.75 608.5 661.125 C 608.5 674.625 608.25 682.125 607.75 694.5 L 608.5 695.375 C 616.875 695 620.25 694.875 629.375 695 Z M 680.75 648.625 L 684.25 628.25 L 683.5 627.375 C 682.625 627.375 681.75 627.25 680.875 627.25 C 675.75 627.25 670 630.125 666 639.375 L 666.375 627.875 L 665.375 626.875 C 656.125 628.875 653.75 629.25 644.625 630.625 L 643.875 631.375 C 644.625 640.75 645 646.375 645 663.75 C 645 674 644.875 684.25 644.625 694.625 L 645.375 695.375 C 654.625 695 656.625 694.875 666.625 695 L 667.25 694.125 C 666.75 684 666 669.875 666 661.25 C 666 655.625 666 647.375 674.5 647.375 C 676.625 647.375 677.875 648.125 679.625 649.125 Z M 755.125 661.75 C 755.125 656.875 755.125 636.625 737.625 629.75 C 732.125 627.625 725.625 627.375 722.375 627.375 C 700.625 627.375 688.375 639 688.375 662 C 688.375 670 689.625 678.125 694.25 684.875 C 697.5 689.75 703.625 696.5 721.5 696.5 C 748 696.5 755.125 680.5 755.125 661.75 M 733.5 661.625 C 733.5 671.875 732.125 683.25 721.75 683.25 C 718.5 683.25 716.25 681.75 714.75 680.375 C 712.625 678.25 710.25 674 710.25 661.875 C 710.25 658.25 710.25 650.25 712.75 645.875 C 714.625 642.5 717.875 640.25 721.875 640.25 C 725.375 640.25 728.25 642.125 729.875 644.125 C 732.875 647.75 733.5 654.875 733.5 661.625 Z M 822.625 657.75 C 822.75 646.5 822.75 641.625 819.5 636.375 C 817 632.375 812 627.375 796 627.375 C 785.25 627.375 778.625 629.375 771.5 631.5 L 770.75 632.5 L 770.125 646.125 L 771.125 646.625 C 775.5 644.875 783.625 641.625 792 641.625 C 796.625 641.625 798.5 642.375 800.125 644 C 801.375 645.25 801.75 647.5 801.75 649.375 C 786.75 651.375 779.75 652.75 772.25 657.375 C 765.25 661.75 762.875 668.875 762.875 674.5 C 762.875 687.875 772.5 696.5 784.75 696.5 C 794.125 696.5 799.5 692 802.125 689.875 L 802.125 694.5 L 802.875 695.375 C 811.875 695 814.625 694.875 822.75 695 L 823.375 694.125 C 822.5 681.875 822.5 678.75 822.5 667 L 822.625 657.75 M 802 677.625 C 799.375 679.125 796 680.875 791.875 680.875 C 787.375 680.875 783.625 678.5 783.625 673.25 C 783.625 665 793.5 663.625 802 662.5 Z M 898.5 694.25 C 898 683 897.625 675.5 897.625 659.125 C 897.625 626.125 898.125 612.5 898.625 596 L 897.75 595.25 L 877.125 598.5 L 876.5 599.25 C 877.25 611 877.375 614.125 877.25 628.375 C 867.875 628.125 856.125 627.875 846.625 635.375 C 837.875 642.125 834.25 652.5 834.25 665.375 C 834.25 675.125 836.875 684.875 844.25 691 C 849.75 695.5 856.5 696.5 860.625 696.5 C 869.5 696.5 874.125 692.375 877.125 689.75 L 876.875 694.625 L 877.5 695.375 C 886.125 695 888.5 695 897.875 695 L 898.5 694.25 M 877.25 643.375 C 877.375 660 877.25 663.25 876.875 678.375 C 874.375 679.875 871.875 681.375 868.375 681.375 C 856.25 681.375 856.25 665.875 856.25 663.375 C 856.25 653.75 859 643 873 643 C 874.375 643 875.5 643.125 877.25 643.375 Z M 905.25 695 "/>
<path fill-rule="nonzero" fill="rgb(34.901961%, 14.901961%, 14.901961%)" fill-opacity="1" d="M 342.5625 756.375 C 329.5625 756.75 327.4375 756.75 313.5625 756.75 L 312.8125 757.5 L 307.0625 777.75 L 302.0625 795.875 L 296.1875 817.625 L 290.6875 795.25 L 287.1875 781.125 L 280.9375 757.125 L 280.3125 756.375 C 266.9375 756.75 264.6875 756.75 250.6875 756.75 L 249.9375 757.5 C 248.6875 794.875 248.1875 804.5 245.4375 844.625 L 246.0625 845.375 C 254.0625 845 256.4375 844.875 263.6875 845 L 264.4375 844.25 L 264.8125 820.375 L 265.5625 796.125 L 266.0625 772.5 L 271.5625 794.625 L 276.3125 812.375 L 284.6875 844.625 L 285.4375 845.375 C 293.1875 845 295.3125 844.875 304.0625 845 L 304.8125 844.25 L 312.0625 817.625 L 317.0625 799.375 L 324.0625 773.125 L 324.0625 795.5 L 324.3125 814.625 L 324.3125 844.625 L 324.9375 845.375 C 333.5625 845 336.9375 844.875 346.5625 845 L 347.1875 844.25 C 346.4375 830 345.5625 815.625 345.0625 801.25 C 344.6875 793.375 344.4375 785.5 344.0625 777.625 C 343.4375 766 343.3125 764.5 343.3125 757.125 Z M 421.3125 778.125 L 400.9375 779.125 L 400.0625 779.875 C 400.9375 794 400.9375 814 400.9375 816 C 400.9375 819.625 400.9375 821.625 400.8125 826.625 C 397.4375 828.875 394.8125 830.75 391.4375 830.75 C 382.4375 830.75 382.4375 821.25 382.4375 813.875 C 382.4375 810.75 382.4375 807.5 382.5625 804.375 L 382.8125 779.125 L 381.9375 778.125 L 361.3125 779.125 L 360.4375 779.875 C 361.1875 790.375 361.3125 793.875 361.3125 806.5 L 361.3125 815.25 C 361.1875 828.875 361.8125 834.625 366.3125 839.875 C 370.4375 844.5 376.4375 846.5 382.6875 846.5 C 391.5625 846.5 396.6875 842.5 401.1875 839 L 401.0625 844.625 L 401.9375 845.375 C 411.0625 845 413.8125 845 421.9375 845 L 422.6875 844.25 C 422.0625 835.375 421.8125 830.625 421.8125 814.375 C 421.8125 802.625 421.9375 790.875 422.1875 779.125 Z M 463.0625 801.875 C 458.8125 800.375 455.4375 799 455.4375 795.5 C 455.4375 794 456.4375 789.875 464.1875 789.875 C 471.8125 789.875 476.6875 793.125 479.8125 795.125 L 480.9375 794.75 L 482.1875 781.125 L 481.5625 780.375 C 475.6875 778.75 470.5625 777.25 462.4375 777.25 C 456.3125 777.25 444.0625 777.75 437.5625 787.125 C 435.9375 789.375 434.1875 793.125 434.1875 798.125 C 434.1875 811.5 444.5625 815.5 450.4375 817.75 L 455.1875 819.5 C 458.5625 820.625 464.0625 822.5 464.0625 827 C 464.0625 830.125 461.1875 833.5 454.1875 833.5 C 450.6875 833.5 445.5625 832.375 440.9375 830 C 438.8125 828.875 437.8125 828 435.9375 826.5 L 434.8125 827 C 434.5625 833.5 434.4375 834.875 433.9375 841.125 L 434.5625 842.25 C 440.6875 844.5 445.9375 846.5 455.0625 846.5 C 464.5625 846.5 483.3125 844.75 485.5625 826.875 C 485.6875 825.875 485.6875 825 485.6875 824.125 C 485.6875 810.375 476.0625 806.75 469.1875 804.125 Z M 552.1875 826.5 C 547.4375 829 541.8125 831.875 532.6875 831.875 C 525.1875 831.875 520.0625 829.5 517.0625 825 C 515.1875 822.375 514.8125 819.875 514.3125 817.375 L 554.6875 816.625 L 555.4375 815.75 C 555.3125 809.625 555.1875 803.375 553.4375 797.125 C 549.0625 782.375 539.4375 779.375 535.1875 778.375 C 532.0625 777.5 529.1875 777.25 526.3125 777.25 C 506.6875 777.25 493.6875 790.125 493.6875 811.75 C 493.6875 817.625 494.6875 823.75 496.6875 828.125 C 503.9375 845 520.9375 846.5 529.9375 846.5 C 540.3125 846.5 544.8125 844.625 551.4375 842 L 552.1875 841 L 553.0625 826.875 L 552.1875 826.5 M 514.3125 804.125 C 514.6875 800.25 515.5625 795 520.3125 792 C 521.8125 791 523.5625 790.625 525.3125 790.625 C 529.4375 790.625 531.9375 792.75 533.3125 795 C 535.0625 797.75 535.1875 800.75 535.1875 803.625 Z M 626.9375 778.125 L 606.5625 779.125 L 605.6875 779.875 C 606.5625 794 606.5625 814 606.5625 816 C 606.5625 819.625 606.5625 821.625 606.4375 826.625 C 603.0625 828.875 600.4375 830.75 597.0625 830.75 C 588.0625 830.75 588.0625 821.25 588.0625 813.875 C 588.0625 810.75 588.0625 807.5 588.1875 804.375 L 588.4375 779.125 L 587.5625 778.125 L 566.9375 779.125 L 566.0625 779.875 C 566.8125 790.375 566.9375 793.875 566.9375 806.5 L 566.9375 815.25 C 566.8125 828.875 567.4375 834.625 571.9375 839.875 C 576.0625 844.5 582.0625 846.5 588.3125 846.5 C 597.1875 846.5 602.3125 842.5 606.8125 839 L 606.6875 844.625 L 607.5625 845.375 C 616.6875 845 619.4375 845 627.5625 845 L 628.3125 844.25 C 627.6875 835.375 627.4375 830.625 627.4375 814.375 C 627.4375 802.625 627.5625 790.875 627.8125 779.125 Z M 740.0625 844.125 C 739.4375 832.5 739.3125 829.25 739.3125 815.125 L 739.3125 805.75 C 739.4375 797.375 739.5625 789.625 735.9375 784.375 C 731.0625 777.25 722.4375 777.25 720.4375 777.25 C 710.1875 777.25 703.3125 781.875 698.3125 785.375 C 696.5625 782.5 693.4375 777.25 683.4375 777.25 C 675.1875 777.25 669.8125 781 664.0625 785 L 664.0625 778 L 662.9375 776.875 C 653.1875 778.75 650.4375 779.25 641.6875 780.5 L 640.9375 781.375 C 641.9375 791.375 642.6875 798.25 642.6875 823 C 642.6875 830.125 642.5625 837.375 642.5625 844.5 L 643.1875 845.25 C 651.1875 845 653.9375 844.875 664.3125 844.875 L 665.0625 844.125 C 664.1875 824.875 664.0625 819.125 663.9375 797.375 C 666.5625 795.5 669.4375 793.875 672.5625 793.875 C 680.3125 793.875 680.5625 802.75 680.5625 813.5 C 680.5625 831.625 680.4375 834.375 680.1875 844.5 L 680.9375 845.375 C 690.4375 844.875 693.0625 844.875 701.6875 844.875 L 702.4375 844.125 C 701.6875 832.25 701.5625 828.75 701.4375 813.625 L 701.4375 809 L 701.3125 796.375 C 703.4375 795 706.1875 793.25 709.9375 793.25 C 717.0625 793.25 718.1875 800 718.1875 810.75 C 718.1875 813.125 718.0625 815.5 718.0625 817.875 C 717.9375 822.125 717.8125 840.75 717.6875 844.5 L 718.4375 845.25 C 727.8125 844.875 730.5625 844.875 739.3125 844.875 Z M 746.9375 845 "/>
</svg>
