<?xml version="1.0" encoding="UTF-8"?>
<svg xmlns="http://www.w3.org/2000/svg" xmlns:xlink="http://www.w3.org/1999/xlink" width="975" height="1300" viewBox="0 0 975 1300">
<path fill-rule="nonzero" fill="rgb(34.901961%, 14.901961%, 14.901961%)" fill-opacity="1" d="M 338.0625 398.25 L 338.8125 397.625 L 339.6875 382 L 339.0625 381.625 L 277.1875 381.625 L 276.3125 382.375 L 275.4375 397.75 L 276.0625 398.5 L 296.4375 398 C 296.5625 430.75 296.5625 438.625 295.5625 469.625 L 296.3125 470.375 C 305.5625 470 308.0625 469.875 318.4375 469.875 L 319.1875 469.125 C 318.5625 451.625 318.3125 434.125 318.3125 416.5 C 318.3125 409.625 318.4375 405.75 318.6875 397.75 Z M 370.3125 469.125 C 369.6875 459.5 369.1875 452.125 369.1875 434.875 C 369.1875 424.25 369.4375 413.5 369.5625 402.875 L 368.6875 401.875 L 347.1875 405.625 L 346.4375 406.375 C 347.4375 415.875 347.8125 420.25 347.8125 438 C 347.8125 451.625 347.4375 459.25 347.0625 469.5 L 347.8125 470.375 C 356.8125 470 359.3125 469.875 369.4375 470 L 370.3125 469.125 M 368.3125 389.875 L 368.6875 372.875 L 367.9375 372.125 L 347.5625 374.625 L 346.8125 375.5 C 347.0625 380 347.1875 382.625 347.1875 385.625 C 347.1875 388 347.1875 390.5 347.0625 392.875 L 347.9375 393.625 C 356.4375 392.125 358.8125 391.875 367.6875 390.75 Z M 404.8125 401.875 C 395.5625 403.75 393.6875 404.125 383.5625 405.625 L 382.8125 406.375 C 383.8125 419.375 384.3125 435.5 384.4375 446.25 C 384.5625 450.5 384.8125 465.25 384.8125 468.875 C 384.8125 478.875 383.5625 484.75 373.3125 486.875 L 372.6875 487.875 L 375.9375 500.875 L 376.8125 501.375 C 381.5625 500.375 393.5625 497.875 400.9375 488.25 C 406.0625 481.375 406.1875 474.25 405.9375 464.375 L 405.8125 455.625 C 405.5625 447.5 405.4375 439.375 405.4375 431.25 C 405.4375 421.875 405.6875 412.625 405.8125 403 L 404.8125 401.875 M 405.3125 390.25 L 405.3125 373.125 L 404.5625 372.25 L 384.3125 374.75 L 383.4375 375.625 L 383.8125 392.75 L 384.6875 393.375 C 393.9375 392.125 396.6875 391.75 404.5625 390.875 Z M 480.6875 403.125 L 460.3125 404.125 L 459.4375 404.875 C 460.3125 419 460.3125 439 460.3125 441 C 460.3125 444.625 460.3125 446.625 460.1875 451.625 C 456.8125 453.875 454.1875 455.75 450.8125 455.75 C 441.8125 455.75 441.8125 446.25 441.8125 438.875 C 441.8125 435.75 441.8125 432.5 441.9375 429.375 L 442.1875 404.125 L 441.3125 403.125 L 420.6875 404.125 L 419.8125 404.875 C 420.5625 415.375 420.6875 418.875 420.6875 431.5 L 420.6875 440.25 C 420.5625 453.875 421.1875 459.625 425.6875 464.875 C 429.8125 469.5 435.8125 471.5 442.0625 471.5 C 450.9375 471.5 456.0625 467.5 460.5625 464 L 460.4375 469.625 L 461.3125 470.375 C 470.4375 470 473.1875 470 481.3125 470 L 482.0625 469.25 C 481.4375 460.375 481.1875 455.625 481.1875 439.375 C 481.1875 427.625 481.3125 415.875 481.5625 404.125 Z M 551.8125 432.75 C 551.9375 421.5 551.9375 416.625 548.6875 411.375 C 546.1875 407.375 541.1875 402.375 525.1875 402.375 C 514.4375 402.375 507.8125 404.375 500.6875 406.5 L 499.9375 407.5 L 499.3125 421.125 L 500.3125 421.625 C 504.6875 419.875 512.8125 416.625 521.1875 416.625 C 525.8125 416.625 527.6875 417.375 529.3125 419 C 530.5625 420.25 530.9375 422.5 530.9375 424.375 C 515.9375 426.375 508.9375 427.75 501.4375 432.375 C 494.4375 436.75 492.0625 443.875 492.0625 449.5 C 492.0625 462.875 501.6875 471.5 513.9375 471.5 C 523.3125 471.5 528.6875 467 531.3125 464.875 L 531.3125 469.5 L 532.0625 470.375 C 541.0625 470 543.8125 469.875 551.9375 470 L 552.5625 469.125 C 551.6875 456.875 551.6875 453.75 551.6875 442 L 551.8125 432.75 M 531.1875 452.625 C 528.5625 454.125 525.1875 455.875 521.0625 455.875 C 516.5625 455.875 512.8125 453.5 512.8125 448.25 C 512.8125 440 522.6875 438.625 531.1875 437.5 Z M 627.6875 469.125 C 627.0625 458.125 627.0625 454.625 626.8125 442.375 L 626.8125 432.625 C 626.6875 420.625 626.5625 414.875 623.4375 409.75 C 619.5625 403.25 612.4375 402.25 607.9375 402.25 C 600.3125 402.25 593.6875 406.25 587.9375 409.625 L 588.1875 402.75 L 586.9375 401.875 C 577.3125 403.875 575.1875 404.25 565.8125 405.5 L 565.0625 406.375 C 566.0625 417.25 566.8125 425.125 566.8125 445.5 C 566.8125 453.5 566.6875 461.5 566.5625 469.5 L 567.3125 470.25 C 576.3125 469.875 578.1875 469.875 588.1875 469.875 L 588.9375 469.125 C 588.1875 449.875 588.0625 445 587.9375 422.625 C 590.5625 420.875 593.5625 418.75 597.5625 418.75 C 604.4375 418.75 605.0625 426.125 605.4375 430.625 C 605.6875 434.75 605.8125 451.875 605.8125 456.625 C 605.8125 460.875 605.6875 465.25 605.6875 469.5 L 606.4375 470.25 C 614.6875 470 616.8125 469.875 626.8125 469.875 Z M 697.5625 432.75 C 697.6875 421.5 697.6875 416.625 694.4375 411.375 C 691.9375 407.375 686.9375 402.375 670.9375 402.375 C 660.1875 402.375 653.5625 404.375 646.4375 406.5 L 645.6875 407.5 L 645.0625 421.125 L 646.0625 421.625 C 650.4375 419.875 658.5625 416.625 666.9375 416.625 C 671.5625 416.625 673.4375 417.375 675.0625 419 C 676.3125 420.25 676.6875 422.5 676.6875 424.375 C 661.6875 426.375 654.6875 427.75 647.1875 432.375 C 640.1875 436.75 637.8125 443.875 637.8125 449.5 C 637.8125 462.875 647.4375 471.5 659.6875 471.5 C 669.0625 471.5 674.4375 467 677.0625 464.875 L 677.0625 469.5 L 677.8125 470.375 C 686.8125 470 689.5625 469.875 697.6875 470 L 698.3125 469.125 C 697.4375 456.875 697.4375 453.75 697.4375 442 L 697.5625 432.75 M 676.9375 452.625 C 674.3125 454.125 670.9375 455.875 666.8125 455.875 C 662.3125 455.875 658.5625 453.5 658.5625 448.25 C 658.5625 440 668.4375 438.625 676.9375 437.5 Z M 704.6875 470 "/>
<path fill-rule="nonzero" fill="rgb(34.901961%, 14.901961%, 14.901961%)" fill-opacity="1" d="M 239.5 603.125 C 224.75 603.875 221.25 604 205.25 604 L 205 582.125 L 234.25 582.125 L 235.125 581.375 L 235.875 567.25 L 235.25 566.5 L 205 567 L 205 547.125 C 219.125 547.125 222 547.125 237.125 547.5 L 237.75 546.75 L 238.625 532.25 L 238 531.75 L 183.125 531.75 L 182.375 532.5 C 183.125 544.625 183.375 549.25 183.375 582.75 C 183.375 598.5 183.125 606.375 182.75 619.5 L 183.375 620 L 238.375 620 L 239.375 619.25 L 240.25 604 Z M 278.625 576.875 C 274.375 575.375 271 574 271 570.5 C 271 569 272 564.875 279.75 564.875 C 287.375 564.875 292.25 568.125 295.375 570.125 L 296.5 569.75 L 297.75 556.125 L 297.125 555.375 C 291.25 553.75 286.125 552.25 278 552.25 C 271.875 552.25 259.625 552.75 253.125 562.125 C 251.5 564.375 249.75 568.125 249.75 573.125 C 249.75 586.5 260.125 590.5 266 592.75 L 270.75 594.5 C 274.125 595.625 279.625 597.5 279.625 602 C 279.625 605.125 276.75 608.5 269.75 608.5 C 266.25 608.5 261.125 607.375 256.5 605 C 254.375 603.875 253.375 603 251.5 601.5 L 250.375 602 C 250.125 608.5 250 609.875 249.5 616.125 L 250.125 617.25 C 256.25 619.5 261.5 621.5 270.625 621.5 C 280.125 621.5 298.875 619.75 301.125 601.875 C 301.25 600.875 301.25 600 301.25 599.125 C 301.25 585.375 291.625 581.75 284.75 579.125 Z M 347.25 605.625 C 345.125 606.25 343.625 606.75 341.5 606.75 C 335.125 606.75 334.625 602.75 334.375 600.875 C 334 597.625 334 590.75 334.125 585.75 L 334.375 568.125 L 345.625 568.625 L 346.375 567.875 L 347.625 554.5 L 346.875 553.75 L 334.375 553.75 L 334.75 532.75 L 333.875 532 C 325.375 534.5 323.125 535.125 314.25 537.375 L 313.75 538.25 L 313.875 553.875 L 307.125 553.625 L 306.375 554.25 L 305.25 567.625 L 306 568.375 L 313.875 568.125 L 313.5 588 C 313.375 591.125 313.25 594.25 313.25 597.5 C 313.25 609 313.5 621.375 333 621.375 C 337.875 621.375 341.75 620.625 346.125 619.875 L 347 619 L 348.25 606.125 Z M 416.5 553.125 L 396.125 554.125 L 395.25 554.875 C 396.125 569 396.125 589 396.125 591 C 396.125 594.625 396.125 596.625 396 601.625 C 392.625 603.875 390 605.75 386.625 605.75 C 377.625 605.75 377.625 596.25 377.625 588.875 C 377.625 585.75 377.625 582.5 377.75 579.375 L 378 554.125 L 377.125 553.125 L 356.5 554.125 L 355.625 554.875 C 356.375 565.375 356.5 568.875 356.5 581.5 L 356.5 590.25 C 356.375 603.875 357 609.625 361.5 614.875 C 365.625 619.5 371.625 621.5 377.875 621.5 C 386.75 621.5 391.875 617.5 396.375 614 L 396.25 619.625 L 397.125 620.375 C 406.25 620 409 620 417.125 620 L 417.875 619.25 C 417.25 610.375 417 605.625 417 589.375 C 417 577.625 417.125 565.875 417.375 554.125 Z M 487.625 582.75 C 487.75 571.5 487.75 566.625 484.5 561.375 C 482 557.375 477 552.375 461 552.375 C 450.25 552.375 443.625 554.375 436.5 556.5 L 435.75 557.5 L 435.125 571.125 L 436.125 571.625 C 440.5 569.875 448.625 566.625 457 566.625 C 461.625 566.625 463.5 567.375 465.125 569 C 466.375 570.25 466.75 572.5 466.75 574.375 C 451.75 576.375 444.75 577.75 437.25 582.375 C 430.25 586.75 427.875 593.875 427.875 599.5 C 427.875 612.875 437.5 621.5 449.75 621.5 C 459.125 621.5 464.5 617 467.125 614.875 L 467.125 619.5 L 467.875 620.375 C 476.875 620 479.625 619.875 487.75 620 L 488.375 619.125 C 487.5 606.875 487.5 603.75 487.5 592 L 487.625 582.75 M 467 602.625 C 464.375 604.125 461 605.875 456.875 605.875 C 452.375 605.875 448.625 603.5 448.625 598.25 C 448.625 590 458.5 588.625 467 587.5 Z M 538.375 573.625 L 541.875 553.25 L 541.125 552.375 C 540.25 552.375 539.375 552.25 538.5 552.25 C 533.375 552.25 527.625 555.125 523.625 564.375 L 524 552.875 L 523 551.875 C 513.75 553.875 511.375 554.25 502.25 555.625 L 501.5 556.375 C 502.25 565.75 502.625 571.375 502.625 588.75 C 502.625 599 502.5 609.25 502.25 619.625 L 503 620.375 C 512.25 620 514.25 619.875 524.25 620 L 524.875 619.125 C 524.375 609 523.625 594.875 523.625 586.25 C 523.625 580.625 523.625 572.375 532.125 572.375 C 534.25 572.375 535.5 573.125 537.25 574.125 Z M 605 553.375 L 587.625 553.75 L 586.625 554.625 C 584.5 563.25 584 565.125 581 574.875 L 577.75 585.625 L 575 595 L 572.625 586.125 L 569 572.875 L 564 553.875 L 563 553.125 C 553.25 553.875 551.125 554 540.875 554.25 L 540.25 555.125 C 544.75 567 556.375 598.375 564.125 622.375 C 559 635.375 558 637.625 552.375 650 L 553 651 C 556.125 650.875 559.625 650.75 562.875 650.75 C 566 650.75 569.25 650.875 572.375 650.875 L 573.25 650.125 C 580.125 623.125 583.5 612.625 600 569.125 C 601.875 564.125 603.75 559.25 605.5 554.375 Z M 723.25 531.375 C 715.375 531.75 713.25 531.875 705.5 531.75 L 704.875 532.5 L 705.75 549.375 L 706.25 566.625 L 706.75 587.25 C 703.125 581.125 702.5 580.125 696.125 570.625 L 684.75 554 C 675.375 539.75 673.5 537 670.375 532 L 669.5 531.375 C 659.625 531.875 658 531.875 648.875 531.75 L 648.25 532.5 C 648.875 551.875 649.25 566.25 649.25 583 C 649.25 595.25 649 607.5 648.875 619.625 L 649.5 620.375 C 657.875 620 660.5 620 667.75 620 L 668.375 619.25 L 667.125 591.875 L 666.75 576.5 L 666 559.75 C 671.875 569.5 673.875 572.75 682.375 585.125 L 694.875 603.5 L 706 619.75 L 706.875 620.375 C 714.5 620 716.75 620 723.375 620 L 724 619.375 C 723.875 601.25 723.75 589 723.75 574 C 723.75 560 723.875 546.125 724 532.125 Z M 756 531.5 L 740.125 531.75 L 739.375 532.5 C 739.875 548.75 740.25 559.625 740.25 574 C 740.25 589.25 739.875 604.375 739.5 619.625 L 740.25 620.375 C 749.5 620 751.5 619.875 761.5 620 L 762.125 619.25 C 761.625 605.625 761.625 602.5 761.625 589.75 C 775.625 589.875 790.625 589.875 799.625 578.875 C 803.125 574.625 806.125 567.5 806.125 558.75 C 806.125 553.375 804.875 541.5 794.5 535.625 C 787 531.25 776.375 531.25 767 531.25 L 756 531.5 M 761.625 546.625 C 764.375 546.5 767 546.5 769.75 546.5 C 780.75 546.75 783.75 552.375 783.75 559.625 C 783.75 561.375 783.75 568.625 777.125 572.25 C 773.75 574.125 769.125 574.375 761.625 574.375 Z M 807.25 620 "/>
<path fill-rule="nonzero" fill="rgb(34.901961%, 14.901961%, 14.901961%)" fill-opacity="1" d="M 282.3125 681.5 L 266.4375 681.75 L 265.6875 682.5 C 266.1875 698.75 266.5625 709.625 266.5625 724 C 266.5625 739.25 266.1875 754.375 265.8125 769.625 L 266.5625 770.375 C 275.8125 770 277.8125 769.875 287.8125 770 L 288.4375 769.25 C 287.9375 755.625 287.9375 752.5 287.9375 739.75 C 301.9375 739.875 316.9375 739.875 325.9375 728.875 C 329.4375 724.625 332.4375 717.5 332.4375 708.75 C 332.4375 703.375 331.1875 691.5 320.8125 685.625 C 313.3125 681.25 302.6875 681.25 293.3125 681.25 L 282.3125 681.5 M 287.9375 696.625 C 290.6875 696.5 293.3125 696.5 296.0625 696.5 C 307.0625 696.75 310.0625 702.375 310.0625 709.625 C 310.0625 711.375 310.0625 718.625 303.4375 722.25 C 300.0625 724.125 295.4375 724.375 287.9375 724.375 Z M 404.6875 736.75 C 404.6875 731.875 404.6875 711.625 387.1875 704.75 C 381.6875 702.625 375.1875 702.375 371.9375 702.375 C 350.1875 702.375 337.9375 714 337.9375 737 C 337.9375 745 339.1875 753.125 343.8125 759.875 C 347.0625 764.75 353.1875 771.5 371.0625 771.5 C 397.5625 771.5 404.6875 755.5 404.6875 736.75 M 383.0625 736.625 C 383.0625 746.875 381.6875 758.25 371.3125 758.25 C 368.0625 758.25 365.8125 756.75 364.3125 755.375 C 362.1875 753.25 359.8125 749 359.8125 736.875 C 359.8125 733.25 359.8125 725.25 362.3125 720.875 C 364.1875 717.5 367.4375 715.25 371.4375 715.25 C 374.9375 715.25 377.8125 717.125 379.4375 719.125 C 382.4375 722.75 383.0625 729.875 383.0625 736.625 Z M 439.1875 769.125 C 438.5625 759.5 438.0625 752.125 438.0625 734.875 C 438.0625 724.25 438.3125 713.5 438.4375 702.875 L 437.5625 701.875 L 416.0625 705.625 L 415.3125 706.375 C 416.3125 715.875 416.6875 720.25 416.6875 738 C 416.6875 751.625 416.3125 759.25 415.9375 769.5 L 416.6875 770.375 C 425.6875 770 428.1875 769.875 438.3125 770 L 439.1875 769.125 M 437.1875 689.875 L 437.5625 672.875 L 436.8125 672.125 L 416.4375 674.625 L 415.6875 675.5 C 415.9375 680 416.0625 682.625 416.0625 685.625 C 416.0625 688 416.0625 690.5 415.9375 692.875 L 416.8125 693.625 C 425.3125 692.125 427.6875 691.875 436.5625 690.75 Z M 514.3125 769.125 C 513.6875 758.125 513.6875 754.625 513.4375 742.375 L 513.4375 732.625 C 513.3125 720.625 513.1875 714.875 510.0625 709.75 C 506.1875 703.25 499.0625 702.25 494.5625 702.25 C 486.9375 702.25 480.3125 706.25 474.5625 709.625 L 474.8125 702.75 L 473.5625 701.875 C 463.9375 703.875 461.8125 704.25 452.4375 705.5 L 451.6875 706.375 C 452.6875 717.25 453.4375 725.125 453.4375 745.5 C 453.4375 753.5 453.3125 761.5 453.1875 769.5 L 453.9375 770.25 C 462.9375 769.875 464.8125 769.875 474.8125 769.875 L 475.5625 769.125 C 474.8125 749.875 474.6875 745 474.5625 722.625 C 477.1875 720.875 480.1875 718.75 484.1875 718.75 C 491.0625 718.75 491.6875 726.125 492.0625 730.625 C 492.3125 734.75 492.4375 751.875 492.4375 756.625 C 492.4375 760.875 492.3125 765.25 492.3125 769.5 L 493.0625 770.25 C 501.3125 770 503.4375 769.875 513.4375 769.875 Z M 563.5625 755.625 C 561.4375 756.25 559.9375 756.75 557.8125 756.75 C 551.4375 756.75 550.9375 752.75 550.6875 750.875 C 550.3125 747.625 550.3125 740.75 550.4375 735.75 L 550.6875 718.125 L 561.9375 718.625 L 562.6875 717.875 L 563.9375 704.5 L 563.1875 703.75 L 550.6875 703.75 L 551.0625 682.75 L 550.1875 682 C 541.6875 684.5 539.4375 685.125 530.5625 687.375 L 530.0625 688.25 L 530.1875 703.875 L 523.4375 703.625 L 522.6875 704.25 L 521.5625 717.625 L 522.3125 718.375 L 530.1875 718.125 L 529.8125 738 C 529.6875 741.125 529.5625 744.25 529.5625 747.5 C 529.5625 759 529.8125 771.375 549.3125 771.375 C 554.1875 771.375 558.0625 770.625 562.4375 769.875 L 563.3125 769 L 564.5625 756.125 Z M 672.9375 736.75 C 672.9375 731.875 672.9375 711.625 655.4375 704.75 C 649.9375 702.625 643.4375 702.375 640.1875 702.375 C 618.4375 702.375 606.1875 714 606.1875 737 C 606.1875 745 607.4375 753.125 612.0625 759.875 C 615.3125 764.75 621.4375 771.5 639.3125 771.5 C 665.8125 771.5 672.9375 755.5 672.9375 736.75 M 651.3125 736.625 C 651.3125 746.875 649.9375 758.25 639.5625 758.25 C 636.3125 758.25 634.0625 756.75 632.5625 755.375 C 630.4375 753.25 628.0625 749 628.0625 736.875 C 628.0625 733.25 628.0625 725.25 630.5625 720.875 C 632.4375 717.5 635.6875 715.25 639.6875 715.25 C 643.1875 715.25 646.0625 717.125 647.6875 719.125 C 650.6875 722.75 651.3125 729.875 651.3125 736.625 Z M 709.8125 769.125 C 708.5625 746.375 708.4375 740.25 708.5625 718.125 L 718.4375 718.625 L 719.3125 717.75 L 720.4375 704.5 L 719.8125 703.75 L 708.4375 703.75 L 708.5625 700.875 C 708.5625 693.25 708.6875 686.25 716.8125 686.25 C 718.0625 686.25 719.3125 686.5 720.5625 686.625 L 721.4375 686.125 L 722.5625 672 L 721.9375 671.125 C 718.9375 670.875 716.0625 670.75 713.1875 670.75 C 706.8125 670.75 700.3125 671.5 695.3125 675.25 C 687.5625 681 687.6875 690 687.6875 696.25 L 687.8125 703.75 L 679.6875 703.625 L 678.9375 704.25 L 677.6875 717.5 L 678.4375 718.25 L 687.9375 718 C 687.9375 741.625 687.9375 747.25 687.1875 769.5 L 687.9375 770.375 C 696.4375 770 699.6875 769.875 709.0625 769.875 Z M 721.5625 770 "/>
<path fill-rule="nonzero" fill="rgb(34.901961%, 14.901961%, 14.901961%)" fill-opacity="1" d="M 296.0625 831.375 C 285.3125 831.875 282.4375 831.875 273.4375 831.75 L 272.9375 832.5 C 273.6875 846 274.0625 852.375 274.0625 884.25 C 274.0625 899 273.8125 906.625 273.3125 919.625 L 273.9375 920.375 C 283.3125 920 285.8125 920 296.1875 920 L 296.9375 919.25 C 296.3125 907.75 296.0625 902 296.0625 883.875 C 296.0625 866.625 296.3125 849.375 296.6875 832.125 Z M 373.3125 919.125 C 372.6875 908.125 372.6875 904.625 372.4375 892.375 L 372.4375 882.625 C 372.3125 870.625 372.1875 864.875 369.0625 859.75 C 365.1875 853.25 358.0625 852.25 353.5625 852.25 C 345.9375 852.25 339.3125 856.25 333.5625 859.625 L 333.8125 852.75 L 332.5625 851.875 C 322.9375 853.875 320.8125 854.25 311.4375 855.5 L 310.6875 856.375 C 311.6875 867.25 312.4375 875.125 312.4375 895.5 C 312.4375 903.5 312.3125 911.5 312.1875 919.5 L 312.9375 920.25 C 321.9375 919.875 323.8125 919.875 333.8125 919.875 L 334.5625 919.125 C 333.8125 899.875 333.6875 895 333.5625 872.625 C 336.1875 870.875 339.1875 868.75 343.1875 868.75 C 350.0625 868.75 350.6875 876.125 351.0625 880.625 C 351.3125 884.75 351.4375 901.875 351.4375 906.625 C 351.4375 910.875 351.3125 915.25 351.3125 919.5 L 352.0625 920.25 C 360.3125 920 362.4375 919.875 372.4375 919.875 Z M 422.5625 905.625 C 420.4375 906.25 418.9375 906.75 416.8125 906.75 C 410.4375 906.75 409.9375 902.75 409.6875 900.875 C 409.3125 897.625 409.3125 890.75 409.4375 885.75 L 409.6875 868.125 L 420.9375 868.625 L 421.6875 867.875 L 422.9375 854.5 L 422.1875 853.75 L 409.6875 853.75 L 410.0625 832.75 L 409.1875 832 C 400.6875 834.5 398.4375 835.125 389.5625 837.375 L 389.0625 838.25 L 389.1875 853.875 L 382.4375 853.625 L 381.6875 854.25 L 380.5625 867.625 L 381.3125 868.375 L 389.1875 868.125 L 388.8125 888 C 388.6875 891.125 388.5625 894.25 388.5625 897.5 C 388.5625 909 388.8125 921.375 408.3125 921.375 C 413.1875 921.375 417.0625 920.625 421.4375 919.875 L 422.3125 919 L 423.5625 906.125 Z M 487.3125 901.5 C 482.5625 904 476.9375 906.875 467.8125 906.875 C 460.3125 906.875 455.1875 904.5 452.1875 900 C 450.3125 897.375 449.9375 894.875 449.4375 892.375 L 489.8125 891.625 L 490.5625 890.75 C 490.4375 884.625 490.3125 878.375 488.5625 872.125 C 484.1875 857.375 474.5625 854.375 470.3125 853.375 C 467.1875 852.5 464.3125 852.25 461.4375 852.25 C 441.8125 852.25 428.8125 865.125 428.8125 886.75 C 428.8125 892.625 429.8125 898.75 431.8125 903.125 C 439.0625 920 456.0625 921.5 465.0625 921.5 C 475.4375 921.5 479.9375 919.625 486.5625 917 L 487.3125 916 L 488.1875 901.875 L 487.3125 901.5 M 449.4375 879.125 C 449.8125 875.25 450.6875 870 455.4375 867 C 456.9375 866 458.6875 865.625 460.4375 865.625 C 464.5625 865.625 467.0625 867.75 468.4375 870 C 470.1875 872.75 470.3125 875.75 470.3125 878.625 Z M 538.1875 873.625 L 541.6875 853.25 L 540.9375 852.375 C 540.0625 852.375 539.1875 852.25 538.3125 852.25 C 533.1875 852.25 527.4375 855.125 523.4375 864.375 L 523.8125 852.875 L 522.8125 851.875 C 513.5625 853.875 511.1875 854.25 502.0625 855.625 L 501.3125 856.375 C 502.0625 865.75 502.4375 871.375 502.4375 888.75 C 502.4375 899 502.3125 909.25 502.0625 919.625 L 502.8125 920.375 C 512.0625 920 514.0625 919.875 524.0625 920 L 524.6875 919.125 C 524.1875 909 523.4375 894.875 523.4375 886.25 C 523.4375 880.625 523.4375 872.375 531.9375 872.375 C 534.0625 872.375 535.3125 873.125 537.0625 874.125 Z M 604.4375 901.5 C 599.6875 904 594.0625 906.875 584.9375 906.875 C 577.4375 906.875 572.3125 904.5 569.3125 900 C 567.4375 897.375 567.0625 894.875 566.5625 892.375 L 606.9375 891.625 L 607.6875 890.75 C 607.5625 884.625 607.4375 878.375 605.6875 872.125 C 601.3125 857.375 591.6875 854.375 587.4375 853.375 C 584.3125 852.5 581.4375 852.25 578.5625 852.25 C 558.9375 852.25 545.9375 865.125 545.9375 886.75 C 545.9375 892.625 546.9375 898.75 548.9375 903.125 C 556.1875 920 573.1875 921.5 582.1875 921.5 C 592.5625 921.5 597.0625 919.625 603.6875 917 L 604.4375 916 L 605.3125 901.875 L 604.4375 901.5 M 566.5625 879.125 C 566.9375 875.25 567.8125 870 572.5625 867 C 574.0625 866 575.8125 865.625 577.5625 865.625 C 581.6875 865.625 584.1875 867.75 585.5625 870 C 587.3125 872.75 587.4375 875.75 587.4375 878.625 Z M 645.4375 876.875 C 641.1875 875.375 637.8125 874 637.8125 870.5 C 637.8125 869 638.8125 864.875 646.5625 864.875 C 654.1875 864.875 659.0625 868.125 662.1875 870.125 L 663.3125 869.75 L 664.5625 856.125 L 663.9375 855.375 C 658.0625 853.75 652.9375 852.25 644.8125 852.25 C 638.6875 852.25 626.4375 852.75 619.9375 862.125 C 618.3125 864.375 616.5625 868.125 616.5625 873.125 C 616.5625 886.5 626.9375 890.5 632.8125 892.75 L 637.5625 894.5 C 640.9375 895.625 646.4375 897.5 646.4375 902 C 646.4375 905.125 643.5625 908.5 636.5625 908.5 C 633.0625 908.5 627.9375 907.375 623.3125 905 C 621.1875 903.875 620.1875 903 618.3125 901.5 L 617.1875 902 C 616.9375 908.5 616.8125 909.875 616.3125 916.125 L 616.9375 917.25 C 623.0625 919.5 628.3125 921.5 637.4375 921.5 C 646.9375 921.5 665.6875 919.75 667.9375 901.875 C 668.0625 900.875 668.0625 900 668.0625 899.125 C 668.0625 885.375 658.4375 881.75 651.5625 879.125 Z M 714.0625 905.625 C 711.9375 906.25 710.4375 906.75 708.3125 906.75 C 701.9375 906.75 701.4375 902.75 701.1875 900.875 C 700.8125 897.625 700.8125 890.75 700.9375 885.75 L 701.1875 868.125 L 712.4375 868.625 L 713.1875 867.875 L 714.4375 854.5 L 713.6875 853.75 L 701.1875 853.75 L 701.5625 832.75 L 700.6875 832 C 692.1875 834.5 689.9375 835.125 681.0625 837.375 L 680.5625 838.25 L 680.6875 853.875 L 673.9375 853.625 L 673.1875 854.25 L 672.0625 867.625 L 672.8125 868.375 L 680.6875 868.125 L 680.3125 888 C 680.1875 891.125 680.0625 894.25 680.0625 897.5 C 680.0625 909 680.3125 921.375 699.8125 921.375 C 704.6875 921.375 708.5625 920.625 712.9375 919.875 L 713.8125 919 L 715.0625 906.125 Z M 715.8125 920 "/>
</svg>
