<?xml version="1.0" encoding="UTF-8"?>
<svg xmlns="http://www.w3.org/2000/svg" xmlns:xlink="http://www.w3.org/1999/xlink" width="975" height="1300" viewBox="0 0 975 1300">
<path fill-rule="nonzero" fill="rgb(34.901961%, 14.901961%, 14.901961%)" fill-opacity="1" d="M 162.375 543.25 C 160.25 540.5 157.75 538.125 154.875 536.25 C 148.5 532 139.75 529.875 131 529.875 C 123.25 529.875 115.375 531.25 108.625 535.125 C 93.375 543.875 90.625 558.375 89.625 563.625 C 88.875 567.875 88.5 572.125 88.5 576.375 C 88.5 584.875 89.5 600.875 101.25 611.75 C 110.75 620.625 123.75 621.875 130.125 621.875 C 139.75 621.875 149.5 619.625 156.875 613.5 C 169.25 603.25 171.75 586.25 171.75 575.625 C 171.75 556 165.5 547.125 162.375 543.25 M 142.625 551.25 C 145.125 554.125 146.25 557.75 147 561.375 C 148 566.125 148.25 570.625 148.375 573.75 C 148.875 592.5 144.875 606 130.375 606 C 113 606 111.875 585.75 111.875 574.5 C 111.875 559.5 115.5 551.75 121.375 548 C 124.75 546 128.125 545.5 130.5 545.5 C 135.25 545.5 139.625 547.625 142.625 551.25 Z M 233.375 602 C 230 604 226.75 606 220.375 606 C 206.25 606 203.375 594.25 203.375 586.75 C 203.375 577.625 207.375 567.125 219.5 567.125 C 225 567.125 228 569.125 231.75 571.625 L 233 571.25 C 233.5 564.625 233.625 562.875 234.625 556.25 L 234 555.5 C 228.5 553.75 223.75 552.25 216.5 552.25 C 187.125 552.25 181.375 574.5 181.375 587.25 C 181.375 601.625 188.875 621.125 217 621.125 C 223.625 621.125 227.875 619.875 233.125 618.375 L 233.875 617.625 L 234.375 602.625 Z M 308 586.75 C 308 581.875 308 561.625 290.5 554.75 C 285 552.625 278.5 552.375 275.25 552.375 C 253.5 552.375 241.25 564 241.25 587 C 241.25 595 242.5 603.125 247.125 609.875 C 250.375 614.75 256.5 621.5 274.375 621.5 C 300.875 621.5 308 605.5 308 586.75 M 286.375 586.625 C 286.375 596.875 285 608.25 274.625 608.25 C 271.375 608.25 269.125 606.75 267.625 605.375 C 265.5 603.25 263.125 599 263.125 586.875 C 263.125 583.25 263.125 575.25 265.625 570.875 C 267.5 567.5 270.75 565.25 274.75 565.25 C 278.25 565.25 281.125 567.125 282.75 569.125 C 285.75 572.75 286.375 579.875 286.375 586.625 Z M 354.875 605.625 C 352.75 606.25 351.25 606.75 349.125 606.75 C 342.75 606.75 342.25 602.75 342 600.875 C 341.625 597.625 341.625 590.75 341.75 585.75 L 342 568.125 L 353.25 568.625 L 354 567.875 L 355.25 554.5 L 354.5 553.75 L 342 553.75 L 342.375 532.75 L 341.5 532 C 333 534.5 330.75 535.125 321.875 537.375 L 321.375 538.25 L 321.5 553.875 L 314.75 553.625 L 314 554.25 L 312.875 567.625 L 313.625 568.375 L 321.5 568.125 L 321.125 588 C 321 591.125 320.875 594.25 320.875 597.5 C 320.875 609 321.125 621.375 340.625 621.375 C 345.5 621.375 349.375 620.625 353.75 619.875 L 354.625 619 L 355.875 606.125 Z M 386.75 619.125 C 386.125 609.5 385.625 602.125 385.625 584.875 C 385.625 574.25 385.875 563.5 386 552.875 L 385.125 551.875 L 363.625 555.625 L 362.875 556.375 C 363.875 565.875 364.25 570.25 364.25 588 C 364.25 601.625 363.875 609.25 363.5 619.5 L 364.25 620.375 C 373.25 620 375.75 619.875 385.875 620 L 386.75 619.125 M 384.75 539.875 L 385.125 522.875 L 384.375 522.125 L 364 524.625 L 363.25 525.5 C 363.5 530 363.625 532.625 363.625 535.625 C 363.625 538 363.625 540.5 363.5 542.875 L 364.375 543.625 C 372.875 542.125 375.25 541.875 384.125 540.75 Z M 422.625 619.125 C 422 604.75 421.375 591.625 421.375 552.125 C 421.375 540.25 421.5 534.625 422 521.125 L 421.125 520.25 L 399.75 523.625 L 399.25 524.375 C 400.5 539.625 400.625 543.75 400.875 564 C 401 571.375 401 578.75 401 586.125 C 401 599.625 400.75 607.125 400.25 619.5 L 401 620.375 C 409.375 620 412.75 619.875 421.875 620 Z M 459.125 619.125 C 458.5 604.75 457.875 591.625 457.875 552.125 C 457.875 540.25 458 534.625 458.5 521.125 L 457.625 520.25 L 436.25 523.625 L 435.75 524.375 C 437 539.625 437.125 543.75 437.375 564 C 437.5 571.375 437.5 578.75 437.5 586.125 C 437.5 599.625 437.25 607.125 436.75 619.5 L 437.5 620.375 C 445.875 620 449.25 619.875 458.375 620 Z M 537.25 586.75 C 537.25 581.875 537.25 561.625 519.75 554.75 C 514.25 552.625 507.75 552.375 504.5 552.375 C 482.75 552.375 470.5 564 470.5 587 C 470.5 595 471.75 603.125 476.375 609.875 C 479.625 614.75 485.75 621.5 503.625 621.5 C 530.125 621.5 537.25 605.5 537.25 586.75 M 515.625 586.625 C 515.625 596.875 514.25 608.25 503.875 608.25 C 500.625 608.25 498.375 606.75 496.875 605.375 C 494.75 603.25 492.375 599 492.375 586.875 C 492.375 583.25 492.375 575.25 494.875 570.875 C 496.75 567.5 500 565.25 504 565.25 C 507.5 565.25 510.375 567.125 512 569.125 C 515 572.75 515.625 579.875 515.625 586.625 Z M 676.5 619.25 C 681.125 596.5 683.125 587 696.375 532.125 L 695.75 531.375 C 686.875 531.75 685.125 531.75 676.75 531.75 L 676 532.5 C 674 545.375 673.375 549.75 670.625 564.125 L 667 583.25 L 663 604.75 C 661.125 590.75 660.5 586.5 658 572 L 654.375 551 L 651.25 531.75 L 650.5 530.875 L 625.75 531.5 L 625 532.25 L 620 561 L 615.125 586.625 L 612 603.875 C 610.5 593 610 589.375 607.375 574.25 L 604.125 556 L 600 531.25 L 599.25 530.625 C 588.5 531.375 586.75 531.375 577.625 531.625 L 577 532.5 C 586.125 573.875 588.125 583.375 594.875 619.625 L 595.625 620.375 C 608.25 619.875 611.625 619.875 623.875 620 L 624.75 619.25 L 627.375 603.75 L 631.5 580.875 L 636 554.125 C 637.5 566.375 637.875 569.5 640.125 583 L 643.25 602.5 L 645.875 619.625 L 646.5 620.375 C 658.5 620 662.625 619.875 675.875 620 Z M 758.375 601.5 C 753.625 604 748 606.875 738.875 606.875 C 731.375 606.875 726.25 604.5 723.25 600 C 721.375 597.375 721 594.875 720.5 592.375 L 760.875 591.625 L 761.625 590.75 C 761.5 584.625 761.375 578.375 759.625 572.125 C 755.25 557.375 745.625 554.375 741.375 553.375 C 738.25 552.5 735.375 552.25 732.5 552.25 C 712.875 552.25 699.875 565.125 699.875 586.75 C 699.875 592.625 700.875 598.75 702.875 603.125 C 710.125 620 727.125 621.5 736.125 621.5 C 746.5 621.5 751 619.625 757.625 617 L 758.375 616 L 759.25 601.875 L 758.375 601.5 M 720.5 579.125 C 720.875 575.25 721.75 570 726.5 567 C 728 566 729.75 565.625 731.5 565.625 C 735.625 565.625 738.125 567.75 739.5 570 C 741.25 572.75 741.375 575.75 741.375 578.625 Z M 795.125 619.125 C 794.5 604.75 793.875 591.625 793.875 552.125 C 793.875 540.25 794 534.625 794.5 521.125 L 793.625 520.25 L 772.25 523.625 L 771.75 524.375 C 773 539.625 773.125 543.75 773.375 564 C 773.5 571.375 773.5 578.75 773.5 586.125 C 773.5 599.625 773.25 607.125 772.75 619.5 L 773.5 620.375 C 781.875 620 785.25 619.875 794.375 620 Z M 831.625 619.125 C 831 604.75 830.375 591.625 830.375 552.125 C 830.375 540.25 830.5 534.625 831 521.125 L 830.125 520.25 L 808.75 523.625 L 808.25 524.375 C 809.5 539.625 809.625 543.75 809.875 564 C 810 571.375 810 578.75 810 586.125 C 810 599.625 809.75 607.125 809.25 619.5 L 810 620.375 C 818.375 620 821.75 619.875 830.875 620 Z M 872.375 576.875 C 868.125 575.375 864.75 574 864.75 570.5 C 864.75 569 865.75 564.875 873.5 564.875 C 881.125 564.875 886 568.125 889.125 570.125 L 890.25 569.75 L 891.5 556.125 L 890.875 555.375 C 885 553.75 879.875 552.25 871.75 552.25 C 865.625 552.25 853.375 552.75 846.875 562.125 C 845.25 564.375 843.5 568.125 843.5 573.125 C 843.5 586.5 853.875 590.5 859.75 592.75 L 864.5 594.5 C 867.875 595.625 873.375 597.5 873.375 602 C 873.375 605.125 870.5 608.5 863.5 608.5 C 860 608.5 854.875 607.375 850.25 605 C 848.125 603.875 847.125 603 845.25 601.5 L 844.125 602 C 843.875 608.5 843.75 609.875 843.25 616.125 L 843.875 617.25 C 850 619.5 855.25 621.5 864.375 621.5 C 873.875 621.5 892.625 619.75 894.875 601.875 C 895 600.875 895 600 895 599.125 C 895 585.375 885.375 581.75 878.5 579.125 Z M 898.5 620 "/>
<path fill-rule="nonzero" fill="rgb(34.901961%, 14.901961%, 14.901961%)" fill-opacity="1" d="M 380.875 716.25 C 370.375 711.875 364.875 709.625 364.875 704 C 364.875 700.125 368.5 695.25 376.75 695.25 C 386.25 695.25 391.875 699.125 396.5 702.25 L 397.625 701.75 L 398.625 685.375 L 398 684.5 C 392.625 682.25 387 679.875 374.875 679.875 C 351.375 679.875 343.25 693.125 343.25 706.5 C 343.25 721.625 355 727.125 362 730.5 L 366.125 732.375 C 374.75 736 381.375 739.125 381.375 745.75 C 381.375 750.5 377.25 756.125 366.375 756.125 C 355 756.125 348.625 751.125 345 748.25 L 343.75 748.625 L 342.875 766.25 L 343.625 767.25 C 345 767.75 346.375 768.375 347.75 768.75 C 350.625 769.75 358 771.875 367.375 771.875 C 371.125 771.875 380.625 771.5 388.125 768 C 398.625 762.875 403.125 753.375 403.125 742.75 C 403.125 735.625 400.375 728 393.75 722.875 C 390.375 720.375 387.125 718.875 384.125 717.5 Z M 457.875 769.125 C 463.25 746.5 465.125 740 482.125 682 L 481.5 681.375 C 472.125 681.75 469.625 681.75 462.125 681.75 L 461.375 682.5 C 459 694.75 458.375 698 454.875 711.875 L 450.875 728.25 L 445.5 751.375 L 438.875 721.875 L 436.25 710.625 C 433.125 697.75 432.25 693.5 429.625 681.375 L 428.875 680.75 C 418.5 681.5 416.25 681.625 406.5 681.625 L 405.875 682.375 C 414.25 711.25 421.75 737.75 426 754.25 C 427.25 759.375 428.5 764.5 429.75 769.625 L 430.5 770.375 C 441.375 770 444.125 769.875 457.125 770 Z M 516.125 735.625 C 524.5 749.875 526.375 753.625 534.375 770 L 535.375 770.625 C 539.25 770.375 543 770.125 546.875 770 C 550.75 769.875 554.75 769.75 558.625 769.75 L 559.375 768.25 C 554.625 762.125 553.25 760.25 544.25 745.875 C 540.25 739.5 538.25 736.125 535.125 730.625 C 540.75 728.125 552.125 722.875 552.125 707 C 552.125 701.5 550.625 690.125 540.375 684.75 C 533.875 681.375 527.125 681.25 512.5 681.5 L 503.75 681.625 L 488.5 681.625 L 487.875 682.375 C 488.375 695 488.875 708 488.875 742 C 488.875 753.625 488.75 759.25 488.375 769.625 L 489.125 770.375 C 498.25 770 500.25 769.875 510.5 770 L 511.25 769.25 C 510.25 754.75 510.125 750.75 510 735.875 L 516.125 735.625 M 510.25 696.75 C 512 696.625 513.75 696.625 515.5 696.625 C 520.375 696.625 530 696.625 530 707.625 C 530 711.125 529.125 715.75 524.5 718.625 C 521 720.75 516.5 721 510.25 721.125 Z M 616.5 681.375 C 604.5 681.75 602 681.75 588.625 681.75 L 587.75 682.5 C 581.125 703.75 577.125 716.375 558.75 769.125 L 559.25 770 L 578.75 770 L 579.625 769.25 L 585.75 746.5 L 612.75 746.5 L 618.125 769.625 L 619 770.375 C 628.125 770 630.625 769.875 640.75 770 L 641.375 769 C 626.25 715.5 624.5 709.625 617.375 682.125 L 616.5 681.375 M 590.125 731.375 L 596.375 710.25 L 600.75 695.625 L 604.5 711.875 L 609.125 731.375 Z M 641.875 770 "/>
</svg>
