<?xml version="1.0" encoding="UTF-8"?>
<svg xmlns="http://www.w3.org/2000/svg" xmlns:xlink="http://www.w3.org/1999/xlink" width="975" height="1300" viewBox="0 0 975 1300">
<path fill-rule="nonzero" fill="rgb(34.901961%, 14.901961%, 14.901961%)" fill-opacity="1" d="M 194.875 531.5 L 179 531.75 L 178.25 532.5 C 178.75 548.75 179.125 559.625 179.125 574 C 179.125 589.25 178.75 604.375 178.375 619.625 L 179.125 620.375 C 188.375 620 190.375 619.875 200.375 620 L 201 619.25 C 200.5 605.625 200.5 602.5 200.5 589.75 C 214.5 589.875 229.5 589.875 238.5 578.875 C 242 574.625 245 567.5 245 558.75 C 245 553.375 243.75 541.5 233.375 535.625 C 225.875 531.25 215.25 531.25 205.875 531.25 L 194.875 531.5 M 200.5 546.625 C 203.25 546.5 205.875 546.5 208.625 546.5 C 219.625 546.75 222.625 552.375 222.625 559.625 C 222.625 561.375 222.625 568.625 216 572.25 C 212.625 574.125 208 574.375 200.5 574.375 Z M 289.75 573.625 L 293.25 553.25 L 292.5 552.375 C 291.625 552.375 290.75 552.25 289.875 552.25 C 284.75 552.25 279 555.125 275 564.375 L 275.375 552.875 L 274.375 551.875 C 265.125 553.875 262.75 554.25 253.625 555.625 L 252.875 556.375 C 253.625 565.75 254 571.375 254 588.75 C 254 599 253.875 609.25 253.625 619.625 L 254.375 620.375 C 263.625 620 265.625 619.875 275.625 620 L 276.25 619.125 C 275.75 609 275 594.875 275 586.25 C 275 580.625 275 572.375 283.5 572.375 C 285.625 572.375 286.875 573.125 288.625 574.125 Z M 356.125 582.75 C 356.25 571.5 356.25 566.625 353 561.375 C 350.5 557.375 345.5 552.375 329.5 552.375 C 318.75 552.375 312.125 554.375 305 556.5 L 304.25 557.5 L 303.625 571.125 L 304.625 571.625 C 309 569.875 317.125 566.625 325.5 566.625 C 330.125 566.625 332 567.375 333.625 569 C 334.875 570.25 335.25 572.5 335.25 574.375 C 320.25 576.375 313.25 577.75 305.75 582.375 C 298.75 586.75 296.375 593.875 296.375 599.5 C 296.375 612.875 306 621.5 318.25 621.5 C 327.625 621.5 333 617 335.625 614.875 L 335.625 619.5 L 336.375 620.375 C 345.375 620 348.125 619.875 356.25 620 L 356.875 619.125 C 356 606.875 356 603.75 356 592 L 356.125 582.75 M 335.5 602.625 C 332.875 604.125 329.5 605.875 325.375 605.875 C 320.875 605.875 317.125 603.5 317.125 598.25 C 317.125 590 327 588.625 335.5 587.5 Z M 393.375 619.125 C 392.75 609.5 392.25 602.125 392.25 584.875 C 392.25 574.25 392.5 563.5 392.625 552.875 L 391.75 551.875 L 370.25 555.625 L 369.5 556.375 C 370.5 565.875 370.875 570.25 370.875 588 C 370.875 601.625 370.5 609.25 370.125 619.5 L 370.875 620.375 C 379.875 620 382.375 619.875 392.5 620 L 393.375 619.125 M 391.375 539.875 L 391.75 522.875 L 391 522.125 L 370.625 524.625 L 369.875 525.5 C 370.125 530 370.25 532.625 370.25 535.625 C 370.25 538 370.25 540.5 370.125 542.875 L 371 543.625 C 379.5 542.125 381.875 541.875 390.75 540.75 Z M 443.375 573.625 L 446.875 553.25 L 446.125 552.375 C 445.25 552.375 444.375 552.25 443.5 552.25 C 438.375 552.25 432.625 555.125 428.625 564.375 L 429 552.875 L 428 551.875 C 418.75 553.875 416.375 554.25 407.25 555.625 L 406.5 556.375 C 407.25 565.75 407.625 571.375 407.625 588.75 C 407.625 599 407.5 609.25 407.25 619.625 L 408 620.375 C 417.25 620 419.25 619.875 429.25 620 L 429.875 619.125 C 429.375 609 428.625 594.875 428.625 586.25 C 428.625 580.625 428.625 572.375 437.125 572.375 C 439.25 572.375 440.5 573.125 442.25 574.125 Z M 476.75 619.125 C 476.125 609.5 475.625 602.125 475.625 584.875 C 475.625 574.25 475.875 563.5 476 552.875 L 475.125 551.875 L 453.625 555.625 L 452.875 556.375 C 453.875 565.875 454.25 570.25 454.25 588 C 454.25 601.625 453.875 609.25 453.5 619.5 L 454.25 620.375 C 463.25 620 465.75 619.875 475.875 620 L 476.75 619.125 M 474.75 539.875 L 475.125 522.875 L 474.375 522.125 L 454 524.625 L 453.25 525.5 C 453.5 530 453.625 532.625 453.625 535.625 C 453.625 538 453.625 540.5 453.5 542.875 L 454.375 543.625 C 462.875 542.125 465.25 541.875 474.125 540.75 Z M 546.125 601.5 C 541.375 604 535.75 606.875 526.625 606.875 C 519.125 606.875 514 604.5 511 600 C 509.125 597.375 508.75 594.875 508.25 592.375 L 548.625 591.625 L 549.375 590.75 C 549.25 584.625 549.125 578.375 547.375 572.125 C 543 557.375 533.375 554.375 529.125 553.375 C 526 552.5 523.125 552.25 520.25 552.25 C 500.625 552.25 487.625 565.125 487.625 586.75 C 487.625 592.625 488.625 598.75 490.625 603.125 C 497.875 620 514.875 621.5 523.875 621.5 C 534.25 621.5 538.75 619.625 545.375 617 L 546.125 616 L 547 601.875 L 546.125 601.5 M 508.25 579.125 C 508.625 575.25 509.5 570 514.25 567 C 515.75 566 517.5 565.625 519.25 565.625 C 523.375 565.625 525.875 567.75 527.25 570 C 529 572.75 529.125 575.75 529.125 578.625 Z M 662.25 597.625 C 659.375 599.875 653 604.625 642.625 604.625 C 628.375 604.625 618.375 594 618.375 576.25 C 618.375 565.5 622.125 546.625 642.5 546.625 C 651.875 546.625 657 550.25 660.125 552.625 L 661.25 552.375 L 662.375 535.125 L 661.875 534.5 C 657.375 532.75 649.75 529.875 638.75 529.875 C 606.375 529.875 595.125 554.875 595.125 576.75 C 595.125 600.75 609.75 621.875 640.25 621.875 C 650.75 621.875 657.625 619.125 661.625 617.5 L 662.25 616.75 L 663.125 598.125 Z M 695.5 619.125 C 694.875 609.5 694.375 602.125 694.375 584.875 C 694.375 574.25 694.625 563.5 694.75 552.875 L 693.875 551.875 L 672.375 555.625 L 671.625 556.375 C 672.625 565.875 673 570.25 673 588 C 673 601.625 672.625 609.25 672.25 619.5 L 673 620.375 C 682 620 684.5 619.875 694.625 620 L 695.5 619.125 M 693.5 539.875 L 693.875 522.875 L 693.125 522.125 L 672.75 524.625 L 672 525.5 C 672.25 530 672.375 532.625 672.375 535.625 C 672.375 538 672.375 540.5 672.25 542.875 L 673.125 543.625 C 681.625 542.125 684 541.875 692.875 540.75 Z M 744.375 605.625 C 742.25 606.25 740.75 606.75 738.625 606.75 C 732.25 606.75 731.75 602.75 731.5 600.875 C 731.125 597.625 731.125 590.75 731.25 585.75 L 731.5 568.125 L 742.75 568.625 L 743.5 567.875 L 744.75 554.5 L 744 553.75 L 731.5 553.75 L 731.875 532.75 L 731 532 C 722.5 534.5 720.25 535.125 711.375 537.375 L 710.875 538.25 L 711 553.875 L 704.25 553.625 L 703.5 554.25 L 702.375 567.625 L 703.125 568.375 L 711 568.125 L 710.625 588 C 710.5 591.125 710.375 594.25 710.375 597.5 C 710.375 609 710.625 621.375 730.125 621.375 C 735 621.375 738.875 620.625 743.25 619.875 L 744.125 619 L 745.375 606.125 Z M 809.5 553.375 L 792.125 553.75 L 791.125 554.625 C 789 563.25 788.5 565.125 785.5 574.875 L 782.25 585.625 L 779.5 595 L 777.125 586.125 L 773.5 572.875 L 768.5 553.875 L 767.5 553.125 C 757.75 553.875 755.625 554 745.375 554.25 L 744.75 555.125 C 749.25 567 760.875 598.375 768.625 622.375 C 763.5 635.375 762.5 637.625 756.875 650 L 757.5 651 C 760.625 650.875 764.125 650.75 767.375 650.75 C 770.5 650.75 773.75 650.875 776.875 650.875 L 777.75 650.125 C 784.625 623.125 788 612.625 804.5 569.125 C 806.375 564.125 808.25 559.25 810 554.375 Z M 808.625 620 "/>
<path fill-rule="nonzero" fill="rgb(34.901961%, 14.901961%, 14.901961%)" fill-opacity="1" d="M 380.875 716.25 C 370.375 711.875 364.875 709.625 364.875 704 C 364.875 700.125 368.5 695.25 376.75 695.25 C 386.25 695.25 391.875 699.125 396.5 702.25 L 397.625 701.75 L 398.625 685.375 L 398 684.5 C 392.625 682.25 387 679.875 374.875 679.875 C 351.375 679.875 343.25 693.125 343.25 706.5 C 343.25 721.625 355 727.125 362 730.5 L 366.125 732.375 C 374.75 736 381.375 739.125 381.375 745.75 C 381.375 750.5 377.25 756.125 366.375 756.125 C 355 756.125 348.625 751.125 345 748.25 L 343.75 748.625 L 342.875 766.25 L 343.625 767.25 C 345 767.75 346.375 768.375 347.75 768.75 C 350.625 769.75 358 771.875 367.375 771.875 C 371.125 771.875 380.625 771.5 388.125 768 C 398.625 762.875 403.125 753.375 403.125 742.75 C 403.125 735.625 400.375 728 393.75 722.875 C 390.375 720.375 387.125 718.875 384.125 717.5 Z M 457.875 769.125 C 463.25 746.5 465.125 740 482.125 682 L 481.5 681.375 C 472.125 681.75 469.625 681.75 462.125 681.75 L 461.375 682.5 C 459 694.75 458.375 698 454.875 711.875 L 450.875 728.25 L 445.5 751.375 L 438.875 721.875 L 436.25 710.625 C 433.125 697.75 432.25 693.5 429.625 681.375 L 428.875 680.75 C 418.5 681.5 416.25 681.625 406.5 681.625 L 405.875 682.375 C 414.25 711.25 421.75 737.75 426 754.25 C 427.25 759.375 428.5 764.5 429.75 769.625 L 430.5 770.375 C 441.375 770 444.125 769.875 457.125 770 Z M 516.125 735.625 C 524.5 749.875 526.375 753.625 534.375 770 L 535.375 770.625 C 539.25 770.375 543 770.125 546.875 770 C 550.75 769.875 554.75 769.75 558.625 769.75 L 559.375 768.25 C 554.625 762.125 553.25 760.25 544.25 745.875 C 540.25 739.5 538.25 736.125 535.125 730.625 C 540.75 728.125 552.125 722.875 552.125 707 C 552.125 701.5 550.625 690.125 540.375 684.75 C 533.875 681.375 527.125 681.25 512.5 681.5 L 503.75 681.625 L 488.5 681.625 L 487.875 682.375 C 488.375 695 488.875 708 488.875 742 C 488.875 753.625 488.75 759.25 488.375 769.625 L 489.125 770.375 C 498.25 770 500.25 769.875 510.5 770 L 511.25 769.25 C 510.25 754.75 510.125 750.75 510 735.875 L 516.125 735.625 M 510.25 696.75 C 512 696.625 513.75 696.625 515.5 696.625 C 520.375 696.625 530 696.625 530 707.625 C 530 711.125 529.125 715.75 524.5 718.625 C 521 720.75 516.5 721 510.25 721.125 Z M 616.5 681.375 C 604.5 681.75 602 681.75 588.625 681.75 L 587.75 682.5 C 581.125 703.75 577.125 716.375 558.75 769.125 L 559.25 770 L 578.75 770 L 579.625 769.25 L 585.75 746.5 L 612.75 746.5 L 618.125 769.625 L 619 770.375 C 628.125 770 630.625 769.875 640.75 770 L 641.375 769 C 626.25 715.5 624.5 709.625 617.375 682.125 L 616.5 681.375 M 590.125 731.375 L 596.375 710.25 L 600.75 695.625 L 604.5 711.875 L 609.125 731.375 Z M 641.875 770 "/>
</svg>
