<?xml version="1.0" encoding="UTF-8"?>
<svg xmlns="http://www.w3.org/2000/svg" xmlns:xlink="http://www.w3.org/1999/xlink" width="975" height="1300" viewBox="0 0 975 1300">
<path fill-rule="nonzero" fill="rgb(34.901961%, 14.901961%, 14.901961%)" fill-opacity="1" d="M 290.75 544.25 C 295.375 521.5 297.375 512 310.625 457.125 L 310 456.375 C 301.125 456.75 299.375 456.75 291 456.75 L 290.25 457.5 C 288.25 470.375 287.625 474.75 284.875 489.125 L 281.25 508.25 L 277.25 529.75 C 275.375 515.75 274.75 511.5 272.25 497 L 268.625 476 L 265.5 456.75 L 264.75 455.875 L 240 456.5 L 239.25 457.25 L 234.25 486 L 229.375 511.625 L 226.25 528.875 C 224.75 518 224.25 514.375 221.625 499.25 L 218.375 481 L 214.25 456.25 L 213.5 455.625 C 202.75 456.375 201 456.375 191.875 456.625 L 191.25 457.5 C 200.375 498.875 202.375 508.375 209.125 544.625 L 209.875 545.375 C 222.5 544.875 225.875 544.875 238.125 545 L 239 544.25 L 241.625 528.75 L 245.75 505.875 L 250.25 479.125 C 251.75 491.375 252.125 494.5 254.375 508 L 257.5 527.5 L 260.125 544.625 L 260.75 545.375 C 272.75 545 276.875 544.875 290.125 545 Z M 339.75 544.125 C 339.125 534.5 338.625 527.125 338.625 509.875 C 338.625 499.25 338.875 488.5 339 477.875 L 338.125 476.875 L 316.625 480.625 L 315.875 481.375 C 316.875 490.875 317.25 495.25 317.25 513 C 317.25 526.625 316.875 534.25 316.5 544.5 L 317.25 545.375 C 326.25 545 328.75 544.875 338.875 545 L 339.75 544.125 M 337.75 464.875 L 338.125 447.875 L 337.375 447.125 L 317 449.625 L 316.25 450.5 C 316.5 455 316.625 457.625 316.625 460.625 C 316.625 463 316.625 465.5 316.5 467.875 L 317.375 468.625 C 325.875 467.125 328.25 466.875 337.125 465.75 Z M 375.625 544.125 C 375 529.75 374.375 516.625 374.375 477.125 C 374.375 465.25 374.5 459.625 375 446.125 L 374.125 445.25 L 352.75 448.625 L 352.25 449.375 C 353.5 464.625 353.625 468.75 353.875 489 C 354 496.375 354 503.75 354 511.125 C 354 524.625 353.75 532.125 353.25 544.5 L 354 545.375 C 362.375 545 365.75 544.875 374.875 545 Z M 451.375 544.25 C 450.875 533 450.5 525.5 450.5 509.125 C 450.5 476.125 451 462.5 451.5 446 L 450.625 445.25 L 430 448.5 L 429.375 449.25 C 430.125 461 430.25 464.125 430.125 478.375 C 420.75 478.125 409 477.875 399.5 485.375 C 390.75 492.125 387.125 502.5 387.125 515.375 C 387.125 525.125 389.75 534.875 397.125 541 C 402.625 545.5 409.375 546.5 413.5 546.5 C 422.375 546.5 427 542.375 430 539.75 L 429.75 544.625 L 430.375 545.375 C 439 545 441.375 545 450.75 545 L 451.375 544.25 M 430.125 493.375 C 430.25 510 430.125 513.25 429.75 528.375 C 427.25 529.875 424.75 531.375 421.25 531.375 C 409.125 531.375 409.125 515.875 409.125 513.375 C 409.125 503.75 411.875 493 425.875 493 C 427.25 493 428.375 493.125 430.125 493.375 Z M 542.875 544.125 C 547.875 524.75 548.75 521.75 556.25 494.875 C 557.75 489.75 559.125 484.5 560.5 479.375 L 559.75 478.375 L 543.5 478.75 L 542.625 479.625 L 539 498.375 L 535.5 513.5 L 533.125 525 L 531 513.875 L 528.25 500.875 L 523.875 479.25 L 523.125 478.375 L 499.125 478.75 L 498.25 479.625 L 494.125 500.125 L 491.125 513.875 L 488.75 525.375 L 486.375 513 L 483.375 499.5 L 479.125 478.75 L 478.375 478.125 L 458.125 479.625 L 457.375 480.625 C 469.125 521.875 471 529.25 474.5 544.625 L 475.375 545.375 C 484 545 487.125 544.875 498.625 545 L 499.375 544.125 L 502.625 528.875 L 506.125 513.75 L 509.25 498.625 L 511.125 508.125 L 513 517.375 L 518.25 544.5 L 519.125 545.375 C 528.375 545 532.125 544.875 542.125 545 Z M 630.75 511.75 C 630.75 506.875 630.75 486.625 613.25 479.75 C 607.75 477.625 601.25 477.375 598 477.375 C 576.25 477.375 564 489 564 512 C 564 520 565.25 528.125 569.875 534.875 C 573.125 539.75 579.25 546.5 597.125 546.5 C 623.625 546.5 630.75 530.5 630.75 511.75 M 609.125 511.625 C 609.125 521.875 607.75 533.25 597.375 533.25 C 594.125 533.25 591.875 531.75 590.375 530.375 C 588.25 528.25 585.875 524 585.875 511.875 C 585.875 508.25 585.875 500.25 588.375 495.875 C 590.25 492.5 593.5 490.25 597.5 490.25 C 601 490.25 603.875 492.125 605.5 494.125 C 608.5 497.75 609.125 504.875 609.125 511.625 Z M 706.25 511.75 C 706.25 506.875 706.25 486.625 688.75 479.75 C 683.25 477.625 676.75 477.375 673.5 477.375 C 651.75 477.375 639.5 489 639.5 512 C 639.5 520 640.75 528.125 645.375 534.875 C 648.625 539.75 654.75 546.5 672.625 546.5 C 699.125 546.5 706.25 530.5 706.25 511.75 M 684.625 511.625 C 684.625 521.875 683.25 533.25 672.875 533.25 C 669.625 533.25 667.375 531.75 665.875 530.375 C 663.75 528.25 661.375 524 661.375 511.875 C 661.375 508.25 661.375 500.25 663.875 495.875 C 665.75 492.5 669 490.25 673 490.25 C 676.5 490.25 679.375 492.125 681 494.125 C 684 497.75 684.625 504.875 684.625 511.625 Z M 779.375 544.25 C 778.875 533 778.5 525.5 778.5 509.125 C 778.5 476.125 779 462.5 779.5 446 L 778.625 445.25 L 758 448.5 L 757.375 449.25 C 758.125 461 758.25 464.125 758.125 478.375 C 748.75 478.125 737 477.875 727.5 485.375 C 718.75 492.125 715.125 502.5 715.125 515.375 C 715.125 525.125 717.75 534.875 725.125 541 C 730.625 545.5 737.375 546.5 741.5 546.5 C 750.375 546.5 755 542.375 758 539.75 L 757.75 544.625 L 758.375 545.375 C 767 545 769.375 545 778.75 545 L 779.375 544.25 M 758.125 493.375 C 758.25 510 758.125 513.25 757.75 528.375 C 755.25 529.875 752.75 531.375 749.25 531.375 C 737.125 531.375 737.125 515.875 737.125 513.375 C 737.125 503.75 739.875 493 753.875 493 C 755.25 493 756.375 493.125 758.125 493.375 Z M 786.125 545 "/>
<path fill-rule="nonzero" fill="rgb(34.901961%, 14.901961%, 14.901961%)" fill-opacity="1" d="M 193.6875 672.625 C 190.8125 674.875 184.4375 679.625 174.0625 679.625 C 159.8125 679.625 149.8125 669 149.8125 651.25 C 149.8125 640.5 153.5625 621.625 173.9375 621.625 C 183.3125 621.625 188.4375 625.25 191.5625 627.625 L 192.6875 627.375 L 193.8125 610.125 L 193.3125 609.5 C 188.8125 607.75 181.1875 604.875 170.1875 604.875 C 137.8125 604.875 126.5625 629.875 126.5625 651.75 C 126.5625 675.75 141.1875 696.875 171.6875 696.875 C 182.1875 696.875 189.0625 694.125 193.0625 692.5 L 193.6875 691.75 L 194.5625 673.125 Z M 259.9375 657.75 C 260.0625 646.5 260.0625 641.625 256.8125 636.375 C 254.3125 632.375 249.3125 627.375 233.3125 627.375 C 222.5625 627.375 215.9375 629.375 208.8125 631.5 L 208.0625 632.5 L 207.4375 646.125 L 208.4375 646.625 C 212.8125 644.875 220.9375 641.625 229.3125 641.625 C 233.9375 641.625 235.8125 642.375 237.4375 644 C 238.6875 645.25 239.0625 647.5 239.0625 649.375 C 224.0625 651.375 217.0625 652.75 209.5625 657.375 C 202.5625 661.75 200.1875 668.875 200.1875 674.5 C 200.1875 687.875 209.8125 696.5 222.0625 696.5 C 231.4375 696.5 236.8125 692 239.4375 689.875 L 239.4375 694.5 L 240.1875 695.375 C 249.1875 695 251.9375 694.875 260.0625 695 L 260.6875 694.125 C 259.8125 681.875 259.8125 678.75 259.8125 667 L 259.9375 657.75 M 239.3125 677.625 C 236.6875 679.125 233.3125 680.875 229.1875 680.875 C 224.6875 680.875 220.9375 678.5 220.9375 673.25 C 220.9375 665 230.8125 663.625 239.3125 662.5 Z M 335.8125 694.125 C 335.1875 683.125 335.1875 679.625 334.9375 667.375 L 334.9375 657.625 C 334.8125 645.625 334.6875 639.875 331.5625 634.75 C 327.6875 628.25 320.5625 627.25 316.0625 627.25 C 308.4375 627.25 301.8125 631.25 296.0625 634.625 L 296.3125 627.75 L 295.0625 626.875 C 285.4375 628.875 283.3125 629.25 273.9375 630.5 L 273.1875 631.375 C 274.1875 642.25 274.9375 650.125 274.9375 670.5 C 274.9375 678.5 274.8125 686.5 274.6875 694.5 L 275.4375 695.25 C 284.4375 694.875 286.3125 694.875 296.3125 694.875 L 297.0625 694.125 C 296.3125 674.875 296.1875 670 296.0625 647.625 C 298.6875 645.875 301.6875 643.75 305.6875 643.75 C 312.5625 643.75 313.1875 651.125 313.5625 655.625 C 313.8125 659.75 313.9375 676.875 313.9375 681.625 C 313.9375 685.875 313.8125 690.25 313.8125 694.5 L 314.5625 695.25 C 322.8125 695 324.9375 694.875 334.9375 694.875 Z M 405.9375 628.375 L 388.5625 628.75 L 387.5625 629.625 C 385.4375 638.25 384.9375 640.125 381.9375 649.875 L 378.6875 660.625 L 375.9375 670 L 373.5625 661.125 L 369.9375 647.875 L 364.9375 628.875 L 363.9375 628.125 C 354.1875 628.875 352.0625 629 341.8125 629.25 L 341.1875 630.125 C 345.6875 642 357.3125 673.375 365.0625 697.375 C 359.9375 710.375 358.9375 712.625 353.3125 725 L 353.9375 726 C 357.0625 725.875 360.5625 725.75 363.8125 725.75 C 366.9375 725.75 370.1875 725.875 373.3125 725.875 L 374.1875 725.125 C 381.0625 698.125 384.4375 687.625 400.9375 644.125 C 402.8125 639.125 404.6875 634.25 406.4375 629.375 Z M 476.1875 661.75 C 476.1875 656.875 476.1875 636.625 458.6875 629.75 C 453.1875 627.625 446.6875 627.375 443.4375 627.375 C 421.6875 627.375 409.4375 639 409.4375 662 C 409.4375 670 410.6875 678.125 415.3125 684.875 C 418.5625 689.75 424.6875 696.5 442.5625 696.5 C 469.0625 696.5 476.1875 680.5 476.1875 661.75 M 454.5625 661.625 C 454.5625 671.875 453.1875 683.25 442.8125 683.25 C 439.5625 683.25 437.3125 681.75 435.8125 680.375 C 433.6875 678.25 431.3125 674 431.3125 661.875 C 431.3125 658.25 431.3125 650.25 433.8125 645.875 C 435.6875 642.5 438.9375 640.25 442.9375 640.25 C 446.4375 640.25 449.3125 642.125 450.9375 644.125 C 453.9375 647.75 454.5625 654.875 454.5625 661.625 Z M 549.3125 694.125 C 548.6875 683.125 548.6875 679.625 548.4375 667.375 L 548.4375 657.625 C 548.3125 645.625 548.1875 639.875 545.0625 634.75 C 541.1875 628.25 534.0625 627.25 529.5625 627.25 C 521.9375 627.25 515.3125 631.25 509.5625 634.625 L 509.8125 627.75 L 508.5625 626.875 C 498.9375 628.875 496.8125 629.25 487.4375 630.5 L 486.6875 631.375 C 487.6875 642.25 488.4375 650.125 488.4375 670.5 C 488.4375 678.5 488.3125 686.5 488.1875 694.5 L 488.9375 695.25 C 497.9375 694.875 499.8125 694.875 509.8125 694.875 L 510.5625 694.125 C 509.8125 674.875 509.6875 670 509.5625 647.625 C 512.1875 645.875 515.1875 643.75 519.1875 643.75 C 526.0625 643.75 526.6875 651.125 527.0625 655.625 C 527.3125 659.75 527.4375 676.875 527.4375 681.625 C 527.4375 685.875 527.3125 690.25 527.3125 694.5 L 528.0625 695.25 C 536.3125 695 538.4375 694.875 548.4375 694.875 Z M 616.8125 606.5 L 600.9375 606.75 L 600.1875 607.5 C 600.6875 623.75 601.0625 634.625 601.0625 649 C 601.0625 664.25 600.6875 679.375 600.3125 694.625 L 601.0625 695.375 C 610.3125 695 612.3125 694.875 622.3125 695 L 622.9375 694.25 C 622.4375 680.625 622.4375 677.5 622.4375 664.75 C 636.4375 664.875 651.4375 664.875 660.4375 653.875 C 663.9375 649.625 666.9375 642.5 666.9375 633.75 C 666.9375 628.375 665.6875 616.5 655.3125 610.625 C 647.8125 606.25 637.1875 606.25 627.8125 606.25 L 616.8125 606.5 M 622.4375 621.625 C 625.1875 621.5 627.8125 621.5 630.5625 621.5 C 641.5625 621.75 644.5625 627.375 644.5625 634.625 C 644.5625 636.375 644.5625 643.625 637.9375 647.25 C 634.5625 649.125 629.9375 649.375 622.4375 649.375 Z M 731.1875 657.75 C 731.3125 646.5 731.3125 641.625 728.0625 636.375 C 725.5625 632.375 720.5625 627.375 704.5625 627.375 C 693.8125 627.375 687.1875 629.375 680.0625 631.5 L 679.3125 632.5 L 678.6875 646.125 L 679.6875 646.625 C 684.0625 644.875 692.1875 641.625 700.5625 641.625 C 705.1875 641.625 707.0625 642.375 708.6875 644 C 709.9375 645.25 710.3125 647.5 710.3125 649.375 C 695.3125 651.375 688.3125 652.75 680.8125 657.375 C 673.8125 661.75 671.4375 668.875 671.4375 674.5 C 671.4375 687.875 681.0625 696.5 693.3125 696.5 C 702.6875 696.5 708.0625 692 710.6875 689.875 L 710.6875 694.5 L 711.4375 695.375 C 720.4375 695 723.1875 694.875 731.3125 695 L 731.9375 694.125 C 731.0625 681.875 731.0625 678.75 731.0625 667 L 731.1875 657.75 M 710.5625 677.625 C 707.9375 679.125 704.5625 680.875 700.4375 680.875 C 695.9375 680.875 692.1875 678.5 692.1875 673.25 C 692.1875 665 702.0625 663.625 710.5625 662.5 Z M 781.9375 648.625 L 785.4375 628.25 L 784.6875 627.375 C 783.8125 627.375 782.9375 627.25 782.0625 627.25 C 776.9375 627.25 771.1875 630.125 767.1875 639.375 L 767.5625 627.875 L 766.5625 626.875 C 757.3125 628.875 754.9375 629.25 745.8125 630.625 L 745.0625 631.375 C 745.8125 640.75 746.1875 646.375 746.1875 663.75 C 746.1875 674 746.0625 684.25 745.8125 694.625 L 746.5625 695.375 C 755.8125 695 757.8125 694.875 767.8125 695 L 768.4375 694.125 C 767.9375 684 767.1875 669.875 767.1875 661.25 C 767.1875 655.625 767.1875 647.375 775.6875 647.375 C 777.8125 647.375 779.0625 648.125 780.8125 649.125 Z M 856.9375 693.375 C 845.1875 673.5 843.9375 671.25 834.4375 654.125 C 843.0625 642.375 843.9375 641.125 852.8125 629.75 L 852.1875 628.5 L 831.8125 628.75 L 830.5625 629.625 C 820.8125 646.5 819.5625 648.5 813.8125 657.125 L 813.8125 643.25 C 813.9375 619.875 814.0625 614.875 814.6875 596 L 813.6875 595.25 L 791.9375 598.5 L 791.1875 599.375 C 792.0625 611.5 792.4375 617.375 792.6875 633.75 C 792.9375 654 792.9375 674.25 792.8125 694.5 L 793.6875 695.375 C 802.0625 695 804.4375 695 813.9375 695 L 814.6875 694.125 L 813.9375 673 L 813.8125 658.625 C 824.6875 678.625 826.0625 681.375 832.4375 694.625 L 833.5625 695.375 L 856.0625 694.5 Z M 855.4375 695 "/>
<path fill-rule="nonzero" fill="rgb(34.901961%, 14.901961%, 14.901961%)" fill-opacity="1" d="M 265.25 756.5 L 249.375 756.75 L 248.625 757.5 C 249.125 773.75 249.5 784.625 249.5 799 C 249.5 814.25 249.125 829.375 248.75 844.625 L 249.5 845.375 C 258.75 845 260.75 844.875 270.75 845 L 271.375 844.25 C 270.875 830.625 270.875 827.5 270.875 814.75 C 284.875 814.875 299.875 814.875 308.875 803.875 C 312.375 799.625 315.375 792.5 315.375 783.75 C 315.375 778.375 314.125 766.5 303.75 760.625 C 296.25 756.25 285.625 756.25 276.25 756.25 L 265.25 756.5 M 270.875 771.625 C 273.625 771.5 276.25 771.5 279 771.5 C 290 771.75 293 777.375 293 784.625 C 293 786.375 293 793.625 286.375 797.25 C 283 799.125 278.375 799.375 270.875 799.375 Z M 360.125 798.625 L 363.625 778.25 L 362.875 777.375 C 362 777.375 361.125 777.25 360.25 777.25 C 355.125 777.25 349.375 780.125 345.375 789.375 L 345.75 777.875 L 344.75 776.875 C 335.5 778.875 333.125 779.25 324 780.625 L 323.25 781.375 C 324 790.75 324.375 796.375 324.375 813.75 C 324.375 824 324.25 834.25 324 844.625 L 324.75 845.375 C 334 845 336 844.875 346 845 L 346.625 844.125 C 346.125 834 345.375 819.875 345.375 811.25 C 345.375 805.625 345.375 797.375 353.875 797.375 C 356 797.375 357.25 798.125 359 799.125 Z M 434.5 811.75 C 434.5 806.875 434.5 786.625 417 779.75 C 411.5 777.625 405 777.375 401.75 777.375 C 380 777.375 367.75 789 367.75 812 C 367.75 820 369 828.125 373.625 834.875 C 376.875 839.75 383 846.5 400.875 846.5 C 427.375 846.5 434.5 830.5 434.5 811.75 M 412.875 811.625 C 412.875 821.875 411.5 833.25 401.125 833.25 C 397.875 833.25 395.625 831.75 394.125 830.375 C 392 828.25 389.625 824 389.625 811.875 C 389.625 808.25 389.625 800.25 392.125 795.875 C 394 792.5 397.25 790.25 401.25 790.25 C 404.75 790.25 407.625 792.125 409.25 794.125 C 412.25 797.75 412.875 804.875 412.875 811.625 Z M 467.125 778.125 L 466.125 777 C 457 779 454.375 779.5 445.375 780.625 L 444.625 781.5 C 446 796.375 446.5 802.125 446.5 838.125 C 446.5 853 446.25 861.5 445.875 875.625 L 446.625 876.25 C 455.5 875.875 458.125 875.75 467.625 875.875 L 468.375 875.25 L 467.5 845.5 C 476.625 845.375 489.25 845.25 499.375 835.75 C 507.375 828.25 510 817.625 510 809.125 C 510 789.25 497.875 777.25 483.875 777.25 C 475.25 777.25 470.375 780.75 466.875 783.125 L 467.125 778.125 M 467.375 795.125 C 470.125 793.5 471.75 792.625 474.875 792.625 C 476.75 792.625 480.5 792.875 483.625 796.375 C 487.5 800.625 488.125 807 488.125 811.25 C 488.125 818.5 485.75 825 480.75 828.5 C 476.75 831.25 471.75 831.5 467.375 831.625 Z M 577.375 826.5 C 572.625 829 567 831.875 557.875 831.875 C 550.375 831.875 545.25 829.5 542.25 825 C 540.375 822.375 540 819.875 539.5 817.375 L 579.875 816.625 L 580.625 815.75 C 580.5 809.625 580.375 803.375 578.625 797.125 C 574.25 782.375 564.625 779.375 560.375 778.375 C 557.25 777.5 554.375 777.25 551.5 777.25 C 531.875 777.25 518.875 790.125 518.875 811.75 C 518.875 817.625 519.875 823.75 521.875 828.125 C 529.125 845 546.125 846.5 555.125 846.5 C 565.5 846.5 570 844.625 576.625 842 L 577.375 841 L 578.25 826.875 L 577.375 826.5 M 539.5 804.125 C 539.875 800.25 540.75 795 545.5 792 C 547 791 548.75 790.625 550.5 790.625 C 554.625 790.625 557.125 792.75 558.5 795 C 560.25 797.75 560.375 800.75 560.375 803.625 Z M 628.25 798.625 L 631.75 778.25 L 631 777.375 C 630.125 777.375 629.25 777.25 628.375 777.25 C 623.25 777.25 617.5 780.125 613.5 789.375 L 613.875 777.875 L 612.875 776.875 C 603.625 778.875 601.25 779.25 592.125 780.625 L 591.375 781.375 C 592.125 790.75 592.5 796.375 592.5 813.75 C 592.5 824 592.375 834.25 592.125 844.625 L 592.875 845.375 C 602.125 845 604.125 844.875 614.125 845 L 614.75 844.125 C 614.25 834 613.5 819.875 613.5 811.25 C 613.5 805.625 613.5 797.375 622 797.375 C 624.125 797.375 625.375 798.125 627.125 799.125 Z M 674 830.625 C 671.875 831.25 670.375 831.75 668.25 831.75 C 661.875 831.75 661.375 827.75 661.125 825.875 C 660.75 822.625 660.75 815.75 660.875 810.75 L 661.125 793.125 L 672.375 793.625 L 673.125 792.875 L 674.375 779.5 L 673.625 778.75 L 661.125 778.75 L 661.5 757.75 L 660.625 757 C 652.125 759.5 649.875 760.125 641 762.375 L 640.5 763.25 L 640.625 778.875 L 633.875 778.625 L 633.125 779.25 L 632 792.625 L 632.75 793.375 L 640.625 793.125 L 640.25 813 C 640.125 816.125 640 819.25 640 822.5 C 640 834 640.25 846.375 659.75 846.375 C 664.625 846.375 668.5 845.625 672.875 844.875 L 673.75 844 L 675 831.125 Z M 739.125 778.375 L 721.75 778.75 L 720.75 779.625 C 718.625 788.25 718.125 790.125 715.125 799.875 L 711.875 810.625 L 709.125 820 L 706.75 811.125 L 703.125 797.875 L 698.125 778.875 L 697.125 778.125 C 687.375 778.875 685.25 779 675 779.25 L 674.375 780.125 C 678.875 792 690.5 823.375 698.25 847.375 C 693.125 860.375 692.125 862.625 686.5 875 L 687.125 876 C 690.25 875.875 693.75 875.75 697 875.75 C 700.125 875.75 703.375 875.875 706.5 875.875 L 707.375 875.125 C 714.25 848.125 717.625 837.625 734.125 794.125 C 736 789.125 737.875 784.25 739.625 779.375 Z M 738.25 845 "/>
</svg>
