<?xml version="1.0" encoding="UTF-8"?>
<svg xmlns="http://www.w3.org/2000/svg" xmlns:xlink="http://www.w3.org/1999/xlink" width="975" height="1300" viewBox="0 0 975 1300">
<path fill-rule="nonzero" fill="rgb(34.901961%, 14.901961%, 14.901961%)" fill-opacity="1" d="M 152.1875 597.625 C 149.3125 599.875 142.9375 604.625 132.5625 604.625 C 118.3125 604.625 108.3125 594 108.3125 576.25 C 108.3125 565.5 112.0625 546.625 132.4375 546.625 C 141.8125 546.625 146.9375 550.25 150.0625 552.625 L 151.1875 552.375 L 152.3125 535.125 L 151.8125 534.5 C 147.3125 532.75 139.6875 529.875 128.6875 529.875 C 96.3125 529.875 85.0625 554.875 85.0625 576.75 C 85.0625 600.75 99.6875 621.875 130.1875 621.875 C 140.6875 621.875 147.5625 619.125 151.5625 617.5 L 152.1875 616.75 L 153.0625 598.125 Z M 218.4375 582.75 C 218.5625 571.5 218.5625 566.625 215.3125 561.375 C 212.8125 557.375 207.8125 552.375 191.8125 552.375 C 181.0625 552.375 174.4375 554.375 167.3125 556.5 L 166.5625 557.5 L 165.9375 571.125 L 166.9375 571.625 C 171.3125 569.875 179.4375 566.625 187.8125 566.625 C 192.4375 566.625 194.3125 567.375 195.9375 569 C 197.1875 570.25 197.5625 572.5 197.5625 574.375 C 182.5625 576.375 175.5625 577.75 168.0625 582.375 C 161.0625 586.75 158.6875 593.875 158.6875 599.5 C 158.6875 612.875 168.3125 621.5 180.5625 621.5 C 189.9375 621.5 195.3125 617 197.9375 614.875 L 197.9375 619.5 L 198.6875 620.375 C 207.6875 620 210.4375 619.875 218.5625 620 L 219.1875 619.125 C 218.3125 606.875 218.3125 603.75 218.3125 592 L 218.4375 582.75 M 197.8125 602.625 C 195.1875 604.125 191.8125 605.875 187.6875 605.875 C 183.1875 605.875 179.4375 603.5 179.4375 598.25 C 179.4375 590 189.3125 588.625 197.8125 587.5 Z M 330.6875 619.125 C 330.0625 607.5 329.9375 604.25 329.9375 590.125 L 329.9375 580.75 C 330.0625 572.375 330.1875 564.625 326.5625 559.375 C 321.6875 552.25 313.0625 552.25 311.0625 552.25 C 300.8125 552.25 293.9375 556.875 288.9375 560.375 C 287.1875 557.5 284.0625 552.25 274.0625 552.25 C 265.8125 552.25 260.4375 556 254.6875 560 L 254.6875 553 L 253.5625 551.875 C 243.8125 553.75 241.0625 554.25 232.3125 555.5 L 231.5625 556.375 C 232.5625 566.375 233.3125 573.25 233.3125 598 C 233.3125 605.125 233.1875 612.375 233.1875 619.5 L 233.8125 620.25 C 241.8125 620 244.5625 619.875 254.9375 619.875 L 255.6875 619.125 C 254.8125 599.875 254.6875 594.125 254.5625 572.375 C 257.1875 570.5 260.0625 568.875 263.1875 568.875 C 270.9375 568.875 271.1875 577.75 271.1875 588.5 C 271.1875 606.625 271.0625 609.375 270.8125 619.5 L 271.5625 620.375 C 281.0625 619.875 283.6875 619.875 292.3125 619.875 L 293.0625 619.125 C 292.3125 607.25 292.1875 603.75 292.0625 588.625 L 292.0625 584 L 291.9375 571.375 C 294.0625 570 296.8125 568.25 300.5625 568.25 C 307.6875 568.25 308.8125 575 308.8125 585.75 C 308.8125 588.125 308.6875 590.5 308.6875 592.875 C 308.5625 597.125 308.4375 615.75 308.3125 619.5 L 309.0625 620.25 C 318.4375 619.875 321.1875 619.875 329.9375 619.875 Z M 354.0625 620.25 L 356.5625 620.25 C 376.5625 620.25 389.4375 619.25 398.9375 609.125 C 407.8125 599.625 408.6875 588.375 408.6875 583.125 C 408.6875 565.75 398.6875 552.25 381.6875 552.25 C 373.4375 552.25 369.0625 555 365.5625 557.25 L 366.3125 521 L 365.3125 520.25 L 344.5625 523.5 L 343.8125 524.375 C 344.8125 534.875 345.1875 539.125 345.1875 564.25 C 345.1875 575 345.0625 596.25 344.9375 619.5 L 345.8125 620.375 L 354.0625 620.25 M 366.0625 569.625 C 368.5625 568.375 370.9375 567.125 374.1875 567.125 C 382.4375 567.125 387.1875 574.5 387.1875 586 C 387.1875 595 383.1875 600.875 379.8125 603.25 C 375.6875 606.125 370.3125 606.25 366.0625 606.375 Z M 456.6875 573.625 L 460.1875 553.25 L 459.4375 552.375 C 458.5625 552.375 457.6875 552.25 456.8125 552.25 C 451.6875 552.25 445.9375 555.125 441.9375 564.375 L 442.3125 552.875 L 441.3125 551.875 C 432.0625 553.875 429.6875 554.25 420.5625 555.625 L 419.8125 556.375 C 420.5625 565.75 420.9375 571.375 420.9375 588.75 C 420.9375 599 420.8125 609.25 420.5625 619.625 L 421.3125 620.375 C 430.5625 620 432.5625 619.875 442.5625 620 L 443.1875 619.125 C 442.6875 609 441.9375 594.875 441.9375 586.25 C 441.9375 580.625 441.9375 572.375 450.4375 572.375 C 452.5625 572.375 453.8125 573.125 455.5625 574.125 Z M 490.0625 619.125 C 489.4375 609.5 488.9375 602.125 488.9375 584.875 C 488.9375 574.25 489.1875 563.5 489.3125 552.875 L 488.4375 551.875 L 466.9375 555.625 L 466.1875 556.375 C 467.1875 565.875 467.5625 570.25 467.5625 588 C 467.5625 601.625 467.1875 609.25 466.8125 619.5 L 467.5625 620.375 C 476.5625 620 479.0625 619.875 489.1875 620 L 490.0625 619.125 M 488.0625 539.875 L 488.4375 522.875 L 487.6875 522.125 L 467.3125 524.625 L 466.5625 525.5 C 466.8125 530 466.9375 532.625 466.9375 535.625 C 466.9375 538 466.9375 540.5 466.8125 542.875 L 467.6875 543.625 C 476.1875 542.125 478.5625 541.875 487.4375 540.75 Z M 559.5625 582.75 C 559.6875 571.5 559.6875 566.625 556.4375 561.375 C 553.9375 557.375 548.9375 552.375 532.9375 552.375 C 522.1875 552.375 515.5625 554.375 508.4375 556.5 L 507.6875 557.5 L 507.0625 571.125 L 508.0625 571.625 C 512.4375 569.875 520.5625 566.625 528.9375 566.625 C 533.5625 566.625 535.4375 567.375 537.0625 569 C 538.3125 570.25 538.6875 572.5 538.6875 574.375 C 523.6875 576.375 516.6875 577.75 509.1875 582.375 C 502.1875 586.75 499.8125 593.875 499.8125 599.5 C 499.8125 612.875 509.4375 621.5 521.6875 621.5 C 531.0625 621.5 536.4375 617 539.0625 614.875 L 539.0625 619.5 L 539.8125 620.375 C 548.8125 620 551.5625 619.875 559.6875 620 L 560.3125 619.125 C 559.4375 606.875 559.4375 603.75 559.4375 592 L 559.5625 582.75 M 538.9375 602.625 C 536.3125 604.125 532.9375 605.875 528.8125 605.875 C 524.3125 605.875 520.5625 603.5 520.5625 598.25 C 520.5625 590 530.4375 588.625 538.9375 587.5 Z M 646.8125 566.25 C 636.3125 561.875 630.8125 559.625 630.8125 554 C 630.8125 550.125 634.4375 545.25 642.6875 545.25 C 652.1875 545.25 657.8125 549.125 662.4375 552.25 L 663.5625 551.75 L 664.5625 535.375 L 663.9375 534.5 C 658.5625 532.25 652.9375 529.875 640.8125 529.875 C 617.3125 529.875 609.1875 543.125 609.1875 556.5 C 609.1875 571.625 620.9375 577.125 627.9375 580.5 L 632.0625 582.375 C 640.6875 586 647.3125 589.125 647.3125 595.75 C 647.3125 600.5 643.1875 606.125 632.3125 606.125 C 620.9375 606.125 614.5625 601.125 610.9375 598.25 L 609.6875 598.625 L 608.8125 616.25 L 609.5625 617.25 C 610.9375 617.75 612.3125 618.375 613.6875 618.75 C 616.5625 619.75 623.9375 621.875 633.3125 621.875 C 637.0625 621.875 646.5625 621.5 654.0625 618 C 664.5625 612.875 669.0625 603.375 669.0625 592.75 C 669.0625 585.625 666.3125 578 659.6875 572.875 C 656.3125 570.375 653.0625 568.875 650.0625 567.5 Z M 715.9375 605.625 C 713.8125 606.25 712.3125 606.75 710.1875 606.75 C 703.8125 606.75 703.3125 602.75 703.0625 600.875 C 702.6875 597.625 702.6875 590.75 702.8125 585.75 L 703.0625 568.125 L 714.3125 568.625 L 715.0625 567.875 L 716.3125 554.5 L 715.5625 553.75 L 703.0625 553.75 L 703.4375 532.75 L 702.5625 532 C 694.0625 534.5 691.8125 535.125 682.9375 537.375 L 682.4375 538.25 L 682.5625 553.875 L 675.8125 553.625 L 675.0625 554.25 L 673.9375 567.625 L 674.6875 568.375 L 682.5625 568.125 L 682.1875 588 C 682.0625 591.125 681.9375 594.25 681.9375 597.5 C 681.9375 609 682.1875 621.375 701.6875 621.375 C 706.5625 621.375 710.4375 620.625 714.8125 619.875 L 715.6875 619 L 716.9375 606.125 Z M 780.8125 582.75 C 780.9375 571.5 780.9375 566.625 777.6875 561.375 C 775.1875 557.375 770.1875 552.375 754.1875 552.375 C 743.4375 552.375 736.8125 554.375 729.6875 556.5 L 728.9375 557.5 L 728.3125 571.125 L 729.3125 571.625 C 733.6875 569.875 741.8125 566.625 750.1875 566.625 C 754.8125 566.625 756.6875 567.375 758.3125 569 C 759.5625 570.25 759.9375 572.5 759.9375 574.375 C 744.9375 576.375 737.9375 577.75 730.4375 582.375 C 723.4375 586.75 721.0625 593.875 721.0625 599.5 C 721.0625 612.875 730.6875 621.5 742.9375 621.5 C 752.3125 621.5 757.6875 617 760.3125 614.875 L 760.3125 619.5 L 761.0625 620.375 C 770.0625 620 772.8125 619.875 780.9375 620 L 781.5625 619.125 C 780.6875 606.875 780.6875 603.75 780.6875 592 L 780.8125 582.75 M 760.1875 602.625 C 757.5625 604.125 754.1875 605.875 750.0625 605.875 C 745.5625 605.875 741.8125 603.5 741.8125 598.25 C 741.8125 590 751.6875 588.625 760.1875 587.5 Z M 830.4375 605.625 C 828.3125 606.25 826.8125 606.75 824.6875 606.75 C 818.3125 606.75 817.8125 602.75 817.5625 600.875 C 817.1875 597.625 817.1875 590.75 817.3125 585.75 L 817.5625 568.125 L 828.8125 568.625 L 829.5625 567.875 L 830.8125 554.5 L 830.0625 553.75 L 817.5625 553.75 L 817.9375 532.75 L 817.0625 532 C 808.5625 534.5 806.3125 535.125 797.4375 537.375 L 796.9375 538.25 L 797.0625 553.875 L 790.3125 553.625 L 789.5625 554.25 L 788.4375 567.625 L 789.1875 568.375 L 797.0625 568.125 L 796.6875 588 C 796.5625 591.125 796.4375 594.25 796.4375 597.5 C 796.4375 609 796.6875 621.375 816.1875 621.375 C 821.0625 621.375 824.9375 620.625 829.3125 619.875 L 830.1875 619 L 831.4375 606.125 Z M 895.1875 601.5 C 890.4375 604 884.8125 606.875 875.6875 606.875 C 868.1875 606.875 863.0625 604.5 860.0625 600 C 858.1875 597.375 857.8125 594.875 857.3125 592.375 L 897.6875 591.625 L 898.4375 590.75 C 898.3125 584.625 898.1875 578.375 896.4375 572.125 C 892.0625 557.375 882.4375 554.375 878.1875 553.375 C 875.0625 552.5 872.1875 552.25 869.3125 552.25 C 849.6875 552.25 836.6875 565.125 836.6875 586.75 C 836.6875 592.625 837.6875 598.75 839.6875 603.125 C 846.9375 620 863.9375 621.5 872.9375 621.5 C 883.3125 621.5 887.8125 619.625 894.4375 617 L 895.1875 616 L 896.0625 601.875 L 895.1875 601.5 M 857.3125 579.125 C 857.6875 575.25 858.5625 570 863.3125 567 C 864.8125 566 866.5625 565.625 868.3125 565.625 C 872.4375 565.625 874.9375 567.75 876.3125 570 C 878.0625 572.75 878.1875 575.75 878.1875 578.625 Z M 902.4375 620 "/>
<path fill-rule="nonzero" fill="rgb(34.901961%, 14.901961%, 14.901961%)" fill-opacity="1" d="M 235.5625 681.375 C 222.5625 681.75 220.4375 681.75 206.5625 681.75 L 205.8125 682.5 L 200.0625 702.75 L 195.0625 720.875 L 189.1875 742.625 L 183.6875 720.25 L 180.1875 706.125 L 173.9375 682.125 L 173.3125 681.375 C 159.9375 681.75 157.6875 681.75 143.6875 681.75 L 142.9375 682.5 C 141.6875 719.875 141.1875 729.5 138.4375 769.625 L 139.0625 770.375 C 147.0625 770 149.4375 769.875 156.6875 770 L 157.4375 769.25 L 157.8125 745.375 L 158.5625 721.125 L 159.0625 697.5 L 164.5625 719.625 L 169.3125 737.375 L 177.6875 769.625 L 178.4375 770.375 C 186.1875 770 188.3125 769.875 197.0625 770 L 197.8125 769.25 L 205.0625 742.625 L 210.0625 724.375 L 217.0625 698.125 L 217.0625 720.5 L 217.3125 739.625 L 217.3125 769.625 L 217.9375 770.375 C 226.5625 770 229.9375 769.875 239.5625 770 L 240.1875 769.25 C 239.4375 755 238.5625 740.625 238.0625 726.25 C 237.6875 718.375 237.4375 710.5 237.0625 702.625 C 236.4375 691 236.3125 689.5 236.3125 682.125 Z M 309.9375 732.75 C 310.0625 721.5 310.0625 716.625 306.8125 711.375 C 304.3125 707.375 299.3125 702.375 283.3125 702.375 C 272.5625 702.375 265.9375 704.375 258.8125 706.5 L 258.0625 707.5 L 257.4375 721.125 L 258.4375 721.625 C 262.8125 719.875 270.9375 716.625 279.3125 716.625 C 283.9375 716.625 285.8125 717.375 287.4375 719 C 288.6875 720.25 289.0625 722.5 289.0625 724.375 C 274.0625 726.375 267.0625 727.75 259.5625 732.375 C 252.5625 736.75 250.1875 743.875 250.1875 749.5 C 250.1875 762.875 259.8125 771.5 272.0625 771.5 C 281.4375 771.5 286.8125 767 289.4375 764.875 L 289.4375 769.5 L 290.1875 770.375 C 299.1875 770 301.9375 769.875 310.0625 770 L 310.6875 769.125 C 309.8125 756.875 309.8125 753.75 309.8125 742 L 309.9375 732.75 M 289.3125 752.625 C 286.6875 754.125 283.3125 755.875 279.1875 755.875 C 274.6875 755.875 270.9375 753.5 270.9375 748.25 C 270.9375 740 280.8125 738.625 289.3125 737.5 Z M 360.6875 723.625 L 364.1875 703.25 L 363.4375 702.375 C 362.5625 702.375 361.6875 702.25 360.8125 702.25 C 355.6875 702.25 349.9375 705.125 345.9375 714.375 L 346.3125 702.875 L 345.3125 701.875 C 336.0625 703.875 333.6875 704.25 324.5625 705.625 L 323.8125 706.375 C 324.5625 715.75 324.9375 721.375 324.9375 738.75 C 324.9375 749 324.8125 759.25 324.5625 769.625 L 325.3125 770.375 C 334.5625 770 336.5625 769.875 346.5625 770 L 347.1875 769.125 C 346.6875 759 345.9375 744.875 345.9375 736.25 C 345.9375 730.625 345.9375 722.375 354.4375 722.375 C 356.5625 722.375 357.8125 723.125 359.5625 724.125 Z M 394.0625 769.125 C 393.4375 759.5 392.9375 752.125 392.9375 734.875 C 392.9375 724.25 393.1875 713.5 393.3125 702.875 L 392.4375 701.875 L 370.9375 705.625 L 370.1875 706.375 C 371.1875 715.875 371.5625 720.25 371.5625 738 C 371.5625 751.625 371.1875 759.25 370.8125 769.5 L 371.5625 770.375 C 380.5625 770 383.0625 769.875 393.1875 770 L 394.0625 769.125 M 392.0625 689.875 L 392.4375 672.875 L 391.6875 672.125 L 371.3125 674.625 L 370.5625 675.5 C 370.8125 680 370.9375 682.625 370.9375 685.625 C 370.9375 688 370.9375 690.5 370.8125 692.875 L 371.6875 693.625 C 380.1875 692.125 382.5625 691.875 391.4375 690.75 Z M 469.1875 769.125 C 468.5625 758.125 468.5625 754.625 468.3125 742.375 L 468.3125 732.625 C 468.1875 720.625 468.0625 714.875 464.9375 709.75 C 461.0625 703.25 453.9375 702.25 449.4375 702.25 C 441.8125 702.25 435.1875 706.25 429.4375 709.625 L 429.6875 702.75 L 428.4375 701.875 C 418.8125 703.875 416.6875 704.25 407.3125 705.5 L 406.5625 706.375 C 407.5625 717.25 408.3125 725.125 408.3125 745.5 C 408.3125 753.5 408.1875 761.5 408.0625 769.5 L 408.8125 770.25 C 417.8125 769.875 419.6875 769.875 429.6875 769.875 L 430.4375 769.125 C 429.6875 749.875 429.5625 745 429.4375 722.625 C 432.0625 720.875 435.0625 718.75 439.0625 718.75 C 445.9375 718.75 446.5625 726.125 446.9375 730.625 C 447.1875 734.75 447.3125 751.875 447.3125 756.625 C 447.3125 760.875 447.1875 765.25 447.1875 769.5 L 447.9375 770.25 C 456.1875 770 458.3125 769.875 468.3125 769.875 Z M 538.9375 751.5 C 534.1875 754 528.5625 756.875 519.4375 756.875 C 511.9375 756.875 506.8125 754.5 503.8125 750 C 501.9375 747.375 501.5625 744.875 501.0625 742.375 L 541.4375 741.625 L 542.1875 740.75 C 542.0625 734.625 541.9375 728.375 540.1875 722.125 C 535.8125 707.375 526.1875 704.375 521.9375 703.375 C 518.8125 702.5 515.9375 702.25 513.0625 702.25 C 493.4375 702.25 480.4375 715.125 480.4375 736.75 C 480.4375 742.625 481.4375 748.75 483.4375 753.125 C 490.6875 770 507.6875 771.5 516.6875 771.5 C 527.0625 771.5 531.5625 769.625 538.1875 767 L 538.9375 766 L 539.8125 751.875 L 538.9375 751.5 M 501.0625 729.125 C 501.4375 725.25 502.3125 720 507.0625 717 C 508.5625 716 510.3125 715.625 512.0625 715.625 C 516.1875 715.625 518.6875 717.75 520.0625 720 C 521.8125 722.75 521.9375 725.75 521.9375 728.625 Z M 606.9375 681.5 L 591.0625 681.75 L 590.3125 682.5 C 590.8125 698.75 591.1875 709.625 591.1875 724 C 591.1875 739.25 590.8125 754.375 590.4375 769.625 L 591.1875 770.375 C 600.4375 770 602.4375 769.875 612.4375 770 L 613.0625 769.25 C 612.5625 755.625 612.5625 752.5 612.5625 739.75 C 626.5625 739.875 641.5625 739.875 650.5625 728.875 C 654.0625 724.625 657.0625 717.5 657.0625 708.75 C 657.0625 703.375 655.8125 691.5 645.4375 685.625 C 637.9375 681.25 627.3125 681.25 617.9375 681.25 L 606.9375 681.5 M 612.5625 696.625 C 615.3125 696.5 617.9375 696.5 620.6875 696.5 C 631.6875 696.75 634.6875 702.375 634.6875 709.625 C 634.6875 711.375 634.6875 718.625 628.0625 722.25 C 624.6875 724.125 620.0625 724.375 612.5625 724.375 Z M 721.3125 732.75 C 721.4375 721.5 721.4375 716.625 718.1875 711.375 C 715.6875 707.375 710.6875 702.375 694.6875 702.375 C 683.9375 702.375 677.3125 704.375 670.1875 706.5 L 669.4375 707.5 L 668.8125 721.125 L 669.8125 721.625 C 674.1875 719.875 682.3125 716.625 690.6875 716.625 C 695.3125 716.625 697.1875 717.375 698.8125 719 C 700.0625 720.25 700.4375 722.5 700.4375 724.375 C 685.4375 726.375 678.4375 727.75 670.9375 732.375 C 663.9375 736.75 661.5625 743.875 661.5625 749.5 C 661.5625 762.875 671.1875 771.5 683.4375 771.5 C 692.8125 771.5 698.1875 767 700.8125 764.875 L 700.8125 769.5 L 701.5625 770.375 C 710.5625 770 713.3125 769.875 721.4375 770 L 722.0625 769.125 C 721.1875 756.875 721.1875 753.75 721.1875 742 L 721.3125 732.75 M 700.6875 752.625 C 698.0625 754.125 694.6875 755.875 690.5625 755.875 C 686.0625 755.875 682.3125 753.5 682.3125 748.25 C 682.3125 740 692.1875 738.625 700.6875 737.5 Z M 772.0625 723.625 L 775.5625 703.25 L 774.8125 702.375 C 773.9375 702.375 773.0625 702.25 772.1875 702.25 C 767.0625 702.25 761.3125 705.125 757.3125 714.375 L 757.6875 702.875 L 756.6875 701.875 C 747.4375 703.875 745.0625 704.25 735.9375 705.625 L 735.1875 706.375 C 735.9375 715.75 736.3125 721.375 736.3125 738.75 C 736.3125 749 736.1875 759.25 735.9375 769.625 L 736.6875 770.375 C 745.9375 770 747.9375 769.875 757.9375 770 L 758.5625 769.125 C 758.0625 759 757.3125 744.875 757.3125 736.25 C 757.3125 730.625 757.3125 722.375 765.8125 722.375 C 767.9375 722.375 769.1875 723.125 770.9375 724.125 Z M 847.0625 768.375 C 835.3125 748.5 834.0625 746.25 824.5625 729.125 C 833.1875 717.375 834.0625 716.125 842.9375 704.75 L 842.3125 703.5 L 821.9375 703.75 L 820.6875 704.625 C 810.9375 721.5 809.6875 723.5 803.9375 732.125 L 803.9375 718.25 C 804.0625 694.875 804.1875 689.875 804.8125 671 L 803.8125 670.25 L 782.0625 673.5 L 781.3125 674.375 C 782.1875 686.5 782.5625 692.375 782.8125 708.75 C 783.0625 729 783.0625 749.25 782.9375 769.5 L 783.8125 770.375 C 792.1875 770 794.5625 770 804.0625 770 L 804.8125 769.125 L 804.0625 748 L 803.9375 733.625 C 814.8125 753.625 816.1875 756.375 822.5625 769.625 L 823.6875 770.375 L 846.1875 769.5 Z M 845.5625 770 "/>
</svg>
