<?xml version="1.0" encoding="UTF-8"?>
<svg xmlns="http://www.w3.org/2000/svg" xmlns:xlink="http://www.w3.org/1999/xlink" width="975" height="1300" viewBox="0 0 975 1300">
<path fill-rule="nonzero" fill="rgb(34.901961%, 14.901961%, 14.901961%)" fill-opacity="1" d="M 137.625 456.5 L 121.75 456.75 L 121 457.5 C 121.5 473.75 121.875 484.625 121.875 499 C 121.875 514.25 121.5 529.375 121.125 544.625 L 121.875 545.375 C 131.125 545 133.125 544.875 143.125 545 L 143.75 544.25 C 143.25 530.625 143.25 527.5 143.25 514.75 C 157.25 514.875 172.25 514.875 181.25 503.875 C 184.75 499.625 187.75 492.5 187.75 483.75 C 187.75 478.375 186.5 466.5 176.125 460.625 C 168.625 456.25 158 456.25 148.625 456.25 L 137.625 456.5 M 143.25 471.625 C 146 471.5 148.625 471.5 151.375 471.5 C 162.375 471.75 165.375 477.375 165.375 484.625 C 165.375 486.375 165.375 493.625 158.75 497.25 C 155.375 499.125 150.75 499.375 143.25 499.375 Z M 232.5 498.625 L 236 478.25 L 235.25 477.375 C 234.375 477.375 233.5 477.25 232.625 477.25 C 227.5 477.25 221.75 480.125 217.75 489.375 L 218.125 477.875 L 217.125 476.875 C 207.875 478.875 205.5 479.25 196.375 480.625 L 195.625 481.375 C 196.375 490.75 196.75 496.375 196.75 513.75 C 196.75 524 196.625 534.25 196.375 544.625 L 197.125 545.375 C 206.375 545 208.375 544.875 218.375 545 L 219 544.125 C 218.5 534 217.75 519.875 217.75 511.25 C 217.75 505.625 217.75 497.375 226.25 497.375 C 228.375 497.375 229.625 498.125 231.375 499.125 Z M 298.875 507.75 C 299 496.5 299 491.625 295.75 486.375 C 293.25 482.375 288.25 477.375 272.25 477.375 C 261.5 477.375 254.875 479.375 247.75 481.5 L 247 482.5 L 246.375 496.125 L 247.375 496.625 C 251.75 494.875 259.875 491.625 268.25 491.625 C 272.875 491.625 274.75 492.375 276.375 494 C 277.625 495.25 278 497.5 278 499.375 C 263 501.375 256 502.75 248.5 507.375 C 241.5 511.75 239.125 518.875 239.125 524.5 C 239.125 537.875 248.75 546.5 261 546.5 C 270.375 546.5 275.75 542 278.375 539.875 L 278.375 544.5 L 279.125 545.375 C 288.125 545 290.875 544.875 299 545 L 299.625 544.125 C 298.75 531.875 298.75 528.75 298.75 517 L 298.875 507.75 M 278.25 527.625 C 275.625 529.125 272.25 530.875 268.125 530.875 C 263.625 530.875 259.875 528.5 259.875 523.25 C 259.875 515 269.75 513.625 278.25 512.5 Z M 336.125 544.125 C 335.5 534.5 335 527.125 335 509.875 C 335 499.25 335.25 488.5 335.375 477.875 L 334.5 476.875 L 313 480.625 L 312.25 481.375 C 313.25 490.875 313.625 495.25 313.625 513 C 313.625 526.625 313.25 534.25 312.875 544.5 L 313.625 545.375 C 322.625 545 325.125 544.875 335.25 545 L 336.125 544.125 M 334.125 464.875 L 334.5 447.875 L 333.75 447.125 L 313.375 449.625 L 312.625 450.5 C 312.875 455 313 457.625 313 460.625 C 313 463 313 465.5 312.875 467.875 L 313.75 468.625 C 322.25 467.125 324.625 466.875 333.5 465.75 Z M 386.125 498.625 L 389.625 478.25 L 388.875 477.375 C 388 477.375 387.125 477.25 386.25 477.25 C 381.125 477.25 375.375 480.125 371.375 489.375 L 371.75 477.875 L 370.75 476.875 C 361.5 478.875 359.125 479.25 350 480.625 L 349.25 481.375 C 350 490.75 350.375 496.375 350.375 513.75 C 350.375 524 350.25 534.25 350 544.625 L 350.75 545.375 C 360 545 362 544.875 372 545 L 372.625 544.125 C 372.125 534 371.375 519.875 371.375 511.25 C 371.375 505.625 371.375 497.375 379.875 497.375 C 382 497.375 383.25 498.125 385 499.125 Z M 419.5 544.125 C 418.875 534.5 418.375 527.125 418.375 509.875 C 418.375 499.25 418.625 488.5 418.75 477.875 L 417.875 476.875 L 396.375 480.625 L 395.625 481.375 C 396.625 490.875 397 495.25 397 513 C 397 526.625 396.625 534.25 396.25 544.5 L 397 545.375 C 406 545 408.5 544.875 418.625 545 L 419.5 544.125 M 417.5 464.875 L 417.875 447.875 L 417.125 447.125 L 396.75 449.625 L 396 450.5 C 396.25 455 396.375 457.625 396.375 460.625 C 396.375 463 396.375 465.5 396.25 467.875 L 397.125 468.625 C 405.625 467.125 408 466.875 416.875 465.75 Z M 488.875 526.5 C 484.125 529 478.5 531.875 469.375 531.875 C 461.875 531.875 456.75 529.5 453.75 525 C 451.875 522.375 451.5 519.875 451 517.375 L 491.375 516.625 L 492.125 515.75 C 492 509.625 491.875 503.375 490.125 497.125 C 485.75 482.375 476.125 479.375 471.875 478.375 C 468.75 477.5 465.875 477.25 463 477.25 C 443.375 477.25 430.375 490.125 430.375 511.75 C 430.375 517.625 431.375 523.75 433.375 528.125 C 440.625 545 457.625 546.5 466.625 546.5 C 477 546.5 481.5 544.625 488.125 542 L 488.875 541 L 489.75 526.875 L 488.875 526.5 M 451 504.125 C 451.375 500.25 452.25 495 457 492 C 458.5 491 460.25 490.625 462 490.625 C 466.125 490.625 468.625 492.75 470 495 C 471.75 497.75 471.875 500.75 471.875 503.625 Z M 605 522.625 C 602.125 524.875 595.75 529.625 585.375 529.625 C 571.125 529.625 561.125 519 561.125 501.25 C 561.125 490.5 564.875 471.625 585.25 471.625 C 594.625 471.625 599.75 475.25 602.875 477.625 L 604 477.375 L 605.125 460.125 L 604.625 459.5 C 600.125 457.75 592.5 454.875 581.5 454.875 C 549.125 454.875 537.875 479.875 537.875 501.75 C 537.875 525.75 552.5 546.875 583 546.875 C 593.5 546.875 600.375 544.125 604.375 542.5 L 605 541.75 L 605.875 523.125 Z M 651.75 498.625 L 655.25 478.25 L 654.5 477.375 C 653.625 477.375 652.75 477.25 651.875 477.25 C 646.75 477.25 641 480.125 637 489.375 L 637.375 477.875 L 636.375 476.875 C 627.125 478.875 624.75 479.25 615.625 480.625 L 614.875 481.375 C 615.625 490.75 616 496.375 616 513.75 C 616 524 615.875 534.25 615.625 544.625 L 616.375 545.375 C 625.625 545 627.625 544.875 637.625 545 L 638.25 544.125 C 637.75 534 637 519.875 637 511.25 C 637 505.625 637 497.375 645.5 497.375 C 647.625 497.375 648.875 498.125 650.625 499.125 Z M 718 526.5 C 713.25 529 707.625 531.875 698.5 531.875 C 691 531.875 685.875 529.5 682.875 525 C 681 522.375 680.625 519.875 680.125 517.375 L 720.5 516.625 L 721.25 515.75 C 721.125 509.625 721 503.375 719.25 497.125 C 714.875 482.375 705.25 479.375 701 478.375 C 697.875 477.5 695 477.25 692.125 477.25 C 672.5 477.25 659.5 490.125 659.5 511.75 C 659.5 517.625 660.5 523.75 662.5 528.125 C 669.75 545 686.75 546.5 695.75 546.5 C 706.125 546.5 710.625 544.625 717.25 542 L 718 541 L 718.875 526.875 L 718 526.5 M 680.125 504.125 C 680.5 500.25 681.375 495 686.125 492 C 687.625 491 689.375 490.625 691.125 490.625 C 695.25 490.625 697.75 492.75 699.125 495 C 700.875 497.75 701 500.75 701 503.625 Z M 788.25 526.5 C 783.5 529 777.875 531.875 768.75 531.875 C 761.25 531.875 756.125 529.5 753.125 525 C 751.25 522.375 750.875 519.875 750.375 517.375 L 790.75 516.625 L 791.5 515.75 C 791.375 509.625 791.25 503.375 789.5 497.125 C 785.125 482.375 775.5 479.375 771.25 478.375 C 768.125 477.5 765.25 477.25 762.375 477.25 C 742.75 477.25 729.75 490.125 729.75 511.75 C 729.75 517.625 730.75 523.75 732.75 528.125 C 740 545 757 546.5 766 546.5 C 776.375 546.5 780.875 544.625 787.5 542 L 788.25 541 L 789.125 526.875 L 788.25 526.5 M 750.375 504.125 C 750.75 500.25 751.625 495 756.375 492 C 757.875 491 759.625 490.625 761.375 490.625 C 765.5 490.625 768 492.75 769.375 495 C 771.125 497.75 771.25 500.75 771.25 503.625 Z M 867.25 543.375 C 855.5 523.5 854.25 521.25 844.75 504.125 C 853.375 492.375 854.25 491.125 863.125 479.75 L 862.5 478.5 L 842.125 478.75 L 840.875 479.625 C 831.125 496.5 829.875 498.5 824.125 507.125 L 824.125 493.25 C 824.25 469.875 824.375 464.875 825 446 L 824 445.25 L 802.25 448.5 L 801.5 449.375 C 802.375 461.5 802.75 467.375 803 483.75 C 803.25 504 803.25 524.25 803.125 544.5 L 804 545.375 C 812.375 545 814.75 545 824.25 545 L 825 544.125 L 824.25 523 L 824.125 508.625 C 835 528.625 836.375 531.375 842.75 544.625 L 843.875 545.375 L 866.375 544.5 Z M 865.75 545 "/>
<path fill-rule="nonzero" fill="rgb(34.901961%, 14.901961%, 14.901961%)" fill-opacity="1" d="M 221.875 660.625 C 230.25 674.875 232.125 678.625 240.125 695 L 241.125 695.625 C 245 695.375 248.75 695.125 252.625 695 C 256.5 694.875 260.5 694.75 264.375 694.75 L 265.125 693.25 C 260.375 687.125 259 685.25 250 670.875 C 246 664.5 244 661.125 240.875 655.625 C 246.5 653.125 257.875 647.875 257.875 632 C 257.875 626.5 256.375 615.125 246.125 609.75 C 239.625 606.375 232.875 606.25 218.25 606.5 L 209.5 606.625 L 194.25 606.625 L 193.625 607.375 C 194.125 620 194.625 633 194.625 667 C 194.625 678.625 194.5 684.25 194.125 694.625 L 194.875 695.375 C 204 695 206 694.875 216.25 695 L 217 694.25 C 216 679.75 215.875 675.75 215.75 660.875 L 221.875 660.625 M 216 621.75 C 217.75 621.625 219.5 621.625 221.25 621.625 C 226.125 621.625 235.75 621.625 235.75 632.625 C 235.75 636.125 234.875 640.75 230.25 643.625 C 226.75 645.75 222.25 646 216 646.125 Z M 327.25 676.5 C 322.5 679 316.875 681.875 307.75 681.875 C 300.25 681.875 295.125 679.5 292.125 675 C 290.25 672.375 289.875 669.875 289.375 667.375 L 329.75 666.625 L 330.5 665.75 C 330.375 659.625 330.25 653.375 328.5 647.125 C 324.125 632.375 314.5 629.375 310.25 628.375 C 307.125 627.5 304.25 627.25 301.375 627.25 C 281.75 627.25 268.75 640.125 268.75 661.75 C 268.75 667.625 269.75 673.75 271.75 678.125 C 279 695 296 696.5 305 696.5 C 315.375 696.5 319.875 694.625 326.5 692 L 327.25 691 L 328.125 676.875 L 327.25 676.5 M 289.375 654.125 C 289.75 650.25 290.625 645 295.375 642 C 296.875 641 298.625 640.625 300.375 640.625 C 304.5 640.625 307 642.75 308.375 645 C 310.125 647.75 310.25 650.75 310.25 653.625 Z M 403.25 694.25 C 402.75 683 402.375 675.5 402.375 659.125 C 402.375 626.125 402.875 612.5 403.375 596 L 402.5 595.25 L 381.875 598.5 L 381.25 599.25 C 382 611 382.125 614.125 382 628.375 C 372.625 628.125 360.875 627.875 351.375 635.375 C 342.625 642.125 339 652.5 339 665.375 C 339 675.125 341.625 684.875 349 691 C 354.5 695.5 361.25 696.5 365.375 696.5 C 374.25 696.5 378.875 692.375 381.875 689.75 L 381.625 694.625 L 382.25 695.375 C 390.875 695 393.25 695 402.625 695 L 403.25 694.25 M 382 643.375 C 382.125 660 382 663.25 381.625 678.375 C 379.125 679.875 376.625 681.375 373.125 681.375 C 361 681.375 361 665.875 361 663.375 C 361 653.75 363.75 643 377.75 643 C 379.125 643 380.25 643.125 382 643.375 Z M 494.75 694.125 C 499.75 674.75 500.625 671.75 508.125 644.875 C 509.625 639.75 511 634.5 512.375 629.375 L 511.625 628.375 L 495.375 628.75 L 494.5 629.625 L 490.875 648.375 L 487.375 663.5 L 485 675 L 482.875 663.875 L 480.125 650.875 L 475.75 629.25 L 475 628.375 L 451 628.75 L 450.125 629.625 L 446 650.125 L 443 663.875 L 440.625 675.375 L 438.25 663 L 435.25 649.5 L 431 628.75 L 430.25 628.125 L 410 629.625 L 409.25 630.625 C 421 671.875 422.875 679.25 426.375 694.625 L 427.25 695.375 C 435.875 695 439 694.875 450.5 695 L 451.25 694.125 L 454.5 678.875 L 458 663.75 L 461.125 648.625 L 463 658.125 L 464.875 667.375 L 470.125 694.5 L 471 695.375 C 480.25 695 484 694.875 494 695 Z M 582.625 661.75 C 582.625 656.875 582.625 636.625 565.125 629.75 C 559.625 627.625 553.125 627.375 549.875 627.375 C 528.125 627.375 515.875 639 515.875 662 C 515.875 670 517.125 678.125 521.75 684.875 C 525 689.75 531.125 696.5 549 696.5 C 575.5 696.5 582.625 680.5 582.625 661.75 M 561 661.625 C 561 671.875 559.625 683.25 549.25 683.25 C 546 683.25 543.75 681.75 542.25 680.375 C 540.125 678.25 537.75 674 537.75 661.875 C 537.75 658.25 537.75 650.25 540.25 645.875 C 542.125 642.5 545.375 640.25 549.375 640.25 C 552.875 640.25 555.75 642.125 557.375 644.125 C 560.375 647.75 561 654.875 561 661.625 Z M 658.125 661.75 C 658.125 656.875 658.125 636.625 640.625 629.75 C 635.125 627.625 628.625 627.375 625.375 627.375 C 603.625 627.375 591.375 639 591.375 662 C 591.375 670 592.625 678.125 597.25 684.875 C 600.5 689.75 606.625 696.5 624.5 696.5 C 651 696.5 658.125 680.5 658.125 661.75 M 636.5 661.625 C 636.5 671.875 635.125 683.25 624.75 683.25 C 621.5 683.25 619.25 681.75 617.75 680.375 C 615.625 678.25 613.25 674 613.25 661.875 C 613.25 658.25 613.25 650.25 615.75 645.875 C 617.625 642.5 620.875 640.25 624.875 640.25 C 628.375 640.25 631.25 642.125 632.875 644.125 C 635.875 647.75 636.5 654.875 636.5 661.625 Z M 731.25 694.25 C 730.75 683 730.375 675.5 730.375 659.125 C 730.375 626.125 730.875 612.5 731.375 596 L 730.5 595.25 L 709.875 598.5 L 709.25 599.25 C 710 611 710.125 614.125 710 628.375 C 700.625 628.125 688.875 627.875 679.375 635.375 C 670.625 642.125 667 652.5 667 665.375 C 667 675.125 669.625 684.875 677 691 C 682.5 695.5 689.25 696.5 693.375 696.5 C 702.25 696.5 706.875 692.375 709.875 689.75 L 709.625 694.625 L 710.25 695.375 C 718.875 695 721.25 695 730.625 695 L 731.25 694.25 M 710 643.375 C 710.125 660 710 663.25 709.625 678.375 C 707.125 679.875 704.625 681.375 701.125 681.375 C 689 681.375 689 665.875 689 663.375 C 689 653.75 691.75 643 705.75 643 C 707.125 643 708.25 643.125 710 643.375 Z M 771.75 651.875 C 767.5 650.375 764.125 649 764.125 645.5 C 764.125 644 765.125 639.875 772.875 639.875 C 780.5 639.875 785.375 643.125 788.5 645.125 L 789.625 644.75 L 790.875 631.125 L 790.25 630.375 C 784.375 628.75 779.25 627.25 771.125 627.25 C 765 627.25 752.75 627.75 746.25 637.125 C 744.625 639.375 742.875 643.125 742.875 648.125 C 742.875 661.5 753.25 665.5 759.125 667.75 L 763.875 669.5 C 767.25 670.625 772.75 672.5 772.75 677 C 772.75 680.125 769.875 683.5 762.875 683.5 C 759.375 683.5 754.25 682.375 749.625 680 C 747.5 678.875 746.5 678 744.625 676.5 L 743.5 677 C 743.25 683.5 743.125 684.875 742.625 691.125 L 743.25 692.25 C 749.375 694.5 754.625 696.5 763.75 696.5 C 773.25 696.5 792 694.75 794.25 676.875 C 794.375 675.875 794.375 675 794.375 674.125 C 794.375 660.375 784.75 656.75 777.875 654.125 Z M 797.875 695 "/>
<path fill-rule="nonzero" fill="rgb(34.901961%, 14.901961%, 14.901961%)" fill-opacity="1" d="M 232.875 791.25 C 222.375 786.875 216.875 784.625 216.875 779 C 216.875 775.125 220.5 770.25 228.75 770.25 C 238.25 770.25 243.875 774.125 248.5 777.25 L 249.625 776.75 L 250.625 760.375 L 250 759.5 C 244.625 757.25 239 754.875 226.875 754.875 C 203.375 754.875 195.25 768.125 195.25 781.5 C 195.25 796.625 207 802.125 214 805.5 L 218.125 807.375 C 226.75 811 233.375 814.125 233.375 820.75 C 233.375 825.5 229.25 831.125 218.375 831.125 C 207 831.125 200.625 826.125 197 823.25 L 195.75 823.625 L 194.875 841.25 L 195.625 842.25 C 197 842.75 198.375 843.375 199.75 843.75 C 202.625 844.75 210 846.875 219.375 846.875 C 223.125 846.875 232.625 846.5 240.125 843 C 250.625 837.875 255.125 828.375 255.125 817.75 C 255.125 810.625 252.375 803 245.75 797.875 C 242.375 795.375 239.125 793.875 236.125 792.5 Z M 302 830.625 C 299.875 831.25 298.375 831.75 296.25 831.75 C 289.875 831.75 289.375 827.75 289.125 825.875 C 288.75 822.625 288.75 815.75 288.875 810.75 L 289.125 793.125 L 300.375 793.625 L 301.125 792.875 L 302.375 779.5 L 301.625 778.75 L 289.125 778.75 L 289.5 757.75 L 288.625 757 C 280.125 759.5 277.875 760.125 269 762.375 L 268.5 763.25 L 268.625 778.875 L 261.875 778.625 L 261.125 779.25 L 260 792.625 L 260.75 793.375 L 268.625 793.125 L 268.25 813 C 268.125 816.125 268 819.25 268 822.5 C 268 834 268.25 846.375 287.75 846.375 C 292.625 846.375 296.5 845.625 300.875 844.875 L 301.75 844 L 303 831.125 Z M 366.875 807.75 C 367 796.5 367 791.625 363.75 786.375 C 361.25 782.375 356.25 777.375 340.25 777.375 C 329.5 777.375 322.875 779.375 315.75 781.5 L 315 782.5 L 314.375 796.125 L 315.375 796.625 C 319.75 794.875 327.875 791.625 336.25 791.625 C 340.875 791.625 342.75 792.375 344.375 794 C 345.625 795.25 346 797.5 346 799.375 C 331 801.375 324 802.75 316.5 807.375 C 309.5 811.75 307.125 818.875 307.125 824.5 C 307.125 837.875 316.75 846.5 329 846.5 C 338.375 846.5 343.75 842 346.375 839.875 L 346.375 844.5 L 347.125 845.375 C 356.125 845 358.875 844.875 367 845 L 367.625 844.125 C 366.75 831.875 366.75 828.75 366.75 817 L 366.875 807.75 M 346.25 827.625 C 343.625 829.125 340.25 830.875 336.125 830.875 C 331.625 830.875 327.875 828.5 327.875 823.25 C 327.875 815 337.75 813.625 346.25 812.5 Z M 416.5 830.625 C 414.375 831.25 412.875 831.75 410.75 831.75 C 404.375 831.75 403.875 827.75 403.625 825.875 C 403.25 822.625 403.25 815.75 403.375 810.75 L 403.625 793.125 L 414.875 793.625 L 415.625 792.875 L 416.875 779.5 L 416.125 778.75 L 403.625 778.75 L 404 757.75 L 403.125 757 C 394.625 759.5 392.375 760.125 383.5 762.375 L 383 763.25 L 383.125 778.875 L 376.375 778.625 L 375.625 779.25 L 374.5 792.625 L 375.25 793.375 L 383.125 793.125 L 382.75 813 C 382.625 816.125 382.5 819.25 382.5 822.5 C 382.5 834 382.75 846.375 402.25 846.375 C 407.125 846.375 411 845.625 415.375 844.875 L 416.25 844 L 417.5 831.125 Z M 481.25 826.5 C 476.5 829 470.875 831.875 461.75 831.875 C 454.25 831.875 449.125 829.5 446.125 825 C 444.25 822.375 443.875 819.875 443.375 817.375 L 483.75 816.625 L 484.5 815.75 C 484.375 809.625 484.25 803.375 482.5 797.125 C 478.125 782.375 468.5 779.375 464.25 778.375 C 461.125 777.5 458.25 777.25 455.375 777.25 C 435.75 777.25 422.75 790.125 422.75 811.75 C 422.75 817.625 423.75 823.75 425.75 828.125 C 433 845 450 846.5 459 846.5 C 469.375 846.5 473.875 844.625 480.5 842 L 481.25 841 L 482.125 826.875 L 481.25 826.5 M 443.375 804.125 C 443.75 800.25 444.625 795 449.375 792 C 450.875 791 452.625 790.625 454.375 790.625 C 458.5 790.625 461 792.75 462.375 795 C 464.125 797.75 464.25 800.75 464.25 803.625 Z M 549.25 756.5 L 533.375 756.75 L 532.625 757.5 C 533.125 773.75 533.5 784.625 533.5 799 C 533.5 814.25 533.125 829.375 532.75 844.625 L 533.5 845.375 C 542.75 845 544.75 844.875 554.75 845 L 555.375 844.25 C 554.875 830.625 554.875 827.5 554.875 814.75 C 568.875 814.875 583.875 814.875 592.875 803.875 C 596.375 799.625 599.375 792.5 599.375 783.75 C 599.375 778.375 598.125 766.5 587.75 760.625 C 580.25 756.25 569.625 756.25 560.25 756.25 L 549.25 756.5 M 554.875 771.625 C 557.625 771.5 560.25 771.5 563 771.5 C 574 771.75 577 777.375 577 784.625 C 577 786.375 577 793.625 570.375 797.25 C 567 799.125 562.375 799.375 554.875 799.375 Z M 663.625 807.75 C 663.75 796.5 663.75 791.625 660.5 786.375 C 658 782.375 653 777.375 637 777.375 C 626.25 777.375 619.625 779.375 612.5 781.5 L 611.75 782.5 L 611.125 796.125 L 612.125 796.625 C 616.5 794.875 624.625 791.625 633 791.625 C 637.625 791.625 639.5 792.375 641.125 794 C 642.375 795.25 642.75 797.5 642.75 799.375 C 627.75 801.375 620.75 802.75 613.25 807.375 C 606.25 811.75 603.875 818.875 603.875 824.5 C 603.875 837.875 613.5 846.5 625.75 846.5 C 635.125 846.5 640.5 842 643.125 839.875 L 643.125 844.5 L 643.875 845.375 C 652.875 845 655.625 844.875 663.75 845 L 664.375 844.125 C 663.5 831.875 663.5 828.75 663.5 817 L 663.625 807.75 M 643 827.625 C 640.375 829.125 637 830.875 632.875 830.875 C 628.375 830.875 624.625 828.5 624.625 823.25 C 624.625 815 634.5 813.625 643 812.5 Z M 714.375 798.625 L 717.875 778.25 L 717.125 777.375 C 716.25 777.375 715.375 777.25 714.5 777.25 C 709.375 777.25 703.625 780.125 699.625 789.375 L 700 777.875 L 699 776.875 C 689.75 778.875 687.375 779.25 678.25 780.625 L 677.5 781.375 C 678.25 790.75 678.625 796.375 678.625 813.75 C 678.625 824 678.5 834.25 678.25 844.625 L 679 845.375 C 688.25 845 690.25 844.875 700.25 845 L 700.875 844.125 C 700.375 834 699.625 819.875 699.625 811.25 C 699.625 805.625 699.625 797.375 708.125 797.375 C 710.25 797.375 711.5 798.125 713.25 799.125 Z M 789.375 843.375 C 777.625 823.5 776.375 821.25 766.875 804.125 C 775.5 792.375 776.375 791.125 785.25 779.75 L 784.625 778.5 L 764.25 778.75 L 763 779.625 C 753.25 796.5 752 798.5 746.25 807.125 L 746.25 793.25 C 746.375 769.875 746.5 764.875 747.125 746 L 746.125 745.25 L 724.375 748.5 L 723.625 749.375 C 724.5 761.5 724.875 767.375 725.125 783.75 C 725.375 804 725.375 824.25 725.25 844.5 L 726.125 845.375 C 734.5 845 736.875 845 746.375 845 L 747.125 844.125 L 746.375 823 L 746.25 808.625 C 757.125 828.625 758.5 831.375 764.875 844.625 L 766 845.375 L 788.5 844.5 Z M 787.875 845 "/>
</svg>
