<?xml version="1.0" encoding="UTF-8"?>
<svg xmlns="http://www.w3.org/2000/svg" xmlns:xlink="http://www.w3.org/1999/xlink" width="975" height="1300" viewBox="0 0 975 1300">
<path fill-rule="nonzero" fill="rgb(34.901961%, 14.901961%, 14.901961%)" fill-opacity="1" d="M 237.625 602.875 C 224 603.625 213.125 603.875 209.375 603.875 L 206.875 603.875 C 206.625 570.5 206.75 562 207.75 532.125 L 207 531.375 C 196.25 531.875 193.375 531.875 184.75 531.75 L 184 532.5 C 184.5 542.5 184.625 545.5 184.625 560.375 C 184.625 580.125 184.5 599.875 184.5 619.625 L 185.125 620.375 C 209.625 620 214.125 620 236.625 620 L 237.25 619.25 L 238.25 603.5 Z M 271.625 619.125 C 271 609.5 270.5 602.125 270.5 584.875 C 270.5 574.25 270.75 563.5 270.875 552.875 L 270 551.875 L 248.5 555.625 L 247.75 556.375 C 248.75 565.875 249.125 570.25 249.125 588 C 249.125 601.625 248.75 609.25 248.375 619.5 L 249.125 620.375 C 258.125 620 260.625 619.875 270.75 620 L 271.625 619.125 M 269.625 539.875 L 270 522.875 L 269.25 522.125 L 248.875 524.625 L 248.125 525.5 C 248.375 530 248.5 532.625 248.5 535.625 C 248.5 538 248.5 540.5 248.375 542.875 L 249.25 543.625 C 257.75 542.125 260.125 541.875 269 540.75 Z M 320.5 605.625 C 318.375 606.25 316.875 606.75 314.75 606.75 C 308.375 606.75 307.875 602.75 307.625 600.875 C 307.25 597.625 307.25 590.75 307.375 585.75 L 307.625 568.125 L 318.875 568.625 L 319.625 567.875 L 320.875 554.5 L 320.125 553.75 L 307.625 553.75 L 308 532.75 L 307.125 532 C 298.625 534.5 296.375 535.125 287.5 537.375 L 287 538.25 L 287.125 553.875 L 280.375 553.625 L 279.625 554.25 L 278.5 567.625 L 279.25 568.375 L 287.125 568.125 L 286.75 588 C 286.625 591.125 286.5 594.25 286.5 597.5 C 286.5 609 286.75 621.375 306.25 621.375 C 311.125 621.375 315 620.625 319.375 619.875 L 320.25 619 L 321.5 606.125 Z M 364.75 605.625 C 362.625 606.25 361.125 606.75 359 606.75 C 352.625 606.75 352.125 602.75 351.875 600.875 C 351.5 597.625 351.5 590.75 351.625 585.75 L 351.875 568.125 L 363.125 568.625 L 363.875 567.875 L 365.125 554.5 L 364.375 553.75 L 351.875 553.75 L 352.25 532.75 L 351.375 532 C 342.875 534.5 340.625 535.125 331.75 537.375 L 331.25 538.25 L 331.375 553.875 L 324.625 553.625 L 323.875 554.25 L 322.75 567.625 L 323.5 568.375 L 331.375 568.125 L 331 588 C 330.875 591.125 330.75 594.25 330.75 597.5 C 330.75 609 331 621.375 350.5 621.375 C 355.375 621.375 359.25 620.625 363.625 619.875 L 364.5 619 L 365.75 606.125 Z M 396 619.125 C 395.375 604.75 394.75 591.625 394.75 552.125 C 394.75 540.25 394.875 534.625 395.375 521.125 L 394.5 520.25 L 373.125 523.625 L 372.625 524.375 C 373.875 539.625 374 543.75 374.25 564 C 374.375 571.375 374.375 578.75 374.375 586.125 C 374.375 599.625 374.125 607.125 373.625 619.5 L 374.375 620.375 C 382.75 620 386.125 619.875 395.25 620 Z M 466 601.5 C 461.25 604 455.625 606.875 446.5 606.875 C 439 606.875 433.875 604.5 430.875 600 C 429 597.375 428.625 594.875 428.125 592.375 L 468.5 591.625 L 469.25 590.75 C 469.125 584.625 469 578.375 467.25 572.125 C 462.875 557.375 453.25 554.375 449 553.375 C 445.875 552.5 443 552.25 440.125 552.25 C 420.5 552.25 407.5 565.125 407.5 586.75 C 407.5 592.625 408.5 598.75 410.5 603.125 C 417.75 620 434.75 621.5 443.75 621.5 C 454.125 621.5 458.625 619.625 465.25 617 L 466 616 L 466.875 601.875 L 466 601.5 M 428.125 579.125 C 428.5 575.25 429.375 570 434.125 567 C 435.625 566 437.375 565.625 439.125 565.625 C 443.25 565.625 445.75 567.75 447.125 570 C 448.875 572.75 449 575.75 449 578.625 Z M 545.5 585.625 C 553.875 599.875 555.75 603.625 563.75 620 L 564.75 620.625 C 568.625 620.375 572.375 620.125 576.25 620 C 580.125 619.875 584.125 619.75 588 619.75 L 588.75 618.25 C 584 612.125 582.625 610.25 573.625 595.875 C 569.625 589.5 567.625 586.125 564.5 580.625 C 570.125 578.125 581.5 572.875 581.5 557 C 581.5 551.5 580 540.125 569.75 534.75 C 563.25 531.375 556.5 531.25 541.875 531.5 L 533.125 531.625 L 517.875 531.625 L 517.25 532.375 C 517.75 545 518.25 558 518.25 592 C 518.25 603.625 518.125 609.25 517.75 619.625 L 518.5 620.375 C 527.625 620 529.625 619.875 539.875 620 L 540.625 619.25 C 539.625 604.75 539.5 600.75 539.375 585.875 L 545.5 585.625 M 539.625 546.75 C 541.375 546.625 543.125 546.625 544.875 546.625 C 549.75 546.625 559.375 546.625 559.375 557.625 C 559.375 561.125 558.5 565.75 553.875 568.625 C 550.375 570.75 545.875 571 539.625 571.125 Z M 618 619.125 C 617.375 609.5 616.875 602.125 616.875 584.875 C 616.875 574.25 617.125 563.5 617.25 552.875 L 616.375 551.875 L 594.875 555.625 L 594.125 556.375 C 595.125 565.875 595.5 570.25 595.5 588 C 595.5 601.625 595.125 609.25 594.75 619.5 L 595.5 620.375 C 604.5 620 607 619.875 617.125 620 L 618 619.125 M 616 539.875 L 616.375 522.875 L 615.625 522.125 L 595.25 524.625 L 594.5 525.5 C 594.75 530 594.875 532.625 594.875 535.625 C 594.875 538 594.875 540.5 594.75 542.875 L 595.625 543.625 C 604.125 542.125 606.5 541.875 615.375 540.75 Z M 666.375 619 C 670.375 606.5 672.75 598.75 675.375 590.875 C 678.75 580.75 684.25 564.5 687.75 554.25 L 687.125 553.375 L 669.625 553.75 L 668.75 554.625 C 667 563 666.625 564.75 664.125 574.5 L 657.75 599.125 L 654.625 585.625 L 652.25 576 C 649.125 564.375 648.625 562 646.875 553.75 L 646 553 C 636.125 554.125 633.625 554.25 624.125 554.375 L 623.625 555.375 C 640.25 604.625 641.625 609.25 644.375 619.5 L 645.25 620.375 C 653.375 620 656.625 619.875 665.625 620 Z M 749.875 601.5 C 745.125 604 739.5 606.875 730.375 606.875 C 722.875 606.875 717.75 604.5 714.75 600 C 712.875 597.375 712.5 594.875 712 592.375 L 752.375 591.625 L 753.125 590.75 C 753 584.625 752.875 578.375 751.125 572.125 C 746.75 557.375 737.125 554.375 732.875 553.375 C 729.75 552.5 726.875 552.25 724 552.25 C 704.375 552.25 691.375 565.125 691.375 586.75 C 691.375 592.625 692.375 598.75 694.375 603.125 C 701.625 620 718.625 621.5 727.625 621.5 C 738 621.5 742.5 619.625 749.125 617 L 749.875 616 L 750.75 601.875 L 749.875 601.5 M 712 579.125 C 712.375 575.25 713.25 570 718 567 C 719.5 566 721.25 565.625 723 565.625 C 727.125 565.625 729.625 567.75 731 570 C 732.75 572.75 732.875 575.75 732.875 578.625 Z M 800.75 573.625 L 804.25 553.25 L 803.5 552.375 C 802.625 552.375 801.75 552.25 800.875 552.25 C 795.75 552.25 790 555.125 786 564.375 L 786.375 552.875 L 785.375 551.875 C 776.125 553.875 773.75 554.25 764.625 555.625 L 763.875 556.375 C 764.625 565.75 765 571.375 765 588.75 C 765 599 764.875 609.25 764.625 619.625 L 765.375 620.375 C 774.625 620 776.625 619.875 786.625 620 L 787.25 619.125 C 786.75 609 786 594.875 786 586.25 C 786 580.625 786 572.375 794.5 572.375 C 796.625 572.375 797.875 573.125 799.625 574.125 Z M 804 620 "/>
<path fill-rule="nonzero" fill="rgb(34.901961%, 14.901961%, 14.901961%)" fill-opacity="1" d="M 190.125 716.25 C 179.625 711.875 174.125 709.625 174.125 704 C 174.125 700.125 177.75 695.25 186 695.25 C 195.5 695.25 201.125 699.125 205.75 702.25 L 206.875 701.75 L 207.875 685.375 L 207.25 684.5 C 201.875 682.25 196.25 679.875 184.125 679.875 C 160.625 679.875 152.5 693.125 152.5 706.5 C 152.5 721.625 164.25 727.125 171.25 730.5 L 175.375 732.375 C 184 736 190.625 739.125 190.625 745.75 C 190.625 750.5 186.5 756.125 175.625 756.125 C 164.25 756.125 157.875 751.125 154.25 748.25 L 153 748.625 L 152.125 766.25 L 152.875 767.25 C 154.25 767.75 155.625 768.375 157 768.75 C 159.875 769.75 167.25 771.875 176.625 771.875 C 180.375 771.875 189.875 771.5 197.375 768 C 207.875 762.875 212.375 753.375 212.375 742.75 C 212.375 735.625 209.625 728 203 722.875 C 199.625 720.375 196.375 718.875 193.375 717.5 Z M 259.25 755.625 C 257.125 756.25 255.625 756.75 253.5 756.75 C 247.125 756.75 246.625 752.75 246.375 750.875 C 246 747.625 246 740.75 246.125 735.75 L 246.375 718.125 L 257.625 718.625 L 258.375 717.875 L 259.625 704.5 L 258.875 703.75 L 246.375 703.75 L 246.75 682.75 L 245.875 682 C 237.375 684.5 235.125 685.125 226.25 687.375 L 225.75 688.25 L 225.875 703.875 L 219.125 703.625 L 218.375 704.25 L 217.25 717.625 L 218 718.375 L 225.875 718.125 L 225.5 738 C 225.375 741.125 225.25 744.25 225.25 747.5 C 225.25 759 225.5 771.375 245 771.375 C 249.875 771.375 253.75 770.625 258.125 769.875 L 259 769 L 260.25 756.125 Z M 324.125 732.75 C 324.25 721.5 324.25 716.625 321 711.375 C 318.5 707.375 313.5 702.375 297.5 702.375 C 286.75 702.375 280.125 704.375 273 706.5 L 272.25 707.5 L 271.625 721.125 L 272.625 721.625 C 277 719.875 285.125 716.625 293.5 716.625 C 298.125 716.625 300 717.375 301.625 719 C 302.875 720.25 303.25 722.5 303.25 724.375 C 288.25 726.375 281.25 727.75 273.75 732.375 C 266.75 736.75 264.375 743.875 264.375 749.5 C 264.375 762.875 274 771.5 286.25 771.5 C 295.625 771.5 301 767 303.625 764.875 L 303.625 769.5 L 304.375 770.375 C 313.375 770 316.125 769.875 324.25 770 L 324.875 769.125 C 324 756.875 324 753.75 324 742 L 324.125 732.75 M 303.5 752.625 C 300.875 754.125 297.5 755.875 293.375 755.875 C 288.875 755.875 285.125 753.5 285.125 748.25 C 285.125 740 295 738.625 303.5 737.5 Z M 373.75 755.625 C 371.625 756.25 370.125 756.75 368 756.75 C 361.625 756.75 361.125 752.75 360.875 750.875 C 360.5 747.625 360.5 740.75 360.625 735.75 L 360.875 718.125 L 372.125 718.625 L 372.875 717.875 L 374.125 704.5 L 373.375 703.75 L 360.875 703.75 L 361.25 682.75 L 360.375 682 C 351.875 684.5 349.625 685.125 340.75 687.375 L 340.25 688.25 L 340.375 703.875 L 333.625 703.625 L 332.875 704.25 L 331.75 717.625 L 332.5 718.375 L 340.375 718.125 L 340 738 C 339.875 741.125 339.75 744.25 339.75 747.5 C 339.75 759 340 771.375 359.5 771.375 C 364.375 771.375 368.25 770.625 372.625 769.875 L 373.5 769 L 374.75 756.125 Z M 438.5 751.5 C 433.75 754 428.125 756.875 419 756.875 C 411.5 756.875 406.375 754.5 403.375 750 C 401.5 747.375 401.125 744.875 400.625 742.375 L 441 741.625 L 441.75 740.75 C 441.625 734.625 441.5 728.375 439.75 722.125 C 435.375 707.375 425.75 704.375 421.5 703.375 C 418.375 702.5 415.5 702.25 412.625 702.25 C 393 702.25 380 715.125 380 736.75 C 380 742.625 381 748.75 383 753.125 C 390.25 770 407.25 771.5 416.25 771.5 C 426.625 771.5 431.125 769.625 437.75 767 L 438.5 766 L 439.375 751.875 L 438.5 751.5 M 400.625 729.125 C 401 725.25 401.875 720 406.625 717 C 408.125 716 409.875 715.625 411.625 715.625 C 415.75 715.625 418.25 717.75 419.625 720 C 421.375 722.75 421.5 725.75 421.5 728.625 Z M 513 770 C 524.625 770.25 539 770.5 548.375 764 C 556.625 758.125 558.875 749.875 558.875 742.875 C 558.875 734.875 555.5 727.5 548.375 724 C 546 722.75 543.25 722.25 540.625 721.75 C 544.875 720 549.875 717.75 553.125 711.125 C 554.5 708.25 555.125 705.25 555.125 702.375 C 555.125 698.375 554.125 692.875 550.125 688.375 C 544.875 682.75 536.75 681.25 524.5 681.25 C 520.25 681.25 512.625 681.375 508.375 681.5 L 490.875 681.75 L 490.125 682.5 C 490.625 694.5 490.75 699.125 490.75 716.375 C 490.75 734.125 490.625 751.75 490.375 769.5 L 491.25 770 L 513 770 M 512.125 732 C 521.625 731.75 527.125 731.75 530.75 733.875 C 534.375 736.125 535.75 740.125 535.75 744.125 C 535.75 749.75 532.625 753.25 528 754.875 C 524.25 756.125 517.5 756.125 512.125 756 L 512.125 732 M 512.125 695.25 C 514.75 695.25 518.25 695.125 520.375 695.125 C 527.125 695.125 533.25 697.5 533.25 705.625 C 533.25 712.25 528.375 715 526.875 715.75 C 523.75 717.125 517.125 717.125 512.125 717.125 Z M 626 751.5 C 621.25 754 615.625 756.875 606.5 756.875 C 599 756.875 593.875 754.5 590.875 750 C 589 747.375 588.625 744.875 588.125 742.375 L 628.5 741.625 L 629.25 740.75 C 629.125 734.625 629 728.375 627.25 722.125 C 622.875 707.375 613.25 704.375 609 703.375 C 605.875 702.5 603 702.25 600.125 702.25 C 580.5 702.25 567.5 715.125 567.5 736.75 C 567.5 742.625 568.5 748.75 570.5 753.125 C 577.75 770 594.75 771.5 603.75 771.5 C 614.125 771.5 618.625 769.625 625.25 767 L 626 766 L 626.875 751.875 L 626 751.5 M 588.125 729.125 C 588.5 725.25 589.375 720 594.125 717 C 595.625 716 597.375 715.625 599.125 715.625 C 603.25 715.625 605.75 717.75 607.125 720 C 608.875 722.75 609 725.75 609 728.625 Z M 696.375 732.75 C 696.5 721.5 696.5 716.625 693.25 711.375 C 690.75 707.375 685.75 702.375 669.75 702.375 C 659 702.375 652.375 704.375 645.25 706.5 L 644.5 707.5 L 643.875 721.125 L 644.875 721.625 C 649.25 719.875 657.375 716.625 665.75 716.625 C 670.375 716.625 672.25 717.375 673.875 719 C 675.125 720.25 675.5 722.5 675.5 724.375 C 660.5 726.375 653.5 727.75 646 732.375 C 639 736.75 636.625 743.875 636.625 749.5 C 636.625 762.875 646.25 771.5 658.5 771.5 C 667.875 771.5 673.25 767 675.875 764.875 L 675.875 769.5 L 676.625 770.375 C 685.625 770 688.375 769.875 696.5 770 L 697.125 769.125 C 696.25 756.875 696.25 753.75 696.25 742 L 696.375 732.75 M 675.75 752.625 C 673.125 754.125 669.75 755.875 665.625 755.875 C 661.125 755.875 657.375 753.5 657.375 748.25 C 657.375 740 667.25 738.625 675.75 737.5 Z M 759.875 752 C 756.5 754 753.25 756 746.875 756 C 732.75 756 729.875 744.25 729.875 736.75 C 729.875 727.625 733.875 717.125 746 717.125 C 751.5 717.125 754.5 719.125 758.25 721.625 L 759.5 721.25 C 760 714.625 760.125 712.875 761.125 706.25 L 760.5 705.5 C 755 703.75 750.25 702.25 743 702.25 C 713.625 702.25 707.875 724.5 707.875 737.25 C 707.875 751.625 715.375 771.125 743.5 771.125 C 750.125 771.125 754.375 769.875 759.625 768.375 L 760.375 767.625 L 760.875 752.625 Z M 832.125 769.125 C 831.625 758.875 831.5 755.375 831.25 742.375 L 831.25 733 C 831.125 721.125 831 714.25 827.375 709 C 823.75 703.875 818.5 702.25 813 702.25 C 803.875 702.25 796.75 706.625 791.75 709.625 L 792.125 671.125 L 791.375 670.25 L 770 673.625 L 769.375 674.375 C 770.5 686.5 770.75 691 771 707.125 C 771.25 717.25 771.375 727.375 771.375 737.5 C 771.375 749.875 771.125 757.25 770.875 769.5 L 771.5 770.375 C 780.75 769.875 782.625 769.875 792.75 769.875 L 793.5 769.125 C 792.625 750.375 792.5 744.75 792.375 722.625 C 794.75 721 797.75 718.875 802 718.875 C 808.875 718.875 809.375 726 809.875 731 C 810.125 734.875 810.25 752.625 810.25 757.25 C 810.25 761.375 810.125 765.375 810.125 769.5 L 810.75 770.375 C 819.75 769.875 821.75 769.875 831.375 769.875 Z M 838.875 770 "/>
</svg>
