<svg xmlns="http://www.w3.org/2000/svg" width="612" height="817" viewBox="0 0 612 817">
  <defs>
    <style>
      .cls-1 {
        fill: #592626;
        fill-rule: evenodd;
      }
    </style>
  </defs>
  <path id="Standish-Hickey_State_Recreation_Area" data-name="Standish-Hickey State Recreation Area" class="cls-1" d="M58.7,267.011c-6.066-2.527-9.244-3.827-9.244-7.077,0-2.239,2.094-5.056,6.861-5.056,5.489,0,8.739,2.239,11.411,4.045l0.65-.289,0.578-9.461-0.361-.506A29.582,29.582,0,0,0,55.238,246c-13.577,0-18.272,7.656-18.272,15.383,0,8.739,6.789,11.916,10.833,13.866l2.383,1.084c4.983,2.094,8.811,3.9,8.811,7.727,0,2.745-2.383,5.994-8.666,5.994a18.425,18.425,0,0,1-12.35-4.549l-0.722.216L36.75,295.9l0.433,0.578c0.794,0.289,1.589.65,2.383,0.867a36,36,0,0,0,11.339,1.805c2.167,0,7.655-.217,11.989-2.239,6.066-2.961,8.666-8.449,8.666-14.588a14.313,14.313,0,0,0-5.416-11.483,29.323,29.323,0,0,0-5.561-3.106Zm39.939,22.75a10.843,10.843,0,0,1-3.322.649c-3.683,0-3.972-2.311-4.117-3.394a82.753,82.753,0,0,1-.144-8.738L91.205,268.1l6.5,0.288,0.433-.433,0.722-7.727-0.433-.434H91.205l0.217-12.133-0.505-.433c-4.911,1.444-6.211,1.806-11.338,3.1l-0.289.506,0.072,9.028-3.9-.145-0.433.361-0.65,7.728,0.433,0.433,4.55-.144-0.217,11.483c-0.072,1.805-.145,3.611-0.145,5.488,0,6.644.145,13.794,11.411,13.794a42.006,42.006,0,0,0,7.583-.866l0.505-.506,0.722-7.439Zm37.483-13.217c0.072-6.5.072-9.316-1.806-12.349-1.444-2.311-4.333-5.2-13.577-5.2a43.942,43.942,0,0,0-14.155,2.383l-0.434.578-0.361,7.872,0.578,0.289c2.528-1.011,7.222-2.889,12.061-2.889,2.672,0,3.755.433,4.694,1.372a4.555,4.555,0,0,1,.939,3.106c-8.667,1.155-12.711,1.949-17.044,4.622a11.549,11.549,0,0,0-5.417,9.894c0,7.727,5.561,12.71,12.639,12.71a14.934,14.934,0,0,0,10.039-3.827v2.672l0.433,0.5c5.2-.216,6.789-0.288,11.483-0.216l0.361-.506c-0.506-7.077-.506-8.883-0.506-15.671ZM124.21,288.027a11.688,11.688,0,0,1-5.85,1.878c-2.6,0-4.766-1.372-4.766-4.4,0-4.767,5.705-5.561,10.616-6.211v8.738Zm55.755,9.533c-0.361-6.355-.361-8.377-0.5-15.455v-5.633c-0.072-6.933-.145-10.255-1.95-13.216-2.239-3.756-6.355-4.333-8.955-4.333-4.406,0-8.233,2.311-11.556,4.261l0.145-3.972-0.722-.506c-5.561,1.156-6.789,1.372-12.2,2.094l-0.434.506a200.833,200.833,0,0,1,1.011,22.605c0,4.622-.072,9.244-0.144,13.866l0.433,0.433c5.2-.216,6.283-0.216,12.061-0.216l0.433-.434c-0.433-11.122-.5-13.938-0.578-26.866,1.517-1.011,3.25-2.238,5.561-2.238,3.972,0,4.334,4.261,4.55,6.861,0.145,2.383.217,12.277,0.217,15.021,0,2.456-.072,4.983-0.072,7.439l0.433,0.433c4.766-.144,5.994-0.216,11.772-0.216Zm43.623,0.072c-0.289-6.5-.506-10.832-0.506-20.293,0-19.066.289-26.938,0.578-36.471l-0.506-.434-11.916,1.878-0.361.433c0.433,6.789.5,8.595,0.433,16.828-5.416-.145-12.205-0.289-17.694,4.044-5.055,3.9-7.149,9.894-7.149,17.333,0,5.633,1.516,11.266,5.777,14.805a15.226,15.226,0,0,0,9.461,3.177,13.232,13.232,0,0,0,9.533-3.9l-0.144,2.816,0.361,0.433c4.983-.216,6.355-0.216,11.771-0.216ZM211.31,268.239c0.072,9.605,0,11.483-.216,20.222a9.14,9.14,0,0,1-4.911,1.733c-7.006,0-7.006-8.955-7.006-10.4,0-5.561,1.589-11.772,9.678-11.772A16.229,16.229,0,0,1,211.31,268.239Zm33.584,29.321c-0.361-5.561-.65-9.822-0.65-19.788,0-6.139.144-12.35,0.217-18.488l-0.506-.578-12.422,2.167-0.433.433a136.938,136.938,0,0,1,.794,18.272c0,7.871-.216,12.277-0.433,18.2l0.433,0.5c5.2-.216,6.645-0.288,12.494-0.216Zm-1.156-45.787,0.217-9.822-0.433-.433-11.772,1.444-0.433.506c0.144,2.6.216,4.116,0.216,5.849,0,1.373,0,2.817-.072,4.189l0.506,0.433c4.91-.866,6.283-1.011,11.41-1.661Zm24.339,21.377c-2.455-.867-4.4-1.661-4.4-3.683,0-.867.577-3.25,5.055-3.25a15.675,15.675,0,0,1,9.028,3.033l0.65-.217,0.722-7.872-0.361-.433a36.784,36.784,0,0,0-11.05-1.805c-3.539,0-10.616.289-14.372,5.7a10.856,10.856,0,0,0-1.95,6.355c0,7.728,6,10.039,9.389,11.339l2.744,1.011c1.95,0.65,5.128,1.733,5.128,4.333,0,1.806-1.661,3.756-5.7,3.756a18.061,18.061,0,0,1-7.656-2.023,15.969,15.969,0,0,1-2.889-2.022l-0.65.289c-0.144,3.756-.216,4.55-0.5,8.161l0.361,0.65c3.539,1.3,6.572,2.455,11.844,2.455,5.489,0,16.322-1.011,17.622-11.338a12.279,12.279,0,0,0,.072-1.589c0-7.944-5.561-10.038-9.533-11.555Zm54.816,24.41c-0.289-5.922-.361-7.944-0.5-15.455v-5.416c-0.073-6.861-.145-10.833-2.239-13.866-2.1-2.961-5.128-3.9-8.305-3.9-5.273,0-9.389,2.527-12.278,4.261l0.217-22.244-0.434-.506L287,242.384l-0.361.434c0.65,7,.794,9.6.939,18.921q0.216,8.775.216,17.55c0,7.149-.144,11.41-0.289,18.488l0.362,0.5c5.344-.288,6.427-0.288,12.277-0.288l0.433-.434c-0.5-10.833-.578-14.083-0.65-26.866a9.544,9.544,0,0,1,5.561-2.166c3.972,0,4.261,4.116,4.55,7,0.144,2.239.217,12.494,0.217,15.166,0,2.384-.073,4.695-0.073,7.078l0.362,0.5c5.2-.288,6.355-0.288,11.916-0.288Zm28.167-24.554c-3.466.072-6.283,0.144-10.544,0.144-3.466,0-6.933-.072-10.327-0.072l-0.506.433-0.433,8.3,0.361,0.434c4.044-.073,6.428-0.145,10.255-0.145,3.539,0,7.078.072,10.617,0.072l0.433-.433,0.5-8.377Zm50.411-26.144c-5.778.217-6.717,0.217-12.783,0.217l-0.361.433c0.5,8.161.5,10.255,0.577,18.777-3.177.072-6.355,0.145-9.605,0.145-2.528,0-5.127-.073-7.655-0.073l0.144-19.066-0.361-.433c-5.561.217-6.644,0.217-12.927,0.217l-0.434.433c0.362,7.439.8,16.322,0.8,34.232,0,6.5-.145,10.039-0.289,16.1l0.361,0.433c5.272-.216,6.572-0.288,12.927-0.216l0.362-.434c-0.434-8.955-.506-11.555-0.578-22.027,3.178-.144,5.85-0.216,8.666-0.216,2.889,0,5.778.072,8.667,0.144,0.144,9.75.144,12.133-.217,22.316l0.361,0.433c5.417-.216,6.861-0.288,13-0.216l0.361-.434c-0.578-12.132-.8-24.193-0.8-36.326,0-5.055.073-8.45,0.145-14.011Zm22.462,50.7c-0.361-5.561-.65-9.822-0.65-19.788,0-6.139.144-12.35,0.216-18.488l-0.5-.578-12.422,2.167-0.433.433a136.938,136.938,0,0,1,.794,18.272c0,7.871-.216,12.277-0.433,18.2l0.433,0.5c5.2-.216,6.644-0.288,12.494-0.216Zm-1.156-45.787,0.217-9.822-0.433-.433-11.772,1.444-0.434.506c0.145,2.6.217,4.116,0.217,5.849,0,1.373,0,2.817-.072,4.189l0.5,0.433c4.911-.866,6.284-1.011,11.411-1.661Zm37.411,35.893a12.861,12.861,0,0,1-7.511,2.311c-8.161,0-9.822-6.788-9.822-11.122,0-5.272,2.311-11.338,9.316-11.338,3.178,0,4.911,1.155,7.078,2.6l0.722-.217c0.289-3.828.361-4.839,0.939-8.666l-0.361-.434a30.03,30.03,0,0,0-10.111-1.877c-16.972,0-20.294,12.855-20.294,20.221,0,8.305,4.334,19.572,20.583,19.572a30.232,30.232,0,0,0,9.316-1.589l0.434-.433,0.289-8.667Zm43.477,9.461c-6.788-11.483-7.511-12.783-13-22.677,4.983-6.789,5.488-7.511,10.616-14.083l-0.361-.722-11.772.144-0.722.506c-5.633,9.75-6.355,10.9-9.678,15.888v-8.016c0.073-13.5.145-16.394,0.506-27.3l-0.578-.434-12.566,1.878-0.433.506c0.5,7,.722,10.4.866,19.86,0.145,11.7.145,23.4,0.073,35.1l0.5,0.5c4.839-.216,6.211-0.216,11.7-0.216l0.433-.506-0.433-12.2-0.073-8.305c6.284,11.555,7.078,13.144,10.761,20.8l0.65,0.433,13-.5Zm35.534-9.75a22.068,22.068,0,0,1-11.267,3.106c-4.333,0-7.294-1.372-9.027-3.972a10.228,10.228,0,0,1-1.589-4.406l23.327-.433,0.434-.506a42.378,42.378,0,0,0-1.156-10.76c-2.528-8.522-8.089-10.256-10.544-10.833a18.485,18.485,0,0,0-5.128-.65c-11.338,0-18.849,7.438-18.849,19.932a24.046,24.046,0,0,0,1.733,9.461c4.189,9.75,14.011,10.616,19.211,10.616,5.994,0,8.594-1.083,12.422-2.6l0.433-.578,0.5-8.161ZM517.316,274.45c0.217-2.239.722-5.272,3.467-7a5.542,5.542,0,0,1,7.511,1.733,8.824,8.824,0,0,1,1.083,4.983ZM580,259.573l-10.038.216-0.578.506c-1.228,4.983-1.517,6.066-3.25,11.7l-1.878,6.211-1.588,5.417-1.373-5.128-2.094-7.655-2.889-10.977-0.578-.434c-5.633.434-6.86,0.506-12.782,0.65l-0.362.506c2.6,6.861,9.317,24.988,13.794,38.854-2.961,7.511-3.538,8.811-6.788,15.961l0.361,0.577c1.8-.072,3.828-0.144,5.705-0.144,1.806,0,3.683.072,5.489,0.072l0.5-.433c3.973-15.6,5.923-21.666,15.456-46.8,1.083-2.888,2.166-5.705,3.177-8.522ZM241.321,357.956c-6.533-2.722-9.955-4.122-9.955-7.622,0-2.411,2.255-5.444,7.388-5.444,5.911,0,9.411,2.411,12.289,4.356l0.7-.311,0.622-10.189-0.389-.544a31.855,31.855,0,0,0-14.388-2.878c-14.622,0-19.677,8.244-19.677,16.566,0,9.411,7.311,12.833,11.666,14.933l2.567,1.166c5.366,2.256,9.488,4.2,9.488,8.322,0,2.955-2.567,6.455-9.333,6.455a19.839,19.839,0,0,1-13.3-4.9l-0.778.234-0.544,10.966,0.466,0.622c0.856,0.311,1.711.7,2.567,0.933a38.707,38.707,0,0,0,12.21,1.945c2.334,0,8.244-.234,12.911-2.411,6.533-3.189,9.333-9.1,9.333-15.711a15.415,15.415,0,0,0-5.833-12.366,31.556,31.556,0,0,0-5.989-3.344Zm43.011,24.5a11.669,11.669,0,0,1-3.578.7c-3.966,0-4.277-2.489-4.433-3.655a89.18,89.18,0,0,1-.155-9.411l0.155-10.966,7,0.311,0.467-.467,0.777-8.321-0.466-.467h-7.778l0.234-13.066-0.545-.467c-5.288,1.556-6.688,1.945-12.21,3.344l-0.311.545,0.077,9.722-4.2-.156-0.467.389-0.7,8.322,0.467,0.466,4.9-.155-0.233,12.366c-0.078,1.944-.155,3.889-0.155,5.911,0,7.155.155,14.855,12.288,14.855a45.168,45.168,0,0,0,8.166-.934l0.545-.544,0.777-8.011ZM324.7,368.222c0.078-7,.078-10.032-1.944-13.3-1.556-2.489-4.667-5.6-14.622-5.6a47.333,47.333,0,0,0-15.243,2.567l-0.467.622-0.389,8.477,0.622,0.312c2.722-1.089,7.778-3.111,12.988-3.111,2.878,0,4.045.466,5.056,1.477a4.9,4.9,0,0,1,1.011,3.345c-9.333,1.244-13.688,2.1-18.355,4.977a12.437,12.437,0,0,0-5.833,10.655c0,8.322,5.989,13.688,13.611,13.688a16.074,16.074,0,0,0,10.81-4.122v2.878l0.467,0.544c5.6-.233,7.311-0.311,12.366-0.233l0.389-.544c-0.545-7.622-.545-9.566-0.545-16.877Zm-12.833,12.367a12.6,12.6,0,0,1-6.3,2.022c-2.8,0-5.133-1.478-5.133-4.745,0-5.133,6.144-5.988,11.432-6.688v9.411Zm43.712,1.866a11.68,11.68,0,0,1-3.578.7c-3.967,0-4.278-2.489-4.433-3.655a88.88,88.88,0,0,1-.156-9.411l0.156-10.966,7,0.311,0.467-.467,0.778-8.321-0.467-.467h-7.777l0.233-13.066-0.544-.467c-5.289,1.556-6.689,1.945-12.211,3.344l-0.311.545,0.078,9.722-4.2-.156-0.467.389-0.7,8.322,0.467,0.466,4.9-.155-0.233,12.366c-0.078,1.944-.156,3.889-0.156,5.911,0,7.155.156,14.855,12.288,14.855a45.19,45.19,0,0,0,8.167-.934l0.544-.544,0.778-8.011Zm38.732-2.566a23.773,23.773,0,0,1-12.133,3.344c-4.666,0-7.855-1.478-9.721-4.278a11,11,0,0,1-1.711-4.744l25.121-.467,0.466-.544a45.548,45.548,0,0,0-1.244-11.588c-2.722-9.178-8.711-11.044-11.355-11.666a19.9,19.9,0,0,0-5.522-.7c-12.211,0-20.3,8.01-20.3,21.465a25.875,25.875,0,0,0,1.867,10.189c4.51,10.5,15.088,11.432,20.687,11.432,6.456,0,9.256-1.166,13.378-2.8l0.466-.623,0.545-8.788Zm-23.565-13.922c0.233-2.411.777-5.677,3.733-7.544a5.967,5.967,0,0,1,8.088,1.867,9.5,9.5,0,0,1,1.167,5.366ZM133.56,463.345a236.346,236.346,0,0,1,11.355,21.387l0.622,0.389c2.411-.155,4.744-0.311,7.155-0.389s4.9-.155,7.311-0.155l0.467-.933c-2.956-3.811-3.811-4.978-9.411-13.922-2.489-3.966-3.733-6.066-5.677-9.488,3.5-1.556,10.577-4.822,10.577-14.7,0-3.422-.933-10.5-7.311-13.843-4.044-2.1-8.244-2.178-17.343-2.023l-5.445.078h-9.488l-0.389.467c0.311,7.855.622,15.944,0.622,37.1,0,7.233-.077,10.733-0.311,17.188l0.467,0.467c5.677-.234,6.922-0.311,13.3-0.234l0.467-.466c-0.622-9.022-.7-11.511-0.778-20.766Zm-3.655-24.188c1.088-.078,2.177-0.078,3.266-0.078,3.033,0,9.022,0,9.022,6.844a7.564,7.564,0,0,1-3.422,6.844c-2.178,1.323-4.978,1.478-8.866,1.556V439.157Zm69.221,34.065a23.776,23.776,0,0,1-12.133,3.344c-4.666,0-7.855-1.477-9.722-4.277a11.018,11.018,0,0,1-1.711-4.745l25.121-.466,0.467-.545a45.643,45.643,0,0,0-1.244-11.588c-2.722-9.177-8.711-11.044-11.355-11.666a19.9,19.9,0,0,0-5.522-.7c-12.211,0-20.3,8.011-20.3,21.466a25.891,25.891,0,0,0,1.866,10.188c4.511,10.5,15.088,11.433,20.688,11.433,6.455,0,9.255-1.167,13.377-2.8l0.467-.622,0.544-8.789ZM175.56,459.3c0.234-2.411.778-5.677,3.734-7.544a5.97,5.97,0,0,1,8.088,1.867,9.5,9.5,0,0,1,1.167,5.366Zm63.155,14.233a13.856,13.856,0,0,1-8.089,2.489c-8.788,0-10.577-7.311-10.577-11.977,0-5.678,2.489-12.211,10.033-12.211,3.422,0,5.289,1.244,7.622,2.8l0.778-.233c0.311-4.122.389-5.211,1.011-9.333L239.1,444.6a32.334,32.334,0,0,0-10.889-2.022c-18.276,0-21.854,13.844-21.854,21.777,0,8.944,4.666,21.076,22.166,21.076a32.545,32.545,0,0,0,10.032-1.711l0.467-.466,0.311-9.333Zm29.323-17.655,2.177-12.677-0.466-.544c-0.545,0-1.089-.078-1.634-0.078-3.188,0-6.766,1.789-9.255,7.544l0.234-7.155-0.623-.622c-5.755,1.244-7.233,1.477-12.91,2.333l-0.467.466c0.467,5.834.7,9.333,0.7,20.144,0,6.377-.078,12.755-0.233,19.21l0.467,0.467c5.755-.234,7-0.311,13.221-0.234l0.389-.544c-0.311-6.3-.778-15.088-0.778-20.455,0-3.5,0-8.632,5.289-8.632a5.825,5.825,0,0,1,3.189,1.088Zm41.221,17.344a23.773,23.773,0,0,1-12.133,3.344c-4.666,0-7.855-1.477-9.721-4.277a11,11,0,0,1-1.711-4.745l25.121-.466,0.466-.545a45.553,45.553,0,0,0-1.244-11.588c-2.722-9.177-8.711-11.044-11.355-11.666a19.9,19.9,0,0,0-5.522-.7c-12.211,0-20.3,8.011-20.3,21.466a25.873,25.873,0,0,0,1.867,10.188c4.51,10.5,15.088,11.433,20.687,11.433,6.456,0,9.256-1.167,13.378-2.8l0.466-.622,0.545-8.789ZM285.694,459.3c0.233-2.411.777-5.677,3.733-7.544a5.97,5.97,0,0,1,8.088,1.867,9.5,9.5,0,0,1,1.167,5.366Zm67.354,2.256c0.078-7,.078-10.033-1.944-13.3-1.556-2.488-4.667-5.6-14.622-5.6a47.336,47.336,0,0,0-15.243,2.566l-0.467.622-0.389,8.478,0.622,0.311c2.722-1.089,7.778-3.111,12.988-3.111,2.878,0,4.045.467,5.056,1.478a4.9,4.9,0,0,1,1.011,3.344c-9.333,1.244-13.688,2.1-18.355,4.977a12.44,12.44,0,0,0-5.833,10.656c0,8.321,5.989,13.688,13.611,13.688a16.079,16.079,0,0,0,10.81-4.122v2.877l0.467,0.545c5.6-.234,7.311-0.311,12.366-0.234l0.389-.544c-0.545-7.622-.545-9.566-0.545-16.877Zm-12.833,12.366a12.6,12.6,0,0,1-6.3,2.022c-2.8,0-5.133-1.478-5.133-4.744,0-5.133,6.144-5.989,11.432-6.689v9.411Zm43.712,1.866a11.68,11.68,0,0,1-3.578.7c-3.967,0-4.278-2.488-4.433-3.655a88.88,88.88,0,0,1-.156-9.411l0.156-10.966,7,0.311,0.467-.466,0.778-8.322-0.467-.467h-7.777l0.233-13.066-0.544-.466c-5.289,1.555-6.689,1.944-12.211,3.344l-0.311.544,0.078,9.722-4.2-.156-0.467.389-0.7,8.322,0.467,0.467,4.9-.156-0.233,12.366c-0.078,1.945-.156,3.889-0.156,5.911,0,7.155.156,14.855,12.288,14.855a45.281,45.281,0,0,0,8.167-.933l0.544-.545,0.778-8.01Zm19.833,8.4c-0.389-5.989-.7-10.577-0.7-21.31,0-6.611.156-13.3,0.234-19.91l-0.545-.622-13.377,2.333-0.467.466c0.623,5.911.856,8.633,0.856,19.677,0,8.478-.233,13.222-0.467,19.6l0.467,0.545c5.6-.234,7.155-0.311,13.455-0.234Zm-1.244-49.309,0.233-10.577-0.466-.467-12.678,1.556-0.466.544c0.155,2.8.233,4.433,0.233,6.3,0,1.478,0,3.033-.078,4.511l0.545,0.467c5.288-.934,6.766-1.089,12.288-1.789Zm49.465,29.166c0-3.034,0-15.633-10.888-19.911a27.953,27.953,0,0,0-9.489-1.477c-13.532,0-21.154,7.233-21.154,21.543,0,4.978.778,10.033,3.655,14.233,2.022,3.033,5.833,7.233,16.955,7.233C447.548,485.666,451.981,475.711,451.981,464.045Zm-13.455-.078c0,6.377-.855,13.455-7.31,13.455a6.293,6.293,0,0,1-4.356-1.789c-1.322-1.322-2.8-3.967-2.8-11.511,0-2.255,0-7.233,1.556-9.955a6.44,6.44,0,0,1,5.677-3.5,6.541,6.541,0,0,1,4.978,2.411C438.137,455.334,438.526,459.767,438.526,463.967Zm58.955,20.221c-0.389-6.844-.389-9.022-0.544-16.644v-6.066c-0.078-7.466-.156-11.044-2.1-14.233-2.411-4.044-6.844-4.666-9.644-4.666-4.744,0-8.866,2.489-12.444,4.589l0.156-4.278-0.778-.544c-5.989,1.244-7.311,1.477-13.144,2.255l-0.467.544a216.158,216.158,0,0,1,1.089,24.344c0,4.977-.077,9.955-0.155,14.932l0.466,0.467c5.6-.233,6.767-0.233,12.989-0.233l0.466-.467c-0.466-11.977-.544-15.01-0.622-28.932,1.633-1.089,3.5-2.411,5.989-2.411,4.277,0,4.666,4.589,4.9,7.389,0.155,2.566.233,13.221,0.233,16.177,0,2.644-.078,5.366-0.078,8.01l0.467,0.467c5.133-.156,6.455-0.233,12.677-0.233ZM258.354,522.924c-7.466.233-9.022,0.233-17.344,0.233l-0.544.467c-4.122,13.222-6.611,21.077-18.044,53.9l0.311,0.545h12.133l0.544-.467,3.811-14.155h16.8l3.344,14.389,0.544,0.466c5.678-.233,7.233-0.311,13.533-0.233l0.389-.622c-9.411-33.288-10.5-36.943-14.933-54.053Zm-16.411,31.11,3.889-13.144,2.722-9.1,2.334,10.111,2.877,12.133H241.943Zm59.345-4.822,2.177-12.678L303,535.99c-0.545,0-1.089-.078-1.634-0.078-3.188,0-6.766,1.789-9.255,7.544l0.234-7.155-0.623-.622c-5.755,1.244-7.233,1.478-12.91,2.333l-0.467.467c0.467,5.833.7,9.333,0.7,20.143,0,6.378-.078,12.755-0.233,19.211l0.467,0.466c5.755-.233,7-0.311,13.221-0.233l0.389-.545c-0.311-6.3-.778-15.088-0.778-20.454,0-3.5,0-8.633,5.289-8.633a5.826,5.826,0,0,1,3.189,1.089Zm41.221,17.343a23.763,23.763,0,0,1-12.133,3.345c-4.666,0-7.855-1.478-9.721-4.278a11,11,0,0,1-1.711-4.744l25.121-.467,0.466-.544a45.56,45.56,0,0,0-1.244-11.589c-2.722-9.177-8.711-11.044-11.355-11.666a19.933,19.933,0,0,0-5.522-.7c-12.211,0-20.3,8.011-20.3,21.466a25.873,25.873,0,0,0,1.867,10.188c4.51,10.5,15.088,11.433,20.687,11.433,6.456,0,9.256-1.166,13.378-2.8l0.466-.622,0.545-8.788Zm-23.565-13.921c0.233-2.411.777-5.678,3.733-7.544a5.968,5.968,0,0,1,8.088,1.866,9.5,9.5,0,0,1,1.167,5.367Zm67.354,2.255c0.078-7,.078-10.033-1.944-13.3-1.556-2.489-4.667-5.6-14.622-5.6a47.306,47.306,0,0,0-15.243,2.567l-0.467.622-0.389,8.477,0.622,0.311c2.722-1.089,7.778-3.111,12.988-3.111,2.878,0,4.045.467,5.056,1.478a4.9,4.9,0,0,1,1.011,3.344c-9.333,1.245-13.688,2.1-18.355,4.978a12.437,12.437,0,0,0-5.833,10.655c0,8.322,5.989,13.688,13.611,13.688a16.079,16.079,0,0,0,10.81-4.122v2.878l0.467,0.544c5.6-.233,7.311-0.311,12.366-0.233l0.389-.545c-0.545-7.621-.545-9.566-0.545-16.877Zm-12.833,12.366a12.586,12.586,0,0,1-6.3,2.022c-2.8,0-5.133-1.477-5.133-4.744,0-5.133,6.144-5.988,11.432-6.688v9.41Z"/>
</svg>
