<svg xmlns="http://www.w3.org/2000/svg" width="612" height="817" viewBox="0 0 612 817">
  <defs>
    <style>
      .cls-1 {
        fill: #592626;
        fill-rule: evenodd;
      }
    </style>
  </defs>
  <path id="Admiral_William_Standley_State_Recreation_Area" data-name="Admiral William Standley State Recreation Area" class="cls-1" d="M199.165,196.924c-7.466.233-9.022,0.233-17.344,0.233l-0.544.467c-4.122,13.222-6.611,21.077-18.044,53.9l0.311,0.545h12.133l0.545-.467,3.811-14.155h16.8l3.344,14.388,0.544,0.467c5.678-.233,7.233-0.311,13.533-0.233l0.389-.622c-9.411-33.288-10.5-36.943-14.933-54.053Zm-16.41,31.11,3.888-13.144,2.722-9.1L191.7,215.9l2.877,12.133H182.755ZM257.731,251.6c-0.311-7-.544-11.666-0.544-21.854,0-20.533.311-29.01,0.622-39.276L257.265,190l-12.833,2.022-0.389.467c0.467,7.311.544,9.255,0.467,18.121-5.833-.155-13.144-0.311-19.055,4.356-5.444,4.2-7.7,10.655-7.7,18.665,0,6.067,1.634,12.133,6.222,15.944A16.4,16.4,0,0,0,234.166,253a14.246,14.246,0,0,0,10.266-4.2l-0.156,3.033,0.389,0.467c5.367-.233,6.844-0.233,12.677-0.233ZM244.51,219.945c0.077,10.344,0,12.366-.234,21.777a9.836,9.836,0,0,1-5.288,1.866c-7.544,0-7.544-9.644-7.544-11.2,0-5.989,1.711-12.677,10.421-12.677A17.485,17.485,0,0,1,244.51,219.945Zm82.831,31.576c-0.389-7.233-.466-9.255-0.466-18.043v-5.833c0.077-5.211.155-10.033-2.1-13.3-3.033-4.433-8.4-4.433-9.644-4.433-6.378,0-10.655,2.878-13.766,5.056-1.089-1.789-3.033-5.056-9.255-5.056-5.133,0-8.478,2.333-12.055,4.822v-4.355l-0.7-.7c-6.067,1.167-7.778,1.478-13.222,2.255l-0.467.545c0.623,6.222,1.089,10.5,1.089,25.9,0,4.433-.077,8.944-0.077,13.377l0.388,0.466c4.978-.155,6.689-0.233,13.144-0.233l0.467-.467c-0.545-11.977-.622-15.554-0.7-29.087a9.551,9.551,0,0,1,5.366-2.178c4.822,0,4.978,5.522,4.978,12.211,0,11.277-.078,12.988-0.233,19.288l0.466,0.544c5.911-.311,7.544-0.311,12.911-0.311l0.466-.467c-0.466-7.388-.544-9.566-0.622-18.976v-2.878l-0.078-7.855a9.6,9.6,0,0,1,5.367-1.945c4.433,0,5.133,4.2,5.133,10.889,0,1.477-.078,2.955-0.078,4.433-0.078,2.644-.155,14.232-0.233,16.566l0.466,0.466c5.833-.233,7.544-0.233,12.989-0.233Zm23.025,0c-0.389-5.988-.7-10.577-0.7-21.31,0-6.611.155-13.3,0.233-19.91l-0.544-.622-13.377,2.333-0.467.467c0.622,5.911.855,8.633,0.855,19.677,0,8.477-.233,13.221-0.466,19.6l0.466,0.544c5.6-.233,7.156-0.311,13.455-0.233Zm-1.245-49.308,0.234-10.578-0.467-.466-12.677,1.555-0.467.545c0.156,2.8.234,4.433,0.234,6.3,0,1.478,0,3.034-.078,4.511l0.544,0.467c5.289-.933,6.767-1.089,12.289-1.789Zm32.356,21,2.177-12.678-0.466-.544c-0.545,0-1.089-.078-1.634-0.078-3.188,0-6.766,1.789-9.255,7.544l0.233-7.155-0.622-.622c-5.755,1.244-7.233,1.478-12.91,2.333l-0.467.467c0.467,5.833.7,9.333,0.7,20.143,0,6.378-.078,12.755-0.233,19.21l0.466,0.467c5.756-.233,7-0.311,13.222-0.233l0.389-.545c-0.311-6.3-.778-15.088-0.778-20.454,0-3.5,0-8.633,5.289-8.633a5.826,5.826,0,0,1,3.189,1.089Zm41.3,5.677c0.078-7,.078-10.033-1.944-13.3-1.556-2.489-4.667-5.6-14.622-5.6a47.308,47.308,0,0,0-15.244,2.567l-0.466.622-0.389,8.477,0.622,0.311c2.722-1.089,7.777-3.111,12.988-3.111,2.878,0,4.045.467,5.056,1.478a4.908,4.908,0,0,1,1.011,3.344c-9.333,1.245-13.689,2.1-18.355,4.978a12.437,12.437,0,0,0-5.833,10.655c0,8.322,5.989,13.688,13.61,13.688a16.082,16.082,0,0,0,10.811-4.122v2.878l0.467,0.544c5.6-.233,7.31-0.311,12.366-0.233l0.389-.545c-0.545-7.621-.545-9.566-0.545-16.877Zm-12.833,12.366a12.6,12.6,0,0,1-6.3,2.022c-2.8,0-5.133-1.477-5.133-4.744,0-5.133,6.145-5.988,11.433-6.688v9.41Zm35.623,10.266c-0.389-8.944-.778-17.11-0.778-41.687,0-7.388.078-10.888,0.389-19.287L444.633,190l-13.3,2.1-0.311.467c0.778,9.488.856,12.055,1.011,24.654,0.078,4.589.078,9.177,0.078,13.766,0,8.4-.156,13.066-0.467,20.766l0.467,0.544c5.211-.233,7.311-0.311,12.988-0.233Zm-215.68,93.411c2.878-14.154,4.122-20.065,12.366-54.208l-0.389-.467c-5.522.234-6.611,0.234-11.821,0.234l-0.467.466c-1.245,8.011-1.633,10.733-3.344,19.677l-2.256,11.9-2.489,13.377c-1.166-8.711-1.555-11.355-3.111-20.377l-2.255-13.066-1.944-11.977-0.467-.545-15.4.389-0.467.467-3.111,17.888L191.7,324.633l-1.944,10.733c-0.934-6.766-1.245-9.022-2.878-18.432l-2.022-11.355-2.567-15.4-0.466-.389c-6.689.466-7.778,0.466-13.455,0.622l-0.389.544c5.677,25.744,6.922,31.654,11.122,54.209l0.466,0.466c7.855-.311,9.955-0.311,17.577-0.233l0.545-.467,1.633-9.644,2.566-14.232,2.8-16.644c0.933,7.622,1.167,9.566,2.567,17.966l1.944,12.133,1.633,10.655,0.389,0.466c7.466-.233,10.033-0.311,18.277-0.233Zm28.935-.077c-0.389-5.989-.7-10.578-0.7-21.31,0-6.611.156-13.3,0.234-19.911l-0.545-.622-13.377,2.333-0.467.467c0.623,5.911.856,8.633,0.856,19.677,0,8.477-.233,13.222-0.467,19.6l0.467,0.544c5.6-.233,7.155-0.311,13.455-0.233Zm-1.244-49.309,0.233-10.577-0.466-.467-12.678,1.556-0.466.544c0.155,2.8.233,4.433,0.233,6.3,0,1.477,0,3.033-.078,4.511l0.545,0.466c5.288-.933,6.766-1.089,12.288-1.789Zm23.567,49.309c-0.389-8.944-.778-17.111-0.778-41.687,0-7.389.078-10.889,0.389-19.288l-0.545-.545-13.3,2.1-0.311.467c0.778,9.488.855,12.055,1.011,24.654,0.078,4.589.078,9.178,0.078,13.766,0,8.4-.156,13.066-0.467,20.766l0.467,0.544c5.211-.233,7.31-0.311,12.988-0.233Zm22.711,0c-0.389-8.944-.778-17.111-0.778-41.687,0-7.389.078-10.889,0.389-19.288l-0.545-.545-13.3,2.1-0.311.467c0.778,9.488.855,12.055,1.011,24.654,0.078,4.589.078,9.178,0.078,13.766,0,8.4-.156,13.066-0.467,20.766l0.467,0.544c5.211-.233,7.311-0.311,12.988-0.233Zm23.1,0c-0.389-5.989-.7-10.578-0.7-21.31,0-6.611.155-13.3,0.233-19.911l-0.544-.622-13.378,2.333-0.466.467c0.622,5.911.855,8.633,0.855,19.677,0,8.477-.233,13.222-0.466,19.6l0.466,0.544c5.6-.233,7.156-0.311,13.455-0.233Zm-1.245-49.309,0.234-10.577-0.467-.467L312.8,286.058l-0.467.544c0.156,2.8.233,4.433,0.233,6.3,0,1.477,0,3.033-.077,4.511l0.544,0.466c5.289-.933,6.766-1.089,12.288-1.789ZM370.2,322.222c0.078-7,.078-10.032-1.944-13.3-1.556-2.489-4.667-5.6-14.622-5.6a47.333,47.333,0,0,0-15.243,2.567l-0.467.622-0.389,8.477,0.622,0.312c2.722-1.089,7.778-3.111,12.988-3.111,2.878,0,4.045.466,5.056,1.477a4.9,4.9,0,0,1,1.011,3.345c-9.333,1.244-13.688,2.1-18.355,4.977a12.437,12.437,0,0,0-5.833,10.655c0,8.322,5.989,13.688,13.611,13.688a16.074,16.074,0,0,0,10.81-4.122v2.878l0.467,0.544c5.6-.233,7.311-0.311,12.366-0.233l0.389-.544c-0.545-7.622-.545-9.567-0.545-16.877Zm-12.833,12.367a12.6,12.6,0,0,1-6.3,2.022c-2.8,0-5.133-1.478-5.133-4.745,0-5.133,6.144-5.988,11.432-6.688v9.411Zm82.676,10.266c-0.389-7.233-.466-9.255-0.466-18.044v-5.833c0.077-5.211.155-10.033-2.1-13.3-3.033-4.433-8.4-4.433-9.644-4.433-6.378,0-10.655,2.877-13.766,5.055-1.089-1.789-3.033-5.055-9.255-5.055-5.133,0-8.478,2.333-12.055,4.822v-4.356l-0.7-.7c-6.067,1.167-7.778,1.478-13.222,2.256l-0.467.544c0.623,6.222,1.089,10.5,1.089,25.9,0,4.433-.077,8.944-0.077,13.377l0.388,0.467c4.978-.156,6.689-0.234,13.144-0.234l0.467-.466c-0.545-11.977-.622-15.555-0.7-29.088a9.556,9.556,0,0,1,5.366-2.177c4.822,0,4.978,5.521,4.978,12.21,0,11.277-.078,12.988-0.233,19.288l0.466,0.544c5.911-.311,7.544-0.311,12.911-0.311l0.466-.466c-0.466-7.389-.544-9.567-0.622-18.977V323l-0.078-7.855A9.607,9.607,0,0,1,421.3,313.2c4.433,0,5.133,4.2,5.133,10.888,0,1.478-.078,2.955-0.078,4.433-0.078,2.644-.155,14.233-0.233,16.566l0.466,0.467c5.833-.234,7.544-0.234,12.989-0.234ZM72.854,405.29c-6.533-2.722-9.955-4.122-9.955-7.622,0-2.411,2.255-5.444,7.389-5.444,5.911,0,9.411,2.411,12.288,4.355l0.7-.311L83.9,386.079l-0.389-.544a31.856,31.856,0,0,0-14.388-2.878c-14.621,0-19.677,8.244-19.677,16.566,0,9.411,7.311,12.833,11.666,14.933l2.567,1.166c5.366,2.256,9.489,4.2,9.489,8.322,0,2.956-2.567,6.456-9.333,6.456a19.84,19.84,0,0,1-13.3-4.9l-0.778.233L49.211,436.4l0.467,0.622c0.855,0.312,1.711.7,2.567,0.934A38.748,38.748,0,0,0,64.455,439.9c2.333,0,8.244-.233,12.91-2.411,6.533-3.189,9.333-9.1,9.333-15.71a15.413,15.413,0,0,0-5.833-12.366,31.517,31.517,0,0,0-5.989-3.345Zm43.011,24.5a11.669,11.669,0,0,1-3.577.7c-3.967,0-4.278-2.488-4.433-3.655a88.88,88.88,0,0,1-.156-9.411l0.156-10.966,7,0.311,0.467-.466,0.778-8.322-0.467-.467h-7.777l0.233-13.066-0.544-.466c-5.289,1.555-6.689,1.944-12.211,3.344l-0.311.544L95.1,397.59l-4.2-.156-0.467.389-0.7,8.322,0.467,0.467,4.9-.156-0.233,12.366c-0.078,1.945-.156,3.889-0.156,5.911,0,7.155.156,14.855,12.288,14.855a45.259,45.259,0,0,0,8.166-.933l0.545-.545,0.778-8.01Zm40.366-14.232c0.078-7,.078-10.033-1.944-13.3-1.555-2.488-4.666-5.6-14.621-5.6a47.337,47.337,0,0,0-15.244,2.566l-0.467.622-0.389,8.478,0.623,0.311c2.722-1.089,7.777-3.111,12.988-3.111,2.877,0,4.044.467,5.055,1.478a4.9,4.9,0,0,1,1.011,3.344c-9.333,1.244-13.688,2.1-18.354,4.977a12.439,12.439,0,0,0-5.834,10.656c0,8.321,5.989,13.688,13.611,13.688a16.084,16.084,0,0,0,10.811-4.122v2.877l0.466,0.545c5.6-.234,7.311-0.311,12.366-0.234l0.389-.544c-0.544-7.622-.544-9.566-0.544-16.877ZM143.4,427.922a12.6,12.6,0,0,1-6.3,2.022c-2.8,0-5.133-1.478-5.133-4.744,0-5.133,6.144-5.989,11.433-6.689v9.411Zm60.043,10.266c-0.388-6.844-.388-9.022-0.544-16.644v-6.066c-0.078-7.466-.156-11.044-2.1-14.233-2.411-4.044-6.844-4.666-9.644-4.666-4.744,0-8.866,2.489-12.444,4.589l0.156-4.278-0.778-.544c-5.989,1.244-7.311,1.477-13.144,2.255l-0.466.544a216.459,216.459,0,0,1,1.088,24.344c0,4.977-.077,9.955-0.155,14.932l0.467,0.467c5.6-.233,6.766-0.233,12.988-0.233l0.466-.467c-0.466-11.977-.544-15.01-0.622-28.932,1.634-1.089,3.5-2.411,5.989-2.411,4.277,0,4.666,4.589,4.9,7.389,0.155,2.566.233,13.221,0.233,16.177,0,2.644-.078,5.366-0.078,8.01l0.467,0.467c5.133-.156,6.455-0.233,12.677-0.233Zm46.978,0.078c-0.311-7-.544-11.666-0.544-21.855,0-20.532.311-29.009,0.622-39.276l-0.544-.466-12.833,2.022-0.389.467c0.467,7.31.544,9.255,0.467,18.121-5.833-.156-13.144-0.311-19.055,4.355-5.444,4.2-7.7,10.655-7.7,18.666,0,6.066,1.634,12.133,6.222,15.944a16.4,16.4,0,0,0,10.189,3.422,14.25,14.25,0,0,0,10.266-4.2l-0.156,3.033,0.389,0.467c5.367-.234,6.844-0.234,12.677-0.234ZM237.2,406.612c0.077,10.344,0,12.366-.234,21.777a9.836,9.836,0,0,1-5.288,1.866c-7.544,0-7.544-9.644-7.544-11.2,0-5.989,1.711-12.678,10.421-12.678A17.369,17.369,0,0,1,237.2,406.612Zm35.778,31.576c-0.389-8.944-.778-17.11-0.778-41.687,0-7.388.078-10.888,0.389-19.288l-0.544-.544-13.3,2.1-0.311.466c0.778,9.489.856,12.055,1.011,24.655,0.078,4.588.078,9.177,0.078,13.766,0,8.4-.156,13.066-0.467,20.765l0.467,0.545c5.211-.234,7.311-0.311,12.988-0.234Zm43.554-10.966a23.772,23.772,0,0,1-12.132,3.344c-4.667,0-7.855-1.478-9.722-4.277a11,11,0,0,1-1.711-4.745l25.121-.466,0.467-.545a45.6,45.6,0,0,0-1.245-11.588c-2.722-9.177-8.711-11.044-11.355-11.666a19.9,19.9,0,0,0-5.522-.7c-12.21,0-20.3,8.011-20.3,21.466A25.873,25.873,0,0,0,282,428.233c4.511,10.5,15.088,11.433,20.688,11.433,6.455,0,9.255-1.167,13.377-2.8l0.466-.622,0.545-8.789ZM292.966,413.3c0.233-2.411.778-5.677,3.733-7.544a5.971,5.971,0,0,1,8.089,1.867,9.507,9.507,0,0,1,1.166,5.366Zm67.51-16.021-10.811.233-0.622.545c-1.322,5.366-1.633,6.533-3.5,12.6l-2.022,6.689-1.711,5.833-1.478-5.522-2.255-8.244-3.111-11.822-0.622-.467c-6.067.467-7.389,0.545-13.766,0.7l-0.389.545c2.8,7.388,10.033,26.91,14.855,41.842-3.189,8.089-3.811,9.489-7.311,17.188l0.389,0.622c1.944-.077,4.122-0.155,6.144-0.155,1.944,0,3.966.078,5.911,0.078l0.544-.467c4.278-16.8,6.378-23.332,16.644-50.4,1.167-3.111,2.333-6.144,3.422-9.177Zm49.312,8.011c-6.533-2.722-9.955-4.122-9.955-7.622,0-2.411,2.255-5.444,7.388-5.444,5.911,0,9.411,2.411,12.288,4.355l0.7-.311,0.622-10.189-0.388-.544a31.86,31.86,0,0,0-14.389-2.878c-14.621,0-19.676,8.244-19.676,16.566,0,9.411,7.31,12.833,11.666,14.933l2.566,1.166c5.367,2.256,9.489,4.2,9.489,8.322,0,2.956-2.567,6.456-9.333,6.456a19.842,19.842,0,0,1-13.3-4.9l-0.777.233L386.144,436.4l0.467,0.622c0.855,0.312,1.711.7,2.566,0.934a38.753,38.753,0,0,0,12.211,1.944c2.333,0,8.244-.233,12.91-2.411,6.533-3.189,9.333-9.1,9.333-15.71a15.413,15.413,0,0,0-5.833-12.366,31.535,31.535,0,0,0-5.988-3.345Zm43.011,24.5a11.675,11.675,0,0,1-3.578.7c-3.966,0-4.277-2.488-4.433-3.655a89.421,89.421,0,0,1-.156-9.411l0.156-10.966,7,0.311,0.466-.466,0.778-8.322-0.467-.467h-7.777l0.233-13.066-0.544-.466c-5.289,1.555-6.689,1.944-12.211,3.344l-0.311.544,0.078,9.722-4.2-.156-0.466.389-0.7,8.322,0.466,0.467,4.9-.156L431.8,418.822c-0.078,1.945-.156,3.889-0.156,5.911,0,7.155.156,14.855,12.288,14.855a45.26,45.26,0,0,0,8.167-.933l0.544-.545,0.778-8.01Zm40.366-14.232c0.078-7,.078-10.033-1.945-13.3-1.555-2.488-4.666-5.6-14.621-5.6a47.337,47.337,0,0,0-15.244,2.566l-0.466.622-0.389,8.478,0.622,0.311c2.722-1.089,7.777-3.111,12.988-3.111,2.878,0,4.044.467,5.055,1.478a4.9,4.9,0,0,1,1.012,3.344c-9.333,1.244-13.689,2.1-18.355,4.977a12.438,12.438,0,0,0-5.833,10.656c0,8.321,5.988,13.688,13.61,13.688a16.082,16.082,0,0,0,10.811-4.122v2.877l0.466,0.545c5.6-.234,7.311-0.311,12.367-0.234l0.388-.544c-0.544-7.622-.544-9.566-0.544-16.877Zm-12.833,12.366a12.6,12.6,0,0,1-6.3,2.022c-2.8,0-5.133-1.478-5.133-4.744,0-5.133,6.144-5.989,11.433-6.689v9.411Zm43.711,1.866a11.669,11.669,0,0,1-3.577.7c-3.967,0-4.278-2.488-4.434-3.655a89.18,89.18,0,0,1-.155-9.411l0.155-10.966,7,0.311,0.467-.466,0.777-8.322-0.466-.467h-7.778l0.234-13.066-0.545-.466c-5.288,1.555-6.688,1.944-12.21,3.344l-0.311.544,0.077,9.722-4.2-.156-0.467.389-0.7,8.322,0.467,0.467,4.9-.156-0.233,12.366c-0.078,1.945-.155,3.889-0.155,5.911,0,7.155.155,14.855,12.288,14.855a45.259,45.259,0,0,0,8.166-.933l0.545-.545,0.777-8.01Zm38.733-2.566a23.776,23.776,0,0,1-12.133,3.344c-4.666,0-7.855-1.478-9.722-4.277a11.018,11.018,0,0,1-1.711-4.745l25.121-.466,0.467-.545a45.643,45.643,0,0,0-1.244-11.588c-2.722-9.177-8.711-11.044-11.355-11.666a19.9,19.9,0,0,0-5.522-.7c-12.211,0-20.3,8.011-20.3,21.466a25.891,25.891,0,0,0,1.866,10.188c4.511,10.5,15.088,11.433,20.688,11.433,6.455,0,9.255-1.167,13.377-2.8l0.467-.622,0.544-8.789ZM539.21,413.3c0.234-2.411.778-5.677,3.733-7.544a5.971,5.971,0,0,1,8.089,1.867,9.5,9.5,0,0,1,1.167,5.366ZM133.56,510.678a236.234,236.234,0,0,1,11.355,21.388l0.622,0.389c2.411-.156,4.744-0.311,7.155-0.389s4.9-.156,7.311-0.156l0.467-.933c-2.956-3.811-3.811-4.978-9.411-13.922-2.489-3.966-3.733-6.066-5.677-9.488,3.5-1.556,10.577-4.822,10.577-14.7,0-3.422-.933-10.5-7.311-13.844-4.044-2.1-8.244-2.178-17.343-2.022l-5.445.078h-9.488l-0.389.466c0.311,7.855.622,15.944,0.622,37.1,0,7.233-.077,10.733-0.311,17.188l0.467,0.467c5.677-.233,6.922-0.311,13.3-0.233l0.467-.467c-0.622-9.022-.7-11.51-0.778-20.766Zm-3.655-24.188c1.089-.078,2.177-0.078,3.266-0.078,3.033,0,9.022,0,9.022,6.845a7.566,7.566,0,0,1-3.422,6.844c-2.178,1.322-4.978,1.477-8.866,1.555V486.49Zm69.221,34.065a23.763,23.763,0,0,1-12.133,3.345c-4.666,0-7.855-1.478-9.722-4.278a11.014,11.014,0,0,1-1.711-4.744l25.121-.467,0.467-.544a45.651,45.651,0,0,0-1.244-11.589c-2.722-9.177-8.711-11.044-11.355-11.666a19.943,19.943,0,0,0-5.522-.7c-12.211,0-20.3,8.011-20.3,21.466a25.891,25.891,0,0,0,1.866,10.188c4.511,10.5,15.088,11.433,20.688,11.433,6.455,0,9.255-1.167,13.377-2.8l0.467-.622,0.544-8.788ZM175.56,506.634c0.234-2.411.778-5.678,3.734-7.544a5.968,5.968,0,0,1,8.088,1.866,9.5,9.5,0,0,1,1.167,5.367Zm63.155,14.232a13.849,13.849,0,0,1-8.089,2.489c-8.788,0-10.577-7.311-10.577-11.977,0-5.678,2.489-12.211,10.033-12.211,3.422,0,5.289,1.245,7.622,2.8l0.778-.233c0.311-4.122.389-5.211,1.011-9.333l-0.389-.467a32.358,32.358,0,0,0-10.889-2.022c-18.276,0-21.854,13.844-21.854,21.777,0,8.944,4.666,21.077,22.166,21.077a32.575,32.575,0,0,0,10.032-1.711l0.467-.467,0.311-9.333Zm29.323-17.654,2.177-12.678-0.466-.544c-0.545,0-1.089-.078-1.634-0.078-3.188,0-6.766,1.789-9.255,7.544l0.234-7.155-0.623-.622c-5.755,1.244-7.233,1.478-12.91,2.333l-0.467.467c0.467,5.833.7,9.333,0.7,20.143,0,6.378-.078,12.755-0.233,19.21l0.467,0.467c5.755-.233,7-0.311,13.221-0.233l0.389-.545c-0.311-6.3-.778-15.088-0.778-20.454,0-3.5,0-8.633,5.289-8.633a5.826,5.826,0,0,1,3.189,1.089Zm41.221,17.343a23.763,23.763,0,0,1-12.133,3.345c-4.666,0-7.855-1.478-9.721-4.278a11,11,0,0,1-1.711-4.744l25.121-.467,0.466-.544a45.56,45.56,0,0,0-1.244-11.589c-2.722-9.177-8.711-11.044-11.355-11.666a19.933,19.933,0,0,0-5.522-.7c-12.211,0-20.3,8.011-20.3,21.466a25.873,25.873,0,0,0,1.867,10.188c4.51,10.5,15.088,11.433,20.687,11.433,6.456,0,9.256-1.167,13.378-2.8l0.466-.622,0.545-8.788Zm-23.565-13.921c0.233-2.411.777-5.678,3.733-7.544a5.968,5.968,0,0,1,8.088,1.866,9.5,9.5,0,0,1,1.167,5.367Zm67.354,2.255c0.078-7,.078-10.033-1.944-13.3-1.556-2.489-4.667-5.6-14.622-5.6a47.306,47.306,0,0,0-15.243,2.567l-0.467.622-0.389,8.477,0.622,0.311c2.722-1.089,7.778-3.111,12.988-3.111,2.878,0,4.045.467,5.056,1.478a4.9,4.9,0,0,1,1.011,3.344c-9.333,1.245-13.688,2.1-18.355,4.978a12.437,12.437,0,0,0-5.833,10.655c0,8.322,5.989,13.688,13.611,13.688a16.079,16.079,0,0,0,10.81-4.122v2.878l0.467,0.544c5.6-.233,7.311-0.311,12.366-0.233l0.389-.545c-0.545-7.621-.545-9.566-0.545-16.877Zm-12.833,12.366a12.6,12.6,0,0,1-6.3,2.022c-2.8,0-5.133-1.477-5.133-4.744,0-5.133,6.144-5.989,11.432-6.688v9.41Zm43.712,1.867a11.68,11.68,0,0,1-3.578.7c-3.967,0-4.278-2.489-4.433-3.656a88.86,88.86,0,0,1-.156-9.41l0.156-10.966,7,0.311,0.467-.467,0.778-8.322-0.467-.466h-7.777l0.233-13.066-0.544-.467c-5.289,1.555-6.689,1.944-12.211,3.344l-0.311.545,0.078,9.721-4.2-.155-0.467.389-0.7,8.321,0.467,0.467,4.9-.155-0.233,12.366c-0.078,1.944-.156,3.888-0.156,5.91,0,7.156.156,14.855,12.288,14.855a45.191,45.191,0,0,0,8.167-.933l0.544-.544,0.778-8.011Zm19.833,8.4c-0.389-5.988-.7-10.577-0.7-21.31,0-6.611.156-13.3,0.234-19.91l-0.545-.622-13.377,2.333-0.467.467c0.623,5.911.856,8.633,0.856,19.677,0,8.477-.233,13.221-0.467,19.6l0.467,0.544c5.6-.233,7.155-0.311,13.455-0.233Zm-1.244-49.308,0.233-10.578-0.466-.466-12.678,1.555-0.466.545c0.155,2.8.233,4.433,0.233,6.3,0,1.478,0,3.034-.078,4.511l0.545,0.467c5.288-.933,6.766-1.089,12.288-1.789Zm49.465,29.165c0-3.033,0-15.633-10.888-19.91a27.958,27.958,0,0,0-9.489-1.478c-13.532,0-21.154,7.233-21.154,21.543,0,4.978.778,10.033,3.655,14.233C416.127,528.8,419.938,533,431.06,533,447.548,533,451.981,523.044,451.981,511.378Zm-13.455-.078c0,6.378-.855,13.455-7.31,13.455a6.288,6.288,0,0,1-4.356-1.789c-1.322-1.322-2.8-3.966-2.8-11.51,0-2.256,0-7.233,1.556-9.955a6.44,6.44,0,0,1,5.677-3.5,6.538,6.538,0,0,1,4.978,2.411C438.137,502.667,438.526,507.1,438.526,511.3Zm58.955,20.221c-0.389-6.844-.389-9.021-0.544-16.643v-6.067c-0.078-7.466-.156-11.044-2.1-14.232-2.411-4.045-6.844-4.667-9.644-4.667-4.744,0-8.866,2.489-12.444,4.589l0.156-4.278-0.778-.544c-5.989,1.244-7.311,1.478-13.144,2.255l-0.467.545a216.123,216.123,0,0,1,1.089,24.343c0,4.978-.077,9.955-0.155,14.933l0.466,0.466c5.6-.233,6.767-0.233,12.989-0.233l0.466-.467c-0.466-11.977-.544-15.01-0.622-28.932,1.633-1.088,3.5-2.411,5.989-2.411,4.277,0,4.666,4.589,4.9,7.389,0.156,2.567.234,13.222,0.234,16.177,0,2.644-.078,5.366-0.078,8.011l0.467,0.466c5.133-.155,6.455-0.233,12.677-0.233ZM258.354,570.257c-7.466.234-9.022,0.234-17.344,0.234l-0.544.466c-4.122,13.222-6.611,21.077-18.044,53.9l0.311,0.544h12.133l0.544-.467,3.811-14.154h16.8l3.344,14.388,0.544,0.466c5.678-.233,7.233-0.311,13.533-0.233l0.389-.622c-9.411-33.287-10.5-36.943-14.933-54.053Zm-16.411,31.11,3.889-13.144,2.722-9.1,2.334,10.11,2.877,12.133H241.943Zm59.345-4.822,2.177-12.677L303,583.323c-0.545,0-1.089-.077-1.634-0.077-3.188,0-6.766,1.788-9.255,7.544l0.234-7.156-0.623-.622c-5.755,1.245-7.233,1.478-12.91,2.333l-0.467.467c0.467,5.833.7,9.333,0.7,20.144,0,6.377-.078,12.755-0.233,19.21l0.467,0.466c5.755-.233,7-0.311,13.221-0.233l0.389-.544c-0.311-6.3-.778-15.088-0.778-20.455,0-3.5,0-8.633,5.289-8.633a5.826,5.826,0,0,1,3.189,1.089Zm41.221,17.344a23.773,23.773,0,0,1-12.133,3.344c-4.666,0-7.855-1.478-9.721-4.278a11,11,0,0,1-1.711-4.744l25.121-.467,0.466-.544a45.548,45.548,0,0,0-1.244-11.588c-2.722-9.178-8.711-11.044-11.355-11.666a19.9,19.9,0,0,0-5.522-.7c-12.211,0-20.3,8.01-20.3,21.465a25.875,25.875,0,0,0,1.867,10.189c4.51,10.5,15.088,11.432,20.687,11.432,6.456,0,9.256-1.166,13.378-2.8l0.466-.623,0.545-8.788Zm-23.565-13.922c0.233-2.411.777-5.678,3.733-7.544a5.968,5.968,0,0,1,8.088,1.866,9.5,9.5,0,0,1,1.167,5.367Zm67.354,2.255c0.078-7,.078-10.032-1.944-13.3-1.556-2.489-4.667-5.6-14.622-5.6a47.333,47.333,0,0,0-15.243,2.567l-0.467.622-0.389,8.477,0.622,0.312c2.722-1.089,7.778-3.111,12.988-3.111,2.878,0,4.045.466,5.056,1.477a4.9,4.9,0,0,1,1.011,3.345c-9.333,1.244-13.688,2.1-18.355,4.977a12.437,12.437,0,0,0-5.833,10.655c0,8.322,5.989,13.688,13.611,13.688a16.074,16.074,0,0,0,10.81-4.122v2.878l0.467,0.544c5.6-.233,7.311-0.311,12.366-0.233l0.389-.544c-0.545-7.622-.545-9.567-0.545-16.877Zm-12.833,12.367a12.6,12.6,0,0,1-6.3,2.022c-2.8,0-5.133-1.478-5.133-4.745,0-5.133,6.144-5.988,11.432-6.688v9.411Z"/>
</svg>
