<?xml version="1.0" encoding="UTF-8"?>
<svg xmlns="http://www.w3.org/2000/svg" xmlns:xlink="http://www.w3.org/1999/xlink" width="975" height="1300" viewBox="0 0 975 1300">
<path fill-rule="nonzero" fill="rgb(34.901961%, 14.901961%, 14.901961%)" fill-opacity="1" d="M 156 381.375 C 144 381.75 141.5 381.75 128.125 381.75 L 127.25 382.5 C 120.625 403.75 116.625 416.375 98.25 469.125 L 98.75 470 L 118.25 470 L 119.125 469.25 L 125.25 446.5 L 152.25 446.5 L 157.625 469.625 L 158.5 470.375 C 167.625 470 170.125 469.875 180.25 470 L 180.875 469 C 165.75 415.5 164 409.625 156.875 382.125 L 156 381.375 M 129.625 431.375 L 135.875 410.25 L 140.25 395.625 L 144 411.875 L 148.625 431.375 Z M 250.125 469.25 C 249.625 458 249.25 450.5 249.25 434.125 C 249.25 401.125 249.75 387.5 250.25 371 L 249.375 370.25 L 228.75 373.5 L 228.125 374.25 C 228.875 386 229 389.125 228.875 403.375 C 219.5 403.125 207.75 402.875 198.25 410.375 C 189.5 417.125 185.875 427.5 185.875 440.375 C 185.875 450.125 188.5 459.875 195.875 466 C 201.375 470.5 208.125 471.5 212.25 471.5 C 221.125 471.5 225.75 467.375 228.75 464.75 L 228.5 469.625 L 229.125 470.375 C 237.75 470 240.125 470 249.5 470 L 250.125 469.25 M 228.875 418.375 C 229 435 228.875 438.25 228.5 453.375 C 226 454.875 223.5 456.375 220 456.375 C 207.875 456.375 207.875 440.875 207.875 438.375 C 207.875 428.75 210.625 418 224.625 418 C 226 418 227.125 418.125 228.875 418.375 Z M 362 469.125 C 361.375 457.5 361.25 454.25 361.25 440.125 L 361.25 430.75 C 361.375 422.375 361.5 414.625 357.875 409.375 C 353 402.25 344.375 402.25 342.375 402.25 C 332.125 402.25 325.25 406.875 320.25 410.375 C 318.5 407.5 315.375 402.25 305.375 402.25 C 297.125 402.25 291.75 406 286 410 L 286 403 L 284.875 401.875 C 275.125 403.75 272.375 404.25 263.625 405.5 L 262.875 406.375 C 263.875 416.375 264.625 423.25 264.625 448 C 264.625 455.125 264.5 462.375 264.5 469.5 L 265.125 470.25 C 273.125 470 275.875 469.875 286.25 469.875 L 287 469.125 C 286.125 449.875 286 444.125 285.875 422.375 C 288.5 420.5 291.375 418.875 294.5 418.875 C 302.25 418.875 302.5 427.75 302.5 438.5 C 302.5 456.625 302.375 459.375 302.125 469.5 L 302.875 470.375 C 312.375 469.875 315 469.875 323.625 469.875 L 324.375 469.125 C 323.625 457.25 323.5 453.75 323.375 438.625 L 323.375 434 L 323.25 421.375 C 325.375 420 328.125 418.25 331.875 418.25 C 339 418.25 340.125 425 340.125 435.75 C 340.125 438.125 340 440.5 340 442.875 C 339.875 447.125 339.75 465.75 339.625 469.5 L 340.375 470.25 C 349.75 469.875 352.5 469.875 361.25 469.875 Z M 394.375 450.75 L 374.375 451.125 L 373.75 452.125 L 374 469.5 L 374.625 470.375 L 394.625 469.875 L 395.25 469.125 L 395 451.5 Z M 535 469.25 C 539.625 446.5 541.625 437 554.875 382.125 L 554.25 381.375 C 545.375 381.75 543.625 381.75 535.25 381.75 L 534.5 382.5 C 532.5 395.375 531.875 399.75 529.125 414.125 L 525.5 433.25 L 521.5 454.75 C 519.625 440.75 519 436.5 516.5 422 L 512.875 401 L 509.75 381.75 L 509 380.875 L 484.25 381.5 L 483.5 382.25 L 478.5 411 L 473.625 436.625 L 470.5 453.875 C 469 443 468.5 439.375 465.875 424.25 L 462.625 406 L 458.5 381.25 L 457.75 380.625 C 447 381.375 445.25 381.375 436.125 381.625 L 435.5 382.5 C 444.625 423.875 446.625 433.375 453.375 469.625 L 454.125 470.375 C 466.75 469.875 470.125 469.875 482.375 470 L 483.25 469.25 L 485.875 453.75 L 490 430.875 L 494.5 404.125 C 496 416.375 496.375 419.5 498.625 433 L 501.75 452.5 L 504.375 469.625 L 505 470.375 C 517 470 521.125 469.875 534.375 470 Z M 584 469.125 C 583.375 459.5 582.875 452.125 582.875 434.875 C 582.875 424.25 583.125 413.5 583.25 402.875 L 582.375 401.875 L 560.875 405.625 L 560.125 406.375 C 561.125 415.875 561.5 420.25 561.5 438 C 561.5 451.625 561.125 459.25 560.75 469.5 L 561.5 470.375 C 570.5 470 573 469.875 583.125 470 L 584 469.125 M 582 389.875 L 582.375 372.875 L 581.625 372.125 L 561.25 374.625 L 560.5 375.5 C 560.75 380 560.875 382.625 560.875 385.625 C 560.875 388 560.875 390.5 560.75 392.875 L 561.625 393.625 C 570.125 392.125 572.5 391.875 581.375 390.75 Z M 619.875 469.125 C 619.25 454.75 618.625 441.625 618.625 402.125 C 618.625 390.25 618.75 384.625 619.25 371.125 L 618.375 370.25 L 597 373.625 L 596.5 374.375 C 597.75 389.625 597.875 393.75 598.125 414 C 598.25 421.375 598.25 428.75 598.25 436.125 C 598.25 449.625 598 457.125 597.5 469.5 L 598.25 470.375 C 606.625 470 610 469.875 619.125 470 Z M 656.375 469.125 C 655.75 454.75 655.125 441.625 655.125 402.125 C 655.125 390.25 655.25 384.625 655.75 371.125 L 654.875 370.25 L 633.5 373.625 L 633 374.375 C 634.25 389.625 634.375 393.75 634.625 414 C 634.75 421.375 634.75 428.75 634.75 436.125 C 634.75 449.625 634.5 457.125 634 469.5 L 634.75 470.375 C 643.125 470 646.5 469.875 655.625 470 Z M 693.5 469.125 C 692.875 459.5 692.375 452.125 692.375 434.875 C 692.375 424.25 692.625 413.5 692.75 402.875 L 691.875 401.875 L 670.375 405.625 L 669.625 406.375 C 670.625 415.875 671 420.25 671 438 C 671 451.625 670.625 459.25 670.25 469.5 L 671 470.375 C 680 470 682.5 469.875 692.625 470 L 693.5 469.125 M 691.5 389.875 L 691.875 372.875 L 691.125 372.125 L 670.75 374.625 L 670 375.5 C 670.25 380 670.375 382.625 670.375 385.625 C 670.375 388 670.375 390.5 670.25 392.875 L 671.125 393.625 C 679.625 392.125 682 391.875 690.875 390.75 Z M 763 432.75 C 763.125 421.5 763.125 416.625 759.875 411.375 C 757.375 407.375 752.375 402.375 736.375 402.375 C 725.625 402.375 719 404.375 711.875 406.5 L 711.125 407.5 L 710.5 421.125 L 711.5 421.625 C 715.875 419.875 724 416.625 732.375 416.625 C 737 416.625 738.875 417.375 740.5 419 C 741.75 420.25 742.125 422.5 742.125 424.375 C 727.125 426.375 720.125 427.75 712.625 432.375 C 705.625 436.75 703.25 443.875 703.25 449.5 C 703.25 462.875 712.875 471.5 725.125 471.5 C 734.5 471.5 739.875 467 742.5 464.875 L 742.5 469.5 L 743.25 470.375 C 752.25 470 755 469.875 763.125 470 L 763.75 469.125 C 762.875 456.875 762.875 453.75 762.875 442 L 763 432.75 M 742.375 452.625 C 739.75 454.125 736.375 455.875 732.25 455.875 C 727.75 455.875 724 453.5 724 448.25 C 724 440 733.875 438.625 742.375 437.5 Z M 875.25 469.125 C 874.625 457.5 874.5 454.25 874.5 440.125 L 874.5 430.75 C 874.625 422.375 874.75 414.625 871.125 409.375 C 866.25 402.25 857.625 402.25 855.625 402.25 C 845.375 402.25 838.5 406.875 833.5 410.375 C 831.75 407.5 828.625 402.25 818.625 402.25 C 810.375 402.25 805 406 799.25 410 L 799.25 403 L 798.125 401.875 C 788.375 403.75 785.625 404.25 776.875 405.5 L 776.125 406.375 C 777.125 416.375 777.875 423.25 777.875 448 C 777.875 455.125 777.75 462.375 777.75 469.5 L 778.375 470.25 C 786.375 470 789.125 469.875 799.5 469.875 L 800.25 469.125 C 799.375 449.875 799.25 444.125 799.125 422.375 C 801.75 420.5 804.625 418.875 807.75 418.875 C 815.5 418.875 815.75 427.75 815.75 438.5 C 815.75 456.625 815.625 459.375 815.375 469.5 L 816.125 470.375 C 825.625 469.875 828.25 469.875 836.875 469.875 L 837.625 469.125 C 836.875 457.25 836.75 453.75 836.625 438.625 L 836.625 434 L 836.5 421.375 C 838.625 420 841.375 418.25 845.125 418.25 C 852.25 418.25 853.375 425 853.375 435.75 C 853.375 438.125 853.25 440.5 853.25 442.875 C 853.125 447.125 853 465.75 852.875 469.5 L 853.625 470.25 C 863 469.875 865.75 469.875 874.5 469.875 Z M 882.125 470 "/>
<path fill-rule="nonzero" fill="rgb(34.901961%, 14.901961%, 14.901961%)" fill-opacity="1" d="M 114.5625 566.25 C 104.0625 561.875 98.5625 559.625 98.5625 554 C 98.5625 550.125 102.1875 545.25 110.4375 545.25 C 119.9375 545.25 125.5625 549.125 130.1875 552.25 L 131.3125 551.75 L 132.3125 535.375 L 131.6875 534.5 C 126.3125 532.25 120.6875 529.875 108.5625 529.875 C 85.0625 529.875 76.9375 543.125 76.9375 556.5 C 76.9375 571.625 88.6875 577.125 95.6875 580.5 L 99.8125 582.375 C 108.4375 586 115.0625 589.125 115.0625 595.75 C 115.0625 600.5 110.9375 606.125 100.0625 606.125 C 88.6875 606.125 82.3125 601.125 78.6875 598.25 L 77.4375 598.625 L 76.5625 616.25 L 77.3125 617.25 C 78.6875 617.75 80.0625 618.375 81.4375 618.75 C 84.3125 619.75 91.6875 621.875 101.0625 621.875 C 104.8125 621.875 114.3125 621.5 121.8125 618 C 132.3125 612.875 136.8125 603.375 136.8125 592.75 C 136.8125 585.625 134.0625 578 127.4375 572.875 C 124.0625 570.375 120.8125 568.875 117.8125 567.5 Z M 183.6875 605.625 C 181.5625 606.25 180.0625 606.75 177.9375 606.75 C 171.5625 606.75 171.0625 602.75 170.8125 600.875 C 170.4375 597.625 170.4375 590.75 170.5625 585.75 L 170.8125 568.125 L 182.0625 568.625 L 182.8125 567.875 L 184.0625 554.5 L 183.3125 553.75 L 170.8125 553.75 L 171.1875 532.75 L 170.3125 532 C 161.8125 534.5 159.5625 535.125 150.6875 537.375 L 150.1875 538.25 L 150.3125 553.875 L 143.5625 553.625 L 142.8125 554.25 L 141.6875 567.625 L 142.4375 568.375 L 150.3125 568.125 L 149.9375 588 C 149.8125 591.125 149.6875 594.25 149.6875 597.5 C 149.6875 609 149.9375 621.375 169.4375 621.375 C 174.3125 621.375 178.1875 620.625 182.5625 619.875 L 183.4375 619 L 184.6875 606.125 Z M 248.5625 582.75 C 248.6875 571.5 248.6875 566.625 245.4375 561.375 C 242.9375 557.375 237.9375 552.375 221.9375 552.375 C 211.1875 552.375 204.5625 554.375 197.4375 556.5 L 196.6875 557.5 L 196.0625 571.125 L 197.0625 571.625 C 201.4375 569.875 209.5625 566.625 217.9375 566.625 C 222.5625 566.625 224.4375 567.375 226.0625 569 C 227.3125 570.25 227.6875 572.5 227.6875 574.375 C 212.6875 576.375 205.6875 577.75 198.1875 582.375 C 191.1875 586.75 188.8125 593.875 188.8125 599.5 C 188.8125 612.875 198.4375 621.5 210.6875 621.5 C 220.0625 621.5 225.4375 617 228.0625 614.875 L 228.0625 619.5 L 228.8125 620.375 C 237.8125 620 240.5625 619.875 248.6875 620 L 249.3125 619.125 C 248.4375 606.875 248.4375 603.75 248.4375 592 L 248.5625 582.75 M 227.9375 602.625 C 225.3125 604.125 221.9375 605.875 217.8125 605.875 C 213.3125 605.875 209.5625 603.5 209.5625 598.25 C 209.5625 590 219.4375 588.625 227.9375 587.5 Z M 324.4375 619.125 C 323.8125 608.125 323.8125 604.625 323.5625 592.375 L 323.5625 582.625 C 323.4375 570.625 323.3125 564.875 320.1875 559.75 C 316.3125 553.25 309.1875 552.25 304.6875 552.25 C 297.0625 552.25 290.4375 556.25 284.6875 559.625 L 284.9375 552.75 L 283.6875 551.875 C 274.0625 553.875 271.9375 554.25 262.5625 555.5 L 261.8125 556.375 C 262.8125 567.25 263.5625 575.125 263.5625 595.5 C 263.5625 603.5 263.4375 611.5 263.3125 619.5 L 264.0625 620.25 C 273.0625 619.875 274.9375 619.875 284.9375 619.875 L 285.6875 619.125 C 284.9375 599.875 284.8125 595 284.6875 572.625 C 287.3125 570.875 290.3125 568.75 294.3125 568.75 C 301.1875 568.75 301.8125 576.125 302.1875 580.625 C 302.4375 584.75 302.5625 601.875 302.5625 606.625 C 302.5625 610.875 302.4375 615.25 302.4375 619.5 L 303.1875 620.25 C 311.4375 620 313.5625 619.875 323.5625 619.875 Z M 399.9375 619.25 C 399.4375 608 399.0625 600.5 399.0625 584.125 C 399.0625 551.125 399.5625 537.5 400.0625 521 L 399.1875 520.25 L 378.5625 523.5 L 377.9375 524.25 C 378.6875 536 378.8125 539.125 378.6875 553.375 C 369.3125 553.125 357.5625 552.875 348.0625 560.375 C 339.3125 567.125 335.6875 577.5 335.6875 590.375 C 335.6875 600.125 338.3125 609.875 345.6875 616 C 351.1875 620.5 357.9375 621.5 362.0625 621.5 C 370.9375 621.5 375.5625 617.375 378.5625 614.75 L 378.3125 619.625 L 378.9375 620.375 C 387.5625 620 389.9375 620 399.3125 620 L 399.9375 619.25 M 378.6875 568.375 C 378.8125 585 378.6875 588.25 378.3125 603.375 C 375.8125 604.875 373.3125 606.375 369.8125 606.375 C 357.6875 606.375 357.6875 590.875 357.6875 588.375 C 357.6875 578.75 360.4375 568 374.4375 568 C 375.8125 568 376.9375 568.125 378.6875 568.375 Z M 436.1875 619.125 C 435.5625 604.75 434.9375 591.625 434.9375 552.125 C 434.9375 540.25 435.0625 534.625 435.5625 521.125 L 434.6875 520.25 L 413.3125 523.625 L 412.8125 524.375 C 414.0625 539.625 414.1875 543.75 414.4375 564 C 414.5625 571.375 414.5625 578.75 414.5625 586.125 C 414.5625 599.625 414.3125 607.125 413.8125 619.5 L 414.5625 620.375 C 422.9375 620 426.3125 619.875 435.4375 620 Z M 506.1875 601.5 C 501.4375 604 495.8125 606.875 486.6875 606.875 C 479.1875 606.875 474.0625 604.5 471.0625 600 C 469.1875 597.375 468.8125 594.875 468.3125 592.375 L 508.6875 591.625 L 509.4375 590.75 C 509.3125 584.625 509.1875 578.375 507.4375 572.125 C 503.0625 557.375 493.4375 554.375 489.1875 553.375 C 486.0625 552.5 483.1875 552.25 480.3125 552.25 C 460.6875 552.25 447.6875 565.125 447.6875 586.75 C 447.6875 592.625 448.6875 598.75 450.6875 603.125 C 457.9375 620 474.9375 621.5 483.9375 621.5 C 494.3125 621.5 498.8125 619.625 505.4375 617 L 506.1875 616 L 507.0625 601.875 L 506.1875 601.5 M 468.3125 579.125 C 468.6875 575.25 469.5625 570 474.3125 567 C 475.8125 566 477.5625 565.625 479.3125 565.625 C 483.4375 565.625 485.9375 567.75 487.3125 570 C 489.0625 572.75 489.1875 575.75 489.1875 578.625 Z M 576.8125 553.375 L 559.4375 553.75 L 558.4375 554.625 C 556.3125 563.25 555.8125 565.125 552.8125 574.875 L 549.5625 585.625 L 546.8125 595 L 544.4375 586.125 L 540.8125 572.875 L 535.8125 553.875 L 534.8125 553.125 C 525.0625 553.875 522.9375 554 512.6875 554.25 L 512.0625 555.125 C 516.5625 567 528.1875 598.375 535.9375 622.375 C 530.8125 635.375 529.8125 637.625 524.1875 650 L 524.8125 651 C 527.9375 650.875 531.4375 650.75 534.6875 650.75 C 537.8125 650.75 541.0625 650.875 544.1875 650.875 L 545.0625 650.125 C 551.9375 623.125 555.3125 612.625 571.8125 569.125 C 573.6875 564.125 575.5625 559.25 577.3125 554.375 Z M 656.0625 566.25 C 645.5625 561.875 640.0625 559.625 640.0625 554 C 640.0625 550.125 643.6875 545.25 651.9375 545.25 C 661.4375 545.25 667.0625 549.125 671.6875 552.25 L 672.8125 551.75 L 673.8125 535.375 L 673.1875 534.5 C 667.8125 532.25 662.1875 529.875 650.0625 529.875 C 626.5625 529.875 618.4375 543.125 618.4375 556.5 C 618.4375 571.625 630.1875 577.125 637.1875 580.5 L 641.3125 582.375 C 649.9375 586 656.5625 589.125 656.5625 595.75 C 656.5625 600.5 652.4375 606.125 641.5625 606.125 C 630.1875 606.125 623.8125 601.125 620.1875 598.25 L 618.9375 598.625 L 618.0625 616.25 L 618.8125 617.25 C 620.1875 617.75 621.5625 618.375 622.9375 618.75 C 625.8125 619.75 633.1875 621.875 642.5625 621.875 C 646.3125 621.875 655.8125 621.5 663.3125 618 C 673.8125 612.875 678.3125 603.375 678.3125 592.75 C 678.3125 585.625 675.5625 578 668.9375 572.875 C 665.5625 570.375 662.3125 568.875 659.3125 567.5 Z M 725.1875 605.625 C 723.0625 606.25 721.5625 606.75 719.4375 606.75 C 713.0625 606.75 712.5625 602.75 712.3125 600.875 C 711.9375 597.625 711.9375 590.75 712.0625 585.75 L 712.3125 568.125 L 723.5625 568.625 L 724.3125 567.875 L 725.5625 554.5 L 724.8125 553.75 L 712.3125 553.75 L 712.6875 532.75 L 711.8125 532 C 703.3125 534.5 701.0625 535.125 692.1875 537.375 L 691.6875 538.25 L 691.8125 553.875 L 685.0625 553.625 L 684.3125 554.25 L 683.1875 567.625 L 683.9375 568.375 L 691.8125 568.125 L 691.4375 588 C 691.3125 591.125 691.1875 594.25 691.1875 597.5 C 691.1875 609 691.4375 621.375 710.9375 621.375 C 715.8125 621.375 719.6875 620.625 724.0625 619.875 L 724.9375 619 L 726.1875 606.125 Z M 790.0625 582.75 C 790.1875 571.5 790.1875 566.625 786.9375 561.375 C 784.4375 557.375 779.4375 552.375 763.4375 552.375 C 752.6875 552.375 746.0625 554.375 738.9375 556.5 L 738.1875 557.5 L 737.5625 571.125 L 738.5625 571.625 C 742.9375 569.875 751.0625 566.625 759.4375 566.625 C 764.0625 566.625 765.9375 567.375 767.5625 569 C 768.8125 570.25 769.1875 572.5 769.1875 574.375 C 754.1875 576.375 747.1875 577.75 739.6875 582.375 C 732.6875 586.75 730.3125 593.875 730.3125 599.5 C 730.3125 612.875 739.9375 621.5 752.1875 621.5 C 761.5625 621.5 766.9375 617 769.5625 614.875 L 769.5625 619.5 L 770.3125 620.375 C 779.3125 620 782.0625 619.875 790.1875 620 L 790.8125 619.125 C 789.9375 606.875 789.9375 603.75 789.9375 592 L 790.0625 582.75 M 769.4375 602.625 C 766.8125 604.125 763.4375 605.875 759.3125 605.875 C 754.8125 605.875 751.0625 603.5 751.0625 598.25 C 751.0625 590 760.9375 588.625 769.4375 587.5 Z M 839.6875 605.625 C 837.5625 606.25 836.0625 606.75 833.9375 606.75 C 827.5625 606.75 827.0625 602.75 826.8125 600.875 C 826.4375 597.625 826.4375 590.75 826.5625 585.75 L 826.8125 568.125 L 838.0625 568.625 L 838.8125 567.875 L 840.0625 554.5 L 839.3125 553.75 L 826.8125 553.75 L 827.1875 532.75 L 826.3125 532 C 817.8125 534.5 815.5625 535.125 806.6875 537.375 L 806.1875 538.25 L 806.3125 553.875 L 799.5625 553.625 L 798.8125 554.25 L 797.6875 567.625 L 798.4375 568.375 L 806.3125 568.125 L 805.9375 588 C 805.8125 591.125 805.6875 594.25 805.6875 597.5 C 805.6875 609 805.9375 621.375 825.4375 621.375 C 830.3125 621.375 834.1875 620.625 838.5625 619.875 L 839.4375 619 L 840.6875 606.125 Z M 904.4375 601.5 C 899.6875 604 894.0625 606.875 884.9375 606.875 C 877.4375 606.875 872.3125 604.5 869.3125 600 C 867.4375 597.375 867.0625 594.875 866.5625 592.375 L 906.9375 591.625 L 907.6875 590.75 C 907.5625 584.625 907.4375 578.375 905.6875 572.125 C 901.3125 557.375 891.6875 554.375 887.4375 553.375 C 884.3125 552.5 881.4375 552.25 878.5625 552.25 C 858.9375 552.25 845.9375 565.125 845.9375 586.75 C 845.9375 592.625 846.9375 598.75 848.9375 603.125 C 856.1875 620 873.1875 621.5 882.1875 621.5 C 892.5625 621.5 897.0625 619.625 903.6875 617 L 904.4375 616 L 905.3125 601.875 L 904.4375 601.5 M 866.5625 579.125 C 866.9375 575.25 867.8125 570 872.5625 567 C 874.0625 566 875.8125 565.625 877.5625 565.625 C 881.6875 565.625 884.1875 567.75 885.5625 570 C 887.3125 572.75 887.4375 575.75 887.4375 578.625 Z M 911.6875 620 "/>
<path fill-rule="nonzero" fill="rgb(34.901961%, 14.901961%, 14.901961%)" fill-opacity="1" d="M 215.6875 735.625 C 224.0625 749.875 225.9375 753.625 233.9375 770 L 234.9375 770.625 C 238.8125 770.375 242.5625 770.125 246.4375 770 C 250.3125 769.875 254.3125 769.75 258.1875 769.75 L 258.9375 768.25 C 254.1875 762.125 252.8125 760.25 243.8125 745.875 C 239.8125 739.5 237.8125 736.125 234.6875 730.625 C 240.3125 728.125 251.6875 722.875 251.6875 707 C 251.6875 701.5 250.1875 690.125 239.9375 684.75 C 233.4375 681.375 226.6875 681.25 212.0625 681.5 L 203.3125 681.625 L 188.0625 681.625 L 187.4375 682.375 C 187.9375 695 188.4375 708 188.4375 742 C 188.4375 753.625 188.3125 759.25 187.9375 769.625 L 188.6875 770.375 C 197.8125 770 199.8125 769.875 210.0625 770 L 210.8125 769.25 C 209.8125 754.75 209.6875 750.75 209.5625 735.875 L 215.6875 735.625 M 209.8125 696.75 C 211.5625 696.625 213.3125 696.625 215.0625 696.625 C 219.9375 696.625 229.5625 696.625 229.5625 707.625 C 229.5625 711.125 228.6875 715.75 224.0625 718.625 C 220.5625 720.75 216.0625 721 209.8125 721.125 Z M 321.0625 751.5 C 316.3125 754 310.6875 756.875 301.5625 756.875 C 294.0625 756.875 288.9375 754.5 285.9375 750 C 284.0625 747.375 283.6875 744.875 283.1875 742.375 L 323.5625 741.625 L 324.3125 740.75 C 324.1875 734.625 324.0625 728.375 322.3125 722.125 C 317.9375 707.375 308.3125 704.375 304.0625 703.375 C 300.9375 702.5 298.0625 702.25 295.1875 702.25 C 275.5625 702.25 262.5625 715.125 262.5625 736.75 C 262.5625 742.625 263.5625 748.75 265.5625 753.125 C 272.8125 770 289.8125 771.5 298.8125 771.5 C 309.1875 771.5 313.6875 769.625 320.3125 767 L 321.0625 766 L 321.9375 751.875 L 321.0625 751.5 M 283.1875 729.125 C 283.5625 725.25 284.4375 720 289.1875 717 C 290.6875 716 292.4375 715.625 294.1875 715.625 C 298.3125 715.625 300.8125 717.75 302.1875 720 C 303.9375 722.75 304.0625 725.75 304.0625 728.625 Z M 384.6875 752 C 381.3125 754 378.0625 756 371.6875 756 C 357.5625 756 354.6875 744.25 354.6875 736.75 C 354.6875 727.625 358.6875 717.125 370.8125 717.125 C 376.3125 717.125 379.3125 719.125 383.0625 721.625 L 384.3125 721.25 C 384.8125 714.625 384.9375 712.875 385.9375 706.25 L 385.3125 705.5 C 379.8125 703.75 375.0625 702.25 367.8125 702.25 C 338.4375 702.25 332.6875 724.5 332.6875 737.25 C 332.6875 751.625 340.1875 771.125 368.3125 771.125 C 374.9375 771.125 379.1875 769.875 384.4375 768.375 L 385.1875 767.625 L 385.6875 752.625 Z M 431.8125 723.625 L 435.3125 703.25 L 434.5625 702.375 C 433.6875 702.375 432.8125 702.25 431.9375 702.25 C 426.8125 702.25 421.0625 705.125 417.0625 714.375 L 417.4375 702.875 L 416.4375 701.875 C 407.1875 703.875 404.8125 704.25 395.6875 705.625 L 394.9375 706.375 C 395.6875 715.75 396.0625 721.375 396.0625 738.75 C 396.0625 749 395.9375 759.25 395.6875 769.625 L 396.4375 770.375 C 405.6875 770 407.6875 769.875 417.6875 770 L 418.3125 769.125 C 417.8125 759 417.0625 744.875 417.0625 736.25 C 417.0625 730.625 417.0625 722.375 425.5625 722.375 C 427.6875 722.375 428.9375 723.125 430.6875 724.125 Z M 498.0625 751.5 C 493.3125 754 487.6875 756.875 478.5625 756.875 C 471.0625 756.875 465.9375 754.5 462.9375 750 C 461.0625 747.375 460.6875 744.875 460.1875 742.375 L 500.5625 741.625 L 501.3125 740.75 C 501.1875 734.625 501.0625 728.375 499.3125 722.125 C 494.9375 707.375 485.3125 704.375 481.0625 703.375 C 477.9375 702.5 475.0625 702.25 472.1875 702.25 C 452.5625 702.25 439.5625 715.125 439.5625 736.75 C 439.5625 742.625 440.5625 748.75 442.5625 753.125 C 449.8125 770 466.8125 771.5 475.8125 771.5 C 486.1875 771.5 490.6875 769.625 497.3125 767 L 498.0625 766 L 498.9375 751.875 L 498.0625 751.5 M 460.1875 729.125 C 460.5625 725.25 461.4375 720 466.1875 717 C 467.6875 716 469.4375 715.625 471.1875 715.625 C 475.3125 715.625 477.8125 717.75 479.1875 720 C 480.9375 722.75 481.0625 725.75 481.0625 728.625 Z M 568.4375 732.75 C 568.5625 721.5 568.5625 716.625 565.3125 711.375 C 562.8125 707.375 557.8125 702.375 541.8125 702.375 C 531.0625 702.375 524.4375 704.375 517.3125 706.5 L 516.5625 707.5 L 515.9375 721.125 L 516.9375 721.625 C 521.3125 719.875 529.4375 716.625 537.8125 716.625 C 542.4375 716.625 544.3125 717.375 545.9375 719 C 547.1875 720.25 547.5625 722.5 547.5625 724.375 C 532.5625 726.375 525.5625 727.75 518.0625 732.375 C 511.0625 736.75 508.6875 743.875 508.6875 749.5 C 508.6875 762.875 518.3125 771.5 530.5625 771.5 C 539.9375 771.5 545.3125 767 547.9375 764.875 L 547.9375 769.5 L 548.6875 770.375 C 557.6875 770 560.4375 769.875 568.5625 770 L 569.1875 769.125 C 568.3125 756.875 568.3125 753.75 568.3125 742 L 568.4375 732.75 M 547.8125 752.625 C 545.1875 754.125 541.8125 755.875 537.6875 755.875 C 533.1875 755.875 529.4375 753.5 529.4375 748.25 C 529.4375 740 539.3125 738.625 547.8125 737.5 Z M 618.0625 755.625 C 615.9375 756.25 614.4375 756.75 612.3125 756.75 C 605.9375 756.75 605.4375 752.75 605.1875 750.875 C 604.8125 747.625 604.8125 740.75 604.9375 735.75 L 605.1875 718.125 L 616.4375 718.625 L 617.1875 717.875 L 618.4375 704.5 L 617.6875 703.75 L 605.1875 703.75 L 605.5625 682.75 L 604.6875 682 C 596.1875 684.5 593.9375 685.125 585.0625 687.375 L 584.5625 688.25 L 584.6875 703.875 L 577.9375 703.625 L 577.1875 704.25 L 576.0625 717.625 L 576.8125 718.375 L 584.6875 718.125 L 584.3125 738 C 584.1875 741.125 584.0625 744.25 584.0625 747.5 C 584.0625 759 584.3125 771.375 603.8125 771.375 C 608.6875 771.375 612.5625 770.625 616.9375 769.875 L 617.8125 769 L 619.0625 756.125 Z M 649.9375 769.125 C 649.3125 759.5 648.8125 752.125 648.8125 734.875 C 648.8125 724.25 649.0625 713.5 649.1875 702.875 L 648.3125 701.875 L 626.8125 705.625 L 626.0625 706.375 C 627.0625 715.875 627.4375 720.25 627.4375 738 C 627.4375 751.625 627.0625 759.25 626.6875 769.5 L 627.4375 770.375 C 636.4375 770 638.9375 769.875 649.0625 770 L 649.9375 769.125 M 647.9375 689.875 L 648.3125 672.875 L 647.5625 672.125 L 627.1875 674.625 L 626.4375 675.5 C 626.6875 680 626.8125 682.625 626.8125 685.625 C 626.8125 688 626.8125 690.5 626.6875 692.875 L 627.5625 693.625 C 636.0625 692.125 638.4375 691.875 647.3125 690.75 Z M 727.4375 736.75 C 727.4375 731.875 727.4375 711.625 709.9375 704.75 C 704.4375 702.625 697.9375 702.375 694.6875 702.375 C 672.9375 702.375 660.6875 714 660.6875 737 C 660.6875 745 661.9375 753.125 666.5625 759.875 C 669.8125 764.75 675.9375 771.5 693.8125 771.5 C 720.3125 771.5 727.4375 755.5 727.4375 736.75 M 705.8125 736.625 C 705.8125 746.875 704.4375 758.25 694.0625 758.25 C 690.8125 758.25 688.5625 756.75 687.0625 755.375 C 684.9375 753.25 682.5625 749 682.5625 736.875 C 682.5625 733.25 682.5625 725.25 685.0625 720.875 C 686.9375 717.5 690.1875 715.25 694.1875 715.25 C 697.6875 715.25 700.5625 717.125 702.1875 719.125 C 705.1875 722.75 705.8125 729.875 705.8125 736.625 Z M 800.5625 769.125 C 799.9375 758.125 799.9375 754.625 799.6875 742.375 L 799.6875 732.625 C 799.5625 720.625 799.4375 714.875 796.3125 709.75 C 792.4375 703.25 785.3125 702.25 780.8125 702.25 C 773.1875 702.25 766.5625 706.25 760.8125 709.625 L 761.0625 702.75 L 759.8125 701.875 C 750.1875 703.875 748.0625 704.25 738.6875 705.5 L 737.9375 706.375 C 738.9375 717.25 739.6875 725.125 739.6875 745.5 C 739.6875 753.5 739.5625 761.5 739.4375 769.5 L 740.1875 770.25 C 749.1875 769.875 751.0625 769.875 761.0625 769.875 L 761.8125 769.125 C 761.0625 749.875 760.9375 745 760.8125 722.625 C 763.4375 720.875 766.4375 718.75 770.4375 718.75 C 777.3125 718.75 777.9375 726.125 778.3125 730.625 C 778.5625 734.75 778.6875 751.875 778.6875 756.625 C 778.6875 760.875 778.5625 765.25 778.5625 769.5 L 779.3125 770.25 C 787.5625 770 789.6875 769.875 799.6875 769.875 Z M 807.3125 770 "/>
<path fill-rule="nonzero" fill="rgb(34.901961%, 14.901961%, 14.901961%)" fill-opacity="1" d="M 412.4375 831.375 C 400.4375 831.75 397.9375 831.75 384.5625 831.75 L 383.6875 832.5 C 377.0625 853.75 373.0625 866.375 354.6875 919.125 L 355.1875 920 L 374.6875 920 L 375.5625 919.25 L 381.6875 896.5 L 408.6875 896.5 L 414.0625 919.625 L 414.9375 920.375 C 424.0625 920 426.5625 919.875 436.6875 920 L 437.3125 919 C 422.1875 865.5 420.4375 859.625 413.3125 832.125 L 412.4375 831.375 M 386.0625 881.375 L 392.3125 860.25 L 396.6875 845.625 L 400.4375 861.875 L 405.0625 881.375 Z M 481.4375 873.625 L 484.9375 853.25 L 484.1875 852.375 C 483.3125 852.375 482.4375 852.25 481.5625 852.25 C 476.4375 852.25 470.6875 855.125 466.6875 864.375 L 467.0625 852.875 L 466.0625 851.875 C 456.8125 853.875 454.4375 854.25 445.3125 855.625 L 444.5625 856.375 C 445.3125 865.75 445.6875 871.375 445.6875 888.75 C 445.6875 899 445.5625 909.25 445.3125 919.625 L 446.0625 920.375 C 455.3125 920 457.3125 919.875 467.3125 920 L 467.9375 919.125 C 467.4375 909 466.6875 894.875 466.6875 886.25 C 466.6875 880.625 466.6875 872.375 475.1875 872.375 C 477.3125 872.375 478.5625 873.125 480.3125 874.125 Z M 547.6875 901.5 C 542.9375 904 537.3125 906.875 528.1875 906.875 C 520.6875 906.875 515.5625 904.5 512.5625 900 C 510.6875 897.375 510.3125 894.875 509.8125 892.375 L 550.1875 891.625 L 550.9375 890.75 C 550.8125 884.625 550.6875 878.375 548.9375 872.125 C 544.5625 857.375 534.9375 854.375 530.6875 853.375 C 527.5625 852.5 524.6875 852.25 521.8125 852.25 C 502.1875 852.25 489.1875 865.125 489.1875 886.75 C 489.1875 892.625 490.1875 898.75 492.1875 903.125 C 499.4375 920 516.4375 921.5 525.4375 921.5 C 535.8125 921.5 540.3125 919.625 546.9375 917 L 547.6875 916 L 548.5625 901.875 L 547.6875 901.5 M 509.8125 879.125 C 510.1875 875.25 511.0625 870 515.8125 867 C 517.3125 866 519.0625 865.625 520.8125 865.625 C 524.9375 865.625 527.4375 867.75 528.8125 870 C 530.5625 872.75 530.6875 875.75 530.6875 878.625 Z M 618.0625 882.75 C 618.1875 871.5 618.1875 866.625 614.9375 861.375 C 612.4375 857.375 607.4375 852.375 591.4375 852.375 C 580.6875 852.375 574.0625 854.375 566.9375 856.5 L 566.1875 857.5 L 565.5625 871.125 L 566.5625 871.625 C 570.9375 869.875 579.0625 866.625 587.4375 866.625 C 592.0625 866.625 593.9375 867.375 595.5625 869 C 596.8125 870.25 597.1875 872.5 597.1875 874.375 C 582.1875 876.375 575.1875 877.75 567.6875 882.375 C 560.6875 886.75 558.3125 893.875 558.3125 899.5 C 558.3125 912.875 567.9375 921.5 580.1875 921.5 C 589.5625 921.5 594.9375 917 597.5625 914.875 L 597.5625 919.5 L 598.3125 920.375 C 607.3125 920 610.0625 919.875 618.1875 920 L 618.8125 919.125 C 617.9375 906.875 617.9375 903.75 617.9375 892 L 618.0625 882.75 M 597.4375 902.625 C 594.8125 904.125 591.4375 905.875 587.3125 905.875 C 582.8125 905.875 579.0625 903.5 579.0625 898.25 C 579.0625 890 588.9375 888.625 597.4375 887.5 Z M 625.1875 920 "/>
</svg>
