<?xml version="1.0" encoding="UTF-8"?>
<svg xmlns="http://www.w3.org/2000/svg" xmlns:xlink="http://www.w3.org/1999/xlink" width="975" height="1300" viewBox="0 0 975 1300">
<path fill-rule="nonzero" fill="rgb(34.901961%, 14.901961%, 14.901961%)" fill-opacity="1" d="M 115.8125 545 C 127.4375 545.25 141.8125 545.5 151.1875 539 C 159.4375 533.125 161.6875 524.875 161.6875 517.875 C 161.6875 509.875 158.3125 502.5 151.1875 499 C 148.8125 497.75 146.0625 497.25 143.4375 496.75 C 147.6875 495 152.6875 492.75 155.9375 486.125 C 157.3125 483.25 157.9375 480.25 157.9375 477.375 C 157.9375 473.375 156.9375 467.875 152.9375 463.375 C 147.6875 457.75 139.5625 456.25 127.3125 456.25 C 123.0625 456.25 115.4375 456.375 111.1875 456.5 L 93.6875 456.75 L 92.9375 457.5 C 93.4375 469.5 93.5625 474.125 93.5625 491.375 C 93.5625 509.125 93.4375 526.75 93.1875 544.5 L 94.0625 545 L 115.8125 545 M 114.9375 507 C 124.4375 506.75 129.9375 506.75 133.5625 508.875 C 137.1875 511.125 138.5625 515.125 138.5625 519.125 C 138.5625 524.75 135.4375 528.25 130.8125 529.875 C 127.0625 531.125 120.3125 531.125 114.9375 531 L 114.9375 507 M 114.9375 470.25 C 117.5625 470.25 121.0625 470.125 123.1875 470.125 C 129.9375 470.125 136.0625 472.5 136.0625 480.625 C 136.0625 487.25 131.1875 490 129.6875 490.75 C 126.5625 492.125 119.9375 492.125 114.9375 492.125 Z M 228.8125 526.5 C 224.0625 529 218.4375 531.875 209.3125 531.875 C 201.8125 531.875 196.6875 529.5 193.6875 525 C 191.8125 522.375 191.4375 519.875 190.9375 517.375 L 231.3125 516.625 L 232.0625 515.75 C 231.9375 509.625 231.8125 503.375 230.0625 497.125 C 225.6875 482.375 216.0625 479.375 211.8125 478.375 C 208.6875 477.5 205.8125 477.25 202.9375 477.25 C 183.3125 477.25 170.3125 490.125 170.3125 511.75 C 170.3125 517.625 171.3125 523.75 173.3125 528.125 C 180.5625 545 197.5625 546.5 206.5625 546.5 C 216.9375 546.5 221.4375 544.625 228.0625 542 L 228.8125 541 L 229.6875 526.875 L 228.8125 526.5 M 190.9375 504.125 C 191.3125 500.25 192.1875 495 196.9375 492 C 198.4375 491 200.1875 490.625 201.9375 490.625 C 206.0625 490.625 208.5625 492.75 209.9375 495 C 211.6875 497.75 211.8125 500.75 211.8125 503.625 Z M 304.8125 544.125 C 304.1875 533.125 304.1875 529.625 303.9375 517.375 L 303.9375 507.625 C 303.8125 495.625 303.6875 489.875 300.5625 484.75 C 296.6875 478.25 289.5625 477.25 285.0625 477.25 C 277.4375 477.25 270.8125 481.25 265.0625 484.625 L 265.3125 477.75 L 264.0625 476.875 C 254.4375 478.875 252.3125 479.25 242.9375 480.5 L 242.1875 481.375 C 243.1875 492.25 243.9375 500.125 243.9375 520.5 C 243.9375 528.5 243.8125 536.5 243.6875 544.5 L 244.4375 545.25 C 253.4375 544.875 255.3125 544.875 265.3125 544.875 L 266.0625 544.125 C 265.3125 524.875 265.1875 520 265.0625 497.625 C 267.6875 495.875 270.6875 493.75 274.6875 493.75 C 281.5625 493.75 282.1875 501.125 282.5625 505.625 C 282.8125 509.75 282.9375 526.875 282.9375 531.625 C 282.9375 535.875 282.8125 540.25 282.8125 544.5 L 283.5625 545.25 C 291.8125 545 293.9375 544.875 303.9375 544.875 Z M 328.0625 545.25 L 330.5625 545.25 C 350.5625 545.25 363.4375 544.25 372.9375 534.125 C 381.8125 524.625 382.6875 513.375 382.6875 508.125 C 382.6875 490.75 372.6875 477.25 355.6875 477.25 C 347.4375 477.25 343.0625 480 339.5625 482.25 L 340.3125 446 L 339.3125 445.25 L 318.5625 448.5 L 317.8125 449.375 C 318.8125 459.875 319.1875 464.125 319.1875 489.25 C 319.1875 500 319.0625 521.25 318.9375 544.5 L 319.8125 545.375 L 328.0625 545.25 M 340.0625 494.625 C 342.5625 493.375 344.9375 492.125 348.1875 492.125 C 356.4375 492.125 361.1875 499.5 361.1875 511 C 361.1875 520 357.1875 525.875 353.8125 528.25 C 349.6875 531.125 344.3125 531.25 340.0625 531.375 Z M 458.1875 511.75 C 458.1875 506.875 458.1875 486.625 440.6875 479.75 C 435.1875 477.625 428.6875 477.375 425.4375 477.375 C 403.6875 477.375 391.4375 489 391.4375 512 C 391.4375 520 392.6875 528.125 397.3125 534.875 C 400.5625 539.75 406.6875 546.5 424.5625 546.5 C 451.0625 546.5 458.1875 530.5 458.1875 511.75 M 436.5625 511.625 C 436.5625 521.875 435.1875 533.25 424.8125 533.25 C 421.5625 533.25 419.3125 531.75 417.8125 530.375 C 415.6875 528.25 413.3125 524 413.3125 511.875 C 413.3125 508.25 413.3125 500.25 415.8125 495.875 C 417.6875 492.5 420.9375 490.25 424.9375 490.25 C 428.4375 490.25 431.3125 492.125 432.9375 494.125 C 435.9375 497.75 436.5625 504.875 436.5625 511.625 Z M 547.3125 544.125 C 552.3125 524.75 553.1875 521.75 560.6875 494.875 C 562.1875 489.75 563.5625 484.5 564.9375 479.375 L 564.1875 478.375 L 547.9375 478.75 L 547.0625 479.625 L 543.4375 498.375 L 539.9375 513.5 L 537.5625 525 L 535.4375 513.875 L 532.6875 500.875 L 528.3125 479.25 L 527.5625 478.375 L 503.5625 478.75 L 502.6875 479.625 L 498.5625 500.125 L 495.5625 513.875 L 493.1875 525.375 L 490.8125 513 L 487.8125 499.5 L 483.5625 478.75 L 482.8125 478.125 L 462.5625 479.625 L 461.8125 480.625 C 473.5625 521.875 475.4375 529.25 478.9375 544.625 L 479.8125 545.375 C 488.4375 545 491.5625 544.875 503.0625 545 L 503.8125 544.125 L 507.0625 528.875 L 510.5625 513.75 L 513.6875 498.625 L 515.5625 508.125 L 517.4375 517.375 L 522.6875 544.5 L 523.5625 545.375 C 532.8125 545 536.5625 544.875 546.5625 545 Z M 644.1875 491.25 C 633.6875 486.875 628.1875 484.625 628.1875 479 C 628.1875 475.125 631.8125 470.25 640.0625 470.25 C 649.5625 470.25 655.1875 474.125 659.8125 477.25 L 660.9375 476.75 L 661.9375 460.375 L 661.3125 459.5 C 655.9375 457.25 650.3125 454.875 638.1875 454.875 C 614.6875 454.875 606.5625 468.125 606.5625 481.5 C 606.5625 496.625 618.3125 502.125 625.3125 505.5 L 629.4375 507.375 C 638.0625 511 644.6875 514.125 644.6875 520.75 C 644.6875 525.5 640.5625 531.125 629.6875 531.125 C 618.3125 531.125 611.9375 526.125 608.3125 523.25 L 607.0625 523.625 L 606.1875 541.25 L 606.9375 542.25 C 608.3125 542.75 609.6875 543.375 611.0625 543.75 C 613.9375 544.75 621.3125 546.875 630.6875 546.875 C 634.4375 546.875 643.9375 546.5 651.4375 543 C 661.9375 537.875 666.4375 528.375 666.4375 517.75 C 666.4375 510.625 663.6875 503 657.0625 497.875 C 653.6875 495.375 650.4375 493.875 647.4375 492.5 Z M 713.3125 530.625 C 711.1875 531.25 709.6875 531.75 707.5625 531.75 C 701.1875 531.75 700.6875 527.75 700.4375 525.875 C 700.0625 522.625 700.0625 515.75 700.1875 510.75 L 700.4375 493.125 L 711.6875 493.625 L 712.4375 492.875 L 713.6875 479.5 L 712.9375 478.75 L 700.4375 478.75 L 700.8125 457.75 L 699.9375 457 C 691.4375 459.5 689.1875 460.125 680.3125 462.375 L 679.8125 463.25 L 679.9375 478.875 L 673.1875 478.625 L 672.4375 479.25 L 671.3125 492.625 L 672.0625 493.375 L 679.9375 493.125 L 679.5625 513 C 679.4375 516.125 679.3125 519.25 679.3125 522.5 C 679.3125 534 679.5625 546.375 699.0625 546.375 C 703.9375 546.375 707.8125 545.625 712.1875 544.875 L 713.0625 544 L 714.3125 531.125 Z M 778.1875 507.75 C 778.3125 496.5 778.3125 491.625 775.0625 486.375 C 772.5625 482.375 767.5625 477.375 751.5625 477.375 C 740.8125 477.375 734.1875 479.375 727.0625 481.5 L 726.3125 482.5 L 725.6875 496.125 L 726.6875 496.625 C 731.0625 494.875 739.1875 491.625 747.5625 491.625 C 752.1875 491.625 754.0625 492.375 755.6875 494 C 756.9375 495.25 757.3125 497.5 757.3125 499.375 C 742.3125 501.375 735.3125 502.75 727.8125 507.375 C 720.8125 511.75 718.4375 518.875 718.4375 524.5 C 718.4375 537.875 728.0625 546.5 740.3125 546.5 C 749.6875 546.5 755.0625 542 757.6875 539.875 L 757.6875 544.5 L 758.4375 545.375 C 767.4375 545 770.1875 544.875 778.3125 545 L 778.9375 544.125 C 778.0625 531.875 778.0625 528.75 778.0625 517 L 778.1875 507.75 M 757.5625 527.625 C 754.9375 529.125 751.5625 530.875 747.4375 530.875 C 742.9375 530.875 739.1875 528.5 739.1875 523.25 C 739.1875 515 749.0625 513.625 757.5625 512.5 Z M 827.8125 530.625 C 825.6875 531.25 824.1875 531.75 822.0625 531.75 C 815.6875 531.75 815.1875 527.75 814.9375 525.875 C 814.5625 522.625 814.5625 515.75 814.6875 510.75 L 814.9375 493.125 L 826.1875 493.625 L 826.9375 492.875 L 828.1875 479.5 L 827.4375 478.75 L 814.9375 478.75 L 815.3125 457.75 L 814.4375 457 C 805.9375 459.5 803.6875 460.125 794.8125 462.375 L 794.3125 463.25 L 794.4375 478.875 L 787.6875 478.625 L 786.9375 479.25 L 785.8125 492.625 L 786.5625 493.375 L 794.4375 493.125 L 794.0625 513 C 793.9375 516.125 793.8125 519.25 793.8125 522.5 C 793.8125 534 794.0625 546.375 813.5625 546.375 C 818.4375 546.375 822.3125 545.625 826.6875 544.875 L 827.5625 544 L 828.8125 531.125 Z M 892.5625 526.5 C 887.8125 529 882.1875 531.875 873.0625 531.875 C 865.5625 531.875 860.4375 529.5 857.4375 525 C 855.5625 522.375 855.1875 519.875 854.6875 517.375 L 895.0625 516.625 L 895.8125 515.75 C 895.6875 509.625 895.5625 503.375 893.8125 497.125 C 889.4375 482.375 879.8125 479.375 875.5625 478.375 C 872.4375 477.5 869.5625 477.25 866.6875 477.25 C 847.0625 477.25 834.0625 490.125 834.0625 511.75 C 834.0625 517.625 835.0625 523.75 837.0625 528.125 C 844.3125 545 861.3125 546.5 870.3125 546.5 C 880.6875 546.5 885.1875 544.625 891.8125 542 L 892.5625 541 L 893.4375 526.875 L 892.5625 526.5 M 854.6875 504.125 C 855.0625 500.25 855.9375 495 860.6875 492 C 862.1875 491 863.9375 490.625 865.6875 490.625 C 869.8125 490.625 872.3125 492.75 873.6875 495 C 875.4375 497.75 875.5625 500.75 875.5625 503.625 Z M 899.8125 545 "/>
<path fill-rule="nonzero" fill="rgb(34.901961%, 14.901961%, 14.901961%)" fill-opacity="1" d="M 215.6875 660.625 C 224.0625 674.875 225.9375 678.625 233.9375 695 L 234.9375 695.625 C 238.8125 695.375 242.5625 695.125 246.4375 695 C 250.3125 694.875 254.3125 694.75 258.1875 694.75 L 258.9375 693.25 C 254.1875 687.125 252.8125 685.25 243.8125 670.875 C 239.8125 664.5 237.8125 661.125 234.6875 655.625 C 240.3125 653.125 251.6875 647.875 251.6875 632 C 251.6875 626.5 250.1875 615.125 239.9375 609.75 C 233.4375 606.375 226.6875 606.25 212.0625 606.5 L 203.3125 606.625 L 188.0625 606.625 L 187.4375 607.375 C 187.9375 620 188.4375 633 188.4375 667 C 188.4375 678.625 188.3125 684.25 187.9375 694.625 L 188.6875 695.375 C 197.8125 695 199.8125 694.875 210.0625 695 L 210.8125 694.25 C 209.8125 679.75 209.6875 675.75 209.5625 660.875 L 215.6875 660.625 M 209.8125 621.75 C 211.5625 621.625 213.3125 621.625 215.0625 621.625 C 219.9375 621.625 229.5625 621.625 229.5625 632.625 C 229.5625 636.125 228.6875 640.75 224.0625 643.625 C 220.5625 645.75 216.0625 646 209.8125 646.125 Z M 321.0625 676.5 C 316.3125 679 310.6875 681.875 301.5625 681.875 C 294.0625 681.875 288.9375 679.5 285.9375 675 C 284.0625 672.375 283.6875 669.875 283.1875 667.375 L 323.5625 666.625 L 324.3125 665.75 C 324.1875 659.625 324.0625 653.375 322.3125 647.125 C 317.9375 632.375 308.3125 629.375 304.0625 628.375 C 300.9375 627.5 298.0625 627.25 295.1875 627.25 C 275.5625 627.25 262.5625 640.125 262.5625 661.75 C 262.5625 667.625 263.5625 673.75 265.5625 678.125 C 272.8125 695 289.8125 696.5 298.8125 696.5 C 309.1875 696.5 313.6875 694.625 320.3125 692 L 321.0625 691 L 321.9375 676.875 L 321.0625 676.5 M 283.1875 654.125 C 283.5625 650.25 284.4375 645 289.1875 642 C 290.6875 641 292.4375 640.625 294.1875 640.625 C 298.3125 640.625 300.8125 642.75 302.1875 645 C 303.9375 647.75 304.0625 650.75 304.0625 653.625 Z M 384.6875 677 C 381.3125 679 378.0625 681 371.6875 681 C 357.5625 681 354.6875 669.25 354.6875 661.75 C 354.6875 652.625 358.6875 642.125 370.8125 642.125 C 376.3125 642.125 379.3125 644.125 383.0625 646.625 L 384.3125 646.25 C 384.8125 639.625 384.9375 637.875 385.9375 631.25 L 385.3125 630.5 C 379.8125 628.75 375.0625 627.25 367.8125 627.25 C 338.4375 627.25 332.6875 649.5 332.6875 662.25 C 332.6875 676.625 340.1875 696.125 368.3125 696.125 C 374.9375 696.125 379.1875 694.875 384.4375 693.375 L 385.1875 692.625 L 385.6875 677.625 Z M 431.8125 648.625 L 435.3125 628.25 L 434.5625 627.375 C 433.6875 627.375 432.8125 627.25 431.9375 627.25 C 426.8125 627.25 421.0625 630.125 417.0625 639.375 L 417.4375 627.875 L 416.4375 626.875 C 407.1875 628.875 404.8125 629.25 395.6875 630.625 L 394.9375 631.375 C 395.6875 640.75 396.0625 646.375 396.0625 663.75 C 396.0625 674 395.9375 684.25 395.6875 694.625 L 396.4375 695.375 C 405.6875 695 407.6875 694.875 417.6875 695 L 418.3125 694.125 C 417.8125 684 417.0625 669.875 417.0625 661.25 C 417.0625 655.625 417.0625 647.375 425.5625 647.375 C 427.6875 647.375 428.9375 648.125 430.6875 649.125 Z M 498.0625 676.5 C 493.3125 679 487.6875 681.875 478.5625 681.875 C 471.0625 681.875 465.9375 679.5 462.9375 675 C 461.0625 672.375 460.6875 669.875 460.1875 667.375 L 500.5625 666.625 L 501.3125 665.75 C 501.1875 659.625 501.0625 653.375 499.3125 647.125 C 494.9375 632.375 485.3125 629.375 481.0625 628.375 C 477.9375 627.5 475.0625 627.25 472.1875 627.25 C 452.5625 627.25 439.5625 640.125 439.5625 661.75 C 439.5625 667.625 440.5625 673.75 442.5625 678.125 C 449.8125 695 466.8125 696.5 475.8125 696.5 C 486.1875 696.5 490.6875 694.625 497.3125 692 L 498.0625 691 L 498.9375 676.875 L 498.0625 676.5 M 460.1875 654.125 C 460.5625 650.25 461.4375 645 466.1875 642 C 467.6875 641 469.4375 640.625 471.1875 640.625 C 475.3125 640.625 477.8125 642.75 479.1875 645 C 480.9375 647.75 481.0625 650.75 481.0625 653.625 Z M 568.4375 657.75 C 568.5625 646.5 568.5625 641.625 565.3125 636.375 C 562.8125 632.375 557.8125 627.375 541.8125 627.375 C 531.0625 627.375 524.4375 629.375 517.3125 631.5 L 516.5625 632.5 L 515.9375 646.125 L 516.9375 646.625 C 521.3125 644.875 529.4375 641.625 537.8125 641.625 C 542.4375 641.625 544.3125 642.375 545.9375 644 C 547.1875 645.25 547.5625 647.5 547.5625 649.375 C 532.5625 651.375 525.5625 652.75 518.0625 657.375 C 511.0625 661.75 508.6875 668.875 508.6875 674.5 C 508.6875 687.875 518.3125 696.5 530.5625 696.5 C 539.9375 696.5 545.3125 692 547.9375 689.875 L 547.9375 694.5 L 548.6875 695.375 C 557.6875 695 560.4375 694.875 568.5625 695 L 569.1875 694.125 C 568.3125 681.875 568.3125 678.75 568.3125 667 L 568.4375 657.75 M 547.8125 677.625 C 545.1875 679.125 541.8125 680.875 537.6875 680.875 C 533.1875 680.875 529.4375 678.5 529.4375 673.25 C 529.4375 665 539.3125 663.625 547.8125 662.5 Z M 618.0625 680.625 C 615.9375 681.25 614.4375 681.75 612.3125 681.75 C 605.9375 681.75 605.4375 677.75 605.1875 675.875 C 604.8125 672.625 604.8125 665.75 604.9375 660.75 L 605.1875 643.125 L 616.4375 643.625 L 617.1875 642.875 L 618.4375 629.5 L 617.6875 628.75 L 605.1875 628.75 L 605.5625 607.75 L 604.6875 607 C 596.1875 609.5 593.9375 610.125 585.0625 612.375 L 584.5625 613.25 L 584.6875 628.875 L 577.9375 628.625 L 577.1875 629.25 L 576.0625 642.625 L 576.8125 643.375 L 584.6875 643.125 L 584.3125 663 C 584.1875 666.125 584.0625 669.25 584.0625 672.5 C 584.0625 684 584.3125 696.375 603.8125 696.375 C 608.6875 696.375 612.5625 695.625 616.9375 694.875 L 617.8125 694 L 619.0625 681.125 Z M 649.9375 694.125 C 649.3125 684.5 648.8125 677.125 648.8125 659.875 C 648.8125 649.25 649.0625 638.5 649.1875 627.875 L 648.3125 626.875 L 626.8125 630.625 L 626.0625 631.375 C 627.0625 640.875 627.4375 645.25 627.4375 663 C 627.4375 676.625 627.0625 684.25 626.6875 694.5 L 627.4375 695.375 C 636.4375 695 638.9375 694.875 649.0625 695 L 649.9375 694.125 M 647.9375 614.875 L 648.3125 597.875 L 647.5625 597.125 L 627.1875 599.625 L 626.4375 600.5 C 626.6875 605 626.8125 607.625 626.8125 610.625 C 626.8125 613 626.8125 615.5 626.6875 617.875 L 627.5625 618.625 C 636.0625 617.125 638.4375 616.875 647.3125 615.75 Z M 727.4375 661.75 C 727.4375 656.875 727.4375 636.625 709.9375 629.75 C 704.4375 627.625 697.9375 627.375 694.6875 627.375 C 672.9375 627.375 660.6875 639 660.6875 662 C 660.6875 670 661.9375 678.125 666.5625 684.875 C 669.8125 689.75 675.9375 696.5 693.8125 696.5 C 720.3125 696.5 727.4375 680.5 727.4375 661.75 M 705.8125 661.625 C 705.8125 671.875 704.4375 683.25 694.0625 683.25 C 690.8125 683.25 688.5625 681.75 687.0625 680.375 C 684.9375 678.25 682.5625 674 682.5625 661.875 C 682.5625 658.25 682.5625 650.25 685.0625 645.875 C 686.9375 642.5 690.1875 640.25 694.1875 640.25 C 697.6875 640.25 700.5625 642.125 702.1875 644.125 C 705.1875 647.75 705.8125 654.875 705.8125 661.625 Z M 800.5625 694.125 C 799.9375 683.125 799.9375 679.625 799.6875 667.375 L 799.6875 657.625 C 799.5625 645.625 799.4375 639.875 796.3125 634.75 C 792.4375 628.25 785.3125 627.25 780.8125 627.25 C 773.1875 627.25 766.5625 631.25 760.8125 634.625 L 761.0625 627.75 L 759.8125 626.875 C 750.1875 628.875 748.0625 629.25 738.6875 630.5 L 737.9375 631.375 C 738.9375 642.25 739.6875 650.125 739.6875 670.5 C 739.6875 678.5 739.5625 686.5 739.4375 694.5 L 740.1875 695.25 C 749.1875 694.875 751.0625 694.875 761.0625 694.875 L 761.8125 694.125 C 761.0625 674.875 760.9375 670 760.8125 647.625 C 763.4375 645.875 766.4375 643.75 770.4375 643.75 C 777.3125 643.75 777.9375 651.125 778.3125 655.625 C 778.5625 659.75 778.6875 676.875 778.6875 681.625 C 778.6875 685.875 778.5625 690.25 778.5625 694.5 L 779.3125 695.25 C 787.5625 695 789.6875 694.875 799.6875 694.875 Z M 807.3125 695 "/>
<path fill-rule="nonzero" fill="rgb(34.901961%, 14.901961%, 14.901961%)" fill-opacity="1" d="M 412.4375 756.375 C 400.4375 756.75 397.9375 756.75 384.5625 756.75 L 383.6875 757.5 C 377.0625 778.75 373.0625 791.375 354.6875 844.125 L 355.1875 845 L 374.6875 845 L 375.5625 844.25 L 381.6875 821.5 L 408.6875 821.5 L 414.0625 844.625 L 414.9375 845.375 C 424.0625 845 426.5625 844.875 436.6875 845 L 437.3125 844 C 422.1875 790.5 420.4375 784.625 413.3125 757.125 L 412.4375 756.375 M 386.0625 806.375 L 392.3125 785.25 L 396.6875 770.625 L 400.4375 786.875 L 405.0625 806.375 Z M 481.4375 798.625 L 484.9375 778.25 L 484.1875 777.375 C 483.3125 777.375 482.4375 777.25 481.5625 777.25 C 476.4375 777.25 470.6875 780.125 466.6875 789.375 L 467.0625 777.875 L 466.0625 776.875 C 456.8125 778.875 454.4375 779.25 445.3125 780.625 L 444.5625 781.375 C 445.3125 790.75 445.6875 796.375 445.6875 813.75 C 445.6875 824 445.5625 834.25 445.3125 844.625 L 446.0625 845.375 C 455.3125 845 457.3125 844.875 467.3125 845 L 467.9375 844.125 C 467.4375 834 466.6875 819.875 466.6875 811.25 C 466.6875 805.625 466.6875 797.375 475.1875 797.375 C 477.3125 797.375 478.5625 798.125 480.3125 799.125 Z M 547.6875 826.5 C 542.9375 829 537.3125 831.875 528.1875 831.875 C 520.6875 831.875 515.5625 829.5 512.5625 825 C 510.6875 822.375 510.3125 819.875 509.8125 817.375 L 550.1875 816.625 L 550.9375 815.75 C 550.8125 809.625 550.6875 803.375 548.9375 797.125 C 544.5625 782.375 534.9375 779.375 530.6875 778.375 C 527.5625 777.5 524.6875 777.25 521.8125 777.25 C 502.1875 777.25 489.1875 790.125 489.1875 811.75 C 489.1875 817.625 490.1875 823.75 492.1875 828.125 C 499.4375 845 516.4375 846.5 525.4375 846.5 C 535.8125 846.5 540.3125 844.625 546.9375 842 L 547.6875 841 L 548.5625 826.875 L 547.6875 826.5 M 509.8125 804.125 C 510.1875 800.25 511.0625 795 515.8125 792 C 517.3125 791 519.0625 790.625 520.8125 790.625 C 524.9375 790.625 527.4375 792.75 528.8125 795 C 530.5625 797.75 530.6875 800.75 530.6875 803.625 Z M 618.0625 807.75 C 618.1875 796.5 618.1875 791.625 614.9375 786.375 C 612.4375 782.375 607.4375 777.375 591.4375 777.375 C 580.6875 777.375 574.0625 779.375 566.9375 781.5 L 566.1875 782.5 L 565.5625 796.125 L 566.5625 796.625 C 570.9375 794.875 579.0625 791.625 587.4375 791.625 C 592.0625 791.625 593.9375 792.375 595.5625 794 C 596.8125 795.25 597.1875 797.5 597.1875 799.375 C 582.1875 801.375 575.1875 802.75 567.6875 807.375 C 560.6875 811.75 558.3125 818.875 558.3125 824.5 C 558.3125 837.875 567.9375 846.5 580.1875 846.5 C 589.5625 846.5 594.9375 842 597.5625 839.875 L 597.5625 844.5 L 598.3125 845.375 C 607.3125 845 610.0625 844.875 618.1875 845 L 618.8125 844.125 C 617.9375 831.875 617.9375 828.75 617.9375 817 L 618.0625 807.75 M 597.4375 827.625 C 594.8125 829.125 591.4375 830.875 587.3125 830.875 C 582.8125 830.875 579.0625 828.5 579.0625 823.25 C 579.0625 815 588.9375 813.625 597.4375 812.5 Z M 625.1875 845 "/>
</svg>
