<svg xmlns="http://www.w3.org/2000/svg" width="612" height="817" viewBox="0 0 612 817">
  <defs>
    <style>
      .cls-1 {
        fill: #592626;
        fill-rule: evenodd;
      }
    </style>
  </defs>
  <path id="Smithe_Redwoods_State_Natural_Reserve" data-name="Smithe Redwoods State Natural Reserve" class="cls-1" d="M206.476,263.623c-6.533-2.722-9.955-4.122-9.955-7.622,0-2.411,2.256-5.444,7.389-5.444,5.911,0,9.411,2.411,12.288,4.355l0.7-.311,0.622-10.188-0.388-.545a31.866,31.866,0,0,0-14.389-2.877c-14.621,0-19.677,8.244-19.677,16.566,0,9.41,7.311,12.832,11.667,14.932l2.566,1.167c5.367,2.255,9.489,4.2,9.489,8.322,0,2.955-2.567,6.455-9.333,6.455a19.842,19.842,0,0,1-13.3-4.9l-0.777.233-0.545,10.967,0.467,0.622c0.855,0.311,1.711.7,2.566,0.933a38.753,38.753,0,0,0,12.211,1.944c2.333,0,8.244-.233,12.91-2.411,6.533-3.188,9.333-9.1,9.333-15.71a15.415,15.415,0,0,0-5.833-12.366A31.471,31.471,0,0,0,208.5,264.4Zm81.976,32.9c-0.388-7.233-.466-9.255-0.466-18.043v-5.833c0.078-5.211.155-10.033-2.1-13.3-3.033-4.433-8.4-4.433-9.644-4.433-6.378,0-10.655,2.878-13.766,5.056-1.089-1.789-3.033-5.056-9.255-5.056-5.133,0-8.478,2.333-12.055,4.822v-4.355l-0.7-.7c-6.067,1.167-7.778,1.478-13.222,2.255l-0.466.545c0.622,6.222,1.088,10.5,1.088,25.9,0,4.433-.077,8.944-0.077,13.377l0.389,0.466c4.977-.155,6.688-0.233,13.143-0.233l0.467-.467c-0.544-11.977-.622-15.554-0.7-29.087a9.551,9.551,0,0,1,5.366-2.178c4.822,0,4.978,5.522,4.978,12.211,0,11.277-.078,12.988-0.233,19.288l0.466,0.544c5.911-.311,7.544-0.311,12.911-0.311l0.466-.467c-0.466-7.388-.544-9.566-0.622-18.976v-2.878l-0.078-7.855a9.6,9.6,0,0,1,5.367-1.945c4.433,0,5.133,4.2,5.133,10.889,0,1.477-.078,2.955-0.078,4.433-0.078,2.644-.155,14.232-0.233,16.566L275,297.221c5.834-.233,7.545-0.233,12.989-0.233Zm23.025,0c-0.389-5.988-.7-10.577-0.7-21.31,0-6.611.155-13.3,0.233-19.91l-0.544-.622-13.377,2.333-0.467.467c0.622,5.911.856,8.633,0.856,19.677,0,8.477-.234,13.221-0.467,19.6l0.467,0.544c5.6-.233,7.155-0.311,13.454-0.233Zm-1.245-49.308,0.234-10.578L310,236.169l-12.677,1.555-0.467.545c0.156,2.8.234,4.433,0.234,6.3,0,1.478,0,3.034-.078,4.511l0.544,0.467c5.289-.933,6.767-1.089,12.289-1.789Zm31.656,40.909a11.68,11.68,0,0,1-3.578.7c-3.966,0-4.278-2.489-4.433-3.656a89.4,89.4,0,0,1-.156-9.41l0.156-10.966,7,0.311,0.466-.467,0.778-8.322-0.467-.466h-7.777l0.233-13.066-0.544-.467c-5.289,1.555-6.689,1.944-12.211,3.344l-0.311.545,0.078,9.721-4.2-.155-0.466.389-0.7,8.321,0.466,0.467,4.9-.155-0.233,12.366c-0.078,1.944-.156,3.888-0.156,5.91,0,7.156.156,14.855,12.288,14.855a45.17,45.17,0,0,0,8.167-.933l0.544-.544,0.778-8.011Zm43.866,8.4c-0.312-6.377-.389-8.555-0.545-16.643v-5.833c-0.078-7.389-.155-11.666-2.411-14.933-2.255-3.189-5.522-4.2-8.944-4.2-5.677,0-10.111,2.722-13.221,4.589l0.233-23.954L360.4,235l-13.3,2.1-0.389.467c0.7,7.544.855,10.344,1.011,20.376q0.234,9.45.233,18.9c0,7.7-.155,12.288-0.311,19.91l0.389,0.544c5.755-.311,6.922-0.311,13.222-0.311l0.466-.467c-0.544-11.666-.622-15.166-0.7-28.932a10.275,10.275,0,0,1,5.989-2.333c4.278,0,4.589,4.433,4.9,7.544,0.155,2.411.233,13.455,0.233,16.333,0,2.566-.078,5.055-0.078,7.622l0.389,0.544c5.6-.311,6.844-0.311,12.833-0.311Zm43.4-10.966a23.769,23.769,0,0,1-12.133,3.345c-4.667,0-7.855-1.478-9.722-4.278a11.014,11.014,0,0,1-1.711-4.744l25.121-.467,0.467-.544a45.607,45.607,0,0,0-1.245-11.589c-2.722-9.177-8.71-11.044-11.355-11.666a19.933,19.933,0,0,0-5.522-.7c-12.21,0-20.3,8.011-20.3,21.466a25.891,25.891,0,0,0,1.867,10.188C399.133,297.066,409.71,298,415.31,298c6.455,0,9.255-1.167,13.377-2.8l0.467-.622,0.544-8.788Zm-23.566-13.921c0.233-2.411.778-5.678,3.733-7.544a5.969,5.969,0,0,1,8.089,1.866,9.5,9.5,0,0,1,1.166,5.367ZM138.421,369.011A236.5,236.5,0,0,1,149.776,390.4l0.622,0.389c2.411-.156,4.745-0.311,7.156-0.389s4.9-.155,7.31-0.155l0.467-.934c-2.955-3.811-3.811-4.977-9.411-13.921-2.488-3.967-3.733-6.067-5.677-9.489,3.5-1.555,10.577-4.822,10.577-14.7,0-3.422-.933-10.5-7.311-13.844-4.044-2.1-8.244-2.177-17.343-2.022l-5.444.078h-9.489l-0.389.467c0.311,7.855.622,15.943,0.622,37.1,0,7.233-.077,10.733-0.311,17.188l0.467,0.466c5.677-.233,6.922-0.311,13.3-0.233l0.467-.467c-0.622-9.021-.7-11.51-0.778-20.765Zm-3.655-24.187c1.089-.078,2.177-0.078,3.266-0.078,3.033,0,9.022,0,9.022,6.844a7.565,7.565,0,0,1-3.422,6.844c-2.178,1.322-4.978,1.478-8.866,1.555V344.824Zm69.221,34.065a23.773,23.773,0,0,1-12.133,3.344c-4.666,0-7.855-1.478-9.721-4.278a11.012,11.012,0,0,1-1.712-4.744l25.122-.467,0.466-.544a45.593,45.593,0,0,0-1.244-11.588c-2.722-9.178-8.711-11.044-11.355-11.666a19.9,19.9,0,0,0-5.522-.7c-12.211,0-20.3,8.01-20.3,21.465a25.893,25.893,0,0,0,1.866,10.189c4.511,10.5,15.089,11.432,20.688,11.432,6.455,0,9.255-1.166,13.377-2.8l0.467-.623,0.544-8.788Zm-23.566-13.922c0.234-2.411.778-5.677,3.734-7.544a5.967,5.967,0,0,1,8.088,1.867,9.5,9.5,0,0,1,1.167,5.366Zm70.855,24.965c-0.311-7-.545-11.666-0.545-21.854,0-20.532.311-29.01,0.623-39.276l-0.545-.467-12.833,2.023-0.388.466c0.466,7.311.544,9.255,0.466,18.122-5.833-.156-13.144-0.312-19.054,4.355-5.445,4.2-7.7,10.655-7.7,18.666,0,6.066,1.633,12.132,6.222,15.943a16.4,16.4,0,0,0,10.188,3.422,14.248,14.248,0,0,0,10.266-4.2l-0.155,3.033,0.389,0.466c5.366-.233,6.844-0.233,12.677-0.233Zm-13.222-31.654c0.078,10.344,0,12.367-.233,21.777a9.84,9.84,0,0,1-5.289,1.867c-7.544,0-7.544-9.644-7.544-11.2,0-5.988,1.711-12.677,10.422-12.677A17.483,17.483,0,0,1,238.054,358.278Zm70.155,31.577c3.111-12.055,3.655-13.922,8.321-30.643,0.934-3.189,1.789-6.456,2.645-9.644l-0.467-.622-10.111.233-0.544.544L305.8,361.389,303.62,370.8l-1.478,7.155-1.322-6.922-1.711-8.088-2.722-13.455-0.467-.544-14.932.233-0.545.544-2.566,12.755-1.867,8.555-1.478,7.156-1.477-7.7-1.867-8.4-2.644-12.91-0.467-.389-12.6.933-0.467.622c7.311,25.666,8.478,30.255,10.655,39.821l0.545,0.466c5.366-.233,7.31-0.311,14.466-0.233l0.466-.544,2.022-9.489,2.178-9.41,1.944-9.411,1.167,5.911,1.167,5.755,3.266,16.877,0.545,0.544c5.755-.233,8.088-0.311,14.31-0.233Zm54.678-20.144c0-3.033,0-15.632-10.889-19.91a27.956,27.956,0,0,0-9.488-1.478c-13.533,0-21.155,7.233-21.155,21.544,0,4.977.778,10.033,3.656,14.232,2.022,3.034,5.833,7.233,16.955,7.233C358.454,391.332,362.887,381.377,362.887,369.711Zm-13.455-.078c0,6.378-.856,13.455-7.311,13.455a6.292,6.292,0,0,1-4.355-1.788c-1.322-1.323-2.8-3.967-2.8-11.511,0-2.255,0-7.233,1.555-9.955a6.442,6.442,0,0,1,5.678-3.5,6.539,6.539,0,0,1,4.977,2.411C349.043,361,349.432,365.434,349.432,369.633Zm60.433,0.078c0-3.033,0-15.632-10.889-19.91a27.956,27.956,0,0,0-9.488-1.478c-13.533,0-21.155,7.233-21.155,21.544,0,4.977.778,10.033,3.656,14.232,2.022,3.034,5.833,7.233,16.954,7.233C405.431,391.332,409.865,381.377,409.865,369.711Zm-13.455-.078c0,6.378-.856,13.455-7.311,13.455a6.292,6.292,0,0,1-4.355-1.788c-1.323-1.323-2.8-3.967-2.8-11.511,0-2.255,0-7.233,1.555-9.955a6.442,6.442,0,0,1,5.678-3.5,6.541,6.541,0,0,1,4.977,2.411C396.021,361,396.41,365.434,396.41,369.633Zm58.955,20.3c-0.311-7-.545-11.666-0.545-21.854,0-20.532.311-29.01,0.622-39.276l-0.544-.467-12.833,2.023-0.389.466c0.467,7.311.545,9.255,0.467,18.122-5.833-.156-13.144-0.312-19.055,4.355-5.444,4.2-7.7,10.655-7.7,18.666,0,6.066,1.633,12.132,6.222,15.943a16.4,16.4,0,0,0,10.188,3.422,14.248,14.248,0,0,0,10.266-4.2l-0.155,3.033,0.389,0.466c5.366-.233,6.844-0.233,12.677-0.233Zm-13.222-31.654c0.078,10.344,0,12.367-.233,21.777a9.84,9.84,0,0,1-5.289,1.867c-7.544,0-7.544-9.644-7.544-11.2,0-5.988,1.711-12.677,10.422-12.677A17.483,17.483,0,0,1,442.143,358.278Zm38.423,5.289c-2.645-.933-4.745-1.789-4.745-3.966,0-.934.623-3.5,5.445-3.5a16.875,16.875,0,0,1,9.721,3.266l0.7-.233,0.778-8.477-0.389-.467a39.608,39.608,0,0,0-11.9-1.944c-3.811,0-11.433.311-15.477,6.144a11.691,11.691,0,0,0-2.1,6.844c0,8.322,6.455,10.81,10.11,12.21l2.956,1.089c2.1,0.7,5.522,1.867,5.522,4.667,0,1.944-1.789,4.044-6.144,4.044a19.454,19.454,0,0,1-8.244-2.178,17.161,17.161,0,0,1-3.111-2.177l-0.7.311c-0.156,4.044-.234,4.9-0.545,8.788l0.389,0.7c3.811,1.4,7.078,2.644,12.755,2.644,5.911,0,17.577-1.088,18.977-12.21a13.146,13.146,0,0,0,.078-1.711c0-8.555-5.989-10.811-10.266-12.444ZM94.71,450.29c-6.533-2.722-9.955-4.122-9.955-7.622,0-2.411,2.255-5.444,7.389-5.444,5.911,0,9.411,2.411,12.289,4.355l0.7-.311,0.622-10.189-0.389-.544a31.856,31.856,0,0,0-14.388-2.878c-14.622,0-19.677,8.244-19.677,16.566,0,9.411,7.311,12.833,11.666,14.933l2.567,1.166c5.366,2.256,9.488,4.2,9.488,8.322,0,2.956-2.566,6.456-9.333,6.456a19.84,19.84,0,0,1-13.3-4.9l-0.778.233L71.067,481.4l0.467,0.622c0.856,0.312,1.711.7,2.567,0.934A38.748,38.748,0,0,0,86.31,484.9c2.333,0,8.244-.233,12.91-2.411,6.533-3.189,9.333-9.1,9.333-15.71a15.413,15.413,0,0,0-5.833-12.366,31.522,31.522,0,0,0-5.989-3.345Zm43.011,24.5a11.669,11.669,0,0,1-3.578.7c-3.966,0-4.277-2.488-4.433-3.655a89.18,89.18,0,0,1-.155-9.411l0.155-10.966,7,0.311,0.467-.466,0.777-8.322-0.466-.467H129.71l0.234-13.066-0.545-.466c-5.288,1.555-6.688,1.944-12.21,3.344l-0.311.544,0.077,9.722-4.2-.156-0.466.389-0.7,8.322,0.467,0.467,4.9-.156-0.233,12.366c-0.078,1.945-.156,3.889-0.156,5.911,0,7.155.156,14.855,12.289,14.855a45.259,45.259,0,0,0,8.166-.933l0.544-.545,0.778-8.01Zm40.366-14.232c0.078-7,.078-10.033-1.944-13.3-1.556-2.488-4.667-5.6-14.622-5.6a47.347,47.347,0,0,0-15.244,2.566l-0.466.622-0.389,8.478,0.622,0.311c2.722-1.089,7.778-3.111,12.988-3.111,2.878,0,4.045.467,5.056,1.478a4.905,4.905,0,0,1,1.011,3.344c-9.333,1.244-13.688,2.1-18.355,4.977a12.44,12.44,0,0,0-5.833,10.656c0,8.321,5.989,13.688,13.61,13.688a16.079,16.079,0,0,0,10.811-4.122v2.877l0.467,0.545c5.6-.234,7.31-0.311,12.366-0.234l0.389-.544c-0.545-7.622-.545-9.566-0.545-16.877Zm-12.833,12.366a12.6,12.6,0,0,1-6.3,2.022c-2.8,0-5.133-1.478-5.133-4.744,0-5.133,6.144-5.989,11.432-6.689v9.411Zm43.711,1.866a11.669,11.669,0,0,1-3.577.7c-3.967,0-4.278-2.488-4.433-3.655a88.88,88.88,0,0,1-.156-9.411l0.156-10.966,7,0.311,0.467-.466,0.778-8.322-0.467-.467h-7.777l0.233-13.066-0.544-.466c-5.289,1.555-6.689,1.944-12.211,3.344l-0.311.544,0.078,9.722-4.2-.156-0.467.389-0.7,8.322,0.467,0.467,4.9-.156-0.234,12.366c-0.077,1.945-.155,3.889-0.155,5.911,0,7.155.155,14.855,12.288,14.855a45.259,45.259,0,0,0,8.166-.933l0.545-.545,0.778-8.01Zm38.733-2.566a23.773,23.773,0,0,1-12.133,3.344c-4.666,0-7.855-1.478-9.721-4.277a11,11,0,0,1-1.711-4.745l25.121-.466,0.466-.545a45.6,45.6,0,0,0-1.244-11.588c-2.722-9.177-8.711-11.044-11.355-11.666a19.9,19.9,0,0,0-5.522-.7c-12.211,0-20.3,8.011-20.3,21.466a25.891,25.891,0,0,0,1.866,10.188c4.511,10.5,15.089,11.433,20.688,11.433,6.456,0,9.255-1.167,13.377-2.8l0.467-.622,0.545-8.789ZM224.133,458.3c0.233-2.411.777-5.677,3.733-7.544a5.97,5.97,0,0,1,8.088,1.867,9.5,9.5,0,0,1,1.167,5.366Zm102.2-29.709c-4.9.233-6.222,0.311-11.044,0.233l-0.389.467,0.545,10.5,0.311,10.733,0.311,12.833c-2.256-3.811-2.645-4.433-6.611-10.344l-7.078-10.344c-5.833-8.866-7-10.578-8.944-13.688l-0.544-.389c-6.144.311-7.155,0.311-12.833,0.233l-0.389.467c0.389,12.055.623,21,.623,31.42,0,7.622-.156,15.244-0.234,22.788l0.389,0.467c5.211-.234,6.844-0.234,11.355-0.234l0.389-.466-0.778-17.033-0.233-9.566-0.467-10.422c3.656,6.067,4.9,8.089,10.189,15.788l7.777,11.433,6.922,10.111,0.544,0.389c4.745-.234,6.145-0.234,10.267-0.234l0.389-.388c-0.078-11.278-.156-18.9-0.156-28.232,0-8.711.078-17.344,0.156-26.055ZM370.9,460.556c0.078-7,.078-10.033-1.944-13.3-1.556-2.488-4.667-5.6-14.622-5.6a47.336,47.336,0,0,0-15.243,2.566l-0.467.622-0.389,8.478,0.622,0.311c2.722-1.089,7.778-3.111,12.988-3.111,2.878,0,4.045.467,5.056,1.478a4.9,4.9,0,0,1,1.011,3.344c-9.333,1.244-13.688,2.1-18.355,4.977a12.44,12.44,0,0,0-5.833,10.656c0,8.321,5.989,13.688,13.611,13.688a16.079,16.079,0,0,0,10.81-4.122v2.877l0.467,0.545c5.6-.234,7.311-0.311,12.366-0.234l0.389-.544c-0.545-7.622-.545-9.566-0.545-16.877Zm-12.833,12.366a12.6,12.6,0,0,1-6.3,2.022c-2.8,0-5.133-1.478-5.133-4.744,0-5.133,6.144-5.989,11.432-6.689v9.411Zm43.712,1.866a11.68,11.68,0,0,1-3.578.7c-3.967,0-4.278-2.488-4.433-3.655a88.88,88.88,0,0,1-.156-9.411l0.156-10.966,7,0.311,0.467-.466,0.778-8.322-0.467-.467h-7.777L394,429.446l-0.544-.466c-5.289,1.555-6.689,1.944-12.211,3.344l-0.311.544,0.078,9.722-4.2-.156-0.467.389-0.7,8.322,0.467,0.467,4.9-.156-0.233,12.366c-0.078,1.945-.156,3.889-0.156,5.911,0,7.155.156,14.855,12.288,14.855a45.281,45.281,0,0,0,8.167-.933l0.544-.545,0.778-8.01Zm43.088-32.665-12.677.623-0.545.466c0.545,8.789.545,21.232,0.545,22.477,0,2.255,0,3.5-.078,6.611-2.1,1.4-3.733,2.566-5.833,2.566-5.6,0-5.6-5.911-5.6-10.5,0-1.945,0-3.967.078-5.911l0.155-15.71-0.544-.623-12.833.623-0.544.466c0.466,6.533.544,8.711,0.544,16.566v5.444c-0.078,8.478.311,12.055,3.111,15.322a13.323,13.323,0,0,0,10.188,4.122c5.522,0,8.711-2.489,11.511-4.667l-0.078,3.5,0.545,0.467c5.677-.234,7.388-0.234,12.444-0.234l0.466-.466c-0.389-5.522-.544-8.478-0.544-18.588q0-10.966.233-21.932Zm32.123,12.755,2.177-12.677-0.466-.544c-0.545,0-1.089-.078-1.634-0.078-3.188,0-6.766,1.789-9.255,7.544l0.234-7.155-0.623-.622c-5.755,1.244-7.233,1.477-12.91,2.333l-0.467.466c0.467,5.834.7,9.333,0.7,20.144,0,6.377-.078,12.755-0.233,19.21l0.467,0.467c5.755-.234,7-0.311,13.221-0.234l0.389-.544c-0.311-6.3-.778-15.088-0.778-20.455,0-3.5,0-8.632,5.289-8.632a5.825,5.825,0,0,1,3.189,1.088Zm41.3,5.678c0.078-7,.078-10.033-1.944-13.3-1.556-2.488-4.667-5.6-14.622-5.6a47.347,47.347,0,0,0-15.244,2.566l-0.466.622-0.389,8.478,0.622,0.311c2.722-1.089,7.777-3.111,12.988-3.111,2.878,0,4.045.467,5.056,1.478a4.905,4.905,0,0,1,1.011,3.344c-9.333,1.244-13.688,2.1-18.355,4.977a12.44,12.44,0,0,0-5.833,10.656c0,8.321,5.989,13.688,13.61,13.688a16.079,16.079,0,0,0,10.811-4.122v2.877L506,483.966c5.6-.234,7.31-0.311,12.366-0.234l0.389-.544c-0.545-7.622-.545-9.566-0.545-16.877Zm-12.833,12.366a12.6,12.6,0,0,1-6.3,2.022c-2.8,0-5.134-1.478-5.134-4.744,0-5.133,6.145-5.989,11.433-6.689v9.411Zm35.623,10.266c-0.389-8.944-.778-17.11-0.778-41.687,0-7.388.078-10.888,0.389-19.288l-0.544-.544-13.3,2.1-0.311.466c0.778,9.489.856,12.055,1.011,24.655,0.078,4.588.078,9.177,0.078,13.766,0,8.4-.156,13.066-0.467,20.765l0.467,0.545c5.211-.234,7.311-0.311,12.988-0.234Zm-354.861,72.49a236.739,236.739,0,0,1,11.355,21.388l0.622,0.389c2.411-.156,4.744-0.311,7.155-0.389s4.9-.156,7.311-0.156l0.466-.933c-2.955-3.811-3.811-4.978-9.41-13.922-2.489-3.966-3.733-6.066-5.678-9.488,3.5-1.556,10.578-4.822,10.578-14.7,0-3.422-.934-10.5-7.311-13.844-4.044-2.1-8.244-2.178-17.344-2.022l-5.444.078h-9.488l-0.389.466c0.311,7.855.622,15.944,0.622,37.1,0,7.233-.078,10.733-0.311,17.188l0.466,0.467c5.678-.233,6.922-0.311,13.3-0.233l0.466-.467c-0.622-9.022-.7-11.51-0.777-20.766ZM182.56,531.49c1.089-.078,2.178-0.078,3.267-0.078,3.033,0,9.022,0,9.022,6.845a7.567,7.567,0,0,1-3.423,6.844c-2.177,1.322-4.977,1.477-8.866,1.555V531.49Zm69.221,34.065a23.761,23.761,0,0,1-12.132,3.345c-4.667,0-7.855-1.478-9.722-4.278a11,11,0,0,1-1.711-4.744l25.121-.467,0.467-.544a45.607,45.607,0,0,0-1.245-11.589c-2.722-9.177-8.71-11.044-11.355-11.666a19.933,19.933,0,0,0-5.522-.7c-12.21,0-20.3,8.011-20.3,21.466a25.873,25.873,0,0,0,1.867,10.188c4.511,10.5,15.088,11.433,20.688,11.433,6.455,0,9.255-1.167,13.377-2.8l0.466-.622,0.545-8.788Zm-23.565-13.921c0.233-2.411.778-5.678,3.733-7.544a5.969,5.969,0,0,1,8.089,1.866,9.511,9.511,0,0,1,1.166,5.367Zm49.077-1.4c-2.644-.934-4.744-1.789-4.744-3.967,0-.933.622-3.5,5.444-3.5a16.875,16.875,0,0,1,9.722,3.267l0.7-.233,0.778-8.478-0.389-.466a39.606,39.606,0,0,0-11.9-1.945c-3.811,0-11.433.311-15.477,6.144a11.687,11.687,0,0,0-2.1,6.845c0,8.321,6.455,10.81,10.11,12.21l2.956,1.089c2.1,0.7,5.522,1.866,5.522,4.666,0,1.945-1.789,4.045-6.145,4.045a19.461,19.461,0,0,1-8.244-2.178,17.186,17.186,0,0,1-3.111-2.178l-0.7.311c-0.156,4.045-.234,4.9-0.545,8.789l0.389,0.7c3.811,1.4,7.077,2.644,12.755,2.644,5.911,0,17.577-1.089,18.977-12.21a13.154,13.154,0,0,0,.078-1.711c0-8.556-5.989-10.811-10.267-12.444Zm55.455,15.321a23.763,23.763,0,0,1-12.133,3.345c-4.666,0-7.855-1.478-9.721-4.278a11,11,0,0,1-1.711-4.744l25.121-.467,0.466-.544a45.605,45.605,0,0,0-1.244-11.589c-2.722-9.177-8.711-11.044-11.355-11.666a19.933,19.933,0,0,0-5.522-.7c-12.211,0-20.3,8.011-20.3,21.466a25.891,25.891,0,0,0,1.866,10.188C302.727,577.066,313.305,578,318.9,578c6.456,0,9.255-1.167,13.377-2.8l0.467-.622,0.545-8.788Zm-23.565-13.921c0.233-2.411.777-5.678,3.733-7.544A5.968,5.968,0,0,1,321,545.956a9.5,9.5,0,0,1,1.167,5.367Zm55.221-3.422,2.178-12.678-0.467-.544c-0.544,0-1.089-.078-1.633-0.078-3.189,0-6.766,1.789-9.255,7.544l0.233-7.155-0.622-.622c-5.755,1.244-7.233,1.478-12.91,2.333l-0.467.467c0.467,5.833.7,9.333,0.7,20.143,0,6.378-.078,12.755-0.233,19.21l0.466,0.467c5.755-.233,7-0.311,13.222-0.233l0.389-.545c-0.311-6.3-.778-15.088-0.778-20.454,0-3.5,0-8.633,5.289-8.633a5.822,5.822,0,0,1,3.188,1.089Zm28.156,28.232c2.489-7.778,3.966-12.6,5.6-17.5,2.1-6.3,5.522-16.41,7.7-22.787l-0.389-.545-10.888.234-0.544.544c-1.089,5.211-1.323,6.3-2.878,12.366l-3.967,15.322-1.944-8.4-1.478-5.989c-1.944-7.233-2.255-8.71-3.344-13.843l-0.544-.467a102.2,102.2,0,0,1-13.611.855l-0.311.623c10.344,30.643,11.2,33.52,12.911,39.9l0.544,0.544c5.055-.233,7.077-0.311,12.677-0.233Zm51.955-10.889a23.766,23.766,0,0,1-12.133,3.345c-4.666,0-7.855-1.478-9.722-4.278a11.014,11.014,0,0,1-1.711-4.744l25.121-.467,0.467-.544a45.651,45.651,0,0,0-1.244-11.589c-2.723-9.177-8.711-11.044-11.355-11.666a19.943,19.943,0,0,0-5.522-.7c-12.211,0-20.3,8.011-20.3,21.466a25.891,25.891,0,0,0,1.866,10.188c4.511,10.5,15.088,11.433,20.688,11.433,6.455,0,9.255-1.167,13.377-2.8l0.467-.622,0.544-8.788Zm-23.566-13.921c0.234-2.411.778-5.678,3.733-7.544a5.969,5.969,0,0,1,8.089,1.866,9.5,9.5,0,0,1,1.167,5.367Z"/>
</svg>
