<svg xmlns="http://www.w3.org/2000/svg" width="612" height="817" viewBox="0 0 612 817">
  <defs>
    <style>
      .cls-1 {
        fill: #592626;
        fill-rule: evenodd;
      }
    </style>
  </defs>
  <path id="Tolowa_Dunes_State_Park" data-name="Tolowa Dunes State Park" class="cls-1" d="M90.509,348.423l0.467-.388,0.544-9.722-0.389-.233h-38.5l-0.544.466-0.544,9.566,0.389,0.467,12.677-.311c0.078,20.377.078,25.277-.544,44.564l0.467,0.467c5.755-.233,7.311-0.311,13.766-0.311l0.467-.467c-0.389-10.888-.544-21.776-0.544-32.742,0-4.278.078-6.689,0.233-11.667Zm39.2,23.955c0-3.033,0-15.633-10.888-19.91a27.961,27.961,0,0,0-9.489-1.478c-13.532,0-21.154,7.233-21.154,21.543,0,4.978.778,10.033,3.655,14.233C93.855,389.8,97.666,394,108.788,394,125.276,394,129.709,384.044,129.709,372.378Zm-13.455-.078c0,6.378-.855,13.455-7.311,13.455a6.288,6.288,0,0,1-4.355-1.789c-1.322-1.322-2.8-3.966-2.8-11.51,0-2.256,0-7.233,1.556-9.955a6.439,6.439,0,0,1,5.677-3.5A6.538,6.538,0,0,1,114,361.412C115.865,363.667,116.254,368.1,116.254,372.3Zm34.534,20.221c-0.389-8.944-.778-17.11-0.778-41.687,0-7.388.078-10.888,0.389-19.287L149.855,331l-13.3,2.1-0.311.467c0.778,9.488.856,12.055,1.011,24.654,0.078,4.589.078,9.177,0.078,13.766,0,8.4-.155,13.066-0.467,20.766l0.467,0.544c5.211-.233,7.311-0.311,12.988-0.233Zm48.61-20.143c0-3.033,0-15.633-10.888-19.91a27.965,27.965,0,0,0-9.489-1.478c-13.533,0-21.154,7.233-21.154,21.543,0,4.978.777,10.033,3.655,14.233,2.022,3.033,5.833,7.233,16.955,7.233C194.965,394,199.4,384.044,199.4,372.378Zm-13.455-.078c0,6.378-.856,13.455-7.311,13.455a6.288,6.288,0,0,1-4.355-1.789c-1.322-1.322-2.8-3.966-2.8-11.51,0-2.256,0-7.233,1.555-9.955a6.442,6.442,0,0,1,5.678-3.5,6.54,6.54,0,0,1,4.978,2.411C185.554,363.667,185.943,368.1,185.943,372.3Zm68.91,20.221c3.111-12.055,3.655-13.921,8.322-30.643,0.933-3.188,1.789-6.455,2.644-9.644l-0.466-.622-10.111.234-0.545.544-2.255,11.666-2.178,9.411-1.477,7.155-1.323-6.922-1.711-8.088-2.722-13.455-0.466-.545-14.933.234-0.544.544-2.567,12.755-1.866,8.555-1.478,7.155-1.478-7.7-1.866-8.4-2.645-12.91-0.466-.389-12.6.933-0.466.622c7.31,25.666,8.477,30.254,10.655,39.82l0.544,0.467c5.366-.233,7.311-0.311,14.466-0.233l0.467-.545,2.022-9.488,2.177-9.411,1.945-9.41,1.166,5.91,1.167,5.756,3.267,16.877,0.544,0.544c5.755-.233,8.088-0.311,14.31-0.233Zm49.7-22.632c0.077-7,.077-10.033-1.945-13.3-1.555-2.489-4.666-5.6-14.621-5.6a47.308,47.308,0,0,0-15.244,2.567l-0.467.622-0.388,8.477,0.622,0.311c2.722-1.089,7.777-3.111,12.988-3.111,2.878,0,4.044.467,5.055,1.478a4.9,4.9,0,0,1,1.011,3.344c-9.332,1.245-13.688,2.1-18.354,4.978a12.435,12.435,0,0,0-5.833,10.655c0,8.322,5.988,13.688,13.61,13.688a16.084,16.084,0,0,0,10.811-4.122v2.878l0.466,0.544c5.6-.233,7.311-0.311,12.366-0.233l0.389-.545c-0.544-7.621-.544-9.566-0.544-16.877Zm-12.833,12.366a12.6,12.6,0,0,1-6.3,2.022c-2.8,0-5.133-1.477-5.133-4.744,0-5.133,6.144-5.988,11.433-6.688v9.41Zm54.6,10.811c2.022,0.078,4.122.078,6.144,0.078,8.71,0,22.787-.312,28.465-14.155a42.228,42.228,0,0,0,2.567-14.855c0-7.311-1.634-12.911-3.578-16.41-5.289-9.644-15.322-9.956-24.188-9.956-3.577,0-7.155.156-10.733,0.312l-8.244.077-0.466.467c0.311,7.466.622,14,.622,35.543,0,7.622-.078,12.21-0.233,18.588l0.466,0.311h9.178Zm4.277-10.033c-0.155-7.622-.233-14.855-0.233-22.321,0-4.2,0-8.4.078-12.6,1.555-.077,3.188-0.155,4.744-0.155,4.744,0,14,0,14,16.566,0,9.721-3.655,14.077-5.522,15.632C360.165,383.033,354.8,383.033,350.6,383.033Zm78.166-31.576-12.678.622-0.544.467c0.544,8.788.544,21.232,0.544,22.476,0,2.256,0,3.5-.077,6.611-2.1,1.4-3.733,2.567-5.833,2.567-5.6,0-5.6-5.911-5.6-10.5,0-1.944,0-3.966.078-5.911l0.155-15.71-0.544-.622-12.833.622-0.544.467c0.466,6.533.544,8.71,0.544,16.565v5.445c-0.078,8.477.311,12.055,3.111,15.321A13.32,13.32,0,0,0,404.732,394c5.522,0,8.711-2.489,11.511-4.666l-0.078,3.5,0.545,0.467c5.677-.233,7.388-0.233,12.444-0.233l0.466-.467c-0.389-5.522-.544-8.477-0.544-18.588q0-10.967.233-21.932Zm47.755,41.064c-0.389-6.844-.389-9.021-0.544-16.643v-6.067c-0.078-7.466-.156-11.044-2.1-14.232-2.411-4.045-6.844-4.667-9.644-4.667-4.744,0-8.866,2.489-12.444,4.589l0.156-4.278-0.778-.544c-5.989,1.244-7.311,1.478-13.144,2.255l-0.467.545a216.123,216.123,0,0,1,1.089,24.343c0,4.978-.078,9.955-0.155,14.933l0.466,0.466c5.6-.233,6.767-0.233,12.989-0.233l0.466-.467c-0.466-11.977-.544-15.01-0.622-28.932,1.633-1.088,3.5-2.411,5.989-2.411,4.277,0,4.666,4.589,4.9,7.389,0.156,2.567.234,13.222,0.234,16.177,0,2.644-.078,5.366-0.078,8.011l0.467,0.466c5.133-.155,6.455-0.233,12.677-0.233Zm43.4-10.966a23.761,23.761,0,0,1-12.132,3.345c-4.667,0-7.856-1.478-9.722-4.278a11,11,0,0,1-1.711-4.744l25.121-.467,0.466-.544a45.56,45.56,0,0,0-1.244-11.589c-2.722-9.177-8.711-11.044-11.355-11.666a19.933,19.933,0,0,0-5.522-.7c-12.21,0-20.3,8.011-20.3,21.466a25.873,25.873,0,0,0,1.867,10.188C489.9,393.066,500.477,394,506.077,394c6.455,0,9.255-1.167,13.377-2.8l0.466-.622,0.545-8.788Zm-23.565-13.921c0.233-2.411.778-5.678,3.733-7.544a5.968,5.968,0,0,1,8.088,1.866,9.5,9.5,0,0,1,1.167,5.367Zm49.077-1.4c-2.644-.934-4.744-1.789-4.744-3.967,0-.933.622-3.5,5.444-3.5a16.878,16.878,0,0,1,9.722,3.267l0.7-.233,0.778-8.478-0.389-.466a39.613,39.613,0,0,0-11.9-1.945c-3.81,0-11.432.311-15.477,6.144a11.694,11.694,0,0,0-2.1,6.845c0,8.321,6.456,10.81,10.111,12.21l2.956,1.089c2.1,0.7,5.522,1.866,5.522,4.666,0,1.945-1.789,4.045-6.145,4.045a19.461,19.461,0,0,1-8.244-2.178,17.186,17.186,0,0,1-3.111-2.178l-0.7.311c-0.155,4.045-.233,4.9-0.544,8.789l0.389,0.7c3.811,1.4,7.077,2.644,12.755,2.644,5.911,0,17.577-1.089,18.977-12.21a13.324,13.324,0,0,0,.077-1.711c0-8.556-5.988-10.811-10.266-12.444ZM148.96,452.956c-6.533-2.722-9.955-4.122-9.955-7.622,0-2.411,2.255-5.444,7.388-5.444,5.911,0,9.411,2.411,12.289,4.356l0.7-.312L160,433.746l-0.389-.544a31.855,31.855,0,0,0-14.388-2.878c-14.622,0-19.677,8.244-19.677,16.566,0,9.411,7.311,12.833,11.666,14.933l2.566,1.166c5.367,2.256,9.489,4.2,9.489,8.322,0,2.955-2.567,6.455-9.333,6.455a19.839,19.839,0,0,1-13.3-4.9l-0.778.234-0.544,10.966,0.466,0.622c0.856,0.311,1.711.7,2.567,0.933a38.707,38.707,0,0,0,12.21,1.945c2.333,0,8.244-.234,12.911-2.411,6.533-3.189,9.333-9.1,9.333-15.711a15.415,15.415,0,0,0-5.833-12.366,31.556,31.556,0,0,0-5.989-3.344Zm43.011,24.5a11.669,11.669,0,0,1-3.578.7c-3.966,0-4.277-2.489-4.433-3.655a89.18,89.18,0,0,1-.155-9.411l0.155-10.966,7,0.311,0.467-.467,0.777-8.321-0.466-.467H183.96l0.234-13.066-0.545-.467c-5.288,1.556-6.688,1.945-12.21,3.344l-0.311.545,0.077,9.722-4.2-.156-0.466.389-0.7,8.322,0.467,0.466,4.9-.155-0.233,12.366c-0.078,1.944-.156,3.889-0.156,5.911,0,7.155.156,14.855,12.289,14.855a45.168,45.168,0,0,0,8.166-.934l0.544-.544,0.778-8.011Zm40.366-14.233c0.078-7,.078-10.032-1.944-13.3-1.556-2.489-4.667-5.6-14.622-5.6a47.345,47.345,0,0,0-15.244,2.567l-0.466.622-0.389,8.477,0.622,0.312c2.722-1.089,7.778-3.111,12.988-3.111,2.878,0,4.045.466,5.056,1.477a4.909,4.909,0,0,1,1.011,3.345c-9.333,1.244-13.688,2.1-18.355,4.977a12.437,12.437,0,0,0-5.833,10.655c0,8.322,5.989,13.688,13.61,13.688a16.074,16.074,0,0,0,10.811-4.122v2.878l0.467,0.544c5.6-.233,7.31-0.311,12.366-0.233l0.389-.544c-0.545-7.622-.545-9.567-0.545-16.877ZM219.5,475.589a12.6,12.6,0,0,1-6.3,2.022c-2.8,0-5.133-1.478-5.133-4.745,0-5.133,6.144-5.988,11.432-6.688v9.411Zm43.711,1.866a11.669,11.669,0,0,1-3.577.7c-3.967,0-4.278-2.489-4.433-3.655a88.88,88.88,0,0,1-.156-9.411l0.156-10.966,7,0.311,0.467-.467,0.778-8.321-0.467-.467h-7.777l0.233-13.066-0.544-.467c-5.289,1.556-6.689,1.945-12.211,3.344l-0.311.545,0.078,9.722-4.2-.156-0.467.389-0.7,8.322,0.467,0.466,4.9-.155-0.234,12.366c-0.077,1.944-.155,3.889-0.155,5.911,0,7.155.155,14.855,12.288,14.855a45.168,45.168,0,0,0,8.166-.934l0.545-.544,0.778-8.011Zm38.733-2.566a23.773,23.773,0,0,1-12.133,3.344c-4.666,0-7.855-1.478-9.721-4.278a11,11,0,0,1-1.711-4.744l25.121-.467,0.466-.544a45.593,45.593,0,0,0-1.244-11.588c-2.722-9.178-8.711-11.044-11.355-11.666a19.9,19.9,0,0,0-5.522-.7c-12.211,0-20.3,8.01-20.3,21.465a25.893,25.893,0,0,0,1.866,10.189c4.511,10.5,15.089,11.432,20.688,11.432,6.456,0,9.255-1.166,13.377-2.8l0.467-.623,0.545-8.788Zm-23.565-13.922c0.233-2.411.777-5.677,3.733-7.544a5.967,5.967,0,0,1,8.088,1.867,9.5,9.5,0,0,1,1.167,5.366Zm65.877-29.632-9.877.156-0.467.466c0.312,10.111.545,16.877,0.545,25.821,0,9.489-.233,18.9-0.467,28.388l0.467,0.466c5.755-.233,7-0.311,13.221-0.233l0.389-.467c-0.311-8.477-.311-10.421-0.311-18.354,8.711,0.078,18.044.078,23.644-6.767a19.991,19.991,0,0,0,4.044-12.521c0-3.344-.778-10.733-7.233-14.388-4.667-2.722-11.277-2.722-17.11-2.722Zm3.5,9.411c1.711-.078,3.345-0.078,5.056-0.078,6.844,0.156,8.71,3.655,8.71,8.166,0,1.089,0,5.6-4.122,7.855-2.1,1.167-4.977,1.323-9.644,1.323V440.746Zm66.11,22.476c0.078-7,.078-10.032-1.944-13.3-1.556-2.489-4.666-5.6-14.622-5.6a47.333,47.333,0,0,0-15.243,2.567l-0.467.622-0.389,8.477,0.622,0.312c2.722-1.089,7.778-3.111,12.989-3.111,2.877,0,4.044.466,5.055,1.477a4.9,4.9,0,0,1,1.011,3.345c-9.333,1.244-13.688,2.1-18.355,4.977a12.437,12.437,0,0,0-5.833,10.655c0,8.322,5.989,13.688,13.611,13.688a16.074,16.074,0,0,0,10.81-4.122v2.878l0.467,0.544c5.6-.233,7.311-0.311,12.366-0.233l0.389-.544c-0.544-7.622-.544-9.567-0.544-16.877Zm-12.832,12.367a12.6,12.6,0,0,1-6.3,2.022c-2.8,0-5.133-1.478-5.133-4.745,0-5.133,6.144-5.988,11.433-6.688v9.411Zm44.411-18.044,2.177-12.677-0.466-.545c-0.545,0-1.089-.077-1.634-0.077-3.188,0-6.766,1.788-9.255,7.544l0.234-7.156-0.623-.622c-5.755,1.245-7.233,1.478-12.91,2.333l-0.467.467c0.467,5.833.7,9.333,0.7,20.144,0,6.377-.077,12.755-0.233,19.21l0.467,0.466c5.755-.233,7-0.311,13.221-0.233l0.389-.544c-0.311-6.3-.778-15.088-0.778-20.455,0-3.5,0-8.633,5.289-8.633a5.826,5.826,0,0,1,3.189,1.089Zm46.666,27.843c-7.311-12.366-8.089-13.766-14-24.421,5.367-7.311,5.911-8.088,11.433-15.166l-0.389-.778-12.677.156-0.778.544c-6.066,10.5-6.844,11.744-10.422,17.111V454.2c0.078-14.544.156-17.655,0.545-29.4l-0.622-.467-13.533,2.023-0.467.544c0.545,7.544.778,11.2,0.934,21.388,0.155,12.6.155,25.2,0.077,37.8l0.545,0.544c5.211-.233,6.688-0.233,12.6-0.233l0.467-.544-0.467-13.144-0.078-8.944c6.767,12.444,7.622,14.155,11.589,22.4l0.7,0.466,14-.544Z"/>
</svg>
