<?xml version="1.0" encoding="UTF-8"?>
<svg xmlns="http://www.w3.org/2000/svg" xmlns:xlink="http://www.w3.org/1999/xlink" width="975" height="1300" viewBox="0 0 975 1300">
<path fill-rule="nonzero" fill="rgb(34.901961%, 14.901961%, 14.901961%)" fill-opacity="1" d="M 115.375 585.625 C 123.75 599.875 125.625 603.625 133.625 620 L 134.625 620.625 C 138.5 620.375 142.25 620.125 146.125 620 C 150 619.875 154 619.75 157.875 619.75 L 158.625 618.25 C 153.875 612.125 152.5 610.25 143.5 595.875 C 139.5 589.5 137.5 586.125 134.375 580.625 C 140 578.125 151.375 572.875 151.375 557 C 151.375 551.5 149.875 540.125 139.625 534.75 C 133.125 531.375 126.375 531.25 111.75 531.5 L 103 531.625 L 87.75 531.625 L 87.125 532.375 C 87.625 545 88.125 558 88.125 592 C 88.125 603.625 88 609.25 87.625 619.625 L 88.375 620.375 C 97.5 620 99.5 619.875 109.75 620 L 110.5 619.25 C 109.5 604.75 109.375 600.75 109.25 585.875 L 115.375 585.625 M 109.5 546.75 C 111.25 546.625 113 546.625 114.75 546.625 C 119.625 546.625 129.25 546.625 129.25 557.625 C 129.25 561.125 128.375 565.75 123.75 568.625 C 120.25 570.75 115.75 571 109.5 571.125 Z M 225.25 553.125 L 204.875 554.125 L 204 554.875 C 204.875 569 204.875 589 204.875 591 C 204.875 594.625 204.875 596.625 204.75 601.625 C 201.375 603.875 198.75 605.75 195.375 605.75 C 186.375 605.75 186.375 596.25 186.375 588.875 C 186.375 585.75 186.375 582.5 186.5 579.375 L 186.75 554.125 L 185.875 553.125 L 165.25 554.125 L 164.375 554.875 C 165.125 565.375 165.25 568.875 165.25 581.5 L 165.25 590.25 C 165.125 603.875 165.75 609.625 170.25 614.875 C 174.375 619.5 180.375 621.5 186.625 621.5 C 195.5 621.5 200.625 617.5 205.125 614 L 205 619.625 L 205.875 620.375 C 215 620 217.75 620 225.875 620 L 226.625 619.25 C 226 610.375 225.75 605.625 225.75 589.375 C 225.75 577.625 225.875 565.875 226.125 554.125 Z M 267 576.875 C 262.75 575.375 259.375 574 259.375 570.5 C 259.375 569 260.375 564.875 268.125 564.875 C 275.75 564.875 280.625 568.125 283.75 570.125 L 284.875 569.75 L 286.125 556.125 L 285.5 555.375 C 279.625 553.75 274.5 552.25 266.375 552.25 C 260.25 552.25 248 552.75 241.5 562.125 C 239.875 564.375 238.125 568.125 238.125 573.125 C 238.125 586.5 248.5 590.5 254.375 592.75 L 259.125 594.5 C 262.5 595.625 268 597.5 268 602 C 268 605.125 265.125 608.5 258.125 608.5 C 254.625 608.5 249.5 607.375 244.875 605 C 242.75 603.875 241.75 603 239.875 601.5 L 238.75 602 C 238.5 608.5 238.375 609.875 237.875 616.125 L 238.5 617.25 C 244.625 619.5 249.875 621.5 259 621.5 C 268.5 621.5 287.25 619.75 289.5 601.875 C 289.625 600.875 289.625 600 289.625 599.125 C 289.625 585.375 280 581.75 273.125 579.125 Z M 326.875 576.875 C 322.625 575.375 319.25 574 319.25 570.5 C 319.25 569 320.25 564.875 328 564.875 C 335.625 564.875 340.5 568.125 343.625 570.125 L 344.75 569.75 L 346 556.125 L 345.375 555.375 C 339.5 553.75 334.375 552.25 326.25 552.25 C 320.125 552.25 307.875 552.75 301.375 562.125 C 299.75 564.375 298 568.125 298 573.125 C 298 586.5 308.375 590.5 314.25 592.75 L 319 594.5 C 322.375 595.625 327.875 597.5 327.875 602 C 327.875 605.125 325 608.5 318 608.5 C 314.5 608.5 309.375 607.375 304.75 605 C 302.625 603.875 301.625 603 299.75 601.5 L 298.625 602 C 298.375 608.5 298.25 609.875 297.75 616.125 L 298.375 617.25 C 304.5 619.5 309.75 621.5 318.875 621.5 C 328.375 621.5 347.125 619.75 349.375 601.875 C 349.5 600.875 349.5 600 349.5 599.125 C 349.5 585.375 339.875 581.75 333 579.125 Z M 383.125 619.125 C 382.5 609.5 382 602.125 382 584.875 C 382 574.25 382.25 563.5 382.375 552.875 L 381.5 551.875 L 360 555.625 L 359.25 556.375 C 360.25 565.875 360.625 570.25 360.625 588 C 360.625 601.625 360.25 609.25 359.875 619.5 L 360.625 620.375 C 369.625 620 372.125 619.875 382.25 620 L 383.125 619.125 M 381.125 539.875 L 381.5 522.875 L 380.75 522.125 L 360.375 524.625 L 359.625 525.5 C 359.875 530 360 532.625 360 535.625 C 360 538 360 540.5 359.875 542.875 L 360.75 543.625 C 369.25 542.125 371.625 541.875 380.5 540.75 Z M 452.625 582.75 C 452.75 571.5 452.75 566.625 449.5 561.375 C 447 557.375 442 552.375 426 552.375 C 415.25 552.375 408.625 554.375 401.5 556.5 L 400.75 557.5 L 400.125 571.125 L 401.125 571.625 C 405.5 569.875 413.625 566.625 422 566.625 C 426.625 566.625 428.5 567.375 430.125 569 C 431.375 570.25 431.75 572.5 431.75 574.375 C 416.75 576.375 409.75 577.75 402.25 582.375 C 395.25 586.75 392.875 593.875 392.875 599.5 C 392.875 612.875 402.5 621.5 414.75 621.5 C 424.125 621.5 429.5 617 432.125 614.875 L 432.125 619.5 L 432.875 620.375 C 441.875 620 444.625 619.875 452.75 620 L 453.375 619.125 C 452.5 606.875 452.5 603.75 452.5 592 L 452.625 582.75 M 432 602.625 C 429.375 604.125 426 605.875 421.875 605.875 C 417.375 605.875 413.625 603.5 413.625 598.25 C 413.625 590 423.5 588.625 432 587.5 Z M 528.5 619.125 C 527.875 608.125 527.875 604.625 527.625 592.375 L 527.625 582.625 C 527.5 570.625 527.375 564.875 524.25 559.75 C 520.375 553.25 513.25 552.25 508.75 552.25 C 501.125 552.25 494.5 556.25 488.75 559.625 L 489 552.75 L 487.75 551.875 C 478.125 553.875 476 554.25 466.625 555.5 L 465.875 556.375 C 466.875 567.25 467.625 575.125 467.625 595.5 C 467.625 603.5 467.5 611.5 467.375 619.5 L 468.125 620.25 C 477.125 619.875 479 619.875 489 619.875 L 489.75 619.125 C 489 599.875 488.875 595 488.75 572.625 C 491.375 570.875 494.375 568.75 498.375 568.75 C 505.25 568.75 505.875 576.125 506.25 580.625 C 506.5 584.75 506.625 601.875 506.625 606.625 C 506.625 610.875 506.5 615.25 506.5 619.5 L 507.25 620.25 C 515.5 620 517.625 619.875 527.625 619.875 Z M 653.625 595.25 C 653.625 589 653.75 582.75 653.875 576.375 L 653.25 575.625 L 632 576 L 631.375 576.75 C 632.5 589 632.625 592 632.375 603.375 C 629 604.125 626.5 604.75 623 604.75 C 603.625 604.75 600.125 586.25 600.125 576.875 C 600.125 557.125 610.75 546.375 626.5 546.375 C 636 546.375 641.625 550.125 647.5 554 L 648.5 553.625 C 649.125 545.875 649.375 543.875 650.375 536.375 L 649.75 535.625 C 644.5 533.375 636.125 529.875 623.125 529.875 C 608.875 529.875 593.25 533.875 583.375 550.625 C 578.875 558.5 577 568.625 577 577 C 577 588.75 580.125 598.625 585.75 605.875 C 593.125 615.375 602.25 618.375 607.125 619.75 C 610.75 620.75 616.125 621.875 623.875 621.875 C 636.75 621.875 644.625 619.25 653.375 616.375 L 654 615.375 C 653.875 609.625 653.625 603.875 653.625 598.125 Z M 727.75 553.125 L 707.375 554.125 L 706.5 554.875 C 707.375 569 707.375 589 707.375 591 C 707.375 594.625 707.375 596.625 707.25 601.625 C 703.875 603.875 701.25 605.75 697.875 605.75 C 688.875 605.75 688.875 596.25 688.875 588.875 C 688.875 585.75 688.875 582.5 689 579.375 L 689.25 554.125 L 688.375 553.125 L 667.75 554.125 L 666.875 554.875 C 667.625 565.375 667.75 568.875 667.75 581.5 L 667.75 590.25 C 667.625 603.875 668.25 609.625 672.75 614.875 C 676.875 619.5 682.875 621.5 689.125 621.5 C 698 621.5 703.125 617.5 707.625 614 L 707.5 619.625 L 708.375 620.375 C 717.5 620 720.25 620 728.375 620 L 729.125 619.25 C 728.5 610.375 728.25 605.625 728.25 589.375 C 728.25 577.625 728.375 565.875 728.625 554.125 Z M 765.25 619.125 C 764.625 604.75 764 591.625 764 552.125 C 764 540.25 764.125 534.625 764.625 521.125 L 763.75 520.25 L 742.375 523.625 L 741.875 524.375 C 743.125 539.625 743.25 543.75 743.5 564 C 743.625 571.375 743.625 578.75 743.625 586.125 C 743.625 599.625 743.375 607.125 742.875 619.5 L 743.625 620.375 C 752 620 755.375 619.875 764.5 620 Z M 828.625 602 C 825.25 604 822 606 815.625 606 C 801.5 606 798.625 594.25 798.625 586.75 C 798.625 577.625 802.625 567.125 814.75 567.125 C 820.25 567.125 823.25 569.125 827 571.625 L 828.25 571.25 C 828.75 564.625 828.875 562.875 829.875 556.25 L 829.25 555.5 C 823.75 553.75 819 552.25 811.75 552.25 C 782.375 552.25 776.625 574.5 776.625 587.25 C 776.625 601.625 784.125 621.125 812.25 621.125 C 818.875 621.125 823.125 619.875 828.375 618.375 L 829.125 617.625 L 829.625 602.625 Z M 900.875 619.125 C 900.375 608.875 900.25 605.375 900 592.375 L 900 583 C 899.875 571.125 899.75 564.25 896.125 559 C 892.5 553.875 887.25 552.25 881.75 552.25 C 872.625 552.25 865.5 556.625 860.5 559.625 L 860.875 521.125 L 860.125 520.25 L 838.75 523.625 L 838.125 524.375 C 839.25 536.5 839.5 541 839.75 557.125 C 840 567.25 840.125 577.375 840.125 587.5 C 840.125 599.875 839.875 607.25 839.625 619.5 L 840.25 620.375 C 849.5 619.875 851.375 619.875 861.5 619.875 L 862.25 619.125 C 861.375 600.375 861.25 594.75 861.125 572.625 C 863.5 571 866.5 568.875 870.75 568.875 C 877.625 568.875 878.125 576 878.625 581 C 878.875 584.875 879 602.625 879 607.25 C 879 611.375 878.875 615.375 878.875 619.5 L 879.5 620.375 C 888.5 619.875 890.5 619.875 900.125 619.875 Z M 907.625 620 "/>
<path fill-rule="nonzero" fill="rgb(34.901961%, 14.901961%, 14.901961%)" fill-opacity="1" d="M 232.875 716.25 C 222.375 711.875 216.875 709.625 216.875 704 C 216.875 700.125 220.5 695.25 228.75 695.25 C 238.25 695.25 243.875 699.125 248.5 702.25 L 249.625 701.75 L 250.625 685.375 L 250 684.5 C 244.625 682.25 239 679.875 226.875 679.875 C 203.375 679.875 195.25 693.125 195.25 706.5 C 195.25 721.625 207 727.125 214 730.5 L 218.125 732.375 C 226.75 736 233.375 739.125 233.375 745.75 C 233.375 750.5 229.25 756.125 218.375 756.125 C 207 756.125 200.625 751.125 197 748.25 L 195.75 748.625 L 194.875 766.25 L 195.625 767.25 C 197 767.75 198.375 768.375 199.75 768.75 C 202.625 769.75 210 771.875 219.375 771.875 C 223.125 771.875 232.625 771.5 240.125 768 C 250.625 762.875 255.125 753.375 255.125 742.75 C 255.125 735.625 252.375 728 245.75 722.875 C 242.375 720.375 239.125 718.875 236.125 717.5 Z M 302 755.625 C 299.875 756.25 298.375 756.75 296.25 756.75 C 289.875 756.75 289.375 752.75 289.125 750.875 C 288.75 747.625 288.75 740.75 288.875 735.75 L 289.125 718.125 L 300.375 718.625 L 301.125 717.875 L 302.375 704.5 L 301.625 703.75 L 289.125 703.75 L 289.5 682.75 L 288.625 682 C 280.125 684.5 277.875 685.125 269 687.375 L 268.5 688.25 L 268.625 703.875 L 261.875 703.625 L 261.125 704.25 L 260 717.625 L 260.75 718.375 L 268.625 718.125 L 268.25 738 C 268.125 741.125 268 744.25 268 747.5 C 268 759 268.25 771.375 287.75 771.375 C 292.625 771.375 296.5 770.625 300.875 769.875 L 301.75 769 L 303 756.125 Z M 366.875 732.75 C 367 721.5 367 716.625 363.75 711.375 C 361.25 707.375 356.25 702.375 340.25 702.375 C 329.5 702.375 322.875 704.375 315.75 706.5 L 315 707.5 L 314.375 721.125 L 315.375 721.625 C 319.75 719.875 327.875 716.625 336.25 716.625 C 340.875 716.625 342.75 717.375 344.375 719 C 345.625 720.25 346 722.5 346 724.375 C 331 726.375 324 727.75 316.5 732.375 C 309.5 736.75 307.125 743.875 307.125 749.5 C 307.125 762.875 316.75 771.5 329 771.5 C 338.375 771.5 343.75 767 346.375 764.875 L 346.375 769.5 L 347.125 770.375 C 356.125 770 358.875 769.875 367 770 L 367.625 769.125 C 366.75 756.875 366.75 753.75 366.75 742 L 366.875 732.75 M 346.25 752.625 C 343.625 754.125 340.25 755.875 336.125 755.875 C 331.625 755.875 327.875 753.5 327.875 748.25 C 327.875 740 337.75 738.625 346.25 737.5 Z M 416.5 755.625 C 414.375 756.25 412.875 756.75 410.75 756.75 C 404.375 756.75 403.875 752.75 403.625 750.875 C 403.25 747.625 403.25 740.75 403.375 735.75 L 403.625 718.125 L 414.875 718.625 L 415.625 717.875 L 416.875 704.5 L 416.125 703.75 L 403.625 703.75 L 404 682.75 L 403.125 682 C 394.625 684.5 392.375 685.125 383.5 687.375 L 383 688.25 L 383.125 703.875 L 376.375 703.625 L 375.625 704.25 L 374.5 717.625 L 375.25 718.375 L 383.125 718.125 L 382.75 738 C 382.625 741.125 382.5 744.25 382.5 747.5 C 382.5 759 382.75 771.375 402.25 771.375 C 407.125 771.375 411 770.625 415.375 769.875 L 416.25 769 L 417.5 756.125 Z M 481.25 751.5 C 476.5 754 470.875 756.875 461.75 756.875 C 454.25 756.875 449.125 754.5 446.125 750 C 444.25 747.375 443.875 744.875 443.375 742.375 L 483.75 741.625 L 484.5 740.75 C 484.375 734.625 484.25 728.375 482.5 722.125 C 478.125 707.375 468.5 704.375 464.25 703.375 C 461.125 702.5 458.25 702.25 455.375 702.25 C 435.75 702.25 422.75 715.125 422.75 736.75 C 422.75 742.625 423.75 748.75 425.75 753.125 C 433 770 450 771.5 459 771.5 C 469.375 771.5 473.875 769.625 480.5 767 L 481.25 766 L 482.125 751.875 L 481.25 751.5 M 443.375 729.125 C 443.75 725.25 444.625 720 449.375 717 C 450.875 716 452.625 715.625 454.375 715.625 C 458.5 715.625 461 717.75 462.375 720 C 464.125 722.75 464.25 725.75 464.25 728.625 Z M 549.25 681.5 L 533.375 681.75 L 532.625 682.5 C 533.125 698.75 533.5 709.625 533.5 724 C 533.5 739.25 533.125 754.375 532.75 769.625 L 533.5 770.375 C 542.75 770 544.75 769.875 554.75 770 L 555.375 769.25 C 554.875 755.625 554.875 752.5 554.875 739.75 C 568.875 739.875 583.875 739.875 592.875 728.875 C 596.375 724.625 599.375 717.5 599.375 708.75 C 599.375 703.375 598.125 691.5 587.75 685.625 C 580.25 681.25 569.625 681.25 560.25 681.25 L 549.25 681.5 M 554.875 696.625 C 557.625 696.5 560.25 696.5 563 696.5 C 574 696.75 577 702.375 577 709.625 C 577 711.375 577 718.625 570.375 722.25 C 567 724.125 562.375 724.375 554.875 724.375 Z M 663.625 732.75 C 663.75 721.5 663.75 716.625 660.5 711.375 C 658 707.375 653 702.375 637 702.375 C 626.25 702.375 619.625 704.375 612.5 706.5 L 611.75 707.5 L 611.125 721.125 L 612.125 721.625 C 616.5 719.875 624.625 716.625 633 716.625 C 637.625 716.625 639.5 717.375 641.125 719 C 642.375 720.25 642.75 722.5 642.75 724.375 C 627.75 726.375 620.75 727.75 613.25 732.375 C 606.25 736.75 603.875 743.875 603.875 749.5 C 603.875 762.875 613.5 771.5 625.75 771.5 C 635.125 771.5 640.5 767 643.125 764.875 L 643.125 769.5 L 643.875 770.375 C 652.875 770 655.625 769.875 663.75 770 L 664.375 769.125 C 663.5 756.875 663.5 753.75 663.5 742 L 663.625 732.75 M 643 752.625 C 640.375 754.125 637 755.875 632.875 755.875 C 628.375 755.875 624.625 753.5 624.625 748.25 C 624.625 740 634.5 738.625 643 737.5 Z M 714.375 723.625 L 717.875 703.25 L 717.125 702.375 C 716.25 702.375 715.375 702.25 714.5 702.25 C 709.375 702.25 703.625 705.125 699.625 714.375 L 700 702.875 L 699 701.875 C 689.75 703.875 687.375 704.25 678.25 705.625 L 677.5 706.375 C 678.25 715.75 678.625 721.375 678.625 738.75 C 678.625 749 678.5 759.25 678.25 769.625 L 679 770.375 C 688.25 770 690.25 769.875 700.25 770 L 700.875 769.125 C 700.375 759 699.625 744.875 699.625 736.25 C 699.625 730.625 699.625 722.375 708.125 722.375 C 710.25 722.375 711.5 723.125 713.25 724.125 Z M 789.375 768.375 C 777.625 748.5 776.375 746.25 766.875 729.125 C 775.5 717.375 776.375 716.125 785.25 704.75 L 784.625 703.5 L 764.25 703.75 L 763 704.625 C 753.25 721.5 752 723.5 746.25 732.125 L 746.25 718.25 C 746.375 694.875 746.5 689.875 747.125 671 L 746.125 670.25 L 724.375 673.5 L 723.625 674.375 C 724.5 686.5 724.875 692.375 725.125 708.75 C 725.375 729 725.375 749.25 725.25 769.5 L 726.125 770.375 C 734.5 770 736.875 770 746.375 770 L 747.125 769.125 L 746.375 748 L 746.25 733.625 C 757.125 753.625 758.5 756.375 764.875 769.625 L 766 770.375 L 788.5 769.5 Z M 787.875 770 "/>
</svg>
