<?xml version="1.0" encoding="UTF-8"?>
<svg xmlns="http://www.w3.org/2000/svg" xmlns:xlink="http://www.w3.org/1999/xlink" width="975" height="1300" viewBox="0 0 975 1300">
<path fill-rule="nonzero" fill="rgb(34.901961%, 14.901961%, 14.901961%)" fill-opacity="1" d="M 203.625 531.375 C 190.625 531.75 188.5 531.75 174.625 531.75 L 173.875 532.5 L 168.125 552.75 L 163.125 570.875 L 157.25 592.625 L 151.75 570.25 L 148.25 556.125 L 142 532.125 L 141.375 531.375 C 128 531.75 125.75 531.75 111.75 531.75 L 111 532.5 C 109.75 569.875 109.25 579.5 106.5 619.625 L 107.125 620.375 C 115.125 620 117.5 619.875 124.75 620 L 125.5 619.25 L 125.875 595.375 L 126.625 571.125 L 127.125 547.5 L 132.625 569.625 L 137.375 587.375 L 145.75 619.625 L 146.5 620.375 C 154.25 620 156.375 619.875 165.125 620 L 165.875 619.25 L 173.125 592.625 L 178.125 574.375 L 185.125 548.125 L 185.125 570.5 L 185.375 589.625 L 185.375 619.625 L 186 620.375 C 194.625 620 198 619.875 207.625 620 L 208.25 619.25 C 207.5 605 206.625 590.625 206.125 576.25 C 205.75 568.375 205.5 560.5 205.125 552.625 C 204.5 541 204.375 539.5 204.375 532.125 Z M 278 582.75 C 278.125 571.5 278.125 566.625 274.875 561.375 C 272.375 557.375 267.375 552.375 251.375 552.375 C 240.625 552.375 234 554.375 226.875 556.5 L 226.125 557.5 L 225.5 571.125 L 226.5 571.625 C 230.875 569.875 239 566.625 247.375 566.625 C 252 566.625 253.875 567.375 255.5 569 C 256.75 570.25 257.125 572.5 257.125 574.375 C 242.125 576.375 235.125 577.75 227.625 582.375 C 220.625 586.75 218.25 593.875 218.25 599.5 C 218.25 612.875 227.875 621.5 240.125 621.5 C 249.5 621.5 254.875 617 257.5 614.875 L 257.5 619.5 L 258.25 620.375 C 267.25 620 270 619.875 278.125 620 L 278.75 619.125 C 277.875 606.875 277.875 603.75 277.875 592 L 278 582.75 M 257.375 602.625 C 254.75 604.125 251.375 605.875 247.25 605.875 C 242.75 605.875 239 603.5 239 598.25 C 239 590 248.875 588.625 257.375 587.5 Z M 341.5 602 C 338.125 604 334.875 606 328.5 606 C 314.375 606 311.5 594.25 311.5 586.75 C 311.5 577.625 315.5 567.125 327.625 567.125 C 333.125 567.125 336.125 569.125 339.875 571.625 L 341.125 571.25 C 341.625 564.625 341.75 562.875 342.75 556.25 L 342.125 555.5 C 336.625 553.75 331.875 552.25 324.625 552.25 C 295.25 552.25 289.5 574.5 289.5 587.25 C 289.5 601.625 297 621.125 325.125 621.125 C 331.75 621.125 336 619.875 341.25 618.375 L 342 617.625 L 342.5 602.625 Z M 424.25 531.375 C 413.875 531.75 411.75 531.875 400.75 531.75 L 399.75 532.5 C 386.25 554.375 383.5 558.75 374.875 570.5 L 375.5 532.125 L 374.875 531.375 C 365 531.75 363.25 531.875 353 531.75 L 352.375 532.5 C 353.125 546.125 353.625 555.375 353.625 587.5 C 353.625 600.625 353.375 607.375 353.125 619.625 L 353.75 620.375 C 363.5 620 366.5 620 375.375 620 L 376 619.25 C 375.25 601.75 375.125 597.25 375 575.5 C 378 580 378.75 581 383.5 588.625 C 394.375 606.125 397 611.125 401.75 619.875 L 402.625 620.5 L 428 619.625 L 428.5 618.25 C 417 603.875 403.625 582.75 396.125 569.75 C 411.5 547.875 415 543.375 424.625 532.625 Z M 488.75 601.5 C 484 604 478.375 606.875 469.25 606.875 C 461.75 606.875 456.625 604.5 453.625 600 C 451.75 597.375 451.375 594.875 450.875 592.375 L 491.25 591.625 L 492 590.75 C 491.875 584.625 491.75 578.375 490 572.125 C 485.625 557.375 476 554.375 471.75 553.375 C 468.625 552.5 465.75 552.25 462.875 552.25 C 443.25 552.25 430.25 565.125 430.25 586.75 C 430.25 592.625 431.25 598.75 433.25 603.125 C 440.5 620 457.5 621.5 466.5 621.5 C 476.875 621.5 481.375 619.625 488 617 L 488.75 616 L 489.625 601.875 L 488.75 601.5 M 450.875 579.125 C 451.25 575.25 452.125 570 456.875 567 C 458.375 566 460.125 565.625 461.875 565.625 C 466 565.625 468.5 567.75 469.875 570 C 471.625 572.75 471.75 575.75 471.75 578.625 Z M 539.625 573.625 L 543.125 553.25 L 542.375 552.375 C 541.5 552.375 540.625 552.25 539.75 552.25 C 534.625 552.25 528.875 555.125 524.875 564.375 L 525.25 552.875 L 524.25 551.875 C 515 553.875 512.625 554.25 503.5 555.625 L 502.75 556.375 C 503.5 565.75 503.875 571.375 503.875 588.75 C 503.875 599 503.75 609.25 503.5 619.625 L 504.25 620.375 C 513.5 620 515.5 619.875 525.5 620 L 526.125 619.125 C 525.625 609 524.875 594.875 524.875 586.25 C 524.875 580.625 524.875 572.375 533.375 572.375 C 535.5 572.375 536.75 573.125 538.5 574.125 Z M 586.5 573.625 L 590 553.25 L 589.25 552.375 C 588.375 552.375 587.5 552.25 586.625 552.25 C 581.5 552.25 575.75 555.125 571.75 564.375 L 572.125 552.875 L 571.125 551.875 C 561.875 553.875 559.5 554.25 550.375 555.625 L 549.625 556.375 C 550.375 565.75 550.75 571.375 550.75 588.75 C 550.75 599 550.625 609.25 550.375 619.625 L 551.125 620.375 C 560.375 620 562.375 619.875 572.375 620 L 573 619.125 C 572.5 609 571.75 594.875 571.75 586.25 C 571.75 580.625 571.75 572.375 580.25 572.375 C 582.375 572.375 583.625 573.125 585.375 574.125 Z M 619.875 619.125 C 619.25 609.5 618.75 602.125 618.75 584.875 C 618.75 574.25 619 563.5 619.125 552.875 L 618.25 551.875 L 596.75 555.625 L 596 556.375 C 597 565.875 597.375 570.25 597.375 588 C 597.375 601.625 597 609.25 596.625 619.5 L 597.375 620.375 C 606.375 620 608.875 619.875 619 620 L 619.875 619.125 M 617.875 539.875 L 618.25 522.875 L 617.5 522.125 L 597.125 524.625 L 596.375 525.5 C 596.625 530 596.75 532.625 596.75 535.625 C 596.75 538 596.75 540.5 596.625 542.875 L 597.5 543.625 C 606 542.125 608.375 541.875 617.25 540.75 Z M 682.625 602 C 679.25 604 676 606 669.625 606 C 655.5 606 652.625 594.25 652.625 586.75 C 652.625 577.625 656.625 567.125 668.75 567.125 C 674.25 567.125 677.25 569.125 681 571.625 L 682.25 571.25 C 682.75 564.625 682.875 562.875 683.875 556.25 L 683.25 555.5 C 677.75 553.75 673 552.25 665.75 552.25 C 636.375 552.25 630.625 574.5 630.625 587.25 C 630.625 601.625 638.125 621.125 666.25 621.125 C 672.875 621.125 677.125 619.875 682.375 618.375 L 683.125 617.625 L 683.625 602.625 Z M 754.875 619.125 C 754.375 608.875 754.25 605.375 754 592.375 L 754 583 C 753.875 571.125 753.75 564.25 750.125 559 C 746.5 553.875 741.25 552.25 735.75 552.25 C 726.625 552.25 719.5 556.625 714.5 559.625 L 714.875 521.125 L 714.125 520.25 L 692.75 523.625 L 692.125 524.375 C 693.25 536.5 693.5 541 693.75 557.125 C 694 567.25 694.125 577.375 694.125 587.5 C 694.125 599.875 693.875 607.25 693.625 619.5 L 694.25 620.375 C 703.5 619.875 705.375 619.875 715.5 619.875 L 716.25 619.125 C 715.375 600.375 715.25 594.75 715.125 572.625 C 717.5 571 720.5 568.875 724.75 568.875 C 731.625 568.875 732.125 576 732.625 581 C 732.875 584.875 733 602.625 733 607.25 C 733 611.375 732.875 615.375 732.875 619.5 L 733.5 620.375 C 742.5 619.875 744.5 619.875 754.125 619.875 Z M 824.625 601.5 C 819.875 604 814.25 606.875 805.125 606.875 C 797.625 606.875 792.5 604.5 789.5 600 C 787.625 597.375 787.25 594.875 786.75 592.375 L 827.125 591.625 L 827.875 590.75 C 827.75 584.625 827.625 578.375 825.875 572.125 C 821.5 557.375 811.875 554.375 807.625 553.375 C 804.5 552.5 801.625 552.25 798.75 552.25 C 779.125 552.25 766.125 565.125 766.125 586.75 C 766.125 592.625 767.125 598.75 769.125 603.125 C 776.375 620 793.375 621.5 802.375 621.5 C 812.75 621.5 817.25 619.625 823.875 617 L 824.625 616 L 825.5 601.875 L 824.625 601.5 M 786.75 579.125 C 787.125 575.25 788 570 792.75 567 C 794.25 566 796 565.625 797.75 565.625 C 801.875 565.625 804.375 567.75 805.75 570 C 807.5 572.75 807.625 575.75 807.625 578.625 Z M 875.5 573.625 L 879 553.25 L 878.25 552.375 C 877.375 552.375 876.5 552.25 875.625 552.25 C 870.5 552.25 864.75 555.125 860.75 564.375 L 861.125 552.875 L 860.125 551.875 C 850.875 553.875 848.5 554.25 839.375 555.625 L 838.625 556.375 C 839.375 565.75 839.75 571.375 839.75 588.75 C 839.75 599 839.625 609.25 839.375 619.625 L 840.125 620.375 C 849.375 620 851.375 619.875 861.375 620 L 862 619.125 C 861.5 609 860.75 594.875 860.75 586.25 C 860.75 580.625 860.75 572.375 869.25 572.375 C 871.375 572.375 872.625 573.125 874.375 574.125 Z M 878.75 620 "/>
<path fill-rule="nonzero" fill="rgb(34.901961%, 14.901961%, 14.901961%)" fill-opacity="1" d="M 232.875 716.25 C 222.375 711.875 216.875 709.625 216.875 704 C 216.875 700.125 220.5 695.25 228.75 695.25 C 238.25 695.25 243.875 699.125 248.5 702.25 L 249.625 701.75 L 250.625 685.375 L 250 684.5 C 244.625 682.25 239 679.875 226.875 679.875 C 203.375 679.875 195.25 693.125 195.25 706.5 C 195.25 721.625 207 727.125 214 730.5 L 218.125 732.375 C 226.75 736 233.375 739.125 233.375 745.75 C 233.375 750.5 229.25 756.125 218.375 756.125 C 207 756.125 200.625 751.125 197 748.25 L 195.75 748.625 L 194.875 766.25 L 195.625 767.25 C 197 767.75 198.375 768.375 199.75 768.75 C 202.625 769.75 210 771.875 219.375 771.875 C 223.125 771.875 232.625 771.5 240.125 768 C 250.625 762.875 255.125 753.375 255.125 742.75 C 255.125 735.625 252.375 728 245.75 722.875 C 242.375 720.375 239.125 718.875 236.125 717.5 Z M 302 755.625 C 299.875 756.25 298.375 756.75 296.25 756.75 C 289.875 756.75 289.375 752.75 289.125 750.875 C 288.75 747.625 288.75 740.75 288.875 735.75 L 289.125 718.125 L 300.375 718.625 L 301.125 717.875 L 302.375 704.5 L 301.625 703.75 L 289.125 703.75 L 289.5 682.75 L 288.625 682 C 280.125 684.5 277.875 685.125 269 687.375 L 268.5 688.25 L 268.625 703.875 L 261.875 703.625 L 261.125 704.25 L 260 717.625 L 260.75 718.375 L 268.625 718.125 L 268.25 738 C 268.125 741.125 268 744.25 268 747.5 C 268 759 268.25 771.375 287.75 771.375 C 292.625 771.375 296.5 770.625 300.875 769.875 L 301.75 769 L 303 756.125 Z M 366.875 732.75 C 367 721.5 367 716.625 363.75 711.375 C 361.25 707.375 356.25 702.375 340.25 702.375 C 329.5 702.375 322.875 704.375 315.75 706.5 L 315 707.5 L 314.375 721.125 L 315.375 721.625 C 319.75 719.875 327.875 716.625 336.25 716.625 C 340.875 716.625 342.75 717.375 344.375 719 C 345.625 720.25 346 722.5 346 724.375 C 331 726.375 324 727.75 316.5 732.375 C 309.5 736.75 307.125 743.875 307.125 749.5 C 307.125 762.875 316.75 771.5 329 771.5 C 338.375 771.5 343.75 767 346.375 764.875 L 346.375 769.5 L 347.125 770.375 C 356.125 770 358.875 769.875 367 770 L 367.625 769.125 C 366.75 756.875 366.75 753.75 366.75 742 L 366.875 732.75 M 346.25 752.625 C 343.625 754.125 340.25 755.875 336.125 755.875 C 331.625 755.875 327.875 753.5 327.875 748.25 C 327.875 740 337.75 738.625 346.25 737.5 Z M 416.5 755.625 C 414.375 756.25 412.875 756.75 410.75 756.75 C 404.375 756.75 403.875 752.75 403.625 750.875 C 403.25 747.625 403.25 740.75 403.375 735.75 L 403.625 718.125 L 414.875 718.625 L 415.625 717.875 L 416.875 704.5 L 416.125 703.75 L 403.625 703.75 L 404 682.75 L 403.125 682 C 394.625 684.5 392.375 685.125 383.5 687.375 L 383 688.25 L 383.125 703.875 L 376.375 703.625 L 375.625 704.25 L 374.5 717.625 L 375.25 718.375 L 383.125 718.125 L 382.75 738 C 382.625 741.125 382.5 744.25 382.5 747.5 C 382.5 759 382.75 771.375 402.25 771.375 C 407.125 771.375 411 770.625 415.375 769.875 L 416.25 769 L 417.5 756.125 Z M 481.25 751.5 C 476.5 754 470.875 756.875 461.75 756.875 C 454.25 756.875 449.125 754.5 446.125 750 C 444.25 747.375 443.875 744.875 443.375 742.375 L 483.75 741.625 L 484.5 740.75 C 484.375 734.625 484.25 728.375 482.5 722.125 C 478.125 707.375 468.5 704.375 464.25 703.375 C 461.125 702.5 458.25 702.25 455.375 702.25 C 435.75 702.25 422.75 715.125 422.75 736.75 C 422.75 742.625 423.75 748.75 425.75 753.125 C 433 770 450 771.5 459 771.5 C 469.375 771.5 473.875 769.625 480.5 767 L 481.25 766 L 482.125 751.875 L 481.25 751.5 M 443.375 729.125 C 443.75 725.25 444.625 720 449.375 717 C 450.875 716 452.625 715.625 454.375 715.625 C 458.5 715.625 461 717.75 462.375 720 C 464.125 722.75 464.25 725.75 464.25 728.625 Z M 549.25 681.5 L 533.375 681.75 L 532.625 682.5 C 533.125 698.75 533.5 709.625 533.5 724 C 533.5 739.25 533.125 754.375 532.75 769.625 L 533.5 770.375 C 542.75 770 544.75 769.875 554.75 770 L 555.375 769.25 C 554.875 755.625 554.875 752.5 554.875 739.75 C 568.875 739.875 583.875 739.875 592.875 728.875 C 596.375 724.625 599.375 717.5 599.375 708.75 C 599.375 703.375 598.125 691.5 587.75 685.625 C 580.25 681.25 569.625 681.25 560.25 681.25 L 549.25 681.5 M 554.875 696.625 C 557.625 696.5 560.25 696.5 563 696.5 C 574 696.75 577 702.375 577 709.625 C 577 711.375 577 718.625 570.375 722.25 C 567 724.125 562.375 724.375 554.875 724.375 Z M 663.625 732.75 C 663.75 721.5 663.75 716.625 660.5 711.375 C 658 707.375 653 702.375 637 702.375 C 626.25 702.375 619.625 704.375 612.5 706.5 L 611.75 707.5 L 611.125 721.125 L 612.125 721.625 C 616.5 719.875 624.625 716.625 633 716.625 C 637.625 716.625 639.5 717.375 641.125 719 C 642.375 720.25 642.75 722.5 642.75 724.375 C 627.75 726.375 620.75 727.75 613.25 732.375 C 606.25 736.75 603.875 743.875 603.875 749.5 C 603.875 762.875 613.5 771.5 625.75 771.5 C 635.125 771.5 640.5 767 643.125 764.875 L 643.125 769.5 L 643.875 770.375 C 652.875 770 655.625 769.875 663.75 770 L 664.375 769.125 C 663.5 756.875 663.5 753.75 663.5 742 L 663.625 732.75 M 643 752.625 C 640.375 754.125 637 755.875 632.875 755.875 C 628.375 755.875 624.625 753.5 624.625 748.25 C 624.625 740 634.5 738.625 643 737.5 Z M 714.375 723.625 L 717.875 703.25 L 717.125 702.375 C 716.25 702.375 715.375 702.25 714.5 702.25 C 709.375 702.25 703.625 705.125 699.625 714.375 L 700 702.875 L 699 701.875 C 689.75 703.875 687.375 704.25 678.25 705.625 L 677.5 706.375 C 678.25 715.75 678.625 721.375 678.625 738.75 C 678.625 749 678.5 759.25 678.25 769.625 L 679 770.375 C 688.25 770 690.25 769.875 700.25 770 L 700.875 769.125 C 700.375 759 699.625 744.875 699.625 736.25 C 699.625 730.625 699.625 722.375 708.125 722.375 C 710.25 722.375 711.5 723.125 713.25 724.125 Z M 789.375 768.375 C 777.625 748.5 776.375 746.25 766.875 729.125 C 775.5 717.375 776.375 716.125 785.25 704.75 L 784.625 703.5 L 764.25 703.75 L 763 704.625 C 753.25 721.5 752 723.5 746.25 732.125 L 746.25 718.25 C 746.375 694.875 746.5 689.875 747.125 671 L 746.125 670.25 L 724.375 673.5 L 723.625 674.375 C 724.5 686.5 724.875 692.375 725.125 708.75 C 725.375 729 725.375 749.25 725.25 769.5 L 726.125 770.375 C 734.5 770 736.875 770 746.375 770 L 747.125 769.125 L 746.375 748 L 746.25 733.625 C 757.125 753.625 758.5 756.375 764.875 769.625 L 766 770.375 L 788.5 769.5 Z M 787.875 770 "/>
</svg>
