<svg xmlns="http://www.w3.org/2000/svg" width="612" height="817" viewBox="0 0 612 817">
  <defs>
    <style>
      .cls-1 {
        fill: #592626;
        fill-rule: evenodd;
      }
    </style>
  </defs>
  <path id="Westport-Union_Landing_State_Beach" data-name="Westport-Union Landing State Beach" class="cls-1" d="M94.743,345.632C97.415,332.488,98.57,327,106.226,295.3l-0.362-.433c-5.127.217-6.138,0.217-10.977,0.217l-0.433.433c-1.156,7.439-1.517,9.966-3.105,18.272l-2.094,11.049-2.311,12.422c-1.083-8.089-1.444-10.544-2.889-18.922L81.96,306.2l-1.805-11.121-0.433-.506-14.3.361-0.433.433L62.1,311.978l-2.817,14.805-1.805,9.966c-0.867-6.283-1.156-8.377-2.672-17.116l-1.878-10.544-2.383-14.3-0.433-.361c-6.211.433-7.222,0.433-12.494,0.577l-0.361.506c5.272,23.9,6.428,29.393,10.327,50.337l0.433,0.433c7.294-.288,9.244-0.288,16.322-0.216l0.506-.434,1.517-8.955,2.383-13.216,2.6-15.455c0.867,7.077,1.083,8.883,2.383,16.683l1.805,11.266,1.517,9.894,0.361,0.433c6.933-.216,9.316-0.288,16.972-0.216ZM140.6,335.377a22.064,22.064,0,0,1-11.266,3.106c-4.333,0-7.294-1.372-9.027-3.972a10.215,10.215,0,0,1-1.589-4.406l23.327-.433,0.433-.506a42.331,42.331,0,0,0-1.155-10.76c-2.528-8.522-8.089-10.256-10.545-10.833a18.474,18.474,0,0,0-5.127-.65c-11.339,0-18.85,7.438-18.85,19.932a24.028,24.028,0,0,0,1.734,9.461c4.189,9.75,14.01,10.616,19.21,10.616,5.994,0,8.594-1.083,12.422-2.6l0.433-.578,0.506-8.161ZM118.722,322.45c0.216-2.239.722-5.272,3.466-7a5.542,5.542,0,0,1,7.511,1.733,8.824,8.824,0,0,1,1.083,4.983Zm45.572-1.3c-2.456-.867-4.406-1.661-4.406-3.683,0-.867.578-3.25,5.056-3.25a15.672,15.672,0,0,1,9.027,3.033l0.65-.217,0.722-7.872-0.361-.433a36.772,36.772,0,0,0-11.049-1.805c-3.539,0-10.617.289-14.372,5.7a10.856,10.856,0,0,0-1.95,6.355c0,7.728,5.994,10.039,9.389,11.339l2.744,1.011c1.95,0.65,5.128,1.733,5.128,4.333,0,1.806-1.661,3.756-5.706,3.756a18.06,18.06,0,0,1-7.655-2.023,15.934,15.934,0,0,1-2.889-2.022l-0.65.289c-0.144,3.756-.217,4.55-0.5,8.161l0.361,0.65c3.538,1.3,6.572,2.455,11.844,2.455,5.488,0,16.321-1.011,17.621-11.338a12.113,12.113,0,0,0,.073-1.589c0-7.944-5.561-10.038-9.533-11.555Zm39.65,16.611a10.848,10.848,0,0,1-3.322.649c-3.684,0-3.973-2.311-4.117-3.394a82.472,82.472,0,0,1-.144-8.738l0.144-10.183,6.5,0.288,0.433-.433,0.722-7.727-0.433-.434h-7.222l0.217-12.133-0.506-.433c-4.911,1.444-6.211,1.806-11.338,3.1l-0.289.506,0.072,9.027-3.9-.144-0.433.361-0.65,7.728,0.433,0.433,4.55-.144-0.217,11.483c-0.072,1.805-.144,3.611-0.144,5.488,0,6.644.144,13.794,11.411,13.794a42.013,42.013,0,0,0,7.583-.866l0.5-.506,0.722-7.439Zm17.333-30.333-0.578-.65a101.649,101.649,0,0,1-11.988,2.095l-0.433.5c0.794,8.594,1.083,11.916,1.083,32.716,0,8.594-.144,13.5-0.361,21.666l0.433,0.361c5.128-.217,6.644-0.289,12.133-0.217l0.433-.361-0.5-17.188c5.272-.073,12.566-0.145,18.416-5.633,4.622-4.334,6.139-10.472,6.139-15.383,0-11.483-7.006-18.416-15.094-18.416a15.892,15.892,0,0,0-9.822,3.394Zm0.145,9.822a7.426,7.426,0,0,1,4.333-1.444,6.469,6.469,0,0,1,5.055,2.166c2.239,2.456,2.6,6.139,2.6,8.594,0,4.189-1.372,7.945-4.261,9.967-2.311,1.589-5.2,1.733-7.727,1.805V317.25Zm68.249,9.605c0-2.816,0-14.516-10.111-18.488A25.95,25.95,0,0,0,270.749,307c-12.566,0-19.644,6.716-19.644,20,0,4.622.723,9.316,3.4,13.216,1.878,2.817,5.416,6.716,15.744,6.716C285.554,346.932,289.671,337.688,289.671,326.855Zm-12.494-.072c0,5.922-.8,12.494-6.789,12.494a5.843,5.843,0,0,1-4.044-1.661c-1.228-1.228-2.6-3.683-2.6-10.688,0-2.095,0-6.717,1.444-9.245a5.981,5.981,0,0,1,5.272-3.249,6.071,6.071,0,0,1,4.622,2.238C276.816,318.767,277.177,322.883,277.177,326.783Zm40.228-7.511,2.022-11.772-0.433-.5c-0.506,0-1.012-.072-1.517-0.072-2.961,0-6.283,1.661-8.594,7l0.216-6.644-0.577-.578c-5.345,1.155-6.717,1.372-11.989,2.167l-0.433.433c0.433,5.416.65,8.666,0.65,18.705,0,5.922-.072,11.844-0.217,17.838l0.434,0.433c5.344-.216,6.5-0.288,12.277-0.216l0.361-.506c-0.289-5.85-.722-14.01-0.722-18.994,0-3.249,0-8.016,4.911-8.016a5.406,5.406,0,0,1,2.961,1.011Zm27.95,18.489a10.848,10.848,0,0,1-3.322.649c-3.684,0-3.972-2.311-4.117-3.394a82.472,82.472,0,0,1-.144-8.738l0.144-10.183,6.5,0.288,0.433-.433,0.722-7.727-0.433-.434h-7.222l0.217-12.133-0.506-.433c-4.911,1.444-6.211,1.806-11.338,3.1l-0.289.506,0.072,9.027-3.9-.144-0.433.361-0.65,7.728,0.433,0.433,4.55-.144-0.217,11.483c-0.072,1.805-.144,3.611-0.144,5.488,0,6.644.144,13.794,11.411,13.794a42.013,42.013,0,0,0,7.583-.866l0.5-.506,0.723-7.439Zm25.278-16.755c-3.467.072-6.284,0.144-10.545,0.144-3.466,0-6.933-.072-10.327-0.072l-0.506.433-0.433,8.3,0.361,0.434c4.045-.073,6.428-0.145,10.255-0.145,3.539,0,7.078.072,10.617,0.072l0.433-.433,0.506-8.377Zm48.316-26.144c-5.273.289-6.717,0.289-10.833,0.217l-0.434.433c0.361,8.883.722,17.766,0.722,26.649,0,7.583-.216,11.05-2.166,13.361a8.342,8.342,0,0,1-6.356,2.6,8.526,8.526,0,0,1-7.366-3.828c-1.083-1.878-1.517-4.4-1.661-8.955-0.144-3.828-.144-7.656-0.144-11.483,0-5.85.072-11.411,0.216-18.561l-0.361-.433c-6.139.289-7.8,0.289-12.711,0.217l-0.433.433c0.289,10.327.289,12.349,0.361,23.616v5.344c0.217,7.8.65,11.7,3.178,15.166,2.744,3.9,8.305,7.511,17.983,7.511,2.6,0,10.544,0,15.888-5.633,3.828-4.044,4.117-8.233,4.261-17.405v-7.366l0.217-21.45Zm43.911,50.7c-0.361-6.355-.361-8.377-0.506-15.455v-5.633c-0.072-6.933-.144-10.255-1.95-13.216-2.238-3.756-6.355-4.333-8.955-4.333-4.405,0-8.233,2.311-11.555,4.261l0.144-3.972-0.722-.506c-5.561,1.155-6.789,1.372-12.2,2.094l-0.433.506a201.077,201.077,0,0,1,1.011,22.605c0,4.622-.072,9.244-0.145,13.866l0.434,0.433c5.2-.216,6.283-0.216,12.06-0.216l0.434-.434c-0.434-11.122-.506-13.938-0.578-26.866,1.517-1.011,3.25-2.238,5.561-2.238,3.972,0,4.333,4.261,4.55,6.861,0.144,2.383.216,12.277,0.216,15.021,0,2.456-.072,4.983-0.072,7.439l0.433,0.433c4.767-.144,6-0.216,11.772-0.216Zm21.306,0c-0.361-5.561-.65-9.822-0.65-19.788,0-6.139.145-12.35,0.217-18.488l-0.506-.578-12.422,2.167-0.433.433a136.894,136.894,0,0,1,.795,18.272c0,7.871-.217,12.277-0.434,18.2l0.434,0.5c5.2-.216,6.644-0.288,12.494-0.216Zm-1.155-45.787,0.216-9.822-0.433-.433-11.772,1.444-0.433.506c0.144,2.6.216,4.116,0.216,5.849,0,1.373,0,2.817-.072,4.189l0.506,0.433c4.911-.866,6.283-1.011,11.41-1.661Zm45.932,27.082c0-2.816,0-14.516-10.111-18.488A25.947,25.947,0,0,0,510.021,307c-12.566,0-19.643,6.716-19.643,20,0,4.622.722,9.316,3.394,13.216,1.878,2.817,5.417,6.716,15.744,6.716C524.827,346.932,528.943,337.688,528.943,326.855Zm-12.494-.072c0,5.922-.794,12.494-6.789,12.494a5.845,5.845,0,0,1-4.044-1.661c-1.228-1.228-2.6-3.683-2.6-10.688,0-2.095,0-6.717,1.445-9.245a5.98,5.98,0,0,1,5.272-3.249,6.074,6.074,0,0,1,4.622,2.238C516.088,318.767,516.449,322.883,516.449,326.783Zm54.744,18.777c-0.361-6.355-.361-8.377-0.5-15.455v-5.633c-0.073-6.933-.145-10.255-1.95-13.216-2.239-3.756-6.356-4.333-8.956-4.333-4.405,0-8.233,2.311-11.555,4.261l0.145-3.972-0.723-.506c-5.56,1.155-6.788,1.372-12.205,2.094l-0.433.506a200.833,200.833,0,0,1,1.011,22.605c0,4.622-.072,9.244-0.144,13.866l0.433,0.433c5.2-.216,6.283-0.216,12.061-0.216l0.433-.434c-0.433-11.122-.506-13.938-0.578-26.866,1.517-1.011,3.25-2.238,5.561-2.238,3.972,0,4.333,4.261,4.55,6.861,0.144,2.383.217,12.277,0.217,15.021,0,2.456-.073,4.983-0.073,7.439l0.434,0.433c4.766-.144,5.994-0.216,11.772-0.216ZM95.915,428.744c-8.477.467-15.244,0.622-17.577,0.622H76.782c-0.155-20.765-.078-26.054.544-44.642l-0.467-.467c-6.689.311-8.477,0.311-13.844,0.234l-0.467.466c0.311,6.222.389,8.089,0.389,17.344,0,12.288-.078,24.577-0.078,36.865l0.389,0.466c15.244-.233,18.044-0.233,32.043-0.233l0.389-.467,0.622-9.8ZM137.6,416.222c0.077-7,.077-10.032-1.945-13.3-1.555-2.489-4.666-5.6-14.621-5.6a47.335,47.335,0,0,0-15.244,2.567l-0.467.622-0.388,8.477,0.622,0.312c2.722-1.089,7.777-3.111,12.988-3.111,2.878,0,4.044.466,5.055,1.477a4.9,4.9,0,0,1,1.011,3.345c-9.332,1.244-13.688,2.1-18.354,4.977a12.435,12.435,0,0,0-5.833,10.655c0,8.322,5.988,13.688,13.61,13.688a16.079,16.079,0,0,0,10.811-4.122v2.878l0.466,0.544c5.6-.233,7.311-0.311,12.366-0.233l0.389-.544c-0.544-7.622-.544-9.567-0.544-16.877Zm-12.833,12.367a12.6,12.6,0,0,1-6.3,2.022c-2.8,0-5.133-1.478-5.133-4.745,0-5.133,6.144-5.988,11.433-6.688v9.411Zm60.044,10.266c-0.389-6.844-.389-9.022-0.545-16.644v-6.066c-0.078-7.467-.155-11.044-2.1-14.233-2.411-4.044-6.844-4.666-9.644-4.666-4.744,0-8.866,2.488-12.444,4.588l0.156-4.277-0.778-.545c-5.988,1.245-7.31,1.478-13.144,2.256l-0.466.544a216.367,216.367,0,0,1,1.089,24.343c0,4.978-.078,9.955-0.156,14.933l0.467,0.467c5.6-.234,6.766-0.234,12.988-0.234l0.467-.466c-0.467-11.977-.545-15.011-0.623-28.932,1.634-1.089,3.5-2.411,5.989-2.411,4.278,0,4.667,4.588,4.9,7.388,0.155,2.567.233,13.222,0.233,16.177,0,2.645-.078,5.367-0.078,8.011l0.467,0.467c5.133-.156,6.455-0.234,12.677-0.234Zm46.977,0.077c-0.311-7-.544-11.666-0.544-21.854,0-20.532.311-29.01,0.622-39.276l-0.544-.467-12.833,2.023-0.389.466c0.467,7.311.545,9.255,0.467,18.122-5.833-.156-13.144-0.312-19.055,4.355-5.444,4.2-7.7,10.655-7.7,18.666,0,6.066,1.633,12.132,6.221,15.943a16.4,16.4,0,0,0,10.189,3.422,14.25,14.25,0,0,0,10.266-4.2l-0.156,3.033,0.389,0.466c5.367-.233,6.844-0.233,12.678-0.233Zm-13.221-31.654c0.078,10.344,0,12.367-.234,21.777a9.833,9.833,0,0,1-5.288,1.867c-7.544,0-7.544-9.644-7.544-11.2,0-5.988,1.711-12.677,10.421-12.677A17.485,17.485,0,0,1,218.571,407.278Zm36.167,31.577c-0.389-5.989-.7-10.578-0.7-21.31,0-6.611.156-13.3,0.233-19.911l-0.544-.622-13.377,2.333-0.467.467c0.622,5.911.856,8.633,0.856,19.677,0,8.477-.234,13.222-0.467,19.6l0.467,0.544c5.6-.233,7.155-0.311,13.455-0.233Zm-1.244-49.309,0.233-10.577-0.467-.467-12.677,1.556-0.467.544c0.156,2.8.234,4.433,0.234,6.3,0,1.477,0,3.033-.078,4.511l0.544,0.466c5.289-.933,6.767-1.089,12.289-1.789Zm47.987,49.309c-0.389-6.844-.389-9.022-0.544-16.644v-6.066c-0.078-7.467-.156-11.044-2.1-14.233-2.411-4.044-6.844-4.666-9.644-4.666-4.744,0-8.866,2.488-12.444,4.588l0.156-4.277-0.778-.545c-5.989,1.245-7.311,1.478-13.144,2.256l-0.467.544a216.123,216.123,0,0,1,1.089,24.343c0,4.978-.077,9.955-0.155,14.933l0.466,0.467c5.6-.234,6.767-0.234,12.989-0.234l0.466-.466c-0.466-11.977-.544-15.011-0.622-28.932,1.633-1.089,3.5-2.411,5.989-2.411,4.277,0,4.666,4.588,4.9,7.388,0.155,2.567.233,13.222,0.233,16.177,0,2.645-.078,5.367-0.078,8.011l0.467,0.467c5.133-.156,6.455-0.234,12.677-0.234Zm23.179-12.6a21.813,21.813,0,0,0,8.711-1.011c4.044-1.4,9.955-4.744,9.955-12.288a10.172,10.172,0,0,0-2.1-6.766l5.366,0.311,0.467-.389,0.545-7.778-0.467-.388c-5.989.233-7.622,0.311-12.522,0.233l-3.577-.078c-5.522-.155-12.911-0.311-17.966,3.889a13.047,13.047,0,0,0-4.978,10.5,12.593,12.593,0,0,0,2.256,7.544,13.354,13.354,0,0,0,5.211,4.356c-2.178,4.2-3.345,6.3-5.133,9.488v0.7l3.266,2.333c-2.333,1.789-5.989,4.745-5.989,9.8a10.966,10.966,0,0,0,4.822,8.788c4.356,3.111,10.267,3.267,13.3,3.267,14.232,0,20.765-7.155,20.765-14.7,0-9.8-8.555-11.667-13.61-12.833l-1.867-.311a32.687,32.687,0,0,1-7.7-1.945Zm6.378-14c-0.078,6.3-3.889,6.844-4.978,6.844a5.031,5.031,0,0,1-4.666-3.266,10.719,10.719,0,0,1-.7-4.045c0-3.888,2.333-6.377,5.211-6.377C329.482,405.412,331.115,408.834,331.038,412.256Zm-6.611,29.01c6.922,1.789,7,1.789,7.933,2.566a3.429,3.429,0,0,1,1.555,3.033c0,2.334-1.944,4.745-7.077,4.745-5.755,0-7.7-3.267-7.7-5.989a7.388,7.388,0,0,1,2.256-5.133Zm73.266-35.31c-6.533-2.722-9.955-4.122-9.955-7.622,0-2.411,2.255-5.444,7.389-5.444,5.91,0,9.41,2.411,12.288,4.356l0.7-.312,0.622-10.188-0.389-.544a31.855,31.855,0,0,0-14.388-2.878c-14.622,0-19.677,8.244-19.677,16.566,0,9.411,7.311,12.833,11.666,14.933l2.567,1.166c5.366,2.256,9.488,4.2,9.488,8.322,0,2.955-2.566,6.455-9.333,6.455a19.839,19.839,0,0,1-13.3-4.9l-0.778.234-0.544,10.966,0.466,0.622c0.856,0.311,1.711.7,2.567,0.933a38.709,38.709,0,0,0,12.211,1.945c2.333,0,8.244-.234,12.91-2.411,6.533-3.189,9.333-9.1,9.333-15.711a15.415,15.415,0,0,0-5.833-12.366,31.556,31.556,0,0,0-5.989-3.344Zm43.011,24.5a11.669,11.669,0,0,1-3.577.7c-3.967,0-4.278-2.489-4.433-3.655a88.88,88.88,0,0,1-.156-9.411l0.156-10.966,7,0.311,0.467-.467,0.778-8.321-0.467-.467h-7.777l0.233-13.066-0.545-.467c-5.288,1.556-6.688,1.945-12.21,3.344l-0.311.545,0.078,9.722-4.2-.156-0.467.389-0.7,8.322,0.467,0.466,4.9-.155-0.234,12.366c-0.077,1.944-.155,3.889-0.155,5.911,0,7.155.155,14.855,12.288,14.855a45.168,45.168,0,0,0,8.166-.934l0.545-.544,0.777-8.011Zm40.366-14.233c0.078-7,.078-10.032-1.944-13.3-1.556-2.489-4.666-5.6-14.622-5.6a47.333,47.333,0,0,0-15.243,2.567l-0.467.622-0.389,8.477,0.622,0.312c2.723-1.089,7.778-3.111,12.989-3.111,2.877,0,4.044.466,5.055,1.477a4.9,4.9,0,0,1,1.011,3.345c-9.333,1.244-13.688,2.1-18.355,4.977a12.437,12.437,0,0,0-5.833,10.655c0,8.322,5.989,13.688,13.611,13.688a16.074,16.074,0,0,0,10.81-4.122v2.878l0.467,0.544c5.6-.233,7.311-0.311,12.366-0.233l0.389-.544c-0.544-7.622-.544-9.567-0.544-16.877Zm-12.832,12.367a12.6,12.6,0,0,1-6.3,2.022c-2.8,0-5.133-1.478-5.133-4.745,0-5.133,6.144-5.988,11.433-6.688v9.411Zm43.711,1.866a11.675,11.675,0,0,1-3.578.7c-3.966,0-4.277-2.489-4.433-3.655a89.421,89.421,0,0,1-.156-9.411l0.156-10.966,7,0.311,0.466-.467,0.778-8.321-0.467-.467h-7.777l0.233-13.066-0.544-.467c-5.289,1.556-6.689,1.945-12.211,3.344l-0.311.545,0.078,9.722-4.2-.156-0.466.389-0.7,8.322,0.466,0.466,4.9-.155-0.233,12.366c-0.078,1.944-.156,3.889-0.156,5.911,0,7.155.156,14.855,12.288,14.855a45.169,45.169,0,0,0,8.167-.934l0.544-.544,0.778-8.011Zm38.732-2.566a23.772,23.772,0,0,1-12.132,3.344c-4.667,0-7.855-1.478-9.722-4.278a11,11,0,0,1-1.711-4.744l25.121-.467,0.467-.544a45.6,45.6,0,0,0-1.245-11.588c-2.722-9.178-8.71-11.044-11.355-11.666a19.9,19.9,0,0,0-5.522-.7c-12.21,0-20.3,8.01-20.3,21.465A25.875,25.875,0,0,0,516.15,428.9c4.511,10.5,15.088,11.432,20.688,11.432,6.455,0,9.255-1.166,13.377-2.8l0.466-.623,0.545-8.788Zm-23.565-13.922c0.233-2.411.778-5.677,3.733-7.544a5.969,5.969,0,0,1,8.089,1.867,9.507,9.507,0,0,1,1.166,5.366ZM214.682,532.732c7.233,0.156,16.177.312,22.01-3.733a15.456,15.456,0,0,0,6.533-13.144c0-4.977-2.1-9.566-6.533-11.743a17.164,17.164,0,0,0-4.822-1.4c2.645-1.089,5.756-2.489,7.778-6.611a12.623,12.623,0,0,0,1.244-5.444,13.055,13.055,0,0,0-3.111-8.711c-3.266-3.5-8.322-4.433-15.943-4.433-2.645,0-7.389.078-10.033,0.155l-10.889.156-0.466.467c0.311,7.466.389,10.344,0.389,21.076,0,11.044-.078,22.01-0.234,33.054l0.545,0.311h13.532Zm-0.544-23.643c5.911-.155,9.333-0.155,11.588,1.167a7.169,7.169,0,0,1,3.111,6.377,6.686,6.686,0,0,1-4.822,6.689c-2.333.778-6.533,0.778-9.877,0.7V509.089Zm0-22.865c1.633,0,3.811-.078,5.133-0.078,4.2,0,8.011,1.478,8.011,6.533a6.869,6.869,0,0,1-3.967,6.3c-1.944.855-6.066,0.855-9.177,0.855v-13.61Zm70.855,35a23.779,23.779,0,0,1-12.133,3.344c-4.667,0-7.855-1.478-9.722-4.277a11,11,0,0,1-1.711-4.745l25.121-.466,0.467-.545a45.6,45.6,0,0,0-1.245-11.588c-2.722-9.177-8.71-11.044-11.355-11.666a19.9,19.9,0,0,0-5.522-.7c-12.21,0-20.3,8.011-20.3,21.466a25.891,25.891,0,0,0,1.867,10.188c4.511,10.5,15.088,11.433,20.688,11.433,6.455,0,9.255-1.167,13.377-2.8l0.467-.622,0.544-8.789ZM261.427,507.3c0.233-2.411.778-5.677,3.733-7.544a5.971,5.971,0,0,1,8.089,1.867,9.5,9.5,0,0,1,1.166,5.366Zm67.354,2.256c0.078-7,.078-10.033-1.944-13.3-1.555-2.488-4.666-5.6-14.621-5.6a47.337,47.337,0,0,0-15.244,2.566l-0.467.622-0.389,8.478,0.623,0.311c2.722-1.089,7.777-3.111,12.988-3.111,2.877,0,4.044.467,5.055,1.478a4.9,4.9,0,0,1,1.011,3.344c-9.333,1.244-13.688,2.1-18.354,4.977a12.439,12.439,0,0,0-5.834,10.656c0,8.321,5.989,13.688,13.611,13.688a16.079,16.079,0,0,0,10.81-4.122v2.877l0.467,0.545c5.6-.234,7.311-0.311,12.366-0.234l0.389-.544c-0.544-7.622-.544-9.566-0.544-16.877Zm-12.832,12.366a12.6,12.6,0,0,1-6.3,2.022c-2.8,0-5.133-1.478-5.133-4.744,0-5.133,6.144-5.989,11.433-6.689v9.411Zm52.344-.389a13.856,13.856,0,0,1-8.089,2.489c-8.788,0-10.577-7.311-10.577-11.977,0-5.678,2.489-12.211,10.033-12.211,3.422,0,5.288,1.244,7.622,2.8l0.777-.233c0.312-4.122.389-5.211,1.011-9.333l-0.388-.467a32.334,32.334,0,0,0-10.889-2.022c-18.277,0-21.854,13.844-21.854,21.777,0,8.944,4.666,21.076,22.165,21.076a32.552,32.552,0,0,0,10.033-1.711l0.467-.466,0.311-9.333Zm44.955,10.655c-0.311-6.377-.389-8.555-0.544-16.644v-5.833c-0.078-7.388-.156-11.666-2.411-14.932-2.256-3.189-5.522-4.2-8.944-4.2-5.678,0-10.111,2.722-13.222,4.589l0.233-23.955-0.466-.544-13.3,2.1-0.389.466c0.7,7.544.856,10.344,1.011,20.377q0.234,9.45.234,18.9c0,7.7-.156,12.288-0.311,19.91l0.389,0.545c5.755-.311,6.921-0.311,13.221-0.311l0.467-.467c-0.545-11.666-.622-15.166-0.7-28.932a10.271,10.271,0,0,1,5.988-2.333c4.278,0,4.589,4.433,4.9,7.544,0.156,2.411.234,13.455,0.234,16.332,0,2.567-.078,5.056-0.078,7.622l0.389,0.545c5.6-.311,6.844-0.311,12.832-0.311Z"/>
</svg>
