<?xml version="1.0" encoding="UTF-8"?>
<svg xmlns="http://www.w3.org/2000/svg" xmlns:xlink="http://www.w3.org/1999/xlink" width="975" height="1300" viewBox="0 0 975 1300">
<path fill-rule="nonzero" fill="rgb(34.901961%, 14.901961%, 14.901961%)" fill-opacity="1" d="M 258.1875 491.25 C 247.6875 486.875 242.1875 484.625 242.1875 479 C 242.1875 475.125 245.8125 470.25 254.0625 470.25 C 263.5625 470.25 269.1875 474.125 273.8125 477.25 L 274.9375 476.75 L 275.9375 460.375 L 275.3125 459.5 C 269.9375 457.25 264.3125 454.875 252.1875 454.875 C 228.6875 454.875 220.5625 468.125 220.5625 481.5 C 220.5625 496.625 232.3125 502.125 239.3125 505.5 L 243.4375 507.375 C 252.0625 511 258.6875 514.125 258.6875 520.75 C 258.6875 525.5 254.5625 531.125 243.6875 531.125 C 232.3125 531.125 225.9375 526.125 222.3125 523.25 L 221.0625 523.625 L 220.1875 541.25 L 220.9375 542.25 C 222.3125 542.75 223.6875 543.375 225.0625 543.75 C 227.9375 544.75 235.3125 546.875 244.6875 546.875 C 248.4375 546.875 257.9375 546.5 265.4375 543 C 275.9375 537.875 280.4375 528.375 280.4375 517.75 C 280.4375 510.625 277.6875 503 271.0625 497.875 C 267.6875 495.375 264.4375 493.875 261.4375 492.5 Z M 341.1875 527 C 337.8125 529 334.5625 531 328.1875 531 C 314.0625 531 311.1875 519.25 311.1875 511.75 C 311.1875 502.625 315.1875 492.125 327.3125 492.125 C 332.8125 492.125 335.8125 494.125 339.5625 496.625 L 340.8125 496.25 C 341.3125 489.625 341.4375 487.875 342.4375 481.25 L 341.8125 480.5 C 336.3125 478.75 331.5625 477.25 324.3125 477.25 C 294.9375 477.25 289.1875 499.5 289.1875 512.25 C 289.1875 526.625 296.6875 546.125 324.8125 546.125 C 331.4375 546.125 335.6875 544.875 340.9375 543.375 L 341.6875 542.625 L 342.1875 527.625 Z M 413.4375 544.125 C 412.9375 533.875 412.8125 530.375 412.5625 517.375 L 412.5625 508 C 412.4375 496.125 412.3125 489.25 408.6875 484 C 405.0625 478.875 399.8125 477.25 394.3125 477.25 C 385.1875 477.25 378.0625 481.625 373.0625 484.625 L 373.4375 446.125 L 372.6875 445.25 L 351.3125 448.625 L 350.6875 449.375 C 351.8125 461.5 352.0625 466 352.3125 482.125 C 352.5625 492.25 352.6875 502.375 352.6875 512.5 C 352.6875 524.875 352.4375 532.25 352.1875 544.5 L 352.8125 545.375 C 362.0625 544.875 363.9375 544.875 374.0625 544.875 L 374.8125 544.125 C 373.9375 525.375 373.8125 519.75 373.6875 497.625 C 376.0625 496 379.0625 493.875 383.3125 493.875 C 390.1875 493.875 390.6875 501 391.1875 506 C 391.4375 509.875 391.5625 527.625 391.5625 532.25 C 391.5625 536.375 391.4375 540.375 391.4375 544.5 L 392.0625 545.375 C 401.0625 544.875 403.0625 544.875 412.6875 544.875 Z M 491.3125 511.75 C 491.3125 506.875 491.3125 486.625 473.8125 479.75 C 468.3125 477.625 461.8125 477.375 458.5625 477.375 C 436.8125 477.375 424.5625 489 424.5625 512 C 424.5625 520 425.8125 528.125 430.4375 534.875 C 433.6875 539.75 439.8125 546.5 457.6875 546.5 C 484.1875 546.5 491.3125 530.5 491.3125 511.75 M 469.6875 511.625 C 469.6875 521.875 468.3125 533.25 457.9375 533.25 C 454.6875 533.25 452.4375 531.75 450.9375 530.375 C 448.8125 528.25 446.4375 524 446.4375 511.875 C 446.4375 508.25 446.4375 500.25 448.9375 495.875 C 450.8125 492.5 454.0625 490.25 458.0625 490.25 C 461.5625 490.25 464.4375 492.125 466.0625 494.125 C 469.0625 497.75 469.6875 504.875 469.6875 511.625 Z M 566.8125 511.75 C 566.8125 506.875 566.8125 486.625 549.3125 479.75 C 543.8125 477.625 537.3125 477.375 534.0625 477.375 C 512.3125 477.375 500.0625 489 500.0625 512 C 500.0625 520 501.3125 528.125 505.9375 534.875 C 509.1875 539.75 515.3125 546.5 533.1875 546.5 C 559.6875 546.5 566.8125 530.5 566.8125 511.75 M 545.1875 511.625 C 545.1875 521.875 543.8125 533.25 533.4375 533.25 C 530.1875 533.25 527.9375 531.75 526.4375 530.375 C 524.3125 528.25 521.9375 524 521.9375 511.875 C 521.9375 508.25 521.9375 500.25 524.4375 495.875 C 526.3125 492.5 529.5625 490.25 533.5625 490.25 C 537.0625 490.25 539.9375 492.125 541.5625 494.125 C 544.5625 497.75 545.1875 504.875 545.1875 511.625 Z M 639.9375 544.125 C 639.3125 533.125 639.3125 529.625 639.0625 517.375 L 639.0625 507.625 C 638.9375 495.625 638.8125 489.875 635.6875 484.75 C 631.8125 478.25 624.6875 477.25 620.1875 477.25 C 612.5625 477.25 605.9375 481.25 600.1875 484.625 L 600.4375 477.75 L 599.1875 476.875 C 589.5625 478.875 587.4375 479.25 578.0625 480.5 L 577.3125 481.375 C 578.3125 492.25 579.0625 500.125 579.0625 520.5 C 579.0625 528.5 578.9375 536.5 578.8125 544.5 L 579.5625 545.25 C 588.5625 544.875 590.4375 544.875 600.4375 544.875 L 601.1875 544.125 C 600.4375 524.875 600.3125 520 600.1875 497.625 C 602.8125 495.875 605.8125 493.75 609.8125 493.75 C 616.6875 493.75 617.3125 501.125 617.6875 505.625 C 617.9375 509.75 618.0625 526.875 618.0625 531.625 C 618.0625 535.875 617.9375 540.25 617.9375 544.5 L 618.6875 545.25 C 626.9375 545 629.0625 544.875 639.0625 544.875 Z M 709.6875 526.5 C 704.9375 529 699.3125 531.875 690.1875 531.875 C 682.6875 531.875 677.5625 529.5 674.5625 525 C 672.6875 522.375 672.3125 519.875 671.8125 517.375 L 712.1875 516.625 L 712.9375 515.75 C 712.8125 509.625 712.6875 503.375 710.9375 497.125 C 706.5625 482.375 696.9375 479.375 692.6875 478.375 C 689.5625 477.5 686.6875 477.25 683.8125 477.25 C 664.1875 477.25 651.1875 490.125 651.1875 511.75 C 651.1875 517.625 652.1875 523.75 654.1875 528.125 C 661.4375 545 678.4375 546.5 687.4375 546.5 C 697.8125 546.5 702.3125 544.625 708.9375 542 L 709.6875 541 L 710.5625 526.875 L 709.6875 526.5 M 671.8125 504.125 C 672.1875 500.25 673.0625 495 677.8125 492 C 679.3125 491 681.0625 490.625 682.8125 490.625 C 686.9375 490.625 689.4375 492.75 690.8125 495 C 692.5625 497.75 692.6875 500.75 692.6875 503.625 Z M 760.5625 498.625 L 764.0625 478.25 L 763.3125 477.375 C 762.4375 477.375 761.5625 477.25 760.6875 477.25 C 755.5625 477.25 749.8125 480.125 745.8125 489.375 L 746.1875 477.875 L 745.1875 476.875 C 735.9375 478.875 733.5625 479.25 724.4375 480.625 L 723.6875 481.375 C 724.4375 490.75 724.8125 496.375 724.8125 513.75 C 724.8125 524 724.6875 534.25 724.4375 544.625 L 725.1875 545.375 C 734.4375 545 736.4375 544.875 746.4375 545 L 747.0625 544.125 C 746.5625 534 745.8125 519.875 745.8125 511.25 C 745.8125 505.625 745.8125 497.375 754.3125 497.375 C 756.4375 497.375 757.6875 498.125 759.4375 499.125 Z M 763.8125 545 "/>
<path fill-rule="nonzero" fill="rgb(34.901961%, 14.901961%, 14.901961%)" fill-opacity="1" d="M 237.1875 670.25 C 237.1875 664 237.3125 657.75 237.4375 651.375 L 236.8125 650.625 L 215.5625 651 L 214.9375 651.75 C 216.0625 664 216.1875 667 215.9375 678.375 C 212.5625 679.125 210.0625 679.75 206.5625 679.75 C 187.1875 679.75 183.6875 661.25 183.6875 651.875 C 183.6875 632.125 194.3125 621.375 210.0625 621.375 C 219.5625 621.375 225.1875 625.125 231.0625 629 L 232.0625 628.625 C 232.6875 620.875 232.9375 618.875 233.9375 611.375 L 233.3125 610.625 C 228.0625 608.375 219.6875 604.875 206.6875 604.875 C 192.4375 604.875 176.8125 608.875 166.9375 625.625 C 162.4375 633.5 160.5625 643.625 160.5625 652 C 160.5625 663.75 163.6875 673.625 169.3125 680.875 C 176.6875 690.375 185.8125 693.375 190.6875 694.75 C 194.3125 695.75 199.6875 696.875 207.4375 696.875 C 220.3125 696.875 228.1875 694.25 236.9375 691.375 L 237.5625 690.375 C 237.4375 684.625 237.1875 678.875 237.1875 673.125 Z M 311.3125 628.125 L 290.9375 629.125 L 290.0625 629.875 C 290.9375 644 290.9375 664 290.9375 666 C 290.9375 669.625 290.9375 671.625 290.8125 676.625 C 287.4375 678.875 284.8125 680.75 281.4375 680.75 C 272.4375 680.75 272.4375 671.25 272.4375 663.875 C 272.4375 660.75 272.4375 657.5 272.5625 654.375 L 272.8125 629.125 L 271.9375 628.125 L 251.3125 629.125 L 250.4375 629.875 C 251.1875 640.375 251.3125 643.875 251.3125 656.5 L 251.3125 665.25 C 251.1875 678.875 251.8125 684.625 256.3125 689.875 C 260.4375 694.5 266.4375 696.5 272.6875 696.5 C 281.5625 696.5 286.6875 692.5 291.1875 689 L 291.0625 694.625 L 291.9375 695.375 C 301.0625 695 303.8125 695 311.9375 695 L 312.6875 694.25 C 312.0625 685.375 311.8125 680.625 311.8125 664.375 C 311.8125 652.625 311.9375 640.875 312.1875 629.125 Z M 348.8125 694.125 C 348.1875 679.75 347.5625 666.625 347.5625 627.125 C 347.5625 615.25 347.6875 609.625 348.1875 596.125 L 347.3125 595.25 L 325.9375 598.625 L 325.4375 599.375 C 326.6875 614.625 326.8125 618.75 327.0625 639 C 327.1875 646.375 327.1875 653.75 327.1875 661.125 C 327.1875 674.625 326.9375 682.125 326.4375 694.5 L 327.1875 695.375 C 335.5625 695 338.9375 694.875 348.0625 695 Z M 412.1875 677 C 408.8125 679 405.5625 681 399.1875 681 C 385.0625 681 382.1875 669.25 382.1875 661.75 C 382.1875 652.625 386.1875 642.125 398.3125 642.125 C 403.8125 642.125 406.8125 644.125 410.5625 646.625 L 411.8125 646.25 C 412.3125 639.625 412.4375 637.875 413.4375 631.25 L 412.8125 630.5 C 407.3125 628.75 402.5625 627.25 395.3125 627.25 C 365.9375 627.25 360.1875 649.5 360.1875 662.25 C 360.1875 676.625 367.6875 696.125 395.8125 696.125 C 402.4375 696.125 406.6875 694.875 411.9375 693.375 L 412.6875 692.625 L 413.1875 677.625 Z M 484.4375 694.125 C 483.9375 683.875 483.8125 680.375 483.5625 667.375 L 483.5625 658 C 483.4375 646.125 483.3125 639.25 479.6875 634 C 476.0625 628.875 470.8125 627.25 465.3125 627.25 C 456.1875 627.25 449.0625 631.625 444.0625 634.625 L 444.4375 596.125 L 443.6875 595.25 L 422.3125 598.625 L 421.6875 599.375 C 422.8125 611.5 423.0625 616 423.3125 632.125 C 423.5625 642.25 423.6875 652.375 423.6875 662.5 C 423.6875 674.875 423.4375 682.25 423.1875 694.5 L 423.8125 695.375 C 433.0625 694.875 434.9375 694.875 445.0625 694.875 L 445.8125 694.125 C 444.9375 675.375 444.8125 669.75 444.6875 647.625 C 447.0625 646 450.0625 643.875 454.3125 643.875 C 461.1875 643.875 461.6875 651 462.1875 656 C 462.4375 659.875 462.5625 677.625 462.5625 682.25 C 462.5625 686.375 462.4375 690.375 462.4375 694.5 L 463.0625 695.375 C 472.0625 694.875 474.0625 694.875 483.6875 694.875 Z M 571.3125 641.25 C 560.8125 636.875 555.3125 634.625 555.3125 629 C 555.3125 625.125 558.9375 620.25 567.1875 620.25 C 576.6875 620.25 582.3125 624.125 586.9375 627.25 L 588.0625 626.75 L 589.0625 610.375 L 588.4375 609.5 C 583.0625 607.25 577.4375 604.875 565.3125 604.875 C 541.8125 604.875 533.6875 618.125 533.6875 631.5 C 533.6875 646.625 545.4375 652.125 552.4375 655.5 L 556.5625 657.375 C 565.1875 661 571.8125 664.125 571.8125 670.75 C 571.8125 675.5 567.6875 681.125 556.8125 681.125 C 545.4375 681.125 539.0625 676.125 535.4375 673.25 L 534.1875 673.625 L 533.3125 691.25 L 534.0625 692.25 C 535.4375 692.75 536.8125 693.375 538.1875 693.75 C 541.0625 694.75 548.4375 696.875 557.8125 696.875 C 561.5625 696.875 571.0625 696.5 578.5625 693 C 589.0625 687.875 593.5625 678.375 593.5625 667.75 C 593.5625 660.625 590.8125 653 584.1875 647.875 C 580.8125 645.375 577.5625 643.875 574.5625 642.5 Z M 640.4375 680.625 C 638.3125 681.25 636.8125 681.75 634.6875 681.75 C 628.3125 681.75 627.8125 677.75 627.5625 675.875 C 627.1875 672.625 627.1875 665.75 627.3125 660.75 L 627.5625 643.125 L 638.8125 643.625 L 639.5625 642.875 L 640.8125 629.5 L 640.0625 628.75 L 627.5625 628.75 L 627.9375 607.75 L 627.0625 607 C 618.5625 609.5 616.3125 610.125 607.4375 612.375 L 606.9375 613.25 L 607.0625 628.875 L 600.3125 628.625 L 599.5625 629.25 L 598.4375 642.625 L 599.1875 643.375 L 607.0625 643.125 L 606.6875 663 C 606.5625 666.125 606.4375 669.25 606.4375 672.5 C 606.4375 684 606.6875 696.375 626.1875 696.375 C 631.0625 696.375 634.9375 695.625 639.3125 694.875 L 640.1875 694 L 641.4375 681.125 Z M 705.3125 657.75 C 705.4375 646.5 705.4375 641.625 702.1875 636.375 C 699.6875 632.375 694.6875 627.375 678.6875 627.375 C 667.9375 627.375 661.3125 629.375 654.1875 631.5 L 653.4375 632.5 L 652.8125 646.125 L 653.8125 646.625 C 658.1875 644.875 666.3125 641.625 674.6875 641.625 C 679.3125 641.625 681.1875 642.375 682.8125 644 C 684.0625 645.25 684.4375 647.5 684.4375 649.375 C 669.4375 651.375 662.4375 652.75 654.9375 657.375 C 647.9375 661.75 645.5625 668.875 645.5625 674.5 C 645.5625 687.875 655.1875 696.5 667.4375 696.5 C 676.8125 696.5 682.1875 692 684.8125 689.875 L 684.8125 694.5 L 685.5625 695.375 C 694.5625 695 697.3125 694.875 705.4375 695 L 706.0625 694.125 C 705.1875 681.875 705.1875 678.75 705.1875 667 L 705.3125 657.75 M 684.6875 677.625 C 682.0625 679.125 678.6875 680.875 674.5625 680.875 C 670.0625 680.875 666.3125 678.5 666.3125 673.25 C 666.3125 665 676.1875 663.625 684.6875 662.5 Z M 754.9375 680.625 C 752.8125 681.25 751.3125 681.75 749.1875 681.75 C 742.8125 681.75 742.3125 677.75 742.0625 675.875 C 741.6875 672.625 741.6875 665.75 741.8125 660.75 L 742.0625 643.125 L 753.3125 643.625 L 754.0625 642.875 L 755.3125 629.5 L 754.5625 628.75 L 742.0625 628.75 L 742.4375 607.75 L 741.5625 607 C 733.0625 609.5 730.8125 610.125 721.9375 612.375 L 721.4375 613.25 L 721.5625 628.875 L 714.8125 628.625 L 714.0625 629.25 L 712.9375 642.625 L 713.6875 643.375 L 721.5625 643.125 L 721.1875 663 C 721.0625 666.125 720.9375 669.25 720.9375 672.5 C 720.9375 684 721.1875 696.375 740.6875 696.375 C 745.5625 696.375 749.4375 695.625 753.8125 694.875 L 754.6875 694 L 755.9375 681.125 Z M 819.6875 676.5 C 814.9375 679 809.3125 681.875 800.1875 681.875 C 792.6875 681.875 787.5625 679.5 784.5625 675 C 782.6875 672.375 782.3125 669.875 781.8125 667.375 L 822.1875 666.625 L 822.9375 665.75 C 822.8125 659.625 822.6875 653.375 820.9375 647.125 C 816.5625 632.375 806.9375 629.375 802.6875 628.375 C 799.5625 627.5 796.6875 627.25 793.8125 627.25 C 774.1875 627.25 761.1875 640.125 761.1875 661.75 C 761.1875 667.625 762.1875 673.75 764.1875 678.125 C 771.4375 695 788.4375 696.5 797.4375 696.5 C 807.8125 696.5 812.3125 694.625 818.9375 692 L 819.6875 691 L 820.5625 676.875 L 819.6875 676.5 M 781.8125 654.125 C 782.1875 650.25 783.0625 645 787.8125 642 C 789.3125 641 791.0625 640.625 792.8125 640.625 C 796.9375 640.625 799.4375 642.75 800.8125 645 C 802.5625 647.75 802.6875 650.75 802.6875 653.625 Z M 826.9375 695 "/>
<path fill-rule="nonzero" fill="rgb(34.901961%, 14.901961%, 14.901961%)" fill-opacity="1" d="M 346.25 845 C 357.875 845.25 372.25 845.5 381.625 839 C 389.875 833.125 392.125 824.875 392.125 817.875 C 392.125 809.875 388.75 802.5 381.625 799 C 379.25 797.75 376.5 797.25 373.875 796.75 C 378.125 795 383.125 792.75 386.375 786.125 C 387.75 783.25 388.375 780.25 388.375 777.375 C 388.375 773.375 387.375 767.875 383.375 763.375 C 378.125 757.75 370 756.25 357.75 756.25 C 353.5 756.25 345.875 756.375 341.625 756.5 L 324.125 756.75 L 323.375 757.5 C 323.875 769.5 324 774.125 324 791.375 C 324 809.125 323.875 826.75 323.625 844.5 L 324.5 845 L 346.25 845 M 345.375 807 C 354.875 806.75 360.375 806.75 364 808.875 C 367.625 811.125 369 815.125 369 819.125 C 369 824.75 365.875 828.25 361.25 829.875 C 357.5 831.125 350.75 831.125 345.375 831 L 345.375 807 M 345.375 770.25 C 348 770.25 351.5 770.125 353.625 770.125 C 360.375 770.125 366.5 772.5 366.5 780.625 C 366.5 787.25 361.625 790 360.125 790.75 C 357 792.125 350.375 792.125 345.375 792.125 Z M 459.25 826.5 C 454.5 829 448.875 831.875 439.75 831.875 C 432.25 831.875 427.125 829.5 424.125 825 C 422.25 822.375 421.875 819.875 421.375 817.375 L 461.75 816.625 L 462.5 815.75 C 462.375 809.625 462.25 803.375 460.5 797.125 C 456.125 782.375 446.5 779.375 442.25 778.375 C 439.125 777.5 436.25 777.25 433.375 777.25 C 413.75 777.25 400.75 790.125 400.75 811.75 C 400.75 817.625 401.75 823.75 403.75 828.125 C 411 845 428 846.5 437 846.5 C 447.375 846.5 451.875 844.625 458.5 842 L 459.25 841 L 460.125 826.875 L 459.25 826.5 M 421.375 804.125 C 421.75 800.25 422.625 795 427.375 792 C 428.875 791 430.625 790.625 432.375 790.625 C 436.5 790.625 439 792.75 440.375 795 C 442.125 797.75 442.25 800.75 442.25 803.625 Z M 529.625 807.75 C 529.75 796.5 529.75 791.625 526.5 786.375 C 524 782.375 519 777.375 503 777.375 C 492.25 777.375 485.625 779.375 478.5 781.5 L 477.75 782.5 L 477.125 796.125 L 478.125 796.625 C 482.5 794.875 490.625 791.625 499 791.625 C 503.625 791.625 505.5 792.375 507.125 794 C 508.375 795.25 508.75 797.5 508.75 799.375 C 493.75 801.375 486.75 802.75 479.25 807.375 C 472.25 811.75 469.875 818.875 469.875 824.5 C 469.875 837.875 479.5 846.5 491.75 846.5 C 501.125 846.5 506.5 842 509.125 839.875 L 509.125 844.5 L 509.875 845.375 C 518.875 845 521.625 844.875 529.75 845 L 530.375 844.125 C 529.5 831.875 529.5 828.75 529.5 817 L 529.625 807.75 M 509 827.625 C 506.375 829.125 503 830.875 498.875 830.875 C 494.375 830.875 490.625 828.5 490.625 823.25 C 490.625 815 500.5 813.625 509 812.5 Z M 593.125 827 C 589.75 829 586.5 831 580.125 831 C 566 831 563.125 819.25 563.125 811.75 C 563.125 802.625 567.125 792.125 579.25 792.125 C 584.75 792.125 587.75 794.125 591.5 796.625 L 592.75 796.25 C 593.25 789.625 593.375 787.875 594.375 781.25 L 593.75 780.5 C 588.25 778.75 583.5 777.25 576.25 777.25 C 546.875 777.25 541.125 799.5 541.125 812.25 C 541.125 826.625 548.625 846.125 576.75 846.125 C 583.375 846.125 587.625 844.875 592.875 843.375 L 593.625 842.625 L 594.125 827.625 Z M 665.375 844.125 C 664.875 833.875 664.75 830.375 664.5 817.375 L 664.5 808 C 664.375 796.125 664.25 789.25 660.625 784 C 657 778.875 651.75 777.25 646.25 777.25 C 637.125 777.25 630 781.625 625 784.625 L 625.375 746.125 L 624.625 745.25 L 603.25 748.625 L 602.625 749.375 C 603.75 761.5 604 766 604.25 782.125 C 604.5 792.25 604.625 802.375 604.625 812.5 C 604.625 824.875 604.375 832.25 604.125 844.5 L 604.75 845.375 C 614 844.875 615.875 844.875 626 844.875 L 626.75 844.125 C 625.875 825.375 625.75 819.75 625.625 797.625 C 628 796 631 793.875 635.25 793.875 C 642.125 793.875 642.625 801 643.125 806 C 643.375 809.875 643.5 827.625 643.5 832.25 C 643.5 836.375 643.375 840.375 643.375 844.5 L 644 845.375 C 653 844.875 655 844.875 664.625 844.875 Z M 672.125 845 "/>
</svg>
