<?xml version="1.0" encoding="UTF-8"?>
<svg xmlns="http://www.w3.org/2000/svg" xmlns:xlink="http://www.w3.org/1999/xlink" width="975" height="1300" viewBox="0 0 975 1300">
<path fill-rule="nonzero" fill="rgb(34.901961%, 14.901961%, 14.901961%)" fill-opacity="1" d="M 112.875 566.25 C 102.375 561.875 96.875 559.625 96.875 554 C 96.875 550.125 100.5 545.25 108.75 545.25 C 118.25 545.25 123.875 549.125 128.5 552.25 L 129.625 551.75 L 130.625 535.375 L 130 534.5 C 124.625 532.25 119 529.875 106.875 529.875 C 83.375 529.875 75.25 543.125 75.25 556.5 C 75.25 571.625 87 577.125 94 580.5 L 98.125 582.375 C 106.75 586 113.375 589.125 113.375 595.75 C 113.375 600.5 109.25 606.125 98.375 606.125 C 87 606.125 80.625 601.125 77 598.25 L 75.75 598.625 L 74.875 616.25 L 75.625 617.25 C 77 617.75 78.375 618.375 79.75 618.75 C 82.625 619.75 90 621.875 99.375 621.875 C 103.125 621.875 112.625 621.5 120.125 618 C 130.625 612.875 135.125 603.375 135.125 592.75 C 135.125 585.625 132.375 578 125.75 572.875 C 122.375 570.375 119.125 568.875 116.125 567.5 Z M 210.625 586.75 C 210.625 581.875 210.625 561.625 193.125 554.75 C 187.625 552.625 181.125 552.375 177.875 552.375 C 156.125 552.375 143.875 564 143.875 587 C 143.875 595 145.125 603.125 149.75 609.875 C 153 614.75 159.125 621.5 177 621.5 C 203.5 621.5 210.625 605.5 210.625 586.75 M 189 586.625 C 189 596.875 187.625 608.25 177.25 608.25 C 174 608.25 171.75 606.75 170.25 605.375 C 168.125 603.25 165.75 599 165.75 586.875 C 165.75 583.25 165.75 575.25 168.25 570.875 C 170.125 567.5 173.375 565.25 177.375 565.25 C 180.875 565.25 183.75 567.125 185.375 569.125 C 188.375 572.75 189 579.875 189 586.625 Z M 283.75 619.125 C 283.125 608.125 283.125 604.625 282.875 592.375 L 282.875 582.625 C 282.75 570.625 282.625 564.875 279.5 559.75 C 275.625 553.25 268.5 552.25 264 552.25 C 256.375 552.25 249.75 556.25 244 559.625 L 244.25 552.75 L 243 551.875 C 233.375 553.875 231.25 554.25 221.875 555.5 L 221.125 556.375 C 222.125 567.25 222.875 575.125 222.875 595.5 C 222.875 603.5 222.75 611.5 222.625 619.5 L 223.375 620.25 C 232.375 619.875 234.25 619.875 244.25 619.875 L 245 619.125 C 244.25 599.875 244.125 595 244 572.625 C 246.625 570.875 249.625 568.75 253.625 568.75 C 260.5 568.75 261.125 576.125 261.5 580.625 C 261.75 584.75 261.875 601.875 261.875 606.625 C 261.875 610.875 261.75 615.25 261.75 619.5 L 262.5 620.25 C 270.75 620 272.875 619.875 282.875 619.875 Z M 361.625 586.75 C 361.625 581.875 361.625 561.625 344.125 554.75 C 338.625 552.625 332.125 552.375 328.875 552.375 C 307.125 552.375 294.875 564 294.875 587 C 294.875 595 296.125 603.125 300.75 609.875 C 304 614.75 310.125 621.5 328 621.5 C 354.5 621.5 361.625 605.5 361.625 586.75 M 340 586.625 C 340 596.875 338.625 608.25 328.25 608.25 C 325 608.25 322.75 606.75 321.25 605.375 C 319.125 603.25 316.75 599 316.75 586.875 C 316.75 583.25 316.75 575.25 319.25 570.875 C 321.125 567.5 324.375 565.25 328.375 565.25 C 331.875 565.25 334.75 567.125 336.375 569.125 C 339.375 572.75 340 579.875 340 586.625 Z M 471.125 619.125 C 470.5 607.5 470.375 604.25 470.375 590.125 L 470.375 580.75 C 470.5 572.375 470.625 564.625 467 559.375 C 462.125 552.25 453.5 552.25 451.5 552.25 C 441.25 552.25 434.375 556.875 429.375 560.375 C 427.625 557.5 424.5 552.25 414.5 552.25 C 406.25 552.25 400.875 556 395.125 560 L 395.125 553 L 394 551.875 C 384.25 553.75 381.5 554.25 372.75 555.5 L 372 556.375 C 373 566.375 373.75 573.25 373.75 598 C 373.75 605.125 373.625 612.375 373.625 619.5 L 374.25 620.25 C 382.25 620 385 619.875 395.375 619.875 L 396.125 619.125 C 395.25 599.875 395.125 594.125 395 572.375 C 397.625 570.5 400.5 568.875 403.625 568.875 C 411.375 568.875 411.625 577.75 411.625 588.5 C 411.625 606.625 411.5 609.375 411.25 619.5 L 412 620.375 C 421.5 619.875 424.125 619.875 432.75 619.875 L 433.5 619.125 C 432.75 607.25 432.625 603.75 432.5 588.625 L 432.5 584 L 432.375 571.375 C 434.5 570 437.25 568.25 441 568.25 C 448.125 568.25 449.25 575 449.25 585.75 C 449.25 588.125 449.125 590.5 449.125 592.875 C 449 597.125 448.875 615.75 448.75 619.5 L 449.5 620.25 C 458.875 619.875 461.625 619.875 470.375 619.875 Z M 541.125 582.75 C 541.25 571.5 541.25 566.625 538 561.375 C 535.5 557.375 530.5 552.375 514.5 552.375 C 503.75 552.375 497.125 554.375 490 556.5 L 489.25 557.5 L 488.625 571.125 L 489.625 571.625 C 494 569.875 502.125 566.625 510.5 566.625 C 515.125 566.625 517 567.375 518.625 569 C 519.875 570.25 520.25 572.5 520.25 574.375 C 505.25 576.375 498.25 577.75 490.75 582.375 C 483.75 586.75 481.375 593.875 481.375 599.5 C 481.375 612.875 491 621.5 503.25 621.5 C 512.625 621.5 518 617 520.625 614.875 L 520.625 619.5 L 521.375 620.375 C 530.375 620 533.125 619.875 541.25 620 L 541.875 619.125 C 541 606.875 541 603.75 541 592 L 541.125 582.75 M 520.5 602.625 C 517.875 604.125 514.5 605.875 510.375 605.875 C 505.875 605.875 502.125 603.5 502.125 598.25 C 502.125 590 512 588.625 520.5 587.5 Z M 657.125 597.625 C 654.25 599.875 647.875 604.625 637.5 604.625 C 623.25 604.625 613.25 594 613.25 576.25 C 613.25 565.5 617 546.625 637.375 546.625 C 646.75 546.625 651.875 550.25 655 552.625 L 656.125 552.375 L 657.25 535.125 L 656.75 534.5 C 652.25 532.75 644.625 529.875 633.625 529.875 C 601.25 529.875 590 554.875 590 576.75 C 590 600.75 604.625 621.875 635.125 621.875 C 645.625 621.875 652.5 619.125 656.5 617.5 L 657.125 616.75 L 658 598.125 Z M 731.375 586.75 C 731.375 581.875 731.375 561.625 713.875 554.75 C 708.375 552.625 701.875 552.375 698.625 552.375 C 676.875 552.375 664.625 564 664.625 587 C 664.625 595 665.875 603.125 670.5 609.875 C 673.75 614.75 679.875 621.5 697.75 621.5 C 724.25 621.5 731.375 605.5 731.375 586.75 M 709.75 586.625 C 709.75 596.875 708.375 608.25 698 608.25 C 694.75 608.25 692.5 606.75 691 605.375 C 688.875 603.25 686.5 599 686.5 586.875 C 686.5 583.25 686.5 575.25 689 570.875 C 690.875 567.5 694.125 565.25 698.125 565.25 C 701.625 565.25 704.5 567.125 706.125 569.125 C 709.125 572.75 709.75 579.875 709.75 586.625 Z M 798.875 582.75 C 799 571.5 799 566.625 795.75 561.375 C 793.25 557.375 788.25 552.375 772.25 552.375 C 761.5 552.375 754.875 554.375 747.75 556.5 L 747 557.5 L 746.375 571.125 L 747.375 571.625 C 751.75 569.875 759.875 566.625 768.25 566.625 C 772.875 566.625 774.75 567.375 776.375 569 C 777.625 570.25 778 572.5 778 574.375 C 763 576.375 756 577.75 748.5 582.375 C 741.5 586.75 739.125 593.875 739.125 599.5 C 739.125 612.875 748.75 621.5 761 621.5 C 770.375 621.5 775.75 617 778.375 614.875 L 778.375 619.5 L 779.125 620.375 C 788.125 620 790.875 619.875 799 620 L 799.625 619.125 C 798.75 606.875 798.75 603.75 798.75 592 L 798.875 582.75 M 778.25 602.625 C 775.625 604.125 772.25 605.875 768.125 605.875 C 763.625 605.875 759.875 603.5 759.875 598.25 C 759.875 590 769.75 588.625 778.25 587.5 Z M 839.75 576.875 C 835.5 575.375 832.125 574 832.125 570.5 C 832.125 569 833.125 564.875 840.875 564.875 C 848.5 564.875 853.375 568.125 856.5 570.125 L 857.625 569.75 L 858.875 556.125 L 858.25 555.375 C 852.375 553.75 847.25 552.25 839.125 552.25 C 833 552.25 820.75 552.75 814.25 562.125 C 812.625 564.375 810.875 568.125 810.875 573.125 C 810.875 586.5 821.25 590.5 827.125 592.75 L 831.875 594.5 C 835.25 595.625 840.75 597.5 840.75 602 C 840.75 605.125 837.875 608.5 830.875 608.5 C 827.375 608.5 822.25 607.375 817.625 605 C 815.5 603.875 814.5 603 812.625 601.5 L 811.5 602 C 811.25 608.5 811.125 609.875 810.625 616.125 L 811.25 617.25 C 817.375 619.5 822.625 621.5 831.75 621.5 C 841.25 621.5 860 619.75 862.25 601.875 C 862.375 600.875 862.375 600 862.375 599.125 C 862.375 585.375 852.75 581.75 845.875 579.125 Z M 908.375 605.625 C 906.25 606.25 904.75 606.75 902.625 606.75 C 896.25 606.75 895.75 602.75 895.5 600.875 C 895.125 597.625 895.125 590.75 895.25 585.75 L 895.5 568.125 L 906.75 568.625 L 907.5 567.875 L 908.75 554.5 L 908 553.75 L 895.5 553.75 L 895.875 532.75 L 895 532 C 886.5 534.5 884.25 535.125 875.375 537.375 L 874.875 538.25 L 875 553.875 L 868.25 553.625 L 867.5 554.25 L 866.375 567.625 L 867.125 568.375 L 875 568.125 L 874.625 588 C 874.5 591.125 874.375 594.25 874.375 597.5 C 874.375 609 874.625 621.375 894.125 621.375 C 899 621.375 902.875 620.625 907.25 619.875 L 908.125 619 L 909.375 606.125 Z M 910.125 620 "/>
<path fill-rule="nonzero" fill="rgb(34.901961%, 14.901961%, 14.901961%)" fill-opacity="1" d="M 232.875 716.25 C 222.375 711.875 216.875 709.625 216.875 704 C 216.875 700.125 220.5 695.25 228.75 695.25 C 238.25 695.25 243.875 699.125 248.5 702.25 L 249.625 701.75 L 250.625 685.375 L 250 684.5 C 244.625 682.25 239 679.875 226.875 679.875 C 203.375 679.875 195.25 693.125 195.25 706.5 C 195.25 721.625 207 727.125 214 730.5 L 218.125 732.375 C 226.75 736 233.375 739.125 233.375 745.75 C 233.375 750.5 229.25 756.125 218.375 756.125 C 207 756.125 200.625 751.125 197 748.25 L 195.75 748.625 L 194.875 766.25 L 195.625 767.25 C 197 767.75 198.375 768.375 199.75 768.75 C 202.625 769.75 210 771.875 219.375 771.875 C 223.125 771.875 232.625 771.5 240.125 768 C 250.625 762.875 255.125 753.375 255.125 742.75 C 255.125 735.625 252.375 728 245.75 722.875 C 242.375 720.375 239.125 718.875 236.125 717.5 Z M 302 755.625 C 299.875 756.25 298.375 756.75 296.25 756.75 C 289.875 756.75 289.375 752.75 289.125 750.875 C 288.75 747.625 288.75 740.75 288.875 735.75 L 289.125 718.125 L 300.375 718.625 L 301.125 717.875 L 302.375 704.5 L 301.625 703.75 L 289.125 703.75 L 289.5 682.75 L 288.625 682 C 280.125 684.5 277.875 685.125 269 687.375 L 268.5 688.25 L 268.625 703.875 L 261.875 703.625 L 261.125 704.25 L 260 717.625 L 260.75 718.375 L 268.625 718.125 L 268.25 738 C 268.125 741.125 268 744.25 268 747.5 C 268 759 268.25 771.375 287.75 771.375 C 292.625 771.375 296.5 770.625 300.875 769.875 L 301.75 769 L 303 756.125 Z M 366.875 732.75 C 367 721.5 367 716.625 363.75 711.375 C 361.25 707.375 356.25 702.375 340.25 702.375 C 329.5 702.375 322.875 704.375 315.75 706.5 L 315 707.5 L 314.375 721.125 L 315.375 721.625 C 319.75 719.875 327.875 716.625 336.25 716.625 C 340.875 716.625 342.75 717.375 344.375 719 C 345.625 720.25 346 722.5 346 724.375 C 331 726.375 324 727.75 316.5 732.375 C 309.5 736.75 307.125 743.875 307.125 749.5 C 307.125 762.875 316.75 771.5 329 771.5 C 338.375 771.5 343.75 767 346.375 764.875 L 346.375 769.5 L 347.125 770.375 C 356.125 770 358.875 769.875 367 770 L 367.625 769.125 C 366.75 756.875 366.75 753.75 366.75 742 L 366.875 732.75 M 346.25 752.625 C 343.625 754.125 340.25 755.875 336.125 755.875 C 331.625 755.875 327.875 753.5 327.875 748.25 C 327.875 740 337.75 738.625 346.25 737.5 Z M 416.5 755.625 C 414.375 756.25 412.875 756.75 410.75 756.75 C 404.375 756.75 403.875 752.75 403.625 750.875 C 403.25 747.625 403.25 740.75 403.375 735.75 L 403.625 718.125 L 414.875 718.625 L 415.625 717.875 L 416.875 704.5 L 416.125 703.75 L 403.625 703.75 L 404 682.75 L 403.125 682 C 394.625 684.5 392.375 685.125 383.5 687.375 L 383 688.25 L 383.125 703.875 L 376.375 703.625 L 375.625 704.25 L 374.5 717.625 L 375.25 718.375 L 383.125 718.125 L 382.75 738 C 382.625 741.125 382.5 744.25 382.5 747.5 C 382.5 759 382.75 771.375 402.25 771.375 C 407.125 771.375 411 770.625 415.375 769.875 L 416.25 769 L 417.5 756.125 Z M 481.25 751.5 C 476.5 754 470.875 756.875 461.75 756.875 C 454.25 756.875 449.125 754.5 446.125 750 C 444.25 747.375 443.875 744.875 443.375 742.375 L 483.75 741.625 L 484.5 740.75 C 484.375 734.625 484.25 728.375 482.5 722.125 C 478.125 707.375 468.5 704.375 464.25 703.375 C 461.125 702.5 458.25 702.25 455.375 702.25 C 435.75 702.25 422.75 715.125 422.75 736.75 C 422.75 742.625 423.75 748.75 425.75 753.125 C 433 770 450 771.5 459 771.5 C 469.375 771.5 473.875 769.625 480.5 767 L 481.25 766 L 482.125 751.875 L 481.25 751.5 M 443.375 729.125 C 443.75 725.25 444.625 720 449.375 717 C 450.875 716 452.625 715.625 454.375 715.625 C 458.5 715.625 461 717.75 462.375 720 C 464.125 722.75 464.25 725.75 464.25 728.625 Z M 549.25 681.5 L 533.375 681.75 L 532.625 682.5 C 533.125 698.75 533.5 709.625 533.5 724 C 533.5 739.25 533.125 754.375 532.75 769.625 L 533.5 770.375 C 542.75 770 544.75 769.875 554.75 770 L 555.375 769.25 C 554.875 755.625 554.875 752.5 554.875 739.75 C 568.875 739.875 583.875 739.875 592.875 728.875 C 596.375 724.625 599.375 717.5 599.375 708.75 C 599.375 703.375 598.125 691.5 587.75 685.625 C 580.25 681.25 569.625 681.25 560.25 681.25 L 549.25 681.5 M 554.875 696.625 C 557.625 696.5 560.25 696.5 563 696.5 C 574 696.75 577 702.375 577 709.625 C 577 711.375 577 718.625 570.375 722.25 C 567 724.125 562.375 724.375 554.875 724.375 Z M 663.625 732.75 C 663.75 721.5 663.75 716.625 660.5 711.375 C 658 707.375 653 702.375 637 702.375 C 626.25 702.375 619.625 704.375 612.5 706.5 L 611.75 707.5 L 611.125 721.125 L 612.125 721.625 C 616.5 719.875 624.625 716.625 633 716.625 C 637.625 716.625 639.5 717.375 641.125 719 C 642.375 720.25 642.75 722.5 642.75 724.375 C 627.75 726.375 620.75 727.75 613.25 732.375 C 606.25 736.75 603.875 743.875 603.875 749.5 C 603.875 762.875 613.5 771.5 625.75 771.5 C 635.125 771.5 640.5 767 643.125 764.875 L 643.125 769.5 L 643.875 770.375 C 652.875 770 655.625 769.875 663.75 770 L 664.375 769.125 C 663.5 756.875 663.5 753.75 663.5 742 L 663.625 732.75 M 643 752.625 C 640.375 754.125 637 755.875 632.875 755.875 C 628.375 755.875 624.625 753.5 624.625 748.25 C 624.625 740 634.5 738.625 643 737.5 Z M 714.375 723.625 L 717.875 703.25 L 717.125 702.375 C 716.25 702.375 715.375 702.25 714.5 702.25 C 709.375 702.25 703.625 705.125 699.625 714.375 L 700 702.875 L 699 701.875 C 689.75 703.875 687.375 704.25 678.25 705.625 L 677.5 706.375 C 678.25 715.75 678.625 721.375 678.625 738.75 C 678.625 749 678.5 759.25 678.25 769.625 L 679 770.375 C 688.25 770 690.25 769.875 700.25 770 L 700.875 769.125 C 700.375 759 699.625 744.875 699.625 736.25 C 699.625 730.625 699.625 722.375 708.125 722.375 C 710.25 722.375 711.5 723.125 713.25 724.125 Z M 789.375 768.375 C 777.625 748.5 776.375 746.25 766.875 729.125 C 775.5 717.375 776.375 716.125 785.25 704.75 L 784.625 703.5 L 764.25 703.75 L 763 704.625 C 753.25 721.5 752 723.5 746.25 732.125 L 746.25 718.25 C 746.375 694.875 746.5 689.875 747.125 671 L 746.125 670.25 L 724.375 673.5 L 723.625 674.375 C 724.5 686.5 724.875 692.375 725.125 708.75 C 725.375 729 725.375 749.25 725.25 769.5 L 726.125 770.375 C 734.5 770 736.875 770 746.375 770 L 747.125 769.125 L 746.375 748 L 746.25 733.625 C 757.125 753.625 758.5 756.375 764.875 769.625 L 766 770.375 L 788.5 769.5 Z M 787.875 770 "/>
</svg>
