<svg xmlns="http://www.w3.org/2000/svg" width="612" height="817" viewBox="0 0 612 817">
  <defs>
    <style>
      .cls-1 {
        fill: #592626;
        fill-rule: evenodd;
      }
    </style>
  </defs>
  <path id="McArthur-Burney_Falls_Memorial_State_Park" data-name="McArthur-Burney Falls Memorial State Park" class="cls-1" d="M92.9,297.8c-6.933.2-8.066,0.2-15.466,0.2l-0.4.4-3.067,10.8L71.3,318.866l-3.133,11.6-2.933-11.933L63.366,311l-3.333-12.8-0.333-.4c-7.133.2-8.333,0.2-15.8,0.2l-0.4.4c-0.667,19.933-.933,25.066-2.4,46.466l0.333,0.4c4.267-.2,5.533-0.267,9.4-0.2l0.4-.4,0.2-12.733L51.833,319,52.1,306.4l2.933,11.8,2.533,9.466,4.467,17.2,0.4,0.4c4.133-.2,5.267-0.267,9.933-0.2l0.4-.4,3.867-14.2,2.667-9.733,3.733-14v11.933l0.133,10.2v16l0.333,0.4c4.6-.2,6.4-0.267,11.533-0.2l0.333-.4c-0.4-7.6-.867-15.267-1.133-22.933-0.2-4.2-.333-8.4-0.533-12.6-0.333-6.2-.4-7-0.4-10.933Zm36.067,37.666a11.871,11.871,0,0,1-6.933,2.133c-7.533,0-9.067-6.266-9.067-10.266,0-4.867,2.134-10.467,8.6-10.467,2.934,0,4.534,1.067,6.534,2.4l0.666-.2c0.267-3.533.334-4.466,0.867-8l-0.333-.4a27.731,27.731,0,0,0-9.334-1.733c-15.666,0-18.733,11.867-18.733,18.666,0,7.667,4,18.067,19,18.067a27.924,27.924,0,0,0,8.6-1.467l0.4-.4,0.267-8Zm32.8-37.666c-6.4.2-7.733,0.2-14.866,0.2l-0.467.4c-3.533,11.333-5.666,18.066-15.466,46.2l0.266,0.467h10.4l0.467-.4,3.266-12.133h14.4l2.867,12.333,0.467,0.4c4.866-.2,6.2-0.267,11.6-0.2l0.334-.534c-8.067-28.532-9-31.666-12.8-46.332ZM147.7,324.466l3.333-11.266,2.333-7.8,2,8.666,2.467,10.4H147.7Zm50.866-4.133,1.867-10.867-0.4-.466c-0.467,0-.933-0.067-1.4-0.067-2.733,0-5.8,1.533-7.933,6.467l0.2-6.134-0.534-.533c-4.933,1.067-6.2,1.267-11.066,2l-0.4.4c0.4,5,.6,8,0.6,17.266,0,5.467-.067,10.934-0.2,16.467l0.4,0.4c4.933-.2,6-0.267,11.333-0.2l0.333-.467c-0.266-5.4-.666-12.933-0.666-17.533,0-3,0-7.4,4.533-7.4a4.985,4.985,0,0,1,2.733.934Zm25.8,17.066a9.985,9.985,0,0,1-3.066.6c-3.4,0-3.667-2.133-3.8-3.133a76.565,76.565,0,0,1-.134-8.067l0.134-9.4,6,0.266,0.4-.4,0.666-7.133-0.4-.4H217.5l0.2-11.2-0.467-.4C212.7,299.466,211.5,299.8,206.767,301l-0.267.466,0.067,8.334-3.6-.134-0.4.334-0.6,7.133,0.4,0.4,4.2-.133-0.2,10.6c-0.067,1.667-.134,3.334-0.134,5.067,0,6.133.134,12.733,10.533,12.733a38.744,38.744,0,0,0,7-.8l0.467-.467,0.667-6.866Zm37.6,7.2c-0.267-5.466-.333-7.333-0.467-14.266v-5c-0.066-6.333-.133-10-2.066-12.8-1.933-2.733-4.733-3.6-7.667-3.6-4.866,0-8.666,2.333-11.333,3.933l0.2-20.533-0.4-.466-11.4,1.8-0.333.4c0.6,6.466.733,8.866,0.867,17.466q0.2,8.1.2,16.2c0,6.6-.134,10.533-0.267,17.066l0.333,0.467C234.567,345,235.567,345,240.966,345l0.4-.4c-0.466-10-.533-13-0.6-24.8a8.8,8.8,0,0,1,5.134-2c3.666,0,3.933,3.8,4.2,6.466,0.133,2.067.2,11.533,0.2,14,0,2.2-.067,4.333-0.067,6.533l0.333,0.467c4.8-.267,5.867-0.267,11-0.267Zm39.6-35.2-10.866.533-0.467.4c0.467,7.533.467,18.2,0.467,19.266,0,1.934,0,3-.067,5.667-1.8,1.2-3.2,2.2-5,2.2-4.8,0-4.8-5.067-4.8-9,0-1.667,0-3.4.067-5.067l0.133-13.466-0.467-.533-11,.533-0.467.4c0.4,5.6.467,7.467,0.467,14.2V329.2c-0.067,7.267.266,10.334,2.666,13.134a11.42,11.42,0,0,0,8.733,3.533c4.734,0,7.467-2.134,9.867-4l-0.067,3,0.467,0.4c4.867-.2,6.333-0.2,10.666-0.2l0.4-.4c-0.333-4.733-.466-7.267-0.466-15.933q0-9.4.2-18.8ZM329.1,320.333l1.866-10.867-0.4-.466c-0.466,0-.933-0.067-1.4-0.067-2.733,0-5.8,1.533-7.933,6.467l0.2-6.134-0.533-.533c-4.933,1.067-6.2,1.267-11.067,2l-0.4.4c0.4,5,.6,8,0.6,17.266,0,5.467-.066,10.934-0.2,16.467l0.4,0.4c4.934-.2,6-0.267,11.333-0.2l0.334-.467c-0.267-5.4-.667-12.933-0.667-17.533,0-3,0-7.4,4.533-7.4a4.988,4.988,0,0,1,2.734.934Zm24.133,1.6c-3.2.066-5.8,0.133-9.733,0.133-3.2,0-6.4-.067-9.533-0.067l-0.467.4-0.4,7.667,0.333,0.4c3.734-.067,5.934-0.133,9.467-0.133,3.266,0,6.533.066,9.8,0.066l0.4-.4,0.466-7.733Zm19,23.133c6.2,0.133,13.867.266,18.866-3.2a13.251,13.251,0,0,0,5.6-11.267c0-4.266-1.8-8.2-5.6-10.066a14.726,14.726,0,0,0-4.133-1.2c2.267-.933,4.933-2.133,6.667-5.667A10.813,10.813,0,0,0,394.7,309a11.192,11.192,0,0,0-2.666-7.467c-2.8-3-7.133-3.8-13.667-3.8-2.266,0-6.333.067-8.6,0.134l-9.333.133-0.4.4c0.267,6.4.334,8.866,0.334,18.066,0,9.467-.067,18.867-0.2,28.333l0.466,0.267h11.6ZM371.766,324.8c5.067-.133,8-0.133,9.934,1a6.148,6.148,0,0,1,2.666,5.467A5.73,5.73,0,0,1,380.233,337c-2,.667-5.6.667-8.467,0.6V324.8Zm0-19.6c1.4,0,3.267-.067,4.4-0.067,3.6,0,6.867,1.267,6.867,5.6a5.889,5.889,0,0,1-3.4,5.4c-1.667.733-5.2,0.733-7.867,0.733V305.2Zm63.133,4.2-10.866.533-0.467.4c0.467,7.533.467,18.2,0.467,19.266,0,1.934,0,3-.067,5.667-1.8,1.2-3.2,2.2-5,2.2-4.8,0-4.8-5.067-4.8-9,0-1.667,0-3.4.067-5.067l0.133-13.466L413.9,309.4l-11,.533-0.467.4c0.4,5.6.467,7.467,0.467,14.2V329.2c-0.067,7.267.267,10.334,2.667,13.134a11.418,11.418,0,0,0,8.733,3.533c4.733,0,7.466-2.134,9.866-4l-0.066,3,0.466,0.4c4.867-.2,6.334-0.2,10.667-0.2l0.4-.4c-0.334-4.733-.467-7.267-0.467-15.933q0-9.4.2-18.8Zm27.534,10.933,1.867-10.867L463.9,309c-0.467,0-.934-0.067-1.4-0.067-2.734,0-5.8,1.533-7.934,6.467l0.2-6.134-0.533-.533c-4.933,1.067-6.2,1.267-11.066,2l-0.4.4c0.4,5,.6,8,0.6,17.266,0,5.467-.067,10.934-0.2,16.467l0.4,0.4c4.933-.2,6-0.267,11.333-0.2l0.333-.467c-0.267-5.4-.667-12.933-0.667-17.533,0-3,0-7.4,4.534-7.4a4.985,4.985,0,0,1,2.733.934Zm38.4,24.266c-0.334-5.866-.334-7.733-0.467-14.266v-5.2c-0.067-6.4-.133-9.467-1.8-12.2-2.066-3.467-5.866-4-8.266-4-4.067,0-7.6,2.133-10.667,3.933l0.133-3.666-0.666-.467c-5.133,1.067-6.267,1.267-11.267,1.933l-0.4.467A185.235,185.235,0,0,1,468.367,332c0,4.267-.067,8.534-0.134,12.8l0.4,0.4c4.8-.2,5.8-0.2,11.133-0.2l0.4-.4c-0.4-10.266-.466-12.866-0.533-24.8,1.4-.934,3-2.067,5.133-2.067,3.667,0,4,3.933,4.2,6.333,0.134,2.2.2,11.333,0.2,13.867,0,2.266-.066,4.6-0.066,6.866l0.4,0.4c4.4-.133,5.533-0.2,10.866-0.2Zm37.2-9.4a20.366,20.366,0,0,1-10.4,2.867c-4,0-6.733-1.267-8.333-3.667a9.439,9.439,0,0,1-1.467-4.066l21.533-.4,0.4-.467a39.065,39.065,0,0,0-1.067-9.933c-2.333-7.867-7.466-9.467-9.733-10a17.058,17.058,0,0,0-4.733-.6c-10.466,0-17.4,6.867-17.4,18.4a22.2,22.2,0,0,0,1.6,8.733c3.867,9,12.933,9.8,17.733,9.8a25.746,25.746,0,0,0,11.467-2.4l0.4-.533L538.5,335.4Zm-20.2-11.933c0.2-2.066.667-4.866,3.2-6.466a5.115,5.115,0,0,1,6.933,1.6,8.136,8.136,0,0,1,1,4.6ZM575.7,309.533l-9.267.2-0.533.467c-1.134,4.6-1.4,5.6-3,10.8l-1.734,5.733-1.466,5L558.433,327l-1.933-7.066L553.833,309.8l-0.533-.4c-5.2.4-6.333,0.466-11.8,0.6l-0.333.466c2.4,6.334,8.6,23.067,12.733,35.866-2.733,6.934-3.267,8.134-6.267,14.734l0.334,0.533c1.666-.067,3.533-0.133,5.266-0.133,1.667,0,3.4.066,5.067,0.066l0.466-.4c3.667-14.4,5.467-20,14.267-43.2,1-2.667,2-5.267,2.933-7.867ZM73.321,416l0.544-.466,0.622-9.1-0.389-.467-17.732.623V393.6l19.055,0.234,0.467-.545,0.856-9.644-0.467-.389c-12.833.234-16.955,0.234-33.754,0.156l-0.467.467c0.467,7.621.778,13.766,0.778,27.532,0,8.944-.156,17.888-0.311,26.832l0.389,0.388c5.677-.233,7-0.233,13.844-0.233l0.389-.467c-0.544-8.944-.622-11.666-0.856-21.932H73.321Zm42.389-.778c0.078-7,.078-10.032-1.944-13.3-1.556-2.489-4.667-5.6-14.622-5.6A47.336,47.336,0,0,0,83.9,398.89l-0.467.622-0.389,8.477,0.622,0.312c2.722-1.089,7.777-3.111,12.988-3.111,2.878,0,4.044.466,5.055,1.477a4.9,4.9,0,0,1,1.011,3.345c-9.333,1.244-13.688,2.1-18.355,4.977a12.436,12.436,0,0,0-5.833,10.655c0,8.322,5.989,13.688,13.611,13.688a16.075,16.075,0,0,0,10.81-4.122v2.878l0.467,0.544c5.6-.233,7.311-0.311,12.366-0.233l0.389-.544c-0.545-7.622-.545-9.566-0.545-16.877Zm-12.832,12.367a12.6,12.6,0,0,1-6.3,2.022c-2.8,0-5.133-1.478-5.133-4.745,0-5.133,6.144-5.988,11.433-6.688v9.411ZM138.5,437.855c-0.389-8.944-.778-17.111-0.778-41.687,0-7.389.078-10.889,0.389-19.288l-0.544-.545-13.3,2.1-0.311.467c0.778,9.488.856,12.055,1.011,24.654,0.078,4.589.078,9.178,0.078,13.766,0,8.4-.155,13.066-0.466,20.766l0.466,0.544c5.211-.233,7.311-0.311,12.988-0.233Zm22.711,0c-0.389-8.944-.778-17.111-0.778-41.687,0-7.389.078-10.889,0.389-19.288l-0.544-.545-13.3,2.1-0.312.467c0.778,9.488.856,12.055,1.012,24.654,0.077,4.589.077,9.178,0.077,13.766,0,8.4-.155,13.066-0.466,20.766l0.466,0.544c5.211-.233,7.311-0.311,12.989-0.233Zm25.356-26.288c-2.645-.933-4.745-1.789-4.745-3.966,0-.934.623-3.5,5.445-3.5a16.875,16.875,0,0,1,9.721,3.266l0.7-.233,0.778-8.477-0.389-.467a39.608,39.608,0,0,0-11.9-1.944c-3.811,0-11.433.311-15.477,6.144a11.691,11.691,0,0,0-2.1,6.844c0,8.322,6.455,10.81,10.11,12.21l2.956,1.089c2.1,0.7,5.522,1.867,5.522,4.667,0,1.944-1.789,4.044-6.144,4.044a19.454,19.454,0,0,1-8.244-2.178,17.161,17.161,0,0,1-3.111-2.177l-0.7.311c-0.156,4.044-.234,4.9-0.545,8.788l0.389,0.7c3.811,1.4,7.078,2.644,12.755,2.644,5.911,0,17.577-1.088,18.977-12.21a13.146,13.146,0,0,0,.078-1.711c0-8.555-5.989-10.811-10.266-12.444Zm103.286-28.31c-8.088.234-9.41,0.234-18.043,0.234l-0.467.466-3.577,12.6-3.111,11.277L261,421.367l-3.422-13.922-2.177-8.788-3.889-14.933-0.389-.467c-8.322.234-9.722,0.234-18.432,0.234l-0.467.466c-0.778,23.255-1.089,29.243-2.8,54.209l0.389,0.466c4.977-.233,6.455-0.311,10.966-0.233l0.467-.467,0.233-14.854,0.467-15.089,0.311-14.7,3.422,13.766,2.955,11.044,5.211,20.066,0.467,0.466c4.822-.233,6.144-0.311,11.588-0.233l0.467-.467,4.511-16.565,3.111-11.355,4.355-16.333V407.6l0.155,11.9v18.666l0.389,0.466c5.367-.233,7.467-0.311,13.455-0.233l0.389-.467c-0.467-8.866-1.011-17.81-1.322-26.754-0.233-4.9-.389-9.8-0.622-14.7-0.389-7.233-.467-8.166-0.467-12.755Zm46.2,43.632a23.779,23.779,0,0,1-12.133,3.344c-4.667,0-7.855-1.478-9.722-4.278a11.01,11.01,0,0,1-1.711-4.744l25.121-.467,0.467-.544a45.6,45.6,0,0,0-1.245-11.588c-2.722-9.178-8.71-11.044-11.355-11.666a19.9,19.9,0,0,0-5.522-.7c-12.21,0-20.3,8.01-20.3,21.465a25.893,25.893,0,0,0,1.867,10.189c4.511,10.5,15.088,11.432,20.688,11.432,6.455,0,9.255-1.166,13.377-2.8l0.467-.623,0.544-8.788Zm-23.566-13.922c0.233-2.411.778-5.677,3.733-7.544a5.969,5.969,0,0,1,8.089,1.867,9.5,9.5,0,0,1,1.166,5.366Zm93.487,24.888c-0.389-7.233-.467-9.255-0.467-18.044v-5.833c0.078-5.211.156-10.033-2.1-13.3-3.033-4.433-8.4-4.433-9.644-4.433-6.377,0-10.655,2.877-13.766,5.055-1.089-1.789-3.033-5.055-9.255-5.055-5.133,0-8.477,2.333-12.055,4.822v-4.356l-0.7-.7c-6.066,1.167-7.777,1.478-13.222,2.256l-0.466.544c0.622,6.222,1.089,10.5,1.089,25.9,0,4.433-.078,8.944-0.078,13.377l0.389,0.467c4.977-.156,6.688-0.234,13.144-0.234l0.466-.466c-0.544-11.977-.622-15.555-0.7-29.088a9.556,9.556,0,0,1,5.367-2.177c4.822,0,4.977,5.522,4.977,12.21,0,11.277-.078,12.988-0.233,19.288l0.467,0.544c5.91-.311,7.544-0.311,12.91-0.311l0.467-.466c-0.467-7.389-.545-9.566-0.623-18.977V416l-0.077-7.855a9.6,9.6,0,0,1,5.366-1.944c4.433,0,5.133,4.2,5.133,10.888,0,1.478-.078,2.955-0.078,4.433-0.077,2.644-.155,14.233-0.233,16.566l0.467,0.467c5.833-.234,7.544-0.234,12.988-0.234Zm48.534-20.144c0-3.033,0-15.632-10.888-19.91a27.961,27.961,0,0,0-9.489-1.478c-13.533,0-21.154,7.233-21.154,21.544,0,4.977.777,10.033,3.655,14.232,2.022,3.034,5.833,7.233,16.955,7.233C450.076,439.332,454.509,429.377,454.509,417.711Zm-13.455-.078c0,6.378-.855,13.455-7.311,13.455a6.292,6.292,0,0,1-4.355-1.788c-1.322-1.323-2.8-3.967-2.8-11.511,0-2.255,0-7.233,1.556-9.955a6.439,6.439,0,0,1,5.677-3.5,6.541,6.541,0,0,1,4.978,2.411C440.665,409,441.054,413.434,441.054,417.633Zm43.322-8.088,2.178-12.677-0.466-.545c-0.545,0-1.089-.077-1.634-0.077-3.188,0-6.766,1.788-9.255,7.544l0.233-7.156-0.622-.622c-5.755,1.245-7.233,1.478-12.91,2.334l-0.467.466c0.467,5.833.7,9.333,0.7,20.144,0,6.377-.078,12.755-0.233,19.21l0.466,0.466c5.756-.233,7-0.311,13.222-0.233l0.389-.544c-0.311-6.3-.778-15.088-0.778-20.455,0-3.5,0-8.633,5.289-8.633a5.826,5.826,0,0,1,3.189,1.089Zm20.768,28.31c-0.389-5.989-.7-10.578-0.7-21.31,0-6.611.155-13.3,0.233-19.911l-0.544-.622-13.378,2.334-0.466.466c0.622,5.911.855,8.633,0.855,19.677,0,8.477-.233,13.222-0.466,19.6l0.466,0.544c5.6-.233,7.155-0.311,13.455-0.233ZM503.9,388.546l0.234-10.577-0.467-.467-12.677,1.556-0.467.544c0.156,2.8.233,4.433,0.233,6.3,0,1.477,0,3.033-.077,4.511l0.544,0.466c5.289-.933,6.766-1.089,12.288-1.789Zm44.488,26.676c0.078-7,.078-10.032-1.944-13.3-1.556-2.489-4.667-5.6-14.622-5.6a47.345,47.345,0,0,0-15.244,2.567l-0.466.622-0.389,8.477,0.622,0.312c2.722-1.089,7.778-3.111,12.988-3.111,2.878,0,4.045.466,5.056,1.477a4.909,4.909,0,0,1,1.011,3.345c-9.333,1.244-13.688,2.1-18.355,4.977a12.437,12.437,0,0,0-5.833,10.655c0,8.322,5.989,13.688,13.611,13.688a16.074,16.074,0,0,0,10.81-4.122v2.878l0.467,0.544c5.6-.233,7.31-0.311,12.366-0.233l0.389-.544c-0.545-7.622-.545-9.566-0.545-16.877Zm-12.833,12.367a12.6,12.6,0,0,1-6.3,2.022c-2.8,0-5.133-1.478-5.133-4.745,0-5.133,6.144-5.988,11.432-6.688v9.411Zm35.623,10.266c-0.389-8.944-.778-17.111-0.778-41.687,0-7.389.078-10.889,0.389-19.288l-0.544-.545-13.3,2.1-0.311.467c0.778,9.488.856,12.055,1.011,24.654,0.078,4.589.078,9.178,0.078,13.766,0,8.4-.156,13.066-0.467,20.766l0.467,0.544c5.211-.233,7.311-0.311,12.988-0.233ZM148.96,498.29c-6.533-2.722-9.955-4.122-9.955-7.622,0-2.411,2.255-5.444,7.388-5.444,5.911,0,9.411,2.411,12.289,4.355l0.7-.311L160,479.079l-0.389-.544a31.855,31.855,0,0,0-14.388-2.878c-14.622,0-19.677,8.244-19.677,16.566,0,9.411,7.311,12.833,11.666,14.933l2.566,1.166c5.367,2.256,9.489,4.2,9.489,8.322,0,2.956-2.567,6.456-9.333,6.456a19.839,19.839,0,0,1-13.3-4.9l-0.778.233L125.316,529.4l0.467,0.622c0.856,0.312,1.711.7,2.567,0.934a38.739,38.739,0,0,0,12.21,1.944c2.333,0,8.244-.233,12.911-2.411,6.533-3.189,9.333-9.1,9.333-15.71a15.413,15.413,0,0,0-5.833-12.366,31.51,31.51,0,0,0-5.989-3.345Zm43.011,24.5a11.675,11.675,0,0,1-3.578.7c-3.966,0-4.277-2.488-4.433-3.655a89.18,89.18,0,0,1-.155-9.411l0.155-10.966,7,0.311,0.467-.466,0.777-8.322-0.466-.467H183.96l0.234-13.066-0.545-.466c-5.289,1.555-6.688,1.944-12.21,3.344l-0.311.544,0.077,9.722-4.2-.156-0.466.389-0.7,8.322,0.467,0.467,4.9-.156-0.233,12.366c-0.078,1.945-.156,3.889-0.156,5.911,0,7.155.156,14.855,12.289,14.855a45.259,45.259,0,0,0,8.166-.933l0.544-.545,0.778-8.01Zm40.366-14.232c0.078-7,.078-10.033-1.944-13.3-1.556-2.488-4.667-5.6-14.622-5.6a47.347,47.347,0,0,0-15.244,2.566l-0.466.622-0.389,8.478,0.622,0.311c2.722-1.089,7.778-3.111,12.988-3.111,2.878,0,4.045.467,5.056,1.478a4.905,4.905,0,0,1,1.011,3.344c-9.333,1.244-13.688,2.1-18.355,4.977a12.44,12.44,0,0,0-5.833,10.656c0,8.321,5.989,13.688,13.61,13.688a16.079,16.079,0,0,0,10.811-4.122v2.877l0.467,0.545c5.6-.234,7.31-0.311,12.366-0.234l0.389-.544c-0.545-7.622-.545-9.566-0.545-16.877ZM219.5,520.922a12.6,12.6,0,0,1-6.3,2.022c-2.8,0-5.133-1.478-5.133-4.744,0-5.133,6.144-5.989,11.432-6.689v9.411Zm43.711,1.866a11.669,11.669,0,0,1-3.577.7c-3.967,0-4.278-2.488-4.433-3.655a88.88,88.88,0,0,1-.156-9.411l0.156-10.966,7,0.311,0.467-.466,0.778-8.322-0.467-.467h-7.777l0.233-13.066-0.544-.466c-5.289,1.555-6.689,1.944-12.211,3.344l-0.311.544,0.078,9.722-4.2-.156-0.467.389-0.7,8.322,0.467,0.467,4.9-.156-0.234,12.366c-0.077,1.945-.155,3.889-0.155,5.911,0,7.155.155,14.855,12.288,14.855a45.259,45.259,0,0,0,8.166-.933l0.545-.545,0.778-8.01Zm38.733-2.566a23.773,23.773,0,0,1-12.133,3.344c-4.666,0-7.855-1.477-9.721-4.277a11,11,0,0,1-1.711-4.745l25.121-.466,0.466-.545a45.6,45.6,0,0,0-1.244-11.588c-2.722-9.177-8.711-11.044-11.355-11.666a19.9,19.9,0,0,0-5.522-.7c-12.211,0-20.3,8.011-20.3,21.466a25.891,25.891,0,0,0,1.866,10.188c4.511,10.5,15.089,11.433,20.688,11.433,6.456,0,9.255-1.167,13.377-2.8l0.467-.622,0.545-8.789ZM278.383,506.3c0.233-2.411.777-5.677,3.733-7.544a5.97,5.97,0,0,1,8.088,1.867,9.5,9.5,0,0,1,1.167,5.366Zm65.877-29.632-9.877.156-0.467.467c0.312,10.11.545,16.877,0.545,25.821,0,9.488-.233,18.9-0.467,28.387l0.467,0.467c5.755-.234,7-0.311,13.221-0.234l0.389-.466c-0.311-8.478-.311-10.422-0.311-18.355,8.711,0.078,18.044.078,23.644-6.766a19.994,19.994,0,0,0,4.044-12.522c0-3.344-.778-10.733-7.233-14.388-4.667-2.722-11.277-2.722-17.11-2.722Zm3.5,9.411c1.711-.078,3.345-0.078,5.056-0.078,6.844,0.156,8.71,3.656,8.71,8.167,0,1.088,0,5.6-4.122,7.855-2.1,1.166-4.977,1.322-9.644,1.322V486.079Zm66.11,22.477c0.078-7,.078-10.033-1.944-13.3-1.555-2.488-4.666-5.6-14.622-5.6a47.336,47.336,0,0,0-15.243,2.566l-0.467.622-0.389,8.478,0.622,0.311c2.723-1.089,7.778-3.111,12.989-3.111,2.877,0,4.044.467,5.055,1.478a4.9,4.9,0,0,1,1.011,3.344c-9.333,1.244-13.688,2.1-18.355,4.977a12.44,12.44,0,0,0-5.833,10.656c0,8.321,5.989,13.688,13.611,13.688a16.079,16.079,0,0,0,10.81-4.122v2.877l0.467,0.545c5.6-.234,7.311-0.311,12.366-0.234l0.389-.544c-0.544-7.622-.544-9.566-0.544-16.877Zm-12.832,12.366a12.6,12.6,0,0,1-6.3,2.022c-2.8,0-5.133-1.478-5.133-4.744,0-5.133,6.144-5.989,11.433-6.689v9.411Zm44.411-18.044,2.177-12.677-0.466-.544c-0.545,0-1.089-.078-1.634-0.078-3.188,0-6.766,1.789-9.255,7.544l0.234-7.155-0.623-.622c-5.755,1.244-7.233,1.477-12.91,2.333l-0.467.466c0.467,5.834.7,9.333,0.7,20.144,0,6.377-.077,12.755-0.233,19.21l0.467,0.467c5.755-.234,7-0.311,13.221-0.234l0.389-.544c-0.311-6.3-.778-15.088-0.778-20.455,0-3.5,0-8.632,5.289-8.632a5.825,5.825,0,0,1,3.189,1.088Zm46.666,27.843c-7.311-12.366-8.089-13.766-14-24.421,5.367-7.31,5.911-8.088,11.433-15.166l-0.389-.777-12.677.155-0.778.545c-6.066,10.5-6.844,11.744-10.422,17.11v-8.633c0.078-14.544.156-17.655,0.545-29.4l-0.622-.466-13.533,2.022-0.467.544c0.545,7.544.778,11.2,0.934,21.388,0.155,12.6.155,25.2,0.077,37.8l0.545,0.545c5.211-.234,6.688-0.234,12.6-0.234l0.467-.544-0.467-13.144-0.078-8.944c6.767,12.444,7.622,14.155,11.589,22.4l0.7,0.467,14-.545Z"/>
</svg>
