<?xml version="1.0" encoding="UTF-8"?>
<svg xmlns="http://www.w3.org/2000/svg" xmlns:xlink="http://www.w3.org/1999/xlink" width="975" height="1300" viewBox="0 0 975 1300">
<path fill-rule="nonzero" fill="rgb(34.901961%, 14.901961%, 14.901961%)" fill-opacity="1" d="M 171.875 566.25 C 161.375 561.875 155.875 559.625 155.875 554 C 155.875 550.125 159.5 545.25 167.75 545.25 C 177.25 545.25 182.875 549.125 187.5 552.25 L 188.625 551.75 L 189.625 535.375 L 189 534.5 C 183.625 532.25 178 529.875 165.875 529.875 C 142.375 529.875 134.25 543.125 134.25 556.5 C 134.25 571.625 146 577.125 153 580.5 L 157.125 582.375 C 165.75 586 172.375 589.125 172.375 595.75 C 172.375 600.5 168.25 606.125 157.375 606.125 C 146 606.125 139.625 601.125 136 598.25 L 134.75 598.625 L 133.875 616.25 L 134.625 617.25 C 136 617.75 137.375 618.375 138.75 618.75 C 141.625 619.75 149 621.875 158.375 621.875 C 162.125 621.875 171.625 621.5 179.125 618 C 189.625 612.875 194.125 603.375 194.125 592.75 C 194.125 585.625 191.375 578 184.75 572.875 C 181.375 570.375 178.125 568.875 175.125 567.5 Z M 267.25 619.125 C 266.75 608.875 266.625 605.375 266.375 592.375 L 266.375 583 C 266.25 571.125 266.125 564.25 262.5 559 C 258.875 553.875 253.625 552.25 248.125 552.25 C 239 552.25 231.875 556.625 226.875 559.625 L 227.25 521.125 L 226.5 520.25 L 205.125 523.625 L 204.5 524.375 C 205.625 536.5 205.875 541 206.125 557.125 C 206.375 567.25 206.5 577.375 206.5 587.5 C 206.5 599.875 206.25 607.25 206 619.5 L 206.625 620.375 C 215.875 619.875 217.75 619.875 227.875 619.875 L 228.625 619.125 C 227.75 600.375 227.625 594.75 227.5 572.625 C 229.875 571 232.875 568.875 237.125 568.875 C 244 568.875 244.5 576 245 581 C 245.25 584.875 245.375 602.625 245.375 607.25 C 245.375 611.375 245.25 615.375 245.25 619.5 L 245.875 620.375 C 254.875 619.875 256.875 619.875 266.5 619.875 Z M 337.125 582.75 C 337.25 571.5 337.25 566.625 334 561.375 C 331.5 557.375 326.5 552.375 310.5 552.375 C 299.75 552.375 293.125 554.375 286 556.5 L 285.25 557.5 L 284.625 571.125 L 285.625 571.625 C 290 569.875 298.125 566.625 306.5 566.625 C 311.125 566.625 313 567.375 314.625 569 C 315.875 570.25 316.25 572.5 316.25 574.375 C 301.25 576.375 294.25 577.75 286.75 582.375 C 279.75 586.75 277.375 593.875 277.375 599.5 C 277.375 612.875 287 621.5 299.25 621.5 C 308.625 621.5 314 617 316.625 614.875 L 316.625 619.5 L 317.375 620.375 C 326.375 620 329.125 619.875 337.25 620 L 337.875 619.125 C 337 606.875 337 603.75 337 592 L 337.125 582.75 M 316.5 602.625 C 313.875 604.125 310.5 605.875 306.375 605.875 C 301.875 605.875 298.125 603.5 298.125 598.25 C 298.125 590 308 588.625 316.5 587.5 Z M 378 576.875 C 373.75 575.375 370.375 574 370.375 570.5 C 370.375 569 371.375 564.875 379.125 564.875 C 386.75 564.875 391.625 568.125 394.75 570.125 L 395.875 569.75 L 397.125 556.125 L 396.5 555.375 C 390.625 553.75 385.5 552.25 377.375 552.25 C 371.25 552.25 359 552.75 352.5 562.125 C 350.875 564.375 349.125 568.125 349.125 573.125 C 349.125 586.5 359.5 590.5 365.375 592.75 L 370.125 594.5 C 373.5 595.625 379 597.5 379 602 C 379 605.125 376.125 608.5 369.125 608.5 C 365.625 608.5 360.5 607.375 355.875 605 C 353.75 603.875 352.75 603 350.875 601.5 L 349.75 602 C 349.5 608.5 349.375 609.875 348.875 616.125 L 349.5 617.25 C 355.625 619.5 360.875 621.5 370 621.5 C 379.5 621.5 398.25 619.75 400.5 601.875 C 400.625 600.875 400.625 600 400.625 599.125 C 400.625 585.375 391 581.75 384.125 579.125 Z M 446.625 605.625 C 444.5 606.25 443 606.75 440.875 606.75 C 434.5 606.75 434 602.75 433.75 600.875 C 433.375 597.625 433.375 590.75 433.5 585.75 L 433.75 568.125 L 445 568.625 L 445.75 567.875 L 447 554.5 L 446.25 553.75 L 433.75 553.75 L 434.125 532.75 L 433.25 532 C 424.75 534.5 422.5 535.125 413.625 537.375 L 413.125 538.25 L 413.25 553.875 L 406.5 553.625 L 405.75 554.25 L 404.625 567.625 L 405.375 568.375 L 413.25 568.125 L 412.875 588 C 412.75 591.125 412.625 594.25 412.625 597.5 C 412.625 609 412.875 621.375 432.375 621.375 C 437.25 621.375 441.125 620.625 445.5 619.875 L 446.375 619 L 447.625 606.125 Z M 511.5 582.75 C 511.625 571.5 511.625 566.625 508.375 561.375 C 505.875 557.375 500.875 552.375 484.875 552.375 C 474.125 552.375 467.5 554.375 460.375 556.5 L 459.625 557.5 L 459 571.125 L 460 571.625 C 464.375 569.875 472.5 566.625 480.875 566.625 C 485.5 566.625 487.375 567.375 489 569 C 490.25 570.25 490.625 572.5 490.625 574.375 C 475.625 576.375 468.625 577.75 461.125 582.375 C 454.125 586.75 451.75 593.875 451.75 599.5 C 451.75 612.875 461.375 621.5 473.625 621.5 C 483 621.5 488.375 617 491 614.875 L 491 619.5 L 491.75 620.375 C 500.75 620 503.5 619.875 511.625 620 L 512.25 619.125 C 511.375 606.875 511.375 603.75 511.375 592 L 511.5 582.75 M 490.875 602.625 C 488.25 604.125 484.875 605.875 480.75 605.875 C 476.25 605.875 472.5 603.5 472.5 598.25 C 472.5 590 482.375 588.625 490.875 587.5 Z M 598.75 566.25 C 588.25 561.875 582.75 559.625 582.75 554 C 582.75 550.125 586.375 545.25 594.625 545.25 C 604.125 545.25 609.75 549.125 614.375 552.25 L 615.5 551.75 L 616.5 535.375 L 615.875 534.5 C 610.5 532.25 604.875 529.875 592.75 529.875 C 569.25 529.875 561.125 543.125 561.125 556.5 C 561.125 571.625 572.875 577.125 579.875 580.5 L 584 582.375 C 592.625 586 599.25 589.125 599.25 595.75 C 599.25 600.5 595.125 606.125 584.25 606.125 C 572.875 606.125 566.5 601.125 562.875 598.25 L 561.625 598.625 L 560.75 616.25 L 561.5 617.25 C 562.875 617.75 564.25 618.375 565.625 618.75 C 568.5 619.75 575.875 621.875 585.25 621.875 C 589 621.875 598.5 621.5 606 618 C 616.5 612.875 621 603.375 621 592.75 C 621 585.625 618.25 578 611.625 572.875 C 608.25 570.375 605 568.875 602 567.5 Z M 667.875 605.625 C 665.75 606.25 664.25 606.75 662.125 606.75 C 655.75 606.75 655.25 602.75 655 600.875 C 654.625 597.625 654.625 590.75 654.75 585.75 L 655 568.125 L 666.25 568.625 L 667 567.875 L 668.25 554.5 L 667.5 553.75 L 655 553.75 L 655.375 532.75 L 654.5 532 C 646 534.5 643.75 535.125 634.875 537.375 L 634.375 538.25 L 634.5 553.875 L 627.75 553.625 L 627 554.25 L 625.875 567.625 L 626.625 568.375 L 634.5 568.125 L 634.125 588 C 634 591.125 633.875 594.25 633.875 597.5 C 633.875 609 634.125 621.375 653.625 621.375 C 658.5 621.375 662.375 620.625 666.75 619.875 L 667.625 619 L 668.875 606.125 Z M 732.75 582.75 C 732.875 571.5 732.875 566.625 729.625 561.375 C 727.125 557.375 722.125 552.375 706.125 552.375 C 695.375 552.375 688.75 554.375 681.625 556.5 L 680.875 557.5 L 680.25 571.125 L 681.25 571.625 C 685.625 569.875 693.75 566.625 702.125 566.625 C 706.75 566.625 708.625 567.375 710.25 569 C 711.5 570.25 711.875 572.5 711.875 574.375 C 696.875 576.375 689.875 577.75 682.375 582.375 C 675.375 586.75 673 593.875 673 599.5 C 673 612.875 682.625 621.5 694.875 621.5 C 704.25 621.5 709.625 617 712.25 614.875 L 712.25 619.5 L 713 620.375 C 722 620 724.75 619.875 732.875 620 L 733.5 619.125 C 732.625 606.875 732.625 603.75 732.625 592 L 732.75 582.75 M 712.125 602.625 C 709.5 604.125 706.125 605.875 702 605.875 C 697.5 605.875 693.75 603.5 693.75 598.25 C 693.75 590 703.625 588.625 712.125 587.5 Z M 782.375 605.625 C 780.25 606.25 778.75 606.75 776.625 606.75 C 770.25 606.75 769.75 602.75 769.5 600.875 C 769.125 597.625 769.125 590.75 769.25 585.75 L 769.5 568.125 L 780.75 568.625 L 781.5 567.875 L 782.75 554.5 L 782 553.75 L 769.5 553.75 L 769.875 532.75 L 769 532 C 760.5 534.5 758.25 535.125 749.375 537.375 L 748.875 538.25 L 749 553.875 L 742.25 553.625 L 741.5 554.25 L 740.375 567.625 L 741.125 568.375 L 749 568.125 L 748.625 588 C 748.5 591.125 748.375 594.25 748.375 597.5 C 748.375 609 748.625 621.375 768.125 621.375 C 773 621.375 776.875 620.625 781.25 619.875 L 782.125 619 L 783.375 606.125 Z M 847.125 601.5 C 842.375 604 836.75 606.875 827.625 606.875 C 820.125 606.875 815 604.5 812 600 C 810.125 597.375 809.75 594.875 809.25 592.375 L 849.625 591.625 L 850.375 590.75 C 850.25 584.625 850.125 578.375 848.375 572.125 C 844 557.375 834.375 554.375 830.125 553.375 C 827 552.5 824.125 552.25 821.25 552.25 C 801.625 552.25 788.625 565.125 788.625 586.75 C 788.625 592.625 789.625 598.75 791.625 603.125 C 798.875 620 815.875 621.5 824.875 621.5 C 835.25 621.5 839.75 619.625 846.375 617 L 847.125 616 L 848 601.875 L 847.125 601.5 M 809.25 579.125 C 809.625 575.25 810.5 570 815.25 567 C 816.75 566 818.5 565.625 820.25 565.625 C 824.375 565.625 826.875 567.75 828.25 570 C 830 572.75 830.125 575.75 830.125 578.625 Z M 854.375 620 "/>
<path fill-rule="nonzero" fill="rgb(34.901961%, 14.901961%, 14.901961%)" fill-opacity="1" d="M 196.8125 681.375 C 186.8125 681.75 185.1875 681.75 174.6875 681.75 L 174.0625 682.5 C 174.9375 696.625 174.9375 700.25 175.0625 715 C 169.5625 715.125 164.0625 715.25 158.4375 715.25 C 154.0625 715.25 149.5625 715.125 145.1875 715.125 L 145.4375 682.125 L 144.8125 681.375 C 135.1875 681.75 133.3125 681.75 122.4375 681.75 L 121.6875 682.5 C 122.3125 695.375 123.0625 710.75 123.0625 741.75 C 123.0625 753 122.8125 759.125 122.5625 769.625 L 123.1875 770.375 C 132.3125 770 134.5625 769.875 145.5625 770 L 146.1875 769.25 C 145.4375 753.75 145.3125 749.25 145.1875 731.125 C 150.6875 730.875 155.3125 730.75 160.1875 730.75 C 165.1875 730.75 170.1875 730.875 175.1875 731 C 175.4375 747.875 175.4375 752 174.8125 769.625 L 175.4375 770.375 C 184.8125 770 187.3125 769.875 197.9375 770 L 198.5625 769.25 C 197.5625 748.25 197.1875 727.375 197.1875 706.375 C 197.1875 697.625 197.3125 691.75 197.4375 682.125 Z M 235.6875 769.125 C 235.0625 759.5 234.5625 752.125 234.5625 734.875 C 234.5625 724.25 234.8125 713.5 234.9375 702.875 L 234.0625 701.875 L 212.5625 705.625 L 211.8125 706.375 C 212.8125 715.875 213.1875 720.25 213.1875 738 C 213.1875 751.625 212.8125 759.25 212.4375 769.5 L 213.1875 770.375 C 222.1875 770 224.6875 769.875 234.8125 770 L 235.6875 769.125 M 233.6875 689.875 L 234.0625 672.875 L 233.3125 672.125 L 212.9375 674.625 L 212.1875 675.5 C 212.4375 680 212.5625 682.625 212.5625 685.625 C 212.5625 688 212.5625 690.5 212.4375 692.875 L 213.3125 693.625 C 221.8125 692.125 224.1875 691.875 233.0625 690.75 Z M 275.8125 726.875 C 271.5625 725.375 268.1875 724 268.1875 720.5 C 268.1875 719 269.1875 714.875 276.9375 714.875 C 284.5625 714.875 289.4375 718.125 292.5625 720.125 L 293.6875 719.75 L 294.9375 706.125 L 294.3125 705.375 C 288.4375 703.75 283.3125 702.25 275.1875 702.25 C 269.0625 702.25 256.8125 702.75 250.3125 712.125 C 248.6875 714.375 246.9375 718.125 246.9375 723.125 C 246.9375 736.5 257.3125 740.5 263.1875 742.75 L 267.9375 744.5 C 271.3125 745.625 276.8125 747.5 276.8125 752 C 276.8125 755.125 273.9375 758.5 266.9375 758.5 C 263.4375 758.5 258.3125 757.375 253.6875 755 C 251.5625 753.875 250.5625 753 248.6875 751.5 L 247.5625 752 C 247.3125 758.5 247.1875 759.875 246.6875 766.125 L 247.3125 767.25 C 253.4375 769.5 258.6875 771.5 267.8125 771.5 C 277.3125 771.5 296.0625 769.75 298.3125 751.875 C 298.4375 750.875 298.4375 750 298.4375 749.125 C 298.4375 735.375 288.8125 731.75 281.9375 729.125 Z M 344.4375 755.625 C 342.3125 756.25 340.8125 756.75 338.6875 756.75 C 332.3125 756.75 331.8125 752.75 331.5625 750.875 C 331.1875 747.625 331.1875 740.75 331.3125 735.75 L 331.5625 718.125 L 342.8125 718.625 L 343.5625 717.875 L 344.8125 704.5 L 344.0625 703.75 L 331.5625 703.75 L 331.9375 682.75 L 331.0625 682 C 322.5625 684.5 320.3125 685.125 311.4375 687.375 L 310.9375 688.25 L 311.0625 703.875 L 304.3125 703.625 L 303.5625 704.25 L 302.4375 717.625 L 303.1875 718.375 L 311.0625 718.125 L 310.6875 738 C 310.5625 741.125 310.4375 744.25 310.4375 747.5 C 310.4375 759 310.6875 771.375 330.1875 771.375 C 335.0625 771.375 338.9375 770.625 343.3125 769.875 L 344.1875 769 L 345.4375 756.125 Z M 417.3125 736.75 C 417.3125 731.875 417.3125 711.625 399.8125 704.75 C 394.3125 702.625 387.8125 702.375 384.5625 702.375 C 362.8125 702.375 350.5625 714 350.5625 737 C 350.5625 745 351.8125 753.125 356.4375 759.875 C 359.6875 764.75 365.8125 771.5 383.6875 771.5 C 410.1875 771.5 417.3125 755.5 417.3125 736.75 M 395.6875 736.625 C 395.6875 746.875 394.3125 758.25 383.9375 758.25 C 380.6875 758.25 378.4375 756.75 376.9375 755.375 C 374.8125 753.25 372.4375 749 372.4375 736.875 C 372.4375 733.25 372.4375 725.25 374.9375 720.875 C 376.8125 717.5 380.0625 715.25 384.0625 715.25 C 387.5625 715.25 390.4375 717.125 392.0625 719.125 C 395.0625 722.75 395.6875 729.875 395.6875 736.625 Z M 465.3125 723.625 L 468.8125 703.25 L 468.0625 702.375 C 467.1875 702.375 466.3125 702.25 465.4375 702.25 C 460.3125 702.25 454.5625 705.125 450.5625 714.375 L 450.9375 702.875 L 449.9375 701.875 C 440.6875 703.875 438.3125 704.25 429.1875 705.625 L 428.4375 706.375 C 429.1875 715.75 429.5625 721.375 429.5625 738.75 C 429.5625 749 429.4375 759.25 429.1875 769.625 L 429.9375 770.375 C 439.1875 770 441.1875 769.875 451.1875 770 L 451.8125 769.125 C 451.3125 759 450.5625 744.875 450.5625 736.25 C 450.5625 730.625 450.5625 722.375 459.0625 722.375 C 461.1875 722.375 462.4375 723.125 464.1875 724.125 Z M 498.6875 769.125 C 498.0625 759.5 497.5625 752.125 497.5625 734.875 C 497.5625 724.25 497.8125 713.5 497.9375 702.875 L 497.0625 701.875 L 475.5625 705.625 L 474.8125 706.375 C 475.8125 715.875 476.1875 720.25 476.1875 738 C 476.1875 751.625 475.8125 759.25 475.4375 769.5 L 476.1875 770.375 C 485.1875 770 487.6875 769.875 497.8125 770 L 498.6875 769.125 M 496.6875 689.875 L 497.0625 672.875 L 496.3125 672.125 L 475.9375 674.625 L 475.1875 675.5 C 475.4375 680 475.5625 682.625 475.5625 685.625 C 475.5625 688 475.5625 690.5 475.4375 692.875 L 476.3125 693.625 C 484.8125 692.125 487.1875 691.875 496.0625 690.75 Z M 561.4375 752 C 558.0625 754 554.8125 756 548.4375 756 C 534.3125 756 531.4375 744.25 531.4375 736.75 C 531.4375 727.625 535.4375 717.125 547.5625 717.125 C 553.0625 717.125 556.0625 719.125 559.8125 721.625 L 561.0625 721.25 C 561.5625 714.625 561.6875 712.875 562.6875 706.25 L 562.0625 705.5 C 556.5625 703.75 551.8125 702.25 544.5625 702.25 C 515.1875 702.25 509.4375 724.5 509.4375 737.25 C 509.4375 751.625 516.9375 771.125 545.0625 771.125 C 551.6875 771.125 555.9375 769.875 561.1875 768.375 L 561.9375 767.625 L 562.4375 752.625 Z M 625.6875 681.5 L 609.8125 681.75 L 609.0625 682.5 C 609.5625 698.75 609.9375 709.625 609.9375 724 C 609.9375 739.25 609.5625 754.375 609.1875 769.625 L 609.9375 770.375 C 619.1875 770 621.1875 769.875 631.1875 770 L 631.8125 769.25 C 631.3125 755.625 631.3125 752.5 631.3125 739.75 C 645.3125 739.875 660.3125 739.875 669.3125 728.875 C 672.8125 724.625 675.8125 717.5 675.8125 708.75 C 675.8125 703.375 674.5625 691.5 664.1875 685.625 C 656.6875 681.25 646.0625 681.25 636.6875 681.25 L 625.6875 681.5 M 631.3125 696.625 C 634.0625 696.5 636.6875 696.5 639.4375 696.5 C 650.4375 696.75 653.4375 702.375 653.4375 709.625 C 653.4375 711.375 653.4375 718.625 646.8125 722.25 C 643.4375 724.125 638.8125 724.375 631.3125 724.375 Z M 740.0625 732.75 C 740.1875 721.5 740.1875 716.625 736.9375 711.375 C 734.4375 707.375 729.4375 702.375 713.4375 702.375 C 702.6875 702.375 696.0625 704.375 688.9375 706.5 L 688.1875 707.5 L 687.5625 721.125 L 688.5625 721.625 C 692.9375 719.875 701.0625 716.625 709.4375 716.625 C 714.0625 716.625 715.9375 717.375 717.5625 719 C 718.8125 720.25 719.1875 722.5 719.1875 724.375 C 704.1875 726.375 697.1875 727.75 689.6875 732.375 C 682.6875 736.75 680.3125 743.875 680.3125 749.5 C 680.3125 762.875 689.9375 771.5 702.1875 771.5 C 711.5625 771.5 716.9375 767 719.5625 764.875 L 719.5625 769.5 L 720.3125 770.375 C 729.3125 770 732.0625 769.875 740.1875 770 L 740.8125 769.125 C 739.9375 756.875 739.9375 753.75 739.9375 742 L 740.0625 732.75 M 719.4375 752.625 C 716.8125 754.125 713.4375 755.875 709.3125 755.875 C 704.8125 755.875 701.0625 753.5 701.0625 748.25 C 701.0625 740 710.9375 738.625 719.4375 737.5 Z M 790.8125 723.625 L 794.3125 703.25 L 793.5625 702.375 C 792.6875 702.375 791.8125 702.25 790.9375 702.25 C 785.8125 702.25 780.0625 705.125 776.0625 714.375 L 776.4375 702.875 L 775.4375 701.875 C 766.1875 703.875 763.8125 704.25 754.6875 705.625 L 753.9375 706.375 C 754.6875 715.75 755.0625 721.375 755.0625 738.75 C 755.0625 749 754.9375 759.25 754.6875 769.625 L 755.4375 770.375 C 764.6875 770 766.6875 769.875 776.6875 770 L 777.3125 769.125 C 776.8125 759 776.0625 744.875 776.0625 736.25 C 776.0625 730.625 776.0625 722.375 784.5625 722.375 C 786.6875 722.375 787.9375 723.125 789.6875 724.125 Z M 865.8125 768.375 C 854.0625 748.5 852.8125 746.25 843.3125 729.125 C 851.9375 717.375 852.8125 716.125 861.6875 704.75 L 861.0625 703.5 L 840.6875 703.75 L 839.4375 704.625 C 829.6875 721.5 828.4375 723.5 822.6875 732.125 L 822.6875 718.25 C 822.8125 694.875 822.9375 689.875 823.5625 671 L 822.5625 670.25 L 800.8125 673.5 L 800.0625 674.375 C 800.9375 686.5 801.3125 692.375 801.5625 708.75 C 801.8125 729 801.8125 749.25 801.6875 769.5 L 802.5625 770.375 C 810.9375 770 813.3125 770 822.8125 770 L 823.5625 769.125 L 822.8125 748 L 822.6875 733.625 C 833.5625 753.625 834.9375 756.375 841.3125 769.625 L 842.4375 770.375 L 864.9375 769.5 Z M 864.3125 770 "/>
</svg>
