<?xml version="1.0" encoding="UTF-8"?>
<svg xmlns="http://www.w3.org/2000/svg" xmlns:xlink="http://www.w3.org/1999/xlink" width="975" height="1300" viewBox="0 0 975 1300">
<path fill-rule="nonzero" fill="rgb(34.901961%, 14.901961%, 14.901961%)" fill-opacity="1" d="M 246.5 469.25 C 251.125 446.5 253.125 437 266.375 382.125 L 265.75 381.375 C 256.875 381.75 255.125 381.75 246.75 381.75 L 246 382.5 C 244 395.375 243.375 399.75 240.625 414.125 L 237 433.25 L 233 454.75 C 231.125 440.75 230.5 436.5 228 422 L 224.375 401 L 221.25 381.75 L 220.5 380.875 L 195.75 381.5 L 195 382.25 L 190 411 L 185.125 436.625 L 182 453.875 C 180.5 443 180 439.375 177.375 424.25 L 174.125 406 L 170 381.25 L 169.25 380.625 C 158.5 381.375 156.75 381.375 147.625 381.625 L 147 382.5 C 156.125 423.875 158.125 433.375 164.875 469.625 L 165.625 470.375 C 178.25 469.875 181.625 469.875 193.875 470 L 194.75 469.25 L 197.375 453.75 L 201.5 430.875 L 206 404.125 C 207.5 416.375 207.875 419.5 210.125 433 L 213.25 452.5 L 215.875 469.625 L 216.5 470.375 C 228.5 470 232.625 469.875 245.875 470 Z M 328.375 451.5 C 323.625 454 318 456.875 308.875 456.875 C 301.375 456.875 296.25 454.5 293.25 450 C 291.375 447.375 291 444.875 290.5 442.375 L 330.875 441.625 L 331.625 440.75 C 331.5 434.625 331.375 428.375 329.625 422.125 C 325.25 407.375 315.625 404.375 311.375 403.375 C 308.25 402.5 305.375 402.25 302.5 402.25 C 282.875 402.25 269.875 415.125 269.875 436.75 C 269.875 442.625 270.875 448.75 272.875 453.125 C 280.125 470 297.125 471.5 306.125 471.5 C 316.5 471.5 321 469.625 327.625 467 L 328.375 466 L 329.25 451.875 L 328.375 451.5 M 290.5 429.125 C 290.875 425.25 291.75 420 296.5 417 C 298 416 299.75 415.625 301.5 415.625 C 305.625 415.625 308.125 417.75 309.5 420 C 311.25 422.75 311.375 425.75 311.375 428.625 Z M 398.75 432.75 C 398.875 421.5 398.875 416.625 395.625 411.375 C 393.125 407.375 388.125 402.375 372.125 402.375 C 361.375 402.375 354.75 404.375 347.625 406.5 L 346.875 407.5 L 346.25 421.125 L 347.25 421.625 C 351.625 419.875 359.75 416.625 368.125 416.625 C 372.75 416.625 374.625 417.375 376.25 419 C 377.5 420.25 377.875 422.5 377.875 424.375 C 362.875 426.375 355.875 427.75 348.375 432.375 C 341.375 436.75 339 443.875 339 449.5 C 339 462.875 348.625 471.5 360.875 471.5 C 370.25 471.5 375.625 467 378.25 464.875 L 378.25 469.5 L 379 470.375 C 388 470 390.75 469.875 398.875 470 L 399.5 469.125 C 398.625 456.875 398.625 453.75 398.625 442 L 398.75 432.75 M 378.125 452.625 C 375.5 454.125 372.125 455.875 368 455.875 C 363.5 455.875 359.75 453.5 359.75 448.25 C 359.75 440 369.625 438.625 378.125 437.5 Z M 447.875 469 C 451.875 456.5 454.25 448.75 456.875 440.875 C 460.25 430.75 465.75 414.5 469.25 404.25 L 468.625 403.375 L 451.125 403.75 L 450.25 404.625 C 448.5 413 448.125 414.75 445.625 424.5 L 439.25 449.125 L 436.125 435.625 L 433.75 426 C 430.625 414.375 430.125 412 428.375 403.75 L 427.5 403 C 417.625 404.125 415.125 404.25 405.625 404.375 L 405.125 405.375 C 421.75 454.625 423.125 459.25 425.875 469.5 L 426.75 470.375 C 434.875 470 438.125 469.875 447.125 470 Z M 531.375 451.5 C 526.625 454 521 456.875 511.875 456.875 C 504.375 456.875 499.25 454.5 496.25 450 C 494.375 447.375 494 444.875 493.5 442.375 L 533.875 441.625 L 534.625 440.75 C 534.5 434.625 534.375 428.375 532.625 422.125 C 528.25 407.375 518.625 404.375 514.375 403.375 C 511.25 402.5 508.375 402.25 505.5 402.25 C 485.875 402.25 472.875 415.125 472.875 436.75 C 472.875 442.625 473.875 448.75 475.875 453.125 C 483.125 470 500.125 471.5 509.125 471.5 C 519.5 471.5 524 469.625 530.625 467 L 531.375 466 L 532.25 451.875 L 531.375 451.5 M 493.5 429.125 C 493.875 425.25 494.75 420 499.5 417 C 501 416 502.75 415.625 504.5 415.625 C 508.625 415.625 511.125 417.75 512.5 420 C 514.25 422.75 514.375 425.75 514.375 428.625 Z M 582.25 423.625 L 585.75 403.25 L 585 402.375 C 584.125 402.375 583.25 402.25 582.375 402.25 C 577.25 402.25 571.5 405.125 567.5 414.375 L 567.875 402.875 L 566.875 401.875 C 557.625 403.875 555.25 404.25 546.125 405.625 L 545.375 406.375 C 546.125 415.75 546.5 421.375 546.5 438.75 C 546.5 449 546.375 459.25 546.125 469.625 L 546.875 470.375 C 556.125 470 558.125 469.875 568.125 470 L 568.75 469.125 C 568.25 459 567.5 444.875 567.5 436.25 C 567.5 430.625 567.5 422.375 576 422.375 C 578.125 422.375 579.375 423.125 581.125 424.125 Z M 627.5 469 C 631.5 456.5 633.875 448.75 636.5 440.875 C 639.875 430.75 645.375 414.5 648.875 404.25 L 648.25 403.375 L 630.75 403.75 L 629.875 404.625 C 628.125 413 627.75 414.75 625.25 424.5 L 618.875 449.125 L 615.75 435.625 L 613.375 426 C 610.25 414.375 609.75 412 608 403.75 L 607.125 403 C 597.25 404.125 594.75 404.25 585.25 404.375 L 584.75 405.375 C 601.375 454.625 602.75 459.25 605.5 469.5 L 606.375 470.375 C 614.5 470 617.75 469.875 626.75 470 Z M 678.125 469.125 C 677.5 459.5 677 452.125 677 434.875 C 677 424.25 677.25 413.5 677.375 402.875 L 676.5 401.875 L 655 405.625 L 654.25 406.375 C 655.25 415.875 655.625 420.25 655.625 438 C 655.625 451.625 655.25 459.25 654.875 469.5 L 655.625 470.375 C 664.625 470 667.125 469.875 677.25 470 L 678.125 469.125 M 676.125 389.875 L 676.5 372.875 L 675.75 372.125 L 655.375 374.625 L 654.625 375.5 C 654.875 380 655 382.625 655 385.625 C 655 388 655 390.5 654.875 392.875 L 655.75 393.625 C 664.25 392.125 666.625 391.875 675.5 390.75 Z M 714 469.125 C 713.375 454.75 712.75 441.625 712.75 402.125 C 712.75 390.25 712.875 384.625 713.375 371.125 L 712.5 370.25 L 691.125 373.625 L 690.625 374.375 C 691.875 389.625 692 393.75 692.25 414 C 692.375 421.375 692.375 428.75 692.375 436.125 C 692.375 449.625 692.125 457.125 691.625 469.5 L 692.375 470.375 C 700.75 470 704.125 469.875 713.25 470 Z M 750.5 469.125 C 749.875 454.75 749.25 441.625 749.25 402.125 C 749.25 390.25 749.375 384.625 749.875 371.125 L 749 370.25 L 727.625 373.625 L 727.125 374.375 C 728.375 389.625 728.5 393.75 728.75 414 C 728.875 421.375 728.875 428.75 728.875 436.125 C 728.875 449.625 728.625 457.125 728.125 469.5 L 728.875 470.375 C 737.25 470 740.625 469.875 749.75 470 Z M 820.5 451.5 C 815.75 454 810.125 456.875 801 456.875 C 793.5 456.875 788.375 454.5 785.375 450 C 783.5 447.375 783.125 444.875 782.625 442.375 L 823 441.625 L 823.75 440.75 C 823.625 434.625 823.5 428.375 821.75 422.125 C 817.375 407.375 807.75 404.375 803.5 403.375 C 800.375 402.5 797.5 402.25 794.625 402.25 C 775 402.25 762 415.125 762 436.75 C 762 442.625 763 448.75 765 453.125 C 772.25 470 789.25 471.5 798.25 471.5 C 808.625 471.5 813.125 469.625 819.75 467 L 820.5 466 L 821.375 451.875 L 820.5 451.5 M 782.625 429.125 C 783 425.25 783.875 420 788.625 417 C 790.125 416 791.875 415.625 793.625 415.625 C 797.75 415.625 800.25 417.75 801.625 420 C 803.375 422.75 803.5 425.75 803.5 428.625 Z M 827.75 470 "/>
<path fill-rule="nonzero" fill="rgb(34.901961%, 14.901961%, 14.901961%)" fill-opacity="1" d="M 164.625 620.25 C 167.75 620.5 170.125 620.75 173 620.75 C 201.25 620.75 201.25 603.75 201.25 591.25 C 201.25 588.125 201.125 585 201 581.875 L 201 532.125 L 200.375 531.375 C 190.75 531.75 188.75 531.75 178.375 531.75 L 177.75 532.5 C 178.375 550.25 178.875 565.625 178.875 583.75 C 178.875 595.25 178.875 604.125 169.25 604.125 C 167.375 604.125 166.375 603.75 164.75 603.25 L 164 604 L 164 619.375 Z M 279.625 586.75 C 279.625 581.875 279.625 561.625 262.125 554.75 C 256.625 552.625 250.125 552.375 246.875 552.375 C 225.125 552.375 212.875 564 212.875 587 C 212.875 595 214.125 603.125 218.75 609.875 C 222 614.75 228.125 621.5 246 621.5 C 272.5 621.5 279.625 605.5 279.625 586.75 M 258 586.625 C 258 596.875 256.625 608.25 246.25 608.25 C 243 608.25 240.75 606.75 239.25 605.375 C 237.125 603.25 234.75 599 234.75 586.875 C 234.75 583.25 234.75 575.25 237.25 570.875 C 239.125 567.5 242.375 565.25 246.375 565.25 C 249.875 565.25 252.75 567.125 254.375 569.125 C 257.375 572.75 258 579.875 258 586.625 Z M 317.75 576.875 C 313.5 575.375 310.125 574 310.125 570.5 C 310.125 569 311.125 564.875 318.875 564.875 C 326.5 564.875 331.375 568.125 334.5 570.125 L 335.625 569.75 L 336.875 556.125 L 336.25 555.375 C 330.375 553.75 325.25 552.25 317.125 552.25 C 311 552.25 298.75 552.75 292.25 562.125 C 290.625 564.375 288.875 568.125 288.875 573.125 C 288.875 586.5 299.25 590.5 305.125 592.75 L 309.875 594.5 C 313.25 595.625 318.75 597.5 318.75 602 C 318.75 605.125 315.875 608.5 308.875 608.5 C 305.375 608.5 300.25 607.375 295.625 605 C 293.5 603.875 292.5 603 290.625 601.5 L 289.5 602 C 289.25 608.5 289.125 609.875 288.625 616.125 L 289.25 617.25 C 295.375 619.5 300.625 621.5 309.75 621.5 C 319.25 621.5 338 619.75 340.25 601.875 C 340.375 600.875 340.375 600 340.375 599.125 C 340.375 585.375 330.75 581.75 323.875 579.125 Z M 377.625 576.875 C 373.375 575.375 370 574 370 570.5 C 370 569 371 564.875 378.75 564.875 C 386.375 564.875 391.25 568.125 394.375 570.125 L 395.5 569.75 L 396.75 556.125 L 396.125 555.375 C 390.25 553.75 385.125 552.25 377 552.25 C 370.875 552.25 358.625 552.75 352.125 562.125 C 350.5 564.375 348.75 568.125 348.75 573.125 C 348.75 586.5 359.125 590.5 365 592.75 L 369.75 594.5 C 373.125 595.625 378.625 597.5 378.625 602 C 378.625 605.125 375.75 608.5 368.75 608.5 C 365.25 608.5 360.125 607.375 355.5 605 C 353.375 603.875 352.375 603 350.5 601.5 L 349.375 602 C 349.125 608.5 349 609.875 348.5 616.125 L 349.125 617.25 C 355.25 619.5 360.5 621.5 369.625 621.5 C 379.125 621.5 397.875 619.75 400.125 601.875 C 400.25 600.875 400.25 600 400.25 599.125 C 400.25 585.375 390.625 581.75 383.75 579.125 Z M 522.625 531.375 C 512.625 531.75 511 531.75 500.5 531.75 L 499.875 532.5 C 500.75 546.625 500.75 550.25 500.875 565 C 495.375 565.125 489.875 565.25 484.25 565.25 C 479.875 565.25 475.375 565.125 471 565.125 L 471.25 532.125 L 470.625 531.375 C 461 531.75 459.125 531.75 448.25 531.75 L 447.5 532.5 C 448.125 545.375 448.875 560.75 448.875 591.75 C 448.875 603 448.625 609.125 448.375 619.625 L 449 620.375 C 458.125 620 460.375 619.875 471.375 620 L 472 619.25 C 471.25 603.75 471.125 599.25 471 581.125 C 476.5 580.875 481.125 580.75 486 580.75 C 491 580.75 496 580.875 501 581 C 501.25 597.875 501.25 602 500.625 619.625 L 501.25 620.375 C 510.625 620 513.125 619.875 523.75 620 L 524.375 619.25 C 523.375 598.25 523 577.375 523 556.375 C 523 547.625 523.125 541.75 523.25 532.125 Z M 602.5 586.75 C 602.5 581.875 602.5 561.625 585 554.75 C 579.5 552.625 573 552.375 569.75 552.375 C 548 552.375 535.75 564 535.75 587 C 535.75 595 537 603.125 541.625 609.875 C 544.875 614.75 551 621.5 568.875 621.5 C 595.375 621.5 602.5 605.5 602.5 586.75 M 580.875 586.625 C 580.875 596.875 579.5 608.25 569.125 608.25 C 565.875 608.25 563.625 606.75 562.125 605.375 C 560 603.25 557.625 599 557.625 586.875 C 557.625 583.25 557.625 575.25 560.125 570.875 C 562 567.5 565.25 565.25 569.25 565.25 C 572.75 565.25 575.625 567.125 577.25 569.125 C 580.25 572.75 580.875 579.875 580.875 586.625 Z M 674.375 553.125 L 654 554.125 L 653.125 554.875 C 654 569 654 589 654 591 C 654 594.625 654 596.625 653.875 601.625 C 650.5 603.875 647.875 605.75 644.5 605.75 C 635.5 605.75 635.5 596.25 635.5 588.875 C 635.5 585.75 635.5 582.5 635.625 579.375 L 635.875 554.125 L 635 553.125 L 614.375 554.125 L 613.5 554.875 C 614.25 565.375 614.375 568.875 614.375 581.5 L 614.375 590.25 C 614.25 603.875 614.875 609.625 619.375 614.875 C 623.5 619.5 629.5 621.5 635.75 621.5 C 644.625 621.5 649.75 617.5 654.25 614 L 654.125 619.625 L 655 620.375 C 664.125 620 666.875 620 675 620 L 675.75 619.25 C 675.125 610.375 674.875 605.625 674.875 589.375 C 674.875 577.625 675 565.875 675.25 554.125 Z M 716.125 576.875 C 711.875 575.375 708.5 574 708.5 570.5 C 708.5 569 709.5 564.875 717.25 564.875 C 724.875 564.875 729.75 568.125 732.875 570.125 L 734 569.75 L 735.25 556.125 L 734.625 555.375 C 728.75 553.75 723.625 552.25 715.5 552.25 C 709.375 552.25 697.125 552.75 690.625 562.125 C 689 564.375 687.25 568.125 687.25 573.125 C 687.25 586.5 697.625 590.5 703.5 592.75 L 708.25 594.5 C 711.625 595.625 717.125 597.5 717.125 602 C 717.125 605.125 714.25 608.5 707.25 608.5 C 703.75 608.5 698.625 607.375 694 605 C 691.875 603.875 690.875 603 689 601.5 L 687.875 602 C 687.625 608.5 687.5 609.875 687 616.125 L 687.625 617.25 C 693.75 619.5 699 621.5 708.125 621.5 C 717.625 621.5 736.375 619.75 738.625 601.875 C 738.75 600.875 738.75 600 738.75 599.125 C 738.75 585.375 729.125 581.75 722.25 579.125 Z M 805.25 601.5 C 800.5 604 794.875 606.875 785.75 606.875 C 778.25 606.875 773.125 604.5 770.125 600 C 768.25 597.375 767.875 594.875 767.375 592.375 L 807.75 591.625 L 808.5 590.75 C 808.375 584.625 808.25 578.375 806.5 572.125 C 802.125 557.375 792.5 554.375 788.25 553.375 C 785.125 552.5 782.25 552.25 779.375 552.25 C 759.75 552.25 746.75 565.125 746.75 586.75 C 746.75 592.625 747.75 598.75 749.75 603.125 C 757 620 774 621.5 783 621.5 C 793.375 621.5 797.875 619.625 804.5 617 L 805.25 616 L 806.125 601.875 L 805.25 601.5 M 767.375 579.125 C 767.75 575.25 768.625 570 773.375 567 C 774.875 566 776.625 565.625 778.375 565.625 C 782.5 565.625 785 567.75 786.375 570 C 788.125 572.75 788.25 575.75 788.25 578.625 Z M 812.5 620 "/>
<path fill-rule="nonzero" fill="rgb(34.901961%, 14.901961%, 14.901961%)" fill-opacity="1" d="M 140.9375 716.25 C 130.4375 711.875 124.9375 709.625 124.9375 704 C 124.9375 700.125 128.5625 695.25 136.8125 695.25 C 146.3125 695.25 151.9375 699.125 156.5625 702.25 L 157.6875 701.75 L 158.6875 685.375 L 158.0625 684.5 C 152.6875 682.25 147.0625 679.875 134.9375 679.875 C 111.4375 679.875 103.3125 693.125 103.3125 706.5 C 103.3125 721.625 115.0625 727.125 122.0625 730.5 L 126.1875 732.375 C 134.8125 736 141.4375 739.125 141.4375 745.75 C 141.4375 750.5 137.3125 756.125 126.4375 756.125 C 115.0625 756.125 108.6875 751.125 105.0625 748.25 L 103.8125 748.625 L 102.9375 766.25 L 103.6875 767.25 C 105.0625 767.75 106.4375 768.375 107.8125 768.75 C 110.6875 769.75 118.0625 771.875 127.4375 771.875 C 131.1875 771.875 140.6875 771.5 148.1875 768 C 158.6875 762.875 163.1875 753.375 163.1875 742.75 C 163.1875 735.625 160.4375 728 153.8125 722.875 C 150.4375 720.375 147.1875 718.875 144.1875 717.5 Z M 210.0625 755.625 C 207.9375 756.25 206.4375 756.75 204.3125 756.75 C 197.9375 756.75 197.4375 752.75 197.1875 750.875 C 196.8125 747.625 196.8125 740.75 196.9375 735.75 L 197.1875 718.125 L 208.4375 718.625 L 209.1875 717.875 L 210.4375 704.5 L 209.6875 703.75 L 197.1875 703.75 L 197.5625 682.75 L 196.6875 682 C 188.1875 684.5 185.9375 685.125 177.0625 687.375 L 176.5625 688.25 L 176.6875 703.875 L 169.9375 703.625 L 169.1875 704.25 L 168.0625 717.625 L 168.8125 718.375 L 176.6875 718.125 L 176.3125 738 C 176.1875 741.125 176.0625 744.25 176.0625 747.5 C 176.0625 759 176.3125 771.375 195.8125 771.375 C 200.6875 771.375 204.5625 770.625 208.9375 769.875 L 209.8125 769 L 211.0625 756.125 Z M 274.9375 732.75 C 275.0625 721.5 275.0625 716.625 271.8125 711.375 C 269.3125 707.375 264.3125 702.375 248.3125 702.375 C 237.5625 702.375 230.9375 704.375 223.8125 706.5 L 223.0625 707.5 L 222.4375 721.125 L 223.4375 721.625 C 227.8125 719.875 235.9375 716.625 244.3125 716.625 C 248.9375 716.625 250.8125 717.375 252.4375 719 C 253.6875 720.25 254.0625 722.5 254.0625 724.375 C 239.0625 726.375 232.0625 727.75 224.5625 732.375 C 217.5625 736.75 215.1875 743.875 215.1875 749.5 C 215.1875 762.875 224.8125 771.5 237.0625 771.5 C 246.4375 771.5 251.8125 767 254.4375 764.875 L 254.4375 769.5 L 255.1875 770.375 C 264.1875 770 266.9375 769.875 275.0625 770 L 275.6875 769.125 C 274.8125 756.875 274.8125 753.75 274.8125 742 L 274.9375 732.75 M 254.3125 752.625 C 251.6875 754.125 248.3125 755.875 244.1875 755.875 C 239.6875 755.875 235.9375 753.5 235.9375 748.25 C 235.9375 740 245.8125 738.625 254.3125 737.5 Z M 324.5625 755.625 C 322.4375 756.25 320.9375 756.75 318.8125 756.75 C 312.4375 756.75 311.9375 752.75 311.6875 750.875 C 311.3125 747.625 311.3125 740.75 311.4375 735.75 L 311.6875 718.125 L 322.9375 718.625 L 323.6875 717.875 L 324.9375 704.5 L 324.1875 703.75 L 311.6875 703.75 L 312.0625 682.75 L 311.1875 682 C 302.6875 684.5 300.4375 685.125 291.5625 687.375 L 291.0625 688.25 L 291.1875 703.875 L 284.4375 703.625 L 283.6875 704.25 L 282.5625 717.625 L 283.3125 718.375 L 291.1875 718.125 L 290.8125 738 C 290.6875 741.125 290.5625 744.25 290.5625 747.5 C 290.5625 759 290.8125 771.375 310.3125 771.375 C 315.1875 771.375 319.0625 770.625 323.4375 769.875 L 324.3125 769 L 325.5625 756.125 Z M 389.3125 751.5 C 384.5625 754 378.9375 756.875 369.8125 756.875 C 362.3125 756.875 357.1875 754.5 354.1875 750 C 352.3125 747.375 351.9375 744.875 351.4375 742.375 L 391.8125 741.625 L 392.5625 740.75 C 392.4375 734.625 392.3125 728.375 390.5625 722.125 C 386.1875 707.375 376.5625 704.375 372.3125 703.375 C 369.1875 702.5 366.3125 702.25 363.4375 702.25 C 343.8125 702.25 330.8125 715.125 330.8125 736.75 C 330.8125 742.625 331.8125 748.75 333.8125 753.125 C 341.0625 770 358.0625 771.5 367.0625 771.5 C 377.4375 771.5 381.9375 769.625 388.5625 767 L 389.3125 766 L 390.1875 751.875 L 389.3125 751.5 M 351.4375 729.125 C 351.8125 725.25 352.6875 720 357.4375 717 C 358.9375 716 360.6875 715.625 362.4375 715.625 C 366.5625 715.625 369.0625 717.75 370.4375 720 C 372.1875 722.75 372.3125 725.75 372.3125 728.625 Z M 515.4375 681.375 C 505.4375 681.75 503.8125 681.75 493.3125 681.75 L 492.6875 682.5 C 493.5625 696.625 493.5625 700.25 493.6875 715 C 488.1875 715.125 482.6875 715.25 477.0625 715.25 C 472.6875 715.25 468.1875 715.125 463.8125 715.125 L 464.0625 682.125 L 463.4375 681.375 C 453.8125 681.75 451.9375 681.75 441.0625 681.75 L 440.3125 682.5 C 440.9375 695.375 441.6875 710.75 441.6875 741.75 C 441.6875 753 441.4375 759.125 441.1875 769.625 L 441.8125 770.375 C 450.9375 770 453.1875 769.875 464.1875 770 L 464.8125 769.25 C 464.0625 753.75 463.9375 749.25 463.8125 731.125 C 469.3125 730.875 473.9375 730.75 478.8125 730.75 C 483.8125 730.75 488.8125 730.875 493.8125 731 C 494.0625 747.875 494.0625 752 493.4375 769.625 L 494.0625 770.375 C 503.4375 770 505.9375 769.875 516.5625 770 L 517.1875 769.25 C 516.1875 748.25 515.8125 727.375 515.8125 706.375 C 515.8125 697.625 515.9375 691.75 516.0625 682.125 Z M 554.3125 769.125 C 553.6875 759.5 553.1875 752.125 553.1875 734.875 C 553.1875 724.25 553.4375 713.5 553.5625 702.875 L 552.6875 701.875 L 531.1875 705.625 L 530.4375 706.375 C 531.4375 715.875 531.8125 720.25 531.8125 738 C 531.8125 751.625 531.4375 759.25 531.0625 769.5 L 531.8125 770.375 C 540.8125 770 543.3125 769.875 553.4375 770 L 554.3125 769.125 M 552.3125 689.875 L 552.6875 672.875 L 551.9375 672.125 L 531.5625 674.625 L 530.8125 675.5 C 531.0625 680 531.1875 682.625 531.1875 685.625 C 531.1875 688 531.1875 690.5 531.0625 692.875 L 531.9375 693.625 C 540.4375 692.125 542.8125 691.875 551.6875 690.75 Z M 594.4375 726.875 C 590.1875 725.375 586.8125 724 586.8125 720.5 C 586.8125 719 587.8125 714.875 595.5625 714.875 C 603.1875 714.875 608.0625 718.125 611.1875 720.125 L 612.3125 719.75 L 613.5625 706.125 L 612.9375 705.375 C 607.0625 703.75 601.9375 702.25 593.8125 702.25 C 587.6875 702.25 575.4375 702.75 568.9375 712.125 C 567.3125 714.375 565.5625 718.125 565.5625 723.125 C 565.5625 736.5 575.9375 740.5 581.8125 742.75 L 586.5625 744.5 C 589.9375 745.625 595.4375 747.5 595.4375 752 C 595.4375 755.125 592.5625 758.5 585.5625 758.5 C 582.0625 758.5 576.9375 757.375 572.3125 755 C 570.1875 753.875 569.1875 753 567.3125 751.5 L 566.1875 752 C 565.9375 758.5 565.8125 759.875 565.3125 766.125 L 565.9375 767.25 C 572.0625 769.5 577.3125 771.5 586.4375 771.5 C 595.9375 771.5 614.6875 769.75 616.9375 751.875 C 617.0625 750.875 617.0625 750 617.0625 749.125 C 617.0625 735.375 607.4375 731.75 600.5625 729.125 Z M 663.0625 755.625 C 660.9375 756.25 659.4375 756.75 657.3125 756.75 C 650.9375 756.75 650.4375 752.75 650.1875 750.875 C 649.8125 747.625 649.8125 740.75 649.9375 735.75 L 650.1875 718.125 L 661.4375 718.625 L 662.1875 717.875 L 663.4375 704.5 L 662.6875 703.75 L 650.1875 703.75 L 650.5625 682.75 L 649.6875 682 C 641.1875 684.5 638.9375 685.125 630.0625 687.375 L 629.5625 688.25 L 629.6875 703.875 L 622.9375 703.625 L 622.1875 704.25 L 621.0625 717.625 L 621.8125 718.375 L 629.6875 718.125 L 629.3125 738 C 629.1875 741.125 629.0625 744.25 629.0625 747.5 C 629.0625 759 629.3125 771.375 648.8125 771.375 C 653.6875 771.375 657.5625 770.625 661.9375 769.875 L 662.8125 769 L 664.0625 756.125 Z M 735.9375 736.75 C 735.9375 731.875 735.9375 711.625 718.4375 704.75 C 712.9375 702.625 706.4375 702.375 703.1875 702.375 C 681.4375 702.375 669.1875 714 669.1875 737 C 669.1875 745 670.4375 753.125 675.0625 759.875 C 678.3125 764.75 684.4375 771.5 702.3125 771.5 C 728.8125 771.5 735.9375 755.5 735.9375 736.75 M 714.3125 736.625 C 714.3125 746.875 712.9375 758.25 702.5625 758.25 C 699.3125 758.25 697.0625 756.75 695.5625 755.375 C 693.4375 753.25 691.0625 749 691.0625 736.875 C 691.0625 733.25 691.0625 725.25 693.5625 720.875 C 695.4375 717.5 698.6875 715.25 702.6875 715.25 C 706.1875 715.25 709.0625 717.125 710.6875 719.125 C 713.6875 722.75 714.3125 729.875 714.3125 736.625 Z M 783.9375 723.625 L 787.4375 703.25 L 786.6875 702.375 C 785.8125 702.375 784.9375 702.25 784.0625 702.25 C 778.9375 702.25 773.1875 705.125 769.1875 714.375 L 769.5625 702.875 L 768.5625 701.875 C 759.3125 703.875 756.9375 704.25 747.8125 705.625 L 747.0625 706.375 C 747.8125 715.75 748.1875 721.375 748.1875 738.75 C 748.1875 749 748.0625 759.25 747.8125 769.625 L 748.5625 770.375 C 757.8125 770 759.8125 769.875 769.8125 770 L 770.4375 769.125 C 769.9375 759 769.1875 744.875 769.1875 736.25 C 769.1875 730.625 769.1875 722.375 777.6875 722.375 C 779.8125 722.375 781.0625 723.125 782.8125 724.125 Z M 817.3125 769.125 C 816.6875 759.5 816.1875 752.125 816.1875 734.875 C 816.1875 724.25 816.4375 713.5 816.5625 702.875 L 815.6875 701.875 L 794.1875 705.625 L 793.4375 706.375 C 794.4375 715.875 794.8125 720.25 794.8125 738 C 794.8125 751.625 794.4375 759.25 794.0625 769.5 L 794.8125 770.375 C 803.8125 770 806.3125 769.875 816.4375 770 L 817.3125 769.125 M 815.3125 689.875 L 815.6875 672.875 L 814.9375 672.125 L 794.5625 674.625 L 793.8125 675.5 C 794.0625 680 794.1875 682.625 794.1875 685.625 C 794.1875 688 794.1875 690.5 794.0625 692.875 L 794.9375 693.625 C 803.4375 692.125 805.8125 691.875 814.6875 690.75 Z M 880.0625 752 C 876.6875 754 873.4375 756 867.0625 756 C 852.9375 756 850.0625 744.25 850.0625 736.75 C 850.0625 727.625 854.0625 717.125 866.1875 717.125 C 871.6875 717.125 874.6875 719.125 878.4375 721.625 L 879.6875 721.25 C 880.1875 714.625 880.3125 712.875 881.3125 706.25 L 880.6875 705.5 C 875.1875 703.75 870.4375 702.25 863.1875 702.25 C 833.8125 702.25 828.0625 724.5 828.0625 737.25 C 828.0625 751.625 835.5625 771.125 863.6875 771.125 C 870.3125 771.125 874.5625 769.875 879.8125 768.375 L 880.5625 767.625 L 881.0625 752.625 Z M 883.5625 770 "/>
<path fill-rule="nonzero" fill="rgb(34.901961%, 14.901961%, 14.901961%)" fill-opacity="1" d="M 382.375 831.5 L 366.5 831.75 L 365.75 832.5 C 366.25 848.75 366.625 859.625 366.625 874 C 366.625 889.25 366.25 904.375 365.875 919.625 L 366.625 920.375 C 375.875 920 377.875 919.875 387.875 920 L 388.5 919.25 C 388 905.625 388 902.5 388 889.75 C 402 889.875 417 889.875 426 878.875 C 429.5 874.625 432.5 867.5 432.5 858.75 C 432.5 853.375 431.25 841.5 420.875 835.625 C 413.375 831.25 402.75 831.25 393.375 831.25 L 382.375 831.5 M 388 846.625 C 390.75 846.5 393.375 846.5 396.125 846.5 C 407.125 846.75 410.125 852.375 410.125 859.625 C 410.125 861.375 410.125 868.625 403.5 872.25 C 400.125 874.125 395.5 874.375 388 874.375 Z M 496.75 882.75 C 496.875 871.5 496.875 866.625 493.625 861.375 C 491.125 857.375 486.125 852.375 470.125 852.375 C 459.375 852.375 452.75 854.375 445.625 856.5 L 444.875 857.5 L 444.25 871.125 L 445.25 871.625 C 449.625 869.875 457.75 866.625 466.125 866.625 C 470.75 866.625 472.625 867.375 474.25 869 C 475.5 870.25 475.875 872.5 475.875 874.375 C 460.875 876.375 453.875 877.75 446.375 882.375 C 439.375 886.75 437 893.875 437 899.5 C 437 912.875 446.625 921.5 458.875 921.5 C 468.25 921.5 473.625 917 476.25 914.875 L 476.25 919.5 L 477 920.375 C 486 920 488.75 919.875 496.875 920 L 497.5 919.125 C 496.625 906.875 496.625 903.75 496.625 892 L 496.75 882.75 M 476.125 902.625 C 473.5 904.125 470.125 905.875 466 905.875 C 461.5 905.875 457.75 903.5 457.75 898.25 C 457.75 890 467.625 888.625 476.125 887.5 Z M 547.5 873.625 L 551 853.25 L 550.25 852.375 C 549.375 852.375 548.5 852.25 547.625 852.25 C 542.5 852.25 536.75 855.125 532.75 864.375 L 533.125 852.875 L 532.125 851.875 C 522.875 853.875 520.5 854.25 511.375 855.625 L 510.625 856.375 C 511.375 865.75 511.75 871.375 511.75 888.75 C 511.75 899 511.625 909.25 511.375 919.625 L 512.125 920.375 C 521.375 920 523.375 919.875 533.375 920 L 534 919.125 C 533.5 909 532.75 894.875 532.75 886.25 C 532.75 880.625 532.75 872.375 541.25 872.375 C 543.375 872.375 544.625 873.125 546.375 874.125 Z M 622.5 918.375 C 610.75 898.5 609.5 896.25 600 879.125 C 608.625 867.375 609.5 866.125 618.375 854.75 L 617.75 853.5 L 597.375 853.75 L 596.125 854.625 C 586.375 871.5 585.125 873.5 579.375 882.125 L 579.375 868.25 C 579.5 844.875 579.625 839.875 580.25 821 L 579.25 820.25 L 557.5 823.5 L 556.75 824.375 C 557.625 836.5 558 842.375 558.25 858.75 C 558.5 879 558.5 899.25 558.375 919.5 L 559.25 920.375 C 567.625 920 570 920 579.5 920 L 580.25 919.125 L 579.5 898 L 579.375 883.625 C 590.25 903.625 591.625 906.375 598 919.625 L 599.125 920.375 L 621.625 919.5 Z M 621 920 "/>
</svg>
