<svg xmlns="http://www.w3.org/2000/svg" width="612" height="817" viewBox="0 0 612 817">
  <defs>
    <style>
      .cls-1 {
        fill: #592626;
        fill-rule: evenodd;
      }
    </style>
  </defs>
  <path id="Woodson_Bridge_State_Recreation_Area" data-name="Woodson Bridge State Recreation Area" class="cls-1" d="M195.936,297.6c2.878-14.155,4.122-20.066,12.366-54.208l-0.389-.467c-5.522.233-6.611,0.233-11.821,0.233l-0.467.467c-1.245,8.011-1.633,10.733-3.344,19.677l-2.256,11.9-2.489,13.377c-1.166-8.71-1.555-11.355-3.111-20.376l-2.255-13.066-1.944-11.978-0.467-.544-15.4.389-0.467.466-3.111,17.888L157.749,277.3l-1.944,10.733c-0.934-6.766-1.245-9.022-2.878-18.433l-2.022-11.355-2.567-15.4-0.466-.389c-6.689.467-7.778,0.467-13.455,0.623l-0.389.544c5.677,25.743,6.922,31.654,11.122,54.208l0.466,0.467c7.855-.311,9.955-0.311,17.577-0.233l0.545-.467,1.633-9.644,2.566-14.232,2.8-16.644c0.933,7.622,1.167,9.566,2.567,17.966l1.944,12.132,1.633,10.655,0.389,0.467c7.466-.233,10.033-0.311,18.277-0.233Zm54.445-20.221c0-3.033,0-15.633-10.888-19.91A27.958,27.958,0,0,0,230,255.99c-13.532,0-21.154,7.233-21.154,21.543,0,4.978.778,10.033,3.655,14.233C214.527,294.8,218.338,299,229.46,299,245.948,299,250.381,289.044,250.381,277.378Zm-13.455-.078c0,6.378-.855,13.455-7.31,13.455a6.288,6.288,0,0,1-4.356-1.789c-1.322-1.322-2.8-3.966-2.8-11.51,0-2.256,0-7.233,1.556-9.955a6.44,6.44,0,0,1,5.677-3.5,6.538,6.538,0,0,1,4.978,2.411C236.537,268.667,236.926,273.1,236.926,277.3Zm60.433,0.078c0-3.033,0-15.633-10.888-19.91a27.961,27.961,0,0,0-9.489-1.478c-13.532,0-21.154,7.233-21.154,21.543,0,4.978.777,10.033,3.655,14.233,2.022,3.033,5.833,7.233,16.955,7.233C292.926,299,297.359,289.044,297.359,277.378ZM283.9,277.3c0,6.378-.855,13.455-7.311,13.455a6.288,6.288,0,0,1-4.355-1.789c-1.322-1.322-2.8-3.966-2.8-11.51,0-2.256,0-7.233,1.556-9.955a6.439,6.439,0,0,1,5.677-3.5,6.538,6.538,0,0,1,4.978,2.411C283.515,268.667,283.9,273.1,283.9,277.3Zm58.955,20.3c-0.311-7-.544-11.666-0.544-21.854,0-20.533.311-29.01,0.622-39.276L342.392,236l-12.832,2.022-0.389.467c0.466,7.311.544,9.255,0.466,18.121-5.833-.155-13.143-0.311-19.054,4.356-5.444,4.2-7.7,10.655-7.7,18.665,0,6.067,1.633,12.133,6.222,15.944A16.4,16.4,0,0,0,319.294,299a14.248,14.248,0,0,0,10.266-4.2l-0.156,3.033,0.389,0.467c5.366-.233,6.844-0.233,12.677-0.233Zm-13.222-31.654c0.078,10.344,0,12.366-.233,21.777a9.836,9.836,0,0,1-5.289,1.866c-7.544,0-7.544-9.644-7.544-11.2,0-5.989,1.711-12.677,10.422-12.677A17.462,17.462,0,0,1,329.637,265.945Zm38.423,5.289c-2.644-.934-4.744-1.789-4.744-3.967,0-.933.622-3.5,5.444-3.5a16.881,16.881,0,0,1,9.722,3.267l0.7-.233,0.778-8.478-0.389-.466a39.613,39.613,0,0,0-11.9-1.945c-3.811,0-11.433.311-15.477,6.144a11.694,11.694,0,0,0-2.1,6.845c0,8.321,6.456,10.81,10.111,12.21l2.955,1.089c2.1,0.7,5.522,1.866,5.522,4.666,0,1.945-1.789,4.045-6.144,4.045a19.458,19.458,0,0,1-8.244-2.178,17.186,17.186,0,0,1-3.111-2.178l-0.7.311c-0.155,4.045-.233,4.9-0.544,8.789l0.389,0.7c3.811,1.4,7.077,2.644,12.755,2.644,5.91,0,17.576-1.089,18.976-12.21a13.154,13.154,0,0,0,.078-1.711c0-8.556-5.988-10.811-10.266-12.444Zm60.51,6.144c0-3.033,0-15.633-10.888-19.91a27.961,27.961,0,0,0-9.489-1.478c-13.532,0-21.154,7.233-21.154,21.543,0,4.978.777,10.033,3.655,14.233,2.022,3.033,5.833,7.233,16.955,7.233C424.137,299,428.57,289.044,428.57,277.378Zm-13.455-.078c0,6.378-.855,13.455-7.311,13.455a6.288,6.288,0,0,1-4.355-1.789c-1.322-1.322-2.8-3.966-2.8-11.51,0-2.256,0-7.233,1.556-9.955a6.439,6.439,0,0,1,5.677-3.5,6.538,6.538,0,0,1,4.978,2.411C414.726,268.667,415.115,273.1,415.115,277.3Zm58.955,20.221c-0.389-6.844-.389-9.021-0.544-16.643v-6.067c-0.078-7.466-.156-11.044-2.1-14.232-2.411-4.045-6.844-4.667-9.644-4.667-4.744,0-8.866,2.489-12.444,4.589l0.156-4.278-0.778-.544c-5.989,1.244-7.311,1.478-13.144,2.255l-0.467.545a216.123,216.123,0,0,1,1.089,24.343c0,4.978-.078,9.955-0.155,14.933l0.466,0.466c5.6-.233,6.767-0.233,12.989-0.233l0.466-.467c-0.466-11.977-.544-15.01-0.622-28.932,1.633-1.088,3.5-2.411,5.989-2.411,4.277,0,4.666,4.589,4.9,7.389,0.156,2.567.234,13.222,0.234,16.177,0,2.644-.078,5.366-0.078,8.011l0.467,0.466c5.133-.155,6.455-0.233,12.677-0.233ZM104.471,391.4c7.233,0.156,16.177.311,22.01-3.733a15.459,15.459,0,0,0,6.533-13.144c0-4.977-2.1-9.566-6.533-11.744a17.2,17.2,0,0,0-4.822-1.4c2.645-1.088,5.756-2.488,7.778-6.61a12.624,12.624,0,0,0,1.244-5.445,13.055,13.055,0,0,0-3.111-8.71c-3.266-3.5-8.322-4.433-15.943-4.433-2.645,0-7.389.077-10.033,0.155l-10.889.156-0.467.466c0.311,7.467.389,10.344,0.389,21.077,0,11.044-.078,22.01-0.233,33.054l0.544,0.311h13.532Zm-0.544-23.643c5.911-.156,9.333-0.156,11.588,1.166a7.17,7.17,0,0,1,3.111,6.378,6.685,6.685,0,0,1-4.822,6.688c-2.333.778-6.533,0.778-9.877,0.7V367.756Zm0-22.866c1.633,0,3.811-.078,5.133-0.078,4.2,0,8.011,1.478,8.011,6.533a6.867,6.867,0,0,1-3.967,6.3c-1.944.856-6.066,0.856-9.177,0.856V344.89Zm58.8,17.655,2.178-12.677-0.466-.545c-0.545,0-1.089-.077-1.634-0.077-3.188,0-6.766,1.788-9.255,7.544l0.233-7.156-0.622-.622c-5.755,1.245-7.233,1.478-12.91,2.333l-0.467.467c0.467,5.833.7,9.333,0.7,20.144,0,6.377-.078,12.755-0.233,19.21l0.466,0.466c5.756-.233,7-0.311,13.222-0.233l0.389-.544c-0.311-6.3-.778-15.088-0.778-20.455,0-3.5,0-8.633,5.289-8.633a5.826,5.826,0,0,1,3.189,1.089Zm20.768,28.31c-0.389-5.989-.7-10.578-0.7-21.31,0-6.611.155-13.3,0.233-19.911l-0.545-.622-13.377,2.333-0.466.467c0.622,5.911.855,8.633,0.855,19.677,0,8.477-.233,13.222-0.466,19.6l0.466,0.544c5.6-.233,7.155-0.311,13.455-0.233Zm-1.245-49.309,0.233-10.577-0.466-.467-12.677,1.556-0.467.544c0.156,2.8.233,4.433,0.233,6.3,0,1.477,0,3.033-.077,4.511l0.544,0.466c5.289-.933,6.766-1.089,12.288-1.789Zm47.988,49.386c-0.311-7-.545-11.666-0.545-21.854,0-20.532.312-29.01,0.623-39.276l-0.545-.467-12.833,2.023-0.388.466c0.466,7.311.544,9.255,0.466,18.122-5.833-.156-13.144-0.312-19.054,4.355-5.445,4.2-7.7,10.655-7.7,18.666,0,6.066,1.633,12.132,6.222,15.943a16.4,16.4,0,0,0,10.188,3.422,14.248,14.248,0,0,0,10.266-4.2l-0.155,3.033,0.389,0.466c5.366-.233,6.844-0.233,12.677-0.233Zm-13.222-31.654c0.078,10.344,0,12.367-.233,21.777a9.84,9.84,0,0,1-5.289,1.867c-7.544,0-7.544-9.644-7.544-11.2,0-5.988,1.711-12.677,10.422-12.677A17.483,17.483,0,0,1,217.015,359.278Zm36.4,18.977a21.808,21.808,0,0,0,8.71-1.011c4.045-1.4,9.956-4.744,9.956-12.288a10.172,10.172,0,0,0-2.1-6.766l5.366,0.311,0.467-.389,0.544-7.778-0.467-.388c-5.988.233-7.621,0.311-12.521,0.233l-3.578-.078c-5.522-.155-12.91-0.311-17.966,3.889a13.047,13.047,0,0,0-4.977,10.5,12.593,12.593,0,0,0,2.255,7.544,13.361,13.361,0,0,0,5.211,4.356c-2.177,4.2-3.344,6.3-5.133,9.488v0.7l3.267,2.333c-2.334,1.789-5.989,4.745-5.989,9.8a10.964,10.964,0,0,0,4.822,8.788c4.355,3.111,10.266,3.267,13.3,3.267,14.233,0,20.766-7.155,20.766-14.7,0-9.8-8.555-11.667-13.61-12.833l-1.867-.311a32.7,32.7,0,0,1-7.7-1.945Zm6.377-14c-0.078,6.3-3.888,6.844-4.977,6.844a5.031,5.031,0,0,1-4.667-3.266,10.719,10.719,0,0,1-.7-4.045c0-3.888,2.334-6.377,5.211-6.377C258.238,357.412,259.871,360.834,259.793,364.256Zm-6.611,29.01c6.922,1.789,7,1.789,7.933,2.566a3.429,3.429,0,0,1,1.556,3.033c0,2.334-1.944,4.745-7.078,4.745-5.755,0-7.7-3.267-7.7-5.989a7.392,7.392,0,0,1,2.255-5.133Zm62.611-13.377a23.779,23.779,0,0,1-12.133,3.344c-4.667,0-7.855-1.478-9.722-4.278a11,11,0,0,1-1.711-4.744l25.121-.467,0.467-.544a45.6,45.6,0,0,0-1.245-11.588c-2.722-9.178-8.71-11.044-11.355-11.666a19.9,19.9,0,0,0-5.522-.7c-12.21,0-20.3,8.01-20.3,21.465a25.875,25.875,0,0,0,1.867,10.189c4.511,10.5,15.088,11.432,20.688,11.432,6.455,0,9.255-1.166,13.377-2.8l0.467-.623,0.544-8.788Zm-23.566-13.922c0.233-2.411.778-5.677,3.733-7.544a5.969,5.969,0,0,1,8.089,1.867,9.5,9.5,0,0,1,1.166,5.366Zm77.933-8.011c-6.533-2.722-9.955-4.122-9.955-7.622,0-2.411,2.255-5.444,7.388-5.444,5.911,0,9.411,2.411,12.289,4.356l0.7-.312,0.622-10.188-0.389-.544a31.855,31.855,0,0,0-14.388-2.878c-14.622,0-19.677,8.244-19.677,16.566,0,9.411,7.311,12.833,11.666,14.933l2.566,1.166c5.367,2.256,9.489,4.2,9.489,8.322,0,2.955-2.567,6.455-9.333,6.455a19.839,19.839,0,0,1-13.3-4.9l-0.778.234-0.545,10.966,0.467,0.622c0.856,0.311,1.711.7,2.567,0.933a38.707,38.707,0,0,0,12.21,1.945c2.333,0,8.244-.234,12.911-2.411,6.533-3.189,9.333-9.1,9.333-15.711a15.415,15.415,0,0,0-5.833-12.366,31.556,31.556,0,0,0-5.989-3.344Zm43.011,24.5a11.675,11.675,0,0,1-3.578.7c-3.966,0-4.277-2.489-4.433-3.655a89.18,89.18,0,0,1-.155-9.411l0.155-10.966,7,0.311,0.467-.467,0.777-8.321-0.466-.467H405.16l0.234-13.066-0.545-.467c-5.289,1.556-6.688,1.945-12.21,3.344l-0.312.545,0.078,9.722-4.2-.156-0.466.389-0.7,8.322,0.466,0.466,4.9-.155-0.233,12.366c-0.078,1.944-.156,3.889-0.156,5.911,0,7.155.156,14.855,12.289,14.855a45.168,45.168,0,0,0,8.166-.934l0.544-.544,0.778-8.011Zm40.366-14.233c0.078-7,.078-10.032-1.944-13.3-1.556-2.489-4.667-5.6-14.622-5.6a47.345,47.345,0,0,0-15.244,2.567l-0.466.622-0.389,8.477,0.622,0.312c2.722-1.089,7.777-3.111,12.988-3.111,2.878,0,4.045.466,5.056,1.477a4.909,4.909,0,0,1,1.011,3.345c-9.333,1.244-13.688,2.1-18.355,4.977a12.437,12.437,0,0,0-5.833,10.655c0,8.322,5.989,13.688,13.61,13.688a16.074,16.074,0,0,0,10.811-4.122v2.878l0.467,0.544c5.6-.233,7.31-0.311,12.366-0.233l0.389-.544c-0.545-7.622-.545-9.567-0.545-16.877ZM440.7,380.589a12.6,12.6,0,0,1-6.3,2.022c-2.8,0-5.134-1.478-5.134-4.745,0-5.133,6.145-5.988,11.433-6.688v9.411Zm43.711,1.866a11.669,11.669,0,0,1-3.577.7c-3.967,0-4.278-2.489-4.433-3.655a88.88,88.88,0,0,1-.156-9.411l0.156-10.966,7,0.311,0.467-.467,0.778-8.321-0.467-.467h-7.777l0.233-13.066-0.544-.467c-5.289,1.556-6.689,1.945-12.211,3.344l-0.311.545,0.078,9.722-4.2-.156-0.467.389-0.7,8.322,0.467,0.466,4.9-.155-0.234,12.366c-0.077,1.944-.155,3.889-0.155,5.911,0,7.155.155,14.855,12.288,14.855a45.168,45.168,0,0,0,8.166-.934l0.545-.544,0.778-8.011Zm38.733-2.566a23.773,23.773,0,0,1-12.133,3.344c-4.666,0-7.855-1.478-9.721-4.278a11,11,0,0,1-1.711-4.744l25.121-.467,0.466-.544a45.593,45.593,0,0,0-1.244-11.588c-2.722-9.178-8.711-11.044-11.355-11.666a19.9,19.9,0,0,0-5.522-.7c-12.211,0-20.3,8.01-20.3,21.465a25.893,25.893,0,0,0,1.866,10.189c4.511,10.5,15.089,11.432,20.688,11.432,6.456,0,9.255-1.166,13.377-2.8l0.467-.623,0.545-8.788Zm-23.565-13.922c0.233-2.411.777-5.677,3.733-7.544a5.967,5.967,0,0,1,8.088,1.867,9.5,9.5,0,0,1,1.167,5.366ZM133.56,463.345a236.346,236.346,0,0,1,11.355,21.387l0.622,0.389c2.411-.155,4.744-0.311,7.155-0.389s4.9-.155,7.311-0.155l0.467-.933c-2.956-3.811-3.811-4.978-9.411-13.922-2.489-3.966-3.733-6.066-5.677-9.488,3.5-1.556,10.577-4.822,10.577-14.7,0-3.422-.933-10.5-7.311-13.843-4.044-2.1-8.244-2.178-17.343-2.023l-5.445.078h-9.488l-0.389.467c0.311,7.855.622,15.944,0.622,37.1,0,7.233-.077,10.733-0.311,17.188l0.467,0.467c5.677-.234,6.922-0.311,13.3-0.234l0.467-.466c-0.622-9.022-.7-11.511-0.778-20.766Zm-3.655-24.188c1.089-.078,2.177-0.078,3.266-0.078,3.033,0,9.022,0,9.022,6.844a7.564,7.564,0,0,1-3.422,6.844c-2.178,1.322-4.978,1.478-8.866,1.556V439.157Zm69.221,34.065a23.773,23.773,0,0,1-12.133,3.344c-4.666,0-7.855-1.478-9.722-4.277a11.018,11.018,0,0,1-1.711-4.745l25.121-.466,0.467-.545a45.643,45.643,0,0,0-1.244-11.588c-2.722-9.177-8.711-11.044-11.355-11.666a19.9,19.9,0,0,0-5.522-.7c-12.211,0-20.3,8.011-20.3,21.466a25.891,25.891,0,0,0,1.866,10.188c4.511,10.5,15.088,11.433,20.688,11.433,6.455,0,9.255-1.167,13.377-2.8l0.467-.622,0.544-8.789ZM175.56,459.3c0.234-2.411.778-5.677,3.734-7.544a5.97,5.97,0,0,1,8.088,1.867,9.5,9.5,0,0,1,1.167,5.366Zm63.155,14.233a13.856,13.856,0,0,1-8.089,2.489c-8.788,0-10.577-7.311-10.577-11.977,0-5.678,2.489-12.211,10.033-12.211,3.422,0,5.289,1.244,7.622,2.8l0.778-.233c0.311-4.122.389-5.211,1.011-9.333L239.1,444.6a32.334,32.334,0,0,0-10.889-2.022c-18.276,0-21.854,13.844-21.854,21.777,0,8.944,4.666,21.076,22.166,21.076a32.545,32.545,0,0,0,10.032-1.711l0.467-.466,0.311-9.333Zm29.323-17.655,2.177-12.677-0.466-.544c-0.545,0-1.089-.078-1.634-0.078-3.188,0-6.766,1.789-9.255,7.544l0.234-7.155-0.623-.622c-5.755,1.244-7.233,1.477-12.91,2.333l-0.467.466c0.467,5.834.7,9.333,0.7,20.144,0,6.377-.078,12.755-0.233,19.21l0.467,0.467c5.755-.234,7-0.311,13.221-0.234l0.389-.544c-0.311-6.3-.778-15.088-0.778-20.455,0-3.5,0-8.632,5.289-8.632a5.825,5.825,0,0,1,3.189,1.088Zm41.221,17.344a23.773,23.773,0,0,1-12.133,3.344c-4.666,0-7.855-1.478-9.721-4.277a11,11,0,0,1-1.711-4.745l25.121-.466,0.466-.545a45.553,45.553,0,0,0-1.244-11.588c-2.722-9.177-8.711-11.044-11.355-11.666a19.9,19.9,0,0,0-5.522-.7c-12.211,0-20.3,8.011-20.3,21.466a25.873,25.873,0,0,0,1.867,10.188c4.51,10.5,15.088,11.433,20.687,11.433,6.456,0,9.256-1.167,13.378-2.8l0.466-.622,0.545-8.789ZM285.694,459.3c0.233-2.411.777-5.677,3.733-7.544a5.97,5.97,0,0,1,8.088,1.867,9.5,9.5,0,0,1,1.167,5.366Zm67.354,2.256c0.078-7,.078-10.033-1.944-13.3-1.556-2.488-4.667-5.6-14.622-5.6a47.336,47.336,0,0,0-15.243,2.566l-0.467.622-0.389,8.478,0.622,0.311c2.722-1.089,7.778-3.111,12.988-3.111,2.878,0,4.045.467,5.056,1.478a4.9,4.9,0,0,1,1.011,3.344c-9.333,1.244-13.688,2.1-18.355,4.977a12.44,12.44,0,0,0-5.833,10.656c0,8.321,5.989,13.688,13.611,13.688a16.079,16.079,0,0,0,10.81-4.122v2.877l0.467,0.545c5.6-.234,7.311-0.311,12.366-0.234l0.389-.544c-0.545-7.622-.545-9.566-0.545-16.877Zm-12.833,12.366a12.6,12.6,0,0,1-6.3,2.022c-2.8,0-5.133-1.478-5.133-4.744,0-5.133,6.144-5.989,11.432-6.689v9.411Zm43.712,1.866a11.68,11.68,0,0,1-3.578.7c-3.967,0-4.278-2.488-4.433-3.655a88.88,88.88,0,0,1-.156-9.411l0.156-10.966,7,0.311,0.467-.466,0.778-8.322-0.467-.467h-7.777l0.233-13.066-0.544-.466c-5.289,1.555-6.689,1.944-12.211,3.344l-0.311.544,0.078,9.722-4.2-.156-0.467.389-0.7,8.322,0.467,0.467,4.9-.156-0.233,12.366c-0.078,1.945-.156,3.889-0.156,5.911,0,7.155.156,14.855,12.288,14.855a45.281,45.281,0,0,0,8.167-.933l0.544-.545,0.778-8.01Zm19.833,8.4c-0.389-5.989-.7-10.577-0.7-21.31,0-6.611.156-13.3,0.234-19.91l-0.545-.622-13.377,2.333-0.467.466c0.623,5.911.856,8.633,0.856,19.677,0,8.478-.233,13.222-0.467,19.6l0.467,0.545c5.6-.234,7.155-0.311,13.455-0.234Zm-1.244-49.309,0.233-10.577-0.466-.467-12.678,1.556-0.466.544c0.155,2.8.233,4.433,0.233,6.3,0,1.478,0,3.033-.078,4.511l0.545,0.467c5.288-.934,6.766-1.089,12.288-1.789Zm49.465,29.166c0-3.034,0-15.633-10.888-19.911a27.953,27.953,0,0,0-9.489-1.477c-13.532,0-21.154,7.233-21.154,21.543,0,4.978.778,10.033,3.655,14.233,2.022,3.033,5.833,7.233,16.955,7.233C447.548,485.666,451.981,475.711,451.981,464.045Zm-13.455-.078c0,6.377-.855,13.455-7.31,13.455a6.293,6.293,0,0,1-4.356-1.789c-1.322-1.322-2.8-3.967-2.8-11.511,0-2.255,0-7.233,1.556-9.955a6.44,6.44,0,0,1,5.677-3.5,6.541,6.541,0,0,1,4.978,2.411C438.137,455.334,438.526,459.767,438.526,463.967Zm58.955,20.221c-0.389-6.844-.389-9.022-0.544-16.644v-6.066c-0.078-7.466-.156-11.044-2.1-14.233-2.411-4.044-6.844-4.666-9.644-4.666-4.744,0-8.866,2.489-12.444,4.589l0.156-4.278-0.778-.544c-5.989,1.244-7.311,1.477-13.144,2.255l-0.467.544a216.158,216.158,0,0,1,1.089,24.344c0,4.977-.077,9.955-0.155,14.932l0.466,0.467c5.6-.233,6.767-0.233,12.989-0.233l0.466-.467c-0.466-11.977-.544-15.01-0.622-28.932,1.633-1.089,3.5-2.411,5.989-2.411,4.277,0,4.666,4.589,4.9,7.389,0.156,2.566.234,13.221,0.234,16.177,0,2.644-.078,5.366-0.078,8.01l0.467,0.467c5.133-.156,6.455-0.233,12.677-0.233ZM258.354,522.924c-7.466.233-9.022,0.233-17.344,0.233l-0.544.467c-4.122,13.222-6.611,21.077-18.044,53.9l0.311,0.545h12.133l0.544-.467,3.811-14.155h16.8l3.344,14.388,0.544,0.467c5.678-.233,7.233-0.311,13.533-0.233l0.389-.622c-9.411-33.288-10.5-36.943-14.933-54.053Zm-16.411,31.11,3.889-13.144,2.722-9.1,2.334,10.111,2.877,12.133H241.943Zm59.345-4.822,2.177-12.678L303,535.99c-0.545,0-1.089-.078-1.634-0.078-3.188,0-6.766,1.789-9.255,7.544l0.234-7.155-0.623-.622c-5.755,1.244-7.233,1.478-12.91,2.333l-0.467.467c0.467,5.833.7,9.333,0.7,20.143,0,6.378-.078,12.755-0.233,19.21l0.467,0.467c5.755-.233,7-0.311,13.221-0.233l0.389-.545c-0.311-6.3-.778-15.088-0.778-20.454,0-3.5,0-8.633,5.289-8.633a5.826,5.826,0,0,1,3.189,1.089Zm41.221,17.343a23.763,23.763,0,0,1-12.133,3.345c-4.666,0-7.855-1.478-9.721-4.278a11,11,0,0,1-1.711-4.744l25.121-.467,0.466-.544a45.56,45.56,0,0,0-1.244-11.589c-2.722-9.177-8.711-11.044-11.355-11.666a19.933,19.933,0,0,0-5.522-.7c-12.211,0-20.3,8.011-20.3,21.466a25.873,25.873,0,0,0,1.867,10.188c4.51,10.5,15.088,11.433,20.687,11.433,6.456,0,9.256-1.167,13.378-2.8l0.466-.622,0.545-8.788Zm-23.565-13.921c0.233-2.411.777-5.678,3.733-7.544a5.968,5.968,0,0,1,8.088,1.866,9.5,9.5,0,0,1,1.167,5.367Zm67.354,2.255c0.078-7,.078-10.033-1.944-13.3-1.556-2.489-4.667-5.6-14.622-5.6a47.306,47.306,0,0,0-15.243,2.567l-0.467.622-0.389,8.477,0.622,0.311c2.722-1.089,7.778-3.111,12.988-3.111,2.878,0,4.045.467,5.056,1.478a4.9,4.9,0,0,1,1.011,3.344c-9.333,1.245-13.688,2.1-18.355,4.978a12.437,12.437,0,0,0-5.833,10.655c0,8.322,5.989,13.688,13.611,13.688a16.079,16.079,0,0,0,10.81-4.122v2.878l0.467,0.544c5.6-.233,7.311-0.311,12.366-0.233l0.389-.545c-0.545-7.621-.545-9.566-0.545-16.877Zm-12.833,12.366a12.6,12.6,0,0,1-6.3,2.022c-2.8,0-5.133-1.477-5.133-4.744,0-5.133,6.144-5.989,11.432-6.688v9.41Z"/>
</svg>
