<svg xmlns="http://www.w3.org/2000/svg" width="612" height="817" viewBox="0 0 612 817">
  <defs>
    <style>
      .cls-1 {
        fill: #592626;
        fill-rule: evenodd;
      }
    </style>
  </defs>
  <path id="Bidwell-Sacramento_River_State_Park" data-name="Bidwell-Sacramento River State Park" class="cls-1" d="M33.242,390.066c5.683,0.122,12.711.244,17.295-2.934a12.146,12.146,0,0,0,5.133-10.327c0-3.912-1.65-7.517-5.133-9.228a13.5,13.5,0,0,0-3.789-1.1c2.078-.856,4.522-1.956,6.111-5.195a9.908,9.908,0,0,0,.978-4.277,10.26,10.26,0,0,0-2.444-6.845c-2.567-2.75-6.539-3.483-12.528-3.483-2.078,0-5.806.061-7.883,0.122l-8.556.122-0.367.367c0.244,5.866.306,8.128,0.306,16.561,0,8.678-.061,17.3-0.183,25.972l0.428,0.245H33.242Zm-0.428-18.578c4.645-.122,7.333-0.122,9.106.917a5.634,5.634,0,0,1,2.444,5.011,5.253,5.253,0,0,1-3.789,5.255c-1.833.611-5.133,0.611-7.761,0.55V371.488Zm0-17.967c1.283,0,2.995-.061,4.033-0.061,3.3,0,6.294,1.161,6.294,5.133a5.4,5.4,0,0,1-3.117,4.95c-1.528.673-4.767,0.673-7.211,0.673V353.521Zm39.6,36.117c-0.306-4.706-.55-8.311-0.55-16.745,0-5.194.122-10.45,0.183-15.644l-0.428-.489-10.511,1.833-0.367.367a115.893,115.893,0,0,1,.672,15.461c0,6.661-.183,10.389-0.367,15.4l0.367,0.428c4.4-.183,5.622-0.244,10.572-0.183Zm-0.978-38.745,0.183-8.311-0.367-.366-9.961,1.222-0.367.428c0.122,2.2.183,3.483,0.183,4.95,0,1.161,0,2.383-.061,3.544l0.428,0.367c4.156-.734,5.317-0.856,9.656-1.406ZM109.142,389.7c-0.245-5.5-.428-9.167-0.428-17.172,0-16.134.245-22.795,0.489-30.861l-0.428-.367-10.083,1.589-0.305.366c0.367,5.745.428,7.273,0.367,14.239-4.583-.122-10.328-0.244-14.972,3.423-4.278,3.3-6.05,8.372-6.05,14.666,0,4.767,1.283,9.534,4.889,12.528a12.885,12.885,0,0,0,8.006,2.689,11.2,11.2,0,0,0,8.067-3.3l-0.122,2.383,0.306,0.367c4.217-.183,5.378-0.183,9.961-0.183ZM98.753,364.827c0.061,8.128,0,9.716-.183,17.111a7.731,7.731,0,0,1-4.156,1.467c-5.928,0-5.928-7.578-5.928-8.8,0-4.706,1.344-9.962,8.189-9.962A13.719,13.719,0,0,1,98.753,364.827Zm55.122,24.811c2.445-9.472,2.872-10.939,6.539-24.078,0.734-2.5,1.406-5.072,2.078-7.578l-0.367-.489-7.944.184-0.428.428-1.772,9.166-1.711,7.395-1.161,5.622-1.039-5.439-1.345-6.356-2.139-10.572-0.366-.428-11.734.184-0.428.428-2.016,10.022-1.467,6.722-1.161,5.622-1.161-6.05-1.467-6.6-2.078-10.144-0.366-.306-9.9.734-0.367.488c5.745,20.167,6.661,23.773,8.372,31.289l0.428,0.367c4.217-.183,5.745-0.244,11.367-0.183l0.366-.428,1.589-7.456,1.711-7.394,1.528-7.4,0.917,4.645,0.917,4.522,2.566,13.261,0.428,0.428c4.522-.183,6.356-0.244,11.245-0.183Zm38.989-8.617a18.668,18.668,0,0,1-9.533,2.628c-3.667,0-6.173-1.161-7.639-3.361a8.653,8.653,0,0,1-1.345-3.728l19.739-.367,0.367-.427a35.806,35.806,0,0,0-.978-9.106c-2.139-7.211-6.844-8.678-8.922-9.167a15.681,15.681,0,0,0-4.339-.55c-9.594,0-15.95,6.3-15.95,16.867a20.339,20.339,0,0,0,1.467,8.006c3.544,8.25,11.855,8.983,16.255,8.983a23.6,23.6,0,0,0,10.511-2.2l0.367-.489,0.428-6.905Zm-18.517-10.939c0.184-1.894.611-4.461,2.934-5.927a4.688,4.688,0,0,1,6.355,1.466,7.465,7.465,0,0,1,.917,4.217Zm36.484,19.556c-0.306-7.028-.611-13.445-0.611-32.756,0-5.805.061-8.555,0.305-15.155L210.1,341.3l-10.45,1.65-0.244.367c0.611,7.455.672,9.472,0.794,19.372,0.061,3.605.061,7.211,0.061,10.817,0,6.6-.122,10.266-0.366,16.316l0.366,0.428c4.095-.183,5.745-0.244,10.206-0.183Zm17.844,0c-0.305-7.028-.611-13.445-0.611-32.756,0-5.805.061-8.555,0.306-15.155l-0.428-.428-10.45,1.65-0.245.367c0.611,7.455.672,9.472,0.795,19.372,0.061,3.605.061,7.211,0.061,10.817,0,6.6-.122,10.266-0.367,16.316l0.367,0.428c4.094-.183,5.744-0.244,10.2-0.183Zm23.956-20.778c-2.934.061-5.317,0.122-8.923,0.122-2.933,0-5.866-.061-8.739-0.061l-0.427.367-0.367,7.028,0.306,0.366c3.422-.061,5.439-0.122,8.677-0.122,3,0,5.989.061,8.984,0.061l0.366-.366,0.428-7.089Zm23.711-5.072c-5.134-2.139-7.822-3.239-7.822-5.989,0-1.895,1.772-4.278,5.805-4.278,4.645,0,7.4,1.895,9.656,3.422l0.55-.244,0.489-8.006-0.306-.427A25.032,25.032,0,0,0,273.408,346c-11.488,0-15.461,6.478-15.461,13.017,0,7.395,5.745,10.084,9.167,11.734l2.017,0.916c4.216,1.772,7.455,3.3,7.455,6.539,0,2.322-2.016,5.072-7.333,5.072a15.588,15.588,0,0,1-10.45-3.85l-0.611.184-0.428,8.616,0.367,0.489c0.672,0.245,1.344.55,2.016,0.734a30.446,30.446,0,0,0,9.6,1.527,26.022,26.022,0,0,0,10.144-1.894c5.134-2.506,7.334-7.15,7.334-12.345a12.111,12.111,0,0,0-4.584-9.716,24.78,24.78,0,0,0-4.705-2.628Zm43.878,8.067c0.061-5.5.061-7.884-1.528-10.45-1.222-1.956-3.667-4.4-11.489-4.4a37.188,37.188,0,0,0-11.978,2.016l-0.367.489-0.305,6.661,0.489,0.245c2.139-.856,6.111-2.445,10.205-2.445,2.261,0,3.178.367,3.973,1.161a3.854,3.854,0,0,1,.794,2.628c-7.333.978-10.756,1.65-14.422,3.911a9.773,9.773,0,0,0-4.584,8.373A10.316,10.316,0,0,0,301.7,390.8a12.633,12.633,0,0,0,8.494-3.239v2.261l0.367,0.428c4.4-.183,5.744-0.244,9.717-0.183l0.305-.428c-0.427-5.989-.427-7.517-0.427-13.261Zm-10.084,9.716a9.887,9.887,0,0,1-4.95,1.589c-2.2,0-4.033-1.161-4.033-3.728,0-4.033,4.828-4.705,8.983-5.255v7.394Zm41.128-.305a10.883,10.883,0,0,1-6.355,1.955c-6.906,0-8.312-5.744-8.312-9.411,0-4.461,1.956-9.594,7.884-9.594,2.689,0,4.155.977,5.989,2.2l0.611-.184c0.244-3.239.305-4.094,0.794-7.333l-0.305-.367a25.421,25.421,0,0,0-8.556-1.589c-14.361,0-17.172,10.878-17.172,17.112,0,7.027,3.666,16.561,17.416,16.561a25.581,25.581,0,0,0,7.884-1.345l0.367-.366,0.244-7.334ZM374.3,367.393l1.711-9.961-0.367-.427c-0.427,0-.855-0.062-1.283-0.062-2.506,0-5.317,1.406-7.272,5.928l0.183-5.622-0.489-.489c-4.522.978-5.683,1.161-10.144,1.833l-0.367.367c0.367,4.583.55,7.333,0.55,15.828,0,5.011-.061,10.022-0.183,15.094l0.366,0.367c4.523-.183,5.5-0.244,10.389-0.183l0.306-.428c-0.245-4.95-.611-11.856-0.611-16.072,0-2.75,0-6.784,4.155-6.784a4.577,4.577,0,0,1,2.506.856Zm32.45,4.462c0.061-5.5.061-7.884-1.528-10.45-1.222-1.956-3.667-4.4-11.489-4.4a37.2,37.2,0,0,0-11.978,2.016l-0.366.489-0.306,6.661,0.489,0.245c2.139-.856,6.111-2.445,10.206-2.445,2.261,0,3.177.367,3.972,1.161a3.854,3.854,0,0,1,.794,2.628c-7.333.978-10.755,1.65-14.422,3.911a9.774,9.774,0,0,0-4.583,8.373A10.316,10.316,0,0,0,388.236,390.8a12.636,12.636,0,0,0,8.5-3.239v2.261l0.366,0.428c4.4-.183,5.745-0.244,9.717-0.183l0.306-.428c-0.428-5.989-.428-7.517-0.428-13.261Zm-10.083,9.716a9.894,9.894,0,0,1-4.95,1.589c-2.2,0-4.034-1.161-4.034-3.728,0-4.033,4.828-4.705,8.984-5.255v7.394Zm64.961,8.067c-0.306-5.683-.367-7.272-0.367-14.178v-4.583c0.061-4.1.122-7.884-1.65-10.45-2.383-3.484-6.6-3.484-7.578-3.484-5.011,0-8.372,2.262-10.816,3.973-0.856-1.406-2.384-3.973-7.273-3.973-4.033,0-6.661,1.834-9.472,3.789V357.31l-0.55-.55c-4.767.917-6.111,1.161-10.389,1.772l-0.367.428c0.489,4.889.856,8.25,0.856,20.35,0,3.484-.061,7.028-0.061,10.511l0.306,0.367c3.911-.122,5.255-0.183,10.327-0.183l0.367-.367c-0.428-9.411-.489-12.222-0.55-22.856a7.511,7.511,0,0,1,4.217-1.711c3.789,0,3.911,4.339,3.911,9.595,0,8.861-.061,10.2-0.184,15.155l0.367,0.428c4.645-.244,5.928-0.244,10.145-0.244l0.366-.367c-0.366-5.806-.427-7.517-0.489-14.911v-2.261l-0.061-6.173a7.548,7.548,0,0,1,4.217-1.527c3.483,0,4.033,3.3,4.033,8.555,0,1.161-.061,2.322-0.061,3.484-0.061,2.077-.122,11.183-0.183,13.016l0.367,0.367c4.583-.183,5.927-0.183,10.2-0.183Zm34.161-8.617a18.669,18.669,0,0,1-9.534,2.628c-3.666,0-6.172-1.161-7.638-3.361a8.653,8.653,0,0,1-1.345-3.728l19.739-.367,0.367-.427a35.806,35.806,0,0,0-.978-9.106c-2.139-7.211-6.844-8.678-8.922-9.167a15.686,15.686,0,0,0-4.339-.55c-9.595,0-15.95,6.3-15.95,16.867a20.357,20.357,0,0,0,1.466,8.006c3.545,8.25,11.856,8.983,16.256,8.983a23.608,23.608,0,0,0,10.511-2.2l0.367-.489,0.428-6.905Zm-18.517-10.939c0.183-1.894.611-4.461,2.933-5.927a4.69,4.69,0,0,1,6.356,1.466,7.465,7.465,0,0,1,.917,4.217Zm55.672,19.556c-0.3-5.378-.3-7.089-0.427-13.078v-4.767c-0.062-5.866-.123-8.677-1.65-11.183-1.895-3.178-5.378-3.667-7.578-3.667-3.728,0-6.967,1.956-9.778,3.606l0.122-3.361-0.611-.428c-4.7.978-5.744,1.161-10.328,1.772l-0.366.428a170.247,170.247,0,0,1,.855,19.128c0,3.911-.061,7.822-0.122,11.733l0.367,0.367c4.4-.183,5.316-0.183,10.2-0.183l0.367-.367c-0.367-9.411-.428-11.794-0.489-22.733a8.387,8.387,0,0,1,4.706-1.895c3.361,0,3.666,3.606,3.85,5.806,0.122,2.016.183,10.389,0.183,12.711,0,2.078-.061,4.217-0.061,6.294l0.366,0.367c4.034-.122,5.073-0.183,9.962-0.183Zm24.078-6.6a9.161,9.161,0,0,1-2.811.55c-3.117,0-3.361-1.956-3.483-2.872a69.87,69.87,0,0,1-.123-7.395l0.123-8.616,5.5,0.244,0.366-.367,0.611-6.539-0.366-.366h-6.111l0.183-10.267-0.428-.367c-4.155,1.223-5.255,1.528-9.594,2.628l-0.245.428,0.061,7.639-3.3-.122-0.366.305-0.55,6.539,0.366,0.367,3.85-.122-0.183,9.716c-0.061,1.528-.122,3.056-0.122,4.645,0,5.622.122,11.672,9.655,11.672a35.577,35.577,0,0,0,6.417-.733l0.428-.428,0.611-6.3Zm35.628-9.228c0-2.383,0-12.283-8.556-15.644a21.954,21.954,0,0,0-7.455-1.161c-10.634,0-16.622,5.683-16.622,16.927,0,3.912.611,7.884,2.872,11.184,1.589,2.383,4.583,5.683,13.322,5.683C589.17,390.8,592.653,382.977,592.653,373.81Zm-10.572-.061c0,5.011-.672,10.572-5.745,10.572a4.942,4.942,0,0,1-3.422-1.405c-1.039-1.039-2.2-3.117-2.2-9.045,0-1.772,0-5.683,1.222-7.822a5.062,5.062,0,0,1,4.461-2.75,5.142,5.142,0,0,1,3.912,1.894C581.775,366.966,582.081,370.449,582.081,373.749ZM41.16,462.011A236.705,236.705,0,0,1,52.515,483.4l0.622,0.389c2.411-.156,4.744-0.311,7.155-0.389s4.9-.155,7.311-0.155l0.467-.934c-2.955-3.811-3.811-4.977-9.411-13.921-2.489-3.967-3.733-6.067-5.678-9.489,3.5-1.555,10.577-4.822,10.577-14.7,0-3.422-.933-10.5-7.311-13.844C52.2,428.257,48,428.18,38.9,428.335l-5.444.078H23.972l-0.389.467c0.311,7.855.622,15.943,0.622,37.1,0,7.233-.078,10.733-0.311,17.188l0.467,0.466c5.677-.233,6.922-0.311,13.3-0.233l0.467-.467c-0.622-9.021-.7-11.51-0.778-20.765ZM37.5,437.824c1.089-.078,2.178-0.078,3.267-0.078,3.033,0,9.022,0,9.022,6.844a7.566,7.566,0,0,1-3.422,6.844c-2.178,1.322-4.977,1.478-8.866,1.555V437.824Zm48.767,45.031c-0.389-5.989-.7-10.578-0.7-21.31,0-6.611.156-13.3,0.233-19.911l-0.544-.622-13.377,2.333-0.467.467c0.622,5.911.856,8.633,0.856,19.677,0,8.477-.233,13.222-0.467,19.6l0.467,0.544c5.6-.233,7.155-0.311,13.455-0.233Zm-1.244-49.309,0.233-10.577-0.467-.467-12.677,1.556-0.467.544c0.156,2.8.233,4.433,0.233,6.3,0,1.477,0,3.033-.078,4.511l0.544,0.466c5.289-.933,6.766-1.089,12.288-1.789Zm31.344,49.231c2.489-7.777,3.966-12.6,5.6-17.5,2.1-6.3,5.522-16.411,7.7-22.788l-0.389-.544-10.888.233-0.544.544c-1.089,5.211-1.322,6.3-2.878,12.366l-3.966,15.322-1.945-8.4-1.477-5.988c-1.945-7.233-2.256-8.711-3.345-13.844l-0.544-.467a102.371,102.371,0,0,1-13.611.856l-0.311.622c10.344,30.643,11.2,33.521,12.911,39.9l0.544,0.544c5.055-.233,7.078-0.311,12.677-0.233Zm51.955-10.888a23.776,23.776,0,0,1-12.133,3.344c-4.666,0-7.855-1.478-9.722-4.278a11.01,11.01,0,0,1-1.711-4.744l25.121-.467,0.467-.544a45.638,45.638,0,0,0-1.244-11.588c-2.722-9.178-8.711-11.044-11.355-11.666a19.9,19.9,0,0,0-5.522-.7c-12.211,0-20.3,8.01-20.3,21.465a25.893,25.893,0,0,0,1.866,10.189c4.511,10.5,15.088,11.432,20.688,11.432,6.455,0,9.255-1.166,13.377-2.8l0.467-.623,0.544-8.788ZM144.76,457.967c0.234-2.411.778-5.677,3.734-7.544a5.967,5.967,0,0,1,8.088,1.867,9.5,9.5,0,0,1,1.167,5.366Zm55.222-3.422,2.178-12.677-0.467-.545c-0.544,0-1.089-.077-1.633-0.077-3.189,0-6.767,1.788-9.255,7.544l0.233-7.156-0.622-.622c-5.755,1.245-7.233,1.478-12.911,2.333l-0.466.467c0.466,5.833.7,9.333,0.7,20.144,0,6.377-.078,12.755-0.234,19.21l0.467,0.466c5.755-.233,7-0.311,13.222-0.233l0.388-.544c-0.311-6.3-.777-15.088-0.777-20.455,0-3.5,0-8.633,5.288-8.633a5.826,5.826,0,0,1,3.189,1.089Zm51.878-4.589c-6.533-2.722-9.955-4.122-9.955-7.622,0-2.411,2.255-5.444,7.388-5.444,5.911,0,9.411,2.411,12.289,4.356l0.7-.312,0.622-10.188-0.389-.544a31.855,31.855,0,0,0-14.388-2.878c-14.622,0-19.677,8.244-19.677,16.566,0,9.411,7.311,12.833,11.666,14.933l2.566,1.166c5.367,2.256,9.489,4.2,9.489,8.322,0,2.955-2.567,6.455-9.333,6.455a19.839,19.839,0,0,1-13.3-4.9l-0.778.234-0.544,10.966,0.466,0.622c0.856,0.311,1.711.7,2.567,0.933a38.7,38.7,0,0,0,12.21,1.945c2.333,0,8.244-.234,12.911-2.411,6.533-3.189,9.333-9.1,9.333-15.711a15.415,15.415,0,0,0-5.833-12.366,31.556,31.556,0,0,0-5.989-3.344Zm43.011,24.5a11.669,11.669,0,0,1-3.578.7c-3.966,0-4.277-2.489-4.433-3.655a89.18,89.18,0,0,1-.155-9.411l0.155-10.966,7,0.311,0.467-.467,0.777-8.321-0.466-.467H286.86l0.234-13.066-0.545-.467c-5.289,1.556-6.688,1.945-12.21,3.344l-0.311.545,0.077,9.722-4.2-.156-0.466.389-0.7,8.322,0.467,0.466,4.9-.155-0.233,12.366c-0.078,1.944-.156,3.889-0.156,5.911,0,7.155.156,14.855,12.289,14.855a45.168,45.168,0,0,0,8.166-.934l0.544-.544,0.778-8.011Zm40.366-14.233c0.078-7,.078-10.032-1.944-13.3-1.556-2.489-4.667-5.6-14.622-5.6a47.345,47.345,0,0,0-15.244,2.567l-0.466.622-0.389,8.477,0.622,0.312c2.722-1.089,7.777-3.111,12.988-3.111,2.878,0,4.045.466,5.056,1.477a4.909,4.909,0,0,1,1.011,3.345c-9.333,1.244-13.688,2.1-18.355,4.977a12.437,12.437,0,0,0-5.833,10.655c0,8.322,5.989,13.688,13.61,13.688a16.074,16.074,0,0,0,10.811-4.122v2.878l0.467,0.544c5.6-.233,7.31-0.311,12.366-0.233l0.389-.544c-0.545-7.622-.545-9.567-0.545-16.877ZM322.4,472.589a12.6,12.6,0,0,1-6.3,2.022c-2.8,0-5.134-1.478-5.134-4.745,0-5.133,6.145-5.988,11.433-6.688v9.411Zm43.711,1.866a11.669,11.669,0,0,1-3.577.7c-3.967,0-4.278-2.489-4.433-3.655a88.88,88.88,0,0,1-.156-9.411l0.156-10.966,7,0.311,0.467-.467,0.778-8.321-0.467-.467h-7.777l0.233-13.066-0.544-.467c-5.289,1.556-6.689,1.945-12.211,3.344l-0.311.545,0.078,9.722-4.2-.156-0.467.389-0.7,8.322,0.467,0.466,4.9-.155-0.234,12.366c-0.077,1.944-.155,3.889-0.155,5.911,0,7.155.155,14.855,12.288,14.855a45.168,45.168,0,0,0,8.166-.934l0.545-.544,0.778-8.011Zm38.733-2.566a23.773,23.773,0,0,1-12.133,3.344c-4.666,0-7.855-1.478-9.721-4.278a11,11,0,0,1-1.711-4.744l25.121-.467,0.466-.544a45.593,45.593,0,0,0-1.244-11.588c-2.722-9.178-8.711-11.044-11.355-11.666a19.9,19.9,0,0,0-5.522-.7c-12.211,0-20.3,8.01-20.3,21.465a25.893,25.893,0,0,0,1.866,10.189c4.511,10.5,15.089,11.432,20.688,11.432,6.456,0,9.255-1.166,13.377-2.8l0.467-.623,0.545-8.788Zm-23.565-13.922c0.233-2.411.777-5.677,3.733-7.544a5.967,5.967,0,0,1,8.088,1.867,9.5,9.5,0,0,1,1.167,5.366Zm65.877-29.632-9.877.156-0.467.466c0.312,10.111.545,16.877,0.545,25.821,0,9.489-.233,18.9-0.467,28.388l0.467,0.466c5.755-.233,7-0.311,13.221-0.233l0.389-.467c-0.311-8.477-.311-10.421-0.311-18.354,8.711,0.078,18.044.078,23.644-6.767a19.991,19.991,0,0,0,4.044-12.521c0-3.344-.778-10.733-7.233-14.388-4.667-2.722-11.277-2.722-17.111-2.722Zm3.5,9.411c1.711-.078,3.344-0.078,5.056-0.078,6.844,0.156,8.71,3.655,8.71,8.166,0,1.089,0,5.6-4.122,7.855-2.1,1.167-4.977,1.323-9.644,1.323V437.746Zm66.11,22.476c0.078-7,.078-10.032-1.944-13.3-1.555-2.489-4.666-5.6-14.622-5.6a47.333,47.333,0,0,0-15.243,2.567l-0.467.622-0.389,8.477,0.622,0.312c2.723-1.089,7.778-3.111,12.989-3.111,2.877,0,4.044.466,5.055,1.477a4.9,4.9,0,0,1,1.011,3.345c-9.333,1.244-13.688,2.1-18.355,4.977a12.437,12.437,0,0,0-5.833,10.655c0,8.322,5.989,13.688,13.611,13.688a16.074,16.074,0,0,0,10.81-4.122v2.878l0.467,0.544c5.6-.233,7.311-0.311,12.366-0.233l0.389-.544c-0.544-7.622-.544-9.567-0.544-16.877Zm-12.832,12.367a12.6,12.6,0,0,1-6.3,2.022c-2.8,0-5.133-1.478-5.133-4.745,0-5.133,6.144-5.988,11.433-6.688v9.411Zm44.411-18.044,2.177-12.677-0.466-.545c-0.545,0-1.089-.077-1.634-0.077-3.188,0-6.766,1.788-9.255,7.544l0.234-7.156-0.623-.622c-5.755,1.245-7.233,1.478-12.91,2.333l-0.467.467c0.467,5.833.7,9.333,0.7,20.144,0,6.377-.077,12.755-0.233,19.21l0.467,0.466c5.755-.233,7-0.311,13.221-0.233l0.389-.544c-0.311-6.3-.778-15.088-0.778-20.455,0-3.5,0-8.633,5.289-8.633a5.826,5.826,0,0,1,3.189,1.089Zm46.666,27.843c-7.311-12.366-8.089-13.766-14-24.421,5.367-7.311,5.911-8.088,11.433-15.166l-0.389-.778-12.677.156-0.778.544c-6.066,10.5-6.844,11.744-10.422,17.111V451.2c0.078-14.544.156-17.655,0.545-29.4l-0.622-.467-13.533,2.023-0.467.544c0.545,7.544.778,11.2,0.934,21.388,0.155,12.6.155,25.2,0.077,37.8l0.545,0.544c5.211-.233,6.688-0.233,12.6-0.233l0.467-.544-0.467-13.144-0.078-8.944c6.767,12.444,7.622,14.155,11.589,22.4l0.7,0.466,14-.544Z"/>
</svg>
