<?xml version="1.0" encoding="UTF-8"?>
<svg xmlns="http://www.w3.org/2000/svg" xmlns:xlink="http://www.w3.org/1999/xlink" width="975" height="1300" viewBox="0 0 975 1300">
<path fill-rule="nonzero" fill="rgb(34.901961%, 14.901961%, 14.901961%)" fill-opacity="1" d="M 212.1875 597.625 C 209.3125 599.875 202.9375 604.625 192.5625 604.625 C 178.3125 604.625 168.3125 594 168.3125 576.25 C 168.3125 565.5 172.0625 546.625 192.4375 546.625 C 201.8125 546.625 206.9375 550.25 210.0625 552.625 L 211.1875 552.375 L 212.3125 535.125 L 211.8125 534.5 C 207.3125 532.75 199.6875 529.875 188.6875 529.875 C 156.3125 529.875 145.0625 554.875 145.0625 576.75 C 145.0625 600.75 159.6875 621.875 190.1875 621.875 C 200.6875 621.875 207.5625 619.125 211.5625 617.5 L 212.1875 616.75 L 213.0625 598.125 Z M 284.0625 619.125 C 283.5625 608.875 283.4375 605.375 283.1875 592.375 L 283.1875 583 C 283.0625 571.125 282.9375 564.25 279.3125 559 C 275.6875 553.875 270.4375 552.25 264.9375 552.25 C 255.8125 552.25 248.6875 556.625 243.6875 559.625 L 244.0625 521.125 L 243.3125 520.25 L 221.9375 523.625 L 221.3125 524.375 C 222.4375 536.5 222.6875 541 222.9375 557.125 C 223.1875 567.25 223.3125 577.375 223.3125 587.5 C 223.3125 599.875 223.0625 607.25 222.8125 619.5 L 223.4375 620.375 C 232.6875 619.875 234.5625 619.875 244.6875 619.875 L 245.4375 619.125 C 244.5625 600.375 244.4375 594.75 244.3125 572.625 C 246.6875 571 249.6875 568.875 253.9375 568.875 C 260.8125 568.875 261.3125 576 261.8125 581 C 262.0625 584.875 262.1875 602.625 262.1875 607.25 C 262.1875 611.375 262.0625 615.375 262.0625 619.5 L 262.6875 620.375 C 271.6875 619.875 273.6875 619.875 283.3125 619.875 Z M 320.9375 619.125 C 320.3125 609.5 319.8125 602.125 319.8125 584.875 C 319.8125 574.25 320.0625 563.5 320.1875 552.875 L 319.3125 551.875 L 297.8125 555.625 L 297.0625 556.375 C 298.0625 565.875 298.4375 570.25 298.4375 588 C 298.4375 601.625 298.0625 609.25 297.6875 619.5 L 298.4375 620.375 C 307.4375 620 309.9375 619.875 320.0625 620 L 320.9375 619.125 M 318.9375 539.875 L 319.3125 522.875 L 318.5625 522.125 L 298.1875 524.625 L 297.4375 525.5 C 297.6875 530 297.8125 532.625 297.8125 535.625 C 297.8125 538 297.8125 540.5 297.6875 542.875 L 298.5625 543.625 C 307.0625 542.125 309.4375 541.875 318.3125 540.75 Z M 396.0625 619.125 C 395.4375 608.125 395.4375 604.625 395.1875 592.375 L 395.1875 582.625 C 395.0625 570.625 394.9375 564.875 391.8125 559.75 C 387.9375 553.25 380.8125 552.25 376.3125 552.25 C 368.6875 552.25 362.0625 556.25 356.3125 559.625 L 356.5625 552.75 L 355.3125 551.875 C 345.6875 553.875 343.5625 554.25 334.1875 555.5 L 333.4375 556.375 C 334.4375 567.25 335.1875 575.125 335.1875 595.5 C 335.1875 603.5 335.0625 611.5 334.9375 619.5 L 335.6875 620.25 C 344.6875 619.875 346.5625 619.875 356.5625 619.875 L 357.3125 619.125 C 356.5625 599.875 356.4375 595 356.3125 572.625 C 358.9375 570.875 361.9375 568.75 365.9375 568.75 C 372.8125 568.75 373.4375 576.125 373.8125 580.625 C 374.0625 584.75 374.1875 601.875 374.1875 606.625 C 374.1875 610.875 374.0625 615.25 374.0625 619.5 L 374.8125 620.25 C 383.0625 620 385.1875 619.875 395.1875 619.875 Z M 465.9375 582.75 C 466.0625 571.5 466.0625 566.625 462.8125 561.375 C 460.3125 557.375 455.3125 552.375 439.3125 552.375 C 428.5625 552.375 421.9375 554.375 414.8125 556.5 L 414.0625 557.5 L 413.4375 571.125 L 414.4375 571.625 C 418.8125 569.875 426.9375 566.625 435.3125 566.625 C 439.9375 566.625 441.8125 567.375 443.4375 569 C 444.6875 570.25 445.0625 572.5 445.0625 574.375 C 430.0625 576.375 423.0625 577.75 415.5625 582.375 C 408.5625 586.75 406.1875 593.875 406.1875 599.5 C 406.1875 612.875 415.8125 621.5 428.0625 621.5 C 437.4375 621.5 442.8125 617 445.4375 614.875 L 445.4375 619.5 L 446.1875 620.375 C 455.1875 620 457.9375 619.875 466.0625 620 L 466.6875 619.125 C 465.8125 606.875 465.8125 603.75 465.8125 592 L 465.9375 582.75 M 445.3125 602.625 C 442.6875 604.125 439.3125 605.875 435.1875 605.875 C 430.6875 605.875 426.9375 603.5 426.9375 598.25 C 426.9375 590 436.8125 588.625 445.3125 587.5 Z M 581.9375 597.625 C 579.0625 599.875 572.6875 604.625 562.3125 604.625 C 548.0625 604.625 538.0625 594 538.0625 576.25 C 538.0625 565.5 541.8125 546.625 562.1875 546.625 C 571.5625 546.625 576.6875 550.25 579.8125 552.625 L 580.9375 552.375 L 582.0625 535.125 L 581.5625 534.5 C 577.0625 532.75 569.4375 529.875 558.4375 529.875 C 526.0625 529.875 514.8125 554.875 514.8125 576.75 C 514.8125 600.75 529.4375 621.875 559.9375 621.875 C 570.4375 621.875 577.3125 619.125 581.3125 617.5 L 581.9375 616.75 L 582.8125 598.125 Z M 648.1875 582.75 C 648.3125 571.5 648.3125 566.625 645.0625 561.375 C 642.5625 557.375 637.5625 552.375 621.5625 552.375 C 610.8125 552.375 604.1875 554.375 597.0625 556.5 L 596.3125 557.5 L 595.6875 571.125 L 596.6875 571.625 C 601.0625 569.875 609.1875 566.625 617.5625 566.625 C 622.1875 566.625 624.0625 567.375 625.6875 569 C 626.9375 570.25 627.3125 572.5 627.3125 574.375 C 612.3125 576.375 605.3125 577.75 597.8125 582.375 C 590.8125 586.75 588.4375 593.875 588.4375 599.5 C 588.4375 612.875 598.0625 621.5 610.3125 621.5 C 619.6875 621.5 625.0625 617 627.6875 614.875 L 627.6875 619.5 L 628.4375 620.375 C 637.4375 620 640.1875 619.875 648.3125 620 L 648.9375 619.125 C 648.0625 606.875 648.0625 603.75 648.0625 592 L 648.1875 582.75 M 627.5625 602.625 C 624.9375 604.125 621.5625 605.875 617.4375 605.875 C 612.9375 605.875 609.1875 603.5 609.1875 598.25 C 609.1875 590 619.0625 588.625 627.5625 587.5 Z M 760.4375 619.125 C 759.8125 607.5 759.6875 604.25 759.6875 590.125 L 759.6875 580.75 C 759.8125 572.375 759.9375 564.625 756.3125 559.375 C 751.4375 552.25 742.8125 552.25 740.8125 552.25 C 730.5625 552.25 723.6875 556.875 718.6875 560.375 C 716.9375 557.5 713.8125 552.25 703.8125 552.25 C 695.5625 552.25 690.1875 556 684.4375 560 L 684.4375 553 L 683.3125 551.875 C 673.5625 553.75 670.8125 554.25 662.0625 555.5 L 661.3125 556.375 C 662.3125 566.375 663.0625 573.25 663.0625 598 C 663.0625 605.125 662.9375 612.375 662.9375 619.5 L 663.5625 620.25 C 671.5625 620 674.3125 619.875 684.6875 619.875 L 685.4375 619.125 C 684.5625 599.875 684.4375 594.125 684.3125 572.375 C 686.9375 570.5 689.8125 568.875 692.9375 568.875 C 700.6875 568.875 700.9375 577.75 700.9375 588.5 C 700.9375 606.625 700.8125 609.375 700.5625 619.5 L 701.3125 620.375 C 710.8125 619.875 713.4375 619.875 722.0625 619.875 L 722.8125 619.125 C 722.0625 607.25 721.9375 603.75 721.8125 588.625 L 721.8125 584 L 721.6875 571.375 C 723.8125 570 726.5625 568.25 730.3125 568.25 C 737.4375 568.25 738.5625 575 738.5625 585.75 C 738.5625 588.125 738.4375 590.5 738.4375 592.875 C 738.3125 597.125 738.1875 615.75 738.0625 619.5 L 738.8125 620.25 C 748.1875 619.875 750.9375 619.875 759.6875 619.875 Z M 795.5625 553.125 L 794.5625 552 C 785.4375 554 782.8125 554.5 773.8125 555.625 L 773.0625 556.5 C 774.4375 571.375 774.9375 577.125 774.9375 613.125 C 774.9375 628 774.6875 636.5 774.3125 650.625 L 775.0625 651.25 C 783.9375 650.875 786.5625 650.75 796.0625 650.875 L 796.8125 650.25 L 795.9375 620.5 C 805.0625 620.375 817.6875 620.25 827.8125 610.75 C 835.8125 603.25 838.4375 592.625 838.4375 584.125 C 838.4375 564.25 826.3125 552.25 812.3125 552.25 C 803.6875 552.25 798.8125 555.75 795.3125 558.125 L 795.5625 553.125 M 795.8125 570.125 C 798.5625 568.5 800.1875 567.625 803.3125 567.625 C 805.1875 567.625 808.9375 567.875 812.0625 571.375 C 815.9375 575.625 816.5625 582 816.5625 586.25 C 816.5625 593.5 814.1875 600 809.1875 603.5 C 805.1875 606.25 800.1875 606.5 795.8125 606.625 Z M 842.8125 620 "/>
<path fill-rule="nonzero" fill="rgb(34.901961%, 14.901961%, 14.901961%)" fill-opacity="1" d="M 232.875 716.25 C 222.375 711.875 216.875 709.625 216.875 704 C 216.875 700.125 220.5 695.25 228.75 695.25 C 238.25 695.25 243.875 699.125 248.5 702.25 L 249.625 701.75 L 250.625 685.375 L 250 684.5 C 244.625 682.25 239 679.875 226.875 679.875 C 203.375 679.875 195.25 693.125 195.25 706.5 C 195.25 721.625 207 727.125 214 730.5 L 218.125 732.375 C 226.75 736 233.375 739.125 233.375 745.75 C 233.375 750.5 229.25 756.125 218.375 756.125 C 207 756.125 200.625 751.125 197 748.25 L 195.75 748.625 L 194.875 766.25 L 195.625 767.25 C 197 767.75 198.375 768.375 199.75 768.75 C 202.625 769.75 210 771.875 219.375 771.875 C 223.125 771.875 232.625 771.5 240.125 768 C 250.625 762.875 255.125 753.375 255.125 742.75 C 255.125 735.625 252.375 728 245.75 722.875 C 242.375 720.375 239.125 718.875 236.125 717.5 Z M 302 755.625 C 299.875 756.25 298.375 756.75 296.25 756.75 C 289.875 756.75 289.375 752.75 289.125 750.875 C 288.75 747.625 288.75 740.75 288.875 735.75 L 289.125 718.125 L 300.375 718.625 L 301.125 717.875 L 302.375 704.5 L 301.625 703.75 L 289.125 703.75 L 289.5 682.75 L 288.625 682 C 280.125 684.5 277.875 685.125 269 687.375 L 268.5 688.25 L 268.625 703.875 L 261.875 703.625 L 261.125 704.25 L 260 717.625 L 260.75 718.375 L 268.625 718.125 L 268.25 738 C 268.125 741.125 268 744.25 268 747.5 C 268 759 268.25 771.375 287.75 771.375 C 292.625 771.375 296.5 770.625 300.875 769.875 L 301.75 769 L 303 756.125 Z M 366.875 732.75 C 367 721.5 367 716.625 363.75 711.375 C 361.25 707.375 356.25 702.375 340.25 702.375 C 329.5 702.375 322.875 704.375 315.75 706.5 L 315 707.5 L 314.375 721.125 L 315.375 721.625 C 319.75 719.875 327.875 716.625 336.25 716.625 C 340.875 716.625 342.75 717.375 344.375 719 C 345.625 720.25 346 722.5 346 724.375 C 331 726.375 324 727.75 316.5 732.375 C 309.5 736.75 307.125 743.875 307.125 749.5 C 307.125 762.875 316.75 771.5 329 771.5 C 338.375 771.5 343.75 767 346.375 764.875 L 346.375 769.5 L 347.125 770.375 C 356.125 770 358.875 769.875 367 770 L 367.625 769.125 C 366.75 756.875 366.75 753.75 366.75 742 L 366.875 732.75 M 346.25 752.625 C 343.625 754.125 340.25 755.875 336.125 755.875 C 331.625 755.875 327.875 753.5 327.875 748.25 C 327.875 740 337.75 738.625 346.25 737.5 Z M 416.5 755.625 C 414.375 756.25 412.875 756.75 410.75 756.75 C 404.375 756.75 403.875 752.75 403.625 750.875 C 403.25 747.625 403.25 740.75 403.375 735.75 L 403.625 718.125 L 414.875 718.625 L 415.625 717.875 L 416.875 704.5 L 416.125 703.75 L 403.625 703.75 L 404 682.75 L 403.125 682 C 394.625 684.5 392.375 685.125 383.5 687.375 L 383 688.25 L 383.125 703.875 L 376.375 703.625 L 375.625 704.25 L 374.5 717.625 L 375.25 718.375 L 383.125 718.125 L 382.75 738 C 382.625 741.125 382.5 744.25 382.5 747.5 C 382.5 759 382.75 771.375 402.25 771.375 C 407.125 771.375 411 770.625 415.375 769.875 L 416.25 769 L 417.5 756.125 Z M 481.25 751.5 C 476.5 754 470.875 756.875 461.75 756.875 C 454.25 756.875 449.125 754.5 446.125 750 C 444.25 747.375 443.875 744.875 443.375 742.375 L 483.75 741.625 L 484.5 740.75 C 484.375 734.625 484.25 728.375 482.5 722.125 C 478.125 707.375 468.5 704.375 464.25 703.375 C 461.125 702.5 458.25 702.25 455.375 702.25 C 435.75 702.25 422.75 715.125 422.75 736.75 C 422.75 742.625 423.75 748.75 425.75 753.125 C 433 770 450 771.5 459 771.5 C 469.375 771.5 473.875 769.625 480.5 767 L 481.25 766 L 482.125 751.875 L 481.25 751.5 M 443.375 729.125 C 443.75 725.25 444.625 720 449.375 717 C 450.875 716 452.625 715.625 454.375 715.625 C 458.5 715.625 461 717.75 462.375 720 C 464.125 722.75 464.25 725.75 464.25 728.625 Z M 549.25 681.5 L 533.375 681.75 L 532.625 682.5 C 533.125 698.75 533.5 709.625 533.5 724 C 533.5 739.25 533.125 754.375 532.75 769.625 L 533.5 770.375 C 542.75 770 544.75 769.875 554.75 770 L 555.375 769.25 C 554.875 755.625 554.875 752.5 554.875 739.75 C 568.875 739.875 583.875 739.875 592.875 728.875 C 596.375 724.625 599.375 717.5 599.375 708.75 C 599.375 703.375 598.125 691.5 587.75 685.625 C 580.25 681.25 569.625 681.25 560.25 681.25 L 549.25 681.5 M 554.875 696.625 C 557.625 696.5 560.25 696.5 563 696.5 C 574 696.75 577 702.375 577 709.625 C 577 711.375 577 718.625 570.375 722.25 C 567 724.125 562.375 724.375 554.875 724.375 Z M 663.625 732.75 C 663.75 721.5 663.75 716.625 660.5 711.375 C 658 707.375 653 702.375 637 702.375 C 626.25 702.375 619.625 704.375 612.5 706.5 L 611.75 707.5 L 611.125 721.125 L 612.125 721.625 C 616.5 719.875 624.625 716.625 633 716.625 C 637.625 716.625 639.5 717.375 641.125 719 C 642.375 720.25 642.75 722.5 642.75 724.375 C 627.75 726.375 620.75 727.75 613.25 732.375 C 606.25 736.75 603.875 743.875 603.875 749.5 C 603.875 762.875 613.5 771.5 625.75 771.5 C 635.125 771.5 640.5 767 643.125 764.875 L 643.125 769.5 L 643.875 770.375 C 652.875 770 655.625 769.875 663.75 770 L 664.375 769.125 C 663.5 756.875 663.5 753.75 663.5 742 L 663.625 732.75 M 643 752.625 C 640.375 754.125 637 755.875 632.875 755.875 C 628.375 755.875 624.625 753.5 624.625 748.25 C 624.625 740 634.5 738.625 643 737.5 Z M 714.375 723.625 L 717.875 703.25 L 717.125 702.375 C 716.25 702.375 715.375 702.25 714.5 702.25 C 709.375 702.25 703.625 705.125 699.625 714.375 L 700 702.875 L 699 701.875 C 689.75 703.875 687.375 704.25 678.25 705.625 L 677.5 706.375 C 678.25 715.75 678.625 721.375 678.625 738.75 C 678.625 749 678.5 759.25 678.25 769.625 L 679 770.375 C 688.25 770 690.25 769.875 700.25 770 L 700.875 769.125 C 700.375 759 699.625 744.875 699.625 736.25 C 699.625 730.625 699.625 722.375 708.125 722.375 C 710.25 722.375 711.5 723.125 713.25 724.125 Z M 789.375 768.375 C 777.625 748.5 776.375 746.25 766.875 729.125 C 775.5 717.375 776.375 716.125 785.25 704.75 L 784.625 703.5 L 764.25 703.75 L 763 704.625 C 753.25 721.5 752 723.5 746.25 732.125 L 746.25 718.25 C 746.375 694.875 746.5 689.875 747.125 671 L 746.125 670.25 L 724.375 673.5 L 723.625 674.375 C 724.5 686.5 724.875 692.375 725.125 708.75 C 725.375 729 725.375 749.25 725.25 769.5 L 726.125 770.375 C 734.5 770 736.875 770 746.375 770 L 747.125 769.125 L 746.375 748 L 746.25 733.625 C 757.125 753.625 758.5 756.375 764.875 769.625 L 766 770.375 L 788.5 769.5 Z M 787.875 770 "/>
</svg>
