<?xml version="1.0" encoding="UTF-8"?>
<svg xmlns="http://www.w3.org/2000/svg" xmlns:xlink="http://www.w3.org/1999/xlink" width="975" height="1300" viewBox="0 0 975 1300">
<path fill-rule="nonzero" fill="rgb(34.901961%, 14.901961%, 14.901961%)" fill-opacity="1" d="M 356.625 381.375 C 343.625 381.75 341.5 381.75 327.625 381.75 L 326.875 382.5 L 321.125 402.75 L 316.125 420.875 L 310.25 442.625 L 304.75 420.25 L 301.25 406.125 L 295 382.125 L 294.375 381.375 C 281 381.75 278.75 381.75 264.75 381.75 L 264 382.5 C 262.75 419.875 262.25 429.5 259.5 469.625 L 260.125 470.375 C 268.125 470 270.5 469.875 277.75 470 L 278.5 469.25 L 278.875 445.375 L 279.625 421.125 L 280.125 397.5 L 285.625 419.625 L 290.375 437.375 L 298.75 469.625 L 299.5 470.375 C 307.25 470 309.375 469.875 318.125 470 L 318.875 469.25 L 326.125 442.625 L 331.125 424.375 L 338.125 398.125 L 338.125 420.5 L 338.375 439.625 L 338.375 469.625 L 339 470.375 C 347.625 470 351 469.875 360.625 470 L 361.25 469.25 C 360.5 455 359.625 440.625 359.125 426.25 C 358.75 418.375 358.5 410.5 358.125 402.625 C 357.5 391 357.375 389.5 357.375 382.125 Z M 431 432.75 C 431.125 421.5 431.125 416.625 427.875 411.375 C 425.375 407.375 420.375 402.375 404.375 402.375 C 393.625 402.375 387 404.375 379.875 406.5 L 379.125 407.5 L 378.5 421.125 L 379.5 421.625 C 383.875 419.875 392 416.625 400.375 416.625 C 405 416.625 406.875 417.375 408.5 419 C 409.75 420.25 410.125 422.5 410.125 424.375 C 395.125 426.375 388.125 427.75 380.625 432.375 C 373.625 436.75 371.25 443.875 371.25 449.5 C 371.25 462.875 380.875 471.5 393.125 471.5 C 402.5 471.5 407.875 467 410.5 464.875 L 410.5 469.5 L 411.25 470.375 C 420.25 470 423 469.875 431.125 470 L 431.75 469.125 C 430.875 456.875 430.875 453.75 430.875 442 L 431 432.75 M 410.375 452.625 C 407.75 454.125 404.375 455.875 400.25 455.875 C 395.75 455.875 392 453.5 392 448.25 C 392 440 401.875 438.625 410.375 437.5 Z M 481.75 423.625 L 485.25 403.25 L 484.5 402.375 C 483.625 402.375 482.75 402.25 481.875 402.25 C 476.75 402.25 471 405.125 467 414.375 L 467.375 402.875 L 466.375 401.875 C 457.125 403.875 454.75 404.25 445.625 405.625 L 444.875 406.375 C 445.625 415.75 446 421.375 446 438.75 C 446 449 445.875 459.25 445.625 469.625 L 446.375 470.375 C 455.625 470 457.625 469.875 467.625 470 L 468.25 469.125 C 467.75 459 467 444.875 467 436.25 C 467 430.625 467 422.375 475.5 422.375 C 477.625 422.375 478.875 423.125 480.625 424.125 Z M 541.375 452 C 538 454 534.75 456 528.375 456 C 514.25 456 511.375 444.25 511.375 436.75 C 511.375 427.625 515.375 417.125 527.5 417.125 C 533 417.125 536 419.125 539.75 421.625 L 541 421.25 C 541.5 414.625 541.625 412.875 542.625 406.25 L 542 405.5 C 536.5 403.75 531.75 402.25 524.5 402.25 C 495.125 402.25 489.375 424.5 489.375 437.25 C 489.375 451.625 496.875 471.125 525 471.125 C 531.625 471.125 535.875 469.875 541.125 468.375 L 541.875 467.625 L 542.375 452.625 Z M 616 436.75 C 616 431.875 616 411.625 598.5 404.75 C 593 402.625 586.5 402.375 583.25 402.375 C 561.5 402.375 549.25 414 549.25 437 C 549.25 445 550.5 453.125 555.125 459.875 C 558.375 464.75 564.5 471.5 582.375 471.5 C 608.875 471.5 616 455.5 616 436.75 M 594.375 436.625 C 594.375 446.875 593 458.25 582.625 458.25 C 579.375 458.25 577.125 456.75 575.625 455.375 C 573.5 453.25 571.125 449 571.125 436.875 C 571.125 433.25 571.125 425.25 573.625 420.875 C 575.5 417.5 578.75 415.25 582.75 415.25 C 586.25 415.25 589.125 417.125 590.75 419.125 C 593.75 422.75 594.375 429.875 594.375 436.625 Z M 689.125 469.125 C 688.5 458.125 688.5 454.625 688.25 442.375 L 688.25 432.625 C 688.125 420.625 688 414.875 684.875 409.75 C 681 403.25 673.875 402.25 669.375 402.25 C 661.75 402.25 655.125 406.25 649.375 409.625 L 649.625 402.75 L 648.375 401.875 C 638.75 403.875 636.625 404.25 627.25 405.5 L 626.5 406.375 C 627.5 417.25 628.25 425.125 628.25 445.5 C 628.25 453.5 628.125 461.5 628 469.5 L 628.75 470.25 C 637.75 469.875 639.625 469.875 649.625 469.875 L 650.375 469.125 C 649.625 449.875 649.5 445 649.375 422.625 C 652 420.875 655 418.75 659 418.75 C 665.875 418.75 666.5 426.125 666.875 430.625 C 667.125 434.75 667.25 451.875 667.25 456.625 C 667.25 460.875 667.125 465.25 667.125 469.5 L 667.875 470.25 C 676.125 470 678.25 469.875 688.25 469.875 Z M 726 469.125 C 725.375 459.5 724.875 452.125 724.875 434.875 C 724.875 424.25 725.125 413.5 725.25 402.875 L 724.375 401.875 L 702.875 405.625 L 702.125 406.375 C 703.125 415.875 703.5 420.25 703.5 438 C 703.5 451.625 703.125 459.25 702.75 469.5 L 703.5 470.375 C 712.5 470 715 469.875 725.125 470 L 726 469.125 M 724 389.875 L 724.375 372.875 L 723.625 372.125 L 703.25 374.625 L 702.5 375.5 C 702.75 380 702.875 382.625 702.875 385.625 C 702.875 388 702.875 390.5 702.75 392.875 L 703.625 393.625 C 712.125 392.125 714.5 391.875 723.375 390.75 Z M 732.375 470 "/>
<path fill-rule="nonzero" fill="rgb(34.901961%, 14.901961%, 14.901961%)" fill-opacity="1" d="M 231.625 597.625 C 228.75 599.875 222.375 604.625 212 604.625 C 197.75 604.625 187.75 594 187.75 576.25 C 187.75 565.5 191.5 546.625 211.875 546.625 C 221.25 546.625 226.375 550.25 229.5 552.625 L 230.625 552.375 L 231.75 535.125 L 231.25 534.5 C 226.75 532.75 219.125 529.875 208.125 529.875 C 175.75 529.875 164.5 554.875 164.5 576.75 C 164.5 600.75 179.125 621.875 209.625 621.875 C 220.125 621.875 227 619.125 231 617.5 L 231.625 616.75 L 232.5 598.125 Z M 305.875 586.75 C 305.875 581.875 305.875 561.625 288.375 554.75 C 282.875 552.625 276.375 552.375 273.125 552.375 C 251.375 552.375 239.125 564 239.125 587 C 239.125 595 240.375 603.125 245 609.875 C 248.25 614.75 254.375 621.5 272.25 621.5 C 298.75 621.5 305.875 605.5 305.875 586.75 M 284.25 586.625 C 284.25 596.875 282.875 608.25 272.5 608.25 C 269.25 608.25 267 606.75 265.5 605.375 C 263.375 603.25 261 599 261 586.875 C 261 583.25 261 575.25 263.5 570.875 C 265.375 567.5 268.625 565.25 272.625 565.25 C 276.125 565.25 279 567.125 280.625 569.125 C 283.625 572.75 284.25 579.875 284.25 586.625 Z M 379 619.125 C 378.375 608.125 378.375 604.625 378.125 592.375 L 378.125 582.625 C 378 570.625 377.875 564.875 374.75 559.75 C 370.875 553.25 363.75 552.25 359.25 552.25 C 351.625 552.25 345 556.25 339.25 559.625 L 339.5 552.75 L 338.25 551.875 C 328.625 553.875 326.5 554.25 317.125 555.5 L 316.375 556.375 C 317.375 567.25 318.125 575.125 318.125 595.5 C 318.125 603.5 318 611.5 317.875 619.5 L 318.625 620.25 C 327.625 619.875 329.5 619.875 339.5 619.875 L 340.25 619.125 C 339.5 599.875 339.375 595 339.25 572.625 C 341.875 570.875 344.875 568.75 348.875 568.75 C 355.75 568.75 356.375 576.125 356.75 580.625 C 357 584.75 357.125 601.875 357.125 606.625 C 357.125 610.875 357 615.25 357 619.5 L 357.75 620.25 C 366 620 368.125 619.875 378.125 619.875 Z M 418.25 619.125 C 417 596.375 416.875 590.25 417 568.125 L 426.875 568.625 L 427.75 567.75 L 428.875 554.5 L 428.25 553.75 L 416.875 553.75 L 417 550.875 C 417 543.25 417.125 536.25 425.25 536.25 C 426.5 536.25 427.75 536.5 429 536.625 L 429.875 536.125 L 431 522 L 430.375 521.125 C 427.375 520.875 424.5 520.75 421.625 520.75 C 415.25 520.75 408.75 521.5 403.75 525.25 C 396 531 396.125 540 396.125 546.25 L 396.25 553.75 L 388.125 553.625 L 387.375 554.25 L 386.125 567.5 L 386.875 568.25 L 396.375 568 C 396.375 591.625 396.375 597.25 395.625 619.5 L 396.375 620.375 C 404.875 620 408.125 619.875 417.5 619.875 Z M 493 601.5 C 488.25 604 482.625 606.875 473.5 606.875 C 466 606.875 460.875 604.5 457.875 600 C 456 597.375 455.625 594.875 455.125 592.375 L 495.5 591.625 L 496.25 590.75 C 496.125 584.625 496 578.375 494.25 572.125 C 489.875 557.375 480.25 554.375 476 553.375 C 472.875 552.5 470 552.25 467.125 552.25 C 447.5 552.25 434.5 565.125 434.5 586.75 C 434.5 592.625 435.5 598.75 437.5 603.125 C 444.75 620 461.75 621.5 470.75 621.5 C 481.125 621.5 485.625 619.625 492.25 617 L 493 616 L 493.875 601.875 L 493 601.5 M 455.125 579.125 C 455.5 575.25 456.375 570 461.125 567 C 462.625 566 464.375 565.625 466.125 565.625 C 470.25 565.625 472.75 567.75 474.125 570 C 475.875 572.75 476 575.75 476 578.625 Z M 543.875 573.625 L 547.375 553.25 L 546.625 552.375 C 545.75 552.375 544.875 552.25 544 552.25 C 538.875 552.25 533.125 555.125 529.125 564.375 L 529.5 552.875 L 528.5 551.875 C 519.25 553.875 516.875 554.25 507.75 555.625 L 507 556.375 C 507.75 565.75 508.125 571.375 508.125 588.75 C 508.125 599 508 609.25 507.75 619.625 L 508.5 620.375 C 517.75 620 519.75 619.875 529.75 620 L 530.375 619.125 C 529.875 609 529.125 594.875 529.125 586.25 C 529.125 580.625 529.125 572.375 537.625 572.375 C 539.75 572.375 541 573.125 542.75 574.125 Z M 610.125 601.5 C 605.375 604 599.75 606.875 590.625 606.875 C 583.125 606.875 578 604.5 575 600 C 573.125 597.375 572.75 594.875 572.25 592.375 L 612.625 591.625 L 613.375 590.75 C 613.25 584.625 613.125 578.375 611.375 572.125 C 607 557.375 597.375 554.375 593.125 553.375 C 590 552.5 587.125 552.25 584.25 552.25 C 564.625 552.25 551.625 565.125 551.625 586.75 C 551.625 592.625 552.625 598.75 554.625 603.125 C 561.875 620 578.875 621.5 587.875 621.5 C 598.25 621.5 602.75 619.625 609.375 617 L 610.125 616 L 611 601.875 L 610.125 601.5 M 572.25 579.125 C 572.625 575.25 573.5 570 578.25 567 C 579.75 566 581.5 565.625 583.25 565.625 C 587.375 565.625 589.875 567.75 591.25 570 C 593 572.75 593.125 575.75 593.125 578.625 Z M 686.125 619.125 C 685.5 608.125 685.5 604.625 685.25 592.375 L 685.25 582.625 C 685.125 570.625 685 564.875 681.875 559.75 C 678 553.25 670.875 552.25 666.375 552.25 C 658.75 552.25 652.125 556.25 646.375 559.625 L 646.625 552.75 L 645.375 551.875 C 635.75 553.875 633.625 554.25 624.25 555.5 L 623.5 556.375 C 624.5 567.25 625.25 575.125 625.25 595.5 C 625.25 603.5 625.125 611.5 625 619.5 L 625.75 620.25 C 634.75 619.875 636.625 619.875 646.625 619.875 L 647.375 619.125 C 646.625 599.875 646.5 595 646.375 572.625 C 649 570.875 652 568.75 656 568.75 C 662.875 568.75 663.5 576.125 663.875 580.625 C 664.125 584.75 664.25 601.875 664.25 606.625 C 664.25 610.875 664.125 615.25 664.125 619.5 L 664.875 620.25 C 673.125 620 675.25 619.875 685.25 619.875 Z M 749.25 602 C 745.875 604 742.625 606 736.25 606 C 722.125 606 719.25 594.25 719.25 586.75 C 719.25 577.625 723.25 567.125 735.375 567.125 C 740.875 567.125 743.875 569.125 747.625 571.625 L 748.875 571.25 C 749.375 564.625 749.5 562.875 750.5 556.25 L 749.875 555.5 C 744.375 553.75 739.625 552.25 732.375 552.25 C 703 552.25 697.25 574.5 697.25 587.25 C 697.25 601.625 704.75 621.125 732.875 621.125 C 739.5 621.125 743.75 619.875 749 618.375 L 749.75 617.625 L 750.25 602.625 Z M 815.75 601.5 C 811 604 805.375 606.875 796.25 606.875 C 788.75 606.875 783.625 604.5 780.625 600 C 778.75 597.375 778.375 594.875 777.875 592.375 L 818.25 591.625 L 819 590.75 C 818.875 584.625 818.75 578.375 817 572.125 C 812.625 557.375 803 554.375 798.75 553.375 C 795.625 552.5 792.75 552.25 789.875 552.25 C 770.25 552.25 757.25 565.125 757.25 586.75 C 757.25 592.625 758.25 598.75 760.25 603.125 C 767.5 620 784.5 621.5 793.5 621.5 C 803.875 621.5 808.375 619.625 815 617 L 815.75 616 L 816.625 601.875 L 815.75 601.5 M 777.875 579.125 C 778.25 575.25 779.125 570 783.875 567 C 785.375 566 787.125 565.625 788.875 565.625 C 793 565.625 795.5 567.75 796.875 570 C 798.625 572.75 798.75 575.75 798.75 578.625 Z M 823 620 "/>
<path fill-rule="nonzero" fill="rgb(34.901961%, 14.901961%, 14.901961%)" fill-opacity="1" d="M 204.3125 747.625 C 201.4375 749.875 195.0625 754.625 184.6875 754.625 C 170.4375 754.625 160.4375 744 160.4375 726.25 C 160.4375 715.5 164.1875 696.625 184.5625 696.625 C 193.9375 696.625 199.0625 700.25 202.1875 702.625 L 203.3125 702.375 L 204.4375 685.125 L 203.9375 684.5 C 199.4375 682.75 191.8125 679.875 180.8125 679.875 C 148.4375 679.875 137.1875 704.875 137.1875 726.75 C 137.1875 750.75 151.8125 771.875 182.3125 771.875 C 192.8125 771.875 199.6875 769.125 203.6875 767.5 L 204.3125 766.75 L 205.1875 748.125 Z M 270.4375 751.5 C 265.6875 754 260.0625 756.875 250.9375 756.875 C 243.4375 756.875 238.3125 754.5 235.3125 750 C 233.4375 747.375 233.0625 744.875 232.5625 742.375 L 272.9375 741.625 L 273.6875 740.75 C 273.5625 734.625 273.4375 728.375 271.6875 722.125 C 267.3125 707.375 257.6875 704.375 253.4375 703.375 C 250.3125 702.5 247.4375 702.25 244.5625 702.25 C 224.9375 702.25 211.9375 715.125 211.9375 736.75 C 211.9375 742.625 212.9375 748.75 214.9375 753.125 C 222.1875 770 239.1875 771.5 248.1875 771.5 C 258.5625 771.5 263.0625 769.625 269.6875 767 L 270.4375 766 L 271.3125 751.875 L 270.4375 751.5 M 232.5625 729.125 C 232.9375 725.25 233.8125 720 238.5625 717 C 240.0625 716 241.8125 715.625 243.5625 715.625 C 247.6875 715.625 250.1875 717.75 251.5625 720 C 253.3125 722.75 253.4375 725.75 253.4375 728.625 Z M 346.4375 769.125 C 345.8125 758.125 345.8125 754.625 345.5625 742.375 L 345.5625 732.625 C 345.4375 720.625 345.3125 714.875 342.1875 709.75 C 338.3125 703.25 331.1875 702.25 326.6875 702.25 C 319.0625 702.25 312.4375 706.25 306.6875 709.625 L 306.9375 702.75 L 305.6875 701.875 C 296.0625 703.875 293.9375 704.25 284.5625 705.5 L 283.8125 706.375 C 284.8125 717.25 285.5625 725.125 285.5625 745.5 C 285.5625 753.5 285.4375 761.5 285.3125 769.5 L 286.0625 770.25 C 295.0625 769.875 296.9375 769.875 306.9375 769.875 L 307.6875 769.125 C 306.9375 749.875 306.8125 745 306.6875 722.625 C 309.3125 720.875 312.3125 718.75 316.3125 718.75 C 323.1875 718.75 323.8125 726.125 324.1875 730.625 C 324.4375 734.75 324.5625 751.875 324.5625 756.625 C 324.5625 760.875 324.4375 765.25 324.4375 769.5 L 325.1875 770.25 C 333.4375 770 335.5625 769.875 345.5625 769.875 Z M 395.6875 755.625 C 393.5625 756.25 392.0625 756.75 389.9375 756.75 C 383.5625 756.75 383.0625 752.75 382.8125 750.875 C 382.4375 747.625 382.4375 740.75 382.5625 735.75 L 382.8125 718.125 L 394.0625 718.625 L 394.8125 717.875 L 396.0625 704.5 L 395.3125 703.75 L 382.8125 703.75 L 383.1875 682.75 L 382.3125 682 C 373.8125 684.5 371.5625 685.125 362.6875 687.375 L 362.1875 688.25 L 362.3125 703.875 L 355.5625 703.625 L 354.8125 704.25 L 353.6875 717.625 L 354.4375 718.375 L 362.3125 718.125 L 361.9375 738 C 361.8125 741.125 361.6875 744.25 361.6875 747.5 C 361.6875 759 361.9375 771.375 381.4375 771.375 C 386.3125 771.375 390.1875 770.625 394.5625 769.875 L 395.4375 769 L 396.6875 756.125 Z M 460.4375 751.5 C 455.6875 754 450.0625 756.875 440.9375 756.875 C 433.4375 756.875 428.3125 754.5 425.3125 750 C 423.4375 747.375 423.0625 744.875 422.5625 742.375 L 462.9375 741.625 L 463.6875 740.75 C 463.5625 734.625 463.4375 728.375 461.6875 722.125 C 457.3125 707.375 447.6875 704.375 443.4375 703.375 C 440.3125 702.5 437.4375 702.25 434.5625 702.25 C 414.9375 702.25 401.9375 715.125 401.9375 736.75 C 401.9375 742.625 402.9375 748.75 404.9375 753.125 C 412.1875 770 429.1875 771.5 438.1875 771.5 C 448.5625 771.5 453.0625 769.625 459.6875 767 L 460.4375 766 L 461.3125 751.875 L 460.4375 751.5 M 422.5625 729.125 C 422.9375 725.25 423.8125 720 428.5625 717 C 430.0625 716 431.8125 715.625 433.5625 715.625 C 437.6875 715.625 440.1875 717.75 441.5625 720 C 443.3125 722.75 443.4375 725.75 443.4375 728.625 Z M 511.3125 723.625 L 514.8125 703.25 L 514.0625 702.375 C 513.1875 702.375 512.3125 702.25 511.4375 702.25 C 506.3125 702.25 500.5625 705.125 496.5625 714.375 L 496.9375 702.875 L 495.9375 701.875 C 486.6875 703.875 484.3125 704.25 475.1875 705.625 L 474.4375 706.375 C 475.1875 715.75 475.5625 721.375 475.5625 738.75 C 475.5625 749 475.4375 759.25 475.1875 769.625 L 475.9375 770.375 C 485.1875 770 487.1875 769.875 497.1875 770 L 497.8125 769.125 C 497.3125 759 496.5625 744.875 496.5625 736.25 C 496.5625 730.625 496.5625 722.375 505.0625 722.375 C 507.1875 722.375 508.4375 723.125 510.1875 724.125 Z M 594.6875 716.25 C 584.1875 711.875 578.6875 709.625 578.6875 704 C 578.6875 700.125 582.3125 695.25 590.5625 695.25 C 600.0625 695.25 605.6875 699.125 610.3125 702.25 L 611.4375 701.75 L 612.4375 685.375 L 611.8125 684.5 C 606.4375 682.25 600.8125 679.875 588.6875 679.875 C 565.1875 679.875 557.0625 693.125 557.0625 706.5 C 557.0625 721.625 568.8125 727.125 575.8125 730.5 L 579.9375 732.375 C 588.5625 736 595.1875 739.125 595.1875 745.75 C 595.1875 750.5 591.0625 756.125 580.1875 756.125 C 568.8125 756.125 562.4375 751.125 558.8125 748.25 L 557.5625 748.625 L 556.6875 766.25 L 557.4375 767.25 C 558.8125 767.75 560.1875 768.375 561.5625 768.75 C 564.4375 769.75 571.8125 771.875 581.1875 771.875 C 584.9375 771.875 594.4375 771.5 601.9375 768 C 612.4375 762.875 616.9375 753.375 616.9375 742.75 C 616.9375 735.625 614.1875 728 607.5625 722.875 C 604.1875 720.375 600.9375 718.875 597.9375 717.5 Z M 663.8125 755.625 C 661.6875 756.25 660.1875 756.75 658.0625 756.75 C 651.6875 756.75 651.1875 752.75 650.9375 750.875 C 650.5625 747.625 650.5625 740.75 650.6875 735.75 L 650.9375 718.125 L 662.1875 718.625 L 662.9375 717.875 L 664.1875 704.5 L 663.4375 703.75 L 650.9375 703.75 L 651.3125 682.75 L 650.4375 682 C 641.9375 684.5 639.6875 685.125 630.8125 687.375 L 630.3125 688.25 L 630.4375 703.875 L 623.6875 703.625 L 622.9375 704.25 L 621.8125 717.625 L 622.5625 718.375 L 630.4375 718.125 L 630.0625 738 C 629.9375 741.125 629.8125 744.25 629.8125 747.5 C 629.8125 759 630.0625 771.375 649.5625 771.375 C 654.4375 771.375 658.3125 770.625 662.6875 769.875 L 663.5625 769 L 664.8125 756.125 Z M 728.6875 732.75 C 728.8125 721.5 728.8125 716.625 725.5625 711.375 C 723.0625 707.375 718.0625 702.375 702.0625 702.375 C 691.3125 702.375 684.6875 704.375 677.5625 706.5 L 676.8125 707.5 L 676.1875 721.125 L 677.1875 721.625 C 681.5625 719.875 689.6875 716.625 698.0625 716.625 C 702.6875 716.625 704.5625 717.375 706.1875 719 C 707.4375 720.25 707.8125 722.5 707.8125 724.375 C 692.8125 726.375 685.8125 727.75 678.3125 732.375 C 671.3125 736.75 668.9375 743.875 668.9375 749.5 C 668.9375 762.875 678.5625 771.5 690.8125 771.5 C 700.1875 771.5 705.5625 767 708.1875 764.875 L 708.1875 769.5 L 708.9375 770.375 C 717.9375 770 720.6875 769.875 728.8125 770 L 729.4375 769.125 C 728.5625 756.875 728.5625 753.75 728.5625 742 L 728.6875 732.75 M 708.0625 752.625 C 705.4375 754.125 702.0625 755.875 697.9375 755.875 C 693.4375 755.875 689.6875 753.5 689.6875 748.25 C 689.6875 740 699.5625 738.625 708.0625 737.5 Z M 778.3125 755.625 C 776.1875 756.25 774.6875 756.75 772.5625 756.75 C 766.1875 756.75 765.6875 752.75 765.4375 750.875 C 765.0625 747.625 765.0625 740.75 765.1875 735.75 L 765.4375 718.125 L 776.6875 718.625 L 777.4375 717.875 L 778.6875 704.5 L 777.9375 703.75 L 765.4375 703.75 L 765.8125 682.75 L 764.9375 682 C 756.4375 684.5 754.1875 685.125 745.3125 687.375 L 744.8125 688.25 L 744.9375 703.875 L 738.1875 703.625 L 737.4375 704.25 L 736.3125 717.625 L 737.0625 718.375 L 744.9375 718.125 L 744.5625 738 C 744.4375 741.125 744.3125 744.25 744.3125 747.5 C 744.3125 759 744.5625 771.375 764.0625 771.375 C 768.9375 771.375 772.8125 770.625 777.1875 769.875 L 778.0625 769 L 779.3125 756.125 Z M 843.0625 751.5 C 838.3125 754 832.6875 756.875 823.5625 756.875 C 816.0625 756.875 810.9375 754.5 807.9375 750 C 806.0625 747.375 805.6875 744.875 805.1875 742.375 L 845.5625 741.625 L 846.3125 740.75 C 846.1875 734.625 846.0625 728.375 844.3125 722.125 C 839.9375 707.375 830.3125 704.375 826.0625 703.375 C 822.9375 702.5 820.0625 702.25 817.1875 702.25 C 797.5625 702.25 784.5625 715.125 784.5625 736.75 C 784.5625 742.625 785.5625 748.75 787.5625 753.125 C 794.8125 770 811.8125 771.5 820.8125 771.5 C 831.1875 771.5 835.6875 769.625 842.3125 767 L 843.0625 766 L 843.9375 751.875 L 843.0625 751.5 M 805.1875 729.125 C 805.5625 725.25 806.4375 720 811.1875 717 C 812.6875 716 814.4375 715.625 816.1875 715.625 C 820.3125 715.625 822.8125 717.75 824.1875 720 C 825.9375 722.75 826.0625 725.75 826.0625 728.625 Z M 850.3125 770 "/>
<path fill-rule="nonzero" fill="rgb(34.901961%, 14.901961%, 14.901961%)" fill-opacity="1" d="M 196.8125 831.375 C 186.8125 831.75 185.1875 831.75 174.6875 831.75 L 174.0625 832.5 C 174.9375 846.625 174.9375 850.25 175.0625 865 C 169.5625 865.125 164.0625 865.25 158.4375 865.25 C 154.0625 865.25 149.5625 865.125 145.1875 865.125 L 145.4375 832.125 L 144.8125 831.375 C 135.1875 831.75 133.3125 831.75 122.4375 831.75 L 121.6875 832.5 C 122.3125 845.375 123.0625 860.75 123.0625 891.75 C 123.0625 903 122.8125 909.125 122.5625 919.625 L 123.1875 920.375 C 132.3125 920 134.5625 919.875 145.5625 920 L 146.1875 919.25 C 145.4375 903.75 145.3125 899.25 145.1875 881.125 C 150.6875 880.875 155.3125 880.75 160.1875 880.75 C 165.1875 880.75 170.1875 880.875 175.1875 881 C 175.4375 897.875 175.4375 902 174.8125 919.625 L 175.4375 920.375 C 184.8125 920 187.3125 919.875 197.9375 920 L 198.5625 919.25 C 197.5625 898.25 197.1875 877.375 197.1875 856.375 C 197.1875 847.625 197.3125 841.75 197.4375 832.125 Z M 235.6875 919.125 C 235.0625 909.5 234.5625 902.125 234.5625 884.875 C 234.5625 874.25 234.8125 863.5 234.9375 852.875 L 234.0625 851.875 L 212.5625 855.625 L 211.8125 856.375 C 212.8125 865.875 213.1875 870.25 213.1875 888 C 213.1875 901.625 212.8125 909.25 212.4375 919.5 L 213.1875 920.375 C 222.1875 920 224.6875 919.875 234.8125 920 L 235.6875 919.125 M 233.6875 839.875 L 234.0625 822.875 L 233.3125 822.125 L 212.9375 824.625 L 212.1875 825.5 C 212.4375 830 212.5625 832.625 212.5625 835.625 C 212.5625 838 212.5625 840.5 212.4375 842.875 L 213.3125 843.625 C 221.8125 842.125 224.1875 841.875 233.0625 840.75 Z M 275.8125 876.875 C 271.5625 875.375 268.1875 874 268.1875 870.5 C 268.1875 869 269.1875 864.875 276.9375 864.875 C 284.5625 864.875 289.4375 868.125 292.5625 870.125 L 293.6875 869.75 L 294.9375 856.125 L 294.3125 855.375 C 288.4375 853.75 283.3125 852.25 275.1875 852.25 C 269.0625 852.25 256.8125 852.75 250.3125 862.125 C 248.6875 864.375 246.9375 868.125 246.9375 873.125 C 246.9375 886.5 257.3125 890.5 263.1875 892.75 L 267.9375 894.5 C 271.3125 895.625 276.8125 897.5 276.8125 902 C 276.8125 905.125 273.9375 908.5 266.9375 908.5 C 263.4375 908.5 258.3125 907.375 253.6875 905 C 251.5625 903.875 250.5625 903 248.6875 901.5 L 247.5625 902 C 247.3125 908.5 247.1875 909.875 246.6875 916.125 L 247.3125 917.25 C 253.4375 919.5 258.6875 921.5 267.8125 921.5 C 277.3125 921.5 296.0625 919.75 298.3125 901.875 C 298.4375 900.875 298.4375 900 298.4375 899.125 C 298.4375 885.375 288.8125 881.75 281.9375 879.125 Z M 344.4375 905.625 C 342.3125 906.25 340.8125 906.75 338.6875 906.75 C 332.3125 906.75 331.8125 902.75 331.5625 900.875 C 331.1875 897.625 331.1875 890.75 331.3125 885.75 L 331.5625 868.125 L 342.8125 868.625 L 343.5625 867.875 L 344.8125 854.5 L 344.0625 853.75 L 331.5625 853.75 L 331.9375 832.75 L 331.0625 832 C 322.5625 834.5 320.3125 835.125 311.4375 837.375 L 310.9375 838.25 L 311.0625 853.875 L 304.3125 853.625 L 303.5625 854.25 L 302.4375 867.625 L 303.1875 868.375 L 311.0625 868.125 L 310.6875 888 C 310.5625 891.125 310.4375 894.25 310.4375 897.5 C 310.4375 909 310.6875 921.375 330.1875 921.375 C 335.0625 921.375 338.9375 920.625 343.3125 919.875 L 344.1875 919 L 345.4375 906.125 Z M 417.3125 886.75 C 417.3125 881.875 417.3125 861.625 399.8125 854.75 C 394.3125 852.625 387.8125 852.375 384.5625 852.375 C 362.8125 852.375 350.5625 864 350.5625 887 C 350.5625 895 351.8125 903.125 356.4375 909.875 C 359.6875 914.75 365.8125 921.5 383.6875 921.5 C 410.1875 921.5 417.3125 905.5 417.3125 886.75 M 395.6875 886.625 C 395.6875 896.875 394.3125 908.25 383.9375 908.25 C 380.6875 908.25 378.4375 906.75 376.9375 905.375 C 374.8125 903.25 372.4375 899 372.4375 886.875 C 372.4375 883.25 372.4375 875.25 374.9375 870.875 C 376.8125 867.5 380.0625 865.25 384.0625 865.25 C 387.5625 865.25 390.4375 867.125 392.0625 869.125 C 395.0625 872.75 395.6875 879.875 395.6875 886.625 Z M 465.3125 873.625 L 468.8125 853.25 L 468.0625 852.375 C 467.1875 852.375 466.3125 852.25 465.4375 852.25 C 460.3125 852.25 454.5625 855.125 450.5625 864.375 L 450.9375 852.875 L 449.9375 851.875 C 440.6875 853.875 438.3125 854.25 429.1875 855.625 L 428.4375 856.375 C 429.1875 865.75 429.5625 871.375 429.5625 888.75 C 429.5625 899 429.4375 909.25 429.1875 919.625 L 429.9375 920.375 C 439.1875 920 441.1875 919.875 451.1875 920 L 451.8125 919.125 C 451.3125 909 450.5625 894.875 450.5625 886.25 C 450.5625 880.625 450.5625 872.375 459.0625 872.375 C 461.1875 872.375 462.4375 873.125 464.1875 874.125 Z M 498.6875 919.125 C 498.0625 909.5 497.5625 902.125 497.5625 884.875 C 497.5625 874.25 497.8125 863.5 497.9375 852.875 L 497.0625 851.875 L 475.5625 855.625 L 474.8125 856.375 C 475.8125 865.875 476.1875 870.25 476.1875 888 C 476.1875 901.625 475.8125 909.25 475.4375 919.5 L 476.1875 920.375 C 485.1875 920 487.6875 919.875 497.8125 920 L 498.6875 919.125 M 496.6875 839.875 L 497.0625 822.875 L 496.3125 822.125 L 475.9375 824.625 L 475.1875 825.5 C 475.4375 830 475.5625 832.625 475.5625 835.625 C 475.5625 838 475.5625 840.5 475.4375 842.875 L 476.3125 843.625 C 484.8125 842.125 487.1875 841.875 496.0625 840.75 Z M 561.4375 902 C 558.0625 904 554.8125 906 548.4375 906 C 534.3125 906 531.4375 894.25 531.4375 886.75 C 531.4375 877.625 535.4375 867.125 547.5625 867.125 C 553.0625 867.125 556.0625 869.125 559.8125 871.625 L 561.0625 871.25 C 561.5625 864.625 561.6875 862.875 562.6875 856.25 L 562.0625 855.5 C 556.5625 853.75 551.8125 852.25 544.5625 852.25 C 515.1875 852.25 509.4375 874.5 509.4375 887.25 C 509.4375 901.625 516.9375 921.125 545.0625 921.125 C 551.6875 921.125 555.9375 919.875 561.1875 918.375 L 561.9375 917.625 L 562.4375 902.625 Z M 625.6875 831.5 L 609.8125 831.75 L 609.0625 832.5 C 609.5625 848.75 609.9375 859.625 609.9375 874 C 609.9375 889.25 609.5625 904.375 609.1875 919.625 L 609.9375 920.375 C 619.1875 920 621.1875 919.875 631.1875 920 L 631.8125 919.25 C 631.3125 905.625 631.3125 902.5 631.3125 889.75 C 645.3125 889.875 660.3125 889.875 669.3125 878.875 C 672.8125 874.625 675.8125 867.5 675.8125 858.75 C 675.8125 853.375 674.5625 841.5 664.1875 835.625 C 656.6875 831.25 646.0625 831.25 636.6875 831.25 L 625.6875 831.5 M 631.3125 846.625 C 634.0625 846.5 636.6875 846.5 639.4375 846.5 C 650.4375 846.75 653.4375 852.375 653.4375 859.625 C 653.4375 861.375 653.4375 868.625 646.8125 872.25 C 643.4375 874.125 638.8125 874.375 631.3125 874.375 Z M 740.0625 882.75 C 740.1875 871.5 740.1875 866.625 736.9375 861.375 C 734.4375 857.375 729.4375 852.375 713.4375 852.375 C 702.6875 852.375 696.0625 854.375 688.9375 856.5 L 688.1875 857.5 L 687.5625 871.125 L 688.5625 871.625 C 692.9375 869.875 701.0625 866.625 709.4375 866.625 C 714.0625 866.625 715.9375 867.375 717.5625 869 C 718.8125 870.25 719.1875 872.5 719.1875 874.375 C 704.1875 876.375 697.1875 877.75 689.6875 882.375 C 682.6875 886.75 680.3125 893.875 680.3125 899.5 C 680.3125 912.875 689.9375 921.5 702.1875 921.5 C 711.5625 921.5 716.9375 917 719.5625 914.875 L 719.5625 919.5 L 720.3125 920.375 C 729.3125 920 732.0625 919.875 740.1875 920 L 740.8125 919.125 C 739.9375 906.875 739.9375 903.75 739.9375 892 L 740.0625 882.75 M 719.4375 902.625 C 716.8125 904.125 713.4375 905.875 709.3125 905.875 C 704.8125 905.875 701.0625 903.5 701.0625 898.25 C 701.0625 890 710.9375 888.625 719.4375 887.5 Z M 790.8125 873.625 L 794.3125 853.25 L 793.5625 852.375 C 792.6875 852.375 791.8125 852.25 790.9375 852.25 C 785.8125 852.25 780.0625 855.125 776.0625 864.375 L 776.4375 852.875 L 775.4375 851.875 C 766.1875 853.875 763.8125 854.25 754.6875 855.625 L 753.9375 856.375 C 754.6875 865.75 755.0625 871.375 755.0625 888.75 C 755.0625 899 754.9375 909.25 754.6875 919.625 L 755.4375 920.375 C 764.6875 920 766.6875 919.875 776.6875 920 L 777.3125 919.125 C 776.8125 909 776.0625 894.875 776.0625 886.25 C 776.0625 880.625 776.0625 872.375 784.5625 872.375 C 786.6875 872.375 787.9375 873.125 789.6875 874.125 Z M 865.8125 918.375 C 854.0625 898.5 852.8125 896.25 843.3125 879.125 C 851.9375 867.375 852.8125 866.125 861.6875 854.75 L 861.0625 853.5 L 840.6875 853.75 L 839.4375 854.625 C 829.6875 871.5 828.4375 873.5 822.6875 882.125 L 822.6875 868.25 C 822.8125 844.875 822.9375 839.875 823.5625 821 L 822.5625 820.25 L 800.8125 823.5 L 800.0625 824.375 C 800.9375 836.5 801.3125 842.375 801.5625 858.75 C 801.8125 879 801.8125 899.25 801.6875 919.5 L 802.5625 920.375 C 810.9375 920 813.3125 920 822.8125 920 L 823.5625 919.125 L 822.8125 898 L 822.6875 883.625 C 833.5625 903.625 834.9375 906.375 841.3125 919.625 L 842.4375 920.375 L 864.9375 919.5 Z M 864.3125 920 "/>
</svg>
