<svg xmlns="http://www.w3.org/2000/svg" width="612" height="817" viewBox="0 0 612 817">
  <defs>
    <style>
      .cls-1 {
        fill: #592626;
        fill-rule: evenodd;
      }
    </style>
  </defs>
  <path id="Marconi_Conference_Center_State_Historic_Park" data-name="Marconi Conference Center State Historic Park" class="cls-1" d="M221.758,243.924c-8.088.233-9.411,0.233-18.044,0.233l-0.466.467-3.578,12.6L196.559,268.5,192.9,282.033l-3.422-13.921-2.178-8.789-3.889-14.932-0.388-.467c-8.322.233-9.722,0.233-18.433,0.233l-0.467.467c-0.777,23.254-1.088,29.243-2.8,54.208l0.388,0.467c4.978-.233,6.456-0.311,10.967-0.233l0.466-.467,0.234-14.855,0.466-15.088,0.311-14.7,3.422,13.766,2.956,11.044,5.211,20.065,0.466,0.467c4.822-.233,6.144-0.311,11.589-0.233l0.466-.467,4.511-16.566,3.111-11.355,4.355-16.332v13.921l0.156,11.9v18.665l0.389,0.467c5.366-.233,7.466-0.311,13.455-0.233l0.389-.467c-0.467-8.866-1.011-17.81-1.322-26.754-0.234-4.9-.389-9.8-0.623-14.7-0.389-7.233-.466-8.167-0.466-12.755Zm46.279,31.965c0.078-7,.078-10.033-1.944-13.3-1.556-2.489-4.667-5.6-14.622-5.6a47.318,47.318,0,0,0-15.244,2.567l-0.466.622-0.389,8.477,0.622,0.311c2.722-1.089,7.778-3.111,12.988-3.111,2.878,0,4.045.467,5.056,1.478a4.908,4.908,0,0,1,1.011,3.344c-9.333,1.245-13.688,2.1-18.355,4.978a12.437,12.437,0,0,0-5.833,10.655c0,8.322,5.989,13.688,13.61,13.688a16.079,16.079,0,0,0,10.811-4.122v2.878l0.467,0.544c5.6-.233,7.31-0.311,12.366-0.233l0.389-.545c-0.545-7.621-.545-9.566-0.545-16.877ZM255.2,288.255a12.6,12.6,0,0,1-6.3,2.022c-2.8,0-5.133-1.477-5.133-4.744,0-5.133,6.144-5.988,11.432-6.688v9.41Zm44.411-18.043,2.178-12.678-0.467-.544c-0.544,0-1.088-.078-1.633-0.078-3.189,0-6.766,1.789-9.255,7.544l0.233-7.155-0.622-.622c-5.755,1.244-7.233,1.478-12.91,2.333l-0.467.467c0.467,5.833.7,9.333,0.7,20.143,0,6.378-.078,12.755-0.233,19.21l0.466,0.467c5.756-.233,7-0.311,13.222-0.233l0.389-.545c-0.311-6.3-.778-15.088-0.778-20.454,0-3.5,0-8.633,5.289-8.633a5.82,5.82,0,0,1,3.188,1.089Zm37.1,17.654a13.848,13.848,0,0,1-8.088,2.489c-8.789,0-10.578-7.311-10.578-11.977,0-5.678,2.489-12.211,10.033-12.211,3.422,0,5.289,1.245,7.622,2.8l0.778-.233c0.311-4.122.389-5.211,1.011-9.333l-0.389-.467a32.357,32.357,0,0,0-10.888-2.022c-18.277,0-21.855,13.844-21.855,21.777,0,8.944,4.666,21.077,22.166,21.077a32.575,32.575,0,0,0,10.032-1.711l0.467-.467,0.311-9.333Zm46.433-9.488c0-3.033,0-15.633-10.888-19.91a27.965,27.965,0,0,0-9.489-1.478c-13.533,0-21.154,7.233-21.154,21.543,0,4.978.777,10.033,3.655,14.233,2.022,3.033,5.833,7.233,16.955,7.233C378.715,300,383.148,290.044,383.148,278.378Zm-13.455-.078c0,6.378-.856,13.455-7.311,13.455a6.288,6.288,0,0,1-4.355-1.789c-1.322-1.322-2.8-3.966-2.8-11.51,0-2.256,0-7.233,1.556-9.955a6.439,6.439,0,0,1,5.677-3.5,6.54,6.54,0,0,1,4.978,2.411C369.3,269.667,369.693,274.1,369.693,278.3Zm58.955,20.221c-0.389-6.844-.389-9.021-0.544-16.643v-6.067c-0.078-7.466-.156-11.044-2.1-14.232-2.411-4.045-6.844-4.667-9.644-4.667-4.745,0-8.867,2.489-12.444,4.589l0.155-4.278-0.777-.544c-5.989,1.244-7.311,1.478-13.144,2.255l-0.467.545a216.367,216.367,0,0,1,1.089,24.343c0,4.978-.078,9.955-0.156,14.933l0.467,0.466c5.6-.233,6.766-0.233,12.988-0.233l0.467-.467c-0.467-11.977-.544-15.01-0.622-28.932,1.633-1.088,3.5-2.411,5.988-2.411,4.278,0,4.667,4.589,4.9,7.389,0.156,2.567.233,13.222,0.233,16.177,0,2.644-.077,5.366-0.077,8.011l0.466,0.466c5.133-.155,6.456-0.233,12.678-0.233Zm22.946,0c-0.389-5.988-.7-10.577-0.7-21.31,0-6.611.155-13.3,0.233-19.91l-0.545-.622-13.377,2.333-0.466.467c0.622,5.911.855,8.633,0.855,19.677,0,8.477-.233,13.221-0.466,19.6l0.466,0.544c5.6-.233,7.155-0.311,13.455-0.233Zm-1.245-49.308,0.233-10.578-0.466-.466-12.677,1.555-0.467.545c0.156,2.8.233,4.433,0.233,6.3,0,1.478,0,3.034-.077,4.511l0.544,0.467c5.289-.933,6.766-1.089,12.288-1.789ZM145.031,378.478a19.006,19.006,0,0,1-12.21,4.355c-8.867,0-15.089-6.611-15.089-17.655,0-6.688,2.334-18.432,15.011-18.432a16.678,16.678,0,0,1,10.966,3.733l0.7-.156,0.7-10.732L144.8,339.2a37.519,37.519,0,0,0-14.388-2.878c-20.144,0-27.143,15.555-27.143,29.165,0,14.933,9.1,28.077,28.076,28.077a32.991,32.991,0,0,0,13.3-2.722l0.389-.467,0.545-11.588Zm46.2-6.767c0-3.033,0-15.632-10.888-19.91a27.958,27.958,0,0,0-9.489-1.478c-13.532,0-21.154,7.233-21.154,21.544,0,4.977.778,10.033,3.655,14.232,2.022,3.034,5.833,7.233,16.955,7.233C186.8,393.332,191.231,383.377,191.231,371.711Zm-13.455-.078c0,6.378-.855,13.455-7.31,13.455a6.292,6.292,0,0,1-4.356-1.788c-1.322-1.323-2.8-3.967-2.8-11.511,0-2.255,0-7.233,1.556-9.955a6.44,6.44,0,0,1,5.677-3.5,6.541,6.541,0,0,1,4.978,2.411C177.387,363,177.776,367.434,177.776,371.633Zm58.955,20.222c-0.389-6.844-.389-9.022-0.544-16.644v-6.066c-0.078-7.467-.156-11.044-2.1-14.233-2.411-4.044-6.844-4.666-9.644-4.666-4.744,0-8.866,2.488-12.444,4.588l0.156-4.277-0.778-.545c-5.989,1.245-7.311,1.478-13.144,2.256l-0.467.544a216.123,216.123,0,0,1,1.089,24.343c0,4.978-.077,9.955-0.155,14.933l0.466,0.467c5.6-.234,6.767-0.234,12.989-0.234l0.466-.466c-0.466-11.977-.544-15.011-0.622-28.932,1.633-1.089,3.5-2.411,5.989-2.411,4.277,0,4.666,4.588,4.9,7.388,0.155,2.567.233,13.222,0.233,16.177,0,2.645-.078,5.367-0.078,8.011l0.467,0.467c5.133-.156,6.455-0.234,12.677-0.234Zm24.424,0c-0.778-14.155-.856-17.966-0.778-31.732l6.144,0.311,0.544-.544,0.7-8.244-0.388-.467H260.3l0.078-1.789c0-4.744.078-9.1,5.133-9.1,0.778,0,1.555.155,2.333,0.233l0.545-.311,0.7-8.789-0.389-.544c-1.867-.156-3.656-0.233-5.445-0.233-3.966,0-8.01.466-11.121,2.8-4.822,3.578-4.744,9.178-4.744,13.066l0.077,4.667-5.055-.078-0.467.389-0.777,8.244,0.466,0.467,5.911-.156c0,14.7,0,18.2-.467,32.043l0.467,0.544c5.289-.233,7.311-0.311,13.144-0.311Zm46.51-10.966a23.776,23.776,0,0,1-12.133,3.344c-4.666,0-7.855-1.478-9.722-4.278a11.01,11.01,0,0,1-1.711-4.744l25.121-.467,0.467-.544a45.638,45.638,0,0,0-1.244-11.588c-2.723-9.178-8.711-11.044-11.355-11.666a19.9,19.9,0,0,0-5.522-.7c-12.211,0-20.3,8.01-20.3,21.465a25.893,25.893,0,0,0,1.866,10.189c4.511,10.5,15.088,11.432,20.688,11.432,6.455,0,9.255-1.166,13.377-2.8l0.467-.623,0.544-8.788ZM284.1,366.967c0.234-2.411.778-5.677,3.733-7.544a5.969,5.969,0,0,1,8.089,1.867,9.5,9.5,0,0,1,1.167,5.366Zm55.222-3.422,2.178-12.677-0.467-.545c-0.544,0-1.089-.077-1.633-0.077-3.189,0-6.767,1.788-9.255,7.544l0.233-7.156-0.622-.622c-5.756,1.245-7.233,1.478-12.911,2.333l-0.466.467c0.466,5.833.7,9.333,0.7,20.144,0,6.377-.078,12.755-0.234,19.21l0.467,0.466c5.755-.233,7-0.311,13.221-0.233l0.389-.544c-0.311-6.3-.777-15.088-0.777-20.455,0-3.5,0-8.633,5.288-8.633a5.826,5.826,0,0,1,3.189,1.089Zm41.222,17.344a23.779,23.779,0,0,1-12.133,3.344c-4.667,0-7.855-1.478-9.722-4.278a11,11,0,0,1-1.711-4.744l25.121-.467,0.467-.544a45.6,45.6,0,0,0-1.245-11.588c-2.722-9.178-8.71-11.044-11.355-11.666a19.9,19.9,0,0,0-5.522-.7c-12.21,0-20.3,8.01-20.3,21.465a25.893,25.893,0,0,0,1.867,10.189c4.511,10.5,15.088,11.432,20.688,11.432,6.455,0,9.255-1.166,13.377-2.8l0.467-.623,0.544-8.788Zm-23.566-13.922c0.233-2.411.778-5.677,3.733-7.544a5.969,5.969,0,0,1,8.089,1.867,9.5,9.5,0,0,1,1.166,5.366Zm70.854,24.888c-0.389-6.844-.389-9.022-0.544-16.644v-6.066c-0.078-7.467-.156-11.044-2.1-14.233-2.411-4.044-6.844-4.666-9.644-4.666-4.744,0-8.866,2.488-12.444,4.588l0.156-4.277-0.778-.545c-5.989,1.245-7.311,1.478-13.144,2.256l-0.467.544a216.123,216.123,0,0,1,1.089,24.343c0,4.978-.077,9.955-0.155,14.933l0.466,0.467c5.6-.234,6.767-0.234,12.989-0.234l0.466-.466c-0.466-11.977-.544-15.011-0.622-28.932,1.633-1.089,3.5-2.411,5.989-2.411,4.277,0,4.666,4.588,4.9,7.388,0.156,2.567.234,13.222,0.234,16.177,0,2.645-.078,5.367-0.078,8.011l0.467,0.467c5.133-.156,6.455-0.234,12.677-0.234ZM467.109,381.2a13.853,13.853,0,0,1-8.088,2.488c-8.789,0-10.577-7.31-10.577-11.977,0-5.677,2.488-12.21,10.033-12.21,3.422,0,5.288,1.244,7.621,2.8l0.778-.234c0.311-4.122.389-5.211,1.011-9.333l-0.389-.466a32.328,32.328,0,0,0-10.888-2.022c-18.277,0-21.855,13.843-21.855,21.776,0,8.944,4.667,21.077,22.166,21.077a32.587,32.587,0,0,0,10.033-1.711l0.467-.467,0.311-9.332Zm41.378-.311a23.773,23.773,0,0,1-12.133,3.344c-4.666,0-7.855-1.478-9.721-4.278a11.012,11.012,0,0,1-1.712-4.744l25.121-.467,0.467-.544a45.593,45.593,0,0,0-1.244-11.588c-2.722-9.178-8.711-11.044-11.355-11.666a19.9,19.9,0,0,0-5.522-.7c-12.211,0-20.3,8.01-20.3,21.465a25.893,25.893,0,0,0,1.866,10.189c4.511,10.5,15.088,11.432,20.688,11.432,6.455,0,9.255-1.166,13.377-2.8l0.467-.623,0.544-8.788Zm-23.566-13.922c0.234-2.411.778-5.677,3.734-7.544a5.967,5.967,0,0,1,8.088,1.867,9.5,9.5,0,0,1,1.167,5.366ZM129.592,471.811a19.006,19.006,0,0,1-12.21,4.355c-8.866,0-15.088-6.611-15.088-17.654,0-6.689,2.333-18.433,15.01-18.433a16.684,16.684,0,0,1,10.966,3.733l0.7-.155,0.7-10.733-0.311-.389a37.519,37.519,0,0,0-14.388-2.878c-20.144,0-27.143,15.555-27.143,29.166,0,14.932,9.1,28.076,28.076,28.076a32.991,32.991,0,0,0,13.3-2.722l0.389-.467,0.545-11.588Zm41.145,2.411a23.773,23.773,0,0,1-12.133,3.344c-4.666,0-7.855-1.478-9.721-4.277a11.02,11.02,0,0,1-1.712-4.745l25.122-.466,0.466-.545a45.6,45.6,0,0,0-1.244-11.588c-2.722-9.177-8.711-11.044-11.355-11.666a19.9,19.9,0,0,0-5.522-.7c-12.211,0-20.3,8.011-20.3,21.466a25.891,25.891,0,0,0,1.866,10.188c4.511,10.5,15.089,11.433,20.688,11.433,6.455,0,9.255-1.167,13.377-2.8l0.467-.622,0.544-8.789ZM147.171,460.3c0.234-2.411.778-5.677,3.734-7.544a5.97,5.97,0,0,1,8.088,1.867,9.5,9.5,0,0,1,1.167,5.366Zm70.855,24.888c-0.389-6.844-.389-9.022-0.545-16.644v-6.066c-0.077-7.466-.155-11.044-2.1-14.233-2.411-4.044-6.844-4.666-9.644-4.666-4.744,0-8.866,2.489-12.443,4.589l0.155-4.278-0.778-.544c-5.988,1.244-7.31,1.477-13.143,2.255l-0.467.544a216.4,216.4,0,0,1,1.089,24.344c0,4.977-.078,9.955-0.156,14.932l0.467,0.467c5.6-.233,6.766-0.233,12.988-0.233l0.467-.467c-0.467-11.977-.545-15.01-0.622-28.932,1.633-1.089,3.5-2.411,5.988-2.411,4.278,0,4.667,4.589,4.9,7.389,0.156,2.566.233,13.221,0.233,16.177,0,2.644-.077,5.366-0.077,8.01l0.466,0.467c5.133-.156,6.455-0.233,12.677-0.233Zm30.645-8.4a11.669,11.669,0,0,1-3.578.7c-3.966,0-4.277-2.488-4.433-3.655a89.18,89.18,0,0,1-.155-9.411l0.155-10.966,7,0.311,0.467-.466,0.777-8.322-0.466-.467H240.66l0.234-13.066-0.545-.466c-5.288,1.555-6.688,1.944-12.21,3.344l-0.311.544,0.077,9.722-4.2-.156-0.466.389-0.7,8.322,0.467,0.467,4.9-.156-0.233,12.366c-0.078,1.945-.156,3.889-0.156,5.911,0,7.155.156,14.855,12.289,14.855a45.259,45.259,0,0,0,8.166-.933l0.544-.545,0.778-8.01Zm38.733-2.566a23.779,23.779,0,0,1-12.133,3.344c-4.667,0-7.855-1.478-9.722-4.277a11.018,11.018,0,0,1-1.711-4.745l25.121-.466,0.467-.545a45.6,45.6,0,0,0-1.245-11.588c-2.722-9.177-8.71-11.044-11.355-11.666a19.9,19.9,0,0,0-5.522-.7c-12.21,0-20.3,8.011-20.3,21.466a25.891,25.891,0,0,0,1.867,10.188c4.511,10.5,15.088,11.433,20.688,11.433,6.455,0,9.255-1.167,13.377-2.8l0.467-.622,0.544-8.789ZM263.838,460.3c0.233-2.411.778-5.677,3.733-7.544a5.971,5.971,0,0,1,8.089,1.867,9.5,9.5,0,0,1,1.166,5.366Zm55.222-3.422,2.177-12.677-0.466-.544c-0.545,0-1.089-.078-1.633-0.078-3.189,0-6.767,1.789-9.255,7.544l0.233-7.155-0.622-.622c-5.756,1.244-7.233,1.477-12.911,2.333l-0.467.466c0.467,5.834.7,9.333,0.7,20.144,0,6.377-.077,12.755-0.233,19.21l0.467,0.467c5.755-.234,7-0.311,13.221-0.234l0.389-.544c-0.311-6.3-.777-15.088-0.777-20.455,0-3.5,0-8.632,5.288-8.632a5.825,5.825,0,0,1,3.189,1.088Zm51.878-4.588c-6.533-2.722-9.956-4.122-9.956-7.622,0-2.411,2.256-5.444,7.389-5.444,5.911,0,9.411,2.411,12.288,4.355l0.7-.311,0.623-10.189-0.389-.544a31.86,31.86,0,0,0-14.389-2.878c-14.621,0-19.676,8.244-19.676,16.566,0,9.411,7.31,12.833,11.666,14.933l2.566,1.166c5.367,2.256,9.489,4.2,9.489,8.322,0,2.956-2.567,6.456-9.333,6.456a19.842,19.842,0,0,1-13.3-4.9l-0.777.233L347.294,483.4l0.467,0.622c0.855,0.312,1.711.7,2.566,0.934a38.753,38.753,0,0,0,12.211,1.944c2.333,0,8.244-.233,12.91-2.411,6.534-3.189,9.333-9.1,9.333-15.71a15.413,15.413,0,0,0-5.833-12.366,31.535,31.535,0,0,0-5.988-3.345Zm43.011,24.5a11.675,11.675,0,0,1-3.578.7c-3.966,0-4.277-2.488-4.433-3.655a89.421,89.421,0,0,1-.156-9.411l0.156-10.966,7,0.311,0.466-.466,0.778-8.322-0.467-.467h-7.777l0.233-13.066-0.544-.466c-5.289,1.555-6.689,1.944-12.211,3.344l-0.311.544,0.078,9.722-4.2-.156-0.466.389-0.7,8.322,0.466,0.467,4.9-.156-0.233,12.366c-0.078,1.945-.156,3.889-0.156,5.911,0,7.155.156,14.855,12.288,14.855a45.26,45.26,0,0,0,8.167-.933l0.544-.545,0.778-8.01Zm40.366-14.232c0.078-7,.078-10.033-1.945-13.3-1.555-2.488-4.666-5.6-14.621-5.6a47.337,47.337,0,0,0-15.244,2.566l-0.466.622-0.389,8.478,0.622,0.311c2.722-1.089,7.777-3.111,12.988-3.111,2.878,0,4.044.467,5.055,1.478a4.9,4.9,0,0,1,1.012,3.344c-9.333,1.244-13.689,2.1-18.355,4.977a12.438,12.438,0,0,0-5.833,10.656c0,8.321,5.988,13.688,13.61,13.688a16.082,16.082,0,0,0,10.811-4.122v2.877l0.466,0.545c5.6-.234,7.311-0.311,12.367-0.234l0.388-.544c-0.544-7.622-.544-9.566-0.544-16.877Zm-12.833,12.366a12.6,12.6,0,0,1-6.3,2.022c-2.8,0-5.133-1.478-5.133-4.744,0-5.133,6.144-5.989,11.433-6.689v9.411Zm43.711,1.866a11.669,11.669,0,0,1-3.577.7c-3.967,0-4.278-2.488-4.434-3.655a89.18,89.18,0,0,1-.155-9.411l0.155-10.966,7,0.311,0.467-.466,0.778-8.322-0.467-.467h-7.778l0.234-13.066-0.545-.466c-5.288,1.555-6.688,1.944-12.21,3.344l-0.311.544,0.077,9.722-4.2-.156-0.467.389-0.7,8.322,0.467,0.467,4.9-.156-0.233,12.366c-0.078,1.945-.155,3.889-0.155,5.911,0,7.155.155,14.855,12.288,14.855a45.259,45.259,0,0,0,8.166-.933l0.545-.545,0.777-8.01Zm38.733-2.566a23.776,23.776,0,0,1-12.133,3.344c-4.666,0-7.855-1.478-9.722-4.277a11.018,11.018,0,0,1-1.711-4.745l25.121-.466,0.467-.545a45.643,45.643,0,0,0-1.244-11.588c-2.722-9.177-8.711-11.044-11.355-11.666a19.9,19.9,0,0,0-5.522-.7c-12.211,0-20.3,8.011-20.3,21.466a25.891,25.891,0,0,0,1.866,10.188c4.511,10.5,15.088,11.433,20.688,11.433,6.455,0,9.255-1.167,13.377-2.8l0.467-.622,0.544-8.789ZM500.36,460.3c0.234-2.411.778-5.677,3.734-7.544a5.97,5.97,0,0,1,8.088,1.867,9.5,9.5,0,0,1,1.167,5.366ZM125.236,523.924c-6.221.233-7.233,0.233-13.766,0.233l-0.388.467c0.544,8.788.544,11.044,0.622,20.221-3.422.078-6.844,0.156-10.344,0.156-2.722,0-5.522-.078-8.244-0.078l0.156-20.532-0.389-.467c-5.989.233-7.155,0.233-13.922,0.233l-0.467.467c0.389,8.011.856,17.577,0.856,36.865,0,7-.156,10.81-0.311,17.343l0.389,0.467c5.678-.233,7.078-0.311,13.922-0.233l0.389-.467c-0.467-9.644-.544-12.444-0.622-23.721,3.422-.155,6.3-0.233,9.333-0.233,3.111,0,6.222.078,9.333,0.155,0.155,10.5.155,13.066-.234,24.032l0.389,0.467c5.833-.233,7.389-0.311,14-0.233l0.389-.467c-0.622-13.066-.855-26.054-0.855-39.12,0-5.444.078-9.1,0.155-15.088Zm24.191,54.6c-0.389-5.988-.7-10.577-0.7-21.31,0-6.611.155-13.3,0.233-19.91l-0.544-.622-13.377,2.333-0.467.467c0.622,5.911.856,8.633,0.856,19.677,0,8.477-.234,13.221-0.467,19.6l0.467,0.544c5.6-.233,7.155-0.311,13.454-0.233Zm-1.244-49.308,0.233-10.578-0.467-.466-12.677,1.555-0.467.545c0.156,2.8.234,4.433,0.234,6.3,0,1.478,0,3.034-.078,4.511l0.544,0.467c5.289-.933,6.767-1.089,12.289-1.789Zm26.21,23.021c-2.644-.934-4.744-1.789-4.744-3.967,0-.933.622-3.5,5.444-3.5a16.875,16.875,0,0,1,9.722,3.267l0.7-.233,0.778-8.478-0.389-.466a39.606,39.606,0,0,0-11.9-1.945c-3.811,0-11.433.311-15.477,6.144a11.687,11.687,0,0,0-2.1,6.845c0,8.321,6.455,10.81,10.11,12.21l2.956,1.089c2.1,0.7,5.522,1.866,5.522,4.666,0,1.945-1.789,4.045-6.145,4.045a19.461,19.461,0,0,1-8.244-2.178,17.186,17.186,0,0,1-3.111-2.178l-0.7.311c-0.156,4.045-.234,4.9-0.545,8.789l0.389,0.7c3.811,1.4,7.077,2.644,12.755,2.644,5.911,0,17.577-1.089,18.977-12.21a13.154,13.154,0,0,0,.078-1.711c0-8.556-5.989-10.811-10.267-12.444Zm42.7,17.888a11.669,11.669,0,0,1-3.577.7c-3.967,0-4.278-2.489-4.434-3.656a89.161,89.161,0,0,1-.155-9.41l0.155-10.966,7,0.311,0.467-.467,0.778-8.322-0.467-.466h-7.778l0.234-13.066-0.545-.467c-5.288,1.555-6.688,1.944-12.21,3.344l-0.311.545,0.078,9.721-4.2-.155-0.467.389-0.7,8.321,0.467,0.467,4.9-.155-0.234,12.366c-0.078,1.944-.155,3.888-0.155,5.91,0,7.156.155,14.855,12.288,14.855a45.17,45.17,0,0,0,8.166-.933l0.545-.544,0.777-8.011Zm45.344-11.744c0-3.033,0-15.633-10.889-19.91a27.956,27.956,0,0,0-9.488-1.478c-13.533,0-21.155,7.233-21.155,21.543,0,4.978.778,10.033,3.656,14.233,2.022,3.033,5.833,7.233,16.955,7.233C258,580,262.437,570.044,262.437,558.378Zm-13.455-.078c0,6.378-.856,13.455-7.311,13.455a6.288,6.288,0,0,1-4.355-1.789c-1.322-1.322-2.8-3.966-2.8-11.51,0-2.256,0-7.233,1.555-9.955a6.442,6.442,0,0,1,5.678-3.5,6.536,6.536,0,0,1,4.977,2.411C248.593,549.667,248.982,554.1,248.982,558.3Zm43.322-8.088,2.178-12.678-0.467-.544c-0.544,0-1.089-.078-1.633-0.078-3.189,0-6.766,1.789-9.255,7.544l0.233-7.155-0.622-.622c-5.755,1.244-7.233,1.478-12.91,2.333l-0.467.467c0.467,5.833.7,9.333,0.7,20.143,0,6.378-.078,12.755-0.233,19.21l0.466,0.467c5.755-.233,7-0.311,13.222-0.233l0.389-.545c-0.311-6.3-.778-15.088-0.778-20.454,0-3.5,0-8.633,5.289-8.633a5.822,5.822,0,0,1,3.188,1.089Zm20.767,28.309c-0.389-5.988-.7-10.577-0.7-21.31,0-6.611.156-13.3,0.234-19.91l-0.545-.622-13.377,2.333-0.467.467c0.623,5.911.856,8.633,0.856,19.677,0,8.477-.233,13.221-0.467,19.6l0.467,0.544c5.6-.233,7.155-0.311,13.455-0.233Zm-1.244-49.308,0.233-10.578-0.466-.466-12.678,1.555-0.466.545c0.155,2.8.233,4.433,0.233,6.3,0,1.478,0,3.034-.078,4.511l0.545,0.467c5.288-.933,6.766-1.089,12.288-1.789Zm40.288,38.653a13.849,13.849,0,0,1-8.089,2.489c-8.788,0-10.577-7.311-10.577-11.977,0-5.678,2.489-12.211,10.033-12.211,3.422,0,5.289,1.245,7.622,2.8l0.778-.233c0.311-4.122.389-5.211,1.011-9.333l-0.389-.467a32.358,32.358,0,0,0-10.889-2.022c-18.276,0-21.854,13.844-21.854,21.777,0,8.944,4.666,21.077,22.166,21.077a32.575,32.575,0,0,0,10.032-1.711l0.467-.467,0.311-9.333ZM392.094,524l-9.878.155-0.466.467c0.311,10.111.544,16.877,0.544,25.821,0,9.488-.233,18.9-0.466,28.387l0.466,0.467c5.755-.233,7-0.311,13.222-0.233l0.389-.467c-0.311-8.477-.311-10.422-0.311-18.355,8.71,0.078,18.043.078,23.643-6.766a19.985,19.985,0,0,0,4.044-12.521c0-3.345-.778-10.733-7.233-14.389-4.666-2.722-11.277-2.722-17.11-2.722Zm3.5,9.41c1.711-.077,3.344-0.077,5.055-0.077,6.844,0.155,8.711,3.655,8.711,8.166,0,1.089,0,5.6-4.122,7.855-2.1,1.167-4.978,1.322-9.644,1.322V533.412Zm66.11,22.477c0.077-7,.077-10.033-1.945-13.3-1.555-2.489-4.666-5.6-14.621-5.6a47.308,47.308,0,0,0-15.244,2.567l-0.467.622-0.388,8.477,0.622,0.311c2.722-1.089,7.777-3.111,12.988-3.111,2.878,0,4.044.467,5.055,1.478a4.9,4.9,0,0,1,1.011,3.344c-9.332,1.245-13.688,2.1-18.354,4.978a12.435,12.435,0,0,0-5.833,10.655c0,8.322,5.988,13.688,13.61,13.688a16.084,16.084,0,0,0,10.811-4.122v2.878l0.466,0.544c5.6-.233,7.311-0.311,12.366-0.233l0.389-.545c-0.544-7.621-.544-9.566-0.544-16.877Zm-12.833,12.366a12.6,12.6,0,0,1-6.3,2.022c-2.8,0-5.133-1.477-5.133-4.744,0-5.133,6.144-5.989,11.433-6.688v9.41Zm44.411-18.043,2.178-12.678-0.467-.544c-0.544,0-1.089-.078-1.633-0.078-3.189,0-6.767,1.789-9.255,7.544l0.233-7.155-0.622-.622c-5.755,1.244-7.233,1.478-12.911,2.333l-0.466.467c0.466,5.833.7,9.333,0.7,20.143,0,6.378-.078,12.755-0.234,19.21l0.467,0.467c5.755-.233,7-0.311,13.222-0.233l0.388-.545c-0.311-6.3-.777-15.088-0.777-20.454,0-3.5,0-8.633,5.288-8.633a5.826,5.826,0,0,1,3.189,1.089Zm46.666,27.843c-7.311-12.366-8.089-13.766-14-24.421,5.366-7.311,5.91-8.089,11.432-15.166l-0.389-.778-12.677.156-0.777.544c-6.067,10.5-6.845,11.744-10.422,17.11v-8.633c0.078-14.543.155-17.654,0.544-29.4L513.038,517l-13.533,2.022-0.466.545c0.544,7.544.777,11.2,0.933,21.388,0.156,12.6.156,25.2,0.078,37.8l0.544,0.544c5.211-.233,6.689-0.233,12.6-0.233l0.466-.545-0.466-13.143-0.078-8.944c6.766,12.443,7.622,14.154,11.588,22.4l0.7,0.467,14-.544Z"/>
</svg>
