<?xml version="1.0" encoding="UTF-8"?>
<svg xmlns="http://www.w3.org/2000/svg" xmlns:xlink="http://www.w3.org/1999/xlink" width="975" height="1300" viewBox="0 0 975 1300">
<path fill-rule="nonzero" fill="rgb(34.901961%, 14.901961%, 14.901961%)" fill-opacity="1" d="M 257.625 597.625 C 254.75 599.875 248.375 604.625 238 604.625 C 223.75 604.625 213.75 594 213.75 576.25 C 213.75 565.5 217.5 546.625 237.875 546.625 C 247.25 546.625 252.375 550.25 255.5 552.625 L 256.625 552.375 L 257.75 535.125 L 257.25 534.5 C 252.75 532.75 245.125 529.875 234.125 529.875 C 201.75 529.875 190.5 554.875 190.5 576.75 C 190.5 600.75 205.125 621.875 235.625 621.875 C 246.125 621.875 253 619.125 257 617.5 L 257.625 616.75 L 258.5 598.125 Z M 290.25 619.125 C 289.625 604.75 289 591.625 289 552.125 C 289 540.25 289.125 534.625 289.625 521.125 L 288.75 520.25 L 267.375 523.625 L 266.875 524.375 C 268.125 539.625 268.25 543.75 268.5 564 C 268.625 571.375 268.625 578.75 268.625 586.125 C 268.625 599.625 268.375 607.125 267.875 619.5 L 268.625 620.375 C 277 620 280.375 619.875 289.5 620 Z M 360.25 601.5 C 355.5 604 349.875 606.875 340.75 606.875 C 333.25 606.875 328.125 604.5 325.125 600 C 323.25 597.375 322.875 594.875 322.375 592.375 L 362.75 591.625 L 363.5 590.75 C 363.375 584.625 363.25 578.375 361.5 572.125 C 357.125 557.375 347.5 554.375 343.25 553.375 C 340.125 552.5 337.25 552.25 334.375 552.25 C 314.75 552.25 301.75 565.125 301.75 586.75 C 301.75 592.625 302.75 598.75 304.75 603.125 C 312 620 329 621.5 338 621.5 C 348.375 621.5 352.875 619.625 359.5 617 L 360.25 616 L 361.125 601.875 L 360.25 601.5 M 322.375 579.125 C 322.75 575.25 323.625 570 328.375 567 C 329.875 566 331.625 565.625 333.375 565.625 C 337.5 565.625 340 567.75 341.375 570 C 343.125 572.75 343.25 575.75 343.25 578.625 Z M 430.625 582.75 C 430.75 571.5 430.75 566.625 427.5 561.375 C 425 557.375 420 552.375 404 552.375 C 393.25 552.375 386.625 554.375 379.5 556.5 L 378.75 557.5 L 378.125 571.125 L 379.125 571.625 C 383.5 569.875 391.625 566.625 400 566.625 C 404.625 566.625 406.5 567.375 408.125 569 C 409.375 570.25 409.75 572.5 409.75 574.375 C 394.75 576.375 387.75 577.75 380.25 582.375 C 373.25 586.75 370.875 593.875 370.875 599.5 C 370.875 612.875 380.5 621.5 392.75 621.5 C 402.125 621.5 407.5 617 410.125 614.875 L 410.125 619.5 L 410.875 620.375 C 419.875 620 422.625 619.875 430.75 620 L 431.375 619.125 C 430.5 606.875 430.5 603.75 430.5 592 L 430.625 582.75 M 410 602.625 C 407.375 604.125 404 605.875 399.875 605.875 C 395.375 605.875 391.625 603.5 391.625 598.25 C 391.625 590 401.5 588.625 410 587.5 Z M 481.375 573.625 L 484.875 553.25 L 484.125 552.375 C 483.25 552.375 482.375 552.25 481.5 552.25 C 476.375 552.25 470.625 555.125 466.625 564.375 L 467 552.875 L 466 551.875 C 456.75 553.875 454.375 554.25 445.25 555.625 L 444.5 556.375 C 445.25 565.75 445.625 571.375 445.625 588.75 C 445.625 599 445.5 609.25 445.25 619.625 L 446 620.375 C 455.25 620 457.25 619.875 467.25 620 L 467.875 619.125 C 467.375 609 466.625 594.875 466.625 586.25 C 466.625 580.625 466.625 572.375 475.125 572.375 C 477.25 572.375 478.5 573.125 480.25 574.125 Z M 582.375 602.875 C 568.75 603.625 557.875 603.875 554.125 603.875 L 551.625 603.875 C 551.375 570.5 551.5 562 552.5 532.125 L 551.75 531.375 C 541 531.875 538.125 531.875 529.5 531.75 L 528.75 532.5 C 529.25 542.5 529.375 545.5 529.375 560.375 C 529.375 580.125 529.25 599.875 529.25 619.625 L 529.875 620.375 C 554.375 620 558.875 620 581.375 620 L 582 619.25 L 583 603.5 Z M 649.375 582.75 C 649.5 571.5 649.5 566.625 646.25 561.375 C 643.75 557.375 638.75 552.375 622.75 552.375 C 612 552.375 605.375 554.375 598.25 556.5 L 597.5 557.5 L 596.875 571.125 L 597.875 571.625 C 602.25 569.875 610.375 566.625 618.75 566.625 C 623.375 566.625 625.25 567.375 626.875 569 C 628.125 570.25 628.5 572.5 628.5 574.375 C 613.5 576.375 606.5 577.75 599 582.375 C 592 586.75 589.625 593.875 589.625 599.5 C 589.625 612.875 599.25 621.5 611.5 621.5 C 620.875 621.5 626.25 617 628.875 614.875 L 628.875 619.5 L 629.625 620.375 C 638.625 620 641.375 619.875 649.5 620 L 650.125 619.125 C 649.25 606.875 649.25 603.75 649.25 592 L 649.375 582.75 M 628.75 602.625 C 626.125 604.125 622.75 605.875 618.625 605.875 C 614.125 605.875 610.375 603.5 610.375 598.25 C 610.375 590 620.25 588.625 628.75 587.5 Z M 728.25 618.375 C 716.5 598.5 715.25 596.25 705.75 579.125 C 714.375 567.375 715.25 566.125 724.125 554.75 L 723.5 553.5 L 703.125 553.75 L 701.875 554.625 C 692.125 571.5 690.875 573.5 685.125 582.125 L 685.125 568.25 C 685.25 544.875 685.375 539.875 686 521 L 685 520.25 L 663.25 523.5 L 662.5 524.375 C 663.375 536.5 663.75 542.375 664 558.75 C 664.25 579 664.25 599.25 664.125 619.5 L 665 620.375 C 673.375 620 675.75 620 685.25 620 L 686 619.125 L 685.25 598 L 685.125 583.625 C 696 603.625 697.375 606.375 703.75 619.625 L 704.875 620.375 L 727.375 619.5 Z M 789.75 601.5 C 785 604 779.375 606.875 770.25 606.875 C 762.75 606.875 757.625 604.5 754.625 600 C 752.75 597.375 752.375 594.875 751.875 592.375 L 792.25 591.625 L 793 590.75 C 792.875 584.625 792.75 578.375 791 572.125 C 786.625 557.375 777 554.375 772.75 553.375 C 769.625 552.5 766.75 552.25 763.875 552.25 C 744.25 552.25 731.25 565.125 731.25 586.75 C 731.25 592.625 732.25 598.75 734.25 603.125 C 741.5 620 758.5 621.5 767.5 621.5 C 777.875 621.5 782.375 619.625 789 617 L 789.75 616 L 790.625 601.875 L 789.75 601.5 M 751.875 579.125 C 752.25 575.25 753.125 570 757.875 567 C 759.375 566 761.125 565.625 762.875 565.625 C 767 565.625 769.5 567.75 770.875 570 C 772.625 572.75 772.75 575.75 772.75 578.625 Z M 797 620 "/>
<path fill-rule="nonzero" fill="rgb(34.901961%, 14.901961%, 14.901961%)" fill-opacity="1" d="M 232.875 716.25 C 222.375 711.875 216.875 709.625 216.875 704 C 216.875 700.125 220.5 695.25 228.75 695.25 C 238.25 695.25 243.875 699.125 248.5 702.25 L 249.625 701.75 L 250.625 685.375 L 250 684.5 C 244.625 682.25 239 679.875 226.875 679.875 C 203.375 679.875 195.25 693.125 195.25 706.5 C 195.25 721.625 207 727.125 214 730.5 L 218.125 732.375 C 226.75 736 233.375 739.125 233.375 745.75 C 233.375 750.5 229.25 756.125 218.375 756.125 C 207 756.125 200.625 751.125 197 748.25 L 195.75 748.625 L 194.875 766.25 L 195.625 767.25 C 197 767.75 198.375 768.375 199.75 768.75 C 202.625 769.75 210 771.875 219.375 771.875 C 223.125 771.875 232.625 771.5 240.125 768 C 250.625 762.875 255.125 753.375 255.125 742.75 C 255.125 735.625 252.375 728 245.75 722.875 C 242.375 720.375 239.125 718.875 236.125 717.5 Z M 302 755.625 C 299.875 756.25 298.375 756.75 296.25 756.75 C 289.875 756.75 289.375 752.75 289.125 750.875 C 288.75 747.625 288.75 740.75 288.875 735.75 L 289.125 718.125 L 300.375 718.625 L 301.125 717.875 L 302.375 704.5 L 301.625 703.75 L 289.125 703.75 L 289.5 682.75 L 288.625 682 C 280.125 684.5 277.875 685.125 269 687.375 L 268.5 688.25 L 268.625 703.875 L 261.875 703.625 L 261.125 704.25 L 260 717.625 L 260.75 718.375 L 268.625 718.125 L 268.25 738 C 268.125 741.125 268 744.25 268 747.5 C 268 759 268.25 771.375 287.75 771.375 C 292.625 771.375 296.5 770.625 300.875 769.875 L 301.75 769 L 303 756.125 Z M 366.875 732.75 C 367 721.5 367 716.625 363.75 711.375 C 361.25 707.375 356.25 702.375 340.25 702.375 C 329.5 702.375 322.875 704.375 315.75 706.5 L 315 707.5 L 314.375 721.125 L 315.375 721.625 C 319.75 719.875 327.875 716.625 336.25 716.625 C 340.875 716.625 342.75 717.375 344.375 719 C 345.625 720.25 346 722.5 346 724.375 C 331 726.375 324 727.75 316.5 732.375 C 309.5 736.75 307.125 743.875 307.125 749.5 C 307.125 762.875 316.75 771.5 329 771.5 C 338.375 771.5 343.75 767 346.375 764.875 L 346.375 769.5 L 347.125 770.375 C 356.125 770 358.875 769.875 367 770 L 367.625 769.125 C 366.75 756.875 366.75 753.75 366.75 742 L 366.875 732.75 M 346.25 752.625 C 343.625 754.125 340.25 755.875 336.125 755.875 C 331.625 755.875 327.875 753.5 327.875 748.25 C 327.875 740 337.75 738.625 346.25 737.5 Z M 416.5 755.625 C 414.375 756.25 412.875 756.75 410.75 756.75 C 404.375 756.75 403.875 752.75 403.625 750.875 C 403.25 747.625 403.25 740.75 403.375 735.75 L 403.625 718.125 L 414.875 718.625 L 415.625 717.875 L 416.875 704.5 L 416.125 703.75 L 403.625 703.75 L 404 682.75 L 403.125 682 C 394.625 684.5 392.375 685.125 383.5 687.375 L 383 688.25 L 383.125 703.875 L 376.375 703.625 L 375.625 704.25 L 374.5 717.625 L 375.25 718.375 L 383.125 718.125 L 382.75 738 C 382.625 741.125 382.5 744.25 382.5 747.5 C 382.5 759 382.75 771.375 402.25 771.375 C 407.125 771.375 411 770.625 415.375 769.875 L 416.25 769 L 417.5 756.125 Z M 481.25 751.5 C 476.5 754 470.875 756.875 461.75 756.875 C 454.25 756.875 449.125 754.5 446.125 750 C 444.25 747.375 443.875 744.875 443.375 742.375 L 483.75 741.625 L 484.5 740.75 C 484.375 734.625 484.25 728.375 482.5 722.125 C 478.125 707.375 468.5 704.375 464.25 703.375 C 461.125 702.5 458.25 702.25 455.375 702.25 C 435.75 702.25 422.75 715.125 422.75 736.75 C 422.75 742.625 423.75 748.75 425.75 753.125 C 433 770 450 771.5 459 771.5 C 469.375 771.5 473.875 769.625 480.5 767 L 481.25 766 L 482.125 751.875 L 481.25 751.5 M 443.375 729.125 C 443.75 725.25 444.625 720 449.375 717 C 450.875 716 452.625 715.625 454.375 715.625 C 458.5 715.625 461 717.75 462.375 720 C 464.125 722.75 464.25 725.75 464.25 728.625 Z M 549.25 681.5 L 533.375 681.75 L 532.625 682.5 C 533.125 698.75 533.5 709.625 533.5 724 C 533.5 739.25 533.125 754.375 532.75 769.625 L 533.5 770.375 C 542.75 770 544.75 769.875 554.75 770 L 555.375 769.25 C 554.875 755.625 554.875 752.5 554.875 739.75 C 568.875 739.875 583.875 739.875 592.875 728.875 C 596.375 724.625 599.375 717.5 599.375 708.75 C 599.375 703.375 598.125 691.5 587.75 685.625 C 580.25 681.25 569.625 681.25 560.25 681.25 L 549.25 681.5 M 554.875 696.625 C 557.625 696.5 560.25 696.5 563 696.5 C 574 696.75 577 702.375 577 709.625 C 577 711.375 577 718.625 570.375 722.25 C 567 724.125 562.375 724.375 554.875 724.375 Z M 663.625 732.75 C 663.75 721.5 663.75 716.625 660.5 711.375 C 658 707.375 653 702.375 637 702.375 C 626.25 702.375 619.625 704.375 612.5 706.5 L 611.75 707.5 L 611.125 721.125 L 612.125 721.625 C 616.5 719.875 624.625 716.625 633 716.625 C 637.625 716.625 639.5 717.375 641.125 719 C 642.375 720.25 642.75 722.5 642.75 724.375 C 627.75 726.375 620.75 727.75 613.25 732.375 C 606.25 736.75 603.875 743.875 603.875 749.5 C 603.875 762.875 613.5 771.5 625.75 771.5 C 635.125 771.5 640.5 767 643.125 764.875 L 643.125 769.5 L 643.875 770.375 C 652.875 770 655.625 769.875 663.75 770 L 664.375 769.125 C 663.5 756.875 663.5 753.75 663.5 742 L 663.625 732.75 M 643 752.625 C 640.375 754.125 637 755.875 632.875 755.875 C 628.375 755.875 624.625 753.5 624.625 748.25 C 624.625 740 634.5 738.625 643 737.5 Z M 714.375 723.625 L 717.875 703.25 L 717.125 702.375 C 716.25 702.375 715.375 702.25 714.5 702.25 C 709.375 702.25 703.625 705.125 699.625 714.375 L 700 702.875 L 699 701.875 C 689.75 703.875 687.375 704.25 678.25 705.625 L 677.5 706.375 C 678.25 715.75 678.625 721.375 678.625 738.75 C 678.625 749 678.5 759.25 678.25 769.625 L 679 770.375 C 688.25 770 690.25 769.875 700.25 770 L 700.875 769.125 C 700.375 759 699.625 744.875 699.625 736.25 C 699.625 730.625 699.625 722.375 708.125 722.375 C 710.25 722.375 711.5 723.125 713.25 724.125 Z M 789.375 768.375 C 777.625 748.5 776.375 746.25 766.875 729.125 C 775.5 717.375 776.375 716.125 785.25 704.75 L 784.625 703.5 L 764.25 703.75 L 763 704.625 C 753.25 721.5 752 723.5 746.25 732.125 L 746.25 718.25 C 746.375 694.875 746.5 689.875 747.125 671 L 746.125 670.25 L 724.375 673.5 L 723.625 674.375 C 724.5 686.5 724.875 692.375 725.125 708.75 C 725.375 729 725.375 749.25 725.25 769.5 L 726.125 770.375 C 734.5 770 736.875 770 746.375 770 L 747.125 769.125 L 746.375 748 L 746.25 733.625 C 757.125 753.625 758.5 756.375 764.875 769.625 L 766 770.375 L 788.5 769.5 Z M 787.875 770 "/>
</svg>
