<?xml version="1.0" encoding="UTF-8"?>
<svg xmlns="http://www.w3.org/2000/svg" xmlns:xlink="http://www.w3.org/1999/xlink" width="975" height="1300" viewBox="0 0 975 1300">
<path fill-rule="nonzero" fill="rgb(34.901961%, 14.901961%, 14.901961%)" fill-opacity="1" d="M 84.625 545 C 96.25 545.25 110.625 545.5 120 539 C 128.25 533.125 130.5 524.875 130.5 517.875 C 130.5 509.875 127.125 502.5 120 499 C 117.625 497.75 114.875 497.25 112.25 496.75 C 116.5 495 121.5 492.75 124.75 486.125 C 126.125 483.25 126.75 480.25 126.75 477.375 C 126.75 473.375 125.75 467.875 121.75 463.375 C 116.5 457.75 108.375 456.25 96.125 456.25 C 91.875 456.25 84.25 456.375 80 456.5 L 62.5 456.75 L 61.75 457.5 C 62.25 469.5 62.375 474.125 62.375 491.375 C 62.375 509.125 62.25 526.75 62 544.5 L 62.875 545 L 84.625 545 M 83.75 507 C 93.25 506.75 98.75 506.75 102.375 508.875 C 106 511.125 107.375 515.125 107.375 519.125 C 107.375 524.75 104.25 528.25 99.625 529.875 C 95.875 531.125 89.125 531.125 83.75 531 L 83.75 507 M 83.75 470.25 C 86.375 470.25 89.875 470.125 92 470.125 C 98.75 470.125 104.875 472.5 104.875 480.625 C 104.875 487.25 100 490 98.5 490.75 C 95.375 492.125 88.75 492.125 83.75 492.125 Z M 197.625 526.5 C 192.875 529 187.25 531.875 178.125 531.875 C 170.625 531.875 165.5 529.5 162.5 525 C 160.625 522.375 160.25 519.875 159.75 517.375 L 200.125 516.625 L 200.875 515.75 C 200.75 509.625 200.625 503.375 198.875 497.125 C 194.5 482.375 184.875 479.375 180.625 478.375 C 177.5 477.5 174.625 477.25 171.75 477.25 C 152.125 477.25 139.125 490.125 139.125 511.75 C 139.125 517.625 140.125 523.75 142.125 528.125 C 149.375 545 166.375 546.5 175.375 546.5 C 185.75 546.5 190.25 544.625 196.875 542 L 197.625 541 L 198.5 526.875 L 197.625 526.5 M 159.75 504.125 C 160.125 500.25 161 495 165.75 492 C 167.25 491 169 490.625 170.75 490.625 C 174.875 490.625 177.375 492.75 178.75 495 C 180.5 497.75 180.625 500.75 180.625 503.625 Z M 273.625 544.125 C 273 533.125 273 529.625 272.75 517.375 L 272.75 507.625 C 272.625 495.625 272.5 489.875 269.375 484.75 C 265.5 478.25 258.375 477.25 253.875 477.25 C 246.25 477.25 239.625 481.25 233.875 484.625 L 234.125 477.75 L 232.875 476.875 C 223.25 478.875 221.125 479.25 211.75 480.5 L 211 481.375 C 212 492.25 212.75 500.125 212.75 520.5 C 212.75 528.5 212.625 536.5 212.5 544.5 L 213.25 545.25 C 222.25 544.875 224.125 544.875 234.125 544.875 L 234.875 544.125 C 234.125 524.875 234 520 233.875 497.625 C 236.5 495.875 239.5 493.75 243.5 493.75 C 250.375 493.75 251 501.125 251.375 505.625 C 251.625 509.75 251.75 526.875 251.75 531.625 C 251.75 535.875 251.625 540.25 251.625 544.5 L 252.375 545.25 C 260.625 545 262.75 544.875 272.75 544.875 Z M 310.5 544.125 C 309.875 534.5 309.375 527.125 309.375 509.875 C 309.375 499.25 309.625 488.5 309.75 477.875 L 308.875 476.875 L 287.375 480.625 L 286.625 481.375 C 287.625 490.875 288 495.25 288 513 C 288 526.625 287.625 534.25 287.25 544.5 L 288 545.375 C 297 545 299.5 544.875 309.625 545 L 310.5 544.125 M 308.5 464.875 L 308.875 447.875 L 308.125 447.125 L 287.75 449.625 L 287 450.5 C 287.25 455 287.375 457.625 287.375 460.625 C 287.375 463 287.375 465.5 287.25 467.875 L 288.125 468.625 C 296.625 467.125 299 466.875 307.875 465.75 Z M 373.25 527 C 369.875 529 366.625 531 360.25 531 C 346.125 531 343.25 519.25 343.25 511.75 C 343.25 502.625 347.25 492.125 359.375 492.125 C 364.875 492.125 367.875 494.125 371.625 496.625 L 372.875 496.25 C 373.375 489.625 373.5 487.875 374.5 481.25 L 373.875 480.5 C 368.375 478.75 363.625 477.25 356.375 477.25 C 327 477.25 321.25 499.5 321.25 512.25 C 321.25 526.625 328.75 546.125 356.875 546.125 C 363.5 546.125 367.75 544.875 373 543.375 L 373.75 542.625 L 374.25 527.625 Z M 406.875 544.125 C 406.25 534.5 405.75 527.125 405.75 509.875 C 405.75 499.25 406 488.5 406.125 477.875 L 405.25 476.875 L 383.75 480.625 L 383 481.375 C 384 490.875 384.375 495.25 384.375 513 C 384.375 526.625 384 534.25 383.625 544.5 L 384.375 545.375 C 393.375 545 395.875 544.875 406 545 L 406.875 544.125 M 404.875 464.875 L 405.25 447.875 L 404.5 447.125 L 384.125 449.625 L 383.375 450.5 C 383.625 455 383.75 457.625 383.75 460.625 C 383.75 463 383.75 465.5 383.625 467.875 L 384.5 468.625 C 393 467.125 395.375 466.875 404.25 465.75 Z M 476.375 507.75 C 476.5 496.5 476.5 491.625 473.25 486.375 C 470.75 482.375 465.75 477.375 449.75 477.375 C 439 477.375 432.375 479.375 425.25 481.5 L 424.5 482.5 L 423.875 496.125 L 424.875 496.625 C 429.25 494.875 437.375 491.625 445.75 491.625 C 450.375 491.625 452.25 492.375 453.875 494 C 455.125 495.25 455.5 497.5 455.5 499.375 C 440.5 501.375 433.5 502.75 426 507.375 C 419 511.75 416.625 518.875 416.625 524.5 C 416.625 537.875 426.25 546.5 438.5 546.5 C 447.875 546.5 453.25 542 455.875 539.875 L 455.875 544.5 L 456.625 545.375 C 465.625 545 468.375 544.875 476.5 545 L 477.125 544.125 C 476.25 531.875 476.25 528.75 476.25 517 L 476.375 507.75 M 455.75 527.625 C 453.125 529.125 449.75 530.875 445.625 530.875 C 441.125 530.875 437.375 528.5 437.375 523.25 C 437.375 515 447.25 513.625 455.75 512.5 Z M 592.375 522.625 C 589.5 524.875 583.125 529.625 572.75 529.625 C 558.5 529.625 548.5 519 548.5 501.25 C 548.5 490.5 552.25 471.625 572.625 471.625 C 582 471.625 587.125 475.25 590.25 477.625 L 591.375 477.375 L 592.5 460.125 L 592 459.5 C 587.5 457.75 579.875 454.875 568.875 454.875 C 536.5 454.875 525.25 479.875 525.25 501.75 C 525.25 525.75 539.875 546.875 570.375 546.875 C 580.875 546.875 587.75 544.125 591.75 542.5 L 592.375 541.75 L 593.25 523.125 Z M 658.625 507.75 C 658.75 496.5 658.75 491.625 655.5 486.375 C 653 482.375 648 477.375 632 477.375 C 621.25 477.375 614.625 479.375 607.5 481.5 L 606.75 482.5 L 606.125 496.125 L 607.125 496.625 C 611.5 494.875 619.625 491.625 628 491.625 C 632.625 491.625 634.5 492.375 636.125 494 C 637.375 495.25 637.75 497.5 637.75 499.375 C 622.75 501.375 615.75 502.75 608.25 507.375 C 601.25 511.75 598.875 518.875 598.875 524.5 C 598.875 537.875 608.5 546.5 620.75 546.5 C 630.125 546.5 635.5 542 638.125 539.875 L 638.125 544.5 L 638.875 545.375 C 647.875 545 650.625 544.875 658.75 545 L 659.375 544.125 C 658.5 531.875 658.5 528.75 658.5 517 L 658.625 507.75 M 638 527.625 C 635.375 529.125 632 530.875 627.875 530.875 C 623.375 530.875 619.625 528.5 619.625 523.25 C 619.625 515 629.5 513.625 638 512.5 Z M 694 478.125 L 693 477 C 683.875 479 681.25 479.5 672.25 480.625 L 671.5 481.5 C 672.875 496.375 673.375 502.125 673.375 538.125 C 673.375 553 673.125 561.5 672.75 575.625 L 673.5 576.25 C 682.375 575.875 685 575.75 694.5 575.875 L 695.25 575.25 L 694.375 545.5 C 703.5 545.375 716.125 545.25 726.25 535.75 C 734.25 528.25 736.875 517.625 736.875 509.125 C 736.875 489.25 724.75 477.25 710.75 477.25 C 702.125 477.25 697.25 480.75 693.75 483.125 L 694 478.125 M 694.25 495.125 C 697 493.5 698.625 492.625 701.75 492.625 C 703.625 492.625 707.375 492.875 710.5 496.375 C 714.375 500.625 715 507 715 511.25 C 715 518.5 712.625 525 707.625 528.5 C 703.625 531.25 698.625 531.5 694.25 531.625 Z M 771.375 544.125 C 770.75 534.5 770.25 527.125 770.25 509.875 C 770.25 499.25 770.5 488.5 770.625 477.875 L 769.75 476.875 L 748.25 480.625 L 747.5 481.375 C 748.5 490.875 748.875 495.25 748.875 513 C 748.875 526.625 748.5 534.25 748.125 544.5 L 748.875 545.375 C 757.875 545 760.375 544.875 770.5 545 L 771.375 544.125 M 769.375 464.875 L 769.75 447.875 L 769 447.125 L 748.625 449.625 L 747.875 450.5 C 748.125 455 748.25 457.625 748.25 460.625 C 748.25 463 748.25 465.5 748.125 467.875 L 749 468.625 C 757.5 467.125 759.875 466.875 768.75 465.75 Z M 820.25 530.625 C 818.125 531.25 816.625 531.75 814.5 531.75 C 808.125 531.75 807.625 527.75 807.375 525.875 C 807 522.625 807 515.75 807.125 510.75 L 807.375 493.125 L 818.625 493.625 L 819.375 492.875 L 820.625 479.5 L 819.875 478.75 L 807.375 478.75 L 807.75 457.75 L 806.875 457 C 798.375 459.5 796.125 460.125 787.25 462.375 L 786.75 463.25 L 786.875 478.875 L 780.125 478.625 L 779.375 479.25 L 778.25 492.625 L 779 493.375 L 786.875 493.125 L 786.5 513 C 786.375 516.125 786.25 519.25 786.25 522.5 C 786.25 534 786.5 546.375 806 546.375 C 810.875 546.375 814.75 545.625 819.125 544.875 L 820 544 L 821.25 531.125 Z M 893.125 511.75 C 893.125 506.875 893.125 486.625 875.625 479.75 C 870.125 477.625 863.625 477.375 860.375 477.375 C 838.625 477.375 826.375 489 826.375 512 C 826.375 520 827.625 528.125 832.25 534.875 C 835.5 539.75 841.625 546.5 859.5 546.5 C 886 546.5 893.125 530.5 893.125 511.75 M 871.5 511.625 C 871.5 521.875 870.125 533.25 859.75 533.25 C 856.5 533.25 854.25 531.75 852.75 530.375 C 850.625 528.25 848.25 524 848.25 511.875 C 848.25 508.25 848.25 500.25 850.75 495.875 C 852.625 492.5 855.875 490.25 859.875 490.25 C 863.375 490.25 866.25 492.125 867.875 494.125 C 870.875 497.75 871.5 504.875 871.5 511.625 Z M 927 544.125 C 926.375 529.75 925.75 516.625 925.75 477.125 C 925.75 465.25 925.875 459.625 926.375 446.125 L 925.5 445.25 L 904.125 448.625 L 903.625 449.375 C 904.875 464.625 905 468.75 905.25 489 C 905.375 496.375 905.375 503.75 905.375 511.125 C 905.375 524.625 905.125 532.125 904.625 544.5 L 905.375 545.375 C 913.75 545 917.125 544.875 926.25 545 Z M 934 545 "/>
<path fill-rule="nonzero" fill="rgb(34.901961%, 14.901961%, 14.901961%)" fill-opacity="1" d="M 140.9375 641.25 C 130.4375 636.875 124.9375 634.625 124.9375 629 C 124.9375 625.125 128.5625 620.25 136.8125 620.25 C 146.3125 620.25 151.9375 624.125 156.5625 627.25 L 157.6875 626.75 L 158.6875 610.375 L 158.0625 609.5 C 152.6875 607.25 147.0625 604.875 134.9375 604.875 C 111.4375 604.875 103.3125 618.125 103.3125 631.5 C 103.3125 646.625 115.0625 652.125 122.0625 655.5 L 126.1875 657.375 C 134.8125 661 141.4375 664.125 141.4375 670.75 C 141.4375 675.5 137.3125 681.125 126.4375 681.125 C 115.0625 681.125 108.6875 676.125 105.0625 673.25 L 103.8125 673.625 L 102.9375 691.25 L 103.6875 692.25 C 105.0625 692.75 106.4375 693.375 107.8125 693.75 C 110.6875 694.75 118.0625 696.875 127.4375 696.875 C 131.1875 696.875 140.6875 696.5 148.1875 693 C 158.6875 687.875 163.1875 678.375 163.1875 667.75 C 163.1875 660.625 160.4375 653 153.8125 647.875 C 150.4375 645.375 147.1875 643.875 144.1875 642.5 Z M 210.0625 680.625 C 207.9375 681.25 206.4375 681.75 204.3125 681.75 C 197.9375 681.75 197.4375 677.75 197.1875 675.875 C 196.8125 672.625 196.8125 665.75 196.9375 660.75 L 197.1875 643.125 L 208.4375 643.625 L 209.1875 642.875 L 210.4375 629.5 L 209.6875 628.75 L 197.1875 628.75 L 197.5625 607.75 L 196.6875 607 C 188.1875 609.5 185.9375 610.125 177.0625 612.375 L 176.5625 613.25 L 176.6875 628.875 L 169.9375 628.625 L 169.1875 629.25 L 168.0625 642.625 L 168.8125 643.375 L 176.6875 643.125 L 176.3125 663 C 176.1875 666.125 176.0625 669.25 176.0625 672.5 C 176.0625 684 176.3125 696.375 195.8125 696.375 C 200.6875 696.375 204.5625 695.625 208.9375 694.875 L 209.8125 694 L 211.0625 681.125 Z M 274.9375 657.75 C 275.0625 646.5 275.0625 641.625 271.8125 636.375 C 269.3125 632.375 264.3125 627.375 248.3125 627.375 C 237.5625 627.375 230.9375 629.375 223.8125 631.5 L 223.0625 632.5 L 222.4375 646.125 L 223.4375 646.625 C 227.8125 644.875 235.9375 641.625 244.3125 641.625 C 248.9375 641.625 250.8125 642.375 252.4375 644 C 253.6875 645.25 254.0625 647.5 254.0625 649.375 C 239.0625 651.375 232.0625 652.75 224.5625 657.375 C 217.5625 661.75 215.1875 668.875 215.1875 674.5 C 215.1875 687.875 224.8125 696.5 237.0625 696.5 C 246.4375 696.5 251.8125 692 254.4375 689.875 L 254.4375 694.5 L 255.1875 695.375 C 264.1875 695 266.9375 694.875 275.0625 695 L 275.6875 694.125 C 274.8125 681.875 274.8125 678.75 274.8125 667 L 274.9375 657.75 M 254.3125 677.625 C 251.6875 679.125 248.3125 680.875 244.1875 680.875 C 239.6875 680.875 235.9375 678.5 235.9375 673.25 C 235.9375 665 245.8125 663.625 254.3125 662.5 Z M 324.5625 680.625 C 322.4375 681.25 320.9375 681.75 318.8125 681.75 C 312.4375 681.75 311.9375 677.75 311.6875 675.875 C 311.3125 672.625 311.3125 665.75 311.4375 660.75 L 311.6875 643.125 L 322.9375 643.625 L 323.6875 642.875 L 324.9375 629.5 L 324.1875 628.75 L 311.6875 628.75 L 312.0625 607.75 L 311.1875 607 C 302.6875 609.5 300.4375 610.125 291.5625 612.375 L 291.0625 613.25 L 291.1875 628.875 L 284.4375 628.625 L 283.6875 629.25 L 282.5625 642.625 L 283.3125 643.375 L 291.1875 643.125 L 290.8125 663 C 290.6875 666.125 290.5625 669.25 290.5625 672.5 C 290.5625 684 290.8125 696.375 310.3125 696.375 C 315.1875 696.375 319.0625 695.625 323.4375 694.875 L 324.3125 694 L 325.5625 681.125 Z M 389.3125 676.5 C 384.5625 679 378.9375 681.875 369.8125 681.875 C 362.3125 681.875 357.1875 679.5 354.1875 675 C 352.3125 672.375 351.9375 669.875 351.4375 667.375 L 391.8125 666.625 L 392.5625 665.75 C 392.4375 659.625 392.3125 653.375 390.5625 647.125 C 386.1875 632.375 376.5625 629.375 372.3125 628.375 C 369.1875 627.5 366.3125 627.25 363.4375 627.25 C 343.8125 627.25 330.8125 640.125 330.8125 661.75 C 330.8125 667.625 331.8125 673.75 333.8125 678.125 C 341.0625 695 358.0625 696.5 367.0625 696.5 C 377.4375 696.5 381.9375 694.625 388.5625 692 L 389.3125 691 L 390.1875 676.875 L 389.3125 676.5 M 351.4375 654.125 C 351.8125 650.25 352.6875 645 357.4375 642 C 358.9375 641 360.6875 640.625 362.4375 640.625 C 366.5625 640.625 369.0625 642.75 370.4375 645 C 372.1875 647.75 372.3125 650.75 372.3125 653.625 Z M 515.4375 606.375 C 505.4375 606.75 503.8125 606.75 493.3125 606.75 L 492.6875 607.5 C 493.5625 621.625 493.5625 625.25 493.6875 640 C 488.1875 640.125 482.6875 640.25 477.0625 640.25 C 472.6875 640.25 468.1875 640.125 463.8125 640.125 L 464.0625 607.125 L 463.4375 606.375 C 453.8125 606.75 451.9375 606.75 441.0625 606.75 L 440.3125 607.5 C 440.9375 620.375 441.6875 635.75 441.6875 666.75 C 441.6875 678 441.4375 684.125 441.1875 694.625 L 441.8125 695.375 C 450.9375 695 453.1875 694.875 464.1875 695 L 464.8125 694.25 C 464.0625 678.75 463.9375 674.25 463.8125 656.125 C 469.3125 655.875 473.9375 655.75 478.8125 655.75 C 483.8125 655.75 488.8125 655.875 493.8125 656 C 494.0625 672.875 494.0625 677 493.4375 694.625 L 494.0625 695.375 C 503.4375 695 505.9375 694.875 516.5625 695 L 517.1875 694.25 C 516.1875 673.25 515.8125 652.375 515.8125 631.375 C 515.8125 622.625 515.9375 616.75 516.0625 607.125 Z M 554.3125 694.125 C 553.6875 684.5 553.1875 677.125 553.1875 659.875 C 553.1875 649.25 553.4375 638.5 553.5625 627.875 L 552.6875 626.875 L 531.1875 630.625 L 530.4375 631.375 C 531.4375 640.875 531.8125 645.25 531.8125 663 C 531.8125 676.625 531.4375 684.25 531.0625 694.5 L 531.8125 695.375 C 540.8125 695 543.3125 694.875 553.4375 695 L 554.3125 694.125 M 552.3125 614.875 L 552.6875 597.875 L 551.9375 597.125 L 531.5625 599.625 L 530.8125 600.5 C 531.0625 605 531.1875 607.625 531.1875 610.625 C 531.1875 613 531.1875 615.5 531.0625 617.875 L 531.9375 618.625 C 540.4375 617.125 542.8125 616.875 551.6875 615.75 Z M 594.4375 651.875 C 590.1875 650.375 586.8125 649 586.8125 645.5 C 586.8125 644 587.8125 639.875 595.5625 639.875 C 603.1875 639.875 608.0625 643.125 611.1875 645.125 L 612.3125 644.75 L 613.5625 631.125 L 612.9375 630.375 C 607.0625 628.75 601.9375 627.25 593.8125 627.25 C 587.6875 627.25 575.4375 627.75 568.9375 637.125 C 567.3125 639.375 565.5625 643.125 565.5625 648.125 C 565.5625 661.5 575.9375 665.5 581.8125 667.75 L 586.5625 669.5 C 589.9375 670.625 595.4375 672.5 595.4375 677 C 595.4375 680.125 592.5625 683.5 585.5625 683.5 C 582.0625 683.5 576.9375 682.375 572.3125 680 C 570.1875 678.875 569.1875 678 567.3125 676.5 L 566.1875 677 C 565.9375 683.5 565.8125 684.875 565.3125 691.125 L 565.9375 692.25 C 572.0625 694.5 577.3125 696.5 586.4375 696.5 C 595.9375 696.5 614.6875 694.75 616.9375 676.875 C 617.0625 675.875 617.0625 675 617.0625 674.125 C 617.0625 660.375 607.4375 656.75 600.5625 654.125 Z M 663.0625 680.625 C 660.9375 681.25 659.4375 681.75 657.3125 681.75 C 650.9375 681.75 650.4375 677.75 650.1875 675.875 C 649.8125 672.625 649.8125 665.75 649.9375 660.75 L 650.1875 643.125 L 661.4375 643.625 L 662.1875 642.875 L 663.4375 629.5 L 662.6875 628.75 L 650.1875 628.75 L 650.5625 607.75 L 649.6875 607 C 641.1875 609.5 638.9375 610.125 630.0625 612.375 L 629.5625 613.25 L 629.6875 628.875 L 622.9375 628.625 L 622.1875 629.25 L 621.0625 642.625 L 621.8125 643.375 L 629.6875 643.125 L 629.3125 663 C 629.1875 666.125 629.0625 669.25 629.0625 672.5 C 629.0625 684 629.3125 696.375 648.8125 696.375 C 653.6875 696.375 657.5625 695.625 661.9375 694.875 L 662.8125 694 L 664.0625 681.125 Z M 735.9375 661.75 C 735.9375 656.875 735.9375 636.625 718.4375 629.75 C 712.9375 627.625 706.4375 627.375 703.1875 627.375 C 681.4375 627.375 669.1875 639 669.1875 662 C 669.1875 670 670.4375 678.125 675.0625 684.875 C 678.3125 689.75 684.4375 696.5 702.3125 696.5 C 728.8125 696.5 735.9375 680.5 735.9375 661.75 M 714.3125 661.625 C 714.3125 671.875 712.9375 683.25 702.5625 683.25 C 699.3125 683.25 697.0625 681.75 695.5625 680.375 C 693.4375 678.25 691.0625 674 691.0625 661.875 C 691.0625 658.25 691.0625 650.25 693.5625 645.875 C 695.4375 642.5 698.6875 640.25 702.6875 640.25 C 706.1875 640.25 709.0625 642.125 710.6875 644.125 C 713.6875 647.75 714.3125 654.875 714.3125 661.625 Z M 783.9375 648.625 L 787.4375 628.25 L 786.6875 627.375 C 785.8125 627.375 784.9375 627.25 784.0625 627.25 C 778.9375 627.25 773.1875 630.125 769.1875 639.375 L 769.5625 627.875 L 768.5625 626.875 C 759.3125 628.875 756.9375 629.25 747.8125 630.625 L 747.0625 631.375 C 747.8125 640.75 748.1875 646.375 748.1875 663.75 C 748.1875 674 748.0625 684.25 747.8125 694.625 L 748.5625 695.375 C 757.8125 695 759.8125 694.875 769.8125 695 L 770.4375 694.125 C 769.9375 684 769.1875 669.875 769.1875 661.25 C 769.1875 655.625 769.1875 647.375 777.6875 647.375 C 779.8125 647.375 781.0625 648.125 782.8125 649.125 Z M 817.3125 694.125 C 816.6875 684.5 816.1875 677.125 816.1875 659.875 C 816.1875 649.25 816.4375 638.5 816.5625 627.875 L 815.6875 626.875 L 794.1875 630.625 L 793.4375 631.375 C 794.4375 640.875 794.8125 645.25 794.8125 663 C 794.8125 676.625 794.4375 684.25 794.0625 694.5 L 794.8125 695.375 C 803.8125 695 806.3125 694.875 816.4375 695 L 817.3125 694.125 M 815.3125 614.875 L 815.6875 597.875 L 814.9375 597.125 L 794.5625 599.625 L 793.8125 600.5 C 794.0625 605 794.1875 607.625 794.1875 610.625 C 794.1875 613 794.1875 615.5 794.0625 617.875 L 794.9375 618.625 C 803.4375 617.125 805.8125 616.875 814.6875 615.75 Z M 880.0625 677 C 876.6875 679 873.4375 681 867.0625 681 C 852.9375 681 850.0625 669.25 850.0625 661.75 C 850.0625 652.625 854.0625 642.125 866.1875 642.125 C 871.6875 642.125 874.6875 644.125 878.4375 646.625 L 879.6875 646.25 C 880.1875 639.625 880.3125 637.875 881.3125 631.25 L 880.6875 630.5 C 875.1875 628.75 870.4375 627.25 863.1875 627.25 C 833.8125 627.25 828.0625 649.5 828.0625 662.25 C 828.0625 676.625 835.5625 696.125 863.6875 696.125 C 870.3125 696.125 874.5625 694.875 879.8125 693.375 L 880.5625 692.625 L 881.0625 677.625 Z M 883.5625 695 "/>
<path fill-rule="nonzero" fill="rgb(34.901961%, 14.901961%, 14.901961%)" fill-opacity="1" d="M 382.375 756.5 L 366.5 756.75 L 365.75 757.5 C 366.25 773.75 366.625 784.625 366.625 799 C 366.625 814.25 366.25 829.375 365.875 844.625 L 366.625 845.375 C 375.875 845 377.875 844.875 387.875 845 L 388.5 844.25 C 388 830.625 388 827.5 388 814.75 C 402 814.875 417 814.875 426 803.875 C 429.5 799.625 432.5 792.5 432.5 783.75 C 432.5 778.375 431.25 766.5 420.875 760.625 C 413.375 756.25 402.75 756.25 393.375 756.25 L 382.375 756.5 M 388 771.625 C 390.75 771.5 393.375 771.5 396.125 771.5 C 407.125 771.75 410.125 777.375 410.125 784.625 C 410.125 786.375 410.125 793.625 403.5 797.25 C 400.125 799.125 395.5 799.375 388 799.375 Z M 496.75 807.75 C 496.875 796.5 496.875 791.625 493.625 786.375 C 491.125 782.375 486.125 777.375 470.125 777.375 C 459.375 777.375 452.75 779.375 445.625 781.5 L 444.875 782.5 L 444.25 796.125 L 445.25 796.625 C 449.625 794.875 457.75 791.625 466.125 791.625 C 470.75 791.625 472.625 792.375 474.25 794 C 475.5 795.25 475.875 797.5 475.875 799.375 C 460.875 801.375 453.875 802.75 446.375 807.375 C 439.375 811.75 437 818.875 437 824.5 C 437 837.875 446.625 846.5 458.875 846.5 C 468.25 846.5 473.625 842 476.25 839.875 L 476.25 844.5 L 477 845.375 C 486 845 488.75 844.875 496.875 845 L 497.5 844.125 C 496.625 831.875 496.625 828.75 496.625 817 L 496.75 807.75 M 476.125 827.625 C 473.5 829.125 470.125 830.875 466 830.875 C 461.5 830.875 457.75 828.5 457.75 823.25 C 457.75 815 467.625 813.625 476.125 812.5 Z M 547.5 798.625 L 551 778.25 L 550.25 777.375 C 549.375 777.375 548.5 777.25 547.625 777.25 C 542.5 777.25 536.75 780.125 532.75 789.375 L 533.125 777.875 L 532.125 776.875 C 522.875 778.875 520.5 779.25 511.375 780.625 L 510.625 781.375 C 511.375 790.75 511.75 796.375 511.75 813.75 C 511.75 824 511.625 834.25 511.375 844.625 L 512.125 845.375 C 521.375 845 523.375 844.875 533.375 845 L 534 844.125 C 533.5 834 532.75 819.875 532.75 811.25 C 532.75 805.625 532.75 797.375 541.25 797.375 C 543.375 797.375 544.625 798.125 546.375 799.125 Z M 622.5 843.375 C 610.75 823.5 609.5 821.25 600 804.125 C 608.625 792.375 609.5 791.125 618.375 779.75 L 617.75 778.5 L 597.375 778.75 L 596.125 779.625 C 586.375 796.5 585.125 798.5 579.375 807.125 L 579.375 793.25 C 579.5 769.875 579.625 764.875 580.25 746 L 579.25 745.25 L 557.5 748.5 L 556.75 749.375 C 557.625 761.5 558 767.375 558.25 783.75 C 558.5 804 558.5 824.25 558.375 844.5 L 559.25 845.375 C 567.625 845 570 845 579.5 845 L 580.25 844.125 L 579.5 823 L 579.375 808.625 C 590.25 828.625 591.625 831.375 598 844.625 L 599.125 845.375 L 621.625 844.5 Z M 621 845 "/>
</svg>
