<svg xmlns="http://www.w3.org/2000/svg" width="612" height="817" viewBox="0 0 612 817">
  <defs>
    <style>
      .cls-1 {
        fill: #592626;
        fill-rule: evenodd;
      }
    </style>
  </defs>
  <path id="Bothe-Napa_Valley_State_Park" data-name="Bothe-Napa Valley State Park" class="cls-1" d="M107.777,345.066c7.233,0.155,16.177.311,22.01-3.733a15.461,15.461,0,0,0,6.533-13.144c0-4.978-2.1-9.566-6.533-11.744a17.184,17.184,0,0,0-4.822-1.4c2.644-1.089,5.755-2.489,7.777-6.611a12.607,12.607,0,0,0,1.245-5.444,13.055,13.055,0,0,0-3.111-8.711c-3.267-3.5-8.322-4.433-15.944-4.433-2.644,0-7.388.078-10.033,0.156l-10.888.155-0.467.467c0.311,7.466.389,10.344,0.389,21.077,0,11.044-.078,22.01-0.233,33.054l0.544,0.311h13.533Zm-0.545-23.644c5.911-.155,9.333-0.155,11.589,1.167a7.173,7.173,0,0,1,3.111,6.378,6.687,6.687,0,0,1-4.822,6.688c-2.333.778-6.533,0.778-9.878,0.7V321.422Zm0-22.865c1.634,0,3.811-.078,5.134-0.078,4.2,0,8.01,1.478,8.01,6.533a6.871,6.871,0,0,1-3.966,6.3c-1.945.855-6.067,0.855-9.178,0.855v-13.61Zm75.91,25.821c0-3.033,0-15.633-10.888-19.91a27.956,27.956,0,0,0-9.488-1.478c-13.533,0-21.155,7.233-21.155,21.543,0,4.978.778,10.033,3.655,14.233C147.288,341.8,151.1,346,162.221,346,178.709,346,183.142,336.044,183.142,324.378Zm-13.455-.078c0,6.378-.855,13.455-7.31,13.455a6.292,6.292,0,0,1-4.356-1.789c-1.322-1.322-2.8-3.966-2.8-11.51,0-2.256,0-7.233,1.556-9.955a6.441,6.441,0,0,1,5.677-3.5,6.538,6.538,0,0,1,4.978,2.411C169.3,315.667,169.687,320.1,169.687,324.3Zm42.623,11.822a11.675,11.675,0,0,1-3.578.7c-3.966,0-4.277-2.489-4.433-3.656a89.161,89.161,0,0,1-.155-9.41L204.3,312.79l7,0.311,0.466-.467,0.778-8.322-0.466-.466H204.3l0.233-13.066-0.544-.467c-5.289,1.555-6.689,1.944-12.211,3.344l-0.311.545,0.078,9.721-4.2-.155-0.466.389-0.7,8.321,0.466,0.467,4.9-.155-0.233,12.366c-0.078,1.944-.156,3.888-0.156,5.91,0,7.156.156,14.855,12.289,14.855a45.17,45.17,0,0,0,8.166-.933l0.544-.544,0.778-8.011Zm43.866,8.4c-0.311-6.377-.389-8.555-0.545-16.643v-5.833c-0.077-7.389-.155-11.666-2.411-14.933-2.255-3.189-5.522-4.2-8.944-4.2-5.677,0-10.11,2.722-13.221,4.589l0.233-23.954L230.821,283l-13.3,2.1-0.389.467c0.7,7.544.856,10.344,1.011,20.376q0.234,9.45.234,18.9c0,7.7-.156,12.288-0.312,19.91l0.389,0.544c5.756-.311,6.922-0.311,13.222-0.311l0.467-.467c-0.545-11.666-.623-15.166-0.7-28.932a10.269,10.269,0,0,1,5.988-2.333c4.278,0,4.589,4.433,4.9,7.544,0.155,2.411.233,13.455,0.233,16.333,0,2.566-.078,5.055-0.078,7.622l0.389,0.544c5.6-.311,6.844-0.311,12.833-0.311Zm43.4-10.966a23.766,23.766,0,0,1-12.133,3.345c-4.666,0-7.855-1.478-9.722-4.278a11.014,11.014,0,0,1-1.711-4.744l25.121-.467,0.467-.544a45.651,45.651,0,0,0-1.244-11.589c-2.722-9.177-8.711-11.044-11.355-11.666a19.943,19.943,0,0,0-5.522-.7c-12.211,0-20.3,8.011-20.3,21.466a25.891,25.891,0,0,0,1.866,10.188c4.511,10.5,15.088,11.433,20.688,11.433,6.455,0,9.255-1.167,13.377-2.8l0.467-.622,0.544-8.788ZM276.01,319.634c0.234-2.411.778-5.678,3.734-7.544a5.968,5.968,0,0,1,8.088,1.866A9.5,9.5,0,0,1,289,319.323Zm54.211-1.556c-3.733.078-6.766,0.156-11.355,0.156-3.733,0-7.466-.078-11.122-0.078l-0.544.467-0.467,8.944,0.389,0.466c4.355-.077,6.922-0.155,11.044-0.155,3.811,0,7.622.078,11.433,0.078l0.466-.467,0.545-9.022Zm54.443-28.154c-4.9.233-6.222,0.311-11.044,0.233l-0.389.467,0.545,10.5,0.311,10.733,0.311,12.833c-2.255-3.811-2.644-4.433-6.611-10.344L360.71,304c-5.833-8.866-7-10.577-8.944-13.688l-0.545-.389c-6.144.311-7.155,0.311-12.832,0.233l-0.389.467c0.389,12.055.622,21,.622,31.421,0,7.622-.156,15.243-0.233,22.787l0.389,0.467c5.21-.233,6.844-0.233,11.355-0.233l0.388-.467-0.777-17.032L349.51,318l-0.466-10.421c3.655,6.066,4.9,8.088,10.188,15.788l7.777,11.433,6.922,10.11,0.545,0.389c4.744-.233,6.144-0.233,10.266-0.233l0.389-.389c-0.078-11.277-.156-18.9-0.156-28.232,0-8.711.078-17.344,0.156-26.054Zm44.567,31.965c0.078-7,.078-10.033-1.944-13.3-1.555-2.489-4.666-5.6-14.621-5.6a47.308,47.308,0,0,0-15.244,2.567l-0.467.622-0.389,8.477,0.623,0.311c2.722-1.089,7.777-3.111,12.988-3.111,2.877,0,4.044.467,5.055,1.478a4.9,4.9,0,0,1,1.011,3.344c-9.333,1.245-13.688,2.1-18.354,4.978a12.436,12.436,0,0,0-5.834,10.655c0,8.322,5.989,13.688,13.611,13.688a16.084,16.084,0,0,0,10.811-4.122v2.878l0.466,0.544c5.6-.233,7.311-0.311,12.366-0.233l0.389-.545c-0.544-7.621-.544-9.566-0.544-16.877ZM416.4,334.255a12.6,12.6,0,0,1-6.3,2.022c-2.8,0-5.133-1.477-5.133-4.744,0-5.133,6.144-5.988,11.433-6.688v9.41Zm34.845-30.8-0.623-.7a109.63,109.63,0,0,1-12.91,2.255l-0.467.545c0.856,9.255,1.167,12.832,1.167,35.231,0,9.255-.156,14.544-0.389,23.332l0.467,0.389c5.522-.233,7.155-0.311,13.066-0.233l0.466-.389-0.544-18.51c5.677-.078,13.533-0.156,19.832-6.066,4.978-4.667,6.611-11.278,6.611-16.566,0-12.366-7.544-19.833-16.255-19.833a17.112,17.112,0,0,0-10.577,3.656Zm0.155,10.577a8,8,0,0,1,4.667-1.556,6.969,6.969,0,0,1,5.444,2.334c2.411,2.644,2.8,6.61,2.8,9.255,0,4.511-1.478,8.555-4.589,10.733-2.489,1.711-5.6,1.866-8.322,1.944v-22.71Zm68.521,7.855c0.078-7,.078-10.033-1.944-13.3-1.556-2.489-4.666-5.6-14.622-5.6a47.306,47.306,0,0,0-15.243,2.567l-0.467.622-0.389,8.477,0.622,0.311c2.722-1.089,7.778-3.111,12.989-3.111,2.877,0,4.044.467,5.055,1.478a4.9,4.9,0,0,1,1.011,3.344c-9.333,1.245-13.688,2.1-18.355,4.978a12.437,12.437,0,0,0-5.833,10.655c0,8.322,5.989,13.688,13.611,13.688a16.079,16.079,0,0,0,10.81-4.122v2.878l0.467,0.544c5.6-.233,7.311-0.311,12.366-0.233l0.389-.545c-0.544-7.621-.544-9.566-0.544-16.877Zm-12.832,12.366a12.6,12.6,0,0,1-6.3,2.022c-2.8,0-5.133-1.477-5.133-4.744,0-5.133,6.144-5.988,11.433-6.688v9.41Zm-379.867,103.6c3.344-14.077,4.511-18.122,15.088-54.209l-0.389-.389c-5.833.234-7.389,0.234-12.055,0.234l-0.467.466c-1.477,7.622-1.866,9.644-4.044,18.277l-2.489,10.189-3.344,14.388L115.4,408.456l-1.633-7c-1.945-8.01-2.489-10.655-4.122-18.2l-0.467-.389c-6.455.467-7.855,0.545-13.921,0.545l-0.389.467c5.211,17.965,9.877,34.453,12.521,44.72l2.334,9.566,0.466,0.466c6.767-.233,8.478-0.311,16.566-0.233Zm50.088-22.633c0.078-7,.078-10.032-1.944-13.3-1.556-2.489-4.667-5.6-14.622-5.6A47.333,47.333,0,0,0,145.5,398.89l-0.467.622-0.389,8.477,0.622,0.312c2.722-1.089,7.778-3.111,12.989-3.111,2.877,0,4.044.466,5.055,1.477a4.9,4.9,0,0,1,1.011,3.345c-9.333,1.244-13.688,2.1-18.355,4.977a12.437,12.437,0,0,0-5.833,10.655c0,8.322,5.989,13.688,13.611,13.688a16.074,16.074,0,0,0,10.81-4.122v2.878l0.467,0.544c5.6-.233,7.311-0.311,12.366-0.233l0.389-.544c-0.545-7.622-.545-9.567-0.545-16.877Zm-12.832,12.367a12.6,12.6,0,0,1-6.3,2.022c-2.8,0-5.133-1.478-5.133-4.745,0-5.133,6.144-5.988,11.433-6.688v9.411ZM200.1,437.855c-0.389-8.944-.778-17.111-0.778-41.687,0-7.389.078-10.889,0.389-19.288l-0.544-.545-13.3,2.1-0.311.467c0.778,9.488.856,12.055,1.011,24.654,0.078,4.589.078,9.178,0.078,13.766,0,8.4-.155,13.066-0.466,20.766l0.466,0.544c5.211-.233,7.311-0.311,12.988-0.233Zm22.711,0c-0.389-8.944-.777-17.111-0.777-41.687,0-7.389.077-10.889,0.388-19.288l-0.544-.545-13.3,2.1-0.312.467c0.778,9.488.856,12.055,1.012,24.654,0.077,4.589.077,9.178,0.077,13.766,0,8.4-.155,13.066-0.466,20.766l0.466,0.544c5.211-.233,7.311-0.311,12.989-0.233Zm43.555-10.966a23.776,23.776,0,0,1-12.133,3.344c-4.666,0-7.855-1.478-9.722-4.278a11.01,11.01,0,0,1-1.711-4.744l25.121-.467,0.467-.544a45.638,45.638,0,0,0-1.244-11.588c-2.723-9.178-8.711-11.044-11.355-11.666a19.9,19.9,0,0,0-5.522-.7c-12.211,0-20.3,8.01-20.3,21.465a25.893,25.893,0,0,0,1.866,10.189c4.511,10.5,15.088,11.432,20.688,11.432,6.455,0,9.255-1.166,13.377-2.8l0.467-.623,0.544-8.788ZM242.8,412.967c0.234-2.411.778-5.677,3.733-7.544a5.969,5.969,0,0,1,8.089,1.867,9.5,9.5,0,0,1,1.167,5.366Zm67.51-16.021-10.81.233-0.623.544c-1.322,5.367-1.633,6.533-3.5,12.6l-2.023,6.688-1.711,5.833-1.477-5.522-2.256-8.244L284.8,397.257l-0.622-.467c-6.066.467-7.388,0.544-13.766,0.7l-0.389.544c2.8,7.389,10.033,26.91,14.855,41.843-3.189,8.088-3.811,9.488-7.311,17.188l0.389,0.622c1.945-.078,4.122-0.155,6.144-0.155,1.945,0,3.967.077,5.911,0.077l0.545-.466c4.277-16.8,6.377-23.333,16.643-50.4,1.167-3.111,2.333-6.144,3.422-9.177Zm49.312,8.01c-6.533-2.722-9.955-4.122-9.955-7.622,0-2.411,2.255-5.444,7.388-5.444,5.911,0,9.411,2.411,12.289,4.356l0.7-.312,0.622-10.188-0.389-.544a31.855,31.855,0,0,0-14.388-2.878c-14.622,0-19.677,8.244-19.677,16.566,0,9.411,7.311,12.833,11.666,14.933l2.567,1.166c5.366,2.256,9.488,4.2,9.488,8.322,0,2.955-2.567,6.455-9.333,6.455a19.839,19.839,0,0,1-13.3-4.9l-0.778.234-0.544,10.966,0.466,0.622c0.856,0.311,1.711.7,2.567,0.933a38.707,38.707,0,0,0,12.21,1.945c2.334,0,8.244-.234,12.911-2.411,6.533-3.189,9.333-9.1,9.333-15.711a15.415,15.415,0,0,0-5.833-12.366,31.556,31.556,0,0,0-5.989-3.344Zm43.011,24.5a11.669,11.669,0,0,1-3.578.7c-3.966,0-4.277-2.489-4.433-3.655a89.18,89.18,0,0,1-.155-9.411l0.155-10.966,7,0.311,0.467-.467,0.777-8.321-0.466-.467h-7.778l0.234-13.066-0.545-.467c-5.288,1.556-6.688,1.945-12.21,3.344l-0.311.545,0.077,9.722-4.2-.156-0.467.389-0.7,8.322,0.467,0.466,4.9-.155-0.233,12.366c-0.078,1.944-.155,3.889-0.155,5.911,0,7.155.155,14.855,12.288,14.855a45.168,45.168,0,0,0,8.166-.934l0.545-.544,0.777-8.011ZM443,415.222c0.078-7,.078-10.032-1.944-13.3-1.556-2.489-4.667-5.6-14.622-5.6a47.333,47.333,0,0,0-15.243,2.567l-0.467.622-0.389,8.477,0.622,0.312c2.722-1.089,7.778-3.111,12.988-3.111,2.878,0,4.045.466,5.056,1.477a4.9,4.9,0,0,1,1.011,3.345c-9.333,1.244-13.688,2.1-18.355,4.977a12.437,12.437,0,0,0-5.833,10.655c0,8.322,5.989,13.688,13.611,13.688a16.074,16.074,0,0,0,10.81-4.122v2.878l0.467,0.544c5.6-.233,7.311-0.311,12.366-0.233l0.389-.544c-0.545-7.622-.545-9.567-0.545-16.877Zm-12.833,12.367a12.6,12.6,0,0,1-6.3,2.022c-2.8,0-5.133-1.478-5.133-4.745,0-5.133,6.144-5.988,11.432-6.688v9.411Zm43.712,1.866a11.68,11.68,0,0,1-3.578.7c-3.967,0-4.278-2.489-4.433-3.655a88.88,88.88,0,0,1-.156-9.411l0.156-10.966,7,0.311,0.467-.467,0.778-8.321-0.467-.467h-7.777l0.233-13.066-0.544-.467c-5.289,1.556-6.689,1.945-12.211,3.344l-0.311.545,0.078,9.722-4.2-.156-0.467.389-0.7,8.322,0.467,0.466,4.9-.155-0.233,12.366c-0.078,1.944-.156,3.889-0.156,5.911,0,7.155.156,14.855,12.288,14.855a45.19,45.19,0,0,0,8.167-.934l0.544-.544,0.778-8.011Zm38.732-2.566a23.773,23.773,0,0,1-12.133,3.344c-4.666,0-7.855-1.478-9.721-4.278a11,11,0,0,1-1.711-4.744l25.121-.467,0.466-.544a45.548,45.548,0,0,0-1.244-11.588c-2.722-9.178-8.711-11.044-11.355-11.666a19.9,19.9,0,0,0-5.522-.7c-12.211,0-20.3,8.01-20.3,21.465a25.875,25.875,0,0,0,1.867,10.189c4.51,10.5,15.088,11.432,20.687,11.432,6.456,0,9.256-1.166,13.378-2.8l0.466-.623,0.545-8.788Zm-23.565-13.922c0.233-2.411.777-5.677,3.733-7.544a5.967,5.967,0,0,1,8.088,1.867,9.5,9.5,0,0,1,1.167,5.366Zm-248.461,63.7-9.878.156-0.466.467c0.311,10.11.544,16.877,0.544,25.821,0,9.488-.233,18.9-0.467,28.387l0.467,0.467c5.755-.234,7-0.311,13.222-0.234l0.389-.466c-0.312-8.478-.312-10.422-0.312-18.355,8.711,0.078,18.044.078,23.644-6.766a20,20,0,0,0,4.044-12.522c0-3.344-.778-10.733-7.233-14.388-4.666-2.722-11.277-2.722-17.11-2.722Zm3.5,9.411c1.711-.078,3.345-0.078,5.056-0.078,6.844,0.156,8.71,3.656,8.71,8.167,0,1.088,0,5.6-4.122,7.855-2.1,1.166-4.977,1.322-9.644,1.322V486.079Zm66.111,22.477c0.077-7,.077-10.033-1.945-13.3-1.555-2.488-4.666-5.6-14.621-5.6a47.337,47.337,0,0,0-15.244,2.566l-0.467.622-0.389,8.478,0.623,0.311c2.722-1.089,7.777-3.111,12.988-3.111,2.878,0,4.044.467,5.055,1.478a4.9,4.9,0,0,1,1.011,3.344c-9.333,1.244-13.688,2.1-18.354,4.977a12.438,12.438,0,0,0-5.833,10.656c0,8.321,5.988,13.688,13.61,13.688a16.084,16.084,0,0,0,10.811-4.122v2.877l0.466,0.545c5.6-.234,7.311-0.311,12.366-0.234l0.389-.544c-0.544-7.622-.544-9.566-0.544-16.877ZM297.36,520.922a12.6,12.6,0,0,1-6.3,2.022c-2.8,0-5.133-1.478-5.133-4.744,0-5.133,6.144-5.989,11.433-6.689v9.411Zm44.411-18.044,2.178-12.677-0.467-.544c-0.544,0-1.089-.078-1.633-0.078-3.189,0-6.767,1.789-9.255,7.544l0.233-7.155-0.622-.622c-5.756,1.244-7.233,1.477-12.911,2.333l-0.466.466c0.466,5.834.7,9.333,0.7,20.144,0,6.377-.078,12.755-0.234,19.21l0.467,0.467c5.755-.234,7-0.311,13.221-0.234l0.389-.544c-0.311-6.3-.777-15.088-0.777-20.455,0-3.5,0-8.632,5.288-8.632a5.825,5.825,0,0,1,3.189,1.088Zm46.666,27.843c-7.311-12.366-8.089-13.766-14-24.421,5.367-7.31,5.911-8.088,11.433-15.166l-0.389-.777-12.677.155-0.778.545c-6.066,10.5-6.844,11.744-10.421,17.11v-8.633c0.077-14.544.155-17.655,0.544-29.4l-0.622-.466-13.533,2.022-0.466.544c0.544,7.544.777,11.2,0.933,21.388,0.155,12.6.155,25.2,0.078,37.8l0.544,0.545c5.211-.234,6.689-0.234,12.6-0.234l0.467-.544-0.467-13.144-0.077-8.944c6.766,12.444,7.622,14.155,11.588,22.4l0.7,0.467,14-.545Z"/>
</svg>
