<?xml version="1.0" encoding="UTF-8"?>
<svg xmlns="http://www.w3.org/2000/svg" xmlns:xlink="http://www.w3.org/1999/xlink" width="975" height="1300" viewBox="0 0 975 1300">
<path fill-rule="nonzero" fill="rgb(34.901961%, 14.901961%, 14.901961%)" fill-opacity="1" d="M 127.5625 566.25 C 117.0625 561.875 111.5625 559.625 111.5625 554 C 111.5625 550.125 115.1875 545.25 123.4375 545.25 C 132.9375 545.25 138.5625 549.125 143.1875 552.25 L 144.3125 551.75 L 145.3125 535.375 L 144.6875 534.5 C 139.3125 532.25 133.6875 529.875 121.5625 529.875 C 98.0625 529.875 89.9375 543.125 89.9375 556.5 C 89.9375 571.625 101.6875 577.125 108.6875 580.5 L 112.8125 582.375 C 121.4375 586 128.0625 589.125 128.0625 595.75 C 128.0625 600.5 123.9375 606.125 113.0625 606.125 C 101.6875 606.125 95.3125 601.125 91.6875 598.25 L 90.4375 598.625 L 89.5625 616.25 L 90.3125 617.25 C 91.6875 617.75 93.0625 618.375 94.4375 618.75 C 97.3125 619.75 104.6875 621.875 114.0625 621.875 C 117.8125 621.875 127.3125 621.5 134.8125 618 C 145.3125 612.875 149.8125 603.375 149.8125 592.75 C 149.8125 585.625 147.0625 578 140.4375 572.875 C 137.0625 570.375 133.8125 568.875 130.8125 567.5 Z M 225.3125 586.75 C 225.3125 581.875 225.3125 561.625 207.8125 554.75 C 202.3125 552.625 195.8125 552.375 192.5625 552.375 C 170.8125 552.375 158.5625 564 158.5625 587 C 158.5625 595 159.8125 603.125 164.4375 609.875 C 167.6875 614.75 173.8125 621.5 191.6875 621.5 C 218.1875 621.5 225.3125 605.5 225.3125 586.75 M 203.6875 586.625 C 203.6875 596.875 202.3125 608.25 191.9375 608.25 C 188.6875 608.25 186.4375 606.75 184.9375 605.375 C 182.8125 603.25 180.4375 599 180.4375 586.875 C 180.4375 583.25 180.4375 575.25 182.9375 570.875 C 184.8125 567.5 188.0625 565.25 192.0625 565.25 C 195.5625 565.25 198.4375 567.125 200.0625 569.125 C 203.0625 572.75 203.6875 579.875 203.6875 586.625 Z M 298.4375 619.125 C 297.8125 608.125 297.8125 604.625 297.5625 592.375 L 297.5625 582.625 C 297.4375 570.625 297.3125 564.875 294.1875 559.75 C 290.3125 553.25 283.1875 552.25 278.6875 552.25 C 271.0625 552.25 264.4375 556.25 258.6875 559.625 L 258.9375 552.75 L 257.6875 551.875 C 248.0625 553.875 245.9375 554.25 236.5625 555.5 L 235.8125 556.375 C 236.8125 567.25 237.5625 575.125 237.5625 595.5 C 237.5625 603.5 237.4375 611.5 237.3125 619.5 L 238.0625 620.25 C 247.0625 619.875 248.9375 619.875 258.9375 619.875 L 259.6875 619.125 C 258.9375 599.875 258.8125 595 258.6875 572.625 C 261.3125 570.875 264.3125 568.75 268.3125 568.75 C 275.1875 568.75 275.8125 576.125 276.1875 580.625 C 276.4375 584.75 276.5625 601.875 276.5625 606.625 C 276.5625 610.875 276.4375 615.25 276.4375 619.5 L 277.1875 620.25 C 285.4375 620 287.5625 619.875 297.5625 619.875 Z M 376.3125 586.75 C 376.3125 581.875 376.3125 561.625 358.8125 554.75 C 353.3125 552.625 346.8125 552.375 343.5625 552.375 C 321.8125 552.375 309.5625 564 309.5625 587 C 309.5625 595 310.8125 603.125 315.4375 609.875 C 318.6875 614.75 324.8125 621.5 342.6875 621.5 C 369.1875 621.5 376.3125 605.5 376.3125 586.75 M 354.6875 586.625 C 354.6875 596.875 353.3125 608.25 342.9375 608.25 C 339.6875 608.25 337.4375 606.75 335.9375 605.375 C 333.8125 603.25 331.4375 599 331.4375 586.875 C 331.4375 583.25 331.4375 575.25 333.9375 570.875 C 335.8125 567.5 339.0625 565.25 343.0625 565.25 C 346.5625 565.25 349.4375 567.125 351.0625 569.125 C 354.0625 572.75 354.6875 579.875 354.6875 586.625 Z M 485.8125 619.125 C 485.1875 607.5 485.0625 604.25 485.0625 590.125 L 485.0625 580.75 C 485.1875 572.375 485.3125 564.625 481.6875 559.375 C 476.8125 552.25 468.1875 552.25 466.1875 552.25 C 455.9375 552.25 449.0625 556.875 444.0625 560.375 C 442.3125 557.5 439.1875 552.25 429.1875 552.25 C 420.9375 552.25 415.5625 556 409.8125 560 L 409.8125 553 L 408.6875 551.875 C 398.9375 553.75 396.1875 554.25 387.4375 555.5 L 386.6875 556.375 C 387.6875 566.375 388.4375 573.25 388.4375 598 C 388.4375 605.125 388.3125 612.375 388.3125 619.5 L 388.9375 620.25 C 396.9375 620 399.6875 619.875 410.0625 619.875 L 410.8125 619.125 C 409.9375 599.875 409.8125 594.125 409.6875 572.375 C 412.3125 570.5 415.1875 568.875 418.3125 568.875 C 426.0625 568.875 426.3125 577.75 426.3125 588.5 C 426.3125 606.625 426.1875 609.375 425.9375 619.5 L 426.6875 620.375 C 436.1875 619.875 438.8125 619.875 447.4375 619.875 L 448.1875 619.125 C 447.4375 607.25 447.3125 603.75 447.1875 588.625 L 447.1875 584 L 447.0625 571.375 C 449.1875 570 451.9375 568.25 455.6875 568.25 C 462.8125 568.25 463.9375 575 463.9375 585.75 C 463.9375 588.125 463.8125 590.5 463.8125 592.875 C 463.6875 597.125 463.5625 615.75 463.4375 619.5 L 464.1875 620.25 C 473.5625 619.875 476.3125 619.875 485.0625 619.875 Z M 555.8125 582.75 C 555.9375 571.5 555.9375 566.625 552.6875 561.375 C 550.1875 557.375 545.1875 552.375 529.1875 552.375 C 518.4375 552.375 511.8125 554.375 504.6875 556.5 L 503.9375 557.5 L 503.3125 571.125 L 504.3125 571.625 C 508.6875 569.875 516.8125 566.625 525.1875 566.625 C 529.8125 566.625 531.6875 567.375 533.3125 569 C 534.5625 570.25 534.9375 572.5 534.9375 574.375 C 519.9375 576.375 512.9375 577.75 505.4375 582.375 C 498.4375 586.75 496.0625 593.875 496.0625 599.5 C 496.0625 612.875 505.6875 621.5 517.9375 621.5 C 527.3125 621.5 532.6875 617 535.3125 614.875 L 535.3125 619.5 L 536.0625 620.375 C 545.0625 620 547.8125 619.875 555.9375 620 L 556.5625 619.125 C 555.6875 606.875 555.6875 603.75 555.6875 592 L 555.8125 582.75 M 535.1875 602.625 C 532.5625 604.125 529.1875 605.875 525.0625 605.875 C 520.5625 605.875 516.8125 603.5 516.8125 598.25 C 516.8125 590 526.6875 588.625 535.1875 587.5 Z M 643.0625 566.25 C 632.5625 561.875 627.0625 559.625 627.0625 554 C 627.0625 550.125 630.6875 545.25 638.9375 545.25 C 648.4375 545.25 654.0625 549.125 658.6875 552.25 L 659.8125 551.75 L 660.8125 535.375 L 660.1875 534.5 C 654.8125 532.25 649.1875 529.875 637.0625 529.875 C 613.5625 529.875 605.4375 543.125 605.4375 556.5 C 605.4375 571.625 617.1875 577.125 624.1875 580.5 L 628.3125 582.375 C 636.9375 586 643.5625 589.125 643.5625 595.75 C 643.5625 600.5 639.4375 606.125 628.5625 606.125 C 617.1875 606.125 610.8125 601.125 607.1875 598.25 L 605.9375 598.625 L 605.0625 616.25 L 605.8125 617.25 C 607.1875 617.75 608.5625 618.375 609.9375 618.75 C 612.8125 619.75 620.1875 621.875 629.5625 621.875 C 633.3125 621.875 642.8125 621.5 650.3125 618 C 660.8125 612.875 665.3125 603.375 665.3125 592.75 C 665.3125 585.625 662.5625 578 655.9375 572.875 C 652.5625 570.375 649.3125 568.875 646.3125 567.5 Z M 712.1875 605.625 C 710.0625 606.25 708.5625 606.75 706.4375 606.75 C 700.0625 606.75 699.5625 602.75 699.3125 600.875 C 698.9375 597.625 698.9375 590.75 699.0625 585.75 L 699.3125 568.125 L 710.5625 568.625 L 711.3125 567.875 L 712.5625 554.5 L 711.8125 553.75 L 699.3125 553.75 L 699.6875 532.75 L 698.8125 532 C 690.3125 534.5 688.0625 535.125 679.1875 537.375 L 678.6875 538.25 L 678.8125 553.875 L 672.0625 553.625 L 671.3125 554.25 L 670.1875 567.625 L 670.9375 568.375 L 678.8125 568.125 L 678.4375 588 C 678.3125 591.125 678.1875 594.25 678.1875 597.5 C 678.1875 609 678.4375 621.375 697.9375 621.375 C 702.8125 621.375 706.6875 620.625 711.0625 619.875 L 711.9375 619 L 713.1875 606.125 Z M 777.0625 582.75 C 777.1875 571.5 777.1875 566.625 773.9375 561.375 C 771.4375 557.375 766.4375 552.375 750.4375 552.375 C 739.6875 552.375 733.0625 554.375 725.9375 556.5 L 725.1875 557.5 L 724.5625 571.125 L 725.5625 571.625 C 729.9375 569.875 738.0625 566.625 746.4375 566.625 C 751.0625 566.625 752.9375 567.375 754.5625 569 C 755.8125 570.25 756.1875 572.5 756.1875 574.375 C 741.1875 576.375 734.1875 577.75 726.6875 582.375 C 719.6875 586.75 717.3125 593.875 717.3125 599.5 C 717.3125 612.875 726.9375 621.5 739.1875 621.5 C 748.5625 621.5 753.9375 617 756.5625 614.875 L 756.5625 619.5 L 757.3125 620.375 C 766.3125 620 769.0625 619.875 777.1875 620 L 777.8125 619.125 C 776.9375 606.875 776.9375 603.75 776.9375 592 L 777.0625 582.75 M 756.4375 602.625 C 753.8125 604.125 750.4375 605.875 746.3125 605.875 C 741.8125 605.875 738.0625 603.5 738.0625 598.25 C 738.0625 590 747.9375 588.625 756.4375 587.5 Z M 826.6875 605.625 C 824.5625 606.25 823.0625 606.75 820.9375 606.75 C 814.5625 606.75 814.0625 602.75 813.8125 600.875 C 813.4375 597.625 813.4375 590.75 813.5625 585.75 L 813.8125 568.125 L 825.0625 568.625 L 825.8125 567.875 L 827.0625 554.5 L 826.3125 553.75 L 813.8125 553.75 L 814.1875 532.75 L 813.3125 532 C 804.8125 534.5 802.5625 535.125 793.6875 537.375 L 793.1875 538.25 L 793.3125 553.875 L 786.5625 553.625 L 785.8125 554.25 L 784.6875 567.625 L 785.4375 568.375 L 793.3125 568.125 L 792.9375 588 C 792.8125 591.125 792.6875 594.25 792.6875 597.5 C 792.6875 609 792.9375 621.375 812.4375 621.375 C 817.3125 621.375 821.1875 620.625 825.5625 619.875 L 826.4375 619 L 827.6875 606.125 Z M 891.4375 601.5 C 886.6875 604 881.0625 606.875 871.9375 606.875 C 864.4375 606.875 859.3125 604.5 856.3125 600 C 854.4375 597.375 854.0625 594.875 853.5625 592.375 L 893.9375 591.625 L 894.6875 590.75 C 894.5625 584.625 894.4375 578.375 892.6875 572.125 C 888.3125 557.375 878.6875 554.375 874.4375 553.375 C 871.3125 552.5 868.4375 552.25 865.5625 552.25 C 845.9375 552.25 832.9375 565.125 832.9375 586.75 C 832.9375 592.625 833.9375 598.75 835.9375 603.125 C 843.1875 620 860.1875 621.5 869.1875 621.5 C 879.5625 621.5 884.0625 619.625 890.6875 617 L 891.4375 616 L 892.3125 601.875 L 891.4375 601.5 M 853.5625 579.125 C 853.9375 575.25 854.8125 570 859.5625 567 C 861.0625 566 862.8125 565.625 864.5625 565.625 C 868.6875 565.625 871.1875 567.75 872.5625 570 C 874.3125 572.75 874.4375 575.75 874.4375 578.625 Z M 898.6875 620 "/>
<path fill-rule="nonzero" fill="rgb(34.901961%, 14.901961%, 14.901961%)" fill-opacity="1" d="M 196.8125 681.375 C 186.8125 681.75 185.1875 681.75 174.6875 681.75 L 174.0625 682.5 C 174.9375 696.625 174.9375 700.25 175.0625 715 C 169.5625 715.125 164.0625 715.25 158.4375 715.25 C 154.0625 715.25 149.5625 715.125 145.1875 715.125 L 145.4375 682.125 L 144.8125 681.375 C 135.1875 681.75 133.3125 681.75 122.4375 681.75 L 121.6875 682.5 C 122.3125 695.375 123.0625 710.75 123.0625 741.75 C 123.0625 753 122.8125 759.125 122.5625 769.625 L 123.1875 770.375 C 132.3125 770 134.5625 769.875 145.5625 770 L 146.1875 769.25 C 145.4375 753.75 145.3125 749.25 145.1875 731.125 C 150.6875 730.875 155.3125 730.75 160.1875 730.75 C 165.1875 730.75 170.1875 730.875 175.1875 731 C 175.4375 747.875 175.4375 752 174.8125 769.625 L 175.4375 770.375 C 184.8125 770 187.3125 769.875 197.9375 770 L 198.5625 769.25 C 197.5625 748.25 197.1875 727.375 197.1875 706.375 C 197.1875 697.625 197.3125 691.75 197.4375 682.125 Z M 235.6875 769.125 C 235.0625 759.5 234.5625 752.125 234.5625 734.875 C 234.5625 724.25 234.8125 713.5 234.9375 702.875 L 234.0625 701.875 L 212.5625 705.625 L 211.8125 706.375 C 212.8125 715.875 213.1875 720.25 213.1875 738 C 213.1875 751.625 212.8125 759.25 212.4375 769.5 L 213.1875 770.375 C 222.1875 770 224.6875 769.875 234.8125 770 L 235.6875 769.125 M 233.6875 689.875 L 234.0625 672.875 L 233.3125 672.125 L 212.9375 674.625 L 212.1875 675.5 C 212.4375 680 212.5625 682.625 212.5625 685.625 C 212.5625 688 212.5625 690.5 212.4375 692.875 L 213.3125 693.625 C 221.8125 692.125 224.1875 691.875 233.0625 690.75 Z M 275.8125 726.875 C 271.5625 725.375 268.1875 724 268.1875 720.5 C 268.1875 719 269.1875 714.875 276.9375 714.875 C 284.5625 714.875 289.4375 718.125 292.5625 720.125 L 293.6875 719.75 L 294.9375 706.125 L 294.3125 705.375 C 288.4375 703.75 283.3125 702.25 275.1875 702.25 C 269.0625 702.25 256.8125 702.75 250.3125 712.125 C 248.6875 714.375 246.9375 718.125 246.9375 723.125 C 246.9375 736.5 257.3125 740.5 263.1875 742.75 L 267.9375 744.5 C 271.3125 745.625 276.8125 747.5 276.8125 752 C 276.8125 755.125 273.9375 758.5 266.9375 758.5 C 263.4375 758.5 258.3125 757.375 253.6875 755 C 251.5625 753.875 250.5625 753 248.6875 751.5 L 247.5625 752 C 247.3125 758.5 247.1875 759.875 246.6875 766.125 L 247.3125 767.25 C 253.4375 769.5 258.6875 771.5 267.8125 771.5 C 277.3125 771.5 296.0625 769.75 298.3125 751.875 C 298.4375 750.875 298.4375 750 298.4375 749.125 C 298.4375 735.375 288.8125 731.75 281.9375 729.125 Z M 344.4375 755.625 C 342.3125 756.25 340.8125 756.75 338.6875 756.75 C 332.3125 756.75 331.8125 752.75 331.5625 750.875 C 331.1875 747.625 331.1875 740.75 331.3125 735.75 L 331.5625 718.125 L 342.8125 718.625 L 343.5625 717.875 L 344.8125 704.5 L 344.0625 703.75 L 331.5625 703.75 L 331.9375 682.75 L 331.0625 682 C 322.5625 684.5 320.3125 685.125 311.4375 687.375 L 310.9375 688.25 L 311.0625 703.875 L 304.3125 703.625 L 303.5625 704.25 L 302.4375 717.625 L 303.1875 718.375 L 311.0625 718.125 L 310.6875 738 C 310.5625 741.125 310.4375 744.25 310.4375 747.5 C 310.4375 759 310.6875 771.375 330.1875 771.375 C 335.0625 771.375 338.9375 770.625 343.3125 769.875 L 344.1875 769 L 345.4375 756.125 Z M 417.3125 736.75 C 417.3125 731.875 417.3125 711.625 399.8125 704.75 C 394.3125 702.625 387.8125 702.375 384.5625 702.375 C 362.8125 702.375 350.5625 714 350.5625 737 C 350.5625 745 351.8125 753.125 356.4375 759.875 C 359.6875 764.75 365.8125 771.5 383.6875 771.5 C 410.1875 771.5 417.3125 755.5 417.3125 736.75 M 395.6875 736.625 C 395.6875 746.875 394.3125 758.25 383.9375 758.25 C 380.6875 758.25 378.4375 756.75 376.9375 755.375 C 374.8125 753.25 372.4375 749 372.4375 736.875 C 372.4375 733.25 372.4375 725.25 374.9375 720.875 C 376.8125 717.5 380.0625 715.25 384.0625 715.25 C 387.5625 715.25 390.4375 717.125 392.0625 719.125 C 395.0625 722.75 395.6875 729.875 395.6875 736.625 Z M 465.3125 723.625 L 468.8125 703.25 L 468.0625 702.375 C 467.1875 702.375 466.3125 702.25 465.4375 702.25 C 460.3125 702.25 454.5625 705.125 450.5625 714.375 L 450.9375 702.875 L 449.9375 701.875 C 440.6875 703.875 438.3125 704.25 429.1875 705.625 L 428.4375 706.375 C 429.1875 715.75 429.5625 721.375 429.5625 738.75 C 429.5625 749 429.4375 759.25 429.1875 769.625 L 429.9375 770.375 C 439.1875 770 441.1875 769.875 451.1875 770 L 451.8125 769.125 C 451.3125 759 450.5625 744.875 450.5625 736.25 C 450.5625 730.625 450.5625 722.375 459.0625 722.375 C 461.1875 722.375 462.4375 723.125 464.1875 724.125 Z M 498.6875 769.125 C 498.0625 759.5 497.5625 752.125 497.5625 734.875 C 497.5625 724.25 497.8125 713.5 497.9375 702.875 L 497.0625 701.875 L 475.5625 705.625 L 474.8125 706.375 C 475.8125 715.875 476.1875 720.25 476.1875 738 C 476.1875 751.625 475.8125 759.25 475.4375 769.5 L 476.1875 770.375 C 485.1875 770 487.6875 769.875 497.8125 770 L 498.6875 769.125 M 496.6875 689.875 L 497.0625 672.875 L 496.3125 672.125 L 475.9375 674.625 L 475.1875 675.5 C 475.4375 680 475.5625 682.625 475.5625 685.625 C 475.5625 688 475.5625 690.5 475.4375 692.875 L 476.3125 693.625 C 484.8125 692.125 487.1875 691.875 496.0625 690.75 Z M 561.4375 752 C 558.0625 754 554.8125 756 548.4375 756 C 534.3125 756 531.4375 744.25 531.4375 736.75 C 531.4375 727.625 535.4375 717.125 547.5625 717.125 C 553.0625 717.125 556.0625 719.125 559.8125 721.625 L 561.0625 721.25 C 561.5625 714.625 561.6875 712.875 562.6875 706.25 L 562.0625 705.5 C 556.5625 703.75 551.8125 702.25 544.5625 702.25 C 515.1875 702.25 509.4375 724.5 509.4375 737.25 C 509.4375 751.625 516.9375 771.125 545.0625 771.125 C 551.6875 771.125 555.9375 769.875 561.1875 768.375 L 561.9375 767.625 L 562.4375 752.625 Z M 625.6875 681.5 L 609.8125 681.75 L 609.0625 682.5 C 609.5625 698.75 609.9375 709.625 609.9375 724 C 609.9375 739.25 609.5625 754.375 609.1875 769.625 L 609.9375 770.375 C 619.1875 770 621.1875 769.875 631.1875 770 L 631.8125 769.25 C 631.3125 755.625 631.3125 752.5 631.3125 739.75 C 645.3125 739.875 660.3125 739.875 669.3125 728.875 C 672.8125 724.625 675.8125 717.5 675.8125 708.75 C 675.8125 703.375 674.5625 691.5 664.1875 685.625 C 656.6875 681.25 646.0625 681.25 636.6875 681.25 L 625.6875 681.5 M 631.3125 696.625 C 634.0625 696.5 636.6875 696.5 639.4375 696.5 C 650.4375 696.75 653.4375 702.375 653.4375 709.625 C 653.4375 711.375 653.4375 718.625 646.8125 722.25 C 643.4375 724.125 638.8125 724.375 631.3125 724.375 Z M 740.0625 732.75 C 740.1875 721.5 740.1875 716.625 736.9375 711.375 C 734.4375 707.375 729.4375 702.375 713.4375 702.375 C 702.6875 702.375 696.0625 704.375 688.9375 706.5 L 688.1875 707.5 L 687.5625 721.125 L 688.5625 721.625 C 692.9375 719.875 701.0625 716.625 709.4375 716.625 C 714.0625 716.625 715.9375 717.375 717.5625 719 C 718.8125 720.25 719.1875 722.5 719.1875 724.375 C 704.1875 726.375 697.1875 727.75 689.6875 732.375 C 682.6875 736.75 680.3125 743.875 680.3125 749.5 C 680.3125 762.875 689.9375 771.5 702.1875 771.5 C 711.5625 771.5 716.9375 767 719.5625 764.875 L 719.5625 769.5 L 720.3125 770.375 C 729.3125 770 732.0625 769.875 740.1875 770 L 740.8125 769.125 C 739.9375 756.875 739.9375 753.75 739.9375 742 L 740.0625 732.75 M 719.4375 752.625 C 716.8125 754.125 713.4375 755.875 709.3125 755.875 C 704.8125 755.875 701.0625 753.5 701.0625 748.25 C 701.0625 740 710.9375 738.625 719.4375 737.5 Z M 790.8125 723.625 L 794.3125 703.25 L 793.5625 702.375 C 792.6875 702.375 791.8125 702.25 790.9375 702.25 C 785.8125 702.25 780.0625 705.125 776.0625 714.375 L 776.4375 702.875 L 775.4375 701.875 C 766.1875 703.875 763.8125 704.25 754.6875 705.625 L 753.9375 706.375 C 754.6875 715.75 755.0625 721.375 755.0625 738.75 C 755.0625 749 754.9375 759.25 754.6875 769.625 L 755.4375 770.375 C 764.6875 770 766.6875 769.875 776.6875 770 L 777.3125 769.125 C 776.8125 759 776.0625 744.875 776.0625 736.25 C 776.0625 730.625 776.0625 722.375 784.5625 722.375 C 786.6875 722.375 787.9375 723.125 789.6875 724.125 Z M 865.8125 768.375 C 854.0625 748.5 852.8125 746.25 843.3125 729.125 C 851.9375 717.375 852.8125 716.125 861.6875 704.75 L 861.0625 703.5 L 840.6875 703.75 L 839.4375 704.625 C 829.6875 721.5 828.4375 723.5 822.6875 732.125 L 822.6875 718.25 C 822.8125 694.875 822.9375 689.875 823.5625 671 L 822.5625 670.25 L 800.8125 673.5 L 800.0625 674.375 C 800.9375 686.5 801.3125 692.375 801.5625 708.75 C 801.8125 729 801.8125 749.25 801.6875 769.5 L 802.5625 770.375 C 810.9375 770 813.3125 770 822.8125 770 L 823.5625 769.125 L 822.8125 748 L 822.6875 733.625 C 833.5625 753.625 834.9375 756.375 841.3125 769.625 L 842.4375 770.375 L 864.9375 769.5 Z M 864.3125 770 "/>
</svg>
