<?xml version="1.0" encoding="UTF-8"?>
<svg xmlns="http://www.w3.org/2000/svg" xmlns:xlink="http://www.w3.org/1999/xlink" width="975" height="1300" viewBox="0 0 975 1300">
<path fill-rule="nonzero" fill="rgb(34.901961%, 14.901961%, 14.901961%)" fill-opacity="1" d="M 109.25 545 C 120.875 545.25 135.25 545.5 144.625 539 C 152.875 533.125 155.125 524.875 155.125 517.875 C 155.125 509.875 151.75 502.5 144.625 499 C 142.25 497.75 139.5 497.25 136.875 496.75 C 141.125 495 146.125 492.75 149.375 486.125 C 150.75 483.25 151.375 480.25 151.375 477.375 C 151.375 473.375 150.375 467.875 146.375 463.375 C 141.125 457.75 133 456.25 120.75 456.25 C 116.5 456.25 108.875 456.375 104.625 456.5 L 87.125 456.75 L 86.375 457.5 C 86.875 469.5 87 474.125 87 491.375 C 87 509.125 86.875 526.75 86.625 544.5 L 87.5 545 L 109.25 545 M 108.375 507 C 117.875 506.75 123.375 506.75 127 508.875 C 130.625 511.125 132 515.125 132 519.125 C 132 524.75 128.875 528.25 124.25 529.875 C 120.5 531.125 113.75 531.125 108.375 531 L 108.375 507 M 108.375 470.25 C 111 470.25 114.5 470.125 116.625 470.125 C 123.375 470.125 129.5 472.5 129.5 480.625 C 129.5 487.25 124.625 490 123.125 490.75 C 120 492.125 113.375 492.125 108.375 492.125 Z M 222.375 507.75 C 222.5 496.5 222.5 491.625 219.25 486.375 C 216.75 482.375 211.75 477.375 195.75 477.375 C 185 477.375 178.375 479.375 171.25 481.5 L 170.5 482.5 L 169.875 496.125 L 170.875 496.625 C 175.25 494.875 183.375 491.625 191.75 491.625 C 196.375 491.625 198.25 492.375 199.875 494 C 201.125 495.25 201.5 497.5 201.5 499.375 C 186.5 501.375 179.5 502.75 172 507.375 C 165 511.75 162.625 518.875 162.625 524.5 C 162.625 537.875 172.25 546.5 184.5 546.5 C 193.875 546.5 199.25 542 201.875 539.875 L 201.875 544.5 L 202.625 545.375 C 211.625 545 214.375 544.875 222.5 545 L 223.125 544.125 C 222.25 531.875 222.25 528.75 222.25 517 L 222.375 507.75 M 201.75 527.625 C 199.125 529.125 195.75 530.875 191.625 530.875 C 187.125 530.875 183.375 528.5 183.375 523.25 C 183.375 515 193.25 513.625 201.75 512.5 Z M 259 544.125 C 258.375 529.75 257.75 516.625 257.75 477.125 C 257.75 465.25 257.875 459.625 258.375 446.125 L 257.5 445.25 L 236.125 448.625 L 235.625 449.375 C 236.875 464.625 237 468.75 237.25 489 C 237.375 496.375 237.375 503.75 237.375 511.125 C 237.375 524.625 237.125 532.125 236.625 544.5 L 237.375 545.375 C 245.75 545 249.125 544.875 258.25 545 Z M 329 526.5 C 324.25 529 318.625 531.875 309.5 531.875 C 302 531.875 296.875 529.5 293.875 525 C 292 522.375 291.625 519.875 291.125 517.375 L 331.5 516.625 L 332.25 515.75 C 332.125 509.625 332 503.375 330.25 497.125 C 325.875 482.375 316.25 479.375 312 478.375 C 308.875 477.5 306 477.25 303.125 477.25 C 283.5 477.25 270.5 490.125 270.5 511.75 C 270.5 517.625 271.5 523.75 273.5 528.125 C 280.75 545 297.75 546.5 306.75 546.5 C 317.125 546.5 321.625 544.625 328.25 542 L 329 541 L 329.875 526.875 L 329 526.5 M 291.125 504.125 C 291.5 500.25 292.375 495 297.125 492 C 298.625 491 300.375 490.625 302.125 490.625 C 306.25 490.625 308.75 492.75 310.125 495 C 311.875 497.75 312 500.75 312 503.625 Z M 454.625 520.25 C 454.625 514 454.75 507.75 454.875 501.375 L 454.25 500.625 L 433 501 L 432.375 501.75 C 433.5 514 433.625 517 433.375 528.375 C 430 529.125 427.5 529.75 424 529.75 C 404.625 529.75 401.125 511.25 401.125 501.875 C 401.125 482.125 411.75 471.375 427.5 471.375 C 437 471.375 442.625 475.125 448.5 479 L 449.5 478.625 C 450.125 470.875 450.375 468.875 451.375 461.375 L 450.75 460.625 C 445.5 458.375 437.125 454.875 424.125 454.875 C 409.875 454.875 394.25 458.875 384.375 475.625 C 379.875 483.5 378 493.625 378 502 C 378 513.75 381.125 523.625 386.75 530.875 C 394.125 540.375 403.25 543.375 408.125 544.75 C 411.75 545.75 417.125 546.875 424.875 546.875 C 437.75 546.875 445.625 544.25 454.375 541.375 L 455 540.375 C 454.875 534.625 454.625 528.875 454.625 523.125 Z M 504.875 498.625 L 508.375 478.25 L 507.625 477.375 C 506.75 477.375 505.875 477.25 505 477.25 C 499.875 477.25 494.125 480.125 490.125 489.375 L 490.5 477.875 L 489.5 476.875 C 480.25 478.875 477.875 479.25 468.75 480.625 L 468 481.375 C 468.75 490.75 469.125 496.375 469.125 513.75 C 469.125 524 469 534.25 468.75 544.625 L 469.5 545.375 C 478.75 545 480.75 544.875 490.75 545 L 491.375 544.125 C 490.875 534 490.125 519.875 490.125 511.25 C 490.125 505.625 490.125 497.375 498.625 497.375 C 500.75 497.375 502 498.125 503.75 499.125 Z M 538.25 544.125 C 537.625 534.5 537.125 527.125 537.125 509.875 C 537.125 499.25 537.375 488.5 537.5 477.875 L 536.625 476.875 L 515.125 480.625 L 514.375 481.375 C 515.375 490.875 515.75 495.25 515.75 513 C 515.75 526.625 515.375 534.25 515 544.5 L 515.75 545.375 C 524.75 545 527.25 544.875 537.375 545 L 538.25 544.125 M 536.25 464.875 L 536.625 447.875 L 535.875 447.125 L 515.5 449.625 L 514.75 450.5 C 515 455 515.125 457.625 515.125 460.625 C 515.125 463 515.125 465.5 515 467.875 L 515.875 468.625 C 524.375 467.125 526.75 466.875 535.625 465.75 Z M 578.375 501.875 C 574.125 500.375 570.75 499 570.75 495.5 C 570.75 494 571.75 489.875 579.5 489.875 C 587.125 489.875 592 493.125 595.125 495.125 L 596.25 494.75 L 597.5 481.125 L 596.875 480.375 C 591 478.75 585.875 477.25 577.75 477.25 C 571.625 477.25 559.375 477.75 552.875 487.125 C 551.25 489.375 549.5 493.125 549.5 498.125 C 549.5 511.5 559.875 515.5 565.75 517.75 L 570.5 519.5 C 573.875 520.625 579.375 522.5 579.375 527 C 579.375 530.125 576.5 533.5 569.5 533.5 C 566 533.5 560.875 532.375 556.25 530 C 554.125 528.875 553.125 528 551.25 526.5 L 550.125 527 C 549.875 533.5 549.75 534.875 549.25 541.125 L 549.875 542.25 C 556 544.5 561.25 546.5 570.375 546.5 C 579.875 546.5 598.625 544.75 600.875 526.875 C 601 525.875 601 525 601 524.125 C 601 510.375 591.375 506.75 584.5 504.125 Z M 647 530.625 C 644.875 531.25 643.375 531.75 641.25 531.75 C 634.875 531.75 634.375 527.75 634.125 525.875 C 633.75 522.625 633.75 515.75 633.875 510.75 L 634.125 493.125 L 645.375 493.625 L 646.125 492.875 L 647.375 479.5 L 646.625 478.75 L 634.125 478.75 L 634.5 457.75 L 633.625 457 C 625.125 459.5 622.875 460.125 614 462.375 L 613.5 463.25 L 613.625 478.875 L 606.875 478.625 L 606.125 479.25 L 605 492.625 L 605.75 493.375 L 613.625 493.125 L 613.25 513 C 613.125 516.125 613 519.25 613 522.5 C 613 534 613.25 546.375 632.75 546.375 C 637.625 546.375 641.5 545.625 645.875 544.875 L 646.75 544 L 648 531.125 Z M 788.625 456.375 C 775.625 456.75 773.5 456.75 759.625 456.75 L 758.875 457.5 L 753.125 477.75 L 748.125 495.875 L 742.25 517.625 L 736.75 495.25 L 733.25 481.125 L 727 457.125 L 726.375 456.375 C 713 456.75 710.75 456.75 696.75 456.75 L 696 457.5 C 694.75 494.875 694.25 504.5 691.5 544.625 L 692.125 545.375 C 700.125 545 702.5 544.875 709.75 545 L 710.5 544.25 L 710.875 520.375 L 711.625 496.125 L 712.125 472.5 L 717.625 494.625 L 722.375 512.375 L 730.75 544.625 L 731.5 545.375 C 739.25 545 741.375 544.875 750.125 545 L 750.875 544.25 L 758.125 517.625 L 763.125 499.375 L 770.125 473.125 L 770.125 495.5 L 770.375 514.625 L 770.375 544.625 L 771 545.375 C 779.625 545 783 544.875 792.625 545 L 793.25 544.25 C 792.5 530 791.625 515.625 791.125 501.25 C 790.75 493.375 790.5 485.5 790.125 477.625 C 789.5 466 789.375 464.5 789.375 457.125 Z M 830 544.125 C 829.375 534.5 828.875 527.125 828.875 509.875 C 828.875 499.25 829.125 488.5 829.25 477.875 L 828.375 476.875 L 806.875 480.625 L 806.125 481.375 C 807.125 490.875 807.5 495.25 807.5 513 C 807.5 526.625 807.125 534.25 806.75 544.5 L 807.5 545.375 C 816.5 545 819 544.875 829.125 545 L 830 544.125 M 828 464.875 L 828.375 447.875 L 827.625 447.125 L 807.25 449.625 L 806.5 450.5 C 806.75 455 806.875 457.625 806.875 460.625 C 806.875 463 806.875 465.5 806.75 467.875 L 807.625 468.625 C 816.125 467.125 818.5 466.875 827.375 465.75 Z M 865.875 544.125 C 865.25 529.75 864.625 516.625 864.625 477.125 C 864.625 465.25 864.75 459.625 865.25 446.125 L 864.375 445.25 L 843 448.625 L 842.5 449.375 C 843.75 464.625 843.875 468.75 844.125 489 C 844.25 496.375 844.25 503.75 844.25 511.125 C 844.25 524.625 844 532.125 843.5 544.5 L 844.25 545.375 C 852.625 545 856 544.875 865.125 545 Z M 902.375 544.125 C 901.75 529.75 901.125 516.625 901.125 477.125 C 901.125 465.25 901.25 459.625 901.75 446.125 L 900.875 445.25 L 879.5 448.625 L 879 449.375 C 880.25 464.625 880.375 468.75 880.625 489 C 880.75 496.375 880.75 503.75 880.75 511.125 C 880.75 524.625 880.5 532.125 880 544.5 L 880.75 545.375 C 889.125 545 892.5 544.875 901.625 545 Z M 909.375 545 "/>
<path fill-rule="nonzero" fill="rgb(34.901961%, 14.901961%, 14.901961%)" fill-opacity="1" d="M 140.9375 641.25 C 130.4375 636.875 124.9375 634.625 124.9375 629 C 124.9375 625.125 128.5625 620.25 136.8125 620.25 C 146.3125 620.25 151.9375 624.125 156.5625 627.25 L 157.6875 626.75 L 158.6875 610.375 L 158.0625 609.5 C 152.6875 607.25 147.0625 604.875 134.9375 604.875 C 111.4375 604.875 103.3125 618.125 103.3125 631.5 C 103.3125 646.625 115.0625 652.125 122.0625 655.5 L 126.1875 657.375 C 134.8125 661 141.4375 664.125 141.4375 670.75 C 141.4375 675.5 137.3125 681.125 126.4375 681.125 C 115.0625 681.125 108.6875 676.125 105.0625 673.25 L 103.8125 673.625 L 102.9375 691.25 L 103.6875 692.25 C 105.0625 692.75 106.4375 693.375 107.8125 693.75 C 110.6875 694.75 118.0625 696.875 127.4375 696.875 C 131.1875 696.875 140.6875 696.5 148.1875 693 C 158.6875 687.875 163.1875 678.375 163.1875 667.75 C 163.1875 660.625 160.4375 653 153.8125 647.875 C 150.4375 645.375 147.1875 643.875 144.1875 642.5 Z M 210.0625 680.625 C 207.9375 681.25 206.4375 681.75 204.3125 681.75 C 197.9375 681.75 197.4375 677.75 197.1875 675.875 C 196.8125 672.625 196.8125 665.75 196.9375 660.75 L 197.1875 643.125 L 208.4375 643.625 L 209.1875 642.875 L 210.4375 629.5 L 209.6875 628.75 L 197.1875 628.75 L 197.5625 607.75 L 196.6875 607 C 188.1875 609.5 185.9375 610.125 177.0625 612.375 L 176.5625 613.25 L 176.6875 628.875 L 169.9375 628.625 L 169.1875 629.25 L 168.0625 642.625 L 168.8125 643.375 L 176.6875 643.125 L 176.3125 663 C 176.1875 666.125 176.0625 669.25 176.0625 672.5 C 176.0625 684 176.3125 696.375 195.8125 696.375 C 200.6875 696.375 204.5625 695.625 208.9375 694.875 L 209.8125 694 L 211.0625 681.125 Z M 274.9375 657.75 C 275.0625 646.5 275.0625 641.625 271.8125 636.375 C 269.3125 632.375 264.3125 627.375 248.3125 627.375 C 237.5625 627.375 230.9375 629.375 223.8125 631.5 L 223.0625 632.5 L 222.4375 646.125 L 223.4375 646.625 C 227.8125 644.875 235.9375 641.625 244.3125 641.625 C 248.9375 641.625 250.8125 642.375 252.4375 644 C 253.6875 645.25 254.0625 647.5 254.0625 649.375 C 239.0625 651.375 232.0625 652.75 224.5625 657.375 C 217.5625 661.75 215.1875 668.875 215.1875 674.5 C 215.1875 687.875 224.8125 696.5 237.0625 696.5 C 246.4375 696.5 251.8125 692 254.4375 689.875 L 254.4375 694.5 L 255.1875 695.375 C 264.1875 695 266.9375 694.875 275.0625 695 L 275.6875 694.125 C 274.8125 681.875 274.8125 678.75 274.8125 667 L 274.9375 657.75 M 254.3125 677.625 C 251.6875 679.125 248.3125 680.875 244.1875 680.875 C 239.6875 680.875 235.9375 678.5 235.9375 673.25 C 235.9375 665 245.8125 663.625 254.3125 662.5 Z M 324.5625 680.625 C 322.4375 681.25 320.9375 681.75 318.8125 681.75 C 312.4375 681.75 311.9375 677.75 311.6875 675.875 C 311.3125 672.625 311.3125 665.75 311.4375 660.75 L 311.6875 643.125 L 322.9375 643.625 L 323.6875 642.875 L 324.9375 629.5 L 324.1875 628.75 L 311.6875 628.75 L 312.0625 607.75 L 311.1875 607 C 302.6875 609.5 300.4375 610.125 291.5625 612.375 L 291.0625 613.25 L 291.1875 628.875 L 284.4375 628.625 L 283.6875 629.25 L 282.5625 642.625 L 283.3125 643.375 L 291.1875 643.125 L 290.8125 663 C 290.6875 666.125 290.5625 669.25 290.5625 672.5 C 290.5625 684 290.8125 696.375 310.3125 696.375 C 315.1875 696.375 319.0625 695.625 323.4375 694.875 L 324.3125 694 L 325.5625 681.125 Z M 389.3125 676.5 C 384.5625 679 378.9375 681.875 369.8125 681.875 C 362.3125 681.875 357.1875 679.5 354.1875 675 C 352.3125 672.375 351.9375 669.875 351.4375 667.375 L 391.8125 666.625 L 392.5625 665.75 C 392.4375 659.625 392.3125 653.375 390.5625 647.125 C 386.1875 632.375 376.5625 629.375 372.3125 628.375 C 369.1875 627.5 366.3125 627.25 363.4375 627.25 C 343.8125 627.25 330.8125 640.125 330.8125 661.75 C 330.8125 667.625 331.8125 673.75 333.8125 678.125 C 341.0625 695 358.0625 696.5 367.0625 696.5 C 377.4375 696.5 381.9375 694.625 388.5625 692 L 389.3125 691 L 390.1875 676.875 L 389.3125 676.5 M 351.4375 654.125 C 351.8125 650.25 352.6875 645 357.4375 642 C 358.9375 641 360.6875 640.625 362.4375 640.625 C 366.5625 640.625 369.0625 642.75 370.4375 645 C 372.1875 647.75 372.3125 650.75 372.3125 653.625 Z M 515.4375 606.375 C 505.4375 606.75 503.8125 606.75 493.3125 606.75 L 492.6875 607.5 C 493.5625 621.625 493.5625 625.25 493.6875 640 C 488.1875 640.125 482.6875 640.25 477.0625 640.25 C 472.6875 640.25 468.1875 640.125 463.8125 640.125 L 464.0625 607.125 L 463.4375 606.375 C 453.8125 606.75 451.9375 606.75 441.0625 606.75 L 440.3125 607.5 C 440.9375 620.375 441.6875 635.75 441.6875 666.75 C 441.6875 678 441.4375 684.125 441.1875 694.625 L 441.8125 695.375 C 450.9375 695 453.1875 694.875 464.1875 695 L 464.8125 694.25 C 464.0625 678.75 463.9375 674.25 463.8125 656.125 C 469.3125 655.875 473.9375 655.75 478.8125 655.75 C 483.8125 655.75 488.8125 655.875 493.8125 656 C 494.0625 672.875 494.0625 677 493.4375 694.625 L 494.0625 695.375 C 503.4375 695 505.9375 694.875 516.5625 695 L 517.1875 694.25 C 516.1875 673.25 515.8125 652.375 515.8125 631.375 C 515.8125 622.625 515.9375 616.75 516.0625 607.125 Z M 554.3125 694.125 C 553.6875 684.5 553.1875 677.125 553.1875 659.875 C 553.1875 649.25 553.4375 638.5 553.5625 627.875 L 552.6875 626.875 L 531.1875 630.625 L 530.4375 631.375 C 531.4375 640.875 531.8125 645.25 531.8125 663 C 531.8125 676.625 531.4375 684.25 531.0625 694.5 L 531.8125 695.375 C 540.8125 695 543.3125 694.875 553.4375 695 L 554.3125 694.125 M 552.3125 614.875 L 552.6875 597.875 L 551.9375 597.125 L 531.5625 599.625 L 530.8125 600.5 C 531.0625 605 531.1875 607.625 531.1875 610.625 C 531.1875 613 531.1875 615.5 531.0625 617.875 L 531.9375 618.625 C 540.4375 617.125 542.8125 616.875 551.6875 615.75 Z M 594.4375 651.875 C 590.1875 650.375 586.8125 649 586.8125 645.5 C 586.8125 644 587.8125 639.875 595.5625 639.875 C 603.1875 639.875 608.0625 643.125 611.1875 645.125 L 612.3125 644.75 L 613.5625 631.125 L 612.9375 630.375 C 607.0625 628.75 601.9375 627.25 593.8125 627.25 C 587.6875 627.25 575.4375 627.75 568.9375 637.125 C 567.3125 639.375 565.5625 643.125 565.5625 648.125 C 565.5625 661.5 575.9375 665.5 581.8125 667.75 L 586.5625 669.5 C 589.9375 670.625 595.4375 672.5 595.4375 677 C 595.4375 680.125 592.5625 683.5 585.5625 683.5 C 582.0625 683.5 576.9375 682.375 572.3125 680 C 570.1875 678.875 569.1875 678 567.3125 676.5 L 566.1875 677 C 565.9375 683.5 565.8125 684.875 565.3125 691.125 L 565.9375 692.25 C 572.0625 694.5 577.3125 696.5 586.4375 696.5 C 595.9375 696.5 614.6875 694.75 616.9375 676.875 C 617.0625 675.875 617.0625 675 617.0625 674.125 C 617.0625 660.375 607.4375 656.75 600.5625 654.125 Z M 663.0625 680.625 C 660.9375 681.25 659.4375 681.75 657.3125 681.75 C 650.9375 681.75 650.4375 677.75 650.1875 675.875 C 649.8125 672.625 649.8125 665.75 649.9375 660.75 L 650.1875 643.125 L 661.4375 643.625 L 662.1875 642.875 L 663.4375 629.5 L 662.6875 628.75 L 650.1875 628.75 L 650.5625 607.75 L 649.6875 607 C 641.1875 609.5 638.9375 610.125 630.0625 612.375 L 629.5625 613.25 L 629.6875 628.875 L 622.9375 628.625 L 622.1875 629.25 L 621.0625 642.625 L 621.8125 643.375 L 629.6875 643.125 L 629.3125 663 C 629.1875 666.125 629.0625 669.25 629.0625 672.5 C 629.0625 684 629.3125 696.375 648.8125 696.375 C 653.6875 696.375 657.5625 695.625 661.9375 694.875 L 662.8125 694 L 664.0625 681.125 Z M 735.9375 661.75 C 735.9375 656.875 735.9375 636.625 718.4375 629.75 C 712.9375 627.625 706.4375 627.375 703.1875 627.375 C 681.4375 627.375 669.1875 639 669.1875 662 C 669.1875 670 670.4375 678.125 675.0625 684.875 C 678.3125 689.75 684.4375 696.5 702.3125 696.5 C 728.8125 696.5 735.9375 680.5 735.9375 661.75 M 714.3125 661.625 C 714.3125 671.875 712.9375 683.25 702.5625 683.25 C 699.3125 683.25 697.0625 681.75 695.5625 680.375 C 693.4375 678.25 691.0625 674 691.0625 661.875 C 691.0625 658.25 691.0625 650.25 693.5625 645.875 C 695.4375 642.5 698.6875 640.25 702.6875 640.25 C 706.1875 640.25 709.0625 642.125 710.6875 644.125 C 713.6875 647.75 714.3125 654.875 714.3125 661.625 Z M 783.9375 648.625 L 787.4375 628.25 L 786.6875 627.375 C 785.8125 627.375 784.9375 627.25 784.0625 627.25 C 778.9375 627.25 773.1875 630.125 769.1875 639.375 L 769.5625 627.875 L 768.5625 626.875 C 759.3125 628.875 756.9375 629.25 747.8125 630.625 L 747.0625 631.375 C 747.8125 640.75 748.1875 646.375 748.1875 663.75 C 748.1875 674 748.0625 684.25 747.8125 694.625 L 748.5625 695.375 C 757.8125 695 759.8125 694.875 769.8125 695 L 770.4375 694.125 C 769.9375 684 769.1875 669.875 769.1875 661.25 C 769.1875 655.625 769.1875 647.375 777.6875 647.375 C 779.8125 647.375 781.0625 648.125 782.8125 649.125 Z M 817.3125 694.125 C 816.6875 684.5 816.1875 677.125 816.1875 659.875 C 816.1875 649.25 816.4375 638.5 816.5625 627.875 L 815.6875 626.875 L 794.1875 630.625 L 793.4375 631.375 C 794.4375 640.875 794.8125 645.25 794.8125 663 C 794.8125 676.625 794.4375 684.25 794.0625 694.5 L 794.8125 695.375 C 803.8125 695 806.3125 694.875 816.4375 695 L 817.3125 694.125 M 815.3125 614.875 L 815.6875 597.875 L 814.9375 597.125 L 794.5625 599.625 L 793.8125 600.5 C 794.0625 605 794.1875 607.625 794.1875 610.625 C 794.1875 613 794.1875 615.5 794.0625 617.875 L 794.9375 618.625 C 803.4375 617.125 805.8125 616.875 814.6875 615.75 Z M 880.0625 677 C 876.6875 679 873.4375 681 867.0625 681 C 852.9375 681 850.0625 669.25 850.0625 661.75 C 850.0625 652.625 854.0625 642.125 866.1875 642.125 C 871.6875 642.125 874.6875 644.125 878.4375 646.625 L 879.6875 646.25 C 880.1875 639.625 880.3125 637.875 881.3125 631.25 L 880.6875 630.5 C 875.1875 628.75 870.4375 627.25 863.1875 627.25 C 833.8125 627.25 828.0625 649.5 828.0625 662.25 C 828.0625 676.625 835.5625 696.125 863.6875 696.125 C 870.3125 696.125 874.5625 694.875 879.8125 693.375 L 880.5625 692.625 L 881.0625 677.625 Z M 883.5625 695 "/>
<path fill-rule="nonzero" fill="rgb(34.901961%, 14.901961%, 14.901961%)" fill-opacity="1" d="M 382.375 756.5 L 366.5 756.75 L 365.75 757.5 C 366.25 773.75 366.625 784.625 366.625 799 C 366.625 814.25 366.25 829.375 365.875 844.625 L 366.625 845.375 C 375.875 845 377.875 844.875 387.875 845 L 388.5 844.25 C 388 830.625 388 827.5 388 814.75 C 402 814.875 417 814.875 426 803.875 C 429.5 799.625 432.5 792.5 432.5 783.75 C 432.5 778.375 431.25 766.5 420.875 760.625 C 413.375 756.25 402.75 756.25 393.375 756.25 L 382.375 756.5 M 388 771.625 C 390.75 771.5 393.375 771.5 396.125 771.5 C 407.125 771.75 410.125 777.375 410.125 784.625 C 410.125 786.375 410.125 793.625 403.5 797.25 C 400.125 799.125 395.5 799.375 388 799.375 Z M 496.75 807.75 C 496.875 796.5 496.875 791.625 493.625 786.375 C 491.125 782.375 486.125 777.375 470.125 777.375 C 459.375 777.375 452.75 779.375 445.625 781.5 L 444.875 782.5 L 444.25 796.125 L 445.25 796.625 C 449.625 794.875 457.75 791.625 466.125 791.625 C 470.75 791.625 472.625 792.375 474.25 794 C 475.5 795.25 475.875 797.5 475.875 799.375 C 460.875 801.375 453.875 802.75 446.375 807.375 C 439.375 811.75 437 818.875 437 824.5 C 437 837.875 446.625 846.5 458.875 846.5 C 468.25 846.5 473.625 842 476.25 839.875 L 476.25 844.5 L 477 845.375 C 486 845 488.75 844.875 496.875 845 L 497.5 844.125 C 496.625 831.875 496.625 828.75 496.625 817 L 496.75 807.75 M 476.125 827.625 C 473.5 829.125 470.125 830.875 466 830.875 C 461.5 830.875 457.75 828.5 457.75 823.25 C 457.75 815 467.625 813.625 476.125 812.5 Z M 547.5 798.625 L 551 778.25 L 550.25 777.375 C 549.375 777.375 548.5 777.25 547.625 777.25 C 542.5 777.25 536.75 780.125 532.75 789.375 L 533.125 777.875 L 532.125 776.875 C 522.875 778.875 520.5 779.25 511.375 780.625 L 510.625 781.375 C 511.375 790.75 511.75 796.375 511.75 813.75 C 511.75 824 511.625 834.25 511.375 844.625 L 512.125 845.375 C 521.375 845 523.375 844.875 533.375 845 L 534 844.125 C 533.5 834 532.75 819.875 532.75 811.25 C 532.75 805.625 532.75 797.375 541.25 797.375 C 543.375 797.375 544.625 798.125 546.375 799.125 Z M 622.5 843.375 C 610.75 823.5 609.5 821.25 600 804.125 C 608.625 792.375 609.5 791.125 618.375 779.75 L 617.75 778.5 L 597.375 778.75 L 596.125 779.625 C 586.375 796.5 585.125 798.5 579.375 807.125 L 579.375 793.25 C 579.5 769.875 579.625 764.875 580.25 746 L 579.25 745.25 L 557.5 748.5 L 556.75 749.375 C 557.625 761.5 558 767.375 558.25 783.75 C 558.5 804 558.5 824.25 558.375 844.5 L 559.25 845.375 C 567.625 845 570 845 579.5 845 L 580.25 844.125 L 579.5 823 L 579.375 808.625 C 590.25 828.625 591.625 831.375 598 844.625 L 599.125 845.375 L 621.625 844.5 Z M 621 845 "/>
</svg>
