<?xml version="1.0" encoding="UTF-8"?>
<svg xmlns="http://www.w3.org/2000/svg" xmlns:xlink="http://www.w3.org/1999/xlink" width="975" height="1300" viewBox="0 0 975 1300">
<path fill-rule="nonzero" fill="rgb(34.901961%, 14.901961%, 14.901961%)" fill-opacity="1" d="M 266.8125 456.375 C 254.8125 456.75 252.3125 456.75 238.9375 456.75 L 238.0625 457.5 C 231.4375 478.75 227.4375 491.375 209.0625 544.125 L 209.5625 545 L 229.0625 545 L 229.9375 544.25 L 236.0625 521.5 L 263.0625 521.5 L 268.4375 544.625 L 269.3125 545.375 C 278.4375 545 280.9375 544.875 291.0625 545 L 291.6875 544 C 276.5625 490.5 274.8125 484.625 267.6875 457.125 L 266.8125 456.375 M 240.4375 506.375 L 246.6875 485.25 L 251.0625 470.625 L 254.8125 486.875 L 259.4375 506.375 Z M 360.9375 544.125 C 360.3125 533.125 360.3125 529.625 360.0625 517.375 L 360.0625 507.625 C 359.9375 495.625 359.8125 489.875 356.6875 484.75 C 352.8125 478.25 345.6875 477.25 341.1875 477.25 C 333.5625 477.25 326.9375 481.25 321.1875 484.625 L 321.4375 477.75 L 320.1875 476.875 C 310.5625 478.875 308.4375 479.25 299.0625 480.5 L 298.3125 481.375 C 299.3125 492.25 300.0625 500.125 300.0625 520.5 C 300.0625 528.5 299.9375 536.5 299.8125 544.5 L 300.5625 545.25 C 309.5625 544.875 311.4375 544.875 321.4375 544.875 L 322.1875 544.125 C 321.4375 524.875 321.3125 520 321.1875 497.625 C 323.8125 495.875 326.8125 493.75 330.8125 493.75 C 337.6875 493.75 338.3125 501.125 338.6875 505.625 C 338.9375 509.75 339.0625 526.875 339.0625 531.625 C 339.0625 535.875 338.9375 540.25 338.9375 544.5 L 339.6875 545.25 C 347.9375 545 350.0625 544.875 360.0625 544.875 Z M 436.4375 544.25 C 435.9375 533 435.5625 525.5 435.5625 509.125 C 435.5625 476.125 436.0625 462.5 436.5625 446 L 435.6875 445.25 L 415.0625 448.5 L 414.4375 449.25 C 415.1875 461 415.3125 464.125 415.1875 478.375 C 405.8125 478.125 394.0625 477.875 384.5625 485.375 C 375.8125 492.125 372.1875 502.5 372.1875 515.375 C 372.1875 525.125 374.8125 534.875 382.1875 541 C 387.6875 545.5 394.4375 546.5 398.5625 546.5 C 407.4375 546.5 412.0625 542.375 415.0625 539.75 L 414.8125 544.625 L 415.4375 545.375 C 424.0625 545 426.4375 545 435.8125 545 L 436.4375 544.25 M 415.1875 493.375 C 415.3125 510 415.1875 513.25 414.8125 528.375 C 412.3125 529.875 409.8125 531.375 406.3125 531.375 C 394.1875 531.375 394.1875 515.875 394.1875 513.375 C 394.1875 503.75 396.9375 493 410.9375 493 C 412.3125 493 413.4375 493.125 415.1875 493.375 Z M 506.1875 526.5 C 501.4375 529 495.8125 531.875 486.6875 531.875 C 479.1875 531.875 474.0625 529.5 471.0625 525 C 469.1875 522.375 468.8125 519.875 468.3125 517.375 L 508.6875 516.625 L 509.4375 515.75 C 509.3125 509.625 509.1875 503.375 507.4375 497.125 C 503.0625 482.375 493.4375 479.375 489.1875 478.375 C 486.0625 477.5 483.1875 477.25 480.3125 477.25 C 460.6875 477.25 447.6875 490.125 447.6875 511.75 C 447.6875 517.625 448.6875 523.75 450.6875 528.125 C 457.9375 545 474.9375 546.5 483.9375 546.5 C 494.3125 546.5 498.8125 544.625 505.4375 542 L 506.1875 541 L 507.0625 526.875 L 506.1875 526.5 M 468.3125 504.125 C 468.6875 500.25 469.5625 495 474.3125 492 C 475.8125 491 477.5625 490.625 479.3125 490.625 C 483.4375 490.625 485.9375 492.75 487.3125 495 C 489.0625 497.75 489.1875 500.75 489.1875 503.625 Z M 557.0625 498.625 L 560.5625 478.25 L 559.8125 477.375 C 558.9375 477.375 558.0625 477.25 557.1875 477.25 C 552.0625 477.25 546.3125 480.125 542.3125 489.375 L 542.6875 477.875 L 541.6875 476.875 C 532.4375 478.875 530.0625 479.25 520.9375 480.625 L 520.1875 481.375 C 520.9375 490.75 521.3125 496.375 521.3125 513.75 C 521.3125 524 521.1875 534.25 520.9375 544.625 L 521.6875 545.375 C 530.9375 545 532.9375 544.875 542.9375 545 L 543.5625 544.125 C 543.0625 534 542.3125 519.875 542.3125 511.25 C 542.3125 505.625 542.3125 497.375 550.8125 497.375 C 552.9375 497.375 554.1875 498.125 555.9375 499.125 Z M 594.0625 501.875 C 589.8125 500.375 586.4375 499 586.4375 495.5 C 586.4375 494 587.4375 489.875 595.1875 489.875 C 602.8125 489.875 607.6875 493.125 610.8125 495.125 L 611.9375 494.75 L 613.1875 481.125 L 612.5625 480.375 C 606.6875 478.75 601.5625 477.25 593.4375 477.25 C 587.3125 477.25 575.0625 477.75 568.5625 487.125 C 566.9375 489.375 565.1875 493.125 565.1875 498.125 C 565.1875 511.5 575.5625 515.5 581.4375 517.75 L 586.1875 519.5 C 589.5625 520.625 595.0625 522.5 595.0625 527 C 595.0625 530.125 592.1875 533.5 585.1875 533.5 C 581.6875 533.5 576.5625 532.375 571.9375 530 C 569.8125 528.875 568.8125 528 566.9375 526.5 L 565.8125 527 C 565.5625 533.5 565.4375 534.875 564.9375 541.125 L 565.5625 542.25 C 571.6875 544.5 576.9375 546.5 586.0625 546.5 C 595.5625 546.5 614.3125 544.75 616.5625 526.875 C 616.6875 525.875 616.6875 525 616.6875 524.125 C 616.6875 510.375 607.0625 506.75 600.1875 504.125 Z M 691.3125 511.75 C 691.3125 506.875 691.3125 486.625 673.8125 479.75 C 668.3125 477.625 661.8125 477.375 658.5625 477.375 C 636.8125 477.375 624.5625 489 624.5625 512 C 624.5625 520 625.8125 528.125 630.4375 534.875 C 633.6875 539.75 639.8125 546.5 657.6875 546.5 C 684.1875 546.5 691.3125 530.5 691.3125 511.75 M 669.6875 511.625 C 669.6875 521.875 668.3125 533.25 657.9375 533.25 C 654.6875 533.25 652.4375 531.75 650.9375 530.375 C 648.8125 528.25 646.4375 524 646.4375 511.875 C 646.4375 508.25 646.4375 500.25 648.9375 495.875 C 650.8125 492.5 654.0625 490.25 658.0625 490.25 C 661.5625 490.25 664.4375 492.125 666.0625 494.125 C 669.0625 497.75 669.6875 504.875 669.6875 511.625 Z M 764.4375 544.125 C 763.8125 533.125 763.8125 529.625 763.5625 517.375 L 763.5625 507.625 C 763.4375 495.625 763.3125 489.875 760.1875 484.75 C 756.3125 478.25 749.1875 477.25 744.6875 477.25 C 737.0625 477.25 730.4375 481.25 724.6875 484.625 L 724.9375 477.75 L 723.6875 476.875 C 714.0625 478.875 711.9375 479.25 702.5625 480.5 L 701.8125 481.375 C 702.8125 492.25 703.5625 500.125 703.5625 520.5 C 703.5625 528.5 703.4375 536.5 703.3125 544.5 L 704.0625 545.25 C 713.0625 544.875 714.9375 544.875 724.9375 544.875 L 725.6875 544.125 C 724.9375 524.875 724.8125 520 724.6875 497.625 C 727.3125 495.875 730.3125 493.75 734.3125 493.75 C 741.1875 493.75 741.8125 501.125 742.1875 505.625 C 742.4375 509.75 742.5625 526.875 742.5625 531.625 C 742.5625 535.875 742.4375 540.25 742.4375 544.5 L 743.1875 545.25 C 751.4375 545 753.5625 544.875 763.5625 544.875 Z M 771.1875 545 "/>
<path fill-rule="nonzero" fill="rgb(34.901961%, 14.901961%, 14.901961%)" fill-opacity="1" d="M 243.5625 606.375 C 230.5625 606.75 228.4375 606.75 214.5625 606.75 L 213.8125 607.5 L 208.0625 627.75 L 203.0625 645.875 L 197.1875 667.625 L 191.6875 645.25 L 188.1875 631.125 L 181.9375 607.125 L 181.3125 606.375 C 167.9375 606.75 165.6875 606.75 151.6875 606.75 L 150.9375 607.5 C 149.6875 644.875 149.1875 654.5 146.4375 694.625 L 147.0625 695.375 C 155.0625 695 157.4375 694.875 164.6875 695 L 165.4375 694.25 L 165.8125 670.375 L 166.5625 646.125 L 167.0625 622.5 L 172.5625 644.625 L 177.3125 662.375 L 185.6875 694.625 L 186.4375 695.375 C 194.1875 695 196.3125 694.875 205.0625 695 L 205.8125 694.25 L 213.0625 667.625 L 218.0625 649.375 L 225.0625 623.125 L 225.0625 645.5 L 225.3125 664.625 L 225.3125 694.625 L 225.9375 695.375 C 234.5625 695 237.9375 694.875 247.5625 695 L 248.1875 694.25 C 247.4375 680 246.5625 665.625 246.0625 651.25 C 245.6875 643.375 245.4375 635.5 245.0625 627.625 C 244.4375 616 244.3125 614.5 244.3125 607.125 Z M 317.9375 657.75 C 318.0625 646.5 318.0625 641.625 314.8125 636.375 C 312.3125 632.375 307.3125 627.375 291.3125 627.375 C 280.5625 627.375 273.9375 629.375 266.8125 631.5 L 266.0625 632.5 L 265.4375 646.125 L 266.4375 646.625 C 270.8125 644.875 278.9375 641.625 287.3125 641.625 C 291.9375 641.625 293.8125 642.375 295.4375 644 C 296.6875 645.25 297.0625 647.5 297.0625 649.375 C 282.0625 651.375 275.0625 652.75 267.5625 657.375 C 260.5625 661.75 258.1875 668.875 258.1875 674.5 C 258.1875 687.875 267.8125 696.5 280.0625 696.5 C 289.4375 696.5 294.8125 692 297.4375 689.875 L 297.4375 694.5 L 298.1875 695.375 C 307.1875 695 309.9375 694.875 318.0625 695 L 318.6875 694.125 C 317.8125 681.875 317.8125 678.75 317.8125 667 L 317.9375 657.75 M 297.3125 677.625 C 294.6875 679.125 291.3125 680.875 287.1875 680.875 C 282.6875 680.875 278.9375 678.5 278.9375 673.25 C 278.9375 665 288.8125 663.625 297.3125 662.5 Z M 368.6875 648.625 L 372.1875 628.25 L 371.4375 627.375 C 370.5625 627.375 369.6875 627.25 368.8125 627.25 C 363.6875 627.25 357.9375 630.125 353.9375 639.375 L 354.3125 627.875 L 353.3125 626.875 C 344.0625 628.875 341.6875 629.25 332.5625 630.625 L 331.8125 631.375 C 332.5625 640.75 332.9375 646.375 332.9375 663.75 C 332.9375 674 332.8125 684.25 332.5625 694.625 L 333.3125 695.375 C 342.5625 695 344.5625 694.875 354.5625 695 L 355.1875 694.125 C 354.6875 684 353.9375 669.875 353.9375 661.25 C 353.9375 655.625 353.9375 647.375 362.4375 647.375 C 364.5625 647.375 365.8125 648.125 367.5625 649.125 Z M 405.6875 651.875 C 401.4375 650.375 398.0625 649 398.0625 645.5 C 398.0625 644 399.0625 639.875 406.8125 639.875 C 414.4375 639.875 419.3125 643.125 422.4375 645.125 L 423.5625 644.75 L 424.8125 631.125 L 424.1875 630.375 C 418.3125 628.75 413.1875 627.25 405.0625 627.25 C 398.9375 627.25 386.6875 627.75 380.1875 637.125 C 378.5625 639.375 376.8125 643.125 376.8125 648.125 C 376.8125 661.5 387.1875 665.5 393.0625 667.75 L 397.8125 669.5 C 401.1875 670.625 406.6875 672.5 406.6875 677 C 406.6875 680.125 403.8125 683.5 396.8125 683.5 C 393.3125 683.5 388.1875 682.375 383.5625 680 C 381.4375 678.875 380.4375 678 378.5625 676.5 L 377.4375 677 C 377.1875 683.5 377.0625 684.875 376.5625 691.125 L 377.1875 692.25 C 383.3125 694.5 388.5625 696.5 397.6875 696.5 C 407.1875 696.5 425.9375 694.75 428.1875 676.875 C 428.3125 675.875 428.3125 675 428.3125 674.125 C 428.3125 660.375 418.6875 656.75 411.8125 654.125 Z M 500.5625 694.125 C 500.0625 683.875 499.9375 680.375 499.6875 667.375 L 499.6875 658 C 499.5625 646.125 499.4375 639.25 495.8125 634 C 492.1875 628.875 486.9375 627.25 481.4375 627.25 C 472.3125 627.25 465.1875 631.625 460.1875 634.625 L 460.5625 596.125 L 459.8125 595.25 L 438.4375 598.625 L 437.8125 599.375 C 438.9375 611.5 439.1875 616 439.4375 632.125 C 439.6875 642.25 439.8125 652.375 439.8125 662.5 C 439.8125 674.875 439.5625 682.25 439.3125 694.5 L 439.9375 695.375 C 449.1875 694.875 451.0625 694.875 461.1875 694.875 L 461.9375 694.125 C 461.0625 675.375 460.9375 669.75 460.8125 647.625 C 463.1875 646 466.1875 643.875 470.4375 643.875 C 477.3125 643.875 477.8125 651 478.3125 656 C 478.5625 659.875 478.6875 677.625 478.6875 682.25 C 478.6875 686.375 478.5625 690.375 478.5625 694.5 L 479.1875 695.375 C 488.1875 694.875 490.1875 694.875 499.8125 694.875 Z M 587.4375 641.25 C 576.9375 636.875 571.4375 634.625 571.4375 629 C 571.4375 625.125 575.0625 620.25 583.3125 620.25 C 592.8125 620.25 598.4375 624.125 603.0625 627.25 L 604.1875 626.75 L 605.1875 610.375 L 604.5625 609.5 C 599.1875 607.25 593.5625 604.875 581.4375 604.875 C 557.9375 604.875 549.8125 618.125 549.8125 631.5 C 549.8125 646.625 561.5625 652.125 568.5625 655.5 L 572.6875 657.375 C 581.3125 661 587.9375 664.125 587.9375 670.75 C 587.9375 675.5 583.8125 681.125 572.9375 681.125 C 561.5625 681.125 555.1875 676.125 551.5625 673.25 L 550.3125 673.625 L 549.4375 691.25 L 550.1875 692.25 C 551.5625 692.75 552.9375 693.375 554.3125 693.75 C 557.1875 694.75 564.5625 696.875 573.9375 696.875 C 577.6875 696.875 587.1875 696.5 594.6875 693 C 605.1875 687.875 609.6875 678.375 609.6875 667.75 C 609.6875 660.625 606.9375 653 600.3125 647.875 C 596.9375 645.375 593.6875 643.875 590.6875 642.5 Z M 656.5625 680.625 C 654.4375 681.25 652.9375 681.75 650.8125 681.75 C 644.4375 681.75 643.9375 677.75 643.6875 675.875 C 643.3125 672.625 643.3125 665.75 643.4375 660.75 L 643.6875 643.125 L 654.9375 643.625 L 655.6875 642.875 L 656.9375 629.5 L 656.1875 628.75 L 643.6875 628.75 L 644.0625 607.75 L 643.1875 607 C 634.6875 609.5 632.4375 610.125 623.5625 612.375 L 623.0625 613.25 L 623.1875 628.875 L 616.4375 628.625 L 615.6875 629.25 L 614.5625 642.625 L 615.3125 643.375 L 623.1875 643.125 L 622.8125 663 C 622.6875 666.125 622.5625 669.25 622.5625 672.5 C 622.5625 684 622.8125 696.375 642.3125 696.375 C 647.1875 696.375 651.0625 695.625 655.4375 694.875 L 656.3125 694 L 657.5625 681.125 Z M 721.4375 657.75 C 721.5625 646.5 721.5625 641.625 718.3125 636.375 C 715.8125 632.375 710.8125 627.375 694.8125 627.375 C 684.0625 627.375 677.4375 629.375 670.3125 631.5 L 669.5625 632.5 L 668.9375 646.125 L 669.9375 646.625 C 674.3125 644.875 682.4375 641.625 690.8125 641.625 C 695.4375 641.625 697.3125 642.375 698.9375 644 C 700.1875 645.25 700.5625 647.5 700.5625 649.375 C 685.5625 651.375 678.5625 652.75 671.0625 657.375 C 664.0625 661.75 661.6875 668.875 661.6875 674.5 C 661.6875 687.875 671.3125 696.5 683.5625 696.5 C 692.9375 696.5 698.3125 692 700.9375 689.875 L 700.9375 694.5 L 701.6875 695.375 C 710.6875 695 713.4375 694.875 721.5625 695 L 722.1875 694.125 C 721.3125 681.875 721.3125 678.75 721.3125 667 L 721.4375 657.75 M 700.8125 677.625 C 698.1875 679.125 694.8125 680.875 690.6875 680.875 C 686.1875 680.875 682.4375 678.5 682.4375 673.25 C 682.4375 665 692.3125 663.625 700.8125 662.5 Z M 771.0625 680.625 C 768.9375 681.25 767.4375 681.75 765.3125 681.75 C 758.9375 681.75 758.4375 677.75 758.1875 675.875 C 757.8125 672.625 757.8125 665.75 757.9375 660.75 L 758.1875 643.125 L 769.4375 643.625 L 770.1875 642.875 L 771.4375 629.5 L 770.6875 628.75 L 758.1875 628.75 L 758.5625 607.75 L 757.6875 607 C 749.1875 609.5 746.9375 610.125 738.0625 612.375 L 737.5625 613.25 L 737.6875 628.875 L 730.9375 628.625 L 730.1875 629.25 L 729.0625 642.625 L 729.8125 643.375 L 737.6875 643.125 L 737.3125 663 C 737.1875 666.125 737.0625 669.25 737.0625 672.5 C 737.0625 684 737.3125 696.375 756.8125 696.375 C 761.6875 696.375 765.5625 695.625 769.9375 694.875 L 770.8125 694 L 772.0625 681.125 Z M 835.8125 676.5 C 831.0625 679 825.4375 681.875 816.3125 681.875 C 808.8125 681.875 803.6875 679.5 800.6875 675 C 798.8125 672.375 798.4375 669.875 797.9375 667.375 L 838.3125 666.625 L 839.0625 665.75 C 838.9375 659.625 838.8125 653.375 837.0625 647.125 C 832.6875 632.375 823.0625 629.375 818.8125 628.375 C 815.6875 627.5 812.8125 627.25 809.9375 627.25 C 790.3125 627.25 777.3125 640.125 777.3125 661.75 C 777.3125 667.625 778.3125 673.75 780.3125 678.125 C 787.5625 695 804.5625 696.5 813.5625 696.5 C 823.9375 696.5 828.4375 694.625 835.0625 692 L 835.8125 691 L 836.6875 676.875 L 835.8125 676.5 M 797.9375 654.125 C 798.3125 650.25 799.1875 645 803.9375 642 C 805.4375 641 807.1875 640.625 808.9375 640.625 C 813.0625 640.625 815.5625 642.75 816.9375 645 C 818.6875 647.75 818.8125 650.75 818.8125 653.625 Z M 843.0625 695 "/>
<path fill-rule="nonzero" fill="rgb(34.901961%, 14.901961%, 14.901961%)" fill-opacity="1" d="M 196.8125 756.375 C 186.8125 756.75 185.1875 756.75 174.6875 756.75 L 174.0625 757.5 C 174.9375 771.625 174.9375 775.25 175.0625 790 C 169.5625 790.125 164.0625 790.25 158.4375 790.25 C 154.0625 790.25 149.5625 790.125 145.1875 790.125 L 145.4375 757.125 L 144.8125 756.375 C 135.1875 756.75 133.3125 756.75 122.4375 756.75 L 121.6875 757.5 C 122.3125 770.375 123.0625 785.75 123.0625 816.75 C 123.0625 828 122.8125 834.125 122.5625 844.625 L 123.1875 845.375 C 132.3125 845 134.5625 844.875 145.5625 845 L 146.1875 844.25 C 145.4375 828.75 145.3125 824.25 145.1875 806.125 C 150.6875 805.875 155.3125 805.75 160.1875 805.75 C 165.1875 805.75 170.1875 805.875 175.1875 806 C 175.4375 822.875 175.4375 827 174.8125 844.625 L 175.4375 845.375 C 184.8125 845 187.3125 844.875 197.9375 845 L 198.5625 844.25 C 197.5625 823.25 197.1875 802.375 197.1875 781.375 C 197.1875 772.625 197.3125 766.75 197.4375 757.125 Z M 235.6875 844.125 C 235.0625 834.5 234.5625 827.125 234.5625 809.875 C 234.5625 799.25 234.8125 788.5 234.9375 777.875 L 234.0625 776.875 L 212.5625 780.625 L 211.8125 781.375 C 212.8125 790.875 213.1875 795.25 213.1875 813 C 213.1875 826.625 212.8125 834.25 212.4375 844.5 L 213.1875 845.375 C 222.1875 845 224.6875 844.875 234.8125 845 L 235.6875 844.125 M 233.6875 764.875 L 234.0625 747.875 L 233.3125 747.125 L 212.9375 749.625 L 212.1875 750.5 C 212.4375 755 212.5625 757.625 212.5625 760.625 C 212.5625 763 212.5625 765.5 212.4375 767.875 L 213.3125 768.625 C 221.8125 767.125 224.1875 766.875 233.0625 765.75 Z M 275.8125 801.875 C 271.5625 800.375 268.1875 799 268.1875 795.5 C 268.1875 794 269.1875 789.875 276.9375 789.875 C 284.5625 789.875 289.4375 793.125 292.5625 795.125 L 293.6875 794.75 L 294.9375 781.125 L 294.3125 780.375 C 288.4375 778.75 283.3125 777.25 275.1875 777.25 C 269.0625 777.25 256.8125 777.75 250.3125 787.125 C 248.6875 789.375 246.9375 793.125 246.9375 798.125 C 246.9375 811.5 257.3125 815.5 263.1875 817.75 L 267.9375 819.5 C 271.3125 820.625 276.8125 822.5 276.8125 827 C 276.8125 830.125 273.9375 833.5 266.9375 833.5 C 263.4375 833.5 258.3125 832.375 253.6875 830 C 251.5625 828.875 250.5625 828 248.6875 826.5 L 247.5625 827 C 247.3125 833.5 247.1875 834.875 246.6875 841.125 L 247.3125 842.25 C 253.4375 844.5 258.6875 846.5 267.8125 846.5 C 277.3125 846.5 296.0625 844.75 298.3125 826.875 C 298.4375 825.875 298.4375 825 298.4375 824.125 C 298.4375 810.375 288.8125 806.75 281.9375 804.125 Z M 344.4375 830.625 C 342.3125 831.25 340.8125 831.75 338.6875 831.75 C 332.3125 831.75 331.8125 827.75 331.5625 825.875 C 331.1875 822.625 331.1875 815.75 331.3125 810.75 L 331.5625 793.125 L 342.8125 793.625 L 343.5625 792.875 L 344.8125 779.5 L 344.0625 778.75 L 331.5625 778.75 L 331.9375 757.75 L 331.0625 757 C 322.5625 759.5 320.3125 760.125 311.4375 762.375 L 310.9375 763.25 L 311.0625 778.875 L 304.3125 778.625 L 303.5625 779.25 L 302.4375 792.625 L 303.1875 793.375 L 311.0625 793.125 L 310.6875 813 C 310.5625 816.125 310.4375 819.25 310.4375 822.5 C 310.4375 834 310.6875 846.375 330.1875 846.375 C 335.0625 846.375 338.9375 845.625 343.3125 844.875 L 344.1875 844 L 345.4375 831.125 Z M 417.3125 811.75 C 417.3125 806.875 417.3125 786.625 399.8125 779.75 C 394.3125 777.625 387.8125 777.375 384.5625 777.375 C 362.8125 777.375 350.5625 789 350.5625 812 C 350.5625 820 351.8125 828.125 356.4375 834.875 C 359.6875 839.75 365.8125 846.5 383.6875 846.5 C 410.1875 846.5 417.3125 830.5 417.3125 811.75 M 395.6875 811.625 C 395.6875 821.875 394.3125 833.25 383.9375 833.25 C 380.6875 833.25 378.4375 831.75 376.9375 830.375 C 374.8125 828.25 372.4375 824 372.4375 811.875 C 372.4375 808.25 372.4375 800.25 374.9375 795.875 C 376.8125 792.5 380.0625 790.25 384.0625 790.25 C 387.5625 790.25 390.4375 792.125 392.0625 794.125 C 395.0625 797.75 395.6875 804.875 395.6875 811.625 Z M 465.3125 798.625 L 468.8125 778.25 L 468.0625 777.375 C 467.1875 777.375 466.3125 777.25 465.4375 777.25 C 460.3125 777.25 454.5625 780.125 450.5625 789.375 L 450.9375 777.875 L 449.9375 776.875 C 440.6875 778.875 438.3125 779.25 429.1875 780.625 L 428.4375 781.375 C 429.1875 790.75 429.5625 796.375 429.5625 813.75 C 429.5625 824 429.4375 834.25 429.1875 844.625 L 429.9375 845.375 C 439.1875 845 441.1875 844.875 451.1875 845 L 451.8125 844.125 C 451.3125 834 450.5625 819.875 450.5625 811.25 C 450.5625 805.625 450.5625 797.375 459.0625 797.375 C 461.1875 797.375 462.4375 798.125 464.1875 799.125 Z M 498.6875 844.125 C 498.0625 834.5 497.5625 827.125 497.5625 809.875 C 497.5625 799.25 497.8125 788.5 497.9375 777.875 L 497.0625 776.875 L 475.5625 780.625 L 474.8125 781.375 C 475.8125 790.875 476.1875 795.25 476.1875 813 C 476.1875 826.625 475.8125 834.25 475.4375 844.5 L 476.1875 845.375 C 485.1875 845 487.6875 844.875 497.8125 845 L 498.6875 844.125 M 496.6875 764.875 L 497.0625 747.875 L 496.3125 747.125 L 475.9375 749.625 L 475.1875 750.5 C 475.4375 755 475.5625 757.625 475.5625 760.625 C 475.5625 763 475.5625 765.5 475.4375 767.875 L 476.3125 768.625 C 484.8125 767.125 487.1875 766.875 496.0625 765.75 Z M 561.4375 827 C 558.0625 829 554.8125 831 548.4375 831 C 534.3125 831 531.4375 819.25 531.4375 811.75 C 531.4375 802.625 535.4375 792.125 547.5625 792.125 C 553.0625 792.125 556.0625 794.125 559.8125 796.625 L 561.0625 796.25 C 561.5625 789.625 561.6875 787.875 562.6875 781.25 L 562.0625 780.5 C 556.5625 778.75 551.8125 777.25 544.5625 777.25 C 515.1875 777.25 509.4375 799.5 509.4375 812.25 C 509.4375 826.625 516.9375 846.125 545.0625 846.125 C 551.6875 846.125 555.9375 844.875 561.1875 843.375 L 561.9375 842.625 L 562.4375 827.625 Z M 625.6875 756.5 L 609.8125 756.75 L 609.0625 757.5 C 609.5625 773.75 609.9375 784.625 609.9375 799 C 609.9375 814.25 609.5625 829.375 609.1875 844.625 L 609.9375 845.375 C 619.1875 845 621.1875 844.875 631.1875 845 L 631.8125 844.25 C 631.3125 830.625 631.3125 827.5 631.3125 814.75 C 645.3125 814.875 660.3125 814.875 669.3125 803.875 C 672.8125 799.625 675.8125 792.5 675.8125 783.75 C 675.8125 778.375 674.5625 766.5 664.1875 760.625 C 656.6875 756.25 646.0625 756.25 636.6875 756.25 L 625.6875 756.5 M 631.3125 771.625 C 634.0625 771.5 636.6875 771.5 639.4375 771.5 C 650.4375 771.75 653.4375 777.375 653.4375 784.625 C 653.4375 786.375 653.4375 793.625 646.8125 797.25 C 643.4375 799.125 638.8125 799.375 631.3125 799.375 Z M 740.0625 807.75 C 740.1875 796.5 740.1875 791.625 736.9375 786.375 C 734.4375 782.375 729.4375 777.375 713.4375 777.375 C 702.6875 777.375 696.0625 779.375 688.9375 781.5 L 688.1875 782.5 L 687.5625 796.125 L 688.5625 796.625 C 692.9375 794.875 701.0625 791.625 709.4375 791.625 C 714.0625 791.625 715.9375 792.375 717.5625 794 C 718.8125 795.25 719.1875 797.5 719.1875 799.375 C 704.1875 801.375 697.1875 802.75 689.6875 807.375 C 682.6875 811.75 680.3125 818.875 680.3125 824.5 C 680.3125 837.875 689.9375 846.5 702.1875 846.5 C 711.5625 846.5 716.9375 842 719.5625 839.875 L 719.5625 844.5 L 720.3125 845.375 C 729.3125 845 732.0625 844.875 740.1875 845 L 740.8125 844.125 C 739.9375 831.875 739.9375 828.75 739.9375 817 L 740.0625 807.75 M 719.4375 827.625 C 716.8125 829.125 713.4375 830.875 709.3125 830.875 C 704.8125 830.875 701.0625 828.5 701.0625 823.25 C 701.0625 815 710.9375 813.625 719.4375 812.5 Z M 790.8125 798.625 L 794.3125 778.25 L 793.5625 777.375 C 792.6875 777.375 791.8125 777.25 790.9375 777.25 C 785.8125 777.25 780.0625 780.125 776.0625 789.375 L 776.4375 777.875 L 775.4375 776.875 C 766.1875 778.875 763.8125 779.25 754.6875 780.625 L 753.9375 781.375 C 754.6875 790.75 755.0625 796.375 755.0625 813.75 C 755.0625 824 754.9375 834.25 754.6875 844.625 L 755.4375 845.375 C 764.6875 845 766.6875 844.875 776.6875 845 L 777.3125 844.125 C 776.8125 834 776.0625 819.875 776.0625 811.25 C 776.0625 805.625 776.0625 797.375 784.5625 797.375 C 786.6875 797.375 787.9375 798.125 789.6875 799.125 Z M 865.8125 843.375 C 854.0625 823.5 852.8125 821.25 843.3125 804.125 C 851.9375 792.375 852.8125 791.125 861.6875 779.75 L 861.0625 778.5 L 840.6875 778.75 L 839.4375 779.625 C 829.6875 796.5 828.4375 798.5 822.6875 807.125 L 822.6875 793.25 C 822.8125 769.875 822.9375 764.875 823.5625 746 L 822.5625 745.25 L 800.8125 748.5 L 800.0625 749.375 C 800.9375 761.5 801.3125 767.375 801.5625 783.75 C 801.8125 804 801.8125 824.25 801.6875 844.5 L 802.5625 845.375 C 810.9375 845 813.3125 845 822.8125 845 L 823.5625 844.125 L 822.8125 823 L 822.6875 808.625 C 833.5625 828.625 834.9375 831.375 841.3125 844.625 L 842.4375 845.375 L 864.9375 844.5 Z M 864.3125 845 "/>
</svg>
