<?xml version="1.0" encoding="UTF-8"?>
<svg xmlns="http://www.w3.org/2000/svg" xmlns:xlink="http://www.w3.org/1999/xlink" width="975" height="1300" viewBox="0 0 975 1300">
<path fill-rule="nonzero" fill="rgb(34.901961%, 14.901961%, 14.901961%)" fill-opacity="1" d="M 286.875 469.25 C 291.5 446.5 293.5 437 306.75 382.125 L 306.125 381.375 C 297.25 381.75 295.5 381.75 287.125 381.75 L 286.375 382.5 C 284.375 395.375 283.75 399.75 281 414.125 L 277.375 433.25 L 273.375 454.75 C 271.5 440.75 270.875 436.5 268.375 422 L 264.75 401 L 261.625 381.75 L 260.875 380.875 L 236.125 381.5 L 235.375 382.25 L 230.375 411 L 225.5 436.625 L 222.375 453.875 C 220.875 443 220.375 439.375 217.75 424.25 L 214.5 406 L 210.375 381.25 L 209.625 380.625 C 198.875 381.375 197.125 381.375 188 381.625 L 187.375 382.5 C 196.5 423.875 198.5 433.375 205.25 469.625 L 206 470.375 C 218.625 469.875 222 469.875 234.25 470 L 235.125 469.25 L 237.75 453.75 L 241.875 430.875 L 246.375 404.125 C 247.875 416.375 248.25 419.5 250.5 433 L 253.625 452.5 L 256.25 469.625 L 256.875 470.375 C 268.875 470 273 469.875 286.25 470 Z M 376.875 436.75 C 376.875 431.875 376.875 411.625 359.375 404.75 C 353.875 402.625 347.375 402.375 344.125 402.375 C 322.375 402.375 310.125 414 310.125 437 C 310.125 445 311.375 453.125 316 459.875 C 319.25 464.75 325.375 471.5 343.25 471.5 C 369.75 471.5 376.875 455.5 376.875 436.75 M 355.25 436.625 C 355.25 446.875 353.875 458.25 343.5 458.25 C 340.25 458.25 338 456.75 336.5 455.375 C 334.375 453.25 332 449 332 436.875 C 332 433.25 332 425.25 334.5 420.875 C 336.375 417.5 339.625 415.25 343.625 415.25 C 347.125 415.25 350 417.125 351.625 419.125 C 354.625 422.75 355.25 429.875 355.25 436.625 Z M 452.375 436.75 C 452.375 431.875 452.375 411.625 434.875 404.75 C 429.375 402.625 422.875 402.375 419.625 402.375 C 397.875 402.375 385.625 414 385.625 437 C 385.625 445 386.875 453.125 391.5 459.875 C 394.75 464.75 400.875 471.5 418.75 471.5 C 445.25 471.5 452.375 455.5 452.375 436.75 M 430.75 436.625 C 430.75 446.875 429.375 458.25 419 458.25 C 415.75 458.25 413.5 456.75 412 455.375 C 409.875 453.25 407.5 449 407.5 436.875 C 407.5 433.25 407.5 425.25 410 420.875 C 411.875 417.5 415.125 415.25 419.125 415.25 C 422.625 415.25 425.5 417.125 427.125 419.125 C 430.125 422.75 430.75 429.875 430.75 436.625 Z M 525.5 469.25 C 525 458 524.625 450.5 524.625 434.125 C 524.625 401.125 525.125 387.5 525.625 371 L 524.75 370.25 L 504.125 373.5 L 503.5 374.25 C 504.25 386 504.375 389.125 504.25 403.375 C 494.875 403.125 483.125 402.875 473.625 410.375 C 464.875 417.125 461.25 427.5 461.25 440.375 C 461.25 450.125 463.875 459.875 471.25 466 C 476.75 470.5 483.5 471.5 487.625 471.5 C 496.5 471.5 501.125 467.375 504.125 464.75 L 503.875 469.625 L 504.5 470.375 C 513.125 470 515.5 470 524.875 470 L 525.5 469.25 M 504.25 418.375 C 504.375 435 504.25 438.25 503.875 453.375 C 501.375 454.875 498.875 456.375 495.375 456.375 C 483.25 456.375 483.25 440.875 483.25 438.375 C 483.25 428.75 486 418 500 418 C 501.375 418 502.5 418.125 504.25 418.375 Z M 561.75 469.125 C 561.125 454.75 560.5 441.625 560.5 402.125 C 560.5 390.25 560.625 384.625 561.125 371.125 L 560.25 370.25 L 538.875 373.625 L 538.375 374.375 C 539.625 389.625 539.75 393.75 540 414 C 540.125 421.375 540.125 428.75 540.125 436.125 C 540.125 449.625 539.875 457.125 539.375 469.5 L 540.125 470.375 C 548.5 470 551.875 469.875 561 470 Z M 631.875 432.75 C 632 421.5 632 416.625 628.75 411.375 C 626.25 407.375 621.25 402.375 605.25 402.375 C 594.5 402.375 587.875 404.375 580.75 406.5 L 580 407.5 L 579.375 421.125 L 580.375 421.625 C 584.75 419.875 592.875 416.625 601.25 416.625 C 605.875 416.625 607.75 417.375 609.375 419 C 610.625 420.25 611 422.5 611 424.375 C 596 426.375 589 427.75 581.5 432.375 C 574.5 436.75 572.125 443.875 572.125 449.5 C 572.125 462.875 581.75 471.5 594 471.5 C 603.375 471.5 608.75 467 611.375 464.875 L 611.375 469.5 L 612.125 470.375 C 621.125 470 623.875 469.875 632 470 L 632.625 469.125 C 631.75 456.875 631.75 453.75 631.75 442 L 631.875 432.75 M 611.25 452.625 C 608.625 454.125 605.25 455.875 601.125 455.875 C 596.625 455.875 592.875 453.5 592.875 448.25 C 592.875 440 602.75 438.625 611.25 437.5 Z M 707.75 469.125 C 707.125 458.125 707.125 454.625 706.875 442.375 L 706.875 432.625 C 706.75 420.625 706.625 414.875 703.5 409.75 C 699.625 403.25 692.5 402.25 688 402.25 C 680.375 402.25 673.75 406.25 668 409.625 L 668.25 402.75 L 667 401.875 C 657.375 403.875 655.25 404.25 645.875 405.5 L 645.125 406.375 C 646.125 417.25 646.875 425.125 646.875 445.5 C 646.875 453.5 646.75 461.5 646.625 469.5 L 647.375 470.25 C 656.375 469.875 658.25 469.875 668.25 469.875 L 669 469.125 C 668.25 449.875 668.125 445 668 422.625 C 670.625 420.875 673.625 418.75 677.625 418.75 C 684.5 418.75 685.125 426.125 685.5 430.625 C 685.75 434.75 685.875 451.875 685.875 456.625 C 685.875 460.875 685.75 465.25 685.75 469.5 L 686.5 470.25 C 694.75 470 696.875 469.875 706.875 469.875 Z M 783.25 469.25 C 782.75 458 782.375 450.5 782.375 434.125 C 782.375 401.125 782.875 387.5 783.375 371 L 782.5 370.25 L 761.875 373.5 L 761.25 374.25 C 762 386 762.125 389.125 762 403.375 C 752.625 403.125 740.875 402.875 731.375 410.375 C 722.625 417.125 719 427.5 719 440.375 C 719 450.125 721.625 459.875 729 466 C 734.5 470.5 741.25 471.5 745.375 471.5 C 754.25 471.5 758.875 467.375 761.875 464.75 L 761.625 469.625 L 762.25 470.375 C 770.875 470 773.25 470 782.625 470 L 783.25 469.25 M 762 418.375 C 762.125 435 762 438.25 761.625 453.375 C 759.125 454.875 756.625 456.375 753.125 456.375 C 741 456.375 741 440.875 741 438.375 C 741 428.75 743.75 418 757.75 418 C 759.125 418 760.25 418.125 762 418.375 Z M 790 470 "/>
<path fill-rule="nonzero" fill="rgb(34.901961%, 14.901961%, 14.901961%)" fill-opacity="1" d="M 187.5625 543.25 C 185.4375 540.5 182.9375 538.125 180.0625 536.25 C 173.6875 532 164.9375 529.875 156.1875 529.875 C 148.4375 529.875 140.5625 531.25 133.8125 535.125 C 118.5625 543.875 115.8125 558.375 114.8125 563.625 C 114.0625 567.875 113.6875 572.125 113.6875 576.375 C 113.6875 584.875 114.6875 600.875 126.4375 611.75 C 135.9375 620.625 148.9375 621.875 155.3125 621.875 C 164.9375 621.875 174.6875 619.625 182.0625 613.5 C 194.4375 603.25 196.9375 586.25 196.9375 575.625 C 196.9375 556 190.6875 547.125 187.5625 543.25 M 167.8125 551.25 C 170.3125 554.125 171.4375 557.75 172.1875 561.375 C 173.1875 566.125 173.4375 570.625 173.5625 573.75 C 174.0625 592.5 170.0625 606 155.5625 606 C 138.1875 606 137.0625 585.75 137.0625 574.5 C 137.0625 559.5 140.6875 551.75 146.5625 548 C 149.9375 546 153.3125 545.5 155.6875 545.5 C 160.4375 545.5 164.8125 547.625 167.8125 551.25 Z M 230.4375 553.125 L 229.4375 552 C 220.3125 554 217.6875 554.5 208.6875 555.625 L 207.9375 556.5 C 209.3125 571.375 209.8125 577.125 209.8125 613.125 C 209.8125 628 209.5625 636.5 209.1875 650.625 L 209.9375 651.25 C 218.8125 650.875 221.4375 650.75 230.9375 650.875 L 231.6875 650.25 L 230.8125 620.5 C 239.9375 620.375 252.5625 620.25 262.6875 610.75 C 270.6875 603.25 273.3125 592.625 273.3125 584.125 C 273.3125 564.25 261.1875 552.25 247.1875 552.25 C 238.5625 552.25 233.6875 555.75 230.1875 558.125 L 230.4375 553.125 M 230.6875 570.125 C 233.4375 568.5 235.0625 567.625 238.1875 567.625 C 240.0625 567.625 243.8125 567.875 246.9375 571.375 C 250.8125 575.625 251.4375 582 251.4375 586.25 C 251.4375 593.5 249.0625 600 244.0625 603.5 C 240.0625 606.25 235.0625 606.5 230.6875 606.625 Z M 340.6875 601.5 C 335.9375 604 330.3125 606.875 321.1875 606.875 C 313.6875 606.875 308.5625 604.5 305.5625 600 C 303.6875 597.375 303.3125 594.875 302.8125 592.375 L 343.1875 591.625 L 343.9375 590.75 C 343.8125 584.625 343.6875 578.375 341.9375 572.125 C 337.5625 557.375 327.9375 554.375 323.6875 553.375 C 320.5625 552.5 317.6875 552.25 314.8125 552.25 C 295.1875 552.25 282.1875 565.125 282.1875 586.75 C 282.1875 592.625 283.1875 598.75 285.1875 603.125 C 292.4375 620 309.4375 621.5 318.4375 621.5 C 328.8125 621.5 333.3125 619.625 339.9375 617 L 340.6875 616 L 341.5625 601.875 L 340.6875 601.5 M 302.8125 579.125 C 303.1875 575.25 304.0625 570 308.8125 567 C 310.3125 566 312.0625 565.625 313.8125 565.625 C 317.9375 565.625 320.4375 567.75 321.8125 570 C 323.5625 572.75 323.6875 575.75 323.6875 578.625 Z M 391.5625 573.625 L 395.0625 553.25 L 394.3125 552.375 C 393.4375 552.375 392.5625 552.25 391.6875 552.25 C 386.5625 552.25 380.8125 555.125 376.8125 564.375 L 377.1875 552.875 L 376.1875 551.875 C 366.9375 553.875 364.5625 554.25 355.4375 555.625 L 354.6875 556.375 C 355.4375 565.75 355.8125 571.375 355.8125 588.75 C 355.8125 599 355.6875 609.25 355.4375 619.625 L 356.1875 620.375 C 365.4375 620 367.4375 619.875 377.4375 620 L 378.0625 619.125 C 377.5625 609 376.8125 594.875 376.8125 586.25 C 376.8125 580.625 376.8125 572.375 385.3125 572.375 C 387.4375 572.375 388.6875 573.125 390.4375 574.125 Z M 457.9375 582.75 C 458.0625 571.5 458.0625 566.625 454.8125 561.375 C 452.3125 557.375 447.3125 552.375 431.3125 552.375 C 420.5625 552.375 413.9375 554.375 406.8125 556.5 L 406.0625 557.5 L 405.4375 571.125 L 406.4375 571.625 C 410.8125 569.875 418.9375 566.625 427.3125 566.625 C 431.9375 566.625 433.8125 567.375 435.4375 569 C 436.6875 570.25 437.0625 572.5 437.0625 574.375 C 422.0625 576.375 415.0625 577.75 407.5625 582.375 C 400.5625 586.75 398.1875 593.875 398.1875 599.5 C 398.1875 612.875 407.8125 621.5 420.0625 621.5 C 429.4375 621.5 434.8125 617 437.4375 614.875 L 437.4375 619.5 L 438.1875 620.375 C 447.1875 620 449.9375 619.875 458.0625 620 L 458.6875 619.125 C 457.8125 606.875 457.8125 603.75 457.8125 592 L 457.9375 582.75 M 437.3125 602.625 C 434.6875 604.125 431.3125 605.875 427.1875 605.875 C 422.6875 605.875 418.9375 603.5 418.9375 598.25 C 418.9375 590 428.8125 588.625 437.3125 587.5 Z M 583.9375 531.375 C 573.9375 531.75 572.3125 531.75 561.8125 531.75 L 561.1875 532.5 C 562.0625 546.625 562.0625 550.25 562.1875 565 C 556.6875 565.125 551.1875 565.25 545.5625 565.25 C 541.1875 565.25 536.6875 565.125 532.3125 565.125 L 532.5625 532.125 L 531.9375 531.375 C 522.3125 531.75 520.4375 531.75 509.5625 531.75 L 508.8125 532.5 C 509.4375 545.375 510.1875 560.75 510.1875 591.75 C 510.1875 603 509.9375 609.125 509.6875 619.625 L 510.3125 620.375 C 519.4375 620 521.6875 619.875 532.6875 620 L 533.3125 619.25 C 532.5625 603.75 532.4375 599.25 532.3125 581.125 C 537.8125 580.875 542.4375 580.75 547.3125 580.75 C 552.3125 580.75 557.3125 580.875 562.3125 581 C 562.5625 597.875 562.5625 602 561.9375 619.625 L 562.5625 620.375 C 571.9375 620 574.4375 619.875 585.0625 620 L 585.6875 619.25 C 584.6875 598.25 584.3125 577.375 584.3125 556.375 C 584.3125 547.625 584.4375 541.75 584.5625 532.125 Z M 663.8125 586.75 C 663.8125 581.875 663.8125 561.625 646.3125 554.75 C 640.8125 552.625 634.3125 552.375 631.0625 552.375 C 609.3125 552.375 597.0625 564 597.0625 587 C 597.0625 595 598.3125 603.125 602.9375 609.875 C 606.1875 614.75 612.3125 621.5 630.1875 621.5 C 656.6875 621.5 663.8125 605.5 663.8125 586.75 M 642.1875 586.625 C 642.1875 596.875 640.8125 608.25 630.4375 608.25 C 627.1875 608.25 624.9375 606.75 623.4375 605.375 C 621.3125 603.25 618.9375 599 618.9375 586.875 C 618.9375 583.25 618.9375 575.25 621.4375 570.875 C 623.3125 567.5 626.5625 565.25 630.5625 565.25 C 634.0625 565.25 636.9375 567.125 638.5625 569.125 C 641.5625 572.75 642.1875 579.875 642.1875 586.625 Z M 735.6875 553.125 L 715.3125 554.125 L 714.4375 554.875 C 715.3125 569 715.3125 589 715.3125 591 C 715.3125 594.625 715.3125 596.625 715.1875 601.625 C 711.8125 603.875 709.1875 605.75 705.8125 605.75 C 696.8125 605.75 696.8125 596.25 696.8125 588.875 C 696.8125 585.75 696.8125 582.5 696.9375 579.375 L 697.1875 554.125 L 696.3125 553.125 L 675.6875 554.125 L 674.8125 554.875 C 675.5625 565.375 675.6875 568.875 675.6875 581.5 L 675.6875 590.25 C 675.5625 603.875 676.1875 609.625 680.6875 614.875 C 684.8125 619.5 690.8125 621.5 697.0625 621.5 C 705.9375 621.5 711.0625 617.5 715.5625 614 L 715.4375 619.625 L 716.3125 620.375 C 725.4375 620 728.1875 620 736.3125 620 L 737.0625 619.25 C 736.4375 610.375 736.1875 605.625 736.1875 589.375 C 736.1875 577.625 736.3125 565.875 736.5625 554.125 Z M 777.4375 576.875 C 773.1875 575.375 769.8125 574 769.8125 570.5 C 769.8125 569 770.8125 564.875 778.5625 564.875 C 786.1875 564.875 791.0625 568.125 794.1875 570.125 L 795.3125 569.75 L 796.5625 556.125 L 795.9375 555.375 C 790.0625 553.75 784.9375 552.25 776.8125 552.25 C 770.6875 552.25 758.4375 552.75 751.9375 562.125 C 750.3125 564.375 748.5625 568.125 748.5625 573.125 C 748.5625 586.5 758.9375 590.5 764.8125 592.75 L 769.5625 594.5 C 772.9375 595.625 778.4375 597.5 778.4375 602 C 778.4375 605.125 775.5625 608.5 768.5625 608.5 C 765.0625 608.5 759.9375 607.375 755.3125 605 C 753.1875 603.875 752.1875 603 750.3125 601.5 L 749.1875 602 C 748.9375 608.5 748.8125 609.875 748.3125 616.125 L 748.9375 617.25 C 755.0625 619.5 760.3125 621.5 769.4375 621.5 C 778.9375 621.5 797.6875 619.75 799.9375 601.875 C 800.0625 600.875 800.0625 600 800.0625 599.125 C 800.0625 585.375 790.4375 581.75 783.5625 579.125 Z M 866.5625 601.5 C 861.8125 604 856.1875 606.875 847.0625 606.875 C 839.5625 606.875 834.4375 604.5 831.4375 600 C 829.5625 597.375 829.1875 594.875 828.6875 592.375 L 869.0625 591.625 L 869.8125 590.75 C 869.6875 584.625 869.5625 578.375 867.8125 572.125 C 863.4375 557.375 853.8125 554.375 849.5625 553.375 C 846.4375 552.5 843.5625 552.25 840.6875 552.25 C 821.0625 552.25 808.0625 565.125 808.0625 586.75 C 808.0625 592.625 809.0625 598.75 811.0625 603.125 C 818.3125 620 835.3125 621.5 844.3125 621.5 C 854.6875 621.5 859.1875 619.625 865.8125 617 L 866.5625 616 L 867.4375 601.875 L 866.5625 601.5 M 828.6875 579.125 C 829.0625 575.25 829.9375 570 834.6875 567 C 836.1875 566 837.9375 565.625 839.6875 565.625 C 843.8125 565.625 846.3125 567.75 847.6875 570 C 849.4375 572.75 849.5625 575.75 849.5625 578.625 Z M 873.8125 620 "/>
<path fill-rule="nonzero" fill="rgb(34.901961%, 14.901961%, 14.901961%)" fill-opacity="1" d="M 140.9375 716.25 C 130.4375 711.875 124.9375 709.625 124.9375 704 C 124.9375 700.125 128.5625 695.25 136.8125 695.25 C 146.3125 695.25 151.9375 699.125 156.5625 702.25 L 157.6875 701.75 L 158.6875 685.375 L 158.0625 684.5 C 152.6875 682.25 147.0625 679.875 134.9375 679.875 C 111.4375 679.875 103.3125 693.125 103.3125 706.5 C 103.3125 721.625 115.0625 727.125 122.0625 730.5 L 126.1875 732.375 C 134.8125 736 141.4375 739.125 141.4375 745.75 C 141.4375 750.5 137.3125 756.125 126.4375 756.125 C 115.0625 756.125 108.6875 751.125 105.0625 748.25 L 103.8125 748.625 L 102.9375 766.25 L 103.6875 767.25 C 105.0625 767.75 106.4375 768.375 107.8125 768.75 C 110.6875 769.75 118.0625 771.875 127.4375 771.875 C 131.1875 771.875 140.6875 771.5 148.1875 768 C 158.6875 762.875 163.1875 753.375 163.1875 742.75 C 163.1875 735.625 160.4375 728 153.8125 722.875 C 150.4375 720.375 147.1875 718.875 144.1875 717.5 Z M 210.0625 755.625 C 207.9375 756.25 206.4375 756.75 204.3125 756.75 C 197.9375 756.75 197.4375 752.75 197.1875 750.875 C 196.8125 747.625 196.8125 740.75 196.9375 735.75 L 197.1875 718.125 L 208.4375 718.625 L 209.1875 717.875 L 210.4375 704.5 L 209.6875 703.75 L 197.1875 703.75 L 197.5625 682.75 L 196.6875 682 C 188.1875 684.5 185.9375 685.125 177.0625 687.375 L 176.5625 688.25 L 176.6875 703.875 L 169.9375 703.625 L 169.1875 704.25 L 168.0625 717.625 L 168.8125 718.375 L 176.6875 718.125 L 176.3125 738 C 176.1875 741.125 176.0625 744.25 176.0625 747.5 C 176.0625 759 176.3125 771.375 195.8125 771.375 C 200.6875 771.375 204.5625 770.625 208.9375 769.875 L 209.8125 769 L 211.0625 756.125 Z M 274.9375 732.75 C 275.0625 721.5 275.0625 716.625 271.8125 711.375 C 269.3125 707.375 264.3125 702.375 248.3125 702.375 C 237.5625 702.375 230.9375 704.375 223.8125 706.5 L 223.0625 707.5 L 222.4375 721.125 L 223.4375 721.625 C 227.8125 719.875 235.9375 716.625 244.3125 716.625 C 248.9375 716.625 250.8125 717.375 252.4375 719 C 253.6875 720.25 254.0625 722.5 254.0625 724.375 C 239.0625 726.375 232.0625 727.75 224.5625 732.375 C 217.5625 736.75 215.1875 743.875 215.1875 749.5 C 215.1875 762.875 224.8125 771.5 237.0625 771.5 C 246.4375 771.5 251.8125 767 254.4375 764.875 L 254.4375 769.5 L 255.1875 770.375 C 264.1875 770 266.9375 769.875 275.0625 770 L 275.6875 769.125 C 274.8125 756.875 274.8125 753.75 274.8125 742 L 274.9375 732.75 M 254.3125 752.625 C 251.6875 754.125 248.3125 755.875 244.1875 755.875 C 239.6875 755.875 235.9375 753.5 235.9375 748.25 C 235.9375 740 245.8125 738.625 254.3125 737.5 Z M 324.5625 755.625 C 322.4375 756.25 320.9375 756.75 318.8125 756.75 C 312.4375 756.75 311.9375 752.75 311.6875 750.875 C 311.3125 747.625 311.3125 740.75 311.4375 735.75 L 311.6875 718.125 L 322.9375 718.625 L 323.6875 717.875 L 324.9375 704.5 L 324.1875 703.75 L 311.6875 703.75 L 312.0625 682.75 L 311.1875 682 C 302.6875 684.5 300.4375 685.125 291.5625 687.375 L 291.0625 688.25 L 291.1875 703.875 L 284.4375 703.625 L 283.6875 704.25 L 282.5625 717.625 L 283.3125 718.375 L 291.1875 718.125 L 290.8125 738 C 290.6875 741.125 290.5625 744.25 290.5625 747.5 C 290.5625 759 290.8125 771.375 310.3125 771.375 C 315.1875 771.375 319.0625 770.625 323.4375 769.875 L 324.3125 769 L 325.5625 756.125 Z M 389.3125 751.5 C 384.5625 754 378.9375 756.875 369.8125 756.875 C 362.3125 756.875 357.1875 754.5 354.1875 750 C 352.3125 747.375 351.9375 744.875 351.4375 742.375 L 391.8125 741.625 L 392.5625 740.75 C 392.4375 734.625 392.3125 728.375 390.5625 722.125 C 386.1875 707.375 376.5625 704.375 372.3125 703.375 C 369.1875 702.5 366.3125 702.25 363.4375 702.25 C 343.8125 702.25 330.8125 715.125 330.8125 736.75 C 330.8125 742.625 331.8125 748.75 333.8125 753.125 C 341.0625 770 358.0625 771.5 367.0625 771.5 C 377.4375 771.5 381.9375 769.625 388.5625 767 L 389.3125 766 L 390.1875 751.875 L 389.3125 751.5 M 351.4375 729.125 C 351.8125 725.25 352.6875 720 357.4375 717 C 358.9375 716 360.6875 715.625 362.4375 715.625 C 366.5625 715.625 369.0625 717.75 370.4375 720 C 372.1875 722.75 372.3125 725.75 372.3125 728.625 Z M 515.4375 681.375 C 505.4375 681.75 503.8125 681.75 493.3125 681.75 L 492.6875 682.5 C 493.5625 696.625 493.5625 700.25 493.6875 715 C 488.1875 715.125 482.6875 715.25 477.0625 715.25 C 472.6875 715.25 468.1875 715.125 463.8125 715.125 L 464.0625 682.125 L 463.4375 681.375 C 453.8125 681.75 451.9375 681.75 441.0625 681.75 L 440.3125 682.5 C 440.9375 695.375 441.6875 710.75 441.6875 741.75 C 441.6875 753 441.4375 759.125 441.1875 769.625 L 441.8125 770.375 C 450.9375 770 453.1875 769.875 464.1875 770 L 464.8125 769.25 C 464.0625 753.75 463.9375 749.25 463.8125 731.125 C 469.3125 730.875 473.9375 730.75 478.8125 730.75 C 483.8125 730.75 488.8125 730.875 493.8125 731 C 494.0625 747.875 494.0625 752 493.4375 769.625 L 494.0625 770.375 C 503.4375 770 505.9375 769.875 516.5625 770 L 517.1875 769.25 C 516.1875 748.25 515.8125 727.375 515.8125 706.375 C 515.8125 697.625 515.9375 691.75 516.0625 682.125 Z M 554.3125 769.125 C 553.6875 759.5 553.1875 752.125 553.1875 734.875 C 553.1875 724.25 553.4375 713.5 553.5625 702.875 L 552.6875 701.875 L 531.1875 705.625 L 530.4375 706.375 C 531.4375 715.875 531.8125 720.25 531.8125 738 C 531.8125 751.625 531.4375 759.25 531.0625 769.5 L 531.8125 770.375 C 540.8125 770 543.3125 769.875 553.4375 770 L 554.3125 769.125 M 552.3125 689.875 L 552.6875 672.875 L 551.9375 672.125 L 531.5625 674.625 L 530.8125 675.5 C 531.0625 680 531.1875 682.625 531.1875 685.625 C 531.1875 688 531.1875 690.5 531.0625 692.875 L 531.9375 693.625 C 540.4375 692.125 542.8125 691.875 551.6875 690.75 Z M 594.4375 726.875 C 590.1875 725.375 586.8125 724 586.8125 720.5 C 586.8125 719 587.8125 714.875 595.5625 714.875 C 603.1875 714.875 608.0625 718.125 611.1875 720.125 L 612.3125 719.75 L 613.5625 706.125 L 612.9375 705.375 C 607.0625 703.75 601.9375 702.25 593.8125 702.25 C 587.6875 702.25 575.4375 702.75 568.9375 712.125 C 567.3125 714.375 565.5625 718.125 565.5625 723.125 C 565.5625 736.5 575.9375 740.5 581.8125 742.75 L 586.5625 744.5 C 589.9375 745.625 595.4375 747.5 595.4375 752 C 595.4375 755.125 592.5625 758.5 585.5625 758.5 C 582.0625 758.5 576.9375 757.375 572.3125 755 C 570.1875 753.875 569.1875 753 567.3125 751.5 L 566.1875 752 C 565.9375 758.5 565.8125 759.875 565.3125 766.125 L 565.9375 767.25 C 572.0625 769.5 577.3125 771.5 586.4375 771.5 C 595.9375 771.5 614.6875 769.75 616.9375 751.875 C 617.0625 750.875 617.0625 750 617.0625 749.125 C 617.0625 735.375 607.4375 731.75 600.5625 729.125 Z M 663.0625 755.625 C 660.9375 756.25 659.4375 756.75 657.3125 756.75 C 650.9375 756.75 650.4375 752.75 650.1875 750.875 C 649.8125 747.625 649.8125 740.75 649.9375 735.75 L 650.1875 718.125 L 661.4375 718.625 L 662.1875 717.875 L 663.4375 704.5 L 662.6875 703.75 L 650.1875 703.75 L 650.5625 682.75 L 649.6875 682 C 641.1875 684.5 638.9375 685.125 630.0625 687.375 L 629.5625 688.25 L 629.6875 703.875 L 622.9375 703.625 L 622.1875 704.25 L 621.0625 717.625 L 621.8125 718.375 L 629.6875 718.125 L 629.3125 738 C 629.1875 741.125 629.0625 744.25 629.0625 747.5 C 629.0625 759 629.3125 771.375 648.8125 771.375 C 653.6875 771.375 657.5625 770.625 661.9375 769.875 L 662.8125 769 L 664.0625 756.125 Z M 735.9375 736.75 C 735.9375 731.875 735.9375 711.625 718.4375 704.75 C 712.9375 702.625 706.4375 702.375 703.1875 702.375 C 681.4375 702.375 669.1875 714 669.1875 737 C 669.1875 745 670.4375 753.125 675.0625 759.875 C 678.3125 764.75 684.4375 771.5 702.3125 771.5 C 728.8125 771.5 735.9375 755.5 735.9375 736.75 M 714.3125 736.625 C 714.3125 746.875 712.9375 758.25 702.5625 758.25 C 699.3125 758.25 697.0625 756.75 695.5625 755.375 C 693.4375 753.25 691.0625 749 691.0625 736.875 C 691.0625 733.25 691.0625 725.25 693.5625 720.875 C 695.4375 717.5 698.6875 715.25 702.6875 715.25 C 706.1875 715.25 709.0625 717.125 710.6875 719.125 C 713.6875 722.75 714.3125 729.875 714.3125 736.625 Z M 783.9375 723.625 L 787.4375 703.25 L 786.6875 702.375 C 785.8125 702.375 784.9375 702.25 784.0625 702.25 C 778.9375 702.25 773.1875 705.125 769.1875 714.375 L 769.5625 702.875 L 768.5625 701.875 C 759.3125 703.875 756.9375 704.25 747.8125 705.625 L 747.0625 706.375 C 747.8125 715.75 748.1875 721.375 748.1875 738.75 C 748.1875 749 748.0625 759.25 747.8125 769.625 L 748.5625 770.375 C 757.8125 770 759.8125 769.875 769.8125 770 L 770.4375 769.125 C 769.9375 759 769.1875 744.875 769.1875 736.25 C 769.1875 730.625 769.1875 722.375 777.6875 722.375 C 779.8125 722.375 781.0625 723.125 782.8125 724.125 Z M 817.3125 769.125 C 816.6875 759.5 816.1875 752.125 816.1875 734.875 C 816.1875 724.25 816.4375 713.5 816.5625 702.875 L 815.6875 701.875 L 794.1875 705.625 L 793.4375 706.375 C 794.4375 715.875 794.8125 720.25 794.8125 738 C 794.8125 751.625 794.4375 759.25 794.0625 769.5 L 794.8125 770.375 C 803.8125 770 806.3125 769.875 816.4375 770 L 817.3125 769.125 M 815.3125 689.875 L 815.6875 672.875 L 814.9375 672.125 L 794.5625 674.625 L 793.8125 675.5 C 794.0625 680 794.1875 682.625 794.1875 685.625 C 794.1875 688 794.1875 690.5 794.0625 692.875 L 794.9375 693.625 C 803.4375 692.125 805.8125 691.875 814.6875 690.75 Z M 880.0625 752 C 876.6875 754 873.4375 756 867.0625 756 C 852.9375 756 850.0625 744.25 850.0625 736.75 C 850.0625 727.625 854.0625 717.125 866.1875 717.125 C 871.6875 717.125 874.6875 719.125 878.4375 721.625 L 879.6875 721.25 C 880.1875 714.625 880.3125 712.875 881.3125 706.25 L 880.6875 705.5 C 875.1875 703.75 870.4375 702.25 863.1875 702.25 C 833.8125 702.25 828.0625 724.5 828.0625 737.25 C 828.0625 751.625 835.5625 771.125 863.6875 771.125 C 870.3125 771.125 874.5625 769.875 879.8125 768.375 L 880.5625 767.625 L 881.0625 752.625 Z M 883.5625 770 "/>
<path fill-rule="nonzero" fill="rgb(34.901961%, 14.901961%, 14.901961%)" fill-opacity="1" d="M 382.375 831.5 L 366.5 831.75 L 365.75 832.5 C 366.25 848.75 366.625 859.625 366.625 874 C 366.625 889.25 366.25 904.375 365.875 919.625 L 366.625 920.375 C 375.875 920 377.875 919.875 387.875 920 L 388.5 919.25 C 388 905.625 388 902.5 388 889.75 C 402 889.875 417 889.875 426 878.875 C 429.5 874.625 432.5 867.5 432.5 858.75 C 432.5 853.375 431.25 841.5 420.875 835.625 C 413.375 831.25 402.75 831.25 393.375 831.25 L 382.375 831.5 M 388 846.625 C 390.75 846.5 393.375 846.5 396.125 846.5 C 407.125 846.75 410.125 852.375 410.125 859.625 C 410.125 861.375 410.125 868.625 403.5 872.25 C 400.125 874.125 395.5 874.375 388 874.375 Z M 496.75 882.75 C 496.875 871.5 496.875 866.625 493.625 861.375 C 491.125 857.375 486.125 852.375 470.125 852.375 C 459.375 852.375 452.75 854.375 445.625 856.5 L 444.875 857.5 L 444.25 871.125 L 445.25 871.625 C 449.625 869.875 457.75 866.625 466.125 866.625 C 470.75 866.625 472.625 867.375 474.25 869 C 475.5 870.25 475.875 872.5 475.875 874.375 C 460.875 876.375 453.875 877.75 446.375 882.375 C 439.375 886.75 437 893.875 437 899.5 C 437 912.875 446.625 921.5 458.875 921.5 C 468.25 921.5 473.625 917 476.25 914.875 L 476.25 919.5 L 477 920.375 C 486 920 488.75 919.875 496.875 920 L 497.5 919.125 C 496.625 906.875 496.625 903.75 496.625 892 L 496.75 882.75 M 476.125 902.625 C 473.5 904.125 470.125 905.875 466 905.875 C 461.5 905.875 457.75 903.5 457.75 898.25 C 457.75 890 467.625 888.625 476.125 887.5 Z M 547.5 873.625 L 551 853.25 L 550.25 852.375 C 549.375 852.375 548.5 852.25 547.625 852.25 C 542.5 852.25 536.75 855.125 532.75 864.375 L 533.125 852.875 L 532.125 851.875 C 522.875 853.875 520.5 854.25 511.375 855.625 L 510.625 856.375 C 511.375 865.75 511.75 871.375 511.75 888.75 C 511.75 899 511.625 909.25 511.375 919.625 L 512.125 920.375 C 521.375 920 523.375 919.875 533.375 920 L 534 919.125 C 533.5 909 532.75 894.875 532.75 886.25 C 532.75 880.625 532.75 872.375 541.25 872.375 C 543.375 872.375 544.625 873.125 546.375 874.125 Z M 622.5 918.375 C 610.75 898.5 609.5 896.25 600 879.125 C 608.625 867.375 609.5 866.125 618.375 854.75 L 617.75 853.5 L 597.375 853.75 L 596.125 854.625 C 586.375 871.5 585.125 873.5 579.375 882.125 L 579.375 868.25 C 579.5 844.875 579.625 839.875 580.25 821 L 579.25 820.25 L 557.5 823.5 L 556.75 824.375 C 557.625 836.5 558 842.375 558.25 858.75 C 558.5 879 558.5 899.25 558.375 919.5 L 559.25 920.375 C 567.625 920 570 920 579.5 920 L 580.25 919.125 L 579.5 898 L 579.375 883.625 C 590.25 903.625 591.625 906.375 598 919.625 L 599.125 920.375 L 621.625 919.5 Z M 621 920 "/>
</svg>
