<?xml version="1.0" encoding="UTF-8"?>
<svg xmlns="http://www.w3.org/2000/svg" xmlns:xlink="http://www.w3.org/1999/xlink" width="975" height="1300" viewBox="0 0 975 1300">
<path fill-rule="nonzero" fill="rgb(34.901961%, 14.901961%, 14.901961%)" fill-opacity="1" d="M 358.3125 452.875 C 344.6875 453.625 333.8125 453.875 330.0625 453.875 L 327.5625 453.875 C 327.3125 420.5 327.4375 412 328.4375 382.125 L 327.6875 381.375 C 316.9375 381.875 314.0625 381.875 305.4375 381.75 L 304.6875 382.5 C 305.1875 392.5 305.3125 395.5 305.3125 410.375 C 305.3125 430.125 305.1875 449.875 305.1875 469.625 L 305.8125 470.375 C 330.3125 470 334.8125 470 357.3125 470 L 357.9375 469.25 L 358.9375 453.5 Z M 425.1875 451.5 C 420.4375 454 414.8125 456.875 405.6875 456.875 C 398.1875 456.875 393.0625 454.5 390.0625 450 C 388.1875 447.375 387.8125 444.875 387.3125 442.375 L 427.6875 441.625 L 428.4375 440.75 C 428.3125 434.625 428.1875 428.375 426.4375 422.125 C 422.0625 407.375 412.4375 404.375 408.1875 403.375 C 405.0625 402.5 402.1875 402.25 399.3125 402.25 C 379.6875 402.25 366.6875 415.125 366.6875 436.75 C 366.6875 442.625 367.6875 448.75 369.6875 453.125 C 376.9375 470 393.9375 471.5 402.9375 471.5 C 413.3125 471.5 417.8125 469.625 424.4375 467 L 425.1875 466 L 426.0625 451.875 L 425.1875 451.5 M 387.3125 429.125 C 387.6875 425.25 388.5625 420 393.3125 417 C 394.8125 416 396.5625 415.625 398.3125 415.625 C 402.4375 415.625 404.9375 417.75 406.3125 420 C 408.0625 422.75 408.1875 425.75 408.1875 428.625 Z M 461.9375 469.125 C 461.3125 454.75 460.6875 441.625 460.6875 402.125 C 460.6875 390.25 460.8125 384.625 461.3125 371.125 L 460.4375 370.25 L 439.0625 373.625 L 438.5625 374.375 C 439.8125 389.625 439.9375 393.75 440.1875 414 C 440.3125 421.375 440.3125 428.75 440.3125 436.125 C 440.3125 449.625 440.0625 457.125 439.5625 469.5 L 440.3125 470.375 C 448.6875 470 452.0625 469.875 461.1875 470 Z M 532.0625 432.75 C 532.1875 421.5 532.1875 416.625 528.9375 411.375 C 526.4375 407.375 521.4375 402.375 505.4375 402.375 C 494.6875 402.375 488.0625 404.375 480.9375 406.5 L 480.1875 407.5 L 479.5625 421.125 L 480.5625 421.625 C 484.9375 419.875 493.0625 416.625 501.4375 416.625 C 506.0625 416.625 507.9375 417.375 509.5625 419 C 510.8125 420.25 511.1875 422.5 511.1875 424.375 C 496.1875 426.375 489.1875 427.75 481.6875 432.375 C 474.6875 436.75 472.3125 443.875 472.3125 449.5 C 472.3125 462.875 481.9375 471.5 494.1875 471.5 C 503.5625 471.5 508.9375 467 511.5625 464.875 L 511.5625 469.5 L 512.3125 470.375 C 521.3125 470 524.0625 469.875 532.1875 470 L 532.8125 469.125 C 531.9375 456.875 531.9375 453.75 531.9375 442 L 532.0625 432.75 M 511.4375 452.625 C 508.8125 454.125 505.4375 455.875 501.3125 455.875 C 496.8125 455.875 493.0625 453.5 493.0625 448.25 C 493.0625 440 502.9375 438.625 511.4375 437.5 Z M 607.9375 469.125 C 607.3125 458.125 607.3125 454.625 607.0625 442.375 L 607.0625 432.625 C 606.9375 420.625 606.8125 414.875 603.6875 409.75 C 599.8125 403.25 592.6875 402.25 588.1875 402.25 C 580.5625 402.25 573.9375 406.25 568.1875 409.625 L 568.4375 402.75 L 567.1875 401.875 C 557.5625 403.875 555.4375 404.25 546.0625 405.5 L 545.3125 406.375 C 546.3125 417.25 547.0625 425.125 547.0625 445.5 C 547.0625 453.5 546.9375 461.5 546.8125 469.5 L 547.5625 470.25 C 556.5625 469.875 558.4375 469.875 568.4375 469.875 L 569.1875 469.125 C 568.4375 449.875 568.3125 445 568.1875 422.625 C 570.8125 420.875 573.8125 418.75 577.8125 418.75 C 584.6875 418.75 585.3125 426.125 585.6875 430.625 C 585.9375 434.75 586.0625 451.875 586.0625 456.625 C 586.0625 460.875 585.9375 465.25 585.9375 469.5 L 586.6875 470.25 C 594.9375 470 597.0625 469.875 607.0625 469.875 Z M 683.4375 469.25 C 682.9375 458 682.5625 450.5 682.5625 434.125 C 682.5625 401.125 683.0625 387.5 683.5625 371 L 682.6875 370.25 L 662.0625 373.5 L 661.4375 374.25 C 662.1875 386 662.3125 389.125 662.1875 403.375 C 652.8125 403.125 641.0625 402.875 631.5625 410.375 C 622.8125 417.125 619.1875 427.5 619.1875 440.375 C 619.1875 450.125 621.8125 459.875 629.1875 466 C 634.6875 470.5 641.4375 471.5 645.5625 471.5 C 654.4375 471.5 659.0625 467.375 662.0625 464.75 L 661.8125 469.625 L 662.4375 470.375 C 671.0625 470 673.4375 470 682.8125 470 L 683.4375 469.25 M 662.1875 418.375 C 662.3125 435 662.1875 438.25 661.8125 453.375 C 659.3125 454.875 656.8125 456.375 653.3125 456.375 C 641.1875 456.375 641.1875 440.875 641.1875 438.375 C 641.1875 428.75 643.9375 418 657.9375 418 C 659.3125 418 660.4375 418.125 662.1875 418.375 Z M 690.1875 470 "/>
<path fill-rule="nonzero" fill="rgb(34.901961%, 14.901961%, 14.901961%)" fill-opacity="1" d="M 285.0625 566.25 C 274.5625 561.875 269.0625 559.625 269.0625 554 C 269.0625 550.125 272.6875 545.25 280.9375 545.25 C 290.4375 545.25 296.0625 549.125 300.6875 552.25 L 301.8125 551.75 L 302.8125 535.375 L 302.1875 534.5 C 296.8125 532.25 291.1875 529.875 279.0625 529.875 C 255.5625 529.875 247.4375 543.125 247.4375 556.5 C 247.4375 571.625 259.1875 577.125 266.1875 580.5 L 270.3125 582.375 C 278.9375 586 285.5625 589.125 285.5625 595.75 C 285.5625 600.5 281.4375 606.125 270.5625 606.125 C 259.1875 606.125 252.8125 601.125 249.1875 598.25 L 247.9375 598.625 L 247.0625 616.25 L 247.8125 617.25 C 249.1875 617.75 250.5625 618.375 251.9375 618.75 C 254.8125 619.75 262.1875 621.875 271.5625 621.875 C 275.3125 621.875 284.8125 621.5 292.3125 618 C 302.8125 612.875 307.3125 603.375 307.3125 592.75 C 307.3125 585.625 304.5625 578 297.9375 572.875 C 294.5625 570.375 291.3125 568.875 288.3125 567.5 Z M 354.1875 605.625 C 352.0625 606.25 350.5625 606.75 348.4375 606.75 C 342.0625 606.75 341.5625 602.75 341.3125 600.875 C 340.9375 597.625 340.9375 590.75 341.0625 585.75 L 341.3125 568.125 L 352.5625 568.625 L 353.3125 567.875 L 354.5625 554.5 L 353.8125 553.75 L 341.3125 553.75 L 341.6875 532.75 L 340.8125 532 C 332.3125 534.5 330.0625 535.125 321.1875 537.375 L 320.6875 538.25 L 320.8125 553.875 L 314.0625 553.625 L 313.3125 554.25 L 312.1875 567.625 L 312.9375 568.375 L 320.8125 568.125 L 320.4375 588 C 320.3125 591.125 320.1875 594.25 320.1875 597.5 C 320.1875 609 320.4375 621.375 339.9375 621.375 C 344.8125 621.375 348.6875 620.625 353.0625 619.875 L 353.9375 619 L 355.1875 606.125 Z M 419.0625 582.75 C 419.1875 571.5 419.1875 566.625 415.9375 561.375 C 413.4375 557.375 408.4375 552.375 392.4375 552.375 C 381.6875 552.375 375.0625 554.375 367.9375 556.5 L 367.1875 557.5 L 366.5625 571.125 L 367.5625 571.625 C 371.9375 569.875 380.0625 566.625 388.4375 566.625 C 393.0625 566.625 394.9375 567.375 396.5625 569 C 397.8125 570.25 398.1875 572.5 398.1875 574.375 C 383.1875 576.375 376.1875 577.75 368.6875 582.375 C 361.6875 586.75 359.3125 593.875 359.3125 599.5 C 359.3125 612.875 368.9375 621.5 381.1875 621.5 C 390.5625 621.5 395.9375 617 398.5625 614.875 L 398.5625 619.5 L 399.3125 620.375 C 408.3125 620 411.0625 619.875 419.1875 620 L 419.8125 619.125 C 418.9375 606.875 418.9375 603.75 418.9375 592 L 419.0625 582.75 M 398.4375 602.625 C 395.8125 604.125 392.4375 605.875 388.3125 605.875 C 383.8125 605.875 380.0625 603.5 380.0625 598.25 C 380.0625 590 389.9375 588.625 398.4375 587.5 Z M 494.9375 619.125 C 494.3125 608.125 494.3125 604.625 494.0625 592.375 L 494.0625 582.625 C 493.9375 570.625 493.8125 564.875 490.6875 559.75 C 486.8125 553.25 479.6875 552.25 475.1875 552.25 C 467.5625 552.25 460.9375 556.25 455.1875 559.625 L 455.4375 552.75 L 454.1875 551.875 C 444.5625 553.875 442.4375 554.25 433.0625 555.5 L 432.3125 556.375 C 433.3125 567.25 434.0625 575.125 434.0625 595.5 C 434.0625 603.5 433.9375 611.5 433.8125 619.5 L 434.5625 620.25 C 443.5625 619.875 445.4375 619.875 455.4375 619.875 L 456.1875 619.125 C 455.4375 599.875 455.3125 595 455.1875 572.625 C 457.8125 570.875 460.8125 568.75 464.8125 568.75 C 471.6875 568.75 472.3125 576.125 472.6875 580.625 C 472.9375 584.75 473.0625 601.875 473.0625 606.625 C 473.0625 610.875 472.9375 615.25 472.9375 619.5 L 473.6875 620.25 C 481.9375 620 484.0625 619.875 494.0625 619.875 Z M 534.1875 619.125 C 532.9375 596.375 532.8125 590.25 532.9375 568.125 L 542.8125 568.625 L 543.6875 567.75 L 544.8125 554.5 L 544.1875 553.75 L 532.8125 553.75 L 532.9375 550.875 C 532.9375 543.25 533.0625 536.25 541.1875 536.25 C 542.4375 536.25 543.6875 536.5 544.9375 536.625 L 545.8125 536.125 L 546.9375 522 L 546.3125 521.125 C 543.3125 520.875 540.4375 520.75 537.5625 520.75 C 531.1875 520.75 524.6875 521.5 519.6875 525.25 C 511.9375 531 512.0625 540 512.0625 546.25 L 512.1875 553.75 L 504.0625 553.625 L 503.3125 554.25 L 502.0625 567.5 L 502.8125 568.25 L 512.3125 568 C 512.3125 591.625 512.3125 597.25 511.5625 619.5 L 512.3125 620.375 C 520.8125 620 524.0625 619.875 533.4375 619.875 Z M 617.0625 586.75 C 617.0625 581.875 617.0625 561.625 599.5625 554.75 C 594.0625 552.625 587.5625 552.375 584.3125 552.375 C 562.5625 552.375 550.3125 564 550.3125 587 C 550.3125 595 551.5625 603.125 556.1875 609.875 C 559.4375 614.75 565.5625 621.5 583.4375 621.5 C 609.9375 621.5 617.0625 605.5 617.0625 586.75 M 595.4375 586.625 C 595.4375 596.875 594.0625 608.25 583.6875 608.25 C 580.4375 608.25 578.1875 606.75 576.6875 605.375 C 574.5625 603.25 572.1875 599 572.1875 586.875 C 572.1875 583.25 572.1875 575.25 574.6875 570.875 C 576.5625 567.5 579.8125 565.25 583.8125 565.25 C 587.3125 565.25 590.1875 567.125 591.8125 569.125 C 594.8125 572.75 595.4375 579.875 595.4375 586.625 Z M 665.0625 573.625 L 668.5625 553.25 L 667.8125 552.375 C 666.9375 552.375 666.0625 552.25 665.1875 552.25 C 660.0625 552.25 654.3125 555.125 650.3125 564.375 L 650.6875 552.875 L 649.6875 551.875 C 640.4375 553.875 638.0625 554.25 628.9375 555.625 L 628.1875 556.375 C 628.9375 565.75 629.3125 571.375 629.3125 588.75 C 629.3125 599 629.1875 609.25 628.9375 619.625 L 629.6875 620.375 C 638.9375 620 640.9375 619.875 650.9375 620 L 651.5625 619.125 C 651.0625 609 650.3125 594.875 650.3125 586.25 C 650.3125 580.625 650.3125 572.375 658.8125 572.375 C 660.9375 572.375 662.1875 573.125 663.9375 574.125 Z M 737.0625 619.25 C 736.5625 608 736.1875 600.5 736.1875 584.125 C 736.1875 551.125 736.6875 537.5 737.1875 521 L 736.3125 520.25 L 715.6875 523.5 L 715.0625 524.25 C 715.8125 536 715.9375 539.125 715.8125 553.375 C 706.4375 553.125 694.6875 552.875 685.1875 560.375 C 676.4375 567.125 672.8125 577.5 672.8125 590.375 C 672.8125 600.125 675.4375 609.875 682.8125 616 C 688.3125 620.5 695.0625 621.5 699.1875 621.5 C 708.0625 621.5 712.6875 617.375 715.6875 614.75 L 715.4375 619.625 L 716.0625 620.375 C 724.6875 620 727.0625 620 736.4375 620 L 737.0625 619.25 M 715.8125 568.375 C 715.9375 585 715.8125 588.25 715.4375 603.375 C 712.9375 604.875 710.4375 606.375 706.9375 606.375 C 694.8125 606.375 694.8125 590.875 694.8125 588.375 C 694.8125 578.75 697.5625 568 711.5625 568 C 712.9375 568 714.0625 568.125 715.8125 568.375 Z M 743.8125 620 "/>
<path fill-rule="nonzero" fill="rgb(34.901961%, 14.901961%, 14.901961%)" fill-opacity="1" d="M 173.25 681.375 C 160.25 681.75 158.125 681.75 144.25 681.75 L 143.5 682.5 L 137.75 702.75 L 132.75 720.875 L 126.875 742.625 L 121.375 720.25 L 117.875 706.125 L 111.625 682.125 L 111 681.375 C 97.625 681.75 95.375 681.75 81.375 681.75 L 80.625 682.5 C 79.375 719.875 78.875 729.5 76.125 769.625 L 76.75 770.375 C 84.75 770 87.125 769.875 94.375 770 L 95.125 769.25 L 95.5 745.375 L 96.25 721.125 L 96.75 697.5 L 102.25 719.625 L 107 737.375 L 115.375 769.625 L 116.125 770.375 C 123.875 770 126 769.875 134.75 770 L 135.5 769.25 L 142.75 742.625 L 147.75 724.375 L 154.75 698.125 L 154.75 720.5 L 155 739.625 L 155 769.625 L 155.625 770.375 C 164.25 770 167.625 769.875 177.25 770 L 177.875 769.25 C 177.125 755 176.25 740.625 175.75 726.25 C 175.375 718.375 175.125 710.5 174.75 702.625 C 174.125 691 174 689.5 174 682.125 Z M 247.625 732.75 C 247.75 721.5 247.75 716.625 244.5 711.375 C 242 707.375 237 702.375 221 702.375 C 210.25 702.375 203.625 704.375 196.5 706.5 L 195.75 707.5 L 195.125 721.125 L 196.125 721.625 C 200.5 719.875 208.625 716.625 217 716.625 C 221.625 716.625 223.5 717.375 225.125 719 C 226.375 720.25 226.75 722.5 226.75 724.375 C 211.75 726.375 204.75 727.75 197.25 732.375 C 190.25 736.75 187.875 743.875 187.875 749.5 C 187.875 762.875 197.5 771.5 209.75 771.5 C 219.125 771.5 224.5 767 227.125 764.875 L 227.125 769.5 L 227.875 770.375 C 236.875 770 239.625 769.875 247.75 770 L 248.375 769.125 C 247.5 756.875 247.5 753.75 247.5 742 L 247.625 732.75 M 227 752.625 C 224.375 754.125 221 755.875 216.875 755.875 C 212.375 755.875 208.625 753.5 208.625 748.25 C 208.625 740 218.5 738.625 227 737.5 Z M 323.5 769.125 C 322.875 758.125 322.875 754.625 322.625 742.375 L 322.625 732.625 C 322.5 720.625 322.375 714.875 319.25 709.75 C 315.375 703.25 308.25 702.25 303.75 702.25 C 296.125 702.25 289.5 706.25 283.75 709.625 L 284 702.75 L 282.75 701.875 C 273.125 703.875 271 704.25 261.625 705.5 L 260.875 706.375 C 261.875 717.25 262.625 725.125 262.625 745.5 C 262.625 753.5 262.5 761.5 262.375 769.5 L 263.125 770.25 C 272.125 769.875 274 769.875 284 769.875 L 284.75 769.125 C 284 749.875 283.875 745 283.75 722.625 C 286.375 720.875 289.375 718.75 293.375 718.75 C 300.25 718.75 300.875 726.125 301.25 730.625 C 301.5 734.75 301.625 751.875 301.625 756.625 C 301.625 760.875 301.5 765.25 301.5 769.5 L 302.25 770.25 C 310.5 770 312.625 769.875 322.625 769.875 Z M 364 726.875 C 359.75 725.375 356.375 724 356.375 720.5 C 356.375 719 357.375 714.875 365.125 714.875 C 372.75 714.875 377.625 718.125 380.75 720.125 L 381.875 719.75 L 383.125 706.125 L 382.5 705.375 C 376.625 703.75 371.5 702.25 363.375 702.25 C 357.25 702.25 345 702.75 338.5 712.125 C 336.875 714.375 335.125 718.125 335.125 723.125 C 335.125 736.5 345.5 740.5 351.375 742.75 L 356.125 744.5 C 359.5 745.625 365 747.5 365 752 C 365 755.125 362.125 758.5 355.125 758.5 C 351.625 758.5 346.5 757.375 341.875 755 C 339.75 753.875 338.75 753 336.875 751.5 L 335.75 752 C 335.5 758.5 335.375 759.875 334.875 766.125 L 335.5 767.25 C 341.625 769.5 346.875 771.5 356 771.5 C 365.5 771.5 384.25 769.75 386.5 751.875 C 386.625 750.875 386.625 750 386.625 749.125 C 386.625 735.375 377 731.75 370.125 729.125 Z M 420.25 769.125 C 419.625 759.5 419.125 752.125 419.125 734.875 C 419.125 724.25 419.375 713.5 419.5 702.875 L 418.625 701.875 L 397.125 705.625 L 396.375 706.375 C 397.375 715.875 397.75 720.25 397.75 738 C 397.75 751.625 397.375 759.25 397 769.5 L 397.75 770.375 C 406.75 770 409.25 769.875 419.375 770 L 420.25 769.125 M 418.25 689.875 L 418.625 672.875 L 417.875 672.125 L 397.5 674.625 L 396.75 675.5 C 397 680 397.125 682.625 397.125 685.625 C 397.125 688 397.125 690.5 397 692.875 L 397.875 693.625 C 406.375 692.125 408.75 691.875 417.625 690.75 Z M 497.75 736.75 C 497.75 731.875 497.75 711.625 480.25 704.75 C 474.75 702.625 468.25 702.375 465 702.375 C 443.25 702.375 431 714 431 737 C 431 745 432.25 753.125 436.875 759.875 C 440.125 764.75 446.25 771.5 464.125 771.5 C 490.625 771.5 497.75 755.5 497.75 736.75 M 476.125 736.625 C 476.125 746.875 474.75 758.25 464.375 758.25 C 461.125 758.25 458.875 756.75 457.375 755.375 C 455.25 753.25 452.875 749 452.875 736.875 C 452.875 733.25 452.875 725.25 455.375 720.875 C 457.25 717.5 460.5 715.25 464.5 715.25 C 468 715.25 470.875 717.125 472.5 719.125 C 475.5 722.75 476.125 729.875 476.125 736.625 Z M 570.875 769.125 C 570.25 758.125 570.25 754.625 570 742.375 L 570 732.625 C 569.875 720.625 569.75 714.875 566.625 709.75 C 562.75 703.25 555.625 702.25 551.125 702.25 C 543.5 702.25 536.875 706.25 531.125 709.625 L 531.375 702.75 L 530.125 701.875 C 520.5 703.875 518.375 704.25 509 705.5 L 508.25 706.375 C 509.25 717.25 510 725.125 510 745.5 C 510 753.5 509.875 761.5 509.75 769.5 L 510.5 770.25 C 519.5 769.875 521.375 769.875 531.375 769.875 L 532.125 769.125 C 531.375 749.875 531.25 745 531.125 722.625 C 533.75 720.875 536.75 718.75 540.75 718.75 C 547.625 718.75 548.25 726.125 548.625 730.625 C 548.875 734.75 549 751.875 549 756.625 C 549 760.875 548.875 765.25 548.875 769.5 L 549.625 770.25 C 557.875 770 560 769.875 570 769.875 Z M 657.75 716.25 C 647.25 711.875 641.75 709.625 641.75 704 C 641.75 700.125 645.375 695.25 653.625 695.25 C 663.125 695.25 668.75 699.125 673.375 702.25 L 674.5 701.75 L 675.5 685.375 L 674.875 684.5 C 669.5 682.25 663.875 679.875 651.75 679.875 C 628.25 679.875 620.125 693.125 620.125 706.5 C 620.125 721.625 631.875 727.125 638.875 730.5 L 643 732.375 C 651.625 736 658.25 739.125 658.25 745.75 C 658.25 750.5 654.125 756.125 643.25 756.125 C 631.875 756.125 625.5 751.125 621.875 748.25 L 620.625 748.625 L 619.75 766.25 L 620.5 767.25 C 621.875 767.75 623.25 768.375 624.625 768.75 C 627.5 769.75 634.875 771.875 644.25 771.875 C 648 771.875 657.5 771.5 665 768 C 675.5 762.875 680 753.375 680 742.75 C 680 735.625 677.25 728 670.625 722.875 C 667.25 720.375 664 718.875 661 717.5 Z M 726.875 755.625 C 724.75 756.25 723.25 756.75 721.125 756.75 C 714.75 756.75 714.25 752.75 714 750.875 C 713.625 747.625 713.625 740.75 713.75 735.75 L 714 718.125 L 725.25 718.625 L 726 717.875 L 727.25 704.5 L 726.5 703.75 L 714 703.75 L 714.375 682.75 L 713.5 682 C 705 684.5 702.75 685.125 693.875 687.375 L 693.375 688.25 L 693.5 703.875 L 686.75 703.625 L 686 704.25 L 684.875 717.625 L 685.625 718.375 L 693.5 718.125 L 693.125 738 C 693 741.125 692.875 744.25 692.875 747.5 C 692.875 759 693.125 771.375 712.625 771.375 C 717.5 771.375 721.375 770.625 725.75 769.875 L 726.625 769 L 727.875 756.125 Z M 791.75 732.75 C 791.875 721.5 791.875 716.625 788.625 711.375 C 786.125 707.375 781.125 702.375 765.125 702.375 C 754.375 702.375 747.75 704.375 740.625 706.5 L 739.875 707.5 L 739.25 721.125 L 740.25 721.625 C 744.625 719.875 752.75 716.625 761.125 716.625 C 765.75 716.625 767.625 717.375 769.25 719 C 770.5 720.25 770.875 722.5 770.875 724.375 C 755.875 726.375 748.875 727.75 741.375 732.375 C 734.375 736.75 732 743.875 732 749.5 C 732 762.875 741.625 771.5 753.875 771.5 C 763.25 771.5 768.625 767 771.25 764.875 L 771.25 769.5 L 772 770.375 C 781 770 783.75 769.875 791.875 770 L 792.5 769.125 C 791.625 756.875 791.625 753.75 791.625 742 L 791.75 732.75 M 771.125 752.625 C 768.5 754.125 765.125 755.875 761 755.875 C 756.5 755.875 752.75 753.5 752.75 748.25 C 752.75 740 762.625 738.625 771.125 737.5 Z M 841.375 755.625 C 839.25 756.25 837.75 756.75 835.625 756.75 C 829.25 756.75 828.75 752.75 828.5 750.875 C 828.125 747.625 828.125 740.75 828.25 735.75 L 828.5 718.125 L 839.75 718.625 L 840.5 717.875 L 841.75 704.5 L 841 703.75 L 828.5 703.75 L 828.875 682.75 L 828 682 C 819.5 684.5 817.25 685.125 808.375 687.375 L 807.875 688.25 L 808 703.875 L 801.25 703.625 L 800.5 704.25 L 799.375 717.625 L 800.125 718.375 L 808 718.125 L 807.625 738 C 807.5 741.125 807.375 744.25 807.375 747.5 C 807.375 759 807.625 771.375 827.125 771.375 C 832 771.375 835.875 770.625 840.25 769.875 L 841.125 769 L 842.375 756.125 Z M 906.125 751.5 C 901.375 754 895.75 756.875 886.625 756.875 C 879.125 756.875 874 754.5 871 750 C 869.125 747.375 868.75 744.875 868.25 742.375 L 908.625 741.625 L 909.375 740.75 C 909.25 734.625 909.125 728.375 907.375 722.125 C 903 707.375 893.375 704.375 889.125 703.375 C 886 702.5 883.125 702.25 880.25 702.25 C 860.625 702.25 847.625 715.125 847.625 736.75 C 847.625 742.625 848.625 748.75 850.625 753.125 C 857.875 770 874.875 771.5 883.875 771.5 C 894.25 771.5 898.75 769.625 905.375 767 L 906.125 766 L 907 751.875 L 906.125 751.5 M 868.25 729.125 C 868.625 725.25 869.5 720 874.25 717 C 875.75 716 877.5 715.625 879.25 715.625 C 883.375 715.625 885.875 717.75 887.25 720 C 889 722.75 889.125 725.75 889.125 728.625 Z M 913.375 770 "/>
<path fill-rule="nonzero" fill="rgb(34.901961%, 14.901961%, 14.901961%)" fill-opacity="1" d="M 196.8125 831.375 C 186.8125 831.75 185.1875 831.75 174.6875 831.75 L 174.0625 832.5 C 174.9375 846.625 174.9375 850.25 175.0625 865 C 169.5625 865.125 164.0625 865.25 158.4375 865.25 C 154.0625 865.25 149.5625 865.125 145.1875 865.125 L 145.4375 832.125 L 144.8125 831.375 C 135.1875 831.75 133.3125 831.75 122.4375 831.75 L 121.6875 832.5 C 122.3125 845.375 123.0625 860.75 123.0625 891.75 C 123.0625 903 122.8125 909.125 122.5625 919.625 L 123.1875 920.375 C 132.3125 920 134.5625 919.875 145.5625 920 L 146.1875 919.25 C 145.4375 903.75 145.3125 899.25 145.1875 881.125 C 150.6875 880.875 155.3125 880.75 160.1875 880.75 C 165.1875 880.75 170.1875 880.875 175.1875 881 C 175.4375 897.875 175.4375 902 174.8125 919.625 L 175.4375 920.375 C 184.8125 920 187.3125 919.875 197.9375 920 L 198.5625 919.25 C 197.5625 898.25 197.1875 877.375 197.1875 856.375 C 197.1875 847.625 197.3125 841.75 197.4375 832.125 Z M 235.6875 919.125 C 235.0625 909.5 234.5625 902.125 234.5625 884.875 C 234.5625 874.25 234.8125 863.5 234.9375 852.875 L 234.0625 851.875 L 212.5625 855.625 L 211.8125 856.375 C 212.8125 865.875 213.1875 870.25 213.1875 888 C 213.1875 901.625 212.8125 909.25 212.4375 919.5 L 213.1875 920.375 C 222.1875 920 224.6875 919.875 234.8125 920 L 235.6875 919.125 M 233.6875 839.875 L 234.0625 822.875 L 233.3125 822.125 L 212.9375 824.625 L 212.1875 825.5 C 212.4375 830 212.5625 832.625 212.5625 835.625 C 212.5625 838 212.5625 840.5 212.4375 842.875 L 213.3125 843.625 C 221.8125 842.125 224.1875 841.875 233.0625 840.75 Z M 275.8125 876.875 C 271.5625 875.375 268.1875 874 268.1875 870.5 C 268.1875 869 269.1875 864.875 276.9375 864.875 C 284.5625 864.875 289.4375 868.125 292.5625 870.125 L 293.6875 869.75 L 294.9375 856.125 L 294.3125 855.375 C 288.4375 853.75 283.3125 852.25 275.1875 852.25 C 269.0625 852.25 256.8125 852.75 250.3125 862.125 C 248.6875 864.375 246.9375 868.125 246.9375 873.125 C 246.9375 886.5 257.3125 890.5 263.1875 892.75 L 267.9375 894.5 C 271.3125 895.625 276.8125 897.5 276.8125 902 C 276.8125 905.125 273.9375 908.5 266.9375 908.5 C 263.4375 908.5 258.3125 907.375 253.6875 905 C 251.5625 903.875 250.5625 903 248.6875 901.5 L 247.5625 902 C 247.3125 908.5 247.1875 909.875 246.6875 916.125 L 247.3125 917.25 C 253.4375 919.5 258.6875 921.5 267.8125 921.5 C 277.3125 921.5 296.0625 919.75 298.3125 901.875 C 298.4375 900.875 298.4375 900 298.4375 899.125 C 298.4375 885.375 288.8125 881.75 281.9375 879.125 Z M 344.4375 905.625 C 342.3125 906.25 340.8125 906.75 338.6875 906.75 C 332.3125 906.75 331.8125 902.75 331.5625 900.875 C 331.1875 897.625 331.1875 890.75 331.3125 885.75 L 331.5625 868.125 L 342.8125 868.625 L 343.5625 867.875 L 344.8125 854.5 L 344.0625 853.75 L 331.5625 853.75 L 331.9375 832.75 L 331.0625 832 C 322.5625 834.5 320.3125 835.125 311.4375 837.375 L 310.9375 838.25 L 311.0625 853.875 L 304.3125 853.625 L 303.5625 854.25 L 302.4375 867.625 L 303.1875 868.375 L 311.0625 868.125 L 310.6875 888 C 310.5625 891.125 310.4375 894.25 310.4375 897.5 C 310.4375 909 310.6875 921.375 330.1875 921.375 C 335.0625 921.375 338.9375 920.625 343.3125 919.875 L 344.1875 919 L 345.4375 906.125 Z M 417.3125 886.75 C 417.3125 881.875 417.3125 861.625 399.8125 854.75 C 394.3125 852.625 387.8125 852.375 384.5625 852.375 C 362.8125 852.375 350.5625 864 350.5625 887 C 350.5625 895 351.8125 903.125 356.4375 909.875 C 359.6875 914.75 365.8125 921.5 383.6875 921.5 C 410.1875 921.5 417.3125 905.5 417.3125 886.75 M 395.6875 886.625 C 395.6875 896.875 394.3125 908.25 383.9375 908.25 C 380.6875 908.25 378.4375 906.75 376.9375 905.375 C 374.8125 903.25 372.4375 899 372.4375 886.875 C 372.4375 883.25 372.4375 875.25 374.9375 870.875 C 376.8125 867.5 380.0625 865.25 384.0625 865.25 C 387.5625 865.25 390.4375 867.125 392.0625 869.125 C 395.0625 872.75 395.6875 879.875 395.6875 886.625 Z M 465.3125 873.625 L 468.8125 853.25 L 468.0625 852.375 C 467.1875 852.375 466.3125 852.25 465.4375 852.25 C 460.3125 852.25 454.5625 855.125 450.5625 864.375 L 450.9375 852.875 L 449.9375 851.875 C 440.6875 853.875 438.3125 854.25 429.1875 855.625 L 428.4375 856.375 C 429.1875 865.75 429.5625 871.375 429.5625 888.75 C 429.5625 899 429.4375 909.25 429.1875 919.625 L 429.9375 920.375 C 439.1875 920 441.1875 919.875 451.1875 920 L 451.8125 919.125 C 451.3125 909 450.5625 894.875 450.5625 886.25 C 450.5625 880.625 450.5625 872.375 459.0625 872.375 C 461.1875 872.375 462.4375 873.125 464.1875 874.125 Z M 498.6875 919.125 C 498.0625 909.5 497.5625 902.125 497.5625 884.875 C 497.5625 874.25 497.8125 863.5 497.9375 852.875 L 497.0625 851.875 L 475.5625 855.625 L 474.8125 856.375 C 475.8125 865.875 476.1875 870.25 476.1875 888 C 476.1875 901.625 475.8125 909.25 475.4375 919.5 L 476.1875 920.375 C 485.1875 920 487.6875 919.875 497.8125 920 L 498.6875 919.125 M 496.6875 839.875 L 497.0625 822.875 L 496.3125 822.125 L 475.9375 824.625 L 475.1875 825.5 C 475.4375 830 475.5625 832.625 475.5625 835.625 C 475.5625 838 475.5625 840.5 475.4375 842.875 L 476.3125 843.625 C 484.8125 842.125 487.1875 841.875 496.0625 840.75 Z M 561.4375 902 C 558.0625 904 554.8125 906 548.4375 906 C 534.3125 906 531.4375 894.25 531.4375 886.75 C 531.4375 877.625 535.4375 867.125 547.5625 867.125 C 553.0625 867.125 556.0625 869.125 559.8125 871.625 L 561.0625 871.25 C 561.5625 864.625 561.6875 862.875 562.6875 856.25 L 562.0625 855.5 C 556.5625 853.75 551.8125 852.25 544.5625 852.25 C 515.1875 852.25 509.4375 874.5 509.4375 887.25 C 509.4375 901.625 516.9375 921.125 545.0625 921.125 C 551.6875 921.125 555.9375 919.875 561.1875 918.375 L 561.9375 917.625 L 562.4375 902.625 Z M 625.6875 831.5 L 609.8125 831.75 L 609.0625 832.5 C 609.5625 848.75 609.9375 859.625 609.9375 874 C 609.9375 889.25 609.5625 904.375 609.1875 919.625 L 609.9375 920.375 C 619.1875 920 621.1875 919.875 631.1875 920 L 631.8125 919.25 C 631.3125 905.625 631.3125 902.5 631.3125 889.75 C 645.3125 889.875 660.3125 889.875 669.3125 878.875 C 672.8125 874.625 675.8125 867.5 675.8125 858.75 C 675.8125 853.375 674.5625 841.5 664.1875 835.625 C 656.6875 831.25 646.0625 831.25 636.6875 831.25 L 625.6875 831.5 M 631.3125 846.625 C 634.0625 846.5 636.6875 846.5 639.4375 846.5 C 650.4375 846.75 653.4375 852.375 653.4375 859.625 C 653.4375 861.375 653.4375 868.625 646.8125 872.25 C 643.4375 874.125 638.8125 874.375 631.3125 874.375 Z M 740.0625 882.75 C 740.1875 871.5 740.1875 866.625 736.9375 861.375 C 734.4375 857.375 729.4375 852.375 713.4375 852.375 C 702.6875 852.375 696.0625 854.375 688.9375 856.5 L 688.1875 857.5 L 687.5625 871.125 L 688.5625 871.625 C 692.9375 869.875 701.0625 866.625 709.4375 866.625 C 714.0625 866.625 715.9375 867.375 717.5625 869 C 718.8125 870.25 719.1875 872.5 719.1875 874.375 C 704.1875 876.375 697.1875 877.75 689.6875 882.375 C 682.6875 886.75 680.3125 893.875 680.3125 899.5 C 680.3125 912.875 689.9375 921.5 702.1875 921.5 C 711.5625 921.5 716.9375 917 719.5625 914.875 L 719.5625 919.5 L 720.3125 920.375 C 729.3125 920 732.0625 919.875 740.1875 920 L 740.8125 919.125 C 739.9375 906.875 739.9375 903.75 739.9375 892 L 740.0625 882.75 M 719.4375 902.625 C 716.8125 904.125 713.4375 905.875 709.3125 905.875 C 704.8125 905.875 701.0625 903.5 701.0625 898.25 C 701.0625 890 710.9375 888.625 719.4375 887.5 Z M 790.8125 873.625 L 794.3125 853.25 L 793.5625 852.375 C 792.6875 852.375 791.8125 852.25 790.9375 852.25 C 785.8125 852.25 780.0625 855.125 776.0625 864.375 L 776.4375 852.875 L 775.4375 851.875 C 766.1875 853.875 763.8125 854.25 754.6875 855.625 L 753.9375 856.375 C 754.6875 865.75 755.0625 871.375 755.0625 888.75 C 755.0625 899 754.9375 909.25 754.6875 919.625 L 755.4375 920.375 C 764.6875 920 766.6875 919.875 776.6875 920 L 777.3125 919.125 C 776.8125 909 776.0625 894.875 776.0625 886.25 C 776.0625 880.625 776.0625 872.375 784.5625 872.375 C 786.6875 872.375 787.9375 873.125 789.6875 874.125 Z M 865.8125 918.375 C 854.0625 898.5 852.8125 896.25 843.3125 879.125 C 851.9375 867.375 852.8125 866.125 861.6875 854.75 L 861.0625 853.5 L 840.6875 853.75 L 839.4375 854.625 C 829.6875 871.5 828.4375 873.5 822.6875 882.125 L 822.6875 868.25 C 822.8125 844.875 822.9375 839.875 823.5625 821 L 822.5625 820.25 L 800.8125 823.5 L 800.0625 824.375 C 800.9375 836.5 801.3125 842.375 801.5625 858.75 C 801.8125 879 801.8125 899.25 801.6875 919.5 L 802.5625 920.375 C 810.9375 920 813.3125 920 822.8125 920 L 823.5625 919.125 L 822.8125 898 L 822.6875 883.625 C 833.5625 903.625 834.9375 906.375 841.3125 919.625 L 842.4375 920.375 L 864.9375 919.5 Z M 864.3125 920 "/>
</svg>
