<svg xmlns="http://www.w3.org/2000/svg" width="612" height="817" viewBox="0 0 612 817">
  <defs>
    <style>
      .cls-1 {
        fill: #592626;
        fill-rule: evenodd;
      }
    </style>
  </defs>
  <path id="Railtown_1897_State_Historic_Park" data-name="Railtown 1897 State Historic Park" class="cls-1" d="M68.693,323.678a236.385,236.385,0,0,1,11.355,21.388l0.622,0.389c2.411-.156,4.744-0.311,7.155-0.389s4.9-.156,7.311-0.156l0.467-.933c-2.955-3.811-3.811-4.978-9.411-13.922-2.489-3.966-3.733-6.066-5.678-9.488,3.5-1.556,10.577-4.822,10.577-14.7,0-3.422-.933-10.5-7.311-13.844-4.044-2.1-8.244-2.178-17.344-2.022l-5.444.078H51.505l-0.389.466c0.311,7.855.622,15.944,0.622,37.1,0,7.233-.078,10.733-0.311,17.188l0.467,0.467c5.678-.233,6.922-0.311,13.3-0.233l0.467-.467c-0.622-9.022-.7-11.51-0.778-20.766ZM65.038,299.49c1.089-.078,2.178-0.078,3.267-0.078,3.033,0,9.022,0,9.022,6.845A7.567,7.567,0,0,1,73.9,313.1c-2.178,1.322-4.978,1.477-8.866,1.555V299.49Zm69.3,22.4c0.078-7,.078-10.033-1.944-13.3-1.556-2.489-4.667-5.6-14.622-5.6a47.318,47.318,0,0,0-15.244,2.567l-0.466.622-0.389,8.477,0.622,0.311c2.722-1.089,7.778-3.111,12.988-3.111,2.878,0,4.045.467,5.056,1.478a4.908,4.908,0,0,1,1.011,3.344c-9.333,1.245-13.688,2.1-18.355,4.978a12.436,12.436,0,0,0-5.833,10.655c0,8.322,5.989,13.688,13.61,13.688a16.079,16.079,0,0,0,10.811-4.122v2.878l0.467,0.544c5.6-.233,7.31-0.311,12.366-0.233l0.389-.545c-0.545-7.621-.545-9.566-0.545-16.877ZM121.5,334.255a12.6,12.6,0,0,1-6.3,2.022c-2.8,0-5.133-1.477-5.133-4.744,0-5.133,6.144-5.988,11.432-6.688v9.41Zm36.012,10.266c-0.389-5.988-.7-10.577-0.7-21.31,0-6.611.155-13.3,0.233-19.91l-0.544-.622-13.377,2.333-0.467.467c0.622,5.911.855,8.633,0.855,19.677,0,8.477-.233,13.221-0.466,19.6l0.466,0.544c5.6-.233,7.156-0.311,13.455-0.233Zm-1.245-49.308,0.234-10.578-0.467-.466-12.677,1.555-0.467.545c0.156,2.8.234,4.433,0.234,6.3,0,1.478,0,3.034-.078,4.511l0.544,0.467c5.289-.933,6.767-1.089,12.289-1.789Zm23.567,49.308c-0.389-8.944-.778-17.11-0.778-41.687,0-7.388.078-10.888,0.389-19.287L178.905,283l-13.3,2.1-0.311.467c0.778,9.488.856,12.055,1.011,24.654,0.078,4.589.078,9.177,0.078,13.766,0,8.4-.155,13.066-0.467,20.766l0.467,0.544c5.211-.233,7.311-0.311,12.988-0.233Zm30.8-8.4a11.68,11.68,0,0,1-3.578.7c-3.966,0-4.278-2.489-4.433-3.656a89.4,89.4,0,0,1-.156-9.41l0.156-10.966,7,0.311,0.466-.467,0.778-8.322-0.467-.466h-7.777l0.233-13.066-0.544-.467c-5.289,1.555-6.689,1.944-12.211,3.344l-0.311.545,0.078,9.721-4.2-.155-0.466.389-0.7,8.321,0.466,0.467,4.9-.155-0.233,12.366c-0.078,1.944-.156,3.888-0.156,5.91,0,7.156.156,14.855,12.288,14.855a45.17,45.17,0,0,0,8.167-.933l0.544-.544,0.778-8.011Zm45.343-11.744c0-3.033,0-15.633-10.888-19.91a27.958,27.958,0,0,0-9.489-1.478c-13.532,0-21.154,7.233-21.154,21.543,0,4.978.778,10.033,3.655,14.233C220.127,341.8,223.938,346,235.06,346,251.548,346,255.981,336.044,255.981,324.378Zm-13.455-.078c0,6.378-.855,13.455-7.31,13.455a6.288,6.288,0,0,1-4.356-1.789c-1.322-1.322-2.8-3.966-2.8-11.51,0-2.256,0-7.233,1.556-9.955a6.44,6.44,0,0,1,5.677-3.5,6.538,6.538,0,0,1,4.978,2.411C242.137,315.667,242.526,320.1,242.526,324.3Zm68.91,20.221c3.111-12.055,3.656-13.921,8.322-30.643,0.933-3.188,1.789-6.455,2.644-9.644l-0.466-.622-10.111.234-0.544.544-2.256,11.666-2.177,9.411-1.478,7.155-1.322-6.922-1.711-8.088-2.722-13.455-0.467-.545-14.933.234-0.544.544L281.1,317.145l-1.866,8.555-1.478,7.155-1.478-7.7-1.866-8.4-2.644-12.91-0.467-.389-12.6.933-0.467.622c7.311,25.666,8.477,30.254,10.655,39.82l0.544,0.467c5.367-.233,7.311-0.311,14.466-0.233l0.467-.545,2.022-9.488,2.178-9.411,1.944-9.41,1.167,5.91,1.166,5.756,3.267,16.877,0.544,0.544c5.756-.233,8.089-0.311,14.311-0.233Zm53.2,0c-0.389-6.844-.389-9.021-0.545-16.643v-6.067c-0.077-7.466-.155-11.044-2.1-14.232-2.411-4.045-6.845-4.667-9.644-4.667-4.745,0-8.867,2.489-12.444,4.589l0.155-4.278-0.777-.544c-5.989,1.244-7.311,1.478-13.144,2.255l-0.467.545a216.367,216.367,0,0,1,1.089,24.343c0,4.978-.078,9.955-0.156,14.933l0.467,0.466c5.6-.233,6.766-0.233,12.988-0.233l0.467-.467c-0.467-11.977-.545-15.01-0.622-28.932,1.633-1.088,3.5-2.411,5.988-2.411,4.278,0,4.667,4.589,4.9,7.389,0.156,2.567.233,13.222,0.233,16.177,0,2.644-.077,5.366-0.077,8.011l0.466,0.466c5.133-.155,6.455-0.233,12.677-0.233Zm57.012,0c-0.312-5.91-.545-9.644-0.545-21.387,0-10.5.233-21,.389-31.5l-0.467-.467-19.365,2.567-0.545.544-0.544,7.856,0.466,0.466,7.156-.778c0.077,4.2.077,8.322,0.077,12.522,0,10.111-.233,19.91-0.466,30.41l0.389,0.544c5.21-.233,7.31-0.311,12.988-0.233ZM467.382,316.6a12.277,12.277,0,0,0,4.588-3.344,12.043,12.043,0,0,0,2.645-7.544c0-5.833-3.578-14.31-17.966-14.31-10.966,0-18.821,5.444-18.821,14.466,0,7.155,4.744,9.644,7.077,10.888-2.567,1.322-8.011,4.122-8.011,13.066,0,11.2,8.866,16.255,19.288,16.255,4.122,0,8.789-.778,12.211-2.8a15.052,15.052,0,0,0,7.544-13.3,16.458,16.458,0,0,0-2.411-8.711A11.786,11.786,0,0,0,467.382,316.6Zm-5.289-10.888c0.233,4.511-2.411,7.311-5.755,7.311-2.333,0-5.989-1.711-5.989-6.689,0-5.288,3.889-6.844,5.911-6.844C458.36,299.49,461.782,300.812,462.093,305.712Zm0.389,23.566c0.078,5.6-2.878,7.933-5.911,7.933-4.511,0-6.377-4.045-6.377-7.778,0-4.977,2.955-7.855,6.3-7.855C458.515,321.578,462.4,323.134,462.482,329.278Zm23.568,5.677-0.545,9.255,0.389,0.545a43.755,43.755,0,0,0,10.344,1.4c15.944,0,25.121-9.644,25.121-28.932,0-13.3-4.433-22.555-14.7-25.121a26.381,26.381,0,0,0-6.067-.7c-12.443,0-19.132,7.7-19.132,17.888,0,12.521,8.166,18.043,16.1,18.043a16.463,16.463,0,0,0,10.811-3.655c-0.622,4.044-1.556,9.255-6.767,11.977a12.83,12.83,0,0,1-5.91,1.245,18.239,18.239,0,0,1-8.789-2.334Zm22.087-22.788a7.257,7.257,0,0,1-7.077,5.211c-3.889,0-7.311-3.266-7.311-8.866a11.61,11.61,0,0,1,.7-4.2,6.266,6.266,0,0,1,5.989-4.277c3.266,0,6.533,2.566,7.388,7.155A38.655,38.655,0,0,1,508.137,312.167Zm54.678-19.91c-15.088.234-20.3,0.234-36.4,0.156l-0.466.544-0.856,9.178,0.467,0.466,22.166-.311c-2.334,6.378-14.778,37.8-16.566,42.387l0.466,0.622c5.911-.233,8.244-0.311,14.388-0.233l0.545-.545c0.544-2.177,1.089-4.355,1.711-6.533,2.8-10.344,9.022-28.387,15.01-45.031ZM89.81,404.956c-6.533-2.722-9.955-4.122-9.955-7.622,0-2.411,2.255-5.444,7.389-5.444,5.911,0,9.411,2.411,12.288,4.356l0.7-.312,0.622-10.188-0.389-.544a31.857,31.857,0,0,0-14.388-2.878c-14.621,0-19.677,8.244-19.677,16.566,0,9.411,7.311,12.833,11.666,14.933l2.567,1.166c5.366,2.256,9.488,4.2,9.488,8.322,0,2.955-2.567,6.455-9.333,6.455a19.84,19.84,0,0,1-13.3-4.9l-0.778.234-0.544,10.966,0.467,0.622c0.855,0.311,1.711.7,2.567,0.933a38.71,38.71,0,0,0,12.21,1.945c2.333,0,8.244-.234,12.91-2.411,6.533-3.189,9.333-9.1,9.333-15.711a15.414,15.414,0,0,0-5.833-12.366,31.566,31.566,0,0,0-5.989-3.344Zm43.011,24.5a11.669,11.669,0,0,1-3.578.7c-3.966,0-4.277-2.489-4.433-3.655a89.18,89.18,0,0,1-.155-9.411l0.155-10.966,7,0.311,0.467-.467,0.777-8.321-0.466-.467H124.81l0.234-13.066-0.545-.467c-5.288,1.556-6.688,1.945-12.21,3.344l-0.311.545,0.077,9.722-4.2-.156-0.466.389-0.7,8.322,0.467,0.466,4.9-.155-0.233,12.366c-0.078,1.944-.156,3.889-0.156,5.911,0,7.155.156,14.855,12.289,14.855a45.168,45.168,0,0,0,8.166-.934l0.544-.544,0.778-8.011Zm40.366-14.233c0.078-7,.078-10.032-1.944-13.3-1.556-2.489-4.667-5.6-14.622-5.6a47.345,47.345,0,0,0-15.244,2.567l-0.466.622-0.389,8.477,0.622,0.312c2.722-1.089,7.778-3.111,12.988-3.111,2.878,0,4.045.466,5.056,1.477a4.909,4.909,0,0,1,1.011,3.345c-9.333,1.244-13.688,2.1-18.355,4.977a12.437,12.437,0,0,0-5.833,10.655c0,8.322,5.989,13.688,13.61,13.688a16.074,16.074,0,0,0,10.811-4.122v2.878l0.467,0.544c5.6-.233,7.31-0.311,12.366-0.233l0.389-.544c-0.545-7.622-.545-9.567-0.545-16.877Zm-12.833,12.367a12.6,12.6,0,0,1-6.3,2.022c-2.8,0-5.133-1.478-5.133-4.745,0-5.133,6.144-5.988,11.432-6.688v9.411Zm43.711,1.866a11.669,11.669,0,0,1-3.577.7c-3.967,0-4.278-2.489-4.433-3.655a88.88,88.88,0,0,1-.156-9.411l0.156-10.966,7,0.311,0.467-.467,0.778-8.321-0.467-.467h-7.777l0.233-13.066-0.544-.467c-5.289,1.556-6.689,1.945-12.211,3.344l-0.311.545,0.078,9.722-4.2-.156-0.467.389-0.7,8.322,0.467,0.466,4.9-.155-0.234,12.366c-0.077,1.944-.155,3.889-0.155,5.911,0,7.155.155,14.855,12.288,14.855a45.168,45.168,0,0,0,8.166-.934l0.545-.544,0.778-8.011Zm38.733-2.566a23.773,23.773,0,0,1-12.133,3.344c-4.666,0-7.855-1.478-9.721-4.278a11,11,0,0,1-1.711-4.744l25.121-.467,0.466-.544a45.593,45.593,0,0,0-1.244-11.588c-2.722-9.178-8.711-11.044-11.355-11.666a19.9,19.9,0,0,0-5.522-.7c-12.211,0-20.3,8.01-20.3,21.465a25.893,25.893,0,0,0,1.866,10.189c4.511,10.5,15.089,11.432,20.688,11.432,6.456,0,9.255-1.166,13.377-2.8l0.467-.623,0.545-8.788Zm-23.565-13.922c0.233-2.411.777-5.677,3.733-7.544a5.967,5.967,0,0,1,8.088,1.867,9.5,9.5,0,0,1,1.167,5.366Zm102.042-29.71c-6.222.234-7.233,0.234-13.766,0.234l-0.389.466c0.545,8.789.545,11.044,0.623,20.222-3.422.077-6.844,0.155-10.344,0.155-2.722,0-5.522-.078-8.244-0.078l0.155-20.532-0.389-.467c-5.988.234-7.155,0.234-13.921,0.234l-0.467.466c0.389,8.011.856,17.577,0.856,36.865,0,7-.156,10.811-0.311,17.344l0.388,0.466c5.678-.233,7.078-0.311,13.922-0.233l0.389-.467c-0.467-9.644-.545-12.443-0.622-23.721,3.422-.155,6.3-0.233,9.333-0.233,3.111,0,6.221.078,9.332,0.156,0.156,10.5.156,13.066-.233,24.032l0.389,0.466c5.833-.233,7.389-0.311,14-0.233l0.389-.467c-0.622-13.066-.855-26.054-0.855-39.12,0-5.444.077-9.1,0.155-15.088Zm24.191,54.6c-0.389-5.989-.7-10.578-0.7-21.31,0-6.611.155-13.3,0.233-19.911l-0.544-.622-13.377,2.333-0.467.467c0.622,5.911.855,8.633,0.855,19.677,0,8.477-.233,13.222-0.466,19.6l0.466,0.544c5.6-.233,7.156-0.311,13.455-0.233Zm-1.245-49.309,0.234-10.577-0.467-.467-12.677,1.556-0.467.544c0.156,2.8.234,4.433,0.234,6.3,0,1.477,0,3.033-.078,4.511l0.544,0.466c5.289-.933,6.767-1.089,12.289-1.789Zm26.211,23.021c-2.644-.933-4.744-1.789-4.744-3.966,0-.934.622-3.5,5.444-3.5a16.876,16.876,0,0,1,9.722,3.266l0.7-.233,0.778-8.477-0.389-.467a39.609,39.609,0,0,0-11.9-1.944c-3.81,0-11.432.311-15.477,6.144a11.691,11.691,0,0,0-2.1,6.844c0,8.322,6.455,10.81,10.11,12.21l2.956,1.089c2.1,0.7,5.522,1.867,5.522,4.667,0,1.944-1.789,4.044-6.145,4.044a19.461,19.461,0,0,1-8.244-2.178,17.23,17.23,0,0,1-3.111-2.177l-0.7.311c-0.155,4.044-.233,4.9-0.544,8.788l0.389,0.7c3.811,1.4,7.077,2.644,12.755,2.644,5.911,0,17.577-1.088,18.977-12.21a13.316,13.316,0,0,0,.077-1.711c0-8.555-5.988-10.811-10.266-12.444Zm42.7,17.888a11.669,11.669,0,0,1-3.578.7c-3.966,0-4.277-2.489-4.433-3.655a89.18,89.18,0,0,1-.155-9.411l0.155-10.966,7,0.311,0.467-.467,0.777-8.321-0.466-.467h-7.778l0.234-13.066-0.545-.467c-5.288,1.556-6.688,1.945-12.21,3.344l-0.311.545,0.077,9.722-4.2-.156-0.467.389-0.7,8.322,0.467,0.466,4.9-.155-0.233,12.366c-0.078,1.944-.155,3.889-0.155,5.911,0,7.155.155,14.855,12.288,14.855a45.168,45.168,0,0,0,8.166-.934l0.545-.544,0.777-8.011Zm45.344-11.744c0-3.033,0-15.632-10.889-19.91a27.956,27.956,0,0,0-9.488-1.478c-13.533,0-21.155,7.233-21.155,21.544,0,4.977.778,10.033,3.656,14.232,2.022,3.034,5.833,7.233,16.954,7.233C454.043,439.332,458.476,429.377,458.476,417.711Zm-13.455-.078c0,6.378-.856,13.455-7.311,13.455a6.292,6.292,0,0,1-4.355-1.788c-1.323-1.323-2.8-3.967-2.8-11.511,0-2.255,0-7.233,1.555-9.955a6.442,6.442,0,0,1,5.678-3.5,6.541,6.541,0,0,1,4.977,2.411C444.632,409,445.021,413.434,445.021,417.633Zm43.322-8.088,2.178-12.677-0.467-.545c-0.544,0-1.089-.077-1.633-0.077-3.189,0-6.766,1.788-9.255,7.544l0.233-7.156-0.622-.622c-5.755,1.245-7.233,1.478-12.911,2.333l-0.466.467c0.466,5.833.7,9.333,0.7,20.144,0,6.377-.078,12.755-0.234,19.21l0.467,0.466c5.755-.233,7-0.311,13.222-0.233l0.389-.544c-0.312-6.3-.778-15.088-0.778-20.455,0-3.5,0-8.633,5.288-8.633a5.823,5.823,0,0,1,3.189,1.089Zm20.767,28.31c-0.389-5.989-.7-10.578-0.7-21.31,0-6.611.156-13.3,0.234-19.911l-0.545-.622-13.377,2.333-0.467.467c0.623,5.911.856,8.633,0.856,19.677,0,8.477-.233,13.222-0.467,19.6l0.467,0.544c5.6-.233,7.155-0.311,13.455-0.233Zm-1.244-49.309,0.233-10.577-0.466-.467-12.678,1.556-0.466.544c0.155,2.8.233,4.433,0.233,6.3,0,1.477,0,3.033-.078,4.511l0.545,0.466c5.288-.933,6.766-1.089,12.288-1.789ZM548.154,427.2a13.856,13.856,0,0,1-8.089,2.488c-8.788,0-10.577-7.31-10.577-11.977,0-5.677,2.489-12.21,10.033-12.21,3.422,0,5.289,1.244,7.622,2.8l0.778-.234c0.311-4.122.388-5.211,1.011-9.333l-0.389-.466a32.334,32.334,0,0,0-10.889-2.022c-18.277,0-21.854,13.843-21.854,21.776,0,8.944,4.666,21.077,22.165,21.077A32.581,32.581,0,0,0,548,437.388l0.467-.467,0.311-9.332ZM240.583,476.668l-9.878.156-0.466.467c0.311,10.11.544,16.877,0.544,25.821,0,9.488-.233,18.9-0.467,28.387l0.467,0.467c5.755-.234,7-0.311,13.222-0.234l0.389-.466c-0.312-8.478-.312-10.422-0.312-18.355,8.711,0.078,18.044.078,23.644-6.766a20,20,0,0,0,4.044-12.522c0-3.344-.778-10.733-7.233-14.388-4.666-2.722-11.277-2.722-17.11-2.722Zm3.5,9.411c1.711-.078,3.345-0.078,5.056-0.078,6.844,0.156,8.71,3.656,8.71,8.167,0,1.088,0,5.6-4.122,7.855-2.1,1.166-4.977,1.322-9.644,1.322V486.079Zm66.111,22.477c0.077-7,.077-10.033-1.945-13.3-1.555-2.488-4.666-5.6-14.621-5.6a47.337,47.337,0,0,0-15.244,2.566l-0.467.622-0.389,8.478,0.623,0.311c2.722-1.089,7.777-3.111,12.988-3.111,2.878,0,4.044.467,5.055,1.478a4.9,4.9,0,0,1,1.011,3.344c-9.333,1.244-13.688,2.1-18.354,4.977a12.438,12.438,0,0,0-5.833,10.656c0,8.321,5.988,13.688,13.61,13.688a16.084,16.084,0,0,0,10.811-4.122v2.877l0.466,0.545c5.6-.234,7.311-0.311,12.366-0.234l0.389-.544c-0.544-7.622-.544-9.566-0.544-16.877ZM297.36,520.922a12.6,12.6,0,0,1-6.3,2.022c-2.8,0-5.133-1.478-5.133-4.744,0-5.133,6.144-5.989,11.433-6.689v9.411Zm44.411-18.044,2.178-12.677-0.467-.544c-0.544,0-1.089-.078-1.633-0.078-3.189,0-6.767,1.789-9.255,7.544l0.233-7.155-0.622-.622c-5.756,1.244-7.233,1.477-12.911,2.333l-0.466.466c0.466,5.834.7,9.333,0.7,20.144,0,6.377-.078,12.755-0.234,19.21l0.467,0.467c5.755-.234,7-0.311,13.221-0.234l0.389-.544c-0.311-6.3-.777-15.088-0.777-20.455,0-3.5,0-8.632,5.288-8.632a5.825,5.825,0,0,1,3.189,1.088Zm46.666,27.843c-7.311-12.366-8.089-13.766-14-24.421,5.367-7.31,5.911-8.088,11.433-15.166l-0.389-.777-12.677.155-0.778.545c-6.066,10.5-6.844,11.744-10.421,17.11v-8.633c0.077-14.544.155-17.655,0.544-29.4l-0.622-.466-13.533,2.022-0.466.544c0.544,7.544.777,11.2,0.933,21.388,0.155,12.6.155,25.2,0.078,37.8l0.544,0.545c5.211-.234,6.689-0.234,12.6-0.234l0.467-.544-0.467-13.144-0.077-8.944c6.766,12.444,7.622,14.155,11.588,22.4l0.7,0.467,14-.545Z"/>
</svg>
