<?xml version="1.0" encoding="UTF-8"?>
<svg xmlns="http://www.w3.org/2000/svg" xmlns:xlink="http://www.w3.org/1999/xlink" width="975" height="1300" viewBox="0 0 975 1300">
<path fill-rule="nonzero" fill="rgb(34.901961%, 14.901961%, 14.901961%)" fill-opacity="1" d="M 210.875 566.25 C 200.375 561.875 194.875 559.625 194.875 554 C 194.875 550.125 198.5 545.25 206.75 545.25 C 216.25 545.25 221.875 549.125 226.5 552.25 L 227.625 551.75 L 228.625 535.375 L 228 534.5 C 222.625 532.25 217 529.875 204.875 529.875 C 181.375 529.875 173.25 543.125 173.25 556.5 C 173.25 571.625 185 577.125 192 580.5 L 196.125 582.375 C 204.75 586 211.375 589.125 211.375 595.75 C 211.375 600.5 207.25 606.125 196.375 606.125 C 185 606.125 178.625 601.125 175 598.25 L 173.75 598.625 L 172.875 616.25 L 173.625 617.25 C 175 617.75 176.375 618.375 177.75 618.75 C 180.625 619.75 188 621.875 197.375 621.875 C 201.125 621.875 210.625 621.5 218.125 618 C 228.625 612.875 233.125 603.375 233.125 592.75 C 233.125 585.625 230.375 578 223.75 572.875 C 220.375 570.375 217.125 568.875 214.125 567.5 Z M 280 605.625 C 277.875 606.25 276.375 606.75 274.25 606.75 C 267.875 606.75 267.375 602.75 267.125 600.875 C 266.75 597.625 266.75 590.75 266.875 585.75 L 267.125 568.125 L 278.375 568.625 L 279.125 567.875 L 280.375 554.5 L 279.625 553.75 L 267.125 553.75 L 267.5 532.75 L 266.625 532 C 258.125 534.5 255.875 535.125 247 537.375 L 246.5 538.25 L 246.625 553.875 L 239.875 553.625 L 239.125 554.25 L 238 567.625 L 238.75 568.375 L 246.625 568.125 L 246.25 588 C 246.125 591.125 246 594.25 246 597.5 C 246 609 246.25 621.375 265.75 621.375 C 270.625 621.375 274.5 620.625 278.875 619.875 L 279.75 619 L 281 606.125 Z M 352.875 586.75 C 352.875 581.875 352.875 561.625 335.375 554.75 C 329.875 552.625 323.375 552.375 320.125 552.375 C 298.375 552.375 286.125 564 286.125 587 C 286.125 595 287.375 603.125 292 609.875 C 295.25 614.75 301.375 621.5 319.25 621.5 C 345.75 621.5 352.875 605.5 352.875 586.75 M 331.25 586.625 C 331.25 596.875 329.875 608.25 319.5 608.25 C 316.25 608.25 314 606.75 312.5 605.375 C 310.375 603.25 308 599 308 586.875 C 308 583.25 308 575.25 310.5 570.875 C 312.375 567.5 315.625 565.25 319.625 565.25 C 323.125 565.25 326 567.125 327.625 569.125 C 330.625 572.75 331.25 579.875 331.25 586.625 Z M 426 619.125 C 425.375 608.125 425.375 604.625 425.125 592.375 L 425.125 582.625 C 425 570.625 424.875 564.875 421.75 559.75 C 417.875 553.25 410.75 552.25 406.25 552.25 C 398.625 552.25 392 556.25 386.25 559.625 L 386.5 552.75 L 385.25 551.875 C 375.625 553.875 373.5 554.25 364.125 555.5 L 363.375 556.375 C 364.375 567.25 365.125 575.125 365.125 595.5 C 365.125 603.5 365 611.5 364.875 619.5 L 365.625 620.25 C 374.625 619.875 376.5 619.875 386.5 619.875 L 387.25 619.125 C 386.5 599.875 386.375 595 386.25 572.625 C 388.875 570.875 391.875 568.75 395.875 568.75 C 402.75 568.75 403.375 576.125 403.75 580.625 C 404 584.75 404.125 601.875 404.125 606.625 C 404.125 610.875 404 615.25 404 619.5 L 404.75 620.25 C 413 620 415.125 619.875 425.125 619.875 Z M 495.75 601.5 C 491 604 485.375 606.875 476.25 606.875 C 468.75 606.875 463.625 604.5 460.625 600 C 458.75 597.375 458.375 594.875 457.875 592.375 L 498.25 591.625 L 499 590.75 C 498.875 584.625 498.75 578.375 497 572.125 C 492.625 557.375 483 554.375 478.75 553.375 C 475.625 552.5 472.75 552.25 469.875 552.25 C 450.25 552.25 437.25 565.125 437.25 586.75 C 437.25 592.625 438.25 598.75 440.25 603.125 C 447.5 620 464.5 621.5 473.5 621.5 C 483.875 621.5 488.375 619.625 495 617 L 495.75 616 L 496.625 601.875 L 495.75 601.5 M 457.875 579.125 C 458.25 575.25 459.125 570 463.875 567 C 465.375 566 467.125 565.625 468.875 565.625 C 473 565.625 475.5 567.75 476.875 570 C 478.625 572.75 478.75 575.75 478.75 578.625 Z M 600.75 602.875 C 587.125 603.625 576.25 603.875 572.5 603.875 L 570 603.875 C 569.75 570.5 569.875 562 570.875 532.125 L 570.125 531.375 C 559.375 531.875 556.5 531.875 547.875 531.75 L 547.125 532.5 C 547.625 542.5 547.75 545.5 547.75 560.375 C 547.75 580.125 547.625 599.875 547.625 619.625 L 548.25 620.375 C 572.75 620 577.25 620 599.75 620 L 600.375 619.25 L 601.375 603.5 Z M 667.75 582.75 C 667.875 571.5 667.875 566.625 664.625 561.375 C 662.125 557.375 657.125 552.375 641.125 552.375 C 630.375 552.375 623.75 554.375 616.625 556.5 L 615.875 557.5 L 615.25 571.125 L 616.25 571.625 C 620.625 569.875 628.75 566.625 637.125 566.625 C 641.75 566.625 643.625 567.375 645.25 569 C 646.5 570.25 646.875 572.5 646.875 574.375 C 631.875 576.375 624.875 577.75 617.375 582.375 C 610.375 586.75 608 593.875 608 599.5 C 608 612.875 617.625 621.5 629.875 621.5 C 639.25 621.5 644.625 617 647.25 614.875 L 647.25 619.5 L 648 620.375 C 657 620 659.75 619.875 667.875 620 L 668.5 619.125 C 667.625 606.875 667.625 603.75 667.625 592 L 667.75 582.75 M 647.125 602.625 C 644.5 604.125 641.125 605.875 637 605.875 C 632.5 605.875 628.75 603.5 628.75 598.25 C 628.75 590 638.625 588.625 647.125 587.5 Z M 746.625 618.375 C 734.875 598.5 733.625 596.25 724.125 579.125 C 732.75 567.375 733.625 566.125 742.5 554.75 L 741.875 553.5 L 721.5 553.75 L 720.25 554.625 C 710.5 571.5 709.25 573.5 703.5 582.125 L 703.5 568.25 C 703.625 544.875 703.75 539.875 704.375 521 L 703.375 520.25 L 681.625 523.5 L 680.875 524.375 C 681.75 536.5 682.125 542.375 682.375 558.75 C 682.625 579 682.625 599.25 682.5 619.5 L 683.375 620.375 C 691.75 620 694.125 620 703.625 620 L 704.375 619.125 L 703.625 598 L 703.5 583.625 C 714.375 603.625 715.75 606.375 722.125 619.625 L 723.25 620.375 L 745.75 619.5 Z M 808.125 601.5 C 803.375 604 797.75 606.875 788.625 606.875 C 781.125 606.875 776 604.5 773 600 C 771.125 597.375 770.75 594.875 770.25 592.375 L 810.625 591.625 L 811.375 590.75 C 811.25 584.625 811.125 578.375 809.375 572.125 C 805 557.375 795.375 554.375 791.125 553.375 C 788 552.5 785.125 552.25 782.25 552.25 C 762.625 552.25 749.625 565.125 749.625 586.75 C 749.625 592.625 750.625 598.75 752.625 603.125 C 759.875 620 776.875 621.5 785.875 621.5 C 796.25 621.5 800.75 619.625 807.375 617 L 808.125 616 L 809 601.875 L 808.125 601.5 M 770.25 579.125 C 770.625 575.25 771.5 570 776.25 567 C 777.75 566 779.5 565.625 781.25 565.625 C 785.375 565.625 787.875 567.75 789.25 570 C 791 572.75 791.125 575.75 791.125 578.625 Z M 815.375 620 "/>
<path fill-rule="nonzero" fill="rgb(34.901961%, 14.901961%, 14.901961%)" fill-opacity="1" d="M 115.5625 681.5 L 99.6875 681.75 L 98.9375 682.5 C 99.4375 698.75 99.8125 709.625 99.8125 724 C 99.8125 739.25 99.4375 754.375 99.0625 769.625 L 99.8125 770.375 C 109.0625 770 111.0625 769.875 121.0625 770 L 121.6875 769.25 C 121.1875 755.625 121.1875 752.5 121.1875 739.75 C 135.1875 739.875 150.1875 739.875 159.1875 728.875 C 162.6875 724.625 165.6875 717.5 165.6875 708.75 C 165.6875 703.375 164.4375 691.5 154.0625 685.625 C 146.5625 681.25 135.9375 681.25 126.5625 681.25 L 115.5625 681.5 M 121.1875 696.625 C 123.9375 696.5 126.5625 696.5 129.3125 696.5 C 140.3125 696.75 143.3125 702.375 143.3125 709.625 C 143.3125 711.375 143.3125 718.625 136.6875 722.25 C 133.3125 724.125 128.6875 724.375 121.1875 724.375 Z M 229.9375 732.75 C 230.0625 721.5 230.0625 716.625 226.8125 711.375 C 224.3125 707.375 219.3125 702.375 203.3125 702.375 C 192.5625 702.375 185.9375 704.375 178.8125 706.5 L 178.0625 707.5 L 177.4375 721.125 L 178.4375 721.625 C 182.8125 719.875 190.9375 716.625 199.3125 716.625 C 203.9375 716.625 205.8125 717.375 207.4375 719 C 208.6875 720.25 209.0625 722.5 209.0625 724.375 C 194.0625 726.375 187.0625 727.75 179.5625 732.375 C 172.5625 736.75 170.1875 743.875 170.1875 749.5 C 170.1875 762.875 179.8125 771.5 192.0625 771.5 C 201.4375 771.5 206.8125 767 209.4375 764.875 L 209.4375 769.5 L 210.1875 770.375 C 219.1875 770 221.9375 769.875 230.0625 770 L 230.6875 769.125 C 229.8125 756.875 229.8125 753.75 229.8125 742 L 229.9375 732.75 M 209.3125 752.625 C 206.6875 754.125 203.3125 755.875 199.1875 755.875 C 194.6875 755.875 190.9375 753.5 190.9375 748.25 C 190.9375 740 200.8125 738.625 209.3125 737.5 Z M 280.6875 723.625 L 284.1875 703.25 L 283.4375 702.375 C 282.5625 702.375 281.6875 702.25 280.8125 702.25 C 275.6875 702.25 269.9375 705.125 265.9375 714.375 L 266.3125 702.875 L 265.3125 701.875 C 256.0625 703.875 253.6875 704.25 244.5625 705.625 L 243.8125 706.375 C 244.5625 715.75 244.9375 721.375 244.9375 738.75 C 244.9375 749 244.8125 759.25 244.5625 769.625 L 245.3125 770.375 C 254.5625 770 256.5625 769.875 266.5625 770 L 267.1875 769.125 C 266.6875 759 265.9375 744.875 265.9375 736.25 C 265.9375 730.625 265.9375 722.375 274.4375 722.375 C 276.5625 722.375 277.8125 723.125 279.5625 724.125 Z M 355.6875 768.375 C 343.9375 748.5 342.6875 746.25 333.1875 729.125 C 341.8125 717.375 342.6875 716.125 351.5625 704.75 L 350.9375 703.5 L 330.5625 703.75 L 329.3125 704.625 C 319.5625 721.5 318.3125 723.5 312.5625 732.125 L 312.5625 718.25 C 312.6875 694.875 312.8125 689.875 313.4375 671 L 312.4375 670.25 L 290.6875 673.5 L 289.9375 674.375 C 290.8125 686.5 291.1875 692.375 291.4375 708.75 C 291.6875 729 291.6875 749.25 291.5625 769.5 L 292.4375 770.375 C 300.8125 770 303.1875 770 312.6875 770 L 313.4375 769.125 L 312.6875 748 L 312.5625 733.625 C 323.4375 753.625 324.8125 756.375 331.1875 769.625 L 332.3125 770.375 L 354.8125 769.5 Z M 414.9375 681.5 L 399.0625 681.75 L 398.3125 682.5 C 398.8125 698.75 399.1875 709.625 399.1875 724 C 399.1875 739.25 398.8125 754.375 398.4375 769.625 L 399.1875 770.375 C 408.4375 770 410.4375 769.875 420.4375 770 L 421.0625 769.25 C 420.5625 755.625 420.5625 752.5 420.5625 739.75 C 434.5625 739.875 449.5625 739.875 458.5625 728.875 C 462.0625 724.625 465.0625 717.5 465.0625 708.75 C 465.0625 703.375 463.8125 691.5 453.4375 685.625 C 445.9375 681.25 435.3125 681.25 425.9375 681.25 L 414.9375 681.5 M 420.5625 696.625 C 423.3125 696.5 425.9375 696.5 428.6875 696.5 C 439.6875 696.75 442.6875 702.375 442.6875 709.625 C 442.6875 711.375 442.6875 718.625 436.0625 722.25 C 432.6875 724.125 428.0625 724.375 420.5625 724.375 Z M 509.8125 723.625 L 513.3125 703.25 L 512.5625 702.375 C 511.6875 702.375 510.8125 702.25 509.9375 702.25 C 504.8125 702.25 499.0625 705.125 495.0625 714.375 L 495.4375 702.875 L 494.4375 701.875 C 485.1875 703.875 482.8125 704.25 473.6875 705.625 L 472.9375 706.375 C 473.6875 715.75 474.0625 721.375 474.0625 738.75 C 474.0625 749 473.9375 759.25 473.6875 769.625 L 474.4375 770.375 C 483.6875 770 485.6875 769.875 495.6875 770 L 496.3125 769.125 C 495.8125 759 495.0625 744.875 495.0625 736.25 C 495.0625 730.625 495.0625 722.375 503.5625 722.375 C 505.6875 722.375 506.9375 723.125 508.6875 724.125 Z M 584.1875 736.75 C 584.1875 731.875 584.1875 711.625 566.6875 704.75 C 561.1875 702.625 554.6875 702.375 551.4375 702.375 C 529.6875 702.375 517.4375 714 517.4375 737 C 517.4375 745 518.6875 753.125 523.3125 759.875 C 526.5625 764.75 532.6875 771.5 550.5625 771.5 C 577.0625 771.5 584.1875 755.5 584.1875 736.75 M 562.5625 736.625 C 562.5625 746.875 561.1875 758.25 550.8125 758.25 C 547.5625 758.25 545.3125 756.75 543.8125 755.375 C 541.6875 753.25 539.3125 749 539.3125 736.875 C 539.3125 733.25 539.3125 725.25 541.8125 720.875 C 543.6875 717.5 546.9375 715.25 550.9375 715.25 C 554.4375 715.25 557.3125 717.125 558.9375 719.125 C 561.9375 722.75 562.5625 729.875 562.5625 736.625 Z M 616.8125 703.125 L 615.8125 702 C 606.6875 704 604.0625 704.5 595.0625 705.625 L 594.3125 706.5 C 595.6875 721.375 596.1875 727.125 596.1875 763.125 C 596.1875 778 595.9375 786.5 595.5625 800.625 L 596.3125 801.25 C 605.1875 800.875 607.8125 800.75 617.3125 800.875 L 618.0625 800.25 L 617.1875 770.5 C 626.3125 770.375 638.9375 770.25 649.0625 760.75 C 657.0625 753.25 659.6875 742.625 659.6875 734.125 C 659.6875 714.25 647.5625 702.25 633.5625 702.25 C 624.9375 702.25 620.0625 705.75 616.5625 708.125 L 616.8125 703.125 M 617.0625 720.125 C 619.8125 718.5 621.4375 717.625 624.5625 717.625 C 626.4375 717.625 630.1875 717.875 633.3125 721.375 C 637.1875 725.625 637.8125 732 637.8125 736.25 C 637.8125 743.5 635.4375 750 630.4375 753.5 C 626.4375 756.25 621.4375 756.5 617.0625 756.625 Z M 727.0625 751.5 C 722.3125 754 716.6875 756.875 707.5625 756.875 C 700.0625 756.875 694.9375 754.5 691.9375 750 C 690.0625 747.375 689.6875 744.875 689.1875 742.375 L 729.5625 741.625 L 730.3125 740.75 C 730.1875 734.625 730.0625 728.375 728.3125 722.125 C 723.9375 707.375 714.3125 704.375 710.0625 703.375 C 706.9375 702.5 704.0625 702.25 701.1875 702.25 C 681.5625 702.25 668.5625 715.125 668.5625 736.75 C 668.5625 742.625 669.5625 748.75 671.5625 753.125 C 678.8125 770 695.8125 771.5 704.8125 771.5 C 715.1875 771.5 719.6875 769.625 726.3125 767 L 727.0625 766 L 727.9375 751.875 L 727.0625 751.5 M 689.1875 729.125 C 689.5625 725.25 690.4375 720 695.1875 717 C 696.6875 716 698.4375 715.625 700.1875 715.625 C 704.3125 715.625 706.8125 717.75 708.1875 720 C 709.9375 722.75 710.0625 725.75 710.0625 728.625 Z M 777.9375 723.625 L 781.4375 703.25 L 780.6875 702.375 C 779.8125 702.375 778.9375 702.25 778.0625 702.25 C 772.9375 702.25 767.1875 705.125 763.1875 714.375 L 763.5625 702.875 L 762.5625 701.875 C 753.3125 703.875 750.9375 704.25 741.8125 705.625 L 741.0625 706.375 C 741.8125 715.75 742.1875 721.375 742.1875 738.75 C 742.1875 749 742.0625 759.25 741.8125 769.625 L 742.5625 770.375 C 751.8125 770 753.8125 769.875 763.8125 770 L 764.4375 769.125 C 763.9375 759 763.1875 744.875 763.1875 736.25 C 763.1875 730.625 763.1875 722.375 771.6875 722.375 C 773.8125 722.375 775.0625 723.125 776.8125 724.125 Z M 823.6875 755.625 C 821.5625 756.25 820.0625 756.75 817.9375 756.75 C 811.5625 756.75 811.0625 752.75 810.8125 750.875 C 810.4375 747.625 810.4375 740.75 810.5625 735.75 L 810.8125 718.125 L 822.0625 718.625 L 822.8125 717.875 L 824.0625 704.5 L 823.3125 703.75 L 810.8125 703.75 L 811.1875 682.75 L 810.3125 682 C 801.8125 684.5 799.5625 685.125 790.6875 687.375 L 790.1875 688.25 L 790.3125 703.875 L 783.5625 703.625 L 782.8125 704.25 L 781.6875 717.625 L 782.4375 718.375 L 790.3125 718.125 L 789.9375 738 C 789.8125 741.125 789.6875 744.25 789.6875 747.5 C 789.6875 759 789.9375 771.375 809.4375 771.375 C 814.3125 771.375 818.1875 770.625 822.5625 769.875 L 823.4375 769 L 824.6875 756.125 Z M 888.8125 703.375 L 871.4375 703.75 L 870.4375 704.625 C 868.3125 713.25 867.8125 715.125 864.8125 724.875 L 861.5625 735.625 L 858.8125 745 L 856.4375 736.125 L 852.8125 722.875 L 847.8125 703.875 L 846.8125 703.125 C 837.0625 703.875 834.9375 704 824.6875 704.25 L 824.0625 705.125 C 828.5625 717 840.1875 748.375 847.9375 772.375 C 842.8125 785.375 841.8125 787.625 836.1875 800 L 836.8125 801 C 839.9375 800.875 843.4375 800.75 846.6875 800.75 C 849.8125 800.75 853.0625 800.875 856.1875 800.875 L 857.0625 800.125 C 863.9375 773.125 867.3125 762.625 883.8125 719.125 C 885.6875 714.125 887.5625 709.25 889.3125 704.375 Z M 887.9375 770 "/>
</svg>
