<svg xmlns="http://www.w3.org/2000/svg" width="612" height="817" viewBox="0 0 612 817">
  <defs>
    <style>
      .cls-1 {
        fill: #592626;
        fill-rule: evenodd;
      }
    </style>
  </defs>
  <path id="Stone_Lake_Park_Property" data-name="Stone Lake Park Property" class="cls-1" d="M132,357.623c-6.533-2.722-9.955-4.122-9.955-7.622,0-2.411,2.256-5.444,7.389-5.444,5.911,0,9.41,2.411,12.288,4.355l0.7-.311,0.622-10.188-0.389-.545a31.857,31.857,0,0,0-14.388-2.877c-14.621,0-19.677,8.244-19.677,16.566,0,9.41,7.311,12.832,11.666,14.932l2.567,1.167c5.366,2.255,9.488,4.2,9.488,8.322,0,2.955-2.566,6.455-9.333,6.455a19.841,19.841,0,0,1-13.3-4.9l-0.778.233-0.544,10.967,0.467,0.622c0.855,0.311,1.711.7,2.566,0.933a38.753,38.753,0,0,0,12.211,1.944c2.333,0,8.244-.233,12.91-2.411,6.533-3.188,9.333-9.1,9.333-15.71a15.415,15.415,0,0,0-5.833-12.366,31.446,31.446,0,0,0-5.989-3.344Zm43.011,24.5a11.669,11.669,0,0,1-3.577.7c-3.967,0-4.278-2.489-4.433-3.656a88.86,88.86,0,0,1-.156-9.41l0.156-10.966,7,0.311,0.467-.467,0.778-8.322-0.467-.466h-7.777l0.233-13.066-0.544-.467c-5.289,1.555-6.689,1.944-12.211,3.344l-0.311.545,0.078,9.721-4.2-.155-0.467.389-0.7,8.321,0.467,0.467,4.9-.155-0.234,12.366c-0.077,1.944-.155,3.888-0.155,5.91,0,7.156.155,14.855,12.288,14.855a45.17,45.17,0,0,0,8.166-.933l0.545-.544,0.778-8.011Zm45.344-11.744c0-3.033,0-15.633-10.888-19.91a27.961,27.961,0,0,0-9.489-1.478c-13.532,0-21.154,7.233-21.154,21.543,0,4.978.777,10.033,3.655,14.233,2.022,3.033,5.833,7.233,16.955,7.233C215.926,392,220.359,382.044,220.359,370.378ZM206.9,370.3c0,6.378-.855,13.455-7.311,13.455a6.288,6.288,0,0,1-4.355-1.789c-1.322-1.322-2.8-3.966-2.8-11.51,0-2.256,0-7.233,1.556-9.955a6.439,6.439,0,0,1,5.677-3.5,6.538,6.538,0,0,1,4.978,2.411C206.515,361.667,206.9,366.1,206.9,370.3Zm58.955,20.221c-0.389-6.844-.389-9.021-0.544-16.643v-6.067c-0.078-7.466-.156-11.044-2.1-14.232-2.411-4.045-6.844-4.667-9.644-4.667-4.744,0-8.866,2.489-12.444,4.589l0.155-4.278-0.777-.544c-5.989,1.244-7.311,1.478-13.144,2.255l-0.467.545a216.367,216.367,0,0,1,1.089,24.343c0,4.978-.078,9.955-0.155,14.933l0.466,0.466c5.6-.233,6.767-0.233,12.988-0.233l0.467-.467c-0.467-11.977-.544-15.01-0.622-28.932,1.633-1.088,3.5-2.411,5.989-2.411,4.277,0,4.666,4.589,4.9,7.389,0.156,2.567.234,13.222,0.234,16.177,0,2.644-.078,5.366-0.078,8.011l0.466,0.466c5.134-.155,6.456-0.233,12.678-0.233Zm43.4-10.966a23.763,23.763,0,0,1-12.133,3.345c-4.666,0-7.855-1.478-9.721-4.278a11,11,0,0,1-1.711-4.744l25.121-.467,0.466-.544a45.56,45.56,0,0,0-1.244-11.589c-2.722-9.177-8.711-11.044-11.355-11.666a19.933,19.933,0,0,0-5.522-.7c-12.211,0-20.3,8.011-20.3,21.466a25.873,25.873,0,0,0,1.867,10.188c4.51,10.5,15.088,11.433,20.687,11.433,6.456,0,9.256-1.167,13.378-2.8l0.466-.622,0.545-8.788Zm-23.565-13.921c0.233-2.411.777-5.678,3.733-7.544a5.968,5.968,0,0,1,8.088,1.866,9.5,9.5,0,0,1,1.167,5.367Zm88.9,14.777c-8.478.466-15.244,0.622-17.577,0.622H355.46c-0.155-20.766-.078-26.054.545-44.642l-0.467-.467c-6.689.311-8.477,0.311-13.844,0.233l-0.466.467c0.311,6.222.388,8.088,0.388,17.344,0,12.288-.077,24.576-0.077,36.864l0.389,0.467c15.243-.233,18.043-0.233,32.042-0.233l0.389-.467,0.623-9.8Zm41.688-12.522c0.078-7,.078-10.033-1.944-13.3-1.555-2.489-4.666-5.6-14.621-5.6a47.308,47.308,0,0,0-15.244,2.567l-0.467.622-0.389,8.477,0.623,0.311c2.722-1.089,7.777-3.111,12.988-3.111,2.877,0,4.044.467,5.055,1.478a4.9,4.9,0,0,1,1.011,3.344c-9.333,1.245-13.688,2.1-18.354,4.978a12.436,12.436,0,0,0-5.834,10.655c0,8.322,5.989,13.688,13.611,13.688a16.079,16.079,0,0,0,10.81-4.122v2.878l0.467,0.544c5.6-.233,7.311-0.311,12.366-0.233l0.389-.545c-0.544-7.621-.544-9.566-0.544-16.877Zm-12.832,12.366a12.6,12.6,0,0,1-6.3,2.022c-2.8,0-5.133-1.477-5.133-4.744,0-5.133,6.144-5.988,11.433-6.688v9.41Zm61.91,9.8c-7.311-12.366-8.089-13.766-14-24.421,5.366-7.311,5.91-8.089,11.432-15.166l-0.388-.778-12.678.156-0.777.544c-6.067,10.5-6.845,11.744-10.422,17.11v-8.633c0.078-14.543.155-17.654,0.544-29.4L438.449,329l-13.533,2.022-0.466.545c0.544,7.544.778,11.2,0.933,21.388,0.156,12.6.156,25.2,0.078,37.8l0.544,0.544c5.211-.233,6.689-0.233,12.6-0.233l0.466-.545-0.466-13.143-0.078-8.944c6.766,12.443,7.622,14.154,11.588,22.4l0.7,0.467,14-.544Zm38.267-10.5a23.766,23.766,0,0,1-12.133,3.345c-4.666,0-7.855-1.478-9.722-4.278a11.014,11.014,0,0,1-1.711-4.744l25.121-.467,0.467-.544a45.651,45.651,0,0,0-1.244-11.589c-2.722-9.177-8.711-11.044-11.355-11.666a19.943,19.943,0,0,0-5.522-.7c-12.211,0-20.3,8.011-20.3,21.466a25.891,25.891,0,0,0,1.866,10.188c4.511,10.5,15.088,11.433,20.688,11.433,6.455,0,9.255-1.167,13.377-2.8l0.467-.622,0.544-8.788ZM480.06,365.634c0.234-2.411.778-5.678,3.734-7.544a5.968,5.968,0,0,1,8.088,1.866,9.5,9.5,0,0,1,1.167,5.367Zm-406.35,63.7-9.877.156-0.467.466c0.311,10.111.544,16.877,0.544,25.821,0,9.489-.233,18.9-0.467,28.388l0.467,0.466c5.755-.233,7-0.311,13.222-0.233l0.389-.467c-0.311-8.477-.311-10.421-0.311-18.354,8.711,0.078,18.044.078,23.644-6.767A19.991,19.991,0,0,0,104.9,446.29c0-3.344-.778-10.733-7.233-14.388C93,429.18,86.388,429.18,80.555,429.18Zm3.5,9.411c1.711-.078,3.344-0.078,5.055-0.078,6.844,0.156,8.711,3.655,8.711,8.166,0,1.089,0,5.6-4.122,7.855-2.1,1.167-4.978,1.323-9.644,1.323V438.746Zm66.11,22.476c0.078-7,.078-10.032-1.944-13.3-1.555-2.489-4.666-5.6-14.622-5.6a47.333,47.333,0,0,0-15.243,2.567l-0.467.622-0.389,8.477,0.622,0.312c2.723-1.089,7.778-3.111,12.989-3.111,2.877,0,4.044.466,5.055,1.477a4.9,4.9,0,0,1,1.011,3.345c-9.333,1.244-13.688,2.1-18.355,4.977a12.437,12.437,0,0,0-5.833,10.655c0,8.322,5.989,13.688,13.611,13.688a16.074,16.074,0,0,0,10.81-4.122v2.878l0.467,0.544c5.6-.233,7.311-0.311,12.366-0.233l0.389-.544c-0.544-7.622-.544-9.567-0.544-16.877Zm-12.832,12.367a12.6,12.6,0,0,1-6.3,2.022c-2.8,0-5.133-1.478-5.133-4.745,0-5.133,6.144-5.988,11.433-6.688v9.411ZM174.9,455.545l2.177-12.677-0.466-.545c-0.545,0-1.089-.077-1.634-0.077-3.188,0-6.766,1.788-9.255,7.544l0.234-7.156-0.622-.622c-5.756,1.245-7.233,1.478-12.911,2.333l-0.467.467c0.467,5.833.7,9.333,0.7,20.144,0,6.377-.077,12.755-0.233,19.21l0.467,0.466c5.755-.233,7-0.311,13.221-0.233l0.389-.544c-0.311-6.3-.778-15.088-0.778-20.455,0-3.5,0-8.633,5.289-8.633a5.826,5.826,0,0,1,3.189,1.089Zm46.666,27.843c-7.311-12.366-8.089-13.766-14-24.421,5.367-7.311,5.911-8.088,11.433-15.166l-0.389-.778-12.677.156-0.778.544c-6.066,10.5-6.844,11.744-10.422,17.111V452.2c0.078-14.544.156-17.655,0.545-29.4l-0.622-.467-13.533,2.023-0.467.544c0.545,7.544.778,11.2,0.934,21.388,0.155,12.6.155,25.2,0.077,37.8l0.545,0.544c5.211-.233,6.688-0.233,12.6-0.233l0.467-.544-0.467-13.144-0.078-8.944c6.767,12.444,7.622,14.155,11.589,22.4l0.7,0.466,14-.544Zm36.868-54.053-9.878.156-0.466.466c0.311,10.111.544,16.877,0.544,25.821,0,9.489-.233,18.9-0.467,28.388l0.467,0.466c5.755-.233,7-0.311,13.222-0.233l0.389-.467c-0.312-8.477-.312-10.421-0.312-18.354,8.711,0.078,18.044.078,23.644-6.767a19.991,19.991,0,0,0,4.044-12.521c0-3.344-.778-10.733-7.233-14.388-4.666-2.722-11.277-2.722-17.11-2.722Zm3.5,9.411c1.711-.078,3.345-0.078,5.056-0.078,6.844,0.156,8.71,3.655,8.71,8.166,0,1.089,0,5.6-4.122,7.855-2.1,1.167-4.977,1.323-9.644,1.323V438.746Zm55.533,16.8,2.178-12.677-0.467-.545c-0.544,0-1.088-.077-1.633-0.077-3.189,0-6.766,1.788-9.255,7.544l0.233-7.156-0.622-.622c-5.755,1.245-7.233,1.478-12.91,2.333l-0.467.467c0.467,5.833.7,9.333,0.7,20.144,0,6.377-.078,12.755-0.233,19.21l0.466,0.466c5.756-.233,7-0.311,13.222-0.233l0.389-.544c-0.311-6.3-.778-15.088-0.778-20.455,0-3.5,0-8.633,5.289-8.633a5.82,5.82,0,0,1,3.188,1.089Zm46.277,8.166c0-3.033,0-15.632-10.888-19.91a27.956,27.956,0,0,0-9.488-1.478c-13.533,0-21.155,7.233-21.155,21.544,0,4.977.778,10.033,3.655,14.232,2.022,3.034,5.833,7.233,16.955,7.233C359.309,485.332,363.742,475.377,363.742,463.711Zm-13.455-.078c0,6.378-.855,13.455-7.31,13.455a6.3,6.3,0,0,1-4.356-1.788c-1.322-1.323-2.8-3.967-2.8-11.511,0-2.255,0-7.233,1.556-9.955a6.441,6.441,0,0,1,5.677-3.5,6.541,6.541,0,0,1,4.978,2.411C349.9,455,350.287,459.434,350.287,463.633Zm33.757-20.843-0.623-.7a109.424,109.424,0,0,1-12.91,2.255l-0.467.545c0.856,9.255,1.167,12.833,1.167,35.232,0,9.255-.156,14.543-0.389,23.332l0.467,0.389c5.522-.234,7.155-0.311,13.066-0.234l0.466-.389-0.544-18.51c5.677-.078,13.533-0.155,19.832-6.066,4.978-4.667,6.611-11.277,6.611-16.566,0-12.366-7.544-19.832-16.255-19.832a17.112,17.112,0,0,0-10.577,3.655Zm0.155,10.577a8,8,0,0,1,4.667-1.555,6.967,6.967,0,0,1,5.444,2.333c2.411,2.644,2.8,6.611,2.8,9.255,0,4.511-1.478,8.555-4.589,10.733-2.489,1.711-5.6,1.867-8.322,1.944v-22.71Zm68.444,19.522a23.779,23.779,0,0,1-12.133,3.344c-4.667,0-7.855-1.478-9.722-4.278a11,11,0,0,1-1.711-4.744l25.121-.467,0.467-.544a45.6,45.6,0,0,0-1.245-11.588c-2.722-9.178-8.71-11.044-11.355-11.666a19.9,19.9,0,0,0-5.522-.7c-12.21,0-20.3,8.01-20.3,21.465a25.893,25.893,0,0,0,1.867,10.189c4.511,10.5,15.088,11.432,20.688,11.432,6.455,0,9.255-1.166,13.377-2.8l0.467-.623,0.544-8.788Zm-23.566-13.922c0.233-2.411.778-5.677,3.733-7.544a5.969,5.969,0,0,1,8.089,1.867,9.5,9.5,0,0,1,1.166,5.366Zm55.222-3.422,2.177-12.677-0.466-.545c-0.545,0-1.089-.077-1.634-0.077-3.188,0-6.766,1.788-9.255,7.544l0.234-7.156-0.622-.622c-5.756,1.245-7.233,1.478-12.911,2.333l-0.467.467c0.467,5.833.7,9.333,0.7,20.144,0,6.377-.077,12.755-0.233,19.21l0.467,0.466c5.755-.233,7-0.311,13.221-0.233l0.389-.544c-0.311-6.3-.778-15.088-0.778-20.455,0-3.5,0-8.633,5.289-8.633a5.826,5.826,0,0,1,3.189,1.089Zm30.1,19.91a11.675,11.675,0,0,1-3.578.7c-3.966,0-4.277-2.489-4.433-3.655a89.421,89.421,0,0,1-.156-9.411l0.156-10.966,7,0.311,0.466-.467,0.778-8.321-0.467-.467h-7.777l0.233-13.066-0.544-.467c-5.289,1.556-6.689,1.945-12.211,3.344l-0.311.545,0.078,9.722-4.2-.156-0.466.389-0.7,8.322,0.466,0.466,4.9-.155L493.4,464.489c-0.078,1.944-.156,3.889-0.156,5.911,0,7.155.156,14.855,12.289,14.855a45.168,45.168,0,0,0,8.166-.934l0.544-.544,0.778-8.011Zm40.521-32.509-10.81.233-0.622.544c-1.323,5.367-1.634,6.533-3.5,12.6l-2.022,6.688-1.711,5.833-1.478-5.522-2.256-8.244-3.111-11.821-0.622-.467c-6.066.467-7.388,0.544-13.766,0.7l-0.389.544c2.8,7.389,10.033,26.91,14.855,41.843-3.189,8.088-3.811,9.488-7.311,17.188l0.389,0.622c1.945-.078,4.122-0.155,6.144-0.155,1.945,0,3.967.077,5.911,0.077l0.545-.466c4.277-16.8,6.377-23.333,16.643-50.4,1.167-3.111,2.334-6.144,3.422-9.177Z"/>
</svg>
