<?xml version="1.0" encoding="UTF-8"?>
<svg xmlns="http://www.w3.org/2000/svg" xmlns:xlink="http://www.w3.org/1999/xlink" width="975" height="1300" viewBox="0 0 975 1300">
<path fill-rule="nonzero" fill="rgb(34.901961%, 14.901961%, 14.901961%)" fill-opacity="1" d="M 329.5625 456.375 C 316.5625 456.75 314.4375 456.75 300.5625 456.75 L 299.8125 457.5 L 294.0625 477.75 L 289.0625 495.875 L 283.1875 517.625 L 277.6875 495.25 L 274.1875 481.125 L 267.9375 457.125 L 267.3125 456.375 C 253.9375 456.75 251.6875 456.75 237.6875 456.75 L 236.9375 457.5 C 235.6875 494.875 235.1875 504.5 232.4375 544.625 L 233.0625 545.375 C 241.0625 545 243.4375 544.875 250.6875 545 L 251.4375 544.25 L 251.8125 520.375 L 252.5625 496.125 L 253.0625 472.5 L 258.5625 494.625 L 263.3125 512.375 L 271.6875 544.625 L 272.4375 545.375 C 280.1875 545 282.3125 544.875 291.0625 545 L 291.8125 544.25 L 299.0625 517.625 L 304.0625 499.375 L 311.0625 473.125 L 311.0625 495.5 L 311.3125 514.625 L 311.3125 544.625 L 311.9375 545.375 C 320.5625 545 323.9375 544.875 333.5625 545 L 334.1875 544.25 C 333.4375 530 332.5625 515.625 332.0625 501.25 C 331.6875 493.375 331.4375 485.5 331.0625 477.625 C 330.4375 466 330.3125 464.5 330.3125 457.125 Z M 403.9375 507.75 C 404.0625 496.5 404.0625 491.625 400.8125 486.375 C 398.3125 482.375 393.3125 477.375 377.3125 477.375 C 366.5625 477.375 359.9375 479.375 352.8125 481.5 L 352.0625 482.5 L 351.4375 496.125 L 352.4375 496.625 C 356.8125 494.875 364.9375 491.625 373.3125 491.625 C 377.9375 491.625 379.8125 492.375 381.4375 494 C 382.6875 495.25 383.0625 497.5 383.0625 499.375 C 368.0625 501.375 361.0625 502.75 353.5625 507.375 C 346.5625 511.75 344.1875 518.875 344.1875 524.5 C 344.1875 537.875 353.8125 546.5 366.0625 546.5 C 375.4375 546.5 380.8125 542 383.4375 539.875 L 383.4375 544.5 L 384.1875 545.375 C 393.1875 545 395.9375 544.875 404.0625 545 L 404.6875 544.125 C 403.8125 531.875 403.8125 528.75 403.8125 517 L 403.9375 507.75 M 383.3125 527.625 C 380.6875 529.125 377.3125 530.875 373.1875 530.875 C 368.6875 530.875 364.9375 528.5 364.9375 523.25 C 364.9375 515 374.8125 513.625 383.3125 512.5 Z M 440.5625 544.125 C 439.9375 529.75 439.3125 516.625 439.3125 477.125 C 439.3125 465.25 439.4375 459.625 439.9375 446.125 L 439.0625 445.25 L 417.6875 448.625 L 417.1875 449.375 C 418.4375 464.625 418.5625 468.75 418.8125 489 C 418.9375 496.375 418.9375 503.75 418.9375 511.125 C 418.9375 524.625 418.6875 532.125 418.1875 544.5 L 418.9375 545.375 C 427.3125 545 430.6875 544.875 439.8125 545 Z M 510.6875 507.75 C 510.8125 496.5 510.8125 491.625 507.5625 486.375 C 505.0625 482.375 500.0625 477.375 484.0625 477.375 C 473.3125 477.375 466.6875 479.375 459.5625 481.5 L 458.8125 482.5 L 458.1875 496.125 L 459.1875 496.625 C 463.5625 494.875 471.6875 491.625 480.0625 491.625 C 484.6875 491.625 486.5625 492.375 488.1875 494 C 489.4375 495.25 489.8125 497.5 489.8125 499.375 C 474.8125 501.375 467.8125 502.75 460.3125 507.375 C 453.3125 511.75 450.9375 518.875 450.9375 524.5 C 450.9375 537.875 460.5625 546.5 472.8125 546.5 C 482.1875 546.5 487.5625 542 490.1875 539.875 L 490.1875 544.5 L 490.9375 545.375 C 499.9375 545 502.6875 544.875 510.8125 545 L 511.4375 544.125 C 510.5625 531.875 510.5625 528.75 510.5625 517 L 510.6875 507.75 M 490.0625 527.625 C 487.4375 529.125 484.0625 530.875 479.9375 530.875 C 475.4375 530.875 471.6875 528.5 471.6875 523.25 C 471.6875 515 481.5625 513.625 490.0625 512.5 Z M 589.5625 543.375 C 577.8125 523.5 576.5625 521.25 567.0625 504.125 C 575.6875 492.375 576.5625 491.125 585.4375 479.75 L 584.8125 478.5 L 564.4375 478.75 L 563.1875 479.625 C 553.4375 496.5 552.1875 498.5 546.4375 507.125 L 546.4375 493.25 C 546.5625 469.875 546.6875 464.875 547.3125 446 L 546.3125 445.25 L 524.5625 448.5 L 523.8125 449.375 C 524.6875 461.5 525.0625 467.375 525.3125 483.75 C 525.5625 504 525.5625 524.25 525.4375 544.5 L 526.3125 545.375 C 534.6875 545 537.0625 545 546.5625 545 L 547.3125 544.125 L 546.5625 523 L 546.4375 508.625 C 557.3125 528.625 558.6875 531.375 565.0625 544.625 L 566.1875 545.375 L 588.6875 544.5 Z M 659.1875 511.75 C 659.1875 506.875 659.1875 486.625 641.6875 479.75 C 636.1875 477.625 629.6875 477.375 626.4375 477.375 C 604.6875 477.375 592.4375 489 592.4375 512 C 592.4375 520 593.6875 528.125 598.3125 534.875 C 601.5625 539.75 607.6875 546.5 625.5625 546.5 C 652.0625 546.5 659.1875 530.5 659.1875 511.75 M 637.5625 511.625 C 637.5625 521.875 636.1875 533.25 625.8125 533.25 C 622.5625 533.25 620.3125 531.75 618.8125 530.375 C 616.6875 528.25 614.3125 524 614.3125 511.875 C 614.3125 508.25 614.3125 500.25 616.8125 495.875 C 618.6875 492.5 621.9375 490.25 625.9375 490.25 C 629.4375 490.25 632.3125 492.125 633.9375 494.125 C 636.9375 497.75 637.5625 504.875 637.5625 511.625 Z M 696.0625 544.125 C 694.8125 521.375 694.6875 515.25 694.8125 493.125 L 704.6875 493.625 L 705.5625 492.75 L 706.6875 479.5 L 706.0625 478.75 L 694.6875 478.75 L 694.8125 475.875 C 694.8125 468.25 694.9375 461.25 703.0625 461.25 C 704.3125 461.25 705.5625 461.5 706.8125 461.625 L 707.6875 461.125 L 708.8125 447 L 708.1875 446.125 C 705.1875 445.875 702.3125 445.75 699.4375 445.75 C 693.0625 445.75 686.5625 446.5 681.5625 450.25 C 673.8125 456 673.9375 465 673.9375 471.25 L 674.0625 478.75 L 665.9375 478.625 L 665.1875 479.25 L 663.9375 492.5 L 664.6875 493.25 L 674.1875 493 C 674.1875 516.625 674.1875 522.25 673.4375 544.5 L 674.1875 545.375 C 682.6875 545 685.9375 544.875 695.3125 544.875 Z M 740.3125 544.125 C 739.0625 521.375 738.9375 515.25 739.0625 493.125 L 748.9375 493.625 L 749.8125 492.75 L 750.9375 479.5 L 750.3125 478.75 L 738.9375 478.75 L 739.0625 475.875 C 739.0625 468.25 739.1875 461.25 747.3125 461.25 C 748.5625 461.25 749.8125 461.5 751.0625 461.625 L 751.9375 461.125 L 753.0625 447 L 752.4375 446.125 C 749.4375 445.875 746.5625 445.75 743.6875 445.75 C 737.3125 445.75 730.8125 446.5 725.8125 450.25 C 718.0625 456 718.1875 465 718.1875 471.25 L 718.3125 478.75 L 710.1875 478.625 L 709.4375 479.25 L 708.1875 492.5 L 708.9375 493.25 L 718.4375 493 C 718.4375 516.625 718.4375 522.25 717.6875 544.5 L 718.4375 545.375 C 726.9375 545 730.1875 544.875 739.5625 544.875 Z M 752.0625 545 "/>
<path fill-rule="nonzero" fill="rgb(34.901961%, 14.901961%, 14.901961%)" fill-opacity="1" d="M 131.625 695 C 134.875 695.125 138.25 695.125 141.5 695.125 C 155.5 695.125 178.125 694.625 187.25 672.375 C 190.625 664.125 191.375 654.125 191.375 648.5 C 191.375 636.75 188.75 627.75 185.625 622.125 C 177.125 606.625 161 606.125 146.75 606.125 C 141 606.125 135.25 606.375 129.5 606.625 L 116.25 606.75 L 115.5 607.5 C 116 619.5 116.5 630 116.5 664.625 C 116.5 676.875 116.375 684.25 116.125 694.5 L 116.875 695 L 131.625 695 M 138.5 678.875 C 138.25 666.625 138.125 655 138.125 643 C 138.125 636.25 138.125 629.5 138.25 622.75 C 140.75 622.625 143.375 622.5 145.875 622.5 C 153.5 622.5 168.375 622.5 168.375 649.125 C 168.375 664.75 162.5 671.75 159.5 674.25 C 153.875 678.875 145.25 678.875 138.5 678.875 Z M 226.75 694.125 C 226.125 684.5 225.625 677.125 225.625 659.875 C 225.625 649.25 225.875 638.5 226 627.875 L 225.125 626.875 L 203.625 630.625 L 202.875 631.375 C 203.875 640.875 204.25 645.25 204.25 663 C 204.25 676.625 203.875 684.25 203.5 694.5 L 204.25 695.375 C 213.25 695 215.75 694.875 225.875 695 L 226.75 694.125 M 224.75 614.875 L 225.125 597.875 L 224.375 597.125 L 204 599.625 L 203.25 600.5 C 203.5 605 203.625 607.625 203.625 610.625 C 203.625 613 203.625 615.5 203.5 617.875 L 204.375 618.625 C 212.875 617.125 215.25 616.875 224.125 615.75 Z M 263.625 673.875 C 267.625 674 271.625 674.25 277.625 672.25 C 284.125 670 293.625 664.625 293.625 652.5 C 293.625 646.5 291.875 644 290.25 641.625 L 298.875 642.125 L 299.625 641.5 L 300.5 629 L 299.75 628.375 C 290.125 628.75 287.5 628.875 279.625 628.75 L 273.875 628.625 C 265 628.375 253.125 628.125 245 634.875 C 242.25 637 237 642.375 237 651.75 C 237 656.75 238.375 660.75 240.625 663.875 C 243.375 667.75 245.875 669.125 249 670.875 C 245.5 677.625 243.625 681 240.75 686.125 L 240.75 687.25 L 246 691 C 242.25 693.875 236.375 698.625 236.375 706.75 C 236.375 712.5 239.5 717.5 244.125 720.875 C 251.125 725.875 260.625 726.125 265.5 726.125 C 288.375 726.125 298.875 714.625 298.875 702.5 C 298.875 686.75 285.125 683.75 277 681.875 L 274 681.375 C 267.875 680.375 266.5 680 261.625 678.25 L 263.625 673.875 M 273.875 651.375 C 273.75 661.5 267.625 662.375 265.875 662.375 C 264.875 662.375 260.5 662.125 258.375 657.125 C 257.25 654.5 257.25 651.5 257.25 650.625 C 257.25 644.375 261 640.375 265.625 640.375 C 271.375 640.375 274 645.875 273.875 651.375 M 263.25 698 C 274.375 700.875 274.5 700.875 276 702.125 C 277.25 703 278.5 704.375 278.5 707 C 278.5 710.75 275.375 714.625 267.125 714.625 C 257.875 714.625 254.75 709.375 254.75 705 C 254.75 700.875 256.875 698.5 258.375 696.75 Z M 331.375 673.875 C 335.375 674 339.375 674.25 345.375 672.25 C 351.875 670 361.375 664.625 361.375 652.5 C 361.375 646.5 359.625 644 358 641.625 L 366.625 642.125 L 367.375 641.5 L 368.25 629 L 367.5 628.375 C 357.875 628.75 355.25 628.875 347.375 628.75 L 341.625 628.625 C 332.75 628.375 320.875 628.125 312.75 634.875 C 310 637 304.75 642.375 304.75 651.75 C 304.75 656.75 306.125 660.75 308.375 663.875 C 311.125 667.75 313.625 669.125 316.75 670.875 C 313.25 677.625 311.375 681 308.5 686.125 L 308.5 687.25 L 313.75 691 C 310 693.875 304.125 698.625 304.125 706.75 C 304.125 712.5 307.25 717.5 311.875 720.875 C 318.875 725.875 328.375 726.125 333.25 726.125 C 356.125 726.125 366.625 714.625 366.625 702.5 C 366.625 686.75 352.875 683.75 344.75 681.875 L 341.75 681.375 C 335.625 680.375 334.25 680 329.375 678.25 L 331.375 673.875 M 341.625 651.375 C 341.5 661.5 335.375 662.375 333.625 662.375 C 332.625 662.375 328.25 662.125 326.125 657.125 C 325 654.5 325 651.5 325 650.625 C 325 644.375 328.75 640.375 333.375 640.375 C 339.125 640.375 341.75 645.875 341.625 651.375 M 331 698 C 342.125 700.875 342.25 700.875 343.75 702.125 C 345 703 346.25 704.375 346.25 707 C 346.25 710.75 343.125 714.625 334.875 714.625 C 325.625 714.625 322.5 709.375 322.5 705 C 322.5 700.875 324.625 698.5 326.125 696.75 Z M 398.75 694.125 C 398.125 684.5 397.625 677.125 397.625 659.875 C 397.625 649.25 397.875 638.5 398 627.875 L 397.125 626.875 L 375.625 630.625 L 374.875 631.375 C 375.875 640.875 376.25 645.25 376.25 663 C 376.25 676.625 375.875 684.25 375.5 694.5 L 376.25 695.375 C 385.25 695 387.75 694.875 397.875 695 L 398.75 694.125 M 396.75 614.875 L 397.125 597.875 L 396.375 597.125 L 376 599.625 L 375.25 600.5 C 375.5 605 375.625 607.625 375.625 610.625 C 375.625 613 375.625 615.5 375.5 617.875 L 376.375 618.625 C 384.875 617.125 387.25 616.875 396.125 615.75 Z M 473.875 694.125 C 473.25 683.125 473.25 679.625 473 667.375 L 473 657.625 C 472.875 645.625 472.75 639.875 469.625 634.75 C 465.75 628.25 458.625 627.25 454.125 627.25 C 446.5 627.25 439.875 631.25 434.125 634.625 L 434.375 627.75 L 433.125 626.875 C 423.5 628.875 421.375 629.25 412 630.5 L 411.25 631.375 C 412.25 642.25 413 650.125 413 670.5 C 413 678.5 412.875 686.5 412.75 694.5 L 413.5 695.25 C 422.5 694.875 424.375 694.875 434.375 694.875 L 435.125 694.125 C 434.375 674.875 434.25 670 434.125 647.625 C 436.75 645.875 439.75 643.75 443.75 643.75 C 450.625 643.75 451.25 651.125 451.625 655.625 C 451.875 659.75 452 676.875 452 681.625 C 452 685.875 451.875 690.25 451.875 694.5 L 452.625 695.25 C 460.875 695 463 694.875 473 694.875 Z M 514.375 651.875 C 510.125 650.375 506.75 649 506.75 645.5 C 506.75 644 507.75 639.875 515.5 639.875 C 523.125 639.875 528 643.125 531.125 645.125 L 532.25 644.75 L 533.5 631.125 L 532.875 630.375 C 527 628.75 521.875 627.25 513.75 627.25 C 507.625 627.25 495.375 627.75 488.875 637.125 C 487.25 639.375 485.5 643.125 485.5 648.125 C 485.5 661.5 495.875 665.5 501.75 667.75 L 506.5 669.5 C 509.875 670.625 515.375 672.5 515.375 677 C 515.375 680.125 512.5 683.5 505.5 683.5 C 502 683.5 496.875 682.375 492.25 680 C 490.125 678.875 489.125 678 487.25 676.5 L 486.125 677 C 485.875 683.5 485.75 684.875 485.25 691.125 L 485.875 692.25 C 492 694.5 497.25 696.5 506.375 696.5 C 515.875 696.5 534.625 694.75 536.875 676.875 C 537 675.875 537 675 537 674.125 C 537 660.375 527.375 656.75 520.5 654.125 Z M 620.625 641.25 C 610.125 636.875 604.625 634.625 604.625 629 C 604.625 625.125 608.25 620.25 616.5 620.25 C 626 620.25 631.625 624.125 636.25 627.25 L 637.375 626.75 L 638.375 610.375 L 637.75 609.5 C 632.375 607.25 626.75 604.875 614.625 604.875 C 591.125 604.875 583 618.125 583 631.5 C 583 646.625 594.75 652.125 601.75 655.5 L 605.875 657.375 C 614.5 661 621.125 664.125 621.125 670.75 C 621.125 675.5 617 681.125 606.125 681.125 C 594.75 681.125 588.375 676.125 584.75 673.25 L 583.5 673.625 L 582.625 691.25 L 583.375 692.25 C 584.75 692.75 586.125 693.375 587.5 693.75 C 590.375 694.75 597.75 696.875 607.125 696.875 C 610.875 696.875 620.375 696.5 627.875 693 C 638.375 687.875 642.875 678.375 642.875 667.75 C 642.875 660.625 640.125 653 633.5 647.875 C 630.125 645.375 626.875 643.875 623.875 642.5 Z M 689.75 680.625 C 687.625 681.25 686.125 681.75 684 681.75 C 677.625 681.75 677.125 677.75 676.875 675.875 C 676.5 672.625 676.5 665.75 676.625 660.75 L 676.875 643.125 L 688.125 643.625 L 688.875 642.875 L 690.125 629.5 L 689.375 628.75 L 676.875 628.75 L 677.25 607.75 L 676.375 607 C 667.875 609.5 665.625 610.125 656.75 612.375 L 656.25 613.25 L 656.375 628.875 L 649.625 628.625 L 648.875 629.25 L 647.75 642.625 L 648.5 643.375 L 656.375 643.125 L 656 663 C 655.875 666.125 655.75 669.25 655.75 672.5 C 655.75 684 656 696.375 675.5 696.375 C 680.375 696.375 684.25 695.625 688.625 694.875 L 689.5 694 L 690.75 681.125 Z M 754.625 657.75 C 754.75 646.5 754.75 641.625 751.5 636.375 C 749 632.375 744 627.375 728 627.375 C 717.25 627.375 710.625 629.375 703.5 631.5 L 702.75 632.5 L 702.125 646.125 L 703.125 646.625 C 707.5 644.875 715.625 641.625 724 641.625 C 728.625 641.625 730.5 642.375 732.125 644 C 733.375 645.25 733.75 647.5 733.75 649.375 C 718.75 651.375 711.75 652.75 704.25 657.375 C 697.25 661.75 694.875 668.875 694.875 674.5 C 694.875 687.875 704.5 696.5 716.75 696.5 C 726.125 696.5 731.5 692 734.125 689.875 L 734.125 694.5 L 734.875 695.375 C 743.875 695 746.625 694.875 754.75 695 L 755.375 694.125 C 754.5 681.875 754.5 678.75 754.5 667 L 754.625 657.75 M 734 677.625 C 731.375 679.125 728 680.875 723.875 680.875 C 719.375 680.875 715.625 678.5 715.625 673.25 C 715.625 665 725.5 663.625 734 662.5 Z M 804.25 680.625 C 802.125 681.25 800.625 681.75 798.5 681.75 C 792.125 681.75 791.625 677.75 791.375 675.875 C 791 672.625 791 665.75 791.125 660.75 L 791.375 643.125 L 802.625 643.625 L 803.375 642.875 L 804.625 629.5 L 803.875 628.75 L 791.375 628.75 L 791.75 607.75 L 790.875 607 C 782.375 609.5 780.125 610.125 771.25 612.375 L 770.75 613.25 L 770.875 628.875 L 764.125 628.625 L 763.375 629.25 L 762.25 642.625 L 763 643.375 L 770.875 643.125 L 770.5 663 C 770.375 666.125 770.25 669.25 770.25 672.5 C 770.25 684 770.5 696.375 790 696.375 C 794.875 696.375 798.75 695.625 803.125 694.875 L 804 694 L 805.25 681.125 Z M 869 676.5 C 864.25 679 858.625 681.875 849.5 681.875 C 842 681.875 836.875 679.5 833.875 675 C 832 672.375 831.625 669.875 831.125 667.375 L 871.5 666.625 L 872.25 665.75 C 872.125 659.625 872 653.375 870.25 647.125 C 865.875 632.375 856.25 629.375 852 628.375 C 848.875 627.5 846 627.25 843.125 627.25 C 823.5 627.25 810.5 640.125 810.5 661.75 C 810.5 667.625 811.5 673.75 813.5 678.125 C 820.75 695 837.75 696.5 846.75 696.5 C 857.125 696.5 861.625 694.625 868.25 692 L 869 691 L 869.875 676.875 L 869 676.5 M 831.125 654.125 C 831.5 650.25 832.375 645 837.125 642 C 838.625 641 840.375 640.625 842.125 640.625 C 846.25 640.625 848.75 642.75 850.125 645 C 851.875 647.75 852 650.75 852 653.625 Z M 876.25 695 "/>
<path fill-rule="nonzero" fill="rgb(34.901961%, 14.901961%, 14.901961%)" fill-opacity="1" d="M 196.8125 756.375 C 186.8125 756.75 185.1875 756.75 174.6875 756.75 L 174.0625 757.5 C 174.9375 771.625 174.9375 775.25 175.0625 790 C 169.5625 790.125 164.0625 790.25 158.4375 790.25 C 154.0625 790.25 149.5625 790.125 145.1875 790.125 L 145.4375 757.125 L 144.8125 756.375 C 135.1875 756.75 133.3125 756.75 122.4375 756.75 L 121.6875 757.5 C 122.3125 770.375 123.0625 785.75 123.0625 816.75 C 123.0625 828 122.8125 834.125 122.5625 844.625 L 123.1875 845.375 C 132.3125 845 134.5625 844.875 145.5625 845 L 146.1875 844.25 C 145.4375 828.75 145.3125 824.25 145.1875 806.125 C 150.6875 805.875 155.3125 805.75 160.1875 805.75 C 165.1875 805.75 170.1875 805.875 175.1875 806 C 175.4375 822.875 175.4375 827 174.8125 844.625 L 175.4375 845.375 C 184.8125 845 187.3125 844.875 197.9375 845 L 198.5625 844.25 C 197.5625 823.25 197.1875 802.375 197.1875 781.375 C 197.1875 772.625 197.3125 766.75 197.4375 757.125 Z M 235.6875 844.125 C 235.0625 834.5 234.5625 827.125 234.5625 809.875 C 234.5625 799.25 234.8125 788.5 234.9375 777.875 L 234.0625 776.875 L 212.5625 780.625 L 211.8125 781.375 C 212.8125 790.875 213.1875 795.25 213.1875 813 C 213.1875 826.625 212.8125 834.25 212.4375 844.5 L 213.1875 845.375 C 222.1875 845 224.6875 844.875 234.8125 845 L 235.6875 844.125 M 233.6875 764.875 L 234.0625 747.875 L 233.3125 747.125 L 212.9375 749.625 L 212.1875 750.5 C 212.4375 755 212.5625 757.625 212.5625 760.625 C 212.5625 763 212.5625 765.5 212.4375 767.875 L 213.3125 768.625 C 221.8125 767.125 224.1875 766.875 233.0625 765.75 Z M 275.8125 801.875 C 271.5625 800.375 268.1875 799 268.1875 795.5 C 268.1875 794 269.1875 789.875 276.9375 789.875 C 284.5625 789.875 289.4375 793.125 292.5625 795.125 L 293.6875 794.75 L 294.9375 781.125 L 294.3125 780.375 C 288.4375 778.75 283.3125 777.25 275.1875 777.25 C 269.0625 777.25 256.8125 777.75 250.3125 787.125 C 248.6875 789.375 246.9375 793.125 246.9375 798.125 C 246.9375 811.5 257.3125 815.5 263.1875 817.75 L 267.9375 819.5 C 271.3125 820.625 276.8125 822.5 276.8125 827 C 276.8125 830.125 273.9375 833.5 266.9375 833.5 C 263.4375 833.5 258.3125 832.375 253.6875 830 C 251.5625 828.875 250.5625 828 248.6875 826.5 L 247.5625 827 C 247.3125 833.5 247.1875 834.875 246.6875 841.125 L 247.3125 842.25 C 253.4375 844.5 258.6875 846.5 267.8125 846.5 C 277.3125 846.5 296.0625 844.75 298.3125 826.875 C 298.4375 825.875 298.4375 825 298.4375 824.125 C 298.4375 810.375 288.8125 806.75 281.9375 804.125 Z M 344.4375 830.625 C 342.3125 831.25 340.8125 831.75 338.6875 831.75 C 332.3125 831.75 331.8125 827.75 331.5625 825.875 C 331.1875 822.625 331.1875 815.75 331.3125 810.75 L 331.5625 793.125 L 342.8125 793.625 L 343.5625 792.875 L 344.8125 779.5 L 344.0625 778.75 L 331.5625 778.75 L 331.9375 757.75 L 331.0625 757 C 322.5625 759.5 320.3125 760.125 311.4375 762.375 L 310.9375 763.25 L 311.0625 778.875 L 304.3125 778.625 L 303.5625 779.25 L 302.4375 792.625 L 303.1875 793.375 L 311.0625 793.125 L 310.6875 813 C 310.5625 816.125 310.4375 819.25 310.4375 822.5 C 310.4375 834 310.6875 846.375 330.1875 846.375 C 335.0625 846.375 338.9375 845.625 343.3125 844.875 L 344.1875 844 L 345.4375 831.125 Z M 417.3125 811.75 C 417.3125 806.875 417.3125 786.625 399.8125 779.75 C 394.3125 777.625 387.8125 777.375 384.5625 777.375 C 362.8125 777.375 350.5625 789 350.5625 812 C 350.5625 820 351.8125 828.125 356.4375 834.875 C 359.6875 839.75 365.8125 846.5 383.6875 846.5 C 410.1875 846.5 417.3125 830.5 417.3125 811.75 M 395.6875 811.625 C 395.6875 821.875 394.3125 833.25 383.9375 833.25 C 380.6875 833.25 378.4375 831.75 376.9375 830.375 C 374.8125 828.25 372.4375 824 372.4375 811.875 C 372.4375 808.25 372.4375 800.25 374.9375 795.875 C 376.8125 792.5 380.0625 790.25 384.0625 790.25 C 387.5625 790.25 390.4375 792.125 392.0625 794.125 C 395.0625 797.75 395.6875 804.875 395.6875 811.625 Z M 465.3125 798.625 L 468.8125 778.25 L 468.0625 777.375 C 467.1875 777.375 466.3125 777.25 465.4375 777.25 C 460.3125 777.25 454.5625 780.125 450.5625 789.375 L 450.9375 777.875 L 449.9375 776.875 C 440.6875 778.875 438.3125 779.25 429.1875 780.625 L 428.4375 781.375 C 429.1875 790.75 429.5625 796.375 429.5625 813.75 C 429.5625 824 429.4375 834.25 429.1875 844.625 L 429.9375 845.375 C 439.1875 845 441.1875 844.875 451.1875 845 L 451.8125 844.125 C 451.3125 834 450.5625 819.875 450.5625 811.25 C 450.5625 805.625 450.5625 797.375 459.0625 797.375 C 461.1875 797.375 462.4375 798.125 464.1875 799.125 Z M 498.6875 844.125 C 498.0625 834.5 497.5625 827.125 497.5625 809.875 C 497.5625 799.25 497.8125 788.5 497.9375 777.875 L 497.0625 776.875 L 475.5625 780.625 L 474.8125 781.375 C 475.8125 790.875 476.1875 795.25 476.1875 813 C 476.1875 826.625 475.8125 834.25 475.4375 844.5 L 476.1875 845.375 C 485.1875 845 487.6875 844.875 497.8125 845 L 498.6875 844.125 M 496.6875 764.875 L 497.0625 747.875 L 496.3125 747.125 L 475.9375 749.625 L 475.1875 750.5 C 475.4375 755 475.5625 757.625 475.5625 760.625 C 475.5625 763 475.5625 765.5 475.4375 767.875 L 476.3125 768.625 C 484.8125 767.125 487.1875 766.875 496.0625 765.75 Z M 561.4375 827 C 558.0625 829 554.8125 831 548.4375 831 C 534.3125 831 531.4375 819.25 531.4375 811.75 C 531.4375 802.625 535.4375 792.125 547.5625 792.125 C 553.0625 792.125 556.0625 794.125 559.8125 796.625 L 561.0625 796.25 C 561.5625 789.625 561.6875 787.875 562.6875 781.25 L 562.0625 780.5 C 556.5625 778.75 551.8125 777.25 544.5625 777.25 C 515.1875 777.25 509.4375 799.5 509.4375 812.25 C 509.4375 826.625 516.9375 846.125 545.0625 846.125 C 551.6875 846.125 555.9375 844.875 561.1875 843.375 L 561.9375 842.625 L 562.4375 827.625 Z M 625.6875 756.5 L 609.8125 756.75 L 609.0625 757.5 C 609.5625 773.75 609.9375 784.625 609.9375 799 C 609.9375 814.25 609.5625 829.375 609.1875 844.625 L 609.9375 845.375 C 619.1875 845 621.1875 844.875 631.1875 845 L 631.8125 844.25 C 631.3125 830.625 631.3125 827.5 631.3125 814.75 C 645.3125 814.875 660.3125 814.875 669.3125 803.875 C 672.8125 799.625 675.8125 792.5 675.8125 783.75 C 675.8125 778.375 674.5625 766.5 664.1875 760.625 C 656.6875 756.25 646.0625 756.25 636.6875 756.25 L 625.6875 756.5 M 631.3125 771.625 C 634.0625 771.5 636.6875 771.5 639.4375 771.5 C 650.4375 771.75 653.4375 777.375 653.4375 784.625 C 653.4375 786.375 653.4375 793.625 646.8125 797.25 C 643.4375 799.125 638.8125 799.375 631.3125 799.375 Z M 740.0625 807.75 C 740.1875 796.5 740.1875 791.625 736.9375 786.375 C 734.4375 782.375 729.4375 777.375 713.4375 777.375 C 702.6875 777.375 696.0625 779.375 688.9375 781.5 L 688.1875 782.5 L 687.5625 796.125 L 688.5625 796.625 C 692.9375 794.875 701.0625 791.625 709.4375 791.625 C 714.0625 791.625 715.9375 792.375 717.5625 794 C 718.8125 795.25 719.1875 797.5 719.1875 799.375 C 704.1875 801.375 697.1875 802.75 689.6875 807.375 C 682.6875 811.75 680.3125 818.875 680.3125 824.5 C 680.3125 837.875 689.9375 846.5 702.1875 846.5 C 711.5625 846.5 716.9375 842 719.5625 839.875 L 719.5625 844.5 L 720.3125 845.375 C 729.3125 845 732.0625 844.875 740.1875 845 L 740.8125 844.125 C 739.9375 831.875 739.9375 828.75 739.9375 817 L 740.0625 807.75 M 719.4375 827.625 C 716.8125 829.125 713.4375 830.875 709.3125 830.875 C 704.8125 830.875 701.0625 828.5 701.0625 823.25 C 701.0625 815 710.9375 813.625 719.4375 812.5 Z M 790.8125 798.625 L 794.3125 778.25 L 793.5625 777.375 C 792.6875 777.375 791.8125 777.25 790.9375 777.25 C 785.8125 777.25 780.0625 780.125 776.0625 789.375 L 776.4375 777.875 L 775.4375 776.875 C 766.1875 778.875 763.8125 779.25 754.6875 780.625 L 753.9375 781.375 C 754.6875 790.75 755.0625 796.375 755.0625 813.75 C 755.0625 824 754.9375 834.25 754.6875 844.625 L 755.4375 845.375 C 764.6875 845 766.6875 844.875 776.6875 845 L 777.3125 844.125 C 776.8125 834 776.0625 819.875 776.0625 811.25 C 776.0625 805.625 776.0625 797.375 784.5625 797.375 C 786.6875 797.375 787.9375 798.125 789.6875 799.125 Z M 865.8125 843.375 C 854.0625 823.5 852.8125 821.25 843.3125 804.125 C 851.9375 792.375 852.8125 791.125 861.6875 779.75 L 861.0625 778.5 L 840.6875 778.75 L 839.4375 779.625 C 829.6875 796.5 828.4375 798.5 822.6875 807.125 L 822.6875 793.25 C 822.8125 769.875 822.9375 764.875 823.5625 746 L 822.5625 745.25 L 800.8125 748.5 L 800.0625 749.375 C 800.9375 761.5 801.3125 767.375 801.5625 783.75 C 801.8125 804 801.8125 824.25 801.6875 844.5 L 802.5625 845.375 C 810.9375 845 813.3125 845 822.8125 845 L 823.5625 844.125 L 822.8125 823 L 822.6875 808.625 C 833.5625 828.625 834.9375 831.375 841.3125 844.625 L 842.4375 845.375 L 864.9375 844.5 Z M 864.3125 845 "/>
</svg>
