<svg xmlns="http://www.w3.org/2000/svg" width="612" height="817" viewBox="0 0 612 817">
  <defs>
    <style>
      .cls-1 {
        fill: #592626;
        fill-rule: evenodd;
      }
    </style>
  </defs>
  <path id="Auburn_State_Recreation_Area" data-name="Auburn State Recreation Area" class="cls-1" d="M104.432,290.924c-7.467.233-9.022,0.233-17.344,0.233l-0.544.467c-4.122,13.222-6.611,21.077-18.044,53.9l0.311,0.545H80.944l0.544-.467L85.3,331.444h16.8l3.345,14.388,0.544,0.467c5.678-.233,7.233-0.311,13.533-0.233l0.389-.622c-9.411-33.288-10.5-36.943-14.933-54.053Zm-16.411,31.11L91.91,308.89l2.722-9.1L96.965,309.9l2.878,12.133H88.021Zm74.2-17.577-12.677.622-0.544.467c0.544,8.788.544,21.232,0.544,22.476,0,2.256,0,3.5-.078,6.611-2.1,1.4-3.733,2.567-5.833,2.567-5.6,0-5.6-5.911-5.6-10.5,0-1.944,0-3.966.078-5.911l0.156-15.71-0.545-.622-12.832.622-0.545.467c0.467,6.533.545,8.71,0.545,16.565v5.445c-0.078,8.477.311,12.055,3.111,15.321A13.317,13.317,0,0,0,138.188,347c5.522,0,8.711-2.489,11.511-4.666l-0.078,3.5,0.544,0.467c5.678-.233,7.389-0.233,12.444-0.233l0.467-.467c-0.389-5.522-.545-8.477-0.545-18.588q0-10.967.234-21.932Zm15.246,41.764h1.556c12.443,0,20.454-.622,26.365-6.922a23.446,23.446,0,0,0,6.066-16.177c0-10.81-6.221-19.21-16.8-19.21a16.573,16.573,0,0,0-10.033,3.111l0.467-22.554L184.466,284l-12.911,2.022-0.466.545c0.622,6.533.855,9.177,0.855,24.81,0,6.688-.078,19.91-0.155,34.376l0.544,0.544Zm7.466-31.5a10.748,10.748,0,0,1,5.056-1.556c5.133,0,8.088,4.589,8.088,11.744,0,5.6-2.488,9.255-4.588,10.733-2.567,1.789-5.911,1.867-8.556,1.944V314.723Zm71.244-10.266-12.677.622-0.545.467c0.545,8.788.545,21.232,0.545,22.476,0,2.256,0,3.5-.078,6.611-2.1,1.4-3.733,2.567-5.833,2.567-5.6,0-5.6-5.911-5.6-10.5,0-1.944,0-3.966.078-5.911l0.155-15.71-0.544-.622-12.833.622-0.544.467c0.466,6.533.544,8.71,0.544,16.565v5.445c-0.078,8.477.311,12.055,3.111,15.321A13.32,13.32,0,0,0,232.144,347c5.522,0,8.71-2.489,11.51-4.666l-0.078,3.5,0.545,0.467c5.677-.233,7.388-0.233,12.444-0.233l0.466-.467c-0.389-5.522-.544-8.477-0.544-18.588q0-10.967.233-21.932ZM288.3,317.212l2.177-12.678-0.466-.544c-0.545,0-1.089-.078-1.634-0.078-3.188,0-6.766,1.789-9.255,7.544l0.234-7.155-0.623-.622c-5.755,1.244-7.233,1.478-12.91,2.333l-0.467.467c0.467,5.833.7,9.333,0.7,20.143,0,6.378-.077,12.755-0.233,19.21l0.467,0.467c5.755-.233,7-0.311,13.221-0.233l0.389-.545c-0.311-6.3-.778-15.088-0.778-20.454,0-3.5,0-8.633,5.289-8.633a5.826,5.826,0,0,1,3.189,1.089Zm44.8,28.309c-0.389-6.844-.389-9.021-0.544-16.643v-6.067c-0.078-7.466-.156-11.044-2.1-14.232-2.411-4.045-6.845-4.667-9.644-4.667-4.745,0-8.867,2.489-12.444,4.589l0.155-4.278-0.777-.544c-5.989,1.244-7.311,1.478-13.144,2.255l-0.467.545a216.367,216.367,0,0,1,1.089,24.343c0,4.978-.078,9.955-0.156,14.933l0.467,0.466c5.6-.233,6.766-0.233,12.988-0.233l0.467-.467c-0.467-11.977-.544-15.01-0.622-28.932,1.633-1.088,3.5-2.411,5.988-2.411,4.278,0,4.667,4.589,4.9,7.389,0.156,2.567.233,13.222,0.233,16.177,0,2.644-.077,5.366-0.077,8.011l0.466,0.466c5.133-.155,6.456-0.233,12.678-0.233Zm54.056-32.9C380.621,309.9,377.2,308.5,377.2,305c0-2.411,2.256-5.444,7.389-5.444,5.911,0,9.41,2.411,12.288,4.355l0.7-.311,0.622-10.188-0.389-.545a31.857,31.857,0,0,0-14.388-2.877c-14.621,0-19.677,8.244-19.677,16.566,0,9.41,7.311,12.832,11.666,14.932l2.567,1.167c5.366,2.255,9.488,4.2,9.488,8.322,0,2.955-2.566,6.455-9.333,6.455a19.841,19.841,0,0,1-13.3-4.9l-0.778.233-0.544,10.967,0.467,0.622c0.855,0.311,1.711.7,2.566,0.933a38.753,38.753,0,0,0,12.211,1.944c2.333,0,8.244-.233,12.91-2.411,6.533-3.188,9.333-9.1,9.333-15.71a15.415,15.415,0,0,0-5.833-12.366,31.446,31.446,0,0,0-5.989-3.344Zm43.011,24.5a11.669,11.669,0,0,1-3.577.7c-3.967,0-4.278-2.489-4.433-3.656a88.86,88.86,0,0,1-.156-9.41l0.156-10.966,7,0.311,0.467-.467,0.778-8.322-0.467-.466h-7.777l0.233-13.066-0.544-.467c-5.289,1.555-6.689,1.944-12.211,3.344l-0.311.545,0.078,9.721-4.2-.155-0.467.389-0.7,8.321,0.467,0.467,4.9-.155-0.234,12.366c-0.077,1.944-.155,3.888-0.155,5.91,0,7.156.155,14.855,12.288,14.855a45.17,45.17,0,0,0,8.166-.933l0.545-.544,0.778-8.011Zm40.366-14.233c0.078-7,.078-10.033-1.944-13.3-1.555-2.489-4.666-5.6-14.621-5.6a47.308,47.308,0,0,0-15.244,2.567l-0.467.622-0.389,8.477,0.623,0.311c2.722-1.089,7.777-3.111,12.988-3.111,2.877,0,4.044.467,5.055,1.478a4.9,4.9,0,0,1,1.011,3.344c-9.333,1.245-13.688,2.1-18.354,4.978a12.436,12.436,0,0,0-5.834,10.655c0,8.322,5.989,13.688,13.611,13.688a16.079,16.079,0,0,0,10.81-4.122v2.878l0.467,0.544c5.6-.233,7.311-0.311,12.366-0.233l0.389-.545c-0.544-7.621-.544-9.566-0.544-16.877ZM457.7,335.255a12.6,12.6,0,0,1-6.3,2.022c-2.8,0-5.133-1.477-5.133-4.744,0-5.133,6.144-5.988,11.433-6.688v9.41Zm43.711,1.867a11.675,11.675,0,0,1-3.578.7c-3.966,0-4.277-2.489-4.433-3.656a89.161,89.161,0,0,1-.155-9.41L493.4,313.79l7,0.311,0.466-.467,0.778-8.322-0.466-.466H493.4l0.233-13.066-0.544-.467c-5.289,1.555-6.689,1.944-12.211,3.344l-0.311.545,0.078,9.721-4.2-.155-0.466.389-0.7,8.321,0.466,0.467,4.9-.155-0.233,12.366c-0.078,1.944-.156,3.888-0.156,5.91,0,7.156.156,14.855,12.289,14.855a45.17,45.17,0,0,0,8.166-.933l0.544-.544,0.778-8.011Zm38.733-2.567A23.769,23.769,0,0,1,528.01,337.9c-4.667,0-7.855-1.478-9.722-4.278a11,11,0,0,1-1.711-4.744l25.121-.467,0.467-.544a45.607,45.607,0,0,0-1.245-11.589c-2.722-9.177-8.71-11.044-11.355-11.666a19.933,19.933,0,0,0-5.522-.7c-12.21,0-20.3,8.011-20.3,21.466a25.873,25.873,0,0,0,1.867,10.188C510.122,346.066,520.7,347,526.3,347c6.455,0,9.255-1.167,13.377-2.8l0.467-.622,0.544-8.788Zm-23.566-13.921c0.233-2.411.778-5.678,3.733-7.544a5.969,5.969,0,0,1,8.089,1.866,9.511,9.511,0,0,1,1.166,5.367ZM133.56,418.011A236.5,236.5,0,0,1,144.915,439.4l0.622,0.389c2.411-.156,4.744-0.311,7.155-0.389s4.9-.155,7.311-0.155l0.467-.934c-2.956-3.811-3.811-4.977-9.411-13.921-2.489-3.967-3.733-6.067-5.677-9.489,3.5-1.555,10.577-4.822,10.577-14.7,0-3.422-.933-10.5-7.311-13.844-4.044-2.1-8.244-2.177-17.343-2.022l-5.445.078h-9.488l-0.389.467c0.311,7.855.622,15.943,0.622,37.1,0,7.233-.077,10.733-0.311,17.188l0.467,0.466c5.677-.233,6.922-0.311,13.3-0.233l0.467-.467c-0.622-9.021-.7-11.51-0.778-20.765Zm-3.655-24.187c1.089-.078,2.177-0.078,3.266-0.078,3.033,0,9.022,0,9.022,6.844a7.565,7.565,0,0,1-3.422,6.844c-2.178,1.322-4.978,1.478-8.866,1.555V393.824Zm69.221,34.065a23.773,23.773,0,0,1-12.133,3.344c-4.666,0-7.855-1.478-9.722-4.278a11.01,11.01,0,0,1-1.711-4.744l25.121-.467,0.467-.544a45.638,45.638,0,0,0-1.244-11.588c-2.722-9.178-8.711-11.044-11.355-11.666a19.9,19.9,0,0,0-5.522-.7c-12.211,0-20.3,8.01-20.3,21.465a25.893,25.893,0,0,0,1.866,10.189c4.511,10.5,15.088,11.432,20.688,11.432,6.455,0,9.255-1.166,13.377-2.8l0.467-.623,0.544-8.788ZM175.56,413.967c0.234-2.411.778-5.677,3.734-7.544a5.967,5.967,0,0,1,8.088,1.867,9.5,9.5,0,0,1,1.167,5.366ZM238.715,428.2a13.856,13.856,0,0,1-8.089,2.488c-8.788,0-10.577-7.31-10.577-11.977,0-5.677,2.489-12.21,10.033-12.21,3.422,0,5.289,1.244,7.622,2.8l0.778-.234c0.311-4.122.389-5.211,1.011-9.333l-0.389-.466a32.334,32.334,0,0,0-10.889-2.022c-18.276,0-21.854,13.843-21.854,21.776,0,8.944,4.666,21.077,22.166,21.077a32.575,32.575,0,0,0,10.032-1.711l0.467-.467,0.311-9.332Zm29.323-17.655,2.177-12.677-0.466-.545c-0.545,0-1.089-.077-1.634-0.077-3.188,0-6.766,1.788-9.255,7.544l0.234-7.156-0.623-.622c-5.755,1.245-7.233,1.478-12.91,2.333l-0.467.467c0.467,5.833.7,9.333,0.7,20.144,0,6.377-.078,12.755-0.233,19.21l0.467,0.466c5.755-.233,7-0.311,13.221-0.233l0.389-.544c-0.311-6.3-.778-15.088-0.778-20.455,0-3.5,0-8.633,5.289-8.633a5.826,5.826,0,0,1,3.189,1.089Zm41.221,17.344a23.773,23.773,0,0,1-12.133,3.344c-4.666,0-7.855-1.478-9.721-4.278a11,11,0,0,1-1.711-4.744l25.121-.467,0.466-.544a45.548,45.548,0,0,0-1.244-11.588c-2.722-9.178-8.711-11.044-11.355-11.666a19.9,19.9,0,0,0-5.522-.7c-12.211,0-20.3,8.01-20.3,21.465a25.875,25.875,0,0,0,1.867,10.189c4.51,10.5,15.088,11.432,20.687,11.432,6.456,0,9.256-1.166,13.378-2.8l0.466-.623,0.545-8.788Zm-23.565-13.922c0.233-2.411.777-5.677,3.733-7.544a5.967,5.967,0,0,1,8.088,1.867,9.5,9.5,0,0,1,1.167,5.366Zm67.354,2.255c0.078-7,.078-10.032-1.944-13.3-1.556-2.489-4.667-5.6-14.622-5.6a47.333,47.333,0,0,0-15.243,2.567l-0.467.622-0.389,8.477,0.622,0.312c2.722-1.089,7.778-3.111,12.988-3.111,2.878,0,4.045.466,5.056,1.477a4.9,4.9,0,0,1,1.011,3.345c-9.333,1.244-13.688,2.1-18.355,4.977a12.437,12.437,0,0,0-5.833,10.655c0,8.322,5.989,13.688,13.611,13.688a16.074,16.074,0,0,0,10.81-4.122v2.878l0.467,0.544c5.6-.233,7.311-0.311,12.366-0.233l0.389-.544c-0.545-7.622-.545-9.567-0.545-16.877Zm-12.833,12.367a12.6,12.6,0,0,1-6.3,2.022c-2.8,0-5.133-1.478-5.133-4.745,0-5.133,6.144-5.988,11.432-6.688v9.411Zm43.712,1.866a11.68,11.68,0,0,1-3.578.7c-3.967,0-4.278-2.489-4.433-3.655a88.88,88.88,0,0,1-.156-9.411l0.156-10.966,7,0.311,0.467-.467,0.778-8.321-0.467-.467h-7.777l0.233-13.066-0.544-.467c-5.289,1.556-6.689,1.945-12.211,3.344l-0.311.545,0.078,9.722-4.2-.156-0.467.389-0.7,8.322,0.467,0.466,4.9-.155-0.233,12.366c-0.078,1.944-.156,3.889-0.156,5.911,0,7.155.156,14.855,12.288,14.855a45.19,45.19,0,0,0,8.167-.934l0.544-.544,0.778-8.011Zm19.833,8.4c-0.389-5.989-.7-10.578-0.7-21.31,0-6.611.156-13.3,0.234-19.911l-0.545-.622-13.377,2.333-0.467.467c0.623,5.911.856,8.633,0.856,19.677,0,8.477-.233,13.222-0.467,19.6l0.467,0.544c5.6-.233,7.155-0.311,13.455-0.233Zm-1.244-49.309,0.233-10.577-0.466-.467-12.678,1.556-0.466.544c0.155,2.8.233,4.433,0.233,6.3,0,1.477,0,3.033-.078,4.511l0.545,0.466c5.288-.933,6.766-1.089,12.288-1.789Zm49.465,29.165c0-3.033,0-15.632-10.888-19.91a27.958,27.958,0,0,0-9.489-1.478c-13.532,0-21.154,7.233-21.154,21.544,0,4.977.778,10.033,3.655,14.232,2.022,3.034,5.833,7.233,16.955,7.233C447.548,440.332,451.981,430.377,451.981,418.711Zm-13.455-.078c0,6.378-.855,13.455-7.31,13.455a6.292,6.292,0,0,1-4.356-1.788c-1.322-1.323-2.8-3.967-2.8-11.511,0-2.255,0-7.233,1.556-9.955a6.44,6.44,0,0,1,5.677-3.5,6.541,6.541,0,0,1,4.978,2.411C438.137,410,438.526,414.434,438.526,418.633Zm58.955,20.222c-0.389-6.844-.389-9.022-0.544-16.644v-6.066c-0.078-7.467-.156-11.044-2.1-14.233-2.411-4.044-6.844-4.666-9.644-4.666-4.744,0-8.866,2.488-12.444,4.588l0.156-4.277-0.778-.545c-5.989,1.245-7.311,1.478-13.144,2.256l-0.467.544a216.123,216.123,0,0,1,1.089,24.343c0,4.978-.077,9.955-0.155,14.933l0.466,0.467c5.6-.234,6.767-0.234,12.989-0.234l0.466-.466c-0.466-11.977-.544-15.011-0.622-28.932,1.633-1.089,3.5-2.411,5.989-2.411,4.277,0,4.666,4.588,4.9,7.388,0.156,2.567.234,13.222,0.234,16.177,0,2.645-.078,5.367-0.078,8.011l0.467,0.467c5.133-.156,6.455-0.234,12.677-0.234ZM258.354,477.591c-7.466.233-9.022,0.233-17.344,0.233l-0.544.467c-4.122,13.221-6.611,21.076-18.044,53.9l0.311,0.544h12.133l0.544-.466,3.811-14.155h16.8l3.344,14.388,0.544,0.467c5.678-.234,7.233-0.311,13.533-0.234l0.389-.622c-9.411-33.287-10.5-36.942-14.933-54.053ZM241.943,508.7l3.889-13.144,2.722-9.1,2.334,10.111,2.877,12.132H241.943Zm59.345-4.822,2.177-12.677L303,490.657c-0.545,0-1.089-.078-1.634-0.078-3.188,0-6.766,1.789-9.255,7.544l0.234-7.155-0.623-.622c-5.755,1.244-7.233,1.477-12.91,2.333l-0.467.466c0.467,5.834.7,9.333,0.7,20.144,0,6.377-.078,12.755-0.233,19.21l0.467,0.467c5.755-.234,7-0.311,13.221-0.234l0.389-.544c-0.311-6.3-.778-15.088-0.778-20.455,0-3.5,0-8.632,5.289-8.632a5.825,5.825,0,0,1,3.189,1.088Zm41.221,17.344a23.773,23.773,0,0,1-12.133,3.344c-4.666,0-7.855-1.478-9.721-4.277a11,11,0,0,1-1.711-4.745l25.121-.466,0.466-.545a45.553,45.553,0,0,0-1.244-11.588c-2.722-9.177-8.711-11.044-11.355-11.666a19.9,19.9,0,0,0-5.522-.7c-12.211,0-20.3,8.011-20.3,21.466a25.873,25.873,0,0,0,1.867,10.188c4.51,10.5,15.088,11.433,20.687,11.433,6.456,0,9.256-1.167,13.378-2.8l0.466-.622,0.545-8.789ZM318.944,507.3c0.233-2.411.777-5.677,3.733-7.544a5.97,5.97,0,0,1,8.088,1.867,9.5,9.5,0,0,1,1.167,5.366Zm67.354,2.256c0.078-7,.078-10.033-1.944-13.3-1.556-2.488-4.667-5.6-14.622-5.6a47.336,47.336,0,0,0-15.243,2.566l-0.467.622-0.389,8.478,0.622,0.311c2.722-1.089,7.778-3.111,12.988-3.111,2.878,0,4.045.467,5.056,1.478a4.9,4.9,0,0,1,1.011,3.344c-9.333,1.244-13.688,2.1-18.355,4.977a12.44,12.44,0,0,0-5.833,10.656c0,8.321,5.989,13.688,13.611,13.688a16.079,16.079,0,0,0,10.81-4.122v2.877l0.467,0.545c5.6-.234,7.311-0.311,12.366-0.234l0.389-.544c-0.545-7.622-.545-9.566-0.545-16.877Zm-12.833,12.366a12.6,12.6,0,0,1-6.3,2.022c-2.8,0-5.133-1.478-5.133-4.744,0-5.133,6.144-5.989,11.432-6.689v9.411Z"/>
</svg>
