<?xml version="1.0" encoding="UTF-8"?>
<svg xmlns="http://www.w3.org/2000/svg" xmlns:xlink="http://www.w3.org/1999/xlink" width="975" height="1300" viewBox="0 0 975 1300">
<path fill-rule="nonzero" fill="rgb(34.901961%, 14.901961%, 14.901961%)" fill-opacity="1" d="M 162.625 456.375 C 150.625 456.75 148.125 456.75 134.75 456.75 L 133.875 457.5 C 127.25 478.75 123.25 491.375 104.875 544.125 L 105.375 545 L 124.875 545 L 125.75 544.25 L 131.875 521.5 L 158.875 521.5 L 164.25 544.625 L 165.125 545.375 C 174.25 545 176.75 544.875 186.875 545 L 187.5 544 C 172.375 490.5 170.625 484.625 163.5 457.125 L 162.625 456.375 M 136.25 506.375 L 142.5 485.25 L 146.875 470.625 L 150.625 486.875 L 155.25 506.375 Z M 255.5 478.125 L 235.125 479.125 L 234.25 479.875 C 235.125 494 235.125 514 235.125 516 C 235.125 519.625 235.125 521.625 235 526.625 C 231.625 528.875 229 530.75 225.625 530.75 C 216.625 530.75 216.625 521.25 216.625 513.875 C 216.625 510.75 216.625 507.5 216.75 504.375 L 217 479.125 L 216.125 478.125 L 195.5 479.125 L 194.625 479.875 C 195.375 490.375 195.5 493.875 195.5 506.5 L 195.5 515.25 C 195.375 528.875 196 534.625 200.5 539.875 C 204.625 544.5 210.625 546.5 216.875 546.5 C 225.75 546.5 230.875 542.5 235.375 539 L 235.25 544.625 L 236.125 545.375 C 245.25 545 248 545 256.125 545 L 256.875 544.25 C 256.25 535.375 256 530.625 256 514.375 C 256 502.625 256.125 490.875 256.375 479.125 Z M 280 545.25 L 282.5 545.25 C 302.5 545.25 315.375 544.25 324.875 534.125 C 333.75 524.625 334.625 513.375 334.625 508.125 C 334.625 490.75 324.625 477.25 307.625 477.25 C 299.375 477.25 295 480 291.5 482.25 L 292.25 446 L 291.25 445.25 L 270.5 448.5 L 269.75 449.375 C 270.75 459.875 271.125 464.125 271.125 489.25 C 271.125 500 271 521.25 270.875 544.5 L 271.75 545.375 L 280 545.25 M 292 494.625 C 294.5 493.375 296.875 492.125 300.125 492.125 C 308.375 492.125 313.125 499.5 313.125 511 C 313.125 520 309.125 525.875 305.75 528.25 C 301.625 531.125 296.25 531.25 292 531.375 Z M 406.5 478.125 L 386.125 479.125 L 385.25 479.875 C 386.125 494 386.125 514 386.125 516 C 386.125 519.625 386.125 521.625 386 526.625 C 382.625 528.875 380 530.75 376.625 530.75 C 367.625 530.75 367.625 521.25 367.625 513.875 C 367.625 510.75 367.625 507.5 367.75 504.375 L 368 479.125 L 367.125 478.125 L 346.5 479.125 L 345.625 479.875 C 346.375 490.375 346.5 493.875 346.5 506.5 L 346.5 515.25 C 346.375 528.875 347 534.625 351.5 539.875 C 355.625 544.5 361.625 546.5 367.875 546.5 C 376.75 546.5 381.875 542.5 386.375 539 L 386.25 544.625 L 387.125 545.375 C 396.25 545 399 545 407.125 545 L 407.875 544.25 C 407.25 535.375 407 530.625 407 514.375 C 407 502.625 407.125 490.875 407.375 479.125 Z M 458.125 498.625 L 461.625 478.25 L 460.875 477.375 C 460 477.375 459.125 477.25 458.25 477.25 C 453.125 477.25 447.375 480.125 443.375 489.375 L 443.75 477.875 L 442.75 476.875 C 433.5 478.875 431.125 479.25 422 480.625 L 421.25 481.375 C 422 490.75 422.375 496.375 422.375 513.75 C 422.375 524 422.25 534.25 422 544.625 L 422.75 545.375 C 432 545 434 544.875 444 545 L 444.625 544.125 C 444.125 534 443.375 519.875 443.375 511.25 C 443.375 505.625 443.375 497.375 451.875 497.375 C 454 497.375 455.25 498.125 457 499.125 Z M 530.125 544.125 C 529.5 533.125 529.5 529.625 529.25 517.375 L 529.25 507.625 C 529.125 495.625 529 489.875 525.875 484.75 C 522 478.25 514.875 477.25 510.375 477.25 C 502.75 477.25 496.125 481.25 490.375 484.625 L 490.625 477.75 L 489.375 476.875 C 479.75 478.875 477.625 479.25 468.25 480.5 L 467.5 481.375 C 468.5 492.25 469.25 500.125 469.25 520.5 C 469.25 528.5 469.125 536.5 469 544.5 L 469.75 545.25 C 478.75 544.875 480.625 544.875 490.625 544.875 L 491.375 544.125 C 490.625 524.875 490.5 520 490.375 497.625 C 493 495.875 496 493.75 500 493.75 C 506.875 493.75 507.5 501.125 507.875 505.625 C 508.125 509.75 508.25 526.875 508.25 531.625 C 508.25 535.875 508.125 540.25 508.125 544.5 L 508.875 545.25 C 517.125 545 519.25 544.875 529.25 544.875 Z M 617 491.25 C 606.5 486.875 601 484.625 601 479 C 601 475.125 604.625 470.25 612.875 470.25 C 622.375 470.25 628 474.125 632.625 477.25 L 633.75 476.75 L 634.75 460.375 L 634.125 459.5 C 628.75 457.25 623.125 454.875 611 454.875 C 587.5 454.875 579.375 468.125 579.375 481.5 C 579.375 496.625 591.125 502.125 598.125 505.5 L 602.25 507.375 C 610.875 511 617.5 514.125 617.5 520.75 C 617.5 525.5 613.375 531.125 602.5 531.125 C 591.125 531.125 584.75 526.125 581.125 523.25 L 579.875 523.625 L 579 541.25 L 579.75 542.25 C 581.125 542.75 582.5 543.375 583.875 543.75 C 586.75 544.75 594.125 546.875 603.5 546.875 C 607.25 546.875 616.75 546.5 624.25 543 C 634.75 537.875 639.25 528.375 639.25 517.75 C 639.25 510.625 636.5 503 629.875 497.875 C 626.5 495.375 623.25 493.875 620.25 492.5 Z M 686.125 530.625 C 684 531.25 682.5 531.75 680.375 531.75 C 674 531.75 673.5 527.75 673.25 525.875 C 672.875 522.625 672.875 515.75 673 510.75 L 673.25 493.125 L 684.5 493.625 L 685.25 492.875 L 686.5 479.5 L 685.75 478.75 L 673.25 478.75 L 673.625 457.75 L 672.75 457 C 664.25 459.5 662 460.125 653.125 462.375 L 652.625 463.25 L 652.75 478.875 L 646 478.625 L 645.25 479.25 L 644.125 492.625 L 644.875 493.375 L 652.75 493.125 L 652.375 513 C 652.25 516.125 652.125 519.25 652.125 522.5 C 652.125 534 652.375 546.375 671.875 546.375 C 676.75 546.375 680.625 545.625 685 544.875 L 685.875 544 L 687.125 531.125 Z M 751 507.75 C 751.125 496.5 751.125 491.625 747.875 486.375 C 745.375 482.375 740.375 477.375 724.375 477.375 C 713.625 477.375 707 479.375 699.875 481.5 L 699.125 482.5 L 698.5 496.125 L 699.5 496.625 C 703.875 494.875 712 491.625 720.375 491.625 C 725 491.625 726.875 492.375 728.5 494 C 729.75 495.25 730.125 497.5 730.125 499.375 C 715.125 501.375 708.125 502.75 700.625 507.375 C 693.625 511.75 691.25 518.875 691.25 524.5 C 691.25 537.875 700.875 546.5 713.125 546.5 C 722.5 546.5 727.875 542 730.5 539.875 L 730.5 544.5 L 731.25 545.375 C 740.25 545 743 544.875 751.125 545 L 751.75 544.125 C 750.875 531.875 750.875 528.75 750.875 517 L 751 507.75 M 730.375 527.625 C 727.75 529.125 724.375 530.875 720.25 530.875 C 715.75 530.875 712 528.5 712 523.25 C 712 515 721.875 513.625 730.375 512.5 Z M 800.625 530.625 C 798.5 531.25 797 531.75 794.875 531.75 C 788.5 531.75 788 527.75 787.75 525.875 C 787.375 522.625 787.375 515.75 787.5 510.75 L 787.75 493.125 L 799 493.625 L 799.75 492.875 L 801 479.5 L 800.25 478.75 L 787.75 478.75 L 788.125 457.75 L 787.25 457 C 778.75 459.5 776.5 460.125 767.625 462.375 L 767.125 463.25 L 767.25 478.875 L 760.5 478.625 L 759.75 479.25 L 758.625 492.625 L 759.375 493.375 L 767.25 493.125 L 766.875 513 C 766.75 516.125 766.625 519.25 766.625 522.5 C 766.625 534 766.875 546.375 786.375 546.375 C 791.25 546.375 795.125 545.625 799.5 544.875 L 800.375 544 L 801.625 531.125 Z M 865.375 526.5 C 860.625 529 855 531.875 845.875 531.875 C 838.375 531.875 833.25 529.5 830.25 525 C 828.375 522.375 828 519.875 827.5 517.375 L 867.875 516.625 L 868.625 515.75 C 868.5 509.625 868.375 503.375 866.625 497.125 C 862.25 482.375 852.625 479.375 848.375 478.375 C 845.25 477.5 842.375 477.25 839.5 477.25 C 819.875 477.25 806.875 490.125 806.875 511.75 C 806.875 517.625 807.875 523.75 809.875 528.125 C 817.125 545 834.125 546.5 843.125 546.5 C 853.5 546.5 858 544.625 864.625 542 L 865.375 541 L 866.25 526.875 L 865.375 526.5 M 827.5 504.125 C 827.875 500.25 828.75 495 833.5 492 C 835 491 836.75 490.625 838.5 490.625 C 842.625 490.625 845.125 492.75 846.5 495 C 848.25 497.75 848.375 500.75 848.375 503.625 Z M 872.625 545 "/>
<path fill-rule="nonzero" fill="rgb(34.901961%, 14.901961%, 14.901961%)" fill-opacity="1" d="M 215.6875 660.625 C 224.0625 674.875 225.9375 678.625 233.9375 695 L 234.9375 695.625 C 238.8125 695.375 242.5625 695.125 246.4375 695 C 250.3125 694.875 254.3125 694.75 258.1875 694.75 L 258.9375 693.25 C 254.1875 687.125 252.8125 685.25 243.8125 670.875 C 239.8125 664.5 237.8125 661.125 234.6875 655.625 C 240.3125 653.125 251.6875 647.875 251.6875 632 C 251.6875 626.5 250.1875 615.125 239.9375 609.75 C 233.4375 606.375 226.6875 606.25 212.0625 606.5 L 203.3125 606.625 L 188.0625 606.625 L 187.4375 607.375 C 187.9375 620 188.4375 633 188.4375 667 C 188.4375 678.625 188.3125 684.25 187.9375 694.625 L 188.6875 695.375 C 197.8125 695 199.8125 694.875 210.0625 695 L 210.8125 694.25 C 209.8125 679.75 209.6875 675.75 209.5625 660.875 L 215.6875 660.625 M 209.8125 621.75 C 211.5625 621.625 213.3125 621.625 215.0625 621.625 C 219.9375 621.625 229.5625 621.625 229.5625 632.625 C 229.5625 636.125 228.6875 640.75 224.0625 643.625 C 220.5625 645.75 216.0625 646 209.8125 646.125 Z M 321.0625 676.5 C 316.3125 679 310.6875 681.875 301.5625 681.875 C 294.0625 681.875 288.9375 679.5 285.9375 675 C 284.0625 672.375 283.6875 669.875 283.1875 667.375 L 323.5625 666.625 L 324.3125 665.75 C 324.1875 659.625 324.0625 653.375 322.3125 647.125 C 317.9375 632.375 308.3125 629.375 304.0625 628.375 C 300.9375 627.5 298.0625 627.25 295.1875 627.25 C 275.5625 627.25 262.5625 640.125 262.5625 661.75 C 262.5625 667.625 263.5625 673.75 265.5625 678.125 C 272.8125 695 289.8125 696.5 298.8125 696.5 C 309.1875 696.5 313.6875 694.625 320.3125 692 L 321.0625 691 L 321.9375 676.875 L 321.0625 676.5 M 283.1875 654.125 C 283.5625 650.25 284.4375 645 289.1875 642 C 290.6875 641 292.4375 640.625 294.1875 640.625 C 298.3125 640.625 300.8125 642.75 302.1875 645 C 303.9375 647.75 304.0625 650.75 304.0625 653.625 Z M 384.6875 677 C 381.3125 679 378.0625 681 371.6875 681 C 357.5625 681 354.6875 669.25 354.6875 661.75 C 354.6875 652.625 358.6875 642.125 370.8125 642.125 C 376.3125 642.125 379.3125 644.125 383.0625 646.625 L 384.3125 646.25 C 384.8125 639.625 384.9375 637.875 385.9375 631.25 L 385.3125 630.5 C 379.8125 628.75 375.0625 627.25 367.8125 627.25 C 338.4375 627.25 332.6875 649.5 332.6875 662.25 C 332.6875 676.625 340.1875 696.125 368.3125 696.125 C 374.9375 696.125 379.1875 694.875 384.4375 693.375 L 385.1875 692.625 L 385.6875 677.625 Z M 431.8125 648.625 L 435.3125 628.25 L 434.5625 627.375 C 433.6875 627.375 432.8125 627.25 431.9375 627.25 C 426.8125 627.25 421.0625 630.125 417.0625 639.375 L 417.4375 627.875 L 416.4375 626.875 C 407.1875 628.875 404.8125 629.25 395.6875 630.625 L 394.9375 631.375 C 395.6875 640.75 396.0625 646.375 396.0625 663.75 C 396.0625 674 395.9375 684.25 395.6875 694.625 L 396.4375 695.375 C 405.6875 695 407.6875 694.875 417.6875 695 L 418.3125 694.125 C 417.8125 684 417.0625 669.875 417.0625 661.25 C 417.0625 655.625 417.0625 647.375 425.5625 647.375 C 427.6875 647.375 428.9375 648.125 430.6875 649.125 Z M 498.0625 676.5 C 493.3125 679 487.6875 681.875 478.5625 681.875 C 471.0625 681.875 465.9375 679.5 462.9375 675 C 461.0625 672.375 460.6875 669.875 460.1875 667.375 L 500.5625 666.625 L 501.3125 665.75 C 501.1875 659.625 501.0625 653.375 499.3125 647.125 C 494.9375 632.375 485.3125 629.375 481.0625 628.375 C 477.9375 627.5 475.0625 627.25 472.1875 627.25 C 452.5625 627.25 439.5625 640.125 439.5625 661.75 C 439.5625 667.625 440.5625 673.75 442.5625 678.125 C 449.8125 695 466.8125 696.5 475.8125 696.5 C 486.1875 696.5 490.6875 694.625 497.3125 692 L 498.0625 691 L 498.9375 676.875 L 498.0625 676.5 M 460.1875 654.125 C 460.5625 650.25 461.4375 645 466.1875 642 C 467.6875 641 469.4375 640.625 471.1875 640.625 C 475.3125 640.625 477.8125 642.75 479.1875 645 C 480.9375 647.75 481.0625 650.75 481.0625 653.625 Z M 568.4375 657.75 C 568.5625 646.5 568.5625 641.625 565.3125 636.375 C 562.8125 632.375 557.8125 627.375 541.8125 627.375 C 531.0625 627.375 524.4375 629.375 517.3125 631.5 L 516.5625 632.5 L 515.9375 646.125 L 516.9375 646.625 C 521.3125 644.875 529.4375 641.625 537.8125 641.625 C 542.4375 641.625 544.3125 642.375 545.9375 644 C 547.1875 645.25 547.5625 647.5 547.5625 649.375 C 532.5625 651.375 525.5625 652.75 518.0625 657.375 C 511.0625 661.75 508.6875 668.875 508.6875 674.5 C 508.6875 687.875 518.3125 696.5 530.5625 696.5 C 539.9375 696.5 545.3125 692 547.9375 689.875 L 547.9375 694.5 L 548.6875 695.375 C 557.6875 695 560.4375 694.875 568.5625 695 L 569.1875 694.125 C 568.3125 681.875 568.3125 678.75 568.3125 667 L 568.4375 657.75 M 547.8125 677.625 C 545.1875 679.125 541.8125 680.875 537.6875 680.875 C 533.1875 680.875 529.4375 678.5 529.4375 673.25 C 529.4375 665 539.3125 663.625 547.8125 662.5 Z M 618.0625 680.625 C 615.9375 681.25 614.4375 681.75 612.3125 681.75 C 605.9375 681.75 605.4375 677.75 605.1875 675.875 C 604.8125 672.625 604.8125 665.75 604.9375 660.75 L 605.1875 643.125 L 616.4375 643.625 L 617.1875 642.875 L 618.4375 629.5 L 617.6875 628.75 L 605.1875 628.75 L 605.5625 607.75 L 604.6875 607 C 596.1875 609.5 593.9375 610.125 585.0625 612.375 L 584.5625 613.25 L 584.6875 628.875 L 577.9375 628.625 L 577.1875 629.25 L 576.0625 642.625 L 576.8125 643.375 L 584.6875 643.125 L 584.3125 663 C 584.1875 666.125 584.0625 669.25 584.0625 672.5 C 584.0625 684 584.3125 696.375 603.8125 696.375 C 608.6875 696.375 612.5625 695.625 616.9375 694.875 L 617.8125 694 L 619.0625 681.125 Z M 649.9375 694.125 C 649.3125 684.5 648.8125 677.125 648.8125 659.875 C 648.8125 649.25 649.0625 638.5 649.1875 627.875 L 648.3125 626.875 L 626.8125 630.625 L 626.0625 631.375 C 627.0625 640.875 627.4375 645.25 627.4375 663 C 627.4375 676.625 627.0625 684.25 626.6875 694.5 L 627.4375 695.375 C 636.4375 695 638.9375 694.875 649.0625 695 L 649.9375 694.125 M 647.9375 614.875 L 648.3125 597.875 L 647.5625 597.125 L 627.1875 599.625 L 626.4375 600.5 C 626.6875 605 626.8125 607.625 626.8125 610.625 C 626.8125 613 626.8125 615.5 626.6875 617.875 L 627.5625 618.625 C 636.0625 617.125 638.4375 616.875 647.3125 615.75 Z M 727.4375 661.75 C 727.4375 656.875 727.4375 636.625 709.9375 629.75 C 704.4375 627.625 697.9375 627.375 694.6875 627.375 C 672.9375 627.375 660.6875 639 660.6875 662 C 660.6875 670 661.9375 678.125 666.5625 684.875 C 669.8125 689.75 675.9375 696.5 693.8125 696.5 C 720.3125 696.5 727.4375 680.5 727.4375 661.75 M 705.8125 661.625 C 705.8125 671.875 704.4375 683.25 694.0625 683.25 C 690.8125 683.25 688.5625 681.75 687.0625 680.375 C 684.9375 678.25 682.5625 674 682.5625 661.875 C 682.5625 658.25 682.5625 650.25 685.0625 645.875 C 686.9375 642.5 690.1875 640.25 694.1875 640.25 C 697.6875 640.25 700.5625 642.125 702.1875 644.125 C 705.1875 647.75 705.8125 654.875 705.8125 661.625 Z M 800.5625 694.125 C 799.9375 683.125 799.9375 679.625 799.6875 667.375 L 799.6875 657.625 C 799.5625 645.625 799.4375 639.875 796.3125 634.75 C 792.4375 628.25 785.3125 627.25 780.8125 627.25 C 773.1875 627.25 766.5625 631.25 760.8125 634.625 L 761.0625 627.75 L 759.8125 626.875 C 750.1875 628.875 748.0625 629.25 738.6875 630.5 L 737.9375 631.375 C 738.9375 642.25 739.6875 650.125 739.6875 670.5 C 739.6875 678.5 739.5625 686.5 739.4375 694.5 L 740.1875 695.25 C 749.1875 694.875 751.0625 694.875 761.0625 694.875 L 761.8125 694.125 C 761.0625 674.875 760.9375 670 760.8125 647.625 C 763.4375 645.875 766.4375 643.75 770.4375 643.75 C 777.3125 643.75 777.9375 651.125 778.3125 655.625 C 778.5625 659.75 778.6875 676.875 778.6875 681.625 C 778.6875 685.875 778.5625 690.25 778.5625 694.5 L 779.3125 695.25 C 787.5625 695 789.6875 694.875 799.6875 694.875 Z M 807.3125 695 "/>
<path fill-rule="nonzero" fill="rgb(34.901961%, 14.901961%, 14.901961%)" fill-opacity="1" d="M 412.4375 756.375 C 400.4375 756.75 397.9375 756.75 384.5625 756.75 L 383.6875 757.5 C 377.0625 778.75 373.0625 791.375 354.6875 844.125 L 355.1875 845 L 374.6875 845 L 375.5625 844.25 L 381.6875 821.5 L 408.6875 821.5 L 414.0625 844.625 L 414.9375 845.375 C 424.0625 845 426.5625 844.875 436.6875 845 L 437.3125 844 C 422.1875 790.5 420.4375 784.625 413.3125 757.125 L 412.4375 756.375 M 386.0625 806.375 L 392.3125 785.25 L 396.6875 770.625 L 400.4375 786.875 L 405.0625 806.375 Z M 481.4375 798.625 L 484.9375 778.25 L 484.1875 777.375 C 483.3125 777.375 482.4375 777.25 481.5625 777.25 C 476.4375 777.25 470.6875 780.125 466.6875 789.375 L 467.0625 777.875 L 466.0625 776.875 C 456.8125 778.875 454.4375 779.25 445.3125 780.625 L 444.5625 781.375 C 445.3125 790.75 445.6875 796.375 445.6875 813.75 C 445.6875 824 445.5625 834.25 445.3125 844.625 L 446.0625 845.375 C 455.3125 845 457.3125 844.875 467.3125 845 L 467.9375 844.125 C 467.4375 834 466.6875 819.875 466.6875 811.25 C 466.6875 805.625 466.6875 797.375 475.1875 797.375 C 477.3125 797.375 478.5625 798.125 480.3125 799.125 Z M 547.6875 826.5 C 542.9375 829 537.3125 831.875 528.1875 831.875 C 520.6875 831.875 515.5625 829.5 512.5625 825 C 510.6875 822.375 510.3125 819.875 509.8125 817.375 L 550.1875 816.625 L 550.9375 815.75 C 550.8125 809.625 550.6875 803.375 548.9375 797.125 C 544.5625 782.375 534.9375 779.375 530.6875 778.375 C 527.5625 777.5 524.6875 777.25 521.8125 777.25 C 502.1875 777.25 489.1875 790.125 489.1875 811.75 C 489.1875 817.625 490.1875 823.75 492.1875 828.125 C 499.4375 845 516.4375 846.5 525.4375 846.5 C 535.8125 846.5 540.3125 844.625 546.9375 842 L 547.6875 841 L 548.5625 826.875 L 547.6875 826.5 M 509.8125 804.125 C 510.1875 800.25 511.0625 795 515.8125 792 C 517.3125 791 519.0625 790.625 520.8125 790.625 C 524.9375 790.625 527.4375 792.75 528.8125 795 C 530.5625 797.75 530.6875 800.75 530.6875 803.625 Z M 618.0625 807.75 C 618.1875 796.5 618.1875 791.625 614.9375 786.375 C 612.4375 782.375 607.4375 777.375 591.4375 777.375 C 580.6875 777.375 574.0625 779.375 566.9375 781.5 L 566.1875 782.5 L 565.5625 796.125 L 566.5625 796.625 C 570.9375 794.875 579.0625 791.625 587.4375 791.625 C 592.0625 791.625 593.9375 792.375 595.5625 794 C 596.8125 795.25 597.1875 797.5 597.1875 799.375 C 582.1875 801.375 575.1875 802.75 567.6875 807.375 C 560.6875 811.75 558.3125 818.875 558.3125 824.5 C 558.3125 837.875 567.9375 846.5 580.1875 846.5 C 589.5625 846.5 594.9375 842 597.5625 839.875 L 597.5625 844.5 L 598.3125 845.375 C 607.3125 845 610.0625 844.875 618.1875 845 L 618.8125 844.125 C 617.9375 831.875 617.9375 828.75 617.9375 817 L 618.0625 807.75 M 597.4375 827.625 C 594.8125 829.125 591.4375 830.875 587.3125 830.875 C 582.8125 830.875 579.0625 828.5 579.0625 823.25 C 579.0625 815 588.9375 813.625 597.4375 812.5 Z M 625.1875 845 "/>
</svg>
