<svg xmlns="http://www.w3.org/2000/svg" width="612" height="817" viewBox="0 0 612 817">
  <defs>
    <style>
      .cls-1 {
        fill: #592626;
        fill-rule: evenodd;
      }
    </style>
  </defs>
  <path id="D._L._Bliss_State_Park" data-name="D. L. Bliss State Park" class="cls-1" d="M42.4,390.066c2.022,0.078,4.122.078,6.144,0.078,8.711,0,22.788-.312,28.465-14.155a42.229,42.229,0,0,0,2.567-14.855c0-7.311-1.633-12.911-3.578-16.41-5.289-9.644-15.321-9.956-24.188-9.956-3.578,0-7.155.156-10.733,0.312l-8.244.077-0.467.467c0.311,7.466.622,14,.622,35.543,0,7.622-.078,12.21-0.233,18.588l0.467,0.311H42.4Zm4.278-10.033c-0.156-7.622-.233-14.855-0.233-22.321,0-4.2,0-8.4.078-12.6,1.556-.077,3.189-0.155,4.744-0.155,4.744,0,14,0,14,16.566,0,9.721-3.655,14.077-5.522,15.632C56.249,380.033,50.882,380.033,46.682,380.033Zm52.034-1.944-12.444.233-0.389.622,0.156,10.811,0.389,0.544,12.444-.311,0.389-.467L99.1,378.555Zm64.4,1.322c-8.478.466-15.244,0.622-17.577,0.622h-1.556c-0.155-20.766-.077-26.054.545-44.642l-0.467-.467c-6.688.311-8.477,0.311-13.844,0.233l-0.466.467c0.311,6.222.389,8.088,0.389,17.344,0,12.288-.078,24.576-0.078,36.864l0.389,0.467c15.243-.233,18.043-0.233,32.043-0.233l0.389-.467,0.622-9.8Zm18.279-1.322-12.444.233-0.389.622,0.156,10.811,0.388,0.544,12.444-.311,0.389-.467-0.155-10.966Zm45.422,11.977c7.233,0.155,16.177.311,22.01-3.733a15.461,15.461,0,0,0,6.533-13.144c0-4.978-2.1-9.566-6.533-11.744a17.184,17.184,0,0,0-4.822-1.4c2.644-1.089,5.755-2.489,7.777-6.611a12.607,12.607,0,0,0,1.245-5.444,13.061,13.061,0,0,0-3.111-8.711c-3.267-3.5-8.322-4.433-15.944-4.433-2.644,0-7.389.078-10.033,0.156l-10.888.155-0.467.467c0.311,7.466.389,10.344,0.389,21.077,0,11.044-.078,22.01-0.233,33.054l0.544,0.311h13.533Zm-0.545-23.644c5.911-.155,9.333-0.155,11.589,1.167a7.173,7.173,0,0,1,3.111,6.378,6.687,6.687,0,0,1-4.822,6.688c-2.334.778-6.533,0.778-9.878,0.7V366.422Zm0-22.865c1.634,0,3.811-.078,5.133-0.078,4.2,0,8.011,1.478,8.011,6.533a6.871,6.871,0,0,1-3.966,6.3c-1.945.855-6.067,0.855-9.178,0.855v-13.61Zm50.011,45.964c-0.388-8.944-.777-17.11-0.777-41.687,0-7.388.077-10.888,0.389-19.287L275.349,328l-13.3,2.1-0.311.467c0.777,9.488.855,12.055,1.011,24.654,0.078,4.589.078,9.177,0.078,13.766,0,8.4-.156,13.066-0.467,20.766l0.467,0.544c5.21-.233,7.31-0.311,12.988-0.233Zm23.1,0c-0.388-5.988-.7-10.577-0.7-21.31,0-6.611.156-13.3,0.234-19.91l-0.545-.622-13.377,2.333-0.466.467c0.622,5.911.855,8.633,0.855,19.677,0,8.477-.233,13.221-0.467,19.6l0.467,0.544c5.6-.233,7.155-0.311,13.455-0.233Zm-1.244-49.308,0.233-10.578-0.466-.466-12.677,1.555-0.467.545c0.155,2.8.233,4.433,0.233,6.3,0,1.478,0,3.034-.078,4.511l0.545,0.467c5.288-.933,6.766-1.089,12.288-1.789Zm26.211,23.021c-2.644-.934-4.744-1.789-4.744-3.967,0-.933.622-3.5,5.444-3.5a16.881,16.881,0,0,1,9.722,3.267l0.7-.233,0.777-8.478-0.388-.466a39.618,39.618,0,0,0-11.9-1.945c-3.811,0-11.433.311-15.477,6.144a11.694,11.694,0,0,0-2.1,6.845c0,8.321,6.455,10.81,10.111,12.21l2.955,1.089c2.1,0.7,5.522,1.866,5.522,4.666,0,1.945-1.789,4.045-6.144,4.045a19.458,19.458,0,0,1-8.244-2.178,17.186,17.186,0,0,1-3.111-2.178l-0.7.311c-0.156,4.045-.233,4.9-0.544,8.789l0.388,0.7c3.811,1.4,7.078,2.644,12.755,2.644,5.911,0,17.577-1.089,18.977-12.21a13.154,13.154,0,0,0,.078-1.711c0-8.556-5.989-10.811-10.266-12.444Zm37.256,0c-2.645-.934-4.745-1.789-4.745-3.967,0-.933.622-3.5,5.445-3.5a16.874,16.874,0,0,1,9.721,3.267l0.7-.233,0.778-8.478-0.389-.466a39.606,39.606,0,0,0-11.9-1.945c-3.811,0-11.433.311-15.477,6.144a11.694,11.694,0,0,0-2.1,6.845c0,8.321,6.455,10.81,10.11,12.21l2.956,1.089c2.1,0.7,5.522,1.866,5.522,4.666,0,1.945-1.789,4.045-6.144,4.045a19.454,19.454,0,0,1-8.244-2.178,17.116,17.116,0,0,1-3.111-2.178l-0.7.311c-0.156,4.045-.234,4.9-0.545,8.789l0.389,0.7c3.811,1.4,7.077,2.644,12.755,2.644,5.911,0,17.577-1.089,18.977-12.21a13.154,13.154,0,0,0,.078-1.711c0-8.556-5.989-10.811-10.267-12.444Zm66.11-6.611c-6.533-2.722-9.955-4.122-9.955-7.622,0-2.411,2.256-5.444,7.389-5.444,5.911,0,9.41,2.411,12.288,4.355l0.7-.311,0.622-10.188-0.389-.545a31.857,31.857,0,0,0-14.388-2.877c-14.621,0-19.677,8.244-19.677,16.566,0,9.41,7.311,12.832,11.666,14.932l2.567,1.167c5.366,2.255,9.488,4.2,9.488,8.322,0,2.955-2.566,6.455-9.332,6.455a19.842,19.842,0,0,1-13.3-4.9l-0.778.233-0.544,10.967,0.467,0.622c0.855,0.311,1.711.7,2.566,0.933a38.753,38.753,0,0,0,12.211,1.944c2.333,0,8.244-.233,12.91-2.411,6.533-3.188,9.333-9.1,9.333-15.71a15.415,15.415,0,0,0-5.833-12.366,31.446,31.446,0,0,0-5.989-3.344Zm43.012,24.5a11.68,11.68,0,0,1-3.578.7c-3.967,0-4.278-2.489-4.433-3.656a88.86,88.86,0,0,1-.156-9.41l0.156-10.966,7,0.311,0.467-.467,0.778-8.322-0.467-.466h-7.777l0.233-13.066-0.544-.467c-5.289,1.555-6.689,1.944-12.211,3.344l-0.311.545,0.078,9.721-4.2-.155-0.467.389-0.7,8.321,0.467,0.467,4.9-.155-0.233,12.366c-0.078,1.944-.156,3.888-0.156,5.91,0,7.156.156,14.855,12.288,14.855a45.191,45.191,0,0,0,8.167-.933l0.544-.544,0.778-8.011Zm40.366-14.233c0.077-7,.077-10.033-1.945-13.3-1.555-2.489-4.666-5.6-14.621-5.6a47.308,47.308,0,0,0-15.244,2.567l-0.467.622-0.389,8.477,0.623,0.311c2.722-1.089,7.777-3.111,12.988-3.111,2.878,0,4.044.467,5.055,1.478a4.9,4.9,0,0,1,1.011,3.344c-9.333,1.245-13.688,2.1-18.354,4.978a12.435,12.435,0,0,0-5.833,10.655c0,8.322,5.988,13.688,13.61,13.688a16.084,16.084,0,0,0,10.811-4.122v2.878L498.8,390.3c5.6-.233,7.311-0.311,12.366-0.233l0.389-.545c-0.544-7.621-.544-9.566-0.544-16.877ZM498.26,379.255a12.6,12.6,0,0,1-6.3,2.022c-2.8,0-5.133-1.477-5.133-4.744,0-5.133,6.144-5.988,11.433-6.688v9.41Zm43.711,1.867a11.669,11.669,0,0,1-3.578.7c-3.966,0-4.277-2.489-4.433-3.656a89.161,89.161,0,0,1-.155-9.41l0.155-10.966,7,0.311,0.467-.467,0.777-8.322-0.466-.466H533.96l0.234-13.066-0.545-.467c-5.289,1.555-6.688,1.944-12.21,3.344l-0.311.545,0.077,9.721-4.2-.155-0.466.389-0.7,8.321,0.467,0.467,4.9-.155-0.233,12.366c-0.078,1.944-.156,3.888-0.156,5.91,0,7.156.156,14.855,12.289,14.855a45.17,45.17,0,0,0,8.166-.933l0.544-.544,0.778-8.011Zm38.733-2.567a23.769,23.769,0,0,1-12.133,3.345c-4.667,0-7.855-1.478-9.722-4.278a11,11,0,0,1-1.711-4.744l25.121-.467,0.467-.544a45.607,45.607,0,0,0-1.245-11.589c-2.722-9.177-8.71-11.044-11.355-11.666a19.933,19.933,0,0,0-5.522-.7c-12.21,0-20.3,8.011-20.3,21.466a25.891,25.891,0,0,0,1.867,10.188C550.683,390.066,561.26,391,566.86,391c6.455,0,9.255-1.167,13.377-2.8l0.467-.622,0.544-8.788Zm-23.566-13.921c0.233-2.411.778-5.678,3.733-7.544a5.969,5.969,0,0,1,8.089,1.866,9.5,9.5,0,0,1,1.166,5.367Zm-316.555,63.7-9.878.156-0.466.466c0.311,10.111.544,16.877,0.544,25.821,0,9.489-.233,18.9-0.467,28.388l0.467,0.466c5.755-.233,7-0.311,13.222-0.233l0.389-.467c-0.312-8.477-.312-10.421-0.312-18.354,8.711,0.078,18.044.078,23.644-6.767a19.991,19.991,0,0,0,4.044-12.521c0-3.344-.778-10.733-7.233-14.388-4.666-2.722-11.277-2.722-17.11-2.722Zm3.5,9.411c1.711-.078,3.345-0.078,5.056-0.078,6.844,0.156,8.71,3.655,8.71,8.166,0,1.089,0,5.6-4.122,7.855-2.1,1.167-4.977,1.323-9.644,1.323V437.746Zm66.111,22.476c0.077-7,.077-10.032-1.945-13.3-1.555-2.489-4.666-5.6-14.621-5.6a47.335,47.335,0,0,0-15.244,2.567l-0.467.622-0.389,8.477,0.623,0.312c2.722-1.089,7.777-3.111,12.988-3.111,2.878,0,4.044.466,5.055,1.477a4.9,4.9,0,0,1,1.011,3.345c-9.333,1.244-13.688,2.1-18.354,4.977a12.435,12.435,0,0,0-5.833,10.655c0,8.322,5.988,13.688,13.61,13.688a16.079,16.079,0,0,0,10.811-4.122v2.878l0.466,0.544c5.6-.233,7.311-0.311,12.366-0.233l0.389-.544c-0.544-7.622-.544-9.567-0.544-16.877ZM297.36,472.589a12.6,12.6,0,0,1-6.3,2.022c-2.8,0-5.133-1.478-5.133-4.745,0-5.133,6.144-5.988,11.433-6.688v9.411Zm44.411-18.044,2.178-12.677-0.467-.545c-0.544,0-1.089-.077-1.633-0.077-3.189,0-6.767,1.788-9.255,7.544l0.233-7.156-0.622-.622c-5.756,1.245-7.233,1.478-12.911,2.333l-0.466.467c0.466,5.833.7,9.333,0.7,20.144,0,6.377-.078,12.755-0.234,19.21l0.467,0.466c5.755-.233,7-0.311,13.221-0.233l0.389-.544c-0.311-6.3-.777-15.088-0.777-20.455,0-3.5,0-8.633,5.288-8.633a5.826,5.826,0,0,1,3.189,1.089Zm46.666,27.843c-7.311-12.366-8.089-13.766-14-24.421,5.367-7.311,5.911-8.088,11.433-15.166l-0.389-.778-12.677.156-0.778.544c-6.066,10.5-6.844,11.744-10.421,17.111V451.2c0.077-14.544.155-17.655,0.544-29.4l-0.622-.467-13.533,2.023-0.466.544c0.544,7.544.777,11.2,0.933,21.388,0.155,12.6.155,25.2,0.078,37.8l0.544,0.544c5.211-.233,6.689-0.233,12.6-0.233l0.467-.544-0.467-13.144-0.077-8.944c6.766,12.444,7.622,14.155,11.588,22.4l0.7,0.466,14-.544Z"/>
</svg>
