<?xml version="1.0" encoding="UTF-8"?>
<svg xmlns="http://www.w3.org/2000/svg" xmlns:xlink="http://www.w3.org/1999/xlink" width="975" height="1300" viewBox="0 0 975 1300">
<path fill-rule="nonzero" fill="rgb(34.901961%, 14.901961%, 14.901961%)" fill-opacity="1" d="M 77.8125 531.5 L 61.9375 531.75 L 61.1875 532.5 C 61.6875 548.75 62.0625 559.625 62.0625 574 C 62.0625 589.25 61.6875 604.375 61.3125 619.625 L 62.0625 620.375 C 71.3125 620 73.3125 619.875 83.3125 620 L 83.9375 619.25 C 83.4375 605.625 83.4375 602.5 83.4375 589.75 C 97.4375 589.875 112.4375 589.875 121.4375 578.875 C 124.9375 574.625 127.9375 567.5 127.9375 558.75 C 127.9375 553.375 126.6875 541.5 116.3125 535.625 C 108.8125 531.25 98.1875 531.25 88.8125 531.25 L 77.8125 531.5 M 83.4375 546.625 C 86.1875 546.5 88.8125 546.5 91.5625 546.5 C 102.5625 546.75 105.5625 552.375 105.5625 559.625 C 105.5625 561.375 105.5625 568.625 98.9375 572.25 C 95.5625 574.125 90.9375 574.375 83.4375 574.375 Z M 158.5625 619.125 C 157.9375 604.75 157.3125 591.625 157.3125 552.125 C 157.3125 540.25 157.4375 534.625 157.9375 521.125 L 157.0625 520.25 L 135.6875 523.625 L 135.1875 524.375 C 136.4375 539.625 136.5625 543.75 136.8125 564 C 136.9375 571.375 136.9375 578.75 136.9375 586.125 C 136.9375 599.625 136.6875 607.125 136.1875 619.5 L 136.9375 620.375 C 145.3125 620 148.6875 619.875 157.8125 620 Z M 233.0625 553.125 L 212.6875 554.125 L 211.8125 554.875 C 212.6875 569 212.6875 589 212.6875 591 C 212.6875 594.625 212.6875 596.625 212.5625 601.625 C 209.1875 603.875 206.5625 605.75 203.1875 605.75 C 194.1875 605.75 194.1875 596.25 194.1875 588.875 C 194.1875 585.75 194.1875 582.5 194.3125 579.375 L 194.5625 554.125 L 193.6875 553.125 L 173.0625 554.125 L 172.1875 554.875 C 172.9375 565.375 173.0625 568.875 173.0625 581.5 L 173.0625 590.25 C 172.9375 603.875 173.5625 609.625 178.0625 614.875 C 182.1875 619.5 188.1875 621.5 194.4375 621.5 C 203.3125 621.5 208.4375 617.5 212.9375 614 L 212.8125 619.625 L 213.6875 620.375 C 222.8125 620 225.5625 620 233.6875 620 L 234.4375 619.25 C 233.8125 610.375 233.5625 605.625 233.5625 589.375 C 233.5625 577.625 233.6875 565.875 233.9375 554.125 Z M 346.1875 619.125 C 345.5625 607.5 345.4375 604.25 345.4375 590.125 L 345.4375 580.75 C 345.5625 572.375 345.6875 564.625 342.0625 559.375 C 337.1875 552.25 328.5625 552.25 326.5625 552.25 C 316.3125 552.25 309.4375 556.875 304.4375 560.375 C 302.6875 557.5 299.5625 552.25 289.5625 552.25 C 281.3125 552.25 275.9375 556 270.1875 560 L 270.1875 553 L 269.0625 551.875 C 259.3125 553.75 256.5625 554.25 247.8125 555.5 L 247.0625 556.375 C 248.0625 566.375 248.8125 573.25 248.8125 598 C 248.8125 605.125 248.6875 612.375 248.6875 619.5 L 249.3125 620.25 C 257.3125 620 260.0625 619.875 270.4375 619.875 L 271.1875 619.125 C 270.3125 599.875 270.1875 594.125 270.0625 572.375 C 272.6875 570.5 275.5625 568.875 278.6875 568.875 C 286.4375 568.875 286.6875 577.75 286.6875 588.5 C 286.6875 606.625 286.5625 609.375 286.3125 619.5 L 287.0625 620.375 C 296.5625 619.875 299.1875 619.875 307.8125 619.875 L 308.5625 619.125 C 307.8125 607.25 307.6875 603.75 307.5625 588.625 L 307.5625 584 L 307.4375 571.375 C 309.5625 570 312.3125 568.25 316.0625 568.25 C 323.1875 568.25 324.3125 575 324.3125 585.75 C 324.3125 588.125 324.1875 590.5 324.1875 592.875 C 324.0625 597.125 323.9375 615.75 323.8125 619.5 L 324.5625 620.25 C 333.9375 619.875 336.6875 619.875 345.4375 619.875 Z M 416.1875 582.75 C 416.3125 571.5 416.3125 566.625 413.0625 561.375 C 410.5625 557.375 405.5625 552.375 389.5625 552.375 C 378.8125 552.375 372.1875 554.375 365.0625 556.5 L 364.3125 557.5 L 363.6875 571.125 L 364.6875 571.625 C 369.0625 569.875 377.1875 566.625 385.5625 566.625 C 390.1875 566.625 392.0625 567.375 393.6875 569 C 394.9375 570.25 395.3125 572.5 395.3125 574.375 C 380.3125 576.375 373.3125 577.75 365.8125 582.375 C 358.8125 586.75 356.4375 593.875 356.4375 599.5 C 356.4375 612.875 366.0625 621.5 378.3125 621.5 C 387.6875 621.5 393.0625 617 395.6875 614.875 L 395.6875 619.5 L 396.4375 620.375 C 405.4375 620 408.1875 619.875 416.3125 620 L 416.9375 619.125 C 416.0625 606.875 416.0625 603.75 416.0625 592 L 416.1875 582.75 M 395.5625 602.625 C 392.9375 604.125 389.5625 605.875 385.4375 605.875 C 380.9375 605.875 377.1875 603.5 377.1875 598.25 C 377.1875 590 387.0625 588.625 395.5625 587.5 Z M 457.0625 576.875 C 452.8125 575.375 449.4375 574 449.4375 570.5 C 449.4375 569 450.4375 564.875 458.1875 564.875 C 465.8125 564.875 470.6875 568.125 473.8125 570.125 L 474.9375 569.75 L 476.1875 556.125 L 475.5625 555.375 C 469.6875 553.75 464.5625 552.25 456.4375 552.25 C 450.3125 552.25 438.0625 552.75 431.5625 562.125 C 429.9375 564.375 428.1875 568.125 428.1875 573.125 C 428.1875 586.5 438.5625 590.5 444.4375 592.75 L 449.1875 594.5 C 452.5625 595.625 458.0625 597.5 458.0625 602 C 458.0625 605.125 455.1875 608.5 448.1875 608.5 C 444.6875 608.5 439.5625 607.375 434.9375 605 C 432.8125 603.875 431.8125 603 429.9375 601.5 L 428.8125 602 C 428.5625 608.5 428.4375 609.875 427.9375 616.125 L 428.5625 617.25 C 434.6875 619.5 439.9375 621.5 449.0625 621.5 C 458.5625 621.5 477.3125 619.75 479.5625 601.875 C 479.6875 600.875 479.6875 600 479.6875 599.125 C 479.6875 585.375 470.0625 581.75 463.1875 579.125 Z M 525.1875 576.625 C 519.1875 576.75 514.3125 576.875 506.9375 576.875 C 500.9375 576.875 494.9375 576.75 489.0625 576.75 L 488.1875 577.5 L 487.4375 591.875 L 488.0625 592.625 C 495.0625 592.5 499.1875 592.375 505.8125 592.375 C 511.9375 592.375 518.0625 592.5 524.1875 592.5 L 524.9375 591.75 L 525.8125 577.25 Z M 594.9375 603.125 C 580.1875 603.875 576.6875 604 560.6875 604 L 560.4375 582.125 L 589.6875 582.125 L 590.5625 581.375 L 591.3125 567.25 L 590.6875 566.5 L 560.4375 567 L 560.4375 547.125 C 574.5625 547.125 577.4375 547.125 592.5625 547.5 L 593.1875 546.75 L 594.0625 532.25 L 593.4375 531.75 L 538.5625 531.75 L 537.8125 532.5 C 538.5625 544.625 538.8125 549.25 538.8125 582.75 C 538.8125 598.5 538.5625 606.375 538.1875 619.5 L 538.8125 620 L 593.8125 620 L 594.8125 619.25 L 595.6875 604 Z M 667.8125 553.125 L 647.4375 554.125 L 646.5625 554.875 C 647.4375 569 647.4375 589 647.4375 591 C 647.4375 594.625 647.4375 596.625 647.3125 601.625 C 643.9375 603.875 641.3125 605.75 637.9375 605.75 C 628.9375 605.75 628.9375 596.25 628.9375 588.875 C 628.9375 585.75 628.9375 582.5 629.0625 579.375 L 629.3125 554.125 L 628.4375 553.125 L 607.8125 554.125 L 606.9375 554.875 C 607.6875 565.375 607.8125 568.875 607.8125 581.5 L 607.8125 590.25 C 607.6875 603.875 608.3125 609.625 612.8125 614.875 C 616.9375 619.5 622.9375 621.5 629.1875 621.5 C 638.0625 621.5 643.1875 617.5 647.6875 614 L 647.5625 619.625 L 648.4375 620.375 C 657.5625 620 660.3125 620 668.4375 620 L 669.1875 619.25 C 668.5625 610.375 668.3125 605.625 668.3125 589.375 C 668.3125 577.625 668.4375 565.875 668.6875 554.125 Z M 719.4375 573.625 L 722.9375 553.25 L 722.1875 552.375 C 721.3125 552.375 720.4375 552.25 719.5625 552.25 C 714.4375 552.25 708.6875 555.125 704.6875 564.375 L 705.0625 552.875 L 704.0625 551.875 C 694.8125 553.875 692.4375 554.25 683.3125 555.625 L 682.5625 556.375 C 683.3125 565.75 683.6875 571.375 683.6875 588.75 C 683.6875 599 683.5625 609.25 683.3125 619.625 L 684.0625 620.375 C 693.3125 620 695.3125 619.875 705.3125 620 L 705.9375 619.125 C 705.4375 609 704.6875 594.875 704.6875 586.25 C 704.6875 580.625 704.6875 572.375 713.1875 572.375 C 715.3125 572.375 716.5625 573.125 718.3125 574.125 Z M 785.6875 601.5 C 780.9375 604 775.3125 606.875 766.1875 606.875 C 758.6875 606.875 753.5625 604.5 750.5625 600 C 748.6875 597.375 748.3125 594.875 747.8125 592.375 L 788.1875 591.625 L 788.9375 590.75 C 788.8125 584.625 788.6875 578.375 786.9375 572.125 C 782.5625 557.375 772.9375 554.375 768.6875 553.375 C 765.5625 552.5 762.6875 552.25 759.8125 552.25 C 740.1875 552.25 727.1875 565.125 727.1875 586.75 C 727.1875 592.625 728.1875 598.75 730.1875 603.125 C 737.4375 620 754.4375 621.5 763.4375 621.5 C 773.8125 621.5 778.3125 619.625 784.9375 617 L 785.6875 616 L 786.5625 601.875 L 785.6875 601.5 M 747.8125 579.125 C 748.1875 575.25 749.0625 570 753.8125 567 C 755.3125 566 757.0625 565.625 758.8125 565.625 C 762.9375 565.625 765.4375 567.75 766.8125 570 C 768.5625 572.75 768.6875 575.75 768.6875 578.625 Z M 864.6875 618.375 C 852.9375 598.5 851.6875 596.25 842.1875 579.125 C 850.8125 567.375 851.6875 566.125 860.5625 554.75 L 859.9375 553.5 L 839.5625 553.75 L 838.3125 554.625 C 828.5625 571.5 827.3125 573.5 821.5625 582.125 L 821.5625 568.25 C 821.6875 544.875 821.8125 539.875 822.4375 521 L 821.4375 520.25 L 799.6875 523.5 L 798.9375 524.375 C 799.8125 536.5 800.1875 542.375 800.4375 558.75 C 800.6875 579 800.6875 599.25 800.5625 619.5 L 801.4375 620.375 C 809.8125 620 812.1875 620 821.6875 620 L 822.4375 619.125 L 821.6875 598 L 821.5625 583.625 C 832.4375 603.625 833.8125 606.375 840.1875 619.625 L 841.3125 620.375 L 863.8125 619.5 Z M 926.3125 582.75 C 926.4375 571.5 926.4375 566.625 923.1875 561.375 C 920.6875 557.375 915.6875 552.375 899.6875 552.375 C 888.9375 552.375 882.3125 554.375 875.1875 556.5 L 874.4375 557.5 L 873.8125 571.125 L 874.8125 571.625 C 879.1875 569.875 887.3125 566.625 895.6875 566.625 C 900.3125 566.625 902.1875 567.375 903.8125 569 C 905.0625 570.25 905.4375 572.5 905.4375 574.375 C 890.4375 576.375 883.4375 577.75 875.9375 582.375 C 868.9375 586.75 866.5625 593.875 866.5625 599.5 C 866.5625 612.875 876.1875 621.5 888.4375 621.5 C 897.8125 621.5 903.1875 617 905.8125 614.875 L 905.8125 619.5 L 906.5625 620.375 C 915.5625 620 918.3125 619.875 926.4375 620 L 927.0625 619.125 C 926.1875 606.875 926.1875 603.75 926.1875 592 L 926.3125 582.75 M 905.6875 602.625 C 903.0625 604.125 899.6875 605.875 895.5625 605.875 C 891.0625 605.875 887.3125 603.5 887.3125 598.25 C 887.3125 590 897.1875 588.625 905.6875 587.5 Z M 933.4375 620 "/>
<path fill-rule="nonzero" fill="rgb(34.901961%, 14.901961%, 14.901961%)" fill-opacity="1" d="M 232.875 716.25 C 222.375 711.875 216.875 709.625 216.875 704 C 216.875 700.125 220.5 695.25 228.75 695.25 C 238.25 695.25 243.875 699.125 248.5 702.25 L 249.625 701.75 L 250.625 685.375 L 250 684.5 C 244.625 682.25 239 679.875 226.875 679.875 C 203.375 679.875 195.25 693.125 195.25 706.5 C 195.25 721.625 207 727.125 214 730.5 L 218.125 732.375 C 226.75 736 233.375 739.125 233.375 745.75 C 233.375 750.5 229.25 756.125 218.375 756.125 C 207 756.125 200.625 751.125 197 748.25 L 195.75 748.625 L 194.875 766.25 L 195.625 767.25 C 197 767.75 198.375 768.375 199.75 768.75 C 202.625 769.75 210 771.875 219.375 771.875 C 223.125 771.875 232.625 771.5 240.125 768 C 250.625 762.875 255.125 753.375 255.125 742.75 C 255.125 735.625 252.375 728 245.75 722.875 C 242.375 720.375 239.125 718.875 236.125 717.5 Z M 302 755.625 C 299.875 756.25 298.375 756.75 296.25 756.75 C 289.875 756.75 289.375 752.75 289.125 750.875 C 288.75 747.625 288.75 740.75 288.875 735.75 L 289.125 718.125 L 300.375 718.625 L 301.125 717.875 L 302.375 704.5 L 301.625 703.75 L 289.125 703.75 L 289.5 682.75 L 288.625 682 C 280.125 684.5 277.875 685.125 269 687.375 L 268.5 688.25 L 268.625 703.875 L 261.875 703.625 L 261.125 704.25 L 260 717.625 L 260.75 718.375 L 268.625 718.125 L 268.25 738 C 268.125 741.125 268 744.25 268 747.5 C 268 759 268.25 771.375 287.75 771.375 C 292.625 771.375 296.5 770.625 300.875 769.875 L 301.75 769 L 303 756.125 Z M 366.875 732.75 C 367 721.5 367 716.625 363.75 711.375 C 361.25 707.375 356.25 702.375 340.25 702.375 C 329.5 702.375 322.875 704.375 315.75 706.5 L 315 707.5 L 314.375 721.125 L 315.375 721.625 C 319.75 719.875 327.875 716.625 336.25 716.625 C 340.875 716.625 342.75 717.375 344.375 719 C 345.625 720.25 346 722.5 346 724.375 C 331 726.375 324 727.75 316.5 732.375 C 309.5 736.75 307.125 743.875 307.125 749.5 C 307.125 762.875 316.75 771.5 329 771.5 C 338.375 771.5 343.75 767 346.375 764.875 L 346.375 769.5 L 347.125 770.375 C 356.125 770 358.875 769.875 367 770 L 367.625 769.125 C 366.75 756.875 366.75 753.75 366.75 742 L 366.875 732.75 M 346.25 752.625 C 343.625 754.125 340.25 755.875 336.125 755.875 C 331.625 755.875 327.875 753.5 327.875 748.25 C 327.875 740 337.75 738.625 346.25 737.5 Z M 416.5 755.625 C 414.375 756.25 412.875 756.75 410.75 756.75 C 404.375 756.75 403.875 752.75 403.625 750.875 C 403.25 747.625 403.25 740.75 403.375 735.75 L 403.625 718.125 L 414.875 718.625 L 415.625 717.875 L 416.875 704.5 L 416.125 703.75 L 403.625 703.75 L 404 682.75 L 403.125 682 C 394.625 684.5 392.375 685.125 383.5 687.375 L 383 688.25 L 383.125 703.875 L 376.375 703.625 L 375.625 704.25 L 374.5 717.625 L 375.25 718.375 L 383.125 718.125 L 382.75 738 C 382.625 741.125 382.5 744.25 382.5 747.5 C 382.5 759 382.75 771.375 402.25 771.375 C 407.125 771.375 411 770.625 415.375 769.875 L 416.25 769 L 417.5 756.125 Z M 481.25 751.5 C 476.5 754 470.875 756.875 461.75 756.875 C 454.25 756.875 449.125 754.5 446.125 750 C 444.25 747.375 443.875 744.875 443.375 742.375 L 483.75 741.625 L 484.5 740.75 C 484.375 734.625 484.25 728.375 482.5 722.125 C 478.125 707.375 468.5 704.375 464.25 703.375 C 461.125 702.5 458.25 702.25 455.375 702.25 C 435.75 702.25 422.75 715.125 422.75 736.75 C 422.75 742.625 423.75 748.75 425.75 753.125 C 433 770 450 771.5 459 771.5 C 469.375 771.5 473.875 769.625 480.5 767 L 481.25 766 L 482.125 751.875 L 481.25 751.5 M 443.375 729.125 C 443.75 725.25 444.625 720 449.375 717 C 450.875 716 452.625 715.625 454.375 715.625 C 458.5 715.625 461 717.75 462.375 720 C 464.125 722.75 464.25 725.75 464.25 728.625 Z M 549.25 681.5 L 533.375 681.75 L 532.625 682.5 C 533.125 698.75 533.5 709.625 533.5 724 C 533.5 739.25 533.125 754.375 532.75 769.625 L 533.5 770.375 C 542.75 770 544.75 769.875 554.75 770 L 555.375 769.25 C 554.875 755.625 554.875 752.5 554.875 739.75 C 568.875 739.875 583.875 739.875 592.875 728.875 C 596.375 724.625 599.375 717.5 599.375 708.75 C 599.375 703.375 598.125 691.5 587.75 685.625 C 580.25 681.25 569.625 681.25 560.25 681.25 L 549.25 681.5 M 554.875 696.625 C 557.625 696.5 560.25 696.5 563 696.5 C 574 696.75 577 702.375 577 709.625 C 577 711.375 577 718.625 570.375 722.25 C 567 724.125 562.375 724.375 554.875 724.375 Z M 663.625 732.75 C 663.75 721.5 663.75 716.625 660.5 711.375 C 658 707.375 653 702.375 637 702.375 C 626.25 702.375 619.625 704.375 612.5 706.5 L 611.75 707.5 L 611.125 721.125 L 612.125 721.625 C 616.5 719.875 624.625 716.625 633 716.625 C 637.625 716.625 639.5 717.375 641.125 719 C 642.375 720.25 642.75 722.5 642.75 724.375 C 627.75 726.375 620.75 727.75 613.25 732.375 C 606.25 736.75 603.875 743.875 603.875 749.5 C 603.875 762.875 613.5 771.5 625.75 771.5 C 635.125 771.5 640.5 767 643.125 764.875 L 643.125 769.5 L 643.875 770.375 C 652.875 770 655.625 769.875 663.75 770 L 664.375 769.125 C 663.5 756.875 663.5 753.75 663.5 742 L 663.625 732.75 M 643 752.625 C 640.375 754.125 637 755.875 632.875 755.875 C 628.375 755.875 624.625 753.5 624.625 748.25 C 624.625 740 634.5 738.625 643 737.5 Z M 714.375 723.625 L 717.875 703.25 L 717.125 702.375 C 716.25 702.375 715.375 702.25 714.5 702.25 C 709.375 702.25 703.625 705.125 699.625 714.375 L 700 702.875 L 699 701.875 C 689.75 703.875 687.375 704.25 678.25 705.625 L 677.5 706.375 C 678.25 715.75 678.625 721.375 678.625 738.75 C 678.625 749 678.5 759.25 678.25 769.625 L 679 770.375 C 688.25 770 690.25 769.875 700.25 770 L 700.875 769.125 C 700.375 759 699.625 744.875 699.625 736.25 C 699.625 730.625 699.625 722.375 708.125 722.375 C 710.25 722.375 711.5 723.125 713.25 724.125 Z M 789.375 768.375 C 777.625 748.5 776.375 746.25 766.875 729.125 C 775.5 717.375 776.375 716.125 785.25 704.75 L 784.625 703.5 L 764.25 703.75 L 763 704.625 C 753.25 721.5 752 723.5 746.25 732.125 L 746.25 718.25 C 746.375 694.875 746.5 689.875 747.125 671 L 746.125 670.25 L 724.375 673.5 L 723.625 674.375 C 724.5 686.5 724.875 692.375 725.125 708.75 C 725.375 729 725.375 749.25 725.25 769.5 L 726.125 770.375 C 734.5 770 736.875 770 746.375 770 L 747.125 769.125 L 746.375 748 L 746.25 733.625 C 757.125 753.625 758.5 756.375 764.875 769.625 L 766 770.375 L 788.5 769.5 Z M 787.875 770 "/>
</svg>
