<svg xmlns="http://www.w3.org/2000/svg" width="612" height="817" viewBox="0 0 612 817">
  <defs>
    <style>
      .cls-1 {
        fill: #592626;
        fill-rule: evenodd;
      }
    </style>
  </defs>
  <path id="Grover_Hot_Springs_State_Park" data-name="Grover Hot Springs State Park" class="cls-1" d="M158.992,329.667c0-3.889.078-7.778,0.156-11.744l-0.389-.467-13.222.233-0.389.467a109.792,109.792,0,0,1,.622,16.566,24.605,24.605,0,0,1-5.833.855c-12.055,0-14.232-11.51-14.232-17.343,0-12.289,6.611-18.977,16.41-18.977,5.911,0,9.411,2.333,13.066,4.744l0.622-.233c0.389-4.822.545-6.067,1.167-10.733l-0.389-.467a39.068,39.068,0,0,0-16.566-3.577c-8.866,0-18.588,2.488-24.732,12.91a34.515,34.515,0,0,0-3.966,16.411c0,7.31,1.944,13.454,5.444,17.965a24.463,24.463,0,0,0,13.3,8.633,38.112,38.112,0,0,0,10.422,1.322c8.011,0,12.91-1.633,18.354-3.422l0.389-.622c-0.077-3.577-.233-7.155-0.233-10.733v-1.788Zm31.268-13.455,2.178-12.678-0.467-.544c-0.545,0-1.089-.078-1.633-0.078-3.189,0-6.767,1.789-9.256,7.544l0.234-7.155-0.622-.622c-5.756,1.244-7.233,1.478-12.911,2.333l-0.467.467c0.467,5.833.7,9.333,0.7,20.143,0,6.378-.077,12.755-0.233,19.21l0.467,0.467c5.755-.233,7-0.311,13.221-0.233l0.389-.545c-0.311-6.3-.778-15.088-0.778-20.454,0-3.5,0-8.633,5.289-8.633a5.826,5.826,0,0,1,3.189,1.089Zm46.277,8.166c0-3.033,0-15.633-10.889-19.91a27.956,27.956,0,0,0-9.488-1.478c-13.533,0-21.155,7.233-21.155,21.543,0,4.978.778,10.033,3.656,14.233,2.022,3.033,5.833,7.233,16.955,7.233C232.1,346,236.537,336.044,236.537,324.378Zm-13.455-.078c0,6.378-.856,13.455-7.311,13.455a6.288,6.288,0,0,1-4.355-1.789c-1.322-1.322-2.8-3.966-2.8-11.51,0-2.256,0-7.233,1.555-9.955a6.442,6.442,0,0,1,5.678-3.5,6.536,6.536,0,0,1,4.977,2.411C222.693,315.667,223.082,320.1,223.082,324.3Zm42.311,20.144c2.489-7.778,3.967-12.6,5.6-17.5,2.1-6.3,5.522-16.41,7.7-22.787l-0.389-.545-10.889.234-0.544.544c-1.089,5.211-1.322,6.3-2.878,12.366l-3.966,15.322-1.945-8.4-1.477-5.989c-1.945-7.233-2.256-8.71-3.345-13.843l-0.544-.467a102.2,102.2,0,0,1-13.61.855l-0.312.623c10.344,30.643,11.2,33.52,12.911,39.9l0.544,0.544c5.056-.233,7.078-0.311,12.678-0.233Zm51.955-10.889a23.763,23.763,0,0,1-12.133,3.345c-4.666,0-7.855-1.478-9.721-4.278a11,11,0,0,1-1.711-4.744l25.121-.467,0.466-.544a45.605,45.605,0,0,0-1.244-11.589c-2.722-9.177-8.711-11.044-11.355-11.666a19.933,19.933,0,0,0-5.522-.7c-12.211,0-20.3,8.011-20.3,21.466a25.891,25.891,0,0,0,1.866,10.188C287.327,345.066,297.9,346,303.5,346c6.456,0,9.255-1.167,13.378-2.8l0.466-.622,0.545-8.788Zm-23.565-13.921c0.233-2.411.777-5.678,3.733-7.544a5.968,5.968,0,0,1,8.088,1.866,9.5,9.5,0,0,1,1.167,5.367ZM349,316.212l2.178-12.678-0.467-.544c-0.544,0-1.089-.078-1.633-0.078-3.189,0-6.766,1.789-9.255,7.544l0.233-7.155-0.622-.622c-5.755,1.244-7.233,1.478-12.91,2.333l-0.467.467c0.467,5.833.7,9.333,0.7,20.143,0,6.378-.078,12.755-0.233,19.21l0.466,0.467c5.755-.233,7-0.311,13.222-0.233l0.389-.545c-0.311-6.3-.778-15.088-0.778-20.454,0-3.5,0-8.633,5.289-8.633a5.822,5.822,0,0,1,3.188,1.089Zm75.988-26.288c-6.222.233-7.233,0.233-13.766,0.233l-0.389.467c0.545,8.788.545,11.044,0.622,20.221-3.422.078-6.844,0.156-10.344,0.156-2.722,0-5.522-.078-8.244-0.078l0.156-20.532-0.389-.467c-5.989.233-7.155,0.233-13.922,0.233l-0.466.467c0.389,8.011.855,17.577,0.855,36.865,0,7-.155,10.81-0.311,17.343l0.389,0.467c5.678-.233,7.077-0.311,13.922-0.233l0.388-.467c-0.466-9.644-.544-12.444-0.622-23.721,3.422-.155,6.3-0.233,9.333-0.233,3.111,0,6.222.078,9.333,0.155,0.156,10.5.156,13.066-.233,24.032l0.389,0.467c5.833-.233,7.388-0.311,14-0.233l0.389-.467c-0.622-13.066-.856-26.054-0.856-39.12,0-5.444.078-9.1,0.156-15.088Zm49.7,34.454c0-3.033,0-15.633-10.888-19.91a27.958,27.958,0,0,0-9.489-1.478c-13.532,0-21.154,7.233-21.154,21.543,0,4.978.778,10.033,3.655,14.233,2.022,3.033,5.833,7.233,16.955,7.233C470.259,346,474.692,336.044,474.692,324.378Zm-13.455-.078c0,6.378-.855,13.455-7.31,13.455a6.292,6.292,0,0,1-4.356-1.789c-1.322-1.322-2.8-3.966-2.8-11.51,0-2.256,0-7.233,1.556-9.955A6.441,6.441,0,0,1,454,311a6.538,6.538,0,0,1,4.978,2.411C460.849,315.667,461.237,320.1,461.237,324.3Zm42.623,11.822a11.675,11.675,0,0,1-3.578.7c-3.966,0-4.277-2.489-4.433-3.656a89.161,89.161,0,0,1-.155-9.41l0.155-10.966,7,0.311,0.466-.467,0.778-8.322-0.466-.466h-7.778l0.233-13.066-0.544-.467c-5.289,1.555-6.689,1.944-12.211,3.344l-0.311.545,0.078,9.721-4.2-.155-0.466.389-0.7,8.321,0.466,0.467,4.9-.155-0.233,12.366c-0.078,1.944-.156,3.888-0.156,5.91,0,7.156.156,14.855,12.289,14.855a45.17,45.17,0,0,0,8.166-.933l0.544-.544,0.778-8.011ZM95.488,404.956c-6.533-2.722-9.955-4.122-9.955-7.622,0-2.411,2.255-5.444,7.389-5.444,5.911,0,9.411,2.411,12.288,4.356l0.7-.312,0.623-10.188-0.389-.544a31.861,31.861,0,0,0-14.389-2.878c-14.621,0-19.677,8.244-19.677,16.566,0,9.411,7.311,12.833,11.666,14.933l2.567,1.166c5.366,2.256,9.488,4.2,9.488,8.322,0,2.955-2.567,6.455-9.333,6.455a19.841,19.841,0,0,1-13.3-4.9l-0.778.234-0.544,10.966,0.467,0.622c0.855,0.311,1.711.7,2.567,0.933a38.709,38.709,0,0,0,12.21,1.945c2.333,0,8.244-.234,12.911-2.411,6.533-3.189,9.332-9.1,9.332-15.711a15.415,15.415,0,0,0-5.833-12.366,31.564,31.564,0,0,0-5.988-3.344Zm34.144-8.166-0.622-.7a109.424,109.424,0,0,1-12.91,2.255l-0.467.545c0.856,9.255,1.167,12.833,1.167,35.232,0,9.255-.156,14.543-0.389,23.332l0.467,0.389c5.522-.234,7.155-0.311,13.066-0.234l0.466-.389-0.544-18.51c5.677-.078,13.532-0.155,19.832-6.066,4.978-4.667,6.611-11.277,6.611-16.566,0-12.366-7.544-19.832-16.255-19.832a17.112,17.112,0,0,0-10.577,3.655Zm0.156,10.577a8,8,0,0,1,4.666-1.555,6.968,6.968,0,0,1,5.445,2.333c2.411,2.644,2.8,6.611,2.8,9.255,0,4.511-1.478,8.555-4.589,10.733-2.489,1.711-5.6,1.867-8.322,1.944v-22.71Zm56.388,2.178,2.178-12.677-0.466-.545c-0.545,0-1.089-.077-1.634-0.077-3.188,0-6.766,1.788-9.255,7.544l0.233-7.156-0.622-.622c-5.755,1.245-7.233,1.478-12.91,2.333l-0.467.467c0.467,5.833.7,9.333,0.7,20.144,0,6.377-.078,12.755-0.233,19.21l0.466,0.466c5.756-.233,7-0.311,13.222-0.233l0.389-.544c-0.311-6.3-.778-15.088-0.778-20.455,0-3.5,0-8.633,5.289-8.633a5.826,5.826,0,0,1,3.189,1.089Zm20.768,28.31c-0.389-5.989-.7-10.578-0.7-21.31,0-6.611.155-13.3,0.233-19.911l-0.545-.622-13.377,2.333-0.466.467c0.622,5.911.855,8.633,0.855,19.677,0,8.477-.233,13.222-0.466,19.6l0.466,0.544c5.6-.233,7.155-0.311,13.455-0.233ZM205.7,388.546l0.233-10.577-0.466-.467-12.677,1.556-0.467.544c0.156,2.8.233,4.433,0.233,6.3,0,1.477,0,3.033-.077,4.511l0.544,0.466c5.289-.933,6.766-1.089,12.288-1.789Zm47.988,49.309c-0.389-6.844-.389-9.022-0.545-16.644v-6.066c-0.077-7.467-.155-11.044-2.1-14.233-2.411-4.044-6.845-4.666-9.644-4.666-4.745,0-8.867,2.488-12.444,4.588l0.155-4.277-0.778-.545c-5.988,1.245-7.31,1.478-13.143,2.256l-0.467.544a216.367,216.367,0,0,1,1.089,24.343c0,4.978-.078,9.955-0.156,14.933l0.467,0.467c5.6-.234,6.766-0.234,12.988-0.234l0.467-.466c-0.467-11.977-.545-15.011-0.622-28.932,1.633-1.089,3.5-2.411,5.988-2.411,4.278,0,4.667,4.588,4.9,7.388,0.156,2.567.233,13.222,0.233,16.177,0,2.645-.077,5.367-0.077,8.011l0.466,0.467c5.133-.156,6.455-0.234,12.677-0.234Zm23.179-12.6a21.808,21.808,0,0,0,8.71-1.011c4.045-1.4,9.956-4.744,9.956-12.288a10.172,10.172,0,0,0-2.1-6.766L298.8,405.5l0.467-.389,0.544-7.778-0.467-.388c-5.988.233-7.621,0.311-12.521,0.233l-3.578-.078c-5.522-.155-12.91-0.311-17.966,3.889a13.047,13.047,0,0,0-4.977,10.5,12.593,12.593,0,0,0,2.255,7.544,13.361,13.361,0,0,0,5.211,4.356c-2.177,4.2-3.344,6.3-5.133,9.488v0.7l3.267,2.333c-2.334,1.789-5.989,4.745-5.989,9.8a10.964,10.964,0,0,0,4.822,8.788c4.355,3.111,10.266,3.267,13.3,3.267,14.233,0,20.766-7.155,20.766-14.7,0-9.8-8.555-11.667-13.61-12.833l-1.867-.311a32.7,32.7,0,0,1-7.7-1.945Zm6.377-14c-0.078,6.3-3.888,6.844-4.977,6.844a5.031,5.031,0,0,1-4.667-3.266,10.719,10.719,0,0,1-.7-4.045c0-3.888,2.333-6.377,5.211-6.377C281.688,404.412,283.321,407.834,283.243,411.256Zm-6.611,29.01c6.922,1.789,7,1.789,7.933,2.566a3.429,3.429,0,0,1,1.556,3.033c0,2.334-1.944,4.745-7.078,4.745-5.755,0-7.7-3.267-7.7-5.989a7.392,7.392,0,0,1,2.255-5.133Zm44.411-28.7c-2.644-.933-4.744-1.789-4.744-3.966,0-.934.622-3.5,5.444-3.5a16.876,16.876,0,0,1,9.722,3.266l0.7-.233,0.778-8.477-0.389-.467a39.608,39.608,0,0,0-11.9-1.944c-3.811,0-11.433.311-15.477,6.144a11.684,11.684,0,0,0-2.1,6.844c0,8.322,6.455,10.81,10.11,12.21l2.956,1.089c2.1,0.7,5.522,1.867,5.522,4.667,0,1.944-1.789,4.044-6.145,4.044a19.461,19.461,0,0,1-8.244-2.178,17.23,17.23,0,0,1-3.111-2.177l-0.7.311c-0.155,4.044-.233,4.9-0.544,8.788l0.389,0.7c3.811,1.4,7.077,2.644,12.755,2.644,5.911,0,17.577-1.088,18.977-12.21a13.146,13.146,0,0,0,.078-1.711c0-8.555-5.989-10.811-10.267-12.444Zm66.111-6.611c-6.533-2.722-9.955-4.122-9.955-7.622,0-2.411,2.256-5.444,7.389-5.444,5.911,0,9.41,2.411,12.288,4.356l0.7-.312,0.622-10.188-0.389-.544a31.855,31.855,0,0,0-14.388-2.878c-14.621,0-19.677,8.244-19.677,16.566,0,9.411,7.311,12.833,11.666,14.933l2.567,1.166c5.366,2.256,9.488,4.2,9.488,8.322,0,2.955-2.566,6.455-9.333,6.455a19.841,19.841,0,0,1-13.3-4.9l-0.778.234-0.544,10.966,0.467,0.622c0.855,0.311,1.711.7,2.566,0.933a38.715,38.715,0,0,0,12.211,1.945c2.333,0,8.244-.234,12.91-2.411,6.533-3.189,9.333-9.1,9.333-15.711a15.415,15.415,0,0,0-5.833-12.366,31.556,31.556,0,0,0-5.989-3.344Zm43.011,24.5a11.669,11.669,0,0,1-3.577.7c-3.967,0-4.278-2.489-4.433-3.655a88.88,88.88,0,0,1-.156-9.411l0.156-10.966,7,0.311,0.467-.467,0.778-8.321-0.467-.467h-7.777l0.233-13.066-0.544-.467c-5.289,1.556-6.689,1.945-12.211,3.344l-0.311.545,0.078,9.722-4.2-.156-0.467.389-0.7,8.322,0.467,0.466,4.9-.155-0.234,12.366c-0.077,1.944-.155,3.889-0.155,5.911,0,7.155.155,14.855,12.288,14.855a45.168,45.168,0,0,0,8.166-.934l0.545-.544,0.778-8.011Zm40.366-14.233c0.078-7,.078-10.032-1.944-13.3-1.555-2.489-4.666-5.6-14.621-5.6a47.335,47.335,0,0,0-15.244,2.567l-0.467.622-0.389,8.477,0.623,0.312c2.722-1.089,7.777-3.111,12.988-3.111,2.877,0,4.044.466,5.055,1.477a4.9,4.9,0,0,1,1.011,3.345c-9.333,1.244-13.688,2.1-18.354,4.977a12.436,12.436,0,0,0-5.834,10.655c0,8.322,5.989,13.688,13.611,13.688a16.074,16.074,0,0,0,10.81-4.122v2.878l0.467,0.544c5.6-.233,7.311-0.311,12.366-0.233l0.389-.544c-0.544-7.622-.544-9.567-0.544-16.877ZM457.7,427.589a12.6,12.6,0,0,1-6.3,2.022c-2.8,0-5.133-1.478-5.133-4.745,0-5.133,6.144-5.988,11.433-6.688v9.411Zm43.711,1.866a11.675,11.675,0,0,1-3.578.7c-3.966,0-4.277-2.489-4.433-3.655a89.18,89.18,0,0,1-.155-9.411l0.155-10.966,7,0.311,0.466-.467,0.778-8.321-0.466-.467H493.4l0.233-13.066-0.544-.467c-5.289,1.556-6.689,1.945-12.211,3.344l-0.311.545,0.078,9.722-4.2-.156-0.466.389-0.7,8.322,0.466,0.466,4.9-.155-0.233,12.366c-0.078,1.944-.156,3.889-0.156,5.911,0,7.155.156,14.855,12.289,14.855a45.168,45.168,0,0,0,8.166-.934l0.544-.544,0.778-8.011Zm38.733-2.566a23.779,23.779,0,0,1-12.133,3.344c-4.667,0-7.855-1.478-9.722-4.278a11,11,0,0,1-1.711-4.744l25.121-.467,0.467-.544a45.6,45.6,0,0,0-1.245-11.588c-2.722-9.178-8.71-11.044-11.355-11.666a19.9,19.9,0,0,0-5.522-.7c-12.21,0-20.3,8.01-20.3,21.465a25.875,25.875,0,0,0,1.867,10.189c4.511,10.5,15.088,11.432,20.688,11.432,6.455,0,9.255-1.166,13.377-2.8l0.467-.623,0.544-8.788Zm-23.566-13.922c0.233-2.411.778-5.677,3.733-7.544a5.969,5.969,0,0,1,8.089,1.867,9.507,9.507,0,0,1,1.166,5.366Zm-275.994,63.7-9.878.156-0.466.467c0.311,10.11.544,16.877,0.544,25.821,0,9.488-.233,18.9-0.467,28.387l0.467,0.467c5.755-.234,7-0.311,13.222-0.234l0.389-.466c-0.312-8.478-.312-10.422-0.312-18.355,8.711,0.078,18.044.078,23.644-6.766a20,20,0,0,0,4.044-12.522c0-3.344-.778-10.733-7.233-14.388-4.666-2.722-11.277-2.722-17.11-2.722Zm3.5,9.411c1.711-.078,3.345-0.078,5.056-0.078,6.844,0.156,8.71,3.656,8.71,8.167,0,1.088,0,5.6-4.122,7.855-2.1,1.166-4.977,1.322-9.644,1.322V486.079Zm66.111,22.477c0.077-7,.077-10.033-1.945-13.3-1.555-2.488-4.666-5.6-14.621-5.6a47.337,47.337,0,0,0-15.244,2.566l-0.467.622-0.389,8.478,0.623,0.311c2.722-1.089,7.777-3.111,12.988-3.111,2.878,0,4.044.467,5.055,1.478a4.9,4.9,0,0,1,1.011,3.344c-9.333,1.244-13.688,2.1-18.354,4.977a12.438,12.438,0,0,0-5.833,10.656c0,8.321,5.988,13.688,13.61,13.688a16.084,16.084,0,0,0,10.811-4.122v2.877l0.466,0.545c5.6-.234,7.311-0.311,12.366-0.234l0.389-.544c-0.544-7.622-.544-9.566-0.544-16.877ZM297.36,520.922a12.6,12.6,0,0,1-6.3,2.022c-2.8,0-5.133-1.478-5.133-4.744,0-5.133,6.144-5.989,11.433-6.689v9.411Zm44.411-18.044,2.178-12.677-0.467-.544c-0.544,0-1.089-.078-1.633-0.078-3.189,0-6.767,1.789-9.255,7.544l0.233-7.155-0.622-.622c-5.756,1.244-7.233,1.477-12.911,2.333l-0.466.466c0.466,5.834.7,9.333,0.7,20.144,0,6.377-.078,12.755-0.234,19.21l0.467,0.467c5.755-.234,7-0.311,13.221-0.234l0.389-.544c-0.311-6.3-.777-15.088-0.777-20.455,0-3.5,0-8.632,5.288-8.632a5.825,5.825,0,0,1,3.189,1.088Zm46.666,27.843c-7.311-12.366-8.089-13.766-14-24.421,5.367-7.31,5.911-8.088,11.433-15.166l-0.389-.777-12.677.155-0.778.545c-6.066,10.5-6.844,11.744-10.421,17.11v-8.633c0.077-14.544.155-17.655,0.544-29.4l-0.622-.466-13.533,2.022-0.466.544c0.544,7.544.777,11.2,0.933,21.388,0.155,12.6.155,25.2,0.078,37.8l0.544,0.545c5.211-.234,6.689-0.234,12.6-0.234l0.467-.544-0.467-13.144-0.077-8.944c6.766,12.444,7.622,14.155,11.588,22.4l0.7,0.467,14-.545Z"/>
</svg>
