<?xml version="1.0" encoding="UTF-8"?>
<svg xmlns="http://www.w3.org/2000/svg" xmlns:xlink="http://www.w3.org/1999/xlink" width="975" height="1300" viewBox="0 0 975 1300">
<path fill-rule="nonzero" fill="rgb(34.901961%, 14.901961%, 14.901961%)" fill-opacity="1" d="M 243.8125 619.25 C 248.4375 596.5 250.4375 587 263.6875 532.125 L 263.0625 531.375 C 254.1875 531.75 252.4375 531.75 244.0625 531.75 L 243.3125 532.5 C 241.3125 545.375 240.6875 549.75 237.9375 564.125 L 234.3125 583.25 L 230.3125 604.75 C 228.4375 590.75 227.8125 586.5 225.3125 572 L 221.6875 551 L 218.5625 531.75 L 217.8125 530.875 L 193.0625 531.5 L 192.3125 532.25 L 187.3125 561 L 182.4375 586.625 L 179.3125 603.875 C 177.8125 593 177.3125 589.375 174.6875 574.25 L 171.4375 556 L 167.3125 531.25 L 166.5625 530.625 C 155.8125 531.375 154.0625 531.375 144.9375 531.625 L 144.3125 532.5 C 153.4375 573.875 155.4375 583.375 162.1875 619.625 L 162.9375 620.375 C 175.5625 619.875 178.9375 619.875 191.1875 620 L 192.0625 619.25 L 194.6875 603.75 L 198.8125 580.875 L 203.3125 554.125 C 204.8125 566.375 205.1875 569.5 207.4375 583 L 210.5625 602.5 L 213.1875 619.625 L 213.8125 620.375 C 225.8125 620 229.9375 619.875 243.1875 620 Z M 325.8125 582.75 C 325.9375 571.5 325.9375 566.625 322.6875 561.375 C 320.1875 557.375 315.1875 552.375 299.1875 552.375 C 288.4375 552.375 281.8125 554.375 274.6875 556.5 L 273.9375 557.5 L 273.3125 571.125 L 274.3125 571.625 C 278.6875 569.875 286.8125 566.625 295.1875 566.625 C 299.8125 566.625 301.6875 567.375 303.3125 569 C 304.5625 570.25 304.9375 572.5 304.9375 574.375 C 289.9375 576.375 282.9375 577.75 275.4375 582.375 C 268.4375 586.75 266.0625 593.875 266.0625 599.5 C 266.0625 612.875 275.6875 621.5 287.9375 621.5 C 297.3125 621.5 302.6875 617 305.3125 614.875 L 305.3125 619.5 L 306.0625 620.375 C 315.0625 620 317.8125 619.875 325.9375 620 L 326.5625 619.125 C 325.6875 606.875 325.6875 603.75 325.6875 592 L 325.8125 582.75 M 305.1875 602.625 C 302.5625 604.125 299.1875 605.875 295.0625 605.875 C 290.5625 605.875 286.8125 603.5 286.8125 598.25 C 286.8125 590 296.6875 588.625 305.1875 587.5 Z M 376.5625 573.625 L 380.0625 553.25 L 379.3125 552.375 C 378.4375 552.375 377.5625 552.25 376.6875 552.25 C 371.5625 552.25 365.8125 555.125 361.8125 564.375 L 362.1875 552.875 L 361.1875 551.875 C 351.9375 553.875 349.5625 554.25 340.4375 555.625 L 339.6875 556.375 C 340.4375 565.75 340.8125 571.375 340.8125 588.75 C 340.8125 599 340.6875 609.25 340.4375 619.625 L 341.1875 620.375 C 350.4375 620 352.4375 619.875 362.4375 620 L 363.0625 619.125 C 362.5625 609 361.8125 594.875 361.8125 586.25 C 361.8125 580.625 361.8125 572.375 370.3125 572.375 C 372.4375 572.375 373.6875 573.125 375.4375 574.125 Z M 448.5625 619.25 C 448.0625 608 447.6875 600.5 447.6875 584.125 C 447.6875 551.125 448.1875 537.5 448.6875 521 L 447.8125 520.25 L 427.1875 523.5 L 426.5625 524.25 C 427.3125 536 427.4375 539.125 427.3125 553.375 C 417.9375 553.125 406.1875 552.875 396.6875 560.375 C 387.9375 567.125 384.3125 577.5 384.3125 590.375 C 384.3125 600.125 386.9375 609.875 394.3125 616 C 399.8125 620.5 406.5625 621.5 410.6875 621.5 C 419.5625 621.5 424.1875 617.375 427.1875 614.75 L 426.9375 619.625 L 427.5625 620.375 C 436.1875 620 438.5625 620 447.9375 620 L 448.5625 619.25 M 427.3125 568.375 C 427.4375 585 427.3125 588.25 426.9375 603.375 C 424.4375 604.875 421.9375 606.375 418.4375 606.375 C 406.3125 606.375 406.3125 590.875 406.3125 588.375 C 406.3125 578.75 409.0625 568 423.0625 568 C 424.4375 568 425.5625 568.125 427.3125 568.375 Z M 564.1875 597.625 C 561.3125 599.875 554.9375 604.625 544.5625 604.625 C 530.3125 604.625 520.3125 594 520.3125 576.25 C 520.3125 565.5 524.0625 546.625 544.4375 546.625 C 553.8125 546.625 558.9375 550.25 562.0625 552.625 L 563.1875 552.375 L 564.3125 535.125 L 563.8125 534.5 C 559.3125 532.75 551.6875 529.875 540.6875 529.875 C 508.3125 529.875 497.0625 554.875 497.0625 576.75 C 497.0625 600.75 511.6875 621.875 542.1875 621.875 C 552.6875 621.875 559.5625 619.125 563.5625 617.5 L 564.1875 616.75 L 565.0625 598.125 Z M 610.9375 573.625 L 614.4375 553.25 L 613.6875 552.375 C 612.8125 552.375 611.9375 552.25 611.0625 552.25 C 605.9375 552.25 600.1875 555.125 596.1875 564.375 L 596.5625 552.875 L 595.5625 551.875 C 586.3125 553.875 583.9375 554.25 574.8125 555.625 L 574.0625 556.375 C 574.8125 565.75 575.1875 571.375 575.1875 588.75 C 575.1875 599 575.0625 609.25 574.8125 619.625 L 575.5625 620.375 C 584.8125 620 586.8125 619.875 596.8125 620 L 597.4375 619.125 C 596.9375 609 596.1875 594.875 596.1875 586.25 C 596.1875 580.625 596.1875 572.375 604.6875 572.375 C 606.8125 572.375 608.0625 573.125 609.8125 574.125 Z M 677.1875 601.5 C 672.4375 604 666.8125 606.875 657.6875 606.875 C 650.1875 606.875 645.0625 604.5 642.0625 600 C 640.1875 597.375 639.8125 594.875 639.3125 592.375 L 679.6875 591.625 L 680.4375 590.75 C 680.3125 584.625 680.1875 578.375 678.4375 572.125 C 674.0625 557.375 664.4375 554.375 660.1875 553.375 C 657.0625 552.5 654.1875 552.25 651.3125 552.25 C 631.6875 552.25 618.6875 565.125 618.6875 586.75 C 618.6875 592.625 619.6875 598.75 621.6875 603.125 C 628.9375 620 645.9375 621.5 654.9375 621.5 C 665.3125 621.5 669.8125 619.625 676.4375 617 L 677.1875 616 L 678.0625 601.875 L 677.1875 601.5 M 639.3125 579.125 C 639.6875 575.25 640.5625 570 645.3125 567 C 646.8125 566 648.5625 565.625 650.3125 565.625 C 654.4375 565.625 656.9375 567.75 658.3125 570 C 660.0625 572.75 660.1875 575.75 660.1875 578.625 Z M 747.4375 601.5 C 742.6875 604 737.0625 606.875 727.9375 606.875 C 720.4375 606.875 715.3125 604.5 712.3125 600 C 710.4375 597.375 710.0625 594.875 709.5625 592.375 L 749.9375 591.625 L 750.6875 590.75 C 750.5625 584.625 750.4375 578.375 748.6875 572.125 C 744.3125 557.375 734.6875 554.375 730.4375 553.375 C 727.3125 552.5 724.4375 552.25 721.5625 552.25 C 701.9375 552.25 688.9375 565.125 688.9375 586.75 C 688.9375 592.625 689.9375 598.75 691.9375 603.125 C 699.1875 620 716.1875 621.5 725.1875 621.5 C 735.5625 621.5 740.0625 619.625 746.6875 617 L 747.4375 616 L 748.3125 601.875 L 747.4375 601.5 M 709.5625 579.125 C 709.9375 575.25 710.8125 570 715.5625 567 C 717.0625 566 718.8125 565.625 720.5625 565.625 C 724.6875 565.625 727.1875 567.75 728.5625 570 C 730.3125 572.75 730.4375 575.75 730.4375 578.625 Z M 826.4375 618.375 C 814.6875 598.5 813.4375 596.25 803.9375 579.125 C 812.5625 567.375 813.4375 566.125 822.3125 554.75 L 821.6875 553.5 L 801.3125 553.75 L 800.0625 554.625 C 790.3125 571.5 789.0625 573.5 783.3125 582.125 L 783.3125 568.25 C 783.4375 544.875 783.5625 539.875 784.1875 521 L 783.1875 520.25 L 761.4375 523.5 L 760.6875 524.375 C 761.5625 536.5 761.9375 542.375 762.1875 558.75 C 762.4375 579 762.4375 599.25 762.3125 619.5 L 763.1875 620.375 C 771.5625 620 773.9375 620 783.4375 620 L 784.1875 619.125 L 783.4375 598 L 783.3125 583.625 C 794.1875 603.625 795.5625 606.375 801.9375 619.625 L 803.0625 620.375 L 825.5625 619.5 Z M 824.9375 620 "/>
<path fill-rule="nonzero" fill="rgb(34.901961%, 14.901961%, 14.901961%)" fill-opacity="1" d="M 115.5625 681.5 L 99.6875 681.75 L 98.9375 682.5 C 99.4375 698.75 99.8125 709.625 99.8125 724 C 99.8125 739.25 99.4375 754.375 99.0625 769.625 L 99.8125 770.375 C 109.0625 770 111.0625 769.875 121.0625 770 L 121.6875 769.25 C 121.1875 755.625 121.1875 752.5 121.1875 739.75 C 135.1875 739.875 150.1875 739.875 159.1875 728.875 C 162.6875 724.625 165.6875 717.5 165.6875 708.75 C 165.6875 703.375 164.4375 691.5 154.0625 685.625 C 146.5625 681.25 135.9375 681.25 126.5625 681.25 L 115.5625 681.5 M 121.1875 696.625 C 123.9375 696.5 126.5625 696.5 129.3125 696.5 C 140.3125 696.75 143.3125 702.375 143.3125 709.625 C 143.3125 711.375 143.3125 718.625 136.6875 722.25 C 133.3125 724.125 128.6875 724.375 121.1875 724.375 Z M 229.9375 732.75 C 230.0625 721.5 230.0625 716.625 226.8125 711.375 C 224.3125 707.375 219.3125 702.375 203.3125 702.375 C 192.5625 702.375 185.9375 704.375 178.8125 706.5 L 178.0625 707.5 L 177.4375 721.125 L 178.4375 721.625 C 182.8125 719.875 190.9375 716.625 199.3125 716.625 C 203.9375 716.625 205.8125 717.375 207.4375 719 C 208.6875 720.25 209.0625 722.5 209.0625 724.375 C 194.0625 726.375 187.0625 727.75 179.5625 732.375 C 172.5625 736.75 170.1875 743.875 170.1875 749.5 C 170.1875 762.875 179.8125 771.5 192.0625 771.5 C 201.4375 771.5 206.8125 767 209.4375 764.875 L 209.4375 769.5 L 210.1875 770.375 C 219.1875 770 221.9375 769.875 230.0625 770 L 230.6875 769.125 C 229.8125 756.875 229.8125 753.75 229.8125 742 L 229.9375 732.75 M 209.3125 752.625 C 206.6875 754.125 203.3125 755.875 199.1875 755.875 C 194.6875 755.875 190.9375 753.5 190.9375 748.25 C 190.9375 740 200.8125 738.625 209.3125 737.5 Z M 280.6875 723.625 L 284.1875 703.25 L 283.4375 702.375 C 282.5625 702.375 281.6875 702.25 280.8125 702.25 C 275.6875 702.25 269.9375 705.125 265.9375 714.375 L 266.3125 702.875 L 265.3125 701.875 C 256.0625 703.875 253.6875 704.25 244.5625 705.625 L 243.8125 706.375 C 244.5625 715.75 244.9375 721.375 244.9375 738.75 C 244.9375 749 244.8125 759.25 244.5625 769.625 L 245.3125 770.375 C 254.5625 770 256.5625 769.875 266.5625 770 L 267.1875 769.125 C 266.6875 759 265.9375 744.875 265.9375 736.25 C 265.9375 730.625 265.9375 722.375 274.4375 722.375 C 276.5625 722.375 277.8125 723.125 279.5625 724.125 Z M 355.6875 768.375 C 343.9375 748.5 342.6875 746.25 333.1875 729.125 C 341.8125 717.375 342.6875 716.125 351.5625 704.75 L 350.9375 703.5 L 330.5625 703.75 L 329.3125 704.625 C 319.5625 721.5 318.3125 723.5 312.5625 732.125 L 312.5625 718.25 C 312.6875 694.875 312.8125 689.875 313.4375 671 L 312.4375 670.25 L 290.6875 673.5 L 289.9375 674.375 C 290.8125 686.5 291.1875 692.375 291.4375 708.75 C 291.6875 729 291.6875 749.25 291.5625 769.5 L 292.4375 770.375 C 300.8125 770 303.1875 770 312.6875 770 L 313.4375 769.125 L 312.6875 748 L 312.5625 733.625 C 323.4375 753.625 324.8125 756.375 331.1875 769.625 L 332.3125 770.375 L 354.8125 769.5 Z M 414.9375 681.5 L 399.0625 681.75 L 398.3125 682.5 C 398.8125 698.75 399.1875 709.625 399.1875 724 C 399.1875 739.25 398.8125 754.375 398.4375 769.625 L 399.1875 770.375 C 408.4375 770 410.4375 769.875 420.4375 770 L 421.0625 769.25 C 420.5625 755.625 420.5625 752.5 420.5625 739.75 C 434.5625 739.875 449.5625 739.875 458.5625 728.875 C 462.0625 724.625 465.0625 717.5 465.0625 708.75 C 465.0625 703.375 463.8125 691.5 453.4375 685.625 C 445.9375 681.25 435.3125 681.25 425.9375 681.25 L 414.9375 681.5 M 420.5625 696.625 C 423.3125 696.5 425.9375 696.5 428.6875 696.5 C 439.6875 696.75 442.6875 702.375 442.6875 709.625 C 442.6875 711.375 442.6875 718.625 436.0625 722.25 C 432.6875 724.125 428.0625 724.375 420.5625 724.375 Z M 509.8125 723.625 L 513.3125 703.25 L 512.5625 702.375 C 511.6875 702.375 510.8125 702.25 509.9375 702.25 C 504.8125 702.25 499.0625 705.125 495.0625 714.375 L 495.4375 702.875 L 494.4375 701.875 C 485.1875 703.875 482.8125 704.25 473.6875 705.625 L 472.9375 706.375 C 473.6875 715.75 474.0625 721.375 474.0625 738.75 C 474.0625 749 473.9375 759.25 473.6875 769.625 L 474.4375 770.375 C 483.6875 770 485.6875 769.875 495.6875 770 L 496.3125 769.125 C 495.8125 759 495.0625 744.875 495.0625 736.25 C 495.0625 730.625 495.0625 722.375 503.5625 722.375 C 505.6875 722.375 506.9375 723.125 508.6875 724.125 Z M 584.1875 736.75 C 584.1875 731.875 584.1875 711.625 566.6875 704.75 C 561.1875 702.625 554.6875 702.375 551.4375 702.375 C 529.6875 702.375 517.4375 714 517.4375 737 C 517.4375 745 518.6875 753.125 523.3125 759.875 C 526.5625 764.75 532.6875 771.5 550.5625 771.5 C 577.0625 771.5 584.1875 755.5 584.1875 736.75 M 562.5625 736.625 C 562.5625 746.875 561.1875 758.25 550.8125 758.25 C 547.5625 758.25 545.3125 756.75 543.8125 755.375 C 541.6875 753.25 539.3125 749 539.3125 736.875 C 539.3125 733.25 539.3125 725.25 541.8125 720.875 C 543.6875 717.5 546.9375 715.25 550.9375 715.25 C 554.4375 715.25 557.3125 717.125 558.9375 719.125 C 561.9375 722.75 562.5625 729.875 562.5625 736.625 Z M 616.8125 703.125 L 615.8125 702 C 606.6875 704 604.0625 704.5 595.0625 705.625 L 594.3125 706.5 C 595.6875 721.375 596.1875 727.125 596.1875 763.125 C 596.1875 778 595.9375 786.5 595.5625 800.625 L 596.3125 801.25 C 605.1875 800.875 607.8125 800.75 617.3125 800.875 L 618.0625 800.25 L 617.1875 770.5 C 626.3125 770.375 638.9375 770.25 649.0625 760.75 C 657.0625 753.25 659.6875 742.625 659.6875 734.125 C 659.6875 714.25 647.5625 702.25 633.5625 702.25 C 624.9375 702.25 620.0625 705.75 616.5625 708.125 L 616.8125 703.125 M 617.0625 720.125 C 619.8125 718.5 621.4375 717.625 624.5625 717.625 C 626.4375 717.625 630.1875 717.875 633.3125 721.375 C 637.1875 725.625 637.8125 732 637.8125 736.25 C 637.8125 743.5 635.4375 750 630.4375 753.5 C 626.4375 756.25 621.4375 756.5 617.0625 756.625 Z M 727.0625 751.5 C 722.3125 754 716.6875 756.875 707.5625 756.875 C 700.0625 756.875 694.9375 754.5 691.9375 750 C 690.0625 747.375 689.6875 744.875 689.1875 742.375 L 729.5625 741.625 L 730.3125 740.75 C 730.1875 734.625 730.0625 728.375 728.3125 722.125 C 723.9375 707.375 714.3125 704.375 710.0625 703.375 C 706.9375 702.5 704.0625 702.25 701.1875 702.25 C 681.5625 702.25 668.5625 715.125 668.5625 736.75 C 668.5625 742.625 669.5625 748.75 671.5625 753.125 C 678.8125 770 695.8125 771.5 704.8125 771.5 C 715.1875 771.5 719.6875 769.625 726.3125 767 L 727.0625 766 L 727.9375 751.875 L 727.0625 751.5 M 689.1875 729.125 C 689.5625 725.25 690.4375 720 695.1875 717 C 696.6875 716 698.4375 715.625 700.1875 715.625 C 704.3125 715.625 706.8125 717.75 708.1875 720 C 709.9375 722.75 710.0625 725.75 710.0625 728.625 Z M 777.9375 723.625 L 781.4375 703.25 L 780.6875 702.375 C 779.8125 702.375 778.9375 702.25 778.0625 702.25 C 772.9375 702.25 767.1875 705.125 763.1875 714.375 L 763.5625 702.875 L 762.5625 701.875 C 753.3125 703.875 750.9375 704.25 741.8125 705.625 L 741.0625 706.375 C 741.8125 715.75 742.1875 721.375 742.1875 738.75 C 742.1875 749 742.0625 759.25 741.8125 769.625 L 742.5625 770.375 C 751.8125 770 753.8125 769.875 763.8125 770 L 764.4375 769.125 C 763.9375 759 763.1875 744.875 763.1875 736.25 C 763.1875 730.625 763.1875 722.375 771.6875 722.375 C 773.8125 722.375 775.0625 723.125 776.8125 724.125 Z M 823.6875 755.625 C 821.5625 756.25 820.0625 756.75 817.9375 756.75 C 811.5625 756.75 811.0625 752.75 810.8125 750.875 C 810.4375 747.625 810.4375 740.75 810.5625 735.75 L 810.8125 718.125 L 822.0625 718.625 L 822.8125 717.875 L 824.0625 704.5 L 823.3125 703.75 L 810.8125 703.75 L 811.1875 682.75 L 810.3125 682 C 801.8125 684.5 799.5625 685.125 790.6875 687.375 L 790.1875 688.25 L 790.3125 703.875 L 783.5625 703.625 L 782.8125 704.25 L 781.6875 717.625 L 782.4375 718.375 L 790.3125 718.125 L 789.9375 738 C 789.8125 741.125 789.6875 744.25 789.6875 747.5 C 789.6875 759 789.9375 771.375 809.4375 771.375 C 814.3125 771.375 818.1875 770.625 822.5625 769.875 L 823.4375 769 L 824.6875 756.125 Z M 888.8125 703.375 L 871.4375 703.75 L 870.4375 704.625 C 868.3125 713.25 867.8125 715.125 864.8125 724.875 L 861.5625 735.625 L 858.8125 745 L 856.4375 736.125 L 852.8125 722.875 L 847.8125 703.875 L 846.8125 703.125 C 837.0625 703.875 834.9375 704 824.6875 704.25 L 824.0625 705.125 C 828.5625 717 840.1875 748.375 847.9375 772.375 C 842.8125 785.375 841.8125 787.625 836.1875 800 L 836.8125 801 C 839.9375 800.875 843.4375 800.75 846.6875 800.75 C 849.8125 800.75 853.0625 800.875 856.1875 800.875 L 857.0625 800.125 C 863.9375 773.125 867.3125 762.625 883.8125 719.125 C 885.6875 714.125 887.5625 709.25 889.3125 704.375 Z M 887.9375 770 "/>
</svg>
