<svg xmlns="http://www.w3.org/2000/svg" width="612" height="817" viewBox="0 0 612 817">
  <defs>
    <style>
      .cls-1 {
        fill: #592626;
        fill-rule: evenodd;
      }
    </style>
  </defs>
  <path id="Washoe_Meadows_State_Park" data-name="Washoe Meadows State Park" class="cls-1" d="M223.508,344.6c2.878-14.155,4.122-20.066,12.366-54.208l-0.389-.467c-5.522.233-6.61,0.233-11.821,0.233l-0.467.467c-1.244,8.011-1.633,10.733-3.344,19.677L217.6,322.2l-2.488,13.377c-1.167-8.71-1.556-11.355-3.111-20.376l-2.256-13.066L207.8,290.157l-0.467-.544-15.4.389-0.467.466-3.111,17.888L185.321,324.3l-1.944,10.733c-0.934-6.766-1.245-9.022-2.878-18.433l-2.022-11.355-2.567-15.4-0.466-.389c-6.689.467-7.778,0.467-13.455,0.623l-0.389.544c5.678,25.743,6.922,31.654,11.122,54.208l0.466,0.467c7.856-.311,9.955-0.311,17.577-0.233l0.545-.467,1.633-9.644,2.567-14.232,2.8-16.644c0.934,7.622,1.167,9.566,2.567,17.966l1.944,12.132,1.634,10.655,0.388,0.467c7.467-.233,10.033-0.311,18.277-0.233Zm47.835-22.71c0.077-7,.077-10.033-1.945-13.3-1.555-2.489-4.666-5.6-14.621-5.6a47.308,47.308,0,0,0-15.244,2.567l-0.467.622-0.389,8.477,0.623,0.311c2.722-1.089,7.777-3.111,12.988-3.111,2.878,0,4.044.467,5.055,1.478a4.9,4.9,0,0,1,1.011,3.344c-9.333,1.245-13.688,2.1-18.354,4.978a12.435,12.435,0,0,0-5.833,10.655c0,8.322,5.988,13.688,13.61,13.688a16.084,16.084,0,0,0,10.811-4.122v2.878l0.466,0.544c5.6-.233,7.311-0.311,12.366-0.233l0.389-.545c-0.544-7.621-.544-9.566-0.544-16.877ZM258.51,334.255a12.6,12.6,0,0,1-6.3,2.022c-2.8,0-5.133-1.477-5.133-4.744,0-5.133,6.144-5.988,11.433-6.688v9.41Zm38.267-16.021c-2.645-.934-4.744-1.789-4.744-3.967,0-.933.622-3.5,5.444-3.5a16.874,16.874,0,0,1,9.721,3.267l0.7-.233,0.778-8.478-0.389-.466a39.606,39.606,0,0,0-11.9-1.945c-3.811,0-11.433.311-15.477,6.144a11.694,11.694,0,0,0-2.1,6.845c0,8.321,6.455,10.81,10.111,12.21l2.955,1.089c2.1,0.7,5.522,1.866,5.522,4.666,0,1.945-1.789,4.045-6.144,4.045a19.454,19.454,0,0,1-8.244-2.178,17.151,17.151,0,0,1-3.111-2.178l-0.7.311c-0.156,4.045-.234,4.9-0.545,8.789l0.389,0.7c3.811,1.4,7.078,2.644,12.755,2.644,5.911,0,17.577-1.089,18.977-12.21a13.154,13.154,0,0,0,.078-1.711c0-8.556-5.989-10.811-10.266-12.444Zm59.032,26.287c-0.311-6.377-.389-8.555-0.544-16.643v-5.833c-0.078-7.389-.156-11.666-2.411-14.933-2.256-3.189-5.522-4.2-8.944-4.2-5.678,0-10.111,2.722-13.222,4.589l0.233-23.954L330.455,283l-13.3,2.1-0.389.467c0.7,7.544.856,10.344,1.012,20.376q0.232,9.45.233,18.9c0,7.7-.156,12.288-0.311,19.91l0.389,0.544c5.755-.311,6.922-0.311,13.221-0.311l0.467-.467c-0.545-11.666-.622-15.166-0.7-28.932a10.271,10.271,0,0,1,5.988-2.333c4.278,0,4.589,4.433,4.9,7.544,0.156,2.411.234,13.455,0.234,16.333,0,2.566-.078,5.055-0.078,7.622l0.389,0.544c5.6-.311,6.844-0.311,12.832-0.311Zm48.456-20.143c0-3.033,0-15.633-10.889-19.91a27.956,27.956,0,0,0-9.488-1.478c-13.533,0-21.155,7.233-21.155,21.543,0,4.978.778,10.033,3.656,14.233,2.022,3.033,5.833,7.233,16.954,7.233C399.831,346,404.265,336.044,404.265,324.378ZM390.81,324.3c0,6.378-.856,13.455-7.311,13.455a6.288,6.288,0,0,1-4.355-1.789c-1.323-1.322-2.8-3.966-2.8-11.51,0-2.256,0-7.233,1.555-9.955a6.442,6.442,0,0,1,5.678-3.5,6.538,6.538,0,0,1,4.977,2.411C390.421,315.667,390.81,320.1,390.81,324.3Zm55.377,9.255a23.763,23.763,0,0,1-12.133,3.345c-4.666,0-7.855-1.478-9.721-4.278a11.016,11.016,0,0,1-1.712-4.744l25.121-.467,0.467-.544a45.605,45.605,0,0,0-1.244-11.589c-2.722-9.177-8.711-11.044-11.355-11.666a19.938,19.938,0,0,0-5.522-.7c-12.211,0-20.3,8.011-20.3,21.466a25.891,25.891,0,0,0,1.866,10.188c4.511,10.5,15.088,11.433,20.688,11.433,6.455,0,9.255-1.167,13.377-2.8l0.467-.622,0.544-8.788Zm-23.566-13.921c0.234-2.411.778-5.678,3.734-7.544a5.968,5.968,0,0,1,8.088,1.866,9.5,9.5,0,0,1,1.167,5.367ZM90.586,383.257c-8.089.234-9.411,0.234-18.044,0.234l-0.467.466-3.578,12.6-3.111,11.277-3.655,13.533L58.31,407.445l-2.178-8.788-3.889-14.933-0.389-.467c-8.322.234-9.722,0.234-18.432,0.234l-0.467.466c-0.778,23.255-1.089,29.243-2.8,54.209l0.389,0.466C35.522,438.4,37,438.321,41.51,438.4l0.467-.467,0.233-14.854,0.467-15.089,0.311-14.7,3.422,13.766L49.366,418.1l5.211,20.066,0.467,0.466c4.822-.233,6.144-0.311,11.588-0.233l0.467-.467,4.511-16.565,3.111-11.355,4.355-16.333V407.6l0.156,11.9v18.666l0.389,0.466c5.366-.233,7.466-0.311,13.455-0.233l0.389-.467c-0.467-8.866-1.011-17.81-1.322-26.754-0.233-4.9-.389-9.8-0.622-14.7-0.389-7.233-.467-8.166-0.467-12.755Zm46.2,43.632a23.773,23.773,0,0,1-12.133,3.344c-4.666,0-7.855-1.478-9.721-4.278a11,11,0,0,1-1.711-4.744l25.121-.467,0.466-.544a45.593,45.593,0,0,0-1.244-11.588c-2.722-9.178-8.711-11.044-11.355-11.666a19.9,19.9,0,0,0-5.522-.7c-12.211,0-20.3,8.01-20.3,21.465a25.893,25.893,0,0,0,1.866,10.189c4.511,10.5,15.089,11.432,20.688,11.432,6.456,0,9.255-1.166,13.377-2.8l0.467-.623,0.544-8.788Zm-23.565-13.922c0.233-2.411.777-5.677,3.733-7.544a5.967,5.967,0,0,1,8.088,1.867,9.5,9.5,0,0,1,1.167,5.366Zm67.354,2.255c0.078-7,.078-10.032-1.944-13.3-1.556-2.489-4.667-5.6-14.622-5.6a47.335,47.335,0,0,0-15.244,2.567l-0.466.622-0.389,8.477,0.622,0.312c2.722-1.089,7.777-3.111,12.988-3.111,2.878,0,4.045.466,5.056,1.477a4.909,4.909,0,0,1,1.011,3.345c-9.333,1.244-13.689,2.1-18.355,4.977a12.437,12.437,0,0,0-5.833,10.655c0,8.322,5.989,13.688,13.61,13.688a16.077,16.077,0,0,0,10.811-4.122v2.878l0.467,0.544c5.6-.233,7.31-0.311,12.366-0.233l0.389-.544c-0.545-7.622-.545-9.567-0.545-16.877Zm-12.833,12.367a12.6,12.6,0,0,1-6.3,2.022c-2.8,0-5.134-1.478-5.134-4.745,0-5.133,6.145-5.988,11.433-6.688v9.411Zm60.044,10.343c-0.311-7-.545-11.666-0.545-21.854,0-20.532.312-29.01,0.623-39.276l-0.545-.467-12.832,2.023-0.389.466c0.466,7.311.544,9.255,0.466,18.122-5.833-.156-13.144-0.312-19.054,4.355-5.445,4.2-7.7,10.655-7.7,18.666,0,6.066,1.633,12.132,6.222,15.943a16.4,16.4,0,0,0,10.188,3.422,14.252,14.252,0,0,0,10.267-4.2l-0.156,3.033,0.389,0.466c5.366-.233,6.844-0.233,12.677-0.233Zm-13.222-31.654c0.078,10.344,0,12.367-.233,21.777a9.84,9.84,0,0,1-5.289,1.867c-7.544,0-7.544-9.644-7.544-11.2,0-5.988,1.711-12.677,10.422-12.677A17.483,17.483,0,0,1,214.565,406.278Zm61.677,11.433c0-3.033,0-15.632-10.888-19.91a27.956,27.956,0,0,0-9.488-1.478c-13.533,0-21.155,7.233-21.155,21.544,0,4.977.778,10.033,3.655,14.232,2.023,3.034,5.833,7.233,16.955,7.233C271.809,439.332,276.242,429.377,276.242,417.711Zm-13.455-.078c0,6.378-.855,13.455-7.31,13.455a6.3,6.3,0,0,1-4.356-1.788c-1.322-1.323-2.8-3.967-2.8-11.511,0-2.255,0-7.233,1.556-9.955a6.441,6.441,0,0,1,5.677-3.5,6.541,6.541,0,0,1,4.978,2.411C262.4,409,262.787,413.434,262.787,417.633Zm68.91,20.222c3.111-12.055,3.656-13.922,8.322-30.643,0.934-3.189,1.789-6.456,2.645-9.644l-0.467-.622-10.111.233-0.544.544-2.256,11.666-2.177,9.411-1.478,7.155-1.322-6.922-1.711-8.088-2.722-13.455-0.467-.544-14.932.233-0.545.544-2.566,12.755-1.867,8.555-1.478,7.156-1.477-7.7-1.867-8.4-2.644-12.91-0.467-.389-12.6.933-0.467.622c7.311,25.666,8.477,30.255,10.655,39.821l0.544,0.466c5.367-.233,7.311-0.311,14.466-0.233l0.467-.544,2.022-9.489,2.178-9.41,1.944-9.411,1.167,5.911,1.166,5.755,3.267,16.877,0.544,0.544c5.756-.233,8.089-0.311,14.311-0.233Zm31.424-26.288c-2.644-.933-4.744-1.789-4.744-3.966,0-.934.622-3.5,5.444-3.5a16.878,16.878,0,0,1,9.722,3.266l0.7-.233,0.778-8.477-0.389-.467a39.615,39.615,0,0,0-11.9-1.944c-3.811,0-11.432.311-15.477,6.144a11.691,11.691,0,0,0-2.1,6.844c0,8.322,6.456,10.81,10.111,12.21l2.955,1.089c2.1,0.7,5.522,1.867,5.522,4.667,0,1.944-1.788,4.044-6.144,4.044a19.461,19.461,0,0,1-8.244-2.178,17.23,17.23,0,0,1-3.111-2.177l-0.7.311c-0.155,4.044-.233,4.9-0.544,8.788l0.389,0.7c3.811,1.4,7.077,2.644,12.755,2.644,5.911,0,17.577-1.088,18.977-12.21a13.316,13.316,0,0,0,.077-1.711c0-8.555-5.988-10.811-10.266-12.444Zm66.111-6.611c-6.533-2.722-9.955-4.122-9.955-7.622,0-2.411,2.255-5.444,7.389-5.444,5.91,0,9.41,2.411,12.288,4.356l0.7-.312,0.622-10.188-0.389-.544a31.855,31.855,0,0,0-14.388-2.878c-14.622,0-19.677,8.244-19.677,16.566,0,9.411,7.311,12.833,11.666,14.933l2.567,1.166c5.366,2.256,9.488,4.2,9.488,8.322,0,2.955-2.566,6.455-9.333,6.455a19.839,19.839,0,0,1-13.3-4.9l-0.778.234-0.544,10.966,0.466,0.622c0.856,0.311,1.711.7,2.567,0.933a38.707,38.707,0,0,0,12.21,1.945c2.334,0,8.245-.234,12.911-2.411,6.533-3.189,9.333-9.1,9.333-15.711a15.415,15.415,0,0,0-5.833-12.366,31.556,31.556,0,0,0-5.989-3.344Zm43.011,24.5a11.669,11.669,0,0,1-3.577.7c-3.967,0-4.278-2.489-4.434-3.655a89.18,89.18,0,0,1-.155-9.411l0.155-10.966,7,0.311,0.467-.467,0.778-8.321-0.467-.467h-7.778l0.234-13.066-0.545-.467c-5.288,1.556-6.688,1.945-12.21,3.344l-0.311.545,0.078,9.722-4.2-.156-0.467.389-0.7,8.322,0.467,0.466,4.9-.155-0.234,12.366c-0.078,1.944-.155,3.889-0.155,5.911,0,7.155.155,14.855,12.288,14.855a45.168,45.168,0,0,0,8.166-.934l0.545-.544,0.777-8.011Zm40.366-14.233c0.078-7,.078-10.032-1.944-13.3-1.556-2.489-4.667-5.6-14.622-5.6A47.333,47.333,0,0,0,480.8,398.89l-0.467.622-0.389,8.477,0.622,0.312c2.722-1.089,7.778-3.111,12.989-3.111,2.877,0,4.044.466,5.055,1.477a4.9,4.9,0,0,1,1.011,3.345c-9.333,1.244-13.688,2.1-18.355,4.977a12.437,12.437,0,0,0-5.833,10.655c0,8.322,5.989,13.688,13.611,13.688a16.074,16.074,0,0,0,10.81-4.122v2.878l0.467,0.544c5.6-.233,7.311-0.311,12.366-0.233l0.389-.544c-0.545-7.622-.545-9.567-0.545-16.877Zm-12.832,12.367a12.6,12.6,0,0,1-6.3,2.022c-2.8,0-5.133-1.478-5.133-4.745,0-5.133,6.144-5.988,11.433-6.688v9.411Zm43.711,1.866a11.68,11.68,0,0,1-3.578.7c-3.966,0-4.278-2.489-4.433-3.655a89.421,89.421,0,0,1-.156-9.411l0.156-10.966,7,0.311,0.466-.467,0.778-8.321-0.467-.467h-7.777l0.233-13.066-0.544-.467c-5.289,1.556-6.689,1.945-12.211,3.344l-0.311.545,0.078,9.722-4.2-.156-0.467.389-0.7,8.322,0.466,0.466,4.9-.155-0.233,12.366c-0.078,1.944-.156,3.889-0.156,5.911,0,7.155.156,14.855,12.288,14.855a45.169,45.169,0,0,0,8.167-.934l0.544-.544,0.778-8.011Zm38.732-2.566a23.772,23.772,0,0,1-12.132,3.344c-4.667,0-7.856-1.478-9.722-4.278a11,11,0,0,1-1.711-4.744l25.121-.467,0.467-.544A45.6,45.6,0,0,0,583,408.612c-2.722-9.178-8.711-11.044-11.355-11.666a19.9,19.9,0,0,0-5.522-.7c-12.21,0-20.3,8.01-20.3,21.465a25.875,25.875,0,0,0,1.867,10.189c4.511,10.5,15.088,11.432,20.688,11.432,6.455,0,9.255-1.166,13.377-2.8l0.466-.623,0.545-8.788Zm-23.565-13.922c0.233-2.411.778-5.677,3.733-7.544a5.969,5.969,0,0,1,8.089,1.867,9.507,9.507,0,0,1,1.166,5.366Zm-318.072,63.7-9.878.156-0.466.467c0.311,10.11.544,16.877,0.544,25.821,0,9.488-.233,18.9-0.467,28.387l0.467,0.467c5.755-.234,7-0.311,13.222-0.234l0.389-.466c-0.312-8.478-.312-10.422-0.312-18.355,8.711,0.078,18.044.078,23.644-6.766a20,20,0,0,0,4.044-12.522c0-3.344-.778-10.733-7.233-14.388-4.666-2.722-11.277-2.722-17.11-2.722Zm3.5,9.411c1.711-.078,3.345-0.078,5.056-0.078,6.844,0.156,8.71,3.656,8.71,8.167,0,1.088,0,5.6-4.122,7.855-2.1,1.166-4.977,1.322-9.644,1.322V486.079Zm66.111,22.477c0.077-7,.077-10.033-1.945-13.3-1.555-2.488-4.666-5.6-14.621-5.6a47.337,47.337,0,0,0-15.244,2.566l-0.467.622-0.389,8.478,0.623,0.311c2.722-1.089,7.777-3.111,12.988-3.111,2.878,0,4.044.467,5.055,1.478a4.9,4.9,0,0,1,1.011,3.344c-9.333,1.244-13.688,2.1-18.354,4.977a12.438,12.438,0,0,0-5.833,10.656c0,8.321,5.988,13.688,13.61,13.688a16.084,16.084,0,0,0,10.811-4.122v2.877l0.466,0.545c5.6-.234,7.311-0.311,12.366-0.234l0.389-.544c-0.544-7.622-.544-9.566-0.544-16.877ZM297.36,520.922a12.6,12.6,0,0,1-6.3,2.022c-2.8,0-5.133-1.478-5.133-4.744,0-5.133,6.144-5.989,11.433-6.689v9.411Zm44.411-18.044,2.178-12.677-0.467-.544c-0.544,0-1.089-.078-1.633-0.078-3.189,0-6.767,1.789-9.255,7.544l0.233-7.155-0.622-.622c-5.756,1.244-7.233,1.477-12.911,2.333l-0.466.466c0.466,5.834.7,9.333,0.7,20.144,0,6.377-.078,12.755-0.234,19.21l0.467,0.467c5.755-.234,7-0.311,13.221-0.234l0.389-.544c-0.311-6.3-.777-15.088-0.777-20.455,0-3.5,0-8.632,5.288-8.632a5.825,5.825,0,0,1,3.189,1.088Zm46.666,27.843c-7.311-12.366-8.089-13.766-14-24.421,5.367-7.31,5.911-8.088,11.433-15.166l-0.389-.777-12.677.155-0.778.545c-6.066,10.5-6.844,11.744-10.421,17.11v-8.633c0.077-14.544.155-17.655,0.544-29.4l-0.622-.466-13.533,2.022-0.466.544c0.544,7.544.777,11.2,0.933,21.388,0.155,12.6.155,25.2,0.078,37.8l0.544,0.545c5.211-.234,6.689-0.234,12.6-0.234l0.467-.544-0.467-13.144-0.077-8.944c6.766,12.444,7.622,14.155,11.588,22.4l0.7,0.467,14-.545Z"/>
</svg>
