<?xml version="1.0" encoding="UTF-8"?>
<svg xmlns="http://www.w3.org/2000/svg" xmlns:xlink="http://www.w3.org/1999/xlink" width="975" height="1300" viewBox="0 0 975 1300">
<path fill-rule="nonzero" fill="rgb(34.901961%, 14.901961%, 14.901961%)" fill-opacity="1" d="M 214.8125 531.5 L 198.9375 531.75 L 198.1875 532.5 C 198.6875 548.75 199.0625 559.625 199.0625 574 C 199.0625 589.25 198.6875 604.375 198.3125 619.625 L 199.0625 620.375 C 208.3125 620 210.3125 619.875 220.3125 620 L 220.9375 619.25 C 220.4375 605.625 220.4375 602.5 220.4375 589.75 C 234.4375 589.875 249.4375 589.875 258.4375 578.875 C 261.9375 574.625 264.9375 567.5 264.9375 558.75 C 264.9375 553.375 263.6875 541.5 253.3125 535.625 C 245.8125 531.25 235.1875 531.25 225.8125 531.25 L 214.8125 531.5 M 220.4375 546.625 C 223.1875 546.5 225.8125 546.5 228.5625 546.5 C 239.5625 546.75 242.5625 552.375 242.5625 559.625 C 242.5625 561.375 242.5625 568.625 235.9375 572.25 C 232.5625 574.125 227.9375 574.375 220.4375 574.375 Z M 329.0625 601.5 C 324.3125 604 318.6875 606.875 309.5625 606.875 C 302.0625 606.875 296.9375 604.5 293.9375 600 C 292.0625 597.375 291.6875 594.875 291.1875 592.375 L 331.5625 591.625 L 332.3125 590.75 C 332.1875 584.625 332.0625 578.375 330.3125 572.125 C 325.9375 557.375 316.3125 554.375 312.0625 553.375 C 308.9375 552.5 306.0625 552.25 303.1875 552.25 C 283.5625 552.25 270.5625 565.125 270.5625 586.75 C 270.5625 592.625 271.5625 598.75 273.5625 603.125 C 280.8125 620 297.8125 621.5 306.8125 621.5 C 317.1875 621.5 321.6875 619.625 328.3125 617 L 329.0625 616 L 329.9375 601.875 L 329.0625 601.5 M 291.1875 579.125 C 291.5625 575.25 292.4375 570 297.1875 567 C 298.6875 566 300.4375 565.625 302.1875 565.625 C 306.3125 565.625 308.8125 567.75 310.1875 570 C 311.9375 572.75 312.0625 575.75 312.0625 578.625 Z M 370.0625 576.875 C 365.8125 575.375 362.4375 574 362.4375 570.5 C 362.4375 569 363.4375 564.875 371.1875 564.875 C 378.8125 564.875 383.6875 568.125 386.8125 570.125 L 387.9375 569.75 L 389.1875 556.125 L 388.5625 555.375 C 382.6875 553.75 377.5625 552.25 369.4375 552.25 C 363.3125 552.25 351.0625 552.75 344.5625 562.125 C 342.9375 564.375 341.1875 568.125 341.1875 573.125 C 341.1875 586.5 351.5625 590.5 357.4375 592.75 L 362.1875 594.5 C 365.5625 595.625 371.0625 597.5 371.0625 602 C 371.0625 605.125 368.1875 608.5 361.1875 608.5 C 357.6875 608.5 352.5625 607.375 347.9375 605 C 345.8125 603.875 344.8125 603 342.9375 601.5 L 341.8125 602 C 341.5625 608.5 341.4375 609.875 340.9375 616.125 L 341.5625 617.25 C 347.6875 619.5 352.9375 621.5 362.0625 621.5 C 371.5625 621.5 390.3125 619.75 392.5625 601.875 C 392.6875 600.875 392.6875 600 392.6875 599.125 C 392.6875 585.375 383.0625 581.75 376.1875 579.125 Z M 452.5625 602 C 449.1875 604 445.9375 606 439.5625 606 C 425.4375 606 422.5625 594.25 422.5625 586.75 C 422.5625 577.625 426.5625 567.125 438.6875 567.125 C 444.1875 567.125 447.1875 569.125 450.9375 571.625 L 452.1875 571.25 C 452.6875 564.625 452.8125 562.875 453.8125 556.25 L 453.1875 555.5 C 447.6875 553.75 442.9375 552.25 435.6875 552.25 C 406.3125 552.25 400.5625 574.5 400.5625 587.25 C 400.5625 601.625 408.0625 621.125 436.1875 621.125 C 442.8125 621.125 447.0625 619.875 452.3125 618.375 L 453.0625 617.625 L 453.5625 602.625 Z M 519.1875 582.75 C 519.3125 571.5 519.3125 566.625 516.0625 561.375 C 513.5625 557.375 508.5625 552.375 492.5625 552.375 C 481.8125 552.375 475.1875 554.375 468.0625 556.5 L 467.3125 557.5 L 466.6875 571.125 L 467.6875 571.625 C 472.0625 569.875 480.1875 566.625 488.5625 566.625 C 493.1875 566.625 495.0625 567.375 496.6875 569 C 497.9375 570.25 498.3125 572.5 498.3125 574.375 C 483.3125 576.375 476.3125 577.75 468.8125 582.375 C 461.8125 586.75 459.4375 593.875 459.4375 599.5 C 459.4375 612.875 469.0625 621.5 481.3125 621.5 C 490.6875 621.5 496.0625 617 498.6875 614.875 L 498.6875 619.5 L 499.4375 620.375 C 508.4375 620 511.1875 619.875 519.3125 620 L 519.9375 619.125 C 519.0625 606.875 519.0625 603.75 519.0625 592 L 519.1875 582.75 M 498.5625 602.625 C 495.9375 604.125 492.5625 605.875 488.4375 605.875 C 483.9375 605.875 480.1875 603.5 480.1875 598.25 C 480.1875 590 490.0625 588.625 498.5625 587.5 Z M 595.0625 619.25 C 594.5625 608 594.1875 600.5 594.1875 584.125 C 594.1875 551.125 594.6875 537.5 595.1875 521 L 594.3125 520.25 L 573.6875 523.5 L 573.0625 524.25 C 573.8125 536 573.9375 539.125 573.8125 553.375 C 564.4375 553.125 552.6875 552.875 543.1875 560.375 C 534.4375 567.125 530.8125 577.5 530.8125 590.375 C 530.8125 600.125 533.4375 609.875 540.8125 616 C 546.3125 620.5 553.0625 621.5 557.1875 621.5 C 566.0625 621.5 570.6875 617.375 573.6875 614.75 L 573.4375 619.625 L 574.0625 620.375 C 582.6875 620 585.0625 620 594.4375 620 L 595.0625 619.25 M 573.8125 568.375 C 573.9375 585 573.8125 588.25 573.4375 603.375 C 570.9375 604.875 568.4375 606.375 564.9375 606.375 C 552.8125 606.375 552.8125 590.875 552.8125 588.375 C 552.8125 578.75 555.5625 568 569.5625 568 C 570.9375 568 572.0625 568.125 573.8125 568.375 Z M 664.8125 601.5 C 660.0625 604 654.4375 606.875 645.3125 606.875 C 637.8125 606.875 632.6875 604.5 629.6875 600 C 627.8125 597.375 627.4375 594.875 626.9375 592.375 L 667.3125 591.625 L 668.0625 590.75 C 667.9375 584.625 667.8125 578.375 666.0625 572.125 C 661.6875 557.375 652.0625 554.375 647.8125 553.375 C 644.6875 552.5 641.8125 552.25 638.9375 552.25 C 619.3125 552.25 606.3125 565.125 606.3125 586.75 C 606.3125 592.625 607.3125 598.75 609.3125 603.125 C 616.5625 620 633.5625 621.5 642.5625 621.5 C 652.9375 621.5 657.4375 619.625 664.0625 617 L 664.8125 616 L 665.6875 601.875 L 664.8125 601.5 M 626.9375 579.125 C 627.3125 575.25 628.1875 570 632.9375 567 C 634.4375 566 636.1875 565.625 637.9375 565.625 C 642.0625 565.625 644.5625 567.75 645.9375 570 C 647.6875 572.75 647.8125 575.75 647.8125 578.625 Z M 715.6875 573.625 L 719.1875 553.25 L 718.4375 552.375 C 717.5625 552.375 716.6875 552.25 715.8125 552.25 C 710.6875 552.25 704.9375 555.125 700.9375 564.375 L 701.3125 552.875 L 700.3125 551.875 C 691.0625 553.875 688.6875 554.25 679.5625 555.625 L 678.8125 556.375 C 679.5625 565.75 679.9375 571.375 679.9375 588.75 C 679.9375 599 679.8125 609.25 679.5625 619.625 L 680.3125 620.375 C 689.5625 620 691.5625 619.875 701.5625 620 L 702.1875 619.125 C 701.6875 609 700.9375 594.875 700.9375 586.25 C 700.9375 580.625 700.9375 572.375 709.4375 572.375 C 711.5625 572.375 712.8125 573.125 714.5625 574.125 Z M 790.0625 586.75 C 790.0625 581.875 790.0625 561.625 772.5625 554.75 C 767.0625 552.625 760.5625 552.375 757.3125 552.375 C 735.5625 552.375 723.3125 564 723.3125 587 C 723.3125 595 724.5625 603.125 729.1875 609.875 C 732.4375 614.75 738.5625 621.5 756.4375 621.5 C 782.9375 621.5 790.0625 605.5 790.0625 586.75 M 768.4375 586.625 C 768.4375 596.875 767.0625 608.25 756.6875 608.25 C 753.4375 608.25 751.1875 606.75 749.6875 605.375 C 747.5625 603.25 745.1875 599 745.1875 586.875 C 745.1875 583.25 745.1875 575.25 747.6875 570.875 C 749.5625 567.5 752.8125 565.25 756.8125 565.25 C 760.3125 565.25 763.1875 567.125 764.8125 569.125 C 767.8125 572.75 768.4375 579.875 768.4375 586.625 Z M 794.4375 620 "/>
<path fill-rule="nonzero" fill="rgb(34.901961%, 14.901961%, 14.901961%)" fill-opacity="1" d="M 190.125 716.25 C 179.625 711.875 174.125 709.625 174.125 704 C 174.125 700.125 177.75 695.25 186 695.25 C 195.5 695.25 201.125 699.125 205.75 702.25 L 206.875 701.75 L 207.875 685.375 L 207.25 684.5 C 201.875 682.25 196.25 679.875 184.125 679.875 C 160.625 679.875 152.5 693.125 152.5 706.5 C 152.5 721.625 164.25 727.125 171.25 730.5 L 175.375 732.375 C 184 736 190.625 739.125 190.625 745.75 C 190.625 750.5 186.5 756.125 175.625 756.125 C 164.25 756.125 157.875 751.125 154.25 748.25 L 153 748.625 L 152.125 766.25 L 152.875 767.25 C 154.25 767.75 155.625 768.375 157 768.75 C 159.875 769.75 167.25 771.875 176.625 771.875 C 180.375 771.875 189.875 771.5 197.375 768 C 207.875 762.875 212.375 753.375 212.375 742.75 C 212.375 735.625 209.625 728 203 722.875 C 199.625 720.375 196.375 718.875 193.375 717.5 Z M 259.25 755.625 C 257.125 756.25 255.625 756.75 253.5 756.75 C 247.125 756.75 246.625 752.75 246.375 750.875 C 246 747.625 246 740.75 246.125 735.75 L 246.375 718.125 L 257.625 718.625 L 258.375 717.875 L 259.625 704.5 L 258.875 703.75 L 246.375 703.75 L 246.75 682.75 L 245.875 682 C 237.375 684.5 235.125 685.125 226.25 687.375 L 225.75 688.25 L 225.875 703.875 L 219.125 703.625 L 218.375 704.25 L 217.25 717.625 L 218 718.375 L 225.875 718.125 L 225.5 738 C 225.375 741.125 225.25 744.25 225.25 747.5 C 225.25 759 225.5 771.375 245 771.375 C 249.875 771.375 253.75 770.625 258.125 769.875 L 259 769 L 260.25 756.125 Z M 324.125 732.75 C 324.25 721.5 324.25 716.625 321 711.375 C 318.5 707.375 313.5 702.375 297.5 702.375 C 286.75 702.375 280.125 704.375 273 706.5 L 272.25 707.5 L 271.625 721.125 L 272.625 721.625 C 277 719.875 285.125 716.625 293.5 716.625 C 298.125 716.625 300 717.375 301.625 719 C 302.875 720.25 303.25 722.5 303.25 724.375 C 288.25 726.375 281.25 727.75 273.75 732.375 C 266.75 736.75 264.375 743.875 264.375 749.5 C 264.375 762.875 274 771.5 286.25 771.5 C 295.625 771.5 301 767 303.625 764.875 L 303.625 769.5 L 304.375 770.375 C 313.375 770 316.125 769.875 324.25 770 L 324.875 769.125 C 324 756.875 324 753.75 324 742 L 324.125 732.75 M 303.5 752.625 C 300.875 754.125 297.5 755.875 293.375 755.875 C 288.875 755.875 285.125 753.5 285.125 748.25 C 285.125 740 295 738.625 303.5 737.5 Z M 373.75 755.625 C 371.625 756.25 370.125 756.75 368 756.75 C 361.625 756.75 361.125 752.75 360.875 750.875 C 360.5 747.625 360.5 740.75 360.625 735.75 L 360.875 718.125 L 372.125 718.625 L 372.875 717.875 L 374.125 704.5 L 373.375 703.75 L 360.875 703.75 L 361.25 682.75 L 360.375 682 C 351.875 684.5 349.625 685.125 340.75 687.375 L 340.25 688.25 L 340.375 703.875 L 333.625 703.625 L 332.875 704.25 L 331.75 717.625 L 332.5 718.375 L 340.375 718.125 L 340 738 C 339.875 741.125 339.75 744.25 339.75 747.5 C 339.75 759 340 771.375 359.5 771.375 C 364.375 771.375 368.25 770.625 372.625 769.875 L 373.5 769 L 374.75 756.125 Z M 438.5 751.5 C 433.75 754 428.125 756.875 419 756.875 C 411.5 756.875 406.375 754.5 403.375 750 C 401.5 747.375 401.125 744.875 400.625 742.375 L 441 741.625 L 441.75 740.75 C 441.625 734.625 441.5 728.375 439.75 722.125 C 435.375 707.375 425.75 704.375 421.5 703.375 C 418.375 702.5 415.5 702.25 412.625 702.25 C 393 702.25 380 715.125 380 736.75 C 380 742.625 381 748.75 383 753.125 C 390.25 770 407.25 771.5 416.25 771.5 C 426.625 771.5 431.125 769.625 437.75 767 L 438.5 766 L 439.375 751.875 L 438.5 751.5 M 400.625 729.125 C 401 725.25 401.875 720 406.625 717 C 408.125 716 409.875 715.625 411.625 715.625 C 415.75 715.625 418.25 717.75 419.625 720 C 421.375 722.75 421.5 725.75 421.5 728.625 Z M 513 770 C 524.625 770.25 539 770.5 548.375 764 C 556.625 758.125 558.875 749.875 558.875 742.875 C 558.875 734.875 555.5 727.5 548.375 724 C 546 722.75 543.25 722.25 540.625 721.75 C 544.875 720 549.875 717.75 553.125 711.125 C 554.5 708.25 555.125 705.25 555.125 702.375 C 555.125 698.375 554.125 692.875 550.125 688.375 C 544.875 682.75 536.75 681.25 524.5 681.25 C 520.25 681.25 512.625 681.375 508.375 681.5 L 490.875 681.75 L 490.125 682.5 C 490.625 694.5 490.75 699.125 490.75 716.375 C 490.75 734.125 490.625 751.75 490.375 769.5 L 491.25 770 L 513 770 M 512.125 732 C 521.625 731.75 527.125 731.75 530.75 733.875 C 534.375 736.125 535.75 740.125 535.75 744.125 C 535.75 749.75 532.625 753.25 528 754.875 C 524.25 756.125 517.5 756.125 512.125 756 L 512.125 732 M 512.125 695.25 C 514.75 695.25 518.25 695.125 520.375 695.125 C 527.125 695.125 533.25 697.5 533.25 705.625 C 533.25 712.25 528.375 715 526.875 715.75 C 523.75 717.125 517.125 717.125 512.125 717.125 Z M 626 751.5 C 621.25 754 615.625 756.875 606.5 756.875 C 599 756.875 593.875 754.5 590.875 750 C 589 747.375 588.625 744.875 588.125 742.375 L 628.5 741.625 L 629.25 740.75 C 629.125 734.625 629 728.375 627.25 722.125 C 622.875 707.375 613.25 704.375 609 703.375 C 605.875 702.5 603 702.25 600.125 702.25 C 580.5 702.25 567.5 715.125 567.5 736.75 C 567.5 742.625 568.5 748.75 570.5 753.125 C 577.75 770 594.75 771.5 603.75 771.5 C 614.125 771.5 618.625 769.625 625.25 767 L 626 766 L 626.875 751.875 L 626 751.5 M 588.125 729.125 C 588.5 725.25 589.375 720 594.125 717 C 595.625 716 597.375 715.625 599.125 715.625 C 603.25 715.625 605.75 717.75 607.125 720 C 608.875 722.75 609 725.75 609 728.625 Z M 696.375 732.75 C 696.5 721.5 696.5 716.625 693.25 711.375 C 690.75 707.375 685.75 702.375 669.75 702.375 C 659 702.375 652.375 704.375 645.25 706.5 L 644.5 707.5 L 643.875 721.125 L 644.875 721.625 C 649.25 719.875 657.375 716.625 665.75 716.625 C 670.375 716.625 672.25 717.375 673.875 719 C 675.125 720.25 675.5 722.5 675.5 724.375 C 660.5 726.375 653.5 727.75 646 732.375 C 639 736.75 636.625 743.875 636.625 749.5 C 636.625 762.875 646.25 771.5 658.5 771.5 C 667.875 771.5 673.25 767 675.875 764.875 L 675.875 769.5 L 676.625 770.375 C 685.625 770 688.375 769.875 696.5 770 L 697.125 769.125 C 696.25 756.875 696.25 753.75 696.25 742 L 696.375 732.75 M 675.75 752.625 C 673.125 754.125 669.75 755.875 665.625 755.875 C 661.125 755.875 657.375 753.5 657.375 748.25 C 657.375 740 667.25 738.625 675.75 737.5 Z M 759.875 752 C 756.5 754 753.25 756 746.875 756 C 732.75 756 729.875 744.25 729.875 736.75 C 729.875 727.625 733.875 717.125 746 717.125 C 751.5 717.125 754.5 719.125 758.25 721.625 L 759.5 721.25 C 760 714.625 760.125 712.875 761.125 706.25 L 760.5 705.5 C 755 703.75 750.25 702.25 743 702.25 C 713.625 702.25 707.875 724.5 707.875 737.25 C 707.875 751.625 715.375 771.125 743.5 771.125 C 750.125 771.125 754.375 769.875 759.625 768.375 L 760.375 767.625 L 760.875 752.625 Z M 832.125 769.125 C 831.625 758.875 831.5 755.375 831.25 742.375 L 831.25 733 C 831.125 721.125 831 714.25 827.375 709 C 823.75 703.875 818.5 702.25 813 702.25 C 803.875 702.25 796.75 706.625 791.75 709.625 L 792.125 671.125 L 791.375 670.25 L 770 673.625 L 769.375 674.375 C 770.5 686.5 770.75 691 771 707.125 C 771.25 717.25 771.375 727.375 771.375 737.5 C 771.375 749.875 771.125 757.25 770.875 769.5 L 771.5 770.375 C 780.75 769.875 782.625 769.875 792.75 769.875 L 793.5 769.125 C 792.625 750.375 792.5 744.75 792.375 722.625 C 794.75 721 797.75 718.875 802 718.875 C 808.875 718.875 809.375 726 809.875 731 C 810.125 734.875 810.25 752.625 810.25 757.25 C 810.25 761.375 810.125 765.375 810.125 769.5 L 810.75 770.375 C 819.75 769.875 821.75 769.875 831.375 769.875 Z M 838.875 770 "/>
</svg>
