<?xml version="1.0" encoding="UTF-8"?>
<svg xmlns="http://www.w3.org/2000/svg" xmlns:xlink="http://www.w3.org/1999/xlink" width="975" height="1300" viewBox="0 0 975 1300">
<path fill-rule="nonzero" fill="rgb(34.901961%, 14.901961%, 14.901961%)" fill-opacity="1" d="M 235.8125 520.25 C 235.8125 514 235.9375 507.75 236.0625 501.375 L 235.4375 500.625 L 214.1875 501 L 213.5625 501.75 C 214.6875 514 214.8125 517 214.5625 528.375 C 211.1875 529.125 208.6875 529.75 205.1875 529.75 C 185.8125 529.75 182.3125 511.25 182.3125 501.875 C 182.3125 482.125 192.9375 471.375 208.6875 471.375 C 218.1875 471.375 223.8125 475.125 229.6875 479 L 230.6875 478.625 C 231.3125 470.875 231.5625 468.875 232.5625 461.375 L 231.9375 460.625 C 226.6875 458.375 218.3125 454.875 205.3125 454.875 C 191.0625 454.875 175.4375 458.875 165.5625 475.625 C 161.0625 483.5 159.1875 493.625 159.1875 502 C 159.1875 513.75 162.3125 523.625 167.9375 530.875 C 175.3125 540.375 184.4375 543.375 189.3125 544.75 C 192.9375 545.75 198.3125 546.875 206.0625 546.875 C 218.9375 546.875 226.8125 544.25 235.5625 541.375 L 236.1875 540.375 C 236.0625 534.625 235.8125 528.875 235.8125 523.125 Z M 286.0625 498.625 L 289.5625 478.25 L 288.8125 477.375 C 287.9375 477.375 287.0625 477.25 286.1875 477.25 C 281.0625 477.25 275.3125 480.125 271.3125 489.375 L 271.6875 477.875 L 270.6875 476.875 C 261.4375 478.875 259.0625 479.25 249.9375 480.625 L 249.1875 481.375 C 249.9375 490.75 250.3125 496.375 250.3125 513.75 C 250.3125 524 250.1875 534.25 249.9375 544.625 L 250.6875 545.375 C 259.9375 545 261.9375 544.875 271.9375 545 L 272.5625 544.125 C 272.0625 534 271.3125 519.875 271.3125 511.25 C 271.3125 505.625 271.3125 497.375 279.8125 497.375 C 281.9375 497.375 283.1875 498.125 284.9375 499.125 Z M 352.4375 507.75 C 352.5625 496.5 352.5625 491.625 349.3125 486.375 C 346.8125 482.375 341.8125 477.375 325.8125 477.375 C 315.0625 477.375 308.4375 479.375 301.3125 481.5 L 300.5625 482.5 L 299.9375 496.125 L 300.9375 496.625 C 305.3125 494.875 313.4375 491.625 321.8125 491.625 C 326.4375 491.625 328.3125 492.375 329.9375 494 C 331.1875 495.25 331.5625 497.5 331.5625 499.375 C 316.5625 501.375 309.5625 502.75 302.0625 507.375 C 295.0625 511.75 292.6875 518.875 292.6875 524.5 C 292.6875 537.875 302.3125 546.5 314.5625 546.5 C 323.9375 546.5 329.3125 542 331.9375 539.875 L 331.9375 544.5 L 332.6875 545.375 C 341.6875 545 344.4375 544.875 352.5625 545 L 353.1875 544.125 C 352.3125 531.875 352.3125 528.75 352.3125 517 L 352.4375 507.75 M 331.8125 527.625 C 329.1875 529.125 325.8125 530.875 321.6875 530.875 C 317.1875 530.875 313.4375 528.5 313.4375 523.25 C 313.4375 515 323.3125 513.625 331.8125 512.5 Z M 422.9375 478.375 L 405.5625 478.75 L 404.5625 479.625 C 402.4375 488.25 401.9375 490.125 398.9375 499.875 L 395.6875 510.625 L 392.9375 520 L 390.5625 511.125 L 386.9375 497.875 L 381.9375 478.875 L 380.9375 478.125 C 371.1875 478.875 369.0625 479 358.8125 479.25 L 358.1875 480.125 C 362.6875 492 374.3125 523.375 382.0625 547.375 C 376.9375 560.375 375.9375 562.625 370.3125 575 L 370.9375 576 C 374.0625 575.875 377.5625 575.75 380.8125 575.75 C 383.9375 575.75 387.1875 575.875 390.3125 575.875 L 391.1875 575.125 C 398.0625 548.125 401.4375 537.625 417.9375 494.125 C 419.8125 489.125 421.6875 484.25 423.4375 479.375 Z M 556.9375 544.25 C 561.5625 521.5 563.5625 512 576.8125 457.125 L 576.1875 456.375 C 567.3125 456.75 565.5625 456.75 557.1875 456.75 L 556.4375 457.5 C 554.4375 470.375 553.8125 474.75 551.0625 489.125 L 547.4375 508.25 L 543.4375 529.75 C 541.5625 515.75 540.9375 511.5 538.4375 497 L 534.8125 476 L 531.6875 456.75 L 530.9375 455.875 L 506.1875 456.5 L 505.4375 457.25 L 500.4375 486 L 495.5625 511.625 L 492.4375 528.875 C 490.9375 518 490.4375 514.375 487.8125 499.25 L 484.5625 481 L 480.4375 456.25 L 479.6875 455.625 C 468.9375 456.375 467.1875 456.375 458.0625 456.625 L 457.4375 457.5 C 466.5625 498.875 468.5625 508.375 475.3125 544.625 L 476.0625 545.375 C 488.6875 544.875 492.0625 544.875 504.3125 545 L 505.1875 544.25 L 507.8125 528.75 L 511.9375 505.875 L 516.4375 479.125 C 517.9375 491.375 518.3125 494.5 520.5625 508 L 523.6875 527.5 L 526.3125 544.625 L 526.9375 545.375 C 538.9375 545 543.0625 544.875 556.3125 545 Z M 644.5625 544.125 C 644.0625 533.875 643.9375 530.375 643.6875 517.375 L 643.6875 508 C 643.5625 496.125 643.4375 489.25 639.8125 484 C 636.1875 478.875 630.9375 477.25 625.4375 477.25 C 616.3125 477.25 609.1875 481.625 604.1875 484.625 L 604.5625 446.125 L 603.8125 445.25 L 582.4375 448.625 L 581.8125 449.375 C 582.9375 461.5 583.1875 466 583.4375 482.125 C 583.6875 492.25 583.8125 502.375 583.8125 512.5 C 583.8125 524.875 583.5625 532.25 583.3125 544.5 L 583.9375 545.375 C 593.1875 544.875 595.0625 544.875 605.1875 544.875 L 605.9375 544.125 C 605.0625 525.375 604.9375 519.75 604.8125 497.625 C 607.1875 496 610.1875 493.875 614.4375 493.875 C 621.3125 493.875 621.8125 501 622.3125 506 C 622.5625 509.875 622.6875 527.625 622.6875 532.25 C 622.6875 536.375 622.5625 540.375 622.5625 544.5 L 623.1875 545.375 C 632.1875 544.875 634.1875 544.875 643.8125 544.875 Z M 714.4375 507.75 C 714.5625 496.5 714.5625 491.625 711.3125 486.375 C 708.8125 482.375 703.8125 477.375 687.8125 477.375 C 677.0625 477.375 670.4375 479.375 663.3125 481.5 L 662.5625 482.5 L 661.9375 496.125 L 662.9375 496.625 C 667.3125 494.875 675.4375 491.625 683.8125 491.625 C 688.4375 491.625 690.3125 492.375 691.9375 494 C 693.1875 495.25 693.5625 497.5 693.5625 499.375 C 678.5625 501.375 671.5625 502.75 664.0625 507.375 C 657.0625 511.75 654.6875 518.875 654.6875 524.5 C 654.6875 537.875 664.3125 546.5 676.5625 546.5 C 685.9375 546.5 691.3125 542 693.9375 539.875 L 693.9375 544.5 L 694.6875 545.375 C 703.6875 545 706.4375 544.875 714.5625 545 L 715.1875 544.125 C 714.3125 531.875 714.3125 528.75 714.3125 517 L 714.4375 507.75 M 693.8125 527.625 C 691.1875 529.125 687.8125 530.875 683.6875 530.875 C 679.1875 530.875 675.4375 528.5 675.4375 523.25 C 675.4375 515 685.3125 513.625 693.8125 512.5 Z M 751.0625 544.125 C 750.4375 529.75 749.8125 516.625 749.8125 477.125 C 749.8125 465.25 749.9375 459.625 750.4375 446.125 L 749.5625 445.25 L 728.1875 448.625 L 727.6875 449.375 C 728.9375 464.625 729.0625 468.75 729.3125 489 C 729.4375 496.375 729.4375 503.75 729.4375 511.125 C 729.4375 524.625 729.1875 532.125 728.6875 544.5 L 729.4375 545.375 C 737.8125 545 741.1875 544.875 750.3125 545 Z M 821.0625 526.5 C 816.3125 529 810.6875 531.875 801.5625 531.875 C 794.0625 531.875 788.9375 529.5 785.9375 525 C 784.0625 522.375 783.6875 519.875 783.1875 517.375 L 823.5625 516.625 L 824.3125 515.75 C 824.1875 509.625 824.0625 503.375 822.3125 497.125 C 817.9375 482.375 808.3125 479.375 804.0625 478.375 C 800.9375 477.5 798.0625 477.25 795.1875 477.25 C 775.5625 477.25 762.5625 490.125 762.5625 511.75 C 762.5625 517.625 763.5625 523.75 765.5625 528.125 C 772.8125 545 789.8125 546.5 798.8125 546.5 C 809.1875 546.5 813.6875 544.625 820.3125 542 L 821.0625 541 L 821.9375 526.875 L 821.0625 526.5 M 783.1875 504.125 C 783.5625 500.25 784.4375 495 789.1875 492 C 790.6875 491 792.4375 490.625 794.1875 490.625 C 798.3125 490.625 800.8125 492.75 802.1875 495 C 803.9375 497.75 804.0625 500.75 804.0625 503.625 Z M 828.3125 545 "/>
<path fill-rule="nonzero" fill="rgb(34.901961%, 14.901961%, 14.901961%)" fill-opacity="1" d="M 253.75 672.625 C 250.875 674.875 244.5 679.625 234.125 679.625 C 219.875 679.625 209.875 669 209.875 651.25 C 209.875 640.5 213.625 621.625 234 621.625 C 243.375 621.625 248.5 625.25 251.625 627.625 L 252.75 627.375 L 253.875 610.125 L 253.375 609.5 C 248.875 607.75 241.25 604.875 230.25 604.875 C 197.875 604.875 186.625 629.875 186.625 651.75 C 186.625 675.75 201.25 696.875 231.75 696.875 C 242.25 696.875 249.125 694.125 253.125 692.5 L 253.75 691.75 L 254.625 673.125 Z M 328 661.75 C 328 656.875 328 636.625 310.5 629.75 C 305 627.625 298.5 627.375 295.25 627.375 C 273.5 627.375 261.25 639 261.25 662 C 261.25 670 262.5 678.125 267.125 684.875 C 270.375 689.75 276.5 696.5 294.375 696.5 C 320.875 696.5 328 680.5 328 661.75 M 306.375 661.625 C 306.375 671.875 305 683.25 294.625 683.25 C 291.375 683.25 289.125 681.75 287.625 680.375 C 285.5 678.25 283.125 674 283.125 661.875 C 283.125 658.25 283.125 650.25 285.625 645.875 C 287.5 642.5 290.75 640.25 294.75 640.25 C 298.25 640.25 301.125 642.125 302.75 644.125 C 305.75 647.75 306.375 654.875 306.375 661.625 Z M 374.375 694 C 378.375 681.5 380.75 673.75 383.375 665.875 C 386.75 655.75 392.25 639.5 395.75 629.25 L 395.125 628.375 L 377.625 628.75 L 376.75 629.625 C 375 638 374.625 639.75 372.125 649.5 L 365.75 674.125 L 362.625 660.625 L 360.25 651 C 357.125 639.375 356.625 637 354.875 628.75 L 354 628 C 344.125 629.125 341.625 629.25 332.125 629.375 L 331.625 630.375 C 348.25 679.625 349.625 684.25 352.375 694.5 L 353.25 695.375 C 361.375 695 364.625 694.875 373.625 695 Z M 457.875 676.5 C 453.125 679 447.5 681.875 438.375 681.875 C 430.875 681.875 425.75 679.5 422.75 675 C 420.875 672.375 420.5 669.875 420 667.375 L 460.375 666.625 L 461.125 665.75 C 461 659.625 460.875 653.375 459.125 647.125 C 454.75 632.375 445.125 629.375 440.875 628.375 C 437.75 627.5 434.875 627.25 432 627.25 C 412.375 627.25 399.375 640.125 399.375 661.75 C 399.375 667.625 400.375 673.75 402.375 678.125 C 409.625 695 426.625 696.5 435.625 696.5 C 446 696.5 450.5 694.625 457.125 692 L 457.875 691 L 458.75 676.875 L 457.875 676.5 M 420 654.125 C 420.375 650.25 421.25 645 426 642 C 427.5 641 429.25 640.625 431 640.625 C 435.125 640.625 437.625 642.75 439 645 C 440.75 647.75 440.875 650.75 440.875 653.625 Z M 545.25 641.25 C 534.75 636.875 529.25 634.625 529.25 629 C 529.25 625.125 532.875 620.25 541.125 620.25 C 550.625 620.25 556.25 624.125 560.875 627.25 L 562 626.75 L 563 610.375 L 562.375 609.5 C 557 607.25 551.375 604.875 539.25 604.875 C 515.75 604.875 507.625 618.125 507.625 631.5 C 507.625 646.625 519.375 652.125 526.375 655.5 L 530.5 657.375 C 539.125 661 545.75 664.125 545.75 670.75 C 545.75 675.5 541.625 681.125 530.75 681.125 C 519.375 681.125 513 676.125 509.375 673.25 L 508.125 673.625 L 507.25 691.25 L 508 692.25 C 509.375 692.75 510.75 693.375 512.125 693.75 C 515 694.75 522.375 696.875 531.75 696.875 C 535.5 696.875 545 696.5 552.5 693 C 563 687.875 567.5 678.375 567.5 667.75 C 567.5 660.625 564.75 653 558.125 647.875 C 554.75 645.375 551.5 643.875 548.5 642.5 Z M 614.375 680.625 C 612.25 681.25 610.75 681.75 608.625 681.75 C 602.25 681.75 601.75 677.75 601.5 675.875 C 601.125 672.625 601.125 665.75 601.25 660.75 L 601.5 643.125 L 612.75 643.625 L 613.5 642.875 L 614.75 629.5 L 614 628.75 L 601.5 628.75 L 601.875 607.75 L 601 607 C 592.5 609.5 590.25 610.125 581.375 612.375 L 580.875 613.25 L 581 628.875 L 574.25 628.625 L 573.5 629.25 L 572.375 642.625 L 573.125 643.375 L 581 643.125 L 580.625 663 C 580.5 666.125 580.375 669.25 580.375 672.5 C 580.375 684 580.625 696.375 600.125 696.375 C 605 696.375 608.875 695.625 613.25 694.875 L 614.125 694 L 615.375 681.125 Z M 679.25 657.75 C 679.375 646.5 679.375 641.625 676.125 636.375 C 673.625 632.375 668.625 627.375 652.625 627.375 C 641.875 627.375 635.25 629.375 628.125 631.5 L 627.375 632.5 L 626.75 646.125 L 627.75 646.625 C 632.125 644.875 640.25 641.625 648.625 641.625 C 653.25 641.625 655.125 642.375 656.75 644 C 658 645.25 658.375 647.5 658.375 649.375 C 643.375 651.375 636.375 652.75 628.875 657.375 C 621.875 661.75 619.5 668.875 619.5 674.5 C 619.5 687.875 629.125 696.5 641.375 696.5 C 650.75 696.5 656.125 692 658.75 689.875 L 658.75 694.5 L 659.5 695.375 C 668.5 695 671.25 694.875 679.375 695 L 680 694.125 C 679.125 681.875 679.125 678.75 679.125 667 L 679.25 657.75 M 658.625 677.625 C 656 679.125 652.625 680.875 648.5 680.875 C 644 680.875 640.25 678.5 640.25 673.25 C 640.25 665 650.125 663.625 658.625 662.5 Z M 728.875 680.625 C 726.75 681.25 725.25 681.75 723.125 681.75 C 716.75 681.75 716.25 677.75 716 675.875 C 715.625 672.625 715.625 665.75 715.75 660.75 L 716 643.125 L 727.25 643.625 L 728 642.875 L 729.25 629.5 L 728.5 628.75 L 716 628.75 L 716.375 607.75 L 715.5 607 C 707 609.5 704.75 610.125 695.875 612.375 L 695.375 613.25 L 695.5 628.875 L 688.75 628.625 L 688 629.25 L 686.875 642.625 L 687.625 643.375 L 695.5 643.125 L 695.125 663 C 695 666.125 694.875 669.25 694.875 672.5 C 694.875 684 695.125 696.375 714.625 696.375 C 719.5 696.375 723.375 695.625 727.75 694.875 L 728.625 694 L 729.875 681.125 Z M 793.625 676.5 C 788.875 679 783.25 681.875 774.125 681.875 C 766.625 681.875 761.5 679.5 758.5 675 C 756.625 672.375 756.25 669.875 755.75 667.375 L 796.125 666.625 L 796.875 665.75 C 796.75 659.625 796.625 653.375 794.875 647.125 C 790.5 632.375 780.875 629.375 776.625 628.375 C 773.5 627.5 770.625 627.25 767.75 627.25 C 748.125 627.25 735.125 640.125 735.125 661.75 C 735.125 667.625 736.125 673.75 738.125 678.125 C 745.375 695 762.375 696.5 771.375 696.5 C 781.75 696.5 786.25 694.625 792.875 692 L 793.625 691 L 794.5 676.875 L 793.625 676.5 M 755.75 654.125 C 756.125 650.25 757 645 761.75 642 C 763.25 641 765 640.625 766.75 640.625 C 770.875 640.625 773.375 642.75 774.75 645 C 776.5 647.75 776.625 650.75 776.625 653.625 Z M 800.875 695 "/>
<path fill-rule="nonzero" fill="rgb(34.901961%, 14.901961%, 14.901961%)" fill-opacity="1" d="M 346.25 845 C 357.875 845.25 372.25 845.5 381.625 839 C 389.875 833.125 392.125 824.875 392.125 817.875 C 392.125 809.875 388.75 802.5 381.625 799 C 379.25 797.75 376.5 797.25 373.875 796.75 C 378.125 795 383.125 792.75 386.375 786.125 C 387.75 783.25 388.375 780.25 388.375 777.375 C 388.375 773.375 387.375 767.875 383.375 763.375 C 378.125 757.75 370 756.25 357.75 756.25 C 353.5 756.25 345.875 756.375 341.625 756.5 L 324.125 756.75 L 323.375 757.5 C 323.875 769.5 324 774.125 324 791.375 C 324 809.125 323.875 826.75 323.625 844.5 L 324.5 845 L 346.25 845 M 345.375 807 C 354.875 806.75 360.375 806.75 364 808.875 C 367.625 811.125 369 815.125 369 819.125 C 369 824.75 365.875 828.25 361.25 829.875 C 357.5 831.125 350.75 831.125 345.375 831 L 345.375 807 M 345.375 770.25 C 348 770.25 351.5 770.125 353.625 770.125 C 360.375 770.125 366.5 772.5 366.5 780.625 C 366.5 787.25 361.625 790 360.125 790.75 C 357 792.125 350.375 792.125 345.375 792.125 Z M 459.25 826.5 C 454.5 829 448.875 831.875 439.75 831.875 C 432.25 831.875 427.125 829.5 424.125 825 C 422.25 822.375 421.875 819.875 421.375 817.375 L 461.75 816.625 L 462.5 815.75 C 462.375 809.625 462.25 803.375 460.5 797.125 C 456.125 782.375 446.5 779.375 442.25 778.375 C 439.125 777.5 436.25 777.25 433.375 777.25 C 413.75 777.25 400.75 790.125 400.75 811.75 C 400.75 817.625 401.75 823.75 403.75 828.125 C 411 845 428 846.5 437 846.5 C 447.375 846.5 451.875 844.625 458.5 842 L 459.25 841 L 460.125 826.875 L 459.25 826.5 M 421.375 804.125 C 421.75 800.25 422.625 795 427.375 792 C 428.875 791 430.625 790.625 432.375 790.625 C 436.5 790.625 439 792.75 440.375 795 C 442.125 797.75 442.25 800.75 442.25 803.625 Z M 529.625 807.75 C 529.75 796.5 529.75 791.625 526.5 786.375 C 524 782.375 519 777.375 503 777.375 C 492.25 777.375 485.625 779.375 478.5 781.5 L 477.75 782.5 L 477.125 796.125 L 478.125 796.625 C 482.5 794.875 490.625 791.625 499 791.625 C 503.625 791.625 505.5 792.375 507.125 794 C 508.375 795.25 508.75 797.5 508.75 799.375 C 493.75 801.375 486.75 802.75 479.25 807.375 C 472.25 811.75 469.875 818.875 469.875 824.5 C 469.875 837.875 479.5 846.5 491.75 846.5 C 501.125 846.5 506.5 842 509.125 839.875 L 509.125 844.5 L 509.875 845.375 C 518.875 845 521.625 844.875 529.75 845 L 530.375 844.125 C 529.5 831.875 529.5 828.75 529.5 817 L 529.625 807.75 M 509 827.625 C 506.375 829.125 503 830.875 498.875 830.875 C 494.375 830.875 490.625 828.5 490.625 823.25 C 490.625 815 500.5 813.625 509 812.5 Z M 593.125 827 C 589.75 829 586.5 831 580.125 831 C 566 831 563.125 819.25 563.125 811.75 C 563.125 802.625 567.125 792.125 579.25 792.125 C 584.75 792.125 587.75 794.125 591.5 796.625 L 592.75 796.25 C 593.25 789.625 593.375 787.875 594.375 781.25 L 593.75 780.5 C 588.25 778.75 583.5 777.25 576.25 777.25 C 546.875 777.25 541.125 799.5 541.125 812.25 C 541.125 826.625 548.625 846.125 576.75 846.125 C 583.375 846.125 587.625 844.875 592.875 843.375 L 593.625 842.625 L 594.125 827.625 Z M 665.375 844.125 C 664.875 833.875 664.75 830.375 664.5 817.375 L 664.5 808 C 664.375 796.125 664.25 789.25 660.625 784 C 657 778.875 651.75 777.25 646.25 777.25 C 637.125 777.25 630 781.625 625 784.625 L 625.375 746.125 L 624.625 745.25 L 603.25 748.625 L 602.625 749.375 C 603.75 761.5 604 766 604.25 782.125 C 604.5 792.25 604.625 802.375 604.625 812.5 C 604.625 824.875 604.375 832.25 604.125 844.5 L 604.75 845.375 C 614 844.875 615.875 844.875 626 844.875 L 626.75 844.125 C 625.875 825.375 625.75 819.75 625.625 797.625 C 628 796 631 793.875 635.25 793.875 C 642.125 793.875 642.625 801 643.125 806 C 643.375 809.875 643.5 827.625 643.5 832.25 C 643.5 836.375 643.375 840.375 643.375 844.5 L 644 845.375 C 653 844.875 655 844.875 664.625 844.875 Z M 672.125 845 "/>
</svg>
