<?xml version="1.0" encoding="UTF-8"?>
<svg xmlns="http://www.w3.org/2000/svg" xmlns:xlink="http://www.w3.org/1999/xlink" width="975" height="1300" viewBox="0 0 975 1300">
<path fill-rule="nonzero" fill="rgb(34.901961%, 14.901961%, 14.901961%)" fill-opacity="1" d="M 155 566.25 C 144.5 561.875 139 559.625 139 554 C 139 550.125 142.625 545.25 150.875 545.25 C 160.375 545.25 166 549.125 170.625 552.25 L 171.75 551.75 L 172.75 535.375 L 172.125 534.5 C 166.75 532.25 161.125 529.875 149 529.875 C 125.5 529.875 117.375 543.125 117.375 556.5 C 117.375 571.625 129.125 577.125 136.125 580.5 L 140.25 582.375 C 148.875 586 155.5 589.125 155.5 595.75 C 155.5 600.5 151.375 606.125 140.5 606.125 C 129.125 606.125 122.75 601.125 119.125 598.25 L 117.875 598.625 L 117 616.25 L 117.75 617.25 C 119.125 617.75 120.5 618.375 121.875 618.75 C 124.75 619.75 132.125 621.875 141.5 621.875 C 145.25 621.875 154.75 621.5 162.25 618 C 172.75 612.875 177.25 603.375 177.25 592.75 C 177.25 585.625 174.5 578 167.875 572.875 C 164.5 570.375 161.25 568.875 158.25 567.5 Z M 244.75 582.75 C 244.875 571.5 244.875 566.625 241.625 561.375 C 239.125 557.375 234.125 552.375 218.125 552.375 C 207.375 552.375 200.75 554.375 193.625 556.5 L 192.875 557.5 L 192.25 571.125 L 193.25 571.625 C 197.625 569.875 205.75 566.625 214.125 566.625 C 218.75 566.625 220.625 567.375 222.25 569 C 223.5 570.25 223.875 572.5 223.875 574.375 C 208.875 576.375 201.875 577.75 194.375 582.375 C 187.375 586.75 185 593.875 185 599.5 C 185 612.875 194.625 621.5 206.875 621.5 C 216.25 621.5 221.625 617 224.25 614.875 L 224.25 619.5 L 225 620.375 C 234 620 236.75 619.875 244.875 620 L 245.5 619.125 C 244.625 606.875 244.625 603.75 244.625 592 L 244.75 582.75 M 224.125 602.625 C 221.5 604.125 218.125 605.875 214 605.875 C 209.5 605.875 205.75 603.5 205.75 598.25 C 205.75 590 215.625 588.625 224.125 587.5 Z M 320.625 619.125 C 320 608.125 320 604.625 319.75 592.375 L 319.75 582.625 C 319.625 570.625 319.5 564.875 316.375 559.75 C 312.5 553.25 305.375 552.25 300.875 552.25 C 293.25 552.25 286.625 556.25 280.875 559.625 L 281.125 552.75 L 279.875 551.875 C 270.25 553.875 268.125 554.25 258.75 555.5 L 258 556.375 C 259 567.25 259.75 575.125 259.75 595.5 C 259.75 603.5 259.625 611.5 259.5 619.5 L 260.25 620.25 C 269.25 619.875 271.125 619.875 281.125 619.875 L 281.875 619.125 C 281.125 599.875 281 595 280.875 572.625 C 283.5 570.875 286.5 568.75 290.5 568.75 C 297.375 568.75 298 576.125 298.375 580.625 C 298.625 584.75 298.75 601.875 298.75 606.625 C 298.75 610.875 298.625 615.25 298.625 619.5 L 299.375 620.25 C 307.625 620 309.75 619.875 319.75 619.875 Z M 445.75 595.25 C 445.75 589 445.875 582.75 446 576.375 L 445.375 575.625 L 424.125 576 L 423.5 576.75 C 424.625 589 424.75 592 424.5 603.375 C 421.125 604.125 418.625 604.75 415.125 604.75 C 395.75 604.75 392.25 586.25 392.25 576.875 C 392.25 557.125 402.875 546.375 418.625 546.375 C 428.125 546.375 433.75 550.125 439.625 554 L 440.625 553.625 C 441.25 545.875 441.5 543.875 442.5 536.375 L 441.875 535.625 C 436.625 533.375 428.25 529.875 415.25 529.875 C 401 529.875 385.375 533.875 375.5 550.625 C 371 558.5 369.125 568.625 369.125 577 C 369.125 588.75 372.25 598.625 377.875 605.875 C 385.25 615.375 394.375 618.375 399.25 619.75 C 402.875 620.75 408.25 621.875 416 621.875 C 428.875 621.875 436.75 619.25 445.5 616.375 L 446.125 615.375 C 446 609.625 445.75 603.875 445.75 598.125 Z M 496 573.625 L 499.5 553.25 L 498.75 552.375 C 497.875 552.375 497 552.25 496.125 552.25 C 491 552.25 485.25 555.125 481.25 564.375 L 481.625 552.875 L 480.625 551.875 C 471.375 553.875 469 554.25 459.875 555.625 L 459.125 556.375 C 459.875 565.75 460.25 571.375 460.25 588.75 C 460.25 599 460.125 609.25 459.875 619.625 L 460.625 620.375 C 469.875 620 471.875 619.875 481.875 620 L 482.5 619.125 C 482 609 481.25 594.875 481.25 586.25 C 481.25 580.625 481.25 572.375 489.75 572.375 C 491.875 572.375 493.125 573.125 494.875 574.125 Z M 562.25 601.5 C 557.5 604 551.875 606.875 542.75 606.875 C 535.25 606.875 530.125 604.5 527.125 600 C 525.25 597.375 524.875 594.875 524.375 592.375 L 564.75 591.625 L 565.5 590.75 C 565.375 584.625 565.25 578.375 563.5 572.125 C 559.125 557.375 549.5 554.375 545.25 553.375 C 542.125 552.5 539.25 552.25 536.375 552.25 C 516.75 552.25 503.75 565.125 503.75 586.75 C 503.75 592.625 504.75 598.75 506.75 603.125 C 514 620 531 621.5 540 621.5 C 550.375 621.5 554.875 619.625 561.5 617 L 562.25 616 L 563.125 601.875 L 562.25 601.5 M 524.375 579.125 C 524.75 575.25 525.625 570 530.375 567 C 531.875 566 533.625 565.625 535.375 565.625 C 539.5 565.625 542 567.75 543.375 570 C 545.125 572.75 545.25 575.75 545.25 578.625 Z M 600 598.875 C 604 599 608 599.25 614 597.25 C 620.5 595 630 589.625 630 577.5 C 630 571.5 628.25 569 626.625 566.625 L 635.25 567.125 L 636 566.5 L 636.875 554 L 636.125 553.375 C 626.5 553.75 623.875 553.875 616 553.75 L 610.25 553.625 C 601.375 553.375 589.5 553.125 581.375 559.875 C 578.625 562 573.375 567.375 573.375 576.75 C 573.375 581.75 574.75 585.75 577 588.875 C 579.75 592.75 582.25 594.125 585.375 595.875 C 581.875 602.625 580 606 577.125 611.125 L 577.125 612.25 L 582.375 616 C 578.625 618.875 572.75 623.625 572.75 631.75 C 572.75 637.5 575.875 642.5 580.5 645.875 C 587.5 650.875 597 651.125 601.875 651.125 C 624.75 651.125 635.25 639.625 635.25 627.5 C 635.25 611.75 621.5 608.75 613.375 606.875 L 610.375 606.375 C 604.25 605.375 602.875 605 598 603.25 L 600 598.875 M 610.25 576.375 C 610.125 586.5 604 587.375 602.25 587.375 C 601.25 587.375 596.875 587.125 594.75 582.125 C 593.625 579.5 593.625 576.5 593.625 575.625 C 593.625 569.375 597.375 565.375 602 565.375 C 607.75 565.375 610.375 570.875 610.25 576.375 M 599.625 623 C 610.75 625.875 610.875 625.875 612.375 627.125 C 613.625 628 614.875 629.375 614.875 632 C 614.875 635.75 611.75 639.625 603.5 639.625 C 594.25 639.625 591.125 634.375 591.125 630 C 591.125 625.875 593.25 623.5 594.75 621.75 Z M 708.375 586.75 C 708.375 581.875 708.375 561.625 690.875 554.75 C 685.375 552.625 678.875 552.375 675.625 552.375 C 653.875 552.375 641.625 564 641.625 587 C 641.625 595 642.875 603.125 647.5 609.875 C 650.75 614.75 656.875 621.5 674.75 621.5 C 701.25 621.5 708.375 605.5 708.375 586.75 M 686.75 586.625 C 686.75 596.875 685.375 608.25 675 608.25 C 671.75 608.25 669.5 606.75 668 605.375 C 665.875 603.25 663.5 599 663.5 586.875 C 663.5 583.25 663.5 575.25 666 570.875 C 667.875 567.5 671.125 565.25 675.125 565.25 C 678.625 565.25 681.5 567.125 683.125 569.125 C 686.125 572.75 686.75 579.875 686.75 586.625 Z M 756.375 573.625 L 759.875 553.25 L 759.125 552.375 C 758.25 552.375 757.375 552.25 756.5 552.25 C 751.375 552.25 745.625 555.125 741.625 564.375 L 742 552.875 L 741 551.875 C 731.75 553.875 729.375 554.25 720.25 555.625 L 719.5 556.375 C 720.25 565.75 720.625 571.375 720.625 588.75 C 720.625 599 720.5 609.25 720.25 619.625 L 721 620.375 C 730.25 620 732.25 619.875 742.25 620 L 742.875 619.125 C 742.375 609 741.625 594.875 741.625 586.25 C 741.625 580.625 741.625 572.375 750.125 572.375 C 752.25 572.375 753.5 573.125 755.25 574.125 Z M 789.75 619.125 C 789.125 609.5 788.625 602.125 788.625 584.875 C 788.625 574.25 788.875 563.5 789 552.875 L 788.125 551.875 L 766.625 555.625 L 765.875 556.375 C 766.875 565.875 767.25 570.25 767.25 588 C 767.25 601.625 766.875 609.25 766.5 619.5 L 767.25 620.375 C 776.25 620 778.75 619.875 788.875 620 L 789.75 619.125 M 787.75 539.875 L 788.125 522.875 L 787.375 522.125 L 767 524.625 L 766.25 525.5 C 766.5 530 766.625 532.625 766.625 535.625 C 766.625 538 766.625 540.5 766.5 542.875 L 767.375 543.625 C 775.875 542.125 778.25 541.875 787.125 540.75 Z M 867.25 586.75 C 867.25 581.875 867.25 561.625 849.75 554.75 C 844.25 552.625 837.75 552.375 834.5 552.375 C 812.75 552.375 800.5 564 800.5 587 C 800.5 595 801.75 603.125 806.375 609.875 C 809.625 614.75 815.75 621.5 833.625 621.5 C 860.125 621.5 867.25 605.5 867.25 586.75 M 845.625 586.625 C 845.625 596.875 844.25 608.25 833.875 608.25 C 830.625 608.25 828.375 606.75 826.875 605.375 C 824.75 603.25 822.375 599 822.375 586.875 C 822.375 583.25 822.375 575.25 824.875 570.875 C 826.75 567.5 830 565.25 834 565.25 C 837.5 565.25 840.375 567.125 842 569.125 C 845 572.75 845.625 579.875 845.625 586.625 Z M 871.625 620 "/>
<path fill-rule="nonzero" fill="rgb(34.901961%, 14.901961%, 14.901961%)" fill-opacity="1" d="M 190.125 716.25 C 179.625 711.875 174.125 709.625 174.125 704 C 174.125 700.125 177.75 695.25 186 695.25 C 195.5 695.25 201.125 699.125 205.75 702.25 L 206.875 701.75 L 207.875 685.375 L 207.25 684.5 C 201.875 682.25 196.25 679.875 184.125 679.875 C 160.625 679.875 152.5 693.125 152.5 706.5 C 152.5 721.625 164.25 727.125 171.25 730.5 L 175.375 732.375 C 184 736 190.625 739.125 190.625 745.75 C 190.625 750.5 186.5 756.125 175.625 756.125 C 164.25 756.125 157.875 751.125 154.25 748.25 L 153 748.625 L 152.125 766.25 L 152.875 767.25 C 154.25 767.75 155.625 768.375 157 768.75 C 159.875 769.75 167.25 771.875 176.625 771.875 C 180.375 771.875 189.875 771.5 197.375 768 C 207.875 762.875 212.375 753.375 212.375 742.75 C 212.375 735.625 209.625 728 203 722.875 C 199.625 720.375 196.375 718.875 193.375 717.5 Z M 259.25 755.625 C 257.125 756.25 255.625 756.75 253.5 756.75 C 247.125 756.75 246.625 752.75 246.375 750.875 C 246 747.625 246 740.75 246.125 735.75 L 246.375 718.125 L 257.625 718.625 L 258.375 717.875 L 259.625 704.5 L 258.875 703.75 L 246.375 703.75 L 246.75 682.75 L 245.875 682 C 237.375 684.5 235.125 685.125 226.25 687.375 L 225.75 688.25 L 225.875 703.875 L 219.125 703.625 L 218.375 704.25 L 217.25 717.625 L 218 718.375 L 225.875 718.125 L 225.5 738 C 225.375 741.125 225.25 744.25 225.25 747.5 C 225.25 759 225.5 771.375 245 771.375 C 249.875 771.375 253.75 770.625 258.125 769.875 L 259 769 L 260.25 756.125 Z M 324.125 732.75 C 324.25 721.5 324.25 716.625 321 711.375 C 318.5 707.375 313.5 702.375 297.5 702.375 C 286.75 702.375 280.125 704.375 273 706.5 L 272.25 707.5 L 271.625 721.125 L 272.625 721.625 C 277 719.875 285.125 716.625 293.5 716.625 C 298.125 716.625 300 717.375 301.625 719 C 302.875 720.25 303.25 722.5 303.25 724.375 C 288.25 726.375 281.25 727.75 273.75 732.375 C 266.75 736.75 264.375 743.875 264.375 749.5 C 264.375 762.875 274 771.5 286.25 771.5 C 295.625 771.5 301 767 303.625 764.875 L 303.625 769.5 L 304.375 770.375 C 313.375 770 316.125 769.875 324.25 770 L 324.875 769.125 C 324 756.875 324 753.75 324 742 L 324.125 732.75 M 303.5 752.625 C 300.875 754.125 297.5 755.875 293.375 755.875 C 288.875 755.875 285.125 753.5 285.125 748.25 C 285.125 740 295 738.625 303.5 737.5 Z M 373.75 755.625 C 371.625 756.25 370.125 756.75 368 756.75 C 361.625 756.75 361.125 752.75 360.875 750.875 C 360.5 747.625 360.5 740.75 360.625 735.75 L 360.875 718.125 L 372.125 718.625 L 372.875 717.875 L 374.125 704.5 L 373.375 703.75 L 360.875 703.75 L 361.25 682.75 L 360.375 682 C 351.875 684.5 349.625 685.125 340.75 687.375 L 340.25 688.25 L 340.375 703.875 L 333.625 703.625 L 332.875 704.25 L 331.75 717.625 L 332.5 718.375 L 340.375 718.125 L 340 738 C 339.875 741.125 339.75 744.25 339.75 747.5 C 339.75 759 340 771.375 359.5 771.375 C 364.375 771.375 368.25 770.625 372.625 769.875 L 373.5 769 L 374.75 756.125 Z M 438.5 751.5 C 433.75 754 428.125 756.875 419 756.875 C 411.5 756.875 406.375 754.5 403.375 750 C 401.5 747.375 401.125 744.875 400.625 742.375 L 441 741.625 L 441.75 740.75 C 441.625 734.625 441.5 728.375 439.75 722.125 C 435.375 707.375 425.75 704.375 421.5 703.375 C 418.375 702.5 415.5 702.25 412.625 702.25 C 393 702.25 380 715.125 380 736.75 C 380 742.625 381 748.75 383 753.125 C 390.25 770 407.25 771.5 416.25 771.5 C 426.625 771.5 431.125 769.625 437.75 767 L 438.5 766 L 439.375 751.875 L 438.5 751.5 M 400.625 729.125 C 401 725.25 401.875 720 406.625 717 C 408.125 716 409.875 715.625 411.625 715.625 C 415.75 715.625 418.25 717.75 419.625 720 C 421.375 722.75 421.5 725.75 421.5 728.625 Z M 513 770 C 524.625 770.25 539 770.5 548.375 764 C 556.625 758.125 558.875 749.875 558.875 742.875 C 558.875 734.875 555.5 727.5 548.375 724 C 546 722.75 543.25 722.25 540.625 721.75 C 544.875 720 549.875 717.75 553.125 711.125 C 554.5 708.25 555.125 705.25 555.125 702.375 C 555.125 698.375 554.125 692.875 550.125 688.375 C 544.875 682.75 536.75 681.25 524.5 681.25 C 520.25 681.25 512.625 681.375 508.375 681.5 L 490.875 681.75 L 490.125 682.5 C 490.625 694.5 490.75 699.125 490.75 716.375 C 490.75 734.125 490.625 751.75 490.375 769.5 L 491.25 770 L 513 770 M 512.125 732 C 521.625 731.75 527.125 731.75 530.75 733.875 C 534.375 736.125 535.75 740.125 535.75 744.125 C 535.75 749.75 532.625 753.25 528 754.875 C 524.25 756.125 517.5 756.125 512.125 756 L 512.125 732 M 512.125 695.25 C 514.75 695.25 518.25 695.125 520.375 695.125 C 527.125 695.125 533.25 697.5 533.25 705.625 C 533.25 712.25 528.375 715 526.875 715.75 C 523.75 717.125 517.125 717.125 512.125 717.125 Z M 626 751.5 C 621.25 754 615.625 756.875 606.5 756.875 C 599 756.875 593.875 754.5 590.875 750 C 589 747.375 588.625 744.875 588.125 742.375 L 628.5 741.625 L 629.25 740.75 C 629.125 734.625 629 728.375 627.25 722.125 C 622.875 707.375 613.25 704.375 609 703.375 C 605.875 702.5 603 702.25 600.125 702.25 C 580.5 702.25 567.5 715.125 567.5 736.75 C 567.5 742.625 568.5 748.75 570.5 753.125 C 577.75 770 594.75 771.5 603.75 771.5 C 614.125 771.5 618.625 769.625 625.25 767 L 626 766 L 626.875 751.875 L 626 751.5 M 588.125 729.125 C 588.5 725.25 589.375 720 594.125 717 C 595.625 716 597.375 715.625 599.125 715.625 C 603.25 715.625 605.75 717.75 607.125 720 C 608.875 722.75 609 725.75 609 728.625 Z M 696.375 732.75 C 696.5 721.5 696.5 716.625 693.25 711.375 C 690.75 707.375 685.75 702.375 669.75 702.375 C 659 702.375 652.375 704.375 645.25 706.5 L 644.5 707.5 L 643.875 721.125 L 644.875 721.625 C 649.25 719.875 657.375 716.625 665.75 716.625 C 670.375 716.625 672.25 717.375 673.875 719 C 675.125 720.25 675.5 722.5 675.5 724.375 C 660.5 726.375 653.5 727.75 646 732.375 C 639 736.75 636.625 743.875 636.625 749.5 C 636.625 762.875 646.25 771.5 658.5 771.5 C 667.875 771.5 673.25 767 675.875 764.875 L 675.875 769.5 L 676.625 770.375 C 685.625 770 688.375 769.875 696.5 770 L 697.125 769.125 C 696.25 756.875 696.25 753.75 696.25 742 L 696.375 732.75 M 675.75 752.625 C 673.125 754.125 669.75 755.875 665.625 755.875 C 661.125 755.875 657.375 753.5 657.375 748.25 C 657.375 740 667.25 738.625 675.75 737.5 Z M 759.875 752 C 756.5 754 753.25 756 746.875 756 C 732.75 756 729.875 744.25 729.875 736.75 C 729.875 727.625 733.875 717.125 746 717.125 C 751.5 717.125 754.5 719.125 758.25 721.625 L 759.5 721.25 C 760 714.625 760.125 712.875 761.125 706.25 L 760.5 705.5 C 755 703.75 750.25 702.25 743 702.25 C 713.625 702.25 707.875 724.5 707.875 737.25 C 707.875 751.625 715.375 771.125 743.5 771.125 C 750.125 771.125 754.375 769.875 759.625 768.375 L 760.375 767.625 L 760.875 752.625 Z M 832.125 769.125 C 831.625 758.875 831.5 755.375 831.25 742.375 L 831.25 733 C 831.125 721.125 831 714.25 827.375 709 C 823.75 703.875 818.5 702.25 813 702.25 C 803.875 702.25 796.75 706.625 791.75 709.625 L 792.125 671.125 L 791.375 670.25 L 770 673.625 L 769.375 674.375 C 770.5 686.5 770.75 691 771 707.125 C 771.25 717.25 771.375 727.375 771.375 737.5 C 771.375 749.875 771.125 757.25 770.875 769.5 L 771.5 770.375 C 780.75 769.875 782.625 769.875 792.75 769.875 L 793.5 769.125 C 792.625 750.375 792.5 744.75 792.375 722.625 C 794.75 721 797.75 718.875 802 718.875 C 808.875 718.875 809.375 726 809.875 731 C 810.125 734.875 810.25 752.625 810.25 757.25 C 810.25 761.375 810.125 765.375 810.125 769.5 L 810.75 770.375 C 819.75 769.875 821.75 769.875 831.375 769.875 Z M 838.875 770 "/>
</svg>
