<?xml version="1.0" encoding="UTF-8"?>
<svg xmlns="http://www.w3.org/2000/svg" xmlns:xlink="http://www.w3.org/1999/xlink" width="975" height="1300" viewBox="0 0 975 1300">
<path fill-rule="nonzero" fill="rgb(34.901961%, 14.901961%, 14.901961%)" fill-opacity="1" d="M 116.9375 548.25 L 117.6875 547.625 L 118.5625 532 L 117.9375 531.625 L 56.0625 531.625 L 55.1875 532.375 L 54.3125 547.75 L 54.9375 548.5 L 75.3125 548 C 75.4375 580.75 75.4375 588.625 74.4375 619.625 L 75.1875 620.375 C 84.4375 620 86.9375 619.875 97.3125 619.875 L 98.0625 619.125 C 97.4375 601.625 97.1875 584.125 97.1875 566.5 C 97.1875 559.625 97.3125 555.75 97.5625 547.75 Z M 187.8125 619.125 C 187.3125 608.875 187.1875 605.375 186.9375 592.375 L 186.9375 583 C 186.8125 571.125 186.6875 564.25 183.0625 559 C 179.4375 553.875 174.1875 552.25 168.6875 552.25 C 159.5625 552.25 152.4375 556.625 147.4375 559.625 L 147.8125 521.125 L 147.0625 520.25 L 125.6875 523.625 L 125.0625 524.375 C 126.1875 536.5 126.4375 541 126.6875 557.125 C 126.9375 567.25 127.0625 577.375 127.0625 587.5 C 127.0625 599.875 126.8125 607.25 126.5625 619.5 L 127.1875 620.375 C 136.4375 619.875 138.3125 619.875 148.4375 619.875 L 149.1875 619.125 C 148.3125 600.375 148.1875 594.75 148.0625 572.625 C 150.4375 571 153.4375 568.875 157.6875 568.875 C 164.5625 568.875 165.0625 576 165.5625 581 C 165.8125 584.875 165.9375 602.625 165.9375 607.25 C 165.9375 611.375 165.8125 615.375 165.8125 619.5 L 166.4375 620.375 C 175.4375 619.875 177.4375 619.875 187.0625 619.875 Z M 265.6875 586.75 C 265.6875 581.875 265.6875 561.625 248.1875 554.75 C 242.6875 552.625 236.1875 552.375 232.9375 552.375 C 211.1875 552.375 198.9375 564 198.9375 587 C 198.9375 595 200.1875 603.125 204.8125 609.875 C 208.0625 614.75 214.1875 621.5 232.0625 621.5 C 258.5625 621.5 265.6875 605.5 265.6875 586.75 M 244.0625 586.625 C 244.0625 596.875 242.6875 608.25 232.3125 608.25 C 229.0625 608.25 226.8125 606.75 225.3125 605.375 C 223.1875 603.25 220.8125 599 220.8125 586.875 C 220.8125 583.25 220.8125 575.25 223.3125 570.875 C 225.1875 567.5 228.4375 565.25 232.4375 565.25 C 235.9375 565.25 238.8125 567.125 240.4375 569.125 C 243.4375 572.75 244.0625 579.875 244.0625 586.625 Z M 313.6875 573.625 L 317.1875 553.25 L 316.4375 552.375 C 315.5625 552.375 314.6875 552.25 313.8125 552.25 C 308.6875 552.25 302.9375 555.125 298.9375 564.375 L 299.3125 552.875 L 298.3125 551.875 C 289.0625 553.875 286.6875 554.25 277.5625 555.625 L 276.8125 556.375 C 277.5625 565.75 277.9375 571.375 277.9375 588.75 C 277.9375 599 277.8125 609.25 277.5625 619.625 L 278.3125 620.375 C 287.5625 620 289.5625 619.875 299.5625 620 L 300.1875 619.125 C 299.6875 609 298.9375 594.875 298.9375 586.25 C 298.9375 580.625 298.9375 572.375 307.4375 572.375 C 309.5625 572.375 310.8125 573.125 312.5625 574.125 Z M 385.6875 619.125 C 385.0625 608.125 385.0625 604.625 384.8125 592.375 L 384.8125 582.625 C 384.6875 570.625 384.5625 564.875 381.4375 559.75 C 377.5625 553.25 370.4375 552.25 365.9375 552.25 C 358.3125 552.25 351.6875 556.25 345.9375 559.625 L 346.1875 552.75 L 344.9375 551.875 C 335.3125 553.875 333.1875 554.25 323.8125 555.5 L 323.0625 556.375 C 324.0625 567.25 324.8125 575.125 324.8125 595.5 C 324.8125 603.5 324.6875 611.5 324.5625 619.5 L 325.3125 620.25 C 334.3125 619.875 336.1875 619.875 346.1875 619.875 L 346.9375 619.125 C 346.1875 599.875 346.0625 595 345.9375 572.625 C 348.5625 570.875 351.5625 568.75 355.5625 568.75 C 362.4375 568.75 363.0625 576.125 363.4375 580.625 C 363.6875 584.75 363.8125 601.875 363.8125 606.625 C 363.8125 610.875 363.6875 615.25 363.6875 619.5 L 364.4375 620.25 C 372.6875 620 374.8125 619.875 384.8125 619.875 Z M 434.9375 605.625 C 432.8125 606.25 431.3125 606.75 429.1875 606.75 C 422.8125 606.75 422.3125 602.75 422.0625 600.875 C 421.6875 597.625 421.6875 590.75 421.8125 585.75 L 422.0625 568.125 L 433.3125 568.625 L 434.0625 567.875 L 435.3125 554.5 L 434.5625 553.75 L 422.0625 553.75 L 422.4375 532.75 L 421.5625 532 C 413.0625 534.5 410.8125 535.125 401.9375 537.375 L 401.4375 538.25 L 401.5625 553.875 L 394.8125 553.625 L 394.0625 554.25 L 392.9375 567.625 L 393.6875 568.375 L 401.5625 568.125 L 401.1875 588 C 401.0625 591.125 400.9375 594.25 400.9375 597.5 C 400.9375 609 401.1875 621.375 420.6875 621.375 C 425.5625 621.375 429.4375 620.625 433.8125 619.875 L 434.6875 619 L 435.9375 606.125 Z M 507.8125 586.75 C 507.8125 581.875 507.8125 561.625 490.3125 554.75 C 484.8125 552.625 478.3125 552.375 475.0625 552.375 C 453.3125 552.375 441.0625 564 441.0625 587 C 441.0625 595 442.3125 603.125 446.9375 609.875 C 450.1875 614.75 456.3125 621.5 474.1875 621.5 C 500.6875 621.5 507.8125 605.5 507.8125 586.75 M 486.1875 586.625 C 486.1875 596.875 484.8125 608.25 474.4375 608.25 C 471.1875 608.25 468.9375 606.75 467.4375 605.375 C 465.3125 603.25 462.9375 599 462.9375 586.875 C 462.9375 583.25 462.9375 575.25 465.4375 570.875 C 467.3125 567.5 470.5625 565.25 474.5625 565.25 C 478.0625 565.25 480.9375 567.125 482.5625 569.125 C 485.5625 572.75 486.1875 579.875 486.1875 586.625 Z M 580.9375 619.125 C 580.3125 608.125 580.3125 604.625 580.0625 592.375 L 580.0625 582.625 C 579.9375 570.625 579.8125 564.875 576.6875 559.75 C 572.8125 553.25 565.6875 552.25 561.1875 552.25 C 553.5625 552.25 546.9375 556.25 541.1875 559.625 L 541.4375 552.75 L 540.1875 551.875 C 530.5625 553.875 528.4375 554.25 519.0625 555.5 L 518.3125 556.375 C 519.3125 567.25 520.0625 575.125 520.0625 595.5 C 520.0625 603.5 519.9375 611.5 519.8125 619.5 L 520.5625 620.25 C 529.5625 619.875 531.4375 619.875 541.4375 619.875 L 542.1875 619.125 C 541.4375 599.875 541.3125 595 541.1875 572.625 C 543.8125 570.875 546.8125 568.75 550.8125 568.75 C 557.6875 568.75 558.3125 576.125 558.6875 580.625 C 558.9375 584.75 559.0625 601.875 559.0625 606.625 C 559.0625 610.875 558.9375 615.25 558.9375 619.5 L 559.6875 620.25 C 567.9375 620 570.0625 619.875 580.0625 619.875 Z M 667.8125 566.25 C 657.3125 561.875 651.8125 559.625 651.8125 554 C 651.8125 550.125 655.4375 545.25 663.6875 545.25 C 673.1875 545.25 678.8125 549.125 683.4375 552.25 L 684.5625 551.75 L 685.5625 535.375 L 684.9375 534.5 C 679.5625 532.25 673.9375 529.875 661.8125 529.875 C 638.3125 529.875 630.1875 543.125 630.1875 556.5 C 630.1875 571.625 641.9375 577.125 648.9375 580.5 L 653.0625 582.375 C 661.6875 586 668.3125 589.125 668.3125 595.75 C 668.3125 600.5 664.1875 606.125 653.3125 606.125 C 641.9375 606.125 635.5625 601.125 631.9375 598.25 L 630.6875 598.625 L 629.8125 616.25 L 630.5625 617.25 C 631.9375 617.75 633.3125 618.375 634.6875 618.75 C 637.5625 619.75 644.9375 621.875 654.3125 621.875 C 658.0625 621.875 667.5625 621.5 675.0625 618 C 685.5625 612.875 690.0625 603.375 690.0625 592.75 C 690.0625 585.625 687.3125 578 680.6875 572.875 C 677.3125 570.375 674.0625 568.875 671.0625 567.5 Z M 736.9375 605.625 C 734.8125 606.25 733.3125 606.75 731.1875 606.75 C 724.8125 606.75 724.3125 602.75 724.0625 600.875 C 723.6875 597.625 723.6875 590.75 723.8125 585.75 L 724.0625 568.125 L 735.3125 568.625 L 736.0625 567.875 L 737.3125 554.5 L 736.5625 553.75 L 724.0625 553.75 L 724.4375 532.75 L 723.5625 532 C 715.0625 534.5 712.8125 535.125 703.9375 537.375 L 703.4375 538.25 L 703.5625 553.875 L 696.8125 553.625 L 696.0625 554.25 L 694.9375 567.625 L 695.6875 568.375 L 703.5625 568.125 L 703.1875 588 C 703.0625 591.125 702.9375 594.25 702.9375 597.5 C 702.9375 609 703.1875 621.375 722.6875 621.375 C 727.5625 621.375 731.4375 620.625 735.8125 619.875 L 736.6875 619 L 737.9375 606.125 Z M 801.8125 582.75 C 801.9375 571.5 801.9375 566.625 798.6875 561.375 C 796.1875 557.375 791.1875 552.375 775.1875 552.375 C 764.4375 552.375 757.8125 554.375 750.6875 556.5 L 749.9375 557.5 L 749.3125 571.125 L 750.3125 571.625 C 754.6875 569.875 762.8125 566.625 771.1875 566.625 C 775.8125 566.625 777.6875 567.375 779.3125 569 C 780.5625 570.25 780.9375 572.5 780.9375 574.375 C 765.9375 576.375 758.9375 577.75 751.4375 582.375 C 744.4375 586.75 742.0625 593.875 742.0625 599.5 C 742.0625 612.875 751.6875 621.5 763.9375 621.5 C 773.3125 621.5 778.6875 617 781.3125 614.875 L 781.3125 619.5 L 782.0625 620.375 C 791.0625 620 793.8125 619.875 801.9375 620 L 802.5625 619.125 C 801.6875 606.875 801.6875 603.75 801.6875 592 L 801.8125 582.75 M 781.1875 602.625 C 778.5625 604.125 775.1875 605.875 771.0625 605.875 C 766.5625 605.875 762.8125 603.5 762.8125 598.25 C 762.8125 590 772.6875 588.625 781.1875 587.5 Z M 851.4375 605.625 C 849.3125 606.25 847.8125 606.75 845.6875 606.75 C 839.3125 606.75 838.8125 602.75 838.5625 600.875 C 838.1875 597.625 838.1875 590.75 838.3125 585.75 L 838.5625 568.125 L 849.8125 568.625 L 850.5625 567.875 L 851.8125 554.5 L 851.0625 553.75 L 838.5625 553.75 L 838.9375 532.75 L 838.0625 532 C 829.5625 534.5 827.3125 535.125 818.4375 537.375 L 817.9375 538.25 L 818.0625 553.875 L 811.3125 553.625 L 810.5625 554.25 L 809.4375 567.625 L 810.1875 568.375 L 818.0625 568.125 L 817.6875 588 C 817.5625 591.125 817.4375 594.25 817.4375 597.5 C 817.4375 609 817.6875 621.375 837.1875 621.375 C 842.0625 621.375 845.9375 620.625 850.3125 619.875 L 851.1875 619 L 852.4375 606.125 Z M 916.1875 601.5 C 911.4375 604 905.8125 606.875 896.6875 606.875 C 889.1875 606.875 884.0625 604.5 881.0625 600 C 879.1875 597.375 878.8125 594.875 878.3125 592.375 L 918.6875 591.625 L 919.4375 590.75 C 919.3125 584.625 919.1875 578.375 917.4375 572.125 C 913.0625 557.375 903.4375 554.375 899.1875 553.375 C 896.0625 552.5 893.1875 552.25 890.3125 552.25 C 870.6875 552.25 857.6875 565.125 857.6875 586.75 C 857.6875 592.625 858.6875 598.75 860.6875 603.125 C 867.9375 620 884.9375 621.5 893.9375 621.5 C 904.3125 621.5 908.8125 619.625 915.4375 617 L 916.1875 616 L 917.0625 601.875 L 916.1875 601.5 M 878.3125 579.125 C 878.6875 575.25 879.5625 570 884.3125 567 C 885.8125 566 887.5625 565.625 889.3125 565.625 C 893.4375 565.625 895.9375 567.75 897.3125 570 C 899.0625 572.75 899.1875 575.75 899.1875 578.625 Z M 923.4375 620 "/>
<path fill-rule="nonzero" fill="rgb(34.901961%, 14.901961%, 14.901961%)" fill-opacity="1" d="M 346.25 770 C 357.875 770.25 372.25 770.5 381.625 764 C 389.875 758.125 392.125 749.875 392.125 742.875 C 392.125 734.875 388.75 727.5 381.625 724 C 379.25 722.75 376.5 722.25 373.875 721.75 C 378.125 720 383.125 717.75 386.375 711.125 C 387.75 708.25 388.375 705.25 388.375 702.375 C 388.375 698.375 387.375 692.875 383.375 688.375 C 378.125 682.75 370 681.25 357.75 681.25 C 353.5 681.25 345.875 681.375 341.625 681.5 L 324.125 681.75 L 323.375 682.5 C 323.875 694.5 324 699.125 324 716.375 C 324 734.125 323.875 751.75 323.625 769.5 L 324.5 770 L 346.25 770 M 345.375 732 C 354.875 731.75 360.375 731.75 364 733.875 C 367.625 736.125 369 740.125 369 744.125 C 369 749.75 365.875 753.25 361.25 754.875 C 357.5 756.125 350.75 756.125 345.375 756 L 345.375 732 M 345.375 695.25 C 348 695.25 351.5 695.125 353.625 695.125 C 360.375 695.125 366.5 697.5 366.5 705.625 C 366.5 712.25 361.625 715 360.125 715.75 C 357 717.125 350.375 717.125 345.375 717.125 Z M 459.25 751.5 C 454.5 754 448.875 756.875 439.75 756.875 C 432.25 756.875 427.125 754.5 424.125 750 C 422.25 747.375 421.875 744.875 421.375 742.375 L 461.75 741.625 L 462.5 740.75 C 462.375 734.625 462.25 728.375 460.5 722.125 C 456.125 707.375 446.5 704.375 442.25 703.375 C 439.125 702.5 436.25 702.25 433.375 702.25 C 413.75 702.25 400.75 715.125 400.75 736.75 C 400.75 742.625 401.75 748.75 403.75 753.125 C 411 770 428 771.5 437 771.5 C 447.375 771.5 451.875 769.625 458.5 767 L 459.25 766 L 460.125 751.875 L 459.25 751.5 M 421.375 729.125 C 421.75 725.25 422.625 720 427.375 717 C 428.875 716 430.625 715.625 432.375 715.625 C 436.5 715.625 439 717.75 440.375 720 C 442.125 722.75 442.25 725.75 442.25 728.625 Z M 529.625 732.75 C 529.75 721.5 529.75 716.625 526.5 711.375 C 524 707.375 519 702.375 503 702.375 C 492.25 702.375 485.625 704.375 478.5 706.5 L 477.75 707.5 L 477.125 721.125 L 478.125 721.625 C 482.5 719.875 490.625 716.625 499 716.625 C 503.625 716.625 505.5 717.375 507.125 719 C 508.375 720.25 508.75 722.5 508.75 724.375 C 493.75 726.375 486.75 727.75 479.25 732.375 C 472.25 736.75 469.875 743.875 469.875 749.5 C 469.875 762.875 479.5 771.5 491.75 771.5 C 501.125 771.5 506.5 767 509.125 764.875 L 509.125 769.5 L 509.875 770.375 C 518.875 770 521.625 769.875 529.75 770 L 530.375 769.125 C 529.5 756.875 529.5 753.75 529.5 742 L 529.625 732.75 M 509 752.625 C 506.375 754.125 503 755.875 498.875 755.875 C 494.375 755.875 490.625 753.5 490.625 748.25 C 490.625 740 500.5 738.625 509 737.5 Z M 593.125 752 C 589.75 754 586.5 756 580.125 756 C 566 756 563.125 744.25 563.125 736.75 C 563.125 727.625 567.125 717.125 579.25 717.125 C 584.75 717.125 587.75 719.125 591.5 721.625 L 592.75 721.25 C 593.25 714.625 593.375 712.875 594.375 706.25 L 593.75 705.5 C 588.25 703.75 583.5 702.25 576.25 702.25 C 546.875 702.25 541.125 724.5 541.125 737.25 C 541.125 751.625 548.625 771.125 576.75 771.125 C 583.375 771.125 587.625 769.875 592.875 768.375 L 593.625 767.625 L 594.125 752.625 Z M 665.375 769.125 C 664.875 758.875 664.75 755.375 664.5 742.375 L 664.5 733 C 664.375 721.125 664.25 714.25 660.625 709 C 657 703.875 651.75 702.25 646.25 702.25 C 637.125 702.25 630 706.625 625 709.625 L 625.375 671.125 L 624.625 670.25 L 603.25 673.625 L 602.625 674.375 C 603.75 686.5 604 691 604.25 707.125 C 604.5 717.25 604.625 727.375 604.625 737.5 C 604.625 749.875 604.375 757.25 604.125 769.5 L 604.75 770.375 C 614 769.875 615.875 769.875 626 769.875 L 626.75 769.125 C 625.875 750.375 625.75 744.75 625.625 722.625 C 628 721 631 718.875 635.25 718.875 C 642.125 718.875 642.625 726 643.125 731 C 643.375 734.875 643.5 752.625 643.5 757.25 C 643.5 761.375 643.375 765.375 643.375 769.5 L 644 770.375 C 653 769.875 655 769.875 664.625 769.875 Z M 672.125 770 "/>
</svg>
