<?xml version="1.0" encoding="UTF-8"?>
<svg xmlns="http://www.w3.org/2000/svg" xmlns:xlink="http://www.w3.org/1999/xlink" width="975" height="1300" viewBox="0 0 975 1300">
<path fill-rule="nonzero" fill="rgb(34.901961%, 14.901961%, 14.901961%)" fill-opacity="1" d="M 199.375 545 C 211 545.25 225.375 545.5 234.75 539 C 243 533.125 245.25 524.875 245.25 517.875 C 245.25 509.875 241.875 502.5 234.75 499 C 232.375 497.75 229.625 497.25 227 496.75 C 231.25 495 236.25 492.75 239.5 486.125 C 240.875 483.25 241.5 480.25 241.5 477.375 C 241.5 473.375 240.5 467.875 236.5 463.375 C 231.25 457.75 223.125 456.25 210.875 456.25 C 206.625 456.25 199 456.375 194.75 456.5 L 177.25 456.75 L 176.5 457.5 C 177 469.5 177.125 474.125 177.125 491.375 C 177.125 509.125 177 526.75 176.75 544.5 L 177.625 545 L 199.375 545 M 198.5 507 C 208 506.75 213.5 506.75 217.125 508.875 C 220.75 511.125 222.125 515.125 222.125 519.125 C 222.125 524.75 219 528.25 214.375 529.875 C 210.625 531.125 203.875 531.125 198.5 531 L 198.5 507 M 198.5 470.25 C 201.125 470.25 204.625 470.125 206.75 470.125 C 213.5 470.125 219.625 472.5 219.625 480.625 C 219.625 487.25 214.75 490 213.25 490.75 C 210.125 492.125 203.5 492.125 198.5 492.125 Z M 316.875 478.125 L 296.5 479.125 L 295.625 479.875 C 296.5 494 296.5 514 296.5 516 C 296.5 519.625 296.5 521.625 296.375 526.625 C 293 528.875 290.375 530.75 287 530.75 C 278 530.75 278 521.25 278 513.875 C 278 510.75 278 507.5 278.125 504.375 L 278.375 479.125 L 277.5 478.125 L 256.875 479.125 L 256 479.875 C 256.75 490.375 256.875 493.875 256.875 506.5 L 256.875 515.25 C 256.75 528.875 257.375 534.625 261.875 539.875 C 266 544.5 272 546.5 278.25 546.5 C 287.125 546.5 292.25 542.5 296.75 539 L 296.625 544.625 L 297.5 545.375 C 306.625 545 309.375 545 317.5 545 L 318.25 544.25 C 317.625 535.375 317.375 530.625 317.375 514.375 C 317.375 502.625 317.5 490.875 317.75 479.125 Z M 368.5 498.625 L 372 478.25 L 371.25 477.375 C 370.375 477.375 369.5 477.25 368.625 477.25 C 363.5 477.25 357.75 480.125 353.75 489.375 L 354.125 477.875 L 353.125 476.875 C 343.875 478.875 341.5 479.25 332.375 480.625 L 331.625 481.375 C 332.375 490.75 332.75 496.375 332.75 513.75 C 332.75 524 332.625 534.25 332.375 544.625 L 333.125 545.375 C 342.375 545 344.375 544.875 354.375 545 L 355 544.125 C 354.5 534 353.75 519.875 353.75 511.25 C 353.75 505.625 353.75 497.375 362.25 497.375 C 364.375 497.375 365.625 498.125 367.375 499.125 Z M 401.25 544.125 C 400.625 529.75 400 516.625 400 477.125 C 400 465.25 400.125 459.625 400.625 446.125 L 399.75 445.25 L 378.375 448.625 L 377.875 449.375 C 379.125 464.625 379.25 468.75 379.5 489 C 379.625 496.375 379.625 503.75 379.625 511.125 C 379.625 524.625 379.375 532.125 378.875 544.5 L 379.625 545.375 C 388 545 391.375 544.875 400.5 545 Z M 471.25 526.5 C 466.5 529 460.875 531.875 451.75 531.875 C 444.25 531.875 439.125 529.5 436.125 525 C 434.25 522.375 433.875 519.875 433.375 517.375 L 473.75 516.625 L 474.5 515.75 C 474.375 509.625 474.25 503.375 472.5 497.125 C 468.125 482.375 458.5 479.375 454.25 478.375 C 451.125 477.5 448.25 477.25 445.375 477.25 C 425.75 477.25 412.75 490.125 412.75 511.75 C 412.75 517.625 413.75 523.75 415.75 528.125 C 423 545 440 546.5 449 546.5 C 459.375 546.5 463.875 544.625 470.5 542 L 471.25 541 L 472.125 526.875 L 471.25 526.5 M 433.375 504.125 C 433.75 500.25 434.625 495 439.375 492 C 440.875 491 442.625 490.625 444.375 490.625 C 448.5 490.625 451 492.75 452.375 495 C 454.125 497.75 454.25 500.75 454.25 503.625 Z M 508.625 544.125 C 508 534.5 507.5 527.125 507.5 509.875 C 507.5 499.25 507.75 488.5 507.875 477.875 L 507 476.875 L 485.5 480.625 L 484.75 481.375 C 485.75 490.875 486.125 495.25 486.125 513 C 486.125 526.625 485.75 534.25 485.375 544.5 L 486.125 545.375 C 495.125 545 497.625 544.875 507.75 545 L 508.625 544.125 M 506.625 464.875 L 507 447.875 L 506.25 447.125 L 485.875 449.625 L 485.125 450.5 C 485.375 455 485.5 457.625 485.5 460.625 C 485.5 463 485.5 465.5 485.375 467.875 L 486.25 468.625 C 494.75 467.125 497.125 466.875 506 465.75 Z M 545.5 523.875 C 549.5 524 553.5 524.25 559.5 522.25 C 566 520 575.5 514.625 575.5 502.5 C 575.5 496.5 573.75 494 572.125 491.625 L 580.75 492.125 L 581.5 491.5 L 582.375 479 L 581.625 478.375 C 572 478.75 569.375 478.875 561.5 478.75 L 555.75 478.625 C 546.875 478.375 535 478.125 526.875 484.875 C 524.125 487 518.875 492.375 518.875 501.75 C 518.875 506.75 520.25 510.75 522.5 513.875 C 525.25 517.75 527.75 519.125 530.875 520.875 C 527.375 527.625 525.5 531 522.625 536.125 L 522.625 537.25 L 527.875 541 C 524.125 543.875 518.25 548.625 518.25 556.75 C 518.25 562.5 521.375 567.5 526 570.875 C 533 575.875 542.5 576.125 547.375 576.125 C 570.25 576.125 580.75 564.625 580.75 552.5 C 580.75 536.75 567 533.75 558.875 531.875 L 555.875 531.375 C 549.75 530.375 548.375 530 543.5 528.25 L 545.5 523.875 M 555.75 501.375 C 555.625 511.5 549.5 512.375 547.75 512.375 C 546.75 512.375 542.375 512.125 540.25 507.125 C 539.125 504.5 539.125 501.5 539.125 500.625 C 539.125 494.375 542.875 490.375 547.5 490.375 C 553.25 490.375 555.875 495.875 555.75 501.375 M 545.125 548 C 556.25 550.875 556.375 550.875 557.875 552.125 C 559.125 553 560.375 554.375 560.375 557 C 560.375 560.75 557.25 564.625 549 564.625 C 539.75 564.625 536.625 559.375 536.625 555 C 536.625 550.875 538.75 548.5 540.25 546.75 Z M 651.5 544.125 C 651 533.875 650.875 530.375 650.625 517.375 L 650.625 508 C 650.5 496.125 650.375 489.25 646.75 484 C 643.125 478.875 637.875 477.25 632.375 477.25 C 623.25 477.25 616.125 481.625 611.125 484.625 L 611.5 446.125 L 610.75 445.25 L 589.375 448.625 L 588.75 449.375 C 589.875 461.5 590.125 466 590.375 482.125 C 590.625 492.25 590.75 502.375 590.75 512.5 C 590.75 524.875 590.5 532.25 590.25 544.5 L 590.875 545.375 C 600.125 544.875 602 544.875 612.125 544.875 L 612.875 544.125 C 612 525.375 611.875 519.75 611.75 497.625 C 614.125 496 617.125 493.875 621.375 493.875 C 628.25 493.875 628.75 501 629.25 506 C 629.5 509.875 629.625 527.625 629.625 532.25 C 629.625 536.375 629.5 540.375 629.5 544.5 L 630.125 545.375 C 639.125 544.875 641.125 544.875 650.75 544.875 Z M 777.125 456.375 C 767.125 456.75 765.5 456.75 755 456.75 L 754.375 457.5 C 755.25 471.625 755.25 475.25 755.375 490 C 749.875 490.125 744.375 490.25 738.75 490.25 C 734.375 490.25 729.875 490.125 725.5 490.125 L 725.75 457.125 L 725.125 456.375 C 715.5 456.75 713.625 456.75 702.75 456.75 L 702 457.5 C 702.625 470.375 703.375 485.75 703.375 516.75 C 703.375 528 703.125 534.125 702.875 544.625 L 703.5 545.375 C 712.625 545 714.875 544.875 725.875 545 L 726.5 544.25 C 725.75 528.75 725.625 524.25 725.5 506.125 C 731 505.875 735.625 505.75 740.5 505.75 C 745.5 505.75 750.5 505.875 755.5 506 C 755.75 522.875 755.75 527 755.125 544.625 L 755.75 545.375 C 765.125 545 767.625 544.875 778.25 545 L 778.875 544.25 C 777.875 523.25 777.5 502.375 777.5 481.375 C 777.5 472.625 777.625 466.75 777.75 457.125 Z M 811.375 525.75 L 791.375 526.125 L 790.75 527.125 L 791 544.5 L 791.625 545.375 L 811.625 544.875 L 812.25 544.125 L 812 526.5 Z M 817.125 545 "/>
<path fill-rule="nonzero" fill="rgb(34.901961%, 14.901961%, 14.901961%)" fill-opacity="1" d="M 190.1875 606.375 C 177.1875 606.75 175.0625 606.75 161.1875 606.75 L 160.4375 607.5 L 154.6875 627.75 L 149.6875 645.875 L 143.8125 667.625 L 138.3125 645.25 L 134.8125 631.125 L 128.5625 607.125 L 127.9375 606.375 C 114.5625 606.75 112.3125 606.75 98.3125 606.75 L 97.5625 607.5 C 96.3125 644.875 95.8125 654.5 93.0625 694.625 L 93.6875 695.375 C 101.6875 695 104.0625 694.875 111.3125 695 L 112.0625 694.25 L 112.4375 670.375 L 113.1875 646.125 L 113.6875 622.5 L 119.1875 644.625 L 123.9375 662.375 L 132.3125 694.625 L 133.0625 695.375 C 140.8125 695 142.9375 694.875 151.6875 695 L 152.4375 694.25 L 159.6875 667.625 L 164.6875 649.375 L 171.6875 623.125 L 171.6875 645.5 L 171.9375 664.625 L 171.9375 694.625 L 172.5625 695.375 C 181.1875 695 184.5625 694.875 194.1875 695 L 194.8125 694.25 C 194.0625 680 193.1875 665.625 192.6875 651.25 C 192.3125 643.375 192.0625 635.5 191.6875 627.625 C 191.0625 616 190.9375 614.5 190.9375 607.125 Z M 268.9375 628.125 L 248.5625 629.125 L 247.6875 629.875 C 248.5625 644 248.5625 664 248.5625 666 C 248.5625 669.625 248.5625 671.625 248.4375 676.625 C 245.0625 678.875 242.4375 680.75 239.0625 680.75 C 230.0625 680.75 230.0625 671.25 230.0625 663.875 C 230.0625 660.75 230.0625 657.5 230.1875 654.375 L 230.4375 629.125 L 229.5625 628.125 L 208.9375 629.125 L 208.0625 629.875 C 208.8125 640.375 208.9375 643.875 208.9375 656.5 L 208.9375 665.25 C 208.8125 678.875 209.4375 684.625 213.9375 689.875 C 218.0625 694.5 224.0625 696.5 230.3125 696.5 C 239.1875 696.5 244.3125 692.5 248.8125 689 L 248.6875 694.625 L 249.5625 695.375 C 258.6875 695 261.4375 695 269.5625 695 L 270.3125 694.25 C 269.6875 685.375 269.4375 680.625 269.4375 664.375 C 269.4375 652.625 269.5625 640.875 269.8125 629.125 Z M 320.5625 648.625 L 324.0625 628.25 L 323.3125 627.375 C 322.4375 627.375 321.5625 627.25 320.6875 627.25 C 315.5625 627.25 309.8125 630.125 305.8125 639.375 L 306.1875 627.875 L 305.1875 626.875 C 295.9375 628.875 293.5625 629.25 284.4375 630.625 L 283.6875 631.375 C 284.4375 640.75 284.8125 646.375 284.8125 663.75 C 284.8125 674 284.6875 684.25 284.4375 694.625 L 285.1875 695.375 C 294.4375 695 296.4375 694.875 306.4375 695 L 307.0625 694.125 C 306.5625 684 305.8125 669.875 305.8125 661.25 C 305.8125 655.625 305.8125 647.375 314.3125 647.375 C 316.4375 647.375 317.6875 648.125 319.4375 649.125 Z M 367.4375 648.625 L 370.9375 628.25 L 370.1875 627.375 C 369.3125 627.375 368.4375 627.25 367.5625 627.25 C 362.4375 627.25 356.6875 630.125 352.6875 639.375 L 353.0625 627.875 L 352.0625 626.875 C 342.8125 628.875 340.4375 629.25 331.3125 630.625 L 330.5625 631.375 C 331.3125 640.75 331.6875 646.375 331.6875 663.75 C 331.6875 674 331.5625 684.25 331.3125 694.625 L 332.0625 695.375 C 341.3125 695 343.3125 694.875 353.3125 695 L 353.9375 694.125 C 353.4375 684 352.6875 669.875 352.6875 661.25 C 352.6875 655.625 352.6875 647.375 361.1875 647.375 C 363.3125 647.375 364.5625 648.125 366.3125 649.125 Z M 433.8125 657.75 C 433.9375 646.5 433.9375 641.625 430.6875 636.375 C 428.1875 632.375 423.1875 627.375 407.1875 627.375 C 396.4375 627.375 389.8125 629.375 382.6875 631.5 L 381.9375 632.5 L 381.3125 646.125 L 382.3125 646.625 C 386.6875 644.875 394.8125 641.625 403.1875 641.625 C 407.8125 641.625 409.6875 642.375 411.3125 644 C 412.5625 645.25 412.9375 647.5 412.9375 649.375 C 397.9375 651.375 390.9375 652.75 383.4375 657.375 C 376.4375 661.75 374.0625 668.875 374.0625 674.5 C 374.0625 687.875 383.6875 696.5 395.9375 696.5 C 405.3125 696.5 410.6875 692 413.3125 689.875 L 413.3125 694.5 L 414.0625 695.375 C 423.0625 695 425.8125 694.875 433.9375 695 L 434.5625 694.125 C 433.6875 681.875 433.6875 678.75 433.6875 667 L 433.8125 657.75 M 413.1875 677.625 C 410.5625 679.125 407.1875 680.875 403.0625 680.875 C 398.5625 680.875 394.8125 678.5 394.8125 673.25 C 394.8125 665 404.6875 663.625 413.1875 662.5 Z M 504.3125 628.375 L 486.9375 628.75 L 485.9375 629.625 C 483.8125 638.25 483.3125 640.125 480.3125 649.875 L 477.0625 660.625 L 474.3125 670 L 471.9375 661.125 L 468.3125 647.875 L 463.3125 628.875 L 462.3125 628.125 C 452.5625 628.875 450.4375 629 440.1875 629.25 L 439.5625 630.125 C 444.0625 642 455.6875 673.375 463.4375 697.375 C 458.3125 710.375 457.3125 712.625 451.6875 725 L 452.3125 726 C 455.4375 725.875 458.9375 725.75 462.1875 725.75 C 465.3125 725.75 468.5625 725.875 471.6875 725.875 L 472.5625 725.125 C 479.4375 698.125 482.8125 687.625 499.3125 644.125 C 501.1875 639.125 503.0625 634.25 504.8125 629.375 Z M 575.6875 660.625 C 584.0625 674.875 585.9375 678.625 593.9375 695 L 594.9375 695.625 C 598.8125 695.375 602.5625 695.125 606.4375 695 C 610.3125 694.875 614.3125 694.75 618.1875 694.75 L 618.9375 693.25 C 614.1875 687.125 612.8125 685.25 603.8125 670.875 C 599.8125 664.5 597.8125 661.125 594.6875 655.625 C 600.3125 653.125 611.6875 647.875 611.6875 632 C 611.6875 626.5 610.1875 615.125 599.9375 609.75 C 593.4375 606.375 586.6875 606.25 572.0625 606.5 L 563.3125 606.625 L 548.0625 606.625 L 547.4375 607.375 C 547.9375 620 548.4375 633 548.4375 667 C 548.4375 678.625 548.3125 684.25 547.9375 694.625 L 548.6875 695.375 C 557.8125 695 559.8125 694.875 570.0625 695 L 570.8125 694.25 C 569.8125 679.75 569.6875 675.75 569.5625 660.875 L 575.6875 660.625 M 569.8125 621.75 C 571.5625 621.625 573.3125 621.625 575.0625 621.625 C 579.9375 621.625 589.5625 621.625 589.5625 632.625 C 589.5625 636.125 588.6875 640.75 584.0625 643.625 C 580.5625 645.75 576.0625 646 569.8125 646.125 Z M 681.1875 657.75 C 681.3125 646.5 681.3125 641.625 678.0625 636.375 C 675.5625 632.375 670.5625 627.375 654.5625 627.375 C 643.8125 627.375 637.1875 629.375 630.0625 631.5 L 629.3125 632.5 L 628.6875 646.125 L 629.6875 646.625 C 634.0625 644.875 642.1875 641.625 650.5625 641.625 C 655.1875 641.625 657.0625 642.375 658.6875 644 C 659.9375 645.25 660.3125 647.5 660.3125 649.375 C 645.3125 651.375 638.3125 652.75 630.8125 657.375 C 623.8125 661.75 621.4375 668.875 621.4375 674.5 C 621.4375 687.875 631.0625 696.5 643.3125 696.5 C 652.6875 696.5 658.0625 692 660.6875 689.875 L 660.6875 694.5 L 661.4375 695.375 C 670.4375 695 673.1875 694.875 681.3125 695 L 681.9375 694.125 C 681.0625 681.875 681.0625 678.75 681.0625 667 L 681.1875 657.75 M 660.5625 677.625 C 657.9375 679.125 654.5625 680.875 650.4375 680.875 C 645.9375 680.875 642.1875 678.5 642.1875 673.25 C 642.1875 665 652.0625 663.625 660.5625 662.5 Z M 757.0625 694.125 C 756.4375 683.125 756.4375 679.625 756.1875 667.375 L 756.1875 657.625 C 756.0625 645.625 755.9375 639.875 752.8125 634.75 C 748.9375 628.25 741.8125 627.25 737.3125 627.25 C 729.6875 627.25 723.0625 631.25 717.3125 634.625 L 717.5625 627.75 L 716.3125 626.875 C 706.6875 628.875 704.5625 629.25 695.1875 630.5 L 694.4375 631.375 C 695.4375 642.25 696.1875 650.125 696.1875 670.5 C 696.1875 678.5 696.0625 686.5 695.9375 694.5 L 696.6875 695.25 C 705.6875 694.875 707.5625 694.875 717.5625 694.875 L 718.3125 694.125 C 717.5625 674.875 717.4375 670 717.3125 647.625 C 719.9375 645.875 722.9375 643.75 726.9375 643.75 C 733.8125 643.75 734.4375 651.125 734.8125 655.625 C 735.0625 659.75 735.1875 676.875 735.1875 681.625 C 735.1875 685.875 735.0625 690.25 735.0625 694.5 L 735.8125 695.25 C 744.0625 695 746.1875 694.875 756.1875 694.875 Z M 820.1875 677 C 816.8125 679 813.5625 681 807.1875 681 C 793.0625 681 790.1875 669.25 790.1875 661.75 C 790.1875 652.625 794.1875 642.125 806.3125 642.125 C 811.8125 642.125 814.8125 644.125 818.5625 646.625 L 819.8125 646.25 C 820.3125 639.625 820.4375 637.875 821.4375 631.25 L 820.8125 630.5 C 815.3125 628.75 810.5625 627.25 803.3125 627.25 C 773.9375 627.25 768.1875 649.5 768.1875 662.25 C 768.1875 676.625 775.6875 696.125 803.8125 696.125 C 810.4375 696.125 814.6875 694.875 819.9375 693.375 L 820.6875 692.625 L 821.1875 677.625 Z M 892.4375 694.125 C 891.9375 683.875 891.8125 680.375 891.5625 667.375 L 891.5625 658 C 891.4375 646.125 891.3125 639.25 887.6875 634 C 884.0625 628.875 878.8125 627.25 873.3125 627.25 C 864.1875 627.25 857.0625 631.625 852.0625 634.625 L 852.4375 596.125 L 851.6875 595.25 L 830.3125 598.625 L 829.6875 599.375 C 830.8125 611.5 831.0625 616 831.3125 632.125 C 831.5625 642.25 831.6875 652.375 831.6875 662.5 C 831.6875 674.875 831.4375 682.25 831.1875 694.5 L 831.8125 695.375 C 841.0625 694.875 842.9375 694.875 853.0625 694.875 L 853.8125 694.125 C 852.9375 675.375 852.8125 669.75 852.6875 647.625 C 855.0625 646 858.0625 643.875 862.3125 643.875 C 869.1875 643.875 869.6875 651 870.1875 656 C 870.4375 659.875 870.5625 677.625 870.5625 682.25 C 870.5625 686.375 870.4375 690.375 870.4375 694.5 L 871.0625 695.375 C 880.0625 694.875 882.0625 694.875 891.6875 694.875 Z M 899.1875 695 "/>
<path fill-rule="nonzero" fill="rgb(34.901961%, 14.901961%, 14.901961%)" fill-opacity="1" d="M 115.5625 756.5 L 99.6875 756.75 L 98.9375 757.5 C 99.4375 773.75 99.8125 784.625 99.8125 799 C 99.8125 814.25 99.4375 829.375 99.0625 844.625 L 99.8125 845.375 C 109.0625 845 111.0625 844.875 121.0625 845 L 121.6875 844.25 C 121.1875 830.625 121.1875 827.5 121.1875 814.75 C 135.1875 814.875 150.1875 814.875 159.1875 803.875 C 162.6875 799.625 165.6875 792.5 165.6875 783.75 C 165.6875 778.375 164.4375 766.5 154.0625 760.625 C 146.5625 756.25 135.9375 756.25 126.5625 756.25 L 115.5625 756.5 M 121.1875 771.625 C 123.9375 771.5 126.5625 771.5 129.3125 771.5 C 140.3125 771.75 143.3125 777.375 143.3125 784.625 C 143.3125 786.375 143.3125 793.625 136.6875 797.25 C 133.3125 799.125 128.6875 799.375 121.1875 799.375 Z M 229.9375 807.75 C 230.0625 796.5 230.0625 791.625 226.8125 786.375 C 224.3125 782.375 219.3125 777.375 203.3125 777.375 C 192.5625 777.375 185.9375 779.375 178.8125 781.5 L 178.0625 782.5 L 177.4375 796.125 L 178.4375 796.625 C 182.8125 794.875 190.9375 791.625 199.3125 791.625 C 203.9375 791.625 205.8125 792.375 207.4375 794 C 208.6875 795.25 209.0625 797.5 209.0625 799.375 C 194.0625 801.375 187.0625 802.75 179.5625 807.375 C 172.5625 811.75 170.1875 818.875 170.1875 824.5 C 170.1875 837.875 179.8125 846.5 192.0625 846.5 C 201.4375 846.5 206.8125 842 209.4375 839.875 L 209.4375 844.5 L 210.1875 845.375 C 219.1875 845 221.9375 844.875 230.0625 845 L 230.6875 844.125 C 229.8125 831.875 229.8125 828.75 229.8125 817 L 229.9375 807.75 M 209.3125 827.625 C 206.6875 829.125 203.3125 830.875 199.1875 830.875 C 194.6875 830.875 190.9375 828.5 190.9375 823.25 C 190.9375 815 200.8125 813.625 209.3125 812.5 Z M 280.6875 798.625 L 284.1875 778.25 L 283.4375 777.375 C 282.5625 777.375 281.6875 777.25 280.8125 777.25 C 275.6875 777.25 269.9375 780.125 265.9375 789.375 L 266.3125 777.875 L 265.3125 776.875 C 256.0625 778.875 253.6875 779.25 244.5625 780.625 L 243.8125 781.375 C 244.5625 790.75 244.9375 796.375 244.9375 813.75 C 244.9375 824 244.8125 834.25 244.5625 844.625 L 245.3125 845.375 C 254.5625 845 256.5625 844.875 266.5625 845 L 267.1875 844.125 C 266.6875 834 265.9375 819.875 265.9375 811.25 C 265.9375 805.625 265.9375 797.375 274.4375 797.375 C 276.5625 797.375 277.8125 798.125 279.5625 799.125 Z M 355.6875 843.375 C 343.9375 823.5 342.6875 821.25 333.1875 804.125 C 341.8125 792.375 342.6875 791.125 351.5625 779.75 L 350.9375 778.5 L 330.5625 778.75 L 329.3125 779.625 C 319.5625 796.5 318.3125 798.5 312.5625 807.125 L 312.5625 793.25 C 312.6875 769.875 312.8125 764.875 313.4375 746 L 312.4375 745.25 L 290.6875 748.5 L 289.9375 749.375 C 290.8125 761.5 291.1875 767.375 291.4375 783.75 C 291.6875 804 291.6875 824.25 291.5625 844.5 L 292.4375 845.375 C 300.8125 845 303.1875 845 312.6875 845 L 313.4375 844.125 L 312.6875 823 L 312.5625 808.625 C 323.4375 828.625 324.8125 831.375 331.1875 844.625 L 332.3125 845.375 L 354.8125 844.5 Z M 414.9375 756.5 L 399.0625 756.75 L 398.3125 757.5 C 398.8125 773.75 399.1875 784.625 399.1875 799 C 399.1875 814.25 398.8125 829.375 398.4375 844.625 L 399.1875 845.375 C 408.4375 845 410.4375 844.875 420.4375 845 L 421.0625 844.25 C 420.5625 830.625 420.5625 827.5 420.5625 814.75 C 434.5625 814.875 449.5625 814.875 458.5625 803.875 C 462.0625 799.625 465.0625 792.5 465.0625 783.75 C 465.0625 778.375 463.8125 766.5 453.4375 760.625 C 445.9375 756.25 435.3125 756.25 425.9375 756.25 L 414.9375 756.5 M 420.5625 771.625 C 423.3125 771.5 425.9375 771.5 428.6875 771.5 C 439.6875 771.75 442.6875 777.375 442.6875 784.625 C 442.6875 786.375 442.6875 793.625 436.0625 797.25 C 432.6875 799.125 428.0625 799.375 420.5625 799.375 Z M 509.8125 798.625 L 513.3125 778.25 L 512.5625 777.375 C 511.6875 777.375 510.8125 777.25 509.9375 777.25 C 504.8125 777.25 499.0625 780.125 495.0625 789.375 L 495.4375 777.875 L 494.4375 776.875 C 485.1875 778.875 482.8125 779.25 473.6875 780.625 L 472.9375 781.375 C 473.6875 790.75 474.0625 796.375 474.0625 813.75 C 474.0625 824 473.9375 834.25 473.6875 844.625 L 474.4375 845.375 C 483.6875 845 485.6875 844.875 495.6875 845 L 496.3125 844.125 C 495.8125 834 495.0625 819.875 495.0625 811.25 C 495.0625 805.625 495.0625 797.375 503.5625 797.375 C 505.6875 797.375 506.9375 798.125 508.6875 799.125 Z M 584.1875 811.75 C 584.1875 806.875 584.1875 786.625 566.6875 779.75 C 561.1875 777.625 554.6875 777.375 551.4375 777.375 C 529.6875 777.375 517.4375 789 517.4375 812 C 517.4375 820 518.6875 828.125 523.3125 834.875 C 526.5625 839.75 532.6875 846.5 550.5625 846.5 C 577.0625 846.5 584.1875 830.5 584.1875 811.75 M 562.5625 811.625 C 562.5625 821.875 561.1875 833.25 550.8125 833.25 C 547.5625 833.25 545.3125 831.75 543.8125 830.375 C 541.6875 828.25 539.3125 824 539.3125 811.875 C 539.3125 808.25 539.3125 800.25 541.8125 795.875 C 543.6875 792.5 546.9375 790.25 550.9375 790.25 C 554.4375 790.25 557.3125 792.125 558.9375 794.125 C 561.9375 797.75 562.5625 804.875 562.5625 811.625 Z M 616.8125 778.125 L 615.8125 777 C 606.6875 779 604.0625 779.5 595.0625 780.625 L 594.3125 781.5 C 595.6875 796.375 596.1875 802.125 596.1875 838.125 C 596.1875 853 595.9375 861.5 595.5625 875.625 L 596.3125 876.25 C 605.1875 875.875 607.8125 875.75 617.3125 875.875 L 618.0625 875.25 L 617.1875 845.5 C 626.3125 845.375 638.9375 845.25 649.0625 835.75 C 657.0625 828.25 659.6875 817.625 659.6875 809.125 C 659.6875 789.25 647.5625 777.25 633.5625 777.25 C 624.9375 777.25 620.0625 780.75 616.5625 783.125 L 616.8125 778.125 M 617.0625 795.125 C 619.8125 793.5 621.4375 792.625 624.5625 792.625 C 626.4375 792.625 630.1875 792.875 633.3125 796.375 C 637.1875 800.625 637.8125 807 637.8125 811.25 C 637.8125 818.5 635.4375 825 630.4375 828.5 C 626.4375 831.25 621.4375 831.5 617.0625 831.625 Z M 727.0625 826.5 C 722.3125 829 716.6875 831.875 707.5625 831.875 C 700.0625 831.875 694.9375 829.5 691.9375 825 C 690.0625 822.375 689.6875 819.875 689.1875 817.375 L 729.5625 816.625 L 730.3125 815.75 C 730.1875 809.625 730.0625 803.375 728.3125 797.125 C 723.9375 782.375 714.3125 779.375 710.0625 778.375 C 706.9375 777.5 704.0625 777.25 701.1875 777.25 C 681.5625 777.25 668.5625 790.125 668.5625 811.75 C 668.5625 817.625 669.5625 823.75 671.5625 828.125 C 678.8125 845 695.8125 846.5 704.8125 846.5 C 715.1875 846.5 719.6875 844.625 726.3125 842 L 727.0625 841 L 727.9375 826.875 L 727.0625 826.5 M 689.1875 804.125 C 689.5625 800.25 690.4375 795 695.1875 792 C 696.6875 791 698.4375 790.625 700.1875 790.625 C 704.3125 790.625 706.8125 792.75 708.1875 795 C 709.9375 797.75 710.0625 800.75 710.0625 803.625 Z M 777.9375 798.625 L 781.4375 778.25 L 780.6875 777.375 C 779.8125 777.375 778.9375 777.25 778.0625 777.25 C 772.9375 777.25 767.1875 780.125 763.1875 789.375 L 763.5625 777.875 L 762.5625 776.875 C 753.3125 778.875 750.9375 779.25 741.8125 780.625 L 741.0625 781.375 C 741.8125 790.75 742.1875 796.375 742.1875 813.75 C 742.1875 824 742.0625 834.25 741.8125 844.625 L 742.5625 845.375 C 751.8125 845 753.8125 844.875 763.8125 845 L 764.4375 844.125 C 763.9375 834 763.1875 819.875 763.1875 811.25 C 763.1875 805.625 763.1875 797.375 771.6875 797.375 C 773.8125 797.375 775.0625 798.125 776.8125 799.125 Z M 823.6875 830.625 C 821.5625 831.25 820.0625 831.75 817.9375 831.75 C 811.5625 831.75 811.0625 827.75 810.8125 825.875 C 810.4375 822.625 810.4375 815.75 810.5625 810.75 L 810.8125 793.125 L 822.0625 793.625 L 822.8125 792.875 L 824.0625 779.5 L 823.3125 778.75 L 810.8125 778.75 L 811.1875 757.75 L 810.3125 757 C 801.8125 759.5 799.5625 760.125 790.6875 762.375 L 790.1875 763.25 L 790.3125 778.875 L 783.5625 778.625 L 782.8125 779.25 L 781.6875 792.625 L 782.4375 793.375 L 790.3125 793.125 L 789.9375 813 C 789.8125 816.125 789.6875 819.25 789.6875 822.5 C 789.6875 834 789.9375 846.375 809.4375 846.375 C 814.3125 846.375 818.1875 845.625 822.5625 844.875 L 823.4375 844 L 824.6875 831.125 Z M 888.8125 778.375 L 871.4375 778.75 L 870.4375 779.625 C 868.3125 788.25 867.8125 790.125 864.8125 799.875 L 861.5625 810.625 L 858.8125 820 L 856.4375 811.125 L 852.8125 797.875 L 847.8125 778.875 L 846.8125 778.125 C 837.0625 778.875 834.9375 779 824.6875 779.25 L 824.0625 780.125 C 828.5625 792 840.1875 823.375 847.9375 847.375 C 842.8125 860.375 841.8125 862.625 836.1875 875 L 836.8125 876 C 839.9375 875.875 843.4375 875.75 846.6875 875.75 C 849.8125 875.75 853.0625 875.875 856.1875 875.875 L 857.0625 875.125 C 863.9375 848.125 867.3125 837.625 883.8125 794.125 C 885.6875 789.125 887.5625 784.25 889.3125 779.375 Z M 887.9375 845 "/>
</svg>
