<svg xmlns="http://www.w3.org/2000/svg" width="612" height="817" viewBox="0 0 612 817">
  <defs>
    <style>
      .cls-1 {
        fill: #592626;
        fill-rule: evenodd;
      }
    </style>
  </defs>
  <path id="Butano_State_Park" data-name="Butano State Park" class="cls-1" d="M90.744,392.066c7.233,0.155,16.178.311,22.011-3.733a15.461,15.461,0,0,0,6.533-13.144c0-4.978-2.1-9.566-6.533-11.744a17.184,17.184,0,0,0-4.822-1.4c2.644-1.089,5.755-2.489,7.777-6.611a12.605,12.605,0,0,0,1.244-5.444,13.055,13.055,0,0,0-3.111-8.711c-3.266-3.5-8.321-4.433-15.943-4.433-2.644,0-7.389.078-10.033,0.156l-10.888.155-0.467.467c0.311,7.466.389,10.344,0.389,21.077,0,11.044-.078,22.01-0.233,33.054l0.544,0.311H90.744ZM90.2,368.422c5.911-.155,9.333-0.155,11.588,1.167a7.17,7.17,0,0,1,3.111,6.378,6.686,6.686,0,0,1-4.822,6.688c-2.333.778-6.533,0.778-9.877,0.7V368.422Zm0-22.865c1.633,0,3.811-.078,5.133-0.078,4.2,0,8.011,1.478,8.011,6.533a6.87,6.87,0,0,1-3.967,6.3c-1.944.855-6.066,0.855-9.177,0.855v-13.61Zm73.655,4.9-12.678.622-0.544.467c0.544,8.788.544,21.232,0.544,22.476,0,2.256,0,3.5-.077,6.611-2.1,1.4-3.734,2.567-5.833,2.567-5.6,0-5.6-5.911-5.6-10.5,0-1.944,0-3.966.078-5.911l0.155-15.71-0.544-.622-12.833.622-0.544.467c0.466,6.533.544,8.71,0.544,16.565v5.445c-0.078,8.477.311,12.055,3.111,15.321A13.32,13.32,0,0,0,139.821,393c5.522,0,8.711-2.489,11.511-4.666l-0.078,3.5L151.8,392.3c5.677-.233,7.388-0.233,12.443-0.233l0.467-.467c-0.389-5.522-.544-8.477-0.544-18.588q0-10.967.233-21.932Zm31.423,32.665a11.68,11.68,0,0,1-3.578.7c-3.967,0-4.278-2.489-4.433-3.656a88.86,88.86,0,0,1-.156-9.41l0.156-10.966,7,0.311,0.467-.467,0.778-8.322-0.467-.466h-7.777L187.5,337.78l-0.544-.467c-5.289,1.555-6.689,1.944-12.211,3.344l-0.311.545,0.078,9.721-4.2-.155-0.467.389-0.7,8.321,0.467,0.467,4.9-.155-0.233,12.366c-0.078,1.944-.156,3.888-0.156,5.91,0,7.156.156,14.855,12.288,14.855a45.191,45.191,0,0,0,8.167-.933l0.544-.544,0.778-8.011Zm40.366-14.233c0.077-7,.077-10.033-1.945-13.3-1.555-2.489-4.666-5.6-14.621-5.6a47.308,47.308,0,0,0-15.244,2.567l-0.467.622-0.389,8.477,0.623,0.311c2.722-1.089,7.777-3.111,12.988-3.111,2.878,0,4.044.467,5.055,1.478a4.9,4.9,0,0,1,1.011,3.344c-9.333,1.245-13.688,2.1-18.354,4.978a12.435,12.435,0,0,0-5.833,10.655c0,8.322,5.988,13.688,13.61,13.688a16.084,16.084,0,0,0,10.811-4.122v2.878l0.466,0.544c5.6-.233,7.311-0.311,12.366-0.233l0.389-.545c-0.544-7.621-.544-9.566-0.544-16.877ZM222.81,381.255a12.6,12.6,0,0,1-6.3,2.022c-2.8,0-5.133-1.477-5.133-4.744,0-5.133,6.144-5.988,11.433-6.688v9.41Zm60.044,10.266c-0.389-6.844-.389-9.021-0.545-16.643v-6.067c-0.078-7.466-.155-11.044-2.1-14.232-2.411-4.045-6.844-4.667-9.644-4.667-4.744,0-8.866,2.489-12.444,4.589l0.156-4.278-0.778-.544c-5.988,1.244-7.311,1.478-13.144,2.255l-0.466.545a216.367,216.367,0,0,1,1.089,24.343c0,4.978-.078,9.955-0.156,14.933l0.467,0.466c5.6-.233,6.766-0.233,12.988-0.233l0.467-.467c-0.467-11.977-.545-15.01-0.623-28.932,1.634-1.088,3.5-2.411,5.989-2.411,4.278,0,4.666,4.589,4.9,7.389,0.155,2.567.233,13.222,0.233,16.177,0,2.644-.078,5.366-0.078,8.011l0.467,0.466c5.133-.155,6.455-0.233,12.677-0.233Zm48.455-20.143c0-3.033,0-15.633-10.888-19.91a27.961,27.961,0,0,0-9.489-1.478c-13.533,0-21.154,7.233-21.154,21.543,0,4.978.777,10.033,3.655,14.233,2.022,3.033,5.833,7.233,16.955,7.233C326.876,393,331.309,383.044,331.309,371.378Zm-13.455-.078c0,6.378-.855,13.455-7.311,13.455a6.288,6.288,0,0,1-4.355-1.789c-1.322-1.322-2.8-3.966-2.8-11.51,0-2.256,0-7.233,1.556-9.955a6.439,6.439,0,0,1,5.677-3.5,6.538,6.538,0,0,1,4.978,2.411C317.465,362.667,317.854,367.1,317.854,371.3Zm66.034-12.677c-6.533-2.722-9.956-4.122-9.956-7.622,0-2.411,2.256-5.444,7.389-5.444,5.911,0,9.411,2.411,12.288,4.355l0.7-.311,0.623-10.188-0.389-.545a31.862,31.862,0,0,0-14.389-2.877c-14.621,0-19.676,8.244-19.676,16.566,0,9.41,7.31,12.832,11.666,14.932l2.566,1.167c5.367,2.255,9.489,4.2,9.489,8.322,0,2.955-2.567,6.455-9.333,6.455a19.842,19.842,0,0,1-13.3-4.9l-0.777.233-0.545,10.967,0.467,0.622c0.855,0.311,1.711.7,2.566,0.933a38.753,38.753,0,0,0,12.211,1.944c2.333,0,8.244-.233,12.91-2.411,6.534-3.188,9.333-9.1,9.333-15.71a15.415,15.415,0,0,0-5.833-12.366,31.471,31.471,0,0,0-5.988-3.344Zm43.011,24.5a11.675,11.675,0,0,1-3.578.7c-3.966,0-4.277-2.489-4.433-3.656a89.4,89.4,0,0,1-.156-9.41l0.156-10.966,7,0.311,0.466-.467,0.778-8.322-0.467-.466h-7.777l0.233-13.066-0.544-.467c-5.289,1.555-6.689,1.944-12.211,3.344l-0.311.545,0.078,9.721-4.2-.155-0.466.389-0.7,8.321,0.466,0.467,4.9-.155L405.9,372.156c-0.078,1.944-.156,3.888-0.156,5.91,0,7.156.156,14.855,12.289,14.855a45.17,45.17,0,0,0,8.166-.933l0.544-.544,0.778-8.011Zm40.366-14.233c0.078-7,.078-10.033-1.945-13.3-1.555-2.489-4.666-5.6-14.621-5.6a47.308,47.308,0,0,0-15.244,2.567l-0.466.622-0.389,8.477,0.622,0.311c2.722-1.089,7.777-3.111,12.988-3.111,2.878,0,4.044.467,5.055,1.478a4.9,4.9,0,0,1,1.012,3.344c-9.333,1.245-13.689,2.1-18.355,4.978a12.435,12.435,0,0,0-5.833,10.655c0,8.322,5.988,13.688,13.61,13.688a16.082,16.082,0,0,0,10.811-4.122v2.878l0.467,0.544c5.6-.233,7.31-0.311,12.366-0.233l0.388-.545c-0.544-7.621-.544-9.566-0.544-16.877Zm-12.833,12.366a12.6,12.6,0,0,1-6.3,2.022c-2.8,0-5.133-1.477-5.133-4.744,0-5.133,6.144-5.988,11.433-6.688v9.41Zm43.711,1.867a11.669,11.669,0,0,1-3.577.7c-3.967,0-4.278-2.489-4.434-3.656a89.161,89.161,0,0,1-.155-9.41l0.155-10.966,7,0.311,0.467-.467,0.778-8.322-0.467-.466h-7.778l0.234-13.066-0.545-.467c-5.288,1.555-6.688,1.944-12.21,3.344l-0.311.545,0.078,9.721-4.2-.155-0.467.389-0.7,8.321,0.467,0.467,4.9-.155-0.234,12.366c-0.078,1.944-.155,3.888-0.155,5.91,0,7.156.155,14.855,12.288,14.855a45.17,45.17,0,0,0,8.166-.933l0.545-.544,0.777-8.011Zm38.733-2.567a23.763,23.763,0,0,1-12.133,3.345c-4.666,0-7.855-1.478-9.722-4.278a11.014,11.014,0,0,1-1.711-4.744l25.121-.467,0.467-.544a45.651,45.651,0,0,0-1.244-11.589c-2.722-9.177-8.711-11.044-11.355-11.666a19.943,19.943,0,0,0-5.522-.7c-12.211,0-20.3,8.011-20.3,21.466a25.891,25.891,0,0,0,1.866,10.188c4.511,10.5,15.088,11.433,20.688,11.433,6.455,0,9.255-1.167,13.377-2.8l0.467-.622,0.544-8.788ZM513.31,366.634c0.234-2.411.778-5.678,3.734-7.544a5.968,5.968,0,0,1,8.088,1.866,9.5,9.5,0,0,1,1.167,5.367Zm-272.727,63.7-9.878.156-0.466.466c0.311,10.111.544,16.877,0.544,25.821,0,9.489-.233,18.9-0.467,28.388l0.467,0.466c5.755-.233,7-0.311,13.222-0.233l0.389-.467c-0.312-8.477-.312-10.421-0.312-18.354,8.711,0.078,18.044.078,23.644-6.767a19.991,19.991,0,0,0,4.044-12.521c0-3.344-.778-10.733-7.233-14.388-4.666-2.722-11.277-2.722-17.11-2.722Zm3.5,9.411c1.711-.078,3.345-0.078,5.056-0.078,6.844,0.156,8.71,3.655,8.71,8.166,0,1.089,0,5.6-4.122,7.855-2.1,1.167-4.977,1.323-9.644,1.323V439.746Zm66.111,22.476c0.077-7,.077-10.032-1.945-13.3-1.555-2.489-4.666-5.6-14.621-5.6a47.335,47.335,0,0,0-15.244,2.567l-0.467.622-0.389,8.477,0.623,0.312c2.722-1.089,7.777-3.111,12.988-3.111,2.878,0,4.044.466,5.055,1.477a4.9,4.9,0,0,1,1.011,3.345c-9.333,1.244-13.688,2.1-18.354,4.977a12.435,12.435,0,0,0-5.833,10.655c0,8.322,5.988,13.688,13.61,13.688a16.079,16.079,0,0,0,10.811-4.122v2.878l0.466,0.544c5.6-.233,7.311-0.311,12.366-0.233l0.389-.544c-0.544-7.622-.544-9.567-0.544-16.877ZM297.36,474.589a12.6,12.6,0,0,1-6.3,2.022c-2.8,0-5.133-1.478-5.133-4.745,0-5.133,6.144-5.988,11.433-6.688v9.411Zm44.411-18.044,2.178-12.677-0.467-.545c-0.544,0-1.089-.077-1.633-0.077-3.189,0-6.767,1.788-9.255,7.544l0.233-7.156-0.622-.622c-5.756,1.245-7.233,1.478-12.911,2.333l-0.466.467c0.466,5.833.7,9.333,0.7,20.144,0,6.377-.078,12.755-0.234,19.21l0.467,0.466c5.755-.233,7-0.311,13.221-0.233l0.389-.544c-0.311-6.3-.777-15.088-0.777-20.455,0-3.5,0-8.633,5.288-8.633a5.826,5.826,0,0,1,3.189,1.089Zm46.666,27.843c-7.311-12.366-8.089-13.766-14-24.421,5.367-7.311,5.911-8.088,11.433-15.166l-0.389-.778-12.677.156-0.778.544c-6.066,10.5-6.844,11.744-10.421,17.111V453.2c0.077-14.544.155-17.655,0.544-29.4l-0.622-.467-13.533,2.023-0.466.544c0.544,7.544.777,11.2,0.933,21.388,0.155,12.6.155,25.2,0.078,37.8l0.544,0.544c5.211-.233,6.689-0.233,12.6-0.233l0.467-.544-0.467-13.144-0.077-8.944c6.766,12.444,7.622,14.155,11.588,22.4l0.7,0.466,14-.544Z"/>
</svg>
