<?xml version="1.0" encoding="UTF-8"?>
<svg xmlns="http://www.w3.org/2000/svg" xmlns:xlink="http://www.w3.org/1999/xlink" width="975" height="1300" viewBox="0 0 975 1300">
<path fill-rule="nonzero" fill="rgb(34.901961%, 14.901961%, 14.901961%)" fill-opacity="1" d="M 138.3125 452.875 C 124.6875 453.625 113.8125 453.875 110.0625 453.875 L 107.5625 453.875 C 107.3125 420.5 107.4375 412 108.4375 382.125 L 107.6875 381.375 C 96.9375 381.875 94.0625 381.875 85.4375 381.75 L 84.6875 382.5 C 85.1875 392.5 85.3125 395.5 85.3125 410.375 C 85.3125 430.125 85.1875 449.875 85.1875 469.625 L 85.8125 470.375 C 110.3125 470 114.8125 470 137.3125 470 L 137.9375 469.25 L 138.9375 453.5 Z M 205.3125 432.75 C 205.4375 421.5 205.4375 416.625 202.1875 411.375 C 199.6875 407.375 194.6875 402.375 178.6875 402.375 C 167.9375 402.375 161.3125 404.375 154.1875 406.5 L 153.4375 407.5 L 152.8125 421.125 L 153.8125 421.625 C 158.1875 419.875 166.3125 416.625 174.6875 416.625 C 179.3125 416.625 181.1875 417.375 182.8125 419 C 184.0625 420.25 184.4375 422.5 184.4375 424.375 C 169.4375 426.375 162.4375 427.75 154.9375 432.375 C 147.9375 436.75 145.5625 443.875 145.5625 449.5 C 145.5625 462.875 155.1875 471.5 167.4375 471.5 C 176.8125 471.5 182.1875 467 184.8125 464.875 L 184.8125 469.5 L 185.5625 470.375 C 194.5625 470 197.3125 469.875 205.4375 470 L 206.0625 469.125 C 205.1875 456.875 205.1875 453.75 205.1875 442 L 205.3125 432.75 M 184.6875 452.625 C 182.0625 454.125 178.6875 455.875 174.5625 455.875 C 170.0625 455.875 166.3125 453.5 166.3125 448.25 C 166.3125 440 176.1875 438.625 184.6875 437.5 Z M 284.1875 468.375 C 272.4375 448.5 271.1875 446.25 261.6875 429.125 C 270.3125 417.375 271.1875 416.125 280.0625 404.75 L 279.4375 403.5 L 259.0625 403.75 L 257.8125 404.625 C 248.0625 421.5 246.8125 423.5 241.0625 432.125 L 241.0625 418.25 C 241.1875 394.875 241.3125 389.875 241.9375 371 L 240.9375 370.25 L 219.1875 373.5 L 218.4375 374.375 C 219.3125 386.5 219.6875 392.375 219.9375 408.75 C 220.1875 429 220.1875 449.25 220.0625 469.5 L 220.9375 470.375 C 229.3125 470 231.6875 470 241.1875 470 L 241.9375 469.125 L 241.1875 448 L 241.0625 433.625 C 251.9375 453.625 253.3125 456.375 259.6875 469.625 L 260.8125 470.375 L 283.3125 469.5 Z M 345.6875 451.5 C 340.9375 454 335.3125 456.875 326.1875 456.875 C 318.6875 456.875 313.5625 454.5 310.5625 450 C 308.6875 447.375 308.3125 444.875 307.8125 442.375 L 348.1875 441.625 L 348.9375 440.75 C 348.8125 434.625 348.6875 428.375 346.9375 422.125 C 342.5625 407.375 332.9375 404.375 328.6875 403.375 C 325.5625 402.5 322.6875 402.25 319.8125 402.25 C 300.1875 402.25 287.1875 415.125 287.1875 436.75 C 287.1875 442.625 288.1875 448.75 290.1875 453.125 C 297.4375 470 314.4375 471.5 323.4375 471.5 C 333.8125 471.5 338.3125 469.625 344.9375 467 L 345.6875 466 L 346.5625 451.875 L 345.6875 451.5 M 307.8125 429.125 C 308.1875 425.25 309.0625 420 313.8125 417 C 315.3125 416 317.0625 415.625 318.8125 415.625 C 322.9375 415.625 325.4375 417.75 326.8125 420 C 328.5625 422.75 328.6875 425.75 328.6875 428.625 Z M 412.9375 470 C 416.1875 470.125 419.5625 470.125 422.8125 470.125 C 436.8125 470.125 459.4375 469.625 468.5625 447.375 C 471.9375 439.125 472.6875 429.125 472.6875 423.5 C 472.6875 411.75 470.0625 402.75 466.9375 397.125 C 458.4375 381.625 442.3125 381.125 428.0625 381.125 C 422.3125 381.125 416.5625 381.375 410.8125 381.625 L 397.5625 381.75 L 396.8125 382.5 C 397.3125 394.5 397.8125 405 397.8125 439.625 C 397.8125 451.875 397.6875 459.25 397.4375 469.5 L 398.1875 470 L 412.9375 470 M 419.8125 453.875 C 419.5625 441.625 419.4375 430 419.4375 418 C 419.4375 411.25 419.4375 404.5 419.5625 397.75 C 422.0625 397.625 424.6875 397.5 427.1875 397.5 C 434.8125 397.5 449.6875 397.5 449.6875 424.125 C 449.6875 439.75 443.8125 446.75 440.8125 449.25 C 435.1875 453.875 426.5625 453.875 419.8125 453.875 Z M 540.9375 451.5 C 536.1875 454 530.5625 456.875 521.4375 456.875 C 513.9375 456.875 508.8125 454.5 505.8125 450 C 503.9375 447.375 503.5625 444.875 503.0625 442.375 L 543.4375 441.625 L 544.1875 440.75 C 544.0625 434.625 543.9375 428.375 542.1875 422.125 C 537.8125 407.375 528.1875 404.375 523.9375 403.375 C 520.8125 402.5 517.9375 402.25 515.0625 402.25 C 495.4375 402.25 482.4375 415.125 482.4375 436.75 C 482.4375 442.625 483.4375 448.75 485.4375 453.125 C 492.6875 470 509.6875 471.5 518.6875 471.5 C 529.0625 471.5 533.5625 469.625 540.1875 467 L 540.9375 466 L 541.8125 451.875 L 540.9375 451.5 M 503.0625 429.125 C 503.4375 425.25 504.3125 420 509.0625 417 C 510.5625 416 512.3125 415.625 514.0625 415.625 C 518.1875 415.625 520.6875 417.75 522.0625 420 C 523.8125 422.75 523.9375 425.75 523.9375 428.625 Z M 577.6875 469.125 C 577.0625 454.75 576.4375 441.625 576.4375 402.125 C 576.4375 390.25 576.5625 384.625 577.0625 371.125 L 576.1875 370.25 L 554.8125 373.625 L 554.3125 374.375 C 555.5625 389.625 555.6875 393.75 555.9375 414 C 556.0625 421.375 556.0625 428.75 556.0625 436.125 C 556.0625 449.625 555.8125 457.125 555.3125 469.5 L 556.0625 470.375 C 564.4375 470 567.8125 469.875 576.9375 470 Z M 671.5625 469.125 C 676.9375 446.5 678.8125 440 695.8125 382 L 695.1875 381.375 C 685.8125 381.75 683.3125 381.75 675.8125 381.75 L 675.0625 382.5 C 672.6875 394.75 672.0625 398 668.5625 411.875 L 664.5625 428.25 L 659.1875 451.375 L 652.5625 421.875 L 649.9375 410.625 C 646.8125 397.75 645.9375 393.5 643.3125 381.375 L 642.5625 380.75 C 632.1875 381.5 629.9375 381.625 620.1875 381.625 L 619.5625 382.375 C 627.9375 411.25 635.4375 437.75 639.6875 454.25 C 640.9375 459.375 642.1875 464.5 643.4375 469.625 L 644.1875 470.375 C 655.0625 470 657.8125 469.875 670.8125 470 Z M 757.1875 432.75 C 757.3125 421.5 757.3125 416.625 754.0625 411.375 C 751.5625 407.375 746.5625 402.375 730.5625 402.375 C 719.8125 402.375 713.1875 404.375 706.0625 406.5 L 705.3125 407.5 L 704.6875 421.125 L 705.6875 421.625 C 710.0625 419.875 718.1875 416.625 726.5625 416.625 C 731.1875 416.625 733.0625 417.375 734.6875 419 C 735.9375 420.25 736.3125 422.5 736.3125 424.375 C 721.3125 426.375 714.3125 427.75 706.8125 432.375 C 699.8125 436.75 697.4375 443.875 697.4375 449.5 C 697.4375 462.875 707.0625 471.5 719.3125 471.5 C 728.6875 471.5 734.0625 467 736.6875 464.875 L 736.6875 469.5 L 737.4375 470.375 C 746.4375 470 749.1875 469.875 757.3125 470 L 757.9375 469.125 C 757.0625 456.875 757.0625 453.75 757.0625 442 L 757.1875 432.75 M 736.5625 452.625 C 733.9375 454.125 730.5625 455.875 726.4375 455.875 C 721.9375 455.875 718.1875 453.5 718.1875 448.25 C 718.1875 440 728.0625 438.625 736.5625 437.5 Z M 793.8125 469.125 C 793.1875 454.75 792.5625 441.625 792.5625 402.125 C 792.5625 390.25 792.6875 384.625 793.1875 371.125 L 792.3125 370.25 L 770.9375 373.625 L 770.4375 374.375 C 771.6875 389.625 771.8125 393.75 772.0625 414 C 772.1875 421.375 772.1875 428.75 772.1875 436.125 C 772.1875 449.625 771.9375 457.125 771.4375 469.5 L 772.1875 470.375 C 780.5625 470 783.9375 469.875 793.0625 470 Z M 830.3125 469.125 C 829.6875 454.75 829.0625 441.625 829.0625 402.125 C 829.0625 390.25 829.1875 384.625 829.6875 371.125 L 828.8125 370.25 L 807.4375 373.625 L 806.9375 374.375 C 808.1875 389.625 808.3125 393.75 808.5625 414 C 808.6875 421.375 808.6875 428.75 808.6875 436.125 C 808.6875 449.625 808.4375 457.125 807.9375 469.5 L 808.6875 470.375 C 817.0625 470 820.4375 469.875 829.5625 470 Z M 900.3125 451.5 C 895.5625 454 889.9375 456.875 880.8125 456.875 C 873.3125 456.875 868.1875 454.5 865.1875 450 C 863.3125 447.375 862.9375 444.875 862.4375 442.375 L 902.8125 441.625 L 903.5625 440.75 C 903.4375 434.625 903.3125 428.375 901.5625 422.125 C 897.1875 407.375 887.5625 404.375 883.3125 403.375 C 880.1875 402.5 877.3125 402.25 874.4375 402.25 C 854.8125 402.25 841.8125 415.125 841.8125 436.75 C 841.8125 442.625 842.8125 448.75 844.8125 453.125 C 852.0625 470 869.0625 471.5 878.0625 471.5 C 888.4375 471.5 892.9375 469.625 899.5625 467 L 900.3125 466 L 901.1875 451.875 L 900.3125 451.5 M 862.4375 429.125 C 862.8125 425.25 863.6875 420 868.4375 417 C 869.9375 416 871.6875 415.625 873.4375 415.625 C 877.5625 415.625 880.0625 417.75 881.4375 420 C 883.1875 422.75 883.3125 425.75 883.3125 428.625 Z M 907.5625 470 "/>
<path fill-rule="nonzero" fill="rgb(34.901961%, 14.901961%, 14.901961%)" fill-opacity="1" d="M 385.3125 566.25 C 374.8125 561.875 369.3125 559.625 369.3125 554 C 369.3125 550.125 372.9375 545.25 381.1875 545.25 C 390.6875 545.25 396.3125 549.125 400.9375 552.25 L 402.0625 551.75 L 403.0625 535.375 L 402.4375 534.5 C 397.0625 532.25 391.4375 529.875 379.3125 529.875 C 355.8125 529.875 347.6875 543.125 347.6875 556.5 C 347.6875 571.625 359.4375 577.125 366.4375 580.5 L 370.5625 582.375 C 379.1875 586 385.8125 589.125 385.8125 595.75 C 385.8125 600.5 381.6875 606.125 370.8125 606.125 C 359.4375 606.125 353.0625 601.125 349.4375 598.25 L 348.1875 598.625 L 347.3125 616.25 L 348.0625 617.25 C 349.4375 617.75 350.8125 618.375 352.1875 618.75 C 355.0625 619.75 362.4375 621.875 371.8125 621.875 C 375.5625 621.875 385.0625 621.5 392.5625 618 C 403.0625 612.875 407.5625 603.375 407.5625 592.75 C 407.5625 585.625 404.8125 578 398.1875 572.875 C 394.8125 570.375 391.5625 568.875 388.5625 567.5 Z M 454.4375 605.625 C 452.3125 606.25 450.8125 606.75 448.6875 606.75 C 442.3125 606.75 441.8125 602.75 441.5625 600.875 C 441.1875 597.625 441.1875 590.75 441.3125 585.75 L 441.5625 568.125 L 452.8125 568.625 L 453.5625 567.875 L 454.8125 554.5 L 454.0625 553.75 L 441.5625 553.75 L 441.9375 532.75 L 441.0625 532 C 432.5625 534.5 430.3125 535.125 421.4375 537.375 L 420.9375 538.25 L 421.0625 553.875 L 414.3125 553.625 L 413.5625 554.25 L 412.4375 567.625 L 413.1875 568.375 L 421.0625 568.125 L 420.6875 588 C 420.5625 591.125 420.4375 594.25 420.4375 597.5 C 420.4375 609 420.6875 621.375 440.1875 621.375 C 445.0625 621.375 448.9375 620.625 453.3125 619.875 L 454.1875 619 L 455.4375 606.125 Z M 519.3125 582.75 C 519.4375 571.5 519.4375 566.625 516.1875 561.375 C 513.6875 557.375 508.6875 552.375 492.6875 552.375 C 481.9375 552.375 475.3125 554.375 468.1875 556.5 L 467.4375 557.5 L 466.8125 571.125 L 467.8125 571.625 C 472.1875 569.875 480.3125 566.625 488.6875 566.625 C 493.3125 566.625 495.1875 567.375 496.8125 569 C 498.0625 570.25 498.4375 572.5 498.4375 574.375 C 483.4375 576.375 476.4375 577.75 468.9375 582.375 C 461.9375 586.75 459.5625 593.875 459.5625 599.5 C 459.5625 612.875 469.1875 621.5 481.4375 621.5 C 490.8125 621.5 496.1875 617 498.8125 614.875 L 498.8125 619.5 L 499.5625 620.375 C 508.5625 620 511.3125 619.875 519.4375 620 L 520.0625 619.125 C 519.1875 606.875 519.1875 603.75 519.1875 592 L 519.3125 582.75 M 498.6875 602.625 C 496.0625 604.125 492.6875 605.875 488.5625 605.875 C 484.0625 605.875 480.3125 603.5 480.3125 598.25 C 480.3125 590 490.1875 588.625 498.6875 587.5 Z M 568.9375 605.625 C 566.8125 606.25 565.3125 606.75 563.1875 606.75 C 556.8125 606.75 556.3125 602.75 556.0625 600.875 C 555.6875 597.625 555.6875 590.75 555.8125 585.75 L 556.0625 568.125 L 567.3125 568.625 L 568.0625 567.875 L 569.3125 554.5 L 568.5625 553.75 L 556.0625 553.75 L 556.4375 532.75 L 555.5625 532 C 547.0625 534.5 544.8125 535.125 535.9375 537.375 L 535.4375 538.25 L 535.5625 553.875 L 528.8125 553.625 L 528.0625 554.25 L 526.9375 567.625 L 527.6875 568.375 L 535.5625 568.125 L 535.1875 588 C 535.0625 591.125 534.9375 594.25 534.9375 597.5 C 534.9375 609 535.1875 621.375 554.6875 621.375 C 559.5625 621.375 563.4375 620.625 567.8125 619.875 L 568.6875 619 L 569.9375 606.125 Z M 633.6875 601.5 C 628.9375 604 623.3125 606.875 614.1875 606.875 C 606.6875 606.875 601.5625 604.5 598.5625 600 C 596.6875 597.375 596.3125 594.875 595.8125 592.375 L 636.1875 591.625 L 636.9375 590.75 C 636.8125 584.625 636.6875 578.375 634.9375 572.125 C 630.5625 557.375 620.9375 554.375 616.6875 553.375 C 613.5625 552.5 610.6875 552.25 607.8125 552.25 C 588.1875 552.25 575.1875 565.125 575.1875 586.75 C 575.1875 592.625 576.1875 598.75 578.1875 603.125 C 585.4375 620 602.4375 621.5 611.4375 621.5 C 621.8125 621.5 626.3125 619.625 632.9375 617 L 633.6875 616 L 634.5625 601.875 L 633.6875 601.5 M 595.8125 579.125 C 596.1875 575.25 597.0625 570 601.8125 567 C 603.3125 566 605.0625 565.625 606.8125 565.625 C 610.9375 565.625 613.4375 567.75 614.8125 570 C 616.5625 572.75 616.6875 575.75 616.6875 578.625 Z M 640.9375 620 "/>
<path fill-rule="nonzero" fill="rgb(34.901961%, 14.901961%, 14.901961%)" fill-opacity="1" d="M 215.6875 735.625 C 224.0625 749.875 225.9375 753.625 233.9375 770 L 234.9375 770.625 C 238.8125 770.375 242.5625 770.125 246.4375 770 C 250.3125 769.875 254.3125 769.75 258.1875 769.75 L 258.9375 768.25 C 254.1875 762.125 252.8125 760.25 243.8125 745.875 C 239.8125 739.5 237.8125 736.125 234.6875 730.625 C 240.3125 728.125 251.6875 722.875 251.6875 707 C 251.6875 701.5 250.1875 690.125 239.9375 684.75 C 233.4375 681.375 226.6875 681.25 212.0625 681.5 L 203.3125 681.625 L 188.0625 681.625 L 187.4375 682.375 C 187.9375 695 188.4375 708 188.4375 742 C 188.4375 753.625 188.3125 759.25 187.9375 769.625 L 188.6875 770.375 C 197.8125 770 199.8125 769.875 210.0625 770 L 210.8125 769.25 C 209.8125 754.75 209.6875 750.75 209.5625 735.875 L 215.6875 735.625 M 209.8125 696.75 C 211.5625 696.625 213.3125 696.625 215.0625 696.625 C 219.9375 696.625 229.5625 696.625 229.5625 707.625 C 229.5625 711.125 228.6875 715.75 224.0625 718.625 C 220.5625 720.75 216.0625 721 209.8125 721.125 Z M 321.0625 751.5 C 316.3125 754 310.6875 756.875 301.5625 756.875 C 294.0625 756.875 288.9375 754.5 285.9375 750 C 284.0625 747.375 283.6875 744.875 283.1875 742.375 L 323.5625 741.625 L 324.3125 740.75 C 324.1875 734.625 324.0625 728.375 322.3125 722.125 C 317.9375 707.375 308.3125 704.375 304.0625 703.375 C 300.9375 702.5 298.0625 702.25 295.1875 702.25 C 275.5625 702.25 262.5625 715.125 262.5625 736.75 C 262.5625 742.625 263.5625 748.75 265.5625 753.125 C 272.8125 770 289.8125 771.5 298.8125 771.5 C 309.1875 771.5 313.6875 769.625 320.3125 767 L 321.0625 766 L 321.9375 751.875 L 321.0625 751.5 M 283.1875 729.125 C 283.5625 725.25 284.4375 720 289.1875 717 C 290.6875 716 292.4375 715.625 294.1875 715.625 C 298.3125 715.625 300.8125 717.75 302.1875 720 C 303.9375 722.75 304.0625 725.75 304.0625 728.625 Z M 384.6875 752 C 381.3125 754 378.0625 756 371.6875 756 C 357.5625 756 354.6875 744.25 354.6875 736.75 C 354.6875 727.625 358.6875 717.125 370.8125 717.125 C 376.3125 717.125 379.3125 719.125 383.0625 721.625 L 384.3125 721.25 C 384.8125 714.625 384.9375 712.875 385.9375 706.25 L 385.3125 705.5 C 379.8125 703.75 375.0625 702.25 367.8125 702.25 C 338.4375 702.25 332.6875 724.5 332.6875 737.25 C 332.6875 751.625 340.1875 771.125 368.3125 771.125 C 374.9375 771.125 379.1875 769.875 384.4375 768.375 L 385.1875 767.625 L 385.6875 752.625 Z M 431.8125 723.625 L 435.3125 703.25 L 434.5625 702.375 C 433.6875 702.375 432.8125 702.25 431.9375 702.25 C 426.8125 702.25 421.0625 705.125 417.0625 714.375 L 417.4375 702.875 L 416.4375 701.875 C 407.1875 703.875 404.8125 704.25 395.6875 705.625 L 394.9375 706.375 C 395.6875 715.75 396.0625 721.375 396.0625 738.75 C 396.0625 749 395.9375 759.25 395.6875 769.625 L 396.4375 770.375 C 405.6875 770 407.6875 769.875 417.6875 770 L 418.3125 769.125 C 417.8125 759 417.0625 744.875 417.0625 736.25 C 417.0625 730.625 417.0625 722.375 425.5625 722.375 C 427.6875 722.375 428.9375 723.125 430.6875 724.125 Z M 498.0625 751.5 C 493.3125 754 487.6875 756.875 478.5625 756.875 C 471.0625 756.875 465.9375 754.5 462.9375 750 C 461.0625 747.375 460.6875 744.875 460.1875 742.375 L 500.5625 741.625 L 501.3125 740.75 C 501.1875 734.625 501.0625 728.375 499.3125 722.125 C 494.9375 707.375 485.3125 704.375 481.0625 703.375 C 477.9375 702.5 475.0625 702.25 472.1875 702.25 C 452.5625 702.25 439.5625 715.125 439.5625 736.75 C 439.5625 742.625 440.5625 748.75 442.5625 753.125 C 449.8125 770 466.8125 771.5 475.8125 771.5 C 486.1875 771.5 490.6875 769.625 497.3125 767 L 498.0625 766 L 498.9375 751.875 L 498.0625 751.5 M 460.1875 729.125 C 460.5625 725.25 461.4375 720 466.1875 717 C 467.6875 716 469.4375 715.625 471.1875 715.625 C 475.3125 715.625 477.8125 717.75 479.1875 720 C 480.9375 722.75 481.0625 725.75 481.0625 728.625 Z M 568.4375 732.75 C 568.5625 721.5 568.5625 716.625 565.3125 711.375 C 562.8125 707.375 557.8125 702.375 541.8125 702.375 C 531.0625 702.375 524.4375 704.375 517.3125 706.5 L 516.5625 707.5 L 515.9375 721.125 L 516.9375 721.625 C 521.3125 719.875 529.4375 716.625 537.8125 716.625 C 542.4375 716.625 544.3125 717.375 545.9375 719 C 547.1875 720.25 547.5625 722.5 547.5625 724.375 C 532.5625 726.375 525.5625 727.75 518.0625 732.375 C 511.0625 736.75 508.6875 743.875 508.6875 749.5 C 508.6875 762.875 518.3125 771.5 530.5625 771.5 C 539.9375 771.5 545.3125 767 547.9375 764.875 L 547.9375 769.5 L 548.6875 770.375 C 557.6875 770 560.4375 769.875 568.5625 770 L 569.1875 769.125 C 568.3125 756.875 568.3125 753.75 568.3125 742 L 568.4375 732.75 M 547.8125 752.625 C 545.1875 754.125 541.8125 755.875 537.6875 755.875 C 533.1875 755.875 529.4375 753.5 529.4375 748.25 C 529.4375 740 539.3125 738.625 547.8125 737.5 Z M 618.0625 755.625 C 615.9375 756.25 614.4375 756.75 612.3125 756.75 C 605.9375 756.75 605.4375 752.75 605.1875 750.875 C 604.8125 747.625 604.8125 740.75 604.9375 735.75 L 605.1875 718.125 L 616.4375 718.625 L 617.1875 717.875 L 618.4375 704.5 L 617.6875 703.75 L 605.1875 703.75 L 605.5625 682.75 L 604.6875 682 C 596.1875 684.5 593.9375 685.125 585.0625 687.375 L 584.5625 688.25 L 584.6875 703.875 L 577.9375 703.625 L 577.1875 704.25 L 576.0625 717.625 L 576.8125 718.375 L 584.6875 718.125 L 584.3125 738 C 584.1875 741.125 584.0625 744.25 584.0625 747.5 C 584.0625 759 584.3125 771.375 603.8125 771.375 C 608.6875 771.375 612.5625 770.625 616.9375 769.875 L 617.8125 769 L 619.0625 756.125 Z M 649.9375 769.125 C 649.3125 759.5 648.8125 752.125 648.8125 734.875 C 648.8125 724.25 649.0625 713.5 649.1875 702.875 L 648.3125 701.875 L 626.8125 705.625 L 626.0625 706.375 C 627.0625 715.875 627.4375 720.25 627.4375 738 C 627.4375 751.625 627.0625 759.25 626.6875 769.5 L 627.4375 770.375 C 636.4375 770 638.9375 769.875 649.0625 770 L 649.9375 769.125 M 647.9375 689.875 L 648.3125 672.875 L 647.5625 672.125 L 627.1875 674.625 L 626.4375 675.5 C 626.6875 680 626.8125 682.625 626.8125 685.625 C 626.8125 688 626.8125 690.5 626.6875 692.875 L 627.5625 693.625 C 636.0625 692.125 638.4375 691.875 647.3125 690.75 Z M 727.4375 736.75 C 727.4375 731.875 727.4375 711.625 709.9375 704.75 C 704.4375 702.625 697.9375 702.375 694.6875 702.375 C 672.9375 702.375 660.6875 714 660.6875 737 C 660.6875 745 661.9375 753.125 666.5625 759.875 C 669.8125 764.75 675.9375 771.5 693.8125 771.5 C 720.3125 771.5 727.4375 755.5 727.4375 736.75 M 705.8125 736.625 C 705.8125 746.875 704.4375 758.25 694.0625 758.25 C 690.8125 758.25 688.5625 756.75 687.0625 755.375 C 684.9375 753.25 682.5625 749 682.5625 736.875 C 682.5625 733.25 682.5625 725.25 685.0625 720.875 C 686.9375 717.5 690.1875 715.25 694.1875 715.25 C 697.6875 715.25 700.5625 717.125 702.1875 719.125 C 705.1875 722.75 705.8125 729.875 705.8125 736.625 Z M 800.5625 769.125 C 799.9375 758.125 799.9375 754.625 799.6875 742.375 L 799.6875 732.625 C 799.5625 720.625 799.4375 714.875 796.3125 709.75 C 792.4375 703.25 785.3125 702.25 780.8125 702.25 C 773.1875 702.25 766.5625 706.25 760.8125 709.625 L 761.0625 702.75 L 759.8125 701.875 C 750.1875 703.875 748.0625 704.25 738.6875 705.5 L 737.9375 706.375 C 738.9375 717.25 739.6875 725.125 739.6875 745.5 C 739.6875 753.5 739.5625 761.5 739.4375 769.5 L 740.1875 770.25 C 749.1875 769.875 751.0625 769.875 761.0625 769.875 L 761.8125 769.125 C 761.0625 749.875 760.9375 745 760.8125 722.625 C 763.4375 720.875 766.4375 718.75 770.4375 718.75 C 777.3125 718.75 777.9375 726.125 778.3125 730.625 C 778.5625 734.75 778.6875 751.875 778.6875 756.625 C 778.6875 760.875 778.5625 765.25 778.5625 769.5 L 779.3125 770.25 C 787.5625 770 789.6875 769.875 799.6875 769.875 Z M 807.3125 770 "/>
<path fill-rule="nonzero" fill="rgb(34.901961%, 14.901961%, 14.901961%)" fill-opacity="1" d="M 412.4375 831.375 C 400.4375 831.75 397.9375 831.75 384.5625 831.75 L 383.6875 832.5 C 377.0625 853.75 373.0625 866.375 354.6875 919.125 L 355.1875 920 L 374.6875 920 L 375.5625 919.25 L 381.6875 896.5 L 408.6875 896.5 L 414.0625 919.625 L 414.9375 920.375 C 424.0625 920 426.5625 919.875 436.6875 920 L 437.3125 919 C 422.1875 865.5 420.4375 859.625 413.3125 832.125 L 412.4375 831.375 M 386.0625 881.375 L 392.3125 860.25 L 396.6875 845.625 L 400.4375 861.875 L 405.0625 881.375 Z M 481.4375 873.625 L 484.9375 853.25 L 484.1875 852.375 C 483.3125 852.375 482.4375 852.25 481.5625 852.25 C 476.4375 852.25 470.6875 855.125 466.6875 864.375 L 467.0625 852.875 L 466.0625 851.875 C 456.8125 853.875 454.4375 854.25 445.3125 855.625 L 444.5625 856.375 C 445.3125 865.75 445.6875 871.375 445.6875 888.75 C 445.6875 899 445.5625 909.25 445.3125 919.625 L 446.0625 920.375 C 455.3125 920 457.3125 919.875 467.3125 920 L 467.9375 919.125 C 467.4375 909 466.6875 894.875 466.6875 886.25 C 466.6875 880.625 466.6875 872.375 475.1875 872.375 C 477.3125 872.375 478.5625 873.125 480.3125 874.125 Z M 547.6875 901.5 C 542.9375 904 537.3125 906.875 528.1875 906.875 C 520.6875 906.875 515.5625 904.5 512.5625 900 C 510.6875 897.375 510.3125 894.875 509.8125 892.375 L 550.1875 891.625 L 550.9375 890.75 C 550.8125 884.625 550.6875 878.375 548.9375 872.125 C 544.5625 857.375 534.9375 854.375 530.6875 853.375 C 527.5625 852.5 524.6875 852.25 521.8125 852.25 C 502.1875 852.25 489.1875 865.125 489.1875 886.75 C 489.1875 892.625 490.1875 898.75 492.1875 903.125 C 499.4375 920 516.4375 921.5 525.4375 921.5 C 535.8125 921.5 540.3125 919.625 546.9375 917 L 547.6875 916 L 548.5625 901.875 L 547.6875 901.5 M 509.8125 879.125 C 510.1875 875.25 511.0625 870 515.8125 867 C 517.3125 866 519.0625 865.625 520.8125 865.625 C 524.9375 865.625 527.4375 867.75 528.8125 870 C 530.5625 872.75 530.6875 875.75 530.6875 878.625 Z M 618.0625 882.75 C 618.1875 871.5 618.1875 866.625 614.9375 861.375 C 612.4375 857.375 607.4375 852.375 591.4375 852.375 C 580.6875 852.375 574.0625 854.375 566.9375 856.5 L 566.1875 857.5 L 565.5625 871.125 L 566.5625 871.625 C 570.9375 869.875 579.0625 866.625 587.4375 866.625 C 592.0625 866.625 593.9375 867.375 595.5625 869 C 596.8125 870.25 597.1875 872.5 597.1875 874.375 C 582.1875 876.375 575.1875 877.75 567.6875 882.375 C 560.6875 886.75 558.3125 893.875 558.3125 899.5 C 558.3125 912.875 567.9375 921.5 580.1875 921.5 C 589.5625 921.5 594.9375 917 597.5625 914.875 L 597.5625 919.5 L 598.3125 920.375 C 607.3125 920 610.0625 919.875 618.1875 920 L 618.8125 919.125 C 617.9375 906.875 617.9375 903.75 617.9375 892 L 618.0625 882.75 M 597.4375 902.625 C 594.8125 904.125 591.4375 905.875 587.3125 905.875 C 582.8125 905.875 579.0625 903.5 579.0625 898.25 C 579.0625 890 588.9375 888.625 597.4375 887.5 Z M 625.1875 920 "/>
</svg>
