<?xml version="1.0" encoding="UTF-8"?>
<svg xmlns="http://www.w3.org/2000/svg" xmlns:xlink="http://www.w3.org/1999/xlink" width="975" height="1300" viewBox="0 0 975 1300">
<path fill-rule="nonzero" fill="rgb(34.901961%, 14.901961%, 14.901961%)" fill-opacity="1" d="M 252.375 545 C 264 545.25 278.375 545.5 287.75 539 C 296 533.125 298.25 524.875 298.25 517.875 C 298.25 509.875 294.875 502.5 287.75 499 C 285.375 497.75 282.625 497.25 280 496.75 C 284.25 495 289.25 492.75 292.5 486.125 C 293.875 483.25 294.5 480.25 294.5 477.375 C 294.5 473.375 293.5 467.875 289.5 463.375 C 284.25 457.75 276.125 456.25 263.875 456.25 C 259.625 456.25 252 456.375 247.75 456.5 L 230.25 456.75 L 229.5 457.5 C 230 469.5 230.125 474.125 230.125 491.375 C 230.125 509.125 230 526.75 229.75 544.5 L 230.625 545 L 252.375 545 M 251.5 507 C 261 506.75 266.5 506.75 270.125 508.875 C 273.75 511.125 275.125 515.125 275.125 519.125 C 275.125 524.75 272 528.25 267.375 529.875 C 263.625 531.125 256.875 531.125 251.5 531 L 251.5 507 M 251.5 470.25 C 254.125 470.25 257.625 470.125 259.75 470.125 C 266.5 470.125 272.625 472.5 272.625 480.625 C 272.625 487.25 267.75 490 266.25 490.75 C 263.125 492.125 256.5 492.125 251.5 492.125 Z M 332.5 544.125 C 331.875 534.5 331.375 527.125 331.375 509.875 C 331.375 499.25 331.625 488.5 331.75 477.875 L 330.875 476.875 L 309.375 480.625 L 308.625 481.375 C 309.625 490.875 310 495.25 310 513 C 310 526.625 309.625 534.25 309.25 544.5 L 310 545.375 C 319 545 321.5 544.875 331.625 545 L 332.5 544.125 M 330.5 464.875 L 330.875 447.875 L 330.125 447.125 L 309.75 449.625 L 309 450.5 C 309.25 455 309.375 457.625 309.375 460.625 C 309.375 463 309.375 465.5 309.25 467.875 L 310.125 468.625 C 318.625 467.125 321 466.875 329.875 465.75 Z M 369.375 523.875 C 373.375 524 377.375 524.25 383.375 522.25 C 389.875 520 399.375 514.625 399.375 502.5 C 399.375 496.5 397.625 494 396 491.625 L 404.625 492.125 L 405.375 491.5 L 406.25 479 L 405.5 478.375 C 395.875 478.75 393.25 478.875 385.375 478.75 L 379.625 478.625 C 370.75 478.375 358.875 478.125 350.75 484.875 C 348 487 342.75 492.375 342.75 501.75 C 342.75 506.75 344.125 510.75 346.375 513.875 C 349.125 517.75 351.625 519.125 354.75 520.875 C 351.25 527.625 349.375 531 346.5 536.125 L 346.5 537.25 L 351.75 541 C 348 543.875 342.125 548.625 342.125 556.75 C 342.125 562.5 345.25 567.5 349.875 570.875 C 356.875 575.875 366.375 576.125 371.25 576.125 C 394.125 576.125 404.625 564.625 404.625 552.5 C 404.625 536.75 390.875 533.75 382.75 531.875 L 379.75 531.375 C 373.625 530.375 372.25 530 367.375 528.25 L 369.375 523.875 M 379.625 501.375 C 379.5 511.5 373.375 512.375 371.625 512.375 C 370.625 512.375 366.25 512.125 364.125 507.125 C 363 504.5 363 501.5 363 500.625 C 363 494.375 366.75 490.375 371.375 490.375 C 377.125 490.375 379.75 495.875 379.625 501.375 M 369 548 C 380.125 550.875 380.25 550.875 381.75 552.125 C 383 553 384.25 554.375 384.25 557 C 384.25 560.75 381.125 564.625 372.875 564.625 C 363.625 564.625 360.5 559.375 360.5 555 C 360.5 550.875 362.625 548.5 364.125 546.75 Z M 473.875 545 C 485.5 545.25 499.875 545.5 509.25 539 C 517.5 533.125 519.75 524.875 519.75 517.875 C 519.75 509.875 516.375 502.5 509.25 499 C 506.875 497.75 504.125 497.25 501.5 496.75 C 505.75 495 510.75 492.75 514 486.125 C 515.375 483.25 516 480.25 516 477.375 C 516 473.375 515 467.875 511 463.375 C 505.75 457.75 497.625 456.25 485.375 456.25 C 481.125 456.25 473.5 456.375 469.25 456.5 L 451.75 456.75 L 451 457.5 C 451.5 469.5 451.625 474.125 451.625 491.375 C 451.625 509.125 451.5 526.75 451.25 544.5 L 452.125 545 L 473.875 545 M 473 507 C 482.5 506.75 488 506.75 491.625 508.875 C 495.25 511.125 496.625 515.125 496.625 519.125 C 496.625 524.75 493.5 528.25 488.875 529.875 C 485.125 531.125 478.375 531.125 473 531 L 473 507 M 473 470.25 C 475.625 470.25 479.125 470.125 481.25 470.125 C 488 470.125 494.125 472.5 494.125 480.625 C 494.125 487.25 489.25 490 487.75 490.75 C 484.625 492.125 478 492.125 473 492.125 Z M 587 507.75 C 587.125 496.5 587.125 491.625 583.875 486.375 C 581.375 482.375 576.375 477.375 560.375 477.375 C 549.625 477.375 543 479.375 535.875 481.5 L 535.125 482.5 L 534.5 496.125 L 535.5 496.625 C 539.875 494.875 548 491.625 556.375 491.625 C 561 491.625 562.875 492.375 564.5 494 C 565.75 495.25 566.125 497.5 566.125 499.375 C 551.125 501.375 544.125 502.75 536.625 507.375 C 529.625 511.75 527.25 518.875 527.25 524.5 C 527.25 537.875 536.875 546.5 549.125 546.5 C 558.5 546.5 563.875 542 566.5 539.875 L 566.5 544.5 L 567.25 545.375 C 576.25 545 579 544.875 587.125 545 L 587.75 544.125 C 586.875 531.875 586.875 528.75 586.875 517 L 587 507.75 M 566.375 527.625 C 563.75 529.125 560.375 530.875 556.25 530.875 C 551.75 530.875 548 528.5 548 523.25 C 548 515 557.875 513.625 566.375 512.5 Z M 627.875 501.875 C 623.625 500.375 620.25 499 620.25 495.5 C 620.25 494 621.25 489.875 629 489.875 C 636.625 489.875 641.5 493.125 644.625 495.125 L 645.75 494.75 L 647 481.125 L 646.375 480.375 C 640.5 478.75 635.375 477.25 627.25 477.25 C 621.125 477.25 608.875 477.75 602.375 487.125 C 600.75 489.375 599 493.125 599 498.125 C 599 511.5 609.375 515.5 615.25 517.75 L 620 519.5 C 623.375 520.625 628.875 522.5 628.875 527 C 628.875 530.125 626 533.5 619 533.5 C 615.5 533.5 610.375 532.375 605.75 530 C 603.625 528.875 602.625 528 600.75 526.5 L 599.625 527 C 599.375 533.5 599.25 534.875 598.75 541.125 L 599.375 542.25 C 605.5 544.5 610.75 546.5 619.875 546.5 C 629.375 546.5 648.125 544.75 650.375 526.875 C 650.5 525.875 650.5 525 650.5 524.125 C 650.5 510.375 640.875 506.75 634 504.125 Z M 684.125 544.125 C 683.5 534.5 683 527.125 683 509.875 C 683 499.25 683.25 488.5 683.375 477.875 L 682.5 476.875 L 661 480.625 L 660.25 481.375 C 661.25 490.875 661.625 495.25 661.625 513 C 661.625 526.625 661.25 534.25 660.875 544.5 L 661.625 545.375 C 670.625 545 673.125 544.875 683.25 545 L 684.125 544.125 M 682.125 464.875 L 682.5 447.875 L 681.75 447.125 L 661.375 449.625 L 660.625 450.5 C 660.875 455 661 457.625 661 460.625 C 661 463 661 465.5 660.875 467.875 L 661.75 468.625 C 670.25 467.125 672.625 466.875 681.5 465.75 Z M 759.25 544.125 C 758.625 533.125 758.625 529.625 758.375 517.375 L 758.375 507.625 C 758.25 495.625 758.125 489.875 755 484.75 C 751.125 478.25 744 477.25 739.5 477.25 C 731.875 477.25 725.25 481.25 719.5 484.625 L 719.75 477.75 L 718.5 476.875 C 708.875 478.875 706.75 479.25 697.375 480.5 L 696.625 481.375 C 697.625 492.25 698.375 500.125 698.375 520.5 C 698.375 528.5 698.25 536.5 698.125 544.5 L 698.875 545.25 C 707.875 544.875 709.75 544.875 719.75 544.875 L 720.5 544.125 C 719.75 524.875 719.625 520 719.5 497.625 C 722.125 495.875 725.125 493.75 729.125 493.75 C 736 493.75 736.625 501.125 737 505.625 C 737.25 509.75 737.375 526.875 737.375 531.625 C 737.375 535.875 737.25 540.25 737.25 544.5 L 738 545.25 C 746.25 545 748.375 544.875 758.375 544.875 Z M 766 545 "/>
<path fill-rule="nonzero" fill="rgb(34.901961%, 14.901961%, 14.901961%)" fill-opacity="1" d="M 221.875 660.625 C 230.25 674.875 232.125 678.625 240.125 695 L 241.125 695.625 C 245 695.375 248.75 695.125 252.625 695 C 256.5 694.875 260.5 694.75 264.375 694.75 L 265.125 693.25 C 260.375 687.125 259 685.25 250 670.875 C 246 664.5 244 661.125 240.875 655.625 C 246.5 653.125 257.875 647.875 257.875 632 C 257.875 626.5 256.375 615.125 246.125 609.75 C 239.625 606.375 232.875 606.25 218.25 606.5 L 209.5 606.625 L 194.25 606.625 L 193.625 607.375 C 194.125 620 194.625 633 194.625 667 C 194.625 678.625 194.5 684.25 194.125 694.625 L 194.875 695.375 C 204 695 206 694.875 216.25 695 L 217 694.25 C 216 679.75 215.875 675.75 215.75 660.875 L 221.875 660.625 M 216 621.75 C 217.75 621.625 219.5 621.625 221.25 621.625 C 226.125 621.625 235.75 621.625 235.75 632.625 C 235.75 636.125 234.875 640.75 230.25 643.625 C 226.75 645.75 222.25 646 216 646.125 Z M 327.25 676.5 C 322.5 679 316.875 681.875 307.75 681.875 C 300.25 681.875 295.125 679.5 292.125 675 C 290.25 672.375 289.875 669.875 289.375 667.375 L 329.75 666.625 L 330.5 665.75 C 330.375 659.625 330.25 653.375 328.5 647.125 C 324.125 632.375 314.5 629.375 310.25 628.375 C 307.125 627.5 304.25 627.25 301.375 627.25 C 281.75 627.25 268.75 640.125 268.75 661.75 C 268.75 667.625 269.75 673.75 271.75 678.125 C 279 695 296 696.5 305 696.5 C 315.375 696.5 319.875 694.625 326.5 692 L 327.25 691 L 328.125 676.875 L 327.25 676.5 M 289.375 654.125 C 289.75 650.25 290.625 645 295.375 642 C 296.875 641 298.625 640.625 300.375 640.625 C 304.5 640.625 307 642.75 308.375 645 C 310.125 647.75 310.25 650.75 310.25 653.625 Z M 403.25 694.25 C 402.75 683 402.375 675.5 402.375 659.125 C 402.375 626.125 402.875 612.5 403.375 596 L 402.5 595.25 L 381.875 598.5 L 381.25 599.25 C 382 611 382.125 614.125 382 628.375 C 372.625 628.125 360.875 627.875 351.375 635.375 C 342.625 642.125 339 652.5 339 665.375 C 339 675.125 341.625 684.875 349 691 C 354.5 695.5 361.25 696.5 365.375 696.5 C 374.25 696.5 378.875 692.375 381.875 689.75 L 381.625 694.625 L 382.25 695.375 C 390.875 695 393.25 695 402.625 695 L 403.25 694.25 M 382 643.375 C 382.125 660 382 663.25 381.625 678.375 C 379.125 679.875 376.625 681.375 373.125 681.375 C 361 681.375 361 665.875 361 663.375 C 361 653.75 363.75 643 377.75 643 C 379.125 643 380.25 643.125 382 643.375 Z M 494.75 694.125 C 499.75 674.75 500.625 671.75 508.125 644.875 C 509.625 639.75 511 634.5 512.375 629.375 L 511.625 628.375 L 495.375 628.75 L 494.5 629.625 L 490.875 648.375 L 487.375 663.5 L 485 675 L 482.875 663.875 L 480.125 650.875 L 475.75 629.25 L 475 628.375 L 451 628.75 L 450.125 629.625 L 446 650.125 L 443 663.875 L 440.625 675.375 L 438.25 663 L 435.25 649.5 L 431 628.75 L 430.25 628.125 L 410 629.625 L 409.25 630.625 C 421 671.875 422.875 679.25 426.375 694.625 L 427.25 695.375 C 435.875 695 439 694.875 450.5 695 L 451.25 694.125 L 454.5 678.875 L 458 663.75 L 461.125 648.625 L 463 658.125 L 464.875 667.375 L 470.125 694.5 L 471 695.375 C 480.25 695 484 694.875 494 695 Z M 582.625 661.75 C 582.625 656.875 582.625 636.625 565.125 629.75 C 559.625 627.625 553.125 627.375 549.875 627.375 C 528.125 627.375 515.875 639 515.875 662 C 515.875 670 517.125 678.125 521.75 684.875 C 525 689.75 531.125 696.5 549 696.5 C 575.5 696.5 582.625 680.5 582.625 661.75 M 561 661.625 C 561 671.875 559.625 683.25 549.25 683.25 C 546 683.25 543.75 681.75 542.25 680.375 C 540.125 678.25 537.75 674 537.75 661.875 C 537.75 658.25 537.75 650.25 540.25 645.875 C 542.125 642.5 545.375 640.25 549.375 640.25 C 552.875 640.25 555.75 642.125 557.375 644.125 C 560.375 647.75 561 654.875 561 661.625 Z M 658.125 661.75 C 658.125 656.875 658.125 636.625 640.625 629.75 C 635.125 627.625 628.625 627.375 625.375 627.375 C 603.625 627.375 591.375 639 591.375 662 C 591.375 670 592.625 678.125 597.25 684.875 C 600.5 689.75 606.625 696.5 624.5 696.5 C 651 696.5 658.125 680.5 658.125 661.75 M 636.5 661.625 C 636.5 671.875 635.125 683.25 624.75 683.25 C 621.5 683.25 619.25 681.75 617.75 680.375 C 615.625 678.25 613.25 674 613.25 661.875 C 613.25 658.25 613.25 650.25 615.75 645.875 C 617.625 642.5 620.875 640.25 624.875 640.25 C 628.375 640.25 631.25 642.125 632.875 644.125 C 635.875 647.75 636.5 654.875 636.5 661.625 Z M 731.25 694.25 C 730.75 683 730.375 675.5 730.375 659.125 C 730.375 626.125 730.875 612.5 731.375 596 L 730.5 595.25 L 709.875 598.5 L 709.25 599.25 C 710 611 710.125 614.125 710 628.375 C 700.625 628.125 688.875 627.875 679.375 635.375 C 670.625 642.125 667 652.5 667 665.375 C 667 675.125 669.625 684.875 677 691 C 682.5 695.5 689.25 696.5 693.375 696.5 C 702.25 696.5 706.875 692.375 709.875 689.75 L 709.625 694.625 L 710.25 695.375 C 718.875 695 721.25 695 730.625 695 L 731.25 694.25 M 710 643.375 C 710.125 660 710 663.25 709.625 678.375 C 707.125 679.875 704.625 681.375 701.125 681.375 C 689 681.375 689 665.875 689 663.375 C 689 653.75 691.75 643 705.75 643 C 707.125 643 708.25 643.125 710 643.375 Z M 771.75 651.875 C 767.5 650.375 764.125 649 764.125 645.5 C 764.125 644 765.125 639.875 772.875 639.875 C 780.5 639.875 785.375 643.125 788.5 645.125 L 789.625 644.75 L 790.875 631.125 L 790.25 630.375 C 784.375 628.75 779.25 627.25 771.125 627.25 C 765 627.25 752.75 627.75 746.25 637.125 C 744.625 639.375 742.875 643.125 742.875 648.125 C 742.875 661.5 753.25 665.5 759.125 667.75 L 763.875 669.5 C 767.25 670.625 772.75 672.5 772.75 677 C 772.75 680.125 769.875 683.5 762.875 683.5 C 759.375 683.5 754.25 682.375 749.625 680 C 747.5 678.875 746.5 678 744.625 676.5 L 743.5 677 C 743.25 683.5 743.125 684.875 742.625 691.125 L 743.25 692.25 C 749.375 694.5 754.625 696.5 763.75 696.5 C 773.25 696.5 792 694.75 794.25 676.875 C 794.375 675.875 794.375 675 794.375 674.125 C 794.375 660.375 784.75 656.75 777.875 654.125 Z M 797.875 695 "/>
<path fill-rule="nonzero" fill="rgb(34.901961%, 14.901961%, 14.901961%)" fill-opacity="1" d="M 232.875 791.25 C 222.375 786.875 216.875 784.625 216.875 779 C 216.875 775.125 220.5 770.25 228.75 770.25 C 238.25 770.25 243.875 774.125 248.5 777.25 L 249.625 776.75 L 250.625 760.375 L 250 759.5 C 244.625 757.25 239 754.875 226.875 754.875 C 203.375 754.875 195.25 768.125 195.25 781.5 C 195.25 796.625 207 802.125 214 805.5 L 218.125 807.375 C 226.75 811 233.375 814.125 233.375 820.75 C 233.375 825.5 229.25 831.125 218.375 831.125 C 207 831.125 200.625 826.125 197 823.25 L 195.75 823.625 L 194.875 841.25 L 195.625 842.25 C 197 842.75 198.375 843.375 199.75 843.75 C 202.625 844.75 210 846.875 219.375 846.875 C 223.125 846.875 232.625 846.5 240.125 843 C 250.625 837.875 255.125 828.375 255.125 817.75 C 255.125 810.625 252.375 803 245.75 797.875 C 242.375 795.375 239.125 793.875 236.125 792.5 Z M 302 830.625 C 299.875 831.25 298.375 831.75 296.25 831.75 C 289.875 831.75 289.375 827.75 289.125 825.875 C 288.75 822.625 288.75 815.75 288.875 810.75 L 289.125 793.125 L 300.375 793.625 L 301.125 792.875 L 302.375 779.5 L 301.625 778.75 L 289.125 778.75 L 289.5 757.75 L 288.625 757 C 280.125 759.5 277.875 760.125 269 762.375 L 268.5 763.25 L 268.625 778.875 L 261.875 778.625 L 261.125 779.25 L 260 792.625 L 260.75 793.375 L 268.625 793.125 L 268.25 813 C 268.125 816.125 268 819.25 268 822.5 C 268 834 268.25 846.375 287.75 846.375 C 292.625 846.375 296.5 845.625 300.875 844.875 L 301.75 844 L 303 831.125 Z M 366.875 807.75 C 367 796.5 367 791.625 363.75 786.375 C 361.25 782.375 356.25 777.375 340.25 777.375 C 329.5 777.375 322.875 779.375 315.75 781.5 L 315 782.5 L 314.375 796.125 L 315.375 796.625 C 319.75 794.875 327.875 791.625 336.25 791.625 C 340.875 791.625 342.75 792.375 344.375 794 C 345.625 795.25 346 797.5 346 799.375 C 331 801.375 324 802.75 316.5 807.375 C 309.5 811.75 307.125 818.875 307.125 824.5 C 307.125 837.875 316.75 846.5 329 846.5 C 338.375 846.5 343.75 842 346.375 839.875 L 346.375 844.5 L 347.125 845.375 C 356.125 845 358.875 844.875 367 845 L 367.625 844.125 C 366.75 831.875 366.75 828.75 366.75 817 L 366.875 807.75 M 346.25 827.625 C 343.625 829.125 340.25 830.875 336.125 830.875 C 331.625 830.875 327.875 828.5 327.875 823.25 C 327.875 815 337.75 813.625 346.25 812.5 Z M 416.5 830.625 C 414.375 831.25 412.875 831.75 410.75 831.75 C 404.375 831.75 403.875 827.75 403.625 825.875 C 403.25 822.625 403.25 815.75 403.375 810.75 L 403.625 793.125 L 414.875 793.625 L 415.625 792.875 L 416.875 779.5 L 416.125 778.75 L 403.625 778.75 L 404 757.75 L 403.125 757 C 394.625 759.5 392.375 760.125 383.5 762.375 L 383 763.25 L 383.125 778.875 L 376.375 778.625 L 375.625 779.25 L 374.5 792.625 L 375.25 793.375 L 383.125 793.125 L 382.75 813 C 382.625 816.125 382.5 819.25 382.5 822.5 C 382.5 834 382.75 846.375 402.25 846.375 C 407.125 846.375 411 845.625 415.375 844.875 L 416.25 844 L 417.5 831.125 Z M 481.25 826.5 C 476.5 829 470.875 831.875 461.75 831.875 C 454.25 831.875 449.125 829.5 446.125 825 C 444.25 822.375 443.875 819.875 443.375 817.375 L 483.75 816.625 L 484.5 815.75 C 484.375 809.625 484.25 803.375 482.5 797.125 C 478.125 782.375 468.5 779.375 464.25 778.375 C 461.125 777.5 458.25 777.25 455.375 777.25 C 435.75 777.25 422.75 790.125 422.75 811.75 C 422.75 817.625 423.75 823.75 425.75 828.125 C 433 845 450 846.5 459 846.5 C 469.375 846.5 473.875 844.625 480.5 842 L 481.25 841 L 482.125 826.875 L 481.25 826.5 M 443.375 804.125 C 443.75 800.25 444.625 795 449.375 792 C 450.875 791 452.625 790.625 454.375 790.625 C 458.5 790.625 461 792.75 462.375 795 C 464.125 797.75 464.25 800.75 464.25 803.625 Z M 549.25 756.5 L 533.375 756.75 L 532.625 757.5 C 533.125 773.75 533.5 784.625 533.5 799 C 533.5 814.25 533.125 829.375 532.75 844.625 L 533.5 845.375 C 542.75 845 544.75 844.875 554.75 845 L 555.375 844.25 C 554.875 830.625 554.875 827.5 554.875 814.75 C 568.875 814.875 583.875 814.875 592.875 803.875 C 596.375 799.625 599.375 792.5 599.375 783.75 C 599.375 778.375 598.125 766.5 587.75 760.625 C 580.25 756.25 569.625 756.25 560.25 756.25 L 549.25 756.5 M 554.875 771.625 C 557.625 771.5 560.25 771.5 563 771.5 C 574 771.75 577 777.375 577 784.625 C 577 786.375 577 793.625 570.375 797.25 C 567 799.125 562.375 799.375 554.875 799.375 Z M 663.625 807.75 C 663.75 796.5 663.75 791.625 660.5 786.375 C 658 782.375 653 777.375 637 777.375 C 626.25 777.375 619.625 779.375 612.5 781.5 L 611.75 782.5 L 611.125 796.125 L 612.125 796.625 C 616.5 794.875 624.625 791.625 633 791.625 C 637.625 791.625 639.5 792.375 641.125 794 C 642.375 795.25 642.75 797.5 642.75 799.375 C 627.75 801.375 620.75 802.75 613.25 807.375 C 606.25 811.75 603.875 818.875 603.875 824.5 C 603.875 837.875 613.5 846.5 625.75 846.5 C 635.125 846.5 640.5 842 643.125 839.875 L 643.125 844.5 L 643.875 845.375 C 652.875 845 655.625 844.875 663.75 845 L 664.375 844.125 C 663.5 831.875 663.5 828.75 663.5 817 L 663.625 807.75 M 643 827.625 C 640.375 829.125 637 830.875 632.875 830.875 C 628.375 830.875 624.625 828.5 624.625 823.25 C 624.625 815 634.5 813.625 643 812.5 Z M 714.375 798.625 L 717.875 778.25 L 717.125 777.375 C 716.25 777.375 715.375 777.25 714.5 777.25 C 709.375 777.25 703.625 780.125 699.625 789.375 L 700 777.875 L 699 776.875 C 689.75 778.875 687.375 779.25 678.25 780.625 L 677.5 781.375 C 678.25 790.75 678.625 796.375 678.625 813.75 C 678.625 824 678.5 834.25 678.25 844.625 L 679 845.375 C 688.25 845 690.25 844.875 700.25 845 L 700.875 844.125 C 700.375 834 699.625 819.875 699.625 811.25 C 699.625 805.625 699.625 797.375 708.125 797.375 C 710.25 797.375 711.5 798.125 713.25 799.125 Z M 789.375 843.375 C 777.625 823.5 776.375 821.25 766.875 804.125 C 775.5 792.375 776.375 791.125 785.25 779.75 L 784.625 778.5 L 764.25 778.75 L 763 779.625 C 753.25 796.5 752 798.5 746.25 807.125 L 746.25 793.25 C 746.375 769.875 746.5 764.875 747.125 746 L 746.125 745.25 L 724.375 748.5 L 723.625 749.375 C 724.5 761.5 724.875 767.375 725.125 783.75 C 725.375 804 725.375 824.25 725.25 844.5 L 726.125 845.375 C 734.5 845 736.875 845 746.375 845 L 747.125 844.125 L 746.375 823 L 746.25 808.625 C 757.125 828.625 758.5 831.375 764.875 844.625 L 766 845.375 L 788.5 844.5 Z M 787.875 845 "/>
</svg>
