<?xml version="1.0" encoding="UTF-8"?>
<svg xmlns="http://www.w3.org/2000/svg" xmlns:xlink="http://www.w3.org/1999/xlink" width="975" height="1300" viewBox="0 0 975 1300">
<path fill-rule="nonzero" fill="rgb(34.901961%, 14.901961%, 14.901961%)" fill-opacity="1" d="M 359.0625 456.375 C 351.1875 456.75 349.0625 456.875 341.3125 456.75 L 340.6875 457.5 L 341.5625 474.375 L 342.0625 491.625 L 342.5625 512.25 C 338.9375 506.125 338.3125 505.125 331.9375 495.625 L 320.5625 479 C 311.1875 464.75 309.3125 462 306.1875 457 L 305.3125 456.375 C 295.4375 456.875 293.8125 456.875 284.6875 456.75 L 284.0625 457.5 C 284.6875 476.875 285.0625 491.25 285.0625 508 C 285.0625 520.25 284.8125 532.5 284.6875 544.625 L 285.3125 545.375 C 293.6875 545 296.3125 545 303.5625 545 L 304.1875 544.25 L 302.9375 516.875 L 302.5625 501.5 L 301.8125 484.75 C 307.6875 494.5 309.6875 497.75 318.1875 510.125 L 330.6875 528.5 L 341.8125 544.75 L 342.6875 545.375 C 350.3125 545 352.5625 545 359.1875 545 L 359.8125 544.375 C 359.6875 526.25 359.5625 514 359.5625 499 C 359.5625 485 359.6875 471.125 359.8125 457.125 Z M 430.6875 507.75 C 430.8125 496.5 430.8125 491.625 427.5625 486.375 C 425.0625 482.375 420.0625 477.375 404.0625 477.375 C 393.3125 477.375 386.6875 479.375 379.5625 481.5 L 378.8125 482.5 L 378.1875 496.125 L 379.1875 496.625 C 383.5625 494.875 391.6875 491.625 400.0625 491.625 C 404.6875 491.625 406.5625 492.375 408.1875 494 C 409.4375 495.25 409.8125 497.5 409.8125 499.375 C 394.8125 501.375 387.8125 502.75 380.3125 507.375 C 373.3125 511.75 370.9375 518.875 370.9375 524.5 C 370.9375 537.875 380.5625 546.5 392.8125 546.5 C 402.1875 546.5 407.5625 542 410.1875 539.875 L 410.1875 544.5 L 410.9375 545.375 C 419.9375 545 422.6875 544.875 430.8125 545 L 431.4375 544.125 C 430.5625 531.875 430.5625 528.75 430.5625 517 L 430.6875 507.75 M 410.0625 527.625 C 407.4375 529.125 404.0625 530.875 399.9375 530.875 C 395.4375 530.875 391.6875 528.5 391.6875 523.25 C 391.6875 515 401.5625 513.625 410.0625 512.5 Z M 480.3125 530.625 C 478.1875 531.25 476.6875 531.75 474.5625 531.75 C 468.1875 531.75 467.6875 527.75 467.4375 525.875 C 467.0625 522.625 467.0625 515.75 467.1875 510.75 L 467.4375 493.125 L 478.6875 493.625 L 479.4375 492.875 L 480.6875 479.5 L 479.9375 478.75 L 467.4375 478.75 L 467.8125 457.75 L 466.9375 457 C 458.4375 459.5 456.1875 460.125 447.3125 462.375 L 446.8125 463.25 L 446.9375 478.875 L 440.1875 478.625 L 439.4375 479.25 L 438.3125 492.625 L 439.0625 493.375 L 446.9375 493.125 L 446.5625 513 C 446.4375 516.125 446.3125 519.25 446.3125 522.5 C 446.3125 534 446.5625 546.375 466.0625 546.375 C 470.9375 546.375 474.8125 545.625 479.1875 544.875 L 480.0625 544 L 481.3125 531.125 Z M 549.5625 478.125 L 529.1875 479.125 L 528.3125 479.875 C 529.1875 494 529.1875 514 529.1875 516 C 529.1875 519.625 529.1875 521.625 529.0625 526.625 C 525.6875 528.875 523.0625 530.75 519.6875 530.75 C 510.6875 530.75 510.6875 521.25 510.6875 513.875 C 510.6875 510.75 510.6875 507.5 510.8125 504.375 L 511.0625 479.125 L 510.1875 478.125 L 489.5625 479.125 L 488.6875 479.875 C 489.4375 490.375 489.5625 493.875 489.5625 506.5 L 489.5625 515.25 C 489.4375 528.875 490.0625 534.625 494.5625 539.875 C 498.6875 544.5 504.6875 546.5 510.9375 546.5 C 519.8125 546.5 524.9375 542.5 529.4375 539 L 529.3125 544.625 L 530.1875 545.375 C 539.3125 545 542.0625 545 550.1875 545 L 550.9375 544.25 C 550.3125 535.375 550.0625 530.625 550.0625 514.375 C 550.0625 502.625 550.1875 490.875 550.4375 479.125 Z M 601.1875 498.625 L 604.6875 478.25 L 603.9375 477.375 C 603.0625 477.375 602.1875 477.25 601.3125 477.25 C 596.1875 477.25 590.4375 480.125 586.4375 489.375 L 586.8125 477.875 L 585.8125 476.875 C 576.5625 478.875 574.1875 479.25 565.0625 480.625 L 564.3125 481.375 C 565.0625 490.75 565.4375 496.375 565.4375 513.75 C 565.4375 524 565.3125 534.25 565.0625 544.625 L 565.8125 545.375 C 575.0625 545 577.0625 544.875 587.0625 545 L 587.6875 544.125 C 587.1875 534 586.4375 519.875 586.4375 511.25 C 586.4375 505.625 586.4375 497.375 594.9375 497.375 C 597.0625 497.375 598.3125 498.125 600.0625 499.125 Z M 667.5625 507.75 C 667.6875 496.5 667.6875 491.625 664.4375 486.375 C 661.9375 482.375 656.9375 477.375 640.9375 477.375 C 630.1875 477.375 623.5625 479.375 616.4375 481.5 L 615.6875 482.5 L 615.0625 496.125 L 616.0625 496.625 C 620.4375 494.875 628.5625 491.625 636.9375 491.625 C 641.5625 491.625 643.4375 492.375 645.0625 494 C 646.3125 495.25 646.6875 497.5 646.6875 499.375 C 631.6875 501.375 624.6875 502.75 617.1875 507.375 C 610.1875 511.75 607.8125 518.875 607.8125 524.5 C 607.8125 537.875 617.4375 546.5 629.6875 546.5 C 639.0625 546.5 644.4375 542 647.0625 539.875 L 647.0625 544.5 L 647.8125 545.375 C 656.8125 545 659.5625 544.875 667.6875 545 L 668.3125 544.125 C 667.4375 531.875 667.4375 528.75 667.4375 517 L 667.5625 507.75 M 646.9375 527.625 C 644.3125 529.125 640.9375 530.875 636.8125 530.875 C 632.3125 530.875 628.5625 528.5 628.5625 523.25 C 628.5625 515 638.4375 513.625 646.9375 512.5 Z M 704.1875 544.125 C 703.5625 529.75 702.9375 516.625 702.9375 477.125 C 702.9375 465.25 703.0625 459.625 703.5625 446.125 L 702.6875 445.25 L 681.3125 448.625 L 680.8125 449.375 C 682.0625 464.625 682.1875 468.75 682.4375 489 C 682.5625 496.375 682.5625 503.75 682.5625 511.125 C 682.5625 524.625 682.3125 532.125 681.8125 544.5 L 682.5625 545.375 C 690.9375 545 694.3125 544.875 703.4375 545 Z M 711.1875 545 "/>
<path fill-rule="nonzero" fill="rgb(34.901961%, 14.901961%, 14.901961%)" fill-opacity="1" d="M 136.5625 695 C 148.1875 695.25 162.5625 695.5 171.9375 689 C 180.1875 683.125 182.4375 674.875 182.4375 667.875 C 182.4375 659.875 179.0625 652.5 171.9375 649 C 169.5625 647.75 166.8125 647.25 164.1875 646.75 C 168.4375 645 173.4375 642.75 176.6875 636.125 C 178.0625 633.25 178.6875 630.25 178.6875 627.375 C 178.6875 623.375 177.6875 617.875 173.6875 613.375 C 168.4375 607.75 160.3125 606.25 148.0625 606.25 C 143.8125 606.25 136.1875 606.375 131.9375 606.5 L 114.4375 606.75 L 113.6875 607.5 C 114.1875 619.5 114.3125 624.125 114.3125 641.375 C 114.3125 659.125 114.1875 676.75 113.9375 694.5 L 114.8125 695 L 136.5625 695 M 135.6875 657 C 145.1875 656.75 150.6875 656.75 154.3125 658.875 C 157.9375 661.125 159.3125 665.125 159.3125 669.125 C 159.3125 674.75 156.1875 678.25 151.5625 679.875 C 147.8125 681.125 141.0625 681.125 135.6875 681 L 135.6875 657 M 135.6875 620.25 C 138.3125 620.25 141.8125 620.125 143.9375 620.125 C 150.6875 620.125 156.8125 622.5 156.8125 630.625 C 156.8125 637.25 151.9375 640 150.4375 640.75 C 147.3125 642.125 140.6875 642.125 135.6875 642.125 Z M 230.1875 648.625 L 233.6875 628.25 L 232.9375 627.375 C 232.0625 627.375 231.1875 627.25 230.3125 627.25 C 225.1875 627.25 219.4375 630.125 215.4375 639.375 L 215.8125 627.875 L 214.8125 626.875 C 205.5625 628.875 203.1875 629.25 194.0625 630.625 L 193.3125 631.375 C 194.0625 640.75 194.4375 646.375 194.4375 663.75 C 194.4375 674 194.3125 684.25 194.0625 694.625 L 194.8125 695.375 C 204.0625 695 206.0625 694.875 216.0625 695 L 216.6875 694.125 C 216.1875 684 215.4375 669.875 215.4375 661.25 C 215.4375 655.625 215.4375 647.375 223.9375 647.375 C 226.0625 647.375 227.3125 648.125 229.0625 649.125 Z M 263.5625 694.125 C 262.9375 684.5 262.4375 677.125 262.4375 659.875 C 262.4375 649.25 262.6875 638.5 262.8125 627.875 L 261.9375 626.875 L 240.4375 630.625 L 239.6875 631.375 C 240.6875 640.875 241.0625 645.25 241.0625 663 C 241.0625 676.625 240.6875 684.25 240.3125 694.5 L 241.0625 695.375 C 250.0625 695 252.5625 694.875 262.6875 695 L 263.5625 694.125 M 261.5625 614.875 L 261.9375 597.875 L 261.1875 597.125 L 240.8125 599.625 L 240.0625 600.5 C 240.3125 605 240.4375 607.625 240.4375 610.625 C 240.4375 613 240.4375 615.5 240.3125 617.875 L 241.1875 618.625 C 249.6875 617.125 252.0625 616.875 260.9375 615.75 Z M 338.6875 694.25 C 338.1875 683 337.8125 675.5 337.8125 659.125 C 337.8125 626.125 338.3125 612.5 338.8125 596 L 337.9375 595.25 L 317.3125 598.5 L 316.6875 599.25 C 317.4375 611 317.5625 614.125 317.4375 628.375 C 308.0625 628.125 296.3125 627.875 286.8125 635.375 C 278.0625 642.125 274.4375 652.5 274.4375 665.375 C 274.4375 675.125 277.0625 684.875 284.4375 691 C 289.9375 695.5 296.6875 696.5 300.8125 696.5 C 309.6875 696.5 314.3125 692.375 317.3125 689.75 L 317.0625 694.625 L 317.6875 695.375 C 326.3125 695 328.6875 695 338.0625 695 L 338.6875 694.25 M 317.4375 643.375 C 317.5625 660 317.4375 663.25 317.0625 678.375 C 314.5625 679.875 312.0625 681.375 308.5625 681.375 C 296.4375 681.375 296.4375 665.875 296.4375 663.375 C 296.4375 653.75 299.1875 643 313.1875 643 C 314.5625 643 315.6875 643.125 317.4375 643.375 Z M 375.9375 673.875 C 379.9375 674 383.9375 674.25 389.9375 672.25 C 396.4375 670 405.9375 664.625 405.9375 652.5 C 405.9375 646.5 404.1875 644 402.5625 641.625 L 411.1875 642.125 L 411.9375 641.5 L 412.8125 629 L 412.0625 628.375 C 402.4375 628.75 399.8125 628.875 391.9375 628.75 L 386.1875 628.625 C 377.3125 628.375 365.4375 628.125 357.3125 634.875 C 354.5625 637 349.3125 642.375 349.3125 651.75 C 349.3125 656.75 350.6875 660.75 352.9375 663.875 C 355.6875 667.75 358.1875 669.125 361.3125 670.875 C 357.8125 677.625 355.9375 681 353.0625 686.125 L 353.0625 687.25 L 358.3125 691 C 354.5625 693.875 348.6875 698.625 348.6875 706.75 C 348.6875 712.5 351.8125 717.5 356.4375 720.875 C 363.4375 725.875 372.9375 726.125 377.8125 726.125 C 400.6875 726.125 411.1875 714.625 411.1875 702.5 C 411.1875 686.75 397.4375 683.75 389.3125 681.875 L 386.3125 681.375 C 380.1875 680.375 378.8125 680 373.9375 678.25 L 375.9375 673.875 M 386.1875 651.375 C 386.0625 661.5 379.9375 662.375 378.1875 662.375 C 377.1875 662.375 372.8125 662.125 370.6875 657.125 C 369.5625 654.5 369.5625 651.5 369.5625 650.625 C 369.5625 644.375 373.3125 640.375 377.9375 640.375 C 383.6875 640.375 386.3125 645.875 386.1875 651.375 M 375.5625 698 C 386.6875 700.875 386.8125 700.875 388.3125 702.125 C 389.5625 703 390.8125 704.375 390.8125 707 C 390.8125 710.75 387.6875 714.625 379.4375 714.625 C 370.1875 714.625 367.0625 709.375 367.0625 705 C 367.0625 700.875 369.1875 698.5 370.6875 696.75 Z M 476.1875 676.5 C 471.4375 679 465.8125 681.875 456.6875 681.875 C 449.1875 681.875 444.0625 679.5 441.0625 675 C 439.1875 672.375 438.8125 669.875 438.3125 667.375 L 478.6875 666.625 L 479.4375 665.75 C 479.3125 659.625 479.1875 653.375 477.4375 647.125 C 473.0625 632.375 463.4375 629.375 459.1875 628.375 C 456.0625 627.5 453.1875 627.25 450.3125 627.25 C 430.6875 627.25 417.6875 640.125 417.6875 661.75 C 417.6875 667.625 418.6875 673.75 420.6875 678.125 C 427.9375 695 444.9375 696.5 453.9375 696.5 C 464.3125 696.5 468.8125 694.625 475.4375 692 L 476.1875 691 L 477.0625 676.875 L 476.1875 676.5 M 438.3125 654.125 C 438.6875 650.25 439.5625 645 444.3125 642 C 445.8125 641 447.5625 640.625 449.3125 640.625 C 453.4375 640.625 455.9375 642.75 457.3125 645 C 459.0625 647.75 459.1875 650.75 459.1875 653.625 Z M 517.1875 651.875 C 512.9375 650.375 509.5625 649 509.5625 645.5 C 509.5625 644 510.5625 639.875 518.3125 639.875 C 525.9375 639.875 530.8125 643.125 533.9375 645.125 L 535.0625 644.75 L 536.3125 631.125 L 535.6875 630.375 C 529.8125 628.75 524.6875 627.25 516.5625 627.25 C 510.4375 627.25 498.1875 627.75 491.6875 637.125 C 490.0625 639.375 488.3125 643.125 488.3125 648.125 C 488.3125 661.5 498.6875 665.5 504.5625 667.75 L 509.3125 669.5 C 512.6875 670.625 518.1875 672.5 518.1875 677 C 518.1875 680.125 515.3125 683.5 508.3125 683.5 C 504.8125 683.5 499.6875 682.375 495.0625 680 C 492.9375 678.875 491.9375 678 490.0625 676.5 L 488.9375 677 C 488.6875 683.5 488.5625 684.875 488.0625 691.125 L 488.6875 692.25 C 494.8125 694.5 500.0625 696.5 509.1875 696.5 C 518.6875 696.5 537.4375 694.75 539.6875 676.875 C 539.8125 675.875 539.8125 675 539.8125 674.125 C 539.8125 660.375 530.1875 656.75 523.3125 654.125 Z M 623.4375 641.25 C 612.9375 636.875 607.4375 634.625 607.4375 629 C 607.4375 625.125 611.0625 620.25 619.3125 620.25 C 628.8125 620.25 634.4375 624.125 639.0625 627.25 L 640.1875 626.75 L 641.1875 610.375 L 640.5625 609.5 C 635.1875 607.25 629.5625 604.875 617.4375 604.875 C 593.9375 604.875 585.8125 618.125 585.8125 631.5 C 585.8125 646.625 597.5625 652.125 604.5625 655.5 L 608.6875 657.375 C 617.3125 661 623.9375 664.125 623.9375 670.75 C 623.9375 675.5 619.8125 681.125 608.9375 681.125 C 597.5625 681.125 591.1875 676.125 587.5625 673.25 L 586.3125 673.625 L 585.4375 691.25 L 586.1875 692.25 C 587.5625 692.75 588.9375 693.375 590.3125 693.75 C 593.1875 694.75 600.5625 696.875 609.9375 696.875 C 613.6875 696.875 623.1875 696.5 630.6875 693 C 641.1875 687.875 645.6875 678.375 645.6875 667.75 C 645.6875 660.625 642.9375 653 636.3125 647.875 C 632.9375 645.375 629.6875 643.875 626.6875 642.5 Z M 692.5625 680.625 C 690.4375 681.25 688.9375 681.75 686.8125 681.75 C 680.4375 681.75 679.9375 677.75 679.6875 675.875 C 679.3125 672.625 679.3125 665.75 679.4375 660.75 L 679.6875 643.125 L 690.9375 643.625 L 691.6875 642.875 L 692.9375 629.5 L 692.1875 628.75 L 679.6875 628.75 L 680.0625 607.75 L 679.1875 607 C 670.6875 609.5 668.4375 610.125 659.5625 612.375 L 659.0625 613.25 L 659.1875 628.875 L 652.4375 628.625 L 651.6875 629.25 L 650.5625 642.625 L 651.3125 643.375 L 659.1875 643.125 L 658.8125 663 C 658.6875 666.125 658.5625 669.25 658.5625 672.5 C 658.5625 684 658.8125 696.375 678.3125 696.375 C 683.1875 696.375 687.0625 695.625 691.4375 694.875 L 692.3125 694 L 693.5625 681.125 Z M 757.4375 657.75 C 757.5625 646.5 757.5625 641.625 754.3125 636.375 C 751.8125 632.375 746.8125 627.375 730.8125 627.375 C 720.0625 627.375 713.4375 629.375 706.3125 631.5 L 705.5625 632.5 L 704.9375 646.125 L 705.9375 646.625 C 710.3125 644.875 718.4375 641.625 726.8125 641.625 C 731.4375 641.625 733.3125 642.375 734.9375 644 C 736.1875 645.25 736.5625 647.5 736.5625 649.375 C 721.5625 651.375 714.5625 652.75 707.0625 657.375 C 700.0625 661.75 697.6875 668.875 697.6875 674.5 C 697.6875 687.875 707.3125 696.5 719.5625 696.5 C 728.9375 696.5 734.3125 692 736.9375 689.875 L 736.9375 694.5 L 737.6875 695.375 C 746.6875 695 749.4375 694.875 757.5625 695 L 758.1875 694.125 C 757.3125 681.875 757.3125 678.75 757.3125 667 L 757.4375 657.75 M 736.8125 677.625 C 734.1875 679.125 730.8125 680.875 726.6875 680.875 C 722.1875 680.875 718.4375 678.5 718.4375 673.25 C 718.4375 665 728.3125 663.625 736.8125 662.5 Z M 807.0625 680.625 C 804.9375 681.25 803.4375 681.75 801.3125 681.75 C 794.9375 681.75 794.4375 677.75 794.1875 675.875 C 793.8125 672.625 793.8125 665.75 793.9375 660.75 L 794.1875 643.125 L 805.4375 643.625 L 806.1875 642.875 L 807.4375 629.5 L 806.6875 628.75 L 794.1875 628.75 L 794.5625 607.75 L 793.6875 607 C 785.1875 609.5 782.9375 610.125 774.0625 612.375 L 773.5625 613.25 L 773.6875 628.875 L 766.9375 628.625 L 766.1875 629.25 L 765.0625 642.625 L 765.8125 643.375 L 773.6875 643.125 L 773.3125 663 C 773.1875 666.125 773.0625 669.25 773.0625 672.5 C 773.0625 684 773.3125 696.375 792.8125 696.375 C 797.6875 696.375 801.5625 695.625 805.9375 694.875 L 806.8125 694 L 808.0625 681.125 Z M 871.8125 676.5 C 867.0625 679 861.4375 681.875 852.3125 681.875 C 844.8125 681.875 839.6875 679.5 836.6875 675 C 834.8125 672.375 834.4375 669.875 833.9375 667.375 L 874.3125 666.625 L 875.0625 665.75 C 874.9375 659.625 874.8125 653.375 873.0625 647.125 C 868.6875 632.375 859.0625 629.375 854.8125 628.375 C 851.6875 627.5 848.8125 627.25 845.9375 627.25 C 826.3125 627.25 813.3125 640.125 813.3125 661.75 C 813.3125 667.625 814.3125 673.75 816.3125 678.125 C 823.5625 695 840.5625 696.5 849.5625 696.5 C 859.9375 696.5 864.4375 694.625 871.0625 692 L 871.8125 691 L 872.6875 676.875 L 871.8125 676.5 M 833.9375 654.125 C 834.3125 650.25 835.1875 645 839.9375 642 C 841.4375 641 843.1875 640.625 844.9375 640.625 C 849.0625 640.625 851.5625 642.75 852.9375 645 C 854.6875 647.75 854.8125 650.75 854.8125 653.625 Z M 879.0625 695 "/>
<path fill-rule="nonzero" fill="rgb(34.901961%, 14.901961%, 14.901961%)" fill-opacity="1" d="M 346.25 845 C 357.875 845.25 372.25 845.5 381.625 839 C 389.875 833.125 392.125 824.875 392.125 817.875 C 392.125 809.875 388.75 802.5 381.625 799 C 379.25 797.75 376.5 797.25 373.875 796.75 C 378.125 795 383.125 792.75 386.375 786.125 C 387.75 783.25 388.375 780.25 388.375 777.375 C 388.375 773.375 387.375 767.875 383.375 763.375 C 378.125 757.75 370 756.25 357.75 756.25 C 353.5 756.25 345.875 756.375 341.625 756.5 L 324.125 756.75 L 323.375 757.5 C 323.875 769.5 324 774.125 324 791.375 C 324 809.125 323.875 826.75 323.625 844.5 L 324.5 845 L 346.25 845 M 345.375 807 C 354.875 806.75 360.375 806.75 364 808.875 C 367.625 811.125 369 815.125 369 819.125 C 369 824.75 365.875 828.25 361.25 829.875 C 357.5 831.125 350.75 831.125 345.375 831 L 345.375 807 M 345.375 770.25 C 348 770.25 351.5 770.125 353.625 770.125 C 360.375 770.125 366.5 772.5 366.5 780.625 C 366.5 787.25 361.625 790 360.125 790.75 C 357 792.125 350.375 792.125 345.375 792.125 Z M 459.25 826.5 C 454.5 829 448.875 831.875 439.75 831.875 C 432.25 831.875 427.125 829.5 424.125 825 C 422.25 822.375 421.875 819.875 421.375 817.375 L 461.75 816.625 L 462.5 815.75 C 462.375 809.625 462.25 803.375 460.5 797.125 C 456.125 782.375 446.5 779.375 442.25 778.375 C 439.125 777.5 436.25 777.25 433.375 777.25 C 413.75 777.25 400.75 790.125 400.75 811.75 C 400.75 817.625 401.75 823.75 403.75 828.125 C 411 845 428 846.5 437 846.5 C 447.375 846.5 451.875 844.625 458.5 842 L 459.25 841 L 460.125 826.875 L 459.25 826.5 M 421.375 804.125 C 421.75 800.25 422.625 795 427.375 792 C 428.875 791 430.625 790.625 432.375 790.625 C 436.5 790.625 439 792.75 440.375 795 C 442.125 797.75 442.25 800.75 442.25 803.625 Z M 529.625 807.75 C 529.75 796.5 529.75 791.625 526.5 786.375 C 524 782.375 519 777.375 503 777.375 C 492.25 777.375 485.625 779.375 478.5 781.5 L 477.75 782.5 L 477.125 796.125 L 478.125 796.625 C 482.5 794.875 490.625 791.625 499 791.625 C 503.625 791.625 505.5 792.375 507.125 794 C 508.375 795.25 508.75 797.5 508.75 799.375 C 493.75 801.375 486.75 802.75 479.25 807.375 C 472.25 811.75 469.875 818.875 469.875 824.5 C 469.875 837.875 479.5 846.5 491.75 846.5 C 501.125 846.5 506.5 842 509.125 839.875 L 509.125 844.5 L 509.875 845.375 C 518.875 845 521.625 844.875 529.75 845 L 530.375 844.125 C 529.5 831.875 529.5 828.75 529.5 817 L 529.625 807.75 M 509 827.625 C 506.375 829.125 503 830.875 498.875 830.875 C 494.375 830.875 490.625 828.5 490.625 823.25 C 490.625 815 500.5 813.625 509 812.5 Z M 593.125 827 C 589.75 829 586.5 831 580.125 831 C 566 831 563.125 819.25 563.125 811.75 C 563.125 802.625 567.125 792.125 579.25 792.125 C 584.75 792.125 587.75 794.125 591.5 796.625 L 592.75 796.25 C 593.25 789.625 593.375 787.875 594.375 781.25 L 593.75 780.5 C 588.25 778.75 583.5 777.25 576.25 777.25 C 546.875 777.25 541.125 799.5 541.125 812.25 C 541.125 826.625 548.625 846.125 576.75 846.125 C 583.375 846.125 587.625 844.875 592.875 843.375 L 593.625 842.625 L 594.125 827.625 Z M 665.375 844.125 C 664.875 833.875 664.75 830.375 664.5 817.375 L 664.5 808 C 664.375 796.125 664.25 789.25 660.625 784 C 657 778.875 651.75 777.25 646.25 777.25 C 637.125 777.25 630 781.625 625 784.625 L 625.375 746.125 L 624.625 745.25 L 603.25 748.625 L 602.625 749.375 C 603.75 761.5 604 766 604.25 782.125 C 604.5 792.25 604.625 802.375 604.625 812.5 C 604.625 824.875 604.375 832.25 604.125 844.5 L 604.75 845.375 C 614 844.875 615.875 844.875 626 844.875 L 626.75 844.125 C 625.875 825.375 625.75 819.75 625.625 797.625 C 628 796 631 793.875 635.25 793.875 C 642.125 793.875 642.625 801 643.125 806 C 643.375 809.875 643.5 827.625 643.5 832.25 C 643.5 836.375 643.375 840.375 643.375 844.5 L 644 845.375 C 653 844.875 655 844.875 664.625 844.875 Z M 672.125 845 "/>
</svg>
