<?xml version="1.0" encoding="UTF-8"?>
<svg xmlns="http://www.w3.org/2000/svg" xmlns:xlink="http://www.w3.org/1999/xlink" width="975" height="1300" viewBox="0 0 975 1300">
<path fill-rule="nonzero" fill="rgb(34.901961%, 14.901961%, 14.901961%)" fill-opacity="1" d="M 173.3125 531.375 C 160.3125 531.75 158.1875 531.75 144.3125 531.75 L 143.5625 532.5 L 137.8125 552.75 L 132.8125 570.875 L 126.9375 592.625 L 121.4375 570.25 L 117.9375 556.125 L 111.6875 532.125 L 111.0625 531.375 C 97.6875 531.75 95.4375 531.75 81.4375 531.75 L 80.6875 532.5 C 79.4375 569.875 78.9375 579.5 76.1875 619.625 L 76.8125 620.375 C 84.8125 620 87.1875 619.875 94.4375 620 L 95.1875 619.25 L 95.5625 595.375 L 96.3125 571.125 L 96.8125 547.5 L 102.3125 569.625 L 107.0625 587.375 L 115.4375 619.625 L 116.1875 620.375 C 123.9375 620 126.0625 619.875 134.8125 620 L 135.5625 619.25 L 142.8125 592.625 L 147.8125 574.375 L 154.8125 548.125 L 154.8125 570.5 L 155.0625 589.625 L 155.0625 619.625 L 155.6875 620.375 C 164.3125 620 167.6875 619.875 177.3125 620 L 177.9375 619.25 C 177.1875 605 176.3125 590.625 175.8125 576.25 C 175.4375 568.375 175.1875 560.5 174.8125 552.625 C 174.1875 541 174.0625 539.5 174.0625 532.125 Z M 247.6875 582.75 C 247.8125 571.5 247.8125 566.625 244.5625 561.375 C 242.0625 557.375 237.0625 552.375 221.0625 552.375 C 210.3125 552.375 203.6875 554.375 196.5625 556.5 L 195.8125 557.5 L 195.1875 571.125 L 196.1875 571.625 C 200.5625 569.875 208.6875 566.625 217.0625 566.625 C 221.6875 566.625 223.5625 567.375 225.1875 569 C 226.4375 570.25 226.8125 572.5 226.8125 574.375 C 211.8125 576.375 204.8125 577.75 197.3125 582.375 C 190.3125 586.75 187.9375 593.875 187.9375 599.5 C 187.9375 612.875 197.5625 621.5 209.8125 621.5 C 219.1875 621.5 224.5625 617 227.1875 614.875 L 227.1875 619.5 L 227.9375 620.375 C 236.9375 620 239.6875 619.875 247.8125 620 L 248.4375 619.125 C 247.5625 606.875 247.5625 603.75 247.5625 592 L 247.6875 582.75 M 227.0625 602.625 C 224.4375 604.125 221.0625 605.875 216.9375 605.875 C 212.4375 605.875 208.6875 603.5 208.6875 598.25 C 208.6875 590 218.5625 588.625 227.0625 587.5 Z M 323.5625 619.125 C 322.9375 608.125 322.9375 604.625 322.6875 592.375 L 322.6875 582.625 C 322.5625 570.625 322.4375 564.875 319.3125 559.75 C 315.4375 553.25 308.3125 552.25 303.8125 552.25 C 296.1875 552.25 289.5625 556.25 283.8125 559.625 L 284.0625 552.75 L 282.8125 551.875 C 273.1875 553.875 271.0625 554.25 261.6875 555.5 L 260.9375 556.375 C 261.9375 567.25 262.6875 575.125 262.6875 595.5 C 262.6875 603.5 262.5625 611.5 262.4375 619.5 L 263.1875 620.25 C 272.1875 619.875 274.0625 619.875 284.0625 619.875 L 284.8125 619.125 C 284.0625 599.875 283.9375 595 283.8125 572.625 C 286.4375 570.875 289.4375 568.75 293.4375 568.75 C 300.3125 568.75 300.9375 576.125 301.3125 580.625 C 301.5625 584.75 301.6875 601.875 301.6875 606.625 C 301.6875 610.875 301.5625 615.25 301.5625 619.5 L 302.3125 620.25 C 310.5625 620 312.6875 619.875 322.6875 619.875 Z M 373.9375 573.625 L 377.4375 553.25 L 376.6875 552.375 C 375.8125 552.375 374.9375 552.25 374.0625 552.25 C 368.9375 552.25 363.1875 555.125 359.1875 564.375 L 359.5625 552.875 L 358.5625 551.875 C 349.3125 553.875 346.9375 554.25 337.8125 555.625 L 337.0625 556.375 C 337.8125 565.75 338.1875 571.375 338.1875 588.75 C 338.1875 599 338.0625 609.25 337.8125 619.625 L 338.5625 620.375 C 347.8125 620 349.8125 619.875 359.8125 620 L 360.4375 619.125 C 359.9375 609 359.1875 594.875 359.1875 586.25 C 359.1875 580.625 359.1875 572.375 367.6875 572.375 C 369.8125 572.375 371.0625 573.125 372.8125 574.125 Z M 440.1875 601.5 C 435.4375 604 429.8125 606.875 420.6875 606.875 C 413.1875 606.875 408.0625 604.5 405.0625 600 C 403.1875 597.375 402.8125 594.875 402.3125 592.375 L 442.6875 591.625 L 443.4375 590.75 C 443.3125 584.625 443.1875 578.375 441.4375 572.125 C 437.0625 557.375 427.4375 554.375 423.1875 553.375 C 420.0625 552.5 417.1875 552.25 414.3125 552.25 C 394.6875 552.25 381.6875 565.125 381.6875 586.75 C 381.6875 592.625 382.6875 598.75 384.6875 603.125 C 391.9375 620 408.9375 621.5 417.9375 621.5 C 428.3125 621.5 432.8125 619.625 439.4375 617 L 440.1875 616 L 441.0625 601.875 L 440.1875 601.5 M 402.3125 579.125 C 402.6875 575.25 403.5625 570 408.3125 567 C 409.8125 566 411.5625 565.625 413.3125 565.625 C 417.4375 565.625 419.9375 567.75 421.3125 570 C 423.0625 572.75 423.1875 575.75 423.1875 578.625 Z M 481.1875 576.875 C 476.9375 575.375 473.5625 574 473.5625 570.5 C 473.5625 569 474.5625 564.875 482.3125 564.875 C 489.9375 564.875 494.8125 568.125 497.9375 570.125 L 499.0625 569.75 L 500.3125 556.125 L 499.6875 555.375 C 493.8125 553.75 488.6875 552.25 480.5625 552.25 C 474.4375 552.25 462.1875 552.75 455.6875 562.125 C 454.0625 564.375 452.3125 568.125 452.3125 573.125 C 452.3125 586.5 462.6875 590.5 468.5625 592.75 L 473.3125 594.5 C 476.6875 595.625 482.1875 597.5 482.1875 602 C 482.1875 605.125 479.3125 608.5 472.3125 608.5 C 468.8125 608.5 463.6875 607.375 459.0625 605 C 456.9375 603.875 455.9375 603 454.0625 601.5 L 452.9375 602 C 452.6875 608.5 452.5625 609.875 452.0625 616.125 L 452.6875 617.25 C 458.8125 619.5 464.0625 621.5 473.1875 621.5 C 482.6875 621.5 501.4375 619.75 503.6875 601.875 C 503.8125 600.875 503.8125 600 503.8125 599.125 C 503.8125 585.375 494.1875 581.75 487.3125 579.125 Z M 570.4375 582.75 C 570.5625 571.5 570.5625 566.625 567.3125 561.375 C 564.8125 557.375 559.8125 552.375 543.8125 552.375 C 533.0625 552.375 526.4375 554.375 519.3125 556.5 L 518.5625 557.5 L 517.9375 571.125 L 518.9375 571.625 C 523.3125 569.875 531.4375 566.625 539.8125 566.625 C 544.4375 566.625 546.3125 567.375 547.9375 569 C 549.1875 570.25 549.5625 572.5 549.5625 574.375 C 534.5625 576.375 527.5625 577.75 520.0625 582.375 C 513.0625 586.75 510.6875 593.875 510.6875 599.5 C 510.6875 612.875 520.3125 621.5 532.5625 621.5 C 541.9375 621.5 547.3125 617 549.9375 614.875 L 549.9375 619.5 L 550.6875 620.375 C 559.6875 620 562.4375 619.875 570.5625 620 L 571.1875 619.125 C 570.3125 606.875 570.3125 603.75 570.3125 592 L 570.4375 582.75 M 549.8125 602.625 C 547.1875 604.125 543.8125 605.875 539.6875 605.875 C 535.1875 605.875 531.4375 603.5 531.4375 598.25 C 531.4375 590 541.3125 588.625 549.8125 587.5 Z M 657.6875 566.25 C 647.1875 561.875 641.6875 559.625 641.6875 554 C 641.6875 550.125 645.3125 545.25 653.5625 545.25 C 663.0625 545.25 668.6875 549.125 673.3125 552.25 L 674.4375 551.75 L 675.4375 535.375 L 674.8125 534.5 C 669.4375 532.25 663.8125 529.875 651.6875 529.875 C 628.1875 529.875 620.0625 543.125 620.0625 556.5 C 620.0625 571.625 631.8125 577.125 638.8125 580.5 L 642.9375 582.375 C 651.5625 586 658.1875 589.125 658.1875 595.75 C 658.1875 600.5 654.0625 606.125 643.1875 606.125 C 631.8125 606.125 625.4375 601.125 621.8125 598.25 L 620.5625 598.625 L 619.6875 616.25 L 620.4375 617.25 C 621.8125 617.75 623.1875 618.375 624.5625 618.75 C 627.4375 619.75 634.8125 621.875 644.1875 621.875 C 647.9375 621.875 657.4375 621.5 664.9375 618 C 675.4375 612.875 679.9375 603.375 679.9375 592.75 C 679.9375 585.625 677.1875 578 670.5625 572.875 C 667.1875 570.375 663.9375 568.875 660.9375 567.5 Z M 726.8125 605.625 C 724.6875 606.25 723.1875 606.75 721.0625 606.75 C 714.6875 606.75 714.1875 602.75 713.9375 600.875 C 713.5625 597.625 713.5625 590.75 713.6875 585.75 L 713.9375 568.125 L 725.1875 568.625 L 725.9375 567.875 L 727.1875 554.5 L 726.4375 553.75 L 713.9375 553.75 L 714.3125 532.75 L 713.4375 532 C 704.9375 534.5 702.6875 535.125 693.8125 537.375 L 693.3125 538.25 L 693.4375 553.875 L 686.6875 553.625 L 685.9375 554.25 L 684.8125 567.625 L 685.5625 568.375 L 693.4375 568.125 L 693.0625 588 C 692.9375 591.125 692.8125 594.25 692.8125 597.5 C 692.8125 609 693.0625 621.375 712.5625 621.375 C 717.4375 621.375 721.3125 620.625 725.6875 619.875 L 726.5625 619 L 727.8125 606.125 Z M 791.6875 582.75 C 791.8125 571.5 791.8125 566.625 788.5625 561.375 C 786.0625 557.375 781.0625 552.375 765.0625 552.375 C 754.3125 552.375 747.6875 554.375 740.5625 556.5 L 739.8125 557.5 L 739.1875 571.125 L 740.1875 571.625 C 744.5625 569.875 752.6875 566.625 761.0625 566.625 C 765.6875 566.625 767.5625 567.375 769.1875 569 C 770.4375 570.25 770.8125 572.5 770.8125 574.375 C 755.8125 576.375 748.8125 577.75 741.3125 582.375 C 734.3125 586.75 731.9375 593.875 731.9375 599.5 C 731.9375 612.875 741.5625 621.5 753.8125 621.5 C 763.1875 621.5 768.5625 617 771.1875 614.875 L 771.1875 619.5 L 771.9375 620.375 C 780.9375 620 783.6875 619.875 791.8125 620 L 792.4375 619.125 C 791.5625 606.875 791.5625 603.75 791.5625 592 L 791.6875 582.75 M 771.0625 602.625 C 768.4375 604.125 765.0625 605.875 760.9375 605.875 C 756.4375 605.875 752.6875 603.5 752.6875 598.25 C 752.6875 590 762.5625 588.625 771.0625 587.5 Z M 841.3125 605.625 C 839.1875 606.25 837.6875 606.75 835.5625 606.75 C 829.1875 606.75 828.6875 602.75 828.4375 600.875 C 828.0625 597.625 828.0625 590.75 828.1875 585.75 L 828.4375 568.125 L 839.6875 568.625 L 840.4375 567.875 L 841.6875 554.5 L 840.9375 553.75 L 828.4375 553.75 L 828.8125 532.75 L 827.9375 532 C 819.4375 534.5 817.1875 535.125 808.3125 537.375 L 807.8125 538.25 L 807.9375 553.875 L 801.1875 553.625 L 800.4375 554.25 L 799.3125 567.625 L 800.0625 568.375 L 807.9375 568.125 L 807.5625 588 C 807.4375 591.125 807.3125 594.25 807.3125 597.5 C 807.3125 609 807.5625 621.375 827.0625 621.375 C 831.9375 621.375 835.8125 620.625 840.1875 619.875 L 841.0625 619 L 842.3125 606.125 Z M 906.0625 601.5 C 901.3125 604 895.6875 606.875 886.5625 606.875 C 879.0625 606.875 873.9375 604.5 870.9375 600 C 869.0625 597.375 868.6875 594.875 868.1875 592.375 L 908.5625 591.625 L 909.3125 590.75 C 909.1875 584.625 909.0625 578.375 907.3125 572.125 C 902.9375 557.375 893.3125 554.375 889.0625 553.375 C 885.9375 552.5 883.0625 552.25 880.1875 552.25 C 860.5625 552.25 847.5625 565.125 847.5625 586.75 C 847.5625 592.625 848.5625 598.75 850.5625 603.125 C 857.8125 620 874.8125 621.5 883.8125 621.5 C 894.1875 621.5 898.6875 619.625 905.3125 617 L 906.0625 616 L 906.9375 601.875 L 906.0625 601.5 M 868.1875 579.125 C 868.5625 575.25 869.4375 570 874.1875 567 C 875.6875 566 877.4375 565.625 879.1875 565.625 C 883.3125 565.625 885.8125 567.75 887.1875 570 C 888.9375 572.75 889.0625 575.75 889.0625 578.625 Z M 913.3125 620 "/>
<path fill-rule="nonzero" fill="rgb(34.901961%, 14.901961%, 14.901961%)" fill-opacity="1" d="M 346.25 770 C 357.875 770.25 372.25 770.5 381.625 764 C 389.875 758.125 392.125 749.875 392.125 742.875 C 392.125 734.875 388.75 727.5 381.625 724 C 379.25 722.75 376.5 722.25 373.875 721.75 C 378.125 720 383.125 717.75 386.375 711.125 C 387.75 708.25 388.375 705.25 388.375 702.375 C 388.375 698.375 387.375 692.875 383.375 688.375 C 378.125 682.75 370 681.25 357.75 681.25 C 353.5 681.25 345.875 681.375 341.625 681.5 L 324.125 681.75 L 323.375 682.5 C 323.875 694.5 324 699.125 324 716.375 C 324 734.125 323.875 751.75 323.625 769.5 L 324.5 770 L 346.25 770 M 345.375 732 C 354.875 731.75 360.375 731.75 364 733.875 C 367.625 736.125 369 740.125 369 744.125 C 369 749.75 365.875 753.25 361.25 754.875 C 357.5 756.125 350.75 756.125 345.375 756 L 345.375 732 M 345.375 695.25 C 348 695.25 351.5 695.125 353.625 695.125 C 360.375 695.125 366.5 697.5 366.5 705.625 C 366.5 712.25 361.625 715 360.125 715.75 C 357 717.125 350.375 717.125 345.375 717.125 Z M 459.25 751.5 C 454.5 754 448.875 756.875 439.75 756.875 C 432.25 756.875 427.125 754.5 424.125 750 C 422.25 747.375 421.875 744.875 421.375 742.375 L 461.75 741.625 L 462.5 740.75 C 462.375 734.625 462.25 728.375 460.5 722.125 C 456.125 707.375 446.5 704.375 442.25 703.375 C 439.125 702.5 436.25 702.25 433.375 702.25 C 413.75 702.25 400.75 715.125 400.75 736.75 C 400.75 742.625 401.75 748.75 403.75 753.125 C 411 770 428 771.5 437 771.5 C 447.375 771.5 451.875 769.625 458.5 767 L 459.25 766 L 460.125 751.875 L 459.25 751.5 M 421.375 729.125 C 421.75 725.25 422.625 720 427.375 717 C 428.875 716 430.625 715.625 432.375 715.625 C 436.5 715.625 439 717.75 440.375 720 C 442.125 722.75 442.25 725.75 442.25 728.625 Z M 529.625 732.75 C 529.75 721.5 529.75 716.625 526.5 711.375 C 524 707.375 519 702.375 503 702.375 C 492.25 702.375 485.625 704.375 478.5 706.5 L 477.75 707.5 L 477.125 721.125 L 478.125 721.625 C 482.5 719.875 490.625 716.625 499 716.625 C 503.625 716.625 505.5 717.375 507.125 719 C 508.375 720.25 508.75 722.5 508.75 724.375 C 493.75 726.375 486.75 727.75 479.25 732.375 C 472.25 736.75 469.875 743.875 469.875 749.5 C 469.875 762.875 479.5 771.5 491.75 771.5 C 501.125 771.5 506.5 767 509.125 764.875 L 509.125 769.5 L 509.875 770.375 C 518.875 770 521.625 769.875 529.75 770 L 530.375 769.125 C 529.5 756.875 529.5 753.75 529.5 742 L 529.625 732.75 M 509 752.625 C 506.375 754.125 503 755.875 498.875 755.875 C 494.375 755.875 490.625 753.5 490.625 748.25 C 490.625 740 500.5 738.625 509 737.5 Z M 593.125 752 C 589.75 754 586.5 756 580.125 756 C 566 756 563.125 744.25 563.125 736.75 C 563.125 727.625 567.125 717.125 579.25 717.125 C 584.75 717.125 587.75 719.125 591.5 721.625 L 592.75 721.25 C 593.25 714.625 593.375 712.875 594.375 706.25 L 593.75 705.5 C 588.25 703.75 583.5 702.25 576.25 702.25 C 546.875 702.25 541.125 724.5 541.125 737.25 C 541.125 751.625 548.625 771.125 576.75 771.125 C 583.375 771.125 587.625 769.875 592.875 768.375 L 593.625 767.625 L 594.125 752.625 Z M 665.375 769.125 C 664.875 758.875 664.75 755.375 664.5 742.375 L 664.5 733 C 664.375 721.125 664.25 714.25 660.625 709 C 657 703.875 651.75 702.25 646.25 702.25 C 637.125 702.25 630 706.625 625 709.625 L 625.375 671.125 L 624.625 670.25 L 603.25 673.625 L 602.625 674.375 C 603.75 686.5 604 691 604.25 707.125 C 604.5 717.25 604.625 727.375 604.625 737.5 C 604.625 749.875 604.375 757.25 604.125 769.5 L 604.75 770.375 C 614 769.875 615.875 769.875 626 769.875 L 626.75 769.125 C 625.875 750.375 625.75 744.75 625.625 722.625 C 628 721 631 718.875 635.25 718.875 C 642.125 718.875 642.625 726 643.125 731 C 643.375 734.875 643.5 752.625 643.5 757.25 C 643.5 761.375 643.375 765.375 643.375 769.5 L 644 770.375 C 653 769.875 655 769.875 664.625 769.875 Z M 672.125 770 "/>
</svg>
