<?xml version="1.0" encoding="UTF-8"?>
<svg xmlns="http://www.w3.org/2000/svg" xmlns:xlink="http://www.w3.org/1999/xlink" width="975" height="1300" viewBox="0 0 975 1300">
<path fill-rule="nonzero" fill="rgb(34.901961%, 14.901961%, 14.901961%)" fill-opacity="1" d="M 226 548.25 L 226.75 547.625 L 227.625 532 L 227 531.625 L 165.125 531.625 L 164.25 532.375 L 163.375 547.75 L 164 548.5 L 184.375 548 C 184.5 580.75 184.5 588.625 183.5 619.625 L 184.25 620.375 C 193.5 620 196 619.875 206.375 619.875 L 207.125 619.125 C 206.5 601.625 206.25 584.125 206.25 566.5 C 206.25 559.625 206.375 555.75 206.625 547.75 Z M 312.875 619.125 C 317.875 599.75 318.75 596.75 326.25 569.875 C 327.75 564.75 329.125 559.5 330.5 554.375 L 329.75 553.375 L 313.5 553.75 L 312.625 554.625 L 309 573.375 L 305.5 588.5 L 303.125 600 L 301 588.875 L 298.25 575.875 L 293.875 554.25 L 293.125 553.375 L 269.125 553.75 L 268.25 554.625 L 264.125 575.125 L 261.125 588.875 L 258.75 600.375 L 256.375 588 L 253.375 574.5 L 249.125 553.75 L 248.375 553.125 L 228.125 554.625 L 227.375 555.625 C 239.125 596.875 241 604.25 244.5 619.625 L 245.375 620.375 C 254 620 257.125 619.875 268.625 620 L 269.375 619.125 L 272.625 603.875 L 276.125 588.75 L 279.25 573.625 L 281.125 583.125 L 283 592.375 L 288.25 619.5 L 289.125 620.375 C 298.375 620 302.125 619.875 312.125 620 Z M 359.75 619.125 C 359.125 609.5 358.625 602.125 358.625 584.875 C 358.625 574.25 358.875 563.5 359 552.875 L 358.125 551.875 L 336.625 555.625 L 335.875 556.375 C 336.875 565.875 337.25 570.25 337.25 588 C 337.25 601.625 336.875 609.25 336.5 619.5 L 337.25 620.375 C 346.25 620 348.75 619.875 358.875 620 L 359.75 619.125 M 357.75 539.875 L 358.125 522.875 L 357.375 522.125 L 337 524.625 L 336.25 525.5 C 336.5 530 336.625 532.625 336.625 535.625 C 336.625 538 336.625 540.5 336.5 542.875 L 337.375 543.625 C 345.875 542.125 348.25 541.875 357.125 540.75 Z M 434.875 619.125 C 434.25 608.125 434.25 604.625 434 592.375 L 434 582.625 C 433.875 570.625 433.75 564.875 430.625 559.75 C 426.75 553.25 419.625 552.25 415.125 552.25 C 407.5 552.25 400.875 556.25 395.125 559.625 L 395.375 552.75 L 394.125 551.875 C 384.5 553.875 382.375 554.25 373 555.5 L 372.25 556.375 C 373.25 567.25 374 575.125 374 595.5 C 374 603.5 373.875 611.5 373.75 619.5 L 374.5 620.25 C 383.5 619.875 385.375 619.875 395.375 619.875 L 396.125 619.125 C 395.375 599.875 395.25 595 395.125 572.625 C 397.75 570.875 400.75 568.75 404.75 568.75 C 411.625 568.75 412.25 576.125 412.625 580.625 C 412.875 584.75 413 601.875 413 606.625 C 413 610.875 412.875 615.25 412.875 619.5 L 413.625 620.25 C 421.875 620 424 619.875 434 619.875 Z M 539.375 602.875 C 525.75 603.625 514.875 603.875 511.125 603.875 L 508.625 603.875 C 508.375 570.5 508.5 562 509.5 532.125 L 508.75 531.375 C 498 531.875 495.125 531.875 486.5 531.75 L 485.75 532.5 C 486.25 542.5 486.375 545.5 486.375 560.375 C 486.375 580.125 486.25 599.875 486.25 619.625 L 486.875 620.375 C 511.375 620 515.875 620 538.375 620 L 539 619.25 L 540 603.5 Z M 606.375 582.75 C 606.5 571.5 606.5 566.625 603.25 561.375 C 600.75 557.375 595.75 552.375 579.75 552.375 C 569 552.375 562.375 554.375 555.25 556.5 L 554.5 557.5 L 553.875 571.125 L 554.875 571.625 C 559.25 569.875 567.375 566.625 575.75 566.625 C 580.375 566.625 582.25 567.375 583.875 569 C 585.125 570.25 585.5 572.5 585.5 574.375 C 570.5 576.375 563.5 577.75 556 582.375 C 549 586.75 546.625 593.875 546.625 599.5 C 546.625 612.875 556.25 621.5 568.5 621.5 C 577.875 621.5 583.25 617 585.875 614.875 L 585.875 619.5 L 586.625 620.375 C 595.625 620 598.375 619.875 606.5 620 L 607.125 619.125 C 606.25 606.875 606.25 603.75 606.25 592 L 606.375 582.75 M 585.75 602.625 C 583.125 604.125 579.75 605.875 575.625 605.875 C 571.125 605.875 567.375 603.5 567.375 598.25 C 567.375 590 577.25 588.625 585.75 587.5 Z M 685.25 618.375 C 673.5 598.5 672.25 596.25 662.75 579.125 C 671.375 567.375 672.25 566.125 681.125 554.75 L 680.5 553.5 L 660.125 553.75 L 658.875 554.625 C 649.125 571.5 647.875 573.5 642.125 582.125 L 642.125 568.25 C 642.25 544.875 642.375 539.875 643 521 L 642 520.25 L 620.25 523.5 L 619.5 524.375 C 620.375 536.5 620.75 542.375 621 558.75 C 621.25 579 621.25 599.25 621.125 619.5 L 622 620.375 C 630.375 620 632.75 620 642.25 620 L 643 619.125 L 642.25 598 L 642.125 583.625 C 653 603.625 654.375 606.375 660.75 619.625 L 661.875 620.375 L 684.375 619.5 Z M 746.75 601.5 C 742 604 736.375 606.875 727.25 606.875 C 719.75 606.875 714.625 604.5 711.625 600 C 709.75 597.375 709.375 594.875 708.875 592.375 L 749.25 591.625 L 750 590.75 C 749.875 584.625 749.75 578.375 748 572.125 C 743.625 557.375 734 554.375 729.75 553.375 C 726.625 552.5 723.75 552.25 720.875 552.25 C 701.25 552.25 688.25 565.125 688.25 586.75 C 688.25 592.625 689.25 598.75 691.25 603.125 C 698.5 620 715.5 621.5 724.5 621.5 C 734.875 621.5 739.375 619.625 746 617 L 746.75 616 L 747.625 601.875 L 746.75 601.5 M 708.875 579.125 C 709.25 575.25 710.125 570 714.875 567 C 716.375 566 718.125 565.625 719.875 565.625 C 724 565.625 726.5 567.75 727.875 570 C 729.625 572.75 729.75 575.75 729.75 578.625 Z M 787.75 576.875 C 783.5 575.375 780.125 574 780.125 570.5 C 780.125 569 781.125 564.875 788.875 564.875 C 796.5 564.875 801.375 568.125 804.5 570.125 L 805.625 569.75 L 806.875 556.125 L 806.25 555.375 C 800.375 553.75 795.25 552.25 787.125 552.25 C 781 552.25 768.75 552.75 762.25 562.125 C 760.625 564.375 758.875 568.125 758.875 573.125 C 758.875 586.5 769.25 590.5 775.125 592.75 L 779.875 594.5 C 783.25 595.625 788.75 597.5 788.75 602 C 788.75 605.125 785.875 608.5 778.875 608.5 C 775.375 608.5 770.25 607.375 765.625 605 C 763.5 603.875 762.5 603 760.625 601.5 L 759.5 602 C 759.25 608.5 759.125 609.875 758.625 616.125 L 759.25 617.25 C 765.375 619.5 770.625 621.5 779.75 621.5 C 789.25 621.5 808 619.75 810.25 601.875 C 810.375 600.875 810.375 600 810.375 599.125 C 810.375 585.375 800.75 581.75 793.875 579.125 Z M 813.875 620 "/>
<path fill-rule="nonzero" fill="rgb(34.901961%, 14.901961%, 14.901961%)" fill-opacity="1" d="M 190.125 716.25 C 179.625 711.875 174.125 709.625 174.125 704 C 174.125 700.125 177.75 695.25 186 695.25 C 195.5 695.25 201.125 699.125 205.75 702.25 L 206.875 701.75 L 207.875 685.375 L 207.25 684.5 C 201.875 682.25 196.25 679.875 184.125 679.875 C 160.625 679.875 152.5 693.125 152.5 706.5 C 152.5 721.625 164.25 727.125 171.25 730.5 L 175.375 732.375 C 184 736 190.625 739.125 190.625 745.75 C 190.625 750.5 186.5 756.125 175.625 756.125 C 164.25 756.125 157.875 751.125 154.25 748.25 L 153 748.625 L 152.125 766.25 L 152.875 767.25 C 154.25 767.75 155.625 768.375 157 768.75 C 159.875 769.75 167.25 771.875 176.625 771.875 C 180.375 771.875 189.875 771.5 197.375 768 C 207.875 762.875 212.375 753.375 212.375 742.75 C 212.375 735.625 209.625 728 203 722.875 C 199.625 720.375 196.375 718.875 193.375 717.5 Z M 259.25 755.625 C 257.125 756.25 255.625 756.75 253.5 756.75 C 247.125 756.75 246.625 752.75 246.375 750.875 C 246 747.625 246 740.75 246.125 735.75 L 246.375 718.125 L 257.625 718.625 L 258.375 717.875 L 259.625 704.5 L 258.875 703.75 L 246.375 703.75 L 246.75 682.75 L 245.875 682 C 237.375 684.5 235.125 685.125 226.25 687.375 L 225.75 688.25 L 225.875 703.875 L 219.125 703.625 L 218.375 704.25 L 217.25 717.625 L 218 718.375 L 225.875 718.125 L 225.5 738 C 225.375 741.125 225.25 744.25 225.25 747.5 C 225.25 759 225.5 771.375 245 771.375 C 249.875 771.375 253.75 770.625 258.125 769.875 L 259 769 L 260.25 756.125 Z M 324.125 732.75 C 324.25 721.5 324.25 716.625 321 711.375 C 318.5 707.375 313.5 702.375 297.5 702.375 C 286.75 702.375 280.125 704.375 273 706.5 L 272.25 707.5 L 271.625 721.125 L 272.625 721.625 C 277 719.875 285.125 716.625 293.5 716.625 C 298.125 716.625 300 717.375 301.625 719 C 302.875 720.25 303.25 722.5 303.25 724.375 C 288.25 726.375 281.25 727.75 273.75 732.375 C 266.75 736.75 264.375 743.875 264.375 749.5 C 264.375 762.875 274 771.5 286.25 771.5 C 295.625 771.5 301 767 303.625 764.875 L 303.625 769.5 L 304.375 770.375 C 313.375 770 316.125 769.875 324.25 770 L 324.875 769.125 C 324 756.875 324 753.75 324 742 L 324.125 732.75 M 303.5 752.625 C 300.875 754.125 297.5 755.875 293.375 755.875 C 288.875 755.875 285.125 753.5 285.125 748.25 C 285.125 740 295 738.625 303.5 737.5 Z M 373.75 755.625 C 371.625 756.25 370.125 756.75 368 756.75 C 361.625 756.75 361.125 752.75 360.875 750.875 C 360.5 747.625 360.5 740.75 360.625 735.75 L 360.875 718.125 L 372.125 718.625 L 372.875 717.875 L 374.125 704.5 L 373.375 703.75 L 360.875 703.75 L 361.25 682.75 L 360.375 682 C 351.875 684.5 349.625 685.125 340.75 687.375 L 340.25 688.25 L 340.375 703.875 L 333.625 703.625 L 332.875 704.25 L 331.75 717.625 L 332.5 718.375 L 340.375 718.125 L 340 738 C 339.875 741.125 339.75 744.25 339.75 747.5 C 339.75 759 340 771.375 359.5 771.375 C 364.375 771.375 368.25 770.625 372.625 769.875 L 373.5 769 L 374.75 756.125 Z M 438.5 751.5 C 433.75 754 428.125 756.875 419 756.875 C 411.5 756.875 406.375 754.5 403.375 750 C 401.5 747.375 401.125 744.875 400.625 742.375 L 441 741.625 L 441.75 740.75 C 441.625 734.625 441.5 728.375 439.75 722.125 C 435.375 707.375 425.75 704.375 421.5 703.375 C 418.375 702.5 415.5 702.25 412.625 702.25 C 393 702.25 380 715.125 380 736.75 C 380 742.625 381 748.75 383 753.125 C 390.25 770 407.25 771.5 416.25 771.5 C 426.625 771.5 431.125 769.625 437.75 767 L 438.5 766 L 439.375 751.875 L 438.5 751.5 M 400.625 729.125 C 401 725.25 401.875 720 406.625 717 C 408.125 716 409.875 715.625 411.625 715.625 C 415.75 715.625 418.25 717.75 419.625 720 C 421.375 722.75 421.5 725.75 421.5 728.625 Z M 513 770 C 524.625 770.25 539 770.5 548.375 764 C 556.625 758.125 558.875 749.875 558.875 742.875 C 558.875 734.875 555.5 727.5 548.375 724 C 546 722.75 543.25 722.25 540.625 721.75 C 544.875 720 549.875 717.75 553.125 711.125 C 554.5 708.25 555.125 705.25 555.125 702.375 C 555.125 698.375 554.125 692.875 550.125 688.375 C 544.875 682.75 536.75 681.25 524.5 681.25 C 520.25 681.25 512.625 681.375 508.375 681.5 L 490.875 681.75 L 490.125 682.5 C 490.625 694.5 490.75 699.125 490.75 716.375 C 490.75 734.125 490.625 751.75 490.375 769.5 L 491.25 770 L 513 770 M 512.125 732 C 521.625 731.75 527.125 731.75 530.75 733.875 C 534.375 736.125 535.75 740.125 535.75 744.125 C 535.75 749.75 532.625 753.25 528 754.875 C 524.25 756.125 517.5 756.125 512.125 756 L 512.125 732 M 512.125 695.25 C 514.75 695.25 518.25 695.125 520.375 695.125 C 527.125 695.125 533.25 697.5 533.25 705.625 C 533.25 712.25 528.375 715 526.875 715.75 C 523.75 717.125 517.125 717.125 512.125 717.125 Z M 626 751.5 C 621.25 754 615.625 756.875 606.5 756.875 C 599 756.875 593.875 754.5 590.875 750 C 589 747.375 588.625 744.875 588.125 742.375 L 628.5 741.625 L 629.25 740.75 C 629.125 734.625 629 728.375 627.25 722.125 C 622.875 707.375 613.25 704.375 609 703.375 C 605.875 702.5 603 702.25 600.125 702.25 C 580.5 702.25 567.5 715.125 567.5 736.75 C 567.5 742.625 568.5 748.75 570.5 753.125 C 577.75 770 594.75 771.5 603.75 771.5 C 614.125 771.5 618.625 769.625 625.25 767 L 626 766 L 626.875 751.875 L 626 751.5 M 588.125 729.125 C 588.5 725.25 589.375 720 594.125 717 C 595.625 716 597.375 715.625 599.125 715.625 C 603.25 715.625 605.75 717.75 607.125 720 C 608.875 722.75 609 725.75 609 728.625 Z M 696.375 732.75 C 696.5 721.5 696.5 716.625 693.25 711.375 C 690.75 707.375 685.75 702.375 669.75 702.375 C 659 702.375 652.375 704.375 645.25 706.5 L 644.5 707.5 L 643.875 721.125 L 644.875 721.625 C 649.25 719.875 657.375 716.625 665.75 716.625 C 670.375 716.625 672.25 717.375 673.875 719 C 675.125 720.25 675.5 722.5 675.5 724.375 C 660.5 726.375 653.5 727.75 646 732.375 C 639 736.75 636.625 743.875 636.625 749.5 C 636.625 762.875 646.25 771.5 658.5 771.5 C 667.875 771.5 673.25 767 675.875 764.875 L 675.875 769.5 L 676.625 770.375 C 685.625 770 688.375 769.875 696.5 770 L 697.125 769.125 C 696.25 756.875 696.25 753.75 696.25 742 L 696.375 732.75 M 675.75 752.625 C 673.125 754.125 669.75 755.875 665.625 755.875 C 661.125 755.875 657.375 753.5 657.375 748.25 C 657.375 740 667.25 738.625 675.75 737.5 Z M 759.875 752 C 756.5 754 753.25 756 746.875 756 C 732.75 756 729.875 744.25 729.875 736.75 C 729.875 727.625 733.875 717.125 746 717.125 C 751.5 717.125 754.5 719.125 758.25 721.625 L 759.5 721.25 C 760 714.625 760.125 712.875 761.125 706.25 L 760.5 705.5 C 755 703.75 750.25 702.25 743 702.25 C 713.625 702.25 707.875 724.5 707.875 737.25 C 707.875 751.625 715.375 771.125 743.5 771.125 C 750.125 771.125 754.375 769.875 759.625 768.375 L 760.375 767.625 L 760.875 752.625 Z M 832.125 769.125 C 831.625 758.875 831.5 755.375 831.25 742.375 L 831.25 733 C 831.125 721.125 831 714.25 827.375 709 C 823.75 703.875 818.5 702.25 813 702.25 C 803.875 702.25 796.75 706.625 791.75 709.625 L 792.125 671.125 L 791.375 670.25 L 770 673.625 L 769.375 674.375 C 770.5 686.5 770.75 691 771 707.125 C 771.25 717.25 771.375 727.375 771.375 737.5 C 771.375 749.875 771.125 757.25 770.875 769.5 L 771.5 770.375 C 780.75 769.875 782.625 769.875 792.75 769.875 L 793.5 769.125 C 792.625 750.375 792.5 744.75 792.375 722.625 C 794.75 721 797.75 718.875 802 718.875 C 808.875 718.875 809.375 726 809.875 731 C 810.125 734.875 810.25 752.625 810.25 757.25 C 810.25 761.375 810.125 765.375 810.125 769.5 L 810.75 770.375 C 819.75 769.875 821.75 769.875 831.375 769.875 Z M 838.875 770 "/>
</svg>
