<svg xmlns="http://www.w3.org/2000/svg" width="612" height="817" viewBox="0 0 612 817">
  <defs>
    <style>
      .cls-1 {
        fill: #592626;
        fill-rule: evenodd;
      }
    </style>
  </defs>
  <path id="Wilder_Ranch_State_Park" data-name="Wilder Ranch State Park" class="cls-1" d="M126.247,390.6c2.878-14.155,4.122-20.066,12.366-54.208l-0.389-.467c-5.522.233-6.611,0.233-11.821,0.233l-0.467.467c-1.244,8.011-1.633,10.733-3.344,19.677l-2.256,11.9-2.489,13.377c-1.166-8.71-1.555-11.355-3.11-20.376l-2.256-13.066-1.944-11.978-0.467-.544-15.4.389-0.467.466-3.111,17.888L88.06,370.3l-1.944,10.733c-0.933-6.766-1.244-9.022-2.878-18.433l-2.022-11.355-2.567-15.4-0.467-.389c-6.688.467-7.777,0.467-13.455,0.623l-0.389.544c5.678,25.743,6.922,31.654,11.122,54.208l0.467,0.467c7.855-.311,9.955-0.311,17.577-0.233l0.544-.467,1.633-9.644,2.567-14.232,2.8-16.644c0.934,7.622,1.167,9.566,2.567,17.966l1.944,12.132,1.633,10.655,0.389,0.467c7.467-.233,10.033-0.311,18.277-0.233Zm28.935-.078c-0.388-5.988-.7-10.577-0.7-21.31,0-6.611.156-13.3,0.234-19.91l-0.545-.622-13.377,2.333-0.466.467c0.622,5.911.855,8.633,0.855,19.677,0,8.477-.233,13.221-0.467,19.6l0.467,0.544c5.6-.233,7.155-0.311,13.455-0.233Zm-1.244-49.308,0.233-10.578-0.466-.466-12.677,1.555-0.467.545c0.155,2.8.233,4.433,0.233,6.3,0,1.478,0,3.034-.078,4.511l0.545,0.467c5.289-.933,6.766-1.089,12.288-1.789Zm23.567,49.308c-0.389-8.944-.778-17.11-0.778-41.687,0-7.388.078-10.888,0.389-19.287L176.571,329l-13.3,2.1-0.311.467c0.778,9.488.855,12.055,1.011,24.654,0.078,4.589.078,9.177,0.078,13.766,0,8.4-.156,13.066-0.467,20.766l0.467,0.544c5.211-.233,7.311-0.311,12.988-0.233Zm47.132,0.078c-0.311-7-.545-11.666-0.545-21.854,0-20.533.312-29.01,0.623-39.276L224.17,329l-12.833,2.022-0.388.467c0.466,7.311.544,9.255,0.466,18.121-5.833-.155-13.144-0.311-19.054,4.356-5.445,4.2-7.7,10.655-7.7,18.665,0,6.067,1.633,12.133,6.222,15.944A16.4,16.4,0,0,0,201.071,392a14.244,14.244,0,0,0,10.266-4.2l-0.155,3.033,0.389,0.467c5.366-.233,6.844-0.233,12.677-0.233Zm-13.222-31.654c0.078,10.344,0,12.366-.233,21.777a9.839,9.839,0,0,1-5.289,1.866c-7.544,0-7.544-9.644-7.544-11.2,0-5.989,1.711-12.677,10.422-12.677A17.483,17.483,0,0,1,211.415,358.945Zm56.622,20.61A23.763,23.763,0,0,1,255.9,382.9c-4.666,0-7.855-1.478-9.721-4.278a11.016,11.016,0,0,1-1.712-4.744l25.121-.467,0.467-.544a45.605,45.605,0,0,0-1.244-11.589c-2.722-9.177-8.711-11.044-11.355-11.666a19.938,19.938,0,0,0-5.522-.7c-12.211,0-20.3,8.011-20.3,21.466a25.891,25.891,0,0,0,1.866,10.188c4.511,10.5,15.089,11.433,20.688,11.433,6.455,0,9.255-1.167,13.377-2.8l0.467-.622,0.544-8.788Zm-23.566-13.921c0.234-2.411.778-5.678,3.734-7.544a5.968,5.968,0,0,1,8.088,1.866,9.5,9.5,0,0,1,1.167,5.367Zm55.222-3.422,2.178-12.678-0.467-.544c-0.544,0-1.089-.078-1.633-0.078-3.189,0-6.766,1.789-9.255,7.544l0.233-7.155-0.622-.622c-5.755,1.244-7.233,1.478-12.911,2.333l-0.466.467c0.466,5.833.7,9.333,0.7,20.143,0,6.378-.078,12.755-0.234,19.21l0.467,0.467c5.755-.233,7-0.311,13.222-0.233l0.389-.545c-0.312-6.3-.778-15.088-0.778-20.454,0-3.5,0-8.633,5.288-8.633a5.823,5.823,0,0,1,3.189,1.089Zm46.978,7.466a236.234,236.234,0,0,1,11.355,21.388l0.622,0.389c2.411-.156,4.745-0.311,7.156-0.389s4.9-.156,7.31-0.156l0.467-.933c-2.955-3.811-3.811-4.978-9.411-13.922-2.488-3.966-3.733-6.066-5.677-9.488,3.5-1.556,10.577-4.822,10.577-14.7,0-3.422-.933-10.5-7.311-13.844-4.044-2.1-8.244-2.178-17.343-2.022l-5.445.078h-9.488l-0.389.466c0.311,7.855.622,15.944,0.622,37.1,0,7.233-.077,10.733-0.311,17.188l0.467,0.467c5.677-.233,6.922-0.311,13.3-0.233l0.467-.467c-0.622-9.022-.7-11.51-0.778-20.766Zm-3.655-24.188c1.089-.078,2.177-0.078,3.266-0.078,3.033,0,9.022,0,9.022,6.845a7.566,7.566,0,0,1-3.422,6.844c-2.178,1.322-4.978,1.477-8.866,1.555V345.49Zm69.3,22.4c0.078-7,.078-10.033-1.945-13.3-1.555-2.489-4.666-5.6-14.621-5.6a47.308,47.308,0,0,0-15.244,2.567l-0.466.622-0.389,8.477,0.622,0.311c2.722-1.089,7.777-3.111,12.988-3.111,2.878,0,4.044.467,5.055,1.478a4.9,4.9,0,0,1,1.012,3.344c-9.333,1.245-13.689,2.1-18.355,4.978a12.435,12.435,0,0,0-5.833,10.655c0,8.322,5.988,13.688,13.61,13.688a16.082,16.082,0,0,0,10.811-4.122v2.878l0.466,0.544c5.6-.233,7.311-0.311,12.367-0.233l0.388-.545c-0.544-7.621-.544-9.566-0.544-16.877Zm-12.833,12.366a12.6,12.6,0,0,1-6.3,2.022c-2.8,0-5.133-1.477-5.133-4.744,0-5.133,6.144-5.988,11.433-6.688v9.41Zm60.044,10.266c-0.389-6.844-.389-9.021-0.545-16.643v-6.067c-0.077-7.466-.155-11.044-2.1-14.232-2.411-4.045-6.844-4.667-9.644-4.667-4.744,0-8.866,2.489-12.443,4.589l0.155-4.278-0.778-.544c-5.988,1.244-7.31,1.478-13.143,2.255l-0.467.545a216.367,216.367,0,0,1,1.089,24.343c0,4.978-.078,9.955-0.156,14.933l0.467,0.466c5.6-.233,6.766-0.233,12.988-0.233l0.467-.467c-0.467-11.977-.545-15.01-0.622-28.932,1.633-1.088,3.5-2.411,5.988-2.411,4.278,0,4.667,4.589,4.9,7.389,0.155,2.567.233,13.222,0.233,16.177,0,2.644-.078,5.366-0.078,8.011l0.467,0.466c5.133-.155,6.455-0.233,12.677-0.233ZM498.8,379.866a13.849,13.849,0,0,1-8.089,2.489c-8.788,0-10.577-7.311-10.577-11.977,0-5.678,2.489-12.211,10.033-12.211,3.422,0,5.289,1.245,7.622,2.8l0.778-.233c0.311-4.122.388-5.211,1.011-9.333l-0.389-.467a32.358,32.358,0,0,0-10.889-2.022c-18.277,0-21.854,13.844-21.854,21.777,0,8.944,4.666,21.077,22.165,21.077a32.581,32.581,0,0,0,10.033-1.711l0.467-.467,0.311-9.333Zm44.955,10.655c-0.311-6.377-.389-8.555-0.544-16.643v-5.833c-0.078-7.389-.156-11.666-2.411-14.933-2.256-3.189-5.522-4.2-8.944-4.2-5.678,0-10.111,2.722-13.222,4.589l0.233-23.954L518.405,329l-13.3,2.1-0.389.467c0.7,7.544.856,10.344,1.012,20.376q0.232,9.45.233,18.9c0,7.7-.156,12.288-0.311,19.91l0.389,0.544c5.755-.311,6.922-0.311,13.221-0.311l0.467-.467c-0.545-11.666-.622-15.166-0.7-28.932a10.272,10.272,0,0,1,5.989-2.333c4.277,0,4.588,4.433,4.9,7.544,0.156,2.411.234,13.455,0.234,16.333,0,2.566-.078,5.055-0.078,7.622l0.389,0.544c5.6-.311,6.844-0.311,12.832-0.311Zm-394.8,60.435c-6.533-2.722-9.955-4.122-9.955-7.622,0-2.411,2.255-5.444,7.388-5.444,5.911,0,9.411,2.411,12.289,4.356l0.7-.312L160,431.746l-0.389-.544a31.855,31.855,0,0,0-14.388-2.878c-14.622,0-19.677,8.244-19.677,16.566,0,9.411,7.311,12.833,11.666,14.933l2.566,1.166c5.367,2.256,9.489,4.2,9.489,8.322,0,2.955-2.567,6.455-9.333,6.455a19.839,19.839,0,0,1-13.3-4.9l-0.778.234-0.544,10.966,0.466,0.622c0.856,0.311,1.711.7,2.567,0.933a38.707,38.707,0,0,0,12.21,1.945c2.333,0,8.244-.234,12.911-2.411,6.533-3.189,9.333-9.1,9.333-15.711a15.415,15.415,0,0,0-5.833-12.366,31.556,31.556,0,0,0-5.989-3.344Zm43.011,24.5a11.669,11.669,0,0,1-3.578.7c-3.966,0-4.277-2.489-4.433-3.655a89.18,89.18,0,0,1-.155-9.411l0.155-10.966,7,0.311,0.467-.467,0.777-8.321-0.466-.467H183.96l0.234-13.066-0.545-.467c-5.288,1.556-6.688,1.945-12.21,3.344l-0.311.545,0.077,9.722-4.2-.156-0.466.389-0.7,8.322,0.467,0.466,4.9-.155-0.233,12.366c-0.078,1.944-.156,3.889-0.156,5.911,0,7.155.156,14.855,12.289,14.855a45.168,45.168,0,0,0,8.166-.934l0.544-.544,0.778-8.011Zm40.366-14.233c0.078-7,.078-10.032-1.944-13.3-1.556-2.489-4.667-5.6-14.622-5.6a47.345,47.345,0,0,0-15.244,2.567l-0.466.622-0.389,8.477,0.622,0.312c2.722-1.089,7.778-3.111,12.988-3.111,2.878,0,4.045.466,5.056,1.477a4.909,4.909,0,0,1,1.011,3.345c-9.333,1.244-13.688,2.1-18.355,4.977a12.437,12.437,0,0,0-5.833,10.655c0,8.322,5.989,13.688,13.61,13.688a16.074,16.074,0,0,0,10.811-4.122v2.878l0.467,0.544c5.6-.233,7.31-0.311,12.366-0.233l0.389-.544c-0.545-7.622-.545-9.567-0.545-16.877ZM219.5,473.589a12.6,12.6,0,0,1-6.3,2.022c-2.8,0-5.133-1.478-5.133-4.745,0-5.133,6.144-5.988,11.432-6.688v9.411Zm43.711,1.866a11.669,11.669,0,0,1-3.577.7c-3.967,0-4.278-2.489-4.433-3.655a88.88,88.88,0,0,1-.156-9.411l0.156-10.966,7,0.311,0.467-.467,0.778-8.321-0.467-.467h-7.777l0.233-13.066-0.544-.467c-5.289,1.556-6.689,1.945-12.211,3.344l-0.311.545,0.078,9.722-4.2-.156-0.467.389-0.7,8.322,0.467,0.466,4.9-.155-0.234,12.366c-0.077,1.944-.155,3.889-0.155,5.911,0,7.155.155,14.855,12.288,14.855a45.168,45.168,0,0,0,8.166-.934l0.545-.544,0.778-8.011Zm38.733-2.566a23.773,23.773,0,0,1-12.133,3.344c-4.666,0-7.855-1.478-9.721-4.278a11,11,0,0,1-1.711-4.744l25.121-.467,0.466-.544a45.593,45.593,0,0,0-1.244-11.588c-2.722-9.178-8.711-11.044-11.355-11.666a19.9,19.9,0,0,0-5.522-.7c-12.211,0-20.3,8.01-20.3,21.465a25.893,25.893,0,0,0,1.866,10.189c4.511,10.5,15.089,11.432,20.688,11.432,6.456,0,9.255-1.166,13.377-2.8l0.467-.623,0.545-8.788Zm-23.565-13.922c0.233-2.411.777-5.677,3.733-7.544a5.967,5.967,0,0,1,8.088,1.867,9.5,9.5,0,0,1,1.167,5.366Zm65.877-29.632-9.877.156-0.467.466c0.312,10.111.545,16.877,0.545,25.821,0,9.489-.233,18.9-0.467,28.388l0.467,0.466c5.755-.233,7-0.311,13.221-0.233l0.389-.467c-0.311-8.477-.311-10.421-0.311-18.354,8.711,0.078,18.044.078,23.644-6.767a19.991,19.991,0,0,0,4.044-12.521c0-3.344-.778-10.733-7.233-14.388-4.667-2.722-11.277-2.722-17.11-2.722Zm3.5,9.411c1.711-.078,3.345-0.078,5.056-0.078,6.844,0.156,8.71,3.655,8.71,8.166,0,1.089,0,5.6-4.122,7.855-2.1,1.167-4.977,1.323-9.644,1.323V438.746Zm66.11,22.476c0.078-7,.078-10.032-1.944-13.3-1.556-2.489-4.666-5.6-14.622-5.6a47.333,47.333,0,0,0-15.243,2.567l-0.467.622-0.389,8.477,0.622,0.312c2.722-1.089,7.778-3.111,12.989-3.111,2.877,0,4.044.466,5.055,1.477a4.9,4.9,0,0,1,1.011,3.345c-9.333,1.244-13.688,2.1-18.355,4.977a12.437,12.437,0,0,0-5.833,10.655c0,8.322,5.989,13.688,13.611,13.688a16.074,16.074,0,0,0,10.81-4.122v2.878l0.467,0.544c5.6-.233,7.311-0.311,12.366-0.233l0.389-.544c-0.544-7.622-.544-9.567-0.544-16.877Zm-12.832,12.367a12.6,12.6,0,0,1-6.3,2.022c-2.8,0-5.133-1.478-5.133-4.745,0-5.133,6.144-5.988,11.433-6.688v9.411Zm44.411-18.044,2.177-12.677-0.466-.545c-0.545,0-1.089-.077-1.634-0.077-3.188,0-6.766,1.788-9.255,7.544l0.234-7.156-0.623-.622c-5.755,1.245-7.233,1.478-12.91,2.333l-0.467.467c0.467,5.833.7,9.333,0.7,20.144,0,6.377-.077,12.755-0.233,19.21l0.467,0.466c5.755-.233,7-0.311,13.221-0.233l0.389-.544c-0.311-6.3-.778-15.088-0.778-20.455,0-3.5,0-8.633,5.289-8.633a5.826,5.826,0,0,1,3.189,1.089Zm46.666,27.843c-7.311-12.366-8.089-13.766-14-24.421,5.367-7.311,5.911-8.088,11.433-15.166l-0.389-.778-12.677.156-0.778.544c-6.066,10.5-6.844,11.744-10.422,17.111V452.2c0.078-14.544.156-17.655,0.545-29.4l-0.622-.467-13.533,2.023-0.467.544c0.545,7.544.778,11.2,0.934,21.388,0.155,12.6.155,25.2,0.077,37.8l0.545,0.544c5.211-.233,6.688-0.233,12.6-0.233l0.467-.544-0.467-13.144-0.078-8.944c6.767,12.444,7.622,14.155,11.589,22.4l0.7,0.466,14-.544Z"/>
</svg>
