<svg xmlns="http://www.w3.org/2000/svg" width="612" height="817" viewBox="0 0 612 817">
  <defs>
    <style>
      .cls-1 {
        fill: #592626;
        fill-rule: evenodd;
      }
    </style>
  </defs>
  <path id="Lighthouse_Field_State_Beach" data-name="Lighthouse Field State Beach" class="cls-1" d="M143.709,334.411c-8.477.466-15.243,0.622-17.577,0.622h-1.555c-0.156-20.766-.078-26.054.544-44.642l-0.466-.467c-6.689.311-8.478,0.311-13.844,0.233l-0.467.467c0.311,6.222.389,8.088,0.389,17.344,0,12.288-.078,24.576-0.078,36.864l0.389,0.467c15.244-.233,18.044-0.233,32.043-0.233l0.389-.467,0.622-9.8Zm21.157,10.11c-0.389-5.988-.7-10.577-0.7-21.31,0-6.611.155-13.3,0.233-19.91l-0.544-.622-13.377,2.333-0.467.467c0.622,5.911.855,8.633,0.855,19.677,0,8.477-.233,13.221-0.466,19.6l0.466,0.544c5.6-.233,7.156-0.311,13.455-0.233Zm-1.245-49.308,0.234-10.578-0.467-.466-12.677,1.555-0.467.545c0.156,2.8.234,4.433,0.234,6.3,0,1.478,0,3.034-.078,4.511l0.544,0.467c5.289-.933,6.767-1.089,12.289-1.789Zm24.189,36.709a21.831,21.831,0,0,0,8.711-1.011c4.044-1.4,9.955-4.744,9.955-12.288a10.175,10.175,0,0,0-2.1-6.767l5.366,0.311,0.467-.388L210.754,304l-0.467-.389c-5.989.234-7.622,0.311-12.522,0.234l-3.577-.078c-5.522-.156-12.911-0.311-17.966,3.888a13.051,13.051,0,0,0-4.978,10.5A12.593,12.593,0,0,0,173.5,325.7a13.343,13.343,0,0,0,5.211,4.355c-2.178,4.2-3.345,6.3-5.133,9.489v0.7l3.266,2.333c-2.333,1.789-5.989,4.744-5.989,9.8a10.966,10.966,0,0,0,4.822,8.788c4.356,3.111,10.267,3.267,13.3,3.267,14.232,0,20.765-7.156,20.765-14.7,0-9.8-8.555-11.666-13.61-12.832l-1.867-.312a32.689,32.689,0,0,1-7.7-1.944Zm6.378-14c-0.078,6.3-3.889,6.844-4.978,6.844a5.033,5.033,0,0,1-4.666-3.267,10.715,10.715,0,0,1-.7-4.044c0-3.889,2.333-6.377,5.211-6.377C192.632,311.079,194.265,314.5,194.188,317.923Zm-6.611,29.009c6.922,1.789,7,1.789,7.933,2.567a3.428,3.428,0,0,1,1.555,3.033c0,2.333-1.944,4.744-7.077,4.744-5.755,0-7.7-3.266-7.7-5.988a7.383,7.383,0,0,1,2.256-5.133Zm66.188-2.411c-0.311-6.377-.389-8.555-0.545-16.643v-5.833c-0.078-7.389-.155-11.666-2.411-14.933-2.255-3.189-5.522-4.2-8.944-4.2-5.677,0-10.11,2.722-13.221,4.589l0.233-23.954L228.41,283l-13.3,2.1-0.389.467c0.7,7.544.856,10.344,1.011,20.376q0.234,9.45.233,18.9c0,7.7-.155,12.288-0.311,19.91l0.389,0.544c5.755-.311,6.922-0.311,13.222-0.311l0.466-.467c-0.544-11.666-.622-15.166-0.7-28.932a10.275,10.275,0,0,1,5.989-2.333c4.278,0,4.589,4.433,4.9,7.544,0.155,2.411.233,13.455,0.233,16.333,0,2.566-.078,5.055-0.078,7.622l0.389,0.544c5.6-.311,6.844-0.311,12.833-0.311Zm30.645-8.4a11.675,11.675,0,0,1-3.578.7c-3.966,0-4.277-2.489-4.433-3.656a89.161,89.161,0,0,1-.155-9.41L276.4,312.79l7,0.311,0.466-.467,0.778-8.322-0.466-.466H276.4l0.233-13.066-0.544-.467c-5.289,1.555-6.689,1.944-12.211,3.344l-0.311.545,0.078,9.721-4.2-.155-0.466.389-0.7,8.321,0.466,0.467,4.9-.155-0.233,12.366c-0.078,1.944-.156,3.888-0.156,5.91,0,7.156.156,14.855,12.289,14.855a45.17,45.17,0,0,0,8.166-.933l0.544-.544,0.778-8.011Zm43.866,8.4c-0.311-6.377-.389-8.555-0.545-16.643v-5.833c-0.077-7.389-.155-11.666-2.411-14.933-2.255-3.189-5.522-4.2-8.944-4.2-5.677,0-10.11,2.722-13.221,4.589l0.233-23.954L302.921,283l-13.3,2.1-0.389.467c0.7,7.544.856,10.344,1.011,20.376q0.234,9.45.234,18.9c0,7.7-.156,12.288-0.312,19.91l0.389,0.544c5.756-.311,6.922-0.311,13.222-0.311l0.467-.467c-0.545-11.666-.623-15.166-0.7-28.932a10.269,10.269,0,0,1,5.988-2.333c4.278,0,4.589,4.433,4.9,7.544,0.155,2.411.233,13.455,0.233,16.333,0,2.566-.078,5.055-0.078,7.622l0.389,0.544c5.6-.311,6.844-0.311,12.833-0.311Zm48.455-20.143c0-3.033,0-15.633-10.888-19.91a27.958,27.958,0,0,0-9.489-1.478c-13.532,0-21.154,7.233-21.154,21.543,0,4.978.778,10.033,3.655,14.233C340.877,341.8,344.688,346,355.81,346,372.3,346,376.731,336.044,376.731,324.378Zm-13.455-.078c0,6.378-.855,13.455-7.31,13.455a6.288,6.288,0,0,1-4.356-1.789c-1.322-1.322-2.8-3.966-2.8-11.51,0-2.256,0-7.233,1.556-9.955a6.44,6.44,0,0,1,5.677-3.5,6.538,6.538,0,0,1,4.978,2.411C362.887,315.667,363.276,320.1,363.276,324.3Zm58.178-20.843-12.678.622-0.544.467c0.544,8.788.544,21.232,0.544,22.476,0,2.256,0,3.5-.077,6.611-2.1,1.4-3.734,2.567-5.833,2.567-5.6,0-5.6-5.911-5.6-10.5,0-1.944,0-3.966.078-5.911l0.155-15.71-0.544-.622-12.833.622-0.544.467c0.466,6.533.544,8.71,0.544,16.565v5.445c-0.078,8.477.311,12.055,3.111,15.321A13.318,13.318,0,0,0,397.421,346c5.522,0,8.711-2.489,11.511-4.666l-0.078,3.5L409.4,345.3c5.677-.233,7.388-0.233,12.443-0.233l0.467-.467c-0.389-5.522-.544-8.477-0.544-18.588q0-10.967.233-21.932Zm25.978,14.777c-2.644-.934-4.744-1.789-4.744-3.967,0-.933.622-3.5,5.444-3.5a16.878,16.878,0,0,1,9.722,3.267l0.7-.233,0.778-8.478-0.389-.466a39.613,39.613,0,0,0-11.9-1.945c-3.81,0-11.432.311-15.477,6.144a11.694,11.694,0,0,0-2.1,6.845c0,8.321,6.456,10.81,10.111,12.21l2.956,1.089c2.1,0.7,5.522,1.866,5.522,4.666,0,1.945-1.789,4.045-6.145,4.045a19.461,19.461,0,0,1-8.244-2.178,17.186,17.186,0,0,1-3.111-2.178l-0.7.311c-0.155,4.045-.233,4.9-0.544,8.789l0.389,0.7c3.811,1.4,7.077,2.644,12.755,2.644,5.911,0,17.577-1.089,18.977-12.21a13.324,13.324,0,0,0,.077-1.711c0-8.556-5.988-10.811-10.266-12.444Zm55.455,15.321a23.763,23.763,0,0,1-12.133,3.345c-4.666,0-7.855-1.478-9.722-4.278a11.027,11.027,0,0,1-1.711-4.744l25.121-.467,0.467-.544a45.605,45.605,0,0,0-1.244-11.589c-2.722-9.177-8.711-11.044-11.355-11.666a19.938,19.938,0,0,0-5.522-.7c-12.211,0-20.3,8.011-20.3,21.466a25.891,25.891,0,0,0,1.866,10.188c4.511,10.5,15.088,11.433,20.688,11.433,6.455,0,9.255-1.167,13.377-2.8l0.467-.622,0.544-8.788Zm-23.566-13.921c0.234-2.411.778-5.678,3.734-7.544a5.968,5.968,0,0,1,8.088,1.866,9.5,9.5,0,0,1,1.167,5.367ZM150.359,416l0.545-.466,0.622-9.1-0.389-.467-17.732.623V393.6l19.054,0.234,0.467-.545,0.855-9.644-0.466-.389c-12.833.234-16.955,0.234-33.754,0.156l-0.467.467c0.467,7.621.778,13.766,0.778,27.532,0,8.944-.156,17.888-0.311,26.832l0.389,0.388c5.677-.233,7-0.233,13.844-0.233l0.388-.467c-0.544-8.944-.622-11.666-0.855-21.932h17.032Zm23.412,21.855c-0.389-5.989-.7-10.578-0.7-21.31,0-6.611.156-13.3,0.234-19.911l-0.545-.622-13.377,2.333-0.467.467c0.623,5.911.856,8.633,0.856,19.677,0,8.477-.233,13.222-0.467,19.6l0.467,0.544c5.6-.233,7.155-0.311,13.455-0.233Zm-1.244-49.309,0.233-10.577-0.466-.467-12.678,1.556-0.466.544c0.155,2.8.233,4.433,0.233,6.3,0,1.477,0,3.033-.078,4.511l0.545,0.466c5.288-.933,6.766-1.089,12.288-1.789Zm44.41,38.343a23.773,23.773,0,0,1-12.133,3.344c-4.666,0-7.855-1.478-9.721-4.278a11.012,11.012,0,0,1-1.712-4.744l25.121-.467,0.467-.544a45.593,45.593,0,0,0-1.244-11.588c-2.722-9.178-8.711-11.044-11.355-11.666a19.9,19.9,0,0,0-5.522-.7c-12.211,0-20.3,8.01-20.3,21.465a25.893,25.893,0,0,0,1.866,10.189c4.511,10.5,15.088,11.432,20.688,11.432,6.455,0,9.255-1.166,13.377-2.8l0.467-.623,0.544-8.788Zm-23.566-13.922c0.234-2.411.778-5.677,3.734-7.544a5.967,5.967,0,0,1,8.088,1.867,9.5,9.5,0,0,1,1.167,5.366Zm46.434,24.888c-0.389-8.944-.778-17.111-0.778-41.687,0-7.389.078-10.889,0.389-19.288l-0.545-.545-13.3,2.1-0.311.467c0.778,9.488.855,12.055,1.011,24.654,0.078,4.589.078,9.178,0.078,13.766,0,8.4-.156,13.066-0.467,20.766l0.467,0.544c5.211-.233,7.311-0.311,12.988-0.233Zm47.132,0.077c-0.311-7-.545-11.666-0.545-21.854,0-20.532.312-29.01,0.623-39.276l-0.545-.467-12.833,2.023-0.388.466c0.466,7.311.544,9.255,0.466,18.122-5.833-.156-13.144-0.312-19.054,4.355-5.445,4.2-7.7,10.655-7.7,18.666,0,6.066,1.633,12.132,6.222,15.943a16.4,16.4,0,0,0,10.188,3.422,14.248,14.248,0,0,0,10.266-4.2l-0.155,3.033,0.389,0.466c5.366-.233,6.844-0.233,12.677-0.233Zm-13.222-31.654c0.078,10.344,0,12.367-.233,21.777a9.84,9.84,0,0,1-5.289,1.867c-7.544,0-7.544-9.644-7.544-11.2,0-5.988,1.711-12.677,10.422-12.677A17.483,17.483,0,0,1,273.715,406.278Zm67.278-1.322c-6.533-2.722-9.955-4.122-9.955-7.622,0-2.411,2.256-5.444,7.389-5.444,5.91,0,9.41,2.411,12.288,4.356l0.7-.312,0.622-10.188-0.389-.544a31.855,31.855,0,0,0-14.388-2.878c-14.622,0-19.677,8.244-19.677,16.566,0,9.411,7.311,12.833,11.666,14.933l2.567,1.166c5.366,2.256,9.488,4.2,9.488,8.322,0,2.955-2.566,6.455-9.333,6.455a19.839,19.839,0,0,1-13.3-4.9l-0.778.234-0.544,10.966,0.466,0.622c0.856,0.311,1.712.7,2.567,0.933a38.709,38.709,0,0,0,12.211,1.945c2.333,0,8.244-.234,12.91-2.411,6.533-3.189,9.333-9.1,9.333-15.711A15.415,15.415,0,0,0,349,409.078a31.556,31.556,0,0,0-5.989-3.344ZM384,429.455a11.669,11.669,0,0,1-3.577.7c-3.967,0-4.278-2.489-4.433-3.655a88.88,88.88,0,0,1-.156-9.411l0.156-10.966,7,0.311,0.467-.467,0.778-8.321-0.467-.467h-7.777l0.233-13.066-0.545-.467c-5.288,1.556-6.688,1.945-12.21,3.344l-0.311.545,0.078,9.722-4.2-.156-0.467.389-0.7,8.322,0.467,0.466,4.9-.155-0.234,12.366c-0.078,1.944-.155,3.889-0.155,5.911,0,7.155.155,14.855,12.288,14.855a45.168,45.168,0,0,0,8.166-.934l0.545-.544,0.777-8.011Zm40.366-14.233c0.078-7,.078-10.032-1.944-13.3-1.556-2.489-4.666-5.6-14.622-5.6a47.333,47.333,0,0,0-15.243,2.567l-0.467.622-0.389,8.477,0.622,0.312c2.722-1.089,7.778-3.111,12.989-3.111,2.877,0,4.044.466,5.055,1.477a4.9,4.9,0,0,1,1.011,3.345c-9.333,1.244-13.688,2.1-18.355,4.977a12.437,12.437,0,0,0-5.833,10.655c0,8.322,5.989,13.688,13.611,13.688a16.074,16.074,0,0,0,10.81-4.122v2.878l0.467,0.544c5.6-.233,7.311-0.311,12.366-0.233l0.389-.544c-0.544-7.622-.544-9.567-0.544-16.877Zm-12.832,12.367a12.6,12.6,0,0,1-6.3,2.022c-2.8,0-5.133-1.478-5.133-4.745,0-5.133,6.144-5.988,11.433-6.688v9.411Zm43.711,1.866a11.675,11.675,0,0,1-3.578.7c-3.966,0-4.277-2.489-4.433-3.655a89.421,89.421,0,0,1-.156-9.411l0.156-10.966,7,0.311,0.466-.467,0.778-8.321-0.467-.467h-7.777l0.233-13.066-0.544-.467c-5.289,1.556-6.689,1.945-12.211,3.344l-0.311.545,0.078,9.722-4.2-.156-0.466.389-0.7,8.322,0.466,0.466,4.9-.155-0.233,12.366c-0.078,1.944-.156,3.889-0.156,5.911,0,7.155.156,14.855,12.288,14.855a45.169,45.169,0,0,0,8.167-.934l0.544-.544,0.778-8.011Zm38.732-2.566a23.772,23.772,0,0,1-12.132,3.344c-4.667,0-7.855-1.478-9.722-4.278a11,11,0,0,1-1.711-4.744l25.121-.467L496,420.2a45.6,45.6,0,0,0-1.245-11.588c-2.722-9.178-8.711-11.044-11.355-11.666a19.9,19.9,0,0,0-5.522-.7c-12.21,0-20.3,8.01-20.3,21.465A25.875,25.875,0,0,0,459.45,427.9c4.511,10.5,15.088,11.432,20.688,11.432,6.455,0,9.255-1.166,13.377-2.8l0.466-.623,0.545-8.788Zm-23.565-13.922c0.233-2.411.778-5.677,3.733-7.544a5.969,5.969,0,0,1,8.089,1.867,9.507,9.507,0,0,1,1.166,5.366ZM214.682,531.732c7.233,0.156,16.177.312,22.01-3.733a15.456,15.456,0,0,0,6.533-13.144c0-4.977-2.1-9.566-6.533-11.743a17.164,17.164,0,0,0-4.822-1.4c2.645-1.089,5.756-2.489,7.778-6.611a12.623,12.623,0,0,0,1.244-5.444,13.055,13.055,0,0,0-3.111-8.711c-3.266-3.5-8.322-4.433-15.943-4.433-2.645,0-7.389.078-10.033,0.155l-10.889.156-0.466.467c0.311,7.466.389,10.344,0.389,21.076,0,11.044-.078,22.01-0.234,33.054l0.545,0.311h13.532Zm-0.544-23.643c5.911-.155,9.333-0.155,11.588,1.167a7.169,7.169,0,0,1,3.111,6.377,6.686,6.686,0,0,1-4.822,6.689c-2.333.778-6.533,0.778-9.877,0.7V508.089Zm0-22.865c1.633,0,3.811-.078,5.133-0.078,4.2,0,8.011,1.478,8.011,6.533a6.869,6.869,0,0,1-3.967,6.3c-1.944.855-6.066,0.855-9.177,0.855v-13.61Zm70.855,35a23.779,23.779,0,0,1-12.133,3.344c-4.667,0-7.855-1.478-9.722-4.277a11,11,0,0,1-1.711-4.745l25.121-.466,0.467-.545a45.6,45.6,0,0,0-1.245-11.588c-2.722-9.177-8.71-11.044-11.355-11.666a19.9,19.9,0,0,0-5.522-.7c-12.21,0-20.3,8.011-20.3,21.466a25.891,25.891,0,0,0,1.867,10.188c4.511,10.5,15.088,11.433,20.688,11.433,6.455,0,9.255-1.167,13.377-2.8l0.467-.622,0.544-8.789ZM261.427,506.3c0.233-2.411.778-5.677,3.733-7.544a5.971,5.971,0,0,1,8.089,1.867,9.5,9.5,0,0,1,1.166,5.366Zm67.354,2.256c0.078-7,.078-10.033-1.944-13.3-1.555-2.488-4.666-5.6-14.621-5.6a47.337,47.337,0,0,0-15.244,2.566l-0.467.622-0.389,8.478,0.623,0.311c2.722-1.089,7.777-3.111,12.988-3.111,2.877,0,4.044.467,5.055,1.478a4.9,4.9,0,0,1,1.011,3.344c-9.333,1.244-13.688,2.1-18.354,4.977a12.439,12.439,0,0,0-5.834,10.656c0,8.321,5.989,13.688,13.611,13.688a16.079,16.079,0,0,0,10.81-4.122v2.877l0.467,0.545c5.6-.234,7.311-0.311,12.366-0.234l0.389-.544c-0.544-7.622-.544-9.566-0.544-16.877Zm-12.832,12.366a12.6,12.6,0,0,1-6.3,2.022c-2.8,0-5.133-1.478-5.133-4.744,0-5.133,6.144-5.989,11.433-6.689v9.411Zm52.344-.389a13.856,13.856,0,0,1-8.089,2.489c-8.788,0-10.577-7.311-10.577-11.977,0-5.678,2.489-12.211,10.033-12.211,3.422,0,5.288,1.244,7.622,2.8l0.777-.233c0.312-4.122.389-5.211,1.011-9.333l-0.388-.467a32.334,32.334,0,0,0-10.889-2.022c-18.277,0-21.854,13.844-21.854,21.777,0,8.944,4.666,21.076,22.165,21.076a32.552,32.552,0,0,0,10.033-1.711l0.467-.466,0.311-9.333Zm44.955,10.655c-0.311-6.377-.389-8.555-0.544-16.644v-5.833c-0.078-7.388-.156-11.666-2.411-14.932-2.256-3.189-5.522-4.2-8.944-4.2-5.678,0-10.111,2.722-13.222,4.589l0.233-23.955-0.466-.544-13.3,2.1-0.389.466c0.7,7.544.856,10.344,1.011,20.377q0.234,9.45.234,18.9c0,7.7-.156,12.288-0.311,19.91l0.389,0.545c5.755-.311,6.921-0.311,13.221-0.311l0.467-.467c-0.545-11.666-.622-15.166-0.7-28.932a10.271,10.271,0,0,1,5.988-2.333c4.278,0,4.589,4.433,4.9,7.544,0.156,2.411.234,13.455,0.234,16.332,0,2.567-.078,5.056-0.078,7.622l0.389,0.545c5.6-.311,6.844-0.311,12.832-0.311Z"/>
</svg>
