<?xml version="1.0" encoding="UTF-8"?>
<svg xmlns="http://www.w3.org/2000/svg" xmlns:xlink="http://www.w3.org/1999/xlink" width="975" height="1300" viewBox="0 0 975 1300">
<path fill-rule="nonzero" fill="rgb(34.901961%, 14.901961%, 14.901961%)" fill-opacity="1" d="M 338.0625 381.375 C 327.3125 381.875 324.4375 381.875 315.4375 381.75 L 314.9375 382.5 C 315.6875 396 316.0625 402.375 316.0625 434.25 C 316.0625 449 315.8125 456.625 315.3125 469.625 L 315.9375 470.375 C 325.3125 470 327.8125 470 338.1875 470 L 338.9375 469.25 C 338.3125 457.75 338.0625 452 338.0625 433.875 C 338.0625 416.625 338.3125 399.375 338.6875 382.125 Z M 415.3125 469.125 C 414.6875 458.125 414.6875 454.625 414.4375 442.375 L 414.4375 432.625 C 414.3125 420.625 414.1875 414.875 411.0625 409.75 C 407.1875 403.25 400.0625 402.25 395.5625 402.25 C 387.9375 402.25 381.3125 406.25 375.5625 409.625 L 375.8125 402.75 L 374.5625 401.875 C 364.9375 403.875 362.8125 404.25 353.4375 405.5 L 352.6875 406.375 C 353.6875 417.25 354.4375 425.125 354.4375 445.5 C 354.4375 453.5 354.3125 461.5 354.1875 469.5 L 354.9375 470.25 C 363.9375 469.875 365.8125 469.875 375.8125 469.875 L 376.5625 469.125 C 375.8125 449.875 375.6875 445 375.5625 422.625 C 378.1875 420.875 381.1875 418.75 385.1875 418.75 C 392.0625 418.75 392.6875 426.125 393.0625 430.625 C 393.3125 434.75 393.4375 451.875 393.4375 456.625 C 393.4375 460.875 393.3125 465.25 393.3125 469.5 L 394.0625 470.25 C 402.3125 470 404.4375 469.875 414.4375 469.875 Z M 490.8125 469.25 C 490.3125 458 489.9375 450.5 489.9375 434.125 C 489.9375 401.125 490.4375 387.5 490.9375 371 L 490.0625 370.25 L 469.4375 373.5 L 468.8125 374.25 C 469.5625 386 469.6875 389.125 469.5625 403.375 C 460.1875 403.125 448.4375 402.875 438.9375 410.375 C 430.1875 417.125 426.5625 427.5 426.5625 440.375 C 426.5625 450.125 429.1875 459.875 436.5625 466 C 442.0625 470.5 448.8125 471.5 452.9375 471.5 C 461.8125 471.5 466.4375 467.375 469.4375 464.75 L 469.1875 469.625 L 469.8125 470.375 C 478.4375 470 480.8125 470 490.1875 470 L 490.8125 469.25 M 469.5625 418.375 C 469.6875 435 469.5625 438.25 469.1875 453.375 C 466.6875 454.875 464.1875 456.375 460.6875 456.375 C 448.5625 456.375 448.5625 440.875 448.5625 438.375 C 448.5625 428.75 451.3125 418 465.3125 418 C 466.6875 418 467.8125 418.125 469.5625 418.375 Z M 527.6875 469.125 C 527.0625 459.5 526.5625 452.125 526.5625 434.875 C 526.5625 424.25 526.8125 413.5 526.9375 402.875 L 526.0625 401.875 L 504.5625 405.625 L 503.8125 406.375 C 504.8125 415.875 505.1875 420.25 505.1875 438 C 505.1875 451.625 504.8125 459.25 504.4375 469.5 L 505.1875 470.375 C 514.1875 470 516.6875 469.875 526.8125 470 L 527.6875 469.125 M 525.6875 389.875 L 526.0625 372.875 L 525.3125 372.125 L 504.9375 374.625 L 504.1875 375.5 C 504.4375 380 504.5625 382.625 504.5625 385.625 C 504.5625 388 504.5625 390.5 504.4375 392.875 L 505.3125 393.625 C 513.8125 392.125 516.1875 391.875 525.0625 390.75 Z M 597.1875 432.75 C 597.3125 421.5 597.3125 416.625 594.0625 411.375 C 591.5625 407.375 586.5625 402.375 570.5625 402.375 C 559.8125 402.375 553.1875 404.375 546.0625 406.5 L 545.3125 407.5 L 544.6875 421.125 L 545.6875 421.625 C 550.0625 419.875 558.1875 416.625 566.5625 416.625 C 571.1875 416.625 573.0625 417.375 574.6875 419 C 575.9375 420.25 576.3125 422.5 576.3125 424.375 C 561.3125 426.375 554.3125 427.75 546.8125 432.375 C 539.8125 436.75 537.4375 443.875 537.4375 449.5 C 537.4375 462.875 547.0625 471.5 559.3125 471.5 C 568.6875 471.5 574.0625 467 576.6875 464.875 L 576.6875 469.5 L 577.4375 470.375 C 586.4375 470 589.1875 469.875 597.3125 470 L 597.9375 469.125 C 597.0625 456.875 597.0625 453.75 597.0625 442 L 597.1875 432.75 M 576.5625 452.625 C 573.9375 454.125 570.5625 455.875 566.4375 455.875 C 561.9375 455.875 558.1875 453.5 558.1875 448.25 C 558.1875 440 568.0625 438.625 576.5625 437.5 Z M 673.0625 469.125 C 672.4375 458.125 672.4375 454.625 672.1875 442.375 L 672.1875 432.625 C 672.0625 420.625 671.9375 414.875 668.8125 409.75 C 664.9375 403.25 657.8125 402.25 653.3125 402.25 C 645.6875 402.25 639.0625 406.25 633.3125 409.625 L 633.5625 402.75 L 632.3125 401.875 C 622.6875 403.875 620.5625 404.25 611.1875 405.5 L 610.4375 406.375 C 611.4375 417.25 612.1875 425.125 612.1875 445.5 C 612.1875 453.5 612.0625 461.5 611.9375 469.5 L 612.6875 470.25 C 621.6875 469.875 623.5625 469.875 633.5625 469.875 L 634.3125 469.125 C 633.5625 449.875 633.4375 445 633.3125 422.625 C 635.9375 420.875 638.9375 418.75 642.9375 418.75 C 649.8125 418.75 650.4375 426.125 650.8125 430.625 C 651.0625 434.75 651.1875 451.875 651.1875 456.625 C 651.1875 460.875 651.0625 465.25 651.0625 469.5 L 651.8125 470.25 C 660.0625 470 662.1875 469.875 672.1875 469.875 Z M 679.8125 470 "/>
<path fill-rule="nonzero" fill="rgb(34.901961%, 14.901961%, 14.901961%)" fill-opacity="1" d="M 158.8125 595.25 C 158.8125 589 158.9375 582.75 159.0625 576.375 L 158.4375 575.625 L 137.1875 576 L 136.5625 576.75 C 137.6875 589 137.8125 592 137.5625 603.375 C 134.1875 604.125 131.6875 604.75 128.1875 604.75 C 108.8125 604.75 105.3125 586.25 105.3125 576.875 C 105.3125 557.125 115.9375 546.375 131.6875 546.375 C 141.1875 546.375 146.8125 550.125 152.6875 554 L 153.6875 553.625 C 154.3125 545.875 154.5625 543.875 155.5625 536.375 L 154.9375 535.625 C 149.6875 533.375 141.3125 529.875 128.3125 529.875 C 114.0625 529.875 98.4375 533.875 88.5625 550.625 C 84.0625 558.5 82.1875 568.625 82.1875 577 C 82.1875 588.75 85.3125 598.625 90.9375 605.875 C 98.3125 615.375 107.4375 618.375 112.3125 619.75 C 115.9375 620.75 121.3125 621.875 129.0625 621.875 C 141.9375 621.875 149.8125 619.25 158.5625 616.375 L 159.1875 615.375 C 159.0625 609.625 158.8125 603.875 158.8125 598.125 Z M 209.0625 573.625 L 212.5625 553.25 L 211.8125 552.375 C 210.9375 552.375 210.0625 552.25 209.1875 552.25 C 204.0625 552.25 198.3125 555.125 194.3125 564.375 L 194.6875 552.875 L 193.6875 551.875 C 184.4375 553.875 182.0625 554.25 172.9375 555.625 L 172.1875 556.375 C 172.9375 565.75 173.3125 571.375 173.3125 588.75 C 173.3125 599 173.1875 609.25 172.9375 619.625 L 173.6875 620.375 C 182.9375 620 184.9375 619.875 194.9375 620 L 195.5625 619.125 C 195.0625 609 194.3125 594.875 194.3125 586.25 C 194.3125 580.625 194.3125 572.375 202.8125 572.375 C 204.9375 572.375 206.1875 573.125 207.9375 574.125 Z M 242.4375 619.125 C 241.8125 609.5 241.3125 602.125 241.3125 584.875 C 241.3125 574.25 241.5625 563.5 241.6875 552.875 L 240.8125 551.875 L 219.3125 555.625 L 218.5625 556.375 C 219.5625 565.875 219.9375 570.25 219.9375 588 C 219.9375 601.625 219.5625 609.25 219.1875 619.5 L 219.9375 620.375 C 228.9375 620 231.4375 619.875 241.5625 620 L 242.4375 619.125 M 240.4375 539.875 L 240.8125 522.875 L 240.0625 522.125 L 219.6875 524.625 L 218.9375 525.5 C 219.1875 530 219.3125 532.625 219.3125 535.625 C 219.3125 538 219.3125 540.5 219.1875 542.875 L 220.0625 543.625 C 228.5625 542.125 230.9375 541.875 239.8125 540.75 Z M 317.5625 619.125 C 316.9375 608.125 316.9375 604.625 316.6875 592.375 L 316.6875 582.625 C 316.5625 570.625 316.4375 564.875 313.3125 559.75 C 309.4375 553.25 302.3125 552.25 297.8125 552.25 C 290.1875 552.25 283.5625 556.25 277.8125 559.625 L 278.0625 552.75 L 276.8125 551.875 C 267.1875 553.875 265.0625 554.25 255.6875 555.5 L 254.9375 556.375 C 255.9375 567.25 256.6875 575.125 256.6875 595.5 C 256.6875 603.5 256.5625 611.5 256.4375 619.5 L 257.1875 620.25 C 266.1875 619.875 268.0625 619.875 278.0625 619.875 L 278.8125 619.125 C 278.0625 599.875 277.9375 595 277.8125 572.625 C 280.4375 570.875 283.4375 568.75 287.4375 568.75 C 294.3125 568.75 294.9375 576.125 295.3125 580.625 C 295.5625 584.75 295.6875 601.875 295.6875 606.625 C 295.6875 610.875 295.5625 615.25 295.5625 619.5 L 296.3125 620.25 C 304.5625 620 306.6875 619.875 316.6875 619.875 Z M 393.0625 619.25 C 392.5625 608 392.1875 600.5 392.1875 584.125 C 392.1875 551.125 392.6875 537.5 393.1875 521 L 392.3125 520.25 L 371.6875 523.5 L 371.0625 524.25 C 371.8125 536 371.9375 539.125 371.8125 553.375 C 362.4375 553.125 350.6875 552.875 341.1875 560.375 C 332.4375 567.125 328.8125 577.5 328.8125 590.375 C 328.8125 600.125 331.4375 609.875 338.8125 616 C 344.3125 620.5 351.0625 621.5 355.1875 621.5 C 364.0625 621.5 368.6875 617.375 371.6875 614.75 L 371.4375 619.625 L 372.0625 620.375 C 380.6875 620 383.0625 620 392.4375 620 L 393.0625 619.25 M 371.8125 568.375 C 371.9375 585 371.8125 588.25 371.4375 603.375 C 368.9375 604.875 366.4375 606.375 362.9375 606.375 C 350.8125 606.375 350.8125 590.875 350.8125 588.375 C 350.8125 578.75 353.5625 568 367.5625 568 C 368.9375 568 370.0625 568.125 371.8125 568.375 Z M 429.9375 619.125 C 429.3125 609.5 428.8125 602.125 428.8125 584.875 C 428.8125 574.25 429.0625 563.5 429.1875 552.875 L 428.3125 551.875 L 406.8125 555.625 L 406.0625 556.375 C 407.0625 565.875 407.4375 570.25 407.4375 588 C 407.4375 601.625 407.0625 609.25 406.6875 619.5 L 407.4375 620.375 C 416.4375 620 418.9375 619.875 429.0625 620 L 429.9375 619.125 M 427.9375 539.875 L 428.3125 522.875 L 427.5625 522.125 L 407.1875 524.625 L 406.4375 525.5 C 406.6875 530 406.8125 532.625 406.8125 535.625 C 406.8125 538 406.8125 540.5 406.6875 542.875 L 407.5625 543.625 C 416.0625 542.125 418.4375 541.875 427.3125 540.75 Z M 505.0625 619.125 C 504.4375 608.125 504.4375 604.625 504.1875 592.375 L 504.1875 582.625 C 504.0625 570.625 503.9375 564.875 500.8125 559.75 C 496.9375 553.25 489.8125 552.25 485.3125 552.25 C 477.6875 552.25 471.0625 556.25 465.3125 559.625 L 465.5625 552.75 L 464.3125 551.875 C 454.6875 553.875 452.5625 554.25 443.1875 555.5 L 442.4375 556.375 C 443.4375 567.25 444.1875 575.125 444.1875 595.5 C 444.1875 603.5 444.0625 611.5 443.9375 619.5 L 444.6875 620.25 C 453.6875 619.875 455.5625 619.875 465.5625 619.875 L 466.3125 619.125 C 465.5625 599.875 465.4375 595 465.3125 572.625 C 467.9375 570.875 470.9375 568.75 474.9375 568.75 C 481.8125 568.75 482.4375 576.125 482.8125 580.625 C 483.0625 584.75 483.1875 601.875 483.1875 606.625 C 483.1875 610.875 483.0625 615.25 483.0625 619.5 L 483.8125 620.25 C 492.0625 620 494.1875 619.875 504.1875 619.875 Z M 542.3125 598.875 C 546.3125 599 550.3125 599.25 556.3125 597.25 C 562.8125 595 572.3125 589.625 572.3125 577.5 C 572.3125 571.5 570.5625 569 568.9375 566.625 L 577.5625 567.125 L 578.3125 566.5 L 579.1875 554 L 578.4375 553.375 C 568.8125 553.75 566.1875 553.875 558.3125 553.75 L 552.5625 553.625 C 543.6875 553.375 531.8125 553.125 523.6875 559.875 C 520.9375 562 515.6875 567.375 515.6875 576.75 C 515.6875 581.75 517.0625 585.75 519.3125 588.875 C 522.0625 592.75 524.5625 594.125 527.6875 595.875 C 524.1875 602.625 522.3125 606 519.4375 611.125 L 519.4375 612.25 L 524.6875 616 C 520.9375 618.875 515.0625 623.625 515.0625 631.75 C 515.0625 637.5 518.1875 642.5 522.8125 645.875 C 529.8125 650.875 539.3125 651.125 544.1875 651.125 C 567.0625 651.125 577.5625 639.625 577.5625 627.5 C 577.5625 611.75 563.8125 608.75 555.6875 606.875 L 552.6875 606.375 C 546.5625 605.375 545.1875 605 540.3125 603.25 L 542.3125 598.875 M 552.5625 576.375 C 552.4375 586.5 546.3125 587.375 544.5625 587.375 C 543.5625 587.375 539.1875 587.125 537.0625 582.125 C 535.9375 579.5 535.9375 576.5 535.9375 575.625 C 535.9375 569.375 539.6875 565.375 544.3125 565.375 C 550.0625 565.375 552.6875 570.875 552.5625 576.375 M 541.9375 623 C 553.0625 625.875 553.1875 625.875 554.6875 627.125 C 555.9375 628 557.1875 629.375 557.1875 632 C 557.1875 635.75 554.0625 639.625 545.8125 639.625 C 536.5625 639.625 533.4375 634.375 533.4375 630 C 533.4375 625.875 535.5625 623.5 537.0625 621.75 Z M 651.8125 585.625 C 660.1875 599.875 662.0625 603.625 670.0625 620 L 671.0625 620.625 C 674.9375 620.375 678.6875 620.125 682.5625 620 C 686.4375 619.875 690.4375 619.75 694.3125 619.75 L 695.0625 618.25 C 690.3125 612.125 688.9375 610.25 679.9375 595.875 C 675.9375 589.5 673.9375 586.125 670.8125 580.625 C 676.4375 578.125 687.8125 572.875 687.8125 557 C 687.8125 551.5 686.3125 540.125 676.0625 534.75 C 669.5625 531.375 662.8125 531.25 648.1875 531.5 L 639.4375 531.625 L 624.1875 531.625 L 623.5625 532.375 C 624.0625 545 624.5625 558 624.5625 592 C 624.5625 603.625 624.4375 609.25 624.0625 619.625 L 624.8125 620.375 C 633.9375 620 635.9375 619.875 646.1875 620 L 646.9375 619.25 C 645.9375 604.75 645.8125 600.75 645.6875 585.875 L 651.8125 585.625 M 645.9375 546.75 C 647.6875 546.625 649.4375 546.625 651.1875 546.625 C 656.0625 546.625 665.6875 546.625 665.6875 557.625 C 665.6875 561.125 664.8125 565.75 660.1875 568.625 C 656.6875 570.75 652.1875 571 645.9375 571.125 Z M 765.3125 586.75 C 765.3125 581.875 765.3125 561.625 747.8125 554.75 C 742.3125 552.625 735.8125 552.375 732.5625 552.375 C 710.8125 552.375 698.5625 564 698.5625 587 C 698.5625 595 699.8125 603.125 704.4375 609.875 C 707.6875 614.75 713.8125 621.5 731.6875 621.5 C 758.1875 621.5 765.3125 605.5 765.3125 586.75 M 743.6875 586.625 C 743.6875 596.875 742.3125 608.25 731.9375 608.25 C 728.6875 608.25 726.4375 606.75 724.9375 605.375 C 722.8125 603.25 720.4375 599 720.4375 586.875 C 720.4375 583.25 720.4375 575.25 722.9375 570.875 C 724.8125 567.5 728.0625 565.25 732.0625 565.25 C 735.5625 565.25 738.4375 567.125 740.0625 569.125 C 743.0625 572.75 743.6875 579.875 743.6875 586.625 Z M 826.0625 602 C 822.6875 604 819.4375 606 813.0625 606 C 798.9375 606 796.0625 594.25 796.0625 586.75 C 796.0625 577.625 800.0625 567.125 812.1875 567.125 C 817.6875 567.125 820.6875 569.125 824.4375 571.625 L 825.6875 571.25 C 826.1875 564.625 826.3125 562.875 827.3125 556.25 L 826.6875 555.5 C 821.1875 553.75 816.4375 552.25 809.1875 552.25 C 779.8125 552.25 774.0625 574.5 774.0625 587.25 C 774.0625 601.625 781.5625 621.125 809.6875 621.125 C 816.3125 621.125 820.5625 619.875 825.8125 618.375 L 826.5625 617.625 L 827.0625 602.625 Z M 901.3125 618.375 C 889.5625 598.5 888.3125 596.25 878.8125 579.125 C 887.4375 567.375 888.3125 566.125 897.1875 554.75 L 896.5625 553.5 L 876.1875 553.75 L 874.9375 554.625 C 865.1875 571.5 863.9375 573.5 858.1875 582.125 L 858.1875 568.25 C 858.3125 544.875 858.4375 539.875 859.0625 521 L 858.0625 520.25 L 836.3125 523.5 L 835.5625 524.375 C 836.4375 536.5 836.8125 542.375 837.0625 558.75 C 837.3125 579 837.3125 599.25 837.1875 619.5 L 838.0625 620.375 C 846.4375 620 848.8125 620 858.3125 620 L 859.0625 619.125 L 858.3125 598 L 858.1875 583.625 C 869.0625 603.625 870.4375 606.375 876.8125 619.625 L 877.9375 620.375 L 900.4375 619.5 Z M 899.8125 620 "/>
<path fill-rule="nonzero" fill="rgb(34.901961%, 14.901961%, 14.901961%)" fill-opacity="1" d="M 140.9375 716.25 C 130.4375 711.875 124.9375 709.625 124.9375 704 C 124.9375 700.125 128.5625 695.25 136.8125 695.25 C 146.3125 695.25 151.9375 699.125 156.5625 702.25 L 157.6875 701.75 L 158.6875 685.375 L 158.0625 684.5 C 152.6875 682.25 147.0625 679.875 134.9375 679.875 C 111.4375 679.875 103.3125 693.125 103.3125 706.5 C 103.3125 721.625 115.0625 727.125 122.0625 730.5 L 126.1875 732.375 C 134.8125 736 141.4375 739.125 141.4375 745.75 C 141.4375 750.5 137.3125 756.125 126.4375 756.125 C 115.0625 756.125 108.6875 751.125 105.0625 748.25 L 103.8125 748.625 L 102.9375 766.25 L 103.6875 767.25 C 105.0625 767.75 106.4375 768.375 107.8125 768.75 C 110.6875 769.75 118.0625 771.875 127.4375 771.875 C 131.1875 771.875 140.6875 771.5 148.1875 768 C 158.6875 762.875 163.1875 753.375 163.1875 742.75 C 163.1875 735.625 160.4375 728 153.8125 722.875 C 150.4375 720.375 147.1875 718.875 144.1875 717.5 Z M 210.0625 755.625 C 207.9375 756.25 206.4375 756.75 204.3125 756.75 C 197.9375 756.75 197.4375 752.75 197.1875 750.875 C 196.8125 747.625 196.8125 740.75 196.9375 735.75 L 197.1875 718.125 L 208.4375 718.625 L 209.1875 717.875 L 210.4375 704.5 L 209.6875 703.75 L 197.1875 703.75 L 197.5625 682.75 L 196.6875 682 C 188.1875 684.5 185.9375 685.125 177.0625 687.375 L 176.5625 688.25 L 176.6875 703.875 L 169.9375 703.625 L 169.1875 704.25 L 168.0625 717.625 L 168.8125 718.375 L 176.6875 718.125 L 176.3125 738 C 176.1875 741.125 176.0625 744.25 176.0625 747.5 C 176.0625 759 176.3125 771.375 195.8125 771.375 C 200.6875 771.375 204.5625 770.625 208.9375 769.875 L 209.8125 769 L 211.0625 756.125 Z M 274.9375 732.75 C 275.0625 721.5 275.0625 716.625 271.8125 711.375 C 269.3125 707.375 264.3125 702.375 248.3125 702.375 C 237.5625 702.375 230.9375 704.375 223.8125 706.5 L 223.0625 707.5 L 222.4375 721.125 L 223.4375 721.625 C 227.8125 719.875 235.9375 716.625 244.3125 716.625 C 248.9375 716.625 250.8125 717.375 252.4375 719 C 253.6875 720.25 254.0625 722.5 254.0625 724.375 C 239.0625 726.375 232.0625 727.75 224.5625 732.375 C 217.5625 736.75 215.1875 743.875 215.1875 749.5 C 215.1875 762.875 224.8125 771.5 237.0625 771.5 C 246.4375 771.5 251.8125 767 254.4375 764.875 L 254.4375 769.5 L 255.1875 770.375 C 264.1875 770 266.9375 769.875 275.0625 770 L 275.6875 769.125 C 274.8125 756.875 274.8125 753.75 274.8125 742 L 274.9375 732.75 M 254.3125 752.625 C 251.6875 754.125 248.3125 755.875 244.1875 755.875 C 239.6875 755.875 235.9375 753.5 235.9375 748.25 C 235.9375 740 245.8125 738.625 254.3125 737.5 Z M 324.5625 755.625 C 322.4375 756.25 320.9375 756.75 318.8125 756.75 C 312.4375 756.75 311.9375 752.75 311.6875 750.875 C 311.3125 747.625 311.3125 740.75 311.4375 735.75 L 311.6875 718.125 L 322.9375 718.625 L 323.6875 717.875 L 324.9375 704.5 L 324.1875 703.75 L 311.6875 703.75 L 312.0625 682.75 L 311.1875 682 C 302.6875 684.5 300.4375 685.125 291.5625 687.375 L 291.0625 688.25 L 291.1875 703.875 L 284.4375 703.625 L 283.6875 704.25 L 282.5625 717.625 L 283.3125 718.375 L 291.1875 718.125 L 290.8125 738 C 290.6875 741.125 290.5625 744.25 290.5625 747.5 C 290.5625 759 290.8125 771.375 310.3125 771.375 C 315.1875 771.375 319.0625 770.625 323.4375 769.875 L 324.3125 769 L 325.5625 756.125 Z M 389.3125 751.5 C 384.5625 754 378.9375 756.875 369.8125 756.875 C 362.3125 756.875 357.1875 754.5 354.1875 750 C 352.3125 747.375 351.9375 744.875 351.4375 742.375 L 391.8125 741.625 L 392.5625 740.75 C 392.4375 734.625 392.3125 728.375 390.5625 722.125 C 386.1875 707.375 376.5625 704.375 372.3125 703.375 C 369.1875 702.5 366.3125 702.25 363.4375 702.25 C 343.8125 702.25 330.8125 715.125 330.8125 736.75 C 330.8125 742.625 331.8125 748.75 333.8125 753.125 C 341.0625 770 358.0625 771.5 367.0625 771.5 C 377.4375 771.5 381.9375 769.625 388.5625 767 L 389.3125 766 L 390.1875 751.875 L 389.3125 751.5 M 351.4375 729.125 C 351.8125 725.25 352.6875 720 357.4375 717 C 358.9375 716 360.6875 715.625 362.4375 715.625 C 366.5625 715.625 369.0625 717.75 370.4375 720 C 372.1875 722.75 372.3125 725.75 372.3125 728.625 Z M 515.4375 681.375 C 505.4375 681.75 503.8125 681.75 493.3125 681.75 L 492.6875 682.5 C 493.5625 696.625 493.5625 700.25 493.6875 715 C 488.1875 715.125 482.6875 715.25 477.0625 715.25 C 472.6875 715.25 468.1875 715.125 463.8125 715.125 L 464.0625 682.125 L 463.4375 681.375 C 453.8125 681.75 451.9375 681.75 441.0625 681.75 L 440.3125 682.5 C 440.9375 695.375 441.6875 710.75 441.6875 741.75 C 441.6875 753 441.4375 759.125 441.1875 769.625 L 441.8125 770.375 C 450.9375 770 453.1875 769.875 464.1875 770 L 464.8125 769.25 C 464.0625 753.75 463.9375 749.25 463.8125 731.125 C 469.3125 730.875 473.9375 730.75 478.8125 730.75 C 483.8125 730.75 488.8125 730.875 493.8125 731 C 494.0625 747.875 494.0625 752 493.4375 769.625 L 494.0625 770.375 C 503.4375 770 505.9375 769.875 516.5625 770 L 517.1875 769.25 C 516.1875 748.25 515.8125 727.375 515.8125 706.375 C 515.8125 697.625 515.9375 691.75 516.0625 682.125 Z M 554.3125 769.125 C 553.6875 759.5 553.1875 752.125 553.1875 734.875 C 553.1875 724.25 553.4375 713.5 553.5625 702.875 L 552.6875 701.875 L 531.1875 705.625 L 530.4375 706.375 C 531.4375 715.875 531.8125 720.25 531.8125 738 C 531.8125 751.625 531.4375 759.25 531.0625 769.5 L 531.8125 770.375 C 540.8125 770 543.3125 769.875 553.4375 770 L 554.3125 769.125 M 552.3125 689.875 L 552.6875 672.875 L 551.9375 672.125 L 531.5625 674.625 L 530.8125 675.5 C 531.0625 680 531.1875 682.625 531.1875 685.625 C 531.1875 688 531.1875 690.5 531.0625 692.875 L 531.9375 693.625 C 540.4375 692.125 542.8125 691.875 551.6875 690.75 Z M 594.4375 726.875 C 590.1875 725.375 586.8125 724 586.8125 720.5 C 586.8125 719 587.8125 714.875 595.5625 714.875 C 603.1875 714.875 608.0625 718.125 611.1875 720.125 L 612.3125 719.75 L 613.5625 706.125 L 612.9375 705.375 C 607.0625 703.75 601.9375 702.25 593.8125 702.25 C 587.6875 702.25 575.4375 702.75 568.9375 712.125 C 567.3125 714.375 565.5625 718.125 565.5625 723.125 C 565.5625 736.5 575.9375 740.5 581.8125 742.75 L 586.5625 744.5 C 589.9375 745.625 595.4375 747.5 595.4375 752 C 595.4375 755.125 592.5625 758.5 585.5625 758.5 C 582.0625 758.5 576.9375 757.375 572.3125 755 C 570.1875 753.875 569.1875 753 567.3125 751.5 L 566.1875 752 C 565.9375 758.5 565.8125 759.875 565.3125 766.125 L 565.9375 767.25 C 572.0625 769.5 577.3125 771.5 586.4375 771.5 C 595.9375 771.5 614.6875 769.75 616.9375 751.875 C 617.0625 750.875 617.0625 750 617.0625 749.125 C 617.0625 735.375 607.4375 731.75 600.5625 729.125 Z M 663.0625 755.625 C 660.9375 756.25 659.4375 756.75 657.3125 756.75 C 650.9375 756.75 650.4375 752.75 650.1875 750.875 C 649.8125 747.625 649.8125 740.75 649.9375 735.75 L 650.1875 718.125 L 661.4375 718.625 L 662.1875 717.875 L 663.4375 704.5 L 662.6875 703.75 L 650.1875 703.75 L 650.5625 682.75 L 649.6875 682 C 641.1875 684.5 638.9375 685.125 630.0625 687.375 L 629.5625 688.25 L 629.6875 703.875 L 622.9375 703.625 L 622.1875 704.25 L 621.0625 717.625 L 621.8125 718.375 L 629.6875 718.125 L 629.3125 738 C 629.1875 741.125 629.0625 744.25 629.0625 747.5 C 629.0625 759 629.3125 771.375 648.8125 771.375 C 653.6875 771.375 657.5625 770.625 661.9375 769.875 L 662.8125 769 L 664.0625 756.125 Z M 735.9375 736.75 C 735.9375 731.875 735.9375 711.625 718.4375 704.75 C 712.9375 702.625 706.4375 702.375 703.1875 702.375 C 681.4375 702.375 669.1875 714 669.1875 737 C 669.1875 745 670.4375 753.125 675.0625 759.875 C 678.3125 764.75 684.4375 771.5 702.3125 771.5 C 728.8125 771.5 735.9375 755.5 735.9375 736.75 M 714.3125 736.625 C 714.3125 746.875 712.9375 758.25 702.5625 758.25 C 699.3125 758.25 697.0625 756.75 695.5625 755.375 C 693.4375 753.25 691.0625 749 691.0625 736.875 C 691.0625 733.25 691.0625 725.25 693.5625 720.875 C 695.4375 717.5 698.6875 715.25 702.6875 715.25 C 706.1875 715.25 709.0625 717.125 710.6875 719.125 C 713.6875 722.75 714.3125 729.875 714.3125 736.625 Z M 783.9375 723.625 L 787.4375 703.25 L 786.6875 702.375 C 785.8125 702.375 784.9375 702.25 784.0625 702.25 C 778.9375 702.25 773.1875 705.125 769.1875 714.375 L 769.5625 702.875 L 768.5625 701.875 C 759.3125 703.875 756.9375 704.25 747.8125 705.625 L 747.0625 706.375 C 747.8125 715.75 748.1875 721.375 748.1875 738.75 C 748.1875 749 748.0625 759.25 747.8125 769.625 L 748.5625 770.375 C 757.8125 770 759.8125 769.875 769.8125 770 L 770.4375 769.125 C 769.9375 759 769.1875 744.875 769.1875 736.25 C 769.1875 730.625 769.1875 722.375 777.6875 722.375 C 779.8125 722.375 781.0625 723.125 782.8125 724.125 Z M 817.3125 769.125 C 816.6875 759.5 816.1875 752.125 816.1875 734.875 C 816.1875 724.25 816.4375 713.5 816.5625 702.875 L 815.6875 701.875 L 794.1875 705.625 L 793.4375 706.375 C 794.4375 715.875 794.8125 720.25 794.8125 738 C 794.8125 751.625 794.4375 759.25 794.0625 769.5 L 794.8125 770.375 C 803.8125 770 806.3125 769.875 816.4375 770 L 817.3125 769.125 M 815.3125 689.875 L 815.6875 672.875 L 814.9375 672.125 L 794.5625 674.625 L 793.8125 675.5 C 794.0625 680 794.1875 682.625 794.1875 685.625 C 794.1875 688 794.1875 690.5 794.0625 692.875 L 794.9375 693.625 C 803.4375 692.125 805.8125 691.875 814.6875 690.75 Z M 880.0625 752 C 876.6875 754 873.4375 756 867.0625 756 C 852.9375 756 850.0625 744.25 850.0625 736.75 C 850.0625 727.625 854.0625 717.125 866.1875 717.125 C 871.6875 717.125 874.6875 719.125 878.4375 721.625 L 879.6875 721.25 C 880.1875 714.625 880.3125 712.875 881.3125 706.25 L 880.6875 705.5 C 875.1875 703.75 870.4375 702.25 863.1875 702.25 C 833.8125 702.25 828.0625 724.5 828.0625 737.25 C 828.0625 751.625 835.5625 771.125 863.6875 771.125 C 870.3125 771.125 874.5625 769.875 879.8125 768.375 L 880.5625 767.625 L 881.0625 752.625 Z M 883.5625 770 "/>
<path fill-rule="nonzero" fill="rgb(34.901961%, 14.901961%, 14.901961%)" fill-opacity="1" d="M 382.375 831.5 L 366.5 831.75 L 365.75 832.5 C 366.25 848.75 366.625 859.625 366.625 874 C 366.625 889.25 366.25 904.375 365.875 919.625 L 366.625 920.375 C 375.875 920 377.875 919.875 387.875 920 L 388.5 919.25 C 388 905.625 388 902.5 388 889.75 C 402 889.875 417 889.875 426 878.875 C 429.5 874.625 432.5 867.5 432.5 858.75 C 432.5 853.375 431.25 841.5 420.875 835.625 C 413.375 831.25 402.75 831.25 393.375 831.25 L 382.375 831.5 M 388 846.625 C 390.75 846.5 393.375 846.5 396.125 846.5 C 407.125 846.75 410.125 852.375 410.125 859.625 C 410.125 861.375 410.125 868.625 403.5 872.25 C 400.125 874.125 395.5 874.375 388 874.375 Z M 496.75 882.75 C 496.875 871.5 496.875 866.625 493.625 861.375 C 491.125 857.375 486.125 852.375 470.125 852.375 C 459.375 852.375 452.75 854.375 445.625 856.5 L 444.875 857.5 L 444.25 871.125 L 445.25 871.625 C 449.625 869.875 457.75 866.625 466.125 866.625 C 470.75 866.625 472.625 867.375 474.25 869 C 475.5 870.25 475.875 872.5 475.875 874.375 C 460.875 876.375 453.875 877.75 446.375 882.375 C 439.375 886.75 437 893.875 437 899.5 C 437 912.875 446.625 921.5 458.875 921.5 C 468.25 921.5 473.625 917 476.25 914.875 L 476.25 919.5 L 477 920.375 C 486 920 488.75 919.875 496.875 920 L 497.5 919.125 C 496.625 906.875 496.625 903.75 496.625 892 L 496.75 882.75 M 476.125 902.625 C 473.5 904.125 470.125 905.875 466 905.875 C 461.5 905.875 457.75 903.5 457.75 898.25 C 457.75 890 467.625 888.625 476.125 887.5 Z M 547.5 873.625 L 551 853.25 L 550.25 852.375 C 549.375 852.375 548.5 852.25 547.625 852.25 C 542.5 852.25 536.75 855.125 532.75 864.375 L 533.125 852.875 L 532.125 851.875 C 522.875 853.875 520.5 854.25 511.375 855.625 L 510.625 856.375 C 511.375 865.75 511.75 871.375 511.75 888.75 C 511.75 899 511.625 909.25 511.375 919.625 L 512.125 920.375 C 521.375 920 523.375 919.875 533.375 920 L 534 919.125 C 533.5 909 532.75 894.875 532.75 886.25 C 532.75 880.625 532.75 872.375 541.25 872.375 C 543.375 872.375 544.625 873.125 546.375 874.125 Z M 622.5 918.375 C 610.75 898.5 609.5 896.25 600 879.125 C 608.625 867.375 609.5 866.125 618.375 854.75 L 617.75 853.5 L 597.375 853.75 L 596.125 854.625 C 586.375 871.5 585.125 873.5 579.375 882.125 L 579.375 868.25 C 579.5 844.875 579.625 839.875 580.25 821 L 579.25 820.25 L 557.5 823.5 L 556.75 824.375 C 557.625 836.5 558 842.375 558.25 858.75 C 558.5 879 558.5 899.25 558.375 919.5 L 559.25 920.375 C 567.625 920 570 920 579.5 920 L 580.25 919.125 L 579.5 898 L 579.375 883.625 C 590.25 903.625 591.625 906.375 598 919.625 L 599.125 920.375 L 621.625 919.5 Z M 621 920 "/>
</svg>
