<?xml version="1.0" encoding="UTF-8"?>
<svg xmlns="http://www.w3.org/2000/svg" xmlns:xlink="http://www.w3.org/1999/xlink" width="975" height="1300" viewBox="0 0 975 1300">
<path fill-rule="nonzero" fill="rgb(34.901961%, 14.901961%, 14.901961%)" fill-opacity="1" d="M 217.5625 520.25 C 217.5625 514 217.6875 507.75 217.8125 501.375 L 217.1875 500.625 L 195.9375 501 L 195.3125 501.75 C 196.4375 514 196.5625 517 196.3125 528.375 C 192.9375 529.125 190.4375 529.75 186.9375 529.75 C 167.5625 529.75 164.0625 511.25 164.0625 501.875 C 164.0625 482.125 174.6875 471.375 190.4375 471.375 C 199.9375 471.375 205.5625 475.125 211.4375 479 L 212.4375 478.625 C 213.0625 470.875 213.3125 468.875 214.3125 461.375 L 213.6875 460.625 C 208.4375 458.375 200.0625 454.875 187.0625 454.875 C 172.8125 454.875 157.1875 458.875 147.3125 475.625 C 142.8125 483.5 140.9375 493.625 140.9375 502 C 140.9375 513.75 144.0625 523.625 149.6875 530.875 C 157.0625 540.375 166.1875 543.375 171.0625 544.75 C 174.6875 545.75 180.0625 546.875 187.8125 546.875 C 200.6875 546.875 208.5625 544.25 217.3125 541.375 L 217.9375 540.375 C 217.8125 534.625 217.5625 528.875 217.5625 523.125 Z M 267.8125 498.625 L 271.3125 478.25 L 270.5625 477.375 C 269.6875 477.375 268.8125 477.25 267.9375 477.25 C 262.8125 477.25 257.0625 480.125 253.0625 489.375 L 253.4375 477.875 L 252.4375 476.875 C 243.1875 478.875 240.8125 479.25 231.6875 480.625 L 230.9375 481.375 C 231.6875 490.75 232.0625 496.375 232.0625 513.75 C 232.0625 524 231.9375 534.25 231.6875 544.625 L 232.4375 545.375 C 241.6875 545 243.6875 544.875 253.6875 545 L 254.3125 544.125 C 253.8125 534 253.0625 519.875 253.0625 511.25 C 253.0625 505.625 253.0625 497.375 261.5625 497.375 C 263.6875 497.375 264.9375 498.125 266.6875 499.125 Z M 334.0625 526.5 C 329.3125 529 323.6875 531.875 314.5625 531.875 C 307.0625 531.875 301.9375 529.5 298.9375 525 C 297.0625 522.375 296.6875 519.875 296.1875 517.375 L 336.5625 516.625 L 337.3125 515.75 C 337.1875 509.625 337.0625 503.375 335.3125 497.125 C 330.9375 482.375 321.3125 479.375 317.0625 478.375 C 313.9375 477.5 311.0625 477.25 308.1875 477.25 C 288.5625 477.25 275.5625 490.125 275.5625 511.75 C 275.5625 517.625 276.5625 523.75 278.5625 528.125 C 285.8125 545 302.8125 546.5 311.8125 546.5 C 322.1875 546.5 326.6875 544.625 333.3125 542 L 334.0625 541 L 334.9375 526.875 L 334.0625 526.5 M 296.1875 504.125 C 296.5625 500.25 297.4375 495 302.1875 492 C 303.6875 491 305.4375 490.625 307.1875 490.625 C 311.3125 490.625 313.8125 492.75 315.1875 495 C 316.9375 497.75 317.0625 500.75 317.0625 503.625 Z M 404.4375 507.75 C 404.5625 496.5 404.5625 491.625 401.3125 486.375 C 398.8125 482.375 393.8125 477.375 377.8125 477.375 C 367.0625 477.375 360.4375 479.375 353.3125 481.5 L 352.5625 482.5 L 351.9375 496.125 L 352.9375 496.625 C 357.3125 494.875 365.4375 491.625 373.8125 491.625 C 378.4375 491.625 380.3125 492.375 381.9375 494 C 383.1875 495.25 383.5625 497.5 383.5625 499.375 C 368.5625 501.375 361.5625 502.75 354.0625 507.375 C 347.0625 511.75 344.6875 518.875 344.6875 524.5 C 344.6875 537.875 354.3125 546.5 366.5625 546.5 C 375.9375 546.5 381.3125 542 383.9375 539.875 L 383.9375 544.5 L 384.6875 545.375 C 393.6875 545 396.4375 544.875 404.5625 545 L 405.1875 544.125 C 404.3125 531.875 404.3125 528.75 404.3125 517 L 404.4375 507.75 M 383.8125 527.625 C 381.1875 529.125 377.8125 530.875 373.6875 530.875 C 369.1875 530.875 365.4375 528.5 365.4375 523.25 C 365.4375 515 375.3125 513.625 383.8125 512.5 Z M 454.0625 530.625 C 451.9375 531.25 450.4375 531.75 448.3125 531.75 C 441.9375 531.75 441.4375 527.75 441.1875 525.875 C 440.8125 522.625 440.8125 515.75 440.9375 510.75 L 441.1875 493.125 L 452.4375 493.625 L 453.1875 492.875 L 454.4375 479.5 L 453.6875 478.75 L 441.1875 478.75 L 441.5625 457.75 L 440.6875 457 C 432.1875 459.5 429.9375 460.125 421.0625 462.375 L 420.5625 463.25 L 420.6875 478.875 L 413.9375 478.625 L 413.1875 479.25 L 412.0625 492.625 L 412.8125 493.375 L 420.6875 493.125 L 420.3125 513 C 420.1875 516.125 420.0625 519.25 420.0625 522.5 C 420.0625 534 420.3125 546.375 439.8125 546.375 C 444.6875 546.375 448.5625 545.625 452.9375 544.875 L 453.8125 544 L 455.0625 531.125 Z M 542.6875 544.125 C 548.0625 521.5 549.9375 515 566.9375 457 L 566.3125 456.375 C 556.9375 456.75 554.4375 456.75 546.9375 456.75 L 546.1875 457.5 C 543.8125 469.75 543.1875 473 539.6875 486.875 L 535.6875 503.25 L 530.3125 526.375 L 523.6875 496.875 L 521.0625 485.625 C 517.9375 472.75 517.0625 468.5 514.4375 456.375 L 513.6875 455.75 C 503.3125 456.5 501.0625 456.625 491.3125 456.625 L 490.6875 457.375 C 499.0625 486.25 506.5625 512.75 510.8125 529.25 C 512.0625 534.375 513.3125 539.5 514.5625 544.625 L 515.3125 545.375 C 526.1875 545 528.9375 544.875 541.9375 545 Z M 628.3125 507.75 C 628.4375 496.5 628.4375 491.625 625.1875 486.375 C 622.6875 482.375 617.6875 477.375 601.6875 477.375 C 590.9375 477.375 584.3125 479.375 577.1875 481.5 L 576.4375 482.5 L 575.8125 496.125 L 576.8125 496.625 C 581.1875 494.875 589.3125 491.625 597.6875 491.625 C 602.3125 491.625 604.1875 492.375 605.8125 494 C 607.0625 495.25 607.4375 497.5 607.4375 499.375 C 592.4375 501.375 585.4375 502.75 577.9375 507.375 C 570.9375 511.75 568.5625 518.875 568.5625 524.5 C 568.5625 537.875 578.1875 546.5 590.4375 546.5 C 599.8125 546.5 605.1875 542 607.8125 539.875 L 607.8125 544.5 L 608.5625 545.375 C 617.5625 545 620.3125 544.875 628.4375 545 L 629.0625 544.125 C 628.1875 531.875 628.1875 528.75 628.1875 517 L 628.3125 507.75 M 607.6875 527.625 C 605.0625 529.125 601.6875 530.875 597.5625 530.875 C 593.0625 530.875 589.3125 528.5 589.3125 523.25 C 589.3125 515 599.1875 513.625 607.6875 512.5 Z M 664.9375 544.125 C 664.3125 529.75 663.6875 516.625 663.6875 477.125 C 663.6875 465.25 663.8125 459.625 664.3125 446.125 L 663.4375 445.25 L 642.0625 448.625 L 641.5625 449.375 C 642.8125 464.625 642.9375 468.75 643.1875 489 C 643.3125 496.375 643.3125 503.75 643.3125 511.125 C 643.3125 524.625 643.0625 532.125 642.5625 544.5 L 643.3125 545.375 C 651.6875 545 655.0625 544.875 664.1875 545 Z M 701.4375 544.125 C 700.8125 529.75 700.1875 516.625 700.1875 477.125 C 700.1875 465.25 700.3125 459.625 700.8125 446.125 L 699.9375 445.25 L 678.5625 448.625 L 678.0625 449.375 C 679.3125 464.625 679.4375 468.75 679.6875 489 C 679.8125 496.375 679.8125 503.75 679.8125 511.125 C 679.8125 524.625 679.5625 532.125 679.0625 544.5 L 679.8125 545.375 C 688.1875 545 691.5625 544.875 700.6875 545 Z M 771.4375 526.5 C 766.6875 529 761.0625 531.875 751.9375 531.875 C 744.4375 531.875 739.3125 529.5 736.3125 525 C 734.4375 522.375 734.0625 519.875 733.5625 517.375 L 773.9375 516.625 L 774.6875 515.75 C 774.5625 509.625 774.4375 503.375 772.6875 497.125 C 768.3125 482.375 758.6875 479.375 754.4375 478.375 C 751.3125 477.5 748.4375 477.25 745.5625 477.25 C 725.9375 477.25 712.9375 490.125 712.9375 511.75 C 712.9375 517.625 713.9375 523.75 715.9375 528.125 C 723.1875 545 740.1875 546.5 749.1875 546.5 C 759.5625 546.5 764.0625 544.625 770.6875 542 L 771.4375 541 L 772.3125 526.875 L 771.4375 526.5 M 733.5625 504.125 C 733.9375 500.25 734.8125 495 739.5625 492 C 741.0625 491 742.8125 490.625 744.5625 490.625 C 748.6875 490.625 751.1875 492.75 752.5625 495 C 754.3125 497.75 754.4375 500.75 754.4375 503.625 Z M 842.0625 478.375 L 824.6875 478.75 L 823.6875 479.625 C 821.5625 488.25 821.0625 490.125 818.0625 499.875 L 814.8125 510.625 L 812.0625 520 L 809.6875 511.125 L 806.0625 497.875 L 801.0625 478.875 L 800.0625 478.125 C 790.3125 478.875 788.1875 479 777.9375 479.25 L 777.3125 480.125 C 781.8125 492 793.4375 523.375 801.1875 547.375 C 796.0625 560.375 795.0625 562.625 789.4375 575 L 790.0625 576 C 793.1875 575.875 796.6875 575.75 799.9375 575.75 C 803.0625 575.75 806.3125 575.875 809.4375 575.875 L 810.3125 575.125 C 817.1875 548.125 820.5625 537.625 837.0625 494.125 C 838.9375 489.125 840.8125 484.25 842.5625 479.375 Z M 841.1875 545 "/>
<path fill-rule="nonzero" fill="rgb(34.901961%, 14.901961%, 14.901961%)" fill-opacity="1" d="M 251.25 670.25 C 251.25 664 251.375 657.75 251.5 651.375 L 250.875 650.625 L 229.625 651 L 229 651.75 C 230.125 664 230.25 667 230 678.375 C 226.625 679.125 224.125 679.75 220.625 679.75 C 201.25 679.75 197.75 661.25 197.75 651.875 C 197.75 632.125 208.375 621.375 224.125 621.375 C 233.625 621.375 239.25 625.125 245.125 629 L 246.125 628.625 C 246.75 620.875 247 618.875 248 611.375 L 247.375 610.625 C 242.125 608.375 233.75 604.875 220.75 604.875 C 206.5 604.875 190.875 608.875 181 625.625 C 176.5 633.5 174.625 643.625 174.625 652 C 174.625 663.75 177.75 673.625 183.375 680.875 C 190.75 690.375 199.875 693.375 204.75 694.75 C 208.375 695.75 213.75 696.875 221.5 696.875 C 234.375 696.875 242.25 694.25 251 691.375 L 251.625 690.375 C 251.5 684.625 251.25 678.875 251.25 673.125 Z M 301.5 648.625 L 305 628.25 L 304.25 627.375 C 303.375 627.375 302.5 627.25 301.625 627.25 C 296.5 627.25 290.75 630.125 286.75 639.375 L 287.125 627.875 L 286.125 626.875 C 276.875 628.875 274.5 629.25 265.375 630.625 L 264.625 631.375 C 265.375 640.75 265.75 646.375 265.75 663.75 C 265.75 674 265.625 684.25 265.375 694.625 L 266.125 695.375 C 275.375 695 277.375 694.875 287.375 695 L 288 694.125 C 287.5 684 286.75 669.875 286.75 661.25 C 286.75 655.625 286.75 647.375 295.25 647.375 C 297.375 647.375 298.625 648.125 300.375 649.125 Z M 367.875 657.75 C 368 646.5 368 641.625 364.75 636.375 C 362.25 632.375 357.25 627.375 341.25 627.375 C 330.5 627.375 323.875 629.375 316.75 631.5 L 316 632.5 L 315.375 646.125 L 316.375 646.625 C 320.75 644.875 328.875 641.625 337.25 641.625 C 341.875 641.625 343.75 642.375 345.375 644 C 346.625 645.25 347 647.5 347 649.375 C 332 651.375 325 652.75 317.5 657.375 C 310.5 661.75 308.125 668.875 308.125 674.5 C 308.125 687.875 317.75 696.5 330 696.5 C 339.375 696.5 344.75 692 347.375 689.875 L 347.375 694.5 L 348.125 695.375 C 357.125 695 359.875 694.875 368 695 L 368.625 694.125 C 367.75 681.875 367.75 678.75 367.75 667 L 367.875 657.75 M 347.25 677.625 C 344.625 679.125 341.25 680.875 337.125 680.875 C 332.625 680.875 328.875 678.5 328.875 673.25 C 328.875 665 338.75 663.625 347.25 662.5 Z M 408.75 651.875 C 404.5 650.375 401.125 649 401.125 645.5 C 401.125 644 402.125 639.875 409.875 639.875 C 417.5 639.875 422.375 643.125 425.5 645.125 L 426.625 644.75 L 427.875 631.125 L 427.25 630.375 C 421.375 628.75 416.25 627.25 408.125 627.25 C 402 627.25 389.75 627.75 383.25 637.125 C 381.625 639.375 379.875 643.125 379.875 648.125 C 379.875 661.5 390.25 665.5 396.125 667.75 L 400.875 669.5 C 404.25 670.625 409.75 672.5 409.75 677 C 409.75 680.125 406.875 683.5 399.875 683.5 C 396.375 683.5 391.25 682.375 386.625 680 C 384.5 678.875 383.5 678 381.625 676.5 L 380.5 677 C 380.25 683.5 380.125 684.875 379.625 691.125 L 380.25 692.25 C 386.375 694.5 391.625 696.5 400.75 696.5 C 410.25 696.5 429 694.75 431.25 676.875 C 431.375 675.875 431.375 675 431.375 674.125 C 431.375 660.375 421.75 656.75 414.875 654.125 Z M 468.625 651.875 C 464.375 650.375 461 649 461 645.5 C 461 644 462 639.875 469.75 639.875 C 477.375 639.875 482.25 643.125 485.375 645.125 L 486.5 644.75 L 487.75 631.125 L 487.125 630.375 C 481.25 628.75 476.125 627.25 468 627.25 C 461.875 627.25 449.625 627.75 443.125 637.125 C 441.5 639.375 439.75 643.125 439.75 648.125 C 439.75 661.5 450.125 665.5 456 667.75 L 460.75 669.5 C 464.125 670.625 469.625 672.5 469.625 677 C 469.625 680.125 466.75 683.5 459.75 683.5 C 456.25 683.5 451.125 682.375 446.5 680 C 444.375 678.875 443.375 678 441.5 676.5 L 440.375 677 C 440.125 683.5 440 684.875 439.5 691.125 L 440.125 692.25 C 446.25 694.5 451.5 696.5 460.625 696.5 C 470.125 696.5 488.875 694.75 491.125 676.875 C 491.25 675.875 491.25 675 491.25 674.125 C 491.25 660.375 481.625 656.75 474.75 654.125 Z M 524.25 694.125 C 523.625 679.75 523 666.625 523 627.125 C 523 615.25 523.125 609.625 523.625 596.125 L 522.75 595.25 L 501.375 598.625 L 500.875 599.375 C 502.125 614.625 502.25 618.75 502.5 639 C 502.625 646.375 502.625 653.75 502.625 661.125 C 502.625 674.625 502.375 682.125 501.875 694.5 L 502.625 695.375 C 511 695 514.375 694.875 523.5 695 Z M 594.375 657.75 C 594.5 646.5 594.5 641.625 591.25 636.375 C 588.75 632.375 583.75 627.375 567.75 627.375 C 557 627.375 550.375 629.375 543.25 631.5 L 542.5 632.5 L 541.875 646.125 L 542.875 646.625 C 547.25 644.875 555.375 641.625 563.75 641.625 C 568.375 641.625 570.25 642.375 571.875 644 C 573.125 645.25 573.5 647.5 573.5 649.375 C 558.5 651.375 551.5 652.75 544 657.375 C 537 661.75 534.625 668.875 534.625 674.5 C 534.625 687.875 544.25 696.5 556.5 696.5 C 565.875 696.5 571.25 692 573.875 689.875 L 573.875 694.5 L 574.625 695.375 C 583.625 695 586.375 694.875 594.5 695 L 595.125 694.125 C 594.25 681.875 594.25 678.75 594.25 667 L 594.375 657.75 M 573.75 677.625 C 571.125 679.125 567.75 680.875 563.625 680.875 C 559.125 680.875 555.375 678.5 555.375 673.25 C 555.375 665 565.25 663.625 573.75 662.5 Z M 670.25 694.125 C 669.625 683.125 669.625 679.625 669.375 667.375 L 669.375 657.625 C 669.25 645.625 669.125 639.875 666 634.75 C 662.125 628.25 655 627.25 650.5 627.25 C 642.875 627.25 636.25 631.25 630.5 634.625 L 630.75 627.75 L 629.5 626.875 C 619.875 628.875 617.75 629.25 608.375 630.5 L 607.625 631.375 C 608.625 642.25 609.375 650.125 609.375 670.5 C 609.375 678.5 609.25 686.5 609.125 694.5 L 609.875 695.25 C 618.875 694.875 620.75 694.875 630.75 694.875 L 631.5 694.125 C 630.75 674.875 630.625 670 630.5 647.625 C 633.125 645.875 636.125 643.75 640.125 643.75 C 647 643.75 647.625 651.125 648 655.625 C 648.25 659.75 648.375 676.875 648.375 681.625 C 648.375 685.875 648.25 690.25 648.25 694.5 L 649 695.25 C 657.25 695 659.375 694.875 669.375 694.875 Z M 745.75 694.25 C 745.25 683 744.875 675.5 744.875 659.125 C 744.875 626.125 745.375 612.5 745.875 596 L 745 595.25 L 724.375 598.5 L 723.75 599.25 C 724.5 611 724.625 614.125 724.5 628.375 C 715.125 628.125 703.375 627.875 693.875 635.375 C 685.125 642.125 681.5 652.5 681.5 665.375 C 681.5 675.125 684.125 684.875 691.5 691 C 697 695.5 703.75 696.5 707.875 696.5 C 716.75 696.5 721.375 692.375 724.375 689.75 L 724.125 694.625 L 724.75 695.375 C 733.375 695 735.75 695 745.125 695 L 745.75 694.25 M 724.5 643.375 C 724.625 660 724.5 663.25 724.125 678.375 C 721.625 679.875 719.125 681.375 715.625 681.375 C 703.5 681.375 703.5 665.875 703.5 663.375 C 703.5 653.75 706.25 643 720.25 643 C 721.625 643 722.75 643.125 724.5 643.375 Z M 786.25 651.875 C 782 650.375 778.625 649 778.625 645.5 C 778.625 644 779.625 639.875 787.375 639.875 C 795 639.875 799.875 643.125 803 645.125 L 804.125 644.75 L 805.375 631.125 L 804.75 630.375 C 798.875 628.75 793.75 627.25 785.625 627.25 C 779.5 627.25 767.25 627.75 760.75 637.125 C 759.125 639.375 757.375 643.125 757.375 648.125 C 757.375 661.5 767.75 665.5 773.625 667.75 L 778.375 669.5 C 781.75 670.625 787.25 672.5 787.25 677 C 787.25 680.125 784.375 683.5 777.375 683.5 C 773.875 683.5 768.75 682.375 764.125 680 C 762 678.875 761 678 759.125 676.5 L 758 677 C 757.75 683.5 757.625 684.875 757.125 691.125 L 757.75 692.25 C 763.875 694.5 769.125 696.5 778.25 696.5 C 787.75 696.5 806.5 694.75 808.75 676.875 C 808.875 675.875 808.875 675 808.875 674.125 C 808.875 660.375 799.25 656.75 792.375 654.125 Z M 812.375 695 "/>
<path fill-rule="nonzero" fill="rgb(34.901961%, 14.901961%, 14.901961%)" fill-opacity="1" d="M 232.875 791.25 C 222.375 786.875 216.875 784.625 216.875 779 C 216.875 775.125 220.5 770.25 228.75 770.25 C 238.25 770.25 243.875 774.125 248.5 777.25 L 249.625 776.75 L 250.625 760.375 L 250 759.5 C 244.625 757.25 239 754.875 226.875 754.875 C 203.375 754.875 195.25 768.125 195.25 781.5 C 195.25 796.625 207 802.125 214 805.5 L 218.125 807.375 C 226.75 811 233.375 814.125 233.375 820.75 C 233.375 825.5 229.25 831.125 218.375 831.125 C 207 831.125 200.625 826.125 197 823.25 L 195.75 823.625 L 194.875 841.25 L 195.625 842.25 C 197 842.75 198.375 843.375 199.75 843.75 C 202.625 844.75 210 846.875 219.375 846.875 C 223.125 846.875 232.625 846.5 240.125 843 C 250.625 837.875 255.125 828.375 255.125 817.75 C 255.125 810.625 252.375 803 245.75 797.875 C 242.375 795.375 239.125 793.875 236.125 792.5 Z M 302 830.625 C 299.875 831.25 298.375 831.75 296.25 831.75 C 289.875 831.75 289.375 827.75 289.125 825.875 C 288.75 822.625 288.75 815.75 288.875 810.75 L 289.125 793.125 L 300.375 793.625 L 301.125 792.875 L 302.375 779.5 L 301.625 778.75 L 289.125 778.75 L 289.5 757.75 L 288.625 757 C 280.125 759.5 277.875 760.125 269 762.375 L 268.5 763.25 L 268.625 778.875 L 261.875 778.625 L 261.125 779.25 L 260 792.625 L 260.75 793.375 L 268.625 793.125 L 268.25 813 C 268.125 816.125 268 819.25 268 822.5 C 268 834 268.25 846.375 287.75 846.375 C 292.625 846.375 296.5 845.625 300.875 844.875 L 301.75 844 L 303 831.125 Z M 366.875 807.75 C 367 796.5 367 791.625 363.75 786.375 C 361.25 782.375 356.25 777.375 340.25 777.375 C 329.5 777.375 322.875 779.375 315.75 781.5 L 315 782.5 L 314.375 796.125 L 315.375 796.625 C 319.75 794.875 327.875 791.625 336.25 791.625 C 340.875 791.625 342.75 792.375 344.375 794 C 345.625 795.25 346 797.5 346 799.375 C 331 801.375 324 802.75 316.5 807.375 C 309.5 811.75 307.125 818.875 307.125 824.5 C 307.125 837.875 316.75 846.5 329 846.5 C 338.375 846.5 343.75 842 346.375 839.875 L 346.375 844.5 L 347.125 845.375 C 356.125 845 358.875 844.875 367 845 L 367.625 844.125 C 366.75 831.875 366.75 828.75 366.75 817 L 366.875 807.75 M 346.25 827.625 C 343.625 829.125 340.25 830.875 336.125 830.875 C 331.625 830.875 327.875 828.5 327.875 823.25 C 327.875 815 337.75 813.625 346.25 812.5 Z M 416.5 830.625 C 414.375 831.25 412.875 831.75 410.75 831.75 C 404.375 831.75 403.875 827.75 403.625 825.875 C 403.25 822.625 403.25 815.75 403.375 810.75 L 403.625 793.125 L 414.875 793.625 L 415.625 792.875 L 416.875 779.5 L 416.125 778.75 L 403.625 778.75 L 404 757.75 L 403.125 757 C 394.625 759.5 392.375 760.125 383.5 762.375 L 383 763.25 L 383.125 778.875 L 376.375 778.625 L 375.625 779.25 L 374.5 792.625 L 375.25 793.375 L 383.125 793.125 L 382.75 813 C 382.625 816.125 382.5 819.25 382.5 822.5 C 382.5 834 382.75 846.375 402.25 846.375 C 407.125 846.375 411 845.625 415.375 844.875 L 416.25 844 L 417.5 831.125 Z M 481.25 826.5 C 476.5 829 470.875 831.875 461.75 831.875 C 454.25 831.875 449.125 829.5 446.125 825 C 444.25 822.375 443.875 819.875 443.375 817.375 L 483.75 816.625 L 484.5 815.75 C 484.375 809.625 484.25 803.375 482.5 797.125 C 478.125 782.375 468.5 779.375 464.25 778.375 C 461.125 777.5 458.25 777.25 455.375 777.25 C 435.75 777.25 422.75 790.125 422.75 811.75 C 422.75 817.625 423.75 823.75 425.75 828.125 C 433 845 450 846.5 459 846.5 C 469.375 846.5 473.875 844.625 480.5 842 L 481.25 841 L 482.125 826.875 L 481.25 826.5 M 443.375 804.125 C 443.75 800.25 444.625 795 449.375 792 C 450.875 791 452.625 790.625 454.375 790.625 C 458.5 790.625 461 792.75 462.375 795 C 464.125 797.75 464.25 800.75 464.25 803.625 Z M 549.25 756.5 L 533.375 756.75 L 532.625 757.5 C 533.125 773.75 533.5 784.625 533.5 799 C 533.5 814.25 533.125 829.375 532.75 844.625 L 533.5 845.375 C 542.75 845 544.75 844.875 554.75 845 L 555.375 844.25 C 554.875 830.625 554.875 827.5 554.875 814.75 C 568.875 814.875 583.875 814.875 592.875 803.875 C 596.375 799.625 599.375 792.5 599.375 783.75 C 599.375 778.375 598.125 766.5 587.75 760.625 C 580.25 756.25 569.625 756.25 560.25 756.25 L 549.25 756.5 M 554.875 771.625 C 557.625 771.5 560.25 771.5 563 771.5 C 574 771.75 577 777.375 577 784.625 C 577 786.375 577 793.625 570.375 797.25 C 567 799.125 562.375 799.375 554.875 799.375 Z M 663.625 807.75 C 663.75 796.5 663.75 791.625 660.5 786.375 C 658 782.375 653 777.375 637 777.375 C 626.25 777.375 619.625 779.375 612.5 781.5 L 611.75 782.5 L 611.125 796.125 L 612.125 796.625 C 616.5 794.875 624.625 791.625 633 791.625 C 637.625 791.625 639.5 792.375 641.125 794 C 642.375 795.25 642.75 797.5 642.75 799.375 C 627.75 801.375 620.75 802.75 613.25 807.375 C 606.25 811.75 603.875 818.875 603.875 824.5 C 603.875 837.875 613.5 846.5 625.75 846.5 C 635.125 846.5 640.5 842 643.125 839.875 L 643.125 844.5 L 643.875 845.375 C 652.875 845 655.625 844.875 663.75 845 L 664.375 844.125 C 663.5 831.875 663.5 828.75 663.5 817 L 663.625 807.75 M 643 827.625 C 640.375 829.125 637 830.875 632.875 830.875 C 628.375 830.875 624.625 828.5 624.625 823.25 C 624.625 815 634.5 813.625 643 812.5 Z M 714.375 798.625 L 717.875 778.25 L 717.125 777.375 C 716.25 777.375 715.375 777.25 714.5 777.25 C 709.375 777.25 703.625 780.125 699.625 789.375 L 700 777.875 L 699 776.875 C 689.75 778.875 687.375 779.25 678.25 780.625 L 677.5 781.375 C 678.25 790.75 678.625 796.375 678.625 813.75 C 678.625 824 678.5 834.25 678.25 844.625 L 679 845.375 C 688.25 845 690.25 844.875 700.25 845 L 700.875 844.125 C 700.375 834 699.625 819.875 699.625 811.25 C 699.625 805.625 699.625 797.375 708.125 797.375 C 710.25 797.375 711.5 798.125 713.25 799.125 Z M 789.375 843.375 C 777.625 823.5 776.375 821.25 766.875 804.125 C 775.5 792.375 776.375 791.125 785.25 779.75 L 784.625 778.5 L 764.25 778.75 L 763 779.625 C 753.25 796.5 752 798.5 746.25 807.125 L 746.25 793.25 C 746.375 769.875 746.5 764.875 747.125 746 L 746.125 745.25 L 724.375 748.5 L 723.625 749.375 C 724.5 761.5 724.875 767.375 725.125 783.75 C 725.375 804 725.375 824.25 725.25 844.5 L 726.125 845.375 C 734.5 845 736.875 845 746.375 845 L 747.125 844.125 L 746.375 823 L 746.25 808.625 C 757.125 828.625 758.5 831.375 764.875 844.625 L 766 845.375 L 788.5 844.5 Z M 787.875 845 "/>
</svg>
