<svg xmlns="http://www.w3.org/2000/svg" width="612" height="817" viewBox="0 0 612 817">
  <defs>
    <style>
      .cls-1 {
        fill: #592626;
        fill-rule: evenodd;
      }
    </style>
  </defs>
  <path id="Pacheco_State_Park" data-name="Pacheco State Park" class="cls-1" d="M67.255,336l-9.877.155-0.467.467c0.311,10.111.544,16.877,0.544,25.821,0,9.488-.233,18.9-0.467,28.387l0.467,0.467c5.755-.233,7-0.311,13.222-0.233l0.389-.467c-0.311-8.477-.311-10.422-0.311-18.355,8.711,0.078,18.044.078,23.643-6.766a19.986,19.986,0,0,0,4.044-12.521c0-3.345-.778-10.733-7.233-14.389-4.666-2.722-11.277-2.722-17.11-2.722Zm3.5,9.41c1.711-.077,3.344-0.077,5.055-0.077,6.844,0.155,8.711,3.655,8.711,8.166,0,1.089,0,5.6-4.122,7.855-2.1,1.167-4.978,1.322-9.644,1.322V345.412Zm66.11,22.477c0.078-7,.078-10.033-1.945-13.3-1.555-2.489-4.666-5.6-14.621-5.6a47.308,47.308,0,0,0-15.244,2.567l-0.466.622-0.389,8.477,0.622,0.311c2.722-1.089,7.777-3.111,12.988-3.111,2.878,0,4.044.467,5.055,1.478a4.9,4.9,0,0,1,1.012,3.344c-9.333,1.245-13.689,2.1-18.355,4.978a12.437,12.437,0,0,0-5.833,10.655c0,8.322,5.988,13.688,13.61,13.688a16.082,16.082,0,0,0,10.811-4.122v2.878l0.466,0.544c5.6-.233,7.311-0.311,12.367-0.233l0.388-.545c-0.544-7.621-.544-9.566-0.544-16.877Zm-12.833,12.366a12.6,12.6,0,0,1-6.3,2.022c-2.8,0-5.133-1.477-5.133-4.744,0-5.133,6.144-5.988,11.433-6.688v9.41Zm52.344-.389a13.848,13.848,0,0,1-8.088,2.489c-8.789,0-10.578-7.311-10.578-11.977,0-5.678,2.489-12.211,10.033-12.211,3.422,0,5.289,1.245,7.622,2.8l0.778-.233c0.311-4.122.389-5.211,1.011-9.333l-0.389-.467a32.352,32.352,0,0,0-10.888-2.022c-18.277,0-21.855,13.844-21.855,21.777,0,8.944,4.667,21.077,22.166,21.077a32.587,32.587,0,0,0,10.033-1.711l0.466-.467L177,380.255Zm44.955,10.655c-0.311-6.377-.389-8.555-0.544-16.643v-5.833c-0.078-7.389-.156-11.666-2.411-14.933-2.256-3.189-5.522-4.2-8.944-4.2-5.678,0-10.111,2.722-13.222,4.589l0.234-23.954L195.977,329l-13.3,2.1-0.389.467c0.7,7.544.855,10.344,1.011,20.376q0.233,9.45.233,18.9c0,7.7-.155,12.288-0.311,19.91l0.389,0.544c5.755-.311,6.922-0.311,13.221-0.311l0.467-.467c-0.544-11.666-.622-15.166-0.7-28.932a10.272,10.272,0,0,1,5.989-2.333c4.277,0,4.588,4.433,4.9,7.544,0.155,2.411.233,13.455,0.233,16.333,0,2.566-.078,5.055-0.078,7.622l0.389,0.544c5.6-.311,6.844-0.311,12.833-0.311Zm43.4-10.966A23.761,23.761,0,0,1,252.6,382.9c-4.667,0-7.855-1.478-9.722-4.278a11,11,0,0,1-1.711-4.744l25.121-.467,0.467-.544a45.607,45.607,0,0,0-1.245-11.589c-2.722-9.177-8.71-11.044-11.355-11.666a19.933,19.933,0,0,0-5.522-.7c-12.21,0-20.3,8.011-20.3,21.466a25.873,25.873,0,0,0,1.867,10.188c4.511,10.5,15.088,11.433,20.688,11.433,6.455,0,9.255-1.167,13.377-2.8l0.466-.622,0.545-8.788Zm-23.565-13.921c0.233-2.411.778-5.678,3.733-7.544a5.969,5.969,0,0,1,8.089,1.866,9.511,9.511,0,0,1,1.166,5.367Zm63.155,14.232a13.849,13.849,0,0,1-8.089,2.489c-8.788,0-10.577-7.311-10.577-11.977,0-5.678,2.489-12.211,10.033-12.211,3.422,0,5.288,1.245,7.621,2.8l0.778-.233c0.311-4.122.389-5.211,1.011-9.333l-0.389-.467a32.352,32.352,0,0,0-10.888-2.022c-18.277,0-21.854,13.844-21.854,21.777,0,8.944,4.666,21.077,22.165,21.077a32.587,32.587,0,0,0,10.033-1.711l0.467-.467,0.311-9.333Zm46.432-9.488c0-3.033,0-15.633-10.888-19.91a27.956,27.956,0,0,0-9.488-1.478c-13.533,0-21.155,7.233-21.155,21.543,0,4.978.778,10.033,3.655,14.233C314.9,387.8,318.711,392,329.832,392,346.32,392,350.753,382.044,350.753,370.378ZM337.3,370.3c0,6.378-.856,13.455-7.311,13.455a6.292,6.292,0,0,1-4.356-1.789c-1.322-1.322-2.8-3.966-2.8-11.51,0-2.256,0-7.233,1.555-9.955a6.442,6.442,0,0,1,5.678-3.5,6.538,6.538,0,0,1,4.977,2.411C336.91,361.667,337.3,366.1,337.3,370.3Zm66.033-12.677c-6.533-2.722-9.955-4.122-9.955-7.622,0-2.411,2.255-5.444,7.389-5.444,5.91,0,9.41,2.411,12.288,4.355l0.7-.311,0.622-10.188-0.389-.545a31.857,31.857,0,0,0-14.388-2.877c-14.622,0-19.677,8.244-19.677,16.566,0,9.41,7.311,12.832,11.666,14.932l2.567,1.167c5.366,2.255,9.488,4.2,9.488,8.322,0,2.955-2.566,6.455-9.333,6.455a19.839,19.839,0,0,1-13.3-4.9l-0.778.233-0.544,10.967,0.466,0.622c0.856,0.311,1.711.7,2.567,0.933a38.745,38.745,0,0,0,12.21,1.944c2.334,0,8.245-.233,12.911-2.411,6.533-3.188,9.333-9.1,9.333-15.71a15.415,15.415,0,0,0-5.833-12.366,31.446,31.446,0,0,0-5.989-3.344Zm43.011,24.5a11.669,11.669,0,0,1-3.577.7c-3.967,0-4.278-2.489-4.434-3.656a89.161,89.161,0,0,1-.155-9.41l0.155-10.966,7,0.311,0.467-.467,0.777-8.322-0.466-.466h-7.778l0.234-13.066-0.545-.467c-5.288,1.555-6.688,1.944-12.21,3.344l-0.311.545,0.078,9.721-4.2-.155-0.467.389-0.7,8.321,0.467,0.467,4.9-.155-0.234,12.366c-0.078,1.944-.155,3.888-0.155,5.91,0,7.156.155,14.855,12.288,14.855a45.17,45.17,0,0,0,8.166-.933l0.545-.544,0.777-8.011Zm40.366-14.233c0.078-7,.078-10.033-1.944-13.3-1.556-2.489-4.667-5.6-14.622-5.6a47.306,47.306,0,0,0-15.243,2.567l-0.467.622-0.389,8.477,0.622,0.311c2.722-1.089,7.778-3.111,12.989-3.111,2.877,0,4.044.467,5.055,1.478a4.9,4.9,0,0,1,1.011,3.344c-9.333,1.245-13.688,2.1-18.355,4.978a12.437,12.437,0,0,0-5.833,10.655c0,8.322,5.989,13.688,13.611,13.688a16.079,16.079,0,0,0,10.81-4.122v2.878l0.467,0.544c5.6-.233,7.311-0.311,12.366-0.233l0.389-.545c-0.545-7.621-.545-9.566-0.545-16.877Zm-12.833,12.366a12.6,12.6,0,0,1-6.3,2.022c-2.8,0-5.133-1.477-5.133-4.744,0-5.133,6.144-5.988,11.432-6.688v9.41Zm43.712,1.867a11.68,11.68,0,0,1-3.578.7c-3.966,0-4.278-2.489-4.433-3.656a89.4,89.4,0,0,1-.156-9.41l0.156-10.966,7,0.311,0.466-.467,0.778-8.322-0.467-.466h-7.777l0.233-13.066-0.544-.467c-5.289,1.555-6.689,1.944-12.211,3.344l-0.311.545,0.078,9.721-4.2-.155-0.466.389-0.7,8.321,0.466,0.467,4.9-.155-0.233,12.366c-0.078,1.944-.156,3.888-0.156,5.91,0,7.156.156,14.855,12.288,14.855a45.17,45.17,0,0,0,8.167-.933l0.544-.544,0.778-8.011Zm38.732-2.567a23.761,23.761,0,0,1-12.132,3.345c-4.667,0-7.856-1.478-9.722-4.278a11,11,0,0,1-1.711-4.744l25.121-.467,0.466-.544a45.56,45.56,0,0,0-1.244-11.589c-2.722-9.177-8.711-11.044-11.355-11.666a19.933,19.933,0,0,0-5.522-.7c-12.21,0-20.3,8.011-20.3,21.466a25.873,25.873,0,0,0,1.867,10.188C526.3,391.066,536.877,392,542.477,392c6.455,0,9.255-1.167,13.377-2.8l0.466-.622,0.545-8.788Zm-23.565-13.921c0.233-2.411.778-5.678,3.733-7.544a5.968,5.968,0,0,1,8.088,1.866,9.5,9.5,0,0,1,1.167,5.367Zm-292.172,63.7-9.878.156-0.466.466c0.311,10.111.544,16.877,0.544,25.821,0,9.489-.233,18.9-0.467,28.388l0.467,0.466c5.755-.233,7-0.311,13.222-0.233l0.389-.467c-0.312-8.477-.312-10.421-0.312-18.354,8.711,0.078,18.044.078,23.644-6.767a19.991,19.991,0,0,0,4.044-12.521c0-3.344-.778-10.733-7.233-14.388-4.666-2.722-11.277-2.722-17.11-2.722Zm3.5,9.411c1.711-.078,3.345-0.078,5.056-0.078,6.844,0.156,8.71,3.655,8.71,8.166,0,1.089,0,5.6-4.122,7.855-2.1,1.167-4.977,1.323-9.644,1.323V438.746Zm66.111,22.476c0.077-7,.077-10.032-1.945-13.3-1.555-2.489-4.666-5.6-14.621-5.6a47.335,47.335,0,0,0-15.244,2.567l-0.467.622-0.389,8.477,0.623,0.312c2.722-1.089,7.777-3.111,12.988-3.111,2.878,0,4.044.466,5.055,1.477a4.9,4.9,0,0,1,1.011,3.345c-9.333,1.244-13.688,2.1-18.354,4.977a12.435,12.435,0,0,0-5.833,10.655c0,8.322,5.988,13.688,13.61,13.688a16.079,16.079,0,0,0,10.811-4.122v2.878l0.466,0.544c5.6-.233,7.311-0.311,12.366-0.233l0.389-.544c-0.544-7.622-.544-9.567-0.544-16.877ZM297.36,473.589a12.6,12.6,0,0,1-6.3,2.022c-2.8,0-5.133-1.478-5.133-4.745,0-5.133,6.144-5.988,11.433-6.688v9.411Zm44.411-18.044,2.178-12.677-0.467-.545c-0.544,0-1.089-.077-1.633-0.077-3.189,0-6.767,1.788-9.255,7.544l0.233-7.156-0.622-.622c-5.756,1.245-7.233,1.478-12.911,2.333l-0.466.467c0.466,5.833.7,9.333,0.7,20.144,0,6.377-.078,12.755-0.234,19.21l0.467,0.466c5.755-.233,7-0.311,13.221-0.233l0.389-.544c-0.311-6.3-.777-15.088-0.777-20.455,0-3.5,0-8.633,5.288-8.633a5.826,5.826,0,0,1,3.189,1.089Zm46.666,27.843c-7.311-12.366-8.089-13.766-14-24.421,5.367-7.311,5.911-8.088,11.433-15.166l-0.389-.778-12.677.156-0.778.544c-6.066,10.5-6.844,11.744-10.421,17.111V452.2c0.077-14.544.155-17.655,0.544-29.4l-0.622-.467-13.533,2.023-0.466.544c0.544,7.544.777,11.2,0.933,21.388,0.155,12.6.155,25.2,0.078,37.8l0.544,0.544c5.211-.233,6.689-0.233,12.6-0.233l0.467-.544-0.467-13.144-0.077-8.944c6.766,12.444,7.622,14.155,11.588,22.4l0.7,0.466,14-.544Z"/>
</svg>
