<?xml version="1.0" encoding="UTF-8"?>
<svg xmlns="http://www.w3.org/2000/svg" xmlns:xlink="http://www.w3.org/1999/xlink" width="975" height="1300" viewBox="0 0 975 1300">
<path fill-rule="nonzero" fill="rgb(34.901961%, 14.901961%, 14.901961%)" fill-opacity="1" d="M 80.5 531.5 L 64.625 531.75 L 63.875 532.5 C 64.375 548.75 64.75 559.625 64.75 574 C 64.75 589.25 64.375 604.375 64 619.625 L 64.75 620.375 C 74 620 76 619.875 86 620 L 86.625 619.25 C 86.125 605.625 86.125 602.5 86.125 589.75 C 100.125 589.875 115.125 589.875 124.125 578.875 C 127.625 574.625 130.625 567.5 130.625 558.75 C 130.625 553.375 129.375 541.5 119 535.625 C 111.5 531.25 100.875 531.25 91.5 531.25 L 80.5 531.5 M 86.125 546.625 C 88.875 546.5 91.5 546.5 94.25 546.5 C 105.25 546.75 108.25 552.375 108.25 559.625 C 108.25 561.375 108.25 568.625 101.625 572.25 C 98.25 574.125 93.625 574.375 86.125 574.375 Z M 202.875 586.75 C 202.875 581.875 202.875 561.625 185.375 554.75 C 179.875 552.625 173.375 552.375 170.125 552.375 C 148.375 552.375 136.125 564 136.125 587 C 136.125 595 137.375 603.125 142 609.875 C 145.25 614.75 151.375 621.5 169.25 621.5 C 195.75 621.5 202.875 605.5 202.875 586.75 M 181.25 586.625 C 181.25 596.875 179.875 608.25 169.5 608.25 C 166.25 608.25 164 606.75 162.5 605.375 C 160.375 603.25 158 599 158 586.875 C 158 583.25 158 575.25 160.5 570.875 C 162.375 567.5 165.625 565.25 169.625 565.25 C 173.125 565.25 176 567.125 177.625 569.125 C 180.625 572.75 181.25 579.875 181.25 586.625 Z M 237.375 619.125 C 236.75 609.5 236.25 602.125 236.25 584.875 C 236.25 574.25 236.5 563.5 236.625 552.875 L 235.75 551.875 L 214.25 555.625 L 213.5 556.375 C 214.5 565.875 214.875 570.25 214.875 588 C 214.875 601.625 214.5 609.25 214.125 619.5 L 214.875 620.375 C 223.875 620 226.375 619.875 236.5 620 L 237.375 619.125 M 235.375 539.875 L 235.75 522.875 L 235 522.125 L 214.625 524.625 L 213.875 525.5 C 214.125 530 214.25 532.625 214.25 535.625 C 214.25 538 214.25 540.5 214.125 542.875 L 215 543.625 C 223.5 542.125 225.875 541.875 234.75 540.75 Z M 312.5 619.125 C 311.875 608.125 311.875 604.625 311.625 592.375 L 311.625 582.625 C 311.5 570.625 311.375 564.875 308.25 559.75 C 304.375 553.25 297.25 552.25 292.75 552.25 C 285.125 552.25 278.5 556.25 272.75 559.625 L 273 552.75 L 271.75 551.875 C 262.125 553.875 260 554.25 250.625 555.5 L 249.875 556.375 C 250.875 567.25 251.625 575.125 251.625 595.5 C 251.625 603.5 251.5 611.5 251.375 619.5 L 252.125 620.25 C 261.125 619.875 263 619.875 273 619.875 L 273.75 619.125 C 273 599.875 272.875 595 272.75 572.625 C 275.375 570.875 278.375 568.75 282.375 568.75 C 289.25 568.75 289.875 576.125 290.25 580.625 C 290.5 584.75 290.625 601.875 290.625 606.625 C 290.625 610.875 290.5 615.25 290.5 619.5 L 291.25 620.25 C 299.5 620 301.625 619.875 311.625 619.875 Z M 361.75 605.625 C 359.625 606.25 358.125 606.75 356 606.75 C 349.625 606.75 349.125 602.75 348.875 600.875 C 348.5 597.625 348.5 590.75 348.625 585.75 L 348.875 568.125 L 360.125 568.625 L 360.875 567.875 L 362.125 554.5 L 361.375 553.75 L 348.875 553.75 L 349.25 532.75 L 348.375 532 C 339.875 534.5 337.625 535.125 328.75 537.375 L 328.25 538.25 L 328.375 553.875 L 321.625 553.625 L 320.875 554.25 L 319.75 567.625 L 320.5 568.375 L 328.375 568.125 L 328 588 C 327.875 591.125 327.75 594.25 327.75 597.5 C 327.75 609 328 621.375 347.5 621.375 C 352.375 621.375 356.25 620.625 360.625 619.875 L 361.5 619 L 362.75 606.125 Z M 443.625 566.25 C 433.125 561.875 427.625 559.625 427.625 554 C 427.625 550.125 431.25 545.25 439.5 545.25 C 449 545.25 454.625 549.125 459.25 552.25 L 460.375 551.75 L 461.375 535.375 L 460.75 534.5 C 455.375 532.25 449.75 529.875 437.625 529.875 C 414.125 529.875 406 543.125 406 556.5 C 406 571.625 417.75 577.125 424.75 580.5 L 428.875 582.375 C 437.5 586 444.125 589.125 444.125 595.75 C 444.125 600.5 440 606.125 429.125 606.125 C 417.75 606.125 411.375 601.125 407.75 598.25 L 406.5 598.625 L 405.625 616.25 L 406.375 617.25 C 407.75 617.75 409.125 618.375 410.5 618.75 C 413.375 619.75 420.75 621.875 430.125 621.875 C 433.875 621.875 443.375 621.5 450.875 618 C 461.375 612.875 465.875 603.375 465.875 592.75 C 465.875 585.625 463.125 578 456.5 572.875 C 453.125 570.375 449.875 568.875 446.875 567.5 Z M 537.75 553.125 L 517.375 554.125 L 516.5 554.875 C 517.375 569 517.375 589 517.375 591 C 517.375 594.625 517.375 596.625 517.25 601.625 C 513.875 603.875 511.25 605.75 507.875 605.75 C 498.875 605.75 498.875 596.25 498.875 588.875 C 498.875 585.75 498.875 582.5 499 579.375 L 499.25 554.125 L 498.375 553.125 L 477.75 554.125 L 476.875 554.875 C 477.625 565.375 477.75 568.875 477.75 581.5 L 477.75 590.25 C 477.625 603.875 478.25 609.625 482.75 614.875 C 486.875 619.5 492.875 621.5 499.125 621.5 C 508 621.5 513.125 617.5 517.625 614 L 517.5 619.625 L 518.375 620.375 C 527.5 620 530.25 620 538.375 620 L 539.125 619.25 C 538.5 610.375 538.25 605.625 538.25 589.375 C 538.25 577.625 538.375 565.875 538.625 554.125 Z M 589.375 573.625 L 592.875 553.25 L 592.125 552.375 C 591.25 552.375 590.375 552.25 589.5 552.25 C 584.375 552.25 578.625 555.125 574.625 564.375 L 575 552.875 L 574 551.875 C 564.75 553.875 562.375 554.25 553.25 555.625 L 552.5 556.375 C 553.25 565.75 553.625 571.375 553.625 588.75 C 553.625 599 553.5 609.25 553.25 619.625 L 554 620.375 C 563.25 620 565.25 619.875 575.25 620 L 575.875 619.125 C 575.375 609 574.625 594.875 574.625 586.25 C 574.625 580.625 574.625 572.375 583.125 572.375 C 585.25 572.375 586.5 573.125 588.25 574.125 Z M 672.75 566.25 C 662.25 561.875 656.75 559.625 656.75 554 C 656.75 550.125 660.375 545.25 668.625 545.25 C 678.125 545.25 683.75 549.125 688.375 552.25 L 689.5 551.75 L 690.5 535.375 L 689.875 534.5 C 684.5 532.25 678.875 529.875 666.75 529.875 C 643.25 529.875 635.125 543.125 635.125 556.5 C 635.125 571.625 646.875 577.125 653.875 580.5 L 658 582.375 C 666.625 586 673.25 589.125 673.25 595.75 C 673.25 600.5 669.125 606.125 658.25 606.125 C 646.875 606.125 640.5 601.125 636.875 598.25 L 635.625 598.625 L 634.75 616.25 L 635.5 617.25 C 636.875 617.75 638.25 618.375 639.625 618.75 C 642.5 619.75 649.875 621.875 659.25 621.875 C 663 621.875 672.5 621.5 680 618 C 690.5 612.875 695 603.375 695 592.75 C 695 585.625 692.25 578 685.625 572.875 C 682.25 570.375 679 568.875 676 567.5 Z M 741.875 605.625 C 739.75 606.25 738.25 606.75 736.125 606.75 C 729.75 606.75 729.25 602.75 729 600.875 C 728.625 597.625 728.625 590.75 728.75 585.75 L 729 568.125 L 740.25 568.625 L 741 567.875 L 742.25 554.5 L 741.5 553.75 L 729 553.75 L 729.375 532.75 L 728.5 532 C 720 534.5 717.75 535.125 708.875 537.375 L 708.375 538.25 L 708.5 553.875 L 701.75 553.625 L 701 554.25 L 699.875 567.625 L 700.625 568.375 L 708.5 568.125 L 708.125 588 C 708 591.125 707.875 594.25 707.875 597.5 C 707.875 609 708.125 621.375 727.625 621.375 C 732.5 621.375 736.375 620.625 740.75 619.875 L 741.625 619 L 742.875 606.125 Z M 806.75 582.75 C 806.875 571.5 806.875 566.625 803.625 561.375 C 801.125 557.375 796.125 552.375 780.125 552.375 C 769.375 552.375 762.75 554.375 755.625 556.5 L 754.875 557.5 L 754.25 571.125 L 755.25 571.625 C 759.625 569.875 767.75 566.625 776.125 566.625 C 780.75 566.625 782.625 567.375 784.25 569 C 785.5 570.25 785.875 572.5 785.875 574.375 C 770.875 576.375 763.875 577.75 756.375 582.375 C 749.375 586.75 747 593.875 747 599.5 C 747 612.875 756.625 621.5 768.875 621.5 C 778.25 621.5 783.625 617 786.25 614.875 L 786.25 619.5 L 787 620.375 C 796 620 798.75 619.875 806.875 620 L 807.5 619.125 C 806.625 606.875 806.625 603.75 806.625 592 L 806.75 582.75 M 786.125 602.625 C 783.5 604.125 780.125 605.875 776 605.875 C 771.5 605.875 767.75 603.5 767.75 598.25 C 767.75 590 777.625 588.625 786.125 587.5 Z M 856.375 605.625 C 854.25 606.25 852.75 606.75 850.625 606.75 C 844.25 606.75 843.75 602.75 843.5 600.875 C 843.125 597.625 843.125 590.75 843.25 585.75 L 843.5 568.125 L 854.75 568.625 L 855.5 567.875 L 856.75 554.5 L 856 553.75 L 843.5 553.75 L 843.875 532.75 L 843 532 C 834.5 534.5 832.25 535.125 823.375 537.375 L 822.875 538.25 L 823 553.875 L 816.25 553.625 L 815.5 554.25 L 814.375 567.625 L 815.125 568.375 L 823 568.125 L 822.625 588 C 822.5 591.125 822.375 594.25 822.375 597.5 C 822.375 609 822.625 621.375 842.125 621.375 C 847 621.375 850.875 620.625 855.25 619.875 L 856.125 619 L 857.375 606.125 Z M 921.125 601.5 C 916.375 604 910.75 606.875 901.625 606.875 C 894.125 606.875 889 604.5 886 600 C 884.125 597.375 883.75 594.875 883.25 592.375 L 923.625 591.625 L 924.375 590.75 C 924.25 584.625 924.125 578.375 922.375 572.125 C 918 557.375 908.375 554.375 904.125 553.375 C 901 552.5 898.125 552.25 895.25 552.25 C 875.625 552.25 862.625 565.125 862.625 586.75 C 862.625 592.625 863.625 598.75 865.625 603.125 C 872.875 620 889.875 621.5 898.875 621.5 C 909.25 621.5 913.75 619.625 920.375 617 L 921.125 616 L 922 601.875 L 921.125 601.5 M 883.25 579.125 C 883.625 575.25 884.5 570 889.25 567 C 890.75 566 892.5 565.625 894.25 565.625 C 898.375 565.625 900.875 567.75 902.25 570 C 904 572.75 904.125 575.75 904.125 578.625 Z M 928.375 620 "/>
<path fill-rule="nonzero" fill="rgb(34.901961%, 14.901961%, 14.901961%)" fill-opacity="1" d="M 196.8125 681.375 C 186.8125 681.75 185.1875 681.75 174.6875 681.75 L 174.0625 682.5 C 174.9375 696.625 174.9375 700.25 175.0625 715 C 169.5625 715.125 164.0625 715.25 158.4375 715.25 C 154.0625 715.25 149.5625 715.125 145.1875 715.125 L 145.4375 682.125 L 144.8125 681.375 C 135.1875 681.75 133.3125 681.75 122.4375 681.75 L 121.6875 682.5 C 122.3125 695.375 123.0625 710.75 123.0625 741.75 C 123.0625 753 122.8125 759.125 122.5625 769.625 L 123.1875 770.375 C 132.3125 770 134.5625 769.875 145.5625 770 L 146.1875 769.25 C 145.4375 753.75 145.3125 749.25 145.1875 731.125 C 150.6875 730.875 155.3125 730.75 160.1875 730.75 C 165.1875 730.75 170.1875 730.875 175.1875 731 C 175.4375 747.875 175.4375 752 174.8125 769.625 L 175.4375 770.375 C 184.8125 770 187.3125 769.875 197.9375 770 L 198.5625 769.25 C 197.5625 748.25 197.1875 727.375 197.1875 706.375 C 197.1875 697.625 197.3125 691.75 197.4375 682.125 Z M 235.6875 769.125 C 235.0625 759.5 234.5625 752.125 234.5625 734.875 C 234.5625 724.25 234.8125 713.5 234.9375 702.875 L 234.0625 701.875 L 212.5625 705.625 L 211.8125 706.375 C 212.8125 715.875 213.1875 720.25 213.1875 738 C 213.1875 751.625 212.8125 759.25 212.4375 769.5 L 213.1875 770.375 C 222.1875 770 224.6875 769.875 234.8125 770 L 235.6875 769.125 M 233.6875 689.875 L 234.0625 672.875 L 233.3125 672.125 L 212.9375 674.625 L 212.1875 675.5 C 212.4375 680 212.5625 682.625 212.5625 685.625 C 212.5625 688 212.5625 690.5 212.4375 692.875 L 213.3125 693.625 C 221.8125 692.125 224.1875 691.875 233.0625 690.75 Z M 275.8125 726.875 C 271.5625 725.375 268.1875 724 268.1875 720.5 C 268.1875 719 269.1875 714.875 276.9375 714.875 C 284.5625 714.875 289.4375 718.125 292.5625 720.125 L 293.6875 719.75 L 294.9375 706.125 L 294.3125 705.375 C 288.4375 703.75 283.3125 702.25 275.1875 702.25 C 269.0625 702.25 256.8125 702.75 250.3125 712.125 C 248.6875 714.375 246.9375 718.125 246.9375 723.125 C 246.9375 736.5 257.3125 740.5 263.1875 742.75 L 267.9375 744.5 C 271.3125 745.625 276.8125 747.5 276.8125 752 C 276.8125 755.125 273.9375 758.5 266.9375 758.5 C 263.4375 758.5 258.3125 757.375 253.6875 755 C 251.5625 753.875 250.5625 753 248.6875 751.5 L 247.5625 752 C 247.3125 758.5 247.1875 759.875 246.6875 766.125 L 247.3125 767.25 C 253.4375 769.5 258.6875 771.5 267.8125 771.5 C 277.3125 771.5 296.0625 769.75 298.3125 751.875 C 298.4375 750.875 298.4375 750 298.4375 749.125 C 298.4375 735.375 288.8125 731.75 281.9375 729.125 Z M 344.4375 755.625 C 342.3125 756.25 340.8125 756.75 338.6875 756.75 C 332.3125 756.75 331.8125 752.75 331.5625 750.875 C 331.1875 747.625 331.1875 740.75 331.3125 735.75 L 331.5625 718.125 L 342.8125 718.625 L 343.5625 717.875 L 344.8125 704.5 L 344.0625 703.75 L 331.5625 703.75 L 331.9375 682.75 L 331.0625 682 C 322.5625 684.5 320.3125 685.125 311.4375 687.375 L 310.9375 688.25 L 311.0625 703.875 L 304.3125 703.625 L 303.5625 704.25 L 302.4375 717.625 L 303.1875 718.375 L 311.0625 718.125 L 310.6875 738 C 310.5625 741.125 310.4375 744.25 310.4375 747.5 C 310.4375 759 310.6875 771.375 330.1875 771.375 C 335.0625 771.375 338.9375 770.625 343.3125 769.875 L 344.1875 769 L 345.4375 756.125 Z M 417.3125 736.75 C 417.3125 731.875 417.3125 711.625 399.8125 704.75 C 394.3125 702.625 387.8125 702.375 384.5625 702.375 C 362.8125 702.375 350.5625 714 350.5625 737 C 350.5625 745 351.8125 753.125 356.4375 759.875 C 359.6875 764.75 365.8125 771.5 383.6875 771.5 C 410.1875 771.5 417.3125 755.5 417.3125 736.75 M 395.6875 736.625 C 395.6875 746.875 394.3125 758.25 383.9375 758.25 C 380.6875 758.25 378.4375 756.75 376.9375 755.375 C 374.8125 753.25 372.4375 749 372.4375 736.875 C 372.4375 733.25 372.4375 725.25 374.9375 720.875 C 376.8125 717.5 380.0625 715.25 384.0625 715.25 C 387.5625 715.25 390.4375 717.125 392.0625 719.125 C 395.0625 722.75 395.6875 729.875 395.6875 736.625 Z M 465.3125 723.625 L 468.8125 703.25 L 468.0625 702.375 C 467.1875 702.375 466.3125 702.25 465.4375 702.25 C 460.3125 702.25 454.5625 705.125 450.5625 714.375 L 450.9375 702.875 L 449.9375 701.875 C 440.6875 703.875 438.3125 704.25 429.1875 705.625 L 428.4375 706.375 C 429.1875 715.75 429.5625 721.375 429.5625 738.75 C 429.5625 749 429.4375 759.25 429.1875 769.625 L 429.9375 770.375 C 439.1875 770 441.1875 769.875 451.1875 770 L 451.8125 769.125 C 451.3125 759 450.5625 744.875 450.5625 736.25 C 450.5625 730.625 450.5625 722.375 459.0625 722.375 C 461.1875 722.375 462.4375 723.125 464.1875 724.125 Z M 498.6875 769.125 C 498.0625 759.5 497.5625 752.125 497.5625 734.875 C 497.5625 724.25 497.8125 713.5 497.9375 702.875 L 497.0625 701.875 L 475.5625 705.625 L 474.8125 706.375 C 475.8125 715.875 476.1875 720.25 476.1875 738 C 476.1875 751.625 475.8125 759.25 475.4375 769.5 L 476.1875 770.375 C 485.1875 770 487.6875 769.875 497.8125 770 L 498.6875 769.125 M 496.6875 689.875 L 497.0625 672.875 L 496.3125 672.125 L 475.9375 674.625 L 475.1875 675.5 C 475.4375 680 475.5625 682.625 475.5625 685.625 C 475.5625 688 475.5625 690.5 475.4375 692.875 L 476.3125 693.625 C 484.8125 692.125 487.1875 691.875 496.0625 690.75 Z M 561.4375 752 C 558.0625 754 554.8125 756 548.4375 756 C 534.3125 756 531.4375 744.25 531.4375 736.75 C 531.4375 727.625 535.4375 717.125 547.5625 717.125 C 553.0625 717.125 556.0625 719.125 559.8125 721.625 L 561.0625 721.25 C 561.5625 714.625 561.6875 712.875 562.6875 706.25 L 562.0625 705.5 C 556.5625 703.75 551.8125 702.25 544.5625 702.25 C 515.1875 702.25 509.4375 724.5 509.4375 737.25 C 509.4375 751.625 516.9375 771.125 545.0625 771.125 C 551.6875 771.125 555.9375 769.875 561.1875 768.375 L 561.9375 767.625 L 562.4375 752.625 Z M 625.6875 681.5 L 609.8125 681.75 L 609.0625 682.5 C 609.5625 698.75 609.9375 709.625 609.9375 724 C 609.9375 739.25 609.5625 754.375 609.1875 769.625 L 609.9375 770.375 C 619.1875 770 621.1875 769.875 631.1875 770 L 631.8125 769.25 C 631.3125 755.625 631.3125 752.5 631.3125 739.75 C 645.3125 739.875 660.3125 739.875 669.3125 728.875 C 672.8125 724.625 675.8125 717.5 675.8125 708.75 C 675.8125 703.375 674.5625 691.5 664.1875 685.625 C 656.6875 681.25 646.0625 681.25 636.6875 681.25 L 625.6875 681.5 M 631.3125 696.625 C 634.0625 696.5 636.6875 696.5 639.4375 696.5 C 650.4375 696.75 653.4375 702.375 653.4375 709.625 C 653.4375 711.375 653.4375 718.625 646.8125 722.25 C 643.4375 724.125 638.8125 724.375 631.3125 724.375 Z M 740.0625 732.75 C 740.1875 721.5 740.1875 716.625 736.9375 711.375 C 734.4375 707.375 729.4375 702.375 713.4375 702.375 C 702.6875 702.375 696.0625 704.375 688.9375 706.5 L 688.1875 707.5 L 687.5625 721.125 L 688.5625 721.625 C 692.9375 719.875 701.0625 716.625 709.4375 716.625 C 714.0625 716.625 715.9375 717.375 717.5625 719 C 718.8125 720.25 719.1875 722.5 719.1875 724.375 C 704.1875 726.375 697.1875 727.75 689.6875 732.375 C 682.6875 736.75 680.3125 743.875 680.3125 749.5 C 680.3125 762.875 689.9375 771.5 702.1875 771.5 C 711.5625 771.5 716.9375 767 719.5625 764.875 L 719.5625 769.5 L 720.3125 770.375 C 729.3125 770 732.0625 769.875 740.1875 770 L 740.8125 769.125 C 739.9375 756.875 739.9375 753.75 739.9375 742 L 740.0625 732.75 M 719.4375 752.625 C 716.8125 754.125 713.4375 755.875 709.3125 755.875 C 704.8125 755.875 701.0625 753.5 701.0625 748.25 C 701.0625 740 710.9375 738.625 719.4375 737.5 Z M 790.8125 723.625 L 794.3125 703.25 L 793.5625 702.375 C 792.6875 702.375 791.8125 702.25 790.9375 702.25 C 785.8125 702.25 780.0625 705.125 776.0625 714.375 L 776.4375 702.875 L 775.4375 701.875 C 766.1875 703.875 763.8125 704.25 754.6875 705.625 L 753.9375 706.375 C 754.6875 715.75 755.0625 721.375 755.0625 738.75 C 755.0625 749 754.9375 759.25 754.6875 769.625 L 755.4375 770.375 C 764.6875 770 766.6875 769.875 776.6875 770 L 777.3125 769.125 C 776.8125 759 776.0625 744.875 776.0625 736.25 C 776.0625 730.625 776.0625 722.375 784.5625 722.375 C 786.6875 722.375 787.9375 723.125 789.6875 724.125 Z M 865.8125 768.375 C 854.0625 748.5 852.8125 746.25 843.3125 729.125 C 851.9375 717.375 852.8125 716.125 861.6875 704.75 L 861.0625 703.5 L 840.6875 703.75 L 839.4375 704.625 C 829.6875 721.5 828.4375 723.5 822.6875 732.125 L 822.6875 718.25 C 822.8125 694.875 822.9375 689.875 823.5625 671 L 822.5625 670.25 L 800.8125 673.5 L 800.0625 674.375 C 800.9375 686.5 801.3125 692.375 801.5625 708.75 C 801.8125 729 801.8125 749.25 801.6875 769.5 L 802.5625 770.375 C 810.9375 770 813.3125 770 822.8125 770 L 823.5625 769.125 L 822.8125 748 L 822.6875 733.625 C 833.5625 753.625 834.9375 756.375 841.3125 769.625 L 842.4375 770.375 L 864.9375 769.5 Z M 864.3125 770 "/>
</svg>
