<?xml version="1.0" encoding="UTF-8"?>
<svg xmlns="http://www.w3.org/2000/svg" xmlns:xlink="http://www.w3.org/1999/xlink" width="975" height="1300" viewBox="0 0 975 1300">
<path fill-rule="nonzero" fill="rgb(34.901961%, 14.901961%, 14.901961%)" fill-opacity="1" d="M 187.9375 531.5 L 172.0625 531.75 L 171.3125 532.5 C 171.8125 548.75 172.1875 559.625 172.1875 574 C 172.1875 589.25 171.8125 604.375 171.4375 619.625 L 172.1875 620.375 C 181.4375 620 183.4375 619.875 193.4375 620 L 194.0625 619.25 C 193.5625 605.625 193.5625 602.5 193.5625 589.75 C 207.5625 589.875 222.5625 589.875 231.5625 578.875 C 235.0625 574.625 238.0625 567.5 238.0625 558.75 C 238.0625 553.375 236.8125 541.5 226.4375 535.625 C 218.9375 531.25 208.3125 531.25 198.9375 531.25 L 187.9375 531.5 M 193.5625 546.625 C 196.3125 546.5 198.9375 546.5 201.6875 546.5 C 212.6875 546.75 215.6875 552.375 215.6875 559.625 C 215.6875 561.375 215.6875 568.625 209.0625 572.25 C 205.6875 574.125 201.0625 574.375 193.5625 574.375 Z M 271.6875 619.125 C 270.4375 596.375 270.3125 590.25 270.4375 568.125 L 280.3125 568.625 L 281.1875 567.75 L 282.3125 554.5 L 281.6875 553.75 L 270.3125 553.75 L 270.4375 550.875 C 270.4375 543.25 270.5625 536.25 278.6875 536.25 C 279.9375 536.25 281.1875 536.5 282.4375 536.625 L 283.3125 536.125 L 284.4375 522 L 283.8125 521.125 C 280.8125 520.875 277.9375 520.75 275.0625 520.75 C 268.6875 520.75 262.1875 521.5 257.1875 525.25 C 249.4375 531 249.5625 540 249.5625 546.25 L 249.6875 553.75 L 241.5625 553.625 L 240.8125 554.25 L 239.5625 567.5 L 240.3125 568.25 L 249.8125 568 C 249.8125 591.625 249.8125 597.25 249.0625 619.5 L 249.8125 620.375 C 258.3125 620 261.5625 619.875 270.9375 619.875 Z M 346.4375 601.5 C 341.6875 604 336.0625 606.875 326.9375 606.875 C 319.4375 606.875 314.3125 604.5 311.3125 600 C 309.4375 597.375 309.0625 594.875 308.5625 592.375 L 348.9375 591.625 L 349.6875 590.75 C 349.5625 584.625 349.4375 578.375 347.6875 572.125 C 343.3125 557.375 333.6875 554.375 329.4375 553.375 C 326.3125 552.5 323.4375 552.25 320.5625 552.25 C 300.9375 552.25 287.9375 565.125 287.9375 586.75 C 287.9375 592.625 288.9375 598.75 290.9375 603.125 C 298.1875 620 315.1875 621.5 324.1875 621.5 C 334.5625 621.5 339.0625 619.625 345.6875 617 L 346.4375 616 L 347.3125 601.875 L 346.4375 601.5 M 308.5625 579.125 C 308.9375 575.25 309.8125 570 314.5625 567 C 316.0625 566 317.8125 565.625 319.5625 565.625 C 323.6875 565.625 326.1875 567.75 327.5625 570 C 329.3125 572.75 329.4375 575.75 329.4375 578.625 Z M 383.8125 619.125 C 383.1875 609.5 382.6875 602.125 382.6875 584.875 C 382.6875 574.25 382.9375 563.5 383.0625 552.875 L 382.1875 551.875 L 360.6875 555.625 L 359.9375 556.375 C 360.9375 565.875 361.3125 570.25 361.3125 588 C 361.3125 601.625 360.9375 609.25 360.5625 619.5 L 361.3125 620.375 C 370.3125 620 372.8125 619.875 382.9375 620 L 383.8125 619.125 M 381.8125 539.875 L 382.1875 522.875 L 381.4375 522.125 L 361.0625 524.625 L 360.3125 525.5 C 360.5625 530 360.6875 532.625 360.6875 535.625 C 360.6875 538 360.6875 540.5 360.5625 542.875 L 361.4375 543.625 C 369.9375 542.125 372.3125 541.875 381.1875 540.75 Z M 422.6875 619.125 C 421.4375 596.375 421.3125 590.25 421.4375 568.125 L 431.3125 568.625 L 432.1875 567.75 L 433.3125 554.5 L 432.6875 553.75 L 421.3125 553.75 L 421.4375 550.875 C 421.4375 543.25 421.5625 536.25 429.6875 536.25 C 430.9375 536.25 432.1875 536.5 433.4375 536.625 L 434.3125 536.125 L 435.4375 522 L 434.8125 521.125 C 431.8125 520.875 428.9375 520.75 426.0625 520.75 C 419.6875 520.75 413.1875 521.5 408.1875 525.25 C 400.4375 531 400.5625 540 400.5625 546.25 L 400.6875 553.75 L 392.5625 553.625 L 391.8125 554.25 L 390.5625 567.5 L 391.3125 568.25 L 400.8125 568 C 400.8125 591.625 400.8125 597.25 400.0625 619.5 L 400.8125 620.375 C 409.3125 620 412.5625 619.875 421.9375 619.875 Z M 466.9375 619.125 C 465.6875 596.375 465.5625 590.25 465.6875 568.125 L 475.5625 568.625 L 476.4375 567.75 L 477.5625 554.5 L 476.9375 553.75 L 465.5625 553.75 L 465.6875 550.875 C 465.6875 543.25 465.8125 536.25 473.9375 536.25 C 475.1875 536.25 476.4375 536.5 477.6875 536.625 L 478.5625 536.125 L 479.6875 522 L 479.0625 521.125 C 476.0625 520.875 473.1875 520.75 470.3125 520.75 C 463.9375 520.75 457.4375 521.5 452.4375 525.25 C 444.6875 531 444.8125 540 444.8125 546.25 L 444.9375 553.75 L 436.8125 553.625 L 436.0625 554.25 L 434.8125 567.5 L 435.5625 568.25 L 445.0625 568 C 445.0625 591.625 445.0625 597.25 444.3125 619.5 L 445.0625 620.375 C 453.5625 620 456.8125 619.875 466.1875 619.875 Z M 541.6875 601.5 C 536.9375 604 531.3125 606.875 522.1875 606.875 C 514.6875 606.875 509.5625 604.5 506.5625 600 C 504.6875 597.375 504.3125 594.875 503.8125 592.375 L 544.1875 591.625 L 544.9375 590.75 C 544.8125 584.625 544.6875 578.375 542.9375 572.125 C 538.5625 557.375 528.9375 554.375 524.6875 553.375 C 521.5625 552.5 518.6875 552.25 515.8125 552.25 C 496.1875 552.25 483.1875 565.125 483.1875 586.75 C 483.1875 592.625 484.1875 598.75 486.1875 603.125 C 493.4375 620 510.4375 621.5 519.4375 621.5 C 529.8125 621.5 534.3125 619.625 540.9375 617 L 541.6875 616 L 542.5625 601.875 L 541.6875 601.5 M 503.8125 579.125 C 504.1875 575.25 505.0625 570 509.8125 567 C 511.3125 566 513.0625 565.625 514.8125 565.625 C 518.9375 565.625 521.4375 567.75 522.8125 570 C 524.5625 572.75 524.6875 575.75 524.6875 578.625 Z M 592.5625 573.625 L 596.0625 553.25 L 595.3125 552.375 C 594.4375 552.375 593.5625 552.25 592.6875 552.25 C 587.5625 552.25 581.8125 555.125 577.8125 564.375 L 578.1875 552.875 L 577.1875 551.875 C 567.9375 553.875 565.5625 554.25 556.4375 555.625 L 555.6875 556.375 C 556.4375 565.75 556.8125 571.375 556.8125 588.75 C 556.8125 599 556.6875 609.25 556.4375 619.625 L 557.1875 620.375 C 566.4375 620 568.4375 619.875 578.4375 620 L 579.0625 619.125 C 578.5625 609 577.8125 594.875 577.8125 586.25 C 577.8125 580.625 577.8125 572.375 586.3125 572.375 C 588.4375 572.375 589.6875 573.125 591.4375 574.125 Z M 663.0625 620 C 674.6875 620.25 689.0625 620.5 698.4375 614 C 706.6875 608.125 708.9375 599.875 708.9375 592.875 C 708.9375 584.875 705.5625 577.5 698.4375 574 C 696.0625 572.75 693.3125 572.25 690.6875 571.75 C 694.9375 570 699.9375 567.75 703.1875 561.125 C 704.5625 558.25 705.1875 555.25 705.1875 552.375 C 705.1875 548.375 704.1875 542.875 700.1875 538.375 C 694.9375 532.75 686.8125 531.25 674.5625 531.25 C 670.3125 531.25 662.6875 531.375 658.4375 531.5 L 640.9375 531.75 L 640.1875 532.5 C 640.6875 544.5 640.8125 549.125 640.8125 566.375 C 640.8125 584.125 640.6875 601.75 640.4375 619.5 L 641.3125 620 L 663.0625 620 M 662.1875 582 C 671.6875 581.75 677.1875 581.75 680.8125 583.875 C 684.4375 586.125 685.8125 590.125 685.8125 594.125 C 685.8125 599.75 682.6875 603.25 678.0625 604.875 C 674.3125 606.125 667.5625 606.125 662.1875 606 L 662.1875 582 M 662.1875 545.25 C 664.8125 545.25 668.3125 545.125 670.4375 545.125 C 677.1875 545.125 683.3125 547.5 683.3125 555.625 C 683.3125 562.25 678.4375 565 676.9375 565.75 C 673.8125 567.125 667.1875 567.125 662.1875 567.125 Z M 743.1875 619.125 C 742.5625 609.5 742.0625 602.125 742.0625 584.875 C 742.0625 574.25 742.3125 563.5 742.4375 552.875 L 741.5625 551.875 L 720.0625 555.625 L 719.3125 556.375 C 720.3125 565.875 720.6875 570.25 720.6875 588 C 720.6875 601.625 720.3125 609.25 719.9375 619.5 L 720.6875 620.375 C 729.6875 620 732.1875 619.875 742.3125 620 L 743.1875 619.125 M 741.1875 539.875 L 741.5625 522.875 L 740.8125 522.125 L 720.4375 524.625 L 719.6875 525.5 C 719.9375 530 720.0625 532.625 720.0625 535.625 C 720.0625 538 720.0625 540.5 719.9375 542.875 L 720.8125 543.625 C 729.3125 542.125 731.6875 541.875 740.5625 540.75 Z M 780.0625 598.875 C 784.0625 599 788.0625 599.25 794.0625 597.25 C 800.5625 595 810.0625 589.625 810.0625 577.5 C 810.0625 571.5 808.3125 569 806.6875 566.625 L 815.3125 567.125 L 816.0625 566.5 L 816.9375 554 L 816.1875 553.375 C 806.5625 553.75 803.9375 553.875 796.0625 553.75 L 790.3125 553.625 C 781.4375 553.375 769.5625 553.125 761.4375 559.875 C 758.6875 562 753.4375 567.375 753.4375 576.75 C 753.4375 581.75 754.8125 585.75 757.0625 588.875 C 759.8125 592.75 762.3125 594.125 765.4375 595.875 C 761.9375 602.625 760.0625 606 757.1875 611.125 L 757.1875 612.25 L 762.4375 616 C 758.6875 618.875 752.8125 623.625 752.8125 631.75 C 752.8125 637.5 755.9375 642.5 760.5625 645.875 C 767.5625 650.875 777.0625 651.125 781.9375 651.125 C 804.8125 651.125 815.3125 639.625 815.3125 627.5 C 815.3125 611.75 801.5625 608.75 793.4375 606.875 L 790.4375 606.375 C 784.3125 605.375 782.9375 605 778.0625 603.25 L 780.0625 598.875 M 790.3125 576.375 C 790.1875 586.5 784.0625 587.375 782.3125 587.375 C 781.3125 587.375 776.9375 587.125 774.8125 582.125 C 773.6875 579.5 773.6875 576.5 773.6875 575.625 C 773.6875 569.375 777.4375 565.375 782.0625 565.375 C 787.8125 565.375 790.4375 570.875 790.3125 576.375 M 779.6875 623 C 790.8125 625.875 790.9375 625.875 792.4375 627.125 C 793.6875 628 794.9375 629.375 794.9375 632 C 794.9375 635.75 791.8125 639.625 783.5625 639.625 C 774.3125 639.625 771.1875 634.375 771.1875 630 C 771.1875 625.875 773.3125 623.5 774.8125 621.75 Z M 817.3125 620 "/>
<path fill-rule="nonzero" fill="rgb(34.901961%, 14.901961%, 14.901961%)" fill-opacity="1" d="M 118.3125 716.25 C 107.8125 711.875 102.3125 709.625 102.3125 704 C 102.3125 700.125 105.9375 695.25 114.1875 695.25 C 123.6875 695.25 129.3125 699.125 133.9375 702.25 L 135.0625 701.75 L 136.0625 685.375 L 135.4375 684.5 C 130.0625 682.25 124.4375 679.875 112.3125 679.875 C 88.8125 679.875 80.6875 693.125 80.6875 706.5 C 80.6875 721.625 92.4375 727.125 99.4375 730.5 L 103.5625 732.375 C 112.1875 736 118.8125 739.125 118.8125 745.75 C 118.8125 750.5 114.6875 756.125 103.8125 756.125 C 92.4375 756.125 86.0625 751.125 82.4375 748.25 L 81.1875 748.625 L 80.3125 766.25 L 81.0625 767.25 C 82.4375 767.75 83.8125 768.375 85.1875 768.75 C 88.0625 769.75 95.4375 771.875 104.8125 771.875 C 108.5625 771.875 118.0625 771.5 125.5625 768 C 136.0625 762.875 140.5625 753.375 140.5625 742.75 C 140.5625 735.625 137.8125 728 131.1875 722.875 C 127.8125 720.375 124.5625 718.875 121.5625 717.5 Z M 212.4375 703.125 L 192.0625 704.125 L 191.1875 704.875 C 192.0625 719 192.0625 739 192.0625 741 C 192.0625 744.625 192.0625 746.625 191.9375 751.625 C 188.5625 753.875 185.9375 755.75 182.5625 755.75 C 173.5625 755.75 173.5625 746.25 173.5625 738.875 C 173.5625 735.75 173.5625 732.5 173.6875 729.375 L 173.9375 704.125 L 173.0625 703.125 L 152.4375 704.125 L 151.5625 704.875 C 152.3125 715.375 152.4375 718.875 152.4375 731.5 L 152.4375 740.25 C 152.3125 753.875 152.9375 759.625 157.4375 764.875 C 161.5625 769.5 167.5625 771.5 173.8125 771.5 C 182.6875 771.5 187.8125 767.5 192.3125 764 L 192.1875 769.625 L 193.0625 770.375 C 202.1875 770 204.9375 770 213.0625 770 L 213.8125 769.25 C 213.1875 760.375 212.9375 755.625 212.9375 739.375 C 212.9375 727.625 213.0625 715.875 213.3125 704.125 Z M 264.0625 723.625 L 267.5625 703.25 L 266.8125 702.375 C 265.9375 702.375 265.0625 702.25 264.1875 702.25 C 259.0625 702.25 253.3125 705.125 249.3125 714.375 L 249.6875 702.875 L 248.6875 701.875 C 239.4375 703.875 237.0625 704.25 227.9375 705.625 L 227.1875 706.375 C 227.9375 715.75 228.3125 721.375 228.3125 738.75 C 228.3125 749 228.1875 759.25 227.9375 769.625 L 228.6875 770.375 C 237.9375 770 239.9375 769.875 249.9375 770 L 250.5625 769.125 C 250.0625 759 249.3125 744.875 249.3125 736.25 C 249.3125 730.625 249.3125 722.375 257.8125 722.375 C 259.9375 722.375 261.1875 723.125 262.9375 724.125 Z M 347.4375 716.25 C 336.9375 711.875 331.4375 709.625 331.4375 704 C 331.4375 700.125 335.0625 695.25 343.3125 695.25 C 352.8125 695.25 358.4375 699.125 363.0625 702.25 L 364.1875 701.75 L 365.1875 685.375 L 364.5625 684.5 C 359.1875 682.25 353.5625 679.875 341.4375 679.875 C 317.9375 679.875 309.8125 693.125 309.8125 706.5 C 309.8125 721.625 321.5625 727.125 328.5625 730.5 L 332.6875 732.375 C 341.3125 736 347.9375 739.125 347.9375 745.75 C 347.9375 750.5 343.8125 756.125 332.9375 756.125 C 321.5625 756.125 315.1875 751.125 311.5625 748.25 L 310.3125 748.625 L 309.4375 766.25 L 310.1875 767.25 C 311.5625 767.75 312.9375 768.375 314.3125 768.75 C 317.1875 769.75 324.5625 771.875 333.9375 771.875 C 337.6875 771.875 347.1875 771.5 354.6875 768 C 365.1875 762.875 369.6875 753.375 369.6875 742.75 C 369.6875 735.625 366.9375 728 360.3125 722.875 C 356.9375 720.375 353.6875 718.875 350.6875 717.5 Z M 416.5625 755.625 C 414.4375 756.25 412.9375 756.75 410.8125 756.75 C 404.4375 756.75 403.9375 752.75 403.6875 750.875 C 403.3125 747.625 403.3125 740.75 403.4375 735.75 L 403.6875 718.125 L 414.9375 718.625 L 415.6875 717.875 L 416.9375 704.5 L 416.1875 703.75 L 403.6875 703.75 L 404.0625 682.75 L 403.1875 682 C 394.6875 684.5 392.4375 685.125 383.5625 687.375 L 383.0625 688.25 L 383.1875 703.875 L 376.4375 703.625 L 375.6875 704.25 L 374.5625 717.625 L 375.3125 718.375 L 383.1875 718.125 L 382.8125 738 C 382.6875 741.125 382.5625 744.25 382.5625 747.5 C 382.5625 759 382.8125 771.375 402.3125 771.375 C 407.1875 771.375 411.0625 770.625 415.4375 769.875 L 416.3125 769 L 417.5625 756.125 Z M 481.4375 732.75 C 481.5625 721.5 481.5625 716.625 478.3125 711.375 C 475.8125 707.375 470.8125 702.375 454.8125 702.375 C 444.0625 702.375 437.4375 704.375 430.3125 706.5 L 429.5625 707.5 L 428.9375 721.125 L 429.9375 721.625 C 434.3125 719.875 442.4375 716.625 450.8125 716.625 C 455.4375 716.625 457.3125 717.375 458.9375 719 C 460.1875 720.25 460.5625 722.5 460.5625 724.375 C 445.5625 726.375 438.5625 727.75 431.0625 732.375 C 424.0625 736.75 421.6875 743.875 421.6875 749.5 C 421.6875 762.875 431.3125 771.5 443.5625 771.5 C 452.9375 771.5 458.3125 767 460.9375 764.875 L 460.9375 769.5 L 461.6875 770.375 C 470.6875 770 473.4375 769.875 481.5625 770 L 482.1875 769.125 C 481.3125 756.875 481.3125 753.75 481.3125 742 L 481.4375 732.75 M 460.8125 752.625 C 458.1875 754.125 454.8125 755.875 450.6875 755.875 C 446.1875 755.875 442.4375 753.5 442.4375 748.25 C 442.4375 740 452.3125 738.625 460.8125 737.5 Z M 531.0625 755.625 C 528.9375 756.25 527.4375 756.75 525.3125 756.75 C 518.9375 756.75 518.4375 752.75 518.1875 750.875 C 517.8125 747.625 517.8125 740.75 517.9375 735.75 L 518.1875 718.125 L 529.4375 718.625 L 530.1875 717.875 L 531.4375 704.5 L 530.6875 703.75 L 518.1875 703.75 L 518.5625 682.75 L 517.6875 682 C 509.1875 684.5 506.9375 685.125 498.0625 687.375 L 497.5625 688.25 L 497.6875 703.875 L 490.9375 703.625 L 490.1875 704.25 L 489.0625 717.625 L 489.8125 718.375 L 497.6875 718.125 L 497.3125 738 C 497.1875 741.125 497.0625 744.25 497.0625 747.5 C 497.0625 759 497.3125 771.375 516.8125 771.375 C 521.6875 771.375 525.5625 770.625 529.9375 769.875 L 530.8125 769 L 532.0625 756.125 Z M 595.8125 751.5 C 591.0625 754 585.4375 756.875 576.3125 756.875 C 568.8125 756.875 563.6875 754.5 560.6875 750 C 558.8125 747.375 558.4375 744.875 557.9375 742.375 L 598.3125 741.625 L 599.0625 740.75 C 598.9375 734.625 598.8125 728.375 597.0625 722.125 C 592.6875 707.375 583.0625 704.375 578.8125 703.375 C 575.6875 702.5 572.8125 702.25 569.9375 702.25 C 550.3125 702.25 537.3125 715.125 537.3125 736.75 C 537.3125 742.625 538.3125 748.75 540.3125 753.125 C 547.5625 770 564.5625 771.5 573.5625 771.5 C 583.9375 771.5 588.4375 769.625 595.0625 767 L 595.8125 766 L 596.6875 751.875 L 595.8125 751.5 M 557.9375 729.125 C 558.3125 725.25 559.1875 720 563.9375 717 C 565.4375 716 567.1875 715.625 568.9375 715.625 C 573.0625 715.625 575.5625 717.75 576.9375 720 C 578.6875 722.75 578.8125 725.75 578.8125 728.625 Z M 663.8125 681.5 L 647.9375 681.75 L 647.1875 682.5 C 647.6875 698.75 648.0625 709.625 648.0625 724 C 648.0625 739.25 647.6875 754.375 647.3125 769.625 L 648.0625 770.375 C 657.3125 770 659.3125 769.875 669.3125 770 L 669.9375 769.25 C 669.4375 755.625 669.4375 752.5 669.4375 739.75 C 683.4375 739.875 698.4375 739.875 707.4375 728.875 C 710.9375 724.625 713.9375 717.5 713.9375 708.75 C 713.9375 703.375 712.6875 691.5 702.3125 685.625 C 694.8125 681.25 684.1875 681.25 674.8125 681.25 L 663.8125 681.5 M 669.4375 696.625 C 672.1875 696.5 674.8125 696.5 677.5625 696.5 C 688.5625 696.75 691.5625 702.375 691.5625 709.625 C 691.5625 711.375 691.5625 718.625 684.9375 722.25 C 681.5625 724.125 676.9375 724.375 669.4375 724.375 Z M 778.1875 732.75 C 778.3125 721.5 778.3125 716.625 775.0625 711.375 C 772.5625 707.375 767.5625 702.375 751.5625 702.375 C 740.8125 702.375 734.1875 704.375 727.0625 706.5 L 726.3125 707.5 L 725.6875 721.125 L 726.6875 721.625 C 731.0625 719.875 739.1875 716.625 747.5625 716.625 C 752.1875 716.625 754.0625 717.375 755.6875 719 C 756.9375 720.25 757.3125 722.5 757.3125 724.375 C 742.3125 726.375 735.3125 727.75 727.8125 732.375 C 720.8125 736.75 718.4375 743.875 718.4375 749.5 C 718.4375 762.875 728.0625 771.5 740.3125 771.5 C 749.6875 771.5 755.0625 767 757.6875 764.875 L 757.6875 769.5 L 758.4375 770.375 C 767.4375 770 770.1875 769.875 778.3125 770 L 778.9375 769.125 C 778.0625 756.875 778.0625 753.75 778.0625 742 L 778.1875 732.75 M 757.5625 752.625 C 754.9375 754.125 751.5625 755.875 747.4375 755.875 C 742.9375 755.875 739.1875 753.5 739.1875 748.25 C 739.1875 740 749.0625 738.625 757.5625 737.5 Z M 828.9375 723.625 L 832.4375 703.25 L 831.6875 702.375 C 830.8125 702.375 829.9375 702.25 829.0625 702.25 C 823.9375 702.25 818.1875 705.125 814.1875 714.375 L 814.5625 702.875 L 813.5625 701.875 C 804.3125 703.875 801.9375 704.25 792.8125 705.625 L 792.0625 706.375 C 792.8125 715.75 793.1875 721.375 793.1875 738.75 C 793.1875 749 793.0625 759.25 792.8125 769.625 L 793.5625 770.375 C 802.8125 770 804.8125 769.875 814.8125 770 L 815.4375 769.125 C 814.9375 759 814.1875 744.875 814.1875 736.25 C 814.1875 730.625 814.1875 722.375 822.6875 722.375 C 824.8125 722.375 826.0625 723.125 827.8125 724.125 Z M 903.9375 768.375 C 892.1875 748.5 890.9375 746.25 881.4375 729.125 C 890.0625 717.375 890.9375 716.125 899.8125 704.75 L 899.1875 703.5 L 878.8125 703.75 L 877.5625 704.625 C 867.8125 721.5 866.5625 723.5 860.8125 732.125 L 860.8125 718.25 C 860.9375 694.875 861.0625 689.875 861.6875 671 L 860.6875 670.25 L 838.9375 673.5 L 838.1875 674.375 C 839.0625 686.5 839.4375 692.375 839.6875 708.75 C 839.9375 729 839.9375 749.25 839.8125 769.5 L 840.6875 770.375 C 849.0625 770 851.4375 770 860.9375 770 L 861.6875 769.125 L 860.9375 748 L 860.8125 733.625 C 871.6875 753.625 873.0625 756.375 879.4375 769.625 L 880.5625 770.375 L 903.0625 769.5 Z M 902.4375 770 "/>
</svg>
