<svg xmlns="http://www.w3.org/2000/svg" width="612" height="817" viewBox="0 0 612 817">
  <defs>
    <style>
      .cls-1 {
        fill: #592626;
        fill-rule: evenodd;
      }
    </style>
  </defs>
  <path id="Monterey_State_Beach" data-name="Monterey State Beach" class="cls-1" d="M93.775,336.924c-8.088.233-9.411,0.233-18.044,0.233l-0.467.467-3.578,12.6L68.576,361.5l-3.655,13.532L61.5,361.112l-2.178-8.789-3.889-14.932-0.389-.467c-8.322.233-9.722,0.233-18.432,0.233l-0.467.467c-0.778,23.254-1.089,29.243-2.8,54.208l0.389,0.467c4.978-.233,6.455-0.311,10.966-0.233l0.467-.467L45.4,376.744l0.467-15.088,0.311-14.7L49.6,360.723l2.956,11.044,5.211,20.065,0.467,0.467c4.822-.233,6.144-0.311,11.588-0.233l0.467-.467L74.8,375.033l3.111-11.355,4.355-16.332v13.921l0.156,11.9v18.665l0.389,0.467c5.366-.233,7.466-0.311,13.455-0.233l0.389-.467c-0.467-8.866-1.011-17.81-1.322-26.754-0.233-4.9-.389-9.8-0.622-14.7-0.389-7.233-.467-8.167-0.467-12.755Zm51.256,34.454c0-3.033,0-15.633-10.888-19.91a27.958,27.958,0,0,0-9.489-1.478c-13.532,0-21.154,7.233-21.154,21.543,0,4.978.778,10.033,3.655,14.233C109.177,388.8,112.988,393,124.11,393,140.6,393,145.031,383.044,145.031,371.378Zm-13.455-.078c0,6.378-.855,13.455-7.31,13.455a6.288,6.288,0,0,1-4.356-1.789c-1.322-1.322-2.8-3.966-2.8-11.51,0-2.256,0-7.233,1.556-9.955a6.44,6.44,0,0,1,5.677-3.5,6.538,6.538,0,0,1,4.978,2.411C131.187,362.667,131.576,367.1,131.576,371.3Zm58.955,20.221c-0.389-6.844-.389-9.021-0.544-16.643v-6.067c-0.078-7.466-.156-11.044-2.1-14.232-2.411-4.045-6.844-4.667-9.644-4.667-4.744,0-8.866,2.489-12.444,4.589l0.156-4.278-0.778-.544c-5.989,1.244-7.311,1.478-13.144,2.255l-0.467.545a216.123,216.123,0,0,1,1.089,24.343c0,4.978-.077,9.955-0.155,14.933l0.466,0.466c5.6-.233,6.767-0.233,12.989-0.233l0.466-.467c-0.466-11.977-.544-15.01-0.622-28.932,1.633-1.088,3.5-2.411,5.989-2.411,4.277,0,4.666,4.589,4.9,7.389,0.155,2.567.233,13.222,0.233,16.177,0,2.644-.078,5.366-0.078,8.011l0.467,0.466c5.133-.155,6.455-0.233,12.677-0.233Zm30.646-8.4a11.68,11.68,0,0,1-3.578.7c-3.967,0-4.278-2.489-4.433-3.656a88.86,88.86,0,0,1-.156-9.41l0.156-10.966,7,0.311,0.467-.467,0.778-8.322-0.467-.466h-7.777L213.4,337.78l-0.544-.467c-5.289,1.555-6.689,1.944-12.211,3.344l-0.311.545,0.078,9.721-4.2-.155-0.467.389-0.7,8.321,0.467,0.467,4.9-.155-0.233,12.366c-0.078,1.944-.156,3.888-0.156,5.91,0,7.156.156,14.855,12.288,14.855a45.191,45.191,0,0,0,8.167-.933l0.544-.544,0.778-8.011Zm38.732-2.567a23.763,23.763,0,0,1-12.133,3.345c-4.666,0-7.855-1.478-9.721-4.278a11,11,0,0,1-1.711-4.744l25.121-.467,0.466-.544a45.56,45.56,0,0,0-1.244-11.589c-2.722-9.177-8.711-11.044-11.355-11.666a19.933,19.933,0,0,0-5.522-.7c-12.211,0-20.3,8.011-20.3,21.466a25.873,25.873,0,0,0,1.867,10.188c4.51,10.5,15.088,11.433,20.687,11.433,6.456,0,9.256-1.167,13.378-2.8l0.466-.622,0.545-8.788Zm-23.565-13.921c0.233-2.411.777-5.678,3.733-7.544a5.968,5.968,0,0,1,8.088,1.866,9.5,9.5,0,0,1,1.167,5.367Zm55.221-3.422,2.178-12.678-0.467-.544c-0.544,0-1.088-.078-1.633-0.078-3.189,0-6.766,1.789-9.255,7.544l0.233-7.155L282,349.679c-5.755,1.244-7.233,1.478-12.91,2.333l-0.467.467c0.467,5.833.7,9.333,0.7,20.143,0,6.378-.078,12.755-0.233,19.21l0.466,0.467c5.756-.233,7-0.311,13.222-0.233l0.389-.545c-0.311-6.3-.778-15.088-0.778-20.454,0-3.5,0-8.633,5.289-8.633a5.82,5.82,0,0,1,3.188,1.089Zm41.222,17.343a23.763,23.763,0,0,1-12.133,3.345c-4.666,0-7.855-1.478-9.722-4.278a11.027,11.027,0,0,1-1.711-4.744l25.121-.467,0.467-.544a45.605,45.605,0,0,0-1.244-11.589c-2.722-9.177-8.711-11.044-11.355-11.666a19.938,19.938,0,0,0-5.522-.7c-12.211,0-20.3,8.011-20.3,21.466a25.891,25.891,0,0,0,1.866,10.188c4.511,10.5,15.089,11.433,20.688,11.433,6.455,0,9.255-1.167,13.377-2.8l0.467-.622,0.544-8.788Zm-23.566-13.921c0.234-2.411.778-5.678,3.734-7.544a5.968,5.968,0,0,1,8.088,1.866,9.5,9.5,0,0,1,1.167,5.367Zm67.51-16.022-10.81.234-0.622.544c-1.322,5.366-1.634,6.533-3.5,12.6l-2.022,6.689-1.711,5.833-1.478-5.522-2.255-8.244-3.111-11.822-0.623-.466c-6.066.466-7.388,0.544-13.766,0.7l-0.389.544c2.8,7.389,10.033,26.91,14.855,41.843-3.188,8.088-3.811,9.488-7.31,17.188l0.388,0.622c1.945-.078,4.122-0.156,6.145-0.156,1.944,0,3.966.078,5.91,0.078l0.545-.467c4.277-16.8,6.377-23.332,16.643-50.4,1.167-3.111,2.334-6.144,3.423-9.178Zm49.312,8.011c-6.533-2.722-9.955-4.122-9.955-7.622,0-2.411,2.256-5.444,7.389-5.444,5.91,0,9.41,2.411,12.288,4.355l0.7-.311,0.622-10.188-0.389-.545a31.857,31.857,0,0,0-14.388-2.877c-14.622,0-19.677,8.244-19.677,16.566,0,9.41,7.311,12.832,11.666,14.932l2.567,1.167c5.366,2.255,9.488,4.2,9.488,8.322,0,2.955-2.566,6.455-9.333,6.455a19.839,19.839,0,0,1-13.3-4.9l-0.778.233L402.4,389.733l0.466,0.622c0.856,0.311,1.712.7,2.567,0.933a38.747,38.747,0,0,0,12.211,1.944c2.333,0,8.244-.233,12.91-2.411,6.533-3.188,9.333-9.1,9.333-15.71a15.415,15.415,0,0,0-5.833-12.366,31.446,31.446,0,0,0-5.989-3.344Zm43.011,24.5a11.669,11.669,0,0,1-3.577.7c-3.967,0-4.278-2.489-4.433-3.656a88.86,88.86,0,0,1-.156-9.41l0.156-10.966,7,0.311,0.467-.467,0.778-8.322-0.467-.466h-7.777l0.233-13.066-0.545-.467c-5.288,1.555-6.688,1.944-12.21,3.344l-0.311.545,0.078,9.721-4.2-.155-0.467.389-0.7,8.321,0.467,0.467,4.9-.155-0.234,12.366c-0.078,1.944-.155,3.888-0.155,5.91,0,7.156.155,14.855,12.288,14.855a45.17,45.17,0,0,0,8.166-.933l0.545-.544,0.777-8.011Zm40.366-14.233c0.078-7,.078-10.033-1.944-13.3-1.555-2.489-4.666-5.6-14.622-5.6a47.306,47.306,0,0,0-15.243,2.567l-0.467.622-0.389,8.477,0.622,0.311c2.723-1.089,7.778-3.111,12.989-3.111,2.877,0,4.044.467,5.055,1.478a4.9,4.9,0,0,1,1.011,3.344c-9.333,1.245-13.688,2.1-18.355,4.978a12.437,12.437,0,0,0-5.833,10.655c0,8.322,5.989,13.688,13.611,13.688a16.079,16.079,0,0,0,10.81-4.122v2.878l0.467,0.544c5.6-.233,7.311-0.311,12.366-0.233l0.389-.545c-0.544-7.621-.544-9.566-0.544-16.877Zm-12.832,12.366a12.6,12.6,0,0,1-6.3,2.022c-2.8,0-5.133-1.477-5.133-4.744,0-5.133,6.144-5.988,11.433-6.688v9.41Zm43.711,1.867a11.675,11.675,0,0,1-3.578.7c-3.966,0-4.277-2.489-4.433-3.656a89.4,89.4,0,0,1-.156-9.41l0.156-10.966,7,0.311,0.466-.467,0.778-8.322-0.467-.466h-7.777l0.233-13.066-0.544-.467c-5.289,1.555-6.689,1.944-12.211,3.344l-0.311.545,0.078,9.721-4.2-.155-0.466.389-0.7,8.321,0.466,0.467,4.9-.155L519.3,372.156c-0.078,1.944-.156,3.888-0.156,5.91,0,7.156.156,14.855,12.288,14.855a45.17,45.17,0,0,0,8.167-.933l0.544-.544,0.778-8.011Zm38.732-2.567A23.761,23.761,0,0,1,566.9,383.9c-4.667,0-7.855-1.478-9.722-4.278a11,11,0,0,1-1.711-4.744l25.121-.467,0.467-.544a45.607,45.607,0,0,0-1.245-11.589c-2.722-9.177-8.71-11.044-11.355-11.666a19.933,19.933,0,0,0-5.522-.7c-12.21,0-20.3,8.011-20.3,21.466a25.873,25.873,0,0,0,1.867,10.188c4.511,10.5,15.088,11.433,20.688,11.433,6.455,0,9.255-1.167,13.377-2.8l0.466-.622,0.545-8.788Zm-23.565-13.921c0.233-2.411.778-5.678,3.733-7.544a5.969,5.969,0,0,1,8.089,1.866,9.511,9.511,0,0,1,1.166,5.367ZM214.682,485.4c7.233,0.156,16.177.311,22.01-3.733a15.456,15.456,0,0,0,6.533-13.144c0-4.977-2.1-9.566-6.533-11.744a17.2,17.2,0,0,0-4.822-1.4c2.645-1.088,5.756-2.488,7.778-6.61a12.624,12.624,0,0,0,1.244-5.445,13.055,13.055,0,0,0-3.111-8.71c-3.266-3.5-8.322-4.433-15.943-4.433-2.645,0-7.389.077-10.033,0.155l-10.889.156-0.466.466c0.311,7.467.389,10.344,0.389,21.077,0,11.044-.078,22.01-0.234,33.054l0.545,0.311h13.532Zm-0.544-23.643c5.911-.156,9.333-0.156,11.588,1.166a7.17,7.17,0,0,1,3.111,6.378,6.685,6.685,0,0,1-4.822,6.688c-2.333.778-6.533,0.778-9.877,0.7V461.756Zm0-22.866c1.633,0,3.811-.078,5.133-0.078,4.2,0,8.011,1.478,8.011,6.533a6.867,6.867,0,0,1-3.967,6.3c-1.944.856-6.066,0.856-9.177,0.856V438.89Zm70.855,35a23.779,23.779,0,0,1-12.133,3.344c-4.667,0-7.855-1.478-9.722-4.278a11,11,0,0,1-1.711-4.744l25.121-.467,0.467-.544a45.6,45.6,0,0,0-1.245-11.588c-2.722-9.178-8.71-11.044-11.355-11.666a19.9,19.9,0,0,0-5.522-.7c-12.21,0-20.3,8.01-20.3,21.465a25.893,25.893,0,0,0,1.867,10.189c4.511,10.5,15.088,11.432,20.688,11.432,6.455,0,9.255-1.166,13.377-2.8l0.467-.623,0.544-8.788Zm-23.566-13.922c0.233-2.411.778-5.677,3.733-7.544a5.969,5.969,0,0,1,8.089,1.867,9.5,9.5,0,0,1,1.166,5.366Zm67.354,2.255c0.078-7,.078-10.032-1.944-13.3-1.555-2.489-4.666-5.6-14.621-5.6a47.335,47.335,0,0,0-15.244,2.567l-0.467.622-0.389,8.477,0.623,0.312c2.722-1.089,7.777-3.111,12.988-3.111,2.877,0,4.044.466,5.055,1.477a4.9,4.9,0,0,1,1.011,3.345c-9.333,1.244-13.688,2.1-18.354,4.977a12.436,12.436,0,0,0-5.834,10.655c0,8.322,5.989,13.688,13.611,13.688a16.074,16.074,0,0,0,10.81-4.122v2.878l0.467,0.544c5.6-.233,7.311-0.311,12.366-0.233l0.389-.544c-0.544-7.622-.544-9.567-0.544-16.877Zm-12.832,12.367a12.6,12.6,0,0,1-6.3,2.022c-2.8,0-5.133-1.478-5.133-4.745,0-5.133,6.144-5.988,11.433-6.688v9.411Zm52.344-.389a13.856,13.856,0,0,1-8.089,2.488c-8.788,0-10.577-7.31-10.577-11.977,0-5.677,2.489-12.21,10.033-12.21,3.422,0,5.288,1.244,7.622,2.8l0.777-.234c0.312-4.122.389-5.211,1.011-9.333l-0.388-.466a32.334,32.334,0,0,0-10.889-2.022c-18.277,0-21.854,13.843-21.854,21.776,0,8.944,4.666,21.077,22.165,21.077a32.581,32.581,0,0,0,10.033-1.711l0.467-.467,0.311-9.332Zm44.955,10.655c-0.311-6.378-.389-8.555-0.544-16.644v-5.833c-0.078-7.389-.156-11.666-2.411-14.933-2.256-3.188-5.522-4.2-8.944-4.2-5.678,0-10.111,2.722-13.222,4.588l0.233-23.954-0.466-.545-13.3,2.1-0.389.467c0.7,7.544.856,10.344,1.011,20.377q0.234,9.448.234,18.9c0,7.7-.156,12.288-0.311,19.91l0.389,0.544c5.755-.311,6.921-0.311,13.221-0.311l0.467-.466c-0.545-11.666-.622-15.166-0.7-28.932a10.271,10.271,0,0,1,5.988-2.333c4.278,0,4.589,4.433,4.9,7.544,0.156,2.411.234,13.455,0.234,16.332,0,2.567-.078,5.055-0.078,7.622l0.389,0.544c5.6-.311,6.844-0.311,12.832-0.311Z"/>
</svg>
