<?xml version="1.0" encoding="UTF-8"?>
<svg xmlns="http://www.w3.org/2000/svg" xmlns:xlink="http://www.w3.org/1999/xlink" width="975" height="1300" viewBox="0 0 975 1300">
<path fill-rule="nonzero" fill="rgb(34.901961%, 14.901961%, 14.901961%)" fill-opacity="1" d="M 282.6875 595.25 C 282.6875 589 282.8125 582.75 282.9375 576.375 L 282.3125 575.625 L 261.0625 576 L 260.4375 576.75 C 261.5625 589 261.6875 592 261.4375 603.375 C 258.0625 604.125 255.5625 604.75 252.0625 604.75 C 232.6875 604.75 229.1875 586.25 229.1875 576.875 C 229.1875 557.125 239.8125 546.375 255.5625 546.375 C 265.0625 546.375 270.6875 550.125 276.5625 554 L 277.5625 553.625 C 278.1875 545.875 278.4375 543.875 279.4375 536.375 L 278.8125 535.625 C 273.5625 533.375 265.1875 529.875 252.1875 529.875 C 237.9375 529.875 222.3125 533.875 212.4375 550.625 C 207.9375 558.5 206.0625 568.625 206.0625 577 C 206.0625 588.75 209.1875 598.625 214.8125 605.875 C 222.1875 615.375 231.3125 618.375 236.1875 619.75 C 239.8125 620.75 245.1875 621.875 252.9375 621.875 C 265.8125 621.875 273.6875 619.25 282.4375 616.375 L 283.0625 615.375 C 282.9375 609.625 282.6875 603.875 282.6875 598.125 Z M 352.4375 582.75 C 352.5625 571.5 352.5625 566.625 349.3125 561.375 C 346.8125 557.375 341.8125 552.375 325.8125 552.375 C 315.0625 552.375 308.4375 554.375 301.3125 556.5 L 300.5625 557.5 L 299.9375 571.125 L 300.9375 571.625 C 305.3125 569.875 313.4375 566.625 321.8125 566.625 C 326.4375 566.625 328.3125 567.375 329.9375 569 C 331.1875 570.25 331.5625 572.5 331.5625 574.375 C 316.5625 576.375 309.5625 577.75 302.0625 582.375 C 295.0625 586.75 292.6875 593.875 292.6875 599.5 C 292.6875 612.875 302.3125 621.5 314.5625 621.5 C 323.9375 621.5 329.3125 617 331.9375 614.875 L 331.9375 619.5 L 332.6875 620.375 C 341.6875 620 344.4375 619.875 352.5625 620 L 353.1875 619.125 C 352.3125 606.875 352.3125 603.75 352.3125 592 L 352.4375 582.75 M 331.8125 602.625 C 329.1875 604.125 325.8125 605.875 321.6875 605.875 C 317.1875 605.875 313.4375 603.5 313.4375 598.25 C 313.4375 590 323.3125 588.625 331.8125 587.5 Z M 403.1875 573.625 L 406.6875 553.25 L 405.9375 552.375 C 405.0625 552.375 404.1875 552.25 403.3125 552.25 C 398.1875 552.25 392.4375 555.125 388.4375 564.375 L 388.8125 552.875 L 387.8125 551.875 C 378.5625 553.875 376.1875 554.25 367.0625 555.625 L 366.3125 556.375 C 367.0625 565.75 367.4375 571.375 367.4375 588.75 C 367.4375 599 367.3125 609.25 367.0625 619.625 L 367.8125 620.375 C 377.0625 620 379.0625 619.875 389.0625 620 L 389.6875 619.125 C 389.1875 609 388.4375 594.875 388.4375 586.25 C 388.4375 580.625 388.4375 572.375 396.9375 572.375 C 399.0625 572.375 400.3125 573.125 402.0625 574.125 Z M 450.0625 573.625 L 453.5625 553.25 L 452.8125 552.375 C 451.9375 552.375 451.0625 552.25 450.1875 552.25 C 445.0625 552.25 439.3125 555.125 435.3125 564.375 L 435.6875 552.875 L 434.6875 551.875 C 425.4375 553.875 423.0625 554.25 413.9375 555.625 L 413.1875 556.375 C 413.9375 565.75 414.3125 571.375 414.3125 588.75 C 414.3125 599 414.1875 609.25 413.9375 619.625 L 414.6875 620.375 C 423.9375 620 425.9375 619.875 435.9375 620 L 436.5625 619.125 C 436.0625 609 435.3125 594.875 435.3125 586.25 C 435.3125 580.625 435.3125 572.375 443.8125 572.375 C 445.9375 572.375 447.1875 573.125 448.9375 574.125 Z M 516.4375 582.75 C 516.5625 571.5 516.5625 566.625 513.3125 561.375 C 510.8125 557.375 505.8125 552.375 489.8125 552.375 C 479.0625 552.375 472.4375 554.375 465.3125 556.5 L 464.5625 557.5 L 463.9375 571.125 L 464.9375 571.625 C 469.3125 569.875 477.4375 566.625 485.8125 566.625 C 490.4375 566.625 492.3125 567.375 493.9375 569 C 495.1875 570.25 495.5625 572.5 495.5625 574.375 C 480.5625 576.375 473.5625 577.75 466.0625 582.375 C 459.0625 586.75 456.6875 593.875 456.6875 599.5 C 456.6875 612.875 466.3125 621.5 478.5625 621.5 C 487.9375 621.5 493.3125 617 495.9375 614.875 L 495.9375 619.5 L 496.6875 620.375 C 505.6875 620 508.4375 619.875 516.5625 620 L 517.1875 619.125 C 516.3125 606.875 516.3125 603.75 516.3125 592 L 516.4375 582.75 M 495.8125 602.625 C 493.1875 604.125 489.8125 605.875 485.6875 605.875 C 481.1875 605.875 477.4375 603.5 477.4375 598.25 C 477.4375 590 487.3125 588.625 495.8125 587.5 Z M 551.8125 553.125 L 550.8125 552 C 541.6875 554 539.0625 554.5 530.0625 555.625 L 529.3125 556.5 C 530.6875 571.375 531.1875 577.125 531.1875 613.125 C 531.1875 628 530.9375 636.5 530.5625 650.625 L 531.3125 651.25 C 540.1875 650.875 542.8125 650.75 552.3125 650.875 L 553.0625 650.25 L 552.1875 620.5 C 561.3125 620.375 573.9375 620.25 584.0625 610.75 C 592.0625 603.25 594.6875 592.625 594.6875 584.125 C 594.6875 564.25 582.5625 552.25 568.5625 552.25 C 559.9375 552.25 555.0625 555.75 551.5625 558.125 L 551.8125 553.125 M 552.0625 570.125 C 554.8125 568.5 556.4375 567.625 559.5625 567.625 C 561.4375 567.625 565.1875 567.875 568.3125 571.375 C 572.1875 575.625 572.8125 582 572.8125 586.25 C 572.8125 593.5 570.4375 600 565.4375 603.5 C 561.4375 606.25 556.4375 606.5 552.0625 606.625 Z M 662.1875 582.75 C 662.3125 571.5 662.3125 566.625 659.0625 561.375 C 656.5625 557.375 651.5625 552.375 635.5625 552.375 C 624.8125 552.375 618.1875 554.375 611.0625 556.5 L 610.3125 557.5 L 609.6875 571.125 L 610.6875 571.625 C 615.0625 569.875 623.1875 566.625 631.5625 566.625 C 636.1875 566.625 638.0625 567.375 639.6875 569 C 640.9375 570.25 641.3125 572.5 641.3125 574.375 C 626.3125 576.375 619.3125 577.75 611.8125 582.375 C 604.8125 586.75 602.4375 593.875 602.4375 599.5 C 602.4375 612.875 612.0625 621.5 624.3125 621.5 C 633.6875 621.5 639.0625 617 641.6875 614.875 L 641.6875 619.5 L 642.4375 620.375 C 651.4375 620 654.1875 619.875 662.3125 620 L 662.9375 619.125 C 662.0625 606.875 662.0625 603.75 662.0625 592 L 662.1875 582.75 M 641.5625 602.625 C 638.9375 604.125 635.5625 605.875 631.4375 605.875 C 626.9375 605.875 623.1875 603.5 623.1875 598.25 C 623.1875 590 633.0625 588.625 641.5625 587.5 Z M 711.8125 605.625 C 709.6875 606.25 708.1875 606.75 706.0625 606.75 C 699.6875 606.75 699.1875 602.75 698.9375 600.875 C 698.5625 597.625 698.5625 590.75 698.6875 585.75 L 698.9375 568.125 L 710.1875 568.625 L 710.9375 567.875 L 712.1875 554.5 L 711.4375 553.75 L 698.9375 553.75 L 699.3125 532.75 L 698.4375 532 C 689.9375 534.5 687.6875 535.125 678.8125 537.375 L 678.3125 538.25 L 678.4375 553.875 L 671.6875 553.625 L 670.9375 554.25 L 669.8125 567.625 L 670.5625 568.375 L 678.4375 568.125 L 678.0625 588 C 677.9375 591.125 677.8125 594.25 677.8125 597.5 C 677.8125 609 678.0625 621.375 697.5625 621.375 C 702.4375 621.375 706.3125 620.625 710.6875 619.875 L 711.5625 619 L 712.8125 606.125 Z M 776.6875 582.75 C 776.8125 571.5 776.8125 566.625 773.5625 561.375 C 771.0625 557.375 766.0625 552.375 750.0625 552.375 C 739.3125 552.375 732.6875 554.375 725.5625 556.5 L 724.8125 557.5 L 724.1875 571.125 L 725.1875 571.625 C 729.5625 569.875 737.6875 566.625 746.0625 566.625 C 750.6875 566.625 752.5625 567.375 754.1875 569 C 755.4375 570.25 755.8125 572.5 755.8125 574.375 C 740.8125 576.375 733.8125 577.75 726.3125 582.375 C 719.3125 586.75 716.9375 593.875 716.9375 599.5 C 716.9375 612.875 726.5625 621.5 738.8125 621.5 C 748.1875 621.5 753.5625 617 756.1875 614.875 L 756.1875 619.5 L 756.9375 620.375 C 765.9375 620 768.6875 619.875 776.8125 620 L 777.4375 619.125 C 776.5625 606.875 776.5625 603.75 776.5625 592 L 776.6875 582.75 M 756.0625 602.625 C 753.4375 604.125 750.0625 605.875 745.9375 605.875 C 741.4375 605.875 737.6875 603.5 737.6875 598.25 C 737.6875 590 747.5625 588.625 756.0625 587.5 Z M 783.8125 620 "/>
<path fill-rule="nonzero" fill="rgb(34.901961%, 14.901961%, 14.901961%)" fill-opacity="1" d="M 232.875 716.25 C 222.375 711.875 216.875 709.625 216.875 704 C 216.875 700.125 220.5 695.25 228.75 695.25 C 238.25 695.25 243.875 699.125 248.5 702.25 L 249.625 701.75 L 250.625 685.375 L 250 684.5 C 244.625 682.25 239 679.875 226.875 679.875 C 203.375 679.875 195.25 693.125 195.25 706.5 C 195.25 721.625 207 727.125 214 730.5 L 218.125 732.375 C 226.75 736 233.375 739.125 233.375 745.75 C 233.375 750.5 229.25 756.125 218.375 756.125 C 207 756.125 200.625 751.125 197 748.25 L 195.75 748.625 L 194.875 766.25 L 195.625 767.25 C 197 767.75 198.375 768.375 199.75 768.75 C 202.625 769.75 210 771.875 219.375 771.875 C 223.125 771.875 232.625 771.5 240.125 768 C 250.625 762.875 255.125 753.375 255.125 742.75 C 255.125 735.625 252.375 728 245.75 722.875 C 242.375 720.375 239.125 718.875 236.125 717.5 Z M 302 755.625 C 299.875 756.25 298.375 756.75 296.25 756.75 C 289.875 756.75 289.375 752.75 289.125 750.875 C 288.75 747.625 288.75 740.75 288.875 735.75 L 289.125 718.125 L 300.375 718.625 L 301.125 717.875 L 302.375 704.5 L 301.625 703.75 L 289.125 703.75 L 289.5 682.75 L 288.625 682 C 280.125 684.5 277.875 685.125 269 687.375 L 268.5 688.25 L 268.625 703.875 L 261.875 703.625 L 261.125 704.25 L 260 717.625 L 260.75 718.375 L 268.625 718.125 L 268.25 738 C 268.125 741.125 268 744.25 268 747.5 C 268 759 268.25 771.375 287.75 771.375 C 292.625 771.375 296.5 770.625 300.875 769.875 L 301.75 769 L 303 756.125 Z M 366.875 732.75 C 367 721.5 367 716.625 363.75 711.375 C 361.25 707.375 356.25 702.375 340.25 702.375 C 329.5 702.375 322.875 704.375 315.75 706.5 L 315 707.5 L 314.375 721.125 L 315.375 721.625 C 319.75 719.875 327.875 716.625 336.25 716.625 C 340.875 716.625 342.75 717.375 344.375 719 C 345.625 720.25 346 722.5 346 724.375 C 331 726.375 324 727.75 316.5 732.375 C 309.5 736.75 307.125 743.875 307.125 749.5 C 307.125 762.875 316.75 771.5 329 771.5 C 338.375 771.5 343.75 767 346.375 764.875 L 346.375 769.5 L 347.125 770.375 C 356.125 770 358.875 769.875 367 770 L 367.625 769.125 C 366.75 756.875 366.75 753.75 366.75 742 L 366.875 732.75 M 346.25 752.625 C 343.625 754.125 340.25 755.875 336.125 755.875 C 331.625 755.875 327.875 753.5 327.875 748.25 C 327.875 740 337.75 738.625 346.25 737.5 Z M 416.5 755.625 C 414.375 756.25 412.875 756.75 410.75 756.75 C 404.375 756.75 403.875 752.75 403.625 750.875 C 403.25 747.625 403.25 740.75 403.375 735.75 L 403.625 718.125 L 414.875 718.625 L 415.625 717.875 L 416.875 704.5 L 416.125 703.75 L 403.625 703.75 L 404 682.75 L 403.125 682 C 394.625 684.5 392.375 685.125 383.5 687.375 L 383 688.25 L 383.125 703.875 L 376.375 703.625 L 375.625 704.25 L 374.5 717.625 L 375.25 718.375 L 383.125 718.125 L 382.75 738 C 382.625 741.125 382.5 744.25 382.5 747.5 C 382.5 759 382.75 771.375 402.25 771.375 C 407.125 771.375 411 770.625 415.375 769.875 L 416.25 769 L 417.5 756.125 Z M 481.25 751.5 C 476.5 754 470.875 756.875 461.75 756.875 C 454.25 756.875 449.125 754.5 446.125 750 C 444.25 747.375 443.875 744.875 443.375 742.375 L 483.75 741.625 L 484.5 740.75 C 484.375 734.625 484.25 728.375 482.5 722.125 C 478.125 707.375 468.5 704.375 464.25 703.375 C 461.125 702.5 458.25 702.25 455.375 702.25 C 435.75 702.25 422.75 715.125 422.75 736.75 C 422.75 742.625 423.75 748.75 425.75 753.125 C 433 770 450 771.5 459 771.5 C 469.375 771.5 473.875 769.625 480.5 767 L 481.25 766 L 482.125 751.875 L 481.25 751.5 M 443.375 729.125 C 443.75 725.25 444.625 720 449.375 717 C 450.875 716 452.625 715.625 454.375 715.625 C 458.5 715.625 461 717.75 462.375 720 C 464.125 722.75 464.25 725.75 464.25 728.625 Z M 549.25 681.5 L 533.375 681.75 L 532.625 682.5 C 533.125 698.75 533.5 709.625 533.5 724 C 533.5 739.25 533.125 754.375 532.75 769.625 L 533.5 770.375 C 542.75 770 544.75 769.875 554.75 770 L 555.375 769.25 C 554.875 755.625 554.875 752.5 554.875 739.75 C 568.875 739.875 583.875 739.875 592.875 728.875 C 596.375 724.625 599.375 717.5 599.375 708.75 C 599.375 703.375 598.125 691.5 587.75 685.625 C 580.25 681.25 569.625 681.25 560.25 681.25 L 549.25 681.5 M 554.875 696.625 C 557.625 696.5 560.25 696.5 563 696.5 C 574 696.75 577 702.375 577 709.625 C 577 711.375 577 718.625 570.375 722.25 C 567 724.125 562.375 724.375 554.875 724.375 Z M 663.625 732.75 C 663.75 721.5 663.75 716.625 660.5 711.375 C 658 707.375 653 702.375 637 702.375 C 626.25 702.375 619.625 704.375 612.5 706.5 L 611.75 707.5 L 611.125 721.125 L 612.125 721.625 C 616.5 719.875 624.625 716.625 633 716.625 C 637.625 716.625 639.5 717.375 641.125 719 C 642.375 720.25 642.75 722.5 642.75 724.375 C 627.75 726.375 620.75 727.75 613.25 732.375 C 606.25 736.75 603.875 743.875 603.875 749.5 C 603.875 762.875 613.5 771.5 625.75 771.5 C 635.125 771.5 640.5 767 643.125 764.875 L 643.125 769.5 L 643.875 770.375 C 652.875 770 655.625 769.875 663.75 770 L 664.375 769.125 C 663.5 756.875 663.5 753.75 663.5 742 L 663.625 732.75 M 643 752.625 C 640.375 754.125 637 755.875 632.875 755.875 C 628.375 755.875 624.625 753.5 624.625 748.25 C 624.625 740 634.5 738.625 643 737.5 Z M 714.375 723.625 L 717.875 703.25 L 717.125 702.375 C 716.25 702.375 715.375 702.25 714.5 702.25 C 709.375 702.25 703.625 705.125 699.625 714.375 L 700 702.875 L 699 701.875 C 689.75 703.875 687.375 704.25 678.25 705.625 L 677.5 706.375 C 678.25 715.75 678.625 721.375 678.625 738.75 C 678.625 749 678.5 759.25 678.25 769.625 L 679 770.375 C 688.25 770 690.25 769.875 700.25 770 L 700.875 769.125 C 700.375 759 699.625 744.875 699.625 736.25 C 699.625 730.625 699.625 722.375 708.125 722.375 C 710.25 722.375 711.5 723.125 713.25 724.125 Z M 789.375 768.375 C 777.625 748.5 776.375 746.25 766.875 729.125 C 775.5 717.375 776.375 716.125 785.25 704.75 L 784.625 703.5 L 764.25 703.75 L 763 704.625 C 753.25 721.5 752 723.5 746.25 732.125 L 746.25 718.25 C 746.375 694.875 746.5 689.875 747.125 671 L 746.125 670.25 L 724.375 673.5 L 723.625 674.375 C 724.5 686.5 724.875 692.375 725.125 708.75 C 725.375 729 725.375 749.25 725.25 769.5 L 726.125 770.375 C 734.5 770 736.875 770 746.375 770 L 747.125 769.125 L 746.375 748 L 746.25 733.625 C 757.125 753.625 758.5 756.375 764.875 769.625 L 766 770.375 L 788.5 769.5 Z M 787.875 770 "/>
</svg>
