<?xml version="1.0" encoding="UTF-8"?>
<svg xmlns="http://www.w3.org/2000/svg" xmlns:xlink="http://www.w3.org/1999/xlink" width="975" height="1300" viewBox="0 0 975 1300">
<path fill-rule="nonzero" fill="rgb(34.901961%, 14.901961%, 14.901961%)" fill-opacity="1" d="M 308.9375 509 L 309.8125 508.25 L 310.8125 493.625 L 310.1875 492.875 L 281.6875 493.875 L 281.6875 473 L 312.3125 473.375 L 313.0625 472.5 L 314.4375 457 L 313.6875 456.375 C 293.0625 456.75 286.4375 456.75 259.4375 456.625 L 258.6875 457.375 C 259.4375 469.625 259.9375 479.5 259.9375 501.625 C 259.9375 516 259.6875 530.375 259.4375 544.75 L 260.0625 545.375 C 269.1875 545 271.3125 545 282.3125 545 L 282.9375 544.25 C 282.0625 529.875 281.9375 525.5 281.5625 509 Z M 387.5625 511.75 C 387.5625 506.875 387.5625 486.625 370.0625 479.75 C 364.5625 477.625 358.0625 477.375 354.8125 477.375 C 333.0625 477.375 320.8125 489 320.8125 512 C 320.8125 520 322.0625 528.125 326.6875 534.875 C 329.9375 539.75 336.0625 546.5 353.9375 546.5 C 380.4375 546.5 387.5625 530.5 387.5625 511.75 M 365.9375 511.625 C 365.9375 521.875 364.5625 533.25 354.1875 533.25 C 350.9375 533.25 348.6875 531.75 347.1875 530.375 C 345.0625 528.25 342.6875 524 342.6875 511.875 C 342.6875 508.25 342.6875 500.25 345.1875 495.875 C 347.0625 492.5 350.3125 490.25 354.3125 490.25 C 357.8125 490.25 360.6875 492.125 362.3125 494.125 C 365.3125 497.75 365.9375 504.875 365.9375 511.625 Z M 435.5625 498.625 L 439.0625 478.25 L 438.3125 477.375 C 437.4375 477.375 436.5625 477.25 435.6875 477.25 C 430.5625 477.25 424.8125 480.125 420.8125 489.375 L 421.1875 477.875 L 420.1875 476.875 C 410.9375 478.875 408.5625 479.25 399.4375 480.625 L 398.6875 481.375 C 399.4375 490.75 399.8125 496.375 399.8125 513.75 C 399.8125 524 399.6875 534.25 399.4375 544.625 L 400.1875 545.375 C 409.4375 545 411.4375 544.875 421.4375 545 L 422.0625 544.125 C 421.5625 534 420.8125 519.875 420.8125 511.25 C 420.8125 505.625 420.8125 497.375 429.3125 497.375 C 431.4375 497.375 432.6875 498.125 434.4375 499.125 Z M 481.3125 530.625 C 479.1875 531.25 477.6875 531.75 475.5625 531.75 C 469.1875 531.75 468.6875 527.75 468.4375 525.875 C 468.0625 522.625 468.0625 515.75 468.1875 510.75 L 468.4375 493.125 L 479.6875 493.625 L 480.4375 492.875 L 481.6875 479.5 L 480.9375 478.75 L 468.4375 478.75 L 468.8125 457.75 L 467.9375 457 C 459.4375 459.5 457.1875 460.125 448.3125 462.375 L 447.8125 463.25 L 447.9375 478.875 L 441.1875 478.625 L 440.4375 479.25 L 439.3125 492.625 L 440.0625 493.375 L 447.9375 493.125 L 447.5625 513 C 447.4375 516.125 447.3125 519.25 447.3125 522.5 C 447.3125 534 447.5625 546.375 467.0625 546.375 C 471.9375 546.375 475.8125 545.625 480.1875 544.875 L 481.0625 544 L 482.3125 531.125 Z M 598.6875 468.25 C 596.5625 465.5 594.0625 463.125 591.1875 461.25 C 584.8125 457 576.0625 454.875 567.3125 454.875 C 559.5625 454.875 551.6875 456.25 544.9375 460.125 C 529.6875 468.875 526.9375 483.375 525.9375 488.625 C 525.1875 492.875 524.8125 497.125 524.8125 501.375 C 524.8125 509.875 525.8125 525.875 537.5625 536.75 C 547.0625 545.625 560.0625 546.875 566.4375 546.875 C 576.0625 546.875 585.8125 544.625 593.1875 538.5 C 605.5625 528.25 608.0625 511.25 608.0625 500.625 C 608.0625 481 601.8125 472.125 598.6875 468.25 M 578.9375 476.25 C 581.4375 479.125 582.5625 482.75 583.3125 486.375 C 584.3125 491.125 584.5625 495.625 584.6875 498.75 C 585.1875 517.5 581.1875 531 566.6875 531 C 549.3125 531 548.1875 510.75 548.1875 499.5 C 548.1875 484.5 551.8125 476.75 557.6875 473 C 561.0625 471 564.4375 470.5 566.8125 470.5 C 571.5625 470.5 575.9375 472.625 578.9375 476.25 Z M 656.9375 498.625 L 660.4375 478.25 L 659.6875 477.375 C 658.8125 477.375 657.9375 477.25 657.0625 477.25 C 651.9375 477.25 646.1875 480.125 642.1875 489.375 L 642.5625 477.875 L 641.5625 476.875 C 632.3125 478.875 629.9375 479.25 620.8125 480.625 L 620.0625 481.375 C 620.8125 490.75 621.1875 496.375 621.1875 513.75 C 621.1875 524 621.0625 534.25 620.8125 544.625 L 621.5625 545.375 C 630.8125 545 632.8125 544.875 642.8125 545 L 643.4375 544.125 C 642.9375 534 642.1875 519.875 642.1875 511.25 C 642.1875 505.625 642.1875 497.375 650.6875 497.375 C 652.8125 497.375 654.0625 498.125 655.8125 499.125 Z M 728.9375 544.25 C 728.4375 533 728.0625 525.5 728.0625 509.125 C 728.0625 476.125 728.5625 462.5 729.0625 446 L 728.1875 445.25 L 707.5625 448.5 L 706.9375 449.25 C 707.6875 461 707.8125 464.125 707.6875 478.375 C 698.3125 478.125 686.5625 477.875 677.0625 485.375 C 668.3125 492.125 664.6875 502.5 664.6875 515.375 C 664.6875 525.125 667.3125 534.875 674.6875 541 C 680.1875 545.5 686.9375 546.5 691.0625 546.5 C 699.9375 546.5 704.5625 542.375 707.5625 539.75 L 707.3125 544.625 L 707.9375 545.375 C 716.5625 545 718.9375 545 728.3125 545 L 728.9375 544.25 M 707.6875 493.375 C 707.8125 510 707.6875 513.25 707.3125 528.375 C 704.8125 529.875 702.3125 531.375 698.8125 531.375 C 686.6875 531.375 686.6875 515.875 686.6875 513.375 C 686.6875 503.75 689.4375 493 703.4375 493 C 704.8125 493 705.9375 493.125 707.6875 493.375 Z M 735.6875 545 "/>
<path fill-rule="nonzero" fill="rgb(34.901961%, 14.901961%, 14.901961%)" fill-opacity="1" d="M 163 695 C 166.25 695.125 169.625 695.125 172.875 695.125 C 186.875 695.125 209.5 694.625 218.625 672.375 C 222 664.125 222.75 654.125 222.75 648.5 C 222.75 636.75 220.125 627.75 217 622.125 C 208.5 606.625 192.375 606.125 178.125 606.125 C 172.375 606.125 166.625 606.375 160.875 606.625 L 147.625 606.75 L 146.875 607.5 C 147.375 619.5 147.875 630 147.875 664.625 C 147.875 676.875 147.75 684.25 147.5 694.5 L 148.25 695 L 163 695 M 169.875 678.875 C 169.625 666.625 169.5 655 169.5 643 C 169.5 636.25 169.5 629.5 169.625 622.75 C 172.125 622.625 174.75 622.5 177.25 622.5 C 184.875 622.5 199.75 622.5 199.75 649.125 C 199.75 664.75 193.875 671.75 190.875 674.25 C 185.25 678.875 176.625 678.875 169.875 678.875 Z M 295.5 628.125 L 275.125 629.125 L 274.25 629.875 C 275.125 644 275.125 664 275.125 666 C 275.125 669.625 275.125 671.625 275 676.625 C 271.625 678.875 269 680.75 265.625 680.75 C 256.625 680.75 256.625 671.25 256.625 663.875 C 256.625 660.75 256.625 657.5 256.75 654.375 L 257 629.125 L 256.125 628.125 L 235.5 629.125 L 234.625 629.875 C 235.375 640.375 235.5 643.875 235.5 656.5 L 235.5 665.25 C 235.375 678.875 236 684.625 240.5 689.875 C 244.625 694.5 250.625 696.5 256.875 696.5 C 265.75 696.5 270.875 692.5 275.375 689 L 275.25 694.625 L 276.125 695.375 C 285.25 695 288 695 296.125 695 L 296.875 694.25 C 296.25 685.375 296 680.625 296 664.375 C 296 652.625 296.125 640.875 296.375 629.125 Z M 372.25 694.125 C 371.625 683.125 371.625 679.625 371.375 667.375 L 371.375 657.625 C 371.25 645.625 371.125 639.875 368 634.75 C 364.125 628.25 357 627.25 352.5 627.25 C 344.875 627.25 338.25 631.25 332.5 634.625 L 332.75 627.75 L 331.5 626.875 C 321.875 628.875 319.75 629.25 310.375 630.5 L 309.625 631.375 C 310.625 642.25 311.375 650.125 311.375 670.5 C 311.375 678.5 311.25 686.5 311.125 694.5 L 311.875 695.25 C 320.875 694.875 322.75 694.875 332.75 694.875 L 333.5 694.125 C 332.75 674.875 332.625 670 332.5 647.625 C 335.125 645.875 338.125 643.75 342.125 643.75 C 349 643.75 349.625 651.125 350 655.625 C 350.25 659.75 350.375 676.875 350.375 681.625 C 350.375 685.875 350.25 690.25 350.25 694.5 L 351 695.25 C 359.25 695 361.375 694.875 371.375 694.875 Z M 442 676.5 C 437.25 679 431.625 681.875 422.5 681.875 C 415 681.875 409.875 679.5 406.875 675 C 405 672.375 404.625 669.875 404.125 667.375 L 444.5 666.625 L 445.25 665.75 C 445.125 659.625 445 653.375 443.25 647.125 C 438.875 632.375 429.25 629.375 425 628.375 C 421.875 627.5 419 627.25 416.125 627.25 C 396.5 627.25 383.5 640.125 383.5 661.75 C 383.5 667.625 384.5 673.75 386.5 678.125 C 393.75 695 410.75 696.5 419.75 696.5 C 430.125 696.5 434.625 694.625 441.25 692 L 442 691 L 442.875 676.875 L 442 676.5 M 404.125 654.125 C 404.5 650.25 405.375 645 410.125 642 C 411.625 641 413.375 640.625 415.125 640.625 C 419.25 640.625 421.75 642.75 423.125 645 C 424.875 647.75 425 650.75 425 653.625 Z M 483 651.875 C 478.75 650.375 475.375 649 475.375 645.5 C 475.375 644 476.375 639.875 484.125 639.875 C 491.75 639.875 496.625 643.125 499.75 645.125 L 500.875 644.75 L 502.125 631.125 L 501.5 630.375 C 495.625 628.75 490.5 627.25 482.375 627.25 C 476.25 627.25 464 627.75 457.5 637.125 C 455.875 639.375 454.125 643.125 454.125 648.125 C 454.125 661.5 464.5 665.5 470.375 667.75 L 475.125 669.5 C 478.5 670.625 484 672.5 484 677 C 484 680.125 481.125 683.5 474.125 683.5 C 470.625 683.5 465.5 682.375 460.875 680 C 458.75 678.875 457.75 678 455.875 676.5 L 454.75 677 C 454.5 683.5 454.375 684.875 453.875 691.125 L 454.5 692.25 C 460.625 694.5 465.875 696.5 475 696.5 C 484.5 696.5 503.25 694.75 505.5 676.875 C 505.625 675.875 505.625 675 505.625 674.125 C 505.625 660.375 496 656.75 489.125 654.125 Z M 589.25 641.25 C 578.75 636.875 573.25 634.625 573.25 629 C 573.25 625.125 576.875 620.25 585.125 620.25 C 594.625 620.25 600.25 624.125 604.875 627.25 L 606 626.75 L 607 610.375 L 606.375 609.5 C 601 607.25 595.375 604.875 583.25 604.875 C 559.75 604.875 551.625 618.125 551.625 631.5 C 551.625 646.625 563.375 652.125 570.375 655.5 L 574.5 657.375 C 583.125 661 589.75 664.125 589.75 670.75 C 589.75 675.5 585.625 681.125 574.75 681.125 C 563.375 681.125 557 676.125 553.375 673.25 L 552.125 673.625 L 551.25 691.25 L 552 692.25 C 553.375 692.75 554.75 693.375 556.125 693.75 C 559 694.75 566.375 696.875 575.75 696.875 C 579.5 696.875 589 696.5 596.5 693 C 607 687.875 611.5 678.375 611.5 667.75 C 611.5 660.625 608.75 653 602.125 647.875 C 598.75 645.375 595.5 643.875 592.5 642.5 Z M 658.375 680.625 C 656.25 681.25 654.75 681.75 652.625 681.75 C 646.25 681.75 645.75 677.75 645.5 675.875 C 645.125 672.625 645.125 665.75 645.25 660.75 L 645.5 643.125 L 656.75 643.625 L 657.5 642.875 L 658.75 629.5 L 658 628.75 L 645.5 628.75 L 645.875 607.75 L 645 607 C 636.5 609.5 634.25 610.125 625.375 612.375 L 624.875 613.25 L 625 628.875 L 618.25 628.625 L 617.5 629.25 L 616.375 642.625 L 617.125 643.375 L 625 643.125 L 624.625 663 C 624.5 666.125 624.375 669.25 624.375 672.5 C 624.375 684 624.625 696.375 644.125 696.375 C 649 696.375 652.875 695.625 657.25 694.875 L 658.125 694 L 659.375 681.125 Z M 723.25 657.75 C 723.375 646.5 723.375 641.625 720.125 636.375 C 717.625 632.375 712.625 627.375 696.625 627.375 C 685.875 627.375 679.25 629.375 672.125 631.5 L 671.375 632.5 L 670.75 646.125 L 671.75 646.625 C 676.125 644.875 684.25 641.625 692.625 641.625 C 697.25 641.625 699.125 642.375 700.75 644 C 702 645.25 702.375 647.5 702.375 649.375 C 687.375 651.375 680.375 652.75 672.875 657.375 C 665.875 661.75 663.5 668.875 663.5 674.5 C 663.5 687.875 673.125 696.5 685.375 696.5 C 694.75 696.5 700.125 692 702.75 689.875 L 702.75 694.5 L 703.5 695.375 C 712.5 695 715.25 694.875 723.375 695 L 724 694.125 C 723.125 681.875 723.125 678.75 723.125 667 L 723.25 657.75 M 702.625 677.625 C 700 679.125 696.625 680.875 692.5 680.875 C 688 680.875 684.25 678.5 684.25 673.25 C 684.25 665 694.125 663.625 702.625 662.5 Z M 772.875 680.625 C 770.75 681.25 769.25 681.75 767.125 681.75 C 760.75 681.75 760.25 677.75 760 675.875 C 759.625 672.625 759.625 665.75 759.75 660.75 L 760 643.125 L 771.25 643.625 L 772 642.875 L 773.25 629.5 L 772.5 628.75 L 760 628.75 L 760.375 607.75 L 759.5 607 C 751 609.5 748.75 610.125 739.875 612.375 L 739.375 613.25 L 739.5 628.875 L 732.75 628.625 L 732 629.25 L 730.875 642.625 L 731.625 643.375 L 739.5 643.125 L 739.125 663 C 739 666.125 738.875 669.25 738.875 672.5 C 738.875 684 739.125 696.375 758.625 696.375 C 763.5 696.375 767.375 695.625 771.75 694.875 L 772.625 694 L 773.875 681.125 Z M 837.625 676.5 C 832.875 679 827.25 681.875 818.125 681.875 C 810.625 681.875 805.5 679.5 802.5 675 C 800.625 672.375 800.25 669.875 799.75 667.375 L 840.125 666.625 L 840.875 665.75 C 840.75 659.625 840.625 653.375 838.875 647.125 C 834.5 632.375 824.875 629.375 820.625 628.375 C 817.5 627.5 814.625 627.25 811.75 627.25 C 792.125 627.25 779.125 640.125 779.125 661.75 C 779.125 667.625 780.125 673.75 782.125 678.125 C 789.375 695 806.375 696.5 815.375 696.5 C 825.75 696.5 830.25 694.625 836.875 692 L 837.625 691 L 838.5 676.875 L 837.625 676.5 M 799.75 654.125 C 800.125 650.25 801 645 805.75 642 C 807.25 641 809 640.625 810.75 640.625 C 814.875 640.625 817.375 642.75 818.75 645 C 820.5 647.75 820.625 650.75 820.625 653.625 Z M 844.875 695 "/>
<path fill-rule="nonzero" fill="rgb(34.901961%, 14.901961%, 14.901961%)" fill-opacity="1" d="M 382.375 756.5 L 366.5 756.75 L 365.75 757.5 C 366.25 773.75 366.625 784.625 366.625 799 C 366.625 814.25 366.25 829.375 365.875 844.625 L 366.625 845.375 C 375.875 845 377.875 844.875 387.875 845 L 388.5 844.25 C 388 830.625 388 827.5 388 814.75 C 402 814.875 417 814.875 426 803.875 C 429.5 799.625 432.5 792.5 432.5 783.75 C 432.5 778.375 431.25 766.5 420.875 760.625 C 413.375 756.25 402.75 756.25 393.375 756.25 L 382.375 756.5 M 388 771.625 C 390.75 771.5 393.375 771.5 396.125 771.5 C 407.125 771.75 410.125 777.375 410.125 784.625 C 410.125 786.375 410.125 793.625 403.5 797.25 C 400.125 799.125 395.5 799.375 388 799.375 Z M 496.75 807.75 C 496.875 796.5 496.875 791.625 493.625 786.375 C 491.125 782.375 486.125 777.375 470.125 777.375 C 459.375 777.375 452.75 779.375 445.625 781.5 L 444.875 782.5 L 444.25 796.125 L 445.25 796.625 C 449.625 794.875 457.75 791.625 466.125 791.625 C 470.75 791.625 472.625 792.375 474.25 794 C 475.5 795.25 475.875 797.5 475.875 799.375 C 460.875 801.375 453.875 802.75 446.375 807.375 C 439.375 811.75 437 818.875 437 824.5 C 437 837.875 446.625 846.5 458.875 846.5 C 468.25 846.5 473.625 842 476.25 839.875 L 476.25 844.5 L 477 845.375 C 486 845 488.75 844.875 496.875 845 L 497.5 844.125 C 496.625 831.875 496.625 828.75 496.625 817 L 496.75 807.75 M 476.125 827.625 C 473.5 829.125 470.125 830.875 466 830.875 C 461.5 830.875 457.75 828.5 457.75 823.25 C 457.75 815 467.625 813.625 476.125 812.5 Z M 547.5 798.625 L 551 778.25 L 550.25 777.375 C 549.375 777.375 548.5 777.25 547.625 777.25 C 542.5 777.25 536.75 780.125 532.75 789.375 L 533.125 777.875 L 532.125 776.875 C 522.875 778.875 520.5 779.25 511.375 780.625 L 510.625 781.375 C 511.375 790.75 511.75 796.375 511.75 813.75 C 511.75 824 511.625 834.25 511.375 844.625 L 512.125 845.375 C 521.375 845 523.375 844.875 533.375 845 L 534 844.125 C 533.5 834 532.75 819.875 532.75 811.25 C 532.75 805.625 532.75 797.375 541.25 797.375 C 543.375 797.375 544.625 798.125 546.375 799.125 Z M 622.5 843.375 C 610.75 823.5 609.5 821.25 600 804.125 C 608.625 792.375 609.5 791.125 618.375 779.75 L 617.75 778.5 L 597.375 778.75 L 596.125 779.625 C 586.375 796.5 585.125 798.5 579.375 807.125 L 579.375 793.25 C 579.5 769.875 579.625 764.875 580.25 746 L 579.25 745.25 L 557.5 748.5 L 556.75 749.375 C 557.625 761.5 558 767.375 558.25 783.75 C 558.5 804 558.5 824.25 558.375 844.5 L 559.25 845.375 C 567.625 845 570 845 579.5 845 L 580.25 844.125 L 579.5 823 L 579.375 808.625 C 590.25 828.625 591.625 831.375 598 844.625 L 599.125 845.375 L 621.625 844.5 Z M 621 845 "/>
</svg>
