<?xml version="1.0" encoding="UTF-8"?>
<svg xmlns="http://www.w3.org/2000/svg" xmlns:xlink="http://www.w3.org/1999/xlink" width="975" height="1300" viewBox="0 0 975 1300">
<path fill-rule="nonzero" fill="rgb(34.901961%, 14.901961%, 14.901961%)" fill-opacity="1" d="M 342.375 447.625 C 339.5 449.875 333.125 454.625 322.75 454.625 C 308.5 454.625 298.5 444 298.5 426.25 C 298.5 415.5 302.25 396.625 322.625 396.625 C 332 396.625 337.125 400.25 340.25 402.625 L 341.375 402.375 L 342.5 385.125 L 342 384.5 C 337.5 382.75 329.875 379.875 318.875 379.875 C 286.5 379.875 275.25 404.875 275.25 426.75 C 275.25 450.75 289.875 471.875 320.375 471.875 C 330.875 471.875 337.75 469.125 341.75 467.5 L 342.375 466.75 L 343.25 448.125 Z M 416.625 436.75 C 416.625 431.875 416.625 411.625 399.125 404.75 C 393.625 402.625 387.125 402.375 383.875 402.375 C 362.125 402.375 349.875 414 349.875 437 C 349.875 445 351.125 453.125 355.75 459.875 C 359 464.75 365.125 471.5 383 471.5 C 409.5 471.5 416.625 455.5 416.625 436.75 M 395 436.625 C 395 446.875 393.625 458.25 383.25 458.25 C 380 458.25 377.75 456.75 376.25 455.375 C 374.125 453.25 371.75 449 371.75 436.875 C 371.75 433.25 371.75 425.25 374.25 420.875 C 376.125 417.5 379.375 415.25 383.375 415.25 C 386.875 415.25 389.75 417.125 391.375 419.125 C 394.375 422.75 395 429.875 395 436.625 Z M 450.5 469.125 C 449.875 454.75 449.25 441.625 449.25 402.125 C 449.25 390.25 449.375 384.625 449.875 371.125 L 449 370.25 L 427.625 373.625 L 427.125 374.375 C 428.375 389.625 428.5 393.75 428.75 414 C 428.875 421.375 428.875 428.75 428.875 436.125 C 428.875 449.625 428.625 457.125 428.125 469.5 L 428.875 470.375 C 437.25 470 440.625 469.875 449.75 470 Z M 528.625 436.75 C 528.625 431.875 528.625 411.625 511.125 404.75 C 505.625 402.625 499.125 402.375 495.875 402.375 C 474.125 402.375 461.875 414 461.875 437 C 461.875 445 463.125 453.125 467.75 459.875 C 471 464.75 477.125 471.5 495 471.5 C 521.5 471.5 528.625 455.5 528.625 436.75 M 507 436.625 C 507 446.875 505.625 458.25 495.25 458.25 C 492 458.25 489.75 456.75 488.25 455.375 C 486.125 453.25 483.75 449 483.75 436.875 C 483.75 433.25 483.75 425.25 486.25 420.875 C 488.125 417.5 491.375 415.25 495.375 415.25 C 498.875 415.25 501.75 417.125 503.375 419.125 C 506.375 422.75 507 429.875 507 436.625 Z M 601.75 469.125 C 601.125 458.125 601.125 454.625 600.875 442.375 L 600.875 432.625 C 600.75 420.625 600.625 414.875 597.5 409.75 C 593.625 403.25 586.5 402.25 582 402.25 C 574.375 402.25 567.75 406.25 562 409.625 L 562.25 402.75 L 561 401.875 C 551.375 403.875 549.25 404.25 539.875 405.5 L 539.125 406.375 C 540.125 417.25 540.875 425.125 540.875 445.5 C 540.875 453.5 540.75 461.5 540.625 469.5 L 541.375 470.25 C 550.375 469.875 552.25 469.875 562.25 469.875 L 563 469.125 C 562.25 449.875 562.125 445 562 422.625 C 564.625 420.875 567.625 418.75 571.625 418.75 C 578.5 418.75 579.125 426.125 579.5 430.625 C 579.75 434.75 579.875 451.875 579.875 456.625 C 579.875 460.875 579.75 465.25 579.75 469.5 L 580.5 470.25 C 588.75 470 590.875 469.875 600.875 469.875 Z M 671.5 451.5 C 666.75 454 661.125 456.875 652 456.875 C 644.5 456.875 639.375 454.5 636.375 450 C 634.5 447.375 634.125 444.875 633.625 442.375 L 674 441.625 L 674.75 440.75 C 674.625 434.625 674.5 428.375 672.75 422.125 C 668.375 407.375 658.75 404.375 654.5 403.375 C 651.375 402.5 648.5 402.25 645.625 402.25 C 626 402.25 613 415.125 613 436.75 C 613 442.625 614 448.75 616 453.125 C 623.25 470 640.25 471.5 649.25 471.5 C 659.625 471.5 664.125 469.625 670.75 467 L 671.5 466 L 672.375 451.875 L 671.5 451.5 M 633.625 429.125 C 634 425.25 634.875 420 639.625 417 C 641.125 416 642.875 415.625 644.625 415.625 C 648.75 415.625 651.25 417.75 652.625 420 C 654.375 422.75 654.5 425.75 654.5 428.625 Z M 708.25 469.125 C 707.625 454.75 707 441.625 707 402.125 C 707 390.25 707.125 384.625 707.625 371.125 L 706.75 370.25 L 685.375 373.625 L 684.875 374.375 C 686.125 389.625 686.25 393.75 686.5 414 C 686.625 421.375 686.625 428.75 686.625 436.125 C 686.625 449.625 686.375 457.125 685.875 469.5 L 686.625 470.375 C 695 470 698.375 469.875 707.5 470 Z M 715.25 470 "/>
<path fill-rule="nonzero" fill="rgb(34.901961%, 14.901961%, 14.901961%)" fill-opacity="1" d="M 195.1875 531.375 C 183.1875 531.75 180.6875 531.75 167.3125 531.75 L 166.4375 532.5 C 159.8125 553.75 155.8125 566.375 137.4375 619.125 L 137.9375 620 L 157.4375 620 L 158.3125 619.25 L 164.4375 596.5 L 191.4375 596.5 L 196.8125 619.625 L 197.6875 620.375 C 206.8125 620 209.3125 619.875 219.4375 620 L 220.0625 619 C 204.9375 565.5 203.1875 559.625 196.0625 532.125 L 195.1875 531.375 M 168.8125 581.375 L 175.0625 560.25 L 179.4375 545.625 L 183.1875 561.875 L 187.8125 581.375 Z M 250.0625 619.125 C 249.4375 604.75 248.8125 591.625 248.8125 552.125 C 248.8125 540.25 248.9375 534.625 249.4375 521.125 L 248.5625 520.25 L 227.1875 523.625 L 226.6875 524.375 C 227.9375 539.625 228.0625 543.75 228.3125 564 C 228.4375 571.375 228.4375 578.75 228.4375 586.125 C 228.4375 599.625 228.1875 607.125 227.6875 619.5 L 228.4375 620.375 C 236.8125 620 240.1875 619.875 249.3125 620 Z M 286.5625 619.125 C 285.9375 604.75 285.3125 591.625 285.3125 552.125 C 285.3125 540.25 285.4375 534.625 285.9375 521.125 L 285.0625 520.25 L 263.6875 523.625 L 263.1875 524.375 C 264.4375 539.625 264.5625 543.75 264.8125 564 C 264.9375 571.375 264.9375 578.75 264.9375 586.125 C 264.9375 599.625 264.6875 607.125 264.1875 619.5 L 264.9375 620.375 C 273.3125 620 276.6875 619.875 285.8125 620 Z M 356.5625 601.5 C 351.8125 604 346.1875 606.875 337.0625 606.875 C 329.5625 606.875 324.4375 604.5 321.4375 600 C 319.5625 597.375 319.1875 594.875 318.6875 592.375 L 359.0625 591.625 L 359.8125 590.75 C 359.6875 584.625 359.5625 578.375 357.8125 572.125 C 353.4375 557.375 343.8125 554.375 339.5625 553.375 C 336.4375 552.5 333.5625 552.25 330.6875 552.25 C 311.0625 552.25 298.0625 565.125 298.0625 586.75 C 298.0625 592.625 299.0625 598.75 301.0625 603.125 C 308.3125 620 325.3125 621.5 334.3125 621.5 C 344.6875 621.5 349.1875 619.625 355.8125 617 L 356.5625 616 L 357.4375 601.875 L 356.5625 601.5 M 318.6875 579.125 C 319.0625 575.25 319.9375 570 324.6875 567 C 326.1875 566 327.9375 565.625 329.6875 565.625 C 333.8125 565.625 336.3125 567.75 337.6875 570 C 339.4375 572.75 339.5625 575.75 339.5625 578.625 Z M 432.5625 619.125 C 431.9375 608.125 431.9375 604.625 431.6875 592.375 L 431.6875 582.625 C 431.5625 570.625 431.4375 564.875 428.3125 559.75 C 424.4375 553.25 417.3125 552.25 412.8125 552.25 C 405.1875 552.25 398.5625 556.25 392.8125 559.625 L 393.0625 552.75 L 391.8125 551.875 C 382.1875 553.875 380.0625 554.25 370.6875 555.5 L 369.9375 556.375 C 370.9375 567.25 371.6875 575.125 371.6875 595.5 C 371.6875 603.5 371.5625 611.5 371.4375 619.5 L 372.1875 620.25 C 381.1875 619.875 383.0625 619.875 393.0625 619.875 L 393.8125 619.125 C 393.0625 599.875 392.9375 595 392.8125 572.625 C 395.4375 570.875 398.4375 568.75 402.4375 568.75 C 409.3125 568.75 409.9375 576.125 410.3125 580.625 C 410.5625 584.75 410.6875 601.875 410.6875 606.625 C 410.6875 610.875 410.5625 615.25 410.5625 619.5 L 411.3125 620.25 C 419.5625 620 421.6875 619.875 431.6875 619.875 Z M 473.0625 576.875 C 468.8125 575.375 465.4375 574 465.4375 570.5 C 465.4375 569 466.4375 564.875 474.1875 564.875 C 481.8125 564.875 486.6875 568.125 489.8125 570.125 L 490.9375 569.75 L 492.1875 556.125 L 491.5625 555.375 C 485.6875 553.75 480.5625 552.25 472.4375 552.25 C 466.3125 552.25 454.0625 552.75 447.5625 562.125 C 445.9375 564.375 444.1875 568.125 444.1875 573.125 C 444.1875 586.5 454.5625 590.5 460.4375 592.75 L 465.1875 594.5 C 468.5625 595.625 474.0625 597.5 474.0625 602 C 474.0625 605.125 471.1875 608.5 464.1875 608.5 C 460.6875 608.5 455.5625 607.375 450.9375 605 C 448.8125 603.875 447.8125 603 445.9375 601.5 L 444.8125 602 C 444.5625 608.5 444.4375 609.875 443.9375 616.125 L 444.5625 617.25 C 450.6875 619.5 455.9375 621.5 465.0625 621.5 C 474.5625 621.5 493.3125 619.75 495.5625 601.875 C 495.6875 600.875 495.6875 600 495.6875 599.125 C 495.6875 585.375 486.0625 581.75 479.1875 579.125 Z M 583.9375 619.125 C 588.9375 599.75 589.8125 596.75 597.3125 569.875 C 598.8125 564.75 600.1875 559.5 601.5625 554.375 L 600.8125 553.375 L 584.5625 553.75 L 583.6875 554.625 L 580.0625 573.375 L 576.5625 588.5 L 574.1875 600 L 572.0625 588.875 L 569.3125 575.875 L 564.9375 554.25 L 564.1875 553.375 L 540.1875 553.75 L 539.3125 554.625 L 535.1875 575.125 L 532.1875 588.875 L 529.8125 600.375 L 527.4375 588 L 524.4375 574.5 L 520.1875 553.75 L 519.4375 553.125 L 499.1875 554.625 L 498.4375 555.625 C 510.1875 596.875 512.0625 604.25 515.5625 619.625 L 516.4375 620.375 C 525.0625 620 528.1875 619.875 539.6875 620 L 540.4375 619.125 L 543.6875 603.875 L 547.1875 588.75 L 550.3125 573.625 L 552.1875 583.125 L 554.0625 592.375 L 559.3125 619.5 L 560.1875 620.375 C 569.4375 620 573.1875 619.875 583.1875 620 Z M 671.8125 586.75 C 671.8125 581.875 671.8125 561.625 654.3125 554.75 C 648.8125 552.625 642.3125 552.375 639.0625 552.375 C 617.3125 552.375 605.0625 564 605.0625 587 C 605.0625 595 606.3125 603.125 610.9375 609.875 C 614.1875 614.75 620.3125 621.5 638.1875 621.5 C 664.6875 621.5 671.8125 605.5 671.8125 586.75 M 650.1875 586.625 C 650.1875 596.875 648.8125 608.25 638.4375 608.25 C 635.1875 608.25 632.9375 606.75 631.4375 605.375 C 629.3125 603.25 626.9375 599 626.9375 586.875 C 626.9375 583.25 626.9375 575.25 629.4375 570.875 C 631.3125 567.5 634.5625 565.25 638.5625 565.25 C 642.0625 565.25 644.9375 567.125 646.5625 569.125 C 649.5625 572.75 650.1875 579.875 650.1875 586.625 Z M 719.8125 573.625 L 723.3125 553.25 L 722.5625 552.375 C 721.6875 552.375 720.8125 552.25 719.9375 552.25 C 714.8125 552.25 709.0625 555.125 705.0625 564.375 L 705.4375 552.875 L 704.4375 551.875 C 695.1875 553.875 692.8125 554.25 683.6875 555.625 L 682.9375 556.375 C 683.6875 565.75 684.0625 571.375 684.0625 588.75 C 684.0625 599 683.9375 609.25 683.6875 619.625 L 684.4375 620.375 C 693.6875 620 695.6875 619.875 705.6875 620 L 706.3125 619.125 C 705.8125 609 705.0625 594.875 705.0625 586.25 C 705.0625 580.625 705.0625 572.375 713.5625 572.375 C 715.6875 572.375 716.9375 573.125 718.6875 574.125 Z M 765.5625 605.625 C 763.4375 606.25 761.9375 606.75 759.8125 606.75 C 753.4375 606.75 752.9375 602.75 752.6875 600.875 C 752.3125 597.625 752.3125 590.75 752.4375 585.75 L 752.6875 568.125 L 763.9375 568.625 L 764.6875 567.875 L 765.9375 554.5 L 765.1875 553.75 L 752.6875 553.75 L 753.0625 532.75 L 752.1875 532 C 743.6875 534.5 741.4375 535.125 732.5625 537.375 L 732.0625 538.25 L 732.1875 553.875 L 725.4375 553.625 L 724.6875 554.25 L 723.5625 567.625 L 724.3125 568.375 L 732.1875 568.125 L 731.8125 588 C 731.6875 591.125 731.5625 594.25 731.5625 597.5 C 731.5625 609 731.8125 621.375 751.3125 621.375 C 756.1875 621.375 760.0625 620.625 764.4375 619.875 L 765.3125 619 L 766.5625 606.125 Z M 836.0625 619.125 C 835.5625 608.875 835.4375 605.375 835.1875 592.375 L 835.1875 583 C 835.0625 571.125 834.9375 564.25 831.3125 559 C 827.6875 553.875 822.4375 552.25 816.9375 552.25 C 807.8125 552.25 800.6875 556.625 795.6875 559.625 L 796.0625 521.125 L 795.3125 520.25 L 773.9375 523.625 L 773.3125 524.375 C 774.4375 536.5 774.6875 541 774.9375 557.125 C 775.1875 567.25 775.3125 577.375 775.3125 587.5 C 775.3125 599.875 775.0625 607.25 774.8125 619.5 L 775.4375 620.375 C 784.6875 619.875 786.5625 619.875 796.6875 619.875 L 797.4375 619.125 C 796.5625 600.375 796.4375 594.75 796.3125 572.625 C 798.6875 571 801.6875 568.875 805.9375 568.875 C 812.8125 568.875 813.3125 576 813.8125 581 C 814.0625 584.875 814.1875 602.625 814.1875 607.25 C 814.1875 611.375 814.0625 615.375 814.0625 619.5 L 814.6875 620.375 C 823.6875 619.875 825.6875 619.875 835.3125 619.875 Z M 842.8125 620 "/>
<path fill-rule="nonzero" fill="rgb(34.901961%, 14.901961%, 14.901961%)" fill-opacity="1" d="M 140.9375 716.25 C 130.4375 711.875 124.9375 709.625 124.9375 704 C 124.9375 700.125 128.5625 695.25 136.8125 695.25 C 146.3125 695.25 151.9375 699.125 156.5625 702.25 L 157.6875 701.75 L 158.6875 685.375 L 158.0625 684.5 C 152.6875 682.25 147.0625 679.875 134.9375 679.875 C 111.4375 679.875 103.3125 693.125 103.3125 706.5 C 103.3125 721.625 115.0625 727.125 122.0625 730.5 L 126.1875 732.375 C 134.8125 736 141.4375 739.125 141.4375 745.75 C 141.4375 750.5 137.3125 756.125 126.4375 756.125 C 115.0625 756.125 108.6875 751.125 105.0625 748.25 L 103.8125 748.625 L 102.9375 766.25 L 103.6875 767.25 C 105.0625 767.75 106.4375 768.375 107.8125 768.75 C 110.6875 769.75 118.0625 771.875 127.4375 771.875 C 131.1875 771.875 140.6875 771.5 148.1875 768 C 158.6875 762.875 163.1875 753.375 163.1875 742.75 C 163.1875 735.625 160.4375 728 153.8125 722.875 C 150.4375 720.375 147.1875 718.875 144.1875 717.5 Z M 210.0625 755.625 C 207.9375 756.25 206.4375 756.75 204.3125 756.75 C 197.9375 756.75 197.4375 752.75 197.1875 750.875 C 196.8125 747.625 196.8125 740.75 196.9375 735.75 L 197.1875 718.125 L 208.4375 718.625 L 209.1875 717.875 L 210.4375 704.5 L 209.6875 703.75 L 197.1875 703.75 L 197.5625 682.75 L 196.6875 682 C 188.1875 684.5 185.9375 685.125 177.0625 687.375 L 176.5625 688.25 L 176.6875 703.875 L 169.9375 703.625 L 169.1875 704.25 L 168.0625 717.625 L 168.8125 718.375 L 176.6875 718.125 L 176.3125 738 C 176.1875 741.125 176.0625 744.25 176.0625 747.5 C 176.0625 759 176.3125 771.375 195.8125 771.375 C 200.6875 771.375 204.5625 770.625 208.9375 769.875 L 209.8125 769 L 211.0625 756.125 Z M 274.9375 732.75 C 275.0625 721.5 275.0625 716.625 271.8125 711.375 C 269.3125 707.375 264.3125 702.375 248.3125 702.375 C 237.5625 702.375 230.9375 704.375 223.8125 706.5 L 223.0625 707.5 L 222.4375 721.125 L 223.4375 721.625 C 227.8125 719.875 235.9375 716.625 244.3125 716.625 C 248.9375 716.625 250.8125 717.375 252.4375 719 C 253.6875 720.25 254.0625 722.5 254.0625 724.375 C 239.0625 726.375 232.0625 727.75 224.5625 732.375 C 217.5625 736.75 215.1875 743.875 215.1875 749.5 C 215.1875 762.875 224.8125 771.5 237.0625 771.5 C 246.4375 771.5 251.8125 767 254.4375 764.875 L 254.4375 769.5 L 255.1875 770.375 C 264.1875 770 266.9375 769.875 275.0625 770 L 275.6875 769.125 C 274.8125 756.875 274.8125 753.75 274.8125 742 L 274.9375 732.75 M 254.3125 752.625 C 251.6875 754.125 248.3125 755.875 244.1875 755.875 C 239.6875 755.875 235.9375 753.5 235.9375 748.25 C 235.9375 740 245.8125 738.625 254.3125 737.5 Z M 324.5625 755.625 C 322.4375 756.25 320.9375 756.75 318.8125 756.75 C 312.4375 756.75 311.9375 752.75 311.6875 750.875 C 311.3125 747.625 311.3125 740.75 311.4375 735.75 L 311.6875 718.125 L 322.9375 718.625 L 323.6875 717.875 L 324.9375 704.5 L 324.1875 703.75 L 311.6875 703.75 L 312.0625 682.75 L 311.1875 682 C 302.6875 684.5 300.4375 685.125 291.5625 687.375 L 291.0625 688.25 L 291.1875 703.875 L 284.4375 703.625 L 283.6875 704.25 L 282.5625 717.625 L 283.3125 718.375 L 291.1875 718.125 L 290.8125 738 C 290.6875 741.125 290.5625 744.25 290.5625 747.5 C 290.5625 759 290.8125 771.375 310.3125 771.375 C 315.1875 771.375 319.0625 770.625 323.4375 769.875 L 324.3125 769 L 325.5625 756.125 Z M 389.3125 751.5 C 384.5625 754 378.9375 756.875 369.8125 756.875 C 362.3125 756.875 357.1875 754.5 354.1875 750 C 352.3125 747.375 351.9375 744.875 351.4375 742.375 L 391.8125 741.625 L 392.5625 740.75 C 392.4375 734.625 392.3125 728.375 390.5625 722.125 C 386.1875 707.375 376.5625 704.375 372.3125 703.375 C 369.1875 702.5 366.3125 702.25 363.4375 702.25 C 343.8125 702.25 330.8125 715.125 330.8125 736.75 C 330.8125 742.625 331.8125 748.75 333.8125 753.125 C 341.0625 770 358.0625 771.5 367.0625 771.5 C 377.4375 771.5 381.9375 769.625 388.5625 767 L 389.3125 766 L 390.1875 751.875 L 389.3125 751.5 M 351.4375 729.125 C 351.8125 725.25 352.6875 720 357.4375 717 C 358.9375 716 360.6875 715.625 362.4375 715.625 C 366.5625 715.625 369.0625 717.75 370.4375 720 C 372.1875 722.75 372.3125 725.75 372.3125 728.625 Z M 515.4375 681.375 C 505.4375 681.75 503.8125 681.75 493.3125 681.75 L 492.6875 682.5 C 493.5625 696.625 493.5625 700.25 493.6875 715 C 488.1875 715.125 482.6875 715.25 477.0625 715.25 C 472.6875 715.25 468.1875 715.125 463.8125 715.125 L 464.0625 682.125 L 463.4375 681.375 C 453.8125 681.75 451.9375 681.75 441.0625 681.75 L 440.3125 682.5 C 440.9375 695.375 441.6875 710.75 441.6875 741.75 C 441.6875 753 441.4375 759.125 441.1875 769.625 L 441.8125 770.375 C 450.9375 770 453.1875 769.875 464.1875 770 L 464.8125 769.25 C 464.0625 753.75 463.9375 749.25 463.8125 731.125 C 469.3125 730.875 473.9375 730.75 478.8125 730.75 C 483.8125 730.75 488.8125 730.875 493.8125 731 C 494.0625 747.875 494.0625 752 493.4375 769.625 L 494.0625 770.375 C 503.4375 770 505.9375 769.875 516.5625 770 L 517.1875 769.25 C 516.1875 748.25 515.8125 727.375 515.8125 706.375 C 515.8125 697.625 515.9375 691.75 516.0625 682.125 Z M 554.3125 769.125 C 553.6875 759.5 553.1875 752.125 553.1875 734.875 C 553.1875 724.25 553.4375 713.5 553.5625 702.875 L 552.6875 701.875 L 531.1875 705.625 L 530.4375 706.375 C 531.4375 715.875 531.8125 720.25 531.8125 738 C 531.8125 751.625 531.4375 759.25 531.0625 769.5 L 531.8125 770.375 C 540.8125 770 543.3125 769.875 553.4375 770 L 554.3125 769.125 M 552.3125 689.875 L 552.6875 672.875 L 551.9375 672.125 L 531.5625 674.625 L 530.8125 675.5 C 531.0625 680 531.1875 682.625 531.1875 685.625 C 531.1875 688 531.1875 690.5 531.0625 692.875 L 531.9375 693.625 C 540.4375 692.125 542.8125 691.875 551.6875 690.75 Z M 594.4375 726.875 C 590.1875 725.375 586.8125 724 586.8125 720.5 C 586.8125 719 587.8125 714.875 595.5625 714.875 C 603.1875 714.875 608.0625 718.125 611.1875 720.125 L 612.3125 719.75 L 613.5625 706.125 L 612.9375 705.375 C 607.0625 703.75 601.9375 702.25 593.8125 702.25 C 587.6875 702.25 575.4375 702.75 568.9375 712.125 C 567.3125 714.375 565.5625 718.125 565.5625 723.125 C 565.5625 736.5 575.9375 740.5 581.8125 742.75 L 586.5625 744.5 C 589.9375 745.625 595.4375 747.5 595.4375 752 C 595.4375 755.125 592.5625 758.5 585.5625 758.5 C 582.0625 758.5 576.9375 757.375 572.3125 755 C 570.1875 753.875 569.1875 753 567.3125 751.5 L 566.1875 752 C 565.9375 758.5 565.8125 759.875 565.3125 766.125 L 565.9375 767.25 C 572.0625 769.5 577.3125 771.5 586.4375 771.5 C 595.9375 771.5 614.6875 769.75 616.9375 751.875 C 617.0625 750.875 617.0625 750 617.0625 749.125 C 617.0625 735.375 607.4375 731.75 600.5625 729.125 Z M 663.0625 755.625 C 660.9375 756.25 659.4375 756.75 657.3125 756.75 C 650.9375 756.75 650.4375 752.75 650.1875 750.875 C 649.8125 747.625 649.8125 740.75 649.9375 735.75 L 650.1875 718.125 L 661.4375 718.625 L 662.1875 717.875 L 663.4375 704.5 L 662.6875 703.75 L 650.1875 703.75 L 650.5625 682.75 L 649.6875 682 C 641.1875 684.5 638.9375 685.125 630.0625 687.375 L 629.5625 688.25 L 629.6875 703.875 L 622.9375 703.625 L 622.1875 704.25 L 621.0625 717.625 L 621.8125 718.375 L 629.6875 718.125 L 629.3125 738 C 629.1875 741.125 629.0625 744.25 629.0625 747.5 C 629.0625 759 629.3125 771.375 648.8125 771.375 C 653.6875 771.375 657.5625 770.625 661.9375 769.875 L 662.8125 769 L 664.0625 756.125 Z M 735.9375 736.75 C 735.9375 731.875 735.9375 711.625 718.4375 704.75 C 712.9375 702.625 706.4375 702.375 703.1875 702.375 C 681.4375 702.375 669.1875 714 669.1875 737 C 669.1875 745 670.4375 753.125 675.0625 759.875 C 678.3125 764.75 684.4375 771.5 702.3125 771.5 C 728.8125 771.5 735.9375 755.5 735.9375 736.75 M 714.3125 736.625 C 714.3125 746.875 712.9375 758.25 702.5625 758.25 C 699.3125 758.25 697.0625 756.75 695.5625 755.375 C 693.4375 753.25 691.0625 749 691.0625 736.875 C 691.0625 733.25 691.0625 725.25 693.5625 720.875 C 695.4375 717.5 698.6875 715.25 702.6875 715.25 C 706.1875 715.25 709.0625 717.125 710.6875 719.125 C 713.6875 722.75 714.3125 729.875 714.3125 736.625 Z M 783.9375 723.625 L 787.4375 703.25 L 786.6875 702.375 C 785.8125 702.375 784.9375 702.25 784.0625 702.25 C 778.9375 702.25 773.1875 705.125 769.1875 714.375 L 769.5625 702.875 L 768.5625 701.875 C 759.3125 703.875 756.9375 704.25 747.8125 705.625 L 747.0625 706.375 C 747.8125 715.75 748.1875 721.375 748.1875 738.75 C 748.1875 749 748.0625 759.25 747.8125 769.625 L 748.5625 770.375 C 757.8125 770 759.8125 769.875 769.8125 770 L 770.4375 769.125 C 769.9375 759 769.1875 744.875 769.1875 736.25 C 769.1875 730.625 769.1875 722.375 777.6875 722.375 C 779.8125 722.375 781.0625 723.125 782.8125 724.125 Z M 817.3125 769.125 C 816.6875 759.5 816.1875 752.125 816.1875 734.875 C 816.1875 724.25 816.4375 713.5 816.5625 702.875 L 815.6875 701.875 L 794.1875 705.625 L 793.4375 706.375 C 794.4375 715.875 794.8125 720.25 794.8125 738 C 794.8125 751.625 794.4375 759.25 794.0625 769.5 L 794.8125 770.375 C 803.8125 770 806.3125 769.875 816.4375 770 L 817.3125 769.125 M 815.3125 689.875 L 815.6875 672.875 L 814.9375 672.125 L 794.5625 674.625 L 793.8125 675.5 C 794.0625 680 794.1875 682.625 794.1875 685.625 C 794.1875 688 794.1875 690.5 794.0625 692.875 L 794.9375 693.625 C 803.4375 692.125 805.8125 691.875 814.6875 690.75 Z M 880.0625 752 C 876.6875 754 873.4375 756 867.0625 756 C 852.9375 756 850.0625 744.25 850.0625 736.75 C 850.0625 727.625 854.0625 717.125 866.1875 717.125 C 871.6875 717.125 874.6875 719.125 878.4375 721.625 L 879.6875 721.25 C 880.1875 714.625 880.3125 712.875 881.3125 706.25 L 880.6875 705.5 C 875.1875 703.75 870.4375 702.25 863.1875 702.25 C 833.8125 702.25 828.0625 724.5 828.0625 737.25 C 828.0625 751.625 835.5625 771.125 863.6875 771.125 C 870.3125 771.125 874.5625 769.875 879.8125 768.375 L 880.5625 767.625 L 881.0625 752.625 Z M 883.5625 770 "/>
<path fill-rule="nonzero" fill="rgb(34.901961%, 14.901961%, 14.901961%)" fill-opacity="1" d="M 382.375 831.5 L 366.5 831.75 L 365.75 832.5 C 366.25 848.75 366.625 859.625 366.625 874 C 366.625 889.25 366.25 904.375 365.875 919.625 L 366.625 920.375 C 375.875 920 377.875 919.875 387.875 920 L 388.5 919.25 C 388 905.625 388 902.5 388 889.75 C 402 889.875 417 889.875 426 878.875 C 429.5 874.625 432.5 867.5 432.5 858.75 C 432.5 853.375 431.25 841.5 420.875 835.625 C 413.375 831.25 402.75 831.25 393.375 831.25 L 382.375 831.5 M 388 846.625 C 390.75 846.5 393.375 846.5 396.125 846.5 C 407.125 846.75 410.125 852.375 410.125 859.625 C 410.125 861.375 410.125 868.625 403.5 872.25 C 400.125 874.125 395.5 874.375 388 874.375 Z M 496.75 882.75 C 496.875 871.5 496.875 866.625 493.625 861.375 C 491.125 857.375 486.125 852.375 470.125 852.375 C 459.375 852.375 452.75 854.375 445.625 856.5 L 444.875 857.5 L 444.25 871.125 L 445.25 871.625 C 449.625 869.875 457.75 866.625 466.125 866.625 C 470.75 866.625 472.625 867.375 474.25 869 C 475.5 870.25 475.875 872.5 475.875 874.375 C 460.875 876.375 453.875 877.75 446.375 882.375 C 439.375 886.75 437 893.875 437 899.5 C 437 912.875 446.625 921.5 458.875 921.5 C 468.25 921.5 473.625 917 476.25 914.875 L 476.25 919.5 L 477 920.375 C 486 920 488.75 919.875 496.875 920 L 497.5 919.125 C 496.625 906.875 496.625 903.75 496.625 892 L 496.75 882.75 M 476.125 902.625 C 473.5 904.125 470.125 905.875 466 905.875 C 461.5 905.875 457.75 903.5 457.75 898.25 C 457.75 890 467.625 888.625 476.125 887.5 Z M 547.5 873.625 L 551 853.25 L 550.25 852.375 C 549.375 852.375 548.5 852.25 547.625 852.25 C 542.5 852.25 536.75 855.125 532.75 864.375 L 533.125 852.875 L 532.125 851.875 C 522.875 853.875 520.5 854.25 511.375 855.625 L 510.625 856.375 C 511.375 865.75 511.75 871.375 511.75 888.75 C 511.75 899 511.625 909.25 511.375 919.625 L 512.125 920.375 C 521.375 920 523.375 919.875 533.375 920 L 534 919.125 C 533.5 909 532.75 894.875 532.75 886.25 C 532.75 880.625 532.75 872.375 541.25 872.375 C 543.375 872.375 544.625 873.125 546.375 874.125 Z M 622.5 918.375 C 610.75 898.5 609.5 896.25 600 879.125 C 608.625 867.375 609.5 866.125 618.375 854.75 L 617.75 853.5 L 597.375 853.75 L 596.125 854.625 C 586.375 871.5 585.125 873.5 579.375 882.125 L 579.375 868.25 C 579.5 844.875 579.625 839.875 580.25 821 L 579.25 820.25 L 557.5 823.5 L 556.75 824.375 C 557.625 836.5 558 842.375 558.25 858.75 C 558.5 879 558.5 899.25 558.375 919.5 L 559.25 920.375 C 567.625 920 570 920 579.5 920 L 580.25 919.125 L 579.5 898 L 579.375 883.625 C 590.25 903.625 591.625 906.375 598 919.625 L 599.125 920.375 L 621.625 919.5 Z M 621 920 "/>
</svg>
