<svg xmlns="http://www.w3.org/2000/svg" width="612" height="817" viewBox="0 0 612 817">
  <defs>
    <style>
      .cls-1 {
        fill: #592626;
        fill-rule: evenodd;
      }
    </style>
  </defs>
  <path id="Fort_Tejon_State_Historic_Park" data-name="Fort Tejon State Historic Park" class="cls-1" d="M57.921,368.667l0.544-.467,0.622-9.1-0.389-.467-17.732.622V346.268L60.02,346.5l0.467-.544,0.856-9.644-0.467-.389c-12.833.233-16.955,0.233-33.754,0.156l-0.467.466c0.467,7.622.778,13.766,0.778,27.532,0,8.944-.156,17.888-0.311,26.832l0.389,0.389c5.678-.233,7-0.233,13.844-0.233l0.389-.467c-0.544-8.944-.622-11.666-0.855-21.932H57.921Zm47.367,1.711c0-3.033,0-15.633-10.889-19.91a27.958,27.958,0,0,0-9.488-1.478c-13.533,0-21.155,7.233-21.155,21.543,0,4.978.778,10.033,3.655,14.233C69.433,387.8,73.244,392,84.366,392,100.854,392,105.287,382.044,105.287,370.378ZM91.832,370.3c0,6.378-.856,13.455-7.311,13.455a6.289,6.289,0,0,1-4.355-1.789c-1.322-1.322-2.8-3.966-2.8-11.51,0-2.256,0-7.233,1.556-9.955A6.441,6.441,0,0,1,84.6,357a6.538,6.538,0,0,1,4.978,2.411C91.443,361.667,91.832,366.1,91.832,370.3Zm43.322-8.088,2.178-12.678-0.467-.544c-0.544,0-1.089-.078-1.633-0.078-3.189,0-6.766,1.789-9.255,7.544l0.233-7.155-0.622-.622c-5.755,1.244-7.233,1.478-12.91,2.333l-0.467.467c0.467,5.833.7,9.333,0.7,20.143,0,6.378-.078,12.755-0.233,19.21l0.466,0.467c5.755-.233,7-0.311,13.222-0.233l0.389-.545c-0.311-6.3-.778-15.088-0.778-20.454,0-3.5,0-8.633,5.289-8.633a5.822,5.822,0,0,1,3.188,1.089Zm30.1,19.91a11.669,11.669,0,0,1-3.577.7c-3.967,0-4.278-2.489-4.433-3.656a88.86,88.86,0,0,1-.156-9.41l0.156-10.966,7,0.311,0.467-.467,0.778-8.322-0.467-.466h-7.777l0.233-13.066-0.545-.467c-5.288,1.555-6.688,1.944-12.21,3.344l-0.311.545,0.078,9.721-4.2-.155-0.467.389-0.7,8.321,0.467,0.467,4.9-.155-0.234,12.366c-0.077,1.944-.155,3.888-0.155,5.91,0,7.156.155,14.855,12.288,14.855a45.17,45.17,0,0,0,8.166-.933l0.545-.544,0.777-8.011Zm63-35.7,0.466-.388,0.545-9.722-0.389-.233h-38.5l-0.545.466-0.544,9.566,0.389,0.467,12.677-.311c0.078,20.377.078,25.277-.545,44.564l0.467,0.467c5.755-.233,7.311-0.311,13.766-0.311l0.467-.467c-0.389-10.888-.545-21.776-0.545-32.742,0-4.278.078-6.689,0.234-11.667ZM262.4,379.555a23.763,23.763,0,0,1-12.133,3.345c-4.666,0-7.855-1.478-9.721-4.278a11,11,0,0,1-1.711-4.744l25.121-.467,0.466-.544a45.605,45.605,0,0,0-1.244-11.589c-2.722-9.177-8.711-11.044-11.355-11.666a19.938,19.938,0,0,0-5.522-.7c-12.211,0-20.3,8.011-20.3,21.466a25.891,25.891,0,0,0,1.866,10.188c4.511,10.5,15.089,11.433,20.688,11.433,6.456,0,9.255-1.167,13.377-2.8l0.467-.622,0.545-8.788Zm-23.565-13.921c0.233-2.411.777-5.678,3.733-7.544a5.968,5.968,0,0,1,8.088,1.866,9.5,9.5,0,0,1,1.167,5.367Zm45.577-16.955c-5.755,1.167-6.922,1.4-13.221,2.333l-0.467.467c0.622,8.088.933,18.121,1.011,24.81,0.078,2.644.233,11.821,0.233,14.077,0,6.222-.777,9.877-7.155,11.2l-0.389.622,2.022,8.089,0.545,0.311c2.955-.622,10.422-2.178,15.01-8.166,3.189-4.278,3.267-8.711,3.111-14.855l-0.078-5.444q-0.232-7.584-.233-15.166c0-5.833.156-11.588,0.233-17.577Zm0.311-7.233V330.791l-0.466-.545-12.6,1.556-0.544.544L271.344,343l0.545,0.389c5.755-.777,7.466-1.011,12.366-1.555Zm49.155,28.932c0-3.033,0-15.633-10.889-19.91a27.956,27.956,0,0,0-9.488-1.478c-13.533,0-21.155,7.233-21.155,21.543,0,4.978.778,10.033,3.656,14.233,2.022,3.033,5.833,7.233,16.954,7.233C329.443,392,333.876,382.044,333.876,370.378Zm-13.455-.078c0,6.378-.856,13.455-7.311,13.455a6.288,6.288,0,0,1-4.355-1.789c-1.323-1.322-2.8-3.966-2.8-11.51,0-2.256,0-7.233,1.555-9.955a6.442,6.442,0,0,1,5.678-3.5,6.538,6.538,0,0,1,4.977,2.411C320.032,361.667,320.421,366.1,320.421,370.3Zm58.955,20.221c-0.389-6.844-.389-9.021-0.545-16.643v-6.067c-0.077-7.466-.155-11.044-2.1-14.232-2.411-4.045-6.844-4.667-9.644-4.667-4.744,0-8.866,2.489-12.443,4.589l0.155-4.278-0.778-.544c-5.988,1.244-7.31,1.478-13.143,2.255l-0.467.545a216.367,216.367,0,0,1,1.089,24.343c0,4.978-.078,9.955-0.156,14.933l0.467,0.466c5.6-.233,6.766-0.233,12.988-0.233l0.467-.467c-0.467-11.977-.545-15.01-0.622-28.932,1.633-1.088,3.5-2.411,5.988-2.411,4.278,0,4.667,4.589,4.9,7.389,0.155,2.567.233,13.222,0.233,16.177,0,2.644-.078,5.366-0.078,8.011l0.467,0.466c5.133-.155,6.455-0.233,12.677-0.233Zm54.056-32.9c-6.533-2.722-9.955-4.122-9.955-7.622,0-2.411,2.255-5.444,7.388-5.444,5.911,0,9.411,2.411,12.289,4.355l0.7-.311,0.622-10.188-0.389-.545a31.857,31.857,0,0,0-14.388-2.877c-14.622,0-19.677,8.244-19.677,16.566,0,9.41,7.311,12.832,11.666,14.932l2.567,1.167c5.366,2.255,9.488,4.2,9.488,8.322,0,2.955-2.566,6.455-9.333,6.455a19.839,19.839,0,0,1-13.3-4.9l-0.778.233-0.544,10.967,0.466,0.622c0.856,0.311,1.711.7,2.567,0.933a38.745,38.745,0,0,0,12.21,1.944c2.334,0,8.244-.233,12.911-2.411,6.533-3.188,9.333-9.1,9.333-15.71a15.415,15.415,0,0,0-5.833-12.366,31.446,31.446,0,0,0-5.989-3.344Zm43.011,24.5a11.669,11.669,0,0,1-3.577.7c-3.967,0-4.278-2.489-4.434-3.656a89.161,89.161,0,0,1-.155-9.41l0.155-10.966,7,0.311,0.467-.467,0.778-8.322-0.467-.466h-7.778l0.234-13.066-0.545-.467c-5.288,1.555-6.688,1.944-12.21,3.344l-0.311.545,0.077,9.721-4.2-.155-0.467.389-0.7,8.321,0.467,0.467,4.9-.155-0.233,12.366c-0.078,1.944-.155,3.888-0.155,5.91,0,7.156.155,14.855,12.288,14.855a45.17,45.17,0,0,0,8.166-.933l0.545-.544,0.777-8.011Zm40.366-14.233c0.078-7,.078-10.033-1.944-13.3-1.556-2.489-4.667-5.6-14.622-5.6A47.306,47.306,0,0,0,485,351.557l-0.467.622-0.389,8.477,0.622,0.311c2.722-1.089,7.778-3.111,12.989-3.111,2.877,0,4.044.467,5.055,1.478a4.9,4.9,0,0,1,1.011,3.344c-9.333,1.245-13.688,2.1-18.355,4.978a12.437,12.437,0,0,0-5.833,10.655c0,8.322,5.989,13.688,13.611,13.688a16.079,16.079,0,0,0,10.81-4.122v2.878l0.467,0.544c5.6-.233,7.311-0.311,12.366-0.233l0.389-.545c-0.545-7.621-.545-9.566-0.545-16.877Zm-12.832,12.366a12.6,12.6,0,0,1-6.3,2.022c-2.8,0-5.133-1.477-5.133-4.744,0-5.133,6.144-5.988,11.433-6.688v9.41Zm43.711,1.867a11.68,11.68,0,0,1-3.578.7c-3.967,0-4.278-2.489-4.433-3.656a88.86,88.86,0,0,1-.156-9.41l0.156-10.966,7,0.311,0.466-.467,0.778-8.322-0.467-.466h-7.777l0.233-13.066-0.544-.467c-5.289,1.555-6.689,1.944-12.211,3.344l-0.311.545,0.078,9.721-4.2-.155-0.467.389-0.7,8.321,0.467,0.467,4.9-.155-0.233,12.366c-0.078,1.944-.156,3.888-0.156,5.91,0,7.156.156,14.855,12.288,14.855a45.181,45.181,0,0,0,8.167-.933l0.544-.544,0.778-8.011Zm38.732-2.567a23.761,23.761,0,0,1-12.132,3.345c-4.667,0-7.856-1.478-9.722-4.278a11,11,0,0,1-1.711-4.744l25.121-.467,0.466-.544a45.56,45.56,0,0,0-1.244-11.589c-2.722-9.177-8.711-11.044-11.355-11.666a19.933,19.933,0,0,0-5.522-.7c-12.21,0-20.3,8.011-20.3,21.466a25.873,25.873,0,0,0,1.867,10.188C556.4,391.066,566.977,392,572.577,392c6.455,0,9.255-1.167,13.377-2.8l0.466-.622,0.545-8.788Zm-23.565-13.921c0.233-2.411.778-5.678,3.733-7.544a5.968,5.968,0,0,1,8.088,1.866,9.5,9.5,0,0,1,1.167,5.367ZM125.236,429.257c-6.221.234-7.233,0.234-13.766,0.234l-0.388.466c0.544,8.789.544,11.044,0.622,20.222-3.422.077-6.844,0.155-10.344,0.155-2.722,0-5.522-.078-8.244-0.078l0.156-20.532-0.389-.467c-5.989.234-7.155,0.234-13.922,0.234l-0.467.466c0.389,8.011.856,17.577,0.856,36.865,0,7-.156,10.811-0.311,17.344l0.389,0.466c5.678-.233,7.078-0.311,13.922-0.233l0.389-.467c-0.467-9.644-.544-12.443-0.622-23.721,3.422-.155,6.3-0.233,9.333-0.233,3.111,0,6.222.078,9.333,0.156,0.155,10.5.155,13.066-.234,24.032l0.389,0.466c5.833-.233,7.389-0.311,14-0.233l0.389-.467c-0.622-13.066-.855-26.054-0.855-39.12,0-5.444.078-9.1,0.155-15.088Zm24.191,54.6c-0.389-5.989-.7-10.578-0.7-21.31,0-6.611.155-13.3,0.233-19.911l-0.544-.622-13.377,2.333-0.467.467c0.622,5.911.856,8.633,0.856,19.677,0,8.477-.234,13.222-0.467,19.6l0.467,0.544c5.6-.233,7.155-0.311,13.454-0.233Zm-1.244-49.309,0.233-10.577-0.467-.467-12.677,1.556-0.467.544c0.156,2.8.234,4.433,0.234,6.3,0,1.477,0,3.033-.078,4.511l0.544,0.466c5.289-.933,6.767-1.089,12.289-1.789Zm26.21,23.021c-2.644-.933-4.744-1.789-4.744-3.966,0-.934.622-3.5,5.444-3.5a16.876,16.876,0,0,1,9.722,3.266l0.7-.233,0.778-8.477-0.389-.467a39.608,39.608,0,0,0-11.9-1.944c-3.811,0-11.433.311-15.477,6.144a11.684,11.684,0,0,0-2.1,6.844c0,8.322,6.455,10.81,10.11,12.21l2.956,1.089c2.1,0.7,5.522,1.867,5.522,4.667,0,1.944-1.789,4.044-6.145,4.044a19.461,19.461,0,0,1-8.244-2.178,17.23,17.23,0,0,1-3.111-2.177l-0.7.311c-0.156,4.044-.234,4.9-0.545,8.788l0.389,0.7c3.811,1.4,7.077,2.644,12.755,2.644,5.911,0,17.577-1.088,18.977-12.21a13.146,13.146,0,0,0,.078-1.711c0-8.555-5.989-10.811-10.267-12.444Zm42.7,17.888a11.669,11.669,0,0,1-3.577.7c-3.967,0-4.278-2.489-4.434-3.655a89.18,89.18,0,0,1-.155-9.411l0.155-10.966,7,0.311,0.467-.467,0.778-8.321-0.467-.467h-7.778l0.234-13.066-0.545-.467c-5.288,1.556-6.688,1.945-12.21,3.344l-0.311.545,0.078,9.722-4.2-.156-0.467.389-0.7,8.322,0.467,0.466,4.9-.155-0.234,12.366c-0.078,1.944-.155,3.889-0.155,5.911,0,7.155.155,14.855,12.288,14.855a45.168,45.168,0,0,0,8.166-.934l0.545-.544,0.777-8.011Zm45.344-11.744c0-3.033,0-15.632-10.889-19.91a27.956,27.956,0,0,0-9.488-1.478c-13.533,0-21.155,7.233-21.155,21.544,0,4.977.778,10.033,3.656,14.232,2.022,3.034,5.833,7.233,16.955,7.233C258,485.332,262.437,475.377,262.437,463.711Zm-13.455-.078c0,6.378-.856,13.455-7.311,13.455a6.292,6.292,0,0,1-4.355-1.788c-1.322-1.323-2.8-3.967-2.8-11.511,0-2.255,0-7.233,1.555-9.955a6.442,6.442,0,0,1,5.678-3.5,6.539,6.539,0,0,1,4.977,2.411C248.593,455,248.982,459.434,248.982,463.633Zm43.322-8.088,2.178-12.677-0.467-.545c-0.544,0-1.089-.077-1.633-0.077-3.189,0-6.766,1.788-9.255,7.544l0.233-7.156-0.622-.622c-5.755,1.245-7.233,1.478-12.91,2.333l-0.467.467c0.467,5.833.7,9.333,0.7,20.144,0,6.377-.078,12.755-0.233,19.21l0.466,0.466c5.755-.233,7-0.311,13.222-0.233l0.389-.544c-0.311-6.3-.778-15.088-0.778-20.455,0-3.5,0-8.633,5.289-8.633a5.822,5.822,0,0,1,3.188,1.089Zm20.767,28.31c-0.389-5.989-.7-10.578-0.7-21.31,0-6.611.156-13.3,0.234-19.911l-0.545-.622-13.377,2.333-0.467.467c0.623,5.911.856,8.633,0.856,19.677,0,8.477-.233,13.222-0.467,19.6l0.467,0.544c5.6-.233,7.155-0.311,13.455-0.233Zm-1.244-49.309,0.233-10.577-0.466-.467-12.678,1.556-0.466.544c0.155,2.8.233,4.433,0.233,6.3,0,1.477,0,3.033-.078,4.511l0.545,0.466c5.288-.933,6.766-1.089,12.288-1.789ZM352.115,473.2a13.856,13.856,0,0,1-8.089,2.488c-8.788,0-10.577-7.31-10.577-11.977,0-5.677,2.489-12.21,10.033-12.21,3.422,0,5.289,1.244,7.622,2.8l0.778-.234c0.311-4.122.389-5.211,1.011-9.333l-0.389-.466a32.334,32.334,0,0,0-10.889-2.022c-18.276,0-21.854,13.843-21.854,21.776,0,8.944,4.666,21.077,22.166,21.077a32.575,32.575,0,0,0,10.032-1.711l0.467-.467,0.311-9.332Zm39.979-43.865-9.878.156-0.466.466c0.311,10.111.544,16.877,0.544,25.821,0,9.489-.233,18.9-0.466,28.388l0.466,0.466c5.755-.233,7-0.311,13.222-0.233l0.389-.467c-0.311-8.477-.311-10.421-0.311-18.354,8.71,0.078,18.043.078,23.643-6.767a19.985,19.985,0,0,0,4.044-12.521c0-3.344-.778-10.733-7.233-14.388-4.666-2.722-11.277-2.722-17.11-2.722Zm3.5,9.411c1.711-.078,3.344-0.078,5.055-0.078,6.844,0.156,8.711,3.655,8.711,8.166,0,1.089,0,5.6-4.122,7.855-2.1,1.167-4.978,1.323-9.644,1.323V438.746Zm66.11,22.476c0.077-7,.077-10.032-1.945-13.3-1.555-2.489-4.666-5.6-14.621-5.6a47.335,47.335,0,0,0-15.244,2.567l-0.467.622-0.388,8.477,0.622,0.312c2.722-1.089,7.777-3.111,12.988-3.111,2.878,0,4.044.466,5.055,1.477a4.9,4.9,0,0,1,1.011,3.345c-9.332,1.244-13.688,2.1-18.354,4.977a12.435,12.435,0,0,0-5.833,10.655c0,8.322,5.988,13.688,13.61,13.688a16.079,16.079,0,0,0,10.811-4.122v2.878l0.466,0.544c5.6-.233,7.311-0.311,12.366-0.233l0.389-.544c-0.544-7.622-.544-9.567-0.544-16.877Zm-12.833,12.367a12.6,12.6,0,0,1-6.3,2.022c-2.8,0-5.133-1.478-5.133-4.745,0-5.133,6.144-5.988,11.433-6.688v9.411Zm44.411-18.044,2.178-12.677-0.467-.545c-0.544,0-1.089-.077-1.633-0.077-3.189,0-6.767,1.788-9.255,7.544l0.233-7.156-0.622-.622c-5.755,1.245-7.233,1.478-12.911,2.333l-0.466.467c0.466,5.833.7,9.333,0.7,20.144,0,6.377-.078,12.755-0.234,19.21l0.467,0.466c5.755-.233,7-0.311,13.222-0.233l0.388-.544c-0.311-6.3-.777-15.088-0.777-20.455,0-3.5,0-8.633,5.288-8.633a5.826,5.826,0,0,1,3.189,1.089Zm46.666,27.843c-7.311-12.366-8.089-13.766-14-24.421,5.366-7.311,5.91-8.088,11.432-15.166l-0.389-.778-12.677.156-0.777.544c-6.067,10.5-6.845,11.744-10.422,17.111V452.2c0.078-14.544.155-17.655,0.544-29.4l-0.622-.467-13.533,2.023-0.466.544c0.544,7.544.777,11.2,0.933,21.388,0.156,12.6.156,25.2,0.078,37.8l0.544,0.544c5.211-.233,6.689-0.233,12.6-0.233l0.466-.544-0.466-13.144-0.078-8.944c6.766,12.444,7.622,14.155,11.588,22.4l0.7,0.466,14-.544Z"/>
</svg>
