<svg xmlns="http://www.w3.org/2000/svg" width="612" height="817" viewBox="0 0 612 817">
  <defs>
    <style>
      .cls-1 {
        fill: #592626;
        fill-rule: evenodd;
      }
    </style>
  </defs>
  <path id="Wassama_Round_House_State_Historic_Park" data-name="Wassama Round House State Historic Park" class="cls-1" d="M195.158,297.6c2.878-14.155,4.122-20.066,12.366-54.208l-0.389-.467c-5.522.233-6.61,0.233-11.821,0.233l-0.467.467c-1.244,8.011-1.633,10.733-3.344,19.677l-2.256,11.9-2.488,13.377c-1.167-8.71-1.556-11.355-3.111-20.376l-2.256-13.066-1.944-11.978-0.467-.544-15.4.389-0.467.466L160,261.356,156.971,277.3l-1.944,10.733c-0.934-6.766-1.245-9.022-2.878-18.433l-2.022-11.355-2.567-15.4-0.466-.389c-6.689.467-7.778,0.467-13.455,0.623l-0.389.544c5.678,25.743,6.922,31.654,11.122,54.208l0.466,0.467c7.856-.311,9.955-0.311,17.577-0.233l0.545-.467,1.633-9.644,2.567-14.232,2.8-16.644c0.934,7.622,1.167,9.566,2.567,17.966l1.944,12.132,1.634,10.655,0.388,0.467c7.467-.233,10.033-0.311,18.277-0.233Zm47.835-22.71c0.077-7,.077-10.033-1.945-13.3-1.555-2.489-4.666-5.6-14.621-5.6a47.308,47.308,0,0,0-15.244,2.567l-0.467.622-0.389,8.477,0.623,0.311c2.722-1.089,7.777-3.111,12.988-3.111,2.878,0,4.044.467,5.055,1.478A4.9,4.9,0,0,1,230,269.678c-9.333,1.245-13.688,2.1-18.354,4.978a12.435,12.435,0,0,0-5.833,10.655c0,8.322,5.988,13.688,13.61,13.688a16.084,16.084,0,0,0,10.811-4.122v2.878L230.7,298.3c5.6-.233,7.311-0.311,12.366-0.233l0.389-.545c-0.544-7.621-.544-9.566-0.544-16.877ZM230.16,287.255a12.6,12.6,0,0,1-6.3,2.022c-2.8,0-5.133-1.477-5.133-4.744,0-5.133,6.144-5.988,11.433-6.688v9.41Zm38.267-16.021c-2.645-.934-4.744-1.789-4.744-3.967,0-.933.622-3.5,5.444-3.5a16.881,16.881,0,0,1,9.722,3.267l0.7-.233,0.778-8.478-0.389-.466a39.606,39.606,0,0,0-11.9-1.945c-3.811,0-11.433.311-15.477,6.144a11.694,11.694,0,0,0-2.1,6.845c0,8.321,6.455,10.81,10.111,12.21l2.955,1.089c2.1,0.7,5.522,1.866,5.522,4.666,0,1.945-1.789,4.045-6.144,4.045a19.454,19.454,0,0,1-8.244-2.178,17.151,17.151,0,0,1-3.111-2.178l-0.7.311c-0.156,4.045-.233,4.9-0.545,8.789l0.389,0.7c3.811,1.4,7.078,2.644,12.755,2.644,5.911,0,17.577-1.089,18.977-12.21a13.154,13.154,0,0,0,.078-1.711c0-8.556-5.989-10.811-10.266-12.444Zm37.255,0c-2.644-.934-4.744-1.789-4.744-3.967,0-.933.622-3.5,5.444-3.5a16.875,16.875,0,0,1,9.722,3.267l0.7-.233,0.778-8.478-0.389-.466a39.607,39.607,0,0,0-11.9-1.945c-3.81,0-11.432.311-15.477,6.144a11.7,11.7,0,0,0-2.1,6.845c0,8.321,6.455,10.81,10.11,12.21l2.956,1.089c2.1,0.7,5.522,1.866,5.522,4.666,0,1.945-1.789,4.045-6.145,4.045a19.461,19.461,0,0,1-8.244-2.178,17.186,17.186,0,0,1-3.111-2.178l-0.7.311c-0.155,4.045-.233,4.9-0.544,8.789l0.389,0.7c3.811,1.4,7.077,2.644,12.755,2.644,5.911,0,17.577-1.089,18.977-12.21a13.324,13.324,0,0,0,.077-1.711c0-8.556-5.988-10.811-10.266-12.444Zm55.533,3.655c0.078-7,.078-10.033-1.945-13.3-1.555-2.489-4.666-5.6-14.621-5.6a47.308,47.308,0,0,0-15.244,2.567l-0.466.622-0.389,8.477,0.622,0.311c2.722-1.089,7.777-3.111,12.988-3.111,2.878,0,4.044.467,5.055,1.478a4.9,4.9,0,0,1,1.012,3.344c-9.333,1.245-13.689,2.1-18.355,4.978a12.437,12.437,0,0,0-5.833,10.655c0,8.322,5.988,13.688,13.61,13.688a16.082,16.082,0,0,0,10.811-4.122v2.878l0.467,0.544c5.6-.233,7.31-0.311,12.366-0.233l0.388-.545c-0.544-7.621-.544-9.566-0.544-16.877Zm-12.833,12.366a12.6,12.6,0,0,1-6.3,2.022c-2.8,0-5.133-1.477-5.133-4.744,0-5.133,6.144-5.988,11.433-6.688v9.41Zm82.676,10.266c-0.389-7.233-.467-9.255-0.467-18.043v-5.833c0.078-5.211.156-10.033-2.1-13.3-3.033-4.433-8.4-4.433-9.644-4.433-6.377,0-10.655,2.878-13.766,5.056-1.088-1.789-3.033-5.056-9.255-5.056-5.133,0-8.477,2.333-12.055,4.822v-4.355l-0.7-.7c-6.066,1.167-7.777,1.478-13.221,2.255l-0.467.545c0.622,6.222,1.089,10.5,1.089,25.9,0,4.433-.078,8.944-0.078,13.377l0.389,0.466c4.978-.155,6.689-0.233,13.144-0.233l0.467-.467c-0.545-11.977-.623-15.554-0.7-29.087a9.551,9.551,0,0,1,5.366-2.178c4.822,0,4.978,5.522,4.978,12.211,0,11.277-.078,12.988-0.234,19.288l0.467,0.544c5.911-.311,7.544-0.311,12.91-0.311l0.467-.467c-0.467-7.388-.544-9.566-0.622-18.976v-2.878l-0.078-7.855a9.6,9.6,0,0,1,5.366-1.945c4.434,0,5.134,4.2,5.134,10.889,0,1.477-.078,2.955-0.078,4.433-0.078,2.644-.156,14.232-0.234,16.566l0.467,0.466c5.833-.233,7.544-0.233,12.988-0.233Zm43.557-22.632c0.078-7,.078-10.033-1.945-13.3-1.555-2.489-4.666-5.6-14.621-5.6a47.308,47.308,0,0,0-15.244,2.567l-0.466.622-0.389,8.477,0.622,0.311c2.722-1.089,7.777-3.111,12.988-3.111,2.878,0,4.044.467,5.055,1.478a4.9,4.9,0,0,1,1.012,3.344c-9.333,1.245-13.689,2.1-18.355,4.978a12.437,12.437,0,0,0-5.833,10.655c0,8.322,5.988,13.688,13.61,13.688a16.082,16.082,0,0,0,10.811-4.122v2.878l0.466,0.544c5.6-.233,7.311-0.311,12.367-0.233l0.388-.545c-0.544-7.621-.544-9.566-0.544-16.877Zm-12.833,12.366a12.6,12.6,0,0,1-6.3,2.022c-2.8,0-5.133-1.477-5.133-4.744,0-5.133,6.144-5.988,11.433-6.688v9.41ZM83.316,370.011A236.654,236.654,0,0,1,94.671,391.4l0.622,0.389c2.411-.156,4.744-0.311,7.155-0.389s4.9-.155,7.311-0.155l0.466-.934c-2.955-3.811-3.81-4.977-9.41-13.921-2.489-3.967-3.733-6.067-5.678-9.489,3.5-1.555,10.578-4.822,10.578-14.7,0-3.422-.934-10.5-7.311-13.844-4.044-2.1-8.244-2.177-17.344-2.022l-5.444.078H66.128l-0.389.467c0.311,7.855.622,15.943,0.622,37.1,0,7.233-.078,10.733-0.311,17.188l0.467,0.466c5.677-.233,6.922-0.311,13.3-0.233l0.467-.467c-0.622-9.021-.7-11.51-0.778-20.765ZM79.66,345.824c1.089-.078,2.178-0.078,3.266-0.078,3.033,0,9.022,0,9.022,6.844a7.566,7.566,0,0,1-3.422,6.844c-2.178,1.322-4.978,1.478-8.866,1.555V345.824Zm74.277,24.887c0-3.033,0-15.632-10.889-19.91a27.956,27.956,0,0,0-9.488-1.478c-13.533,0-21.155,7.233-21.155,21.544,0,4.977.778,10.033,3.656,14.232,2.022,3.034,5.833,7.233,16.955,7.233C149.5,392.332,153.937,382.377,153.937,370.711Zm-13.455-.078c0,6.378-.856,13.455-7.311,13.455a6.292,6.292,0,0,1-4.355-1.788c-1.322-1.323-2.8-3.967-2.8-11.511,0-2.255,0-7.233,1.555-9.955a6.442,6.442,0,0,1,5.678-3.5,6.539,6.539,0,0,1,4.977,2.411C140.093,362,140.482,366.434,140.482,370.633Zm58.177-20.843-12.677.622-0.544.467c0.544,8.788.544,21.232,0.544,22.477,0,2.255,0,3.5-.078,6.61-2.1,1.4-3.733,2.567-5.833,2.567-5.6,0-5.6-5.911-5.6-10.5,0-1.944,0-3.966.078-5.91l0.156-15.711-0.545-.622-12.832.622-0.545.467c0.467,6.533.545,8.711,0.545,16.566v5.444c-0.078,8.477.311,12.055,3.111,15.321a13.317,13.317,0,0,0,10.188,4.122c5.522,0,8.711-2.488,11.51-4.666l-0.077,3.5,0.544,0.466c5.678-.233,7.389-0.233,12.444-0.233l0.467-.467c-0.389-5.521-.545-8.477-0.545-18.588q0-10.965.234-21.932Zm47.756,41.065c-0.389-6.844-.389-9.022-0.545-16.644v-6.066c-0.078-7.467-.155-11.044-2.1-14.233-2.411-4.044-6.844-4.666-9.644-4.666-4.744,0-8.866,2.488-12.444,4.588l0.156-4.277-0.778-.545c-5.988,1.245-7.31,1.478-13.144,2.256l-0.466.544a216.367,216.367,0,0,1,1.089,24.343c0,4.978-.078,9.955-0.156,14.933l0.467,0.467c5.6-.234,6.766-0.234,12.988-0.234l0.467-.466c-0.467-11.977-.545-15.011-0.623-28.932,1.634-1.089,3.5-2.411,5.989-2.411,4.278,0,4.667,4.588,4.9,7.388,0.155,2.567.233,13.222,0.233,16.177,0,2.645-.078,5.367-0.078,8.011l0.467,0.467c5.133-.156,6.455-0.234,12.677-0.234Zm46.977,0.077c-0.311-7-.544-11.666-0.544-21.854,0-20.532.311-29.01,0.622-39.276l-0.544-.467-12.833,2.023-0.389.466c0.467,7.311.545,9.255,0.467,18.122-5.833-.156-13.144-0.312-19.055,4.355-5.444,4.2-7.7,10.655-7.7,18.666,0,6.066,1.633,12.132,6.221,15.943a16.4,16.4,0,0,0,10.189,3.422,14.25,14.25,0,0,0,10.266-4.2l-0.155,3.033,0.388,0.466c5.367-.233,6.844-0.233,12.678-0.233Zm-13.221-31.654c0.078,10.344,0,12.367-.233,21.777a9.84,9.84,0,0,1-5.289,1.867c-7.544,0-7.544-9.644-7.544-11.2,0-5.988,1.711-12.677,10.421-12.677A17.485,17.485,0,0,1,280.171,359.278Zm91.388-23.021c-6.222.234-7.233,0.234-13.766,0.234l-0.389.466c0.544,8.789.544,11.044,0.622,20.222-3.422.077-6.844,0.155-10.344,0.155-2.722,0-5.522-.078-8.244-0.078l0.156-20.532-0.389-.467c-5.989.234-7.156,0.234-13.922,0.234l-0.467.466c0.389,8.011.856,17.577,0.856,36.865,0,7-.156,10.811-0.311,17.344l0.389,0.466c5.677-.233,7.077-0.311,13.921-0.233l0.389-.467c-0.466-9.644-.544-12.443-0.622-23.721,3.422-.155,6.3-0.233,9.333-0.233,3.111,0,6.222.078,9.333,0.156,0.155,10.5.155,13.066-.234,24.032l0.389,0.466c5.833-.233,7.389-0.311,14-0.233l0.388-.467c-0.622-13.066-.855-26.054-0.855-39.12,0-5.444.078-9.1,0.156-15.088Zm49.7,34.454c0-3.033,0-15.632-10.888-19.91a27.961,27.961,0,0,0-9.489-1.478c-13.533,0-21.154,7.233-21.154,21.544,0,4.977.777,10.033,3.655,14.232,2.022,3.034,5.833,7.233,16.955,7.233C416.826,392.332,421.259,382.377,421.259,370.711Zm-13.455-.078c0,6.378-.855,13.455-7.311,13.455a6.292,6.292,0,0,1-4.355-1.788c-1.322-1.323-2.8-3.967-2.8-11.511,0-2.255,0-7.233,1.556-9.955a6.439,6.439,0,0,1,5.677-3.5,6.541,6.541,0,0,1,4.978,2.411C407.415,362,407.8,366.434,407.8,370.633Zm58.177-20.843-12.677.622-0.544.467c0.544,8.788.544,21.232,0.544,22.477,0,2.255,0,3.5-.078,6.61-2.1,1.4-3.733,2.567-5.833,2.567-5.6,0-5.6-5.911-5.6-10.5,0-1.944,0-3.966.077-5.91l0.156-15.711-0.545-.622-12.832.622-0.545.467c0.467,6.533.545,8.711,0.545,16.566v5.444c-0.078,8.477.311,12.055,3.111,15.321a13.317,13.317,0,0,0,10.188,4.122c5.522,0,8.711-2.488,11.511-4.666l-0.078,3.5,0.544,0.466c5.678-.233,7.389-0.233,12.444-0.233l0.467-.467c-0.389-5.521-.545-8.477-0.545-18.588q0-10.965.234-21.932Zm25.979,14.777c-2.644-.933-4.744-1.789-4.744-3.966,0-.934.622-3.5,5.444-3.5a16.881,16.881,0,0,1,9.722,3.266l0.7-.233,0.777-8.477-0.388-.467a39.615,39.615,0,0,0-11.9-1.944c-3.811,0-11.433.311-15.477,6.144a11.691,11.691,0,0,0-2.1,6.844c0,8.322,6.456,10.81,10.111,12.21l2.955,1.089c2.1,0.7,5.522,1.867,5.522,4.667,0,1.944-1.789,4.044-6.144,4.044a19.458,19.458,0,0,1-8.244-2.178,17.23,17.23,0,0,1-3.111-2.177l-0.7.311c-0.155,4.044-.233,4.9-0.544,8.788l0.389,0.7c3.811,1.4,7.077,2.644,12.755,2.644,5.91,0,17.576-1.088,18.976-12.21a13.146,13.146,0,0,0,.078-1.711c0-8.555-5.988-10.811-10.266-12.444Zm55.455,15.322a23.776,23.776,0,0,1-12.133,3.344c-4.666,0-7.855-1.478-9.722-4.278a11.01,11.01,0,0,1-1.711-4.744l25.121-.467,0.467-.544a45.638,45.638,0,0,0-1.244-11.588c-2.723-9.178-8.711-11.044-11.355-11.666a19.9,19.9,0,0,0-5.522-.7c-12.211,0-20.3,8.01-20.3,21.465a25.893,25.893,0,0,0,1.866,10.189c4.511,10.5,15.088,11.432,20.688,11.432,6.455,0,9.255-1.166,13.377-2.8l0.467-.623,0.544-8.788Zm-23.566-13.922c0.234-2.411.778-5.677,3.733-7.544a5.969,5.969,0,0,1,8.089,1.867,9.5,9.5,0,0,1,1.167,5.366ZM89.81,451.29c-6.533-2.722-9.955-4.122-9.955-7.622,0-2.411,2.255-5.444,7.389-5.444,5.911,0,9.411,2.411,12.288,4.355l0.7-.311,0.622-10.189-0.389-.544a31.857,31.857,0,0,0-14.388-2.878c-14.621,0-19.677,8.244-19.677,16.566,0,9.411,7.311,12.833,11.666,14.933l2.567,1.166c5.366,2.256,9.488,4.2,9.488,8.322,0,2.956-2.567,6.456-9.333,6.456a19.84,19.84,0,0,1-13.3-4.9l-0.778.233L66.167,482.4l0.467,0.622c0.855,0.312,1.711.7,2.567,0.934A38.748,38.748,0,0,0,81.41,485.9c2.333,0,8.244-.233,12.91-2.411,6.533-3.189,9.333-9.1,9.333-15.71a15.412,15.412,0,0,0-5.833-12.366,31.52,31.52,0,0,0-5.989-3.345Zm43.011,24.5a11.669,11.669,0,0,1-3.578.7c-3.966,0-4.277-2.488-4.433-3.655a89.18,89.18,0,0,1-.155-9.411l0.155-10.966,7,0.311,0.467-.466,0.777-8.322-0.466-.467H124.81l0.234-13.066-0.545-.466c-5.288,1.555-6.688,1.944-12.21,3.344l-0.311.544,0.077,9.722-4.2-.156-0.466.389-0.7,8.322,0.467,0.467,4.9-.156-0.233,12.366c-0.078,1.945-.156,3.889-0.156,5.911,0,7.155.156,14.855,12.289,14.855a45.259,45.259,0,0,0,8.166-.933l0.544-.545,0.778-8.01Zm40.366-14.232c0.078-7,.078-10.033-1.944-13.3-1.556-2.488-4.667-5.6-14.622-5.6a47.347,47.347,0,0,0-15.244,2.566l-0.466.622-0.389,8.478,0.622,0.311c2.722-1.089,7.778-3.111,12.988-3.111,2.878,0,4.045.467,5.056,1.478a4.905,4.905,0,0,1,1.011,3.344c-9.333,1.244-13.688,2.1-18.355,4.977a12.44,12.44,0,0,0-5.833,10.656c0,8.321,5.989,13.688,13.61,13.688a16.079,16.079,0,0,0,10.811-4.122v2.877l0.467,0.545c5.6-.234,7.31-0.311,12.366-0.234l0.389-.544c-0.545-7.622-.545-9.566-0.545-16.877Zm-12.833,12.366a12.6,12.6,0,0,1-6.3,2.022c-2.8,0-5.133-1.478-5.133-4.744,0-5.133,6.144-5.989,11.432-6.689v9.411Zm43.711,1.866a11.669,11.669,0,0,1-3.577.7c-3.967,0-4.278-2.488-4.433-3.655a88.88,88.88,0,0,1-.156-9.411l0.156-10.966,7,0.311,0.467-.466,0.778-8.322-0.467-.467h-7.777l0.233-13.066-0.544-.466c-5.289,1.555-6.689,1.944-12.211,3.344l-0.311.544,0.078,9.722-4.2-.156-0.467.389-0.7,8.322,0.467,0.467,4.9-.156-0.234,12.366c-0.077,1.945-.155,3.889-0.155,5.911,0,7.155.155,14.855,12.288,14.855a45.259,45.259,0,0,0,8.166-.933l0.545-.545,0.778-8.01Zm38.733-2.566a23.773,23.773,0,0,1-12.133,3.344c-4.666,0-7.855-1.478-9.721-4.277a11,11,0,0,1-1.711-4.745l25.121-.466,0.466-.545a45.6,45.6,0,0,0-1.244-11.588c-2.722-9.177-8.711-11.044-11.355-11.666a19.9,19.9,0,0,0-5.522-.7c-12.211,0-20.3,8.011-20.3,21.466a25.891,25.891,0,0,0,1.866,10.188c4.511,10.5,15.089,11.433,20.688,11.433,6.456,0,9.255-1.167,13.377-2.8l0.467-.622,0.545-8.789ZM219.233,459.3c0.233-2.411.777-5.677,3.733-7.544a5.97,5.97,0,0,1,8.088,1.867,9.5,9.5,0,0,1,1.167,5.366Zm102.042-29.709c-6.222.233-7.233,0.233-13.766,0.233l-0.389.467c0.545,8.788.545,11.044,0.623,20.221-3.422.078-6.844,0.155-10.344,0.155-2.722,0-5.522-.077-8.244-0.077l0.155-20.533-0.389-.466c-5.988.233-7.155,0.233-13.921,0.233l-0.467.467c0.389,8.01.856,17.577,0.856,36.865,0,7-.156,10.81-0.311,17.343l0.388,0.467c5.678-.234,7.078-0.311,13.922-0.234l0.389-.466c-0.467-9.644-.545-12.444-0.622-23.721,3.422-.156,6.3-0.234,9.333-0.234,3.111,0,6.221.078,9.332,0.156,0.156,10.5.156,13.066-.233,24.032l0.389,0.467c5.833-.234,7.389-0.311,14-0.234l0.389-.466c-0.622-13.066-.855-26.054-0.855-39.121,0-5.444.077-9.1,0.155-15.088Zm24.191,54.6c-0.389-5.989-.7-10.577-0.7-21.31,0-6.611.155-13.3,0.233-19.91l-0.544-.622-13.377,2.333-0.467.466c0.622,5.911.855,8.633,0.855,19.677,0,8.478-.233,13.222-0.466,19.6l0.466,0.545c5.6-.234,7.156-0.311,13.455-0.234Zm-1.245-49.309,0.234-10.577-0.467-.467-12.677,1.556-0.467.544c0.156,2.8.234,4.433,0.234,6.3,0,1.478,0,3.033-.078,4.511l0.544,0.467c5.289-.934,6.767-1.089,12.289-1.789ZM370.432,457.9c-2.644-.933-4.744-1.788-4.744-3.966,0-.933.622-3.5,5.444-3.5a16.868,16.868,0,0,1,9.722,3.267l0.7-.234,0.778-8.477-0.389-.467a39.609,39.609,0,0,0-11.9-1.944c-3.81,0-11.432.311-15.477,6.144a11.691,11.691,0,0,0-2.1,6.844c0,8.322,6.455,10.811,10.11,12.211l2.956,1.089c2.1,0.7,5.522,1.866,5.522,4.666,0,1.944-1.789,4.044-6.145,4.044a19.473,19.473,0,0,1-8.244-2.177,17.236,17.236,0,0,1-3.111-2.178l-0.7.311c-0.155,4.044-.233,4.9-0.544,8.788l0.389,0.7c3.811,1.4,7.077,2.645,12.755,2.645,5.911,0,17.577-1.089,18.977-12.211a13.308,13.308,0,0,0,.077-1.711c0-8.555-5.988-10.81-10.266-12.444Zm42.7,17.888a11.669,11.669,0,0,1-3.578.7c-3.966,0-4.277-2.488-4.433-3.655a89.18,89.18,0,0,1-.155-9.411l0.155-10.966,7,0.311,0.467-.466,0.777-8.322-0.466-.467h-7.778l0.234-13.066-0.545-.466c-5.288,1.555-6.688,1.944-12.21,3.344l-0.311.544,0.077,9.722-4.2-.156-0.467.389-0.7,8.322,0.467,0.467,4.9-.156-0.233,12.366c-0.078,1.945-.155,3.889-0.155,5.911,0,7.155.155,14.855,12.288,14.855a45.259,45.259,0,0,0,8.166-.933l0.545-.545,0.777-8.01Zm45.344-11.743c0-3.034,0-15.633-10.889-19.911a27.951,27.951,0,0,0-9.488-1.477c-13.533,0-21.155,7.233-21.155,21.543,0,4.978.778,10.033,3.656,14.233,2.022,3.033,5.833,7.233,16.954,7.233C454.043,485.666,458.476,475.711,458.476,464.045Zm-13.455-.078c0,6.377-.856,13.455-7.311,13.455a6.292,6.292,0,0,1-4.355-1.789c-1.323-1.322-2.8-3.967-2.8-11.511,0-2.255,0-7.233,1.555-9.955a6.442,6.442,0,0,1,5.678-3.5,6.541,6.541,0,0,1,4.977,2.411C444.632,455.334,445.021,459.767,445.021,463.967Zm43.322-8.089,2.178-12.677-0.467-.544c-0.544,0-1.089-.078-1.633-0.078-3.189,0-6.766,1.789-9.255,7.544l0.233-7.155-0.622-.622c-5.755,1.244-7.233,1.477-12.911,2.333l-0.466.466c0.466,5.834.7,9.333,0.7,20.144,0,6.377-.078,12.755-0.234,19.21l0.467,0.467c5.755-.234,7-0.311,13.222-0.234l0.389-.544c-0.312-6.3-.778-15.088-0.778-20.455,0-3.5,0-8.632,5.288-8.632a5.822,5.822,0,0,1,3.189,1.088Zm20.767,28.31c-0.389-5.989-.7-10.577-0.7-21.31,0-6.611.156-13.3,0.234-19.91l-0.545-.622-13.377,2.333-0.467.466c0.623,5.911.856,8.633,0.856,19.677,0,8.478-.233,13.222-0.467,19.6l0.467,0.545c5.6-.234,7.155-0.311,13.455-0.234Zm-1.244-49.309L508.1,424.3l-0.466-.467-12.678,1.556-0.466.544c0.155,2.8.233,4.433,0.233,6.3,0,1.478,0,3.033-.078,4.511l0.545,0.467c5.288-.934,6.766-1.089,12.288-1.789Zm40.288,38.654a13.856,13.856,0,0,1-8.089,2.489c-8.788,0-10.577-7.311-10.577-11.977,0-5.678,2.489-12.211,10.033-12.211,3.422,0,5.289,1.244,7.622,2.8l0.778-.233c0.311-4.122.388-5.211,1.011-9.333l-0.389-.467a32.334,32.334,0,0,0-10.889-2.022c-18.277,0-21.854,13.844-21.854,21.777,0,8.944,4.666,21.076,22.165,21.076A32.552,32.552,0,0,0,548,483.721l0.467-.466,0.311-9.333ZM240.583,523l-9.878.155-0.466.467c0.311,10.111.544,16.877,0.544,25.821,0,9.488-.233,18.9-0.467,28.387l0.467,0.467c5.755-.233,7-0.311,13.222-0.233l0.389-.467c-0.312-8.477-.312-10.422-0.312-18.355,8.711,0.078,18.044.078,23.644-6.766a19.991,19.991,0,0,0,4.044-12.521c0-3.345-.778-10.733-7.233-14.389-4.666-2.722-11.277-2.722-17.11-2.722Zm3.5,9.41c1.711-.077,3.345-0.077,5.056-0.077,6.844,0.155,8.71,3.655,8.71,8.166,0,1.089,0,5.6-4.122,7.855-2.1,1.167-4.977,1.322-9.644,1.322V532.412Zm66.111,22.477c0.077-7,.077-10.033-1.945-13.3-1.555-2.489-4.666-5.6-14.621-5.6a47.308,47.308,0,0,0-15.244,2.567l-0.467.622-0.389,8.477,0.623,0.311c2.722-1.089,7.777-3.111,12.988-3.111,2.878,0,4.044.467,5.055,1.478a4.9,4.9,0,0,1,1.011,3.344c-9.333,1.245-13.688,2.1-18.354,4.978a12.435,12.435,0,0,0-5.833,10.655c0,8.322,5.988,13.688,13.61,13.688a16.084,16.084,0,0,0,10.811-4.122v2.878L297.9,578.3c5.6-.233,7.311-0.311,12.366-0.233l0.389-.545c-0.544-7.621-.544-9.566-0.544-16.877ZM297.36,567.255a12.6,12.6,0,0,1-6.3,2.022c-2.8,0-5.133-1.477-5.133-4.744,0-5.133,6.144-5.989,11.433-6.688v9.41Zm44.411-18.043,2.178-12.678-0.467-.544c-0.544,0-1.089-.078-1.633-0.078-3.189,0-6.767,1.789-9.255,7.544l0.233-7.155-0.622-.622c-5.756,1.244-7.233,1.478-12.911,2.333l-0.466.467c0.466,5.833.7,9.333,0.7,20.143,0,6.378-.078,12.755-0.234,19.21l0.467,0.467c5.755-.233,7-0.311,13.221-0.233l0.389-.545c-0.311-6.3-.777-15.088-0.777-20.454,0-3.5,0-8.633,5.288-8.633a5.826,5.826,0,0,1,3.189,1.089Zm46.666,27.843c-7.311-12.366-8.089-13.766-14-24.421,5.367-7.311,5.911-8.089,11.433-15.166l-0.389-.778-12.677.156-0.778.544c-6.066,10.5-6.844,11.744-10.421,17.11v-8.633c0.077-14.543.155-17.654,0.544-29.4L361.527,516l-13.533,2.022-0.466.545c0.544,7.544.777,11.2,0.933,21.388,0.155,12.6.155,25.2,0.078,37.8l0.544,0.544c5.211-.233,6.689-0.233,12.6-0.233l0.467-.545-0.467-13.143-0.077-8.944c6.766,12.443,7.622,14.154,11.588,22.4l0.7,0.467,14-.544Z"/>
</svg>
