<svg xmlns="http://www.w3.org/2000/svg" width="612" height="817" viewBox="0 0 612 817">
  <defs>
    <style>
      .cls-1 {
        fill: #592626;
        fill-rule: evenodd;
      }
    </style>
  </defs>
  <path id="California_State_Mining_and_Mineral_Museum_Park_Property" data-name="California State Mining and Mineral Museum Park Property" class="cls-1" d="M71.259,239.144A19.007,19.007,0,0,1,59.048,243.5c-8.866,0-15.088-6.611-15.088-17.655,0-6.689,2.333-18.433,15.01-18.433a16.679,16.679,0,0,1,10.966,3.734l0.7-.156,0.7-10.733-0.311-.389a37.542,37.542,0,0,0-14.388-2.877c-20.143,0-27.143,15.555-27.143,29.165,0,14.933,9.1,28.076,28.076,28.076a33,33,0,0,0,13.3-2.722l0.389-.466L71.8,239.455Zm41.222-9.255c0.078-7,.078-10.033-1.944-13.3-1.555-2.489-4.666-5.6-14.621-5.6a47.308,47.308,0,0,0-15.244,2.567l-0.467.622-0.389,8.477,0.622,0.311c2.722-1.089,7.777-3.111,12.988-3.111,2.878,0,4.044.467,5.055,1.478a4.9,4.9,0,0,1,1.011,3.344c-9.333,1.245-13.688,2.1-18.355,4.978a12.436,12.436,0,0,0-5.833,10.655c0,8.322,5.989,13.688,13.61,13.688a16.081,16.081,0,0,0,10.811-4.122v2.878l0.466,0.544c5.6-.233,7.311-0.311,12.366-0.233l0.389-.545c-0.544-7.621-.544-9.566-0.544-16.877ZM99.649,242.255a12.6,12.6,0,0,1-6.3,2.022c-2.8,0-5.133-1.477-5.133-4.744,0-5.133,6.144-5.988,11.433-6.688v9.41Zm35.622,10.266c-0.389-8.944-.777-17.11-0.777-41.687,0-7.388.077-10.888,0.388-19.287L134.338,191l-13.3,2.1-0.311.467c0.777,9.488.855,12.055,1.011,24.654,0.077,4.589.077,9.177,0.077,13.766,0,8.4-.155,13.066-0.466,20.766l0.466,0.544c5.211-.233,7.311-0.311,12.989-0.233Zm23.1,0c-0.389-5.988-.7-10.577-0.7-21.31,0-6.611.156-13.3,0.234-19.91l-0.545-.622-13.377,2.333-0.467.467c0.623,5.911.856,8.633,0.856,19.677,0,8.477-.233,13.221-0.467,19.6l0.467,0.544c5.6-.233,7.155-0.311,13.455-0.233Zm-1.244-49.308,0.233-10.578-0.466-.466-12.678,1.555-0.466.545c0.155,2.8.233,4.433,0.233,6.3,0,1.478,0,3.034-.078,4.511l0.545,0.467c5.288-.933,6.766-1.089,12.288-1.789Zm25.433,49.308c-0.778-14.154-.855-17.965-0.778-31.731l6.145,0.311,0.544-.545,0.7-8.244-0.389-.466h-7.077l0.077-1.789c0-4.744.078-9.1,5.133-9.1,0.778,0,1.556.156,2.334,0.234l0.544-.312,0.7-8.788-0.389-.544c-1.866-.156-3.655-0.234-5.444-0.234-3.966,0-8.011.467-11.122,2.8-4.822,3.578-4.744,9.177-4.744,13.066l0.078,4.667-5.055-.078-0.467.389-0.778,8.244,0.467,0.466,5.911-.155c0,14.7,0,18.2-.467,32.043l0.467,0.544c5.288-.233,7.31-0.311,13.143-0.311Zm51.566-20.143c0-3.033,0-15.633-10.889-19.91a27.956,27.956,0,0,0-9.488-1.478c-13.533,0-21.155,7.233-21.155,21.543,0,4.978.778,10.033,3.656,14.233C198.272,249.8,202.083,254,213.2,254,229.693,254,234.126,244.044,234.126,232.378Zm-13.455-.078c0,6.378-.856,13.455-7.311,13.455a6.288,6.288,0,0,1-4.355-1.789c-1.323-1.322-2.8-3.966-2.8-11.51,0-2.256,0-7.233,1.555-9.955a6.442,6.442,0,0,1,5.678-3.5,6.538,6.538,0,0,1,4.977,2.411C220.282,223.667,220.671,228.1,220.671,232.3Zm43.322-8.088,2.178-12.678-0.467-.544c-0.544,0-1.089-.078-1.633-0.078-3.189,0-6.766,1.789-9.255,7.544l0.233-7.155-0.622-.622c-5.755,1.244-7.233,1.478-12.911,2.333l-0.466.467c0.466,5.833.7,9.333,0.7,20.143,0,6.378-.078,12.755-0.234,19.21l0.467,0.467c5.755-.233,7-0.311,13.222-0.233l0.389-.545c-0.312-6.3-.778-15.088-0.778-20.454,0-3.5,0-8.633,5.288-8.633a5.823,5.823,0,0,1,3.189,1.089Zm44.8,28.309c-0.388-6.844-.388-9.021-0.544-16.643v-6.067c-0.078-7.466-.156-11.044-2.1-14.232-2.411-4.045-6.844-4.667-9.644-4.667-4.744,0-8.866,2.489-12.444,4.589l0.156-4.278-0.778-.544c-5.989,1.244-7.311,1.478-13.144,2.255l-0.466.545a216.425,216.425,0,0,1,1.088,24.343c0,4.978-.077,9.955-0.155,14.933l0.467,0.466c5.6-.233,6.766-0.233,12.988-0.233l0.466-.467c-0.466-11.977-.544-15.01-0.622-28.932,1.633-1.088,3.5-2.411,5.989-2.411,4.277,0,4.666,4.589,4.9,7.389,0.155,2.567.233,13.222,0.233,16.177,0,2.644-.078,5.366-0.078,8.011l0.467,0.466c5.133-.155,6.455-0.233,12.677-0.233Zm22.946,0c-0.389-5.988-.7-10.577-0.7-21.31,0-6.611.156-13.3,0.233-19.91l-0.544-.622-13.377,2.333-0.467.467c0.622,5.911.856,8.633,0.856,19.677,0,8.477-.234,13.221-0.467,19.6l0.467,0.544c5.6-.233,7.155-0.311,13.455-0.233Zm-1.244-49.308,0.233-10.578-0.467-.466-12.677,1.555-0.467.545c0.156,2.8.234,4.433,0.234,6.3,0,1.478,0,3.034-.078,4.511l0.544,0.467c5.289-.933,6.767-1.089,12.289-1.789Zm44.487,26.676c0.078-7,.078-10.033-1.944-13.3-1.555-2.489-4.666-5.6-14.621-5.6a47.308,47.308,0,0,0-15.244,2.567l-0.467.622-0.389,8.477,0.623,0.311c2.722-1.089,7.777-3.111,12.988-3.111,2.877,0,4.044.467,5.055,1.478a4.9,4.9,0,0,1,1.011,3.344c-9.333,1.245-13.688,2.1-18.355,4.978a12.437,12.437,0,0,0-5.833,10.655c0,8.322,5.989,13.688,13.611,13.688a16.084,16.084,0,0,0,10.811-4.122v2.878l0.466,0.544c5.6-.233,7.311-0.311,12.366-0.233l0.389-.545c-0.544-7.621-.544-9.566-0.544-16.877Zm-12.832,12.366a12.6,12.6,0,0,1-6.3,2.022c-2.8,0-5.133-1.477-5.133-4.744,0-5.133,6.144-5.988,11.433-6.688v9.41Zm67.122-22.632c-6.533-2.722-9.955-4.122-9.955-7.622,0-2.411,2.255-5.444,7.388-5.444,5.911,0,9.411,2.411,12.289,4.355l0.7-.311,0.622-10.188-0.389-.545a31.857,31.857,0,0,0-14.388-2.877c-14.622,0-19.677,8.244-19.677,16.566,0,9.41,7.311,12.832,11.666,14.932l2.567,1.167c5.366,2.255,9.488,4.2,9.488,8.322,0,2.955-2.567,6.455-9.333,6.455a19.839,19.839,0,0,1-13.3-4.9l-0.778.233-0.544,10.967,0.466,0.622c0.856,0.311,1.711.7,2.567,0.933a38.745,38.745,0,0,0,12.21,1.944c2.334,0,8.244-.233,12.911-2.411,6.533-3.188,9.333-9.1,9.333-15.71a15.415,15.415,0,0,0-5.833-12.366,31.446,31.446,0,0,0-5.989-3.344Zm43.011,24.5a11.669,11.669,0,0,1-3.578.7c-3.966,0-4.277-2.489-4.433-3.656a89.161,89.161,0,0,1-.155-9.41l0.155-10.966,7,0.311,0.467-.467,0.777-8.322-0.466-.466h-7.778l0.234-13.066-0.545-.467c-5.288,1.555-6.688,1.944-12.21,3.344l-0.311.545,0.077,9.721-4.2-.155-0.467.389-0.7,8.321,0.467,0.467,4.9-.155-0.233,12.366c-0.078,1.944-.155,3.888-0.155,5.91,0,7.156.155,14.855,12.288,14.855a45.17,45.17,0,0,0,8.166-.933l0.544-.544,0.778-8.011Zm40.366-14.233c0.078-7,.078-10.033-1.944-13.3-1.556-2.489-4.667-5.6-14.622-5.6a47.306,47.306,0,0,0-15.243,2.567l-0.467.622-0.389,8.477,0.622,0.311c2.722-1.089,7.778-3.111,12.988-3.111,2.878,0,4.045.467,5.056,1.478a4.9,4.9,0,0,1,1.011,3.344c-9.333,1.245-13.688,2.1-18.355,4.978a12.437,12.437,0,0,0-5.833,10.655c0,8.322,5.989,13.688,13.611,13.688a16.079,16.079,0,0,0,10.81-4.122v2.878l0.467,0.544c5.6-.233,7.311-0.311,12.366-0.233l0.389-.545c-0.545-7.621-.545-9.566-0.545-16.877Zm-12.833,12.366a12.6,12.6,0,0,1-6.3,2.022c-2.8,0-5.133-1.477-5.133-4.744,0-5.133,6.144-5.988,11.432-6.688v9.41Zm43.711,1.867a11.669,11.669,0,0,1-3.577.7c-3.967,0-4.278-2.489-4.433-3.656a88.86,88.86,0,0,1-.156-9.41l0.156-10.966,7,0.311,0.467-.467,0.778-8.322-0.467-.466h-7.777l0.233-13.066-0.544-.467c-5.289,1.555-6.689,1.944-12.211,3.344l-0.311.545,0.078,9.721-4.2-.155-0.467.389-0.7,8.321,0.467,0.467,4.9-.155-0.234,12.366c-0.077,1.944-.155,3.888-0.155,5.91,0,7.156.155,14.855,12.288,14.855a45.191,45.191,0,0,0,8.167-.933l0.544-.544,0.778-8.011Zm38.733-2.567a23.763,23.763,0,0,1-12.133,3.345c-4.666,0-7.855-1.478-9.721-4.278a11,11,0,0,1-1.711-4.744l25.121-.467,0.466-.544a45.56,45.56,0,0,0-1.244-11.589c-2.722-9.177-8.711-11.044-11.355-11.666a19.933,19.933,0,0,0-5.522-.7c-12.211,0-20.3,8.011-20.3,21.466a25.873,25.873,0,0,0,1.867,10.188c4.51,10.5,15.088,11.433,20.687,11.433,6.456,0,9.256-1.167,13.378-2.8l0.466-.622,0.545-8.788Zm-23.565-13.921c0.233-2.411.777-5.678,3.733-7.544a5.968,5.968,0,0,1,8.088,1.866,9.5,9.5,0,0,1,1.167,5.367ZM164.2,291.257c-8.088.234-9.41,0.234-18.043,0.234l-0.467.466-3.577,12.6L139,315.834l-3.656,13.533-3.422-13.922-2.177-8.788-3.889-14.933-0.389-.467c-8.322.234-9.722,0.234-18.432,0.234l-0.467.466c-0.778,23.255-1.089,29.243-2.8,54.209l0.389,0.466c4.977-.233,6.455-0.311,10.966-0.233l0.467-.467,0.233-14.854,0.467-15.089,0.311-14.7,3.422,13.766,2.955,11.044,5.211,20.066,0.467,0.466c4.822-.233,6.144-0.311,11.588-0.233l0.467-.467,4.511-16.565,3.111-11.355,4.355-16.333V315.6l0.155,11.9v18.666l0.389,0.466c5.367-.233,7.467-0.311,13.455-0.233l0.389-.467c-0.467-8.866-1.011-17.81-1.322-26.754-0.233-4.9-.389-9.8-0.622-14.7-0.389-7.233-.467-8.166-0.467-12.755Zm25.747,54.6c-0.389-5.989-.7-10.578-0.7-21.31,0-6.611.156-13.3,0.233-19.911l-0.544-.622-13.377,2.333-0.467.467c0.622,5.911.856,8.633,0.856,19.677,0,8.477-.234,13.222-0.467,19.6l0.467,0.544c5.6-.233,7.155-0.311,13.455-0.233Zm-1.244-49.309,0.233-10.577-0.467-.467-12.677,1.556-0.466.544c0.155,2.8.233,4.433,0.233,6.3,0,1.477,0,3.033-.078,4.511l0.545,0.466c5.288-.933,6.766-1.089,12.288-1.789Zm47.987,49.309c-0.388-6.844-.388-9.022-0.544-16.644v-6.066c-0.078-7.467-.156-11.044-2.1-14.233-2.411-4.044-6.844-4.666-9.644-4.666-4.744,0-8.866,2.488-12.444,4.588l0.156-4.277-0.778-.545c-5.989,1.245-7.311,1.478-13.144,2.256l-0.466.544a216.425,216.425,0,0,1,1.088,24.343c0,4.978-.077,9.955-0.155,14.933l0.467,0.467c5.6-.234,6.766-0.234,12.988-0.234l0.466-.466c-0.466-11.977-.544-15.011-0.622-28.932,1.634-1.089,3.5-2.411,5.989-2.411,4.277,0,4.666,4.588,4.9,7.388,0.155,2.567.233,13.222,0.233,16.177,0,2.645-.078,5.367-0.078,8.011l0.467,0.467c5.133-.156,6.455-0.234,12.677-0.234Zm22.946,0c-0.389-5.989-.7-10.578-0.7-21.31,0-6.611.156-13.3,0.233-19.911l-0.544-.622-13.377,2.333-0.467.467c0.622,5.911.856,8.633,0.856,19.677,0,8.477-.234,13.222-0.467,19.6l0.467,0.544c5.6-.233,7.155-0.311,13.455-0.233Zm-1.244-49.309,0.233-10.577-0.467-.467-12.677,1.556-0.467.544c0.156,2.8.234,4.433,0.234,6.3,0,1.477,0,3.033-.078,4.511l0.544,0.466c5.289-.933,6.767-1.089,12.289-1.789Zm47.987,49.309c-0.389-6.844-.389-9.022-0.544-16.644v-6.066c-0.078-7.467-.156-11.044-2.1-14.233-2.411-4.044-6.844-4.666-9.644-4.666-4.744,0-8.866,2.488-12.444,4.588l0.156-4.277-0.778-.545c-5.989,1.245-7.311,1.478-13.144,2.256l-0.467.544a216.123,216.123,0,0,1,1.089,24.343c0,4.978-.077,9.955-0.155,14.933l0.466,0.467c5.6-.234,6.767-0.234,12.989-0.234l0.466-.466c-0.466-11.977-.544-15.011-0.622-28.932,1.633-1.089,3.5-2.411,5.989-2.411,4.277,0,4.666,4.588,4.9,7.388,0.155,2.567.233,13.222,0.233,16.177,0,2.645-.078,5.367-0.078,8.011l0.467,0.467c5.133-.156,6.455-0.234,12.677-0.234Zm23.179-12.6a21.813,21.813,0,0,0,8.711-1.011c4.044-1.4,9.955-4.744,9.955-12.288a10.172,10.172,0,0,0-2.1-6.766l5.366,0.311,0.467-.389,0.545-7.778-0.467-.388c-5.989.233-7.622,0.311-12.522,0.233l-3.577-.078c-5.522-.155-12.911-0.311-17.966,3.889a13.047,13.047,0,0,0-4.978,10.5,12.593,12.593,0,0,0,2.256,7.544,13.354,13.354,0,0,0,5.211,4.356c-2.178,4.2-3.345,6.3-5.133,9.488v0.7l3.266,2.333c-2.333,1.789-5.989,4.745-5.989,9.8a10.966,10.966,0,0,0,4.822,8.788c4.356,3.111,10.267,3.267,13.3,3.267,14.232,0,20.765-7.155,20.765-14.7,0-9.8-8.555-11.667-13.61-12.833l-1.867-.311a32.674,32.674,0,0,1-7.7-1.945Zm6.378-14c-0.078,6.3-3.889,6.844-4.978,6.844a5.031,5.031,0,0,1-4.666-3.266,10.719,10.719,0,0,1-.7-4.045c0-3.888,2.333-6.377,5.211-6.377C334.382,312.412,336.015,315.834,335.938,319.256Zm-6.611,29.01c6.922,1.789,7,1.789,7.933,2.566a3.429,3.429,0,0,1,1.555,3.033c0,2.334-1.944,4.745-7.077,4.745-5.755,0-7.7-3.267-7.7-5.989a7.388,7.388,0,0,1,2.256-5.133Zm85.4-25.044c0.078-7,.078-10.032-1.944-13.3-1.556-2.489-4.667-5.6-14.622-5.6a47.335,47.335,0,0,0-15.244,2.567l-0.466.622-0.389,8.477,0.622,0.312c2.722-1.089,7.777-3.111,12.988-3.111,2.878,0,4.045.466,5.056,1.477a4.909,4.909,0,0,1,1.011,3.345c-9.333,1.244-13.689,2.1-18.355,4.977a12.437,12.437,0,0,0-5.833,10.655c0,8.322,5.989,13.688,13.61,13.688a16.077,16.077,0,0,0,10.811-4.122v2.878l0.467,0.544c5.6-.233,7.31-0.311,12.366-0.233l0.389-.544c-0.545-7.622-.545-9.567-0.545-16.877Zm-12.833,12.367a12.6,12.6,0,0,1-6.3,2.022c-2.8,0-5.134-1.478-5.134-4.745,0-5.133,6.145-5.988,11.433-6.688v9.411Zm60.044,10.266c-0.389-6.844-.389-9.022-0.545-16.644v-6.066c-0.077-7.467-.155-11.044-2.1-14.233-2.411-4.044-6.845-4.666-9.644-4.666-4.745,0-8.867,2.488-12.444,4.588l0.155-4.277-0.777-.545c-5.989,1.245-7.311,1.478-13.144,2.256l-0.467.544a216.367,216.367,0,0,1,1.089,24.343c0,4.978-.078,9.955-0.156,14.933l0.467,0.467c5.6-.234,6.766-0.234,12.988-0.234l0.467-.466c-0.467-11.977-.545-15.011-0.622-28.932,1.633-1.089,3.5-2.411,5.988-2.411,4.278,0,4.667,4.588,4.9,7.388,0.156,2.567.233,13.222,0.233,16.177,0,2.645-.077,5.367-0.077,8.011l0.466,0.467c5.133-.156,6.456-0.234,12.677-0.234Zm46.978,0.077c-0.312-7-.545-11.666-0.545-21.854,0-20.532.311-29.01,0.622-39.276l-0.544-.467-12.833,2.023-0.389.466c0.467,7.311.545,9.255,0.467,18.122-5.833-.156-13.144-0.312-19.055,4.355-5.444,4.2-7.7,10.655-7.7,18.666,0,6.066,1.633,12.132,6.222,15.943a16.4,16.4,0,0,0,10.188,3.422,14.248,14.248,0,0,0,10.266-4.2l-0.155,3.033,0.389,0.466c5.366-.233,6.844-0.233,12.677-0.233Zm-13.222-31.654c0.078,10.344,0,12.367-.233,21.777a9.84,9.84,0,0,1-5.289,1.867c-7.544,0-7.544-9.644-7.544-11.2,0-5.988,1.711-12.677,10.422-12.677A17.483,17.483,0,0,1,495.693,314.278ZM230.664,384.591c-8.089.233-9.411,0.233-18.044,0.233l-0.467.467-3.577,12.6-3.111,11.277L201.809,422.7l-3.422-13.922-2.177-8.788-3.889-14.933-0.389-.466c-8.322.233-9.722,0.233-18.432,0.233l-0.467.467c-0.778,23.254-1.089,29.243-2.8,54.208l0.389,0.467c4.978-.234,6.455-0.311,10.966-0.234l0.467-.466,0.233-14.855,0.467-15.088,0.311-14.7,3.422,13.766,2.955,11.043,5.211,20.066,0.467,0.467c4.822-.234,6.144-0.311,11.588-0.234l0.467-.466,4.511-16.566,3.111-11.355,4.355-16.333v13.922l0.156,11.9V439.5l0.388,0.467c5.367-.234,7.467-0.311,13.455-0.234l0.389-.466c-0.466-8.866-1.011-17.81-1.322-26.754-0.233-4.9-.389-9.8-0.622-14.7-0.389-7.233-.467-8.166-0.467-12.755Zm25.746,54.6c-0.389-5.989-.7-10.577-0.7-21.31,0-6.611.156-13.3,0.234-19.91l-0.545-.622-13.377,2.333-0.467.466c0.623,5.911.856,8.633,0.856,19.677,0,8.478-.233,13.222-0.467,19.6l0.467,0.545c5.6-.234,7.155-0.311,13.455-0.234Zm-1.244-49.309L255.4,379.3l-0.466-.467-12.678,1.556-0.466.544c0.155,2.8.233,4.433,0.233,6.3,0,1.478,0,3.033-.078,4.511l0.545,0.467c5.288-.934,6.766-1.089,12.288-1.789Zm47.988,49.309c-0.389-6.844-.389-9.022-0.545-16.644v-6.066c-0.078-7.466-.155-11.044-2.1-14.233-2.411-4.044-6.844-4.666-9.644-4.666-4.744,0-8.866,2.489-12.444,4.589l0.156-4.278-0.778-.544c-5.988,1.244-7.311,1.477-13.144,2.255l-0.466.544a216.4,216.4,0,0,1,1.089,24.344c0,4.977-.078,9.955-0.156,14.932l0.467,0.467c5.6-.233,6.766-0.233,12.988-0.233l0.467-.467c-0.467-11.977-.545-15.01-0.623-28.932,1.634-1.089,3.5-2.411,5.989-2.411,4.278,0,4.666,4.589,4.9,7.389,0.155,2.566.233,13.221,0.233,16.177,0,2.644-.078,5.366-0.078,8.01l0.467,0.467c5.133-.156,6.455-0.233,12.677-0.233Zm43.4-10.966a23.779,23.779,0,0,1-12.133,3.344c-4.667,0-7.855-1.478-9.722-4.277a11.018,11.018,0,0,1-1.711-4.745l25.121-.466,0.467-.545a45.6,45.6,0,0,0-1.245-11.588c-2.722-9.177-8.71-11.044-11.355-11.666a19.9,19.9,0,0,0-5.522-.7c-12.21,0-20.3,8.011-20.3,21.466a25.891,25.891,0,0,0,1.867,10.188c4.511,10.5,15.088,11.433,20.688,11.433,6.455,0,9.255-1.167,13.377-2.8l0.467-.622,0.544-8.789ZM322.988,414.3c0.233-2.411.778-5.677,3.733-7.544a5.971,5.971,0,0,1,8.089,1.867,9.5,9.5,0,0,1,1.166,5.366Zm55.222-3.422,2.177-12.677-0.466-.544c-0.545,0-1.089-.078-1.633-0.078-3.189,0-6.767,1.789-9.256,7.544l0.234-7.155-0.622-.622c-5.756,1.244-7.233,1.477-12.911,2.333l-0.467.466c0.467,5.834.7,9.333,0.7,20.144,0,6.377-.077,12.755-0.233,19.21l0.467,0.467c5.755-.234,7-0.311,13.221-0.234l0.389-.544c-0.311-6.3-.778-15.088-0.778-20.455,0-3.5,0-8.632,5.289-8.632a5.825,5.825,0,0,1,3.189,1.088Zm41.3,5.678c0.078-7,.078-10.033-1.944-13.3-1.556-2.488-4.667-5.6-14.622-5.6a47.336,47.336,0,0,0-15.243,2.566l-0.467.622-0.389,8.478,0.622,0.311c2.722-1.089,7.778-3.111,12.989-3.111,2.877,0,4.044.467,5.055,1.478a4.9,4.9,0,0,1,1.011,3.344c-9.333,1.244-13.688,2.1-18.355,4.977a12.44,12.44,0,0,0-5.833,10.656c0,8.321,5.989,13.688,13.611,13.688a16.079,16.079,0,0,0,10.81-4.122v2.877l0.467,0.545c5.6-.234,7.311-0.311,12.366-0.234l0.389-.544c-0.545-7.622-.545-9.566-0.545-16.877Zm-12.832,12.366a12.6,12.6,0,0,1-6.3,2.022c-2.8,0-5.133-1.478-5.133-4.744,0-5.133,6.144-5.989,11.433-6.689v9.411ZM442.3,439.188c-0.389-8.944-.778-17.11-0.778-41.687,0-7.388.078-10.888,0.389-19.288l-0.544-.544-13.3,2.1-0.311.466c0.778,9.489.856,12.055,1.011,24.655,0.078,4.588.078,9.177,0.078,13.766,0,8.4-.155,13.066-0.466,20.765l0.466,0.545c5.211-.234,7.311-0.311,12.988-0.234ZM120.491,477.924c-8.088.233-9.41,0.233-18.043,0.233l-0.467.467-3.578,12.6L95.293,502.5l-3.655,13.532-3.422-13.921-2.178-8.789-3.889-14.932-0.389-.467c-8.322.233-9.722,0.233-18.432,0.233l-0.467.467c-0.778,23.254-1.089,29.243-2.8,54.208L60.45,533.3c4.978-.233,6.455-0.311,10.966-0.233l0.467-.467,0.233-14.855,0.467-15.088,0.311-14.7,3.422,13.766,2.955,11.044,5.211,20.065,0.467,0.467c4.822-.233,6.144-0.311,11.588-0.233L97,532.6l4.511-16.566,3.11-11.355,4.356-16.332v13.921l0.155,11.9v18.665l0.389,0.467c5.367-.233,7.467-0.311,13.455-0.233l0.389-.467c-0.467-8.866-1.011-17.81-1.322-26.754-0.233-4.9-.389-9.8-0.622-14.7-0.389-7.233-.467-8.167-0.467-12.755Zm49,13.533-12.677.622-0.544.467c0.544,8.788.544,21.232,0.544,22.476,0,2.256,0,3.5-.077,6.611-2.1,1.4-3.734,2.567-5.834,2.567-5.6,0-5.6-5.911-5.6-10.5,0-1.944,0-3.966.077-5.911l0.156-15.71-0.544-.622-12.833.622-0.545.467c0.467,6.533.545,8.71,0.545,16.565v5.445c-0.078,8.477.311,12.055,3.111,15.321A13.318,13.318,0,0,0,145.46,534c5.522,0,8.711-2.489,11.511-4.666l-0.078,3.5,0.544,0.467c5.678-.233,7.389-0.233,12.444-0.233l0.467-.467c-0.389-5.522-.544-8.477-0.544-18.588q0-10.966.233-21.932Zm25.979,14.777c-2.644-.934-4.744-1.789-4.744-3.967,0-.933.622-3.5,5.444-3.5a16.878,16.878,0,0,1,9.722,3.267l0.7-.233,0.778-8.478-0.389-.466a39.613,39.613,0,0,0-11.9-1.945c-3.811,0-11.432.311-15.477,6.144a11.694,11.694,0,0,0-2.1,6.845c0,8.321,6.456,10.81,10.111,12.21l2.955,1.089c2.1,0.7,5.522,1.866,5.522,4.666,0,1.945-1.788,4.045-6.144,4.045a19.461,19.461,0,0,1-8.244-2.178,17.186,17.186,0,0,1-3.111-2.178l-0.7.311c-0.155,4.045-.233,4.9-0.544,8.789l0.389,0.7c3.811,1.4,7.077,2.644,12.755,2.644,5.911,0,17.577-1.089,18.977-12.21a13.324,13.324,0,0,0,.077-1.711c0-8.556-5.988-10.811-10.266-12.444Zm55.455,15.321a23.766,23.766,0,0,1-12.133,3.345c-4.666,0-7.855-1.478-9.722-4.278a11.014,11.014,0,0,1-1.711-4.744l25.121-.467,0.467-.544a45.651,45.651,0,0,0-1.244-11.589c-2.722-9.177-8.711-11.044-11.355-11.666a19.943,19.943,0,0,0-5.522-.7c-12.211,0-20.3,8.011-20.3,21.466a25.891,25.891,0,0,0,1.866,10.188c4.511,10.5,15.088,11.433,20.688,11.433,6.455,0,9.255-1.167,13.377-2.8l0.467-.622,0.544-8.788ZM227.36,507.634c0.234-2.411.778-5.678,3.734-7.544a5.968,5.968,0,0,1,8.088,1.866,9.5,9.5,0,0,1,1.167,5.367Zm70.077-16.177-12.677.622-0.545.467c0.545,8.788.545,21.232,0.545,22.476,0,2.256,0,3.5-.078,6.611-2.1,1.4-3.733,2.567-5.833,2.567-5.6,0-5.6-5.911-5.6-10.5,0-1.944,0-3.966.078-5.911l0.155-15.71-0.544-.622-12.833.622-0.544.467c0.467,6.533.544,8.71,0.544,16.565v5.445c-0.077,8.477.311,12.055,3.111,15.321A13.32,13.32,0,0,0,273.4,534c5.522,0,8.71-2.489,11.51-4.666l-0.078,3.5,0.545,0.467c5.677-.233,7.388-0.233,12.444-0.233l0.466-.467c-0.388-5.522-.544-8.477-0.544-18.588q0-10.966.233-21.932Zm70.388,41.064c-0.389-7.233-.467-9.255-0.467-18.043v-5.833c0.078-5.211.156-10.033-2.1-13.3-3.033-4.433-8.4-4.433-9.644-4.433-6.377,0-10.655,2.878-13.766,5.056-1.089-1.789-3.033-5.056-9.255-5.056-5.133,0-8.477,2.333-12.055,4.822v-4.355l-0.7-.7c-6.066,1.167-7.777,1.478-13.222,2.255l-0.466.545c0.622,6.222,1.089,10.5,1.089,25.9,0,4.433-.078,8.944-0.078,13.377l0.389,0.466c4.977-.155,6.688-0.233,13.144-0.233l0.466-.467c-0.544-11.977-.622-15.554-0.7-29.087a9.554,9.554,0,0,1,5.367-2.178c4.822,0,4.977,5.522,4.977,12.211,0,11.277-.078,12.988-0.233,19.288l0.467,0.544c5.91-.311,7.544-0.311,12.91-0.311l0.467-.467c-0.467-7.388-.545-9.566-0.623-18.977v-2.877l-0.077-7.855a9.6,9.6,0,0,1,5.366-1.945c4.433,0,5.133,4.2,5.133,10.889,0,1.477-.078,2.955-0.078,4.433-0.077,2.644-.155,14.232-0.233,16.566l0.467,0.466c5.833-.233,7.544-0.233,12.988-0.233ZM409.905,478l-9.877.155-0.467.467c0.311,10.111.544,16.877,0.544,25.821,0,9.488-.233,18.9-0.466,28.387l0.466,0.467c5.756-.233,7-0.311,13.222-0.233l0.389-.467c-0.311-8.477-.311-10.422-0.311-18.355,8.71,0.078,18.043.078,23.643-6.766a19.985,19.985,0,0,0,4.044-12.521c0-3.345-.777-10.733-7.233-14.389-4.666-2.722-11.277-2.722-17.11-2.722Zm3.5,9.41c1.711-.077,3.344-0.077,5.055-0.077,6.844,0.155,8.711,3.655,8.711,8.166,0,1.089,0,5.6-4.122,7.855-2.1,1.167-4.978,1.322-9.644,1.322V487.412Zm66.11,22.477c0.078-7,.078-10.033-1.945-13.3-1.555-2.489-4.666-5.6-14.621-5.6a47.308,47.308,0,0,0-15.244,2.567l-0.466.622-0.389,8.477,0.622,0.311c2.722-1.089,7.777-3.111,12.988-3.111,2.878,0,4.044.467,5.055,1.478a4.9,4.9,0,0,1,1.012,3.344c-9.333,1.245-13.689,2.1-18.355,4.978a12.435,12.435,0,0,0-5.833,10.655c0,8.322,5.988,13.688,13.61,13.688a16.082,16.082,0,0,0,10.811-4.122v2.878l0.467,0.544c5.6-.233,7.31-0.311,12.366-0.233l0.388-.545c-0.544-7.621-.544-9.566-0.544-16.877Zm-12.833,12.366a12.6,12.6,0,0,1-6.3,2.022c-2.8,0-5.133-1.477-5.133-4.744,0-5.133,6.144-5.989,11.433-6.688v9.41Zm44.411-18.043,2.178-12.678-0.467-.544c-0.544,0-1.089-.078-1.633-0.078-3.189,0-6.766,1.789-9.255,7.544l0.233-7.155-0.622-.622c-5.755,1.244-7.233,1.478-12.911,2.333l-0.466.467c0.466,5.833.7,9.333,0.7,20.143,0,6.378-.078,12.755-0.234,19.21l0.467,0.467c5.755-.233,7-0.311,13.222-0.233l0.389-.545c-0.312-6.3-.778-15.088-0.778-20.454,0-3.5,0-8.633,5.288-8.633a5.823,5.823,0,0,1,3.189,1.089Zm46.666,27.843c-7.311-12.366-8.089-13.766-14-24.421,5.366-7.311,5.91-8.089,11.432-15.166l-0.388-.778-12.678.156-0.777.544c-6.067,10.5-6.844,11.744-10.422,17.11v-8.633c0.078-14.543.155-17.654,0.544-29.4L530.849,471l-13.533,2.022-0.466.545c0.544,7.544.778,11.2,0.933,21.388,0.156,12.6.156,25.2,0.078,37.8l0.544,0.544c5.211-.233,6.689-0.233,12.6-0.233l0.466-.545-0.466-13.143-0.078-8.944c6.766,12.443,7.622,14.154,11.588,22.4l0.7,0.467,14-.544Zm-391.687,39.28-9.878.156-0.466.466c0.311,10.111.544,16.877,0.544,25.821,0,9.489-.233,18.9-0.467,28.388l0.467,0.466c5.755-.233,7-0.311,13.222-0.233l0.388-.467c-0.311-8.477-.311-10.421-0.311-18.354,8.711,0.078,18.044.078,23.644-6.767a19.991,19.991,0,0,0,4.044-12.521c0-3.344-.778-10.733-7.233-14.388-4.667-2.722-11.277-2.722-17.11-2.722Zm3.5,9.411c1.711-.078,3.345-0.078,5.056-0.078,6.844,0.156,8.71,3.655,8.71,8.166,0,1.089,0,5.6-4.122,7.855-2.1,1.167-4.977,1.323-9.644,1.323V580.746Zm55.533,16.8,2.178-12.677-0.467-.545c-0.544,0-1.089-.077-1.633-0.077-3.189,0-6.766,1.788-9.255,7.544l0.233-7.156-0.622-.622c-5.755,1.245-7.233,1.478-12.91,2.333l-0.467.467c0.467,5.833.7,9.333,0.7,20.144,0,6.377-.078,12.755-0.233,19.21l0.466,0.466c5.755-.233,7-0.311,13.222-0.233l0.389-.544c-0.311-6.3-.778-15.088-0.778-20.455,0-3.5,0-8.633,5.289-8.633a5.822,5.822,0,0,1,3.188,1.089Zm46.277,8.166c0-3.033,0-15.632-10.888-19.91A27.958,27.958,0,0,0,251,584.323c-13.532,0-21.154,7.233-21.154,21.544,0,4.977.778,10.033,3.655,14.232,2.022,3.034,5.833,7.233,16.955,7.233C266.948,627.332,271.381,617.377,271.381,605.711Zm-13.455-.078c0,6.378-.855,13.455-7.31,13.455a6.292,6.292,0,0,1-4.356-1.788c-1.322-1.323-2.8-3.967-2.8-11.511,0-2.255,0-7.233,1.556-9.955a6.44,6.44,0,0,1,5.677-3.5,6.541,6.541,0,0,1,4.978,2.411C257.537,597,257.926,601.434,257.926,605.633Zm33.756-20.843-0.622-.7a109.424,109.424,0,0,1-12.91,2.255l-0.467.545c0.856,9.255,1.167,12.833,1.167,35.232,0,9.255-.156,14.543-0.389,23.332l0.467,0.389c5.522-.234,7.155-0.311,13.066-0.234l0.466-.389-0.544-18.51c5.677-.078,13.532-0.155,19.832-6.066,4.978-4.667,6.611-11.277,6.611-16.566,0-12.366-7.544-19.832-16.255-19.832a17.112,17.112,0,0,0-10.577,3.655Zm0.156,10.577a8,8,0,0,1,4.666-1.555,6.968,6.968,0,0,1,5.445,2.333c2.411,2.644,2.8,6.611,2.8,9.255,0,4.511-1.478,8.555-4.589,10.733-2.489,1.711-5.6,1.867-8.322,1.944v-22.71Zm68.443,19.522a23.772,23.772,0,0,1-12.132,3.344c-4.667,0-7.855-1.478-9.722-4.278a11,11,0,0,1-1.711-4.744l25.121-.467,0.467-.544a45.6,45.6,0,0,0-1.245-11.588c-2.722-9.178-8.711-11.044-11.355-11.666a19.9,19.9,0,0,0-5.522-.7c-12.21,0-20.3,8.01-20.3,21.465A25.875,25.875,0,0,0,325.75,615.9c4.511,10.5,15.088,11.432,20.688,11.432,6.455,0,9.255-1.166,13.377-2.8l0.466-.623,0.545-8.788Zm-23.565-13.922c0.233-2.411.778-5.678,3.733-7.544a5.969,5.969,0,0,1,8.089,1.866,9.512,9.512,0,0,1,1.166,5.367Zm55.222-3.422,2.177-12.677-0.466-.545c-0.545,0-1.089-.077-1.634-0.077-3.188,0-6.766,1.788-9.255,7.544l0.234-7.156-0.623-.622c-5.755,1.245-7.233,1.478-12.91,2.333l-0.467.467c0.467,5.833.7,9.333,0.7,20.144,0,6.377-.078,12.755-0.233,19.21l0.467,0.466c5.755-.233,7-0.311,13.221-0.233l0.389-.544c-0.311-6.3-.778-15.088-0.778-20.455,0-3.5,0-8.633,5.289-8.633a5.826,5.826,0,0,1,3.189,1.089Zm30.1,19.91a11.68,11.68,0,0,1-3.578.7c-3.966,0-4.278-2.489-4.433-3.655a89.421,89.421,0,0,1-.156-9.411l0.156-10.966,7,0.311,0.466-.467,0.778-8.321-0.467-.467h-7.777l0.233-13.066-0.544-.467c-5.289,1.556-6.689,1.945-12.211,3.344l-0.311.545,0.078,9.722-4.2-.156-0.467.389-0.7,8.322,0.466,0.466,4.9-.155-0.233,12.366c-0.078,1.944-.156,3.889-0.156,5.911,0,7.155.156,14.855,12.288,14.855a45.169,45.169,0,0,0,8.167-.934l0.544-.544,0.778-8.011Zm40.521-32.509-10.81.233-0.623.544c-1.322,5.367-1.633,6.533-3.5,12.6l-2.023,6.688-1.711,5.833-1.477-5.522-2.256-8.244-3.111-11.821-0.622-.467c-6.066.467-7.388,0.544-13.766,0.7l-0.389.544c2.8,7.389,10.033,26.91,14.855,41.843-3.189,8.088-3.811,9.488-7.311,17.188l0.389,0.622c1.945-.078,4.122-0.155,6.144-0.155,1.945,0,3.967.077,5.911,0.077l0.545-.466c4.277-16.8,6.377-23.333,16.643-50.4,1.167-3.111,2.333-6.144,3.422-9.177Z"/>
</svg>
