<?xml version="1.0" encoding="UTF-8"?>
<svg xmlns="http://www.w3.org/2000/svg" xmlns:xlink="http://www.w3.org/1999/xlink" width="975" height="1300" viewBox="0 0 975 1300">
<path fill-rule="nonzero" fill="rgb(34.901961%, 14.901961%, 14.901961%)" fill-opacity="1" d="M 240.9375 531.375 C 227.9375 531.75 225.8125 531.75 211.9375 531.75 L 211.1875 532.5 L 205.4375 552.75 L 200.4375 570.875 L 194.5625 592.625 L 189.0625 570.25 L 185.5625 556.125 L 179.3125 532.125 L 178.6875 531.375 C 165.3125 531.75 163.0625 531.75 149.0625 531.75 L 148.3125 532.5 C 147.0625 569.875 146.5625 579.5 143.8125 619.625 L 144.4375 620.375 C 152.4375 620 154.8125 619.875 162.0625 620 L 162.8125 619.25 L 163.1875 595.375 L 163.9375 571.125 L 164.4375 547.5 L 169.9375 569.625 L 174.6875 587.375 L 183.0625 619.625 L 183.8125 620.375 C 191.5625 620 193.6875 619.875 202.4375 620 L 203.1875 619.25 L 210.4375 592.625 L 215.4375 574.375 L 222.4375 548.125 L 222.4375 570.5 L 222.6875 589.625 L 222.6875 619.625 L 223.3125 620.375 C 231.9375 620 235.3125 619.875 244.9375 620 L 245.5625 619.25 C 244.8125 605 243.9375 590.625 243.4375 576.25 C 243.0625 568.375 242.8125 560.5 242.4375 552.625 C 241.8125 541 241.6875 539.5 241.6875 532.125 Z M 323.3125 586.75 C 323.3125 581.875 323.3125 561.625 305.8125 554.75 C 300.3125 552.625 293.8125 552.375 290.5625 552.375 C 268.8125 552.375 256.5625 564 256.5625 587 C 256.5625 595 257.8125 603.125 262.4375 609.875 C 265.6875 614.75 271.8125 621.5 289.6875 621.5 C 316.1875 621.5 323.3125 605.5 323.3125 586.75 M 301.6875 586.625 C 301.6875 596.875 300.3125 608.25 289.9375 608.25 C 286.6875 608.25 284.4375 606.75 282.9375 605.375 C 280.8125 603.25 278.4375 599 278.4375 586.875 C 278.4375 583.25 278.4375 575.25 280.9375 570.875 C 282.8125 567.5 286.0625 565.25 290.0625 565.25 C 293.5625 565.25 296.4375 567.125 298.0625 569.125 C 301.0625 572.75 301.6875 579.875 301.6875 586.625 Z M 396.4375 619.125 C 395.8125 608.125 395.8125 604.625 395.5625 592.375 L 395.5625 582.625 C 395.4375 570.625 395.3125 564.875 392.1875 559.75 C 388.3125 553.25 381.1875 552.25 376.6875 552.25 C 369.0625 552.25 362.4375 556.25 356.6875 559.625 L 356.9375 552.75 L 355.6875 551.875 C 346.0625 553.875 343.9375 554.25 334.5625 555.5 L 333.8125 556.375 C 334.8125 567.25 335.5625 575.125 335.5625 595.5 C 335.5625 603.5 335.4375 611.5 335.3125 619.5 L 336.0625 620.25 C 345.0625 619.875 346.9375 619.875 356.9375 619.875 L 357.6875 619.125 C 356.9375 599.875 356.8125 595 356.6875 572.625 C 359.3125 570.875 362.3125 568.75 366.3125 568.75 C 373.1875 568.75 373.8125 576.125 374.1875 580.625 C 374.4375 584.75 374.5625 601.875 374.5625 606.625 C 374.5625 610.875 374.4375 615.25 374.4375 619.5 L 375.1875 620.25 C 383.4375 620 385.5625 619.875 395.5625 619.875 Z M 445.6875 605.625 C 443.5625 606.25 442.0625 606.75 439.9375 606.75 C 433.5625 606.75 433.0625 602.75 432.8125 600.875 C 432.4375 597.625 432.4375 590.75 432.5625 585.75 L 432.8125 568.125 L 444.0625 568.625 L 444.8125 567.875 L 446.0625 554.5 L 445.3125 553.75 L 432.8125 553.75 L 433.1875 532.75 L 432.3125 532 C 423.8125 534.5 421.5625 535.125 412.6875 537.375 L 412.1875 538.25 L 412.3125 553.875 L 405.5625 553.625 L 404.8125 554.25 L 403.6875 567.625 L 404.4375 568.375 L 412.3125 568.125 L 411.9375 588 C 411.8125 591.125 411.6875 594.25 411.6875 597.5 C 411.6875 609 411.9375 621.375 431.4375 621.375 C 436.3125 621.375 440.1875 620.625 444.5625 619.875 L 445.4375 619 L 446.6875 606.125 Z M 510.5625 582.75 C 510.6875 571.5 510.6875 566.625 507.4375 561.375 C 504.9375 557.375 499.9375 552.375 483.9375 552.375 C 473.1875 552.375 466.5625 554.375 459.4375 556.5 L 458.6875 557.5 L 458.0625 571.125 L 459.0625 571.625 C 463.4375 569.875 471.5625 566.625 479.9375 566.625 C 484.5625 566.625 486.4375 567.375 488.0625 569 C 489.3125 570.25 489.6875 572.5 489.6875 574.375 C 474.6875 576.375 467.6875 577.75 460.1875 582.375 C 453.1875 586.75 450.8125 593.875 450.8125 599.5 C 450.8125 612.875 460.4375 621.5 472.6875 621.5 C 482.0625 621.5 487.4375 617 490.0625 614.875 L 490.0625 619.5 L 490.8125 620.375 C 499.8125 620 502.5625 619.875 510.6875 620 L 511.3125 619.125 C 510.4375 606.875 510.4375 603.75 510.4375 592 L 510.5625 582.75 M 489.9375 602.625 C 487.3125 604.125 483.9375 605.875 479.8125 605.875 C 475.3125 605.875 471.5625 603.5 471.5625 598.25 C 471.5625 590 481.4375 588.625 489.9375 587.5 Z M 586.4375 619.125 C 585.8125 608.125 585.8125 604.625 585.5625 592.375 L 585.5625 582.625 C 585.4375 570.625 585.3125 564.875 582.1875 559.75 C 578.3125 553.25 571.1875 552.25 566.6875 552.25 C 559.0625 552.25 552.4375 556.25 546.6875 559.625 L 546.9375 552.75 L 545.6875 551.875 C 536.0625 553.875 533.9375 554.25 524.5625 555.5 L 523.8125 556.375 C 524.8125 567.25 525.5625 575.125 525.5625 595.5 C 525.5625 603.5 525.4375 611.5 525.3125 619.5 L 526.0625 620.25 C 535.0625 619.875 536.9375 619.875 546.9375 619.875 L 547.6875 619.125 C 546.9375 599.875 546.8125 595 546.6875 572.625 C 549.3125 570.875 552.3125 568.75 556.3125 568.75 C 563.1875 568.75 563.8125 576.125 564.1875 580.625 C 564.4375 584.75 564.5625 601.875 564.5625 606.625 C 564.5625 610.875 564.4375 615.25 564.4375 619.5 L 565.1875 620.25 C 573.4375 620 575.5625 619.875 585.5625 619.875 L 586.4375 619.125 M 575.6875 525.25 C 572.9375 527.625 569.3125 530.875 564.8125 530.875 C 562.0625 530.875 559.4375 529.875 556.6875 529 L 551.8125 527.25 C 549.4375 526.5 547.6875 526 545.1875 526 C 539.4375 526 536.9375 528.125 534.1875 530.25 L 533.6875 531.25 L 533.5625 544.375 L 534.3125 544.75 C 537.0625 542.875 540.5625 540.5 544.9375 540.5 C 547.8125 540.5 550.5625 541.5 553.4375 542.5 L 557.1875 543.875 C 559.6875 544.75 561.5625 545.5 564.3125 545.5 C 569.8125 545.5 573.1875 542.875 576.0625 540.625 L 576.5625 539.625 L 576.5625 525.625 Z M 656.3125 582.75 C 656.4375 571.5 656.4375 566.625 653.1875 561.375 C 650.6875 557.375 645.6875 552.375 629.6875 552.375 C 618.9375 552.375 612.3125 554.375 605.1875 556.5 L 604.4375 557.5 L 603.8125 571.125 L 604.8125 571.625 C 609.1875 569.875 617.3125 566.625 625.6875 566.625 C 630.3125 566.625 632.1875 567.375 633.8125 569 C 635.0625 570.25 635.4375 572.5 635.4375 574.375 C 620.4375 576.375 613.4375 577.75 605.9375 582.375 C 598.9375 586.75 596.5625 593.875 596.5625 599.5 C 596.5625 612.875 606.1875 621.5 618.4375 621.5 C 627.8125 621.5 633.1875 617 635.8125 614.875 L 635.8125 619.5 L 636.5625 620.375 C 645.5625 620 648.3125 619.875 656.4375 620 L 657.0625 619.125 C 656.1875 606.875 656.1875 603.75 656.1875 592 L 656.3125 582.75 M 635.6875 602.625 C 633.0625 604.125 629.6875 605.875 625.5625 605.875 C 621.0625 605.875 617.3125 603.5 617.3125 598.25 C 617.3125 590 627.1875 588.625 635.6875 587.5 Z M 768.6875 619.25 C 768.1875 608 767.8125 600.5 767.8125 584.125 C 767.8125 551.125 768.3125 537.5 768.8125 521 L 767.9375 520.25 L 747.3125 523.5 L 746.6875 524.25 C 747.4375 536 747.5625 539.125 747.4375 553.375 C 738.0625 553.125 726.3125 552.875 716.8125 560.375 C 708.0625 567.125 704.4375 577.5 704.4375 590.375 C 704.4375 600.125 707.0625 609.875 714.4375 616 C 719.9375 620.5 726.6875 621.5 730.8125 621.5 C 739.6875 621.5 744.3125 617.375 747.3125 614.75 L 747.0625 619.625 L 747.6875 620.375 C 756.3125 620 758.6875 620 768.0625 620 L 768.6875 619.25 M 747.4375 568.375 C 747.5625 585 747.4375 588.25 747.0625 603.375 C 744.5625 604.875 742.0625 606.375 738.5625 606.375 C 726.4375 606.375 726.4375 590.875 726.4375 588.375 C 726.4375 578.75 729.1875 568 743.1875 568 C 744.5625 568 745.6875 568.125 747.4375 568.375 Z M 838.4375 601.5 C 833.6875 604 828.0625 606.875 818.9375 606.875 C 811.4375 606.875 806.3125 604.5 803.3125 600 C 801.4375 597.375 801.0625 594.875 800.5625 592.375 L 840.9375 591.625 L 841.6875 590.75 C 841.5625 584.625 841.4375 578.375 839.6875 572.125 C 835.3125 557.375 825.6875 554.375 821.4375 553.375 C 818.3125 552.5 815.4375 552.25 812.5625 552.25 C 792.9375 552.25 779.9375 565.125 779.9375 586.75 C 779.9375 592.625 780.9375 598.75 782.9375 603.125 C 790.1875 620 807.1875 621.5 816.1875 621.5 C 826.5625 621.5 831.0625 619.625 837.6875 617 L 838.4375 616 L 839.3125 601.875 L 838.4375 601.5 M 800.5625 579.125 C 800.9375 575.25 801.8125 570 806.5625 567 C 808.0625 566 809.8125 565.625 811.5625 565.625 C 815.6875 565.625 818.1875 567.75 819.5625 570 C 821.3125 572.75 821.4375 575.75 821.4375 578.625 Z M 845.6875 620 "/>
<path fill-rule="nonzero" fill="rgb(34.901961%, 14.901961%, 14.901961%)" fill-opacity="1" d="M 141.875 693.25 C 139.75 690.5 137.25 688.125 134.375 686.25 C 128 682 119.25 679.875 110.5 679.875 C 102.75 679.875 94.875 681.25 88.125 685.125 C 72.875 693.875 70.125 708.375 69.125 713.625 C 68.375 717.875 68 722.125 68 726.375 C 68 734.875 69 750.875 80.75 761.75 C 90.25 770.625 103.25 771.875 109.625 771.875 C 119.25 771.875 129 769.625 136.375 763.5 C 148.75 753.25 151.25 736.25 151.25 725.625 C 151.25 706 145 697.125 141.875 693.25 M 122.125 701.25 C 124.625 704.125 125.75 707.75 126.5 711.375 C 127.5 716.125 127.75 720.625 127.875 723.75 C 128.375 742.5 124.375 756 109.875 756 C 92.5 756 91.375 735.75 91.375 724.5 C 91.375 709.5 95 701.75 100.875 698 C 104.25 696 107.625 695.5 110 695.5 C 114.75 695.5 119.125 697.625 122.125 701.25 Z M 200.125 723.625 L 203.625 703.25 L 202.875 702.375 C 202 702.375 201.125 702.25 200.25 702.25 C 195.125 702.25 189.375 705.125 185.375 714.375 L 185.75 702.875 L 184.75 701.875 C 175.5 703.875 173.125 704.25 164 705.625 L 163.25 706.375 C 164 715.75 164.375 721.375 164.375 738.75 C 164.375 749 164.25 759.25 164 769.625 L 164.75 770.375 C 174 770 176 769.875 186 770 L 186.625 769.125 C 186.125 759 185.375 744.875 185.375 736.25 C 185.375 730.625 185.375 722.375 193.875 722.375 C 196 722.375 197.25 723.125 199 724.125 Z M 274.5 736.75 C 274.5 731.875 274.5 711.625 257 704.75 C 251.5 702.625 245 702.375 241.75 702.375 C 220 702.375 207.75 714 207.75 737 C 207.75 745 209 753.125 213.625 759.875 C 216.875 764.75 223 771.5 240.875 771.5 C 267.375 771.5 274.5 755.5 274.5 736.75 M 252.875 736.625 C 252.875 746.875 251.5 758.25 241.125 758.25 C 237.875 758.25 235.625 756.75 234.125 755.375 C 232 753.25 229.625 749 229.625 736.875 C 229.625 733.25 229.625 725.25 232.125 720.875 C 234 717.5 237.25 715.25 241.25 715.25 C 244.75 715.25 247.625 717.125 249.25 719.125 C 252.25 722.75 252.875 729.875 252.875 736.625 Z M 359 716.25 C 348.5 711.875 343 709.625 343 704 C 343 700.125 346.625 695.25 354.875 695.25 C 364.375 695.25 370 699.125 374.625 702.25 L 375.75 701.75 L 376.75 685.375 L 376.125 684.5 C 370.75 682.25 365.125 679.875 353 679.875 C 329.5 679.875 321.375 693.125 321.375 706.5 C 321.375 721.625 333.125 727.125 340.125 730.5 L 344.25 732.375 C 352.875 736 359.5 739.125 359.5 745.75 C 359.5 750.5 355.375 756.125 344.5 756.125 C 333.125 756.125 326.75 751.125 323.125 748.25 L 321.875 748.625 L 321 766.25 L 321.75 767.25 C 323.125 767.75 324.5 768.375 325.875 768.75 C 328.75 769.75 336.125 771.875 345.5 771.875 C 349.25 771.875 358.75 771.5 366.25 768 C 376.75 762.875 381.25 753.375 381.25 742.75 C 381.25 735.625 378.5 728 371.875 722.875 C 368.5 720.375 365.25 718.875 362.25 717.5 Z M 428.125 755.625 C 426 756.25 424.5 756.75 422.375 756.75 C 416 756.75 415.5 752.75 415.25 750.875 C 414.875 747.625 414.875 740.75 415 735.75 L 415.25 718.125 L 426.5 718.625 L 427.25 717.875 L 428.5 704.5 L 427.75 703.75 L 415.25 703.75 L 415.625 682.75 L 414.75 682 C 406.25 684.5 404 685.125 395.125 687.375 L 394.625 688.25 L 394.75 703.875 L 388 703.625 L 387.25 704.25 L 386.125 717.625 L 386.875 718.375 L 394.75 718.125 L 394.375 738 C 394.25 741.125 394.125 744.25 394.125 747.5 C 394.125 759 394.375 771.375 413.875 771.375 C 418.75 771.375 422.625 770.625 427 769.875 L 427.875 769 L 429.125 756.125 Z M 493 732.75 C 493.125 721.5 493.125 716.625 489.875 711.375 C 487.375 707.375 482.375 702.375 466.375 702.375 C 455.625 702.375 449 704.375 441.875 706.5 L 441.125 707.5 L 440.5 721.125 L 441.5 721.625 C 445.875 719.875 454 716.625 462.375 716.625 C 467 716.625 468.875 717.375 470.5 719 C 471.75 720.25 472.125 722.5 472.125 724.375 C 457.125 726.375 450.125 727.75 442.625 732.375 C 435.625 736.75 433.25 743.875 433.25 749.5 C 433.25 762.875 442.875 771.5 455.125 771.5 C 464.5 771.5 469.875 767 472.5 764.875 L 472.5 769.5 L 473.25 770.375 C 482.25 770 485 769.875 493.125 770 L 493.75 769.125 C 492.875 756.875 492.875 753.75 492.875 742 L 493 732.75 M 472.375 752.625 C 469.75 754.125 466.375 755.875 462.25 755.875 C 457.75 755.875 454 753.5 454 748.25 C 454 740 463.875 738.625 472.375 737.5 Z M 542.625 755.625 C 540.5 756.25 539 756.75 536.875 756.75 C 530.5 756.75 530 752.75 529.75 750.875 C 529.375 747.625 529.375 740.75 529.5 735.75 L 529.75 718.125 L 541 718.625 L 541.75 717.875 L 543 704.5 L 542.25 703.75 L 529.75 703.75 L 530.125 682.75 L 529.25 682 C 520.75 684.5 518.5 685.125 509.625 687.375 L 509.125 688.25 L 509.25 703.875 L 502.5 703.625 L 501.75 704.25 L 500.625 717.625 L 501.375 718.375 L 509.25 718.125 L 508.875 738 C 508.75 741.125 508.625 744.25 508.625 747.5 C 508.625 759 508.875 771.375 528.375 771.375 C 533.25 771.375 537.125 770.625 541.5 769.875 L 542.375 769 L 543.625 756.125 Z M 607.375 751.5 C 602.625 754 597 756.875 587.875 756.875 C 580.375 756.875 575.25 754.5 572.25 750 C 570.375 747.375 570 744.875 569.5 742.375 L 609.875 741.625 L 610.625 740.75 C 610.5 734.625 610.375 728.375 608.625 722.125 C 604.25 707.375 594.625 704.375 590.375 703.375 C 587.25 702.5 584.375 702.25 581.5 702.25 C 561.875 702.25 548.875 715.125 548.875 736.75 C 548.875 742.625 549.875 748.75 551.875 753.125 C 559.125 770 576.125 771.5 585.125 771.5 C 595.5 771.5 600 769.625 606.625 767 L 607.375 766 L 608.25 751.875 L 607.375 751.5 M 569.5 729.125 C 569.875 725.25 570.75 720 575.5 717 C 577 716 578.75 715.625 580.5 715.625 C 584.625 715.625 587.125 717.75 588.5 720 C 590.25 722.75 590.375 725.75 590.375 728.625 Z M 675.375 681.5 L 659.5 681.75 L 658.75 682.5 C 659.25 698.75 659.625 709.625 659.625 724 C 659.625 739.25 659.25 754.375 658.875 769.625 L 659.625 770.375 C 668.875 770 670.875 769.875 680.875 770 L 681.5 769.25 C 681 755.625 681 752.5 681 739.75 C 695 739.875 710 739.875 719 728.875 C 722.5 724.625 725.5 717.5 725.5 708.75 C 725.5 703.375 724.25 691.5 713.875 685.625 C 706.375 681.25 695.75 681.25 686.375 681.25 L 675.375 681.5 M 681 696.625 C 683.75 696.5 686.375 696.5 689.125 696.5 C 700.125 696.75 703.125 702.375 703.125 709.625 C 703.125 711.375 703.125 718.625 696.5 722.25 C 693.125 724.125 688.5 724.375 681 724.375 Z M 789.75 732.75 C 789.875 721.5 789.875 716.625 786.625 711.375 C 784.125 707.375 779.125 702.375 763.125 702.375 C 752.375 702.375 745.75 704.375 738.625 706.5 L 737.875 707.5 L 737.25 721.125 L 738.25 721.625 C 742.625 719.875 750.75 716.625 759.125 716.625 C 763.75 716.625 765.625 717.375 767.25 719 C 768.5 720.25 768.875 722.5 768.875 724.375 C 753.875 726.375 746.875 727.75 739.375 732.375 C 732.375 736.75 730 743.875 730 749.5 C 730 762.875 739.625 771.5 751.875 771.5 C 761.25 771.5 766.625 767 769.25 764.875 L 769.25 769.5 L 770 770.375 C 779 770 781.75 769.875 789.875 770 L 790.5 769.125 C 789.625 756.875 789.625 753.75 789.625 742 L 789.75 732.75 M 769.125 752.625 C 766.5 754.125 763.125 755.875 759 755.875 C 754.5 755.875 750.75 753.5 750.75 748.25 C 750.75 740 760.625 738.625 769.125 737.5 Z M 840.5 723.625 L 844 703.25 L 843.25 702.375 C 842.375 702.375 841.5 702.25 840.625 702.25 C 835.5 702.25 829.75 705.125 825.75 714.375 L 826.125 702.875 L 825.125 701.875 C 815.875 703.875 813.5 704.25 804.375 705.625 L 803.625 706.375 C 804.375 715.75 804.75 721.375 804.75 738.75 C 804.75 749 804.625 759.25 804.375 769.625 L 805.125 770.375 C 814.375 770 816.375 769.875 826.375 770 L 827 769.125 C 826.5 759 825.75 744.875 825.75 736.25 C 825.75 730.625 825.75 722.375 834.25 722.375 C 836.375 722.375 837.625 723.125 839.375 724.125 Z M 915.5 768.375 C 903.75 748.5 902.5 746.25 893 729.125 C 901.625 717.375 902.5 716.125 911.375 704.75 L 910.75 703.5 L 890.375 703.75 L 889.125 704.625 C 879.375 721.5 878.125 723.5 872.375 732.125 L 872.375 718.25 C 872.5 694.875 872.625 689.875 873.25 671 L 872.25 670.25 L 850.5 673.5 L 849.75 674.375 C 850.625 686.5 851 692.375 851.25 708.75 C 851.5 729 851.5 749.25 851.375 769.5 L 852.25 770.375 C 860.625 770 863 770 872.5 770 L 873.25 769.125 L 872.5 748 L 872.375 733.625 C 883.25 753.625 884.625 756.375 891 769.625 L 892.125 770.375 L 914.625 769.5 Z M 914 770 "/>
</svg>
