<?xml version="1.0" encoding="UTF-8"?>
<svg xmlns="http://www.w3.org/2000/svg" xmlns:xlink="http://www.w3.org/1999/xlink" width="975" height="1300" viewBox="0 0 975 1300">
<path fill-rule="nonzero" fill="rgb(34.901961%, 14.901961%, 14.901961%)" fill-opacity="1" d="M 207.0625 531.375 C 194.0625 531.75 191.9375 531.75 178.0625 531.75 L 177.3125 532.5 L 171.5625 552.75 L 166.5625 570.875 L 160.6875 592.625 L 155.1875 570.25 L 151.6875 556.125 L 145.4375 532.125 L 144.8125 531.375 C 131.4375 531.75 129.1875 531.75 115.1875 531.75 L 114.4375 532.5 C 113.1875 569.875 112.6875 579.5 109.9375 619.625 L 110.5625 620.375 C 118.5625 620 120.9375 619.875 128.1875 620 L 128.9375 619.25 L 129.3125 595.375 L 130.0625 571.125 L 130.5625 547.5 L 136.0625 569.625 L 140.8125 587.375 L 149.1875 619.625 L 149.9375 620.375 C 157.6875 620 159.8125 619.875 168.5625 620 L 169.3125 619.25 L 176.5625 592.625 L 181.5625 574.375 L 188.5625 548.125 L 188.5625 570.5 L 188.8125 589.625 L 188.8125 619.625 L 189.4375 620.375 C 198.0625 620 201.4375 619.875 211.0625 620 L 211.6875 619.25 C 210.9375 605 210.0625 590.625 209.5625 576.25 C 209.1875 568.375 208.9375 560.5 208.5625 552.625 C 207.9375 541 207.8125 539.5 207.8125 532.125 Z M 289.4375 586.75 C 289.4375 581.875 289.4375 561.625 271.9375 554.75 C 266.4375 552.625 259.9375 552.375 256.6875 552.375 C 234.9375 552.375 222.6875 564 222.6875 587 C 222.6875 595 223.9375 603.125 228.5625 609.875 C 231.8125 614.75 237.9375 621.5 255.8125 621.5 C 282.3125 621.5 289.4375 605.5 289.4375 586.75 M 267.8125 586.625 C 267.8125 596.875 266.4375 608.25 256.0625 608.25 C 252.8125 608.25 250.5625 606.75 249.0625 605.375 C 246.9375 603.25 244.5625 599 244.5625 586.875 C 244.5625 583.25 244.5625 575.25 247.0625 570.875 C 248.9375 567.5 252.1875 565.25 256.1875 565.25 C 259.6875 565.25 262.5625 567.125 264.1875 569.125 C 267.1875 572.75 267.8125 579.875 267.8125 586.625 Z M 337.4375 573.625 L 340.9375 553.25 L 340.1875 552.375 C 339.3125 552.375 338.4375 552.25 337.5625 552.25 C 332.4375 552.25 326.6875 555.125 322.6875 564.375 L 323.0625 552.875 L 322.0625 551.875 C 312.8125 553.875 310.4375 554.25 301.3125 555.625 L 300.5625 556.375 C 301.3125 565.75 301.6875 571.375 301.6875 588.75 C 301.6875 599 301.5625 609.25 301.3125 619.625 L 302.0625 620.375 C 311.3125 620 313.3125 619.875 323.3125 620 L 323.9375 619.125 C 323.4375 609 322.6875 594.875 322.6875 586.25 C 322.6875 580.625 322.6875 572.375 331.1875 572.375 C 333.3125 572.375 334.5625 573.125 336.3125 574.125 Z M 384.3125 573.625 L 387.8125 553.25 L 387.0625 552.375 C 386.1875 552.375 385.3125 552.25 384.4375 552.25 C 379.3125 552.25 373.5625 555.125 369.5625 564.375 L 369.9375 552.875 L 368.9375 551.875 C 359.6875 553.875 357.3125 554.25 348.1875 555.625 L 347.4375 556.375 C 348.1875 565.75 348.5625 571.375 348.5625 588.75 C 348.5625 599 348.4375 609.25 348.1875 619.625 L 348.9375 620.375 C 358.1875 620 360.1875 619.875 370.1875 620 L 370.8125 619.125 C 370.3125 609 369.5625 594.875 369.5625 586.25 C 369.5625 580.625 369.5625 572.375 378.0625 572.375 C 380.1875 572.375 381.4375 573.125 383.1875 574.125 Z M 458.6875 586.75 C 458.6875 581.875 458.6875 561.625 441.1875 554.75 C 435.6875 552.625 429.1875 552.375 425.9375 552.375 C 404.1875 552.375 391.9375 564 391.9375 587 C 391.9375 595 393.1875 603.125 397.8125 609.875 C 401.0625 614.75 407.1875 621.5 425.0625 621.5 C 451.5625 621.5 458.6875 605.5 458.6875 586.75 M 437.0625 586.625 C 437.0625 596.875 435.6875 608.25 425.3125 608.25 C 422.0625 608.25 419.8125 606.75 418.3125 605.375 C 416.1875 603.25 413.8125 599 413.8125 586.875 C 413.8125 583.25 413.8125 575.25 416.3125 570.875 C 418.1875 567.5 421.4375 565.25 425.4375 565.25 C 428.9375 565.25 431.8125 567.125 433.4375 569.125 C 436.4375 572.75 437.0625 579.875 437.0625 586.625 Z M 543.1875 566.25 C 532.6875 561.875 527.1875 559.625 527.1875 554 C 527.1875 550.125 530.8125 545.25 539.0625 545.25 C 548.5625 545.25 554.1875 549.125 558.8125 552.25 L 559.9375 551.75 L 560.9375 535.375 L 560.3125 534.5 C 554.9375 532.25 549.3125 529.875 537.1875 529.875 C 513.6875 529.875 505.5625 543.125 505.5625 556.5 C 505.5625 571.625 517.3125 577.125 524.3125 580.5 L 528.4375 582.375 C 537.0625 586 543.6875 589.125 543.6875 595.75 C 543.6875 600.5 539.5625 606.125 528.6875 606.125 C 517.3125 606.125 510.9375 601.125 507.3125 598.25 L 506.0625 598.625 L 505.1875 616.25 L 505.9375 617.25 C 507.3125 617.75 508.6875 618.375 510.0625 618.75 C 512.9375 619.75 520.3125 621.875 529.6875 621.875 C 533.4375 621.875 542.9375 621.5 550.4375 618 C 560.9375 612.875 565.4375 603.375 565.4375 592.75 C 565.4375 585.625 562.6875 578 556.0625 572.875 C 552.6875 570.375 549.4375 568.875 546.4375 567.5 Z M 612.3125 605.625 C 610.1875 606.25 608.6875 606.75 606.5625 606.75 C 600.1875 606.75 599.6875 602.75 599.4375 600.875 C 599.0625 597.625 599.0625 590.75 599.1875 585.75 L 599.4375 568.125 L 610.6875 568.625 L 611.4375 567.875 L 612.6875 554.5 L 611.9375 553.75 L 599.4375 553.75 L 599.8125 532.75 L 598.9375 532 C 590.4375 534.5 588.1875 535.125 579.3125 537.375 L 578.8125 538.25 L 578.9375 553.875 L 572.1875 553.625 L 571.4375 554.25 L 570.3125 567.625 L 571.0625 568.375 L 578.9375 568.125 L 578.5625 588 C 578.4375 591.125 578.3125 594.25 578.3125 597.5 C 578.3125 609 578.5625 621.375 598.0625 621.375 C 602.9375 621.375 606.8125 620.625 611.1875 619.875 L 612.0625 619 L 613.3125 606.125 Z M 657.6875 573.625 L 661.1875 553.25 L 660.4375 552.375 C 659.5625 552.375 658.6875 552.25 657.8125 552.25 C 652.6875 552.25 646.9375 555.125 642.9375 564.375 L 643.3125 552.875 L 642.3125 551.875 C 633.0625 553.875 630.6875 554.25 621.5625 555.625 L 620.8125 556.375 C 621.5625 565.75 621.9375 571.375 621.9375 588.75 C 621.9375 599 621.8125 609.25 621.5625 619.625 L 622.3125 620.375 C 631.5625 620 633.5625 619.875 643.5625 620 L 644.1875 619.125 C 643.6875 609 642.9375 594.875 642.9375 586.25 C 642.9375 580.625 642.9375 572.375 651.4375 572.375 C 653.5625 572.375 654.8125 573.125 656.5625 574.125 Z M 724.0625 582.75 C 724.1875 571.5 724.1875 566.625 720.9375 561.375 C 718.4375 557.375 713.4375 552.375 697.4375 552.375 C 686.6875 552.375 680.0625 554.375 672.9375 556.5 L 672.1875 557.5 L 671.5625 571.125 L 672.5625 571.625 C 676.9375 569.875 685.0625 566.625 693.4375 566.625 C 698.0625 566.625 699.9375 567.375 701.5625 569 C 702.8125 570.25 703.1875 572.5 703.1875 574.375 C 688.1875 576.375 681.1875 577.75 673.6875 582.375 C 666.6875 586.75 664.3125 593.875 664.3125 599.5 C 664.3125 612.875 673.9375 621.5 686.1875 621.5 C 695.5625 621.5 700.9375 617 703.5625 614.875 L 703.5625 619.5 L 704.3125 620.375 C 713.3125 620 716.0625 619.875 724.1875 620 L 724.8125 619.125 C 723.9375 606.875 723.9375 603.75 723.9375 592 L 724.0625 582.75 M 703.4375 602.625 C 700.8125 604.125 697.4375 605.875 693.3125 605.875 C 688.8125 605.875 685.0625 603.5 685.0625 598.25 C 685.0625 590 694.9375 588.625 703.4375 587.5 Z M 799.9375 619.125 C 799.3125 608.125 799.3125 604.625 799.0625 592.375 L 799.0625 582.625 C 798.9375 570.625 798.8125 564.875 795.6875 559.75 C 791.8125 553.25 784.6875 552.25 780.1875 552.25 C 772.5625 552.25 765.9375 556.25 760.1875 559.625 L 760.4375 552.75 L 759.1875 551.875 C 749.5625 553.875 747.4375 554.25 738.0625 555.5 L 737.3125 556.375 C 738.3125 567.25 739.0625 575.125 739.0625 595.5 C 739.0625 603.5 738.9375 611.5 738.8125 619.5 L 739.5625 620.25 C 748.5625 619.875 750.4375 619.875 760.4375 619.875 L 761.1875 619.125 C 760.4375 599.875 760.3125 595 760.1875 572.625 C 762.8125 570.875 765.8125 568.75 769.8125 568.75 C 776.6875 568.75 777.3125 576.125 777.6875 580.625 C 777.9375 584.75 778.0625 601.875 778.0625 606.625 C 778.0625 610.875 777.9375 615.25 777.9375 619.5 L 778.6875 620.25 C 786.9375 620 789.0625 619.875 799.0625 619.875 Z M 875.4375 619.25 C 874.9375 608 874.5625 600.5 874.5625 584.125 C 874.5625 551.125 875.0625 537.5 875.5625 521 L 874.6875 520.25 L 854.0625 523.5 L 853.4375 524.25 C 854.1875 536 854.3125 539.125 854.1875 553.375 C 844.8125 553.125 833.0625 552.875 823.5625 560.375 C 814.8125 567.125 811.1875 577.5 811.1875 590.375 C 811.1875 600.125 813.8125 609.875 821.1875 616 C 826.6875 620.5 833.4375 621.5 837.5625 621.5 C 846.4375 621.5 851.0625 617.375 854.0625 614.75 L 853.8125 619.625 L 854.4375 620.375 C 863.0625 620 865.4375 620 874.8125 620 L 875.4375 619.25 M 854.1875 568.375 C 854.3125 585 854.1875 588.25 853.8125 603.375 C 851.3125 604.875 848.8125 606.375 845.3125 606.375 C 833.1875 606.375 833.1875 590.875 833.1875 588.375 C 833.1875 578.75 835.9375 568 849.9375 568 C 851.3125 568 852.4375 568.125 854.1875 568.375 Z M 882.1875 620 "/>
<path fill-rule="nonzero" fill="rgb(34.901961%, 14.901961%, 14.901961%)" fill-opacity="1" d="M 190.125 716.25 C 179.625 711.875 174.125 709.625 174.125 704 C 174.125 700.125 177.75 695.25 186 695.25 C 195.5 695.25 201.125 699.125 205.75 702.25 L 206.875 701.75 L 207.875 685.375 L 207.25 684.5 C 201.875 682.25 196.25 679.875 184.125 679.875 C 160.625 679.875 152.5 693.125 152.5 706.5 C 152.5 721.625 164.25 727.125 171.25 730.5 L 175.375 732.375 C 184 736 190.625 739.125 190.625 745.75 C 190.625 750.5 186.5 756.125 175.625 756.125 C 164.25 756.125 157.875 751.125 154.25 748.25 L 153 748.625 L 152.125 766.25 L 152.875 767.25 C 154.25 767.75 155.625 768.375 157 768.75 C 159.875 769.75 167.25 771.875 176.625 771.875 C 180.375 771.875 189.875 771.5 197.375 768 C 207.875 762.875 212.375 753.375 212.375 742.75 C 212.375 735.625 209.625 728 203 722.875 C 199.625 720.375 196.375 718.875 193.375 717.5 Z M 259.25 755.625 C 257.125 756.25 255.625 756.75 253.5 756.75 C 247.125 756.75 246.625 752.75 246.375 750.875 C 246 747.625 246 740.75 246.125 735.75 L 246.375 718.125 L 257.625 718.625 L 258.375 717.875 L 259.625 704.5 L 258.875 703.75 L 246.375 703.75 L 246.75 682.75 L 245.875 682 C 237.375 684.5 235.125 685.125 226.25 687.375 L 225.75 688.25 L 225.875 703.875 L 219.125 703.625 L 218.375 704.25 L 217.25 717.625 L 218 718.375 L 225.875 718.125 L 225.5 738 C 225.375 741.125 225.25 744.25 225.25 747.5 C 225.25 759 225.5 771.375 245 771.375 C 249.875 771.375 253.75 770.625 258.125 769.875 L 259 769 L 260.25 756.125 Z M 324.125 732.75 C 324.25 721.5 324.25 716.625 321 711.375 C 318.5 707.375 313.5 702.375 297.5 702.375 C 286.75 702.375 280.125 704.375 273 706.5 L 272.25 707.5 L 271.625 721.125 L 272.625 721.625 C 277 719.875 285.125 716.625 293.5 716.625 C 298.125 716.625 300 717.375 301.625 719 C 302.875 720.25 303.25 722.5 303.25 724.375 C 288.25 726.375 281.25 727.75 273.75 732.375 C 266.75 736.75 264.375 743.875 264.375 749.5 C 264.375 762.875 274 771.5 286.25 771.5 C 295.625 771.5 301 767 303.625 764.875 L 303.625 769.5 L 304.375 770.375 C 313.375 770 316.125 769.875 324.25 770 L 324.875 769.125 C 324 756.875 324 753.75 324 742 L 324.125 732.75 M 303.5 752.625 C 300.875 754.125 297.5 755.875 293.375 755.875 C 288.875 755.875 285.125 753.5 285.125 748.25 C 285.125 740 295 738.625 303.5 737.5 Z M 373.75 755.625 C 371.625 756.25 370.125 756.75 368 756.75 C 361.625 756.75 361.125 752.75 360.875 750.875 C 360.5 747.625 360.5 740.75 360.625 735.75 L 360.875 718.125 L 372.125 718.625 L 372.875 717.875 L 374.125 704.5 L 373.375 703.75 L 360.875 703.75 L 361.25 682.75 L 360.375 682 C 351.875 684.5 349.625 685.125 340.75 687.375 L 340.25 688.25 L 340.375 703.875 L 333.625 703.625 L 332.875 704.25 L 331.75 717.625 L 332.5 718.375 L 340.375 718.125 L 340 738 C 339.875 741.125 339.75 744.25 339.75 747.5 C 339.75 759 340 771.375 359.5 771.375 C 364.375 771.375 368.25 770.625 372.625 769.875 L 373.5 769 L 374.75 756.125 Z M 438.5 751.5 C 433.75 754 428.125 756.875 419 756.875 C 411.5 756.875 406.375 754.5 403.375 750 C 401.5 747.375 401.125 744.875 400.625 742.375 L 441 741.625 L 441.75 740.75 C 441.625 734.625 441.5 728.375 439.75 722.125 C 435.375 707.375 425.75 704.375 421.5 703.375 C 418.375 702.5 415.5 702.25 412.625 702.25 C 393 702.25 380 715.125 380 736.75 C 380 742.625 381 748.75 383 753.125 C 390.25 770 407.25 771.5 416.25 771.5 C 426.625 771.5 431.125 769.625 437.75 767 L 438.5 766 L 439.375 751.875 L 438.5 751.5 M 400.625 729.125 C 401 725.25 401.875 720 406.625 717 C 408.125 716 409.875 715.625 411.625 715.625 C 415.75 715.625 418.25 717.75 419.625 720 C 421.375 722.75 421.5 725.75 421.5 728.625 Z M 513 770 C 524.625 770.25 539 770.5 548.375 764 C 556.625 758.125 558.875 749.875 558.875 742.875 C 558.875 734.875 555.5 727.5 548.375 724 C 546 722.75 543.25 722.25 540.625 721.75 C 544.875 720 549.875 717.75 553.125 711.125 C 554.5 708.25 555.125 705.25 555.125 702.375 C 555.125 698.375 554.125 692.875 550.125 688.375 C 544.875 682.75 536.75 681.25 524.5 681.25 C 520.25 681.25 512.625 681.375 508.375 681.5 L 490.875 681.75 L 490.125 682.5 C 490.625 694.5 490.75 699.125 490.75 716.375 C 490.75 734.125 490.625 751.75 490.375 769.5 L 491.25 770 L 513 770 M 512.125 732 C 521.625 731.75 527.125 731.75 530.75 733.875 C 534.375 736.125 535.75 740.125 535.75 744.125 C 535.75 749.75 532.625 753.25 528 754.875 C 524.25 756.125 517.5 756.125 512.125 756 L 512.125 732 M 512.125 695.25 C 514.75 695.25 518.25 695.125 520.375 695.125 C 527.125 695.125 533.25 697.5 533.25 705.625 C 533.25 712.25 528.375 715 526.875 715.75 C 523.75 717.125 517.125 717.125 512.125 717.125 Z M 626 751.5 C 621.25 754 615.625 756.875 606.5 756.875 C 599 756.875 593.875 754.5 590.875 750 C 589 747.375 588.625 744.875 588.125 742.375 L 628.5 741.625 L 629.25 740.75 C 629.125 734.625 629 728.375 627.25 722.125 C 622.875 707.375 613.25 704.375 609 703.375 C 605.875 702.5 603 702.25 600.125 702.25 C 580.5 702.25 567.5 715.125 567.5 736.75 C 567.5 742.625 568.5 748.75 570.5 753.125 C 577.75 770 594.75 771.5 603.75 771.5 C 614.125 771.5 618.625 769.625 625.25 767 L 626 766 L 626.875 751.875 L 626 751.5 M 588.125 729.125 C 588.5 725.25 589.375 720 594.125 717 C 595.625 716 597.375 715.625 599.125 715.625 C 603.25 715.625 605.75 717.75 607.125 720 C 608.875 722.75 609 725.75 609 728.625 Z M 696.375 732.75 C 696.5 721.5 696.5 716.625 693.25 711.375 C 690.75 707.375 685.75 702.375 669.75 702.375 C 659 702.375 652.375 704.375 645.25 706.5 L 644.5 707.5 L 643.875 721.125 L 644.875 721.625 C 649.25 719.875 657.375 716.625 665.75 716.625 C 670.375 716.625 672.25 717.375 673.875 719 C 675.125 720.25 675.5 722.5 675.5 724.375 C 660.5 726.375 653.5 727.75 646 732.375 C 639 736.75 636.625 743.875 636.625 749.5 C 636.625 762.875 646.25 771.5 658.5 771.5 C 667.875 771.5 673.25 767 675.875 764.875 L 675.875 769.5 L 676.625 770.375 C 685.625 770 688.375 769.875 696.5 770 L 697.125 769.125 C 696.25 756.875 696.25 753.75 696.25 742 L 696.375 732.75 M 675.75 752.625 C 673.125 754.125 669.75 755.875 665.625 755.875 C 661.125 755.875 657.375 753.5 657.375 748.25 C 657.375 740 667.25 738.625 675.75 737.5 Z M 759.875 752 C 756.5 754 753.25 756 746.875 756 C 732.75 756 729.875 744.25 729.875 736.75 C 729.875 727.625 733.875 717.125 746 717.125 C 751.5 717.125 754.5 719.125 758.25 721.625 L 759.5 721.25 C 760 714.625 760.125 712.875 761.125 706.25 L 760.5 705.5 C 755 703.75 750.25 702.25 743 702.25 C 713.625 702.25 707.875 724.5 707.875 737.25 C 707.875 751.625 715.375 771.125 743.5 771.125 C 750.125 771.125 754.375 769.875 759.625 768.375 L 760.375 767.625 L 760.875 752.625 Z M 832.125 769.125 C 831.625 758.875 831.5 755.375 831.25 742.375 L 831.25 733 C 831.125 721.125 831 714.25 827.375 709 C 823.75 703.875 818.5 702.25 813 702.25 C 803.875 702.25 796.75 706.625 791.75 709.625 L 792.125 671.125 L 791.375 670.25 L 770 673.625 L 769.375 674.375 C 770.5 686.5 770.75 691 771 707.125 C 771.25 717.25 771.375 727.375 771.375 737.5 C 771.375 749.875 771.125 757.25 770.875 769.5 L 771.5 770.375 C 780.75 769.875 782.625 769.875 792.75 769.875 L 793.5 769.125 C 792.625 750.375 792.5 744.75 792.375 722.625 C 794.75 721 797.75 718.875 802 718.875 C 808.875 718.875 809.375 726 809.875 731 C 810.125 734.875 810.25 752.625 810.25 757.25 C 810.25 761.375 810.125 765.375 810.125 769.5 L 810.75 770.375 C 819.75 769.875 821.75 769.875 831.375 769.875 Z M 838.875 770 "/>
</svg>
