<?xml version="1.0" encoding="UTF-8"?>
<svg xmlns="http://www.w3.org/2000/svg" xmlns:xlink="http://www.w3.org/1999/xlink" width="975" height="1300" viewBox="0 0 975 1300">
<path fill-rule="nonzero" fill="rgb(34.901961%, 14.901961%, 14.901961%)" fill-opacity="1" d="M 125 527.875 C 111.375 528.625 100.5 528.875 96.75 528.875 L 94.25 528.875 C 94 495.5 94.125 487 95.125 457.125 L 94.375 456.375 C 83.625 456.875 80.75 456.875 72.125 456.75 L 71.375 457.5 C 71.875 467.5 72 470.5 72 485.375 C 72 505.125 71.875 524.875 71.875 544.625 L 72.5 545.375 C 97 545 101.5 545 124 545 L 124.625 544.25 L 125.625 528.5 Z M 200 511.75 C 200 506.875 200 486.625 182.5 479.75 C 177 477.625 170.5 477.375 167.25 477.375 C 145.5 477.375 133.25 489 133.25 512 C 133.25 520 134.5 528.125 139.125 534.875 C 142.375 539.75 148.5 546.5 166.375 546.5 C 192.875 546.5 200 530.5 200 511.75 M 178.375 511.625 C 178.375 521.875 177 533.25 166.625 533.25 C 163.375 533.25 161.125 531.75 159.625 530.375 C 157.5 528.25 155.125 524 155.125 511.875 C 155.125 508.25 155.125 500.25 157.625 495.875 C 159.5 492.5 162.75 490.25 166.75 490.25 C 170.25 490.25 173.125 492.125 174.75 494.125 C 177.75 497.75 178.375 504.875 178.375 511.625 Z M 238.125 501.875 C 233.875 500.375 230.5 499 230.5 495.5 C 230.5 494 231.5 489.875 239.25 489.875 C 246.875 489.875 251.75 493.125 254.875 495.125 L 256 494.75 L 257.25 481.125 L 256.625 480.375 C 250.75 478.75 245.625 477.25 237.5 477.25 C 231.375 477.25 219.125 477.75 212.625 487.125 C 211 489.375 209.25 493.125 209.25 498.125 C 209.25 511.5 219.625 515.5 225.5 517.75 L 230.25 519.5 C 233.625 520.625 239.125 522.5 239.125 527 C 239.125 530.125 236.25 533.5 229.25 533.5 C 225.75 533.5 220.625 532.375 216 530 C 213.875 528.875 212.875 528 211 526.5 L 209.875 527 C 209.625 533.5 209.5 534.875 209 541.125 L 209.625 542.25 C 215.75 544.5 221 546.5 230.125 546.5 C 239.625 546.5 258.375 544.75 260.625 526.875 C 260.75 525.875 260.75 525 260.75 524.125 C 260.75 510.375 251.125 506.75 244.25 504.125 Z M 379.875 468.25 C 377.75 465.5 375.25 463.125 372.375 461.25 C 366 457 357.25 454.875 348.5 454.875 C 340.75 454.875 332.875 456.25 326.125 460.125 C 310.875 468.875 308.125 483.375 307.125 488.625 C 306.375 492.875 306 497.125 306 501.375 C 306 509.875 307 525.875 318.75 536.75 C 328.25 545.625 341.25 546.875 347.625 546.875 C 357.25 546.875 367 544.625 374.375 538.5 C 386.75 528.25 389.25 511.25 389.25 500.625 C 389.25 481 383 472.125 379.875 468.25 M 360.125 476.25 C 362.625 479.125 363.75 482.75 364.5 486.375 C 365.5 491.125 365.75 495.625 365.875 498.75 C 366.375 517.5 362.375 531 347.875 531 C 330.5 531 329.375 510.75 329.375 499.5 C 329.375 484.5 333 476.75 338.875 473 C 342.25 471 345.625 470.5 348 470.5 C 352.75 470.5 357.125 472.625 360.125 476.25 Z M 428.25 501.875 C 424 500.375 420.625 499 420.625 495.5 C 420.625 494 421.625 489.875 429.375 489.875 C 437 489.875 441.875 493.125 445 495.125 L 446.125 494.75 L 447.375 481.125 L 446.75 480.375 C 440.875 478.75 435.75 477.25 427.625 477.25 C 421.5 477.25 409.25 477.75 402.75 487.125 C 401.125 489.375 399.375 493.125 399.375 498.125 C 399.375 511.5 409.75 515.5 415.625 517.75 L 420.375 519.5 C 423.75 520.625 429.25 522.5 429.25 527 C 429.25 530.125 426.375 533.5 419.375 533.5 C 415.875 533.5 410.75 532.375 406.125 530 C 404 528.875 403 528 401.125 526.5 L 400 527 C 399.75 533.5 399.625 534.875 399.125 541.125 L 399.75 542.25 C 405.875 544.5 411.125 546.5 420.25 546.5 C 429.75 546.5 448.5 544.75 450.75 526.875 C 450.875 525.875 450.875 525 450.875 524.125 C 450.875 510.375 441.25 506.75 434.375 504.125 Z M 525.5 511.75 C 525.5 506.875 525.5 486.625 508 479.75 C 502.5 477.625 496 477.375 492.75 477.375 C 471 477.375 458.75 489 458.75 512 C 458.75 520 460 528.125 464.625 534.875 C 467.875 539.75 474 546.5 491.875 546.5 C 518.375 546.5 525.5 530.5 525.5 511.75 M 503.875 511.625 C 503.875 521.875 502.5 533.25 492.125 533.25 C 488.875 533.25 486.625 531.75 485.125 530.375 C 483 528.25 480.625 524 480.625 511.875 C 480.625 508.25 480.625 500.25 483.125 495.875 C 485 492.5 488.25 490.25 492.25 490.25 C 495.75 490.25 498.625 492.125 500.25 494.125 C 503.25 497.75 503.875 504.875 503.875 511.625 Z M 563.625 501.875 C 559.375 500.375 556 499 556 495.5 C 556 494 557 489.875 564.75 489.875 C 572.375 489.875 577.25 493.125 580.375 495.125 L 581.5 494.75 L 582.75 481.125 L 582.125 480.375 C 576.25 478.75 571.125 477.25 563 477.25 C 556.875 477.25 544.625 477.75 538.125 487.125 C 536.5 489.375 534.75 493.125 534.75 498.125 C 534.75 511.5 545.125 515.5 551 517.75 L 555.75 519.5 C 559.125 520.625 564.625 522.5 564.625 527 C 564.625 530.125 561.75 533.5 554.75 533.5 C 551.25 533.5 546.125 532.375 541.5 530 C 539.375 528.875 538.375 528 536.5 526.5 L 535.375 527 C 535.125 533.5 535 534.875 534.5 541.125 L 535.125 542.25 C 541.25 544.5 546.5 546.5 555.625 546.5 C 565.125 546.5 583.875 544.75 586.125 526.875 C 586.25 525.875 586.25 525 586.25 524.125 C 586.25 510.375 576.625 506.75 569.75 504.125 Z M 705.375 468.25 C 703.25 465.5 700.75 463.125 697.875 461.25 C 691.5 457 682.75 454.875 674 454.875 C 666.25 454.875 658.375 456.25 651.625 460.125 C 636.375 468.875 633.625 483.375 632.625 488.625 C 631.875 492.875 631.5 497.125 631.5 501.375 C 631.5 509.875 632.5 525.875 644.25 536.75 C 653.75 545.625 666.75 546.875 673.125 546.875 C 682.75 546.875 692.5 544.625 699.875 538.5 C 712.25 528.25 714.75 511.25 714.75 500.625 C 714.75 481 708.5 472.125 705.375 468.25 M 685.625 476.25 C 688.125 479.125 689.25 482.75 690 486.375 C 691 491.125 691.25 495.625 691.375 498.75 C 691.875 517.5 687.875 531 673.375 531 C 656 531 654.875 510.75 654.875 499.5 C 654.875 484.5 658.5 476.75 664.375 473 C 667.75 471 671.125 470.5 673.5 470.5 C 678.25 470.5 682.625 472.625 685.625 476.25 Z M 783.125 507.75 C 783.25 496.5 783.25 491.625 780 486.375 C 777.5 482.375 772.5 477.375 756.5 477.375 C 745.75 477.375 739.125 479.375 732 481.5 L 731.25 482.5 L 730.625 496.125 L 731.625 496.625 C 736 494.875 744.125 491.625 752.5 491.625 C 757.125 491.625 759 492.375 760.625 494 C 761.875 495.25 762.25 497.5 762.25 499.375 C 747.25 501.375 740.25 502.75 732.75 507.375 C 725.75 511.75 723.375 518.875 723.375 524.5 C 723.375 537.875 733 546.5 745.25 546.5 C 754.625 546.5 760 542 762.625 539.875 L 762.625 544.5 L 763.375 545.375 C 772.375 545 775.125 544.875 783.25 545 L 783.875 544.125 C 783 531.875 783 528.75 783 517 L 783.125 507.75 M 762.5 527.625 C 759.875 529.125 756.5 530.875 752.375 530.875 C 747.875 530.875 744.125 528.5 744.125 523.25 C 744.125 515 754 513.625 762.5 512.5 Z M 862 543.375 C 850.25 523.5 849 521.25 839.5 504.125 C 848.125 492.375 849 491.125 857.875 479.75 L 857.25 478.5 L 836.875 478.75 L 835.625 479.625 C 825.875 496.5 824.625 498.5 818.875 507.125 L 818.875 493.25 C 819 469.875 819.125 464.875 819.75 446 L 818.75 445.25 L 797 448.5 L 796.25 449.375 C 797.125 461.5 797.5 467.375 797.75 483.75 C 798 504 798 524.25 797.875 544.5 L 798.75 545.375 C 807.125 545 809.5 545 819 545 L 819.75 544.125 L 819 523 L 818.875 508.625 C 829.75 528.625 831.125 531.375 837.5 544.625 L 838.625 545.375 L 861.125 544.5 Z M 894.25 501.875 C 890 500.375 886.625 499 886.625 495.5 C 886.625 494 887.625 489.875 895.375 489.875 C 903 489.875 907.875 493.125 911 495.125 L 912.125 494.75 L 913.375 481.125 L 912.75 480.375 C 906.875 478.75 901.75 477.25 893.625 477.25 C 887.5 477.25 875.25 477.75 868.75 487.125 C 867.125 489.375 865.375 493.125 865.375 498.125 C 865.375 511.5 875.75 515.5 881.625 517.75 L 886.375 519.5 C 889.75 520.625 895.25 522.5 895.25 527 C 895.25 530.125 892.375 533.5 885.375 533.5 C 881.875 533.5 876.75 532.375 872.125 530 C 870 528.875 869 528 867.125 526.5 L 866 527 C 865.75 533.5 865.625 534.875 865.125 541.125 L 865.75 542.25 C 871.875 544.5 877.125 546.5 886.25 546.5 C 895.75 546.5 914.5 544.75 916.75 526.875 C 916.875 525.875 916.875 525 916.875 524.125 C 916.875 510.375 907.25 506.75 900.375 504.125 Z M 920.375 545 "/>
<path fill-rule="nonzero" fill="rgb(34.901961%, 14.901961%, 14.901961%)" fill-opacity="1" d="M 151.1875 641.25 C 140.6875 636.875 135.1875 634.625 135.1875 629 C 135.1875 625.125 138.8125 620.25 147.0625 620.25 C 156.5625 620.25 162.1875 624.125 166.8125 627.25 L 167.9375 626.75 L 168.9375 610.375 L 168.3125 609.5 C 162.9375 607.25 157.3125 604.875 145.1875 604.875 C 121.6875 604.875 113.5625 618.125 113.5625 631.5 C 113.5625 646.625 125.3125 652.125 132.3125 655.5 L 136.4375 657.375 C 145.0625 661 151.6875 664.125 151.6875 670.75 C 151.6875 675.5 147.5625 681.125 136.6875 681.125 C 125.3125 681.125 118.9375 676.125 115.3125 673.25 L 114.0625 673.625 L 113.1875 691.25 L 113.9375 692.25 C 115.3125 692.75 116.6875 693.375 118.0625 693.75 C 120.9375 694.75 128.3125 696.875 137.6875 696.875 C 141.4375 696.875 150.9375 696.5 158.4375 693 C 168.9375 687.875 173.4375 678.375 173.4375 667.75 C 173.4375 660.625 170.6875 653 164.0625 647.875 C 160.6875 645.375 157.4375 643.875 154.4375 642.5 Z M 220.3125 680.625 C 218.1875 681.25 216.6875 681.75 214.5625 681.75 C 208.1875 681.75 207.6875 677.75 207.4375 675.875 C 207.0625 672.625 207.0625 665.75 207.1875 660.75 L 207.4375 643.125 L 218.6875 643.625 L 219.4375 642.875 L 220.6875 629.5 L 219.9375 628.75 L 207.4375 628.75 L 207.8125 607.75 L 206.9375 607 C 198.4375 609.5 196.1875 610.125 187.3125 612.375 L 186.8125 613.25 L 186.9375 628.875 L 180.1875 628.625 L 179.4375 629.25 L 178.3125 642.625 L 179.0625 643.375 L 186.9375 643.125 L 186.5625 663 C 186.4375 666.125 186.3125 669.25 186.3125 672.5 C 186.3125 684 186.5625 696.375 206.0625 696.375 C 210.9375 696.375 214.8125 695.625 219.1875 694.875 L 220.0625 694 L 221.3125 681.125 Z M 285.1875 657.75 C 285.3125 646.5 285.3125 641.625 282.0625 636.375 C 279.5625 632.375 274.5625 627.375 258.5625 627.375 C 247.8125 627.375 241.1875 629.375 234.0625 631.5 L 233.3125 632.5 L 232.6875 646.125 L 233.6875 646.625 C 238.0625 644.875 246.1875 641.625 254.5625 641.625 C 259.1875 641.625 261.0625 642.375 262.6875 644 C 263.9375 645.25 264.3125 647.5 264.3125 649.375 C 249.3125 651.375 242.3125 652.75 234.8125 657.375 C 227.8125 661.75 225.4375 668.875 225.4375 674.5 C 225.4375 687.875 235.0625 696.5 247.3125 696.5 C 256.6875 696.5 262.0625 692 264.6875 689.875 L 264.6875 694.5 L 265.4375 695.375 C 274.4375 695 277.1875 694.875 285.3125 695 L 285.9375 694.125 C 285.0625 681.875 285.0625 678.75 285.0625 667 L 285.1875 657.75 M 264.5625 677.625 C 261.9375 679.125 258.5625 680.875 254.4375 680.875 C 249.9375 680.875 246.1875 678.5 246.1875 673.25 C 246.1875 665 256.0625 663.625 264.5625 662.5 Z M 334.8125 680.625 C 332.6875 681.25 331.1875 681.75 329.0625 681.75 C 322.6875 681.75 322.1875 677.75 321.9375 675.875 C 321.5625 672.625 321.5625 665.75 321.6875 660.75 L 321.9375 643.125 L 333.1875 643.625 L 333.9375 642.875 L 335.1875 629.5 L 334.4375 628.75 L 321.9375 628.75 L 322.3125 607.75 L 321.4375 607 C 312.9375 609.5 310.6875 610.125 301.8125 612.375 L 301.3125 613.25 L 301.4375 628.875 L 294.6875 628.625 L 293.9375 629.25 L 292.8125 642.625 L 293.5625 643.375 L 301.4375 643.125 L 301.0625 663 C 300.9375 666.125 300.8125 669.25 300.8125 672.5 C 300.8125 684 301.0625 696.375 320.5625 696.375 C 325.4375 696.375 329.3125 695.625 333.6875 694.875 L 334.5625 694 L 335.8125 681.125 Z M 399.5625 676.5 C 394.8125 679 389.1875 681.875 380.0625 681.875 C 372.5625 681.875 367.4375 679.5 364.4375 675 C 362.5625 672.375 362.1875 669.875 361.6875 667.375 L 402.0625 666.625 L 402.8125 665.75 C 402.6875 659.625 402.5625 653.375 400.8125 647.125 C 396.4375 632.375 386.8125 629.375 382.5625 628.375 C 379.4375 627.5 376.5625 627.25 373.6875 627.25 C 354.0625 627.25 341.0625 640.125 341.0625 661.75 C 341.0625 667.625 342.0625 673.75 344.0625 678.125 C 351.3125 695 368.3125 696.5 377.3125 696.5 C 387.6875 696.5 392.1875 694.625 398.8125 692 L 399.5625 691 L 400.4375 676.875 L 399.5625 676.5 M 361.6875 654.125 C 362.0625 650.25 362.9375 645 367.6875 642 C 369.1875 641 370.9375 640.625 372.6875 640.625 C 376.8125 640.625 379.3125 642.75 380.6875 645 C 382.4375 647.75 382.5625 650.75 382.5625 653.625 Z M 525.9375 606.375 C 518.0625 606.75 515.9375 606.875 508.1875 606.75 L 507.5625 607.5 L 508.4375 624.375 L 508.9375 641.625 L 509.4375 662.25 C 505.8125 656.125 505.1875 655.125 498.8125 645.625 L 487.4375 629 C 478.0625 614.75 476.1875 612 473.0625 607 L 472.1875 606.375 C 462.3125 606.875 460.6875 606.875 451.5625 606.75 L 450.9375 607.5 C 451.5625 626.875 451.9375 641.25 451.9375 658 C 451.9375 670.25 451.6875 682.5 451.5625 694.625 L 452.1875 695.375 C 460.5625 695 463.1875 695 470.4375 695 L 471.0625 694.25 L 469.8125 666.875 L 469.4375 651.5 L 468.6875 634.75 C 474.5625 644.5 476.5625 647.75 485.0625 660.125 L 497.5625 678.5 L 508.6875 694.75 L 509.5625 695.375 C 517.1875 695 519.4375 695 526.0625 695 L 526.6875 694.375 C 526.5625 676.25 526.4375 664 526.4375 649 C 526.4375 635 526.5625 621.125 526.6875 607.125 Z M 597.5625 657.75 C 597.6875 646.5 597.6875 641.625 594.4375 636.375 C 591.9375 632.375 586.9375 627.375 570.9375 627.375 C 560.1875 627.375 553.5625 629.375 546.4375 631.5 L 545.6875 632.5 L 545.0625 646.125 L 546.0625 646.625 C 550.4375 644.875 558.5625 641.625 566.9375 641.625 C 571.5625 641.625 573.4375 642.375 575.0625 644 C 576.3125 645.25 576.6875 647.5 576.6875 649.375 C 561.6875 651.375 554.6875 652.75 547.1875 657.375 C 540.1875 661.75 537.8125 668.875 537.8125 674.5 C 537.8125 687.875 547.4375 696.5 559.6875 696.5 C 569.0625 696.5 574.4375 692 577.0625 689.875 L 577.0625 694.5 L 577.8125 695.375 C 586.8125 695 589.5625 694.875 597.6875 695 L 598.3125 694.125 C 597.4375 681.875 597.4375 678.75 597.4375 667 L 597.5625 657.75 M 576.9375 677.625 C 574.3125 679.125 570.9375 680.875 566.8125 680.875 C 562.3125 680.875 558.5625 678.5 558.5625 673.25 C 558.5625 665 568.4375 663.625 576.9375 662.5 Z M 647.1875 680.625 C 645.0625 681.25 643.5625 681.75 641.4375 681.75 C 635.0625 681.75 634.5625 677.75 634.3125 675.875 C 633.9375 672.625 633.9375 665.75 634.0625 660.75 L 634.3125 643.125 L 645.5625 643.625 L 646.3125 642.875 L 647.5625 629.5 L 646.8125 628.75 L 634.3125 628.75 L 634.6875 607.75 L 633.8125 607 C 625.3125 609.5 623.0625 610.125 614.1875 612.375 L 613.6875 613.25 L 613.8125 628.875 L 607.0625 628.625 L 606.3125 629.25 L 605.1875 642.625 L 605.9375 643.375 L 613.8125 643.125 L 613.4375 663 C 613.3125 666.125 613.1875 669.25 613.1875 672.5 C 613.1875 684 613.4375 696.375 632.9375 696.375 C 637.8125 696.375 641.6875 695.625 646.0625 694.875 L 646.9375 694 L 648.1875 681.125 Z M 716.4375 628.125 L 696.0625 629.125 L 695.1875 629.875 C 696.0625 644 696.0625 664 696.0625 666 C 696.0625 669.625 696.0625 671.625 695.9375 676.625 C 692.5625 678.875 689.9375 680.75 686.5625 680.75 C 677.5625 680.75 677.5625 671.25 677.5625 663.875 C 677.5625 660.75 677.5625 657.5 677.6875 654.375 L 677.9375 629.125 L 677.0625 628.125 L 656.4375 629.125 L 655.5625 629.875 C 656.3125 640.375 656.4375 643.875 656.4375 656.5 L 656.4375 665.25 C 656.3125 678.875 656.9375 684.625 661.4375 689.875 C 665.5625 694.5 671.5625 696.5 677.8125 696.5 C 686.6875 696.5 691.8125 692.5 696.3125 689 L 696.1875 694.625 L 697.0625 695.375 C 706.1875 695 708.9375 695 717.0625 695 L 717.8125 694.25 C 717.1875 685.375 716.9375 680.625 716.9375 664.375 C 716.9375 652.625 717.0625 640.875 717.3125 629.125 Z M 768.0625 648.625 L 771.5625 628.25 L 770.8125 627.375 C 769.9375 627.375 769.0625 627.25 768.1875 627.25 C 763.0625 627.25 757.3125 630.125 753.3125 639.375 L 753.6875 627.875 L 752.6875 626.875 C 743.4375 628.875 741.0625 629.25 731.9375 630.625 L 731.1875 631.375 C 731.9375 640.75 732.3125 646.375 732.3125 663.75 C 732.3125 674 732.1875 684.25 731.9375 694.625 L 732.6875 695.375 C 741.9375 695 743.9375 694.875 753.9375 695 L 754.5625 694.125 C 754.0625 684 753.3125 669.875 753.3125 661.25 C 753.3125 655.625 753.3125 647.375 761.8125 647.375 C 763.9375 647.375 765.1875 648.125 766.9375 649.125 Z M 834.4375 657.75 C 834.5625 646.5 834.5625 641.625 831.3125 636.375 C 828.8125 632.375 823.8125 627.375 807.8125 627.375 C 797.0625 627.375 790.4375 629.375 783.3125 631.5 L 782.5625 632.5 L 781.9375 646.125 L 782.9375 646.625 C 787.3125 644.875 795.4375 641.625 803.8125 641.625 C 808.4375 641.625 810.3125 642.375 811.9375 644 C 813.1875 645.25 813.5625 647.5 813.5625 649.375 C 798.5625 651.375 791.5625 652.75 784.0625 657.375 C 777.0625 661.75 774.6875 668.875 774.6875 674.5 C 774.6875 687.875 784.3125 696.5 796.5625 696.5 C 805.9375 696.5 811.3125 692 813.9375 689.875 L 813.9375 694.5 L 814.6875 695.375 C 823.6875 695 826.4375 694.875 834.5625 695 L 835.1875 694.125 C 834.3125 681.875 834.3125 678.75 834.3125 667 L 834.4375 657.75 M 813.8125 677.625 C 811.1875 679.125 807.8125 680.875 803.6875 680.875 C 799.1875 680.875 795.4375 678.5 795.4375 673.25 C 795.4375 665 805.3125 663.625 813.8125 662.5 Z M 871.0625 694.125 C 870.4375 679.75 869.8125 666.625 869.8125 627.125 C 869.8125 615.25 869.9375 609.625 870.4375 596.125 L 869.5625 595.25 L 848.1875 598.625 L 847.6875 599.375 C 848.9375 614.625 849.0625 618.75 849.3125 639 C 849.4375 646.375 849.4375 653.75 849.4375 661.125 C 849.4375 674.625 849.1875 682.125 848.6875 694.5 L 849.4375 695.375 C 857.8125 695 861.1875 694.875 870.3125 695 Z M 878.0625 695 "/>
<path fill-rule="nonzero" fill="rgb(34.901961%, 14.901961%, 14.901961%)" fill-opacity="1" d="M 298.9375 810.625 C 307.3125 824.875 309.1875 828.625 317.1875 845 L 318.1875 845.625 C 322.0625 845.375 325.8125 845.125 329.6875 845 C 333.5625 844.875 337.5625 844.75 341.4375 844.75 L 342.1875 843.25 C 337.4375 837.125 336.0625 835.25 327.0625 820.875 C 323.0625 814.5 321.0625 811.125 317.9375 805.625 C 323.5625 803.125 334.9375 797.875 334.9375 782 C 334.9375 776.5 333.4375 765.125 323.1875 759.75 C 316.6875 756.375 309.9375 756.25 295.3125 756.5 L 286.5625 756.625 L 271.3125 756.625 L 270.6875 757.375 C 271.1875 770 271.6875 783 271.6875 817 C 271.6875 828.625 271.5625 834.25 271.1875 844.625 L 271.9375 845.375 C 281.0625 845 283.0625 844.875 293.3125 845 L 294.0625 844.25 C 293.0625 829.75 292.9375 825.75 292.8125 810.875 L 298.9375 810.625 M 293.0625 771.75 C 294.8125 771.625 296.5625 771.625 298.3125 771.625 C 303.1875 771.625 312.8125 771.625 312.8125 782.625 C 312.8125 786.125 311.9375 790.75 307.3125 793.625 C 303.8125 795.75 299.3125 796 293.0625 796.125 Z M 404.3125 826.5 C 399.5625 829 393.9375 831.875 384.8125 831.875 C 377.3125 831.875 372.1875 829.5 369.1875 825 C 367.3125 822.375 366.9375 819.875 366.4375 817.375 L 406.8125 816.625 L 407.5625 815.75 C 407.4375 809.625 407.3125 803.375 405.5625 797.125 C 401.1875 782.375 391.5625 779.375 387.3125 778.375 C 384.1875 777.5 381.3125 777.25 378.4375 777.25 C 358.8125 777.25 345.8125 790.125 345.8125 811.75 C 345.8125 817.625 346.8125 823.75 348.8125 828.125 C 356.0625 845 373.0625 846.5 382.0625 846.5 C 392.4375 846.5 396.9375 844.625 403.5625 842 L 404.3125 841 L 405.1875 826.875 L 404.3125 826.5 M 366.4375 804.125 C 366.8125 800.25 367.6875 795 372.4375 792 C 373.9375 791 375.6875 790.625 377.4375 790.625 C 381.5625 790.625 384.0625 792.75 385.4375 795 C 387.1875 797.75 387.3125 800.75 387.3125 803.625 Z M 445.3125 801.875 C 441.0625 800.375 437.6875 799 437.6875 795.5 C 437.6875 794 438.6875 789.875 446.4375 789.875 C 454.0625 789.875 458.9375 793.125 462.0625 795.125 L 463.1875 794.75 L 464.4375 781.125 L 463.8125 780.375 C 457.9375 778.75 452.8125 777.25 444.6875 777.25 C 438.5625 777.25 426.3125 777.75 419.8125 787.125 C 418.1875 789.375 416.4375 793.125 416.4375 798.125 C 416.4375 811.5 426.8125 815.5 432.6875 817.75 L 437.4375 819.5 C 440.8125 820.625 446.3125 822.5 446.3125 827 C 446.3125 830.125 443.4375 833.5 436.4375 833.5 C 432.9375 833.5 427.8125 832.375 423.1875 830 C 421.0625 828.875 420.0625 828 418.1875 826.5 L 417.0625 827 C 416.8125 833.5 416.6875 834.875 416.1875 841.125 L 416.8125 842.25 C 422.9375 844.5 428.1875 846.5 437.3125 846.5 C 446.8125 846.5 465.5625 844.75 467.8125 826.875 C 467.9375 825.875 467.9375 825 467.9375 824.125 C 467.9375 810.375 458.3125 806.75 451.4375 804.125 Z M 534.4375 826.5 C 529.6875 829 524.0625 831.875 514.9375 831.875 C 507.4375 831.875 502.3125 829.5 499.3125 825 C 497.4375 822.375 497.0625 819.875 496.5625 817.375 L 536.9375 816.625 L 537.6875 815.75 C 537.5625 809.625 537.4375 803.375 535.6875 797.125 C 531.3125 782.375 521.6875 779.375 517.4375 778.375 C 514.3125 777.5 511.4375 777.25 508.5625 777.25 C 488.9375 777.25 475.9375 790.125 475.9375 811.75 C 475.9375 817.625 476.9375 823.75 478.9375 828.125 C 486.1875 845 503.1875 846.5 512.1875 846.5 C 522.5625 846.5 527.0625 844.625 533.6875 842 L 534.4375 841 L 535.3125 826.875 L 534.4375 826.5 M 496.5625 804.125 C 496.9375 800.25 497.8125 795 502.5625 792 C 504.0625 791 505.8125 790.625 507.5625 790.625 C 511.6875 790.625 514.1875 792.75 515.5625 795 C 517.3125 797.75 517.4375 800.75 517.4375 803.625 Z M 585.3125 798.625 L 588.8125 778.25 L 588.0625 777.375 C 587.1875 777.375 586.3125 777.25 585.4375 777.25 C 580.3125 777.25 574.5625 780.125 570.5625 789.375 L 570.9375 777.875 L 569.9375 776.875 C 560.6875 778.875 558.3125 779.25 549.1875 780.625 L 548.4375 781.375 C 549.1875 790.75 549.5625 796.375 549.5625 813.75 C 549.5625 824 549.4375 834.25 549.1875 844.625 L 549.9375 845.375 C 559.1875 845 561.1875 844.875 571.1875 845 L 571.8125 844.125 C 571.3125 834 570.5625 819.875 570.5625 811.25 C 570.5625 805.625 570.5625 797.375 579.0625 797.375 C 581.1875 797.375 582.4375 798.125 584.1875 799.125 Z M 630.5625 844 C 634.5625 831.5 636.9375 823.75 639.5625 815.875 C 642.9375 805.75 648.4375 789.5 651.9375 779.25 L 651.3125 778.375 L 633.8125 778.75 L 632.9375 779.625 C 631.1875 788 630.8125 789.75 628.3125 799.5 L 621.9375 824.125 L 618.8125 810.625 L 616.4375 801 C 613.3125 789.375 612.8125 787 611.0625 778.75 L 610.1875 778 C 600.3125 779.125 597.8125 779.25 588.3125 779.375 L 587.8125 780.375 C 604.4375 829.625 605.8125 834.25 608.5625 844.5 L 609.4375 845.375 C 617.5625 845 620.8125 844.875 629.8125 845 Z M 714.0625 826.5 C 709.3125 829 703.6875 831.875 694.5625 831.875 C 687.0625 831.875 681.9375 829.5 678.9375 825 C 677.0625 822.375 676.6875 819.875 676.1875 817.375 L 716.5625 816.625 L 717.3125 815.75 C 717.1875 809.625 717.0625 803.375 715.3125 797.125 C 710.9375 782.375 701.3125 779.375 697.0625 778.375 C 693.9375 777.5 691.0625 777.25 688.1875 777.25 C 668.5625 777.25 655.5625 790.125 655.5625 811.75 C 655.5625 817.625 656.5625 823.75 658.5625 828.125 C 665.8125 845 682.8125 846.5 691.8125 846.5 C 702.1875 846.5 706.6875 844.625 713.3125 842 L 714.0625 841 L 714.9375 826.875 L 714.0625 826.5 M 676.1875 804.125 C 676.5625 800.25 677.4375 795 682.1875 792 C 683.6875 791 685.4375 790.625 687.1875 790.625 C 691.3125 790.625 693.8125 792.75 695.1875 795 C 696.9375 797.75 697.0625 800.75 697.0625 803.625 Z M 721.3125 845 "/>
</svg>
