<?xml version="1.0" encoding="UTF-8"?>
<svg xmlns="http://www.w3.org/2000/svg" xmlns:xlink="http://www.w3.org/1999/xlink" width="975" height="1300" viewBox="0 0 975 1300">
<path fill-rule="nonzero" fill="rgb(34.901961%, 14.901961%, 14.901961%)" fill-opacity="1" d="M 212.3125 527.875 C 198.6875 528.625 187.8125 528.875 184.0625 528.875 L 181.5625 528.875 C 181.3125 495.5 181.4375 487 182.4375 457.125 L 181.6875 456.375 C 170.9375 456.875 168.0625 456.875 159.4375 456.75 L 158.6875 457.5 C 159.1875 467.5 159.3125 470.5 159.3125 485.375 C 159.3125 505.125 159.1875 524.875 159.1875 544.625 L 159.8125 545.375 C 184.3125 545 188.8125 545 211.3125 545 L 211.9375 544.25 L 212.9375 528.5 Z M 279.3125 507.75 C 279.4375 496.5 279.4375 491.625 276.1875 486.375 C 273.6875 482.375 268.6875 477.375 252.6875 477.375 C 241.9375 477.375 235.3125 479.375 228.1875 481.5 L 227.4375 482.5 L 226.8125 496.125 L 227.8125 496.625 C 232.1875 494.875 240.3125 491.625 248.6875 491.625 C 253.3125 491.625 255.1875 492.375 256.8125 494 C 258.0625 495.25 258.4375 497.5 258.4375 499.375 C 243.4375 501.375 236.4375 502.75 228.9375 507.375 C 221.9375 511.75 219.5625 518.875 219.5625 524.5 C 219.5625 537.875 229.1875 546.5 241.4375 546.5 C 250.8125 546.5 256.1875 542 258.8125 539.875 L 258.8125 544.5 L 259.5625 545.375 C 268.5625 545 271.3125 544.875 279.4375 545 L 280.0625 544.125 C 279.1875 531.875 279.1875 528.75 279.1875 517 L 279.3125 507.75 M 258.6875 527.625 C 256.0625 529.125 252.6875 530.875 248.5625 530.875 C 244.0625 530.875 240.3125 528.5 240.3125 523.25 C 240.3125 515 250.1875 513.625 258.6875 512.5 Z M 347.1875 456.5 L 331.3125 456.75 L 330.5625 457.5 C 331.0625 473.75 331.4375 484.625 331.4375 499 C 331.4375 514.25 331.0625 529.375 330.6875 544.625 L 331.4375 545.375 C 340.6875 545 342.6875 544.875 352.6875 545 L 353.3125 544.25 C 352.8125 530.625 352.8125 527.5 352.8125 514.75 C 366.8125 514.875 381.8125 514.875 390.8125 503.875 C 394.3125 499.625 397.3125 492.5 397.3125 483.75 C 397.3125 478.375 396.0625 466.5 385.6875 460.625 C 378.1875 456.25 367.5625 456.25 358.1875 456.25 L 347.1875 456.5 M 352.8125 471.625 C 355.5625 471.5 358.1875 471.5 360.9375 471.5 C 371.9375 471.75 374.9375 477.375 374.9375 484.625 C 374.9375 486.375 374.9375 493.625 368.3125 497.25 C 364.9375 499.125 360.3125 499.375 352.8125 499.375 Z M 465.9375 478.125 L 445.5625 479.125 L 444.6875 479.875 C 445.5625 494 445.5625 514 445.5625 516 C 445.5625 519.625 445.5625 521.625 445.4375 526.625 C 442.0625 528.875 439.4375 530.75 436.0625 530.75 C 427.0625 530.75 427.0625 521.25 427.0625 513.875 C 427.0625 510.75 427.0625 507.5 427.1875 504.375 L 427.4375 479.125 L 426.5625 478.125 L 405.9375 479.125 L 405.0625 479.875 C 405.8125 490.375 405.9375 493.875 405.9375 506.5 L 405.9375 515.25 C 405.8125 528.875 406.4375 534.625 410.9375 539.875 C 415.0625 544.5 421.0625 546.5 427.3125 546.5 C 436.1875 546.5 441.3125 542.5 445.8125 539 L 445.6875 544.625 L 446.5625 545.375 C 455.6875 545 458.4375 545 466.5625 545 L 467.3125 544.25 C 466.6875 535.375 466.4375 530.625 466.4375 514.375 C 466.4375 502.625 466.5625 490.875 466.8125 479.125 Z M 517.5625 498.625 L 521.0625 478.25 L 520.3125 477.375 C 519.4375 477.375 518.5625 477.25 517.6875 477.25 C 512.5625 477.25 506.8125 480.125 502.8125 489.375 L 503.1875 477.875 L 502.1875 476.875 C 492.9375 478.875 490.5625 479.25 481.4375 480.625 L 480.6875 481.375 C 481.4375 490.75 481.8125 496.375 481.8125 513.75 C 481.8125 524 481.6875 534.25 481.4375 544.625 L 482.1875 545.375 C 491.4375 545 493.4375 544.875 503.4375 545 L 504.0625 544.125 C 503.5625 534 502.8125 519.875 502.8125 511.25 C 502.8125 505.625 502.8125 497.375 511.3125 497.375 C 513.4375 497.375 514.6875 498.125 516.4375 499.125 Z M 550.9375 544.125 C 550.3125 534.5 549.8125 527.125 549.8125 509.875 C 549.8125 499.25 550.0625 488.5 550.1875 477.875 L 549.3125 476.875 L 527.8125 480.625 L 527.0625 481.375 C 528.0625 490.875 528.4375 495.25 528.4375 513 C 528.4375 526.625 528.0625 534.25 527.6875 544.5 L 528.4375 545.375 C 537.4375 545 539.9375 544.875 550.0625 545 L 550.9375 544.125 M 558.1875 448.5 L 538.4375 448.75 L 537.8125 449.375 C 534.9375 459.125 533.9375 461.625 530.1875 470.25 L 530.6875 471 L 544.1875 471 L 545.0625 470.5 C 548.9375 464.125 554.5625 455.5 558.5625 449.375 Z M 591.0625 501.875 C 586.8125 500.375 583.4375 499 583.4375 495.5 C 583.4375 494 584.4375 489.875 592.1875 489.875 C 599.8125 489.875 604.6875 493.125 607.8125 495.125 L 608.9375 494.75 L 610.1875 481.125 L 609.5625 480.375 C 603.6875 478.75 598.5625 477.25 590.4375 477.25 C 584.3125 477.25 572.0625 477.75 565.5625 487.125 C 563.9375 489.375 562.1875 493.125 562.1875 498.125 C 562.1875 511.5 572.5625 515.5 578.4375 517.75 L 583.1875 519.5 C 586.5625 520.625 592.0625 522.5 592.0625 527 C 592.0625 530.125 589.1875 533.5 582.1875 533.5 C 578.6875 533.5 573.5625 532.375 568.9375 530 C 566.8125 528.875 565.8125 528 563.9375 526.5 L 562.8125 527 C 562.5625 533.5 562.4375 534.875 561.9375 541.125 L 562.5625 542.25 C 568.6875 544.5 573.9375 546.5 583.0625 546.5 C 592.5625 546.5 611.3125 544.75 613.5625 526.875 C 613.6875 525.875 613.6875 525 613.6875 524.125 C 613.6875 510.375 604.0625 506.75 597.1875 504.125 Z M 647.3125 544.125 C 646.6875 534.5 646.1875 527.125 646.1875 509.875 C 646.1875 499.25 646.4375 488.5 646.5625 477.875 L 645.6875 476.875 L 624.1875 480.625 L 623.4375 481.375 C 624.4375 490.875 624.8125 495.25 624.8125 513 C 624.8125 526.625 624.4375 534.25 624.0625 544.5 L 624.8125 545.375 C 633.8125 545 636.3125 544.875 646.4375 545 L 647.3125 544.125 M 645.3125 464.875 L 645.6875 447.875 L 644.9375 447.125 L 624.5625 449.625 L 623.8125 450.5 C 624.0625 455 624.1875 457.625 624.1875 460.625 C 624.1875 463 624.1875 465.5 624.0625 467.875 L 624.9375 468.625 C 633.4375 467.125 635.8125 466.875 644.6875 465.75 Z M 758.8125 544.125 C 758.1875 532.5 758.0625 529.25 758.0625 515.125 L 758.0625 505.75 C 758.1875 497.375 758.3125 489.625 754.6875 484.375 C 749.8125 477.25 741.1875 477.25 739.1875 477.25 C 728.9375 477.25 722.0625 481.875 717.0625 485.375 C 715.3125 482.5 712.1875 477.25 702.1875 477.25 C 693.9375 477.25 688.5625 481 682.8125 485 L 682.8125 478 L 681.6875 476.875 C 671.9375 478.75 669.1875 479.25 660.4375 480.5 L 659.6875 481.375 C 660.6875 491.375 661.4375 498.25 661.4375 523 C 661.4375 530.125 661.3125 537.375 661.3125 544.5 L 661.9375 545.25 C 669.9375 545 672.6875 544.875 683.0625 544.875 L 683.8125 544.125 C 682.9375 524.875 682.8125 519.125 682.6875 497.375 C 685.3125 495.5 688.1875 493.875 691.3125 493.875 C 699.0625 493.875 699.3125 502.75 699.3125 513.5 C 699.3125 531.625 699.1875 534.375 698.9375 544.5 L 699.6875 545.375 C 709.1875 544.875 711.8125 544.875 720.4375 544.875 L 721.1875 544.125 C 720.4375 532.25 720.3125 528.75 720.1875 513.625 L 720.1875 509 L 720.0625 496.375 C 722.1875 495 724.9375 493.25 728.6875 493.25 C 735.8125 493.25 736.9375 500 736.9375 510.75 C 736.9375 513.125 736.8125 515.5 736.8125 517.875 C 736.6875 522.125 736.5625 540.75 736.4375 544.5 L 737.1875 545.25 C 746.5625 544.875 749.3125 544.875 758.0625 544.875 Z M 828.8125 507.75 C 828.9375 496.5 828.9375 491.625 825.6875 486.375 C 823.1875 482.375 818.1875 477.375 802.1875 477.375 C 791.4375 477.375 784.8125 479.375 777.6875 481.5 L 776.9375 482.5 L 776.3125 496.125 L 777.3125 496.625 C 781.6875 494.875 789.8125 491.625 798.1875 491.625 C 802.8125 491.625 804.6875 492.375 806.3125 494 C 807.5625 495.25 807.9375 497.5 807.9375 499.375 C 792.9375 501.375 785.9375 502.75 778.4375 507.375 C 771.4375 511.75 769.0625 518.875 769.0625 524.5 C 769.0625 537.875 778.6875 546.5 790.9375 546.5 C 800.3125 546.5 805.6875 542 808.3125 539.875 L 808.3125 544.5 L 809.0625 545.375 C 818.0625 545 820.8125 544.875 828.9375 545 L 829.5625 544.125 C 828.6875 531.875 828.6875 528.75 828.6875 517 L 828.8125 507.75 M 808.1875 527.625 C 805.5625 529.125 802.1875 530.875 798.0625 530.875 C 793.5625 530.875 789.8125 528.5 789.8125 523.25 C 789.8125 515 799.6875 513.625 808.1875 512.5 Z M 835.9375 545 "/>
<path fill-rule="nonzero" fill="rgb(34.901961%, 14.901961%, 14.901961%)" fill-opacity="1" d="M 197.9375 606.375 C 184.9375 606.75 182.8125 606.75 168.9375 606.75 L 168.1875 607.5 L 162.4375 627.75 L 157.4375 645.875 L 151.5625 667.625 L 146.0625 645.25 L 142.5625 631.125 L 136.3125 607.125 L 135.6875 606.375 C 122.3125 606.75 120.0625 606.75 106.0625 606.75 L 105.3125 607.5 C 104.0625 644.875 103.5625 654.5 100.8125 694.625 L 101.4375 695.375 C 109.4375 695 111.8125 694.875 119.0625 695 L 119.8125 694.25 L 120.1875 670.375 L 120.9375 646.125 L 121.4375 622.5 L 126.9375 644.625 L 131.6875 662.375 L 140.0625 694.625 L 140.8125 695.375 C 148.5625 695 150.6875 694.875 159.4375 695 L 160.1875 694.25 L 167.4375 667.625 L 172.4375 649.375 L 179.4375 623.125 L 179.4375 645.5 L 179.6875 664.625 L 179.6875 694.625 L 180.3125 695.375 C 188.9375 695 192.3125 694.875 201.9375 695 L 202.5625 694.25 C 201.8125 680 200.9375 665.625 200.4375 651.25 C 200.0625 643.375 199.8125 635.5 199.4375 627.625 C 198.8125 616 198.6875 614.5 198.6875 607.125 Z M 239.3125 694.125 C 238.6875 684.5 238.1875 677.125 238.1875 659.875 C 238.1875 649.25 238.4375 638.5 238.5625 627.875 L 237.6875 626.875 L 216.1875 630.625 L 215.4375 631.375 C 216.4375 640.875 216.8125 645.25 216.8125 663 C 216.8125 676.625 216.4375 684.25 216.0625 694.5 L 216.8125 695.375 C 225.8125 695 228.3125 694.875 238.4375 695 L 239.3125 694.125 M 237.3125 614.875 L 237.6875 597.875 L 236.9375 597.125 L 216.5625 599.625 L 215.8125 600.5 C 216.0625 605 216.1875 607.625 216.1875 610.625 C 216.1875 613 216.1875 615.5 216.0625 617.875 L 216.9375 618.625 C 225.4375 617.125 227.8125 616.875 236.6875 615.75 Z M 279.4375 651.875 C 275.1875 650.375 271.8125 649 271.8125 645.5 C 271.8125 644 272.8125 639.875 280.5625 639.875 C 288.1875 639.875 293.0625 643.125 296.1875 645.125 L 297.3125 644.75 L 298.5625 631.125 L 297.9375 630.375 C 292.0625 628.75 286.9375 627.25 278.8125 627.25 C 272.6875 627.25 260.4375 627.75 253.9375 637.125 C 252.3125 639.375 250.5625 643.125 250.5625 648.125 C 250.5625 661.5 260.9375 665.5 266.8125 667.75 L 271.5625 669.5 C 274.9375 670.625 280.4375 672.5 280.4375 677 C 280.4375 680.125 277.5625 683.5 270.5625 683.5 C 267.0625 683.5 261.9375 682.375 257.3125 680 C 255.1875 678.875 254.1875 678 252.3125 676.5 L 251.1875 677 C 250.9375 683.5 250.8125 684.875 250.3125 691.125 L 250.9375 692.25 C 257.0625 694.5 262.3125 696.5 271.4375 696.5 C 280.9375 696.5 299.6875 694.75 301.9375 676.875 C 302.0625 675.875 302.0625 675 302.0625 674.125 C 302.0625 660.375 292.4375 656.75 285.5625 654.125 Z M 339.3125 651.875 C 335.0625 650.375 331.6875 649 331.6875 645.5 C 331.6875 644 332.6875 639.875 340.4375 639.875 C 348.0625 639.875 352.9375 643.125 356.0625 645.125 L 357.1875 644.75 L 358.4375 631.125 L 357.8125 630.375 C 351.9375 628.75 346.8125 627.25 338.6875 627.25 C 332.5625 627.25 320.3125 627.75 313.8125 637.125 C 312.1875 639.375 310.4375 643.125 310.4375 648.125 C 310.4375 661.5 320.8125 665.5 326.6875 667.75 L 331.4375 669.5 C 334.8125 670.625 340.3125 672.5 340.3125 677 C 340.3125 680.125 337.4375 683.5 330.4375 683.5 C 326.9375 683.5 321.8125 682.375 317.1875 680 C 315.0625 678.875 314.0625 678 312.1875 676.5 L 311.0625 677 C 310.8125 683.5 310.6875 684.875 310.1875 691.125 L 310.8125 692.25 C 316.9375 694.5 322.1875 696.5 331.3125 696.5 C 340.8125 696.5 359.5625 694.75 361.8125 676.875 C 361.9375 675.875 361.9375 675 361.9375 674.125 C 361.9375 660.375 352.3125 656.75 345.4375 654.125 Z M 395.5625 694.125 C 394.9375 684.5 394.4375 677.125 394.4375 659.875 C 394.4375 649.25 394.6875 638.5 394.8125 627.875 L 393.9375 626.875 L 372.4375 630.625 L 371.6875 631.375 C 372.6875 640.875 373.0625 645.25 373.0625 663 C 373.0625 676.625 372.6875 684.25 372.3125 694.5 L 373.0625 695.375 C 382.0625 695 384.5625 694.875 394.6875 695 L 395.5625 694.125 M 393.5625 614.875 L 393.9375 597.875 L 393.1875 597.125 L 372.8125 599.625 L 372.0625 600.5 C 372.3125 605 372.4375 607.625 372.4375 610.625 C 372.4375 613 372.4375 615.5 372.3125 617.875 L 373.1875 618.625 C 381.6875 617.125 384.0625 616.875 392.9375 615.75 Z M 473.0625 661.75 C 473.0625 656.875 473.0625 636.625 455.5625 629.75 C 450.0625 627.625 443.5625 627.375 440.3125 627.375 C 418.5625 627.375 406.3125 639 406.3125 662 C 406.3125 670 407.5625 678.125 412.1875 684.875 C 415.4375 689.75 421.5625 696.5 439.4375 696.5 C 465.9375 696.5 473.0625 680.5 473.0625 661.75 M 451.4375 661.625 C 451.4375 671.875 450.0625 683.25 439.6875 683.25 C 436.4375 683.25 434.1875 681.75 432.6875 680.375 C 430.5625 678.25 428.1875 674 428.1875 661.875 C 428.1875 658.25 428.1875 650.25 430.6875 645.875 C 432.5625 642.5 435.8125 640.25 439.8125 640.25 C 443.3125 640.25 446.1875 642.125 447.8125 644.125 C 450.8125 647.75 451.4375 654.875 451.4375 661.625 Z M 546.1875 694.125 C 545.5625 683.125 545.5625 679.625 545.3125 667.375 L 545.3125 657.625 C 545.1875 645.625 545.0625 639.875 541.9375 634.75 C 538.0625 628.25 530.9375 627.25 526.4375 627.25 C 518.8125 627.25 512.1875 631.25 506.4375 634.625 L 506.6875 627.75 L 505.4375 626.875 C 495.8125 628.875 493.6875 629.25 484.3125 630.5 L 483.5625 631.375 C 484.5625 642.25 485.3125 650.125 485.3125 670.5 C 485.3125 678.5 485.1875 686.5 485.0625 694.5 L 485.8125 695.25 C 494.8125 694.875 496.6875 694.875 506.6875 694.875 L 507.4375 694.125 C 506.6875 674.875 506.5625 670 506.4375 647.625 C 509.0625 645.875 512.0625 643.75 516.0625 643.75 C 522.9375 643.75 523.5625 651.125 523.9375 655.625 C 524.1875 659.75 524.3125 676.875 524.3125 681.625 C 524.3125 685.875 524.1875 690.25 524.1875 694.5 L 524.9375 695.25 C 533.1875 695 535.3125 694.875 545.3125 694.875 Z M 633.0625 641.25 C 622.5625 636.875 617.0625 634.625 617.0625 629 C 617.0625 625.125 620.6875 620.25 628.9375 620.25 C 638.4375 620.25 644.0625 624.125 648.6875 627.25 L 649.8125 626.75 L 650.8125 610.375 L 650.1875 609.5 C 644.8125 607.25 639.1875 604.875 627.0625 604.875 C 603.5625 604.875 595.4375 618.125 595.4375 631.5 C 595.4375 646.625 607.1875 652.125 614.1875 655.5 L 618.3125 657.375 C 626.9375 661 633.5625 664.125 633.5625 670.75 C 633.5625 675.5 629.4375 681.125 618.5625 681.125 C 607.1875 681.125 600.8125 676.125 597.1875 673.25 L 595.9375 673.625 L 595.0625 691.25 L 595.8125 692.25 C 597.1875 692.75 598.5625 693.375 599.9375 693.75 C 602.8125 694.75 610.1875 696.875 619.5625 696.875 C 623.3125 696.875 632.8125 696.5 640.3125 693 C 650.8125 687.875 655.3125 678.375 655.3125 667.75 C 655.3125 660.625 652.5625 653 645.9375 647.875 C 642.5625 645.375 639.3125 643.875 636.3125 642.5 Z M 702.1875 680.625 C 700.0625 681.25 698.5625 681.75 696.4375 681.75 C 690.0625 681.75 689.5625 677.75 689.3125 675.875 C 688.9375 672.625 688.9375 665.75 689.0625 660.75 L 689.3125 643.125 L 700.5625 643.625 L 701.3125 642.875 L 702.5625 629.5 L 701.8125 628.75 L 689.3125 628.75 L 689.6875 607.75 L 688.8125 607 C 680.3125 609.5 678.0625 610.125 669.1875 612.375 L 668.6875 613.25 L 668.8125 628.875 L 662.0625 628.625 L 661.3125 629.25 L 660.1875 642.625 L 660.9375 643.375 L 668.8125 643.125 L 668.4375 663 C 668.3125 666.125 668.1875 669.25 668.1875 672.5 C 668.1875 684 668.4375 696.375 687.9375 696.375 C 692.8125 696.375 696.6875 695.625 701.0625 694.875 L 701.9375 694 L 703.1875 681.125 Z M 767.0625 657.75 C 767.1875 646.5 767.1875 641.625 763.9375 636.375 C 761.4375 632.375 756.4375 627.375 740.4375 627.375 C 729.6875 627.375 723.0625 629.375 715.9375 631.5 L 715.1875 632.5 L 714.5625 646.125 L 715.5625 646.625 C 719.9375 644.875 728.0625 641.625 736.4375 641.625 C 741.0625 641.625 742.9375 642.375 744.5625 644 C 745.8125 645.25 746.1875 647.5 746.1875 649.375 C 731.1875 651.375 724.1875 652.75 716.6875 657.375 C 709.6875 661.75 707.3125 668.875 707.3125 674.5 C 707.3125 687.875 716.9375 696.5 729.1875 696.5 C 738.5625 696.5 743.9375 692 746.5625 689.875 L 746.5625 694.5 L 747.3125 695.375 C 756.3125 695 759.0625 694.875 767.1875 695 L 767.8125 694.125 C 766.9375 681.875 766.9375 678.75 766.9375 667 L 767.0625 657.75 M 746.4375 677.625 C 743.8125 679.125 740.4375 680.875 736.3125 680.875 C 731.8125 680.875 728.0625 678.5 728.0625 673.25 C 728.0625 665 737.9375 663.625 746.4375 662.5 Z M 816.6875 680.625 C 814.5625 681.25 813.0625 681.75 810.9375 681.75 C 804.5625 681.75 804.0625 677.75 803.8125 675.875 C 803.4375 672.625 803.4375 665.75 803.5625 660.75 L 803.8125 643.125 L 815.0625 643.625 L 815.8125 642.875 L 817.0625 629.5 L 816.3125 628.75 L 803.8125 628.75 L 804.1875 607.75 L 803.3125 607 C 794.8125 609.5 792.5625 610.125 783.6875 612.375 L 783.1875 613.25 L 783.3125 628.875 L 776.5625 628.625 L 775.8125 629.25 L 774.6875 642.625 L 775.4375 643.375 L 783.3125 643.125 L 782.9375 663 C 782.8125 666.125 782.6875 669.25 782.6875 672.5 C 782.6875 684 782.9375 696.375 802.4375 696.375 C 807.3125 696.375 811.1875 695.625 815.5625 694.875 L 816.4375 694 L 817.6875 681.125 Z M 881.4375 676.5 C 876.6875 679 871.0625 681.875 861.9375 681.875 C 854.4375 681.875 849.3125 679.5 846.3125 675 C 844.4375 672.375 844.0625 669.875 843.5625 667.375 L 883.9375 666.625 L 884.6875 665.75 C 884.5625 659.625 884.4375 653.375 882.6875 647.125 C 878.3125 632.375 868.6875 629.375 864.4375 628.375 C 861.3125 627.5 858.4375 627.25 855.5625 627.25 C 835.9375 627.25 822.9375 640.125 822.9375 661.75 C 822.9375 667.625 823.9375 673.75 825.9375 678.125 C 833.1875 695 850.1875 696.5 859.1875 696.5 C 869.5625 696.5 874.0625 694.625 880.6875 692 L 881.4375 691 L 882.3125 676.875 L 881.4375 676.5 M 843.5625 654.125 C 843.9375 650.25 844.8125 645 849.5625 642 C 851.0625 641 852.8125 640.625 854.5625 640.625 C 858.6875 640.625 861.1875 642.75 862.5625 645 C 864.3125 647.75 864.4375 650.75 864.4375 653.625 Z M 888.6875 695 "/>
<path fill-rule="nonzero" fill="rgb(34.901961%, 14.901961%, 14.901961%)" fill-opacity="1" d="M 196.8125 756.375 C 186.8125 756.75 185.1875 756.75 174.6875 756.75 L 174.0625 757.5 C 174.9375 771.625 174.9375 775.25 175.0625 790 C 169.5625 790.125 164.0625 790.25 158.4375 790.25 C 154.0625 790.25 149.5625 790.125 145.1875 790.125 L 145.4375 757.125 L 144.8125 756.375 C 135.1875 756.75 133.3125 756.75 122.4375 756.75 L 121.6875 757.5 C 122.3125 770.375 123.0625 785.75 123.0625 816.75 C 123.0625 828 122.8125 834.125 122.5625 844.625 L 123.1875 845.375 C 132.3125 845 134.5625 844.875 145.5625 845 L 146.1875 844.25 C 145.4375 828.75 145.3125 824.25 145.1875 806.125 C 150.6875 805.875 155.3125 805.75 160.1875 805.75 C 165.1875 805.75 170.1875 805.875 175.1875 806 C 175.4375 822.875 175.4375 827 174.8125 844.625 L 175.4375 845.375 C 184.8125 845 187.3125 844.875 197.9375 845 L 198.5625 844.25 C 197.5625 823.25 197.1875 802.375 197.1875 781.375 C 197.1875 772.625 197.3125 766.75 197.4375 757.125 Z M 235.6875 844.125 C 235.0625 834.5 234.5625 827.125 234.5625 809.875 C 234.5625 799.25 234.8125 788.5 234.9375 777.875 L 234.0625 776.875 L 212.5625 780.625 L 211.8125 781.375 C 212.8125 790.875 213.1875 795.25 213.1875 813 C 213.1875 826.625 212.8125 834.25 212.4375 844.5 L 213.1875 845.375 C 222.1875 845 224.6875 844.875 234.8125 845 L 235.6875 844.125 M 233.6875 764.875 L 234.0625 747.875 L 233.3125 747.125 L 212.9375 749.625 L 212.1875 750.5 C 212.4375 755 212.5625 757.625 212.5625 760.625 C 212.5625 763 212.5625 765.5 212.4375 767.875 L 213.3125 768.625 C 221.8125 767.125 224.1875 766.875 233.0625 765.75 Z M 275.8125 801.875 C 271.5625 800.375 268.1875 799 268.1875 795.5 C 268.1875 794 269.1875 789.875 276.9375 789.875 C 284.5625 789.875 289.4375 793.125 292.5625 795.125 L 293.6875 794.75 L 294.9375 781.125 L 294.3125 780.375 C 288.4375 778.75 283.3125 777.25 275.1875 777.25 C 269.0625 777.25 256.8125 777.75 250.3125 787.125 C 248.6875 789.375 246.9375 793.125 246.9375 798.125 C 246.9375 811.5 257.3125 815.5 263.1875 817.75 L 267.9375 819.5 C 271.3125 820.625 276.8125 822.5 276.8125 827 C 276.8125 830.125 273.9375 833.5 266.9375 833.5 C 263.4375 833.5 258.3125 832.375 253.6875 830 C 251.5625 828.875 250.5625 828 248.6875 826.5 L 247.5625 827 C 247.3125 833.5 247.1875 834.875 246.6875 841.125 L 247.3125 842.25 C 253.4375 844.5 258.6875 846.5 267.8125 846.5 C 277.3125 846.5 296.0625 844.75 298.3125 826.875 C 298.4375 825.875 298.4375 825 298.4375 824.125 C 298.4375 810.375 288.8125 806.75 281.9375 804.125 Z M 344.4375 830.625 C 342.3125 831.25 340.8125 831.75 338.6875 831.75 C 332.3125 831.75 331.8125 827.75 331.5625 825.875 C 331.1875 822.625 331.1875 815.75 331.3125 810.75 L 331.5625 793.125 L 342.8125 793.625 L 343.5625 792.875 L 344.8125 779.5 L 344.0625 778.75 L 331.5625 778.75 L 331.9375 757.75 L 331.0625 757 C 322.5625 759.5 320.3125 760.125 311.4375 762.375 L 310.9375 763.25 L 311.0625 778.875 L 304.3125 778.625 L 303.5625 779.25 L 302.4375 792.625 L 303.1875 793.375 L 311.0625 793.125 L 310.6875 813 C 310.5625 816.125 310.4375 819.25 310.4375 822.5 C 310.4375 834 310.6875 846.375 330.1875 846.375 C 335.0625 846.375 338.9375 845.625 343.3125 844.875 L 344.1875 844 L 345.4375 831.125 Z M 417.3125 811.75 C 417.3125 806.875 417.3125 786.625 399.8125 779.75 C 394.3125 777.625 387.8125 777.375 384.5625 777.375 C 362.8125 777.375 350.5625 789 350.5625 812 C 350.5625 820 351.8125 828.125 356.4375 834.875 C 359.6875 839.75 365.8125 846.5 383.6875 846.5 C 410.1875 846.5 417.3125 830.5 417.3125 811.75 M 395.6875 811.625 C 395.6875 821.875 394.3125 833.25 383.9375 833.25 C 380.6875 833.25 378.4375 831.75 376.9375 830.375 C 374.8125 828.25 372.4375 824 372.4375 811.875 C 372.4375 808.25 372.4375 800.25 374.9375 795.875 C 376.8125 792.5 380.0625 790.25 384.0625 790.25 C 387.5625 790.25 390.4375 792.125 392.0625 794.125 C 395.0625 797.75 395.6875 804.875 395.6875 811.625 Z M 465.3125 798.625 L 468.8125 778.25 L 468.0625 777.375 C 467.1875 777.375 466.3125 777.25 465.4375 777.25 C 460.3125 777.25 454.5625 780.125 450.5625 789.375 L 450.9375 777.875 L 449.9375 776.875 C 440.6875 778.875 438.3125 779.25 429.1875 780.625 L 428.4375 781.375 C 429.1875 790.75 429.5625 796.375 429.5625 813.75 C 429.5625 824 429.4375 834.25 429.1875 844.625 L 429.9375 845.375 C 439.1875 845 441.1875 844.875 451.1875 845 L 451.8125 844.125 C 451.3125 834 450.5625 819.875 450.5625 811.25 C 450.5625 805.625 450.5625 797.375 459.0625 797.375 C 461.1875 797.375 462.4375 798.125 464.1875 799.125 Z M 498.6875 844.125 C 498.0625 834.5 497.5625 827.125 497.5625 809.875 C 497.5625 799.25 497.8125 788.5 497.9375 777.875 L 497.0625 776.875 L 475.5625 780.625 L 474.8125 781.375 C 475.8125 790.875 476.1875 795.25 476.1875 813 C 476.1875 826.625 475.8125 834.25 475.4375 844.5 L 476.1875 845.375 C 485.1875 845 487.6875 844.875 497.8125 845 L 498.6875 844.125 M 496.6875 764.875 L 497.0625 747.875 L 496.3125 747.125 L 475.9375 749.625 L 475.1875 750.5 C 475.4375 755 475.5625 757.625 475.5625 760.625 C 475.5625 763 475.5625 765.5 475.4375 767.875 L 476.3125 768.625 C 484.8125 767.125 487.1875 766.875 496.0625 765.75 Z M 561.4375 827 C 558.0625 829 554.8125 831 548.4375 831 C 534.3125 831 531.4375 819.25 531.4375 811.75 C 531.4375 802.625 535.4375 792.125 547.5625 792.125 C 553.0625 792.125 556.0625 794.125 559.8125 796.625 L 561.0625 796.25 C 561.5625 789.625 561.6875 787.875 562.6875 781.25 L 562.0625 780.5 C 556.5625 778.75 551.8125 777.25 544.5625 777.25 C 515.1875 777.25 509.4375 799.5 509.4375 812.25 C 509.4375 826.625 516.9375 846.125 545.0625 846.125 C 551.6875 846.125 555.9375 844.875 561.1875 843.375 L 561.9375 842.625 L 562.4375 827.625 Z M 625.6875 756.5 L 609.8125 756.75 L 609.0625 757.5 C 609.5625 773.75 609.9375 784.625 609.9375 799 C 609.9375 814.25 609.5625 829.375 609.1875 844.625 L 609.9375 845.375 C 619.1875 845 621.1875 844.875 631.1875 845 L 631.8125 844.25 C 631.3125 830.625 631.3125 827.5 631.3125 814.75 C 645.3125 814.875 660.3125 814.875 669.3125 803.875 C 672.8125 799.625 675.8125 792.5 675.8125 783.75 C 675.8125 778.375 674.5625 766.5 664.1875 760.625 C 656.6875 756.25 646.0625 756.25 636.6875 756.25 L 625.6875 756.5 M 631.3125 771.625 C 634.0625 771.5 636.6875 771.5 639.4375 771.5 C 650.4375 771.75 653.4375 777.375 653.4375 784.625 C 653.4375 786.375 653.4375 793.625 646.8125 797.25 C 643.4375 799.125 638.8125 799.375 631.3125 799.375 Z M 740.0625 807.75 C 740.1875 796.5 740.1875 791.625 736.9375 786.375 C 734.4375 782.375 729.4375 777.375 713.4375 777.375 C 702.6875 777.375 696.0625 779.375 688.9375 781.5 L 688.1875 782.5 L 687.5625 796.125 L 688.5625 796.625 C 692.9375 794.875 701.0625 791.625 709.4375 791.625 C 714.0625 791.625 715.9375 792.375 717.5625 794 C 718.8125 795.25 719.1875 797.5 719.1875 799.375 C 704.1875 801.375 697.1875 802.75 689.6875 807.375 C 682.6875 811.75 680.3125 818.875 680.3125 824.5 C 680.3125 837.875 689.9375 846.5 702.1875 846.5 C 711.5625 846.5 716.9375 842 719.5625 839.875 L 719.5625 844.5 L 720.3125 845.375 C 729.3125 845 732.0625 844.875 740.1875 845 L 740.8125 844.125 C 739.9375 831.875 739.9375 828.75 739.9375 817 L 740.0625 807.75 M 719.4375 827.625 C 716.8125 829.125 713.4375 830.875 709.3125 830.875 C 704.8125 830.875 701.0625 828.5 701.0625 823.25 C 701.0625 815 710.9375 813.625 719.4375 812.5 Z M 790.8125 798.625 L 794.3125 778.25 L 793.5625 777.375 C 792.6875 777.375 791.8125 777.25 790.9375 777.25 C 785.8125 777.25 780.0625 780.125 776.0625 789.375 L 776.4375 777.875 L 775.4375 776.875 C 766.1875 778.875 763.8125 779.25 754.6875 780.625 L 753.9375 781.375 C 754.6875 790.75 755.0625 796.375 755.0625 813.75 C 755.0625 824 754.9375 834.25 754.6875 844.625 L 755.4375 845.375 C 764.6875 845 766.6875 844.875 776.6875 845 L 777.3125 844.125 C 776.8125 834 776.0625 819.875 776.0625 811.25 C 776.0625 805.625 776.0625 797.375 784.5625 797.375 C 786.6875 797.375 787.9375 798.125 789.6875 799.125 Z M 865.8125 843.375 C 854.0625 823.5 852.8125 821.25 843.3125 804.125 C 851.9375 792.375 852.8125 791.125 861.6875 779.75 L 861.0625 778.5 L 840.6875 778.75 L 839.4375 779.625 C 829.6875 796.5 828.4375 798.5 822.6875 807.125 L 822.6875 793.25 C 822.8125 769.875 822.9375 764.875 823.5625 746 L 822.5625 745.25 L 800.8125 748.5 L 800.0625 749.375 C 800.9375 761.5 801.3125 767.375 801.5625 783.75 C 801.8125 804 801.8125 824.25 801.6875 844.5 L 802.5625 845.375 C 810.9375 845 813.3125 845 822.8125 845 L 823.5625 844.125 L 822.8125 823 L 822.6875 808.625 C 833.5625 828.625 834.9375 831.375 841.3125 844.625 L 842.4375 845.375 L 864.9375 844.5 Z M 864.3125 845 "/>
</svg>
