<svg xmlns="http://www.w3.org/2000/svg" width="612" height="817" viewBox="0 0 612 817">
  <defs>
    <style>
      .cls-1 {
        fill: #592626;
        fill-rule: evenodd;
      }
    </style>
  </defs>
  <path id="Refugio_State_Beach" data-name="Refugio State Beach" class="cls-1" d="M84.91,369.678a236.436,236.436,0,0,1,11.355,21.388l0.622,0.389c2.411-.156,4.744-0.311,7.155-0.389s4.9-.156,7.311-0.156l0.467-.933c-2.956-3.811-3.811-4.978-9.411-13.922-2.489-3.966-3.733-6.066-5.677-9.488,3.5-1.556,10.577-4.822,10.577-14.7,0-3.422-.933-10.5-7.311-13.844-4.044-2.1-8.244-2.178-17.344-2.022l-5.444.078H67.722l-0.389.466c0.311,7.855.622,15.944,0.622,37.1,0,7.233-.078,10.733-0.311,17.188l0.467,0.467c5.677-.233,6.922-0.311,13.3-0.233l0.467-.467c-0.622-9.022-.7-11.51-0.778-20.766ZM81.255,345.49c1.089-.078,2.178-0.078,3.266-0.078,3.033,0,9.022,0,9.022,6.845a7.567,7.567,0,0,1-3.422,6.844c-2.178,1.322-4.978,1.477-8.866,1.555V345.49Zm69.221,34.065a23.763,23.763,0,0,1-12.133,3.345c-4.666,0-7.855-1.478-9.722-4.278a11.014,11.014,0,0,1-1.711-4.744l25.121-.467,0.467-.544a45.651,45.651,0,0,0-1.244-11.589c-2.722-9.177-8.711-11.044-11.355-11.666a19.943,19.943,0,0,0-5.522-.7c-12.211,0-20.3,8.011-20.3,21.466a25.891,25.891,0,0,0,1.866,10.188c4.511,10.5,15.088,11.433,20.688,11.433,6.455,0,9.255-1.167,13.377-2.8l0.467-.622,0.544-8.788ZM126.91,365.634c0.234-2.411.778-5.678,3.734-7.544a5.968,5.968,0,0,1,8.088,1.866,9.5,9.5,0,0,1,1.167,5.367Zm48.3,24.887c-0.778-14.154-.855-17.965-0.778-31.731l6.145,0.311,0.544-.545,0.7-8.244-0.389-.466h-7.077l0.077-1.789c0-4.744.078-9.1,5.134-9.1,0.777,0,1.555.156,2.333,0.234l0.544-.312,0.7-8.788-0.389-.544c-1.866-.156-3.655-0.234-5.444-0.234-3.966,0-8.011.467-11.122,2.8-4.822,3.578-4.744,9.177-4.744,13.066l0.078,4.667-5.055-.078-0.467.389-0.778,8.244,0.467,0.466,5.911-.155c0,14.7,0,18.2-.467,32.043L161.6,391.3c5.288-.233,7.31-0.311,13.144-0.311Zm49.31-41.064-12.677.622-0.544.467c0.544,8.788.544,21.232,0.544,22.476,0,2.256,0,3.5-.078,6.611-2.1,1.4-3.733,2.567-5.833,2.567-5.6,0-5.6-5.911-5.6-10.5,0-1.944,0-3.966.078-5.911l0.156-15.71-0.545-.622-12.832.622-0.545.467c0.467,6.533.545,8.71,0.545,16.565v5.445c-0.078,8.477.311,12.055,3.111,15.321A13.317,13.317,0,0,0,200.488,392c5.522,0,8.711-2.489,11.511-4.666l-0.078,3.5,0.544,0.467c5.678-.233,7.389-0.233,12.444-0.233l0.467-.467c-0.389-5.522-.545-8.477-0.545-18.588q0-10.967.234-21.932Zm23.957,28.465a21.833,21.833,0,0,0,8.711-1.011c4.044-1.4,9.955-4.744,9.955-12.288a10.175,10.175,0,0,0-2.1-6.767l5.366,0.311,0.467-.388L271.42,350l-0.466-.389c-5.989.234-7.622,0.311-12.522,0.234l-3.578-.078c-5.522-.156-12.91-0.311-17.965,3.888a13.051,13.051,0,0,0-4.978,10.5,12.6,12.6,0,0,0,2.255,7.544,13.35,13.35,0,0,0,5.211,4.355c-2.177,4.2-3.344,6.3-5.133,9.489v0.7l3.267,2.333c-2.333,1.789-5.989,4.744-5.989,9.8a10.964,10.964,0,0,0,4.822,8.788c4.355,3.111,10.266,3.267,13.3,3.267,14.233,0,20.766-7.156,20.766-14.7,0-9.8-8.555-11.666-13.61-12.832l-1.867-.312a32.7,32.7,0,0,1-7.7-1.944Zm6.377-14c-0.077,6.3-3.888,6.844-4.977,6.844a5.035,5.035,0,0,1-4.667-3.267,10.715,10.715,0,0,1-.7-4.044c0-3.889,2.334-6.377,5.211-6.377C253.3,357.079,254.932,360.5,254.854,363.923Zm-6.61,29.009c6.921,1.789,7,1.789,7.933,2.567a3.43,3.43,0,0,1,1.555,3.033c0,2.333-1.944,4.744-7.077,4.744-5.756,0-7.7-3.266-7.7-5.988a7.387,7.387,0,0,1,2.255-5.133Zm43.788-2.411c-0.388-5.988-.7-10.577-0.7-21.31,0-6.611.156-13.3,0.234-19.91l-0.545-.622-13.377,2.333-0.466.467c0.622,5.911.855,8.633,0.855,19.677,0,8.477-.233,13.221-0.467,19.6l0.467,0.544c5.6-.233,7.155-0.311,13.455-0.233Zm-1.244-49.308,0.233-10.578-0.466-.466-12.677,1.555-0.467.545c0.155,2.8.233,4.433,0.233,6.3,0,1.478,0,3.034-.078,4.511l0.545,0.467c5.289-.933,6.766-1.089,12.288-1.789Zm49.465,29.165c0-3.033,0-15.633-10.888-19.91a27.956,27.956,0,0,0-9.488-1.478c-13.533,0-21.155,7.233-21.155,21.543,0,4.978.778,10.033,3.655,14.233C304.4,387.8,308.211,392,319.332,392,335.82,392,340.253,382.044,340.253,370.378ZM326.8,370.3c0,6.378-.856,13.455-7.311,13.455a6.292,6.292,0,0,1-4.356-1.789c-1.322-1.322-2.8-3.966-2.8-11.51,0-2.256,0-7.233,1.555-9.955a6.442,6.442,0,0,1,5.678-3.5,6.538,6.538,0,0,1,4.977,2.411C326.41,361.667,326.8,366.1,326.8,370.3Zm66.033-12.677c-6.533-2.722-9.955-4.122-9.955-7.622,0-2.411,2.255-5.444,7.389-5.444,5.91,0,9.41,2.411,12.288,4.355l0.7-.311,0.622-10.188-0.389-.545a31.857,31.857,0,0,0-14.388-2.877c-14.622,0-19.677,8.244-19.677,16.566,0,9.41,7.311,12.832,11.666,14.932l2.567,1.167c5.366,2.255,9.488,4.2,9.488,8.322,0,2.955-2.566,6.455-9.333,6.455a19.839,19.839,0,0,1-13.3-4.9l-0.778.233-0.544,10.967,0.466,0.622c0.856,0.311,1.711.7,2.567,0.933a38.745,38.745,0,0,0,12.21,1.944c2.334,0,8.245-.233,12.911-2.411,6.533-3.188,9.333-9.1,9.333-15.71a15.415,15.415,0,0,0-5.833-12.366,31.446,31.446,0,0,0-5.989-3.344Zm43.011,24.5a11.669,11.669,0,0,1-3.577.7c-3.967,0-4.278-2.489-4.434-3.656a89.161,89.161,0,0,1-.155-9.41l0.155-10.966,7,0.311,0.467-.467,0.777-8.322-0.466-.466h-7.778l0.234-13.066-0.545-.467c-5.288,1.555-6.688,1.944-12.21,3.344L415,340.2l0.078,9.721-4.2-.155-0.467.389-0.7,8.321,0.467,0.467,4.9-.155-0.234,12.366c-0.078,1.944-.155,3.888-0.155,5.91,0,7.156.155,14.855,12.288,14.855a45.17,45.17,0,0,0,8.166-.933l0.545-.544,0.777-8.011Zm40.366-14.233c0.078-7,.078-10.033-1.944-13.3-1.556-2.489-4.667-5.6-14.622-5.6a47.306,47.306,0,0,0-15.243,2.567l-0.467.622-0.389,8.477,0.622,0.311c2.722-1.089,7.778-3.111,12.989-3.111,2.877,0,4.044.467,5.055,1.478a4.9,4.9,0,0,1,1.011,3.344c-9.333,1.245-13.688,2.1-18.355,4.978a12.437,12.437,0,0,0-5.833,10.655c0,8.322,5.989,13.688,13.611,13.688a16.079,16.079,0,0,0,10.81-4.122v2.878l0.467,0.544c5.6-.233,7.311-0.311,12.366-0.233l0.389-.545c-0.545-7.621-.545-9.566-0.545-16.877Zm-12.833,12.366a12.6,12.6,0,0,1-6.3,2.022c-2.8,0-5.133-1.477-5.133-4.744,0-5.133,6.144-5.988,11.432-6.688v9.41Zm43.712,1.867a11.68,11.68,0,0,1-3.578.7c-3.966,0-4.278-2.489-4.433-3.656a89.4,89.4,0,0,1-.156-9.41l0.156-10.966,7,0.311,0.466-.467,0.778-8.322-0.467-.466h-7.777l0.233-13.066-0.544-.467c-5.289,1.555-6.689,1.944-12.211,3.344l-0.311.545,0.078,9.721-4.2-.155-0.466.389-0.7,8.321,0.466,0.467,4.9-.155-0.233,12.366c-0.078,1.944-.156,3.888-0.156,5.91,0,7.156.156,14.855,12.288,14.855a45.17,45.17,0,0,0,8.167-.933l0.544-.544,0.778-8.011Zm38.732-2.567a23.761,23.761,0,0,1-12.132,3.345c-4.667,0-7.856-1.478-9.722-4.278a11,11,0,0,1-1.711-4.744l25.121-.467,0.466-.544a45.56,45.56,0,0,0-1.244-11.589c-2.722-9.177-8.711-11.044-11.355-11.666a19.933,19.933,0,0,0-5.522-.7c-12.21,0-20.3,8.011-20.3,21.466a25.873,25.873,0,0,0,1.867,10.188C515.8,391.066,526.377,392,531.977,392c6.455,0,9.255-1.167,13.377-2.8l0.466-.622,0.545-8.788Zm-23.565-13.921c0.233-2.411.778-5.678,3.733-7.544a5.968,5.968,0,0,1,8.088,1.866,9.5,9.5,0,0,1,1.167,5.367ZM214.682,484.4c7.233,0.156,16.177.311,22.01-3.733a15.456,15.456,0,0,0,6.533-13.144c0-4.977-2.1-9.566-6.533-11.744a17.2,17.2,0,0,0-4.822-1.4c2.645-1.088,5.756-2.488,7.778-6.61a12.624,12.624,0,0,0,1.244-5.445,13.055,13.055,0,0,0-3.111-8.71c-3.266-3.5-8.322-4.433-15.943-4.433-2.645,0-7.389.077-10.033,0.155l-10.889.156-0.466.466c0.311,7.467.389,10.344,0.389,21.077,0,11.044-.078,22.01-0.234,33.054l0.545,0.311h13.532Zm-0.544-23.643c5.911-.156,9.333-0.156,11.588,1.166a7.17,7.17,0,0,1,3.111,6.378,6.685,6.685,0,0,1-4.822,6.688c-2.333.778-6.533,0.778-9.877,0.7V460.756Zm0-22.866c1.633,0,3.811-.078,5.133-0.078,4.2,0,8.011,1.478,8.011,6.533a6.867,6.867,0,0,1-3.967,6.3c-1.944.856-6.066,0.856-9.177,0.856V437.89Zm70.855,35a23.779,23.779,0,0,1-12.133,3.344c-4.667,0-7.855-1.478-9.722-4.278a11,11,0,0,1-1.711-4.744l25.121-.467,0.467-.544a45.6,45.6,0,0,0-1.245-11.588c-2.722-9.178-8.71-11.044-11.355-11.666a19.9,19.9,0,0,0-5.522-.7c-12.21,0-20.3,8.01-20.3,21.465a25.893,25.893,0,0,0,1.867,10.189c4.511,10.5,15.088,11.432,20.688,11.432,6.455,0,9.255-1.166,13.377-2.8l0.467-.623,0.544-8.788Zm-23.566-13.922c0.233-2.411.778-5.677,3.733-7.544a5.969,5.969,0,0,1,8.089,1.867,9.5,9.5,0,0,1,1.166,5.366Zm67.354,2.255c0.078-7,.078-10.032-1.944-13.3-1.555-2.489-4.666-5.6-14.621-5.6a47.335,47.335,0,0,0-15.244,2.567l-0.467.622-0.389,8.477,0.623,0.312c2.722-1.089,7.777-3.111,12.988-3.111,2.877,0,4.044.466,5.055,1.477a4.9,4.9,0,0,1,1.011,3.345c-9.333,1.244-13.688,2.1-18.354,4.977a12.436,12.436,0,0,0-5.834,10.655c0,8.322,5.989,13.688,13.611,13.688a16.074,16.074,0,0,0,10.81-4.122v2.878l0.467,0.544c5.6-.233,7.311-0.311,12.366-0.233l0.389-.544c-0.544-7.622-.544-9.567-0.544-16.877Zm-12.832,12.367a12.6,12.6,0,0,1-6.3,2.022c-2.8,0-5.133-1.478-5.133-4.745,0-5.133,6.144-5.988,11.433-6.688v9.411Zm52.344-.389a13.856,13.856,0,0,1-8.089,2.488c-8.788,0-10.577-7.31-10.577-11.977,0-5.677,2.489-12.21,10.033-12.21,3.422,0,5.288,1.244,7.622,2.8l0.777-.234c0.312-4.122.389-5.211,1.011-9.333l-0.388-.466a32.334,32.334,0,0,0-10.889-2.022c-18.277,0-21.854,13.843-21.854,21.776,0,8.944,4.666,21.077,22.165,21.077a32.581,32.581,0,0,0,10.033-1.711l0.467-.467,0.311-9.332Zm44.955,10.655c-0.311-6.378-.389-8.555-0.544-16.644v-5.833c-0.078-7.389-.156-11.666-2.411-14.933-2.256-3.188-5.522-4.2-8.944-4.2-5.678,0-10.111,2.722-13.222,4.588l0.233-23.954-0.466-.545-13.3,2.1-0.389.467c0.7,7.544.856,10.344,1.011,20.377q0.234,9.448.234,18.9c0,7.7-.156,12.288-0.311,19.91l0.389,0.544c5.755-.311,6.921-0.311,13.221-0.311l0.467-.466c-0.545-11.666-.622-15.166-0.7-28.932a10.271,10.271,0,0,1,5.988-2.333c4.278,0,4.589,4.433,4.9,7.544,0.156,2.411.234,13.455,0.234,16.332,0,2.567-.078,5.055-0.078,7.622l0.389,0.544c5.6-.311,6.844-0.311,12.832-0.311Z"/>
</svg>
