<?xml version="1.0" encoding="UTF-8"?>
<svg xmlns="http://www.w3.org/2000/svg" xmlns:xlink="http://www.w3.org/1999/xlink" width="975" height="1300" viewBox="0 0 975 1300">
<path fill-rule="nonzero" fill="rgb(34.901961%, 14.901961%, 14.901961%)" fill-opacity="1" d="M 136.1875 585.625 C 144.5625 599.875 146.4375 603.625 154.4375 620 L 155.4375 620.625 C 159.3125 620.375 163.0625 620.125 166.9375 620 C 170.8125 619.875 174.8125 619.75 178.6875 619.75 L 179.4375 618.25 C 174.6875 612.125 173.3125 610.25 164.3125 595.875 C 160.3125 589.5 158.3125 586.125 155.1875 580.625 C 160.8125 578.125 172.1875 572.875 172.1875 557 C 172.1875 551.5 170.6875 540.125 160.4375 534.75 C 153.9375 531.375 147.1875 531.25 132.5625 531.5 L 123.8125 531.625 L 108.5625 531.625 L 107.9375 532.375 C 108.4375 545 108.9375 558 108.9375 592 C 108.9375 603.625 108.8125 609.25 108.4375 619.625 L 109.1875 620.375 C 118.3125 620 120.3125 619.875 130.5625 620 L 131.3125 619.25 C 130.3125 604.75 130.1875 600.75 130.0625 585.875 L 136.1875 585.625 M 130.3125 546.75 C 132.0625 546.625 133.8125 546.625 135.5625 546.625 C 140.4375 546.625 150.0625 546.625 150.0625 557.625 C 150.0625 561.125 149.1875 565.75 144.5625 568.625 C 141.0625 570.75 136.5625 571 130.3125 571.125 Z M 241.5625 601.5 C 236.8125 604 231.1875 606.875 222.0625 606.875 C 214.5625 606.875 209.4375 604.5 206.4375 600 C 204.5625 597.375 204.1875 594.875 203.6875 592.375 L 244.0625 591.625 L 244.8125 590.75 C 244.6875 584.625 244.5625 578.375 242.8125 572.125 C 238.4375 557.375 228.8125 554.375 224.5625 553.375 C 221.4375 552.5 218.5625 552.25 215.6875 552.25 C 196.0625 552.25 183.0625 565.125 183.0625 586.75 C 183.0625 592.625 184.0625 598.75 186.0625 603.125 C 193.3125 620 210.3125 621.5 219.3125 621.5 C 229.6875 621.5 234.1875 619.625 240.8125 617 L 241.5625 616 L 242.4375 601.875 L 241.5625 601.5 M 203.6875 579.125 C 204.0625 575.25 204.9375 570 209.6875 567 C 211.1875 566 212.9375 565.625 214.6875 565.625 C 218.8125 565.625 221.3125 567.75 222.6875 570 C 224.4375 572.75 224.5625 575.75 224.5625 578.625 Z M 281.3125 619.125 C 280.0625 596.375 279.9375 590.25 280.0625 568.125 L 289.9375 568.625 L 290.8125 567.75 L 291.9375 554.5 L 291.3125 553.75 L 279.9375 553.75 L 280.0625 550.875 C 280.0625 543.25 280.1875 536.25 288.3125 536.25 C 289.5625 536.25 290.8125 536.5 292.0625 536.625 L 292.9375 536.125 L 294.0625 522 L 293.4375 521.125 C 290.4375 520.875 287.5625 520.75 284.6875 520.75 C 278.3125 520.75 271.8125 521.5 266.8125 525.25 C 259.0625 531 259.1875 540 259.1875 546.25 L 259.3125 553.75 L 251.1875 553.625 L 250.4375 554.25 L 249.1875 567.5 L 249.9375 568.25 L 259.4375 568 C 259.4375 591.625 259.4375 597.25 258.6875 619.5 L 259.4375 620.375 C 267.9375 620 271.1875 619.875 280.5625 619.875 Z M 360.5625 553.125 L 340.1875 554.125 L 339.3125 554.875 C 340.1875 569 340.1875 589 340.1875 591 C 340.1875 594.625 340.1875 596.625 340.0625 601.625 C 336.6875 603.875 334.0625 605.75 330.6875 605.75 C 321.6875 605.75 321.6875 596.25 321.6875 588.875 C 321.6875 585.75 321.6875 582.5 321.8125 579.375 L 322.0625 554.125 L 321.1875 553.125 L 300.5625 554.125 L 299.6875 554.875 C 300.4375 565.375 300.5625 568.875 300.5625 581.5 L 300.5625 590.25 C 300.4375 603.875 301.0625 609.625 305.5625 614.875 C 309.6875 619.5 315.6875 621.5 321.9375 621.5 C 330.8125 621.5 335.9375 617.5 340.4375 614 L 340.3125 619.625 L 341.1875 620.375 C 350.3125 620 353.0625 620 361.1875 620 L 361.9375 619.25 C 361.3125 610.375 361.0625 605.625 361.0625 589.375 C 361.0625 577.625 361.1875 565.875 361.4375 554.125 Z M 399.0625 598.875 C 403.0625 599 407.0625 599.25 413.0625 597.25 C 419.5625 595 429.0625 589.625 429.0625 577.5 C 429.0625 571.5 427.3125 569 425.6875 566.625 L 434.3125 567.125 L 435.0625 566.5 L 435.9375 554 L 435.1875 553.375 C 425.5625 553.75 422.9375 553.875 415.0625 553.75 L 409.3125 553.625 C 400.4375 553.375 388.5625 553.125 380.4375 559.875 C 377.6875 562 372.4375 567.375 372.4375 576.75 C 372.4375 581.75 373.8125 585.75 376.0625 588.875 C 378.8125 592.75 381.3125 594.125 384.4375 595.875 C 380.9375 602.625 379.0625 606 376.1875 611.125 L 376.1875 612.25 L 381.4375 616 C 377.6875 618.875 371.8125 623.625 371.8125 631.75 C 371.8125 637.5 374.9375 642.5 379.5625 645.875 C 386.5625 650.875 396.0625 651.125 400.9375 651.125 C 423.8125 651.125 434.3125 639.625 434.3125 627.5 C 434.3125 611.75 420.5625 608.75 412.4375 606.875 L 409.4375 606.375 C 403.3125 605.375 401.9375 605 397.0625 603.25 L 399.0625 598.875 M 409.3125 576.375 C 409.1875 586.5 403.0625 587.375 401.3125 587.375 C 400.3125 587.375 395.9375 587.125 393.8125 582.125 C 392.6875 579.5 392.6875 576.5 392.6875 575.625 C 392.6875 569.375 396.4375 565.375 401.0625 565.375 C 406.8125 565.375 409.4375 570.875 409.3125 576.375 M 398.6875 623 C 409.8125 625.875 409.9375 625.875 411.4375 627.125 C 412.6875 628 413.9375 629.375 413.9375 632 C 413.9375 635.75 410.8125 639.625 402.5625 639.625 C 393.3125 639.625 390.1875 634.375 390.1875 630 C 390.1875 625.875 392.3125 623.5 393.8125 621.75 Z M 466.4375 619.125 C 465.8125 609.5 465.3125 602.125 465.3125 584.875 C 465.3125 574.25 465.5625 563.5 465.6875 552.875 L 464.8125 551.875 L 443.3125 555.625 L 442.5625 556.375 C 443.5625 565.875 443.9375 570.25 443.9375 588 C 443.9375 601.625 443.5625 609.25 443.1875 619.5 L 443.9375 620.375 C 452.9375 620 455.4375 619.875 465.5625 620 L 466.4375 619.125 M 464.4375 539.875 L 464.8125 522.875 L 464.0625 522.125 L 443.6875 524.625 L 442.9375 525.5 C 443.1875 530 443.3125 532.625 443.3125 535.625 C 443.3125 538 443.3125 540.5 443.1875 542.875 L 444.0625 543.625 C 452.5625 542.125 454.9375 541.875 463.8125 540.75 Z M 543.9375 586.75 C 543.9375 581.875 543.9375 561.625 526.4375 554.75 C 520.9375 552.625 514.4375 552.375 511.1875 552.375 C 489.4375 552.375 477.1875 564 477.1875 587 C 477.1875 595 478.4375 603.125 483.0625 609.875 C 486.3125 614.75 492.4375 621.5 510.3125 621.5 C 536.8125 621.5 543.9375 605.5 543.9375 586.75 M 522.3125 586.625 C 522.3125 596.875 520.9375 608.25 510.5625 608.25 C 507.3125 608.25 505.0625 606.75 503.5625 605.375 C 501.4375 603.25 499.0625 599 499.0625 586.875 C 499.0625 583.25 499.0625 575.25 501.5625 570.875 C 503.4375 567.5 506.6875 565.25 510.6875 565.25 C 514.1875 565.25 517.0625 567.125 518.6875 569.125 C 521.6875 572.75 522.3125 579.875 522.3125 586.625 Z M 628.4375 566.25 C 617.9375 561.875 612.4375 559.625 612.4375 554 C 612.4375 550.125 616.0625 545.25 624.3125 545.25 C 633.8125 545.25 639.4375 549.125 644.0625 552.25 L 645.1875 551.75 L 646.1875 535.375 L 645.5625 534.5 C 640.1875 532.25 634.5625 529.875 622.4375 529.875 C 598.9375 529.875 590.8125 543.125 590.8125 556.5 C 590.8125 571.625 602.5625 577.125 609.5625 580.5 L 613.6875 582.375 C 622.3125 586 628.9375 589.125 628.9375 595.75 C 628.9375 600.5 624.8125 606.125 613.9375 606.125 C 602.5625 606.125 596.1875 601.125 592.5625 598.25 L 591.3125 598.625 L 590.4375 616.25 L 591.1875 617.25 C 592.5625 617.75 593.9375 618.375 595.3125 618.75 C 598.1875 619.75 605.5625 621.875 614.9375 621.875 C 618.6875 621.875 628.1875 621.5 635.6875 618 C 646.1875 612.875 650.6875 603.375 650.6875 592.75 C 650.6875 585.625 647.9375 578 641.3125 572.875 C 637.9375 570.375 634.6875 568.875 631.6875 567.5 Z M 697.5625 605.625 C 695.4375 606.25 693.9375 606.75 691.8125 606.75 C 685.4375 606.75 684.9375 602.75 684.6875 600.875 C 684.3125 597.625 684.3125 590.75 684.4375 585.75 L 684.6875 568.125 L 695.9375 568.625 L 696.6875 567.875 L 697.9375 554.5 L 697.1875 553.75 L 684.6875 553.75 L 685.0625 532.75 L 684.1875 532 C 675.6875 534.5 673.4375 535.125 664.5625 537.375 L 664.0625 538.25 L 664.1875 553.875 L 657.4375 553.625 L 656.6875 554.25 L 655.5625 567.625 L 656.3125 568.375 L 664.1875 568.125 L 663.8125 588 C 663.6875 591.125 663.5625 594.25 663.5625 597.5 C 663.5625 609 663.8125 621.375 683.3125 621.375 C 688.1875 621.375 692.0625 620.625 696.4375 619.875 L 697.3125 619 L 698.5625 606.125 Z M 762.4375 582.75 C 762.5625 571.5 762.5625 566.625 759.3125 561.375 C 756.8125 557.375 751.8125 552.375 735.8125 552.375 C 725.0625 552.375 718.4375 554.375 711.3125 556.5 L 710.5625 557.5 L 709.9375 571.125 L 710.9375 571.625 C 715.3125 569.875 723.4375 566.625 731.8125 566.625 C 736.4375 566.625 738.3125 567.375 739.9375 569 C 741.1875 570.25 741.5625 572.5 741.5625 574.375 C 726.5625 576.375 719.5625 577.75 712.0625 582.375 C 705.0625 586.75 702.6875 593.875 702.6875 599.5 C 702.6875 612.875 712.3125 621.5 724.5625 621.5 C 733.9375 621.5 739.3125 617 741.9375 614.875 L 741.9375 619.5 L 742.6875 620.375 C 751.6875 620 754.4375 619.875 762.5625 620 L 763.1875 619.125 C 762.3125 606.875 762.3125 603.75 762.3125 592 L 762.4375 582.75 M 741.8125 602.625 C 739.1875 604.125 735.8125 605.875 731.6875 605.875 C 727.1875 605.875 723.4375 603.5 723.4375 598.25 C 723.4375 590 733.3125 588.625 741.8125 587.5 Z M 812.0625 605.625 C 809.9375 606.25 808.4375 606.75 806.3125 606.75 C 799.9375 606.75 799.4375 602.75 799.1875 600.875 C 798.8125 597.625 798.8125 590.75 798.9375 585.75 L 799.1875 568.125 L 810.4375 568.625 L 811.1875 567.875 L 812.4375 554.5 L 811.6875 553.75 L 799.1875 553.75 L 799.5625 532.75 L 798.6875 532 C 790.1875 534.5 787.9375 535.125 779.0625 537.375 L 778.5625 538.25 L 778.6875 553.875 L 771.9375 553.625 L 771.1875 554.25 L 770.0625 567.625 L 770.8125 568.375 L 778.6875 568.125 L 778.3125 588 C 778.1875 591.125 778.0625 594.25 778.0625 597.5 C 778.0625 609 778.3125 621.375 797.8125 621.375 C 802.6875 621.375 806.5625 620.625 810.9375 619.875 L 811.8125 619 L 813.0625 606.125 Z M 876.8125 601.5 C 872.0625 604 866.4375 606.875 857.3125 606.875 C 849.8125 606.875 844.6875 604.5 841.6875 600 C 839.8125 597.375 839.4375 594.875 838.9375 592.375 L 879.3125 591.625 L 880.0625 590.75 C 879.9375 584.625 879.8125 578.375 878.0625 572.125 C 873.6875 557.375 864.0625 554.375 859.8125 553.375 C 856.6875 552.5 853.8125 552.25 850.9375 552.25 C 831.3125 552.25 818.3125 565.125 818.3125 586.75 C 818.3125 592.625 819.3125 598.75 821.3125 603.125 C 828.5625 620 845.5625 621.5 854.5625 621.5 C 864.9375 621.5 869.4375 619.625 876.0625 617 L 876.8125 616 L 877.6875 601.875 L 876.8125 601.5 M 838.9375 579.125 C 839.3125 575.25 840.1875 570 844.9375 567 C 846.4375 566 848.1875 565.625 849.9375 565.625 C 854.0625 565.625 856.5625 567.75 857.9375 570 C 859.6875 572.75 859.8125 575.75 859.8125 578.625 Z M 884.0625 620 "/>
<path fill-rule="nonzero" fill="rgb(34.901961%, 14.901961%, 14.901961%)" fill-opacity="1" d="M 346.25 770 C 357.875 770.25 372.25 770.5 381.625 764 C 389.875 758.125 392.125 749.875 392.125 742.875 C 392.125 734.875 388.75 727.5 381.625 724 C 379.25 722.75 376.5 722.25 373.875 721.75 C 378.125 720 383.125 717.75 386.375 711.125 C 387.75 708.25 388.375 705.25 388.375 702.375 C 388.375 698.375 387.375 692.875 383.375 688.375 C 378.125 682.75 370 681.25 357.75 681.25 C 353.5 681.25 345.875 681.375 341.625 681.5 L 324.125 681.75 L 323.375 682.5 C 323.875 694.5 324 699.125 324 716.375 C 324 734.125 323.875 751.75 323.625 769.5 L 324.5 770 L 346.25 770 M 345.375 732 C 354.875 731.75 360.375 731.75 364 733.875 C 367.625 736.125 369 740.125 369 744.125 C 369 749.75 365.875 753.25 361.25 754.875 C 357.5 756.125 350.75 756.125 345.375 756 L 345.375 732 M 345.375 695.25 C 348 695.25 351.5 695.125 353.625 695.125 C 360.375 695.125 366.5 697.5 366.5 705.625 C 366.5 712.25 361.625 715 360.125 715.75 C 357 717.125 350.375 717.125 345.375 717.125 Z M 459.25 751.5 C 454.5 754 448.875 756.875 439.75 756.875 C 432.25 756.875 427.125 754.5 424.125 750 C 422.25 747.375 421.875 744.875 421.375 742.375 L 461.75 741.625 L 462.5 740.75 C 462.375 734.625 462.25 728.375 460.5 722.125 C 456.125 707.375 446.5 704.375 442.25 703.375 C 439.125 702.5 436.25 702.25 433.375 702.25 C 413.75 702.25 400.75 715.125 400.75 736.75 C 400.75 742.625 401.75 748.75 403.75 753.125 C 411 770 428 771.5 437 771.5 C 447.375 771.5 451.875 769.625 458.5 767 L 459.25 766 L 460.125 751.875 L 459.25 751.5 M 421.375 729.125 C 421.75 725.25 422.625 720 427.375 717 C 428.875 716 430.625 715.625 432.375 715.625 C 436.5 715.625 439 717.75 440.375 720 C 442.125 722.75 442.25 725.75 442.25 728.625 Z M 529.625 732.75 C 529.75 721.5 529.75 716.625 526.5 711.375 C 524 707.375 519 702.375 503 702.375 C 492.25 702.375 485.625 704.375 478.5 706.5 L 477.75 707.5 L 477.125 721.125 L 478.125 721.625 C 482.5 719.875 490.625 716.625 499 716.625 C 503.625 716.625 505.5 717.375 507.125 719 C 508.375 720.25 508.75 722.5 508.75 724.375 C 493.75 726.375 486.75 727.75 479.25 732.375 C 472.25 736.75 469.875 743.875 469.875 749.5 C 469.875 762.875 479.5 771.5 491.75 771.5 C 501.125 771.5 506.5 767 509.125 764.875 L 509.125 769.5 L 509.875 770.375 C 518.875 770 521.625 769.875 529.75 770 L 530.375 769.125 C 529.5 756.875 529.5 753.75 529.5 742 L 529.625 732.75 M 509 752.625 C 506.375 754.125 503 755.875 498.875 755.875 C 494.375 755.875 490.625 753.5 490.625 748.25 C 490.625 740 500.5 738.625 509 737.5 Z M 593.125 752 C 589.75 754 586.5 756 580.125 756 C 566 756 563.125 744.25 563.125 736.75 C 563.125 727.625 567.125 717.125 579.25 717.125 C 584.75 717.125 587.75 719.125 591.5 721.625 L 592.75 721.25 C 593.25 714.625 593.375 712.875 594.375 706.25 L 593.75 705.5 C 588.25 703.75 583.5 702.25 576.25 702.25 C 546.875 702.25 541.125 724.5 541.125 737.25 C 541.125 751.625 548.625 771.125 576.75 771.125 C 583.375 771.125 587.625 769.875 592.875 768.375 L 593.625 767.625 L 594.125 752.625 Z M 665.375 769.125 C 664.875 758.875 664.75 755.375 664.5 742.375 L 664.5 733 C 664.375 721.125 664.25 714.25 660.625 709 C 657 703.875 651.75 702.25 646.25 702.25 C 637.125 702.25 630 706.625 625 709.625 L 625.375 671.125 L 624.625 670.25 L 603.25 673.625 L 602.625 674.375 C 603.75 686.5 604 691 604.25 707.125 C 604.5 717.25 604.625 727.375 604.625 737.5 C 604.625 749.875 604.375 757.25 604.125 769.5 L 604.75 770.375 C 614 769.875 615.875 769.875 626 769.875 L 626.75 769.125 C 625.875 750.375 625.75 744.75 625.625 722.625 C 628 721 631 718.875 635.25 718.875 C 642.125 718.875 642.625 726 643.125 731 C 643.375 734.875 643.5 752.625 643.5 757.25 C 643.5 761.375 643.375 765.375 643.375 769.5 L 644 770.375 C 653 769.875 655 769.875 664.625 769.875 Z M 672.125 770 "/>
</svg>
