<?xml version="1.0" encoding="UTF-8"?>
<svg xmlns="http://www.w3.org/2000/svg" xmlns:xlink="http://www.w3.org/1999/xlink" width="975" height="1300" viewBox="0 0 975 1300">
<path fill-rule="nonzero" fill="rgb(34.901961%, 14.901961%, 14.901961%)" fill-opacity="1" d="M 186.1875 603.125 C 171.4375 603.875 167.9375 604 151.9375 604 L 151.6875 582.125 L 180.9375 582.125 L 181.8125 581.375 L 182.5625 567.25 L 181.9375 566.5 L 151.6875 567 L 151.6875 547.125 C 165.8125 547.125 168.6875 547.125 183.8125 547.5 L 184.4375 546.75 L 185.3125 532.25 L 184.6875 531.75 L 129.8125 531.75 L 129.0625 532.5 C 129.8125 544.625 130.0625 549.25 130.0625 582.75 C 130.0625 598.5 129.8125 606.375 129.4375 619.5 L 130.0625 620 L 185.0625 620 L 186.0625 619.25 L 186.9375 604 Z M 296.6875 619.125 C 296.0625 607.5 295.9375 604.25 295.9375 590.125 L 295.9375 580.75 C 296.0625 572.375 296.1875 564.625 292.5625 559.375 C 287.6875 552.25 279.0625 552.25 277.0625 552.25 C 266.8125 552.25 259.9375 556.875 254.9375 560.375 C 253.1875 557.5 250.0625 552.25 240.0625 552.25 C 231.8125 552.25 226.4375 556 220.6875 560 L 220.6875 553 L 219.5625 551.875 C 209.8125 553.75 207.0625 554.25 198.3125 555.5 L 197.5625 556.375 C 198.5625 566.375 199.3125 573.25 199.3125 598 C 199.3125 605.125 199.1875 612.375 199.1875 619.5 L 199.8125 620.25 C 207.8125 620 210.5625 619.875 220.9375 619.875 L 221.6875 619.125 C 220.8125 599.875 220.6875 594.125 220.5625 572.375 C 223.1875 570.5 226.0625 568.875 229.1875 568.875 C 236.9375 568.875 237.1875 577.75 237.1875 588.5 C 237.1875 606.625 237.0625 609.375 236.8125 619.5 L 237.5625 620.375 C 247.0625 619.875 249.6875 619.875 258.3125 619.875 L 259.0625 619.125 C 258.3125 607.25 258.1875 603.75 258.0625 588.625 L 258.0625 584 L 257.9375 571.375 C 260.0625 570 262.8125 568.25 266.5625 568.25 C 273.6875 568.25 274.8125 575 274.8125 585.75 C 274.8125 588.125 274.6875 590.5 274.6875 592.875 C 274.5625 597.125 274.4375 615.75 274.3125 619.5 L 275.0625 620.25 C 284.4375 619.875 287.1875 619.875 295.9375 619.875 Z M 408.6875 619.125 C 408.0625 607.5 407.9375 604.25 407.9375 590.125 L 407.9375 580.75 C 408.0625 572.375 408.1875 564.625 404.5625 559.375 C 399.6875 552.25 391.0625 552.25 389.0625 552.25 C 378.8125 552.25 371.9375 556.875 366.9375 560.375 C 365.1875 557.5 362.0625 552.25 352.0625 552.25 C 343.8125 552.25 338.4375 556 332.6875 560 L 332.6875 553 L 331.5625 551.875 C 321.8125 553.75 319.0625 554.25 310.3125 555.5 L 309.5625 556.375 C 310.5625 566.375 311.3125 573.25 311.3125 598 C 311.3125 605.125 311.1875 612.375 311.1875 619.5 L 311.8125 620.25 C 319.8125 620 322.5625 619.875 332.9375 619.875 L 333.6875 619.125 C 332.8125 599.875 332.6875 594.125 332.5625 572.375 C 335.1875 570.5 338.0625 568.875 341.1875 568.875 C 348.9375 568.875 349.1875 577.75 349.1875 588.5 C 349.1875 606.625 349.0625 609.375 348.8125 619.5 L 349.5625 620.375 C 359.0625 619.875 361.6875 619.875 370.3125 619.875 L 371.0625 619.125 C 370.3125 607.25 370.1875 603.75 370.0625 588.625 L 370.0625 584 L 369.9375 571.375 C 372.0625 570 374.8125 568.25 378.5625 568.25 C 385.6875 568.25 386.8125 575 386.8125 585.75 C 386.8125 588.125 386.6875 590.5 386.6875 592.875 C 386.5625 597.125 386.4375 615.75 386.3125 619.5 L 387.0625 620.25 C 396.4375 619.875 399.1875 619.875 407.9375 619.875 Z M 478.6875 582.75 C 478.8125 571.5 478.8125 566.625 475.5625 561.375 C 473.0625 557.375 468.0625 552.375 452.0625 552.375 C 441.3125 552.375 434.6875 554.375 427.5625 556.5 L 426.8125 557.5 L 426.1875 571.125 L 427.1875 571.625 C 431.5625 569.875 439.6875 566.625 448.0625 566.625 C 452.6875 566.625 454.5625 567.375 456.1875 569 C 457.4375 570.25 457.8125 572.5 457.8125 574.375 C 442.8125 576.375 435.8125 577.75 428.3125 582.375 C 421.3125 586.75 418.9375 593.875 418.9375 599.5 C 418.9375 612.875 428.5625 621.5 440.8125 621.5 C 450.1875 621.5 455.5625 617 458.1875 614.875 L 458.1875 619.5 L 458.9375 620.375 C 467.9375 620 470.6875 619.875 478.8125 620 L 479.4375 619.125 C 478.5625 606.875 478.5625 603.75 478.5625 592 L 478.6875 582.75 M 458.0625 602.625 C 455.4375 604.125 452.0625 605.875 447.9375 605.875 C 443.4375 605.875 439.6875 603.5 439.6875 598.25 C 439.6875 590 449.5625 588.625 458.0625 587.5 Z M 620.6875 619.25 C 625.3125 596.5 627.3125 587 640.5625 532.125 L 639.9375 531.375 C 631.0625 531.75 629.3125 531.75 620.9375 531.75 L 620.1875 532.5 C 618.1875 545.375 617.5625 549.75 614.8125 564.125 L 611.1875 583.25 L 607.1875 604.75 C 605.3125 590.75 604.6875 586.5 602.1875 572 L 598.5625 551 L 595.4375 531.75 L 594.6875 530.875 L 569.9375 531.5 L 569.1875 532.25 L 564.1875 561 L 559.3125 586.625 L 556.1875 603.875 C 554.6875 593 554.1875 589.375 551.5625 574.25 L 548.3125 556 L 544.1875 531.25 L 543.4375 530.625 C 532.6875 531.375 530.9375 531.375 521.8125 531.625 L 521.1875 532.5 C 530.3125 573.875 532.3125 583.375 539.0625 619.625 L 539.8125 620.375 C 552.4375 619.875 555.8125 619.875 568.0625 620 L 568.9375 619.25 L 571.5625 603.75 L 575.6875 580.875 L 580.1875 554.125 C 581.6875 566.375 582.0625 569.5 584.3125 583 L 587.4375 602.5 L 590.0625 619.625 L 590.6875 620.375 C 602.6875 620 606.8125 619.875 620.0625 620 Z M 710.6875 586.75 C 710.6875 581.875 710.6875 561.625 693.1875 554.75 C 687.6875 552.625 681.1875 552.375 677.9375 552.375 C 656.1875 552.375 643.9375 564 643.9375 587 C 643.9375 595 645.1875 603.125 649.8125 609.875 C 653.0625 614.75 659.1875 621.5 677.0625 621.5 C 703.5625 621.5 710.6875 605.5 710.6875 586.75 M 689.0625 586.625 C 689.0625 596.875 687.6875 608.25 677.3125 608.25 C 674.0625 608.25 671.8125 606.75 670.3125 605.375 C 668.1875 603.25 665.8125 599 665.8125 586.875 C 665.8125 583.25 665.8125 575.25 668.3125 570.875 C 670.1875 567.5 673.4375 565.25 677.4375 565.25 C 680.9375 565.25 683.8125 567.125 685.4375 569.125 C 688.4375 572.75 689.0625 579.875 689.0625 586.625 Z M 786.1875 586.75 C 786.1875 581.875 786.1875 561.625 768.6875 554.75 C 763.1875 552.625 756.6875 552.375 753.4375 552.375 C 731.6875 552.375 719.4375 564 719.4375 587 C 719.4375 595 720.6875 603.125 725.3125 609.875 C 728.5625 614.75 734.6875 621.5 752.5625 621.5 C 779.0625 621.5 786.1875 605.5 786.1875 586.75 M 764.5625 586.625 C 764.5625 596.875 763.1875 608.25 752.8125 608.25 C 749.5625 608.25 747.3125 606.75 745.8125 605.375 C 743.6875 603.25 741.3125 599 741.3125 586.875 C 741.3125 583.25 741.3125 575.25 743.8125 570.875 C 745.6875 567.5 748.9375 565.25 752.9375 565.25 C 756.4375 565.25 759.3125 567.125 760.9375 569.125 C 763.9375 572.75 764.5625 579.875 764.5625 586.625 Z M 859.3125 619.25 C 858.8125 608 858.4375 600.5 858.4375 584.125 C 858.4375 551.125 858.9375 537.5 859.4375 521 L 858.5625 520.25 L 837.9375 523.5 L 837.3125 524.25 C 838.0625 536 838.1875 539.125 838.0625 553.375 C 828.6875 553.125 816.9375 552.875 807.4375 560.375 C 798.6875 567.125 795.0625 577.5 795.0625 590.375 C 795.0625 600.125 797.6875 609.875 805.0625 616 C 810.5625 620.5 817.3125 621.5 821.4375 621.5 C 830.3125 621.5 834.9375 617.375 837.9375 614.75 L 837.6875 619.625 L 838.3125 620.375 C 846.9375 620 849.3125 620 858.6875 620 L 859.3125 619.25 M 838.0625 568.375 C 838.1875 585 838.0625 588.25 837.6875 603.375 C 835.1875 604.875 832.6875 606.375 829.1875 606.375 C 817.0625 606.375 817.0625 590.875 817.0625 588.375 C 817.0625 578.75 819.8125 568 833.8125 568 C 835.1875 568 836.3125 568.125 838.0625 568.375 Z M 866.0625 620 "/>
<path fill-rule="nonzero" fill="rgb(34.901961%, 14.901961%, 14.901961%)" fill-opacity="1" d="M 190.125 716.25 C 179.625 711.875 174.125 709.625 174.125 704 C 174.125 700.125 177.75 695.25 186 695.25 C 195.5 695.25 201.125 699.125 205.75 702.25 L 206.875 701.75 L 207.875 685.375 L 207.25 684.5 C 201.875 682.25 196.25 679.875 184.125 679.875 C 160.625 679.875 152.5 693.125 152.5 706.5 C 152.5 721.625 164.25 727.125 171.25 730.5 L 175.375 732.375 C 184 736 190.625 739.125 190.625 745.75 C 190.625 750.5 186.5 756.125 175.625 756.125 C 164.25 756.125 157.875 751.125 154.25 748.25 L 153 748.625 L 152.125 766.25 L 152.875 767.25 C 154.25 767.75 155.625 768.375 157 768.75 C 159.875 769.75 167.25 771.875 176.625 771.875 C 180.375 771.875 189.875 771.5 197.375 768 C 207.875 762.875 212.375 753.375 212.375 742.75 C 212.375 735.625 209.625 728 203 722.875 C 199.625 720.375 196.375 718.875 193.375 717.5 Z M 259.25 755.625 C 257.125 756.25 255.625 756.75 253.5 756.75 C 247.125 756.75 246.625 752.75 246.375 750.875 C 246 747.625 246 740.75 246.125 735.75 L 246.375 718.125 L 257.625 718.625 L 258.375 717.875 L 259.625 704.5 L 258.875 703.75 L 246.375 703.75 L 246.75 682.75 L 245.875 682 C 237.375 684.5 235.125 685.125 226.25 687.375 L 225.75 688.25 L 225.875 703.875 L 219.125 703.625 L 218.375 704.25 L 217.25 717.625 L 218 718.375 L 225.875 718.125 L 225.5 738 C 225.375 741.125 225.25 744.25 225.25 747.5 C 225.25 759 225.5 771.375 245 771.375 C 249.875 771.375 253.75 770.625 258.125 769.875 L 259 769 L 260.25 756.125 Z M 324.125 732.75 C 324.25 721.5 324.25 716.625 321 711.375 C 318.5 707.375 313.5 702.375 297.5 702.375 C 286.75 702.375 280.125 704.375 273 706.5 L 272.25 707.5 L 271.625 721.125 L 272.625 721.625 C 277 719.875 285.125 716.625 293.5 716.625 C 298.125 716.625 300 717.375 301.625 719 C 302.875 720.25 303.25 722.5 303.25 724.375 C 288.25 726.375 281.25 727.75 273.75 732.375 C 266.75 736.75 264.375 743.875 264.375 749.5 C 264.375 762.875 274 771.5 286.25 771.5 C 295.625 771.5 301 767 303.625 764.875 L 303.625 769.5 L 304.375 770.375 C 313.375 770 316.125 769.875 324.25 770 L 324.875 769.125 C 324 756.875 324 753.75 324 742 L 324.125 732.75 M 303.5 752.625 C 300.875 754.125 297.5 755.875 293.375 755.875 C 288.875 755.875 285.125 753.5 285.125 748.25 C 285.125 740 295 738.625 303.5 737.5 Z M 373.75 755.625 C 371.625 756.25 370.125 756.75 368 756.75 C 361.625 756.75 361.125 752.75 360.875 750.875 C 360.5 747.625 360.5 740.75 360.625 735.75 L 360.875 718.125 L 372.125 718.625 L 372.875 717.875 L 374.125 704.5 L 373.375 703.75 L 360.875 703.75 L 361.25 682.75 L 360.375 682 C 351.875 684.5 349.625 685.125 340.75 687.375 L 340.25 688.25 L 340.375 703.875 L 333.625 703.625 L 332.875 704.25 L 331.75 717.625 L 332.5 718.375 L 340.375 718.125 L 340 738 C 339.875 741.125 339.75 744.25 339.75 747.5 C 339.75 759 340 771.375 359.5 771.375 C 364.375 771.375 368.25 770.625 372.625 769.875 L 373.5 769 L 374.75 756.125 Z M 438.5 751.5 C 433.75 754 428.125 756.875 419 756.875 C 411.5 756.875 406.375 754.5 403.375 750 C 401.5 747.375 401.125 744.875 400.625 742.375 L 441 741.625 L 441.75 740.75 C 441.625 734.625 441.5 728.375 439.75 722.125 C 435.375 707.375 425.75 704.375 421.5 703.375 C 418.375 702.5 415.5 702.25 412.625 702.25 C 393 702.25 380 715.125 380 736.75 C 380 742.625 381 748.75 383 753.125 C 390.25 770 407.25 771.5 416.25 771.5 C 426.625 771.5 431.125 769.625 437.75 767 L 438.5 766 L 439.375 751.875 L 438.5 751.5 M 400.625 729.125 C 401 725.25 401.875 720 406.625 717 C 408.125 716 409.875 715.625 411.625 715.625 C 415.75 715.625 418.25 717.75 419.625 720 C 421.375 722.75 421.5 725.75 421.5 728.625 Z M 513 770 C 524.625 770.25 539 770.5 548.375 764 C 556.625 758.125 558.875 749.875 558.875 742.875 C 558.875 734.875 555.5 727.5 548.375 724 C 546 722.75 543.25 722.25 540.625 721.75 C 544.875 720 549.875 717.75 553.125 711.125 C 554.5 708.25 555.125 705.25 555.125 702.375 C 555.125 698.375 554.125 692.875 550.125 688.375 C 544.875 682.75 536.75 681.25 524.5 681.25 C 520.25 681.25 512.625 681.375 508.375 681.5 L 490.875 681.75 L 490.125 682.5 C 490.625 694.5 490.75 699.125 490.75 716.375 C 490.75 734.125 490.625 751.75 490.375 769.5 L 491.25 770 L 513 770 M 512.125 732 C 521.625 731.75 527.125 731.75 530.75 733.875 C 534.375 736.125 535.75 740.125 535.75 744.125 C 535.75 749.75 532.625 753.25 528 754.875 C 524.25 756.125 517.5 756.125 512.125 756 L 512.125 732 M 512.125 695.25 C 514.75 695.25 518.25 695.125 520.375 695.125 C 527.125 695.125 533.25 697.5 533.25 705.625 C 533.25 712.25 528.375 715 526.875 715.75 C 523.75 717.125 517.125 717.125 512.125 717.125 Z M 626 751.5 C 621.25 754 615.625 756.875 606.5 756.875 C 599 756.875 593.875 754.5 590.875 750 C 589 747.375 588.625 744.875 588.125 742.375 L 628.5 741.625 L 629.25 740.75 C 629.125 734.625 629 728.375 627.25 722.125 C 622.875 707.375 613.25 704.375 609 703.375 C 605.875 702.5 603 702.25 600.125 702.25 C 580.5 702.25 567.5 715.125 567.5 736.75 C 567.5 742.625 568.5 748.75 570.5 753.125 C 577.75 770 594.75 771.5 603.75 771.5 C 614.125 771.5 618.625 769.625 625.25 767 L 626 766 L 626.875 751.875 L 626 751.5 M 588.125 729.125 C 588.5 725.25 589.375 720 594.125 717 C 595.625 716 597.375 715.625 599.125 715.625 C 603.25 715.625 605.75 717.75 607.125 720 C 608.875 722.75 609 725.75 609 728.625 Z M 696.375 732.75 C 696.5 721.5 696.5 716.625 693.25 711.375 C 690.75 707.375 685.75 702.375 669.75 702.375 C 659 702.375 652.375 704.375 645.25 706.5 L 644.5 707.5 L 643.875 721.125 L 644.875 721.625 C 649.25 719.875 657.375 716.625 665.75 716.625 C 670.375 716.625 672.25 717.375 673.875 719 C 675.125 720.25 675.5 722.5 675.5 724.375 C 660.5 726.375 653.5 727.75 646 732.375 C 639 736.75 636.625 743.875 636.625 749.5 C 636.625 762.875 646.25 771.5 658.5 771.5 C 667.875 771.5 673.25 767 675.875 764.875 L 675.875 769.5 L 676.625 770.375 C 685.625 770 688.375 769.875 696.5 770 L 697.125 769.125 C 696.25 756.875 696.25 753.75 696.25 742 L 696.375 732.75 M 675.75 752.625 C 673.125 754.125 669.75 755.875 665.625 755.875 C 661.125 755.875 657.375 753.5 657.375 748.25 C 657.375 740 667.25 738.625 675.75 737.5 Z M 759.875 752 C 756.5 754 753.25 756 746.875 756 C 732.75 756 729.875 744.25 729.875 736.75 C 729.875 727.625 733.875 717.125 746 717.125 C 751.5 717.125 754.5 719.125 758.25 721.625 L 759.5 721.25 C 760 714.625 760.125 712.875 761.125 706.25 L 760.5 705.5 C 755 703.75 750.25 702.25 743 702.25 C 713.625 702.25 707.875 724.5 707.875 737.25 C 707.875 751.625 715.375 771.125 743.5 771.125 C 750.125 771.125 754.375 769.875 759.625 768.375 L 760.375 767.625 L 760.875 752.625 Z M 832.125 769.125 C 831.625 758.875 831.5 755.375 831.25 742.375 L 831.25 733 C 831.125 721.125 831 714.25 827.375 709 C 823.75 703.875 818.5 702.25 813 702.25 C 803.875 702.25 796.75 706.625 791.75 709.625 L 792.125 671.125 L 791.375 670.25 L 770 673.625 L 769.375 674.375 C 770.5 686.5 770.75 691 771 707.125 C 771.25 717.25 771.375 727.375 771.375 737.5 C 771.375 749.875 771.125 757.25 770.875 769.5 L 771.5 770.375 C 780.75 769.875 782.625 769.875 792.75 769.875 L 793.5 769.125 C 792.625 750.375 792.5 744.75 792.375 722.625 C 794.75 721 797.75 718.875 802 718.875 C 808.875 718.875 809.375 726 809.875 731 C 810.125 734.875 810.25 752.625 810.25 757.25 C 810.25 761.375 810.125 765.375 810.125 769.5 L 810.75 770.375 C 819.75 769.875 821.75 769.875 831.375 769.875 Z M 838.875 770 "/>
</svg>
