<svg xmlns="http://www.w3.org/2000/svg" width="612" height="817" viewBox="0 0 612 817">
  <defs>
    <style>
      .cls-1 {
        fill: #592626;
        fill-rule: evenodd;
      }
    </style>
  </defs>
  <path id="Point_Sal_State_Beach" data-name="Point Sal State Beach" class="cls-1" d="M56.677,337l-9.877.155-0.467.467c0.311,10.111.544,16.877,0.544,25.821,0,9.488-.233,18.9-0.467,28.387l0.467,0.467c5.755-.233,7-0.311,13.222-0.233l0.389-.467c-0.311-8.477-.311-10.422-0.311-18.355,8.711,0.078,18.044.078,23.643-6.766a19.986,19.986,0,0,0,4.044-12.521c0-3.345-.778-10.733-7.233-14.389-4.666-2.722-11.277-2.722-17.11-2.722Zm3.5,9.41c1.711-.077,3.344-0.077,5.055-0.077,6.844,0.155,8.711,3.655,8.711,8.166,0,1.089,0,5.6-4.122,7.855-2.1,1.167-4.978,1.322-9.644,1.322V346.412Zm71.088,24.966c0-3.033,0-15.633-10.889-19.91a27.956,27.956,0,0,0-9.488-1.478c-13.533,0-21.155,7.233-21.155,21.543,0,4.978.778,10.033,3.655,14.233C95.411,388.8,99.222,393,110.343,393,126.831,393,131.265,383.044,131.265,371.378ZM117.81,371.3c0,6.378-.856,13.455-7.311,13.455a6.288,6.288,0,0,1-4.355-1.789c-1.323-1.322-2.8-3.966-2.8-11.51,0-2.256,0-7.233,1.555-9.955a6.442,6.442,0,0,1,5.678-3.5,6.538,6.538,0,0,1,4.977,2.411C117.421,362.667,117.81,367.1,117.81,371.3Zm34.922,20.221c-0.388-5.988-.7-10.577-0.7-21.31,0-6.611.156-13.3,0.234-19.91l-0.545-.622-13.377,2.333-0.466.467c0.622,5.911.855,8.633,0.855,19.677,0,8.477-.233,13.221-0.467,19.6l0.467,0.544c5.6-.233,7.155-0.311,13.455-0.233Zm-1.244-49.308,0.233-10.578-0.466-.466-12.677,1.555-0.467.545c0.155,2.8.233,4.433,0.233,6.3,0,1.478,0,3.034-.078,4.511l0.545,0.467c5.289-.933,6.766-1.089,12.288-1.789Zm47.988,49.308c-0.389-6.844-.389-9.021-0.545-16.643v-6.067c-0.077-7.466-.155-11.044-2.1-14.232-2.411-4.045-6.844-4.667-9.644-4.667-4.744,0-8.866,2.489-12.443,4.589l0.155-4.278-0.778-.544c-5.988,1.244-7.31,1.478-13.143,2.255l-0.467.545a216.367,216.367,0,0,1,1.089,24.343c0,4.978-.078,9.955-0.156,14.933l0.467,0.466c5.6-.233,6.766-0.233,12.988-0.233l0.467-.467c-0.467-11.977-.545-15.01-0.622-28.932,1.633-1.088,3.5-2.411,5.988-2.411,4.278,0,4.667,4.589,4.9,7.389,0.155,2.567.233,13.222,0.233,16.177,0,2.644-.078,5.366-0.078,8.011l0.467,0.466c5.133-.155,6.455-0.233,12.677-0.233Zm30.645-8.4a11.669,11.669,0,0,1-3.578.7c-3.966,0-4.277-2.489-4.433-3.656a89.161,89.161,0,0,1-.155-9.41l0.155-10.966,7,0.311,0.467-.467,0.777-8.322-0.466-.466H222.11l0.234-13.066-0.545-.467c-5.289,1.555-6.688,1.944-12.21,3.344l-0.311.545,0.077,9.721-4.2-.155-0.466.389-0.7,8.321,0.467,0.467,4.9-.155-0.233,12.366c-0.078,1.944-.156,3.888-0.156,5.91,0,7.156.156,14.855,12.289,14.855a45.17,45.17,0,0,0,8.166-.933l0.544-.544,0.778-8.011Zm50.944-24.5c-6.533-2.722-9.955-4.122-9.955-7.622,0-2.411,2.256-5.444,7.389-5.444,5.911,0,9.41,2.411,12.288,4.355l0.7-.311,0.622-10.188-0.389-.545a31.857,31.857,0,0,0-14.388-2.877c-14.621,0-19.677,8.244-19.677,16.566,0,9.41,7.311,12.832,11.666,14.932l2.567,1.167c5.366,2.255,9.488,4.2,9.488,8.322,0,2.955-2.566,6.455-9.332,6.455a19.842,19.842,0,0,1-13.3-4.9l-0.778.233-0.544,10.967,0.467,0.622c0.855,0.311,1.711.7,2.566,0.933a38.753,38.753,0,0,0,12.211,1.944c2.333,0,8.244-.233,12.91-2.411,6.533-3.188,9.333-9.1,9.333-15.71a15.415,15.415,0,0,0-5.833-12.366,31.446,31.446,0,0,0-5.989-3.344Zm55.844,10.266c0.078-7,.078-10.033-1.944-13.3-1.556-2.489-4.667-5.6-14.622-5.6a47.306,47.306,0,0,0-15.243,2.567l-0.467.622-0.389,8.477,0.622,0.311c2.722-1.089,7.778-3.111,12.989-3.111,2.877,0,4.044.467,5.055,1.478a4.9,4.9,0,0,1,1.011,3.344c-9.333,1.245-13.688,2.1-18.355,4.978a12.437,12.437,0,0,0-5.833,10.655c0,8.322,5.989,13.688,13.611,13.688a16.079,16.079,0,0,0,10.81-4.122v2.878l0.467,0.544c5.6-.233,7.311-0.311,12.366-0.233l0.389-.545c-0.545-7.621-.545-9.566-0.545-16.877Zm-12.832,12.366a12.6,12.6,0,0,1-6.3,2.022c-2.8,0-5.133-1.477-5.133-4.744,0-5.133,6.144-5.988,11.433-6.688v9.41ZM359.7,391.521c-0.389-8.944-.778-17.11-0.778-41.687,0-7.388.078-10.888,0.389-19.287L358.766,330l-13.3,2.1-0.311.467c0.778,9.488.856,12.055,1.011,24.654,0.078,4.589.078,9.177,0.078,13.766,0,8.4-.155,13.066-0.466,20.766l0.466,0.544c5.211-.233,7.311-0.311,12.988-0.233Zm54.211-32.9c-6.533-2.722-9.955-4.122-9.955-7.622,0-2.411,2.255-5.444,7.388-5.444,5.911,0,9.411,2.411,12.289,4.355l0.7-.311,0.622-10.188-0.389-.545a31.857,31.857,0,0,0-14.388-2.877c-14.622,0-19.677,8.244-19.677,16.566,0,9.41,7.311,12.832,11.666,14.932l2.566,1.167c5.367,2.255,9.489,4.2,9.489,8.322,0,2.955-2.567,6.455-9.333,6.455a19.839,19.839,0,0,1-13.3-4.9l-0.778.233-0.545,10.967,0.467,0.622c0.856,0.311,1.711.7,2.567,0.933a38.745,38.745,0,0,0,12.21,1.944c2.333,0,8.244-.233,12.911-2.411,6.533-3.188,9.333-9.1,9.333-15.71a15.415,15.415,0,0,0-5.833-12.366,31.446,31.446,0,0,0-5.989-3.344Zm43.011,24.5a11.675,11.675,0,0,1-3.578.7c-3.966,0-4.277-2.489-4.433-3.656a89.161,89.161,0,0,1-.155-9.41l0.155-10.966,7,0.311,0.467-.467,0.777-8.322-0.466-.466H448.91l0.234-13.066-0.545-.467c-5.289,1.555-6.688,1.944-12.21,3.344l-0.312.545,0.078,9.721-4.2-.155-0.466.389-0.7,8.321,0.466,0.467,4.9-.155-0.233,12.366c-0.078,1.944-.156,3.888-0.156,5.91,0,7.156.156,14.855,12.289,14.855a45.17,45.17,0,0,0,8.166-.933l0.544-.544,0.778-8.011Zm40.366-14.233c0.078-7,.078-10.033-1.944-13.3-1.556-2.489-4.667-5.6-14.622-5.6a47.318,47.318,0,0,0-15.244,2.567l-0.466.622-0.389,8.477,0.622,0.311c2.722-1.089,7.777-3.111,12.988-3.111,2.878,0,4.045.467,5.056,1.478a4.908,4.908,0,0,1,1.011,3.344c-9.333,1.245-13.689,2.1-18.355,4.978a12.437,12.437,0,0,0-5.833,10.655c0,8.322,5.989,13.688,13.61,13.688a16.079,16.079,0,0,0,10.811-4.122v2.878L485,392.3c5.6-.233,7.31-0.311,12.366-0.233l0.389-.545c-0.545-7.621-.545-9.566-0.545-16.877Zm-12.833,12.366a12.6,12.6,0,0,1-6.3,2.022c-2.8,0-5.134-1.477-5.134-4.744,0-5.133,6.145-5.988,11.433-6.688v9.41Zm43.711,1.867a11.669,11.669,0,0,1-3.577.7c-3.967,0-4.278-2.489-4.433-3.656a88.86,88.86,0,0,1-.156-9.41l0.156-10.966,7,0.311,0.467-.467,0.778-8.322-0.467-.466h-7.777l0.233-13.066-0.544-.467c-5.289,1.555-6.689,1.944-12.211,3.344l-0.311.545,0.078,9.721-4.2-.155-0.467.389-0.7,8.321,0.467,0.467,4.9-.155-0.234,12.366c-0.077,1.944-.155,3.888-0.155,5.91,0,7.156.155,14.855,12.288,14.855a45.17,45.17,0,0,0,8.166-.933l0.545-.544,0.778-8.011Zm38.733-2.567a23.763,23.763,0,0,1-12.133,3.345c-4.666,0-7.855-1.478-9.721-4.278a11,11,0,0,1-1.711-4.744l25.121-.467,0.466-.544a45.605,45.605,0,0,0-1.244-11.589c-2.722-9.177-8.711-11.044-11.355-11.666a19.938,19.938,0,0,0-5.522-.7c-12.211,0-20.3,8.011-20.3,21.466a25.891,25.891,0,0,0,1.866,10.188c4.511,10.5,15.089,11.433,20.688,11.433,6.456,0,9.255-1.167,13.377-2.8l0.467-.622,0.545-8.788Zm-23.565-13.921c0.233-2.411.777-5.678,3.733-7.544a5.968,5.968,0,0,1,8.088,1.866,9.5,9.5,0,0,1,1.167,5.367ZM214.682,485.4c7.233,0.156,16.177.311,22.01-3.733a15.456,15.456,0,0,0,6.533-13.144c0-4.977-2.1-9.566-6.533-11.744a17.2,17.2,0,0,0-4.822-1.4c2.645-1.088,5.756-2.488,7.778-6.61a12.624,12.624,0,0,0,1.244-5.445,13.055,13.055,0,0,0-3.111-8.71c-3.266-3.5-8.322-4.433-15.943-4.433-2.645,0-7.389.077-10.033,0.155l-10.889.156-0.466.466c0.311,7.467.389,10.344,0.389,21.077,0,11.044-.078,22.01-0.234,33.054l0.545,0.311h13.532Zm-0.544-23.643c5.911-.156,9.333-0.156,11.588,1.166a7.17,7.17,0,0,1,3.111,6.378,6.685,6.685,0,0,1-4.822,6.688c-2.333.778-6.533,0.778-9.877,0.7V461.756Zm0-22.866c1.633,0,3.811-.078,5.133-0.078,4.2,0,8.011,1.478,8.011,6.533a6.867,6.867,0,0,1-3.967,6.3c-1.944.856-6.066,0.856-9.177,0.856V438.89Zm70.855,35a23.779,23.779,0,0,1-12.133,3.344c-4.667,0-7.855-1.478-9.722-4.278a11,11,0,0,1-1.711-4.744l25.121-.467,0.467-.544a45.6,45.6,0,0,0-1.245-11.588c-2.722-9.178-8.71-11.044-11.355-11.666a19.9,19.9,0,0,0-5.522-.7c-12.21,0-20.3,8.01-20.3,21.465a25.893,25.893,0,0,0,1.867,10.189c4.511,10.5,15.088,11.432,20.688,11.432,6.455,0,9.255-1.166,13.377-2.8l0.467-.623,0.544-8.788Zm-23.566-13.922c0.233-2.411.778-5.677,3.733-7.544a5.969,5.969,0,0,1,8.089,1.867,9.5,9.5,0,0,1,1.166,5.366Zm67.354,2.255c0.078-7,.078-10.032-1.944-13.3-1.555-2.489-4.666-5.6-14.621-5.6a47.335,47.335,0,0,0-15.244,2.567l-0.467.622-0.389,8.477,0.623,0.312c2.722-1.089,7.777-3.111,12.988-3.111,2.877,0,4.044.466,5.055,1.477a4.9,4.9,0,0,1,1.011,3.345c-9.333,1.244-13.688,2.1-18.354,4.977a12.436,12.436,0,0,0-5.834,10.655c0,8.322,5.989,13.688,13.611,13.688a16.074,16.074,0,0,0,10.81-4.122v2.878l0.467,0.544c5.6-.233,7.311-0.311,12.366-0.233l0.389-.544c-0.544-7.622-.544-9.567-0.544-16.877Zm-12.832,12.367a12.6,12.6,0,0,1-6.3,2.022c-2.8,0-5.133-1.478-5.133-4.745,0-5.133,6.144-5.988,11.433-6.688v9.411Zm52.344-.389a13.856,13.856,0,0,1-8.089,2.488c-8.788,0-10.577-7.31-10.577-11.977,0-5.677,2.489-12.21,10.033-12.21,3.422,0,5.288,1.244,7.622,2.8l0.777-.234c0.312-4.122.389-5.211,1.011-9.333l-0.388-.466a32.334,32.334,0,0,0-10.889-2.022c-18.277,0-21.854,13.843-21.854,21.776,0,8.944,4.666,21.077,22.165,21.077a32.581,32.581,0,0,0,10.033-1.711l0.467-.467,0.311-9.332Zm44.955,10.655c-0.311-6.378-.389-8.555-0.544-16.644v-5.833c-0.078-7.389-.156-11.666-2.411-14.933-2.256-3.188-5.522-4.2-8.944-4.2-5.678,0-10.111,2.722-13.222,4.588l0.233-23.954-0.466-.545-13.3,2.1-0.389.467c0.7,7.544.856,10.344,1.011,20.377q0.234,9.448.234,18.9c0,7.7-.156,12.288-0.311,19.91l0.389,0.544c5.755-.311,6.921-0.311,13.221-0.311l0.467-.466c-0.545-11.666-.622-15.166-0.7-28.932a10.271,10.271,0,0,1,5.988-2.333c4.278,0,4.589,4.433,4.9,7.544,0.156,2.411.234,13.455,0.234,16.332,0,2.567-.078,5.055-0.078,7.622l0.389,0.544c5.6-.311,6.844-0.311,12.832-0.311Z"/>
</svg>
