<?xml version="1.0" encoding="UTF-8"?>
<svg xmlns="http://www.w3.org/2000/svg" xmlns:xlink="http://www.w3.org/1999/xlink" width="975" height="1300" viewBox="0 0 975 1300">
<path fill-rule="nonzero" fill="rgb(34.901961%, 14.901961%, 14.901961%)" fill-opacity="1" d="M 88.3125 531.5 L 72.4375 531.75 L 71.6875 532.5 C 72.1875 548.75 72.5625 559.625 72.5625 574 C 72.5625 589.25 72.1875 604.375 71.8125 619.625 L 72.5625 620.375 C 81.8125 620 83.8125 619.875 93.8125 620 L 94.4375 619.25 C 93.9375 605.625 93.9375 602.5 93.9375 589.75 C 107.9375 589.875 122.9375 589.875 131.9375 578.875 C 135.4375 574.625 138.4375 567.5 138.4375 558.75 C 138.4375 553.375 137.1875 541.5 126.8125 535.625 C 119.3125 531.25 108.6875 531.25 99.3125 531.25 L 88.3125 531.5 M 93.9375 546.625 C 96.6875 546.5 99.3125 546.5 102.0625 546.5 C 113.0625 546.75 116.0625 552.375 116.0625 559.625 C 116.0625 561.375 116.0625 568.625 109.4375 572.25 C 106.0625 574.125 101.4375 574.375 93.9375 574.375 Z M 210.6875 586.75 C 210.6875 581.875 210.6875 561.625 193.1875 554.75 C 187.6875 552.625 181.1875 552.375 177.9375 552.375 C 156.1875 552.375 143.9375 564 143.9375 587 C 143.9375 595 145.1875 603.125 149.8125 609.875 C 153.0625 614.75 159.1875 621.5 177.0625 621.5 C 203.5625 621.5 210.6875 605.5 210.6875 586.75 M 189.0625 586.625 C 189.0625 596.875 187.6875 608.25 177.3125 608.25 C 174.0625 608.25 171.8125 606.75 170.3125 605.375 C 168.1875 603.25 165.8125 599 165.8125 586.875 C 165.8125 583.25 165.8125 575.25 168.3125 570.875 C 170.1875 567.5 173.4375 565.25 177.4375 565.25 C 180.9375 565.25 183.8125 567.125 185.4375 569.125 C 188.4375 572.75 189.0625 579.875 189.0625 586.625 Z M 245.1875 619.125 C 244.5625 609.5 244.0625 602.125 244.0625 584.875 C 244.0625 574.25 244.3125 563.5 244.4375 552.875 L 243.5625 551.875 L 222.0625 555.625 L 221.3125 556.375 C 222.3125 565.875 222.6875 570.25 222.6875 588 C 222.6875 601.625 222.3125 609.25 221.9375 619.5 L 222.6875 620.375 C 231.6875 620 234.1875 619.875 244.3125 620 L 245.1875 619.125 M 243.1875 539.875 L 243.5625 522.875 L 242.8125 522.125 L 222.4375 524.625 L 221.6875 525.5 C 221.9375 530 222.0625 532.625 222.0625 535.625 C 222.0625 538 222.0625 540.5 221.9375 542.875 L 222.8125 543.625 C 231.3125 542.125 233.6875 541.875 242.5625 540.75 Z M 320.3125 619.125 C 319.6875 608.125 319.6875 604.625 319.4375 592.375 L 319.4375 582.625 C 319.3125 570.625 319.1875 564.875 316.0625 559.75 C 312.1875 553.25 305.0625 552.25 300.5625 552.25 C 292.9375 552.25 286.3125 556.25 280.5625 559.625 L 280.8125 552.75 L 279.5625 551.875 C 269.9375 553.875 267.8125 554.25 258.4375 555.5 L 257.6875 556.375 C 258.6875 567.25 259.4375 575.125 259.4375 595.5 C 259.4375 603.5 259.3125 611.5 259.1875 619.5 L 259.9375 620.25 C 268.9375 619.875 270.8125 619.875 280.8125 619.875 L 281.5625 619.125 C 280.8125 599.875 280.6875 595 280.5625 572.625 C 283.1875 570.875 286.1875 568.75 290.1875 568.75 C 297.0625 568.75 297.6875 576.125 298.0625 580.625 C 298.3125 584.75 298.4375 601.875 298.4375 606.625 C 298.4375 610.875 298.3125 615.25 298.3125 619.5 L 299.0625 620.25 C 307.3125 620 309.4375 619.875 319.4375 619.875 Z M 369.5625 605.625 C 367.4375 606.25 365.9375 606.75 363.8125 606.75 C 357.4375 606.75 356.9375 602.75 356.6875 600.875 C 356.3125 597.625 356.3125 590.75 356.4375 585.75 L 356.6875 568.125 L 367.9375 568.625 L 368.6875 567.875 L 369.9375 554.5 L 369.1875 553.75 L 356.6875 553.75 L 357.0625 532.75 L 356.1875 532 C 347.6875 534.5 345.4375 535.125 336.5625 537.375 L 336.0625 538.25 L 336.1875 553.875 L 329.4375 553.625 L 328.6875 554.25 L 327.5625 567.625 L 328.3125 568.375 L 336.1875 568.125 L 335.8125 588 C 335.6875 591.125 335.5625 594.25 335.5625 597.5 C 335.5625 609 335.8125 621.375 355.3125 621.375 C 360.1875 621.375 364.0625 620.625 368.4375 619.875 L 369.3125 619 L 370.5625 606.125 Z M 451.4375 566.25 C 440.9375 561.875 435.4375 559.625 435.4375 554 C 435.4375 550.125 439.0625 545.25 447.3125 545.25 C 456.8125 545.25 462.4375 549.125 467.0625 552.25 L 468.1875 551.75 L 469.1875 535.375 L 468.5625 534.5 C 463.1875 532.25 457.5625 529.875 445.4375 529.875 C 421.9375 529.875 413.8125 543.125 413.8125 556.5 C 413.8125 571.625 425.5625 577.125 432.5625 580.5 L 436.6875 582.375 C 445.3125 586 451.9375 589.125 451.9375 595.75 C 451.9375 600.5 447.8125 606.125 436.9375 606.125 C 425.5625 606.125 419.1875 601.125 415.5625 598.25 L 414.3125 598.625 L 413.4375 616.25 L 414.1875 617.25 C 415.5625 617.75 416.9375 618.375 418.3125 618.75 C 421.1875 619.75 428.5625 621.875 437.9375 621.875 C 441.6875 621.875 451.1875 621.5 458.6875 618 C 469.1875 612.875 473.6875 603.375 473.6875 592.75 C 473.6875 585.625 470.9375 578 464.3125 572.875 C 460.9375 570.375 457.6875 568.875 454.6875 567.5 Z M 541.1875 582.75 C 541.3125 571.5 541.3125 566.625 538.0625 561.375 C 535.5625 557.375 530.5625 552.375 514.5625 552.375 C 503.8125 552.375 497.1875 554.375 490.0625 556.5 L 489.3125 557.5 L 488.6875 571.125 L 489.6875 571.625 C 494.0625 569.875 502.1875 566.625 510.5625 566.625 C 515.1875 566.625 517.0625 567.375 518.6875 569 C 519.9375 570.25 520.3125 572.5 520.3125 574.375 C 505.3125 576.375 498.3125 577.75 490.8125 582.375 C 483.8125 586.75 481.4375 593.875 481.4375 599.5 C 481.4375 612.875 491.0625 621.5 503.3125 621.5 C 512.6875 621.5 518.0625 617 520.6875 614.875 L 520.6875 619.5 L 521.4375 620.375 C 530.4375 620 533.1875 619.875 541.3125 620 L 541.9375 619.125 C 541.0625 606.875 541.0625 603.75 541.0625 592 L 541.1875 582.75 M 520.5625 602.625 C 517.9375 604.125 514.5625 605.875 510.4375 605.875 C 505.9375 605.875 502.1875 603.5 502.1875 598.25 C 502.1875 590 512.0625 588.625 520.5625 587.5 Z M 577.8125 619.125 C 577.1875 604.75 576.5625 591.625 576.5625 552.125 C 576.5625 540.25 576.6875 534.625 577.1875 521.125 L 576.3125 520.25 L 554.9375 523.625 L 554.4375 524.375 C 555.6875 539.625 555.8125 543.75 556.0625 564 C 556.1875 571.375 556.1875 578.75 556.1875 586.125 C 556.1875 599.625 555.9375 607.125 555.4375 619.5 L 556.1875 620.375 C 564.5625 620 567.9375 619.875 577.0625 620 Z M 664.9375 566.25 C 654.4375 561.875 648.9375 559.625 648.9375 554 C 648.9375 550.125 652.5625 545.25 660.8125 545.25 C 670.3125 545.25 675.9375 549.125 680.5625 552.25 L 681.6875 551.75 L 682.6875 535.375 L 682.0625 534.5 C 676.6875 532.25 671.0625 529.875 658.9375 529.875 C 635.4375 529.875 627.3125 543.125 627.3125 556.5 C 627.3125 571.625 639.0625 577.125 646.0625 580.5 L 650.1875 582.375 C 658.8125 586 665.4375 589.125 665.4375 595.75 C 665.4375 600.5 661.3125 606.125 650.4375 606.125 C 639.0625 606.125 632.6875 601.125 629.0625 598.25 L 627.8125 598.625 L 626.9375 616.25 L 627.6875 617.25 C 629.0625 617.75 630.4375 618.375 631.8125 618.75 C 634.6875 619.75 642.0625 621.875 651.4375 621.875 C 655.1875 621.875 664.6875 621.5 672.1875 618 C 682.6875 612.875 687.1875 603.375 687.1875 592.75 C 687.1875 585.625 684.4375 578 677.8125 572.875 C 674.4375 570.375 671.1875 568.875 668.1875 567.5 Z M 734.0625 605.625 C 731.9375 606.25 730.4375 606.75 728.3125 606.75 C 721.9375 606.75 721.4375 602.75 721.1875 600.875 C 720.8125 597.625 720.8125 590.75 720.9375 585.75 L 721.1875 568.125 L 732.4375 568.625 L 733.1875 567.875 L 734.4375 554.5 L 733.6875 553.75 L 721.1875 553.75 L 721.5625 532.75 L 720.6875 532 C 712.1875 534.5 709.9375 535.125 701.0625 537.375 L 700.5625 538.25 L 700.6875 553.875 L 693.9375 553.625 L 693.1875 554.25 L 692.0625 567.625 L 692.8125 568.375 L 700.6875 568.125 L 700.3125 588 C 700.1875 591.125 700.0625 594.25 700.0625 597.5 C 700.0625 609 700.3125 621.375 719.8125 621.375 C 724.6875 621.375 728.5625 620.625 732.9375 619.875 L 733.8125 619 L 735.0625 606.125 Z M 798.9375 582.75 C 799.0625 571.5 799.0625 566.625 795.8125 561.375 C 793.3125 557.375 788.3125 552.375 772.3125 552.375 C 761.5625 552.375 754.9375 554.375 747.8125 556.5 L 747.0625 557.5 L 746.4375 571.125 L 747.4375 571.625 C 751.8125 569.875 759.9375 566.625 768.3125 566.625 C 772.9375 566.625 774.8125 567.375 776.4375 569 C 777.6875 570.25 778.0625 572.5 778.0625 574.375 C 763.0625 576.375 756.0625 577.75 748.5625 582.375 C 741.5625 586.75 739.1875 593.875 739.1875 599.5 C 739.1875 612.875 748.8125 621.5 761.0625 621.5 C 770.4375 621.5 775.8125 617 778.4375 614.875 L 778.4375 619.5 L 779.1875 620.375 C 788.1875 620 790.9375 619.875 799.0625 620 L 799.6875 619.125 C 798.8125 606.875 798.8125 603.75 798.8125 592 L 798.9375 582.75 M 778.3125 602.625 C 775.6875 604.125 772.3125 605.875 768.1875 605.875 C 763.6875 605.875 759.9375 603.5 759.9375 598.25 C 759.9375 590 769.8125 588.625 778.3125 587.5 Z M 848.5625 605.625 C 846.4375 606.25 844.9375 606.75 842.8125 606.75 C 836.4375 606.75 835.9375 602.75 835.6875 600.875 C 835.3125 597.625 835.3125 590.75 835.4375 585.75 L 835.6875 568.125 L 846.9375 568.625 L 847.6875 567.875 L 848.9375 554.5 L 848.1875 553.75 L 835.6875 553.75 L 836.0625 532.75 L 835.1875 532 C 826.6875 534.5 824.4375 535.125 815.5625 537.375 L 815.0625 538.25 L 815.1875 553.875 L 808.4375 553.625 L 807.6875 554.25 L 806.5625 567.625 L 807.3125 568.375 L 815.1875 568.125 L 814.8125 588 C 814.6875 591.125 814.5625 594.25 814.5625 597.5 C 814.5625 609 814.8125 621.375 834.3125 621.375 C 839.1875 621.375 843.0625 620.625 847.4375 619.875 L 848.3125 619 L 849.5625 606.125 Z M 913.3125 601.5 C 908.5625 604 902.9375 606.875 893.8125 606.875 C 886.3125 606.875 881.1875 604.5 878.1875 600 C 876.3125 597.375 875.9375 594.875 875.4375 592.375 L 915.8125 591.625 L 916.5625 590.75 C 916.4375 584.625 916.3125 578.375 914.5625 572.125 C 910.1875 557.375 900.5625 554.375 896.3125 553.375 C 893.1875 552.5 890.3125 552.25 887.4375 552.25 C 867.8125 552.25 854.8125 565.125 854.8125 586.75 C 854.8125 592.625 855.8125 598.75 857.8125 603.125 C 865.0625 620 882.0625 621.5 891.0625 621.5 C 901.4375 621.5 905.9375 619.625 912.5625 617 L 913.3125 616 L 914.1875 601.875 L 913.3125 601.5 M 875.4375 579.125 C 875.8125 575.25 876.6875 570 881.4375 567 C 882.9375 566 884.6875 565.625 886.4375 565.625 C 890.5625 565.625 893.0625 567.75 894.4375 570 C 896.1875 572.75 896.3125 575.75 896.3125 578.625 Z M 920.5625 620 "/>
<path fill-rule="nonzero" fill="rgb(34.901961%, 14.901961%, 14.901961%)" fill-opacity="1" d="M 346.25 770 C 357.875 770.25 372.25 770.5 381.625 764 C 389.875 758.125 392.125 749.875 392.125 742.875 C 392.125 734.875 388.75 727.5 381.625 724 C 379.25 722.75 376.5 722.25 373.875 721.75 C 378.125 720 383.125 717.75 386.375 711.125 C 387.75 708.25 388.375 705.25 388.375 702.375 C 388.375 698.375 387.375 692.875 383.375 688.375 C 378.125 682.75 370 681.25 357.75 681.25 C 353.5 681.25 345.875 681.375 341.625 681.5 L 324.125 681.75 L 323.375 682.5 C 323.875 694.5 324 699.125 324 716.375 C 324 734.125 323.875 751.75 323.625 769.5 L 324.5 770 L 346.25 770 M 345.375 732 C 354.875 731.75 360.375 731.75 364 733.875 C 367.625 736.125 369 740.125 369 744.125 C 369 749.75 365.875 753.25 361.25 754.875 C 357.5 756.125 350.75 756.125 345.375 756 L 345.375 732 M 345.375 695.25 C 348 695.25 351.5 695.125 353.625 695.125 C 360.375 695.125 366.5 697.5 366.5 705.625 C 366.5 712.25 361.625 715 360.125 715.75 C 357 717.125 350.375 717.125 345.375 717.125 Z M 459.25 751.5 C 454.5 754 448.875 756.875 439.75 756.875 C 432.25 756.875 427.125 754.5 424.125 750 C 422.25 747.375 421.875 744.875 421.375 742.375 L 461.75 741.625 L 462.5 740.75 C 462.375 734.625 462.25 728.375 460.5 722.125 C 456.125 707.375 446.5 704.375 442.25 703.375 C 439.125 702.5 436.25 702.25 433.375 702.25 C 413.75 702.25 400.75 715.125 400.75 736.75 C 400.75 742.625 401.75 748.75 403.75 753.125 C 411 770 428 771.5 437 771.5 C 447.375 771.5 451.875 769.625 458.5 767 L 459.25 766 L 460.125 751.875 L 459.25 751.5 M 421.375 729.125 C 421.75 725.25 422.625 720 427.375 717 C 428.875 716 430.625 715.625 432.375 715.625 C 436.5 715.625 439 717.75 440.375 720 C 442.125 722.75 442.25 725.75 442.25 728.625 Z M 529.625 732.75 C 529.75 721.5 529.75 716.625 526.5 711.375 C 524 707.375 519 702.375 503 702.375 C 492.25 702.375 485.625 704.375 478.5 706.5 L 477.75 707.5 L 477.125 721.125 L 478.125 721.625 C 482.5 719.875 490.625 716.625 499 716.625 C 503.625 716.625 505.5 717.375 507.125 719 C 508.375 720.25 508.75 722.5 508.75 724.375 C 493.75 726.375 486.75 727.75 479.25 732.375 C 472.25 736.75 469.875 743.875 469.875 749.5 C 469.875 762.875 479.5 771.5 491.75 771.5 C 501.125 771.5 506.5 767 509.125 764.875 L 509.125 769.5 L 509.875 770.375 C 518.875 770 521.625 769.875 529.75 770 L 530.375 769.125 C 529.5 756.875 529.5 753.75 529.5 742 L 529.625 732.75 M 509 752.625 C 506.375 754.125 503 755.875 498.875 755.875 C 494.375 755.875 490.625 753.5 490.625 748.25 C 490.625 740 500.5 738.625 509 737.5 Z M 593.125 752 C 589.75 754 586.5 756 580.125 756 C 566 756 563.125 744.25 563.125 736.75 C 563.125 727.625 567.125 717.125 579.25 717.125 C 584.75 717.125 587.75 719.125 591.5 721.625 L 592.75 721.25 C 593.25 714.625 593.375 712.875 594.375 706.25 L 593.75 705.5 C 588.25 703.75 583.5 702.25 576.25 702.25 C 546.875 702.25 541.125 724.5 541.125 737.25 C 541.125 751.625 548.625 771.125 576.75 771.125 C 583.375 771.125 587.625 769.875 592.875 768.375 L 593.625 767.625 L 594.125 752.625 Z M 665.375 769.125 C 664.875 758.875 664.75 755.375 664.5 742.375 L 664.5 733 C 664.375 721.125 664.25 714.25 660.625 709 C 657 703.875 651.75 702.25 646.25 702.25 C 637.125 702.25 630 706.625 625 709.625 L 625.375 671.125 L 624.625 670.25 L 603.25 673.625 L 602.625 674.375 C 603.75 686.5 604 691 604.25 707.125 C 604.5 717.25 604.625 727.375 604.625 737.5 C 604.625 749.875 604.375 757.25 604.125 769.5 L 604.75 770.375 C 614 769.875 615.875 769.875 626 769.875 L 626.75 769.125 C 625.875 750.375 625.75 744.75 625.625 722.625 C 628 721 631 718.875 635.25 718.875 C 642.125 718.875 642.625 726 643.125 731 C 643.375 734.875 643.5 752.625 643.5 757.25 C 643.5 761.375 643.375 765.375 643.375 769.5 L 644 770.375 C 653 769.875 655 769.875 664.625 769.875 Z M 672.125 770 "/>
</svg>
