<?xml version="1.0" encoding="UTF-8"?>
<svg xmlns="http://www.w3.org/2000/svg" xmlns:xlink="http://www.w3.org/1999/xlink" width="975" height="1300" viewBox="0 0 975 1300">
<path fill-rule="nonzero" fill="rgb(34.901961%, 14.901961%, 14.901961%)" fill-opacity="1" d="M 181.25 595.25 C 181.25 589 181.375 582.75 181.5 576.375 L 180.875 575.625 L 159.625 576 L 159 576.75 C 160.125 589 160.25 592 160 603.375 C 156.625 604.125 154.125 604.75 150.625 604.75 C 131.25 604.75 127.75 586.25 127.75 576.875 C 127.75 557.125 138.375 546.375 154.125 546.375 C 163.625 546.375 169.25 550.125 175.125 554 L 176.125 553.625 C 176.75 545.875 177 543.875 178 536.375 L 177.375 535.625 C 172.125 533.375 163.75 529.875 150.75 529.875 C 136.5 529.875 120.875 533.875 111 550.625 C 106.5 558.5 104.625 568.625 104.625 577 C 104.625 588.75 107.75 598.625 113.375 605.875 C 120.75 615.375 129.875 618.375 134.75 619.75 C 138.375 620.75 143.75 621.875 151.5 621.875 C 164.375 621.875 172.25 619.25 181 616.375 L 181.625 615.375 C 181.5 609.625 181.25 603.875 181.25 598.125 Z M 251 582.75 C 251.125 571.5 251.125 566.625 247.875 561.375 C 245.375 557.375 240.375 552.375 224.375 552.375 C 213.625 552.375 207 554.375 199.875 556.5 L 199.125 557.5 L 198.5 571.125 L 199.5 571.625 C 203.875 569.875 212 566.625 220.375 566.625 C 225 566.625 226.875 567.375 228.5 569 C 229.75 570.25 230.125 572.5 230.125 574.375 C 215.125 576.375 208.125 577.75 200.625 582.375 C 193.625 586.75 191.25 593.875 191.25 599.5 C 191.25 612.875 200.875 621.5 213.125 621.5 C 222.5 621.5 227.875 617 230.5 614.875 L 230.5 619.5 L 231.25 620.375 C 240.25 620 243 619.875 251.125 620 L 251.75 619.125 C 250.875 606.875 250.875 603.75 250.875 592 L 251 582.75 M 230.375 602.625 C 227.75 604.125 224.375 605.875 220.25 605.875 C 215.75 605.875 212 603.5 212 598.25 C 212 590 221.875 588.625 230.375 587.5 Z M 300.125 619 C 304.125 606.5 306.5 598.75 309.125 590.875 C 312.5 580.75 318 564.5 321.5 554.25 L 320.875 553.375 L 303.375 553.75 L 302.5 554.625 C 300.75 563 300.375 564.75 297.875 574.5 L 291.5 599.125 L 288.375 585.625 L 286 576 C 282.875 564.375 282.375 562 280.625 553.75 L 279.75 553 C 269.875 554.125 267.375 554.25 257.875 554.375 L 257.375 555.375 C 274 604.625 275.375 609.25 278.125 619.5 L 279 620.375 C 287.125 620 290.375 619.875 299.375 620 Z M 350.75 619.125 C 350.125 609.5 349.625 602.125 349.625 584.875 C 349.625 574.25 349.875 563.5 350 552.875 L 349.125 551.875 L 327.625 555.625 L 326.875 556.375 C 327.875 565.875 328.25 570.25 328.25 588 C 328.25 601.625 327.875 609.25 327.5 619.5 L 328.25 620.375 C 337.25 620 339.75 619.875 349.875 620 L 350.75 619.125 M 348.75 539.875 L 349.125 522.875 L 348.375 522.125 L 328 524.625 L 327.25 525.5 C 327.5 530 327.625 532.625 327.625 535.625 C 327.625 538 327.625 540.5 327.5 542.875 L 328.375 543.625 C 336.875 542.125 339.25 541.875 348.125 540.75 Z M 428.25 586.75 C 428.25 581.875 428.25 561.625 410.75 554.75 C 405.25 552.625 398.75 552.375 395.5 552.375 C 373.75 552.375 361.5 564 361.5 587 C 361.5 595 362.75 603.125 367.375 609.875 C 370.625 614.75 376.75 621.5 394.625 621.5 C 421.125 621.5 428.25 605.5 428.25 586.75 M 406.625 586.625 C 406.625 596.875 405.25 608.25 394.875 608.25 C 391.625 608.25 389.375 606.75 387.875 605.375 C 385.75 603.25 383.375 599 383.375 586.875 C 383.375 583.25 383.375 575.25 385.875 570.875 C 387.75 567.5 391 565.25 395 565.25 C 398.5 565.25 401.375 567.125 403 569.125 C 406 572.75 406.625 579.875 406.625 586.625 Z M 475.125 605.625 C 473 606.25 471.5 606.75 469.375 606.75 C 463 606.75 462.5 602.75 462.25 600.875 C 461.875 597.625 461.875 590.75 462 585.75 L 462.25 568.125 L 473.5 568.625 L 474.25 567.875 L 475.5 554.5 L 474.75 553.75 L 462.25 553.75 L 462.625 532.75 L 461.75 532 C 453.25 534.5 451 535.125 442.125 537.375 L 441.625 538.25 L 441.75 553.875 L 435 553.625 L 434.25 554.25 L 433.125 567.625 L 433.875 568.375 L 441.75 568.125 L 441.375 588 C 441.25 591.125 441.125 594.25 441.125 597.5 C 441.125 609 441.375 621.375 460.875 621.375 C 465.75 621.375 469.625 620.625 474 619.875 L 474.875 619 L 476.125 606.125 Z M 540 582.75 C 540.125 571.5 540.125 566.625 536.875 561.375 C 534.375 557.375 529.375 552.375 513.375 552.375 C 502.625 552.375 496 554.375 488.875 556.5 L 488.125 557.5 L 487.5 571.125 L 488.5 571.625 C 492.875 569.875 501 566.625 509.375 566.625 C 514 566.625 515.875 567.375 517.5 569 C 518.75 570.25 519.125 572.5 519.125 574.375 C 504.125 576.375 497.125 577.75 489.625 582.375 C 482.625 586.75 480.25 593.875 480.25 599.5 C 480.25 612.875 489.875 621.5 502.125 621.5 C 511.5 621.5 516.875 617 519.5 614.875 L 519.5 619.5 L 520.25 620.375 C 529.25 620 532 619.875 540.125 620 L 540.75 619.125 C 539.875 606.875 539.875 603.75 539.875 592 L 540 582.75 M 519.375 602.625 C 516.75 604.125 513.375 605.875 509.25 605.875 C 504.75 605.875 501 603.5 501 598.25 C 501 590 510.875 588.625 519.375 587.5 Z M 627.25 566.25 C 616.75 561.875 611.25 559.625 611.25 554 C 611.25 550.125 614.875 545.25 623.125 545.25 C 632.625 545.25 638.25 549.125 642.875 552.25 L 644 551.75 L 645 535.375 L 644.375 534.5 C 639 532.25 633.375 529.875 621.25 529.875 C 597.75 529.875 589.625 543.125 589.625 556.5 C 589.625 571.625 601.375 577.125 608.375 580.5 L 612.5 582.375 C 621.125 586 627.75 589.125 627.75 595.75 C 627.75 600.5 623.625 606.125 612.75 606.125 C 601.375 606.125 595 601.125 591.375 598.25 L 590.125 598.625 L 589.25 616.25 L 590 617.25 C 591.375 617.75 592.75 618.375 594.125 618.75 C 597 619.75 604.375 621.875 613.75 621.875 C 617.5 621.875 627 621.5 634.5 618 C 645 612.875 649.5 603.375 649.5 592.75 C 649.5 585.625 646.75 578 640.125 572.875 C 636.75 570.375 633.5 568.875 630.5 567.5 Z M 696.375 605.625 C 694.25 606.25 692.75 606.75 690.625 606.75 C 684.25 606.75 683.75 602.75 683.5 600.875 C 683.125 597.625 683.125 590.75 683.25 585.75 L 683.5 568.125 L 694.75 568.625 L 695.5 567.875 L 696.75 554.5 L 696 553.75 L 683.5 553.75 L 683.875 532.75 L 683 532 C 674.5 534.5 672.25 535.125 663.375 537.375 L 662.875 538.25 L 663 553.875 L 656.25 553.625 L 655.5 554.25 L 654.375 567.625 L 655.125 568.375 L 663 568.125 L 662.625 588 C 662.5 591.125 662.375 594.25 662.375 597.5 C 662.375 609 662.625 621.375 682.125 621.375 C 687 621.375 690.875 620.625 695.25 619.875 L 696.125 619 L 697.375 606.125 Z M 761.25 582.75 C 761.375 571.5 761.375 566.625 758.125 561.375 C 755.625 557.375 750.625 552.375 734.625 552.375 C 723.875 552.375 717.25 554.375 710.125 556.5 L 709.375 557.5 L 708.75 571.125 L 709.75 571.625 C 714.125 569.875 722.25 566.625 730.625 566.625 C 735.25 566.625 737.125 567.375 738.75 569 C 740 570.25 740.375 572.5 740.375 574.375 C 725.375 576.375 718.375 577.75 710.875 582.375 C 703.875 586.75 701.5 593.875 701.5 599.5 C 701.5 612.875 711.125 621.5 723.375 621.5 C 732.75 621.5 738.125 617 740.75 614.875 L 740.75 619.5 L 741.5 620.375 C 750.5 620 753.25 619.875 761.375 620 L 762 619.125 C 761.125 606.875 761.125 603.75 761.125 592 L 761.25 582.75 M 740.625 602.625 C 738 604.125 734.625 605.875 730.5 605.875 C 726 605.875 722.25 603.5 722.25 598.25 C 722.25 590 732.125 588.625 740.625 587.5 Z M 810.875 605.625 C 808.75 606.25 807.25 606.75 805.125 606.75 C 798.75 606.75 798.25 602.75 798 600.875 C 797.625 597.625 797.625 590.75 797.75 585.75 L 798 568.125 L 809.25 568.625 L 810 567.875 L 811.25 554.5 L 810.5 553.75 L 798 553.75 L 798.375 532.75 L 797.5 532 C 789 534.5 786.75 535.125 777.875 537.375 L 777.375 538.25 L 777.5 553.875 L 770.75 553.625 L 770 554.25 L 768.875 567.625 L 769.625 568.375 L 777.5 568.125 L 777.125 588 C 777 591.125 776.875 594.25 776.875 597.5 C 776.875 609 777.125 621.375 796.625 621.375 C 801.5 621.375 805.375 620.625 809.75 619.875 L 810.625 619 L 811.875 606.125 Z M 875.625 601.5 C 870.875 604 865.25 606.875 856.125 606.875 C 848.625 606.875 843.5 604.5 840.5 600 C 838.625 597.375 838.25 594.875 837.75 592.375 L 878.125 591.625 L 878.875 590.75 C 878.75 584.625 878.625 578.375 876.875 572.125 C 872.5 557.375 862.875 554.375 858.625 553.375 C 855.5 552.5 852.625 552.25 849.75 552.25 C 830.125 552.25 817.125 565.125 817.125 586.75 C 817.125 592.625 818.125 598.75 820.125 603.125 C 827.375 620 844.375 621.5 853.375 621.5 C 863.75 621.5 868.25 619.625 874.875 617 L 875.625 616 L 876.5 601.875 L 875.625 601.5 M 837.75 579.125 C 838.125 575.25 839 570 843.75 567 C 845.25 566 847 565.625 848.75 565.625 C 852.875 565.625 855.375 567.75 856.75 570 C 858.5 572.75 858.625 575.75 858.625 578.625 Z M 882.875 620 "/>
<path fill-rule="nonzero" fill="rgb(34.901961%, 14.901961%, 14.901961%)" fill-opacity="1" d="M 382.375 681.5 L 366.5 681.75 L 365.75 682.5 C 366.25 698.75 366.625 709.625 366.625 724 C 366.625 739.25 366.25 754.375 365.875 769.625 L 366.625 770.375 C 375.875 770 377.875 769.875 387.875 770 L 388.5 769.25 C 388 755.625 388 752.5 388 739.75 C 402 739.875 417 739.875 426 728.875 C 429.5 724.625 432.5 717.5 432.5 708.75 C 432.5 703.375 431.25 691.5 420.875 685.625 C 413.375 681.25 402.75 681.25 393.375 681.25 L 382.375 681.5 M 388 696.625 C 390.75 696.5 393.375 696.5 396.125 696.5 C 407.125 696.75 410.125 702.375 410.125 709.625 C 410.125 711.375 410.125 718.625 403.5 722.25 C 400.125 724.125 395.5 724.375 388 724.375 Z M 496.75 732.75 C 496.875 721.5 496.875 716.625 493.625 711.375 C 491.125 707.375 486.125 702.375 470.125 702.375 C 459.375 702.375 452.75 704.375 445.625 706.5 L 444.875 707.5 L 444.25 721.125 L 445.25 721.625 C 449.625 719.875 457.75 716.625 466.125 716.625 C 470.75 716.625 472.625 717.375 474.25 719 C 475.5 720.25 475.875 722.5 475.875 724.375 C 460.875 726.375 453.875 727.75 446.375 732.375 C 439.375 736.75 437 743.875 437 749.5 C 437 762.875 446.625 771.5 458.875 771.5 C 468.25 771.5 473.625 767 476.25 764.875 L 476.25 769.5 L 477 770.375 C 486 770 488.75 769.875 496.875 770 L 497.5 769.125 C 496.625 756.875 496.625 753.75 496.625 742 L 496.75 732.75 M 476.125 752.625 C 473.5 754.125 470.125 755.875 466 755.875 C 461.5 755.875 457.75 753.5 457.75 748.25 C 457.75 740 467.625 738.625 476.125 737.5 Z M 547.5 723.625 L 551 703.25 L 550.25 702.375 C 549.375 702.375 548.5 702.25 547.625 702.25 C 542.5 702.25 536.75 705.125 532.75 714.375 L 533.125 702.875 L 532.125 701.875 C 522.875 703.875 520.5 704.25 511.375 705.625 L 510.625 706.375 C 511.375 715.75 511.75 721.375 511.75 738.75 C 511.75 749 511.625 759.25 511.375 769.625 L 512.125 770.375 C 521.375 770 523.375 769.875 533.375 770 L 534 769.125 C 533.5 759 532.75 744.875 532.75 736.25 C 532.75 730.625 532.75 722.375 541.25 722.375 C 543.375 722.375 544.625 723.125 546.375 724.125 Z M 622.5 768.375 C 610.75 748.5 609.5 746.25 600 729.125 C 608.625 717.375 609.5 716.125 618.375 704.75 L 617.75 703.5 L 597.375 703.75 L 596.125 704.625 C 586.375 721.5 585.125 723.5 579.375 732.125 L 579.375 718.25 C 579.5 694.875 579.625 689.875 580.25 671 L 579.25 670.25 L 557.5 673.5 L 556.75 674.375 C 557.625 686.5 558 692.375 558.25 708.75 C 558.5 729 558.5 749.25 558.375 769.5 L 559.25 770.375 C 567.625 770 570 770 579.5 770 L 580.25 769.125 L 579.5 748 L 579.375 733.625 C 590.25 753.625 591.625 756.375 598 769.625 L 599.125 770.375 L 621.625 769.5 Z M 621 770 "/>
</svg>
