<?xml version="1.0" encoding="UTF-8"?>
<svg xmlns="http://www.w3.org/2000/svg" xmlns:xlink="http://www.w3.org/1999/xlink" width="975" height="1300" viewBox="0 0 975 1300">
<path fill-rule="nonzero" fill="rgb(34.901961%, 14.901961%, 14.901961%)" fill-opacity="1" d="M 190.3125 469.25 C 194.9375 446.5 196.9375 437 210.1875 382.125 L 209.5625 381.375 C 200.6875 381.75 198.9375 381.75 190.5625 381.75 L 189.8125 382.5 C 187.8125 395.375 187.1875 399.75 184.4375 414.125 L 180.8125 433.25 L 176.8125 454.75 C 174.9375 440.75 174.3125 436.5 171.8125 422 L 168.1875 401 L 165.0625 381.75 L 164.3125 380.875 L 139.5625 381.5 L 138.8125 382.25 L 133.8125 411 L 128.9375 436.625 L 125.8125 453.875 C 124.3125 443 123.8125 439.375 121.1875 424.25 L 117.9375 406 L 113.8125 381.25 L 113.0625 380.625 C 102.3125 381.375 100.5625 381.375 91.4375 381.625 L 90.8125 382.5 C 99.9375 423.875 101.9375 433.375 108.6875 469.625 L 109.4375 470.375 C 122.0625 469.875 125.4375 469.875 137.6875 470 L 138.5625 469.25 L 141.1875 453.75 L 145.3125 430.875 L 149.8125 404.125 C 151.3125 416.375 151.6875 419.5 153.9375 433 L 157.0625 452.5 L 159.6875 469.625 L 160.3125 470.375 C 172.3125 470 176.4375 469.875 189.6875 470 Z M 272.3125 432.75 C 272.4375 421.5 272.4375 416.625 269.1875 411.375 C 266.6875 407.375 261.6875 402.375 245.6875 402.375 C 234.9375 402.375 228.3125 404.375 221.1875 406.5 L 220.4375 407.5 L 219.8125 421.125 L 220.8125 421.625 C 225.1875 419.875 233.3125 416.625 241.6875 416.625 C 246.3125 416.625 248.1875 417.375 249.8125 419 C 251.0625 420.25 251.4375 422.5 251.4375 424.375 C 236.4375 426.375 229.4375 427.75 221.9375 432.375 C 214.9375 436.75 212.5625 443.875 212.5625 449.5 C 212.5625 462.875 222.1875 471.5 234.4375 471.5 C 243.8125 471.5 249.1875 467 251.8125 464.875 L 251.8125 469.5 L 252.5625 470.375 C 261.5625 470 264.3125 469.875 272.4375 470 L 273.0625 469.125 C 272.1875 456.875 272.1875 453.75 272.1875 442 L 272.3125 432.75 M 251.6875 452.625 C 249.0625 454.125 245.6875 455.875 241.5625 455.875 C 237.0625 455.875 233.3125 453.5 233.3125 448.25 C 233.3125 440 243.1875 438.625 251.6875 437.5 Z M 321.9375 455.625 C 319.8125 456.25 318.3125 456.75 316.1875 456.75 C 309.8125 456.75 309.3125 452.75 309.0625 450.875 C 308.6875 447.625 308.6875 440.75 308.8125 435.75 L 309.0625 418.125 L 320.3125 418.625 L 321.0625 417.875 L 322.3125 404.5 L 321.5625 403.75 L 309.0625 403.75 L 309.4375 382.75 L 308.5625 382 C 300.0625 384.5 297.8125 385.125 288.9375 387.375 L 288.4375 388.25 L 288.5625 403.875 L 281.8125 403.625 L 281.0625 404.25 L 279.9375 417.625 L 280.6875 418.375 L 288.5625 418.125 L 288.1875 438 C 288.0625 441.125 287.9375 444.25 287.9375 447.5 C 287.9375 459 288.1875 471.375 307.6875 471.375 C 312.5625 471.375 316.4375 470.625 320.8125 469.875 L 321.6875 469 L 322.9375 456.125 Z M 366.1875 455.625 C 364.0625 456.25 362.5625 456.75 360.4375 456.75 C 354.0625 456.75 353.5625 452.75 353.3125 450.875 C 352.9375 447.625 352.9375 440.75 353.0625 435.75 L 353.3125 418.125 L 364.5625 418.625 L 365.3125 417.875 L 366.5625 404.5 L 365.8125 403.75 L 353.3125 403.75 L 353.6875 382.75 L 352.8125 382 C 344.3125 384.5 342.0625 385.125 333.1875 387.375 L 332.6875 388.25 L 332.8125 403.875 L 326.0625 403.625 L 325.3125 404.25 L 324.1875 417.625 L 324.9375 418.375 L 332.8125 418.125 L 332.4375 438 C 332.3125 441.125 332.1875 444.25 332.1875 447.5 C 332.1875 459 332.4375 471.375 351.9375 471.375 C 356.8125 471.375 360.6875 470.625 365.0625 469.875 L 365.9375 469 L 367.1875 456.125 Z M 401.6875 426.875 C 397.4375 425.375 394.0625 424 394.0625 420.5 C 394.0625 419 395.0625 414.875 402.8125 414.875 C 410.4375 414.875 415.3125 418.125 418.4375 420.125 L 419.5625 419.75 L 420.8125 406.125 L 420.1875 405.375 C 414.3125 403.75 409.1875 402.25 401.0625 402.25 C 394.9375 402.25 382.6875 402.75 376.1875 412.125 C 374.5625 414.375 372.8125 418.125 372.8125 423.125 C 372.8125 436.5 383.1875 440.5 389.0625 442.75 L 393.8125 444.5 C 397.1875 445.625 402.6875 447.5 402.6875 452 C 402.6875 455.125 399.8125 458.5 392.8125 458.5 C 389.3125 458.5 384.1875 457.375 379.5625 455 C 377.4375 453.875 376.4375 453 374.5625 451.5 L 373.4375 452 C 373.1875 458.5 373.0625 459.875 372.5625 466.125 L 373.1875 467.25 C 379.3125 469.5 384.5625 471.5 393.6875 471.5 C 403.1875 471.5 421.9375 469.75 424.1875 451.875 C 424.3125 450.875 424.3125 450 424.3125 449.125 C 424.3125 435.375 414.6875 431.75 407.8125 429.125 Z M 527.3125 398.25 L 528.0625 397.625 L 528.9375 382 L 528.3125 381.625 L 466.4375 381.625 L 465.5625 382.375 L 464.6875 397.75 L 465.3125 398.5 L 485.6875 398 C 485.8125 430.75 485.8125 438.625 484.8125 469.625 L 485.5625 470.375 C 494.8125 470 497.3125 469.875 507.6875 469.875 L 508.4375 469.125 C 507.8125 451.625 507.5625 434.125 507.5625 416.5 C 507.5625 409.625 507.6875 405.75 507.9375 397.75 Z M 600.5625 436.75 C 600.5625 431.875 600.5625 411.625 583.0625 404.75 C 577.5625 402.625 571.0625 402.375 567.8125 402.375 C 546.0625 402.375 533.8125 414 533.8125 437 C 533.8125 445 535.0625 453.125 539.6875 459.875 C 542.9375 464.75 549.0625 471.5 566.9375 471.5 C 593.4375 471.5 600.5625 455.5 600.5625 436.75 M 578.9375 436.625 C 578.9375 446.875 577.5625 458.25 567.1875 458.25 C 563.9375 458.25 561.6875 456.75 560.1875 455.375 C 558.0625 453.25 555.6875 449 555.6875 436.875 C 555.6875 433.25 555.6875 425.25 558.1875 420.875 C 560.0625 417.5 563.3125 415.25 567.3125 415.25 C 570.8125 415.25 573.6875 417.125 575.3125 419.125 C 578.3125 422.75 578.9375 429.875 578.9375 436.625 Z M 689.6875 469.125 C 694.6875 449.75 695.5625 446.75 703.0625 419.875 C 704.5625 414.75 705.9375 409.5 707.3125 404.375 L 706.5625 403.375 L 690.3125 403.75 L 689.4375 404.625 L 685.8125 423.375 L 682.3125 438.5 L 679.9375 450 L 677.8125 438.875 L 675.0625 425.875 L 670.6875 404.25 L 669.9375 403.375 L 645.9375 403.75 L 645.0625 404.625 L 640.9375 425.125 L 637.9375 438.875 L 635.5625 450.375 L 633.1875 438 L 630.1875 424.5 L 625.9375 403.75 L 625.1875 403.125 L 604.9375 404.625 L 604.1875 405.625 C 615.9375 446.875 617.8125 454.25 621.3125 469.625 L 622.1875 470.375 C 630.8125 470 633.9375 469.875 645.4375 470 L 646.1875 469.125 L 649.4375 453.875 L 652.9375 438.75 L 656.0625 423.625 L 657.9375 433.125 L 659.8125 442.375 L 665.0625 469.5 L 665.9375 470.375 C 675.1875 470 678.9375 469.875 688.9375 470 Z M 769.4375 451.5 C 764.6875 454 759.0625 456.875 749.9375 456.875 C 742.4375 456.875 737.3125 454.5 734.3125 450 C 732.4375 447.375 732.0625 444.875 731.5625 442.375 L 771.9375 441.625 L 772.6875 440.75 C 772.5625 434.625 772.4375 428.375 770.6875 422.125 C 766.3125 407.375 756.6875 404.375 752.4375 403.375 C 749.3125 402.5 746.4375 402.25 743.5625 402.25 C 723.9375 402.25 710.9375 415.125 710.9375 436.75 C 710.9375 442.625 711.9375 448.75 713.9375 453.125 C 721.1875 470 738.1875 471.5 747.1875 471.5 C 757.5625 471.5 762.0625 469.625 768.6875 467 L 769.4375 466 L 770.3125 451.875 L 769.4375 451.5 M 731.5625 429.125 C 731.9375 425.25 732.8125 420 737.5625 417 C 739.0625 416 740.8125 415.625 742.5625 415.625 C 746.6875 415.625 749.1875 417.75 750.5625 420 C 752.3125 422.75 752.4375 425.75 752.4375 428.625 Z M 820.3125 423.625 L 823.8125 403.25 L 823.0625 402.375 C 822.1875 402.375 821.3125 402.25 820.4375 402.25 C 815.3125 402.25 809.5625 405.125 805.5625 414.375 L 805.9375 402.875 L 804.9375 401.875 C 795.6875 403.875 793.3125 404.25 784.1875 405.625 L 783.4375 406.375 C 784.1875 415.75 784.5625 421.375 784.5625 438.75 C 784.5625 449 784.4375 459.25 784.1875 469.625 L 784.9375 470.375 C 794.1875 470 796.1875 469.875 806.1875 470 L 806.8125 469.125 C 806.3125 459 805.5625 444.875 805.5625 436.25 C 805.5625 430.625 805.5625 422.375 814.0625 422.375 C 816.1875 422.375 817.4375 423.125 819.1875 424.125 Z M 857.3125 426.875 C 853.0625 425.375 849.6875 424 849.6875 420.5 C 849.6875 419 850.6875 414.875 858.4375 414.875 C 866.0625 414.875 870.9375 418.125 874.0625 420.125 L 875.1875 419.75 L 876.4375 406.125 L 875.8125 405.375 C 869.9375 403.75 864.8125 402.25 856.6875 402.25 C 850.5625 402.25 838.3125 402.75 831.8125 412.125 C 830.1875 414.375 828.4375 418.125 828.4375 423.125 C 828.4375 436.5 838.8125 440.5 844.6875 442.75 L 849.4375 444.5 C 852.8125 445.625 858.3125 447.5 858.3125 452 C 858.3125 455.125 855.4375 458.5 848.4375 458.5 C 844.9375 458.5 839.8125 457.375 835.1875 455 C 833.0625 453.875 832.0625 453 830.1875 451.5 L 829.0625 452 C 828.8125 458.5 828.6875 459.875 828.1875 466.125 L 828.8125 467.25 C 834.9375 469.5 840.1875 471.5 849.3125 471.5 C 858.8125 471.5 877.5625 469.75 879.8125 451.875 C 879.9375 450.875 879.9375 450 879.9375 449.125 C 879.9375 435.375 870.3125 431.75 863.4375 429.125 Z M 883.4375 470 "/>
<path fill-rule="nonzero" fill="rgb(34.901961%, 14.901961%, 14.901961%)" fill-opacity="1" d="M 300.1875 586.75 C 300.1875 581.875 300.1875 561.625 282.6875 554.75 C 277.1875 552.625 270.6875 552.375 267.4375 552.375 C 245.6875 552.375 233.4375 564 233.4375 587 C 233.4375 595 234.6875 603.125 239.3125 609.875 C 242.5625 614.75 248.6875 621.5 266.5625 621.5 C 293.0625 621.5 300.1875 605.5 300.1875 586.75 M 278.5625 586.625 C 278.5625 596.875 277.1875 608.25 266.8125 608.25 C 263.5625 608.25 261.3125 606.75 259.8125 605.375 C 257.6875 603.25 255.3125 599 255.3125 586.875 C 255.3125 583.25 255.3125 575.25 257.8125 570.875 C 259.6875 567.5 262.9375 565.25 266.9375 565.25 C 270.4375 565.25 273.3125 567.125 274.9375 569.125 C 277.9375 572.75 278.5625 579.875 278.5625 586.625 Z M 337.0625 619.125 C 335.8125 596.375 335.6875 590.25 335.8125 568.125 L 345.6875 568.625 L 346.5625 567.75 L 347.6875 554.5 L 347.0625 553.75 L 335.6875 553.75 L 335.8125 550.875 C 335.8125 543.25 335.9375 536.25 344.0625 536.25 C 345.3125 536.25 346.5625 536.5 347.8125 536.625 L 348.6875 536.125 L 349.8125 522 L 349.1875 521.125 C 346.1875 520.875 343.3125 520.75 340.4375 520.75 C 334.0625 520.75 327.5625 521.5 322.5625 525.25 C 314.8125 531 314.9375 540 314.9375 546.25 L 315.0625 553.75 L 306.9375 553.625 L 306.1875 554.25 L 304.9375 567.5 L 305.6875 568.25 L 315.1875 568 C 315.1875 591.625 315.1875 597.25 314.4375 619.5 L 315.1875 620.375 C 323.6875 620 326.9375 619.875 336.3125 619.875 Z M 428.9375 566.25 C 418.4375 561.875 412.9375 559.625 412.9375 554 C 412.9375 550.125 416.5625 545.25 424.8125 545.25 C 434.3125 545.25 439.9375 549.125 444.5625 552.25 L 445.6875 551.75 L 446.6875 535.375 L 446.0625 534.5 C 440.6875 532.25 435.0625 529.875 422.9375 529.875 C 399.4375 529.875 391.3125 543.125 391.3125 556.5 C 391.3125 571.625 403.0625 577.125 410.0625 580.5 L 414.1875 582.375 C 422.8125 586 429.4375 589.125 429.4375 595.75 C 429.4375 600.5 425.3125 606.125 414.4375 606.125 C 403.0625 606.125 396.6875 601.125 393.0625 598.25 L 391.8125 598.625 L 390.9375 616.25 L 391.6875 617.25 C 393.0625 617.75 394.4375 618.375 395.8125 618.75 C 398.6875 619.75 406.0625 621.875 415.4375 621.875 C 419.1875 621.875 428.6875 621.5 436.1875 618 C 446.6875 612.875 451.1875 603.375 451.1875 592.75 C 451.1875 585.625 448.4375 578 441.8125 572.875 C 438.4375 570.375 435.1875 568.875 432.1875 567.5 Z M 485.6875 619.125 C 485.0625 609.5 484.5625 602.125 484.5625 584.875 C 484.5625 574.25 484.8125 563.5 484.9375 552.875 L 484.0625 551.875 L 462.5625 555.625 L 461.8125 556.375 C 462.8125 565.875 463.1875 570.25 463.1875 588 C 463.1875 601.625 462.8125 609.25 462.4375 619.5 L 463.1875 620.375 C 472.1875 620 474.6875 619.875 484.8125 620 L 485.6875 619.125 M 483.6875 539.875 L 484.0625 522.875 L 483.3125 522.125 L 462.9375 524.625 L 462.1875 525.5 C 462.4375 530 462.5625 532.625 462.5625 535.625 C 462.5625 538 462.5625 540.5 462.4375 542.875 L 463.3125 543.625 C 471.8125 542.125 474.1875 541.875 483.0625 540.75 Z M 597.1875 619.125 C 596.5625 607.5 596.4375 604.25 596.4375 590.125 L 596.4375 580.75 C 596.5625 572.375 596.6875 564.625 593.0625 559.375 C 588.1875 552.25 579.5625 552.25 577.5625 552.25 C 567.3125 552.25 560.4375 556.875 555.4375 560.375 C 553.6875 557.5 550.5625 552.25 540.5625 552.25 C 532.3125 552.25 526.9375 556 521.1875 560 L 521.1875 553 L 520.0625 551.875 C 510.3125 553.75 507.5625 554.25 498.8125 555.5 L 498.0625 556.375 C 499.0625 566.375 499.8125 573.25 499.8125 598 C 499.8125 605.125 499.6875 612.375 499.6875 619.5 L 500.3125 620.25 C 508.3125 620 511.0625 619.875 521.4375 619.875 L 522.1875 619.125 C 521.3125 599.875 521.1875 594.125 521.0625 572.375 C 523.6875 570.5 526.5625 568.875 529.6875 568.875 C 537.4375 568.875 537.6875 577.75 537.6875 588.5 C 537.6875 606.625 537.5625 609.375 537.3125 619.5 L 538.0625 620.375 C 547.5625 619.875 550.1875 619.875 558.8125 619.875 L 559.5625 619.125 C 558.8125 607.25 558.6875 603.75 558.5625 588.625 L 558.5625 584 L 558.4375 571.375 C 560.5625 570 563.3125 568.25 567.0625 568.25 C 574.1875 568.25 575.3125 575 575.3125 585.75 C 575.3125 588.125 575.1875 590.5 575.1875 592.875 C 575.0625 597.125 574.9375 615.75 574.8125 619.5 L 575.5625 620.25 C 584.9375 619.875 587.6875 619.875 596.4375 619.875 Z M 675.1875 586.75 C 675.1875 581.875 675.1875 561.625 657.6875 554.75 C 652.1875 552.625 645.6875 552.375 642.4375 552.375 C 620.6875 552.375 608.4375 564 608.4375 587 C 608.4375 595 609.6875 603.125 614.3125 609.875 C 617.5625 614.75 623.6875 621.5 641.5625 621.5 C 668.0625 621.5 675.1875 605.5 675.1875 586.75 M 653.5625 586.625 C 653.5625 596.875 652.1875 608.25 641.8125 608.25 C 638.5625 608.25 636.3125 606.75 634.8125 605.375 C 632.6875 603.25 630.3125 599 630.3125 586.875 C 630.3125 583.25 630.3125 575.25 632.8125 570.875 C 634.6875 567.5 637.9375 565.25 641.9375 565.25 C 645.4375 565.25 648.3125 567.125 649.9375 569.125 C 652.9375 572.75 653.5625 579.875 653.5625 586.625 Z M 748.3125 619.125 C 747.6875 608.125 747.6875 604.625 747.4375 592.375 L 747.4375 582.625 C 747.3125 570.625 747.1875 564.875 744.0625 559.75 C 740.1875 553.25 733.0625 552.25 728.5625 552.25 C 720.9375 552.25 714.3125 556.25 708.5625 559.625 L 708.8125 552.75 L 707.5625 551.875 C 697.9375 553.875 695.8125 554.25 686.4375 555.5 L 685.6875 556.375 C 686.6875 567.25 687.4375 575.125 687.4375 595.5 C 687.4375 603.5 687.3125 611.5 687.1875 619.5 L 687.9375 620.25 C 696.9375 619.875 698.8125 619.875 708.8125 619.875 L 709.5625 619.125 C 708.8125 599.875 708.6875 595 708.5625 572.625 C 711.1875 570.875 714.1875 568.75 718.1875 568.75 C 725.0625 568.75 725.6875 576.125 726.0625 580.625 C 726.3125 584.75 726.4375 601.875 726.4375 606.625 C 726.4375 610.875 726.3125 615.25 726.3125 619.5 L 727.0625 620.25 C 735.3125 620 737.4375 619.875 747.4375 619.875 Z M 755.0625 620 "/>
<path fill-rule="nonzero" fill="rgb(34.901961%, 14.901961%, 14.901961%)" fill-opacity="1" d="M 192.1875 735.625 C 200.5625 749.875 202.4375 753.625 210.4375 770 L 211.4375 770.625 C 215.3125 770.375 219.0625 770.125 222.9375 770 C 226.8125 769.875 230.8125 769.75 234.6875 769.75 L 235.4375 768.25 C 230.6875 762.125 229.3125 760.25 220.3125 745.875 C 216.3125 739.5 214.3125 736.125 211.1875 730.625 C 216.8125 728.125 228.1875 722.875 228.1875 707 C 228.1875 701.5 226.6875 690.125 216.4375 684.75 C 209.9375 681.375 203.1875 681.25 188.5625 681.5 L 179.8125 681.625 L 164.5625 681.625 L 163.9375 682.375 C 164.4375 695 164.9375 708 164.9375 742 C 164.9375 753.625 164.8125 759.25 164.4375 769.625 L 165.1875 770.375 C 174.3125 770 176.3125 769.875 186.5625 770 L 187.3125 769.25 C 186.3125 754.75 186.1875 750.75 186.0625 735.875 L 192.1875 735.625 M 186.3125 696.75 C 188.0625 696.625 189.8125 696.625 191.5625 696.625 C 196.4375 696.625 206.0625 696.625 206.0625 707.625 C 206.0625 711.125 205.1875 715.75 200.5625 718.625 C 197.0625 720.75 192.5625 721 186.3125 721.125 Z M 305.6875 736.75 C 305.6875 731.875 305.6875 711.625 288.1875 704.75 C 282.6875 702.625 276.1875 702.375 272.9375 702.375 C 251.1875 702.375 238.9375 714 238.9375 737 C 238.9375 745 240.1875 753.125 244.8125 759.875 C 248.0625 764.75 254.1875 771.5 272.0625 771.5 C 298.5625 771.5 305.6875 755.5 305.6875 736.75 M 284.0625 736.625 C 284.0625 746.875 282.6875 758.25 272.3125 758.25 C 269.0625 758.25 266.8125 756.75 265.3125 755.375 C 263.1875 753.25 260.8125 749 260.8125 736.875 C 260.8125 733.25 260.8125 725.25 263.3125 720.875 C 265.1875 717.5 268.4375 715.25 272.4375 715.25 C 275.9375 715.25 278.8125 717.125 280.4375 719.125 C 283.4375 722.75 284.0625 729.875 284.0625 736.625 Z M 378.8125 769.25 C 378.3125 758 377.9375 750.5 377.9375 734.125 C 377.9375 701.125 378.4375 687.5 378.9375 671 L 378.0625 670.25 L 357.4375 673.5 L 356.8125 674.25 C 357.5625 686 357.6875 689.125 357.5625 703.375 C 348.1875 703.125 336.4375 702.875 326.9375 710.375 C 318.1875 717.125 314.5625 727.5 314.5625 740.375 C 314.5625 750.125 317.1875 759.875 324.5625 766 C 330.0625 770.5 336.8125 771.5 340.9375 771.5 C 349.8125 771.5 354.4375 767.375 357.4375 764.75 L 357.1875 769.625 L 357.8125 770.375 C 366.4375 770 368.8125 770 378.1875 770 L 378.8125 769.25 M 357.5625 718.375 C 357.6875 735 357.5625 738.25 357.1875 753.375 C 354.6875 754.875 352.1875 756.375 348.6875 756.375 C 336.5625 756.375 336.5625 740.875 336.5625 738.375 C 336.5625 728.75 339.3125 718 353.3125 718 C 354.6875 718 355.8125 718.125 357.5625 718.375 Z M 415.6875 769.125 C 415.0625 759.5 414.5625 752.125 414.5625 734.875 C 414.5625 724.25 414.8125 713.5 414.9375 702.875 L 414.0625 701.875 L 392.5625 705.625 L 391.8125 706.375 C 392.8125 715.875 393.1875 720.25 393.1875 738 C 393.1875 751.625 392.8125 759.25 392.4375 769.5 L 393.1875 770.375 C 402.1875 770 404.6875 769.875 414.8125 770 L 415.6875 769.125 M 413.6875 689.875 L 414.0625 672.875 L 413.3125 672.125 L 392.9375 674.625 L 392.1875 675.5 C 392.4375 680 392.5625 682.625 392.5625 685.625 C 392.5625 688 392.5625 690.5 392.4375 692.875 L 393.3125 693.625 C 401.8125 692.125 404.1875 691.875 413.0625 690.75 Z M 485.1875 732.75 C 485.3125 721.5 485.3125 716.625 482.0625 711.375 C 479.5625 707.375 474.5625 702.375 458.5625 702.375 C 447.8125 702.375 441.1875 704.375 434.0625 706.5 L 433.3125 707.5 L 432.6875 721.125 L 433.6875 721.625 C 438.0625 719.875 446.1875 716.625 454.5625 716.625 C 459.1875 716.625 461.0625 717.375 462.6875 719 C 463.9375 720.25 464.3125 722.5 464.3125 724.375 C 449.3125 726.375 442.3125 727.75 434.8125 732.375 C 427.8125 736.75 425.4375 743.875 425.4375 749.5 C 425.4375 762.875 435.0625 771.5 447.3125 771.5 C 456.6875 771.5 462.0625 767 464.6875 764.875 L 464.6875 769.5 L 465.4375 770.375 C 474.4375 770 477.1875 769.875 485.3125 770 L 485.9375 769.125 C 485.0625 756.875 485.0625 753.75 485.0625 742 L 485.1875 732.75 M 464.5625 752.625 C 461.9375 754.125 458.5625 755.875 454.4375 755.875 C 449.9375 755.875 446.1875 753.5 446.1875 748.25 C 446.1875 740 456.0625 738.625 464.5625 737.5 Z M 572.4375 716.25 C 561.9375 711.875 556.4375 709.625 556.4375 704 C 556.4375 700.125 560.0625 695.25 568.3125 695.25 C 577.8125 695.25 583.4375 699.125 588.0625 702.25 L 589.1875 701.75 L 590.1875 685.375 L 589.5625 684.5 C 584.1875 682.25 578.5625 679.875 566.4375 679.875 C 542.9375 679.875 534.8125 693.125 534.8125 706.5 C 534.8125 721.625 546.5625 727.125 553.5625 730.5 L 557.6875 732.375 C 566.3125 736 572.9375 739.125 572.9375 745.75 C 572.9375 750.5 568.8125 756.125 557.9375 756.125 C 546.5625 756.125 540.1875 751.125 536.5625 748.25 L 535.3125 748.625 L 534.4375 766.25 L 535.1875 767.25 C 536.5625 767.75 537.9375 768.375 539.3125 768.75 C 542.1875 769.75 549.5625 771.875 558.9375 771.875 C 562.6875 771.875 572.1875 771.5 579.6875 768 C 590.1875 762.875 594.6875 753.375 594.6875 742.75 C 594.6875 735.625 591.9375 728 585.3125 722.875 C 581.9375 720.375 578.6875 718.875 575.6875 717.5 Z M 641.5625 755.625 C 639.4375 756.25 637.9375 756.75 635.8125 756.75 C 629.4375 756.75 628.9375 752.75 628.6875 750.875 C 628.3125 747.625 628.3125 740.75 628.4375 735.75 L 628.6875 718.125 L 639.9375 718.625 L 640.6875 717.875 L 641.9375 704.5 L 641.1875 703.75 L 628.6875 703.75 L 629.0625 682.75 L 628.1875 682 C 619.6875 684.5 617.4375 685.125 608.5625 687.375 L 608.0625 688.25 L 608.1875 703.875 L 601.4375 703.625 L 600.6875 704.25 L 599.5625 717.625 L 600.3125 718.375 L 608.1875 718.125 L 607.8125 738 C 607.6875 741.125 607.5625 744.25 607.5625 747.5 C 607.5625 759 607.8125 771.375 627.3125 771.375 C 632.1875 771.375 636.0625 770.625 640.4375 769.875 L 641.3125 769 L 642.5625 756.125 Z M 706.4375 732.75 C 706.5625 721.5 706.5625 716.625 703.3125 711.375 C 700.8125 707.375 695.8125 702.375 679.8125 702.375 C 669.0625 702.375 662.4375 704.375 655.3125 706.5 L 654.5625 707.5 L 653.9375 721.125 L 654.9375 721.625 C 659.3125 719.875 667.4375 716.625 675.8125 716.625 C 680.4375 716.625 682.3125 717.375 683.9375 719 C 685.1875 720.25 685.5625 722.5 685.5625 724.375 C 670.5625 726.375 663.5625 727.75 656.0625 732.375 C 649.0625 736.75 646.6875 743.875 646.6875 749.5 C 646.6875 762.875 656.3125 771.5 668.5625 771.5 C 677.9375 771.5 683.3125 767 685.9375 764.875 L 685.9375 769.5 L 686.6875 770.375 C 695.6875 770 698.4375 769.875 706.5625 770 L 707.1875 769.125 C 706.3125 756.875 706.3125 753.75 706.3125 742 L 706.4375 732.75 M 685.8125 752.625 C 683.1875 754.125 679.8125 755.875 675.6875 755.875 C 671.1875 755.875 667.4375 753.5 667.4375 748.25 C 667.4375 740 677.3125 738.625 685.8125 737.5 Z M 756.0625 755.625 C 753.9375 756.25 752.4375 756.75 750.3125 756.75 C 743.9375 756.75 743.4375 752.75 743.1875 750.875 C 742.8125 747.625 742.8125 740.75 742.9375 735.75 L 743.1875 718.125 L 754.4375 718.625 L 755.1875 717.875 L 756.4375 704.5 L 755.6875 703.75 L 743.1875 703.75 L 743.5625 682.75 L 742.6875 682 C 734.1875 684.5 731.9375 685.125 723.0625 687.375 L 722.5625 688.25 L 722.6875 703.875 L 715.9375 703.625 L 715.1875 704.25 L 714.0625 717.625 L 714.8125 718.375 L 722.6875 718.125 L 722.3125 738 C 722.1875 741.125 722.0625 744.25 722.0625 747.5 C 722.0625 759 722.3125 771.375 741.8125 771.375 C 746.6875 771.375 750.5625 770.625 754.9375 769.875 L 755.8125 769 L 757.0625 756.125 Z M 820.8125 751.5 C 816.0625 754 810.4375 756.875 801.3125 756.875 C 793.8125 756.875 788.6875 754.5 785.6875 750 C 783.8125 747.375 783.4375 744.875 782.9375 742.375 L 823.3125 741.625 L 824.0625 740.75 C 823.9375 734.625 823.8125 728.375 822.0625 722.125 C 817.6875 707.375 808.0625 704.375 803.8125 703.375 C 800.6875 702.5 797.8125 702.25 794.9375 702.25 C 775.3125 702.25 762.3125 715.125 762.3125 736.75 C 762.3125 742.625 763.3125 748.75 765.3125 753.125 C 772.5625 770 789.5625 771.5 798.5625 771.5 C 808.9375 771.5 813.4375 769.625 820.0625 767 L 820.8125 766 L 821.6875 751.875 L 820.8125 751.5 M 782.9375 729.125 C 783.3125 725.25 784.1875 720 788.9375 717 C 790.4375 716 792.1875 715.625 793.9375 715.625 C 798.0625 715.625 800.5625 717.75 801.9375 720 C 803.6875 722.75 803.8125 725.75 803.8125 728.625 Z M 828.0625 770 "/>
<path fill-rule="nonzero" fill="rgb(34.901961%, 14.901961%, 14.901961%)" fill-opacity="1" d="M 196.8125 831.375 C 186.8125 831.75 185.1875 831.75 174.6875 831.75 L 174.0625 832.5 C 174.9375 846.625 174.9375 850.25 175.0625 865 C 169.5625 865.125 164.0625 865.25 158.4375 865.25 C 154.0625 865.25 149.5625 865.125 145.1875 865.125 L 145.4375 832.125 L 144.8125 831.375 C 135.1875 831.75 133.3125 831.75 122.4375 831.75 L 121.6875 832.5 C 122.3125 845.375 123.0625 860.75 123.0625 891.75 C 123.0625 903 122.8125 909.125 122.5625 919.625 L 123.1875 920.375 C 132.3125 920 134.5625 919.875 145.5625 920 L 146.1875 919.25 C 145.4375 903.75 145.3125 899.25 145.1875 881.125 C 150.6875 880.875 155.3125 880.75 160.1875 880.75 C 165.1875 880.75 170.1875 880.875 175.1875 881 C 175.4375 897.875 175.4375 902 174.8125 919.625 L 175.4375 920.375 C 184.8125 920 187.3125 919.875 197.9375 920 L 198.5625 919.25 C 197.5625 898.25 197.1875 877.375 197.1875 856.375 C 197.1875 847.625 197.3125 841.75 197.4375 832.125 Z M 235.6875 919.125 C 235.0625 909.5 234.5625 902.125 234.5625 884.875 C 234.5625 874.25 234.8125 863.5 234.9375 852.875 L 234.0625 851.875 L 212.5625 855.625 L 211.8125 856.375 C 212.8125 865.875 213.1875 870.25 213.1875 888 C 213.1875 901.625 212.8125 909.25 212.4375 919.5 L 213.1875 920.375 C 222.1875 920 224.6875 919.875 234.8125 920 L 235.6875 919.125 M 233.6875 839.875 L 234.0625 822.875 L 233.3125 822.125 L 212.9375 824.625 L 212.1875 825.5 C 212.4375 830 212.5625 832.625 212.5625 835.625 C 212.5625 838 212.5625 840.5 212.4375 842.875 L 213.3125 843.625 C 221.8125 842.125 224.1875 841.875 233.0625 840.75 Z M 275.8125 876.875 C 271.5625 875.375 268.1875 874 268.1875 870.5 C 268.1875 869 269.1875 864.875 276.9375 864.875 C 284.5625 864.875 289.4375 868.125 292.5625 870.125 L 293.6875 869.75 L 294.9375 856.125 L 294.3125 855.375 C 288.4375 853.75 283.3125 852.25 275.1875 852.25 C 269.0625 852.25 256.8125 852.75 250.3125 862.125 C 248.6875 864.375 246.9375 868.125 246.9375 873.125 C 246.9375 886.5 257.3125 890.5 263.1875 892.75 L 267.9375 894.5 C 271.3125 895.625 276.8125 897.5 276.8125 902 C 276.8125 905.125 273.9375 908.5 266.9375 908.5 C 263.4375 908.5 258.3125 907.375 253.6875 905 C 251.5625 903.875 250.5625 903 248.6875 901.5 L 247.5625 902 C 247.3125 908.5 247.1875 909.875 246.6875 916.125 L 247.3125 917.25 C 253.4375 919.5 258.6875 921.5 267.8125 921.5 C 277.3125 921.5 296.0625 919.75 298.3125 901.875 C 298.4375 900.875 298.4375 900 298.4375 899.125 C 298.4375 885.375 288.8125 881.75 281.9375 879.125 Z M 344.4375 905.625 C 342.3125 906.25 340.8125 906.75 338.6875 906.75 C 332.3125 906.75 331.8125 902.75 331.5625 900.875 C 331.1875 897.625 331.1875 890.75 331.3125 885.75 L 331.5625 868.125 L 342.8125 868.625 L 343.5625 867.875 L 344.8125 854.5 L 344.0625 853.75 L 331.5625 853.75 L 331.9375 832.75 L 331.0625 832 C 322.5625 834.5 320.3125 835.125 311.4375 837.375 L 310.9375 838.25 L 311.0625 853.875 L 304.3125 853.625 L 303.5625 854.25 L 302.4375 867.625 L 303.1875 868.375 L 311.0625 868.125 L 310.6875 888 C 310.5625 891.125 310.4375 894.25 310.4375 897.5 C 310.4375 909 310.6875 921.375 330.1875 921.375 C 335.0625 921.375 338.9375 920.625 343.3125 919.875 L 344.1875 919 L 345.4375 906.125 Z M 417.3125 886.75 C 417.3125 881.875 417.3125 861.625 399.8125 854.75 C 394.3125 852.625 387.8125 852.375 384.5625 852.375 C 362.8125 852.375 350.5625 864 350.5625 887 C 350.5625 895 351.8125 903.125 356.4375 909.875 C 359.6875 914.75 365.8125 921.5 383.6875 921.5 C 410.1875 921.5 417.3125 905.5 417.3125 886.75 M 395.6875 886.625 C 395.6875 896.875 394.3125 908.25 383.9375 908.25 C 380.6875 908.25 378.4375 906.75 376.9375 905.375 C 374.8125 903.25 372.4375 899 372.4375 886.875 C 372.4375 883.25 372.4375 875.25 374.9375 870.875 C 376.8125 867.5 380.0625 865.25 384.0625 865.25 C 387.5625 865.25 390.4375 867.125 392.0625 869.125 C 395.0625 872.75 395.6875 879.875 395.6875 886.625 Z M 465.3125 873.625 L 468.8125 853.25 L 468.0625 852.375 C 467.1875 852.375 466.3125 852.25 465.4375 852.25 C 460.3125 852.25 454.5625 855.125 450.5625 864.375 L 450.9375 852.875 L 449.9375 851.875 C 440.6875 853.875 438.3125 854.25 429.1875 855.625 L 428.4375 856.375 C 429.1875 865.75 429.5625 871.375 429.5625 888.75 C 429.5625 899 429.4375 909.25 429.1875 919.625 L 429.9375 920.375 C 439.1875 920 441.1875 919.875 451.1875 920 L 451.8125 919.125 C 451.3125 909 450.5625 894.875 450.5625 886.25 C 450.5625 880.625 450.5625 872.375 459.0625 872.375 C 461.1875 872.375 462.4375 873.125 464.1875 874.125 Z M 498.6875 919.125 C 498.0625 909.5 497.5625 902.125 497.5625 884.875 C 497.5625 874.25 497.8125 863.5 497.9375 852.875 L 497.0625 851.875 L 475.5625 855.625 L 474.8125 856.375 C 475.8125 865.875 476.1875 870.25 476.1875 888 C 476.1875 901.625 475.8125 909.25 475.4375 919.5 L 476.1875 920.375 C 485.1875 920 487.6875 919.875 497.8125 920 L 498.6875 919.125 M 496.6875 839.875 L 497.0625 822.875 L 496.3125 822.125 L 475.9375 824.625 L 475.1875 825.5 C 475.4375 830 475.5625 832.625 475.5625 835.625 C 475.5625 838 475.5625 840.5 475.4375 842.875 L 476.3125 843.625 C 484.8125 842.125 487.1875 841.875 496.0625 840.75 Z M 561.4375 902 C 558.0625 904 554.8125 906 548.4375 906 C 534.3125 906 531.4375 894.25 531.4375 886.75 C 531.4375 877.625 535.4375 867.125 547.5625 867.125 C 553.0625 867.125 556.0625 869.125 559.8125 871.625 L 561.0625 871.25 C 561.5625 864.625 561.6875 862.875 562.6875 856.25 L 562.0625 855.5 C 556.5625 853.75 551.8125 852.25 544.5625 852.25 C 515.1875 852.25 509.4375 874.5 509.4375 887.25 C 509.4375 901.625 516.9375 921.125 545.0625 921.125 C 551.6875 921.125 555.9375 919.875 561.1875 918.375 L 561.9375 917.625 L 562.4375 902.625 Z M 625.6875 831.5 L 609.8125 831.75 L 609.0625 832.5 C 609.5625 848.75 609.9375 859.625 609.9375 874 C 609.9375 889.25 609.5625 904.375 609.1875 919.625 L 609.9375 920.375 C 619.1875 920 621.1875 919.875 631.1875 920 L 631.8125 919.25 C 631.3125 905.625 631.3125 902.5 631.3125 889.75 C 645.3125 889.875 660.3125 889.875 669.3125 878.875 C 672.8125 874.625 675.8125 867.5 675.8125 858.75 C 675.8125 853.375 674.5625 841.5 664.1875 835.625 C 656.6875 831.25 646.0625 831.25 636.6875 831.25 L 625.6875 831.5 M 631.3125 846.625 C 634.0625 846.5 636.6875 846.5 639.4375 846.5 C 650.4375 846.75 653.4375 852.375 653.4375 859.625 C 653.4375 861.375 653.4375 868.625 646.8125 872.25 C 643.4375 874.125 638.8125 874.375 631.3125 874.375 Z M 740.0625 882.75 C 740.1875 871.5 740.1875 866.625 736.9375 861.375 C 734.4375 857.375 729.4375 852.375 713.4375 852.375 C 702.6875 852.375 696.0625 854.375 688.9375 856.5 L 688.1875 857.5 L 687.5625 871.125 L 688.5625 871.625 C 692.9375 869.875 701.0625 866.625 709.4375 866.625 C 714.0625 866.625 715.9375 867.375 717.5625 869 C 718.8125 870.25 719.1875 872.5 719.1875 874.375 C 704.1875 876.375 697.1875 877.75 689.6875 882.375 C 682.6875 886.75 680.3125 893.875 680.3125 899.5 C 680.3125 912.875 689.9375 921.5 702.1875 921.5 C 711.5625 921.5 716.9375 917 719.5625 914.875 L 719.5625 919.5 L 720.3125 920.375 C 729.3125 920 732.0625 919.875 740.1875 920 L 740.8125 919.125 C 739.9375 906.875 739.9375 903.75 739.9375 892 L 740.0625 882.75 M 719.4375 902.625 C 716.8125 904.125 713.4375 905.875 709.3125 905.875 C 704.8125 905.875 701.0625 903.5 701.0625 898.25 C 701.0625 890 710.9375 888.625 719.4375 887.5 Z M 790.8125 873.625 L 794.3125 853.25 L 793.5625 852.375 C 792.6875 852.375 791.8125 852.25 790.9375 852.25 C 785.8125 852.25 780.0625 855.125 776.0625 864.375 L 776.4375 852.875 L 775.4375 851.875 C 766.1875 853.875 763.8125 854.25 754.6875 855.625 L 753.9375 856.375 C 754.6875 865.75 755.0625 871.375 755.0625 888.75 C 755.0625 899 754.9375 909.25 754.6875 919.625 L 755.4375 920.375 C 764.6875 920 766.6875 919.875 776.6875 920 L 777.3125 919.125 C 776.8125 909 776.0625 894.875 776.0625 886.25 C 776.0625 880.625 776.0625 872.375 784.5625 872.375 C 786.6875 872.375 787.9375 873.125 789.6875 874.125 Z M 865.8125 918.375 C 854.0625 898.5 852.8125 896.25 843.3125 879.125 C 851.9375 867.375 852.8125 866.125 861.6875 854.75 L 861.0625 853.5 L 840.6875 853.75 L 839.4375 854.625 C 829.6875 871.5 828.4375 873.5 822.6875 882.125 L 822.6875 868.25 C 822.8125 844.875 822.9375 839.875 823.5625 821 L 822.5625 820.25 L 800.8125 823.5 L 800.0625 824.375 C 800.9375 836.5 801.3125 842.375 801.5625 858.75 C 801.8125 879 801.8125 899.25 801.6875 919.5 L 802.5625 920.375 C 810.9375 920 813.3125 920 822.8125 920 L 823.5625 919.125 L 822.8125 898 L 822.6875 883.625 C 833.5625 903.625 834.9375 906.375 841.3125 919.625 L 842.4375 920.375 L 864.9375 919.5 Z M 864.3125 920 "/>
</svg>
