<?xml version="1.0" encoding="UTF-8"?>
<svg xmlns="http://www.w3.org/2000/svg" xmlns:xlink="http://www.w3.org/1999/xlink" width="975" height="1300" viewBox="0 0 975 1300">
<path fill-rule="nonzero" fill="rgb(34.901961%, 14.901961%, 14.901961%)" fill-opacity="1" d="M 195.125 491.25 C 184.625 486.875 179.125 484.625 179.125 479 C 179.125 475.125 182.75 470.25 191 470.25 C 200.5 470.25 206.125 474.125 210.75 477.25 L 211.875 476.75 L 212.875 460.375 L 212.25 459.5 C 206.875 457.25 201.25 454.875 189.125 454.875 C 165.625 454.875 157.5 468.125 157.5 481.5 C 157.5 496.625 169.25 502.125 176.25 505.5 L 180.375 507.375 C 189 511 195.625 514.125 195.625 520.75 C 195.625 525.5 191.5 531.125 180.625 531.125 C 169.25 531.125 162.875 526.125 159.25 523.25 L 158 523.625 L 157.125 541.25 L 157.875 542.25 C 159.25 542.75 160.625 543.375 162 543.75 C 164.875 544.75 172.25 546.875 181.625 546.875 C 185.375 546.875 194.875 546.5 202.375 543 C 212.875 537.875 217.375 528.375 217.375 517.75 C 217.375 510.625 214.625 503 208 497.875 C 204.625 495.375 201.375 493.875 198.375 492.5 Z M 284.875 507.75 C 285 496.5 285 491.625 281.75 486.375 C 279.25 482.375 274.25 477.375 258.25 477.375 C 247.5 477.375 240.875 479.375 233.75 481.5 L 233 482.5 L 232.375 496.125 L 233.375 496.625 C 237.75 494.875 245.875 491.625 254.25 491.625 C 258.875 491.625 260.75 492.375 262.375 494 C 263.625 495.25 264 497.5 264 499.375 C 249 501.375 242 502.75 234.5 507.375 C 227.5 511.75 225.125 518.875 225.125 524.5 C 225.125 537.875 234.75 546.5 247 546.5 C 256.375 546.5 261.75 542 264.375 539.875 L 264.375 544.5 L 265.125 545.375 C 274.125 545 276.875 544.875 285 545 L 285.625 544.125 C 284.75 531.875 284.75 528.75 284.75 517 L 284.875 507.75 M 264.25 527.625 C 261.625 529.125 258.25 530.875 254.125 530.875 C 249.625 530.875 245.875 528.5 245.875 523.25 C 245.875 515 255.75 513.625 264.25 512.5 Z M 360.75 544.25 C 360.25 533 359.875 525.5 359.875 509.125 C 359.875 476.125 360.375 462.5 360.875 446 L 360 445.25 L 339.375 448.5 L 338.75 449.25 C 339.5 461 339.625 464.125 339.5 478.375 C 330.125 478.125 318.375 477.875 308.875 485.375 C 300.125 492.125 296.5 502.5 296.5 515.375 C 296.5 525.125 299.125 534.875 306.5 541 C 312 545.5 318.75 546.5 322.875 546.5 C 331.75 546.5 336.375 542.375 339.375 539.75 L 339.125 544.625 L 339.75 545.375 C 348.375 545 350.75 545 360.125 545 L 360.75 544.25 M 339.5 493.375 C 339.625 510 339.5 513.25 339.125 528.375 C 336.625 529.875 334.125 531.375 330.625 531.375 C 318.5 531.375 318.5 515.875 318.5 513.375 C 318.5 503.75 321.25 493 335.25 493 C 336.625 493 337.75 493.125 339.5 493.375 Z M 436.25 544.25 C 435.75 533 435.375 525.5 435.375 509.125 C 435.375 476.125 435.875 462.5 436.375 446 L 435.5 445.25 L 414.875 448.5 L 414.25 449.25 C 415 461 415.125 464.125 415 478.375 C 405.625 478.125 393.875 477.875 384.375 485.375 C 375.625 492.125 372 502.5 372 515.375 C 372 525.125 374.625 534.875 382 541 C 387.5 545.5 394.25 546.5 398.375 546.5 C 407.25 546.5 411.875 542.375 414.875 539.75 L 414.625 544.625 L 415.25 545.375 C 423.875 545 426.25 545 435.625 545 L 436.25 544.25 M 415 493.375 C 415.125 510 415 513.25 414.625 528.375 C 412.125 529.875 409.625 531.375 406.125 531.375 C 394 531.375 394 515.875 394 513.375 C 394 503.75 396.75 493 410.75 493 C 412.125 493 413.25 493.125 415 493.375 Z M 472.5 544.125 C 471.875 529.75 471.25 516.625 471.25 477.125 C 471.25 465.25 471.375 459.625 471.875 446.125 L 471 445.25 L 449.625 448.625 L 449.125 449.375 C 450.375 464.625 450.5 468.75 450.75 489 C 450.875 496.375 450.875 503.75 450.875 511.125 C 450.875 524.625 450.625 532.125 450.125 544.5 L 450.875 545.375 C 459.25 545 462.625 544.875 471.75 545 Z M 542.5 526.5 C 537.75 529 532.125 531.875 523 531.875 C 515.5 531.875 510.375 529.5 507.375 525 C 505.5 522.375 505.125 519.875 504.625 517.375 L 545 516.625 L 545.75 515.75 C 545.625 509.625 545.5 503.375 543.75 497.125 C 539.375 482.375 529.75 479.375 525.5 478.375 C 522.375 477.5 519.5 477.25 516.625 477.25 C 497 477.25 484 490.125 484 511.75 C 484 517.625 485 523.75 487 528.125 C 494.25 545 511.25 546.5 520.25 546.5 C 530.625 546.5 535.125 544.625 541.75 542 L 542.5 541 L 543.375 526.875 L 542.5 526.5 M 504.625 504.125 C 505 500.25 505.875 495 510.625 492 C 512.125 491 513.875 490.625 515.625 490.625 C 519.75 490.625 522.25 492.75 523.625 495 C 525.375 497.75 525.5 500.75 525.5 503.625 Z M 566.25 545.25 L 568.75 545.25 C 588.75 545.25 601.625 544.25 611.125 534.125 C 620 524.625 620.875 513.375 620.875 508.125 C 620.875 490.75 610.875 477.25 593.875 477.25 C 585.625 477.25 581.25 480 577.75 482.25 L 578.5 446 L 577.5 445.25 L 556.75 448.5 L 556 449.375 C 557 459.875 557.375 464.125 557.375 489.25 C 557.375 500 557.25 521.25 557.125 544.5 L 558 545.375 L 566.25 545.25 M 578.25 494.625 C 580.75 493.375 583.125 492.125 586.375 492.125 C 594.625 492.125 599.375 499.5 599.375 511 C 599.375 520 595.375 525.875 592 528.25 C 587.875 531.125 582.5 531.25 578.25 531.375 Z M 688.375 507.75 C 688.5 496.5 688.5 491.625 685.25 486.375 C 682.75 482.375 677.75 477.375 661.75 477.375 C 651 477.375 644.375 479.375 637.25 481.5 L 636.5 482.5 L 635.875 496.125 L 636.875 496.625 C 641.25 494.875 649.375 491.625 657.75 491.625 C 662.375 491.625 664.25 492.375 665.875 494 C 667.125 495.25 667.5 497.5 667.5 499.375 C 652.5 501.375 645.5 502.75 638 507.375 C 631 511.75 628.625 518.875 628.625 524.5 C 628.625 537.875 638.25 546.5 650.5 546.5 C 659.875 546.5 665.25 542 667.875 539.875 L 667.875 544.5 L 668.625 545.375 C 677.625 545 680.375 544.875 688.5 545 L 689.125 544.125 C 688.25 531.875 688.25 528.75 688.25 517 L 688.375 507.75 M 667.75 527.625 C 665.125 529.125 661.75 530.875 657.625 530.875 C 653.125 530.875 649.375 528.5 649.375 523.25 C 649.375 515 659.25 513.625 667.75 512.5 Z M 751.875 527 C 748.5 529 745.25 531 738.875 531 C 724.75 531 721.875 519.25 721.875 511.75 C 721.875 502.625 725.875 492.125 738 492.125 C 743.5 492.125 746.5 494.125 750.25 496.625 L 751.5 496.25 C 752 489.625 752.125 487.875 753.125 481.25 L 752.5 480.5 C 747 478.75 742.25 477.25 735 477.25 C 705.625 477.25 699.875 499.5 699.875 512.25 C 699.875 526.625 707.375 546.125 735.5 546.125 C 742.125 546.125 746.375 544.875 751.625 543.375 L 752.375 542.625 L 752.875 527.625 Z M 827.125 543.375 C 815.375 523.5 814.125 521.25 804.625 504.125 C 813.25 492.375 814.125 491.125 823 479.75 L 822.375 478.5 L 802 478.75 L 800.75 479.625 C 791 496.5 789.75 498.5 784 507.125 L 784 493.25 C 784.125 469.875 784.25 464.875 784.875 446 L 783.875 445.25 L 762.125 448.5 L 761.375 449.375 C 762.25 461.5 762.625 467.375 762.875 483.75 C 763.125 504 763.125 524.25 763 544.5 L 763.875 545.375 C 772.25 545 774.625 545 784.125 545 L 784.875 544.125 L 784.125 523 L 784 508.625 C 794.875 528.625 796.25 531.375 802.625 544.625 L 803.75 545.375 L 826.25 544.5 Z M 825.625 545 "/>
<path fill-rule="nonzero" fill="rgb(34.901961%, 14.901961%, 14.901961%)" fill-opacity="1" d="M 197.8125 695 C 209.4375 695.25 223.8125 695.5 233.1875 689 C 241.4375 683.125 243.6875 674.875 243.6875 667.875 C 243.6875 659.875 240.3125 652.5 233.1875 649 C 230.8125 647.75 228.0625 647.25 225.4375 646.75 C 229.6875 645 234.6875 642.75 237.9375 636.125 C 239.3125 633.25 239.9375 630.25 239.9375 627.375 C 239.9375 623.375 238.9375 617.875 234.9375 613.375 C 229.6875 607.75 221.5625 606.25 209.3125 606.25 C 205.0625 606.25 197.4375 606.375 193.1875 606.5 L 175.6875 606.75 L 174.9375 607.5 C 175.4375 619.5 175.5625 624.125 175.5625 641.375 C 175.5625 659.125 175.4375 676.75 175.1875 694.5 L 176.0625 695 L 197.8125 695 M 196.9375 657 C 206.4375 656.75 211.9375 656.75 215.5625 658.875 C 219.1875 661.125 220.5625 665.125 220.5625 669.125 C 220.5625 674.75 217.4375 678.25 212.8125 679.875 C 209.0625 681.125 202.3125 681.125 196.9375 681 L 196.9375 657 M 196.9375 620.25 C 199.5625 620.25 203.0625 620.125 205.1875 620.125 C 211.9375 620.125 218.0625 622.5 218.0625 630.625 C 218.0625 637.25 213.1875 640 211.6875 640.75 C 208.5625 642.125 201.9375 642.125 196.9375 642.125 Z M 315.3125 628.125 L 294.9375 629.125 L 294.0625 629.875 C 294.9375 644 294.9375 664 294.9375 666 C 294.9375 669.625 294.9375 671.625 294.8125 676.625 C 291.4375 678.875 288.8125 680.75 285.4375 680.75 C 276.4375 680.75 276.4375 671.25 276.4375 663.875 C 276.4375 660.75 276.4375 657.5 276.5625 654.375 L 276.8125 629.125 L 275.9375 628.125 L 255.3125 629.125 L 254.4375 629.875 C 255.1875 640.375 255.3125 643.875 255.3125 656.5 L 255.3125 665.25 C 255.1875 678.875 255.8125 684.625 260.3125 689.875 C 264.4375 694.5 270.4375 696.5 276.6875 696.5 C 285.5625 696.5 290.6875 692.5 295.1875 689 L 295.0625 694.625 L 295.9375 695.375 C 305.0625 695 307.8125 695 315.9375 695 L 316.6875 694.25 C 316.0625 685.375 315.8125 680.625 315.8125 664.375 C 315.8125 652.625 315.9375 640.875 316.1875 629.125 Z M 365.8125 680.625 C 363.6875 681.25 362.1875 681.75 360.0625 681.75 C 353.6875 681.75 353.1875 677.75 352.9375 675.875 C 352.5625 672.625 352.5625 665.75 352.6875 660.75 L 352.9375 643.125 L 364.1875 643.625 L 364.9375 642.875 L 366.1875 629.5 L 365.4375 628.75 L 352.9375 628.75 L 353.3125 607.75 L 352.4375 607 C 343.9375 609.5 341.6875 610.125 332.8125 612.375 L 332.3125 613.25 L 332.4375 628.875 L 325.6875 628.625 L 324.9375 629.25 L 323.8125 642.625 L 324.5625 643.375 L 332.4375 643.125 L 332.0625 663 C 331.9375 666.125 331.8125 669.25 331.8125 672.5 C 331.8125 684 332.0625 696.375 351.5625 696.375 C 356.4375 696.375 360.3125 695.625 364.6875 694.875 L 365.5625 694 L 366.8125 681.125 Z M 410.0625 680.625 C 407.9375 681.25 406.4375 681.75 404.3125 681.75 C 397.9375 681.75 397.4375 677.75 397.1875 675.875 C 396.8125 672.625 396.8125 665.75 396.9375 660.75 L 397.1875 643.125 L 408.4375 643.625 L 409.1875 642.875 L 410.4375 629.5 L 409.6875 628.75 L 397.1875 628.75 L 397.5625 607.75 L 396.6875 607 C 388.1875 609.5 385.9375 610.125 377.0625 612.375 L 376.5625 613.25 L 376.6875 628.875 L 369.9375 628.625 L 369.1875 629.25 L 368.0625 642.625 L 368.8125 643.375 L 376.6875 643.125 L 376.3125 663 C 376.1875 666.125 376.0625 669.25 376.0625 672.5 C 376.0625 684 376.3125 696.375 395.8125 696.375 C 400.6875 696.375 404.5625 695.625 408.9375 694.875 L 409.8125 694 L 411.0625 681.125 Z M 474.8125 676.5 C 470.0625 679 464.4375 681.875 455.3125 681.875 C 447.8125 681.875 442.6875 679.5 439.6875 675 C 437.8125 672.375 437.4375 669.875 436.9375 667.375 L 477.3125 666.625 L 478.0625 665.75 C 477.9375 659.625 477.8125 653.375 476.0625 647.125 C 471.6875 632.375 462.0625 629.375 457.8125 628.375 C 454.6875 627.5 451.8125 627.25 448.9375 627.25 C 429.3125 627.25 416.3125 640.125 416.3125 661.75 C 416.3125 667.625 417.3125 673.75 419.3125 678.125 C 426.5625 695 443.5625 696.5 452.5625 696.5 C 462.9375 696.5 467.4375 694.625 474.0625 692 L 474.8125 691 L 475.6875 676.875 L 474.8125 676.5 M 436.9375 654.125 C 437.3125 650.25 438.1875 645 442.9375 642 C 444.4375 641 446.1875 640.625 447.9375 640.625 C 452.0625 640.625 454.5625 642.75 455.9375 645 C 457.6875 647.75 457.8125 650.75 457.8125 653.625 Z M 562.1875 641.25 C 551.6875 636.875 546.1875 634.625 546.1875 629 C 546.1875 625.125 549.8125 620.25 558.0625 620.25 C 567.5625 620.25 573.1875 624.125 577.8125 627.25 L 578.9375 626.75 L 579.9375 610.375 L 579.3125 609.5 C 573.9375 607.25 568.3125 604.875 556.1875 604.875 C 532.6875 604.875 524.5625 618.125 524.5625 631.5 C 524.5625 646.625 536.3125 652.125 543.3125 655.5 L 547.4375 657.375 C 556.0625 661 562.6875 664.125 562.6875 670.75 C 562.6875 675.5 558.5625 681.125 547.6875 681.125 C 536.3125 681.125 529.9375 676.125 526.3125 673.25 L 525.0625 673.625 L 524.1875 691.25 L 524.9375 692.25 C 526.3125 692.75 527.6875 693.375 529.0625 693.75 C 531.9375 694.75 539.3125 696.875 548.6875 696.875 C 552.4375 696.875 561.9375 696.5 569.4375 693 C 579.9375 687.875 584.4375 678.375 584.4375 667.75 C 584.4375 660.625 581.6875 653 575.0625 647.875 C 571.6875 645.375 568.4375 643.875 565.4375 642.5 Z M 631.3125 680.625 C 629.1875 681.25 627.6875 681.75 625.5625 681.75 C 619.1875 681.75 618.6875 677.75 618.4375 675.875 C 618.0625 672.625 618.0625 665.75 618.1875 660.75 L 618.4375 643.125 L 629.6875 643.625 L 630.4375 642.875 L 631.6875 629.5 L 630.9375 628.75 L 618.4375 628.75 L 618.8125 607.75 L 617.9375 607 C 609.4375 609.5 607.1875 610.125 598.3125 612.375 L 597.8125 613.25 L 597.9375 628.875 L 591.1875 628.625 L 590.4375 629.25 L 589.3125 642.625 L 590.0625 643.375 L 597.9375 643.125 L 597.5625 663 C 597.4375 666.125 597.3125 669.25 597.3125 672.5 C 597.3125 684 597.5625 696.375 617.0625 696.375 C 621.9375 696.375 625.8125 695.625 630.1875 694.875 L 631.0625 694 L 632.3125 681.125 Z M 696.1875 657.75 C 696.3125 646.5 696.3125 641.625 693.0625 636.375 C 690.5625 632.375 685.5625 627.375 669.5625 627.375 C 658.8125 627.375 652.1875 629.375 645.0625 631.5 L 644.3125 632.5 L 643.6875 646.125 L 644.6875 646.625 C 649.0625 644.875 657.1875 641.625 665.5625 641.625 C 670.1875 641.625 672.0625 642.375 673.6875 644 C 674.9375 645.25 675.3125 647.5 675.3125 649.375 C 660.3125 651.375 653.3125 652.75 645.8125 657.375 C 638.8125 661.75 636.4375 668.875 636.4375 674.5 C 636.4375 687.875 646.0625 696.5 658.3125 696.5 C 667.6875 696.5 673.0625 692 675.6875 689.875 L 675.6875 694.5 L 676.4375 695.375 C 685.4375 695 688.1875 694.875 696.3125 695 L 696.9375 694.125 C 696.0625 681.875 696.0625 678.75 696.0625 667 L 696.1875 657.75 M 675.5625 677.625 C 672.9375 679.125 669.5625 680.875 665.4375 680.875 C 660.9375 680.875 657.1875 678.5 657.1875 673.25 C 657.1875 665 667.0625 663.625 675.5625 662.5 Z M 745.8125 680.625 C 743.6875 681.25 742.1875 681.75 740.0625 681.75 C 733.6875 681.75 733.1875 677.75 732.9375 675.875 C 732.5625 672.625 732.5625 665.75 732.6875 660.75 L 732.9375 643.125 L 744.1875 643.625 L 744.9375 642.875 L 746.1875 629.5 L 745.4375 628.75 L 732.9375 628.75 L 733.3125 607.75 L 732.4375 607 C 723.9375 609.5 721.6875 610.125 712.8125 612.375 L 712.3125 613.25 L 712.4375 628.875 L 705.6875 628.625 L 704.9375 629.25 L 703.8125 642.625 L 704.5625 643.375 L 712.4375 643.125 L 712.0625 663 C 711.9375 666.125 711.8125 669.25 711.8125 672.5 C 711.8125 684 712.0625 696.375 731.5625 696.375 C 736.4375 696.375 740.3125 695.625 744.6875 694.875 L 745.5625 694 L 746.8125 681.125 Z M 810.5625 676.5 C 805.8125 679 800.1875 681.875 791.0625 681.875 C 783.5625 681.875 778.4375 679.5 775.4375 675 C 773.5625 672.375 773.1875 669.875 772.6875 667.375 L 813.0625 666.625 L 813.8125 665.75 C 813.6875 659.625 813.5625 653.375 811.8125 647.125 C 807.4375 632.375 797.8125 629.375 793.5625 628.375 C 790.4375 627.5 787.5625 627.25 784.6875 627.25 C 765.0625 627.25 752.0625 640.125 752.0625 661.75 C 752.0625 667.625 753.0625 673.75 755.0625 678.125 C 762.3125 695 779.3125 696.5 788.3125 696.5 C 798.6875 696.5 803.1875 694.625 809.8125 692 L 810.5625 691 L 811.4375 676.875 L 810.5625 676.5 M 772.6875 654.125 C 773.0625 650.25 773.9375 645 778.6875 642 C 780.1875 641 781.9375 640.625 783.6875 640.625 C 787.8125 640.625 790.3125 642.75 791.6875 645 C 793.4375 647.75 793.5625 650.75 793.5625 653.625 Z M 817.8125 695 "/>
<path fill-rule="nonzero" fill="rgb(34.901961%, 14.901961%, 14.901961%)" fill-opacity="1" d="M 382.375 756.5 L 366.5 756.75 L 365.75 757.5 C 366.25 773.75 366.625 784.625 366.625 799 C 366.625 814.25 366.25 829.375 365.875 844.625 L 366.625 845.375 C 375.875 845 377.875 844.875 387.875 845 L 388.5 844.25 C 388 830.625 388 827.5 388 814.75 C 402 814.875 417 814.875 426 803.875 C 429.5 799.625 432.5 792.5 432.5 783.75 C 432.5 778.375 431.25 766.5 420.875 760.625 C 413.375 756.25 402.75 756.25 393.375 756.25 L 382.375 756.5 M 388 771.625 C 390.75 771.5 393.375 771.5 396.125 771.5 C 407.125 771.75 410.125 777.375 410.125 784.625 C 410.125 786.375 410.125 793.625 403.5 797.25 C 400.125 799.125 395.5 799.375 388 799.375 Z M 496.75 807.75 C 496.875 796.5 496.875 791.625 493.625 786.375 C 491.125 782.375 486.125 777.375 470.125 777.375 C 459.375 777.375 452.75 779.375 445.625 781.5 L 444.875 782.5 L 444.25 796.125 L 445.25 796.625 C 449.625 794.875 457.75 791.625 466.125 791.625 C 470.75 791.625 472.625 792.375 474.25 794 C 475.5 795.25 475.875 797.5 475.875 799.375 C 460.875 801.375 453.875 802.75 446.375 807.375 C 439.375 811.75 437 818.875 437 824.5 C 437 837.875 446.625 846.5 458.875 846.5 C 468.25 846.5 473.625 842 476.25 839.875 L 476.25 844.5 L 477 845.375 C 486 845 488.75 844.875 496.875 845 L 497.5 844.125 C 496.625 831.875 496.625 828.75 496.625 817 L 496.75 807.75 M 476.125 827.625 C 473.5 829.125 470.125 830.875 466 830.875 C 461.5 830.875 457.75 828.5 457.75 823.25 C 457.75 815 467.625 813.625 476.125 812.5 Z M 547.5 798.625 L 551 778.25 L 550.25 777.375 C 549.375 777.375 548.5 777.25 547.625 777.25 C 542.5 777.25 536.75 780.125 532.75 789.375 L 533.125 777.875 L 532.125 776.875 C 522.875 778.875 520.5 779.25 511.375 780.625 L 510.625 781.375 C 511.375 790.75 511.75 796.375 511.75 813.75 C 511.75 824 511.625 834.25 511.375 844.625 L 512.125 845.375 C 521.375 845 523.375 844.875 533.375 845 L 534 844.125 C 533.5 834 532.75 819.875 532.75 811.25 C 532.75 805.625 532.75 797.375 541.25 797.375 C 543.375 797.375 544.625 798.125 546.375 799.125 Z M 622.5 843.375 C 610.75 823.5 609.5 821.25 600 804.125 C 608.625 792.375 609.5 791.125 618.375 779.75 L 617.75 778.5 L 597.375 778.75 L 596.125 779.625 C 586.375 796.5 585.125 798.5 579.375 807.125 L 579.375 793.25 C 579.5 769.875 579.625 764.875 580.25 746 L 579.25 745.25 L 557.5 748.5 L 556.75 749.375 C 557.625 761.5 558 767.375 558.25 783.75 C 558.5 804 558.5 824.25 558.375 844.5 L 559.25 845.375 C 567.625 845 570 845 579.5 845 L 580.25 844.125 L 579.5 823 L 579.375 808.625 C 590.25 828.625 591.625 831.375 598 844.625 L 599.125 845.375 L 621.625 844.5 Z M 621 845 "/>
</svg>
