<svg xmlns="http://www.w3.org/2000/svg" width="612" height="817" viewBox="0 0 612 817">
  <defs>
    <style>
      .cls-1 {
        fill: #592626;
        fill-rule: evenodd;
      }
    </style>
  </defs>
  <path id="Placerita_Canyon_State_Park" data-name="Placerita Canyon State Park" class="cls-1" d="M162.844,289l-9.878.155-0.466.467c0.311,10.111.544,16.877,0.544,25.821,0,9.488-.233,18.9-0.466,28.387l0.466,0.467c5.755-.233,7-0.311,13.222-0.233l0.389-.467c-0.311-8.477-.311-10.422-0.311-18.355,8.71,0.078,18.043.078,23.643-6.766a19.985,19.985,0,0,0,4.044-12.521c0-3.345-.778-10.733-7.233-14.389-4.666-2.722-11.277-2.722-17.11-2.722Zm3.5,9.41c1.711-.077,3.344-0.077,5.055-0.077,6.844,0.155,8.711,3.655,8.711,8.166,0,1.089,0,5.6-4.122,7.855-2.1,1.167-4.978,1.322-9.644,1.322V298.412Zm46.744,45.109c-0.389-8.944-.778-17.11-0.778-41.687,0-7.388.078-10.888,0.389-19.287L212.155,282l-13.3,2.1-0.311.467c0.778,9.488.856,12.055,1.011,24.654,0.078,4.589.078,9.177,0.078,13.766,0,8.4-.155,13.066-0.467,20.766l0.467,0.544c5.211-.233,7.311-0.311,12.988-0.233Zm43.632-22.632c0.078-7,.078-10.033-1.944-13.3-1.555-2.489-4.666-5.6-14.622-5.6a47.306,47.306,0,0,0-15.243,2.567l-0.467.622-0.389,8.477,0.622,0.311c2.723-1.089,7.778-3.111,12.989-3.111,2.877,0,4.044.467,5.055,1.478a4.9,4.9,0,0,1,1.011,3.344c-9.333,1.245-13.688,2.1-18.355,4.978a12.437,12.437,0,0,0-5.833,10.655c0,8.322,5.989,13.688,13.611,13.688a16.079,16.079,0,0,0,10.81-4.122v2.878l0.467,0.544c5.6-.233,7.311-0.311,12.366-0.233l0.389-.545c-0.544-7.621-.544-9.566-0.544-16.877Zm-12.832,12.366a12.6,12.6,0,0,1-6.3,2.022c-2.8,0-5.133-1.477-5.133-4.744,0-5.133,6.144-5.988,11.433-6.688v9.41Zm52.344-.389a13.849,13.849,0,0,1-8.089,2.489c-8.788,0-10.577-7.311-10.577-11.977,0-5.678,2.489-12.211,10.033-12.211,3.422,0,5.288,1.245,7.622,2.8l0.777-.233c0.311-4.122.389-5.211,1.011-9.333l-0.388-.467a32.363,32.363,0,0,0-10.889-2.022c-18.277,0-21.854,13.844-21.854,21.777,0,8.944,4.666,21.077,22.165,21.077a32.581,32.581,0,0,0,10.033-1.711l0.467-.467,0.311-9.333Zm41.377-.311a23.761,23.761,0,0,1-12.132,3.345c-4.667,0-7.856-1.478-9.722-4.278a11,11,0,0,1-1.711-4.744l25.121-.467,0.466-.544a45.56,45.56,0,0,0-1.244-11.589c-2.722-9.177-8.711-11.044-11.355-11.666a19.933,19.933,0,0,0-5.522-.7c-12.211,0-20.3,8.011-20.3,21.466a25.873,25.873,0,0,0,1.867,10.188c4.51,10.5,15.088,11.433,20.687,11.433,6.456,0,9.256-1.167,13.378-2.8l0.466-.622,0.545-8.788Zm-23.565-13.921c0.233-2.411.777-5.678,3.733-7.544a5.968,5.968,0,0,1,8.088,1.866,9.5,9.5,0,0,1,1.167,5.367Zm55.221-3.422,2.178-12.678-0.467-.544c-0.544,0-1.088-.078-1.633-0.078-3.189,0-6.766,1.789-9.255,7.544l0.233-7.155-0.622-.622c-5.755,1.244-7.233,1.478-12.91,2.333l-0.467.467c0.467,5.833.7,9.333,0.7,20.143,0,6.378-.078,12.755-0.233,19.21l0.466,0.467c5.756-.233,7-0.311,13.222-0.233l0.389-.545c-0.311-6.3-.778-15.088-0.778-20.454,0-3.5,0-8.633,5.289-8.633a5.82,5.82,0,0,1,3.188,1.089Zm20.767,28.309c-0.388-5.988-.7-10.577-0.7-21.31,0-6.611.156-13.3,0.234-19.91l-0.545-.622-13.377,2.333-0.466.467c0.622,5.911.855,8.633,0.855,19.677,0,8.477-.233,13.221-0.467,19.6l0.467,0.544c5.6-.233,7.155-0.311,13.455-0.233Zm-1.244-49.308,0.233-10.578-0.466-.466-12.677,1.555-0.467.545c0.155,2.8.233,4.433,0.233,6.3,0,1.478,0,3.034-.078,4.511l0.545,0.467c5.289-.933,6.766-1.089,12.288-1.789Zm31.655,40.909a11.669,11.669,0,0,1-3.577.7c-3.967,0-4.278-2.489-4.434-3.656a89.161,89.161,0,0,1-.155-9.41l0.155-10.966,7,0.311,0.467-.467,0.778-8.322-0.467-.466h-7.778l0.234-13.066-0.545-.467c-5.288,1.555-6.688,1.944-12.21,3.344l-0.311.545,0.077,9.721-4.2-.155-0.467.389-0.7,8.321,0.467,0.467,4.9-.155-0.233,12.366c-0.078,1.944-.155,3.888-0.155,5.91,0,7.156.155,14.855,12.288,14.855a45.17,45.17,0,0,0,8.166-.933l0.545-.544,0.777-8.011Zm40.366-14.233c0.078-7,.078-10.033-1.944-13.3-1.556-2.489-4.667-5.6-14.622-5.6A47.306,47.306,0,0,0,429,304.557l-0.467.622-0.389,8.477,0.622,0.311c2.722-1.089,7.778-3.111,12.989-3.111,2.877,0,4.044.467,5.055,1.478a4.9,4.9,0,0,1,1.011,3.344c-9.333,1.245-13.688,2.1-18.355,4.978a12.437,12.437,0,0,0-5.833,10.655c0,8.322,5.989,13.688,13.611,13.688a16.079,16.079,0,0,0,10.81-4.122v2.878l0.467,0.544c5.6-.233,7.311-0.311,12.366-0.233l0.389-.545c-0.545-7.621-.545-9.566-0.545-16.877Zm-12.832,12.366a12.6,12.6,0,0,1-6.3,2.022c-2.8,0-5.133-1.477-5.133-4.744,0-5.133,6.144-5.988,11.433-6.688v9.41ZM112.6,423.478a19.007,19.007,0,0,1-12.211,4.355c-8.866,0-15.088-6.611-15.088-17.655,0-6.688,2.333-18.432,15.011-18.432a16.68,16.68,0,0,1,10.966,3.733l0.7-.156,0.7-10.732-0.311-.389a37.525,37.525,0,0,0-14.389-2.878c-20.143,0-27.143,15.555-27.143,29.165,0,14.933,9.1,28.077,28.076,28.077a33,33,0,0,0,13.3-2.722l0.389-.467,0.544-11.588Zm41.222-9.256c0.078-7,.078-10.032-1.944-13.3-1.555-2.489-4.666-5.6-14.622-5.6a47.333,47.333,0,0,0-15.243,2.567l-0.467.622-0.389,8.477,0.622,0.312c2.723-1.089,7.778-3.111,12.989-3.111,2.877,0,4.044.466,5.055,1.477a4.9,4.9,0,0,1,1.011,3.345c-9.333,1.244-13.688,2.1-18.355,4.977a12.437,12.437,0,0,0-5.833,10.655c0,8.322,5.989,13.688,13.611,13.688a16.074,16.074,0,0,0,10.81-4.122v2.878l0.467,0.544c5.6-.233,7.311-0.311,12.366-0.233l0.389-.544c-0.544-7.622-.544-9.567-0.544-16.877Zm-12.832,12.367a12.6,12.6,0,0,1-6.3,2.022c-2.8,0-5.133-1.478-5.133-4.745,0-5.133,6.144-5.988,11.433-6.688v9.411Zm60.043,10.266c-0.389-6.844-.389-9.022-0.544-16.644v-6.066c-0.078-7.467-.156-11.044-2.1-14.233-2.411-4.044-6.844-4.666-9.644-4.666-4.744,0-8.866,2.488-12.444,4.588l0.156-4.277-0.778-.545c-5.989,1.245-7.311,1.478-13.144,2.256l-0.467.544a216.123,216.123,0,0,1,1.089,24.343c0,4.978-.077,9.955-0.155,14.933l0.466,0.467c5.6-.234,6.767-0.234,12.989-0.234l0.466-.466c-0.466-11.977-.544-15.011-0.622-28.932,1.633-1.089,3.5-2.411,5.989-2.411,4.277,0,4.666,4.588,4.9,7.388,0.155,2.567.233,13.222,0.233,16.177,0,2.645-.078,5.367-0.078,8.011l0.467,0.467c5.133-.156,6.455-0.234,12.677-0.234Zm43.634-40.909-10.811.233-0.622.544c-1.322,5.367-1.633,6.533-3.5,12.6l-2.022,6.688L226,421.844l-1.478-5.522-2.255-8.244-3.111-11.821-0.622-.467c-6.067.467-7.389,0.544-13.766,0.7l-0.389.544c2.8,7.389,10.033,26.91,14.855,41.843-3.189,8.088-3.811,9.488-7.311,17.188l0.389,0.622c1.944-.078,4.122-0.155,6.144-0.155,1.944,0,3.966.077,5.911,0.077l0.544-.466c4.278-16.8,6.378-23.333,16.644-50.4,1.166-3.111,2.333-6.144,3.422-9.177Zm43.711,20.765c0-3.033,0-15.632-10.889-19.91A27.956,27.956,0,0,0,268,395.323c-13.533,0-21.155,7.233-21.155,21.544,0,4.977.778,10.033,3.656,14.232,2.022,3.034,5.833,7.233,16.954,7.233C283.943,438.332,288.376,428.377,288.376,416.711Zm-13.455-.078c0,6.378-.856,13.455-7.311,13.455a6.292,6.292,0,0,1-4.355-1.788c-1.323-1.323-2.8-3.967-2.8-11.511,0-2.255,0-7.233,1.555-9.955a6.442,6.442,0,0,1,5.678-3.5,6.541,6.541,0,0,1,4.977,2.411C274.532,408,274.921,412.434,274.921,416.633Zm58.955,20.222c-0.389-6.844-.389-9.022-0.545-16.644v-6.066c-0.077-7.467-.155-11.044-2.1-14.233-2.411-4.044-6.844-4.666-9.644-4.666-4.744,0-8.866,2.488-12.443,4.588l0.155-4.277-0.778-.545c-5.988,1.245-7.31,1.478-13.143,2.256l-0.467.544A216.367,216.367,0,0,1,296,422.155c0,4.978-.078,9.955-0.156,14.933l0.467,0.467c5.6-.234,6.766-0.234,12.988-0.234l0.467-.466c-0.467-11.977-.545-15.011-0.622-28.932,1.633-1.089,3.5-2.411,5.988-2.411,4.278,0,4.667,4.588,4.9,7.388,0.156,2.567.233,13.222,0.233,16.177,0,2.645-.077,5.367-0.077,8.011l0.466,0.467c5.133-.156,6.455-0.234,12.677-0.234Zm54.056-32.9c-6.533-2.722-9.955-4.122-9.955-7.622,0-2.411,2.255-5.444,7.388-5.444,5.911,0,9.411,2.411,12.289,4.356l0.7-.312,0.622-10.188-0.389-.544a31.855,31.855,0,0,0-14.388-2.878c-14.622,0-19.677,8.244-19.677,16.566,0,9.411,7.311,12.833,11.666,14.933l2.567,1.166c5.366,2.256,9.488,4.2,9.488,8.322,0,2.955-2.566,6.455-9.333,6.455a19.839,19.839,0,0,1-13.3-4.9l-0.778.234-0.544,10.966,0.466,0.622c0.856,0.311,1.711.7,2.567,0.933a38.707,38.707,0,0,0,12.21,1.945c2.334,0,8.244-.234,12.911-2.411,6.533-3.189,9.333-9.1,9.333-15.711a15.415,15.415,0,0,0-5.833-12.366,31.556,31.556,0,0,0-5.989-3.344Zm43.011,24.5a11.669,11.669,0,0,1-3.577.7c-3.967,0-4.278-2.489-4.434-3.655a89.18,89.18,0,0,1-.155-9.411l0.155-10.966,7,0.311,0.467-.467,0.778-8.321-0.467-.467h-7.778l0.234-13.066-0.545-.467c-5.288,1.556-6.688,1.945-12.21,3.344l-0.311.545,0.077,9.722-4.2-.156-0.467.389-0.7,8.322,0.467,0.466,4.9-.155-0.233,12.366c-0.078,1.944-.155,3.889-0.155,5.911,0,7.155.155,14.855,12.288,14.855a45.168,45.168,0,0,0,8.166-.934l0.545-.544,0.777-8.011Zm40.366-14.233c0.078-7,.078-10.032-1.944-13.3-1.556-2.489-4.667-5.6-14.622-5.6A47.333,47.333,0,0,0,439.5,397.89l-0.467.622-0.389,8.477,0.622,0.312c2.722-1.089,7.778-3.111,12.989-3.111,2.877,0,4.044.466,5.055,1.477a4.9,4.9,0,0,1,1.011,3.345c-9.333,1.244-13.688,2.1-18.355,4.977a12.437,12.437,0,0,0-5.833,10.655c0,8.322,5.989,13.688,13.611,13.688a16.074,16.074,0,0,0,10.81-4.122v2.878l0.467,0.544c5.6-.233,7.311-0.311,12.366-0.233l0.389-.544c-0.545-7.622-.545-9.567-0.545-16.877Zm-12.832,12.367a12.6,12.6,0,0,1-6.3,2.022c-2.8,0-5.133-1.478-5.133-4.745,0-5.133,6.144-5.988,11.433-6.688v9.411Zm43.711,1.866a11.68,11.68,0,0,1-3.578.7c-3.966,0-4.278-2.489-4.433-3.655a89.421,89.421,0,0,1-.156-9.411l0.156-10.966,7,0.311,0.466-.467,0.778-8.321-0.467-.467h-7.777l0.233-13.066-0.544-.467c-5.289,1.556-6.689,1.945-12.211,3.344l-0.311.545,0.078,9.722-4.2-.156-0.467.389-0.7,8.322,0.466,0.466,4.9-.155-0.233,12.366c-0.078,1.944-.156,3.889-0.156,5.911,0,7.155.156,14.855,12.288,14.855a45.169,45.169,0,0,0,8.167-.934l0.544-.544,0.778-8.011Zm38.732-2.566a23.772,23.772,0,0,1-12.132,3.344c-4.667,0-7.856-1.478-9.722-4.278a11,11,0,0,1-1.711-4.744l25.121-.467,0.466-.544a45.548,45.548,0,0,0-1.244-11.588c-2.722-9.178-8.711-11.044-11.355-11.666a19.9,19.9,0,0,0-5.522-.7c-12.21,0-20.3,8.01-20.3,21.465a25.875,25.875,0,0,0,1.867,10.189c4.511,10.5,15.088,11.432,20.688,11.432,6.455,0,9.255-1.166,13.377-2.8l0.466-.623,0.545-8.788Zm-23.565-13.922c0.233-2.411.778-5.677,3.733-7.544a5.967,5.967,0,0,1,8.088,1.867,9.5,9.5,0,0,1,1.167,5.366Zm-276.772,63.7-9.878.156-0.466.467c0.311,10.11.544,16.877,0.544,25.821,0,9.488-.233,18.9-0.467,28.387l0.467,0.467c5.755-.234,7-0.311,13.222-0.234l0.389-.466c-0.312-8.478-.312-10.422-0.312-18.355,8.711,0.078,18.044.078,23.644-6.766a20,20,0,0,0,4.044-12.522c0-3.344-.778-10.733-7.233-14.388-4.666-2.722-11.277-2.722-17.11-2.722Zm3.5,9.411c1.711-.078,3.345-0.078,5.056-0.078,6.844,0.156,8.71,3.656,8.71,8.167,0,1.088,0,5.6-4.122,7.855-2.1,1.166-4.977,1.322-9.644,1.322V485.079Zm66.111,22.477c0.077-7,.077-10.033-1.945-13.3-1.555-2.488-4.666-5.6-14.621-5.6a47.337,47.337,0,0,0-15.244,2.566l-0.467.622-0.389,8.478,0.623,0.311c2.722-1.089,7.777-3.111,12.988-3.111,2.878,0,4.044.467,5.055,1.478a4.9,4.9,0,0,1,1.011,3.344c-9.333,1.244-13.688,2.1-18.354,4.977a12.438,12.438,0,0,0-5.833,10.656c0,8.321,5.988,13.688,13.61,13.688a16.084,16.084,0,0,0,10.811-4.122v2.877l0.466,0.545c5.6-.234,7.311-0.311,12.366-0.234l0.389-.544c-0.544-7.622-.544-9.566-0.544-16.877ZM297.36,519.922a12.6,12.6,0,0,1-6.3,2.022c-2.8,0-5.133-1.478-5.133-4.744,0-5.133,6.144-5.989,11.433-6.689v9.411Zm44.411-18.044,2.178-12.677-0.467-.544c-0.544,0-1.089-.078-1.633-0.078-3.189,0-6.767,1.789-9.255,7.544l0.233-7.155-0.622-.622c-5.756,1.244-7.233,1.477-12.911,2.333l-0.466.466c0.466,5.834.7,9.333,0.7,20.144,0,6.377-.078,12.755-0.234,19.21l0.467,0.467c5.755-.234,7-0.311,13.221-0.234l0.389-.544c-0.311-6.3-.777-15.088-0.777-20.455,0-3.5,0-8.632,5.288-8.632a5.825,5.825,0,0,1,3.189,1.088Zm46.666,27.843c-7.311-12.366-8.089-13.766-14-24.421,5.367-7.31,5.911-8.088,11.433-15.166l-0.389-.777-12.677.155-0.778.545c-6.066,10.5-6.844,11.744-10.421,17.11v-8.633c0.077-14.544.155-17.655,0.544-29.4l-0.622-.466-13.533,2.022-0.466.544c0.544,7.544.777,11.2,0.933,21.388,0.155,12.6.155,25.2,0.078,37.8l0.544,0.545c5.211-.234,6.689-0.234,12.6-0.234l0.467-.544-0.467-13.144-0.077-8.944c6.766,12.444,7.622,14.155,11.588,22.4l0.7,0.467,14-.545Z"/>
</svg>
