<?xml version="1.0" encoding="UTF-8"?>
<svg xmlns="http://www.w3.org/2000/svg" xmlns:xlink="http://www.w3.org/1999/xlink" width="975" height="1300" viewBox="0 0 975 1300">
<path fill-rule="nonzero" fill="rgb(34.901961%, 14.901961%, 14.901961%)" fill-opacity="1" d="M 262.625 456.5 L 246.75 456.75 L 246 457.5 C 246.5 473.75 246.875 484.625 246.875 499 C 246.875 514.25 246.5 529.375 246.125 544.625 L 246.875 545.375 C 256.125 545 258.125 544.875 268.125 545 L 268.75 544.25 C 268.25 530.625 268.25 527.5 268.25 514.75 C 282.25 514.875 297.25 514.875 306.25 503.875 C 309.75 499.625 312.75 492.5 312.75 483.75 C 312.75 478.375 311.5 466.5 301.125 460.625 C 293.625 456.25 283 456.25 273.625 456.25 L 262.625 456.5 M 268.25 471.625 C 271 471.5 273.625 471.5 276.375 471.5 C 287.375 471.75 290.375 477.375 290.375 484.625 C 290.375 486.375 290.375 493.625 283.75 497.25 C 280.375 499.125 275.75 499.375 268.25 499.375 Z M 343.375 544.125 C 342.75 529.75 342.125 516.625 342.125 477.125 C 342.125 465.25 342.25 459.625 342.75 446.125 L 341.875 445.25 L 320.5 448.625 L 320 449.375 C 321.25 464.625 321.375 468.75 321.625 489 C 321.75 496.375 321.75 503.75 321.75 511.125 C 321.75 524.625 321.5 532.125 321 544.5 L 321.75 545.375 C 330.125 545 333.5 544.875 342.625 545 Z M 413.5 507.75 C 413.625 496.5 413.625 491.625 410.375 486.375 C 407.875 482.375 402.875 477.375 386.875 477.375 C 376.125 477.375 369.5 479.375 362.375 481.5 L 361.625 482.5 L 361 496.125 L 362 496.625 C 366.375 494.875 374.5 491.625 382.875 491.625 C 387.5 491.625 389.375 492.375 391 494 C 392.25 495.25 392.625 497.5 392.625 499.375 C 377.625 501.375 370.625 502.75 363.125 507.375 C 356.125 511.75 353.75 518.875 353.75 524.5 C 353.75 537.875 363.375 546.5 375.625 546.5 C 385 546.5 390.375 542 393 539.875 L 393 544.5 L 393.75 545.375 C 402.75 545 405.5 544.875 413.625 545 L 414.25 544.125 C 413.375 531.875 413.375 528.75 413.375 517 L 413.5 507.75 M 392.875 527.625 C 390.25 529.125 386.875 530.875 382.75 530.875 C 378.25 530.875 374.5 528.5 374.5 523.25 C 374.5 515 384.375 513.625 392.875 512.5 Z M 477 527 C 473.625 529 470.375 531 464 531 C 449.875 531 447 519.25 447 511.75 C 447 502.625 451 492.125 463.125 492.125 C 468.625 492.125 471.625 494.125 475.375 496.625 L 476.625 496.25 C 477.125 489.625 477.25 487.875 478.25 481.25 L 477.625 480.5 C 472.125 478.75 467.375 477.25 460.125 477.25 C 430.75 477.25 425 499.5 425 512.25 C 425 526.625 432.5 546.125 460.625 546.125 C 467.25 546.125 471.5 544.875 476.75 543.375 L 477.5 542.625 L 478 527.625 Z M 543.5 526.5 C 538.75 529 533.125 531.875 524 531.875 C 516.5 531.875 511.375 529.5 508.375 525 C 506.5 522.375 506.125 519.875 505.625 517.375 L 546 516.625 L 546.75 515.75 C 546.625 509.625 546.5 503.375 544.75 497.125 C 540.375 482.375 530.75 479.375 526.5 478.375 C 523.375 477.5 520.5 477.25 517.625 477.25 C 498 477.25 485 490.125 485 511.75 C 485 517.625 486 523.75 488 528.125 C 495.25 545 512.25 546.5 521.25 546.5 C 531.625 546.5 536.125 544.625 542.75 542 L 543.5 541 L 544.375 526.875 L 543.5 526.5 M 505.625 504.125 C 506 500.25 506.875 495 511.625 492 C 513.125 491 514.875 490.625 516.625 490.625 C 520.75 490.625 523.25 492.75 524.625 495 C 526.375 497.75 526.5 500.75 526.5 503.625 Z M 594.375 498.625 L 597.875 478.25 L 597.125 477.375 C 596.25 477.375 595.375 477.25 594.5 477.25 C 589.375 477.25 583.625 480.125 579.625 489.375 L 580 477.875 L 579 476.875 C 569.75 478.875 567.375 479.25 558.25 480.625 L 557.5 481.375 C 558.25 490.75 558.625 496.375 558.625 513.75 C 558.625 524 558.5 534.25 558.25 544.625 L 559 545.375 C 568.25 545 570.25 544.875 580.25 545 L 580.875 544.125 C 580.375 534 579.625 519.875 579.625 511.25 C 579.625 505.625 579.625 497.375 588.125 497.375 C 590.25 497.375 591.5 498.125 593.25 499.125 Z M 627.75 544.125 C 627.125 534.5 626.625 527.125 626.625 509.875 C 626.625 499.25 626.875 488.5 627 477.875 L 626.125 476.875 L 604.625 480.625 L 603.875 481.375 C 604.875 490.875 605.25 495.25 605.25 513 C 605.25 526.625 604.875 534.25 604.5 544.5 L 605.25 545.375 C 614.25 545 616.75 544.875 626.875 545 L 627.75 544.125 M 625.75 464.875 L 626.125 447.875 L 625.375 447.125 L 605 449.625 L 604.25 450.5 C 604.5 455 604.625 457.625 604.625 460.625 C 604.625 463 604.625 465.5 604.5 467.875 L 605.375 468.625 C 613.875 467.125 616.25 466.875 625.125 465.75 Z M 676.625 530.625 C 674.5 531.25 673 531.75 670.875 531.75 C 664.5 531.75 664 527.75 663.75 525.875 C 663.375 522.625 663.375 515.75 663.5 510.75 L 663.75 493.125 L 675 493.625 L 675.75 492.875 L 677 479.5 L 676.25 478.75 L 663.75 478.75 L 664.125 457.75 L 663.25 457 C 654.75 459.5 652.5 460.125 643.625 462.375 L 643.125 463.25 L 643.25 478.875 L 636.5 478.625 L 635.75 479.25 L 634.625 492.625 L 635.375 493.375 L 643.25 493.125 L 642.875 513 C 642.75 516.125 642.625 519.25 642.625 522.5 C 642.625 534 642.875 546.375 662.375 546.375 C 667.25 546.375 671.125 545.625 675.5 544.875 L 676.375 544 L 677.625 531.125 Z M 741.5 507.75 C 741.625 496.5 741.625 491.625 738.375 486.375 C 735.875 482.375 730.875 477.375 714.875 477.375 C 704.125 477.375 697.5 479.375 690.375 481.5 L 689.625 482.5 L 689 496.125 L 690 496.625 C 694.375 494.875 702.5 491.625 710.875 491.625 C 715.5 491.625 717.375 492.375 719 494 C 720.25 495.25 720.625 497.5 720.625 499.375 C 705.625 501.375 698.625 502.75 691.125 507.375 C 684.125 511.75 681.75 518.875 681.75 524.5 C 681.75 537.875 691.375 546.5 703.625 546.5 C 713 546.5 718.375 542 721 539.875 L 721 544.5 L 721.75 545.375 C 730.75 545 733.5 544.875 741.625 545 L 742.25 544.125 C 741.375 531.875 741.375 528.75 741.375 517 L 741.5 507.75 M 720.875 527.625 C 718.25 529.125 714.875 530.875 710.75 530.875 C 706.25 530.875 702.5 528.5 702.5 523.25 C 702.5 515 712.375 513.625 720.875 512.5 Z M 748.625 545 "/>
<path fill-rule="nonzero" fill="rgb(34.901961%, 14.901961%, 14.901961%)" fill-opacity="1" d="M 178.25 672.625 C 175.375 674.875 169 679.625 158.625 679.625 C 144.375 679.625 134.375 669 134.375 651.25 C 134.375 640.5 138.125 621.625 158.5 621.625 C 167.875 621.625 173 625.25 176.125 627.625 L 177.25 627.375 L 178.375 610.125 L 177.875 609.5 C 173.375 607.75 165.75 604.875 154.75 604.875 C 122.375 604.875 111.125 629.875 111.125 651.75 C 111.125 675.75 125.75 696.875 156.25 696.875 C 166.75 696.875 173.625 694.125 177.625 692.5 L 178.25 691.75 L 179.125 673.125 Z M 244.5 657.75 C 244.625 646.5 244.625 641.625 241.375 636.375 C 238.875 632.375 233.875 627.375 217.875 627.375 C 207.125 627.375 200.5 629.375 193.375 631.5 L 192.625 632.5 L 192 646.125 L 193 646.625 C 197.375 644.875 205.5 641.625 213.875 641.625 C 218.5 641.625 220.375 642.375 222 644 C 223.25 645.25 223.625 647.5 223.625 649.375 C 208.625 651.375 201.625 652.75 194.125 657.375 C 187.125 661.75 184.75 668.875 184.75 674.5 C 184.75 687.875 194.375 696.5 206.625 696.5 C 216 696.5 221.375 692 224 689.875 L 224 694.5 L 224.75 695.375 C 233.75 695 236.5 694.875 244.625 695 L 245.25 694.125 C 244.375 681.875 244.375 678.75 244.375 667 L 244.5 657.75 M 223.875 677.625 C 221.25 679.125 217.875 680.875 213.75 680.875 C 209.25 680.875 205.5 678.5 205.5 673.25 C 205.5 665 215.375 663.625 223.875 662.5 Z M 320.375 694.125 C 319.75 683.125 319.75 679.625 319.5 667.375 L 319.5 657.625 C 319.375 645.625 319.25 639.875 316.125 634.75 C 312.25 628.25 305.125 627.25 300.625 627.25 C 293 627.25 286.375 631.25 280.625 634.625 L 280.875 627.75 L 279.625 626.875 C 270 628.875 267.875 629.25 258.5 630.5 L 257.75 631.375 C 258.75 642.25 259.5 650.125 259.5 670.5 C 259.5 678.5 259.375 686.5 259.25 694.5 L 260 695.25 C 269 694.875 270.875 694.875 280.875 694.875 L 281.625 694.125 C 280.875 674.875 280.75 670 280.625 647.625 C 283.25 645.875 286.25 643.75 290.25 643.75 C 297.125 643.75 297.75 651.125 298.125 655.625 C 298.375 659.75 298.5 676.875 298.5 681.625 C 298.5 685.875 298.375 690.25 298.375 694.5 L 299.125 695.25 C 307.375 695 309.5 694.875 319.5 694.875 Z M 390.5 628.375 L 373.125 628.75 L 372.125 629.625 C 370 638.25 369.5 640.125 366.5 649.875 L 363.25 660.625 L 360.5 670 L 358.125 661.125 L 354.5 647.875 L 349.5 628.875 L 348.5 628.125 C 338.75 628.875 336.625 629 326.375 629.25 L 325.75 630.125 C 330.25 642 341.875 673.375 349.625 697.375 C 344.5 710.375 343.5 712.625 337.875 725 L 338.5 726 C 341.625 725.875 345.125 725.75 348.375 725.75 C 351.5 725.75 354.75 725.875 357.875 725.875 L 358.75 725.125 C 365.625 698.125 369 687.625 385.5 644.125 C 387.375 639.125 389.25 634.25 391 629.375 Z M 460.75 661.75 C 460.75 656.875 460.75 636.625 443.25 629.75 C 437.75 627.625 431.25 627.375 428 627.375 C 406.25 627.375 394 639 394 662 C 394 670 395.25 678.125 399.875 684.875 C 403.125 689.75 409.25 696.5 427.125 696.5 C 453.625 696.5 460.75 680.5 460.75 661.75 M 439.125 661.625 C 439.125 671.875 437.75 683.25 427.375 683.25 C 424.125 683.25 421.875 681.75 420.375 680.375 C 418.25 678.25 415.875 674 415.875 661.875 C 415.875 658.25 415.875 650.25 418.375 645.875 C 420.25 642.5 423.5 640.25 427.5 640.25 C 431 640.25 433.875 642.125 435.5 644.125 C 438.5 647.75 439.125 654.875 439.125 661.625 Z M 533.875 694.125 C 533.25 683.125 533.25 679.625 533 667.375 L 533 657.625 C 532.875 645.625 532.75 639.875 529.625 634.75 C 525.75 628.25 518.625 627.25 514.125 627.25 C 506.5 627.25 499.875 631.25 494.125 634.625 L 494.375 627.75 L 493.125 626.875 C 483.5 628.875 481.375 629.25 472 630.5 L 471.25 631.375 C 472.25 642.25 473 650.125 473 670.5 C 473 678.5 472.875 686.5 472.75 694.5 L 473.5 695.25 C 482.5 694.875 484.375 694.875 494.375 694.875 L 495.125 694.125 C 494.375 674.875 494.25 670 494.125 647.625 C 496.75 645.875 499.75 643.75 503.75 643.75 C 510.625 643.75 511.25 651.125 511.625 655.625 C 511.875 659.75 512 676.875 512 681.625 C 512 685.875 511.875 690.25 511.875 694.5 L 512.625 695.25 C 520.875 695 523 694.875 533 694.875 Z M 620.75 641.25 C 610.25 636.875 604.75 634.625 604.75 629 C 604.75 625.125 608.375 620.25 616.625 620.25 C 626.125 620.25 631.75 624.125 636.375 627.25 L 637.5 626.75 L 638.5 610.375 L 637.875 609.5 C 632.5 607.25 626.875 604.875 614.75 604.875 C 591.25 604.875 583.125 618.125 583.125 631.5 C 583.125 646.625 594.875 652.125 601.875 655.5 L 606 657.375 C 614.625 661 621.25 664.125 621.25 670.75 C 621.25 675.5 617.125 681.125 606.25 681.125 C 594.875 681.125 588.5 676.125 584.875 673.25 L 583.625 673.625 L 582.75 691.25 L 583.5 692.25 C 584.875 692.75 586.25 693.375 587.625 693.75 C 590.5 694.75 597.875 696.875 607.25 696.875 C 611 696.875 620.5 696.5 628 693 C 638.5 687.875 643 678.375 643 667.75 C 643 660.625 640.25 653 633.625 647.875 C 630.25 645.375 627 643.875 624 642.5 Z M 689.875 680.625 C 687.75 681.25 686.25 681.75 684.125 681.75 C 677.75 681.75 677.25 677.75 677 675.875 C 676.625 672.625 676.625 665.75 676.75 660.75 L 677 643.125 L 688.25 643.625 L 689 642.875 L 690.25 629.5 L 689.5 628.75 L 677 628.75 L 677.375 607.75 L 676.5 607 C 668 609.5 665.75 610.125 656.875 612.375 L 656.375 613.25 L 656.5 628.875 L 649.75 628.625 L 649 629.25 L 647.875 642.625 L 648.625 643.375 L 656.5 643.125 L 656.125 663 C 656 666.125 655.875 669.25 655.875 672.5 C 655.875 684 656.125 696.375 675.625 696.375 C 680.5 696.375 684.375 695.625 688.75 694.875 L 689.625 694 L 690.875 681.125 Z M 754.75 657.75 C 754.875 646.5 754.875 641.625 751.625 636.375 C 749.125 632.375 744.125 627.375 728.125 627.375 C 717.375 627.375 710.75 629.375 703.625 631.5 L 702.875 632.5 L 702.25 646.125 L 703.25 646.625 C 707.625 644.875 715.75 641.625 724.125 641.625 C 728.75 641.625 730.625 642.375 732.25 644 C 733.5 645.25 733.875 647.5 733.875 649.375 C 718.875 651.375 711.875 652.75 704.375 657.375 C 697.375 661.75 695 668.875 695 674.5 C 695 687.875 704.625 696.5 716.875 696.5 C 726.25 696.5 731.625 692 734.25 689.875 L 734.25 694.5 L 735 695.375 C 744 695 746.75 694.875 754.875 695 L 755.5 694.125 C 754.625 681.875 754.625 678.75 754.625 667 L 754.75 657.75 M 734.125 677.625 C 731.5 679.125 728.125 680.875 724 680.875 C 719.5 680.875 715.75 678.5 715.75 673.25 C 715.75 665 725.625 663.625 734.125 662.5 Z M 804.375 680.625 C 802.25 681.25 800.75 681.75 798.625 681.75 C 792.25 681.75 791.75 677.75 791.5 675.875 C 791.125 672.625 791.125 665.75 791.25 660.75 L 791.5 643.125 L 802.75 643.625 L 803.5 642.875 L 804.75 629.5 L 804 628.75 L 791.5 628.75 L 791.875 607.75 L 791 607 C 782.5 609.5 780.25 610.125 771.375 612.375 L 770.875 613.25 L 771 628.875 L 764.25 628.625 L 763.5 629.25 L 762.375 642.625 L 763.125 643.375 L 771 643.125 L 770.625 663 C 770.5 666.125 770.375 669.25 770.375 672.5 C 770.375 684 770.625 696.375 790.125 696.375 C 795 696.375 798.875 695.625 803.25 694.875 L 804.125 694 L 805.375 681.125 Z M 869.125 676.5 C 864.375 679 858.75 681.875 849.625 681.875 C 842.125 681.875 837 679.5 834 675 C 832.125 672.375 831.75 669.875 831.25 667.375 L 871.625 666.625 L 872.375 665.75 C 872.25 659.625 872.125 653.375 870.375 647.125 C 866 632.375 856.375 629.375 852.125 628.375 C 849 627.5 846.125 627.25 843.25 627.25 C 823.625 627.25 810.625 640.125 810.625 661.75 C 810.625 667.625 811.625 673.75 813.625 678.125 C 820.875 695 837.875 696.5 846.875 696.5 C 857.25 696.5 861.75 694.625 868.375 692 L 869.125 691 L 870 676.875 L 869.125 676.5 M 831.25 654.125 C 831.625 650.25 832.5 645 837.25 642 C 838.75 641 840.5 640.625 842.25 640.625 C 846.375 640.625 848.875 642.75 850.25 645 C 852 647.75 852.125 650.75 852.125 653.625 Z M 876.375 695 "/>
<path fill-rule="nonzero" fill="rgb(34.901961%, 14.901961%, 14.901961%)" fill-opacity="1" d="M 382.375 756.5 L 366.5 756.75 L 365.75 757.5 C 366.25 773.75 366.625 784.625 366.625 799 C 366.625 814.25 366.25 829.375 365.875 844.625 L 366.625 845.375 C 375.875 845 377.875 844.875 387.875 845 L 388.5 844.25 C 388 830.625 388 827.5 388 814.75 C 402 814.875 417 814.875 426 803.875 C 429.5 799.625 432.5 792.5 432.5 783.75 C 432.5 778.375 431.25 766.5 420.875 760.625 C 413.375 756.25 402.75 756.25 393.375 756.25 L 382.375 756.5 M 388 771.625 C 390.75 771.5 393.375 771.5 396.125 771.5 C 407.125 771.75 410.125 777.375 410.125 784.625 C 410.125 786.375 410.125 793.625 403.5 797.25 C 400.125 799.125 395.5 799.375 388 799.375 Z M 496.75 807.75 C 496.875 796.5 496.875 791.625 493.625 786.375 C 491.125 782.375 486.125 777.375 470.125 777.375 C 459.375 777.375 452.75 779.375 445.625 781.5 L 444.875 782.5 L 444.25 796.125 L 445.25 796.625 C 449.625 794.875 457.75 791.625 466.125 791.625 C 470.75 791.625 472.625 792.375 474.25 794 C 475.5 795.25 475.875 797.5 475.875 799.375 C 460.875 801.375 453.875 802.75 446.375 807.375 C 439.375 811.75 437 818.875 437 824.5 C 437 837.875 446.625 846.5 458.875 846.5 C 468.25 846.5 473.625 842 476.25 839.875 L 476.25 844.5 L 477 845.375 C 486 845 488.75 844.875 496.875 845 L 497.5 844.125 C 496.625 831.875 496.625 828.75 496.625 817 L 496.75 807.75 M 476.125 827.625 C 473.5 829.125 470.125 830.875 466 830.875 C 461.5 830.875 457.75 828.5 457.75 823.25 C 457.75 815 467.625 813.625 476.125 812.5 Z M 547.5 798.625 L 551 778.25 L 550.25 777.375 C 549.375 777.375 548.5 777.25 547.625 777.25 C 542.5 777.25 536.75 780.125 532.75 789.375 L 533.125 777.875 L 532.125 776.875 C 522.875 778.875 520.5 779.25 511.375 780.625 L 510.625 781.375 C 511.375 790.75 511.75 796.375 511.75 813.75 C 511.75 824 511.625 834.25 511.375 844.625 L 512.125 845.375 C 521.375 845 523.375 844.875 533.375 845 L 534 844.125 C 533.5 834 532.75 819.875 532.75 811.25 C 532.75 805.625 532.75 797.375 541.25 797.375 C 543.375 797.375 544.625 798.125 546.375 799.125 Z M 622.5 843.375 C 610.75 823.5 609.5 821.25 600 804.125 C 608.625 792.375 609.5 791.125 618.375 779.75 L 617.75 778.5 L 597.375 778.75 L 596.125 779.625 C 586.375 796.5 585.125 798.5 579.375 807.125 L 579.375 793.25 C 579.5 769.875 579.625 764.875 580.25 746 L 579.25 745.25 L 557.5 748.5 L 556.75 749.375 C 557.625 761.5 558 767.375 558.25 783.75 C 558.5 804 558.5 824.25 558.375 844.5 L 559.25 845.375 C 567.625 845 570 845 579.5 845 L 580.25 844.125 L 579.5 823 L 579.375 808.625 C 590.25 828.625 591.625 831.375 598 844.625 L 599.125 845.375 L 621.625 844.5 Z M 621 845 "/>
</svg>
