<?xml version="1.0" encoding="UTF-8"?>
<svg xmlns="http://www.w3.org/2000/svg" xmlns:xlink="http://www.w3.org/1999/xlink" width="975" height="1300" viewBox="0 0 975 1300">
<path fill-rule="nonzero" fill="rgb(34.901961%, 14.901961%, 14.901961%)" fill-opacity="1" d="M 255.25 619.25 C 259.875 596.5 261.875 587 275.125 532.125 L 274.5 531.375 C 265.625 531.75 263.875 531.75 255.5 531.75 L 254.75 532.5 C 252.75 545.375 252.125 549.75 249.375 564.125 L 245.75 583.25 L 241.75 604.75 C 239.875 590.75 239.25 586.5 236.75 572 L 233.125 551 L 230 531.75 L 229.25 530.875 L 204.5 531.5 L 203.75 532.25 L 198.75 561 L 193.875 586.625 L 190.75 603.875 C 189.25 593 188.75 589.375 186.125 574.25 L 182.875 556 L 178.75 531.25 L 178 530.625 C 167.25 531.375 165.5 531.375 156.375 531.625 L 155.75 532.5 C 164.875 573.875 166.875 583.375 173.625 619.625 L 174.375 620.375 C 187 619.875 190.375 619.875 202.625 620 L 203.5 619.25 L 206.125 603.75 L 210.25 580.875 L 214.75 554.125 C 216.25 566.375 216.625 569.5 218.875 583 L 222 602.5 L 224.625 619.625 L 225.25 620.375 C 237.25 620 241.375 619.875 254.625 620 Z M 304.25 619.125 C 303.625 609.5 303.125 602.125 303.125 584.875 C 303.125 574.25 303.375 563.5 303.5 552.875 L 302.625 551.875 L 281.125 555.625 L 280.375 556.375 C 281.375 565.875 281.75 570.25 281.75 588 C 281.75 601.625 281.375 609.25 281 619.5 L 281.75 620.375 C 290.75 620 293.25 619.875 303.375 620 L 304.25 619.125 M 302.25 539.875 L 302.625 522.875 L 301.875 522.125 L 281.5 524.625 L 280.75 525.5 C 281 530 281.125 532.625 281.125 535.625 C 281.125 538 281.125 540.5 281 542.875 L 281.875 543.625 C 290.375 542.125 292.75 541.875 301.625 540.75 Z M 340.125 619.125 C 339.5 604.75 338.875 591.625 338.875 552.125 C 338.875 540.25 339 534.625 339.5 521.125 L 338.625 520.25 L 317.25 523.625 L 316.75 524.375 C 318 539.625 318.125 543.75 318.375 564 C 318.5 571.375 318.5 578.75 318.5 586.125 C 318.5 599.625 318.25 607.125 317.75 619.5 L 318.5 620.375 C 326.875 620 330.25 619.875 339.375 620 Z M 376.625 619.125 C 376 604.75 375.375 591.625 375.375 552.125 C 375.375 540.25 375.5 534.625 376 521.125 L 375.125 520.25 L 353.75 523.625 L 353.25 524.375 C 354.5 539.625 354.625 543.75 354.875 564 C 355 571.375 355 578.75 355 586.125 C 355 599.625 354.75 607.125 354.25 619.5 L 355 620.375 C 363.375 620 366.75 619.875 375.875 620 Z M 455.875 585.625 C 464.25 599.875 466.125 603.625 474.125 620 L 475.125 620.625 C 479 620.375 482.75 620.125 486.625 620 C 490.5 619.875 494.5 619.75 498.375 619.75 L 499.125 618.25 C 494.375 612.125 493 610.25 484 595.875 C 480 589.5 478 586.125 474.875 580.625 C 480.5 578.125 491.875 572.875 491.875 557 C 491.875 551.5 490.375 540.125 480.125 534.75 C 473.625 531.375 466.875 531.25 452.25 531.5 L 443.5 531.625 L 428.25 531.625 L 427.625 532.375 C 428.125 545 428.625 558 428.625 592 C 428.625 603.625 428.5 609.25 428.125 619.625 L 428.875 620.375 C 438 620 440 619.875 450.25 620 L 451 619.25 C 450 604.75 449.875 600.75 449.75 585.875 L 455.875 585.625 M 450 546.75 C 451.75 546.625 453.5 546.625 455.25 546.625 C 460.125 546.625 469.75 546.625 469.75 557.625 C 469.75 561.125 468.875 565.75 464.25 568.625 C 460.75 570.75 456.25 571 450 571.125 Z M 569.375 586.75 C 569.375 581.875 569.375 561.625 551.875 554.75 C 546.375 552.625 539.875 552.375 536.625 552.375 C 514.875 552.375 502.625 564 502.625 587 C 502.625 595 503.875 603.125 508.5 609.875 C 511.75 614.75 517.875 621.5 535.75 621.5 C 562.25 621.5 569.375 605.5 569.375 586.75 M 547.75 586.625 C 547.75 596.875 546.375 608.25 536 608.25 C 532.75 608.25 530.5 606.75 529 605.375 C 526.875 603.25 524.5 599 524.5 586.875 C 524.5 583.25 524.5 575.25 527 570.875 C 528.875 567.5 532.125 565.25 536.125 565.25 C 539.625 565.25 542.5 567.125 544.125 569.125 C 547.125 572.75 547.75 579.875 547.75 586.625 Z M 604.25 598.875 C 608.25 599 612.25 599.25 618.25 597.25 C 624.75 595 634.25 589.625 634.25 577.5 C 634.25 571.5 632.5 569 630.875 566.625 L 639.5 567.125 L 640.25 566.5 L 641.125 554 L 640.375 553.375 C 630.75 553.75 628.125 553.875 620.25 553.75 L 614.5 553.625 C 605.625 553.375 593.75 553.125 585.625 559.875 C 582.875 562 577.625 567.375 577.625 576.75 C 577.625 581.75 579 585.75 581.25 588.875 C 584 592.75 586.5 594.125 589.625 595.875 C 586.125 602.625 584.25 606 581.375 611.125 L 581.375 612.25 L 586.625 616 C 582.875 618.875 577 623.625 577 631.75 C 577 637.5 580.125 642.5 584.75 645.875 C 591.75 650.875 601.25 651.125 606.125 651.125 C 629 651.125 639.5 639.625 639.5 627.5 C 639.5 611.75 625.75 608.75 617.625 606.875 L 614.625 606.375 C 608.5 605.375 607.125 605 602.25 603.25 L 604.25 598.875 M 614.5 576.375 C 614.375 586.5 608.25 587.375 606.5 587.375 C 605.5 587.375 601.125 587.125 599 582.125 C 597.875 579.5 597.875 576.5 597.875 575.625 C 597.875 569.375 601.625 565.375 606.25 565.375 C 612 565.375 614.625 570.875 614.5 576.375 M 603.875 623 C 615 625.875 615.125 625.875 616.625 627.125 C 617.875 628 619.125 629.375 619.125 632 C 619.125 635.75 616 639.625 607.75 639.625 C 598.5 639.625 595.375 634.375 595.375 630 C 595.375 625.875 597.5 623.5 599 621.75 Z M 704.5 601.5 C 699.75 604 694.125 606.875 685 606.875 C 677.5 606.875 672.375 604.5 669.375 600 C 667.5 597.375 667.125 594.875 666.625 592.375 L 707 591.625 L 707.75 590.75 C 707.625 584.625 707.5 578.375 705.75 572.125 C 701.375 557.375 691.75 554.375 687.5 553.375 C 684.375 552.5 681.5 552.25 678.625 552.25 C 659 552.25 646 565.125 646 586.75 C 646 592.625 647 598.75 649 603.125 C 656.25 620 673.25 621.5 682.25 621.5 C 692.625 621.5 697.125 619.625 703.75 617 L 704.5 616 L 705.375 601.875 L 704.5 601.5 M 666.625 579.125 C 667 575.25 667.875 570 672.625 567 C 674.125 566 675.875 565.625 677.625 565.625 C 681.75 565.625 684.25 567.75 685.625 570 C 687.375 572.75 687.5 575.75 687.5 578.625 Z M 755.375 573.625 L 758.875 553.25 L 758.125 552.375 C 757.25 552.375 756.375 552.25 755.5 552.25 C 750.375 552.25 744.625 555.125 740.625 564.375 L 741 552.875 L 740 551.875 C 730.75 553.875 728.375 554.25 719.25 555.625 L 718.5 556.375 C 719.25 565.75 719.625 571.375 719.625 588.75 C 719.625 599 719.5 609.25 719.25 619.625 L 720 620.375 C 729.25 620 731.25 619.875 741.25 620 L 741.875 619.125 C 741.375 609 740.625 594.875 740.625 586.25 C 740.625 580.625 740.625 572.375 749.125 572.375 C 751.25 572.375 752.5 573.125 754.25 574.125 Z M 792.375 576.875 C 788.125 575.375 784.75 574 784.75 570.5 C 784.75 569 785.75 564.875 793.5 564.875 C 801.125 564.875 806 568.125 809.125 570.125 L 810.25 569.75 L 811.5 556.125 L 810.875 555.375 C 805 553.75 799.875 552.25 791.75 552.25 C 785.625 552.25 773.375 552.75 766.875 562.125 C 765.25 564.375 763.5 568.125 763.5 573.125 C 763.5 586.5 773.875 590.5 779.75 592.75 L 784.5 594.5 C 787.875 595.625 793.375 597.5 793.375 602 C 793.375 605.125 790.5 608.5 783.5 608.5 C 780 608.5 774.875 607.375 770.25 605 C 768.125 603.875 767.125 603 765.25 601.5 L 764.125 602 C 763.875 608.5 763.75 609.875 763.25 616.125 L 763.875 617.25 C 770 619.5 775.25 621.5 784.375 621.5 C 793.875 621.5 812.625 619.75 814.875 601.875 C 815 600.875 815 600 815 599.125 C 815 585.375 805.375 581.75 798.5 579.125 Z M 818.5 620 "/>
<path fill-rule="nonzero" fill="rgb(34.901961%, 14.901961%, 14.901961%)" fill-opacity="1" d="M 190.125 716.25 C 179.625 711.875 174.125 709.625 174.125 704 C 174.125 700.125 177.75 695.25 186 695.25 C 195.5 695.25 201.125 699.125 205.75 702.25 L 206.875 701.75 L 207.875 685.375 L 207.25 684.5 C 201.875 682.25 196.25 679.875 184.125 679.875 C 160.625 679.875 152.5 693.125 152.5 706.5 C 152.5 721.625 164.25 727.125 171.25 730.5 L 175.375 732.375 C 184 736 190.625 739.125 190.625 745.75 C 190.625 750.5 186.5 756.125 175.625 756.125 C 164.25 756.125 157.875 751.125 154.25 748.25 L 153 748.625 L 152.125 766.25 L 152.875 767.25 C 154.25 767.75 155.625 768.375 157 768.75 C 159.875 769.75 167.25 771.875 176.625 771.875 C 180.375 771.875 189.875 771.5 197.375 768 C 207.875 762.875 212.375 753.375 212.375 742.75 C 212.375 735.625 209.625 728 203 722.875 C 199.625 720.375 196.375 718.875 193.375 717.5 Z M 259.25 755.625 C 257.125 756.25 255.625 756.75 253.5 756.75 C 247.125 756.75 246.625 752.75 246.375 750.875 C 246 747.625 246 740.75 246.125 735.75 L 246.375 718.125 L 257.625 718.625 L 258.375 717.875 L 259.625 704.5 L 258.875 703.75 L 246.375 703.75 L 246.75 682.75 L 245.875 682 C 237.375 684.5 235.125 685.125 226.25 687.375 L 225.75 688.25 L 225.875 703.875 L 219.125 703.625 L 218.375 704.25 L 217.25 717.625 L 218 718.375 L 225.875 718.125 L 225.5 738 C 225.375 741.125 225.25 744.25 225.25 747.5 C 225.25 759 225.5 771.375 245 771.375 C 249.875 771.375 253.75 770.625 258.125 769.875 L 259 769 L 260.25 756.125 Z M 324.125 732.75 C 324.25 721.5 324.25 716.625 321 711.375 C 318.5 707.375 313.5 702.375 297.5 702.375 C 286.75 702.375 280.125 704.375 273 706.5 L 272.25 707.5 L 271.625 721.125 L 272.625 721.625 C 277 719.875 285.125 716.625 293.5 716.625 C 298.125 716.625 300 717.375 301.625 719 C 302.875 720.25 303.25 722.5 303.25 724.375 C 288.25 726.375 281.25 727.75 273.75 732.375 C 266.75 736.75 264.375 743.875 264.375 749.5 C 264.375 762.875 274 771.5 286.25 771.5 C 295.625 771.5 301 767 303.625 764.875 L 303.625 769.5 L 304.375 770.375 C 313.375 770 316.125 769.875 324.25 770 L 324.875 769.125 C 324 756.875 324 753.75 324 742 L 324.125 732.75 M 303.5 752.625 C 300.875 754.125 297.5 755.875 293.375 755.875 C 288.875 755.875 285.125 753.5 285.125 748.25 C 285.125 740 295 738.625 303.5 737.5 Z M 373.75 755.625 C 371.625 756.25 370.125 756.75 368 756.75 C 361.625 756.75 361.125 752.75 360.875 750.875 C 360.5 747.625 360.5 740.75 360.625 735.75 L 360.875 718.125 L 372.125 718.625 L 372.875 717.875 L 374.125 704.5 L 373.375 703.75 L 360.875 703.75 L 361.25 682.75 L 360.375 682 C 351.875 684.5 349.625 685.125 340.75 687.375 L 340.25 688.25 L 340.375 703.875 L 333.625 703.625 L 332.875 704.25 L 331.75 717.625 L 332.5 718.375 L 340.375 718.125 L 340 738 C 339.875 741.125 339.75 744.25 339.75 747.5 C 339.75 759 340 771.375 359.5 771.375 C 364.375 771.375 368.25 770.625 372.625 769.875 L 373.5 769 L 374.75 756.125 Z M 438.5 751.5 C 433.75 754 428.125 756.875 419 756.875 C 411.5 756.875 406.375 754.5 403.375 750 C 401.5 747.375 401.125 744.875 400.625 742.375 L 441 741.625 L 441.75 740.75 C 441.625 734.625 441.5 728.375 439.75 722.125 C 435.375 707.375 425.75 704.375 421.5 703.375 C 418.375 702.5 415.5 702.25 412.625 702.25 C 393 702.25 380 715.125 380 736.75 C 380 742.625 381 748.75 383 753.125 C 390.25 770 407.25 771.5 416.25 771.5 C 426.625 771.5 431.125 769.625 437.75 767 L 438.5 766 L 439.375 751.875 L 438.5 751.5 M 400.625 729.125 C 401 725.25 401.875 720 406.625 717 C 408.125 716 409.875 715.625 411.625 715.625 C 415.75 715.625 418.25 717.75 419.625 720 C 421.375 722.75 421.5 725.75 421.5 728.625 Z M 513 770 C 524.625 770.25 539 770.5 548.375 764 C 556.625 758.125 558.875 749.875 558.875 742.875 C 558.875 734.875 555.5 727.5 548.375 724 C 546 722.75 543.25 722.25 540.625 721.75 C 544.875 720 549.875 717.75 553.125 711.125 C 554.5 708.25 555.125 705.25 555.125 702.375 C 555.125 698.375 554.125 692.875 550.125 688.375 C 544.875 682.75 536.75 681.25 524.5 681.25 C 520.25 681.25 512.625 681.375 508.375 681.5 L 490.875 681.75 L 490.125 682.5 C 490.625 694.5 490.75 699.125 490.75 716.375 C 490.75 734.125 490.625 751.75 490.375 769.5 L 491.25 770 L 513 770 M 512.125 732 C 521.625 731.75 527.125 731.75 530.75 733.875 C 534.375 736.125 535.75 740.125 535.75 744.125 C 535.75 749.75 532.625 753.25 528 754.875 C 524.25 756.125 517.5 756.125 512.125 756 L 512.125 732 M 512.125 695.25 C 514.75 695.25 518.25 695.125 520.375 695.125 C 527.125 695.125 533.25 697.5 533.25 705.625 C 533.25 712.25 528.375 715 526.875 715.75 C 523.75 717.125 517.125 717.125 512.125 717.125 Z M 626 751.5 C 621.25 754 615.625 756.875 606.5 756.875 C 599 756.875 593.875 754.5 590.875 750 C 589 747.375 588.625 744.875 588.125 742.375 L 628.5 741.625 L 629.25 740.75 C 629.125 734.625 629 728.375 627.25 722.125 C 622.875 707.375 613.25 704.375 609 703.375 C 605.875 702.5 603 702.25 600.125 702.25 C 580.5 702.25 567.5 715.125 567.5 736.75 C 567.5 742.625 568.5 748.75 570.5 753.125 C 577.75 770 594.75 771.5 603.75 771.5 C 614.125 771.5 618.625 769.625 625.25 767 L 626 766 L 626.875 751.875 L 626 751.5 M 588.125 729.125 C 588.5 725.25 589.375 720 594.125 717 C 595.625 716 597.375 715.625 599.125 715.625 C 603.25 715.625 605.75 717.75 607.125 720 C 608.875 722.75 609 725.75 609 728.625 Z M 696.375 732.75 C 696.5 721.5 696.5 716.625 693.25 711.375 C 690.75 707.375 685.75 702.375 669.75 702.375 C 659 702.375 652.375 704.375 645.25 706.5 L 644.5 707.5 L 643.875 721.125 L 644.875 721.625 C 649.25 719.875 657.375 716.625 665.75 716.625 C 670.375 716.625 672.25 717.375 673.875 719 C 675.125 720.25 675.5 722.5 675.5 724.375 C 660.5 726.375 653.5 727.75 646 732.375 C 639 736.75 636.625 743.875 636.625 749.5 C 636.625 762.875 646.25 771.5 658.5 771.5 C 667.875 771.5 673.25 767 675.875 764.875 L 675.875 769.5 L 676.625 770.375 C 685.625 770 688.375 769.875 696.5 770 L 697.125 769.125 C 696.25 756.875 696.25 753.75 696.25 742 L 696.375 732.75 M 675.75 752.625 C 673.125 754.125 669.75 755.875 665.625 755.875 C 661.125 755.875 657.375 753.5 657.375 748.25 C 657.375 740 667.25 738.625 675.75 737.5 Z M 759.875 752 C 756.5 754 753.25 756 746.875 756 C 732.75 756 729.875 744.25 729.875 736.75 C 729.875 727.625 733.875 717.125 746 717.125 C 751.5 717.125 754.5 719.125 758.25 721.625 L 759.5 721.25 C 760 714.625 760.125 712.875 761.125 706.25 L 760.5 705.5 C 755 703.75 750.25 702.25 743 702.25 C 713.625 702.25 707.875 724.5 707.875 737.25 C 707.875 751.625 715.375 771.125 743.5 771.125 C 750.125 771.125 754.375 769.875 759.625 768.375 L 760.375 767.625 L 760.875 752.625 Z M 832.125 769.125 C 831.625 758.875 831.5 755.375 831.25 742.375 L 831.25 733 C 831.125 721.125 831 714.25 827.375 709 C 823.75 703.875 818.5 702.25 813 702.25 C 803.875 702.25 796.75 706.625 791.75 709.625 L 792.125 671.125 L 791.375 670.25 L 770 673.625 L 769.375 674.375 C 770.5 686.5 770.75 691 771 707.125 C 771.25 717.25 771.375 727.375 771.375 737.5 C 771.375 749.875 771.125 757.25 770.875 769.5 L 771.5 770.375 C 780.75 769.875 782.625 769.875 792.75 769.875 L 793.5 769.125 C 792.625 750.375 792.5 744.75 792.375 722.625 C 794.75 721 797.75 718.875 802 718.875 C 808.875 718.875 809.375 726 809.875 731 C 810.125 734.875 810.25 752.625 810.25 757.25 C 810.25 761.375 810.125 765.375 810.125 769.5 L 810.75 770.375 C 819.75 769.875 821.75 769.875 831.375 769.875 Z M 838.875 770 "/>
</svg>
