<?xml version="1.0" encoding="UTF-8"?>
<svg xmlns="http://www.w3.org/2000/svg" xmlns:xlink="http://www.w3.org/1999/xlink" width="975" height="1300" viewBox="0 0 975 1300">
<path fill-rule="nonzero" fill="rgb(34.901961%, 14.901961%, 14.901961%)" fill-opacity="1" d="M 255.25 544.25 C 259.875 521.5 261.875 512 275.125 457.125 L 274.5 456.375 C 265.625 456.75 263.875 456.75 255.5 456.75 L 254.75 457.5 C 252.75 470.375 252.125 474.75 249.375 489.125 L 245.75 508.25 L 241.75 529.75 C 239.875 515.75 239.25 511.5 236.75 497 L 233.125 476 L 230 456.75 L 229.25 455.875 L 204.5 456.5 L 203.75 457.25 L 198.75 486 L 193.875 511.625 L 190.75 528.875 C 189.25 518 188.75 514.375 186.125 499.25 L 182.875 481 L 178.75 456.25 L 178 455.625 C 167.25 456.375 165.5 456.375 156.375 456.625 L 155.75 457.5 C 164.875 498.875 166.875 508.375 173.625 544.625 L 174.375 545.375 C 187 544.875 190.375 544.875 202.625 545 L 203.5 544.25 L 206.125 528.75 L 210.25 505.875 L 214.75 479.125 C 216.25 491.375 216.625 494.5 218.875 508 L 222 527.5 L 224.625 544.625 L 225.25 545.375 C 237.25 545 241.375 544.875 254.625 545 Z M 304.25 544.125 C 303.625 534.5 303.125 527.125 303.125 509.875 C 303.125 499.25 303.375 488.5 303.5 477.875 L 302.625 476.875 L 281.125 480.625 L 280.375 481.375 C 281.375 490.875 281.75 495.25 281.75 513 C 281.75 526.625 281.375 534.25 281 544.5 L 281.75 545.375 C 290.75 545 293.25 544.875 303.375 545 L 304.25 544.125 M 302.25 464.875 L 302.625 447.875 L 301.875 447.125 L 281.5 449.625 L 280.75 450.5 C 281 455 281.125 457.625 281.125 460.625 C 281.125 463 281.125 465.5 281 467.875 L 281.875 468.625 C 290.375 467.125 292.75 466.875 301.625 465.75 Z M 340.125 544.125 C 339.5 529.75 338.875 516.625 338.875 477.125 C 338.875 465.25 339 459.625 339.5 446.125 L 338.625 445.25 L 317.25 448.625 L 316.75 449.375 C 318 464.625 318.125 468.75 318.375 489 C 318.5 496.375 318.5 503.75 318.5 511.125 C 318.5 524.625 318.25 532.125 317.75 544.5 L 318.5 545.375 C 326.875 545 330.25 544.875 339.375 545 Z M 376.625 544.125 C 376 529.75 375.375 516.625 375.375 477.125 C 375.375 465.25 375.5 459.625 376 446.125 L 375.125 445.25 L 353.75 448.625 L 353.25 449.375 C 354.5 464.625 354.625 468.75 354.875 489 C 355 496.375 355 503.75 355 511.125 C 355 524.625 354.75 532.125 354.25 544.5 L 355 545.375 C 363.375 545 366.75 544.875 375.875 545 Z M 455.875 510.625 C 464.25 524.875 466.125 528.625 474.125 545 L 475.125 545.625 C 479 545.375 482.75 545.125 486.625 545 C 490.5 544.875 494.5 544.75 498.375 544.75 L 499.125 543.25 C 494.375 537.125 493 535.25 484 520.875 C 480 514.5 478 511.125 474.875 505.625 C 480.5 503.125 491.875 497.875 491.875 482 C 491.875 476.5 490.375 465.125 480.125 459.75 C 473.625 456.375 466.875 456.25 452.25 456.5 L 443.5 456.625 L 428.25 456.625 L 427.625 457.375 C 428.125 470 428.625 483 428.625 517 C 428.625 528.625 428.5 534.25 428.125 544.625 L 428.875 545.375 C 438 545 440 544.875 450.25 545 L 451 544.25 C 450 529.75 449.875 525.75 449.75 510.875 L 455.875 510.625 M 450 471.75 C 451.75 471.625 453.5 471.625 455.25 471.625 C 460.125 471.625 469.75 471.625 469.75 482.625 C 469.75 486.125 468.875 490.75 464.25 493.625 C 460.75 495.75 456.25 496 450 496.125 Z M 569.375 511.75 C 569.375 506.875 569.375 486.625 551.875 479.75 C 546.375 477.625 539.875 477.375 536.625 477.375 C 514.875 477.375 502.625 489 502.625 512 C 502.625 520 503.875 528.125 508.5 534.875 C 511.75 539.75 517.875 546.5 535.75 546.5 C 562.25 546.5 569.375 530.5 569.375 511.75 M 547.75 511.625 C 547.75 521.875 546.375 533.25 536 533.25 C 532.75 533.25 530.5 531.75 529 530.375 C 526.875 528.25 524.5 524 524.5 511.875 C 524.5 508.25 524.5 500.25 527 495.875 C 528.875 492.5 532.125 490.25 536.125 490.25 C 539.625 490.25 542.5 492.125 544.125 494.125 C 547.125 497.75 547.75 504.875 547.75 511.625 Z M 604.25 523.875 C 608.25 524 612.25 524.25 618.25 522.25 C 624.75 520 634.25 514.625 634.25 502.5 C 634.25 496.5 632.5 494 630.875 491.625 L 639.5 492.125 L 640.25 491.5 L 641.125 479 L 640.375 478.375 C 630.75 478.75 628.125 478.875 620.25 478.75 L 614.5 478.625 C 605.625 478.375 593.75 478.125 585.625 484.875 C 582.875 487 577.625 492.375 577.625 501.75 C 577.625 506.75 579 510.75 581.25 513.875 C 584 517.75 586.5 519.125 589.625 520.875 C 586.125 527.625 584.25 531 581.375 536.125 L 581.375 537.25 L 586.625 541 C 582.875 543.875 577 548.625 577 556.75 C 577 562.5 580.125 567.5 584.75 570.875 C 591.75 575.875 601.25 576.125 606.125 576.125 C 629 576.125 639.5 564.625 639.5 552.5 C 639.5 536.75 625.75 533.75 617.625 531.875 L 614.625 531.375 C 608.5 530.375 607.125 530 602.25 528.25 L 604.25 523.875 M 614.5 501.375 C 614.375 511.5 608.25 512.375 606.5 512.375 C 605.5 512.375 601.125 512.125 599 507.125 C 597.875 504.5 597.875 501.5 597.875 500.625 C 597.875 494.375 601.625 490.375 606.25 490.375 C 612 490.375 614.625 495.875 614.5 501.375 M 603.875 548 C 615 550.875 615.125 550.875 616.625 552.125 C 617.875 553 619.125 554.375 619.125 557 C 619.125 560.75 616 564.625 607.75 564.625 C 598.5 564.625 595.375 559.375 595.375 555 C 595.375 550.875 597.5 548.5 599 546.75 Z M 704.5 526.5 C 699.75 529 694.125 531.875 685 531.875 C 677.5 531.875 672.375 529.5 669.375 525 C 667.5 522.375 667.125 519.875 666.625 517.375 L 707 516.625 L 707.75 515.75 C 707.625 509.625 707.5 503.375 705.75 497.125 C 701.375 482.375 691.75 479.375 687.5 478.375 C 684.375 477.5 681.5 477.25 678.625 477.25 C 659 477.25 646 490.125 646 511.75 C 646 517.625 647 523.75 649 528.125 C 656.25 545 673.25 546.5 682.25 546.5 C 692.625 546.5 697.125 544.625 703.75 542 L 704.5 541 L 705.375 526.875 L 704.5 526.5 M 666.625 504.125 C 667 500.25 667.875 495 672.625 492 C 674.125 491 675.875 490.625 677.625 490.625 C 681.75 490.625 684.25 492.75 685.625 495 C 687.375 497.75 687.5 500.75 687.5 503.625 Z M 755.375 498.625 L 758.875 478.25 L 758.125 477.375 C 757.25 477.375 756.375 477.25 755.5 477.25 C 750.375 477.25 744.625 480.125 740.625 489.375 L 741 477.875 L 740 476.875 C 730.75 478.875 728.375 479.25 719.25 480.625 L 718.5 481.375 C 719.25 490.75 719.625 496.375 719.625 513.75 C 719.625 524 719.5 534.25 719.25 544.625 L 720 545.375 C 729.25 545 731.25 544.875 741.25 545 L 741.875 544.125 C 741.375 534 740.625 519.875 740.625 511.25 C 740.625 505.625 740.625 497.375 749.125 497.375 C 751.25 497.375 752.5 498.125 754.25 499.125 Z M 792.375 501.875 C 788.125 500.375 784.75 499 784.75 495.5 C 784.75 494 785.75 489.875 793.5 489.875 C 801.125 489.875 806 493.125 809.125 495.125 L 810.25 494.75 L 811.5 481.125 L 810.875 480.375 C 805 478.75 799.875 477.25 791.75 477.25 C 785.625 477.25 773.375 477.75 766.875 487.125 C 765.25 489.375 763.5 493.125 763.5 498.125 C 763.5 511.5 773.875 515.5 779.75 517.75 L 784.5 519.5 C 787.875 520.625 793.375 522.5 793.375 527 C 793.375 530.125 790.5 533.5 783.5 533.5 C 780 533.5 774.875 532.375 770.25 530 C 768.125 528.875 767.125 528 765.25 526.5 L 764.125 527 C 763.875 533.5 763.75 534.875 763.25 541.125 L 763.875 542.25 C 770 544.5 775.25 546.5 784.375 546.5 C 793.875 546.5 812.625 544.75 814.875 526.875 C 815 525.875 815 525 815 524.125 C 815 510.375 805.375 506.75 798.5 504.125 Z M 818.5 545 "/>
<path fill-rule="nonzero" fill="rgb(34.901961%, 14.901961%, 14.901961%)" fill-opacity="1" d="M 140.9375 641.25 C 130.4375 636.875 124.9375 634.625 124.9375 629 C 124.9375 625.125 128.5625 620.25 136.8125 620.25 C 146.3125 620.25 151.9375 624.125 156.5625 627.25 L 157.6875 626.75 L 158.6875 610.375 L 158.0625 609.5 C 152.6875 607.25 147.0625 604.875 134.9375 604.875 C 111.4375 604.875 103.3125 618.125 103.3125 631.5 C 103.3125 646.625 115.0625 652.125 122.0625 655.5 L 126.1875 657.375 C 134.8125 661 141.4375 664.125 141.4375 670.75 C 141.4375 675.5 137.3125 681.125 126.4375 681.125 C 115.0625 681.125 108.6875 676.125 105.0625 673.25 L 103.8125 673.625 L 102.9375 691.25 L 103.6875 692.25 C 105.0625 692.75 106.4375 693.375 107.8125 693.75 C 110.6875 694.75 118.0625 696.875 127.4375 696.875 C 131.1875 696.875 140.6875 696.5 148.1875 693 C 158.6875 687.875 163.1875 678.375 163.1875 667.75 C 163.1875 660.625 160.4375 653 153.8125 647.875 C 150.4375 645.375 147.1875 643.875 144.1875 642.5 Z M 210.0625 680.625 C 207.9375 681.25 206.4375 681.75 204.3125 681.75 C 197.9375 681.75 197.4375 677.75 197.1875 675.875 C 196.8125 672.625 196.8125 665.75 196.9375 660.75 L 197.1875 643.125 L 208.4375 643.625 L 209.1875 642.875 L 210.4375 629.5 L 209.6875 628.75 L 197.1875 628.75 L 197.5625 607.75 L 196.6875 607 C 188.1875 609.5 185.9375 610.125 177.0625 612.375 L 176.5625 613.25 L 176.6875 628.875 L 169.9375 628.625 L 169.1875 629.25 L 168.0625 642.625 L 168.8125 643.375 L 176.6875 643.125 L 176.3125 663 C 176.1875 666.125 176.0625 669.25 176.0625 672.5 C 176.0625 684 176.3125 696.375 195.8125 696.375 C 200.6875 696.375 204.5625 695.625 208.9375 694.875 L 209.8125 694 L 211.0625 681.125 Z M 274.9375 657.75 C 275.0625 646.5 275.0625 641.625 271.8125 636.375 C 269.3125 632.375 264.3125 627.375 248.3125 627.375 C 237.5625 627.375 230.9375 629.375 223.8125 631.5 L 223.0625 632.5 L 222.4375 646.125 L 223.4375 646.625 C 227.8125 644.875 235.9375 641.625 244.3125 641.625 C 248.9375 641.625 250.8125 642.375 252.4375 644 C 253.6875 645.25 254.0625 647.5 254.0625 649.375 C 239.0625 651.375 232.0625 652.75 224.5625 657.375 C 217.5625 661.75 215.1875 668.875 215.1875 674.5 C 215.1875 687.875 224.8125 696.5 237.0625 696.5 C 246.4375 696.5 251.8125 692 254.4375 689.875 L 254.4375 694.5 L 255.1875 695.375 C 264.1875 695 266.9375 694.875 275.0625 695 L 275.6875 694.125 C 274.8125 681.875 274.8125 678.75 274.8125 667 L 274.9375 657.75 M 254.3125 677.625 C 251.6875 679.125 248.3125 680.875 244.1875 680.875 C 239.6875 680.875 235.9375 678.5 235.9375 673.25 C 235.9375 665 245.8125 663.625 254.3125 662.5 Z M 324.5625 680.625 C 322.4375 681.25 320.9375 681.75 318.8125 681.75 C 312.4375 681.75 311.9375 677.75 311.6875 675.875 C 311.3125 672.625 311.3125 665.75 311.4375 660.75 L 311.6875 643.125 L 322.9375 643.625 L 323.6875 642.875 L 324.9375 629.5 L 324.1875 628.75 L 311.6875 628.75 L 312.0625 607.75 L 311.1875 607 C 302.6875 609.5 300.4375 610.125 291.5625 612.375 L 291.0625 613.25 L 291.1875 628.875 L 284.4375 628.625 L 283.6875 629.25 L 282.5625 642.625 L 283.3125 643.375 L 291.1875 643.125 L 290.8125 663 C 290.6875 666.125 290.5625 669.25 290.5625 672.5 C 290.5625 684 290.8125 696.375 310.3125 696.375 C 315.1875 696.375 319.0625 695.625 323.4375 694.875 L 324.3125 694 L 325.5625 681.125 Z M 389.3125 676.5 C 384.5625 679 378.9375 681.875 369.8125 681.875 C 362.3125 681.875 357.1875 679.5 354.1875 675 C 352.3125 672.375 351.9375 669.875 351.4375 667.375 L 391.8125 666.625 L 392.5625 665.75 C 392.4375 659.625 392.3125 653.375 390.5625 647.125 C 386.1875 632.375 376.5625 629.375 372.3125 628.375 C 369.1875 627.5 366.3125 627.25 363.4375 627.25 C 343.8125 627.25 330.8125 640.125 330.8125 661.75 C 330.8125 667.625 331.8125 673.75 333.8125 678.125 C 341.0625 695 358.0625 696.5 367.0625 696.5 C 377.4375 696.5 381.9375 694.625 388.5625 692 L 389.3125 691 L 390.1875 676.875 L 389.3125 676.5 M 351.4375 654.125 C 351.8125 650.25 352.6875 645 357.4375 642 C 358.9375 641 360.6875 640.625 362.4375 640.625 C 366.5625 640.625 369.0625 642.75 370.4375 645 C 372.1875 647.75 372.3125 650.75 372.3125 653.625 Z M 515.4375 606.375 C 505.4375 606.75 503.8125 606.75 493.3125 606.75 L 492.6875 607.5 C 493.5625 621.625 493.5625 625.25 493.6875 640 C 488.1875 640.125 482.6875 640.25 477.0625 640.25 C 472.6875 640.25 468.1875 640.125 463.8125 640.125 L 464.0625 607.125 L 463.4375 606.375 C 453.8125 606.75 451.9375 606.75 441.0625 606.75 L 440.3125 607.5 C 440.9375 620.375 441.6875 635.75 441.6875 666.75 C 441.6875 678 441.4375 684.125 441.1875 694.625 L 441.8125 695.375 C 450.9375 695 453.1875 694.875 464.1875 695 L 464.8125 694.25 C 464.0625 678.75 463.9375 674.25 463.8125 656.125 C 469.3125 655.875 473.9375 655.75 478.8125 655.75 C 483.8125 655.75 488.8125 655.875 493.8125 656 C 494.0625 672.875 494.0625 677 493.4375 694.625 L 494.0625 695.375 C 503.4375 695 505.9375 694.875 516.5625 695 L 517.1875 694.25 C 516.1875 673.25 515.8125 652.375 515.8125 631.375 C 515.8125 622.625 515.9375 616.75 516.0625 607.125 Z M 554.3125 694.125 C 553.6875 684.5 553.1875 677.125 553.1875 659.875 C 553.1875 649.25 553.4375 638.5 553.5625 627.875 L 552.6875 626.875 L 531.1875 630.625 L 530.4375 631.375 C 531.4375 640.875 531.8125 645.25 531.8125 663 C 531.8125 676.625 531.4375 684.25 531.0625 694.5 L 531.8125 695.375 C 540.8125 695 543.3125 694.875 553.4375 695 L 554.3125 694.125 M 552.3125 614.875 L 552.6875 597.875 L 551.9375 597.125 L 531.5625 599.625 L 530.8125 600.5 C 531.0625 605 531.1875 607.625 531.1875 610.625 C 531.1875 613 531.1875 615.5 531.0625 617.875 L 531.9375 618.625 C 540.4375 617.125 542.8125 616.875 551.6875 615.75 Z M 594.4375 651.875 C 590.1875 650.375 586.8125 649 586.8125 645.5 C 586.8125 644 587.8125 639.875 595.5625 639.875 C 603.1875 639.875 608.0625 643.125 611.1875 645.125 L 612.3125 644.75 L 613.5625 631.125 L 612.9375 630.375 C 607.0625 628.75 601.9375 627.25 593.8125 627.25 C 587.6875 627.25 575.4375 627.75 568.9375 637.125 C 567.3125 639.375 565.5625 643.125 565.5625 648.125 C 565.5625 661.5 575.9375 665.5 581.8125 667.75 L 586.5625 669.5 C 589.9375 670.625 595.4375 672.5 595.4375 677 C 595.4375 680.125 592.5625 683.5 585.5625 683.5 C 582.0625 683.5 576.9375 682.375 572.3125 680 C 570.1875 678.875 569.1875 678 567.3125 676.5 L 566.1875 677 C 565.9375 683.5 565.8125 684.875 565.3125 691.125 L 565.9375 692.25 C 572.0625 694.5 577.3125 696.5 586.4375 696.5 C 595.9375 696.5 614.6875 694.75 616.9375 676.875 C 617.0625 675.875 617.0625 675 617.0625 674.125 C 617.0625 660.375 607.4375 656.75 600.5625 654.125 Z M 663.0625 680.625 C 660.9375 681.25 659.4375 681.75 657.3125 681.75 C 650.9375 681.75 650.4375 677.75 650.1875 675.875 C 649.8125 672.625 649.8125 665.75 649.9375 660.75 L 650.1875 643.125 L 661.4375 643.625 L 662.1875 642.875 L 663.4375 629.5 L 662.6875 628.75 L 650.1875 628.75 L 650.5625 607.75 L 649.6875 607 C 641.1875 609.5 638.9375 610.125 630.0625 612.375 L 629.5625 613.25 L 629.6875 628.875 L 622.9375 628.625 L 622.1875 629.25 L 621.0625 642.625 L 621.8125 643.375 L 629.6875 643.125 L 629.3125 663 C 629.1875 666.125 629.0625 669.25 629.0625 672.5 C 629.0625 684 629.3125 696.375 648.8125 696.375 C 653.6875 696.375 657.5625 695.625 661.9375 694.875 L 662.8125 694 L 664.0625 681.125 Z M 735.9375 661.75 C 735.9375 656.875 735.9375 636.625 718.4375 629.75 C 712.9375 627.625 706.4375 627.375 703.1875 627.375 C 681.4375 627.375 669.1875 639 669.1875 662 C 669.1875 670 670.4375 678.125 675.0625 684.875 C 678.3125 689.75 684.4375 696.5 702.3125 696.5 C 728.8125 696.5 735.9375 680.5 735.9375 661.75 M 714.3125 661.625 C 714.3125 671.875 712.9375 683.25 702.5625 683.25 C 699.3125 683.25 697.0625 681.75 695.5625 680.375 C 693.4375 678.25 691.0625 674 691.0625 661.875 C 691.0625 658.25 691.0625 650.25 693.5625 645.875 C 695.4375 642.5 698.6875 640.25 702.6875 640.25 C 706.1875 640.25 709.0625 642.125 710.6875 644.125 C 713.6875 647.75 714.3125 654.875 714.3125 661.625 Z M 783.9375 648.625 L 787.4375 628.25 L 786.6875 627.375 C 785.8125 627.375 784.9375 627.25 784.0625 627.25 C 778.9375 627.25 773.1875 630.125 769.1875 639.375 L 769.5625 627.875 L 768.5625 626.875 C 759.3125 628.875 756.9375 629.25 747.8125 630.625 L 747.0625 631.375 C 747.8125 640.75 748.1875 646.375 748.1875 663.75 C 748.1875 674 748.0625 684.25 747.8125 694.625 L 748.5625 695.375 C 757.8125 695 759.8125 694.875 769.8125 695 L 770.4375 694.125 C 769.9375 684 769.1875 669.875 769.1875 661.25 C 769.1875 655.625 769.1875 647.375 777.6875 647.375 C 779.8125 647.375 781.0625 648.125 782.8125 649.125 Z M 817.3125 694.125 C 816.6875 684.5 816.1875 677.125 816.1875 659.875 C 816.1875 649.25 816.4375 638.5 816.5625 627.875 L 815.6875 626.875 L 794.1875 630.625 L 793.4375 631.375 C 794.4375 640.875 794.8125 645.25 794.8125 663 C 794.8125 676.625 794.4375 684.25 794.0625 694.5 L 794.8125 695.375 C 803.8125 695 806.3125 694.875 816.4375 695 L 817.3125 694.125 M 815.3125 614.875 L 815.6875 597.875 L 814.9375 597.125 L 794.5625 599.625 L 793.8125 600.5 C 794.0625 605 794.1875 607.625 794.1875 610.625 C 794.1875 613 794.1875 615.5 794.0625 617.875 L 794.9375 618.625 C 803.4375 617.125 805.8125 616.875 814.6875 615.75 Z M 880.0625 677 C 876.6875 679 873.4375 681 867.0625 681 C 852.9375 681 850.0625 669.25 850.0625 661.75 C 850.0625 652.625 854.0625 642.125 866.1875 642.125 C 871.6875 642.125 874.6875 644.125 878.4375 646.625 L 879.6875 646.25 C 880.1875 639.625 880.3125 637.875 881.3125 631.25 L 880.6875 630.5 C 875.1875 628.75 870.4375 627.25 863.1875 627.25 C 833.8125 627.25 828.0625 649.5 828.0625 662.25 C 828.0625 676.625 835.5625 696.125 863.6875 696.125 C 870.3125 696.125 874.5625 694.875 879.8125 693.375 L 880.5625 692.625 L 881.0625 677.625 Z M 883.5625 695 "/>
<path fill-rule="nonzero" fill="rgb(34.901961%, 14.901961%, 14.901961%)" fill-opacity="1" d="M 382.375 756.5 L 366.5 756.75 L 365.75 757.5 C 366.25 773.75 366.625 784.625 366.625 799 C 366.625 814.25 366.25 829.375 365.875 844.625 L 366.625 845.375 C 375.875 845 377.875 844.875 387.875 845 L 388.5 844.25 C 388 830.625 388 827.5 388 814.75 C 402 814.875 417 814.875 426 803.875 C 429.5 799.625 432.5 792.5 432.5 783.75 C 432.5 778.375 431.25 766.5 420.875 760.625 C 413.375 756.25 402.75 756.25 393.375 756.25 L 382.375 756.5 M 388 771.625 C 390.75 771.5 393.375 771.5 396.125 771.5 C 407.125 771.75 410.125 777.375 410.125 784.625 C 410.125 786.375 410.125 793.625 403.5 797.25 C 400.125 799.125 395.5 799.375 388 799.375 Z M 496.75 807.75 C 496.875 796.5 496.875 791.625 493.625 786.375 C 491.125 782.375 486.125 777.375 470.125 777.375 C 459.375 777.375 452.75 779.375 445.625 781.5 L 444.875 782.5 L 444.25 796.125 L 445.25 796.625 C 449.625 794.875 457.75 791.625 466.125 791.625 C 470.75 791.625 472.625 792.375 474.25 794 C 475.5 795.25 475.875 797.5 475.875 799.375 C 460.875 801.375 453.875 802.75 446.375 807.375 C 439.375 811.75 437 818.875 437 824.5 C 437 837.875 446.625 846.5 458.875 846.5 C 468.25 846.5 473.625 842 476.25 839.875 L 476.25 844.5 L 477 845.375 C 486 845 488.75 844.875 496.875 845 L 497.5 844.125 C 496.625 831.875 496.625 828.75 496.625 817 L 496.75 807.75 M 476.125 827.625 C 473.5 829.125 470.125 830.875 466 830.875 C 461.5 830.875 457.75 828.5 457.75 823.25 C 457.75 815 467.625 813.625 476.125 812.5 Z M 547.5 798.625 L 551 778.25 L 550.25 777.375 C 549.375 777.375 548.5 777.25 547.625 777.25 C 542.5 777.25 536.75 780.125 532.75 789.375 L 533.125 777.875 L 532.125 776.875 C 522.875 778.875 520.5 779.25 511.375 780.625 L 510.625 781.375 C 511.375 790.75 511.75 796.375 511.75 813.75 C 511.75 824 511.625 834.25 511.375 844.625 L 512.125 845.375 C 521.375 845 523.375 844.875 533.375 845 L 534 844.125 C 533.5 834 532.75 819.875 532.75 811.25 C 532.75 805.625 532.75 797.375 541.25 797.375 C 543.375 797.375 544.625 798.125 546.375 799.125 Z M 622.5 843.375 C 610.75 823.5 609.5 821.25 600 804.125 C 608.625 792.375 609.5 791.125 618.375 779.75 L 617.75 778.5 L 597.375 778.75 L 596.125 779.625 C 586.375 796.5 585.125 798.5 579.375 807.125 L 579.375 793.25 C 579.5 769.875 579.625 764.875 580.25 746 L 579.25 745.25 L 557.5 748.5 L 556.75 749.375 C 557.625 761.5 558 767.375 558.25 783.75 C 558.5 804 558.5 824.25 558.375 844.5 L 559.25 845.375 C 567.625 845 570 845 579.5 845 L 580.25 844.125 L 579.5 823 L 579.375 808.625 C 590.25 828.625 591.625 831.375 598 844.625 L 599.125 845.375 L 621.625 844.5 Z M 621 845 "/>
</svg>
