<svg xmlns="http://www.w3.org/2000/svg" width="612" height="817" viewBox="0 0 612 817">
  <defs>
    <style>
      .cls-1 {
        fill: #592626;
        fill-rule: evenodd;
      }
    </style>
  </defs>
  <path id="Robert_H._Meyer_Memorial_State_Beach" data-name="Robert H. Meyer Memorial State Beach" class="cls-1" d="M157.01,276.678a236.234,236.234,0,0,1,11.355,21.388l0.622,0.389c2.411-.156,4.744-0.311,7.155-0.389s4.9-.156,7.311-0.156l0.467-.933c-2.956-3.811-3.811-4.978-9.411-13.922-2.489-3.966-3.733-6.066-5.677-9.488,3.5-1.556,10.577-4.822,10.577-14.7,0-3.422-.933-10.5-7.311-13.844-4.044-2.1-8.244-2.178-17.343-2.022l-5.445.078h-9.488l-0.389.466c0.311,7.855.622,15.944,0.622,37.1,0,7.233-.077,10.733-0.311,17.188l0.467,0.467c5.677-.233,6.922-0.311,13.3-0.233l0.467-.467c-0.622-9.022-.7-11.51-0.778-20.766Zm-3.655-24.188c1.089-.078,2.177-0.078,3.266-0.078,3.033,0,9.022,0,9.022,6.845a7.566,7.566,0,0,1-3.422,6.844c-2.178,1.322-4.978,1.477-8.866,1.555V252.49Zm74.276,24.888c0-3.033,0-15.633-10.888-19.91a27.958,27.958,0,0,0-9.489-1.478c-13.532,0-21.154,7.233-21.154,21.543,0,4.978.778,10.033,3.655,14.233C191.777,294.8,195.588,299,206.71,299,223.2,299,227.631,289.044,227.631,277.378Zm-13.455-.078c0,6.378-.855,13.455-7.31,13.455a6.288,6.288,0,0,1-4.356-1.789c-1.322-1.322-2.8-3.966-2.8-11.51,0-2.256,0-7.233,1.556-9.955a6.44,6.44,0,0,1,5.677-3.5,6.538,6.538,0,0,1,4.978,2.411C213.787,268.667,214.176,273.1,214.176,277.3Zm26.446,20.921h1.555c12.444,0,20.455-.622,26.366-6.922a23.446,23.446,0,0,0,6.066-16.177c0-10.81-6.222-19.21-16.8-19.21a16.573,16.573,0,0,0-10.033,3.111l0.467-22.554L247.621,236l-12.91,2.022-0.467.545c0.622,6.533.856,9.177,0.856,24.81,0,6.688-.078,19.91-0.156,34.376l0.545,0.544Zm7.466-31.5a10.744,10.744,0,0,1,5.055-1.556c5.133,0,8.089,4.589,8.089,11.744,0,5.6-2.489,9.255-4.589,10.733-2.566,1.789-5.911,1.867-8.555,1.944V266.723Zm68.443,19.832A23.761,23.761,0,0,1,304.4,289.9c-4.667,0-7.855-1.478-9.722-4.278a11,11,0,0,1-1.711-4.744l25.121-.467,0.467-.544a45.607,45.607,0,0,0-1.245-11.589c-2.722-9.177-8.711-11.044-11.355-11.666a19.933,19.933,0,0,0-5.522-.7c-12.21,0-20.3,8.011-20.3,21.466A25.873,25.873,0,0,0,282,287.566c4.511,10.5,15.088,11.433,20.688,11.433,6.455,0,9.255-1.167,13.377-2.8l0.466-.622,0.545-8.788Zm-23.565-13.921c0.233-2.411.778-5.678,3.733-7.544a5.969,5.969,0,0,1,8.089,1.866,9.511,9.511,0,0,1,1.166,5.367Zm55.222-3.422,2.177-12.678-0.466-.544c-0.545,0-1.089-.078-1.634-0.078-3.188,0-6.766,1.789-9.255,7.544l0.234-7.155-0.623-.622c-5.755,1.244-7.233,1.478-12.91,2.333l-0.467.467c0.467,5.833.7,9.333,0.7,20.143,0,6.378-.078,12.755-0.233,19.21l0.467,0.467c5.755-.233,7-0.311,13.221-0.233l0.389-.545c-0.311-6.3-.778-15.088-0.778-20.454,0-3.5,0-8.633,5.289-8.633a5.826,5.826,0,0,1,3.189,1.089Zm30.1,19.91a11.68,11.68,0,0,1-3.578.7c-3.966,0-4.278-2.489-4.433-3.656a89.4,89.4,0,0,1-.156-9.41l0.156-10.966,7,0.311,0.466-.467,0.778-8.322-0.467-.466h-7.777l0.233-13.066-0.544-.467c-5.289,1.555-6.689,1.944-12.211,3.344l-0.311.545,0.078,9.721-4.2-.155-0.467.389-0.7,8.321,0.466,0.467,4.9-.155-0.233,12.366c-0.078,1.944-.156,3.888-0.156,5.91,0,7.156.156,14.855,12.288,14.855a45.17,45.17,0,0,0,8.167-.933l0.544-.544,0.778-8.011Zm75.054-46.2c-6.222.233-7.233,0.233-13.766,0.233l-0.389.467c0.545,8.788.545,11.044,0.622,20.221-3.422.078-6.844,0.156-10.344,0.156-2.722,0-5.522-.078-8.244-0.078l0.156-20.532-0.389-.467c-5.989.233-7.155,0.233-13.922,0.233l-0.466.467c0.389,8.011.855,17.577,0.855,36.865,0,7-.155,10.81-0.311,17.343l0.389,0.467c5.678-.233,7.077-0.311,13.922-0.233l0.388-.467c-0.466-9.644-.544-12.444-0.622-23.721,3.422-.155,6.3-0.233,9.333-0.233,3.111,0,6.222.078,9.333,0.155,0.156,10.5.156,13.066-.233,24.032l0.389,0.467c5.833-.233,7.388-0.311,14-0.233l0.389-.467c-0.622-13.066-.856-26.054-0.856-39.12,0-5.444.078-9.1,0.156-15.088Zm21.313,43.165-12.444.233-0.389.622,0.156,10.811,0.388,0.544,12.444-.311,0.389-.467-0.155-10.966ZM257.419,336.257c-8.088.234-9.411,0.234-18.043,0.234l-0.467.466-3.578,12.6-3.111,11.277-3.655,13.533-3.422-13.922-2.178-8.788-3.888-14.933-0.389-.467c-8.322.234-9.722,0.234-18.433,0.234l-0.466.466c-0.778,23.255-1.089,29.243-2.8,54.209l0.389,0.466c4.977-.233,6.455-0.311,10.966-0.233l0.466-.467,0.234-14.854,0.466-15.089,0.311-14.7,3.422,13.766L216.2,371.1l5.211,20.066,0.466,0.466c4.822-.233,6.145-0.311,11.589-0.233l0.466-.467,4.511-16.565,3.111-11.355,4.356-16.333V360.6l0.155,11.9v18.666l0.389,0.466c5.366-.233,7.466-0.311,13.455-0.233l0.389-.467c-0.467-8.866-1.011-17.81-1.322-26.754-0.234-4.9-.389-9.8-0.623-14.7-0.388-7.233-.466-8.166-0.466-12.755Zm46.2,43.632a23.772,23.772,0,0,1-12.132,3.344c-4.667,0-7.856-1.478-9.722-4.278a11,11,0,0,1-1.711-4.744l25.121-.467,0.466-.544a45.548,45.548,0,0,0-1.244-11.588c-2.722-9.178-8.711-11.044-11.355-11.666a19.9,19.9,0,0,0-5.522-.7c-12.21,0-20.3,8.01-20.3,21.465a25.875,25.875,0,0,0,1.867,10.189c4.511,10.5,15.088,11.432,20.688,11.432,6.455,0,9.255-1.166,13.377-2.8l0.466-.623,0.545-8.788Zm-23.565-13.922c0.233-2.411.778-5.677,3.733-7.544a5.967,5.967,0,0,1,8.088,1.867,9.5,9.5,0,0,1,1.167,5.366Zm67.51-16.021-10.811.233-0.622.544c-1.322,5.367-1.633,6.533-3.5,12.6l-2.022,6.688-1.711,5.833-1.478-5.522-2.255-8.244-3.111-11.821-0.622-.467c-6.067.467-7.389,0.544-13.766,0.7l-0.389.544c2.8,7.389,10.033,26.91,14.855,41.843-3.189,8.088-3.811,9.488-7.311,17.188l0.389,0.622c1.944-.078,4.122-0.155,6.144-0.155,1.944,0,3.966.077,5.911,0.077l0.544-.466c4.278-16.8,6.378-23.333,16.644-50.4,1.166-3.111,2.333-6.144,3.422-9.177Zm38.655,29.943a23.772,23.772,0,0,1-12.132,3.344c-4.667,0-7.856-1.478-9.722-4.278a11,11,0,0,1-1.711-4.744l25.121-.467,0.466-.544A45.548,45.548,0,0,0,387,361.612c-2.722-9.178-8.711-11.044-11.355-11.666a19.9,19.9,0,0,0-5.522-.7c-12.21,0-20.3,8.01-20.3,21.465a25.875,25.875,0,0,0,1.867,10.189c4.511,10.5,15.088,11.432,20.688,11.432,6.455,0,9.255-1.166,13.377-2.8l0.466-.623,0.545-8.788Zm-23.565-13.922c0.233-2.411.778-5.677,3.733-7.544a5.967,5.967,0,0,1,8.088,1.867,9.5,9.5,0,0,1,1.167,5.366Zm55.221-3.422,2.178-12.677-0.466-.545c-0.545,0-1.089-.077-1.634-0.077-3.188,0-6.766,1.788-9.255,7.544l0.233-7.156-0.622-.622c-5.755,1.245-7.233,1.478-12.91,2.333l-0.467.467c0.467,5.833.7,9.333,0.7,20.144,0,6.377-.078,12.755-0.233,19.21l0.466,0.466c5.756-.233,7-0.311,13.222-0.233l0.389-.544c-0.311-6.3-.778-15.088-0.778-20.455,0-3.5,0-8.633,5.289-8.633a5.826,5.826,0,0,1,3.189,1.089ZM92.141,429.591c-8.089.233-9.411,0.233-18.044,0.233l-0.467.467-3.578,12.6-3.111,11.277L63.287,467.7l-3.422-13.922-2.178-8.788L53.8,430.057l-0.389-.466c-8.322.233-9.722,0.233-18.432,0.233l-0.467.467c-0.778,23.254-1.089,29.243-2.8,54.208l0.389,0.467c4.978-.234,6.455-0.311,10.966-0.234l0.467-.466,0.233-14.855,0.467-15.088,0.311-14.7,3.422,13.766,2.955,11.043L56.132,484.5l0.467,0.467c4.822-.234,6.144-0.311,11.588-0.234l0.467-.466L73.165,467.7l3.111-11.355,4.355-16.333v13.922l0.156,11.9V484.5l0.389,0.467c5.367-.234,7.466-0.311,13.455-0.234l0.389-.466c-0.467-8.866-1.011-17.81-1.322-26.754-0.233-4.9-.389-9.8-0.622-14.7-0.389-7.233-.467-8.166-0.467-12.755Zm46.2,43.631a23.779,23.779,0,0,1-12.133,3.344c-4.667,0-7.855-1.478-9.722-4.277a11,11,0,0,1-1.711-4.745l25.121-.466,0.467-.545a45.6,45.6,0,0,0-1.245-11.588c-2.722-9.177-8.71-11.044-11.355-11.666a19.9,19.9,0,0,0-5.522-.7c-12.21,0-20.3,8.011-20.3,21.466a25.891,25.891,0,0,0,1.867,10.188c4.511,10.5,15.088,11.433,20.688,11.433,6.455,0,9.255-1.167,13.377-2.8l0.467-.622,0.544-8.789ZM114.777,459.3c0.233-2.411.778-5.677,3.733-7.544a5.971,5.971,0,0,1,8.089,1.867,9.5,9.5,0,0,1,1.166,5.366Zm93.487,24.888c-0.389-7.233-.467-9.255-0.467-18.044v-5.833c0.078-5.21.155-10.032-2.1-13.3-3.033-4.433-8.4-4.433-9.644-4.433-6.377,0-10.655,2.878-13.766,5.055-1.089-1.789-3.033-5.055-9.255-5.055-5.133,0-8.477,2.333-12.055,4.822v-4.355l-0.7-.7c-6.066,1.166-7.777,1.477-13.222,2.255l-0.466.544c0.622,6.222,1.089,10.5,1.089,25.9,0,4.433-.078,8.944-0.078,13.377l0.389,0.467c4.977-.156,6.688-0.233,13.143-0.233l0.467-.467c-0.544-11.977-.622-15.555-0.7-29.087a9.551,9.551,0,0,1,5.367-2.178c4.822,0,4.977,5.522,4.977,12.21,0,11.278-.078,12.989-0.233,19.288l0.466,0.545c5.911-.311,7.545-0.311,12.911-0.311l0.467-.467c-0.467-7.389-.545-9.566-0.623-18.977v-2.877l-0.077-7.856a9.6,9.6,0,0,1,5.366-1.944c4.433,0,5.133,4.2,5.133,10.888,0,1.478-.078,2.956-0.078,4.433-0.077,2.645-.155,14.233-0.233,16.566l0.467,0.467c5.833-.233,7.544-0.233,12.988-0.233ZM256.8,464.045c0-3.034,0-15.633-10.888-19.911a27.96,27.96,0,0,0-9.489-1.477c-13.533,0-21.154,7.233-21.154,21.543,0,4.978.777,10.033,3.655,14.233,2.022,3.033,5.833,7.233,16.955,7.233C252.365,485.666,256.8,475.711,256.8,464.045Zm-13.455-.078c0,6.377-.856,13.455-7.311,13.455a6.292,6.292,0,0,1-4.355-1.789c-1.322-1.322-2.8-3.967-2.8-11.511,0-2.255,0-7.233,1.555-9.955a6.442,6.442,0,0,1,5.678-3.5,6.543,6.543,0,0,1,4.978,2.411C242.954,455.334,243.343,459.767,243.343,463.967Zm43.322-8.089,2.178-12.677-0.467-.544c-0.544,0-1.088-.078-1.633-0.078-3.189,0-6.766,1.789-9.255,7.544l0.233-7.155-0.622-.622c-5.755,1.244-7.233,1.477-12.91,2.333l-0.467.466c0.467,5.834.7,9.333,0.7,20.144,0,6.377-.078,12.755-0.233,19.21l0.466,0.467c5.756-.234,7-0.311,13.222-0.234l0.389-.544c-0.311-6.3-.778-15.088-0.778-20.455,0-3.5,0-8.632,5.289-8.632a5.819,5.819,0,0,1,3.188,1.088Zm20.767,28.31c-0.388-5.989-.7-10.577-0.7-21.31,0-6.611.156-13.3,0.234-19.91l-0.545-.622-13.377,2.333-0.466.466c0.622,5.911.855,8.633,0.855,19.677,0,8.478-.233,13.222-0.467,19.6l0.467,0.545c5.6-.234,7.155-0.311,13.455-0.234Zm-1.244-49.309,0.233-10.577-0.466-.467-12.677,1.556-0.467.544c0.155,2.8.233,4.433,0.233,6.3,0,1.478,0,3.033-.078,4.511l0.545,0.467c5.289-.934,6.766-1.089,12.288-1.789Zm44.488,26.677c0.078-7,.078-10.033-1.944-13.3-1.556-2.488-4.667-5.6-14.622-5.6a47.337,47.337,0,0,0-15.244,2.566l-0.466.622-0.389,8.478,0.622,0.311c2.722-1.089,7.777-3.111,12.988-3.111,2.878,0,4.045.467,5.056,1.478a4.905,4.905,0,0,1,1.011,3.344c-9.333,1.244-13.689,2.1-18.355,4.977a12.44,12.44,0,0,0-5.833,10.656c0,8.321,5.989,13.688,13.61,13.688a16.082,16.082,0,0,0,10.811-4.122v2.877l0.467,0.545c5.6-.234,7.31-0.311,12.366-0.234l0.389-.544c-0.545-7.622-.545-9.566-0.545-16.877Zm-12.833,12.366a12.6,12.6,0,0,1-6.3,2.022c-2.8,0-5.134-1.478-5.134-4.744,0-5.133,6.145-5.989,11.433-6.689v9.411Zm35.623,10.266c-0.389-8.944-.778-17.11-0.778-41.687,0-7.388.078-10.888,0.389-19.288l-0.544-.544-13.3,2.1-0.311.466c0.778,9.489.856,12.055,1.011,24.655,0.078,4.588.078,9.177,0.078,13.766,0,8.4-.156,13.066-0.467,20.765l0.467,0.545c5.211-.234,7.311-0.311,12.988-0.234Zm54.21-32.9c-6.533-2.722-9.955-4.122-9.955-7.622,0-2.411,2.256-5.444,7.389-5.444,5.911,0,9.411,2.411,12.288,4.355l0.7-.311,0.622-10.189-0.388-.544a31.863,31.863,0,0,0-14.389-2.878c-14.621,0-19.677,8.244-19.677,16.566,0,9.411,7.311,12.833,11.667,14.933l2.566,1.166c5.367,2.256,9.489,4.2,9.489,8.322,0,2.956-2.567,6.456-9.333,6.456a19.842,19.842,0,0,1-13.3-4.9l-0.777.233L404.033,482.4l0.467,0.622c0.855,0.312,1.711.7,2.566,0.934a38.753,38.753,0,0,0,12.211,1.944c2.333,0,8.244-.233,12.91-2.411,6.533-3.189,9.333-9.1,9.333-15.71a15.413,15.413,0,0,0-5.833-12.366,31.535,31.535,0,0,0-5.988-3.345Zm43.012,24.5a11.68,11.68,0,0,1-3.578.7c-3.966,0-4.278-2.488-4.433-3.655a89.421,89.421,0,0,1-.156-9.411l0.156-10.966,7,0.311,0.466-.466,0.778-8.322-0.467-.467h-7.777l0.233-13.066-0.544-.466c-5.289,1.555-6.689,1.944-12.211,3.344l-0.311.544,0.078,9.722-4.2-.156-0.467.389-0.7,8.322,0.466,0.467,4.9-.156-0.233,12.366c-0.078,1.945-.156,3.889-0.156,5.911,0,7.155.156,14.855,12.288,14.855a45.26,45.26,0,0,0,8.167-.933l0.544-.545,0.778-8.01Zm40.366-14.232c0.077-7,.077-10.033-1.945-13.3-1.555-2.488-4.666-5.6-14.621-5.6a47.337,47.337,0,0,0-15.244,2.566l-0.467.622-0.388,8.478,0.622,0.311c2.722-1.089,7.777-3.111,12.988-3.111,2.878,0,4.044.467,5.055,1.478a4.9,4.9,0,0,1,1.011,3.344c-9.332,1.244-13.688,2.1-18.354,4.977a12.438,12.438,0,0,0-5.833,10.656c0,8.321,5.988,13.688,13.61,13.688a16.084,16.084,0,0,0,10.811-4.122v2.877l0.466,0.545c5.6-.234,7.311-0.311,12.366-0.234l0.389-.544c-0.544-7.622-.544-9.566-0.544-16.877Zm-12.833,12.366a12.6,12.6,0,0,1-6.3,2.022c-2.8,0-5.133-1.478-5.133-4.744,0-5.133,6.144-5.989,11.433-6.689v9.411Zm43.711,1.866a11.669,11.669,0,0,1-3.578.7c-3.966,0-4.277-2.488-4.433-3.655a89.18,89.18,0,0,1-.155-9.411l0.155-10.966,7,0.311,0.467-.466,0.777-8.322-0.466-.467h-7.778l0.234-13.066-0.545-.466c-5.288,1.555-6.688,1.944-12.21,3.344l-0.311.544,0.077,9.722-4.2-.156-0.467.389-0.7,8.322,0.467,0.467,4.9-.156-0.233,12.366c-0.078,1.945-.155,3.889-0.155,5.911,0,7.155.155,14.855,12.288,14.855a45.259,45.259,0,0,0,8.166-.933l0.544-.545,0.778-8.01Zm38.733-2.566a23.776,23.776,0,0,1-12.133,3.344c-4.666,0-7.855-1.478-9.722-4.277a11.018,11.018,0,0,1-1.711-4.745l25.121-.466,0.467-.545a45.643,45.643,0,0,0-1.244-11.588c-2.723-9.177-8.711-11.044-11.355-11.666a19.9,19.9,0,0,0-5.522-.7c-12.211,0-20.3,8.011-20.3,21.466a25.891,25.891,0,0,0,1.866,10.188c4.511,10.5,15.088,11.433,20.688,11.433,6.455,0,9.255-1.167,13.377-2.8l0.467-.622,0.544-8.789ZM557.1,459.3c0.234-2.411.778-5.677,3.733-7.544a5.971,5.971,0,0,1,8.089,1.867,9.5,9.5,0,0,1,1.167,5.366ZM214.682,578.066c7.233,0.155,16.177.311,22.01-3.733a15.458,15.458,0,0,0,6.533-13.144c0-4.978-2.1-9.566-6.533-11.744a17.164,17.164,0,0,0-4.822-1.4c2.645-1.089,5.756-2.489,7.778-6.611a12.619,12.619,0,0,0,1.244-5.444,13.055,13.055,0,0,0-3.111-8.711c-3.266-3.5-8.322-4.433-15.943-4.433-2.645,0-7.389.078-10.033,0.156l-10.889.155-0.466.467c0.311,7.466.389,10.344,0.389,21.077,0,11.044-.078,22.01-0.234,33.054l0.545,0.311h13.532Zm-0.544-23.644c5.911-.155,9.333-0.155,11.588,1.167a7.17,7.17,0,0,1,3.111,6.378,6.686,6.686,0,0,1-4.822,6.688c-2.333.778-6.533,0.778-9.877,0.7V554.422Zm0-22.865c1.633,0,3.811-.078,5.133-0.078,4.2,0,8.011,1.478,8.011,6.533a6.869,6.869,0,0,1-3.967,6.3c-1.944.855-6.066,0.855-9.177,0.855v-13.61Zm70.855,35A23.769,23.769,0,0,1,272.86,569.9c-4.667,0-7.855-1.478-9.722-4.278a11,11,0,0,1-1.711-4.744l25.121-.467,0.467-.544a45.607,45.607,0,0,0-1.245-11.589c-2.722-9.177-8.71-11.044-11.355-11.666a19.933,19.933,0,0,0-5.522-.7c-12.21,0-20.3,8.011-20.3,21.466a25.891,25.891,0,0,0,1.867,10.188c4.511,10.5,15.088,11.433,20.688,11.433,6.455,0,9.255-1.167,13.377-2.8l0.467-.622,0.544-8.788Zm-23.566-13.921c0.233-2.411.778-5.678,3.733-7.544a5.969,5.969,0,0,1,8.089,1.866,9.5,9.5,0,0,1,1.166,5.367Zm67.354,2.255c0.078-7,.078-10.033-1.944-13.3-1.555-2.489-4.666-5.6-14.621-5.6a47.308,47.308,0,0,0-15.244,2.567l-0.467.622-0.389,8.477,0.623,0.311c2.722-1.089,7.777-3.111,12.988-3.111,2.877,0,4.044.467,5.055,1.478a4.9,4.9,0,0,1,1.011,3.344c-9.333,1.245-13.688,2.1-18.354,4.978a12.436,12.436,0,0,0-5.834,10.655c0,8.322,5.989,13.688,13.611,13.688a16.079,16.079,0,0,0,10.81-4.122v2.878l0.467,0.544c5.6-.233,7.311-0.311,12.366-0.233l0.389-.545c-0.544-7.621-.544-9.566-0.544-16.877Zm-12.832,12.366a12.6,12.6,0,0,1-6.3,2.022c-2.8,0-5.133-1.477-5.133-4.744,0-5.133,6.144-5.989,11.433-6.688v9.41Zm52.344-.389a13.849,13.849,0,0,1-8.089,2.489c-8.788,0-10.577-7.311-10.577-11.977,0-5.678,2.489-12.211,10.033-12.211,3.422,0,5.288,1.245,7.622,2.8l0.777-.233c0.312-4.122.389-5.211,1.011-9.333l-0.388-.467a32.358,32.358,0,0,0-10.889-2.022c-18.277,0-21.854,13.844-21.854,21.777,0,8.944,4.666,21.077,22.165,21.077a32.581,32.581,0,0,0,10.033-1.711l0.467-.467,0.311-9.333Zm44.955,10.655c-0.311-6.377-.389-8.555-0.544-16.643v-5.833c-0.078-7.389-.156-11.666-2.411-14.933-2.256-3.189-5.522-4.2-8.944-4.2-5.678,0-10.111,2.722-13.222,4.589l0.233-23.954L387.894,516l-13.3,2.1-0.389.467c0.7,7.544.856,10.344,1.011,20.376q0.234,9.45.234,18.9c0,7.7-.156,12.288-0.311,19.91l0.389,0.544c5.755-.311,6.921-0.311,13.221-0.311l0.467-.467c-0.545-11.666-.622-15.166-0.7-28.932a10.271,10.271,0,0,1,5.988-2.333c4.278,0,4.589,4.433,4.9,7.544,0.156,2.411.234,13.455,0.234,16.333,0,2.566-.078,5.055-0.078,7.622l0.389,0.544c5.6-.311,6.844-0.311,12.832-0.311Z"/>
</svg>
