<?xml version="1.0" encoding="UTF-8"?>
<svg xmlns="http://www.w3.org/2000/svg" xmlns:xlink="http://www.w3.org/1999/xlink" width="975" height="1300" viewBox="0 0 975 1300">
<path fill-rule="nonzero" fill="rgb(34.901961%, 14.901961%, 14.901961%)" fill-opacity="1" d="M 286.625 381.375 C 274.625 381.75 272.125 381.75 258.75 381.75 L 257.875 382.5 C 251.25 403.75 247.25 416.375 228.875 469.125 L 229.375 470 L 248.875 470 L 249.75 469.25 L 255.875 446.5 L 282.875 446.5 L 288.25 469.625 L 289.125 470.375 C 298.25 470 300.75 469.875 310.875 470 L 311.5 469 C 296.375 415.5 294.625 409.625 287.5 382.125 L 286.625 381.375 M 260.25 431.375 L 266.5 410.25 L 270.875 395.625 L 274.625 411.875 L 279.25 431.375 Z M 355.625 423.625 L 359.125 403.25 L 358.375 402.375 C 357.5 402.375 356.625 402.25 355.75 402.25 C 350.625 402.25 344.875 405.125 340.875 414.375 L 341.25 402.875 L 340.25 401.875 C 331 403.875 328.625 404.25 319.5 405.625 L 318.75 406.375 C 319.5 415.75 319.875 421.375 319.875 438.75 C 319.875 449 319.75 459.25 319.5 469.625 L 320.25 470.375 C 329.5 470 331.5 469.875 341.5 470 L 342.125 469.125 C 341.625 459 340.875 444.875 340.875 436.25 C 340.875 430.625 340.875 422.375 349.375 422.375 C 351.5 422.375 352.75 423.125 354.5 424.125 Z M 401.375 455.625 C 399.25 456.25 397.75 456.75 395.625 456.75 C 389.25 456.75 388.75 452.75 388.5 450.875 C 388.125 447.625 388.125 440.75 388.25 435.75 L 388.5 418.125 L 399.75 418.625 L 400.5 417.875 L 401.75 404.5 L 401 403.75 L 388.5 403.75 L 388.875 382.75 L 388 382 C 379.5 384.5 377.25 385.125 368.375 387.375 L 367.875 388.25 L 368 403.875 L 361.25 403.625 L 360.5 404.25 L 359.375 417.625 L 360.125 418.375 L 368 418.125 L 367.625 438 C 367.5 441.125 367.375 444.25 367.375 447.5 C 367.375 459 367.625 471.375 387.125 471.375 C 392 471.375 395.875 470.625 400.25 469.875 L 401.125 469 L 402.375 456.125 Z M 471.875 469.125 C 471.375 458.875 471.25 455.375 471 442.375 L 471 433 C 470.875 421.125 470.75 414.25 467.125 409 C 463.5 403.875 458.25 402.25 452.75 402.25 C 443.625 402.25 436.5 406.625 431.5 409.625 L 431.875 371.125 L 431.125 370.25 L 409.75 373.625 L 409.125 374.375 C 410.25 386.5 410.5 391 410.75 407.125 C 411 417.25 411.125 427.375 411.125 437.5 C 411.125 449.875 410.875 457.25 410.625 469.5 L 411.25 470.375 C 420.5 469.875 422.375 469.875 432.5 469.875 L 433.25 469.125 C 432.375 450.375 432.25 444.75 432.125 422.625 C 434.5 421 437.5 418.875 441.75 418.875 C 448.625 418.875 449.125 426 449.625 431 C 449.875 434.875 450 452.625 450 457.25 C 450 461.375 449.875 465.375 449.875 469.5 L 450.5 470.375 C 459.5 469.875 461.5 469.875 471.125 469.875 Z M 546.125 403.125 L 525.75 404.125 L 524.875 404.875 C 525.75 419 525.75 439 525.75 441 C 525.75 444.625 525.75 446.625 525.625 451.625 C 522.25 453.875 519.625 455.75 516.25 455.75 C 507.25 455.75 507.25 446.25 507.25 438.875 C 507.25 435.75 507.25 432.5 507.375 429.375 L 507.625 404.125 L 506.75 403.125 L 486.125 404.125 L 485.25 404.875 C 486 415.375 486.125 418.875 486.125 431.5 L 486.125 440.25 C 486 453.875 486.625 459.625 491.125 464.875 C 495.25 469.5 501.25 471.5 507.5 471.5 C 516.375 471.5 521.5 467.5 526 464 L 525.875 469.625 L 526.75 470.375 C 535.875 470 538.625 470 546.75 470 L 547.5 469.25 C 546.875 460.375 546.625 455.625 546.625 439.375 C 546.625 427.625 546.75 415.875 547 404.125 Z M 597.75 423.625 L 601.25 403.25 L 600.5 402.375 C 599.625 402.375 598.75 402.25 597.875 402.25 C 592.75 402.25 587 405.125 583 414.375 L 583.375 402.875 L 582.375 401.875 C 573.125 403.875 570.75 404.25 561.625 405.625 L 560.875 406.375 C 561.625 415.75 562 421.375 562 438.75 C 562 449 561.875 459.25 561.625 469.625 L 562.375 470.375 C 571.625 470 573.625 469.875 583.625 470 L 584.25 469.125 C 583.75 459 583 444.875 583 436.25 C 583 430.625 583 422.375 591.5 422.375 C 593.625 422.375 594.875 423.125 596.625 424.125 Z M 668.25 470 C 679.875 470.25 694.25 470.5 703.625 464 C 711.875 458.125 714.125 449.875 714.125 442.875 C 714.125 434.875 710.75 427.5 703.625 424 C 701.25 422.75 698.5 422.25 695.875 421.75 C 700.125 420 705.125 417.75 708.375 411.125 C 709.75 408.25 710.375 405.25 710.375 402.375 C 710.375 398.375 709.375 392.875 705.375 388.375 C 700.125 382.75 692 381.25 679.75 381.25 C 675.5 381.25 667.875 381.375 663.625 381.5 L 646.125 381.75 L 645.375 382.5 C 645.875 394.5 646 399.125 646 416.375 C 646 434.125 645.875 451.75 645.625 469.5 L 646.5 470 L 668.25 470 M 667.375 432 C 676.875 431.75 682.375 431.75 686 433.875 C 689.625 436.125 691 440.125 691 444.125 C 691 449.75 687.875 453.25 683.25 454.875 C 679.5 456.125 672.75 456.125 667.375 456 L 667.375 432 M 667.375 395.25 C 670 395.25 673.5 395.125 675.625 395.125 C 682.375 395.125 688.5 397.5 688.5 405.625 C 688.5 412.25 683.625 415 682.125 415.75 C 679 417.125 672.375 417.125 667.375 417.125 Z M 743.75 450.75 L 723.75 451.125 L 723.125 452.125 L 723.375 469.5 L 724 470.375 L 744 469.875 L 744.625 469.125 L 744.375 451.5 Z M 749.5 470 "/>
<path fill-rule="nonzero" fill="rgb(34.901961%, 14.901961%, 14.901961%)" fill-opacity="1" d="M 138.4375 585.625 C 146.8125 599.875 148.6875 603.625 156.6875 620 L 157.6875 620.625 C 161.5625 620.375 165.3125 620.125 169.1875 620 C 173.0625 619.875 177.0625 619.75 180.9375 619.75 L 181.6875 618.25 C 176.9375 612.125 175.5625 610.25 166.5625 595.875 C 162.5625 589.5 160.5625 586.125 157.4375 580.625 C 163.0625 578.125 174.4375 572.875 174.4375 557 C 174.4375 551.5 172.9375 540.125 162.6875 534.75 C 156.1875 531.375 149.4375 531.25 134.8125 531.5 L 126.0625 531.625 L 110.8125 531.625 L 110.1875 532.375 C 110.6875 545 111.1875 558 111.1875 592 C 111.1875 603.625 111.0625 609.25 110.6875 619.625 L 111.4375 620.375 C 120.5625 620 122.5625 619.875 132.8125 620 L 133.5625 619.25 C 132.5625 604.75 132.4375 600.75 132.3125 585.875 L 138.4375 585.625 M 132.5625 546.75 C 134.3125 546.625 136.0625 546.625 137.8125 546.625 C 142.6875 546.625 152.3125 546.625 152.3125 557.625 C 152.3125 561.125 151.4375 565.75 146.8125 568.625 C 143.3125 570.75 138.8125 571 132.5625 571.125 Z M 210.9375 619.125 C 210.3125 609.5 209.8125 602.125 209.8125 584.875 C 209.8125 574.25 210.0625 563.5 210.1875 552.875 L 209.3125 551.875 L 187.8125 555.625 L 187.0625 556.375 C 188.0625 565.875 188.4375 570.25 188.4375 588 C 188.4375 601.625 188.0625 609.25 187.6875 619.5 L 188.4375 620.375 C 197.4375 620 199.9375 619.875 210.0625 620 L 210.9375 619.125 M 208.9375 539.875 L 209.3125 522.875 L 208.5625 522.125 L 188.1875 524.625 L 187.4375 525.5 C 187.6875 530 187.8125 532.625 187.8125 535.625 C 187.8125 538 187.8125 540.5 187.6875 542.875 L 188.5625 543.625 C 197.0625 542.125 199.4375 541.875 208.3125 540.75 Z M 245.5625 553.125 L 244.5625 552 C 235.4375 554 232.8125 554.5 223.8125 555.625 L 223.0625 556.5 C 224.4375 571.375 224.9375 577.125 224.9375 613.125 C 224.9375 628 224.6875 636.5 224.3125 650.625 L 225.0625 651.25 C 233.9375 650.875 236.5625 650.75 246.0625 650.875 L 246.8125 650.25 L 245.9375 620.5 C 255.0625 620.375 267.6875 620.25 277.8125 610.75 C 285.8125 603.25 288.4375 592.625 288.4375 584.125 C 288.4375 564.25 276.3125 552.25 262.3125 552.25 C 253.6875 552.25 248.8125 555.75 245.3125 558.125 L 245.5625 553.125 M 245.8125 570.125 C 248.5625 568.5 250.1875 567.625 253.3125 567.625 C 255.1875 567.625 258.9375 567.875 262.0625 571.375 C 265.9375 575.625 266.5625 582 266.5625 586.25 C 266.5625 593.5 264.1875 600 259.1875 603.5 C 255.1875 606.25 250.1875 606.5 245.8125 606.625 Z M 322.3125 619.125 C 321.6875 604.75 321.0625 591.625 321.0625 552.125 C 321.0625 540.25 321.1875 534.625 321.6875 521.125 L 320.8125 520.25 L 299.4375 523.625 L 298.9375 524.375 C 300.1875 539.625 300.3125 543.75 300.5625 564 C 300.6875 571.375 300.6875 578.75 300.6875 586.125 C 300.6875 599.625 300.4375 607.125 299.9375 619.5 L 300.6875 620.375 C 309.0625 620 312.4375 619.875 321.5625 620 Z M 392.3125 601.5 C 387.5625 604 381.9375 606.875 372.8125 606.875 C 365.3125 606.875 360.1875 604.5 357.1875 600 C 355.3125 597.375 354.9375 594.875 354.4375 592.375 L 394.8125 591.625 L 395.5625 590.75 C 395.4375 584.625 395.3125 578.375 393.5625 572.125 C 389.1875 557.375 379.5625 554.375 375.3125 553.375 C 372.1875 552.5 369.3125 552.25 366.4375 552.25 C 346.8125 552.25 333.8125 565.125 333.8125 586.75 C 333.8125 592.625 334.8125 598.75 336.8125 603.125 C 344.0625 620 361.0625 621.5 370.0625 621.5 C 380.4375 621.5 384.9375 619.625 391.5625 617 L 392.3125 616 L 393.1875 601.875 L 392.3125 601.5 M 354.4375 579.125 C 354.8125 575.25 355.6875 570 360.4375 567 C 361.9375 566 363.6875 565.625 365.4375 565.625 C 369.5625 565.625 372.0625 567.75 373.4375 570 C 375.1875 572.75 375.3125 575.75 375.3125 578.625 Z M 462.9375 553.375 L 445.5625 553.75 L 444.5625 554.625 C 442.4375 563.25 441.9375 565.125 438.9375 574.875 L 435.6875 585.625 L 432.9375 595 L 430.5625 586.125 L 426.9375 572.875 L 421.9375 553.875 L 420.9375 553.125 C 411.1875 553.875 409.0625 554 398.8125 554.25 L 398.1875 555.125 C 402.6875 567 414.3125 598.375 422.0625 622.375 C 416.9375 635.375 415.9375 637.625 410.3125 650 L 410.9375 651 C 414.0625 650.875 417.5625 650.75 420.8125 650.75 C 423.9375 650.75 427.1875 650.875 430.3125 650.875 L 431.1875 650.125 C 438.0625 623.125 441.4375 612.625 457.9375 569.125 C 459.8125 564.125 461.6875 559.25 463.4375 554.375 Z M 522.0625 620 C 525.3125 620.125 528.6875 620.125 531.9375 620.125 C 545.9375 620.125 568.5625 619.625 577.6875 597.375 C 581.0625 589.125 581.8125 579.125 581.8125 573.5 C 581.8125 561.75 579.1875 552.75 576.0625 547.125 C 567.5625 531.625 551.4375 531.125 537.1875 531.125 C 531.4375 531.125 525.6875 531.375 519.9375 531.625 L 506.6875 531.75 L 505.9375 532.5 C 506.4375 544.5 506.9375 555 506.9375 589.625 C 506.9375 601.875 506.8125 609.25 506.5625 619.5 L 507.3125 620 L 522.0625 620 M 528.9375 603.875 C 528.6875 591.625 528.5625 580 528.5625 568 C 528.5625 561.25 528.5625 554.5 528.6875 547.75 C 531.1875 547.625 533.8125 547.5 536.3125 547.5 C 543.9375 547.5 558.8125 547.5 558.8125 574.125 C 558.8125 589.75 552.9375 596.75 549.9375 599.25 C 544.3125 603.875 535.6875 603.875 528.9375 603.875 Z M 650.0625 601.5 C 645.3125 604 639.6875 606.875 630.5625 606.875 C 623.0625 606.875 617.9375 604.5 614.9375 600 C 613.0625 597.375 612.6875 594.875 612.1875 592.375 L 652.5625 591.625 L 653.3125 590.75 C 653.1875 584.625 653.0625 578.375 651.3125 572.125 C 646.9375 557.375 637.3125 554.375 633.0625 553.375 C 629.9375 552.5 627.0625 552.25 624.1875 552.25 C 604.5625 552.25 591.5625 565.125 591.5625 586.75 C 591.5625 592.625 592.5625 598.75 594.5625 603.125 C 601.8125 620 618.8125 621.5 627.8125 621.5 C 638.1875 621.5 642.6875 619.625 649.3125 617 L 650.0625 616 L 650.9375 601.875 L 650.0625 601.5 M 612.1875 579.125 C 612.5625 575.25 613.4375 570 618.1875 567 C 619.6875 566 621.4375 565.625 623.1875 565.625 C 627.3125 565.625 629.8125 567.75 631.1875 570 C 632.9375 572.75 633.0625 575.75 633.0625 578.625 Z M 691.0625 576.875 C 686.8125 575.375 683.4375 574 683.4375 570.5 C 683.4375 569 684.4375 564.875 692.1875 564.875 C 699.8125 564.875 704.6875 568.125 707.8125 570.125 L 708.9375 569.75 L 710.1875 556.125 L 709.5625 555.375 C 703.6875 553.75 698.5625 552.25 690.4375 552.25 C 684.3125 552.25 672.0625 552.75 665.5625 562.125 C 663.9375 564.375 662.1875 568.125 662.1875 573.125 C 662.1875 586.5 672.5625 590.5 678.4375 592.75 L 683.1875 594.5 C 686.5625 595.625 692.0625 597.5 692.0625 602 C 692.0625 605.125 689.1875 608.5 682.1875 608.5 C 678.6875 608.5 673.5625 607.375 668.9375 605 C 666.8125 603.875 665.8125 603 663.9375 601.5 L 662.8125 602 C 662.5625 608.5 662.4375 609.875 661.9375 616.125 L 662.5625 617.25 C 668.6875 619.5 673.9375 621.5 683.0625 621.5 C 692.5625 621.5 711.3125 619.75 713.5625 601.875 C 713.6875 600.875 713.6875 600 713.6875 599.125 C 713.6875 585.375 704.0625 581.75 697.1875 579.125 Z M 780.1875 601.5 C 775.4375 604 769.8125 606.875 760.6875 606.875 C 753.1875 606.875 748.0625 604.5 745.0625 600 C 743.1875 597.375 742.8125 594.875 742.3125 592.375 L 782.6875 591.625 L 783.4375 590.75 C 783.3125 584.625 783.1875 578.375 781.4375 572.125 C 777.0625 557.375 767.4375 554.375 763.1875 553.375 C 760.0625 552.5 757.1875 552.25 754.3125 552.25 C 734.6875 552.25 721.6875 565.125 721.6875 586.75 C 721.6875 592.625 722.6875 598.75 724.6875 603.125 C 731.9375 620 748.9375 621.5 757.9375 621.5 C 768.3125 621.5 772.8125 619.625 779.4375 617 L 780.1875 616 L 781.0625 601.875 L 780.1875 601.5 M 742.3125 579.125 C 742.6875 575.25 743.5625 570 748.3125 567 C 749.8125 566 751.5625 565.625 753.3125 565.625 C 757.4375 565.625 759.9375 567.75 761.3125 570 C 763.0625 572.75 763.1875 575.75 763.1875 578.625 Z M 831.0625 573.625 L 834.5625 553.25 L 833.8125 552.375 C 832.9375 552.375 832.0625 552.25 831.1875 552.25 C 826.0625 552.25 820.3125 555.125 816.3125 564.375 L 816.6875 552.875 L 815.6875 551.875 C 806.4375 553.875 804.0625 554.25 794.9375 555.625 L 794.1875 556.375 C 794.9375 565.75 795.3125 571.375 795.3125 588.75 C 795.3125 599 795.1875 609.25 794.9375 619.625 L 795.6875 620.375 C 804.9375 620 806.9375 619.875 816.9375 620 L 817.5625 619.125 C 817.0625 609 816.3125 594.875 816.3125 586.25 C 816.3125 580.625 816.3125 572.375 824.8125 572.375 C 826.9375 572.375 828.1875 573.125 829.9375 574.125 Z M 876.8125 605.625 C 874.6875 606.25 873.1875 606.75 871.0625 606.75 C 864.6875 606.75 864.1875 602.75 863.9375 600.875 C 863.5625 597.625 863.5625 590.75 863.6875 585.75 L 863.9375 568.125 L 875.1875 568.625 L 875.9375 567.875 L 877.1875 554.5 L 876.4375 553.75 L 863.9375 553.75 L 864.3125 532.75 L 863.4375 532 C 854.9375 534.5 852.6875 535.125 843.8125 537.375 L 843.3125 538.25 L 843.4375 553.875 L 836.6875 553.625 L 835.9375 554.25 L 834.8125 567.625 L 835.5625 568.375 L 843.4375 568.125 L 843.0625 588 C 842.9375 591.125 842.8125 594.25 842.8125 597.5 C 842.8125 609 843.0625 621.375 862.5625 621.375 C 867.4375 621.375 871.3125 620.625 875.6875 619.875 L 876.5625 619 L 877.8125 606.125 Z M 878.5625 620 "/>
<path fill-rule="nonzero" fill="rgb(34.901961%, 14.901961%, 14.901961%)" fill-opacity="1" d="M 286.875 769.25 C 291.5 746.5 293.5 737 306.75 682.125 L 306.125 681.375 C 297.25 681.75 295.5 681.75 287.125 681.75 L 286.375 682.5 C 284.375 695.375 283.75 699.75 281 714.125 L 277.375 733.25 L 273.375 754.75 C 271.5 740.75 270.875 736.5 268.375 722 L 264.75 701 L 261.625 681.75 L 260.875 680.875 L 236.125 681.5 L 235.375 682.25 L 230.375 711 L 225.5 736.625 L 222.375 753.875 C 220.875 743 220.375 739.375 217.75 724.25 L 214.5 706 L 210.375 681.25 L 209.625 680.625 C 198.875 681.375 197.125 681.375 188 681.625 L 187.375 682.5 C 196.5 723.875 198.5 733.375 205.25 769.625 L 206 770.375 C 218.625 769.875 222 769.875 234.25 770 L 235.125 769.25 L 237.75 753.75 L 241.875 730.875 L 246.375 704.125 C 247.875 716.375 248.25 719.5 250.5 733 L 253.625 752.5 L 256.25 769.625 L 256.875 770.375 C 268.875 770 273 769.875 286.25 770 Z M 376.875 736.75 C 376.875 731.875 376.875 711.625 359.375 704.75 C 353.875 702.625 347.375 702.375 344.125 702.375 C 322.375 702.375 310.125 714 310.125 737 C 310.125 745 311.375 753.125 316 759.875 C 319.25 764.75 325.375 771.5 343.25 771.5 C 369.75 771.5 376.875 755.5 376.875 736.75 M 355.25 736.625 C 355.25 746.875 353.875 758.25 343.5 758.25 C 340.25 758.25 338 756.75 336.5 755.375 C 334.375 753.25 332 749 332 736.875 C 332 733.25 332 725.25 334.5 720.875 C 336.375 717.5 339.625 715.25 343.625 715.25 C 347.125 715.25 350 717.125 351.625 719.125 C 354.625 722.75 355.25 729.875 355.25 736.625 Z M 452.375 736.75 C 452.375 731.875 452.375 711.625 434.875 704.75 C 429.375 702.625 422.875 702.375 419.625 702.375 C 397.875 702.375 385.625 714 385.625 737 C 385.625 745 386.875 753.125 391.5 759.875 C 394.75 764.75 400.875 771.5 418.75 771.5 C 445.25 771.5 452.375 755.5 452.375 736.75 M 430.75 736.625 C 430.75 746.875 429.375 758.25 419 758.25 C 415.75 758.25 413.5 756.75 412 755.375 C 409.875 753.25 407.5 749 407.5 736.875 C 407.5 733.25 407.5 725.25 410 720.875 C 411.875 717.5 415.125 715.25 419.125 715.25 C 422.625 715.25 425.5 717.125 427.125 719.125 C 430.125 722.75 430.75 729.875 430.75 736.625 Z M 525.5 769.25 C 525 758 524.625 750.5 524.625 734.125 C 524.625 701.125 525.125 687.5 525.625 671 L 524.75 670.25 L 504.125 673.5 L 503.5 674.25 C 504.25 686 504.375 689.125 504.25 703.375 C 494.875 703.125 483.125 702.875 473.625 710.375 C 464.875 717.125 461.25 727.5 461.25 740.375 C 461.25 750.125 463.875 759.875 471.25 766 C 476.75 770.5 483.5 771.5 487.625 771.5 C 496.5 771.5 501.125 767.375 504.125 764.75 L 503.875 769.625 L 504.5 770.375 C 513.125 770 515.5 770 524.875 770 L 525.5 769.25 M 504.25 718.375 C 504.375 735 504.25 738.25 503.875 753.375 C 501.375 754.875 498.875 756.375 495.375 756.375 C 483.25 756.375 483.25 740.875 483.25 738.375 C 483.25 728.75 486 718 500 718 C 501.375 718 502.5 718.125 504.25 718.375 Z M 561.75 769.125 C 561.125 754.75 560.5 741.625 560.5 702.125 C 560.5 690.25 560.625 684.625 561.125 671.125 L 560.25 670.25 L 538.875 673.625 L 538.375 674.375 C 539.625 689.625 539.75 693.75 540 714 C 540.125 721.375 540.125 728.75 540.125 736.125 C 540.125 749.625 539.875 757.125 539.375 769.5 L 540.125 770.375 C 548.5 770 551.875 769.875 561 770 Z M 631.875 732.75 C 632 721.5 632 716.625 628.75 711.375 C 626.25 707.375 621.25 702.375 605.25 702.375 C 594.5 702.375 587.875 704.375 580.75 706.5 L 580 707.5 L 579.375 721.125 L 580.375 721.625 C 584.75 719.875 592.875 716.625 601.25 716.625 C 605.875 716.625 607.75 717.375 609.375 719 C 610.625 720.25 611 722.5 611 724.375 C 596 726.375 589 727.75 581.5 732.375 C 574.5 736.75 572.125 743.875 572.125 749.5 C 572.125 762.875 581.75 771.5 594 771.5 C 603.375 771.5 608.75 767 611.375 764.875 L 611.375 769.5 L 612.125 770.375 C 621.125 770 623.875 769.875 632 770 L 632.625 769.125 C 631.75 756.875 631.75 753.75 631.75 742 L 631.875 732.75 M 611.25 752.625 C 608.625 754.125 605.25 755.875 601.125 755.875 C 596.625 755.875 592.875 753.5 592.875 748.25 C 592.875 740 602.75 738.625 611.25 737.5 Z M 707.75 769.125 C 707.125 758.125 707.125 754.625 706.875 742.375 L 706.875 732.625 C 706.75 720.625 706.625 714.875 703.5 709.75 C 699.625 703.25 692.5 702.25 688 702.25 C 680.375 702.25 673.75 706.25 668 709.625 L 668.25 702.75 L 667 701.875 C 657.375 703.875 655.25 704.25 645.875 705.5 L 645.125 706.375 C 646.125 717.25 646.875 725.125 646.875 745.5 C 646.875 753.5 646.75 761.5 646.625 769.5 L 647.375 770.25 C 656.375 769.875 658.25 769.875 668.25 769.875 L 669 769.125 C 668.25 749.875 668.125 745 668 722.625 C 670.625 720.875 673.625 718.75 677.625 718.75 C 684.5 718.75 685.125 726.125 685.5 730.625 C 685.75 734.75 685.875 751.875 685.875 756.625 C 685.875 760.875 685.75 765.25 685.75 769.5 L 686.5 770.25 C 694.75 770 696.875 769.875 706.875 769.875 Z M 783.25 769.25 C 782.75 758 782.375 750.5 782.375 734.125 C 782.375 701.125 782.875 687.5 783.375 671 L 782.5 670.25 L 761.875 673.5 L 761.25 674.25 C 762 686 762.125 689.125 762 703.375 C 752.625 703.125 740.875 702.875 731.375 710.375 C 722.625 717.125 719 727.5 719 740.375 C 719 750.125 721.625 759.875 729 766 C 734.5 770.5 741.25 771.5 745.375 771.5 C 754.25 771.5 758.875 767.375 761.875 764.75 L 761.625 769.625 L 762.25 770.375 C 770.875 770 773.25 770 782.625 770 L 783.25 769.25 M 762 718.375 C 762.125 735 762 738.25 761.625 753.375 C 759.125 754.875 756.625 756.375 753.125 756.375 C 741 756.375 741 740.875 741 738.375 C 741 728.75 743.75 718 757.75 718 C 759.125 718 760.25 718.125 762 718.375 Z M 790 770 "/>
<path fill-rule="nonzero" fill="rgb(34.901961%, 14.901961%, 14.901961%)" fill-opacity="1" d="M 232.875 866.25 C 222.375 861.875 216.875 859.625 216.875 854 C 216.875 850.125 220.5 845.25 228.75 845.25 C 238.25 845.25 243.875 849.125 248.5 852.25 L 249.625 851.75 L 250.625 835.375 L 250 834.5 C 244.625 832.25 239 829.875 226.875 829.875 C 203.375 829.875 195.25 843.125 195.25 856.5 C 195.25 871.625 207 877.125 214 880.5 L 218.125 882.375 C 226.75 886 233.375 889.125 233.375 895.75 C 233.375 900.5 229.25 906.125 218.375 906.125 C 207 906.125 200.625 901.125 197 898.25 L 195.75 898.625 L 194.875 916.25 L 195.625 917.25 C 197 917.75 198.375 918.375 199.75 918.75 C 202.625 919.75 210 921.875 219.375 921.875 C 223.125 921.875 232.625 921.5 240.125 918 C 250.625 912.875 255.125 903.375 255.125 892.75 C 255.125 885.625 252.375 878 245.75 872.875 C 242.375 870.375 239.125 868.875 236.125 867.5 Z M 302 905.625 C 299.875 906.25 298.375 906.75 296.25 906.75 C 289.875 906.75 289.375 902.75 289.125 900.875 C 288.75 897.625 288.75 890.75 288.875 885.75 L 289.125 868.125 L 300.375 868.625 L 301.125 867.875 L 302.375 854.5 L 301.625 853.75 L 289.125 853.75 L 289.5 832.75 L 288.625 832 C 280.125 834.5 277.875 835.125 269 837.375 L 268.5 838.25 L 268.625 853.875 L 261.875 853.625 L 261.125 854.25 L 260 867.625 L 260.75 868.375 L 268.625 868.125 L 268.25 888 C 268.125 891.125 268 894.25 268 897.5 C 268 909 268.25 921.375 287.75 921.375 C 292.625 921.375 296.5 920.625 300.875 919.875 L 301.75 919 L 303 906.125 Z M 366.875 882.75 C 367 871.5 367 866.625 363.75 861.375 C 361.25 857.375 356.25 852.375 340.25 852.375 C 329.5 852.375 322.875 854.375 315.75 856.5 L 315 857.5 L 314.375 871.125 L 315.375 871.625 C 319.75 869.875 327.875 866.625 336.25 866.625 C 340.875 866.625 342.75 867.375 344.375 869 C 345.625 870.25 346 872.5 346 874.375 C 331 876.375 324 877.75 316.5 882.375 C 309.5 886.75 307.125 893.875 307.125 899.5 C 307.125 912.875 316.75 921.5 329 921.5 C 338.375 921.5 343.75 917 346.375 914.875 L 346.375 919.5 L 347.125 920.375 C 356.125 920 358.875 919.875 367 920 L 367.625 919.125 C 366.75 906.875 366.75 903.75 366.75 892 L 366.875 882.75 M 346.25 902.625 C 343.625 904.125 340.25 905.875 336.125 905.875 C 331.625 905.875 327.875 903.5 327.875 898.25 C 327.875 890 337.75 888.625 346.25 887.5 Z M 416.5 905.625 C 414.375 906.25 412.875 906.75 410.75 906.75 C 404.375 906.75 403.875 902.75 403.625 900.875 C 403.25 897.625 403.25 890.75 403.375 885.75 L 403.625 868.125 L 414.875 868.625 L 415.625 867.875 L 416.875 854.5 L 416.125 853.75 L 403.625 853.75 L 404 832.75 L 403.125 832 C 394.625 834.5 392.375 835.125 383.5 837.375 L 383 838.25 L 383.125 853.875 L 376.375 853.625 L 375.625 854.25 L 374.5 867.625 L 375.25 868.375 L 383.125 868.125 L 382.75 888 C 382.625 891.125 382.5 894.25 382.5 897.5 C 382.5 909 382.75 921.375 402.25 921.375 C 407.125 921.375 411 920.625 415.375 919.875 L 416.25 919 L 417.5 906.125 Z M 481.25 901.5 C 476.5 904 470.875 906.875 461.75 906.875 C 454.25 906.875 449.125 904.5 446.125 900 C 444.25 897.375 443.875 894.875 443.375 892.375 L 483.75 891.625 L 484.5 890.75 C 484.375 884.625 484.25 878.375 482.5 872.125 C 478.125 857.375 468.5 854.375 464.25 853.375 C 461.125 852.5 458.25 852.25 455.375 852.25 C 435.75 852.25 422.75 865.125 422.75 886.75 C 422.75 892.625 423.75 898.75 425.75 903.125 C 433 920 450 921.5 459 921.5 C 469.375 921.5 473.875 919.625 480.5 917 L 481.25 916 L 482.125 901.875 L 481.25 901.5 M 443.375 879.125 C 443.75 875.25 444.625 870 449.375 867 C 450.875 866 452.625 865.625 454.375 865.625 C 458.5 865.625 461 867.75 462.375 870 C 464.125 872.75 464.25 875.75 464.25 878.625 Z M 549.25 831.5 L 533.375 831.75 L 532.625 832.5 C 533.125 848.75 533.5 859.625 533.5 874 C 533.5 889.25 533.125 904.375 532.75 919.625 L 533.5 920.375 C 542.75 920 544.75 919.875 554.75 920 L 555.375 919.25 C 554.875 905.625 554.875 902.5 554.875 889.75 C 568.875 889.875 583.875 889.875 592.875 878.875 C 596.375 874.625 599.375 867.5 599.375 858.75 C 599.375 853.375 598.125 841.5 587.75 835.625 C 580.25 831.25 569.625 831.25 560.25 831.25 L 549.25 831.5 M 554.875 846.625 C 557.625 846.5 560.25 846.5 563 846.5 C 574 846.75 577 852.375 577 859.625 C 577 861.375 577 868.625 570.375 872.25 C 567 874.125 562.375 874.375 554.875 874.375 Z M 663.625 882.75 C 663.75 871.5 663.75 866.625 660.5 861.375 C 658 857.375 653 852.375 637 852.375 C 626.25 852.375 619.625 854.375 612.5 856.5 L 611.75 857.5 L 611.125 871.125 L 612.125 871.625 C 616.5 869.875 624.625 866.625 633 866.625 C 637.625 866.625 639.5 867.375 641.125 869 C 642.375 870.25 642.75 872.5 642.75 874.375 C 627.75 876.375 620.75 877.75 613.25 882.375 C 606.25 886.75 603.875 893.875 603.875 899.5 C 603.875 912.875 613.5 921.5 625.75 921.5 C 635.125 921.5 640.5 917 643.125 914.875 L 643.125 919.5 L 643.875 920.375 C 652.875 920 655.625 919.875 663.75 920 L 664.375 919.125 C 663.5 906.875 663.5 903.75 663.5 892 L 663.625 882.75 M 643 902.625 C 640.375 904.125 637 905.875 632.875 905.875 C 628.375 905.875 624.625 903.5 624.625 898.25 C 624.625 890 634.5 888.625 643 887.5 Z M 714.375 873.625 L 717.875 853.25 L 717.125 852.375 C 716.25 852.375 715.375 852.25 714.5 852.25 C 709.375 852.25 703.625 855.125 699.625 864.375 L 700 852.875 L 699 851.875 C 689.75 853.875 687.375 854.25 678.25 855.625 L 677.5 856.375 C 678.25 865.75 678.625 871.375 678.625 888.75 C 678.625 899 678.5 909.25 678.25 919.625 L 679 920.375 C 688.25 920 690.25 919.875 700.25 920 L 700.875 919.125 C 700.375 909 699.625 894.875 699.625 886.25 C 699.625 880.625 699.625 872.375 708.125 872.375 C 710.25 872.375 711.5 873.125 713.25 874.125 Z M 789.375 918.375 C 777.625 898.5 776.375 896.25 766.875 879.125 C 775.5 867.375 776.375 866.125 785.25 854.75 L 784.625 853.5 L 764.25 853.75 L 763 854.625 C 753.25 871.5 752 873.5 746.25 882.125 L 746.25 868.25 C 746.375 844.875 746.5 839.875 747.125 821 L 746.125 820.25 L 724.375 823.5 L 723.625 824.375 C 724.5 836.5 724.875 842.375 725.125 858.75 C 725.375 879 725.375 899.25 725.25 919.5 L 726.125 920.375 C 734.5 920 736.875 920 746.375 920 L 747.125 919.125 L 746.375 898 L 746.25 883.625 C 757.125 903.625 758.5 906.375 764.875 919.625 L 766 920.375 L 788.5 919.5 Z M 787.875 920 "/>
</svg>
