<svg xmlns="http://www.w3.org/2000/svg" width="612" height="817" viewBox="0 0 612 817">
  <defs>
    <style>
      .cls-1 {
        fill: #592626;
        fill-rule: evenodd;
      }
    </style>
  </defs>
  <path id="Verdugo_Mountains_Park_Property" data-name="Verdugo Mountains Park Property" class="cls-1" d="M189.6,343.521c3.344-14.077,4.51-18.121,15.088-54.208l-0.389-.389c-5.833.233-7.389,0.233-12.055,0.233l-0.467.467c-1.478,7.622-1.866,9.644-4.044,18.277l-2.489,10.188L181.9,332.477l-4.122-18.354-1.633-7c-1.945-8.011-2.489-10.655-4.122-18.2l-0.467-.389c-6.455.467-7.855,0.545-13.922,0.545l-0.388.466c5.21,17.966,9.877,34.454,12.521,44.72q1.167,4.783,2.333,9.566l0.467,0.467c6.766-.233,8.477-0.311,16.566-0.233Zm48.377-10.966a23.766,23.766,0,0,1-12.133,3.345c-4.666,0-7.855-1.478-9.722-4.278a11.014,11.014,0,0,1-1.711-4.744l25.121-.467,0.467-.544a45.651,45.651,0,0,0-1.244-11.589c-2.722-9.177-8.711-11.044-11.355-11.666a19.943,19.943,0,0,0-5.522-.7c-12.211,0-20.3,8.011-20.3,21.466a25.891,25.891,0,0,0,1.866,10.188c4.511,10.5,15.088,11.433,20.688,11.433,6.455,0,9.255-1.167,13.377-2.8l0.467-.622,0.544-8.788ZM214.41,318.634c0.234-2.411.778-5.678,3.734-7.544a5.968,5.968,0,0,1,8.088,1.866,9.5,9.5,0,0,1,1.167,5.367Zm55.222-3.422,2.178-12.678-0.467-.544c-0.544,0-1.089-.078-1.633-0.078-3.189,0-6.767,1.789-9.255,7.544l0.233-7.155-0.622-.622c-5.755,1.244-7.233,1.478-12.911,2.333l-0.466.467c0.466,5.833.7,9.333,0.7,20.143,0,6.378-.078,12.755-0.234,19.21l0.467,0.467c5.755-.233,7-0.311,13.222-0.233l0.388-.545c-0.311-6.3-.777-15.088-0.777-20.454,0-3.5,0-8.633,5.288-8.633a5.826,5.826,0,0,1,3.189,1.089Zm44.8,28.387c-0.311-7-.544-11.666-0.544-21.854,0-20.533.311-29.01,0.622-39.276L313.965,282l-12.833,2.022-0.389.467c0.467,7.311.544,9.255,0.467,18.121-5.833-.155-13.144-0.311-19.055,4.356-5.444,4.2-7.7,10.655-7.7,18.665,0,6.067,1.634,12.133,6.222,15.944A16.4,16.4,0,0,0,290.866,345a14.246,14.246,0,0,0,10.266-4.2l-0.156,3.033,0.389,0.467c5.367-.233,6.844-0.233,12.677-0.233ZM301.21,311.945c0.077,10.344,0,12.366-.234,21.777a9.836,9.836,0,0,1-5.288,1.866c-7.544,0-7.544-9.644-7.544-11.2,0-5.989,1.711-12.677,10.421-12.677A17.485,17.485,0,0,1,301.21,311.945Zm59.421-9.488-12.677.622-0.544.467c0.544,8.788.544,21.232,0.544,22.476,0,2.256,0,3.5-.078,6.611-2.1,1.4-3.733,2.567-5.833,2.567-5.6,0-5.6-5.911-5.6-10.5,0-1.944,0-3.966.077-5.911l0.156-15.71-0.544-.622-12.833.622-0.545.467c0.467,6.533.545,8.71,0.545,16.565v5.445c-0.078,8.477.311,12.055,3.111,15.321A13.317,13.317,0,0,0,336.6,345c5.522,0,8.711-2.489,11.511-4.666l-0.078,3.5,0.544,0.467c5.678-.233,7.389-0.233,12.444-0.233l0.467-.467c-0.389-5.522-.545-8.477-0.545-18.588q0-10.967.234-21.932Zm23.957,28.465a21.831,21.831,0,0,0,8.711-1.011c4.044-1.4,9.955-4.744,9.955-12.288a10.175,10.175,0,0,0-2.1-6.767l5.366,0.311,0.467-.388L407.531,303l-0.466-.389c-5.989.234-7.622,0.311-12.522,0.234l-3.578-.078c-5.522-.156-12.91-0.311-17.965,3.888a13.051,13.051,0,0,0-4.978,10.5,12.593,12.593,0,0,0,2.256,7.544,13.347,13.347,0,0,0,5.21,4.355c-2.177,4.2-3.344,6.3-5.133,9.489v0.7l3.267,2.333c-2.333,1.789-5.989,4.744-5.989,9.8a10.966,10.966,0,0,0,4.822,8.788c4.356,3.111,10.266,3.267,13.3,3.267,14.232,0,20.765-7.156,20.765-14.7,0-9.8-8.555-11.666-13.61-12.832l-1.867-.312a32.676,32.676,0,0,1-7.7-1.944Zm6.377-14c-0.077,6.3-3.888,6.844-4.977,6.844a5.035,5.035,0,0,1-4.667-3.267,10.729,10.729,0,0,1-.7-4.044c0-3.889,2.333-6.377,5.21-6.377C389.41,310.079,391.043,313.5,390.965,316.923Zm-6.61,29.009c6.922,1.789,7,1.789,7.933,2.567a3.43,3.43,0,0,1,1.555,3.033c0,2.333-1.944,4.744-7.077,4.744-5.756,0-7.7-3.266-7.7-5.988a7.387,7.387,0,0,1,2.255-5.133Zm67.665-22.554c0-3.033,0-15.633-10.888-19.91a27.961,27.961,0,0,0-9.489-1.478c-13.532,0-21.154,7.233-21.154,21.543,0,4.978.777,10.033,3.655,14.233C416.166,340.8,419.977,345,431.1,345,447.587,345,452.02,335.044,452.02,323.378Zm-13.455-.078c0,6.378-.855,13.455-7.311,13.455a6.288,6.288,0,0,1-4.355-1.789c-1.322-1.322-2.8-3.966-2.8-11.51,0-2.256,0-7.233,1.556-9.955a6.439,6.439,0,0,1,5.677-3.5,6.538,6.538,0,0,1,4.978,2.411C438.176,314.667,438.565,319.1,438.565,323.3ZM83.236,382.257c-8.088.234-9.411,0.234-18.044,0.234l-0.467.466-3.578,12.6-3.111,11.277-3.655,13.533L50.96,406.445l-2.178-8.788-3.889-14.933-0.389-.467c-8.322.234-9.722,0.234-18.432,0.234l-0.467.466c-0.778,23.255-1.089,29.243-2.8,54.209l0.389,0.466c4.978-.233,6.455-0.311,10.966-0.233l0.467-.467,0.233-14.854,0.467-15.089,0.311-14.7,3.422,13.766L42.016,417.1l5.211,20.066,0.467,0.466c4.822-.233,6.144-0.311,11.588-0.233l0.467-.467,4.511-16.565,3.111-11.355,4.355-16.333V406.6l0.155,11.9v18.666l0.389,0.466c5.366-.233,7.466-0.311,13.455-0.233l0.389-.467c-0.467-8.866-1.011-17.81-1.322-26.754-0.233-4.9-.389-9.8-0.622-14.7-0.389-7.233-.467-8.166-0.467-12.755Zm51.256,34.454c0-3.033,0-15.632-10.888-19.91a27.956,27.956,0,0,0-9.488-1.478c-13.533,0-21.155,7.233-21.155,21.544,0,4.977.778,10.033,3.655,14.232,2.022,3.034,5.833,7.233,16.955,7.233C130.059,438.332,134.492,428.377,134.492,416.711Zm-13.455-.078c0,6.378-.855,13.455-7.31,13.455a6.3,6.3,0,0,1-4.356-1.788c-1.322-1.323-2.8-3.967-2.8-11.511,0-2.255,0-7.233,1.556-9.955a6.441,6.441,0,0,1,5.677-3.5,6.541,6.541,0,0,1,4.978,2.411C120.649,408,121.037,412.434,121.037,416.633Zm58.178-20.843-12.677.622-0.545.467c0.545,8.788.545,21.232,0.545,22.477,0,2.255,0,3.5-.078,6.61-2.1,1.4-3.733,2.567-5.833,2.567-5.6,0-5.6-5.911-5.6-10.5,0-1.944,0-3.966.078-5.91l0.155-15.711-0.544-.622-12.833.622-0.544.467c0.466,6.533.544,8.711,0.544,16.566v5.444c-0.078,8.477.311,12.055,3.111,15.321a13.32,13.32,0,0,0,10.188,4.122c5.522,0,8.711-2.488,11.511-4.666l-0.078,3.5,0.545,0.466c5.677-.233,7.388-0.233,12.444-0.233l0.466-.467c-0.389-5.521-.544-8.477-0.544-18.588q0-10.965.233-21.932Zm47.755,41.065c-0.389-6.844-.389-9.022-0.544-16.644v-6.066c-0.078-7.467-.156-11.044-2.1-14.233-2.411-4.044-6.844-4.666-9.644-4.666-4.744,0-8.866,2.488-12.444,4.588l0.156-4.277-0.778-.545c-5.989,1.245-7.311,1.478-13.144,2.256l-0.467.544a216.123,216.123,0,0,1,1.089,24.343c0,4.978-.078,9.955-0.155,14.933l0.466,0.467c5.6-.234,6.767-0.234,12.989-0.234l0.466-.466c-0.466-11.977-.544-15.011-0.622-28.932,1.633-1.089,3.5-2.411,5.989-2.411,4.277,0,4.666,4.588,4.9,7.388,0.156,2.567.234,13.222,0.234,16.177,0,2.645-.078,5.367-0.078,8.011l0.467,0.467c5.133-.156,6.455-0.234,12.677-0.234Zm30.645-8.4a11.669,11.669,0,0,1-3.577.7c-3.967,0-4.278-2.489-4.433-3.655a88.88,88.88,0,0,1-.156-9.411l0.156-10.966,7,0.311,0.467-.467,0.778-8.321-0.467-.467h-7.777l0.233-13.066-0.544-.467c-5.289,1.556-6.689,1.945-12.211,3.344l-0.311.545,0.078,9.722-4.2-.156-0.467.389-0.7,8.322,0.467,0.466,4.9-.155-0.234,12.366c-0.077,1.944-.155,3.889-0.155,5.911,0,7.155.155,14.855,12.288,14.855a45.168,45.168,0,0,0,8.166-.934l0.545-.544,0.778-8.011Zm40.366-14.233c0.078-7,.078-10.032-1.944-13.3-1.555-2.489-4.666-5.6-14.621-5.6a47.335,47.335,0,0,0-15.244,2.567l-0.467.622-0.389,8.477,0.623,0.312c2.722-1.089,7.777-3.111,12.988-3.111,2.877,0,4.044.466,5.055,1.477a4.9,4.9,0,0,1,1.011,3.345c-9.333,1.244-13.688,2.1-18.354,4.977a12.436,12.436,0,0,0-5.834,10.655c0,8.322,5.989,13.688,13.611,13.688a16.079,16.079,0,0,0,10.811-4.122v2.878l0.466,0.544c5.6-.233,7.311-0.311,12.366-0.233l0.389-.544c-0.544-7.622-.544-9.567-0.544-16.877Zm-12.832,12.367a12.6,12.6,0,0,1-6.3,2.022c-2.8,0-5.133-1.478-5.133-4.745,0-5.133,6.144-5.988,11.433-6.688v9.411Zm36.011,10.266c-0.389-5.989-.7-10.578-0.7-21.31,0-6.611.156-13.3,0.234-19.911l-0.545-.622-13.377,2.333-0.467.467c0.623,5.911.856,8.633,0.856,19.677,0,8.477-.233,13.222-0.467,19.6l0.467,0.544c5.6-.233,7.155-0.311,13.455-0.233Zm-1.244-49.309,0.233-10.577-0.466-.467-12.678,1.556-0.466.544c0.155,2.8.233,4.433,0.233,6.3,0,1.477,0,3.033-.078,4.511l0.545,0.466c5.288-.933,6.766-1.089,12.288-1.789ZM367.9,436.855c-0.389-6.844-.389-9.022-0.545-16.644v-6.066c-0.078-7.467-.155-11.044-2.1-14.233-2.411-4.044-6.844-4.666-9.644-4.666-4.744,0-8.866,2.488-12.444,4.588l0.156-4.277-0.778-.545c-5.988,1.245-7.311,1.478-13.144,2.256l-0.466.544a216.367,216.367,0,0,1,1.089,24.343c0,4.978-.078,9.955-0.156,14.933l0.467,0.467c5.6-.234,6.766-0.234,12.988-0.234l0.467-.466c-0.467-11.977-.545-15.011-0.623-28.932,1.634-1.089,3.5-2.411,5.989-2.411,4.278,0,4.666,4.588,4.9,7.388,0.155,2.567.233,13.222,0.233,16.177,0,2.645-.078,5.367-0.078,8.011l0.467,0.467c5.133-.156,6.455-0.234,12.677-0.234Zm25.2-26.288c-2.645-.933-4.745-1.789-4.745-3.966,0-.934.623-3.5,5.445-3.5a16.875,16.875,0,0,1,9.721,3.266l0.7-.233L405,397.657l-0.389-.467a39.608,39.608,0,0,0-11.9-1.944c-3.811,0-11.433.311-15.477,6.144a11.691,11.691,0,0,0-2.1,6.844c0,8.322,6.455,10.81,10.11,12.21l2.956,1.089c2.1,0.7,5.522,1.867,5.522,4.667,0,1.944-1.789,4.044-6.144,4.044a19.454,19.454,0,0,1-8.244-2.178,17.161,17.161,0,0,1-3.111-2.177l-0.7.311c-0.156,4.044-.234,4.9-0.545,8.788l0.389,0.7c3.811,1.4,7.078,2.644,12.755,2.644,5.911,0,17.577-1.088,18.977-12.21a13.146,13.146,0,0,0,.078-1.711c0-8.555-5.989-10.811-10.267-12.444Zm54.055-28.232-9.877.156-0.467.466c0.312,10.111.545,16.877,0.545,25.821,0,9.489-.233,18.9-0.467,28.388l0.467,0.466c5.755-.233,7-0.311,13.221-0.233l0.389-.467c-0.311-8.477-.311-10.421-0.311-18.354,8.711,0.078,18.044.078,23.644-6.767a19.991,19.991,0,0,0,4.044-12.521c0-3.344-.778-10.733-7.233-14.388-4.667-2.722-11.277-2.722-17.11-2.722Zm3.5,9.411c1.711-.078,3.345-0.078,5.056-0.078,6.844,0.156,8.71,3.655,8.71,8.166,0,1.089,0,5.6-4.122,7.855-2.1,1.167-4.977,1.323-9.644,1.323V391.746Zm66.11,22.476c0.078-7,.078-10.032-1.944-13.3-1.555-2.489-4.666-5.6-14.622-5.6a47.333,47.333,0,0,0-15.243,2.567l-0.467.622-0.389,8.477,0.622,0.312c2.723-1.089,7.778-3.111,12.989-3.111,2.877,0,4.044.466,5.055,1.477a4.9,4.9,0,0,1,1.011,3.345c-9.333,1.244-13.688,2.1-18.355,4.977a12.437,12.437,0,0,0-5.833,10.655c0,8.322,5.989,13.688,13.611,13.688a16.074,16.074,0,0,0,10.81-4.122v2.878l0.467,0.544c5.6-.233,7.311-0.311,12.366-0.233l0.389-.544c-0.544-7.622-.544-9.567-0.544-16.877Zm-12.832,12.367a12.6,12.6,0,0,1-6.3,2.022c-2.8,0-5.133-1.478-5.133-4.745,0-5.133,6.144-5.988,11.433-6.688v9.411Zm44.411-18.044,2.177-12.677-0.466-.545c-0.545,0-1.089-.077-1.634-0.077-3.188,0-6.766,1.788-9.255,7.544l0.234-7.156-0.623-.622c-5.755,1.245-7.233,1.478-12.91,2.333l-0.467.467c0.467,5.833.7,9.333,0.7,20.144,0,6.377-.077,12.755-0.233,19.21l0.467,0.466c5.755-.233,7-0.311,13.221-0.233l0.389-.544c-0.311-6.3-.778-15.088-0.778-20.455,0-3.5,0-8.633,5.289-8.633a5.826,5.826,0,0,1,3.189,1.089Zm46.666,27.843c-7.311-12.366-8.089-13.766-14-24.421,5.367-7.311,5.911-8.088,11.433-15.166l-0.389-.778-12.677.156-0.778.544c-6.066,10.5-6.844,11.744-10.422,17.111V405.2c0.078-14.544.156-17.655,0.545-29.4l-0.622-.467-13.533,2.023-0.467.544c0.545,7.544.778,11.2,0.934,21.388,0.155,12.6.155,25.2,0.077,37.8l0.545,0.544c5.211-.233,6.688-0.233,12.6-0.233l0.467-.544-0.467-13.144-0.078-8.944c6.767,12.444,7.622,14.155,11.589,22.4l0.7,0.466,14-.544Zm-428.943,39.28-9.878.156-0.466.467c0.311,10.11.544,16.877,0.544,25.821,0,9.488-.233,18.9-0.467,28.387l0.467,0.467c5.755-.234,7-0.311,13.222-0.234l0.388-.466c-0.311-8.478-.311-10.422-0.311-18.355,8.711,0.078,18.044.078,23.644-6.766a20,20,0,0,0,4.044-12.522c0-3.344-.778-10.733-7.233-14.388-4.667-2.722-11.277-2.722-17.11-2.722Zm3.5,9.411c1.711-.078,3.345-0.078,5.056-0.078,6.844,0.156,8.71,3.656,8.71,8.167,0,1.088,0,5.6-4.122,7.855-2.1,1.166-4.977,1.322-9.644,1.322V485.079Zm55.533,16.8,2.178-12.677-0.467-.544c-0.544,0-1.089-.078-1.633-0.078-3.189,0-6.766,1.789-9.255,7.544l0.233-7.155-0.622-.622c-5.755,1.244-7.233,1.477-12.91,2.333l-0.467.466c0.467,5.834.7,9.333,0.7,20.144,0,6.377-.078,12.755-0.233,19.21l0.466,0.467c5.755-.234,7-0.311,13.222-0.234l0.389-.544c-0.311-6.3-.778-15.088-0.778-20.455,0-3.5,0-8.632,5.289-8.632a5.821,5.821,0,0,1,3.188,1.088Zm46.277,8.167c0-3.034,0-15.633-10.888-19.911A27.953,27.953,0,0,0,251,488.657c-13.532,0-21.154,7.233-21.154,21.543,0,4.978.778,10.033,3.655,14.233,2.022,3.033,5.833,7.233,16.955,7.233C266.948,531.666,271.381,521.711,271.381,510.045Zm-13.455-.078c0,6.377-.855,13.455-7.31,13.455a6.293,6.293,0,0,1-4.356-1.789c-1.322-1.322-2.8-3.967-2.8-11.511,0-2.255,0-7.233,1.556-9.955a6.44,6.44,0,0,1,5.677-3.5,6.541,6.541,0,0,1,4.978,2.411C257.537,501.334,257.926,505.767,257.926,509.967Zm33.756-20.844-0.622-.7a109.43,109.43,0,0,1-12.91,2.256l-0.467.544c0.856,9.255,1.167,12.833,1.167,35.232,0,9.255-.156,14.544-0.389,23.332l0.467,0.389c5.522-.233,7.155-0.311,13.066-0.233l0.466-.389-0.544-18.51c5.677-.078,13.532-0.156,19.832-6.067,4.978-4.666,6.611-11.277,6.611-16.566,0-12.366-7.544-19.832-16.255-19.832a17.118,17.118,0,0,0-10.577,3.655Zm0.156,10.578a8,8,0,0,1,4.666-1.556,6.971,6.971,0,0,1,5.445,2.333c2.411,2.645,2.8,6.611,2.8,9.255,0,4.511-1.478,8.556-4.589,10.733-2.489,1.711-5.6,1.867-8.322,1.945V499.7Zm68.443,19.521a23.772,23.772,0,0,1-12.132,3.344c-4.667,0-7.855-1.478-9.722-4.277a11,11,0,0,1-1.711-4.745l25.121-.466,0.467-.545a45.6,45.6,0,0,0-1.245-11.588c-2.722-9.177-8.711-11.044-11.355-11.666a19.9,19.9,0,0,0-5.522-.7c-12.21,0-20.3,8.011-20.3,21.466a25.873,25.873,0,0,0,1.867,10.188c4.511,10.5,15.088,11.433,20.688,11.433,6.455,0,9.255-1.167,13.377-2.8l0.466-.622,0.545-8.789ZM336.716,505.3c0.233-2.411.778-5.677,3.733-7.544a5.971,5.971,0,0,1,8.089,1.867,9.507,9.507,0,0,1,1.166,5.366Zm55.222-3.422,2.177-12.677-0.466-.544c-0.545,0-1.089-.078-1.634-0.078-3.188,0-6.766,1.789-9.255,7.544l0.234-7.155-0.623-.622c-5.755,1.244-7.233,1.477-12.91,2.333l-0.467.466c0.467,5.834.7,9.333,0.7,20.144,0,6.377-.078,12.755-0.233,19.21l0.467,0.467c5.755-.234,7-0.311,13.221-0.234l0.389-.544c-0.311-6.3-.778-15.088-0.778-20.455,0-3.5,0-8.632,5.289-8.632a5.825,5.825,0,0,1,3.189,1.088Zm30.1,19.91a11.68,11.68,0,0,1-3.578.7c-3.966,0-4.278-2.488-4.433-3.655a89.421,89.421,0,0,1-.156-9.411l0.156-10.966,7,0.311,0.466-.466,0.778-8.322-0.467-.467h-7.777l0.233-13.066-0.544-.466c-5.289,1.555-6.689,1.944-12.211,3.344l-0.311.544,0.078,9.722-4.2-.156-0.467.389-0.7,8.322,0.466,0.467,4.9-.156-0.233,12.366c-0.078,1.945-.156,3.889-0.156,5.911,0,7.155.156,14.855,12.288,14.855a45.26,45.26,0,0,0,8.167-.933l0.544-.545,0.778-8.01Zm40.521-32.509-10.81.233-0.623.545c-1.322,5.366-1.633,6.533-3.5,12.6l-2.023,6.689-1.711,5.833-1.477-5.522-2.256-8.244-3.111-11.822-0.622-.467c-6.066.467-7.388,0.545-13.766,0.7l-0.389.545c2.8,7.388,10.033,26.91,14.855,41.842-3.189,8.089-3.811,9.489-7.311,17.188l0.389,0.622c1.945-.077,4.122-0.155,6.144-0.155,1.945,0,3.967.078,5.911,0.078l0.545-.467c4.277-16.8,6.377-23.332,16.643-50.4,1.167-3.111,2.333-6.144,3.422-9.177Z"/>
</svg>
