<svg xmlns="http://www.w3.org/2000/svg" width="612" height="817" viewBox="0 0 612 817">
  <defs>
    <style>
      .cls-1 {
        fill: #592626;
        fill-rule: evenodd;
      }
    </style>
  </defs>
  <path id="Mount_San_Jacinto_State_Park" data-name="Mount San Jacinto State Park" class="cls-1" d="M172.369,289.924c-8.088.233-9.411,0.233-18.043,0.233l-0.467.467-3.578,12.6L147.17,314.5l-3.655,13.532-3.422-13.921-2.178-8.789-3.888-14.932-0.389-.467c-8.322.233-9.722,0.233-18.433,0.233l-0.466.467c-0.778,23.254-1.089,29.243-2.8,54.208l0.389,0.467c4.977-.233,6.455-0.311,10.966-0.233l0.466-.467,0.234-14.855,0.466-15.088,0.311-14.7,3.422,13.766,2.956,11.044,5.211,20.065,0.466,0.467c4.822-.233,6.145-0.311,11.589-0.233l0.466-.467,4.511-16.566,3.111-11.355,4.356-16.332v13.921l0.155,11.9v18.665L161.4,345.3c5.366-.233,7.466-0.311,13.455-0.233l0.389-.467c-0.467-8.866-1.011-17.81-1.322-26.754-0.234-4.9-.389-9.8-0.623-14.7-0.388-7.233-.466-8.167-0.466-12.755Zm51.257,34.454c0-3.033,0-15.633-10.889-19.91a27.956,27.956,0,0,0-9.488-1.478c-13.533,0-21.155,7.233-21.155,21.543,0,4.978.778,10.033,3.656,14.233C187.772,341.8,191.583,346,202.7,346,219.193,346,223.626,336.044,223.626,324.378Zm-13.455-.078c0,6.378-.856,13.455-7.311,13.455a6.288,6.288,0,0,1-4.355-1.789c-1.323-1.322-2.8-3.966-2.8-11.51,0-2.256,0-7.233,1.555-9.955a6.442,6.442,0,0,1,5.678-3.5,6.538,6.538,0,0,1,4.977,2.411C209.782,315.667,210.171,320.1,210.171,324.3Zm58.177-20.843-12.677.622-0.545.467c0.545,8.788.545,21.232,0.545,22.476,0,2.256,0,3.5-.078,6.611-2.1,1.4-3.733,2.567-5.833,2.567-5.6,0-5.6-5.911-5.6-10.5,0-1.944,0-3.966.078-5.911l0.156-15.71-0.545-.622-12.833.622-0.544.467c0.467,6.533.544,8.71,0.544,16.565v5.445c-0.077,8.477.312,12.055,3.111,15.321A13.32,13.32,0,0,0,244.316,346c5.522,0,8.711-2.489,11.51-4.666l-0.077,3.5,0.544,0.467c5.678-.233,7.389-0.233,12.444-0.233l0.467-.467c-0.389-5.522-.545-8.477-0.545-18.588q0-10.967.233-21.932ZM316.1,344.521c-0.389-6.844-.389-9.021-0.545-16.643v-6.067c-0.078-7.466-.155-11.044-2.1-14.232-2.411-4.045-6.844-4.667-9.644-4.667-4.744,0-8.866,2.489-12.444,4.589l0.156-4.278-0.778-.544c-5.988,1.244-7.311,1.478-13.144,2.255l-0.466.545a216.367,216.367,0,0,1,1.089,24.343c0,4.978-.078,9.955-0.156,14.933l0.467,0.466c5.6-.233,6.766-0.233,12.988-0.233l0.467-.467c-0.467-11.977-.545-15.01-0.623-28.932,1.634-1.088,3.5-2.411,5.989-2.411,4.278,0,4.666,4.589,4.9,7.389,0.155,2.567.233,13.222,0.233,16.177,0,2.644-.078,5.366-0.078,8.011l0.467,0.466c5.133-.155,6.455-0.233,12.677-0.233Zm30.645-8.4a11.675,11.675,0,0,1-3.578.7c-3.966,0-4.277-2.489-4.433-3.656a89.4,89.4,0,0,1-.156-9.41l0.156-10.966,7,0.311,0.466-.467,0.778-8.322-0.467-.466h-7.777l0.233-13.066-0.544-.467c-5.289,1.555-6.689,1.944-12.211,3.344l-0.311.545,0.078,9.721-4.2-.155-0.466.389-0.7,8.321,0.466,0.467,4.9-.155-0.233,12.366c-0.078,1.944-.156,3.888-0.156,5.91,0,7.156.156,14.855,12.288,14.855a45.17,45.17,0,0,0,8.167-.933l0.544-.544,0.778-8.011Zm50.944-24.5c-6.533-2.722-9.955-4.122-9.955-7.622,0-2.411,2.255-5.444,7.389-5.444,5.91,0,9.41,2.411,12.288,4.355l0.7-.311,0.622-10.188-0.389-.545a31.857,31.857,0,0,0-14.388-2.877c-14.622,0-19.677,8.244-19.677,16.566,0,9.41,7.311,12.832,11.666,14.932l2.567,1.167c5.366,2.255,9.488,4.2,9.488,8.322,0,2.955-2.566,6.455-9.333,6.455a19.839,19.839,0,0,1-13.3-4.9l-0.778.233-0.544,10.967,0.466,0.622c0.856,0.311,1.711.7,2.567,0.933a38.747,38.747,0,0,0,12.211,1.944c2.333,0,8.244-.233,12.91-2.411,6.533-3.188,9.333-9.1,9.333-15.71a15.415,15.415,0,0,0-5.833-12.366,31.446,31.446,0,0,0-5.989-3.344Zm55.844,10.266c0.078-7,.078-10.033-1.944-13.3-1.556-2.489-4.667-5.6-14.622-5.6a47.318,47.318,0,0,0-15.244,2.567l-0.466.622-0.389,8.477,0.622,0.311c2.722-1.089,7.777-3.111,12.988-3.111,2.878,0,4.045.467,5.056,1.478a4.908,4.908,0,0,1,1.011,3.344c-9.333,1.245-13.688,2.1-18.355,4.978a12.437,12.437,0,0,0-5.833,10.655c0,8.322,5.989,13.688,13.61,13.688a16.079,16.079,0,0,0,10.811-4.122v2.878l0.467,0.544c5.6-.233,7.31-0.311,12.366-0.233l0.389-.545c-0.545-7.621-.545-9.566-0.545-16.877ZM440.7,334.255a12.6,12.6,0,0,1-6.3,2.022c-2.8,0-5.134-1.477-5.134-4.744,0-5.133,6.145-5.988,11.433-6.688v9.41Zm60.044,10.266c-0.389-6.844-.389-9.021-0.544-16.643v-6.067c-0.078-7.466-.156-11.044-2.1-14.232-2.411-4.045-6.844-4.667-9.644-4.667-4.745,0-8.867,2.489-12.444,4.589l0.155-4.278-0.777-.544c-5.989,1.244-7.311,1.478-13.144,2.255l-0.467.545a216.367,216.367,0,0,1,1.089,24.343c0,4.978-.078,9.955-0.156,14.933l0.467,0.466c5.6-.233,6.766-0.233,12.988-0.233l0.467-.467c-0.467-11.977-.544-15.01-0.622-28.932,1.633-1.088,3.5-2.411,5.988-2.411,4.278,0,4.667,4.589,4.9,7.389,0.156,2.567.234,13.222,0.234,16.177,0,2.644-.078,5.366-0.078,8.011l0.466,0.466c5.133-.155,6.456-0.233,12.678-0.233ZM76.706,438.555c1.944,0.155,3.422.311,5.211,0.311,17.577,0,17.577-10.578,17.577-18.355,0-1.944-.078-3.889-0.156-5.833V383.724l-0.389-.467c-5.989.234-7.233,0.234-13.688,0.234l-0.389.466c0.389,11.044.7,20.61,0.7,31.888,0,7.155,0,12.677-5.989,12.677a8.154,8.154,0,0,1-2.8-.545l-0.467.467v9.566Zm66.575-23.333c0.078-7,.078-10.032-1.944-13.3-1.555-2.489-4.666-5.6-14.621-5.6a47.335,47.335,0,0,0-15.244,2.567l-0.467.622-0.389,8.477,0.623,0.312c2.722-1.089,7.777-3.111,12.988-3.111,2.877,0,4.044.466,5.055,1.477a4.9,4.9,0,0,1,1.011,3.345c-9.333,1.244-13.688,2.1-18.354,4.977a12.436,12.436,0,0,0-5.834,10.655c0,8.322,5.989,13.688,13.611,13.688a16.079,16.079,0,0,0,10.811-4.122v2.878l0.466,0.544c5.6-.233,7.311-0.311,12.366-0.233l0.389-.544c-0.544-7.622-.544-9.567-0.544-16.877Zm-12.832,12.367a12.6,12.6,0,0,1-6.3,2.022c-2.8,0-5.133-1.478-5.133-4.745,0-5.133,6.144-5.988,11.433-6.688v9.411Zm52.344-.389a13.856,13.856,0,0,1-8.089,2.488c-8.788,0-10.577-7.31-10.577-11.977,0-5.677,2.489-12.21,10.033-12.21,3.422,0,5.288,1.244,7.622,2.8l0.777-.234c0.312-4.122.389-5.211,1.012-9.333l-0.389-.466a32.334,32.334,0,0,0-10.889-2.022c-18.277,0-21.854,13.843-21.854,21.776,0,8.944,4.666,21.077,22.165,21.077a32.581,32.581,0,0,0,10.033-1.711l0.467-.467,0.311-9.332Zm20.923,10.655c-0.389-5.989-.7-10.578-0.7-21.31,0-6.611.155-13.3,0.233-19.911l-0.544-.622-13.377,2.333-0.467.467c0.622,5.911.855,8.633,0.855,19.677,0,8.477-.233,13.222-0.466,19.6l0.466,0.544c5.6-.233,7.156-0.311,13.455-0.233Zm-1.245-49.309,0.234-10.577-0.467-.467-12.677,1.556-0.467.544c0.156,2.8.234,4.433,0.234,6.3,0,1.477,0,3.033-.078,4.511l0.544,0.466c5.289-.933,6.767-1.089,12.289-1.789Zm47.988,49.309c-0.389-6.844-.389-9.022-0.544-16.644v-6.066c-0.078-7.467-.156-11.044-2.1-14.233-2.411-4.044-6.844-4.666-9.644-4.666-4.744,0-8.866,2.488-12.444,4.588l0.155-4.277-0.777-.545c-5.989,1.245-7.311,1.478-13.144,2.256l-0.467.544a216.367,216.367,0,0,1,1.089,24.343c0,4.978-.078,9.955-0.155,14.933l0.466,0.467c5.6-.234,6.767-0.234,12.988-0.234l0.467-.466c-0.467-11.977-.544-15.011-0.622-28.932,1.633-1.089,3.5-2.411,5.989-2.411,4.277,0,4.666,4.588,4.9,7.388,0.156,2.567.234,13.222,0.234,16.177,0,2.645-.078,5.367-0.078,8.011l0.466,0.467c5.134-.156,6.456-0.234,12.678-0.234Zm30.645-8.4a11.669,11.669,0,0,1-3.577.7c-3.967,0-4.278-2.489-4.433-3.655a88.88,88.88,0,0,1-.156-9.411l0.156-10.966,7,0.311,0.467-.467,0.778-8.321-0.467-.467h-7.777l0.233-13.066-0.545-.467c-5.288,1.556-6.688,1.945-12.21,3.344l-0.311.545,0.078,9.722-4.2-.156-0.467.389-0.7,8.322,0.467,0.466,4.9-.155-0.234,12.366c-0.077,1.944-.155,3.889-0.155,5.911,0,7.155.155,14.855,12.288,14.855a45.168,45.168,0,0,0,8.166-.934l0.545-.544,0.777-8.011Zm45.344-11.744c0-3.033,0-15.632-10.888-19.91a27.965,27.965,0,0,0-9.489-1.478c-13.533,0-21.154,7.233-21.154,21.544,0,4.977.777,10.033,3.655,14.232,2.022,3.034,5.833,7.233,16.955,7.233C322.015,439.332,326.448,429.377,326.448,417.711Zm-13.455-.078c0,6.378-.856,13.455-7.311,13.455a6.292,6.292,0,0,1-4.355-1.788c-1.322-1.323-2.8-3.967-2.8-11.511,0-2.255,0-7.233,1.555-9.955a6.442,6.442,0,0,1,5.678-3.5,6.543,6.543,0,0,1,4.978,2.411C312.6,409,312.993,413.434,312.993,417.633Zm66.033-12.677c-6.533-2.722-9.955-4.122-9.955-7.622,0-2.411,2.256-5.444,7.389-5.444,5.911,0,9.411,2.411,12.288,4.356l0.7-.312,0.622-10.188-0.388-.544a31.863,31.863,0,0,0-14.389-2.878c-14.621,0-19.677,8.244-19.677,16.566,0,9.411,7.311,12.833,11.667,14.933l2.566,1.166c5.367,2.256,9.489,4.2,9.489,8.322,0,2.955-2.567,6.455-9.333,6.455a19.842,19.842,0,0,1-13.3-4.9l-0.777.234-0.545,10.966,0.467,0.622c0.855,0.311,1.711.7,2.566,0.933a38.715,38.715,0,0,0,12.211,1.945c2.333,0,8.244-.234,12.91-2.411,6.533-3.189,9.333-9.1,9.333-15.711a15.415,15.415,0,0,0-5.833-12.366,31.581,31.581,0,0,0-5.988-3.344Zm43.012,24.5a11.68,11.68,0,0,1-3.578.7c-3.966,0-4.278-2.489-4.433-3.655a89.421,89.421,0,0,1-.156-9.411l0.156-10.966,7,0.311,0.466-.467,0.778-8.321-0.467-.467h-7.777l0.233-13.066-0.544-.467c-5.289,1.556-6.689,1.945-12.211,3.344l-0.311.545,0.078,9.722-4.2-.156-0.467.389-0.7,8.322,0.466,0.466,4.9-.155-0.233,12.366c-0.078,1.944-.156,3.889-0.156,5.911,0,7.155.156,14.855,12.288,14.855a45.169,45.169,0,0,0,8.167-.934l0.544-.544,0.778-8.011ZM462.4,415.222c0.077-7,.077-10.032-1.945-13.3-1.555-2.489-4.666-5.6-14.621-5.6a47.335,47.335,0,0,0-15.244,2.567l-0.467.622-0.388,8.477,0.622,0.312c2.722-1.089,7.777-3.111,12.988-3.111,2.878,0,4.044.466,5.055,1.477a4.9,4.9,0,0,1,1.011,3.345c-9.332,1.244-13.688,2.1-18.354,4.977a12.435,12.435,0,0,0-5.833,10.655c0,8.322,5.988,13.688,13.61,13.688a16.079,16.079,0,0,0,10.811-4.122v2.878l0.466,0.544c5.6-.233,7.311-0.311,12.366-0.233l0.389-.544c-0.544-7.622-.544-9.567-0.544-16.877Zm-12.833,12.367a12.6,12.6,0,0,1-6.3,2.022c-2.8,0-5.133-1.478-5.133-4.745,0-5.133,6.144-5.988,11.433-6.688v9.411Zm43.711,1.866a11.669,11.669,0,0,1-3.578.7c-3.966,0-4.277-2.489-4.433-3.655a89.18,89.18,0,0,1-.155-9.411l0.155-10.966,7,0.311,0.467-.467,0.777-8.321-0.466-.467h-7.778l0.234-13.066-0.545-.467c-5.288,1.556-6.688,1.945-12.21,3.344l-0.311.545,0.077,9.722-4.2-.156-0.467.389-0.7,8.322,0.467,0.466,4.9-.155-0.233,12.366c-0.078,1.944-.155,3.889-0.155,5.911,0,7.155.155,14.855,12.288,14.855a45.168,45.168,0,0,0,8.166-.934l0.544-.544,0.778-8.011Zm38.733-2.566a23.776,23.776,0,0,1-12.133,3.344c-4.666,0-7.855-1.478-9.722-4.278a11.01,11.01,0,0,1-1.711-4.744l25.121-.467,0.467-.544a45.6,45.6,0,0,0-1.245-11.588c-2.722-9.178-8.71-11.044-11.354-11.666a19.9,19.9,0,0,0-5.522-.7c-12.211,0-20.3,8.01-20.3,21.465a25.893,25.893,0,0,0,1.866,10.189c4.511,10.5,15.088,11.432,20.688,11.432,6.455,0,9.255-1.166,13.377-2.8l0.467-.623,0.544-8.788Zm-23.566-13.922c0.234-2.411.778-5.677,3.733-7.544a5.969,5.969,0,0,1,8.089,1.867,9.5,9.5,0,0,1,1.167,5.366Zm-267.866,63.7-9.878.156-0.466.467c0.311,10.11.544,16.877,0.544,25.821,0,9.488-.233,18.9-0.467,28.387l0.467,0.467c5.755-.234,7-0.311,13.222-0.234l0.389-.466c-0.312-8.478-.312-10.422-0.312-18.355,8.711,0.078,18.044.078,23.644-6.766a20,20,0,0,0,4.044-12.522c0-3.344-.778-10.733-7.233-14.388-4.666-2.722-11.277-2.722-17.11-2.722Zm3.5,9.411c1.711-.078,3.345-0.078,5.056-0.078,6.844,0.156,8.71,3.656,8.71,8.167,0,1.088,0,5.6-4.122,7.855-2.1,1.166-4.977,1.322-9.644,1.322V486.079Zm66.111,22.477c0.077-7,.077-10.033-1.945-13.3-1.555-2.488-4.666-5.6-14.621-5.6a47.337,47.337,0,0,0-15.244,2.566l-0.467.622-0.389,8.478,0.623,0.311c2.722-1.089,7.777-3.111,12.988-3.111,2.878,0,4.044.467,5.055,1.478a4.9,4.9,0,0,1,1.011,3.344c-9.333,1.244-13.688,2.1-18.354,4.977a12.438,12.438,0,0,0-5.833,10.656c0,8.321,5.988,13.688,13.61,13.688a16.084,16.084,0,0,0,10.811-4.122v2.877l0.466,0.545c5.6-.234,7.311-0.311,12.366-0.234l0.389-.544c-0.544-7.622-.544-9.566-0.544-16.877ZM297.36,520.922a12.6,12.6,0,0,1-6.3,2.022c-2.8,0-5.133-1.478-5.133-4.744,0-5.133,6.144-5.989,11.433-6.689v9.411Zm44.411-18.044,2.178-12.677-0.467-.544c-0.544,0-1.089-.078-1.633-0.078-3.189,0-6.767,1.789-9.255,7.544l0.233-7.155-0.622-.622c-5.756,1.244-7.233,1.477-12.911,2.333l-0.466.466c0.466,5.834.7,9.333,0.7,20.144,0,6.377-.078,12.755-0.234,19.21l0.467,0.467c5.755-.234,7-0.311,13.221-0.234l0.389-.544c-0.311-6.3-.777-15.088-0.777-20.455,0-3.5,0-8.632,5.288-8.632a5.825,5.825,0,0,1,3.189,1.088Zm46.666,27.843c-7.311-12.366-8.089-13.766-14-24.421,5.367-7.31,5.911-8.088,11.433-15.166l-0.389-.777-12.677.155-0.778.545c-6.066,10.5-6.844,11.744-10.421,17.11v-8.633c0.077-14.544.155-17.655,0.544-29.4l-0.622-.466-13.533,2.022-0.466.544c0.544,7.544.777,11.2,0.933,21.388,0.155,12.6.155,25.2,0.078,37.8l0.544,0.545c5.211-.234,6.689-0.234,12.6-0.234l0.467-.544-0.467-13.144-0.077-8.944c6.766,12.444,7.622,14.155,11.588,22.4l0.7,0.467,14-.545Z"/>
</svg>
