<svg xmlns="http://www.w3.org/2000/svg" width="612" height="817" viewBox="0 0 612 817">
  <defs>
    <style>
      .cls-1 {
        fill: #592626;
        fill-rule: evenodd;
      }
    </style>
  </defs>
  <path id="Anza-Borrego_Desert_State_Park" data-name="Anza-Borrego Desert State Park" class="cls-1" d="M93.893,289.924c-7.466.233-9.022,0.233-17.344,0.233L76,290.624c-4.122,13.222-6.611,21.077-18.044,53.9l0.311,0.545H70.405l0.544-.467,3.811-14.155h16.8L94.9,344.832l0.544,0.467c5.678-.233,7.233-0.311,13.533-0.233l0.389-.622c-9.411-33.288-10.5-36.943-14.933-54.053Zm-16.41,31.11,3.889-13.144,2.722-9.1L86.426,308.9,89.3,321.034H77.482Zm74.977,23.487c-0.389-6.844-.389-9.021-0.544-16.643v-6.067c-0.078-7.466-.156-11.044-2.1-14.232-2.411-4.045-6.844-4.667-9.644-4.667-4.744,0-8.866,2.489-12.444,4.589l0.155-4.278-0.777-.544c-5.989,1.244-7.311,1.478-13.144,2.255l-0.467.545a216.367,216.367,0,0,1,1.089,24.343c0,4.978-.078,9.955-0.155,14.933l0.466,0.466c5.6-.233,6.767-0.233,12.988-0.233l0.467-.467c-0.467-11.977-.544-15.01-0.622-28.932,1.633-1.088,3.5-2.411,5.989-2.411,4.277,0,4.666,4.589,4.9,7.389,0.156,2.567.234,13.222,0.234,16.177,0,2.644-.078,5.366-0.078,8.011l0.466,0.466c5.134-.155,6.456-0.233,12.678-0.233Zm38.734,0.234,0.778-8.555-0.467-.389-15.011.544c2.411-5.444,3.734-8.322,7.622-16.1,2.722-5.211,5.678-11.044,8.011-15.788l-0.389-.7h-30.8l-0.389.544-0.778,8.089,0.389,0.466,13.844-.155c-4.278,9.1-5.444,11.433-15.866,31.809l0.311,0.545h32.121Zm42-22.866c0.077-7,.077-10.033-1.945-13.3-1.555-2.489-4.666-5.6-14.621-5.6a47.308,47.308,0,0,0-15.244,2.567l-0.467.622-0.389,8.477,0.623,0.311c2.722-1.089,7.777-3.111,12.988-3.111,2.878,0,4.044.467,5.055,1.478a4.9,4.9,0,0,1,1.011,3.344c-9.333,1.245-13.688,2.1-18.354,4.978a12.435,12.435,0,0,0-5.833,10.655c0,8.322,5.988,13.688,13.61,13.688a16.084,16.084,0,0,0,10.811-4.122v2.878L220.9,345.3c5.6-.233,7.311-0.311,12.366-0.233l0.389-.545c-0.544-7.621-.544-9.566-0.544-16.877ZM220.36,334.255a12.6,12.6,0,0,1-6.3,2.022c-2.8,0-5.133-1.477-5.133-4.744,0-5.133,6.144-5.988,11.433-6.688v9.41Zm43.4-16.177c-3.733.078-6.766,0.156-11.355,0.156-3.733,0-7.466-.078-11.122-0.078l-0.544.467-0.467,8.944,0.389,0.466c4.355-.077,6.922-0.155,11.044-0.155,3.811,0,7.622.078,11.433,0.078l0.466-.467,0.545-9.022Zm22.167,26.988c7.233,0.155,16.177.311,22.01-3.733a15.461,15.461,0,0,0,6.533-13.144c0-4.978-2.1-9.566-6.533-11.744a17.184,17.184,0,0,0-4.822-1.4c2.644-1.089,5.755-2.489,7.777-6.611a12.607,12.607,0,0,0,1.245-5.444,13.055,13.055,0,0,0-3.111-8.711c-3.267-3.5-8.322-4.433-15.944-4.433-2.644,0-7.388.078-10.033,0.156l-10.888.155-0.467.467c0.311,7.466.389,10.344,0.389,21.077,0,11.044-.078,22.01-0.233,33.054l0.544,0.311h13.533Zm-0.545-23.644c5.911-.155,9.333-0.155,11.589,1.167a7.173,7.173,0,0,1,3.111,6.378,6.687,6.687,0,0,1-4.822,6.688c-2.333.778-6.533,0.778-9.878,0.7V321.422Zm0-22.865c1.634,0,3.811-.078,5.134-0.078,4.2,0,8.01,1.478,8.01,6.533a6.871,6.871,0,0,1-3.966,6.3c-1.945.855-6.067,0.855-9.178,0.855v-13.61Zm75.91,25.821c0-3.033,0-15.633-10.888-19.91a27.956,27.956,0,0,0-9.488-1.478c-13.533,0-21.155,7.233-21.155,21.543,0,4.978.778,10.033,3.655,14.233,2.022,3.033,5.833,7.233,16.955,7.233C356.859,346,361.292,336.044,361.292,324.378Zm-13.455-.078c0,6.378-.855,13.455-7.31,13.455a6.292,6.292,0,0,1-4.356-1.789c-1.322-1.322-2.8-3.966-2.8-11.51,0-2.256,0-7.233,1.556-9.955A6.441,6.441,0,0,1,340.6,311a6.538,6.538,0,0,1,4.978,2.411C347.449,315.667,347.837,320.1,347.837,324.3Zm43.323-8.088,2.177-12.678-0.466-.544c-0.545,0-1.089-.078-1.633-0.078-3.189,0-6.767,1.789-9.256,7.544l0.234-7.155-0.622-.622c-5.756,1.244-7.233,1.478-12.911,2.333l-0.467.467c0.467,5.833.7,9.333,0.7,20.143,0,6.378-.077,12.755-0.233,19.21l0.467,0.467c5.755-.233,7-0.311,13.221-0.233l0.389-.545c-0.311-6.3-.778-15.088-0.778-20.454,0-3.5,0-8.633,5.289-8.633a5.826,5.826,0,0,1,3.189,1.089Zm29.166,0,2.178-12.678-0.467-.544c-0.544,0-1.088-.078-1.633-0.078-3.188,0-6.766,1.789-9.255,7.544l0.233-7.155-0.622-.622c-5.755,1.244-7.233,1.478-12.91,2.333l-0.467.467c0.467,5.833.7,9.333,0.7,20.143,0,6.378-.078,12.755-0.233,19.21l0.466,0.467c5.756-.233,7-0.311,13.222-0.233l0.389-.545c-0.311-6.3-.778-15.088-0.778-20.454,0-3.5,0-8.633,5.289-8.633a5.82,5.82,0,0,1,3.188,1.089Zm41.222,17.343a23.763,23.763,0,0,1-12.133,3.345c-4.666,0-7.855-1.478-9.721-4.278a11,11,0,0,1-1.711-4.744l25.121-.467,0.466-.544a45.605,45.605,0,0,0-1.244-11.589c-2.722-9.177-8.711-11.044-11.355-11.666a19.938,19.938,0,0,0-5.522-.7c-12.211,0-20.3,8.011-20.3,21.466a25.891,25.891,0,0,0,1.866,10.188C431.527,345.066,442.105,346,447.7,346c6.456,0,9.255-1.167,13.377-2.8l0.467-.622,0.545-8.788Zm-23.565-13.921c0.233-2.411.777-5.678,3.733-7.544a5.968,5.968,0,0,1,8.088,1.866,9.5,9.5,0,0,1,1.167,5.367Zm47.055,12.288a21.831,21.831,0,0,0,8.711-1.011c4.044-1.4,9.955-4.744,9.955-12.288a10.175,10.175,0,0,0-2.1-6.767l5.366,0.311,0.467-.388L507.981,304l-0.466-.389c-5.989.234-7.622,0.311-12.522,0.234l-3.578-.078c-5.522-.156-12.91-0.311-17.965,3.888a13.051,13.051,0,0,0-4.978,10.5,12.593,12.593,0,0,0,2.256,7.544,13.347,13.347,0,0,0,5.21,4.355c-2.177,4.2-3.344,6.3-5.133,9.489v0.7l3.267,2.333c-2.333,1.789-5.989,4.744-5.989,9.8a10.966,10.966,0,0,0,4.822,8.788c4.356,3.111,10.266,3.267,13.3,3.267,14.232,0,20.765-7.156,20.765-14.7,0-9.8-8.555-11.666-13.61-12.832l-1.867-.312a32.676,32.676,0,0,1-7.7-1.944Zm6.377-14c-0.077,6.3-3.888,6.844-4.977,6.844a5.035,5.035,0,0,1-4.667-3.267,10.715,10.715,0,0,1-.7-4.044c0-3.889,2.334-6.377,5.211-6.377C489.86,311.079,491.493,314.5,491.415,317.923Zm-6.61,29.009c6.922,1.789,7,1.789,7.933,2.567a3.43,3.43,0,0,1,1.555,3.033c0,2.333-1.944,4.744-7.077,4.744-5.756,0-7.7-3.266-7.7-5.988a7.387,7.387,0,0,1,2.255-5.133Zm67.665-22.554c0-3.033,0-15.633-10.888-19.91a27.961,27.961,0,0,0-9.489-1.478c-13.532,0-21.154,7.233-21.154,21.543,0,4.978.777,10.033,3.655,14.233,2.022,3.033,5.833,7.233,16.955,7.233C548.037,346,552.47,336.044,552.47,324.378Zm-13.455-.078c0,6.378-.855,13.455-7.311,13.455a6.288,6.288,0,0,1-4.355-1.789c-1.322-1.322-2.8-3.966-2.8-11.51,0-2.256,0-7.233,1.556-9.955a6.439,6.439,0,0,1,5.677-3.5,6.538,6.538,0,0,1,4.978,2.411C538.626,315.667,539.015,320.1,539.015,324.3ZM98.4,438.4c2.022,0.078,4.122.078,6.144,0.078,8.711,0,22.788-.311,28.465-14.155a42.228,42.228,0,0,0,2.567-14.855c0-7.311-1.633-12.91-3.578-16.41-5.288-9.644-15.321-9.955-24.187-9.955-3.578,0-7.156.155-10.733,0.311l-8.244.078-0.467.466c0.311,7.467.622,14,.622,35.543,0,7.622-.078,12.211-0.233,18.588l0.467,0.311H98.4Zm4.277-10.033c-0.155-7.622-.233-14.855-0.233-22.321,0-4.2,0-8.4.078-12.6,1.555-.078,3.189-0.156,4.744-0.156,4.744,0,14,0,14,16.566,0,9.722-3.655,14.077-5.522,15.633C112.249,428.366,106.882,428.366,102.682,428.366Zm75.366-1.477a23.773,23.773,0,0,1-12.133,3.344c-4.666,0-7.855-1.478-9.721-4.278a11,11,0,0,1-1.711-4.744l25.121-.467,0.466-.544a45.593,45.593,0,0,0-1.244-11.588c-2.722-9.178-8.711-11.044-11.355-11.666a19.9,19.9,0,0,0-5.522-.7c-12.211,0-20.3,8.01-20.3,21.465a25.893,25.893,0,0,0,1.866,10.189c4.511,10.5,15.089,11.432,20.688,11.432,6.456,0,9.255-1.166,13.377-2.8l0.467-.623,0.545-8.788Zm-23.565-13.922c0.233-2.411.777-5.677,3.733-7.544a5.967,5.967,0,0,1,8.088,1.867,9.5,9.5,0,0,1,1.167,5.366Zm49.077-1.4c-2.644-.933-4.744-1.789-4.744-3.966,0-.934.622-3.5,5.444-3.5a16.881,16.881,0,0,1,9.722,3.266l0.7-.233,0.778-8.477-0.389-.467a39.615,39.615,0,0,0-11.9-1.944c-3.811,0-11.433.311-15.477,6.144a11.691,11.691,0,0,0-2.1,6.844c0,8.322,6.456,10.81,10.111,12.21l2.955,1.089c2.1,0.7,5.522,1.867,5.522,4.667,0,1.944-1.789,4.044-6.144,4.044a19.458,19.458,0,0,1-8.244-2.178,17.23,17.23,0,0,1-3.111-2.177l-0.7.311c-0.155,4.044-.233,4.9-0.544,8.788l0.389,0.7c3.811,1.4,7.077,2.644,12.755,2.644,5.91,0,17.577-1.088,18.976-12.21a13.146,13.146,0,0,0,.078-1.711c0-8.555-5.988-10.811-10.266-12.444Zm55.455,15.322a23.776,23.776,0,0,1-12.133,3.344c-4.666,0-7.855-1.478-9.722-4.278a11.01,11.01,0,0,1-1.711-4.744l25.121-.467,0.467-.544a45.638,45.638,0,0,0-1.244-11.588c-2.723-9.178-8.711-11.044-11.355-11.666a19.9,19.9,0,0,0-5.522-.7c-12.211,0-20.3,8.01-20.3,21.465a25.893,25.893,0,0,0,1.866,10.189c4.511,10.5,15.088,11.432,20.688,11.432,6.455,0,9.255-1.166,13.377-2.8l0.467-.623,0.544-8.788Zm-23.566-13.922c0.234-2.411.778-5.677,3.733-7.544a5.969,5.969,0,0,1,8.089,1.867,9.5,9.5,0,0,1,1.167,5.366Zm55.222-3.422,2.178-12.677-0.467-.545c-0.544,0-1.089-.077-1.633-0.077-3.189,0-6.767,1.788-9.255,7.544l0.233-7.156-0.622-.622c-5.756,1.245-7.233,1.478-12.911,2.333l-0.466.467c0.466,5.833.7,9.333,0.7,20.144,0,6.377-.078,12.755-0.234,19.21l0.467,0.466c5.755-.233,7-0.311,13.221-0.233l0.389-.544c-0.311-6.3-.777-15.088-0.777-20.455,0-3.5,0-8.633,5.288-8.633a5.826,5.826,0,0,1,3.189,1.089Zm30.1,19.91a11.669,11.669,0,0,1-3.578.7c-3.966,0-4.277-2.489-4.433-3.655a89.18,89.18,0,0,1-.155-9.411l0.155-10.966,7,0.311,0.467-.467L321,397.646l-0.466-.467H312.76l0.234-13.066-0.545-.467c-5.289,1.556-6.688,1.945-12.21,3.344l-0.312.545,0.078,9.722-4.2-.156-0.466.389-0.7,8.322,0.466,0.466,4.9-.155-0.233,12.366c-0.078,1.944-.156,3.889-0.156,5.911,0,7.155.156,14.855,12.289,14.855a45.168,45.168,0,0,0,8.166-.934l0.544-.544,0.778-8.011Zm50.944-24.5c-6.533-2.722-9.955-4.122-9.955-7.622,0-2.411,2.256-5.444,7.389-5.444,5.911,0,9.41,2.411,12.288,4.356l0.7-.312,0.622-10.188-0.389-.544a31.855,31.855,0,0,0-14.388-2.878c-14.621,0-19.677,8.244-19.677,16.566,0,9.411,7.311,12.833,11.666,14.933l2.567,1.166c5.366,2.256,9.488,4.2,9.488,8.322,0,2.955-2.566,6.455-9.332,6.455a19.842,19.842,0,0,1-13.3-4.9l-0.778.234-0.544,10.966,0.467,0.622c0.855,0.311,1.711.7,2.566,0.933a38.715,38.715,0,0,0,12.211,1.945c2.333,0,8.244-.234,12.91-2.411,6.533-3.189,9.333-9.1,9.333-15.711a15.415,15.415,0,0,0-5.833-12.366,31.556,31.556,0,0,0-5.989-3.344Zm43.012,24.5a11.68,11.68,0,0,1-3.578.7c-3.967,0-4.278-2.489-4.433-3.655a88.88,88.88,0,0,1-.156-9.411l0.156-10.966,7,0.311,0.467-.467,0.778-8.321-0.467-.467h-7.777l0.233-13.066-0.544-.467c-5.289,1.556-6.689,1.945-12.211,3.344l-0.311.545,0.078,9.722-4.2-.156-0.467.389-0.7,8.322,0.467,0.466,4.9-.155-0.233,12.366c-0.078,1.944-.156,3.889-0.156,5.911,0,7.155.156,14.855,12.288,14.855a45.19,45.19,0,0,0,8.167-.934l0.544-.544,0.778-8.011Zm40.366-14.233c0.077-7,.077-10.032-1.945-13.3-1.555-2.489-4.666-5.6-14.621-5.6a47.335,47.335,0,0,0-15.244,2.567l-0.467.622-0.389,8.477,0.623,0.312c2.722-1.089,7.777-3.111,12.988-3.111,2.878,0,4.044.466,5.055,1.477a4.9,4.9,0,0,1,1.011,3.345c-9.333,1.244-13.688,2.1-18.354,4.977a12.435,12.435,0,0,0-5.833,10.655c0,8.322,5.988,13.688,13.61,13.688a16.079,16.079,0,0,0,10.811-4.122v2.878l0.466,0.544c5.6-.233,7.311-0.311,12.366-0.233l0.389-.544c-0.544-7.622-.544-9.567-0.544-16.877ZM442.26,427.589a12.6,12.6,0,0,1-6.3,2.022c-2.8,0-5.133-1.478-5.133-4.745,0-5.133,6.144-5.988,11.433-6.688v9.411Zm43.711,1.866a11.669,11.669,0,0,1-3.578.7c-3.966,0-4.277-2.489-4.433-3.655a89.18,89.18,0,0,1-.155-9.411l0.155-10.966,7,0.311,0.467-.467,0.777-8.321-0.466-.467H477.96l0.234-13.066-0.545-.467c-5.289,1.556-6.688,1.945-12.21,3.344l-0.311.545,0.077,9.722-4.2-.156-0.466.389-0.7,8.322,0.467,0.466,4.9-.155-0.233,12.366c-0.078,1.944-.156,3.889-0.156,5.911,0,7.155.156,14.855,12.289,14.855a45.168,45.168,0,0,0,8.166-.934l0.544-.544,0.778-8.011Zm38.733-2.566a23.779,23.779,0,0,1-12.133,3.344c-4.667,0-7.855-1.478-9.722-4.278a11.01,11.01,0,0,1-1.711-4.744l25.121-.467,0.467-.544a45.6,45.6,0,0,0-1.245-11.588c-2.722-9.178-8.71-11.044-11.355-11.666a19.9,19.9,0,0,0-5.522-.7c-12.21,0-20.3,8.01-20.3,21.465a25.893,25.893,0,0,0,1.867,10.189c4.511,10.5,15.088,11.432,20.688,11.432,6.455,0,9.255-1.166,13.377-2.8l0.467-.623,0.544-8.788Zm-23.566-13.922c0.233-2.411.778-5.677,3.733-7.544a5.969,5.969,0,0,1,8.089,1.867,9.5,9.5,0,0,1,1.166,5.366Zm-260.555,63.7-9.878.156-0.466.467c0.311,10.11.544,16.877,0.544,25.821,0,9.488-.233,18.9-0.467,28.387l0.467,0.467c5.755-.234,7-0.311,13.222-0.234l0.389-.466c-0.312-8.478-.312-10.422-0.312-18.355,8.711,0.078,18.044.078,23.644-6.766a20,20,0,0,0,4.044-12.522c0-3.344-.778-10.733-7.233-14.388-4.666-2.722-11.277-2.722-17.11-2.722Zm3.5,9.411c1.711-.078,3.345-0.078,5.056-0.078,6.844,0.156,8.71,3.656,8.71,8.167,0,1.088,0,5.6-4.122,7.855-2.1,1.166-4.977,1.322-9.644,1.322V486.079Zm66.111,22.477c0.077-7,.077-10.033-1.945-13.3-1.555-2.488-4.666-5.6-14.621-5.6a47.337,47.337,0,0,0-15.244,2.566l-0.467.622-0.389,8.478,0.623,0.311c2.722-1.089,7.777-3.111,12.988-3.111,2.878,0,4.044.467,5.055,1.478a4.9,4.9,0,0,1,1.011,3.344c-9.333,1.244-13.688,2.1-18.354,4.977a12.438,12.438,0,0,0-5.833,10.656c0,8.321,5.988,13.688,13.61,13.688a16.084,16.084,0,0,0,10.811-4.122v2.877l0.466,0.545c5.6-.234,7.311-0.311,12.366-0.234l0.389-.544c-0.544-7.622-.544-9.566-0.544-16.877ZM297.36,520.922a12.6,12.6,0,0,1-6.3,2.022c-2.8,0-5.133-1.478-5.133-4.744,0-5.133,6.144-5.989,11.433-6.689v9.411Zm44.411-18.044,2.178-12.677-0.467-.544c-0.544,0-1.089-.078-1.633-0.078-3.189,0-6.767,1.789-9.255,7.544l0.233-7.155-0.622-.622c-5.756,1.244-7.233,1.477-12.911,2.333l-0.466.466c0.466,5.834.7,9.333,0.7,20.144,0,6.377-.078,12.755-0.234,19.21l0.467,0.467c5.755-.234,7-0.311,13.221-0.234l0.389-.544c-0.311-6.3-.777-15.088-0.777-20.455,0-3.5,0-8.632,5.288-8.632a5.825,5.825,0,0,1,3.189,1.088Zm46.666,27.843c-7.311-12.366-8.089-13.766-14-24.421,5.367-7.31,5.911-8.088,11.433-15.166l-0.389-.777-12.677.155-0.778.545c-6.066,10.5-6.844,11.744-10.421,17.11v-8.633c0.077-14.544.155-17.655,0.544-29.4l-0.622-.466-13.533,2.022-0.466.544c0.544,7.544.777,11.2,0.933,21.388,0.155,12.6.155,25.2,0.078,37.8l0.544,0.545c5.211-.234,6.689-0.234,12.6-0.234l0.467-.544-0.467-13.144-0.077-8.944c6.766,12.444,7.622,14.155,11.588,22.4l0.7,0.467,14-.545Z"/>
</svg>
