<?xml version="1.0" encoding="UTF-8"?>
<svg xmlns="http://www.w3.org/2000/svg" xmlns:xlink="http://www.w3.org/1999/xlink" width="975" height="1300" viewBox="0 0 975 1300">
<path fill-rule="nonzero" fill="rgb(34.901961%, 14.901961%, 14.901961%)" fill-opacity="1" d="M 147.125 456.375 C 135.125 456.75 132.625 456.75 119.25 456.75 L 118.375 457.5 C 111.75 478.75 107.75 491.375 89.375 544.125 L 89.875 545 L 109.375 545 L 110.25 544.25 L 116.375 521.5 L 143.375 521.5 L 148.75 544.625 L 149.625 545.375 C 158.75 545 161.25 544.875 171.375 545 L 172 544 C 156.875 490.5 155.125 484.625 148 457.125 L 147.125 456.375 M 120.75 506.375 L 127 485.25 L 131.375 470.625 L 135.125 486.875 L 139.75 506.375 Z M 241.25 544.125 C 240.625 533.125 240.625 529.625 240.375 517.375 L 240.375 507.625 C 240.25 495.625 240.125 489.875 237 484.75 C 233.125 478.25 226 477.25 221.5 477.25 C 213.875 477.25 207.25 481.25 201.5 484.625 L 201.75 477.75 L 200.5 476.875 C 190.875 478.875 188.75 479.25 179.375 480.5 L 178.625 481.375 C 179.625 492.25 180.375 500.125 180.375 520.5 C 180.375 528.5 180.25 536.5 180.125 544.5 L 180.875 545.25 C 189.875 544.875 191.75 544.875 201.75 544.875 L 202.5 544.125 C 201.75 524.875 201.625 520 201.5 497.625 C 204.125 495.875 207.125 493.75 211.125 493.75 C 218 493.75 218.625 501.125 219 505.625 C 219.25 509.75 219.375 526.875 219.375 531.625 C 219.375 535.875 219.25 540.25 219.25 544.5 L 220 545.25 C 228.25 545 230.375 544.875 240.375 544.875 Z M 303.5 544.5 L 304.75 530.75 L 304 530.125 L 279.875 531 C 283.75 522.25 285.875 517.625 292.125 505.125 C 296.5 496.75 301.25 487.375 305 479.75 L 304.375 478.625 L 254.875 478.625 L 254.25 479.5 L 253 492.5 L 253.625 493.25 L 275.875 493 C 269 507.625 267.125 511.375 250.375 544.125 L 250.875 545 L 302.5 545 Z M 371 507.75 C 371.125 496.5 371.125 491.625 367.875 486.375 C 365.375 482.375 360.375 477.375 344.375 477.375 C 333.625 477.375 327 479.375 319.875 481.5 L 319.125 482.5 L 318.5 496.125 L 319.5 496.625 C 323.875 494.875 332 491.625 340.375 491.625 C 345 491.625 346.875 492.375 348.5 494 C 349.75 495.25 350.125 497.5 350.125 499.375 C 335.125 501.375 328.125 502.75 320.625 507.375 C 313.625 511.75 311.25 518.875 311.25 524.5 C 311.25 537.875 320.875 546.5 333.125 546.5 C 342.5 546.5 347.875 542 350.5 539.875 L 350.5 544.5 L 351.25 545.375 C 360.25 545 363 544.875 371.125 545 L 371.75 544.125 C 370.875 531.875 370.875 528.75 370.875 517 L 371 507.75 M 350.375 527.625 C 347.75 529.125 344.375 530.875 340.25 530.875 C 335.75 530.875 332 528.5 332 523.25 C 332 515 341.875 513.625 350.375 512.5 Z M 420.125 501.625 C 414.125 501.75 409.25 501.875 401.875 501.875 C 395.875 501.875 389.875 501.75 384 501.75 L 383.125 502.5 L 382.375 516.875 L 383 517.625 C 390 517.5 394.125 517.375 400.75 517.375 C 406.875 517.375 413 517.5 419.125 517.5 L 419.875 516.75 L 420.75 502.25 Z M 455.75 545 C 467.375 545.25 481.75 545.5 491.125 539 C 499.375 533.125 501.625 524.875 501.625 517.875 C 501.625 509.875 498.25 502.5 491.125 499 C 488.75 497.75 486 497.25 483.375 496.75 C 487.625 495 492.625 492.75 495.875 486.125 C 497.25 483.25 497.875 480.25 497.875 477.375 C 497.875 473.375 496.875 467.875 492.875 463.375 C 487.625 457.75 479.5 456.25 467.25 456.25 C 463 456.25 455.375 456.375 451.125 456.5 L 433.625 456.75 L 432.875 457.5 C 433.375 469.5 433.5 474.125 433.5 491.375 C 433.5 509.125 433.375 526.75 433.125 544.5 L 434 545 L 455.75 545 M 454.875 507 C 464.375 506.75 469.875 506.75 473.5 508.875 C 477.125 511.125 478.5 515.125 478.5 519.125 C 478.5 524.75 475.375 528.25 470.75 529.875 C 467 531.125 460.25 531.125 454.875 531 L 454.875 507 M 454.875 470.25 C 457.5 470.25 461 470.125 463.125 470.125 C 469.875 470.125 476 472.5 476 480.625 C 476 487.25 471.125 490 469.625 490.75 C 466.5 492.125 459.875 492.125 454.875 492.125 Z M 576.875 511.75 C 576.875 506.875 576.875 486.625 559.375 479.75 C 553.875 477.625 547.375 477.375 544.125 477.375 C 522.375 477.375 510.125 489 510.125 512 C 510.125 520 511.375 528.125 516 534.875 C 519.25 539.75 525.375 546.5 543.25 546.5 C 569.75 546.5 576.875 530.5 576.875 511.75 M 555.25 511.625 C 555.25 521.875 553.875 533.25 543.5 533.25 C 540.25 533.25 538 531.75 536.5 530.375 C 534.375 528.25 532 524 532 511.875 C 532 508.25 532 500.25 534.5 495.875 C 536.375 492.5 539.625 490.25 543.625 490.25 C 547.125 490.25 550 492.125 551.625 494.125 C 554.625 497.75 555.25 504.875 555.25 511.625 Z M 624.875 498.625 L 628.375 478.25 L 627.625 477.375 C 626.75 477.375 625.875 477.25 625 477.25 C 619.875 477.25 614.125 480.125 610.125 489.375 L 610.5 477.875 L 609.5 476.875 C 600.25 478.875 597.875 479.25 588.75 480.625 L 588 481.375 C 588.75 490.75 589.125 496.375 589.125 513.75 C 589.125 524 589 534.25 588.75 544.625 L 589.5 545.375 C 598.75 545 600.75 544.875 610.75 545 L 611.375 544.125 C 610.875 534 610.125 519.875 610.125 511.25 C 610.125 505.625 610.125 497.375 618.625 497.375 C 620.75 497.375 622 498.125 623.75 499.125 Z M 671.75 498.625 L 675.25 478.25 L 674.5 477.375 C 673.625 477.375 672.75 477.25 671.875 477.25 C 666.75 477.25 661 480.125 657 489.375 L 657.375 477.875 L 656.375 476.875 C 647.125 478.875 644.75 479.25 635.625 480.625 L 634.875 481.375 C 635.625 490.75 636 496.375 636 513.75 C 636 524 635.875 534.25 635.625 544.625 L 636.375 545.375 C 645.625 545 647.625 544.875 657.625 545 L 658.25 544.125 C 657.75 534 657 519.875 657 511.25 C 657 505.625 657 497.375 665.5 497.375 C 667.625 497.375 668.875 498.125 670.625 499.125 Z M 738 526.5 C 733.25 529 727.625 531.875 718.5 531.875 C 711 531.875 705.875 529.5 702.875 525 C 701 522.375 700.625 519.875 700.125 517.375 L 740.5 516.625 L 741.25 515.75 C 741.125 509.625 741 503.375 739.25 497.125 C 734.875 482.375 725.25 479.375 721 478.375 C 717.875 477.5 715 477.25 712.125 477.25 C 692.5 477.25 679.5 490.125 679.5 511.75 C 679.5 517.625 680.5 523.75 682.5 528.125 C 689.75 545 706.75 546.5 715.75 546.5 C 726.125 546.5 730.625 544.625 737.25 542 L 738 541 L 738.875 526.875 L 738 526.5 M 700.125 504.125 C 700.5 500.25 701.375 495 706.125 492 C 707.625 491 709.375 490.625 711.125 490.625 C 715.25 490.625 717.75 492.75 719.125 495 C 720.875 497.75 721 500.75 721 503.625 Z M 775.75 523.875 C 779.75 524 783.75 524.25 789.75 522.25 C 796.25 520 805.75 514.625 805.75 502.5 C 805.75 496.5 804 494 802.375 491.625 L 811 492.125 L 811.75 491.5 L 812.625 479 L 811.875 478.375 C 802.25 478.75 799.625 478.875 791.75 478.75 L 786 478.625 C 777.125 478.375 765.25 478.125 757.125 484.875 C 754.375 487 749.125 492.375 749.125 501.75 C 749.125 506.75 750.5 510.75 752.75 513.875 C 755.5 517.75 758 519.125 761.125 520.875 C 757.625 527.625 755.75 531 752.875 536.125 L 752.875 537.25 L 758.125 541 C 754.375 543.875 748.5 548.625 748.5 556.75 C 748.5 562.5 751.625 567.5 756.25 570.875 C 763.25 575.875 772.75 576.125 777.625 576.125 C 800.5 576.125 811 564.625 811 552.5 C 811 536.75 797.25 533.75 789.125 531.875 L 786.125 531.375 C 780 530.375 778.625 530 773.75 528.25 L 775.75 523.875 M 786 501.375 C 785.875 511.5 779.75 512.375 778 512.375 C 777 512.375 772.625 512.125 770.5 507.125 C 769.375 504.5 769.375 501.5 769.375 500.625 C 769.375 494.375 773.125 490.375 777.75 490.375 C 783.5 490.375 786.125 495.875 786 501.375 M 775.375 548 C 786.5 550.875 786.625 550.875 788.125 552.125 C 789.375 553 790.625 554.375 790.625 557 C 790.625 560.75 787.5 564.625 779.25 564.625 C 770 564.625 766.875 559.375 766.875 555 C 766.875 550.875 769 548.5 770.5 546.75 Z M 884.125 511.75 C 884.125 506.875 884.125 486.625 866.625 479.75 C 861.125 477.625 854.625 477.375 851.375 477.375 C 829.625 477.375 817.375 489 817.375 512 C 817.375 520 818.625 528.125 823.25 534.875 C 826.5 539.75 832.625 546.5 850.5 546.5 C 877 546.5 884.125 530.5 884.125 511.75 M 862.5 511.625 C 862.5 521.875 861.125 533.25 850.75 533.25 C 847.5 533.25 845.25 531.75 843.75 530.375 C 841.625 528.25 839.25 524 839.25 511.875 C 839.25 508.25 839.25 500.25 841.75 495.875 C 843.625 492.5 846.875 490.25 850.875 490.25 C 854.375 490.25 857.25 492.125 858.875 494.125 C 861.875 497.75 862.5 504.875 862.5 511.625 Z M 888.5 545 "/>
<path fill-rule="nonzero" fill="rgb(34.901961%, 14.901961%, 14.901961%)" fill-opacity="1" d="M 157.8125 695 C 161.0625 695.125 164.4375 695.125 167.6875 695.125 C 181.6875 695.125 204.3125 694.625 213.4375 672.375 C 216.8125 664.125 217.5625 654.125 217.5625 648.5 C 217.5625 636.75 214.9375 627.75 211.8125 622.125 C 203.3125 606.625 187.1875 606.125 172.9375 606.125 C 167.1875 606.125 161.4375 606.375 155.6875 606.625 L 142.4375 606.75 L 141.6875 607.5 C 142.1875 619.5 142.6875 630 142.6875 664.625 C 142.6875 676.875 142.5625 684.25 142.3125 694.5 L 143.0625 695 L 157.8125 695 M 164.6875 678.875 C 164.4375 666.625 164.3125 655 164.3125 643 C 164.3125 636.25 164.3125 629.5 164.4375 622.75 C 166.9375 622.625 169.5625 622.5 172.0625 622.5 C 179.6875 622.5 194.5625 622.5 194.5625 649.125 C 194.5625 664.75 188.6875 671.75 185.6875 674.25 C 180.0625 678.875 171.4375 678.875 164.6875 678.875 Z M 285.8125 676.5 C 281.0625 679 275.4375 681.875 266.3125 681.875 C 258.8125 681.875 253.6875 679.5 250.6875 675 C 248.8125 672.375 248.4375 669.875 247.9375 667.375 L 288.3125 666.625 L 289.0625 665.75 C 288.9375 659.625 288.8125 653.375 287.0625 647.125 C 282.6875 632.375 273.0625 629.375 268.8125 628.375 C 265.6875 627.5 262.8125 627.25 259.9375 627.25 C 240.3125 627.25 227.3125 640.125 227.3125 661.75 C 227.3125 667.625 228.3125 673.75 230.3125 678.125 C 237.5625 695 254.5625 696.5 263.5625 696.5 C 273.9375 696.5 278.4375 694.625 285.0625 692 L 285.8125 691 L 286.6875 676.875 L 285.8125 676.5 M 247.9375 654.125 C 248.3125 650.25 249.1875 645 253.9375 642 C 255.4375 641 257.1875 640.625 258.9375 640.625 C 263.0625 640.625 265.5625 642.75 266.9375 645 C 268.6875 647.75 268.8125 650.75 268.8125 653.625 Z M 326.8125 651.875 C 322.5625 650.375 319.1875 649 319.1875 645.5 C 319.1875 644 320.1875 639.875 327.9375 639.875 C 335.5625 639.875 340.4375 643.125 343.5625 645.125 L 344.6875 644.75 L 345.9375 631.125 L 345.3125 630.375 C 339.4375 628.75 334.3125 627.25 326.1875 627.25 C 320.0625 627.25 307.8125 627.75 301.3125 637.125 C 299.6875 639.375 297.9375 643.125 297.9375 648.125 C 297.9375 661.5 308.3125 665.5 314.1875 667.75 L 318.9375 669.5 C 322.3125 670.625 327.8125 672.5 327.8125 677 C 327.8125 680.125 324.9375 683.5 317.9375 683.5 C 314.4375 683.5 309.3125 682.375 304.6875 680 C 302.5625 678.875 301.5625 678 299.6875 676.5 L 298.5625 677 C 298.3125 683.5 298.1875 684.875 297.6875 691.125 L 298.3125 692.25 C 304.4375 694.5 309.6875 696.5 318.8125 696.5 C 328.3125 696.5 347.0625 694.75 349.3125 676.875 C 349.4375 675.875 349.4375 675 349.4375 674.125 C 349.4375 660.375 339.8125 656.75 332.9375 654.125 Z M 415.9375 676.5 C 411.1875 679 405.5625 681.875 396.4375 681.875 C 388.9375 681.875 383.8125 679.5 380.8125 675 C 378.9375 672.375 378.5625 669.875 378.0625 667.375 L 418.4375 666.625 L 419.1875 665.75 C 419.0625 659.625 418.9375 653.375 417.1875 647.125 C 412.8125 632.375 403.1875 629.375 398.9375 628.375 C 395.8125 627.5 392.9375 627.25 390.0625 627.25 C 370.4375 627.25 357.4375 640.125 357.4375 661.75 C 357.4375 667.625 358.4375 673.75 360.4375 678.125 C 367.6875 695 384.6875 696.5 393.6875 696.5 C 404.0625 696.5 408.5625 694.625 415.1875 692 L 415.9375 691 L 416.8125 676.875 L 415.9375 676.5 M 378.0625 654.125 C 378.4375 650.25 379.3125 645 384.0625 642 C 385.5625 641 387.3125 640.625 389.0625 640.625 C 393.1875 640.625 395.6875 642.75 397.0625 645 C 398.8125 647.75 398.9375 650.75 398.9375 653.625 Z M 466.8125 648.625 L 470.3125 628.25 L 469.5625 627.375 C 468.6875 627.375 467.8125 627.25 466.9375 627.25 C 461.8125 627.25 456.0625 630.125 452.0625 639.375 L 452.4375 627.875 L 451.4375 626.875 C 442.1875 628.875 439.8125 629.25 430.6875 630.625 L 429.9375 631.375 C 430.6875 640.75 431.0625 646.375 431.0625 663.75 C 431.0625 674 430.9375 684.25 430.6875 694.625 L 431.4375 695.375 C 440.6875 695 442.6875 694.875 452.6875 695 L 453.3125 694.125 C 452.8125 684 452.0625 669.875 452.0625 661.25 C 452.0625 655.625 452.0625 647.375 460.5625 647.375 C 462.6875 647.375 463.9375 648.125 465.6875 649.125 Z M 512.5625 680.625 C 510.4375 681.25 508.9375 681.75 506.8125 681.75 C 500.4375 681.75 499.9375 677.75 499.6875 675.875 C 499.3125 672.625 499.3125 665.75 499.4375 660.75 L 499.6875 643.125 L 510.9375 643.625 L 511.6875 642.875 L 512.9375 629.5 L 512.1875 628.75 L 499.6875 628.75 L 500.0625 607.75 L 499.1875 607 C 490.6875 609.5 488.4375 610.125 479.5625 612.375 L 479.0625 613.25 L 479.1875 628.875 L 472.4375 628.625 L 471.6875 629.25 L 470.5625 642.625 L 471.3125 643.375 L 479.1875 643.125 L 478.8125 663 C 478.6875 666.125 478.5625 669.25 478.5625 672.5 C 478.5625 684 478.8125 696.375 498.3125 696.375 C 503.1875 696.375 507.0625 695.625 511.4375 694.875 L 512.3125 694 L 513.5625 681.125 Z M 594.4375 641.25 C 583.9375 636.875 578.4375 634.625 578.4375 629 C 578.4375 625.125 582.0625 620.25 590.3125 620.25 C 599.8125 620.25 605.4375 624.125 610.0625 627.25 L 611.1875 626.75 L 612.1875 610.375 L 611.5625 609.5 C 606.1875 607.25 600.5625 604.875 588.4375 604.875 C 564.9375 604.875 556.8125 618.125 556.8125 631.5 C 556.8125 646.625 568.5625 652.125 575.5625 655.5 L 579.6875 657.375 C 588.3125 661 594.9375 664.125 594.9375 670.75 C 594.9375 675.5 590.8125 681.125 579.9375 681.125 C 568.5625 681.125 562.1875 676.125 558.5625 673.25 L 557.3125 673.625 L 556.4375 691.25 L 557.1875 692.25 C 558.5625 692.75 559.9375 693.375 561.3125 693.75 C 564.1875 694.75 571.5625 696.875 580.9375 696.875 C 584.6875 696.875 594.1875 696.5 601.6875 693 C 612.1875 687.875 616.6875 678.375 616.6875 667.75 C 616.6875 660.625 613.9375 653 607.3125 647.875 C 603.9375 645.375 600.6875 643.875 597.6875 642.5 Z M 663.5625 680.625 C 661.4375 681.25 659.9375 681.75 657.8125 681.75 C 651.4375 681.75 650.9375 677.75 650.6875 675.875 C 650.3125 672.625 650.3125 665.75 650.4375 660.75 L 650.6875 643.125 L 661.9375 643.625 L 662.6875 642.875 L 663.9375 629.5 L 663.1875 628.75 L 650.6875 628.75 L 651.0625 607.75 L 650.1875 607 C 641.6875 609.5 639.4375 610.125 630.5625 612.375 L 630.0625 613.25 L 630.1875 628.875 L 623.4375 628.625 L 622.6875 629.25 L 621.5625 642.625 L 622.3125 643.375 L 630.1875 643.125 L 629.8125 663 C 629.6875 666.125 629.5625 669.25 629.5625 672.5 C 629.5625 684 629.8125 696.375 649.3125 696.375 C 654.1875 696.375 658.0625 695.625 662.4375 694.875 L 663.3125 694 L 664.5625 681.125 Z M 728.4375 657.75 C 728.5625 646.5 728.5625 641.625 725.3125 636.375 C 722.8125 632.375 717.8125 627.375 701.8125 627.375 C 691.0625 627.375 684.4375 629.375 677.3125 631.5 L 676.5625 632.5 L 675.9375 646.125 L 676.9375 646.625 C 681.3125 644.875 689.4375 641.625 697.8125 641.625 C 702.4375 641.625 704.3125 642.375 705.9375 644 C 707.1875 645.25 707.5625 647.5 707.5625 649.375 C 692.5625 651.375 685.5625 652.75 678.0625 657.375 C 671.0625 661.75 668.6875 668.875 668.6875 674.5 C 668.6875 687.875 678.3125 696.5 690.5625 696.5 C 699.9375 696.5 705.3125 692 707.9375 689.875 L 707.9375 694.5 L 708.6875 695.375 C 717.6875 695 720.4375 694.875 728.5625 695 L 729.1875 694.125 C 728.3125 681.875 728.3125 678.75 728.3125 667 L 728.4375 657.75 M 707.8125 677.625 C 705.1875 679.125 701.8125 680.875 697.6875 680.875 C 693.1875 680.875 689.4375 678.5 689.4375 673.25 C 689.4375 665 699.3125 663.625 707.8125 662.5 Z M 778.0625 680.625 C 775.9375 681.25 774.4375 681.75 772.3125 681.75 C 765.9375 681.75 765.4375 677.75 765.1875 675.875 C 764.8125 672.625 764.8125 665.75 764.9375 660.75 L 765.1875 643.125 L 776.4375 643.625 L 777.1875 642.875 L 778.4375 629.5 L 777.6875 628.75 L 765.1875 628.75 L 765.5625 607.75 L 764.6875 607 C 756.1875 609.5 753.9375 610.125 745.0625 612.375 L 744.5625 613.25 L 744.6875 628.875 L 737.9375 628.625 L 737.1875 629.25 L 736.0625 642.625 L 736.8125 643.375 L 744.6875 643.125 L 744.3125 663 C 744.1875 666.125 744.0625 669.25 744.0625 672.5 C 744.0625 684 744.3125 696.375 763.8125 696.375 C 768.6875 696.375 772.5625 695.625 776.9375 694.875 L 777.8125 694 L 779.0625 681.125 Z M 842.8125 676.5 C 838.0625 679 832.4375 681.875 823.3125 681.875 C 815.8125 681.875 810.6875 679.5 807.6875 675 C 805.8125 672.375 805.4375 669.875 804.9375 667.375 L 845.3125 666.625 L 846.0625 665.75 C 845.9375 659.625 845.8125 653.375 844.0625 647.125 C 839.6875 632.375 830.0625 629.375 825.8125 628.375 C 822.6875 627.5 819.8125 627.25 816.9375 627.25 C 797.3125 627.25 784.3125 640.125 784.3125 661.75 C 784.3125 667.625 785.3125 673.75 787.3125 678.125 C 794.5625 695 811.5625 696.5 820.5625 696.5 C 830.9375 696.5 835.4375 694.625 842.0625 692 L 842.8125 691 L 843.6875 676.875 L 842.8125 676.5 M 804.9375 654.125 C 805.3125 650.25 806.1875 645 810.9375 642 C 812.4375 641 814.1875 640.625 815.9375 640.625 C 820.0625 640.625 822.5625 642.75 823.9375 645 C 825.6875 647.75 825.8125 650.75 825.8125 653.625 Z M 850.0625 695 "/>
<path fill-rule="nonzero" fill="rgb(34.901961%, 14.901961%, 14.901961%)" fill-opacity="1" d="M 382.375 756.5 L 366.5 756.75 L 365.75 757.5 C 366.25 773.75 366.625 784.625 366.625 799 C 366.625 814.25 366.25 829.375 365.875 844.625 L 366.625 845.375 C 375.875 845 377.875 844.875 387.875 845 L 388.5 844.25 C 388 830.625 388 827.5 388 814.75 C 402 814.875 417 814.875 426 803.875 C 429.5 799.625 432.5 792.5 432.5 783.75 C 432.5 778.375 431.25 766.5 420.875 760.625 C 413.375 756.25 402.75 756.25 393.375 756.25 L 382.375 756.5 M 388 771.625 C 390.75 771.5 393.375 771.5 396.125 771.5 C 407.125 771.75 410.125 777.375 410.125 784.625 C 410.125 786.375 410.125 793.625 403.5 797.25 C 400.125 799.125 395.5 799.375 388 799.375 Z M 496.75 807.75 C 496.875 796.5 496.875 791.625 493.625 786.375 C 491.125 782.375 486.125 777.375 470.125 777.375 C 459.375 777.375 452.75 779.375 445.625 781.5 L 444.875 782.5 L 444.25 796.125 L 445.25 796.625 C 449.625 794.875 457.75 791.625 466.125 791.625 C 470.75 791.625 472.625 792.375 474.25 794 C 475.5 795.25 475.875 797.5 475.875 799.375 C 460.875 801.375 453.875 802.75 446.375 807.375 C 439.375 811.75 437 818.875 437 824.5 C 437 837.875 446.625 846.5 458.875 846.5 C 468.25 846.5 473.625 842 476.25 839.875 L 476.25 844.5 L 477 845.375 C 486 845 488.75 844.875 496.875 845 L 497.5 844.125 C 496.625 831.875 496.625 828.75 496.625 817 L 496.75 807.75 M 476.125 827.625 C 473.5 829.125 470.125 830.875 466 830.875 C 461.5 830.875 457.75 828.5 457.75 823.25 C 457.75 815 467.625 813.625 476.125 812.5 Z M 547.5 798.625 L 551 778.25 L 550.25 777.375 C 549.375 777.375 548.5 777.25 547.625 777.25 C 542.5 777.25 536.75 780.125 532.75 789.375 L 533.125 777.875 L 532.125 776.875 C 522.875 778.875 520.5 779.25 511.375 780.625 L 510.625 781.375 C 511.375 790.75 511.75 796.375 511.75 813.75 C 511.75 824 511.625 834.25 511.375 844.625 L 512.125 845.375 C 521.375 845 523.375 844.875 533.375 845 L 534 844.125 C 533.5 834 532.75 819.875 532.75 811.25 C 532.75 805.625 532.75 797.375 541.25 797.375 C 543.375 797.375 544.625 798.125 546.375 799.125 Z M 622.5 843.375 C 610.75 823.5 609.5 821.25 600 804.125 C 608.625 792.375 609.5 791.125 618.375 779.75 L 617.75 778.5 L 597.375 778.75 L 596.125 779.625 C 586.375 796.5 585.125 798.5 579.375 807.125 L 579.375 793.25 C 579.5 769.875 579.625 764.875 580.25 746 L 579.25 745.25 L 557.5 748.5 L 556.75 749.375 C 557.625 761.5 558 767.375 558.25 783.75 C 558.5 804 558.5 824.25 558.375 844.5 L 559.25 845.375 C 567.625 845 570 845 579.5 845 L 580.25 844.125 L 579.5 823 L 579.375 808.625 C 590.25 828.625 591.625 831.375 598 844.625 L 599.125 845.375 L 621.625 844.5 Z M 621 845 "/>
</svg>
