<?xml version="1.0" encoding="UTF-8"?>
<svg xmlns="http://www.w3.org/2000/svg" xmlns:xlink="http://www.w3.org/1999/xlink" width="975" height="1300" viewBox="0 0 975 1300">
<path fill-rule="nonzero" fill="rgb(34.901961%, 14.901961%, 14.901961%)" fill-opacity="1" d="M 205.625 566.25 C 195.125 561.875 189.625 559.625 189.625 554 C 189.625 550.125 193.25 545.25 201.5 545.25 C 211 545.25 216.625 549.125 221.25 552.25 L 222.375 551.75 L 223.375 535.375 L 222.75 534.5 C 217.375 532.25 211.75 529.875 199.625 529.875 C 176.125 529.875 168 543.125 168 556.5 C 168 571.625 179.75 577.125 186.75 580.5 L 190.875 582.375 C 199.5 586 206.125 589.125 206.125 595.75 C 206.125 600.5 202 606.125 191.125 606.125 C 179.75 606.125 173.375 601.125 169.75 598.25 L 168.5 598.625 L 167.625 616.25 L 168.375 617.25 C 169.75 617.75 171.125 618.375 172.5 618.75 C 175.375 619.75 182.75 621.875 192.125 621.875 C 195.875 621.875 205.375 621.5 212.875 618 C 223.375 612.875 227.875 603.375 227.875 592.75 C 227.875 585.625 225.125 578 218.5 572.875 C 215.125 570.375 211.875 568.875 208.875 567.5 Z M 295.375 582.75 C 295.5 571.5 295.5 566.625 292.25 561.375 C 289.75 557.375 284.75 552.375 268.75 552.375 C 258 552.375 251.375 554.375 244.25 556.5 L 243.5 557.5 L 242.875 571.125 L 243.875 571.625 C 248.25 569.875 256.375 566.625 264.75 566.625 C 269.375 566.625 271.25 567.375 272.875 569 C 274.125 570.25 274.5 572.5 274.5 574.375 C 259.5 576.375 252.5 577.75 245 582.375 C 238 586.75 235.625 593.875 235.625 599.5 C 235.625 612.875 245.25 621.5 257.5 621.5 C 266.875 621.5 272.25 617 274.875 614.875 L 274.875 619.5 L 275.625 620.375 C 284.625 620 287.375 619.875 295.5 620 L 296.125 619.125 C 295.25 606.875 295.25 603.75 295.25 592 L 295.375 582.75 M 274.75 602.625 C 272.125 604.125 268.75 605.875 264.625 605.875 C 260.125 605.875 256.375 603.5 256.375 598.25 C 256.375 590 266.25 588.625 274.75 587.5 Z M 371.25 619.125 C 370.625 608.125 370.625 604.625 370.375 592.375 L 370.375 582.625 C 370.25 570.625 370.125 564.875 367 559.75 C 363.125 553.25 356 552.25 351.5 552.25 C 343.875 552.25 337.25 556.25 331.5 559.625 L 331.75 552.75 L 330.5 551.875 C 320.875 553.875 318.75 554.25 309.375 555.5 L 308.625 556.375 C 309.625 567.25 310.375 575.125 310.375 595.5 C 310.375 603.5 310.25 611.5 310.125 619.5 L 310.875 620.25 C 319.875 619.875 321.75 619.875 331.75 619.875 L 332.5 619.125 C 331.75 599.875 331.625 595 331.5 572.625 C 334.125 570.875 337.125 568.75 341.125 568.75 C 348 568.75 348.625 576.125 349 580.625 C 349.25 584.75 349.375 601.875 349.375 606.625 C 349.375 610.875 349.25 615.25 349.25 619.5 L 350 620.25 C 358.25 620 360.375 619.875 370.375 619.875 Z M 493.625 543.25 C 491.5 540.5 489 538.125 486.125 536.25 C 479.75 532 471 529.875 462.25 529.875 C 454.5 529.875 446.625 531.25 439.875 535.125 C 424.625 543.875 421.875 558.375 420.875 563.625 C 420.125 567.875 419.75 572.125 419.75 576.375 C 419.75 584.875 420.75 600.875 432.5 611.75 C 442 620.625 455 621.875 461.375 621.875 C 471 621.875 480.75 619.625 488.125 613.5 C 500.5 603.25 503 586.25 503 575.625 C 503 556 496.75 547.125 493.625 543.25 M 473.875 551.25 C 476.375 554.125 477.5 557.75 478.25 561.375 C 479.25 566.125 479.5 570.625 479.625 573.75 C 480.125 592.5 476.125 606 461.625 606 C 444.25 606 443.125 585.75 443.125 574.5 C 443.125 559.5 446.75 551.75 452.625 548 C 456 546 459.375 545.5 461.75 545.5 C 466.5 545.5 470.875 547.625 473.875 551.25 Z M 577 619.125 C 576.375 608.125 576.375 604.625 576.125 592.375 L 576.125 582.625 C 576 570.625 575.875 564.875 572.75 559.75 C 568.875 553.25 561.75 552.25 557.25 552.25 C 549.625 552.25 543 556.25 537.25 559.625 L 537.5 552.75 L 536.25 551.875 C 526.625 553.875 524.5 554.25 515.125 555.5 L 514.375 556.375 C 515.375 567.25 516.125 575.125 516.125 595.5 C 516.125 603.5 516 611.5 515.875 619.5 L 516.625 620.25 C 525.625 619.875 527.5 619.875 537.5 619.875 L 538.25 619.125 C 537.5 599.875 537.375 595 537.25 572.625 C 539.875 570.875 542.875 568.75 546.875 568.75 C 553.75 568.75 554.375 576.125 554.75 580.625 C 555 584.75 555.125 601.875 555.125 606.625 C 555.125 610.875 555 615.25 555 619.5 L 555.75 620.25 C 564 620 566.125 619.875 576.125 619.875 Z M 654.875 586.75 C 654.875 581.875 654.875 561.625 637.375 554.75 C 631.875 552.625 625.375 552.375 622.125 552.375 C 600.375 552.375 588.125 564 588.125 587 C 588.125 595 589.375 603.125 594 609.875 C 597.25 614.75 603.375 621.5 621.25 621.5 C 647.75 621.5 654.875 605.5 654.875 586.75 M 633.25 586.625 C 633.25 596.875 631.875 608.25 621.5 608.25 C 618.25 608.25 616 606.75 614.5 605.375 C 612.375 603.25 610 599 610 586.875 C 610 583.25 610 575.25 612.5 570.875 C 614.375 567.5 617.625 565.25 621.625 565.25 C 625.125 565.25 628 567.125 629.625 569.125 C 632.625 572.75 633.25 579.875 633.25 586.625 Z M 691.75 619.125 C 690.5 596.375 690.375 590.25 690.5 568.125 L 700.375 568.625 L 701.25 567.75 L 702.375 554.5 L 701.75 553.75 L 690.375 553.75 L 690.5 550.875 C 690.5 543.25 690.625 536.25 698.75 536.25 C 700 536.25 701.25 536.5 702.5 536.625 L 703.375 536.125 L 704.5 522 L 703.875 521.125 C 700.875 520.875 698 520.75 695.125 520.75 C 688.75 520.75 682.25 521.5 677.25 525.25 C 669.5 531 669.625 540 669.625 546.25 L 669.75 553.75 L 661.625 553.625 L 660.875 554.25 L 659.625 567.5 L 660.375 568.25 L 669.875 568 C 669.875 591.625 669.875 597.25 669.125 619.5 L 669.875 620.375 C 678.375 620 681.625 619.875 691 619.875 Z M 747.125 573.625 L 750.625 553.25 L 749.875 552.375 C 749 552.375 748.125 552.25 747.25 552.25 C 742.125 552.25 736.375 555.125 732.375 564.375 L 732.75 552.875 L 731.75 551.875 C 722.5 553.875 720.125 554.25 711 555.625 L 710.25 556.375 C 711 565.75 711.375 571.375 711.375 588.75 C 711.375 599 711.25 609.25 711 619.625 L 711.75 620.375 C 721 620 723 619.875 733 620 L 733.625 619.125 C 733.125 609 732.375 594.875 732.375 586.25 C 732.375 580.625 732.375 572.375 740.875 572.375 C 743 572.375 744.25 573.125 746 574.125 Z M 813.375 601.5 C 808.625 604 803 606.875 793.875 606.875 C 786.375 606.875 781.25 604.5 778.25 600 C 776.375 597.375 776 594.875 775.5 592.375 L 815.875 591.625 L 816.625 590.75 C 816.5 584.625 816.375 578.375 814.625 572.125 C 810.25 557.375 800.625 554.375 796.375 553.375 C 793.25 552.5 790.375 552.25 787.5 552.25 C 767.875 552.25 754.875 565.125 754.875 586.75 C 754.875 592.625 755.875 598.75 757.875 603.125 C 765.125 620 782.125 621.5 791.125 621.5 C 801.5 621.5 806 619.625 812.625 617 L 813.375 616 L 814.25 601.875 L 813.375 601.5 M 775.5 579.125 C 775.875 575.25 776.75 570 781.5 567 C 783 566 784.75 565.625 786.5 565.625 C 790.625 565.625 793.125 567.75 794.5 570 C 796.25 572.75 796.375 575.75 796.375 578.625 Z M 820.625 620 "/>
<path fill-rule="nonzero" fill="rgb(34.901961%, 14.901961%, 14.901961%)" fill-opacity="1" d="M 190.125 716.25 C 179.625 711.875 174.125 709.625 174.125 704 C 174.125 700.125 177.75 695.25 186 695.25 C 195.5 695.25 201.125 699.125 205.75 702.25 L 206.875 701.75 L 207.875 685.375 L 207.25 684.5 C 201.875 682.25 196.25 679.875 184.125 679.875 C 160.625 679.875 152.5 693.125 152.5 706.5 C 152.5 721.625 164.25 727.125 171.25 730.5 L 175.375 732.375 C 184 736 190.625 739.125 190.625 745.75 C 190.625 750.5 186.5 756.125 175.625 756.125 C 164.25 756.125 157.875 751.125 154.25 748.25 L 153 748.625 L 152.125 766.25 L 152.875 767.25 C 154.25 767.75 155.625 768.375 157 768.75 C 159.875 769.75 167.25 771.875 176.625 771.875 C 180.375 771.875 189.875 771.5 197.375 768 C 207.875 762.875 212.375 753.375 212.375 742.75 C 212.375 735.625 209.625 728 203 722.875 C 199.625 720.375 196.375 718.875 193.375 717.5 Z M 259.25 755.625 C 257.125 756.25 255.625 756.75 253.5 756.75 C 247.125 756.75 246.625 752.75 246.375 750.875 C 246 747.625 246 740.75 246.125 735.75 L 246.375 718.125 L 257.625 718.625 L 258.375 717.875 L 259.625 704.5 L 258.875 703.75 L 246.375 703.75 L 246.75 682.75 L 245.875 682 C 237.375 684.5 235.125 685.125 226.25 687.375 L 225.75 688.25 L 225.875 703.875 L 219.125 703.625 L 218.375 704.25 L 217.25 717.625 L 218 718.375 L 225.875 718.125 L 225.5 738 C 225.375 741.125 225.25 744.25 225.25 747.5 C 225.25 759 225.5 771.375 245 771.375 C 249.875 771.375 253.75 770.625 258.125 769.875 L 259 769 L 260.25 756.125 Z M 324.125 732.75 C 324.25 721.5 324.25 716.625 321 711.375 C 318.5 707.375 313.5 702.375 297.5 702.375 C 286.75 702.375 280.125 704.375 273 706.5 L 272.25 707.5 L 271.625 721.125 L 272.625 721.625 C 277 719.875 285.125 716.625 293.5 716.625 C 298.125 716.625 300 717.375 301.625 719 C 302.875 720.25 303.25 722.5 303.25 724.375 C 288.25 726.375 281.25 727.75 273.75 732.375 C 266.75 736.75 264.375 743.875 264.375 749.5 C 264.375 762.875 274 771.5 286.25 771.5 C 295.625 771.5 301 767 303.625 764.875 L 303.625 769.5 L 304.375 770.375 C 313.375 770 316.125 769.875 324.25 770 L 324.875 769.125 C 324 756.875 324 753.75 324 742 L 324.125 732.75 M 303.5 752.625 C 300.875 754.125 297.5 755.875 293.375 755.875 C 288.875 755.875 285.125 753.5 285.125 748.25 C 285.125 740 295 738.625 303.5 737.5 Z M 373.75 755.625 C 371.625 756.25 370.125 756.75 368 756.75 C 361.625 756.75 361.125 752.75 360.875 750.875 C 360.5 747.625 360.5 740.75 360.625 735.75 L 360.875 718.125 L 372.125 718.625 L 372.875 717.875 L 374.125 704.5 L 373.375 703.75 L 360.875 703.75 L 361.25 682.75 L 360.375 682 C 351.875 684.5 349.625 685.125 340.75 687.375 L 340.25 688.25 L 340.375 703.875 L 333.625 703.625 L 332.875 704.25 L 331.75 717.625 L 332.5 718.375 L 340.375 718.125 L 340 738 C 339.875 741.125 339.75 744.25 339.75 747.5 C 339.75 759 340 771.375 359.5 771.375 C 364.375 771.375 368.25 770.625 372.625 769.875 L 373.5 769 L 374.75 756.125 Z M 438.5 751.5 C 433.75 754 428.125 756.875 419 756.875 C 411.5 756.875 406.375 754.5 403.375 750 C 401.5 747.375 401.125 744.875 400.625 742.375 L 441 741.625 L 441.75 740.75 C 441.625 734.625 441.5 728.375 439.75 722.125 C 435.375 707.375 425.75 704.375 421.5 703.375 C 418.375 702.5 415.5 702.25 412.625 702.25 C 393 702.25 380 715.125 380 736.75 C 380 742.625 381 748.75 383 753.125 C 390.25 770 407.25 771.5 416.25 771.5 C 426.625 771.5 431.125 769.625 437.75 767 L 438.5 766 L 439.375 751.875 L 438.5 751.5 M 400.625 729.125 C 401 725.25 401.875 720 406.625 717 C 408.125 716 409.875 715.625 411.625 715.625 C 415.75 715.625 418.25 717.75 419.625 720 C 421.375 722.75 421.5 725.75 421.5 728.625 Z M 513 770 C 524.625 770.25 539 770.5 548.375 764 C 556.625 758.125 558.875 749.875 558.875 742.875 C 558.875 734.875 555.5 727.5 548.375 724 C 546 722.75 543.25 722.25 540.625 721.75 C 544.875 720 549.875 717.75 553.125 711.125 C 554.5 708.25 555.125 705.25 555.125 702.375 C 555.125 698.375 554.125 692.875 550.125 688.375 C 544.875 682.75 536.75 681.25 524.5 681.25 C 520.25 681.25 512.625 681.375 508.375 681.5 L 490.875 681.75 L 490.125 682.5 C 490.625 694.5 490.75 699.125 490.75 716.375 C 490.75 734.125 490.625 751.75 490.375 769.5 L 491.25 770 L 513 770 M 512.125 732 C 521.625 731.75 527.125 731.75 530.75 733.875 C 534.375 736.125 535.75 740.125 535.75 744.125 C 535.75 749.75 532.625 753.25 528 754.875 C 524.25 756.125 517.5 756.125 512.125 756 L 512.125 732 M 512.125 695.25 C 514.75 695.25 518.25 695.125 520.375 695.125 C 527.125 695.125 533.25 697.5 533.25 705.625 C 533.25 712.25 528.375 715 526.875 715.75 C 523.75 717.125 517.125 717.125 512.125 717.125 Z M 626 751.5 C 621.25 754 615.625 756.875 606.5 756.875 C 599 756.875 593.875 754.5 590.875 750 C 589 747.375 588.625 744.875 588.125 742.375 L 628.5 741.625 L 629.25 740.75 C 629.125 734.625 629 728.375 627.25 722.125 C 622.875 707.375 613.25 704.375 609 703.375 C 605.875 702.5 603 702.25 600.125 702.25 C 580.5 702.25 567.5 715.125 567.5 736.75 C 567.5 742.625 568.5 748.75 570.5 753.125 C 577.75 770 594.75 771.5 603.75 771.5 C 614.125 771.5 618.625 769.625 625.25 767 L 626 766 L 626.875 751.875 L 626 751.5 M 588.125 729.125 C 588.5 725.25 589.375 720 594.125 717 C 595.625 716 597.375 715.625 599.125 715.625 C 603.25 715.625 605.75 717.75 607.125 720 C 608.875 722.75 609 725.75 609 728.625 Z M 696.375 732.75 C 696.5 721.5 696.5 716.625 693.25 711.375 C 690.75 707.375 685.75 702.375 669.75 702.375 C 659 702.375 652.375 704.375 645.25 706.5 L 644.5 707.5 L 643.875 721.125 L 644.875 721.625 C 649.25 719.875 657.375 716.625 665.75 716.625 C 670.375 716.625 672.25 717.375 673.875 719 C 675.125 720.25 675.5 722.5 675.5 724.375 C 660.5 726.375 653.5 727.75 646 732.375 C 639 736.75 636.625 743.875 636.625 749.5 C 636.625 762.875 646.25 771.5 658.5 771.5 C 667.875 771.5 673.25 767 675.875 764.875 L 675.875 769.5 L 676.625 770.375 C 685.625 770 688.375 769.875 696.5 770 L 697.125 769.125 C 696.25 756.875 696.25 753.75 696.25 742 L 696.375 732.75 M 675.75 752.625 C 673.125 754.125 669.75 755.875 665.625 755.875 C 661.125 755.875 657.375 753.5 657.375 748.25 C 657.375 740 667.25 738.625 675.75 737.5 Z M 759.875 752 C 756.5 754 753.25 756 746.875 756 C 732.75 756 729.875 744.25 729.875 736.75 C 729.875 727.625 733.875 717.125 746 717.125 C 751.5 717.125 754.5 719.125 758.25 721.625 L 759.5 721.25 C 760 714.625 760.125 712.875 761.125 706.25 L 760.5 705.5 C 755 703.75 750.25 702.25 743 702.25 C 713.625 702.25 707.875 724.5 707.875 737.25 C 707.875 751.625 715.375 771.125 743.5 771.125 C 750.125 771.125 754.375 769.875 759.625 768.375 L 760.375 767.625 L 760.875 752.625 Z M 832.125 769.125 C 831.625 758.875 831.5 755.375 831.25 742.375 L 831.25 733 C 831.125 721.125 831 714.25 827.375 709 C 823.75 703.875 818.5 702.25 813 702.25 C 803.875 702.25 796.75 706.625 791.75 709.625 L 792.125 671.125 L 791.375 670.25 L 770 673.625 L 769.375 674.375 C 770.5 686.5 770.75 691 771 707.125 C 771.25 717.25 771.375 727.375 771.375 737.5 C 771.375 749.875 771.125 757.25 770.875 769.5 L 771.5 770.375 C 780.75 769.875 782.625 769.875 792.75 769.875 L 793.5 769.125 C 792.625 750.375 792.5 744.75 792.375 722.625 C 794.75 721 797.75 718.875 802 718.875 C 808.875 718.875 809.375 726 809.875 731 C 810.125 734.875 810.25 752.625 810.25 757.25 C 810.25 761.375 810.125 765.375 810.125 769.5 L 810.75 770.375 C 819.75 769.875 821.75 769.875 831.375 769.875 Z M 838.875 770 "/>
</svg>
