<?xml version="1.0" encoding="UTF-8"?>
<svg xmlns="http://www.w3.org/2000/svg" xmlns:xlink="http://www.w3.org/1999/xlink" width="975" height="1300" viewBox="0 0 975 1300">
<path fill-rule="nonzero" fill="rgb(34.901961%, 14.901961%, 14.901961%)" fill-opacity="1" d="M 280.875 522.625 C 278 524.875 271.625 529.625 261.25 529.625 C 247 529.625 237 519 237 501.25 C 237 490.5 240.75 471.625 261.125 471.625 C 270.5 471.625 275.625 475.25 278.75 477.625 L 279.875 477.375 L 281 460.125 L 280.5 459.5 C 276 457.75 268.375 454.875 257.375 454.875 C 225 454.875 213.75 479.875 213.75 501.75 C 213.75 525.75 228.375 546.875 258.875 546.875 C 269.375 546.875 276.25 544.125 280.25 542.5 L 280.875 541.75 L 281.75 523.125 Z M 347.125 507.75 C 347.25 496.5 347.25 491.625 344 486.375 C 341.5 482.375 336.5 477.375 320.5 477.375 C 309.75 477.375 303.125 479.375 296 481.5 L 295.25 482.5 L 294.625 496.125 L 295.625 496.625 C 300 494.875 308.125 491.625 316.5 491.625 C 321.125 491.625 323 492.375 324.625 494 C 325.875 495.25 326.25 497.5 326.25 499.375 C 311.25 501.375 304.25 502.75 296.75 507.375 C 289.75 511.75 287.375 518.875 287.375 524.5 C 287.375 537.875 297 546.5 309.25 546.5 C 318.625 546.5 324 542 326.625 539.875 L 326.625 544.5 L 327.375 545.375 C 336.375 545 339.125 544.875 347.25 545 L 347.875 544.125 C 347 531.875 347 528.75 347 517 L 347.125 507.75 M 326.5 527.625 C 323.875 529.125 320.5 530.875 316.375 530.875 C 311.875 530.875 308.125 528.5 308.125 523.25 C 308.125 515 318 513.625 326.5 512.5 Z M 383.75 544.125 C 383.125 529.75 382.5 516.625 382.5 477.125 C 382.5 465.25 382.625 459.625 383.125 446.125 L 382.25 445.25 L 360.875 448.625 L 360.375 449.375 C 361.625 464.625 361.75 468.75 362 489 C 362.125 496.375 362.125 503.75 362.125 511.125 C 362.125 524.625 361.875 532.125 361.375 544.5 L 362.125 545.375 C 370.5 545 373.875 544.875 383 545 Z M 420.875 544.125 C 420.25 534.5 419.75 527.125 419.75 509.875 C 419.75 499.25 420 488.5 420.125 477.875 L 419.25 476.875 L 397.75 480.625 L 397 481.375 C 398 490.875 398.375 495.25 398.375 513 C 398.375 526.625 398 534.25 397.625 544.5 L 398.375 545.375 C 407.375 545 409.875 544.875 420 545 L 420.875 544.125 M 418.875 464.875 L 419.25 447.875 L 418.5 447.125 L 398.125 449.625 L 397.375 450.5 C 397.625 455 397.75 457.625 397.75 460.625 C 397.75 463 397.75 465.5 397.625 467.875 L 398.5 468.625 C 407 467.125 409.375 466.875 418.25 465.75 Z M 459.75 544.125 C 458.5 521.375 458.375 515.25 458.5 493.125 L 468.375 493.625 L 469.25 492.75 L 470.375 479.5 L 469.75 478.75 L 458.375 478.75 L 458.5 475.875 C 458.5 468.25 458.625 461.25 466.75 461.25 C 468 461.25 469.25 461.5 470.5 461.625 L 471.375 461.125 L 472.5 447 L 471.875 446.125 C 468.875 445.875 466 445.75 463.125 445.75 C 456.75 445.75 450.25 446.5 445.25 450.25 C 437.5 456 437.625 465 437.625 471.25 L 437.75 478.75 L 429.625 478.625 L 428.875 479.25 L 427.625 492.5 L 428.375 493.25 L 437.875 493 C 437.875 516.625 437.875 522.25 437.125 544.5 L 437.875 545.375 C 446.375 545 449.625 544.875 459 544.875 Z M 542.625 511.75 C 542.625 506.875 542.625 486.625 525.125 479.75 C 519.625 477.625 513.125 477.375 509.875 477.375 C 488.125 477.375 475.875 489 475.875 512 C 475.875 520 477.125 528.125 481.75 534.875 C 485 539.75 491.125 546.5 509 546.5 C 535.5 546.5 542.625 530.5 542.625 511.75 M 521 511.625 C 521 521.875 519.625 533.25 509.25 533.25 C 506 533.25 503.75 531.75 502.25 530.375 C 500.125 528.25 497.75 524 497.75 511.875 C 497.75 508.25 497.75 500.25 500.25 495.875 C 502.125 492.5 505.375 490.25 509.375 490.25 C 512.875 490.25 515.75 492.125 517.375 494.125 C 520.375 497.75 521 504.875 521 511.625 Z M 590.625 498.625 L 594.125 478.25 L 593.375 477.375 C 592.5 477.375 591.625 477.25 590.75 477.25 C 585.625 477.25 579.875 480.125 575.875 489.375 L 576.25 477.875 L 575.25 476.875 C 566 478.875 563.625 479.25 554.5 480.625 L 553.75 481.375 C 554.5 490.75 554.875 496.375 554.875 513.75 C 554.875 524 554.75 534.25 554.5 544.625 L 555.25 545.375 C 564.5 545 566.5 544.875 576.5 545 L 577.125 544.125 C 576.625 534 575.875 519.875 575.875 511.25 C 575.875 505.625 575.875 497.375 584.375 497.375 C 586.5 497.375 587.75 498.125 589.5 499.125 Z M 662.625 544.125 C 662 533.125 662 529.625 661.75 517.375 L 661.75 507.625 C 661.625 495.625 661.5 489.875 658.375 484.75 C 654.5 478.25 647.375 477.25 642.875 477.25 C 635.25 477.25 628.625 481.25 622.875 484.625 L 623.125 477.75 L 621.875 476.875 C 612.25 478.875 610.125 479.25 600.75 480.5 L 600 481.375 C 601 492.25 601.75 500.125 601.75 520.5 C 601.75 528.5 601.625 536.5 601.5 544.5 L 602.25 545.25 C 611.25 544.875 613.125 544.875 623.125 544.875 L 623.875 544.125 C 623.125 524.875 623 520 622.875 497.625 C 625.5 495.875 628.5 493.75 632.5 493.75 C 639.375 493.75 640 501.125 640.375 505.625 C 640.625 509.75 640.75 526.875 640.75 531.625 C 640.75 535.875 640.625 540.25 640.625 544.5 L 641.375 545.25 C 649.625 545 651.75 544.875 661.75 544.875 Z M 699.5 544.125 C 698.875 534.5 698.375 527.125 698.375 509.875 C 698.375 499.25 698.625 488.5 698.75 477.875 L 697.875 476.875 L 676.375 480.625 L 675.625 481.375 C 676.625 490.875 677 495.25 677 513 C 677 526.625 676.625 534.25 676.25 544.5 L 677 545.375 C 686 545 688.5 544.875 698.625 545 L 699.5 544.125 M 697.5 464.875 L 697.875 447.875 L 697.125 447.125 L 676.75 449.625 L 676 450.5 C 676.25 455 676.375 457.625 676.375 460.625 C 676.375 463 676.375 465.5 676.25 467.875 L 677.125 468.625 C 685.625 467.125 688 466.875 696.875 465.75 Z M 769 507.75 C 769.125 496.5 769.125 491.625 765.875 486.375 C 763.375 482.375 758.375 477.375 742.375 477.375 C 731.625 477.375 725 479.375 717.875 481.5 L 717.125 482.5 L 716.5 496.125 L 717.5 496.625 C 721.875 494.875 730 491.625 738.375 491.625 C 743 491.625 744.875 492.375 746.5 494 C 747.75 495.25 748.125 497.5 748.125 499.375 C 733.125 501.375 726.125 502.75 718.625 507.375 C 711.625 511.75 709.25 518.875 709.25 524.5 C 709.25 537.875 718.875 546.5 731.125 546.5 C 740.5 546.5 745.875 542 748.5 539.875 L 748.5 544.5 L 749.25 545.375 C 758.25 545 761 544.875 769.125 545 L 769.75 544.125 C 768.875 531.875 768.875 528.75 768.875 517 L 769 507.75 M 748.375 527.625 C 745.75 529.125 742.375 530.875 738.25 530.875 C 733.75 530.875 730 528.5 730 523.25 C 730 515 739.875 513.625 748.375 512.5 Z M 776.125 545 "/>
<path fill-rule="nonzero" fill="rgb(34.901961%, 14.901961%, 14.901961%)" fill-opacity="1" d="M 226.375 672.625 C 223.5 674.875 217.125 679.625 206.75 679.625 C 192.5 679.625 182.5 669 182.5 651.25 C 182.5 640.5 186.25 621.625 206.625 621.625 C 216 621.625 221.125 625.25 224.25 627.625 L 225.375 627.375 L 226.5 610.125 L 226 609.5 C 221.5 607.75 213.875 604.875 202.875 604.875 C 170.5 604.875 159.25 629.875 159.25 651.75 C 159.25 675.75 173.875 696.875 204.375 696.875 C 214.875 696.875 221.75 694.125 225.75 692.5 L 226.375 691.75 L 227.25 673.125 Z M 259.625 694.125 C 259 684.5 258.5 677.125 258.5 659.875 C 258.5 649.25 258.75 638.5 258.875 627.875 L 258 626.875 L 236.5 630.625 L 235.75 631.375 C 236.75 640.875 237.125 645.25 237.125 663 C 237.125 676.625 236.75 684.25 236.375 694.5 L 237.125 695.375 C 246.125 695 248.625 694.875 258.75 695 L 259.625 694.125 M 257.625 614.875 L 258 597.875 L 257.25 597.125 L 236.875 599.625 L 236.125 600.5 C 236.375 605 236.5 607.625 236.5 610.625 C 236.5 613 236.5 615.5 236.375 617.875 L 237.25 618.625 C 245.75 617.125 248.125 616.875 257 615.75 Z M 308.5 680.625 C 306.375 681.25 304.875 681.75 302.75 681.75 C 296.375 681.75 295.875 677.75 295.625 675.875 C 295.25 672.625 295.25 665.75 295.375 660.75 L 295.625 643.125 L 306.875 643.625 L 307.625 642.875 L 308.875 629.5 L 308.125 628.75 L 295.625 628.75 L 296 607.75 L 295.125 607 C 286.625 609.5 284.375 610.125 275.5 612.375 L 275 613.25 L 275.125 628.875 L 268.375 628.625 L 267.625 629.25 L 266.5 642.625 L 267.25 643.375 L 275.125 643.125 L 274.75 663 C 274.625 666.125 274.5 669.25 274.5 672.5 C 274.5 684 274.75 696.375 294.25 696.375 C 299.125 696.375 303 695.625 307.375 694.875 L 308.25 694 L 309.5 681.125 Z M 353.875 648.625 L 357.375 628.25 L 356.625 627.375 C 355.75 627.375 354.875 627.25 354 627.25 C 348.875 627.25 343.125 630.125 339.125 639.375 L 339.5 627.875 L 338.5 626.875 C 329.25 628.875 326.875 629.25 317.75 630.625 L 317 631.375 C 317.75 640.75 318.125 646.375 318.125 663.75 C 318.125 674 318 684.25 317.75 694.625 L 318.5 695.375 C 327.75 695 329.75 694.875 339.75 695 L 340.375 694.125 C 339.875 684 339.125 669.875 339.125 661.25 C 339.125 655.625 339.125 647.375 347.625 647.375 C 349.75 647.375 351 648.125 352.75 649.125 Z M 424.625 628.125 L 404.25 629.125 L 403.375 629.875 C 404.25 644 404.25 664 404.25 666 C 404.25 669.625 404.25 671.625 404.125 676.625 C 400.75 678.875 398.125 680.75 394.75 680.75 C 385.75 680.75 385.75 671.25 385.75 663.875 C 385.75 660.75 385.75 657.5 385.875 654.375 L 386.125 629.125 L 385.25 628.125 L 364.625 629.125 L 363.75 629.875 C 364.5 640.375 364.625 643.875 364.625 656.5 L 364.625 665.25 C 364.5 678.875 365.125 684.625 369.625 689.875 C 373.75 694.5 379.75 696.5 386 696.5 C 394.875 696.5 400 692.5 404.5 689 L 404.375 694.625 L 405.25 695.375 C 414.375 695 417.125 695 425.25 695 L 426 694.25 C 425.375 685.375 425.125 680.625 425.125 664.375 C 425.125 652.625 425.25 640.875 425.5 629.125 Z M 466.375 651.875 C 462.125 650.375 458.75 649 458.75 645.5 C 458.75 644 459.75 639.875 467.5 639.875 C 475.125 639.875 480 643.125 483.125 645.125 L 484.25 644.75 L 485.5 631.125 L 484.875 630.375 C 479 628.75 473.875 627.25 465.75 627.25 C 459.625 627.25 447.375 627.75 440.875 637.125 C 439.25 639.375 437.5 643.125 437.5 648.125 C 437.5 661.5 447.875 665.5 453.75 667.75 L 458.5 669.5 C 461.875 670.625 467.375 672.5 467.375 677 C 467.375 680.125 464.5 683.5 457.5 683.5 C 454 683.5 448.875 682.375 444.25 680 C 442.125 678.875 441.125 678 439.25 676.5 L 438.125 677 C 437.875 683.5 437.75 684.875 437.25 691.125 L 437.875 692.25 C 444 694.5 449.25 696.5 458.375 696.5 C 467.875 696.5 486.625 694.75 488.875 676.875 C 489 675.875 489 675 489 674.125 C 489 660.375 479.375 656.75 472.5 654.125 Z M 572.625 641.25 C 562.125 636.875 556.625 634.625 556.625 629 C 556.625 625.125 560.25 620.25 568.5 620.25 C 578 620.25 583.625 624.125 588.25 627.25 L 589.375 626.75 L 590.375 610.375 L 589.75 609.5 C 584.375 607.25 578.75 604.875 566.625 604.875 C 543.125 604.875 535 618.125 535 631.5 C 535 646.625 546.75 652.125 553.75 655.5 L 557.875 657.375 C 566.5 661 573.125 664.125 573.125 670.75 C 573.125 675.5 569 681.125 558.125 681.125 C 546.75 681.125 540.375 676.125 536.75 673.25 L 535.5 673.625 L 534.625 691.25 L 535.375 692.25 C 536.75 692.75 538.125 693.375 539.5 693.75 C 542.375 694.75 549.75 696.875 559.125 696.875 C 562.875 696.875 572.375 696.5 579.875 693 C 590.375 687.875 594.875 678.375 594.875 667.75 C 594.875 660.625 592.125 653 585.5 647.875 C 582.125 645.375 578.875 643.875 575.875 642.5 Z M 641.75 680.625 C 639.625 681.25 638.125 681.75 636 681.75 C 629.625 681.75 629.125 677.75 628.875 675.875 C 628.5 672.625 628.5 665.75 628.625 660.75 L 628.875 643.125 L 640.125 643.625 L 640.875 642.875 L 642.125 629.5 L 641.375 628.75 L 628.875 628.75 L 629.25 607.75 L 628.375 607 C 619.875 609.5 617.625 610.125 608.75 612.375 L 608.25 613.25 L 608.375 628.875 L 601.625 628.625 L 600.875 629.25 L 599.75 642.625 L 600.5 643.375 L 608.375 643.125 L 608 663 C 607.875 666.125 607.75 669.25 607.75 672.5 C 607.75 684 608 696.375 627.5 696.375 C 632.375 696.375 636.25 695.625 640.625 694.875 L 641.5 694 L 642.75 681.125 Z M 706.625 657.75 C 706.75 646.5 706.75 641.625 703.5 636.375 C 701 632.375 696 627.375 680 627.375 C 669.25 627.375 662.625 629.375 655.5 631.5 L 654.75 632.5 L 654.125 646.125 L 655.125 646.625 C 659.5 644.875 667.625 641.625 676 641.625 C 680.625 641.625 682.5 642.375 684.125 644 C 685.375 645.25 685.75 647.5 685.75 649.375 C 670.75 651.375 663.75 652.75 656.25 657.375 C 649.25 661.75 646.875 668.875 646.875 674.5 C 646.875 687.875 656.5 696.5 668.75 696.5 C 678.125 696.5 683.5 692 686.125 689.875 L 686.125 694.5 L 686.875 695.375 C 695.875 695 698.625 694.875 706.75 695 L 707.375 694.125 C 706.5 681.875 706.5 678.75 706.5 667 L 706.625 657.75 M 686 677.625 C 683.375 679.125 680 680.875 675.875 680.875 C 671.375 680.875 667.625 678.5 667.625 673.25 C 667.625 665 677.5 663.625 686 662.5 Z M 756.25 680.625 C 754.125 681.25 752.625 681.75 750.5 681.75 C 744.125 681.75 743.625 677.75 743.375 675.875 C 743 672.625 743 665.75 743.125 660.75 L 743.375 643.125 L 754.625 643.625 L 755.375 642.875 L 756.625 629.5 L 755.875 628.75 L 743.375 628.75 L 743.75 607.75 L 742.875 607 C 734.375 609.5 732.125 610.125 723.25 612.375 L 722.75 613.25 L 722.875 628.875 L 716.125 628.625 L 715.375 629.25 L 714.25 642.625 L 715 643.375 L 722.875 643.125 L 722.5 663 C 722.375 666.125 722.25 669.25 722.25 672.5 C 722.25 684 722.5 696.375 742 696.375 C 746.875 696.375 750.75 695.625 755.125 694.875 L 756 694 L 757.25 681.125 Z M 821 676.5 C 816.25 679 810.625 681.875 801.5 681.875 C 794 681.875 788.875 679.5 785.875 675 C 784 672.375 783.625 669.875 783.125 667.375 L 823.5 666.625 L 824.25 665.75 C 824.125 659.625 824 653.375 822.25 647.125 C 817.875 632.375 808.25 629.375 804 628.375 C 800.875 627.5 798 627.25 795.125 627.25 C 775.5 627.25 762.5 640.125 762.5 661.75 C 762.5 667.625 763.5 673.75 765.5 678.125 C 772.75 695 789.75 696.5 798.75 696.5 C 809.125 696.5 813.625 694.625 820.25 692 L 821 691 L 821.875 676.875 L 821 676.5 M 783.125 654.125 C 783.5 650.25 784.375 645 789.125 642 C 790.625 641 792.375 640.625 794.125 640.625 C 798.25 640.625 800.75 642.75 802.125 645 C 803.875 647.75 804 650.75 804 653.625 Z M 828.25 695 "/>
<path fill-rule="nonzero" fill="rgb(34.901961%, 14.901961%, 14.901961%)" fill-opacity="1" d="M 196.8125 756.375 C 186.8125 756.75 185.1875 756.75 174.6875 756.75 L 174.0625 757.5 C 174.9375 771.625 174.9375 775.25 175.0625 790 C 169.5625 790.125 164.0625 790.25 158.4375 790.25 C 154.0625 790.25 149.5625 790.125 145.1875 790.125 L 145.4375 757.125 L 144.8125 756.375 C 135.1875 756.75 133.3125 756.75 122.4375 756.75 L 121.6875 757.5 C 122.3125 770.375 123.0625 785.75 123.0625 816.75 C 123.0625 828 122.8125 834.125 122.5625 844.625 L 123.1875 845.375 C 132.3125 845 134.5625 844.875 145.5625 845 L 146.1875 844.25 C 145.4375 828.75 145.3125 824.25 145.1875 806.125 C 150.6875 805.875 155.3125 805.75 160.1875 805.75 C 165.1875 805.75 170.1875 805.875 175.1875 806 C 175.4375 822.875 175.4375 827 174.8125 844.625 L 175.4375 845.375 C 184.8125 845 187.3125 844.875 197.9375 845 L 198.5625 844.25 C 197.5625 823.25 197.1875 802.375 197.1875 781.375 C 197.1875 772.625 197.3125 766.75 197.4375 757.125 Z M 235.6875 844.125 C 235.0625 834.5 234.5625 827.125 234.5625 809.875 C 234.5625 799.25 234.8125 788.5 234.9375 777.875 L 234.0625 776.875 L 212.5625 780.625 L 211.8125 781.375 C 212.8125 790.875 213.1875 795.25 213.1875 813 C 213.1875 826.625 212.8125 834.25 212.4375 844.5 L 213.1875 845.375 C 222.1875 845 224.6875 844.875 234.8125 845 L 235.6875 844.125 M 233.6875 764.875 L 234.0625 747.875 L 233.3125 747.125 L 212.9375 749.625 L 212.1875 750.5 C 212.4375 755 212.5625 757.625 212.5625 760.625 C 212.5625 763 212.5625 765.5 212.4375 767.875 L 213.3125 768.625 C 221.8125 767.125 224.1875 766.875 233.0625 765.75 Z M 275.8125 801.875 C 271.5625 800.375 268.1875 799 268.1875 795.5 C 268.1875 794 269.1875 789.875 276.9375 789.875 C 284.5625 789.875 289.4375 793.125 292.5625 795.125 L 293.6875 794.75 L 294.9375 781.125 L 294.3125 780.375 C 288.4375 778.75 283.3125 777.25 275.1875 777.25 C 269.0625 777.25 256.8125 777.75 250.3125 787.125 C 248.6875 789.375 246.9375 793.125 246.9375 798.125 C 246.9375 811.5 257.3125 815.5 263.1875 817.75 L 267.9375 819.5 C 271.3125 820.625 276.8125 822.5 276.8125 827 C 276.8125 830.125 273.9375 833.5 266.9375 833.5 C 263.4375 833.5 258.3125 832.375 253.6875 830 C 251.5625 828.875 250.5625 828 248.6875 826.5 L 247.5625 827 C 247.3125 833.5 247.1875 834.875 246.6875 841.125 L 247.3125 842.25 C 253.4375 844.5 258.6875 846.5 267.8125 846.5 C 277.3125 846.5 296.0625 844.75 298.3125 826.875 C 298.4375 825.875 298.4375 825 298.4375 824.125 C 298.4375 810.375 288.8125 806.75 281.9375 804.125 Z M 344.4375 830.625 C 342.3125 831.25 340.8125 831.75 338.6875 831.75 C 332.3125 831.75 331.8125 827.75 331.5625 825.875 C 331.1875 822.625 331.1875 815.75 331.3125 810.75 L 331.5625 793.125 L 342.8125 793.625 L 343.5625 792.875 L 344.8125 779.5 L 344.0625 778.75 L 331.5625 778.75 L 331.9375 757.75 L 331.0625 757 C 322.5625 759.5 320.3125 760.125 311.4375 762.375 L 310.9375 763.25 L 311.0625 778.875 L 304.3125 778.625 L 303.5625 779.25 L 302.4375 792.625 L 303.1875 793.375 L 311.0625 793.125 L 310.6875 813 C 310.5625 816.125 310.4375 819.25 310.4375 822.5 C 310.4375 834 310.6875 846.375 330.1875 846.375 C 335.0625 846.375 338.9375 845.625 343.3125 844.875 L 344.1875 844 L 345.4375 831.125 Z M 417.3125 811.75 C 417.3125 806.875 417.3125 786.625 399.8125 779.75 C 394.3125 777.625 387.8125 777.375 384.5625 777.375 C 362.8125 777.375 350.5625 789 350.5625 812 C 350.5625 820 351.8125 828.125 356.4375 834.875 C 359.6875 839.75 365.8125 846.5 383.6875 846.5 C 410.1875 846.5 417.3125 830.5 417.3125 811.75 M 395.6875 811.625 C 395.6875 821.875 394.3125 833.25 383.9375 833.25 C 380.6875 833.25 378.4375 831.75 376.9375 830.375 C 374.8125 828.25 372.4375 824 372.4375 811.875 C 372.4375 808.25 372.4375 800.25 374.9375 795.875 C 376.8125 792.5 380.0625 790.25 384.0625 790.25 C 387.5625 790.25 390.4375 792.125 392.0625 794.125 C 395.0625 797.75 395.6875 804.875 395.6875 811.625 Z M 465.3125 798.625 L 468.8125 778.25 L 468.0625 777.375 C 467.1875 777.375 466.3125 777.25 465.4375 777.25 C 460.3125 777.25 454.5625 780.125 450.5625 789.375 L 450.9375 777.875 L 449.9375 776.875 C 440.6875 778.875 438.3125 779.25 429.1875 780.625 L 428.4375 781.375 C 429.1875 790.75 429.5625 796.375 429.5625 813.75 C 429.5625 824 429.4375 834.25 429.1875 844.625 L 429.9375 845.375 C 439.1875 845 441.1875 844.875 451.1875 845 L 451.8125 844.125 C 451.3125 834 450.5625 819.875 450.5625 811.25 C 450.5625 805.625 450.5625 797.375 459.0625 797.375 C 461.1875 797.375 462.4375 798.125 464.1875 799.125 Z M 498.6875 844.125 C 498.0625 834.5 497.5625 827.125 497.5625 809.875 C 497.5625 799.25 497.8125 788.5 497.9375 777.875 L 497.0625 776.875 L 475.5625 780.625 L 474.8125 781.375 C 475.8125 790.875 476.1875 795.25 476.1875 813 C 476.1875 826.625 475.8125 834.25 475.4375 844.5 L 476.1875 845.375 C 485.1875 845 487.6875 844.875 497.8125 845 L 498.6875 844.125 M 496.6875 764.875 L 497.0625 747.875 L 496.3125 747.125 L 475.9375 749.625 L 475.1875 750.5 C 475.4375 755 475.5625 757.625 475.5625 760.625 C 475.5625 763 475.5625 765.5 475.4375 767.875 L 476.3125 768.625 C 484.8125 767.125 487.1875 766.875 496.0625 765.75 Z M 561.4375 827 C 558.0625 829 554.8125 831 548.4375 831 C 534.3125 831 531.4375 819.25 531.4375 811.75 C 531.4375 802.625 535.4375 792.125 547.5625 792.125 C 553.0625 792.125 556.0625 794.125 559.8125 796.625 L 561.0625 796.25 C 561.5625 789.625 561.6875 787.875 562.6875 781.25 L 562.0625 780.5 C 556.5625 778.75 551.8125 777.25 544.5625 777.25 C 515.1875 777.25 509.4375 799.5 509.4375 812.25 C 509.4375 826.625 516.9375 846.125 545.0625 846.125 C 551.6875 846.125 555.9375 844.875 561.1875 843.375 L 561.9375 842.625 L 562.4375 827.625 Z M 625.6875 756.5 L 609.8125 756.75 L 609.0625 757.5 C 609.5625 773.75 609.9375 784.625 609.9375 799 C 609.9375 814.25 609.5625 829.375 609.1875 844.625 L 609.9375 845.375 C 619.1875 845 621.1875 844.875 631.1875 845 L 631.8125 844.25 C 631.3125 830.625 631.3125 827.5 631.3125 814.75 C 645.3125 814.875 660.3125 814.875 669.3125 803.875 C 672.8125 799.625 675.8125 792.5 675.8125 783.75 C 675.8125 778.375 674.5625 766.5 664.1875 760.625 C 656.6875 756.25 646.0625 756.25 636.6875 756.25 L 625.6875 756.5 M 631.3125 771.625 C 634.0625 771.5 636.6875 771.5 639.4375 771.5 C 650.4375 771.75 653.4375 777.375 653.4375 784.625 C 653.4375 786.375 653.4375 793.625 646.8125 797.25 C 643.4375 799.125 638.8125 799.375 631.3125 799.375 Z M 740.0625 807.75 C 740.1875 796.5 740.1875 791.625 736.9375 786.375 C 734.4375 782.375 729.4375 777.375 713.4375 777.375 C 702.6875 777.375 696.0625 779.375 688.9375 781.5 L 688.1875 782.5 L 687.5625 796.125 L 688.5625 796.625 C 692.9375 794.875 701.0625 791.625 709.4375 791.625 C 714.0625 791.625 715.9375 792.375 717.5625 794 C 718.8125 795.25 719.1875 797.5 719.1875 799.375 C 704.1875 801.375 697.1875 802.75 689.6875 807.375 C 682.6875 811.75 680.3125 818.875 680.3125 824.5 C 680.3125 837.875 689.9375 846.5 702.1875 846.5 C 711.5625 846.5 716.9375 842 719.5625 839.875 L 719.5625 844.5 L 720.3125 845.375 C 729.3125 845 732.0625 844.875 740.1875 845 L 740.8125 844.125 C 739.9375 831.875 739.9375 828.75 739.9375 817 L 740.0625 807.75 M 719.4375 827.625 C 716.8125 829.125 713.4375 830.875 709.3125 830.875 C 704.8125 830.875 701.0625 828.5 701.0625 823.25 C 701.0625 815 710.9375 813.625 719.4375 812.5 Z M 790.8125 798.625 L 794.3125 778.25 L 793.5625 777.375 C 792.6875 777.375 791.8125 777.25 790.9375 777.25 C 785.8125 777.25 780.0625 780.125 776.0625 789.375 L 776.4375 777.875 L 775.4375 776.875 C 766.1875 778.875 763.8125 779.25 754.6875 780.625 L 753.9375 781.375 C 754.6875 790.75 755.0625 796.375 755.0625 813.75 C 755.0625 824 754.9375 834.25 754.6875 844.625 L 755.4375 845.375 C 764.6875 845 766.6875 844.875 776.6875 845 L 777.3125 844.125 C 776.8125 834 776.0625 819.875 776.0625 811.25 C 776.0625 805.625 776.0625 797.375 784.5625 797.375 C 786.6875 797.375 787.9375 798.125 789.6875 799.125 Z M 865.8125 843.375 C 854.0625 823.5 852.8125 821.25 843.3125 804.125 C 851.9375 792.375 852.8125 791.125 861.6875 779.75 L 861.0625 778.5 L 840.6875 778.75 L 839.4375 779.625 C 829.6875 796.5 828.4375 798.5 822.6875 807.125 L 822.6875 793.25 C 822.8125 769.875 822.9375 764.875 823.5625 746 L 822.5625 745.25 L 800.8125 748.5 L 800.0625 749.375 C 800.9375 761.5 801.3125 767.375 801.5625 783.75 C 801.8125 804 801.8125 824.25 801.6875 844.5 L 802.5625 845.375 C 810.9375 845 813.3125 845 822.8125 845 L 823.5625 844.125 L 822.8125 823 L 822.6875 808.625 C 833.5625 828.625 834.9375 831.375 841.3125 844.625 L 842.4375 845.375 L 864.9375 844.5 Z M 864.3125 845 "/>
</svg>
