<?xml version="1.0" encoding="UTF-8"?>
<svg xmlns="http://www.w3.org/2000/svg" xmlns:xlink="http://www.w3.org/1999/xlink" width="975" height="1300" viewBox="0 0 975 1300">
<path fill-rule="nonzero" fill="rgb(34.901961%, 14.901961%, 14.901961%)" fill-opacity="1" d="M 246.0625 522.625 C 243.1875 524.875 236.8125 529.625 226.4375 529.625 C 212.1875 529.625 202.1875 519 202.1875 501.25 C 202.1875 490.5 205.9375 471.625 226.3125 471.625 C 235.6875 471.625 240.8125 475.25 243.9375 477.625 L 245.0625 477.375 L 246.1875 460.125 L 245.6875 459.5 C 241.1875 457.75 233.5625 454.875 222.5625 454.875 C 190.1875 454.875 178.9375 479.875 178.9375 501.75 C 178.9375 525.75 193.5625 546.875 224.0625 546.875 C 234.5625 546.875 241.4375 544.125 245.4375 542.5 L 246.0625 541.75 L 246.9375 523.125 Z M 320.3125 511.75 C 320.3125 506.875 320.3125 486.625 302.8125 479.75 C 297.3125 477.625 290.8125 477.375 287.5625 477.375 C 265.8125 477.375 253.5625 489 253.5625 512 C 253.5625 520 254.8125 528.125 259.4375 534.875 C 262.6875 539.75 268.8125 546.5 286.6875 546.5 C 313.1875 546.5 320.3125 530.5 320.3125 511.75 M 298.6875 511.625 C 298.6875 521.875 297.3125 533.25 286.9375 533.25 C 283.6875 533.25 281.4375 531.75 279.9375 530.375 C 277.8125 528.25 275.4375 524 275.4375 511.875 C 275.4375 508.25 275.4375 500.25 277.9375 495.875 C 279.8125 492.5 283.0625 490.25 287.0625 490.25 C 290.5625 490.25 293.4375 492.125 295.0625 494.125 C 298.0625 497.75 298.6875 504.875 298.6875 511.625 Z M 368.3125 498.625 L 371.8125 478.25 L 371.0625 477.375 C 370.1875 477.375 369.3125 477.25 368.4375 477.25 C 363.3125 477.25 357.5625 480.125 353.5625 489.375 L 353.9375 477.875 L 352.9375 476.875 C 343.6875 478.875 341.3125 479.25 332.1875 480.625 L 331.4375 481.375 C 332.1875 490.75 332.5625 496.375 332.5625 513.75 C 332.5625 524 332.4375 534.25 332.1875 544.625 L 332.9375 545.375 C 342.1875 545 344.1875 544.875 354.1875 545 L 354.8125 544.125 C 354.3125 534 353.5625 519.875 353.5625 511.25 C 353.5625 505.625 353.5625 497.375 362.0625 497.375 C 364.1875 497.375 365.4375 498.125 367.1875 499.125 Z M 442.6875 511.75 C 442.6875 506.875 442.6875 486.625 425.1875 479.75 C 419.6875 477.625 413.1875 477.375 409.9375 477.375 C 388.1875 477.375 375.9375 489 375.9375 512 C 375.9375 520 377.1875 528.125 381.8125 534.875 C 385.0625 539.75 391.1875 546.5 409.0625 546.5 C 435.5625 546.5 442.6875 530.5 442.6875 511.75 M 421.0625 511.625 C 421.0625 521.875 419.6875 533.25 409.3125 533.25 C 406.0625 533.25 403.8125 531.75 402.3125 530.375 C 400.1875 528.25 397.8125 524 397.8125 511.875 C 397.8125 508.25 397.8125 500.25 400.3125 495.875 C 402.1875 492.5 405.4375 490.25 409.4375 490.25 C 412.9375 490.25 415.8125 492.125 417.4375 494.125 C 420.4375 497.75 421.0625 504.875 421.0625 511.625 Z M 515.8125 544.125 C 515.1875 533.125 515.1875 529.625 514.9375 517.375 L 514.9375 507.625 C 514.8125 495.625 514.6875 489.875 511.5625 484.75 C 507.6875 478.25 500.5625 477.25 496.0625 477.25 C 488.4375 477.25 481.8125 481.25 476.0625 484.625 L 476.3125 477.75 L 475.0625 476.875 C 465.4375 478.875 463.3125 479.25 453.9375 480.5 L 453.1875 481.375 C 454.1875 492.25 454.9375 500.125 454.9375 520.5 C 454.9375 528.5 454.8125 536.5 454.6875 544.5 L 455.4375 545.25 C 464.4375 544.875 466.3125 544.875 476.3125 544.875 L 477.0625 544.125 C 476.3125 524.875 476.1875 520 476.0625 497.625 C 478.6875 495.875 481.6875 493.75 485.6875 493.75 C 492.5625 493.75 493.1875 501.125 493.5625 505.625 C 493.8125 509.75 493.9375 526.875 493.9375 531.625 C 493.9375 535.875 493.8125 540.25 493.8125 544.5 L 494.5625 545.25 C 502.8125 545 504.9375 544.875 514.9375 544.875 Z M 585.6875 507.75 C 585.8125 496.5 585.8125 491.625 582.5625 486.375 C 580.0625 482.375 575.0625 477.375 559.0625 477.375 C 548.3125 477.375 541.6875 479.375 534.5625 481.5 L 533.8125 482.5 L 533.1875 496.125 L 534.1875 496.625 C 538.5625 494.875 546.6875 491.625 555.0625 491.625 C 559.6875 491.625 561.5625 492.375 563.1875 494 C 564.4375 495.25 564.8125 497.5 564.8125 499.375 C 549.8125 501.375 542.8125 502.75 535.3125 507.375 C 528.3125 511.75 525.9375 518.875 525.9375 524.5 C 525.9375 537.875 535.5625 546.5 547.8125 546.5 C 557.1875 546.5 562.5625 542 565.1875 539.875 L 565.1875 544.5 L 565.9375 545.375 C 574.9375 545 577.6875 544.875 585.8125 545 L 586.4375 544.125 C 585.5625 531.875 585.5625 528.75 585.5625 517 L 585.6875 507.75 M 565.0625 527.625 C 562.4375 529.125 559.0625 530.875 554.9375 530.875 C 550.4375 530.875 546.6875 528.5 546.6875 523.25 C 546.6875 515 556.5625 513.625 565.0625 512.5 Z M 698.0625 544.25 C 697.5625 533 697.1875 525.5 697.1875 509.125 C 697.1875 476.125 697.6875 462.5 698.1875 446 L 697.3125 445.25 L 676.6875 448.5 L 676.0625 449.25 C 676.8125 461 676.9375 464.125 676.8125 478.375 C 667.4375 478.125 655.6875 477.875 646.1875 485.375 C 637.4375 492.125 633.8125 502.5 633.8125 515.375 C 633.8125 525.125 636.4375 534.875 643.8125 541 C 649.3125 545.5 656.0625 546.5 660.1875 546.5 C 669.0625 546.5 673.6875 542.375 676.6875 539.75 L 676.4375 544.625 L 677.0625 545.375 C 685.6875 545 688.0625 545 697.4375 545 L 698.0625 544.25 M 676.8125 493.375 C 676.9375 510 676.8125 513.25 676.4375 528.375 C 673.9375 529.875 671.4375 531.375 667.9375 531.375 C 655.8125 531.375 655.8125 515.875 655.8125 513.375 C 655.8125 503.75 658.5625 493 672.5625 493 C 673.9375 493 675.0625 493.125 676.8125 493.375 Z M 767.8125 526.5 C 763.0625 529 757.4375 531.875 748.3125 531.875 C 740.8125 531.875 735.6875 529.5 732.6875 525 C 730.8125 522.375 730.4375 519.875 729.9375 517.375 L 770.3125 516.625 L 771.0625 515.75 C 770.9375 509.625 770.8125 503.375 769.0625 497.125 C 764.6875 482.375 755.0625 479.375 750.8125 478.375 C 747.6875 477.5 744.8125 477.25 741.9375 477.25 C 722.3125 477.25 709.3125 490.125 709.3125 511.75 C 709.3125 517.625 710.3125 523.75 712.3125 528.125 C 719.5625 545 736.5625 546.5 745.5625 546.5 C 755.9375 546.5 760.4375 544.625 767.0625 542 L 767.8125 541 L 768.6875 526.875 L 767.8125 526.5 M 729.9375 504.125 C 730.3125 500.25 731.1875 495 735.9375 492 C 737.4375 491 739.1875 490.625 740.9375 490.625 C 745.0625 490.625 747.5625 492.75 748.9375 495 C 750.6875 497.75 750.8125 500.75 750.8125 503.625 Z M 804.5625 544.125 C 803.9375 529.75 803.3125 516.625 803.3125 477.125 C 803.3125 465.25 803.4375 459.625 803.9375 446.125 L 803.0625 445.25 L 781.6875 448.625 L 781.1875 449.375 C 782.4375 464.625 782.5625 468.75 782.8125 489 C 782.9375 496.375 782.9375 503.75 782.9375 511.125 C 782.9375 524.625 782.6875 532.125 782.1875 544.5 L 782.9375 545.375 C 791.3125 545 794.6875 544.875 803.8125 545 Z M 811.5625 545 "/>
<path fill-rule="nonzero" fill="rgb(34.901961%, 14.901961%, 14.901961%)" fill-opacity="1" d="M 311.25 606.375 C 298.25 606.75 296.125 606.75 282.25 606.75 L 281.5 607.5 L 275.75 627.75 L 270.75 645.875 L 264.875 667.625 L 259.375 645.25 L 255.875 631.125 L 249.625 607.125 L 249 606.375 C 235.625 606.75 233.375 606.75 219.375 606.75 L 218.625 607.5 C 217.375 644.875 216.875 654.5 214.125 694.625 L 214.75 695.375 C 222.75 695 225.125 694.875 232.375 695 L 233.125 694.25 L 233.5 670.375 L 234.25 646.125 L 234.75 622.5 L 240.25 644.625 L 245 662.375 L 253.375 694.625 L 254.125 695.375 C 261.875 695 264 694.875 272.75 695 L 273.5 694.25 L 280.75 667.625 L 285.75 649.375 L 292.75 623.125 L 292.75 645.5 L 293 664.625 L 293 694.625 L 293.625 695.375 C 302.25 695 305.625 694.875 315.25 695 L 315.875 694.25 C 315.125 680 314.25 665.625 313.75 651.25 C 313.375 643.375 313.125 635.5 312.75 627.625 C 312.125 616 312 614.5 312 607.125 Z M 385.625 657.75 C 385.75 646.5 385.75 641.625 382.5 636.375 C 380 632.375 375 627.375 359 627.375 C 348.25 627.375 341.625 629.375 334.5 631.5 L 333.75 632.5 L 333.125 646.125 L 334.125 646.625 C 338.5 644.875 346.625 641.625 355 641.625 C 359.625 641.625 361.5 642.375 363.125 644 C 364.375 645.25 364.75 647.5 364.75 649.375 C 349.75 651.375 342.75 652.75 335.25 657.375 C 328.25 661.75 325.875 668.875 325.875 674.5 C 325.875 687.875 335.5 696.5 347.75 696.5 C 357.125 696.5 362.5 692 365.125 689.875 L 365.125 694.5 L 365.875 695.375 C 374.875 695 377.625 694.875 385.75 695 L 386.375 694.125 C 385.5 681.875 385.5 678.75 385.5 667 L 385.625 657.75 M 365 677.625 C 362.375 679.125 359 680.875 354.875 680.875 C 350.375 680.875 346.625 678.5 346.625 673.25 C 346.625 665 356.5 663.625 365 662.5 Z M 436.375 648.625 L 439.875 628.25 L 439.125 627.375 C 438.25 627.375 437.375 627.25 436.5 627.25 C 431.375 627.25 425.625 630.125 421.625 639.375 L 422 627.875 L 421 626.875 C 411.75 628.875 409.375 629.25 400.25 630.625 L 399.5 631.375 C 400.25 640.75 400.625 646.375 400.625 663.75 C 400.625 674 400.5 684.25 400.25 694.625 L 401 695.375 C 410.25 695 412.25 694.875 422.25 695 L 422.875 694.125 C 422.375 684 421.625 669.875 421.625 661.25 C 421.625 655.625 421.625 647.375 430.125 647.375 C 432.25 647.375 433.5 648.125 435.25 649.125 Z M 519.75 641.25 C 509.25 636.875 503.75 634.625 503.75 629 C 503.75 625.125 507.375 620.25 515.625 620.25 C 525.125 620.25 530.75 624.125 535.375 627.25 L 536.5 626.75 L 537.5 610.375 L 536.875 609.5 C 531.5 607.25 525.875 604.875 513.75 604.875 C 490.25 604.875 482.125 618.125 482.125 631.5 C 482.125 646.625 493.875 652.125 500.875 655.5 L 505 657.375 C 513.625 661 520.25 664.125 520.25 670.75 C 520.25 675.5 516.125 681.125 505.25 681.125 C 493.875 681.125 487.5 676.125 483.875 673.25 L 482.625 673.625 L 481.75 691.25 L 482.5 692.25 C 483.875 692.75 485.25 693.375 486.625 693.75 C 489.5 694.75 496.875 696.875 506.25 696.875 C 510 696.875 519.5 696.5 527 693 C 537.5 687.875 542 678.375 542 667.75 C 542 660.625 539.25 653 532.625 647.875 C 529.25 645.375 526 643.875 523 642.5 Z M 588.875 680.625 C 586.75 681.25 585.25 681.75 583.125 681.75 C 576.75 681.75 576.25 677.75 576 675.875 C 575.625 672.625 575.625 665.75 575.75 660.75 L 576 643.125 L 587.25 643.625 L 588 642.875 L 589.25 629.5 L 588.5 628.75 L 576 628.75 L 576.375 607.75 L 575.5 607 C 567 609.5 564.75 610.125 555.875 612.375 L 555.375 613.25 L 555.5 628.875 L 548.75 628.625 L 548 629.25 L 546.875 642.625 L 547.625 643.375 L 555.5 643.125 L 555.125 663 C 555 666.125 554.875 669.25 554.875 672.5 C 554.875 684 555.125 696.375 574.625 696.375 C 579.5 696.375 583.375 695.625 587.75 694.875 L 588.625 694 L 589.875 681.125 Z M 653.75 657.75 C 653.875 646.5 653.875 641.625 650.625 636.375 C 648.125 632.375 643.125 627.375 627.125 627.375 C 616.375 627.375 609.75 629.375 602.625 631.5 L 601.875 632.5 L 601.25 646.125 L 602.25 646.625 C 606.625 644.875 614.75 641.625 623.125 641.625 C 627.75 641.625 629.625 642.375 631.25 644 C 632.5 645.25 632.875 647.5 632.875 649.375 C 617.875 651.375 610.875 652.75 603.375 657.375 C 596.375 661.75 594 668.875 594 674.5 C 594 687.875 603.625 696.5 615.875 696.5 C 625.25 696.5 630.625 692 633.25 689.875 L 633.25 694.5 L 634 695.375 C 643 695 645.75 694.875 653.875 695 L 654.5 694.125 C 653.625 681.875 653.625 678.75 653.625 667 L 653.75 657.75 M 633.125 677.625 C 630.5 679.125 627.125 680.875 623 680.875 C 618.5 680.875 614.75 678.5 614.75 673.25 C 614.75 665 624.625 663.625 633.125 662.5 Z M 703.375 680.625 C 701.25 681.25 699.75 681.75 697.625 681.75 C 691.25 681.75 690.75 677.75 690.5 675.875 C 690.125 672.625 690.125 665.75 690.25 660.75 L 690.5 643.125 L 701.75 643.625 L 702.5 642.875 L 703.75 629.5 L 703 628.75 L 690.5 628.75 L 690.875 607.75 L 690 607 C 681.5 609.5 679.25 610.125 670.375 612.375 L 669.875 613.25 L 670 628.875 L 663.25 628.625 L 662.5 629.25 L 661.375 642.625 L 662.125 643.375 L 670 643.125 L 669.625 663 C 669.5 666.125 669.375 669.25 669.375 672.5 C 669.375 684 669.625 696.375 689.125 696.375 C 694 696.375 697.875 695.625 702.25 694.875 L 703.125 694 L 704.375 681.125 Z M 768.125 676.5 C 763.375 679 757.75 681.875 748.625 681.875 C 741.125 681.875 736 679.5 733 675 C 731.125 672.375 730.75 669.875 730.25 667.375 L 770.625 666.625 L 771.375 665.75 C 771.25 659.625 771.125 653.375 769.375 647.125 C 765 632.375 755.375 629.375 751.125 628.375 C 748 627.5 745.125 627.25 742.25 627.25 C 722.625 627.25 709.625 640.125 709.625 661.75 C 709.625 667.625 710.625 673.75 712.625 678.125 C 719.875 695 736.875 696.5 745.875 696.5 C 756.25 696.5 760.75 694.625 767.375 692 L 768.125 691 L 769 676.875 L 768.125 676.5 M 730.25 654.125 C 730.625 650.25 731.5 645 736.25 642 C 737.75 641 739.5 640.625 741.25 640.625 C 745.375 640.625 747.875 642.75 749.25 645 C 751 647.75 751.125 650.75 751.125 653.625 Z M 775.375 695 "/>
<path fill-rule="nonzero" fill="rgb(34.901961%, 14.901961%, 14.901961%)" fill-opacity="1" d="M 346.25 845 C 357.875 845.25 372.25 845.5 381.625 839 C 389.875 833.125 392.125 824.875 392.125 817.875 C 392.125 809.875 388.75 802.5 381.625 799 C 379.25 797.75 376.5 797.25 373.875 796.75 C 378.125 795 383.125 792.75 386.375 786.125 C 387.75 783.25 388.375 780.25 388.375 777.375 C 388.375 773.375 387.375 767.875 383.375 763.375 C 378.125 757.75 370 756.25 357.75 756.25 C 353.5 756.25 345.875 756.375 341.625 756.5 L 324.125 756.75 L 323.375 757.5 C 323.875 769.5 324 774.125 324 791.375 C 324 809.125 323.875 826.75 323.625 844.5 L 324.5 845 L 346.25 845 M 345.375 807 C 354.875 806.75 360.375 806.75 364 808.875 C 367.625 811.125 369 815.125 369 819.125 C 369 824.75 365.875 828.25 361.25 829.875 C 357.5 831.125 350.75 831.125 345.375 831 L 345.375 807 M 345.375 770.25 C 348 770.25 351.5 770.125 353.625 770.125 C 360.375 770.125 366.5 772.5 366.5 780.625 C 366.5 787.25 361.625 790 360.125 790.75 C 357 792.125 350.375 792.125 345.375 792.125 Z M 459.25 826.5 C 454.5 829 448.875 831.875 439.75 831.875 C 432.25 831.875 427.125 829.5 424.125 825 C 422.25 822.375 421.875 819.875 421.375 817.375 L 461.75 816.625 L 462.5 815.75 C 462.375 809.625 462.25 803.375 460.5 797.125 C 456.125 782.375 446.5 779.375 442.25 778.375 C 439.125 777.5 436.25 777.25 433.375 777.25 C 413.75 777.25 400.75 790.125 400.75 811.75 C 400.75 817.625 401.75 823.75 403.75 828.125 C 411 845 428 846.5 437 846.5 C 447.375 846.5 451.875 844.625 458.5 842 L 459.25 841 L 460.125 826.875 L 459.25 826.5 M 421.375 804.125 C 421.75 800.25 422.625 795 427.375 792 C 428.875 791 430.625 790.625 432.375 790.625 C 436.5 790.625 439 792.75 440.375 795 C 442.125 797.75 442.25 800.75 442.25 803.625 Z M 529.625 807.75 C 529.75 796.5 529.75 791.625 526.5 786.375 C 524 782.375 519 777.375 503 777.375 C 492.25 777.375 485.625 779.375 478.5 781.5 L 477.75 782.5 L 477.125 796.125 L 478.125 796.625 C 482.5 794.875 490.625 791.625 499 791.625 C 503.625 791.625 505.5 792.375 507.125 794 C 508.375 795.25 508.75 797.5 508.75 799.375 C 493.75 801.375 486.75 802.75 479.25 807.375 C 472.25 811.75 469.875 818.875 469.875 824.5 C 469.875 837.875 479.5 846.5 491.75 846.5 C 501.125 846.5 506.5 842 509.125 839.875 L 509.125 844.5 L 509.875 845.375 C 518.875 845 521.625 844.875 529.75 845 L 530.375 844.125 C 529.5 831.875 529.5 828.75 529.5 817 L 529.625 807.75 M 509 827.625 C 506.375 829.125 503 830.875 498.875 830.875 C 494.375 830.875 490.625 828.5 490.625 823.25 C 490.625 815 500.5 813.625 509 812.5 Z M 593.125 827 C 589.75 829 586.5 831 580.125 831 C 566 831 563.125 819.25 563.125 811.75 C 563.125 802.625 567.125 792.125 579.25 792.125 C 584.75 792.125 587.75 794.125 591.5 796.625 L 592.75 796.25 C 593.25 789.625 593.375 787.875 594.375 781.25 L 593.75 780.5 C 588.25 778.75 583.5 777.25 576.25 777.25 C 546.875 777.25 541.125 799.5 541.125 812.25 C 541.125 826.625 548.625 846.125 576.75 846.125 C 583.375 846.125 587.625 844.875 592.875 843.375 L 593.625 842.625 L 594.125 827.625 Z M 665.375 844.125 C 664.875 833.875 664.75 830.375 664.5 817.375 L 664.5 808 C 664.375 796.125 664.25 789.25 660.625 784 C 657 778.875 651.75 777.25 646.25 777.25 C 637.125 777.25 630 781.625 625 784.625 L 625.375 746.125 L 624.625 745.25 L 603.25 748.625 L 602.625 749.375 C 603.75 761.5 604 766 604.25 782.125 C 604.5 792.25 604.625 802.375 604.625 812.5 C 604.625 824.875 604.375 832.25 604.125 844.5 L 604.75 845.375 C 614 844.875 615.875 844.875 626 844.875 L 626.75 844.125 C 625.875 825.375 625.75 819.75 625.625 797.625 C 628 796 631 793.875 635.25 793.875 C 642.125 793.875 642.625 801 643.125 806 C 643.375 809.875 643.5 827.625 643.5 832.25 C 643.5 836.375 643.375 840.375 643.375 844.5 L 644 845.375 C 653 844.875 655 844.875 664.625 844.875 Z M 672.125 845 "/>
</svg>
