<?xml version="1.0" encoding="UTF-8"?>
<svg xmlns="http://www.w3.org/2000/svg" xmlns:xlink="http://www.w3.org/1999/xlink" width="975" height="1300" viewBox="0 0 975 1300">
<path fill-rule="nonzero" fill="rgb(34.901961%, 14.901961%, 14.901961%)" fill-opacity="1" d="M 165.25 566.25 C 154.75 561.875 149.25 559.625 149.25 554 C 149.25 550.125 152.875 545.25 161.125 545.25 C 170.625 545.25 176.25 549.125 180.875 552.25 L 182 551.75 L 183 535.375 L 182.375 534.5 C 177 532.25 171.375 529.875 159.25 529.875 C 135.75 529.875 127.625 543.125 127.625 556.5 C 127.625 571.625 139.375 577.125 146.375 580.5 L 150.5 582.375 C 159.125 586 165.75 589.125 165.75 595.75 C 165.75 600.5 161.625 606.125 150.75 606.125 C 139.375 606.125 133 601.125 129.375 598.25 L 128.125 598.625 L 127.25 616.25 L 128 617.25 C 129.375 617.75 130.75 618.375 132.125 618.75 C 135 619.75 142.375 621.875 151.75 621.875 C 155.5 621.875 165 621.5 172.5 618 C 183 612.875 187.5 603.375 187.5 592.75 C 187.5 585.625 184.75 578 178.125 572.875 C 174.75 570.375 171.5 568.875 168.5 567.5 Z M 222 619.125 C 221.375 609.5 220.875 602.125 220.875 584.875 C 220.875 574.25 221.125 563.5 221.25 552.875 L 220.375 551.875 L 198.875 555.625 L 198.125 556.375 C 199.125 565.875 199.5 570.25 199.5 588 C 199.5 601.625 199.125 609.25 198.75 619.5 L 199.5 620.375 C 208.5 620 211 619.875 221.125 620 L 222 619.125 M 220 539.875 L 220.375 522.875 L 219.625 522.125 L 199.25 524.625 L 198.5 525.5 C 198.75 530 198.875 532.625 198.875 535.625 C 198.875 538 198.875 540.5 198.75 542.875 L 199.625 543.625 C 208.125 542.125 210.5 541.875 219.375 540.75 Z M 257.875 619.125 C 257.25 604.75 256.625 591.625 256.625 552.125 C 256.625 540.25 256.75 534.625 257.25 521.125 L 256.375 520.25 L 235 523.625 L 234.5 524.375 C 235.75 539.625 235.875 543.75 236.125 564 C 236.25 571.375 236.25 578.75 236.25 586.125 C 236.25 599.625 236 607.125 235.5 619.5 L 236.25 620.375 C 244.625 620 248 619.875 257.125 620 Z M 306.875 619 C 310.875 606.5 313.25 598.75 315.875 590.875 C 319.25 580.75 324.75 564.5 328.25 554.25 L 327.625 553.375 L 310.125 553.75 L 309.25 554.625 C 307.5 563 307.125 564.75 304.625 574.5 L 298.25 599.125 L 295.125 585.625 L 292.75 576 C 289.625 564.375 289.125 562 287.375 553.75 L 286.5 553 C 276.625 554.125 274.125 554.25 264.625 554.375 L 264.125 555.375 C 280.75 604.625 282.125 609.25 284.875 619.5 L 285.75 620.375 C 293.875 620 297.125 619.875 306.125 620 Z M 390.375 601.5 C 385.625 604 380 606.875 370.875 606.875 C 363.375 606.875 358.25 604.5 355.25 600 C 353.375 597.375 353 594.875 352.5 592.375 L 392.875 591.625 L 393.625 590.75 C 393.5 584.625 393.375 578.375 391.625 572.125 C 387.25 557.375 377.625 554.375 373.375 553.375 C 370.25 552.5 367.375 552.25 364.5 552.25 C 344.875 552.25 331.875 565.125 331.875 586.75 C 331.875 592.625 332.875 598.75 334.875 603.125 C 342.125 620 359.125 621.5 368.125 621.5 C 378.5 621.5 383 619.625 389.625 617 L 390.375 616 L 391.25 601.875 L 390.375 601.5 M 352.5 579.125 C 352.875 575.25 353.75 570 358.5 567 C 360 566 361.75 565.625 363.5 565.625 C 367.625 565.625 370.125 567.75 371.5 570 C 373.25 572.75 373.375 575.75 373.375 578.625 Z M 441.25 573.625 L 444.75 553.25 L 444 552.375 C 443.125 552.375 442.25 552.25 441.375 552.25 C 436.25 552.25 430.5 555.125 426.5 564.375 L 426.875 552.875 L 425.875 551.875 C 416.625 553.875 414.25 554.25 405.125 555.625 L 404.375 556.375 C 405.125 565.75 405.5 571.375 405.5 588.75 C 405.5 599 405.375 609.25 405.125 619.625 L 405.875 620.375 C 415.125 620 417.125 619.875 427.125 620 L 427.75 619.125 C 427.25 609 426.5 594.875 426.5 586.25 C 426.5 580.625 426.5 572.375 435 572.375 C 437.125 572.375 438.375 573.125 440.125 574.125 Z M 524.625 566.25 C 514.125 561.875 508.625 559.625 508.625 554 C 508.625 550.125 512.25 545.25 520.5 545.25 C 530 545.25 535.625 549.125 540.25 552.25 L 541.375 551.75 L 542.375 535.375 L 541.75 534.5 C 536.375 532.25 530.75 529.875 518.625 529.875 C 495.125 529.875 487 543.125 487 556.5 C 487 571.625 498.75 577.125 505.75 580.5 L 509.875 582.375 C 518.5 586 525.125 589.125 525.125 595.75 C 525.125 600.5 521 606.125 510.125 606.125 C 498.75 606.125 492.375 601.125 488.75 598.25 L 487.5 598.625 L 486.625 616.25 L 487.375 617.25 C 488.75 617.75 490.125 618.375 491.5 618.75 C 494.375 619.75 501.75 621.875 511.125 621.875 C 514.875 621.875 524.375 621.5 531.875 618 C 542.375 612.875 546.875 603.375 546.875 592.75 C 546.875 585.625 544.125 578 537.5 572.875 C 534.125 570.375 530.875 568.875 527.875 567.5 Z M 593.75 605.625 C 591.625 606.25 590.125 606.75 588 606.75 C 581.625 606.75 581.125 602.75 580.875 600.875 C 580.5 597.625 580.5 590.75 580.625 585.75 L 580.875 568.125 L 592.125 568.625 L 592.875 567.875 L 594.125 554.5 L 593.375 553.75 L 580.875 553.75 L 581.25 532.75 L 580.375 532 C 571.875 534.5 569.625 535.125 560.75 537.375 L 560.25 538.25 L 560.375 553.875 L 553.625 553.625 L 552.875 554.25 L 551.75 567.625 L 552.5 568.375 L 560.375 568.125 L 560 588 C 559.875 591.125 559.75 594.25 559.75 597.5 C 559.75 609 560 621.375 579.5 621.375 C 584.375 621.375 588.25 620.625 592.625 619.875 L 593.5 619 L 594.75 606.125 Z M 639.125 573.625 L 642.625 553.25 L 641.875 552.375 C 641 552.375 640.125 552.25 639.25 552.25 C 634.125 552.25 628.375 555.125 624.375 564.375 L 624.75 552.875 L 623.75 551.875 C 614.5 553.875 612.125 554.25 603 555.625 L 602.25 556.375 C 603 565.75 603.375 571.375 603.375 588.75 C 603.375 599 603.25 609.25 603 619.625 L 603.75 620.375 C 613 620 615 619.875 625 620 L 625.625 619.125 C 625.125 609 624.375 594.875 624.375 586.25 C 624.375 580.625 624.375 572.375 632.875 572.375 C 635 572.375 636.25 573.125 638 574.125 Z M 705.5 582.75 C 705.625 571.5 705.625 566.625 702.375 561.375 C 699.875 557.375 694.875 552.375 678.875 552.375 C 668.125 552.375 661.5 554.375 654.375 556.5 L 653.625 557.5 L 653 571.125 L 654 571.625 C 658.375 569.875 666.5 566.625 674.875 566.625 C 679.5 566.625 681.375 567.375 683 569 C 684.25 570.25 684.625 572.5 684.625 574.375 C 669.625 576.375 662.625 577.75 655.125 582.375 C 648.125 586.75 645.75 593.875 645.75 599.5 C 645.75 612.875 655.375 621.5 667.625 621.5 C 677 621.5 682.375 617 685 614.875 L 685 619.5 L 685.75 620.375 C 694.75 620 697.5 619.875 705.625 620 L 706.25 619.125 C 705.375 606.875 705.375 603.75 705.375 592 L 705.5 582.75 M 684.875 602.625 C 682.25 604.125 678.875 605.875 674.75 605.875 C 670.25 605.875 666.5 603.5 666.5 598.25 C 666.5 590 676.375 588.625 684.875 587.5 Z M 781.375 619.125 C 780.75 608.125 780.75 604.625 780.5 592.375 L 780.5 582.625 C 780.375 570.625 780.25 564.875 777.125 559.75 C 773.25 553.25 766.125 552.25 761.625 552.25 C 754 552.25 747.375 556.25 741.625 559.625 L 741.875 552.75 L 740.625 551.875 C 731 553.875 728.875 554.25 719.5 555.5 L 718.75 556.375 C 719.75 567.25 720.5 575.125 720.5 595.5 C 720.5 603.5 720.375 611.5 720.25 619.5 L 721 620.25 C 730 619.875 731.875 619.875 741.875 619.875 L 742.625 619.125 C 741.875 599.875 741.75 595 741.625 572.625 C 744.25 570.875 747.25 568.75 751.25 568.75 C 758.125 568.75 758.75 576.125 759.125 580.625 C 759.375 584.75 759.5 601.875 759.5 606.625 C 759.5 610.875 759.375 615.25 759.375 619.5 L 760.125 620.25 C 768.375 620 770.5 619.875 780.5 619.875 Z M 856.875 619.25 C 856.375 608 856 600.5 856 584.125 C 856 551.125 856.5 537.5 857 521 L 856.125 520.25 L 835.5 523.5 L 834.875 524.25 C 835.625 536 835.75 539.125 835.625 553.375 C 826.25 553.125 814.5 552.875 805 560.375 C 796.25 567.125 792.625 577.5 792.625 590.375 C 792.625 600.125 795.25 609.875 802.625 616 C 808.125 620.5 814.875 621.5 819 621.5 C 827.875 621.5 832.5 617.375 835.5 614.75 L 835.25 619.625 L 835.875 620.375 C 844.5 620 846.875 620 856.25 620 L 856.875 619.25 M 835.625 568.375 C 835.75 585 835.625 588.25 835.25 603.375 C 832.75 604.875 830.25 606.375 826.75 606.375 C 814.625 606.375 814.625 590.875 814.625 588.375 C 814.625 578.75 817.375 568 831.375 568 C 832.75 568 833.875 568.125 835.625 568.375 Z M 863.625 620 "/>
<path fill-rule="nonzero" fill="rgb(34.901961%, 14.901961%, 14.901961%)" fill-opacity="1" d="M 190.125 716.25 C 179.625 711.875 174.125 709.625 174.125 704 C 174.125 700.125 177.75 695.25 186 695.25 C 195.5 695.25 201.125 699.125 205.75 702.25 L 206.875 701.75 L 207.875 685.375 L 207.25 684.5 C 201.875 682.25 196.25 679.875 184.125 679.875 C 160.625 679.875 152.5 693.125 152.5 706.5 C 152.5 721.625 164.25 727.125 171.25 730.5 L 175.375 732.375 C 184 736 190.625 739.125 190.625 745.75 C 190.625 750.5 186.5 756.125 175.625 756.125 C 164.25 756.125 157.875 751.125 154.25 748.25 L 153 748.625 L 152.125 766.25 L 152.875 767.25 C 154.25 767.75 155.625 768.375 157 768.75 C 159.875 769.75 167.25 771.875 176.625 771.875 C 180.375 771.875 189.875 771.5 197.375 768 C 207.875 762.875 212.375 753.375 212.375 742.75 C 212.375 735.625 209.625 728 203 722.875 C 199.625 720.375 196.375 718.875 193.375 717.5 Z M 259.25 755.625 C 257.125 756.25 255.625 756.75 253.5 756.75 C 247.125 756.75 246.625 752.75 246.375 750.875 C 246 747.625 246 740.75 246.125 735.75 L 246.375 718.125 L 257.625 718.625 L 258.375 717.875 L 259.625 704.5 L 258.875 703.75 L 246.375 703.75 L 246.75 682.75 L 245.875 682 C 237.375 684.5 235.125 685.125 226.25 687.375 L 225.75 688.25 L 225.875 703.875 L 219.125 703.625 L 218.375 704.25 L 217.25 717.625 L 218 718.375 L 225.875 718.125 L 225.5 738 C 225.375 741.125 225.25 744.25 225.25 747.5 C 225.25 759 225.5 771.375 245 771.375 C 249.875 771.375 253.75 770.625 258.125 769.875 L 259 769 L 260.25 756.125 Z M 324.125 732.75 C 324.25 721.5 324.25 716.625 321 711.375 C 318.5 707.375 313.5 702.375 297.5 702.375 C 286.75 702.375 280.125 704.375 273 706.5 L 272.25 707.5 L 271.625 721.125 L 272.625 721.625 C 277 719.875 285.125 716.625 293.5 716.625 C 298.125 716.625 300 717.375 301.625 719 C 302.875 720.25 303.25 722.5 303.25 724.375 C 288.25 726.375 281.25 727.75 273.75 732.375 C 266.75 736.75 264.375 743.875 264.375 749.5 C 264.375 762.875 274 771.5 286.25 771.5 C 295.625 771.5 301 767 303.625 764.875 L 303.625 769.5 L 304.375 770.375 C 313.375 770 316.125 769.875 324.25 770 L 324.875 769.125 C 324 756.875 324 753.75 324 742 L 324.125 732.75 M 303.5 752.625 C 300.875 754.125 297.5 755.875 293.375 755.875 C 288.875 755.875 285.125 753.5 285.125 748.25 C 285.125 740 295 738.625 303.5 737.5 Z M 373.75 755.625 C 371.625 756.25 370.125 756.75 368 756.75 C 361.625 756.75 361.125 752.75 360.875 750.875 C 360.5 747.625 360.5 740.75 360.625 735.75 L 360.875 718.125 L 372.125 718.625 L 372.875 717.875 L 374.125 704.5 L 373.375 703.75 L 360.875 703.75 L 361.25 682.75 L 360.375 682 C 351.875 684.5 349.625 685.125 340.75 687.375 L 340.25 688.25 L 340.375 703.875 L 333.625 703.625 L 332.875 704.25 L 331.75 717.625 L 332.5 718.375 L 340.375 718.125 L 340 738 C 339.875 741.125 339.75 744.25 339.75 747.5 C 339.75 759 340 771.375 359.5 771.375 C 364.375 771.375 368.25 770.625 372.625 769.875 L 373.5 769 L 374.75 756.125 Z M 438.5 751.5 C 433.75 754 428.125 756.875 419 756.875 C 411.5 756.875 406.375 754.5 403.375 750 C 401.5 747.375 401.125 744.875 400.625 742.375 L 441 741.625 L 441.75 740.75 C 441.625 734.625 441.5 728.375 439.75 722.125 C 435.375 707.375 425.75 704.375 421.5 703.375 C 418.375 702.5 415.5 702.25 412.625 702.25 C 393 702.25 380 715.125 380 736.75 C 380 742.625 381 748.75 383 753.125 C 390.25 770 407.25 771.5 416.25 771.5 C 426.625 771.5 431.125 769.625 437.75 767 L 438.5 766 L 439.375 751.875 L 438.5 751.5 M 400.625 729.125 C 401 725.25 401.875 720 406.625 717 C 408.125 716 409.875 715.625 411.625 715.625 C 415.75 715.625 418.25 717.75 419.625 720 C 421.375 722.75 421.5 725.75 421.5 728.625 Z M 513 770 C 524.625 770.25 539 770.5 548.375 764 C 556.625 758.125 558.875 749.875 558.875 742.875 C 558.875 734.875 555.5 727.5 548.375 724 C 546 722.75 543.25 722.25 540.625 721.75 C 544.875 720 549.875 717.75 553.125 711.125 C 554.5 708.25 555.125 705.25 555.125 702.375 C 555.125 698.375 554.125 692.875 550.125 688.375 C 544.875 682.75 536.75 681.25 524.5 681.25 C 520.25 681.25 512.625 681.375 508.375 681.5 L 490.875 681.75 L 490.125 682.5 C 490.625 694.5 490.75 699.125 490.75 716.375 C 490.75 734.125 490.625 751.75 490.375 769.5 L 491.25 770 L 513 770 M 512.125 732 C 521.625 731.75 527.125 731.75 530.75 733.875 C 534.375 736.125 535.75 740.125 535.75 744.125 C 535.75 749.75 532.625 753.25 528 754.875 C 524.25 756.125 517.5 756.125 512.125 756 L 512.125 732 M 512.125 695.25 C 514.75 695.25 518.25 695.125 520.375 695.125 C 527.125 695.125 533.25 697.5 533.25 705.625 C 533.25 712.25 528.375 715 526.875 715.75 C 523.75 717.125 517.125 717.125 512.125 717.125 Z M 626 751.5 C 621.25 754 615.625 756.875 606.5 756.875 C 599 756.875 593.875 754.5 590.875 750 C 589 747.375 588.625 744.875 588.125 742.375 L 628.5 741.625 L 629.25 740.75 C 629.125 734.625 629 728.375 627.25 722.125 C 622.875 707.375 613.25 704.375 609 703.375 C 605.875 702.5 603 702.25 600.125 702.25 C 580.5 702.25 567.5 715.125 567.5 736.75 C 567.5 742.625 568.5 748.75 570.5 753.125 C 577.75 770 594.75 771.5 603.75 771.5 C 614.125 771.5 618.625 769.625 625.25 767 L 626 766 L 626.875 751.875 L 626 751.5 M 588.125 729.125 C 588.5 725.25 589.375 720 594.125 717 C 595.625 716 597.375 715.625 599.125 715.625 C 603.25 715.625 605.75 717.75 607.125 720 C 608.875 722.75 609 725.75 609 728.625 Z M 696.375 732.75 C 696.5 721.5 696.5 716.625 693.25 711.375 C 690.75 707.375 685.75 702.375 669.75 702.375 C 659 702.375 652.375 704.375 645.25 706.5 L 644.5 707.5 L 643.875 721.125 L 644.875 721.625 C 649.25 719.875 657.375 716.625 665.75 716.625 C 670.375 716.625 672.25 717.375 673.875 719 C 675.125 720.25 675.5 722.5 675.5 724.375 C 660.5 726.375 653.5 727.75 646 732.375 C 639 736.75 636.625 743.875 636.625 749.5 C 636.625 762.875 646.25 771.5 658.5 771.5 C 667.875 771.5 673.25 767 675.875 764.875 L 675.875 769.5 L 676.625 770.375 C 685.625 770 688.375 769.875 696.5 770 L 697.125 769.125 C 696.25 756.875 696.25 753.75 696.25 742 L 696.375 732.75 M 675.75 752.625 C 673.125 754.125 669.75 755.875 665.625 755.875 C 661.125 755.875 657.375 753.5 657.375 748.25 C 657.375 740 667.25 738.625 675.75 737.5 Z M 759.875 752 C 756.5 754 753.25 756 746.875 756 C 732.75 756 729.875 744.25 729.875 736.75 C 729.875 727.625 733.875 717.125 746 717.125 C 751.5 717.125 754.5 719.125 758.25 721.625 L 759.5 721.25 C 760 714.625 760.125 712.875 761.125 706.25 L 760.5 705.5 C 755 703.75 750.25 702.25 743 702.25 C 713.625 702.25 707.875 724.5 707.875 737.25 C 707.875 751.625 715.375 771.125 743.5 771.125 C 750.125 771.125 754.375 769.875 759.625 768.375 L 760.375 767.625 L 760.875 752.625 Z M 832.125 769.125 C 831.625 758.875 831.5 755.375 831.25 742.375 L 831.25 733 C 831.125 721.125 831 714.25 827.375 709 C 823.75 703.875 818.5 702.25 813 702.25 C 803.875 702.25 796.75 706.625 791.75 709.625 L 792.125 671.125 L 791.375 670.25 L 770 673.625 L 769.375 674.375 C 770.5 686.5 770.75 691 771 707.125 C 771.25 717.25 771.375 727.375 771.375 737.5 C 771.375 749.875 771.125 757.25 770.875 769.5 L 771.5 770.375 C 780.75 769.875 782.625 769.875 792.75 769.875 L 793.5 769.125 C 792.625 750.375 792.5 744.75 792.375 722.625 C 794.75 721 797.75 718.875 802 718.875 C 808.875 718.875 809.375 726 809.875 731 C 810.125 734.875 810.25 752.625 810.25 757.25 C 810.25 761.375 810.125 765.375 810.125 769.5 L 810.75 770.375 C 819.75 769.875 821.75 769.875 831.375 769.875 Z M 838.875 770 "/>
</svg>
