<?xml version="1.0" encoding="UTF-8"?>
<svg xmlns="http://www.w3.org/2000/svg" xmlns:xlink="http://www.w3.org/1999/xlink" width="975" height="1300" viewBox="0 0 975 1300">
<path fill-rule="nonzero" fill="rgb(34.901961%, 14.901961%, 14.901961%)" fill-opacity="1" d="M 178.5 416.25 C 168 411.875 162.5 409.625 162.5 404 C 162.5 400.125 166.125 395.25 174.375 395.25 C 183.875 395.25 189.5 399.125 194.125 402.25 L 195.25 401.75 L 196.25 385.375 L 195.625 384.5 C 190.25 382.25 184.625 379.875 172.5 379.875 C 149 379.875 140.875 393.125 140.875 406.5 C 140.875 421.625 152.625 427.125 159.625 430.5 L 163.75 432.375 C 172.375 436 179 439.125 179 445.75 C 179 450.5 174.875 456.125 164 456.125 C 152.625 456.125 146.25 451.125 142.625 448.25 L 141.375 448.625 L 140.5 466.25 L 141.25 467.25 C 142.625 467.75 144 468.375 145.375 468.75 C 148.25 469.75 155.625 471.875 165 471.875 C 168.75 471.875 178.25 471.5 185.75 468 C 196.25 462.875 200.75 453.375 200.75 442.75 C 200.75 435.625 198 428 191.375 422.875 C 188 420.375 184.75 418.875 181.75 417.5 Z M 268.25 432.75 C 268.375 421.5 268.375 416.625 265.125 411.375 C 262.625 407.375 257.625 402.375 241.625 402.375 C 230.875 402.375 224.25 404.375 217.125 406.5 L 216.375 407.5 L 215.75 421.125 L 216.75 421.625 C 221.125 419.875 229.25 416.625 237.625 416.625 C 242.25 416.625 244.125 417.375 245.75 419 C 247 420.25 247.375 422.5 247.375 424.375 C 232.375 426.375 225.375 427.75 217.875 432.375 C 210.875 436.75 208.5 443.875 208.5 449.5 C 208.5 462.875 218.125 471.5 230.375 471.5 C 239.75 471.5 245.125 467 247.75 464.875 L 247.75 469.5 L 248.5 470.375 C 257.5 470 260.25 469.875 268.375 470 L 269 469.125 C 268.125 456.875 268.125 453.75 268.125 442 L 268.25 432.75 M 247.625 452.625 C 245 454.125 241.625 455.875 237.5 455.875 C 233 455.875 229.25 453.5 229.25 448.25 C 229.25 440 239.125 438.625 247.625 437.5 Z M 344.125 469.125 C 343.5 458.125 343.5 454.625 343.25 442.375 L 343.25 432.625 C 343.125 420.625 343 414.875 339.875 409.75 C 336 403.25 328.875 402.25 324.375 402.25 C 316.75 402.25 310.125 406.25 304.375 409.625 L 304.625 402.75 L 303.375 401.875 C 293.75 403.875 291.625 404.25 282.25 405.5 L 281.5 406.375 C 282.5 417.25 283.25 425.125 283.25 445.5 C 283.25 453.5 283.125 461.5 283 469.5 L 283.75 470.25 C 292.75 469.875 294.625 469.875 304.625 469.875 L 305.375 469.125 C 304.625 449.875 304.5 445 304.375 422.625 C 307 420.875 310 418.75 314 418.75 C 320.875 418.75 321.5 426.125 321.875 430.625 C 322.125 434.75 322.25 451.875 322.25 456.625 C 322.25 460.875 322.125 465.25 322.125 469.5 L 322.875 470.25 C 331.125 470 333.25 469.875 343.25 469.875 Z M 411.625 381.5 L 395.75 381.75 L 395 382.5 C 395.5 398.75 395.875 409.625 395.875 424 C 395.875 439.25 395.5 454.375 395.125 469.625 L 395.875 470.375 C 405.125 470 407.125 469.875 417.125 470 L 417.75 469.25 C 417.25 455.625 417.25 452.5 417.25 439.75 C 431.25 439.875 446.25 439.875 455.25 428.875 C 458.75 424.625 461.75 417.5 461.75 408.75 C 461.75 403.375 460.5 391.5 450.125 385.625 C 442.625 381.25 432 381.25 422.625 381.25 L 411.625 381.5 M 417.25 396.625 C 420 396.5 422.625 396.5 425.375 396.5 C 436.375 396.75 439.375 402.375 439.375 409.625 C 439.375 411.375 439.375 418.625 432.75 422.25 C 429.375 424.125 424.75 424.375 417.25 424.375 Z M 526 432.75 C 526.125 421.5 526.125 416.625 522.875 411.375 C 520.375 407.375 515.375 402.375 499.375 402.375 C 488.625 402.375 482 404.375 474.875 406.5 L 474.125 407.5 L 473.5 421.125 L 474.5 421.625 C 478.875 419.875 487 416.625 495.375 416.625 C 500 416.625 501.875 417.375 503.5 419 C 504.75 420.25 505.125 422.5 505.125 424.375 C 490.125 426.375 483.125 427.75 475.625 432.375 C 468.625 436.75 466.25 443.875 466.25 449.5 C 466.25 462.875 475.875 471.5 488.125 471.5 C 497.5 471.5 502.875 467 505.5 464.875 L 505.5 469.5 L 506.25 470.375 C 515.25 470 518 469.875 526.125 470 L 526.75 469.125 C 525.875 456.875 525.875 453.75 525.875 442 L 526 432.75 M 505.375 452.625 C 502.75 454.125 499.375 455.875 495.25 455.875 C 490.75 455.875 487 453.5 487 448.25 C 487 440 496.875 438.625 505.375 437.5 Z M 566.875 426.875 C 562.625 425.375 559.25 424 559.25 420.5 C 559.25 419 560.25 414.875 568 414.875 C 575.625 414.875 580.5 418.125 583.625 420.125 L 584.75 419.75 L 586 406.125 L 585.375 405.375 C 579.5 403.75 574.375 402.25 566.25 402.25 C 560.125 402.25 547.875 402.75 541.375 412.125 C 539.75 414.375 538 418.125 538 423.125 C 538 436.5 548.375 440.5 554.25 442.75 L 559 444.5 C 562.375 445.625 567.875 447.5 567.875 452 C 567.875 455.125 565 458.5 558 458.5 C 554.5 458.5 549.375 457.375 544.75 455 C 542.625 453.875 541.625 453 539.75 451.5 L 538.625 452 C 538.375 458.5 538.25 459.875 537.75 466.125 L 538.375 467.25 C 544.5 469.5 549.75 471.5 558.875 471.5 C 568.375 471.5 587.125 469.75 589.375 451.875 C 589.5 450.875 589.5 450 589.5 449.125 C 589.5 435.375 579.875 431.75 573 429.125 Z M 660.75 403.625 C 631.125 403.375 621.5 403.375 611.25 409.75 C 600.125 416.875 597.375 430.125 597.375 439.625 C 597.375 456.875 606.375 471.5 625.125 471.5 C 632.75 471.5 636.875 469 640.375 466.875 C 640.375 482.625 640.375 485.125 640 500.625 L 640.75 501.25 C 650 500.875 652 500.75 661.5 500.875 L 662.125 500.25 C 661.125 479.125 661 458.125 661 437 C 661 422.5 661.25 415.25 661.625 404.375 L 660.75 403.625 M 640.25 454 C 637.75 455.5 635.875 456.5 632.625 456.5 C 619.375 456.5 619.375 440.375 619.375 437 C 619.375 429.375 622.25 418 636.25 418 C 637.375 418 638.625 418 639.875 418.125 Z M 736 403.125 L 715.625 404.125 L 714.75 404.875 C 715.625 419 715.625 439 715.625 441 C 715.625 444.625 715.625 446.625 715.5 451.625 C 712.125 453.875 709.5 455.75 706.125 455.75 C 697.125 455.75 697.125 446.25 697.125 438.875 C 697.125 435.75 697.125 432.5 697.25 429.375 L 697.5 404.125 L 696.625 403.125 L 676 404.125 L 675.125 404.875 C 675.875 415.375 676 418.875 676 431.5 L 676 440.25 C 675.875 453.875 676.5 459.625 681 464.875 C 685.125 469.5 691.125 471.5 697.375 471.5 C 706.25 471.5 711.375 467.5 715.875 464 L 715.75 469.625 L 716.625 470.375 C 725.75 470 728.5 470 736.625 470 L 737.375 469.25 C 736.75 460.375 736.5 455.625 736.5 439.375 C 736.5 427.625 736.625 415.875 736.875 404.125 Z M 807.125 432.75 C 807.25 421.5 807.25 416.625 804 411.375 C 801.5 407.375 796.5 402.375 780.5 402.375 C 769.75 402.375 763.125 404.375 756 406.5 L 755.25 407.5 L 754.625 421.125 L 755.625 421.625 C 760 419.875 768.125 416.625 776.5 416.625 C 781.125 416.625 783 417.375 784.625 419 C 785.875 420.25 786.25 422.5 786.25 424.375 C 771.25 426.375 764.25 427.75 756.75 432.375 C 749.75 436.75 747.375 443.875 747.375 449.5 C 747.375 462.875 757 471.5 769.25 471.5 C 778.625 471.5 784 467 786.625 464.875 L 786.625 469.5 L 787.375 470.375 C 796.375 470 799.125 469.875 807.25 470 L 807.875 469.125 C 807 456.875 807 453.75 807 442 L 807.125 432.75 M 786.5 452.625 C 783.875 454.125 780.5 455.875 776.375 455.875 C 771.875 455.875 768.125 453.5 768.125 448.25 C 768.125 440 778 438.625 786.5 437.5 Z M 843.75 469.125 C 843.125 454.75 842.5 441.625 842.5 402.125 C 842.5 390.25 842.625 384.625 843.125 371.125 L 842.25 370.25 L 820.875 373.625 L 820.375 374.375 C 821.625 389.625 821.75 393.75 822 414 C 822.125 421.375 822.125 428.75 822.125 436.125 C 822.125 449.625 821.875 457.125 821.375 469.5 L 822.125 470.375 C 830.5 470 833.875 469.875 843 470 Z M 850.75 470 "/>
<path fill-rule="nonzero" fill="rgb(34.901961%, 14.901961%, 14.901961%)" fill-opacity="1" d="M 219.875 620 C 231.5 620.25 245.875 620.5 255.25 614 C 263.5 608.125 265.75 599.875 265.75 592.875 C 265.75 584.875 262.375 577.5 255.25 574 C 252.875 572.75 250.125 572.25 247.5 571.75 C 251.75 570 256.75 567.75 260 561.125 C 261.375 558.25 262 555.25 262 552.375 C 262 548.375 261 542.875 257 538.375 C 251.75 532.75 243.625 531.25 231.375 531.25 C 227.125 531.25 219.5 531.375 215.25 531.5 L 197.75 531.75 L 197 532.5 C 197.5 544.5 197.625 549.125 197.625 566.375 C 197.625 584.125 197.5 601.75 197.25 619.5 L 198.125 620 L 219.875 620 M 219 582 C 228.5 581.75 234 581.75 237.625 583.875 C 241.25 586.125 242.625 590.125 242.625 594.125 C 242.625 599.75 239.5 603.25 234.875 604.875 C 231.125 606.125 224.375 606.125 219 606 L 219 582 M 219 545.25 C 221.625 545.25 225.125 545.125 227.25 545.125 C 234 545.125 240.125 547.5 240.125 555.625 C 240.125 562.25 235.25 565 233.75 565.75 C 230.625 567.125 224 567.125 219 567.125 Z M 333 582.75 C 333.125 571.5 333.125 566.625 329.875 561.375 C 327.375 557.375 322.375 552.375 306.375 552.375 C 295.625 552.375 289 554.375 281.875 556.5 L 281.125 557.5 L 280.5 571.125 L 281.5 571.625 C 285.875 569.875 294 566.625 302.375 566.625 C 307 566.625 308.875 567.375 310.5 569 C 311.75 570.25 312.125 572.5 312.125 574.375 C 297.125 576.375 290.125 577.75 282.625 582.375 C 275.625 586.75 273.25 593.875 273.25 599.5 C 273.25 612.875 282.875 621.5 295.125 621.5 C 304.5 621.5 309.875 617 312.5 614.875 L 312.5 619.5 L 313.25 620.375 C 322.25 620 325 619.875 333.125 620 L 333.75 619.125 C 332.875 606.875 332.875 603.75 332.875 592 L 333 582.75 M 312.375 602.625 C 309.75 604.125 306.375 605.875 302.25 605.875 C 297.75 605.875 294 603.5 294 598.25 C 294 590 303.875 588.625 312.375 587.5 Z M 382.625 605.625 C 380.5 606.25 379 606.75 376.875 606.75 C 370.5 606.75 370 602.75 369.75 600.875 C 369.375 597.625 369.375 590.75 369.5 585.75 L 369.75 568.125 L 381 568.625 L 381.75 567.875 L 383 554.5 L 382.25 553.75 L 369.75 553.75 L 370.125 532.75 L 369.25 532 C 360.75 534.5 358.5 535.125 349.625 537.375 L 349.125 538.25 L 349.25 553.875 L 342.5 553.625 L 341.75 554.25 L 340.625 567.625 L 341.375 568.375 L 349.25 568.125 L 348.875 588 C 348.75 591.125 348.625 594.25 348.625 597.5 C 348.625 609 348.875 621.375 368.375 621.375 C 373.25 621.375 377.125 620.625 381.5 619.875 L 382.375 619 L 383.625 606.125 Z M 426.875 605.625 C 424.75 606.25 423.25 606.75 421.125 606.75 C 414.75 606.75 414.25 602.75 414 600.875 C 413.625 597.625 413.625 590.75 413.75 585.75 L 414 568.125 L 425.25 568.625 L 426 567.875 L 427.25 554.5 L 426.5 553.75 L 414 553.75 L 414.375 532.75 L 413.5 532 C 405 534.5 402.75 535.125 393.875 537.375 L 393.375 538.25 L 393.5 553.875 L 386.75 553.625 L 386 554.25 L 384.875 567.625 L 385.625 568.375 L 393.5 568.125 L 393.125 588 C 393 591.125 392.875 594.25 392.875 597.5 C 392.875 609 393.125 621.375 412.625 621.375 C 417.5 621.375 421.375 620.625 425.75 619.875 L 426.625 619 L 427.875 606.125 Z M 458.125 619.125 C 457.5 604.75 456.875 591.625 456.875 552.125 C 456.875 540.25 457 534.625 457.5 521.125 L 456.625 520.25 L 435.25 523.625 L 434.75 524.375 C 436 539.625 436.125 543.75 436.375 564 C 436.5 571.375 436.5 578.75 436.5 586.125 C 436.5 599.625 436.25 607.125 435.75 619.5 L 436.5 620.375 C 444.875 620 448.25 619.875 457.375 620 Z M 528.125 601.5 C 523.375 604 517.75 606.875 508.625 606.875 C 501.125 606.875 496 604.5 493 600 C 491.125 597.375 490.75 594.875 490.25 592.375 L 530.625 591.625 L 531.375 590.75 C 531.25 584.625 531.125 578.375 529.375 572.125 C 525 557.375 515.375 554.375 511.125 553.375 C 508 552.5 505.125 552.25 502.25 552.25 C 482.625 552.25 469.625 565.125 469.625 586.75 C 469.625 592.625 470.625 598.75 472.625 603.125 C 479.875 620 496.875 621.5 505.875 621.5 C 516.25 621.5 520.75 619.625 527.375 617 L 528.125 616 L 529 601.875 L 528.125 601.5 M 490.25 579.125 C 490.625 575.25 491.5 570 496.25 567 C 497.75 566 499.5 565.625 501.25 565.625 C 505.375 565.625 507.875 567.75 509.25 570 C 511 572.75 511.125 575.75 511.125 578.625 Z M 567.875 619.125 C 566.625 596.375 566.5 590.25 566.625 568.125 L 576.5 568.625 L 577.375 567.75 L 578.5 554.5 L 577.875 553.75 L 566.5 553.75 L 566.625 550.875 C 566.625 543.25 566.75 536.25 574.875 536.25 C 576.125 536.25 577.375 536.5 578.625 536.625 L 579.5 536.125 L 580.625 522 L 580 521.125 C 577 520.875 574.125 520.75 571.25 520.75 C 564.875 520.75 558.375 521.5 553.375 525.25 C 545.625 531 545.75 540 545.75 546.25 L 545.875 553.75 L 537.75 553.625 L 537 554.25 L 535.75 567.5 L 536.5 568.25 L 546 568 C 546 591.625 546 597.25 545.25 619.5 L 546 620.375 C 554.5 620 557.75 619.875 567.125 619.875 Z M 609.75 619.125 C 609.125 609.5 608.625 602.125 608.625 584.875 C 608.625 574.25 608.875 563.5 609 552.875 L 608.125 551.875 L 586.625 555.625 L 585.875 556.375 C 586.875 565.875 587.25 570.25 587.25 588 C 587.25 601.625 586.875 609.25 586.5 619.5 L 587.25 620.375 C 596.25 620 598.75 619.875 608.875 620 L 609.75 619.125 M 607.75 539.875 L 608.125 522.875 L 607.375 522.125 L 587 524.625 L 586.25 525.5 C 586.5 530 586.625 532.625 586.625 535.625 C 586.625 538 586.625 540.5 586.5 542.875 L 587.375 543.625 C 595.875 542.125 598.25 541.875 607.125 540.75 Z M 679.125 601.5 C 674.375 604 668.75 606.875 659.625 606.875 C 652.125 606.875 647 604.5 644 600 C 642.125 597.375 641.75 594.875 641.25 592.375 L 681.625 591.625 L 682.375 590.75 C 682.25 584.625 682.125 578.375 680.375 572.125 C 676 557.375 666.375 554.375 662.125 553.375 C 659 552.5 656.125 552.25 653.25 552.25 C 633.625 552.25 620.625 565.125 620.625 586.75 C 620.625 592.625 621.625 598.75 623.625 603.125 C 630.875 620 647.875 621.5 656.875 621.5 C 667.25 621.5 671.75 619.625 678.375 617 L 679.125 616 L 680 601.875 L 679.125 601.5 M 641.25 579.125 C 641.625 575.25 642.5 570 647.25 567 C 648.75 566 650.5 565.625 652.25 565.625 C 656.375 565.625 658.875 567.75 660.25 570 C 662 572.75 662.125 575.75 662.125 578.625 Z M 715.875 619.125 C 715.25 604.75 714.625 591.625 714.625 552.125 C 714.625 540.25 714.75 534.625 715.25 521.125 L 714.375 520.25 L 693 523.625 L 692.5 524.375 C 693.75 539.625 693.875 543.75 694.125 564 C 694.25 571.375 694.25 578.75 694.25 586.125 C 694.25 599.625 694 607.125 693.5 619.5 L 694.25 620.375 C 702.625 620 706 619.875 715.125 620 Z M 791.625 619.25 C 791.125 608 790.75 600.5 790.75 584.125 C 790.75 551.125 791.25 537.5 791.75 521 L 790.875 520.25 L 770.25 523.5 L 769.625 524.25 C 770.375 536 770.5 539.125 770.375 553.375 C 761 553.125 749.25 552.875 739.75 560.375 C 731 567.125 727.375 577.5 727.375 590.375 C 727.375 600.125 730 609.875 737.375 616 C 742.875 620.5 749.625 621.5 753.75 621.5 C 762.625 621.5 767.25 617.375 770.25 614.75 L 770 619.625 L 770.625 620.375 C 779.25 620 781.625 620 791 620 L 791.625 619.25 M 770.375 568.375 C 770.5 585 770.375 588.25 770 603.375 C 767.5 604.875 765 606.375 761.5 606.375 C 749.375 606.375 749.375 590.875 749.375 588.375 C 749.375 578.75 752.125 568 766.125 568 C 767.5 568 768.625 568.125 770.375 568.375 Z M 798.375 620 "/>
<path fill-rule="nonzero" fill="rgb(34.901961%, 14.901961%, 14.901961%)" fill-opacity="1" d="M 140.9375 716.25 C 130.4375 711.875 124.9375 709.625 124.9375 704 C 124.9375 700.125 128.5625 695.25 136.8125 695.25 C 146.3125 695.25 151.9375 699.125 156.5625 702.25 L 157.6875 701.75 L 158.6875 685.375 L 158.0625 684.5 C 152.6875 682.25 147.0625 679.875 134.9375 679.875 C 111.4375 679.875 103.3125 693.125 103.3125 706.5 C 103.3125 721.625 115.0625 727.125 122.0625 730.5 L 126.1875 732.375 C 134.8125 736 141.4375 739.125 141.4375 745.75 C 141.4375 750.5 137.3125 756.125 126.4375 756.125 C 115.0625 756.125 108.6875 751.125 105.0625 748.25 L 103.8125 748.625 L 102.9375 766.25 L 103.6875 767.25 C 105.0625 767.75 106.4375 768.375 107.8125 768.75 C 110.6875 769.75 118.0625 771.875 127.4375 771.875 C 131.1875 771.875 140.6875 771.5 148.1875 768 C 158.6875 762.875 163.1875 753.375 163.1875 742.75 C 163.1875 735.625 160.4375 728 153.8125 722.875 C 150.4375 720.375 147.1875 718.875 144.1875 717.5 Z M 210.0625 755.625 C 207.9375 756.25 206.4375 756.75 204.3125 756.75 C 197.9375 756.75 197.4375 752.75 197.1875 750.875 C 196.8125 747.625 196.8125 740.75 196.9375 735.75 L 197.1875 718.125 L 208.4375 718.625 L 209.1875 717.875 L 210.4375 704.5 L 209.6875 703.75 L 197.1875 703.75 L 197.5625 682.75 L 196.6875 682 C 188.1875 684.5 185.9375 685.125 177.0625 687.375 L 176.5625 688.25 L 176.6875 703.875 L 169.9375 703.625 L 169.1875 704.25 L 168.0625 717.625 L 168.8125 718.375 L 176.6875 718.125 L 176.3125 738 C 176.1875 741.125 176.0625 744.25 176.0625 747.5 C 176.0625 759 176.3125 771.375 195.8125 771.375 C 200.6875 771.375 204.5625 770.625 208.9375 769.875 L 209.8125 769 L 211.0625 756.125 Z M 274.9375 732.75 C 275.0625 721.5 275.0625 716.625 271.8125 711.375 C 269.3125 707.375 264.3125 702.375 248.3125 702.375 C 237.5625 702.375 230.9375 704.375 223.8125 706.5 L 223.0625 707.5 L 222.4375 721.125 L 223.4375 721.625 C 227.8125 719.875 235.9375 716.625 244.3125 716.625 C 248.9375 716.625 250.8125 717.375 252.4375 719 C 253.6875 720.25 254.0625 722.5 254.0625 724.375 C 239.0625 726.375 232.0625 727.75 224.5625 732.375 C 217.5625 736.75 215.1875 743.875 215.1875 749.5 C 215.1875 762.875 224.8125 771.5 237.0625 771.5 C 246.4375 771.5 251.8125 767 254.4375 764.875 L 254.4375 769.5 L 255.1875 770.375 C 264.1875 770 266.9375 769.875 275.0625 770 L 275.6875 769.125 C 274.8125 756.875 274.8125 753.75 274.8125 742 L 274.9375 732.75 M 254.3125 752.625 C 251.6875 754.125 248.3125 755.875 244.1875 755.875 C 239.6875 755.875 235.9375 753.5 235.9375 748.25 C 235.9375 740 245.8125 738.625 254.3125 737.5 Z M 324.5625 755.625 C 322.4375 756.25 320.9375 756.75 318.8125 756.75 C 312.4375 756.75 311.9375 752.75 311.6875 750.875 C 311.3125 747.625 311.3125 740.75 311.4375 735.75 L 311.6875 718.125 L 322.9375 718.625 L 323.6875 717.875 L 324.9375 704.5 L 324.1875 703.75 L 311.6875 703.75 L 312.0625 682.75 L 311.1875 682 C 302.6875 684.5 300.4375 685.125 291.5625 687.375 L 291.0625 688.25 L 291.1875 703.875 L 284.4375 703.625 L 283.6875 704.25 L 282.5625 717.625 L 283.3125 718.375 L 291.1875 718.125 L 290.8125 738 C 290.6875 741.125 290.5625 744.25 290.5625 747.5 C 290.5625 759 290.8125 771.375 310.3125 771.375 C 315.1875 771.375 319.0625 770.625 323.4375 769.875 L 324.3125 769 L 325.5625 756.125 Z M 389.3125 751.5 C 384.5625 754 378.9375 756.875 369.8125 756.875 C 362.3125 756.875 357.1875 754.5 354.1875 750 C 352.3125 747.375 351.9375 744.875 351.4375 742.375 L 391.8125 741.625 L 392.5625 740.75 C 392.4375 734.625 392.3125 728.375 390.5625 722.125 C 386.1875 707.375 376.5625 704.375 372.3125 703.375 C 369.1875 702.5 366.3125 702.25 363.4375 702.25 C 343.8125 702.25 330.8125 715.125 330.8125 736.75 C 330.8125 742.625 331.8125 748.75 333.8125 753.125 C 341.0625 770 358.0625 771.5 367.0625 771.5 C 377.4375 771.5 381.9375 769.625 388.5625 767 L 389.3125 766 L 390.1875 751.875 L 389.3125 751.5 M 351.4375 729.125 C 351.8125 725.25 352.6875 720 357.4375 717 C 358.9375 716 360.6875 715.625 362.4375 715.625 C 366.5625 715.625 369.0625 717.75 370.4375 720 C 372.1875 722.75 372.3125 725.75 372.3125 728.625 Z M 515.4375 681.375 C 505.4375 681.75 503.8125 681.75 493.3125 681.75 L 492.6875 682.5 C 493.5625 696.625 493.5625 700.25 493.6875 715 C 488.1875 715.125 482.6875 715.25 477.0625 715.25 C 472.6875 715.25 468.1875 715.125 463.8125 715.125 L 464.0625 682.125 L 463.4375 681.375 C 453.8125 681.75 451.9375 681.75 441.0625 681.75 L 440.3125 682.5 C 440.9375 695.375 441.6875 710.75 441.6875 741.75 C 441.6875 753 441.4375 759.125 441.1875 769.625 L 441.8125 770.375 C 450.9375 770 453.1875 769.875 464.1875 770 L 464.8125 769.25 C 464.0625 753.75 463.9375 749.25 463.8125 731.125 C 469.3125 730.875 473.9375 730.75 478.8125 730.75 C 483.8125 730.75 488.8125 730.875 493.8125 731 C 494.0625 747.875 494.0625 752 493.4375 769.625 L 494.0625 770.375 C 503.4375 770 505.9375 769.875 516.5625 770 L 517.1875 769.25 C 516.1875 748.25 515.8125 727.375 515.8125 706.375 C 515.8125 697.625 515.9375 691.75 516.0625 682.125 Z M 554.3125 769.125 C 553.6875 759.5 553.1875 752.125 553.1875 734.875 C 553.1875 724.25 553.4375 713.5 553.5625 702.875 L 552.6875 701.875 L 531.1875 705.625 L 530.4375 706.375 C 531.4375 715.875 531.8125 720.25 531.8125 738 C 531.8125 751.625 531.4375 759.25 531.0625 769.5 L 531.8125 770.375 C 540.8125 770 543.3125 769.875 553.4375 770 L 554.3125 769.125 M 552.3125 689.875 L 552.6875 672.875 L 551.9375 672.125 L 531.5625 674.625 L 530.8125 675.5 C 531.0625 680 531.1875 682.625 531.1875 685.625 C 531.1875 688 531.1875 690.5 531.0625 692.875 L 531.9375 693.625 C 540.4375 692.125 542.8125 691.875 551.6875 690.75 Z M 594.4375 726.875 C 590.1875 725.375 586.8125 724 586.8125 720.5 C 586.8125 719 587.8125 714.875 595.5625 714.875 C 603.1875 714.875 608.0625 718.125 611.1875 720.125 L 612.3125 719.75 L 613.5625 706.125 L 612.9375 705.375 C 607.0625 703.75 601.9375 702.25 593.8125 702.25 C 587.6875 702.25 575.4375 702.75 568.9375 712.125 C 567.3125 714.375 565.5625 718.125 565.5625 723.125 C 565.5625 736.5 575.9375 740.5 581.8125 742.75 L 586.5625 744.5 C 589.9375 745.625 595.4375 747.5 595.4375 752 C 595.4375 755.125 592.5625 758.5 585.5625 758.5 C 582.0625 758.5 576.9375 757.375 572.3125 755 C 570.1875 753.875 569.1875 753 567.3125 751.5 L 566.1875 752 C 565.9375 758.5 565.8125 759.875 565.3125 766.125 L 565.9375 767.25 C 572.0625 769.5 577.3125 771.5 586.4375 771.5 C 595.9375 771.5 614.6875 769.75 616.9375 751.875 C 617.0625 750.875 617.0625 750 617.0625 749.125 C 617.0625 735.375 607.4375 731.75 600.5625 729.125 Z M 663.0625 755.625 C 660.9375 756.25 659.4375 756.75 657.3125 756.75 C 650.9375 756.75 650.4375 752.75 650.1875 750.875 C 649.8125 747.625 649.8125 740.75 649.9375 735.75 L 650.1875 718.125 L 661.4375 718.625 L 662.1875 717.875 L 663.4375 704.5 L 662.6875 703.75 L 650.1875 703.75 L 650.5625 682.75 L 649.6875 682 C 641.1875 684.5 638.9375 685.125 630.0625 687.375 L 629.5625 688.25 L 629.6875 703.875 L 622.9375 703.625 L 622.1875 704.25 L 621.0625 717.625 L 621.8125 718.375 L 629.6875 718.125 L 629.3125 738 C 629.1875 741.125 629.0625 744.25 629.0625 747.5 C 629.0625 759 629.3125 771.375 648.8125 771.375 C 653.6875 771.375 657.5625 770.625 661.9375 769.875 L 662.8125 769 L 664.0625 756.125 Z M 735.9375 736.75 C 735.9375 731.875 735.9375 711.625 718.4375 704.75 C 712.9375 702.625 706.4375 702.375 703.1875 702.375 C 681.4375 702.375 669.1875 714 669.1875 737 C 669.1875 745 670.4375 753.125 675.0625 759.875 C 678.3125 764.75 684.4375 771.5 702.3125 771.5 C 728.8125 771.5 735.9375 755.5 735.9375 736.75 M 714.3125 736.625 C 714.3125 746.875 712.9375 758.25 702.5625 758.25 C 699.3125 758.25 697.0625 756.75 695.5625 755.375 C 693.4375 753.25 691.0625 749 691.0625 736.875 C 691.0625 733.25 691.0625 725.25 693.5625 720.875 C 695.4375 717.5 698.6875 715.25 702.6875 715.25 C 706.1875 715.25 709.0625 717.125 710.6875 719.125 C 713.6875 722.75 714.3125 729.875 714.3125 736.625 Z M 783.9375 723.625 L 787.4375 703.25 L 786.6875 702.375 C 785.8125 702.375 784.9375 702.25 784.0625 702.25 C 778.9375 702.25 773.1875 705.125 769.1875 714.375 L 769.5625 702.875 L 768.5625 701.875 C 759.3125 703.875 756.9375 704.25 747.8125 705.625 L 747.0625 706.375 C 747.8125 715.75 748.1875 721.375 748.1875 738.75 C 748.1875 749 748.0625 759.25 747.8125 769.625 L 748.5625 770.375 C 757.8125 770 759.8125 769.875 769.8125 770 L 770.4375 769.125 C 769.9375 759 769.1875 744.875 769.1875 736.25 C 769.1875 730.625 769.1875 722.375 777.6875 722.375 C 779.8125 722.375 781.0625 723.125 782.8125 724.125 Z M 817.3125 769.125 C 816.6875 759.5 816.1875 752.125 816.1875 734.875 C 816.1875 724.25 816.4375 713.5 816.5625 702.875 L 815.6875 701.875 L 794.1875 705.625 L 793.4375 706.375 C 794.4375 715.875 794.8125 720.25 794.8125 738 C 794.8125 751.625 794.4375 759.25 794.0625 769.5 L 794.8125 770.375 C 803.8125 770 806.3125 769.875 816.4375 770 L 817.3125 769.125 M 815.3125 689.875 L 815.6875 672.875 L 814.9375 672.125 L 794.5625 674.625 L 793.8125 675.5 C 794.0625 680 794.1875 682.625 794.1875 685.625 C 794.1875 688 794.1875 690.5 794.0625 692.875 L 794.9375 693.625 C 803.4375 692.125 805.8125 691.875 814.6875 690.75 Z M 880.0625 752 C 876.6875 754 873.4375 756 867.0625 756 C 852.9375 756 850.0625 744.25 850.0625 736.75 C 850.0625 727.625 854.0625 717.125 866.1875 717.125 C 871.6875 717.125 874.6875 719.125 878.4375 721.625 L 879.6875 721.25 C 880.1875 714.625 880.3125 712.875 881.3125 706.25 L 880.6875 705.5 C 875.1875 703.75 870.4375 702.25 863.1875 702.25 C 833.8125 702.25 828.0625 724.5 828.0625 737.25 C 828.0625 751.625 835.5625 771.125 863.6875 771.125 C 870.3125 771.125 874.5625 769.875 879.8125 768.375 L 880.5625 767.625 L 881.0625 752.625 Z M 883.5625 770 "/>
<path fill-rule="nonzero" fill="rgb(34.901961%, 14.901961%, 14.901961%)" fill-opacity="1" d="M 382.375 831.5 L 366.5 831.75 L 365.75 832.5 C 366.25 848.75 366.625 859.625 366.625 874 C 366.625 889.25 366.25 904.375 365.875 919.625 L 366.625 920.375 C 375.875 920 377.875 919.875 387.875 920 L 388.5 919.25 C 388 905.625 388 902.5 388 889.75 C 402 889.875 417 889.875 426 878.875 C 429.5 874.625 432.5 867.5 432.5 858.75 C 432.5 853.375 431.25 841.5 420.875 835.625 C 413.375 831.25 402.75 831.25 393.375 831.25 L 382.375 831.5 M 388 846.625 C 390.75 846.5 393.375 846.5 396.125 846.5 C 407.125 846.75 410.125 852.375 410.125 859.625 C 410.125 861.375 410.125 868.625 403.5 872.25 C 400.125 874.125 395.5 874.375 388 874.375 Z M 496.75 882.75 C 496.875 871.5 496.875 866.625 493.625 861.375 C 491.125 857.375 486.125 852.375 470.125 852.375 C 459.375 852.375 452.75 854.375 445.625 856.5 L 444.875 857.5 L 444.25 871.125 L 445.25 871.625 C 449.625 869.875 457.75 866.625 466.125 866.625 C 470.75 866.625 472.625 867.375 474.25 869 C 475.5 870.25 475.875 872.5 475.875 874.375 C 460.875 876.375 453.875 877.75 446.375 882.375 C 439.375 886.75 437 893.875 437 899.5 C 437 912.875 446.625 921.5 458.875 921.5 C 468.25 921.5 473.625 917 476.25 914.875 L 476.25 919.5 L 477 920.375 C 486 920 488.75 919.875 496.875 920 L 497.5 919.125 C 496.625 906.875 496.625 903.75 496.625 892 L 496.75 882.75 M 476.125 902.625 C 473.5 904.125 470.125 905.875 466 905.875 C 461.5 905.875 457.75 903.5 457.75 898.25 C 457.75 890 467.625 888.625 476.125 887.5 Z M 547.5 873.625 L 551 853.25 L 550.25 852.375 C 549.375 852.375 548.5 852.25 547.625 852.25 C 542.5 852.25 536.75 855.125 532.75 864.375 L 533.125 852.875 L 532.125 851.875 C 522.875 853.875 520.5 854.25 511.375 855.625 L 510.625 856.375 C 511.375 865.75 511.75 871.375 511.75 888.75 C 511.75 899 511.625 909.25 511.375 919.625 L 512.125 920.375 C 521.375 920 523.375 919.875 533.375 920 L 534 919.125 C 533.5 909 532.75 894.875 532.75 886.25 C 532.75 880.625 532.75 872.375 541.25 872.375 C 543.375 872.375 544.625 873.125 546.375 874.125 Z M 622.5 918.375 C 610.75 898.5 609.5 896.25 600 879.125 C 608.625 867.375 609.5 866.125 618.375 854.75 L 617.75 853.5 L 597.375 853.75 L 596.125 854.625 C 586.375 871.5 585.125 873.5 579.375 882.125 L 579.375 868.25 C 579.5 844.875 579.625 839.875 580.25 821 L 579.25 820.25 L 557.5 823.5 L 556.75 824.375 C 557.625 836.5 558 842.375 558.25 858.75 C 558.5 879 558.5 899.25 558.375 919.5 L 559.25 920.375 C 567.625 920 570 920 579.5 920 L 580.25 919.125 L 579.5 898 L 579.375 883.625 C 590.25 903.625 591.625 906.375 598 919.625 L 599.125 920.375 L 621.625 919.5 Z M 621 920 "/>
</svg>
