<svg xmlns="http://www.w3.org/2000/svg" width="612" height="817" viewBox="0 0 612 817">
  <defs>
    <style>
      .cls-1 {
        fill: #592626;
        fill-rule: evenodd;
      }
    </style>
  </defs>
  <path id="San_Pasqual_Battlefield_State_Historic_Park" data-name="San Pasqual Battlefield State Historic Park" class="cls-1" d="M111.7,265.623c-6.533-2.722-9.955-4.122-9.955-7.622,0-2.411,2.256-5.444,7.389-5.444,5.911,0,9.41,2.411,12.288,4.355l0.7-.311,0.622-10.188-0.389-.545a31.857,31.857,0,0,0-14.388-2.877c-14.621,0-19.677,8.244-19.677,16.566,0,9.41,7.311,12.832,11.666,14.932l2.567,1.167c5.366,2.255,9.488,4.2,9.488,8.322,0,2.955-2.566,6.455-9.333,6.455a19.84,19.84,0,0,1-13.3-4.9l-0.778.233-0.544,10.967,0.467,0.622c0.855,0.311,1.711.7,2.566,0.933a38.749,38.749,0,0,0,12.211,1.944c2.333,0,8.244-.233,12.91-2.411,6.533-3.188,9.333-9.1,9.333-15.71a15.415,15.415,0,0,0-5.833-12.366,31.446,31.446,0,0,0-5.989-3.344Zm55.844,10.266c0.078-7,.078-10.033-1.944-13.3-1.556-2.489-4.667-5.6-14.622-5.6a47.306,47.306,0,0,0-15.243,2.567l-0.467.622-0.389,8.477,0.622,0.311c2.722-1.089,7.778-3.111,12.988-3.111,2.878,0,4.045.467,5.056,1.478a4.9,4.9,0,0,1,1.011,3.344c-9.333,1.245-13.688,2.1-18.355,4.978a12.437,12.437,0,0,0-5.833,10.655c0,8.322,5.989,13.688,13.611,13.688a16.079,16.079,0,0,0,10.81-4.122v2.878l0.467,0.544c5.6-.233,7.311-0.311,12.366-0.233l0.389-.545c-0.545-7.621-.545-9.566-0.545-16.877Zm-12.833,12.366a12.6,12.6,0,0,1-6.3,2.022c-2.8,0-5.133-1.477-5.133-4.744,0-5.133,6.144-5.988,11.432-6.688v9.41Zm60.044,10.266c-0.389-6.844-.389-9.021-0.544-16.643v-6.067c-0.078-7.466-.156-11.044-2.1-14.232-2.411-4.045-6.844-4.667-9.644-4.667-4.744,0-8.866,2.489-12.444,4.589l0.155-4.278-0.777-.544c-5.989,1.244-7.311,1.478-13.144,2.255l-0.467.545a216.367,216.367,0,0,1,1.089,24.343c0,4.978-.078,9.955-0.155,14.933l0.466,0.466c5.6-.233,6.767-0.233,12.988-0.233l0.467-.467c-0.467-11.977-.544-15.01-0.622-28.932,1.633-1.088,3.5-2.411,5.989-2.411,4.277,0,4.666,4.589,4.9,7.389,0.156,2.567.234,13.222,0.234,16.177,0,2.644-.078,5.366-0.078,8.011l0.466,0.466c5.134-.155,6.456-0.233,12.678-0.233Zm42-54.519-9.877.155-0.467.467c0.312,10.111.545,16.877,0.545,25.821,0,9.488-.233,18.9-0.467,28.387l0.467,0.467c5.755-.233,7-0.311,13.221-0.233l0.389-.467c-0.311-8.477-.311-10.422-0.311-18.355,8.711,0.078,18.044.078,23.644-6.766a19.991,19.991,0,0,0,4.044-12.521c0-3.345-.778-10.733-7.233-14.389-4.667-2.722-11.277-2.722-17.11-2.722Zm3.5,9.41c1.711-.077,3.345-0.077,5.056-0.077,6.844,0.155,8.71,3.655,8.71,8.166,0,1.089,0,5.6-4.122,7.855-2.1,1.167-4.977,1.322-9.644,1.322V253.412Zm66.11,22.477c0.078-7,.078-10.033-1.944-13.3-1.555-2.489-4.666-5.6-14.622-5.6a47.306,47.306,0,0,0-15.243,2.567l-0.467.622-0.389,8.477,0.622,0.311c2.723-1.089,7.778-3.111,12.989-3.111,2.877,0,4.044.467,5.055,1.478a4.9,4.9,0,0,1,1.011,3.344c-9.333,1.245-13.688,2.1-18.355,4.978a12.437,12.437,0,0,0-5.833,10.655c0,8.322,5.989,13.688,13.611,13.688a16.079,16.079,0,0,0,10.81-4.122v2.878l0.467,0.544c5.6-.233,7.311-0.311,12.366-0.233l0.389-.545c-0.544-7.621-.544-9.566-0.544-16.877Zm-12.832,12.366a12.6,12.6,0,0,1-6.3,2.022c-2.8,0-5.133-1.477-5.133-4.744,0-5.133,6.144-5.988,11.433-6.688v9.41Zm38.267-16.021c-2.645-.934-4.745-1.789-4.745-3.967,0-.933.622-3.5,5.445-3.5a16.874,16.874,0,0,1,9.721,3.267l0.7-.233,0.778-8.478-0.389-.466a39.606,39.606,0,0,0-11.9-1.945c-3.811,0-11.433.311-15.477,6.144a11.694,11.694,0,0,0-2.1,6.845c0,8.321,6.455,10.81,10.11,12.21l2.956,1.089c2.1,0.7,5.522,1.866,5.522,4.666,0,1.945-1.789,4.045-6.144,4.045a19.454,19.454,0,0,1-8.244-2.178,17.116,17.116,0,0,1-3.111-2.178l-0.7.311c-0.156,4.045-.234,4.9-0.545,8.789l0.389,0.7c3.811,1.4,7.077,2.644,12.755,2.644,5.911,0,17.577-1.089,18.977-12.21a13.154,13.154,0,0,0,.078-1.711c0-8.556-5.989-10.811-10.267-12.444Zm58.41-14.466c-18.433-.156-24.421-0.156-30.8,3.811-6.922,4.433-8.633,12.677-8.633,18.588,0,10.733,5.6,19.832,17.266,19.832a16.288,16.288,0,0,0,9.488-2.878c0,9.8,0,11.355-.233,21l0.467,0.389c5.755-.233,7-0.311,12.91-0.233l0.389-.389c-0.622-13.144-.7-26.21-0.7-39.354,0-9.021.156-13.532,0.389-20.3ZM397.46,289.111a8.242,8.242,0,0,1-4.744,1.555c-8.245,0-8.245-10.033-8.245-12.133,0-4.744,1.789-11.821,10.5-11.821a22.538,22.538,0,0,1,2.255.078Zm59.577-31.654-12.677.622-0.545.467c0.545,8.788.545,21.232,0.545,22.476,0,2.256,0,3.5-.078,6.611-2.1,1.4-3.733,2.567-5.833,2.567-5.6,0-5.6-5.911-5.6-10.5,0-1.944,0-3.966.078-5.911l0.155-15.71-0.544-.622-12.833.622-0.544.467c0.467,6.533.544,8.71,0.544,16.565v5.445c-0.077,8.477.311,12.055,3.111,15.321A13.32,13.32,0,0,0,433.005,300c5.522,0,8.71-2.489,11.51-4.666l-0.078,3.5,0.545,0.467c5.677-.233,7.388-0.233,12.444-0.233l0.466-.467c-0.388-5.522-.544-8.477-0.544-18.588q0-10.967.233-21.932Zm44.256,18.432c0.077-7,.077-10.033-1.945-13.3-1.555-2.489-4.666-5.6-14.621-5.6a47.308,47.308,0,0,0-15.244,2.567l-0.467.622-0.389,8.477,0.623,0.311c2.722-1.089,7.777-3.111,12.988-3.111,2.878,0,4.044.467,5.055,1.478a4.9,4.9,0,0,1,1.011,3.344c-9.333,1.245-13.688,2.1-18.354,4.978a12.435,12.435,0,0,0-5.833,10.655c0,8.322,5.988,13.688,13.61,13.688a16.084,16.084,0,0,0,10.811-4.122v2.878L489,299.3c5.6-.233,7.311-0.311,12.366-0.233l0.389-.545c-0.544-7.621-.544-9.566-0.544-16.877ZM488.46,288.255a12.6,12.6,0,0,1-6.3,2.022c-2.8,0-5.133-1.477-5.133-4.744,0-5.133,6.144-5.988,11.433-6.688v9.41Zm35.622,10.266c-0.388-8.944-.777-17.11-0.777-41.687,0-7.388.078-10.888,0.389-19.287L523.149,237l-13.3,2.1-0.311.467c0.777,9.488.855,12.055,1.011,24.654,0.078,4.589.078,9.177,0.078,13.766,0,8.4-.156,13.066-0.467,20.766l0.467,0.544c5.21-.233,7.31-0.311,12.988-0.233ZM136.088,392.4c7.233,0.156,16.177.311,22.01-3.733a15.459,15.459,0,0,0,6.533-13.144c0-4.977-2.1-9.566-6.533-11.744a17.217,17.217,0,0,0-4.822-1.4c2.644-1.088,5.755-2.488,7.777-6.61a12.611,12.611,0,0,0,1.245-5.445,13.055,13.055,0,0,0-3.111-8.71c-3.267-3.5-8.322-4.433-15.944-4.433-2.644,0-7.388.077-10.033,0.155l-10.888.156-0.467.466c0.311,7.467.389,10.344,0.389,21.077,0,11.044-.078,22.01-0.233,33.054l0.544,0.311h13.533Zm-0.544-23.643c5.91-.156,9.332-0.156,11.588,1.166a7.173,7.173,0,0,1,3.111,6.378,6.685,6.685,0,0,1-4.822,6.688c-2.333.778-6.533,0.778-9.877,0.7V368.756Zm0-22.866c1.633,0,3.81-.078,5.133-0.078,4.2,0,8.01,1.478,8.01,6.533a6.868,6.868,0,0,1-3.966,6.3c-1.944.856-6.066,0.856-9.177,0.856V345.89Zm70.932,23.332c0.078-7,.078-10.032-1.944-13.3-1.556-2.489-4.667-5.6-14.622-5.6a47.335,47.335,0,0,0-15.244,2.567l-0.466.622-0.389,8.477,0.622,0.312c2.722-1.089,7.777-3.111,12.988-3.111,2.878,0,4.045.466,5.056,1.477a4.909,4.909,0,0,1,1.011,3.345c-9.333,1.244-13.689,2.1-18.355,4.977a12.437,12.437,0,0,0-5.833,10.655c0,8.322,5.989,13.688,13.61,13.688a16.077,16.077,0,0,0,10.811-4.122v2.878l0.467,0.544c5.6-.233,7.31-0.311,12.366-0.233l0.389-.544c-0.545-7.622-.545-9.567-0.545-16.877Zm-12.833,12.367a12.6,12.6,0,0,1-6.3,2.022c-2.8,0-5.133-1.478-5.133-4.745,0-5.133,6.145-5.988,11.433-6.688v9.411Zm43.711,1.866a11.669,11.669,0,0,1-3.577.7c-3.967,0-4.278-2.489-4.433-3.655a88.88,88.88,0,0,1-.156-9.411l0.156-10.966,7,0.311,0.467-.467,0.778-8.321-0.467-.467h-7.777l0.233-13.066-0.545-.467c-5.288,1.556-6.688,1.945-12.21,3.344l-0.311.545,0.078,9.722-4.2-.156-0.467.389-0.7,8.322,0.467,0.466,4.9-.155-0.234,12.366c-0.077,1.944-.155,3.889-0.155,5.911,0,7.155.155,14.855,12.288,14.855a45.168,45.168,0,0,0,8.166-.934l0.545-.544,0.777-8.011Zm27.534,0a11.68,11.68,0,0,1-3.578.7c-3.966,0-4.278-2.489-4.433-3.655a89.421,89.421,0,0,1-.156-9.411l0.156-10.966,7,0.311,0.466-.467,0.778-8.321-0.467-.467h-7.777l0.233-13.066-0.544-.467c-5.289,1.556-6.689,1.945-12.211,3.344l-0.311.545,0.078,9.722-4.2-.156-0.466.389-0.7,8.322,0.466,0.466,4.9-.155-0.233,12.366c-0.078,1.944-.156,3.889-0.156,5.911,0,7.155.156,14.855,12.288,14.855a45.169,45.169,0,0,0,8.167-.934l0.544-.544,0.778-8.011Zm19.444,8.4c-0.388-8.944-.777-17.111-0.777-41.687,0-7.389.078-10.889,0.389-19.288l-0.545-.545-13.3,2.1-0.311.467c0.777,9.488.855,12.055,1.011,24.654,0.078,4.589.078,9.178,0.078,13.766,0,8.4-.156,13.066-0.467,20.766l0.467,0.544c5.21-.233,7.31-0.311,12.988-0.233Zm43.555-10.966a23.773,23.773,0,0,1-12.133,3.344c-4.666,0-7.855-1.478-9.721-4.278a11.012,11.012,0,0,1-1.712-4.744l25.122-.467,0.466-.544a45.593,45.593,0,0,0-1.244-11.588c-2.722-9.178-8.711-11.044-11.355-11.666a19.9,19.9,0,0,0-5.522-.7c-12.211,0-20.3,8.01-20.3,21.465a25.893,25.893,0,0,0,1.866,10.189c4.511,10.5,15.089,11.432,20.688,11.432,6.455,0,9.255-1.166,13.377-2.8l0.467-.623,0.544-8.788Zm-23.566-13.922c0.234-2.411.778-5.677,3.734-7.544a5.967,5.967,0,0,1,8.088,1.867,9.5,9.5,0,0,1,1.167,5.366Zm48.3,24.888c-0.777-14.155-.855-17.966-0.777-31.732l6.144,0.311,0.544-.544,0.7-8.244-0.389-.467h-7.077l0.078-1.789c0-4.744.077-9.1,5.133-9.1,0.777,0,1.555.155,2.333,0.233l0.544-.311,0.7-8.789-0.389-.544c-1.866-.156-3.655-0.233-5.444-0.233-3.966,0-8.011.466-11.122,2.8-4.822,3.578-4.744,9.178-4.744,13.066l0.078,4.667-5.055-.078-0.467.389-0.778,8.244L333.1,360.2l5.911-.156c0,14.7,0,18.2-.467,32.043l0.467,0.544c5.288-.233,7.311-0.311,13.144-0.311Zm26.056,0c-0.389-5.989-.7-10.578-0.7-21.31,0-6.611.155-13.3,0.233-19.911l-0.544-.622-13.377,2.333-0.467.467c0.622,5.911.856,8.633,0.856,19.677,0,8.477-.234,13.222-0.467,19.6l0.467,0.544c5.6-.233,7.155-0.311,13.454-0.233Zm-1.245-49.309,0.234-10.577L377.2,331.5l-12.677,1.556-0.467.544c0.156,2.8.234,4.433,0.234,6.3,0,1.477,0,3.033-.078,4.511l0.544,0.466c5.289-.933,6.767-1.089,12.289-1.789Zm44.411,38.343a23.779,23.779,0,0,1-12.133,3.344c-4.667,0-7.855-1.478-9.722-4.278a11,11,0,0,1-1.711-4.744l25.121-.467,0.467-.544a45.6,45.6,0,0,0-1.245-11.588c-2.722-9.178-8.71-11.044-11.355-11.666a19.9,19.9,0,0,0-5.522-.7c-12.21,0-20.3,8.01-20.3,21.465a25.875,25.875,0,0,0,1.867,10.189c4.511,10.5,15.088,11.432,20.688,11.432,6.455,0,9.255-1.166,13.377-2.8l0.467-.623,0.544-8.788Zm-23.566-13.922c0.233-2.411.778-5.677,3.733-7.544a5.969,5.969,0,0,1,8.089,1.867,9.5,9.5,0,0,1,1.166,5.366Zm46.433,24.888c-0.389-8.944-.778-17.111-0.778-41.687,0-7.389.078-10.889,0.389-19.288l-0.544-.545-13.3,2.1-0.311.467c0.777,9.488.855,12.055,1.011,24.654,0.077,4.589.077,9.178,0.077,13.766,0,8.4-.155,13.066-0.466,20.766l0.466,0.544c5.211-.233,7.311-0.311,12.989-0.233Zm47.132,0.077c-0.311-7-.544-11.666-0.544-21.854,0-20.532.311-29.01,0.622-39.276l-0.544-.467-12.833,2.023-0.389.466c0.467,7.311.545,9.255,0.467,18.122-5.833-.156-13.144-0.312-19.055,4.355-5.444,4.2-7.7,10.655-7.7,18.666,0,6.066,1.633,12.132,6.221,15.943a16.4,16.4,0,0,0,10.189,3.422,14.25,14.25,0,0,0,10.266-4.2l-0.156,3.033,0.389,0.466c5.367-.233,6.844-0.233,12.677-0.233Zm-13.221-31.654c0.078,10.344,0,12.367-.234,21.777a9.836,9.836,0,0,1-5.288,1.867c-7.544,0-7.544-9.644-7.544-11.2,0-5.988,1.711-12.677,10.421-12.677A17.485,17.485,0,0,1,478.621,360.278ZM89.81,452.29c-6.533-2.722-9.955-4.122-9.955-7.622,0-2.411,2.255-5.444,7.389-5.444,5.911,0,9.411,2.411,12.288,4.355l0.7-.311,0.622-10.189-0.389-.544a31.857,31.857,0,0,0-14.388-2.878c-14.621,0-19.677,8.244-19.677,16.566,0,9.411,7.311,12.833,11.666,14.933l2.567,1.166c5.366,2.256,9.488,4.2,9.488,8.322,0,2.956-2.567,6.456-9.333,6.456a19.84,19.84,0,0,1-13.3-4.9l-0.778.233L66.167,483.4l0.467,0.622c0.855,0.312,1.711.7,2.567,0.934A38.748,38.748,0,0,0,81.41,486.9c2.333,0,8.244-.233,12.91-2.411,6.533-3.189,9.333-9.1,9.333-15.71a15.412,15.412,0,0,0-5.833-12.366,31.52,31.52,0,0,0-5.989-3.345Zm43.011,24.5a11.669,11.669,0,0,1-3.578.7c-3.966,0-4.277-2.488-4.433-3.655a89.18,89.18,0,0,1-.155-9.411l0.155-10.966,7,0.311,0.467-.466,0.777-8.322-0.466-.467H124.81l0.234-13.066-0.545-.466c-5.288,1.555-6.688,1.944-12.21,3.344l-0.311.544,0.077,9.722-4.2-.156-0.466.389-0.7,8.322,0.467,0.467,4.9-.156-0.233,12.366c-0.078,1.945-.156,3.889-0.156,5.911,0,7.155.156,14.855,12.289,14.855a45.259,45.259,0,0,0,8.166-.933l0.544-.545,0.778-8.01Zm40.366-14.232c0.078-7,.078-10.033-1.944-13.3-1.556-2.488-4.667-5.6-14.622-5.6a47.347,47.347,0,0,0-15.244,2.566l-0.466.622-0.389,8.478,0.622,0.311c2.722-1.089,7.778-3.111,12.988-3.111,2.878,0,4.045.467,5.056,1.478a4.905,4.905,0,0,1,1.011,3.344c-9.333,1.244-13.688,2.1-18.355,4.977a12.44,12.44,0,0,0-5.833,10.656c0,8.321,5.989,13.688,13.61,13.688a16.079,16.079,0,0,0,10.811-4.122v2.877l0.467,0.545c5.6-.234,7.31-0.311,12.366-0.234l0.389-.544c-0.545-7.622-.545-9.566-0.545-16.877Zm-12.833,12.366a12.6,12.6,0,0,1-6.3,2.022c-2.8,0-5.133-1.478-5.133-4.744,0-5.133,6.144-5.989,11.432-6.689v9.411Zm43.711,1.866a11.669,11.669,0,0,1-3.577.7c-3.967,0-4.278-2.488-4.433-3.655a88.88,88.88,0,0,1-.156-9.411l0.156-10.966,7,0.311,0.467-.466,0.778-8.322-0.467-.467h-7.777l0.233-13.066-0.544-.466c-5.289,1.555-6.689,1.944-12.211,3.344l-0.311.544,0.078,9.722-4.2-.156-0.467.389-0.7,8.322,0.467,0.467,4.9-.156-0.234,12.366c-0.077,1.945-.155,3.889-0.155,5.911,0,7.155.155,14.855,12.288,14.855a45.259,45.259,0,0,0,8.166-.933l0.545-.545,0.778-8.01Zm38.733-2.566a23.773,23.773,0,0,1-12.133,3.344c-4.666,0-7.855-1.478-9.721-4.277a11,11,0,0,1-1.711-4.745l25.121-.466,0.466-.545a45.6,45.6,0,0,0-1.244-11.588c-2.722-9.177-8.711-11.044-11.355-11.666a19.9,19.9,0,0,0-5.522-.7c-12.211,0-20.3,8.011-20.3,21.466a25.891,25.891,0,0,0,1.866,10.188c4.511,10.5,15.089,11.433,20.688,11.433,6.456,0,9.255-1.167,13.377-2.8l0.467-.622,0.545-8.789ZM219.233,460.3c0.233-2.411.777-5.677,3.733-7.544a5.97,5.97,0,0,1,8.088,1.867,9.5,9.5,0,0,1,1.167,5.366Zm102.042-29.709c-6.222.233-7.233,0.233-13.766,0.233l-0.389.467c0.545,8.788.545,11.044,0.623,20.221-3.422.078-6.844,0.155-10.344,0.155-2.722,0-5.522-.077-8.244-0.077l0.155-20.533-0.389-.466c-5.988.233-7.155,0.233-13.921,0.233l-0.467.467c0.389,8.01.856,17.577,0.856,36.865,0,7-.156,10.81-0.311,17.343l0.388,0.467c5.678-.234,7.078-0.311,13.922-0.234l0.389-.466c-0.467-9.644-.545-12.444-0.622-23.721,3.422-.156,6.3-0.234,9.333-0.234,3.111,0,6.221.078,9.332,0.156,0.156,10.5.156,13.066-.233,24.032l0.389,0.467c5.833-.234,7.389-0.311,14-0.234l0.389-.466c-0.622-13.066-.855-26.054-0.855-39.121,0-5.444.077-9.1,0.155-15.088Zm24.191,54.6c-0.389-5.989-.7-10.577-0.7-21.31,0-6.611.155-13.3,0.233-19.91l-0.544-.622-13.377,2.333-0.467.466c0.622,5.911.855,8.633,0.855,19.677,0,8.478-.233,13.222-0.466,19.6l0.466,0.545c5.6-.234,7.156-0.311,13.455-0.234Zm-1.245-49.309,0.234-10.577-0.467-.467-12.677,1.556-0.467.544c0.156,2.8.234,4.433,0.234,6.3,0,1.478,0,3.033-.078,4.511l0.544,0.467c5.289-.934,6.767-1.089,12.289-1.789ZM370.432,458.9c-2.644-.933-4.744-1.788-4.744-3.966,0-.933.622-3.5,5.444-3.5a16.868,16.868,0,0,1,9.722,3.267l0.7-.234,0.778-8.477-0.389-.467a39.609,39.609,0,0,0-11.9-1.944c-3.81,0-11.432.311-15.477,6.144a11.691,11.691,0,0,0-2.1,6.844c0,8.322,6.455,10.811,10.11,12.211l2.956,1.089c2.1,0.7,5.522,1.866,5.522,4.666,0,1.944-1.789,4.044-6.145,4.044a19.473,19.473,0,0,1-8.244-2.177,17.236,17.236,0,0,1-3.111-2.178l-0.7.311c-0.155,4.044-.233,4.9-0.544,8.788l0.389,0.7c3.811,1.4,7.077,2.645,12.755,2.645,5.911,0,17.577-1.089,18.977-12.211a13.308,13.308,0,0,0,.077-1.711c0-8.555-5.988-10.81-10.266-12.444Zm42.7,17.888a11.669,11.669,0,0,1-3.578.7c-3.966,0-4.277-2.488-4.433-3.655a89.18,89.18,0,0,1-.155-9.411l0.155-10.966,7,0.311,0.467-.466,0.777-8.322-0.466-.467h-7.778l0.234-13.066-0.545-.466c-5.288,1.555-6.688,1.944-12.21,3.344l-0.311.544,0.077,9.722-4.2-.156-0.467.389-0.7,8.322,0.467,0.467,4.9-.156-0.233,12.366c-0.078,1.945-.155,3.889-0.155,5.911,0,7.155.155,14.855,12.288,14.855a45.259,45.259,0,0,0,8.166-.933l0.545-.545,0.777-8.01Zm45.344-11.743c0-3.034,0-15.633-10.889-19.911a27.951,27.951,0,0,0-9.488-1.477c-13.533,0-21.155,7.233-21.155,21.543,0,4.978.778,10.033,3.656,14.233,2.022,3.033,5.833,7.233,16.954,7.233C454.043,486.666,458.476,476.711,458.476,465.045Zm-13.455-.078c0,6.377-.856,13.455-7.311,13.455a6.292,6.292,0,0,1-4.355-1.789c-1.323-1.322-2.8-3.967-2.8-11.511,0-2.255,0-7.233,1.555-9.955a6.442,6.442,0,0,1,5.678-3.5,6.541,6.541,0,0,1,4.977,2.411C444.632,456.334,445.021,460.767,445.021,464.967Zm43.322-8.089,2.178-12.677-0.467-.544c-0.544,0-1.089-.078-1.633-0.078-3.189,0-6.766,1.789-9.255,7.544l0.233-7.155-0.622-.622c-5.755,1.244-7.233,1.477-12.911,2.333l-0.466.466c0.466,5.834.7,9.333,0.7,20.144,0,6.377-.078,12.755-0.234,19.21l0.467,0.467c5.755-.234,7-0.311,13.222-0.234l0.389-.544c-0.312-6.3-.778-15.088-0.778-20.455,0-3.5,0-8.632,5.288-8.632a5.822,5.822,0,0,1,3.189,1.088Zm20.767,28.31c-0.389-5.989-.7-10.577-0.7-21.31,0-6.611.156-13.3,0.234-19.91l-0.545-.622-13.377,2.333-0.467.466c0.623,5.911.856,8.633,0.856,19.677,0,8.478-.233,13.222-0.467,19.6l0.467,0.545c5.6-.234,7.155-0.311,13.455-0.234Zm-1.244-49.309L508.1,425.3l-0.466-.467-12.678,1.556-0.466.544c0.155,2.8.233,4.433,0.233,6.3,0,1.478,0,3.033-.078,4.511l0.545,0.467c5.288-.934,6.766-1.089,12.288-1.789Zm40.288,38.654a13.856,13.856,0,0,1-8.089,2.489c-8.788,0-10.577-7.311-10.577-11.977,0-5.678,2.489-12.211,10.033-12.211,3.422,0,5.289,1.244,7.622,2.8l0.778-.233c0.311-4.122.388-5.211,1.011-9.333l-0.389-.467a32.334,32.334,0,0,0-10.889-2.022c-18.277,0-21.854,13.844-21.854,21.777,0,8.944,4.666,21.076,22.165,21.076A32.552,32.552,0,0,0,548,484.721l0.467-.466,0.311-9.333ZM240.583,524l-9.878.155-0.466.467c0.311,10.111.544,16.877,0.544,25.821,0,9.488-.233,18.9-0.467,28.387l0.467,0.467c5.755-.233,7-0.311,13.222-0.233l0.389-.467c-0.312-8.477-.312-10.422-0.312-18.355,8.711,0.078,18.044.078,23.644-6.766a19.991,19.991,0,0,0,4.044-12.521c0-3.345-.778-10.733-7.233-14.389-4.666-2.722-11.277-2.722-17.11-2.722Zm3.5,9.41c1.711-.077,3.345-0.077,5.056-0.077,6.844,0.155,8.71,3.655,8.71,8.166,0,1.089,0,5.6-4.122,7.855-2.1,1.167-4.977,1.322-9.644,1.322V533.412Zm66.111,22.477c0.077-7,.077-10.033-1.945-13.3-1.555-2.489-4.666-5.6-14.621-5.6a47.308,47.308,0,0,0-15.244,2.567l-0.467.622-0.389,8.477,0.623,0.311c2.722-1.089,7.777-3.111,12.988-3.111,2.878,0,4.044.467,5.055,1.478a4.9,4.9,0,0,1,1.011,3.344c-9.333,1.245-13.688,2.1-18.354,4.978a12.435,12.435,0,0,0-5.833,10.655c0,8.322,5.988,13.688,13.61,13.688a16.084,16.084,0,0,0,10.811-4.122v2.878L297.9,579.3c5.6-.233,7.311-0.311,12.366-0.233l0.389-.545c-0.544-7.621-.544-9.566-0.544-16.877ZM297.36,568.255a12.6,12.6,0,0,1-6.3,2.022c-2.8,0-5.133-1.477-5.133-4.744,0-5.133,6.144-5.989,11.433-6.688v9.41Zm44.411-18.043,2.178-12.678-0.467-.544c-0.544,0-1.089-.078-1.633-0.078-3.189,0-6.767,1.789-9.255,7.544l0.233-7.155-0.622-.622c-5.756,1.244-7.233,1.478-12.911,2.333l-0.466.467c0.466,5.833.7,9.333,0.7,20.143,0,6.378-.078,12.755-0.234,19.21l0.467,0.467c5.755-.233,7-0.311,13.221-0.233l0.389-.545c-0.311-6.3-.777-15.088-0.777-20.454,0-3.5,0-8.633,5.288-8.633a5.826,5.826,0,0,1,3.189,1.089Zm46.666,27.843c-7.311-12.366-8.089-13.766-14-24.421,5.367-7.311,5.911-8.089,11.433-15.166l-0.389-.778-12.677.156-0.778.544c-6.066,10.5-6.844,11.744-10.421,17.11v-8.633c0.077-14.543.155-17.654,0.544-29.4L361.527,517l-13.533,2.022-0.466.545c0.544,7.544.777,11.2,0.933,21.388,0.155,12.6.155,25.2,0.078,37.8l0.544,0.544c5.211-.233,6.689-0.233,12.6-0.233l0.467-.545-0.467-13.143-0.077-8.944c6.766,12.443,7.622,14.154,11.588,22.4l0.7,0.467,14-.544Z"/>
</svg>
