<svg xmlns="http://www.w3.org/2000/svg" width="612" height="817" viewBox="0 0 612 817">
  <defs>
    <style>
      .cls-1 {
        fill: #592626;
        fill-rule: evenodd;
      }
    </style>
  </defs>
  <path id="Torrey_Pines_State_Natural_Reserve" data-name="Torrey Pines State Natural Reserve" class="cls-1" d="M124.5,300.423l0.467-.388,0.544-9.722-0.389-.233h-38.5l-0.544.466-0.544,9.566,0.389,0.467,12.677-.311c0.078,20.377.078,25.277-.544,44.564l0.467,0.467c5.755-.233,7.31-0.311,13.766-0.311l0.466-.467c-0.389-10.888-.544-21.776-0.544-32.742,0-4.278.078-6.689,0.233-11.667Zm39.2,23.955c0-3.033,0-15.633-10.888-19.91a27.965,27.965,0,0,0-9.489-1.478c-13.533,0-21.154,7.233-21.154,21.543,0,4.978.777,10.033,3.655,14.233,2.022,3.033,5.833,7.233,16.955,7.233C159.265,346,163.7,336.044,163.7,324.378Zm-13.455-.078c0,6.378-.856,13.455-7.311,13.455a6.288,6.288,0,0,1-4.355-1.789c-1.322-1.322-2.8-3.966-2.8-11.51,0-2.256,0-7.233,1.555-9.955a6.442,6.442,0,0,1,5.678-3.5,6.54,6.54,0,0,1,4.978,2.411C149.854,315.667,150.243,320.1,150.243,324.3Zm43.322-8.088,2.178-12.678-0.467-.544c-0.544,0-1.088-.078-1.633-0.078-3.189,0-6.766,1.789-9.255,7.544l0.233-7.155L184,302.679c-5.755,1.244-7.233,1.478-12.91,2.333l-0.467.467c0.467,5.833.7,9.333,0.7,20.143,0,6.378-.078,12.755-0.233,19.21l0.466,0.467c5.756-.233,7-0.311,13.222-0.233l0.389-.545c-0.311-6.3-.778-15.088-0.778-20.454,0-3.5,0-8.633,5.289-8.633a5.82,5.82,0,0,1,3.188,1.089Zm29.167,0,2.178-12.678-0.467-.544c-0.544,0-1.089-.078-1.633-0.078-3.189,0-6.767,1.789-9.255,7.544l0.233-7.155-0.622-.622c-5.755,1.244-7.233,1.478-12.911,2.333l-0.466.467c0.466,5.833.7,9.333,0.7,20.143,0,6.378-.078,12.755-0.234,19.21l0.467,0.467c5.755-.233,7-0.311,13.222-0.233l0.388-.545c-0.311-6.3-.777-15.088-0.777-20.454,0-3.5,0-8.633,5.288-8.633a5.826,5.826,0,0,1,3.189,1.089Zm41.222,17.343a23.769,23.769,0,0,1-12.133,3.345c-4.667,0-7.855-1.478-9.722-4.278a11.014,11.014,0,0,1-1.711-4.744l25.121-.467,0.467-.544a45.607,45.607,0,0,0-1.245-11.589c-2.722-9.177-8.71-11.044-11.355-11.666a19.933,19.933,0,0,0-5.522-.7c-12.21,0-20.3,8.011-20.3,21.466a25.891,25.891,0,0,0,1.867,10.188C233.933,345.066,244.51,346,250.11,346c6.455,0,9.255-1.167,13.377-2.8l0.467-.622,0.544-8.788Zm-23.566-13.921c0.233-2.411.778-5.678,3.733-7.544a5.969,5.969,0,0,1,8.089,1.866,9.5,9.5,0,0,1,1.166,5.367Zm67.51-16.022-10.81.234-0.623.544c-1.322,5.366-1.633,6.533-3.5,12.6l-2.023,6.689-1.711,5.833-1.477-5.522-2.256-8.244-3.111-11.822-0.622-.466c-6.066.466-7.388,0.544-13.766,0.7l-0.389.544c2.8,7.389,10.033,26.91,14.855,41.843-3.189,8.088-3.811,9.488-7.311,17.188l0.389,0.622c1.944-.078,4.122-0.156,6.144-0.156,1.945,0,3.967.078,5.911,0.078l0.544-.467c4.278-16.8,6.378-23.332,16.644-50.4,1.167-3.111,2.333-6.144,3.422-9.178ZM345.155,290l-9.877.155-0.467.467c0.311,10.111.544,16.877,0.544,25.821,0,9.488-.233,18.9-0.466,28.387l0.466,0.467c5.756-.233,7-0.311,13.222-0.233l0.389-.467c-0.311-8.477-.311-10.422-0.311-18.355,8.71,0.078,18.043.078,23.643-6.766a19.985,19.985,0,0,0,4.044-12.521c0-3.345-.778-10.733-7.233-14.389-4.666-2.722-11.277-2.722-17.11-2.722Zm3.5,9.41c1.711-.077,3.344-0.077,5.055-0.077,6.844,0.155,8.711,3.655,8.711,8.166,0,1.089,0,5.6-4.122,7.855-2.1,1.167-4.978,1.322-9.644,1.322V299.412Zm47.133,45.109c-0.389-5.988-.7-10.577-0.7-21.31,0-6.611.156-13.3,0.233-19.91l-0.544-.622L381.4,305.012l-0.467.467c0.622,5.911.856,8.633,0.856,19.677,0,8.477-.234,13.221-0.467,19.6l0.467,0.544c5.6-.233,7.155-0.311,13.455-0.233Zm-1.244-49.308,0.233-10.578-0.467-.466-12.677,1.555-0.467.545c0.156,2.8.234,4.433,0.234,6.3,0,1.478,0,3.034-.078,4.511l0.544,0.467c5.289-.933,6.767-1.089,12.289-1.789Zm47.987,49.308c-0.389-6.844-.389-9.021-0.544-16.643v-6.067c-0.078-7.466-.156-11.044-2.1-14.232-2.411-4.045-6.844-4.667-9.644-4.667-4.744,0-8.866,2.489-12.444,4.589l0.156-4.278-0.778-.544c-5.989,1.244-7.311,1.478-13.144,2.255l-0.467.545a216.123,216.123,0,0,1,1.089,24.343c0,4.978-.077,9.955-0.155,14.933l0.466,0.466c5.6-.233,6.767-0.233,12.989-0.233l0.466-.467c-0.466-11.977-.544-15.01-0.622-28.932,1.633-1.088,3.5-2.411,5.989-2.411,4.277,0,4.666,4.589,4.9,7.389,0.155,2.567.233,13.222,0.233,16.177,0,2.644-.078,5.366-0.078,8.011l0.467,0.466c5.133-.155,6.455-0.233,12.677-0.233Zm43.4-10.966A23.761,23.761,0,0,1,473.8,336.9c-4.667,0-7.855-1.478-9.722-4.278a11,11,0,0,1-1.711-4.744l25.121-.467,0.467-.544a45.607,45.607,0,0,0-1.245-11.589c-2.722-9.177-8.71-11.044-11.355-11.666a19.933,19.933,0,0,0-5.522-.7c-12.21,0-20.3,8.011-20.3,21.466a25.873,25.873,0,0,0,1.867,10.188c4.511,10.5,15.088,11.433,20.688,11.433,6.455,0,9.255-1.167,13.377-2.8l0.466-.622,0.545-8.788Zm-23.565-13.921c0.233-2.411.778-5.678,3.733-7.544a5.969,5.969,0,0,1,8.089,1.866,9.511,9.511,0,0,1,1.166,5.367Zm49.077-1.4c-2.644-.934-4.744-1.789-4.744-3.967,0-.933.622-3.5,5.444-3.5a16.875,16.875,0,0,1,9.722,3.267l0.7-.233,0.778-8.478-0.389-.466a39.606,39.606,0,0,0-11.9-1.945c-3.811,0-11.433.311-15.477,6.144a11.687,11.687,0,0,0-2.1,6.845c0,8.321,6.455,10.81,10.11,12.21l2.956,1.089c2.1,0.7,5.522,1.866,5.522,4.666,0,1.945-1.789,4.045-6.145,4.045a19.461,19.461,0,0,1-8.244-2.178,17.186,17.186,0,0,1-3.111-2.178l-0.7.311c-0.155,4.045-.233,4.9-0.544,8.789l0.389,0.7c3.811,1.4,7.077,2.644,12.755,2.644,5.911,0,17.577-1.089,18.977-12.21a13.154,13.154,0,0,0,.078-1.711c0-8.556-5.989-10.811-10.267-12.444ZM94.71,404.956c-6.533-2.722-9.955-4.122-9.955-7.622,0-2.411,2.255-5.444,7.389-5.444,5.911,0,9.411,2.411,12.289,4.356l0.7-.312,0.622-10.188-0.389-.544a31.856,31.856,0,0,0-14.388-2.878c-14.622,0-19.677,8.244-19.677,16.566,0,9.411,7.311,12.833,11.666,14.933l2.567,1.166c5.366,2.256,9.488,4.2,9.488,8.322,0,2.955-2.566,6.455-9.333,6.455a19.84,19.84,0,0,1-13.3-4.9l-0.778.234-0.544,10.966,0.467,0.622c0.856,0.311,1.711.7,2.567,0.933a38.71,38.71,0,0,0,12.21,1.945c2.333,0,8.244-.234,12.91-2.411,6.533-3.189,9.333-9.1,9.333-15.711a15.415,15.415,0,0,0-5.833-12.366,31.569,31.569,0,0,0-5.989-3.344Zm43.011,24.5a11.669,11.669,0,0,1-3.578.7c-3.966,0-4.277-2.489-4.433-3.655a89.18,89.18,0,0,1-.155-9.411l0.155-10.966,7,0.311,0.467-.467,0.777-8.321-0.466-.467H129.71l0.234-13.066-0.545-.467c-5.288,1.556-6.688,1.945-12.21,3.344l-0.311.545,0.077,9.722-4.2-.156-0.466.389-0.7,8.322,0.467,0.466,4.9-.155-0.233,12.366c-0.078,1.944-.156,3.889-0.156,5.911,0,7.155.156,14.855,12.289,14.855a45.168,45.168,0,0,0,8.166-.934l0.544-.544,0.778-8.011Zm40.366-14.233c0.078-7,.078-10.032-1.944-13.3-1.556-2.489-4.667-5.6-14.622-5.6a47.345,47.345,0,0,0-15.244,2.567l-0.466.622-0.389,8.477,0.622,0.312c2.722-1.089,7.778-3.111,12.988-3.111,2.878,0,4.045.466,5.056,1.477a4.909,4.909,0,0,1,1.011,3.345c-9.333,1.244-13.688,2.1-18.355,4.977a12.437,12.437,0,0,0-5.833,10.655c0,8.322,5.989,13.688,13.61,13.688a16.074,16.074,0,0,0,10.811-4.122v2.878l0.467,0.544c5.6-.233,7.31-0.311,12.366-0.233l0.389-.544c-0.545-7.622-.545-9.567-0.545-16.877Zm-12.833,12.367a12.6,12.6,0,0,1-6.3,2.022c-2.8,0-5.133-1.478-5.133-4.745,0-5.133,6.144-5.988,11.432-6.688v9.411Zm43.711,1.866a11.669,11.669,0,0,1-3.577.7c-3.967,0-4.278-2.489-4.433-3.655a88.88,88.88,0,0,1-.156-9.411l0.156-10.966,7,0.311,0.467-.467,0.778-8.321-0.467-.467h-7.777l0.233-13.066-0.544-.467c-5.289,1.556-6.689,1.945-12.211,3.344l-0.311.545,0.078,9.722L184,397.1l-0.467.389-0.7,8.322,0.467,0.466,4.9-.155-0.234,12.366c-0.077,1.944-.155,3.889-0.155,5.911,0,7.155.155,14.855,12.288,14.855a45.168,45.168,0,0,0,8.166-.934l0.545-.544,0.778-8.011Zm38.733-2.566a23.773,23.773,0,0,1-12.133,3.344c-4.666,0-7.855-1.478-9.721-4.278a11,11,0,0,1-1.711-4.744l25.121-.467,0.466-.544a45.593,45.593,0,0,0-1.244-11.588c-2.722-9.178-8.711-11.044-11.355-11.666a19.9,19.9,0,0,0-5.522-.7c-12.211,0-20.3,8.01-20.3,21.465a25.893,25.893,0,0,0,1.866,10.189c4.511,10.5,15.089,11.432,20.688,11.432,6.456,0,9.255-1.166,13.377-2.8l0.467-.623,0.545-8.788Zm-23.565-13.922c0.233-2.411.777-5.677,3.733-7.544a5.967,5.967,0,0,1,8.088,1.867,9.5,9.5,0,0,1,1.167,5.366Zm102.2-29.71c-4.9.234-6.222,0.311-11.044,0.234l-0.389.466,0.545,10.5,0.311,10.733,0.311,12.832c-2.256-3.811-2.645-4.433-6.611-10.344l-7.078-10.344c-5.833-8.866-7-10.577-8.944-13.688l-0.544-.389c-6.144.311-7.155,0.311-12.833,0.234l-0.389.466c0.389,12.055.623,21,.623,31.421,0,7.622-.156,15.244-0.234,22.788l0.389,0.466c5.211-.233,6.844-0.233,11.355-0.233l0.389-.467L291.41,420.9l-0.233-9.566-0.467-10.422c3.656,6.066,4.9,8.089,10.189,15.788l7.777,11.433,6.922,10.111,0.544,0.388c4.745-.233,6.145-0.233,10.267-0.233l0.389-.389c-0.078-11.277-.156-18.9-0.156-28.232,0-8.71.078-17.343,0.156-26.054ZM370.9,415.222c0.078-7,.078-10.032-1.944-13.3-1.556-2.489-4.667-5.6-14.622-5.6a47.333,47.333,0,0,0-15.243,2.567l-0.467.622-0.389,8.477,0.622,0.312c2.722-1.089,7.778-3.111,12.988-3.111,2.878,0,4.045.466,5.056,1.477a4.9,4.9,0,0,1,1.011,3.345c-9.333,1.244-13.688,2.1-18.355,4.977a12.437,12.437,0,0,0-5.833,10.655c0,8.322,5.989,13.688,13.611,13.688a16.074,16.074,0,0,0,10.81-4.122v2.878l0.467,0.544c5.6-.233,7.311-0.311,12.366-0.233l0.389-.544c-0.545-7.622-.545-9.567-0.545-16.877Zm-12.833,12.367a12.6,12.6,0,0,1-6.3,2.022c-2.8,0-5.133-1.478-5.133-4.745,0-5.133,6.144-5.988,11.432-6.688v9.411Zm43.712,1.866a11.68,11.68,0,0,1-3.578.7c-3.967,0-4.278-2.489-4.433-3.655a88.88,88.88,0,0,1-.156-9.411l0.156-10.966,7,0.311,0.467-.467,0.778-8.321-0.467-.467h-7.777L394,384.113l-0.544-.467c-5.289,1.556-6.689,1.945-12.211,3.344l-0.311.545,0.078,9.722-4.2-.156-0.467.389-0.7,8.322,0.467,0.466,4.9-.155-0.233,12.366c-0.078,1.944-.156,3.889-0.156,5.911,0,7.155.156,14.855,12.288,14.855a45.19,45.19,0,0,0,8.167-.934l0.544-.544,0.778-8.011Zm43.088-32.665-12.677.622-0.545.467c0.545,8.788.545,21.232,0.545,22.477,0,2.255,0,3.5-.078,6.61-2.1,1.4-3.733,2.567-5.833,2.567-5.6,0-5.6-5.911-5.6-10.5,0-1.944,0-3.966.078-5.91l0.155-15.711-0.544-.622-12.833.622-0.544.467c0.466,6.533.544,8.711,0.544,16.566v5.444c-0.078,8.477.311,12.055,3.111,15.321a13.32,13.32,0,0,0,10.188,4.122c5.522,0,8.711-2.488,11.511-4.666l-0.078,3.5,0.545,0.466c5.677-.233,7.388-0.233,12.444-0.233l0.466-.467c-0.389-5.521-.544-8.477-0.544-18.588q0-10.965.233-21.932Zm32.123,12.755,2.177-12.677-0.466-.545c-0.545,0-1.089-.077-1.634-0.077-3.188,0-6.766,1.788-9.255,7.544l0.234-7.156-0.623-.622c-5.755,1.245-7.233,1.478-12.91,2.333l-0.467.467c0.467,5.833.7,9.333,0.7,20.144,0,6.377-.078,12.755-0.233,19.21l0.467,0.466c5.755-.233,7-0.311,13.221-0.233l0.389-.544c-0.311-6.3-.778-15.088-0.778-20.455,0-3.5,0-8.633,5.289-8.633a5.826,5.826,0,0,1,3.189,1.089Zm41.3,5.677c0.078-7,.078-10.032-1.944-13.3-1.556-2.489-4.667-5.6-14.622-5.6a47.345,47.345,0,0,0-15.244,2.567l-0.466.622-0.389,8.477,0.622,0.312c2.722-1.089,7.777-3.111,12.988-3.111,2.878,0,4.045.466,5.056,1.477a4.909,4.909,0,0,1,1.011,3.345c-9.333,1.244-13.688,2.1-18.355,4.977a12.437,12.437,0,0,0-5.833,10.655c0,8.322,5.989,13.688,13.61,13.688a16.074,16.074,0,0,0,10.811-4.122v2.878L506,438.632c5.6-.233,7.31-0.311,12.366-0.233l0.389-.544c-0.545-7.622-.545-9.567-0.545-16.877Zm-12.833,12.367a12.6,12.6,0,0,1-6.3,2.022c-2.8,0-5.134-1.478-5.134-4.745,0-5.133,6.145-5.988,11.433-6.688v9.411Zm35.623,10.266c-0.389-8.944-.778-17.111-0.778-41.687,0-7.389.078-10.889,0.389-19.288l-0.544-.545-13.3,2.1-0.311.467c0.778,9.488.856,12.055,1.011,24.654,0.078,4.589.078,9.178,0.078,13.766,0,8.4-.156,13.066-0.467,20.766l0.467,0.544c5.211-.233,7.311-0.311,12.988-0.233Zm-354.861,72.49a236.851,236.851,0,0,1,11.355,21.387l0.622,0.389c2.411-.155,4.744-0.311,7.155-0.389s4.9-.155,7.311-0.155l0.466-.933c-2.955-3.811-3.811-4.978-9.41-13.922-2.489-3.966-3.733-6.066-5.678-9.488,3.5-1.556,10.578-4.822,10.578-14.7,0-3.422-.934-10.5-7.311-13.843-4.044-2.1-8.244-2.178-17.344-2.023l-5.444.078h-9.488l-0.389.467c0.311,7.855.622,15.944,0.622,37.1,0,7.233-.078,10.733-0.311,17.188l0.466,0.467c5.678-.234,6.922-0.311,13.3-0.234l0.466-.466c-0.622-9.022-.7-11.511-0.777-20.766Zm-3.656-24.188c1.089-.078,2.178-0.078,3.267-0.078,3.033,0,9.022,0,9.022,6.844a7.565,7.565,0,0,1-3.423,6.844c-2.177,1.322-4.977,1.478-8.866,1.556V486.157Zm69.221,34.065a23.772,23.772,0,0,1-12.132,3.344c-4.667,0-7.855-1.478-9.722-4.277a11,11,0,0,1-1.711-4.745l25.121-.466,0.467-.545a45.6,45.6,0,0,0-1.245-11.588c-2.722-9.177-8.71-11.044-11.355-11.666a19.9,19.9,0,0,0-5.522-.7c-12.21,0-20.3,8.011-20.3,21.466a25.873,25.873,0,0,0,1.867,10.188c4.511,10.5,15.088,11.433,20.688,11.433,6.455,0,9.255-1.167,13.377-2.8l0.466-.622,0.545-8.789ZM228.216,506.3c0.233-2.411.778-5.677,3.733-7.544a5.971,5.971,0,0,1,8.089,1.867,9.507,9.507,0,0,1,1.166,5.366Zm49.077-1.4c-2.644-.933-4.744-1.788-4.744-3.966,0-.933.622-3.5,5.444-3.5a16.868,16.868,0,0,1,9.722,3.267l0.7-.234,0.778-8.477-0.389-.467a39.608,39.608,0,0,0-11.9-1.944c-3.811,0-11.433.311-15.477,6.144a11.684,11.684,0,0,0-2.1,6.844c0,8.322,6.455,10.811,10.11,12.211l2.956,1.089c2.1,0.7,5.522,1.866,5.522,4.666,0,1.944-1.789,4.044-6.145,4.044a19.473,19.473,0,0,1-8.244-2.177,17.236,17.236,0,0,1-3.111-2.178l-0.7.311c-0.156,4.044-.234,4.9-0.545,8.788l0.389,0.7c3.811,1.4,7.077,2.645,12.755,2.645,5.911,0,17.577-1.089,18.977-12.211a13.139,13.139,0,0,0,.078-1.711c0-8.555-5.989-10.81-10.267-12.444Zm55.455,15.322a23.773,23.773,0,0,1-12.133,3.344c-4.666,0-7.855-1.478-9.721-4.277a11,11,0,0,1-1.711-4.745l25.121-.466,0.466-.545a45.6,45.6,0,0,0-1.244-11.588c-2.722-9.177-8.711-11.044-11.355-11.666a19.9,19.9,0,0,0-5.522-.7c-12.211,0-20.3,8.011-20.3,21.466a25.891,25.891,0,0,0,1.866,10.188c4.511,10.5,15.089,11.433,20.688,11.433,6.456,0,9.255-1.167,13.377-2.8l0.467-.622,0.545-8.789ZM309.183,506.3c0.233-2.411.777-5.677,3.733-7.544A5.97,5.97,0,0,1,321,500.623a9.5,9.5,0,0,1,1.167,5.366Zm55.221-3.422,2.178-12.677-0.467-.544c-0.544,0-1.089-.078-1.633-0.078-3.189,0-6.766,1.789-9.255,7.544l0.233-7.155-0.622-.622c-5.755,1.244-7.233,1.477-12.91,2.333l-0.467.466c0.467,5.834.7,9.333,0.7,20.144,0,6.377-.078,12.755-0.233,19.21l0.466,0.467c5.755-.234,7-0.311,13.222-0.234l0.389-.544c-0.311-6.3-.778-15.088-0.778-20.455,0-3.5,0-8.632,5.289-8.632a5.821,5.821,0,0,1,3.188,1.088ZM392.56,531.11c2.489-7.777,3.966-12.6,5.6-17.5,2.1-6.3,5.522-16.41,7.7-22.788l-0.389-.544-10.888.233-0.544.545c-1.089,5.21-1.323,6.3-2.878,12.366l-3.967,15.321-1.944-8.4-1.478-5.989c-1.944-7.233-2.255-8.711-3.344-13.844l-0.544-.466a102.367,102.367,0,0,1-13.611.855l-0.311.622c10.344,30.643,11.2,33.521,12.911,39.9l0.544,0.545c5.055-.234,7.077-0.311,12.677-0.234Zm51.955-10.888a23.776,23.776,0,0,1-12.133,3.344c-4.666,0-7.855-1.478-9.722-4.277a11.018,11.018,0,0,1-1.711-4.745l25.121-.466,0.467-.545a45.643,45.643,0,0,0-1.244-11.588c-2.723-9.177-8.711-11.044-11.355-11.666a19.9,19.9,0,0,0-5.522-.7c-12.211,0-20.3,8.011-20.3,21.466a25.891,25.891,0,0,0,1.866,10.188c4.511,10.5,15.088,11.433,20.688,11.433,6.455,0,9.255-1.167,13.377-2.8l0.467-.622,0.544-8.789ZM420.949,506.3c0.234-2.411.778-5.677,3.733-7.544a5.971,5.971,0,0,1,8.089,1.867,9.5,9.5,0,0,1,1.167,5.366Z"/>
</svg>
