<svg xmlns="http://www.w3.org/2000/svg" width="612" height="817" viewBox="0 0 612 817">
  <defs>
    <style>
      .cls-1 {
        fill: #592626;
        fill-rule: evenodd;
      }
    </style>
  </defs>
  <path id="Moonlight_State_Beach" data-name="Moonlight State Beach" class="cls-1" d="M183.647,337.924c-8.089.233-9.411,0.233-18.044,0.233l-0.466.467-3.578,12.6L158.448,362.5l-3.655,13.532-3.422-13.921-2.178-8.789L145.3,338.391l-0.389-.467c-8.321.233-9.721,0.233-18.432,0.233l-0.467.467c-0.777,23.254-1.088,29.243-2.8,54.208l0.389,0.467c4.978-.233,6.456-0.311,10.967-0.233l0.466-.467,0.233-14.855,0.467-15.088,0.311-14.7,3.422,13.766,2.956,11.044,5.211,20.065L148.1,393.3c4.822-.233,6.144-0.311,11.589-0.233l0.466-.467,4.511-16.566,3.111-11.355,4.355-16.332v13.921l0.156,11.9v18.665l0.389,0.467c5.366-.233,7.466-0.311,13.455-0.233l0.389-.467c-0.467-8.866-1.011-17.81-1.323-26.754-0.233-4.9-.388-9.8-0.622-14.7-0.389-7.233-.466-8.167-0.466-12.755ZM234.9,372.378c0-3.033,0-15.633-10.888-19.91a27.956,27.956,0,0,0-9.488-1.478c-13.533,0-21.155,7.233-21.155,21.543,0,4.978.778,10.033,3.655,14.233C199.05,389.8,202.861,394,213.982,394,230.47,394,234.9,384.044,234.9,372.378Zm-13.454-.078c0,6.378-.856,13.455-7.311,13.455a6.292,6.292,0,0,1-4.356-1.789c-1.322-1.322-2.8-3.966-2.8-11.51,0-2.256,0-7.233,1.555-9.955a6.442,6.442,0,0,1,5.678-3.5,6.538,6.538,0,0,1,4.977,2.411C221.06,363.667,221.449,368.1,221.449,372.3Zm60.432,0.078c0-3.033,0-15.633-10.888-19.91a27.958,27.958,0,0,0-9.489-1.478c-13.532,0-21.154,7.233-21.154,21.543,0,4.978.778,10.033,3.655,14.233C246.027,389.8,249.838,394,260.96,394,277.448,394,281.881,384.044,281.881,372.378Zm-13.455-.078c0,6.378-.855,13.455-7.31,13.455a6.288,6.288,0,0,1-4.356-1.789c-1.322-1.322-2.8-3.966-2.8-11.51,0-2.256,0-7.233,1.556-9.955a6.44,6.44,0,0,1,5.677-3.5,6.538,6.538,0,0,1,4.978,2.411C268.037,363.667,268.426,368.1,268.426,372.3Zm58.955,20.221c-0.389-6.844-.389-9.021-0.544-16.643v-6.067c-0.078-7.466-.156-11.044-2.1-14.232-2.411-4.045-6.844-4.667-9.644-4.667-4.744,0-8.866,2.489-12.444,4.589l0.156-4.278-0.778-.544c-5.989,1.244-7.311,1.478-13.144,2.255l-0.466.545a216.425,216.425,0,0,1,1.088,24.343c0,4.978-.077,9.955-0.155,14.933l0.466,0.466c5.6-.233,6.767-0.233,12.989-0.233l0.466-.467c-0.466-11.977-.544-15.01-0.622-28.932,1.633-1.088,3.5-2.411,5.989-2.411,4.277,0,4.666,4.589,4.9,7.389,0.155,2.567.233,13.222,0.233,16.177,0,2.644-.078,5.366-0.078,8.011l0.467,0.466c5.133-.155,6.455-0.233,12.677-0.233Zm22.557,0c-0.389-8.944-.778-17.11-0.778-41.687,0-7.388.078-10.888,0.389-19.287L349.005,331l-13.3,2.1-0.311.467c0.778,9.488.856,12.055,1.011,24.654,0.078,4.589.078,9.177,0.078,13.766,0,8.4-.155,13.066-0.467,20.766l0.467,0.544c5.211-.233,7.311-0.311,12.988-0.233Zm23.1,0c-0.389-5.988-.7-10.577-0.7-21.31,0-6.611.156-13.3,0.233-19.91l-0.544-.622-13.377,2.333-0.467.467c0.622,5.911.856,8.633,0.856,19.677,0,8.477-.234,13.221-0.467,19.6l0.467,0.544c5.6-.233,7.155-0.311,13.455-0.233Zm-1.244-49.308,0.233-10.578-0.467-.466-12.677,1.555-0.467.545c0.156,2.8.234,4.433,0.234,6.3,0,1.478,0,3.034-.078,4.511l0.544,0.467c5.289-.933,6.767-1.089,12.289-1.789Zm24.188,36.709a21.831,21.831,0,0,0,8.711-1.011c4.044-1.4,9.955-4.744,9.955-12.288a10.175,10.175,0,0,0-2.1-6.767l5.367,0.311,0.466-.388L418.926,352l-0.467-.389c-5.988.234-7.622,0.311-12.521,0.234l-3.578-.078c-5.522-.156-12.911-0.311-17.966,3.888a13.051,13.051,0,0,0-4.977,10.5,12.593,12.593,0,0,0,2.255,7.544,13.35,13.35,0,0,0,5.211,4.355c-2.178,4.2-3.344,6.3-5.133,9.489v0.7l3.266,2.333c-2.333,1.789-5.988,4.744-5.988,9.8a10.964,10.964,0,0,0,4.822,8.788c4.355,3.111,10.266,3.267,13.3,3.267,14.233,0,20.766-7.156,20.766-14.7,0-9.8-8.555-11.666-13.611-12.832l-1.866-.312a32.685,32.685,0,0,1-7.7-1.944Zm6.378-14c-0.078,6.3-3.889,6.844-4.978,6.844a5.033,5.033,0,0,1-4.666-3.267,10.715,10.715,0,0,1-.7-4.044c0-3.889,2.333-6.377,5.211-6.377C400.8,359.079,402.438,362.5,402.36,365.923Zm-6.611,29.009c6.922,1.789,7,1.789,7.933,2.567a3.428,3.428,0,0,1,1.556,3.033c0,2.333-1.945,4.744-7.078,4.744-5.755,0-7.7-3.266-7.7-5.988a7.388,7.388,0,0,1,2.256-5.133Zm66.188-2.411c-0.311-6.377-.389-8.555-0.545-16.643v-5.833c-0.077-7.389-.155-11.666-2.411-14.933-2.255-3.189-5.522-4.2-8.944-4.2-5.677,0-10.11,2.722-13.221,4.589l0.233-23.954L436.582,331l-13.3,2.1-0.389.467c0.7,7.544.856,10.344,1.011,20.376q0.234,9.45.234,18.9c0,7.7-.156,12.288-0.311,19.91l0.388,0.544c5.756-.311,6.922-0.311,13.222-0.311l0.467-.467c-0.545-11.666-.623-15.166-0.7-28.932a10.269,10.269,0,0,1,5.988-2.333c4.278,0,4.589,4.433,4.9,7.544,0.156,2.411.233,13.455,0.233,16.333,0,2.566-.077,5.055-0.077,7.622l0.388,0.544c5.6-.311,6.845-0.311,12.833-0.311Zm30.645-8.4a11.669,11.669,0,0,1-3.578.7c-3.966,0-4.277-2.489-4.433-3.656a89.161,89.161,0,0,1-.155-9.41l0.155-10.966,7,0.311,0.467-.467,0.777-8.322-0.466-.466h-7.778l0.234-13.066-0.545-.467c-5.288,1.555-6.688,1.944-12.21,3.344l-0.311.545,0.077,9.721-4.2-.155-0.467.389-0.7,8.321,0.467,0.467,4.9-.155-0.233,12.366c-0.078,1.944-.155,3.888-0.155,5.91,0,7.156.155,14.855,12.288,14.855a45.17,45.17,0,0,0,8.166-.933l0.545-.544,0.777-8.011ZM119.015,452.956c-6.533-2.722-9.955-4.122-9.955-7.622,0-2.411,2.256-5.444,7.389-5.444,5.911,0,9.41,2.411,12.288,4.356l0.7-.312,0.622-10.188-0.389-.544a31.855,31.855,0,0,0-14.388-2.878c-14.621,0-19.677,8.244-19.677,16.566,0,9.411,7.311,12.833,11.666,14.933l2.567,1.166c5.366,2.256,9.488,4.2,9.488,8.322,0,2.955-2.566,6.455-9.332,6.455a19.84,19.84,0,0,1-13.3-4.9l-0.778.234-0.544,10.966,0.467,0.622c0.855,0.311,1.711.7,2.567,0.933a38.711,38.711,0,0,0,12.211,1.945c2.333,0,8.244-.234,12.91-2.411,6.533-3.189,9.333-9.1,9.333-15.711a15.415,15.415,0,0,0-5.833-12.366,31.581,31.581,0,0,0-5.988-3.344Zm43.012,24.5a11.68,11.68,0,0,1-3.578.7c-3.967,0-4.278-2.489-4.433-3.655a88.88,88.88,0,0,1-.156-9.411l0.156-10.966,7,0.311,0.467-.467,0.778-8.321-0.467-.467h-7.777l0.233-13.066-0.544-.467c-5.289,1.556-6.689,1.945-12.211,3.344l-0.311.545,0.078,9.722-4.2-.156-0.467.389-0.7,8.322,0.467,0.466,4.9-.155-0.233,12.366c-0.078,1.944-.156,3.889-0.156,5.911,0,7.155.156,14.855,12.288,14.855a45.19,45.19,0,0,0,8.167-.934l0.544-.544,0.778-8.011Zm40.366-14.233c0.077-7,.077-10.032-1.945-13.3-1.555-2.489-4.666-5.6-14.621-5.6a47.335,47.335,0,0,0-15.244,2.567l-0.467.622-0.389,8.477,0.623,0.312c2.722-1.089,7.777-3.111,12.988-3.111,2.878,0,4.044.466,5.055,1.477a4.9,4.9,0,0,1,1.011,3.345c-9.333,1.244-13.688,2.1-18.354,4.977a12.435,12.435,0,0,0-5.833,10.655c0,8.322,5.988,13.688,13.61,13.688a16.079,16.079,0,0,0,10.811-4.122v2.878l0.466,0.544c5.6-.233,7.311-0.311,12.366-0.233l0.389-.544c-0.544-7.622-.544-9.567-0.544-16.877ZM189.56,475.589a12.6,12.6,0,0,1-6.3,2.022c-2.8,0-5.133-1.478-5.133-4.745,0-5.133,6.144-5.988,11.433-6.688v9.411Zm43.711,1.866a11.669,11.669,0,0,1-3.578.7c-3.966,0-4.277-2.489-4.433-3.655a89.18,89.18,0,0,1-.155-9.411l0.155-10.966,7,0.311,0.467-.467,0.777-8.321-0.466-.467H225.26l0.234-13.066-0.545-.467c-5.288,1.556-6.688,1.945-12.21,3.344l-0.311.545,0.077,9.722-4.2-.156-0.466.389-0.7,8.322,0.467,0.466,4.9-.155-0.233,12.366c-0.078,1.944-.156,3.889-0.156,5.911,0,7.155.156,14.855,12.289,14.855a45.168,45.168,0,0,0,8.166-.934l0.544-.544,0.778-8.011ZM272,474.889a23.779,23.779,0,0,1-12.133,3.344c-4.667,0-7.855-1.478-9.722-4.278a11.01,11.01,0,0,1-1.711-4.744l25.121-.467,0.467-.544a45.6,45.6,0,0,0-1.245-11.588c-2.722-9.178-8.71-11.044-11.355-11.666a19.9,19.9,0,0,0-5.522-.7c-12.21,0-20.3,8.01-20.3,21.465a25.893,25.893,0,0,0,1.867,10.189c4.511,10.5,15.088,11.432,20.688,11.432,6.455,0,9.255-1.166,13.377-2.8L272,483.91l0.544-8.788Zm-23.566-13.922c0.233-2.411.778-5.677,3.733-7.544a5.969,5.969,0,0,1,8.089,1.867,9.5,9.5,0,0,1,1.166,5.366ZM318.36,486.4c7.233,0.156,16.177.311,22.01-3.733a15.459,15.459,0,0,0,6.533-13.144c0-4.977-2.1-9.566-6.533-11.744a17.2,17.2,0,0,0-4.822-1.4c2.645-1.088,5.756-2.488,7.778-6.61a12.624,12.624,0,0,0,1.244-5.445,13.055,13.055,0,0,0-3.111-8.71c-3.266-3.5-8.322-4.433-15.944-4.433-2.644,0-7.388.077-10.032,0.155l-10.889.156-0.466.466c0.311,7.467.388,10.344,0.388,21.077,0,11.044-.077,22.01-0.233,33.054l0.545,0.311H318.36Zm-0.544-23.643c5.911-.156,9.333-0.156,11.588,1.166a7.17,7.17,0,0,1,3.111,6.378,6.685,6.685,0,0,1-4.822,6.688c-2.333.778-6.533,0.778-9.877,0.7V462.756Zm0-22.866c1.633,0,3.811-.078,5.133-0.078,4.2,0,8.011,1.478,8.011,6.533a6.868,6.868,0,0,1-3.967,6.3c-1.944.856-6.066,0.856-9.177,0.856V439.89Zm70.854,35a23.772,23.772,0,0,1-12.132,3.344c-4.667,0-7.856-1.478-9.722-4.278a11,11,0,0,1-1.711-4.744l25.121-.467,0.466-.544a45.548,45.548,0,0,0-1.244-11.588c-2.722-9.178-8.711-11.044-11.355-11.666a19.9,19.9,0,0,0-5.522-.7c-12.21,0-20.3,8.01-20.3,21.465a25.875,25.875,0,0,0,1.867,10.189c4.511,10.5,15.088,11.432,20.688,11.432,6.455,0,9.255-1.166,13.377-2.8l0.466-.623,0.545-8.788Zm-23.565-13.922c0.233-2.411.778-5.677,3.733-7.544a5.967,5.967,0,0,1,8.088,1.867,9.5,9.5,0,0,1,1.167,5.366Zm67.354,2.255c0.078-7,.078-10.032-1.944-13.3-1.556-2.489-4.667-5.6-14.622-5.6a47.333,47.333,0,0,0-15.243,2.567l-0.467.622-0.389,8.477,0.622,0.312c2.722-1.089,7.778-3.111,12.989-3.111,2.877,0,4.044.466,5.055,1.477a4.9,4.9,0,0,1,1.011,3.345c-9.333,1.244-13.688,2.1-18.355,4.977a12.437,12.437,0,0,0-5.833,10.655c0,8.322,5.989,13.688,13.611,13.688a16.074,16.074,0,0,0,10.81-4.122v2.878l0.467,0.544c5.6-.233,7.311-0.311,12.366-0.233l0.389-.544c-0.545-7.622-.545-9.567-0.545-16.877Zm-12.832,12.367a12.6,12.6,0,0,1-6.3,2.022c-2.8,0-5.133-1.478-5.133-4.745,0-5.133,6.144-5.988,11.433-6.688v9.411Zm52.344-.389a13.856,13.856,0,0,1-8.089,2.488c-8.788,0-10.577-7.31-10.577-11.977,0-5.677,2.489-12.21,10.033-12.21,3.422,0,5.288,1.244,7.622,2.8l0.777-.234c0.311-4.122.389-5.211,1.011-9.333l-0.389-.466a32.328,32.328,0,0,0-10.888-2.022c-18.277,0-21.854,13.843-21.854,21.776,0,8.944,4.666,21.077,22.165,21.077a32.581,32.581,0,0,0,10.033-1.711l0.467-.467,0.311-9.332Zm44.955,10.655c-0.311-6.378-.389-8.555-0.545-16.644v-5.833c-0.077-7.389-.155-11.666-2.411-14.933-2.255-3.188-5.522-4.2-8.944-4.2-5.677,0-10.11,2.722-13.221,4.588l0.233-23.954-0.467-.545-13.3,2.1-0.389.467c0.7,7.544.856,10.344,1.011,20.377q0.234,9.448.234,18.9c0,7.7-.156,12.288-0.312,19.91l0.389,0.544c5.756-.311,6.922-0.311,13.222-0.311l0.467-.466c-0.545-11.666-.623-15.166-0.7-28.932a10.269,10.269,0,0,1,5.988-2.333c4.278,0,4.589,4.433,4.9,7.544,0.156,2.411.233,13.455,0.233,16.332,0,2.567-.077,5.055-0.077,7.622l0.388,0.544c5.6-.311,6.845-0.311,12.833-0.311Z"/>
</svg>
