<?xml version="1.0" encoding="UTF-8"?>
<svg xmlns="http://www.w3.org/2000/svg" xmlns:xlink="http://www.w3.org/1999/xlink" width="975" height="1300" viewBox="0 0 975 1300">
<path fill-rule="nonzero" fill="rgb(34.901961%, 14.901961%, 14.901961%)" fill-opacity="1" d="M 292.5625 531.375 C 279.5625 531.75 277.4375 531.75 263.5625 531.75 L 262.8125 532.5 L 257.0625 552.75 L 252.0625 570.875 L 246.1875 592.625 L 240.6875 570.25 L 237.1875 556.125 L 230.9375 532.125 L 230.3125 531.375 C 216.9375 531.75 214.6875 531.75 200.6875 531.75 L 199.9375 532.5 C 198.6875 569.875 198.1875 579.5 195.4375 619.625 L 196.0625 620.375 C 204.0625 620 206.4375 619.875 213.6875 620 L 214.4375 619.25 L 214.8125 595.375 L 215.5625 571.125 L 216.0625 547.5 L 221.5625 569.625 L 226.3125 587.375 L 234.6875 619.625 L 235.4375 620.375 C 243.1875 620 245.3125 619.875 254.0625 620 L 254.8125 619.25 L 262.0625 592.625 L 267.0625 574.375 L 274.0625 548.125 L 274.0625 570.5 L 274.3125 589.625 L 274.3125 619.625 L 274.9375 620.375 C 283.5625 620 286.9375 619.875 296.5625 620 L 297.1875 619.25 C 296.4375 605 295.5625 590.625 295.0625 576.25 C 294.6875 568.375 294.4375 560.5 294.0625 552.625 C 293.4375 541 293.3125 539.5 293.3125 532.125 Z M 374.9375 586.75 C 374.9375 581.875 374.9375 561.625 357.4375 554.75 C 351.9375 552.625 345.4375 552.375 342.1875 552.375 C 320.4375 552.375 308.1875 564 308.1875 587 C 308.1875 595 309.4375 603.125 314.0625 609.875 C 317.3125 614.75 323.4375 621.5 341.3125 621.5 C 367.8125 621.5 374.9375 605.5 374.9375 586.75 M 353.3125 586.625 C 353.3125 596.875 351.9375 608.25 341.5625 608.25 C 338.3125 608.25 336.0625 606.75 334.5625 605.375 C 332.4375 603.25 330.0625 599 330.0625 586.875 C 330.0625 583.25 330.0625 575.25 332.5625 570.875 C 334.4375 567.5 337.6875 565.25 341.6875 565.25 C 345.1875 565.25 348.0625 567.125 349.6875 569.125 C 352.6875 572.75 353.3125 579.875 353.3125 586.625 Z M 450.4375 586.75 C 450.4375 581.875 450.4375 561.625 432.9375 554.75 C 427.4375 552.625 420.9375 552.375 417.6875 552.375 C 395.9375 552.375 383.6875 564 383.6875 587 C 383.6875 595 384.9375 603.125 389.5625 609.875 C 392.8125 614.75 398.9375 621.5 416.8125 621.5 C 443.3125 621.5 450.4375 605.5 450.4375 586.75 M 428.8125 586.625 C 428.8125 596.875 427.4375 608.25 417.0625 608.25 C 413.8125 608.25 411.5625 606.75 410.0625 605.375 C 407.9375 603.25 405.5625 599 405.5625 586.875 C 405.5625 583.25 405.5625 575.25 408.0625 570.875 C 409.9375 567.5 413.1875 565.25 417.1875 565.25 C 420.6875 565.25 423.5625 567.125 425.1875 569.125 C 428.1875 572.75 428.8125 579.875 428.8125 586.625 Z M 523.5625 619.125 C 522.9375 608.125 522.9375 604.625 522.6875 592.375 L 522.6875 582.625 C 522.5625 570.625 522.4375 564.875 519.3125 559.75 C 515.4375 553.25 508.3125 552.25 503.8125 552.25 C 496.1875 552.25 489.5625 556.25 483.8125 559.625 L 484.0625 552.75 L 482.8125 551.875 C 473.1875 553.875 471.0625 554.25 461.6875 555.5 L 460.9375 556.375 C 461.9375 567.25 462.6875 575.125 462.6875 595.5 C 462.6875 603.5 462.5625 611.5 462.4375 619.5 L 463.1875 620.25 C 472.1875 619.875 474.0625 619.875 484.0625 619.875 L 484.8125 619.125 C 484.0625 599.875 483.9375 595 483.8125 572.625 C 486.4375 570.875 489.4375 568.75 493.4375 568.75 C 500.3125 568.75 500.9375 576.125 501.3125 580.625 C 501.5625 584.75 501.6875 601.875 501.6875 606.625 C 501.6875 610.875 501.5625 615.25 501.5625 619.5 L 502.3125 620.25 C 510.5625 620 512.6875 619.875 522.6875 619.875 Z M 559.8125 619.125 C 559.1875 604.75 558.5625 591.625 558.5625 552.125 C 558.5625 540.25 558.6875 534.625 559.1875 521.125 L 558.3125 520.25 L 536.9375 523.625 L 536.4375 524.375 C 537.6875 539.625 537.8125 543.75 538.0625 564 C 538.1875 571.375 538.1875 578.75 538.1875 586.125 C 538.1875 599.625 537.9375 607.125 537.4375 619.5 L 538.1875 620.375 C 546.5625 620 549.9375 619.875 559.0625 620 Z M 596.9375 619.125 C 596.3125 609.5 595.8125 602.125 595.8125 584.875 C 595.8125 574.25 596.0625 563.5 596.1875 552.875 L 595.3125 551.875 L 573.8125 555.625 L 573.0625 556.375 C 574.0625 565.875 574.4375 570.25 574.4375 588 C 574.4375 601.625 574.0625 609.25 573.6875 619.5 L 574.4375 620.375 C 583.4375 620 585.9375 619.875 596.0625 620 L 596.9375 619.125 M 594.9375 539.875 L 595.3125 522.875 L 594.5625 522.125 L 574.1875 524.625 L 573.4375 525.5 C 573.6875 530 573.8125 532.625 573.8125 535.625 C 573.8125 538 573.8125 540.5 573.6875 542.875 L 574.5625 543.625 C 583.0625 542.125 585.4375 541.875 594.3125 540.75 Z M 633.8125 598.875 C 637.8125 599 641.8125 599.25 647.8125 597.25 C 654.3125 595 663.8125 589.625 663.8125 577.5 C 663.8125 571.5 662.0625 569 660.4375 566.625 L 669.0625 567.125 L 669.8125 566.5 L 670.6875 554 L 669.9375 553.375 C 660.3125 553.75 657.6875 553.875 649.8125 553.75 L 644.0625 553.625 C 635.1875 553.375 623.3125 553.125 615.1875 559.875 C 612.4375 562 607.1875 567.375 607.1875 576.75 C 607.1875 581.75 608.5625 585.75 610.8125 588.875 C 613.5625 592.75 616.0625 594.125 619.1875 595.875 C 615.6875 602.625 613.8125 606 610.9375 611.125 L 610.9375 612.25 L 616.1875 616 C 612.4375 618.875 606.5625 623.625 606.5625 631.75 C 606.5625 637.5 609.6875 642.5 614.3125 645.875 C 621.3125 650.875 630.8125 651.125 635.6875 651.125 C 658.5625 651.125 669.0625 639.625 669.0625 627.5 C 669.0625 611.75 655.3125 608.75 647.1875 606.875 L 644.1875 606.375 C 638.0625 605.375 636.6875 605 631.8125 603.25 L 633.8125 598.875 M 644.0625 576.375 C 643.9375 586.5 637.8125 587.375 636.0625 587.375 C 635.0625 587.375 630.6875 587.125 628.5625 582.125 C 627.4375 579.5 627.4375 576.5 627.4375 575.625 C 627.4375 569.375 631.1875 565.375 635.8125 565.375 C 641.5625 565.375 644.1875 570.875 644.0625 576.375 M 633.4375 623 C 644.5625 625.875 644.6875 625.875 646.1875 627.125 C 647.4375 628 648.6875 629.375 648.6875 632 C 648.6875 635.75 645.5625 639.625 637.3125 639.625 C 628.0625 639.625 624.9375 634.375 624.9375 630 C 624.9375 625.875 627.0625 623.5 628.5625 621.75 Z M 739.8125 619.125 C 739.3125 608.875 739.1875 605.375 738.9375 592.375 L 738.9375 583 C 738.8125 571.125 738.6875 564.25 735.0625 559 C 731.4375 553.875 726.1875 552.25 720.6875 552.25 C 711.5625 552.25 704.4375 556.625 699.4375 559.625 L 699.8125 521.125 L 699.0625 520.25 L 677.6875 523.625 L 677.0625 524.375 C 678.1875 536.5 678.4375 541 678.6875 557.125 C 678.9375 567.25 679.0625 577.375 679.0625 587.5 C 679.0625 599.875 678.8125 607.25 678.5625 619.5 L 679.1875 620.375 C 688.4375 619.875 690.3125 619.875 700.4375 619.875 L 701.1875 619.125 C 700.3125 600.375 700.1875 594.75 700.0625 572.625 C 702.4375 571 705.4375 568.875 709.6875 568.875 C 716.5625 568.875 717.0625 576 717.5625 581 C 717.8125 584.875 717.9375 602.625 717.9375 607.25 C 717.9375 611.375 717.8125 615.375 717.8125 619.5 L 718.4375 620.375 C 727.4375 619.875 729.4375 619.875 739.0625 619.875 Z M 789.0625 605.625 C 786.9375 606.25 785.4375 606.75 783.3125 606.75 C 776.9375 606.75 776.4375 602.75 776.1875 600.875 C 775.8125 597.625 775.8125 590.75 775.9375 585.75 L 776.1875 568.125 L 787.4375 568.625 L 788.1875 567.875 L 789.4375 554.5 L 788.6875 553.75 L 776.1875 553.75 L 776.5625 532.75 L 775.6875 532 C 767.1875 534.5 764.9375 535.125 756.0625 537.375 L 755.5625 538.25 L 755.6875 553.875 L 748.9375 553.625 L 748.1875 554.25 L 747.0625 567.625 L 747.8125 568.375 L 755.6875 568.125 L 755.3125 588 C 755.1875 591.125 755.0625 594.25 755.0625 597.5 C 755.0625 609 755.3125 621.375 774.8125 621.375 C 779.6875 621.375 783.5625 620.625 787.9375 619.875 L 788.8125 619 L 790.0625 606.125 Z M 790.8125 620 "/>
<path fill-rule="nonzero" fill="rgb(34.901961%, 14.901961%, 14.901961%)" fill-opacity="1" d="M 190.125 716.25 C 179.625 711.875 174.125 709.625 174.125 704 C 174.125 700.125 177.75 695.25 186 695.25 C 195.5 695.25 201.125 699.125 205.75 702.25 L 206.875 701.75 L 207.875 685.375 L 207.25 684.5 C 201.875 682.25 196.25 679.875 184.125 679.875 C 160.625 679.875 152.5 693.125 152.5 706.5 C 152.5 721.625 164.25 727.125 171.25 730.5 L 175.375 732.375 C 184 736 190.625 739.125 190.625 745.75 C 190.625 750.5 186.5 756.125 175.625 756.125 C 164.25 756.125 157.875 751.125 154.25 748.25 L 153 748.625 L 152.125 766.25 L 152.875 767.25 C 154.25 767.75 155.625 768.375 157 768.75 C 159.875 769.75 167.25 771.875 176.625 771.875 C 180.375 771.875 189.875 771.5 197.375 768 C 207.875 762.875 212.375 753.375 212.375 742.75 C 212.375 735.625 209.625 728 203 722.875 C 199.625 720.375 196.375 718.875 193.375 717.5 Z M 259.25 755.625 C 257.125 756.25 255.625 756.75 253.5 756.75 C 247.125 756.75 246.625 752.75 246.375 750.875 C 246 747.625 246 740.75 246.125 735.75 L 246.375 718.125 L 257.625 718.625 L 258.375 717.875 L 259.625 704.5 L 258.875 703.75 L 246.375 703.75 L 246.75 682.75 L 245.875 682 C 237.375 684.5 235.125 685.125 226.25 687.375 L 225.75 688.25 L 225.875 703.875 L 219.125 703.625 L 218.375 704.25 L 217.25 717.625 L 218 718.375 L 225.875 718.125 L 225.5 738 C 225.375 741.125 225.25 744.25 225.25 747.5 C 225.25 759 225.5 771.375 245 771.375 C 249.875 771.375 253.75 770.625 258.125 769.875 L 259 769 L 260.25 756.125 Z M 324.125 732.75 C 324.25 721.5 324.25 716.625 321 711.375 C 318.5 707.375 313.5 702.375 297.5 702.375 C 286.75 702.375 280.125 704.375 273 706.5 L 272.25 707.5 L 271.625 721.125 L 272.625 721.625 C 277 719.875 285.125 716.625 293.5 716.625 C 298.125 716.625 300 717.375 301.625 719 C 302.875 720.25 303.25 722.5 303.25 724.375 C 288.25 726.375 281.25 727.75 273.75 732.375 C 266.75 736.75 264.375 743.875 264.375 749.5 C 264.375 762.875 274 771.5 286.25 771.5 C 295.625 771.5 301 767 303.625 764.875 L 303.625 769.5 L 304.375 770.375 C 313.375 770 316.125 769.875 324.25 770 L 324.875 769.125 C 324 756.875 324 753.75 324 742 L 324.125 732.75 M 303.5 752.625 C 300.875 754.125 297.5 755.875 293.375 755.875 C 288.875 755.875 285.125 753.5 285.125 748.25 C 285.125 740 295 738.625 303.5 737.5 Z M 373.75 755.625 C 371.625 756.25 370.125 756.75 368 756.75 C 361.625 756.75 361.125 752.75 360.875 750.875 C 360.5 747.625 360.5 740.75 360.625 735.75 L 360.875 718.125 L 372.125 718.625 L 372.875 717.875 L 374.125 704.5 L 373.375 703.75 L 360.875 703.75 L 361.25 682.75 L 360.375 682 C 351.875 684.5 349.625 685.125 340.75 687.375 L 340.25 688.25 L 340.375 703.875 L 333.625 703.625 L 332.875 704.25 L 331.75 717.625 L 332.5 718.375 L 340.375 718.125 L 340 738 C 339.875 741.125 339.75 744.25 339.75 747.5 C 339.75 759 340 771.375 359.5 771.375 C 364.375 771.375 368.25 770.625 372.625 769.875 L 373.5 769 L 374.75 756.125 Z M 438.5 751.5 C 433.75 754 428.125 756.875 419 756.875 C 411.5 756.875 406.375 754.5 403.375 750 C 401.5 747.375 401.125 744.875 400.625 742.375 L 441 741.625 L 441.75 740.75 C 441.625 734.625 441.5 728.375 439.75 722.125 C 435.375 707.375 425.75 704.375 421.5 703.375 C 418.375 702.5 415.5 702.25 412.625 702.25 C 393 702.25 380 715.125 380 736.75 C 380 742.625 381 748.75 383 753.125 C 390.25 770 407.25 771.5 416.25 771.5 C 426.625 771.5 431.125 769.625 437.75 767 L 438.5 766 L 439.375 751.875 L 438.5 751.5 M 400.625 729.125 C 401 725.25 401.875 720 406.625 717 C 408.125 716 409.875 715.625 411.625 715.625 C 415.75 715.625 418.25 717.75 419.625 720 C 421.375 722.75 421.5 725.75 421.5 728.625 Z M 513 770 C 524.625 770.25 539 770.5 548.375 764 C 556.625 758.125 558.875 749.875 558.875 742.875 C 558.875 734.875 555.5 727.5 548.375 724 C 546 722.75 543.25 722.25 540.625 721.75 C 544.875 720 549.875 717.75 553.125 711.125 C 554.5 708.25 555.125 705.25 555.125 702.375 C 555.125 698.375 554.125 692.875 550.125 688.375 C 544.875 682.75 536.75 681.25 524.5 681.25 C 520.25 681.25 512.625 681.375 508.375 681.5 L 490.875 681.75 L 490.125 682.5 C 490.625 694.5 490.75 699.125 490.75 716.375 C 490.75 734.125 490.625 751.75 490.375 769.5 L 491.25 770 L 513 770 M 512.125 732 C 521.625 731.75 527.125 731.75 530.75 733.875 C 534.375 736.125 535.75 740.125 535.75 744.125 C 535.75 749.75 532.625 753.25 528 754.875 C 524.25 756.125 517.5 756.125 512.125 756 L 512.125 732 M 512.125 695.25 C 514.75 695.25 518.25 695.125 520.375 695.125 C 527.125 695.125 533.25 697.5 533.25 705.625 C 533.25 712.25 528.375 715 526.875 715.75 C 523.75 717.125 517.125 717.125 512.125 717.125 Z M 626 751.5 C 621.25 754 615.625 756.875 606.5 756.875 C 599 756.875 593.875 754.5 590.875 750 C 589 747.375 588.625 744.875 588.125 742.375 L 628.5 741.625 L 629.25 740.75 C 629.125 734.625 629 728.375 627.25 722.125 C 622.875 707.375 613.25 704.375 609 703.375 C 605.875 702.5 603 702.25 600.125 702.25 C 580.5 702.25 567.5 715.125 567.5 736.75 C 567.5 742.625 568.5 748.75 570.5 753.125 C 577.75 770 594.75 771.5 603.75 771.5 C 614.125 771.5 618.625 769.625 625.25 767 L 626 766 L 626.875 751.875 L 626 751.5 M 588.125 729.125 C 588.5 725.25 589.375 720 594.125 717 C 595.625 716 597.375 715.625 599.125 715.625 C 603.25 715.625 605.75 717.75 607.125 720 C 608.875 722.75 609 725.75 609 728.625 Z M 696.375 732.75 C 696.5 721.5 696.5 716.625 693.25 711.375 C 690.75 707.375 685.75 702.375 669.75 702.375 C 659 702.375 652.375 704.375 645.25 706.5 L 644.5 707.5 L 643.875 721.125 L 644.875 721.625 C 649.25 719.875 657.375 716.625 665.75 716.625 C 670.375 716.625 672.25 717.375 673.875 719 C 675.125 720.25 675.5 722.5 675.5 724.375 C 660.5 726.375 653.5 727.75 646 732.375 C 639 736.75 636.625 743.875 636.625 749.5 C 636.625 762.875 646.25 771.5 658.5 771.5 C 667.875 771.5 673.25 767 675.875 764.875 L 675.875 769.5 L 676.625 770.375 C 685.625 770 688.375 769.875 696.5 770 L 697.125 769.125 C 696.25 756.875 696.25 753.75 696.25 742 L 696.375 732.75 M 675.75 752.625 C 673.125 754.125 669.75 755.875 665.625 755.875 C 661.125 755.875 657.375 753.5 657.375 748.25 C 657.375 740 667.25 738.625 675.75 737.5 Z M 759.875 752 C 756.5 754 753.25 756 746.875 756 C 732.75 756 729.875 744.25 729.875 736.75 C 729.875 727.625 733.875 717.125 746 717.125 C 751.5 717.125 754.5 719.125 758.25 721.625 L 759.5 721.25 C 760 714.625 760.125 712.875 761.125 706.25 L 760.5 705.5 C 755 703.75 750.25 702.25 743 702.25 C 713.625 702.25 707.875 724.5 707.875 737.25 C 707.875 751.625 715.375 771.125 743.5 771.125 C 750.125 771.125 754.375 769.875 759.625 768.375 L 760.375 767.625 L 760.875 752.625 Z M 832.125 769.125 C 831.625 758.875 831.5 755.375 831.25 742.375 L 831.25 733 C 831.125 721.125 831 714.25 827.375 709 C 823.75 703.875 818.5 702.25 813 702.25 C 803.875 702.25 796.75 706.625 791.75 709.625 L 792.125 671.125 L 791.375 670.25 L 770 673.625 L 769.375 674.375 C 770.5 686.5 770.75 691 771 707.125 C 771.25 717.25 771.375 727.375 771.375 737.5 C 771.375 749.875 771.125 757.25 770.875 769.5 L 771.5 770.375 C 780.75 769.875 782.625 769.875 792.75 769.875 L 793.5 769.125 C 792.625 750.375 792.5 744.75 792.375 722.625 C 794.75 721 797.75 718.875 802 718.875 C 808.875 718.875 809.375 726 809.875 731 C 810.125 734.875 810.25 752.625 810.25 757.25 C 810.25 761.375 810.125 765.375 810.125 769.5 L 810.75 770.375 C 819.75 769.875 821.75 769.875 831.375 769.875 Z M 838.875 770 "/>
</svg>
