<svg xmlns="http://www.w3.org/2000/svg" width="612" height="817" viewBox="0 0 612 817">
  <defs>
    <style>
      .cls-1 {
        fill: #592626;
        fill-rule: evenodd;
      }
    </style>
  </defs>
  <path id="Border_Field_State_Park" data-name="Border Field State Park" class="cls-1" d="M102.838,392.066c7.233,0.155,16.177.311,22.01-3.733a15.461,15.461,0,0,0,6.533-13.144c0-4.978-2.1-9.566-6.533-11.744a17.184,17.184,0,0,0-4.822-1.4c2.644-1.089,5.755-2.489,7.777-6.611a12.607,12.607,0,0,0,1.245-5.444,13.055,13.055,0,0,0-3.111-8.711c-3.267-3.5-8.322-4.433-15.944-4.433-2.644,0-7.388.078-10.033,0.156l-10.888.155-0.467.467c0.311,7.466.389,10.344,0.389,21.077,0,11.044-.078,22.01-0.233,33.054l0.544,0.311h13.533Zm-0.544-23.644c5.91-.155,9.332-0.155,11.588,1.167a7.173,7.173,0,0,1,3.111,6.378,6.686,6.686,0,0,1-4.822,6.688c-2.333.778-6.533,0.778-9.877,0.7V368.422Zm0-22.865c1.633,0,3.81-.078,5.133-0.078,4.2,0,8.01,1.478,8.01,6.533a6.871,6.871,0,0,1-3.966,6.3c-1.944.855-6.066,0.855-9.177,0.855v-13.61ZM178.2,371.378c0-3.033,0-15.633-10.888-19.91a27.956,27.956,0,0,0-9.488-1.478c-13.533,0-21.155,7.233-21.155,21.543,0,4.978.778,10.033,3.655,14.233C142.35,388.8,146.161,393,157.282,393,173.77,393,178.2,383.044,178.2,371.378Zm-13.454-.078c0,6.378-.856,13.455-7.311,13.455a6.292,6.292,0,0,1-4.356-1.789c-1.322-1.322-2.8-3.966-2.8-11.51,0-2.256,0-7.233,1.555-9.955a6.442,6.442,0,0,1,5.678-3.5,6.538,6.538,0,0,1,4.977,2.411C164.36,362.667,164.749,367.1,164.749,371.3Zm43.322-8.088,2.178-12.678-0.467-.544c-0.544,0-1.089-.078-1.633-0.078-3.189,0-6.767,1.789-9.255,7.544l0.233-7.155-0.622-.622c-5.756,1.244-7.233,1.478-12.911,2.333l-0.466.467c0.466,5.833.7,9.333,0.7,20.143,0,6.378-.078,12.755-0.234,19.21l0.467,0.467c5.755-.233,7-0.311,13.221-0.233l0.389-.545c-0.311-6.3-.777-15.088-0.777-20.454,0-3.5,0-8.633,5.288-8.633a5.826,5.826,0,0,1,3.189,1.089Zm44.8,28.387c-0.311-7-.544-11.666-0.544-21.854,0-20.533.311-29.01,0.622-39.276L252.4,330l-12.833,2.022-0.389.467c0.467,7.311.544,9.255,0.467,18.121-5.833-.155-13.144-0.311-19.055,4.356-5.444,4.2-7.7,10.655-7.7,18.665,0,6.067,1.634,12.133,6.222,15.944A16.4,16.4,0,0,0,229.305,393a14.246,14.246,0,0,0,10.266-4.2l-0.156,3.033L239.8,392.3c5.367-.233,6.844-0.233,12.677-0.233Zm-13.221-31.654c0.077,10.344,0,12.366-.234,21.777a9.836,9.836,0,0,1-5.288,1.866c-7.544,0-7.544-9.644-7.544-11.2,0-5.989,1.711-12.677,10.421-12.677A17.485,17.485,0,0,1,239.649,359.945Zm56.621,20.61a23.761,23.761,0,0,1-12.132,3.345c-4.667,0-7.856-1.478-9.722-4.278a11,11,0,0,1-1.711-4.744l25.121-.467,0.466-.544a45.56,45.56,0,0,0-1.244-11.589c-2.722-9.177-8.711-11.044-11.355-11.666a19.933,19.933,0,0,0-5.522-.7c-12.21,0-20.3,8.011-20.3,21.466a25.873,25.873,0,0,0,1.867,10.188C266.25,392.066,276.827,393,282.427,393c6.455,0,9.255-1.167,13.377-2.8l0.466-.622,0.545-8.788Zm-23.565-13.921c0.233-2.411.778-5.678,3.733-7.544a5.968,5.968,0,0,1,8.088,1.866,9.5,9.5,0,0,1,1.167,5.367Zm55.221-3.422,2.178-12.678-0.466-.544c-0.545,0-1.089-.078-1.634-0.078-3.189,0-6.766,1.789-9.255,7.544l0.233-7.155-0.622-.622c-5.755,1.244-7.233,1.478-12.91,2.333l-0.467.467c0.467,5.833.7,9.333,0.7,20.143,0,6.378-.078,12.755-0.233,19.21l0.466,0.467c5.756-.233,7-0.311,13.222-0.233l0.389-.545c-0.311-6.3-.778-15.088-0.778-20.454,0-3.5,0-8.633,5.289-8.633a5.826,5.826,0,0,1,3.189,1.089Zm60.589,6.455,0.544-.467,0.623-9.1-0.389-.467-17.733.622V347.268l19.055,0.233,0.466-.544,0.856-9.644-0.467-.389c-12.832.233-16.954,0.233-33.754,0.156l-0.466.466c0.466,7.622.778,13.766,0.778,27.532,0,8.944-.156,17.888-0.312,26.832l0.389,0.389c5.678-.233,7-0.233,13.844-0.233l0.389-.467c-0.544-8.944-.622-11.666-0.856-21.932h17.033Zm23.412,21.854c-0.389-5.988-.7-10.577-0.7-21.31,0-6.611.155-13.3,0.233-19.91l-0.544-.622-13.377,2.333-0.467.467c0.622,5.911.856,8.633,0.856,19.677,0,8.477-.234,13.221-0.467,19.6l0.467,0.544c5.6-.233,7.155-0.311,13.454-0.233Zm-1.245-49.308,0.234-10.578-0.467-.466-12.677,1.555-0.467.545c0.156,2.8.234,4.433,0.234,6.3,0,1.478,0,3.034-.078,4.511l0.544,0.467c5.289-.933,6.767-1.089,12.289-1.789Zm44.411,38.342A23.769,23.769,0,0,1,442.96,383.9c-4.667,0-7.855-1.478-9.722-4.278a11,11,0,0,1-1.711-4.744l25.121-.467,0.467-.544a45.607,45.607,0,0,0-1.245-11.589c-2.722-9.177-8.71-11.044-11.355-11.666a19.933,19.933,0,0,0-5.522-.7c-12.21,0-20.3,8.011-20.3,21.466a25.873,25.873,0,0,0,1.867,10.188c4.511,10.5,15.088,11.433,20.688,11.433,6.455,0,9.255-1.167,13.377-2.8l0.467-.622,0.544-8.788Zm-23.566-13.921c0.233-2.411.778-5.678,3.733-7.544a5.969,5.969,0,0,1,8.089,1.866,9.5,9.5,0,0,1,1.166,5.367Zm46.433,24.887c-0.389-8.944-.778-17.11-0.778-41.687,0-7.388.078-10.888,0.389-19.287L477.027,330l-13.3,2.1-0.312.467c0.778,9.488.856,12.055,1.012,24.654,0.077,4.589.077,9.177,0.077,13.766,0,8.4-.155,13.066-0.466,20.766l0.466,0.544c5.211-.233,7.311-0.311,12.989-0.233Zm47.132,0.078c-0.311-7-.544-11.666-0.544-21.854,0-20.533.311-29.01,0.622-39.276L524.626,330l-12.833,2.022-0.389.467c0.467,7.311.545,9.255,0.467,18.121-5.833-.155-13.144-0.311-19.055,4.356-5.444,4.2-7.7,10.655-7.7,18.665,0,6.067,1.633,12.133,6.221,15.944A16.4,16.4,0,0,0,501.527,393a14.246,14.246,0,0,0,10.266-4.2l-0.156,3.033,0.389,0.467c5.367-.233,6.844-0.233,12.677-0.233Zm-13.221-31.654c0.078,10.344,0,12.366-.234,21.777a9.836,9.836,0,0,1-5.288,1.866c-7.544,0-7.544-9.644-7.544-11.2,0-5.989,1.711-12.677,10.421-12.677A17.485,17.485,0,0,1,511.871,359.945ZM148.96,451.956c-6.533-2.722-9.955-4.122-9.955-7.622,0-2.411,2.255-5.444,7.388-5.444,5.911,0,9.411,2.411,12.289,4.356l0.7-.312L160,432.746l-0.389-.544a31.855,31.855,0,0,0-14.388-2.878c-14.622,0-19.677,8.244-19.677,16.566,0,9.411,7.311,12.833,11.666,14.933l2.566,1.166c5.367,2.256,9.489,4.2,9.489,8.322,0,2.955-2.567,6.455-9.333,6.455a19.839,19.839,0,0,1-13.3-4.9l-0.778.234-0.544,10.966,0.466,0.622c0.856,0.311,1.711.7,2.567,0.933a38.707,38.707,0,0,0,12.21,1.945c2.333,0,8.244-.234,12.911-2.411,6.533-3.189,9.333-9.1,9.333-15.711a15.415,15.415,0,0,0-5.833-12.366,31.556,31.556,0,0,0-5.989-3.344Zm43.011,24.5a11.669,11.669,0,0,1-3.578.7c-3.966,0-4.277-2.489-4.433-3.655a89.18,89.18,0,0,1-.155-9.411l0.155-10.966,7,0.311,0.467-.467,0.777-8.321-0.466-.467H183.96l0.234-13.066-0.545-.467c-5.288,1.556-6.688,1.945-12.21,3.344l-0.311.545,0.077,9.722-4.2-.156-0.466.389-0.7,8.322,0.467,0.466,4.9-.155-0.233,12.366c-0.078,1.944-.156,3.889-0.156,5.911,0,7.155.156,14.855,12.289,14.855a45.168,45.168,0,0,0,8.166-.934l0.544-.544,0.778-8.011Zm40.366-14.233c0.078-7,.078-10.032-1.944-13.3-1.556-2.489-4.667-5.6-14.622-5.6a47.345,47.345,0,0,0-15.244,2.567l-0.466.622-0.389,8.477,0.622,0.312c2.722-1.089,7.778-3.111,12.988-3.111,2.878,0,4.045.466,5.056,1.477a4.909,4.909,0,0,1,1.011,3.345c-9.333,1.244-13.688,2.1-18.355,4.977a12.437,12.437,0,0,0-5.833,10.655c0,8.322,5.989,13.688,13.61,13.688a16.074,16.074,0,0,0,10.811-4.122v2.878l0.467,0.544c5.6-.233,7.31-0.311,12.366-0.233l0.389-.544c-0.545-7.622-.545-9.567-0.545-16.877ZM219.5,474.589a12.6,12.6,0,0,1-6.3,2.022c-2.8,0-5.133-1.478-5.133-4.745,0-5.133,6.144-5.988,11.432-6.688v9.411Zm43.711,1.866a11.669,11.669,0,0,1-3.577.7c-3.967,0-4.278-2.489-4.433-3.655a88.88,88.88,0,0,1-.156-9.411l0.156-10.966,7,0.311,0.467-.467,0.778-8.321-0.467-.467h-7.777l0.233-13.066-0.544-.467c-5.289,1.556-6.689,1.945-12.211,3.344l-0.311.545,0.078,9.722-4.2-.156-0.467.389-0.7,8.322,0.467,0.466,4.9-.155-0.234,12.366c-0.077,1.944-.155,3.889-0.155,5.911,0,7.155.155,14.855,12.288,14.855a45.168,45.168,0,0,0,8.166-.934l0.545-.544,0.778-8.011Zm38.733-2.566a23.773,23.773,0,0,1-12.133,3.344c-4.666,0-7.855-1.478-9.721-4.278a11,11,0,0,1-1.711-4.744l25.121-.467,0.466-.544a45.593,45.593,0,0,0-1.244-11.588c-2.722-9.178-8.711-11.044-11.355-11.666a19.9,19.9,0,0,0-5.522-.7c-12.211,0-20.3,8.01-20.3,21.465a25.893,25.893,0,0,0,1.866,10.189c4.511,10.5,15.089,11.432,20.688,11.432,6.456,0,9.255-1.166,13.377-2.8l0.467-.623,0.545-8.788Zm-23.565-13.922c0.233-2.411.777-5.677,3.733-7.544a5.967,5.967,0,0,1,8.088,1.867,9.5,9.5,0,0,1,1.167,5.366Zm65.877-29.632-9.877.156-0.467.466c0.312,10.111.545,16.877,0.545,25.821,0,9.489-.233,18.9-0.467,28.388l0.467,0.466c5.755-.233,7-0.311,13.221-0.233l0.389-.467c-0.311-8.477-.311-10.421-0.311-18.354,8.711,0.078,18.044.078,23.644-6.767a19.991,19.991,0,0,0,4.044-12.521c0-3.344-.778-10.733-7.233-14.388-4.667-2.722-11.277-2.722-17.11-2.722Zm3.5,9.411c1.711-.078,3.345-0.078,5.056-0.078,6.844,0.156,8.71,3.655,8.71,8.166,0,1.089,0,5.6-4.122,7.855-2.1,1.167-4.977,1.323-9.644,1.323V439.746Zm66.11,22.476c0.078-7,.078-10.032-1.944-13.3-1.556-2.489-4.666-5.6-14.622-5.6a47.333,47.333,0,0,0-15.243,2.567l-0.467.622-0.389,8.477,0.622,0.312c2.722-1.089,7.778-3.111,12.989-3.111,2.877,0,4.044.466,5.055,1.477a4.9,4.9,0,0,1,1.011,3.345c-9.333,1.244-13.688,2.1-18.355,4.977a12.437,12.437,0,0,0-5.833,10.655c0,8.322,5.989,13.688,13.611,13.688a16.074,16.074,0,0,0,10.81-4.122v2.878l0.467,0.544c5.6-.233,7.311-0.311,12.366-0.233l0.389-.544c-0.544-7.622-.544-9.567-0.544-16.877Zm-12.832,12.367a12.6,12.6,0,0,1-6.3,2.022c-2.8,0-5.133-1.478-5.133-4.745,0-5.133,6.144-5.988,11.433-6.688v9.411Zm44.411-18.044,2.177-12.677-0.466-.545c-0.545,0-1.089-.077-1.634-0.077-3.188,0-6.766,1.788-9.255,7.544l0.234-7.156-0.623-.622c-5.755,1.245-7.233,1.478-12.91,2.333l-0.467.467c0.467,5.833.7,9.333,0.7,20.144,0,6.377-.077,12.755-0.233,19.21l0.467,0.466c5.755-.233,7-0.311,13.221-0.233l0.389-.544c-0.311-6.3-.778-15.088-0.778-20.455,0-3.5,0-8.633,5.289-8.633a5.826,5.826,0,0,1,3.189,1.089Zm46.666,27.843c-7.311-12.366-8.089-13.766-14-24.421,5.367-7.311,5.911-8.088,11.433-15.166l-0.389-.778-12.677.156-0.778.544c-6.066,10.5-6.844,11.744-10.422,17.111V453.2c0.078-14.544.156-17.655,0.545-29.4l-0.622-.467-13.533,2.023-0.467.544c0.545,7.544.778,11.2,0.934,21.388,0.155,12.6.155,25.2,0.077,37.8l0.545,0.544c5.211-.233,6.688-0.233,12.6-0.233l0.467-.544-0.467-13.144-0.078-8.944c6.767,12.444,7.622,14.155,11.589,22.4l0.7,0.466,14-.544Z"/>
</svg>
