<?xml version="1.0" encoding="UTF-8"?>
<svg xmlns="http://www.w3.org/2000/svg" xmlns:xlink="http://www.w3.org/1999/xlink" width="975" height="1300" viewBox="0 0 975 1300">
<path fill-rule="nonzero" fill="rgb(34.901961%, 14.901961%, 14.901961%)" fill-opacity="1" d="M 158.875 531.375 C 145.875 531.75 143.75 531.75 129.875 531.75 L 129.125 532.5 L 123.375 552.75 L 118.375 570.875 L 112.5 592.625 L 107 570.25 L 103.5 556.125 L 97.25 532.125 L 96.625 531.375 C 83.25 531.75 81 531.75 67 531.75 L 66.25 532.5 C 65 569.875 64.5 579.5 61.75 619.625 L 62.375 620.375 C 70.375 620 72.75 619.875 80 620 L 80.75 619.25 L 81.125 595.375 L 81.875 571.125 L 82.375 547.5 L 87.875 569.625 L 92.625 587.375 L 101 619.625 L 101.75 620.375 C 109.5 620 111.625 619.875 120.375 620 L 121.125 619.25 L 128.375 592.625 L 133.375 574.375 L 140.375 548.125 L 140.375 570.5 L 140.625 589.625 L 140.625 619.625 L 141.25 620.375 C 149.875 620 153.25 619.875 162.875 620 L 163.5 619.25 C 162.75 605 161.875 590.625 161.375 576.25 C 161 568.375 160.75 560.5 160.375 552.625 C 159.75 541 159.625 539.5 159.625 532.125 Z M 233.25 582.75 C 233.375 571.5 233.375 566.625 230.125 561.375 C 227.625 557.375 222.625 552.375 206.625 552.375 C 195.875 552.375 189.25 554.375 182.125 556.5 L 181.375 557.5 L 180.75 571.125 L 181.75 571.625 C 186.125 569.875 194.25 566.625 202.625 566.625 C 207.25 566.625 209.125 567.375 210.75 569 C 212 570.25 212.375 572.5 212.375 574.375 C 197.375 576.375 190.375 577.75 182.875 582.375 C 175.875 586.75 173.5 593.875 173.5 599.5 C 173.5 612.875 183.125 621.5 195.375 621.5 C 204.75 621.5 210.125 617 212.75 614.875 L 212.75 619.5 L 213.5 620.375 C 222.5 620 225.25 619.875 233.375 620 L 234 619.125 C 233.125 606.875 233.125 603.75 233.125 592 L 233.25 582.75 M 212.625 602.625 C 210 604.125 206.625 605.875 202.5 605.875 C 198 605.875 194.25 603.5 194.25 598.25 C 194.25 590 204.125 588.625 212.625 587.5 Z M 269.875 619.125 C 269.25 604.75 268.625 591.625 268.625 552.125 C 268.625 540.25 268.75 534.625 269.25 521.125 L 268.375 520.25 L 247 523.625 L 246.5 524.375 C 247.75 539.625 247.875 543.75 248.125 564 C 248.25 571.375 248.25 578.75 248.25 586.125 C 248.25 599.625 248 607.125 247.5 619.5 L 248.25 620.375 C 256.625 620 260 619.875 269.125 620 Z M 307 619.125 C 306.375 609.5 305.875 602.125 305.875 584.875 C 305.875 574.25 306.125 563.5 306.25 552.875 L 305.375 551.875 L 283.875 555.625 L 283.125 556.375 C 284.125 565.875 284.5 570.25 284.5 588 C 284.5 601.625 284.125 609.25 283.75 619.5 L 284.5 620.375 C 293.5 620 296 619.875 306.125 620 L 307 619.125 M 305 539.875 L 305.375 522.875 L 304.625 522.125 L 284.25 524.625 L 283.5 525.5 C 283.75 530 283.875 532.625 283.875 535.625 C 283.875 538 283.875 540.5 283.75 542.875 L 284.625 543.625 C 293.125 542.125 295.5 541.875 304.375 540.75 Z M 329.875 620.25 L 332.375 620.25 C 352.375 620.25 365.25 619.25 374.75 609.125 C 383.625 599.625 384.5 588.375 384.5 583.125 C 384.5 565.75 374.5 552.25 357.5 552.25 C 349.25 552.25 344.875 555 341.375 557.25 L 342.125 521 L 341.125 520.25 L 320.375 523.5 L 319.625 524.375 C 320.625 534.875 321 539.125 321 564.25 C 321 575 320.875 596.25 320.75 619.5 L 321.625 620.375 L 329.875 620.25 M 341.875 569.625 C 344.375 568.375 346.75 567.125 350 567.125 C 358.25 567.125 363 574.5 363 586 C 363 595 359 600.875 355.625 603.25 C 351.5 606.125 346.125 606.25 341.875 606.375 Z M 456.375 553.125 L 436 554.125 L 435.125 554.875 C 436 569 436 589 436 591 C 436 594.625 436 596.625 435.875 601.625 C 432.5 603.875 429.875 605.75 426.5 605.75 C 417.5 605.75 417.5 596.25 417.5 588.875 C 417.5 585.75 417.5 582.5 417.625 579.375 L 417.875 554.125 L 417 553.125 L 396.375 554.125 L 395.5 554.875 C 396.25 565.375 396.375 568.875 396.375 581.5 L 396.375 590.25 C 396.25 603.875 396.875 609.625 401.375 614.875 C 405.5 619.5 411.5 621.5 417.75 621.5 C 426.625 621.5 431.75 617.5 436.25 614 L 436.125 619.625 L 437 620.375 C 446.125 620 448.875 620 457 620 L 457.75 619.25 C 457.125 610.375 456.875 605.625 456.875 589.375 C 456.875 577.625 457 565.875 457.25 554.125 Z M 562.125 602.875 C 548.5 603.625 537.625 603.875 533.875 603.875 L 531.375 603.875 C 531.125 570.5 531.25 562 532.25 532.125 L 531.5 531.375 C 520.75 531.875 517.875 531.875 509.25 531.75 L 508.5 532.5 C 509 542.5 509.125 545.5 509.125 560.375 C 509.125 580.125 509 599.875 509 619.625 L 509.625 620.375 C 534.125 620 538.625 620 561.125 620 L 561.75 619.25 L 562.75 603.5 Z M 629.125 582.75 C 629.25 571.5 629.25 566.625 626 561.375 C 623.5 557.375 618.5 552.375 602.5 552.375 C 591.75 552.375 585.125 554.375 578 556.5 L 577.25 557.5 L 576.625 571.125 L 577.625 571.625 C 582 569.875 590.125 566.625 598.5 566.625 C 603.125 566.625 605 567.375 606.625 569 C 607.875 570.25 608.25 572.5 608.25 574.375 C 593.25 576.375 586.25 577.75 578.75 582.375 C 571.75 586.75 569.375 593.875 569.375 599.5 C 569.375 612.875 579 621.5 591.25 621.5 C 600.625 621.5 606 617 608.625 614.875 L 608.625 619.5 L 609.375 620.375 C 618.375 620 621.125 619.875 629.25 620 L 629.875 619.125 C 629 606.875 629 603.75 629 592 L 629.125 582.75 M 608.5 602.625 C 605.875 604.125 602.5 605.875 598.375 605.875 C 593.875 605.875 590.125 603.5 590.125 598.25 C 590.125 590 600 588.625 608.5 587.5 Z M 666.75 598.875 C 670.75 599 674.75 599.25 680.75 597.25 C 687.25 595 696.75 589.625 696.75 577.5 C 696.75 571.5 695 569 693.375 566.625 L 702 567.125 L 702.75 566.5 L 703.625 554 L 702.875 553.375 C 693.25 553.75 690.625 553.875 682.75 553.75 L 677 553.625 C 668.125 553.375 656.25 553.125 648.125 559.875 C 645.375 562 640.125 567.375 640.125 576.75 C 640.125 581.75 641.5 585.75 643.75 588.875 C 646.5 592.75 649 594.125 652.125 595.875 C 648.625 602.625 646.75 606 643.875 611.125 L 643.875 612.25 L 649.125 616 C 645.375 618.875 639.5 623.625 639.5 631.75 C 639.5 637.5 642.625 642.5 647.25 645.875 C 654.25 650.875 663.75 651.125 668.625 651.125 C 691.5 651.125 702 639.625 702 627.5 C 702 611.75 688.25 608.75 680.125 606.875 L 677.125 606.375 C 671 605.375 669.625 605 664.75 603.25 L 666.75 598.875 M 677 576.375 C 676.875 586.5 670.75 587.375 669 587.375 C 668 587.375 663.625 587.125 661.5 582.125 C 660.375 579.5 660.375 576.5 660.375 575.625 C 660.375 569.375 664.125 565.375 668.75 565.375 C 674.5 565.375 677.125 570.875 677 576.375 M 666.375 623 C 677.5 625.875 677.625 625.875 679.125 627.125 C 680.375 628 681.625 629.375 681.625 632 C 681.625 635.75 678.5 639.625 670.25 639.625 C 661 639.625 657.875 634.375 657.875 630 C 657.875 625.875 660 623.5 661.5 621.75 Z M 775.125 586.75 C 775.125 581.875 775.125 561.625 757.625 554.75 C 752.125 552.625 745.625 552.375 742.375 552.375 C 720.625 552.375 708.375 564 708.375 587 C 708.375 595 709.625 603.125 714.25 609.875 C 717.5 614.75 723.625 621.5 741.5 621.5 C 768 621.5 775.125 605.5 775.125 586.75 M 753.5 586.625 C 753.5 596.875 752.125 608.25 741.75 608.25 C 738.5 608.25 736.25 606.75 734.75 605.375 C 732.625 603.25 730.25 599 730.25 586.875 C 730.25 583.25 730.25 575.25 732.75 570.875 C 734.625 567.5 737.875 565.25 741.875 565.25 C 745.375 565.25 748.25 567.125 749.875 569.125 C 752.875 572.75 753.5 579.875 753.5 586.625 Z M 850.625 586.75 C 850.625 581.875 850.625 561.625 833.125 554.75 C 827.625 552.625 821.125 552.375 817.875 552.375 C 796.125 552.375 783.875 564 783.875 587 C 783.875 595 785.125 603.125 789.75 609.875 C 793 614.75 799.125 621.5 817 621.5 C 843.5 621.5 850.625 605.5 850.625 586.75 M 829 586.625 C 829 596.875 827.625 608.25 817.25 608.25 C 814 608.25 811.75 606.75 810.25 605.375 C 808.125 603.25 805.75 599 805.75 586.875 C 805.75 583.25 805.75 575.25 808.25 570.875 C 810.125 567.5 813.375 565.25 817.375 565.25 C 820.875 565.25 823.75 567.125 825.375 569.125 C 828.375 572.75 829 579.875 829 586.625 Z M 923.75 619.125 C 923.125 608.125 923.125 604.625 922.875 592.375 L 922.875 582.625 C 922.75 570.625 922.625 564.875 919.5 559.75 C 915.625 553.25 908.5 552.25 904 552.25 C 896.375 552.25 889.75 556.25 884 559.625 L 884.25 552.75 L 883 551.875 C 873.375 553.875 871.25 554.25 861.875 555.5 L 861.125 556.375 C 862.125 567.25 862.875 575.125 862.875 595.5 C 862.875 603.5 862.75 611.5 862.625 619.5 L 863.375 620.25 C 872.375 619.875 874.25 619.875 884.25 619.875 L 885 619.125 C 884.25 599.875 884.125 595 884 572.625 C 886.625 570.875 889.625 568.75 893.625 568.75 C 900.5 568.75 901.125 576.125 901.5 580.625 C 901.75 584.75 901.875 601.875 901.875 606.625 C 901.875 610.875 901.75 615.25 901.75 619.5 L 902.5 620.25 C 910.75 620 912.875 619.875 922.875 619.875 Z M 930.5 620 "/>
<path fill-rule="nonzero" fill="rgb(34.901961%, 14.901961%, 14.901961%)" fill-opacity="1" d="M 190.125 716.25 C 179.625 711.875 174.125 709.625 174.125 704 C 174.125 700.125 177.75 695.25 186 695.25 C 195.5 695.25 201.125 699.125 205.75 702.25 L 206.875 701.75 L 207.875 685.375 L 207.25 684.5 C 201.875 682.25 196.25 679.875 184.125 679.875 C 160.625 679.875 152.5 693.125 152.5 706.5 C 152.5 721.625 164.25 727.125 171.25 730.5 L 175.375 732.375 C 184 736 190.625 739.125 190.625 745.75 C 190.625 750.5 186.5 756.125 175.625 756.125 C 164.25 756.125 157.875 751.125 154.25 748.25 L 153 748.625 L 152.125 766.25 L 152.875 767.25 C 154.25 767.75 155.625 768.375 157 768.75 C 159.875 769.75 167.25 771.875 176.625 771.875 C 180.375 771.875 189.875 771.5 197.375 768 C 207.875 762.875 212.375 753.375 212.375 742.75 C 212.375 735.625 209.625 728 203 722.875 C 199.625 720.375 196.375 718.875 193.375 717.5 Z M 259.25 755.625 C 257.125 756.25 255.625 756.75 253.5 756.75 C 247.125 756.75 246.625 752.75 246.375 750.875 C 246 747.625 246 740.75 246.125 735.75 L 246.375 718.125 L 257.625 718.625 L 258.375 717.875 L 259.625 704.5 L 258.875 703.75 L 246.375 703.75 L 246.75 682.75 L 245.875 682 C 237.375 684.5 235.125 685.125 226.25 687.375 L 225.75 688.25 L 225.875 703.875 L 219.125 703.625 L 218.375 704.25 L 217.25 717.625 L 218 718.375 L 225.875 718.125 L 225.5 738 C 225.375 741.125 225.25 744.25 225.25 747.5 C 225.25 759 225.5 771.375 245 771.375 C 249.875 771.375 253.75 770.625 258.125 769.875 L 259 769 L 260.25 756.125 Z M 324.125 732.75 C 324.25 721.5 324.25 716.625 321 711.375 C 318.5 707.375 313.5 702.375 297.5 702.375 C 286.75 702.375 280.125 704.375 273 706.5 L 272.25 707.5 L 271.625 721.125 L 272.625 721.625 C 277 719.875 285.125 716.625 293.5 716.625 C 298.125 716.625 300 717.375 301.625 719 C 302.875 720.25 303.25 722.5 303.25 724.375 C 288.25 726.375 281.25 727.75 273.75 732.375 C 266.75 736.75 264.375 743.875 264.375 749.5 C 264.375 762.875 274 771.5 286.25 771.5 C 295.625 771.5 301 767 303.625 764.875 L 303.625 769.5 L 304.375 770.375 C 313.375 770 316.125 769.875 324.25 770 L 324.875 769.125 C 324 756.875 324 753.75 324 742 L 324.125 732.75 M 303.5 752.625 C 300.875 754.125 297.5 755.875 293.375 755.875 C 288.875 755.875 285.125 753.5 285.125 748.25 C 285.125 740 295 738.625 303.5 737.5 Z M 373.75 755.625 C 371.625 756.25 370.125 756.75 368 756.75 C 361.625 756.75 361.125 752.75 360.875 750.875 C 360.5 747.625 360.5 740.75 360.625 735.75 L 360.875 718.125 L 372.125 718.625 L 372.875 717.875 L 374.125 704.5 L 373.375 703.75 L 360.875 703.75 L 361.25 682.75 L 360.375 682 C 351.875 684.5 349.625 685.125 340.75 687.375 L 340.25 688.25 L 340.375 703.875 L 333.625 703.625 L 332.875 704.25 L 331.75 717.625 L 332.5 718.375 L 340.375 718.125 L 340 738 C 339.875 741.125 339.75 744.25 339.75 747.5 C 339.75 759 340 771.375 359.5 771.375 C 364.375 771.375 368.25 770.625 372.625 769.875 L 373.5 769 L 374.75 756.125 Z M 438.5 751.5 C 433.75 754 428.125 756.875 419 756.875 C 411.5 756.875 406.375 754.5 403.375 750 C 401.5 747.375 401.125 744.875 400.625 742.375 L 441 741.625 L 441.75 740.75 C 441.625 734.625 441.5 728.375 439.75 722.125 C 435.375 707.375 425.75 704.375 421.5 703.375 C 418.375 702.5 415.5 702.25 412.625 702.25 C 393 702.25 380 715.125 380 736.75 C 380 742.625 381 748.75 383 753.125 C 390.25 770 407.25 771.5 416.25 771.5 C 426.625 771.5 431.125 769.625 437.75 767 L 438.5 766 L 439.375 751.875 L 438.5 751.5 M 400.625 729.125 C 401 725.25 401.875 720 406.625 717 C 408.125 716 409.875 715.625 411.625 715.625 C 415.75 715.625 418.25 717.75 419.625 720 C 421.375 722.75 421.5 725.75 421.5 728.625 Z M 513 770 C 524.625 770.25 539 770.5 548.375 764 C 556.625 758.125 558.875 749.875 558.875 742.875 C 558.875 734.875 555.5 727.5 548.375 724 C 546 722.75 543.25 722.25 540.625 721.75 C 544.875 720 549.875 717.75 553.125 711.125 C 554.5 708.25 555.125 705.25 555.125 702.375 C 555.125 698.375 554.125 692.875 550.125 688.375 C 544.875 682.75 536.75 681.25 524.5 681.25 C 520.25 681.25 512.625 681.375 508.375 681.5 L 490.875 681.75 L 490.125 682.5 C 490.625 694.5 490.75 699.125 490.75 716.375 C 490.75 734.125 490.625 751.75 490.375 769.5 L 491.25 770 L 513 770 M 512.125 732 C 521.625 731.75 527.125 731.75 530.75 733.875 C 534.375 736.125 535.75 740.125 535.75 744.125 C 535.75 749.75 532.625 753.25 528 754.875 C 524.25 756.125 517.5 756.125 512.125 756 L 512.125 732 M 512.125 695.25 C 514.75 695.25 518.25 695.125 520.375 695.125 C 527.125 695.125 533.25 697.5 533.25 705.625 C 533.25 712.25 528.375 715 526.875 715.75 C 523.75 717.125 517.125 717.125 512.125 717.125 Z M 626 751.5 C 621.25 754 615.625 756.875 606.5 756.875 C 599 756.875 593.875 754.5 590.875 750 C 589 747.375 588.625 744.875 588.125 742.375 L 628.5 741.625 L 629.25 740.75 C 629.125 734.625 629 728.375 627.25 722.125 C 622.875 707.375 613.25 704.375 609 703.375 C 605.875 702.5 603 702.25 600.125 702.25 C 580.5 702.25 567.5 715.125 567.5 736.75 C 567.5 742.625 568.5 748.75 570.5 753.125 C 577.75 770 594.75 771.5 603.75 771.5 C 614.125 771.5 618.625 769.625 625.25 767 L 626 766 L 626.875 751.875 L 626 751.5 M 588.125 729.125 C 588.5 725.25 589.375 720 594.125 717 C 595.625 716 597.375 715.625 599.125 715.625 C 603.25 715.625 605.75 717.75 607.125 720 C 608.875 722.75 609 725.75 609 728.625 Z M 696.375 732.75 C 696.5 721.5 696.5 716.625 693.25 711.375 C 690.75 707.375 685.75 702.375 669.75 702.375 C 659 702.375 652.375 704.375 645.25 706.5 L 644.5 707.5 L 643.875 721.125 L 644.875 721.625 C 649.25 719.875 657.375 716.625 665.75 716.625 C 670.375 716.625 672.25 717.375 673.875 719 C 675.125 720.25 675.5 722.5 675.5 724.375 C 660.5 726.375 653.5 727.75 646 732.375 C 639 736.75 636.625 743.875 636.625 749.5 C 636.625 762.875 646.25 771.5 658.5 771.5 C 667.875 771.5 673.25 767 675.875 764.875 L 675.875 769.5 L 676.625 770.375 C 685.625 770 688.375 769.875 696.5 770 L 697.125 769.125 C 696.25 756.875 696.25 753.75 696.25 742 L 696.375 732.75 M 675.75 752.625 C 673.125 754.125 669.75 755.875 665.625 755.875 C 661.125 755.875 657.375 753.5 657.375 748.25 C 657.375 740 667.25 738.625 675.75 737.5 Z M 759.875 752 C 756.5 754 753.25 756 746.875 756 C 732.75 756 729.875 744.25 729.875 736.75 C 729.875 727.625 733.875 717.125 746 717.125 C 751.5 717.125 754.5 719.125 758.25 721.625 L 759.5 721.25 C 760 714.625 760.125 712.875 761.125 706.25 L 760.5 705.5 C 755 703.75 750.25 702.25 743 702.25 C 713.625 702.25 707.875 724.5 707.875 737.25 C 707.875 751.625 715.375 771.125 743.5 771.125 C 750.125 771.125 754.375 769.875 759.625 768.375 L 760.375 767.625 L 760.875 752.625 Z M 832.125 769.125 C 831.625 758.875 831.5 755.375 831.25 742.375 L 831.25 733 C 831.125 721.125 831 714.25 827.375 709 C 823.75 703.875 818.5 702.25 813 702.25 C 803.875 702.25 796.75 706.625 791.75 709.625 L 792.125 671.125 L 791.375 670.25 L 770 673.625 L 769.375 674.375 C 770.5 686.5 770.75 691 771 707.125 C 771.25 717.25 771.375 727.375 771.375 737.5 C 771.375 749.875 771.125 757.25 770.875 769.5 L 771.5 770.375 C 780.75 769.875 782.625 769.875 792.75 769.875 L 793.5 769.125 C 792.625 750.375 792.5 744.75 792.375 722.625 C 794.75 721 797.75 718.875 802 718.875 C 808.875 718.875 809.375 726 809.875 731 C 810.125 734.875 810.25 752.625 810.25 757.25 C 810.25 761.375 810.125 765.375 810.125 769.5 L 810.75 770.375 C 819.75 769.875 821.75 769.875 831.375 769.875 Z M 838.875 770 "/>
</svg>
