<svg xmlns="http://www.w3.org/2000/svg" width="612" height="817" viewBox="0 0 612 817">
  <defs>
    <style>
      .cls-1 {
        fill: #592626;
        fill-rule: evenodd;
      }
    </style>
  </defs>
  <path id="Emeryville_Crescent_State_Marine_Reserve" data-name="Emeryville Crescent State Marine Reserve" class="cls-1" d="M158.915,335.566c-9.178.467-11.355,0.545-21.31,0.545L137.449,322.5h18.2l0.545-.466,0.466-8.789-0.389-.466-18.821.311V300.724c8.789,0,10.577,0,19.988.233l0.389-.467,0.544-9.022-0.389-.311H123.839l-0.467.467c0.467,7.544.622,10.422,0.622,31.265,0,9.8-.155,14.7-0.389,22.866l0.389,0.311h34.221l0.622-.467,0.544-9.488Zm68.754,9.955c-0.389-7.233-.467-9.255-0.467-18.043v-5.833c0.078-5.211.156-10.033-2.1-13.3-3.034-4.433-8.4-4.433-9.644-4.433-6.378,0-10.655,2.878-13.766,5.056-1.089-1.789-3.034-5.056-9.256-5.056-5.133,0-8.477,2.333-12.055,4.822v-4.355l-0.7-.7c-6.067,1.167-7.778,1.478-13.222,2.255l-0.467.545c0.622,6.222,1.089,10.5,1.089,25.9,0,4.433-.078,8.944-0.078,13.377l0.389,0.466c4.978-.155,6.689-0.233,13.144-0.233l0.467-.467c-0.545-11.977-.623-15.554-0.7-29.087a9.551,9.551,0,0,1,5.366-2.178c4.822,0,4.978,5.522,4.978,12.211,0,11.277-.078,12.988-0.234,19.288l0.467,0.544c5.911-.311,7.544-0.311,12.91-0.311l0.467-.467c-0.467-7.388-.544-9.566-0.622-18.976v-2.878l-0.078-7.855a9.6,9.6,0,0,1,5.367-1.945c4.433,0,5.133,4.2,5.133,10.889,0,1.477-.078,2.955-0.078,4.433-0.078,2.644-.156,14.232-0.233,16.566l0.466,0.466c5.833-.233,7.544-0.233,12.988-0.233Zm43.479-10.966a23.763,23.763,0,0,1-12.133,3.345c-4.666,0-7.855-1.478-9.721-4.278a11,11,0,0,1-1.711-4.744l25.121-.467,0.466-.544a45.605,45.605,0,0,0-1.244-11.589c-2.722-9.177-8.711-11.044-11.355-11.666a19.933,19.933,0,0,0-5.522-.7c-12.211,0-20.3,8.011-20.3,21.466a25.891,25.891,0,0,0,1.866,10.188C241.127,346.066,251.705,347,257.3,347c6.456,0,9.255-1.167,13.377-2.8l0.467-.622,0.545-8.788Zm-23.565-13.921c0.233-2.411.777-5.678,3.733-7.544a5.968,5.968,0,0,1,8.088,1.866,9.5,9.5,0,0,1,1.167,5.367Zm55.221-3.422,2.178-12.678-0.467-.544c-0.544,0-1.089-.078-1.633-0.078-3.189,0-6.766,1.789-9.255,7.544l0.233-7.155-0.622-.622c-5.755,1.244-7.233,1.478-12.91,2.333l-0.467.467c0.467,5.833.7,9.333,0.7,20.143,0,6.378-.078,12.755-0.233,19.21l0.466,0.467c5.755-.233,7-0.311,13.222-0.233l0.389-.545c-0.311-6.3-.778-15.088-0.778-20.454,0-3.5,0-8.633,5.289-8.633a5.822,5.822,0,0,1,3.188,1.089Zm41.455-12.6-10.81.234-0.623.544c-1.322,5.366-1.633,6.533-3.5,12.6l-2.022,6.689-1.712,5.833-1.477-5.522-2.256-8.244-3.111-11.822-0.622-.466c-6.066.466-7.388,0.544-13.766,0.7l-0.389.544c2.8,7.389,10.033,26.91,14.855,41.843-3.189,8.088-3.811,9.488-7.311,17.188l0.389,0.622c1.945-.078,4.122-0.156,6.144-0.156,1.945,0,3.967.078,5.911,0.078l0.545-.467c4.277-16.8,6.377-23.332,16.643-50.4,1.167-3.111,2.334-6.144,3.422-9.178Zm25.59,40.832c2.489-7.778,3.966-12.6,5.6-17.5,2.1-6.3,5.522-16.41,7.7-22.787l-0.389-.545-10.888.234-0.545.544c-1.088,5.211-1.322,6.3-2.877,12.366l-3.967,15.322-1.944-8.4-1.478-5.989c-1.944-7.233-2.255-8.71-3.344-13.843l-0.544-.467a102.21,102.21,0,0,1-13.611.855l-0.311.623c10.344,30.643,11.2,33.52,12.911,39.9l0.544,0.544c5.055-.233,7.077-0.311,12.677-0.233Zm31.5,0.077c-0.389-5.988-.7-10.577-0.7-21.31,0-6.611.156-13.3,0.233-19.91l-0.544-.622-13.377,2.333-0.467.467c0.622,5.911.856,8.633,0.856,19.677,0,8.477-.234,13.221-0.467,19.6l0.467,0.544c5.6-.233,7.155-0.311,13.455-0.233Zm-1.244-49.308,0.233-10.578-0.467-.466-12.677,1.555-0.466.545c0.155,2.8.233,4.433,0.233,6.3,0,1.478,0,3.034-.078,4.511l0.545,0.467c5.288-.933,6.766-1.089,12.288-1.789Zm23.566,49.308c-0.389-8.944-.777-17.11-0.777-41.687,0-7.388.077-10.888,0.388-19.287L422.738,284l-13.3,2.1-0.311.467c0.777,9.488.855,12.055,1.011,24.654,0.077,4.589.077,9.177,0.077,13.766,0,8.4-.155,13.066-0.466,20.766l0.466,0.544c5.211-.233,7.311-0.311,12.989-0.233Zm22.711,0c-0.388-8.944-.777-17.11-0.777-41.687,0-7.388.077-10.888,0.389-19.287L445.449,284l-13.3,2.1-0.311.467c0.777,9.488.855,12.055,1.011,24.654,0.078,4.589.078,9.177,0.078,13.766,0,8.4-.156,13.066-0.467,20.766l0.467,0.544c5.21-.233,7.31-0.311,12.988-0.233Zm43.555-10.966A23.763,23.763,0,0,1,477.8,337.9c-4.666,0-7.855-1.478-9.721-4.278a11.016,11.016,0,0,1-1.712-4.744l25.121-.467,0.467-.544a45.605,45.605,0,0,0-1.244-11.589c-2.722-9.177-8.711-11.044-11.355-11.666a19.938,19.938,0,0,0-5.522-.7c-12.211,0-20.3,8.011-20.3,21.466a25.891,25.891,0,0,0,1.866,10.188c4.511,10.5,15.088,11.433,20.688,11.433,6.455,0,9.255-1.167,13.377-2.8l0.467-.622,0.544-8.788Zm-23.566-13.921c0.234-2.411.778-5.678,3.734-7.544a5.968,5.968,0,0,1,8.088,1.866,9.5,9.5,0,0,1,1.167,5.367ZM91.559,425.478a19.007,19.007,0,0,1-12.211,4.355c-8.866,0-15.088-6.611-15.088-17.655,0-6.688,2.333-18.432,15.01-18.432a16.679,16.679,0,0,1,10.966,3.733l0.7-.156,0.7-10.732-0.311-.389a37.52,37.52,0,0,0-14.388-2.878c-20.144,0-27.143,15.555-27.143,29.165,0,14.933,9.1,28.077,28.076,28.077a33,33,0,0,0,13.3-2.722l0.389-.467L92.1,425.789Zm29.09-14.933,2.177-12.677-0.466-.545c-0.545,0-1.089-.077-1.634-0.077-3.188,0-6.766,1.788-9.255,7.544l0.234-7.156-0.622-.622c-5.756,1.245-7.233,1.478-12.911,2.333l-0.467.467c0.467,5.833.7,9.333,0.7,20.144,0,6.377-.078,12.755-0.233,19.21l0.467,0.466c5.755-.233,7-0.311,13.221-0.233l0.389-.544c-0.311-6.3-.778-15.088-0.778-20.455,0-3.5,0-8.633,5.289-8.633a5.826,5.826,0,0,1,3.189,1.089Zm41.221,17.344a23.772,23.772,0,0,1-12.132,3.344c-4.667,0-7.856-1.478-9.722-4.278a11,11,0,0,1-1.711-4.744l25.121-.467,0.466-.544a45.548,45.548,0,0,0-1.244-11.588c-2.722-9.178-8.711-11.044-11.355-11.666a19.9,19.9,0,0,0-5.522-.7c-12.21,0-20.3,8.01-20.3,21.465a25.875,25.875,0,0,0,1.867,10.189c4.511,10.5,15.088,11.432,20.688,11.432,6.455,0,9.255-1.166,13.377-2.8l0.466-.623,0.545-8.788Zm-23.565-13.922c0.233-2.411.778-5.677,3.733-7.544a5.967,5.967,0,0,1,8.088,1.867,9.5,9.5,0,0,1,1.167,5.366Zm49.077-1.4c-2.644-.933-4.744-1.789-4.744-3.966,0-.934.622-3.5,5.444-3.5a16.876,16.876,0,0,1,9.722,3.266l0.7-.233,0.778-8.477-0.389-.467a39.609,39.609,0,0,0-11.9-1.944c-3.81,0-11.432.311-15.477,6.144a11.691,11.691,0,0,0-2.1,6.844c0,8.322,6.455,10.81,10.11,12.21l2.956,1.089c2.1,0.7,5.522,1.867,5.522,4.667,0,1.944-1.789,4.044-6.145,4.044a19.461,19.461,0,0,1-8.244-2.178,17.23,17.23,0,0,1-3.111-2.177l-0.7.311c-0.155,4.044-.233,4.9-0.544,8.788l0.389,0.7c3.811,1.4,7.077,2.644,12.755,2.644,5.911,0,17.577-1.088,18.977-12.21a13.316,13.316,0,0,0,.077-1.711c0-8.555-5.988-10.811-10.266-12.444ZM238.715,428.2a13.856,13.856,0,0,1-8.089,2.488c-8.788,0-10.577-7.31-10.577-11.977,0-5.677,2.489-12.21,10.033-12.21,3.422,0,5.289,1.244,7.622,2.8l0.778-.234c0.311-4.122.389-5.211,1.011-9.333l-0.389-.466a32.334,32.334,0,0,0-10.889-2.022c-18.276,0-21.854,13.843-21.854,21.776,0,8.944,4.666,21.077,22.166,21.077a32.575,32.575,0,0,0,10.032-1.711l0.467-.467,0.311-9.332Zm41.378-.311a23.779,23.779,0,0,1-12.133,3.344c-4.667,0-7.855-1.478-9.722-4.278a11,11,0,0,1-1.711-4.744l25.121-.467,0.467-.544a45.6,45.6,0,0,0-1.245-11.588c-2.722-9.178-8.71-11.044-11.355-11.666a19.9,19.9,0,0,0-5.522-.7c-12.21,0-20.3,8.01-20.3,21.465a25.893,25.893,0,0,0,1.867,10.189c4.511,10.5,15.088,11.432,20.688,11.432,6.455,0,9.255-1.166,13.377-2.8l0.467-.623,0.544-8.788Zm-23.566-13.922c0.233-2.411.778-5.677,3.733-7.544a5.969,5.969,0,0,1,8.089,1.867,9.5,9.5,0,0,1,1.166,5.366Zm70.854,24.888c-0.389-6.844-.389-9.022-0.544-16.644v-6.066c-0.078-7.467-.156-11.044-2.1-14.233-2.411-4.044-6.844-4.666-9.644-4.666-4.744,0-8.866,2.488-12.444,4.588l0.156-4.277-0.778-.545c-5.989,1.245-7.311,1.478-13.144,2.256l-0.466.544a216.425,216.425,0,0,1,1.088,24.343c0,4.978-.077,9.955-0.155,14.933l0.466,0.467c5.6-.234,6.767-0.234,12.989-0.234l0.466-.466c-0.466-11.977-.544-15.011-0.622-28.932,1.633-1.089,3.5-2.411,5.989-2.411,4.277,0,4.666,4.588,4.9,7.388,0.155,2.567.233,13.222,0.233,16.177,0,2.645-.078,5.367-0.078,8.011l0.467,0.467c5.133-.156,6.455-0.234,12.677-0.234Zm30.646-8.4a11.68,11.68,0,0,1-3.578.7c-3.967,0-4.278-2.489-4.433-3.655a88.88,88.88,0,0,1-.156-9.411l0.156-10.966,7,0.311,0.467-.467,0.778-8.321-0.467-.467h-7.777l0.233-13.066-0.544-.467c-5.289,1.556-6.689,1.945-12.211,3.344l-0.311.545,0.078,9.722-4.2-.156-0.467.389-0.7,8.322,0.467,0.466,4.9-.155-0.233,12.366c-0.078,1.944-.156,3.889-0.156,5.911,0,7.155.156,14.855,12.288,14.855a45.19,45.19,0,0,0,8.167-.934l0.544-.544,0.778-8.011Zm50.944-24.5c-6.533-2.722-9.955-4.122-9.955-7.622,0-2.411,2.255-5.444,7.388-5.444,5.911,0,9.411,2.411,12.289,4.356l0.7-.312,0.622-10.188-0.389-.544a31.855,31.855,0,0,0-14.388-2.878c-14.622,0-19.677,8.244-19.677,16.566,0,9.411,7.311,12.833,11.666,14.933l2.567,1.166c5.366,2.256,9.488,4.2,9.488,8.322,0,2.955-2.567,6.455-9.333,6.455a19.839,19.839,0,0,1-13.3-4.9l-0.778.234-0.544,10.966,0.466,0.622c0.856,0.311,1.711.7,2.567,0.933a38.707,38.707,0,0,0,12.21,1.945c2.334,0,8.244-.234,12.911-2.411,6.533-3.189,9.333-9.1,9.333-15.711a15.415,15.415,0,0,0-5.833-12.366,31.556,31.556,0,0,0-5.989-3.344Zm43.011,24.5a11.669,11.669,0,0,1-3.578.7c-3.966,0-4.277-2.489-4.433-3.655a89.18,89.18,0,0,1-.155-9.411l0.155-10.966,7,0.311,0.467-.467,0.777-8.321-0.466-.467h-7.778l0.234-13.066-0.545-.467c-5.288,1.556-6.688,1.945-12.21,3.344l-0.311.545,0.077,9.722-4.2-.156-0.467.389-0.7,8.322,0.467,0.466,4.9-.155-0.233,12.366c-0.078,1.944-.155,3.889-0.155,5.911,0,7.155.155,14.855,12.288,14.855a45.168,45.168,0,0,0,8.166-.934l0.545-.544,0.777-8.011Zm40.366-14.233c0.078-7,.078-10.032-1.944-13.3-1.556-2.489-4.667-5.6-14.622-5.6a47.333,47.333,0,0,0-15.243,2.567l-0.467.622-0.389,8.477,0.622,0.312c2.722-1.089,7.778-3.111,12.988-3.111,2.878,0,4.045.466,5.056,1.477a4.9,4.9,0,0,1,1.011,3.345c-9.333,1.244-13.688,2.1-18.355,4.977a12.437,12.437,0,0,0-5.833,10.655c0,8.322,5.989,13.688,13.611,13.688a16.074,16.074,0,0,0,10.81-4.122v2.878l0.467,0.544c5.6-.233,7.311-0.311,12.366-0.233l0.389-.544c-0.545-7.622-.545-9.567-0.545-16.877Zm-12.833,12.367a12.6,12.6,0,0,1-6.3,2.022c-2.8,0-5.133-1.478-5.133-4.745,0-5.133,6.144-5.988,11.432-6.688v9.411Zm43.712,1.866a11.68,11.68,0,0,1-3.578.7c-3.967,0-4.278-2.489-4.433-3.655a88.88,88.88,0,0,1-.156-9.411l0.156-10.966,7,0.311,0.467-.467,0.778-8.321-0.467-.467h-7.777l0.233-13.066-0.544-.467c-5.289,1.556-6.689,1.945-12.211,3.344l-0.311.545,0.078,9.722-4.2-.156-0.467.389-0.7,8.322,0.467,0.466,4.9-.155-0.233,12.366c-0.078,1.944-.156,3.889-0.156,5.911,0,7.155.156,14.855,12.288,14.855a45.19,45.19,0,0,0,8.167-.934l0.544-.544,0.778-8.011Zm38.732-2.566a23.773,23.773,0,0,1-12.133,3.344c-4.666,0-7.855-1.478-9.721-4.278a11,11,0,0,1-1.711-4.744l25.121-.467,0.466-.544a45.548,45.548,0,0,0-1.244-11.588c-2.722-9.178-8.711-11.044-11.355-11.666a19.9,19.9,0,0,0-5.522-.7c-12.211,0-20.3,8.01-20.3,21.465a25.875,25.875,0,0,0,1.867,10.189c4.51,10.5,15.088,11.432,20.687,11.432,6.456,0,9.256-1.166,13.378-2.8l0.466-.623,0.545-8.788Zm-23.565-13.922c0.233-2.411.777-5.677,3.733-7.544a5.967,5.967,0,0,1,8.088,1.867,9.5,9.5,0,0,1,1.167,5.366ZM88.136,477.591c-8.088.233-9.411,0.233-18.044,0.233l-0.467.467-3.578,12.6-3.111,11.277L59.282,515.7,55.86,501.778l-2.178-8.788-3.889-14.933-0.389-.466c-8.322.233-9.722,0.233-18.432,0.233l-0.467.467c-0.778,23.254-1.089,29.243-2.8,54.208l0.389,0.467c4.978-.234,6.455-0.311,10.966-0.234l0.467-.466,0.233-14.855,0.467-15.088,0.311-14.7L43.96,501.39l2.956,11.043L52.126,532.5l0.467,0.467c4.822-.234,6.144-0.311,11.588-0.234l0.467-.466L69.159,515.7l3.111-11.355,4.355-16.333v13.922l0.156,11.9V532.5l0.389,0.467c5.366-.234,7.466-0.311,13.455-0.234l0.389-.466c-0.467-8.866-1.011-17.81-1.322-26.754-0.233-4.9-.389-9.8-0.622-14.7-0.389-7.233-.467-8.166-0.467-12.755Zm46.279,31.965c0.078-7,.078-10.033-1.945-13.3-1.555-2.488-4.666-5.6-14.621-5.6a47.337,47.337,0,0,0-15.244,2.566l-0.466.622-0.389,8.478,0.622,0.311c2.722-1.089,7.777-3.111,12.988-3.111,2.878,0,4.044.467,5.055,1.478a4.9,4.9,0,0,1,1.012,3.344c-9.333,1.244-13.689,2.1-18.355,4.977a12.439,12.439,0,0,0-5.833,10.656c0,8.321,5.988,13.688,13.61,13.688a16.082,16.082,0,0,0,10.811-4.122v2.877l0.466,0.545c5.6-.234,7.311-0.311,12.367-0.234l0.388-.544c-0.544-7.622-.544-9.566-0.544-16.877Zm-12.833,12.366a12.6,12.6,0,0,1-6.3,2.022c-2.8,0-5.133-1.478-5.133-4.744,0-5.133,6.144-5.989,11.433-6.689v9.411Zm44.411-18.044,2.178-12.677-0.467-.544c-0.544,0-1.089-.078-1.633-0.078-3.189,0-6.766,1.789-9.255,7.544l0.233-7.155-0.622-.622c-5.755,1.244-7.233,1.477-12.911,2.333l-0.466.466c0.466,5.834.7,9.333,0.7,20.144,0,6.377-.078,12.755-0.234,19.21l0.467,0.467c5.755-.234,7-0.311,13.222-0.234l0.389-.544c-0.312-6.3-.778-15.088-0.778-20.455,0-3.5,0-8.632,5.288-8.632a5.822,5.822,0,0,1,3.189,1.088Zm20.767,28.31c-0.389-5.989-.7-10.577-0.7-21.31,0-6.611.156-13.3,0.234-19.91l-0.545-.622-13.377,2.333-0.467.466c0.623,5.911.856,8.633,0.856,19.677,0,8.478-.233,13.222-0.467,19.6l0.467,0.545c5.6-.234,7.155-0.311,13.455-0.234Zm-1.244-49.309,0.233-10.577-0.466-.467-12.678,1.556-0.466.544c0.155,2.8.233,4.433,0.233,6.3,0,1.478,0,3.033-.078,4.511l0.545,0.467c5.288-.934,6.766-1.089,12.288-1.789ZM233.5,532.188c-0.388-6.844-.388-9.022-0.544-16.644v-6.066c-0.078-7.466-.155-11.044-2.1-14.233-2.411-4.044-6.844-4.666-9.644-4.666-4.744,0-8.866,2.489-12.444,4.589l0.156-4.278-0.778-.544c-5.988,1.244-7.311,1.477-13.144,2.255l-0.466.544a216.4,216.4,0,0,1,1.089,24.344c0,4.977-.078,9.955-0.156,14.932l0.467,0.467c5.6-.233,6.766-0.233,12.988-0.233l0.467-.467c-0.467-11.977-.545-15.01-0.623-28.932,1.634-1.089,3.5-2.411,5.989-2.411,4.278,0,4.666,4.589,4.9,7.389,0.155,2.566.233,13.221,0.233,16.177,0,2.644-.078,5.366-0.078,8.01l0.467,0.467c5.133-.156,6.455-0.233,12.677-0.233Zm43.4-10.966a23.779,23.779,0,0,1-12.133,3.344c-4.667,0-7.855-1.478-9.722-4.277a11.018,11.018,0,0,1-1.711-4.745l25.121-.466,0.467-.545a45.6,45.6,0,0,0-1.245-11.588c-2.722-9.177-8.71-11.044-11.355-11.666a19.9,19.9,0,0,0-5.522-.7c-12.21,0-20.3,8.011-20.3,21.466a25.891,25.891,0,0,0,1.867,10.188c4.511,10.5,15.088,11.433,20.688,11.433,6.455,0,9.255-1.167,13.377-2.8l0.467-.622,0.544-8.789ZM253.338,507.3c0.233-2.411.778-5.677,3.733-7.544a5.971,5.971,0,0,1,8.089,1.867,9.5,9.5,0,0,1,1.166,5.366Zm73.033,4.045a236.346,236.346,0,0,1,11.355,21.387l0.622,0.389c2.411-.155,4.745-0.311,7.156-0.389s4.9-.155,7.31-0.155l0.467-.933c-2.955-3.811-3.811-4.978-9.411-13.922-2.488-3.966-3.733-6.066-5.677-9.488,3.5-1.556,10.577-4.822,10.577-14.7,0-3.422-.933-10.5-7.311-13.843-4.044-2.1-8.244-2.178-17.343-2.023l-5.444.078h-9.489l-0.389.467c0.311,7.855.622,15.944,0.622,37.1,0,7.233-.077,10.733-0.311,17.188l0.467,0.467c5.677-.234,6.922-0.311,13.3-0.234l0.467-.466c-0.622-9.022-.7-11.511-0.778-20.766Zm-3.655-24.188c1.089-.078,2.177-0.078,3.266-0.078,3.033,0,9.022,0,9.022,6.844a7.564,7.564,0,0,1-3.422,6.844c-2.178,1.322-4.978,1.478-8.866,1.556V487.157Zm69.221,34.065a23.773,23.773,0,0,1-12.133,3.344c-4.666,0-7.855-1.478-9.721-4.277a11.02,11.02,0,0,1-1.712-4.745l25.121-.466,0.467-.545a45.6,45.6,0,0,0-1.244-11.588c-2.722-9.177-8.711-11.044-11.355-11.666a19.9,19.9,0,0,0-5.522-.7c-12.211,0-20.3,8.011-20.3,21.466a25.891,25.891,0,0,0,1.866,10.188c4.511,10.5,15.088,11.433,20.688,11.433,6.455,0,9.255-1.167,13.377-2.8l0.467-.622,0.544-8.789ZM368.371,507.3c0.234-2.411.778-5.677,3.734-7.544a5.97,5.97,0,0,1,8.088,1.867,9.5,9.5,0,0,1,1.167,5.366Zm49.078-1.4c-2.644-.933-4.744-1.788-4.744-3.966,0-.933.622-3.5,5.444-3.5a16.874,16.874,0,0,1,9.722,3.267l0.7-.234,0.777-8.477-0.388-.467a39.621,39.621,0,0,0-11.9-1.944c-3.811,0-11.433.311-15.477,6.144a11.691,11.691,0,0,0-2.1,6.844c0,8.322,6.455,10.811,10.111,12.211l2.955,1.089c2.1,0.7,5.522,1.866,5.522,4.666,0,1.944-1.789,4.044-6.144,4.044a19.469,19.469,0,0,1-8.244-2.177,17.236,17.236,0,0,1-3.111-2.178l-0.7.311c-0.156,4.044-.233,4.9-0.544,8.788l0.388,0.7c3.811,1.4,7.078,2.645,12.755,2.645,5.911,0,17.577-1.089,18.977-12.211a13.139,13.139,0,0,0,.078-1.711c0-8.555-5.989-10.81-10.266-12.444ZM472.9,521.222a23.779,23.779,0,0,1-12.133,3.344c-4.667,0-7.855-1.478-9.722-4.277a11.018,11.018,0,0,1-1.711-4.745l25.121-.466,0.467-.545a45.6,45.6,0,0,0-1.245-11.588c-2.722-9.177-8.71-11.044-11.355-11.666a19.9,19.9,0,0,0-5.522-.7c-12.21,0-20.3,8.011-20.3,21.466a25.891,25.891,0,0,0,1.867,10.188c4.511,10.5,15.088,11.433,20.688,11.433,6.455,0,9.255-1.167,13.377-2.8l0.467-.622,0.544-8.789ZM449.338,507.3c0.233-2.411.778-5.677,3.733-7.544a5.971,5.971,0,0,1,8.089,1.867,9.5,9.5,0,0,1,1.166,5.366Zm55.222-3.422,2.177-12.677-0.466-.544c-0.545,0-1.089-.078-1.633-0.078-3.189,0-6.767,1.789-9.256,7.544l0.234-7.155-0.622-.622c-5.756,1.244-7.233,1.477-12.911,2.333l-0.467.466c0.467,5.834.7,9.333,0.7,20.144,0,6.377-.077,12.755-0.233,19.21l0.467,0.467c5.755-.234,7-0.311,13.221-0.234l0.389-.544c-0.311-6.3-.778-15.088-0.778-20.455,0-3.5,0-8.632,5.289-8.632a5.825,5.825,0,0,1,3.189,1.088Zm28.155,28.232c2.489-7.777,3.967-12.6,5.6-17.5,2.1-6.3,5.522-16.41,7.7-22.788l-0.389-.544-10.888.233-0.545.545c-1.089,5.21-1.322,6.3-2.878,12.366l-3.966,15.321-1.944-8.4-1.478-5.989c-1.944-7.233-2.256-8.711-3.344-13.844l-0.545-.466a102.353,102.353,0,0,1-13.61.855l-0.311.622c10.344,30.643,11.2,33.521,12.91,39.9l0.545,0.545c5.055-.234,7.077-0.311,12.677-0.234Zm51.955-10.888a23.772,23.772,0,0,1-12.132,3.344c-4.667,0-7.856-1.478-9.722-4.277a11,11,0,0,1-1.711-4.745l25.121-.466,0.466-.545a45.553,45.553,0,0,0-1.244-11.588c-2.722-9.177-8.711-11.044-11.355-11.666a19.9,19.9,0,0,0-5.522-.7c-12.21,0-20.3,8.011-20.3,21.466a25.873,25.873,0,0,0,1.867,10.188c4.511,10.5,15.088,11.433,20.688,11.433,6.455,0,9.255-1.167,13.377-2.8l0.466-.622,0.545-8.789ZM561.105,507.3c0.233-2.411.778-5.677,3.733-7.544a5.97,5.97,0,0,1,8.088,1.867,9.5,9.5,0,0,1,1.167,5.366Z"/>
</svg>
