<svg xmlns="http://www.w3.org/2000/svg" width="612" height="817" viewBox="0 0 612 817">
  <defs>
    <style>
      .cls-1 {
        fill: #592626;
        fill-rule: evenodd;
      }
    </style>
  </defs>
  <path id="San_Timoteo_Canyon_Park_Property" data-name="San Timoteo Canyon Park Property" class="cls-1" d="M107.582,311.623c-6.533-2.722-9.955-4.122-9.955-7.622,0-2.411,2.255-5.444,7.389-5.444,5.91,0,9.41,2.411,12.288,4.355l0.7-.311,0.622-10.188-0.389-.545a31.857,31.857,0,0,0-14.388-2.877c-14.622,0-19.677,8.244-19.677,16.566,0,9.41,7.311,12.832,11.666,14.932l2.567,1.167c5.366,2.255,9.488,4.2,9.488,8.322,0,2.955-2.566,6.455-9.333,6.455a19.84,19.84,0,0,1-13.3-4.9l-0.778.233-0.544,10.967,0.467,0.622c0.856,0.311,1.711.7,2.567,0.933a38.748,38.748,0,0,0,12.21,1.944c2.334,0,8.244-.233,12.911-2.411,6.533-3.188,9.333-9.1,9.333-15.71a15.415,15.415,0,0,0-5.833-12.366A31.446,31.446,0,0,0,109.6,312.4Zm55.844,10.266c0.078-7,.078-10.033-1.944-13.3-1.556-2.489-4.667-5.6-14.622-5.6a47.308,47.308,0,0,0-15.244,2.567l-0.466.622-0.389,8.477,0.622,0.311c2.722-1.089,7.777-3.111,12.988-3.111,2.878,0,4.045.467,5.056,1.478a4.908,4.908,0,0,1,1.011,3.344c-9.333,1.245-13.689,2.1-18.355,4.978a12.437,12.437,0,0,0-5.833,10.655c0,8.322,5.989,13.688,13.61,13.688a16.082,16.082,0,0,0,10.811-4.122v2.878l0.467,0.544c5.6-.233,7.31-0.311,12.366-0.233l0.389-.545c-0.545-7.621-.545-9.566-0.545-16.877Zm-12.833,12.366a12.6,12.6,0,0,1-6.3,2.022c-2.8,0-5.133-1.477-5.133-4.744,0-5.133,6.145-5.988,11.433-6.688v9.41Zm60.044,10.266c-0.389-6.844-.389-9.021-0.545-16.643v-6.067c-0.077-7.466-.155-11.044-2.1-14.232-2.411-4.045-6.845-4.667-9.644-4.667-4.745,0-8.867,2.489-12.444,4.589l0.155-4.278-0.777-.544c-5.989,1.244-7.311,1.478-13.144,2.255l-0.467.545a216.367,216.367,0,0,1,1.089,24.343c0,4.978-.078,9.955-0.156,14.933l0.467,0.466c5.6-.233,6.766-0.233,12.988-0.233l0.467-.467c-0.467-11.977-.545-15.01-0.622-28.932,1.633-1.088,3.5-2.411,5.988-2.411,4.278,0,4.667,4.589,4.9,7.389,0.156,2.567.233,13.222,0.233,16.177,0,2.644-.077,5.366-0.077,8.011l0.466,0.466c5.133-.155,6.455-0.233,12.677-0.233Zm66.111-44.1,0.467-.388,0.544-9.722-0.389-.233h-38.5l-0.544.466-0.545,9.566,0.389,0.467,12.677-.311c0.078,20.377.078,25.277-.544,44.564l0.467,0.467c5.755-.233,7.31-0.311,13.766-0.311l0.466-.467c-0.389-10.888-.544-21.776-0.544-32.742,0-4.278.078-6.689,0.233-11.667Zm18.512,44.1c-0.389-5.988-.7-10.577-0.7-21.31,0-6.611.156-13.3,0.234-19.91l-0.545-.622-13.377,2.333-0.467.467c0.623,5.911.856,8.633,0.856,19.677,0,8.477-.233,13.221-0.467,19.6l0.467,0.544c5.6-.233,7.155-0.311,13.455-0.233Zm-1.244-49.308,0.233-10.578-0.466-.466-12.678,1.555-0.466.545c0.155,2.8.233,4.433,0.233,6.3,0,1.478,0,3.034-.078,4.511l0.545,0.467c5.288-.933,6.766-1.089,12.288-1.789Zm70.62,49.308c-0.389-7.233-.467-9.255-0.467-18.043v-5.833c0.078-5.211.156-10.033-2.1-13.3-3.033-4.433-8.4-4.433-9.644-4.433-6.377,0-10.655,2.878-13.766,5.056-1.089-1.789-3.033-5.056-9.255-5.056-5.133,0-8.477,2.333-12.055,4.822v-4.355l-0.7-.7c-6.066,1.167-7.777,1.478-13.221,2.255l-0.467.545c0.622,6.222,1.089,10.5,1.089,25.9,0,4.433-.078,8.944-0.078,13.377l0.389,0.466c4.977-.155,6.688-0.233,13.144-0.233l0.466-.467c-0.544-11.977-.622-15.554-0.7-29.087a9.554,9.554,0,0,1,5.367-2.178c4.822,0,4.977,5.522,4.977,12.211,0,11.277-.077,12.988-0.233,19.288l0.467,0.544c5.91-.311,7.544-0.311,12.91-0.311l0.467-.467c-0.467-7.388-.545-9.566-0.622-18.976v-2.878l-0.078-7.855a9.6,9.6,0,0,1,5.366-1.945c4.433,0,5.133,4.2,5.133,10.889,0,1.477-.077,2.955-0.077,4.433-0.078,2.644-.156,14.232-0.234,16.566l0.467,0.466c5.833-.233,7.544-0.233,12.988-0.233Zm48.534-20.143c0-3.033,0-15.633-10.888-19.91a27.961,27.961,0,0,0-9.489-1.478c-13.532,0-21.154,7.233-21.154,21.543,0,4.978.778,10.033,3.655,14.233,2.022,3.033,5.833,7.233,16.955,7.233C408.737,346,413.17,336.044,413.17,324.378Zm-13.455-.078c0,6.378-.855,13.455-7.311,13.455a6.288,6.288,0,0,1-4.355-1.789c-1.322-1.322-2.8-3.966-2.8-11.51,0-2.256,0-7.233,1.556-9.955a6.439,6.439,0,0,1,5.677-3.5,6.538,6.538,0,0,1,4.978,2.411C399.326,315.667,399.715,320.1,399.715,324.3Zm42.623,11.822a11.68,11.68,0,0,1-3.578.7c-3.966,0-4.278-2.489-4.433-3.656a89.4,89.4,0,0,1-.156-9.41l0.156-10.966,7,0.311,0.466-.467,0.778-8.322-0.467-.466h-7.777l0.233-13.066-0.544-.467c-5.289,1.555-6.689,1.944-12.211,3.344l-0.311.545,0.078,9.721-4.2-.155-0.466.389-0.7,8.321,0.466,0.467,4.9-.155-0.233,12.366c-0.078,1.944-.156,3.888-0.156,5.91,0,7.156.156,14.855,12.288,14.855a45.17,45.17,0,0,0,8.167-.933l0.544-.544,0.778-8.011Zm38.732-2.567a23.761,23.761,0,0,1-12.132,3.345c-4.667,0-7.856-1.478-9.722-4.278a11,11,0,0,1-1.711-4.744l25.121-.467,0.466-.544a45.56,45.56,0,0,0-1.244-11.589c-2.722-9.177-8.711-11.044-11.355-11.666a19.933,19.933,0,0,0-5.522-.7c-12.21,0-20.3,8.011-20.3,21.466a25.873,25.873,0,0,0,1.867,10.188C451.05,345.066,461.627,346,467.227,346c6.455,0,9.255-1.167,13.377-2.8l0.466-.622,0.545-8.788Zm-23.565-13.921c0.233-2.411.778-5.678,3.733-7.544a5.968,5.968,0,0,1,8.088,1.866,9.5,9.5,0,0,1,1.167,5.367Zm72.332,4.744c0-3.033,0-15.633-10.889-19.91a27.956,27.956,0,0,0-9.488-1.478c-13.533,0-21.155,7.233-21.155,21.543,0,4.978.778,10.033,3.656,14.233,2.022,3.033,5.833,7.233,16.955,7.233C525.4,346,529.837,336.044,529.837,324.378Zm-13.455-.078c0,6.378-.856,13.455-7.311,13.455a6.288,6.288,0,0,1-4.355-1.789c-1.322-1.322-2.8-3.966-2.8-11.51,0-2.256,0-7.233,1.555-9.955a6.442,6.442,0,0,1,5.678-3.5,6.536,6.536,0,0,1,4.977,2.411C515.993,315.667,516.382,320.1,516.382,324.3ZM123.915,424.478a19.01,19.01,0,0,1-12.211,4.355c-8.866,0-15.088-6.611-15.088-17.655,0-6.688,2.333-18.432,15.01-18.432a16.678,16.678,0,0,1,10.966,3.733l0.7-.156,0.7-10.732-0.311-.389a37.519,37.519,0,0,0-14.388-2.878c-20.144,0-27.143,15.555-27.143,29.165,0,14.933,9.1,28.077,28.076,28.077a33,33,0,0,0,13.3-2.722l0.389-.467,0.544-11.588Zm41.222-9.256c0.078-7,.078-10.032-1.944-13.3-1.556-2.489-4.667-5.6-14.622-5.6a47.345,47.345,0,0,0-15.244,2.567l-0.466.622-0.389,8.477,0.622,0.312c2.722-1.089,7.778-3.111,12.988-3.111,2.878,0,4.045.466,5.056,1.477a4.909,4.909,0,0,1,1.011,3.345c-9.333,1.244-13.688,2.1-18.355,4.977a12.437,12.437,0,0,0-5.833,10.655c0,8.322,5.989,13.688,13.61,13.688a16.074,16.074,0,0,0,10.811-4.122v2.878l0.467,0.544c5.6-.233,7.31-0.311,12.366-0.233l0.389-.544c-0.545-7.622-.545-9.567-0.545-16.877ZM152.3,427.589a12.6,12.6,0,0,1-6.3,2.022c-2.8,0-5.133-1.478-5.133-4.745,0-5.133,6.144-5.988,11.432-6.688v9.411Zm60.044,10.266c-0.389-6.844-.389-9.022-0.544-16.644v-6.066c-0.078-7.467-.156-11.044-2.1-14.233-2.411-4.044-6.844-4.666-9.644-4.666-4.745,0-8.867,2.488-12.444,4.588l0.155-4.277-0.777-.545c-5.989,1.245-7.311,1.478-13.144,2.256l-0.467.544a216.367,216.367,0,0,1,1.089,24.343c0,4.978-.078,9.955-0.156,14.933l0.467,0.467c5.6-.234,6.766-0.234,12.988-0.234l0.467-.466c-0.467-11.977-.544-15.011-0.622-28.932,1.633-1.089,3.5-2.411,5.988-2.411,4.278,0,4.667,4.588,4.9,7.388,0.156,2.567.234,13.222,0.234,16.177,0,2.645-.078,5.367-0.078,8.011l0.466,0.467c5.133-.156,6.456-0.234,12.678-0.234Zm43.633-40.909-10.81.233-0.622.544c-1.322,5.367-1.634,6.533-3.5,12.6l-2.022,6.688-1.711,5.833-1.478-5.522-2.255-8.244-3.111-11.821-0.623-.467c-6.066.467-7.388,0.544-13.766,0.7l-0.389.544c2.8,7.389,10.033,26.91,14.855,41.843-3.188,8.088-3.811,9.488-7.31,17.188l0.388,0.622c1.945-.078,4.122-0.155,6.145-0.155,1.944,0,3.966.077,5.91,0.077l0.545-.466c4.277-16.8,6.377-23.333,16.643-50.4,1.167-3.111,2.334-6.144,3.423-9.177Zm43.711,20.765c0-3.033,0-15.632-10.888-19.91a27.956,27.956,0,0,0-9.488-1.478c-13.533,0-21.155,7.233-21.155,21.544,0,4.977.778,10.033,3.655,14.232,2.022,3.034,5.833,7.233,16.955,7.233C295.259,439.332,299.692,429.377,299.692,417.711Zm-13.455-.078c0,6.378-.855,13.455-7.31,13.455a6.3,6.3,0,0,1-4.356-1.788c-1.322-1.323-2.8-3.967-2.8-11.511,0-2.255,0-7.233,1.556-9.955a6.441,6.441,0,0,1,5.677-3.5,6.541,6.541,0,0,1,4.978,2.411C285.849,409,286.237,413.434,286.237,417.633Zm58.955,20.222c-0.388-6.844-.388-9.022-0.544-16.644v-6.066c-0.078-7.467-.156-11.044-2.1-14.233-2.411-4.044-6.844-4.666-9.644-4.666-4.744,0-8.866,2.488-12.444,4.588l0.156-4.277-0.778-.545c-5.989,1.245-7.311,1.478-13.144,2.256l-0.466.544a216.425,216.425,0,0,1,1.088,24.343c0,4.978-.077,9.955-0.155,14.933l0.467,0.467c5.6-.234,6.766-0.234,12.988-0.234l0.466-.466c-0.466-11.977-.544-15.011-0.622-28.932,1.634-1.089,3.5-2.411,5.989-2.411,4.277,0,4.666,4.588,4.9,7.388,0.155,2.567.233,13.222,0.233,16.177,0,2.645-.078,5.367-0.078,8.011l0.467,0.467c5.133-.156,6.455-0.234,12.677-0.234Zm42-54.52-9.878.156-0.466.466c0.311,10.111.544,16.877,0.544,25.821,0,9.489-.233,18.9-0.466,28.388l0.466,0.466c5.755-.233,7-0.311,13.222-0.233l0.389-.467c-0.311-8.477-.311-10.421-0.311-18.354,8.71,0.078,18.043.078,23.643-6.767a19.985,19.985,0,0,0,4.044-12.521c0-3.344-.778-10.733-7.233-14.388-4.666-2.722-11.277-2.722-17.11-2.722Zm3.5,9.411c1.711-.078,3.344-0.078,5.055-0.078,6.844,0.156,8.711,3.655,8.711,8.166,0,1.089,0,5.6-4.122,7.855-2.1,1.167-4.978,1.323-9.644,1.323V392.746Zm66.11,22.476c0.077-7,.077-10.032-1.945-13.3-1.555-2.489-4.666-5.6-14.621-5.6a47.335,47.335,0,0,0-15.244,2.567l-0.467.622-0.388,8.477,0.622,0.312c2.722-1.089,7.777-3.111,12.988-3.111,2.878,0,4.044.466,5.055,1.477a4.9,4.9,0,0,1,1.011,3.345c-9.332,1.244-13.688,2.1-18.354,4.977a12.435,12.435,0,0,0-5.833,10.655c0,8.322,5.988,13.688,13.61,13.688a16.079,16.079,0,0,0,10.811-4.122v2.878l0.466,0.544c5.6-.233,7.311-0.311,12.366-0.233l0.389-.544c-0.544-7.622-.544-9.567-0.544-16.877Zm-12.833,12.367a12.6,12.6,0,0,1-6.3,2.022c-2.8,0-5.133-1.478-5.133-4.745,0-5.133,6.144-5.988,11.433-6.688v9.411Zm44.411-18.044,2.178-12.677-0.467-.545c-0.544,0-1.089-.077-1.633-0.077-3.189,0-6.767,1.788-9.255,7.544l0.233-7.156-0.622-.622c-5.755,1.245-7.233,1.478-12.911,2.333l-0.466.467c0.466,5.833.7,9.333,0.7,20.144,0,6.377-.078,12.755-0.234,19.21l0.467,0.466c5.755-.233,7-0.311,13.222-0.233l0.388-.544c-0.311-6.3-.777-15.088-0.777-20.455,0-3.5,0-8.633,5.288-8.633a5.826,5.826,0,0,1,3.189,1.089Zm46.666,27.843c-7.311-12.366-8.089-13.766-14-24.421,5.367-7.311,5.911-8.088,11.433-15.166l-0.389-.778-12.677.156-0.777.544c-6.067,10.5-6.845,11.744-10.422,17.111V406.2c0.078-14.544.155-17.655,0.544-29.4l-0.622-.467-13.533,2.023-0.466.544c0.544,7.544.777,11.2,0.933,21.388,0.156,12.6.156,25.2,0.078,37.8l0.544,0.544c5.211-.233,6.689-0.233,12.6-0.233l0.466-.544-0.466-13.144-0.078-8.944c6.766,12.444,7.622,14.155,11.588,22.4l0.7,0.466,14-.544Zm-368.976,39.28-9.878.156-0.466.467c0.311,10.11.544,16.877,0.544,25.821,0,9.488-.233,18.9-0.467,28.387l0.467,0.467c5.755-.234,7-0.311,13.222-0.234l0.388-.466c-0.311-8.478-.311-10.422-0.311-18.355,8.711,0.078,18.044.078,23.644-6.766a20,20,0,0,0,4.044-12.522c0-3.344-.778-10.733-7.233-14.388-4.667-2.722-11.277-2.722-17.11-2.722Zm3.5,9.411c1.711-.078,3.345-0.078,5.056-0.078,6.844,0.156,8.71,3.656,8.71,8.167,0,1.088,0,5.6-4.122,7.855-2.1,1.166-4.977,1.322-9.644,1.322V486.079Zm55.533,16.8,2.178-12.677-0.467-.544c-0.544,0-1.089-.078-1.633-0.078-3.189,0-6.766,1.789-9.255,7.544l0.233-7.155-0.622-.622c-5.755,1.244-7.233,1.477-12.91,2.333l-0.467.466c0.467,5.834.7,9.333,0.7,20.144,0,6.377-.078,12.755-0.233,19.21l0.466,0.467c5.755-.234,7-0.311,13.222-0.234l0.389-.544c-0.311-6.3-.778-15.088-0.778-20.455,0-3.5,0-8.632,5.289-8.632a5.821,5.821,0,0,1,3.188,1.088Zm46.277,8.167c0-3.034,0-15.633-10.888-19.911A27.953,27.953,0,0,0,251,489.657c-13.532,0-21.154,7.233-21.154,21.543,0,4.978.778,10.033,3.655,14.233,2.022,3.033,5.833,7.233,16.955,7.233C266.948,532.666,271.381,522.711,271.381,511.045Zm-13.455-.078c0,6.377-.855,13.455-7.31,13.455a6.293,6.293,0,0,1-4.356-1.789c-1.322-1.322-2.8-3.967-2.8-11.511,0-2.255,0-7.233,1.556-9.955a6.44,6.44,0,0,1,5.677-3.5,6.541,6.541,0,0,1,4.978,2.411C257.537,502.334,257.926,506.767,257.926,510.967Zm33.756-20.844-0.622-.7a109.43,109.43,0,0,1-12.91,2.256l-0.467.544c0.856,9.255,1.167,12.833,1.167,35.232,0,9.255-.156,14.544-0.389,23.332l0.467,0.389c5.522-.233,7.155-0.311,13.066-0.233l0.466-.389-0.544-18.51c5.677-.078,13.532-0.156,19.832-6.067,4.978-4.666,6.611-11.277,6.611-16.566,0-12.366-7.544-19.832-16.255-19.832a17.118,17.118,0,0,0-10.577,3.655Zm0.156,10.578a8,8,0,0,1,4.666-1.556,6.971,6.971,0,0,1,5.445,2.333c2.411,2.645,2.8,6.611,2.8,9.255,0,4.511-1.478,8.556-4.589,10.733-2.489,1.711-5.6,1.867-8.322,1.945V500.7Zm68.443,19.521a23.772,23.772,0,0,1-12.132,3.344c-4.667,0-7.855-1.478-9.722-4.277a11,11,0,0,1-1.711-4.745l25.121-.466,0.467-.545a45.6,45.6,0,0,0-1.245-11.588c-2.722-9.177-8.711-11.044-11.355-11.666a19.9,19.9,0,0,0-5.522-.7c-12.21,0-20.3,8.011-20.3,21.466a25.873,25.873,0,0,0,1.867,10.188c4.511,10.5,15.088,11.433,20.688,11.433,6.455,0,9.255-1.167,13.377-2.8l0.466-.622,0.545-8.789ZM336.716,506.3c0.233-2.411.778-5.677,3.733-7.544a5.971,5.971,0,0,1,8.089,1.867,9.507,9.507,0,0,1,1.166,5.366Zm55.222-3.422,2.177-12.677-0.466-.544c-0.545,0-1.089-.078-1.634-0.078-3.188,0-6.766,1.789-9.255,7.544l0.234-7.155-0.623-.622c-5.755,1.244-7.233,1.477-12.91,2.333l-0.467.466c0.467,5.834.7,9.333,0.7,20.144,0,6.377-.078,12.755-0.233,19.21l0.467,0.467c5.755-.234,7-0.311,13.221-0.234l0.389-.544c-0.311-6.3-.778-15.088-0.778-20.455,0-3.5,0-8.632,5.289-8.632a5.825,5.825,0,0,1,3.189,1.088Zm30.1,19.91a11.68,11.68,0,0,1-3.578.7c-3.966,0-4.278-2.488-4.433-3.655a89.421,89.421,0,0,1-.156-9.411l0.156-10.966,7,0.311,0.466-.466,0.778-8.322-0.467-.467h-7.777l0.233-13.066-0.544-.466c-5.289,1.555-6.689,1.944-12.211,3.344l-0.311.544,0.078,9.722-4.2-.156-0.467.389-0.7,8.322,0.466,0.467,4.9-.156-0.233,12.366c-0.078,1.945-.156,3.889-0.156,5.911,0,7.155.156,14.855,12.288,14.855a45.26,45.26,0,0,0,8.167-.933l0.544-.545,0.778-8.01Zm40.521-32.509-10.81.233-0.623.545c-1.322,5.366-1.633,6.533-3.5,12.6l-2.023,6.689-1.711,5.833-1.477-5.522-2.256-8.244-3.111-11.822-0.622-.467c-6.066.467-7.388,0.545-13.766,0.7l-0.389.545c2.8,7.388,10.033,26.91,14.855,41.842-3.189,8.089-3.811,9.489-7.311,17.188l0.389,0.622c1.945-.077,4.122-0.155,6.144-0.155,1.945,0,3.967.078,5.911,0.078l0.545-.467c4.277-16.8,6.377-23.332,16.643-50.4,1.167-3.111,2.333-6.144,3.422-9.177Z"/>
</svg>
