<svg xmlns="http://www.w3.org/2000/svg" width="1000" height="1000" viewBox="0 0 1000 1000">
  <path fill="currentColor" d="M500 0A500 500 0 0 0 0 500c0 222 144 408 342 475 25 4 34-11 34-25v-93c-126 24-158-30-169-58-5-15-29-59-51-70-17-10-43-34-1-34 40-1 68 36 77 51 45 76 118 55 146 41 5-32 18-54 32-66-111-13-227-56-227-247 0-55 19-100 50-135-4-12-22-64 5-132 0 0 42-14 138 51a464 464 0 0 1 125-17c43 0 85 6 125 17 96-65 138-51 138-51 27 68 9 120 5 132a193 193 0 0 1 51 135c0 192-117 234-228 247 18 15 34 46 34 92l-1 137c0 14 10 29 34 25a501 501 0 0 0 341-475C1000 224 776 0 500 0z"/>
</svg>
