<svg
  xmlns="http://www.w3.org/2000/svg"
  xmlns:xlink="http://www.w3.org/1999/xlink" viewBox="0 0 180 180" shape-rendering="geometricPrecision" text-rendering="geometricPrecision">
  <ellipse rx="90" ry="90" transform="translate(90 90)" fill="#FFF" stroke-width="0"/>
  <g transform="translate(43.8 23.8)">
    <path d="M60.2,2.2C55.8,0.8,51,0,46.1,0C32,0,19.3,6.4,10.8,16.5L32.6,34.8L60.2,2.2Z" fill="#002469"/>
    <path d="M10.8,16.5C4.1,24.5,0,34.9,0,46.1c0,8.7,1.7,15.7,4.6,22l28-33.3L10.8,16.5Z" fill="#803338"/>
    <path d="M46.2,28.5c9.8,0,17.7,7.9,17.7,17.7c0,4.3-1.6,8.3-4.2,11.4c0,0,13.9-16.6,27.5-32.7-5.6-10.8-15.3-19-27-22.7L32.6,34.8c3.3-3.8,8.1-6.3,13.6-6.3" fill="#5C788F"/>
    <path d="M46.2,63.8c-9.8,0-17.7-7.9-17.7-17.7c0-4.3,1.5-8.3,4.1-11.3L4.6,68.1C9.4,78.7,17.4,87.3,25.6,98L59.7,57.5c-3.3,3.9-8.1,6.3-13.5,6.3" fill="#FCC917"/>
    <path d="M59.1,109.2c15.4-24.1,33.3-35,33.3-63c0-7.7-1.9-14.9-5.2-21.3L25.6,98c2.6,3.4,5.3,7.3,7.9,11.3c9.4,14.5,6.8,23.1,12.8,23.1s3.4-8.7,12.8-23.2" fill="#337321"/>
  </g>
</svg>