<svg xmlns="http://www.w3.org/2000/svg" width="1000" height="1000" viewBox="0 0 1000 1000">
  <path fill="currentColor" d="M501 1001a501 501 0 0 0 500-500A501 501 0 0 0 501 0 501 501 0 0 0 0 501a501 501 0 0 0 501 500zm392-590c-40-25-32 5-32 5l30 23c27 23 49 34 38 68s-28 4-64 32c-34 29 43 36 45 78 4 40-40 19-62 62s-4 87-14 125-98 91-128 108-10-38 0-76-25-81-25-151-21-49-83-49c-64 0-91-34-97-99s53-132 80-153 66-43 104-21 51 42 93 42 43-15 66-32c26-17-34-38-70-34-34 2-27-21-72-38-45-19-61 17-76 23s-62 28-68 0c-4-27 25-31 57-31s4-24-6-41c-11-19-32-19-47-31s19-39 53-30 21 32 59 30 0-39 0-73 43-31 70-46c28-13 62 59 87 89 7 8 19 4 30-4 62 70 104 159 115 256-49 19-47-10-83-32zM501 21l55 2c-7 19-17 34-17 34s-13 45-45 49c-32 2-70 0-87 28s-15 76-42 48-4-29-32-59c-28-28-34-28-49-28-4 0-8-6-13-17 68-38 147-57 230-57zm-291 98c0 4 4 12 25 21 41 17 51 51 32 49-19 0-97 10-25 32 72 19 66 44 34 55s-26-34-32 10c-9 45-15 43-36 49-23 6-66 43-66 66 0 25-13 38 15 59s-9 57-23 30c-15-32-26-51-43-55-19-2-40 25 0 53s40 44 40 66 30 21 51 17c24-3 68 57 83 80a142 142 0 0 0 83 59c38 11 51 34 32 51-22 19-26 60-49 70-26 11-28 43-43 56a136 136 0 0 0-23 31 484 484 0 0 1-59-38v-10c-5-34-9-77-28-94a129 129 0 0 1-42-70c-7-27 10-70-5-97-12-28-12 0-40-41-29-38-29-38-46-70-9-17-15-44-20-72 20-125 87-233 185-307z"/>
</svg>