<?xml version="1.0" standalone="no"?>
<!DOCTYPE svg PUBLIC "-//W3C//DTD SVG 20010904//EN"
 "http://www.w3.org/TR/2001/REC-SVG-20010904/DTD/svg10.dtd">
<svg version="1.0" xmlns="http://www.w3.org/2000/svg"
 width="700.000000pt" height="700.000000pt" viewBox="0 0 700.000000 700.000000"
 preserveAspectRatio="xMidYMid meet">
<metadata>
Created by potrace 1.14, written by Peter Selinger 2001-2017
</metadata>
<g transform="translate(0.000000,700.000000) scale(0.100000,-0.100000)"
fill="#000000" stroke="none">
<path d="M3308 6995 c-2 -1 -41 -5 -88 -9 -137 -9 -323 -35 -445 -63 -11 -2
-31 -6 -45 -9 -124 -25 -343 -93 -516 -159 -117 -45 -363 -163 -449 -215 -27
-17 -58 -33 -67 -36 -10 -4 -18 -10 -18 -15 0 -5 -5 -9 -11 -9 -9 0 -197 -122
-233 -151 -6 -5 -49 -39 -96 -76 -310 -243 -604 -567 -797 -879 -203 -326
-346 -659 -433 -1004 -31 -124 -59 -268 -76 -389 -3 -25 -7 -57 -10 -71 -18
-117 -25 -528 -11 -687 17 -197 45 -373 88 -553 30 -124 116 -397 143 -455 8
-16 23 -52 34 -80 29 -73 117 -254 158 -327 20 -35 45 -78 56 -97 221 -386
593 -788 997 -1075 67 -47 124 -86 127 -86 3 0 25 -13 49 -30 24 -16 47 -30
51 -30 4 0 15 -6 23 -14 23 -19 248 -134 361 -184 260 -113 580 -207 845 -247
94 -14 175 -24 255 -31 110 -10 481 -10 590 0 142 13 146 13 265 32 461 71
941 255 1340 513 600 388 1071 955 1343 1617 44 108 106 281 117 330 2 10 14
53 25 94 20 74 55 227 64 285 3 17 8 46 11 65 3 19 7 46 10 60 4 25 10 79 24
235 4 44 6 179 5 300 -3 203 -5 245 -19 359 -13 111 -16 132 -20 146 -2 8 -7
35 -10 60 -7 55 -53 265 -64 300 -5 14 -17 52 -26 85 -90 318 -265 685 -463
975 -56 82 -194 265 -211 280 -3 3 -34 37 -67 75 -167 190 -409 406 -599 535
-27 18 -52 36 -55 39 -3 3 -14 12 -25 18 -343 212 -550 311 -900 426 -66 22
-309 84 -360 91 -22 4 -78 13 -125 21 -96 15 -173 26 -240 31 -55 5 -498 13
-502 9z"/>
</g>
</svg>
