<svg xmlns="http://www.w3.org/2000/svg" width="612" height="817" viewBox="0 0 612 817">
  <defs>
    <style>
      .cls-1 {
        fill: #592626;
        fill-rule: evenodd;
      }
    </style>
  </defs>
  <path id="Westport-Union_Landing_State_Beach" data-name="Westport-Union Landing State Beach" class="cls-1" d="M101.942,344.6c2.877-14.155,4.122-20.066,12.366-54.208l-0.389-.467c-5.522.233-6.611,0.233-11.822,0.233l-0.467.467c-1.244,8.011-1.633,10.733-3.344,19.677l-2.255,11.9-2.489,13.377c-1.167-8.71-1.555-11.355-3.111-20.376l-2.255-13.066-1.944-11.978-0.467-.544-15.4.389-0.467.466-3.111,17.888L63.755,324.3,61.81,335.033c-0.933-6.766-1.244-9.022-2.878-18.433L56.91,305.245l-2.567-15.4-0.467-.389c-6.689.467-7.777,0.467-13.455,0.623l-0.389.544c5.678,25.743,6.922,31.654,11.122,54.208l0.467,0.467c7.855-.311,9.955-0.311,17.577-0.233l0.544-.467,1.633-9.644,2.567-14.232,2.8-16.644c0.933,7.622,1.167,9.566,2.566,17.966l1.944,12.132,1.633,10.655,0.389,0.467c7.466-.233,10.033-0.311,18.277-0.233Zm49.389-11.044A23.761,23.761,0,0,1,139.2,336.9c-4.667,0-7.855-1.478-9.722-4.278a11,11,0,0,1-1.711-4.744l25.121-.467,0.467-.544a45.607,45.607,0,0,0-1.245-11.589c-2.722-9.177-8.71-11.044-11.355-11.666a19.933,19.933,0,0,0-5.522-.7c-12.21,0-20.3,8.011-20.3,21.466a25.873,25.873,0,0,0,1.867,10.188c4.511,10.5,15.088,11.433,20.688,11.433,6.455,0,9.255-1.167,13.377-2.8l0.466-.622,0.545-8.788Zm-23.565-13.921c0.233-2.411.778-5.678,3.733-7.544a5.969,5.969,0,0,1,8.089,1.866,9.511,9.511,0,0,1,1.166,5.367Zm49.077-1.4c-2.644-.934-4.744-1.789-4.744-3.967,0-.933.622-3.5,5.444-3.5a16.875,16.875,0,0,1,9.722,3.267l0.7-.233,0.778-8.478-0.389-.466a39.606,39.606,0,0,0-11.9-1.945c-3.811,0-11.433.311-15.477,6.144a11.687,11.687,0,0,0-2.1,6.845c0,8.321,6.455,10.81,10.11,12.21l2.956,1.089c2.1,0.7,5.522,1.866,5.522,4.666,0,1.945-1.789,4.045-6.144,4.045a19.462,19.462,0,0,1-8.245-2.178,17.186,17.186,0,0,1-3.111-2.178l-0.7.311c-0.156,4.045-.234,4.9-0.545,8.789l0.389,0.7c3.811,1.4,7.077,2.644,12.755,2.644,5.911,0,17.577-1.089,18.977-12.21a13.154,13.154,0,0,0,.078-1.711c0-8.556-5.989-10.811-10.267-12.444Zm42.7,17.888a11.669,11.669,0,0,1-3.577.7c-3.967,0-4.278-2.489-4.434-3.656a89.161,89.161,0,0,1-.155-9.41l0.155-10.966,7,0.311,0.467-.467,0.778-8.322-0.467-.466h-7.778l0.234-13.066-0.545-.467c-5.288,1.555-6.688,1.944-12.21,3.344l-0.311.545,0.078,9.721-4.2-.155-0.467.389-0.7,8.321,0.467,0.467,4.9-.155-0.234,12.366c-0.078,1.944-.155,3.888-0.155,5.91,0,7.156.155,14.855,12.288,14.855a45.17,45.17,0,0,0,8.166-.933l0.545-.544,0.777-8.011Zm18.667-32.665-0.622-.7a109.666,109.666,0,0,1-12.91,2.255l-0.467.545c0.855,9.255,1.167,12.832,1.167,35.231,0,9.255-.156,14.544-0.389,23.332l0.466,0.389c5.522-.233,7.156-0.311,13.066-0.233l0.467-.389-0.544-18.51c5.677-.078,13.532-0.156,19.832-6.066,4.978-4.667,6.611-11.278,6.611-16.566,0-12.366-7.544-19.833-16.255-19.833a17.109,17.109,0,0,0-10.577,3.656Zm0.156,10.577a8,8,0,0,1,4.666-1.556,6.967,6.967,0,0,1,5.444,2.334c2.411,2.644,2.8,6.61,2.8,9.255,0,4.511-1.477,8.555-4.588,10.733-2.489,1.711-5.6,1.866-8.322,1.944v-22.71Zm73.5,10.344c0-3.033,0-15.633-10.889-19.91a27.956,27.956,0,0,0-9.488-1.478c-13.533,0-21.155,7.233-21.155,21.543,0,4.978.778,10.033,3.656,14.233,2.022,3.033,5.833,7.233,16.954,7.233C307.431,346,311.865,336.044,311.865,324.378ZM298.41,324.3c0,6.378-.856,13.455-7.311,13.455a6.288,6.288,0,0,1-4.355-1.789c-1.323-1.322-2.8-3.966-2.8-11.51,0-2.256,0-7.233,1.555-9.955a6.442,6.442,0,0,1,5.678-3.5,6.538,6.538,0,0,1,4.977,2.411C298.021,315.667,298.41,320.1,298.41,324.3Zm43.322-8.088,2.178-12.678-0.467-.544c-0.544,0-1.089-.078-1.633-0.078-3.189,0-6.767,1.789-9.255,7.544l0.233-7.155-0.622-.622c-5.755,1.244-7.233,1.478-12.911,2.333l-0.466.467c0.466,5.833.7,9.333,0.7,20.143,0,6.378-.078,12.755-0.234,19.21l0.467,0.467c5.755-.233,7-0.311,13.222-0.233l0.388-.545c-0.311-6.3-.777-15.088-0.777-20.454,0-3.5,0-8.633,5.288-8.633a5.826,5.826,0,0,1,3.189,1.089Zm30.1,19.91a11.669,11.669,0,0,1-3.578.7c-3.966,0-4.277-2.489-4.433-3.656a89.161,89.161,0,0,1-.155-9.41l0.155-10.966,7,0.311,0.467-.467,0.777-8.322-0.466-.466h-7.778l0.234-13.066-0.545-.467c-5.288,1.555-6.688,1.944-12.21,3.344l-0.311.545,0.077,9.721-4.2-.155-0.467.389-0.7,8.321,0.467,0.467,4.9-.155-0.233,12.366c-0.078,1.944-.155,3.888-0.155,5.91,0,7.156.155,14.855,12.288,14.855a45.17,45.17,0,0,0,8.166-.933l0.545-.544,0.777-8.011Zm27.222-18.044c-3.733.078-6.766,0.156-11.355,0.156-3.733,0-7.466-.078-11.121-0.078l-0.545.467-0.466,8.944,0.388,0.466c4.356-.077,6.922-0.155,11.044-0.155,3.811,0,7.622.078,11.433,0.078l0.467-.467,0.544-9.022Zm52.033-28.154c-5.678.311-7.233,0.311-11.667,0.233l-0.466.467c0.389,9.566.778,19.132,0.778,28.7,0,8.166-.234,11.9-2.334,14.388a8.982,8.982,0,0,1-6.844,2.8,9.183,9.183,0,0,1-7.933-4.122c-1.166-2.022-1.633-4.745-1.789-9.644-0.155-4.122-.155-8.244-0.155-12.366,0-6.3.078-12.289,0.233-19.988l-0.389-.467c-6.61.311-8.4,0.311-13.688,0.233l-0.467.467c0.312,11.122.312,13.3,0.389,25.432v5.755c0.234,8.4.7,12.6,3.422,16.333,2.956,4.2,8.944,8.088,19.366,8.088,2.8,0,11.355,0,17.11-6.066,4.122-4.355,4.434-8.866,4.589-18.744V313.49l0.233-23.1Zm47.289,54.6c-0.389-6.844-.389-9.021-0.545-16.643v-6.067c-0.077-7.466-.155-11.044-2.1-14.232-2.411-4.045-6.844-4.667-9.644-4.667-4.744,0-8.866,2.489-12.443,4.589l0.155-4.278-0.778-.544c-5.988,1.244-7.31,1.478-13.143,2.255l-0.467.545a216.367,216.367,0,0,1,1.089,24.343c0,4.978-.078,9.955-0.156,14.933l0.467,0.466c5.6-.233,6.766-0.233,12.988-0.233l0.467-.467c-0.467-11.977-.545-15.01-0.622-28.932,1.633-1.088,3.5-2.411,5.988-2.411,4.278,0,4.667,4.589,4.9,7.389,0.156,2.567.233,13.222,0.233,16.177,0,2.644-.077,5.366-0.077,8.011l0.466,0.466c5.133-.155,6.455-0.233,12.677-0.233Zm22.945,0c-0.389-5.988-.7-10.577-0.7-21.31,0-6.611.156-13.3,0.234-19.91l-0.545-.622-13.377,2.333-0.467.467c0.623,5.911.856,8.633,0.856,19.677,0,8.477-.233,13.221-0.467,19.6l0.467,0.544c5.6-.233,7.155-0.311,13.455-0.233Zm-1.244-49.308,0.233-10.578-0.466-.466-12.678,1.555-0.466.545c0.155,2.8.233,4.433,0.233,6.3,0,1.478,0,3.034-.078,4.511l0.545,0.467c5.288-.933,6.766-1.089,12.288-1.789Zm49.465,29.165c0-3.033,0-15.633-10.888-19.91a27.956,27.956,0,0,0-9.488-1.478c-13.533,0-21.155,7.233-21.155,21.543,0,4.978.778,10.033,3.655,14.233C533.688,341.8,537.5,346,548.621,346,565.109,346,569.542,336.044,569.542,324.378Zm-13.455-.078c0,6.378-.855,13.455-7.31,13.455a6.292,6.292,0,0,1-4.356-1.789c-1.322-1.322-2.8-3.966-2.8-11.51,0-2.256,0-7.233,1.556-9.955a6.441,6.441,0,0,1,5.677-3.5,6.538,6.538,0,0,1,4.978,2.411C555.7,315.667,556.087,320.1,556.087,324.3ZM65.737,437.855c-0.389-6.844-.389-9.022-0.544-16.644v-6.066c-0.078-7.467-.156-11.044-2.1-14.233-2.411-4.044-6.844-4.666-9.644-4.666-4.744,0-8.866,2.488-12.444,4.588l0.156-4.277-0.778-.545c-5.989,1.245-7.311,1.478-13.144,2.256l-0.467.544a216.324,216.324,0,0,1,1.089,24.343c0,4.978-.078,9.955-0.156,14.933l0.467,0.467c5.6-.234,6.766-0.234,12.988-0.234l0.467-.466c-0.467-11.977-.544-15.011-0.622-28.932,1.633-1.089,3.5-2.411,5.989-2.411,4.278,0,4.666,4.588,4.9,7.388,0.156,2.567.233,13.222,0.233,16.177,0,2.645-.078,5.367-0.078,8.011l0.467,0.467c5.133-.156,6.455-0.234,12.677-0.234Zm65.022-10.111c-8.477.467-15.243,0.622-17.577,0.622h-1.555c-0.156-20.765-.078-26.054.544-44.642l-0.466-.467c-6.689.311-8.478,0.311-13.844,0.234l-0.467.466c0.311,6.222.389,8.089,0.389,17.344,0,12.288-.078,24.577-0.078,36.865l0.389,0.466c15.244-.233,18.044-0.233,32.043-0.233l0.389-.467,0.622-9.8Zm41.689-12.522c0.078-7,.078-10.032-1.944-13.3-1.556-2.489-4.667-5.6-14.622-5.6a47.333,47.333,0,0,0-15.243,2.567l-0.467.622-0.389,8.477,0.622,0.312c2.722-1.089,7.778-3.111,12.988-3.111,2.878,0,4.045.466,5.056,1.477a4.9,4.9,0,0,1,1.011,3.345c-9.333,1.244-13.688,2.1-18.355,4.977a12.437,12.437,0,0,0-5.833,10.655c0,8.322,5.989,13.688,13.611,13.688a16.074,16.074,0,0,0,10.81-4.122v2.878l0.467,0.544c5.6-.233,7.311-0.311,12.366-0.233l0.389-.544c-0.545-7.622-.545-9.567-0.545-16.877Zm-12.833,12.367a12.6,12.6,0,0,1-6.3,2.022c-2.8,0-5.133-1.478-5.133-4.745,0-5.133,6.144-5.988,11.432-6.688v9.411Zm60.044,10.266c-0.389-6.844-.389-9.022-0.544-16.644v-6.066c-0.078-7.467-.156-11.044-2.1-14.233-2.411-4.044-6.844-4.666-9.644-4.666-4.744,0-8.866,2.488-12.444,4.588l0.155-4.277-0.777-.545c-5.989,1.245-7.311,1.478-13.144,2.256l-0.467.544a216.367,216.367,0,0,1,1.089,24.343c0,4.978-.078,9.955-0.155,14.933l0.466,0.467c5.6-.234,6.767-0.234,12.988-0.234l0.467-.466c-0.467-11.977-.544-15.011-0.622-28.932,1.633-1.089,3.5-2.411,5.989-2.411,4.277,0,4.666,4.588,4.9,7.388,0.156,2.567.234,13.222,0.234,16.177,0,2.645-.078,5.367-0.078,8.011l0.466,0.467c5.134-.156,6.456-0.234,12.678-0.234Zm46.978,0.077c-0.311-7-.545-11.666-0.545-21.854,0-20.532.312-29.01,0.623-39.276l-0.545-.467-12.833,2.023-0.388.466c0.466,7.311.544,9.255,0.466,18.122-5.833-.156-13.144-0.312-19.054,4.355-5.445,4.2-7.7,10.655-7.7,18.666,0,6.066,1.633,12.132,6.222,15.943a16.4,16.4,0,0,0,10.188,3.422,14.248,14.248,0,0,0,10.266-4.2l-0.155,3.033,0.389,0.466c5.366-.233,6.844-0.233,12.677-0.233Zm-13.222-31.654c0.078,10.344,0,12.367-.233,21.777a9.84,9.84,0,0,1-5.289,1.867c-7.544,0-7.544-9.644-7.544-11.2,0-5.988,1.711-12.677,10.422-12.677A17.483,17.483,0,0,1,253.415,406.278Zm36.167,31.577c-0.388-5.989-.7-10.578-0.7-21.31,0-6.611.156-13.3,0.234-19.911l-0.545-.622-13.377,2.333-0.466.467c0.622,5.911.855,8.633,0.855,19.677,0,8.477-.233,13.222-0.467,19.6l0.467,0.544c5.6-.233,7.155-0.311,13.455-0.233Zm-1.244-49.309,0.233-10.577-0.466-.467-12.677,1.556-0.467.544c0.155,2.8.233,4.433,0.233,6.3,0,1.477,0,3.033-.078,4.511l0.545,0.466c5.289-.933,6.766-1.089,12.288-1.789Zm47.988,49.309c-0.389-6.844-.389-9.022-0.545-16.644v-6.066c-0.077-7.467-.155-11.044-2.1-14.233-2.411-4.044-6.844-4.666-9.644-4.666-4.744,0-8.866,2.488-12.443,4.588l0.155-4.277-0.778-.545c-5.988,1.245-7.31,1.478-13.143,2.256l-0.467.544a216.367,216.367,0,0,1,1.089,24.343c0,4.978-.078,9.955-0.156,14.933l0.467,0.467c5.6-.234,6.766-0.234,12.988-0.234l0.467-.466c-0.467-11.977-.545-15.011-0.622-28.932,1.633-1.089,3.5-2.411,5.988-2.411,4.278,0,4.667,4.588,4.9,7.388,0.155,2.567.233,13.222,0.233,16.177,0,2.645-.078,5.367-0.078,8.011l0.467,0.467c5.133-.156,6.455-0.234,12.677-0.234Zm23.179-12.6a21.81,21.81,0,0,0,8.71-1.011c4.045-1.4,9.955-4.744,9.955-12.288a10.167,10.167,0,0,0-2.1-6.766l5.367,0.311,0.467-.389,0.544-7.778-0.467-.388c-5.988.233-7.622,0.311-12.521,0.233l-3.578-.078c-5.522-.155-12.91-0.311-17.966,3.889a13.047,13.047,0,0,0-4.977,10.5,12.593,12.593,0,0,0,2.255,7.544,13.361,13.361,0,0,0,5.211,4.356c-2.178,4.2-3.344,6.3-5.133,9.488v0.7l3.267,2.333c-2.334,1.789-5.989,4.745-5.989,9.8a10.964,10.964,0,0,0,4.822,8.788c4.355,3.111,10.266,3.267,13.3,3.267,14.233,0,20.766-7.155,20.766-14.7,0-9.8-8.555-11.667-13.611-12.833l-1.866-.311a32.683,32.683,0,0,1-7.7-1.945Zm6.377-14c-0.078,6.3-3.889,6.844-4.977,6.844a5.031,5.031,0,0,1-4.667-3.266,10.719,10.719,0,0,1-.7-4.045c0-3.888,2.333-6.377,5.211-6.377C364.327,404.412,365.96,407.834,365.882,411.256Zm-6.611,29.01c6.922,1.789,7,1.789,7.933,2.566a3.429,3.429,0,0,1,1.556,3.033c0,2.334-1.945,4.745-7.078,4.745-5.755,0-7.7-3.267-7.7-5.989a7.392,7.392,0,0,1,2.255-5.133Zm73.267-35.31c-6.533-2.722-9.955-4.122-9.955-7.622,0-2.411,2.255-5.444,7.388-5.444,5.911,0,9.411,2.411,12.288,4.356l0.7-.312,0.622-10.188-0.388-.544a31.86,31.86,0,0,0-14.389-2.878c-14.621,0-19.676,8.244-19.676,16.566,0,9.411,7.31,12.833,11.666,14.933l2.566,1.166c5.367,2.256,9.489,4.2,9.489,8.322,0,2.955-2.567,6.455-9.333,6.455a19.842,19.842,0,0,1-13.3-4.9l-0.777.234-0.545,10.966,0.467,0.622c0.855,0.311,1.711.7,2.566,0.933a38.715,38.715,0,0,0,12.211,1.945c2.333,0,8.244-.234,12.91-2.411,6.533-3.189,9.333-9.1,9.333-15.711a15.415,15.415,0,0,0-5.833-12.366,31.581,31.581,0,0,0-5.988-3.344Zm43.011,24.5a11.675,11.675,0,0,1-3.578.7c-3.966,0-4.277-2.489-4.433-3.655a89.421,89.421,0,0,1-.156-9.411l0.156-10.966,7,0.311,0.466-.467,0.778-8.321-0.467-.467h-7.777l0.233-13.066-0.544-.467c-5.289,1.556-6.689,1.945-12.211,3.344l-0.311.545,0.078,9.722-4.2-.156-0.466.389-0.7,8.322,0.466,0.466,4.9-.155-0.233,12.366c-0.078,1.944-.156,3.889-0.156,5.911,0,7.155.156,14.855,12.288,14.855a45.169,45.169,0,0,0,8.167-.934l0.544-.544,0.778-8.011Zm40.366-14.233c0.078-7,.078-10.032-1.945-13.3-1.555-2.489-4.666-5.6-14.621-5.6a47.335,47.335,0,0,0-15.244,2.567l-0.466.622-0.389,8.477,0.622,0.312c2.722-1.089,7.777-3.111,12.988-3.111,2.878,0,4.044.466,5.055,1.477a4.9,4.9,0,0,1,1.012,3.345c-9.333,1.244-13.689,2.1-18.355,4.977a12.435,12.435,0,0,0-5.833,10.655c0,8.322,5.988,13.688,13.61,13.688a16.077,16.077,0,0,0,10.811-4.122v2.878l0.466,0.544c5.6-.233,7.311-0.311,12.367-0.233l0.388-.544c-0.544-7.622-.544-9.567-0.544-16.877Zm-12.833,12.367a12.6,12.6,0,0,1-6.3,2.022c-2.8,0-5.133-1.478-5.133-4.745,0-5.133,6.144-5.988,11.433-6.688v9.411Zm43.711,1.866a11.669,11.669,0,0,1-3.577.7c-3.967,0-4.278-2.489-4.434-3.655a89.18,89.18,0,0,1-.155-9.411l0.155-10.966,7,0.311,0.467-.467,0.777-8.321-0.466-.467h-7.778l0.234-13.066-0.545-.467c-5.288,1.556-6.688,1.945-12.21,3.344l-0.311.545,0.077,9.722-4.2-.156-0.467.389-0.7,8.322,0.467,0.466,4.9-.155-0.233,12.366c-0.078,1.944-.155,3.889-0.155,5.911,0,7.155.155,14.855,12.288,14.855a45.168,45.168,0,0,0,8.166-.934l0.545-.544,0.777-8.011Zm38.733-2.566a23.776,23.776,0,0,1-12.133,3.344c-4.666,0-7.855-1.478-9.722-4.278a11.01,11.01,0,0,1-1.711-4.744l25.121-.467,0.467-.544a45.638,45.638,0,0,0-1.244-11.588c-2.722-9.178-8.711-11.044-11.355-11.666a19.9,19.9,0,0,0-5.522-.7c-12.211,0-20.3,8.01-20.3,21.465a25.893,25.893,0,0,0,1.866,10.189c4.511,10.5,15.088,11.432,20.688,11.432,6.455,0,9.255-1.166,13.377-2.8l0.467-.623,0.544-8.788ZM561.96,412.967c0.234-2.411.778-5.677,3.733-7.544a5.969,5.969,0,0,1,8.089,1.867,9.5,9.5,0,0,1,1.167,5.366ZM214.682,531.732c7.233,0.156,16.177.312,22.01-3.733a15.456,15.456,0,0,0,6.533-13.144c0-4.977-2.1-9.566-6.533-11.743a17.164,17.164,0,0,0-4.822-1.4c2.645-1.089,5.756-2.489,7.778-6.611a12.623,12.623,0,0,0,1.244-5.444,13.055,13.055,0,0,0-3.111-8.711c-3.266-3.5-8.322-4.433-15.943-4.433-2.645,0-7.389.078-10.033,0.155l-10.889.156-0.466.467c0.311,7.466.389,10.344,0.389,21.076,0,11.044-.078,22.01-0.234,33.054l0.545,0.311h13.532Zm-0.544-23.643c5.911-.155,9.333-0.155,11.588,1.167a7.169,7.169,0,0,1,3.111,6.377,6.686,6.686,0,0,1-4.822,6.689c-2.333.778-6.533,0.778-9.877,0.7V508.089Zm0-22.865c1.633,0,3.811-.078,5.133-0.078,4.2,0,8.011,1.478,8.011,6.533a6.869,6.869,0,0,1-3.967,6.3c-1.944.855-6.066,0.855-9.177,0.855v-13.61Zm70.855,35a23.779,23.779,0,0,1-12.133,3.344c-4.667,0-7.855-1.478-9.722-4.277a11,11,0,0,1-1.711-4.745l25.121-.466,0.467-.545a45.6,45.6,0,0,0-1.245-11.588c-2.722-9.177-8.71-11.044-11.355-11.666a19.9,19.9,0,0,0-5.522-.7c-12.21,0-20.3,8.011-20.3,21.466a25.891,25.891,0,0,0,1.867,10.188c4.511,10.5,15.088,11.433,20.688,11.433,6.455,0,9.255-1.167,13.377-2.8l0.467-.622,0.544-8.789ZM261.427,506.3c0.233-2.411.778-5.677,3.733-7.544a5.971,5.971,0,0,1,8.089,1.867,9.5,9.5,0,0,1,1.166,5.366Zm67.354,2.256c0.078-7,.078-10.033-1.944-13.3-1.555-2.488-4.666-5.6-14.621-5.6a47.337,47.337,0,0,0-15.244,2.566l-0.467.622-0.389,8.478,0.623,0.311c2.722-1.089,7.777-3.111,12.988-3.111,2.877,0,4.044.467,5.055,1.478a4.9,4.9,0,0,1,1.011,3.344c-9.333,1.244-13.688,2.1-18.354,4.977a12.439,12.439,0,0,0-5.834,10.656c0,8.321,5.989,13.688,13.611,13.688a16.079,16.079,0,0,0,10.81-4.122v2.877l0.467,0.545c5.6-.234,7.311-0.311,12.366-0.234l0.389-.544c-0.544-7.622-.544-9.566-0.544-16.877Zm-12.832,12.366a12.6,12.6,0,0,1-6.3,2.022c-2.8,0-5.133-1.478-5.133-4.744,0-5.133,6.144-5.989,11.433-6.689v9.411Zm52.344-.389a13.856,13.856,0,0,1-8.089,2.489c-8.788,0-10.577-7.311-10.577-11.977,0-5.678,2.489-12.211,10.033-12.211,3.422,0,5.288,1.244,7.622,2.8l0.777-.233c0.312-4.122.389-5.211,1.011-9.333l-0.388-.467a32.334,32.334,0,0,0-10.889-2.022c-18.277,0-21.854,13.844-21.854,21.777,0,8.944,4.666,21.076,22.165,21.076a32.552,32.552,0,0,0,10.033-1.711l0.467-.466,0.311-9.333Zm44.955,10.655c-0.311-6.377-.389-8.555-0.544-16.644v-5.833c-0.078-7.388-.156-11.666-2.411-14.932-2.256-3.189-5.522-4.2-8.944-4.2-5.678,0-10.111,2.722-13.222,4.589l0.233-23.955-0.466-.544-13.3,2.1-0.389.466c0.7,7.544.856,10.344,1.011,20.377q0.234,9.45.234,18.9c0,7.7-.156,12.288-0.311,19.91l0.389,0.545c5.755-.311,6.921-0.311,13.221-0.311l0.467-.467c-0.545-11.666-.622-15.166-0.7-28.932a10.271,10.271,0,0,1,5.988-2.333c4.278,0,4.589,4.433,4.9,7.544,0.156,2.411.234,13.455,0.234,16.332,0,2.567-.078,5.056-0.078,7.622l0.389,0.545c5.6-.311,6.844-0.311,12.832-0.311Z"/>
</svg>
