<svg xmlns="http://www.w3.org/2000/svg" width="612" height="817" viewBox="0 0 612 817">
  <defs>
    <style>
      .cls-1 {
        fill: #592626;
        fill-rule: evenodd;
      }
    </style>
  </defs>
  <path id="Bidwell-Sacramento_River_State_Park" data-name="Bidwell-Sacramento River State Park" class="cls-1" d="M41.316,345.066c7.233,0.155,16.177.311,22.01-3.733a15.461,15.461,0,0,0,6.533-13.144c0-4.978-2.1-9.566-6.533-11.744a17.178,17.178,0,0,0-4.822-1.4c2.644-1.089,5.755-2.489,7.777-6.611a12.613,12.613,0,0,0,1.244-5.444,13.057,13.057,0,0,0-3.111-8.711c-3.267-3.5-8.322-4.433-15.944-4.433-2.644,0-7.389.078-10.033,0.156l-10.888.155-0.467.467c0.311,7.466.389,10.344,0.389,21.077,0,11.044-.078,22.01-0.233,33.054l0.544,0.311H41.316Zm-0.545-23.644c5.911-.155,9.333-0.155,11.588,1.167a7.172,7.172,0,0,1,3.111,6.378,6.686,6.686,0,0,1-4.822,6.688c-2.333.778-6.533,0.778-9.877,0.7V321.422Zm0-22.865c1.633,0,3.811-.078,5.133-0.078,4.2,0,8.011,1.478,8.011,6.533a6.87,6.87,0,0,1-3.966,6.3c-1.944.855-6.066,0.855-9.177,0.855v-13.61Zm50.4,45.964c-0.389-5.988-.7-10.577-0.7-21.31,0-6.611.156-13.3,0.233-19.91l-0.544-.622-13.377,2.333-0.467.467c0.622,5.911.855,8.633,0.855,19.677,0,8.477-.233,13.221-0.467,19.6l0.467,0.544c5.6-.233,7.155-0.311,13.455-0.233Zm-1.244-49.308,0.233-10.578-0.467-.466-12.677,1.555-0.467.545c0.156,2.8.233,4.433,0.233,6.3,0,1.478,0,3.034-.078,4.511l0.544,0.467c5.289-.933,6.766-1.089,12.288-1.789ZM137.915,344.6c-0.311-7-.545-11.666-0.545-21.854,0-20.533.311-29.01,0.622-39.276L137.448,283l-12.833,2.022-0.389.467c0.467,7.311.545,9.255,0.467,18.121-5.833-.155-13.144-0.311-19.055,4.356-5.444,4.2-7.7,10.655-7.7,18.665,0,6.067,1.633,12.133,6.222,15.944A16.4,16.4,0,0,0,114.349,346a14.244,14.244,0,0,0,10.266-4.2l-0.155,3.033,0.389,0.467c5.366-.233,6.844-0.233,12.677-0.233Zm-13.222-31.654c0.078,10.344,0,12.366-.233,21.777a9.839,9.839,0,0,1-5.289,1.866c-7.544,0-7.544-9.644-7.544-11.2,0-5.989,1.711-12.677,10.422-12.677A17.483,17.483,0,0,1,124.693,312.945Zm70.154,31.576c3.111-12.055,3.656-13.921,8.322-30.643,0.934-3.188,1.789-6.455,2.645-9.644l-0.467-.622-10.111.234-0.544.544-2.256,11.666-2.177,9.411-1.478,7.155-1.322-6.922-1.711-8.088-2.722-13.455-0.467-.545-14.932.234-0.545.544-2.566,12.755-1.867,8.555-1.478,7.155-1.477-7.7-1.867-8.4-2.644-12.91-0.467-.389-12.6.933-0.467.622c7.311,25.666,8.477,30.254,10.655,39.82l0.544,0.467c5.367-.233,7.311-0.311,14.466-0.233l0.467-.545,2.022-9.488,2.178-9.411,1.944-9.41,1.167,5.91,1.166,5.756,3.267,16.877,0.544,0.544c5.756-.233,8.089-0.311,14.311-0.233Zm49.623-10.966a23.761,23.761,0,0,1-12.132,3.345c-4.667,0-7.856-1.478-9.722-4.278a11,11,0,0,1-1.711-4.744l25.121-.467,0.466-.544a45.56,45.56,0,0,0-1.244-11.589c-2.722-9.177-8.711-11.044-11.355-11.666a19.933,19.933,0,0,0-5.522-.7c-12.21,0-20.3,8.011-20.3,21.466a25.873,25.873,0,0,0,1.867,10.188C214.45,345.066,225.027,346,230.627,346c6.455,0,9.255-1.167,13.377-2.8l0.466-.622,0.545-8.788Zm-23.565-13.921c0.233-2.411.778-5.678,3.733-7.544a5.968,5.968,0,0,1,8.088,1.866,9.5,9.5,0,0,1,1.167,5.367Zm46.433,24.887c-0.389-8.944-.778-17.11-0.778-41.687,0-7.388.078-10.888,0.389-19.287L266.4,283l-13.3,2.1-0.311.467c0.778,9.488.856,12.055,1.011,24.654,0.078,4.589.078,9.177,0.078,13.766,0,8.4-.155,13.066-0.467,20.766l0.467,0.544c5.211-.233,7.311-0.311,12.988-0.233Zm22.711,0c-0.389-8.944-.778-17.11-0.778-41.687,0-7.388.078-10.888,0.389-19.287L289.116,283l-13.3,2.1-0.311.467c0.778,9.488.856,12.055,1.011,24.654,0.078,4.589.078,9.177,0.078,13.766,0,8.4-.155,13.066-0.466,20.766l0.466,0.544c5.211-.233,7.311-0.311,12.988-0.233Zm30.489-26.443c-3.734.078-6.767,0.156-11.355,0.156-3.734,0-7.467-.078-11.122-0.078l-0.544.467-0.467,8.944,0.389,0.466c4.355-.077,6.922-0.155,11.044-0.155,3.811,0,7.621.078,11.432,0.078l0.467-.467,0.545-9.022Zm30.177-6.455c-6.533-2.722-9.955-4.122-9.955-7.622,0-2.411,2.256-5.444,7.389-5.444,5.911,0,9.41,2.411,12.288,4.355l0.7-.311,0.622-10.188-0.389-.545a31.857,31.857,0,0,0-14.388-2.877c-14.621,0-19.677,8.244-19.677,16.566,0,9.41,7.311,12.832,11.666,14.932l2.567,1.167c5.366,2.255,9.488,4.2,9.488,8.322,0,2.955-2.566,6.455-9.332,6.455a19.842,19.842,0,0,1-13.3-4.9l-0.778.233-0.544,10.967,0.467,0.622c0.855,0.311,1.711.7,2.566,0.933a38.753,38.753,0,0,0,12.211,1.944c2.333,0,8.244-.233,12.91-2.411,6.533-3.188,9.333-9.1,9.333-15.71a15.415,15.415,0,0,0-5.833-12.366,31.446,31.446,0,0,0-5.989-3.344Zm55.844,10.266c0.078-7,.078-10.033-1.944-13.3-1.556-2.489-4.667-5.6-14.622-5.6a47.306,47.306,0,0,0-15.243,2.567l-0.467.622-0.389,8.477,0.622,0.311c2.722-1.089,7.778-3.111,12.989-3.111,2.877,0,4.044.467,5.055,1.478a4.9,4.9,0,0,1,1.011,3.344c-9.333,1.245-13.688,2.1-18.355,4.978a12.437,12.437,0,0,0-5.833,10.655c0,8.322,5.989,13.688,13.611,13.688a16.079,16.079,0,0,0,10.81-4.122v2.878l0.467,0.544c5.6-.233,7.311-0.311,12.366-0.233l0.389-.545c-0.545-7.621-.545-9.566-0.545-16.877Zm-12.832,12.366a12.6,12.6,0,0,1-6.3,2.022c-2.8,0-5.133-1.477-5.133-4.744,0-5.133,6.144-5.988,11.433-6.688v9.41Zm52.344-.389a13.849,13.849,0,0,1-8.089,2.489c-8.788,0-10.577-7.311-10.577-11.977,0-5.678,2.489-12.211,10.033-12.211,3.422,0,5.288,1.245,7.621,2.8l0.778-.233c0.311-4.122.389-5.211,1.011-9.333l-0.389-.467a32.352,32.352,0,0,0-10.888-2.022c-18.277,0-21.854,13.844-21.854,21.777,0,8.944,4.666,21.077,22.165,21.077a32.587,32.587,0,0,0,10.033-1.711l0.467-.467,0.311-9.333Zm29.322-17.654,2.178-12.678-0.467-.544c-0.544,0-1.089-.078-1.633-0.078-3.189,0-6.766,1.789-9.255,7.544l0.233-7.155-0.622-.622c-5.755,1.244-7.233,1.478-12.911,2.333l-0.466.467c0.466,5.833.7,9.333,0.7,20.143,0,6.378-.078,12.755-0.234,19.21l0.467,0.467c5.755-.233,7-0.311,13.222-0.233l0.389-.545c-0.312-6.3-.778-15.088-0.778-20.454,0-3.5,0-8.633,5.288-8.633a5.823,5.823,0,0,1,3.189,1.089Zm41.3,5.677c0.077-7,.077-10.033-1.945-13.3-1.555-2.489-4.666-5.6-14.621-5.6a47.308,47.308,0,0,0-15.244,2.567l-0.467.622-0.389,8.477,0.623,0.311c2.722-1.089,7.777-3.111,12.988-3.111,2.878,0,4.044.467,5.055,1.478a4.9,4.9,0,0,1,1.011,3.344c-9.333,1.245-13.688,2.1-18.354,4.978a12.435,12.435,0,0,0-5.833,10.655c0,8.322,5.988,13.688,13.61,13.688a16.084,16.084,0,0,0,10.811-4.122v2.878L504.4,345.3c5.6-.233,7.311-0.311,12.366-0.233l0.389-.545c-0.544-7.621-.544-9.566-0.544-16.877ZM503.86,334.255a12.6,12.6,0,0,1-6.3,2.022c-2.8,0-5.133-1.477-5.133-4.744,0-5.133,6.144-5.988,11.433-6.688v9.41Zm82.676,10.266c-0.389-7.233-.467-9.255-0.467-18.043v-5.833c0.078-5.211.156-10.033-2.1-13.3-3.033-4.433-8.4-4.433-9.644-4.433-6.377,0-10.655,2.878-13.766,5.056-1.089-1.789-3.033-5.056-9.255-5.056-5.133,0-8.477,2.333-12.055,4.822v-4.355l-0.7-.7c-6.066,1.167-7.777,1.478-13.221,2.255l-0.467.545c0.622,6.222,1.089,10.5,1.089,25.9,0,4.433-.078,8.944-0.078,13.377l0.389,0.466c4.977-.155,6.688-0.233,13.144-0.233l0.466-.467c-0.544-11.977-.622-15.554-0.7-29.087a9.554,9.554,0,0,1,5.367-2.178c4.822,0,4.977,5.522,4.977,12.211,0,11.277-.077,12.988-0.233,19.288l0.467,0.544c5.91-.311,7.544-0.311,12.91-0.311l0.467-.467c-0.467-7.388-.545-9.566-0.622-18.976v-2.878l-0.078-7.855a9.6,9.6,0,0,1,5.366-1.945c4.433,0,5.133,4.2,5.133,10.889,0,1.477-.077,2.955-0.077,4.433-0.078,2.644-.156,14.232-0.234,16.566l0.467,0.466c5.833-.233,7.544-0.233,12.988-0.233ZM160.2,426.889a23.773,23.773,0,0,1-12.133,3.344c-4.666,0-7.855-1.478-9.721-4.278a11,11,0,0,1-1.711-4.744l25.121-.467,0.466-.544a45.593,45.593,0,0,0-1.244-11.588c-2.722-9.178-8.711-11.044-11.355-11.666a19.9,19.9,0,0,0-5.522-.7c-12.211,0-20.3,8.01-20.3,21.465a25.893,25.893,0,0,0,1.866,10.189c4.511,10.5,15.089,11.432,20.688,11.432,6.456,0,9.255-1.166,13.377-2.8l0.467-.623,0.545-8.788Zm-23.565-13.922c0.233-2.411.777-5.677,3.733-7.544a5.967,5.967,0,0,1,8.088,1.867,9.5,9.5,0,0,1,1.167,5.366Zm70.854,24.888c-0.389-6.844-.389-9.022-0.545-16.644v-6.066c-0.077-7.467-.155-11.044-2.1-14.233-2.411-4.044-6.845-4.666-9.644-4.666-4.745,0-8.867,2.488-12.444,4.588l0.155-4.277-0.777-.545c-5.989,1.245-7.311,1.478-13.144,2.256l-0.467.544a216.367,216.367,0,0,1,1.089,24.343c0,4.978-.078,9.955-0.156,14.933l0.467,0.467c5.6-.234,6.766-0.234,12.988-0.234l0.467-.466c-0.467-11.977-.545-15.011-0.622-28.932,1.633-1.089,3.5-2.411,5.988-2.411,4.278,0,4.667,4.588,4.9,7.388,0.156,2.567.233,13.222,0.233,16.177,0,2.645-.077,5.367-0.077,8.011l0.466,0.467c5.133-.156,6.456-0.234,12.677-0.234Zm30.645-8.4a11.669,11.669,0,0,1-3.578.7c-3.966,0-4.277-2.489-4.433-3.655a89.18,89.18,0,0,1-.155-9.411l0.155-10.966,7,0.311,0.467-.467,0.777-8.321-0.466-.467h-7.778l0.234-13.066-0.545-.467c-5.288,1.556-6.688,1.945-12.21,3.344l-0.311.545,0.077,9.722-4.2-.156-0.467.389-0.7,8.322,0.467,0.466,4.9-.155-0.233,12.366c-0.078,1.944-.155,3.889-0.155,5.911,0,7.155.155,14.855,12.288,14.855a45.168,45.168,0,0,0,8.166-.934l0.545-.544,0.777-8.011Zm45.344-11.744c0-3.033,0-15.632-10.889-19.91a27.956,27.956,0,0,0-9.488-1.478c-13.533,0-21.155,7.233-21.155,21.544,0,4.977.778,10.033,3.656,14.232,2.022,3.034,5.833,7.233,16.954,7.233C279.043,439.332,283.476,429.377,283.476,417.711Zm-13.455-.078c0,6.378-.856,13.455-7.311,13.455a6.292,6.292,0,0,1-4.355-1.788c-1.323-1.323-2.8-3.967-2.8-11.511,0-2.255,0-7.233,1.555-9.955a6.442,6.442,0,0,1,5.678-3.5,6.541,6.541,0,0,1,4.977,2.411C269.632,409,270.021,413.434,270.021,417.633Zm61.134-.622A237.009,237.009,0,0,1,342.51,438.4l0.622,0.389c2.411-.156,4.744-0.311,7.155-0.389s4.9-.155,7.311-0.155l0.466-.934c-2.955-3.811-3.811-4.977-9.41-13.921-2.489-3.967-3.733-6.067-5.678-9.489,3.5-1.555,10.577-4.822,10.577-14.7,0-3.422-.933-10.5-7.31-13.844-4.045-2.1-8.244-2.177-17.344-2.022l-5.444.078h-9.489l-0.388.467c0.311,7.855.622,15.943,0.622,37.1,0,7.233-.078,10.733-0.311,17.188l0.466,0.466c5.678-.233,6.922-0.311,13.3-0.233l0.466-.467c-0.622-9.021-.7-11.51-0.777-20.765ZM327.5,392.824c1.089-.078,2.178-0.078,3.267-0.078,3.033,0,9.021,0,9.021,6.844a7.565,7.565,0,0,1-3.422,6.844c-2.177,1.322-4.977,1.478-8.866,1.555V392.824Zm48.767,45.031c-0.389-5.989-.7-10.578-0.7-21.31,0-6.611.155-13.3,0.233-19.911l-0.544-.622-13.377,2.333-0.467.467c0.622,5.911.855,8.633,0.855,19.677,0,8.477-.233,13.222-0.466,19.6l0.466,0.544c5.6-.233,7.156-0.311,13.455-0.233Zm-1.245-49.309,0.234-10.577-0.467-.467-12.677,1.556-0.467.544c0.156,2.8.234,4.433,0.234,6.3,0,1.477,0,3.033-.078,4.511l0.544,0.466c5.289-.933,6.767-1.089,12.289-1.789Zm31.344,49.231c2.489-7.777,3.967-12.6,5.6-17.5,2.1-6.3,5.522-16.411,7.7-22.788l-0.389-.544-10.888.233-0.545.544c-1.089,5.211-1.322,6.3-2.878,12.366L401,425.411l-1.944-8.4-1.478-5.988c-1.944-7.233-2.255-8.711-3.344-13.844l-0.545-.467a102.357,102.357,0,0,1-13.61.856l-0.311.622c10.344,30.643,11.2,33.521,12.91,39.9l0.545,0.544c5.055-.233,7.077-0.311,12.677-0.233Zm51.955-10.888a23.772,23.772,0,0,1-12.132,3.344c-4.667,0-7.856-1.478-9.722-4.278a11,11,0,0,1-1.711-4.744l25.121-.467,0.466-.544a45.548,45.548,0,0,0-1.244-11.588c-2.722-9.178-8.711-11.044-11.355-11.666a19.9,19.9,0,0,0-5.522-.7c-12.21,0-20.3,8.01-20.3,21.465a25.875,25.875,0,0,0,1.867,10.189c4.511,10.5,15.088,11.432,20.688,11.432,6.455,0,9.255-1.166,13.377-2.8l0.466-.623,0.545-8.788Zm-23.565-13.922c0.233-2.411.778-5.677,3.733-7.544a5.967,5.967,0,0,1,8.088,1.867,9.5,9.5,0,0,1,1.167,5.366Zm55.221-3.422,2.178-12.677-0.466-.545c-0.545,0-1.089-.077-1.634-0.077-3.189,0-6.766,1.788-9.255,7.544l0.233-7.156-0.622-.622c-5.755,1.245-7.233,1.478-12.91,2.333l-0.467.467c0.467,5.833.7,9.333,0.7,20.144,0,6.377-.078,12.755-0.233,19.21l0.466,0.466c5.756-.233,7-0.311,13.222-0.233l0.389-.544c-0.311-6.3-.778-15.088-0.778-20.455,0-3.5,0-8.633,5.289-8.633a5.82,5.82,0,0,1,3.188,1.089ZM148.96,498.29c-6.533-2.722-9.955-4.122-9.955-7.622,0-2.411,2.255-5.444,7.388-5.444,5.911,0,9.411,2.411,12.289,4.355l0.7-.311L160,479.079l-0.389-.544a31.855,31.855,0,0,0-14.388-2.878c-14.622,0-19.677,8.244-19.677,16.566,0,9.411,7.311,12.833,11.666,14.933l2.566,1.166c5.367,2.256,9.489,4.2,9.489,8.322,0,2.956-2.567,6.456-9.333,6.456a19.839,19.839,0,0,1-13.3-4.9l-0.778.233L125.317,529.4l0.466,0.622c0.856,0.312,1.711.7,2.567,0.934a38.745,38.745,0,0,0,12.21,1.944c2.333,0,8.244-.233,12.911-2.411,6.533-3.189,9.333-9.1,9.333-15.71a15.413,15.413,0,0,0-5.833-12.366,31.51,31.51,0,0,0-5.989-3.345Zm43.011,24.5a11.669,11.669,0,0,1-3.578.7c-3.966,0-4.277-2.488-4.433-3.655a89.18,89.18,0,0,1-.155-9.411l0.155-10.966,7,0.311,0.467-.466,0.777-8.322-0.466-.467H183.96l0.234-13.066-0.545-.466c-5.288,1.555-6.688,1.944-12.21,3.344l-0.311.544,0.077,9.722-4.2-.156-0.466.389-0.7,8.322,0.467,0.467,4.9-.156-0.233,12.366c-0.078,1.945-.156,3.889-0.156,5.911,0,7.155.156,14.855,12.289,14.855a45.259,45.259,0,0,0,8.166-.933l0.544-.545,0.778-8.01Zm40.366-14.232c0.078-7,.078-10.033-1.944-13.3-1.556-2.488-4.667-5.6-14.622-5.6a47.347,47.347,0,0,0-15.244,2.566l-0.466.622-0.389,8.478,0.622,0.311c2.722-1.089,7.778-3.111,12.988-3.111,2.878,0,4.045.467,5.056,1.478a4.905,4.905,0,0,1,1.011,3.344c-9.333,1.244-13.688,2.1-18.355,4.977a12.44,12.44,0,0,0-5.833,10.656c0,8.321,5.989,13.688,13.61,13.688a16.079,16.079,0,0,0,10.811-4.122v2.877l0.467,0.545c5.6-.234,7.31-0.311,12.366-0.234l0.389-.544c-0.545-7.622-.545-9.566-0.545-16.877ZM219.5,520.922a12.6,12.6,0,0,1-6.3,2.022c-2.8,0-5.133-1.478-5.133-4.744,0-5.133,6.144-5.989,11.432-6.689v9.411Zm43.711,1.866a11.669,11.669,0,0,1-3.577.7c-3.967,0-4.278-2.488-4.433-3.655a88.88,88.88,0,0,1-.156-9.411l0.156-10.966,7,0.311,0.467-.466,0.778-8.322-0.467-.467h-7.777l0.233-13.066-0.544-.466c-5.289,1.555-6.689,1.944-12.211,3.344l-0.311.544,0.078,9.722-4.2-.156-0.467.389-0.7,8.322,0.467,0.467,4.9-.156-0.234,12.366c-0.077,1.945-.155,3.889-0.155,5.911,0,7.155.155,14.855,12.288,14.855a45.259,45.259,0,0,0,8.166-.933l0.545-.545,0.778-8.01Zm38.733-2.566a23.773,23.773,0,0,1-12.133,3.344c-4.666,0-7.855-1.478-9.721-4.277a11,11,0,0,1-1.711-4.745l25.121-.466,0.466-.545a45.6,45.6,0,0,0-1.244-11.588c-2.722-9.177-8.711-11.044-11.355-11.666a19.9,19.9,0,0,0-5.522-.7c-12.211,0-20.3,8.011-20.3,21.466a25.891,25.891,0,0,0,1.866,10.188c4.511,10.5,15.089,11.433,20.688,11.433,6.456,0,9.255-1.167,13.377-2.8l0.467-.622,0.545-8.789ZM278.383,506.3c0.233-2.411.777-5.677,3.733-7.544a5.97,5.97,0,0,1,8.088,1.867,9.5,9.5,0,0,1,1.167,5.366Zm65.877-29.632-9.877.156-0.467.467c0.312,10.11.545,16.877,0.545,25.821,0,9.488-.233,18.9-0.467,28.387l0.467,0.467c5.755-.234,7-0.311,13.221-0.234l0.389-.466c-0.311-8.478-.311-10.422-0.311-18.355,8.711,0.078,18.044.078,23.644-6.766a20,20,0,0,0,4.044-12.522c0-3.344-.778-10.733-7.233-14.388-4.667-2.722-11.277-2.722-17.11-2.722Zm3.5,9.411c1.711-.078,3.345-0.078,5.056-0.078,6.844,0.156,8.71,3.656,8.71,8.167,0,1.088,0,5.6-4.122,7.855-2.1,1.166-4.977,1.322-9.644,1.322V486.079Zm66.11,22.477c0.078-7,.078-10.033-1.944-13.3-1.556-2.488-4.666-5.6-14.622-5.6a47.336,47.336,0,0,0-15.243,2.566l-0.467.622-0.389,8.478,0.622,0.311c2.722-1.089,7.778-3.111,12.989-3.111,2.877,0,4.044.467,5.055,1.478a4.9,4.9,0,0,1,1.011,3.344c-9.333,1.244-13.688,2.1-18.355,4.977a12.44,12.44,0,0,0-5.833,10.656c0,8.321,5.989,13.688,13.611,13.688a16.079,16.079,0,0,0,10.81-4.122v2.877l0.467,0.545c5.6-.234,7.311-0.311,12.366-0.234l0.389-.544c-0.544-7.622-.544-9.566-0.544-16.877Zm-12.832,12.366a12.6,12.6,0,0,1-6.3,2.022c-2.8,0-5.133-1.478-5.133-4.744,0-5.133,6.144-5.989,11.433-6.689v9.411Zm44.411-18.044,2.177-12.677-0.466-.544c-0.545,0-1.089-.078-1.634-0.078-3.188,0-6.766,1.789-9.255,7.544l0.234-7.155-0.623-.622c-5.755,1.244-7.233,1.477-12.91,2.333l-0.467.466c0.467,5.834.7,9.333,0.7,20.144,0,6.377-.077,12.755-0.233,19.21l0.467,0.467c5.755-.234,7-0.311,13.221-0.234l0.389-.544c-0.311-6.3-.778-15.088-0.778-20.455,0-3.5,0-8.632,5.289-8.632a5.825,5.825,0,0,1,3.189,1.088Zm46.666,27.843c-7.311-12.366-8.089-13.766-14-24.421,5.367-7.31,5.911-8.088,11.433-15.166l-0.389-.777-12.677.155-0.778.545c-6.066,10.5-6.844,11.744-10.422,17.11v-8.633c0.078-14.544.156-17.655,0.545-29.4l-0.622-.466-13.533,2.022-0.467.544c0.545,7.544.778,11.2,0.934,21.388,0.155,12.6.155,25.2,0.077,37.8l0.545,0.545c5.211-.234,6.688-0.234,12.6-0.234l0.467-.544-0.467-13.144-0.078-8.944c6.767,12.444,7.622,14.155,11.589,22.4l0.7,0.467,14-.545Z"/>
</svg>
