<svg xmlns="http://www.w3.org/2000/svg" xmlns:xlink="http://www.w3.org/1999/xlink" viewBox="0 0 120 160" shape-rendering="geometricPrecision" text-rendering="geometricPrecision">
  <g transform="matrix(2 0 0 2 28 48)">
    <path d="M30,3.4141L28.5859,2L2,28.5859L3.4141,30l2-2L26,28c1.103953-.001487,1.998513-.896047,2-2v-20.5859ZM26,26h-18.5859l7.7929-7.793l2.3788,2.3787c.781045.781031,2.047355.781031,2.8284,0L22,19l4,3.9973Zm0-5.8318l-2.5858-2.5859c-.781045-.781031-2.047355-.781031-2.8284,0L19,19.1682l-2.377-2.3771L26,7.4141Z" fill="#592626" />
    <path d="M6,22v-3l5-4.9966l1.3733,1.3733l1.4159-1.416-1.375-1.375c-.781045-.781031-2.047355-.781031-2.8284,0L6,16.1716L6,6h16v-2L6,4c-1.104113.001102-1.998898.895887-2,2v16Z" fill="#592626" />
  </g>
</svg>