<?xml version="1.0" encoding="utf-8"?>
<!-- Generator: Adobe Illustrator 22.0.1, SVG Export Plug-In . SVG Version: 6.00 Build 0)  -->
<svg version="1.1" id="Layer_1" xmlns="http://www.w3.org/2000/svg" xmlns:xlink="http://www.w3.org/1999/xlink" x="0px" y="0px"
	 width="249.83px" height="250.1px" viewBox="0 0 249.83 250.1" enable-background="new 0 0 249.83 250.1" xml:space="preserve">
<g>
	<path fill-rule="evenodd" clip-rule="evenodd" fill="#298B48" d="M124.92,250.05c68.94,0,124.87-55.93,124.87-125.13
		c0-68.94-55.93-124.87-124.87-124.87C55.71,0.05,0.05,55.98,0.05,124.92C0.05,194.12,55.71,250.05,124.92,250.05"/>
	<path fill-rule="evenodd" clip-rule="evenodd" fill="#125297" d="M124.92,245.17c66.5,0,119.99-53.85,119.99-120.26
		c0-66.5-53.49-120.35-119.99-120.35C58.51,4.57,4.57,58.42,4.57,124.91C4.57,191.32,58.51,245.17,124.92,245.17"/>
	<linearGradient id="SVGID_1_" gradientUnits="userSpaceOnUse" x1="124.922" y1="199.454" x2="124.922" y2="44.7665">
		<stop  offset="0" style="stop-color:#F8B32E"/>
		<stop  offset="0.5" style="stop-color:#FFFFFF"/>
		<stop  offset="1" style="stop-color:#F8B32E"/>
	</linearGradient>
	<circle fill="url(#SVGID_1_)" cx="124.92" cy="122.11" r="77.34"/>
	<path fill="#298B48" d="M124.92,198.86L124.92,198.86c21.07,0,40.17-8.56,53.99-22.43c13.83-13.87,22.39-33.06,22.39-54.31v-0.01v0
		c0-21.11-8.56-40.23-22.39-54.08c-13.82-13.83-32.92-22.39-53.98-22.4h-0.01h0c-21.07,0-40.16,8.56-53.99,22.4
		C57.1,81.88,48.53,101,48.53,122.11v0v0c0,21.25,8.57,40.44,22.39,54.31C84.75,190.3,103.84,198.86,124.92,198.86L124.92,198.86z
		 M124.92,202.04L124.92,202.04L124.92,202.04c-21.94,0-41.83-8.92-56.24-23.38c-14.41-14.45-23.33-34.43-23.33-56.54v0v0
		c0-21.98,8.92-41.89,23.32-56.31c14.41-14.42,34.3-23.34,56.24-23.34h0h0.01c21.93,0,41.82,8.92,56.23,23.34
		c14.41,14.41,23.33,34.32,23.33,56.31v0v0.01c0,22.11-8.92,42.09-23.32,56.54C166.75,193.11,146.85,202.04,124.92,202.04"/>
	<path fill-rule="evenodd" clip-rule="evenodd" fill="#F9B432" d="M43.42,88.5c0,1.08-0.36,2.8-1.08,4.88
		c-3.43,11.56-11.11,12.65-14.28,11.56c-5.6-1.72-11.2-9.13-9.85-21.68l2.8,0.36c-1.35,8.04,1.45,15.72,7.41,17.44
		c4.16,1.45,9.04-0.63,11.47-9.04c0.36-1.45,0.72-2.8,0.72-3.89L43.42,88.5z M48.66,79.38c-0.72-1-4.52-7.68-4.88-8.4l7.32-10.12
		c0.72,0,8.76,1.44,10.21,1.8l0.27-3.88c-4.52-0.36-22.32-3.16-28.28-3.88c0.36,1.81,10.48,22.05,11.83,25.93L48.66,79.38z
		 M42.7,68.53c-0.36-0.63-4.88-9.04-4.88-10.12c0.36,0,9.85,1.72,10.84,1.72L42.7,68.53z M54.26,35.01c0.36,0.63,5.6,7.68,5.96,8.04
		l2.8,3.8c0.36,0.72,4.88,7.05,5.96,8.76c0.63-0.72,9.39-6.6,9.76-6.96l-1.71-2.44c-2.8,2.08-6.33,4.52-6.69,5.24l-6.23-8.4
		c-2.53-3.52-6.68-9.48-7.05-10.21L54.26,35.01z M83.99,29.41c-1.72-3.88-3.79-9.12-3.79-9.48l-3.16,1.45
		c0.36,0.63,3.79,8.67,4.16,9.4l1.45,3.52c0.63,0.72,3.8,8.4,4.52,9.76l3.16-1.35c-0.36-0.72-3.16-6.32-4.52-9.85L83.99,29.41z
		 M104.32,38.18c0-0.36-1.81-7.05-1.81-7.77l-0.63-3.07l7.32-1.45l-0.72-2.8c-1.36,0.36-6.6,1.72-6.96,2.08l-2.17-9.04l8.13-1.81
		l-0.72-2.8c-1.45,0.36-10.12,2.8-11.2,2.8c0.36,0.72,2.08,9.13,2.44,9.85l1.08,4.52c0,1.08,1.72,8.4,1.72,10.48L104.32,38.18z
		 M115.79,24.17c-0.27,6.23,3.88,12.19,11.56,12.56c10.12,0.36,14.37-7.68,14.73-13.28c0.36-7.68-4.61-12.56-11.21-12.92
		C122.12,10.17,116.15,16.49,115.79,24.17 M138.56,23.45c-0.36,6.96-5.24,10.84-10.48,10.48c-5.96,0-9.13-4.52-8.76-10.12
		c0.36-5.96,4.52-10.84,10.84-10.48C134.67,13.33,138.92,17.13,138.56,23.45 M157.44,18.57c6.32,2.44,6.68,4.88,5.96,6.59
		c-1.08,3.16-5.24,4.25-7.05,4.25c0.36,2.08,4.25,14.64,4.61,15.36l3.16-1.35c-0.36-1.45-3.89-10.84-4.25-12.29
		c3.52-1.08,5.96-2.44,7.05-5.24c0.99-2.8-0.72-5.6-4.97-8.04c-2.44-1.08-5.24-2.08-6.96-2.8c0,0.72-2.44,7.68-2.8,8.76l-1.08,2.8
		c-0.27,0.72-4.16,11.56-4.52,12.2l3.52,1.08c0-0.36,2.8-9.13,3.52-10.12L157.44,18.57z M172.53,50.73
		c0.63-1.08,11.84-14.36,12.56-15.36h0.36c-0.36,0.99,1.71,26.92,2.08,28.28c5.96-6.6,15.72-17.44,17.17-19.25l-2.44-2.08
		c-0.72,0.72-11.56,13.64-12.29,14.37c-0.36-1.45-2.08-26.65-2.08-28.01c-2.44,2.8-16.08,17.53-17.89,19.61L172.53,50.73z
		 M207.86,65.37c3.43-2.44,8.04-5.24,8.31-5.51l-1.72-3.16c-0.72,0.63-8.04,5.96-8.4,6.23l-3.16,2.17c-0.63,0.63-7.68,5.6-9.04,6.23
		l2.08,2.8c0.72-0.36,5.96-4.16,8.76-6.23L207.86,65.37z M201.53,83.62c0.99,0,8.76,0.36,9.39,0.72l4.97,11.47
		c-0.36,0.36-5.96,6.68-7.05,7.68l2.8,2.17c2.8-3.52,15.09-17.17,18.52-21.68c-1.35-0.36-24.12-3.16-27.92-3.88L201.53,83.62z
		 M213.73,84.62c0.72,0,10.21,0.72,11.2,1.09c-0.36,0.72-6.59,7.68-7.32,8.4L213.73,84.62z M13.7,145.51
		c3.16,6.69,8.04,9.39,11.56,8.76c3.17-0.72,3.8-3.52,4.52-6.68c0.72-1.72,1.08-4.52,3.16-4.88c3.16-0.72,5.96,4.16,6.96,6.32
		l2.44-1.44c-2.08-4.88-6.96-9.4-10.84-8.4c-2.71,0.72-3.8,3.16-4.52,6.68c-1,3.16-1.72,4.52-3.52,4.88
		c-2.8,0.72-5.87-3.52-7.32-6.96L13.7,145.51z M28.78,180.84c0.27-0.72,7.68-5.24,13.92-8.76l5.24-3.16
		c1.45,2.8,4.61,8.76,4.61,9.13l2.8-1.36c-1.09-1.45-5.24-8.13-5.6-8.76l-1.44-2.44c-0.36-0.36-4.16-8.04-4.88-9.49l-2.44,1.72
		c0.36,0.72,3.16,4.97,5.24,8.4l-4.52,2.8c-4.88,2.8-14.01,8.04-15.09,8.4L28.78,180.84z M39.9,198.01
		c1.45-0.36,8.04-3.52,9.13-3.52l9.48,8.04c-0.36,0.72-2.53,8.76-2.8,10.12l3.43,0.72c0.72-4.51,5.6-22.05,6.69-28.01
		c-1.45,0.36-23.13,8.04-26.57,9.49L39.9,198.01z M51.46,193.4c0.72,0,9.49-3.8,10.48-3.8c0,0.37-2.44,9.76-2.8,10.48L51.46,193.4z
		 M77.39,224.57c0.27-0.72,3.43-8.4,6.6-15.09l2.8-5.24c2.8,1.09,8.4,4.25,9.13,4.61l1-2.8c-1.36-0.36-8.4-3.52-9.04-3.88l-2.8-1.36
		c-0.36-0.36-8.04-4.24-9.13-4.97l-1.35,2.8c0.99,0,5.6,2.17,9.39,4.25l-2.44,4.52c-2.44,5.24-6.96,14.73-7.68,15.36L77.39,224.57z
		 M112.99,231.89c-3.08-0.36-7.68-1.36-8.68-1.36l1.72-8.76c0.72,0.36,5.96,1.35,6.69,1.35l0.63-2.8c-2.08,0-6.6-0.63-6.96-0.63
		l1.35-9.13c0.72,0,7.05,1.08,8.04,1.08l0.36-2.8c-0.99,0-10.48-1.08-11.2-1.08c-0.27,0.72-1.35,9.13-1.72,9.76l-0.72,4.61
		c0,0.99-1.36,8.4-1.72,10.48c0.72,0,11.2,2.08,11.93,2.08L112.99,231.89z M150.12,231.89c0-0.72-1.08-4.52-1.45-5.24l-0.36-2.08
		c6.32-2.8,9.49-8.04,8.4-12.65c-0.99-3.8-4.52-5.24-9.4-4.88c-2.08,0.36-5.24,1.08-6.68,1.45c0.36,0.36,2.17,7.32,2.44,8.04
		l0.72,3.8c0.72,2.44,2.8,10.84,3.16,12.29L150.12,231.89z M144.52,210.2c6.96-1.71,8.76,2.08,8.76,3.17
		c0.99,3.88-1.45,6.68-5.6,8.76L144.52,210.2z M171.45,225.93c0-1.36-1.08-9.04-1.08-9.76l10.48-6.69c0.72,0.36,7.77,4.97,9.13,5.6
		l1.45-3.16c-3.89-2.08-19.24-11.84-24.49-14.64h-0.36c0,1.72,1.35,24.49,1.35,28.28L171.45,225.93z M170.36,213.37
		c0-0.36-0.99-10.12-0.63-11.21c0.27,0.36,8.4,5.24,9.04,5.96L170.36,213.37z M186.18,187.53c4.51-4.97,7.32-4.25,8.31-2.8
		c2.53,2.08,1.81,6.23,1.08,8.31c1.72,0.36,15.09,1.8,15.72,1.8l0.36-3.52c-1.35,0-11.84-0.72-13.28-1.08
		c0.72-3.44,0.36-6.6-1.72-8.68c-2.17-2.17-5.6-1.45-9.13,1.36c-2.44,2.08-4.51,4.25-5.6,5.24c0.72,0.36,5.96,5.6,6.69,6.33
		l2.08,2.08c0.72,0.36,9.13,8.4,9.4,9.13l2.44-2.8c-0.27-0.36-6.96-6.33-8.04-7.32L186.18,187.53z M221.14,180.12
		c-0.72-0.36-7.77-4.16-10.21-5.6l-3.43-1.72c-2.8-1.45-8.76-4.88-9.13-4.88l-1.71,3.16c0.63,0.27,6.96,3.43,9.39,4.88l3.52,1.72
		c3.52,2.08,8.76,4.88,9.76,5.6L221.14,180.12z M225.66,165.48c-1.72,0.36-13.28,4.16-14.73,4.52c-0.99-2.8-2.8-11.2-3.43-12.92
		l-3.16,0.63c0.72,1.09,4.52,15.09,4.88,15.81c2.08-0.72,17.17-4.97,17.8-4.97L225.66,165.48z M232.98,154.64
		c0-7.41-2.8-12.29-6.23-13.28c-3.16-0.72-4.97,1.36-7.05,3.8c-1.35,1.08-3.16,3.52-5.24,3.16c-3.16-1.09-3.52-6.69-3.16-9.13h-3.16
		c0,5.24,2.17,11.56,5.97,12.65c2.8,0.63,4.88-1.08,7.41-3.88c2.08-2.08,3.07-3.16,5.24-2.8c2.8,1.08,3.43,5.96,3.07,9.76
		L232.98,154.64z"/>
	<path fill-rule="evenodd" clip-rule="evenodd" fill="#298B48" d="M77.03,170.72c1.35-0.36,3.43-1.45,3.43-2.44
		c0-1.08-0.63-1.45-1.71-2.17c-1.36-0.63-2.08-1.36-2.08-2.44c0-1.72,2.08-3.16,4.52-3.43l0.36,0.99c-1.09,0-3.52,1.08-3.52,2.08
		c0,1.08,1.08,1.45,1.81,1.8c1.35,0.63,2.08,1.36,2.08,2.8c0,1.36-1.45,3.16-4.52,3.8L77.03,170.72z M88.5,165.12v-4.88h-1.72
		c0.36,0.27,0.36,4.51,0.36,4.51v1.72v4.88h1.36v-4.88V165.12z M95.55,171.35v-8.67c0.36,0.36,8.4,8.67,8.76,9.04
		c0.36-3.8,0.36-10.48,0.63-11.47h-1.72v8.31c-0.36-0.27-8.04-8.31-8.76-8.67c0,1.36-0.36,10.48-0.36,11.47H95.55z M117.6,170.36
		h-1.8c-3.8,0-5.24-1.81-5.24-3.52c0-2.8,2.8-4.88,6.68-5.6l-0.36-0.99c-5.6,0.63-8.04,4.16-8.04,6.59c0,1.72,1.35,4.88,6.69,4.88
		c0.99,0,1.71,0,2.44-0.36L117.6,170.36z M127.36,170.36h-3.79v-3.89h3.07v-1.36c-0.63,0.36-2.8,0.36-3.07,0.36v-4.25h3.43v-1.35
		c-0.36,0.36-4.52,0.36-4.88,0.36v4.51v2.08v4.52c0.36,0,4.88,0.36,5.24,0.36V170.36z M141,171.35v-4.16v-2.44v-4.88
		c-0.72,0.63-4.16,3.79-4.16,4.16l0.63,1.08c0.36-0.72,1.45-1.81,2.17-2.44v4.16c0,2.08-0.36,4.25-0.36,4.52H141z M152.56,163.04
		c0-1.81-1.45-2.8-3.16-2.8c-2.44,0-3.52,1.35-3.52,2.8c0,1.35,0.72,2.44,1.81,2.8c-1.09,0.27-2.17,1.72-2.17,2.71
		c0,1.81,1.08,3.16,3.52,3.16c2.8,0,3.88-2.08,3.88-3.16c0-1.35-0.72-2.44-2.08-3.07C152.2,165.12,152.56,163.67,152.56,163.04
		 M147.32,163.04c0-0.72,0.72-1.81,2.08-1.81c1.08,0,1.72,0.72,1.72,1.81c0,1.35-0.63,2.08-2.08,2.08
		C148.05,165.12,147.32,164.04,147.32,163.04 M151.12,168.55c0,1.45-0.63,2.17-2.08,2.17c-1,0-1.72-1.08-1.72-2.17
		c0-1.35,0.72-2.44,1.72-2.44C150.48,166.11,151.12,167.2,151.12,168.55 M160.97,159.88c-2.08,1.72-4.61,4.88-4.61,8.04
		c0,1.36,0.36,2.08,1.08,2.8c0.36,0.63,1.08,1,2.08,1c1.81,0,3.88-1.72,3.88-3.8c0-2.08-2.08-3.52-4.88-3.52
		c1-1.36,2.44-2.8,3.43-3.52L160.97,159.88z M159.52,170.72c-1,0-1.72-1.08-1.72-2.8c0-1.08,0-1.8,0.36-2.44c1.71,0,3.79,1,3.79,2.8
		C161.96,169.28,160.97,170.72,159.52,170.72 M172.53,159.88l-7.05,8.67v0.36h5.6v0.36v2.08h1.44v-1.72v-0.72h1.72v-1.36l-1.72,0.36
		V159.88z M171.45,167.92h-3.88c0.72-1.08,3.16-4.25,3.52-4.88h0.36V167.92z"/>
	<path fill-rule="evenodd" clip-rule="evenodd" fill="#8B3A33" d="M146.24,83.26c9.49-2.8,20.96-2.44,28.01,4.88
		c5.24,5.6,10.12,11.93,11.2,19.24c-0.72,8.76-1.09,15.36,3.16,24.12l3.08,5.97c0,3.52-2.08,6.32-3.43,8.76
		c-2.08,2.44-3.89,5.24-7.05,5.6c-5.24-0.36-11.2,0.63-16.44-0.36c-0.63-0.36-1-0.36-0.63-1.45c1-4.52,6.96-5.6,10.84-9.4
		c0.36-0.72,0.63-1.08,0-2.08c-3.88-2.53-7.05-3.89-10.48-7.05c0-0.72-1.09-0.36-1.81-0.36c-5.6,5.96-7.32,12.29-10.12,19.6
		c-1.72,2.08-4.52,1.72-7.32,1.72c-4.61,0-9.49,1.08-13.64-0.27c-0.36-0.36-0.36-1.09-0.36-1.81c1.36-5.24,8.77-3.52,9.76-9.04
		c0.72-3.88-2.44-6.69-2.8-9.85l-0.36-0.36c-3.16,0-6.6-0.63-9.4,0.72c2.8,6.96-2.44,17.8-5.96,19.61c-2.8,0-6.68,0.36-10.12,0.36
		c-2.8,0-5.6,0.63-8.4,0c-0.72-0.72-0.72-1.09-0.36-1.81c1.72-4.88,8.76-2.8,8.76-8.04c-2.44-1.36-2.44-4.88-5.24-4.16
		c-4.97,4.52-7.77,9.4-12.29,14.01c0,0-0.36,0.36-0.99,0.63c-2.8,0.72-15.09,0.72-18.25,0.36c-3.16-0.36-2.44-0.63-3.43-1.35
		c0-0.72-0.36-1.81,0-2.44c3.07-3.52,8.04-2.8,11.11-6.68c2.17-2.8,3.88-6.33,5.6-9.4c1.08-2.8-3.07-2.8-4.52-4.25
		c-2.8-1.72-5.96,0.36-8.4,1.08c-2.44,0.72-3.52-2.44-6.32-1.08c-1.72,0.36-4.16,1.08-5.51,0c-1.08-0.72-2.53-2.08-1.44-3.16
		l1.08-0.36c-3.16,0.36-7.05-0.63-8.76-3.43c0-0.72-1.09-1.45-0.36-2.08c2.44-4.25,8.76-5.6,8.76-10.84
		c0.72-1.81,3.16-2.8,4.16-4.61c0-2.44-0.36-5.24,2.44-5.96c1.45-0.63,1.45,1.08,2.44,1.08c0.72-1.45,1.08-4.16,3.52-4.52
		c2.44-0.72,5.24,2.08,7.68,0.99c7.68-3.79,13.64-10.48,20.33-16.8C118.59,68.54,131.24,84.98,146.24,83.26"/>
	<path fill-rule="evenodd" clip-rule="evenodd" fill="#BC806A" d="M173.52,91.3c-6.96-7.32-16.8-7.68-28.01-4.25
		c-14.27,4.61-21.32-8.04-31.08-8.31c-0.72,0-3.16,0.63-4.88,1.36l-3.89,2.08l-4.88,4.25c-1.08,0.99-2.8,2.8-6.32,5.96
		c-0.63,0.63-1.72,1.72-4.16,3.43c-1.8,1.08-3.52,2.8-4.52,3.16c0,0.36,1.36,5.96,1,5.96c-0.36,0-0.72,0.36-1,0
		c-0.72-3.16-2.8-6.69-5.96-7.68c-1.08,0-2.8-0.36-3.52,0.36c-0.36,5.6-5.96,8.04-9.49,12.19c0,5.24-5.51,7.32-8.67,10.84
		c0,0.72,0.36,1.45,0.99,1.72c2.8,2.8,7.05,1.08,10.21,0.36l1.36,0.36c0,2.8-3.16,3.17-4.52,4.25c0.99,1.36,3.16,0.36,4.88,0
		c3.16-1.81,5.24,1.72,8.4,0c4.16-2.17,6.32-2.8,7.68-6.33c0.72,0,1.09,0,1.09,0.36l-0.72,5.24c1-1.08,1.72-1.45,2.44-2.8
		c0,0,2.44-4.88,3.88-6.33c0.99,3.16-1.08,4.25-1.08,5.96c2.08-1.08,3.16-2.8,4.52-4.52c0.36-0.72,2.08-3.16,2.08-3.16
		c1.09,0-0.63,5.6-1.36,6.6l-5.6,10.57c-0.36,0.99-5.96,9.76-8.4,12.56c-3.16,1.72-8.4,2.8-8.4,5.24c0,0,14.37,0.72,18.25-0.72
		c2.8-0.99,7.68-10.84,11.84-13.28c2.44-1.72,4.25-2.44,7.32-4.51c6.33-3.52,2.8-12.29,6.69-5.96c3.52,2.44,8.04,1.71,17.8,1.71
		c-2.44-2.08-3.8-5.24-4.16-5.87c0.72-0.72,2.8,2.44,2.8,1.72c-0.36-2.08,1.08-5.96,1.08-5.24c0.27,0,1.36,3.52,1.72,2.44
		c1.35-2.44,1.35-2.08,2.08-3.89c1.45-1.72,1.45-2.8,3.16-3.43c0.72,0,1.08-0.36,1.08,0.37c-2.17,4.16-4.97,8.67-4.97,13.91
		c0,6.33,7.41,10.57,2.8,16.44c-1.72,4.25-7.32,2.17-8.67,5.96c0,0.36,1.36,0.72,2.08,0.72c4.88-0.36,7.32-0.36,11.84-0.36
		c3.16-1.09,2.8-2.08,3.52-3.52c2.44-6.6,2.08-5.87,3.16-7.68c0.36-2.08,3.52-6.96,4.16-7.68c0.36-1.72,4.25-4.88,7.05-5.96
		c1.36-0.72,2.8-1,3.52-1.72c1.36-0.72,4.16-2.44,6.23-6.33c1.08-0.99,1.8-2.44,3.16-5.6c0-0.72-0.99-2.08,1.09-1.36
		c2.8,0.36,3.79,0.63,3.79-1.81C183.65,103.5,178.4,96.54,173.52,91.3z M71.07,113.35c-0.36,0-1.45-0.36-1.72-0.72
		c0.27-0.36-0.72-1.72,0.27-2.08c0.72,0.36,2.17,0.36,2.53,0.99C72.15,112.27,72.15,113.71,71.07,113.35z M181.2,115.07
		c0.72-1.35,1.81,0,1.81,0s-0.36,5.6,1,10.48c1.08,3.16,3.52,8.4,3.88,8.76c0.72,0.72,2.08,3.52,2.08,3.88c0,0.63-0.36,2.8-1,3.8
		c-0.36,1.08-3.16,4.25-3.16,4.25s-2.17,2.44-2.8,2.8c-1.08,0.63-6.33,0.36-8.4,0.63c-2.08,0-7.68,0.72-7.68,0
		c0-1.71,5.87-4.51,7.32-4.88c1.08,0,3.52-1.72,4.16-2.44c1.81-1.71,0-4.51,0-4.51s-4.16-4.25-3.07-3.52c0,0.36-4.61-4.88-2.8-6.59
		C179.49,120.67,179.85,119.67,181.2,115.07 M128.08,136.75c0,1.81-1.09,4.61-1.72,6.68c-1.08,2.08-3.52,6.23-6.33,5.96
		c-0.72,0-8.04,0.63-10.48,0.63c-2.44,0-2.8,0-3.16-0.36c0-0.27,1.09-1.36,1.72-1.72c0.36-0.36,3.89-1.08,5.24-1.72
		c1.45-1.08,1.45-4.61,0.72-4.88c-0.72-0.72-2.08-2.8-2.08-2.8s4.52-0.72,4.88-1.45c0.36-0.72,3.52-1.36,3.89-1.36
		c0.63-0.36,3.07-0.72,3.8-0.72c0.72,0.36,3.16,0,3.16,0L128.08,136.75z"/>
</g>
</svg>
